# leviathan reconstructed from live game memory
v -21.29939 28.30560 -79.39703
v -15.05237 30.43929 -97.07333
v -16.68044 34.65901 -97.13682
v -23.33167 34.63435 -79.39500
v -26.66573 71.30200 70.51436
v 0.00000 82.05150 70.46981
v 0.00000 70.47600 98.95043
v -21.56053 62.97618 98.97003
v -18.29692 38.38387 159.79321
v -13.41082 28.60265 159.78816
v -15.09517 27.87598 143.29550
v -20.07584 39.47137 143.32643
v -21.60157 83.78558 -79.42313
v -19.49141 81.10474 -100.12439
v 0.00000 84.09232 -99.91480
v 0.00000 86.62479 -79.41125
v -41.21933 48.31369 -41.78844
v -41.65081 56.98058 -41.79576
v -42.14334 52.86267 -18.72831
v 0.00000 16.31464 -41.63159
v -32.39046 19.59555 -41.67931
v -31.39027 18.33637 -30.00383
v 0.00000 12.40415 -18.96036
v -32.22628 46.37008 70.50438
v -27.14367 23.51729 70.47925
v -32.98185 22.38607 35.33636
v -37.68068 49.12136 35.33998
v -30.39006 17.17451 -18.78772
v -31.58249 17.38394 -9.19987
v -13.09144 86.96954 51.89296
v 0.00000 93.87654 35.35826
v 0.00000 99.49968 45.63227
v -5.96515 95.35640 56.03519
v -42.11604 29.28410 -18.41488
v -51.09415 26.69641 -17.75739
v -51.43611 23.59644 -26.98055
v -40.64846 25.73003 -28.49597
v -38.61253 18.39939 -19.51189
v -41.09826 19.47308 -7.18064
v -50.81532 18.42527 -18.44324
v -38.61253 18.39939 -19.51189
v -39.56495 20.73390 -30.32393
v -51.49107 20.55224 -29.15965
v -61.57823 22.13968 -6.65016
v -64.48351 24.69674 -15.98263
v -48.59751 23.42675 -8.42513
v -64.90687 22.43831 -26.11505
v -63.88647 18.13999 -16.85160
v -62.06950 19.81161 -4.57334
v -49.40260 20.01981 -6.39723
v -65.04781 20.04464 -28.46368
v -77.28675 22.91578 -13.98010
v -74.06039 21.02153 -0.58034
v -87.66221 20.38482 -1.76075
v -90.34991 21.71545 -10.50078
v -77.77406 21.40148 -26.24282
v -91.10661 20.66057 -19.85498
v -76.43969 17.86152 -15.00735
v -90.56996 17.52526 -11.33292
v -88.77875 18.90427 0.32846
v -74.30510 19.54670 1.53898
v -77.98257 19.53813 -28.77029
v -91.56945 18.89729 -22.53261
v -49.40260 20.01981 -6.39723
v -62.06950 19.81161 -4.57334
v -74.30510 19.54670 1.53898
v -88.77875 18.90427 0.32846
v -97.71941 18.49170 -5.71700
v -96.44456 20.03640 -6.93595
v -97.71941 18.49170 -5.71700
v -41.10154 25.12008 -9.05868
v -42.11604 29.28410 -18.41488
v -40.64846 25.73003 -28.49597
v -36.12850 24.83978 -41.77084
v -61.59752 32.98146 244.43275
v -46.80375 31.56592 222.28589
v -47.38494 34.41162 221.05286
v -39.40381 32.99839 234.21413
v -40.28654 31.82907 232.72496
v 0.00000 52.80003 159.80869
v 0.00000 50.24002 173.14552
v -13.00114 47.29007 173.12999
v -13.97996 49.09247 159.80612
v -17.77401 37.58999 173.09932
v 0.00000 103.21814 56.27184
v -32.85007 76.39984 35.34285
v 0.00000 104.61656 68.53436
v -17.25110 36.43770 196.38037
v -12.11810 29.04721 198.35040
v -12.44127 28.93607 186.11887
v -17.51255 37.01385 186.00761
v -6.70234 32.23696 -109.13519
v -7.90883 34.65522 -110.15031
v -12.76446 28.82492 173.12128
v 0.00000 27.74058 173.13074
v 0.00000 27.11685 159.78645
v -12.11810 29.04721 198.35040
v -12.37646 29.78040 212.72794
v 0.00000 29.73402 211.90494
v 0.00000 28.36432 199.19174
v -34.41539 74.19304 -79.42258
v -37.65791 58.86414 -79.42155
v -31.43959 58.36643 -100.31074
v -28.43197 72.76025 -100.39140
v -34.95318 46.46887 -79.40418
v -27.81655 46.54842 -99.68813
v -23.19367 92.06535 -41.78392
v -23.22558 93.79805 -18.67284
v -37.57740 82.02162 -18.68922
v -37.42828 80.19092 -41.79429
v -22.66440 92.75708 0.10347
v -36.56598 80.06468 0.09741
v -19.20622 89.31870 35.34084
v 0.00000 26.64767 -79.39841
v 0.00000 29.27261 -97.08310
v -41.10154 25.12008 -9.05868
v -41.09826 19.47308 -7.18064
v -39.56495 20.73390 -30.32393
v -41.09826 19.47308 -7.18064
v 0.00000 93.87654 35.35826
v -13.09144 86.96954 51.89296
v -40.93837 53.65850 -64.31780
v -37.02433 46.98988 -64.09470
v -38.61238 46.86903 -71.05482
v -38.40235 41.18264 -59.05817
v -37.84018 41.34578 -68.27993
v -40.68858 47.07943 -57.09222
v -40.48830 58.57960 -64.45147
v -41.21933 48.31369 -41.78844
v -41.65081 56.98058 -41.79576
v -36.58135 76.50719 -64.46426
v -37.42828 80.19092 -41.79429
v -23.19367 92.06535 -41.78392
v -23.17843 86.51654 -64.50968
v 0.00000 89.73207 -64.50392
v 0.00000 95.99490 -41.77524
v -36.12850 24.83978 -41.77084
v -28.60556 36.40549 -79.39838
v -22.50127 37.47412 -98.01376
v -16.26957 72.28497 -125.01001
v -14.62202 79.80394 -120.42955
v -26.58224 43.28787 98.94258
v -17.25110 36.43770 196.38037
v -12.02234 43.98759 199.02304
v -30.31540 42.22915 209.45096
v -31.80997 36.23166 206.76797
v -40.52926 51.42712 0.09551
v -17.01389 58.21723 -125.79198
v -10.46884 37.09577 -115.70502
v -14.10115 45.90496 -121.67592
v 0.00000 36.04306 -117.98837
v 0.00000 45.78431 -126.14676
v -23.76460 34.62871 -79.39941
v -17.49382 35.47033 -97.28681
v -8.32107 35.33728 -113.13506
v 0.00000 34.66022 -114.97491
v -16.68044 34.65901 -97.13682
v 0.00000 31.00819 -96.89209
v 0.00000 29.07860 -79.25872
v -23.33167 34.63435 -79.39500
v -7.90883 34.65522 -110.15031
v 0.00000 34.65329 -111.70325
v 0.00000 46.17996 200.38101
v 0.00000 45.42815 208.81587
v -12.01701 44.27698 211.57736
v 0.00000 58.28658 -132.92509
v 0.00000 72.94157 -131.58566
v 0.00000 40.06815 -106.40950
v 0.00000 34.66022 -114.97491
v -8.32107 35.33728 -113.13506
v -17.49382 35.47033 -97.28681
v 0.00000 38.16119 -76.79272
v -23.76460 34.62871 -79.39941
v 0.00000 82.70189 -123.23143
v -30.86639 32.88758 -71.78669
v -24.84100 31.11840 -72.10298
v -32.39046 19.59555 -41.67931
v -26.83458 23.53886 -63.57715
v -32.87251 28.27752 -63.61870
v 0.00000 21.12788 -63.70898
v 0.00000 16.31464 -41.63159
v 0.00000 15.87190 70.45727
v 0.00000 11.98935 35.48073
v -21.51830 25.48987 98.90742
v 0.00000 20.47806 98.88264
v -37.35145 22.94744 0.13241
v 0.00000 10.88830 0.19265
v -24.84100 31.11840 -72.10298
v 0.00000 31.11332 -70.59892
v -11.91771 31.05860 224.44556
v -11.10084 34.33108 227.98990
v 0.00000 34.96530 222.47133
v 0.00000 31.12542 219.05797
v -28.12144 42.27515 217.15756
v -39.06000 52.63523 -64.26338
v -40.63664 46.92022 -64.07911
v -37.13891 46.82043 -69.82601
v -36.96542 41.80052 -59.92619
v -36.50112 41.34761 -67.54266
v -38.85368 46.99420 -58.29401
v -11.16651 40.03312 224.16550
v 0.00000 41.72442 219.83218
v 0.00000 34.96530 222.47133
v -11.10084 34.33108 227.98990
v -61.59752 32.98146 244.43275
v -41.50524 36.76661 232.25912
v -39.40381 32.99839 234.21413
v -29.43390 30.49998 217.62102
v -28.32117 31.15928 226.71184
v -30.07417 30.12062 209.29195
v -25.72126 36.39421 -82.40506
v -24.76785 33.73920 -83.08301
v -24.35882 33.94566 -84.58695
v -24.90321 36.80713 -85.41300
v -21.83450 36.89606 -84.56619
v -24.90321 36.80713 -85.41300
v -24.35882 33.94566 -84.58695
v -22.82446 33.99012 -84.16355
v -22.65256 36.48315 -81.55830
v -21.83450 36.89606 -84.56619
v -22.82446 33.99012 -84.16355
v -23.23349 33.78366 -82.65961
v -22.65256 36.48315 -81.55830
v -23.23349 33.78366 -82.65961
v -24.76785 33.73920 -83.08301
v -25.72126 36.39421 -82.40506
v -23.20231 31.09682 -83.77971
v -23.20231 31.09682 -83.77971
v -23.20231 31.09682 -83.77971
v -23.20231 31.09682 -83.77971
v -23.94715 36.40242 -88.07077
v -22.99373 33.74142 -88.72479
v -22.58471 33.93436 -90.23057
v -23.12910 36.78828 -91.08229
v -20.06038 36.88482 -90.23632
v -23.12910 36.78828 -91.08229
v -22.58471 33.93436 -90.23057
v -21.05035 33.98262 -89.80759
v -20.87845 36.49896 -87.22480
v -20.06038 36.88482 -90.23632
v -21.05035 33.98262 -89.80759
v -21.45938 33.78969 -88.30184
v -20.87845 36.49896 -87.22480
v -21.45938 33.78969 -88.30184
v -22.99373 33.74142 -88.72479
v -23.94715 36.40242 -88.07077
v -21.42820 31.09290 -89.39772
v -21.42820 31.09290 -89.39772
v -21.42820 31.09290 -89.39772
v -21.42820 31.09290 -89.39772
v -21.88390 36.54126 -94.22739
v -20.91777 33.84556 -94.69386
v -20.37813 33.97398 -96.16496
v -20.80460 36.79808 -97.16958
v -17.81876 36.89242 -96.06604
v -20.80460 36.79808 -97.16958
v -20.37813 33.97398 -96.16496
v -18.88521 34.02116 -95.61317
v -18.89806 36.63561 -93.12388
v -17.81876 36.89242 -96.06604
v -18.88521 34.02116 -95.61317
v -19.42485 33.89273 -94.14207
v -18.89806 36.63561 -93.12388
v -19.42485 33.89273 -94.14207
v -20.91777 33.84556 -94.69386
v -21.88390 36.54126 -94.22739
v -19.34006 31.15450 -95.12669
v -19.34006 31.15450 -95.12669
v -19.34006 31.15450 -95.12669
v -19.34006 31.15450 -95.12669
v -19.51740 37.28490 -99.94906
v -18.66118 34.51619 -100.08622
v -17.98135 34.48550 -101.50350
v -18.15775 37.22354 -102.78363
v -15.28631 37.27925 -101.40748
v -18.15775 37.22354 -102.78363
v -17.98135 34.48550 -101.50350
v -16.54564 34.51336 -100.81544
v -16.64596 37.34061 -98.57294
v -15.28631 37.27925 -101.40748
v -16.54564 34.51336 -100.81544
v -17.22546 34.54404 -99.39813
v -16.64596 37.34061 -98.57294
v -17.22546 34.54404 -99.39813
v -18.66118 34.51619 -100.08622
v -19.51740 37.28490 -99.94906
v -17.19978 31.72679 -100.13098
v -17.19978 31.72679 -100.13098
v -17.19978 31.72679 -100.13098
v -17.19978 31.72679 -100.13098
v -6.26193 36.47446 -115.17101
v -5.52152 33.76492 -114.44435
v -4.00562 33.74952 -114.86095
v -3.23013 36.44361 -116.00432
v -2.38657 36.71368 -112.94529
v -3.23013 36.44361 -116.00432
v -4.00562 33.74952 -114.86095
v -3.58384 33.88456 -113.33151
v -5.41838 36.74454 -112.11196
v -2.38657 36.71368 -112.94529
v -3.58384 33.88456 -113.33151
v -5.09975 33.89997 -112.91479
v -5.41838 36.74454 -112.11196
v -5.09975 33.89997 -112.91479
v -5.52152 33.76492 -114.44435
v -6.26193 36.47446 -115.17101
v -4.45332 31.07596 -113.20063
v -4.45332 31.07596 -113.20063
v -4.45332 31.07596 -113.20063
v -4.45332 31.07596 -113.20063
v 0.00000 31.45954 -110.17721
v 0.00000 34.65329 -111.70325
v -97.14810 20.21257 -12.88959
v -99.98846 18.48412 -14.04388
v -99.98846 18.48412 -14.04388
v -12.33279 36.89572 -110.92027
v -11.47414 34.12702 -110.79925
v -10.40716 34.09632 -111.95355
v -10.19882 36.83437 -113.22889
v -7.85984 36.89008 -111.06830
v -10.19882 36.83437 -113.22889
v -10.40716 34.09632 -111.95355
v -9.23766 34.12419 -110.87324
v -9.99381 36.95143 -108.75972
v -7.85984 36.89008 -111.06830
v -9.23766 34.12419 -110.87324
v -10.30465 34.15486 -109.71898
v -9.99381 36.95143 -108.75972
v -10.30465 34.15486 -109.71898
v -11.47414 34.12702 -110.79925
v -12.33279 36.89572 -110.92027
v -10.06433 31.33763 -110.41177
v -10.06433 31.33763 -110.41177
v -10.06433 31.33763 -110.41177
v -10.06433 31.33763 -110.41177
v -15.87712 37.28490 -105.25095
v -15.01289 34.51619 -105.32185
v -14.22606 34.48550 -106.68260
v -14.30346 37.22354 -107.97251
v -11.54638 37.27924 -106.37962
v -14.30346 37.22354 -107.97251
v -14.22606 34.48550 -106.68260
v -12.84752 34.51336 -105.88618
v -13.12004 37.34061 -103.65800
v -11.54638 37.27924 -106.37962
v -12.84752 34.51336 -105.88618
v -13.63435 34.54404 -104.52537
v -13.12004 37.34061 -103.65800
v -13.63435 34.54404 -104.52537
v -15.01289 34.51619 -105.32185
v -15.87712 37.28490 -105.25095
v -13.55237 31.72680 -105.25408
v -13.55237 31.72680 -105.25408
v -13.55237 31.72680 -105.25408
v -13.55237 31.72680 -105.25408
v 0.00000 91.87958 67.42928
v 0.00000 98.09004 -18.67207
v 0.00000 97.24141 0.10505
v -17.34690 56.09382 126.02727
v 0.00000 61.58624 126.04634
v 0.00000 56.78437 143.39690
v -15.66343 52.18438 143.38051
v -21.85476 41.04435 125.98804
v -16.77953 27.14932 125.95329
v 0.00000 24.33106 125.93422
v 0.00000 25.72395 143.28142
v 0.00000 95.99490 -41.77524
v -31.80997 36.23166 206.76797
v -27.90144 33.89253 229.60901
v -47.38494 34.41162 221.05286
v -46.13424 38.19250 222.76176
v -27.90144 33.89253 229.60901
v -26.29640 38.99325 226.54318
v -17.25110 36.43770 196.38037
v 0.00000 82.05150 70.46981
v 0.00000 48.20999 186.23361
v -12.51174 45.63883 186.15688
v 0.00000 28.05244 186.16635
v 0.00000 46.17996 200.38101
v -12.02234 43.98759 199.02304
v 0.00000 28.36432 199.19174
v 21.29939 28.30560 -79.39703
v 23.33167 34.63435 -79.39500
v 16.68044 34.65901 -97.13682
v 15.05237 30.43929 -97.07333
v 26.66573 71.30200 70.51436
v 21.56053 62.97618 98.97003
v 18.29692 38.38387 159.79321
v 20.07584 39.47137 143.32643
v 15.09517 27.87598 143.29550
v 13.41082 28.60265 159.78816
v 21.60157 83.78558 -79.42313
v 19.49141 81.10474 -100.12439
v 41.21933 48.31369 -41.78844
v 42.14334 52.86267 -18.72831
v 41.65081 56.98058 -41.79576
v 31.39027 18.33637 -30.00383
v 32.39046 19.59555 -41.67931
v 32.22628 46.37008 70.50438
v 37.68068 49.12136 35.33998
v 32.98185 22.38607 35.33636
v 27.14367 23.51729 70.47925
v 30.39006 17.17451 -18.78772
v 31.58249 17.38394 -9.19987
v 13.09144 86.96954 51.89296
v 5.96515 95.35640 56.03519
v 42.11604 29.28410 -18.41488
v 40.64846 25.73003 -28.49597
v 51.43611 23.59644 -26.98055
v 51.09415 26.69642 -17.75738
v 41.09826 19.47308 -7.18064
v 38.61253 18.39939 -19.51189
v 50.81532 18.42527 -18.44324
v 51.49107 20.55224 -29.15965
v 39.56495 20.73390 -30.32393
v 38.61253 18.39939 -19.51189
v 61.57823 22.13968 -6.65016
v 48.59751 23.42675 -8.42513
v 64.48351 24.69674 -15.98263
v 64.90686 22.43831 -26.11506
v 63.88647 18.13999 -16.85160
v 49.40260 20.01981 -6.39723
v 62.06950 19.81161 -4.57334
v 65.04781 20.04464 -28.46369
v 77.28674 22.91578 -13.98011
v 90.34991 21.71545 -10.50079
v 87.66220 20.38482 -1.76076
v 74.06038 21.02153 -0.58034
v 77.77406 21.40148 -26.24282
v 91.10660 20.66057 -19.85498
v 76.43968 17.86152 -15.00736
v 74.30509 19.54670 1.53897
v 88.77874 18.90427 0.32845
v 90.56995 17.52526 -11.33293
v 77.98256 19.53813 -28.77030
v 91.56944 18.89729 -22.53262
v 49.40260 20.01981 -6.39723
v 62.06950 19.81161 -4.57334
v 74.30509 19.54670 1.53897
v 88.77874 18.90427 0.32845
v 97.71940 18.49170 -5.71701
v 96.44455 20.03640 -6.93596
v 97.71940 18.49170 -5.71701
v 41.10154 25.12008 -9.05868
v 42.11604 29.28410 -18.41488
v 36.12850 24.83978 -41.77084
v 40.64846 25.73003 -28.49597
v 61.59752 32.98146 244.43277
v 47.38494 34.41161 221.05287
v 46.80375 31.56592 222.28590
v 40.28654 31.82906 232.72498
v 39.40382 32.99838 234.21414
v 13.97996 49.09247 159.80612
v 13.00114 47.29007 173.12999
v 17.77401 37.58999 173.09932
v 32.85007 76.39984 35.34285
v 17.25110 36.43770 196.38037
v 17.51255 37.01385 186.00761
v 12.44127 28.93607 186.11887
v 12.11810 29.04721 198.35040
v 7.90883 34.65522 -110.15031
v 6.70234 32.23696 -109.13519
v 12.76446 28.82492 173.12128
v 12.11810 29.04721 198.35040
v 12.37646 29.78039 212.72795
v 34.41539 74.19304 -79.42258
v 28.43197 72.76025 -100.39140
v 31.43959 58.36643 -100.31074
v 37.65791 58.86414 -79.42155
v 27.81655 46.54842 -99.68813
v 34.95318 46.46887 -79.40418
v 23.19367 92.06535 -41.78392
v 37.42828 80.19092 -41.79429
v 37.57740 82.02162 -18.68922
v 23.22558 93.79805 -18.67284
v 36.56598 80.06468 0.09741
v 22.66440 92.75708 0.10347
v 19.20622 89.31870 35.34084
v 41.10154 25.12008 -9.05868
v 41.09826 19.47308 -7.18064
v 39.56495 20.73390 -30.32393
v 41.09826 19.47308 -7.18064
v 13.09144 86.96954 51.89296
v 40.93837 53.65850 -64.31780
v 38.61238 46.86903 -71.05482
v 37.02433 46.98988 -64.09470
v 38.40235 41.18264 -59.05817
v 37.84018 41.34578 -68.27993
v 40.68858 47.07943 -57.09222
v 40.48830 58.57960 -64.45147
v 41.21933 48.31369 -41.78844
v 41.65081 56.98058 -41.79576
v 37.42828 80.19092 -41.79429
v 36.58135 76.50719 -64.46426
v 23.19367 92.06535 -41.78392
v 23.17843 86.51654 -64.50968
v 36.12850 24.83978 -41.77084
v 28.60556 36.40549 -79.39838
v 22.50127 37.47412 -98.01376
v 14.62202 79.80394 -120.42955
v 16.26957 72.28497 -125.01001
v 26.58224 43.28787 98.94258
v 17.25110 36.43770 196.38037
v 31.80996 36.23165 206.76799
v 30.31540 42.22914 209.45097
v 12.02234 43.98758 199.02304
v 40.52926 51.42712 0.09551
v 17.01389 58.21723 -125.79198
v 14.10115 45.90496 -121.67592
v 10.46884 37.09577 -115.70502
v 17.49382 35.47033 -97.28681
v 23.76460 34.62871 -79.39941
v 8.32107 35.33728 -113.13506
v 16.68044 34.65901 -97.13682
v 23.33167 34.63435 -79.39500
v 7.90883 34.65522 -110.15031
v 12.01701 44.27698 211.57738
v 17.49382 35.47033 -97.28681
v 8.32107 35.33728 -113.13506
v 23.76460 34.62871 -79.39941
v 24.84100 31.11840 -72.10298
v 30.86639 32.88758 -71.78669
v 32.39046 19.59555 -41.67931
v 32.87251 28.27752 -63.61870
v 26.83458 23.53886 -63.57715
v 21.51830 25.48987 98.90742
v 37.35145 22.94744 0.13241
v 24.84100 31.11840 -72.10298
v 11.91771 31.05860 224.44557
v 11.10084 34.33108 227.98990
v 28.12143 42.27514 217.15758
v 39.06000 52.63523 -64.26338
v 37.13891 46.82043 -69.82601
v 40.63664 46.92022 -64.07911
v 36.96542 41.80052 -59.92619
v 36.50112 41.34761 -67.54266
v 38.85368 46.99420 -58.29401
v 11.16651 40.03312 224.16550
v 11.10084 34.33108 227.98990
v 61.59752 32.98146 244.43277
v 39.40382 32.99838 234.21414
v 41.50525 36.76661 232.25914
v 28.32117 31.15927 226.71185
v 29.43390 30.49998 217.62103
v 30.07417 30.12062 209.29196
v 25.72126 36.39421 -82.40506
v 24.90321 36.80713 -85.41300
v 24.35882 33.94566 -84.58695
v 24.76785 33.73920 -83.08301
v 21.83450 36.89606 -84.56619
v 22.82446 33.99012 -84.16355
v 24.35882 33.94566 -84.58695
v 24.90321 36.80713 -85.41300
v 22.65256 36.48315 -81.55830
v 23.23349 33.78366 -82.65961
v 22.82446 33.99012 -84.16355
v 21.83450 36.89606 -84.56619
v 22.65256 36.48315 -81.55830
v 25.72126 36.39421 -82.40506
v 24.76785 33.73920 -83.08301
v 23.23349 33.78366 -82.65961
v 23.20231 31.09682 -83.77971
v 23.20231 31.09682 -83.77971
v 23.20231 31.09682 -83.77971
v 23.20231 31.09682 -83.77971
v 23.94715 36.40242 -88.07077
v 23.12910 36.78828 -91.08229
v 22.58471 33.93436 -90.23057
v 22.99373 33.74142 -88.72479
v 20.06038 36.88482 -90.23632
v 21.05035 33.98262 -89.80759
v 22.58471 33.93436 -90.23057
v 23.12910 36.78828 -91.08229
v 20.87845 36.49896 -87.22480
v 21.45938 33.78969 -88.30184
v 21.05035 33.98262 -89.80759
v 20.06038 36.88482 -90.23632
v 20.87845 36.49896 -87.22480
v 23.94715 36.40242 -88.07077
v 22.99373 33.74142 -88.72479
v 21.45938 33.78969 -88.30184
v 21.42820 31.09290 -89.39772
v 21.42820 31.09290 -89.39772
v 21.42820 31.09290 -89.39772
v 21.42820 31.09290 -89.39772
v 21.88390 36.54126 -94.22739
v 20.80460 36.79808 -97.16958
v 20.37813 33.97398 -96.16496
v 20.91777 33.84556 -94.69386
v 17.81876 36.89242 -96.06604
v 18.88521 34.02116 -95.61317
v 20.37813 33.97398 -96.16496
v 20.80460 36.79808 -97.16958
v 18.89806 36.63561 -93.12388
v 19.42485 33.89273 -94.14207
v 18.88521 34.02116 -95.61317
v 17.81876 36.89242 -96.06604
v 18.89806 36.63561 -93.12388
v 21.88390 36.54126 -94.22739
v 20.91777 33.84556 -94.69386
v 19.42485 33.89273 -94.14207
v 19.34006 31.15450 -95.12669
v 19.34006 31.15450 -95.12669
v 19.34006 31.15450 -95.12669
v 19.34006 31.15450 -95.12669
v 19.51740 37.28490 -99.94906
v 18.15775 37.22354 -102.78363
v 17.98135 34.48550 -101.50350
v 18.66118 34.51619 -100.08622
v 15.28631 37.27925 -101.40748
v 16.54564 34.51336 -100.81544
v 17.98135 34.48550 -101.50350
v 18.15775 37.22354 -102.78363
v 16.64596 37.34061 -98.57294
v 17.22546 34.54404 -99.39813
v 16.54564 34.51336 -100.81544
v 15.28631 37.27925 -101.40748
v 16.64596 37.34061 -98.57294
v 19.51740 37.28490 -99.94906
v 18.66118 34.51619 -100.08622
v 17.22546 34.54404 -99.39813
v 17.19978 31.72679 -100.13098
v 17.19978 31.72679 -100.13098
v 17.19978 31.72679 -100.13098
v 17.19978 31.72679 -100.13098
v 6.26194 36.47446 -115.17101
v 3.23013 36.44361 -116.00432
v 4.00562 33.74952 -114.86095
v 5.52152 33.76492 -114.44435
v 2.38657 36.71368 -112.94529
v 3.58384 33.88456 -113.33151
v 4.00562 33.74952 -114.86095
v 3.23013 36.44361 -116.00432
v 5.41838 36.74454 -112.11196
v 5.09975 33.89997 -112.91479
v 3.58384 33.88456 -113.33151
v 2.38657 36.71368 -112.94529
v 5.41838 36.74454 -112.11196
v 6.26194 36.47446 -115.17101
v 5.52152 33.76492 -114.44435
v 5.09975 33.89997 -112.91479
v 4.45332 31.07596 -113.20063
v 4.45332 31.07596 -113.20063
v 4.45332 31.07596 -113.20063
v 4.45332 31.07596 -113.20063
v 97.14809 20.21257 -12.88960
v 99.98845 18.48412 -14.04388
v 99.98845 18.48412 -14.04388
v 12.33279 36.89572 -110.92027
v 10.19882 36.83437 -113.22889
v 10.40716 34.09632 -111.95355
v 11.47414 34.12702 -110.79925
v 7.85984 36.89008 -111.06830
v 9.23766 34.12419 -110.87324
v 10.40716 34.09632 -111.95355
v 10.19882 36.83437 -113.22889
v 9.99381 36.95143 -108.75972
v 10.30465 34.15486 -109.71898
v 9.23766 34.12419 -110.87324
v 7.85984 36.89008 -111.06830
v 9.99381 36.95143 -108.75972
v 12.33279 36.89572 -110.92027
v 11.47414 34.12702 -110.79925
v 10.30465 34.15486 -109.71898
v 10.06433 31.33763 -110.41177
v 10.06433 31.33763 -110.41177
v 10.06433 31.33763 -110.41177
v 10.06433 31.33763 -110.41177
v 15.87712 37.28490 -105.25095
v 14.30346 37.22354 -107.97251
v 14.22606 34.48550 -106.68260
v 15.01289 34.51619 -105.32185
v 11.54638 37.27924 -106.37962
v 12.84752 34.51336 -105.88618
v 14.22606 34.48550 -106.68260
v 14.30346 37.22354 -107.97251
v 13.12004 37.34061 -103.65800
v 13.63435 34.54404 -104.52537
v 12.84752 34.51336 -105.88618
v 11.54638 37.27924 -106.37962
v 13.12004 37.34061 -103.65800
v 15.87712 37.28490 -105.25095
v 15.01289 34.51619 -105.32185
v 13.63435 34.54404 -104.52537
v 13.55237 31.72680 -105.25408
v 13.55237 31.72680 -105.25408
v 13.55237 31.72680 -105.25408
v 13.55237 31.72680 -105.25408
v 17.34690 56.09382 126.02727
v 15.66343 52.18438 143.38051
v 21.85476 41.04435 125.98804
v 16.77953 27.14932 125.95329
v 31.80996 36.23165 206.76799
v 27.90144 33.89252 229.60902
v 47.38494 34.41161 221.05287
v 46.13424 38.19249 222.76178
v 27.90144 33.89252 229.60902
v 26.29640 38.99324 226.54320
v 17.25110 36.43770 196.38037
v 12.51174 45.63883 186.15688
v 12.02234 43.98758 199.02304
vt 0.802755 0.140760
vt 0.690120 0.143938
vt 0.675487 0.171912
vt 0.788880 0.179353
vt 0.510120 0.820593
vt 0.521919 0.891673
vt 0.630096 0.865190
vt 0.620443 0.802768
vt 0.852085 0.747722
vt 0.861334 0.679314
vt 0.796426 0.669934
vt 0.790348 0.739153
vt 0.787559 0.460247
vt 0.671483 0.443535
vt 0.650942 0.512693
vt 0.775411 0.540360
vt 0.011011 0.686586
vt 0.005432 0.740268
vt 0.127614 0.709573
vt 0.050167 0.427773
vt 0.005393 0.540257
vt 0.083266 0.546306
vt 0.170095 0.444076
vt 0.522671 0.718362
vt 0.544513 0.621927
vt 0.399051 0.608533
vt 0.376546 0.712811
vt 0.137302 0.550687
vt 0.189762 0.575092
vt 0.849420 0.904951
vt 0.895905 0.938614
vt 0.939813 0.921557
vt 0.916099 0.883730
vt 0.278074 0.271113
vt 0.239246 0.262796
vt 0.229394 0.280425
vt 0.280702 0.287342
vt 0.129492 0.595621
vt 0.189839 0.604715
vt 0.205137 0.337033
vt 0.276072 0.342245
vt 0.276941 0.301404
vt 0.225807 0.291053
vt 0.198308 0.196225
vt 0.188657 0.243591
vt 0.253346 0.211099
vt 0.166248 0.271049
vt 0.148146 0.334130
vt 0.140992 0.390173
vt 0.200668 0.378573
vt 0.161190 0.287723
vt 0.128576 0.223261
vt 0.149209 0.169709
vt 0.070788 0.168715
vt 0.057344 0.209442
vt 0.112768 0.267625
vt 0.050173 0.248356
vt 0.089804 0.330866
vt 0.033540 0.325436
vt 0.027050 0.369449
vt 0.076315 0.384939
vt 0.103657 0.279262
vt 0.042616 0.265365
vt 0.255250 0.196413
vt 0.199110 0.182320
vt 0.137390 0.156087
vt 0.072671 0.157062
vt 0.030376 0.174874
vt 0.038189 0.183824
vt 0.003291 0.326659
vt 0.184733 0.619200
vt 0.131242 0.621064
vt 0.078316 0.607500
vt 0.007276 0.597385
vt 0.176468 0.034202
vt 0.269854 0.086947
vt 0.254626 0.108913
vt 0.290760 0.019151
vt 0.284281 0.036601
vt 0.852734 0.821785
vt 0.903521 0.822499
vt 0.899142 0.802057
vt 0.853652 0.802372
vt 0.896638 0.751224
vt 0.977130 0.886457
vt 0.361014 0.820091
vt 0.986696 0.848791
vt 0.982063 0.756527
vt 0.982063 0.718924
vt 0.946363 0.704392
vt 0.938029 0.753318
vt 0.612426 0.111331
vt 0.594417 0.124627
vt 0.906277 0.690975
vt 0.920465 0.639216
vt 0.875917 0.614934
vt 0.552430 0.194218
vt 0.507060 0.140211
vt 0.552447 0.132393
vt 0.559095 0.183491
vt 0.796267 0.395255
vt 0.792598 0.330579
vt 0.687280 0.323152
vt 0.685886 0.386942
vt 0.774695 0.270091
vt 0.685877 0.274954
vt 0.026190 0.900426
vt 0.117373 0.906063
vt 0.119700 0.819926
vt 0.011481 0.813855
vt 0.230552 0.918137
vt 0.235931 0.816311
vt 0.357683 0.884362
vt 0.800847 0.053170
vt 0.700410 0.059708
vt 0.298207 0.224572
vt 0.264949 0.369455
vt 0.075058 0.589736
vt 0.289373 0.205185
vt 0.353995 0.950455
vt 0.428769 0.905846
vt 0.847028 0.295042
vt 0.842933 0.264729
vt 0.806509 0.264699
vt 0.874080 0.241667
vt 0.818467 0.240061
vt 0.885007 0.268743
vt 0.864874 0.352079
vt 0.998189 0.280824
vt 0.995618 0.356109
vt 0.865427 0.394938
vt 0.990119 0.408693
vt 0.990514 0.483371
vt 0.863351 0.474684
vt 0.866340 0.563757
vt 0.998189 0.593065
vt 0.998189 0.181800
vt 0.780171 0.224284
vt 0.679649 0.241722
vt 0.560142 0.385080
vt 0.579579 0.416136
vt 0.621337 0.728732
vt 0.427600 0.204440
vt 0.552959 0.195143
vt 0.345924 0.132226
vt 0.330262 0.153841
vt 0.248608 0.712590
vt 0.550656 0.326827
vt 0.560170 0.251738
vt 0.554195 0.268839
vt 0.491879 0.232250
vt 0.472352 0.263615
vt 0.787529 0.193136
vt 0.665594 0.213031
vt 0.564000 0.230085
vt 0.504429 0.212674
vt 0.496526 0.938281
vt 0.496581 0.970956
vt 0.588705 0.977860
vt 0.586772 0.917345
vt 0.464217 0.956795
vt 0.453580 0.966618
vt 0.559676 0.183948
vt 0.553777 0.132035
vt 0.506499 0.140268
vt 0.473160 0.332831
vt 0.479496 0.422828
vt 0.739536 0.971640
vt 0.795578 0.959472
vt 0.789043 0.932578
vt 0.733994 0.925724
vt 0.659280 0.982540
vt 0.659757 0.912641
vt 0.520928 0.466763
vt 0.829003 0.214562
vt 0.840078 0.171087
vt 0.998189 0.147849
vt 0.917196 0.149025
vt 0.929298 0.182433
vt 0.865646 0.044914
vt 0.972382 0.035157
vt 0.583906 0.514246
vt 0.444334 0.472197
vt 0.633814 0.640681
vt 0.660469 0.537773
vt 0.262928 0.606716
vt 0.295711 0.460584
vt 0.624347 0.912088
vt 0.625175 0.979655
vt 0.496484 0.078720
vt 0.481709 0.018637
vt 0.508205 0.015009
vt 0.535261 0.068524
vt 0.357188 0.087350
vt 0.382786 0.391581
vt 0.388831 0.334667
vt 0.336217 0.355181
vt 0.442634 0.281507
vt 0.335669 0.275554
vt 0.442293 0.362908
vt 0.496270 0.078329
vt 0.534233 0.069348
vt 0.506794 0.014261
vt 0.479767 0.017684
vt 0.176558 0.034246
vt 0.282943 0.038262
vt 0.289122 0.019545
vt 0.357572 0.087719
vt 0.355657 0.047057
vt 0.345568 0.131907
vt 0.027292 0.011551
vt 0.037017 0.061303
vt 0.106286 0.067216
vt 0.119069 0.011880
vt 0.119025 0.011907
vt 0.027208 0.011723
vt 0.036972 0.061284
vt 0.106280 0.067217
vt 0.119019 0.011981
vt 0.027365 0.012294
vt 0.036876 0.061303
vt 0.106282 0.067219
vt 0.027318 0.011972
vt 0.036746 0.061273
vt 0.106257 0.067174
vt 0.119003 0.011898
vt 0.070620 0.133465
vt 0.070640 0.133261
vt 0.070593 0.133139
vt 0.070496 0.133228
vt 0.027284 0.011551
vt 0.037004 0.061302
vt 0.106283 0.067212
vt 0.119065 0.011880
vt 0.119026 0.011909
vt 0.027210 0.011730
vt 0.036975 0.061285
vt 0.106281 0.067218
vt 0.119022 0.011979
vt 0.027373 0.012295
vt 0.036889 0.061302
vt 0.106285 0.067220
vt 0.027317 0.011962
vt 0.036742 0.061271
vt 0.106256 0.067172
vt 0.119002 0.011896
vt 0.070615 0.133461
vt 0.070641 0.133266
vt 0.070597 0.133141
vt 0.070494 0.133221
vt 0.027248 0.011544
vt 0.036945 0.061297
vt 0.106269 0.067195
vt 0.119048 0.011877
vt 0.119026 0.011919
vt 0.027208 0.011769
vt 0.036973 0.061293
vt 0.106280 0.067224
vt 0.119038 0.011977
vt 0.027408 0.012312
vt 0.036949 0.061300
vt 0.106296 0.067226
vt 0.027321 0.011927
vt 0.036743 0.061260
vt 0.106256 0.067163
vt 0.119002 0.011885
vt 0.070593 0.133439
vt 0.070641 0.133282
vt 0.070619 0.133157
vt 0.070495 0.133188
vt 0.027159 0.011546
vt 0.036803 0.061290
vt 0.106237 0.067157
vt 0.119007 0.011875
vt 0.119020 0.011949
vt 0.027196 0.011892
vt 0.036954 0.061315
vt 0.106277 0.067241
vt 0.119020 0.011928
vt 0.027364 0.012180
vt 0.036912 0.061264
vt 0.106289 0.067214
vt 0.027338 0.011873
vt 0.036761 0.061239
vt 0.106261 0.067150
vt 0.119007 0.011865
vt 0.070538 0.133396
vt 0.070633 0.133329
vt 0.070603 0.133125
vt 0.070501 0.133127
vt 0.027166 0.011605
vt 0.036816 0.061309
vt 0.106239 0.067177
vt 0.119011 0.011890
vt 0.119047 0.011952
vt 0.027253 0.011864
vt 0.037043 0.061319
vt 0.106294 0.067251
vt 0.119017 0.011908
vt 0.027361 0.012108
vt 0.036900 0.061253
vt 0.106287 0.067204
vt 0.027410 0.012024
vt 0.036847 0.061285
vt 0.106274 0.067164
vt 0.119038 0.011926
vt 0.070544 0.133457
vt 0.070667 0.133361
vt 0.070598 0.133103
vt 0.070535 0.133223
vt 0.607700 0.064723
vt 0.578095 0.074355
vt 0.023828 0.216771
vt 0.014145 0.290859
vt 0.005567 0.220950
vt 0.027159 0.011546
vt 0.036803 0.061290
vt 0.106237 0.067157
vt 0.119007 0.011875
vt 0.119020 0.011949
vt 0.027196 0.011892
vt 0.036954 0.061315
vt 0.106277 0.067241
vt 0.119020 0.011928
vt 0.027364 0.012180
vt 0.036912 0.061264
vt 0.106289 0.067214
vt 0.027338 0.011873
vt 0.036761 0.061239
vt 0.106261 0.067150
vt 0.119007 0.011865
vt 0.070538 0.133396
vt 0.070633 0.133329
vt 0.070603 0.133125
vt 0.070501 0.133127
vt 0.027159 0.011546
vt 0.036803 0.061290
vt 0.106237 0.067157
vt 0.119007 0.011875
vt 0.119020 0.011949
vt 0.027196 0.011892
vt 0.036954 0.061315
vt 0.106277 0.067241
vt 0.119020 0.011928
vt 0.027364 0.012180
vt 0.036912 0.061264
vt 0.106289 0.067214
vt 0.027338 0.011873
vt 0.036761 0.061239
vt 0.106261 0.067150
vt 0.119007 0.011865
vt 0.070538 0.133396
vt 0.070633 0.133329
vt 0.070603 0.133125
vt 0.070501 0.133127
vt 0.886349 0.841242
vt 0.114077 0.982304
vt 0.230387 0.989413
vt 0.714938 0.798441
vt 0.723028 0.839165
vt 0.791396 0.823789
vt 0.787810 0.799292
vt 0.713782 0.729471
vt 0.726290 0.657297
vt 0.746292 0.569341
vt 0.816376 0.594838
vt 0.030585 0.979737
vt 0.329683 0.155079
vt 0.352652 0.028303
vt 0.254243 0.109517
vt 0.270017 0.087712
vt 0.353315 0.029491
vt 0.354902 0.046560
vt 0.427802 0.204620
vt 0.813617 0.853330
vt 0.942201 0.824485
vt 0.939460 0.803528
vt 0.957698 0.658558
vt 0.982063 0.827584
vt 0.982063 0.806114
vt 0.982063 0.675671
vt 0.802755 0.140760
vt 0.788880 0.179353
vt 0.675487 0.171912
vt 0.690120 0.143938
vt 0.510120 0.820593
vt 0.620443 0.802768
vt 0.852085 0.747722
vt 0.790348 0.739153
vt 0.796426 0.669934
vt 0.861334 0.679314
vt 0.787559 0.460247
vt 0.671483 0.443535
vt 0.011011 0.686586
vt 0.127614 0.709573
vt 0.005432 0.740268
vt 0.083266 0.546306
vt 0.005393 0.540257
vt 0.522671 0.718362
vt 0.376546 0.712811
vt 0.399051 0.608533
vt 0.544513 0.621927
vt 0.137302 0.550687
vt 0.189762 0.575092
vt 0.849420 0.904951
vt 0.916099 0.883730
vt 0.278074 0.271113
vt 0.280702 0.287342
vt 0.229394 0.280425
vt 0.239246 0.262796
vt 0.189839 0.604715
vt 0.129492 0.595621
vt 0.205137 0.337033
vt 0.225807 0.291053
vt 0.276941 0.301404
vt 0.276072 0.342245
vt 0.198308 0.196225
vt 0.253346 0.211099
vt 0.188657 0.243591
vt 0.166248 0.271049
vt 0.148146 0.334130
vt 0.200668 0.378573
vt 0.140992 0.390173
vt 0.161190 0.287723
vt 0.128576 0.223261
vt 0.057344 0.209442
vt 0.070788 0.168715
vt 0.149209 0.169709
vt 0.112768 0.267625
vt 0.050173 0.248356
vt 0.089804 0.330866
vt 0.076315 0.384939
vt 0.027050 0.369449
vt 0.033540 0.325436
vt 0.103657 0.279262
vt 0.042616 0.265365
vt 0.255250 0.196413
vt 0.199110 0.182320
vt 0.137390 0.156087
vt 0.072671 0.157062
vt 0.030376 0.174874
vt 0.038189 0.183824
vt 0.003291 0.326659
vt 0.184733 0.619200
vt 0.131242 0.621064
vt 0.007276 0.597385
vt 0.078316 0.607500
vt 0.176468 0.034202
vt 0.254626 0.108913
vt 0.269854 0.086947
vt 0.284281 0.036601
vt 0.290760 0.019151
vt 0.853652 0.802372
vt 0.899142 0.802057
vt 0.896638 0.751224
vt 0.361014 0.820091
vt 0.982063 0.756527
vt 0.938029 0.753318
vt 0.946363 0.704392
vt 0.982063 0.718924
vt 0.594417 0.124627
vt 0.612426 0.111331
vt 0.906277 0.690975
vt 0.552430 0.194218
vt 0.507060 0.140211
vt 0.796267 0.395255
vt 0.685886 0.386942
vt 0.687280 0.323152
vt 0.792598 0.330579
vt 0.685877 0.274954
vt 0.774695 0.270091
vt 0.026190 0.900426
vt 0.011481 0.813855
vt 0.119700 0.819926
vt 0.117373 0.906063
vt 0.235931 0.816311
vt 0.230552 0.918137
vt 0.357683 0.884362
vt 0.298207 0.224572
vt 0.264949 0.369455
vt 0.075058 0.589736
vt 0.289373 0.205185
vt 0.428769 0.905846
vt 0.847028 0.295042
vt 0.806509 0.264699
vt 0.842933 0.264729
vt 0.874080 0.241667
vt 0.818467 0.240061
vt 0.885007 0.268743
vt 0.864874 0.352079
vt 0.998189 0.280824
vt 0.995618 0.356109
vt 0.990119 0.408693
vt 0.865427 0.394938
vt 0.990514 0.483371
vt 0.863351 0.474684
vt 0.998189 0.181800
vt 0.780171 0.224284
vt 0.679649 0.241722
vt 0.579579 0.416136
vt 0.560142 0.385080
vt 0.621337 0.728732
vt 0.427600 0.204440
vt 0.330262 0.153841
vt 0.345924 0.132226
vt 0.552959 0.195143
vt 0.248608 0.712590
vt 0.550656 0.326827
vt 0.554195 0.268839
vt 0.560170 0.251738
vt 0.665594 0.213031
vt 0.787529 0.193136
vt 0.564000 0.230085
vt 0.496526 0.938281
vt 0.586772 0.917345
vt 0.464217 0.956795
vt 0.506499 0.140268
vt 0.733994 0.925724
vt 0.789043 0.932578
vt 0.659757 0.912641
vt 0.840078 0.171087
vt 0.829003 0.214562
vt 0.998189 0.147849
vt 0.929298 0.182433
vt 0.917196 0.149025
vt 0.633814 0.640681
vt 0.262928 0.606716
vt 0.624347 0.912088
vt 0.496484 0.078720
vt 0.481709 0.018637
vt 0.357188 0.087350
vt 0.382786 0.391581
vt 0.336217 0.355181
vt 0.388831 0.334667
vt 0.442634 0.281507
vt 0.335669 0.275554
vt 0.442293 0.362908
vt 0.496270 0.078329
vt 0.479767 0.017684
vt 0.176558 0.034246
vt 0.289122 0.019545
vt 0.282943 0.038262
vt 0.355657 0.047057
vt 0.357572 0.087719
vt 0.345568 0.131907
vt 0.027292 0.011551
vt 0.119069 0.011880
vt 0.106286 0.067216
vt 0.037017 0.061303
vt 0.119025 0.011907
vt 0.106280 0.067217
vt 0.036972 0.061284
vt 0.027208 0.011723
vt 0.119019 0.011981
vt 0.106282 0.067219
vt 0.036876 0.061303
vt 0.027365 0.012294
vt 0.027318 0.011972
vt 0.119003 0.011898
vt 0.106257 0.067174
vt 0.036746 0.061273
vt 0.070620 0.133465
vt 0.070640 0.133261
vt 0.070593 0.133139
vt 0.070496 0.133228
vt 0.027284 0.011551
vt 0.119065 0.011880
vt 0.106283 0.067212
vt 0.037004 0.061302
vt 0.119026 0.011909
vt 0.106281 0.067218
vt 0.036975 0.061285
vt 0.027210 0.011730
vt 0.119022 0.011979
vt 0.106285 0.067220
vt 0.036889 0.061302
vt 0.027373 0.012295
vt 0.027317 0.011962
vt 0.119002 0.011896
vt 0.106256 0.067172
vt 0.036742 0.061271
vt 0.070615 0.133461
vt 0.070641 0.133266
vt 0.070597 0.133141
vt 0.070494 0.133221
vt 0.027248 0.011544
vt 0.119048 0.011877
vt 0.106269 0.067195
vt 0.036945 0.061297
vt 0.119026 0.011919
vt 0.106280 0.067224
vt 0.036973 0.061293
vt 0.027208 0.011769
vt 0.119038 0.011977
vt 0.106296 0.067226
vt 0.036949 0.061300
vt 0.027408 0.012312
vt 0.027321 0.011927
vt 0.119002 0.011885
vt 0.106256 0.067163
vt 0.036743 0.061260
vt 0.070593 0.133439
vt 0.070641 0.133282
vt 0.070619 0.133157
vt 0.070495 0.133188
vt 0.027159 0.011546
vt 0.119007 0.011875
vt 0.106237 0.067157
vt 0.036803 0.061290
vt 0.119020 0.011949
vt 0.106277 0.067241
vt 0.036954 0.061315
vt 0.027196 0.011892
vt 0.119020 0.011928
vt 0.106289 0.067214
vt 0.036912 0.061264
vt 0.027364 0.012180
vt 0.027338 0.011873
vt 0.119007 0.011865
vt 0.106261 0.067150
vt 0.036761 0.061239
vt 0.070538 0.133396
vt 0.070633 0.133329
vt 0.070603 0.133125
vt 0.070501 0.133127
vt 0.027166 0.011605
vt 0.119011 0.011890
vt 0.106239 0.067177
vt 0.036816 0.061309
vt 0.119047 0.011952
vt 0.106294 0.067251
vt 0.037043 0.061319
vt 0.027253 0.011864
vt 0.119017 0.011908
vt 0.106287 0.067204
vt 0.036900 0.061253
vt 0.027361 0.012108
vt 0.027410 0.012024
vt 0.119038 0.011926
vt 0.106274 0.067164
vt 0.036847 0.061285
vt 0.070544 0.133457
vt 0.070667 0.133361
vt 0.070598 0.133103
vt 0.070535 0.133223
vt 0.023828 0.216771
vt 0.014145 0.290859
vt 0.005567 0.220950
vt 0.027159 0.011546
vt 0.119007 0.011875
vt 0.106237 0.067157
vt 0.036803 0.061290
vt 0.119020 0.011949
vt 0.106277 0.067241
vt 0.036954 0.061315
vt 0.027196 0.011892
vt 0.119020 0.011928
vt 0.106289 0.067214
vt 0.036912 0.061264
vt 0.027364 0.012180
vt 0.027338 0.011873
vt 0.119007 0.011865
vt 0.106261 0.067150
vt 0.036761 0.061239
vt 0.070538 0.133396
vt 0.070633 0.133329
vt 0.070603 0.133125
vt 0.070501 0.133127
vt 0.027159 0.011546
vt 0.119007 0.011875
vt 0.106237 0.067157
vt 0.036803 0.061290
vt 0.119020 0.011949
vt 0.106277 0.067241
vt 0.036954 0.061315
vt 0.027196 0.011892
vt 0.119020 0.011928
vt 0.106289 0.067214
vt 0.036912 0.061264
vt 0.027364 0.012180
vt 0.027338 0.011873
vt 0.119007 0.011865
vt 0.106261 0.067150
vt 0.036761 0.061239
vt 0.070538 0.133396
vt 0.070633 0.133329
vt 0.070603 0.133125
vt 0.070501 0.133127
vt 0.714938 0.798441
vt 0.787810 0.799292
vt 0.713782 0.729471
vt 0.726290 0.657297
vt 0.329683 0.155079
vt 0.352652 0.028303
vt 0.254243 0.109517
vt 0.270017 0.087712
vt 0.353315 0.029491
vt 0.354902 0.046560
vt 0.427802 0.204620
vt 0.939460 0.803528
vt 0.982063 0.806114
vn -0.64443 -0.67052 -0.36758
vn -0.48593 -0.79455 -0.36410
vn -0.66238 0.68358 -0.30655
vn -0.51495 0.84594 -0.13859
vn -0.69646 0.64775 0.30882
vn 0.00000 0.75243 0.65867
vn 0.00000 0.94010 0.34090
vn -0.70863 0.64246 0.29170
vn -0.99570 -0.01874 0.09067
vn -0.56729 -0.82113 0.06265
vn -0.60026 -0.79455 0.09159
vn -0.99305 -0.01966 0.11601
vn -0.33950 0.92291 -0.18159
vn -0.46023 0.87021 -0.17585
vn -0.00000 0.99430 -0.10659
vn 0.00000 0.98655 -0.16346
vn -0.98721 -0.14264 -0.07128
vn -0.99423 0.10276 -0.03073
vn -0.99888 0.04296 0.01998
vn 0.00000 -0.98527 -0.17098
vn -0.46494 -0.85499 -0.22982
vn -0.17853 -0.97685 -0.11783
vn 0.00000 -0.99645 -0.08419
vn -0.98265 0.01151 0.18511
vn -0.78208 -0.59990 0.16875
vn -0.79880 -0.59021 0.11649
vn -0.99005 0.04375 0.13371
vn -0.14932 -0.98785 -0.04313
vn -0.18246 -0.97391 0.13494
vn -0.60047 0.77308 0.20439
vn -0.00000 0.99998 -0.00691
vn -0.00000 0.94054 -0.33967
vn -0.87944 0.42778 0.20878
vn -0.62575 0.77968 0.02334
vn -0.16491 0.98572 0.03395
vn -0.19713 0.82030 -0.53689
vn -0.80711 0.26738 -0.52639
vn -0.13097 -0.98968 -0.05808
vn -0.26321 -0.67701 0.68730
vn -0.00080 -0.99824 -0.05933
vn -0.13097 -0.98968 -0.05808
vn -0.44221 -0.78230 -0.43870
vn -0.12581 0.05804 -0.99036
vn 0.06391 0.81550 0.57522
vn -0.09906 0.99463 0.02989
vn -0.04551 0.72590 0.68629
vn -0.09836 0.84969 -0.51804
vn 0.02718 -0.99957 -0.01075
vn 0.30003 -0.34960 0.88756
vn 0.09424 -0.41890 0.90313
vn -0.02218 -0.28150 -0.95930
vn -0.09959 0.99373 0.05079
vn 0.06234 0.90076 0.42982
vn -0.16413 0.90885 0.38347
vn -0.14195 0.98973 0.01681
vn -0.14251 0.91529 -0.37674
vn -0.28231 0.91643 -0.28365
vn 0.03242 -0.99899 0.03117
vn -0.03010 -0.99943 -0.01561
vn -0.19106 -0.69433 0.69383
vn 0.10469 0.22970 0.96761
vn -0.09504 -0.81401 -0.57302
vn -0.54863 0.43405 -0.71457
vn 0.09424 -0.41890 0.90313
vn 0.30003 -0.34960 0.88756
vn 0.10469 0.22970 0.96761
vn -0.19106 -0.69433 0.69383
vn -0.74376 0.15245 0.65083
vn -0.41225 0.88227 0.22728
vn -0.74376 0.15245 0.65083
vn -0.83543 0.25827 0.48514
vn -0.62575 0.77968 0.02334
vn -0.80711 0.26738 -0.52639
vn -0.90797 -0.33111 -0.25683
vn -0.88386 -0.15515 0.44127
vn -0.35601 -0.89061 -0.28295
vn -0.77487 0.04041 -0.63083
vn 0.37223 -0.33499 0.86558
vn 0.10113 -0.95108 0.29193
vn 0.00000 0.98040 0.19701
vn 0.00000 0.98733 0.15865
vn -0.62964 0.76500 0.13539
vn -0.73103 0.66154 0.16721
vn -0.99887 -0.01094 0.04629
vn 0.00000 0.97437 -0.22495
vn -0.87107 0.46448 0.15964
vn 0.00000 0.82631 0.56322
vn -0.89203 -0.00151 -0.45198
vn -0.24150 -0.96777 -0.07137
vn -0.51070 -0.85960 0.01670
vn -0.99137 -0.12898 0.02363
vn -0.29204 -0.82195 -0.48899
vn -0.53331 0.06790 -0.84319
vn -0.53567 -0.84396 0.02815
vn 0.00000 -0.99963 0.02709
vn -0.00000 -0.99870 0.05095
vn -0.24150 -0.96777 -0.07137
vn -0.01301 -0.99723 0.07326
vn -0.00000 -0.99344 0.11439
vn 0.00000 -0.99785 0.06558
vn -0.85325 0.46801 -0.23009
vn -0.96976 0.01547 -0.24356
vn -0.92631 -0.01936 -0.37627
vn -0.82274 0.46509 -0.32678
vn -0.89668 -0.28002 -0.34287
vn -0.82235 -0.41655 -0.38759
vn -0.43768 0.88598 -0.15320
vn -0.42699 0.90425 0.00229
vn -0.86692 0.49838 0.00811
vn -0.86169 0.50120 -0.07934
vn -0.44892 0.88824 0.09752
vn -0.87466 0.47277 0.10710
vn -0.43240 0.88211 0.18683
vn 0.00000 -0.97785 -0.20930
vn 0.00000 -0.98542 -0.17015
vn -0.83543 0.25827 0.48514
vn -0.26321 -0.67701 0.68730
vn -0.44221 -0.78230 -0.43870
vn -0.26321 -0.67701 0.68730
vn -0.00000 0.99998 -0.00691
vn -0.60047 0.77308 0.20439
vn -0.97905 -0.13482 -0.15262
vn -0.97062 -0.21576 -0.10651
vn -0.97555 -0.19864 -0.09409
vn -0.96484 -0.21984 -0.14408
vn -0.92583 -0.29199 -0.23997
vn -0.93086 -0.28306 -0.23102
vn -0.97928 0.16075 -0.12318
vn -0.98721 -0.14264 -0.07128
vn -0.99423 0.10276 -0.03073
vn -0.80966 0.56580 -0.15595
vn -0.86169 0.50120 -0.07934
vn -0.43768 0.88598 -0.15320
vn -0.37179 0.90360 -0.21277
vn 0.00000 0.97429 -0.22530
vn -0.00000 0.98953 -0.14429
vn -0.90797 -0.33111 -0.25683
vn -0.58488 -0.72877 -0.35612
vn -0.57574 -0.75529 -0.31315
vn -0.60659 0.31085 -0.73173
vn -0.46538 0.81316 -0.34955
vn -0.98093 0.00180 0.19433
vn -0.89203 -0.00151 -0.45198
vn -0.32626 0.94423 -0.04452
vn -0.38850 0.83991 -0.37897
vn -0.64678 0.01188 -0.76259
vn -0.99083 0.00760 0.13488
vn -0.69691 -0.18453 -0.69302
vn -0.36428 -0.74776 -0.55512
vn -0.54057 -0.50610 -0.67205
vn 0.00000 -0.83137 -0.55572
vn 0.00000 -0.58570 -0.81052
vn -0.08513 -0.96016 -0.26618
vn -0.05425 -0.99643 -0.06469
vn -0.12940 -0.98613 -0.10390
vn -0.00000 -0.99756 0.06978
vn -0.66238 0.68358 -0.30655
vn 0.00000 0.98633 0.16481
vn 0.00000 0.99995 -0.00995
vn -0.51495 0.84594 -0.13859
vn -0.53331 0.06790 -0.84319
vn 0.00000 0.64296 -0.76590
vn 0.00000 0.99331 0.11544
vn -0.00000 0.99151 0.13000
vn -0.06207 0.98532 0.15902
vn 0.00000 -0.18673 -0.98241
vn -0.00000 0.39246 -0.91977
vn -0.00000 -0.97032 0.24183
vn -0.00000 -0.99756 0.06978
vn -0.12940 -0.98613 -0.10390
vn -0.05425 -0.99643 -0.06469
vn -0.00000 -0.94535 -0.32605
vn -0.08513 -0.96016 -0.26618
vn 0.00000 0.80465 -0.59375
vn -0.54038 -0.65252 -0.53123
vn -0.46591 -0.67001 -0.57794
vn -0.46494 -0.85499 -0.22982
vn -0.40124 -0.82098 -0.40621
vn -0.78426 -0.54605 -0.29457
vn 0.00000 -0.95778 -0.28749
vn 0.00000 -0.98527 -0.17098
vn -0.00000 -0.99296 0.11848
vn 0.00000 -0.99849 0.05497
vn -0.67430 -0.71796 0.17276
vn 0.00000 -0.99095 0.13427
vn -0.67724 -0.66707 0.31042
vn -0.00000 -0.99422 0.10736
vn -0.46591 -0.67001 -0.57794
vn -0.00000 0.90982 -0.41499
vn 0.12230 -0.90172 0.41466
vn 0.24407 0.02750 0.96937
vn -0.00000 -0.16177 0.98683
vn -0.00000 -0.87298 0.48775
vn -0.08971 0.97172 0.21843
vn -0.95743 0.26010 -0.12521
vn -0.97650 -0.18766 -0.10599
vn -0.85370 -0.04512 -0.51880
vn -0.85316 -0.50465 0.13208
vn -0.84579 -0.46385 -0.26359
vn -0.95274 -0.07423 0.29458
vn 0.12660 0.76991 0.62547
vn -0.00000 0.82608 0.56355
vn -0.00000 -0.16177 0.98683
vn 0.24407 0.02750 0.96937
vn -0.88386 -0.15515 0.44127
vn 0.15958 0.77821 0.60739
vn 0.37223 -0.33499 0.86558
vn -0.02477 -0.99717 0.07097
vn 0.09576 -0.92922 0.35689
vn -0.32501 -0.86198 -0.38906
vn -0.91759 -0.36794 0.15048
vn -0.67356 -0.45963 0.57884
vn -0.42924 -0.34923 -0.83294
vn -0.44704 -0.32557 -0.83316
vn 0.62768 -0.31262 -0.71294
vn -0.44704 -0.32557 -0.83316
vn -0.42924 -0.34923 -0.83294
vn 0.90267 -0.28203 -0.32504
vn 0.47354 -0.41816 0.77518
vn 0.62768 -0.31262 -0.71294
vn 0.90267 -0.28203 -0.32504
vn 0.49067 -0.37323 0.78737
vn 0.47354 -0.41816 0.77518
vn 0.49067 -0.37323 0.78737
vn -0.67356 -0.45963 0.57884
vn -0.91759 -0.36794 0.15048
vn 0.13026 -0.98741 -0.08977
vn 0.13026 -0.98741 -0.08977
vn 0.13026 -0.98741 -0.08977
vn 0.13026 -0.98741 -0.08977
vn -0.91759 -0.36657 0.15379
vn -0.67355 -0.45441 0.58296
vn -0.42924 -0.35671 -0.82976
vn -0.44704 -0.33304 -0.83020
vn 0.62768 -0.31901 -0.71011
vn -0.44704 -0.33304 -0.83020
vn -0.42924 -0.35671 -0.82976
vn 0.90267 -0.28495 -0.32249
vn 0.47354 -0.41118 0.77890
vn 0.62768 -0.31901 -0.71011
vn 0.90267 -0.28495 -0.32249
vn 0.49068 -0.36614 0.79068
vn 0.47354 -0.41118 0.77890
vn 0.49068 -0.36614 0.79068
vn -0.67355 -0.45441 0.58296
vn -0.91759 -0.36657 0.15379
vn 0.13027 -0.98817 -0.08087
vn 0.13027 -0.98817 -0.08087
vn 0.13027 -0.98817 -0.08087
vn 0.13027 -0.98817 -0.08087
vn -0.93279 -0.34952 0.08792
vn -0.72785 -0.42312 0.53963
vn -0.36170 -0.38428 -0.84941
vn -0.37905 -0.36043 -0.85230
vn 0.68149 -0.35413 -0.64044
vn -0.37905 -0.36043 -0.85230
vn -0.36170 -0.38428 -0.84941
vn 0.92266 -0.30794 -0.23211
vn 0.39871 -0.38548 0.83213
vn 0.68149 -0.35413 -0.64044
vn 0.92266 -0.30794 -0.23211
vn 0.41543 -0.34021 0.84361
vn 0.39871 -0.38548 0.83213
vn 0.41543 -0.34021 0.84361
vn -0.72785 -0.42312 0.53963
vn -0.93279 -0.34952 0.08792
vn 0.12192 -0.99205 -0.03128
vn 0.12192 -0.99205 -0.03128
vn 0.12192 -0.99205 -0.03128
vn 0.12192 -0.99205 -0.03128
vn -0.95465 -0.29654 0.02660
vn -0.79678 -0.33827 0.50072
vn -0.30194 -0.44258 -0.84437
vn -0.31760 -0.41832 -0.85096
vn 0.71749 -0.44193 -0.53843
vn -0.31760 -0.41832 -0.85096
vn -0.30194 -0.44258 -0.84437
vn 0.92195 -0.37011 -0.11410
vn 0.29821 -0.32646 0.89694
vn 0.71749 -0.44193 -0.53843
vn 0.92195 -0.37011 -0.11410
vn 0.31625 -0.28115 0.90606
vn 0.29821 -0.32646 0.89694
vn 0.31625 -0.28115 0.90606
vn -0.79678 -0.33827 0.50072
vn -0.95465 -0.29654 0.02660
vn 0.06982 -0.99537 0.06603
vn 0.06982 -0.99537 0.06603
vn 0.06982 -0.99537 0.06603
vn 0.06982 -0.99537 0.06603
vn -0.63808 -0.35729 -0.68205
vn -0.89109 -0.37899 -0.24965
vn 0.45103 -0.47839 -0.75347
vn 0.44506 -0.45536 -0.77109
vn 0.88879 -0.40533 0.21391
vn 0.44506 -0.45536 -0.77109
vn 0.45103 -0.47839 -0.75347
vn 0.70083 -0.31174 0.64161
vn -0.47218 -0.28803 0.83312
vn 0.88879 -0.40533 0.21391
vn 0.70083 -0.31174 0.64161
vn -0.46845 -0.24147 0.84985
vn -0.47218 -0.28803 0.83312
vn -0.46845 -0.24147 0.84985
vn -0.89109 -0.37899 -0.24965
vn -0.63808 -0.35729 -0.68205
vn 0.02315 -0.98719 0.15788
vn 0.02315 -0.98719 0.15788
vn 0.02315 -0.98719 0.15788
vn 0.02315 -0.98719 0.15788
vn -0.00000 -0.69574 -0.71830
vn 0.00000 0.64296 -0.76590
vn -0.38714 0.91073 -0.14389
vn -0.97065 0.22627 -0.08146
vn -0.97065 0.22627 -0.08146
vn -0.92017 -0.29654 -0.25565
vn -0.90888 -0.33828 0.24393
vn -0.03994 -0.44258 -0.89584
vn -0.05298 -0.41832 -0.90675
vn 0.84422 -0.44193 -0.30331
vn -0.05298 -0.41832 -0.90675
vn -0.03994 -0.44258 -0.89584
vn 0.91468 -0.37011 0.16243
vn 0.02090 -0.32646 0.94498
vn 0.84422 -0.44193 -0.30331
vn 0.91468 -0.37011 0.16243
vn 0.03545 -0.28115 0.95901
vn 0.02090 -0.32646 0.94498
vn 0.03545 -0.28115 0.95901
vn -0.90888 -0.33828 0.24393
vn -0.92017 -0.29654 -0.25565
vn 0.04729 -0.99537 0.08369
vn 0.04729 -0.99537 0.08369
vn 0.04729 -0.99537 0.08369
vn 0.04729 -0.99537 0.08369
vn -0.95387 -0.29654 -0.04692
vn -0.83293 -0.33828 0.43794
vn -0.23610 -0.44257 -0.86509
vn -0.25121 -0.41832 -0.87287
vn 0.75677 -0.44193 -0.48166
vn -0.25121 -0.41832 -0.87287
vn -0.23610 -0.44257 -0.86509
vn 0.92800 -0.37012 -0.04285
vn 0.22833 -0.32647 0.91722
vn 0.75677 -0.44193 -0.48166
vn 0.92800 -0.37012 -0.04285
vn 0.24561 -0.28116 0.92770
vn 0.22833 -0.32647 0.91722
vn 0.24561 -0.28116 0.92770
vn -0.83293 -0.33828 0.43794
vn -0.95387 -0.29654 -0.04692
vn 0.06452 -0.99537 0.07118
vn 0.06452 -0.99537 0.07118
vn 0.06452 -0.99537 0.07118
vn 0.06452 -0.99537 0.07118
vn -0.00000 0.11893 0.99290
vn -0.00000 0.99999 0.00521
vn 0.00000 0.99634 0.08547
vn -0.69565 0.67379 0.24917
vn -0.00000 0.95712 0.28969
vn 0.00000 0.96836 0.24954
vn -0.67963 0.70355 0.20765
vn -0.98849 -0.01088 0.15090
vn -0.63449 -0.76300 0.12354
vn 0.00000 -0.99566 0.09310
vn -0.00000 -0.99724 0.07423
vn -0.00000 0.98953 -0.14429
vn -0.64678 0.01188 -0.76259
vn 0.23182 -0.14907 0.96127
vn -0.77487 0.04041 -0.63083
vn -0.42357 0.89225 -0.15648
vn 0.23182 -0.14907 0.96127
vn 0.04181 0.78555 0.61738
vn -0.89203 -0.00151 -0.45198
vn 0.00000 0.75243 0.65867
vn 0.00000 0.98966 0.14342
vn -0.63670 0.76348 0.10827
vn -0.00000 -0.99981 0.01961
vn 0.00000 0.99331 0.11544
vn -0.32626 0.94423 -0.04452
vn 0.00000 -0.99785 0.06558
vn 0.64443 -0.67052 -0.36758
vn 0.51495 0.84594 -0.13859
vn 0.66238 0.68358 -0.30655
vn 0.48593 -0.79455 -0.36410
vn 0.69646 0.64775 0.30882
vn 0.70863 0.64246 0.29170
vn 0.99570 -0.01874 0.09067
vn 0.99305 -0.01966 0.11601
vn 0.60026 -0.79455 0.09159
vn 0.56729 -0.82113 0.06265
vn 0.33950 0.92291 -0.18159
vn 0.46023 0.87021 -0.17585
vn 0.98721 -0.14264 -0.07128
vn 0.99888 0.04296 0.01998
vn 0.99423 0.10276 -0.03073
vn 0.17853 -0.97685 -0.11783
vn 0.46494 -0.85499 -0.22982
vn 0.98265 0.01151 0.18511
vn 0.99005 0.04375 0.13371
vn 0.79880 -0.59021 0.11649
vn 0.78208 -0.59990 0.16875
vn 0.14932 -0.98785 -0.04313
vn 0.18246 -0.97391 0.13494
vn 0.60047 0.77308 0.20439
vn 0.87944 0.42778 0.20878
vn 0.62575 0.77968 0.02334
vn 0.80711 0.26738 -0.52639
vn 0.19713 0.82030 -0.53689
vn 0.16491 0.98572 0.03395
vn 0.26321 -0.67701 0.68730
vn 0.13097 -0.98968 -0.05808
vn 0.00080 -0.99824 -0.05933
vn 0.12581 0.05804 -0.99036
vn 0.44221 -0.78230 -0.43870
vn 0.13097 -0.98968 -0.05808
vn -0.06391 0.81550 0.57522
vn 0.04551 0.72590 0.68629
vn 0.09906 0.99463 0.02989
vn 0.09836 0.84969 -0.51804
vn -0.02718 -0.99957 -0.01075
vn -0.09424 -0.41890 0.90313
vn -0.30003 -0.34960 0.88756
vn 0.02218 -0.28150 -0.95930
vn 0.09959 0.99373 0.05079
vn 0.14195 0.98973 0.01681
vn 0.16413 0.90885 0.38347
vn -0.06234 0.90076 0.42982
vn 0.14251 0.91529 -0.37674
vn 0.28231 0.91643 -0.28365
vn -0.03242 -0.99899 0.03117
vn -0.10469 0.22970 0.96761
vn 0.19106 -0.69433 0.69383
vn 0.03010 -0.99943 -0.01561
vn 0.09504 -0.81401 -0.57302
vn 0.54863 0.43405 -0.71457
vn -0.09424 -0.41890 0.90313
vn -0.30003 -0.34960 0.88756
vn -0.10469 0.22970 0.96761
vn 0.19106 -0.69433 0.69383
vn 0.74376 0.15245 0.65083
vn 0.41225 0.88227 0.22728
vn 0.74376 0.15245 0.65083
vn 0.83543 0.25827 0.48514
vn 0.62575 0.77968 0.02334
vn 0.90797 -0.33111 -0.25683
vn 0.80711 0.26738 -0.52639
vn 0.88386 -0.15515 0.44127
vn 0.77487 0.04041 -0.63083
vn 0.35601 -0.89061 -0.28295
vn -0.10113 -0.95108 0.29193
vn -0.37223 -0.33499 0.86558
vn 0.73103 0.66154 0.16721
vn 0.62964 0.76500 0.13539
vn 0.99887 -0.01094 0.04629
vn 0.87107 0.46448 0.15964
vn 0.89203 -0.00151 -0.45198
vn 0.99137 -0.12898 0.02363
vn 0.51070 -0.85960 0.01670
vn 0.24150 -0.96777 -0.07137
vn 0.53331 0.06790 -0.84319
vn 0.29204 -0.82195 -0.48899
vn 0.53567 -0.84396 0.02815
vn 0.24150 -0.96777 -0.07137
vn 0.01301 -0.99723 0.07326
vn 0.85325 0.46801 -0.23009
vn 0.82274 0.46509 -0.32678
vn 0.92631 -0.01936 -0.37627
vn 0.96976 0.01547 -0.24356
vn 0.82235 -0.41655 -0.38759
vn 0.89668 -0.28002 -0.34287
vn 0.43768 0.88598 -0.15320
vn 0.86169 0.50120 -0.07934
vn 0.86692 0.49838 0.00811
vn 0.42699 0.90425 0.00229
vn 0.87466 0.47277 0.10710
vn 0.44892 0.88824 0.09752
vn 0.43240 0.88211 0.18683
vn 0.83543 0.25827 0.48514
vn 0.26321 -0.67701 0.68730
vn 0.44221 -0.78230 -0.43870
vn 0.26321 -0.67701 0.68730
vn 0.60047 0.77308 0.20439
vn 0.97905 -0.13482 -0.15262
vn 0.97555 -0.19864 -0.09409
vn 0.97062 -0.21576 -0.10651
vn 0.96484 -0.21984 -0.14408
vn 0.92583 -0.29199 -0.23997
vn 0.93086 -0.28306 -0.23102
vn 0.97928 0.16075 -0.12318
vn 0.98721 -0.14264 -0.07128
vn 0.99423 0.10276 -0.03073
vn 0.86169 0.50120 -0.07934
vn 0.80966 0.56580 -0.15595
vn 0.43768 0.88598 -0.15320
vn 0.37179 0.90360 -0.21277
vn 0.90797 -0.33111 -0.25683
vn 0.58488 -0.72877 -0.35612
vn 0.57574 -0.75529 -0.31315
vn 0.46538 0.81316 -0.34955
vn 0.60659 0.31085 -0.73173
vn 0.98093 0.00180 0.19433
vn 0.89203 -0.00151 -0.45198
vn 0.64678 0.01188 -0.76259
vn 0.38850 0.83991 -0.37897
vn 0.32626 0.94423 -0.04452
vn 0.99083 0.00760 0.13488
vn 0.69691 -0.18453 -0.69302
vn 0.54057 -0.50610 -0.67205
vn 0.36428 -0.74776 -0.55512
vn 0.05425 -0.99643 -0.06469
vn 0.08513 -0.96016 -0.26618
vn 0.12940 -0.98613 -0.10390
vn 0.66238 0.68358 -0.30655
vn 0.51495 0.84594 -0.13859
vn 0.53331 0.06790 -0.84319
vn 0.06207 0.98532 0.15902
vn 0.05425 -0.99643 -0.06469
vn 0.12940 -0.98613 -0.10390
vn 0.08513 -0.96016 -0.26618
vn 0.46591 -0.67001 -0.57794
vn 0.54038 -0.65252 -0.53123
vn 0.46494 -0.85499 -0.22982
vn 0.78426 -0.54605 -0.29457
vn 0.40124 -0.82098 -0.40621
vn 0.67430 -0.71796 0.17276
vn 0.67724 -0.66707 0.31042
vn 0.46591 -0.67001 -0.57794
vn -0.12230 -0.90172 0.41466
vn -0.24407 0.02750 0.96937
vn 0.08971 0.97172 0.21843
vn 0.95743 0.26010 -0.12521
vn 0.85370 -0.04512 -0.51880
vn 0.97650 -0.18766 -0.10599
vn 0.85316 -0.50465 0.13208
vn 0.84579 -0.46385 -0.26359
vn 0.95274 -0.07423 0.29458
vn -0.12660 0.76991 0.62547
vn -0.24407 0.02750 0.96937
vn 0.88386 -0.15515 0.44127
vn -0.37223 -0.33499 0.86558
vn -0.15958 0.77821 0.60739
vn -0.09576 -0.92922 0.35689
vn 0.02477 -0.99717 0.07097
vn 0.32501 -0.86198 -0.38906
vn 0.91759 -0.36794 0.15048
vn 0.44704 -0.32557 -0.83316
vn 0.42924 -0.34923 -0.83294
vn 0.67356 -0.45963 0.57884
vn -0.62768 -0.31262 -0.71294
vn -0.90267 -0.28203 -0.32504
vn 0.42924 -0.34923 -0.83294
vn 0.44704 -0.32557 -0.83316
vn -0.47354 -0.41816 0.77518
vn -0.49067 -0.37323 0.78737
vn -0.90267 -0.28203 -0.32504
vn -0.62768 -0.31262 -0.71294
vn -0.47354 -0.41816 0.77518
vn 0.91759 -0.36794 0.15048
vn 0.67356 -0.45963 0.57884
vn -0.49067 -0.37323 0.78737
vn -0.13026 -0.98741 -0.08977
vn -0.13026 -0.98741 -0.08977
vn -0.13026 -0.98741 -0.08977
vn -0.13026 -0.98741 -0.08977
vn 0.91759 -0.36657 0.15379
vn 0.44704 -0.33304 -0.83020
vn 0.42924 -0.35671 -0.82976
vn 0.67355 -0.45441 0.58296
vn -0.62768 -0.31901 -0.71011
vn -0.90267 -0.28495 -0.32249
vn 0.42924 -0.35671 -0.82976
vn 0.44704 -0.33304 -0.83020
vn -0.47354 -0.41118 0.77890
vn -0.49068 -0.36614 0.79068
vn -0.90267 -0.28495 -0.32249
vn -0.62768 -0.31901 -0.71011
vn -0.47354 -0.41118 0.77890
vn 0.91759 -0.36657 0.15379
vn 0.67355 -0.45441 0.58296
vn -0.49068 -0.36614 0.79068
vn -0.13027 -0.98817 -0.08087
vn -0.13027 -0.98817 -0.08087
vn -0.13027 -0.98817 -0.08087
vn -0.13027 -0.98817 -0.08087
vn 0.93279 -0.34952 0.08792
vn 0.37905 -0.36043 -0.85230
vn 0.36170 -0.38428 -0.84941
vn 0.72785 -0.42312 0.53963
vn -0.68149 -0.35413 -0.64044
vn -0.92266 -0.30794 -0.23211
vn 0.36170 -0.38428 -0.84941
vn 0.37905 -0.36043 -0.85230
vn -0.39871 -0.38548 0.83213
vn -0.41543 -0.34021 0.84361
vn -0.92266 -0.30794 -0.23211
vn -0.68149 -0.35413 -0.64044
vn -0.39871 -0.38548 0.83213
vn 0.93279 -0.34952 0.08792
vn 0.72785 -0.42312 0.53963
vn -0.41543 -0.34021 0.84361
vn -0.12192 -0.99205 -0.03128
vn -0.12192 -0.99205 -0.03128
vn -0.12192 -0.99205 -0.03128
vn -0.12192 -0.99205 -0.03128
vn 0.95465 -0.29654 0.02660
vn 0.31760 -0.41832 -0.85096
vn 0.30194 -0.44258 -0.84437
vn 0.79678 -0.33827 0.50072
vn -0.71749 -0.44193 -0.53843
vn -0.92195 -0.37011 -0.11410
vn 0.30194 -0.44258 -0.84437
vn 0.31760 -0.41832 -0.85096
vn -0.29821 -0.32646 0.89694
vn -0.31625 -0.28115 0.90606
vn -0.92195 -0.37011 -0.11410
vn -0.71749 -0.44193 -0.53843
vn -0.29821 -0.32646 0.89694
vn 0.95465 -0.29654 0.02660
vn 0.79678 -0.33827 0.50072
vn -0.31625 -0.28115 0.90606
vn -0.06982 -0.99537 0.06603
vn -0.06982 -0.99537 0.06603
vn -0.06982 -0.99537 0.06603
vn -0.06982 -0.99537 0.06603
vn 0.63808 -0.35729 -0.68205
vn -0.44506 -0.45536 -0.77109
vn -0.45103 -0.47839 -0.75347
vn 0.89109 -0.37899 -0.24965
vn -0.88879 -0.40533 0.21391
vn -0.70083 -0.31174 0.64161
vn -0.45103 -0.47839 -0.75347
vn -0.44506 -0.45536 -0.77109
vn 0.47218 -0.28803 0.83312
vn 0.46845 -0.24147 0.84985
vn -0.70083 -0.31174 0.64161
vn -0.88879 -0.40533 0.21391
vn 0.47218 -0.28803 0.83312
vn 0.63808 -0.35729 -0.68205
vn 0.89109 -0.37899 -0.24965
vn 0.46845 -0.24147 0.84985
vn -0.02315 -0.98719 0.15788
vn -0.02315 -0.98719 0.15788
vn -0.02315 -0.98719 0.15788
vn -0.02315 -0.98719 0.15788
vn 0.38714 0.91073 -0.14389
vn 0.97065 0.22627 -0.08146
vn 0.97065 0.22627 -0.08146
vn 0.92017 -0.29654 -0.25565
vn 0.05298 -0.41832 -0.90675
vn 0.03994 -0.44258 -0.89584
vn 0.90888 -0.33828 0.24393
vn -0.84422 -0.44193 -0.30331
vn -0.91468 -0.37011 0.16243
vn 0.03994 -0.44258 -0.89584
vn 0.05298 -0.41832 -0.90675
vn -0.02090 -0.32646 0.94498
vn -0.03545 -0.28115 0.95901
vn -0.91468 -0.37011 0.16243
vn -0.84422 -0.44193 -0.30331
vn -0.02090 -0.32646 0.94498
vn 0.92017 -0.29654 -0.25565
vn 0.90888 -0.33828 0.24393
vn -0.03545 -0.28115 0.95901
vn -0.04729 -0.99537 0.08369
vn -0.04729 -0.99537 0.08369
vn -0.04729 -0.99537 0.08369
vn -0.04729 -0.99537 0.08369
vn 0.95387 -0.29654 -0.04692
vn 0.25121 -0.41832 -0.87287
vn 0.23610 -0.44257 -0.86509
vn 0.83293 -0.33828 0.43794
vn -0.75677 -0.44193 -0.48166
vn -0.92800 -0.37012 -0.04285
vn 0.23610 -0.44257 -0.86509
vn 0.25121 -0.41832 -0.87287
vn -0.22833 -0.32647 0.91722
vn -0.24561 -0.28116 0.92770
vn -0.92800 -0.37012 -0.04285
vn -0.75677 -0.44193 -0.48166
vn -0.22833 -0.32647 0.91722
vn 0.95387 -0.29654 -0.04692
vn 0.83293 -0.33828 0.43794
vn -0.24561 -0.28116 0.92770
vn -0.06452 -0.99537 0.07118
vn -0.06452 -0.99537 0.07118
vn -0.06452 -0.99537 0.07118
vn -0.06452 -0.99537 0.07118
vn 0.69565 0.67379 0.24917
vn 0.67963 0.70355 0.20765
vn 0.98849 -0.01088 0.15090
vn 0.63449 -0.76300 0.12354
vn 0.64678 0.01188 -0.76259
vn -0.23182 -0.14907 0.96127
vn 0.77487 0.04041 -0.63083
vn 0.42357 0.89225 -0.15648
vn -0.23182 -0.14907 0.96127
vn -0.04181 0.78555 0.61738
vn 0.89203 -0.00151 -0.45198
vn 0.63670 0.76348 0.10827
vn 0.32626 0.94423 -0.04452
f 636/636/636 637/637/637 634/634/634
f 634/634/634 635/635/635 636/636/636
f 635/635/635 644/644/644 636/636/636
f 301/301/301 302/302/302 299/299/299
f 299/299/299 300/300/300 301/301/301
f 302/302/302 301/301/301 309/309/309
f 350/350/350 351/351/351 348/348/348
f 348/348/348 349/349/349 350/350/350
f 350/350/350 349/349/349 355/355/355
f 683/683/683 684/684/684 681/681/681
f 681/681/681 682/682/682 683/683/683
f 683/683/683 688/688/688 684/684/684
f 620/620/620 621/621/621 618/618/618
f 618/618/618 619/619/619 620/620/620
f 620/620/620 625/625/625 621/621/621
f 285/285/285 286/286/286 283/283/283
f 283/283/283 284/284/284 285/285/285
f 285/285/285 284/284/284 290/290/290
f 265/265/265 266/266/266 263/263/263
f 263/263/263 264/264/264 265/265/265
f 265/265/265 264/264/264 270/270/270
f 600/600/600 601/601/601 598/598/598
f 598/598/598 599/599/599 600/600/600
f 600/600/600 605/605/605 601/601/601
f 659/659/659 660/660/660 657/657/657
f 657/657/657 658/658/658 659/659/659
f 658/658/658 667/667/667 659/659/659
f 326/326/326 327/327/327 324/324/324
f 324/324/324 325/325/325 326/326/326
f 327/327/327 326/326/326 334/334/334
f 580/580/580 581/581/581 578/578/578
f 578/578/578 579/579/579 580/580/580
f 580/580/580 585/585/585 581/581/581
f 245/245/245 246/246/246 243/243/243
f 243/243/243 244/244/244 245/245/245
f 245/245/245 244/244/244 250/250/250
f 663/663/663 664/664/664 661/661/661
f 661/661/661 662/662/662 663/663/663
f 663/663/663 668/668/668 664/664/664
f 330/330/330 331/331/331 328/328/328
f 328/328/328 329/329/329 330/330/330
f 330/330/330 329/329/329 335/335/335
f 225/225/225 226/226/226 223/223/223
f 223/223/223 224/224/224 225/225/225
f 225/225/225 224/224/224 230/230/230
f 560/560/560 561/561/561 558/558/558
f 558/558/558 559/559/559 560/560/560
f 560/560/560 565/565/565 561/561/561
f 679/679/679 680/680/680 677/677/677
f 677/677/677 678/678/678 679/679/679
f 678/678/678 687/687/687 679/679/679
f 346/346/346 347/347/347 344/344/344
f 344/344/344 345/345/345 346/346/346
f 347/347/347 346/346/346 354/354/354
f 281/281/281 282/282/282 279/279/279
f 279/279/279 280/280/280 281/281/281
f 282/282/282 281/281/281 289/289/289
f 616/616/616 617/617/617 614/614/614
f 614/614/614 615/615/615 616/616/616
f 615/615/615 624/624/624 616/616/616
f 596/596/596 597/597/597 594/594/594
f 594/594/594 595/595/595 596/596/596
f 595/595/595 604/604/604 596/596/596
f 261/261/261 262/262/262 259/259/259
f 259/259/259 260/260/260 261/261/261
f 262/262/262 261/261/261 269/269/269
f 221/221/221 222/222/222 219/219/219
f 219/219/219 220/220/220 221/221/221
f 222/222/222 221/221/221 229/229/229
f 556/556/556 557/557/557 554/554/554
f 554/554/554 555/555/555 556/556/556
f 555/555/555 564/564/564 556/556/556
f 576/576/576 577/577/577 574/574/574
f 574/574/574 575/575/575 576/576/576
f 575/575/575 584/584/584 576/576/576
f 241/241/241 242/242/242 239/239/239
f 239/239/239 240/240/240 241/241/241
f 242/242/242 241/241/241 249/249/249
f 40/40/40 43/43/43 51/51/51
f 42/42/42 43/43/43 40/40/40
f 51/51/51 47/47/47 56/56/56
f 56/56/56 47/47/47 45/45/45
f 45/45/45 52/52/52 56/56/56
f 45/45/45 44/44/44 53/53/53
f 53/53/53 52/52/52 45/45/45
f 53/53/53 44/44/44 65/65/65
f 64/64/64 65/65/65 44/44/44
f 65/65/65 66/66/66 53/53/53
f 54/54/54 53/53/53 66/66/66
f 52/52/52 53/53/53 54/54/54
f 56/56/56 52/52/52 55/55/55
f 424/424/424 414/414/414 413/413/413
f 413/413/413 414/414/414 415/415/415
f 429/429/429 420/420/420 424/424/424
f 419/419/419 420/420/420 429/429/429
f 429/429/429 425/425/425 419/419/419
f 419/419/419 425/425/425 428/428/428
f 428/428/428 417/417/417 419/419/419
f 438/438/438 417/417/417 428/428/428
f 417/417/417 438/438/438 437/437/437
f 428/428/428 439/439/439 438/438/438
f 439/439/439 428/428/428 427/427/427
f 427/427/427 428/428/428 425/425/425
f 426/426/426 425/425/425 429/429/429
f 305/305/305 306/306/306 303/303/303
f 303/303/303 304/304/304 305/305/305
f 305/305/305 304/304/304 310/310/310
f 640/640/640 641/641/641 638/638/638
f 638/638/638 639/639/639 640/640/640
f 640/640/640 645/645/645 641/641/641
f 145/145/145 146/146/146 143/143/143
f 143/143/143 144/144/144 145/145/145
f 145/145/145 194/194/194 371/371/371
f 146/146/146 145/145/145 371/371/371
f 145/145/145 144/144/144 165/165/165
f 165/165/165 194/194/194 145/145/145
f 371/371/371 370/370/370 146/146/146
f 373/373/373 206/206/206 371/371/371
f 371/371/371 194/194/194 373/373/373
f 371/371/371 206/206/206 205/205/205
f 370/370/370 371/371/371 205/205/205
f 194/194/194 165/165/165 201/201/201
f 201/201/201 373/373/373 194/194/194
f 202/202/202 201/201/201 165/165/165
f 165/165/165 164/164/164 202/202/202
f 418/418/418 479/479/479 407/407/407
f 407/407/407 410/410/410 418/418/418
f 409/409/409 410/410/410 407/407/407
f 407/407/407 408/408/408 409/409/409
f 482/482/482 479/479/479 418/418/418
f 418/418/418 437/437/437 482/482/482
f 437/437/437 418/418/418 417/417/417
f 417/417/417 418/418/418 410/410/410
f 420/420/420 419/419/419 410/410/410
f 410/410/410 409/409/409 420/420/420
f 410/410/410 419/419/419 417/417/417
f 420/420/420 409/409/409 414/414/414
f 414/414/414 409/409/409 408/408/408
f 408/408/408 415/415/415 414/414/414
f 414/414/414 424/424/424 420/420/420
f 46/46/46 35/35/35 34/34/34
f 34/34/34 116/116/116 46/46/46
f 36/36/36 37/37/37 34/34/34
f 34/34/34 35/35/35 36/36/36
f 119/119/119 64/64/64 46/46/46
f 46/46/46 116/116/116 119/119/119
f 44/44/44 46/46/46 64/64/64
f 35/35/35 46/46/46 44/44/44
f 47/47/47 36/36/36 35/35/35
f 35/35/35 45/45/45 47/47/47
f 44/44/44 45/45/45 35/35/35
f 43/43/43 36/36/36 47/47/47
f 37/37/37 36/36/36 43/43/43
f 43/43/43 42/42/42 37/37/37
f 47/47/47 51/51/51 43/43/43
f 158/158/158 157/157/157 161/161/161
f 159/159/159 160/160/160 157/157/157
f 157/157/157 158/158/158 159/159/159
f 516/516/516 514/514/514 158/158/158
f 158/158/158 162/162/162 516/516/516
f 159/159/159 158/158/158 514/514/514
f 161/161/161 162/162/162 158/158/158
f 189/189/189 159/159/159 515/515/515
f 514/514/514 515/515/515 159/159/159
f 160/160/160 159/159/159 189/189/189
f 189/189/189 188/188/188 160/160/160
f 515/515/515 528/528/528 189/189/189
f 172/172/172 189/189/189 528/528/528
f 188/188/188 189/189/189 172/172/172
f 172/172/172 173/173/173 188/188/188
f 528/528/528 520/520/520 172/172/172
f 518/518/518 168/168/168 172/172/172
f 172/172/172 520/520/520 518/518/518
f 171/171/171 173/173/173 172/172/172
f 172/172/172 168/168/168 171/171/171
f 170/170/170 171/171/171 168/168/168
f 519/519/519 169/169/169 168/168/168
f 168/168/168 518/518/518 519/519/519
f 168/168/168 169/169/169 170/170/170
f 425/425/425 426/426/426 427/427/427
f 426/426/426 442/442/442 427/427/427
f 427/427/427 442/442/442 441/441/441
f 441/441/441 440/440/440 427/427/427
f 427/427/427 440/440/440 439/439/439
f 646/646/646 426/426/426 430/430/430
f 442/442/442 426/426/426 646/646/646
f 429/429/429 430/430/430 426/426/426
f 442/442/442 646/646/646 648/648/648
f 648/648/648 441/441/441 442/442/442
f 646/646/646 430/430/430 436/436/436
f 436/436/436 648/648/648 646/646/646
f 436/436/436 430/430/430 429/429/429
f 434/434/434 647/647/647 436/436/436
f 429/429/429 435/435/435 436/436/436
f 434/434/434 436/436/436 435/435/435
f 424/424/424 435/435/435 429/429/429
f 54/54/54 55/55/55 52/52/52
f 55/55/55 54/54/54 69/69/69
f 54/54/54 67/67/67 68/68/68
f 68/68/68 69/69/69 54/54/54
f 66/66/66 67/67/67 54/54/54
f 313/313/313 57/57/57 55/55/55
f 69/69/69 313/313/313 55/55/55
f 55/55/55 57/57/57 56/56/56
f 69/69/69 68/68/68 315/315/315
f 315/315/315 313/313/313 69/69/69
f 313/313/313 315/315/315 63/63/63
f 63/63/63 57/57/57 313/313/313
f 56/56/56 57/57/57 63/63/63
f 59/59/59 63/63/63 314/314/314
f 63/63/63 62/62/62 56/56/56
f 62/62/62 63/63/63 59/59/59
f 56/56/56 62/62/62 51/51/51
f 96/96/96 95/95/95 463/463/463
f 378/378/378 381/381/381 460/460/460
f 460/460/460 459/459/459 378/378/378
f 89/89/89 381/381/381 378/378/378
f 463/463/463 459/459/459 458/458/458
f 459/459/459 460/460/460 457/457/457
f 457/457/457 458/458/458 459/459/459
f 76/76/76 75/75/75 79/79/79
f 75/75/75 78/78/78 79/79/79
f 75/75/75 76/76/76 77/77/77
f 76/76/76 208/208/208 210/210/210
f 76/76/76 79/79/79 209/209/209
f 209/209/209 208/208/208 76/76/76
f 76/76/76 210/210/210 368/368/368
f 368/368/368 77/77/77 76/76/76
f 209/209/209 79/79/79 78/78/78
f 78/78/78 369/369/369 209/209/209
f 190/190/190 209/209/209 369/369/369
f 208/208/208 209/209/209 190/190/190
f 210/210/210 208/208/208 98/98/98
f 190/190/190 98/98/98 208/208/208
f 210/210/210 97/97/97 374/374/374
f 107/107/107 108/108/108 109/109/109
f 109/109/109 19/19/19 18/18/18
f 18/18/18 110/110/110 109/109/109
f 109/109/109 110/110/110 107/107/107
f 73/73/73 19/19/19 72/72/72
f 17/17/17 19/19/19 73/73/73
f 71/71/71 72/72/72 19/19/19
f 17/17/17 18/18/18 19/19/19
f 39/39/39 71/71/71 186/186/186
f 186/186/186 29/29/29 39/39/39
f 38/38/38 39/39/39 29/29/29
f 186/186/186 26/26/26 183/183/183
f 183/183/183 187/187/187 186/186/186
f 29/29/29 186/186/186 187/187/187
f 187/187/187 23/23/23 29/29/29
f 29/29/29 28/28/28 38/38/38
f 28/28/28 29/29/29 23/23/23
f 421/421/421 431/431/431 435/435/435
f 435/435/435 424/424/424 421/421/421
f 435/435/435 431/431/431 434/434/434
f 434/434/434 443/443/443 647/647/647
f 443/443/443 434/434/434 433/433/433
f 433/433/433 434/434/434 431/431/431
f 423/423/423 432/432/432 431/431/431
f 431/431/431 421/421/421 423/423/423
f 431/431/431 432/432/432 433/433/433
f 413/413/413 421/421/421 424/424/424
f 422/422/422 423/423/423 421/421/421
f 421/421/421 413/413/413 422/422/422
f 413/413/413 416/416/416 480/480/480
f 480/480/480 422/422/422 413/413/413
f 415/415/415 416/416/416 413/413/413
f 48/48/48 51/51/51 62/62/62
f 62/62/62 58/58/58 48/48/48
f 59/59/59 58/58/58 62/62/62
f 59/59/59 314/314/314 70/70/70
f 70/70/70 60/60/60 59/59/59
f 58/58/58 59/59/59 60/60/60
f 49/49/49 48/48/48 58/58/58
f 58/58/58 61/61/61 49/49/49
f 60/60/60 61/61/61 58/58/58
f 51/51/51 48/48/48 40/40/40
f 50/50/50 40/40/40 48/48/48
f 48/48/48 49/49/49 50/50/50
f 40/40/40 50/50/50 117/117/117
f 117/117/117 41/41/41 40/40/40
f 40/40/40 41/41/41 42/42/42
f 147/147/147 27/27/27 26/26/26
f 26/26/26 27/27/27 24/24/24
f 26/26/26 186/186/186 147/147/147
f 71/71/71 19/19/19 147/147/147
f 147/147/147 186/186/186 71/71/71
f 112/112/112 147/147/147 19/19/19
f 19/19/19 109/109/109 112/112/112
f 112/112/112 109/109/109 108/108/108
f 108/108/108 111/111/111 112/112/112
f 111/111/111 108/108/108 357/357/357
f 357/357/357 358/358/358 111/111/111
f 108/108/108 107/107/107 367/367/367
f 367/367/367 357/357/357 108/108/108
f 297/297/297 298/298/298 295/295/295
f 295/295/295 296/296/296 297/297/297
f 298/298/298 297/297/297 308/308/308
f 632/632/632 633/633/633 630/630/630
f 630/630/630 631/631/631 632/632/632
f 631/631/631 643/643/643 632/632/632
f 450/450/450 451/451/451 448/448/448
f 448/448/448 449/449/449 450/450/450
f 448/448/448 451/451/451 452/452/452
f 690/690/690 689/689/689 691/691/691
f 502/502/502 691/691/691 689/689/689
f 689/689/689 387/387/387 502/502/502
f 691/691/691 502/502/502 526/526/526
f 502/502/502 399/399/399 402/402/402
f 402/402/402 526/526/526 502/502/502
f 399/399/399 502/502/502 387/387/387
f 526/526/526 402/402/402 182/182/182
f 182/182/182 402/402/402 401/401/401
f 401/401/401 402/402/402 399/399/399
f 401/401/401 183/183/183 182/182/182
f 182/182/182 183/183/183 26/26/26
f 183/183/183 401/401/401 527/527/527
f 38/38/38 28/28/28 22/22/22
f 22/22/22 118/118/118 38/38/38
f 22/22/22 28/28/28 23/23/23
f 118/118/118 22/22/22 21/21/21
f 22/22/22 23/23/23 20/20/20
f 20/20/20 21/21/21 22/22/22
f 397/397/397 23/23/23 403/403/403
f 404/404/404 23/23/23 187/187/187
f 403/403/403 23/23/23 404/404/404
f 20/20/20 23/23/23 397/397/397
f 527/527/527 187/187/187 183/183/183
f 187/187/187 527/527/527 404/404/404
f 411/411/411 404/404/404 527/527/527
f 412/412/412 403/403/403 404/404/404
f 404/404/404 411/411/411 412/412/412
f 397/397/397 403/403/403 412/412/412
f 481/481/481 398/398/398 397/397/397
f 412/412/412 481/481/481 397/397/397
f 397/397/397 398/398/398 20/20/20
f 481/481/481 447/447/447 446/446/446
f 446/446/446 398/398/398 481/481/481
f 447/447/447 445/445/445 395/395/395
f 447/447/447 395/395/395 394/394/394
f 394/394/394 446/446/446 447/447/447
f 444/444/444 395/395/395 445/445/445
f 507/507/507 395/395/395 444/444/444
f 476/476/476 474/474/474 395/395/395
f 395/395/395 507/507/507 476/476/476
f 396/396/396 395/395/395 474/474/474
f 394/394/394 395/395/395 396/396/396
f 444/444/444 527/527/527 507/507/507
f 527/527/527 444/444/444 411/411/411
f 401/401/401 400/400/400 507/507/507
f 507/507/507 527/527/527 401/401/401
f 456/456/456 476/476/476 507/507/507
f 507/507/507 400/400/400 456/456/456
f 477/477/477 476/476/476 456/456/456
f 476/476/476 477/477/477 475/475/475
f 475/475/475 474/474/474 476/476/476
f 456/456/456 478/478/478 477/477/477
f 478/478/478 456/456/456 386/386/386
f 386/386/386 456/456/456 400/400/400
f 400/400/400 399/399/399 386/386/386
f 399/399/399 400/400/400 401/401/401
f 478/478/478 386/386/386 483/483/483
f 483/483/483 386/386/386 6/6/6
f 387/387/387 386/386/386 399/399/399
f 7/7/7 6/6/6 386/386/386
f 386/386/386 387/387/387 7/7/7
f 358/358/358 477/477/477 478/478/478
f 478/478/478 120/120/120 358/358/358
f 478/478/478 483/483/483 120/120/120
f 477/477/477 358/358/358 357/357/357
f 357/357/357 475/475/475 477/477/477
f 475/475/475 357/357/357 367/367/367
f 367/367/367 472/472/472 475/475/475
f 474/474/474 475/475/475 472/472/472
f 472/472/472 473/473/473 474/474/474
f 474/474/474 473/473/473 396/396/396
f 360/360/360 7/7/7 387/387/387
f 8/8/8 7/7/7 360/360/360
f 387/387/387 689/689/689 360/360/360
f 24/24/24 25/25/25 26/26/26
f 182/182/182 25/25/25 184/184/184
f 26/26/26 25/25/25 182/182/182
f 185/185/185 184/184/184 364/364/364
f 184/184/184 185/185/185 182/182/182
f 12/12/12 11/11/11 364/364/364
f 364/364/364 365/365/365 185/185/185
f 365/365/365 364/364/364 11/11/11
f 83/83/83 9/9/9 12/12/12
f 11/11/11 12/12/12 9/9/9
f 366/366/366 11/11/11 10/10/10
f 11/11/11 366/366/366 365/365/365
f 9/9/9 10/10/10 11/11/11
f 185/185/185 365/365/365 692/692/692
f 390/390/390 692/692/692 365/365/365
f 365/365/365 366/366/366 390/390/390
f 692/692/692 526/526/526 185/185/185
f 182/182/182 185/185/185 526/526/526
f 389/389/389 691/691/691 692/692/692
f 692/692/692 390/390/390 389/389/389
f 526/526/526 692/692/692 691/691/691
f 391/391/391 390/390/390 366/366/366
f 390/390/390 391/391/391 388/388/388
f 388/388/388 389/389/389 390/390/390
f 366/366/366 96/96/96 391/391/391
f 10/10/10 96/96/96 366/366/366
f 455/455/455 388/388/388 391/391/391
f 391/391/391 463/463/463 455/455/455
f 463/463/463 391/391/391 96/96/96
f 389/389/389 388/388/388 453/453/453
f 454/454/454 453/453/453 388/388/388
f 388/388/388 455/455/455 454/454/454
f 453/453/453 690/690/690 389/389/389
f 691/691/691 389/389/389 690/690/690
f 690/690/690 453/453/453 80/80/80
f 80/80/80 453/453/453 454/454/454
f 700/700/700 454/454/454 455/455/455
f 81/81/81 454/454/454 700/700/700
f 454/454/454 81/81/81 80/80/80
f 361/361/361 360/360/360 689/689/689
f 360/360/360 359/359/359 8/8/8
f 359/359/359 360/360/360 361/361/361
f 142/142/142 8/8/8 359/359/359
f 8/8/8 142/142/142 24/24/24
f 359/359/359 363/363/363 142/142/142
f 363/363/363 359/359/359 362/362/362
f 361/361/361 362/362/362 359/359/359
f 80/80/80 361/361/361 690/690/690
f 689/689/689 690/690/690 361/361/361
f 362/362/362 361/361/361 80/80/80
f 12/12/12 362/362/362 83/83/83
f 80/80/80 83/83/83 362/362/362
f 362/362/362 12/12/12 363/363/363
f 364/364/364 363/363/363 12/12/12
f 184/184/184 142/142/142 363/363/363
f 363/363/363 364/364/364 184/184/184
f 142/142/142 184/184/184 25/25/25
f 25/25/25 24/24/24 142/142/142
f 529/529/529 193/193/193 192/192/192
f 192/192/192 530/530/530 529/529/529
f 694/694/694 543/543/543 529/529/529
f 529/529/529 530/530/530 694/694/694
f 544/544/544 465/465/465 529/529/529
f 529/529/529 543/543/543 544/544/544
f 545/545/545 464/464/464 465/465/465
f 465/465/465 544/544/544 545/545/545
f 699/699/699 464/464/464 545/545/545
f 450/450/450 545/545/545 544/544/544
f 545/545/545 693/693/693 699/699/699
f 693/693/693 545/545/545 450/450/450
f 450/450/450 544/544/544 543/543/543
f 543/543/543 451/451/451 450/450/450
f 452/452/452 451/451/451 543/543/543
f 543/543/543 694/694/694 452/452/452
f 450/450/450 449/449/449 693/693/693
f 113/113/113 121/121/121 5/5/5
f 121/121/121 6/6/6 5/5/5
f 24/24/24 5/5/5 8/8/8
f 113/113/113 5/5/5 86/86/86
f 5/5/5 24/24/24 27/27/27
f 27/27/27 86/86/86 5/5/5
f 7/7/7 8/8/8 5/5/5
f 5/5/5 6/6/6 7/7/7
f 358/358/358 120/120/120 113/113/113
f 113/113/113 111/111/111 358/358/358
f 111/111/111 113/113/113 86/86/86
f 113/113/113 120/120/120 121/121/121
f 86/86/86 27/27/27 147/147/147
f 147/147/147 112/112/112 86/86/86
f 86/86/86 112/112/112 111/111/111
f 539/539/539 538/538/538 698/698/698
f 505/505/505 531/531/531 517/517/517
f 517/517/517 506/506/506 505/505/505
f 505/505/505 506/506/506 503/503/503
f 505/505/505 696/696/696 531/531/531
f 696/696/696 505/505/505 504/504/504
f 503/503/503 504/504/504 505/505/505
f 698/698/698 531/531/531 696/696/696
f 698/698/698 697/697/697 539/539/539
f 696/696/696 542/542/542 698/698/698
f 697/697/697 698/698/698 542/542/542
f 504/504/504 695/695/695 696/696/696
f 696/696/696 540/540/540 542/542/542
f 695/695/695 540/540/540 696/696/696
f 542/542/542 541/541/541 697/697/697
f 540/540/540 541/541/541 542/542/542
f 204/204/204 372/372/372 373/373/373
f 458/458/458 455/455/455 463/463/463
f 455/455/455 458/458/458 700/700/700
f 457/457/457 701/701/701 700/700/700
f 700/700/700 458/458/458 457/457/457
f 376/376/376 700/700/700 701/701/701
f 700/700/700 376/376/376 81/81/81
f 377/377/377 82/82/82 81/81/81
f 81/81/81 376/376/376 377/377/377
f 80/80/80 81/81/81 82/82/82
f 82/82/82 83/83/83 80/80/80
f 84/84/84 82/82/82 377/377/377
f 82/82/82 84/84/84 9/9/9
f 9/9/9 83/83/83 82/82/82
f 88/88/88 91/91/91 377/377/377
f 377/377/377 380/380/380 88/88/88
f 380/380/380 377/377/377 376/376/376
f 377/377/377 91/91/91 84/84/84
f 701/701/701 379/379/379 376/376/376
f 376/376/376 379/379/379 380/380/380
f 91/91/91 90/90/90 94/94/94
f 94/94/94 84/84/84 91/91/91
f 90/90/90 91/91/91 88/88/88
f 84/84/84 94/94/94 10/10/10
f 10/10/10 9/9/9 84/84/84
f 95/95/95 94/94/94 90/90/90
f 96/96/96 10/10/10 94/94/94
f 94/94/94 95/95/95 96/96/96
f 378/378/378 90/90/90 89/89/89
f 90/90/90 378/378/378 95/95/95
f 88/88/88 89/89/89 90/90/90
f 95/95/95 378/378/378 459/459/459
f 459/459/459 463/463/463 95/95/95
f 200/200/200 196/196/196 195/195/195
f 195/195/195 196/196/196 197/197/197
f 200/200/200 198/198/198 196/196/196
f 196/196/196 199/199/199 197/197/197
f 198/198/198 199/199/199 196/196/196
f 537/537/537 532/532/532 534/534/534
f 532/532/532 533/533/533 534/534/534
f 537/537/537 534/534/534 535/535/535
f 534/534/534 533/533/533 536/536/536
f 535/535/535 534/534/534 536/536/536
f 126/126/126 175/175/175 138/138/138
f 179/179/179 126/126/126 125/125/125
f 179/179/179 125/125/125 137/137/137
f 179/179/179 137/137/137 177/177/177
f 138/138/138 105/105/105 126/126/126
f 105/105/105 124/124/124 126/126/126
f 123/123/123 126/126/126 124/124/124
f 125/125/125 126/126/126 123/123/123
f 137/137/137 125/125/125 129/129/129
f 125/125/125 127/127/127 129/129/129
f 127/127/127 125/125/125 123/123/123
f 127/127/127 123/123/123 122/122/122
f 122/122/122 123/123/123 124/124/124
f 374/374/374 368/368/368 210/210/210
f 98/98/98 97/97/97 210/210/210
f 99/99/99 98/98/98 190/190/190
f 97/97/97 98/98/98 99/99/99
f 369/369/369 191/191/191 190/190/190
f 190/190/190 193/193/193 99/99/99
f 192/192/192 193/193/193 190/190/190
f 190/190/190 191/191/191 192/192/192
f 529/529/529 465/465/465 99/99/99
f 99/99/99 193/193/193 529/529/529
f 99/99/99 465/465/465 464/464/464
f 464/464/464 100/100/100 99/99/99
f 99/99/99 100/100/100 97/97/97
f 375/375/375 30/30/30 33/33/33
f 32/32/32 33/33/33 30/30/30
f 30/30/30 31/31/31 32/32/32
f 375/375/375 356/356/356 406/406/406
f 406/406/406 405/405/405 375/375/375
f 33/33/33 356/356/356 375/375/375
f 87/87/87 356/356/356 33/33/33
f 33/33/33 85/85/85 87/87/87
f 33/33/33 32/32/32 85/85/85
f 406/406/406 85/85/85 32/32/32
f 32/32/32 31/31/31 405/405/405
f 405/405/405 406/406/406 32/32/32
f 87/87/87 406/406/406 356/356/356
f 406/406/406 87/87/87 85/85/85
f 311/311/311 312/312/312 93/93/93
f 497/497/497 491/491/491 487/487/487
f 487/487/487 491/491/491 489/489/489
f 484/484/484 489/489/489 491/491/491
f 491/491/491 492/492/492 484/484/484
f 489/489/489 486/486/486 487/487/487
f 489/489/489 484/484/484 486/486/486
f 484/484/484 492/492/492 490/490/490
f 484/484/484 485/485/485 486/486/486
f 122/122/122 124/124/124 105/105/105
f 105/105/105 102/102/102 122/122/122
f 122/122/122 128/128/128 130/130/130
f 122/122/122 130/130/130 129/129/129
f 129/129/129 127/127/127 122/122/122
f 128/128/128 122/122/122 102/102/102
f 106/106/106 105/105/105 138/138/138
f 105/105/105 106/106/106 103/103/103
f 103/103/103 102/102/102 105/105/105
f 128/128/128 102/102/102 101/101/101
f 101/101/101 102/102/102 103/103/103
f 101/101/101 131/131/131 128/128/128
f 130/130/130 128/128/128 131/131/131
f 131/131/131 132/132/132 130/130/130
f 131/131/131 134/134/134 133/133/133
f 133/133/133 132/132/132 131/131/131
f 131/131/131 101/101/101 13/13/13
f 568/568/568 569/569/569 566/566/566
f 566/566/566 567/567/567 568/568/568
f 568/568/568 582/582/582 569/569/569
f 233/233/233 234/234/234 231/231/231
f 231/231/231 232/232/232 233/233/233
f 233/233/233 232/232/232 247/247/247
f 548/548/548 549/549/549 546/546/546
f 546/546/546 547/547/547 548/548/548
f 548/548/548 562/562/562 549/549/549
f 213/213/213 214/214/214 211/211/211
f 211/211/211 212/212/212 213/213/213
f 213/213/213 212/212/212 227/227/227
f 13/13/13 134/134/134 131/131/131
f 14/14/14 13/13/13 101/101/101
f 101/101/101 104/104/104 14/14/14
f 103/103/103 104/104/104 101/101/101
f 135/135/135 134/134/134 13/13/13
f 13/13/13 16/16/16 135/135/135
f 15/15/15 16/16/16 13/13/13
f 13/13/13 14/14/14 15/15/15
f 133/133/133 134/134/134 135/135/135
f 135/135/135 136/136/136 133/133/133
f 135/135/135 16/16/16 392/392/392
f 392/392/392 496/496/496 135/135/135
f 135/135/135 496/496/496 495/495/495
f 495/495/495 136/136/136 135/135/135
f 392/392/392 16/16/16 15/15/15
f 466/466/466 392/392/392 393/393/393
f 494/494/494 496/496/496 392/392/392
f 392/392/392 466/466/466 494/494/494
f 118/118/118 21/21/21 74/74/74
f 74/74/74 73/73/73 118/118/118
f 73/73/73 74/74/74 17/17/17
f 1/1/1 176/176/176 178/178/178
f 180/180/180 114/114/114 1/1/1
f 1/1/1 178/178/178 180/180/180
f 4/4/4 176/176/176 1/1/1
f 2/2/2 1/1/1 114/114/114
f 3/3/3 4/4/4 1/1/1
f 1/1/1 2/2/2 3/3/3
f 178/178/178 176/176/176 175/175/175
f 176/176/176 153/153/153 138/138/138
f 138/138/138 175/175/175 176/176/176
f 181/181/181 180/180/180 178/178/178
f 178/178/178 177/177/177 181/181/181
f 175/175/175 179/179/179 178/178/178
f 177/177/177 178/178/178 179/179/179
f 179/179/179 175/175/175 126/126/126
f 141/141/141 174/174/174 15/15/15
f 15/15/15 14/14/14 141/141/141
f 141/141/141 14/14/14 104/104/104
f 138/138/138 153/153/153 154/154/154
f 511/511/511 512/512/512 498/498/498
f 498/498/498 512/512/512 521/521/521
f 498/498/498 522/522/522 488/488/488
f 521/521/521 522/522/522 498/498/498
f 382/382/382 525/525/525 521/521/521
f 522/522/522 521/521/521 525/525/525
f 383/383/383 382/382/382 521/521/521
f 524/524/524 488/488/488 522/522/522
f 525/525/525 524/524/524 522/522/522
f 524/524/524 487/487/487 488/488/488
f 486/486/486 485/485/485 488/488/488
f 487/487/487 486/486/486 488/488/488
f 524/524/524 497/497/497 487/487/487
f 524/524/524 525/525/525 523/523/523
f 523/523/523 497/497/497 524/524/524
f 181/181/181 523/523/523 525/525/525
f 525/525/525 180/180/180 181/181/181
f 180/180/180 525/525/525 382/382/382
f 382/382/382 114/114/114 180/180/180
f 114/114/114 382/382/382 385/385/385
f 384/384/384 385/385/385 382/382/382
f 382/382/382 383/383/383 384/384/384
f 385/385/385 115/115/115 114/114/114
f 114/114/114 115/115/115 2/2/2
f 115/115/115 385/385/385 462/462/462
f 461/461/461 462/462/462 385/385/385
f 385/385/385 384/384/384 461/461/461
f 462/462/462 311/311/311 115/115/115
f 115/115/115 311/311/311 92/92/92
f 92/92/92 2/2/2 115/115/115
f 93/93/93 3/3/3 2/2/2
f 2/2/2 92/92/92 93/93/93
f 93/93/93 92/92/92 311/311/311
f 311/311/311 462/462/462 461/461/461
f 461/461/461 312/312/312 311/311/311
f 253/253/253 254/254/254 251/251/251
f 251/251/251 252/252/252 253/253/253
f 253/253/253 252/252/252 267/267/267
f 588/588/588 589/589/589 586/586/586
f 586/586/586 587/587/587 588/588/588
f 588/588/588 602/602/602 589/589/589
f 15/15/15 393/393/393 392/392/392
f 495/495/495 496/496/496 494/494/494
f 494/494/494 493/493/493 495/495/495
f 490/490/490 494/494/494 466/466/466
f 494/494/494 490/490/490 492/492/492
f 492/492/492 493/493/493 494/494/494
f 466/466/466 469/469/469 490/490/490
f 393/393/393 467/467/467 466/466/466
f 468/468/468 469/469/469 466/466/466
f 466/466/466 467/467/467 468/468/468
f 500/500/500 393/393/393 15/15/15
f 467/467/467 393/393/393 500/500/500
f 468/468/468 467/467/467 501/501/501
f 500/500/500 501/501/501 467/467/467
f 470/470/470 468/468/468 508/508/508
f 501/501/501 508/508/508 468/468/468
f 471/471/471 469/469/469 468/468/468
f 468/468/468 470/470/470 471/471/471
f 484/484/484 469/469/469 471/471/471
f 490/490/490 469/469/469 484/484/484
f 488/488/488 471/471/471 498/498/498
f 498/498/498 471/471/471 470/470/470
f 471/471/471 485/485/485 484/484/484
f 471/471/471 488/488/488 485/485/485
f 508/508/508 509/509/509 470/470/470
f 499/499/499 470/470/470 509/509/509
f 470/470/470 499/499/499 498/498/498
f 509/509/509 508/508/508 166/166/166
f 273/273/273 274/274/274 271/271/271
f 271/271/271 272/272/272 273/273/273
f 273/273/273 272/272/272 287/287/287
f 608/608/608 609/609/609 606/606/606
f 606/606/606 607/607/607 608/608/608
f 608/608/608 622/622/622 609/609/609
f 338/338/338 339/339/339 336/336/336
f 336/336/336 337/337/337 338/338/338
f 338/338/338 337/337/337 352/352/352
f 671/671/671 672/672/672 669/669/669
f 669/669/669 670/670/670 671/671/671
f 671/671/671 685/685/685 672/672/672
f 164/164/164 165/165/165 144/144/144
f 144/144/144 163/163/163 164/164/164
f 202/202/202 164/164/164 517/517/517
f 164/164/164 163/163/163 506/506/506
f 506/506/506 517/517/517 164/164/164
f 517/517/517 538/538/538 202/202/202
f 203/203/203 202/202/202 538/538/538
f 201/201/201 202/202/202 203/203/203
f 373/373/373 201/201/201 204/204/204
f 203/203/203 204/204/204 201/201/201
f 538/538/538 539/539/539 203/203/203
f 531/531/531 698/698/698 538/538/538
f 538/538/538 517/517/517 531/531/531
f 166/166/166 508/508/508 501/501/501
f 166/166/166 152/152/152 509/509/509
f 510/510/510 509/509/509 152/152/152
f 509/509/509 510/510/510 499/499/499
f 499/499/499 510/510/510 513/513/513
f 513/513/513 511/511/511 499/499/499
f 498/498/498 499/499/499 511/511/511
f 513/513/513 510/510/510 151/151/151
f 152/152/152 151/151/151 510/510/510
f 150/150/150 152/152/152 166/166/166
f 152/152/152 150/150/150 149/149/149
f 149/149/149 151/151/151 152/152/152
f 151/151/151 156/156/156 513/513/513
f 155/155/155 156/156/156 151/151/151
f 151/151/151 149/149/149 155/155/155
f 155/155/155 149/149/149 139/139/139
f 655/655/655 656/656/656 653/653/653
f 653/653/653 654/654/654 655/655/655
f 654/654/654 666/666/666 655/655/655
f 322/322/322 323/323/323 320/320/320
f 320/320/320 321/321/321 322/322/322
f 323/323/323 322/322/322 333/333/333
f 217/217/217 218/218/218 215/215/215
f 215/215/215 216/216/216 217/217/217
f 218/218/218 217/217/217 228/228/228
f 552/552/552 553/553/553 550/550/550
f 550/550/550 551/551/551 552/552/552
f 551/551/551 563/563/563 552/552/552
f 318/318/318 319/319/319 316/316/316
f 316/316/316 317/317/317 318/318/318
f 318/318/318 317/317/317 332/332/332
f 651/651/651 652/652/652 649/649/649
f 649/649/649 650/650/650 651/651/651
f 651/651/651 665/665/665 652/652/652
f 277/277/277 278/278/278 275/275/275
f 275/275/275 276/276/276 277/277/277
f 278/278/278 277/277/277 288/288/288
f 612/612/612 613/613/613 610/610/610
f 610/610/610 611/611/611 612/612/612
f 611/611/611 623/623/623 612/612/612
f 675/675/675 676/676/676 673/673/673
f 673/673/673 674/674/674 675/675/675
f 674/674/674 686/686/686 675/675/675
f 342/342/342 343/343/343 340/340/340
f 340/340/340 341/341/341 342/342/342
f 343/343/343 342/342/342 353/353/353
f 572/572/572 573/573/573 570/570/570
f 570/570/570 571/571/571 572/572/572
f 571/571/571 583/583/583 572/572/572
f 237/237/237 238/238/238 235/235/235
f 235/235/235 236/236/236 237/237/237
f 238/238/238 237/237/237 248/248/248
f 257/257/257 258/258/258 255/255/255
f 255/255/255 256/256/256 257/257/257
f 258/258/258 257/257/257 268/268/268
f 592/592/592 593/593/593 590/590/590
f 590/590/590 591/591/591 592/592/592
f 591/591/591 603/603/603 592/592/592
f 139/139/139 149/149/149 150/150/150
f 166/166/166 148/148/148 150/150/150
f 106/106/106 150/150/150 148/148/148
f 150/150/150 106/106/106 139/139/139
f 139/139/139 154/154/154 155/155/155
f 154/154/154 139/139/139 138/138/138
f 138/138/138 139/139/139 106/106/106
f 148/148/148 103/103/103 106/106/106
f 140/140/140 148/148/148 166/166/166
f 103/103/103 148/148/148 140/140/140
f 140/140/140 104/104/104 103/103/103
f 140/140/140 167/167/167 174/174/174
f 174/174/174 141/141/141 140/140/140
f 166/166/166 167/167/167 140/140/140
f 104/104/104 140/140/140 141/141/141
f 501/501/501 167/167/167 166/166/166
f 174/174/174 167/167/167 501/501/501
f 15/15/15 174/174/174 500/500/500
f 501/501/501 500/500/500 174/174/174
f 293/293/293 294/294/294 291/291/291
f 291/291/291 292/292/292 293/293/293
f 293/293/293 292/292/292 307/307/307
f 628/628/628 629/629/629 626/626/626
f 626/626/626 627/627/627 628/628/628
f 628/628/628 642/642/642 629/629/629
f 206/206/206 373/373/373 372/372/372
f 372/372/372 207/207/207 206/206/206
f 205/205/205 206/206/206 207/207/207
