# gillicus_ad_B reconstructed from live game memory
v 8.07115 43.18443 51.54176
v 7.46345 45.12926 59.57786
v 9.05288 56.46392 59.61256
v 9.59101 56.77036 51.47115
v 8.52177 65.59583 -21.29237
v 17.21316 52.75250 -19.90591
v 17.66168 53.03386 -10.32563
v 7.75199 65.94868 -10.28480
v -0.00000 65.17667 51.54148
v 1.44247 64.52644 59.66599
v 1.07008 75.52414 61.06003
v -0.00000 78.62998 56.48909
v -0.00000 36.10909 -53.21720
v 9.85389 38.27171 -53.29058
v 7.77570 38.91219 -60.00776
v -0.00000 36.72997 -60.44287
v 11.46820 58.17255 17.73138
v -0.00000 69.94907 -21.59157
v -0.00000 69.96831 -36.36075
v 7.11609 66.54932 -33.24232
v 7.33494 53.88047 -64.53691
v 9.46990 51.76230 -61.18444
v 10.35259 53.02926 -61.03936
v 7.71941 55.10276 -64.66672
v 16.25949 42.15421 -46.86774
v 15.14947 50.75972 -43.94088
v 14.70601 44.51960 -50.29466
v 13.82518 59.56344 -28.12790
v 16.84266 51.78022 -26.71883
v 8.74123 33.42018 -35.62291
v 8.72524 31.93691 -22.50333
v 16.90444 33.63321 -22.96463
v 17.64871 35.68970 -33.07317
v 6.06080 47.48681 67.48029
v 3.35868 50.76081 79.13163
v 5.64173 54.54424 79.13073
v 7.90494 55.57821 67.50598
v 8.89233 33.56992 -9.86256
v 16.70594 34.88487 -14.42553
v 19.94733 37.01433 -29.70025
v 20.01690 37.27728 -20.16678
v 20.57536 42.54580 -20.23539
v 19.77917 40.17421 -30.95854
v 30.81993 24.39606 -18.98307
v 25.12625 28.60980 -21.29750
v 25.04901 29.28886 -16.77882
v 29.65334 25.68345 -16.09590
v 25.04901 29.28886 -16.77882
v 26.57305 29.81391 -23.25178
v 32.27163 24.97932 -20.13610
v 29.65334 25.68345 -16.09590
v 32.66875 24.08281 -23.21200
v 26.10387 29.26256 -27.72074
v 21.01110 34.42866 -28.97410
v 20.64228 33.89333 -31.60984
v 19.94733 37.01433 -29.70025
v 17.64871 35.68970 -33.07317
v 17.64871 35.68970 -33.07317
v 16.90444 33.63321 -22.96463
v 18.92163 32.38949 -23.25130
v 20.64228 33.89333 -31.60984
v 26.10387 29.26256 -27.72074
v 36.36240 21.49448 -17.91520
v 37.05212 20.43150 -19.57051
v 40.55839 17.46466 -14.87902
v 19.69999 33.56810 -16.72225
v 16.70594 34.88487 -14.42553
v 32.66875 24.08281 -23.21200
v 35.13651 21.08589 -17.25093
v 37.05212 20.43150 -19.57051
v 40.55839 17.46466 -14.87902
v 17.91499 37.43819 -10.22946
v 7.83382 35.88899 17.78281
v 14.82452 40.34480 17.71526
v 12.95320 39.91340 29.78843
v 10.84102 39.94962 34.99499
v 13.47694 50.95855 -51.98659
v 13.42694 45.80624 -53.30328
v -0.00000 67.31706 17.77947
v -0.00000 69.52057 -10.28885
v 33.64558 22.71240 -15.25270
v 33.64558 22.71240 -15.25270
v 10.10993 57.62103 37.45918
v 17.30748 45.03605 17.69434
v 13.56828 45.26083 37.76477
v 13.57136 42.12030 32.87395
v 14.70601 44.51960 -50.29466
v 13.21816 44.01744 -54.39139
v 13.65839 42.47718 -53.02428
v 7.44716 43.57663 -67.71721
v 3.12359 41.92937 -72.09360
v 3.69062 40.54092 -70.45419
v 7.09179 41.88716 -66.89464
v 10.84868 42.42389 -60.28946
v 11.33275 44.18180 -61.11065
v 11.34789 42.80024 -58.31231
v 13.79395 41.75019 -49.76004
v 14.56989 44.46980 -48.84700
v 12.03362 50.10202 -54.51952
v 11.63157 49.35613 -57.89206
v 11.94434 51.91745 -57.51580
v 4.69533 63.80667 -56.41933
v 3.59922 61.65114 -61.28659
v 8.79257 58.48216 -58.74425
v 8.12476 60.08840 -56.81559
v 10.98131 59.50623 -48.61572
v 0.39015 91.01579 65.39877
v -0.00000 89.12129 66.77355
v -0.00000 97.73593 69.50604
v -0.00000 63.04662 67.44952
v 1.44247 64.52644 59.66599
v 13.42694 45.80624 -53.30328
v 10.76682 63.65707 -37.78868
v 14.15052 59.45360 -33.63063
v 17.09617 51.27068 -31.92939
v 20.67207 42.44353 -10.09206
v 19.69999 33.56810 -16.72225
v 20.45313 34.07265 -20.41681
v 20.01690 37.27728 -20.16678
v 16.70594 34.88487 -14.42553
v 20.01690 37.27728 -20.16678
v 20.45313 34.07265 -20.41681
v 19.69999 33.56810 -16.72225
v -0.00000 27.96169 58.03194
v 0.52081 30.35593 64.65150
v 1.50815 40.69966 59.68500
v -0.00000 38.77408 51.65059
v 1.55075 52.53656 124.21112
v 2.30827 56.36687 127.01183
v 2.89229 56.18755 120.45134
v 0.88616 72.90237 131.57425
v -0.00000 75.64405 130.29335
v -0.00000 65.09628 123.54001
v 0.92554 64.00233 126.88094
v 0.25792 21.87520 68.94788
v -0.00000 22.80497 71.04572
v -0.00000 32.91523 67.95866
v 0.60364 83.56478 63.09588
v -0.00000 85.77547 60.33180
v 0.18663 14.73851 77.70210
v -0.00000 14.07522 77.06044
v -0.00000 13.10587 84.84613
v -0.00000 92.13586 64.25700
v -0.00000 19.36886 65.89845
v 11.83752 35.66626 -40.91530
v -0.00000 33.59367 -40.99879
v -0.00000 32.19572 -35.30220
v 3.62996 56.28577 -68.79581
v 4.01986 57.39537 -68.71748
v 6.21171 39.66700 -64.87801
v -0.00000 39.82536 -71.72133
v -0.00000 37.65644 -64.78885
v 3.66792 59.67837 -67.79192
v -0.00000 60.65455 -69.23997
v -0.00000 58.54364 -70.49945
v 18.01704 41.74287 -41.06466
v 18.59704 45.65835 -37.62609
v 15.38473 56.63126 -37.42634
v 11.62389 62.51113 -40.20608
v 6.38714 66.85506 -42.70704
v -0.00000 69.73279 -43.77502
v -0.00000 68.48924 -50.47557
v 5.59550 65.11810 -49.88438
v 14.15052 59.45360 -33.63063
v 17.38451 51.60186 -36.16024
v 17.09617 51.27068 -31.92939
v 10.76682 63.65707 -37.78868
v 6.38714 66.85506 -42.70704
v 6.38714 66.85506 -42.70704
v 18.27089 45.79856 -33.71045
v 18.27089 45.79856 -33.71045
v 18.64497 44.81621 -28.79089
v 16.25949 42.15421 -46.86774
v 15.42958 40.23120 -47.24035
v 17.51367 39.72114 -39.74304
v 18.01704 41.74287 -41.06466
v 17.51367 39.72114 -39.74304
v 7.42806 57.62399 -62.33750
v 10.27079 57.10999 -55.08333
v 8.90728 59.38824 -55.06746
v -0.00000 66.18967 -56.54647
v 10.46215 56.30494 -57.40786
v 8.90728 59.38824 -55.06746
v 9.79934 58.41096 -56.79622
v 10.27079 57.10999 -55.08333
v 10.46215 56.30494 -57.40786
v 8.79257 58.48216 -58.74425
v 8.12476 60.08840 -56.81559
v 8.12476 60.08840 -56.81559
v 9.79934 58.41096 -56.79622
v 8.90728 59.38824 -55.06746
v 7.90952 38.94392 35.02131
v 13.57136 42.12030 32.87395
v 12.95320 39.91340 29.78843
v 18.15225 34.48137 31.95670
v 17.62485 35.21148 36.34319
v 10.84102 39.94962 34.99499
v 16.00391 34.80989 37.61242
v 18.15225 34.48137 31.95670
v 12.95320 39.91340 29.78843
v 10.84102 39.94962 34.99499
v 16.00391 34.80989 37.61242
v 18.11098 30.13701 42.13237
v 18.11098 30.13701 42.13237
v 11.33275 44.18180 -61.11065
v 13.21816 44.01744 -54.39139
v 10.96154 44.17432 -51.98552
v -0.00000 40.07518 -57.07037
v 9.46990 51.76230 -61.18444
v 7.33494 53.88047 -64.53691
v -0.00000 53.83093 -49.50711
v 3.12359 41.92937 -72.09360
v 7.44716 43.57663 -67.71721
v 13.21816 44.01744 -54.39139
v 13.42694 45.80624 -53.30328
v 10.24311 45.61014 -51.06635
v 10.96154 44.17432 -51.98552
v 3.62996 56.28577 -68.79581
v -0.00000 57.41167 -70.62149
v -0.00000 44.46450 -42.83471
v 10.24311 45.61014 -51.06635
v -0.00000 53.83093 -49.50711
v -0.00000 44.46450 -42.83471
v 2.30827 56.36687 127.01183
v 1.55400 60.43226 124.05824
v 2.89229 56.18755 120.45134
v -0.00000 15.74466 78.08011
v -0.00000 51.75196 119.37511
v -0.00000 47.26617 123.86676
v 0.76268 48.64590 127.71347
v 11.63157 49.35613 -57.89206
v -0.00000 62.51914 -65.32272
v 10.24311 45.61014 -51.06635
v 13.42694 45.80624 -53.30328
v -0.00000 63.23738 133.53410
v -0.00000 69.58508 135.27249
v 0.90888 43.14909 131.01057
v -0.00000 45.70949 136.31421
v -0.00000 49.62788 134.40602
v -0.00000 52.82845 130.63197
v -0.00000 56.51601 129.55708
v -0.00000 60.45910 132.21480
v 0.51912 81.59238 138.31064
v -0.00000 78.18005 139.10417
v 0.06359 86.12569 145.30727
v 0.59560 34.22390 136.78629
v -0.00000 31.14353 135.68063
v 0.06091 27.41590 143.76355
v -0.00000 84.04720 137.89699
v -0.00000 36.71419 139.17963
v 9.19225 36.85642 -47.44101
v 11.83752 35.66626 -40.91530
v 4.40665 54.66756 92.97623
v -0.00000 49.05328 92.95834
v -0.00000 51.74543 110.27286
v 3.20918 55.70295 110.27188
v 18.87255 43.38607 -36.21722
v 18.87255 43.38607 -36.21722
v 18.87255 43.38607 -36.21722
v -0.00000 30.95658 -21.06178
v -0.00000 34.92731 -47.08625
v -0.00000 33.59367 -40.99879
v -0.00000 63.04662 67.44952
v -0.00000 73.33933 65.03624
v 1.50815 40.69966 59.68500
v -0.00000 38.77408 51.65059
v -0.00000 60.36315 93.03400
v -0.00000 61.53373 79.13977
v -0.00000 31.72851 -8.96357
v -0.00000 34.30598 17.80250
v -0.00000 36.79694 35.39081
v -0.00000 65.92607 37.43044
v -0.00000 65.17667 51.54148
v -0.00000 42.48400 67.45219
v -0.00000 81.26903 65.88181
v -0.00000 51.75196 119.37511
v 2.89229 56.18755 120.45134
v -0.00000 60.64746 119.50244
v 1.55400 60.43226 124.05824
v -0.00000 39.47856 128.67198
v -0.00000 60.64746 119.50244
v -0.00000 56.51601 129.55708
v 1.55075 52.53656 124.21112
v -0.00000 59.59724 110.27586
v -0.00000 69.73279 -43.77502
v -0.00000 64.01638 -60.94052
v -0.00000 41.36395 -72.93275
v -0.00000 57.41167 -70.62149
v -0.00000 41.36395 -72.93275
v 5.19954 55.33239 -64.78984
v 4.90663 52.99074 -65.85498
v 4.58809 53.01469 -65.39650
v 4.57822 55.20334 -64.02678
v 4.55603 55.52016 -65.87526
v 4.59470 52.98169 -66.48746
v 4.90663 52.99074 -65.85498
v 5.19954 55.33239 -64.78984
v 4.52905 50.88215 -66.28734
v 4.52905 50.88215 -66.28734
v 6.94394 42.49825 -64.82605
v 5.88976 42.67926 -64.42781
v 6.09954 45.14328 -66.42252
v 6.62136 45.08630 -66.67134
v 6.38947 42.65982 -65.99301
v 6.94394 42.49825 -64.82605
v 6.62136 45.08630 -66.67134
v 6.34421 44.95740 -67.23418
v 6.32483 47.05344 -67.52187
v 6.32483 47.05344 -67.52187
v 4.03605 42.43200 -69.54738
v 3.26083 41.41174 -68.11433
v 3.36545 44.63352 -70.72244
v 3.75214 44.42242 -71.17516
v 2.74720 40.95677 -69.09004
v 3.11066 44.39226 -71.23984
v 3.36545 44.63352 -70.72244
v 3.26083 41.41174 -68.11433
v 3.52149 40.53670 -69.99088
v 3.49765 44.15007 -71.75923
v 3.11066 44.39226 -71.23984
v 2.74720 40.95677 -69.09004
v 3.52149 40.53670 -69.99088
v 4.03605 42.43200 -69.54738
v 3.75214 44.42242 -71.17516
v 3.49765 44.15007 -71.75923
v 3.47990 47.12823 -71.98947
v 3.47990 47.12823 -71.98947
v 3.47990 47.12823 -71.98947
v 3.47990 47.12823 -71.98947
v 2.29262 57.22785 -67.20111
v 3.15525 56.95893 -66.54630
v 2.53008 55.30167 -67.94658
v 2.09215 55.45017 -68.33342
v 3.55210 57.05965 -67.42116
v 2.72093 55.36592 -68.44853
v 2.53008 55.30167 -67.94658
v 3.15525 56.95893 -66.54630
v 2.67532 57.35409 -68.18616
v 2.27455 55.52932 -68.90472
v 2.72093 55.36592 -68.44853
v 3.55210 57.05965 -67.42116
v 2.67532 57.35409 -68.18616
v 2.29262 57.22785 -67.20111
v 2.09215 55.45017 -68.33342
v 2.27455 55.52932 -68.90472
v 1.94510 53.27495 -69.22098
v 1.94510 53.27495 -69.22098
v 1.94510 53.27495 -69.22098
v 1.94510 53.27495 -69.22098
v 6.32239 54.27084 -60.63700
v 7.30084 54.40517 -60.89225
v 6.68692 49.70457 -61.92888
v 7.30084 54.40517 -60.89225
v 6.61187 54.88951 -61.88161
v 6.68692 49.70457 -61.92888
v 8.39607 42.17395 -60.59305
v 7.31363 42.28187 -60.16159
v 7.75257 46.59827 -63.59160
v 7.81408 42.35709 -61.76813
v 8.39607 42.17395 -60.59305
v 7.75257 46.59827 -63.59160
v 10.96154 44.17432 -51.98552
v -0.00000 42.48400 67.45219
v -0.00000 46.12635 79.13295
v -8.07115 43.18443 51.54176
v -9.59102 56.77036 51.47115
v -9.05288 56.46392 59.61256
v -7.46345 45.12926 59.57786
v -8.52178 65.59583 -21.29237
v -7.75199 65.94868 -10.28480
v -17.66168 53.03386 -10.32563
v -17.21317 52.75250 -19.90591
v -1.07008 75.52414 61.06003
v -1.44247 64.52644 59.66599
v -7.77570 38.91219 -60.00776
v -9.85390 38.27171 -53.29058
v -11.46820 58.17255 17.73138
v -7.11609 66.54932 -33.24232
v -7.33495 53.88047 -64.53691
v -7.71941 55.10276 -64.66672
v -10.35259 53.02926 -61.03936
v -9.46990 51.76230 -61.18444
v -16.25950 42.15421 -46.86774
v -14.70601 44.51960 -50.29466
v -15.14948 50.75972 -43.94088
v -13.82518 59.56344 -28.12790
v -16.84266 51.78022 -26.71883
v -8.74123 33.42018 -35.62291
v -17.64871 35.68970 -33.07317
v -16.90445 33.63322 -22.96463
v -8.72524 31.93691 -22.50333
v -6.06080 47.48681 67.48029
v -7.90495 55.57821 67.50598
v -5.64173 54.54424 79.13073
v -3.35868 50.76081 79.13163
v -16.70594 34.88488 -14.42553
v -8.89234 33.56992 -9.86256
v -19.94733 37.01434 -29.70025
v -19.77918 40.17421 -30.95854
v -20.57536 42.54580 -20.23539
v -20.01691 37.27728 -20.16677
v -30.81994 24.39607 -18.98306
v -29.65335 25.68346 -16.09590
v -25.04901 29.28886 -16.77882
v -25.12626 28.60981 -21.29749
v -25.04901 29.28886 -16.77882
v -29.65335 25.68346 -16.09590
v -32.27164 24.97932 -20.13610
v -26.57305 29.81392 -23.25177
v -32.66875 24.08282 -23.21200
v -26.10388 29.26257 -27.72073
v -20.64228 33.89333 -31.60984
v -21.01110 34.42867 -28.97410
v -17.64871 35.68970 -33.07317
v -19.94733 37.01434 -29.70025
v -17.64871 35.68970 -33.07317
v -20.64228 33.89333 -31.60984
v -18.92163 32.38950 -23.25129
v -16.90445 33.63322 -22.96463
v -26.10388 29.26257 -27.72073
v -36.36240 21.49448 -17.91520
v -40.55840 17.46466 -14.87902
v -37.05212 20.43150 -19.57051
v -19.69999 33.56810 -16.72225
v -16.70594 34.88488 -14.42553
v -32.66875 24.08282 -23.21200
v -37.05212 20.43150 -19.57051
v -35.13651 21.08590 -17.25093
v -40.55840 17.46466 -14.87902
v -17.91500 37.43819 -10.22946
v -14.82452 40.34480 17.71526
v -7.83382 35.88899 17.78281
v -12.95320 39.91340 29.78843
v -10.84103 39.94962 34.99499
v -13.47695 50.95855 -51.98659
v -13.42694 45.80624 -53.30328
v -33.64559 22.71241 -15.25270
v -33.64559 22.71241 -15.25270
v -10.10993 57.62103 37.45918
v -13.56828 45.26083 37.76477
v -17.30748 45.03605 17.69434
v -13.57136 42.12030 32.87395
v -14.70601 44.51960 -50.29466
v -13.65840 42.47718 -53.02428
v -13.21818 44.01744 -54.39139
v -7.44716 43.57663 -67.71721
v -7.09179 41.88716 -66.89464
v -3.69062 40.54092 -70.45419
v -3.12359 41.92937 -72.09360
v -10.84869 42.42389 -60.28946
v -11.33276 44.18180 -61.11065
v -11.34790 42.80024 -58.31231
v -12.03362 50.10202 -54.51952
v -14.56989 44.46980 -48.84700
v -13.79395 41.75019 -49.76004
v -11.63157 49.35613 -57.89206
v -11.94434 51.91745 -57.51580
v -4.69533 63.80667 -56.41933
v -8.12476 60.08840 -56.81559
v -8.79257 58.48216 -58.74425
v -3.59922 61.65114 -61.28659
v -10.98131 59.50623 -48.61572
v -0.39015 91.01579 65.39877
v -1.44247 64.52644 59.66599
v -13.42694 45.80624 -53.30328
v -14.15052 59.45360 -33.63063
v -10.76682 63.65707 -37.78868
v -17.09617 51.27068 -31.92939
v -20.67208 42.44353 -10.09206
v -19.69999 33.56810 -16.72225
v -20.45313 34.07265 -20.41680
v -20.01691 37.27728 -20.16677
v -16.70594 34.88488 -14.42553
v -19.69999 33.56810 -16.72225
v -20.45313 34.07265 -20.41680
v -20.01691 37.27728 -20.16677
v -1.50815 40.69966 59.68500
v -0.52081 30.35593 64.65150
v -1.55076 52.53656 124.21112
v -2.89230 56.18755 120.45134
v -2.30827 56.36687 127.01183
v -0.88616 72.90237 131.57425
v -0.92554 64.00233 126.88094
v -0.25793 21.87520 68.94788
v -0.60364 83.56478 63.09588
v -0.18664 14.73851 77.70210
v -11.83752 35.66626 -40.91530
v -3.62996 56.28577 -68.79581
v -4.01986 57.39537 -68.71748
v -6.21171 39.66700 -64.87801
v -3.66792 59.67837 -67.79192
v -18.01704 41.74287 -41.06466
v -18.59705 45.65835 -37.62609
v -15.38473 56.63126 -37.42634
v -11.62390 62.51113 -40.20608
v -6.38714 66.85506 -42.70704
v -5.59550 65.11810 -49.88438
v -14.15052 59.45360 -33.63063
v -17.09617 51.27068 -31.92939
v -17.38451 51.60186 -36.16024
v -10.76682 63.65707 -37.78868
v -6.38714 66.85506 -42.70704
v -6.38714 66.85506 -42.70704
v -18.27089 45.79856 -33.71045
v -18.64498 44.81621 -28.79089
v -18.27089 45.79856 -33.71045
v -16.25950 42.15421 -46.86774
v -18.01704 41.74287 -41.06466
v -17.51368 39.72114 -39.74304
v -15.42958 40.23120 -47.24035
v -17.51368 39.72114 -39.74304
v -7.42806 57.62399 -62.33750
v -10.27079 57.10999 -55.08333
v -8.90728 59.38824 -55.06746
v -10.46215 56.30494 -57.40786
v -8.90728 59.38824 -55.06746
v -10.27079 57.10999 -55.08333
v -9.79935 58.41096 -56.79622
v -10.46215 56.30494 -57.40786
v -8.79257 58.48216 -58.74425
v -8.12476 60.08840 -56.81559
v -8.12476 60.08840 -56.81559
v -8.90728 59.38824 -55.06746
v -9.79935 58.41096 -56.79622
v -7.90953 38.94392 35.02131
v -13.57136 42.12030 32.87395
v -17.62485 35.21148 36.34319
v -18.15225 34.48137 31.95670
v -12.95320 39.91340 29.78843
v -10.84103 39.94962 34.99499
v -16.00392 34.80989 37.61242
v -18.15225 34.48137 31.95670
v -16.00392 34.80989 37.61242
v -10.84103 39.94962 34.99499
v -12.95320 39.91340 29.78843
v -18.11098 30.13701 42.13237
v -18.11098 30.13701 42.13237
v -11.33276 44.18180 -61.11065
v -10.96154 44.17432 -51.98552
v -13.21818 44.01744 -54.39139
v -9.46990 51.76230 -61.18444
v -7.33495 53.88047 -64.53691
v -3.12359 41.92937 -72.09360
v -7.44716 43.57663 -67.71721
v -13.21818 44.01744 -54.39139
v -10.96154 44.17432 -51.98552
v -10.24311 45.61014 -51.06635
v -13.42694 45.80624 -53.30328
v -3.62996 56.28577 -68.79581
v -10.24311 45.61014 -51.06635
v -2.30827 56.36687 127.01183
v -2.89230 56.18755 120.45134
v -1.55401 60.43226 124.05824
v -0.76268 48.64590 127.71347
v -11.63157 49.35613 -57.89206
v -10.24311 45.61014 -51.06635
v -13.42694 45.80624 -53.30328
v -0.90889 43.14909 131.01057
v -0.51912 81.59238 138.31064
v -0.06360 86.12569 145.30727
v -0.59560 34.22390 136.78629
v -0.06092 27.41590 143.76355
v -11.83752 35.66626 -40.91530
v -9.19226 36.85642 -47.44101
v -4.40666 54.66756 92.97623
v -3.20918 55.70295 110.27188
v -18.87255 43.38607 -36.21722
v -18.87255 43.38607 -36.21722
v -18.87255 43.38607 -36.21722
v -1.50815 40.69966 59.68500
v -2.89230 56.18755 120.45134
v -1.55401 60.43226 124.05824
v -1.55076 52.53656 124.21112
v -5.19955 55.33239 -64.78984
v -4.57822 55.20334 -64.02678
v -4.58809 53.01469 -65.39650
v -4.90664 52.99074 -65.85498
v -4.55603 55.52016 -65.87526
v -5.19955 55.33239 -64.78984
v -4.90664 52.99074 -65.85498
v -4.59471 52.98169 -66.48746
v -4.52906 50.88215 -66.28734
v -4.52906 50.88215 -66.28734
v -6.94395 42.49825 -64.82605
v -6.62136 45.08630 -66.67134
v -6.09954 45.14328 -66.42252
v -5.88976 42.67926 -64.42781
v -6.38947 42.65982 -65.99301
v -6.34421 44.95740 -67.23418
v -6.62136 45.08630 -66.67134
v -6.94395 42.49825 -64.82605
v -6.32483 47.05344 -67.52187
v -6.32483 47.05344 -67.52187
v -4.03605 42.43200 -69.54738
v -3.75214 44.42242 -71.17516
v -3.36545 44.63352 -70.72244
v -3.26084 41.41174 -68.11433
v -2.74720 40.95677 -69.09004
v -3.26084 41.41174 -68.11433
v -3.36545 44.63352 -70.72244
v -3.11066 44.39226 -71.23984
v -3.52149 40.53670 -69.99088
v -2.74720 40.95677 -69.09004
v -3.11066 44.39226 -71.23984
v -3.49765 44.15007 -71.75923
v -3.52149 40.53670 -69.99088
v -3.49765 44.15007 -71.75923
v -3.75214 44.42242 -71.17516
v -4.03605 42.43200 -69.54738
v -3.47990 47.12823 -71.98947
v -3.47990 47.12823 -71.98947
v -3.47990 47.12823 -71.98947
v -3.47990 47.12823 -71.98947
v -2.29262 57.22785 -67.20111
v -2.09215 55.45017 -68.33342
v -2.53009 55.30167 -67.94658
v -3.15526 56.95893 -66.54630
v -3.55210 57.05965 -67.42116
v -3.15526 56.95893 -66.54630
v -2.53009 55.30167 -67.94658
v -2.72093 55.36592 -68.44853
v -2.67533 57.35409 -68.18616
v -3.55210 57.05965 -67.42116
v -2.72093 55.36592 -68.44853
v -2.27456 55.52932 -68.90472
v -2.67533 57.35409 -68.18616
v -2.27456 55.52932 -68.90472
v -2.09215 55.45017 -68.33342
v -2.29262 57.22785 -67.20111
v -1.94510 53.27495 -69.22098
v -1.94510 53.27495 -69.22098
v -1.94510 53.27495 -69.22098
v -1.94510 53.27495 -69.22098
v -6.32239 54.27084 -60.63700
v -6.68692 49.70457 -61.92888
v -7.30085 54.40517 -60.89225
v -7.30085 54.40517 -60.89225
v -6.68692 49.70457 -61.92888
v -6.61187 54.88951 -61.88161
v -8.39608 42.17395 -60.59305
v -7.75258 46.59827 -63.59160
v -7.31363 42.28187 -60.16159
v -7.81409 42.35709 -61.76813
v -7.75258 46.59827 -63.59160
v -8.39608 42.17395 -60.59305
v -10.96154 44.17432 -51.98552
vt 0.443036 0.781665
vt 0.401997 0.797621
vt 0.405277 0.883752
vt 0.447331 0.883464
vt 0.880848 0.920529
vt 0.871269 0.841817
vt 0.811406 0.840027
vt 0.811315 0.927761
vt 0.350061 0.738681
vt 0.287806 0.671946
vt 0.223504 0.711290
vt 0.250948 0.775502
vt 0.143520 0.026905
vt 0.154360 0.125043
vt 0.212410 0.101190
vt 0.205625 0.025170
vt 0.639862 0.886381
vt 0.880974 0.975141
vt 0.952405 0.975721
vt 0.943844 0.929133
vt 0.613110 0.395629
vt 0.576507 0.352993
vt 0.565690 0.368556
vt 0.606779 0.410438
vt 0.403694 0.189115
vt 0.386952 0.285875
vt 0.453162 0.235728
vt 0.924328 0.875085
vt 0.908536 0.834269
vt 0.947302 0.705382
vt 0.879074 0.689393
vt 0.877279 0.730959
vt 0.925757 0.748480
vt 0.355081 0.805124
vt 0.279337 0.842911
vt 0.283449 0.873538
vt 0.358986 0.886421
vt 0.805538 0.690828
vt 0.836116 0.728125
vt 0.912584 0.761108
vt 0.864682 0.752162
vt 0.864219 0.785249
vt 0.918332 0.775272
vt 0.674082 0.159710
vt 0.605452 0.203293
vt 0.642711 0.237176
vt 0.692982 0.194402
vt 0.564589 0.030556
vt 0.558384 0.104305
vt 0.639766 0.080751
vt 0.621352 0.026091
vt 0.647241 0.116188
vt 0.546532 0.154790
vt 0.478497 0.149565
vt 0.477225 0.177526
vt 0.448440 0.140761
vt 0.447288 0.183724
vt 0.447288 0.183724
vt 0.512522 0.250552
vt 0.532638 0.237343
vt 0.477225 0.177526
vt 0.546532 0.154790
vt 0.694293 0.057991
vt 0.705892 0.082829
vt 0.754104 0.021219
vt 0.562657 0.282454
vt 0.534127 0.298293
vt 0.647241 0.116188
vt 0.724184 0.130357
vt 0.709136 0.093574
vt 0.786520 0.095967
vt 0.809862 0.746185
vt 0.630878 0.701372
vt 0.637355 0.756097
vt 0.567527 0.759627
vt 0.545120 0.754869
vt 0.466200 0.317033
vt 0.484280 0.259697
vt 0.637941 0.974618
vt 0.810483 0.975559
vt 0.670281 0.018339
vt 0.733594 0.162861
vt 0.531368 0.885940
vt 0.640110 0.796947
vt 0.531097 0.798009
vt 0.555382 0.774456
vt 0.169670 0.205039
vt 0.196791 0.196540
vt 0.170737 0.174770
vt 0.301228 0.106719
vt 0.331194 0.054218
vt 0.300602 0.055712
vt 0.280680 0.097716
vt 0.232292 0.142308
vt 0.249447 0.156628
vt 0.968308 0.323359
vt 0.870709 0.326482
vt 0.871676 0.265925
vt 0.967471 0.244458
vt 0.536941 0.310145
vt 0.525883 0.343081
vt 0.494697 0.505904
vt 0.556756 0.497583
vt 0.523155 0.432525
vt 0.503162 0.446024
vt 0.405271 0.411494
vt 0.122177 0.780907
vt 0.115477 0.762351
vt 0.046649 0.808479
vt 0.353797 0.951799
vt 0.399556 0.955901
vt 0.204602 0.211841
vt 0.966715 0.906669
vt 0.950330 0.873020
vt 0.946635 0.832102
vt 0.809455 0.780188
vt 0.501704 0.028258
vt 0.493718 0.077014
vt 0.467717 0.087061
vt 0.476333 0.026418
vt 0.467717 0.087061
vt 0.493718 0.077014
vt 0.501704 0.028258
vt 0.069868 0.360468
vt 0.142959 0.340731
vt 0.096013 0.262726
vt 0.010480 0.297340
vt 0.946072 0.107258
vt 0.929794 0.049553
vt 0.977689 0.081133
vt 0.774368 0.556107
vt 0.772039 0.599271
vt 0.920239 0.527225
vt 0.887512 0.484876
vt 0.168728 0.402107
vt 0.200379 0.395168
vt 0.190791 0.314428
vt 0.173636 0.752740
vt 0.189780 0.795244
vt 0.209708 0.473147
vt 0.198657 0.476629
vt 0.226632 0.488030
vt 0.125545 0.810596
vt 0.115437 0.417854
vt 0.961236 0.730130
vt 0.978421 0.656230
vt 0.955335 0.652451
vt 0.664323 0.453185
vt 0.654237 0.464106
vt 0.252811 0.081231
vt 0.306502 0.018299
vt 0.246755 0.022504
vt 0.634719 0.489572
vt 0.663227 0.527893
vt 0.690939 0.505038
vt 0.329489 0.160667
vt 0.313030 0.209115
vt 0.300174 0.307071
vt 0.307086 0.386389
vt 0.299327 0.471527
vt 0.277684 0.558960
vt 0.403086 0.571749
vt 0.405436 0.496191
vt 0.244026 0.328384
vt 0.300011 0.263170
vt 0.235888 0.235925
vt 0.271304 0.397638
vt 0.309782 0.440697
vt 0.984210 0.936008
vt 0.249756 0.184425
vt 0.951380 0.807861
vt 0.915568 0.800053
vt 0.103294 0.197326
vt 0.097344 0.178366
vt 0.034719 0.218688
vt 0.073525 0.239669
vt 0.964882 0.775823
vt 0.573515 0.440798
vt 0.484656 0.418170
vt 0.484537 0.438063
vt 0.499825 0.570496
vt 0.506891 0.411304
vt 0.720259 0.359530
vt 0.760599 0.368101
vt 0.763213 0.332879
vt 0.807717 0.347306
vt 0.764493 0.402562
vt 0.720669 0.385702
vt 0.720669 0.385702
vt 0.760599 0.368101
vt 0.720259 0.359530
vt 0.544414 0.735545
vt 0.331286 0.643327
vt 0.333549 0.668550
vt 0.426098 0.669181
vt 0.428621 0.628609
vt 0.332944 0.605722
vt 0.413207 0.593325
vt 0.426854 0.668408
vt 0.334554 0.671991
vt 0.330201 0.625709
vt 0.420259 0.611567
vt 0.522037 0.585951
vt 0.521984 0.584513
vt 0.045485 0.640825
vt 0.036324 0.698651
vt 0.041741 0.707267
vt 0.078199 0.682572
vt 0.121161 0.470134
vt 0.110854 0.443000
vt 0.033334 0.506340
vt 0.167012 0.586603
vt 0.107676 0.593924
vt 0.036324 0.698651
vt 0.029743 0.704982
vt 0.034545 0.714723
vt 0.041741 0.707267
vt 0.054780 0.390018
vt 0.018490 0.370272
vt 0.097942 0.736828
vt 0.034545 0.714723
vt 0.097074 0.752419
vt 0.097942 0.736828
vt 0.945645 0.396042
vt 0.945600 0.463931
vt 0.989538 0.441085
vt 0.223877 0.462864
vt 0.985805 0.142090
vt 0.929808 0.173533
vt 0.891017 0.139469
vt 0.128195 0.488619
vt 0.599386 0.536436
vt 0.125968 0.531423
vt 0.149241 0.552783
vt 0.814715 0.428558
vt 0.751527 0.492302
vt 0.831464 0.186878
vt 0.783096 0.138181
vt 0.819216 0.104057
vt 0.870923 0.079910
vt 0.890940 0.040595
vt 0.849390 0.404350
vt 0.641620 0.617710
vt 0.652538 0.571337
vt 0.531508 0.631337
vt 0.729373 0.260420
vt 0.729055 0.299125
vt 0.623516 0.307523
vt 0.631480 0.650174
vt 0.712782 0.223332
vt 0.087172 0.120291
vt 0.031858 0.138049
vt 0.209613 0.876238
vt 0.202900 0.825110
vt 0.128562 0.845020
vt 0.132022 0.888900
vt 0.277033 0.160071
vt 0.027426 0.263298
vt 0.958564 0.792365
vt 0.873638 0.645910
vt 0.071958 0.039443
vt 0.014007 0.050633
vt 0.234287 0.601738
vt 0.201272 0.666065
vt 0.391007 0.753024
vt 0.427905 0.733203
vt 0.208939 0.929288
vt 0.281622 0.938906
vt 0.801054 0.646863
vt 0.625832 0.673128
vt 0.534641 0.694797
vt 0.528855 0.970428
vt 0.444893 0.968633
vt 0.191084 0.225124
vt 0.158992 0.715981
vt 0.058946 0.844912
vt 0.050895 0.896169
vt 0.062394 0.945048
vt 0.033547 0.942459
vt 0.842718 0.238295
vt 0.978705 0.506524
vt 0.906223 0.373970
vt 0.027040 0.854914
vt 0.131940 0.928230
vt 0.982171 0.975803
vt 0.551520 0.545741
vt 0.339505 0.021618
vt 0.700247 0.492158
vt 0.207170 0.591073
vt 0.419559 0.063931
vt 0.403309 0.096431
vt 0.370809 0.096431
vt 0.354559 0.063931
vt 0.419559 0.063931
vt 0.403309 0.096431
vt 0.370809 0.096431
vt 0.354559 0.063931
vt 0.387059 0.128931
vt 0.387059 0.128931
vt 0.354605 0.056253
vt 0.417910 0.053654
vt 0.403309 0.096431
vt 0.370809 0.096431
vt 0.354559 0.063931
vt 0.415705 0.052423
vt 0.403309 0.096431
vt 0.370809 0.096431
vt 0.387059 0.128931
vt 0.387059 0.128931
vt 0.354559 0.063931
vt 0.406516 0.036022
vt 0.403309 0.096431
vt 0.370809 0.096431
vt 0.436555 0.048895
vt 0.403309 0.096431
vt 0.370809 0.096431
vt 0.354707 0.044829
vt 0.430710 0.044576
vt 0.403309 0.096431
vt 0.370809 0.096431
vt 0.354585 0.043975
vt 0.354560 0.043973
vt 0.419559 0.063931
vt 0.403309 0.096431
vt 0.370809 0.096431
vt 0.387059 0.128931
vt 0.387059 0.128931
vt 0.387059 0.128931
vt 0.387059 0.128931
vt 0.354559 0.063931
vt 0.419559 0.063931
vt 0.403309 0.096431
vt 0.370809 0.096431
vt 0.419559 0.063931
vt 0.403309 0.096431
vt 0.370809 0.096431
vt 0.354559 0.063931
vt 0.419559 0.063931
vt 0.403309 0.096431
vt 0.370809 0.096431
vt 0.354559 0.063931
vt 0.354559 0.063931
vt 0.419559 0.063931
vt 0.403309 0.096431
vt 0.370809 0.096431
vt 0.387059 0.128931
vt 0.387059 0.128931
vt 0.387059 0.128931
vt 0.387059 0.128931
vt 0.360628 0.054018
vt 0.424343 0.052355
vt 0.387059 0.107265
vt 0.368048 0.054061
vt 0.426934 0.054047
vt 0.387059 0.107265
vt 0.357456 0.057406
vt 0.417936 0.054489
vt 0.393505 0.107364
vt 0.354559 0.063931
vt 0.416024 0.053527
vt 0.395642 0.106462
vt 0.041741 0.707267
vt 0.346720 0.767238
vt 0.273353 0.803749
vt 0.443036 0.781665
vt 0.447331 0.883464
vt 0.405277 0.883752
vt 0.401997 0.797621
vt 0.880848 0.920529
vt 0.811315 0.927761
vt 0.811406 0.840027
vt 0.871269 0.841817
vt 0.223504 0.711290
vt 0.287806 0.671946
vt 0.212410 0.101190
vt 0.154360 0.125043
vt 0.639862 0.886381
vt 0.943844 0.929133
vt 0.613110 0.395629
vt 0.606779 0.410438
vt 0.565690 0.368556
vt 0.576507 0.352993
vt 0.403694 0.189115
vt 0.453162 0.235728
vt 0.386952 0.285875
vt 0.924328 0.875085
vt 0.908536 0.834269
vt 0.947302 0.705382
vt 0.925757 0.748480
vt 0.877279 0.730959
vt 0.879074 0.689393
vt 0.355081 0.805124
vt 0.358986 0.886421
vt 0.283449 0.873538
vt 0.279337 0.842911
vt 0.836116 0.728125
vt 0.805538 0.690828
vt 0.912584 0.761108
vt 0.918332 0.775272
vt 0.864219 0.785249
vt 0.864682 0.752162
vt 0.674082 0.159710
vt 0.692982 0.194402
vt 0.642711 0.237176
vt 0.605452 0.203293
vt 0.564589 0.030556
vt 0.621352 0.026091
vt 0.639766 0.080751
vt 0.558384 0.104305
vt 0.647241 0.116188
vt 0.546532 0.154790
vt 0.477225 0.177526
vt 0.478497 0.149565
vt 0.447288 0.183724
vt 0.448440 0.140761
vt 0.447288 0.183724
vt 0.477225 0.177526
vt 0.532638 0.237343
vt 0.512522 0.250552
vt 0.546532 0.154790
vt 0.694293 0.057991
vt 0.754104 0.021219
vt 0.705892 0.082829
vt 0.562657 0.282454
vt 0.534127 0.298293
vt 0.647241 0.116188
vt 0.709136 0.093574
vt 0.724184 0.130357
vt 0.786520 0.095967
vt 0.809862 0.746185
vt 0.637355 0.756097
vt 0.630878 0.701372
vt 0.567527 0.759627
vt 0.545120 0.754869
vt 0.466200 0.317033
vt 0.484280 0.259697
vt 0.670281 0.018339
vt 0.733594 0.162861
vt 0.531368 0.885940
vt 0.531097 0.798009
vt 0.640110 0.796947
vt 0.555382 0.774456
vt 0.169670 0.205039
vt 0.170737 0.174770
vt 0.196791 0.196540
vt 0.301228 0.106719
vt 0.280680 0.097716
vt 0.300602 0.055712
vt 0.331194 0.054218
vt 0.232292 0.142308
vt 0.249447 0.156628
vt 0.968308 0.323359
vt 0.967471 0.244458
vt 0.871676 0.265925
vt 0.870709 0.326482
vt 0.536941 0.310145
vt 0.525883 0.343081
vt 0.494697 0.505904
vt 0.503162 0.446024
vt 0.523155 0.432525
vt 0.556756 0.497583
vt 0.405271 0.411494
vt 0.122177 0.780907
vt 0.399556 0.955901
vt 0.204602 0.211841
vt 0.950330 0.873020
vt 0.966715 0.906669
vt 0.946635 0.832102
vt 0.809455 0.780188
vt 0.501704 0.028258
vt 0.493718 0.077014
vt 0.467717 0.087061
vt 0.476333 0.026418
vt 0.501704 0.028258
vt 0.493718 0.077014
vt 0.467717 0.087061
vt 0.096013 0.262726
vt 0.142959 0.340731
vt 0.946072 0.107258
vt 0.977689 0.081133
vt 0.929794 0.049553
vt 0.774368 0.556107
vt 0.887512 0.484876
vt 0.168728 0.402107
vt 0.173636 0.752740
vt 0.209708 0.473147
vt 0.961236 0.730130
vt 0.664323 0.453185
vt 0.654237 0.464106
vt 0.252811 0.081231
vt 0.634719 0.489572
vt 0.329489 0.160667
vt 0.313030 0.209115
vt 0.300174 0.307071
vt 0.307086 0.386389
vt 0.299327 0.471527
vt 0.405436 0.496191
vt 0.244026 0.328384
vt 0.235888 0.235925
vt 0.300011 0.263170
vt 0.271304 0.397638
vt 0.309782 0.440697
vt 0.984210 0.936008
vt 0.249756 0.184425
vt 0.915568 0.800053
vt 0.951380 0.807861
vt 0.103294 0.197326
vt 0.073525 0.239669
vt 0.034719 0.218688
vt 0.097344 0.178366
vt 0.964882 0.775823
vt 0.573515 0.440798
vt 0.484656 0.418170
vt 0.484537 0.438063
vt 0.506891 0.411304
vt 0.720259 0.359530
vt 0.763213 0.332879
vt 0.760599 0.368101
vt 0.807717 0.347306
vt 0.764493 0.402562
vt 0.720669 0.385702
vt 0.720669 0.385702
vt 0.720259 0.359530
vt 0.760599 0.368101
vt 0.544414 0.735545
vt 0.331286 0.643327
vt 0.428621 0.628609
vt 0.426098 0.669181
vt 0.333549 0.668550
vt 0.332944 0.605722
vt 0.413207 0.593325
vt 0.426854 0.668408
vt 0.420259 0.611567
vt 0.330201 0.625709
vt 0.334554 0.671991
vt 0.522037 0.585951
vt 0.521984 0.584513
vt 0.045485 0.640825
vt 0.041741 0.707267
vt 0.036324 0.698651
vt 0.121161 0.470134
vt 0.110854 0.443000
vt 0.167012 0.586603
vt 0.107676 0.593924
vt 0.036324 0.698651
vt 0.041741 0.707267
vt 0.034545 0.714723
vt 0.029743 0.704982
vt 0.054780 0.390018
vt 0.034545 0.714723
vt 0.945645 0.396042
vt 0.989538 0.441085
vt 0.945600 0.463931
vt 0.891017 0.139469
vt 0.128195 0.488619
vt 0.125968 0.531423
vt 0.149241 0.552783
vt 0.831464 0.186878
vt 0.641620 0.617710
vt 0.531508 0.631337
vt 0.729373 0.260420
vt 0.623516 0.307523
vt 0.031858 0.138049
vt 0.087172 0.120291
vt 0.209613 0.876238
vt 0.132022 0.888900
vt 0.277033 0.160071
vt 0.027426 0.263298
vt 0.958564 0.792365
vt 0.391007 0.753024
vt 0.050895 0.896169
vt 0.033547 0.942459
vt 0.027040 0.854914
vt 0.419559 0.063931
vt 0.354559 0.063931
vt 0.370809 0.096431
vt 0.403309 0.096431
vt 0.419559 0.063931
vt 0.354559 0.063931
vt 0.370809 0.096431
vt 0.403309 0.096431
vt 0.387059 0.128931
vt 0.387059 0.128931
vt 0.354605 0.056253
vt 0.370809 0.096431
vt 0.403309 0.096431
vt 0.417910 0.053654
vt 0.354559 0.063931
vt 0.370809 0.096431
vt 0.403309 0.096431
vt 0.415705 0.052423
vt 0.387059 0.128931
vt 0.387059 0.128931
vt 0.354559 0.063931
vt 0.370809 0.096431
vt 0.403309 0.096431
vt 0.406516 0.036022
vt 0.436555 0.048895
vt 0.354707 0.044829
vt 0.370809 0.096431
vt 0.403309 0.096431
vt 0.430710 0.044576
vt 0.354585 0.043975
vt 0.370809 0.096431
vt 0.403309 0.096431
vt 0.354560 0.043973
vt 0.370809 0.096431
vt 0.403309 0.096431
vt 0.419559 0.063931
vt 0.387059 0.128931
vt 0.387059 0.128931
vt 0.387059 0.128931
vt 0.387059 0.128931
vt 0.354559 0.063931
vt 0.370809 0.096431
vt 0.403309 0.096431
vt 0.419559 0.063931
vt 0.419559 0.063931
vt 0.354559 0.063931
vt 0.370809 0.096431
vt 0.403309 0.096431
vt 0.419559 0.063931
vt 0.354559 0.063931
vt 0.370809 0.096431
vt 0.403309 0.096431
vt 0.354559 0.063931
vt 0.370809 0.096431
vt 0.403309 0.096431
vt 0.419559 0.063931
vt 0.387059 0.128931
vt 0.387059 0.128931
vt 0.387059 0.128931
vt 0.387059 0.128931
vt 0.360628 0.054018
vt 0.387059 0.107265
vt 0.424343 0.052355
vt 0.368048 0.054061
vt 0.387059 0.107265
vt 0.426934 0.054047
vt 0.357456 0.057406
vt 0.393505 0.107364
vt 0.417936 0.054489
vt 0.354559 0.063931
vt 0.395642 0.106462
vt 0.416024 0.053527
vt 0.041741 0.707267
vn 0.77123 -0.59843 0.21701
vn 0.79800 -0.54813 0.25049
vn 0.98084 0.13786 0.13764
vn 0.87511 0.47475 0.09383
vn 0.63387 0.77324 0.01790
vn 0.91533 0.39960 -0.04996
vn 0.89744 0.44018 0.02916
vn 0.62289 0.77983 0.06227
vn 0.00000 0.32693 -0.94505
vn 0.99491 0.03371 0.09497
vn 0.99884 0.03355 0.03458
vn 0.00000 0.44447 -0.89579
vn 0.00000 -0.98933 -0.14568
vn 0.47864 -0.84034 -0.25442
vn 0.50665 -0.82544 -0.24889
vn 0.00000 -0.98383 -0.17909
vn 0.76483 0.63815 0.08826
vn 0.00000 0.99981 0.01960
vn 0.00000 1.00000 -0.00275
vn 0.61126 0.79117 0.02019
vn 0.66233 -0.31547 -0.67956
vn 0.76014 -0.29435 -0.57927
vn 0.85679 0.06493 -0.51156
vn 0.77998 0.03444 -0.62486
vn 0.93799 0.21380 -0.27287
vn 0.93236 0.23969 -0.27066
vn 0.94933 0.14418 -0.27926
vn 0.83990 0.54252 0.01561
vn 0.94870 0.31543 -0.02165
vn 0.20876 -0.95955 -0.18890
vn 0.15435 -0.98794 -0.01198
vn 0.23735 -0.97142 -0.00292
vn 0.72966 -0.41710 -0.54187
vn 0.84902 -0.46248 0.25549
vn 0.80845 -0.55475 0.19662
vn 0.97649 0.12404 0.17631
vn 0.88560 0.42408 0.18942
vn 0.25640 -0.95486 0.15001
vn 0.47697 -0.84302 0.24863
vn 0.96325 0.17287 -0.20560
vn 0.96571 -0.25001 0.07004
vn 0.98734 0.14650 -0.06085
vn 0.95924 -0.09741 -0.26527
vn -0.58914 -0.80712 -0.03836
vn -0.55062 -0.83158 -0.07277
vn -0.59963 -0.78929 0.13215
vn -0.62123 -0.77448 0.11941
vn 0.58626 0.78129 0.21420
vn 0.65026 0.75874 0.03844
vn 0.61329 0.78285 0.10497
vn 0.56481 0.79316 0.22780
vn 0.68577 0.71437 -0.13928
vn 0.70719 0.68259 -0.18424
vn 0.80188 0.59051 -0.09103
vn 0.77812 0.51466 -0.36008
vn 0.96325 0.17287 -0.20560
vn 0.72966 -0.41710 -0.54187
vn -0.47317 -0.85179 -0.22488
vn -0.45668 -0.88843 0.04624
vn -0.51849 -0.85466 -0.02697
vn -0.47517 -0.85200 -0.21981
vn -0.54729 -0.81972 -0.16891
vn 0.66512 0.74667 0.00961
vn 0.71857 0.68157 -0.13827
vn 0.67011 0.74012 0.05625
vn -0.47642 -0.85929 0.18611
vn -0.31349 -0.94057 0.13058
vn -0.53687 -0.82331 -0.18421
vn -0.57789 -0.81594 -0.01706
vn -0.50990 -0.84032 -0.18403
vn -0.55791 -0.82986 0.00837
vn 0.65750 -0.72676 0.19880
vn 0.34537 -0.93020 0.12428
vn 0.75250 -0.64720 0.12199
vn 0.45952 -0.88729 0.03952
vn 0.46193 -0.86643 0.18952
vn 0.94896 0.21088 -0.23454
vn 0.93817 0.07714 -0.33748
vn -0.00000 0.99449 0.10481
vn 0.00000 0.99925 0.03880
vn 0.56579 0.79428 0.22134
vn -0.60592 -0.77516 0.17887
vn 0.85076 0.51769 0.09055
vn 0.98700 0.07731 0.14092
vn 0.95483 -0.19682 0.22264
vn 0.89701 -0.39321 0.20190
vn 0.93245 0.03950 -0.35913
vn 0.93903 -0.08806 -0.33235
vn 0.88373 -0.27294 -0.38017
vn 0.76993 -0.40152 -0.49597
vn 0.47596 -0.55419 -0.68288
vn 0.57894 -0.63100 -0.51640
vn 0.73637 -0.53580 -0.41313
vn 0.81615 -0.46027 -0.34936
vn 0.85006 -0.39619 -0.34703
vn 0.94807 -0.04313 -0.31512
vn 0.94150 -0.17116 -0.29030
vn 0.94807 -0.04313 -0.31512
vn 0.93847 0.08565 -0.33457
vn 0.92144 -0.00805 -0.38845
vn 0.92194 0.01503 -0.38705
vn 0.59705 0.74083 -0.30774
vn 0.56570 0.75242 -0.33742
vn 0.73271 0.55957 -0.38733
vn 0.70018 0.67494 -0.23281
vn 0.85394 0.45273 -0.25656
vn 0.99824 0.05395 -0.02445
vn 0.00000 -0.19928 0.97994
vn -0.00000 0.98007 0.19865
vn -0.00000 0.97119 0.23831
vn 0.69598 0.70892 0.11425
vn 0.93057 0.10478 -0.35081
vn 0.65986 0.74951 0.05305
vn 0.84058 0.53891 0.05480
vn 0.96327 0.26853 0.00178
vn 0.97976 -0.17393 0.09906
vn 0.61904 0.75457 0.21776
vn 0.82806 0.55214 0.09720
vn 0.96571 -0.25001 0.07004
vn 0.76477 0.49614 0.41106
vn 0.84998 0.07502 0.52144
vn 0.76477 0.49614 0.41106
vn 0.52906 0.81963 0.21978
vn -0.00000 -0.71277 -0.70139
vn 0.99861 -0.02832 0.04451
vn 0.99778 -0.05373 0.03943
vn 0.00000 -0.50827 -0.86120
vn 0.95967 -0.28108 0.00436
vn 0.93106 0.07563 0.35694
vn 0.99434 0.09473 -0.04807
vn 0.99949 0.03124 -0.00634
vn 0.00000 0.63219 -0.77481
vn 0.00000 0.66814 -0.74404
vn 0.99780 0.06520 0.01163
vn 0.99978 -0.00479 0.02049
vn 0.00000 0.41850 0.90822
vn 0.00000 0.07106 0.99747
vn 0.99908 0.03315 0.02735
vn 0.00000 0.48592 -0.87400
vn 0.99961 -0.02684 0.00781
vn -0.00000 -0.93148 -0.36378
vn 0.00000 -0.93509 0.35442
vn 0.00000 0.60663 -0.79498
vn 0.00000 -0.79297 -0.60927
vn 0.42766 -0.84245 -0.32770
vn -0.00000 -0.97250 -0.23291
vn 0.00000 -0.98125 -0.19275
vn 0.55430 -0.11224 -0.82471
vn 0.63469 0.24820 -0.73183
vn 0.43827 -0.84889 -0.29549
vn -0.00000 -0.84159 -0.54012
vn 0.00000 -0.96724 -0.25387
vn 0.59915 0.65967 -0.45372
vn -0.00000 0.64967 -0.76022
vn 0.00000 0.18332 -0.98305
vn 0.95353 0.13432 -0.26970
vn 0.98081 0.16665 -0.10119
vn 0.90615 0.38374 -0.17788
vn 0.77385 0.61176 -0.16404
vn 0.58043 0.79043 -0.19575
vn 0.00000 0.98321 -0.18247
vn -0.00000 0.96080 -0.27726
vn 0.66305 0.70950 -0.23870
vn 0.88415 0.46720 0.00105
vn 0.95159 0.29689 -0.07957
vn 0.96704 0.24085 0.08263
vn 0.72936 0.68111 -0.06428
vn 0.58043 0.79043 -0.19575
vn 0.48712 0.87315 -0.01814
vn 0.98147 0.17611 0.07545
vn 0.97022 0.24087 -0.02568
vn 0.96243 0.26540 -0.05741
vn 0.90555 -0.25416 -0.33968
vn 0.71906 -0.62463 -0.30462
vn 0.81091 -0.53575 -0.23535
vn 0.91918 -0.34863 -0.18322
vn 0.81091 -0.53575 -0.23535
vn 0.77001 0.51135 -0.38158
vn 0.88101 0.46503 -0.08705
vn 0.80516 0.59181 -0.03854
vn 0.00000 0.93498 -0.35470
vn 0.90081 0.36280 -0.23857
vn 0.80516 0.59181 -0.03854
vn 0.85969 0.48518 -0.15981
vn 0.88101 0.46503 -0.08705
vn 0.90081 0.36280 -0.23857
vn 0.73271 0.55957 -0.38733
vn 0.70018 0.67494 -0.23281
vn 0.70750 0.70590 -0.03397
vn 0.70750 0.70590 -0.03397
vn 0.70750 0.70590 -0.03397
vn 0.30752 -0.93565 0.17316
vn 0.75029 0.64533 0.14357
vn 0.71806 0.48996 -0.49430
vn 0.89733 0.41947 -0.13726
vn 0.61683 0.60643 0.50176
vn 0.27909 0.61050 0.74122
vn 0.32182 0.70355 0.63360
vn -0.68553 -0.68792 -0.23834
vn -0.64501 -0.71979 -0.25666
vn -0.64217 -0.73182 -0.22816
vn -0.70513 -0.67113 -0.22886
vn 0.74136 0.53430 0.40608
vn -0.76417 -0.59208 -0.25588
vn -0.19735 0.97990 0.02911
vn 0.07339 0.99730 0.00380
vn -0.16646 0.98080 -0.10159
vn -0.00000 0.99981 -0.01968
vn -0.49088 -0.83452 -0.25025
vn -0.42564 -0.88004 -0.21063
vn 0.00000 -0.95332 -0.30197
vn -0.29327 0.95434 0.05681
vn -0.34766 0.93540 0.06445
vn -0.64049 0.28902 -0.71151
vn -0.52201 0.48691 -0.70030
vn -0.64049 0.28902 -0.71151
vn -0.72481 0.07571 -0.68478
vn -0.29700 -0.93864 -0.17535
vn 0.00000 -0.98592 -0.16720
vn 0.00000 0.95561 -0.29464
vn -0.60480 -0.17493 -0.77693
vn 0.00000 -0.58021 -0.81447
vn 0.00000 -0.21966 -0.97558
vn 0.93106 0.07563 0.35694
vn 0.96364 0.26361 0.04360
vn 0.99434 0.09473 -0.04807
vn 0.00000 0.81920 0.57351
vn -0.00000 -0.98022 -0.19793
vn -0.00000 -0.71594 -0.69816
vn 0.99900 -0.02791 0.03503
vn -0.47620 -0.77102 -0.42279
vn -0.00000 0.93733 -0.34844
vn -0.45544 -0.73813 -0.49773
vn -0.30517 -0.80729 -0.50512
vn -0.00000 -0.36815 0.92977
vn -0.00000 -0.33448 0.94240
vn 0.99949 -0.02065 -0.02420
vn 0.00000 0.36678 0.93031
vn 0.00000 0.62441 0.78110
vn 0.00000 -0.02740 0.99962
vn 0.00000 0.38869 0.92137
vn -0.00000 -0.30689 0.95174
vn 0.99693 0.07269 -0.02902
vn 0.00000 -0.51316 0.85829
vn 0.99843 0.04030 0.03889
vn 0.99912 -0.03948 0.01384
vn 0.00000 -0.77502 -0.63194
vn 0.99850 -0.03900 0.03847
vn -0.00000 0.82353 -0.56727
vn 0.00000 0.38568 0.92263
vn 0.35562 -0.90473 -0.23452
vn 0.42766 -0.84245 -0.32770
vn 0.96790 -0.23300 0.09423
vn 0.00000 -0.98352 0.18081
vn -0.00000 -0.99504 0.09948
vn 0.99912 0.01525 0.03897
vn 0.99473 0.08894 -0.05108
vn 0.99552 0.02535 -0.09104
vn 0.99552 0.02535 -0.09104
vn 0.00000 -0.99941 0.03431
vn 0.00000 -0.97859 -0.20582
vn -0.00000 -0.97250 -0.23291
vn 0.00000 0.22827 0.97360
vn 0.00000 0.02600 0.99966
vn 0.54772 -0.80881 0.21405
vn 0.00000 -0.98620 0.16556
vn 0.00000 0.99782 0.06594
vn 0.00000 0.98456 0.17507
vn -0.00000 -0.99648 0.08379
vn -0.00000 -0.99062 0.13663
vn -0.00000 -0.99145 0.13047
vn 0.00000 0.99720 0.07480
vn -0.00000 0.99994 -0.01118
vn 0.00000 0.05286 0.99860
vn -0.00000 -0.06980 0.99756
vn -0.00000 -0.98022 -0.19793
vn 0.99434 0.09473 -0.04807
vn 0.00000 0.90098 -0.43387
vn 0.96364 0.26361 0.04360
vn -0.00000 -0.60636 -0.79519
vn 0.00000 0.90098 -0.43387
vn 0.00000 0.38869 0.92137
vn 0.95967 -0.28108 0.00436
vn 0.00000 0.99977 -0.02148
vn 0.00000 0.99950 -0.03175
vn 0.00000 0.90523 -0.42493
vn -0.00000 -0.61862 -0.78569
vn 0.00000 0.10719 -0.99424
vn 0.00000 0.99672 0.08098
vn 0.75900 -0.34480 0.55229
vn 0.77584 -0.30057 0.55474
vn 0.76927 -0.31550 0.55559
vn 0.75554 -0.34508 0.55684
vn 0.87676 0.11779 -0.46629
vn 0.89644 0.02503 -0.44247
vn 0.88644 0.05541 -0.45952
vn 0.86306 0.11569 -0.49167
vn 0.78756 -0.25597 0.56056
vn 0.89506 -0.06997 -0.44043
vn 0.38989 0.56388 0.72802
vn 0.37483 0.56384 0.73592
vn 0.40410 0.51506 0.75592
vn 0.41824 0.48987 0.76492
vn 0.88478 -0.20196 -0.41998
vn 0.87219 -0.20723 -0.44311
vn 0.89234 -0.15200 -0.42501
vn 0.90117 -0.12409 -0.41533
vn 0.42843 0.41223 0.80406
vn 0.90054 -0.05093 -0.43177
vn 0.66339 0.49947 0.55718
vn 0.54154 0.51826 0.66192
vn 0.71254 0.41864 0.56305
vn 0.78555 0.36068 0.50280
vn -0.90015 0.29404 0.32136
vn -0.90936 0.25437 0.32919
vn -0.90476 0.26897 0.33026
vn -0.89492 0.29796 0.33217
vn -0.80924 -0.25731 -0.52813
vn -0.82514 -0.15103 -0.54437
vn -0.81429 -0.18908 -0.54880
vn -0.78888 -0.26385 -0.55502
vn 0.92407 -0.16057 -0.34687
vn 0.91778 -0.16461 -0.36136
vn 0.92501 -0.11552 -0.36195
vn 0.92778 -0.09080 -0.36191
vn 0.79069 0.24801 0.55973
vn -0.91199 0.21825 0.34733
vn -0.81189 -0.04981 -0.58169
vn 0.92063 -0.02464 -0.38965
vn -0.65958 -0.34062 0.67002
vn -0.63333 -0.34599 0.69224
vn -0.66966 -0.30556 0.67690
vn -0.68705 -0.28496 0.66841
vn 0.79677 -0.54266 0.26583
vn 0.83756 -0.48228 0.25671
vn 0.82095 -0.50350 0.26930
vn 0.78565 -0.54452 0.29369
vn 0.70243 0.10894 -0.70337
vn 0.72276 0.05003 -0.68929
vn 0.70722 0.07070 -0.70345
vn 0.67437 0.11179 -0.72988
vn -0.91103 0.30086 -0.28197
vn -0.90148 0.30024 -0.31176
vn -0.92387 0.26000 -0.28084
vn -0.93401 0.23954 -0.26503
vn -0.68702 -0.23422 0.68785
vn 0.86404 -0.42200 0.27450
vn 0.71366 -0.00603 -0.70047
vn -0.94444 0.17689 -0.27703
vn 0.27584 -0.24122 0.93044
vn 0.27584 -0.24122 0.93044
vn 0.27584 -0.24122 0.93044
vn 0.82441 0.01709 -0.56574
vn 0.82441 0.01709 -0.56574
vn 0.82441 0.01709 -0.56574
vn 0.35444 0.55939 0.74930
vn 0.35444 0.55939 0.74930
vn 0.35444 0.55939 0.74930
vn 0.86892 -0.18481 -0.45916
vn 0.86892 -0.18481 -0.45916
vn 0.86892 -0.18481 -0.45916
vn -0.62874 0.17102 -0.75858
vn 0.00000 -0.93582 0.35247
vn -0.00000 -0.93915 0.34351
vn -0.77123 -0.59843 0.21701
vn -0.87511 0.47475 0.09383
vn -0.98084 0.13786 0.13764
vn -0.79800 -0.54813 0.25049
vn -0.63387 0.77324 0.01790
vn -0.62289 0.77983 0.06227
vn -0.89744 0.44018 0.02916
vn -0.91533 0.39960 -0.04996
vn -0.99884 0.03355 0.03458
vn -0.99491 0.03371 0.09497
vn -0.50665 -0.82544 -0.24889
vn -0.47864 -0.84034 -0.25442
vn -0.76483 0.63815 0.08826
vn -0.61126 0.79117 0.02019
vn -0.66233 -0.31547 -0.67956
vn -0.77998 0.03444 -0.62486
vn -0.85679 0.06493 -0.51156
vn -0.76014 -0.29435 -0.57927
vn -0.93799 0.21380 -0.27287
vn -0.94933 0.14418 -0.27926
vn -0.93236 0.23969 -0.27066
vn -0.83990 0.54252 0.01561
vn -0.94870 0.31543 -0.02165
vn -0.20876 -0.95955 -0.18890
vn -0.72966 -0.41710 -0.54187
vn -0.23735 -0.97142 -0.00292
vn -0.15435 -0.98794 -0.01198
vn -0.84902 -0.46248 0.25549
vn -0.88560 0.42408 0.18942
vn -0.97649 0.12404 0.17631
vn -0.80845 -0.55475 0.19662
vn -0.47697 -0.84302 0.24863
vn -0.25640 -0.95486 0.15001
vn -0.96325 0.17287 -0.20560
vn -0.95924 -0.09741 -0.26527
vn -0.98734 0.14650 -0.06085
vn -0.96571 -0.25001 0.07004
vn 0.58914 -0.80712 -0.03836
vn 0.62123 -0.77448 0.11941
vn 0.59963 -0.78929 0.13215
vn 0.55062 -0.83158 -0.07277
vn -0.58626 0.78129 0.21420
vn -0.56481 0.79316 0.22780
vn -0.61329 0.78285 0.10497
vn -0.65026 0.75874 0.03844
vn -0.68577 0.71437 -0.13928
vn -0.70719 0.68259 -0.18424
vn -0.77812 0.51465 -0.36008
vn -0.80188 0.59051 -0.09104
vn -0.72966 -0.41710 -0.54187
vn -0.96325 0.17287 -0.20560
vn 0.47317 -0.85179 -0.22488
vn 0.47517 -0.85200 -0.21981
vn 0.51849 -0.85466 -0.02697
vn 0.45668 -0.88843 0.04624
vn 0.54729 -0.81972 -0.16891
vn -0.66512 0.74667 0.00961
vn -0.67011 0.74012 0.05625
vn -0.71857 0.68157 -0.13827
vn 0.47642 -0.85929 0.18611
vn 0.31349 -0.94057 0.13058
vn 0.53687 -0.82331 -0.18421
vn 0.50990 -0.84032 -0.18403
vn 0.57789 -0.81593 -0.01706
vn 0.55791 -0.82986 0.00837
vn -0.65750 -0.72676 0.19880
vn -0.75250 -0.64720 0.12199
vn -0.34538 -0.93020 0.12428
vn -0.45952 -0.88729 0.03952
vn -0.46193 -0.86643 0.18952
vn -0.94896 0.21088 -0.23454
vn -0.93817 0.07714 -0.33748
vn -0.56579 0.79428 0.22134
vn 0.60592 -0.77516 0.17887
vn -0.85076 0.51769 0.09055
vn -0.95483 -0.19682 0.22264
vn -0.98700 0.07731 0.14092
vn -0.89701 -0.39321 0.20190
vn -0.93245 0.03951 -0.35913
vn -0.88373 -0.27294 -0.38017
vn -0.93903 -0.08806 -0.33235
vn -0.76993 -0.40152 -0.49597
vn -0.73637 -0.53580 -0.41314
vn -0.57894 -0.63100 -0.51640
vn -0.47596 -0.55419 -0.68288
vn -0.81615 -0.46027 -0.34936
vn -0.85006 -0.39619 -0.34703
vn -0.94807 -0.04312 -0.31512
vn -0.93847 0.08565 -0.33456
vn -0.94807 -0.04312 -0.31512
vn -0.94150 -0.17116 -0.29030
vn -0.92144 -0.00805 -0.38845
vn -0.92194 0.01503 -0.38705
vn -0.59705 0.74083 -0.30774
vn -0.70018 0.67494 -0.23281
vn -0.73271 0.55957 -0.38733
vn -0.56570 0.75242 -0.33742
vn -0.85394 0.45273 -0.25656
vn -0.99824 0.05395 -0.02445
vn -0.69598 0.70892 0.11425
vn -0.93057 0.10479 -0.35080
vn -0.84058 0.53891 0.05480
vn -0.65986 0.74951 0.05305
vn -0.96327 0.26853 0.00178
vn -0.97976 -0.17393 0.09906
vn -0.61904 0.75457 0.21776
vn -0.82806 0.55214 0.09720
vn -0.96571 -0.25001 0.07004
vn -0.76477 0.49614 0.41106
vn -0.52906 0.81963 0.21978
vn -0.76477 0.49614 0.41106
vn -0.84998 0.07502 0.52144
vn -0.99778 -0.05373 0.03943
vn -0.99861 -0.02832 0.04451
vn -0.95967 -0.28108 0.00436
vn -0.99434 0.09473 -0.04807
vn -0.93106 0.07563 0.35694
vn -0.99949 0.03124 -0.00634
vn -0.99780 0.06520 0.01163
vn -0.99978 -0.00479 0.02049
vn -0.99908 0.03315 0.02735
vn -0.99961 -0.02684 0.00781
vn -0.42766 -0.84245 -0.32770
vn -0.55430 -0.11224 -0.82471
vn -0.63469 0.24819 -0.73183
vn -0.43827 -0.84889 -0.29549
vn -0.59915 0.65967 -0.45372
vn -0.95353 0.13432 -0.26970
vn -0.98081 0.16665 -0.10119
vn -0.90615 0.38374 -0.17788
vn -0.77385 0.61176 -0.16404
vn -0.58043 0.79043 -0.19575
vn -0.66305 0.70950 -0.23870
vn -0.88415 0.46720 0.00105
vn -0.96704 0.24085 0.08263
vn -0.95159 0.29689 -0.07957
vn -0.72936 0.68111 -0.06428
vn -0.58043 0.79043 -0.19575
vn -0.48712 0.87315 -0.01814
vn -0.98147 0.17611 0.07545
vn -0.96243 0.26540 -0.05741
vn -0.97022 0.24087 -0.02568
vn -0.90555 -0.25416 -0.33968
vn -0.91918 -0.34863 -0.18322
vn -0.81091 -0.53575 -0.23535
vn -0.71906 -0.62463 -0.30462
vn -0.81091 -0.53575 -0.23535
vn -0.77001 0.51135 -0.38158
vn -0.88101 0.46503 -0.08705
vn -0.80516 0.59181 -0.03854
vn -0.90081 0.36280 -0.23857
vn -0.80516 0.59181 -0.03854
vn -0.88101 0.46503 -0.08705
vn -0.85969 0.48518 -0.15981
vn -0.90081 0.36280 -0.23857
vn -0.73271 0.55957 -0.38733
vn -0.70018 0.67494 -0.23281
vn -0.70750 0.70590 -0.03397
vn -0.70750 0.70590 -0.03397
vn -0.70750 0.70590 -0.03397
vn -0.30752 -0.93565 0.17316
vn -0.75029 0.64533 0.14357
vn -0.61683 0.60643 0.50176
vn -0.89733 0.41947 -0.13726
vn -0.71806 0.48996 -0.49430
vn -0.27909 0.61050 0.74122
vn -0.32182 0.70355 0.63360
vn 0.68553 -0.68792 -0.23834
vn 0.70513 -0.67113 -0.22886
vn 0.64217 -0.73182 -0.22816
vn 0.64501 -0.71979 -0.25666
vn -0.74136 0.53430 0.40608
vn 0.76417 -0.59208 -0.25588
vn 0.19735 0.97990 0.02911
vn 0.16646 0.98080 -0.10159
vn -0.07339 0.99730 0.00380
vn 0.49088 -0.83452 -0.25025
vn 0.42564 -0.88004 -0.21063
vn 0.29327 0.95434 0.05681
vn 0.34766 0.93540 0.06445
vn 0.64049 0.28902 -0.71151
vn 0.72480 0.07571 -0.68478
vn 0.64049 0.28902 -0.71151
vn 0.52201 0.48691 -0.70030
vn 0.29700 -0.93864 -0.17535
vn 0.60480 -0.17493 -0.77693
vn -0.93106 0.07563 0.35694
vn -0.99434 0.09473 -0.04807
vn -0.96364 0.26361 0.04360
vn -0.99900 -0.02791 0.03503
vn 0.47620 -0.77102 -0.42279
vn 0.45544 -0.73813 -0.49773
vn 0.30517 -0.80729 -0.50512
vn -0.99949 -0.02065 -0.02420
vn -0.99693 0.07269 -0.02902
vn -0.99843 0.04030 0.03889
vn -0.99912 -0.03948 0.01384
vn -0.99850 -0.03900 0.03847
vn -0.42766 -0.84245 -0.32770
vn -0.35562 -0.90473 -0.23452
vn -0.96790 -0.23300 0.09423
vn -0.99912 0.01525 0.03897
vn -0.99473 0.08894 -0.05108
vn -0.99552 0.02535 -0.09104
vn -0.99552 0.02535 -0.09104
vn -0.54772 -0.80881 0.21405
vn -0.99434 0.09473 -0.04807
vn -0.96364 0.26361 0.04360
vn -0.95967 -0.28108 0.00436
vn -0.75900 -0.34480 0.55229
vn -0.75554 -0.34508 0.55684
vn -0.76927 -0.31550 0.55559
vn -0.77584 -0.30057 0.55474
vn -0.87676 0.11779 -0.46629
vn -0.86306 0.11569 -0.49167
vn -0.88644 0.05541 -0.45952
vn -0.89644 0.02503 -0.44247
vn -0.78756 -0.25597 0.56056
vn -0.89506 -0.06997 -0.44043
vn -0.38989 0.56388 0.72802
vn -0.41824 0.48987 0.76492
vn -0.40410 0.51506 0.75592
vn -0.37483 0.56384 0.73592
vn -0.88478 -0.20196 -0.41998
vn -0.90117 -0.12409 -0.41533
vn -0.89234 -0.15200 -0.42501
vn -0.87219 -0.20723 -0.44311
vn -0.42843 0.41223 0.80406
vn -0.90054 -0.05093 -0.43177
vn -0.66339 0.49947 0.55718
vn -0.78555 0.36068 0.50280
vn -0.71254 0.41864 0.56305
vn -0.54154 0.51826 0.66192
vn 0.90015 0.29404 0.32136
vn 0.89492 0.29796 0.33217
vn 0.90476 0.26897 0.33026
vn 0.90936 0.25437 0.32919
vn 0.80924 -0.25731 -0.52813
vn 0.78888 -0.26385 -0.55502
vn 0.81429 -0.18908 -0.54880
vn 0.82514 -0.15103 -0.54437
vn -0.92407 -0.16057 -0.34687
vn -0.92778 -0.09080 -0.36191
vn -0.92501 -0.11552 -0.36195
vn -0.91778 -0.16461 -0.36136
vn -0.79069 0.24801 0.55973
vn 0.91199 0.21825 0.34733
vn 0.81189 -0.04981 -0.58169
vn -0.92063 -0.02464 -0.38965
vn 0.65958 -0.34062 0.67002
vn 0.68705 -0.28496 0.66841
vn 0.66966 -0.30556 0.67690
vn 0.63333 -0.34599 0.69224
vn -0.79677 -0.54266 0.26583
vn -0.78565 -0.54452 0.29369
vn -0.82095 -0.50350 0.26930
vn -0.83756 -0.48228 0.25671
vn -0.70243 0.10894 -0.70337
vn -0.67437 0.11179 -0.72988
vn -0.70722 0.07070 -0.70345
vn -0.72276 0.05003 -0.68929
vn 0.91103 0.30086 -0.28197
vn 0.93401 0.23954 -0.26503
vn 0.92387 0.26000 -0.28084
vn 0.90148 0.30024 -0.31176
vn 0.68702 -0.23422 0.68785
vn -0.86404 -0.42200 0.27450
vn -0.71366 -0.00603 -0.70047
vn 0.94444 0.17689 -0.27703
vn -0.27584 -0.24122 0.93044
vn -0.27584 -0.24122 0.93044
vn -0.27584 -0.24122 0.93044
vn -0.82441 0.01709 -0.56574
vn -0.82441 0.01709 -0.56574
vn -0.82441 0.01709 -0.56574
vn -0.35444 0.55939 0.74930
vn -0.35444 0.55939 0.74930
vn -0.35444 0.55939 0.74930
vn -0.86892 -0.18481 -0.45916
vn -0.86892 -0.18481 -0.45916
vn -0.86892 -0.18481 -0.45916
vn 0.62874 0.17102 -0.75858
f 350/350/350 351/351/351 352/352/352
f 634/634/634 635/635/635 636/636/636
f 302/302/302 303/303/303 300/300/300
f 300/300/300 301/301/301 302/302/302
f 302/302/302 308/308/308 303/303/303
f 586/586/586 587/587/587 584/584/584
f 584/584/584 585/585/585 586/586/586
f 586/586/586 585/585/585 592/592/592
f 332/332/332 333/333/333 330/330/330
f 330/330/330 331/331/331 332/332/332
f 332/332/332 346/346/346 333/333/333
f 616/616/616 617/617/617 614/614/614
f 614/614/614 615/615/615 616/616/616
f 616/616/616 615/615/615 630/630/630
f 640/640/640 641/641/641 642/642/642
f 356/356/356 357/357/357 358/358/358
f 312/312/312 313/313/313 310/310/310
f 310/310/310 311/311/311 312/312/312
f 312/312/312 326/326/326 313/313/313
f 596/596/596 597/597/597 594/594/594
f 594/594/594 595/595/595 596/596/596
f 596/596/596 595/595/595 610/610/610
f 576/576/576 577/577/577 574/574/574
f 574/574/574 575/575/575 576/576/576
f 577/577/577 576/576/576 582/582/582
f 292/292/292 293/293/293 290/290/290
f 290/290/290 291/291/291 292/292/292
f 291/291/291 298/298/298 292/292/292
f 600/600/600 601/601/601 598/598/598
f 598/598/598 599/599/599 600/600/600
f 601/601/601 600/600/600 611/611/611
f 316/316/316 317/317/317 314/314/314
f 314/314/314 315/315/315 316/316/316
f 315/315/315 327/327/327 316/316/316
f 336/336/336 337/337/337 334/334/334
f 334/334/334 335/335/335 336/336/336
f 335/335/335 347/347/347 336/336/336
f 620/620/620 621/621/621 618/618/618
f 618/618/618 619/619/619 620/620/620
f 621/621/621 620/620/620 631/631/631
f 229/229/229 228/228/228 479/479/479
f 479/479/479 480/480/480 481/481/481
f 558/558/558 280/280/280 229/229/229
f 229/229/229 280/280/280 237/237/237
f 246/246/246 237/237/237 280/280/280
f 238/238/238 237/237/237 246/246/246
f 561/561/561 558/558/558 238/238/238
f 238/238/238 250/250/250 561/561/561
f 246/246/246 250/250/250 238/238/238
f 280/280/280 558/558/558 561/561/561
f 561/561/561 247/247/247 280/280/280
f 280/280/280 247/247/247 246/246/246
f 248/248/248 250/250/250 246/246/246
f 246/246/246 247/247/247 248/248/248
f 562/562/562 561/561/561 250/250/250
f 561/561/561 562/562/562 247/247/247
f 532/532/532 537/537/537 533/533/533
f 534/534/534 535/535/535 532/532/532
f 532/532/532 533/533/533 534/534/534
f 199/199/199 202/202/202 204/204/204
f 201/201/201 202/202/202 199/199/199
f 199/199/199 200/200/200 201/201/201
f 244/244/244 243/243/243 131/131/131
f 131/131/131 236/236/236 244/244/244
f 132/132/132 131/131/131 243/243/243
f 235/235/235 236/236/236 131/131/131
f 131/131/131 134/134/134 235/235/235
f 133/133/133 134/134/134 131/131/131
f 131/131/131 132/132/132 133/133/133
f 244/244/244 236/236/236 482/482/482
f 482/482/482 559/559/559 244/244/244
f 559/559/559 560/560/560 244/244/244
f 243/243/243 244/244/244 245/245/245
f 245/245/245 249/249/249 243/243/243
f 243/243/243 249/249/249 132/132/132
f 560/560/560 559/559/559 249/249/249
f 132/132/132 249/249/249 559/559/559
f 559/559/559 482/482/482 132/132/132
f 133/133/133 132/132/132 482/482/482
f 235/235/235 483/483/483 482/482/482
f 213/213/213 205/205/205 208/208/208
f 207/207/207 208/208/208 205/205/205
f 205/205/205 206/206/206 207/207/207
f 212/212/212 213/213/213 208/208/208
f 208/208/208 289/289/289 212/212/212
f 208/208/208 543/543/543 289/289/289
f 539/539/539 208/208/208 220/220/220
f 544/544/544 208/208/208 538/538/538
f 543/543/543 208/208/208 544/544/544
f 538/538/538 208/208/208 539/539/539
f 207/207/207 220/220/220 208/208/208
f 539/539/539 540/540/540 538/538/538
f 475/475/475 476/476/476 473/473/473
f 473/473/473 474/474/474 475/475/475
f 122/122/122 123/123/123 120/120/120
f 120/120/120 121/121/121 122/122/122
f 463/463/463 485/485/485 139/139/139
f 138/138/138 275/275/275 108/108/108
f 108/108/108 107/107/107 138/138/138
f 139/139/139 138/138/138 107/107/107
f 139/139/139 143/143/143 463/463/463
f 107/107/107 143/143/143 139/139/139
f 109/109/109 463/463/463 143/143/143
f 463/463/463 109/109/109 108/108/108
f 107/107/107 108/108/108 109/109/109
f 109/109/109 143/143/143 107/107/107
f 403/403/403 402/402/402 428/428/428
f 428/428/428 402/402/402 426/426/426
f 402/402/402 405/405/405 420/420/420
f 420/420/420 426/426/426 402/402/402
f 404/404/404 405/405/405 402/402/402
f 402/402/402 403/403/403 404/404/404
f 428/428/428 438/438/438 403/403/403
f 429/429/429 438/438/438 428/428/428
f 427/427/427 429/429/429 428/428/428
f 426/426/426 427/427/427 428/428/428
f 418/418/418 405/405/405 404/404/404
f 404/404/404 424/424/424 418/418/418
f 405/405/405 418/418/418 417/417/417
f 417/417/417 420/420/420 405/405/405
f 419/419/419 418/418/418 424/424/424
f 418/418/418 419/419/419 416/416/416
f 416/416/416 417/417/417 418/418/418
f 424/424/424 425/425/425 419/419/419
f 69/69/69 44/44/44 47/47/47
f 68/68/68 44/44/44 69/69/69
f 44/44/44 68/68/68 62/62/62
f 62/62/62 45/45/45 44/44/44
f 46/46/46 47/47/47 44/44/44
f 44/44/44 45/45/45 46/46/46
f 71/71/71 69/69/69 82/82/82
f 47/47/47 82/82/82 69/69/69
f 70/70/70 69/69/69 71/71/71
f 69/69/69 70/70/70 68/68/68
f 60/60/60 66/66/66 46/46/46
f 46/46/46 45/45/45 60/60/60
f 45/45/45 62/62/62 61/61/61
f 61/61/61 60/60/60 45/45/45
f 66/66/66 60/60/60 59/59/59
f 60/60/60 61/61/61 58/58/58
f 58/58/58 59/59/59 60/60/60
f 59/59/59 67/67/67 66/66/66
f 49/49/49 48/48/48 117/117/117
f 50/50/50 51/51/51 48/48/48
f 48/48/48 49/49/49 50/50/50
f 49/49/49 118/118/118 54/54/54
f 117/117/117 118/118/118 49/49/49
f 53/53/53 49/49/49 54/54/54
f 49/49/49 53/53/53 52/52/52
f 52/52/52 50/50/50 49/49/49
f 81/81/81 51/51/51 50/50/50
f 50/50/50 63/63/63 81/81/81
f 63/63/63 50/50/50 52/52/52
f 52/52/52 64/64/64 63/63/63
f 81/81/81 63/63/63 65/65/65
f 63/63/63 64/64/64 65/65/65
f 54/54/54 55/55/55 53/53/53
f 56/56/56 54/54/54 118/118/118
f 55/55/55 54/54/54 56/56/56
f 118/118/118 119/119/119 56/56/56
f 470/470/470 406/406/406 409/409/409
f 408/408/408 409/409/409 406/406/406
f 406/406/406 407/407/407 408/408/408
f 409/409/409 471/471/471 470/470/470
f 409/409/409 413/413/413 471/471/471
f 413/413/413 409/409/409 411/411/411
f 409/409/409 408/408/408 410/410/410
f 410/410/410 411/411/411 409/409/409
f 437/437/437 421/421/421 408/408/408
f 408/408/408 407/407/407 437/437/437
f 410/410/410 408/408/408 421/421/421
f 421/421/421 423/423/423 410/410/410
f 437/437/437 422/422/422 421/421/421
f 421/421/421 422/422/422 423/423/423
f 411/411/411 412/412/412 413/413/413
f 471/471/471 413/413/413 415/415/415
f 415/415/415 413/413/413 412/412/412
f 415/415/415 472/472/472 471/471/471
f 197/197/197 193/193/193 196/196/196
f 195/195/195 196/196/196 193/193/193
f 193/193/193 194/194/194 195/195/195
f 196/196/196 198/198/198 197/197/197
f 198/198/198 196/196/196 203/203/203
f 196/196/196 195/195/195 203/203/203
f 527/527/527 526/526/526 530/530/530
f 528/528/528 529/529/529 526/526/526
f 526/526/526 527/527/527 528/528/528
f 531/531/531 536/536/536 527/527/527
f 527/527/527 536/536/536 528/528/528
f 530/530/530 531/531/531 527/527/527
f 5/5/5 18/18/18 19/19/19
f 80/80/80 18/18/18 5/5/5
f 5/5/5 8/8/8 80/80/80
f 5/5/5 20/20/20 28/28/28
f 113/113/113 20/20/20 169/169/169
f 114/114/114 28/28/28 20/20/20
f 20/20/20 113/113/113 114/114/114
f 29/29/29 28/28/28 114/114/114
f 114/114/114 115/115/115 29/29/29
f 8/8/8 79/79/79 80/80/80
f 370/370/370 79/79/79 377/377/377
f 377/377/377 79/79/79 272/272/272
f 370/370/370 80/80/80 79/79/79
f 371/371/371 370/370/370 377/377/377
f 272/272/272 439/439/439 377/377/377
f 371/371/371 377/377/377 441/441/441
f 441/441/441 377/377/377 439/439/439
f 272/272/272 273/273/273 366/366/366
f 366/366/366 439/439/439 272/272/272
f 4/4/4 273/273/273 272/272/272
f 440/440/440 439/439/439 366/366/366
f 439/439/439 440/440/440 441/441/441
f 469/469/469 441/441/441 431/431/431
f 431/431/431 441/441/441 440/440/440
f 441/441/441 469/469/469 371/371/371
f 366/366/366 365/365/365 440/440/440
f 440/440/440 442/442/442 431/431/431
f 365/365/365 434/434/434 440/440/440
f 434/434/434 442/442/442 440/440/440
f 366/366/366 273/273/273 464/464/464
f 464/464/464 367/367/367 366/366/366
f 74/74/74 75/75/75 86/86/86
f 73/73/73 74/74/74 72/72/72
f 7/7/7 116/116/116 84/84/84
f 84/84/84 17/17/17 7/7/7
f 83/83/83 17/17/17 84/84/84
f 272/272/272 83/83/83 4/4/4
f 17/17/17 83/83/83 272/272/272
f 8/8/8 17/17/17 79/79/79
f 272/272/272 79/79/79 17/17/17
f 7/7/7 17/17/17 8/8/8
f 7/7/7 6/6/6 42/42/42
f 42/42/42 116/116/116 7/7/7
f 7/7/7 8/8/8 5/5/5
f 5/5/5 6/6/6 7/7/7
f 116/116/116 42/42/42 41/41/41
f 41/41/41 72/72/72 116/116/116
f 172/172/172 43/43/43 42/42/42
f 172/172/172 42/42/42 6/6/6
f 42/42/42 43/43/43 40/40/40
f 40/40/40 41/41/41 42/42/42
f 28/28/28 6/6/6 5/5/5
f 6/6/6 29/29/29 172/172/172
f 28/28/28 29/29/29 6/6/6
f 172/172/172 171/171/171 259/259/259
f 259/259/259 43/43/43 172/172/172
f 172/172/172 29/29/29 115/115/115
f 115/115/115 171/171/171 172/172/172
f 43/43/43 259/259/259 177/177/177
f 145/145/145 33/33/33 43/43/43
f 43/43/43 177/177/177 145/145/145
f 40/40/40 43/43/43 33/33/33
f 145/145/145 30/30/30 33/33/33
f 32/32/32 33/33/33 30/30/30
f 147/147/147 30/30/30 145/145/145
f 145/145/145 146/146/146 147/147/147
f 31/31/31 30/30/30 147/147/147
f 30/30/30 31/31/31 32/32/32
f 38/38/38 39/39/39 32/32/32
f 32/32/32 31/31/31 38/38/38
f 38/38/38 31/31/31 260/260/260
f 147/147/147 260/260/260 31/31/31
f 73/73/73 38/38/38 269/269/269
f 260/260/260 269/269/269 38/38/38
f 38/38/38 72/72/72 39/39/39
f 72/72/72 38/38/38 73/73/73
f 39/39/39 72/72/72 41/41/41
f 432/432/432 270/270/270 269/269/269
f 269/269/269 397/397/397 432/432/432
f 397/397/397 269/269/269 260/260/260
f 269/269/269 270/270/270 73/73/73
f 260/260/260 391/391/391 397/397/397
f 434/434/434 525/525/525 432/432/432
f 432/432/432 431/431/431 434/434/434
f 433/433/433 434/434/434 431/431/431
f 430/430/430 431/431/431 432/432/432
f 431/431/431 430/430/430 469/469/469
f 431/431/431 442/442/442 433/433/433
f 401/401/401 469/469/469 430/430/430
f 396/396/396 401/401/401 430/430/430
f 192/192/192 73/73/73 270/270/270
f 270/270/270 271/271/271 192/192/192
f 469/469/469 401/401/401 400/400/400
f 569/569/569 506/506/506 505/505/505
f 505/505/505 387/387/387 372/372/372
f 505/505/505 506/506/506 468/468/468
f 468/468/468 387/387/387 505/505/505
f 386/386/386 369/369/369 372/372/372
f 386/386/386 372/372/372 387/387/387
f 371/371/371 372/372/372 369/369/369
f 466/466/466 386/386/386 387/387/387
f 387/387/387 468/468/468 466/466/466
f 378/378/378 386/386/386 466/466/466
f 369/369/369 386/386/386 378/378/378
f 369/369/369 18/18/18 80/80/80
f 80/80/80 370/370/370 369/369/369
f 19/19/19 18/18/18 369/369/369
f 369/369/369 378/378/378 19/19/19
f 369/369/369 370/370/370 371/371/371
f 19/19/19 378/378/378 503/503/503
f 467/467/467 503/503/503 378/378/378
f 466/466/466 467/467/467 378/378/378
f 503/503/503 285/285/285 19/19/19
f 169/169/169 20/20/20 19/19/19
f 19/19/19 285/285/285 169/169/169
f 19/19/19 20/20/20 5/5/5
f 76/76/76 192/192/192 1/1/1
f 266/266/266 1/1/1 192/192/192
f 1/1/1 266/266/266 265/265/265
f 265/265/265 2/2/2 1/1/1
f 85/85/85 1/1/1 4/4/4
f 1/1/1 85/85/85 76/76/76
f 3/3/3 4/4/4 1/1/1
f 1/1/1 2/2/2 3/3/3
f 73/73/73 192/192/192 76/76/76
f 76/76/76 74/74/74 73/73/73
f 76/76/76 85/85/85 86/86/86
f 75/75/75 74/74/74 76/76/76
f 4/4/4 83/83/83 85/85/85
f 85/85/85 84/84/84 74/74/74
f 74/74/74 86/86/86 85/85/85
f 84/84/84 85/85/85 83/83/83
f 74/74/74 84/84/84 116/116/116
f 116/116/116 72/72/72 74/74/74
f 189/189/189 190/190/190 191/191/191
f 522/522/522 523/523/523 524/524/524
f 256/256/256 284/284/284 267/267/267
f 565/565/565 395/395/395 394/394/394
f 394/394/394 395/395/395 392/392/392
f 395/395/395 565/565/565 254/254/254
f 255/255/255 254/254/254 565/565/565
f 565/565/565 566/566/566 255/255/255
f 571/571/571 566/566/566 284/284/284
f 276/276/276 255/255/255 566/566/566
f 566/566/566 571/571/571 276/276/276
f 256/256/256 255/255/255 276/276/276
f 255/255/255 256/256/256 253/253/253
f 253/253/253 254/254/254 255/255/255
f 284/284/284 256/256/256 277/277/277
f 276/276/276 277/277/277 256/256/256
f 276/276/276 571/571/571 573/573/573
f 276/276/276 283/283/283 277/277/277
f 284/284/284 278/278/278 571/571/571
f 278/278/278 572/572/572 571/571/571
f 277/277/277 278/278/278 284/284/284
f 278/278/278 277/277/277 279/279/279
f 254/254/254 364/364/364 395/395/395
f 254/254/254 253/253/253 35/35/35
f 35/35/35 364/364/364 254/254/254
f 364/364/364 363/363/363 392/392/392
f 392/392/392 395/395/395 364/364/364
f 364/364/364 35/35/35 34/34/34
f 34/34/34 363/363/363 364/364/364
f 363/363/363 570/570/570 368/368/368
f 368/368/368 392/392/392 363/363/363
f 363/363/363 34/34/34 2/2/2
f 2/2/2 265/265/265 363/363/363
f 392/392/392 368/368/368 367/367/367
f 365/365/365 368/368/368 570/570/570
f 367/367/367 368/368/368 365/365/365
f 570/570/570 266/266/266 365/365/365
f 434/434/434 365/365/365 525/525/525
f 525/525/525 365/365/365 266/266/266
f 266/266/266 271/271/271 525/525/525
f 192/192/192 271/271/271 266/266/266
f 525/525/525 271/271/271 270/270/270
f 270/270/270 432/432/432 525/525/525
f 209/209/209 211/211/211 231/231/231
f 209/209/209 210/210/210 211/211/211
f 556/556/556 211/211/211 555/555/555
f 541/541/541 555/555/555 211/211/211
f 549/549/549 211/211/211 219/219/219
f 542/542/542 211/211/211 549/549/549
f 541/541/541 211/211/211 542/542/542
f 231/231/231 211/211/211 233/233/233
f 218/218/218 219/219/219 211/211/211
f 210/210/210 218/218/218 211/211/211
f 233/233/233 234/234/234 231/231/231
f 555/555/555 557/557/557 556/556/556
f 628/628/628 629/629/629 626/626/626
f 626/626/626 627/627/627 628/628/628
f 628/628/628 627/627/627 633/633/633
f 344/344/344 345/345/345 342/342/342
f 342/342/342 343/343/343 344/344/344
f 344/344/344 349/349/349 345/345/345
f 391/391/391 260/260/260 147/147/147
f 397/397/397 396/396/396 430/430/430
f 432/432/432 397/397/397 430/430/430
f 397/397/397 391/391/391 390/390/390
f 390/390/390 396/396/396 397/397/397
f 147/147/147 388/388/388 391/391/391
f 390/390/390 391/391/391 388/388/388
f 147/147/147 146/146/146 487/487/487
f 487/487/487 388/388/388 147/147/147
f 487/487/487 389/389/389 388/388/388
f 388/388/388 389/389/389 390/390/390
f 487/487/487 511/511/511 399/399/399
f 399/399/399 389/389/389 487/487/487
f 398/398/398 389/389/389 399/399/399
f 505/505/505 400/400/400 399/399/399
f 399/399/399 511/511/511 569/569/569
f 505/505/505 399/399/399 569/569/569
f 398/398/398 399/399/399 400/400/400
f 400/400/400 401/401/401 398/398/398
f 371/371/371 469/469/469 400/400/400
f 400/400/400 372/372/372 371/371/371
f 372/372/372 400/400/400 505/505/505
f 183/183/183 184/184/184 185/185/185
f 187/187/187 184/184/184 188/188/188
f 186/186/186 184/184/184 187/187/187
f 185/185/185 184/184/184 186/186/186
f 516/516/516 517/517/517 518/518/518
f 517/517/517 519/519/519 518/518/518
f 520/520/520 521/521/521 518/518/518
f 519/519/519 520/520/520 518/518/518
f 159/159/159 167/167/167 168/168/168
f 497/497/497 462/462/462 513/513/513
f 513/513/513 514/514/514 497/497/497
f 495/495/495 462/462/462 497/497/497
f 462/462/462 495/495/495 494/494/494
f 494/494/494 385/385/385 462/462/462
f 181/181/181 162/162/162 497/497/497
f 497/497/497 496/496/496 495/495/495
f 496/496/496 497/497/497 162/162/162
f 495/495/495 502/502/502 501/501/501
f 498/498/498 495/495/495 501/501/501
f 498/498/498 494/494/494 495/495/495
f 385/385/385 494/494/494 500/500/500
f 500/500/500 494/494/494 498/498/498
f 498/498/498 499/499/499 500/500/500
f 500/500/500 493/493/493 385/385/385
f 77/77/77 179/179/179 182/182/182
f 182/182/182 101/101/101 77/77/77
f 77/77/77 106/106/106 179/179/179
f 77/77/77 26/26/26 106/106/106
f 77/77/77 101/101/101 100/100/100
f 100/100/100 78/78/78 77/77/77
f 27/27/27 26/26/26 77/77/77
f 77/77/77 78/78/78 27/27/27
f 22/22/22 100/100/100 101/101/101
f 25/25/25 26/26/26 27/27/27
f 26/26/26 25/25/25 156/156/156
f 165/165/165 26/26/26 157/157/157
f 26/26/26 165/165/165 158/158/158
f 106/106/106 26/26/26 158/158/158
f 156/156/156 157/157/157 26/26/26
f 156/156/156 257/257/257 157/157/157
f 166/166/166 165/165/165 157/157/157
f 257/257/257 170/170/170 157/157/157
f 157/157/157 170/170/170 166/166/166
f 165/165/165 166/166/166 164/164/164
f 164/164/164 158/158/158 165/165/165
f 164/164/164 159/159/159 158/158/158
f 158/158/158 159/159/159 106/106/106
f 164/164/164 167/167/167 159/159/159
f 373/373/373 374/374/374 9/9/9
f 9/9/9 12/12/12 373/373/373
f 11/11/11 12/12/12 9/9/9
f 9/9/9 10/10/10 11/11/11
f 275/275/275 264/264/264 373/373/373
f 373/373/373 485/485/485 275/275/275
f 374/374/374 373/373/373 264/264/264
f 485/485/485 373/373/373 12/12/12
f 264/264/264 263/263/263 374/374/374
f 11/11/11 264/264/264 275/275/275
f 264/264/264 11/11/11 10/10/10
f 10/10/10 263/263/263 264/264/264
f 275/275/275 138/138/138 11/11/11
f 12/12/12 11/11/11 138/138/138
f 12/12/12 139/139/139 485/485/485
f 138/138/138 139/139/139 12/12/12
f 108/108/108 275/275/275 485/485/485
f 485/485/485 463/463/463 108/108/108
f 261/261/261 13/13/13 376/376/376
f 375/375/375 376/376/376 13/13/13
f 13/13/13 16/16/16 375/375/375
f 14/14/14 13/13/13 261/261/261
f 15/15/15 16/16/16 13/13/13
f 13/13/13 14/14/14 15/15/15
f 376/376/376 564/564/564 261/261/261
f 262/262/262 261/261/261 564/564/564
f 261/261/261 251/251/251 14/14/14
f 251/251/251 261/261/261 262/262/262
f 94/94/94 15/15/15 14/14/14
f 14/14/14 89/89/89 94/94/94
f 14/14/14 174/174/174 89/89/89
f 174/174/174 14/14/14 251/251/251
f 16/16/16 15/15/15 150/150/150
f 15/15/15 94/94/94 93/93/93
f 93/93/93 150/150/150 15/15/15
f 88/88/88 95/95/95 94/94/94
f 365/365/365 366/366/366 367/367/367
f 111/111/111 273/273/273 4/4/4
f 4/4/4 3/3/3 111/111/111
f 111/111/111 3/3/3 37/37/37
f 37/37/37 110/110/110 111/111/111
f 3/3/3 2/2/2 34/34/34
f 34/34/34 37/37/37 3/3/3
f 37/37/37 36/36/36 268/268/268
f 268/268/268 110/110/110 37/37/37
f 36/36/36 37/37/37 34/34/34
f 393/393/393 110/110/110 268/268/268
f 464/464/464 110/110/110 393/393/393
f 393/393/393 367/367/367 464/464/464
f 268/268/268 394/394/394 393/393/393
f 367/367/367 393/393/393 392/392/392
f 392/392/392 393/393/393 394/394/394
f 394/394/394 268/268/268 267/267/267
f 267/267/267 268/268/268 36/36/36
f 253/253/253 36/36/36 35/35/35
f 36/36/36 253/253/253 267/267/267
f 34/34/34 35/35/35 36/36/36
f 267/267/267 284/284/284 566/566/566
f 566/566/566 565/565/565 267/267/267
f 267/267/267 565/565/565 394/394/394
f 267/267/267 253/253/253 256/256/256
f 56/56/56 57/57/57 55/55/55
f 412/412/412 414/414/414 415/415/415
f 499/499/499 493/493/493 500/500/500
f 385/385/385 492/492/492 383/383/383
f 492/492/492 385/385/385 493/493/493
f 383/383/383 384/384/384 385/385/385
f 492/492/492 493/493/493 567/567/567
f 567/567/567 493/493/493 504/504/504
f 493/493/493 499/499/499 504/504/504
f 162/162/162 161/161/161 496/496/496
f 163/163/163 162/162/162 181/181/181
f 162/162/162 163/163/163 160/160/160
f 160/160/160 161/161/161 162/162/162
f 181/181/181 102/102/102 163/163/163
f 180/180/180 163/163/163 102/102/102
f 163/163/163 180/180/180 179/179/179
f 179/179/179 106/106/106 163/163/163
f 159/159/159 160/160/160 163/163/163
f 163/163/163 106/106/106 159/159/159
f 102/102/102 105/105/105 180/180/180
f 104/104/104 105/105/105 102/102/102
f 23/23/23 182/182/182 104/104/104
f 23/23/23 101/101/101 182/182/182
f 101/101/101 23/23/23 22/22/22
f 454/454/454 455/455/455 452/452/452
f 452/452/452 453/453/453 454/454/454
f 98/98/98 99/99/99 96/96/96
f 96/96/96 97/97/97 98/98/98
f 324/324/324 325/325/325 322/322/322
f 322/322/322 323/323/323 324/324/324
f 324/324/324 329/329/329 325/325/325
f 608/608/608 609/609/609 606/606/606
f 606/606/606 607/607/607 608/608/608
f 608/608/608 607/607/607 613/613/613
f 87/87/87 112/112/112 88/88/88
f 216/216/216 217/217/217 214/214/214
f 214/214/214 215/215/215 216/216/216
f 547/547/547 548/548/548 545/545/545
f 545/545/545 546/546/546 547/547/547
f 306/306/306 307/307/307 304/304/304
f 304/304/304 305/305/305 306/306/306
f 306/306/306 309/309/309 307/307/307
f 590/590/590 591/591/591 588/588/588
f 588/588/588 589/589/589 590/590/590
f 590/590/590 589/589/589 593/593/593
f 580/580/580 581/581/581 578/578/578
f 578/578/578 579/579/579 580/580/580
f 581/581/581 580/580/580 583/583/583
f 296/296/296 297/297/297 294/294/294
f 294/294/294 295/295/295 296/296/296
f 295/295/295 299/299/299 296/296/296
f 232/232/232 153/153/153 103/103/103
f 104/104/104 178/178/178 23/23/23
f 103/103/103 178/178/178 104/104/104
f 286/286/286 232/232/232 103/103/103
f 286/286/286 103/103/103 102/102/102
f 102/102/102 103/103/103 104/104/104
f 286/286/286 461/461/461 232/232/232
f 232/232/232 461/461/461 491/491/491
f 491/491/491 461/461/461 512/512/512
f 489/489/489 491/491/491 512/512/512
f 458/458/458 461/461/461 286/286/286
f 461/461/461 460/460/460 512/512/512
f 460/460/460 461/461/461 458/458/458
f 286/286/286 181/181/181 458/458/458
f 102/102/102 181/181/181 286/286/286
f 497/497/497 458/458/458 181/181/181
f 458/458/458 497/497/497 514/514/514
f 514/514/514 459/459/459 458/458/458
f 458/458/458 459/459/459 460/460/460
f 381/381/381 512/512/512 460/460/460
f 460/460/460 515/515/515 381/381/381
f 512/512/512 380/380/380 489/489/489
f 512/512/512 381/381/381 380/380/380
f 381/381/381 515/515/515 457/457/457
f 382/382/382 381/381/381 457/457/457
f 381/381/381 382/382/382 379/379/379
f 379/379/379 380/380/380 381/381/381
f 435/435/435 457/457/457 515/515/515
f 515/515/515 513/513/513 435/435/435
f 457/457/457 456/456/456 382/382/382
f 456/456/456 457/457/457 435/435/435
f 435/435/435 513/513/513 462/462/462
f 435/435/435 462/462/462 385/385/385
f 435/435/435 436/436/436 456/456/456
f 384/384/384 435/435/435 385/385/385
f 435/435/435 384/384/384 436/436/436
f 359/359/359 360/360/360 361/361/361
f 643/643/643 644/644/644 645/645/645
f 94/94/94 89/89/89 88/88/88
f 90/90/90 93/93/93 94/94/94
f 94/94/94 95/95/95 90/90/90
f 89/89/89 174/174/174 173/173/173
f 87/87/87 89/89/89 173/173/173
f 87/87/87 88/88/88 89/89/89
f 175/175/175 174/174/174 251/251/251
f 173/173/173 174/174/174 175/175/175
f 175/175/175 176/176/176 173/173/173
f 258/258/258 176/176/176 175/175/175
f 251/251/251 252/252/252 175/175/175
f 262/262/262 252/252/252 251/251/251
f 564/564/564 563/563/563 262/262/262
f 510/510/510 564/564/564 376/376/376
f 564/564/564 510/510/510 509/509/509
f 509/509/509 563/563/563 564/564/564
f 376/376/376 444/444/444 510/510/510
f 444/444/444 507/507/507 510/510/510
f 509/509/509 510/510/510 507/507/507
f 450/450/450 444/444/444 376/376/376
f 376/376/376 375/375/375 450/450/450
f 445/445/445 444/444/444 450/450/450
f 443/443/443 507/507/507 444/444/444
f 443/443/443 444/444/444 445/445/445
f 507/507/507 508/508/508 509/509/509
f 568/568/568 509/509/509 508/508/508
f 443/443/443 445/445/445 465/465/465
f 450/450/450 451/451/451 445/445/445
f 447/447/447 450/450/450 375/375/375
f 446/446/446 451/451/451 450/450/450
f 450/450/450 447/447/447 446/446/446
f 490/490/490 375/375/375 16/16/16
f 375/375/375 490/490/490 447/447/447
f 447/447/447 490/490/490 448/448/448
f 446/446/446 447/447/447 448/448/448
f 448/448/448 449/449/449 446/446/446
f 604/604/604 605/605/605 602/602/602
f 602/602/602 603/603/603 604/604/604
f 605/605/605 604/604/604 612/612/612
f 320/320/320 321/321/321 318/318/318
f 318/318/318 319/319/319 320/320/320
f 319/319/319 328/328/328 320/320/320
f 353/353/353 354/354/354 355/355/355
f 637/637/637 638/638/638 639/639/639
f 144/144/144 124/124/124 478/478/478
f 477/477/477 478/478/478 124/124/124
f 124/124/124 127/127/127 477/477/477
f 125/125/125 124/124/124 144/144/144
f 126/126/126 127/127/127 124/124/124
f 124/124/124 125/125/125 126/126/126
f 478/478/478 484/484/484 144/144/144
f 141/141/141 144/144/144 484/484/484
f 144/144/144 135/135/135 125/125/125
f 135/135/135 144/144/144 141/141/141
f 137/137/137 478/478/478 477/477/477
f 136/136/136 484/484/484 478/478/478
f 478/478/478 137/137/137 136/136/136
f 477/477/477 274/274/274 137/137/137
f 126/126/126 125/125/125 137/137/137
f 137/137/137 274/274/274 126/126/126
f 136/136/136 137/137/137 125/125/125
f 125/125/125 135/135/135 136/136/136
f 449/449/449 448/448/448 151/151/151
f 151/151/151 448/448/448 490/490/490
f 16/16/16 152/152/152 490/490/490
f 490/490/490 152/152/152 151/151/151
f 150/150/150 152/152/152 16/16/16
f 151/151/151 152/152/152 150/150/150
f 151/151/151 287/287/287 449/449/449
f 151/151/151 92/92/92 91/91/91
f 91/91/91 287/287/287 151/151/151
f 150/150/150 92/92/92 151/151/151
f 93/93/93 92/92/92 150/150/150
f 92/92/92 93/93/93 90/90/90
f 90/90/90 91/91/91 92/92/92
f 482/482/482 236/236/236 235/235/235
f 482/482/482 483/483/483 133/133/133
f 483/483/483 235/235/235 242/242/242
f 242/242/242 235/235/235 134/134/134
f 225/225/225 134/134/134 133/133/133
f 134/134/134 225/225/225 242/242/242
f 553/553/553 242/242/242 282/282/282
f 242/242/242 553/553/553 483/483/483
f 282/282/282 242/242/242 225/225/225
f 133/133/133 483/483/483 553/553/553
f 282/282/282 551/551/551 553/553/553
f 553/553/553 281/281/281 133/133/133
f 551/551/551 552/552/552 553/553/553
f 225/225/225 224/224/224 282/282/282
f 133/133/133 281/281/281 225/225/225
f 224/224/224 225/225/225 226/226/226
f 223/223/223 362/362/362 221/221/221
f 221/221/221 222/222/222 223/223/223
f 223/223/223 550/550/550 646/646/646
f 550/550/550 223/223/223 222/222/222
f 380/380/380 379/379/379 488/488/488
f 488/488/488 489/489/489 380/380/380
f 340/340/340 341/341/341 338/338/338
f 338/338/338 339/339/339 340/340/340
f 339/339/339 348/348/348 340/340/340
f 624/624/624 625/625/625 622/622/622
f 622/622/622 623/623/623 624/624/624
f 625/625/625 624/624/624 632/632/632
f 135/135/135 140/140/140 227/227/227
f 227/227/227 136/136/136 135/135/135
f 141/141/141 140/140/140 135/135/135
f 484/484/484 486/486/486 141/141/141
f 486/486/486 142/142/142 141/141/141
f 140/140/140 141/141/141 142/142/142
f 484/484/484 136/136/136 227/227/227
f 227/227/227 486/486/486 484/484/484
f 227/227/227 142/142/142 486/486/486
f 227/227/227 140/140/140 142/142/142
f 148/148/148 21/21/21 24/24/24
f 23/23/23 24/24/24 21/21/21
f 21/21/21 22/22/22 23/23/23
f 148/148/148 149/149/149 155/155/155
f 155/155/155 288/288/288 148/148/148
f 24/24/24 149/149/149 148/148/148
f 149/149/149 24/24/24 178/178/178
f 178/178/178 24/24/24 23/23/23
f 178/178/178 153/153/153 149/149/149
f 154/154/154 155/155/155 149/149/149
f 149/149/149 153/153/153 154/154/154
f 488/488/488 288/288/288 155/155/155
f 155/155/155 489/489/489 488/488/488
f 489/489/489 155/155/155 154/154/154
f 232/232/232 491/491/491 154/154/154
f 154/154/154 491/491/491 489/489/489
f 232/232/232 154/154/154 153/153/153
f 153/153/153 178/178/178 103/103/103
f 240/240/240 128/128/128 230/230/230
f 129/129/129 128/128/128 240/240/240
f 229/229/229 230/230/230 128/128/128
f 128/128/128 228/228/228 229/229/229
f 128/128/128 129/129/129 130/130/130
f 240/240/240 239/239/239 554/554/554
f 554/554/554 479/479/479 240/240/240
f 240/240/240 479/479/479 481/481/481
f 481/481/481 241/241/241 240/240/240
f 230/230/230 239/239/239 240/240/240
f 240/240/240 241/241/241 129/129/129
f 237/237/237 230/230/230 229/229/229
f 239/239/239 230/230/230 237/237/237
f 239/239/239 238/238/238 558/558/558
f 558/558/558 554/554/554 239/239/239
f 237/237/237 238/238/238 239/239/239
f 229/229/229 554/554/554 558/558/558
f 479/479/479 554/554/554 229/229/229
