# koolasuchus_ad_a reconstructed from live game memory
v -2.10127 24.12534 -43.71614
v -0.00000 24.12443 -43.75034
v -0.00000 25.58242 -43.45741
v -2.29236 25.69275 -43.41489
v -2.10127 24.12534 -43.71614
v -0.00000 25.89158 -38.54949
v -0.00000 24.12443 -43.75034
v -1.23282 27.10880 -41.83792
v -0.00000 26.97599 -41.75653
v -5.03702 28.47765 -1.73699
v -7.78354 25.90303 -1.79099
v -5.41509 26.55199 -5.90340
v -3.21103 28.23829 -5.76342
v -2.45564 28.29287 -11.06132
v -5.12252 26.43305 -10.79925
v -5.54375 22.93243 -10.84470
v -5.98529 22.84418 -6.35228
v -0.00000 19.41314 -5.93950
v -0.00000 20.30015 -11.16458
v -6.10378 19.05813 -3.17490
v -6.10378 19.05813 -3.17490
v -6.22268 18.51210 0.06464
v 0.00000 17.84421 0.07256
v -0.00000 19.41314 -5.93950
v -4.91923 17.07319 5.11639
v -0.00000 16.38846 5.10964
v -5.57500 16.33707 9.66653
v -0.00000 15.46563 9.66366
v -9.42066 18.74852 9.62652
v -10.69993 23.02863 9.04503
v -10.79106 23.27602 16.37119
v -9.65161 18.85719 15.96391
v -5.04076 17.80113 21.55204
v -0.00000 17.26589 21.25461
v -0.00000 15.54473 15.54216
v -6.27733 16.46337 15.66417
v -8.98848 24.16130 21.85869
v -8.45916 19.68134 21.56053
v -8.45030 24.83482 1.53287
v -6.17444 28.16158 1.37223
v -7.04156 27.71113 5.03401
v -9.61205 23.40079 5.00746
v -7.71165 27.64571 8.87572
v -0.00000 33.67975 25.28436
v -1.49407 31.37666 25.35784
v -1.52483 31.13875 20.81501
v -0.00000 33.19261 20.57152
v -5.69375 28.30115 25.31044
v -6.62915 28.21803 21.43962
v -8.60386 19.71340 1.62867
v -7.86597 18.58759 5.14473
v -9.36461 21.94608 1.67027
v -0.91310 24.14370 73.71483
v -1.11676 25.74449 73.71432
v -0.00000 25.85086 80.83246
v -4.15543 28.06858 31.13581
v -3.65549 25.21357 40.37497
v -5.39041 25.07153 29.71343
v -2.10015 22.83590 48.60429
v -0.00000 22.09051 48.60246
v -0.00000 21.11066 39.84904
v -2.30705 21.53678 39.88552
v -0.68434 27.51205 73.71382
v -0.00000 29.45025 78.67308
v -3.65549 25.21357 40.37497
v -2.83619 25.74024 48.61298
v -7.98972 28.11431 15.85805
v -0.00000 22.73024 78.59512
v -9.01753 25.24769 25.69659
v -6.62993 21.72326 29.47295
v -10.82788 22.30004 26.70984
v -10.82003 21.35718 22.91145
v -3.47912 20.03473 28.64417
v -0.00000 18.96495 26.93878
v -4.07917 18.69239 25.14792
v -13.31129 18.22858 28.25594
v -11.12516 18.90268 30.05328
v -1.17735 29.58024 39.98688
v -1.00630 28.93506 48.62450
v -1.07643 28.42646 57.84322
v -2.37339 25.75973 57.84020
v -13.22418 16.84127 26.62681
v -10.04779 17.39319 27.87938
v -6.31146 18.92708 25.44134
v -6.31146 18.92708 25.44134
v -10.04779 17.39319 27.87938
v -1.31557 23.93405 68.75482
v -1.63797 25.75354 68.75781
v -0.94299 27.84959 68.75374
v -0.00000 32.30831 70.90172
v -0.00000 32.06701 74.16882
v -1.17735 29.58024 39.98688
v -1.66205 30.58496 31.64035
v -1.51835 29.88133 8.49612
v -1.57199 30.77388 15.09636
v -1.49121 29.42988 5.15768
v -1.33618 29.43288 1.51325
v -1.20133 29.43550 -1.65681
v 0.00000 29.21840 -5.64168
v -1.84426 23.49622 57.84359
v -0.00000 30.82090 48.62527
v 0.00000 30.91792 54.82582
v 0.00000 21.77972 54.72863
v -0.00000 32.20166 67.06305
v -0.00000 31.53773 61.30499
v -7.02420 26.32281 -40.66994
v -6.25161 27.71519 -37.71275
v -9.85873 26.49683 -37.71034
v -15.75067 23.52477 -15.72047
v -16.84669 23.55205 -19.90895
v -16.91830 25.86822 -20.37679
v -15.77147 26.07064 -15.84959
v -12.90278 23.47318 -13.78029
v -11.71980 24.30726 -36.21729
v -12.48714 26.52023 -34.12814
v -15.36597 26.03494 -27.61384
v -15.69668 23.79158 -27.61307
v -13.30982 20.63169 -14.99123
v -8.07954 18.44774 -19.83404
v -15.38070 20.07464 -21.19655
v -9.79710 21.14616 -38.10435
v -4.85132 20.41037 -40.41804
v -5.40500 21.79132 -41.60355
v -5.94751 18.79618 -32.92895
v -7.71885 23.98595 -13.19876
v -12.80125 26.54804 -14.37982
v -7.12394 26.77061 -13.88581
v -12.44502 20.49492 -31.78636
v -7.57301 17.94760 -24.72413
v -12.43135 28.73012 -17.13728
v -13.39913 28.10969 -27.28601
v -10.06402 28.72271 -32.19577
v -16.38031 22.61461 -18.46996
v -0.00000 20.24568 -31.06743
v -15.23405 22.65004 -15.75758
v -15.75067 23.52477 -15.72047
v -0.00000 25.60629 -23.57840
v -16.84669 23.55205 -19.90895
v -12.90278 23.47318 -13.78029
v -0.00000 23.14142 -16.64242
v -15.69668 23.79158 -27.61307
v -11.71980 24.30726 -36.21729
v -14.05478 22.96119 -31.91657
v -16.78358 22.80672 -22.82501
v -0.00000 23.14142 -16.64242
v -12.90278 23.47318 -13.78029
v -7.30083 24.28551 -41.77866
v -9.90232 23.12119 -38.39809
v -5.08490 23.32179 -42.11417
v -9.86577 28.18487 -34.49826
v -3.70344 27.23416 -41.66746
v -2.81373 27.85090 -39.62077
v -2.40998 30.33848 -18.67234
v -4.03233 31.23435 -19.23900
v -2.71523 30.57527 -24.34803
v -0.00000 19.84344 -15.30773
v -0.00000 17.55294 -20.86026
v -6.73204 21.25799 -14.16133
v -0.00000 27.94439 -39.56710
v -0.00000 20.41143 -40.89230
v -0.00000 21.87337 -42.97234
v -0.00000 17.82053 -29.05171
v -2.39913 28.34943 -14.41960
v -6.36212 29.53032 -16.14762
v -0.00000 23.03610 -43.51146
v -6.05066 31.92379 -19.42471
v -6.14858 31.28566 -17.78836
v -8.86325 30.61966 -19.28742
v -12.79359 28.67125 -20.41658
v -15.86159 27.52222 -18.17803
v -7.86681 30.20524 -31.66820
v -8.11582 29.58277 -28.24816
v -4.86333 28.64958 -34.29182
v -5.87390 29.01644 -33.53616
v -7.20882 28.70212 -34.36428
v -7.30083 24.28551 -41.77866
v -5.51902 29.57580 -32.07660
v -6.00441 29.63214 -32.23946
v -7.27892 29.95256 -33.34969
v -8.53348 29.63807 -33.32303
v -7.17541 29.31626 -34.21067
v -7.46453 30.17799 -32.31845
v -5.87390 29.01644 -33.53616
v -6.27489 29.76230 -33.19180
v -7.20882 28.70212 -34.36428
v -6.00441 29.63214 -32.23946
v -9.05722 28.90271 -33.65493
v -7.68016 30.00329 -31.80788
v -9.22412 29.40557 -32.49245
v -7.68016 30.00329 -31.80788
v -9.05722 28.90271 -33.65493
v -9.22412 29.40557 -32.49245
v -7.71885 23.98595 -13.19876
v -6.73204 21.25799 -14.16133
v -0.00000 19.84344 -15.30773
v -7.12394 26.77061 -13.88581
v -2.39913 28.34943 -14.41960
v -5.08490 23.32179 -42.11417
v -9.90232 23.12119 -38.39809
v -16.38031 22.61461 -18.46996
v -15.23405 22.65004 -15.75758
v -14.05478 22.96119 -31.91657
v -12.90278 23.47318 -13.78029
v -7.71885 23.98595 -13.19876
v -16.78358 22.80672 -22.82501
v -0.00000 23.03610 -43.51146
v -15.11830 14.72746 36.05724
v -14.97536 16.83172 35.52312
v -13.65259 17.69871 33.04763
v -13.08771 15.92203 32.62401
v -15.70621 16.07122 31.98330
v -15.72496 14.62574 31.48773
v -17.30096 14.95566 35.01848
v -17.33615 13.39789 34.39424
v -13.08771 15.92203 32.62401
v -15.11830 14.72746 36.05724
v -15.89343 16.03698 38.82449
v -16.57567 15.62652 42.82585
v -17.59224 15.38649 39.09142
v -16.87904 15.09951 40.47144
v -16.87904 15.09951 40.47144
v -16.57567 15.62652 42.82585
v -16.05207 14.89598 38.97107
v -19.58966 10.84427 39.76069
v -19.74199 11.73344 39.94191
v -20.11908 10.70037 43.62484
v -18.48630 11.97705 40.52692
v -20.11908 10.70037 43.62484
v -19.35051 11.84064 41.00372
v -19.35051 11.84064 41.00372
v -19.58966 10.84427 39.76069
v -15.89343 16.03698 38.82449
v -15.11830 14.72746 36.05724
v -14.79962 16.27539 37.18845
v -14.59799 17.36615 36.96127
v -14.97536 16.83172 35.52312
v -17.30096 14.95566 35.01848
v -14.97536 16.83172 35.52312
v -15.64074 17.22688 36.74281
v -14.59799 17.36615 36.96127
v -17.33615 13.39789 34.39424
v -18.09417 12.40528 35.39903
v -15.84440 14.02017 37.51900
v -17.03346 12.82591 38.87724
v -15.71980 16.50589 37.61884
v -17.33615 13.39789 34.39424
v -18.31017 13.48501 35.55762
v -15.71980 16.50589 37.61884
v -17.70939 15.24798 36.97135
v -14.66766 17.12867 39.62141
v -14.66766 17.12867 39.62141
v -18.14412 13.22650 40.79053
v -18.09417 12.40528 35.39903
v -19.07814 13.93407 39.65427
v -18.03584 14.18957 40.97742
v -18.14412 13.22650 40.79053
v -19.48236 12.59365 41.13737
v -17.91012 14.00289 44.47977
v -17.91012 14.00289 44.47977
v -19.26628 12.32295 44.96148
v -19.26628 12.32295 44.96148
v -4.07917 18.69239 25.14792
v -2.30705 21.53678 39.88552
v -7.36661 30.55752 -24.50398
v -5.98068 31.62231 -21.33862
v -0.00000 21.11066 39.84904
v -2.46754 27.66212 -41.60545
v -2.49995 26.93796 -41.76378
v -2.64747 30.22394 -28.92630
v -12.05372 20.31144 0.68901
v -11.93938 20.52264 -1.89435
v -9.53354 22.71643 -2.49583
v -10.42836 19.21175 -3.38835
v -9.31339 17.97869 -0.61294
v -9.31339 17.97869 -0.61294
v -10.81312 19.06030 1.26890
v -17.80078 12.48411 9.03349
v -16.93480 11.38492 11.09816
v -16.37447 11.61148 8.49312
v -16.93480 11.38492 11.09816
v -17.06552 12.98642 9.16708
v -16.37447 11.61148 8.49312
v -17.80078 12.48411 9.03349
v -17.57412 15.47977 11.66305
v -17.42810 14.54500 15.22098
v -18.28485 15.06552 11.48327
v -17.34074 14.69742 11.57697
v -17.42810 14.54500 15.22098
v -17.57412 15.47977 11.66305
v -17.99781 14.29847 11.42309
v -17.99781 14.29847 11.42309
v -17.49759 13.77655 11.29994
v -17.26730 12.61812 14.42404
v -18.25925 13.15088 11.14345
v -17.28737 13.02747 11.24560
v -17.26730 12.61812 14.42404
v -17.49759 13.77655 11.29994
v -17.99718 12.60258 11.10922
v -17.99718 12.60258 11.10922
v -17.97143 15.70856 6.50040
v -17.79720 14.25462 6.22771
v -16.99691 15.47814 5.19788
v -15.30317 14.55226 2.34736
v -15.57151 16.44764 2.76498
v -16.99691 15.47814 5.19788
v -16.68627 13.51030 5.07168
v -14.61524 17.62678 3.70636
v -16.39408 16.53068 6.11348
v -13.66755 15.98510 3.87687
v -15.50600 15.39971 6.43051
v -13.66755 15.98510 3.87687
v -15.50600 15.39971 6.43051
v -13.03959 17.02540 -1.73744
v -13.57878 18.09935 -0.23154
v -12.84468 18.92546 1.33401
v -11.41722 17.25610 0.28236
v -11.41722 17.25610 0.28236
v -12.05372 20.31144 0.68901
v -11.93938 20.52264 -1.89435
v -10.42836 19.21175 -3.38835
v -9.31339 17.97869 -0.61294
v -10.81312 19.06030 1.26890
v 0.00000 30.41216 -1.47774
v -0.00000 28.79265 -11.15193
v 0.00000 32.95387 31.87686
v 0.00000 31.58587 39.88251
v -0.00000 21.05289 74.48376
v -0.00000 30.68429 1.58171
v -0.00000 31.00238 5.15782
v -0.00000 31.49234 8.48402
v -0.00000 32.45760 15.03704
v -0.00000 18.96495 26.93878
v 0.00000 31.58587 39.88251
v -0.00000 20.77482 71.05457
v -0.00000 20.85256 67.21873
v -0.00000 21.24708 61.46500
v -0.00000 28.70823 -14.42582
v 0.00000 30.59550 -18.67989
v -0.00000 30.59818 -29.33953
v -0.00000 29.30808 -33.92616
v 0.00000 30.66947 -25.26022
v -0.00000 28.70823 -14.42582
v -9.31339 17.97869 -0.61294
v -16.68627 13.51030 5.07168
v -16.39408 16.53068 6.11348
v -17.60165 14.23992 10.29874
v -18.30094 15.20930 9.57900
v -16.09659 16.72078 10.13384
v -16.28633 16.48621 12.16131
v -16.62445 16.51590 12.17600
v -16.77283 16.78660 10.12625
v -16.47607 16.04235 13.92284
v -16.28633 16.48621 12.16131
v -16.37896 16.19572 11.85657
v -16.47607 16.04235 13.92284
v -16.89862 15.98330 12.18099
v -17.32117 15.89768 10.71324
v -17.32117 15.89768 10.71324
v -17.21374 15.05426 9.46475
v -17.60165 14.23992 10.29874
v -18.22217 13.35911 9.34104
v -16.89862 15.98330 12.18099
v -17.76709 12.63022 6.49401
v -16.08125 12.29602 7.02341
v -16.54491 16.90650 7.71139
v -16.39408 16.53068 6.11348
v -15.50600 15.39971 6.43051
v -15.86300 15.88563 7.78254
v -16.54491 16.90650 7.71139
v -16.08125 12.29602 7.02341
v -16.28185 15.90193 9.93770
v -16.09659 16.72078 10.13384
v -16.68627 13.51030 5.07168
v -16.28185 15.90193 9.93770
v 2.10127 24.12534 -43.71614
v 2.29236 25.69275 -43.41489
v 2.10127 24.12534 -43.71614
v 1.23282 27.10880 -41.83792
v 5.03702 28.47765 -1.73699
v 3.21103 28.23829 -5.76342
v 5.41508 26.55199 -5.90340
v 7.78354 25.90303 -1.79099
v 2.45564 28.29287 -11.06132
v 5.12252 26.43305 -10.79925
v 5.54375 22.93243 -10.84471
v 5.98529 22.84418 -6.35228
v 6.10378 19.05812 -3.17490
v 6.10378 19.05812 -3.17490
v 6.22268 18.51210 0.06465
v 4.91923 17.07319 5.11639
v 5.57500 16.33707 9.66654
v 9.42065 18.74852 9.62652
v 9.65161 18.85719 15.96391
v 10.79105 23.27602 16.37119
v 10.69993 23.02863 9.04503
v 5.04076 17.80113 21.55204
v 6.27733 16.46337 15.66416
v 8.98847 24.16130 21.85869
v 8.45916 19.68134 21.56052
v 8.45030 24.83482 1.53287
v 9.61205 23.40079 5.00746
v 7.04156 27.71113 5.03401
v 6.17444 28.16158 1.37223
v 7.71164 27.64571 8.87572
v 1.52482 31.13875 20.81501
v 1.49407 31.37666 25.35784
v 5.69375 28.30115 25.31043
v 6.62915 28.21803 21.43961
v 8.60385 19.71340 1.62867
v 7.86597 18.58759 5.14473
v 9.36461 21.94608 1.67027
v 0.91310 24.14370 73.71483
v 1.11676 25.74449 73.71432
v 4.15543 28.06858 31.13581
v 5.39041 25.07153 29.71343
v 3.65549 25.21357 40.37497
v 2.10015 22.83590 48.60429
v 2.30704 21.53678 39.88552
v 0.68434 27.51205 73.71382
v 2.83619 25.74024 48.61298
v 3.65549 25.21357 40.37497
v 7.98971 28.11431 15.85805
v 9.01753 25.24769 25.69659
v 10.82788 22.30004 26.70984
v 6.62993 21.72326 29.47295
v 10.82003 21.35717 22.91145
v 3.47912 20.03473 28.64417
v 4.07917 18.69239 25.14792
v 13.31129 18.22858 28.25594
v 11.12516 18.90268 30.05328
v 1.17735 29.58023 39.98688
v 1.00630 28.93506 48.62450
v 1.07643 28.42646 57.84321
v 2.37339 25.75973 57.84020
v 6.31146 18.92708 25.44134
v 10.04779 17.39318 27.87938
v 13.22418 16.84126 26.62682
v 6.31146 18.92708 25.44134
v 10.04779 17.39318 27.87938
v 1.31557 23.93405 68.75482
v 1.63797 25.75354 68.75781
v 0.94299 27.84959 68.75374
v 1.17735 29.58023 39.98688
v 1.66205 30.58496 31.64035
v 1.57199 30.77388 15.09636
v 1.51834 29.88133 8.49612
v 1.49121 29.42988 5.15768
v 1.33618 29.43288 1.51325
v 1.20133 29.43550 -1.65681
v 1.84426 23.49622 57.84358
v 7.02420 26.32281 -40.66994
v 9.85873 26.49683 -37.71034
v 6.25161 27.71519 -37.71275
v 15.75067 23.52477 -15.72048
v 15.77147 26.07063 -15.84958
v 16.91830 25.86821 -20.37679
v 16.84669 23.55205 -19.90895
v 12.90277 23.47318 -13.78029
v 11.71980 24.30726 -36.21729
v 15.69668 23.79158 -27.61307
v 15.36597 26.03494 -27.61384
v 12.48714 26.52023 -34.12814
v 13.30982 20.63169 -14.99123
v 15.38070 20.07464 -21.19656
v 8.07954 18.44774 -19.83405
v 9.79709 21.14616 -38.10435
v 5.40499 21.79132 -41.60355
v 4.85131 20.41037 -40.41805
v 5.94751 18.79618 -32.92896
v 7.71885 23.98595 -13.19876
v 7.12394 26.77061 -13.88581
v 12.80125 26.54804 -14.37982
v 12.44501 20.49492 -31.78636
v 7.57301 17.94760 -24.72414
v 12.43135 28.73012 -17.13728
v 13.39913 28.10969 -27.28601
v 10.06402 28.72271 -32.19577
v 16.38031 22.61460 -18.46997
v 15.23405 22.65004 -15.75758
v 15.75067 23.52477 -15.72048
v 16.84669 23.55205 -19.90895
v 12.90277 23.47318 -13.78029
v 15.69668 23.79158 -27.61307
v 11.71980 24.30726 -36.21729
v 14.05477 22.96118 -31.91658
v 16.78358 22.80671 -22.82502
v 12.90277 23.47318 -13.78029
v 7.30083 24.28551 -41.77866
v 9.90231 23.12119 -38.39809
v 5.08489 23.32179 -42.11417
v 9.86577 28.18487 -34.49826
v 3.70344 27.23416 -41.66746
v 2.81373 27.85090 -39.62077
v 2.40998 30.33848 -18.67234
v 2.71523 30.57527 -24.34803
v 4.03233 31.23435 -19.23900
v 6.73204 21.25799 -14.16133
v 6.36212 29.53032 -16.14763
v 2.39913 28.34943 -14.41960
v 6.05066 31.92379 -19.42471
v 8.86325 30.61965 -19.28742
v 6.14858 31.28566 -17.78836
v 12.79359 28.67125 -20.41658
v 15.86159 27.52221 -18.17803
v 8.11582 29.58276 -28.24816
v 7.86681 30.20524 -31.66820
v 4.86333 28.64958 -34.29182
v 7.20882 28.70212 -34.36428
v 5.87390 29.01643 -33.53616
v 7.30083 24.28551 -41.77866
v 5.51902 29.57580 -32.07660
v 6.00441 29.63214 -32.23946
v 7.27892 29.95255 -33.34969
v 7.17541 29.31626 -34.21067
v 8.53348 29.63807 -33.32303
v 7.46452 30.17799 -32.31845
v 5.87390 29.01643 -33.53616
v 7.20882 28.70212 -34.36428
v 6.27489 29.76229 -33.19180
v 6.00441 29.63214 -32.23946
v 9.05722 28.90270 -33.65493
v 7.68016 30.00329 -31.80788
v 7.68016 30.00329 -31.80788
v 9.22412 29.40557 -32.49245
v 9.05722 28.90270 -33.65493
v 9.22412 29.40557 -32.49245
v 7.71885 23.98595 -13.19876
v 6.73204 21.25799 -14.16133
v 2.39913 28.34943 -14.41960
v 7.12394 26.77061 -13.88581
v 9.90231 23.12119 -38.39809
v 5.08489 23.32179 -42.11417
v 16.38031 22.61460 -18.46997
v 15.23405 22.65004 -15.75758
v 14.05477 22.96118 -31.91658
v 12.90277 23.47318 -13.78029
v 7.71885 23.98595 -13.19876
v 16.78358 22.80671 -22.82502
v 15.11829 14.72746 36.05724
v 13.08771 15.92203 32.62401
v 13.65259 17.69871 33.04763
v 14.97536 16.83171 35.52312
v 15.72496 14.62573 31.48774
v 15.70621 16.07122 31.98331
v 17.33615 13.39789 34.39425
v 17.30096 14.95565 35.01848
v 13.08771 15.92203 32.62401
v 15.11829 14.72746 36.05724
v 15.89343 16.03697 38.82450
v 17.59223 15.38649 39.09142
v 16.57567 15.62652 42.82585
v 16.87904 15.09951 40.47145
v 16.87904 15.09951 40.47145
v 16.05207 14.89597 38.97107
v 16.57567 15.62652 42.82585
v 19.58966 10.84427 39.76069
v 20.11907 10.70037 43.62485
v 19.74199 11.73344 39.94191
v 18.48630 11.97704 40.52693
v 19.35051 11.84064 41.00372
v 20.11907 10.70037 43.62485
v 19.35051 11.84064 41.00372
v 19.58966 10.84427 39.76069
v 15.89343 16.03697 38.82450
v 15.11829 14.72746 36.05724
v 14.97536 16.83171 35.52312
v 14.59799 17.36614 36.96127
v 14.79962 16.27539 37.18845
v 17.30096 14.95565 35.01848
v 15.64074 17.22688 36.74281
v 14.97536 16.83171 35.52312
v 14.59799 17.36614 36.96127
v 17.33615 13.39789 34.39425
v 15.84440 14.02017 37.51900
v 18.09417 12.40528 35.39904
v 17.03345 12.82590 38.87724
v 15.71979 16.50589 37.61885
v 17.33615 13.39789 34.39425
v 18.31017 13.48501 35.55763
v 17.70939 15.24798 36.97135
v 15.71979 16.50589 37.61885
v 14.66766 17.12866 39.62141
v 14.66766 17.12866 39.62141
v 18.14412 13.22650 40.79053
v 18.09417 12.40528 35.39904
v 19.07814 13.93407 39.65427
v 18.03584 14.18956 40.97742
v 18.14412 13.22650 40.79053
v 19.48236 12.59365 41.13737
v 17.91011 14.00289 44.47977
v 17.91011 14.00289 44.47977
v 19.26627 12.32294 44.96148
v 19.26627 12.32294 44.96148
v 4.07917 18.69239 25.14792
v 2.30704 21.53678 39.88552
v 7.36661 30.55752 -24.50398
v 5.98068 31.62231 -21.33861
v 2.46754 27.66212 -41.60545
v 2.49995 26.93796 -41.76378
v 2.64747 30.22394 -28.92630
v 9.53354 22.71643 -2.49583
v 11.93938 20.52263 -1.89435
v 12.05372 20.31144 0.68902
v 10.42837 19.21174 -3.38835
v 9.31339 17.97868 -0.61294
v 9.31339 17.97868 -0.61294
v 10.81312 19.06030 1.26890
v 17.80079 12.48411 9.03350
v 16.37447 11.61147 8.49313
v 16.93480 11.38492 11.09817
v 16.93480 11.38492 11.09817
v 16.37447 11.61147 8.49313
v 17.06553 12.98642 9.16709
v 17.80079 12.48411 9.03350
v 17.57412 15.47977 11.66306
v 18.28485 15.06552 11.48328
v 17.42811 14.54500 15.22099
v 17.34075 14.69742 11.57698
v 17.57412 15.47977 11.66306
v 17.42811 14.54500 15.22099
v 17.99782 14.29847 11.42310
v 17.99782 14.29847 11.42310
v 17.49759 13.77655 11.29995
v 18.25926 13.15088 11.14346
v 17.26730 12.61811 14.42405
v 17.28738 13.02746 11.24561
v 17.49759 13.77655 11.29995
v 17.26730 12.61811 14.42405
v 17.99719 12.60257 11.10923
v 17.99719 12.60257 11.10923
v 17.97144 15.70855 6.50040
v 16.99691 15.47814 5.19789
v 17.79720 14.25462 6.22772
v 15.30317 14.55225 2.34737
v 16.68627 13.51030 5.07169
v 16.99691 15.47814 5.19789
v 15.57151 16.44764 2.76498
v 16.39409 16.53068 6.11348
v 14.61524 17.62678 3.70637
v 15.50601 15.39971 6.43051
v 13.66755 15.98510 3.87687
v 13.66755 15.98510 3.87687
v 15.50601 15.39971 6.43051
v 13.57878 18.09935 -0.23154
v 13.03959 17.02540 -1.73744
v 12.84469 18.92546 1.33402
v 11.41722 17.25610 0.28236
v 11.41722 17.25610 0.28236
v 12.05372 20.31144 0.68902
v 11.93938 20.52263 -1.89435
v 10.42837 19.21174 -3.38835
v 9.31339 17.97868 -0.61294
v 10.81312 19.06030 1.26890
v 9.31339 17.97868 -0.61294
v 16.68627 13.51030 5.07169
v 16.39409 16.53068 6.11348
v 17.60166 14.23991 10.29875
v 18.30095 15.20929 9.57901
v 16.09660 16.72078 10.13385
v 16.77284 16.78659 10.12626
v 16.62446 16.51590 12.17601
v 16.28634 16.48621 12.16132
v 16.47608 16.04235 13.92284
v 16.37897 16.19572 11.85658
v 16.28634 16.48621 12.16132
v 16.47608 16.04235 13.92284
v 16.89863 15.98330 12.18100
v 17.32118 15.89768 10.71325
v 17.21375 15.05426 9.46475
v 17.32118 15.89768 10.71325
v 17.60166 14.23991 10.29875
v 18.22217 13.35911 9.34105
v 16.89863 15.98330 12.18100
v 17.76710 12.63021 6.49402
v 16.08125 12.29602 7.02342
v 16.54491 16.90650 7.71140
v 15.86300 15.88563 7.78255
v 15.50601 15.39971 6.43051
v 16.39409 16.53068 6.11348
v 16.54491 16.90650 7.71140
v 16.08125 12.29602 7.02342
v 16.28185 15.90193 9.93771
v 16.09660 16.72078 10.13385
v 16.68627 13.51030 5.07169
v 16.28185 15.90193 9.93771
vt 0.549796 0.754292
vt 0.561810 0.782115
vt 0.542271 0.790932
vt 0.530132 0.762381
vt 0.208284 0.900142
vt 0.176722 0.888917
vt 0.208230 0.888083
vt 0.506552 0.786451
vt 0.512048 0.802365
vt 0.632103 0.349650
vt 0.641515 0.302493
vt 0.695676 0.339759
vt 0.682469 0.376169
vt 0.741383 0.411280
vt 0.756027 0.369351
vt 0.779797 0.326318
vt 0.722596 0.292487
vt 0.787797 0.224609
vt 0.829344 0.262446
vt 0.714989 0.226004
vt 0.669843 0.152942
vt 0.625621 0.157931
vt 0.630451 0.075617
vt 0.709429 0.078048
vt 0.559712 0.134368
vt 0.565502 0.068785
vt 0.500335 0.132029
vt 0.506865 0.059768
vt 0.495205 0.187655
vt 0.498024 0.241096
vt 0.400707 0.237878
vt 0.412066 0.185556
vt 0.351004 0.125518
vt 0.354609 0.056723
vt 0.430394 0.054477
vt 0.423931 0.136053
vt 0.319533 0.247929
vt 0.334349 0.181662
vt 0.598528 0.278495
vt 0.593635 0.331001
vt 0.546685 0.316454
vt 0.553840 0.249825
vt 0.495933 0.308672
vt 0.288000 0.429015
vt 0.282686 0.393418
vt 0.338838 0.389996
vt 0.342207 0.423100
vt 0.274211 0.323747
vt 0.327960 0.313106
vt 0.603589 0.198590
vt 0.557249 0.180165
vt 0.602018 0.237508
vt 0.585633 0.877820
vt 0.586955 0.898732
vt 0.505465 0.903562
vt 0.199182 0.354527
vt 0.078379 0.381303
vt 0.199620 0.304361
vt 0.883568 0.856317
vt 0.897743 0.821678
vt 0.971210 0.810370
vt 0.975959 0.845987
vt 0.586452 0.921960
vt 0.525594 0.949147
vt 0.977132 0.879537
vt 0.883279 0.894404
vt 0.403489 0.305012
vt 0.524448 0.861455
vt 0.262346 0.265372
vt 0.174896 0.254983
vt 0.243197 0.222803
vt 0.295699 0.207115
vt 0.124825 0.235277
vt 0.084492 0.198288
vt 0.128312 0.190514
vt 0.222320 0.158738
vt 0.198126 0.181720
vt 0.976127 0.940730
vt 0.884008 0.940160
vt 0.773213 0.932473
vt 0.773824 0.894933
vt 0.241397 0.148277
vt 0.273111 0.123474
vt 0.314952 0.127026
vt 0.138075 0.199640
vt 0.179891 0.191411
vt 0.643610 0.872512
vt 0.644815 0.896927
vt 0.644583 0.924661
vt 0.618774 0.981379
vt 0.579872 0.978854
vt 0.106140 0.439952
vt 0.202704 0.396862
vt 0.497839 0.393057
vt 0.411839 0.393098
vt 0.540427 0.391992
vt 0.585930 0.395824
vt 0.624993 0.400305
vt 0.672040 0.415419
vt 0.772136 0.864143
vt 0.900039 0.968323
vt 0.801203 0.966690
vt 0.800127 0.829196
vt 0.664436 0.979932
vt 0.732844 0.972540
vt 0.475964 0.709975
vt 0.435214 0.731654
vt 0.430468 0.678288
vt 0.108417 0.599896
vt 0.174672 0.575558
vt 0.185272 0.604590
vt 0.126367 0.625972
vt 0.069169 0.643261
vt 0.418152 0.632969
vt 0.378134 0.649069
vt 0.285525 0.616760
vt 0.289346 0.586298
vt 0.923462 0.641780
vt 0.877306 0.706995
vt 0.855990 0.627062
vt 0.676665 0.695857
vt 0.654738 0.750718
vt 0.636749 0.741688
vt 0.737421 0.738773
vt 0.065380 0.685145
vt 0.105952 0.665571
vt 0.101319 0.741973
vt 0.743405 0.664667
vt 0.825406 0.717525
vt 0.149434 0.680246
vt 0.282600 0.655251
vt 0.352234 0.693449
vt 0.289706 0.875225
vt 0.358262 0.979702
vt 0.272632 0.880771
vt 0.051468 0.987833
vt 0.090962 0.894139
vt 0.075847 0.992609
vt 0.039421 0.972483
vt 0.048962 0.897295
vt 0.119572 0.983229
vt 0.167460 0.957265
vt 0.370447 0.895456
vt 0.316392 0.874773
vt 0.268746 0.973770
vt 0.258531 0.893840
vt 0.198026 0.930299
vt 0.408205 0.923340
vt 0.429270 0.953895
vt 0.383333 0.691410
vt 0.494495 0.755334
vt 0.469041 0.774408
vt 0.173684 0.819144
vt 0.183562 0.796822
vt 0.255051 0.811897
vt 0.940575 0.786507
vt 0.874567 0.796249
vt 0.948259 0.709391
vt 0.480306 0.813571
vt 0.648559 0.803059
vt 0.619853 0.800040
vt 0.782952 0.802954
vt 0.106472 0.816011
vt 0.135232 0.763258
vt 0.435836 0.985414
vt 0.187077 0.770026
vt 0.165529 0.768221
vt 0.181596 0.730463
vt 0.192408 0.672313
vt 0.159849 0.632217
vt 0.351774 0.729267
vt 0.303755 0.729789
vt 0.391560 0.761423
vt 0.377446 0.750558
vt 0.385651 0.729107
vt 0.501818 0.691381
vt 0.357910 0.761188
vt 0.358667 0.754746
vt 0.053969 0.484129
vt 0.068416 0.508651
vt 0.033765 0.495624
vt 0.074900 0.474167
vt 0.020530 0.463525
vt 0.041830 0.465267
vt 0.022740 0.503606
vt 0.052204 0.444953
vt 0.371943 0.705813
vt 0.087186 0.471360
vt 0.356553 0.707204
vt 0.354520 0.730995
vt 0.063487 0.530658
vt 0.092840 0.515399
vt 0.805984 0.361843
vt 0.827785 0.347606
vt 0.875537 0.279758
vt 0.801167 0.385611
vt 0.776650 0.435404
vt 0.619440 0.739050
vt 0.660936 0.682319
vt 0.886725 0.599529
vt 0.921849 0.611642
vt 0.733999 0.633949
vt 0.954377 0.633865
vt 0.977073 0.689444
vt 0.834843 0.596955
vt 0.605840 0.796824
vt 0.112878 0.103245
vt 0.140234 0.098996
vt 0.167066 0.127908
vt 0.148820 0.140858
vt 0.186927 0.101215
vt 0.197779 0.086494
vt 0.155451 0.064902
vt 0.169729 0.050574
vt 0.233221 0.068769
vt 0.201167 0.026538
vt 0.868930 0.468490
vt 0.838453 0.402555
vt 0.895693 0.456114
vt 0.884026 0.430186
vt 0.750957 0.561239
vt 0.765577 0.592917
vt 0.735378 0.546469
vt 0.975007 0.399561
vt 0.957840 0.399866
vt 0.962349 0.334099
vt 0.777659 0.509446
vt 0.824348 0.492186
vt 0.795030 0.507960
vt 0.944688 0.376184
vt 0.775691 0.483100
vt 0.717893 0.565371
vt 0.690619 0.531366
vt 0.688586 0.558707
vt 0.670515 0.561211
vt 0.666393 0.541415
vt 0.928313 0.519467
vt 0.868606 0.524861
vt 0.869079 0.500743
vt 0.846503 0.504427
vt 0.692683 0.491326
vt 0.705149 0.486335
vt 0.713759 0.532646
vt 0.741775 0.518600
vt 0.700830 0.569143
vt 0.961453 0.523201
vt 0.956549 0.496278
vt 0.874930 0.485290
vt 0.917611 0.485685
vt 0.679739 0.595138
vt 0.828565 0.460873
vt 0.776659 0.532131
vt 0.971628 0.496443
vt 0.921918 0.422456
vt 0.893958 0.409382
vt 0.903975 0.394122
vt 0.929945 0.380786
vt 0.860090 0.356908
vt 0.810550 0.563496
vt 0.909070 0.324346
vt 0.836088 0.536974
vt 0.310317 0.108556
vt 0.048407 0.357458
vt 0.253480 0.747139
vt 0.211179 0.769571
vt 0.019736 0.349300
vt 0.495556 0.772189
vt 0.503542 0.769117
vt 0.319674 0.806132
vt 0.635580 0.217391
vt 0.654373 0.223058
vt 0.657262 0.262005
vt 0.673370 0.222820
vt 0.684224 0.188718
vt 0.643554 0.194759
vt 0.627419 0.211976
vt 0.604844 0.608118
vt 0.654045 0.584160
vt 0.632361 0.638741
vt 0.396852 0.593857
vt 0.358385 0.549862
vt 0.344398 0.575784
vt 0.382570 0.561583
vt 0.532882 0.531011
vt 0.558854 0.454452
vt 0.549542 0.537952
vt 0.414100 0.514095
vt 0.478954 0.526357
vt 0.415329 0.500605
vt 0.412238 0.527359
vt 0.566956 0.538603
vt 0.586030 0.545749
vt 0.633161 0.489516
vt 0.603329 0.558453
vt 0.413091 0.549691
vt 0.472208 0.578061
vt 0.423559 0.541753
vt 0.406041 0.563899
vt 0.615797 0.562488
vt 0.522479 0.642838
vt 0.548348 0.655434
vt 0.515770 0.677157
vt 0.815152 0.127760
vt 0.837180 0.150270
vt 0.797658 0.178390
vt 0.772948 0.156187
vt 0.856102 0.171580
vt 0.810549 0.198285
vt 0.866464 0.199886
vt 0.819884 0.219336
vt 0.793257 0.091632
vt 0.749175 0.120524
vt 0.884947 0.085674
vt 0.891219 0.115117
vt 0.906417 0.145192
vt 0.930356 0.179043
vt 0.858098 0.055593
vt 0.931316 0.127886
vt 0.938610 0.088232
vt 0.929102 0.047645
vt 0.881568 0.023277
vt 0.941490 0.149577
vt 0.620140 0.420124
vt 0.729778 0.441868
vt 0.210024 0.438118
vt 0.974311 0.972313
vt 0.572317 0.837516
vt 0.583039 0.419480
vt 0.538232 0.420011
vt 0.495623 0.421609
vt 0.410881 0.422713
vt 0.279297 0.060200
vt 0.110635 0.461527
vt 0.613163 0.831609
vt 0.659134 0.829456
vt 0.728165 0.829207
vt 0.116909 0.840845
vt 0.178285 0.841921
vt 0.325294 0.835824
vt 0.396846 0.829570
vt 0.260155 0.838769
vt 0.764126 0.462124
vt 0.968494 0.181869
vt 0.559808 0.692715
vt 0.486311 0.654920
vt 0.571300 0.564381
vt 0.544416 0.578845
vt 0.481920 0.559977
vt 0.494400 0.519810
vt 0.501181 0.521058
vt 0.496452 0.562342
vt 0.459308 0.463887
vt 0.416183 0.461324
vt 0.409006 0.472936
vt 0.508491 0.485628
vt 0.515297 0.518041
vt 0.520381 0.551119
vt 0.397550 0.497285
vt 0.372516 0.510382
vt 0.386695 0.526933
vt 0.584853 0.592848
vt 0.424915 0.480996
vt 0.579794 0.656043
vt 0.317748 0.559823
vt 0.330301 0.467355
vt 0.300672 0.473863
vt 0.305903 0.500555
vt 0.332917 0.491154
vt 0.483989 0.615195
vt 0.612192 0.673562
vt 0.374928 0.485577
vt 0.375523 0.469684
vt 0.277091 0.540577
vt 0.375527 0.485812
vt 0.549796 0.754292
vt 0.530132 0.762381
vt 0.208284 0.900142
vt 0.506552 0.786451
vt 0.632103 0.349650
vt 0.682469 0.376169
vt 0.695676 0.339759
vt 0.641515 0.302493
vt 0.741383 0.411280
vt 0.756027 0.369351
vt 0.779797 0.326318
vt 0.722596 0.292487
vt 0.714989 0.226004
vt 0.669843 0.152942
vt 0.625621 0.157931
vt 0.559712 0.134368
vt 0.500335 0.132029
vt 0.495205 0.187655
vt 0.412066 0.185556
vt 0.400707 0.237878
vt 0.498024 0.241096
vt 0.351004 0.125518
vt 0.423931 0.136053
vt 0.319533 0.247929
vt 0.334349 0.181662
vt 0.598528 0.278495
vt 0.553840 0.249825
vt 0.546685 0.316454
vt 0.593635 0.331001
vt 0.495933 0.308672
vt 0.338838 0.389996
vt 0.282686 0.393418
vt 0.274211 0.323747
vt 0.327960 0.313106
vt 0.603589 0.198590
vt 0.557249 0.180165
vt 0.602018 0.237508
vt 0.585633 0.877820
vt 0.586955 0.898732
vt 0.199182 0.354527
vt 0.199620 0.304361
vt 0.078379 0.381303
vt 0.883568 0.856317
vt 0.975959 0.845987
vt 0.586452 0.921960
vt 0.883279 0.894404
vt 0.977132 0.879537
vt 0.403489 0.305012
vt 0.262346 0.265372
vt 0.243197 0.222803
vt 0.174896 0.254983
vt 0.295699 0.207115
vt 0.124825 0.235277
vt 0.128312 0.190514
vt 0.222320 0.158738
vt 0.198126 0.181720
vt 0.976127 0.940730
vt 0.884008 0.940160
vt 0.773213 0.932473
vt 0.773824 0.894933
vt 0.314952 0.127026
vt 0.273111 0.123474
vt 0.241397 0.148277
vt 0.138075 0.199640
vt 0.179891 0.191411
vt 0.643610 0.872512
vt 0.644815 0.896927
vt 0.644583 0.924661
vt 0.106140 0.439952
vt 0.202704 0.396862
vt 0.411839 0.393098
vt 0.497839 0.393057
vt 0.540427 0.391992
vt 0.585930 0.395824
vt 0.624993 0.400305
vt 0.772136 0.864143
vt 0.475964 0.709975
vt 0.430468 0.678288
vt 0.435214 0.731654
vt 0.108417 0.599896
vt 0.126367 0.625972
vt 0.185272 0.604590
vt 0.174672 0.575558
vt 0.069169 0.643261
vt 0.418152 0.632969
vt 0.289346 0.586298
vt 0.285525 0.616760
vt 0.378134 0.649069
vt 0.923462 0.641780
vt 0.855990 0.627062
vt 0.877306 0.706995
vt 0.676665 0.695857
vt 0.636749 0.741688
vt 0.654738 0.750718
vt 0.737421 0.738773
vt 0.065380 0.685145
vt 0.101319 0.741973
vt 0.105952 0.665571
vt 0.743405 0.664667
vt 0.825406 0.717525
vt 0.149434 0.680246
vt 0.282600 0.655251
vt 0.352234 0.693449
vt 0.289706 0.875225
vt 0.272632 0.880771
vt 0.051468 0.987833
vt 0.075847 0.992609
vt 0.039421 0.972483
vt 0.119572 0.983229
vt 0.167460 0.957265
vt 0.370447 0.895456
vt 0.316392 0.874773
vt 0.258531 0.893840
vt 0.198026 0.930299
vt 0.408205 0.923340
vt 0.429270 0.953895
vt 0.383333 0.691410
vt 0.494495 0.755334
vt 0.469041 0.774408
vt 0.173684 0.819144
vt 0.255051 0.811897
vt 0.183562 0.796822
vt 0.948259 0.709391
vt 0.135232 0.763258
vt 0.106472 0.816011
vt 0.187077 0.770026
vt 0.181596 0.730463
vt 0.165529 0.768221
vt 0.192408 0.672313
vt 0.159849 0.632217
vt 0.303755 0.729789
vt 0.351774 0.729267
vt 0.391560 0.761423
vt 0.385651 0.729107
vt 0.377446 0.750558
vt 0.501818 0.691381
vt 0.357910 0.761188
vt 0.358667 0.754746
vt 0.053969 0.484129
vt 0.033765 0.495624
vt 0.068416 0.508651
vt 0.074900 0.474167
vt 0.020530 0.463525
vt 0.022740 0.503606
vt 0.041830 0.465267
vt 0.052204 0.444953
vt 0.371943 0.705813
vt 0.087186 0.471360
vt 0.354520 0.730995
vt 0.356553 0.707204
vt 0.063487 0.530658
vt 0.092840 0.515399
vt 0.805984 0.361843
vt 0.827785 0.347606
vt 0.776650 0.435404
vt 0.801167 0.385611
vt 0.660936 0.682319
vt 0.619440 0.739050
vt 0.886725 0.599529
vt 0.921849 0.611642
vt 0.733999 0.633949
vt 0.954377 0.633865
vt 0.977073 0.689444
vt 0.834843 0.596955
vt 0.112878 0.103245
vt 0.148820 0.140858
vt 0.167066 0.127908
vt 0.140234 0.098996
vt 0.197779 0.086494
vt 0.186927 0.101215
vt 0.169729 0.050574
vt 0.155451 0.064902
vt 0.233221 0.068769
vt 0.201167 0.026538
vt 0.868930 0.468490
vt 0.895693 0.456114
vt 0.838453 0.402555
vt 0.884026 0.430186
vt 0.750957 0.561239
vt 0.735378 0.546469
vt 0.765577 0.592917
vt 0.975007 0.399561
vt 0.962349 0.334099
vt 0.957840 0.399866
vt 0.777659 0.509446
vt 0.795030 0.507960
vt 0.824348 0.492186
vt 0.944688 0.376184
vt 0.775691 0.483100
vt 0.717893 0.565371
vt 0.690619 0.531366
vt 0.666393 0.541415
vt 0.670515 0.561211
vt 0.688586 0.558707
vt 0.928313 0.519467
vt 0.869079 0.500743
vt 0.868606 0.524861
vt 0.846503 0.504427
vt 0.692683 0.491326
vt 0.713759 0.532646
vt 0.705149 0.486335
vt 0.741775 0.518600
vt 0.700830 0.569143
vt 0.961453 0.523201
vt 0.956549 0.496278
vt 0.917611 0.485685
vt 0.874930 0.485290
vt 0.679739 0.595138
vt 0.828565 0.460873
vt 0.776659 0.532131
vt 0.971628 0.496443
vt 0.921918 0.422456
vt 0.893958 0.409382
vt 0.903975 0.394122
vt 0.929945 0.380786
vt 0.860090 0.356908
vt 0.810550 0.563496
vt 0.909070 0.324346
vt 0.836088 0.536974
vt 0.310317 0.108556
vt 0.048407 0.357458
vt 0.253480 0.747139
vt 0.211179 0.769571
vt 0.495556 0.772189
vt 0.503542 0.769117
vt 0.319674 0.806132
vt 0.657262 0.262005
vt 0.654373 0.223058
vt 0.635580 0.217391
vt 0.673370 0.222820
vt 0.684224 0.188718
vt 0.643554 0.194759
vt 0.627419 0.211976
vt 0.604844 0.608118
vt 0.632361 0.638741
vt 0.654045 0.584160
vt 0.396852 0.593857
vt 0.344398 0.575784
vt 0.358385 0.549862
vt 0.382570 0.561583
vt 0.532882 0.531011
vt 0.549542 0.537952
vt 0.558854 0.454452
vt 0.414100 0.514095
vt 0.415329 0.500605
vt 0.478954 0.526357
vt 0.412238 0.527359
vt 0.566956 0.538603
vt 0.586030 0.545749
vt 0.603329 0.558453
vt 0.633161 0.489516
vt 0.413091 0.549691
vt 0.423559 0.541753
vt 0.472208 0.578061
vt 0.406041 0.563899
vt 0.615797 0.562488
vt 0.522479 0.642838
vt 0.515770 0.677157
vt 0.548348 0.655434
vt 0.815152 0.127760
vt 0.772948 0.156187
vt 0.797658 0.178390
vt 0.837180 0.150270
vt 0.810549 0.198285
vt 0.856102 0.171580
vt 0.819884 0.219336
vt 0.866464 0.199886
vt 0.793257 0.091632
vt 0.749175 0.120524
vt 0.891219 0.115117
vt 0.884947 0.085674
vt 0.906417 0.145192
vt 0.930356 0.179043
vt 0.858098 0.055593
vt 0.931316 0.127886
vt 0.938610 0.088232
vt 0.929102 0.047645
vt 0.881568 0.023277
vt 0.941490 0.149577
vt 0.968494 0.181869
vt 0.559808 0.692715
vt 0.486311 0.654920
vt 0.571300 0.564381
vt 0.544416 0.578845
vt 0.481920 0.559977
vt 0.496452 0.562342
vt 0.501181 0.521058
vt 0.494400 0.519810
vt 0.459308 0.463887
vt 0.409006 0.472936
vt 0.416183 0.461324
vt 0.508491 0.485628
vt 0.515297 0.518041
vt 0.520381 0.551119
vt 0.372516 0.510382
vt 0.397550 0.497285
vt 0.386695 0.526933
vt 0.584853 0.592848
vt 0.424915 0.480996
vt 0.579794 0.656043
vt 0.317748 0.559823
vt 0.330301 0.467355
vt 0.332917 0.491154
vt 0.305903 0.500555
vt 0.300672 0.473863
vt 0.483989 0.615195
vt 0.612192 0.673562
vt 0.374928 0.485577
vt 0.375523 0.469684
vt 0.277091 0.540577
vt 0.375527 0.485812
vn -0.10555 -0.51482 -0.85077
vn -0.00000 -0.75137 -0.65988
vn 0.00000 0.50033 -0.86583
vn -0.16569 0.55691 -0.81388
vn -0.10555 -0.51482 -0.85077
vn -0.00000 -0.98288 0.18426
vn -0.00000 -0.75137 -0.65988
vn 0.06639 0.82108 -0.56694
vn -0.00000 0.85178 -0.52390
vn -0.45316 0.87750 -0.15695
vn -0.82866 0.51544 -0.21827
vn -0.80991 0.54965 -0.20477
vn -0.37079 0.91933 -0.13172
vn -0.41116 0.91030 0.04802
vn -0.80957 0.47354 0.34691
vn -0.78342 -0.58000 0.22327
vn -0.75281 -0.17858 -0.63355
vn -0.00000 -0.94043 -0.33999
vn -0.00000 -0.99958 -0.02885
vn -0.04552 -0.89771 -0.43824
vn -0.04552 -0.89771 -0.43824
vn -0.11127 -0.99366 -0.01615
vn -0.00000 -0.97139 -0.23749
vn -0.00000 -0.94043 -0.33999
vn -0.28021 -0.93806 -0.20376
vn 0.00000 -0.97118 -0.23833
vn -0.37126 -0.92471 -0.08414
vn 0.00000 -0.99243 -0.12279
vn -0.85045 -0.50834 -0.13538
vn -0.95479 0.26946 -0.12557
vn -0.99359 0.04555 0.10348
vn -0.81629 -0.56300 0.12926
vn -0.22351 -0.94364 0.24409
vn 0.00000 -0.96025 0.27913
vn 0.00000 -0.99012 0.14025
vn -0.38663 -0.91008 0.14924
vn -0.93177 0.36214 -0.02549
vn -0.53079 -0.81702 -0.22525
vn -0.88861 0.44846 -0.09627
vn -0.55051 0.83375 -0.04233
vn -0.69824 0.71023 -0.08966
vn -0.98320 0.05897 -0.17277
vn -0.56042 0.82283 -0.09424
vn 0.00000 0.99990 -0.01420
vn -0.71083 0.70065 0.06171
vn -0.66877 0.74292 -0.02862
vn -0.00000 0.99310 -0.11725
vn -0.73118 0.65559 0.18862
vn -0.67061 0.73237 0.11798
vn -0.41056 -0.80529 0.42773
vn -0.75580 -0.64365 -0.12033
vn -0.90947 0.28242 0.30512
vn -0.97349 -0.20456 0.10235
vn -0.99263 0.00966 0.12076
vn -0.00000 0.11905 0.99289
vn -0.81241 0.55814 0.16873
vn -0.97977 0.01269 0.19971
vn -0.79981 0.40579 0.44232
vn -0.70576 -0.70501 0.06978
vn 0.00000 -0.99954 0.03041
vn -0.00000 -0.98976 0.14273
vn -0.65230 -0.74295 0.15008
vn -0.97712 0.18981 0.09595
vn 0.00000 0.73211 0.68119
vn -0.97977 0.01269 0.19971
vn -0.98403 0.16704 0.06143
vn -0.65935 0.75162 0.01790
vn -0.00000 -0.81862 0.57433
vn -0.72865 0.65487 0.20051
vn -0.44675 -0.45747 0.76885
vn -0.75379 0.55302 0.35492
vn -0.84858 0.22099 -0.48070
vn -0.42301 -0.85220 0.30793
vn 0.00000 -0.96909 0.24671
vn -0.11544 -0.92562 0.36041
vn -0.78239 0.62254 -0.01752
vn 0.35258 0.24494 0.90316
vn -0.84579 0.52555 0.09186
vn -0.88240 0.46971 0.02724
vn -0.91832 0.39516 0.02332
vn -0.99843 -0.00015 0.05603
vn -0.58456 -0.56522 -0.58209
vn 0.52885 -0.84209 0.10582
vn 0.14527 -0.92652 0.34708
vn 0.14527 -0.92652 0.34708
vn 0.52885 -0.84209 0.10582
vn -0.95249 -0.29969 0.05431
vn -0.98368 0.16397 0.07402
vn -0.97019 0.24107 0.02481
vn -0.00000 0.99976 0.02185
vn 0.00000 0.95071 0.31010
vn -0.84579 0.52555 0.09186
vn -0.78904 0.60765 0.09041
vn -0.55531 0.82468 -0.10739
vn -0.60581 0.79103 -0.08524
vn -0.48911 0.87099 -0.04638
vn -0.47030 0.88221 -0.02293
vn -0.40655 0.90645 -0.11433
vn -0.00000 0.98718 -0.15961
vn -0.85351 -0.51971 0.03770
vn 0.00000 0.99809 0.06174
vn 0.00000 0.99978 -0.02093
vn 0.00000 -0.99993 -0.01182
vn 0.00000 0.99750 -0.07067
vn 0.00000 0.99938 -0.03523
vn -0.50773 0.59501 -0.62303
vn -0.19843 0.93044 -0.30805
vn -0.56711 0.62933 -0.53135
vn -0.71840 -0.59500 0.36039
vn -0.64779 -0.76154 0.02057
vn -0.92565 0.37803 -0.01640
vn -0.70119 0.38320 0.60124
vn -0.41856 -0.11501 0.90088
vn -0.74844 -0.40563 -0.52469
vn -0.70655 0.60034 -0.37466
vn -0.88353 0.36286 -0.29614
vn -0.80463 -0.54320 -0.23980
vn -0.44596 -0.70057 0.55707
vn -0.11931 -0.95426 0.27413
vn -0.62714 -0.77890 -0.00149
vn -0.58415 -0.62600 -0.51662
vn -0.15865 -0.89110 -0.42516
vn -0.36403 -0.48578 -0.79467
vn -0.18415 -0.96453 -0.18914
vn -0.48360 0.00587 0.87527
vn -0.24123 0.49873 0.83251
vn -0.36071 0.67310 0.64562
vn -0.51731 -0.82281 -0.23533
vn -0.17451 -0.98367 -0.04410
vn -0.34292 0.86410 0.36842
vn -0.51982 0.84360 -0.13467
vn -0.54151 0.83639 -0.08494
vn -0.94251 0.15945 0.29369
vn 0.00000 0.99981 0.01964
vn -0.69878 0.58546 0.41103
vn -0.71840 -0.59500 0.36039
vn -0.00000 -0.99594 -0.09005
vn -0.64779 -0.76154 0.02057
vn -0.41856 -0.11501 0.90088
vn 0.00000 0.08001 -0.99679
vn -0.80463 -0.54320 -0.23980
vn -0.74844 -0.40563 -0.52469
vn -0.91945 0.06962 -0.38698
vn -0.80608 0.58975 -0.04930
vn 0.00000 0.08001 -0.99679
vn -0.41856 -0.11501 0.90088
vn -0.50453 -0.37841 -0.77605
vn -0.59694 0.52758 -0.60442
vn -0.33161 0.43676 -0.83623
vn -0.38779 0.83874 -0.38228
vn -0.19850 0.80361 -0.56107
vn -0.05758 0.97869 -0.19712
vn 0.13259 0.91896 0.37140
vn 0.34147 0.93136 0.12634
vn 0.07996 0.99446 -0.06826
vn -0.00000 -0.92956 0.36867
vn -0.00000 -0.98882 0.14914
vn -0.19745 -0.70311 0.68312
vn 0.00000 0.94573 -0.32496
vn -0.00000 -0.84920 -0.52807
vn -0.00000 -0.52796 -0.84927
vn -0.00000 -0.98938 -0.14534
vn -0.14901 0.94817 0.28066
vn -0.10296 0.76140 0.64005
vn -0.00000 0.65061 -0.75942
vn -0.05703 0.99259 0.10731
vn 0.00826 0.84618 0.53284
vn -0.41478 0.89745 0.15012
vn -0.43341 0.89665 -0.09042
vn -0.61921 0.77707 0.11291
vn -0.18986 0.94161 -0.27807
vn -0.22919 0.97245 -0.04264
vn -0.03997 0.94983 -0.31021
vn 0.39674 0.74745 -0.53285
vn -0.01338 0.77253 -0.63483
vn -0.50453 -0.37841 -0.77605
vn 0.07025 0.95195 -0.29810
vn 0.41113 0.90943 -0.06244
vn 0.00014 0.91039 -0.41375
vn -0.39186 0.81388 -0.42902
vn 0.06078 0.58680 -0.80745
vn -0.03422 0.99928 0.01648
vn 0.39674 0.74745 -0.53285
vn 0.45873 0.82321 -0.33451
vn -0.01338 0.77253 -0.63483
vn 0.41113 0.90943 -0.06244
vn -0.38083 0.66697 -0.64041
vn 0.04161 0.95517 -0.29311
vn -0.46031 0.85442 -0.24100
vn 0.04161 0.95517 -0.29311
vn -0.38083 0.66697 -0.64041
vn -0.46031 0.85442 -0.24100
vn -0.48360 0.00587 0.87527
vn -0.19745 -0.70311 0.68312
vn -0.00000 -0.92956 0.36867
vn -0.36071 0.67310 0.64562
vn -0.14901 0.94817 0.28066
vn -0.33161 0.43676 -0.83623
vn -0.59694 0.52758 -0.60442
vn -0.94251 0.15945 0.29369
vn -0.69878 0.58546 0.41103
vn -0.91945 0.06962 -0.38698
vn -0.41856 -0.11501 0.90088
vn -0.48360 0.00587 0.87527
vn -0.80608 0.58975 -0.04930
vn -0.00000 0.65061 -0.75942
vn 0.88959 -0.43964 0.12390
vn 0.02453 0.98025 -0.19624
vn 0.25192 0.81750 0.51791
vn 0.77229 -0.56286 0.29455
vn -0.81325 0.54001 -0.21682
vn -0.42697 -0.74186 -0.51705
vn -0.79200 0.53131 -0.30073
vn -0.20488 -0.68037 -0.70365
vn 0.77229 -0.56286 0.29455
vn 0.88959 -0.43964 0.12390
vn 0.26713 0.94601 0.18361
vn 0.03143 -0.78557 0.61798
vn -0.66356 0.72138 0.19824
vn -0.54776 0.32261 0.77194
vn -0.54776 0.32261 0.77194
vn 0.03143 -0.78557 0.61798
vn 0.87904 -0.27647 0.38840
vn 0.00475 -0.99155 -0.12961
vn -0.98174 0.15327 -0.11267
vn -0.65296 0.64539 0.39639
vn 0.78841 -0.50550 0.35053
vn -0.65296 0.64539 0.39639
vn -0.89100 0.12109 0.43756
vn -0.89100 0.12109 0.43756
vn 0.00475 -0.99155 -0.12961
vn 0.26713 0.94601 0.18361
vn 0.88959 -0.43964 0.12390
vn 0.87822 -0.32506 0.35080
vn 0.87432 0.46109 -0.15156
vn 0.02453 0.98025 -0.19624
vn -0.79200 0.53131 -0.30073
vn 0.02453 0.98025 -0.19624
vn -0.55911 0.82807 -0.04121
vn 0.87432 0.46109 -0.15156
vn -0.20488 -0.68037 -0.70365
vn -0.22443 -0.80816 -0.54452
vn 0.79154 -0.60287 0.10009
vn 0.75422 -0.60746 0.24929
vn -0.46320 0.66773 0.58274
vn -0.20488 -0.68037 -0.70365
vn -0.88186 0.20607 -0.42409
vn -0.46320 0.66773 0.58274
vn -0.72747 0.67567 -0.11935
vn -0.10436 0.40232 0.90953
vn -0.10436 0.40232 0.90953
vn 0.27661 -0.00037 0.96098
vn -0.22443 -0.80816 -0.54452
vn -0.81422 0.52874 0.23973
vn -0.77323 0.54243 0.32845
vn 0.27661 -0.00037 0.96098
vn -0.87484 0.39313 0.28302
vn -0.16664 0.77805 0.60570
vn -0.16664 0.77805 0.60570
vn -0.32647 -0.73647 0.59248
vn -0.32647 -0.73647 0.59248
vn -0.11544 -0.92562 0.36041
vn -0.65230 -0.74295 0.15008
vn -0.23407 0.95639 -0.17472
vn -0.04941 0.98434 -0.16923
vn -0.00000 -0.98976 0.14273
vn -0.00718 0.73431 -0.67878
vn -0.02750 0.53923 -0.84171
vn -0.09523 0.98632 -0.13455
vn -0.63280 0.59702 0.49309
vn -0.75695 0.55301 -0.34815
vn -0.75533 0.52904 -0.38678
vn -0.33301 -0.34593 -0.87718
vn 0.24146 -0.96306 0.11922
vn 0.24146 -0.96306 0.11922
vn 0.03305 -0.27600 0.96059
vn -0.63796 -0.76755 0.06226
vn -0.28931 0.27130 0.91798
vn 0.32962 -0.94186 -0.06525
vn -0.28931 0.27130 0.91798
vn 0.88386 0.09710 0.45757
vn 0.32962 -0.94186 -0.06525
vn -0.63796 -0.76755 0.06226
vn 0.32925 0.88023 0.34174
vn 0.06651 -0.26907 0.96082
vn -0.96405 0.25464 0.07595
vn 0.94015 -0.31868 0.12069
vn 0.06651 -0.26907 0.96082
vn 0.32925 0.88023 0.34174
vn -0.32830 -0.94439 0.01889
vn -0.32830 -0.94439 0.01889
vn 0.30282 0.88916 0.34307
vn -0.06110 -0.58558 0.80831
vn -0.97782 0.13166 0.16290
vn 0.93457 -0.35312 0.04347
vn -0.06110 -0.58558 0.80831
vn 0.30282 0.88916 0.34307
vn -0.28321 -0.95802 0.04452
vn -0.28321 -0.95802 0.04452
vn -0.83888 0.47731 -0.26165
vn -0.88530 -0.06389 -0.46061
vn -0.81838 0.29320 -0.49425
vn -0.48603 -0.65699 -0.57632
vn -0.83260 0.45970 -0.30895
vn -0.81838 0.29320 -0.49425
vn -0.04875 -0.76350 -0.64396
vn -0.09718 0.92594 0.36495
vn -0.12194 0.98499 -0.12216
vn 0.84129 -0.22612 0.49101
vn 0.94640 0.20814 0.24698
vn 0.84129 -0.22612 0.49101
vn 0.94640 0.20814 0.24698
vn -0.36483 -0.58715 -0.72260
vn -0.88456 0.39500 -0.24805
vn -0.20207 0.64621 0.73592
vn 0.56760 -0.71988 0.39951
vn 0.56760 -0.71988 0.39951
vn -0.63280 0.59702 0.49309
vn -0.75695 0.55301 -0.34815
vn -0.33301 -0.34593 -0.87718
vn 0.24146 -0.96306 0.11922
vn 0.03305 -0.27600 0.96059
vn 0.00000 0.99074 -0.13578
vn -0.00000 0.99964 -0.02677
vn 0.00000 0.99253 0.12198
vn 0.00000 0.98755 0.15731
vn 0.00000 -0.97276 0.23180
vn 0.00000 0.99742 -0.07175
vn 0.00000 0.99208 -0.12562
vn 0.00000 0.98949 -0.14462
vn 0.00000 0.99394 -0.10993
vn 0.00000 -0.96909 0.24671
vn 0.00000 0.98755 0.15731
vn 0.00000 -0.99448 0.10490
vn 0.00000 -0.99903 -0.04413
vn -0.00000 -0.99994 -0.01079
vn 0.00000 0.96158 0.27454
vn 0.00000 0.98757 0.15720
vn 0.00000 0.98944 -0.14497
vn 0.00000 0.96562 -0.25995
vn 0.00000 0.99961 -0.02791
vn 0.00000 0.96158 0.27454
vn 0.24146 -0.96306 0.11922
vn -0.04875 -0.76350 -0.64396
vn -0.12194 0.98499 -0.12216
vn 0.14525 -0.34210 0.92837
vn -0.94706 0.27469 0.16617
vn 0.70429 0.70241 0.10296
vn 0.93513 0.30738 0.17618
vn -0.44463 0.87130 0.20770
vn -0.49938 0.85956 0.10855
vn 0.76033 0.22577 0.60904
vn 0.93513 0.30738 0.17618
vn 0.72222 -0.68878 0.06306
vn 0.76033 0.22577 0.60904
vn -0.40836 -0.87472 0.26099
vn -0.42245 0.62087 0.66035
vn -0.42245 0.62087 0.66035
vn 0.86962 -0.36788 0.32927
vn 0.14525 -0.34210 0.92837
vn -0.99590 -0.08798 0.02113
vn -0.40836 -0.87472 0.26099
vn -0.66019 -0.64987 -0.37657
vn 0.87248 -0.48249 -0.07735
vn 0.31264 0.94648 -0.08022
vn -0.12194 0.98499 -0.12216
vn 0.94640 0.20814 0.24698
vn 0.96466 -0.03664 0.26094
vn 0.31264 0.94648 -0.08022
vn 0.87248 -0.48249 -0.07735
vn 0.69951 -0.68697 0.19687
vn 0.70429 0.70241 0.10296
vn -0.04875 -0.76350 -0.64396
vn 0.69951 -0.68697 0.19687
vn 0.10555 -0.51482 -0.85077
vn 0.16569 0.55691 -0.81388
vn 0.10555 -0.51482 -0.85077
vn -0.06639 0.82108 -0.56694
vn 0.45316 0.87750 -0.15695
vn 0.37079 0.91933 -0.13172
vn 0.80991 0.54965 -0.20477
vn 0.82866 0.51544 -0.21827
vn 0.41116 0.91030 0.04802
vn 0.80957 0.47354 0.34691
vn 0.78342 -0.58000 0.22327
vn 0.75281 -0.17858 -0.63355
vn 0.04552 -0.89771 -0.43824
vn 0.04552 -0.89771 -0.43824
vn 0.11127 -0.99366 -0.01614
vn 0.28021 -0.93806 -0.20376
vn 0.37126 -0.92471 -0.08414
vn 0.85045 -0.50834 -0.13538
vn 0.81629 -0.56300 0.12926
vn 0.99359 0.04555 0.10348
vn 0.95479 0.26946 -0.12557
vn 0.22351 -0.94364 0.24409
vn 0.38663 -0.91008 0.14924
vn 0.93177 0.36214 -0.02549
vn 0.53079 -0.81702 -0.22525
vn 0.88861 0.44846 -0.09627
vn 0.98320 0.05897 -0.17277
vn 0.69824 0.71023 -0.08966
vn 0.55051 0.83375 -0.04233
vn 0.56042 0.82283 -0.09424
vn 0.66877 0.74292 -0.02862
vn 0.71083 0.70065 0.06171
vn 0.73118 0.65559 0.18862
vn 0.67061 0.73237 0.11798
vn 0.41056 -0.80529 0.42773
vn 0.75580 -0.64365 -0.12033
vn 0.90947 0.28243 0.30512
vn 0.97349 -0.20456 0.10235
vn 0.99263 0.00966 0.12076
vn 0.81241 0.55814 0.16873
vn 0.79981 0.40579 0.44232
vn 0.97977 0.01269 0.19971
vn 0.70576 -0.70501 0.06978
vn 0.65230 -0.74295 0.15008
vn 0.97712 0.18981 0.09595
vn 0.98403 0.16704 0.06143
vn 0.97977 0.01269 0.19971
vn 0.65935 0.75162 0.01790
vn 0.72865 0.65487 0.20051
vn 0.75379 0.55302 0.35492
vn 0.44675 -0.45747 0.76885
vn 0.84858 0.22099 -0.48070
vn 0.42301 -0.85220 0.30793
vn 0.11544 -0.92562 0.36041
vn 0.78239 0.62254 -0.01752
vn -0.35258 0.24494 0.90316
vn 0.84579 0.52555 0.09186
vn 0.88240 0.46971 0.02724
vn 0.91832 0.39516 0.02332
vn 0.99843 -0.00015 0.05603
vn -0.14527 -0.92652 0.34708
vn -0.52885 -0.84209 0.10582
vn 0.58455 -0.56522 -0.58209
vn -0.14527 -0.92652 0.34708
vn -0.52885 -0.84209 0.10582
vn 0.95249 -0.29970 0.05431
vn 0.98368 0.16397 0.07402
vn 0.97019 0.24107 0.02481
vn 0.84579 0.52555 0.09186
vn 0.78904 0.60765 0.09041
vn 0.60581 0.79103 -0.08524
vn 0.55531 0.82468 -0.10739
vn 0.48911 0.87099 -0.04638
vn 0.47030 0.88221 -0.02293
vn 0.40655 0.90645 -0.11433
vn 0.85351 -0.51971 0.03770
vn 0.50773 0.59501 -0.62303
vn 0.56711 0.62933 -0.53135
vn 0.19843 0.93044 -0.30805
vn 0.71840 -0.59500 0.36039
vn 0.70119 0.38320 0.60124
vn 0.92565 0.37803 -0.01640
vn 0.64779 -0.76154 0.02057
vn 0.41856 -0.11501 0.90088
vn 0.74844 -0.40563 -0.52469
vn 0.80463 -0.54320 -0.23980
vn 0.88353 0.36286 -0.29614
vn 0.70655 0.60034 -0.37466
vn 0.44596 -0.70057 0.55707
vn 0.62714 -0.77890 -0.00149
vn 0.11931 -0.95426 0.27413
vn 0.58415 -0.62600 -0.51662
vn 0.36402 -0.48578 -0.79467
vn 0.15865 -0.89111 -0.42516
vn 0.18415 -0.96453 -0.18914
vn 0.48360 0.00587 0.87527
vn 0.36071 0.67310 0.64562
vn 0.24123 0.49873 0.83251
vn 0.51731 -0.82281 -0.23533
vn 0.17451 -0.98367 -0.04410
vn 0.34292 0.86410 0.36842
vn 0.51982 0.84360 -0.13467
vn 0.54151 0.83639 -0.08494
vn 0.94251 0.15945 0.29369
vn 0.69878 0.58546 0.41103
vn 0.71840 -0.59500 0.36039
vn 0.64779 -0.76154 0.02057
vn 0.41856 -0.11501 0.90088
vn 0.80463 -0.54320 -0.23980
vn 0.74844 -0.40563 -0.52469
vn 0.91945 0.06962 -0.38698
vn 0.80608 0.58975 -0.04930
vn 0.41856 -0.11501 0.90088
vn 0.50453 -0.37841 -0.77605
vn 0.59694 0.52758 -0.60442
vn 0.33160 0.43676 -0.83623
vn 0.38779 0.83874 -0.38228
vn 0.19850 0.80361 -0.56107
vn 0.05758 0.97869 -0.19712
vn -0.13259 0.91896 0.37140
vn -0.07996 0.99446 -0.06826
vn -0.34147 0.93136 0.12634
vn 0.19745 -0.70311 0.68312
vn 0.10296 0.76140 0.64005
vn 0.14901 0.94817 0.28066
vn 0.05703 0.99259 0.10731
vn 0.41478 0.89745 0.15012
vn -0.00826 0.84618 0.53284
vn 0.43341 0.89665 -0.09042
vn 0.61921 0.77707 0.11291
vn 0.22919 0.97245 -0.04264
vn 0.18986 0.94161 -0.27807
vn 0.03997 0.94983 -0.31021
vn 0.01338 0.77254 -0.63483
vn -0.39673 0.74745 -0.53285
vn 0.50453 -0.37841 -0.77605
vn -0.07025 0.95195 -0.29809
vn -0.41113 0.90943 -0.06244
vn -0.00014 0.91039 -0.41375
vn -0.06078 0.58680 -0.80745
vn 0.39186 0.81388 -0.42902
vn 0.03422 0.99928 0.01648
vn -0.39673 0.74745 -0.53285
vn 0.01338 0.77254 -0.63483
vn -0.45873 0.82321 -0.33451
vn -0.41113 0.90943 -0.06244
vn 0.38083 0.66697 -0.64041
vn -0.04161 0.95517 -0.29311
vn -0.04161 0.95517 -0.29311
vn 0.46031 0.85442 -0.24100
vn 0.38083 0.66697 -0.64041
vn 0.46031 0.85442 -0.24100
vn 0.48360 0.00587 0.87527
vn 0.19745 -0.70311 0.68312
vn 0.14901 0.94817 0.28066
vn 0.36071 0.67310 0.64562
vn 0.59694 0.52758 -0.60442
vn 0.33160 0.43676 -0.83623
vn 0.94251 0.15945 0.29369
vn 0.69878 0.58546 0.41103
vn 0.91945 0.06962 -0.38698
vn 0.41856 -0.11501 0.90088
vn 0.48360 0.00587 0.87527
vn 0.80608 0.58975 -0.04930
vn -0.88959 -0.43964 0.12390
vn -0.77229 -0.56286 0.29455
vn -0.25192 0.81750 0.51791
vn -0.02453 0.98025 -0.19624
vn 0.42697 -0.74186 -0.51705
vn 0.81325 0.54001 -0.21682
vn 0.20488 -0.68037 -0.70365
vn 0.79200 0.53131 -0.30074
vn -0.77229 -0.56286 0.29455
vn -0.88959 -0.43964 0.12390
vn -0.26713 0.94601 0.18361
vn 0.66356 0.72138 0.19824
vn -0.03143 -0.78557 0.61798
vn 0.54776 0.32261 0.77194
vn 0.54776 0.32261 0.77194
vn -0.87904 -0.27647 0.38840
vn -0.03143 -0.78557 0.61798
vn -0.00475 -0.99155 -0.12960
vn 0.65296 0.64539 0.39639
vn 0.98174 0.15327 -0.11267
vn -0.78841 -0.50550 0.35053
vn 0.89100 0.12109 0.43756
vn 0.65296 0.64539 0.39639
vn 0.89100 0.12109 0.43756
vn -0.00475 -0.99155 -0.12960
vn -0.26713 0.94601 0.18361
vn -0.88959 -0.43964 0.12390
vn -0.02453 0.98025 -0.19624
vn -0.87432 0.46109 -0.15155
vn -0.87822 -0.32506 0.35080
vn 0.79200 0.53131 -0.30074
vn 0.55911 0.82807 -0.04121
vn -0.02453 0.98025 -0.19624
vn -0.87432 0.46109 -0.15155
vn 0.20488 -0.68037 -0.70365
vn -0.79154 -0.60287 0.10009
vn 0.22443 -0.80816 -0.54452
vn -0.75422 -0.60746 0.24929
vn 0.46320 0.66773 0.58274
vn 0.20488 -0.68037 -0.70365
vn 0.88186 0.20607 -0.42409
vn 0.72747 0.67567 -0.11935
vn 0.46320 0.66773 0.58274
vn 0.10436 0.40233 0.90953
vn 0.10436 0.40233 0.90953
vn -0.27661 -0.00036 0.96098
vn 0.22443 -0.80816 -0.54452
vn 0.81422 0.52874 0.23973
vn 0.77323 0.54243 0.32845
vn -0.27661 -0.00036 0.96098
vn 0.87484 0.39313 0.28302
vn 0.16664 0.77805 0.60570
vn 0.16664 0.77805 0.60570
vn 0.32647 -0.73647 0.59248
vn 0.32647 -0.73647 0.59248
vn 0.11544 -0.92562 0.36041
vn 0.65230 -0.74295 0.15008
vn 0.23407 0.95639 -0.17472
vn 0.04941 0.98434 -0.16923
vn 0.00718 0.73431 -0.67878
vn 0.02750 0.53923 -0.84171
vn 0.09523 0.98632 -0.13455
vn 0.75533 0.52904 -0.38678
vn 0.75695 0.55301 -0.34815
vn 0.63280 0.59702 0.49309
vn 0.33301 -0.34593 -0.87718
vn -0.24146 -0.96306 0.11922
vn -0.24146 -0.96306 0.11922
vn -0.03305 -0.27600 0.96059
vn 0.63796 -0.76755 0.06226
vn -0.32962 -0.94186 -0.06525
vn 0.28931 0.27130 0.91798
vn 0.28931 0.27130 0.91798
vn -0.32962 -0.94186 -0.06525
vn -0.88386 0.09710 0.45757
vn 0.63796 -0.76755 0.06226
vn -0.32925 0.88023 0.34174
vn 0.96405 0.25464 0.07595
vn -0.06651 -0.26906 0.96082
vn -0.94015 -0.31868 0.12069
vn -0.32925 0.88023 0.34174
vn -0.06651 -0.26906 0.96082
vn 0.32830 -0.94439 0.01889
vn 0.32830 -0.94439 0.01889
vn -0.30282 0.88916 0.34307
vn 0.97782 0.13166 0.16290
vn 0.06110 -0.58558 0.80831
vn -0.93457 -0.35312 0.04347
vn -0.30282 0.88916 0.34307
vn 0.06110 -0.58558 0.80831
vn 0.28321 -0.95802 0.04452
vn 0.28321 -0.95802 0.04452
vn 0.83888 0.47731 -0.26165
vn 0.81838 0.29320 -0.49425
vn 0.88530 -0.06389 -0.46061
vn 0.48603 -0.65699 -0.57632
vn 0.04875 -0.76350 -0.64396
vn 0.81838 0.29320 -0.49425
vn 0.83260 0.45970 -0.30895
vn 0.12194 0.98499 -0.12216
vn 0.09718 0.92594 0.36495
vn -0.94640 0.20814 0.24698
vn -0.84129 -0.22612 0.49101
vn -0.84129 -0.22612 0.49101
vn -0.94640 0.20814 0.24698
vn 0.88456 0.39500 -0.24805
vn 0.36483 -0.58715 -0.72260
vn 0.20207 0.64621 0.73592
vn -0.56760 -0.71988 0.39951
vn -0.56760 -0.71988 0.39951
vn 0.63280 0.59702 0.49309
vn 0.75695 0.55301 -0.34815
vn 0.33301 -0.34593 -0.87718
vn -0.24146 -0.96306 0.11922
vn -0.03305 -0.27600 0.96059
vn -0.24146 -0.96306 0.11922
vn 0.04875 -0.76350 -0.64396
vn 0.12194 0.98499 -0.12216
vn -0.14525 -0.34209 0.92837
vn 0.94706 0.27469 0.16617
vn -0.70429 0.70241 0.10296
vn 0.49938 0.85956 0.10855
vn 0.44463 0.87130 0.20770
vn -0.93514 0.30738 0.17618
vn -0.76033 0.22577 0.60904
vn -0.72222 -0.68878 0.06306
vn -0.93514 0.30738 0.17618
vn -0.76033 0.22577 0.60904
vn 0.40836 -0.87472 0.26099
vn 0.42245 0.62087 0.66035
vn -0.86962 -0.36788 0.32927
vn 0.42245 0.62087 0.66035
vn -0.14525 -0.34209 0.92837
vn 0.99590 -0.08798 0.02113
vn 0.40836 -0.87472 0.26099
vn 0.66019 -0.64987 -0.37657
vn -0.87248 -0.48249 -0.07735
vn -0.31264 0.94648 -0.08022
vn -0.96466 -0.03664 0.26094
vn -0.94640 0.20814 0.24698
vn 0.12194 0.98499 -0.12216
vn -0.31264 0.94648 -0.08022
vn -0.87248 -0.48249 -0.07735
vn -0.69951 -0.68697 0.19687
vn -0.70429 0.70241 0.10296
vn 0.04875 -0.76350 -0.64396
vn -0.69951 -0.68697 0.19687
f 675/675/675 684/684/684 678/678/678
f 364/364/364 367/367/367 373/373/373
f 358/358/358 359/359/359 287/287/287
f 287/287/287 289/289/289 358/358/358
f 290/290/290 288/288/288 287/287/287
f 287/287/287 288/288/288 289/289/289
f 371/371/371 358/358/358 374/374/374
f 374/374/374 358/358/358 362/362/362
f 354/354/354 371/371/371 374/374/374
f 353/353/353 372/372/372 371/371/371
f 371/371/371 354/354/354 353/353/353
f 368/368/368 371/371/371 372/372/372
f 362/362/362 354/354/354 374/374/374
f 352/352/352 354/354/354 362/362/362
f 352/352/352 353/353/353 354/354/354
f 365/365/365 368/368/368 372/372/372
f 367/367/367 368/368/368 365/365/365
f 365/365/365 366/366/366 367/367/367
f 367/367/367 364/364/364 368/368/368
f 618/618/618 669/669/669 670/670/670
f 670/670/670 619/619/619 618/618/618
f 621/621/621 618/618/618 620/620/620
f 618/618/618 619/619/619 620/620/620
f 685/685/685 670/670/670 682/682/682
f 685/685/685 673/673/673 670/670/670
f 664/664/664 685/685/685 682/682/682
f 665/665/665 664/664/664 682/682/682
f 682/682/682 683/683/683 665/665/665
f 677/677/677 683/683/683 682/682/682
f 673/673/673 685/685/685 664/664/664
f 663/663/663 673/673/673 664/664/664
f 663/663/663 664/664/664 665/665/665
f 676/676/676 683/683/683 677/677/677
f 678/678/678 677/677/677 675/675/675
f 676/676/676 677/677/677 678/678/678
f 678/678/678 679/679/679 676/676/676
f 283/283/283 281/281/281 280/280/280
f 280/280/280 281/281/281 282/282/282
f 295/295/295 281/281/281 283/283/283
f 283/283/283 298/298/298 295/295/295
f 360/360/360 281/281/281 295/295/295
f 295/295/295 297/297/297 360/360/360
f 298/298/298 296/296/296 295/295/295
f 295/295/295 296/296/296 297/297/297
f 281/281/281 360/360/360 359/359/359
f 360/360/360 290/290/290 287/287/287
f 287/287/287 359/359/359 360/360/360
f 368/368/368 281/281/281 359/359/359
f 364/364/364 281/281/281 368/368/368
f 282/282/282 281/281/281 364/364/364
f 371/371/371 359/359/359 358/358/358
f 368/368/368 359/359/359 371/371/371
f 614/614/614 611/611/611 613/613/613
f 611/611/611 612/612/612 613/613/613
f 626/626/626 629/629/629 614/614/614
f 614/614/614 613/613/613 626/626/626
f 677/677/677 669/669/669 613/613/613
f 675/675/675 677/677/677 613/613/613
f 612/612/612 675/675/675 613/613/613
f 613/613/613 669/669/669 671/671/671
f 626/626/626 613/613/613 671/671/671
f 671/671/671 627/627/627 626/626/626
f 629/629/629 626/626/626 628/628/628
f 626/626/626 627/627/627 628/628/628
f 671/671/671 669/669/669 618/618/618
f 618/618/618 621/621/621 671/671/671
f 670/670/670 669/669/669 682/682/682
f 677/677/677 682/682/682 669/669/669
f 472/472/472 458/458/458 470/470/470
f 472/472/472 471/471/471 498/498/498
f 470/470/470 471/471/471 472/472/472
f 499/499/499 498/498/498 471/471/471
f 502/502/502 498/498/498 494/494/494
f 494/494/494 498/498/498 499/499/499
f 494/494/494 499/499/499 337/337/337
f 337/337/337 163/163/163 153/153/153
f 163/163/163 127/127/127 164/164/164
f 153/153/153 163/163/163 164/164/164
f 164/164/164 127/127/127 126/126/126
f 126/126/126 127/127/127 125/125/125
f 125/125/125 113/113/113 126/126/126
f 636/636/636 638/638/638 639/639/639
f 646/646/646 639/639/639 641/641/641
f 640/640/640 641/641/641 639/639/639
f 639/639/639 638/638/638 640/640/640
f 653/653/653 649/649/649 646/646/646
f 647/647/647 653/653/653 646/646/646
f 641/641/641 647/647/647 646/646/646
f 653/653/653 647/647/647 654/654/654
f 642/642/642 643/643/643 635/635/635
f 568/568/568 582/582/582 577/577/577
f 567/567/567 582/582/582 568/568/568
f 567/567/567 568/568/568 565/565/565
f 565/565/565 566/566/566 567/567/567
f 560/560/560 559/559/559 593/593/593
f 559/559/559 584/584/584 593/593/593
f 559/559/559 561/561/561 563/563/563
f 559/559/559 560/560/560 561/561/561
f 227/227/227 261/261/261 252/252/252
f 229/229/229 261/261/261 227/227/227
f 227/227/227 231/231/231 228/228/228
f 227/227/227 228/228/228 229/229/229
f 235/235/235 236/236/236 233/233/233
f 233/233/233 234/234/234 235/235/235
f 235/235/235 234/234/234 250/250/250
f 234/234/234 245/245/245 250/250/250
f 118/118/118 201/201/201 203/203/203
f 158/158/158 118/118/118 203/203/203
f 118/118/118 120/120/120 200/200/200
f 200/200/200 201/201/201 118/118/118
f 118/118/118 158/158/158 119/119/119
f 118/118/118 119/119/119 120/120/120
f 129/129/129 119/119/119 157/157/157
f 120/120/120 119/119/119 129/129/129
f 119/119/119 158/158/158 156/156/156
f 156/156/156 157/157/157 119/119/119
f 203/203/203 204/204/204 158/158/158
f 465/465/465 157/157/157 156/156/156
f 156/156/156 497/497/497 465/465/465
f 474/474/474 157/157/157 465/465/465
f 474/474/474 162/162/162 157/157/157
f 129/129/129 157/157/157 162/162/162
f 463/463/463 534/534/534 533/533/533
f 463/463/463 536/536/536 534/534/534
f 536/536/536 463/463/463 497/497/497
f 463/463/463 465/465/465 497/497/497
f 497/497/497 537/537/537 536/536/536
f 121/121/121 199/199/199 202/202/202
f 121/121/121 128/128/128 124/124/124
f 202/202/202 128/128/128 121/121/121
f 120/120/120 128/128/128 202/202/202
f 202/202/202 205/205/205 120/120/120
f 120/120/120 205/205/205 200/200/200
f 5/5/5 147/147/147 6/6/6
f 5/5/5 6/6/6 7/7/7
f 147/147/147 142/142/142 6/6/6
f 6/6/6 137/137/137 484/484/484
f 488/488/488 6/6/6 484/484/484
f 377/377/377 6/6/6 488/488/488
f 377/377/377 7/7/7 6/6/6
f 6/6/6 142/142/142 137/137/137
f 141/141/141 137/137/137 142/142/142
f 138/138/138 137/137/137 141/141/141
f 136/136/136 137/137/137 138/138/138
f 137/137/137 136/136/136 139/139/139
f 481/481/481 483/483/483 137/137/137
f 483/483/483 484/484/484 137/137/137
f 137/137/137 140/140/140 482/482/482
f 482/482/482 480/480/480 137/137/137
f 133/133/133 144/144/144 134/134/134
f 133/133/133 134/134/134 135/135/135
f 478/478/478 134/134/134 486/486/486
f 490/490/490 134/134/134 165/165/165
f 134/134/134 490/490/490 489/489/489
f 485/485/485 134/134/134 489/489/489
f 487/487/487 145/145/145 134/134/134
f 134/134/134 479/479/479 487/487/487
f 485/485/485 486/486/486 134/134/134
f 478/478/478 479/479/479 134/134/134
f 149/149/149 165/165/165 134/134/134
f 134/134/134 148/148/148 149/149/149
f 143/143/143 148/148/148 134/134/134
f 146/146/146 135/135/135 134/134/134
f 134/134/134 145/145/145 146/146/146
f 143/143/143 134/134/134 144/144/144
f 223/223/223 259/259/259 221/221/221
f 221/221/221 222/222/222 223/223/223
f 223/223/223 243/243/243 244/244/244
f 252/252/252 259/259/259 223/223/223
f 244/244/244 252/252/252 223/223/223
f 223/223/223 234/234/234 243/243/243
f 223/223/223 232/232/232 245/245/245
f 245/245/245 234/234/234 223/223/223
f 232/232/232 223/223/223 222/222/222
f 244/244/244 243/243/243 242/242/242
f 243/243/243 234/234/234 233/233/233
f 243/243/243 233/233/233 241/241/241
f 241/241/241 242/242/242 243/243/243
f 242/242/242 231/231/231 244/244/244
f 244/244/244 227/227/227 252/252/252
f 244/244/244 231/231/231 227/227/227
f 554/554/554 553/553/553 591/591/591
f 553/553/553 554/554/554 555/555/555
f 554/554/554 576/576/576 574/574/574
f 584/584/584 554/554/554 591/591/591
f 576/576/576 554/554/554 584/584/584
f 554/554/554 574/574/574 568/568/568
f 554/554/554 568/568/568 577/577/577
f 577/577/577 564/564/564 554/554/554
f 564/564/564 555/555/555 554/554/554
f 576/576/576 575/575/575 574/574/574
f 575/575/575 576/576/576 563/563/563
f 576/576/576 584/584/584 559/559/559
f 576/576/576 559/559/559 563/563/563
f 574/574/574 565/565/565 568/568/568
f 574/574/574 575/575/575 573/573/573
f 573/573/573 565/565/565 574/574/574
f 496/496/496 597/597/597 500/500/500
f 496/496/496 500/500/500 502/502/502
f 494/494/494 496/496/496 502/502/502
f 500/500/500 501/501/501 502/502/502
f 498/498/498 502/502/502 501/501/501
f 501/501/501 475/475/475 498/498/498
f 501/501/501 503/503/503 475/475/475
f 476/476/476 456/456/456 503/503/503
f 456/456/456 504/504/504 503/503/503
f 503/503/503 505/505/505 476/476/476
f 503/503/503 504/504/504 475/475/475
f 455/455/455 475/475/475 504/504/504
f 498/498/498 475/475/475 472/472/472
f 472/472/472 475/475/475 455/455/455
f 456/456/456 455/455/455 504/504/504
f 455/455/455 458/458/458 472/472/472
f 454/454/454 458/458/458 455/455/455
f 169/169/169 130/130/130 170/170/170
f 112/112/112 170/170/170 130/130/130
f 112/112/112 126/126/126 113/113/113
f 126/126/126 112/112/112 130/130/130
f 109/109/109 112/112/112 113/113/113
f 164/164/164 130/130/130 168/168/168
f 126/126/126 130/130/130 164/164/164
f 265/265/265 168/168/168 264/264/264
f 166/166/166 168/168/168 265/265/265
f 168/168/168 167/167/167 164/164/164
f 166/166/166 167/167/167 168/168/168
f 264/264/264 172/172/172 269/269/269
f 264/264/264 269/269/269 155/155/155
f 265/265/265 264/264/264 155/155/155
f 265/265/265 155/155/155 154/154/154
f 154/154/154 166/166/166 265/265/265
f 154/154/154 167/167/167 166/166/166
f 167/167/167 154/154/154 153/153/153
f 480/480/480 481/481/481 137/137/137
f 139/139/139 140/140/140 137/137/137
f 587/587/587 588/588/588 590/590/590
f 552/552/552 587/587/587 590/590/590
f 588/588/588 589/589/589 592/592/592
f 589/589/589 562/562/562 592/592/592
f 562/562/562 589/589/589 558/558/558
f 562/562/562 558/558/558 557/557/557
f 585/585/585 556/556/556 558/558/558
f 558/558/558 579/579/579 585/585/585
f 556/556/556 557/557/557 558/558/558
f 579/579/579 578/578/578 585/585/585
f 578/578/578 579/579/579 569/569/569
f 569/569/569 570/570/570 571/571/571
f 570/570/570 583/583/583 572/572/572
f 571/571/571 570/570/570 572/572/572
f 440/440/440 450/450/450 336/336/336
f 336/336/336 335/335/335 440/440/440
f 103/103/103 450/450/450 417/417/417
f 417/417/417 60/60/60 103/103/103
f 61/61/61 60/60/60 417/417/417
f 417/417/417 418/418/418 61/61/61
f 418/418/418 417/417/417 420/420/420
f 431/431/431 432/432/432 101/101/101
f 102/102/102 101/101/101 432/432/432
f 101/101/101 326/326/326 431/431/431
f 78/78/78 326/326/326 101/101/101
f 101/101/101 79/79/79 78/78/78
f 79/79/79 101/101/101 102/102/102
f 66/66/66 65/65/65 78/78/78
f 78/78/78 79/79/79 66/66/66
f 102/102/102 80/80/80 79/79/79
f 66/66/66 79/79/79 80/80/80
f 59/59/59 66/66/66 81/81/81
f 80/80/80 81/81/81 66/66/66
f 66/66/66 59/59/59 62/62/62
f 62/62/62 65/65/65 66/66/66
f 88/88/88 81/81/81 80/80/80
f 87/87/87 100/100/100 81/81/81
f 81/81/81 88/88/88 87/87/87
f 81/81/81 100/100/100 59/59/59
f 103/103/103 60/60/60 59/59/59
f 59/59/59 100/100/100 103/103/103
f 61/61/61 62/62/62 59/59/59
f 59/59/59 60/60/60 61/61/61
f 103/103/103 100/100/100 336/336/336
f 336/336/336 100/100/100 87/87/87
f 87/87/87 335/335/335 336/336/336
f 103/103/103 336/336/336 450/450/450
f 14/14/14 13/13/13 12/12/12
f 193/193/193 196/196/196 15/15/15
f 14/14/14 15/15/15 196/196/196
f 324/324/324 14/14/14 197/197/197
f 13/13/13 14/14/14 324/324/324
f 196/196/196 197/197/197 14/14/14
f 324/324/324 99/99/99 13/13/13
f 13/13/13 99/99/99 98/98/98
f 529/529/529 383/383/383 324/324/324
f 324/324/324 342/342/342 529/529/529
f 324/324/324 383/383/383 380/380/380
f 380/380/380 99/99/99 324/324/324
f 197/197/197 342/342/342 324/324/324
f 323/323/323 99/99/99 449/449/449
f 449/449/449 99/99/99 380/380/380
f 23/23/23 26/26/26 390/390/390
f 390/390/390 389/389/389 23/23/23
f 410/410/410 390/390/390 391/391/391
f 390/390/390 410/410/410 409/409/409
f 409/409/409 389/389/389 390/390/390
f 35/35/35 397/397/397 391/391/391
f 391/391/391 397/397/397 393/393/393
f 393/393/393 392/392/392 391/391/391
f 391/391/391 392/392/392 410/410/410
f 401/401/401 410/410/410 392/392/392
f 410/410/410 401/401/401 411/411/411
f 411/411/411 409/409/409 410/410/410
f 607/607/607 409/409/409 411/411/411
f 409/409/409 607/607/607 606/606/606
f 606/606/606 389/389/389 409/409/409
f 388/388/388 389/389/389 606/606/606
f 23/23/23 389/389/389 388/388/388
f 388/388/388 24/24/24 23/23/23
f 23/23/23 24/24/24 21/21/21
f 21/21/21 22/22/22 23/23/23
f 21/21/21 275/275/275 22/22/22
f 50/50/50 22/22/22 275/275/275
f 275/275/275 276/276/276 50/50/50
f 52/52/52 50/50/50 276/276/276
f 276/276/276 270/270/270 52/52/52
f 271/271/271 272/272/272 52/52/52
f 52/52/52 270/270/270 271/271/271
f 272/272/272 271/271/271 273/273/273
f 273/273/273 17/17/17 272/272/272
f 20/20/20 17/17/17 273/273/273
f 273/273/273 274/274/274 20/20/20
f 17/17/17 20/20/20 18/18/18
f 16/16/16 17/17/17 18/18/18
f 12/12/12 17/17/17 16/16/16
f 386/386/386 18/18/18 387/387/387
f 18/18/18 386/386/386 385/385/385
f 385/385/385 19/19/19 18/18/18
f 18/18/18 19/19/19 16/16/16
f 15/15/15 16/16/16 193/193/193
f 195/195/195 194/194/194 16/16/16
f 16/16/16 19/19/19 195/195/195
f 193/193/193 16/16/16 194/194/194
f 16/16/16 15/15/15 12/12/12
f 12/12/12 15/15/15 14/14/14
f 37/37/37 31/31/31 67/67/67
f 32/32/32 31/31/31 37/37/37
f 36/36/36 32/32/32 38/38/38
f 32/32/32 36/36/36 27/27/27
f 37/37/37 38/38/38 32/32/32
f 27/27/27 36/36/36 35/35/35
f 35/35/35 28/28/28 27/27/27
f 27/27/27 25/25/25 51/51/51
f 25/25/25 27/27/27 28/28/28
f 51/51/51 50/50/50 52/52/52
f 50/50/50 51/51/51 25/25/25
f 25/25/25 23/23/23 22/22/22
f 25/25/25 22/22/22 50/50/50
f 28/28/28 26/26/26 25/25/25
f 23/23/23 25/25/25 26/26/26
f 391/391/391 28/28/28 35/35/35
f 28/28/28 391/391/391 390/390/390
f 390/390/390 26/26/26 28/28/28
f 217/217/217 219/219/219 249/249/249
f 249/249/249 248/248/248 217/217/217
f 217/217/217 218/218/218 219/219/219
f 254/254/254 219/219/219 255/255/255
f 219/219/219 220/220/220 255/255/255
f 219/219/219 254/254/254 249/249/249
f 219/219/219 218/218/218 220/220/220
f 254/254/254 225/225/225 249/249/249
f 247/247/247 237/237/237 249/249/249
f 225/225/225 247/247/247 249/249/249
f 248/248/248 249/249/249 237/237/237
f 248/248/248 239/239/239 251/251/251
f 237/237/237 239/239/239 248/248/248
f 246/246/246 237/237/237 247/247/247
f 237/237/237 238/238/238 239/239/239
f 247/247/247 253/253/253 246/246/246
f 323/323/323 98/98/98 99/99/99
f 97/97/97 98/98/98 323/323/323
f 323/323/323 449/449/449 448/448/448
f 448/448/448 328/328/328 323/323/323
f 323/323/323 328/328/328 97/97/97
f 448/448/448 449/449/449 379/379/379
f 380/380/380 379/379/379 449/449/449
f 381/381/381 380/380/380 383/383/383
f 379/379/379 380/380/380 381/381/381
f 382/382/382 403/403/403 379/379/379
f 379/379/379 403/403/403 448/448/448
f 381/381/381 382/382/382 379/379/379
f 328/328/328 448/448/448 447/447/447
f 447/447/447 448/448/448 403/403/403
f 447/447/447 329/329/329 328/328/328
f 329/329/329 447/447/447 446/446/446
f 447/447/447 402/402/402 404/404/404
f 404/404/404 446/446/446 447/447/447
f 403/403/403 402/402/402 447/447/447
f 403/403/403 382/382/382 400/400/400
f 402/402/402 403/403/403 400/400/400
f 395/395/395 404/404/404 402/402/402
f 402/402/402 401/401/401 395/395/395
f 400/400/400 401/401/401 402/402/402
f 446/446/446 404/404/404 422/422/422
f 422/422/422 404/404/404 395/395/395
f 43/43/43 41/41/41 96/96/96
f 30/30/30 42/42/42 41/41/41
f 41/41/41 43/43/43 30/30/30
f 94/94/94 96/96/96 329/329/329
f 96/96/96 94/94/94 43/43/43
f 328/328/328 329/329/329 96/96/96
f 96/96/96 97/97/97 328/328/328
f 67/67/67 43/43/43 94/94/94
f 30/30/30 43/43/43 67/67/67
f 67/67/67 31/31/31 30/30/30
f 42/42/42 30/30/30 29/29/29
f 29/29/29 30/30/30 31/31/31
f 29/29/29 51/51/51 42/42/42
f 52/52/52 42/42/42 51/51/51
f 27/27/27 29/29/29 32/32/32
f 51/51/51 29/29/29 27/27/27
f 31/31/31 32/32/32 29/29/29
f 11/11/11 10/10/10 40/40/40
f 97/97/97 40/40/40 10/10/10
f 10/10/10 98/98/98 97/97/97
f 98/98/98 10/10/10 13/13/13
f 12/12/12 13/13/13 10/10/10
f 10/10/10 11/11/11 12/12/12
f 11/11/11 17/17/17 12/12/12
f 11/11/11 272/272/272 17/17/17
f 11/11/11 52/52/52 272/272/272
f 39/39/39 52/52/52 11/11/11
f 40/40/40 39/39/39 11/11/11
f 40/40/40 97/97/97 96/96/96
f 96/96/96 41/41/41 40/40/40
f 39/39/39 40/40/40 41/41/41
f 52/52/52 39/39/39 42/42/42
f 41/41/41 42/42/42 39/39/39
f 442/442/442 90/90/90 104/104/104
f 91/91/91 90/90/90 442/442/442
f 89/89/89 90/90/90 91/91/91
f 89/89/89 104/104/104 90/90/90
f 105/105/105 104/104/104 89/89/89
f 80/80/80 89/89/89 88/88/88
f 89/89/89 80/80/80 105/105/105
f 433/433/433 105/105/105 102/102/102
f 80/80/80 102/102/102 105/105/105
f 432/432/432 433/433/433 102/102/102
f 420/420/420 434/434/434 433/433/433
f 433/433/433 432/432/432 420/420/420
f 434/434/434 450/450/450 440/440/440
f 434/434/434 420/420/420 417/417/417
f 417/417/417 450/450/450 434/434/434
f 420/420/420 432/432/432 431/431/431
f 431/431/431 421/421/421 420/420/420
f 420/420/420 421/421/421 418/418/418
f 616/616/616 658/658/658 657/657/657
f 657/657/657 622/622/622 616/616/616
f 658/658/658 660/660/660 631/631/631
f 660/660/660 658/658/658 668/668/668
f 668/668/668 658/658/658 616/616/616
f 616/616/616 615/615/615 668/668/668
f 616/616/616 622/622/622 617/617/617
f 615/615/615 616/616/616 617/617/617
f 661/661/661 668/668/668 667/667/667
f 668/668/668 661/661/661 660/660/660
f 659/659/659 680/680/680 660/660/660
f 631/631/631 660/660/660 680/680/680
f 659/659/659 660/660/660 661/661/661
f 662/662/662 661/661/661 666/666/666
f 666/666/666 661/661/661 667/667/667
f 661/661/661 662/662/662 659/659/659
f 631/631/631 680/680/680 656/656/656
f 631/631/631 656/656/656 632/632/632
f 631/631/631 632/632/632 633/633/633
f 655/655/655 633/633/633 632/632/632
f 303/303/303 311/311/311 317/317/317
f 317/317/317 313/313/313 303/303/303
f 314/314/314 304/304/304 303/303/303
f 303/303/303 313/313/313 314/314/314
f 311/311/311 303/303/303 306/306/306
f 305/305/305 306/306/306 303/303/303
f 303/303/303 304/304/304 305/305/305
f 306/306/306 312/312/312 311/311/311
f 307/307/307 308/308/308 305/305/305
f 305/305/305 304/304/304 307/307/307
f 315/315/315 307/307/307 304/304/304
f 304/304/304 314/314/314 315/315/315
f 309/309/309 307/307/307 315/315/315
f 310/310/310 308/308/308 307/307/307
f 307/307/307 309/309/309 310/310/310
f 322/322/322 315/315/315 318/318/318
f 153/153/153 164/164/164 167/167/167
f 153/153/153 154/154/154 155/155/155
f 155/155/155 341/341/341 338/338/338
f 338/338/338 153/153/153 155/155/155
f 341/341/341 155/155/155 269/269/269
f 177/177/177 340/340/340 269/269/269
f 269/269/269 172/172/172 177/177/177
f 269/269/269 339/339/339 341/341/341
f 339/339/339 269/269/269 340/340/340
f 338/338/338 341/341/341 495/495/495
f 600/600/600 495/495/495 341/341/341
f 341/341/341 339/339/339 600/600/600
f 495/495/495 494/494/494 338/338/338
f 337/337/337 338/338/338 494/494/494
f 153/153/153 338/338/338 337/337/337
f 596/596/596 495/495/495 600/600/600
f 597/597/597 495/495/495 596/596/596
f 597/597/597 496/496/496 495/495/495
f 494/494/494 495/495/495 496/496/496
f 596/596/596 600/600/600 505/505/505
f 511/511/511 600/600/600 340/340/340
f 600/600/600 511/511/511 505/505/505
f 339/339/339 340/340/340 600/600/600
f 596/596/596 503/503/503 501/501/501
f 597/597/597 596/596/596 501/501/501
f 503/503/503 596/596/596 505/505/505
f 500/500/500 597/597/597 501/501/501
f 300/300/300 369/369/369 351/351/351
f 347/347/347 300/300/300 351/351/351
f 300/300/300 302/302/302 345/345/345
f 351/351/351 357/357/357 347/347/347
f 286/286/286 347/347/347 357/357/357
f 346/346/346 347/347/347 286/286/286
f 346/346/346 292/292/292 294/294/294
f 286/286/286 291/291/291 346/346/346
f 357/357/357 284/284/284 286/286/286
f 286/286/286 285/285/285 291/291/291
f 284/284/284 285/285/285 286/286/286
f 350/350/350 356/356/356 357/357/357
f 357/357/357 351/351/351 350/350/350
f 348/348/348 351/351/351 369/369/369
f 350/350/350 351/351/351 348/348/348
f 349/349/349 355/355/355 350/350/350
f 355/355/355 356/356/356 350/350/350
f 399/399/399 435/435/435 436/436/436
f 429/429/429 426/426/426 437/437/437
f 547/547/547 543/543/543 437/437/437
f 437/437/437 436/436/436 547/547/547
f 544/544/544 429/429/429 437/437/437
f 437/437/437 543/543/543 544/544/544
f 541/541/541 430/430/430 429/429/429
f 429/429/429 544/544/544 541/541/541
f 542/542/542 541/541/541 544/544/544
f 544/544/544 546/546/546 542/542/542
f 546/546/546 544/544/544 543/543/543
f 543/543/543 547/547/547 548/548/548
f 548/548/548 545/545/545 543/543/543
f 543/543/543 545/545/545 546/546/546
f 541/541/541 542/542/542 539/539/539
f 430/430/430 541/541/541 540/540/540
f 539/539/539 540/540/540 541/541/541
f 540/540/540 439/439/439 430/430/430
f 430/430/430 439/439/439 438/438/438
f 392/392/392 393/393/393 394/394/394
f 392/392/392 395/395/395 401/401/401
f 394/394/394 395/395/395 392/392/392
f 395/395/395 394/394/394 422/422/422
f 411/411/411 401/401/401 400/400/400
f 382/382/382 601/601/601 411/411/411
f 400/400/400 382/382/382 411/411/411
f 411/411/411 603/603/603 607/607/607
f 602/602/602 603/603/603 411/411/411
f 411/411/411 601/601/601 602/602/602
f 382/382/382 381/381/381 386/386/386
f 382/382/382 386/386/386 601/601/601
f 604/604/604 602/602/602 601/601/601
f 601/601/601 386/386/386 604/604/604
f 604/604/604 386/386/386 387/387/387
f 385/385/385 386/386/386 381/381/381
f 381/381/381 384/384/384 385/385/385
f 383/383/383 384/384/384 381/381/381
f 527/527/527 385/385/385 384/384/384
f 195/195/195 19/19/19 385/385/385
f 385/385/385 528/528/528 195/195/195
f 527/527/527 528/528/528 385/385/385
f 384/384/384 530/530/530 527/527/527
f 530/530/530 384/384/384 383/383/383
f 383/383/383 529/529/529 530/530/530
f 387/387/387 605/605/605 604/604/604
f 348/348/348 349/349/349 350/350/350
f 294/294/294 293/293/293 299/299/299
f 292/292/292 293/293/293 294/294/294
f 85/85/85 86/86/86 77/77/77
f 35/35/35 36/36/36 33/33/33
f 35/35/35 34/34/34 396/396/396
f 396/396/396 397/397/397 35/35/35
f 33/33/33 34/34/34 35/35/35
f 34/34/34 33/33/33 262/262/262
f 84/84/84 262/262/262 33/33/33
f 594/594/594 396/396/396 34/34/34
f 34/34/34 332/332/332 594/594/594
f 262/262/262 332/332/332 34/34/34
f 435/435/435 399/399/399 396/396/396
f 396/396/396 594/594/594 435/435/435
f 397/397/397 396/396/396 399/399/399
f 399/399/399 393/393/393 397/397/397
f 437/437/437 426/426/426 399/399/399
f 436/436/436 437/437/437 399/399/399
f 316/316/316 315/315/315 322/322/322
f 318/318/318 315/315/315 314/314/314
f 315/315/315 316/316/316 309/309/309
f 322/322/322 343/343/343 316/316/316
f 319/319/319 314/314/314 313/313/313
f 314/314/314 319/319/319 318/318/318
f 313/313/313 320/320/320 319/319/319
f 321/321/321 320/320/320 313/313/313
f 313/313/313 317/317/317 321/321/321
f 634/634/634 645/645/645 648/648/648
f 648/648/648 642/642/642 634/634/634
f 644/644/644 645/645/645 634/634/634
f 634/634/634 637/637/637 644/644/644
f 635/635/635 634/634/634 642/642/642
f 636/636/636 637/637/637 634/634/634
f 634/634/634 635/635/635 636/636/636
f 652/652/652 648/648/648 645/645/645
f 645/645/645 651/651/651 652/652/652
f 645/645/645 644/644/644 650/650/650
f 650/650/650 651/651/651 645/645/645
f 644/644/644 646/646/646 649/649/649
f 649/649/649 650/650/650 644/644/644
f 646/646/646 644/644/644 637/637/637
f 637/637/637 639/639/639 646/646/646
f 639/639/639 637/637/637 636/636/636
f 446/446/446 330/330/330 329/329/329
f 330/330/330 446/446/446 445/445/445
f 422/422/422 445/445/445 446/446/446
f 329/329/329 330/330/330 94/94/94
f 445/445/445 331/331/331 330/330/330
f 330/330/330 331/331/331 95/95/95
f 95/95/95 94/94/94 330/330/330
f 331/331/331 445/445/445 405/405/405
f 405/405/405 445/445/445 422/422/422
f 405/405/405 47/47/47 331/331/331
f 331/331/331 47/47/47 46/46/46
f 46/46/46 95/95/95 331/331/331
f 67/67/67 95/95/95 46/46/46
f 94/94/94 95/95/95 67/67/67
f 46/46/46 49/49/49 67/67/67
f 49/49/49 46/46/46 45/45/45
f 46/46/46 47/47/47 44/44/44
f 44/44/44 45/45/45 46/46/46
f 44/44/44 47/47/47 405/405/405
f 325/325/325 44/44/44 406/406/406
f 405/405/405 406/406/406 44/44/44
f 45/45/45 44/44/44 325/325/325
f 422/422/422 408/408/408 405/405/405
f 406/406/406 405/405/405 408/408/408
f 408/408/408 407/407/407 406/406/406
f 406/406/406 444/444/444 325/325/325
f 406/406/406 407/407/407 414/414/414
f 414/414/414 444/444/444 406/406/406
f 333/333/333 325/325/325 444/444/444
f 93/93/93 325/325/325 333/333/333
f 325/325/325 93/93/93 45/45/45
f 414/414/414 443/443/443 444/444/444
f 444/444/444 443/443/443 333/333/333
f 443/443/443 414/414/414 416/416/416
f 415/415/415 414/414/414 407/407/407
f 414/414/414 415/415/415 416/416/416
f 407/407/407 423/423/423 415/415/415
f 398/398/398 423/423/423 407/407/407
f 407/407/407 408/408/408 398/398/398
f 398/398/398 408/408/408 422/422/422
f 426/426/426 398/398/398 399/399/399
f 422/422/422 394/394/394 398/398/398
f 398/398/398 426/426/426 424/424/424
f 424/424/424 423/423/423 398/398/398
f 393/393/393 399/399/399 398/398/398
f 398/398/398 394/394/394 393/393/393
f 415/415/415 423/423/423 424/424/424
f 430/430/430 424/424/424 429/429/429
f 425/425/425 424/424/424 430/430/430
f 424/424/424 426/426/426 429/429/429
f 424/424/424 425/425/425 415/415/415
f 416/416/416 415/415/415 425/425/425
f 416/416/416 425/425/425 427/427/427
f 425/425/425 438/438/438 428/428/428
f 428/428/428 427/427/427 425/425/425
f 438/438/438 425/425/425 430/430/430
f 427/427/427 595/595/595 416/416/416
f 595/595/595 427/427/427 74/74/74
f 427/427/427 428/428/428 74/74/74
f 74/74/74 266/266/266 595/595/595
f 263/263/263 266/266/266 74/74/74
f 74/74/74 73/73/73 263/263/263
f 73/73/73 74/74/74 75/75/75
f 57/57/57 263/263/263 73/73/73
f 73/73/73 70/70/70 57/57/57
f 70/70/70 73/73/73 75/75/75
f 75/75/75 85/85/85 70/70/70
f 57/57/57 70/70/70 58/58/58
f 77/77/77 70/70/70 85/85/85
f 70/70/70 77/77/77 71/71/71
f 58/58/58 70/70/70 71/71/71
f 92/92/92 57/57/57 56/56/56
f 56/56/56 57/57/57 58/58/58
f 71/71/71 69/69/69 58/58/58
f 58/58/58 48/48/48 56/56/56
f 48/48/48 58/58/58 69/69/69
f 77/77/77 76/76/76 71/71/71
f 71/71/71 76/76/76 72/72/72
f 37/37/37 69/69/69 71/71/71
f 71/71/71 72/72/72 37/37/37
f 37/37/37 48/48/48 69/69/69
f 45/45/45 48/48/48 49/49/49
f 56/56/56 48/48/48 45/45/45
f 48/48/48 37/37/37 49/49/49
f 56/56/56 93/93/93 92/92/92
f 45/45/45 93/93/93 56/56/56
f 333/333/333 92/92/92 93/93/93
f 67/67/67 49/49/49 37/37/37
f 72/72/72 38/38/38 37/37/37
f 76/76/76 82/82/82 72/72/72
f 82/82/82 38/38/38 72/72/72
f 33/33/33 38/38/38 84/84/84
f 38/38/38 33/33/33 36/36/36
f 83/83/83 84/84/84 38/38/38
f 38/38/38 82/82/82 83/83/83
f 215/215/215 83/83/83 82/82/82
f 82/82/82 212/212/212 215/215/215
f 211/211/211 212/212/212 82/82/82
f 82/82/82 76/76/76 211/211/211
f 216/216/216 215/215/215 212/212/212
f 212/212/212 214/214/214 216/216/216
f 213/213/213 214/214/214 212/212/212
f 212/212/212 211/211/211 213/213/213
f 208/208/208 213/213/213 211/211/211
f 211/211/211 209/209/209 208/208/208
f 209/209/209 211/211/211 76/76/76
f 76/76/76 77/77/77 209/209/209
f 210/210/210 209/209/209 77/77/77
f 209/209/209 210/210/210 207/207/207
f 207/207/207 208/208/208 209/209/209
f 77/77/77 86/86/86 210/210/210
f 128/128/128 120/120/120 129/129/129
f 129/129/129 162/162/162 124/124/124
f 128/128/128 129/129/129 124/124/124
f 474/474/474 469/469/469 162/162/162
f 468/468/468 160/160/160 162/162/162
f 162/162/162 469/469/469 468/468/468
f 122/122/122 124/124/124 162/162/162
f 162/162/162 160/160/160 122/122/122
f 473/473/473 474/474/474 464/464/464
f 464/464/464 474/474/474 465/465/465
f 473/473/473 469/469/469 474/474/474
f 466/466/466 469/469/469 473/473/473
f 469/469/469 466/466/466 468/468/468
f 160/160/160 468/468/468 467/467/467
f 466/466/466 467/467/467 468/468/468
f 467/467/467 161/161/161 160/160/160
f 123/123/123 122/122/122 160/160/160
f 511/511/511 512/512/512 523/523/523
f 509/509/509 512/512/512 511/511/511
f 549/549/549 581/581/581 580/580/580
f 580/580/580 550/550/550 549/549/549
f 549/549/549 550/550/550 551/551/551
f 581/581/581 583/583/583 570/570/570
f 581/581/581 570/570/570 569/569/569
f 569/569/569 580/580/580 581/581/581
f 586/586/586 580/580/580 558/558/558
f 579/579/579 580/580/580 569/569/569
f 550/550/550 580/580/580 586/586/586
f 558/558/558 580/580/580 579/579/579
f 586/586/586 587/587/587 550/550/550
f 550/550/550 587/587/587 552/552/552
f 550/550/550 552/552/552 551/551/551
f 586/586/586 589/589/589 588/588/588
f 558/558/558 589/589/589 586/586/586
f 588/588/588 587/587/587 586/586/586
f 150/150/150 115/115/115 108/108/108
f 115/115/115 131/131/131 116/116/116
f 150/150/150 132/132/132 115/115/115
f 131/131/131 115/115/115 132/132/132
f 131/131/131 111/111/111 116/116/116
f 117/117/117 116/116/116 111/111/111
f 111/111/111 110/110/110 117/117/117
f 131/131/131 169/169/169 111/111/111
f 111/111/111 169/169/169 170/170/170
f 111/111/111 170/170/170 112/112/112
f 111/111/111 112/112/112 109/109/109
f 109/109/109 110/110/110 111/111/111
f 169/169/169 131/131/131 172/172/172
f 131/131/131 132/132/132 172/172/172
f 264/264/264 168/168/168 169/169/169
f 169/169/169 172/172/172 264/264/264
f 168/168/168 130/130/130 169/169/169
f 253/253/253 247/247/247 225/225/225
f 225/225/225 224/224/224 253/253/253
f 230/230/230 225/225/225 257/257/257
f 225/225/225 254/254/254 257/257/257
f 230/230/230 226/226/226 225/225/225
f 224/224/224 225/225/225 226/226/226
f 257/257/257 260/260/260 230/230/230
f 256/256/256 260/260/260 257/257/257
f 254/254/254 256/256/256 257/257/257
f 256/256/256 254/254/254 255/255/255
f 255/255/255 258/258/258 256/256/256
f 220/220/220 258/258/258 255/255/255
f 238/238/238 240/240/240 239/239/239
f 239/239/239 240/240/240 251/251/251
f 279/279/279 363/363/363 277/277/277
f 277/277/277 363/363/363 361/361/361
f 277/277/277 361/361/361 294/294/294
f 294/294/294 299/299/299 277/277/277
f 277/277/277 278/278/278 279/279/279
f 279/279/279 370/370/370 363/363/363
f 363/363/363 301/301/301 361/361/361
f 363/363/363 370/370/370 344/344/344
f 363/363/363 344/344/344 301/301/301
f 361/361/361 301/301/301 300/300/300
f 344/344/344 302/302/302 301/301/301
f 300/300/300 301/301/301 302/302/302
f 300/300/300 347/347/347 361/361/361
f 347/347/347 346/346/346 361/361/361
f 294/294/294 361/361/361 346/346/346
f 300/300/300 345/345/345 369/369/369
f 454/454/454 455/455/455 456/456/456
f 476/476/476 461/461/461 456/456/456
f 460/460/460 457/457/457 456/456/456
f 456/456/456 461/461/461 460/460/460
f 456/456/456 457/457/457 454/454/454
f 462/462/462 461/461/461 476/476/476
f 476/476/476 505/505/505 477/477/477
f 476/476/476 477/477/477 462/462/462
f 461/461/461 462/462/462 459/459/459
f 459/459/459 460/460/460 461/461/461
f 452/452/452 459/459/459 462/462/462
f 491/491/491 452/452/452 462/462/462
f 491/491/491 462/462/462 477/477/477
f 491/491/491 477/477/477 524/524/524
f 524/524/524 477/477/477 506/506/506
f 609/609/609 608/608/608 674/674/674
f 608/608/608 672/672/672 674/674/674
f 608/608/608 630/630/630 624/624/624
f 624/624/624 672/672/672 608/608/608
f 608/608/608 609/609/609 610/610/610
f 609/609/609 674/674/674 681/681/681
f 674/674/674 672/672/672 633/633/633
f 674/674/674 655/655/655 681/681/681
f 674/674/674 633/633/633 655/655/655
f 631/631/631 633/633/633 672/672/672
f 672/672/672 658/658/658 631/631/631
f 658/658/658 672/672/672 657/657/657
f 657/657/657 672/672/672 624/624/624
f 624/624/624 623/623/623 657/657/657
f 624/624/624 630/630/630 625/625/625
f 623/623/623 624/624/624 625/625/625
f 516/516/516 519/519/519 513/513/513
f 519/519/519 514/514/514 513/513/513
f 513/513/513 515/515/515 516/516/516
f 513/513/513 514/514/514 515/515/515
f 516/516/516 515/515/515 526/526/526
f 526/526/526 522/522/522 516/516/516
f 516/516/516 522/522/522 520/520/520
f 520/520/520 519/519/519 516/516/516
f 520/520/520 517/517/517 519/519/519
f 514/514/514 519/519/519 517/517/517
f 514/514/514 518/518/518 525/525/525
f 525/525/525 515/515/515 514/514/514
f 517/517/517 518/518/518 514/514/514
f 515/515/515 525/525/525 526/526/526
f 182/182/182 179/179/179 184/184/184
f 184/184/184 179/179/179 181/181/181
f 179/179/179 182/182/182 180/180/180
f 179/179/179 180/180/180 181/181/181
f 182/182/182 188/188/188 192/192/192
f 192/192/192 180/180/180 182/182/182
f 182/182/182 184/184/184 186/186/186
f 186/186/186 188/188/188 182/182/182
f 186/186/186 184/184/184 183/183/183
f 183/183/183 184/184/184 181/181/181
f 181/181/181 180/180/180 191/191/191
f 191/191/191 185/185/185 181/181/181
f 181/181/181 185/185/185 183/183/183
f 180/180/180 192/192/192 191/191/191
f 477/477/477 505/505/505 506/506/506
f 506/506/506 505/505/505 511/511/511
f 523/523/523 506/506/506 511/511/511
f 506/506/506 523/523/523 524/524/524
f 524/524/524 521/521/521 491/491/491
f 452/452/452 491/491/491 453/453/453
f 453/453/453 491/491/491 508/508/508
f 521/521/521 508/508/508 491/491/491
f 459/459/459 452/452/452 451/451/451
f 451/451/451 452/452/452 453/453/453
f 451/451/451 510/510/510 459/459/459
f 451/451/451 453/453/453 492/492/492
f 376/376/376 451/451/451 492/492/492
f 510/510/510 451/451/451 376/376/376
f 453/453/453 508/508/508 507/507/507
f 493/493/493 453/453/453 507/507/507
f 492/492/492 453/453/453 493/493/493
f 507/507/507 508/508/508 509/509/509
f 340/340/340 493/493/493 507/507/507
f 340/340/340 507/507/507 511/511/511
f 511/511/511 507/507/507 509/509/509
f 493/493/493 340/340/340 159/159/159
f 598/598/598 493/493/493 378/378/378
f 492/492/492 493/493/493 598/598/598
f 378/378/378 493/493/493 159/159/159
f 598/598/598 599/599/599 492/492/492
f 376/376/376 492/492/492 599/599/599
f 599/599/599 598/598/598 378/378/378
f 159/159/159 9/9/9 378/378/378
f 378/378/378 376/376/376 599/599/599
f 3/3/3 376/376/376 378/378/378
f 378/378/378 9/9/9 3/3/3
f 159/159/159 8/8/8 9/9/9
f 152/152/152 159/159/159 340/340/340
f 8/8/8 159/159/159 152/152/152
f 340/340/340 173/173/173 152/152/152
f 340/340/340 177/177/177 173/173/173
f 152/152/152 173/173/173 107/107/107
f 267/267/267 8/8/8 152/152/152
f 151/151/151 267/267/267 152/152/152
f 151/151/151 152/152/152 107/107/107
f 268/268/268 8/8/8 267/267/267
f 3/3/3 9/9/9 8/8/8
f 3/3/3 2/2/2 375/375/375
f 375/375/375 376/376/376 3/3/3
f 376/376/376 375/375/375 510/510/510
f 267/267/267 151/151/151 268/268/268
f 107/107/107 173/173/173 175/175/175
f 107/107/107 175/175/175 150/150/150
f 174/174/174 173/173/173 177/177/177
f 173/173/173 174/174/174 175/175/175
f 187/187/187 150/150/150 175/175/175
f 189/189/189 132/132/132 150/150/150
f 150/150/150 187/187/187 189/189/189
f 189/189/189 190/190/190 171/171/171
f 171/171/171 132/132/132 189/189/189
f 132/132/132 171/171/171 172/172/172
f 171/171/171 177/177/177 172/172/172
f 177/177/177 171/171/171 190/190/190
f 190/190/190 178/178/178 177/177/177
f 177/177/177 178/178/178 174/174/174
f 55/55/55 54/54/54 63/63/63
f 55/55/55 63/63/63 64/64/64
f 63/63/63 54/54/54 88/88/88
f 87/87/87 88/88/88 54/54/54
f 64/64/64 63/63/63 91/91/91
f 88/88/88 89/89/89 63/63/63
f 91/91/91 63/63/63 89/89/89
f 64/64/64 91/91/91 419/419/419
f 419/419/419 442/442/442 441/441/441
f 441/441/441 413/413/413 419/419/419
f 442/442/442 419/419/419 91/91/91
f 413/413/413 441/441/441 440/440/440
f 441/441/441 442/442/442 433/433/433
f 433/433/433 434/434/434 441/441/441
f 440/440/440 441/441/441 434/434/434
f 105/105/105 433/433/433 442/442/442
f 442/442/442 104/104/104 105/105/105
f 160/160/160 161/161/161 123/123/123
f 124/124/124 122/122/122 121/121/121
f 121/121/121 122/122/122 123/123/123
f 198/198/198 123/123/123 161/161/161
f 199/199/199 121/121/121 123/123/123
f 123/123/123 198/198/198 199/199/199
f 532/532/532 206/206/206 161/161/161
f 161/161/161 467/467/467 532/532/532
f 161/161/161 206/206/206 198/198/198
f 531/531/531 532/532/532 467/467/467
f 467/467/467 466/466/466 531/531/531
f 535/535/535 531/531/531 466/466/466
f 466/466/466 473/473/473 535/535/535
f 464/464/464 538/538/538 535/535/535
f 535/535/535 473/473/473 464/464/464
f 464/464/464 533/533/533 538/538/538
f 533/533/533 464/464/464 463/463/463
f 463/463/463 464/464/464 465/465/465
f 53/53/53 327/327/327 334/334/334
f 334/334/334 87/87/87 53/53/53
f 327/327/327 53/53/53 68/68/68
f 54/54/54 53/53/53 87/87/87
f 68/68/68 53/53/53 55/55/55
f 53/53/53 54/54/54 55/55/55
f 334/334/334 327/327/327 412/412/412
f 327/327/327 68/68/68 412/412/412
f 335/335/335 334/334/334 440/440/440
f 412/412/412 440/440/440 334/334/334
f 335/335/335 87/87/87 334/334/334
f 440/440/440 412/412/412 413/413/413
f 68/68/68 55/55/55 412/412/412
f 412/412/412 55/55/55 413/413/413
f 55/55/55 419/419/419 413/413/413
f 55/55/55 64/64/64 419/419/419
f 176/176/176 1/1/1 4/4/4
f 3/3/3 4/4/4 1/1/1
f 1/1/1 2/2/2 3/3/3
f 114/114/114 176/176/176 106/106/106
f 4/4/4 106/106/106 176/176/176
f 4/4/4 268/268/268 151/151/151
f 8/8/8 268/268/268 4/4/4
f 4/4/4 151/151/151 106/106/106
f 8/8/8 4/4/4 3/3/3
f 106/106/106 151/151/151 107/107/107
f 106/106/106 108/108/108 114/114/114
f 106/106/106 107/107/107 108/108/108
f 108/108/108 115/115/115 114/114/114
f 116/116/116 117/117/117 114/114/114
f 114/114/114 115/115/115 116/116/116
f 108/108/108 107/107/107 150/150/150
