# gastornis_ad_b reconstructed from live game memory
v 20.44001 24.48589 79.18562
v 18.12665 22.33763 81.52497
v 14.02981 26.37957 75.56020
v 16.65329 28.22836 73.59301
v 18.44753 22.35935 68.51363
v 14.55274 26.03843 68.20209
v 14.02981 26.37957 75.56020
v 18.12665 22.33763 81.52497
v 22.65944 18.04454 83.48604
v 24.12654 20.99950 80.97160
v 22.65944 18.04454 83.48604
v 25.19563 21.41184 73.88135
v 26.11683 17.85452 61.84476
v 25.15839 20.41055 63.82406
v 19.28912 25.86284 62.68202
v 17.30519 23.87596 60.72510
v 0.65005 43.42442 70.41788
v -3.85405 44.88293 73.22044
v 3.09690 38.68527 64.68352
v 4.52633 39.79355 65.98965
v 26.11683 17.85452 61.84476
v 17.30519 23.87596 60.72510
v 30.84109 17.43223 81.63483
v 32.64726 16.25136 74.00009
v -24.58795 18.54459 87.92990
v -8.54202 16.81131 90.62102
v -10.80485 -0.00000 96.79713
v -26.32164 0.00000 93.12657
v -27.71441 22.49166 43.05923
v -15.52599 29.04814 41.42714
v -17.21548 30.79137 57.49399
v -34.15322 21.79026 51.21888
v 12.63524 21.59669 60.83512
v 26.11683 17.85452 61.84476
v 9.23704 20.83603 79.44404
v 88.24745 2.25423 113.20605
v 88.20936 2.75060 115.74013
v 80.54974 5.51881 116.89170
v 80.49938 4.00829 111.05675
v 90.26613 -0.00002 111.98866
v 91.60400 -0.00002 115.14024
v 88.48747 3.02703 126.08567
v 82.87263 3.49025 130.52463
v 82.49792 4.98645 126.39538
v 90.62518 -0.00002 127.16669
v 83.24872 -0.00002 131.49667
v 51.95650 6.14026 131.75003
v 58.13118 5.87219 133.59262
v 57.63670 -0.00002 135.84776
v 49.79898 -0.00001 133.74315
v 66.48892 10.71849 119.88174
v 73.57388 8.68873 120.01687
v 73.54900 6.91514 127.20574
v 70.15218 8.17519 127.15127
v 76.48441 3.99465 132.88390
v 76.43722 -0.00002 133.06212
v 71.99629 -0.00002 134.62090
v 72.21626 3.96418 135.90916
v 71.74887 7.32241 132.01526
v 74.05497 6.33243 130.14803
v 72.11353 6.17205 134.30550
v 68.44656 7.10768 134.06859
v 69.25558 8.24734 129.93271
v 71.60784 6.83887 129.38235
v 45.95492 6.89854 124.96612
v 42.83956 -0.00001 127.01272
v 41.23302 -0.00001 115.87213
v 44.95098 7.14704 114.80611
v 40.32117 -0.00001 107.49862
v 43.13574 6.98667 105.92774
v -15.36286 16.00621 41.41436
v -27.71441 22.49166 43.05923
v -34.15322 21.79026 51.21888
v 66.76442 -0.00002 106.12707
v 73.24885 -0.00002 106.58418
v 73.24633 7.14958 111.44688
v 66.74384 8.73468 110.99059
v -40.37968 15.69256 79.71136
v -34.96488 21.65510 67.42142
v -57.51765 9.02970 65.79964
v -52.19060 14.76051 50.86021
v -42.48505 0.00000 84.53628
v -59.23678 0.00001 69.55418
v -26.50280 25.78433 23.84321
v -24.74648 25.89634 7.46912
v -21.05457 22.71403 9.99777
v -21.59228 22.72191 23.85141
v -25.10014 18.11748 0.02286
v -24.76123 18.88385 7.46440
v -20.69708 17.06709 4.40930
v -18.09043 22.85664 7.25061
v -17.97011 19.02703 6.27772
v -32.50861 22.47767 27.15734
v -15.52599 29.04814 41.42714
v -6.83780 22.81144 36.80349
v -26.50893 19.33455 23.85314
v -15.36286 16.00621 41.41436
v -32.47919 22.52491 20.94860
v -0.99943 22.61807 45.67424
v -1.26170 22.88700 60.27388
v -4.94966 21.85063 75.88923
v 6.81045 15.00762 89.52475
v -20.15288 27.20960 74.92251
v -26.50893 19.33455 23.85314
v 22.65944 18.04454 83.48604
v 19.47964 12.30988 88.34902
v 46.04318 9.77111 88.89120
v 53.09248 -0.00001 83.69862
v 58.51095 -0.00001 97.73293
v 52.06276 7.33751 101.17262
v -16.93387 32.52118 0.02267
v -6.75489 34.28011 -0.13342
v -15.32826 30.50174 4.24504
v -14.48851 26.85675 0.02633
v -6.75489 34.28011 -0.13342
v -16.93387 32.52118 0.02267
v -14.48851 26.85675 0.02633
v -2.88576 24.01946 -0.19501
v -14.28098 23.05465 4.22777
v -13.71966 19.38234 0.02629
v -13.71966 19.38234 0.02629
v -2.88576 24.01946 -0.19501
v -14.59712 16.32977 3.58915
v -5.53316 13.97637 0.01666
v -5.53316 13.97637 0.01666
v -16.12657 13.58661 0.02266
v -16.12657 13.58661 0.02266
v -22.07034 28.10991 3.17323
v -18.78376 27.01639 6.19844
v -24.94687 26.95427 0.01072
v -25.10014 18.11748 0.02286
v -24.94687 26.95427 0.01072
v 38.29487 8.61694 94.69294
v 82.58238 5.85333 120.06232
v 89.28553 3.11580 118.95523
v 73.17596 9.02065 118.53200
v 56.51104 11.73688 121.69360
v 55.45516 9.59290 111.69614
v 57.28244 10.30855 129.88440
v 14.22578 17.91876 50.86862
v 28.44287 11.43586 56.48733
v -24.76123 18.88385 7.46440
v -28.45183 22.36586 6.73216
v -0.99943 22.61807 45.67424
v 36.38560 5.22143 62.26413
v 44.40145 -0.00001 67.91942
v 35.57348 12.79432 74.01276
v 32.00068 12.91922 65.95767
v 80.54974 5.51881 116.89170
v 88.20936 2.75060 115.74013
v 82.67465 -0.00002 113.40154
v 66.48892 10.71849 119.88174
v 73.17596 9.02065 118.53200
v 63.11499 -0.00002 113.21943
v 73.57388 8.68873 120.01687
v 63.90681 -0.00002 123.17887
v 87.50524 -0.00002 122.87763
v 82.58238 5.85333 120.06232
v 89.28553 3.11580 118.95523
v 29.97731 16.84394 66.97049
v 32.00068 12.91922 65.95767
v 29.53807 14.42190 83.54535
v 27.59234 10.59117 88.75069
v 73.23091 6.86017 127.53425
v 71.82431 7.89015 129.37286
v 70.36156 7.92456 127.48824
v 69.60416 7.94705 129.83775
v 71.71030 7.16574 131.59692
v 73.65830 6.32948 130.01964
v 15.51844 -0.00000 44.33819
v -1.59366 -0.00000 39.74529
v 60.30990 -0.00001 105.28797
v 11.23376 32.85944 69.81989
v 11.73197 32.67184 63.37512
v -71.69710 6.62357 45.34883
v -73.51306 0.00001 49.67799
v -25.10014 18.11748 0.02286
v -36.38168 22.30470 0.00785
v -30.57013 21.11472 3.92459
v -30.61551 23.68721 3.95639
v -36.38168 22.30470 0.00785
v -79.31124 0.00001 37.17670
v -76.75723 4.42149 34.34650
v -67.04517 10.79321 37.64083
v -49.22690 16.19351 43.82700
v -62.80320 14.96125 32.95603
v -58.87309 14.56807 31.20288
v -49.22690 16.19351 43.82700
v -58.87309 14.56807 31.20288
v -68.10918 10.62324 30.18359
v -67.04517 10.79321 37.64083
v -68.10918 10.62324 30.18359
v -67.34104 12.85791 20.39297
v -67.34104 12.85791 20.39297
v -73.90473 7.24111 30.87344
v -82.51040 0.00001 21.03802
v 4.92924 -0.00000 95.38840
v 30.55906 -0.00001 52.95444
v -16.97625 0.00000 38.63244
v -15.36286 16.00621 41.41436
v -34.15322 21.79026 51.21888
v -33.79626 0.00000 50.31260
v 38.73314 -0.00001 60.41205
v 35.57348 12.79432 74.01276
v 44.40145 -0.00001 67.91942
v 26.10287 -0.00001 92.17928
v 18.11871 -0.00001 92.58939
v 67.75125 4.58879 135.98512
v 9.00301 31.30617 71.87292
v 9.00301 31.30617 71.87292
v 9.25620 31.73701 61.98639
v 9.25620 31.73701 61.98639
v 2.75535 38.04764 71.60968
v 4.55299 39.60313 69.63528
v 3.09690 38.68527 64.68352
v 2.75535 38.04764 71.60968
v 66.48892 10.71849 119.88174
v 63.11499 -0.00002 113.21943
v 64.26069 6.26616 132.99849
v 63.86057 -0.00002 135.18240
v 64.74679 9.13237 127.87433
v 91.60400 -0.00002 115.14024
v 67.25330 -0.00002 135.16264
v -73.90473 7.24111 30.87344
v -72.88530 0.00001 33.72032
v -54.97751 0.00001 48.46022
v -82.51040 0.00001 21.03802
v 27.59234 10.59117 88.75069
v 32.96404 13.80633 81.87975
v 26.10287 -0.00001 92.17928
v 34.77223 -0.00001 97.37785
v 35.57348 12.79432 74.01276
v 32.96404 13.80633 81.87975
v 32.96404 13.80633 81.87975
v 29.53807 14.42190 83.54535
v -3.85405 44.88293 73.22044
v 93.38394 -0.00002 120.95750
v 93.57257 -0.00002 118.10075
v 80.53909 -0.00002 107.35545
v 93.57257 -0.00002 118.10075
v 45.14499 12.72504 119.52884
v 43.64592 11.98999 123.11220
v 39.59147 15.71538 117.15237
v 49.77137 11.85317 117.07266
v 58.80521 4.61292 123.09986
v 49.65245 8.48094 126.43520
v 42.69398 14.55528 117.08167
v 40.25829 12.80726 124.42074
v 37.59922 14.01651 123.89256
v 29.35511 19.71469 116.91567
v 49.00334 13.18299 110.22437
v 47.26221 13.89012 114.41832
v 45.28764 15.54309 105.79730
v 53.65870 11.14330 108.71239
v 59.31723 6.99610 119.71020
v 50.26872 11.34998 119.65248
v 47.85517 14.20142 106.63123
v 43.27810 15.37553 114.51470
v 41.28456 16.51568 113.10974
v 36.98157 19.96203 102.49461
v 37.06731 11.12771 123.72893
v 36.35675 8.12652 127.30252
v 30.34883 14.43937 122.08125
v 41.50626 12.45852 120.88243
v 55.53192 4.53943 125.44666
v 43.81977 3.85078 129.80049
v 33.73708 13.87853 121.67175
v 32.97843 7.60375 128.92088
v 29.92068 8.62729 128.71188
v 19.04674 16.72329 122.98550
v 36.78786 7.24552 130.11832
v 37.85010 3.05816 133.47569
v 27.51650 8.83462 129.63492
v 40.76858 10.76861 126.85902
v 58.67144 6.14433 128.89096
v 48.51286 0.51699 134.61995
v 31.51604 9.47481 128.75060
v 34.52182 1.01374 135.45786
v 30.59706 1.10841 135.72980
v 13.92353 7.23607 132.16476
v -35.28736 17.53119 42.05009
v -39.22241 17.32776 44.64946
v -37.34218 17.26112 34.66601
v -30.02627 17.89319 43.37961
v -26.85207 18.40452 59.80905
v -37.60222 17.59660 53.45407
v -35.07542 17.45523 37.27111
v -42.68283 17.07783 43.14333
v -44.15458 16.92968 40.27048
v -44.44531 16.63537 25.55968
v -45.99422 14.29922 42.52648
v -50.50213 13.74058 44.80048
v -47.20809 13.83176 34.37636
v -40.59386 15.14268 44.61868
v -39.37382 15.96576 62.57399
v -49.93399 14.16911 54.41247
v -45.14639 14.23608 37.44865
v -53.97177 13.17312 42.74962
v -55.15630 12.88688 39.49286
v -53.54568 12.54604 23.74172
v -67.25979 8.61650 34.95024
v -69.58997 7.73780 36.58463
v -68.57135 8.44450 30.29485
v -64.09227 9.63361 35.79307
v -62.01177 9.73448 46.14989
v -68.52348 7.77555 42.13481
v -67.18459 8.81607 31.93872
v -71.68021 7.08954 35.63219
v -72.59341 6.88707 33.82034
v -72.92715 7.31121 24.54933
v 10.58503 29.14803 73.62988
v 11.05290 28.23143 75.99496
v 6.71572 31.42836 77.53448
v 16.99497 24.47014 71.14701
v 16.60820 23.80966 75.47049
v 3.22265 36.12935 73.34451
v 5.12449 34.58105 76.27901
v -0.07221 39.02195 81.00235
v 10.79292 29.65379 66.08149
v 13.18443 26.28899 71.43256
v 1.31742 39.08391 70.27496
v 2.92617 36.78074 72.56512
v -1.84501 39.89019 76.69138
v 9.98551 32.94728 64.44781
v 10.87775 31.30026 69.11752
v 7.42034 32.90908 60.81398
v 6.57671 33.07098 64.54059
v 0.61989 38.36263 62.18437
v 16.34584 25.02844 64.01152
v 13.91023 24.69370 70.30682
v 20.44000 -24.48590 79.18562
v 16.65328 -28.22838 73.59301
v 14.02980 -26.37958 75.56020
v 18.12664 -22.33764 81.52497
v 18.44753 -22.35936 68.51363
v 18.12664 -22.33764 81.52497
v 14.02980 -26.37958 75.56020
v 14.55273 -26.03844 68.20209
v 22.65943 -18.04456 83.48604
v 24.12653 -20.99951 80.97160
v 22.65943 -18.04456 83.48604
v 25.19562 -21.41186 73.88135
v 26.11682 -17.85454 61.84476
v 17.30518 -23.87597 60.72511
v 19.28912 -25.86285 62.68202
v 25.15839 -20.41056 63.82406
v 0.65005 -43.42442 70.41788
v 4.52632 -39.79356 65.98965
v 3.09689 -38.68528 64.68352
v -3.85406 -44.88293 73.22044
v 17.30518 -23.87597 60.72511
v 26.11682 -17.85454 61.84476
v 30.84109 -17.43225 81.63483
v 32.64726 -16.25138 74.00009
v -24.58796 -18.54459 87.92990
v -8.54202 -16.81131 90.62102
v -27.71442 -22.49165 43.05923
v -34.15322 -21.79025 51.21888
v -17.21549 -30.79137 57.49399
v -15.52600 -29.04814 41.42714
v 12.63523 -21.59669 60.83512
v 9.23704 -20.83604 79.44404
v 26.11682 -17.85454 61.84476
v 88.24745 -2.25426 113.20605
v 80.49938 -4.00832 111.05675
v 80.54974 -5.51885 116.89170
v 88.20936 -2.75064 115.74013
v 88.48747 -3.02707 126.08567
v 82.49792 -4.98649 126.39538
v 82.87263 -3.49029 130.52463
v 51.95650 -6.14028 131.75003
v 58.13118 -5.87222 133.59262
v 66.48892 -10.71852 119.88174
v 70.15218 -8.17522 127.15127
v 73.54900 -6.91518 127.20574
v 73.57388 -8.68876 120.01687
v 76.48441 -3.99468 132.88390
v 72.21626 -3.96421 135.90916
v 71.74887 -7.32244 132.01526
v 72.11353 -6.17208 134.30550
v 74.05497 -6.33247 130.14803
v 68.44656 -7.10771 134.06859
v 69.25558 -8.24738 129.93271
v 71.60784 -6.83891 129.38235
v 45.95492 -6.89857 124.96612
v 44.95098 -7.14707 114.80611
v 43.13574 -6.98669 105.92774
v -15.36287 -16.00621 41.41436
v -34.15322 -21.79025 51.21888
v -27.71442 -22.49165 43.05923
v 66.74384 -8.73471 110.99059
v 73.24633 -7.14961 111.44688
v -34.96489 -21.65509 67.42142
v -40.37969 -15.69255 79.71136
v -52.19061 -14.76049 50.86021
v -57.51765 -9.02969 65.79964
v -26.50281 -25.78433 23.84320
v -21.59229 -22.72191 23.85141
v -21.05457 -22.71403 9.99777
v -24.74648 -25.89634 7.46912
v -25.10014 -18.11748 0.02285
v -20.69707 -17.06709 4.40930
v -24.76123 -18.88385 7.46440
v -18.09043 -22.85664 7.25061
v -17.97012 -19.02703 6.27772
v -15.52600 -29.04814 41.42714
v -32.50862 -22.47767 27.15734
v -6.83781 -22.81144 36.80349
v -15.36287 -16.00621 41.41436
v -26.50894 -19.33455 23.85314
v -32.47921 -22.52490 20.94860
v -1.26171 -22.88701 60.27388
v -0.99944 -22.61808 45.67424
v 6.81044 -15.00763 89.52475
v -4.94967 -21.85064 75.88923
v -20.15289 -27.20961 74.92250
v -26.50894 -19.33455 23.85314
v 19.47964 -12.30990 88.34902
v 22.65943 -18.04456 83.48604
v 46.04318 -9.77114 88.89120
v 52.06276 -7.33754 101.17262
v -16.93388 -32.52117 0.02267
v -15.32827 -30.50173 4.24504
v -6.75491 -34.28011 -0.13342
v -14.48852 -26.85675 0.02632
v -16.93388 -32.52117 0.02267
v -6.75491 -34.28011 -0.13342
v -14.48852 -26.85675 0.02632
v -14.28099 -23.05464 4.22777
v -2.88578 -24.01946 -0.19501
v -13.71967 -19.38234 0.02629
v -13.71967 -19.38234 0.02629
v -2.88578 -24.01946 -0.19501
v -14.59713 -16.32977 3.58915
v -5.53317 -13.97637 0.01666
v -5.53317 -13.97637 0.01666
v -16.12658 -13.58661 0.02266
v -16.12658 -13.58661 0.02266
v -22.07034 -28.10991 3.17322
v -18.78377 -27.01639 6.19844
v -25.10014 -18.11748 0.02285
v -24.94687 -26.95427 0.01072
v -24.94687 -26.95427 0.01072
v 38.29487 -8.61696 94.69294
v 82.58238 -5.85337 120.06232
v 89.28553 -3.11584 118.95523
v 73.17596 -9.02069 118.53200
v 56.51104 -11.73691 121.69360
v 55.45516 -9.59292 111.69614
v 57.28244 -10.30858 129.88440
v 14.22577 -17.91877 50.86862
v 28.44287 -11.43588 56.48733
v -28.45184 -22.36586 6.73215
v -24.76123 -18.88385 7.46440
v -0.99944 -22.61808 45.67424
v 36.38560 -5.22145 62.26413
v 32.00067 -12.91924 65.95767
v 35.57348 -12.79434 74.01276
v 80.54974 -5.51885 116.89170
v 88.20936 -2.75064 115.74013
v 66.48892 -10.71852 119.88174
v 73.17596 -9.02069 118.53200
v 73.57388 -8.68876 120.01687
v 82.58238 -5.85337 120.06232
v 89.28553 -3.11584 118.95523
v 29.97731 -16.84396 66.97049
v 32.00067 -12.91924 65.95767
v 27.59233 -10.59119 88.75069
v 29.53806 -14.42192 83.54535
v 73.23091 -6.86020 127.53425
v 70.36156 -7.92459 127.48824
v 71.82431 -7.89018 129.37286
v 69.60416 -7.94708 129.83775
v 71.71030 -7.16577 131.59692
v 73.65830 -6.32952 130.01964
v 11.23375 -32.85944 69.81989
v 11.73196 -32.67184 63.37512
v -71.69710 -6.62355 45.34883
v -25.10014 -18.11748 0.02285
v -30.57013 -21.11471 3.92459
v -36.38168 -22.30469 0.00784
v -30.61551 -23.68720 3.95639
v -36.38168 -22.30469 0.00784
v -76.75723 -4.42146 34.34650
v -67.04517 -10.79319 37.64083
v -49.22691 -16.19350 43.82700
v -58.87309 -14.56806 31.20288
v -62.80320 -14.96123 32.95603
v -49.22691 -16.19350 43.82700
v -67.04517 -10.79319 37.64083
v -68.10918 -10.62322 30.18359
v -58.87309 -14.56806 31.20288
v -67.34104 -12.85789 20.39297
v -68.10918 -10.62322 30.18359
v -67.34104 -12.85789 20.39297
v -73.90473 -7.24109 30.87344
v -34.15322 -21.79025 51.21888
v -15.36287 -16.00621 41.41436
v 35.57348 -12.79434 74.01276
v 67.75125 -4.58883 135.98512
v 9.00300 -31.30618 71.87292
v 9.00300 -31.30618 71.87292
v 9.25620 -31.73702 61.98639
v 9.25620 -31.73702 61.98639
v 4.55298 -39.60314 69.63528
v 2.75534 -38.04765 71.60968
v 3.09689 -38.68528 64.68352
v 2.75534 -38.04765 71.60968
v 66.48892 -10.71852 119.88174
v 64.26069 -6.26619 132.99849
v 64.74679 -9.13241 127.87433
v -73.90473 -7.24109 30.87344
v 32.96404 -13.80635 81.87975
v 27.59233 -10.59119 88.75069
v 35.57348 -12.79434 74.01276
v 32.96404 -13.80635 81.87975
v 32.96404 -13.80635 81.87975
v 29.53806 -14.42192 83.54535
v -3.85406 -44.88293 73.22044
v 45.14498 -12.72507 119.52884
v 39.59146 -15.71541 117.15237
v 43.64592 -11.99002 123.11220
v 49.77137 -11.85319 117.07266
v 58.80521 -4.61295 123.09986
v 49.65245 -8.48097 126.43520
v 42.69397 -14.55531 117.08167
v 40.25828 -12.80728 124.42074
v 29.35511 -19.71472 116.91567
v 37.59921 -14.01653 123.89256
v 49.00333 -13.18301 110.22437
v 45.28764 -15.54311 105.79730
v 47.26221 -13.89015 114.41832
v 53.65870 -11.14333 108.71239
v 59.31723 -6.99613 119.71020
v 50.26872 -11.35001 119.65248
v 47.85516 -14.20144 106.63123
v 43.27809 -15.37555 114.51470
v 36.98156 -19.96206 102.49461
v 41.28456 -16.51571 113.10974
v 37.06731 -11.12773 123.72893
v 30.34882 -14.43939 122.08125
v 36.35675 -8.12654 127.30252
v 41.50626 -12.45854 120.88243
v 55.53192 -4.53946 125.44666
v 43.81977 -3.85081 129.80049
v 33.73707 -13.87855 121.67175
v 32.97843 -7.60377 128.92088
v 19.04674 -16.72331 122.98550
v 29.92068 -8.62731 128.71188
v 36.78786 -7.24555 130.11832
v 27.51650 -8.83464 129.63492
v 37.85010 -3.05819 133.47569
v 40.76858 -10.76863 126.85902
v 58.67144 -6.14436 128.89096
v 48.51286 -0.51702 134.61995
v 31.51604 -9.47483 128.75060
v 34.52182 -1.01376 135.45786
v 13.92353 -7.23608 132.16476
v 30.59706 -1.10843 135.72980
v -35.28737 -17.53119 42.05009
v -37.34219 -17.26111 34.66601
v -39.22242 -17.32775 44.64946
v -30.02628 -17.89319 43.37961
v -26.85208 -18.40451 59.80905
v -37.60223 -17.59659 53.45407
v -35.07543 -17.45522 37.27111
v -42.68283 -17.07782 43.14333
v -44.44532 -16.63537 25.55968
v -44.15459 -16.92967 40.27048
v -45.99422 -14.29921 42.52648
v -47.20810 -13.83175 34.37636
v -50.50214 -13.74057 44.80048
v -40.59387 -15.14267 44.61868
v -39.37383 -15.96575 62.57399
v -49.93400 -14.16910 54.41247
v -45.14640 -14.23607 37.44865
v -53.97178 -13.17311 42.74962
v -53.54569 -12.54603 23.74172
v -55.15631 -12.88687 39.49286
v -67.25979 -8.61648 34.95024
v -68.57135 -8.44447 30.29485
v -69.58997 -7.73778 36.58463
v -64.09227 -9.63359 35.79307
v -62.01177 -9.73446 46.14989
v -68.52348 -7.77553 42.13481
v -67.18459 -8.81605 31.93872
v -71.68021 -7.08952 35.63219
v -72.92715 -7.31118 24.54933
v -72.59341 -6.88705 33.82034
v 10.58502 -29.14804 73.62988
v 6.71572 -31.42837 77.53448
v 11.05289 -28.23144 75.99496
v 16.60819 -23.80967 75.47049
v 16.99496 -24.47016 71.14701
v 3.22264 -36.12936 73.34451
v -0.07222 -39.02195 81.00235
v 5.12449 -34.58106 76.27901
v 13.18443 -26.28901 71.43256
v 10.79292 -29.65380 66.08149
v 1.31741 -39.08392 70.27496
v -1.84502 -39.89020 76.69138
v 2.92616 -36.78075 72.56512
v 10.87775 -31.30027 69.11752
v 9.98550 -32.94728 64.44781
v 7.42034 -32.90908 60.81398
v 0.61988 -38.36264 62.18437
v 6.57671 -33.07099 64.54059
v 13.91023 -24.69371 70.30682
v 16.34584 -25.02845 64.01152
v 45.17388 12.34274 119.63637
v 39.77701 15.24873 117.32693
v 43.71710 11.62842 123.11865
v 49.66977 11.49545 117.24947
v 58.44880 4.45943 123.10667
v 49.55420 8.21835 126.34793
v 42.79201 14.12135 117.25822
v 40.42502 12.42263 124.39028
v 29.82938 19.13524 117.09691
v 37.84095 13.59777 123.87701
v 48.92340 12.78777 110.59435
v 45.31251 15.08130 106.29214
v 47.23139 13.47496 114.66999
v 53.44746 10.80561 109.12501
v 58.94638 6.77539 119.81261
v 50.15309 11.00646 119.75652
v 47.80762 13.77747 107.10255
v 43.35965 14.91846 114.76366
v 37.24072 19.37560 103.08260
v 41.42234 16.02645 113.39832
v 37.32405 10.79046 123.71799
v 30.79506 14.00871 122.11678
v 36.63353 7.87392 127.19078
v 41.63779 12.08373 120.95177
v 55.26783 4.38801 125.38728
v 43.88605 3.71878 129.61829
v 34.08775 13.46368 121.71885
v 33.35050 7.36590 128.76349
v 19.81177 16.22821 122.99554
v 30.37900 8.36057 128.56038
v 37.05248 7.01777 129.92714
v 28.04263 8.56204 129.45740
v 38.08475 2.94852 133.18983
v 40.92091 10.44149 126.75979
v 58.31880 5.94764 128.73442
v 48.44675 0.47903 134.30182
v 31.92936 9.18418 128.59801
v 34.85035 0.96177 135.11607
v 14.83306 7.00859 131.91588
v 31.03629 1.05376 135.38036
v 72.46760 -6.69008 127.41597
v 71.10068 -7.69101 129.20271
v 69.67918 -7.72445 127.37125
v 68.94315 -7.74631 129.65451
v 70.98988 -6.98703 131.36404
v 72.88294 -6.17437 129.83125
v 45.17387 -12.38952 119.63637
v 43.71710 -11.67521 123.11865
v 39.77700 -15.29551 117.32693
v 49.66977 -11.54224 117.24947
v 58.44880 -4.50622 123.10667
v 49.55420 -8.26514 126.34793
v 42.79200 -14.16814 117.25822
v 40.42501 -12.46942 124.39028
v 37.84094 -13.64456 123.87701
v 29.82937 -19.18202 117.09691
v 48.92339 -12.83455 110.59435
v 47.23138 -13.52174 114.66999
v 45.31250 -15.12808 106.29214
v 53.44745 -10.85240 109.12501
v 58.94638 -6.82218 119.81261
v 50.15309 -11.05325 119.75652
v 47.80762 -13.82425 107.10255
v 43.35964 -14.96524 114.76366
v 41.42234 -16.07324 113.39832
v 37.24072 -19.42238 103.08260
v 37.32405 -10.83724 123.71799
v 36.63353 -7.92070 127.19078
v 30.79506 -14.05549 122.11678
v 41.63779 -12.13052 120.95177
v 55.26783 -4.43480 125.38728
v 43.88605 -3.76557 129.61829
v 34.08774 -13.51047 121.71885
v 33.35049 -7.41268 128.76349
v 30.37900 -8.40735 128.56038
v 19.81176 -16.27499 122.99554
v 37.05247 -7.06456 129.92714
v 38.08475 -2.99531 133.18983
v 28.04263 -8.60883 129.45740
v 40.92091 -10.48827 126.75979
v 58.31880 -5.99443 128.73442
v 48.44675 -0.52581 134.30182
v 31.92935 -9.23096 128.59801
v 34.85035 -1.00855 135.11607
v 31.03629 -1.10055 135.38036
v 14.83306 -7.05536 131.91588
vt 0.136310 0.333894
vt 0.157818 0.329488
vt 0.120123 0.285571
vt 0.098901 0.301212
vt 0.135946 0.052275
vt 0.114071 0.106125
vt 0.172835 0.112544
vt 0.207155 0.064715
vt 0.172590 0.376102
vt 0.146546 0.378476
vt 0.207155 0.010814
vt 0.100125 0.382329
vt 0.006225 0.399799
vt 0.029377 0.397167
vt 0.023146 0.318720
vt 0.003743 0.322721
vt 0.039792 0.154700
vt 0.045270 0.116967
vt 0.006225 0.199047
vt 0.025431 0.202798
vt 0.069036 0.010814
vt 0.056468 0.089974
vt 0.142224 0.423064
vt 0.106405 0.449093
vt 0.706588 0.424523
vt 0.789421 0.401276
vt 0.816955 0.505397
vt 0.721989 0.536793
vt 0.552309 0.210625
vt 0.622659 0.167996
vt 0.653899 0.245705
vt 0.547617 0.276544
vt 0.822480 0.187314
vt 0.899274 0.165415
vt 0.849186 0.296845
vt 0.616751 0.714333
vt 0.622772 0.732036
vt 0.564873 0.766733
vt 0.560658 0.714560
vt 0.611539 0.687429
vt 0.652387 0.712904
vt 0.636710 0.875254
vt 0.585229 0.916833
vt 0.581920 0.886525
vt 0.661237 0.888407
vt 0.599199 0.941432
vt 0.332722 0.911279
vt 0.389021 0.928045
vt 0.372142 0.973324
vt 0.302836 0.954516
vt 0.452018 0.817978
vt 0.512566 0.820670
vt 0.534768 0.881677
vt 0.488285 0.877372
vt 0.534115 0.933290
vt 0.543867 0.963691
vt 0.506561 0.977838
vt 0.497872 0.949705
vt 0.495700 0.917398
vt 0.517356 0.906984
vt 0.494129 0.935991
vt 0.470671 0.932038
vt 0.478494 0.898905
vt 0.499840 0.897359
vt 0.298282 0.865808
vt 0.254705 0.899556
vt 0.211573 0.818060
vt 0.246931 0.788927
vt 0.180770 0.772866
vt 0.220154 0.739544
vt 0.664953 0.937563
vt 0.753051 0.937519
vt 0.709489 0.993790
vt 0.441518 0.657716
vt 0.496965 0.662241
vt 0.498232 0.736066
vt 0.444049 0.739604
vt 0.612810 0.439985
vt 0.598583 0.358662
vt 0.485253 0.451833
vt 0.468079 0.363128
vt 0.608910 0.539900
vt 0.480323 0.511338
vt 0.816781 0.790625
vt 0.807407 0.698044
vt 0.876583 0.689925
vt 0.878488 0.791977
vt 0.995438 0.712525
vt 0.939774 0.704944
vt 0.957476 0.673891
vt 0.887848 0.650589
vt 0.924228 0.652320
vt 0.756342 0.813315
vt 0.821259 0.937814
vt 0.897759 0.937689
vt 0.943291 0.783920
vt 0.985671 0.937648
vt 0.759119 0.784160
vt 0.716322 0.139893
vt 0.750191 0.217777
vt 0.774118 0.312255
vt 0.865653 0.369579
vt 0.691028 0.340533
vt 0.697407 0.796779
vt 0.919585 0.286952
vt 0.931085 0.336327
vt 0.208331 0.594958
vt 0.269349 0.543634
vt 0.324999 0.633540
vt 0.267650 0.700273
vt 0.789440 0.612312
vt 0.790873 0.532964
vt 0.822178 0.608056
vt 0.446505 0.567007
vt 0.508969 0.526913
vt 0.425521 0.536442
vt 0.856951 0.600435
vt 0.893676 0.501709
vt 0.888846 0.609320
vt 0.924920 0.605183
vt 0.444098 0.605854
vt 0.536059 0.589297
vt 0.953423 0.619648
vt 0.986930 0.535391
vt 0.507452 0.638968
vt 0.427641 0.634157
vt 0.992001 0.638651
vt 0.803886 0.652324
vt 0.850802 0.647634
vt 0.393634 0.562333
vt 0.391015 0.605161
vt 0.779693 0.656259
vt 0.162004 0.653305
vt 0.585575 0.827888
vt 0.643542 0.825884
vt 0.506845 0.794572
vt 0.380366 0.828610
vt 0.356856 0.746147
vt 0.378913 0.877582
vt 0.808682 0.126741
vt 0.889081 0.103467
vt 0.707792 0.708285
vt 0.748635 0.700535
vt 0.897702 0.994314
vt 0.945452 0.083842
vt 0.990573 0.063090
vt 0.990573 0.170335
vt 0.943433 0.155849
vt 0.186021 0.236212
vt 0.186021 0.173759
vt 0.224446 0.219943
vt 0.184307 0.333948
vt 0.186021 0.274820
vt 0.224251 0.314794
vt 0.234598 0.235611
vt 0.272702 0.221522
vt 0.272702 0.318223
vt 0.234598 0.275614
vt 0.234598 0.324800
vt 0.058013 0.441542
vt 0.053149 0.459885
vt 0.962618 0.285565
vt 0.987916 0.322961
vt 0.128616 0.948801
vt 0.190830 0.928204
vt 0.188462 0.990319
vt 0.250244 0.947106
vt 0.227209 0.871049
vt 0.150486 0.872047
vt 0.818604 0.014277
vt 0.718074 0.009049
vt 0.347350 0.679291
vt 0.066795 0.256730
vt 0.019023 0.263362
vt 0.346619 0.416407
vt 0.344881 0.464395
vt 0.689155 0.676086
vt 0.720631 0.590900
vt 0.730274 0.667184
vt 0.742551 0.664496
vt 0.319920 0.579349
vt 0.264860 0.425354
vt 0.271319 0.391421
vt 0.338202 0.361440
vt 0.454345 0.300890
vt 0.349993 0.316744
vt 0.359248 0.284892
vt 0.437191 0.156690
vt 0.360270 0.204112
vt 0.306553 0.186164
vt 0.328319 0.147898
vt 0.312614 0.329073
vt 0.281798 0.278572
vt 0.292854 0.244125
vt 0.272345 0.359887
vt 0.176421 0.364580
vt 0.897351 0.453848
vt 0.890890 0.028729
vt 0.629387 0.006081
vt 0.629022 0.095776
vt 0.529547 0.145250
vt 0.514756 0.017995
vt 0.951225 0.045786
vt 0.140327 0.508803
vt 0.226868 0.452467
vt 0.987916 0.381022
vt 0.959586 0.404022
vt 0.468861 0.949795
vt 0.079426 0.248407
vt 0.137779 0.157179
vt 0.003743 0.259814
vt 0.071964 0.161818
vt 0.061150 0.193232
vt 0.041066 0.201398
vt 0.098392 0.217199
vt 0.137393 0.204229
vt 0.232883 0.174171
vt 0.272702 0.174504
vt 0.431658 0.934571
vt 0.429070 0.979855
vt 0.442757 0.882295
vt 0.224446 0.174075
vt 0.476708 0.985520
vt 0.271469 0.148420
vt 0.274559 0.097256
vt 0.394699 0.045816
vt 0.197460 0.154971
vt 0.091557 0.595757
vt 0.113591 0.553903
vt 0.058179 0.652206
vt 0.122458 0.702155
vt 0.111264 0.467785
vt 0.153433 0.445889
vt 0.987916 0.274632
vt 0.168585 0.425309
vt 0.160265 0.256666
vt 0.681401 0.848088
vt 0.686179 0.825421
vt 0.560019 0.671161
vt 0.234598 0.341325
vt 0.046454 0.842811
vt 0.094872 0.841405
vt 0.035802 0.778275
vt 0.012045 0.871116
vt 0.042856 0.985258
vt 0.117640 0.911118
vt 0.028027 0.806352
vt 0.117441 0.816105
vt 0.110682 0.782772
vt 0.070553 0.682422
vt 0.046454 0.842811
vt 0.094872 0.841405
vt 0.035802 0.778275
vt 0.012045 0.871116
vt 0.061933 0.985093
vt 0.117640 0.911118
vt 0.028027 0.806352
vt 0.117441 0.816105
vt 0.110682 0.782772
vt 0.070553 0.682422
vt 0.046454 0.842811
vt 0.094872 0.841405
vt 0.035802 0.778275
vt 0.012045 0.871116
vt 0.042856 0.985258
vt 0.117640 0.911118
vt 0.028027 0.806352
vt 0.117441 0.816105
vt 0.110682 0.782772
vt 0.070553 0.682422
vt 0.046454 0.842811
vt 0.094872 0.841405
vt 0.035802 0.778275
vt 0.012045 0.871116
vt 0.042856 0.985258
vt 0.117640 0.911118
vt 0.028027 0.806352
vt 0.117441 0.816105
vt 0.110682 0.782772
vt 0.070553 0.682422
vt 0.046454 0.842811
vt 0.094872 0.841405
vt 0.035802 0.778275
vt 0.012045 0.871116
vt 0.042856 0.985258
vt 0.117640 0.911118
vt 0.028027 0.806352
vt 0.117441 0.816105
vt 0.110682 0.782772
vt 0.070553 0.682422
vt 0.046454 0.842811
vt 0.094872 0.841405
vt 0.035802 0.778275
vt 0.012045 0.871116
vt 0.042856 0.985258
vt 0.117640 0.911118
vt 0.028027 0.806352
vt 0.117441 0.816105
vt 0.110682 0.782772
vt 0.070553 0.682422
vt 0.046454 0.842811
vt 0.094872 0.841405
vt 0.035802 0.778275
vt 0.012045 0.871116
vt 0.042856 0.985258
vt 0.117640 0.911118
vt 0.028027 0.806352
vt 0.117441 0.816105
vt 0.110682 0.782772
vt 0.070553 0.682422
vt 0.017389 0.513402
vt 0.062348 0.512033
vt 0.037531 0.460051
vt 0.015311 0.609794
vt 0.069298 0.612816
vt 0.017389 0.513402
vt 0.062348 0.512033
vt 0.037531 0.460051
vt 0.015311 0.609794
vt 0.069298 0.612816
vt 0.017389 0.513402
vt 0.062348 0.512033
vt 0.037531 0.460051
vt 0.015311 0.609794
vt 0.069298 0.612816
vt 0.017389 0.513402
vt 0.062348 0.512033
vt 0.037531 0.460051
vt 0.015311 0.609794
vt 0.069298 0.612816
vt 0.136310 0.333894
vt 0.098901 0.301212
vt 0.120123 0.285571
vt 0.157818 0.329488
vt 0.135946 0.052275
vt 0.207155 0.064715
vt 0.172835 0.112544
vt 0.114071 0.106125
vt 0.172590 0.376102
vt 0.146546 0.378476
vt 0.207155 0.010814
vt 0.100125 0.382329
vt 0.006225 0.399799
vt 0.003743 0.322721
vt 0.023146 0.318720
vt 0.029377 0.397167
vt 0.039792 0.154700
vt 0.025431 0.202798
vt 0.006225 0.199047
vt 0.045270 0.116967
vt 0.056468 0.089974
vt 0.069036 0.010814
vt 0.142224 0.423064
vt 0.106405 0.449093
vt 0.706588 0.424523
vt 0.789421 0.401276
vt 0.552309 0.210625
vt 0.547617 0.276544
vt 0.653899 0.245705
vt 0.622659 0.167996
vt 0.822480 0.187314
vt 0.849186 0.296845
vt 0.899274 0.165415
vt 0.616751 0.714333
vt 0.560658 0.714560
vt 0.564873 0.766733
vt 0.622772 0.732036
vt 0.636710 0.875254
vt 0.581920 0.886525
vt 0.585229 0.916833
vt 0.332722 0.911279
vt 0.389021 0.928045
vt 0.452018 0.817978
vt 0.488285 0.877372
vt 0.534768 0.881677
vt 0.512566 0.820670
vt 0.534115 0.933290
vt 0.497872 0.949705
vt 0.495700 0.917398
vt 0.494129 0.935991
vt 0.517356 0.906984
vt 0.470671 0.932038
vt 0.478494 0.898905
vt 0.499840 0.897359
vt 0.298282 0.865808
vt 0.246931 0.788927
vt 0.220154 0.739544
vt 0.664953 0.937563
vt 0.709489 0.993790
vt 0.753051 0.937519
vt 0.444049 0.739604
vt 0.498232 0.736066
vt 0.598583 0.358662
vt 0.612810 0.439985
vt 0.468079 0.363128
vt 0.485253 0.451833
vt 0.816781 0.790625
vt 0.878488 0.791977
vt 0.876583 0.689925
vt 0.807407 0.698044
vt 0.995438 0.712525
vt 0.957476 0.673891
vt 0.939774 0.704944
vt 0.887848 0.650589
vt 0.924228 0.652320
vt 0.821259 0.937814
vt 0.756342 0.813315
vt 0.897759 0.937689
vt 0.985671 0.937648
vt 0.943291 0.783920
vt 0.759119 0.784160
vt 0.750191 0.217777
vt 0.716322 0.139893
vt 0.865653 0.369579
vt 0.774118 0.312255
vt 0.691028 0.340533
vt 0.697407 0.796779
vt 0.931085 0.336327
vt 0.919585 0.286952
vt 0.208331 0.594958
vt 0.267650 0.700273
vt 0.789440 0.612312
vt 0.822178 0.608056
vt 0.790873 0.532964
vt 0.446505 0.567007
vt 0.425521 0.536442
vt 0.508969 0.526913
vt 0.856951 0.600435
vt 0.888846 0.609320
vt 0.893676 0.501709
vt 0.924920 0.605183
vt 0.444098 0.605854
vt 0.536059 0.589297
vt 0.953423 0.619648
vt 0.986930 0.535391
vt 0.507452 0.638968
vt 0.427641 0.634157
vt 0.992001 0.638651
vt 0.803886 0.652324
vt 0.850802 0.647634
vt 0.391015 0.605161
vt 0.393634 0.562333
vt 0.779693 0.656259
vt 0.162004 0.653305
vt 0.585575 0.827888
vt 0.643542 0.825884
vt 0.506845 0.794572
vt 0.380366 0.828610
vt 0.356856 0.746147
vt 0.378913 0.877582
vt 0.808682 0.126741
vt 0.889081 0.103467
vt 0.748635 0.700535
vt 0.707792 0.708285
vt 0.897702 0.994314
vt 0.945452 0.083842
vt 0.943433 0.155849
vt 0.990573 0.170335
vt 0.186021 0.236212
vt 0.186021 0.173759
vt 0.184307 0.333948
vt 0.186021 0.274820
vt 0.234598 0.235611
vt 0.234598 0.275614
vt 0.234598 0.324800
vt 0.058013 0.441542
vt 0.053149 0.459885
vt 0.987916 0.322961
vt 0.962618 0.285565
vt 0.128616 0.948801
vt 0.188462 0.990319
vt 0.190830 0.928204
vt 0.250244 0.947106
vt 0.227209 0.871049
vt 0.150486 0.872047
vt 0.066795 0.256730
vt 0.019023 0.263362
vt 0.346619 0.416407
vt 0.689155 0.676086
vt 0.730274 0.667184
vt 0.720631 0.590900
vt 0.742551 0.664496
vt 0.319920 0.579349
vt 0.271319 0.391421
vt 0.338202 0.361440
vt 0.454345 0.300890
vt 0.359248 0.284892
vt 0.349993 0.316744
vt 0.437191 0.156690
vt 0.328319 0.147898
vt 0.306553 0.186164
vt 0.360270 0.204112
vt 0.281798 0.278572
vt 0.312614 0.329073
vt 0.292854 0.244125
vt 0.272345 0.359887
vt 0.529547 0.145250
vt 0.629022 0.095776
vt 0.140327 0.508803
vt 0.468861 0.949795
vt 0.079426 0.248407
vt 0.137779 0.157179
vt 0.003743 0.259814
vt 0.071964 0.161818
vt 0.041066 0.201398
vt 0.061150 0.193232
vt 0.098392 0.217199
vt 0.137393 0.204229
vt 0.232883 0.174171
vt 0.431658 0.934571
vt 0.442757 0.882295
vt 0.271469 0.148420
vt 0.113591 0.553903
vt 0.091557 0.595757
vt 0.111264 0.467785
vt 0.153433 0.445889
vt 0.987916 0.274632
vt 0.168585 0.425309
vt 0.160265 0.256666
vt 0.046454 0.842811
vt 0.035802 0.778275
vt 0.094872 0.841405
vt 0.012045 0.871116
vt 0.042856 0.985258
vt 0.117640 0.911118
vt 0.028027 0.806352
vt 0.117441 0.816105
vt 0.070553 0.682422
vt 0.110682 0.782772
vt 0.046454 0.842811
vt 0.035802 0.778275
vt 0.094872 0.841405
vt 0.012045 0.871116
vt 0.061933 0.985093
vt 0.117640 0.911118
vt 0.028027 0.806352
vt 0.117441 0.816105
vt 0.070553 0.682422
vt 0.110682 0.782772
vt 0.046454 0.842811
vt 0.035802 0.778275
vt 0.094872 0.841405
vt 0.012045 0.871116
vt 0.042856 0.985258
vt 0.117640 0.911118
vt 0.028027 0.806352
vt 0.117441 0.816105
vt 0.070553 0.682422
vt 0.110682 0.782772
vt 0.046454 0.842811
vt 0.035802 0.778275
vt 0.094872 0.841405
vt 0.012045 0.871116
vt 0.042856 0.985258
vt 0.117640 0.911118
vt 0.028027 0.806352
vt 0.117441 0.816105
vt 0.070553 0.682422
vt 0.110682 0.782772
vt 0.046454 0.842811
vt 0.035802 0.778275
vt 0.094872 0.841405
vt 0.012045 0.871116
vt 0.042856 0.985258
vt 0.117640 0.911118
vt 0.028027 0.806352
vt 0.117441 0.816105
vt 0.070553 0.682422
vt 0.110682 0.782772
vt 0.046454 0.842811
vt 0.035802 0.778275
vt 0.094872 0.841405
vt 0.012045 0.871116
vt 0.042856 0.985258
vt 0.117640 0.911118
vt 0.028027 0.806352
vt 0.117441 0.816105
vt 0.070553 0.682422
vt 0.110682 0.782772
vt 0.046454 0.842811
vt 0.035802 0.778275
vt 0.094872 0.841405
vt 0.012045 0.871116
vt 0.042856 0.985258
vt 0.117640 0.911118
vt 0.028027 0.806352
vt 0.117441 0.816105
vt 0.070553 0.682422
vt 0.110682 0.782772
vt 0.017389 0.513402
vt 0.037531 0.460051
vt 0.062348 0.512033
vt 0.069298 0.612816
vt 0.015311 0.609794
vt 0.017389 0.513402
vt 0.037531 0.460051
vt 0.062348 0.512033
vt 0.069298 0.612816
vt 0.015311 0.609794
vt 0.017389 0.513402
vt 0.037531 0.460051
vt 0.062348 0.512033
vt 0.069298 0.612816
vt 0.015311 0.609794
vt 0.017389 0.513402
vt 0.037531 0.460051
vt 0.062348 0.512033
vt 0.069298 0.612816
vt 0.015311 0.609794
vt 0.046454 0.842811
vt 0.035802 0.778275
vt 0.094872 0.841405
vt 0.012045 0.871116
vt 0.042856 0.985258
vt 0.117640 0.911118
vt 0.028027 0.806352
vt 0.117441 0.816105
vt 0.070553 0.682422
vt 0.110682 0.782772
vt 0.046454 0.842811
vt 0.035802 0.778275
vt 0.094872 0.841405
vt 0.012045 0.871116
vt 0.061933 0.985093
vt 0.117640 0.911118
vt 0.028027 0.806352
vt 0.117441 0.816105
vt 0.070553 0.682422
vt 0.110682 0.782772
vt 0.046454 0.842811
vt 0.035802 0.778275
vt 0.094872 0.841405
vt 0.012045 0.871116
vt 0.042856 0.985258
vt 0.117640 0.911118
vt 0.028027 0.806352
vt 0.117441 0.816105
vt 0.070553 0.682422
vt 0.110682 0.782772
vt 0.046454 0.842811
vt 0.035802 0.778275
vt 0.094872 0.841405
vt 0.012045 0.871116
vt 0.042856 0.985258
vt 0.117640 0.911118
vt 0.028027 0.806352
vt 0.117441 0.816105
vt 0.070553 0.682422
vt 0.110682 0.782772
vt 0.128616 0.948801
vt 0.190830 0.928204
vt 0.188462 0.990319
vt 0.250244 0.947106
vt 0.227209 0.871049
vt 0.150486 0.872047
vt 0.046454 0.842811
vt 0.094872 0.841405
vt 0.035802 0.778275
vt 0.012045 0.871116
vt 0.042856 0.985258
vt 0.117640 0.911118
vt 0.028027 0.806352
vt 0.117441 0.816105
vt 0.110682 0.782772
vt 0.070553 0.682422
vt 0.046454 0.842811
vt 0.094872 0.841405
vt 0.035802 0.778275
vt 0.012045 0.871116
vt 0.061933 0.985093
vt 0.117640 0.911118
vt 0.028027 0.806352
vt 0.117441 0.816105
vt 0.110682 0.782772
vt 0.070553 0.682422
vt 0.046454 0.842811
vt 0.094872 0.841405
vt 0.035802 0.778275
vt 0.012045 0.871116
vt 0.042856 0.985258
vt 0.117640 0.911118
vt 0.028027 0.806352
vt 0.117441 0.816105
vt 0.110682 0.782772
vt 0.070553 0.682422
vt 0.046454 0.842811
vt 0.094872 0.841405
vt 0.035802 0.778275
vt 0.012045 0.871116
vt 0.042856 0.985258
vt 0.117640 0.911118
vt 0.028027 0.806352
vt 0.117441 0.816105
vt 0.110682 0.782772
vt 0.070553 0.682422
vn 0.26539 0.78861 0.55468
vn -0.68212 -0.04126 0.73008
vn -0.75381 0.02129 0.65674
vn 0.37719 0.83778 0.39478
vn -0.64460 -0.76334 -0.04248
vn -0.69426 -0.71888 -0.03485
vn -0.75381 0.02129 0.65674
vn -0.68212 -0.04126 0.73008
vn 0.06529 0.59424 0.80163
vn 0.40809 0.76113 0.50412
vn 0.06529 0.59424 0.80163
vn 0.60344 0.79738 0.00660
vn 0.47068 0.71296 -0.51976
vn 0.69658 0.64778 -0.30846
vn 0.62732 0.70105 -0.33910
vn -0.30627 -0.31733 -0.89750
vn 0.47512 0.87769 0.06261
vn -0.62304 0.77723 -0.08789
vn -0.67248 0.00958 -0.74005
vn 0.44061 0.74982 -0.49359
vn 0.47068 0.71296 -0.51976
vn -0.30627 -0.31733 -0.89750
vn 0.52840 0.67263 0.51804
vn 0.71464 0.69931 -0.01584
vn -0.21526 0.69413 0.68692
vn 0.04451 0.68802 0.72433
vn -0.09027 0.00000 0.99592
vn -0.40382 0.00000 0.91484
vn -0.94915 0.29918 -0.09799
vn 0.14231 0.97954 -0.14230
vn -0.16534 0.98614 -0.01342
vn -0.43895 0.49658 -0.74882
vn 0.19463 0.97901 -0.06047
vn 0.47068 0.71296 -0.51976
vn 0.11434 0.95919 0.25861
vn 0.45086 0.83599 -0.31280
vn 0.46569 0.86974 -0.16337
vn 0.33504 0.91549 -0.22276
vn 0.27714 0.75903 -0.58912
vn 0.62419 -0.00000 -0.78127
vn 0.94876 -0.00000 -0.31601
vn 0.51616 0.77626 0.36193
vn 0.38308 0.55427 0.73894
vn 0.25433 0.93462 0.24860
vn 0.73942 -0.00000 0.67324
vn 0.46153 -0.00000 0.88712
vn -0.37145 0.53019 0.76218
vn -0.05168 0.46874 0.88182
vn -0.14262 -0.00000 0.98978
vn -0.57288 -0.00000 0.81964
vn 0.18592 0.98213 0.02930
vn 0.27749 0.93254 0.23103
vn 0.31763 0.92558 0.20596
vn 0.32014 0.93008 0.18016
vn 0.51343 0.60071 0.61282
vn 0.30296 0.00000 0.95300
vn 0.25708 0.00000 0.96639
vn 0.32213 0.15132 0.93452
vn 0.36289 0.91925 0.15261
vn 0.41998 0.90549 0.06094
vn 0.29119 0.71231 0.63861
vn -0.02098 0.85535 0.51762
vn 0.28270 0.95214 0.11621
vn 0.35888 0.93175 0.05524
vn -0.65101 0.67826 0.34082
vn -0.89154 -0.00000 0.45294
vn -0.99267 0.00000 0.12089
vn -0.64585 0.76170 0.05194
vn -0.96409 0.00000 0.26559
vn -0.54325 0.81646 0.19563
vn -0.03932 -0.56607 -0.82342
vn -0.94915 0.29918 -0.09799
vn -0.43895 0.49658 -0.74882
vn 0.13511 0.00000 -0.99083
vn 0.13838 -0.00000 -0.99038
vn 0.25603 0.77617 -0.57620
vn 0.14309 0.79678 -0.58708
vn -0.52638 0.57913 0.62252
vn -0.43516 0.88606 0.15981
vn -0.62160 0.65410 0.43101
vn -0.39507 0.90718 0.14469
vn -0.61677 0.00000 0.78714
vn -0.77879 0.00000 0.62728
vn 0.02475 0.99555 -0.09096
vn -0.29904 0.90969 0.28815
vn 0.72020 0.22645 0.65577
vn 0.92396 -0.21845 -0.31398
vn -0.33429 -0.79381 -0.50806
vn -0.12468 -0.94634 0.29814
vn -0.13764 -0.86218 0.48754
vn 0.72012 0.06424 0.69087
vn 0.50039 -0.39219 0.77188
vn -0.99055 -0.00847 0.13687
vn 0.14231 0.97954 -0.14230
vn 0.73109 0.02308 -0.68189
vn -0.05474 -0.99213 -0.11260
vn -0.03932 -0.56607 -0.82342
vn -0.99038 -0.00359 -0.13830
vn 0.45163 0.63073 -0.63104
vn 0.29777 0.95225 0.06745
vn 0.12603 0.95706 0.26105
vn 0.14254 0.57183 0.80789
vn 0.01454 0.94646 0.32250
vn -0.05474 -0.99213 -0.11260
vn 0.06529 0.59424 0.80163
vn 0.10257 0.42954 0.89720
vn 0.45188 0.89038 -0.05496
vn 0.90211 -0.00000 -0.43151
vn 0.95657 -0.00000 -0.29151
vn 0.37378 0.92146 -0.10586
vn -0.38410 0.87709 -0.28840
vn 0.79752 0.58512 0.14697
vn 0.14421 0.43656 0.88804
vn 0.90337 0.22505 -0.36508
vn 0.79752 0.58512 0.14697
vn -0.38410 0.87709 -0.28840
vn 0.90337 0.22505 -0.36508
vn 0.84584 0.06253 0.52977
vn 0.50110 0.03586 0.86464
vn 0.80594 -0.11087 -0.58152
vn 0.80594 -0.11087 -0.58152
vn 0.84584 0.06253 0.52977
vn 0.33592 -0.35083 0.87411
vn 0.83398 -0.30103 0.46245
vn 0.83398 -0.30103 0.46245
vn -0.16540 -0.96209 -0.21684
vn -0.16540 -0.96209 -0.21684
vn -0.38027 0.83682 0.39387
vn 0.38327 0.51033 0.76985
vn -0.35869 0.67615 -0.64356
vn -0.33429 -0.79381 -0.50806
vn -0.35869 0.67615 -0.64356
vn -0.25770 0.82444 0.50387
vn 0.30395 0.94254 0.13871
vn 0.52244 0.85080 0.05659
vn 0.27460 0.93377 -0.22949
vn -0.11148 0.99290 0.04157
vn 0.03261 0.95105 -0.30731
vn -0.09185 0.85385 0.51236
vn 0.43582 0.67178 -0.59898
vn 0.62580 0.48403 -0.61163
vn -0.12468 -0.94634 0.29814
vn -0.90208 -0.01128 0.43142
vn 0.45163 0.63073 -0.63104
vn 0.69965 0.52808 -0.48127
vn 0.85096 -0.00000 -0.52522
vn 0.69485 0.67920 -0.23639
vn 0.74186 0.55117 -0.38190
vn -0.07716 -0.55395 0.82896
vn -0.12537 -0.48403 0.86602
vn -0.09801 -0.00000 0.99519
vn 0.03441 -0.53538 0.84391
vn -0.01757 -0.53094 0.84723
vn 0.01541 0.00000 0.99988
vn -0.08035 -0.38600 -0.91899
vn 0.41014 0.00000 -0.91202
vn -0.32553 0.00000 -0.94553
vn -0.27083 -0.59263 -0.75857
vn -0.44876 -0.58931 -0.67181
vn 0.70328 0.65793 -0.26933
vn 0.74186 0.55117 -0.38190
vn 0.37481 0.53723 0.75558
vn 0.07787 0.63416 0.76927
vn 0.50063 0.86001 -0.09878
vn 0.35049 0.93271 0.08493
vn 0.18686 0.97411 -0.12725
vn 0.05829 0.98577 0.15770
vn 0.33671 0.89009 0.30718
vn 0.60326 0.77927 0.16977
vn 0.42100 -0.00000 -0.90706
vn 0.16889 -0.00000 -0.98563
vn 0.56292 -0.00000 -0.82651
vn 0.57395 0.74468 0.34063
vn 0.56872 0.68752 -0.45153
vn -0.66791 0.67401 0.31561
vn -0.86434 0.00000 0.50290
vn -0.33429 -0.79381 -0.50806
vn -0.97725 -0.02399 0.21073
vn -0.62414 -0.54205 0.56271
vn -0.63369 0.51817 0.57440
vn -0.97725 -0.02399 0.21073
vn -0.95173 0.00000 0.30692
vn -0.68803 0.71135 0.14353
vn -0.41926 0.87898 -0.22720
vn 0.52064 0.12387 -0.84474
vn -0.34459 0.93738 0.05079
vn 0.76938 0.16089 -0.61819
vn 0.52064 0.12387 -0.84474
vn 0.76938 0.16089 -0.61819
vn -0.16756 -0.97429 -0.15061
vn -0.41926 0.87898 -0.22720
vn -0.16756 -0.97429 -0.15061
vn -0.26995 0.92753 -0.25849
vn -0.26995 0.92753 -0.25849
vn 0.35381 0.52037 -0.77719
vn -0.86844 0.00000 -0.49579
vn 0.13742 -0.00000 0.99051
vn 0.64574 -0.00000 -0.76356
vn -0.31789 0.00000 -0.94813
vn -0.03932 -0.56607 -0.82342
vn -0.43895 0.49658 -0.74882
vn -0.25706 0.00000 -0.96640
vn 0.73907 -0.00000 -0.67363
vn 0.69485 0.67920 -0.23639
vn 0.85096 -0.00000 -0.52522
vn -0.22366 0.00000 0.97467
vn 0.13992 -0.00000 0.99016
vn -0.08897 0.23149 0.96876
vn -0.53208 -0.14818 0.83363
vn -0.53208 -0.14818 0.83363
vn -0.45133 -0.17854 -0.87432
vn -0.45133 -0.17854 -0.87432
vn 0.04514 -0.07177 0.99640
vn 0.64518 0.62093 0.44518
vn -0.67248 0.00958 -0.74005
vn 0.04514 -0.07177 0.99640
vn 0.61211 -0.36349 -0.70228
vn 0.99685 0.00000 -0.07926
vn -0.13650 0.64777 0.74951
vn -0.09602 -0.00000 0.99538
vn 0.11023 0.95601 0.27184
vn -0.19113 0.00000 0.98156
vn 0.05969 0.00000 0.99822
vn 0.35381 0.52037 -0.77719
vn 0.72151 -0.00000 -0.69240
vn 0.49633 -0.00000 -0.86813
vn -0.86844 0.00000 -0.49579
vn 0.07787 0.63416 0.76927
vn 0.46080 0.79421 0.39609
vn -0.22366 0.00000 0.97467
vn -0.78556 0.00000 0.61879
vn 0.69485 0.67920 -0.23639
vn 0.46080 0.79421 0.39609
vn 0.46080 0.79421 0.39609
vn 0.37481 0.53723 0.75558
vn -0.62304 0.77723 -0.08789
vn 0.97477 -0.00000 0.22321
vn 0.99783 -0.00000 0.06589
vn 0.27484 0.00000 -0.96149
vn -0.61860 0.00000 -0.78571
vn 0.36707 0.86038 0.35357
vn 0.37269 0.87984 0.29492
vn 0.33795 0.88410 0.32273
vn 0.35917 0.85557 0.37282
vn 0.41022 0.85777 0.30975
vn 0.38690 0.89016 0.24067
vn 0.33795 0.88410 0.32273
vn 0.33795 0.88410 0.32273
vn 0.33795 0.88410 0.32273
vn 0.33795 0.88410 0.32273
vn 0.45700 0.88541 0.08486
vn 0.42590 0.89607 0.12517
vn 0.43454 0.89646 0.08677
vn 0.43004 0.89528 0.11634
vn 0.44547 0.88750 0.11792
vn 0.38506 0.89763 0.21444
vn 0.43004 0.89528 0.11634
vn 0.34405 0.90707 0.24258
vn 0.40736 0.90752 0.10230
vn 0.43004 0.89528 0.11634
vn 0.19985 0.73039 0.65314
vn 0.19985 0.73039 0.65313
vn 0.19985 0.73039 0.65313
vn 0.19985 0.73039 0.65313
vn 0.19985 0.73039 0.65313
vn 0.19985 0.73040 0.65313
vn 0.19985 0.73039 0.65314
vn 0.19985 0.73040 0.65313
vn 0.19985 0.73040 0.65313
vn 0.19985 0.73040 0.65313
vn 0.07185 0.63367 0.77026
vn 0.07060 0.63679 0.76780
vn 0.06864 0.63461 0.76978
vn 0.07185 0.63238 0.77132
vn 0.07405 0.63676 0.76750
vn 0.07032 0.63970 0.76540
vn 0.06864 0.63460 0.76979
vn 0.06863 0.63461 0.76978
vn 0.06864 0.63461 0.76978
vn 0.06864 0.63461 0.76978
vn -0.06393 0.99778 -0.01870
vn -0.06393 0.99778 -0.01870
vn -0.06393 0.99778 -0.01870
vn -0.06393 0.99778 -0.01870
vn -0.06393 0.99778 -0.01870
vn -0.06393 0.99778 -0.01870
vn -0.06393 0.99778 -0.01869
vn -0.06393 0.99778 -0.01870
vn -0.06393 0.99778 -0.01870
vn -0.06393 0.99778 -0.01870
vn -0.14067 0.98941 -0.03579
vn -0.14067 0.98941 -0.03580
vn -0.14066 0.98941 -0.03580
vn -0.14066 0.98941 -0.03579
vn -0.14067 0.98941 -0.03580
vn -0.14066 0.98941 -0.03580
vn -0.14067 0.98941 -0.03579
vn -0.14066 0.98941 -0.03580
vn -0.14066 0.98941 -0.03579
vn -0.14066 0.98941 -0.03579
vn -0.31846 0.94636 0.05476
vn -0.31845 0.94636 0.05476
vn -0.31845 0.94636 0.05476
vn -0.31845 0.94636 0.05476
vn -0.31845 0.94636 0.05476
vn -0.31845 0.94636 0.05475
vn -0.31845 0.94636 0.05476
vn -0.31845 0.94636 0.05475
vn -0.31845 0.94636 0.05476
vn -0.31845 0.94636 0.05476
vn 0.62336 0.76272 0.17228
vn 0.62336 0.76272 0.17228
vn 0.62336 0.76272 0.17228
vn 0.62336 0.76272 0.17228
vn 0.62336 0.76272 0.17228
vn 0.64294 0.76581 -0.01264
vn 0.67741 0.73530 0.02127
vn 0.64294 0.76581 -0.01264
vn 0.69388 0.71908 0.03825
vn 0.73969 0.66705 0.08886
vn 0.66575 0.70579 0.24213
vn 0.64701 0.73159 0.21482
vn 0.66726 0.70500 0.24028
vn 0.63644 0.74443 0.20192
vn 0.60610 0.77932 0.15906
vn 0.63525 0.76435 0.11060
vn 0.63202 0.75671 0.16717
vn 0.63525 0.76435 0.11060
vn 0.62962 0.75194 0.19535
vn 0.61936 0.73399 0.27865
vn 0.26539 -0.78861 0.55468
vn 0.37719 -0.83778 0.39478
vn -0.75381 -0.02129 0.65674
vn -0.68212 0.04126 0.73008
vn -0.64460 0.76334 -0.04248
vn -0.68212 0.04126 0.73008
vn -0.75381 -0.02129 0.65674
vn -0.69426 0.71888 -0.03485
vn 0.06529 -0.59424 0.80163
vn 0.40809 -0.76113 0.50412
vn 0.06529 -0.59424 0.80163
vn 0.60344 -0.79738 0.00660
vn 0.47068 -0.71296 -0.51976
vn -0.30627 0.31733 -0.89750
vn 0.62732 -0.70105 -0.33910
vn 0.69658 -0.64778 -0.30846
vn 0.47512 -0.87769 0.06261
vn 0.44062 -0.74982 -0.49359
vn -0.67248 -0.00958 -0.74005
vn -0.62304 -0.77723 -0.08789
vn -0.30627 0.31733 -0.89750
vn 0.47068 -0.71296 -0.51976
vn 0.52840 -0.67263 0.51804
vn 0.71464 -0.69931 -0.01584
vn -0.21526 -0.69413 0.68691
vn 0.04451 -0.68802 0.72433
vn -0.94915 -0.29918 -0.09799
vn -0.43895 -0.49658 -0.74882
vn -0.16534 -0.98614 -0.01342
vn 0.14231 -0.97954 -0.14230
vn 0.19463 -0.97901 -0.06047
vn 0.11434 -0.95919 0.25861
vn 0.47068 -0.71296 -0.51976
vn 0.45086 -0.83599 -0.31280
vn 0.27714 -0.75903 -0.58912
vn 0.33504 -0.91549 -0.22276
vn 0.46569 -0.86974 -0.16337
vn 0.51616 -0.77626 0.36193
vn 0.25433 -0.93462 0.24860
vn 0.38308 -0.55427 0.73894
vn -0.37145 -0.53019 0.76218
vn -0.05168 -0.46874 0.88182
vn 0.18592 -0.98213 0.02930
vn 0.32014 -0.93008 0.18016
vn 0.31763 -0.92558 0.20596
vn 0.27749 -0.93254 0.23103
vn 0.51343 -0.60071 0.61282
vn 0.32213 -0.15132 0.93452
vn 0.36289 -0.91925 0.15261
vn 0.29119 -0.71231 0.63861
vn 0.41998 -0.90549 0.06094
vn -0.02098 -0.85535 0.51762
vn 0.28269 -0.95214 0.11621
vn 0.35888 -0.93175 0.05524
vn -0.65101 -0.67826 0.34082
vn -0.64585 -0.76170 0.05194
vn -0.54325 -0.81646 0.19563
vn -0.03932 0.56607 -0.82342
vn -0.43895 -0.49658 -0.74882
vn -0.94915 -0.29918 -0.09799
vn 0.14309 -0.79678 -0.58708
vn 0.25603 -0.77617 -0.57620
vn -0.43516 -0.88606 0.15981
vn -0.52638 -0.57913 0.62252
vn -0.39507 -0.90718 0.14469
vn -0.62160 -0.65410 0.43101
vn 0.02475 -0.99555 -0.09096
vn 0.92396 0.21845 -0.31398
vn 0.72020 -0.22645 0.65577
vn -0.29905 -0.90969 0.28815
vn -0.33429 0.79381 -0.50806
vn -0.13764 0.86218 0.48754
vn -0.12468 0.94634 0.29814
vn 0.72012 -0.06424 0.69087
vn 0.50039 0.39219 0.77188
vn 0.14231 -0.97954 -0.14230
vn -0.99055 0.00847 0.13687
vn 0.73109 -0.02308 -0.68189
vn -0.03932 0.56607 -0.82342
vn -0.05474 0.99213 -0.11260
vn -0.99038 0.00359 -0.13830
vn 0.29777 -0.95225 0.06745
vn 0.45163 -0.63073 -0.63104
vn 0.14254 -0.57183 0.80789
vn 0.12603 -0.95706 0.26105
vn 0.01454 -0.94646 0.32250
vn -0.05474 0.99213 -0.11260
vn 0.10257 -0.42954 0.89720
vn 0.06529 -0.59424 0.80163
vn 0.45188 -0.89038 -0.05496
vn 0.37378 -0.92146 -0.10586
vn -0.38410 -0.87709 -0.28840
vn 0.14421 -0.43656 0.88804
vn 0.79752 -0.58512 0.14697
vn 0.90337 -0.22505 -0.36508
vn -0.38410 -0.87709 -0.28840
vn 0.79752 -0.58512 0.14697
vn 0.90337 -0.22505 -0.36508
vn 0.50110 -0.03586 0.86464
vn 0.84584 -0.06253 0.52977
vn 0.80594 0.11087 -0.58152
vn 0.80594 0.11087 -0.58152
vn 0.84584 -0.06253 0.52977
vn 0.33592 0.35083 0.87411
vn 0.83398 0.30103 0.46245
vn 0.83398 0.30103 0.46245
vn -0.16540 0.96209 -0.21684
vn -0.16540 0.96209 -0.21684
vn -0.38027 -0.83682 0.39387
vn 0.38327 -0.51033 0.76985
vn -0.33429 0.79381 -0.50806
vn -0.35869 -0.67615 -0.64356
vn -0.35869 -0.67615 -0.64356
vn -0.25770 -0.82444 0.50387
vn 0.30395 -0.94254 0.13871
vn 0.52244 -0.85080 0.05659
vn 0.27460 -0.93377 -0.22949
vn -0.11148 -0.99290 0.04157
vn 0.03261 -0.95105 -0.30731
vn -0.09185 -0.85385 0.51236
vn 0.43582 -0.67178 -0.59898
vn 0.62580 -0.48403 -0.61163
vn -0.90208 0.01128 0.43141
vn -0.12468 0.94634 0.29814
vn 0.45163 -0.63073 -0.63104
vn 0.69965 -0.52808 -0.48127
vn 0.74186 -0.55117 -0.38190
vn 0.69485 -0.67920 -0.23639
vn -0.07716 0.55395 0.82896
vn -0.12537 0.48403 0.86602
vn 0.03441 0.53538 0.84391
vn -0.01757 0.53094 0.84723
vn -0.08035 0.38600 -0.91899
vn -0.27083 0.59263 -0.75857
vn -0.44876 0.58931 -0.67181
vn 0.70328 -0.65793 -0.26933
vn 0.74186 -0.55117 -0.38190
vn 0.07787 -0.63416 0.76927
vn 0.37481 -0.53723 0.75558
vn 0.50063 -0.86001 -0.09878
vn 0.18686 -0.97411 -0.12725
vn 0.35049 -0.93271 0.08493
vn 0.05829 -0.98577 0.15770
vn 0.33671 -0.89009 0.30718
vn 0.60326 -0.77927 0.16977
vn 0.57395 -0.74468 0.34063
vn 0.56872 -0.68752 -0.45154
vn -0.66791 -0.67401 0.31561
vn -0.33429 0.79381 -0.50806
vn -0.62414 0.54205 0.56271
vn -0.97725 0.02399 0.21073
vn -0.63369 -0.51817 0.57440
vn -0.97725 0.02399 0.21073
vn -0.68803 -0.71135 0.14353
vn -0.41926 -0.87898 -0.22720
vn 0.52064 -0.12387 -0.84474
vn 0.76938 -0.16089 -0.61819
vn -0.34460 -0.93738 0.05079
vn 0.52064 -0.12387 -0.84474
vn -0.41926 -0.87898 -0.22720
vn -0.16756 0.97429 -0.15061
vn 0.76938 -0.16089 -0.61819
vn -0.26995 -0.92753 -0.25849
vn -0.16756 0.97429 -0.15061
vn -0.26995 -0.92753 -0.25849
vn 0.35381 -0.52037 -0.77719
vn -0.43895 -0.49658 -0.74882
vn -0.03932 0.56607 -0.82342
vn 0.69485 -0.67920 -0.23639
vn -0.08897 -0.23149 0.96876
vn -0.53208 0.14818 0.83363
vn -0.53208 0.14818 0.83363
vn -0.45132 0.17854 -0.87432
vn -0.45132 0.17854 -0.87432
vn 0.64518 -0.62093 0.44518
vn 0.04514 0.07177 0.99640
vn -0.67248 -0.00958 -0.74005
vn 0.04514 0.07177 0.99640
vn 0.61211 0.36349 -0.70228
vn -0.13650 -0.64777 0.74951
vn 0.11023 -0.95601 0.27184
vn 0.35381 -0.52037 -0.77719
vn 0.46080 -0.79421 0.39609
vn 0.07787 -0.63416 0.76927
vn 0.69485 -0.67920 -0.23639
vn 0.46080 -0.79421 0.39609
vn 0.46080 -0.79421 0.39609
vn 0.37481 -0.53723 0.75558
vn -0.62304 -0.77723 -0.08789
vn 0.36707 -0.86038 0.35357
vn 0.33795 -0.88410 0.32273
vn 0.37269 -0.87984 0.29492
vn 0.35917 -0.85557 0.37282
vn 0.41022 -0.85777 0.30975
vn 0.38690 -0.89016 0.24066
vn 0.33795 -0.88410 0.32273
vn 0.33795 -0.88410 0.32273
vn 0.33795 -0.88410 0.32273
vn 0.33795 -0.88410 0.32273
vn 0.45700 -0.88541 0.08486
vn 0.43454 -0.89646 0.08677
vn 0.42590 -0.89607 0.12517
vn 0.43004 -0.89528 0.11634
vn 0.44547 -0.88750 0.11792
vn 0.38506 -0.89763 0.21444
vn 0.43004 -0.89528 0.11634
vn 0.34405 -0.90707 0.24258
vn 0.43004 -0.89528 0.11634
vn 0.40736 -0.90752 0.10230
vn 0.19985 -0.73039 0.65314
vn 0.19985 -0.73039 0.65313
vn 0.19985 -0.73040 0.65313
vn 0.19985 -0.73039 0.65313
vn 0.19985 -0.73039 0.65313
vn 0.19985 -0.73040 0.65313
vn 0.19985 -0.73039 0.65314
vn 0.19985 -0.73040 0.65313
vn 0.19985 -0.73040 0.65313
vn 0.19985 -0.73040 0.65313
vn 0.07185 -0.63367 0.77026
vn 0.06864 -0.63461 0.76978
vn 0.07060 -0.63679 0.76780
vn 0.07185 -0.63238 0.77132
vn 0.07404 -0.63676 0.76750
vn 0.07032 -0.63970 0.76540
vn 0.06864 -0.63460 0.76979
vn 0.06863 -0.63461 0.76978
vn 0.06864 -0.63461 0.76978
vn 0.06864 -0.63461 0.76978
vn -0.06393 -0.99778 -0.01870
vn -0.06393 -0.99778 -0.01870
vn -0.06393 -0.99778 -0.01870
vn -0.06393 -0.99778 -0.01870
vn -0.06393 -0.99778 -0.01870
vn -0.06393 -0.99778 -0.01870
vn -0.06393 -0.99778 -0.01869
vn -0.06393 -0.99778 -0.01870
vn -0.06393 -0.99778 -0.01870
vn -0.06393 -0.99778 -0.01870
vn -0.14067 -0.98941 -0.03579
vn -0.14067 -0.98941 -0.03580
vn -0.14067 -0.98941 -0.03580
vn -0.14066 -0.98941 -0.03579
vn -0.14067 -0.98941 -0.03580
vn -0.14066 -0.98941 -0.03580
vn -0.14067 -0.98941 -0.03579
vn -0.14066 -0.98941 -0.03580
vn -0.14066 -0.98941 -0.03579
vn -0.14066 -0.98941 -0.03579
vn -0.31846 -0.94635 0.05476
vn -0.31845 -0.94636 0.05476
vn -0.31845 -0.94636 0.05476
vn -0.31845 -0.94636 0.05476
vn -0.31846 -0.94636 0.05476
vn -0.31845 -0.94636 0.05475
vn -0.31845 -0.94636 0.05476
vn -0.31845 -0.94636 0.05475
vn -0.31845 -0.94636 0.05476
vn -0.31845 -0.94636 0.05476
vn 0.62336 -0.76272 0.17228
vn 0.62336 -0.76272 0.17228
vn 0.62336 -0.76272 0.17228
vn 0.62336 -0.76272 0.17228
vn 0.62336 -0.76272 0.17228
vn 0.64294 -0.76581 -0.01264
vn 0.64294 -0.76581 -0.01264
vn 0.67741 -0.73530 0.02127
vn 0.73969 -0.66705 0.08886
vn 0.69388 -0.71908 0.03825
vn 0.66575 -0.70579 0.24213
vn 0.66726 -0.70500 0.24028
vn 0.64701 -0.73159 0.21482
vn 0.60610 -0.77932 0.15906
vn 0.63644 -0.74443 0.20192
vn 0.63525 -0.76435 0.11060
vn 0.63525 -0.76435 0.11060
vn 0.63202 -0.75671 0.16717
vn 0.61936 -0.73399 0.27865
vn 0.62962 -0.75194 0.19535
vn -0.36707 -0.86038 -0.35357
vn -0.33795 -0.88410 -0.32273
vn -0.37269 -0.87984 -0.29492
vn -0.35917 -0.85557 -0.37282
vn -0.41022 -0.85777 -0.30975
vn -0.38690 -0.89016 -0.24066
vn -0.33795 -0.88410 -0.32273
vn -0.33795 -0.88410 -0.32273
vn -0.33795 -0.88410 -0.32273
vn -0.33795 -0.88410 -0.32273
vn -0.45700 -0.88541 -0.08486
vn -0.43454 -0.89646 -0.08677
vn -0.42590 -0.89607 -0.12517
vn -0.43004 -0.89528 -0.11634
vn -0.44547 -0.88750 -0.11792
vn -0.38506 -0.89763 -0.21444
vn -0.43004 -0.89528 -0.11634
vn -0.34405 -0.90707 -0.24258
vn -0.43004 -0.89528 -0.11634
vn -0.40736 -0.90752 -0.10230
vn -0.19985 -0.73039 -0.65314
vn -0.19985 -0.73039 -0.65313
vn -0.19985 -0.73039 -0.65313
vn -0.19985 -0.73039 -0.65313
vn -0.19985 -0.73039 -0.65314
vn -0.19985 -0.73040 -0.65313
vn -0.19985 -0.73039 -0.65314
vn -0.19985 -0.73040 -0.65313
vn -0.19985 -0.73039 -0.65313
vn -0.19985 -0.73040 -0.65313
vn -0.07185 -0.63367 -0.77026
vn -0.06864 -0.63461 -0.76978
vn -0.07060 -0.63679 -0.76780
vn -0.07185 -0.63238 -0.77132
vn -0.07404 -0.63676 -0.76750
vn -0.07032 -0.63970 -0.76540
vn -0.06864 -0.63460 -0.76979
vn -0.06863 -0.63460 -0.76978
vn -0.06864 -0.63461 -0.76978
vn -0.06864 -0.63461 -0.76978
vn -0.50063 0.86001 0.09878
vn -0.35049 0.93271 -0.08493
vn -0.18686 0.97411 0.12725
vn -0.05829 0.98577 -0.15770
vn -0.33671 0.89009 -0.30718
vn -0.60326 0.77927 -0.16977
vn -0.36707 0.86038 -0.35357
vn -0.37269 0.87984 -0.29492
vn -0.33795 0.88410 -0.32273
vn -0.35917 0.85557 -0.37282
vn -0.41022 0.85777 -0.30975
vn -0.38689 0.89016 -0.24067
vn -0.33795 0.88410 -0.32273
vn -0.33795 0.88410 -0.32273
vn -0.33795 0.88410 -0.32273
vn -0.33795 0.88410 -0.32273
vn -0.45700 0.88541 -0.08486
vn -0.42590 0.89607 -0.12517
vn -0.43454 0.89646 -0.08677
vn -0.43004 0.89528 -0.11634
vn -0.44547 0.88750 -0.11792
vn -0.38506 0.89763 -0.21444
vn -0.43004 0.89528 -0.11634
vn -0.34405 0.90707 -0.24258
vn -0.40736 0.90752 -0.10230
vn -0.43004 0.89528 -0.11634
vn -0.19985 0.73039 -0.65314
vn -0.19985 0.73039 -0.65313
vn -0.19985 0.73039 -0.65313
vn -0.19985 0.73039 -0.65313
vn -0.19985 0.73039 -0.65314
vn -0.19985 0.73040 -0.65313
vn -0.19985 0.73039 -0.65314
vn -0.19985 0.73040 -0.65313
vn -0.19985 0.73040 -0.65313
vn -0.19985 0.73040 -0.65313
vn -0.07185 0.63367 -0.77026
vn -0.07060 0.63679 -0.76780
vn -0.06864 0.63461 -0.76978
vn -0.07185 0.63238 -0.77132
vn -0.07404 0.63676 -0.76750
vn -0.07032 0.63970 -0.76540
vn -0.06864 0.63460 -0.76979
vn -0.06863 0.63460 -0.76978
vn -0.06864 0.63461 -0.76978
vn -0.06864 0.63461 -0.76978
f 155/155/155 217/217/217 156/156/156
f 157/157/157 158/158/158 155/155/155
f 155/155/155 156/156/156 157/157/157
f 217/217/217 218/218/218 156/156/156
f 509/509/509 156/156/156 218/218/218
f 463/463/463 156/156/156 509/509/509
f 157/157/157 156/156/156 463/463/463
f 463/463/463 464/464/464 157/157/157
f 465/465/465 157/157/157 464/464/464
f 240/240/240 157/157/157 465/465/465
f 240/240/240 159/159/159 157/157/157
f 159/159/159 158/158/158 157/157/157
f 689/689/689 686/686/686 692/692/692
f 690/690/690 687/687/687 686/686/686
f 689/689/689 690/690/690 686/686/686
f 686/686/686 687/687/687 688/688/688
f 694/694/694 695/695/695 688/688/688
f 688/688/688 687/687/687 694/694/694
f 687/687/687 691/691/691 693/693/693
f 687/687/687 690/690/690 691/691/691
f 643/643/643 646/646/646 640/640/640
f 644/644/644 640/640/640 642/642/642
f 643/643/643 640/640/640 644/644/644
f 640/640/640 641/641/641 642/642/642
f 649/649/649 642/642/642 641/641/641
f 641/641/641 648/648/648 649/649/649
f 642/642/642 647/647/647 645/645/645
f 642/642/642 645/645/645 644/644/644
f 428/428/428 404/404/404 429/429/429
f 428/428/428 429/429/429 430/430/430
f 423/423/423 428/428/428 424/424/424
f 422/422/422 423/423/423 424/424/424
f 429/429/429 431/431/431 430/430/430
f 435/435/435 431/431/431 434/434/434
f 431/431/431 405/405/405 434/434/434
f 403/403/403 402/402/402 405/405/405
f 434/434/434 405/405/405 402/402/402
f 402/402/402 438/438/438 434/434/434
f 434/434/434 438/438/438 435/435/435
f 438/438/438 402/402/402 401/401/401
f 401/401/401 402/402/402 403/403/403
f 398/398/398 410/410/410 403/403/403
f 410/410/410 398/398/398 408/408/408
f 408/408/408 398/398/398 397/397/397
f 408/408/408 409/409/409 410/410/410
f 408/408/408 406/406/406 455/455/455
f 409/409/409 408/408/408 455/455/455
f 397/397/397 406/406/406 408/408/408
f 479/479/479 454/454/454 480/480/480
f 400/400/400 482/482/482 453/453/453
f 453/453/453 482/482/482 480/480/480
f 481/481/481 480/480/480 482/482/482
f 479/479/479 480/480/480 481/481/481
f 400/400/400 443/443/443 482/482/482
f 482/482/482 443/443/443 481/481/481
f 400/400/400 439/439/439 443/443/443
f 440/440/440 439/439/439 400/400/400
f 400/400/400 399/399/399 440/440/440
f 399/399/399 400/400/400 397/397/397
f 443/443/443 439/439/439 422/422/422
f 423/423/423 422/422/422 439/439/439
f 439/439/439 440/440/440 423/423/423
f 428/428/428 440/440/440 404/404/404
f 440/440/440 399/399/399 404/404/404
f 440/440/440 428/428/428 423/423/423
f 403/403/403 399/399/399 398/398/398
f 405/405/405 399/399/399 403/403/403
f 404/404/404 399/399/399 405/405/405
f 397/397/397 398/398/398 399/399/399
f 405/405/405 431/431/431 404/404/404
f 404/404/404 431/431/431 429/429/429
f 679/679/679 676/676/676 682/682/682
f 680/680/680 677/677/677 676/676/676
f 679/679/679 680/680/680 676/676/676
f 676/676/676 677/677/677 678/678/678
f 684/684/684 685/685/685 678/678/678
f 678/678/678 677/677/677 684/684/684
f 677/677/677 681/681/681 683/683/683
f 677/677/677 680/680/680 681/681/681
f 633/633/633 636/636/636 630/630/630
f 634/634/634 630/630/630 632/632/632
f 633/633/633 630/630/630 634/634/634
f 630/630/630 631/631/631 632/632/632
f 639/639/639 632/632/632 631/631/631
f 631/631/631 638/638/638 639/639/639
f 632/632/632 637/637/637 635/635/635
f 632/632/632 635/635/635 634/634/634
f 95/95/95 94/94/94 84/84/84
f 86/86/86 87/87/87 84/84/84
f 84/84/84 85/85/85 86/86/86
f 95/95/95 144/144/144 94/94/94
f 97/97/97 144/144/144 95/95/95
f 96/96/96 97/97/97 95/95/95
f 95/95/95 87/87/87 96/96/96
f 87/87/87 86/86/86 89/89/89
f 89/89/89 96/96/96 87/87/87
f 129/129/129 86/86/86 85/85/85
f 129/129/129 91/91/91 86/86/86
f 89/89/89 86/86/86 92/92/92
f 91/91/91 92/92/92 86/86/86
f 92/92/92 90/90/90 89/89/89
f 88/88/88 89/89/89 90/90/90
f 92/92/92 91/91/91 120/120/120
f 90/90/90 92/92/92 123/123/123
f 120/120/120 123/123/123 92/92/92
f 117/117/117 91/91/91 129/129/129
f 91/91/91 119/119/119 120/120/120
f 117/117/117 119/119/119 91/91/91
f 124/124/124 123/123/123 120/120/120
f 119/119/119 118/118/118 120/120/120
f 123/123/123 127/127/127 90/90/90
f 123/123/123 124/124/124 127/127/127
f 127/127/127 88/88/88 90/90/90
f 117/117/117 118/118/118 119/119/119
f 129/129/129 113/113/113 117/117/117
f 113/113/113 112/112/112 117/117/117
f 85/85/85 128/128/128 129/129/129
f 113/113/113 129/129/129 128/128/128
f 128/128/128 111/111/111 113/113/113
f 111/111/111 112/112/112 113/113/113
f 85/85/85 132/132/132 128/128/128
f 132/132/132 111/111/111 128/128/128
f 85/85/85 143/143/143 180/180/180
f 85/85/85 180/180/180 132/132/132
f 180/180/180 178/178/178 132/132/132
f 143/143/143 179/179/179 180/180/180
f 178/178/178 180/180/180 179/179/179
f 179/179/179 143/143/143 142/142/142
f 177/177/177 179/179/179 142/142/142
f 177/177/177 178/178/178 179/179/179
f 659/659/659 656/656/656 662/662/662
f 660/660/660 657/657/657 656/656/656
f 659/659/659 660/660/660 656/656/656
f 656/656/656 657/657/657 658/658/658
f 664/664/664 665/665/665 658/658/658
f 658/658/658 657/657/657 664/664/664
f 657/657/657 661/661/661 663/663/663
f 657/657/657 660/660/660 661/661/661
f 613/613/613 616/616/616 610/610/610
f 614/614/614 610/610/610 612/612/612
f 613/613/613 610/610/610 614/614/614
f 610/610/610 611/611/611 612/612/612
f 619/619/619 612/612/612 611/611/611
f 611/611/611 618/618/618 619/619/619
f 612/612/612 617/617/617 615/615/615
f 612/612/612 615/615/615 614/614/614
f 669/669/669 666/666/666 672/672/672
f 670/670/670 667/667/667 666/666/666
f 669/669/669 670/670/670 666/666/666
f 666/666/666 667/667/667 668/668/668
f 674/674/674 675/675/675 668/668/668
f 668/668/668 667/667/667 674/674/674
f 667/667/667 671/671/671 673/673/673
f 667/667/667 670/670/670 671/671/671
f 623/623/623 626/626/626 620/620/620
f 624/624/624 620/620/620 622/622/622
f 623/623/623 620/620/620 624/624/624
f 620/620/620 621/621/621 622/622/622
f 629/629/629 622/622/622 621/621/621
f 621/621/621 628/628/628 629/629/629
f 622/622/622 627/627/627 625/625/625
f 622/622/622 625/625/625 624/624/624
f 655/655/655 651/651/651 650/650/650
f 650/650/650 651/651/651 652/652/652
f 654/654/654 651/651/651 655/655/655
f 652/652/652 651/651/651 653/653/653
f 653/653/653 651/651/651 654/654/654
f 77/77/77 138/138/138 172/172/172
f 449/449/449 448/448/448 373/373/373
f 387/387/387 386/386/386 449/449/449
f 449/449/449 421/421/421 387/387/387
f 448/448/448 449/449/449 386/386/386
f 421/421/421 420/420/420 444/444/444
f 444/444/444 387/387/387 421/421/421
f 420/420/420 421/421/421 109/109/109
f 387/387/387 444/444/444 231/231/231
f 231/231/231 69/69/69 387/387/387
f 386/386/386 387/387/387 69/69/69
f 386/386/386 385/385/385 448/448/448
f 69/69/69 67/67/67 386/386/386
f 385/385/385 386/386/386 67/67/67
f 70/70/70 69/69/69 231/231/231
f 69/69/69 70/70/70 68/68/68
f 68/68/68 67/67/67 69/69/69
f 230/230/230 231/231/231 444/444/444
f 231/231/231 133/133/133 70/70/70
f 133/133/133 231/231/231 230/230/230
f 70/70/70 110/110/110 138/138/138
f 138/138/138 68/68/68 70/70/70
f 110/110/110 70/70/70 133/133/133
f 68/68/68 138/138/138 137/137/137
f 137/137/137 65/65/65 68/68/68
f 67/67/67 68/68/68 65/65/65
f 67/67/67 66/66/66 385/385/385
f 65/65/65 66/66/66 67/67/67
f 139/139/139 47/47/47 65/65/65
f 65/65/65 137/137/137 139/139/139
f 50/50/50 66/66/66 65/65/65
f 65/65/65 47/47/47 50/50/50
f 51/51/51 137/137/137 138/138/138
f 221/221/221 139/139/139 137/137/137
f 137/137/137 51/51/51 221/221/221
f 138/138/138 77/77/77 51/51/51
f 21/21/21 5/5/5 11/11/11
f 22/22/22 6/6/6 5/5/5
f 5/5/5 21/21/21 22/22/22
f 11/11/11 5/5/5 8/8/8
f 7/7/7 8/8/8 5/5/5
f 5/5/5 6/6/6 7/7/7
f 6/6/6 210/210/210 7/7/7
f 22/22/22 212/212/212 6/6/6
f 6/6/6 212/212/212 210/210/210
f 210/210/210 212/212/212 215/215/215
f 215/215/215 216/216/216 210/210/210
f 215/215/215 236/236/236 216/216/216
f 352/352/352 341/341/341 335/335/335
f 351/351/351 352/352/352 335/335/335
f 335/335/335 338/338/338 351/351/351
f 341/341/341 336/336/336 335/335/335
f 337/337/337 338/338/338 335/335/335
f 335/335/335 336/336/336 337/337/337
f 338/338/338 337/337/337 502/502/502
f 351/351/351 338/338/338 504/504/504
f 338/338/338 502/502/502 504/504/504
f 502/502/502 508/508/508 507/507/507
f 507/507/507 504/504/504 502/502/502
f 507/507/507 508/508/508 519/519/519
f 201/201/201 202/202/202 199/199/199
f 199/199/199 200/200/200 201/201/201
f 497/497/497 202/202/202 226/226/226
f 226/226/226 489/489/489 497/497/497
f 226/226/226 202/202/202 201/201/201
f 201/201/201 188/188/188 226/226/226
f 188/188/188 191/191/191 226/226/226
f 190/190/190 191/191/191 188/188/188
f 188/188/188 189/189/189 190/190/190
f 226/226/226 191/191/191 224/224/224
f 489/489/489 226/226/226 490/490/490
f 226/226/226 225/225/225 512/512/512
f 512/512/512 490/490/490 226/226/226
f 224/224/224 225/225/225 226/226/226
f 491/491/491 492/492/492 489/489/489
f 489/489/489 490/490/490 491/491/491
f 491/491/491 495/495/495 492/492/492
f 225/225/225 227/227/227 512/512/512
f 225/225/225 224/224/224 227/227/227
f 190/190/190 189/189/189 194/194/194
f 141/141/141 145/145/145 148/148/148
f 203/203/203 146/146/146 145/145/145
f 147/147/147 148/148/148 145/145/145
f 145/145/145 146/146/146 147/147/147
f 38/38/38 136/136/136 76/76/76
f 77/77/77 76/76/76 136/136/136
f 76/76/76 77/77/77 74/74/74
f 74/74/74 75/75/75 76/76/76
f 75/75/75 392/392/392 365/365/365
f 365/365/365 239/239/239 75/75/75
f 392/392/392 75/75/75 74/74/74
f 366/366/366 365/365/365 392/392/392
f 364/364/364 365/365/365 366/366/366
f 364/364/364 367/367/367 41/41/41
f 366/366/366 367/367/367 364/364/364
f 366/366/366 392/392/392 447/447/447
f 447/447/447 392/392/392 391/391/391
f 74/74/74 391/391/391 392/392/392
f 391/391/391 74/74/74 172/172/172
f 172/172/172 74/74/74 77/77/77
f 373/373/373 391/391/391 449/449/449
f 172/172/172 449/449/449 391/391/391
f 391/391/391 373/373/373 447/447/447
f 449/449/449 172/172/172 421/421/421
f 421/421/421 172/172/172 109/109/109
f 138/138/138 110/110/110 172/172/172
f 110/110/110 109/109/109 172/172/172
f 420/420/420 499/499/499 513/513/513
f 444/444/444 420/420/420 513/513/513
f 513/513/513 514/514/514 444/444/444
f 444/444/444 514/514/514 230/230/230
f 40/40/40 36/36/36 39/39/39
f 41/41/41 37/37/37 36/36/36
f 36/36/36 40/40/40 41/41/41
f 38/38/38 39/39/39 36/36/36
f 36/36/36 37/37/37 38/38/38
f 365/365/365 364/364/364 40/40/40
f 40/40/40 239/239/239 365/365/365
f 41/41/41 40/40/40 364/364/364
f 39/39/39 239/239/239 40/40/40
f 75/75/75 239/239/239 39/39/39
f 39/39/39 76/76/76 75/75/75
f 38/38/38 76/76/76 39/39/39
f 187/187/187 186/186/186 193/193/193
f 186/186/186 192/192/192 193/193/193
f 186/186/186 187/187/187 185/185/185
f 79/79/79 32/32/32 31/31/31
f 31/31/31 32/32/32 29/29/29
f 31/31/31 103/103/103 79/79/79
f 103/103/103 31/31/31 100/100/100
f 100/100/100 31/31/31 30/30/30
f 29/29/29 30/30/30 31/31/31
f 100/100/100 101/101/101 103/103/103
f 33/33/33 100/100/100 99/99/99
f 101/101/101 100/100/100 33/33/33
f 30/30/30 99/99/99 100/100/100
f 33/33/33 35/35/35 101/101/101
f 26/26/26 101/101/101 35/35/35
f 99/99/99 140/140/140 33/33/33
f 34/34/34 33/33/33 140/140/140
f 33/33/33 34/34/34 35/35/35
f 171/171/171 99/99/99 200/200/200
f 99/99/99 171/171/171 170/170/170
f 170/170/170 140/140/140 99/99/99
f 141/141/141 140/140/140 170/170/170
f 140/140/140 141/141/141 34/34/34
f 148/148/148 34/34/34 141/141/141
f 34/34/34 105/105/105 35/35/35
f 102/102/102 35/35/35 105/105/105
f 35/35/35 102/102/102 26/26/26
f 26/26/26 102/102/102 197/197/197
f 102/102/102 106/106/106 207/207/207
f 207/207/207 197/197/197 102/102/102
f 105/105/105 106/106/106 102/102/102
f 163/163/163 106/106/106 105/105/105
f 105/105/105 162/162/162 163/163/163
f 106/106/106 163/163/163 206/206/206
f 206/206/206 207/207/207 106/106/106
f 414/414/414 197/197/197 207/207/207
f 207/207/207 418/418/418 414/414/414
f 418/418/418 207/207/207 206/206/206
f 197/197/197 414/414/414 356/356/356
f 419/419/419 362/362/362 414/414/414
f 414/414/414 418/418/418 419/419/419
f 356/356/356 414/414/414 362/362/362
f 347/347/347 350/350/350 506/506/506
f 506/506/506 505/505/505 347/347/347
f 505/505/505 476/476/476 477/477/477
f 505/505/505 506/506/506 501/501/501
f 501/501/501 476/476/476 505/505/505
f 355/355/355 28/28/28 27/27/27
f 356/356/356 27/27/27 197/197/197
f 27/27/27 356/356/356 355/355/355
f 197/197/197 27/27/27 26/26/26
f 416/416/416 355/355/355 415/415/415
f 415/415/415 355/355/355 356/356/356
f 393/393/393 355/355/355 416/416/416
f 355/355/355 393/393/393 394/394/394
f 82/82/82 394/394/394 396/396/396
f 396/396/396 394/394/394 393/393/393
f 395/395/395 393/393/393 358/358/358
f 393/393/393 416/416/416 359/359/359
f 359/359/359 358/358/358 393/393/393
f 393/393/393 395/395/395 396/396/396
f 416/416/416 415/415/415 412/412/412
f 412/412/412 359/359/359 416/416/416
f 361/361/361 412/412/412 415/415/415
f 415/415/415 362/362/362 361/361/361
f 362/362/362 415/415/415 356/356/356
f 413/413/413 412/412/412 361/361/361
f 412/412/412 413/413/413 360/360/360
f 360/360/360 359/359/359 412/412/412
f 359/359/359 360/360/360 357/357/357
f 563/563/563 566/566/566 560/560/560
f 564/564/564 560/560/560 562/562/562
f 563/563/563 560/560/560 564/564/564
f 560/560/560 561/561/561 562/562/562
f 569/569/569 562/562/562 561/561/561
f 561/561/561 568/568/568 569/569/569
f 562/562/562 567/567/567 565/565/565
f 562/562/562 565/565/565 564/564/564
f 284/284/284 281/281/281 287/287/287
f 285/285/285 282/282/282 281/281/281
f 284/284/284 285/285/285 281/281/281
f 281/281/281 282/282/282 283/283/283
f 289/289/289 290/290/290 283/283/283
f 283/283/283 282/282/282 289/289/289
f 282/282/282 286/286/286 288/288/288
f 282/282/282 285/285/285 286/286/286
f 206/206/206 468/468/468 418/418/418
f 419/419/419 418/418/418 468/468/468
f 468/468/468 469/469/469 419/419/419
f 363/363/363 362/362/362 419/419/419
f 361/361/361 362/362/362 363/363/363
f 452/452/452 363/363/363 457/457/457
f 363/363/363 452/452/452 451/451/451
f 451/451/451 361/361/361 363/363/363
f 361/361/361 451/451/451 413/413/413
f 170/170/170 451/451/451 452/452/452
f 413/413/413 451/451/451 170/170/170
f 198/198/198 452/452/452 456/456/456
f 457/457/457 456/456/456 452/452/452
f 452/452/452 198/198/198 170/170/170
f 456/456/456 457/457/457 458/458/458
f 456/456/456 203/203/203 198/198/198
f 203/203/203 456/456/456 146/146/146
f 458/458/458 146/146/146 456/456/456
f 145/145/145 141/141/141 198/198/198
f 198/198/198 203/203/203 145/145/145
f 170/170/170 198/198/198 141/141/141
f 170/170/170 171/171/171 413/413/413
f 498/498/498 413/413/413 171/171/171
f 171/171/171 199/199/199 498/498/498
f 200/200/200 199/199/199 171/171/171
f 497/497/497 498/498/498 199/199/199
f 199/199/199 202/202/202 497/497/497
f 417/417/417 388/388/388 390/390/390
f 388/388/388 389/389/389 390/390/390
f 411/411/411 417/417/417 407/407/407
f 454/454/454 417/417/417 411/411/411
f 390/390/390 407/407/407 417/417/417
f 397/397/397 407/407/407 390/390/390
f 390/390/390 406/406/406 397/397/397
f 407/407/407 397/397/397 411/411/411
f 400/400/400 453/453/453 411/411/411
f 411/411/411 397/397/397 400/400/400
f 411/411/411 453/453/453 454/454/454
f 480/480/480 454/454/454 453/453/453
f 573/573/573 576/576/576 570/570/570
f 574/574/574 570/570/570 572/572/572
f 573/573/573 570/570/570 574/574/574
f 570/570/570 571/571/571 572/572/572
f 579/579/579 572/572/572 571/571/571
f 571/571/571 578/578/578 579/579/579
f 572/572/572 577/577/577 575/575/575
f 572/572/572 575/575/575 574/574/574
f 294/294/294 291/291/291 297/297/297
f 295/295/295 292/292/292 291/291/291
f 294/294/294 295/295/295 291/291/291
f 291/291/291 292/292/292 293/293/293
f 299/299/299 300/300/300 293/293/293
f 293/293/293 292/292/292 299/299/299
f 292/292/292 296/296/296 298/298/298
f 292/292/292 295/295/295 296/296/296
f 78/78/78 25/25/25 28/28/28
f 103/103/103 101/101/101 25/25/25
f 101/101/101 26/26/26 25/25/25
f 79/79/79 103/103/103 25/25/25
f 25/25/25 78/78/78 79/79/79
f 27/27/27 28/28/28 25/25/25
f 25/25/25 26/26/26 27/27/27
f 28/28/28 82/82/82 78/78/78
f 80/80/80 78/78/78 82/82/82
f 79/79/79 78/78/78 80/80/80
f 394/394/394 82/82/82 28/28/28
f 28/28/28 355/355/355 394/394/394
f 609/609/609 605/605/605 607/607/607
f 605/605/605 606/606/606 607/607/607
f 607/607/607 608/608/608 609/609/609
f 327/327/327 326/326/326 329/329/329
f 326/326/326 327/327/327 328/328/328
f 329/329/329 330/330/330 327/327/327
f 599/599/599 595/595/595 597/597/597
f 595/595/595 596/596/596 597/597/597
f 597/597/597 598/598/598 599/599/599
f 317/317/317 316/316/316 319/319/319
f 316/316/316 317/317/317 318/318/318
f 319/319/319 320/320/320 317/317/317
f 604/604/604 600/600/600 602/602/602
f 600/600/600 601/601/601 602/602/602
f 602/602/602 603/603/603 604/604/604
f 322/322/322 321/321/321 324/324/324
f 321/321/321 322/322/322 323/323/323
f 324/324/324 325/325/325 322/322/322
f 594/594/594 590/590/590 592/592/592
f 590/590/590 591/591/591 592/592/592
f 592/592/592 593/593/593 594/594/594
f 312/312/312 311/311/311 314/314/314
f 311/311/311 312/312/312 313/313/313
f 314/314/314 315/315/315 312/312/312
f 517/517/517 469/469/469 468/468/468
f 234/234/234 163/163/163 162/162/162
f 583/583/583 586/586/586 580/580/580
f 584/584/584 580/580/580 582/582/582
f 583/583/583 580/580/580 584/584/584
f 580/580/580 581/581/581 582/582/582
f 589/589/589 582/582/582 581/581/581
f 581/581/581 588/588/588 589/589/589
f 582/582/582 587/587/587 585/585/585
f 582/582/582 585/585/585 584/584/584
f 304/304/304 301/301/301 307/307/307
f 305/305/305 302/302/302 301/301/301
f 304/304/304 305/305/305 301/301/301
f 301/301/301 302/302/302 303/303/303
f 309/309/309 310/310/310 303/303/303
f 303/303/303 302/302/302 309/309/309
f 302/302/302 306/306/306 308/308/308
f 302/302/302 305/305/305 306/306/306
f 342/342/342 332/332/332 331/331/331
f 331/331/331 340/340/340 342/342/342
f 331/331/331 334/334/334 339/339/339
f 339/339/339 340/340/340 331/331/331
f 333/333/333 334/334/334 331/331/331
f 331/331/331 332/332/332 333/333/333
f 342/342/342 346/346/346 345/345/345
f 345/345/345 332/332/332 342/342/342
f 466/466/466 346/346/346 342/342/342
f 342/342/342 354/354/354 466/466/466
f 342/342/342 340/340/340 353/353/353
f 353/353/353 354/354/354 342/342/342
f 12/12/12 10/10/10 1/1/1
f 1/1/1 4/4/4 12/12/12
f 1/1/1 10/10/10 9/9/9
f 9/9/9 2/2/2 1/1/1
f 3/3/3 4/4/4 1/1/1
f 1/1/1 2/2/2 3/3/3
f 12/12/12 4/4/4 15/15/15
f 15/15/15 14/14/14 12/12/12
f 160/160/160 24/24/24 12/12/12
f 12/12/12 14/14/14 160/160/160
f 12/12/12 24/24/24 23/23/23
f 23/23/23 10/10/10 12/12/12
f 9/9/9 10/10/10 23/23/23
f 23/23/23 235/235/235 9/9/9
f 235/235/235 23/23/23 233/233/233
f 233/233/233 23/23/23 24/24/24
f 24/24/24 232/232/232 233/233/233
f 232/232/232 24/24/24 160/160/160
f 160/160/160 161/161/161 232/232/232
f 161/161/161 160/160/160 14/14/14
f 14/14/14 13/13/13 161/161/161
f 13/13/13 14/14/14 15/15/15
f 15/15/15 16/16/16 13/13/13
f 16/16/16 15/15/15 174/174/174
f 15/15/15 4/4/4 173/173/173
f 173/173/173 174/174/174 15/15/15
f 174/174/174 211/211/211 16/16/16
f 214/214/214 20/20/20 174/174/174
f 174/174/174 173/173/173 214/214/214
f 211/211/211 174/174/174 20/20/20
f 214/214/214 173/173/173 209/209/209
f 209/209/209 173/173/173 4/4/4
f 4/4/4 3/3/3 209/209/209
f 209/209/209 213/213/213 214/214/214
f 214/214/214 17/17/17 20/20/20
f 332/332/332 476/476/476 501/501/501
f 501/501/501 333/333/333 332/332/332
f 476/476/476 332/332/332 345/345/345
f 477/477/477 345/345/345 344/344/344
f 345/345/345 477/477/477 476/476/476
f 345/345/345 346/346/346 343/343/343
f 343/343/343 344/344/344 345/345/345
f 467/467/467 343/343/343 346/346/346
f 346/346/346 466/466/466 467/467/467
f 515/515/515 467/467/467 466/466/466
f 466/466/466 354/354/354 515/515/515
f 516/516/516 515/515/515 354/354/354
f 354/354/354 353/353/353 516/516/516
f 518/518/518 516/516/516 353/353/353
f 339/339/339 518/518/518 353/353/353
f 353/353/353 340/340/340 339/339/339
f 344/344/344 503/503/503 477/477/477
f 348/348/348 477/477/477 503/503/503
f 503/503/503 349/349/349 348/348/348
f 505/505/505 348/348/348 347/347/347
f 477/477/477 348/348/348 505/505/505
f 347/347/347 348/348/348 349/349/349
f 349/349/349 350/350/350 347/347/347
f 133/133/133 107/107/107 110/110/110
f 109/109/109 110/110/110 107/107/107
f 230/230/230 228/228/228 133/133/133
f 229/229/229 107/107/107 133/133/133
f 133/133/133 228/228/228 229/229/229
f 107/107/107 229/229/229 204/204/204
f 108/108/108 107/107/107 204/204/204
f 107/107/107 108/108/108 109/109/109
f 109/109/109 108/108/108 420/420/420
f 499/499/499 420/420/420 108/108/108
f 108/108/108 205/205/205 499/499/499
f 204/204/204 205/205/205 108/108/108
f 220/220/220 510/510/510 372/372/372
f 510/510/510 511/511/511 450/450/450
f 448/448/448 450/450/450 511/511/511
f 450/450/450 448/448/448 385/385/385
f 510/510/510 220/220/220 500/500/500
f 510/510/510 500/500/500 382/382/382
f 511/511/511 510/510/510 382/382/382
f 511/511/511 383/383/383 374/374/374
f 382/382/382 383/383/383 511/511/511
f 373/373/373 511/511/511 374/374/374
f 511/511/511 373/373/373 448/448/448
f 380/380/380 382/382/382 500/500/500
f 72/72/72 71/71/71 104/104/104
f 71/71/71 72/72/72 73/73/73
f 104/104/104 93/93/93 72/72/72
f 84/84/84 94/94/94 72/72/72
f 72/72/72 93/93/93 84/84/84
f 98/98/98 93/93/93 104/104/104
f 98/98/98 104/104/104 142/142/142
f 93/93/93 98/98/98 84/84/84
f 85/85/85 84/84/84 98/98/98
f 98/98/98 143/143/143 85/85/85
f 142/142/142 143/143/143 98/98/98
f 84/84/84 87/87/87 95/95/95
f 475/475/475 470/470/470 472/472/472
f 470/470/470 471/471/471 472/472/472
f 474/474/474 475/475/475 472/472/472
f 471/471/471 473/473/473 472/472/472
f 473/473/473 474/474/474 472/472/472
f 169/169/169 165/165/165 164/164/164
f 164/164/164 165/165/165 166/166/166
f 168/168/168 165/165/165 169/169/169
f 166/166/166 165/165/165 167/167/167
f 167/167/167 165/165/165 168/168/168
f 533/533/533 536/536/536 530/530/530
f 534/534/534 530/530/530 532/532/532
f 533/533/533 530/530/530 534/534/534
f 530/530/530 531/531/531 532/532/532
f 539/539/539 532/532/532 531/531/531
f 531/531/531 538/538/538 539/539/539
f 532/532/532 537/537/537 535/535/535
f 532/532/532 535/535/535 534/534/534
f 254/254/254 251/251/251 257/257/257
f 255/255/255 252/252/252 251/251/251
f 254/254/254 255/255/255 251/251/251
f 251/251/251 252/252/252 253/253/253
f 259/259/259 260/260/260 253/253/253
f 253/253/253 252/252/252 259/259/259
f 252/252/252 256/256/256 258/258/258
f 252/252/252 255/255/255 256/256/256
f 17/17/17 214/214/214 213/213/213
f 20/20/20 19/19/19 211/211/211
f 19/19/19 20/20/20 17/17/17
f 213/213/213 18/18/18 17/17/17
f 17/17/17 18/18/18 19/19/19
f 153/153/153 149/149/149 151/151/151
f 149/149/149 150/150/150 151/151/151
f 151/151/151 154/154/154 153/153/153
f 152/152/152 153/153/153 154/154/154
f 460/460/460 151/151/151 222/222/222
f 151/151/151 459/459/459 462/462/462
f 462/462/462 154/154/154 151/151/151
f 459/459/459 151/151/151 460/460/460
f 150/150/150 222/222/222 151/151/151
f 461/461/461 154/154/154 462/462/462
f 523/523/523 526/526/526 520/520/520
f 524/524/524 520/520/520 522/522/522
f 523/523/523 520/520/520 524/524/524
f 520/520/520 521/521/521 522/522/522
f 529/529/529 522/522/522 521/521/521
f 521/521/521 528/528/528 529/529/529
f 522/522/522 527/527/527 525/525/525
f 522/522/522 525/525/525 524/524/524
f 244/244/244 241/241/241 247/247/247
f 245/245/245 242/242/242 241/241/241
f 244/244/244 245/245/245 241/241/241
f 241/241/241 242/242/242 243/243/243
f 249/249/249 250/250/250 243/243/243
f 243/243/243 242/242/242 249/249/249
f 242/242/242 246/246/246 248/248/248
f 242/242/242 245/245/245 246/246/246
f 51/51/51 54/54/54 221/221/221
f 136/136/136 51/51/51 77/77/77
f 53/53/53 54/54/54 51/51/51
f 51/51/51 52/52/52 53/53/53
f 221/221/221 54/54/54 63/63/63
f 62/62/62 219/219/219 221/221/221
f 221/221/221 63/63/63 62/62/62
f 139/139/139 221/221/221 219/219/219
f 54/54/54 64/64/64 63/63/63
f 53/53/53 64/64/64 54/54/54
f 63/63/63 64/64/64 59/59/59
f 62/62/62 63/63/63 59/59/59
f 219/219/219 62/62/62 208/208/208
f 208/208/208 62/62/62 61/61/61
f 59/59/59 61/61/61 62/62/62
f 219/219/219 208/208/208 220/220/220
f 219/219/219 48/48/48 139/139/139
f 48/48/48 219/219/219 220/220/220
f 48/48/48 47/47/47 139/139/139
f 220/220/220 49/49/49 48/48/48
f 47/47/47 48/48/48 49/49/49
f 49/49/49 50/50/50 47/47/47
f 372/372/372 49/49/49 220/220/220
f 49/49/49 372/372/372 371/371/371
f 371/371/371 50/50/50 49/49/49
f 50/50/50 371/371/371 385/385/385
f 385/385/385 66/66/66 50/50/50
f 372/372/372 450/450/450 371/371/371
f 385/385/385 371/371/371 450/450/450
f 450/450/450 372/372/372 510/510/510
f 543/543/543 546/546/546 540/540/540
f 544/544/544 540/540/540 542/542/542
f 543/543/543 540/540/540 544/544/544
f 540/540/540 541/541/541 542/542/542
f 549/549/549 542/542/542 541/541/541
f 541/541/541 548/548/548 549/549/549
f 542/542/542 547/547/547 545/545/545
f 542/542/542 545/545/545 544/544/544
f 264/264/264 261/261/261 267/267/267
f 265/265/265 262/262/262 261/261/261
f 264/264/264 265/265/265 261/261/261
f 261/261/261 262/262/262 263/263/263
f 269/269/269 270/270/270 263/263/263
f 263/263/263 262/262/262 269/269/269
f 262/262/262 266/266/266 268/268/268
f 262/262/262 265/265/265 266/266/266
f 357/357/357 358/358/358 359/359/359
f 395/395/395 358/358/358 486/486/486
f 485/485/485 395/395/395 488/488/488
f 488/488/488 395/395/395 486/486/486
f 478/478/478 396/396/396 395/395/395
f 395/395/395 485/485/485 478/478/478
f 486/486/486 487/487/487 488/488/488
f 488/488/488 494/494/494 485/485/485
f 487/487/487 493/493/493 488/488/488
f 488/488/488 493/493/493 494/494/494
f 484/484/484 478/478/478 485/485/485
f 485/485/485 496/496/496 484/484/484
f 484/484/484 196/196/196 182/182/182
f 496/496/496 196/196/196 484/484/484
f 478/478/478 484/484/484 182/182/182
f 183/183/183 182/182/182 196/196/196
f 195/195/195 183/183/183 196/196/196
f 182/182/182 176/176/176 478/478/478
f 182/182/182 183/183/183 175/175/175
f 175/175/175 176/176/176 182/182/182
f 183/183/183 195/195/195 184/184/184
f 184/184/184 175/175/175 183/183/183
f 175/175/175 184/184/184 81/81/81
f 81/81/81 80/80/80 175/175/175
f 83/83/83 176/176/176 175/175/175
f 175/175/175 80/80/80 83/83/83
f 478/478/478 176/176/176 83/83/83
f 83/83/83 396/396/396 478/478/478
f 396/396/396 83/83/83 82/82/82
f 82/82/82 83/83/83 80/80/80
f 80/80/80 81/81/81 79/79/79
f 81/81/81 32/32/32 79/79/79
f 186/186/186 81/81/81 184/184/184
f 81/81/81 185/185/185 32/32/32
f 185/185/185 81/81/81 186/186/186
f 184/184/184 192/192/192 186/186/186
f 553/553/553 556/556/556 550/550/550
f 554/554/554 550/550/550 552/552/552
f 553/553/553 550/550/550 554/554/554
f 550/550/550 551/551/551 552/552/552
f 559/559/559 552/552/552 551/551/551
f 551/551/551 558/558/558 559/559/559
f 552/552/552 557/557/557 555/555/555
f 552/552/552 555/555/555 554/554/554
f 274/274/274 271/271/271 277/277/277
f 275/275/275 272/272/272 271/271/271
f 274/274/274 275/275/275 271/271/271
f 271/271/271 272/272/272 273/273/273
f 279/279/279 280/280/280 273/273/273
f 273/273/273 272/272/272 279/279/279
f 272/272/272 276/276/276 278/278/278
f 272/272/272 275/275/275 276/276/276
f 53/53/53 55/55/55 60/60/60
f 60/60/60 64/64/64 53/53/53
f 58/58/58 61/61/61 55/55/55
f 55/55/55 61/61/61 59/59/59
f 59/59/59 60/60/60 55/55/55
f 59/59/59 64/64/64 60/60/60
f 61/61/61 58/58/58 208/208/208
f 208/208/208 223/223/223 220/220/220
f 379/379/379 383/383/383 382/382/382
f 382/382/382 380/380/380 379/379/379
f 374/374/374 383/383/383 384/384/384
f 383/383/383 379/379/379 384/384/384
f 375/375/375 374/374/374 384/384/384
f 373/373/373 374/374/374 375/375/375
f 375/375/375 376/376/376 373/373/373
f 445/445/445 376/376/376 375/375/375
f 375/375/375 369/369/369 445/445/445
f 375/375/375 377/377/377 369/369/369
f 375/375/375 381/381/381 377/377/377
f 381/381/381 375/375/375 384/384/384
f 379/379/379 381/381/381 384/384/384
f 377/377/377 381/381/381 379/379/379
f 379/379/379 380/380/380 377/377/377
f 378/378/378 377/377/377 380/380/380
f 370/370/370 377/377/377 56/56/56
f 377/377/377 370/370/370 369/369/369
f 57/57/57 56/56/56 377/377/377
f 377/377/377 378/378/378 57/57/57
f 500/500/500 378/378/378 380/380/380
f 57/57/57 378/378/378 500/500/500
f 500/500/500 223/223/223 57/57/57
f 500/500/500 220/220/220 223/223/223
f 57/57/57 223/223/223 208/208/208
f 208/208/208 58/58/58 57/57/57
f 57/57/57 58/58/58 55/55/55
f 114/114/114 116/116/116 130/130/130
f 121/121/121 114/114/114 130/130/130
f 121/121/121 122/122/122 114/114/114
f 114/114/114 115/115/115 116/116/116
f 126/126/126 121/121/121 131/131/131
f 130/130/130 131/131/131 121/121/121
f 125/125/125 121/121/121 126/126/126
f 130/130/130 181/181/181 131/131/131
f 425/425/425 442/442/442 426/426/426
f 442/442/442 425/425/425 432/432/432
f 432/432/432 425/425/425 433/433/433
f 425/425/425 426/426/426 427/427/427
f 442/442/442 441/441/441 483/483/483
f 432/432/432 441/441/441 442/442/442
f 437/437/437 441/441/441 432/432/432
f 436/436/436 437/437/437 432/432/432
f 55/55/55 56/56/56 57/57/57
f 56/56/56 46/46/46 370/370/370
f 56/56/56 55/55/55 43/43/43
f 43/43/43 46/46/46 56/56/56
f 46/46/46 45/45/45 368/368/368
f 368/368/368 370/370/370 46/46/46
f 46/46/46 43/43/43 42/42/42
f 42/42/42 45/45/45 46/46/46
f 44/44/44 43/43/43 55/55/55
f 42/42/42 43/43/43 44/44/44
f 237/237/237 45/45/45 42/42/42
f 42/42/42 135/135/135 237/237/237
f 42/42/42 44/44/44 134/134/134
f 134/134/134 135/135/135 42/42/42
f 368/368/368 45/45/45 237/237/237
f 237/237/237 446/446/446 368/368/368
f 237/237/237 238/238/238 446/446/446
f 237/237/237 135/135/135 238/238/238
f 368/368/368 446/446/446 445/445/445
f 445/445/445 369/369/369 368/368/368
f 368/368/368 369/369/369 370/370/370
f 134/134/134 44/44/44 53/53/53
f 53/53/53 52/52/52 134/134/134
f 53/53/53 44/44/44 55/55/55
