# tylosaurus reconstructed from live game memory
v 0.00000 43.57830 -87.39722
v -7.83748 41.67074 -87.37237
v -4.36261 38.40768 -93.96639
v 0.00000 39.91642 -93.98132
v -6.27797 31.26369 -93.98580
v -1.42587 31.27058 -98.25684
v 0.00000 29.98950 -94.12240
v 0.00000 29.98869 -94.11903
v -11.84766 46.38908 -69.55254
v -11.44066 40.44401 -69.61053
v -12.16236 41.73464 -75.42852
v -15.92272 36.88509 -67.79408
v -13.85905 36.78893 -73.47932
v -14.95828 41.01846 -65.84032
v -6.00681 28.32626 -93.97997
v -1.33946 29.89391 -97.56637
v -1.42587 31.27058 -98.25684
v -6.27797 31.26369 -93.98580
v -9.89823 31.22957 -87.33965
v -12.29321 31.19549 -81.79778
v -10.67122 24.40147 -81.79220
v -9.16278 25.90292 -87.36466
v 0.00000 23.79248 -87.36149
v 0.00000 26.45112 -93.98212
v -12.68211 22.36140 -74.42260
v 0.00000 18.76496 -74.36752
v 0.00000 21.53178 -81.80737
v -1.23731 35.90889 -96.90734
v 0.00000 36.84972 -97.69920
v -1.66946 33.93306 -98.36315
v 0.00000 33.93082 -99.40257
v -9.00492 34.98938 164.97958
v -2.05861 44.41167 164.97958
v -1.90683 42.52979 185.23544
v -7.25486 34.88292 185.23737
v -2.44787 47.70184 135.00745
v -11.27040 36.22013 135.00943
v -13.19818 39.22080 106.06433
v -3.08658 51.80079 105.96901
v -6.31182 22.27205 105.99897
v -2.02525 23.63960 135.01608
v -16.88184 41.29048 -15.29987
v -15.28732 41.32289 -33.08382
v -2.77017 54.85149 -33.09888
v -3.21742 56.35326 -15.31004
v -1.70167 40.81598 201.80373
v -5.84997 34.81036 201.78662
v -15.53560 40.42032 60.87861
v -16.60108 40.88844 44.99638
v -3.17939 56.43333 44.92822
v -3.32378 55.95041 60.89485
v -25.72430 21.18394 26.68088
v -15.02607 12.73413 26.70020
v -15.87074 11.79124 2.25735
v -26.70032 23.23597 2.19946
v -1.78862 25.13041 164.97852
v -11.60482 45.75248 -69.63032
v -14.10120 41.37675 -70.21198
v -12.12600 41.26280 -74.33698
v -13.34466 36.35412 -73.52039
v -15.57051 36.67796 -67.69633
v -14.84921 40.92065 -65.39765
v -25.27938 32.04031 -15.28258
v -37.57477 31.59614 -14.47697
v -38.03200 28.63849 -21.93887
v -23.60678 30.17348 -22.88230
v -26.21745 29.96885 -8.67189
v -37.34677 29.42068 -7.69778
v -27.81771 27.10173 -6.61872
v -26.00820 23.16360 -9.34148
v -37.40405 24.44293 -9.15353
v -37.22328 27.04914 -4.98383
v -27.81771 27.10173 -6.61872
v -37.22328 27.04914 -4.98383
v -49.22063 28.42688 -20.37196
v -50.36263 26.90119 -23.26840
v -38.25306 26.93294 -24.35791
v -46.99073 28.74058 -2.58493
v -46.82090 26.88801 0.89065
v -61.15232 26.87321 0.60358
v -58.81718 28.46322 -2.49885
v -21.60670 29.08740 -33.09078
v -23.60678 30.17348 -22.88230
v -24.35370 26.96983 -25.76259
v -13.99205 41.45564 -46.41679
v -2.15515 53.33414 -46.50791
v -2.77017 54.85149 -33.09888
v -15.28732 41.32289 -33.08382
v -17.59826 41.13230 1.34951
v -26.21745 29.96885 -8.67189
v -25.27938 32.04031 -15.28258
v -27.81771 27.10173 -6.61872
v -14.48043 39.19904 77.93854
v -20.85956 26.36802 67.15205
v -22.19287 29.62831 61.27710
v -28.12263 28.35613 63.86075
v -38.79068 26.60061 70.41338
v -41.93463 25.20196 64.13077
v -30.97321 25.23806 55.99166
v -26.14923 25.33940 68.58421
v -35.99767 24.60793 76.88210
v -47.51091 24.91333 73.50399
v -45.23181 24.77057 78.00626
v -35.26138 23.05474 78.89896
v -35.66404 20.34523 76.22411
v -45.33369 20.35295 77.40796
v -46.32081 23.11946 79.36169
v -19.94354 23.39597 69.96402
v -15.80765 23.01866 77.94993
v -10.60911 18.93336 78.31212
v -25.65305 23.17543 52.08493
v -25.19834 23.16786 44.96922
v -23.66937 25.17223 54.00394
v -24.62288 23.12329 70.38811
v -35.26138 23.05474 78.89896
v -46.32081 23.11946 79.36169
v -49.60328 23.11745 73.57222
v -42.81024 23.12152 62.02158
v -15.95445 31.25381 -74.76824
v -13.82637 15.22716 -33.05561
v -50.29452 24.76816 -20.08051
v -38.04235 24.32772 -21.80088
v -47.33487 25.05385 -1.98317
v -61.08392 25.25008 -12.97646
v -60.59522 25.32497 -2.22249
v -0.00000 9.32384 -33.13284
v -14.76663 12.75353 -15.64709
v -0.00000 6.93821 -15.56471
v -46.96157 20.34683 73.76122
v -40.67802 20.34402 64.17766
v -0.00000 8.14973 26.70245
v -0.00000 6.95246 2.46707
v -3.42474 54.71372 77.90459
v -24.40470 23.18574 -21.97124
v -31.09733 23.11072 53.89714
v -22.19287 29.62831 61.27710
v -23.66937 25.17223 54.00394
v -20.85956 26.36802 67.15205
v -19.94354 23.39597 69.96402
v -25.65305 23.17543 52.08493
v -24.62288 23.12329 70.38811
v -25.39007 20.48890 68.63754
v -12.14942 16.53918 -46.54639
v -19.68872 29.72762 -46.53573
v -21.60670 29.08740 -33.09078
v -13.82637 15.22716 -33.05561
v -9.89823 31.22957 -87.33965
v 0.00000 25.92660 -82.24851
v 0.00000 25.92648 -82.24792
v -12.29321 31.19549 -81.79778
v 0.00000 24.45398 -74.65751
v -15.95445 31.25381 -74.76824
v 0.00000 39.13990 -74.89648
v 0.00000 40.32864 -81.66868
v -12.81490 34.02865 -81.72158
v -16.27265 34.05428 -74.84750
v -13.10851 14.12061 44.93391
v -0.00000 10.01150 44.92868
v -11.83521 16.02975 61.43865
v -20.12372 21.34841 67.59344
v -9.99215 33.99606 -87.32679
v 0.00000 39.91276 -87.30834
v -1.66946 33.93306 -98.36315
v -6.44123 33.96309 -93.96719
v 0.00000 37.61578 -93.98910
v 0.00000 35.70093 -96.98528
v 0.00000 11.95354 -46.57884
v 0.00000 15.22007 -62.92150
v -12.20298 19.61739 -63.07920
v -11.32625 47.22070 -63.15166
v -14.80020 40.99247 -63.05723
v -18.44258 31.78469 -63.26550
v -16.27265 34.05428 -74.84750
v -10.25649 47.20812 -77.01150
v -10.39438 48.81072 -70.24603
v -3.42144 56.95592 1.26459
v -3.31401 57.16933 26.69019
v -17.28915 40.93684 26.68747
v 0.00000 17.01740 105.99619
v -6.92863 35.79877 -91.19147
v -5.49125 31.49878 -93.00410
v -4.78132 35.63678 -94.33775
v -4.52313 35.31055 -94.00736
v -2.84197 31.77526 -95.23110
v -2.12222 35.07227 -96.45872
v -7.75478 36.05289 -88.50658
v -7.50824 31.60734 -90.19367
v -6.37438 35.99519 -91.57926
v -9.83133 35.93039 -86.06205
v -8.44396 31.68199 -87.68501
v -7.96643 35.89541 -89.31190
v -11.00669 35.75831 -83.24583
v -9.83442 31.79687 -85.05474
v -9.67233 35.73721 -86.45631
v -12.70064 36.06278 -79.48782
v -11.09496 31.76380 -81.64721
v -10.90413 35.82118 -83.55697
v -13.72661 36.01010 -76.73394
v -12.82090 31.80594 -78.81199
v -12.15699 35.87402 -80.58778
v -12.33666 29.19232 -78.75196
v -14.34723 33.44803 -77.25076
v -14.23914 29.22748 -75.62299
v -10.90024 29.60504 -81.72213
v -12.17262 33.47836 -80.20592
v -12.62449 29.41983 -78.82720
v -9.83759 29.43403 -84.98109
v -10.94335 33.65515 -83.44892
v -11.22389 29.47596 -81.84225
v -8.89391 29.11784 -88.12136
v -9.63989 33.56058 -86.43000
v -9.66105 29.16416 -84.74522
v -7.58377 29.82952 -90.21009
v -8.47054 33.39363 -88.89455
v -8.95525 29.13865 -86.98434
v -6.11725 29.89986 -93.07810
v -6.68250 33.50207 -91.55145
v -8.02503 29.83432 -90.33730
v -2.97673 29.90058 -95.51527
v -4.49701 33.19810 -94.13035
v -6.32371 30.18009 -93.18845
v -2.60446 30.62171 -95.99294
v -0.69617 30.95050 -97.77894
v -1.12675 33.23278 -96.81481
v -3.08658 51.80079 105.96901
v -13.19818 39.22080 106.06433
v -19.94354 23.39597 69.96402
v -20.12372 21.34841 67.59344
v -29.45899 20.36812 56.77449
v -22.44949 20.81334 55.04004
v -22.44949 20.81334 55.04004
v -0.00000 15.44653 78.40054
v -0.00000 12.53407 61.49496
v -9.14594 44.48355 -81.79514
v 0.00000 46.49617 -81.81837
v 0.00000 48.66330 -77.19183
v -1.34442 51.45723 -63.14779
v -16.33344 25.45422 -63.13689
v -47.82235 30.51864 -11.30075
v -46.82090 26.88801 0.89065
v -24.35370 26.96983 -25.76259
v -24.40470 23.18574 -21.97124
v -59.24823 28.49583 -13.71376
v -61.68387 26.86470 -15.10501
v -65.26160 26.86503 -7.39394
v -62.21660 28.48083 -8.07596
v -2.02525 23.63960 135.01608
v -1.78862 25.13041 164.97852
v 0.00000 20.12303 164.97647
v 0.00000 18.05127 135.03174
v -3.08658 51.80079 105.96901
v 0.00000 59.50917 105.98938
v 0.00000 54.34179 135.02267
v -2.44787 47.70184 135.00745
v 0.00000 17.01740 105.99619
v -2.05861 44.41167 164.97958
v 0.00000 49.91578 164.97662
v 0.00000 47.27655 185.23955
v -1.90683 42.52979 185.23544
v -0.00000 44.79050 201.80074
v -1.70167 40.81598 201.80373
v -3.42474 54.71372 77.90459
v -0.00000 63.30956 78.08268
v 0.00000 59.50917 105.98938
v -3.08658 51.80079 105.96901
v -1.45495 34.70370 217.04504
v -0.00000 34.70499 221.82861
v -0.00000 30.05923 215.84360
v -1.03399 32.00114 213.10452
v -3.31401 57.16933 26.69019
v -0.00000 67.20595 26.69020
v -0.00000 66.73861 44.93384
v -3.17939 56.43333 44.92822
v -3.42144 56.95592 1.26459
v -0.00000 65.97353 1.26460
v -0.00000 66.02959 60.92174
v -3.32378 55.95041 60.89485
v -3.21742 56.35326 -15.31004
v -0.00000 63.80709 -15.31004
v -2.77017 54.85149 -33.09888
v -0.00000 61.00848 -33.09595
v -1.24343 37.08981 213.45651
v -0.00000 39.24444 215.66272
v -61.15232 26.87321 0.60358
v -1.62279 28.40073 201.78210
v -1.75805 26.84631 185.23846
v -1.75805 26.84631 185.23846
v -1.62279 28.40073 201.78210
v -0.00000 24.80644 201.74957
v 0.00000 22.55418 185.22214
v -61.68387 26.86470 -15.10501
v -18.44258 31.78469 -63.26550
v 0.00000 35.55239 -57.73370
v 0.00000 39.13990 -74.89648
v -16.27265 34.05428 -74.84750
v -65.26160 26.86503 -7.39394
v -63.20590 25.28752 -7.62481
v -26.00820 23.16360 -9.34148
v -18.44258 31.78469 -63.26550
v 0.00000 27.82826 -58.36954
v -6.44123 33.96309 -93.96719
v -9.99215 33.99606 -87.32679
v -12.81490 34.02865 -81.72158
v -14.62659 35.53432 -74.78567
v -16.37977 33.45744 -62.01490
v -16.76429 30.16267 -62.10535
v -14.20557 28.37324 -74.77940
v -6.31182 22.27205 105.99897
v -0.97388 50.37230 -70.20193
v -2.77017 54.85149 -33.09888
v -2.15515 53.33414 -46.50791
v 0.00000 58.33350 -46.50789
v -0.00000 61.00848 -33.09595
v -1.34442 51.45723 -63.14779
v 0.00000 54.24151 -62.92492
v -1.03399 32.00114 213.10452
v -1.45495 34.70370 217.04504
v -1.24343 37.08981 213.45651
v -0.97388 50.37230 -70.20193
v 0.00000 48.66529 -77.18711
v 0.00000 52.03191 -69.95686
v 0.00000 17.01740 105.99619
v -0.00000 9.32384 -33.13284
v -12.81225 35.76069 -73.79253
v -14.28199 31.85282 -75.80434
v -13.61809 35.80629 -77.45858
v -1.92646 34.76614 -96.78645
v -1.06448 31.88898 -98.25680
v -0.25926 34.61331 -98.39005
v 0.00000 29.04305 -97.85822
v 0.00000 31.29422 -99.31966
v 0.00000 31.29422 -99.31966
v 0.00000 33.93082 -99.40257
v 0.00000 48.66529 -77.18711
v 0.00000 27.82826 -58.36954
v 0.00000 54.24151 -62.92492
v -1.34442 51.45723 -63.14779
v 4.36261 38.40768 -93.96639
v 7.83748 41.67074 -87.37237
v 6.27797 31.26369 -93.98580
v 1.42587 31.27058 -98.25684
v 11.84766 46.38908 -69.55254
v 12.16236 41.73464 -75.42852
v 11.44066 40.44401 -69.61053
v 15.92272 36.88509 -67.79408
v 13.85905 36.78893 -73.47932
v 14.95828 41.01846 -65.84032
v 6.00681 28.32626 -93.97997
v 6.27797 31.26369 -93.98580
v 1.42587 31.27058 -98.25684
v 1.33946 29.89391 -97.56637
v 9.89823 31.22957 -87.33965
v 9.16278 25.90292 -87.36466
v 10.67122 24.40147 -81.79220
v 12.29321 31.19549 -81.79778
v 12.68211 22.36140 -74.42260
v 1.23731 35.90889 -96.90734
v 1.66946 33.93306 -98.36315
v 9.00492 34.98938 164.97958
v 7.25486 34.88292 185.23737
v 1.90683 42.52979 185.23544
v 2.05861 44.41167 164.97958
v 2.44787 47.70184 135.00745
v 3.08658 51.80079 105.96901
v 13.19818 39.22080 106.06433
v 11.27040 36.22013 135.00943
v 6.31182 22.27205 105.99897
v 2.02525 23.63960 135.01608
v 16.88184 41.29048 -15.29987
v 3.21742 56.35326 -15.31004
v 2.77017 54.85149 -33.09888
v 15.28732 41.32289 -33.08382
v 5.84997 34.81036 201.78662
v 1.70167 40.81598 201.80373
v 15.53560 40.42032 60.87861
v 3.32378 55.95041 60.89485
v 3.17939 56.43333 44.92822
v 16.60108 40.88844 44.99638
v 25.72430 21.18394 26.68088
v 26.70032 23.23597 2.19946
v 15.87074 11.79124 2.25735
v 15.02607 12.73413 26.70020
v 1.78862 25.13041 164.97852
v 11.60482 45.75248 -69.63032
v 12.12600 41.26280 -74.33698
v 14.10120 41.37675 -70.21198
v 13.34466 36.35412 -73.52039
v 15.57051 36.67796 -67.69633
v 14.84921 40.92065 -65.39765
v 25.27938 32.04031 -15.28257
v 23.60678 30.17348 -22.88230
v 38.03201 28.63850 -21.93887
v 37.57478 31.59614 -14.47697
v 26.21745 29.96885 -8.67189
v 37.34677 29.42068 -7.69777
v 27.81771 27.10173 -6.61872
v 37.22328 27.04914 -4.98383
v 37.40405 24.44293 -9.15353
v 26.00820 23.16360 -9.34148
v 27.81771 27.10173 -6.61872
v 37.22328 27.04914 -4.98383
v 49.22063 28.42687 -20.37196
v 38.25306 26.93294 -24.35790
v 50.36263 26.90119 -23.26840
v 46.99073 28.74058 -2.58493
v 58.81718 28.46322 -2.49885
v 61.15233 26.87321 0.60358
v 46.82090 26.88801 0.89065
v 21.60670 29.08740 -33.09078
v 24.35370 26.96983 -25.76258
v 23.60678 30.17348 -22.88230
v 13.99205 41.45564 -46.41679
v 15.28732 41.32289 -33.08382
v 2.77017 54.85149 -33.09888
v 2.15515 53.33414 -46.50791
v 25.27938 32.04031 -15.28257
v 26.21745 29.96885 -8.67189
v 17.59826 41.13230 1.34951
v 27.81771 27.10173 -6.61872
v 14.48043 39.19904 77.93854
v 22.19286 29.62831 61.27710
v 20.85956 26.36802 67.15205
v 28.12263 28.35612 63.86075
v 30.97321 25.23806 55.99166
v 41.93462 25.20196 64.13077
v 38.79068 26.60061 70.41339
v 35.99767 24.60793 76.88210
v 26.14922 25.33939 68.58421
v 47.51090 24.91333 73.50399
v 45.23180 24.77057 78.00626
v 35.26138 23.05474 78.89897
v 46.32080 23.11946 79.36169
v 45.33368 20.35295 77.40796
v 35.66403 20.34523 76.22412
v 19.94354 23.39597 69.96402
v 10.60911 18.93336 78.31212
v 15.80765 23.01866 77.94993
v 25.65305 23.17543 52.08493
v 23.66937 25.17223 54.00394
v 25.19834 23.16786 44.96922
v 24.62288 23.12329 70.38811
v 35.26138 23.05474 78.89897
v 46.32080 23.11946 79.36169
v 42.81023 23.12152 62.02158
v 49.60327 23.11745 73.57222
v 15.95445 31.25381 -74.76824
v 13.82637 15.22716 -33.05561
v 50.29452 24.76816 -20.08051
v 38.04235 24.32772 -21.80088
v 47.33488 25.05385 -1.98317
v 60.59523 25.32497 -2.22249
v 61.08393 25.25008 -12.97646
v 14.76663 12.75353 -15.64709
v 46.96156 20.34683 73.76122
v 40.67802 20.34402 64.17766
v 3.42474 54.71372 77.90459
v 24.40470 23.18574 -21.97124
v 31.09733 23.11072 53.89714
v 22.19286 29.62831 61.27710
v 23.66937 25.17223 54.00394
v 20.85956 26.36802 67.15205
v 19.94354 23.39597 69.96402
v 25.65305 23.17543 52.08493
v 24.62288 23.12329 70.38811
v 25.39007 20.48890 68.63754
v 12.14942 16.53918 -46.54639
v 13.82637 15.22716 -33.05561
v 21.60670 29.08740 -33.09078
v 19.68872 29.72762 -46.53573
v 9.89823 31.22957 -87.33965
v 12.29321 31.19549 -81.79778
v 15.95445 31.25381 -74.76824
v 16.27265 34.05428 -74.84750
v 12.81490 34.02865 -81.72158
v 13.10851 14.12061 44.93391
v 20.12372 21.34841 67.59344
v 11.83521 16.02975 61.43865
v 9.99215 33.99606 -87.32679
v 1.66946 33.93306 -98.36315
v 6.44123 33.96309 -93.96719
v 12.20298 19.61739 -63.07920
v 14.80020 40.99247 -63.05723
v 11.32625 47.22070 -63.15166
v 16.27265 34.05428 -74.84750
v 18.44258 31.78469 -63.26550
v 10.39438 48.81072 -70.24603
v 10.25649 47.20812 -77.01150
v 17.28915 40.93684 26.68747
v 3.31401 57.16933 26.69019
v 3.42144 56.95592 1.26459
v 6.92863 35.79877 -91.19147
v 4.78132 35.63678 -94.33775
v 5.49125 31.49878 -93.00410
v 4.52313 35.31055 -94.00736
v 2.12222 35.07227 -96.45872
v 2.84197 31.77526 -95.23110
v 7.75478 36.05289 -88.50658
v 6.37438 35.99519 -91.57926
v 7.50824 31.60734 -90.19367
v 9.83133 35.93039 -86.06205
v 7.96643 35.89541 -89.31190
v 8.44396 31.68199 -87.68501
v 11.00669 35.75831 -83.24583
v 9.67233 35.73721 -86.45631
v 9.83442 31.79687 -85.05474
v 12.70064 36.06278 -79.48782
v 10.90413 35.82118 -83.55697
v 11.09496 31.76380 -81.64721
v 13.72661 36.01010 -76.73394
v 12.15699 35.87402 -80.58778
v 12.82090 31.80594 -78.81199
v 12.33666 29.19232 -78.75196
v 14.23914 29.22748 -75.62299
v 14.34723 33.44803 -77.25076
v 10.90024 29.60504 -81.72213
v 12.62449 29.41983 -78.82720
v 12.17262 33.47836 -80.20592
v 9.83759 29.43403 -84.98109
v 11.22389 29.47596 -81.84225
v 10.94335 33.65515 -83.44892
v 8.89391 29.11784 -88.12136
v 9.66105 29.16416 -84.74522
v 9.63989 33.56058 -86.43000
v 7.58377 29.82952 -90.21009
v 8.95525 29.13865 -86.98434
v 8.47054 33.39363 -88.89455
v 6.11725 29.89986 -93.07810
v 8.02503 29.83432 -90.33730
v 6.68250 33.50207 -91.55145
v 2.97673 29.90058 -95.51527
v 6.32371 30.18009 -93.18845
v 4.49701 33.19810 -94.13035
v 2.60446 30.62171 -95.99294
v 1.12675 33.23278 -96.81481
v 0.69617 30.95050 -97.77894
v 13.19818 39.22080 106.06433
v 3.08658 51.80079 105.96901
v 19.94354 23.39597 69.96402
v 20.12372 21.34841 67.59344
v 29.45898 20.36812 56.77449
v 22.44948 20.81334 55.04004
v 22.44948 20.81334 55.04004
v 9.14594 44.48355 -81.79514
v 1.34442 51.45723 -63.14779
v 16.33344 25.45422 -63.13689
v 47.82236 30.51864 -11.30075
v 46.82090 26.88801 0.89065
v 24.35370 26.96983 -25.76258
v 24.40470 23.18574 -21.97124
v 59.24823 28.49583 -13.71376
v 61.68388 26.86470 -15.10501
v 62.21661 28.48083 -8.07596
v 65.26160 26.86503 -7.39394
v 2.02525 23.63960 135.01608
v 1.78862 25.13041 164.97852
v 3.08658 51.80079 105.96901
v 2.44787 47.70184 135.00745
v 2.05861 44.41167 164.97958
v 1.90683 42.52979 185.23544
v 1.70167 40.81598 201.80373
v 3.42474 54.71372 77.90459
v 3.08658 51.80079 105.96901
v 1.45495 34.70370 217.04504
v 1.03399 32.00114 213.10452
v 3.31401 57.16933 26.69019
v 3.17939 56.43333 44.92822
v 3.42144 56.95592 1.26459
v 3.32378 55.95041 60.89485
v 3.21742 56.35326 -15.31004
v 2.77017 54.85149 -33.09888
v 1.24343 37.08981 213.45651
v 61.15233 26.87321 0.60358
v 1.75805 26.84631 185.23846
v 1.62279 28.40073 201.78210
v 1.75805 26.84631 185.23846
v 1.62279 28.40073 201.78210
v 61.68388 26.86470 -15.10501
v 18.44258 31.78469 -63.26550
v 16.27265 34.05428 -74.84750
v 65.26160 26.86503 -7.39394
v 63.20590 25.28752 -7.62481
v 26.00820 23.16360 -9.34148
v 18.44258 31.78469 -63.26550
v 6.44123 33.96309 -93.96719
v 9.99215 33.99606 -87.32679
v 12.81490 34.02865 -81.72158
v 14.62659 35.53432 -74.78567
v 14.20557 28.37324 -74.77940
v 16.76429 30.16267 -62.10535
v 16.37977 33.45744 -62.01490
v 6.31182 22.27205 105.99897
v 0.97388 50.37230 -70.20193
v 2.77017 54.85149 -33.09888
v 2.15515 53.33414 -46.50791
v 1.34442 51.45723 -63.14779
v 1.03399 32.00114 213.10452
v 1.45495 34.70370 217.04504
v 1.24343 37.08981 213.45651
v 0.97388 50.37230 -70.20193
v 12.81225 35.76069 -73.79253
v 13.61809 35.80629 -77.45858
v 14.28199 31.85282 -75.80434
v 1.92646 34.76614 -96.78645
v 0.25926 34.61331 -98.39005
v 1.06448 31.88898 -98.25680
v 1.34442 51.45723 -63.14779
vt 0.582786 0.550572
vt 0.603930 0.510167
vt 0.541167 0.501446
vt 0.527156 0.524893
vt 0.915631 0.792712
vt 0.911498 0.771981
vt 0.894107 0.782404
vt 0.894097 0.782414
vt 0.743679 0.514007
vt 0.744809 0.493598
vt 0.717673 0.491766
vt 0.761837 0.471547
vt 0.731562 0.470276
vt 0.769303 0.494096
vt 0.595330 0.402393
vt 0.559032 0.403774
vt 0.553996 0.411188
vt 0.594654 0.417064
vt 0.640099 0.417422
vt 0.685020 0.418497
vt 0.684397 0.387136
vt 0.639672 0.393365
vt 0.621050 0.342801
vt 0.575216 0.373195
vt 0.739165 0.380030
vt 0.722380 0.305039
vt 0.664358 0.323499
vt 0.505738 0.500090
vt 0.496716 0.506806
vt 0.493414 0.489678
vt 0.480097 0.494452
vt 0.464229 0.109433
vt 0.467424 0.054696
vt 0.356565 0.053227
vt 0.352913 0.097901
vt 0.629384 0.054952
vt 0.618835 0.119385
vt 0.787609 0.110730
vt 0.777578 0.044476
vt 0.769515 0.222108
vt 0.615633 0.200590
vt 0.098636 0.829663
vt 0.025494 0.830946
vt 0.027604 0.932328
vt 0.101326 0.933483
vt 0.266194 0.056982
vt 0.265881 0.088828
vt 0.520491 0.815808
vt 0.435215 0.818736
vt 0.442096 0.921931
vt 0.529234 0.913230
vt 0.330318 0.683396
vt 0.331536 0.604889
vt 0.193312 0.607501
vt 0.196688 0.691304
vt 0.453613 0.165528
vt 0.909558 0.069885
vt 0.915789 0.125805
vt 0.976215 0.114706
vt 0.962545 0.175004
vt 0.886808 0.178647
vt 0.857187 0.130242
vt 0.210702 0.168563
vt 0.205761 0.237492
vt 0.161540 0.231324
vt 0.168396 0.145431
vt 0.248292 0.187505
vt 0.245144 0.247499
vt 0.025166 0.211213
vt 0.052396 0.187425
vt 0.061144 0.248739
vt 0.029409 0.255802
vt 0.266167 0.205174
vt 0.265211 0.251863
vt 0.161561 0.344107
vt 0.153656 0.350091
vt 0.151624 0.231299
vt 0.261158 0.346317
vt 0.284013 0.350534
vt 0.266696 0.457615
vt 0.249901 0.434594
vt 0.022185 0.728864
vt 0.056669 0.731778
vt 0.044935 0.714858
vt 0.883031 0.530615
vt 0.874661 0.623564
vt 0.963122 0.639128
vt 0.970495 0.539718
vt 0.192886 0.826675
vt 0.125381 0.736539
vt 0.100271 0.737658
vt 0.146585 0.711464
vt 0.615754 0.808403
vt 0.545567 0.707697
vt 0.514796 0.719448
vt 0.473943 0.429948
vt 0.468968 0.326624
vt 0.437963 0.340196
vt 0.433087 0.444687
vt 0.506914 0.421299
vt 0.505713 0.311277
vt 0.449334 0.260016
vt 0.476495 0.249971
vt 0.317609 0.273730
vt 0.334480 0.290189
vt 0.381963 0.223731
vt 0.378015 0.197519
vt 0.565258 0.701739
vt 0.609126 0.693496
vt 0.619286 0.655043
vt 0.469116 0.687867
vt 0.429448 0.689310
vt 0.480101 0.706426
vt 0.524597 0.414511
vt 0.517239 0.303413
vt 0.482970 0.233122
vt 0.433066 0.244325
vt 0.425330 0.344215
vt 0.736862 0.427458
vt 0.023515 0.630137
vt 0.140272 0.353028
vt 0.137974 0.233083
vt 0.035175 0.353179
vt 0.115407 0.445200
vt 0.051276 0.454859
vt 0.012565 0.539619
vt 0.093534 0.612342
vt 0.086615 0.525185
vt 0.411754 0.247345
vt 0.411695 0.339819
vt 0.335670 0.514942
vt 0.191038 0.513361
vt 0.624325 0.896626
vt 0.066799 0.696398
vt 0.415099 0.450451
vt 0.480596 0.480367
vt 0.438759 0.499880
vt 0.517825 0.464443
vt 0.535341 0.455739
vt 0.413174 0.494787
vt 0.302738 0.392411
vt 0.319577 0.397097
vt 0.891644 0.349566
vt 0.889964 0.438367
vt 0.975067 0.436992
vt 0.974131 0.341471
vt 0.915262 0.826903
vt 0.866579 0.830634
vt 0.866577 0.830637
vt 0.913018 0.854553
vt 0.848110 0.871283
vt 0.908232 0.887922
vt 0.979463 0.944843
vt 0.987843 0.888951
vt 0.920157 0.901586
vt 0.922050 0.951874
vt 0.435862 0.603312
vt 0.444840 0.525673
vt 0.525555 0.620426
vt 0.544808 0.684753
vt 0.928013 0.860517
vt 0.982512 0.850611
vt 0.955280 0.775530
vt 0.938102 0.811503
vt 0.972918 0.804801
vt 0.966944 0.783535
vt 0.885373 0.271885
vt 0.788559 0.285305
vt 0.793584 0.362733
vt 0.794007 0.548527
vt 0.795783 0.498092
vt 0.791400 0.442018
vt 0.713508 0.455913
vt 0.697723 0.528467
vt 0.741114 0.540481
vt 0.196321 0.933428
vt 0.339630 0.931194
vt 0.333616 0.822729
vt 0.759005 0.263606
vt 0.557605 0.334770
vt 0.678034 0.279962
vt 0.553363 0.243035
vt 0.557605 0.334770
vt 0.678034 0.279962
vt 0.553363 0.243035
vt 0.557605 0.334770
vt 0.678034 0.279962
vt 0.553363 0.243035
vt 0.557605 0.334770
vt 0.678034 0.279962
vt 0.553363 0.243035
vt 0.557605 0.334770
vt 0.678034 0.279962
vt 0.553363 0.243035
vt 0.557605 0.334770
vt 0.678034 0.279962
vt 0.553363 0.243035
vt 0.557605 0.334770
vt 0.678034 0.279962
vt 0.553363 0.243035
vt 0.557605 0.334770
vt 0.678034 0.279962
vt 0.553363 0.243035
vt 0.557605 0.334770
vt 0.678034 0.279962
vt 0.553363 0.243035
vt 0.557605 0.334770
vt 0.678034 0.279962
vt 0.553363 0.243035
vt 0.557605 0.334770
vt 0.678034 0.279962
vt 0.553363 0.243035
vt 0.557605 0.334770
vt 0.678034 0.279962
vt 0.553363 0.243035
vt 0.557605 0.334770
vt 0.678034 0.279962
vt 0.553363 0.243035
vt 0.557605 0.334770
vt 0.678034 0.279962
vt 0.553363 0.243035
vt 0.553363 0.243035
vt 0.557598 0.334985
vt 0.678034 0.279962
vt 0.760360 0.876387
vt 0.766333 0.787451
vt 0.291783 0.432732
vt 0.308304 0.449475
vt 0.396754 0.445865
vt 0.373562 0.494339
vt 0.478132 0.674610
vt 0.638493 0.593612
vt 0.542511 0.552729
vt 0.654571 0.517907
vt 0.632185 0.569505
vt 0.674740 0.584901
vt 0.782096 0.606973
vt 0.796221 0.402740
vt 0.212171 0.341888
vt 0.014371 0.354891
vt 0.146726 0.163321
vt 0.130469 0.155749
vt 0.188377 0.426203
vt 0.176642 0.445095
vt 0.218888 0.479161
vt 0.217395 0.452614
vt 0.615633 0.200590
vt 0.453613 0.165528
vt 0.447892 0.190350
vt 0.608728 0.227431
vt 0.777578 0.044476
vt 0.776942 0.002031
vt 0.631548 0.010943
vt 0.629384 0.054952
vt 0.759005 0.263606
vt 0.467424 0.054696
vt 0.468460 0.016449
vt 0.357864 0.018585
vt 0.356565 0.053227
vt 0.268599 0.021690
vt 0.266194 0.056982
vt 0.624325 0.896626
vt 0.630058 0.947436
vt 0.774567 0.920844
vt 0.760360 0.876387
vt 0.183480 0.076762
vt 0.155632 0.073530
vt 0.182003 0.099822
vt 0.199865 0.094830
vt 0.339630 0.931194
vt 0.342697 0.991856
vt 0.447061 0.982814
vt 0.442096 0.921931
vt 0.196321 0.933428
vt 0.197674 0.988156
vt 0.534575 0.973015
vt 0.529234 0.913230
vt 0.101326 0.933483
vt 0.103964 0.979716
vt 0.027604 0.932328
vt 0.030379 0.972267
vt 0.202361 0.064831
vt 0.190966 0.038349
vt 0.033124 0.468329
vt 0.258395 0.121732
vt 0.346050 0.141300
vt 0.346050 0.141300
vt 0.258395 0.121732
vt 0.254020 0.140203
vt 0.341844 0.162621
vt 0.136103 0.458239
vt 0.902897 0.927630
vt 0.835610 0.939892
vt 0.858576 0.982498
vt 0.917401 0.980104
vt 0.086635 0.492777
vt 0.085722 0.468912
vt 0.134696 0.692134
vt 0.902897 0.927630
vt 0.835165 0.915714
vt 0.541525 0.476881
vt 0.603699 0.468874
vt 0.655813 0.462784
vt 0.851905 0.752044
vt 0.978667 0.744335
vt 0.978714 0.703513
vt 0.849849 0.667842
vt 0.771029 0.686335
vt 0.728004 0.593871
vt 0.963122 0.639128
vt 0.874661 0.623564
vt 0.870513 0.657953
vt 0.959794 0.683379
vt 0.782096 0.606973
vt 0.778836 0.626874
vt 0.199865 0.094830
vt 0.183480 0.076762
vt 0.202361 0.064831
vt 0.728004 0.593871
vt 0.674787 0.584914
vt 0.725658 0.606063
vt 0.778652 0.647245
vt 0.962742 0.253314
vt 0.557605 0.334770
vt 0.678034 0.279962
vt 0.553363 0.243035
vt 0.557605 0.334770
vt 0.678034 0.279962
vt 0.553363 0.243035
vt 0.552470 0.397309
vt 0.543154 0.409560
vt 0.904834 0.759928
vt 0.961726 0.766095
vt 0.674787 0.584914
vt 0.835165 0.915714
vt 0.778836 0.626874
vt 0.782096 0.606973
vt 0.541167 0.501446
vt 0.603930 0.510167
vt 0.915631 0.792712
vt 0.911498 0.771981
vt 0.743679 0.514007
vt 0.717673 0.491766
vt 0.744809 0.493598
vt 0.761837 0.471547
vt 0.731562 0.470276
vt 0.769303 0.494096
vt 0.595330 0.402393
vt 0.594654 0.417064
vt 0.553996 0.411188
vt 0.559032 0.403774
vt 0.640099 0.417422
vt 0.639672 0.393365
vt 0.684397 0.387136
vt 0.685020 0.418497
vt 0.739165 0.380030
vt 0.505738 0.500090
vt 0.493414 0.489678
vt 0.464229 0.109433
vt 0.352913 0.097901
vt 0.356565 0.053227
vt 0.467424 0.054696
vt 0.629384 0.054952
vt 0.777578 0.044476
vt 0.787609 0.110730
vt 0.618835 0.119385
vt 0.769515 0.222108
vt 0.615633 0.200590
vt 0.098636 0.829663
vt 0.101326 0.933483
vt 0.027604 0.932328
vt 0.025494 0.830946
vt 0.265881 0.088828
vt 0.266194 0.056982
vt 0.520491 0.815808
vt 0.529234 0.913230
vt 0.442096 0.921931
vt 0.435215 0.818736
vt 0.330318 0.683396
vt 0.196688 0.691304
vt 0.193312 0.607501
vt 0.331536 0.604889
vt 0.453613 0.165528
vt 0.909558 0.069885
vt 0.976215 0.114706
vt 0.915789 0.125805
vt 0.962545 0.175004
vt 0.886808 0.178647
vt 0.857187 0.130242
vt 0.210702 0.168563
vt 0.168396 0.145431
vt 0.161540 0.231324
vt 0.205761 0.237492
vt 0.248292 0.187505
vt 0.245144 0.247499
vt 0.025166 0.211213
vt 0.029409 0.255802
vt 0.061144 0.248739
vt 0.052396 0.187425
vt 0.266167 0.205174
vt 0.265211 0.251863
vt 0.161561 0.344107
vt 0.151624 0.231299
vt 0.153656 0.350091
vt 0.261158 0.346317
vt 0.249901 0.434594
vt 0.266696 0.457615
vt 0.284013 0.350534
vt 0.022185 0.728864
vt 0.044935 0.714858
vt 0.056669 0.731778
vt 0.883031 0.530615
vt 0.970495 0.539718
vt 0.963122 0.639128
vt 0.874661 0.623564
vt 0.100271 0.737658
vt 0.125381 0.736539
vt 0.192886 0.826675
vt 0.146585 0.711464
vt 0.615754 0.808403
vt 0.514796 0.719448
vt 0.545567 0.707697
vt 0.473943 0.429948
vt 0.433087 0.444687
vt 0.437963 0.340196
vt 0.468968 0.326624
vt 0.505713 0.311277
vt 0.506914 0.421299
vt 0.449334 0.260016
vt 0.476495 0.249971
vt 0.317609 0.273730
vt 0.378015 0.197519
vt 0.381963 0.223731
vt 0.334480 0.290189
vt 0.565258 0.701739
vt 0.619286 0.655043
vt 0.609126 0.693496
vt 0.469116 0.687867
vt 0.480101 0.706426
vt 0.429448 0.689310
vt 0.524597 0.414511
vt 0.517239 0.303413
vt 0.482970 0.233122
vt 0.425330 0.344215
vt 0.433066 0.244325
vt 0.736862 0.427458
vt 0.023515 0.630137
vt 0.140272 0.353028
vt 0.137974 0.233083
vt 0.035175 0.353179
vt 0.051276 0.454859
vt 0.115407 0.445200
vt 0.093534 0.612342
vt 0.411754 0.247345
vt 0.411695 0.339819
vt 0.624325 0.896626
vt 0.066799 0.696398
vt 0.415099 0.450451
vt 0.480596 0.480367
vt 0.438759 0.499880
vt 0.517825 0.464443
vt 0.535341 0.455739
vt 0.413174 0.494787
vt 0.302738 0.392411
vt 0.319577 0.397097
vt 0.891644 0.349566
vt 0.974131 0.341471
vt 0.975067 0.436992
vt 0.889964 0.438367
vt 0.915262 0.826903
vt 0.913018 0.854553
vt 0.908232 0.887922
vt 0.922050 0.951874
vt 0.920157 0.901586
vt 0.435862 0.603312
vt 0.544808 0.684753
vt 0.525555 0.620426
vt 0.928013 0.860517
vt 0.955280 0.775530
vt 0.938102 0.811503
vt 0.793584 0.362733
vt 0.795783 0.498092
vt 0.794007 0.548527
vt 0.713508 0.455913
vt 0.791400 0.442018
vt 0.741114 0.540481
vt 0.697723 0.528467
vt 0.333616 0.822729
vt 0.339630 0.931194
vt 0.196321 0.933428
vt 0.557605 0.334770
vt 0.553363 0.243035
vt 0.678034 0.279962
vt 0.557605 0.334770
vt 0.553363 0.243035
vt 0.678034 0.279962
vt 0.557605 0.334770
vt 0.553363 0.243035
vt 0.678034 0.279962
vt 0.557605 0.334770
vt 0.553363 0.243035
vt 0.678034 0.279962
vt 0.557605 0.334770
vt 0.553363 0.243035
vt 0.678034 0.279962
vt 0.557605 0.334770
vt 0.553363 0.243035
vt 0.678034 0.279962
vt 0.557605 0.334770
vt 0.553363 0.243035
vt 0.678034 0.279962
vt 0.557605 0.334770
vt 0.553363 0.243035
vt 0.678034 0.279962
vt 0.557605 0.334770
vt 0.553363 0.243035
vt 0.678034 0.279962
vt 0.557605 0.334770
vt 0.553363 0.243035
vt 0.678034 0.279962
vt 0.557605 0.334770
vt 0.553363 0.243035
vt 0.678034 0.279962
vt 0.557605 0.334770
vt 0.553363 0.243035
vt 0.678034 0.279962
vt 0.557605 0.334770
vt 0.553363 0.243035
vt 0.678034 0.279962
vt 0.557605 0.334770
vt 0.553363 0.243035
vt 0.678034 0.279962
vt 0.553363 0.243035
vt 0.678034 0.279962
vt 0.557598 0.334985
vt 0.766333 0.787451
vt 0.760360 0.876387
vt 0.291783 0.432732
vt 0.308304 0.449475
vt 0.396754 0.445865
vt 0.373562 0.494339
vt 0.478132 0.674610
vt 0.654571 0.517907
vt 0.782096 0.606973
vt 0.796221 0.402740
vt 0.212171 0.341888
vt 0.014371 0.354891
vt 0.146726 0.163321
vt 0.130469 0.155749
vt 0.188377 0.426203
vt 0.176642 0.445095
vt 0.217395 0.452614
vt 0.218888 0.479161
vt 0.615633 0.200590
vt 0.453613 0.165528
vt 0.777578 0.044476
vt 0.629384 0.054952
vt 0.467424 0.054696
vt 0.356565 0.053227
vt 0.266194 0.056982
vt 0.624325 0.896626
vt 0.760360 0.876387
vt 0.183480 0.076762
vt 0.199865 0.094830
vt 0.339630 0.931194
vt 0.442096 0.921931
vt 0.196321 0.933428
vt 0.529234 0.913230
vt 0.101326 0.933483
vt 0.027604 0.932328
vt 0.202361 0.064831
vt 0.033124 0.468329
vt 0.346050 0.141300
vt 0.258395 0.121732
vt 0.346050 0.141300
vt 0.258395 0.121732
vt 0.136103 0.458239
vt 0.902897 0.927630
vt 0.917401 0.980104
vt 0.086635 0.492777
vt 0.085722 0.468912
vt 0.134696 0.692134
vt 0.902897 0.927630
vt 0.541525 0.476881
vt 0.603699 0.468874
vt 0.655813 0.462784
vt 0.851905 0.752044
vt 0.849849 0.667842
vt 0.978714 0.703513
vt 0.978667 0.744335
vt 0.771029 0.686335
vt 0.728004 0.593871
vt 0.963122 0.639128
vt 0.874661 0.623564
vt 0.782096 0.606973
vt 0.199865 0.094830
vt 0.183480 0.076762
vt 0.202361 0.064831
vt 0.728004 0.593871
vt 0.557605 0.334770
vt 0.553363 0.243035
vt 0.678034 0.279962
vt 0.557605 0.334770
vt 0.553363 0.243035
vt 0.678034 0.279962
vt 0.782096 0.606973
vn 0.00000 0.86985 -0.49332
vn -0.57704 0.62873 -0.52127
vn -0.42727 0.61622 -0.66160
vn 0.00000 0.76752 -0.64103
vn 0.19928 0.96142 0.18961
vn 0.18086 0.95535 0.23365
vn -0.00000 0.97185 0.23559
vn -0.00000 0.97468 0.22361
vn -0.94167 0.29875 -0.15495
vn -0.89822 0.32851 -0.29203
vn -0.95077 0.30239 -0.06784
vn -0.87498 0.40030 -0.27235
vn -0.86155 0.50751 0.01260
vn -0.89713 0.35250 -0.26629
vn -0.58064 -0.51854 -0.62768
vn -0.43112 -0.58731 -0.68498
vn -0.53059 -0.34892 -0.77249
vn -0.77909 -0.07315 -0.62262
vn -0.90326 -0.13674 -0.40672
vn -0.88273 -0.21109 -0.41980
vn -0.70489 -0.58856 -0.39588
vn -0.57999 -0.68968 -0.43353
vn -0.00000 -0.91934 -0.39347
vn 0.00000 -0.84899 -0.52841
vn -0.68564 -0.68063 -0.25814
vn 0.00000 -0.95362 -0.30100
vn -0.00000 -0.93675 -0.35000
vn -0.56474 0.51855 -0.64201
vn 0.00000 0.66272 -0.74887
vn -0.58472 0.51529 -0.62657
vn 0.00000 0.50402 -0.86369
vn -0.99716 0.00426 0.07514
vn -0.80304 0.59201 0.06821
vn -0.81278 0.57859 0.06798
vn -0.99652 0.00686 0.08302
vn -0.78896 0.60704 0.09510
vn -0.99179 -0.08251 0.09769
vn -0.96744 0.22530 0.11530
vn -0.78924 0.61007 0.07004
vn -0.76877 -0.61782 0.16523
vn -0.76605 -0.63681 0.08743
vn -0.75620 0.65122 -0.06378
vn -0.83130 0.54637 -0.10208
vn -0.72724 0.68182 -0.07893
vn -0.73957 0.67088 -0.05434
vn -0.81615 0.56584 0.11714
vn -0.97833 0.00113 0.20704
vn -0.82245 0.56787 0.03331
vn -0.83361 0.55013 0.04963
vn -0.76620 0.64149 0.03782
vn -0.78583 0.61790 0.02592
vn -0.93197 -0.35988 0.04383
vn -0.45919 -0.88388 0.08890
vn -0.50556 -0.86277 -0.00577
vn -0.99349 -0.08493 0.07599
vn -0.80617 -0.59008 0.04346
vn -0.82937 0.50495 -0.23910
vn -0.90885 0.30376 -0.28587
vn -0.84851 0.32789 -0.41536
vn -0.91005 0.12354 -0.39565
vn -0.95478 0.16678 -0.24614
vn -0.92206 0.37166 -0.10805
vn -0.36336 0.92397 -0.11936
vn -0.04285 0.99669 0.06904
vn -0.10949 0.91320 -0.39252
vn -0.57900 0.72057 -0.38150
vn -0.49834 0.79512 0.34560
vn 0.10509 0.82005 0.56255
vn -0.40871 0.04061 0.91176
vn -0.50024 -0.85704 0.12346
vn 0.07084 -0.92989 0.36096
vn 0.35103 0.22610 0.90866
vn -0.40871 0.04061 0.91176
vn 0.35103 0.22610 0.90866
vn -0.11333 0.92268 -0.36852
vn -0.37123 0.37278 -0.85043
vn -0.13071 0.21867 -0.96701
vn 0.07901 0.91604 0.39323
vn 0.31655 -0.27751 0.90708
vn -0.38563 0.07984 0.91919
vn -0.19235 0.95188 0.23860
vn -0.97099 -0.02112 -0.23817
vn -0.57900 0.72057 -0.38150
vn -0.61370 -0.27581 -0.73980
vn -0.83320 0.55285 -0.01144
vn -0.61213 0.78996 -0.03552
vn -0.72724 0.68182 -0.07893
vn -0.83130 0.54637 -0.10208
vn -0.80491 0.59231 0.03586
vn -0.49834 0.79512 0.34560
vn -0.36336 0.92397 -0.11936
vn -0.40871 0.04061 0.91176
vn -0.90376 0.39597 0.16257
vn -0.64764 0.48455 0.58803
vn -0.53879 0.83725 0.09334
vn -0.07060 0.99180 0.10649
vn -0.10848 0.98961 0.09440
vn -0.40598 0.86064 -0.30737
vn -0.27791 0.80978 -0.51674
vn 0.13712 0.79367 0.59270
vn 0.21044 0.87118 0.44358
vn -0.42836 0.90360 -0.00277
vn -0.21966 0.86939 0.44262
vn 0.26460 0.07069 0.96176
vn 0.23514 -0.87168 0.42997
vn -0.25276 -0.86418 0.43510
vn -0.47411 0.07393 0.87736
vn -0.37396 -0.23176 0.89802
vn -0.90394 -0.28802 0.31613
vn -0.52884 -0.81648 0.23170
vn -0.60125 -0.07056 -0.79594
vn -0.97844 -0.20386 0.03307
vn -0.67753 0.70115 -0.22215
vn 0.43932 0.08535 0.89427
vn 0.26460 0.07069 0.96176
vn -0.47411 0.07393 0.87736
vn -0.97751 0.20118 0.06323
vn -0.73372 -0.01897 -0.67918
vn -0.90595 -0.30324 -0.29547
vn -0.64141 -0.72721 -0.24445
vn -0.15401 -0.92880 -0.33706
vn -0.08867 -0.92068 -0.38012
vn 0.02783 -0.96302 0.26800
vn -0.30478 -0.93500 -0.18132
vn -0.25433 -0.93991 0.22778
vn 0.00000 -0.98661 -0.16311
vn -0.53877 -0.83779 -0.08851
vn 0.00000 -0.99775 -0.06709
vn -0.53247 -0.83739 -0.12352
vn -0.19792 -0.95428 -0.22402
vn -0.00000 -0.99777 0.06670
vn 0.00000 -0.99997 -0.00749
vn -0.80326 0.59182 0.06725
vn -0.52048 -0.79538 -0.31060
vn -0.45289 -0.26266 -0.85200
vn -0.53879 0.83725 0.09334
vn -0.67753 0.70115 -0.22215
vn -0.64764 0.48455 0.58803
vn -0.37396 -0.23176 0.89802
vn -0.60125 -0.07056 -0.79594
vn 0.43932 0.08535 0.89427
vn 0.18799 -0.90543 0.38059
vn -0.66971 -0.72885 -0.14234
vn -0.99559 0.00498 -0.09363
vn -0.97099 -0.02112 -0.23817
vn -0.64141 -0.72721 -0.24445
vn 0.30734 0.93033 0.20007
vn 0.00000 0.97056 0.24086
vn 0.00000 0.98035 0.19726
vn 0.39074 0.90220 0.18263
vn 0.00000 0.99831 0.05805
vn 0.38866 0.91384 0.11762
vn 0.00000 -1.00000 -0.00193
vn -0.00000 -0.99879 0.04922
vn 0.39336 -0.91642 0.07380
vn 0.29525 -0.94325 0.15203
vn -0.42965 -0.89699 0.10399
vn 0.00000 -0.99275 0.12019
vn -0.37575 -0.91376 0.15443
vn -0.21166 -0.94033 0.26642
vn 0.47839 -0.85853 0.18459
vn 0.00000 -0.97141 0.23743
vn 0.39645 -0.76442 0.50842
vn 0.46876 -0.81309 0.34518
vn -0.00000 -0.88340 0.46862
vn 0.00000 -0.82488 0.56531
vn 0.00000 -0.98423 -0.17687
vn -0.00000 -0.97435 -0.22504
vn -0.53464 -0.82470 -0.18444
vn -0.73756 0.67424 0.03752
vn -0.92273 0.38515 0.01517
vn -0.97130 0.21011 -0.11150
vn -0.83822 0.54513 0.01465
vn -0.54350 0.77000 -0.33421
vn -0.53262 0.84256 -0.08000
vn -0.74329 0.66865 -0.02056
vn -0.75423 0.65635 0.01849
vn -0.86503 0.50111 0.02474
vn 0.00000 -0.98880 0.14926
vn -0.82627 -0.03934 -0.56190
vn -0.82627 -0.03934 -0.56190
vn -0.82627 -0.03934 -0.56190
vn -0.71565 -0.10110 -0.69110
vn -0.71565 -0.10110 -0.69110
vn -0.71565 -0.10110 -0.69110
vn -0.90640 0.10501 -0.40917
vn -0.90640 0.10501 -0.40917
vn -0.90640 0.10501 -0.40917
vn -0.86400 -0.09313 -0.49480
vn -0.86400 -0.09313 -0.49480
vn -0.86400 -0.09313 -0.49480
vn -0.91921 -0.09785 -0.38141
vn -0.91921 -0.09785 -0.38141
vn -0.91921 -0.09785 -0.38141
vn -0.90862 -0.14211 -0.39271
vn -0.90862 -0.14211 -0.39271
vn -0.90862 -0.14211 -0.39271
vn -0.92621 -0.01331 -0.37676
vn -0.92621 -0.01331 -0.37676
vn -0.92621 -0.01331 -0.37676
vn -0.83530 -0.21633 -0.50545
vn -0.83530 -0.21633 -0.50545
vn -0.83530 -0.21633 -0.50545
vn -0.85419 -0.07946 -0.51385
vn -0.85419 -0.07946 -0.51385
vn -0.85419 -0.07946 -0.51385
vn -0.91124 -0.09308 -0.40122
vn -0.91124 -0.09308 -0.40122
vn -0.91124 -0.09308 -0.40122
vn -0.97229 -0.07957 -0.21984
vn -0.97229 -0.07957 -0.21984
vn -0.97229 -0.07957 -0.21984
vn -0.91141 -0.07760 -0.40412
vn -0.91141 -0.07760 -0.40412
vn -0.91141 -0.07760 -0.40412
vn -0.81686 0.11166 -0.56592
vn -0.81686 0.11166 -0.56592
vn -0.81686 0.11166 -0.56592
vn -0.56395 0.08498 -0.82142
vn -0.56395 0.08498 -0.82142
vn -0.56395 0.08498 -0.82142
vn -0.68889 0.16792 -0.70515
vn -0.68889 0.16792 -0.70515
vn -0.68889 0.16792 -0.70515
vn -0.78924 0.61007 0.07004
vn -0.96744 0.22530 0.11530
vn -0.37396 -0.23176 0.89802
vn -0.21166 -0.94033 0.26642
vn -0.07166 -0.94950 -0.30546
vn -0.37951 -0.92330 -0.05901
vn -0.37951 -0.92330 -0.05901
vn 0.00000 -0.99014 0.14005
vn 0.00000 -0.98830 0.15252
vn -0.66247 0.59548 -0.45446
vn 0.00000 0.88889 -0.45812
vn 0.00000 0.89586 -0.44433
vn -0.31658 0.94759 -0.04304
vn -0.88842 -0.44109 -0.12703
vn -0.10578 0.99293 -0.05384
vn 0.31655 -0.27751 0.90708
vn -0.61370 -0.27581 -0.73980
vn -0.52048 -0.79538 -0.31060
vn -0.30566 0.91424 -0.26596
vn -0.73035 -0.17581 -0.66005
vn -0.99224 0.12436 -0.00073
vn -0.30693 0.95173 -0.00258
vn -0.94051 -0.33918 0.01995
vn -0.93598 -0.35054 0.03268
vn -0.00000 -0.99624 0.08664
vn 0.00000 -0.99863 0.05232
vn -0.93001 0.36233 0.06166
vn 0.00000 0.98903 0.14773
vn -0.00000 0.98493 0.17293
vn -0.93623 0.34674 0.05696
vn 0.00000 -0.99937 0.03558
vn -0.93280 0.35745 0.04590
vn 0.00000 0.99023 0.13943
vn 0.00000 0.99157 0.12954
vn -0.92396 0.37924 0.04982
vn -0.00000 0.96462 0.26363
vn -0.91406 0.39143 0.10615
vn -0.92820 0.36989 0.04043
vn -0.00000 0.99342 0.11449
vn 0.00000 0.98903 0.14773
vn -0.93001 0.36233 0.06166
vn -0.97414 0.01064 0.22567
vn 0.00000 0.03010 0.99955
vn -0.00000 -0.88880 0.45830
vn -0.92486 -0.35342 0.14046
vn -0.94767 0.31924 0.00319
vn 0.00000 0.99993 -0.01143
vn 0.00000 0.99902 0.04431
vn -0.95359 0.30092 0.01097
vn -0.92930 0.36858 -0.02369
vn 0.00000 0.99825 -0.05910
vn -0.00000 0.99763 0.06883
vn -0.94296 0.33204 0.02395
vn -0.91501 0.40052 -0.04848
vn -0.00000 0.99321 -0.11635
vn -0.91149 0.40438 -0.07522
vn 0.00000 0.98654 -0.16355
vn -0.91437 0.37080 0.16257
vn -0.00000 0.87684 0.48077
vn -0.38563 0.07984 0.91919
vn -0.82621 -0.55169 0.11411
vn -0.81788 -0.57229 0.05969
vn -0.91988 -0.38974 0.04374
vn -0.90538 -0.40978 0.11122
vn -0.00000 -0.96793 0.25123
vn -0.00000 -0.99349 0.11396
vn -0.73035 -0.17581 -0.66005
vn 0.34577 -0.76530 -0.54291
vn -0.00000 -0.60010 -0.79992
vn 0.00000 -0.98532 -0.17072
vn 0.29540 -0.94647 -0.13012
vn -0.99224 0.12436 -0.00073
vn -0.41993 -0.90738 0.01772
vn -0.50024 -0.85704 0.12346
vn 0.32645 0.94202 -0.07769
vn 0.00000 0.97921 -0.20286
vn -0.69347 0.36183 -0.62304
vn -0.87316 0.26252 -0.41071
vn -0.86033 0.34009 -0.37969
vn -0.98766 0.03038 -0.15363
vn -0.98616 0.11828 -0.11615
vn -0.98766 0.03038 -0.15363
vn -0.98014 -0.05779 -0.18972
vn -0.76877 -0.61782 0.16523
vn -0.15318 0.96468 -0.21432
vn -0.91149 0.40438 -0.07522
vn -0.90772 0.40922 -0.09264
vn -0.00000 0.97614 -0.21715
vn 0.00000 0.98654 -0.16355
vn -0.87721 0.46525 -0.11847
vn 0.00000 0.96809 -0.25058
vn -0.82998 -0.50965 0.22667
vn -0.96083 -0.01642 0.27664
vn -0.83224 0.50447 0.22998
vn -0.83594 0.51752 -0.18272
vn 0.00000 0.90654 -0.42211
vn 0.00000 0.94635 -0.32315
vn 0.00000 -0.98880 0.14926
vn 0.00000 -0.98661 -0.16311
vn -0.94575 0.24709 0.21096
vn -0.94575 0.24709 0.21096
vn -0.94575 0.24709 0.21096
vn -0.67589 0.16463 -0.71838
vn -0.67589 0.16463 -0.71838
vn -0.67589 0.16463 -0.71838
vn 0.00000 -0.62671 -0.77925
vn 0.00000 -0.54451 -0.83875
vn 0.00000 0.96990 0.24348
vn 0.00000 -0.80681 0.59081
vn 0.00000 0.94639 -0.32302
vn 0.00000 0.08204 -0.99663
vn 0.00000 0.96809 -0.25058
vn -0.87721 0.46525 -0.11847
vn 0.42727 0.61622 -0.66160
vn 0.57704 0.62873 -0.52127
vn -0.19928 0.96143 0.18960
vn -0.18086 0.95535 0.23365
vn 0.94167 0.29875 -0.15495
vn 0.95077 0.30239 -0.06784
vn 0.89822 0.32851 -0.29203
vn 0.87498 0.40030 -0.27235
vn 0.86155 0.50751 0.01260
vn 0.89713 0.35250 -0.26629
vn 0.58064 -0.51854 -0.62768
vn 0.77909 -0.07315 -0.62262
vn 0.53059 -0.34892 -0.77249
vn 0.43112 -0.58731 -0.68498
vn 0.90326 -0.13674 -0.40672
vn 0.57999 -0.68968 -0.43353
vn 0.70489 -0.58856 -0.39588
vn 0.88273 -0.21109 -0.41980
vn 0.68564 -0.68063 -0.25814
vn 0.56474 0.51855 -0.64201
vn 0.58472 0.51529 -0.62657
vn 0.99716 0.00426 0.07514
vn 0.99652 0.00686 0.08302
vn 0.81278 0.57859 0.06798
vn 0.80304 0.59201 0.06821
vn 0.78896 0.60704 0.09510
vn 0.78924 0.61007 0.07004
vn 0.96744 0.22530 0.11530
vn 0.99179 -0.08251 0.09769
vn 0.76877 -0.61782 0.16523
vn 0.76605 -0.63681 0.08743
vn 0.75620 0.65122 -0.06378
vn 0.73957 0.67088 -0.05434
vn 0.72724 0.68182 -0.07893
vn 0.83130 0.54637 -0.10208
vn 0.97833 0.00113 0.20704
vn 0.81615 0.56584 0.11714
vn 0.82245 0.56787 0.03331
vn 0.78583 0.61790 0.02592
vn 0.76620 0.64149 0.03782
vn 0.83361 0.55013 0.04963
vn 0.93197 -0.35988 0.04383
vn 0.99349 -0.08493 0.07599
vn 0.50556 -0.86277 -0.00577
vn 0.45919 -0.88388 0.08890
vn 0.80617 -0.59008 0.04346
vn 0.82937 0.50495 -0.23910
vn 0.84851 0.32789 -0.41536
vn 0.90885 0.30376 -0.28587
vn 0.91005 0.12354 -0.39565
vn 0.95478 0.16678 -0.24614
vn 0.92206 0.37166 -0.10805
vn 0.36336 0.92397 -0.11936
vn 0.57900 0.72057 -0.38150
vn 0.10949 0.91320 -0.39252
vn 0.04285 0.99669 0.06904
vn 0.49834 0.79512 0.34560
vn -0.10509 0.82005 0.56255
vn 0.40871 0.04061 0.91176
vn -0.35103 0.22610 0.90866
vn -0.07084 -0.92989 0.36096
vn 0.50024 -0.85704 0.12346
vn 0.40871 0.04061 0.91176
vn -0.35103 0.22610 0.90866
vn 0.11333 0.92268 -0.36853
vn 0.13071 0.21867 -0.96701
vn 0.37123 0.37278 -0.85043
vn -0.07901 0.91604 0.39323
vn 0.19235 0.95188 0.23860
vn 0.38563 0.07984 0.91919
vn -0.31655 -0.27751 0.90708
vn 0.97099 -0.02112 -0.23817
vn 0.61370 -0.27581 -0.73980
vn 0.57900 0.72057 -0.38150
vn 0.83320 0.55285 -0.01144
vn 0.83130 0.54637 -0.10208
vn 0.72724 0.68182 -0.07893
vn 0.61213 0.78996 -0.03552
vn 0.36336 0.92397 -0.11936
vn 0.49834 0.79512 0.34560
vn 0.80491 0.59231 0.03586
vn 0.40871 0.04061 0.91176
vn 0.90376 0.39597 0.16257
vn 0.53879 0.83725 0.09334
vn 0.64764 0.48455 0.58803
vn 0.07060 0.99180 0.10649
vn 0.27791 0.80978 -0.51674
vn 0.40598 0.86064 -0.30737
vn 0.10848 0.98961 0.09440
vn -0.21044 0.87118 0.44358
vn -0.13712 0.79367 0.59270
vn 0.42836 0.90360 -0.00277
vn 0.21966 0.86939 0.44262
vn -0.26460 0.07069 0.96176
vn 0.47411 0.07393 0.87736
vn 0.25276 -0.86418 0.43510
vn -0.23514 -0.87168 0.42997
vn 0.37396 -0.23176 0.89802
vn 0.52884 -0.81648 0.23170
vn 0.90394 -0.28802 0.31613
vn 0.60125 -0.07056 -0.79594
vn 0.67753 0.70115 -0.22215
vn 0.97844 -0.20386 0.03307
vn -0.43932 0.08535 0.89427
vn -0.26460 0.07069 0.96176
vn 0.47411 0.07393 0.87736
vn 0.73372 -0.01897 -0.67918
vn 0.97751 0.20118 0.06323
vn 0.90595 -0.30324 -0.29547
vn 0.64141 -0.72721 -0.24445
vn 0.15401 -0.92880 -0.33706
vn 0.08867 -0.92068 -0.38012
vn -0.02783 -0.96302 0.26800
vn 0.25433 -0.93991 0.22778
vn 0.30478 -0.93500 -0.18132
vn 0.53877 -0.83779 -0.08851
vn 0.53247 -0.83739 -0.12352
vn 0.19792 -0.95428 -0.22402
vn 0.80326 0.59182 0.06725
vn 0.52048 -0.79538 -0.31060
vn 0.45289 -0.26266 -0.85200
vn 0.53879 0.83725 0.09334
vn 0.67753 0.70115 -0.22215
vn 0.64764 0.48455 0.58803
vn 0.37396 -0.23176 0.89802
vn 0.60125 -0.07056 -0.79594
vn -0.43932 0.08535 0.89427
vn -0.18799 -0.90543 0.38059
vn 0.66971 -0.72885 -0.14234
vn 0.64141 -0.72721 -0.24445
vn 0.97099 -0.02112 -0.23817
vn 0.99559 0.00498 -0.09363
vn -0.30734 0.93033 0.20007
vn -0.39074 0.90219 0.18268
vn -0.38866 0.91384 0.11762
vn -0.29525 -0.94325 0.15203
vn -0.39336 -0.91642 0.07380
vn 0.42965 -0.89699 0.10399
vn 0.21166 -0.94033 0.26642
vn 0.37575 -0.91376 0.15443
vn -0.47839 -0.85853 0.18459
vn -0.39645 -0.76442 0.50842
vn -0.46876 -0.81309 0.34518
vn 0.53464 -0.82470 -0.18444
vn 0.92273 0.38515 0.01517
vn 0.73756 0.67424 0.03752
vn 0.83822 0.54513 0.01465
vn 0.97130 0.21011 -0.11150
vn 0.53262 0.84256 -0.08000
vn 0.54350 0.77000 -0.33421
vn 0.86503 0.50111 0.02474
vn 0.75423 0.65635 0.01849
vn 0.74329 0.66865 -0.02056
vn 0.82627 -0.03934 -0.56190
vn 0.82627 -0.03934 -0.56190
vn 0.82627 -0.03934 -0.56190
vn 0.71565 -0.10110 -0.69110
vn 0.71565 -0.10110 -0.69110
vn 0.71565 -0.10110 -0.69110
vn 0.90640 0.10501 -0.40917
vn 0.90640 0.10501 -0.40917
vn 0.90640 0.10501 -0.40917
vn 0.86400 -0.09313 -0.49480
vn 0.86400 -0.09313 -0.49480
vn 0.86400 -0.09313 -0.49480
vn 0.91921 -0.09785 -0.38141
vn 0.91921 -0.09785 -0.38141
vn 0.91921 -0.09785 -0.38141
vn 0.90862 -0.14211 -0.39271
vn 0.90862 -0.14211 -0.39271
vn 0.90862 -0.14211 -0.39271
vn 0.92621 -0.01331 -0.37676
vn 0.92621 -0.01331 -0.37676
vn 0.92621 -0.01331 -0.37676
vn 0.83530 -0.21633 -0.50545
vn 0.83530 -0.21633 -0.50545
vn 0.83530 -0.21633 -0.50545
vn 0.85419 -0.07946 -0.51385
vn 0.85419 -0.07946 -0.51385
vn 0.85419 -0.07946 -0.51385
vn 0.91124 -0.09308 -0.40122
vn 0.91124 -0.09308 -0.40122
vn 0.91124 -0.09308 -0.40122
vn 0.97229 -0.07957 -0.21984
vn 0.97229 -0.07957 -0.21984
vn 0.97229 -0.07957 -0.21984
vn 0.91141 -0.07760 -0.40412
vn 0.91141 -0.07760 -0.40412
vn 0.91141 -0.07760 -0.40412
vn 0.81686 0.11166 -0.56592
vn 0.81686 0.11166 -0.56592
vn 0.81686 0.11166 -0.56592
vn 0.56395 0.08498 -0.82142
vn 0.56395 0.08498 -0.82142
vn 0.56395 0.08498 -0.82142
vn 0.68889 0.16792 -0.70515
vn 0.68889 0.16792 -0.70515
vn 0.68889 0.16792 -0.70515
vn 0.96744 0.22530 0.11530
vn 0.78924 0.61007 0.07004
vn 0.37396 -0.23176 0.89802
vn 0.21166 -0.94033 0.26642
vn 0.07166 -0.94950 -0.30546
vn 0.37951 -0.92330 -0.05901
vn 0.37951 -0.92330 -0.05901
vn 0.66247 0.59548 -0.45446
vn 0.31658 0.94759 -0.04304
vn 0.88842 -0.44109 -0.12703
vn 0.10578 0.99293 -0.05384
vn -0.31655 -0.27751 0.90708
vn 0.61370 -0.27581 -0.73980
vn 0.52048 -0.79538 -0.31060
vn 0.30566 0.91424 -0.26596
vn 0.73035 -0.17581 -0.66005
vn 0.30693 0.95173 -0.00258
vn 0.99224 0.12436 -0.00073
vn 0.94051 -0.33918 0.01995
vn 0.93598 -0.35054 0.03268
vn 0.93001 0.36233 0.06166
vn 0.93623 0.34674 0.05696
vn 0.93280 0.35745 0.04590
vn 0.92396 0.37924 0.04982
vn 0.91406 0.39143 0.10615
vn 0.92820 0.36989 0.04043
vn 0.93001 0.36233 0.06166
vn 0.97414 0.01064 0.22567
vn 0.92486 -0.35342 0.14046
vn 0.94767 0.31924 0.00319
vn 0.95359 0.30092 0.01097
vn 0.92930 0.36858 -0.02369
vn 0.94296 0.33204 0.02395
vn 0.91501 0.40052 -0.04848
vn 0.91149 0.40438 -0.07522
vn 0.91437 0.37080 0.16257
vn 0.38563 0.07984 0.91919
vn 0.81788 -0.57229 0.05969
vn 0.82621 -0.55169 0.11411
vn 0.91988 -0.38974 0.04374
vn 0.90538 -0.40978 0.11122
vn 0.73035 -0.17581 -0.66005
vn -0.34577 -0.76530 -0.54291
vn -0.29540 -0.94647 -0.13012
vn 0.99224 0.12436 -0.00073
vn 0.41993 -0.90738 0.01772
vn 0.50024 -0.85704 0.12346
vn -0.32645 0.94202 -0.07769
vn 0.69347 0.36183 -0.62304
vn 0.87316 0.26252 -0.41071
vn 0.86033 0.34009 -0.37969
vn 0.98766 0.03038 -0.15363
vn 0.98014 -0.05779 -0.18972
vn 0.98766 0.03038 -0.15363
vn 0.98616 0.11828 -0.11615
vn 0.76877 -0.61782 0.16523
vn 0.15318 0.96468 -0.21432
vn 0.91149 0.40438 -0.07522
vn 0.90772 0.40922 -0.09264
vn 0.87721 0.46525 -0.11847
vn 0.82998 -0.50965 0.22667
vn 0.96083 -0.01642 0.27664
vn 0.83224 0.50447 0.22998
vn 0.83594 0.51752 -0.18272
vn 0.94575 0.24709 0.21096
vn 0.94575 0.24709 0.21096
vn 0.94575 0.24709 0.21096
vn 0.67589 0.16463 -0.71838
vn 0.67589 0.16463 -0.71838
vn 0.67589 0.16463 -0.71838
vn 0.87721 0.46525 -0.11847
f 165/165/165 480/480/480 479/479/479
f 479/479/479 166/166/166 165/165/165
f 165/165/165 166/166/166 163/163/163
f 163/163/163 164/164/164 165/165/165
f 166/166/166 479/479/479 333/333/333
f 166/166/166 333/333/333 163/163/163
f 147/147/147 5/5/5 8/8/8
f 7/7/7 8/8/8 5/5/5
f 5/5/5 6/6/6 7/7/7
f 150/150/150 147/147/147 148/148/148
f 8/8/8 148/148/148 147/147/147
f 8/8/8 340/340/340 470/470/470
f 470/470/470 148/148/148 8/8/8
f 340/340/340 8/8/8 7/7/7
f 332/332/332 341/341/341 7/7/7
f 7/7/7 341/341/341 340/340/340
f 332/332/332 7/7/7 6/6/6
f 148/148/148 470/470/470 471/471/471
f 474/474/474 154/154/154 153/153/153
f 153/153/153 473/473/473 474/474/474
f 155/155/155 156/156/156 153/153/153
f 153/153/153 154/154/154 155/155/155
f 154/154/154 474/474/474 478/478/478
f 478/478/478 162/162/162 154/154/154
f 154/154/154 162/162/162 161/161/161
f 161/161/161 155/155/155 154/154/154
f 162/162/162 478/478/478 480/480/480
f 480/480/480 165/165/165 162/162/162
f 162/162/162 165/165/165 164/164/164
f 164/164/164 161/161/161 162/162/162
f 64/64/64 63/63/63 67/67/67
f 65/65/65 66/66/66 63/63/63
f 63/63/63 64/64/64 65/65/65
f 78/78/78 239/239/239 64/64/64
f 64/64/64 68/68/68 78/78/78
f 65/65/65 64/64/64 239/239/239
f 67/67/67 68/68/68 64/64/64
f 68/68/68 67/67/67 73/73/73
f 78/78/78 68/68/68 74/74/74
f 73/73/73 74/74/74 68/68/68
f 239/239/239 78/78/78 81/81/81
f 74/74/74 79/79/79 78/78/78
f 471/471/471 149/149/149 148/148/148
f 148/148/148 149/149/149 150/150/150
f 151/151/151 152/152/152 150/150/150
f 150/150/150 149/149/149 151/151/151
f 151/151/151 149/149/149 471/471/471
f 471/471/471 472/472/472 151/151/151
f 151/151/151 472/472/472 583/583/583
f 583/583/583 300/300/300 151/151/151
f 151/151/151 300/300/300 299/299/299
f 299/299/299 152/152/152 151/151/151
f 600/600/600 601/601/601 602/602/602
f 324/324/324 325/325/325 326/326/326
f 100/100/100 96/96/96 136/136/136
f 136/136/136 96/96/96 99/99/99
f 101/101/101 97/97/97 96/96/96
f 96/96/96 100/100/100 101/101/101
f 98/98/98 99/99/99 96/96/96
f 96/96/96 97/97/97 98/98/98
f 100/100/100 138/138/138 139/139/139
f 139/139/139 114/114/114 100/100/100
f 136/136/136 138/138/138 100/100/100
f 101/101/101 100/100/100 114/114/114
f 99/99/99 137/137/137 136/136/136
f 140/140/140 137/137/137 99/99/99
f 459/459/459 423/423/423 428/428/428
f 424/424/424 423/423/423 459/459/459
f 427/427/427 428/428/428 423/423/423
f 423/423/423 426/426/426 427/427/427
f 425/425/425 426/426/426 423/423/423
f 423/423/423 424/424/424 425/425/425
f 428/428/428 461/461/461 459/459/459
f 459/459/459 460/460/460 424/424/424
f 428/428/428 441/441/441 462/462/462
f 462/462/462 461/461/461 428/428/428
f 441/441/441 428/428/428 427/427/427
f 442/442/442 427/427/427 430/430/430
f 394/394/394 390/390/390 393/393/393
f 392/392/392 393/393/393 390/390/390
f 390/390/390 391/391/391 392/392/392
f 400/400/400 394/394/394 395/395/395
f 393/393/393 395/395/395 394/394/394
f 405/405/405 395/395/395 393/393/393
f 393/393/393 546/546/546 405/405/405
f 546/546/546 393/393/393 392/392/392
f 403/403/403 392/392/392 391/391/391
f 392/392/392 402/402/402 546/546/546
f 402/402/402 392/392/392 403/403/403
f 391/391/391 548/548/548 403/403/403
f 580/580/580 581/581/581 451/451/451
f 452/452/452 581/581/581 580/580/580
f 580/580/580 577/577/577 452/452/452
f 550/550/550 551/551/551 553/553/553
f 546/546/546 550/550/550 552/552/552
f 553/553/553 552/552/552 550/550/550
f 553/553/553 407/407/407 406/406/406
f 406/406/406 552/552/552 553/553/553
f 546/546/546 552/552/552 406/406/406
f 546/546/546 406/406/406 405/405/405
f 405/405/405 406/406/406 407/407/407
f 407/407/407 408/408/408 405/405/405
f 401/401/401 395/395/395 405/405/405
f 405/405/405 408/408/408 401/401/401
f 395/395/395 401/401/401 400/400/400
f 464/464/464 431/431/431 434/434/434
f 539/539/539 465/465/465 540/540/540
f 465/465/465 539/539/539 538/538/538
f 538/538/538 464/464/464 465/465/465
f 540/540/540 541/541/541 539/539/539
f 463/463/463 541/541/541 540/540/540
f 540/540/540 458/458/458 463/463/463
f 463/463/463 458/458/458 424/424/424
f 424/424/424 460/460/460 463/463/463
f 70/70/70 242/242/242 122/122/122
f 122/122/122 71/71/71 70/70/70
f 122/122/122 242/242/242 241/241/241
f 71/71/71 123/123/123 240/240/240
f 240/240/240 72/72/72 71/71/71
f 71/71/71 72/72/72 69/69/69
f 69/69/69 70/70/70 71/71/71
f 284/284/284 240/240/240 123/123/123
f 123/123/123 125/125/125 284/284/284
f 124/124/124 125/125/125 123/123/123
f 296/296/296 284/284/284 125/125/125
f 125/125/125 124/124/124 297/297/297
f 125/125/125 297/297/297 296/296/296
f 124/124/124 291/291/291 296/296/296
f 296/296/296 297/297/297 124/124/124
f 89/89/89 176/176/176 177/177/177
f 90/90/90 89/89/89 55/55/55
f 55/55/55 92/92/92 90/90/90
f 92/92/92 55/55/55 298/298/298
f 286/286/286 56/56/56 32/32/32
f 32/32/32 35/35/35 286/286/286
f 32/32/32 56/56/56 41/41/41
f 41/41/41 37/37/37 32/32/32
f 36/36/36 33/33/33 32/32/32
f 32/32/32 37/37/37 36/36/36
f 34/34/34 35/35/35 32/32/32
f 32/32/32 33/33/33 34/34/34
f 285/285/285 286/286/286 35/35/35
f 35/35/35 47/47/47 285/285/285
f 46/46/46 47/47/47 35/35/35
f 35/35/35 34/34/34 46/46/46
f 375/375/375 376/376/376 377/377/377
f 439/439/439 378/378/378 440/440/440
f 438/438/438 439/439/439 440/440/440
f 440/440/440 378/378/378 488/488/488
f 489/489/489 488/488/488 378/378/378
f 378/378/378 377/377/377 489/489/489
f 542/542/542 438/438/438 440/440/440
f 488/488/488 379/379/379 440/440/440
f 380/380/380 379/379/379 488/488/488
f 488/488/488 418/418/418 380/380/380
f 418/418/418 488/488/488 489/489/489
f 489/489/489 490/490/490 418/418/418
f 369/369/369 418/418/418 490/490/490
f 380/380/380 418/418/418 417/417/417
f 417/417/417 418/418/418 369/369/369
f 380/380/380 582/582/582 453/453/453
f 419/419/419 582/582/582 380/380/380
f 417/417/417 419/419/419 380/380/380
f 110/110/110 159/159/159 160/160/160
f 231/231/231 112/112/112 111/111/111
f 178/178/178 49/49/49 112/112/112
f 112/112/112 52/52/52 178/178/178
f 113/113/113 112/112/112 49/49/49
f 111/111/111 112/112/112 113/113/113
f 55/55/55 89/89/89 178/178/178
f 178/178/178 52/52/52 55/55/55
f 49/49/49 178/178/178 177/177/177
f 177/177/177 178/178/178 89/89/89
f 177/177/177 50/50/50 49/49/49
f 113/113/113 49/49/49 48/48/48
f 48/48/48 49/49/49 50/50/50
f 48/48/48 95/95/95 113/113/113
f 133/133/133 93/93/93 48/48/48
f 48/48/48 51/51/51 133/133/133
f 95/95/95 48/48/48 93/93/93
f 50/50/50 51/51/51 48/48/48
f 93/93/93 94/94/94 95/95/95
f 109/109/109 94/94/94 93/93/93
f 109/109/109 93/93/93 226/226/226
f 225/225/225 226/226/226 93/93/93
f 93/93/93 133/133/133 225/225/225
f 108/108/108 94/94/94 109/109/109
f 109/109/109 308/308/308 110/110/110
f 226/226/226 308/308/308 109/109/109
f 109/109/109 110/110/110 108/108/108
f 99/99/99 135/135/135 140/140/140
f 118/118/118 135/135/135 99/99/99
f 99/99/99 98/98/98 118/118/118
f 117/117/117 118/118/118 98/98/98
f 98/98/98 102/102/102 117/117/117
f 98/98/98 97/97/97 102/102/102
f 135/135/135 118/118/118 130/130/130
f 118/118/118 117/117/117 129/129/129
f 129/129/129 130/130/130 118/118/118
f 140/140/140 135/135/135 229/229/229
f 130/130/130 229/229/229 135/135/135
f 229/229/229 230/230/230 140/140/140
f 228/228/228 230/230/230 229/229/229
f 229/229/229 142/142/142 228/228/228
f 142/142/142 229/229/229 130/130/130
f 130/130/130 105/105/105 142/142/142
f 130/130/130 129/129/129 106/106/106
f 106/106/106 105/105/105 130/130/130
f 106/106/106 129/129/129 117/117/117
f 117/117/117 107/107/107 106/106/106
f 106/106/106 107/107/107 104/104/104
f 104/104/104 105/105/105 106/106/106
f 105/105/105 104/104/104 141/141/141
f 141/141/141 142/142/142 105/105/105
f 449/449/449 403/403/403 548/548/548
f 403/403/403 449/449/449 448/448/448
f 448/448/448 404/404/404 403/403/403
f 403/403/403 404/404/404 402/402/402
f 402/402/402 550/550/550 546/546/546
f 550/550/550 402/402/402 404/404/404
f 577/577/577 404/404/404 448/448/448
f 404/404/404 551/551/551 550/550/550
f 448/448/448 452/452/452 577/577/577
f 452/452/452 448/448/448 450/450/450
f 398/398/398 450/450/450 448/448/448
f 448/448/448 449/449/449 398/398/398
f 399/399/399 398/398/398 449/449/449
f 449/449/449 549/549/549 399/399/399
f 548/548/548 549/549/549 449/449/449
f 398/398/398 397/397/397 547/547/547
f 547/547/547 450/450/450 398/398/398
f 398/398/398 399/399/399 396/396/396
f 396/396/396 397/397/397 398/398/398
f 572/572/572 451/451/451 450/450/450
f 450/450/450 547/547/547 572/572/572
f 450/450/450 451/451/451 452/452/452
f 451/451/451 572/572/572 580/580/580
f 451/451/451 581/581/581 452/452/452
f 440/440/440 379/379/379 382/382/382
f 158/158/158 475/475/475 382/382/382
f 475/475/475 158/158/158 233/233/233
f 233/233/233 158/158/158 157/157/157
f 53/53/53 157/157/157 158/158/158
f 53/53/53 52/52/52 112/112/112
f 112/112/112 157/157/157 53/53/53
f 157/157/157 159/159/159 233/233/233
f 157/157/157 112/112/112 231/231/231
f 231/231/231 159/159/159 157/157/157
f 233/233/233 477/477/477 475/475/475
f 477/477/477 233/233/233 232/232/232
f 232/232/232 233/233/233 159/159/159
f 475/475/475 477/477/477 542/542/542
f 542/542/542 440/440/440 475/475/475
f 476/476/476 542/542/542 477/477/477
f 232/232/232 436/436/436 477/477/477
f 476/476/476 477/477/477 436/436/436
f 436/436/436 232/232/232 322/322/322
f 322/322/322 232/232/232 110/110/110
f 159/159/159 110/110/110 232/232/232
f 160/160/160 159/159/159 231/231/231
f 25/25/25 238/238/238 169/169/169
f 119/119/119 172/172/172 238/238/238
f 144/144/144 238/238/238 172/172/172
f 143/143/143 169/169/169 238/238/238
f 238/238/238 144/144/144 143/143/143
f 85/85/85 144/144/144 172/172/172
f 172/172/172 171/171/171 85/85/85
f 171/171/171 172/172/172 12/12/12
f 172/172/172 173/173/173 13/13/13
f 13/13/13 12/12/12 172/172/172
f 88/88/88 145/145/145 144/144/144
f 144/144/144 85/85/85 88/88/88
f 143/143/143 144/144/144 145/145/145
f 87/87/87 88/88/88 85/85/85
f 85/85/85 86/86/86 87/87/87
f 171/171/171 170/170/170 85/85/85
f 86/86/86 85/85/85 170/170/170
f 12/12/12 14/14/14 171/171/171
f 134/134/134 127/127/127 120/120/120
f 126/126/126 120/120/120 127/127/127
f 298/298/298 127/127/127 134/134/134
f 127/127/127 54/54/54 132/132/132
f 132/132/132 128/128/128 127/127/127
f 127/127/127 298/298/298 55/55/55
f 55/55/55 54/54/54 127/127/127
f 127/127/127 128/128/128 126/126/126
f 453/453/453 447/447/447 126/126/126
f 126/126/126 128/128/128 453/453/453
f 453/453/453 128/128/128 132/132/132
f 132/132/132 381/381/381 453/453/453
f 381/381/381 132/132/132 131/131/131
f 131/131/131 132/132/132 54/54/54
f 54/54/54 53/53/53 131/131/131
f 54/54/54 55/55/55 52/52/52
f 52/52/52 53/53/53 54/54/54
f 382/382/382 131/131/131 158/158/158
f 131/131/131 382/382/382 381/381/381
f 158/158/158 131/131/131 53/53/53
f 453/453/453 381/381/381 380/380/380
f 381/381/381 382/382/382 379/379/379
f 379/379/379 380/380/380 381/381/381
f 382/382/382 475/475/475 440/440/440
f 247/247/247 250/250/250 255/255/255
f 249/249/249 250/250/250 247/247/247
f 247/247/247 248/248/248 249/249/249
f 554/554/554 255/255/255 250/250/250
f 554/554/554 250/250/250 249/249/249
f 555/555/555 249/249/249 290/290/290
f 249/249/249 555/555/555 554/554/554
f 290/290/290 249/249/249 248/248/248
f 248/248/248 287/287/287 290/290/290
f 290/290/290 575/575/575 555/555/555
f 575/575/575 290/290/290 289/289/289
f 289/289/289 290/290/290 287/287/287
f 160/160/160 108/108/108 110/110/110
f 110/110/110 308/308/308 322/322/322
f 322/322/322 591/591/591 436/436/436
f 437/437/437 436/436/436 591/591/591
f 437/437/437 591/591/591 536/536/536
f 436/436/436 435/435/435 476/476/476
f 435/435/435 436/436/436 437/437/437
f 437/437/437 420/420/420 422/422/422
f 536/536/536 420/420/420 437/437/437
f 437/437/437 422/422/422 435/435/435
f 420/420/420 536/536/536 537/537/537
f 537/537/537 456/456/456 420/420/420
f 375/375/375 420/420/420 456/456/456
f 421/421/421 422/422/422 420/420/420
f 420/420/420 375/375/375 421/421/421
f 456/456/456 376/376/376 375/375/375
f 439/439/439 421/421/421 375/375/375
f 375/375/375 378/378/378 439/439/439
f 377/377/377 378/378/378 375/375/375
f 83/83/83 42/42/42 91/91/91
f 176/176/176 89/89/89 42/42/42
f 42/42/42 45/45/45 176/176/176
f 43/43/43 42/42/42 83/83/83
f 90/90/90 91/91/91 42/42/42
f 42/42/42 89/89/89 90/90/90
f 44/44/44 45/45/45 42/42/42
f 42/42/42 43/43/43 44/44/44
f 83/83/83 82/82/82 43/43/43
f 82/82/82 83/83/83 84/84/84
f 120/120/120 82/82/82 84/84/84
f 120/120/120 84/84/84 134/134/134
f 369/369/369 416/416/416 417/417/417
f 411/411/411 416/416/416 369/369/369
f 490/490/490 370/370/370 369/369/369
f 411/411/411 369/369/369 372/372/372
f 371/371/371 372/372/372 369/369/369
f 369/369/369 370/370/370 371/371/371
f 372/372/372 409/409/409 411/411/411
f 409/409/409 410/410/410 411/411/411
f 447/447/447 410/410/410 409/409/409
f 457/457/457 410/410/410 447/447/447
f 447/447/447 453/453/453 457/457/457
f 582/582/582 457/457/457 453/453/453
f 263/263/263 262/262/262 277/277/277
f 264/264/264 265/265/265 262/262/262
f 262/262/262 263/263/263 264/264/264
f 263/263/263 276/276/276 568/568/568
f 568/568/568 561/561/561 263/263/263
f 264/264/264 263/263/263 561/561/561
f 277/277/277 276/276/276 263/263/263
f 276/276/276 277/277/277 273/273/273
f 276/276/276 272/272/272 566/566/566
f 566/566/566 568/568/568 276/276/276
f 273/273/273 272/272/272 276/276/276
f 272/272/272 273/273/273 270/270/270
f 272/272/272 271/271/271 565/565/565
f 565/565/565 566/566/566 272/272/272
f 270/270/270 271/271/271 272/272/272
f 275/275/275 271/271/271 270/270/270
f 270/270/270 274/274/274 275/275/275
f 565/565/565 271/271/271 275/275/275
f 275/275/275 567/567/567 565/565/565
f 567/567/567 275/275/275 279/279/279
f 279/279/279 275/275/275 274/274/274
f 274/274/274 278/278/278 279/279/279
f 569/569/569 279/279/279 281/281/281
f 279/279/279 569/569/569 567/567/567
f 281/281/281 279/279/279 278/278/278
f 278/278/278 280/280/280 281/281/281
f 281/281/281 570/570/570 569/569/569
f 561/561/561 562/562/562 264/264/264
f 544/544/544 592/592/592 486/486/486
f 482/482/482 412/412/412 483/483/483
f 483/483/483 412/412/412 415/415/415
f 415/415/415 544/544/544 483/483/483
f 347/347/347 482/482/482 483/483/483
f 482/482/482 347/347/347 345/345/345
f 347/347/347 344/344/344 345/345/345
f 345/345/345 344/344/344 346/346/346
f 345/345/345 485/485/485 482/482/482
f 485/485/485 345/345/345 346/346/346
f 346/346/346 484/484/484 485/485/485
f 412/412/412 482/482/482 485/485/485
f 485/485/485 469/469/469 412/412/412
f 469/469/469 485/485/485 545/545/545
f 545/545/545 485/485/485 446/446/446
f 413/413/413 412/412/412 469/469/469
f 414/414/414 415/415/415 412/412/412
f 412/412/412 413/413/413 414/414/414
f 466/466/466 469/469/469 545/545/545
f 469/469/469 468/468/468 413/413/413
f 468/468/468 469/469/469 466/466/466
f 446/446/446 356/356/356 545/545/545
f 545/545/545 481/481/481 466/466/466
f 356/356/356 481/481/481 545/545/545
f 446/446/446 355/355/355 354/354/354
f 354/354/354 356/356/356 446/446/446
f 481/481/481 356/356/356 26/26/26
f 142/142/142 141/141/141 227/227/227
f 227/227/227 228/228/228 142/142/142
f 102/102/102 97/97/97 103/103/103
f 117/117/117 102/102/102 103/103/103
f 97/97/97 101/101/101 103/103/103
f 103/103/103 116/116/116 117/117/117
f 103/103/103 101/101/101 115/115/115
f 115/115/115 116/116/116 103/103/103
f 114/114/114 115/115/115 101/101/101
f 258/258/258 259/259/259 256/256/256
f 256/256/256 257/257/257 258/258/258
f 257/257/257 253/253/253 557/557/557
f 557/557/557 558/558/558 257/257/257
f 257/257/257 256/256/256 254/254/254
f 254/254/254 253/253/253 257/257/257
f 253/253/253 252/252/252 556/556/556
f 556/556/556 557/557/557 253/253/253
f 253/253/253 254/254/254 251/251/251
f 251/251/251 252/252/252 253/253/253
f 306/306/306 307/307/307 304/304/304
f 304/304/304 305/305/305 306/306/306
f 589/589/589 590/590/590 587/587/587
f 587/587/587 588/588/588 589/589/589
f 210/210/210 211/211/211 212/212/212
f 521/521/521 522/522/522 523/523/523
f 374/374/374 361/361/361 360/360/360
f 360/360/360 373/373/373 374/374/374
f 373/373/373 574/574/574 596/596/596
f 598/598/598 374/374/374 373/373/373
f 373/373/373 597/597/597 598/598/598
f 596/596/596 597/597/597 373/373/373
f 312/312/312 313/313/313 310/310/310
f 310/310/310 311/311/311 312/312/312
f 594/594/594 312/312/312 315/315/315
f 312/312/312 594/594/594 593/593/593
f 593/593/593 313/313/313 312/312/312
f 315/315/315 312/312/312 311/311/311
f 311/311/311 314/314/314 315/315/315
f 315/315/315 595/595/595 594/594/594
f 9/9/9 10/10/10 11/11/11
f 236/236/236 334/334/334 174/174/174
f 334/334/334 309/309/309 174/174/174
f 309/309/309 175/175/175 174/174/174
f 174/174/174 175/175/175 9/9/9
f 236/236/236 487/487/487 334/334/334
f 543/543/543 487/487/487 236/236/236
f 487/487/487 592/592/592 334/334/334
f 487/487/487 486/486/486 592/592/592
f 343/343/343 487/487/487 543/543/543
f 487/487/487 343/343/343 342/342/342
f 342/342/342 486/486/486 487/487/487
f 343/343/343 543/543/543 586/586/586
f 585/585/585 586/586/586 543/543/543
f 343/343/343 484/484/484 346/346/346
f 586/586/586 484/484/484 343/343/343
f 344/344/344 343/343/343 346/346/346
f 342/342/342 343/343/343 344/344/344
f 483/483/483 486/486/486 342/342/342
f 483/483/483 342/342/342 347/347/347
f 347/347/347 342/342/342 344/344/344
f 486/486/486 483/483/483 544/544/544
f 80/80/80 81/81/81 78/78/78
f 78/78/78 79/79/79 80/80/80
f 239/239/239 246/246/246 243/243/243
f 239/239/239 81/81/81 246/246/246
f 75/75/75 239/239/239 243/243/243
f 239/239/239 75/75/75 65/65/65
f 245/245/245 246/246/246 81/81/81
f 81/81/81 80/80/80 245/245/245
f 243/243/243 246/246/246 245/245/245
f 245/245/245 244/244/244 243/243/243
f 76/76/76 75/75/75 243/243/243
f 243/243/243 244/244/244 76/76/76
f 77/77/77 65/65/65 75/75/75
f 75/75/75 76/76/76 77/77/77
f 66/66/66 65/65/65 77/77/77
f 241/241/241 77/77/77 122/122/122
f 77/77/77 241/241/241 66/66/66
f 77/77/77 76/76/76 121/121/121
f 121/121/121 122/122/122 77/77/77
f 121/121/121 76/76/76 291/291/291
f 291/291/291 124/124/124 121/121/121
f 123/123/123 121/121/121 124/124/124
f 71/71/71 122/122/122 121/121/121
f 121/121/121 123/123/123 71/71/71
f 170/170/170 171/171/171 14/14/14
f 14/14/14 12/12/12 10/10/10
f 12/12/12 13/13/13 10/10/10
f 14/14/14 9/9/9 170/170/170
f 14/14/14 10/10/10 9/9/9
f 170/170/170 9/9/9 175/175/175
f 237/237/237 170/170/170 175/175/175
f 170/170/170 237/237/237 86/86/86
f 175/175/175 309/309/309 237/237/237
f 145/145/145 146/146/146 143/143/143
f 167/167/167 143/143/143 146/146/146
f 146/146/146 323/323/323 167/167/167
f 168/168/168 169/169/169 143/143/143
f 143/143/143 167/167/167 168/168/168
f 167/167/167 323/323/323 467/467/467
f 467/467/467 466/466/466 167/167/167
f 168/168/168 167/167/167 466/466/466
f 466/466/466 467/467/467 468/468/468
f 62/62/62 58/58/58 57/57/57
f 57/57/57 58/58/58 59/59/59
f 61/61/61 58/58/58 62/62/62
f 58/58/58 60/60/60 59/59/59
f 60/60/60 58/58/58 61/61/61
f 389/389/389 384/384/384 386/386/386
f 384/384/384 385/385/385 386/386/386
f 388/388/388 389/389/389 386/386/386
f 386/386/386 385/385/385 387/387/387
f 387/387/387 388/388/388 386/386/386
f 427/427/427 442/442/442 441/441/441
f 426/426/426 430/430/430 427/427/427
f 429/429/429 430/430/430 426/426/426
f 425/425/425 429/429/429 426/426/426
f 430/430/430 429/429/429 445/445/445
f 445/445/445 443/443/443 430/430/430
f 430/430/430 443/443/443 442/442/442
f 445/445/445 429/429/429 425/425/425
f 454/454/454 445/445/445 444/444/444
f 445/445/445 454/454/454 433/433/433
f 433/433/433 432/432/432 445/445/445
f 425/425/425 444/444/444 445/445/445
f 444/444/444 455/455/455 454/454/454
f 433/433/433 454/454/454 455/455/455
f 455/455/455 444/444/444 458/458/458
f 444/444/444 425/425/425 424/424/424
f 424/424/424 458/458/458 444/444/444
f 465/465/465 434/434/434 455/455/455
f 455/455/455 540/540/540 465/465/465
f 458/458/458 540/540/540 455/455/455
f 455/455/455 434/434/434 433/433/433
f 433/433/433 434/434/434 431/431/431
f 431/431/431 432/432/432 433/433/433
f 434/434/434 465/465/465 464/464/464
f 316/316/316 285/285/285 47/47/47
f 318/318/318 317/317/317 47/47/47
f 47/47/47 46/46/46 318/318/318
f 47/47/47 317/317/317 316/316/316
f 38/38/38 39/39/39 36/36/36
f 36/36/36 37/37/37 38/38/38
f 40/40/40 38/38/38 37/37/37
f 40/40/40 41/41/41 179/179/179
f 37/37/37 41/41/41 40/40/40
f 367/367/367 179/179/179 368/368/368
f 366/366/366 365/365/365 367/367/367
f 367/367/367 368/368/368 366/366/366
f 359/359/359 366/366/366 368/368/368
f 368/368/368 383/383/383 359/359/359
f 363/363/363 366/366/366 359/359/359
f 365/365/365 366/366/366 363/363/363
f 363/363/363 364/364/364 365/365/365
f 359/359/359 362/362/362 363/363/363
f 573/573/573 360/360/360 359/359/359
f 359/359/359 383/383/383 573/573/573
f 361/361/361 362/362/362 359/359/359
f 359/359/359 360/360/360 361/361/361
f 360/360/360 573/573/573 574/574/574
f 574/574/574 373/373/373 360/360/360
f 337/337/337 319/319/319 321/321/321
f 319/319/319 320/320/320 321/321/321
f 321/321/321 336/336/336 337/337/337
f 606/606/606 336/336/336 321/321/321
f 321/321/321 599/599/599 606/606/606
f 599/599/599 321/321/321 320/320/320
f 198/198/198 199/199/199 200/200/200
f 509/509/509 510/510/510 511/511/511
f 503/503/503 504/504/504 505/505/505
f 192/192/192 193/193/193 194/194/194
f 506/506/506 507/507/507 508/508/508
f 195/195/195 196/196/196 197/197/197
f 26/26/26 356/356/356 354/354/354
f 26/26/26 168/168/168 481/481/481
f 466/466/466 481/481/481 168/168/168
f 354/354/354 27/27/27 26/26/26
f 26/26/26 25/25/25 169/169/169
f 169/169/169 168/168/168 26/26/26
f 26/26/26 27/27/27 21/21/21
f 21/21/21 25/25/25 26/26/26
f 27/27/27 354/354/354 353/353/353
f 354/354/354 355/355/355 352/352/352
f 352/352/352 353/353/353 354/354/354
f 353/353/353 23/23/23 27/27/27
f 27/27/27 23/23/23 22/22/22
f 22/22/22 21/21/21 27/27/27
f 119/119/119 25/25/25 21/21/21
f 21/21/21 20/20/20 119/119/119
f 21/21/21 22/22/22 19/19/19
f 19/19/19 20/20/20 21/21/21
f 238/238/238 25/25/25 119/119/119
f 335/335/335 293/293/293 292/292/292
f 294/294/294 295/295/295 292/292/292
f 292/292/292 293/293/293 294/294/294
f 335/335/335 578/578/578 293/293/293
f 294/294/294 293/293/293 578/578/578
f 578/578/578 579/579/579 294/294/294
f 207/207/207 208/208/208 209/209/209
f 518/518/518 519/519/519 520/520/520
f 213/213/213 214/214/214 215/215/215
f 524/524/524 525/525/525 526/526/526
f 497/497/497 498/498/498 499/499/499
f 186/186/186 187/187/187 188/188/188
f 500/500/500 501/501/501 502/502/502
f 189/189/189 190/190/190 191/191/191
f 201/201/201 202/202/202 203/203/203
f 512/512/512 513/513/513 514/514/514
f 204/204/204 205/205/205 206/206/206
f 515/515/515 516/516/516 517/517/517
f 235/235/235 1/1/1 339/339/339
f 338/338/338 339/339/339 1/1/1
f 1/1/1 4/4/4 338/338/338
f 2/2/2 1/1/1 235/235/235
f 3/3/3 4/4/4 1/1/1
f 1/1/1 2/2/2 3/3/3
f 339/339/339 543/543/543 235/235/235
f 236/236/236 235/235/235 543/543/543
f 235/235/235 234/234/234 2/2/2
f 234/234/234 235/235/235 236/236/236
f 543/543/543 339/339/339 585/585/585
f 339/339/339 338/338/338 584/584/584
f 491/491/491 492/492/492 493/493/493
f 180/180/180 181/181/181 182/182/182
f 216/216/216 217/217/217 218/218/218
f 527/527/527 528/528/528 529/529/529
f 584/584/584 585/585/585 339/339/339
f 584/584/584 338/338/338 357/357/357
f 357/357/357 338/338/338 4/4/4
f 357/357/357 358/358/358 584/584/584
f 358/358/358 357/357/357 29/29/29
f 4/4/4 29/29/29 357/357/357
f 29/29/29 31/31/31 358/358/358
f 30/30/30 31/31/31 29/29/29
f 29/29/29 28/28/28 30/30/30
f 28/28/28 29/29/29 4/4/4
f 301/301/301 30/30/30 28/28/28
f 28/28/28 3/3/3 301/301/301
f 4/4/4 3/3/3 28/28/28
f 2/2/2 302/302/302 301/301/301
f 301/301/301 3/3/3 2/2/2
f 302/302/302 2/2/2 234/234/234
f 234/234/234 303/303/303 302/302/302
f 303/303/303 234/234/234 11/11/11
f 11/11/11 234/234/234 174/174/174
f 236/236/236 174/174/174 234/234/234
f 11/11/11 173/173/173 303/303/303
f 11/11/11 13/13/13 173/173/173
f 9/9/9 11/11/11 174/174/174
f 10/10/10 13/13/13 11/11/11
f 15/15/15 18/18/18 19/19/19
f 19/19/19 22/22/22 15/15/15
f 16/16/16 15/15/15 24/24/24
f 23/23/23 24/24/24 15/15/15
f 15/15/15 22/22/22 23/23/23
f 17/17/17 18/18/18 15/15/15
f 15/15/15 16/16/16 17/17/17
f 17/17/17 16/16/16 330/330/330
f 24/24/24 330/330/330 16/16/16
f 351/351/351 330/330/330 24/24/24
f 24/24/24 348/348/348 351/351/351
f 348/348/348 24/24/24 23/23/23
f 494/494/494 495/495/495 496/496/496
f 183/183/183 184/184/184 185/185/185
f 222/222/222 223/223/223 224/224/224
f 533/533/533 534/534/534 535/535/535
f 327/327/327 328/328/328 329/329/329
f 603/603/603 604/604/604 605/605/605
f 23/23/23 353/353/353 348/348/348
f 348/348/348 353/353/353 352/352/352
f 352/352/352 349/349/349 348/348/348
f 350/350/350 351/351/351 348/348/348
f 348/348/348 349/349/349 350/350/350
f 330/330/330 351/351/351 350/350/350
f 350/350/350 331/331/331 330/330/330
f 330/330/330 331/331/331 17/17/17
f 219/219/219 220/220/220 221/221/221
f 530/530/530 531/531/531 532/532/532
f 287/287/287 288/288/288 289/289/289
f 289/289/289 268/268/268 564/564/564
f 564/564/564 576/576/576 289/289/289
f 289/289/289 576/576/576 575/575/575
f 289/289/289 288/288/288 269/269/269
f 269/269/269 268/268/268 289/289/289
f 268/268/268 267/267/267 563/563/563
f 563/563/563 564/564/564 268/268/268
f 268/268/268 269/269/269 266/266/266
f 266/266/266 267/267/267 268/268/268
f 563/563/563 267/267/267 283/283/283
f 283/283/283 267/267/267 266/266/266
f 283/283/283 571/571/571 563/563/563
f 571/571/571 283/283/283 260/260/260
f 266/266/266 282/282/282 283/283/283
f 260/260/260 283/283/283 282/282/282
f 260/260/260 560/560/560 571/571/571
f 260/260/260 258/258/258 559/559/559
f 559/559/559 560/560/560 260/260/260
f 282/282/282 261/261/261 260/260/260
f 260/260/260 261/261/261 259/259/259
f 259/259/259 258/258/258 260/260/260
f 258/258/258 257/257/257 558/558/558
f 558/558/558 559/559/559 258/258/258
