# hyneria_ad reconstructed from live game memory
v 21.49420 19.29538 40.99345
v 20.12775 21.84566 45.07491
v 18.93176 23.63992 42.94476
v 17.62588 23.87895 33.92173
v 17.17440 22.50435 48.40771
v 15.77370 24.07507 48.46544
v 15.77370 24.07507 48.46544
v 17.17440 22.50435 48.40771
v 23.97218 16.42657 49.39223
v 21.88374 19.46077 51.11227
v 18.62856 20.65935 51.98206
v 18.62856 20.65935 51.98206
v 23.48995 15.99393 66.00546
v 20.76115 19.80893 62.99217
v 17.21486 21.38037 63.63660
v 17.21486 21.38037 63.63660
v 11.60200 51.97370 -96.11200
v 9.41060 52.41980 -98.23350
v 12.13630 51.65340 -98.54100
v 11.50080 50.52530 -100.31250
v 13.71010 49.73320 -97.83980
v 9.87510 41.48880 -107.06700
v 12.06460 45.03650 -105.02370
v 10.39550 45.32910 -108.41810
v 6.99228 41.92859 -110.32602
v 10.39550 45.32910 -108.41810
v 6.71970 45.64810 -111.69440
v 6.71970 45.64810 -111.69440
v 0.59497 45.81370 -113.91990
v 2.86985 42.04620 -112.73510
v 13.02750 40.86690 -103.66150
v 15.34830 44.38120 -101.69610
v 13.36050 44.61980 -104.79150
v 18.13560 43.70840 -97.39100
v 16.65160 44.53860 -101.37200
v 16.33710 40.32080 -99.52880
v 18.50430 40.42789 -95.85310
v 19.75320 43.59990 -94.21570
v 18.13560 43.70840 -97.39100
v 21.78530 43.23289 -90.07160
v 20.62420 43.69880 -93.83160
v 20.18980 40.07389 -92.29250
v 22.04170 39.86160 -87.76110
v 23.91820 43.19370 -85.94100
v 22.75070 43.20370 -89.45370
v 22.99673 38.93140 -84.06020
v 24.69255 42.01590 -81.81380
v 24.11710 42.21390 -85.55970
v 19.69781 40.17020 -86.67849
v 18.93259 36.97620 -87.93949
v 20.41476 37.48249 -85.13279
v 20.82271 40.49840 -81.99479
v 20.76050 37.61359 -83.55069
v 21.41087 37.78939 -80.95069
v 18.91110 36.38100 -91.50459
v 19.08645 37.02429 -88.90139
v 19.83080 39.94709 -90.56409
v 17.69690 39.73790 -94.08669
v 16.37670 36.28859 -95.43609
v 17.36850 36.72729 -92.19569
v 14.98670 39.18149 -98.40679
v 13.71310 35.50640 -99.65419
v 15.46180 36.36549 -96.50269
v 11.95690 38.77759 -102.24490
v 11.33920 35.79690 -104.14619
v 13.26100 36.04799 -100.98339
v 9.05640 38.82649 -106.06779
v 7.84920 35.90849 -107.70349
v 10.24280 36.05049 -104.89230
v 6.57120 38.72150 -109.14880
v 4.73080 35.73209 -110.57879
v 7.84920 35.90849 -107.70349
v 4.43920 36.30469 -110.88259
v 2.07793 38.88769 -111.63359
v -0.00000 35.85531 -112.51439
v -0.00000 62.21060 27.51990
v 1.45000 60.77770 37.29810
v 0.97630 68.00250 45.11390
v -0.00000 69.30200 40.34890
v -0.00000 58.95619 44.16128
v -0.00000 66.96538 47.97658
v 4.44310 57.63250 33.95780
v -0.00000 56.26370 48.25430
v -0.00000 60.59880 18.23000
v -0.00000 71.30148 50.68370
v 3.09440 49.13321 76.40109
v 1.15130 61.03100 85.98779
v -0.00000 63.79820 78.99830
v -0.00000 52.17554 65.31886
v -0.00000 45.84590 88.47399
v -0.00000 58.70290 91.79760
v -0.00000 72.03221 102.85859
v 4.37460 39.69551 115.33614
v 2.66355 38.54451 123.57494
v 1.71721 48.61763 123.64106
v -0.00000 42.44641 106.59770
v -0.00000 50.22193 115.34180
v -0.00000 55.92903 123.57968
v -0.00000 60.86291 145.38840
v 2.02566 20.73645 123.60182
v -0.00000 29.29501 137.34610
v 2.36759 28.97507 123.57494
v -0.00000 25.62520 106.84491
v -0.00000 18.57178 115.18692
v 3.94985 28.16078 115.33253
v -0.00000 14.50140 89.85139
v 0.95360 15.72170 97.73930
v 1.93670 24.86480 88.89999
v -0.00000 23.06030 76.57409
v -0.00000 16.67120 103.96030
v -0.00000 26.24050 98.00301
v -0.00000 7.06581 119.06950
v -0.00000 55.56430 -98.65031
v -0.00000 51.30009 -110.43419
v 6.88795 49.73584 -110.36795
v 9.60580 53.51725 -98.27702
v 14.04768 50.05875 -98.22579
v 11.42964 50.85534 -100.40025
v -0.00000 34.46748 -90.76299
v 8.04070 36.70810 -110.45029
v 17.68640 36.95479 -99.13999
v 11.09340 46.05930 -110.38070
v 12.71630 43.86330 -109.66980
v 20.07725 42.41638 -98.79059
v 17.99879 45.93277 -98.54258
v 25.18160 41.47150 -87.23730
v 22.34790 46.22820 -86.75223
v 8.95980 35.68358 -110.60040
v -0.00000 33.27199 -111.06719
v -0.00000 30.47259 -98.72208
v 18.03530 35.27839 -99.18620
v 17.68640 36.95479 -99.13999
v 8.04070 36.70810 -110.45029
v -0.00000 26.48930 -65.06671
v 24.44021 35.34034 -65.03859
v 26.90793 40.59867 -65.00278
v 7.68230 46.72660 -113.87960
v -0.00000 47.53469 -115.90050
v -0.00000 47.04760 -89.60389
v 25.18160 41.47150 -87.23730
v 20.07725 42.41638 -98.79059
v -0.00000 45.19550 -115.95139
v 8.29070 44.57410 -113.57790
v -0.00000 24.81390 -48.76932
v 25.41702 30.06821 -48.80199
v 24.84350 44.06524 -48.78751
v 13.73835 53.76564 -86.69379
v -0.00000 62.96671 -24.04588
v -0.00000 61.96100 -48.76918
v 14.35273 56.69402 -48.77401
v 15.40986 57.21759 -24.04565
v -0.00000 21.70029 -24.04640
v -0.00000 20.20100 2.76640
v 25.11430 30.95050 2.76640
v 25.64108 31.27201 -24.04606
v 26.24860 42.29490 2.76640
v 25.82948 42.75624 -24.04886
v -0.00000 60.53334 -65.05269
v 15.02052 55.53958 -65.01436
v 22.21110 29.43220 33.63100
v 24.19725 40.77745 33.62945
v 25.63269 47.27491 -64.99690
v 26.90793 40.59867 -65.00278
v -0.00000 39.98279 -65.05133
v 15.52425 56.09758 2.85459
v 13.58635 54.07970 33.61390
v 12.71630 43.86330 -109.66980
v 8.29070 44.57410 -113.57790
v -0.00000 61.99100 2.76640
v -0.00000 35.34010 -113.97009
v -0.00000 36.54579 -113.97509
v -0.00000 36.54579 -113.97509
v -0.00000 45.19550 -115.95139
v 9.99840 48.69986 65.31871
v -0.00000 52.17554 65.31886
v 17.35440 28.80710 65.31682
v 19.07560 38.14125 65.31700
v 27.70532 31.87678 -40.10921
v 27.70532 31.87678 -40.10921
v 27.50004 31.35184 -30.64864
v -0.00000 58.33890 -86.91431
v 13.26124 50.41732 -98.21642
v 12.18249 51.92226 -96.17087
v 10.35185 52.22982 -98.21629
v 11.70853 51.04666 -98.36694
v 23.58475 26.48300 -31.38312
v 24.11181 27.56877 -45.05270
v 29.20041 26.36192 -43.76686
v 24.11181 27.56877 -45.05270
v 23.58475 26.48300 -31.38312
v 28.29600 26.13649 -33.45678
v 27.70532 31.87678 -40.10921
v 27.70532 31.87678 -40.10921
v 29.74175 28.62623 -39.61959
v 25.41702 30.06821 -48.80199
v 27.50004 31.35184 -30.64864
v 28.29600 26.13649 -33.45678
v 23.58475 26.48300 -31.38312
v 17.35440 28.80710 65.31682
v -0.00000 21.85175 65.31519
v 15.18900 29.27690 76.59809
v 19.07560 38.14125 65.31700
v 16.68275 37.12225 76.57130
v 9.99840 48.69986 65.31871
v 8.88870 46.10105 76.37284
v 13.58982 32.94133 88.53078
v 11.07760 33.09893 97.71666
v 7.66665 43.43695 88.44430
v 6.87870 41.31055 97.85121
v -0.00000 43.24780 97.84020
v 9.07812 33.12893 106.38847
v 7.53260 33.51565 115.26981
v 5.81375 39.83326 106.40524
v 4.99730 33.59201 123.57493
v -0.00000 33.57528 142.49756
v -0.00000 37.54701 137.88040
v 4.99730 33.59201 123.57493
v 15.77370 24.07507 48.46544
v 22.21110 29.43220 33.63100
v -0.00000 20.32260 33.60789
v -0.00000 20.61861 48.42751
v 17.62588 23.87895 33.92173
v 39.29098 22.91553 -40.29548
v 37.46522 24.15671 -35.26543
v 37.46522 24.15671 -35.26543
v 33.10493 24.49097 -33.06290
v 46.87875 19.11673 -28.19746
v 42.28120 23.07437 -28.59274
v 37.75726 23.30062 -26.43357
v 37.75726 23.30062 -26.43357
v 33.10493 24.49097 -33.06290
v -0.00000 21.85175 65.31519
v -0.00000 13.24899 123.66260
v -0.00000 8.84941 151.03839
v -21.49420 19.29538 40.99345
v -17.62589 23.87895 33.92173
v -18.93177 23.63992 42.94476
v -20.12775 21.84566 45.07491
v -15.77370 24.07507 48.46544
v -17.17441 22.50435 48.40771
v -17.17441 22.50435 48.40771
v -15.77370 24.07507 48.46544
v -21.88375 19.46076 51.11227
v -23.97219 16.42657 49.39222
v -18.62856 20.65935 51.98206
v -18.62856 20.65935 51.98206
v -20.76116 19.80893 62.99217
v -23.48996 15.99393 66.00546
v -17.21487 21.38037 63.63660
v -17.21487 21.38037 63.63660
v -11.60200 51.97369 -96.11199
v -12.13630 51.65339 -98.54099
v -9.41060 52.41978 -98.23350
v -11.50081 50.52529 -100.31249
v -13.71010 49.73320 -97.83979
v -9.87511 41.48879 -107.06699
v -10.39551 45.32909 -108.41809
v -12.06461 45.03649 -105.02369
v -6.99229 41.92859 -110.32602
v -6.71971 45.64809 -111.69440
v -10.39551 45.32909 -108.41809
v -6.71971 45.64809 -111.69440
v -2.86986 42.04619 -112.73510
v -0.59498 45.81369 -113.91990
v -13.02751 40.86690 -103.66150
v -13.36051 44.61980 -104.79150
v -15.34831 44.38120 -101.69610
v -18.13561 43.70840 -97.39101
v -16.33711 40.32080 -99.52881
v -16.65161 44.53860 -101.37201
v -18.50430 40.42789 -95.85311
v -18.13561 43.70840 -97.39101
v -19.75321 43.59990 -94.21571
v -21.78530 43.23290 -90.07159
v -20.18980 40.07390 -92.29250
v -20.62420 43.69880 -93.83159
v -22.04171 39.86159 -87.76110
v -22.75071 43.20369 -89.45370
v -23.91821 43.19369 -85.94100
v -22.99673 38.93139 -84.06019
v -24.11710 42.21389 -85.55968
v -24.69256 42.01589 -81.81377
v -19.69781 40.17020 -86.67849
v -20.41476 37.48249 -85.13279
v -18.93259 36.97620 -87.93949
v -20.82272 40.49840 -81.99479
v -21.41088 37.78939 -80.95069
v -20.76051 37.61360 -83.55069
v -18.91111 36.38099 -91.50458
v -19.83081 39.94709 -90.56408
v -19.08646 37.02429 -88.90138
v -17.69691 39.73790 -94.08669
v -17.36851 36.72729 -92.19569
v -16.37671 36.28860 -95.43609
v -14.98671 39.18148 -98.40678
v -15.46181 36.36549 -96.50268
v -13.71311 35.50640 -99.65417
v -11.95690 38.77758 -102.24490
v -13.26100 36.04799 -100.98338
v -11.33920 35.79689 -104.14618
v -9.05641 38.82649 -106.06779
v -10.24281 36.05049 -104.89230
v -7.84921 35.90848 -107.70349
v -6.57120 38.72149 -109.14880
v -7.84921 35.90848 -107.70349
v -4.73080 35.73208 -110.57879
v -4.43921 36.30470 -110.88259
v -2.07794 38.88770 -111.63359
v -0.97631 68.00250 45.11390
v -1.45001 60.77770 37.29810
v -4.44311 57.63250 33.95780
v -3.09441 49.13321 76.40109
v -1.15131 61.03100 85.98780
v -4.37461 39.69551 115.33614
v -1.71721 48.61763 123.64107
v -2.66356 38.54451 123.57494
v -0.00000 50.22193 115.34180
v -0.00000 55.92903 123.57968
v -2.02566 20.73645 123.60182
v -2.36760 28.97507 123.57494
v -3.94986 28.16078 115.33253
v -0.00000 18.57178 115.18692
v -1.93671 24.86480 88.89999
v -0.95361 15.72170 97.73930
v -9.60580 53.51725 -98.27701
v -6.88796 49.73584 -110.36795
v -11.42965 50.85533 -100.40025
v -14.04769 50.05875 -98.22579
v -17.68640 36.95479 -99.13998
v -8.04070 36.70810 -110.45028
v -11.09341 46.05930 -110.38070
v -17.99879 45.93276 -98.54258
v -20.07726 42.41637 -98.79059
v -12.71631 43.86329 -109.66980
v -22.34791 46.22819 -86.75223
v -25.18161 41.47149 -87.23730
v -8.95980 35.68358 -110.60040
v -18.03530 35.27839 -99.18619
v -8.04070 36.70810 -110.45028
v -17.68640 36.95479 -99.13998
v -24.44021 35.34033 -65.03858
v -26.90793 40.59867 -65.00276
v -7.68231 46.72660 -113.87961
v -20.07726 42.41637 -98.79059
v -25.18161 41.47149 -87.23730
v -8.29071 44.57410 -113.57791
v -25.41703 30.06821 -48.80199
v -24.84350 44.06524 -48.78751
v -13.73835 53.76564 -86.69379
v -15.40986 57.21759 -24.04565
v -14.35273 56.69402 -48.77401
v -25.64109 31.27201 -24.04606
v -25.11431 30.95050 2.76640
v -25.82949 42.75624 -24.04886
v -26.24861 42.29490 2.76640
v -15.02052 55.53957 -65.01436
v -24.19726 40.77745 33.62945
v -22.21111 29.43220 33.63100
v -25.63269 47.27490 -64.99689
v -26.90793 40.59867 -65.00276
v -15.52425 56.09758 2.85459
v -13.58636 54.07970 33.61390
v -12.71631 43.86329 -109.66980
v -8.29071 44.57410 -113.57791
v -9.99841 48.69986 65.31870
v -19.07561 38.14125 65.31702
v -17.35441 28.80710 65.31682
v -27.50005 31.35184 -30.64864
v -27.70533 31.87678 -40.10921
v -27.70533 31.87678 -40.10920
v -13.26125 50.41732 -98.21642
v -12.18250 51.92226 -96.17086
v -10.35186 52.22981 -98.21628
v -11.70853 51.04665 -98.36692
v -24.11182 27.56877 -45.05270
v -23.58476 26.48300 -31.38312
v -29.20041 26.36192 -43.76685
v -28.29601 26.13649 -33.45678
v -23.58476 26.48300 -31.38312
v -24.11182 27.56877 -45.05270
v -27.70533 31.87678 -40.10921
v -29.74176 28.62623 -39.61959
v -27.70533 31.87678 -40.10920
v -25.41703 30.06821 -48.80199
v -27.50005 31.35184 -30.64864
v -28.29601 26.13649 -33.45678
v -23.58476 26.48300 -31.38312
v -17.35441 28.80710 65.31682
v -15.18900 29.27691 76.59809
v -19.07561 38.14125 65.31702
v -16.68276 37.12226 76.57130
v -9.99841 48.69986 65.31870
v -8.88871 46.10105 76.37284
v -13.58983 32.94133 88.53077
v -11.07761 33.09893 97.71665
v -7.66666 43.43695 88.44429
v -6.87871 41.31055 97.85121
v -9.07813 33.12893 106.38847
v -7.53261 33.51566 115.26981
v -5.81375 39.83326 106.40524
v -4.99731 33.59201 123.57493
v -4.99731 33.59201 123.57493
v -15.77370 24.07507 48.46544
v -22.21111 29.43220 33.63100
v -17.62589 23.87895 33.92173
v -37.46523 24.15671 -35.26543
v -39.29098 22.91552 -40.29548
v -37.46523 24.15671 -35.26543
v -33.10493 24.49097 -33.06289
v -42.28120 23.07437 -28.59274
v -46.87875 19.11673 -28.19746
v -37.75727 23.30061 -26.43357
v -37.75727 23.30061 -26.43357
v -33.10493 24.49097 -33.06289
v -0.00000 13.24899 123.66260
v -0.00000 33.57528 142.49756
vt 0.371056 0.875388
vt 0.392278 0.921866
vt 0.360060 0.928058
vt 0.285488 0.892083
vt 0.415921 0.965155
vt 0.404962 0.983118
vt 0.414059 0.769386
vt 0.418342 0.788579
vt 0.449488 0.876463
vt 0.477984 0.920646
vt 0.466047 0.953634
vt 0.465935 0.801235
vt 0.629638 0.875686
vt 0.587678 0.919772
vt 0.600124 0.959189
vt 0.598502 0.792448
vt 0.766600 0.894400
vt 0.702800 0.930400
vt 0.712500 0.869700
vt 0.662600 0.855700
vt 0.734000 0.814700
vt 0.132867 0.193159
vt 0.015356 0.213066
vt 0.022984 0.143340
vt 0.127083 0.196561
vt 0.015356 0.213066
vt 0.022984 0.143340
vt 0.015356 0.213066
vt 0.021623 0.148799
vt 0.133520 0.190181
vt 0.132867 0.193159
vt 0.015356 0.213066
vt 0.022984 0.143340
vt 0.015356 0.213066
vt 0.022984 0.143340
vt 0.132867 0.193159
vt 0.132867 0.193159
vt 0.015356 0.213066
vt 0.022984 0.143340
vt 0.015356 0.213066
vt 0.022984 0.143340
vt 0.135064 0.191759
vt 0.132867 0.193159
vt 0.015356 0.213066
vt 0.022984 0.143340
vt 0.137665 0.192021
vt 0.015356 0.213066
vt 0.022984 0.143340
vt 0.132867 0.193159
vt 0.015356 0.213066
vt 0.022984 0.143340
vt 0.132867 0.193159
vt 0.015356 0.213066
vt 0.022984 0.143340
vt 0.015356 0.213066
vt 0.022984 0.143340
vt 0.132867 0.193159
vt 0.132867 0.193159
vt 0.015356 0.213066
vt 0.022984 0.143340
vt 0.132867 0.193159
vt 0.015356 0.213066
vt 0.022984 0.143340
vt 0.132867 0.193159
vt 0.015356 0.213066
vt 0.022984 0.143340
vt 0.132867 0.193159
vt 0.015356 0.213066
vt 0.022984 0.143340
vt 0.132867 0.193159
vt 0.015356 0.213066
vt 0.022984 0.143340
vt 0.022984 0.143340
vt 0.131130 0.193161
vt 0.019891 0.211303
vt 0.766000 0.398500
vt 0.817300 0.389200
vt 0.859400 0.441900
vt 0.829100 0.449300
vt 0.857700 0.384600
vt 0.878200 0.437200
vt 0.801400 0.362000
vt 0.880500 0.371200
vt 0.723200 0.395500
vt 0.885550 0.465675
vt 0.115100 0.692600
vt 0.162600 0.744900
vt 0.126700 0.761700
vt 0.057900 0.736700
vt 0.186800 0.684700
vt 0.191700 0.736900
vt 0.227987 0.797338
vt 0.305524 0.618919
vt 0.353838 0.623250
vt 0.346958 0.665198
vt 0.267700 0.650500
vt 0.313474 0.675171
vt 0.353885 0.694791
vt 0.419756 0.704054
vt 0.345655 0.502008
vt 0.421950 0.547050
vt 0.355171 0.538644
vt 0.265025 0.527925
vt 0.315733 0.498477
vt 0.305869 0.544847
vt 0.191050 0.443125
vt 0.216800 0.455800
vt 0.173275 0.509650
vt 0.127831 0.480906
vt 0.241750 0.467700
vt 0.220875 0.516825
vt 0.322242 0.433654
vt 0.118863 0.336690
vt 0.059100 0.311300
vt 0.071050 0.281350
vt 0.134589 0.293648
vt 0.140891 0.269787
vt 0.124495 0.279158
vt 0.855800 0.662400
vt 0.896000 0.598100
vt 0.918600 0.644300
vt 0.074700 0.255900
vt 0.078400 0.243000
vt 0.137044 0.224143
vt 0.137286 0.242923
vt 0.193493 0.211914
vt 0.195570 0.238176
vt 0.054700 0.093500
vt 0.056850 0.062475
vt 0.120850 0.069875
vt 0.115100 0.137400
vt 0.110100 0.145200
vt 0.047900 0.094800
vt 0.275549 0.075168
vt 0.286017 0.168965
vt 0.273394 0.202348
vt 0.056800 0.270750
vt 0.035600 0.296600
vt 0.866247 0.794434
vt 0.929089 0.784396
vt 0.915543 0.824950
vt 0.020800 0.282900
vt 0.052800 0.255500
vt 0.382838 0.073738
vt 0.391200 0.158700
vt 0.369545 0.223262
vt 0.190918 0.289692
vt 0.502500 0.399000
vt 0.370342 0.387499
vt 0.379217 0.310992
vt 0.507050 0.313800
vt 0.541444 0.084069
vt 0.686730 0.058585
vt 0.680670 0.160390
vt 0.511800 0.163700
vt 0.641900 0.221050
vt 0.506600 0.221600
vt 0.269944 0.374437
vt 0.291008 0.299694
vt 0.812400 0.149025
vt 0.791000 0.216650
vt 0.300573 0.237442
vt 0.930371 0.741268
vt 0.887790 0.742304
vt 0.640150 0.312600
vt 0.794900 0.306600
vt 0.894400 0.866000
vt 0.881000 0.881300
vt 0.640300 0.400600
vt 0.034400 0.052600
vt 0.028500 0.055000
vt 0.873000 0.580400
vt 0.854900 0.892200
vt 0.951950 0.283100
vt 0.961300 0.346600
vt 0.945500 0.160600
vt 0.942900 0.209400
vt 0.408900 0.165000
vt 0.448901 0.160609
vt 0.492900 0.163100
vt 0.177800 0.355900
vt 0.139652 0.272713
vt 0.145595 0.282242
vt 0.136415 0.288211
vt 0.136269 0.280739
vt 0.483450 0.137500
vt 0.400200 0.150800
vt 0.596892 0.596503
vt 0.531514 0.571206
vt 0.601185 0.461477
vt 0.627100 0.499733
vt 0.553710 0.676614
vt 0.539964 0.626921
vt 0.581975 0.645529
vt 0.524672 0.596362
vt 0.566448 0.734123
vt 0.610258 0.705262
vt 0.607302 0.750994
vt 0.042100 0.550700
vt 0.059800 0.469100
vt 0.097900 0.553400
vt 0.039450 0.599450
vt 0.095200 0.595550
vt 0.048500 0.673200
vt 0.105750 0.658150
vt 0.156825 0.574500
vt 0.205475 0.574900
vt 0.166400 0.641600
vt 0.213400 0.627300
vt 0.228600 0.666900
vt 0.251875 0.576150
vt 0.300753 0.578410
vt 0.257050 0.617350
vt 0.345090 0.582131
vt 0.447800 0.580667
vt 0.420650 0.611950
vt 0.344621 0.581490
vt 0.868973 0.112384
vt 0.312088 0.937694
vt 0.795703 0.054087
vt 0.866484 0.057656
vt 0.791356 0.121100
vt 0.666939 0.606968
vt 0.679719 0.639494
vt 0.664501 0.659023
vt 0.651467 0.686675
vt 0.789387 0.619923
vt 0.744139 0.661036
vt 0.727662 0.705868
vt 0.747506 0.522256
vt 0.667947 0.526470
vt 0.961950 0.078650
vt 0.359495 0.472493
vt 0.436990 0.459942
vt 0.371056 0.875388
vt 0.285488 0.892083
vt 0.360060 0.928058
vt 0.392278 0.921866
vt 0.404962 0.983118
vt 0.415921 0.965155
vt 0.418342 0.788579
vt 0.414059 0.769386
vt 0.477984 0.920646
vt 0.449488 0.876463
vt 0.466047 0.953634
vt 0.465935 0.801235
vt 0.587678 0.919772
vt 0.629638 0.875686
vt 0.600124 0.959189
vt 0.598502 0.792448
vt 0.766600 0.894400
vt 0.712500 0.869700
vt 0.702800 0.930400
vt 0.662600 0.855700
vt 0.734000 0.814700
vt 0.132867 0.193159
vt 0.022984 0.143340
vt 0.015356 0.213066
vt 0.127083 0.196561
vt 0.022984 0.143340
vt 0.015356 0.213066
vt 0.015356 0.213066
vt 0.133520 0.190181
vt 0.021623 0.148799
vt 0.132867 0.193159
vt 0.022984 0.143340
vt 0.015356 0.213066
vt 0.015356 0.213066
vt 0.132867 0.193159
vt 0.022984 0.143340
vt 0.132867 0.193159
vt 0.022984 0.143340
vt 0.015356 0.213066
vt 0.015356 0.213066
vt 0.135064 0.191759
vt 0.022984 0.143340
vt 0.132867 0.193159
vt 0.022984 0.143340
vt 0.015356 0.213066
vt 0.137665 0.192021
vt 0.022984 0.143340
vt 0.015356 0.213066
vt 0.132867 0.193159
vt 0.022984 0.143340
vt 0.015356 0.213066
vt 0.132867 0.193159
vt 0.022984 0.143340
vt 0.015356 0.213066
vt 0.015356 0.213066
vt 0.132867 0.193159
vt 0.022984 0.143340
vt 0.132867 0.193159
vt 0.022984 0.143340
vt 0.015356 0.213066
vt 0.132867 0.193159
vt 0.022984 0.143340
vt 0.015356 0.213066
vt 0.132867 0.193159
vt 0.022984 0.143340
vt 0.015356 0.213066
vt 0.132867 0.193159
vt 0.022984 0.143340
vt 0.015356 0.213066
vt 0.132867 0.193159
vt 0.022984 0.143340
vt 0.015356 0.213066
vt 0.022984 0.143340
vt 0.131130 0.193161
vt 0.859400 0.441900
vt 0.817300 0.389200
vt 0.801400 0.362000
vt 0.115100 0.692600
vt 0.162600 0.744900
vt 0.305522 0.618917
vt 0.346943 0.665183
vt 0.353837 0.623249
vt 0.313478 0.675175
vt 0.353886 0.694792
vt 0.345654 0.502008
vt 0.355171 0.538644
vt 0.305869 0.544847
vt 0.315733 0.498477
vt 0.173275 0.509650
vt 0.216800 0.455800
vt 0.134589 0.293648
vt 0.071050 0.281350
vt 0.124495 0.279158
vt 0.140891 0.269787
vt 0.918600 0.644300
vt 0.896000 0.598100
vt 0.074700 0.255900
vt 0.137286 0.242923
vt 0.137044 0.224143
vt 0.078400 0.243000
vt 0.195570 0.238176
vt 0.193493 0.211914
vt 0.054700 0.093500
vt 0.115100 0.137400
vt 0.047900 0.094800
vt 0.110100 0.145200
vt 0.286017 0.168965
vt 0.273394 0.202348
vt 0.056800 0.270750
vt 0.915543 0.824950
vt 0.929089 0.784396
vt 0.052800 0.255500
vt 0.391200 0.158700
vt 0.369545 0.223262
vt 0.190918 0.289692
vt 0.507050 0.313800
vt 0.379217 0.310992
vt 0.511800 0.163700
vt 0.680670 0.160390
vt 0.506600 0.221600
vt 0.641900 0.221050
vt 0.291008 0.299694
vt 0.791000 0.216650
vt 0.812400 0.149025
vt 0.300573 0.237442
vt 0.930371 0.741268
vt 0.640150 0.312600
vt 0.794900 0.306600
vt 0.894400 0.866000
vt 0.881000 0.881300
vt 0.951950 0.283100
vt 0.942900 0.209400
vt 0.945500 0.160600
vt 0.492900 0.163100
vt 0.448901 0.160609
vt 0.408900 0.165000
vt 0.139652 0.272713
vt 0.145595 0.282242
vt 0.136415 0.288211
vt 0.136269 0.280739
vt 0.400200 0.150800
vt 0.483450 0.137500
vt 0.596892 0.596503
vt 0.627100 0.499733
vt 0.601185 0.461477
vt 0.531514 0.571206
vt 0.553710 0.676614
vt 0.581975 0.645529
vt 0.539964 0.626921
vt 0.524672 0.596362
vt 0.566448 0.734123
vt 0.610258 0.705262
vt 0.607302 0.750994
vt 0.042100 0.550700
vt 0.097900 0.553400
vt 0.039450 0.599450
vt 0.095200 0.595550
vt 0.048500 0.673200
vt 0.105750 0.658150
vt 0.156825 0.574500
vt 0.205475 0.574900
vt 0.166400 0.641600
vt 0.213400 0.627300
vt 0.251875 0.576150
vt 0.300753 0.578410
vt 0.257050 0.617350
vt 0.345090 0.582131
vt 0.344621 0.581490
vt 0.868973 0.112384
vt 0.312088 0.937694
vt 0.791356 0.121100
vt 0.679719 0.639494
vt 0.666939 0.606968
vt 0.664501 0.659023
vt 0.651467 0.686675
vt 0.744139 0.661036
vt 0.789387 0.619923
vt 0.727662 0.705868
vt 0.747506 0.522256
vt 0.667947 0.526470
vt 0.359495 0.472493
vt 0.447800 0.580333
vn 0.51291 -0.61535 -0.59856
vn 0.73200 0.66451 0.15032
vn 0.93239 0.34304 0.11390
vn 0.49340 -0.86707 -0.06887
vn -0.63464 0.19170 0.74866
vn 0.47607 -0.83214 0.28442
vn 0.47607 -0.83214 0.28442
vn -0.63464 0.19170 0.74866
vn -0.06693 -0.97706 -0.20215
vn 0.63145 0.76852 0.10315
vn -0.10913 0.98768 0.11215
vn -0.10913 0.98768 0.11215
vn 0.74021 0.59376 0.31548
vn 0.51727 0.84131 0.15694
vn -0.68332 0.15419 0.71366
vn -0.68332 0.15419 0.71366
vn 0.53441 0.84520 0.00610
vn 0.22042 0.91715 -0.33203
vn 0.53527 0.78841 -0.30315
vn 0.48179 0.65053 -0.58710
vn 0.79202 0.56248 -0.23731
vn 0.85413 -0.27175 -0.44342
vn 0.85413 -0.27175 -0.44342
vn 0.75875 -0.25240 -0.60049
vn 0.63747 -0.22444 -0.73706
vn 0.75875 -0.25240 -0.60049
vn 0.49696 -0.16048 -0.85280
vn 0.49696 -0.16048 -0.85280
vn 0.33795 -0.09054 -0.93680
vn 0.33795 -0.09054 -0.93680
vn 0.80981 -0.23387 -0.53807
vn 0.80981 -0.23387 -0.53807
vn 0.80981 -0.23387 -0.53807
vn 0.89112 -0.17401 -0.41908
vn 0.89414 -0.23362 -0.38203
vn 0.89414 -0.23362 -0.38203
vn 0.88370 -0.11355 -0.45407
vn 0.88370 -0.11355 -0.45407
vn 0.89112 -0.17401 -0.41908
vn 0.91790 -0.24314 -0.31358
vn 0.91790 -0.24314 -0.31358
vn 0.91790 -0.24314 -0.31358
vn 0.89216 -0.33993 -0.29749
vn 0.89216 -0.33993 -0.29749
vn 0.89216 -0.33993 -0.29749
vn 0.90956 -0.38354 -0.16000
vn 0.90956 -0.38354 -0.16000
vn 0.90956 -0.38354 -0.16000
vn 0.88608 -0.02966 -0.46258
vn 0.88608 -0.02966 -0.46258
vn 0.88608 -0.02966 -0.46258
vn 0.96205 0.11317 -0.24830
vn 0.96205 0.11317 -0.24830
vn 0.96205 0.11317 -0.24830
vn 0.96855 -0.24880 -0.00376
vn 0.96855 -0.24880 -0.00376
vn 0.96855 -0.24880 -0.00376
vn 0.93283 -0.25906 -0.25044
vn 0.93283 -0.25906 -0.25044
vn 0.93283 -0.25906 -0.25044
vn 0.88120 -0.15363 -0.44708
vn 0.88120 -0.15363 -0.44708
vn 0.88120 -0.15363 -0.44708
vn 0.83804 0.15921 -0.52186
vn 0.83804 0.15921 -0.52186
vn 0.83804 0.15921 -0.52186
vn 0.75921 0.04968 -0.64894
vn 0.72125 -0.00903 -0.69262
vn 0.75921 0.04968 -0.64894
vn 0.67838 -0.06768 -0.73159
vn 0.67838 -0.06768 -0.73159
vn 0.72125 -0.00903 -0.69262
vn 0.34128 0.03893 -0.93915
vn 0.34128 0.03893 -0.93915
vn 0.00000 0.04142 -0.99914
vn -0.00000 0.97906 -0.20356
vn 0.96430 0.22951 0.13208
vn 0.99460 0.09614 0.03899
vn 0.00000 0.95032 -0.31127
vn -0.00000 0.73143 0.68192
vn -0.00000 -0.55036 0.83493
vn 0.60506 0.78642 0.12427
vn -0.00000 0.96130 0.27551
vn -0.00000 0.99990 -0.01380
vn 0.00000 0.78447 0.62016
vn 0.73348 0.66175 0.15518
vn 0.99530 0.04763 0.08429
vn 0.00000 0.88708 -0.46161
vn -0.00000 0.99609 0.08839
vn -0.00000 0.90928 0.41619
vn 0.00000 -0.45934 0.88826
vn 0.00000 0.80033 0.59957
vn 0.88278 0.46348 0.07671
vn 0.94382 0.24973 0.21642
vn 0.98547 0.16719 0.02986
vn 0.00000 0.99732 -0.07312
vn 0.43041 0.74305 -0.51247
vn -0.55341 0.78565 -0.27656
vn -0.00000 0.97555 0.21980
vn 0.99059 -0.10818 0.08386
vn 0.49013 -0.55672 0.67069
vn 0.94410 -0.27066 0.18821
vn -0.00000 -0.99487 -0.10118
vn -0.00000 -0.80558 -0.59249
vn 0.89689 -0.44139 0.02775
vn 0.00000 -0.91942 -0.39327
vn 0.99792 -0.02341 0.06006
vn 0.83914 -0.53146 0.11572
vn -0.00000 -0.99853 0.05427
vn -0.00000 0.72910 0.68441
vn -0.00000 -0.96044 0.27850
vn -0.00000 -0.88680 0.46216
vn -0.00000 0.95250 -0.30454
vn -0.00000 0.85618 -0.51668
vn 0.42911 0.80517 -0.40935
vn 0.54972 0.78954 -0.27283
vn 0.54932 0.77843 -0.30379
vn 0.67585 0.70792 -0.20511
vn -0.00000 0.99960 -0.02819
vn 0.29578 0.77729 -0.55528
vn 0.70533 0.61158 -0.35844
vn 0.70480 0.48743 -0.51543
vn 0.51998 -0.64190 -0.56355
vn 0.82426 -0.23797 -0.51377
vn 0.73431 0.59937 -0.31866
vn 0.93051 -0.19610 -0.30935
vn 0.81053 0.55545 -0.18578
vn 0.58791 -0.35851 -0.72514
vn 0.00000 -0.91243 -0.40923
vn 0.00000 -0.98771 -0.15629
vn 0.76896 -0.52427 -0.36584
vn 0.70533 0.61158 -0.35844
vn 0.29578 0.77729 -0.55528
vn 0.00000 -0.99394 -0.10990
vn 0.64860 -0.73706 -0.18989
vn 0.98338 0.02277 -0.18012
vn 0.42284 0.43542 -0.79474
vn 0.00000 0.47631 -0.87928
vn 0.00000 -0.99963 -0.02711
vn 0.93051 -0.19610 -0.30935
vn 0.82426 -0.23797 -0.51377
vn 0.00000 -0.48504 -0.87449
vn 0.44111 -0.53469 -0.72078
vn 0.00000 -0.97300 -0.23080
vn 0.83907 -0.35668 -0.41079
vn 0.92258 0.38559 0.01291
vn 0.53565 0.82707 -0.17038
vn 0.00000 1.00000 -0.00038
vn -0.00000 0.99795 -0.06401
vn 0.54958 0.83450 -0.03965
vn 0.64808 0.76155 -0.00515
vn 0.00000 -0.99714 0.07551
vn -0.00000 -0.99837 -0.05710
vn 0.80391 -0.59472 -0.00611
vn 0.79051 -0.57089 0.22175
vn 0.96497 0.25906 0.04141
vn 0.96370 0.26529 0.02994
vn -0.00000 0.99626 -0.08639
vn 0.53828 0.84260 -0.01677
vn 0.93975 -0.32038 0.11927
vn 0.96202 0.24186 0.12657
vn 0.81820 0.57434 -0.02626
vn 0.98338 0.02277 -0.18012
vn -0.00000 0.03445 -0.99941
vn 0.55959 0.82632 0.06365
vn 0.58156 0.79733 0.16143
vn 0.51998 -0.64190 -0.56355
vn 0.44111 -0.53469 -0.72078
vn -0.00000 0.99751 0.07057
vn 0.00000 -0.16477 -0.98633
vn -0.00000 0.76768 -0.64083
vn -0.00000 0.76768 -0.64083
vn 0.00000 -0.48504 -0.87449
vn 0.53924 0.81435 0.21463
vn -0.00000 0.99609 0.08839
vn 0.76456 -0.62381 0.16219
vn 0.94721 0.24791 0.20330
vn 0.95194 0.28613 -0.10927
vn 0.95194 0.28613 -0.10927
vn 0.94541 -0.07135 0.31799
vn -0.00000 0.98752 -0.15750
vn 0.38901 0.87629 -0.28425
vn 0.65122 0.66403 -0.36738
vn 0.73444 0.61984 -0.27639
vn 0.72561 0.62957 -0.27773
vn 0.22845 -0.95356 0.19629
vn 0.00974 -0.94719 -0.32051
vn 0.07792 -0.90760 -0.41255
vn 0.00974 -0.94719 -0.32051
vn 0.22845 -0.95356 0.19629
vn 0.60421 -0.24149 0.75935
vn 0.95194 0.28613 -0.10927
vn 0.95194 0.28613 -0.10927
vn 0.76442 0.64049 -0.07373
vn 0.83907 -0.35668 -0.41079
vn 0.94541 -0.07135 0.31799
vn 0.60421 -0.24149 0.75935
vn 0.22845 -0.95356 0.19629
vn 0.76456 -0.62381 0.16219
vn 0.00000 -0.99044 0.13796
vn 0.78268 -0.58989 0.19860
vn 0.94721 0.24791 0.20330
vn 0.90372 0.33550 0.26594
vn 0.53924 0.81435 0.21463
vn 0.65323 0.70916 0.26531
vn 0.92917 -0.19001 0.31707
vn 0.95255 -0.23936 0.18803
vn 0.64044 0.72790 0.24492
vn 0.62587 0.74651 0.22586
vn 0.00000 0.98186 0.18959
vn 0.97456 -0.15829 0.15865
vn 0.97403 0.05402 0.21986
vn 0.66928 0.72809 0.14818
vn 0.96345 -0.08534 0.25392
vn -0.50391 0.16936 0.84699
vn -0.00000 0.51180 0.85911
vn 0.96345 -0.08534 0.25392
vn 0.47607 -0.83214 0.28442
vn 0.93975 -0.32038 0.11927
vn -0.00000 -0.99978 0.02100
vn 0.00000 -0.99892 0.04642
vn 0.49340 -0.86707 -0.06887
vn 0.54875 -0.39478 -0.73690
vn 0.40341 0.91100 0.08567
vn 0.40341 0.91100 0.08567
vn -0.63164 -0.01357 0.77514
vn 0.66045 0.71875 0.21727
vn 0.35392 0.91927 0.17226
vn -0.19202 -0.38661 0.90203
vn -0.19202 -0.38661 0.90203
vn -0.63164 -0.01357 0.77514
vn 0.00000 -0.99044 0.13796
vn 0.00000 -0.95306 -0.30277
vn 0.00000 -0.95280 0.30360
vn -0.51291 -0.61534 -0.59856
vn -0.49340 -0.86707 -0.06887
vn -0.93239 0.34304 0.11390
vn -0.73200 0.66451 0.15032
vn -0.47607 -0.83214 0.28442
vn 0.63464 0.19170 0.74865
vn 0.63464 0.19170 0.74865
vn -0.47607 -0.83214 0.28442
vn -0.63145 0.76852 0.10315
vn 0.06693 -0.97706 -0.20215
vn 0.10913 0.98768 0.11215
vn 0.10913 0.98768 0.11215
vn -0.51727 0.84131 0.15694
vn -0.74021 0.59376 0.31548
vn 0.68332 0.15419 0.71366
vn 0.68332 0.15419 0.71366
vn -0.53441 0.84520 0.00610
vn -0.53527 0.78841 -0.30315
vn -0.22042 0.91715 -0.33203
vn -0.48179 0.65053 -0.58710
vn -0.79202 0.56249 -0.23730
vn -0.85413 -0.27175 -0.44342
vn -0.75875 -0.25240 -0.60049
vn -0.85413 -0.27175 -0.44342
vn -0.63747 -0.22444 -0.73706
vn -0.49696 -0.16048 -0.85280
vn -0.75875 -0.25240 -0.60049
vn -0.49696 -0.16048 -0.85280
vn -0.33795 -0.09054 -0.93680
vn -0.33795 -0.09054 -0.93680
vn -0.80981 -0.23387 -0.53807
vn -0.80981 -0.23387 -0.53807
vn -0.80981 -0.23387 -0.53807
vn -0.89112 -0.17401 -0.41908
vn -0.89414 -0.23362 -0.38203
vn -0.89414 -0.23362 -0.38203
vn -0.88370 -0.11355 -0.45407
vn -0.89112 -0.17401 -0.41908
vn -0.88370 -0.11355 -0.45407
vn -0.91790 -0.24314 -0.31358
vn -0.91790 -0.24314 -0.31358
vn -0.91790 -0.24314 -0.31358
vn -0.89216 -0.33993 -0.29749
vn -0.89216 -0.33993 -0.29749
vn -0.89216 -0.33993 -0.29749
vn -0.90956 -0.38354 -0.16000
vn -0.90956 -0.38354 -0.16000
vn -0.90956 -0.38354 -0.16000
vn -0.88608 -0.02966 -0.46258
vn -0.88608 -0.02966 -0.46258
vn -0.88608 -0.02966 -0.46258
vn -0.96205 0.11317 -0.24830
vn -0.96205 0.11317 -0.24830
vn -0.96205 0.11317 -0.24830
vn -0.96855 -0.24880 -0.00376
vn -0.96855 -0.24880 -0.00376
vn -0.96855 -0.24880 -0.00376
vn -0.93283 -0.25906 -0.25044
vn -0.93283 -0.25906 -0.25044
vn -0.93283 -0.25906 -0.25044
vn -0.88120 -0.15363 -0.44708
vn -0.88120 -0.15363 -0.44708
vn -0.88120 -0.15363 -0.44708
vn -0.83804 0.15920 -0.52186
vn -0.83804 0.15920 -0.52186
vn -0.83804 0.15920 -0.52186
vn -0.75921 0.04967 -0.64894
vn -0.75921 0.04967 -0.64894
vn -0.72125 -0.00903 -0.69262
vn -0.67838 -0.06768 -0.73159
vn -0.72125 -0.00903 -0.69262
vn -0.67838 -0.06768 -0.73159
vn -0.34128 0.03893 -0.93915
vn -0.34128 0.03893 -0.93915
vn -0.99460 0.09614 0.03899
vn -0.96430 0.22951 0.13208
vn -0.60506 0.78642 0.12427
vn -0.73348 0.66175 0.15518
vn -0.99530 0.04763 0.08429
vn -0.89923 0.43670 0.02603
vn -0.98707 0.12241 0.10347
vn -0.93260 0.28214 0.22506
vn 0.43041 0.74305 -0.51247
vn -0.55341 0.78565 -0.27656
vn -0.99059 -0.10818 0.08386
vn -0.94620 -0.25608 0.19781
vn -0.89689 -0.44139 0.02775
vn -0.00000 -0.80558 -0.59249
vn -0.83914 -0.53146 0.11572
vn -0.99792 -0.02341 0.06006
vn -0.54972 0.78954 -0.27283
vn -0.42911 0.80517 -0.40935
vn -0.67585 0.70792 -0.20511
vn -0.54932 0.77844 -0.30379
vn -0.70533 0.61158 -0.35844
vn -0.29578 0.77729 -0.55528
vn -0.70480 0.48743 -0.51543
vn -0.73431 0.59937 -0.31866
vn -0.82426 -0.23797 -0.51377
vn -0.51998 -0.64190 -0.56355
vn -0.81053 0.55545 -0.18578
vn -0.93051 -0.19610 -0.30935
vn -0.58791 -0.35851 -0.72515
vn -0.76896 -0.52427 -0.36584
vn -0.29578 0.77729 -0.55528
vn -0.70533 0.61158 -0.35844
vn -0.64860 -0.73706 -0.18989
vn -0.98338 0.02277 -0.18012
vn -0.42284 0.43542 -0.79474
vn -0.82426 -0.23797 -0.51377
vn -0.93051 -0.19610 -0.30935
vn -0.44111 -0.53469 -0.72078
vn -0.83907 -0.35668 -0.41079
vn -0.93185 0.36251 0.01548
vn -0.53565 0.82707 -0.17038
vn -0.64808 0.76155 -0.00515
vn -0.54958 0.83450 -0.03965
vn -0.79051 -0.57089 0.22175
vn -0.80391 -0.59472 -0.00611
vn -0.95996 0.27857 0.02967
vn -0.96497 0.25906 0.04141
vn -0.53828 0.84260 -0.01677
vn -0.96202 0.24186 0.12657
vn -0.93975 -0.32038 0.11927
vn -0.81820 0.57434 -0.02626
vn -0.98338 0.02277 -0.18012
vn -0.55959 0.82632 0.06365
vn -0.58156 0.79733 0.16143
vn -0.51998 -0.64190 -0.56355
vn -0.44111 -0.53469 -0.72078
vn -0.53924 0.81435 0.21463
vn -0.94721 0.24791 0.20330
vn -0.76456 -0.62381 0.16219
vn -0.97076 -0.06376 0.23143
vn -0.93191 -0.35948 0.04822
vn -0.98126 -0.04566 -0.18720
vn -0.38900 0.87629 -0.28425
vn -0.65122 0.66403 -0.36738
vn -0.73444 0.61984 -0.27639
vn -0.72561 0.62957 -0.27773
vn -0.00974 -0.94719 -0.32051
vn -0.22845 -0.95356 0.19629
vn -0.07792 -0.90760 -0.41255
vn -0.60421 -0.24149 0.75935
vn -0.22845 -0.95356 0.19629
vn -0.00974 -0.94719 -0.32051
vn -0.93191 -0.35948 0.04822
vn -0.69965 0.70914 0.08726
vn -0.98126 -0.04566 -0.18720
vn -0.83907 -0.35668 -0.41079
vn -0.97076 -0.06376 0.23143
vn -0.60421 -0.24149 0.75935
vn -0.22845 -0.95356 0.19629
vn -0.76456 -0.62381 0.16219
vn -0.78268 -0.58989 0.19860
vn -0.94721 0.24791 0.20330
vn -0.90372 0.33550 0.26594
vn -0.53924 0.81435 0.21463
vn -0.65323 0.70916 0.26531
vn -0.92917 -0.19001 0.31707
vn -0.95255 -0.23936 0.18803
vn -0.64044 0.72790 0.24492
vn -0.62587 0.74651 0.22586
vn -0.97456 -0.15829 0.15865
vn -0.96621 0.12223 0.22693
vn -0.66928 0.72809 0.14818
vn -0.95249 -0.15147 0.26425
vn -0.95249 -0.15147 0.26425
vn -0.47607 -0.83214 0.28442
vn -0.93975 -0.32038 0.11927
vn -0.49340 -0.86707 -0.06887
vn -0.12496 0.91004 0.39524
vn -0.54875 -0.39478 -0.73690
vn 0.17705 0.74730 0.64046
vn 0.63164 -0.01357 0.77514
vn -0.12276 0.93071 0.34454
vn -0.66045 0.71875 0.21727
vn 0.19202 -0.38661 0.90203
vn 0.19202 -0.38661 0.90203
vn 0.63164 -0.01357 0.77514
vn 0.00000 -0.95306 -0.30277
vn -0.50391 0.16936 0.84699
f 410/410/410 406/406/406 408/408/408
f 382/382/382 408/408/408 406/406/406
f 410/410/410 408/408/408 409/409/409
f 409/409/409 412/412/412 410/410/410
f 408/408/408 382/382/382 386/386/386
f 386/386/386 409/409/409 408/408/408
f 384/384/384 383/383/383 382/382/382
f 382/382/382 381/381/381 385/385/385
f 385/385/385 386/386/386 382/382/382
f 381/381/381 382/382/382 383/383/383
f 387/387/387 386/386/386 385/385/385
f 139/139/139 173/173/173 364/364/364
f 363/363/363 139/139/139 364/364/364
f 139/139/139 344/344/344 345/345/345
f 139/139/139 141/141/141 167/167/167
f 139/139/139 168/168/168 173/173/173
f 167/167/167 168/168/168 139/139/139
f 139/139/139 140/140/140 141/141/141
f 192/192/192 193/193/193 194/194/194
f 223/223/223 231/231/231 230/230/230
f 230/230/230 227/227/227 223/223/223
f 224/224/224 223/223/223 227/227/227
f 228/228/228 225/225/225 224/224/224
f 227/227/227 228/228/228 224/224/224
f 226/226/226 225/225/225 228/228/228
f 225/225/225 226/226/226 197/197/197
f 198/198/198 196/196/196 197/197/197
f 228/228/228 229/229/229 226/226/226
f 229/229/229 228/228/228 227/227/227
f 79/79/79 78/78/78 85/85/85
f 78/78/78 81/81/81 85/85/85
f 81/81/81 78/78/78 77/77/77
f 80/80/80 77/77/77 82/82/82
f 77/77/77 80/80/80 81/81/81
f 80/80/80 83/83/83 311/311/311
f 82/82/82 83/83/83 80/80/80
f 311/311/311 83/83/83 362/362/362
f 365/365/365 362/362/362 83/83/83
f 83/83/83 175/175/175 365/365/365
f 82/82/82 166/166/166 83/83/83
f 174/174/174 175/175/175 83/83/83
f 83/83/83 166/166/166 174/174/174
f 311/311/311 169/169/169 84/84/84
f 311/311/311 361/361/361 169/169/169
f 311/311/311 362/362/362 361/361/361
f 366/366/366 357/357/357 362/362/362
f 362/362/362 365/365/365 366/366/366
f 361/361/361 362/362/362 357/357/357
f 361/361/361 350/350/350 148/148/148
f 148/148/148 169/169/169 361/361/361
f 357/357/357 355/355/355 361/361/361
f 350/350/350 361/361/361 355/355/355
f 82/82/82 169/169/169 165/165/165
f 82/82/82 84/84/84 169/169/169
f 165/165/165 169/169/169 148/148/148
f 351/351/351 149/149/149 148/148/148
f 148/148/148 350/350/350 351/351/351
f 148/148/148 151/151/151 165/165/165
f 150/150/150 151/151/151 148/148/148
f 148/148/148 149/149/149 150/150/150
f 351/351/351 350/350/350 354/354/354
f 355/355/355 354/354/354 350/350/350
f 356/356/356 351/351/351 348/348/348
f 354/354/354 348/348/348 351/351/351
f 158/158/158 149/149/149 351/351/351
f 351/351/351 356/356/356 158/158/158
f 150/150/150 149/149/149 158/158/158
f 349/349/349 181/181/181 158/158/158
f 158/158/158 356/356/356 349/349/349
f 147/147/147 159/159/159 158/158/158
f 158/158/158 181/181/181 147/147/147
f 158/158/158 159/159/159 150/150/150
f 146/146/146 150/150/150 159/159/159
f 150/150/150 146/146/146 157/157/157
f 157/157/157 151/151/151 150/150/150
f 162/162/162 159/159/159 147/147/147
f 159/159/159 162/162/162 146/146/146
f 145/145/145 178/178/178 146/146/146
f 157/157/157 146/146/146 178/178/178
f 162/162/162 136/136/136 146/146/146
f 146/146/146 136/136/136 145/145/145
f 147/147/147 127/127/127 162/162/162
f 136/136/136 162/162/162 127/127/127
f 145/145/145 136/136/136 135/135/135
f 127/127/127 126/126/126 136/136/136
f 135/135/135 136/136/136 132/132/132
f 145/145/145 144/144/144 187/187/187
f 144/144/144 145/145/145 135/135/135
f 135/135/135 134/134/134 144/144/144
f 132/132/132 131/131/131 135/135/135
f 135/135/135 131/131/131 130/130/130
f 130/130/130 134/134/134 135/135/135
f 132/132/132 133/133/133 128/128/128
f 128/128/128 131/131/131 132/132/132
f 130/130/130 131/131/131 128/128/128
f 170/170/170 128/128/128 133/133/133
f 170/170/170 129/129/129 128/128/128
f 128/128/128 129/129/129 130/130/130
f 341/341/341 134/134/134 130/130/130
f 130/130/130 338/338/338 341/341/341
f 130/130/130 129/129/129 337/337/337
f 337/337/337 338/338/338 130/130/130
f 144/144/144 134/134/134 341/341/341
f 347/347/347 341/341/341 342/342/342
f 341/341/341 347/347/347 144/144/144
f 340/340/340 342/342/342 341/341/341
f 341/341/341 338/338/338 340/340/340
f 340/340/340 338/338/338 337/337/337
f 339/339/339 337/337/337 170/170/170
f 170/170/170 337/337/337 129/129/129
f 337/337/337 339/339/339 340/340/340
f 170/170/170 171/171/171 339/339/339
f 133/133/133 171/171/171 170/170/170
f 347/347/347 375/375/375 144/144/144
f 376/376/376 152/152/152 144/144/144
f 144/144/144 375/375/375 376/376/376
f 186/186/186 187/187/187 144/144/144
f 144/144/144 152/152/152 186/186/186
f 347/347/347 348/348/348 370/370/370
f 348/348/348 347/347/347 342/342/342
f 354/354/354 368/368/368 348/348/348
f 368/368/368 370/370/370 348/348/348
f 359/359/359 348/348/348 342/342/342
f 348/348/348 359/359/359 356/356/356
f 368/368/368 369/369/369 370/370/370
f 368/368/368 352/352/352 376/376/376
f 354/354/354 352/352/352 368/368/368
f 354/354/354 355/355/355 353/353/353
f 353/353/353 352/352/352 354/354/354
f 352/352/352 152/152/152 376/376/376
f 152/152/152 352/352/352 353/353/353
f 353/353/353 358/358/358 405/405/405
f 153/153/153 353/353/353 405/405/405
f 358/358/358 353/353/353 355/355/355
f 353/353/353 153/153/153 152/152/152
f 355/355/355 357/357/357 358/358/358
f 403/403/403 358/358/358 367/367/367
f 367/367/367 358/358/358 357/357/357
f 357/357/357 366/366/366 367/367/367
f 403/403/403 367/367/367 232/232/232
f 232/232/232 221/221/221 403/403/403
f 403/403/403 221/221/221 220/220/220
f 220/220/220 405/405/405 403/403/403
f 405/405/405 220/220/220 153/153/153
f 153/153/153 220/220/220 222/222/222
f 218/218/218 222/222/222 220/220/220
f 220/220/220 221/221/221 218/218/218
f 222/222/222 154/154/154 153/153/153
f 152/152/152 153/153/153 154/154/154
f 154/154/154 222/222/222 160/160/160
f 156/156/156 154/154/154 160/160/160
f 157/157/157 155/155/155 154/154/154
f 154/154/154 156/156/156 157/157/157
f 154/154/154 155/155/155 152/152/152
f 155/155/155 186/186/186 152/152/152
f 180/180/180 186/186/186 155/155/155
f 157/157/157 180/180/180 155/155/155
f 157/157/157 179/179/179 180/180/180
f 157/157/157 178/178/178 179/179/179
f 151/151/151 157/157/157 156/156/156
f 165/165/165 156/156/156 161/161/161
f 156/156/156 165/165/165 151/151/151
f 160/160/160 161/161/161 156/156/156
f 82/82/82 165/165/165 166/166/166
f 161/161/161 166/166/166 165/165/165
f 166/166/166 161/161/161 177/177/177
f 176/176/176 177/177/177 161/161/161
f 161/161/161 160/160/160 176/176/176
f 177/177/177 174/174/174 166/166/166
f 218/218/218 176/176/176 160/160/160
f 232/232/232 176/176/176 218/218/218
f 218/218/218 221/221/221 232/232/232
f 238/238/238 237/237/237 239/239/239
f 404/404/404 239/239/239 237/237/237
f 236/236/236 404/404/404 237/237/237
f 240/240/240 245/245/245 243/243/243
f 247/247/247 243/243/243 245/245/245
f 243/243/243 247/247/247 248/248/248
f 249/249/249 248/248/248 247/247/247
f 245/245/245 249/249/249 247/247/247
f 9/9/9 1/1/1 8/8/8
f 2/2/2 1/1/1 9/9/9
f 7/7/7 8/8/8 1/1/1
f 1/1/1 4/4/4 7/7/7
f 3/3/3 4/4/4 1/1/1
f 1/1/1 2/2/2 3/3/3
f 9/9/9 12/12/12 16/16/16
f 16/16/16 13/13/13 9/9/9
f 10/10/10 9/9/9 13/13/13
f 8/8/8 12/12/12 9/9/9
f 9/9/9 10/10/10 2/2/2
f 5/5/5 2/2/2 10/10/10
f 6/6/6 3/3/3 2/2/2
f 2/2/2 5/5/5 6/6/6
f 219/219/219 3/3/3 6/6/6
f 4/4/4 3/3/3 219/219/219
f 10/10/10 11/11/11 5/5/5
f 11/11/11 10/10/10 14/14/14
f 13/13/13 14/14/14 10/10/10
f 15/15/15 14/14/14 13/13/13
f 14/14/14 15/15/15 11/11/11
f 76/76/76 310/310/310 311/311/311
f 311/311/311 84/84/84 76/76/76
f 309/309/309 310/310/310 76/76/76
f 76/76/76 79/79/79 309/309/309
f 76/76/76 84/84/84 82/82/82
f 82/82/82 77/77/77 76/76/76
f 78/78/78 79/79/79 76/76/76
f 76/76/76 77/77/77 78/78/78
f 311/311/311 310/310/310 80/80/80
f 81/81/81 80/80/80 310/310/310
f 310/310/310 309/309/309 81/81/81
f 79/79/79 85/85/85 309/309/309
f 309/309/309 85/85/85 81/81/81
f 55/55/55 56/56/56 57/57/57
f 289/289/289 290/290/290 291/291/291
f 119/119/119 330/330/330 172/172/172
f 360/360/360 329/329/329 119/119/119
f 119/119/119 164/164/164 360/360/360
f 119/119/119 329/329/329 330/330/330
f 119/119/119 172/172/172 120/120/120
f 163/163/163 164/164/164 119/119/119
f 119/119/119 121/121/121 163/163/163
f 119/119/119 120/120/120 121/121/121
f 163/163/163 140/140/140 139/139/139
f 139/139/139 164/164/164 163/163/163
f 360/360/360 164/164/164 139/139/139
f 139/139/139 345/345/345 360/360/360
f 139/139/139 363/363/363 344/344/344
f 241/241/241 235/235/235 244/244/244
f 244/244/244 235/235/235 238/238/238
f 242/242/242 236/236/236 235/235/235
f 235/235/235 241/241/241 242/242/242
f 237/237/237 238/238/238 235/235/235
f 235/235/235 236/236/236 237/237/237
f 244/244/244 246/246/246 241/241/241
f 244/244/244 248/248/248 250/250/250
f 250/250/250 246/246/246 244/244/244
f 248/248/248 244/244/244 243/243/243
f 238/238/238 243/243/243 244/244/244
f 243/243/243 238/238/238 240/240/240
f 239/239/239 240/240/240 238/238/238
f 204/204/204 205/205/205 86/86/86
f 86/86/86 89/89/89 204/204/204
f 208/208/208 90/90/90 86/86/86
f 86/86/86 205/205/205 208/208/208
f 87/87/87 86/86/86 90/90/90
f 88/88/88 89/89/89 86/86/86
f 86/86/86 87/87/87 88/88/88
f 203/203/203 205/205/205 204/204/204
f 204/204/204 202/202/202 203/203/203
f 206/206/206 208/208/208 205/205/205
f 205/205/205 203/203/203 206/206/206
f 90/90/90 208/208/208 209/209/209
f 207/207/207 209/209/209 208/208/208
f 391/391/391 390/390/390 392/392/392
f 46/46/46 47/47/47 48/48/48
f 280/280/280 281/281/281 282/282/282
f 349/349/349 356/356/356 359/359/359
f 181/181/181 349/349/349 325/325/325
f 325/325/325 349/349/349 372/372/372
f 372/372/372 349/349/349 328/328/328
f 359/359/359 335/335/335 349/349/349
f 349/349/349 335/335/335 332/332/332
f 332/332/332 328/328/328 349/349/349
f 335/335/335 359/359/359 342/342/342
f 342/342/342 336/336/336 335/335/335
f 332/332/332 335/335/335 336/336/336
f 328/328/328 332/332/332 331/331/331
f 336/336/336 333/333/333 332/332/332
f 331/331/331 332/332/332 333/333/333
f 58/58/58 59/59/59 60/60/60
f 292/292/292 293/293/293 294/294/294
f 52/52/52 53/53/53 54/54/54
f 286/286/286 287/287/287 288/288/288
f 188/188/188 191/191/191 231/231/231
f 231/231/231 223/223/223 188/188/188
f 194/194/194 188/188/188 223/223/223
f 195/195/195 188/188/188 194/194/194
f 195/195/195 189/189/189 188/188/188
f 190/190/190 191/191/191 188/188/188
f 188/188/188 189/189/189 190/190/190
f 194/194/194 193/193/193 195/195/195
f 197/197/197 194/194/194 225/225/225
f 194/194/194 224/224/224 225/225/225
f 223/223/223 224/224/224 194/194/194
f 194/194/194 197/197/197 196/196/196
f 196/196/196 192/192/192 194/194/194
f 377/377/377 407/407/407 414/414/414
f 414/414/414 378/378/378 377/377/377
f 407/407/407 377/377/377 382/382/382
f 382/382/382 377/377/377 384/384/384
f 384/384/384 377/377/377 380/380/380
f 379/379/379 380/380/380 377/377/377
f 377/377/377 378/378/378 379/379/379
f 407/407/407 411/411/411 413/413/413
f 413/413/413 414/414/414 407/407/407
f 411/411/411 407/407/407 406/406/406
f 382/382/382 406/406/406 407/407/407
f 412/412/412 411/411/411 410/410/410
f 406/406/406 410/410/410 411/411/411
f 43/43/43 44/44/44 45/45/45
f 277/277/277 278/278/278 279/279/279
f 19/19/19 21/21/21 17/17/17
f 17/17/17 18/18/18 19/19/19
f 20/20/20 21/21/21 19/19/19
f 20/20/20 19/19/19 18/18/18
f 252/252/252 251/251/251 255/255/255
f 251/251/251 252/252/252 253/253/253
f 254/254/254 252/252/252 255/255/255
f 254/254/254 253/253/253 252/252/252
f 40/40/40 41/41/41 42/42/42
f 274/274/274 275/275/275 276/276/276
f 34/34/34 35/35/35 36/36/36
f 268/268/268 269/269/269 270/270/270
f 22/22/22 23/23/23 24/24/24
f 256/256/256 257/257/257 258/258/258
f 61/61/61 62/62/62 63/63/63
f 295/295/295 296/296/296 297/297/297
f 49/49/49 50/50/50 51/51/51
f 283/283/283 284/284/284 285/285/285
f 37/37/37 38/38/38 39/39/39
f 271/271/271 272/272/272 273/273/273
f 64/64/64 65/65/65 66/66/66
f 298/298/298 299/299/299 300/300/300
f 331/331/331 326/326/326 328/328/328
f 327/327/327 371/371/371 328/328/328
f 371/371/371 372/372/372 328/328/328
f 326/326/326 327/327/327 328/328/328
f 331/331/331 334/334/334 346/346/346
f 346/346/346 343/343/343 331/331/331
f 326/326/326 331/331/331 343/343/343
f 333/333/333 334/334/334 331/331/331
f 326/326/326 325/325/325 327/327/327
f 114/114/114 326/326/326 343/343/343
f 326/326/326 114/114/114 113/113/113
f 113/113/113 325/325/325 326/326/326
f 142/142/142 138/138/138 343/343/343
f 343/343/343 346/346/346 142/142/142
f 343/343/343 138/138/138 114/114/114
f 114/114/114 138/138/138 137/137/137
f 137/137/137 115/115/115 114/114/114
f 113/113/113 114/114/114 115/115/115
f 325/325/325 113/113/113 181/181/181
f 181/181/181 113/113/113 116/116/116
f 115/115/115 116/116/116 113/113/113
f 373/373/373 327/327/327 325/325/325
f 372/372/372 373/373/373 325/325/325
f 327/327/327 373/373/373 372/372/372
f 372/372/372 374/374/374 327/327/327
f 371/371/371 327/327/327 374/374/374
f 374/374/374 372/372/372 371/371/371
f 184/184/184 116/116/116 118/118/118
f 116/116/116 147/147/147 181/181/181
f 116/116/116 183/183/183 147/147/147
f 183/183/183 116/116/116 184/184/184
f 115/115/115 118/118/118 116/116/116
f 183/183/183 184/184/184 118/118/118
f 118/118/118 117/117/117 182/182/182
f 118/118/118 185/185/185 183/183/183
f 185/185/185 118/118/118 182/182/182
f 115/115/115 117/117/117 118/118/118
f 182/182/182 183/183/183 185/185/185
f 183/183/183 117/117/117 147/147/147
f 182/182/182 117/117/117 183/183/183
f 147/147/147 117/117/117 125/125/125
f 125/125/125 127/127/127 147/147/147
f 117/117/117 115/115/115 122/122/122
f 122/122/122 125/125/125 117/117/117
f 115/115/115 137/137/137 122/122/122
f 122/122/122 137/137/137 143/143/143
f 143/143/143 123/123/123 122/122/122
f 124/124/124 125/125/125 122/122/122
f 122/122/122 123/123/123 124/124/124
f 126/126/126 127/127/127 125/125/125
f 125/125/125 124/124/124 126/126/126
f 142/142/142 143/143/143 137/137/137
f 137/137/137 138/138/138 142/142/142
f 31/31/31 32/32/32 33/33/33
f 265/265/265 266/266/266 267/267/267
f 67/67/67 68/68/68 69/69/69
f 301/301/301 302/302/302 303/303/303
f 88/88/88 87/87/87 92/92/92
f 87/87/87 91/91/91 92/92/92
f 88/88/88 92/92/92 313/313/313
f 313/313/313 92/92/92 91/91/91
f 70/70/70 71/71/71 72/72/72
f 304/304/304 305/305/305 306/306/306
f 25/25/25 26/26/26 27/27/27
f 259/259/259 260/260/260 261/261/261
f 208/208/208 206/206/206 207/207/207
f 203/203/203 201/201/201 206/206/206
f 108/108/108 206/206/206 201/201/201
f 111/111/111 207/207/207 206/206/206
f 206/206/206 108/108/108 111/111/111
f 201/201/201 203/203/203 202/202/202
f 202/202/202 199/199/199 201/201/201
f 201/201/201 109/109/109 108/108/108
f 109/109/109 201/201/201 199/199/199
f 111/111/111 108/108/108 107/107/107
f 108/108/108 109/109/109 106/106/106
f 106/106/106 107/107/107 108/108/108
f 323/323/323 109/109/109 389/389/389
f 109/109/109 200/200/200 388/388/388
f 388/388/388 389/389/389 109/109/109
f 106/106/106 109/109/109 323/323/323
f 199/199/199 200/200/200 109/109/109
f 324/324/324 112/112/112 106/106/106
f 323/323/323 324/324/324 106/106/106
f 107/107/107 106/106/106 112/112/112
f 112/112/112 110/110/110 107/107/107
f 107/107/107 110/110/110 111/111/111
f 112/112/112 324/324/324 110/110/110
f 111/111/111 110/110/110 324/324/324
f 324/324/324 323/323/323 111/111/111
f 389/389/389 394/394/394 323/323/323
f 111/111/111 323/323/323 394/394/394
f 391/391/391 394/394/394 389/389/389
f 389/389/389 388/388/388 390/390/390
f 390/390/390 391/391/391 389/389/389
f 394/394/394 391/391/391 393/393/393
f 393/393/393 396/396/396 394/394/394
f 395/395/395 394/394/394 396/396/396
f 394/394/394 395/395/395 111/111/111
f 103/103/103 111/111/111 395/395/395
f 207/207/207 111/111/111 103/103/103
f 398/398/398 395/395/395 397/397/397
f 395/395/395 398/398/398 103/103/103
f 396/396/396 397/397/397 395/395/395
f 396/396/396 393/393/393 312/312/312
f 312/312/312 90/90/90 396/396/396
f 397/397/397 396/396/396 90/90/90
f 312/312/312 393/393/393 392/392/392
f 392/392/392 393/393/393 391/391/391
f 392/392/392 89/89/89 312/312/312
f 90/90/90 312/312/312 313/313/313
f 88/88/88 313/313/313 312/312/312
f 312/312/312 89/89/89 88/88/88
f 90/90/90 210/210/210 397/397/397
f 313/313/313 91/91/91 90/90/90
f 209/209/209 210/210/210 90/90/90
f 90/90/90 91/91/91 87/87/87
f 400/400/400 397/397/397 210/210/210
f 397/397/397 400/400/400 398/398/398
f 210/210/210 96/96/96 400/400/400
f 213/213/213 96/96/96 210/210/210
f 210/210/210 209/209/209 213/213/213
f 211/211/211 213/213/213 209/209/209
f 209/209/209 207/207/207 211/211/211
f 96/96/96 213/213/213 93/93/93
f 212/212/212 93/93/93 213/213/213
f 213/213/213 211/211/211 212/212/212
f 96/96/96 314/314/314 400/400/400
f 96/96/96 317/317/317 314/314/314
f 96/96/96 93/93/93 97/97/97
f 399/399/399 398/398/398 400/400/400
f 400/400/400 314/314/314 399/399/399
f 399/399/399 314/314/314 316/316/316
f 314/314/314 317/317/317 318/318/318
f 318/318/318 315/315/315 314/314/314
f 314/314/314 315/315/315 316/316/316
f 316/316/316 402/402/402 399/399/399
f 321/321/321 399/399/399 401/401/401
f 398/398/398 399/399/399 321/321/321
f 316/316/316 315/315/315 216/216/216
f 316/316/316 216/216/216 215/215/215
f 215/215/215 402/402/402 316/316/316
f 216/216/216 315/315/315 99/99/99
f 318/318/318 99/99/99 315/315/315
f 95/95/95 94/94/94 216/216/216
f 95/95/95 216/216/216 99/99/99
f 215/215/215 216/216/216 94/94/94
f 94/94/94 217/217/217 215/215/215
f 217/217/217 94/94/94 93/93/93
f 93/93/93 94/94/94 95/95/95
f 97/97/97 93/93/93 95/95/95
f 95/95/95 98/98/98 97/97/97
f 98/98/98 95/95/95 99/99/99
f 93/93/93 212/212/212 217/217/217
f 214/214/214 212/212/212 105/105/105
f 105/105/105 212/212/212 211/211/211
f 101/101/101 416/416/416 214/214/214
f 214/214/214 102/102/102 101/101/101
f 105/105/105 102/102/102 214/214/214
f 100/100/100 102/102/102 105/105/105
f 233/233/233 100/100/100 105/105/105
f 105/105/105 104/104/104 233/233/233
f 211/211/211 103/103/103 105/105/105
f 103/103/103 104/104/104 105/105/105
f 103/103/103 211/211/211 207/207/207
f 321/321/321 103/103/103 398/398/398
f 103/103/103 321/321/321 322/322/322
f 320/320/320 319/319/319 321/321/321
f 415/415/415 322/322/322 321/321/321
f 321/321/321 319/319/319 415/415/415
f 401/401/401 320/320/320 321/321/321
f 416/416/416 101/101/101 320/320/320
f 320/320/320 401/401/401 416/416/416
f 101/101/101 319/319/319 320/320/320
f 234/234/234 319/319/319 101/101/101
f 234/234/234 415/415/415 319/319/319
f 234/234/234 101/101/101 100/100/100
f 100/100/100 101/101/101 102/102/102
f 234/234/234 100/100/100 233/233/233
f 28/28/28 29/29/29 30/30/30
f 262/262/262 263/263/263 264/264/264
f 73/73/73 74/74/74 75/75/75
f 307/307/307 75/75/75 308/308/308
