# entelod reconstructed from live game memory
v 11.67773 38.80137 15.02651
v 10.64980 28.64966 15.03016
v 13.24371 28.68584 16.06510
v 13.00382 38.78418 16.07904
v 11.96912 27.75228 34.13696
v 15.57565 28.75120 25.97338
v 14.78096 19.51974 26.03963
v 11.09505 19.69360 31.23523
v 13.85757 37.75942 26.00903
v 8.07333 49.30206 21.99740
v 6.50705 46.37281 32.60265
v 10.73421 37.21893 36.26964
v 13.05739 28.71788 -4.46880
v 14.34796 39.73378 -4.47053
v 17.08976 29.88795 -10.72169
v 11.76157 40.61934 -18.87702
v 11.47816 29.80146 -18.88856
v 10.59491 3.91498 30.24542
v 10.60186 6.84535 29.93733
v 13.56457 6.79667 27.13895
v 7.63285 50.97341 15.02925
v 7.80014 52.88956 -18.89444
v 14.88978 44.15444 -10.71564
v 9.23215 53.78555 -10.71560
v 7.44919 6.79705 27.13899
v 8.22230 1.57566 27.18391
v 6.88009 3.45693 24.95354
v 7.44919 6.79705 27.13899
v 13.93407 3.45718 24.94842
v 15.67585 -0.00000 25.17551
v 13.44683 1.53253 27.17886
v 10.54833 6.83211 23.29426
v 9.31663 4.54294 21.54064
v 11.62823 4.53652 21.54169
v 8.22230 1.57566 27.18391
v 13.98225 12.10480 27.00281
v 11.04142 16.29010 20.13468
v 10.54732 12.05454 23.00598
v 6.35159 19.51161 26.14207
v 11.09505 19.69360 31.23523
v 10.57761 13.54999 31.47712
v 6.92344 12.10979 27.02106
v 9.08792 53.44704 0.03608
v 14.22170 39.57557 0.03527
v 10.57383 10.34538 30.60645
v 13.98225 12.10480 27.00281
v 10.54732 12.05454 23.00598
v 6.92344 12.10979 27.02106
v 3.13130 39.46833 37.69759
v 4.67800 35.97424 37.91195
v 0.00000 39.02941 47.69330
v 0.00000 39.66813 58.54702
v 1.20383 40.22832 57.77576
v 2.19403 39.94444 47.69382
v 0.00000 58.45908 -10.71613
v 0.00000 57.62326 -18.89250
v 9.62736 53.87214 -4.47174
v 11.36771 20.25084 18.07410
v 7.08199 -0.00000 25.18584
v 9.01486 2.20053 19.32497
v 11.45326 2.20585 19.32786
v 13.93660 1.58640 21.87605
v 14.48194 -0.00000 21.43719
v 7.32235 1.62746 21.88358
v 6.60370 -0.00000 21.45443
v 5.00203 22.81121 26.18718
v 6.35159 19.51161 26.14207
v 0.00000 52.65810 22.04830
v 0.00000 54.59787 15.03123
v 9.01486 -0.00000 18.49681
v 11.45325 -0.00000 18.49967
v 0.00000 29.94642 -59.21621
v 0.00000 27.55601 -57.24841
v 2.95046 27.01024 -54.75150
v 3.05072 29.60253 -56.67349
v 5.20626 28.09711 -50.51363
v 5.27288 32.85672 -50.74125
v 7.23296 36.35267 -46.06772
v 8.28175 32.80310 -43.90815
v 10.22199 34.06445 -41.02104
v 8.95224 38.12773 -42.58818
v 0.00000 25.27225 -53.95136
v 0.00000 23.51713 -52.29101
v 2.15086 24.39765 -51.54720
v 2.27470 25.98170 -52.28522
v 3.60057 25.86524 -45.96852
v 0.00000 24.55908 -45.72644
v 0.00000 27.51808 -39.75568
v 7.65561 28.15993 -39.92774
v 0.00000 26.32890 -33.03928
v 8.67724 27.97135 -33.23839
v 9.89416 48.77106 -29.13167
v 9.36797 45.93006 -35.77790
v 10.19946 40.51060 -34.59832
v 12.26575 41.36285 -28.54278
v 3.82685 40.32928 -48.34142
v 3.00734 36.27350 -53.05843
v 6.14553 44.54764 -43.41351
v 5.63408 41.72923 -44.94307
v 5.93197 42.27973 -42.03032
v 7.29153 43.51265 -40.55117
v 7.61196 40.93055 -40.61972
v 6.63954 39.85696 -43.38945
v 5.93809 44.27737 -43.17796
v 5.58913 41.76771 -44.74306
v 6.61136 42.45829 -42.76161
v 7.11232 43.50953 -40.51992
v 7.41715 40.92629 -40.58830
v 6.55273 39.88345 -43.22762
v 11.23813 40.31659 -35.59613
v 0.00000 28.58807 -27.88744
v 6.75806 29.74875 -27.93111
v 9.91837 33.76627 -34.69793
v 10.89790 34.20971 -28.19972
v 6.35599 20.98686 0.05649
v 0.00000 18.96870 0.05721
v 0.00000 19.58474 15.04609
v 5.91648 21.45404 15.04609
v 5.55258 26.18112 35.13391
v 0.00000 25.05793 35.91751
v 0.00000 35.15196 38.85373
v 4.33083 43.21911 -46.09629
v 5.38446 49.59592 -37.94888
v 0.00000 50.19694 -38.38974
v 0.00000 45.86080 -43.76710
v 4.73328 45.97148 -43.94138
v 6.39381 30.90292 -46.95167
v 2.15334 32.47565 -56.90211
v 7.77350 55.52274 -29.44121
v 8.33022 54.50433 -30.56867
v 11.17914 54.97897 -29.68283
v 12.06421 56.06986 -28.67104
v 8.03775 51.29034 -28.40252
v 11.96037 51.52108 -29.01465
v 9.89416 48.77106 -29.13167
v 10.88875 52.07831 -30.34009
v 7.77350 55.52274 -29.44121
v 12.06421 56.06986 -28.67104
v 5.08195 52.94442 -29.21500
v 9.89416 48.77106 -29.13167
v 12.26575 41.36285 -28.54278
v 8.87156 49.77576 -31.21824
v 5.55843 51.87800 -31.26189
v 0.00000 49.16675 32.61681
v 5.08195 52.94442 -29.21500
v 0.00000 54.19975 -30.90675
v 6.86316 21.71450 -10.66140
v 6.43569 24.33138 -18.88205
v 0.00000 22.63284 -18.88066
v -0.00000 19.37982 -10.75334
v 0.00000 58.55179 -4.47220
v 0.00000 33.20414 -58.55857
v 5.00203 22.81121 26.18718
v 0.00000 54.19975 -30.90675
v 5.20626 28.09711 -50.51363
v 2.95046 27.01024 -54.75150
v 0.00000 31.49148 -51.99154
v 2.27470 25.98170 -52.28522
v 5.18633 28.82614 -47.58071
v 0.00000 27.08298 -45.71125
v 8.28175 32.80310 -43.90815
v 6.39381 30.90292 -46.95167
v 0.00000 31.49148 -51.99154
v 0.00000 37.05941 -42.46870
v 0.00000 25.27225 -53.95136
v 0.00000 27.55601 -57.24841
v 10.89790 34.20971 -28.19972
v 0.88084 41.10078 57.75628
v 1.63160 41.57829 47.69569
v 0.00000 40.64602 59.39665
v 1.04233 40.66456 58.63537
v 0.00000 42.36513 47.69614
v 0.00000 43.47269 37.80385
v 2.59404 42.44744 37.42758
v 3.13130 39.46833 37.69759
v 0.00000 43.53030 -46.40470
v 0.00000 41.10687 -49.14772
v 13.08460 28.70505 0.03420
v 0.00000 57.87883 0.03635
v 0.00000 37.12453 -53.87710
v 6.39381 30.90292 -46.95167
v 8.79113 31.58242 -40.55774
v 5.18633 28.82614 -47.58071
v 8.28175 32.80310 -43.90815
v 0.00000 33.26296 -39.04923
v 0.00000 33.26296 -39.04923
v 6.86316 21.71450 -10.66140
v 6.99388 21.00503 -4.47001
v -0.00000 19.37982 -10.75334
v 0.00000 19.05699 -4.46994
v 6.75806 29.74875 -27.93111
v 0.00000 28.58807 -27.88744
v 5.08195 52.94442 -29.21500
v 11.16136 35.18974 -36.48337
v 0.00000 38.09611 38.48273
v 0.00000 20.92536 26.29894
v 0.00000 20.92536 26.29894
v 12.34356 11.71833 -7.78495
v 15.45837 11.66769 -10.97995
v 14.87614 5.14115 -11.71956
v 12.33134 5.16149 -8.47743
v 9.66376 5.22626 -11.71959
v 8.80742 11.70872 -10.97995
v 12.38148 6.79495 -14.56788
v 12.37409 10.24623 -14.82744
v 8.80742 11.70872 -10.97995
v 9.66376 5.22626 -11.71959
v 12.33649 2.85381 -9.27731
v 9.89467 0.00279 -10.88166
v 9.22010 2.28576 -13.85842
v 15.49014 2.22378 -14.31349
v 15.80864 0.00070 -14.14292
v 14.68740 0.00279 -10.88165
v 11.92879 4.75520 -14.68406
v 12.77541 4.75342 -14.68357
v 9.89467 0.00279 -10.88166
v 8.79292 0.00072 -14.11543
v 13.16935 2.94091 -16.01358
v 11.47610 2.94447 -16.01471
v 10.99399 1.56585 -18.04309
v 13.55013 1.57714 -18.04252
v 15.10391 1.10408 -16.70541
v 15.29437 -0.00107 -16.76896
v 9.65149 1.20651 -16.41670
v 9.30711 -0.00099 -16.65157
v 10.83455 -0.00248 -18.84552
v 13.67670 -0.00247 -18.83728
v 12.35578 16.03607 -6.61467
v 13.02520 21.18440 -5.77921
v 16.04059 18.63004 -10.73390
v 7.95108 18.62700 -10.73390
v 13.02520 21.18440 -5.77921
v 16.04059 18.63004 -10.73390
v 7.95108 18.62700 -10.73390
v 7.95108 18.62700 -10.73390
v 12.35540 18.66030 -15.61416
v 0.00000 43.47269 37.80385
v 2.59404 42.44744 37.42758
v 8.22230 1.57566 27.18391
v 13.44683 1.53253 27.17886
v 15.67585 -0.00000 25.17551
v 7.08199 -0.00000 25.18584
v 8.87156 49.77576 -31.21824
v 5.55843 51.87800 -31.26189
v 5.08195 52.94442 -29.21500
v 8.03775 51.29034 -28.40252
v 10.57761 13.54999 31.47712
v 5.00203 22.81121 26.18718
v 11.96912 27.75228 34.13696
v 0.00000 41.61444 58.50570
v 0.00000 38.09611 38.48273
v 12.36844 12.88457 -15.02587
v 12.35540 18.66030 -15.61416
v 7.95108 18.62700 -10.73390
v 6.92344 12.10979 27.02106
v -11.67773 38.80136 15.02651
v -13.00382 38.78418 16.07904
v -13.24371 28.68584 16.06510
v -10.64980 28.64965 15.03016
v -11.96912 27.75228 34.13696
v -11.09505 19.69359 31.23523
v -14.78096 19.51973 26.03963
v -15.57565 28.75119 25.97338
v -13.85757 37.75942 26.00903
v -8.07333 49.30206 21.99740
v -6.50705 46.37281 32.60265
v -10.73421 37.21893 36.26964
v -13.05740 28.71788 -4.46880
v -17.08976 29.88795 -10.72169
v -14.34796 39.73378 -4.47053
v -11.47816 29.80147 -18.88855
v -11.76157 40.61934 -18.87701
v -10.59491 3.91498 30.24542
v -13.56457 6.79667 27.13895
v -10.60186 6.84535 29.93733
v -7.63285 50.97341 15.02925
v -7.80014 52.88956 -18.89444
v -9.23215 53.78555 -10.71560
v -14.88978 44.15444 -10.71564
v -7.44919 6.79705 27.13899
v -8.22230 1.57566 27.18391
v -7.44919 6.79705 27.13899
v -6.88009 3.45693 24.95354
v -13.93407 3.45718 24.94842
v -13.44683 1.53253 27.17886
v -15.67585 -0.00000 25.17551
v -10.54833 6.83211 23.29426
v -9.31663 4.54294 21.54064
v -11.62823 4.53653 21.54169
v -8.22230 1.57566 27.18391
v -13.98225 12.10480 27.00281
v -10.54732 12.05454 23.00598
v -11.04142 16.29010 20.13468
v -6.35159 19.51160 26.14207
v -6.92344 12.10979 27.02106
v -10.57761 13.54999 31.47712
v -11.09505 19.69359 31.23523
v -9.08792 53.44704 0.03608
v -14.22170 39.57557 0.03527
v -13.98225 12.10480 27.00281
v -10.57383 10.34538 30.60645
v -10.54732 12.05454 23.00598
v -6.92344 12.10979 27.02106
v -3.13130 39.46833 37.69759
v -4.67800 35.97424 37.91195
v -2.19403 39.94444 47.69382
v -1.20383 40.22832 57.77576
v -9.62736 53.87214 -4.47174
v -11.36771 20.25084 18.07410
v -7.08199 -0.00000 25.18584
v -11.45326 2.20586 19.32786
v -9.01486 2.20054 19.32497
v -14.48194 0.00000 21.43719
v -13.93660 1.58640 21.87605
v -7.32235 1.62746 21.88358
v -6.60370 0.00000 21.45443
v -5.00203 22.81121 26.18718
v -6.35159 19.51160 26.14207
v -11.45325 0.00000 18.49967
v -9.01486 0.00000 18.49681
v -3.05072 29.60253 -56.67349
v -2.95046 27.01024 -54.75150
v -5.27288 32.85672 -50.74125
v -5.20626 28.09711 -50.51363
v -7.23296 36.35267 -46.06772
v -8.95224 38.12773 -42.58818
v -10.22199 34.06445 -41.02104
v -8.28175 32.80310 -43.90815
v -2.27470 25.98170 -52.28522
v -2.15086 24.39765 -51.54720
v -3.60057 25.86524 -45.96852
v -7.65561 28.15993 -39.92774
v -8.67724 27.97135 -33.23839
v -9.89416 48.77106 -29.13167
v -12.26575 41.36285 -28.54278
v -10.19946 40.51060 -34.59832
v -9.36797 45.93006 -35.77790
v -3.82685 40.32928 -48.34142
v -3.00734 36.27350 -53.05843
v -6.14553 44.54764 -43.41351
v -5.93197 42.27973 -42.03032
v -5.63408 41.72923 -44.94307
v -7.29153 43.51265 -40.55117
v -7.61196 40.93055 -40.61972
v -6.63954 39.85696 -43.38945
v -5.93809 44.27737 -43.17796
v -6.61136 42.45829 -42.76161
v -5.58913 41.76771 -44.74306
v -7.11232 43.50953 -40.51992
v -7.41715 40.92629 -40.58830
v -6.55273 39.88345 -43.22762
v -11.23813 40.31659 -35.59613
v -6.75806 29.74875 -27.93111
v -10.89790 34.20971 -28.19972
v -9.91837 33.76627 -34.69793
v -6.35599 20.98686 0.05649
v -5.91648 21.45404 15.04609
v -5.55258 26.18112 35.13391
v -4.33083 43.21911 -46.09629
v -5.38446 49.59592 -37.94888
v -4.73328 45.97148 -43.94138
v -6.39381 30.90292 -46.95167
v -2.15334 32.47565 -56.90211
v -7.77350 55.52274 -29.44121
v -12.06421 56.06986 -28.67104
v -11.17914 54.97897 -29.68283
v -8.33022 54.50433 -30.56867
v -8.03775 51.29034 -28.40252
v -9.89416 48.77106 -29.13167
v -11.96037 51.52108 -29.01465
v -10.88875 52.07831 -30.34009
v -7.77350 55.52274 -29.44121
v -12.06421 56.06986 -28.67104
v -5.08195 52.94442 -29.21500
v -12.26575 41.36285 -28.54278
v -9.89416 48.77106 -29.13167
v -5.55843 51.87800 -31.26189
v -8.87156 49.77576 -31.21824
v -5.08195 52.94442 -29.21500
v -6.86316 21.71450 -10.66140
v -6.43569 24.33138 -18.88205
v -5.00203 22.81121 26.18718
v -5.20626 28.09711 -50.51363
v -2.95046 27.01024 -54.75150
v -2.27470 25.98170 -52.28522
v -5.18633 28.82614 -47.58071
v -8.28175 32.80310 -43.90815
v -6.39381 30.90292 -46.95167
v -10.89790 34.20971 -28.19972
v -1.63160 41.57829 47.69569
v -0.88084 41.10078 57.75628
v -1.04233 40.66456 58.63537
v -2.59404 42.44744 37.42758
v -3.13130 39.46833 37.69759
v -13.08460 28.70505 0.03420
v -6.39381 30.90292 -46.95167
v -5.18633 28.82614 -47.58071
v -8.79113 31.58242 -40.55774
v -8.28175 32.80310 -43.90815
v -6.99388 21.00503 -4.47001
v -6.86316 21.71450 -10.66140
v -6.75806 29.74875 -27.93111
v -5.08195 52.94442 -29.21500
v -11.16136 35.18974 -36.48337
v -12.34356 11.71833 -7.78494
v -12.33134 5.16149 -8.47743
v -14.87614 5.14115 -11.71956
v -15.45837 11.66769 -10.97995
v -9.66376 5.22626 -11.71959
v -8.80742 11.70872 -10.97995
v -12.38148 6.79495 -14.56788
v -9.66376 5.22626 -11.71959
v -8.80742 11.70872 -10.97995
v -12.37409 10.24623 -14.82744
v -12.33649 2.85381 -9.27731
v -9.89467 0.00279 -10.88166
v -9.22010 2.28576 -13.85842
v -15.49014 2.22378 -14.31349
v -14.68740 0.00279 -10.88165
v -15.80864 0.00070 -14.14292
v -11.92879 4.75520 -14.68406
v -12.77541 4.75342 -14.68357
v -9.89467 0.00279 -10.88166
v -8.79292 0.00072 -14.11543
v -13.16935 2.94091 -16.01358
v -13.55014 1.57714 -18.04252
v -10.99399 1.56585 -18.04309
v -11.47610 2.94447 -16.01471
v -15.29437 -0.00107 -16.76896
v -15.10391 1.10408 -16.70541
v -9.65150 1.20651 -16.41670
v -9.30711 -0.00099 -16.65157
v -13.67670 -0.00247 -18.83728
v -10.83455 -0.00247 -18.84552
v -12.35578 16.03607 -6.61467
v -16.04059 18.63004 -10.73390
v -13.02520 21.18440 -5.77921
v -7.95108 18.62700 -10.73389
v -13.02520 21.18440 -5.77921
v -16.04059 18.63004 -10.73390
v -7.95108 18.62700 -10.73389
v -12.35540 18.66031 -15.61416
v -7.95108 18.62700 -10.73389
v -2.59404 42.44744 37.42758
v -8.22230 1.57566 27.18391
v -7.08199 -0.00000 25.18584
v -15.67585 -0.00000 25.17551
v -13.44683 1.53253 27.17886
v -8.87156 49.77576 -31.21824
v -5.55843 51.87800 -31.26189
v -5.08195 52.94442 -29.21500
v -8.03775 51.29034 -28.40252
v -10.57761 13.54999 31.47712
v -5.00203 22.81121 26.18718
v -11.96912 27.75228 34.13696
v -12.36844 12.88457 -15.02587
v -7.95108 18.62700 -10.73389
v -12.35540 18.66031 -15.61416
v -6.92344 12.10979 27.02106
v 11.45325 -0.00000 18.49967
v 9.01486 -0.00000 18.49681
v 6.60370 -0.00000 21.45443
v 7.08199 -0.00000 25.18584
v 15.67585 -0.00000 25.17551
v 14.48194 -0.00000 21.43719
v 15.29437 -0.00107 -16.76896
v 13.67670 -0.00247 -18.83728
v 10.83455 -0.00248 -18.84552
v 9.30711 -0.00099 -16.65157
v 8.79292 0.00072 -14.11543
v 9.89467 0.00279 -10.88166
v 14.68740 0.00279 -10.88165
v 15.80864 0.00070 -14.14292
v -7.08199 -0.00000 25.18584
v -6.60370 0.00000 21.45443
v -9.01486 0.00000 18.49681
v -11.45325 0.00000 18.49967
v -14.48194 0.00000 21.43719
v -15.67585 -0.00000 25.17551
v -9.89467 0.00279 -10.88166
v -8.79292 0.00072 -14.11543
v -9.30711 -0.00099 -16.65157
v -10.83455 -0.00247 -18.84552
v -13.67670 -0.00247 -18.83728
v -15.29437 -0.00107 -16.76896
v -15.80864 0.00070 -14.14292
v -14.68740 0.00279 -10.88165
vt 0.619109 0.306366
vt 0.629526 0.192143
vt 0.655158 0.205176
vt 0.642630 0.302895
vt 0.865667 0.226385
vt 0.762202 0.220788
vt 0.765708 0.143577
vt 0.844982 0.171674
vt 0.756348 0.314646
vt 0.724822 0.435242
vt 0.822163 0.423683
vt 0.861915 0.309611
vt 0.386095 0.183326
vt 0.389807 0.313736
vt 0.292408 0.195091
vt 0.164608 0.335282
vt 0.150186 0.199905
vt 0.406878 0.703314
vt 0.406878 0.740665
vt 0.361142 0.738374
vt 0.640052 0.447280
vt 0.167047 0.472299
vt 0.303352 0.370702
vt 0.304267 0.492402
vt 0.448302 0.737724
vt 0.226532 0.698060
vt 0.250390 0.693890
vt 0.242435 0.735635
vt 0.358369 0.693224
vt 0.373450 0.653320
vt 0.382156 0.673507
vt 0.302545 0.737242
vt 0.292918 0.693290
vt 0.319157 0.693218
vt 0.437450 0.673507
vt 0.763976 0.120079
vt 0.704723 0.137507
vt 0.725646 0.118228
vt 0.472071 0.850114
vt 0.406878 0.867418
vt 0.406878 0.834484
vt 0.468667 0.814258
vt 0.510981 0.465306
vt 0.510916 0.308361
vt 0.406878 0.798655
vt 0.360578 0.817596
vt 0.303660 0.890475
vt 0.248590 0.810616
vt 0.915634 0.396356
vt 0.923636 0.327557
vt 0.453995 0.920728
vt 0.577477 0.938463
vt 0.561247 0.947268
vt 0.453995 0.937076
vt 0.302246 0.609282
vt 0.159340 0.581419
vt 0.387980 0.480688
vt 0.680367 0.156795
vt 0.227920 0.661394
vt 0.291028 0.648950
vt 0.319005 0.650397
vt 0.349120 0.655634
vt 0.352931 0.630085
vt 0.261788 0.656479
vt 0.252650 0.636203
vt 0.697288 0.082209
vt 0.714612 0.088559
vt 0.745534 0.533494
vt 0.660195 0.551189
vt 0.287291 0.621936
vt 0.321369 0.620185
vt 0.476089 0.789758
vt 0.474162 0.749445
vt 0.524443 0.721874
vt 0.521704 0.762681
vt 0.602517 0.699896
vt 0.624049 0.763236
vt 0.714470 0.774109
vt 0.729913 0.719798
vt 0.773010 0.725616
vt 0.769147 0.774478
vt 0.545304 0.642502
vt 0.560150 0.614825
vt 0.585287 0.630673
vt 0.581041 0.651576
vt 0.657237 0.631834
vt 0.609733 0.582812
vt 0.741911 0.544913
vt 0.765439 0.636975
vt 0.837584 0.528039
vt 0.862293 0.635485
vt 0.958117 0.856822
vt 0.873576 0.841455
vt 0.874900 0.767044
vt 0.972985 0.766252
vt 0.696960 0.838330
vt 0.605215 0.815356
vt 0.796154 0.846937
vt 0.772312 0.816926
vt 0.799154 0.810510
vt 0.829166 0.824514
vt 0.824544 0.795710
vt 0.780258 0.794057
vt 0.650143 0.993362
vt 0.699047 0.957046
vt 0.648777 0.951007
vt 0.598249 0.955948
vt 0.617286 0.906498
vt 0.679507 0.907101
vt 0.859297 0.767943
vt 0.935708 0.517817
vt 0.952274 0.602580
vt 0.856625 0.706985
vt 0.944400 0.666527
vt 0.521181 0.090065
vt 0.520798 0.014679
vt 0.627188 0.015237
vt 0.626703 0.087916
vt 0.929201 0.230865
vt 0.984890 0.234542
vt 0.975300 0.336594
vt 0.754180 0.867108
vt 0.846285 0.902861
vt 0.828926 0.959491
vt 0.766851 0.929815
vt 0.781901 0.887618
vt 0.660936 0.716631
vt 0.527763 0.793971
vt 0.017720 0.939023
vt 0.040019 0.923615
vt 0.071080 0.963170
vt 0.071779 0.992558
vt 0.170769 0.876055
vt 0.125418 0.933931
vt 0.130526 0.875318
vt 0.098573 0.923493
vt 0.215474 0.939103
vt 0.171326 0.982092
vt 0.219119 0.876402
vt 0.063668 0.405062
vt 0.058567 0.335776
vt 0.934068 0.873126
vt 0.920323 0.911686
vt 0.837759 0.502162
vt 0.091319 0.490222
vt 0.078995 0.553615
vt 0.210229 0.059384
vt 0.121949 0.163924
vt 0.073255 0.101878
vt 0.150188 0.013634
vt 0.390060 0.605539
vt 0.501016 0.820125
vt 0.919703 0.126806
vt 0.951188 0.990352
vt 0.808527 0.088110
vt 0.768685 0.092661
vt 0.788638 0.041443
vt 0.951398 0.097777
vt 0.910397 0.077828
vt 0.937934 0.049031
vt 0.863754 0.072980
vt 0.833756 0.073216
vt 0.788638 0.041443
vt 0.846642 0.016626
vt 0.978729 0.096568
vt 0.744047 0.075480
vt 0.052341 0.269753
vt 0.560815 0.961688
vt 0.453995 0.965880
vt 0.577869 0.954632
vt 0.561031 0.954478
vt 0.453995 0.980958
vt 0.252381 0.986464
vt 0.252381 0.969237
vt 0.252381 0.923789
vt 0.716922 0.904420
vt 0.669832 0.887362
vt 0.515493 0.205548
vt 0.518563 0.585477
vt 0.584547 0.854200
vt 0.833756 0.073216
vt 0.767366 0.685445
vt 0.656172 0.674773
vt 0.863754 0.072980
vt 0.884208 0.016707
vt 0.884208 0.016707
vt 0.369339 0.068302
vt 0.418261 0.089687
vt 0.380544 0.016685
vt 0.420622 0.015237
vt 0.041389 0.219160
vt 0.015020 0.167929
vt 0.960459 0.917658
vt 0.826933 0.723510
vt 0.961029 0.390129
vt 0.699348 0.015237
vt 0.986728 0.126581
vt 0.167924 0.738011
vt 0.121849 0.744678
vt 0.119863 0.678105
vt 0.168549 0.692916
vt 0.212303 0.680517
vt 0.222574 0.745377
vt 0.074454 0.685362
vt 0.074275 0.724692
vt 0.019984 0.744726
vt 0.028978 0.680207
vt 0.166779 0.669984
vt 0.013354 0.638570
vt 0.039569 0.640297
vt 0.109321 0.639747
vt 0.124049 0.605092
vt 0.140785 0.635749
vt 0.069074 0.665528
vt 0.083773 0.665294
vt 0.195193 0.641029
vt 0.025721 0.603549
vt 0.090022 0.642334
vt 0.065308 0.642043
vt 0.064341 0.609494
vt 0.091109 0.609735
vt 0.108205 0.610700
vt 0.114455 0.591893
vt 0.048302 0.611582
vt 0.041567 0.590392
vt 0.061707 0.581677
vt 0.094153 0.579947
vt 0.167300 0.783105
vt 0.172383 0.831599
vt 0.123835 0.811251
vt 0.232845 0.810236
vt 0.341220 0.089881
vt 0.289998 0.089881
vt 0.345549 0.057966
vt 0.231556 0.059663
vt 0.233669 0.097779
vt 0.908003 0.478430
vt 0.897890 0.437201
vt 0.437450 0.673507
vt 0.382156 0.673507
vt 0.373450 0.653320
vt 0.441801 0.653254
vt 0.105328 0.867851
vt 0.035099 0.866992
vt 0.009841 0.877086
vt 0.089200 0.446013
vt 0.831056 0.138243
vt 0.475474 0.885969
vt 0.406878 0.900352
vt 0.578205 0.970644
vt 0.252381 0.899557
vt 0.074138 0.754759
vt 0.073823 0.824156
vt 0.010991 0.809245
vt 0.726665 0.086367
vt 0.619109 0.306366
vt 0.642630 0.302895
vt 0.655158 0.205176
vt 0.629526 0.192143
vt 0.865667 0.226385
vt 0.844982 0.171674
vt 0.765708 0.143577
vt 0.762202 0.220788
vt 0.756348 0.314646
vt 0.724822 0.435242
vt 0.822163 0.423683
vt 0.861915 0.309611
vt 0.386095 0.183326
vt 0.292408 0.195091
vt 0.389807 0.313736
vt 0.150186 0.199905
vt 0.164608 0.335282
vt 0.406878 0.703314
vt 0.361142 0.738374
vt 0.406878 0.740665
vt 0.640052 0.447280
vt 0.167047 0.472299
vt 0.304267 0.492402
vt 0.303352 0.370702
vt 0.448302 0.737724
vt 0.226532 0.698060
vt 0.242435 0.735635
vt 0.250390 0.693890
vt 0.358369 0.693224
vt 0.382156 0.673507
vt 0.373450 0.653320
vt 0.302545 0.737242
vt 0.292918 0.693290
vt 0.319157 0.693218
vt 0.437450 0.673507
vt 0.763976 0.120079
vt 0.725646 0.118228
vt 0.704723 0.137507
vt 0.472071 0.850114
vt 0.468667 0.814258
vt 0.406878 0.834484
vt 0.406878 0.867418
vt 0.510981 0.465306
vt 0.510916 0.308361
vt 0.360578 0.817596
vt 0.406878 0.798655
vt 0.303660 0.890475
vt 0.248590 0.810616
vt 0.915634 0.396356
vt 0.923636 0.327557
vt 0.453995 0.937076
vt 0.561247 0.947268
vt 0.387980 0.480688
vt 0.680367 0.156795
vt 0.227920 0.661394
vt 0.319005 0.650397
vt 0.291028 0.648950
vt 0.352931 0.630085
vt 0.349120 0.655634
vt 0.261788 0.656479
vt 0.252650 0.636203
vt 0.697288 0.082209
vt 0.714612 0.088559
vt 0.321369 0.620185
vt 0.287291 0.621936
vt 0.521704 0.762681
vt 0.524443 0.721874
vt 0.624049 0.763236
vt 0.602517 0.699896
vt 0.714470 0.774109
vt 0.769147 0.774478
vt 0.773010 0.725616
vt 0.729913 0.719798
vt 0.581041 0.651576
vt 0.585287 0.630673
vt 0.657237 0.631834
vt 0.765439 0.636975
vt 0.862293 0.635485
vt 0.958117 0.856822
vt 0.972985 0.766252
vt 0.874900 0.767044
vt 0.873576 0.841455
vt 0.696960 0.838330
vt 0.605215 0.815356
vt 0.796154 0.846937
vt 0.799154 0.810510
vt 0.772312 0.816926
vt 0.829166 0.824514
vt 0.824544 0.795710
vt 0.780258 0.794057
vt 0.650143 0.993362
vt 0.648777 0.951007
vt 0.699047 0.957046
vt 0.598249 0.955948
vt 0.617286 0.906498
vt 0.679507 0.907101
vt 0.859297 0.767943
vt 0.952274 0.602580
vt 0.944400 0.666527
vt 0.856625 0.706985
vt 0.521181 0.090065
vt 0.626703 0.087916
vt 0.929201 0.230865
vt 0.754180 0.867108
vt 0.846285 0.902861
vt 0.781901 0.887618
vt 0.660936 0.716631
vt 0.527763 0.793971
vt 0.017720 0.939023
vt 0.071779 0.992558
vt 0.071080 0.963170
vt 0.040019 0.923615
vt 0.170769 0.876055
vt 0.130526 0.875318
vt 0.125418 0.933931
vt 0.098573 0.923493
vt 0.215474 0.939103
vt 0.171326 0.982092
vt 0.219119 0.876402
vt 0.058567 0.335776
vt 0.063668 0.405062
vt 0.920323 0.911686
vt 0.934068 0.873126
vt 0.091319 0.490222
vt 0.210229 0.059384
vt 0.121949 0.163924
vt 0.919703 0.126806
vt 0.808527 0.088110
vt 0.768685 0.092661
vt 0.951398 0.097777
vt 0.910397 0.077828
vt 0.863754 0.072980
vt 0.833756 0.073216
vt 0.052341 0.269753
vt 0.453995 0.965880
vt 0.560815 0.961688
vt 0.561031 0.954478
vt 0.252381 0.969237
vt 0.252381 0.923789
vt 0.515493 0.205548
vt 0.833756 0.073216
vt 0.656172 0.674773
vt 0.767366 0.685445
vt 0.863754 0.072980
vt 0.418261 0.089687
vt 0.369339 0.068302
vt 0.041389 0.219160
vt 0.960459 0.917658
vt 0.826933 0.723510
vt 0.167924 0.738011
vt 0.168549 0.692916
vt 0.119863 0.678105
vt 0.121849 0.744678
vt 0.212303 0.680517
vt 0.222574 0.745377
vt 0.074454 0.685362
vt 0.028978 0.680207
vt 0.019984 0.744726
vt 0.074275 0.724692
vt 0.166779 0.669984
vt 0.013354 0.638570
vt 0.039569 0.640297
vt 0.109321 0.639747
vt 0.140785 0.635749
vt 0.124049 0.605092
vt 0.069074 0.665528
vt 0.083773 0.665294
vt 0.195193 0.641029
vt 0.025721 0.603549
vt 0.090022 0.642334
vt 0.091109 0.609735
vt 0.064341 0.609494
vt 0.065308 0.642043
vt 0.114455 0.591893
vt 0.108205 0.610700
vt 0.048302 0.611582
vt 0.041567 0.590392
vt 0.094153 0.579947
vt 0.061707 0.581677
vt 0.167300 0.783105
vt 0.123835 0.811251
vt 0.172383 0.831599
vt 0.232845 0.810236
vt 0.341220 0.089881
vt 0.289998 0.089881
vt 0.345549 0.057966
vt 0.233669 0.097779
vt 0.231556 0.059663
vt 0.897890 0.437201
vt 0.437450 0.673507
vt 0.441801 0.653254
vt 0.373450 0.653320
vt 0.382156 0.673507
vt 0.105328 0.867851
vt 0.035099 0.866992
vt 0.009841 0.877086
vt 0.089200 0.446013
vt 0.831056 0.138243
vt 0.475474 0.885969
vt 0.406878 0.900352
vt 0.074138 0.754759
vt 0.010991 0.809245
vt 0.073823 0.824156
vt 0.726665 0.086367
vt 0.083487 0.751809
vt 0.083441 0.712440
vt 0.131192 0.673512
vt 0.191436 0.681234
vt 0.191269 0.819983
vt 0.130913 0.800707
vt 0.090816 0.701488
vt 0.116933 0.668095
vt 0.162820 0.667962
vt 0.187481 0.703383
vt 0.195783 0.744330
vt 0.177995 0.796539
vt 0.100616 0.796540
vt 0.082513 0.743886
vt 0.194412 0.800758
vt 0.134168 0.808480
vt 0.086417 0.769551
vt 0.086463 0.730183
vt 0.133890 0.681285
vt 0.194246 0.662009
vt 0.104022 0.794103
vt 0.086234 0.741893
vt 0.094535 0.700947
vt 0.119196 0.665525
vt 0.165083 0.665658
vt 0.191201 0.699052
vt 0.199503 0.741449
vt 0.181401 0.794103
vn 0.94141 0.10971 -0.31892
vn 0.69917 -0.48477 -0.52550
vn 0.76389 -0.12169 -0.63376
vn 0.91290 0.23280 -0.33530
vn 0.50043 -0.34265 0.79508
vn 0.99394 0.04452 0.10046
vn 0.98164 -0.19062 0.00661
vn 0.07095 -0.18770 0.97966
vn 0.91688 0.36945 0.15113
vn 0.67140 0.71691 0.18779
vn 0.55961 0.58036 0.59163
vn 0.66815 0.22064 0.71055
vn 0.86892 -0.39353 0.30018
vn 0.96544 0.15499 0.20953
vn 0.99903 -0.01329 0.04197
vn 0.96128 0.17252 -0.21489
vn 0.71138 -0.40348 -0.57545
vn -0.00022 -0.21507 0.97660
vn 0.01620 -0.04283 0.99895
vn 0.96602 0.07827 0.24631
vn 0.71558 0.69848 0.00768
vn 0.75167 0.63817 -0.16654
vn 0.93802 0.32827 -0.11118
vn 0.64747 0.75261 -0.11985
vn -0.95240 0.03943 0.30230
vn -0.71725 -0.29801 0.62987
vn -0.94725 0.30540 -0.09719
vn -0.95240 0.03943 0.30230
vn 0.86643 0.45720 -0.20067
vn 0.89958 0.43671 -0.00663
vn 0.76670 -0.12894 0.62892
vn 0.01338 0.44088 -0.89747
vn -0.50114 0.63867 -0.58392
vn 0.34994 0.65432 -0.67038
vn -0.71725 -0.29801 0.62987
vn 0.97908 -0.15874 0.12729
vn 0.26326 -0.46363 -0.84602
vn -0.26235 -0.27868 -0.92386
vn -0.97862 -0.20021 -0.04704
vn 0.07095 -0.18770 0.97966
vn -0.21024 -0.08771 0.97371
vn -0.98278 -0.11633 0.14355
vn 0.77470 0.61271 0.15628
vn 0.99391 0.07523 0.08057
vn 0.01760 -0.22487 0.97423
vn 0.97908 -0.15874 0.12729
vn -0.26235 -0.27868 -0.92386
vn -0.98278 -0.11633 0.14355
vn 0.63435 0.11057 0.76510
vn 0.23048 -0.07615 0.97009
vn 0.00000 -0.99708 0.07637
vn 0.00000 -0.87809 0.47850
vn 0.93326 -0.32077 0.16167
vn 0.82120 -0.56075 0.10577
vn 0.00000 0.99854 -0.05408
vn 0.00000 0.98241 -0.18676
vn 0.68614 0.72183 0.09044
vn -0.08429 -0.44758 -0.89026
vn -0.94590 -0.03356 0.32271
vn -0.43426 0.54418 -0.71784
vn 0.40095 0.50083 -0.76707
vn 0.76698 0.44043 -0.46665
vn 0.77916 0.40110 -0.48170
vn -0.78528 0.47029 -0.40269
vn -0.89142 0.29296 -0.34575
vn -0.15862 -0.95751 0.24088
vn -0.97862 -0.20021 -0.04704
vn -0.00000 0.96472 0.26328
vn 0.00000 0.97342 0.22905
vn -0.27255 0.33863 -0.90058
vn 0.48584 0.35490 -0.79875
vn 0.00000 -0.40421 -0.91466
vn 0.00000 -0.63556 -0.77205
vn 0.75346 -0.35684 -0.55224
vn 0.77910 -0.04695 -0.62513
vn 0.92398 -0.03116 -0.38117
vn 0.90560 0.07070 -0.41820
vn 0.82685 0.23437 -0.51126
vn 0.65153 -0.68846 -0.31863
vn 0.92889 -0.14701 -0.33992
vn 0.79472 0.37738 -0.47541
vn 0.00000 -0.59147 -0.80633
vn 0.00000 -0.95227 -0.30525
vn 0.64343 -0.70801 -0.29107
vn 0.84441 -0.37922 -0.37836
vn 0.69591 -0.71775 -0.02334
vn 0.00000 -0.96629 0.25747
vn 0.00000 -0.98111 0.19346
vn 0.50205 -0.85653 -0.11959
vn 0.00000 -0.99834 0.05767
vn 0.68840 -0.71356 0.13014
vn 0.97668 0.21137 -0.03758
vn 0.90031 0.38176 -0.20904
vn 0.98133 0.13102 0.14077
vn 0.98960 0.02150 -0.14222
vn 0.64288 0.46565 -0.60817
vn 0.58125 0.55299 -0.59695
vn 0.87780 0.18943 -0.43999
vn 0.90623 0.15800 -0.39214
vn 0.90891 0.09679 -0.40561
vn 0.83371 0.16774 -0.52612
vn 0.76442 0.31257 -0.56388
vn 0.77974 0.45080 -0.43448
vn 0.87957 0.23025 -0.41635
vn 0.86154 0.13161 -0.49034
vn 0.91350 0.13745 -0.38292
vn 0.93496 0.19140 -0.29870
vn 0.95152 0.07862 -0.29737
vn 0.91446 0.05181 -0.40135
vn 0.96522 0.24939 -0.07852
vn 0.00000 -0.99675 0.08060
vn 0.48871 -0.85376 -0.17959
vn 0.96914 -0.22597 0.09853
vn 0.91334 -0.40131 -0.06898
vn 0.51563 -0.85609 0.03526
vn 0.00000 -0.99994 0.01079
vn 0.00000 -0.99626 0.08645
vn 0.63350 -0.76691 0.10260
vn 0.27460 -0.64221 0.71565
vn 0.00000 -0.66060 0.75074
vn 0.00000 -0.06806 0.99768
vn 0.43268 0.52005 -0.73644
vn 0.49950 0.73812 -0.45352
vn 0.00000 0.83377 -0.55211
vn -0.00000 0.75770 -0.65260
vn 0.35448 0.67311 -0.64904
vn 0.85440 -0.51927 -0.01909
vn 0.69579 0.39152 -0.60215
vn -0.29770 0.95186 -0.07312
vn -0.07115 0.45673 -0.88676
vn 0.42989 0.38169 -0.81823
vn 0.60566 0.68001 0.41324
vn 0.30410 0.39417 0.86727
vn 0.94412 -0.28304 -0.16887
vn 0.97668 0.21137 -0.03758
vn 0.52164 0.02185 -0.85289
vn -0.29770 0.95186 -0.07312
vn 0.60566 0.68001 0.41324
vn 0.09516 0.97056 -0.22127
vn 0.97668 0.21137 -0.03758
vn 0.98960 0.02150 -0.14222
vn 0.66387 0.22066 -0.71455
vn 0.18213 0.79845 -0.57385
vn -0.00000 0.87990 0.47515
vn 0.09516 0.97056 -0.22127
vn 0.00000 0.92884 -0.37049
vn 0.08621 -0.99507 -0.04904
vn 0.48533 -0.79450 -0.36500
vn -0.00000 -0.89798 -0.44003
vn -0.00000 -0.98317 -0.18271
vn -0.00000 0.99777 0.06670
vn -0.00000 0.40633 -0.91372
vn -0.15862 -0.95751 0.24088
vn 0.00000 0.92884 -0.37049
vn -0.55968 -0.61807 0.55204
vn -0.55971 -0.66939 0.48851
vn 0.00000 -0.76486 0.64420
vn -0.27339 0.92880 -0.25019
vn -0.41485 0.82673 -0.38002
vn -0.00000 0.89895 -0.43805
vn 0.65153 -0.68846 -0.31863
vn 0.85440 -0.51927 -0.01909
vn 0.00000 -0.75523 0.65547
vn 0.00000 -0.99057 -0.13699
vn 0.00000 0.97670 -0.21462
vn 0.00000 -0.80053 0.59930
vn 0.91334 -0.40131 -0.06898
vn 0.73627 0.66948 0.09850
vn 0.78734 0.60840 0.09972
vn -0.00000 0.02126 0.99977
vn 0.83591 0.11817 0.53599
vn 0.00000 0.99609 0.08834
vn -0.00000 0.87681 0.48083
vn 0.68782 0.54137 0.48356
vn 0.63435 0.11057 0.76510
vn 0.00000 0.70303 -0.71116
vn 0.00000 0.74897 -0.66261
vn 0.92235 -0.37710 0.08410
vn 0.00000 0.98529 0.17087
vn 0.00000 0.73270 -0.68055
vn -0.54338 -0.56185 0.62374
vn 0.87494 -0.44748 -0.18506
vn 0.83610 -0.50111 -0.22324
vn -0.38524 0.73405 -0.55925
vn 0.00000 0.73313 -0.68009
vn 0.00000 -0.66925 -0.74304
vn 0.08621 -0.99507 -0.04904
vn 0.50897 -0.86048 -0.02299
vn -0.00000 -0.98317 -0.18271
vn 0.00000 -0.99993 -0.01185
vn 0.48871 -0.85376 -0.17959
vn 0.00000 -0.99675 0.08060
vn 0.09516 0.97056 -0.22127
vn 0.94276 -0.32173 0.08769
vn 0.00000 -0.82863 0.55980
vn 0.00000 -0.95834 0.28563
vn 0.00000 -0.95834 0.28563
vn 0.02526 -0.19842 0.97979
vn 0.99063 -0.10151 -0.09133
vn 0.98480 0.15051 0.08666
vn 0.01032 -0.21931 0.97560
vn -0.98744 0.13367 0.08420
vn -0.98524 -0.13195 -0.10905
vn 0.02257 0.07046 -0.99726
vn 0.03520 -0.07487 -0.99657
vn -0.98524 -0.13195 -0.10905
vn -0.98744 0.13367 0.08420
vn 0.00829 -0.19364 0.98104
vn -0.75593 -0.07832 0.64996
vn -0.92582 0.34058 -0.16387
vn 0.87267 0.44673 -0.19717
vn 0.98709 0.15765 -0.02826
vn 0.75783 -0.06838 0.64886
vn -0.30468 0.44642 -0.84136
vn 0.40924 0.38689 -0.82634
vn -0.75593 -0.07832 0.64996
vn -0.98221 0.17637 0.06446
vn 0.26891 0.71906 -0.64082
vn -0.43904 0.69372 -0.57096
vn -0.39933 0.65387 -0.64265
vn 0.32103 0.64672 -0.69188
vn 0.83687 0.32718 -0.43886
vn 0.89496 0.17776 -0.40920
vn -0.74008 0.53362 -0.40931
vn -0.86460 0.30368 -0.40030
vn -0.27937 0.45768 -0.84408
vn 0.52213 0.35918 -0.77355
vn 0.04798 -0.19560 0.97951
vn 0.13387 -0.19045 0.97253
vn 0.98728 -0.11573 -0.10901
vn -0.97596 -0.19751 -0.09219
vn 0.13387 -0.19045 0.97253
vn 0.98728 -0.11573 -0.10901
vn -0.97596 -0.19751 -0.09219
vn -0.97596 -0.19751 -0.09219
vn 0.05066 -0.19087 -0.98031
vn -0.00000 0.87681 0.48083
vn 0.68782 0.54137 0.48356
vn -0.00263 -0.79148 0.61119
vn -0.00600 -0.79745 0.60336
vn -0.00263 -0.79148 0.61119
vn 0.00074 -0.78543 0.61896
vn 0.66387 0.22066 -0.71455
vn 0.18213 0.79845 -0.57385
vn 0.09516 0.97056 -0.22127
vn 0.30410 0.39417 0.86727
vn -0.21024 -0.08771 0.97371
vn -0.15862 -0.95751 0.24088
vn 0.50043 -0.34265 0.79508
vn 0.00000 0.91519 0.40302
vn 0.00000 -0.82863 0.55980
vn 0.03886 -0.08751 -0.99541
vn 0.05066 -0.19087 -0.98031
vn -0.97596 -0.19751 -0.09219
vn -0.98278 -0.11633 0.14355
vn -0.94141 0.10971 -0.31892
vn -0.91290 0.23280 -0.33530
vn -0.76389 -0.12169 -0.63376
vn -0.69917 -0.48477 -0.52551
vn -0.50043 -0.34265 0.79508
vn -0.07095 -0.18770 0.97966
vn -0.98164 -0.19062 0.00661
vn -0.99394 0.04452 0.10046
vn -0.91688 0.36945 0.15113
vn -0.67140 0.71691 0.18779
vn -0.55961 0.58036 0.59163
vn -0.66815 0.22064 0.71055
vn -0.86892 -0.39353 0.30018
vn -0.99903 -0.01329 0.04197
vn -0.96544 0.15499 0.20953
vn -0.71138 -0.40348 -0.57545
vn -0.96128 0.17252 -0.21489
vn 0.00022 -0.21506 0.97660
vn -0.96602 0.07827 0.24631
vn -0.01620 -0.04283 0.99895
vn -0.71558 0.69848 0.00768
vn -0.75167 0.63817 -0.16654
vn -0.64747 0.75261 -0.11985
vn -0.93802 0.32827 -0.11118
vn 0.95240 0.03943 0.30230
vn 0.71725 -0.29801 0.62987
vn 0.95240 0.03943 0.30230
vn 0.94725 0.30540 -0.09719
vn -0.86643 0.45720 -0.20067
vn -0.76670 -0.12894 0.62892
vn -0.89958 0.43671 -0.00663
vn -0.01338 0.44088 -0.89747
vn 0.50114 0.63867 -0.58392
vn -0.34994 0.65432 -0.67038
vn 0.71725 -0.29801 0.62987
vn -0.97908 -0.15874 0.12729
vn 0.26235 -0.27868 -0.92386
vn -0.26326 -0.46363 -0.84602
vn 0.97862 -0.20021 -0.04704
vn 0.98278 -0.11633 0.14355
vn 0.21024 -0.08771 0.97371
vn -0.07095 -0.18770 0.97966
vn -0.77470 0.61271 0.15628
vn -0.99391 0.07523 0.08057
vn -0.97908 -0.15874 0.12729
vn -0.01760 -0.22487 0.97423
vn 0.26235 -0.27868 -0.92386
vn 0.98278 -0.11633 0.14355
vn -0.63435 0.11057 0.76510
vn -0.23048 -0.07615 0.97009
vn -0.82120 -0.56075 0.10577
vn -0.93326 -0.32077 0.16167
vn -0.68614 0.72183 0.09044
vn 0.08429 -0.44758 -0.89026
vn 0.94590 -0.03356 0.32271
vn -0.40095 0.50083 -0.76707
vn 0.43426 0.54418 -0.71784
vn -0.77916 0.40110 -0.48170
vn -0.76698 0.44043 -0.46665
vn 0.78528 0.47029 -0.40269
vn 0.89142 0.29296 -0.34575
vn 0.15862 -0.95751 0.24088
vn 0.97862 -0.20021 -0.04704
vn -0.48584 0.35490 -0.79875
vn 0.27255 0.33863 -0.90058
vn -0.77910 -0.04695 -0.62513
vn -0.75346 -0.35684 -0.55224
vn -0.90560 0.07070 -0.41820
vn -0.92398 -0.03116 -0.38117
vn -0.82685 0.23437 -0.51126
vn -0.79472 0.37738 -0.47541
vn -0.92889 -0.14701 -0.33992
vn -0.65153 -0.68846 -0.31863
vn -0.84441 -0.37922 -0.37836
vn -0.64343 -0.70801 -0.29107
vn -0.69591 -0.71775 -0.02334
vn -0.50205 -0.85653 -0.11959
vn -0.68840 -0.71356 0.13014
vn -0.97668 0.21137 -0.03758
vn -0.98960 0.02150 -0.14222
vn -0.98133 0.13102 0.14077
vn -0.90031 0.38176 -0.20904
vn -0.64288 0.46565 -0.60817
vn -0.58125 0.55299 -0.59695
vn -0.87780 0.18943 -0.43999
vn -0.90891 0.09679 -0.40561
vn -0.90623 0.15800 -0.39214
vn -0.83371 0.16774 -0.52612
vn -0.76442 0.31257 -0.56388
vn -0.77974 0.45080 -0.43448
vn -0.87957 0.23025 -0.41635
vn -0.91350 0.13745 -0.38292
vn -0.86154 0.13161 -0.49034
vn -0.93496 0.19140 -0.29870
vn -0.95152 0.07862 -0.29737
vn -0.91446 0.05181 -0.40135
vn -0.96522 0.24939 -0.07852
vn -0.48871 -0.85376 -0.17959
vn -0.91334 -0.40131 -0.06898
vn -0.96914 -0.22597 0.09853
vn -0.51563 -0.85609 0.03526
vn -0.63350 -0.76691 0.10260
vn -0.27460 -0.64221 0.71565
vn -0.43268 0.52005 -0.73644
vn -0.49950 0.73812 -0.45352
vn -0.35448 0.67311 -0.64904
vn -0.85440 -0.51927 -0.01909
vn -0.69579 0.39152 -0.60215
vn 0.29770 0.95186 -0.07312
vn -0.60566 0.68001 0.41324
vn -0.42989 0.38169 -0.81823
vn 0.07115 0.45673 -0.88676
vn -0.30410 0.39417 0.86727
vn -0.97668 0.21137 -0.03758
vn -0.94412 -0.28304 -0.16887
vn -0.52164 0.02185 -0.85289
vn 0.29770 0.95186 -0.07312
vn -0.60566 0.68001 0.41324
vn -0.09516 0.97056 -0.22127
vn -0.98960 0.02150 -0.14222
vn -0.97668 0.21137 -0.03758
vn -0.18213 0.79845 -0.57385
vn -0.66387 0.22066 -0.71455
vn -0.09516 0.97056 -0.22127
vn -0.08621 -0.99507 -0.04904
vn -0.48533 -0.79450 -0.36500
vn 0.15862 -0.95751 0.24088
vn 0.55968 -0.61807 0.55204
vn 0.55971 -0.66939 0.48851
vn 0.27339 0.92880 -0.25019
vn 0.41485 0.82673 -0.38002
vn -0.65153 -0.68846 -0.31863
vn -0.85440 -0.51927 -0.01909
vn -0.91334 -0.40131 -0.06898
vn -0.78734 0.60840 0.09972
vn -0.73627 0.66948 0.09850
vn -0.83591 0.11817 0.53599
vn -0.68782 0.54137 0.48356
vn -0.63435 0.11057 0.76510
vn -0.92235 -0.37710 0.08410
vn 0.54338 -0.56185 0.62374
vn -0.83610 -0.50111 -0.22324
vn -0.87494 -0.44748 -0.18506
vn 0.38524 0.73405 -0.55925
vn -0.50897 -0.86048 -0.02299
vn -0.08621 -0.99507 -0.04904
vn -0.48871 -0.85376 -0.17959
vn -0.09516 0.97056 -0.22127
vn -0.94276 -0.32173 0.08769
vn -0.02526 -0.19842 0.97979
vn -0.01032 -0.21931 0.97560
vn -0.98480 0.15051 0.08666
vn -0.99063 -0.10151 -0.09133
vn 0.98744 0.13367 0.08420
vn 0.98524 -0.13195 -0.10905
vn -0.02257 0.07046 -0.99726
vn 0.98744 0.13367 0.08420
vn 0.98524 -0.13195 -0.10905
vn -0.03520 -0.07487 -0.99657
vn -0.00829 -0.19364 0.98104
vn 0.75593 -0.07832 0.64996
vn 0.92582 0.34058 -0.16387
vn -0.87267 0.44673 -0.19717
vn -0.75783 -0.06838 0.64886
vn -0.98709 0.15765 -0.02826
vn 0.30468 0.44642 -0.84136
vn -0.40924 0.38689 -0.82634
vn 0.75593 -0.07832 0.64996
vn 0.98221 0.17637 0.06446
vn -0.26891 0.71906 -0.64082
vn -0.32103 0.64672 -0.69188
vn 0.39933 0.65387 -0.64265
vn 0.43904 0.69372 -0.57096
vn -0.89496 0.17776 -0.40920
vn -0.83687 0.32718 -0.43886
vn 0.74008 0.53362 -0.40931
vn 0.86460 0.30368 -0.40030
vn -0.52213 0.35918 -0.77355
vn 0.27937 0.45768 -0.84408
vn -0.04798 -0.19560 0.97951
vn -0.98728 -0.11573 -0.10901
vn -0.13387 -0.19045 0.97253
vn 0.97596 -0.19751 -0.09219
vn -0.13387 -0.19045 0.97253
vn -0.98728 -0.11573 -0.10901
vn 0.97596 -0.19751 -0.09219
vn -0.05066 -0.19087 -0.98031
vn 0.97596 -0.19751 -0.09219
vn -0.68782 0.54137 0.48356
vn 0.00263 -0.79148 0.61119
vn -0.00074 -0.78543 0.61896
vn 0.00263 -0.79148 0.61119
vn 0.00600 -0.79745 0.60336
vn -0.66387 0.22066 -0.71455
vn -0.18213 0.79845 -0.57385
vn -0.09516 0.97056 -0.22127
vn -0.30410 0.39417 0.86727
vn 0.21024 -0.08771 0.97371
vn 0.15862 -0.95751 0.24088
vn -0.50043 -0.34265 0.79508
vn -0.03886 -0.08751 -0.99541
vn 0.97596 -0.19751 -0.09219
vn -0.05066 -0.19087 -0.98031
vn 0.98278 -0.11633 0.14355
vn 0.00000 -1.00000 -0.00000
vn 0.00000 -1.00000 0.00000
vn -0.00000 -1.00000 -0.00000
vn -0.00000 -1.00000 -0.00000
vn 0.00000 -1.00000 -0.00000
vn 0.00000 -1.00000 -0.00000
vn 0.00001 -1.00000 0.00067
vn 0.00000 -1.00000 0.00067
vn -0.00000 -1.00000 0.00067
vn -0.00000 -1.00000 0.00067
vn -0.00000 -1.00000 0.00066
vn -0.00000 -1.00000 0.00064
vn 0.00002 -1.00000 0.00065
vn 0.00006 -1.00000 0.00066
vn 0.00000 -1.00000 -0.00000
vn 0.00000 -1.00000 -0.00000
vn 0.00000 -1.00000 -0.00000
vn 0.00000 -1.00000 0.00000
vn -0.00000 -1.00000 -0.00000
vn 0.00000 -1.00000 -0.00000
vn 0.00002 -1.00000 0.00065
vn 0.00006 -1.00000 0.00066
vn 0.00001 -1.00000 0.00067
vn -0.00000 -1.00000 0.00068
vn -0.00000 -1.00000 0.00067
vn -0.00000 -1.00000 0.00067
vn -0.00000 -1.00000 0.00066
vn 0.00000 -1.00000 0.00064
f 60/60/60 64/64/64 65/65/65
f 65/65/65 70/70/70 60/60/60
f 61/61/61 60/60/60 70/70/70
f 60/60/60 61/61/61 34/34/34
f 70/70/70 71/71/71 61/61/61
f 62/62/62 61/61/61 71/71/71
f 61/61/61 62/62/62 29/29/29
f 29/29/29 34/34/34 61/61/61
f 71/71/71 63/63/63 62/62/62
f 62/62/62 63/63/63 30/30/30
f 30/30/30 29/29/29 62/62/62
f 311/311/311 289/289/289 284/284/284
f 289/289/289 311/311/311 312/312/312
f 316/316/316 315/315/315 312/312/312
f 312/312/312 320/320/320 316/316/316
f 320/320/320 312/312/312 311/311/311
f 311/311/311 319/319/319 320/320/320
f 319/319/319 311/311/311 314/314/314
f 284/284/284 314/314/314 311/311/311
f 314/314/314 313/313/313 319/319/319
f 314/314/314 284/284/284 286/286/286
f 286/286/286 313/313/313 314/314/314
f 181/181/181 155/155/155 157/157/157
f 155/155/155 156/156/156 157/157/157
f 396/396/396 157/157/157 383/383/383
f 157/157/157 166/166/166 384/384/384
f 383/383/383 157/157/157 384/384/384
f 157/157/157 156/156/156 166/166/166
f 137/137/137 138/138/138 133/133/133
f 139/139/139 137/137/137 133/133/133
f 372/372/372 368/368/368 373/373/373
f 374/374/374 368/368/368 372/372/372
f 45/45/45 41/41/41 46/46/46
f 46/46/46 47/47/47 32/32/32
f 42/42/42 41/41/41 45/45/45
f 41/41/41 42/42/42 39/39/39
f 39/39/39 40/40/40 41/41/41
f 40/40/40 39/39/39 248/248/248
f 248/248/248 249/249/249 40/40/40
f 32/32/32 47/47/47 48/48/48
f 48/48/48 28/28/28 32/32/32
f 32/32/32 34/34/34 29/29/29
f 32/32/32 33/33/33 34/34/34
f 27/27/27 33/33/33 32/32/32
f 32/32/32 28/28/28 27/27/27
f 26/26/26 27/27/27 28/28/28
f 65/65/65 64/64/64 27/27/27
f 27/27/27 59/59/59 65/65/65
f 33/33/33 27/27/27 64/64/64
f 27/27/27 26/26/26 59/59/59
f 64/64/64 60/60/60 33/33/33
f 34/34/34 33/33/33 60/60/60
f 301/301/301 300/300/300 296/296/296
f 287/287/287 302/302/302 300/300/300
f 295/295/295 301/301/301 296/296/296
f 294/294/294 295/295/295 296/296/296
f 296/296/296 297/297/297 294/294/294
f 454/454/454 294/294/294 297/297/297
f 297/297/297 455/455/455 454/454/454
f 303/303/303 302/302/302 287/287/287
f 287/287/287 282/282/282 303/303/303
f 284/284/284 289/289/289 287/287/287
f 287/287/287 289/289/289 288/288/288
f 283/283/283 282/282/282 287/287/287
f 287/287/287 288/288/288 283/283/283
f 281/281/281 282/282/282 283/283/283
f 316/316/316 310/310/310 283/283/283
f 283/283/283 315/315/315 316/316/316
f 315/315/315 283/283/283 288/288/288
f 283/283/283 310/310/310 281/281/281
f 288/288/288 312/312/312 315/315/315
f 312/312/312 288/288/288 289/289/289
f 431/431/431 417/417/417 428/428/428
f 428/428/428 427/427/427 431/431/431
f 427/427/427 428/428/428 425/425/425
f 426/426/426 425/425/425 418/418/418
f 425/425/425 426/426/426 427/427/427
f 432/432/432 431/431/431 427/427/427
f 427/427/427 434/434/434 432/432/432
f 434/434/434 427/427/427 426/426/426
f 417/417/417 431/431/431 432/432/432
f 432/432/432 424/424/424 417/417/417
f 417/417/417 424/424/424 416/416/416
f 426/426/426 433/433/433 434/434/434
f 433/433/433 426/426/426 430/430/430
f 418/418/418 430/430/430 426/426/426
f 211/211/211 218/218/218 221/221/221
f 220/220/220 221/221/221 218/218/218
f 225/225/225 226/226/226 220/220/220
f 220/220/220 224/224/224 225/225/225
f 221/221/221 220/220/220 226/226/226
f 225/225/225 224/224/224 210/210/210
f 210/210/210 217/217/217 225/225/225
f 210/210/210 209/209/209 217/217/217
f 226/226/226 227/227/227 221/221/221
f 222/222/222 221/221/221 227/227/227
f 221/221/221 222/222/222 211/211/211
f 212/212/212 211/211/211 222/222/222
f 213/213/213 200/200/200 211/211/211
f 211/211/211 212/212/212 213/213/213
f 161/161/161 164/164/164 186/186/186
f 163/163/163 164/164/164 161/161/161
f 161/161/161 162/162/162 163/163/163
f 387/387/387 186/186/186 164/164/164
f 387/387/387 164/164/164 163/163/163
f 163/163/163 388/388/388 387/387/387
f 199/199/199 205/205/205 204/204/204
f 230/230/230 253/253/253 252/252/252
f 205/205/205 252/252/252 206/206/206
f 254/254/254 206/206/206 252/252/252
f 252/252/252 253/253/253 254/254/254
f 204/204/204 205/205/205 206/206/206
f 204/204/204 215/215/215 200/200/200
f 204/204/204 214/214/214 215/215/215
f 204/204/204 207/207/207 214/214/214
f 206/206/206 207/207/207 204/204/204
f 200/200/200 215/215/215 218/218/218
f 218/218/218 215/215/215 214/214/214
f 214/214/214 219/219/219 218/218/218
f 219/219/219 214/214/214 207/207/207
f 207/207/207 210/210/210 219/219/219
f 209/209/209 210/210/210 207/207/207
f 224/224/224 220/220/220 219/219/219
f 219/219/219 210/210/210 224/224/224
f 218/218/218 219/219/219 220/220/220
f 218/218/218 211/211/211 200/200/200
f 306/306/306 51/51/51 251/251/251
f 307/307/307 52/52/52 51/51/51
f 51/51/51 306/306/306 307/307/307
f 251/251/251 51/51/51 54/54/54
f 53/53/53 54/54/54 51/51/51
f 51/51/51 52/52/52 53/53/53
f 251/251/251 394/394/394 306/306/306
f 390/390/390 306/306/306 394/394/394
f 307/307/307 306/306/306 390/390/390
f 54/54/54 175/175/175 251/251/251
f 175/175/175 54/54/54 169/169/169
f 169/169/169 54/54/54 53/53/53
f 53/53/53 171/171/171 168/168/168
f 408/408/408 407/407/407 411/411/411
f 456/456/456 458/458/458 436/436/436
f 414/414/414 413/413/413 456/456/456
f 457/457/457 458/458/458 456/456/456
f 456/456/456 413/413/413 457/457/457
f 413/413/413 414/414/414 411/411/411
f 411/411/411 407/407/407 422/422/422
f 411/411/411 422/422/422 421/421/421
f 411/411/411 421/421/421 412/412/412
f 411/411/411 412/412/412 413/413/413
f 407/407/407 418/418/418 425/425/425
f 425/425/425 422/422/422 407/407/407
f 419/419/419 407/407/407 415/415/415
f 419/419/419 418/418/418 407/407/407
f 415/415/415 407/407/407 406/406/406
f 421/421/421 422/422/422 425/425/425
f 425/425/425 428/428/428 421/421/421
f 412/412/412 421/421/421 428/428/428
f 428/428/428 417/417/417 412/412/412
f 416/416/416 412/412/412 417/417/417
f 91/91/91 113/113/113 182/182/182
f 114/114/114 113/113/113 91/91/91
f 113/113/113 114/114/114 95/95/95
f 80/80/80 182/182/182 194/194/194
f 79/79/79 182/182/182 80/80/80
f 182/182/182 79/79/79 183/183/183
f 182/182/182 89/89/89 91/91/91
f 182/182/182 183/183/183 86/86/86
f 86/86/86 89/89/89 182/182/182
f 91/91/91 112/112/112 114/114/114
f 111/111/111 112/112/112 91/91/91
f 91/91/91 90/90/90 111/111/111
f 90/90/90 91/91/91 89/89/89
f 89/89/89 88/88/88 90/90/90
f 88/88/88 89/89/89 86/86/86
f 86/86/86 183/183/183 85/85/85
f 85/85/85 84/84/84 86/86/86
f 87/87/87 86/86/86 84/84/84
f 86/86/86 87/87/87 88/88/88
f 90/90/90 88/88/88 332/332/332
f 88/88/88 87/87/87 331/331/331
f 331/331/331 332/332/332 88/88/88
f 111/111/111 90/90/90 333/333/333
f 332/332/332 333/333/333 90/90/90
f 333/333/333 353/353/353 111/111/111
f 398/398/398 355/355/355 333/333/333
f 333/333/333 332/332/332 398/398/398
f 354/354/354 353/353/353 333/333/333
f 333/333/333 355/355/355 354/354/354
f 398/398/398 332/332/332 331/331/331
f 398/398/398 404/404/404 355/355/355
f 327/327/327 404/404/404 398/398/398
f 328/328/328 327/327/327 398/398/398
f 398/398/398 397/397/397 328/328/328
f 227/227/227 223/223/223 222/222/222
f 222/222/222 223/223/223 212/212/212
f 213/213/213 208/208/208 200/200/200
f 208/208/208 201/201/201 200/200/200
f 208/208/208 213/213/213 216/216/216
f 216/216/216 202/202/202 208/208/208
f 202/202/202 201/201/201 208/208/208
f 228/228/228 198/198/198 203/203/203
f 199/199/199 198/198/198 228/228/228
f 198/198/198 201/201/201 202/202/202
f 202/202/202 203/203/203 198/198/198
f 200/200/200 201/201/201 198/198/198
f 198/198/198 199/199/199 200/200/200
f 203/203/203 231/231/231 228/228/228
f 228/228/228 230/230/230 199/199/199
f 231/231/231 229/229/229 228/228/228
f 228/228/228 229/229/229 230/230/230
f 199/199/199 252/252/252 205/205/205
f 252/252/252 199/199/199 230/230/230
f 204/204/204 200/200/200 199/199/199
f 410/410/410 405/405/405 435/435/435
f 435/435/435 405/405/405 408/408/408
f 405/405/405 410/410/410 409/409/409
f 409/409/409 406/406/406 405/405/405
f 407/407/407 408/408/408 405/405/405
f 405/405/405 406/406/406 407/407/407
f 435/435/435 438/438/438 410/410/410
f 408/408/408 436/436/436 435/435/435
f 438/438/438 435/435/435 437/437/437
f 435/435/435 436/436/436 437/437/437
f 408/408/408 414/414/414 456/456/456
f 436/436/436 408/408/408 456/456/456
f 411/411/411 414/414/414 408/408/408
f 356/356/356 357/357/357 117/117/117
f 115/115/115 116/116/116 117/117/117
f 317/317/317 196/196/196 117/117/117
f 117/117/117 357/357/357 317/317/317
f 66/66/66 118/118/118 117/117/117
f 117/117/117 196/196/196 66/66/66
f 117/117/117 118/118/118 115/115/115
f 395/395/395 259/259/259 357/357/357
f 317/317/317 357/357/357 259/259/259
f 309/309/309 318/318/318 317/317/317
f 317/317/317 259/259/259 309/309/309
f 262/262/262 293/293/293 309/309/309
f 318/318/318 309/309/309 293/293/293
f 292/292/292 459/459/459 318/318/318
f 318/318/318 293/293/293 292/292/292
f 293/293/293 262/262/262 291/291/291
f 291/291/291 292/292/292 293/293/293
f 291/291/291 262/262/262 261/261/261
f 261/261/261 453/453/453 291/291/291
f 118/118/118 2/2/2 178/178/178
f 178/178/178 115/115/115 118/118/118
f 66/66/66 2/2/2 118/118/118
f 58/58/58 2/2/2 66/66/66
f 66/66/66 67/67/67 58/58/58
f 7/7/7 58/58/58 37/37/37
f 67/67/67 37/37/37 58/58/58
f 38/38/38 37/37/37 67/67/67
f 67/67/67 255/255/255 38/38/38
f 37/37/37 38/38/38 36/36/36
f 36/36/36 7/7/7 37/37/37
f 8/8/8 7/7/7 36/36/36
f 7/7/7 8/8/8 5/5/5
f 36/36/36 247/247/247 8/8/8
f 430/430/430 429/429/429 433/433/433
f 430/430/430 418/418/418 420/420/420
f 420/420/420 429/429/429 430/430/430
f 418/418/418 419/419/419 420/420/420
f 415/415/415 423/423/423 419/419/419
f 423/423/423 415/415/415 409/409/409
f 409/409/409 415/415/415 406/406/406
f 189/189/189 190/190/190 188/188/188
f 189/189/189 401/401/401 400/400/400
f 400/400/400 190/190/190 189/189/189
f 190/190/190 400/400/400 356/356/356
f 356/356/356 116/116/116 190/190/190
f 190/190/190 116/116/116 115/115/115
f 356/356/356 400/400/400 268/268/268
f 268/268/268 400/400/400 401/401/401
f 439/439/439 268/268/268 401/401/401
f 401/401/401 441/441/441 439/439/439
f 269/269/269 268/268/268 439/439/439
f 268/268/268 395/395/395 356/356/356
f 299/299/299 395/395/395 268/268/268
f 268/268/268 270/270/270 299/299/299
f 268/268/268 269/269/269 270/270/270
f 357/357/357 356/356/356 395/395/395
f 117/117/117 116/116/116 356/356/356
f 23/23/23 24/24/24 22/22/22
f 23/23/23 16/16/16 15/15/15
f 14/14/14 23/23/23 15/15/15
f 22/22/22 16/16/16 23/23/23
f 44/44/44 14/14/14 13/13/13
f 13/13/13 14/14/14 15/15/15
f 13/13/13 178/178/178 44/44/44
f 187/187/187 13/13/13 232/232/232
f 232/232/232 13/13/13 15/15/15
f 115/115/115 178/178/178 13/13/13
f 13/13/13 188/188/188 115/115/115
f 13/13/13 187/187/187 188/188/188
f 233/233/233 15/15/15 17/17/17
f 15/15/15 233/233/233 232/232/232
f 15/15/15 16/16/16 17/17/17
f 232/232/232 234/234/234 187/187/187
f 188/188/188 187/187/187 189/189/189
f 115/115/115 188/188/188 190/190/190
f 21/21/21 1/1/1 4/4/4
f 1/1/1 44/44/44 178/178/178
f 178/178/178 2/2/2 1/1/1
f 1/1/1 21/21/21 43/43/43
f 43/43/43 44/44/44 1/1/1
f 3/3/3 4/4/4 1/1/1
f 1/1/1 2/2/2 3/3/3
f 43/43/43 21/21/21 69/69/69
f 21/21/21 10/10/10 68/68/68
f 68/68/68 69/69/69 21/21/21
f 10/10/10 21/21/21 4/4/4
f 4/4/4 3/3/3 6/6/6
f 6/6/6 9/9/9 4/4/4
f 147/147/147 148/148/148 149/149/149
f 149/149/149 150/150/150 147/147/147
f 402/402/402 381/381/381 149/149/149
f 149/149/149 192/192/192 402/402/402
f 149/149/149 381/381/381 380/380/380
f 380/380/380 150/150/150 149/149/149
f 402/402/402 389/389/389 271/271/271
f 271/271/271 381/381/381 402/402/402
f 380/380/380 381/381/381 271/271/271
f 443/443/443 380/380/380 271/271/271
f 440/440/440 442/442/442 271/271/271
f 271/271/271 442/442/442 443/443/443
f 271/271/271 389/389/389 375/375/375
f 308/308/308 270/270/270 279/279/279
f 270/270/270 269/269/269 279/279/279
f 279/279/279 278/278/278 308/308/308
f 279/279/279 269/269/269 272/272/272
f 279/279/279 272/272/272 277/277/277
f 277/277/277 278/278/278 279/279/279
f 271/271/271 269/269/269 440/440/440
f 439/439/439 440/440/440 269/269/269
f 269/269/269 271/271/271 272/272/272
f 375/375/375 272/272/272 271/271/271
f 376/376/376 277/277/277 272/272/272
f 272/272/272 375/375/375 376/376/376
f 452/452/452 277/277/277 376/376/376
f 158/158/158 160/160/160 165/165/165
f 158/158/158 159/159/159 160/160/160
f 160/160/160 185/185/185 399/399/399
f 399/399/399 386/386/386 160/160/160
f 385/385/385 165/165/165 160/160/160
f 385/385/385 160/160/160 386/386/386
f 160/160/160 159/159/159 184/184/184
f 184/184/184 185/185/185 160/160/160
f 256/256/256 257/257/257 258/258/258
f 262/262/262 309/309/309 258/258/258
f 259/259/259 258/258/258 309/309/309
f 258/258/258 259/259/259 256/256/256
f 256/256/256 259/259/259 395/395/395
f 395/395/395 299/299/299 256/256/256
f 256/256/256 299/299/299 298/298/298
f 298/298/298 276/276/276 256/256/256
f 69/69/69 276/276/276 298/298/298
f 276/276/276 69/69/69 68/68/68
f 68/68/68 265/265/265 276/276/276
f 144/144/144 266/266/266 265/265/265
f 265/265/265 68/68/68 144/144/144
f 266/266/266 144/144/144 237/237/237
f 237/237/237 444/444/444 266/266/266
f 298/298/298 179/179/179 69/69/69
f 69/69/69 179/179/179 43/43/43
f 179/179/179 298/298/298 308/308/308
f 270/270/270 308/308/308 298/298/298
f 298/298/298 299/299/299 270/270/270
f 308/308/308 151/151/151 179/179/179
f 57/57/57 43/43/43 179/179/179
f 179/179/179 151/151/151 57/57/57
f 14/14/14 44/44/44 43/43/43
f 43/43/43 57/57/57 14/14/14
f 57/57/57 151/151/151 55/55/55
f 55/55/55 24/24/24 57/57/57
f 57/57/57 24/24/24 23/23/23
f 23/23/23 14/14/14 57/57/57
f 55/55/55 151/151/151 308/308/308
f 308/308/308 278/278/278 55/55/55
f 56/56/56 55/55/55 278/278/278
f 24/24/24 55/55/55 56/56/56
f 56/56/56 22/22/22 24/24/24
f 123/123/123 143/143/143 154/154/154
f 142/142/142 143/143/143 123/123/123
f 123/123/123 93/93/93 142/142/142
f 125/125/125 126/126/126 123/123/123
f 123/123/123 124/124/124 125/125/125
f 93/93/93 92/92/92 142/142/142
f 94/94/94 93/93/93 110/110/110
f 92/92/92 93/93/93 94/94/94
f 94/94/94 95/95/95 92/92/92
f 113/113/113 94/94/94 110/110/110
f 95/95/95 94/94/94 113/113/113
f 110/110/110 81/81/81 80/80/80
f 80/80/80 194/194/194 110/110/110
f 110/110/110 194/194/194 113/113/113
f 182/182/182 113/113/113 194/194/194
f 452/452/452 379/379/379 277/277/277
f 56/56/56 277/277/277 379/379/379
f 278/278/278 277/277/277 56/56/56
f 379/379/379 146/146/146 56/56/56
f 56/56/56 146/146/146 145/145/145
f 145/145/145 22/22/22 56/56/56
f 246/246/246 140/140/140 22/22/22
f 246/246/246 22/22/22 145/145/145
f 16/16/16 22/22/22 140/140/140
f 17/17/17 16/16/16 141/141/141
f 140/140/140 141/141/141 16/16/16
f 191/191/191 148/148/148 17/17/17
f 17/17/17 167/167/167 191/191/191
f 147/147/147 17/17/17 148/148/148
f 17/17/17 236/236/236 233/233/233
f 235/235/235 236/236/236 17/17/17
f 17/17/17 147/147/147 235/235/235
f 141/141/141 167/167/167 17/17/17
f 191/191/191 192/192/192 149/149/149
f 149/149/149 148/148/148 191/191/191
f 304/304/304 305/305/305 267/267/267
f 444/444/444 304/304/304 266/266/266
f 266/266/266 304/304/304 267/267/267
f 263/263/263 264/264/264 267/267/267
f 267/267/267 260/260/260 263/263/263
f 266/266/266 267/267/267 264/264/264
f 262/262/262 263/263/263 260/260/260
f 260/260/260 261/261/261 262/262/262
f 258/258/258 263/263/263 262/262/262
f 257/257/257 264/264/264 263/263/263
f 263/263/263 258/258/258 257/257/257
f 266/266/266 264/264/264 265/265/265
f 264/264/264 257/257/257 265/265/265
f 276/276/276 257/257/257 256/256/256
f 265/265/265 257/257/257 276/276/276
f 345/345/345 326/326/326 325/325/325
f 325/325/325 338/338/338 345/345/345
f 325/325/325 326/326/326 327/327/327
f 352/352/352 404/404/404 327/327/327
f 327/327/327 326/326/326 352/352/352
f 352/352/352 326/326/326 345/345/345
f 345/345/345 344/344/344 352/352/352
f 338/338/338 342/342/342 345/345/345
f 342/342/342 341/341/341 345/345/345
f 345/345/345 341/341/341 344/344/344
f 352/352/352 344/344/344 343/343/343
f 343/343/343 337/337/337 352/352/352
f 352/352/352 336/336/336 355/355/355
f 355/355/355 404/404/404 352/352/352
f 336/336/336 352/352/352 337/337/337
f 344/344/344 341/341/341 343/343/343
f 343/343/343 341/341/341 340/340/340
f 52/52/52 307/307/307 392/392/392
f 107/107/107 104/104/104 106/106/106
f 104/104/104 105/105/105 106/106/106
f 108/108/108 107/107/107 106/106/106
f 105/105/105 109/109/109 106/106/106
f 109/109/109 108/108/108 106/106/106
f 349/349/349 347/347/347 346/346/346
f 346/346/346 347/347/347 348/348/348
f 350/350/350 347/347/347 349/349/349
f 348/348/348 347/347/347 351/351/351
f 351/351/351 347/347/347 350/350/350
f 331/331/331 397/397/397 398/398/398
f 331/331/331 330/330/330 329/329/329
f 329/329/329 397/397/397 331/331/331
f 330/330/330 331/331/331 87/87/87
f 87/87/87 83/83/83 330/330/330
f 330/330/330 83/83/83 82/82/82
f 82/82/82 329/329/329 330/330/330
f 84/84/84 83/83/83 87/87/87
f 82/82/82 83/83/83 84/84/84
f 84/84/84 85/85/85 82/82/82
f 328/328/328 362/362/362 323/323/323
f 323/323/323 325/325/325 328/328/328
f 327/327/327 328/328/328 325/325/325
f 324/324/324 323/323/323 362/362/362
f 363/363/363 339/339/339 323/323/323
f 323/323/323 339/339/339 338/338/338
f 338/338/338 325/325/325 323/323/323
f 323/323/323 324/324/324 322/322/322
f 110/110/110 102/102/102 103/103/103
f 99/99/99 103/103/103 100/100/100
f 103/103/103 102/102/102 100/100/100
f 122/122/122 99/99/99 98/98/98
f 98/98/98 99/99/99 100/100/100
f 102/102/102 101/101/101 100/100/100
f 101/101/101 98/98/98 100/100/100
f 101/101/101 102/102/102 110/110/110
f 110/110/110 93/93/93 101/101/101
f 101/101/101 93/93/93 123/123/123
f 123/123/123 98/98/98 101/101/101
f 123/123/123 126/126/126 98/98/98
f 122/122/122 98/98/98 126/126/126
f 154/154/154 124/124/124 123/123/123
f 9/9/9 10/10/10 4/4/4
f 3/3/3 58/58/58 7/7/7
f 7/7/7 6/6/6 3/3/3
f 2/2/2 58/58/58 3/3/3
f 6/6/6 5/5/5 12/12/12
f 12/12/12 9/9/9 6/6/6
f 5/5/5 6/6/6 7/7/7
f 11/11/11 10/10/10 9/9/9
f 11/11/11 9/9/9 12/12/12
f 144/144/144 68/68/68 10/10/10
f 10/10/10 11/11/11 144/144/144
f 238/238/238 11/11/11 49/49/49
f 11/11/11 238/238/238 237/237/237
f 237/237/237 144/144/144 11/11/11
f 11/11/11 12/12/12 49/49/49
f 50/50/50 12/12/12 5/5/5
f 49/49/49 12/12/12 50/50/50
f 121/121/121 195/195/195 49/49/49
f 49/49/49 50/50/50 121/121/121
f 5/5/5 119/119/119 50/50/50
f 171/171/171 53/53/53 52/52/52
f 53/53/53 168/168/168 169/169/169
f 172/172/172 169/169/169 168/168/168
f 169/169/169 174/174/174 175/175/175
f 173/173/173 174/174/174 169/169/169
f 169/169/169 172/172/172 173/173/173
f 250/250/250 168/168/168 171/171/171
f 168/168/168 250/250/250 172/172/172
f 171/171/171 170/170/170 250/250/250
f 52/52/52 170/170/170 171/171/171
f 392/392/392 391/391/391 250/250/250
f 250/250/250 170/170/170 392/392/392
f 172/172/172 250/250/250 391/391/391
f 391/391/391 390/390/390 172/172/172
f 173/173/173 172/172/172 390/390/390
f 390/390/390 393/393/393 173/173/173
f 394/394/394 393/393/393 390/390/390
f 390/390/390 391/391/391 307/307/307
f 307/307/307 391/391/391 392/392/392
f 392/392/392 170/170/170 52/52/52
f 77/77/77 75/75/75 74/74/74
f 74/74/74 76/76/76 77/77/77
f 76/76/76 127/127/127 77/77/77
f 79/79/79 78/78/78 77/77/77
f 77/77/77 127/127/127 79/79/79
f 77/77/77 97/97/97 128/128/128
f 77/77/77 78/78/78 96/96/96
f 96/96/96 97/97/97 77/77/77
f 128/128/128 97/97/97 180/180/180
f 177/177/177 180/180/180 97/97/97
f 97/97/97 96/96/96 177/177/177
f 103/103/103 96/96/96 78/78/78
f 176/176/176 177/177/177 96/96/96
f 96/96/96 122/122/122 176/176/176
f 96/96/96 103/103/103 99/99/99
f 96/96/96 99/99/99 122/122/122
f 78/78/78 81/81/81 103/103/103
f 80/80/80 81/81/81 78/78/78
f 78/78/78 79/79/79 80/80/80
f 103/103/103 81/81/81 110/110/110
f 340/340/340 341/341/341 342/342/342
f 359/359/359 340/340/340 342/342/342
f 338/338/338 359/359/359 342/342/342
f 360/360/360 340/340/340 361/361/361
f 343/343/343 340/340/340 360/360/360
f 359/359/359 361/361/361 340/340/340
f 360/360/360 337/337/337 343/343/343
f 154/154/154 377/377/377 360/360/360
f 360/360/360 124/124/124 154/154/154
f 378/378/378 337/337/337 360/360/360
f 360/360/360 377/377/377 378/378/378
f 125/125/125 124/124/124 360/360/360
f 360/360/360 361/361/361 125/125/125
f 337/337/337 378/378/378 334/334/334
f 336/336/336 337/337/337 334/334/334
f 334/334/334 335/335/335 336/336/336
f 355/355/355 336/336/336 335/335/335
f 335/335/335 354/354/354 355/355/355
f 125/125/125 361/361/361 359/359/359
f 359/359/359 176/176/176 125/125/125
f 125/125/125 176/176/176 122/122/122
f 122/122/122 126/126/126 125/125/125
f 176/176/176 359/359/359 338/338/338
f 338/338/338 177/177/177 176/176/176
f 177/177/177 338/338/338 339/339/339
f 339/339/339 180/180/180 177/177/177
f 180/180/180 339/339/339 363/363/363
f 377/377/377 154/154/154 403/403/403
f 143/143/143 193/193/193 154/154/154
f 487/487/487 480/480/480 486/486/486
f 480/480/480 482/482/482 486/486/486
f 480/480/480 481/481/481 482/482/482
f 482/482/482 484/484/484 486/486/486
f 484/484/484 485/485/485 486/486/486
f 482/482/482 483/483/483 484/484/484
f 473/473/473 466/466/466 472/472/472
f 466/466/466 470/470/470 472/472/472
f 466/466/466 468/468/468 470/470/470
f 466/466/466 467/467/467 468/468/468
f 470/470/470 471/471/471 472/472/472
f 468/468/468 469/469/469 470/470/470
f 479/479/479 474/474/474 478/478/478
f 474/474/474 476/476/476 478/478/478
f 474/474/474 475/475/475 476/476/476
f 476/476/476 477/477/477 478/478/478
f 465/465/465 460/460/460 464/464/464
f 460/460/460 463/463/463 464/464/464
f 460/460/460 462/462/462 463/463/463
f 460/460/460 461/461/461 462/462/462
f 121/121/121 50/50/50 119/119/119
f 121/121/121 305/305/305 304/304/304
f 304/304/304 195/195/195 121/121/121
f 121/121/121 120/120/120 358/358/358
f 358/358/358 305/305/305 121/121/121
f 119/119/119 120/120/120 121/121/121
f 197/197/197 120/120/120 119/119/119
f 119/119/119 153/153/153 197/197/197
f 119/119/119 5/5/5 153/153/153
f 358/358/358 120/120/120 197/197/197
f 197/197/197 382/382/382 358/358/358
f 358/358/358 382/382/382 260/260/260
f 305/305/305 358/358/358 260/260/260
f 260/260/260 267/267/267 305/305/305
f 285/285/285 274/274/274 273/273/273
f 290/290/290 273/273/273 280/280/280
f 273/273/273 290/290/290 285/285/285
f 280/280/280 273/273/273 275/275/275
f 273/273/273 274/274/274 275/275/275
f 285/285/285 284/284/284 274/274/274
f 284/284/284 285/285/285 286/286/286
f 300/300/300 274/274/274 287/287/287
f 275/275/275 274/274/274 300/300/300
f 287/287/287 274/274/274 284/284/284
f 275/275/275 301/301/301 295/295/295
f 295/295/295 280/280/280 275/275/275
f 300/300/300 301/301/301 275/275/275
f 31/31/31 18/18/18 20/20/20
f 35/35/35 25/25/25 18/18/18
f 18/18/18 31/31/31 35/35/35
f 25/25/25 19/19/19 18/18/18
f 18/18/18 19/19/19 20/20/20
f 31/31/31 20/20/20 29/29/29
f 29/29/29 30/30/30 31/31/31
f 32/32/32 20/20/20 46/46/46
f 46/46/46 20/20/20 19/19/19
f 29/29/29 20/20/20 32/32/32
f 19/19/19 25/25/25 42/42/42
f 42/42/42 45/45/45 19/19/19
f 19/19/19 45/45/45 46/46/46
f 130/130/130 129/129/129 245/245/245
f 131/131/131 132/132/132 129/129/129
f 129/129/129 130/130/130 131/131/131
f 245/245/245 244/244/244 130/130/130
f 130/130/130 244/244/244 243/243/243
f 243/243/243 136/136/136 130/130/130
f 136/136/136 131/131/131 130/130/130
f 134/134/134 132/132/132 131/131/131
f 131/131/131 136/136/136 134/134/134
f 134/134/134 136/136/136 243/243/243
f 243/243/243 135/135/135 134/134/134
f 138/138/138 134/134/134 133/133/133
f 133/133/133 134/134/134 135/135/135
f 451/451/451 364/364/364 367/367/367
f 366/366/366 367/367/367 364/364/364
f 364/364/364 365/365/365 366/366/366
f 367/367/367 450/450/450 451/451/451
f 367/367/367 371/371/371 449/449/449
f 449/449/449 450/450/450 367/367/367
f 371/371/371 367/367/367 366/366/366
f 370/370/370 371/371/371 366/366/366
f 366/366/366 365/365/365 370/370/370
f 449/449/449 371/371/371 370/370/370
f 370/370/370 369/369/369 449/449/449
f 373/373/373 368/368/368 370/370/370
f 368/368/368 369/369/369 370/370/370
f 447/447/447 448/448/448 445/445/445
f 445/445/445 446/446/446 447/447/447
f 241/241/241 242/242/242 239/239/239
f 239/239/239 240/240/240 241/241/241
f 321/321/321 72/72/72 152/152/152
f 322/322/322 73/73/73 72/72/72
f 72/72/72 321/321/321 322/322/322
f 152/152/152 72/72/72 75/75/75
f 74/74/74 75/75/75 72/72/72
f 72/72/72 73/73/73 74/74/74
f 152/152/152 363/363/363 321/321/321
f 323/323/323 321/321/321 363/363/363
f 322/322/322 321/321/321 323/323/323
f 363/363/363 152/152/152 180/180/180
f 180/180/180 152/152/152 128/128/128
f 75/75/75 128/128/128 152/152/152
f 128/128/128 75/75/75 77/77/77
