# ammonit reconstructed from live game memory
v -11.43170 64.45231 -14.66055
v -13.79678 60.08939 -12.63800
v -16.31674 61.07817 -17.68505
v -19.49030 56.01778 -9.80022
v -16.90944 60.10349 -8.15771
v -20.55312 57.88457 -1.34120
v -13.18085 63.56908 -8.28535
v -19.24998 57.01872 -16.04865
v -11.85635 63.31528 -14.19012
v -16.87016 60.48831 -12.86287
v -15.78456 60.82556 -17.04438
v -17.26582 57.95359 -14.97154
v -17.46991 57.17505 -10.55173
v -16.04803 59.98513 -8.49640
v -12.45645 62.68810 -9.90321
v -9.46159 65.91733 -15.91806
v -16.89075 63.31557 -1.52875
v -20.47712 49.37045 -3.75587
v -20.13189 50.82758 -10.46539
v -21.00438 53.89438 -18.46053
v -11.54718 63.02815 -24.71998
v -13.84590 57.39378 -29.18446
v -9.61286 61.24244 -30.15417
v -17.76259 58.88016 -21.85433
v -16.26441 53.15469 -27.21416
v -20.04969 50.15752 -22.67695
v -17.03477 43.67956 -13.81010
v -14.78304 44.46152 -20.55639
v -30.49190 39.56466 -37.07077
v -23.90598 45.34547 -32.29592
v -25.97222 44.47620 -28.54267
v -32.18058 38.50772 -34.33950
v -23.39421 40.21365 -28.10287
v -30.19384 35.27157 -34.77747
v -36.77409 34.08672 -39.16438
v -37.51366 31.77526 -41.58629
v -35.24286 34.91935 -40.75462
v -35.31842 32.01587 -39.26293
v -16.26441 53.15469 -27.21416
v -20.04969 50.15752 -22.67695
v -14.78304 44.46152 -20.55639
v -11.07953 46.25368 -25.73811
v -21.39599 41.41505 -31.29688
v -28.83884 36.12106 -36.82504
v -21.39599 41.41505 -31.29688
v -34.26925 32.93926 -40.46206
v -10.94840 42.28043 -7.41946
v -4.77499 40.47943 -7.85558
v -10.40196 38.48457 -11.15044
v -0.00000 39.41377 -8.45819
v -0.00000 39.86503 -16.78041
v -5.16083 37.48424 -16.38976
v -13.80377 42.14278 -18.44730
v -13.24086 40.02592 -15.77092
v -11.07953 46.25368 -25.73811
v -28.83884 36.12106 -36.82504
v -34.26925 32.93926 -40.46206
v -17.63005 20.11063 -19.95474
v -14.69598 30.31653 -17.95782
v -12.71749 29.40157 -14.40968
v -16.29773 19.30961 -17.65262
v -9.14947 28.42231 -17.07526
v -13.66253 18.55114 -19.44942
v -18.95351 12.24247 -19.93768
v -19.35290 10.23871 -21.87006
v -19.79395 12.88259 -21.43489
v -16.93340 11.78820 -21.21225
v -13.24086 40.02592 -15.77092
v -10.40196 38.48457 -11.15044
v -5.16083 37.48424 -16.38976
v -8.52278 40.62536 -20.09334
v -12.41502 30.36495 -21.35240
v -16.12346 20.09557 -22.30008
v -12.41502 30.36495 -21.35240
v -18.35234 12.74787 -22.84948
v -8.52278 40.62536 -20.09334
v -16.12346 20.09557 -22.30008
v -18.35234 12.74787 -22.84948
v -8.52278 40.62536 -20.09334
v -0.00000 39.86885 -16.78362
v -0.00000 46.55241 -25.47113
v -11.07953 46.25368 -25.73811
v -17.17188 58.74144 -58.46222
v -17.61221 56.84763 -61.66343
v -15.17653 56.80807 -58.60851
v -18.52492 56.75311 -58.17109
v -9.05209 56.95292 -41.02962
v -12.52422 60.32834 -40.87895
v -15.29199 59.35988 -51.14320
v -12.85117 56.84197 -51.91731
v -15.42406 57.14389 -40.23030
v -17.30753 56.89284 -50.85654
v -5.50247 57.33362 -31.37706
v -9.61286 61.24244 -30.15417
v -13.84590 57.39378 -29.18446
v -9.41476 53.77776 -30.61312
v -11.81599 54.33398 -40.94228
v -16.34948 55.37457 -58.52919
v -14.50729 54.78187 -51.14324
v -11.81599 54.33398 -40.94228
v -9.41476 53.77776 -30.61312
v -14.50729 54.78187 -51.14324
v -16.34948 55.37457 -58.52919
v -9.24689 52.66555 -28.59776
v -9.41476 53.77776 -30.61312
v -11.18967 65.09558 -19.71738
v -0.00000 52.50018 -29.19883
v -0.00000 52.50614 -29.20200
v -5.50247 57.33362 -31.37706
v -22.50525 49.44193 -1.50063
v -20.72435 55.21089 15.70499
v -13.03025 45.79919 17.43910
v -11.45153 40.75346 -4.70111
v -18.89005 63.09969 33.59616
v -11.66260 58.02119 38.77832
v -14.95966 66.86423 29.11909
v -15.41826 61.47440 14.56558
v -7.92187 68.76022 26.69028
v -14.95966 66.86423 29.11909
v -15.41826 61.47440 14.56558
v -7.51620 63.81973 14.18867
v -16.69260 77.76697 39.81688
v -11.19918 77.11169 45.56906
v -13.49843 78.51008 34.32097
v -6.78673 78.79127 31.82358
v -13.49843 78.51008 34.32097
v -15.40068 91.99399 36.18958
v -11.05231 94.73125 41.10680
v -12.78069 89.55468 31.81802
v -7.74667 88.35434 29.55917
v -12.78069 89.55468 31.81802
v -13.93986 101.11989 26.59090
v -10.14351 105.74731 29.51067
v -12.40397 96.75420 23.76465
v -7.81374 94.92284 22.51457
v -12.40397 96.75420 23.76465
v -12.17785 103.71085 11.94012
v -9.07271 108.83008 11.92415
v -11.99413 98.60538 11.83591
v -7.51130 96.71599 11.79729
v -11.99413 98.60538 11.83591
v -11.80626 98.70941 -2.25351
v -8.13439 103.04886 -6.06082
v -11.44735 94.03177 1.36035
v -7.03654 92.55373 2.56172
v -11.44735 94.03177 1.36035
v -11.36464 85.35880 -6.55254
v -7.79894 85.41928 -12.71313
v -10.88333 85.29025 -1.42523
v -6.29456 85.26387 0.30225
v -10.88333 85.29025 -1.42523
v -10.82549 72.36488 -0.74231
v -6.72113 71.94427 -8.37767
v -10.35654 75.33006 2.28336
v -6.83396 76.09702 3.40669
v -10.35654 75.33006 2.28336
v -9.94992 71.14411 23.74820
v -7.92187 68.76022 26.69028
v -7.51620 63.81973 14.18867
v -10.33497 67.46216 13.71544
v -9.00815 74.58270 19.94540
v -9.82798 71.52882 13.21333
v -7.24898 76.06346 18.22426
v -9.00815 74.58270 19.94540
v -9.82798 71.52882 13.21333
v -6.49529 73.06738 13.06384
v -9.79576 79.35709 27.94672
v -6.78673 78.79127 31.82358
v -9.31319 79.79887 23.16139
v -7.43267 80.17799 20.02428
v -9.31319 79.79887 23.16139
v -9.59660 87.11851 26.69003
v -7.74667 88.35434 29.55917
v -9.13017 85.32642 22.81601
v -7.42040 84.02919 19.90326
v -9.13017 85.32642 22.81601
v -9.41275 92.07826 20.47780
v -7.81374 94.92284 22.51457
v -8.95978 89.28915 18.31380
v -7.68293 86.46040 16.55481
v -8.95978 89.28915 18.31380
v -9.27663 93.42519 11.75537
v -7.51130 96.71599 11.79729
v -8.83280 90.02370 11.77454
v -7.52580 87.11990 11.95424
v -8.83280 90.02370 11.77454
v -9.13733 89.38332 5.25429
v -7.03654 92.55373 2.56172
v -8.32413 85.73169 7.32552
v -8.32413 85.73169 7.32552
v -8.93401 84.90210 3.50792
v -6.29456 85.26387 0.30225
v -8.84674 77.99843 5.82118
v -6.83396 76.09702 3.40669
v -8.75243 75.73276 13.04567
v -6.49529 73.06738 13.06384
v -9.62273 81.05421 12.38795
v -8.70537 77.24002 16.96211
v -7.24898 76.06346 18.22426
v -7.43267 80.17799 20.02428
v -7.42040 84.02919 19.90326
v -7.68293 86.46040 16.55481
v -7.52580 87.11990 11.95424
v -11.45153 40.75346 -4.70111
v -4.77499 40.47943 -7.85558
v -10.94840 42.28043 -7.41946
v -22.50525 49.44193 -1.50063
v -20.47712 49.37045 -3.75587
v -20.55312 57.88457 -1.34120
v -23.66369 57.84415 0.47308
v -17.80305 65.06140 0.33911
v -16.89075 63.31557 -1.52875
v -17.80305 65.06140 0.33911
v -8.06945 67.00162 0.32066
v -8.06945 67.00162 0.32066
v -6.72113 71.94427 -8.37767
v -8.06945 67.00162 0.32066
v -17.80305 65.06140 0.33911
v -10.26093 69.70938 -8.30598
v -10.53968 67.43824 -15.48207
v -14.75700 65.36331 -8.22745
v -13.18085 63.56908 -8.28535
v -9.46159 65.91733 -15.91806
v -17.80305 65.06140 0.33911
v -16.89075 63.31557 -1.52875
v -4.91566 71.43397 -11.40547
v -14.75700 65.36331 -8.22745
v -10.53968 67.43824 -15.48207
v -4.20916 68.12498 -21.03188
v -0.00000 69.22630 -22.68410
v -0.00000 70.36567 -21.56804
v -4.61282 69.69525 -20.12286
v -0.00000 72.16134 -12.41237
v -0.00000 73.46980 -11.40161
v -4.61282 69.69525 -20.12286
v -0.00000 37.40628 -6.22910
v -0.00000 37.40871 -6.23238
v -23.66369 57.84415 0.47308
v -0.00000 57.32289 -30.59896
v -0.00000 61.41975 -29.98057
v -17.80305 65.06140 0.33911
v -0.00000 65.41931 -20.33061
v -0.00000 65.96115 -17.56332
v -0.00000 55.39725 41.13770
v -0.00000 42.28543 17.90204
v -0.00000 76.77106 49.36780
v -0.00000 96.25547 43.93257
v -0.00000 108.43710 31.06996
v -0.00000 111.53789 11.85699
v -0.00000 104.44910 -7.40811
v -0.00000 85.44741 -14.91023
v -0.00000 73.46980 -11.40161
v -0.00000 77.63155 -12.62244
v -0.00000 63.39923 -25.52087
v -0.00000 70.36567 -21.56804
v -0.00000 69.22630 -22.68410
v -4.20916 68.12498 -21.03188
v -0.00000 67.87943 -21.16819
v -0.00000 37.40628 -6.22910
v -0.00000 39.10285 2.16768
v -9.46159 65.91733 -15.91806
v -0.00000 65.96115 -17.56332
v -0.00000 39.41377 -8.45819
v 11.43170 64.45231 -14.66055
v 16.31674 61.07817 -17.68505
v 13.79678 60.08939 -12.63800
v 19.49030 56.01778 -9.80022
v 20.55312 57.88457 -1.34120
v 16.90944 60.10349 -8.15771
v 13.18085 63.56908 -8.28535
v 19.24998 57.01872 -16.04865
v 11.85635 63.31528 -14.19012
v 15.78456 60.82556 -17.04438
v 16.87016 60.48831 -12.86287
v 17.26582 57.95359 -14.97154
v 17.46991 57.17505 -10.55173
v 16.04803 59.98513 -8.49640
v 12.45645 62.68809 -9.90323
v 9.46159 65.91733 -15.91806
v 16.89075 63.31557 -1.52875
v 20.47712 49.37045 -3.75587
v 20.13189 50.82758 -10.46539
v 21.00438 53.89438 -18.46053
v 11.54717 63.02815 -24.71999
v 9.61285 61.24242 -30.15419
v 13.84590 57.39378 -29.18446
v 17.76259 58.88016 -21.85433
v 16.26440 53.15467 -27.21419
v 20.04968 50.15750 -22.67696
v 14.78304 44.46152 -20.55639
v 17.03477 43.67956 -13.81010
v 30.49189 39.56465 -37.07079
v 32.18057 38.50771 -34.33953
v 25.97220 44.47620 -28.54267
v 23.90597 45.34547 -32.29593
v 30.19383 35.27157 -34.77748
v 23.39420 40.21365 -28.10287
v 36.77409 34.08669 -39.16441
v 35.24285 34.91933 -40.75466
v 37.51366 31.77524 -41.58633
v 35.31842 32.01585 -39.26297
v 16.26440 53.15467 -27.21419
v 20.04968 50.15750 -22.67696
v 14.78304 44.46152 -20.55639
v 21.39599 41.41505 -31.29689
v 11.07953 46.25367 -25.73811
v 21.39599 41.41505 -31.29689
v 28.83883 36.12106 -36.82507
v 34.26924 32.93924 -40.46210
v 10.94840 42.28043 -7.41946
v 10.40196 38.48457 -11.15041
v 4.77499 40.47942 -7.85558
v 5.16083 37.48422 -16.38974
v 13.80377 42.14278 -18.44729
v 13.24086 40.02592 -15.77090
v 11.07953 46.25367 -25.73811
v 28.83883 36.12106 -36.82507
v 34.26924 32.93924 -40.46210
v 17.63005 20.11063 -19.95474
v 16.29773 19.30962 -17.65260
v 12.71750 29.40157 -14.40965
v 14.69598 30.31652 -17.95782
v 13.66253 18.55115 -19.44941
v 9.14948 28.42232 -17.07523
v 18.95350 12.24248 -19.93768
v 19.79395 12.88260 -21.43488
v 19.35290 10.23872 -21.87006
v 16.93339 11.78821 -21.21224
v 13.24086 40.02592 -15.77090
v 10.40196 38.48457 -11.15041
v 5.16083 37.48422 -16.38974
v 12.41503 30.36495 -21.35238
v 8.52278 40.62537 -20.09331
v 12.41503 30.36495 -21.35238
v 16.12346 20.09558 -22.30006
v 18.35233 12.74787 -22.84947
v 8.52278 40.62537 -20.09331
v 16.12346 20.09558 -22.30006
v 18.35233 12.74787 -22.84947
v 8.52278 40.62537 -20.09331
v 11.07953 46.25367 -25.73811
v 17.17188 58.74144 -58.46227
v 15.17653 56.80807 -58.60856
v 17.61221 56.84763 -61.66348
v 18.52492 56.75311 -58.17113
v 9.05208 56.95291 -41.02963
v 12.85117 56.84198 -51.91734
v 15.29200 59.35989 -51.14322
v 12.52422 60.32834 -40.87897
v 15.42405 57.14388 -40.23032
v 17.30753 56.89284 -50.85658
v 5.50246 57.33361 -31.37707
v 9.61285 61.24242 -30.15419
v 13.84590 57.39378 -29.18446
v 11.81599 54.33398 -40.94228
v 9.41476 53.77775 -30.61313
v 16.34948 55.37457 -58.52924
v 14.50729 54.78188 -51.14326
v 9.41476 53.77775 -30.61313
v 11.81599 54.33398 -40.94228
v 14.50729 54.78188 -51.14326
v 16.34948 55.37457 -58.52924
v 9.41476 53.77775 -30.61313
v 9.24689 52.66555 -28.59776
v 11.18967 65.09558 -19.71738
v 5.50246 57.33361 -31.37707
v 22.50525 49.44193 -1.50063
v 11.45153 40.75346 -4.70111
v 13.03025 45.79919 17.43910
v 20.72436 55.21089 15.70499
v 18.89005 63.09969 33.59616
v 11.66260 58.02119 38.77832
v 14.95966 66.86423 29.11909
v 15.41826 61.47440 14.56558
v 7.92187 68.76022 26.69028
v 7.51620 63.81973 14.18867
v 15.41826 61.47440 14.56558
v 14.95966 66.86423 29.11909
v 16.69260 77.76697 39.81688
v 11.19918 77.11169 45.56906
v 13.49843 78.51008 34.32097
v 6.78673 78.79127 31.82358
v 13.49843 78.51008 34.32097
v 15.40068 91.99399 36.18958
v 11.05230 94.73125 41.10680
v 12.78069 89.55468 31.81802
v 7.74667 88.35434 29.55917
v 12.78069 89.55468 31.81802
v 13.93986 101.11989 26.59090
v 10.14351 105.74731 29.51067
v 12.40397 96.75420 23.76465
v 7.81374 94.92284 22.51457
v 12.40397 96.75420 23.76465
v 12.17785 103.71085 11.94012
v 9.07271 108.83008 11.92415
v 11.99413 98.60538 11.83591
v 7.51130 96.71599 11.79729
v 11.99413 98.60538 11.83591
v 11.80626 98.70941 -2.25351
v 8.13439 103.04886 -6.06082
v 11.44735 94.03177 1.36035
v 7.03654 92.55373 2.56172
v 11.44735 94.03177 1.36035
v 11.36464 85.35880 -6.55254
v 7.79893 85.41928 -12.71313
v 10.88333 85.29025 -1.42523
v 6.29456 85.26387 0.30225
v 10.88333 85.29025 -1.42523
v 10.82549 72.36488 -0.74231
v 6.72113 71.94427 -8.37767
v 10.35654 75.33006 2.28336
v 6.83396 76.09702 3.40669
v 10.35654 75.33006 2.28336
v 9.94991 71.14411 23.74820
v 10.33497 67.46216 13.71544
v 7.51620 63.81973 14.18867
v 7.92187 68.76022 26.69028
v 9.00815 74.58270 19.94540
v 9.82798 71.52882 13.21333
v 7.24898 76.06346 18.22426
v 6.49529 73.06738 13.06384
v 9.82798 71.52882 13.21333
v 9.00815 74.58270 19.94540
v 9.79576 79.35709 27.94672
v 6.78673 78.79127 31.82358
v 9.31319 79.79887 23.16139
v 7.43267 80.17799 20.02428
v 9.31319 79.79887 23.16139
v 9.59660 87.11851 26.69003
v 7.74667 88.35434 29.55917
v 9.13017 85.32642 22.81601
v 7.42040 84.02919 19.90326
v 9.13017 85.32642 22.81601
v 9.41275 92.07826 20.47780
v 7.81374 94.92284 22.51457
v 8.95978 89.28915 18.31380
v 7.68293 86.46040 16.55481
v 8.95978 89.28915 18.31380
v 9.27663 93.42519 11.75537
v 7.51130 96.71599 11.79729
v 8.83279 90.02370 11.77454
v 7.52580 87.11990 11.95424
v 8.83279 90.02370 11.77454
v 9.13733 89.38332 5.25429
v 7.03654 92.55373 2.56172
v 8.32412 85.73169 7.32552
v 8.32412 85.73169 7.32552
v 8.93400 84.90210 3.50792
v 6.29456 85.26387 0.30225
v 8.84674 77.99843 5.82118
v 6.83396 76.09702 3.40669
v 8.75243 75.73276 13.04568
v 6.49529 73.06738 13.06384
v 9.62273 81.05421 12.38795
v 8.70537 77.24002 16.96211
v 7.24898 76.06346 18.22426
v 7.43267 80.17799 20.02428
v 7.42040 84.02919 19.90326
v 7.68293 86.46040 16.55481
v 7.52580 87.11990 11.95424
v 11.45153 40.75346 -4.70111
v 10.94840 42.28043 -7.41946
v 4.77499 40.47942 -7.85558
v 22.50525 49.44193 -1.50063
v 23.66369 57.84415 0.47308
v 20.55312 57.88457 -1.34120
v 20.47712 49.37045 -3.75587
v 17.80305 65.06140 0.33911
v 16.89075 63.31557 -1.52875
v 8.06945 67.00162 0.32066
v 17.80305 65.06140 0.33911
v 8.06945 67.00162 0.32066
v 6.72113 71.94427 -8.37767
v 10.26093 69.70938 -8.30598
v 17.80305 65.06140 0.33911
v 8.06945 67.00162 0.32066
v 10.53968 67.43824 -15.48207
v 9.46159 65.91733 -15.91806
v 13.18085 63.56908 -8.28535
v 14.75700 65.36331 -8.22745
v 16.89075 63.31557 -1.52875
v 17.80305 65.06140 0.33911
v 4.91566 71.43397 -11.40547
v 10.53968 67.43824 -15.48207
v 14.75700 65.36331 -8.22745
v 4.20916 68.12498 -21.03188
v 4.61282 69.69525 -20.12286
v 4.61282 69.69525 -20.12286
v 23.66369 57.84415 0.47308
v 17.80305 65.06140 0.33911
v 4.20916 68.12498 -21.03188
v 9.46159 65.91733 -15.91806
vt 0.760085 0.967026
vt 0.705246 0.932087
vt 0.754769 0.911796
vt 0.665777 0.884773
vt 0.660172 0.932233
vt 0.576705 0.911398
vt 0.684451 0.978530
vt 0.716595 0.876305
vt 0.091779 0.147042
vt 0.070965 0.079397
vt 0.137467 0.093954
vt 0.128499 0.032087
vt 0.052356 0.007610
vt 0.008050 0.064095
vt 0.020791 0.132864
vt 0.815507 0.984401
vt 0.582070 0.989723
vt 0.610861 0.788676
vt 0.653672 0.811639
vt 0.751514 0.819536
vt 0.858447 0.884436
vt 0.864601 0.807115
vt 0.912461 0.847606
vt 0.795486 0.845586
vt 0.830133 0.792700
vt 0.777363 0.786003
vt 0.719074 0.772900
vt 0.771895 0.724558
vt 0.153775 0.884280
vt 0.336584 0.873626
vt 0.344235 0.904936
vt 0.160049 0.906033
vt 0.332977 0.938728
vt 0.154206 0.928589
vt 0.048258 0.904947
vt 0.002918 0.904537
vt 0.042553 0.891769
vt 0.042175 0.920082
vt 0.519387 0.860255
vt 0.534879 0.906067
vt 0.522051 0.949243
vt 0.495097 0.995470
vt 0.313949 0.971831
vt 0.129816 0.863092
vt 0.315462 0.844607
vt 0.031456 0.878652
vt 0.645454 0.688483
vt 0.658020 0.601676
vt 0.717498 0.665666
vt 0.685411 0.551053
vt 0.772056 0.592969
vt 0.753257 0.619616
vt 0.769730 0.705335
vt 0.767565 0.686111
vt 0.497881 0.822789
vt 0.129839 0.950957
vt 0.018746 0.933822
vt 0.152112 0.884913
vt 0.337183 0.872798
vt 0.344323 0.905033
vt 0.158102 0.906095
vt 0.334452 0.938783
vt 0.153714 0.929036
vt 0.047508 0.904506
vt 0.003159 0.905026
vt 0.043183 0.892070
vt 0.042697 0.920771
vt 0.518571 0.860322
vt 0.534490 0.905379
vt 0.521636 0.949396
vt 0.495233 0.996005
vt 0.312747 0.971756
vt 0.129682 0.863759
vt 0.316638 0.845186
vt 0.030954 0.878492
vt 0.498178 0.821965
vt 0.130026 0.951391
vt 0.020146 0.933876
vt 0.808154 0.673281
vt 0.772111 0.592998
vt 0.872334 0.645217
vt 0.829356 0.714835
vt 0.048065 0.904764
vt 0.002177 0.905483
vt 0.042601 0.892268
vt 0.042201 0.919760
vt 0.245317 0.879247
vt 0.252291 0.906040
vt 0.150178 0.905402
vt 0.143959 0.885757
vt 0.244132 0.933515
vt 0.143167 0.926637
vt 0.518218 0.859700
vt 0.534894 0.905824
vt 0.521511 0.949420
vt 0.495595 0.995391
vt 0.220068 0.961083
vt 0.032531 0.878447
vt 0.127929 0.866465
vt 0.223326 0.854483
vt 0.498285 0.823027
vt 0.119853 0.947315
vt 0.019639 0.933546
vt 0.888068 0.776848
vt 0.891414 0.804775
vt 0.840979 0.935189
vt 0.978745 0.747670
vt 0.978752 0.747738
vt 0.930769 0.818813
vt 0.753166 0.264200
vt 0.543670 0.250632
vt 0.567253 0.124990
vt 0.811231 0.184319
vt 0.332161 0.220342
vt 0.292779 0.120151
vt 0.358789 0.294952
vt 0.526957 0.334907
vt 0.372456 0.352756
vt 0.358789 0.294952
vt 0.526957 0.334907
vt 0.502120 0.396272
vt 0.220001 0.288419
vt 0.154236 0.224837
vt 0.264506 0.341335
vt 0.298244 0.382508
vt 0.264506 0.341335
vt 0.155233 0.393501
vt 0.086258 0.372916
vt 0.216020 0.419632
vt 0.254338 0.436807
vt 0.216020 0.419632
vt 0.147081 0.518084
vt 0.090567 0.529292
vt 0.209260 0.512350
vt 0.246054 0.509942
vt 0.209260 0.512350
vt 0.185925 0.623980
vt 0.143276 0.654639
vt 0.237257 0.591428
vt 0.265958 0.573661
vt 0.237257 0.591428
vt 0.274661 0.700895
vt 0.252781 0.749526
vt 0.315402 0.650559
vt 0.329365 0.615330
vt 0.315402 0.650559
vt 0.437742 0.699995
vt 0.451592 0.745626
vt 0.413610 0.647281
vt 0.394459 0.613060
vt 0.413610 0.647281
vt 0.550242 0.573819
vt 0.598023 0.658583
vt 0.498860 0.570189
vt 0.456207 0.563247
vt 0.498860 0.570189
vt 0.376453 0.383814
vt 0.372456 0.352756
vt 0.502120 0.396272
vt 0.482168 0.427829
vt 0.392391 0.424640
vt 0.454139 0.457851
vt 0.391605 0.450715
vt 0.392391 0.424640
vt 0.454139 0.457851
vt 0.432771 0.476340
vt 0.316444 0.406226
vt 0.298244 0.382508
vt 0.340659 0.435031
vt 0.360050 0.468235
vt 0.340659 0.435031
vt 0.276422 0.451237
vt 0.254338 0.436807
vt 0.307306 0.463925
vt 0.338994 0.482576
vt 0.307306 0.463925
vt 0.274550 0.508872
vt 0.246054 0.509942
vt 0.299977 0.507883
vt 0.334080 0.508893
vt 0.299977 0.507883
vt 0.286274 0.560508
vt 0.265958 0.573661
vt 0.314840 0.552803
vt 0.342203 0.537614
vt 0.314840 0.552803
vt 0.339800 0.589278
vt 0.329365 0.615330
vt 0.363728 0.562071
vt 0.363728 0.562071
vt 0.379923 0.585685
vt 0.394459 0.613060
vt 0.425820 0.551032
vt 0.456207 0.563247
vt 0.411245 0.491632
vt 0.432771 0.476340
vt 0.381703 0.513245
vt 0.388333 0.476955
vt 0.391605 0.450715
vt 0.360050 0.468235
vt 0.338994 0.482576
vt 0.334080 0.508893
vt 0.342203 0.537614
vt 0.811231 0.184319
vt 0.847937 0.172264
vt 0.815280 0.214977
vt 0.753166 0.264200
vt 0.770783 0.273334
vt 0.697731 0.347266
vt 0.683708 0.338806
vt 0.633574 0.434516
vt 0.674328 0.398626
vt 0.633574 0.434516
vt 0.601678 0.484524
vt 0.601678 0.484524
vt 0.768790 0.469186
vt 0.803646 0.291581
vt 0.856512 0.264961
vt 0.861534 0.457600
vt 0.939597 0.494249
vt 0.928615 0.361085
vt 0.955912 0.363782
vt 0.972615 0.492727
vt 0.856512 0.264961
vt 0.957920 0.265632
vt 0.833912 0.534429
vt 0.928615 0.361085
vt 0.939597 0.494249
vt 0.970940 0.614352
vt 0.952225 0.663093
vt 0.913469 0.646092
vt 0.937741 0.594031
vt 0.806439 0.565121
vt 0.773644 0.543908
vt 0.937741 0.594031
vt 0.851884 0.115632
vt 0.851903 0.115672
vt 0.683708 0.338806
vt 0.986281 0.814216
vt 0.979861 0.886731
vt 0.633574 0.434516
vt 0.943534 0.969103
vt 0.933680 0.983846
vt 0.260883 0.042173
vt 0.579866 0.033046
vt 0.093822 0.170741
vt 0.014413 0.355823
vt 0.025124 0.546079
vt 0.098934 0.689739
vt 0.235138 0.795178
vt 0.464274 0.788287
vt 0.624149 0.690423
vt 0.568630 0.724440
vt 0.962523 0.940658
vt 0.913469 0.646092
vt 0.963837 0.662706
vt 0.980597 0.617642
vt 0.985545 0.676880
vt 0.851884 0.115632
vt 0.757240 0.086866
vt 0.989809 0.535921
vt 0.993059 0.681549
vt 0.872918 0.146571
vt 0.760085 0.967026
vt 0.754769 0.911796
vt 0.705246 0.932087
vt 0.665777 0.884773
vt 0.576705 0.911398
vt 0.660172 0.932233
vt 0.684451 0.978530
vt 0.716595 0.876305
vt 0.091779 0.147042
vt 0.137467 0.093954
vt 0.070965 0.079397
vt 0.128499 0.032087
vt 0.052356 0.007610
vt 0.008050 0.064095
vt 0.020791 0.132864
vt 0.815507 0.984401
vt 0.582070 0.989723
vt 0.610861 0.788676
vt 0.653672 0.811639
vt 0.751514 0.819536
vt 0.858447 0.884436
vt 0.912461 0.847606
vt 0.864601 0.807115
vt 0.795486 0.845586
vt 0.830133 0.792700
vt 0.777363 0.786003
vt 0.771895 0.724558
vt 0.719074 0.772900
vt 0.153775 0.884280
vt 0.160049 0.906033
vt 0.344235 0.904936
vt 0.336584 0.873626
vt 0.154206 0.928589
vt 0.332977 0.938728
vt 0.048258 0.904947
vt 0.042553 0.891769
vt 0.002918 0.904537
vt 0.042175 0.920082
vt 0.519387 0.860255
vt 0.534879 0.906067
vt 0.522051 0.949243
vt 0.313949 0.971831
vt 0.495097 0.995470
vt 0.315462 0.844607
vt 0.129816 0.863092
vt 0.031456 0.878652
vt 0.645454 0.688483
vt 0.717498 0.665666
vt 0.658020 0.601676
vt 0.753257 0.619616
vt 0.769730 0.705335
vt 0.767565 0.686111
vt 0.497881 0.822789
vt 0.129839 0.950957
vt 0.018746 0.933822
vt 0.152112 0.884913
vt 0.158102 0.906095
vt 0.344323 0.905033
vt 0.337183 0.872798
vt 0.153714 0.929036
vt 0.334452 0.938783
vt 0.047508 0.904506
vt 0.043183 0.892070
vt 0.003159 0.905026
vt 0.042697 0.920771
vt 0.518571 0.860322
vt 0.534490 0.905379
vt 0.521636 0.949396
vt 0.312747 0.971756
vt 0.495233 0.996005
vt 0.316638 0.845186
vt 0.129682 0.863759
vt 0.030954 0.878492
vt 0.498178 0.821965
vt 0.130026 0.951391
vt 0.020146 0.933876
vt 0.808154 0.673281
vt 0.829356 0.714835
vt 0.048065 0.904764
vt 0.042601 0.892268
vt 0.002177 0.905483
vt 0.042201 0.919760
vt 0.245317 0.879247
vt 0.143959 0.885757
vt 0.150178 0.905402
vt 0.252291 0.906040
vt 0.244132 0.933515
vt 0.143167 0.926637
vt 0.518218 0.859700
vt 0.534894 0.905824
vt 0.521511 0.949420
vt 0.220068 0.961083
vt 0.495595 0.995391
vt 0.032531 0.878447
vt 0.127929 0.866465
vt 0.498285 0.823027
vt 0.223326 0.854483
vt 0.119853 0.947315
vt 0.019639 0.933546
vt 0.891414 0.804775
vt 0.888068 0.776848
vt 0.840979 0.935189
vt 0.930769 0.818813
vt 0.753166 0.264200
vt 0.811231 0.184319
vt 0.567253 0.124990
vt 0.543670 0.250632
vt 0.332161 0.220342
vt 0.292779 0.120151
vt 0.358789 0.294952
vt 0.526957 0.334907
vt 0.372456 0.352756
vt 0.502120 0.396272
vt 0.526957 0.334907
vt 0.358789 0.294952
vt 0.220001 0.288419
vt 0.154236 0.224837
vt 0.264506 0.341335
vt 0.298244 0.382508
vt 0.264506 0.341335
vt 0.155233 0.393501
vt 0.086258 0.372916
vt 0.216020 0.419632
vt 0.254338 0.436807
vt 0.216020 0.419632
vt 0.147081 0.518084
vt 0.090567 0.529292
vt 0.209260 0.512350
vt 0.246054 0.509942
vt 0.209260 0.512350
vt 0.185925 0.623980
vt 0.143276 0.654639
vt 0.237257 0.591428
vt 0.265958 0.573661
vt 0.237257 0.591428
vt 0.274661 0.700895
vt 0.252781 0.749526
vt 0.315402 0.650559
vt 0.329365 0.615330
vt 0.315402 0.650559
vt 0.437742 0.699995
vt 0.451592 0.745626
vt 0.413610 0.647281
vt 0.394459 0.613060
vt 0.413610 0.647281
vt 0.550242 0.573819
vt 0.598023 0.658583
vt 0.498860 0.570189
vt 0.456207 0.563247
vt 0.498860 0.570189
vt 0.376453 0.383814
vt 0.482168 0.427829
vt 0.502120 0.396272
vt 0.372456 0.352756
vt 0.392391 0.424640
vt 0.454139 0.457851
vt 0.391605 0.450715
vt 0.432771 0.476340
vt 0.454139 0.457851
vt 0.392391 0.424640
vt 0.316444 0.406226
vt 0.298244 0.382508
vt 0.340659 0.435031
vt 0.360050 0.468235
vt 0.340659 0.435031
vt 0.276422 0.451237
vt 0.254338 0.436807
vt 0.307306 0.463925
vt 0.338994 0.482576
vt 0.307306 0.463925
vt 0.274550 0.508872
vt 0.246054 0.509942
vt 0.299977 0.507883
vt 0.334080 0.508893
vt 0.299977 0.507883
vt 0.286274 0.560508
vt 0.265958 0.573661
vt 0.314840 0.552803
vt 0.342203 0.537614
vt 0.314840 0.552803
vt 0.339800 0.589278
vt 0.329365 0.615330
vt 0.363728 0.562071
vt 0.363728 0.562071
vt 0.379923 0.585685
vt 0.394459 0.613060
vt 0.425820 0.551032
vt 0.456207 0.563247
vt 0.411245 0.491632
vt 0.432771 0.476340
vt 0.381703 0.513245
vt 0.388333 0.476955
vt 0.391605 0.450715
vt 0.360050 0.468235
vt 0.338994 0.482576
vt 0.334080 0.508893
vt 0.342203 0.537614
vt 0.811231 0.184319
vt 0.815280 0.214977
vt 0.847937 0.172264
vt 0.753166 0.264200
vt 0.683708 0.338806
vt 0.697731 0.347266
vt 0.770783 0.273334
vt 0.633574 0.434516
vt 0.674328 0.398626
vt 0.601678 0.484524
vt 0.633574 0.434516
vt 0.601678 0.484524
vt 0.768790 0.469186
vt 0.861534 0.457600
vt 0.856512 0.264961
vt 0.803646 0.291581
vt 0.939597 0.494249
vt 0.972615 0.492727
vt 0.955912 0.363782
vt 0.928615 0.361085
vt 0.957920 0.265632
vt 0.856512 0.264961
vt 0.833912 0.534429
vt 0.939597 0.494249
vt 0.928615 0.361085
vt 0.970940 0.614352
vt 0.937741 0.594031
vt 0.937741 0.594031
vt 0.683708 0.338806
vt 0.633574 0.434516
vt 0.980597 0.617642
vt 0.989809 0.535921
vn -0.70284 0.70756 0.07330
vn -0.73671 0.67607 -0.01405
vn -0.69658 0.71216 0.08722
vn -0.89891 0.41674 -0.13520
vn -0.69291 0.64839 -0.31539
vn -0.84418 0.48297 -0.23258
vn -0.73644 0.62873 -0.24971
vn -0.83672 0.53399 0.12150
vn -0.49110 0.87110 0.00022
vn -0.79116 0.61076 0.03222
vn -0.76079 0.63224 -0.14652
vn -0.96220 0.24651 -0.11577
vn -0.96501 0.24316 0.09817
vn -0.77262 0.59760 0.21434
vn -0.51030 0.85026 0.12904
vn -0.33164 0.93835 -0.09751
vn -0.76568 0.50247 -0.40157
vn -0.95884 -0.28390 0.00440
vn -0.99957 -0.02904 0.00404
vn -0.99461 0.09146 -0.04880
vn -0.40969 0.83585 -0.36538
vn -0.91876 0.20754 -0.33587
vn -0.14992 0.87522 -0.45991
vn -0.80987 0.48864 -0.32456
vn -0.59405 0.13604 -0.79284
vn -0.99558 0.00319 -0.09389
vn -0.79593 -0.60531 -0.00999
vn -0.43253 -0.90077 -0.03925
vn -0.09270 0.68815 -0.71962
vn 0.05019 0.53223 -0.84511
vn -0.81241 0.45044 0.37028
vn -0.81397 0.30990 0.49133
vn -0.15126 -0.72915 0.66743
vn 0.05712 -0.82864 0.55687
vn -0.85611 0.05172 0.51419
vn -0.44151 -0.52223 -0.72962
vn -0.15280 0.59227 -0.79112
vn 0.12046 -0.95084 0.28529
vn -0.59405 0.13604 -0.79284
vn -0.99558 0.00319 -0.09389
vn -0.43253 -0.90077 -0.03925
vn 0.13601 -0.50663 -0.85137
vn 0.65669 -0.58015 -0.48185
vn 0.68825 -0.43783 -0.57846
vn 0.65669 -0.58015 -0.48185
vn 0.55350 -0.47138 -0.68661
vn -0.45231 -0.72910 0.51364
vn -0.06133 -0.88371 0.46401
vn -0.33171 -0.71574 0.61456
vn -0.00000 -0.98825 0.15282
vn 0.00000 -0.81466 -0.57993
vn 0.56892 -0.82236 -0.00756
vn -0.57611 -0.68307 -0.44891
vn -0.91421 -0.39708 -0.08093
vn 0.13601 -0.50663 -0.85137
vn 0.68825 -0.43783 -0.57846
vn 0.55350 -0.47138 -0.68661
vn -0.96058 0.27794 0.00541
vn -0.94778 0.26567 -0.17645
vn -0.38026 -0.16605 0.90985
vn -0.27831 -0.19359 0.94078
vn 0.83570 -0.44935 0.31575
vn 0.88525 -0.45454 0.09861
vn -0.16894 -0.43934 0.88229
vn -0.49596 -0.84096 -0.21633
vn -0.98569 0.13891 -0.09549
vn 0.78941 -0.58268 -0.19317
vn -0.91421 -0.39708 -0.08093
vn -0.33171 -0.71574 0.61456
vn 0.56892 -0.82236 -0.00756
vn -0.16384 -0.56461 -0.80893
vn 0.10232 0.05347 -0.99331
vn -0.04031 0.11050 -0.99306
vn 0.10232 0.05347 -0.99331
vn -0.05745 -0.13464 -0.98923
vn -0.16384 -0.56461 -0.80893
vn -0.04031 0.11050 -0.99306
vn -0.05745 -0.13464 -0.98923
vn -0.16384 -0.56461 -0.80893
vn 0.00000 -0.72232 -0.69156
vn 0.00000 -0.62004 -0.78457
vn 0.13601 -0.50663 -0.85137
vn -0.11866 0.96806 -0.22088
vn -0.09277 -0.14193 -0.98552
vn 0.87170 0.05924 -0.48644
vn -0.97746 -0.20503 -0.05028
vn 0.93601 -0.14493 -0.32075
vn -0.03145 0.99462 -0.09868
vn -0.06049 0.99504 -0.07895
vn 0.94469 0.04299 -0.32513
vn -0.98100 -0.09555 0.16887
vn -0.97497 -0.14563 0.16800
vn 0.41260 -0.12082 -0.90286
vn -0.14992 0.87522 -0.45991
vn -0.91876 0.20754 -0.33587
vn 0.14841 -0.87592 -0.45906
vn -0.12056 -0.99250 -0.02025
vn 0.09897 -0.96999 -0.22208
vn 0.07076 -0.99438 -0.07875
vn -0.12056 -0.99250 -0.02025
vn 0.14841 -0.87592 -0.45906
vn 0.07076 -0.99438 -0.07875
vn 0.09897 -0.96999 -0.22208
vn 0.01842 -0.60023 -0.79962
vn 0.14841 -0.87592 -0.45906
vn -0.40526 0.90301 -0.14263
vn 0.00000 -0.49120 -0.87104
vn 0.00000 -0.37644 -0.92644
vn 0.41260 -0.12082 -0.90286
vn -0.81596 -0.54230 0.20031
vn -0.98515 0.11363 0.12871
vn -0.53894 -0.76966 0.34230
vn -0.37224 -0.91074 0.17884
vn -0.99673 -0.03153 0.07442
vn -0.52451 -0.44737 0.72440
vn -0.80625 0.51624 -0.28889
vn -0.76028 0.63993 0.11163
vn -0.35860 0.77820 -0.51557
vn -0.37874 0.61763 -0.68927
vn -0.31011 0.94043 -0.13938
vn -0.25536 0.96556 0.04990
vn -0.99116 0.00450 0.13260
vn -0.54698 0.06428 0.83467
vn -0.85587 0.19203 -0.48021
vn -0.37335 0.22006 -0.90121
vn -0.38405 -0.00045 -0.92331
vn -0.99076 0.07843 0.11067
vn -0.62820 0.44991 0.63478
vn -0.87925 -0.14867 -0.45257
vn -0.41350 -0.37331 -0.83045
vn -0.44956 -0.51690 -0.72850
vn -0.97642 0.20993 0.05038
vn -0.55774 0.76669 0.31799
vn -0.93647 -0.25895 -0.23659
vn -0.43519 -0.76398 -0.47639
vn -0.41909 -0.84996 -0.31927
vn -0.96243 0.26613 -0.05392
vn -0.66635 0.73676 -0.11474
vn -0.98963 -0.11906 -0.08033
vn -0.39475 -0.91861 0.01780
vn -0.38692 -0.90130 0.19480
vn -0.97176 0.17476 -0.15859
vn -0.56326 0.55296 -0.61398
vn -0.99818 -0.05972 -0.00831
vn -0.38757 -0.72161 0.57364
vn -0.38048 -0.52520 0.76118
vn -0.97514 0.00311 -0.22159
vn -0.62631 -0.10129 -0.77297
vn -0.99661 -0.04955 0.06567
vn -0.35395 -0.10303 0.92957
vn -0.35513 0.11335 0.92792
vn -0.94640 -0.23236 -0.22435
vn -0.61575 -0.34150 -0.71009
vn -0.99366 0.05688 0.09699
vn -0.37556 0.65755 0.65314
vn -0.35484 0.66028 0.66190
vn -0.98103 -0.16944 0.09419
vn -0.85760 -0.31480 0.40672
vn -0.81289 -0.57337 0.10228
vn -0.98536 -0.16827 0.02726
vn -0.98883 0.13753 -0.05746
vn -0.98808 0.13280 0.07783
vn -0.66973 0.58213 -0.46107
vn -0.81225 0.38399 -0.43909
vn -0.49328 0.86950 -0.02529
vn -0.42057 0.89948 -0.11854
vn -0.97090 -0.03497 0.23693
vn -0.81241 -0.01604 0.58286
vn -0.99057 0.05100 -0.12714
vn -0.83170 0.15359 -0.53356
vn -0.86105 0.07657 -0.50272
vn -0.97384 0.08479 0.21083
vn -0.87845 0.27073 0.39375
vn -0.99454 -0.00954 -0.10388
vn -0.87855 -0.16876 -0.44684
vn -0.89933 -0.25134 -0.35783
vn -0.98418 0.15203 0.09101
vn -0.90002 0.41440 0.13506
vn -0.99282 -0.09365 -0.07447
vn -0.90534 -0.36911 -0.21007
vn -0.92755 -0.34751 -0.13743
vn -0.98539 0.16877 -0.02271
vn -0.88043 0.44670 -0.15906
vn -0.99119 -0.13104 -0.01947
vn -0.91903 -0.39214 0.04019
vn -0.90941 -0.40295 0.10298
vn -0.97487 0.15419 -0.16081
vn -0.86008 0.22686 -0.45695
vn -0.99839 0.00868 0.05601
vn -0.88484 -0.38174 0.26710
vn -0.95045 -0.00710 -0.31079
vn -0.78430 -0.08455 -0.61459
vn -0.94985 -0.17884 -0.25652
vn -0.81660 -0.48092 -0.31918
vn -0.88930 -0.45708 -0.01484
vn -0.75672 -0.64376 0.11379
vn -0.99108 0.09595 0.09246
vn -0.88806 -0.33850 0.31107
vn -0.76328 -0.47477 0.43817
vn -0.91581 -0.05742 0.39749
vn -0.96482 0.09819 0.24387
vn -0.95968 0.25760 0.11255
vn -0.94353 0.32898 0.03908
vn -0.40695 -0.74851 -0.52357
vn -0.27984 -0.76913 -0.57457
vn -0.51905 -0.68039 -0.51736
vn -0.68016 -0.23876 -0.69309
vn -0.73110 -0.20417 -0.65100
vn -0.58997 0.27363 -0.75965
vn -0.49000 0.25204 -0.83449
vn -0.54998 0.38435 -0.74149
vn -0.62256 0.39652 -0.67468
vn -0.22585 0.94097 0.25211
vn -0.18998 0.95524 0.22675
vn -0.82049 -0.52989 -0.21449
vn -0.42020 0.90318 -0.08770
vn -0.17207 0.86769 0.46637
vn -0.49638 0.86392 0.08513
vn -0.55743 0.80143 -0.21674
vn -0.67707 -0.38357 -0.62805
vn -0.78384 -0.43943 -0.43874
vn -0.70671 -0.51908 -0.48075
vn -0.71741 -0.13112 -0.68420
vn -0.93305 -0.12780 -0.33627
vn -0.84368 -0.37561 -0.38356
vn -0.34806 0.84672 -0.40238
vn -0.68187 0.70167 -0.20667
vn -0.59798 0.77054 -0.22064
vn -0.50876 0.42856 -0.74666
vn -0.00000 0.69976 -0.71438
vn -0.00000 0.57129 -0.82075
vn -0.56563 0.15197 -0.81054
vn 0.00000 0.90899 -0.41682
vn 0.00000 0.79104 -0.61177
vn -0.32560 0.92238 -0.20783
vn 0.00000 -0.80373 -0.59500
vn 0.00000 -0.77415 -0.63301
vn -0.88369 0.39593 0.24966
vn -0.00000 -0.06626 -0.99780
vn -0.00000 0.50629 -0.86236
vn -0.74315 0.60862 0.27803
vn -0.00000 0.95904 -0.28327
vn 0.00000 0.98136 -0.19215
vn -0.00000 -0.73346 0.67973
vn -0.00000 -0.95354 0.30125
vn 0.00000 -0.14656 0.98920
vn 0.00000 0.51493 0.85723
vn 0.00000 0.89667 0.44271
vn -0.00000 0.99580 -0.09154
vn -0.00000 0.71530 -0.69882
vn -0.00000 0.15304 -0.98822
vn -0.00000 -0.28148 -0.95957
vn 0.00000 -0.29730 -0.95478
vn 0.00000 0.93058 -0.36610
vn 0.00000 0.98130 -0.19246
vn 0.00000 -0.74756 -0.66420
vn -0.06959 -0.84266 -0.53393
vn -0.00000 -0.82095 -0.57100
vn 0.00000 -0.98017 0.19818
vn 0.00000 0.00000 0.00000
vn -0.07587 -0.88474 -0.45987
vn -0.00000 -0.88505 -0.46549
vn -0.00000 -0.74299 -0.66930
vn 0.70284 0.70756 0.07330
vn 0.69658 0.71216 0.08722
vn 0.73671 0.67607 -0.01405
vn 0.89891 0.41674 -0.13520
vn 0.84418 0.48297 -0.23258
vn 0.69291 0.64839 -0.31539
vn 0.73644 0.62873 -0.24971
vn 0.83672 0.53399 0.12150
vn 0.49110 0.87110 0.00022
vn 0.76079 0.63224 -0.14652
vn 0.79116 0.61076 0.03222
vn 0.96220 0.24651 -0.11577
vn 0.96501 0.24316 0.09817
vn 0.77262 0.59760 0.21434
vn 0.51029 0.85026 0.12904
vn 0.33164 0.93835 -0.09751
vn 0.76568 0.50247 -0.40157
vn 0.95884 -0.28390 0.00440
vn 0.99957 -0.02904 0.00404
vn 0.99461 0.09146 -0.04880
vn 0.40969 0.83585 -0.36538
vn 0.14992 0.87522 -0.45991
vn 0.91876 0.20754 -0.33587
vn 0.80987 0.48864 -0.32456
vn 0.59405 0.13604 -0.79285
vn 0.99558 0.00319 -0.09389
vn 0.43253 -0.90077 -0.03925
vn 0.79593 -0.60531 -0.00999
vn 0.09270 0.68815 -0.71962
vn 0.81397 0.30990 0.49133
vn 0.81241 0.45044 0.37028
vn -0.05019 0.53223 -0.84511
vn -0.05712 -0.82864 0.55687
vn 0.15126 -0.72915 0.66743
vn 0.85611 0.05172 0.51419
vn 0.15280 0.59227 -0.79112
vn 0.44151 -0.52223 -0.72962
vn -0.12046 -0.95084 0.28529
vn 0.59405 0.13604 -0.79285
vn 0.99558 0.00319 -0.09389
vn 0.43253 -0.90077 -0.03925
vn -0.65669 -0.58015 -0.48185
vn -0.13601 -0.50663 -0.85137
vn -0.65669 -0.58015 -0.48185
vn -0.68825 -0.43783 -0.57846
vn -0.55350 -0.47138 -0.68661
vn 0.45231 -0.72910 0.51365
vn 0.33171 -0.71574 0.61456
vn 0.06133 -0.88371 0.46401
vn -0.56892 -0.82236 -0.00756
vn 0.57611 -0.68307 -0.44891
vn 0.91421 -0.39708 -0.08093
vn -0.13601 -0.50663 -0.85137
vn -0.68825 -0.43783 -0.57846
vn -0.55350 -0.47138 -0.68661
vn 0.96058 0.27794 0.00540
vn 0.27831 -0.19359 0.94078
vn 0.38026 -0.16605 0.90985
vn 0.94778 0.26567 -0.17645
vn -0.88525 -0.45454 0.09861
vn -0.83570 -0.44935 0.31575
vn 0.16894 -0.43934 0.88229
vn 0.98569 0.13891 -0.09549
vn 0.49596 -0.84096 -0.21633
vn -0.78941 -0.58268 -0.19317
vn 0.91421 -0.39708 -0.08093
vn 0.33171 -0.71574 0.61456
vn -0.56892 -0.82236 -0.00756
vn -0.10232 0.05347 -0.99331
vn 0.16384 -0.56461 -0.80893
vn -0.10232 0.05347 -0.99331
vn 0.04031 0.11050 -0.99306
vn 0.05745 -0.13464 -0.98923
vn 0.16384 -0.56461 -0.80893
vn 0.04031 0.11050 -0.99306
vn 0.05745 -0.13464 -0.98923
vn 0.16384 -0.56461 -0.80893
vn -0.13601 -0.50663 -0.85137
vn 0.11866 0.96806 -0.22088
vn -0.87170 0.05924 -0.48644
vn 0.09277 -0.14193 -0.98552
vn 0.97746 -0.20503 -0.05028
vn -0.93601 -0.14493 -0.32075
vn -0.94469 0.04299 -0.32513
vn 0.06049 0.99504 -0.07895
vn 0.03144 0.99462 -0.09868
vn 0.98100 -0.09555 0.16887
vn 0.97497 -0.14563 0.16799
vn -0.41260 -0.12082 -0.90286
vn 0.14992 0.87522 -0.45991
vn 0.91876 0.20754 -0.33587
vn 0.12056 -0.99250 -0.02025
vn -0.14841 -0.87592 -0.45906
vn -0.09897 -0.96999 -0.22208
vn -0.07076 -0.99438 -0.07875
vn -0.14841 -0.87592 -0.45906
vn 0.12056 -0.99250 -0.02025
vn -0.07076 -0.99438 -0.07875
vn -0.09897 -0.96999 -0.22208
vn -0.14841 -0.87592 -0.45906
vn -0.01842 -0.60023 -0.79962
vn 0.40526 0.90301 -0.14263
vn -0.41260 -0.12082 -0.90286
vn 0.81596 -0.54230 0.20031
vn 0.37224 -0.91074 0.17884
vn 0.53894 -0.76966 0.34230
vn 0.98515 0.11363 0.12871
vn 0.99673 -0.03153 0.07442
vn 0.52451 -0.44737 0.72440
vn 0.80625 0.51624 -0.28889
vn 0.76028 0.63993 0.11163
vn 0.35860 0.77820 -0.51557
vn 0.25536 0.96556 0.04990
vn 0.31011 0.94043 -0.13938
vn 0.37874 0.61763 -0.68927
vn 0.99116 0.00450 0.13260
vn 0.54698 0.06428 0.83467
vn 0.85587 0.19203 -0.48021
vn 0.37335 0.22006 -0.90121
vn 0.38405 -0.00045 -0.92331
vn 0.99076 0.07843 0.11067
vn 0.62820 0.44991 0.63478
vn 0.87925 -0.14867 -0.45257
vn 0.41350 -0.37331 -0.83045
vn 0.44956 -0.51690 -0.72850
vn 0.97642 0.20993 0.05038
vn 0.55774 0.76669 0.31799
vn 0.93647 -0.25895 -0.23659
vn 0.43519 -0.76398 -0.47639
vn 0.41909 -0.84996 -0.31927
vn 0.96243 0.26613 -0.05392
vn 0.66635 0.73676 -0.11474
vn 0.98963 -0.11906 -0.08033
vn 0.39475 -0.91861 0.01780
vn 0.38692 -0.90130 0.19480
vn 0.97176 0.17476 -0.15859
vn 0.56326 0.55296 -0.61398
vn 0.99818 -0.05972 -0.00831
vn 0.38757 -0.72161 0.57364
vn 0.38048 -0.52520 0.76118
vn 0.97514 0.00311 -0.22159
vn 0.62631 -0.10129 -0.77297
vn 0.99661 -0.04955 0.06567
vn 0.35395 -0.10303 0.92957
vn 0.35513 0.11335 0.92792
vn 0.94640 -0.23236 -0.22435
vn 0.61575 -0.34150 -0.71009
vn 0.99366 0.05688 0.09699
vn 0.37556 0.65755 0.65314
vn 0.35484 0.66028 0.66190
vn 0.98103 -0.16944 0.09419
vn 0.98536 -0.16827 0.02726
vn 0.81289 -0.57337 0.10228
vn 0.85760 -0.31480 0.40672
vn 0.98883 0.13753 -0.05746
vn 0.98808 0.13280 0.07783
vn 0.66973 0.58213 -0.46107
vn 0.42057 0.89948 -0.11854
vn 0.49328 0.86950 -0.02529
vn 0.81225 0.38399 -0.43909
vn 0.97090 -0.03497 0.23693
vn 0.81241 -0.01604 0.58286
vn 0.99057 0.05100 -0.12714
vn 0.83170 0.15359 -0.53356
vn 0.86105 0.07657 -0.50272
vn 0.97384 0.08479 0.21083
vn 0.87845 0.27073 0.39375
vn 0.99454 -0.00954 -0.10388
vn 0.87855 -0.16876 -0.44684
vn 0.89933 -0.25134 -0.35783
vn 0.98418 0.15203 0.09101
vn 0.90002 0.41440 0.13506
vn 0.99282 -0.09365 -0.07447
vn 0.90534 -0.36911 -0.21007
vn 0.92755 -0.34751 -0.13743
vn 0.98539 0.16877 -0.02271
vn 0.88043 0.44670 -0.15906
vn 0.99119 -0.13104 -0.01947
vn 0.91903 -0.39214 0.04019
vn 0.90941 -0.40295 0.10298
vn 0.97487 0.15419 -0.16081
vn 0.86008 0.22686 -0.45695
vn 0.99839 0.00868 0.05601
vn 0.88484 -0.38174 0.26710
vn 0.95045 -0.00710 -0.31079
vn 0.78430 -0.08455 -0.61459
vn 0.94985 -0.17884 -0.25652
vn 0.81660 -0.48092 -0.31918
vn 0.88930 -0.45708 -0.01484
vn 0.75672 -0.64376 0.11379
vn 0.99108 0.09595 0.09246
vn 0.88806 -0.33850 0.31107
vn 0.76328 -0.47477 0.43817
vn 0.91581 -0.05742 0.39749
vn 0.96482 0.09819 0.24387
vn 0.95968 0.25760 0.11255
vn 0.94353 0.32898 0.03908
vn 0.40695 -0.74851 -0.52357
vn 0.51905 -0.68039 -0.51735
vn 0.27984 -0.76913 -0.57457
vn 0.68016 -0.23876 -0.69309
vn 0.49000 0.25204 -0.83449
vn 0.58997 0.27363 -0.75965
vn 0.73110 -0.20417 -0.65100
vn 0.54998 0.38435 -0.74149
vn 0.62256 0.39652 -0.67468
vn 0.18998 0.95524 0.22675
vn 0.22585 0.94097 0.25211
vn 0.82049 -0.52989 -0.21449
vn 0.42020 0.90318 -0.08770
vn 0.55743 0.80143 -0.21674
vn 0.49638 0.86392 0.08513
vn 0.17207 0.86769 0.46637
vn 0.67707 -0.38357 -0.62805
vn 0.71741 -0.13112 -0.68420
vn 0.70671 -0.51908 -0.48075
vn 0.78384 -0.43943 -0.43874
vn 0.84368 -0.37561 -0.38356
vn 0.93305 -0.12780 -0.33627
vn 0.34806 0.84672 -0.40238
vn 0.59798 0.77054 -0.22064
vn 0.68187 0.70167 -0.20667
vn 0.50876 0.42856 -0.74666
vn 0.56563 0.15197 -0.81054
vn 0.32560 0.92238 -0.20783
vn 0.88369 0.39593 0.24966
vn 0.74315 0.60862 0.27803
vn 0.06959 -0.84266 -0.53393
vn 0.07587 -0.88474 -0.45987
f 119/119/119 118/118/118 125/125/125
f 120/120/120 121/121/121 118/118/118
f 118/118/118 119/119/119 120/120/120
f 125/125/125 126/126/126 119/119/119
f 126/126/126 125/125/125 130/130/130
f 130/130/130 131/131/131 126/126/126
f 131/131/131 130/130/130 135/135/135
f 135/135/135 136/136/136 131/131/131
f 136/136/136 135/135/135 140/140/140
f 140/140/140 141/141/141 136/136/136
f 382/382/382 375/375/375 378/378/378
f 377/377/377 378/378/378 375/375/375
f 375/375/375 376/376/376 377/377/377
f 387/387/387 382/382/382 383/383/383
f 378/378/378 383/383/383 382/382/382
f 392/392/392 387/387/387 388/388/388
f 383/383/383 388/388/388 387/387/387
f 397/397/397 392/392/392 393/393/393
f 388/388/388 393/393/393 392/392/392
f 402/402/402 397/397/397 398/398/398
f 471/471/471 377/377/377 376/376/376
f 376/376/376 470/470/470 471/471/471
f 213/213/213 214/214/214 121/121/121
f 121/121/121 120/120/120 213/213/213
f 83/83/83 89/89/89 92/92/92
f 92/92/92 86/86/86 83/83/83
f 90/90/90 89/89/89 83/83/83
f 83/83/83 85/85/85 90/90/90
f 86/86/86 84/84/84 83/83/83
f 83/83/83 84/84/84 85/85/85
f 89/89/89 88/88/88 91/91/91
f 91/91/91 92/92/92 89/89/89
f 89/89/89 90/90/90 87/87/87
f 87/87/87 88/88/88 89/89/89
f 1/1/1 3/3/3 106/106/106
f 106/106/106 16/16/16 1/1/1
f 16/16/16 7/7/7 1/1/1
f 7/7/7 2/2/2 1/1/1
f 1/1/1 2/2/2 3/3/3
f 21/21/21 106/106/106 3/3/3
f 3/3/3 24/24/24 21/21/21
f 24/24/24 3/3/3 8/8/8
f 2/2/2 8/8/8 3/3/3
f 242/242/242 106/106/106 21/21/21
f 219/219/219 228/228/228 235/235/235
f 219/219/219 227/227/227 228/228/228
f 235/235/235 255/255/255 233/233/233
f 488/488/488 483/483/483 233/233/233
f 233/233/233 255/255/255 488/488/488
f 474/474/474 483/483/483 488/488/488
f 473/473/473 483/483/483 474/474/474
f 475/475/475 476/476/476 473/473/473
f 473/473/473 474/474/474 475/475/475
f 474/474/474 485/485/485 475/475/475
f 488/488/488 484/484/484 474/474/474
f 474/474/474 484/484/484 485/485/485
f 444/444/444 439/439/439 440/440/440
f 440/440/440 445/445/445 444/444/444
f 444/444/444 448/448/448 446/446/446
f 448/448/448 444/444/444 445/445/445
f 446/446/446 450/450/450 454/454/454
f 454/454/454 460/460/460 446/446/446
f 448/448/448 450/450/450 446/446/446
f 450/450/450 448/448/448 449/449/449
f 445/445/445 449/449/449 448/448/448
f 450/450/450 452/452/452 454/454/454
f 452/452/452 450/450/450 451/451/451
f 449/449/449 451/451/451 450/450/450
f 452/452/452 455/455/455 454/454/454
f 455/455/455 452/452/452 453/453/453
f 451/451/451 453/453/453 452/452/452
f 455/455/455 457/457/457 454/454/454
f 456/456/456 457/457/457 455/455/455
f 453/453/453 456/456/456 455/455/455
f 457/457/457 458/458/458 454/454/454
f 458/458/458 459/459/459 454/454/454
f 459/459/459 460/460/460 454/454/454
f 278/278/278 272/272/272 274/274/274
f 272/272/272 273/273/273 274/274/274
f 277/277/277 278/278/278 274/274/274
f 274/274/274 273/273/273 275/275/275
f 276/276/276 277/277/277 274/274/274
f 275/275/275 276/276/276 274/274/274
f 15/15/15 10/10/10 9/9/9
f 9/9/9 10/10/10 11/11/11
f 14/14/14 10/10/10 15/15/15
f 10/10/10 12/12/12 11/11/11
f 13/13/13 10/10/10 14/14/14
f 12/12/12 10/10/10 13/13/13
f 234/234/234 216/216/216 226/226/226
f 216/216/216 219/219/219 226/226/226
f 218/218/218 219/219/219 216/216/216
f 216/216/216 217/217/217 218/218/218
f 234/234/234 233/233/233 483/483/483
f 483/483/483 473/473/473 234/234/234
f 226/226/226 233/233/233 234/234/234
f 233/233/233 226/226/226 235/235/235
f 235/235/235 226/226/226 219/219/219
f 219/219/219 218/218/218 227/227/227
f 373/373/373 374/374/374 370/370/370
f 489/489/489 370/370/370 374/374/374
f 367/367/367 370/370/370 489/489/489
f 369/369/369 370/370/370 367/367/367
f 367/367/367 368/368/368 369/369/369
f 374/374/374 490/490/490 489/489/489
f 391/391/391 386/386/386 384/384/384
f 396/396/396 391/391/391 389/389/389
f 384/384/384 389/389/389 391/391/391
f 401/401/401 396/396/396 394/394/394
f 389/389/389 394/394/394 396/396/396
f 394/394/394 389/389/389 390/390/390
f 385/385/385 390/390/390 389/389/389
f 389/389/389 384/384/384 385/385/385
f 394/394/394 399/399/399 401/401/401
f 399/399/399 394/394/394 395/395/395
f 390/390/390 395/395/395 394/394/394
f 406/406/406 401/401/401 399/399/399
f 399/399/399 404/404/404 406/406/406
f 404/404/404 399/399/399 400/400/400
f 395/395/395 400/400/400 399/399/399
f 400/400/400 395/395/395 249/249/249
f 249/249/249 395/395/395 390/390/390
f 251/251/251 405/405/405 400/400/400
f 400/400/400 250/250/250 251/251/251
f 249/249/249 250/250/250 400/400/400
f 400/400/400 405/405/405 404/404/404
f 404/404/404 409/409/409 411/411/411
f 411/411/411 406/406/406 404/404/404
f 409/409/409 404/404/404 405/405/405
f 251/251/251 253/253/253 405/405/405
f 253/253/253 410/410/410 405/405/405
f 405/405/405 410/410/410 409/409/409
f 251/251/251 148/148/148 253/253/253
f 251/251/251 250/250/250 143/143/143
f 143/143/143 148/148/148 251/251/251
f 143/143/143 250/250/250 249/249/249
f 249/249/249 138/138/138 143/143/143
f 143/143/143 142/142/142 147/147/147
f 147/147/147 148/148/148 143/143/143
f 142/142/142 143/143/143 138/138/138
f 148/148/148 153/153/153 253/253/253
f 148/148/148 147/147/147 152/152/152
f 152/152/152 153/153/153 148/148/148
f 253/253/253 252/252/252 410/410/410
f 153/153/153 252/252/252 253/253/253
f 410/410/410 472/472/472 409/409/409
f 472/472/472 416/416/416 415/415/415
f 415/415/415 409/409/409 472/472/472
f 411/411/411 409/409/409 415/415/415
f 415/415/415 419/419/419 411/411/411
f 415/415/415 414/414/414 418/418/418
f 418/418/418 419/419/419 415/415/415
f 414/414/414 415/415/415 416/416/416
f 416/416/416 417/417/417 414/414/414
f 414/414/414 424/424/424 426/426/426
f 426/426/426 418/418/418 414/414/414
f 424/424/424 414/414/414 417/417/417
f 417/417/417 425/425/425 424/424/424
f 73/73/73 58/58/58 66/66/66
f 74/74/74 59/59/59 58/58/58
f 58/58/58 73/73/73 74/74/74
f 66/66/66 58/58/58 61/61/61
f 60/60/60 61/61/61 58/58/58
f 58/58/58 59/59/59 60/60/60
f 66/66/66 75/75/75 73/73/73
f 66/66/66 65/65/65 75/75/75
f 61/61/61 64/64/64 66/66/66
f 64/64/64 65/65/65 66/66/66
f 326/326/326 319/319/319 335/335/335
f 334/334/334 335/335/335 319/319/319
f 319/319/319 322/322/322 334/334/334
f 320/320/320 319/319/319 326/326/326
f 321/321/321 322/322/322 319/319/319
f 319/319/319 320/320/320 321/321/321
f 326/326/326 336/336/336 327/327/327
f 335/335/335 336/336/336 326/326/326
f 326/326/326 325/325/325 320/320/320
f 325/325/325 326/326/326 327/327/327
f 158/158/158 157/157/157 167/167/167
f 157/157/157 158/158/158 159/159/159
f 167/167/167 169/169/169 174/174/174
f 174/174/174 172/172/172 167/167/167
f 168/168/168 167/167/167 172/172/172
f 167/167/167 168/168/168 158/158/158
f 172/172/172 174/174/174 179/179/179
f 179/179/179 177/177/177 172/172/172
f 173/173/173 172/172/172 177/177/177
f 172/172/172 173/173/173 168/168/168
f 177/177/177 179/179/179 184/184/184
f 184/184/184 182/182/182 177/177/177
f 178/178/178 177/177/177 182/182/182
f 177/177/177 178/178/178 173/173/173
f 182/182/182 184/184/184 189/189/189
f 189/189/189 187/187/187 182/182/182
f 183/183/183 182/182/182 187/187/187
f 182/182/182 183/183/183 178/178/178
f 189/189/189 203/203/203 197/197/197
f 197/197/197 193/193/193 189/189/189
f 191/191/191 189/189/189 193/193/193
f 187/187/187 189/189/189 191/191/191
f 188/188/188 187/187/187 191/191/191
f 187/187/187 188/188/188 183/183/183
f 192/192/192 191/191/191 193/193/193
f 191/191/191 192/192/192 188/188/188
f 193/193/193 197/197/197 195/195/195
f 194/194/194 193/193/193 195/195/195
f 193/193/193 194/194/194 192/192/192
f 202/202/202 197/197/197 203/203/203
f 201/201/201 197/197/197 202/202/202
f 200/200/200 197/197/197 201/201/201
f 198/198/198 197/197/197 200/200/200
f 195/195/195 197/197/197 198/198/198
f 196/196/196 195/195/195 198/198/198
f 195/195/195 196/196/196 194/194/194
f 199/199/199 198/198/198 200/200/200
f 198/198/198 199/199/199 196/196/196
f 153/153/153 152/152/152 215/215/215
f 215/215/215 152/152/152 160/160/160
f 160/160/160 152/152/152 154/154/154
f 154/154/154 152/152/152 147/147/147
f 160/160/160 159/159/159 215/215/215
f 154/154/154 162/162/162 160/160/160
f 160/160/160 162/162/162 161/161/161
f 161/161/161 157/157/157 160/160/160
f 159/159/159 160/160/160 157/157/157
f 147/147/147 149/149/149 154/154/154
f 393/393/393 398/398/398 397/397/397
f 407/407/407 402/402/402 403/403/403
f 398/398/398 403/403/403 402/402/402
f 412/412/412 407/407/407 408/408/408
f 403/403/403 408/408/408 407/407/407
f 422/422/422 421/421/421 412/412/412
f 412/412/412 413/413/413 422/422/422
f 408/408/408 413/413/413 412/412/412
f 422/422/422 423/423/423 420/420/420
f 420/420/420 421/421/421 422/422/422
f 423/423/423 428/428/428 427/427/427
f 427/427/427 420/420/420 423/423/423
f 428/428/428 433/433/433 432/432/432
f 432/432/432 427/427/427 428/428/428
f 433/433/433 438/438/438 437/437/437
f 437/437/437 432/432/432 433/433/433
f 438/438/438 443/443/443 442/442/442
f 442/442/442 437/437/437 438/438/438
f 443/443/443 447/447/447 442/442/442
f 141/141/141 140/140/140 145/145/145
f 145/145/145 146/146/146 141/141/141
f 146/146/146 145/145/145 150/150/150
f 150/150/150 151/151/151 146/146/146
f 151/151/151 150/150/150 155/155/155
f 155/155/155 156/156/156 151/151/151
f 165/165/165 156/156/156 155/155/155
f 155/155/155 166/166/166 165/165/165
f 165/165/165 166/166/166 163/163/163
f 163/163/163 164/164/164 165/165/165
f 164/164/164 163/163/163 170/170/170
f 170/170/170 171/171/171 164/164/164
f 171/171/171 170/170/170 175/175/175
f 175/175/175 176/176/176 171/171/171
f 176/176/176 175/175/175 180/180/180
f 180/180/180 181/181/181 176/176/176
f 181/181/181 180/180/180 185/185/185
f 185/185/185 186/186/186 181/181/181
f 186/186/186 185/185/185 190/190/190
f 296/296/296 293/293/293 298/298/298
f 297/297/297 294/294/294 293/293/293
f 293/293/293 296/296/296 297/297/297
f 304/304/304 303/303/303 294/294/294
f 294/294/294 297/297/297 304/304/304
f 294/294/294 303/303/303 302/302/302
f 302/302/302 295/295/295 294/294/294
f 316/316/316 307/307/307 295/295/295
f 295/295/295 302/302/302 316/316/316
f 305/305/305 306/306/306 304/304/304
f 304/304/304 297/297/297 305/305/305
f 305/305/305 297/297/297 296/296/296
f 296/296/296 317/317/317 305/305/305
f 317/317/317 296/296/296 301/301/301
f 298/298/298 301/301/301 296/296/296
f 301/301/301 318/318/318 317/317/317
f 318/318/318 301/301/301 300/300/300
f 301/301/301 298/298/298 300/300/300
f 35/35/35 32/32/32 34/34/34
f 33/33/33 34/34/34 32/32/32
f 32/32/32 31/31/31 33/33/33
f 41/41/41 33/33/33 31/31/31
f 31/31/31 40/40/40 41/41/41
f 31/31/31 30/30/30 39/39/39
f 39/39/39 40/40/40 31/31/31
f 55/55/55 39/39/39 30/30/30
f 30/30/30 45/45/45 55/55/55
f 43/43/43 33/33/33 41/41/41
f 41/41/41 42/42/42 43/43/43
f 34/34/34 33/33/33 43/43/43
f 43/43/43 56/56/56 34/34/34
f 38/38/38 34/34/34 56/56/56
f 56/56/56 57/57/57 38/38/38
f 34/34/34 38/38/38 35/35/35
f 57/57/57 36/36/36 38/38/38
f 38/38/38 36/36/36 35/35/35
f 477/477/477 478/478/478 479/479/479
f 479/479/479 480/480/480 477/477/477
f 480/480/480 479/479/479 481/481/481
f 481/481/481 482/482/482 480/480/480
f 225/225/225 222/222/222 221/221/221
f 221/221/221 224/224/224 225/225/225
f 16/16/16 106/106/106 242/242/242
f 242/242/242 243/243/243 16/16/16
f 242/242/242 254/254/254 284/284/284
f 284/284/284 365/365/365 242/242/242
f 242/242/242 365/365/365 279/279/279
f 279/279/279 243/243/243 242/242/242
f 21/21/21 254/254/254 242/242/242
f 254/254/254 21/21/21 23/23/23
f 22/22/22 21/21/21 24/24/24
f 21/21/21 22/22/22 23/23/23
f 285/285/285 284/284/284 254/254/254
f 254/254/254 240/240/240 285/285/285
f 23/23/23 240/240/240 254/254/254
f 240/240/240 23/23/23 109/109/109
f 240/240/240 239/239/239 366/366/366
f 366/366/366 285/285/285 240/240/240
f 109/109/109 239/239/239 240/240/240
f 284/284/284 285/285/285 286/286/286
f 284/284/284 287/287/287 265/265/265
f 265/265/265 365/365/365 284/284/284
f 287/287/287 284/284/284 286/286/286
f 288/288/288 286/286/286 363/363/363
f 286/286/286 288/288/288 287/287/287
f 271/271/271 265/265/265 287/287/287
f 287/287/287 283/283/283 271/271/271
f 287/287/287 288/288/288 289/289/289
f 289/289/289 283/283/283 287/287/287
f 365/365/365 265/265/265 264/264/264
f 266/266/266 265/265/265 271/271/271
f 256/256/256 258/258/258 491/491/491
f 256/256/256 257/257/257 258/258/258
f 491/491/491 258/258/258 262/262/262
f 262/262/262 258/258/258 257/257/257
f 262/262/262 492/492/492 491/491/491
f 257/257/257 261/261/261 262/262/262
f 424/424/424 429/429/429 431/431/431
f 431/431/431 426/426/426 424/424/424
f 429/429/429 424/424/424 425/425/425
f 425/425/425 430/430/430 429/429/429
f 429/429/429 434/434/434 436/436/436
f 436/436/436 431/431/431 429/429/429
f 434/434/434 429/429/429 430/430/430
f 430/430/430 435/435/435 434/434/434
f 434/434/434 439/439/439 441/441/441
f 441/441/441 436/436/436 434/434/434
f 439/439/439 434/434/434 435/435/435
f 435/435/435 440/440/440 439/439/439
f 439/439/439 444/444/444 446/446/446
f 446/446/446 441/441/441 439/439/439
f 64/64/64 61/61/61 63/63/63
f 62/62/62 63/63/63 61/61/61
f 61/61/61 60/60/60 62/62/62
f 70/70/70 62/62/62 60/60/60
f 60/60/60 69/69/69 70/70/70
f 60/60/60 59/59/59 68/68/68
f 68/68/68 69/69/69 60/60/60
f 76/76/76 68/68/68 59/59/59
f 59/59/59 74/74/74 76/76/76
f 72/72/72 62/62/62 70/70/70
f 70/70/70 71/71/71 72/72/72
f 63/63/63 62/62/62 72/72/72
f 72/72/72 77/77/77 63/63/63
f 67/67/67 63/63/63 77/77/77
f 77/77/77 78/78/78 67/67/67
f 63/63/63 67/67/67 64/64/64
f 78/78/78 65/65/65 67/67/67
f 67/67/67 65/65/65 64/64/64
f 323/323/323 320/320/320 325/325/325
f 324/324/324 321/321/321 320/320/320
f 320/320/320 323/323/323 324/324/324
f 331/331/331 330/330/330 321/321/321
f 321/321/321 324/324/324 331/331/331
f 321/321/321 330/330/330 329/329/329
f 329/329/329 322/322/322 321/321/321
f 337/337/337 334/334/334 322/322/322
f 322/322/322 329/329/329 337/337/337
f 332/332/332 333/333/333 331/331/331
f 331/331/331 324/324/324 332/332/332
f 332/332/332 324/324/324 323/323/323
f 323/323/323 338/338/338 332/332/332
f 338/338/338 323/323/323 328/328/328
f 325/325/325 328/328/328 323/323/323
f 328/328/328 339/339/339 338/338/338
f 339/339/339 328/328/328 327/327/327
f 328/328/328 325/325/325 327/327/327
f 299/299/299 292/292/292 308/308/308
f 307/307/307 308/308/308 292/292/292
f 292/292/292 295/295/295 307/307/307
f 293/293/293 292/292/292 299/299/299
f 294/294/294 295/295/295 292/292/292
f 292/292/292 293/293/293 294/294/294
f 299/299/299 309/309/309 300/300/300
f 308/308/308 309/309/309 299/299/299
f 299/299/299 298/298/298 293/293/293
f 298/298/298 299/299/299 300/300/300
f 44/44/44 29/29/29 37/37/37
f 45/45/45 30/30/30 29/29/29
f 29/29/29 44/44/44 45/45/45
f 37/37/37 29/29/29 32/32/32
f 31/31/31 32/32/32 29/29/29
f 29/29/29 30/30/30 31/31/31
f 37/37/37 46/46/46 44/44/44
f 37/37/37 36/36/36 46/46/46
f 32/32/32 35/35/35 37/37/37
f 35/35/35 36/36/36 37/37/37
f 92/92/92 102/102/102 103/103/103
f 103/103/103 86/86/86 92/92/92
f 102/102/102 92/92/92 91/91/91
f 103/103/103 84/84/84 86/86/86
f 85/85/85 84/84/84 98/98/98
f 90/90/90 85/85/85 98/98/98
f 98/98/98 99/99/99 90/90/90
f 87/87/87 90/90/90 99/99/99
f 99/99/99 100/100/100 87/87/87
f 101/101/101 93/93/93 87/87/87
f 87/87/87 100/100/100 101/101/101
f 88/88/88 87/87/87 93/93/93
f 93/93/93 94/94/94 88/88/88
f 88/88/88 94/94/94 95/95/95
f 95/95/95 91/91/91 88/88/88
f 97/97/97 91/91/91 95/95/95
f 95/95/95 96/96/96 97/97/97
f 91/91/91 97/97/97 102/102/102
f 27/27/27 54/54/54 53/53/53
f 27/27/27 19/19/19 18/18/18
f 18/18/18 47/47/47 27/27/27
f 20/20/20 19/19/19 27/27/27
f 27/27/27 47/47/47 49/49/49
f 49/49/49 54/54/54 27/27/27
f 19/19/19 20/20/20 8/8/8
f 4/4/4 8/8/8 2/2/2
f 8/8/8 4/4/4 19/19/19
f 18/18/18 19/19/19 4/4/4
f 4/4/4 6/6/6 18/18/18
f 4/4/4 2/2/2 5/5/5
f 4/4/4 5/5/5 6/6/6
f 5/5/5 2/2/2 7/7/7
f 348/348/348 351/351/351 350/350/350
f 350/350/350 349/349/349 348/348/348
f 348/348/348 349/349/349 346/346/346
f 346/346/346 347/347/347 348/348/348
f 358/358/358 347/347/347 346/346/346
f 347/347/347 358/358/358 357/357/357
f 357/357/357 343/343/343 347/347/347
f 343/343/343 357/357/357 344/344/344
f 346/346/346 360/360/360 358/358/358
f 359/359/359 360/360/360 346/346/346
f 346/346/346 352/352/352 359/359/359
f 352/352/352 346/346/346 349/349/349
f 354/354/354 353/353/353 349/349/349
f 349/349/349 350/350/350 354/354/354
f 349/349/349 353/353/353 352/352/352
f 361/361/361 355/355/355 350/350/350
f 354/354/354 350/350/350 355/355/355
f 355/355/355 356/356/356 354/354/354
f 236/236/236 237/237/237 205/205/205
f 263/263/263 205/205/205 237/237/237
f 263/263/263 237/237/237 463/463/463
f 461/461/461 462/462/462 463/463/463
f 462/462/462 461/461/461 464/464/464
f 464/464/464 467/467/467 462/462/462
f 466/466/466 467/467/467 464/464/464
f 464/464/464 465/465/465 466/466/466
f 466/466/466 465/465/465 468/468/468
f 468/468/468 469/469/469 466/466/466
f 207/207/207 204/204/204 206/206/206
f 205/205/205 204/204/204 236/236/236
f 204/204/204 205/205/205 206/206/206
f 206/206/206 208/208/208 207/207/207
f 209/209/209 210/210/210 207/207/207
f 207/207/207 208/208/208 209/209/209
f 211/211/211 210/210/210 209/209/209
f 209/209/209 212/212/212 211/211/211
f 463/463/463 237/237/237 236/236/236
f 236/236/236 461/461/461 463/463/463
f 110/110/110 238/238/238 111/111/111
f 112/112/112 113/113/113 110/110/110
f 110/110/110 111/111/111 112/112/112
f 117/117/117 111/111/111 238/238/238
f 238/238/238 241/241/241 117/117/117
f 111/111/111 117/117/117 116/116/116
f 116/116/116 114/114/114 111/111/111
f 112/112/112 111/111/111 114/114/114
f 113/113/113 112/112/112 245/245/245
f 244/244/244 245/245/245 112/112/112
f 232/232/232 220/220/220 223/223/223
f 222/222/222 223/223/223 220/220/220
f 220/220/220 221/221/221 222/222/222
f 223/223/223 229/229/229 232/232/232
f 231/231/231 232/232/232 229/229/229
f 229/229/229 230/230/230 231/231/231
f 231/231/231 230/230/230 486/486/486
f 486/486/486 487/487/487 231/231/231
f 487/487/487 486/486/486 478/478/478
f 478/478/478 477/477/477 487/487/487
f 149/149/149 147/147/147 142/142/142
f 142/142/142 144/144/144 149/149/149
f 144/144/144 142/142/142 137/137/137
f 138/138/138 137/137/137 142/142/142
f 137/137/137 139/139/139 144/144/144
f 139/139/139 137/137/137 132/132/132
f 133/133/133 132/132/132 137/137/137
f 137/137/137 138/138/138 133/133/133
f 133/133/133 138/138/138 249/249/249
f 249/249/249 248/248/248 133/133/133
f 133/133/133 248/248/248 247/247/247
f 247/247/247 128/128/128 133/133/133
f 132/132/132 133/133/133 128/128/128
f 132/132/132 134/134/134 139/139/139
f 134/134/134 132/132/132 127/127/127
f 128/128/128 127/127/127 132/132/132
f 123/123/123 128/128/128 247/247/247
f 127/127/127 128/128/128 123/123/123
f 390/390/390 385/385/385 247/247/247
f 247/247/247 248/248/248 390/390/390
f 390/390/390 248/248/248 249/249/249
f 123/123/123 122/122/122 127/127/127
f 127/127/127 129/129/129 134/134/134
f 129/129/129 127/127/127 122/122/122
f 122/122/122 124/124/124 129/129/129
f 124/124/124 122/122/122 114/114/114
f 114/114/114 116/116/116 124/124/124
f 157/157/157 161/161/161 169/169/169
f 169/169/169 167/167/167 157/157/157
f 112/112/112 115/115/115 244/244/244
f 114/114/114 115/115/115 112/112/112
f 259/259/259 113/113/113 245/245/245
f 259/259/259 245/245/245 368/368/368
f 259/259/259 260/260/260 245/245/245
f 259/259/259 245/245/245 260/260/260
f 245/245/245 369/369/369 368/368/368
f 369/369/369 245/245/245 244/244/244
f 372/372/372 244/244/244 246/246/246
f 244/244/244 372/372/372 369/369/369
f 246/246/246 244/244/244 115/115/115
f 115/115/115 123/123/123 246/246/246
f 115/115/115 114/114/114 122/122/122
f 122/122/122 123/123/123 115/115/115
f 380/380/380 246/246/246 247/247/247
f 246/246/246 380/380/380 372/372/372
f 247/247/247 246/246/246 123/123/123
f 372/372/372 380/380/380 379/379/379
f 379/379/379 371/371/371 372/372/372
f 369/369/369 372/372/372 371/371/371
f 247/247/247 385/385/385 380/380/380
f 380/380/380 385/385/385 384/384/384
f 384/384/384 379/379/379 380/380/380
f 379/379/379 384/384/384 386/386/386
f 386/386/386 381/381/381 379/379/379
f 371/371/371 379/379/379 381/381/381
f 381/381/381 373/373/373 371/371/371
f 370/370/370 371/371/371 373/373/373
f 371/371/371 370/370/370 369/369/369
f 6/6/6 5/5/5 7/7/7
f 7/7/7 17/17/17 6/6/6
f 48/48/48 52/52/52 49/49/49
f 47/47/47 48/48/48 49/49/49
f 239/239/239 109/109/109 108/108/108
f 107/107/107 108/108/108 109/109/109
f 239/239/239 108/108/108 366/366/366
f 366/366/366 108/108/108 107/107/107
f 364/364/364 366/366/366 107/107/107
f 364/364/364 363/363/363 366/366/366
f 364/364/364 341/341/341 288/288/288
f 363/363/363 364/364/364 288/288/288
f 264/264/264 265/265/265 266/266/266
f 267/267/267 266/266/266 271/271/271
f 282/282/282 267/267/267 271/271/271
f 271/271/271 283/283/283 282/282/282
f 283/283/283 291/291/291 282/282/282
f 291/291/291 283/283/283 289/289/289
f 289/289/289 290/290/290 291/291/291
f 340/340/340 314/314/314 290/290/290
f 290/290/290 341/341/341 340/340/340
f 291/291/291 290/290/290 314/314/314
f 291/291/291 314/314/314 315/315/315
f 291/291/291 310/310/310 281/281/281
f 281/281/281 282/282/282 291/291/291
f 291/291/291 315/315/315 311/311/311
f 311/311/311 310/310/310 291/291/291
f 267/267/267 282/282/282 281/281/281
f 281/281/281 268/268/268 267/267/267
f 270/270/270 269/269/269 268/268/268
f 268/268/268 280/280/280 270/270/270
f 267/267/267 268/268/268 269/269/269
f 269/269/269 270/270/270 266/266/266
f 279/279/279 264/264/264 270/270/270
f 270/270/270 264/264/264 266/266/266
f 267/267/267 269/269/269 266/266/266
f 264/264/264 279/279/279 365/365/365
f 312/312/312 311/311/311 313/313/313
f 310/310/310 311/311/311 312/312/312
f 50/50/50 312/312/312 313/313/313
f 51/51/51 313/313/313 340/340/340
f 313/313/313 51/51/51 50/50/50
f 52/52/52 48/48/48 50/50/50
f 50/50/50 51/51/51 52/52/52
f 340/340/340 80/80/80 51/51/51
f 79/79/79 52/52/52 51/51/51
f 51/51/51 80/80/80 79/79/79
f 314/314/314 340/340/340 315/315/315
f 81/81/81 80/80/80 340/340/340
f 340/340/340 341/341/341 81/81/81
f 79/79/79 80/80/80 81/81/81
f 81/81/81 341/341/341 364/364/364
f 364/364/364 107/107/107 81/81/81
f 81/81/81 107/107/107 104/104/104
f 104/104/104 82/82/82 81/81/81
f 81/81/81 82/82/82 79/79/79
f 53/53/53 54/54/54 79/79/79
f 79/79/79 82/82/82 28/28/28
f 28/28/28 53/53/53 79/79/79
f 104/104/104 25/25/25 82/82/82
f 104/104/104 109/109/109 105/105/105
f 104/104/104 107/107/107 109/109/109
f 25/25/25 104/104/104 105/105/105
f 105/105/105 22/22/22 25/25/25
f 26/26/26 25/25/25 24/24/24
f 24/24/24 25/25/25 22/22/22
f 8/8/8 20/20/20 24/24/24
f 24/24/24 20/20/20 26/26/26
f 27/27/27 28/28/28 26/26/26
f 26/26/26 20/20/20 27/27/27
f 27/27/27 53/53/53 28/28/28
f 342/342/342 345/345/345 351/351/351
f 351/351/351 348/348/348 342/342/342
f 347/347/347 343/343/343 342/342/342
f 342/342/342 348/348/348 347/347/347
f 345/345/345 342/342/342 344/344/344
f 342/342/342 343/343/343 344/344/344
f 351/351/351 345/345/345 362/362/362
f 362/362/362 345/345/345 344/344/344
f 362/362/362 361/361/361 351/351/351
f 350/350/350 351/351/351 361/361/361
