# carno reconstructed from live game memory
v -0.00000 64.74532 -39.04657
v -0.00000 63.41491 -33.84097
v -7.45940 59.23512 -34.48365
v -8.94487 59.85174 -39.85873
v -8.61600 48.51875 -42.44163
v -10.58515 46.07288 -37.10147
v -0.00000 37.50274 -40.52678
v -0.00000 42.31648 -45.31968
v -15.38434 43.61519 2.64180
v -11.36391 44.68395 -11.92221
v -8.42394 56.05066 3.90050
v -7.68572 59.05434 -27.37240
v -8.15501 56.53068 -10.26511
v -8.51273 45.06770 -29.32916
v -9.67391 43.64160 20.25324
v -0.00000 58.54507 20.40883
v 0.00000 52.72974 52.34781
v -3.85071 46.37297 52.33813
v -9.67391 43.64160 20.25324
v -5.36973 31.63475 -29.95908
v -0.00000 27.53211 -32.22493
v -0.00000 33.34906 -38.11130
v -9.11699 35.08572 -37.04518
v -8.30349 36.09433 -13.30044
v 0.00000 38.70441 52.29448
v -0.00000 33.11015 20.33978
v -7.47037 27.76854 -0.02792
v -13.95391 29.06734 -9.55531
v -7.47037 27.76854 -0.02792
v -12.80362 29.17072 10.41308
v -17.70440 29.49675 1.33540
v -15.09402 36.04341 -12.01897
v -12.32671 12.62936 2.29399
v -9.27438 12.55312 6.71486
v -9.27438 12.55312 6.71486
v -11.38565 12.68097 10.30874
v -14.93390 12.83727 5.89030
v -0.00000 33.11015 20.33978
v -0.00000 25.29992 -0.18849
v -13.82792 6.10139 0.27837
v -10.66573 6.03942 -1.47668
v -7.17152 0.48741 1.78362
v -13.40887 0.00008 -11.89332
v -17.13614 0.38725 3.62389
v -19.63389 0.24338 -5.80106
v -14.91339 0.15249 -3.88039
v -11.30256 3.96867 7.62568
v -10.24082 0.11695 -5.60611
v -6.69234 0.15805 -9.23248
v -7.17152 0.48741 1.78362
v -5.36973 31.63475 -29.95908
v -13.06711 34.38033 -32.97585
v -0.00000 63.14861 -9.42604
v -0.00000 64.19955 4.57767
v -0.00000 64.48517 -26.32984
v -7.67830 26.00643 -37.20930
v -9.77584 25.53715 -35.57592
v -10.49466 28.22856 -39.57993
v -7.67830 26.00643 -37.20930
v -13.53944 26.61340 -36.99512
v -7.17152 0.48741 1.78362
v -17.13614 0.38725 3.62389
v -11.30256 3.96867 7.62568
v -10.41600 26.11850 -46.16116
v -14.23329 24.55157 -42.91899
v -6.63154 23.79024 -42.29531
v -10.16233 18.11613 -44.79268
v -10.05406 24.33062 -43.13185
v -6.63154 23.79024 -42.29531
v -5.55611 67.87297 -83.92935
v -6.09227 70.02233 -80.85956
v -9.49852 64.69152 -77.62985
v -8.39759 64.24260 -82.54028
v -9.03715 60.08684 -81.61692
v -7.05960 59.81148 -85.83858
v -6.49285 63.58290 -86.03815
v -9.04627 66.90698 -75.39936
v -8.88585 67.64512 -77.89938
v -9.44410 69.77950 -75.39175
v -10.55381 64.67339 -73.59105
v -10.60799 67.84275 -72.43496
v -6.13997 72.21775 -72.66793
v -6.53783 71.29112 -67.63487
v -2.44145 49.63864 -89.04052
v -3.27087 51.52948 -90.12863
v -5.33243 51.55384 -86.19746
v -4.16052 49.27056 -86.15552
v -3.47227 54.06680 -90.15939
v -5.42595 54.08045 -86.32858
v -8.45314 47.77802 -56.56137
v -9.04234 46.16326 -75.61720
v -10.73060 50.43004 -76.03761
v -11.68404 51.11712 -65.63071
v -11.79535 55.50842 -65.99619
v -10.64995 54.12536 -76.35512
v -7.37962 54.09411 -80.63504
v -7.39399 51.13937 -80.49345
v -5.87959 48.14735 -80.20366
v -10.93378 60.16464 -76.49680
v -11.39852 59.36579 -66.05330
v -5.97417 71.90462 -77.35863
v -0.00000 71.08640 -81.20374
v -0.00000 73.22517 -76.99977
v -7.22328 70.91180 -63.30117
v -10.04684 65.32130 -67.56184
v -4.95652 63.48706 -89.69260
v -0.00000 64.83492 -91.91350
v -0.00000 67.12962 -88.25476
v -4.84250 65.91229 -87.04973
v -6.64245 57.29721 -79.33727
v -6.50011 54.50402 -80.28854
v -6.13800 57.27325 -81.34569
v -5.99967 57.40420 -81.41735
v -5.92797 54.48273 -82.51895
v -5.53092 57.06620 -83.65619
v -5.55360 55.77143 -81.43684
v -5.80297 53.15486 -80.50136
v -5.24648 52.97150 -82.56575
v -4.58188 55.67338 -85.66668
v -5.08308 53.27397 -84.49841
v -4.41383 53.26802 -86.92593
v -4.05554 55.90508 -87.53725
v -4.53224 53.31681 -87.09577
v -3.66608 53.34627 -88.96666
v -3.40109 55.88293 -89.36963
v -3.83672 53.50478 -88.82097
v -3.12690 53.51752 -90.20650
v -3.94863 57.00384 -89.53149
v -3.25930 54.56054 -90.16296
v -2.90851 57.20211 -90.70146
v -1.83843 56.75126 -90.77714
v -1.51849 54.54675 -91.47720
v -0.91173 56.96650 -91.97207
v -9.80584 65.65425 -74.26361
v -9.27535 65.52664 -76.80327
v -9.77165 66.83442 -75.50871
v -9.79210 67.34815 -73.84680
v -8.88025 67.34512 -76.81603
v -9.82517 53.80748 -54.17524
v -0.00000 69.20164 -84.56723
v -0.00000 73.64575 -72.13788
v -8.61600 48.51875 -42.44163
v -0.00000 42.31648 -45.31968
v -0.00000 44.61694 -57.19891
v -9.16237 68.69224 -75.45958
v -5.93618 55.65134 -78.97256
v -6.21209 53.02053 -77.97005
v -5.59638 52.83945 -80.25604
v -0.00000 61.79699 -71.74225
v -0.00000 61.60385 -72.60947
v -0.73574 60.08675 -78.22487
v -9.34502 55.91390 -81.66016
v -11.31888 56.67945 -76.31435
v -3.47227 54.06680 -90.15939
v -0.00000 54.05439 -91.46215
v -0.00000 52.76301 -85.03594
v -5.42595 54.08045 -86.32858
v -0.00000 52.00651 -77.22975
v -0.00000 51.99655 -77.16527
v -10.64995 54.12536 -76.35512
v -7.37962 54.09411 -80.63504
v -0.00000 54.35549 -72.26051
v -11.79535 55.50842 -65.99619
v -0.00000 54.35549 -72.26051
v -11.79535 55.50842 -65.99619
v -11.07837 54.09172 -65.51600
v -9.24999 52.79982 -76.29978
v -10.70596 57.18929 -76.20261
v -11.34539 56.82494 -65.70719
v -6.64916 57.91936 -76.69884
v -6.54902 54.87755 -78.04816
v -6.07638 57.52544 -78.95577
v -8.34150 55.46707 -77.08447
v -8.88648 53.54093 -76.28918
v -7.62107 53.07194 -78.22057
v -5.82799 57.44092 -85.56410
v -5.38284 54.63152 -86.80845
v -4.60388 57.36991 -87.80545
v -4.85733 55.65777 -83.53368
v -5.08308 53.08771 -82.34365
v -4.62662 53.21827 -84.67246
v -5.82800 57.03854 -83.55369
v -4.96154 54.67921 -84.86272
v -4.60388 57.41763 -85.85971
v -5.01662 59.84502 -90.19881
v -7.36970 56.07978 -85.82530
v -0.00000 58.22637 -82.74055
v -0.00000 57.89347 -83.51453
v -7.37614 62.49501 -50.46434
v -8.94487 59.85174 -39.85873
v -11.31888 56.67945 -76.31435
v -9.34502 55.91390 -81.66016
v -7.36970 56.07978 -85.82530
v -5.07054 56.09133 -89.91142
v -0.00000 56.08795 -92.48984
v -0.00000 60.33567 -92.75890
v -9.85250 64.12100 -62.21954
v -7.19370 69.49173 -57.59422
v -0.00000 73.88995 -61.29420
v -0.00000 73.06413 -55.11784
v -0.00000 68.71048 -48.53531
v -5.05802 57.47188 -87.71124
v -4.61286 54.66246 -88.95563
v -3.83391 57.40088 -89.95261
v -1.65535 55.87275 -90.32182
v -2.48570 53.57364 -90.16986
v -1.23701 53.45882 -90.90399
v -5.14373 71.26609 -75.48014
v -6.07375 71.32701 -73.21683
v -7.97301 73.84169 -74.49423
v -7.30248 73.79778 -76.12605
v -7.93379 70.06826 -72.79331
v -9.31406 72.93417 -74.18887
v -7.93379 70.06826 -72.79331
v -8.86381 68.74861 -74.63309
v -9.98459 71.98272 -75.51534
v -9.31406 72.93417 -74.18887
v -7.93379 68.68769 -76.89642
v -9.31406 71.93879 -77.14714
v -6.07375 69.94642 -77.31993
v -7.97301 72.84634 -77.45250
v -11.09451 76.57050 -78.21155
v -0.00000 45.79980 82.00341
v -2.21905 45.82749 78.72198
v -0.00000 48.88429 78.97738
v -0.00000 58.54507 20.40883
v -0.00000 43.19929 78.72638
v -0.00000 23.30795 -13.61507
v -0.00000 25.29992 -0.18849
v -0.00000 27.53211 -32.22493
v -5.07054 56.09133 -89.91142
v -0.00000 56.08795 -92.48984
v -0.00000 44.20026 -75.58473
v -0.00000 51.37027 -91.20248
v -0.00000 48.91785 -89.70853
v -0.00000 72.85478 -66.73849
v -0.00000 47.02302 -80.06575
v -0.00000 48.34551 -86.42771
v -0.00000 54.05439 -91.46215
v -0.00000 64.74532 -39.04657
v -0.00000 60.42547 -78.00193
v 8.94486 59.85175 -39.85873
v 7.45939 59.23513 -34.48365
v 8.61600 48.51876 -42.44163
v 10.58515 46.07288 -37.10147
v 15.38433 43.61529 2.64175
v 8.42394 56.05068 3.90041
v 11.36391 44.68371 -11.92225
v 7.68572 59.05434 -27.37240
v 8.51273 45.06770 -29.32916
v 8.15500 56.53069 -10.26511
v 9.67391 43.64196 20.25323
v 3.85071 46.37297 52.33813
v 9.67391 43.64196 20.25323
v 5.36972 31.63474 -29.95907
v 9.11699 35.08572 -37.04518
v 8.30349 36.09387 -13.30023
v 7.47037 27.76850 -0.02745
v 13.95392 29.06667 -9.55445
v 12.80363 29.17130 10.41394
v 7.47037 27.76850 -0.02745
v 17.70440 29.49676 1.33624
v 15.09402 36.04275 -12.01862
v 9.27438 12.55345 6.71659
v 12.32670 12.62990 2.29572
v 11.38566 12.68111 10.31048
v 9.27438 12.55345 6.71659
v 14.93390 12.83760 5.89204
v -0.00000 25.29992 -0.18849
v 13.82779 6.10239 0.27872
v 10.66560 6.04052 -1.47633
v 7.17137 0.48836 1.78369
v 13.40886 0.00001 -11.89271
v 17.13598 0.38807 3.62396
v 19.63385 0.24374 -5.80043
v 14.91333 0.15293 -3.87979
v 11.30242 3.96882 7.62583
v 10.24077 0.11725 -5.60554
v 6.69232 0.15810 -9.23193
v 7.17137 0.48836 1.78369
v 13.06711 34.38031 -32.97584
v 5.36972 31.63474 -29.95907
v 9.77584 25.53714 -35.57592
v 7.67830 26.00642 -37.20930
v 7.67830 26.00642 -37.20930
v 10.49466 28.22855 -39.57993
v 13.53944 26.61339 -36.99512
v 7.17137 0.48836 1.78369
v 11.30242 3.96882 7.62583
v 17.13598 0.38807 3.62396
v 10.41599 26.11849 -46.16116
v 14.23329 24.55156 -42.91898
v 6.63154 23.79023 -42.29531
v 10.16232 18.11612 -44.79268
v 6.63154 23.79023 -42.29531
v 10.05405 24.33061 -43.13184
v 5.55610 67.87298 -83.92935
v 8.39759 64.24260 -82.54028
v 9.49852 64.69152 -77.62985
v 6.09226 70.02233 -80.85956
v 6.49285 63.58290 -86.03815
v 7.05959 59.81148 -85.83858
v 9.03714 60.08684 -81.61691
v 9.04627 66.90698 -75.39936
v 9.44410 69.77950 -75.39175
v 8.88585 67.64513 -77.89938
v 10.55380 64.67339 -73.59105
v 10.60799 67.84275 -72.43496
v 6.53783 71.29112 -67.63487
v 6.13997 72.21775 -72.66793
v 2.44144 49.63864 -89.04051
v 4.16051 49.27057 -86.15551
v 5.33242 51.55384 -86.19746
v 3.27086 51.52948 -90.12863
v 3.47226 54.06680 -90.15938
v 5.42594 54.08046 -86.32858
v 8.45313 47.77802 -56.56137
v 11.68404 51.11711 -65.63071
v 10.73060 50.43005 -76.03761
v 9.04234 46.16325 -75.61720
v 11.79535 55.50841 -65.99619
v 10.64994 54.12536 -76.35512
v 7.37962 54.09411 -80.63504
v 7.39399 51.13937 -80.49345
v 5.87958 48.14734 -80.20366
v 10.93378 60.16465 -76.49680
v 11.39852 59.36579 -66.05330
v 5.97416 71.90462 -77.35863
v 7.22328 70.91181 -63.30117
v 10.04684 65.32130 -67.56184
v 4.95652 63.48706 -89.69260
v 4.84250 65.91229 -87.04973
v 6.64245 57.29721 -79.33727
v 6.13799 57.27325 -81.34569
v 6.50010 54.50403 -80.28854
v 5.99966 57.40420 -81.41735
v 5.53091 57.06620 -83.65619
v 5.92797 54.48273 -82.51895
v 5.55360 55.77143 -81.43684
v 5.24648 52.97150 -82.56575
v 5.80296 53.15486 -80.50136
v 4.58188 55.67339 -85.66668
v 4.41382 53.26802 -86.92593
v 5.08307 53.27398 -84.49841
v 4.05554 55.90509 -87.53724
v 3.66607 53.34627 -88.96665
v 4.53223 53.31681 -87.09577
v 3.40108 55.88293 -89.36963
v 3.12689 53.51752 -90.20650
v 3.83671 53.50478 -88.82097
v 3.94862 57.00384 -89.53149
v 2.90850 57.20211 -90.70145
v 3.25930 54.56054 -90.16296
v 1.83843 56.75127 -90.77714
v 0.91172 56.96650 -91.97206
v 1.51849 54.54675 -91.47720
v 9.80584 65.65426 -74.26361
v 9.77164 66.83442 -75.50871
v 9.27535 65.52664 -76.80327
v 9.79210 67.34815 -73.84680
v 8.88025 67.34512 -76.81603
v 9.82516 53.80748 -54.17524
v 8.61600 48.51876 -42.44163
v 9.16237 68.69224 -75.45958
v 5.93618 55.65134 -78.97256
v 5.59637 52.83945 -80.25604
v 6.21208 53.02054 -77.97005
v 0.73574 60.08675 -78.22487
v 9.34501 55.91390 -81.66016
v 11.31888 56.67945 -76.31435
v 3.47226 54.06680 -90.15938
v 5.42594 54.08046 -86.32858
v 7.37962 54.09411 -80.63504
v 10.64994 54.12536 -76.35512
v 11.79535 55.50841 -65.99619
v 11.79535 55.50841 -65.99619
v 11.07837 54.09172 -65.51601
v 11.34539 56.82494 -65.70719
v 10.70596 57.18929 -76.20261
v 9.24998 52.79982 -76.29978
v 6.64915 57.91936 -76.69884
v 6.07637 57.52544 -78.95577
v 6.54902 54.87755 -78.04816
v 8.34150 55.46708 -77.08447
v 7.62106 53.07195 -78.22057
v 8.88648 53.54093 -76.28918
v 5.82799 57.44092 -85.56409
v 4.60388 57.36991 -87.80545
v 5.38284 54.63151 -86.80845
v 4.85732 55.65777 -83.53367
v 4.62661 53.21827 -84.67246
v 5.08307 53.08771 -82.34364
v 5.82799 57.03854 -83.55369
v 4.60388 57.41764 -85.85971
v 4.96154 54.67922 -84.86272
v 5.01661 59.84502 -90.19881
v 7.36969 56.07978 -85.82529
v 8.94486 59.85175 -39.85873
v 7.37613 62.49501 -50.46434
v 11.31888 56.67945 -76.31435
v 9.34501 55.91390 -81.66016
v 7.36969 56.07978 -85.82529
v 5.07053 56.09134 -89.91142
v 9.85250 64.12100 -62.21954
v 7.19369 69.49173 -57.59422
v 5.05801 57.47188 -87.71124
v 3.83390 57.40088 -89.95261
v 4.61286 54.66246 -88.95563
v 1.65534 55.87275 -90.32182
v 1.23700 53.45882 -90.90399
v 2.48570 53.57364 -90.16986
v 5.14373 71.26609 -75.48014
v 7.30248 73.79779 -76.12605
v 7.97301 73.84170 -74.49423
v 6.07375 71.32701 -73.21683
v 9.31406 72.93417 -74.18887
v 7.93379 70.06826 -72.79331
v 7.93379 70.06826 -72.79331
v 9.31406 72.93417 -74.18887
v 9.98459 71.98272 -75.51534
v 8.86381 68.74862 -74.63309
v 9.31406 71.93879 -77.14714
v 7.93379 68.68770 -76.89642
v 7.97301 72.84634 -77.45250
v 6.07375 69.94642 -77.31993
v 11.09451 76.57050 -78.21155
v 2.21905 45.82749 78.72198
v -0.00000 25.29992 -0.18849
v 5.07053 56.09134 -89.91142
vt 0.315023 0.988547
vt 0.358122 0.989995
vt 0.360140 0.912065
vt 0.312638 0.915316
vt 0.263392 0.852755
vt 0.341594 0.782525
vt 0.236751 0.755787
vt 0.225519 0.824887
vt 0.709455 0.848126
vt 0.586707 0.830560
vt 0.668644 0.933667
vt 0.428054 0.906195
vt 0.545818 0.907931
vt 0.426161 0.785036
vt 0.175932 0.000981
vt 0.027986 0.035721
vt 0.074125 0.456839
vt 0.140224 0.456187
vt 0.821182 0.890033
vt 0.272345 0.688956
vt 0.241034 0.698648
vt 0.239739 0.723377
vt 0.337570 0.694053
vt 0.584056 0.730495
vt 0.198404 0.460955
vt 0.312691 0.026758
vt 0.665648 0.669120
vt 0.658857 0.726552
vt 0.936882 0.757804
vt 0.863574 0.779210
vt 0.764647 0.772467
vt 0.644691 0.765615
vt 0.760576 0.631631
vt 0.687118 0.626675
vt 0.923665 0.678910
vt 0.872297 0.673661
vt 0.817625 0.656125
vt 0.966079 0.864751
vt 0.968577 0.754825
vt 0.838470 0.578185
vt 0.752807 0.559674
vt 0.666077 0.569231
vt 0.839152 0.434468
vt 0.936109 0.572450
vt 0.950441 0.511229
vt 0.877774 0.519957
vt 0.932943 0.613968
vt 0.739623 0.505366
vt 0.656920 0.459219
vt 0.994297 0.598677
vt 0.481732 0.670772
vt 0.417160 0.680718
vt 0.539831 0.988547
vt 0.657674 0.988547
vt 0.430535 0.988547
vt 0.505740 0.589121
vt 0.476499 0.571397
vt 0.335051 0.590253
vt 0.278463 0.600707
vt 0.403670 0.580118
vt 0.994297 0.598677
vt 0.936109 0.572450
vt 0.932943 0.613968
vt 0.322791 0.507174
vt 0.378725 0.500938
vt 0.253325 0.522032
vt 0.333476 0.412582
vt 0.450955 0.499216
vt 0.526653 0.501278
vt 0.543901 0.356960
vt 0.577456 0.367276
vt 0.607321 0.284621
vt 0.563732 0.292535
vt 0.561184 0.261598
vt 0.515704 0.270700
vt 0.512496 0.307070
vt 0.626150 0.302720
vt 0.604484 0.312104
vt 0.628982 0.327378
vt 0.648691 0.280489
vt 0.655841 0.309591
vt 0.655114 0.381048
vt 0.695084 0.382625
vt 0.467461 0.133904
vt 0.463860 0.153789
vt 0.520900 0.156783
vt 0.517213 0.126119
vt 0.461694 0.176001
vt 0.520265 0.179959
vt 0.847421 0.137225
vt 0.671712 0.106286
vt 0.663859 0.155778
vt 0.788900 0.164959
vt 0.718106 0.219104
vt 0.656843 0.189645
vt 0.578986 0.176802
vt 0.579934 0.148747
vt 0.575104 0.108836
vt 0.609446 0.253499
vt 0.712347 0.243078
vt 0.612755 0.379423
vt 0.557204 0.419894
vt 0.599442 0.433805
vt 0.749115 0.371638
vt 0.711312 0.300844
vt 0.462386 0.332296
vt 0.418772 0.362302
vt 0.463684 0.384619
vt 0.506515 0.345813
vt 0.646012 0.617349
vt 0.602189 0.459446
vt 0.557477 0.617296
vt 0.646013 0.617318
vt 0.602247 0.459465
vt 0.557433 0.617281
vt 0.602239 0.459456
vt 0.645996 0.617304
vt 0.557423 0.617309
vt 0.602256 0.459483
vt 0.646001 0.617343
vt 0.557446 0.617328
vt 0.602256 0.459483
vt 0.646001 0.617343
vt 0.557446 0.617328
vt 0.602222 0.459431
vt 0.557457 0.617316
vt 0.645972 0.617338
vt 0.646016 0.617340
vt 0.602289 0.459458
vt 0.557418 0.617267
vt 0.645950 0.617353
vt 0.602284 0.459450
vt 0.557447 0.617267
vt 0.272826 0.949813
vt 0.234109 0.886630
vt 0.227385 0.936827
vt 0.240932 0.977736
vt 0.189817 0.917327
vt 0.846271 0.218376
vt 0.515792 0.403566
vt 0.659591 0.443105
vt 0.926973 0.152962
vt 0.959438 0.070464
vt 0.855464 0.035702
vt 0.202894 0.963233
vt 0.602239 0.459456
vt 0.645996 0.617304
vt 0.557423 0.617309
vt 0.332380 0.096536
vt 0.330871 0.107540
vt 0.325512 0.177206
vt 0.375053 0.191519
vt 0.392309 0.130149
vt 0.324717 0.247526
vt 0.342705 0.257639
vt 0.360445 0.218693
vt 0.325119 0.211834
vt 0.378268 0.179645
vt 0.378591 0.178777
vt 0.331169 0.096707
vt 0.325522 0.176142
vt 0.348480 0.021721
vt 0.421086 0.031754
vt 0.417688 0.034962
vt 0.349419 0.022026
vt 0.305577 0.271107
vt 0.281795 0.382354
vt 0.364926 0.382402
vt 0.348736 0.273071
vt 0.646012 0.617349
vt 0.602189 0.459446
vt 0.557477 0.617296
vt 0.602239 0.459456
vt 0.645996 0.617304
vt 0.557423 0.617309
vt 0.645987 0.617304
vt 0.602241 0.459428
vt 0.557425 0.617304
vt 0.602256 0.459483
vt 0.646001 0.617343
vt 0.557446 0.617328
vt 0.645987 0.617304
vt 0.602241 0.459428
vt 0.557425 0.617304
vt 0.438756 0.295608
vt 0.360985 0.222253
vt 0.325491 0.200647
vt 0.326057 0.204754
vt 0.859222 0.311936
vt 0.935319 0.288344
vt 0.607230 0.193937
vt 0.542773 0.197812
vt 0.497114 0.210989
vt 0.419160 0.236576
vt 0.365096 0.262085
vt 0.388871 0.325872
vt 0.768174 0.291872
vt 0.795038 0.362343
vt 0.777955 0.431412
vt 0.828516 0.418336
vt 0.878092 0.396867
vt 0.645987 0.617304
vt 0.602241 0.459428
vt 0.557425 0.617304
vt 0.602222 0.459431
vt 0.557457 0.617316
vt 0.645972 0.617338
vt 0.944169 0.921092
vt 0.965364 0.911635
vt 0.975367 0.952269
vt 0.964521 0.957466
vt 0.986467 0.907368
vt 0.986801 0.950752
vt 0.892713 0.989426
vt 0.899680 0.968059
vt 0.940174 0.983391
vt 0.936219 0.995216
vt 0.911413 0.948726
vt 0.946948 0.972971
vt 0.925826 0.933807
vt 0.954954 0.964654
vt 0.985964 0.995337
vt 0.124462 0.917015
vt 0.128362 0.866170
vt 0.087296 0.876924
vt 0.798184 0.988547
vt 0.159329 0.876436
vt 0.585292 0.657161
vt 0.633529 0.646250
vt 0.501618 0.645574
vt 0.344610 0.258025
vt 0.325892 0.248143
vt 0.662318 0.012897
vt 0.426646 0.134031
vt 0.441006 0.110370
vt 0.714283 0.441601
vt 0.557610 0.033971
vt 0.492164 0.062478
vt 0.419145 0.157998
vt 0.945423 0.379259
vt 0.324948 0.178099
vt 0.312638 0.915316
vt 0.360140 0.912065
vt 0.263392 0.852755
vt 0.341627 0.782347
vt 0.709342 0.848144
vt 0.668641 0.933700
vt 0.586680 0.830619
vt 0.428025 0.906358
vt 0.426136 0.784890
vt 0.545817 0.907924
vt 0.175806 0.001314
vt 0.140224 0.456187
vt 0.819045 0.889595
vt 0.272345 0.688956
vt 0.337496 0.694031
vt 0.580867 0.725489
vt 0.660045 0.676892
vt 0.660475 0.725078
vt 0.835797 0.772799
vt 0.942325 0.755252
vt 0.764205 0.773732
vt 0.653230 0.765761
vt 0.687118 0.626675
vt 0.760553 0.631591
vt 0.872297 0.673661
vt 0.923665 0.678910
vt 0.817626 0.656184
vt 0.972697 0.770293
vt 0.838470 0.578185
vt 0.752807 0.559674
vt 0.666077 0.569231
vt 0.839152 0.434468
vt 0.936109 0.572450
vt 0.950441 0.511229
vt 0.877774 0.519957
vt 0.932943 0.613968
vt 0.739623 0.505366
vt 0.656920 0.459219
vt 0.994297 0.598677
vt 0.417027 0.680753
vt 0.481732 0.670772
vt 0.476499 0.571397
vt 0.505740 0.589121
vt 0.278463 0.600707
vt 0.335051 0.590253
vt 0.403670 0.580118
vt 0.994297 0.598677
vt 0.932943 0.613968
vt 0.936109 0.572450
vt 0.322791 0.507174
vt 0.378725 0.500938
vt 0.253325 0.522032
vt 0.333476 0.412582
vt 0.526653 0.501278
vt 0.450955 0.499216
vt 0.543901 0.356960
vt 0.563732 0.292535
vt 0.607321 0.284621
vt 0.577456 0.367276
vt 0.512496 0.307070
vt 0.515704 0.270700
vt 0.561184 0.261598
vt 0.626150 0.302720
vt 0.628982 0.327378
vt 0.604484 0.312104
vt 0.648691 0.280489
vt 0.655841 0.309591
vt 0.695084 0.382625
vt 0.655114 0.381048
vt 0.467461 0.133904
vt 0.517213 0.126119
vt 0.520900 0.156783
vt 0.463860 0.153789
vt 0.461694 0.176001
vt 0.520265 0.179959
vt 0.847421 0.137225
vt 0.788900 0.164959
vt 0.663859 0.155778
vt 0.671712 0.106286
vt 0.718106 0.219104
vt 0.656843 0.189645
vt 0.578986 0.176802
vt 0.579934 0.148747
vt 0.575104 0.108836
vt 0.609446 0.253499
vt 0.712347 0.243078
vt 0.612755 0.379423
vt 0.749115 0.371638
vt 0.711312 0.300844
vt 0.462386 0.332296
vt 0.506515 0.345813
vt 0.646012 0.617349
vt 0.557477 0.617296
vt 0.602189 0.459446
vt 0.646013 0.617318
vt 0.557433 0.617281
vt 0.602247 0.459465
vt 0.602239 0.459456
vt 0.557423 0.617309
vt 0.645996 0.617304
vt 0.602256 0.459483
vt 0.557446 0.617328
vt 0.646001 0.617343
vt 0.602256 0.459483
vt 0.557446 0.617328
vt 0.646001 0.617343
vt 0.602222 0.459431
vt 0.645972 0.617338
vt 0.557457 0.617316
vt 0.646016 0.617340
vt 0.557418 0.617267
vt 0.602289 0.459458
vt 0.645950 0.617353
vt 0.557447 0.617267
vt 0.602284 0.459450
vt 0.272826 0.949813
vt 0.227385 0.936827
vt 0.234109 0.886630
vt 0.240932 0.977736
vt 0.189817 0.917327
vt 0.846271 0.218376
vt 0.926973 0.152962
vt 0.202894 0.963233
vt 0.602239 0.459456
vt 0.557423 0.617309
vt 0.645996 0.617304
vt 0.325512 0.177206
vt 0.375053 0.191519
vt 0.392309 0.130149
vt 0.324717 0.247526
vt 0.325119 0.211834
vt 0.325522 0.176142
vt 0.331169 0.096707
vt 0.421086 0.031754
vt 0.349419 0.022026
vt 0.305577 0.271107
vt 0.348736 0.273071
vt 0.364926 0.382402
vt 0.281795 0.382354
vt 0.646012 0.617349
vt 0.557477 0.617296
vt 0.602189 0.459446
vt 0.602239 0.459456
vt 0.557423 0.617309
vt 0.645996 0.617304
vt 0.645987 0.617304
vt 0.557425 0.617304
vt 0.602241 0.459428
vt 0.602256 0.459483
vt 0.557446 0.617328
vt 0.646001 0.617343
vt 0.645987 0.617304
vt 0.557425 0.617304
vt 0.602241 0.459428
vt 0.438756 0.295608
vt 0.360985 0.222253
vt 0.935319 0.288344
vt 0.859222 0.311936
vt 0.607230 0.193937
vt 0.542773 0.197812
vt 0.497114 0.210989
vt 0.419160 0.236576
vt 0.768174 0.291872
vt 0.795038 0.362343
vt 0.645987 0.617304
vt 0.557425 0.617304
vt 0.602241 0.459428
vt 0.602222 0.459431
vt 0.645972 0.617338
vt 0.557457 0.617316
vt 0.944169 0.921092
vt 0.964521 0.957466
vt 0.975367 0.952269
vt 0.965364 0.911635
vt 0.986801 0.950752
vt 0.986467 0.907368
vt 0.892713 0.989426
vt 0.936219 0.995216
vt 0.940174 0.983391
vt 0.899680 0.968059
vt 0.946948 0.972971
vt 0.911413 0.948726
vt 0.954954 0.964654
vt 0.925826 0.933807
vt 0.985964 0.995337
vt 0.128362 0.866170
vt 0.640816 0.640780
vt 0.344610 0.258025
vn -0.00000 0.96520 0.26150
vn -0.00000 0.99913 0.04164
vn -0.86614 0.48542 0.11907
vn -0.89080 0.42963 0.14795
vn -0.95565 -0.28680 -0.06694
vn -0.90181 -0.10307 -0.41966
vn -0.00000 -0.42398 -0.90567
vn 0.00000 -0.92393 -0.38257
vn -0.94061 0.33927 0.01191
vn -0.91582 0.23113 -0.32842
vn -0.81070 0.57861 0.08927
vn -0.81072 0.58530 -0.01242
vn -0.84949 0.52760 0.00021
vn -0.99005 0.02777 0.13794
vn -0.92381 -0.02551 0.38200
vn -0.00000 0.93290 0.36012
vn -0.00000 0.98412 0.17748
vn -0.99390 0.01595 0.10912
vn -0.92381 -0.02551 0.38200
vn -0.55795 -0.79428 0.24045
vn -0.00000 -0.87699 -0.48050
vn -0.00000 -0.75087 -0.66045
vn -0.23745 -0.10482 -0.96573
vn -0.65564 -0.49679 -0.56863
vn 0.00000 -0.97012 0.24263
vn -0.00000 -0.92937 0.36914
vn 0.47753 -0.87462 0.08372
vn -0.20833 -0.59094 -0.77935
vn 0.47753 -0.87462 0.08372
vn -0.32871 -0.22821 0.91645
vn -0.99398 -0.10951 -0.00271
vn -0.77935 0.00995 -0.62651
vn -0.16033 -0.01967 -0.98687
vn 0.99727 0.06244 0.03953
vn 0.99727 0.06244 0.03953
vn 0.16987 -0.07469 0.98263
vn -0.99829 0.04866 0.03239
vn -0.00000 -0.92937 0.36914
vn -0.00001 -0.96747 0.25299
vn -0.64098 0.55301 -0.53229
vn 0.38771 0.66188 -0.64155
vn 0.95453 0.28288 0.09413
vn -0.17783 0.80997 -0.55886
vn -0.90274 0.17829 0.39149
vn -0.34834 0.81880 -0.45631
vn -0.43015 0.56865 -0.70115
vn 0.50383 -0.22456 0.83410
vn 0.13204 0.57330 -0.80864
vn 0.16048 0.82433 -0.54289
vn 0.95453 0.28288 0.09413
vn -0.55795 -0.79428 0.24045
vn -0.97836 0.00993 0.20669
vn -0.00000 0.99996 0.00940
vn -0.00000 0.99088 0.13475
vn -0.00000 0.99981 0.01972
vn 0.98557 0.04566 -0.16299
vn -0.00616 -0.89857 0.43879
vn 0.03229 0.73401 -0.67837
vn 0.98557 0.04566 -0.16299
vn -0.98474 0.16140 0.06505
vn 0.11279 -0.81646 0.56628
vn 0.11279 -0.81646 0.56628
vn 0.11279 -0.81646 0.56628
vn 0.08115 0.75147 -0.65475
vn -0.70776 -0.67276 0.21557
vn 0.68450 -0.66257 0.30408
vn -0.17817 -0.87634 0.44752
vn -0.13979 -0.73498 0.66352
vn 0.68450 -0.66257 0.30408
vn -0.56361 0.67145 -0.48114
vn -0.62439 0.57366 -0.53015
vn -0.93290 0.25041 -0.25884
vn -0.88218 0.26084 -0.39208
vn -0.91896 0.06888 -0.38828
vn -0.89219 0.06440 -0.44704
vn -0.87309 0.21557 -0.43732
vn -0.95816 0.10910 -0.26462
vn -0.93597 0.13712 -0.32428
vn -0.86476 0.44254 -0.23739
vn -0.97742 0.11818 -0.17516
vn -0.91497 0.39947 -0.05697
vn -0.44918 0.89279 0.03412
vn -0.42137 0.90329 0.08068
vn -0.48729 -0.70103 -0.52067
vn -0.56642 -0.29113 -0.77098
vn -0.87757 -0.26113 -0.40209
vn -0.48821 -0.80725 -0.33165
vn -0.75237 -0.06071 -0.65594
vn -0.91935 -0.05425 -0.38969
vn -0.74709 -0.66390 0.03307
vn -0.59160 -0.74832 -0.30003
vn -0.92295 -0.23427 -0.30542
vn -0.95676 -0.28137 0.07380
vn -0.99881 0.04725 0.01179
vn -0.92788 -0.01177 -0.37268
vn -0.87997 -0.03119 -0.47400
vn -0.81729 -0.25439 -0.51704
vn -0.51895 -0.71782 -0.46415
vn -0.97325 0.15216 -0.17215
vn -0.98852 0.13957 0.05788
vn -0.36114 0.88513 -0.29345
vn -0.00000 0.86467 -0.50234
vn 0.00000 0.97793 -0.20893
vn -0.68957 0.71947 0.08277
vn -0.96812 0.21869 0.12216
vn -0.62364 0.41462 -0.66269
vn 0.00000 0.56470 -0.82530
vn 0.00000 0.82450 -0.56586
vn -0.58344 0.62264 -0.52147
vn -0.96923 0.03365 -0.24384
vn -0.96923 0.03365 -0.24384
vn -0.96923 0.03365 -0.24384
vn -0.97549 0.05628 -0.21274
vn -0.97549 0.05628 -0.21274
vn -0.97549 0.05628 -0.21274
vn -0.96556 -0.00100 -0.26019
vn -0.96556 -0.00100 -0.26019
vn -0.96556 -0.00100 -0.26019
vn -0.96151 0.07169 -0.26526
vn -0.96151 0.07169 -0.26526
vn -0.96151 0.07169 -0.26526
vn -0.90390 0.09535 -0.41698
vn -0.90390 0.09535 -0.41698
vn -0.90390 0.09535 -0.41698
vn -0.88873 0.05788 -0.45477
vn -0.88873 0.05788 -0.45477
vn -0.88873 0.05788 -0.45477
vn -0.74369 -0.03731 -0.66748
vn -0.74369 -0.03731 -0.66748
vn -0.74369 -0.03731 -0.66748
vn -0.79451 0.07602 -0.60247
vn -0.79451 0.07602 -0.60247
vn -0.79451 0.07602 -0.60247
vn -0.99102 -0.08241 -0.10533
vn -0.93297 0.00225 -0.35994
vn -0.95520 0.12819 -0.26675
vn -0.98440 0.16432 -0.06291
vn -0.84339 0.23412 -0.48361
vn -0.99331 0.00018 0.11549
vn -0.00000 0.85511 -0.51845
vn 0.00000 0.99727 0.07390
vn -0.95565 -0.28680 -0.06694
vn 0.00000 -0.92393 -0.38257
vn -0.00000 -0.99973 -0.02320
vn -0.90732 0.30520 -0.28918
vn -0.96555 0.00210 -0.26023
vn -0.96555 0.00210 -0.26023
vn -0.96555 0.00210 -0.26023
vn 0.00000 -0.99446 -0.10516
vn -0.00000 -0.97652 0.21545
vn 0.27772 -0.91880 0.28048
vn 0.35385 -0.91418 0.19767
vn 0.24421 -0.88752 -0.39074
vn 0.14465 0.97792 0.15082
vn -0.00000 0.98040 0.19702
vn -0.00000 0.99287 0.11924
vn 0.21506 0.97258 0.08851
vn 0.00000 0.99098 0.13401
vn -0.00000 0.98889 -0.14866
vn 0.15071 0.98631 -0.06699
vn 0.21823 0.97019 0.10540
vn 0.00000 -0.65568 -0.75504
vn -0.15878 -0.98017 -0.11857
vn -0.00000 0.95878 -0.28416
vn 0.02826 0.99121 -0.12922
vn -0.97382 -0.20702 -0.09394
vn -0.94278 -0.31000 -0.12271
vn -0.97382 -0.20702 -0.09394
vn -0.99278 -0.10147 -0.06401
vn -0.96237 0.08309 -0.25874
vn -0.96237 0.08309 -0.25874
vn -0.96237 0.08309 -0.25874
vn -0.83537 0.00943 -0.54961
vn -0.83537 0.00943 -0.54961
vn -0.83537 0.00943 -0.54961
vn -0.87425 0.07399 -0.47981
vn -0.87425 0.07399 -0.47981
vn -0.87425 0.07399 -0.47981
vn -0.98129 -0.00294 -0.19250
vn -0.98129 -0.00294 -0.19250
vn -0.98129 -0.00294 -0.19250
vn -0.87774 -0.05850 -0.47555
vn -0.87774 -0.05850 -0.47555
vn -0.87774 -0.05850 -0.47555
vn -0.72378 0.03084 -0.68934
vn 0.23342 -0.94709 0.22031
vn -0.00000 -0.91305 0.40785
vn 0.00000 -0.96046 0.27842
vn -0.85485 0.45938 0.24125
vn -0.89080 0.42963 0.14795
vn -0.96459 0.08955 -0.24807
vn -0.91796 0.07177 -0.39013
vn -0.89152 0.07166 -0.44728
vn -0.77723 -0.00370 -0.62920
vn 0.00000 -0.06615 -0.99781
vn 0.00000 0.08975 -0.99596
vn -0.94799 0.27911 0.15302
vn -0.69431 0.65418 0.29997
vn -0.00000 0.99819 0.06016
vn 0.00000 0.93752 0.34793
vn -0.00000 0.83466 0.55077
vn -0.87425 0.07400 -0.47981
vn -0.87425 0.07400 -0.47981
vn -0.87425 0.07400 -0.47981
vn -0.49470 0.12179 -0.86049
vn -0.49470 0.12179 -0.86049
vn -0.49470 0.12179 -0.86049
vn 0.76467 0.64356 -0.03321
vn 0.21296 0.56556 0.79673
vn 0.36428 0.75331 0.54756
vn 0.71881 0.61614 -0.32200
vn -0.66298 0.04460 0.74731
vn -0.49925 0.31406 0.80754
vn -0.66298 0.04460 0.74731
vn -0.93844 -0.34073 -0.05687
vn -0.95528 -0.23454 0.18007
vn -0.49925 0.31406 0.80754
vn -0.42444 -0.24737 -0.87101
vn -0.63391 -0.35954 -0.68475
vn 0.45506 0.25909 -0.85194
vn 0.23024 0.07326 -0.97037
vn -0.54125 0.76045 -0.35883
vn -0.00000 -0.09463 0.99551
vn -0.94253 -0.04810 0.33065
vn 0.00000 0.92918 0.36963
vn -0.00000 0.93290 0.36012
vn -0.00000 -0.94697 0.32134
vn -0.00000 -0.99385 -0.11073
vn -0.00001 -0.96747 0.25299
vn -0.00000 -0.87699 -0.48050
vn 0.15200 -0.97622 0.15454
vn 0.00000 -0.98036 0.19722
vn -0.00000 -0.93635 -0.35107
vn 0.00000 -0.41442 -0.91009
vn 0.00000 -0.82837 -0.56018
vn -0.00000 0.99999 0.00401
vn 0.00000 -0.94432 -0.32903
vn 0.00000 -0.97711 -0.21273
vn 0.00000 -0.06930 -0.99760
vn -0.00000 0.96520 0.26150
vn -0.00000 -0.94720 0.32064
vn 0.89080 0.42963 0.14795
vn 0.86614 0.48542 0.11907
vn 0.95565 -0.28680 -0.06694
vn 0.90181 -0.10307 -0.41966
vn 0.94061 0.33927 0.01190
vn 0.81070 0.57861 0.08927
vn 0.91582 0.23111 -0.32842
vn 0.81072 0.58530 -0.01242
vn 0.99005 0.02777 0.13794
vn 0.84949 0.52760 0.00021
vn 0.92381 -0.02550 0.38201
vn 0.99390 0.01595 0.10912
vn 0.92381 -0.02550 0.38201
vn 0.55795 -0.79428 0.24044
vn 0.23745 -0.10482 -0.96573
vn 0.65563 -0.49681 -0.56861
vn -0.47753 -0.87462 0.08373
vn 0.20833 -0.59099 -0.77931
vn 0.32871 -0.22816 0.91646
vn -0.47753 -0.87462 0.08373
vn 0.99398 -0.10951 -0.00270
vn 0.77936 0.00991 -0.62650
vn -0.99726 0.06244 0.03955
vn 0.16034 -0.01961 -0.98687
vn -0.16988 -0.07475 0.98263
vn -0.99726 0.06244 0.03955
vn 0.99829 0.04868 0.03241
vn -0.00001 -0.96747 0.25299
vn 0.64097 0.55303 -0.53227
vn -0.38770 0.66190 -0.64154
vn -0.95453 0.28286 0.09414
vn 0.17787 0.80992 -0.55893
vn 0.90275 0.17822 0.39151
vn 0.34837 0.81877 -0.45635
vn 0.43015 0.56860 -0.70119
vn -0.50382 -0.22469 0.83407
vn -0.13204 0.57322 -0.80869
vn -0.16050 0.82427 -0.54297
vn -0.95453 0.28286 0.09414
vn 0.97836 0.00993 0.20669
vn 0.55795 -0.79428 0.24044
vn 0.00616 -0.89857 0.43879
vn -0.98557 0.04566 -0.16299
vn -0.98557 0.04566 -0.16299
vn -0.03229 0.73401 -0.67837
vn 0.98474 0.16140 0.06505
vn -0.11278 -0.81652 0.56619
vn -0.11278 -0.81652 0.56619
vn -0.11278 -0.81652 0.56619
vn -0.08115 0.75147 -0.65475
vn 0.70776 -0.67276 0.21557
vn -0.68450 -0.66257 0.30408
vn 0.17817 -0.87634 0.44752
vn -0.68450 -0.66257 0.30408
vn 0.13979 -0.73498 0.66352
vn 0.56361 0.67145 -0.48114
vn 0.88218 0.26084 -0.39208
vn 0.93290 0.25041 -0.25884
vn 0.62439 0.57366 -0.53015
vn 0.87309 0.21557 -0.43732
vn 0.89219 0.06440 -0.44704
vn 0.91896 0.06888 -0.38828
vn 0.95816 0.10910 -0.26462
vn 0.86476 0.44254 -0.23739
vn 0.93597 0.13712 -0.32428
vn 0.97742 0.11818 -0.17516
vn 0.91497 0.39947 -0.05697
vn 0.42137 0.90329 0.08068
vn 0.44918 0.89279 0.03412
vn 0.48729 -0.70103 -0.52067
vn 0.48821 -0.80725 -0.33165
vn 0.87757 -0.26113 -0.40209
vn 0.56642 -0.29113 -0.77098
vn 0.75237 -0.06071 -0.65594
vn 0.91935 -0.05425 -0.38969
vn 0.74709 -0.66391 0.03307
vn 0.95676 -0.28137 0.07380
vn 0.92295 -0.23427 -0.30542
vn 0.59160 -0.74832 -0.30003
vn 0.99881 0.04725 0.01179
vn 0.92788 -0.01177 -0.37268
vn 0.87997 -0.03119 -0.47400
vn 0.81729 -0.25439 -0.51704
vn 0.51895 -0.71782 -0.46415
vn 0.97325 0.15216 -0.17215
vn 0.98852 0.13957 0.05788
vn 0.36114 0.88514 -0.29345
vn 0.68957 0.71947 0.08277
vn 0.96812 0.21869 0.12216
vn 0.62364 0.41462 -0.66269
vn 0.58344 0.62264 -0.52147
vn 0.96923 0.03365 -0.24384
vn 0.96923 0.03365 -0.24384
vn 0.96923 0.03365 -0.24384
vn 0.97549 0.05628 -0.21274
vn 0.97549 0.05628 -0.21274
vn 0.97549 0.05628 -0.21274
vn 0.96556 -0.00100 -0.26019
vn 0.96556 -0.00100 -0.26019
vn 0.96556 -0.00100 -0.26019
vn 0.96151 0.07169 -0.26526
vn 0.96151 0.07169 -0.26526
vn 0.96151 0.07169 -0.26526
vn 0.90390 0.09535 -0.41698
vn 0.90390 0.09535 -0.41698
vn 0.90390 0.09535 -0.41698
vn 0.88873 0.05788 -0.45477
vn 0.88873 0.05788 -0.45477
vn 0.88873 0.05788 -0.45477
vn 0.74369 -0.03731 -0.66748
vn 0.74369 -0.03731 -0.66748
vn 0.74369 -0.03731 -0.66748
vn 0.79451 0.07601 -0.60248
vn 0.79451 0.07601 -0.60248
vn 0.79451 0.07601 -0.60248
vn 0.99102 -0.08241 -0.10533
vn 0.95520 0.12819 -0.26675
vn 0.93297 0.00225 -0.35994
vn 0.98440 0.16432 -0.06291
vn 0.84339 0.23412 -0.48361
vn 0.99331 0.00018 0.11549
vn 0.95565 -0.28680 -0.06694
vn 0.90732 0.30520 -0.28918
vn 0.96554 0.00210 -0.26023
vn 0.96554 0.00210 -0.26023
vn 0.96554 0.00210 -0.26023
vn -0.27772 -0.91880 0.28048
vn -0.35385 -0.91418 0.19767
vn -0.24421 -0.88752 -0.39074
vn -0.14465 0.97792 0.15082
vn -0.21506 0.97258 0.08851
vn -0.21823 0.97019 0.10540
vn -0.15071 0.98631 -0.06699
vn 0.15878 -0.98017 -0.11857
vn -0.02826 0.99121 -0.12921
vn 0.97382 -0.20702 -0.09394
vn 0.99278 -0.10147 -0.06401
vn 0.97382 -0.20702 -0.09394
vn 0.94278 -0.31000 -0.12271
vn 0.96237 0.08309 -0.25874
vn 0.96237 0.08309 -0.25874
vn 0.96237 0.08309 -0.25874
vn 0.83537 0.00943 -0.54961
vn 0.83537 0.00943 -0.54961
vn 0.83537 0.00943 -0.54961
vn 0.87425 0.07399 -0.47981
vn 0.87425 0.07399 -0.47981
vn 0.87425 0.07399 -0.47981
vn 0.98129 -0.00294 -0.19250
vn 0.98129 -0.00294 -0.19250
vn 0.98129 -0.00294 -0.19250
vn 0.87774 -0.05850 -0.47555
vn 0.87774 -0.05850 -0.47555
vn 0.87774 -0.05850 -0.47555
vn 0.72378 0.03084 -0.68934
vn -0.23342 -0.94709 0.22031
vn 0.89080 0.42963 0.14795
vn 0.85485 0.45938 0.24125
vn 0.96459 0.08955 -0.24807
vn 0.91796 0.07177 -0.39013
vn 0.89152 0.07166 -0.44728
vn 0.77723 -0.00370 -0.62920
vn 0.94799 0.27911 0.15302
vn 0.69431 0.65418 0.29997
vn 0.87425 0.07400 -0.47981
vn 0.87425 0.07400 -0.47981
vn 0.87425 0.07400 -0.47981
vn 0.49470 0.12179 -0.86049
vn 0.49470 0.12179 -0.86049
vn 0.49470 0.12179 -0.86049
vn -0.76467 0.64356 -0.03320
vn -0.71881 0.61614 -0.32200
vn -0.36428 0.75331 0.54756
vn -0.21296 0.56556 0.79673
vn 0.49925 0.31406 0.80754
vn 0.66298 0.04460 0.74731
vn 0.66298 0.04460 0.74731
vn 0.49925 0.31406 0.80754
vn 0.95528 -0.23454 0.18007
vn 0.93844 -0.34073 -0.05687
vn 0.63391 -0.35954 -0.68475
vn 0.42444 -0.24737 -0.87101
vn -0.23024 0.07326 -0.97037
vn -0.45506 0.25909 -0.85194
vn 0.54125 0.76045 -0.35883
vn 0.94253 -0.04810 0.33065
vn -0.00001 -0.96747 0.25299
vn -0.15200 -0.97622 0.15454
f 40/40/40 43/43/43 41/41/41
f 49/49/49 41/41/41 48/48/48
f 41/41/41 49/49/49 42/42/42
f 43/43/43 48/48/48 41/41/41
f 41/41/41 42/42/42 34/34/34
f 47/47/47 36/36/36 35/35/35
f 36/36/36 47/47/47 44/44/44
f 35/35/35 50/50/50 47/47/47
f 151/151/151 187/187/187 188/188/188
f 186/186/186 152/152/152 151/151/151
f 241/241/241 150/150/150 368/368/368
f 187/187/187 241/241/241 368/368/368
f 188/188/188 187/187/187 368/368/368
f 188/188/188 397/397/397 429/429/429
f 429/429/429 232/232/232 188/188/188
f 397/397/397 188/188/188 368/368/368
f 188/188/188 232/232/232 231/231/231
f 231/231/231 186/186/186 188/188/188
f 397/397/397 368/368/368 369/369/369
f 416/416/416 417/417/417 415/415/415
f 418/418/418 419/419/419 420/420/420
f 421/421/421 420/420/420 422/422/422
f 420/420/420 421/421/421 418/418/418
f 422/422/422 423/423/423 421/421/421
f 370/370/370 149/149/149 162/162/162
f 370/370/370 369/369/369 149/149/149
f 369/369/369 368/368/368 149/149/149
f 368/368/368 150/150/150 149/149/149
f 162/162/162 149/149/149 153/153/153
f 153/153/153 149/149/149 152/152/152
f 149/149/149 151/151/151 152/152/152
f 149/149/149 150/150/150 151/151/151
f 162/162/162 375/375/375 370/370/370
f 153/153/153 163/163/163 162/162/162
f 187/187/187 151/151/151 241/241/241
f 241/241/241 151/151/151 150/150/150
f 186/186/186 151/151/151 188/188/188
f 67/67/67 68/68/68 69/69/69
f 10/10/10 9/9/9 32/32/32
f 24/24/24 10/10/10 32/32/32
f 9/9/9 10/10/10 11/11/11
f 32/32/32 9/9/9 31/31/31
f 32/32/32 31/31/31 28/28/28
f 24/24/24 32/32/32 28/28/28
f 27/27/27 24/24/24 28/28/28
f 33/33/33 28/28/28 31/31/31
f 27/27/27 28/28/28 33/33/33
f 31/31/31 37/37/37 33/33/33
f 37/37/37 31/31/31 30/30/30
f 40/40/40 33/33/33 37/37/37
f 34/34/34 33/33/33 41/41/41
f 40/40/40 41/41/41 33/33/33
f 33/33/33 34/34/34 27/27/27
f 44/44/44 37/37/37 36/36/36
f 37/37/37 44/44/44 40/40/40
f 30/30/30 36/36/36 37/37/37
f 43/43/43 40/40/40 46/46/46
f 40/40/40 45/45/45 46/46/46
f 44/44/44 45/45/45 40/40/40
f 156/156/156 157/157/157 154/154/154
f 154/154/154 155/155/155 156/156/156
f 156/156/156 372/372/372 373/373/373
f 373/373/373 158/158/158 156/156/156
f 156/156/156 155/155/155 371/371/371
f 371/371/371 372/372/372 156/156/156
f 156/156/156 158/158/158 161/161/161
f 161/161/161 157/157/157 156/156/156
f 160/160/160 161/161/161 158/158/158
f 374/374/374 159/159/159 158/158/158
f 158/158/158 373/373/373 374/374/374
f 158/158/158 159/159/159 160/160/160
f 164/164/164 165/165/165 160/160/160
f 402/402/402 401/401/401 303/303/303
f 303/303/303 401/401/401 400/400/400
f 400/400/400 326/326/326 303/303/303
f 326/326/326 400/400/400 321/321/321
f 321/321/321 327/327/327 326/326/326
f 299/299/299 326/326/326 327/327/327
f 362/362/362 327/327/327 321/321/321
f 321/321/321 318/318/318 362/362/362
f 319/319/319 318/318/318 321/321/321
f 321/321/321 322/322/322 319/319/319
f 327/327/327 330/330/330 307/307/307
f 399/399/399 404/404/404 327/327/327
f 327/327/327 362/362/362 399/399/399
f 404/404/404 330/330/330 327/327/327
f 327/327/327 307/307/307 299/299/299
f 362/362/362 317/317/317 363/363/363
f 398/398/398 399/399/399 362/362/362
f 362/362/362 363/363/363 398/398/398
f 318/318/318 317/317/317 362/362/362
f 317/317/317 318/318/318 319/319/319
f 144/144/144 317/317/317 320/320/320
f 143/143/143 363/363/363 317/317/317
f 317/317/317 144/144/144 143/143/143
f 319/319/319 320/320/320 317/317/317
f 320/320/320 233/233/233 144/144/144
f 144/144/144 233/233/233 91/91/91
f 91/91/91 90/90/90 144/144/144
f 258/258/258 259/259/259 257/257/257
f 268/268/268 265/265/265 270/270/270
f 271/271/271 265/265/265 264/264/264
f 270/270/270 265/265/265 271/271/271
f 258/258/258 264/264/264 265/265/265
f 266/266/266 268/268/268 274/274/274
f 270/270/270 274/274/274 268/268/268
f 273/273/273 276/276/276 270/270/270
f 270/270/270 276/276/276 275/275/275
f 274/274/274 270/270/270 275/275/275
f 270/270/270 271/271/271 273/273/273
f 279/279/279 278/278/278 271/271/271
f 271/271/271 272/272/272 279/279/279
f 273/273/273 271/271/271 278/278/278
f 264/264/264 272/272/272 271/271/271
f 274/274/274 277/277/277 266/266/266
f 277/277/277 280/280/280 267/267/267
f 267/267/267 266/266/266 277/277/277
f 258/258/258 257/257/257 228/228/228
f 228/228/228 428/428/428 258/258/258
f 228/228/228 257/257/257 282/282/282
f 257/257/257 250/250/250 282/282/282
f 248/248/248 250/250/250 257/257/257
f 282/282/282 230/230/230 228/228/228
f 228/228/228 230/230/230 51/51/51
f 51/51/51 24/24/24 228/228/228
f 27/27/27 229/229/229 228/228/228
f 228/228/228 24/24/24 27/27/27
f 287/287/287 283/283/283 282/282/282
f 282/282/282 281/281/281 287/287/287
f 282/282/282 283/283/283 284/284/284
f 250/250/250 281/281/281 282/282/282
f 281/281/281 250/250/250 245/245/245
f 256/256/256 281/281/281 245/245/245
f 287/287/287 281/281/281 256/256/256
f 256/256/256 245/245/245 7/7/7
f 8/8/8 7/7/7 245/245/245
f 245/245/245 244/244/244 8/8/8
f 7/7/7 22/22/22 256/256/256
f 256/256/256 286/286/286 287/287/287
f 256/256/256 255/255/255 285/285/285
f 256/256/256 285/285/285 286/286/286
f 255/255/255 256/256/256 22/22/22
f 23/23/23 22/22/22 7/7/7
f 7/7/7 6/6/6 23/23/23
f 6/6/6 7/7/7 8/8/8
f 8/8/8 5/5/5 6/6/6
f 14/14/14 6/6/6 3/3/3
f 52/52/52 6/6/6 14/14/14
f 23/23/23 6/6/6 52/52/52
f 221/221/221 219/219/219 218/218/218
f 215/215/215 218/218/218 219/219/219
f 219/219/219 216/216/216 215/215/215
f 216/216/216 217/217/217 214/214/214
f 214/214/214 215/215/215 216/216/216
f 291/291/291 286/286/286 285/285/285
f 285/285/285 293/293/293 291/291/291
f 293/293/293 294/294/294 291/291/291
f 291/291/291 294/294/294 292/292/292
f 287/287/287 286/286/286 291/291/291
f 291/291/291 292/292/292 287/287/287
f 292/292/292 294/294/294 296/296/296
f 294/294/294 295/295/295 296/296/296
f 292/292/292 296/296/296 283/283/283
f 283/283/283 287/287/287 292/292/292
f 283/283/283 296/296/296 295/295/295
f 295/295/295 284/284/284 283/283/283
f 404/404/404 399/399/399 405/405/405
f 198/198/198 200/200/200 201/201/201
f 104/104/104 198/198/198 197/197/197
f 201/201/201 189/189/189 198/198/198
f 197/197/197 198/198/198 189/189/189
f 197/197/197 105/105/105 104/104/104
f 189/189/189 201/201/201 240/240/240
f 240/240/240 190/190/190 189/189/189
f 240/240/240 201/201/201 399/399/399
f 399/399/399 398/398/398 240/240/240
f 299/299/299 307/307/307 304/304/304
f 306/306/306 299/299/299 304/304/304
f 249/249/249 250/250/250 251/251/251
f 251/251/251 53/53/53 55/55/55
f 55/55/55 53/53/53 13/13/13
f 13/13/13 12/12/12 55/55/55
f 3/3/3 12/12/12 14/14/14
f 12/12/12 13/13/13 14/14/14
f 13/13/13 11/11/11 10/10/10
f 11/11/11 13/13/13 53/53/53
f 13/13/13 10/10/10 14/14/14
f 53/53/53 251/251/251 247/247/247
f 247/247/247 54/54/54 53/53/53
f 53/53/53 54/54/54 11/11/11
f 251/251/251 248/248/248 247/247/247
f 251/251/251 250/250/250 248/248/248
f 247/247/247 254/254/254 226/226/226
f 226/226/226 54/54/54 247/247/247
f 246/246/246 254/254/254 247/247/247
f 246/246/246 247/247/247 248/248/248
f 243/243/243 2/2/2 1/1/1
f 1/1/1 242/242/242 243/243/243
f 3/3/3 4/4/4 1/1/1
f 1/1/1 2/2/2 3/3/3
f 2/2/2 243/243/243 249/249/249
f 250/250/250 249/249/249 243/243/243
f 243/243/243 245/245/245 250/250/250
f 243/243/243 242/242/242 244/244/244
f 244/244/244 245/245/245 243/243/243
f 249/249/249 55/55/55 2/2/2
f 2/2/2 55/55/55 12/12/12
f 12/12/12 3/3/3 2/2/2
f 55/55/55 249/249/249 251/251/251
f 168/168/168 169/169/169 166/166/166
f 166/166/166 167/167/167 168/168/168
f 379/379/379 380/380/380 377/377/377
f 377/377/377 378/378/378 379/379/379
f 3/3/3 6/6/6 5/5/5
f 5/5/5 4/4/4 3/3/3
f 60/60/60 52/52/52 51/51/51
f 23/23/23 52/52/52 60/60/60
f 14/14/14 51/51/51 52/52/52
f 24/24/24 51/51/51 14/14/14
f 10/10/10 24/24/24 14/14/14
f 51/51/51 57/57/57 60/60/60
f 51/51/51 56/56/56 57/57/57
f 65/65/65 60/60/60 57/57/57
f 60/60/60 65/65/65 64/64/64
f 64/64/64 58/58/58 60/60/60
f 60/60/60 58/58/58 23/23/23
f 69/69/69 68/68/68 57/57/57
f 57/57/57 56/56/56 69/69/69
f 57/57/57 68/68/68 65/65/65
f 65/65/65 68/68/68 67/67/67
f 64/64/64 65/65/65 67/67/67
f 66/66/66 64/64/64 67/67/67
f 64/64/64 66/66/66 59/59/59
f 59/59/59 58/58/58 64/64/64
f 23/23/23 58/58/58 59/59/59
f 23/23/23 59/59/59 20/20/20
f 22/22/22 23/23/23 20/20/20
f 20/20/20 21/21/21 22/22/22
f 22/22/22 21/21/21 255/255/255
f 90/90/90 142/142/142 143/143/143
f 93/93/93 139/139/139 90/90/90
f 94/94/94 139/139/139 93/93/93
f 99/99/99 100/100/100 94/94/94
f 94/94/94 191/191/191 99/99/99
f 139/139/139 94/94/94 100/100/100
f 189/189/189 139/139/139 100/100/100
f 190/190/190 142/142/142 139/139/139
f 139/139/139 189/189/189 190/190/190
f 100/100/100 80/80/80 105/105/105
f 100/100/100 197/197/197 189/189/189
f 197/197/197 100/100/100 105/105/105
f 100/100/100 99/99/99 72/72/72
f 72/72/72 80/80/80 100/100/100
f 74/74/74 99/99/99 191/191/191
f 73/73/73 72/72/72 99/99/99
f 99/99/99 74/74/74 73/73/73
f 191/191/191 192/192/192 74/74/74
f 193/193/193 75/75/75 74/74/74
f 74/74/74 192/192/192 193/193/193
f 73/73/73 74/74/74 75/75/75
f 75/75/75 76/76/76 73/73/73
f 194/194/194 185/185/185 75/75/75
f 75/75/75 193/193/193 194/194/194
f 76/76/76 75/75/75 185/185/185
f 185/185/185 106/106/106 76/76/76
f 390/390/390 391/391/391 392/392/392
f 179/179/179 180/180/180 181/181/181
f 336/336/336 337/337/337 338/338/338
f 113/113/113 114/114/114 115/115/115
f 146/146/146 147/147/147 148/148/148
f 365/365/365 366/366/366 367/367/367
f 339/339/339 340/340/340 341/341/341
f 116/116/116 117/117/117 118/118/118
f 333/333/333 334/334/334 335/335/335
f 110/110/110 111/111/111 112/112/112
f 170/170/170 171/171/171 172/172/172
f 381/381/381 382/382/382 383/383/383
f 342/342/342 343/343/343 344/344/344
f 119/119/119 120/120/120 121/121/121
f 11/11/11 54/54/54 226/226/226
f 226/226/226 19/19/19 11/11/11
f 29/29/29 19/19/19 38/38/38
f 19/19/19 30/30/30 31/31/31
f 31/31/31 9/9/9 19/19/19
f 19/19/19 29/29/29 30/30/30
f 9/9/9 11/11/11 19/19/19
f 38/38/38 39/39/39 29/29/29
f 36/36/36 30/30/30 29/29/29
f 29/29/29 35/35/35 36/36/36
f 38/38/38 254/254/254 261/261/261
f 261/261/261 269/269/269 38/38/38
f 254/254/254 246/246/246 262/262/262
f 262/262/262 260/260/260 254/254/254
f 254/254/254 260/260/260 261/261/261
f 266/266/266 267/267/267 261/261/261
f 261/261/261 260/260/260 266/266/266
f 260/260/260 262/262/262 268/268/268
f 268/268/268 266/266/266 260/260/260
f 263/263/263 259/259/259 262/262/262
f 262/262/262 259/259/259 265/265/265
f 265/265/265 268/268/268 262/262/262
f 263/263/263 262/262/262 246/246/246
f 248/248/248 263/263/263 246/246/246
f 257/257/257 263/263/263 248/248/248
f 257/257/257 259/259/259 263/263/263
f 265/265/265 259/259/259 258/258/258
f 15/15/15 18/18/18 25/25/25
f 25/25/25 26/26/26 15/15/15
f 17/17/17 18/18/18 15/15/15
f 15/15/15 16/16/16 17/17/17
f 227/227/227 25/25/25 18/18/18
f 18/18/18 224/224/224 227/227/227
f 18/18/18 17/17/17 225/225/225
f 225/225/225 224/224/224 18/18/18
f 253/253/253 25/25/25 227/227/227
f 252/252/252 26/26/26 25/25/25
f 25/25/25 253/253/253 252/252/252
f 227/227/227 223/223/223 427/427/427
f 227/227/227 427/427/427 253/253/253
f 357/357/357 360/360/360 358/358/358
f 357/357/357 358/358/358 359/359/359
f 360/360/360 364/364/364 358/358/358
f 358/358/358 364/364/364 361/361/361
f 361/361/361 359/359/359 358/358/358
f 134/134/134 136/136/136 137/137/137
f 134/134/134 135/135/135 136/136/136
f 136/136/136 138/138/138 145/145/145
f 137/137/137 136/136/136 145/145/145
f 138/138/138 136/136/136 135/135/135
f 160/160/160 159/159/159 164/164/164
f 164/164/164 159/159/159 374/374/374
f 374/374/374 376/376/376 164/164/164
f 79/79/79 101/101/101 82/82/82
f 82/82/82 101/101/101 103/103/103
f 102/102/102 103/103/103 101/101/101
f 102/102/102 300/300/300 328/328/328
f 328/328/328 103/103/103 102/102/102
f 310/310/310 141/141/141 103/103/103
f 103/103/103 328/328/328 310/310/310
f 103/103/103 141/141/141 82/82/82
f 83/83/83 82/82/82 141/141/141
f 141/141/141 236/236/236 83/83/83
f 104/104/104 83/83/83 236/236/236
f 141/141/141 310/310/310 309/309/309
f 309/309/309 236/236/236 141/141/141
f 305/305/305 310/310/310 328/328/328
f 310/310/310 305/305/305 308/308/308
f 308/308/308 309/309/309 310/310/310
f 305/305/305 328/328/328 300/300/300
f 306/306/306 305/305/305 300/300/300
f 299/299/299 306/306/306 300/300/300
f 308/308/308 305/305/305 304/304/304
f 304/304/304 305/305/305 306/306/306
f 330/330/330 308/308/308 307/307/307
f 308/308/308 330/330/330 329/329/329
f 329/329/329 309/309/309 308/308/308
f 307/307/307 308/308/308 304/304/304
f 236/236/236 309/309/309 329/329/329
f 329/329/329 199/199/199 236/236/236
f 404/404/404 405/405/405 329/329/329
f 329/329/329 330/330/330 404/404/404
f 199/199/199 329/329/329 405/405/405
f 236/236/236 199/199/199 104/104/104
f 405/405/405 200/200/200 199/199/199
f 199/199/199 200/200/200 198/198/198
f 198/198/198 104/104/104 199/199/199
f 201/201/201 200/200/200 405/405/405
f 405/405/405 399/399/399 201/201/201
f 220/220/220 208/208/208 211/211/211
f 210/210/210 211/211/211 208/208/208
f 208/208/208 209/209/209 210/210/210
f 211/211/211 221/221/221 220/220/220
f 218/218/218 220/220/220 221/221/221
f 221/221/221 211/211/211 222/222/222
f 211/211/211 210/210/210 222/222/222
f 210/210/210 213/213/213 222/222/222
f 213/213/213 210/210/210 209/209/209
f 209/209/209 212/212/212 213/213/213
f 219/219/219 221/221/221 222/222/222
f 216/216/216 219/219/219 222/222/222
f 217/217/217 216/216/216 222/222/222
f 122/122/122 123/123/123 124/124/124
f 345/345/345 346/346/346 347/347/347
f 227/227/227 224/224/224 223/223/223
f 223/223/223 224/224/224 225/225/225
f 253/253/253 427/427/427 225/225/225
f 225/225/225 17/17/17 253/253/253
f 223/223/223 225/225/225 427/427/427
f 252/252/252 253/253/253 17/17/17
f 17/17/17 16/16/16 252/252/252
f 182/182/182 183/183/183 184/184/184
f 393/393/393 394/394/394 395/395/395
f 348/348/348 349/349/349 350/350/350
f 125/125/125 126/126/126 127/127/127
f 143/143/143 144/144/144 90/90/90
f 233/233/233 320/320/320 325/325/325
f 324/324/324 325/325/325 320/320/320
f 320/320/320 319/319/319 324/324/324
f 319/319/319 322/322/322 323/323/323
f 323/323/323 324/324/324 319/319/319
f 313/313/313 324/324/324 323/323/323
f 325/325/325 324/324/324 313/313/313
f 325/325/325 237/237/237 233/233/233
f 237/237/237 325/325/325 312/312/312
f 313/313/313 312/312/312 325/325/325
f 233/233/233 237/237/237 98/98/98
f 98/98/98 91/91/91 233/233/233
f 312/312/312 238/238/238 237/237/237
f 237/237/237 238/238/238 87/87/87
f 87/87/87 98/98/98 237/237/237
f 238/238/238 312/312/312 311/311/311
f 311/311/311 312/312/312 313/313/313
f 311/311/311 235/235/235 238/238/238
f 238/238/238 235/235/235 84/84/84
f 84/84/84 87/87/87 238/238/238
f 98/98/98 87/87/87 86/86/86
f 86/86/86 87/87/87 84/84/84
f 86/86/86 97/97/97 98/98/98
f 91/91/91 98/98/98 97/97/97
f 86/86/86 89/89/89 96/96/96
f 96/96/96 97/97/97 86/86/86
f 86/86/86 85/85/85 88/88/88
f 88/88/88 89/89/89 86/86/86
f 84/84/84 85/85/85 86/86/86
f 84/84/84 235/235/235 234/234/234
f 234/234/234 85/85/85 84/84/84
f 234/234/234 235/235/235 311/311/311
f 239/239/239 234/234/234 314/314/314
f 311/311/311 314/314/314 234/234/234
f 85/85/85 234/234/234 239/239/239
f 239/239/239 88/88/88 85/85/85
f 314/314/314 315/315/315 239/239/239
f 315/315/315 314/314/314 313/313/313
f 313/313/313 314/314/314 311/311/311
f 313/313/313 316/316/316 315/315/315
f 323/323/323 316/316/316 313/313/313
f 92/92/92 97/97/97 96/96/96
f 96/96/96 95/95/95 92/92/92
f 97/97/97 92/92/92 91/91/91
f 92/92/92 95/95/95 94/94/94
f 94/94/94 93/93/93 92/92/92
f 92/92/92 93/93/93 90/90/90
f 90/90/90 91/91/91 92/92/92
f 139/139/139 142/142/142 90/90/90
f 387/387/387 388/388/388 389/389/389
f 176/176/176 177/177/177 178/178/178
f 202/202/202 203/203/203 204/204/204
f 406/406/406 407/407/407 408/408/408
f 384/384/384 385/385/385 386/386/386
f 173/173/173 174/174/174 175/175/175
f 108/108/108 107/107/107 331/331/331
f 331/331/331 332/332/332 108/108/108
f 106/106/106 107/107/107 108/108/108
f 301/301/301 332/332/332 331/331/331
f 332/332/332 301/301/301 298/298/298
f 298/298/298 297/297/297 332/332/332
f 297/297/297 300/300/300 102/102/102
f 299/299/299 300/300/300 297/297/297
f 297/297/297 298/298/298 299/299/299
f 298/298/298 303/303/303 326/326/326
f 326/326/326 299/299/299 298/298/298
f 302/302/302 303/303/303 298/298/298
f 298/298/298 301/301/301 302/302/302
f 301/301/301 331/331/331 396/396/396
f 396/396/396 302/302/302 301/301/301
f 403/403/403 402/402/402 302/302/302
f 302/302/302 396/396/396 403/403/403
f 303/303/303 302/302/302 402/402/402
f 131/131/131 132/132/132 133/133/133
f 354/354/354 355/355/355 356/356/356
f 61/61/61 62/62/62 63/63/63
f 288/288/288 289/289/289 290/290/290
f 106/106/106 185/185/185 196/196/196
f 195/195/195 196/196/196 185/185/185
f 185/185/185 194/194/194 195/195/195
f 196/196/196 107/107/107 106/106/106
f 196/196/196 396/396/396 331/331/331
f 331/331/331 107/107/107 196/196/196
f 396/396/396 196/196/196 195/195/195
f 195/195/195 403/403/403 396/396/396
f 72/72/72 71/71/71 78/78/78
f 72/72/72 77/77/77 80/80/80
f 78/78/78 77/77/77 72/72/72
f 78/78/78 71/71/71 79/79/79
f 79/79/79 71/71/71 101/101/101
f 101/101/101 71/71/71 102/102/102
f 77/77/77 78/78/78 79/79/79
f 81/81/81 77/77/77 79/79/79
f 80/80/80 77/77/77 81/81/81
f 105/105/105 80/80/80 81/81/81
f 81/81/81 83/83/83 104/104/104
f 104/104/104 105/105/105 81/81/81
f 82/82/82 83/83/83 81/81/81
f 81/81/81 79/79/79 82/82/82
f 128/128/128 129/129/129 130/130/130
f 351/351/351 352/352/352 353/353/353
f 413/413/413 412/412/412 425/425/425
f 414/414/414 415/415/415 412/412/412
f 412/412/412 413/413/413 414/414/414
f 424/424/424 426/426/426 413/413/413
f 413/413/413 426/426/426 414/414/414
f 425/425/425 424/424/424 413/413/413
f 424/424/424 425/425/425 423/423/423
f 422/422/422 426/426/426 424/424/424
f 423/423/423 422/422/422 424/424/424
f 420/420/420 426/426/426 422/422/422
f 419/419/419 426/426/426 420/420/420
f 414/414/414 426/426/426 416/416/416
f 415/415/415 414/414/414 416/416/416
f 140/140/140 70/70/70 109/109/109
f 109/109/109 70/70/70 73/73/73
f 102/102/102 71/71/71 70/70/70
f 70/70/70 140/140/140 102/102/102
f 72/72/72 73/73/73 70/70/70
f 70/70/70 71/71/71 72/72/72
f 332/332/332 297/297/297 140/140/140
f 140/140/140 108/108/108 332/332/332
f 102/102/102 140/140/140 297/297/297
f 109/109/109 108/108/108 140/140/140
f 76/76/76 106/106/106 109/109/109
f 73/73/73 76/76/76 109/109/109
f 108/108/108 109/109/109 106/106/106
f 205/205/205 206/206/206 207/207/207
f 409/409/409 410/410/410 411/411/411
