# shonisa_ad reconstructed from live game memory
v 9.61912 86.78860 -83.17240
v 0.00001 89.59583 -84.04254
v 0.00001 86.13360 -91.90071
v 11.03934 82.97802 -89.74545
v 14.35582 85.11655 -71.88157
v 12.50666 87.30309 -76.54757
v 11.96262 83.28169 -76.11858
v 10.94107 83.86650 -81.15836
v 13.09212 79.73895 -79.45679
v 14.60590 80.12794 -73.05981
v 0.00001 83.41958 -105.16289
v 8.28807 76.76297 -101.95409
v 32.01252 81.91525 16.94053
v -0.00000 99.71889 16.97620
v -0.00000 105.88165 -1.60940
v 31.13829 86.76471 -1.64596
v 11.84762 86.73688 -76.27131
v 10.90966 83.76598 -80.30010
v 13.41358 83.54367 -76.49047
v 12.39417 80.37605 -78.66640
v 13.95627 80.39375 -73.07362
v 13.54711 85.07814 -71.53980
v 11.79975 62.82221 -81.15678
v 15.84132 60.31652 -67.54938
v 20.47618 72.35445 -65.33492
v 15.84730 70.83105 -80.98784
v -0.00000 56.56456 -68.80873
v -0.00000 50.60427 -53.50051
v 20.75177 55.51328 -53.30448
v 10.39662 88.89130 -76.64141
v 0.00001 91.72350 -77.12103
v 19.72785 77.56966 -64.57894
v 15.19918 77.10241 -80.92793
v 15.88862 73.22455 -80.92062
v 39.13542 57.60820 -1.89552
v 40.07086 55.30992 16.91410
v 25.91605 27.96389 35.32507
v -0.00000 19.89738 35.30810
v -0.00000 23.87625 55.56570
v 25.39247 31.89810 55.60769
v 19.54552 68.93722 135.56268
v -0.00000 81.22030 135.73129
v -0.00000 84.16310 108.74942
v 24.26150 71.65464 108.43877
v 38.09816 54.59220 55.57101
v 40.01401 54.53880 35.37413
v 5.60867 68.02586 -123.66533
v 6.07864 70.81385 -123.62492
v 2.96256 70.91099 -144.09399
v 2.55482 69.53387 -142.63467
v 8.06460 65.78839 -101.93176
v 9.00554 70.77453 -101.89716
v 13.86639 91.00747 -64.01494
v 26.41865 66.46244 -52.71518
v 21.36670 87.68292 -52.24974
v -0.00000 19.22267 16.91520
v 26.11251 27.66606 16.91183
v -0.00000 59.14254 -81.54034
v 26.41865 66.46244 -52.71518
v 33.02844 62.17876 -38.14299
v 25.42867 89.82069 -38.45365
v 21.36670 87.68292 -52.24974
v 35.79867 60.01440 -21.32455
v 28.43063 89.48256 -21.03447
v -0.00000 65.62109 -123.82698
v -0.00000 63.17074 -101.87560
v 28.71542 74.81200 76.26863
v -0.00000 92.16930 75.98529
v 9.82129 94.69137 56.32488
v 31.16087 76.75497 55.75278
v 32.14979 78.92033 35.37726
v 35.17204 55.31998 76.33563
v 30.80566 55.85709 94.19695
v 26.10792 73.28441 94.32981
v 26.72244 54.02426 108.71545
v 24.26150 71.65464 108.43877
v 26.72244 54.02426 108.71545
v 15.03389 52.75549 135.66489
v -0.00000 70.88246 -146.54048
v -0.00000 68.49361 -144.62956
v 2.40875 76.20831 -143.22293
v 2.85149 73.23446 -144.25201
v 5.91806 73.20504 -123.56157
v 5.67829 76.32539 -123.71440
v 8.73605 73.20212 -101.63993
v 28.03210 46.21455 100.81806
v 29.46352 45.04712 93.68516
v 22.23307 39.23090 93.38642
v 20.34884 44.68666 108.82537
v 31.50870 46.23505 88.33013
v 23.48915 36.30131 76.16896
v 28.43725 47.83823 102.07539
v 31.33945 49.38584 94.27714
v 32.44259 47.87879 88.00694
v -0.00000 34.63398 93.55494
v -0.00000 39.55228 108.82052
v -0.00000 29.42020 76.20030
v -0.00000 39.55228 108.82052
v -0.00000 49.34656 135.57919
v 20.34884 44.68666 108.82537
v 5.91806 73.20504 -123.56157
v 2.85149 73.23446 -144.25201
v 0.00001 75.90016 -142.02132
v 0.00001 75.42033 -115.09603
v 9.00554 70.77453 -101.89716
v 15.84730 70.83105 -80.98784
v -0.00000 63.09134 -80.68414
v -0.00000 66.49465 -101.90292
v 2.96256 70.91099 -144.09399
v 6.07864 70.81385 -123.62492
v -0.00000 68.05311 -123.62352
v -0.00000 69.87168 -143.75293
v 15.88862 73.22455 -80.92062
v 0.00000 75.98122 -79.17632
v -0.00000 73.20626 -61.95468
v 20.47618 72.35445 -65.33492
v 20.47618 72.35445 -65.33492
v -0.00000 73.20626 -61.95468
v 8.73605 73.20212 -101.63993
v 0.00001 75.44827 -102.32375
v -0.00000 70.88246 -146.54048
v 20.75177 55.51328 -53.30448
v 23.71333 43.89338 -38.15001
v 7.81225 56.17479 193.46835
v 11.34641 68.35632 193.49545
v 13.48181 68.44482 179.04373
v 9.24785 56.78008 179.03577
v -0.00000 52.91657 160.23413
v 11.43961 55.47203 160.35730
v 15.82933 68.28679 160.23564
v 6.56572 55.11280 206.64091
v 9.39667 65.41759 209.63120
v -0.00000 53.82935 193.57309
v -0.00000 52.35508 206.10408
v 5.38158 74.86732 213.54895
v 7.30158 56.27269 224.30164
v 3.59544 65.24987 226.63907
v 5.15251 47.83823 220.58186
v -0.00000 46.19569 219.73656
v 5.42708 46.09953 236.12517
v -0.00000 53.50563 239.53223
v 3.54737 39.85202 232.61040
v -0.00000 38.28217 231.97142
v -0.00000 32.08786 243.27406
v 3.25014 36.53497 245.87384
v -0.00000 23.79734 257.87732
v -0.00000 40.18896 247.73257
v -0.00000 74.34003 232.77516
v 3.96619 95.56856 226.10382
v 1.49522 106.30584 233.98373
v -0.00000 108.99066 231.87369
v -0.00000 101.35889 219.01140
v -0.00000 113.47787 240.08138
v 5.18336 85.41924 219.15012
v -0.00000 80.72986 179.04462
v -0.00000 80.28325 160.23764
v -0.00000 93.32318 206.86433
v 0.00000 102.39285 -52.29089
v 0.00000 94.19724 -64.08887
v 25.96130 30.36224 -1.77742
v -0.00000 21.25254 -1.83810
v -0.00000 84.16310 108.74942
v -0.00000 87.33430 94.29282
v -0.00000 108.63206 -20.72821
v -0.00000 106.96649 -38.73530
v 0.00001 79.88785 -124.40657
v 0.00001 76.62170 -145.32068
v 0.00000 102.39285 -52.29089
v 0.00001 73.26456 -146.60263
v -0.00000 96.21850 35.41729
v 0.00001 73.26456 -146.60263
v -0.00000 50.60427 -53.50051
v -0.00000 34.87895 -37.73948
v 5.07747 104.04232 58.27806
v 1.35797 110.35904 62.49343
v -0.00000 108.73794 66.33249
v -0.00000 115.04915 68.04756
v 25.29451 36.85401 -23.55349
v -0.00000 27.04309 -24.00503
v -0.00000 82.91702 193.62460
v 37.18081 48.01078 -10.51657
v 35.02402 47.85448 -17.28738
v 38.08742 51.27268 -17.51757
v 36.65836 50.42080 -22.59013
v 47.34755 46.07943 -16.67775
v 46.25064 44.94736 -23.87266
v 57.55122 38.47727 -23.68352
v 58.49481 39.47947 -14.38894
v 46.53317 44.99601 -6.67878
v 57.98535 38.61949 -2.18307
v 69.96024 32.89491 -12.10016
v 69.00420 31.90743 -21.29661
v 80.74168 25.26786 -17.30295
v 81.52719 26.08839 -9.41685
v 108.52962 9.05166 -0.59723
v 112.49550 6.71669 4.35835
v 108.94973 9.51781 1.90079
v 108.69416 9.18170 4.98174
v 45.80550 43.61525 -5.00908
v 56.95141 37.22749 0.27854
v 55.50682 35.93110 -14.01452
v 44.40839 42.59839 -15.78267
v 107.99250 8.34405 5.99655
v 113.37325 5.25788 5.09462
v 107.19553 7.44293 1.76216
v 56.55893 37.34303 -25.19416
v 68.12390 30.92513 -23.32728
v 113.37325 5.25788 5.09462
v 35.50116 49.37799 -24.58922
v 45.21869 43.78473 -25.59993
v 36.65836 50.42080 -22.59013
v 35.50116 49.37799 -24.58922
v 35.02402 47.85448 -17.28738
v 45.21869 43.78473 -25.59993
v 94.71521 17.20218 -9.77905
v 93.77560 16.11688 -11.52799
v 107.79049 8.19310 -2.27848
v 37.18081 48.01078 -10.51657
v 80.94350 25.26505 -0.33449
v 80.09261 24.24636 1.35277
v 68.46686 30.88411 1.86579
v 69.41136 32.01038 -0.45965
v 79.02699 23.17072 -8.31085
v 67.11354 29.60838 -11.33719
v 37.75089 50.16729 -13.35674
v 38.08742 51.27268 -17.51757
v 68.12390 30.92513 -23.32728
v 56.55893 37.34303 -25.19416
v 107.79049 8.19310 -2.27848
v 93.77560 16.11688 -11.52799
v 92.99010 15.09809 -3.87200
v 95.32140 17.78201 -4.58698
v 79.79283 24.19783 -19.11957
v 94.70347 17.06558 1.49467
v 94.00573 16.20978 2.84569
v 79.79283 24.19783 -19.11957
v 37.75089 50.16729 -13.35674
v 35.50116 49.37799 -24.58922
v -0.00000 101.75586 67.75996
v -0.00000 113.31531 57.45037
v -0.00000 107.58581 45.93691
v -0.00000 54.52174 179.03476
v -0.00000 92.73320 235.30804
v -0.00000 85.04035 233.70525
v -0.00000 103.03278 237.60783
v 31.50870 46.23505 88.33013
v 29.46352 45.04712 93.68516
v 40.77246 39.22520 96.50312
v 43.08500 40.47498 89.11687
v 28.03210 46.21455 100.81806
v 36.05688 41.28123 107.08448
v 31.33945 49.38584 94.27714
v 32.44259 47.87879 88.00694
v 43.97586 42.11803 88.47872
v 42.27540 43.13309 96.91974
v 36.43140 42.90138 108.12361
v 28.43725 47.83823 102.07539
v 52.79811 33.68607 98.62012
v 55.10878 34.86020 91.66323
v 43.72248 37.79440 107.72960
v 51.40432 34.52283 106.53040
v 56.01087 36.45480 91.03336
v 54.15219 37.43269 99.54617
v 44.48879 39.19227 109.18467
v 66.51955 29.28990 96.12897
v 64.53891 28.13475 101.90144
v 73.67218 23.72877 105.30482
v 74.84593 24.65798 102.29140
v 63.43097 29.06989 107.55302
v 73.08522 24.59510 109.18293
v 65.91621 31.72008 102.69456
v 67.40776 30.83604 95.60096
v 75.75517 26.21427 101.29188
v 75.06828 26.93726 106.10820
v 63.71902 30.67452 109.18887
v 73.43022 26.11023 110.73811
v 36.43140 42.90138 108.12361
v 28.43725 47.83823 102.07539
v 44.48879 39.19227 109.18467
v 63.71902 30.67452 109.18887
v 73.43022 26.11023 110.73811
v 78.96605 22.13116 107.95333
v 79.93951 23.43235 108.25848
v 79.93951 23.43235 108.25848
v 52.07899 35.94373 108.17308
v 52.07899 35.94373 108.17308
v -9.61911 86.78861 -83.17242
v -11.03934 82.97803 -89.74545
v -14.35582 85.11656 -71.88157
v -11.96262 83.28170 -76.11858
v -12.50665 87.30310 -76.54757
v -10.94106 83.86651 -81.15836
v -13.09212 79.73895 -79.45679
v -14.60590 80.12794 -73.05981
v -8.28806 76.76298 -101.95409
v -32.01253 81.91525 16.94053
v -31.13830 86.76471 -1.64596
v -11.84761 86.73689 -76.27131
v -13.41358 83.54368 -76.49047
v -10.90965 83.76599 -80.30010
v -12.39416 80.37605 -78.66640
v -13.95626 80.39375 -73.07362
v -13.54711 85.07815 -71.53980
v -11.79975 62.82220 -81.15678
v -15.84730 70.83105 -80.98784
v -20.47618 72.35445 -65.33492
v -15.84133 60.31652 -67.54938
v -20.75177 55.51329 -53.30448
v -10.39662 88.89130 -76.64141
v -15.88861 73.22456 -80.92062
v -15.19918 77.10242 -80.92793
v -19.72784 77.56967 -64.57894
v -40.07087 55.30992 16.91410
v -39.13543 57.60820 -1.89552
v -25.91606 27.96389 35.32507
v -25.39248 31.89810 55.60769
v -19.54552 68.93722 135.56268
v -24.26151 71.65465 108.43877
v -0.00000 81.22030 135.73129
v -40.01402 54.53880 35.37413
v -38.09817 54.59220 55.57102
v -5.60868 68.02586 -123.66533
v -2.55482 69.53387 -142.63467
v -2.96256 70.91099 -144.09399
v -6.07864 70.81385 -123.62492
v -8.06460 65.78838 -101.93176
v -9.00554 70.77452 -101.89716
v -13.86639 91.00748 -64.01494
v -26.41866 66.46244 -52.71518
v -21.36670 87.68292 -52.24975
v -26.11252 27.66606 16.91183
v -26.41866 66.46244 -52.71518
v -21.36670 87.68292 -52.24975
v -25.42867 89.82069 -38.45365
v -33.02844 62.17876 -38.14299
v -28.43063 89.48257 -21.03447
v -35.79868 60.01441 -21.32454
v -28.71543 74.81200 76.26863
v -31.16088 76.75496 55.75278
v -9.82129 94.69137 56.32488
v -32.14979 78.92033 35.37726
v -35.17205 55.31998 76.33563
v -26.10793 73.28441 94.32981
v -30.80567 55.85709 94.19695
v -24.26151 71.65465 108.43877
v -26.72245 54.02426 108.71545
v -26.72245 54.02426 108.71545
v -15.03389 52.75549 135.66489
v -2.40872 76.20831 -143.22293
v -5.67827 76.32539 -123.71440
v -5.91804 73.20505 -123.56157
v -2.85146 73.23446 -144.25201
v -8.73604 73.20213 -101.63993
v -28.03211 46.21456 100.81806
v -20.34885 44.68666 108.82537
v -22.23308 39.23090 93.38642
v -29.46353 45.04713 93.68517
v -23.48915 36.30131 76.16896
v -31.50871 46.23506 88.33013
v -28.43726 47.83824 102.07539
v -31.33946 49.38585 94.27714
v -32.44260 47.87881 88.00694
v -20.34885 44.68666 108.82537
v -0.00000 49.34656 135.57919
v -5.91804 73.20505 -123.56157
v -2.85146 73.23446 -144.25201
v -9.00554 70.77452 -101.89716
v -15.84730 70.83105 -80.98784
v -2.96256 70.91099 -144.09399
v -6.07864 70.81385 -123.62492
v -15.88861 73.22456 -80.92062
v -20.47618 72.35445 -65.33492
v -20.47618 72.35445 -65.33492
v -8.73604 73.20213 -101.63993
v -23.71334 43.89338 -38.15001
v -20.75177 55.51329 -53.30448
v -7.81225 56.17479 193.46835
v -9.24785 56.78008 179.03577
v -13.48181 68.44482 179.04373
v -11.34640 68.35632 193.49545
v -11.43962 55.47203 160.35730
v -0.00000 52.91657 160.23413
v -15.82934 68.28679 160.23564
v -9.39668 65.41759 209.63120
v -6.56573 55.11280 206.64091
v -5.38159 74.86732 213.54895
v -3.59545 65.24987 226.63907
v -7.30158 56.27269 224.30164
v -5.15252 47.83823 220.58186
v -5.42709 46.09953 236.12517
v -3.54738 39.85202 232.61040
v -3.25015 36.53497 245.87384
v -3.96619 95.56856 226.10382
v -1.49523 106.30584 233.98373
v -5.18337 85.41924 219.15012
v -0.00000 80.28325 160.23764
v -0.00000 80.72986 179.04462
v -25.96130 30.36224 -1.77742
v -5.07748 104.04232 58.27806
v -1.35798 110.35904 62.49343
v -25.29452 36.85401 -23.55349
v -35.02402 47.85449 -17.28738
v -37.18081 48.01080 -10.51657
v -38.08743 51.27269 -17.51757
v -36.65836 50.42081 -22.59013
v -47.34756 46.07944 -16.67776
v -58.49481 39.47948 -14.38894
v -57.55123 38.47728 -23.68352
v -46.25064 44.94736 -23.87267
v -46.53318 44.99602 -6.67878
v -57.98536 38.61950 -2.18307
v -69.96024 32.89492 -12.10017
v -81.52721 26.08839 -9.41683
v -80.74170 25.26786 -17.30294
v -69.00420 31.90744 -21.29662
v -108.52965 9.05164 -0.59721
v -108.94976 9.51779 1.90081
v -112.49553 6.71668 4.35837
v -108.69419 9.18169 4.98176
v -45.80551 43.61526 -5.00907
v -44.40839 42.59840 -15.78266
v -55.50683 35.93111 -14.01452
v -56.95142 37.22750 0.27855
v -107.99253 8.34404 5.99657
v -107.19556 7.44292 1.76218
v -113.37328 5.25786 5.09464
v -68.12390 30.92514 -23.32728
v -56.55893 37.34304 -25.19416
v -113.37328 5.25786 5.09464
v -35.50117 49.37801 -24.58922
v -36.65836 50.42081 -22.59013
v -45.21869 43.78474 -25.59993
v -35.50117 49.37801 -24.58922
v -45.21869 43.78474 -25.59993
v -35.02402 47.85449 -17.28738
v -94.71523 17.20218 -9.77903
v -107.79052 8.19309 -2.27846
v -93.77562 16.11688 -11.52797
v -37.18081 48.01080 -10.51657
v -80.94351 25.26505 -0.33448
v -69.41136 32.01040 -0.45965
v -68.46687 30.88412 1.86579
v -80.09262 24.24637 1.35278
v -79.02701 23.17072 -8.31085
v -67.11355 29.60839 -11.33719
v -38.08743 51.27269 -17.51757
v -37.75090 50.16730 -13.35674
v -68.12390 30.92514 -23.32728
v -56.55893 37.34304 -25.19416
v -107.79052 8.19309 -2.27846
v -92.99011 15.09808 -3.87198
v -93.77562 16.11688 -11.52797
v -95.32142 17.78201 -4.58697
v -79.79283 24.19783 -19.11956
v -94.70348 17.06557 1.49469
v -94.00574 16.20978 2.84571
v -79.79283 24.19783 -19.11956
v -37.75090 50.16730 -13.35674
v -35.50117 49.37801 -24.58922
v -0.00000 54.52174 179.03476
v -31.50871 46.23506 88.33013
v -43.08501 40.47499 89.11687
v -40.77247 39.22521 96.50311
v -29.46353 45.04713 93.68517
v -36.05689 41.28124 107.08447
v -28.03211 46.21456 100.81806
v -31.33946 49.38585 94.27714
v -42.27541 43.13311 96.91974
v -43.97588 42.11804 88.47872
v -32.44260 47.87881 88.00694
v -28.43726 47.83824 102.07539
v -36.43141 42.90139 108.12360
v -55.10879 34.86021 91.66323
v -52.79813 33.68609 98.62012
v -51.40433 34.52285 106.53040
v -43.72249 37.79441 107.72960
v -54.15220 37.43270 99.54617
v -56.01088 36.45481 91.03336
v -44.48880 39.19228 109.18466
v -66.51955 29.28992 96.12896
v -74.84594 24.65800 102.29140
v -73.67220 23.72879 105.30481
v -64.53893 28.13476 101.90143
v -73.08524 24.59511 109.18291
v -63.43097 29.06991 107.55302
v -65.91622 31.72010 102.69456
v -75.06829 26.93728 106.10819
v -75.75518 26.21429 101.29187
v -67.40777 30.83606 95.60096
v -63.71902 30.67454 109.18885
v -73.43023 26.11024 110.73809
v -36.43141 42.90139 108.12360
v -28.43726 47.83824 102.07539
v -44.48880 39.19228 109.18466
v -73.43023 26.11024 110.73809
v -63.71902 30.67454 109.18885
v -78.96606 22.13117 107.95332
v -79.93952 23.43237 108.25846
v -79.93952 23.43237 108.25846
v -52.07899 35.94374 108.17307
v -52.07899 35.94374 108.17307
vt 0.233621 0.792939
vt 0.219525 0.831400
vt 0.192486 0.817536
vt 0.212204 0.775870
vt 0.275741 0.779115
vt 0.259152 0.789883
vt 0.259014 0.774294
vt 0.241740 0.779097
vt 0.248598 0.760169
vt 0.270813 0.759099
vt 0.150798 0.799225
vt 0.169074 0.750990
vt 0.615658 0.791895
vt 0.607328 0.941664
vt 0.532724 0.950579
vt 0.545766 0.796647
vt 0.124459 0.956055
vt 0.174088 0.909281
vt 0.121686 0.905916
vt 0.149839 0.861812
vt 0.093391 0.860163
vt 0.070393 0.914725
vt 0.248860 0.655395
vt 0.303329 0.645782
vt 0.299416 0.710749
vt 0.246803 0.703359
vt 0.300471 0.602775
vt 0.337227 0.553494
vt 0.352008 0.629019
vt 0.256175 0.800194
vt 0.242095 0.841513
vt 0.305647 0.743309
vt 0.243918 0.746139
vt 0.242717 0.729580
vt 0.553873 0.677463
vt 0.614800 0.673000
vt 0.683829 0.544353
vt 0.691913 0.435032
vt 0.777158 0.452962
vt 0.758987 0.561931
vt 0.141524 0.434214
vt 0.138086 0.351874
vt 0.026756 0.365941
vt 0.027635 0.459880
vt 0.753386 0.673320
vt 0.685344 0.675347
vt 0.094570 0.670191
vt 0.093989 0.681858
vt 0.026933 0.670570
vt 0.033572 0.665247
vt 0.170996 0.670213
vt 0.171648 0.692265
vt 0.302884 0.806283
vt 0.361690 0.693408
vt 0.355109 0.786893
vt 0.610590 0.433800
vt 0.612157 0.542333
vt 0.247128 0.617242
vt 0.361719 0.693265
vt 0.418284 0.680628
vt 0.408410 0.793214
vt 0.355045 0.786957
vt 0.480095 0.679195
vt 0.467858 0.798351
vt 0.092229 0.645585
vt 0.167981 0.637530
vt 0.829344 0.773400
vt 0.843249 0.905784
vt 0.758489 0.890732
vt 0.752659 0.779444
vt 0.682699 0.784595
vt 0.830801 0.677390
vt 0.892700 0.684696
vt 0.893110 0.769835
vt 0.952793 0.677348
vt 0.950106 0.763863
vt 0.045152 0.534811
vt 0.165590 0.516394
vt 0.015742 0.662326
vt 0.024320 0.655052
vt 0.033131 0.735569
vt 0.029137 0.723013
vt 0.096305 0.729906
vt 0.094420 0.742592
vt 0.170294 0.736416
vt 0.918610 0.644136
vt 0.890476 0.630789
vt 0.899654 0.599717
vt 0.959616 0.624871
vt 0.864253 0.636981
vt 0.835905 0.584081
vt 0.914140 0.653238
vt 0.893459 0.657969
vt 0.866774 0.645834
vt 0.928972 0.513617
vt 0.985310 0.540738
vt 0.861251 0.483678
vt 0.112715 0.632262
vt 0.211064 0.572223
vt 0.067595 0.581579
vt 0.814950 0.436756
vt 0.763546 0.418186
vt 0.768271 0.399437
vt 0.820891 0.405910
vt 0.879420 0.396720
vt 0.933406 0.399061
vt 0.933678 0.342560
vt 0.878243 0.351457
vt 0.763146 0.392263
vt 0.815045 0.392738
vt 0.810704 0.362630
vt 0.762145 0.370579
vt 0.936482 0.462485
vt 0.939285 0.410383
vt 0.991187 0.410316
vt 0.990241 0.475385
vt 0.990077 0.400577
vt 0.997460 0.336620
vt 0.870258 0.450625
vt 0.869947 0.405583
vt 0.739338 0.382412
vt 0.352028 0.629128
vt 0.415053 0.601116
vt 0.400874 0.401440
vt 0.382986 0.359124
vt 0.326135 0.380730
vt 0.347068 0.433173
vt 0.297315 0.513670
vt 0.264400 0.473935
vt 0.241095 0.411474
vt 0.450706 0.380419
vt 0.445748 0.342237
vt 0.421406 0.434489
vt 0.460774 0.411674
vt 0.447092 0.303413
vt 0.509820 0.350422
vt 0.512090 0.315455
vt 0.513082 0.381846
vt 0.518936 0.408047
vt 0.566833 0.358943
vt 0.569939 0.325321
vt 0.566403 0.390731
vt 0.568026 0.406093
vt 0.624968 0.400176
vt 0.625830 0.370702
vt 0.695737 0.381320
vt 0.628859 0.352598
vt 0.515407 0.280799
vt 0.464976 0.203075
vt 0.483875 0.150991
vt 0.470547 0.146431
vt 0.432150 0.186499
vt 0.500421 0.123428
vt 0.447265 0.263937
vt 0.309661 0.315137
vt 0.228174 0.336845
vt 0.389973 0.247047
vt 0.332554 0.897558
vt 0.283656 0.862026
vt 0.553371 0.550122
vt 0.542099 0.441332
vt 0.964247 0.881814
vt 0.907022 0.893912
vt 0.447096 0.943114
vt 0.380971 0.922010
vt 0.085287 0.771861
vt 0.021984 0.740557
vt 0.332357 0.897618
vt 0.016354 0.727127
vt 0.679281 0.928319
vt 0.743274 0.398441
vt 0.337308 0.553337
vt 0.383253 0.507158
vt 0.770340 0.936343
vt 0.785628 0.967009
vt 0.801289 0.962662
vt 0.805561 0.988074
vt 0.475769 0.569848
vt 0.452028 0.467037
vt 0.367765 0.296446
vt 0.523307 0.627479
vt 0.490578 0.613483
vt 0.491972 0.655052
vt 0.466984 0.645257
vt 0.916233 0.236894
vt 0.924404 0.287477
vt 0.859271 0.306972
vt 0.849362 0.246350
vt 0.911149 0.182350
vt 0.845330 0.179999
vt 0.788135 0.241912
vt 0.796568 0.304523
vt 0.725131 0.287528
vt 0.721587 0.234866
vt 0.575090 0.214956
vt 0.545063 0.191531
vt 0.572548 0.197427
vt 0.570344 0.174737
vt 0.909982 0.165698
vt 0.846119 0.163557
vt 0.845545 0.096020
vt 0.910277 0.107268
vt 0.566884 0.155567
vt 0.536201 0.131730
vt 0.568689 0.125784
vt 0.860945 0.325609
vt 0.798523 0.321169
vt 0.530540 0.190763
vt 0.974826 0.296897
vt 0.929522 0.315936
vt 0.974826 0.269459
vt 0.974826 0.079381
vt 0.974826 0.127219
vt 0.919314 0.047554
vt 0.650823 0.250185
vt 0.651104 0.267439
vt 0.574808 0.229915
vt 0.974826 0.167667
vt 0.717420 0.179077
vt 0.716339 0.161471
vt 0.783803 0.164652
vt 0.784685 0.180014
vt 0.716071 0.102946
vt 0.781883 0.098057
vt 0.974826 0.186044
vt 0.974826 0.230116
vt 0.782928 0.020225
vt 0.854367 0.026022
vt 0.566977 0.097512
vt 0.643561 0.059086
vt 0.646420 0.112547
vt 0.648666 0.217689
vt 0.723788 0.302464
vt 0.647527 0.176581
vt 0.644867 0.159184
vt 0.713717 0.038594
vt 0.510240 0.647276
vt 0.462606 0.627176
vt 0.810649 0.936856
vt 0.767300 0.980331
vt 0.724783 0.961464
vt 0.367561 0.465447
vt 0.502906 0.203781
vt 0.508793 0.247381
vt 0.498674 0.155823
vt 0.023904 0.190057
vt 0.026139 0.241127
vt 0.115810 0.235593
vt 0.116723 0.184925
vt 0.028671 0.288607
vt 0.106297 0.298918
vt 0.022033 0.087710
vt 0.026779 0.146509
vt 0.118062 0.152775
vt 0.115112 0.088019
vt 0.113104 0.020830
vt 0.023831 0.045723
vt 0.174862 0.229957
vt 0.173266 0.183155
vt 0.138387 0.296115
vt 0.170477 0.293312
vt 0.174701 0.153023
vt 0.171509 0.091877
vt 0.141572 0.022491
vt 0.229810 0.181385
vt 0.233914 0.224321
vt 0.345711 0.212888
vt 0.343886 0.179726
vt 0.234656 0.287706
vt 0.345281 0.243682
vt 0.227907 0.095736
vt 0.231340 0.153271
vt 0.342105 0.155184
vt 0.337993 0.115216
vt 0.226975 0.027473
vt 0.339392 0.080768
vt 0.102851 0.313874
vt 0.025194 0.302722
vt 0.136313 0.311474
vt 0.236701 0.304274
vt 0.350393 0.258119
vt 0.370360 0.210038
vt 0.372419 0.122012
vt 0.382222 0.209569
vt 0.170040 0.024152
vt 0.169776 0.309074
vt 0.233621 0.792939
vt 0.212204 0.775870
vt 0.275741 0.779115
vt 0.259014 0.774294
vt 0.259152 0.789883
vt 0.241740 0.779097
vt 0.248598 0.760169
vt 0.270813 0.759099
vt 0.169074 0.750990
vt 0.615658 0.791895
vt 0.545766 0.796647
vt 0.124459 0.956055
vt 0.121686 0.905916
vt 0.174088 0.909281
vt 0.149839 0.861812
vt 0.093391 0.860163
vt 0.070393 0.914725
vt 0.248860 0.655395
vt 0.246803 0.703359
vt 0.299416 0.710749
vt 0.303329 0.645782
vt 0.352008 0.629019
vt 0.256175 0.800194
vt 0.242717 0.729580
vt 0.243918 0.746139
vt 0.305647 0.743309
vt 0.614800 0.673000
vt 0.553873 0.677463
vt 0.683829 0.544353
vt 0.758987 0.561931
vt 0.141620 0.434094
vt 0.027635 0.459880
vt 0.137943 0.351735
vt 0.685344 0.675347
vt 0.753386 0.673320
vt 0.094570 0.670191
vt 0.033572 0.665247
vt 0.026933 0.670570
vt 0.093989 0.681858
vt 0.170996 0.670213
vt 0.171648 0.692265
vt 0.302884 0.806283
vt 0.361690 0.693408
vt 0.355109 0.786893
vt 0.612157 0.542333
vt 0.361719 0.693265
vt 0.355045 0.786957
vt 0.408410 0.793214
vt 0.418284 0.680628
vt 0.467858 0.798351
vt 0.480095 0.679195
vt 0.829344 0.773400
vt 0.752659 0.779444
vt 0.758489 0.890732
vt 0.682699 0.784595
vt 0.830801 0.677390
vt 0.893110 0.769835
vt 0.892700 0.684696
vt 0.950106 0.763863
vt 0.952793 0.677348
vt 0.045152 0.534811
vt 0.165519 0.516268
vt 0.033131 0.735569
vt 0.094420 0.742592
vt 0.096305 0.729906
vt 0.029137 0.723013
vt 0.170294 0.736416
vt 0.918610 0.644136
vt 0.959616 0.624871
vt 0.899654 0.599717
vt 0.890476 0.630789
vt 0.835905 0.584081
vt 0.864253 0.636981
vt 0.914140 0.653238
vt 0.893459 0.657969
vt 0.866774 0.645834
vt 0.067595 0.581579
vt 0.211121 0.572229
vt 0.814950 0.436756
vt 0.763546 0.418186
vt 0.879420 0.396720
vt 0.933406 0.399061
vt 0.763146 0.392263
vt 0.815045 0.392738
vt 0.936482 0.462485
vt 0.990241 0.475385
vt 0.990077 0.400577
vt 0.870258 0.450625
vt 0.415053 0.601116
vt 0.352028 0.629128
vt 0.400874 0.401440
vt 0.347192 0.433280
vt 0.326070 0.380569
vt 0.382986 0.359124
vt 0.264415 0.473900
vt 0.297278 0.513600
vt 0.240990 0.411449
vt 0.445748 0.342237
vt 0.450706 0.380419
vt 0.447092 0.303413
vt 0.512090 0.315455
vt 0.509820 0.350422
vt 0.513082 0.381846
vt 0.566833 0.358943
vt 0.566403 0.390731
vt 0.625830 0.370702
vt 0.464976 0.203075
vt 0.483875 0.150991
vt 0.447265 0.263937
vt 0.228246 0.336361
vt 0.309679 0.315235
vt 0.553371 0.550122
vt 0.770340 0.936343
vt 0.785628 0.967009
vt 0.475769 0.569848
vt 0.490578 0.613483
vt 0.523307 0.627479
vt 0.491972 0.655052
vt 0.466984 0.645257
vt 0.916233 0.236894
vt 0.849362 0.246350
vt 0.859271 0.306972
vt 0.924404 0.287477
vt 0.911149 0.182350
vt 0.845330 0.179999
vt 0.788135 0.241912
vt 0.721587 0.234866
vt 0.725131 0.287528
vt 0.796568 0.304523
vt 0.575090 0.214956
vt 0.572548 0.197427
vt 0.545063 0.191531
vt 0.570344 0.174737
vt 0.909982 0.165698
vt 0.910277 0.107268
vt 0.845545 0.096020
vt 0.846119 0.163557
vt 0.566884 0.155567
vt 0.568689 0.125784
vt 0.536201 0.131730
vt 0.798523 0.321169
vt 0.860945 0.325609
vt 0.530540 0.190763
vt 0.974826 0.296897
vt 0.974826 0.269459
vt 0.929522 0.315936
vt 0.974826 0.079381
vt 0.919314 0.047554
vt 0.974826 0.127219
vt 0.650823 0.250185
vt 0.574808 0.229915
vt 0.651104 0.267439
vt 0.974826 0.167667
vt 0.717420 0.179077
vt 0.784685 0.180014
vt 0.783803 0.164652
vt 0.716339 0.161471
vt 0.716071 0.102946
vt 0.781883 0.098057
vt 0.974826 0.230116
vt 0.974826 0.186044
vt 0.782928 0.020225
vt 0.854367 0.026022
vt 0.566977 0.097512
vt 0.646420 0.112547
vt 0.643561 0.059086
vt 0.648666 0.217689
vt 0.723788 0.302464
vt 0.647527 0.176581
vt 0.644867 0.159184
vt 0.713717 0.038594
vt 0.510240 0.647276
vt 0.462606 0.627176
vt 0.367270 0.465423
vt 0.023904 0.190057
vt 0.116723 0.184925
vt 0.115810 0.235593
vt 0.026139 0.241127
vt 0.106297 0.298918
vt 0.028671 0.288607
vt 0.022033 0.087710
vt 0.115112 0.088019
vt 0.118062 0.152775
vt 0.026779 0.146509
vt 0.023831 0.045723
vt 0.113104 0.020830
vt 0.173266 0.183155
vt 0.174862 0.229957
vt 0.170477 0.293312
vt 0.138387 0.296115
vt 0.171509 0.091877
vt 0.174701 0.153023
vt 0.141572 0.022491
vt 0.229810 0.181385
vt 0.343886 0.179726
vt 0.345711 0.212888
vt 0.233914 0.224321
vt 0.345281 0.243682
vt 0.234656 0.287706
vt 0.227907 0.095736
vt 0.337993 0.115216
vt 0.342105 0.155184
vt 0.231340 0.153271
vt 0.226975 0.027473
vt 0.339392 0.080768
vt 0.102851 0.313874
vt 0.025194 0.302722
vt 0.136313 0.311474
vt 0.350393 0.258119
vt 0.236701 0.304274
vt 0.370360 0.210038
vt 0.372419 0.122012
vt 0.382222 0.209569
vt 0.170040 0.024152
vt 0.169776 0.309074
vn 0.60749 0.71571 -0.34455
vn 0.00000 0.93836 -0.34567
vn 0.00000 0.91491 -0.40366
vn 0.76359 0.60416 -0.22784
vn 0.88227 0.33032 -0.33539
vn 0.90683 0.31343 -0.28181
vn 0.93217 0.15775 -0.32584
vn 0.95142 0.25663 -0.17013
vn 0.83696 0.53480 -0.11609
vn 0.82061 0.45395 -0.34717
vn 0.00000 0.98582 -0.16782
vn 0.82416 0.49765 -0.27038
vn 0.77885 0.61675 0.11405
vn 0.00000 0.96788 0.25141
vn 0.00000 0.98239 0.18683
vn 0.84736 0.53098 0.00682
vn 0.83935 0.43408 -0.32722
vn 0.81355 0.26130 -0.51947
vn 0.92794 0.19686 -0.31650
vn 0.91125 -0.01045 -0.41171
vn 0.98623 -0.00923 -0.16515
vn 0.95350 0.27965 -0.11240
vn 0.63828 -0.72732 -0.25221
vn 0.60543 -0.68117 -0.41167
vn 0.93132 -0.07466 -0.35647
vn 0.68327 0.59980 -0.41639
vn 0.00000 -0.96223 -0.27225
vn -0.00000 -0.86877 -0.49522
vn 0.49039 -0.67376 -0.55278
vn 0.45575 0.86168 -0.22313
vn 0.00000 0.97064 -0.24054
vn 0.88650 0.32190 -0.33242
vn 0.89983 0.36196 -0.24352
vn 0.47848 -0.84573 -0.23621
vn 0.99950 -0.02909 -0.01258
vn 0.97554 -0.21782 -0.02971
vn 0.63826 -0.76511 0.08507
vn 0.00000 -0.99335 0.11511
vn 0.00000 -0.97620 0.21689
vn 0.55446 -0.80626 0.20622
vn 0.92083 0.32656 0.21316
vn -0.00000 0.99594 0.09007
vn 0.00000 0.98487 0.17332
vn 0.83708 0.50520 0.20993
vn 0.97729 -0.16285 0.13560
vn 0.99750 0.04723 0.05258
vn 0.73389 -0.66163 -0.15382
vn 0.60199 0.79470 -0.07785
vn 0.82790 0.40140 -0.39174
vn 0.61195 -0.75670 -0.23004
vn 0.76046 -0.61453 -0.20988
vn 0.25878 0.96513 -0.03960
vn 0.63538 0.69336 -0.33992
vn 0.90775 -0.07057 -0.41353
vn 0.76301 0.57128 -0.30240
vn 0.00000 -0.99985 -0.01710
vn 0.58855 -0.80625 -0.05972
vn 0.00000 -0.98054 -0.19630
vn 0.90775 -0.07057 -0.41353
vn 0.94968 -0.00375 -0.31321
vn 0.79250 0.56798 -0.22213
vn 0.76301 0.57128 -0.30240
vn 0.96784 0.18144 -0.17424
vn 0.81072 0.58291 -0.05429
vn 0.00000 -0.99128 -0.13173
vn 0.00000 -0.98893 -0.14835
vn 0.74702 0.63581 0.19418
vn 0.00000 0.84382 0.53663
vn 0.73871 0.67229 0.04838
vn 0.85720 0.50128 0.11805
vn 0.74424 0.66633 0.04602
vn 0.99000 -0.10239 0.09706
vn 0.96493 0.13844 0.22306
vn 0.76231 0.61988 0.18610
vn 0.92407 -0.14469 0.35379
vn 0.83708 0.50520 0.20993
vn 0.92407 -0.14469 0.35379
vn 0.61727 -0.72268 0.31098
vn 0.00000 0.75721 -0.65317
vn 0.00000 -0.86010 -0.51013
vn 0.78843 0.54602 -0.28326
vn 0.69146 -0.43143 -0.57945
vn 0.57280 -0.81194 -0.11244
vn 0.85978 0.49158 -0.13830
vn 0.63456 -0.75456 -0.16725
vn -0.11351 -0.87345 0.47351
vn 0.26184 -0.96320 0.06072
vn 0.43447 -0.86109 0.26412
vn 0.49278 -0.76682 0.41129
vn 0.36766 -0.83945 -0.40020
vn 0.61374 -0.77439 0.15377
vn 0.61268 -0.17350 0.77105
vn 0.77247 0.60371 0.19703
vn 0.86639 -0.00318 -0.49937
vn -0.00000 -0.95903 0.28332
vn -0.00000 -0.94497 0.32715
vn -0.00000 -0.96543 0.26066
vn -0.00000 -0.94497 0.32715
vn 0.00000 -0.97757 0.21061
vn 0.49278 -0.76682 0.41129
vn 0.57280 -0.81194 -0.11244
vn 0.69146 -0.43143 -0.57945
vn -0.00000 -0.97754 0.21076
vn -0.00000 -0.99996 0.00849
vn 0.25878 0.96513 -0.03960
vn 0.68327 0.59980 -0.41639
vn -0.00000 0.99827 -0.05884
vn -0.00000 0.99513 0.09860
vn 0.82790 0.40140 -0.39174
vn 0.60199 0.79470 -0.07785
vn -0.00000 0.99691 0.07856
vn -0.00000 0.97592 0.21811
vn 0.47848 -0.84573 -0.23621
vn -0.00000 -0.99966 -0.02606
vn -0.00000 -0.22241 -0.97495
vn 0.93132 -0.07466 -0.35647
vn 0.93132 -0.07466 -0.35647
vn -0.00000 -0.22241 -0.97495
vn 0.63456 -0.75456 -0.16725
vn -0.00000 -0.99992 0.01260
vn 0.00000 0.75721 -0.65317
vn 0.49039 -0.67376 -0.55278
vn 0.63578 -0.58778 -0.50030
vn 0.74999 -0.66032 0.03868
vn 0.94367 0.32148 0.07837
vn 0.95932 0.26444 0.09892
vn 0.66383 -0.74208 0.09293
vn 0.00000 -0.99414 0.10809
vn 0.66595 -0.72990 0.15410
vn 0.94533 0.30251 0.12180
vn 0.67262 -0.73060 -0.11751
vn 0.99201 -0.08131 0.09643
vn 0.00000 -0.99743 -0.07164
vn 0.00000 -0.94614 -0.32376
vn 0.95968 0.25464 0.11902
vn 0.98733 0.01577 0.15791
vn 0.89479 0.24159 0.37547
vn 0.74972 -0.61072 -0.25485
vn -0.00000 -0.87068 -0.49184
vn 0.92999 0.14482 0.33785
vn -0.00000 0.48142 0.87649
vn 0.77500 -0.57481 -0.26261
vn -0.00000 -0.85885 -0.51222
vn -0.00000 -0.91087 -0.41270
vn 0.97822 -0.12491 0.16578
vn -0.00000 -0.31949 0.94759
vn -0.00000 0.54334 0.83952
vn -0.00000 0.12738 0.99185
vn 0.98779 0.10614 0.11400
vn 0.98471 0.15767 0.07408
vn -0.00000 0.87068 -0.49185
vn 0.00000 0.81356 -0.58149
vn 0.00000 0.91167 0.41093
vn 0.99559 0.08881 0.03033
vn -0.00000 1.00000 -0.00285
vn -0.00000 0.99939 0.03492
vn -0.00000 0.72334 -0.69049
vn 0.00000 0.92991 -0.36777
vn 0.00000 0.94240 -0.33449
vn 0.68611 -0.71804 -0.11693
vn -0.00000 -0.98564 -0.16887
vn 0.00000 0.98487 0.17332
vn 0.00000 0.97775 0.20976
vn 0.00000 0.99988 -0.01528
vn 0.00000 0.96800 -0.25094
vn 0.00000 0.98877 -0.14945
vn 0.00000 0.70528 -0.70893
vn 0.00000 0.92991 -0.36777
vn 0.00000 -0.87996 -0.47504
vn -0.00000 0.99693 -0.07825
vn 0.00000 -0.87996 -0.47504
vn -0.00000 -0.86877 -0.49522
vn -0.00000 -0.81254 -0.58291
vn 0.88990 0.41514 0.18904
vn 0.94883 0.20497 0.24021
vn 0.00000 -0.01255 0.99992
vn -0.00000 0.72014 0.69383
vn 0.60063 -0.73740 -0.30900
vn -0.00000 -0.93653 -0.35060
vn -0.00000 0.98776 -0.15599
vn 0.70675 -0.56805 0.42170
vn 0.20242 -0.97222 -0.11751
vn 0.72288 0.69097 -0.00125
vn 0.68061 0.59822 -0.42297
vn 0.49493 0.86360 -0.09610
vn 0.41191 0.77696 -0.47609
vn 0.47820 0.75550 -0.44781
vn 0.50127 0.86499 -0.02271
vn 0.28573 0.87936 0.38090
vn 0.37197 0.85770 0.35495
vn 0.50794 0.86093 -0.02835
vn 0.52997 0.73599 -0.42125
vn 0.58681 0.70526 -0.39781
vn 0.52110 0.85323 -0.02137
vn 0.72446 0.56700 -0.39200
vn 0.71427 0.67750 0.17552
vn 0.56590 0.82436 -0.01364
vn 0.41323 0.76713 0.49066
vn -0.47988 -0.07477 0.87414
vn -0.29091 -0.10133 0.95137
vn -0.49922 -0.86645 -0.00636
vn -0.50431 -0.86313 -0.02603
vn 0.06174 0.04555 0.99705
vn 0.87356 -0.43795 -0.21234
vn -0.43645 -0.89730 0.06601
vn -0.05335 -0.29769 -0.95317
vn -0.27690 -0.77272 -0.57116
vn 0.87356 -0.43795 -0.21234
vn 0.71222 -0.33327 -0.61779
vn 0.03761 0.09664 -0.99461
vn 0.68061 0.59822 -0.42297
vn 0.71222 -0.33327 -0.61779
vn 0.20242 -0.97222 -0.11751
vn 0.03761 0.09664 -0.99461
vn 0.62812 0.67233 -0.39171
vn 0.21581 -0.46837 -0.85677
vn 0.37791 -0.51562 -0.76897
vn 0.70675 -0.56805 0.42170
vn 0.45767 0.81075 0.36501
vn -0.17385 -0.17946 0.96828
vn -0.13250 -0.18449 0.97386
vn 0.44715 0.83260 0.32685
vn -0.47986 -0.87723 -0.01381
vn -0.48043 -0.87666 0.02540
vn 0.84296 0.48439 0.23407
vn 0.72288 0.69097 -0.00125
vn -0.27690 -0.77272 -0.57116
vn -0.05335 -0.29769 -0.95317
vn 0.37791 -0.51562 -0.76897
vn 0.21581 -0.46837 -0.85677
vn -0.47875 -0.87793 0.00579
vn 0.53255 0.84604 -0.02453
vn 0.36888 -0.03225 -0.92892
vn 0.40823 0.82423 0.39241
vn -0.26236 -0.12533 0.95680
vn 0.36888 -0.03225 -0.92892
vn 0.84296 0.48439 0.23407
vn 0.71222 -0.33327 -0.61779
vn -0.00000 0.44486 0.89560
vn -0.00000 0.98370 -0.17979
vn 0.00000 0.84291 -0.53805
vn -0.00000 -0.99998 0.00688
vn 0.00000 -0.21095 0.97750
vn 0.00000 -0.20817 0.97809
vn -0.00000 -0.18845 0.98208
vn 0.36766 -0.83945 -0.40020
vn 0.26184 -0.96320 0.06072
vn -0.41508 -0.90065 -0.12862
vn -0.16308 -0.56209 -0.81084
vn -0.11351 -0.87345 0.47351
vn -0.51040 -0.70305 0.49518
vn 0.77247 0.60371 0.19703
vn 0.86639 -0.00318 -0.49937
vn 0.43733 0.73342 -0.52042
vn 0.42600 0.89213 0.15043
vn -0.16447 0.47607 0.86389
vn 0.61268 -0.17350 0.77105
vn -0.39131 -0.91209 -0.12232
vn -0.20248 -0.78395 -0.58687
vn -0.32931 -0.82222 0.46423
vn -0.37981 -0.84520 0.37601
vn 0.31441 0.05648 -0.94760
vn 0.41359 0.90484 0.10102
vn -0.01534 0.02950 0.99945
vn -0.09461 -0.78485 -0.61242
vn -0.40838 -0.91025 -0.06841
vn -0.30939 -0.93931 -0.14825
vn 0.25070 -0.72267 -0.64412
vn -0.43173 -0.81301 0.39067
vn -0.30012 -0.80976 0.50420
vn 0.43283 0.89695 0.09023
vn 0.59593 0.34208 -0.72653
vn 0.75925 0.43400 -0.48496
vn 0.46249 0.87270 0.15655
vn 0.10835 0.46844 0.87683
vn 0.00220 -0.08541 0.99634
vn -0.16447 0.47607 0.86389
vn 0.61268 -0.17350 0.77105
vn -0.01534 0.02950 0.99945
vn 0.10835 0.46844 0.87683
vn 0.00220 -0.08541 0.99634
vn 0.11340 -0.99229 0.05005
vn 0.94265 -0.15294 0.29667
vn 0.94265 -0.15294 0.29667
vn 0.15109 0.23227 0.96084
vn 0.15109 0.23227 0.96084
vn -0.60749 0.71571 -0.34455
vn -0.76359 0.60416 -0.22784
vn -0.88227 0.33032 -0.33539
vn -0.93217 0.15775 -0.32584
vn -0.90683 0.31343 -0.28181
vn -0.95142 0.25663 -0.17013
vn -0.83696 0.53480 -0.11609
vn -0.82061 0.45395 -0.34717
vn -0.82416 0.49765 -0.27038
vn -0.77885 0.61675 0.11405
vn -0.84736 0.53098 0.00682
vn -0.83935 0.43408 -0.32722
vn -0.92794 0.19686 -0.31650
vn -0.81355 0.26130 -0.51947
vn -0.91125 -0.01044 -0.41171
vn -0.98623 -0.00923 -0.16515
vn -0.95350 0.27965 -0.11240
vn -0.63828 -0.72732 -0.25221
vn -0.68327 0.59980 -0.41639
vn -0.93132 -0.07466 -0.35647
vn -0.60543 -0.68117 -0.41167
vn -0.49039 -0.67376 -0.55278
vn -0.45575 0.86169 -0.22313
vn -0.47848 -0.84573 -0.23621
vn -0.89983 0.36196 -0.24352
vn -0.88650 0.32190 -0.33242
vn -0.97554 -0.21782 -0.02971
vn -0.99950 -0.02909 -0.01258
vn -0.63826 -0.76511 0.08507
vn -0.55446 -0.80626 0.20622
vn -0.92083 0.32656 0.21316
vn -0.83708 0.50520 0.20993
vn -0.00000 0.99594 0.09007
vn -0.99750 0.04723 0.05258
vn -0.97729 -0.16285 0.13560
vn -0.73388 -0.66163 -0.15382
vn -0.61195 -0.75670 -0.23004
vn -0.82790 0.40140 -0.39174
vn -0.60199 0.79470 -0.07785
vn -0.76046 -0.61453 -0.20988
vn -0.25878 0.96513 -0.03960
vn -0.63538 0.69336 -0.33992
vn -0.90775 -0.07057 -0.41353
vn -0.76301 0.57128 -0.30240
vn -0.58855 -0.80625 -0.05972
vn -0.90775 -0.07057 -0.41353
vn -0.76301 0.57128 -0.30240
vn -0.79250 0.56798 -0.22213
vn -0.94968 -0.00375 -0.31321
vn -0.81072 0.58291 -0.05429
vn -0.96784 0.18144 -0.17424
vn -0.74702 0.63581 0.19418
vn -0.85720 0.50128 0.11805
vn -0.73871 0.67229 0.04838
vn -0.74424 0.66633 0.04602
vn -0.99000 -0.10239 0.09706
vn -0.76231 0.61988 0.18610
vn -0.96492 0.13844 0.22306
vn -0.83708 0.50520 0.20993
vn -0.92407 -0.14469 0.35379
vn -0.92407 -0.14469 0.35379
vn -0.61727 -0.72268 0.31098
vn -0.78843 0.54602 -0.28326
vn -0.85978 0.49158 -0.13830
vn -0.57280 -0.81194 -0.11244
vn -0.69146 -0.43143 -0.57945
vn -0.63456 -0.75456 -0.16725
vn 0.11351 -0.87345 0.47351
vn -0.49278 -0.76682 0.41129
vn -0.43447 -0.86109 0.26412
vn -0.26184 -0.96320 0.06072
vn -0.61374 -0.77439 0.15377
vn -0.36766 -0.83945 -0.40020
vn -0.61268 -0.17350 0.77105
vn -0.77247 0.60371 0.19703
vn -0.86639 -0.00318 -0.49937
vn -0.49278 -0.76682 0.41129
vn 0.00000 -0.97757 0.21061
vn -0.57280 -0.81194 -0.11244
vn -0.69146 -0.43143 -0.57945
vn -0.25878 0.96513 -0.03960
vn -0.68327 0.59980 -0.41639
vn -0.82790 0.40140 -0.39174
vn -0.60199 0.79470 -0.07785
vn -0.47848 -0.84573 -0.23621
vn -0.93132 -0.07466 -0.35647
vn -0.93132 -0.07466 -0.35647
vn -0.63456 -0.75456 -0.16725
vn -0.63578 -0.58778 -0.50030
vn -0.49039 -0.67376 -0.55278
vn -0.74999 -0.66032 0.03868
vn -0.66384 -0.74208 0.09293
vn -0.95932 0.26444 0.09892
vn -0.94367 0.32148 0.07837
vn -0.66595 -0.72990 0.15410
vn 0.00000 -0.99414 0.10809
vn -0.94533 0.30251 0.12180
vn -0.99201 -0.08131 0.09643
vn -0.67262 -0.73060 -0.11751
vn -0.95968 0.25464 0.11902
vn -0.89479 0.24159 0.37547
vn -0.98733 0.01577 0.15791
vn -0.74972 -0.61072 -0.25485
vn -0.92999 0.14482 0.33785
vn -0.77500 -0.57481 -0.26261
vn -0.97822 -0.12491 0.16578
vn -0.98779 0.10614 0.11400
vn -0.98471 0.15767 0.07407
vn -0.99559 0.08881 0.03033
vn -0.00000 0.99939 0.03492
vn -0.00000 1.00000 -0.00285
vn -0.68611 -0.71804 -0.11693
vn -0.88990 0.41514 0.18904
vn -0.94883 0.20497 0.24021
vn -0.60063 -0.73740 -0.30900
vn -0.20242 -0.97222 -0.11751
vn -0.70675 -0.56805 0.42170
vn -0.72288 0.69097 -0.00125
vn -0.68061 0.59822 -0.42297
vn -0.49493 0.86360 -0.09610
vn -0.50127 0.86499 -0.02271
vn -0.47820 0.75550 -0.44781
vn -0.41191 0.77696 -0.47609
vn -0.28573 0.87936 0.38090
vn -0.37197 0.85770 0.35495
vn -0.50794 0.86093 -0.02835
vn -0.52110 0.85323 -0.02137
vn -0.58681 0.70526 -0.39781
vn -0.52997 0.73599 -0.42126
vn -0.72446 0.56700 -0.39200
vn -0.56590 0.82436 -0.01364
vn -0.71427 0.67750 0.17552
vn -0.41323 0.76713 0.49066
vn 0.47988 -0.07476 0.87414
vn 0.50431 -0.86313 -0.02603
vn 0.49922 -0.86645 -0.00636
vn 0.29091 -0.10133 0.95137
vn -0.06174 0.04555 0.99705
vn 0.43645 -0.89730 0.06601
vn -0.87356 -0.43795 -0.21234
vn 0.27690 -0.77272 -0.57116
vn 0.05335 -0.29769 -0.95317
vn -0.87356 -0.43795 -0.21234
vn -0.71222 -0.33327 -0.61779
vn -0.68061 0.59822 -0.42297
vn -0.03760 0.09664 -0.99461
vn -0.71222 -0.33327 -0.61779
vn -0.03760 0.09664 -0.99461
vn -0.20242 -0.97222 -0.11751
vn -0.62812 0.67233 -0.39171
vn -0.37791 -0.51562 -0.76897
vn -0.21581 -0.46837 -0.85677
vn -0.70675 -0.56805 0.42170
vn -0.45767 0.81075 0.36501
vn -0.44715 0.83260 0.32685
vn 0.13250 -0.18449 0.97386
vn 0.17385 -0.17946 0.96828
vn 0.47986 -0.87723 -0.01381
vn 0.48043 -0.87666 0.02540
vn -0.72288 0.69097 -0.00125
vn -0.84296 0.48439 0.23407
vn 0.27690 -0.77272 -0.57116
vn 0.05335 -0.29769 -0.95317
vn -0.37791 -0.51562 -0.76897
vn 0.47875 -0.87793 0.00579
vn -0.21581 -0.46837 -0.85677
vn -0.53255 0.84604 -0.02453
vn -0.36888 -0.03225 -0.92892
vn -0.40823 0.82423 0.39241
vn 0.26236 -0.12533 0.95680
vn -0.36888 -0.03225 -0.92892
vn -0.84296 0.48439 0.23407
vn -0.71222 -0.33327 -0.61779
vn -0.00000 -0.99998 0.00688
vn -0.36766 -0.83945 -0.40020
vn 0.16308 -0.56209 -0.81084
vn 0.41508 -0.90065 -0.12862
vn -0.26184 -0.96320 0.06072
vn 0.51040 -0.70305 0.49518
vn 0.11351 -0.87345 0.47351
vn -0.77247 0.60371 0.19703
vn -0.42600 0.89213 0.15043
vn -0.43733 0.73342 -0.52042
vn -0.86639 -0.00318 -0.49937
vn -0.61268 -0.17350 0.77105
vn 0.16447 0.47607 0.86389
vn 0.20248 -0.78395 -0.58687
vn 0.39131 -0.91209 -0.12232
vn 0.37981 -0.84520 0.37601
vn 0.32931 -0.82222 0.46423
vn -0.41359 0.90484 0.10102
vn -0.31441 0.05648 -0.94760
vn 0.01534 0.02950 0.99945
vn 0.09461 -0.78485 -0.61242
vn -0.25070 -0.72267 -0.64412
vn 0.30939 -0.93931 -0.14825
vn 0.40838 -0.91025 -0.06842
vn 0.30012 -0.80976 0.50420
vn 0.43173 -0.81301 0.39067
vn -0.43283 0.89695 0.09023
vn -0.46249 0.87270 0.15655
vn -0.75925 0.43400 -0.48496
vn -0.59593 0.34208 -0.72653
vn -0.10835 0.46844 0.87683
vn -0.00220 -0.08541 0.99634
vn 0.16447 0.47607 0.86389
vn -0.61268 -0.17350 0.77105
vn 0.01534 0.02950 0.99945
vn -0.00220 -0.08541 0.99634
vn -0.10835 0.46844 0.87683
vn -0.11340 -0.99229 0.05005
vn -0.94265 -0.15294 0.29667
vn -0.94265 -0.15294 0.29667
vn -0.15109 0.23227 0.96084
vn -0.15109 0.23227 0.96084
f 462/462/462 461/461/461 470/470/470
f 463/463/463 464/464/464 461/461/461
f 461/461/461 462/462/462 463/463/463
f 478/478/478 473/473/473 462/462/462
f 462/462/462 469/469/469 478/478/478
f 470/470/470 469/469/469 462/462/462
f 463/463/463 462/462/462 473/473/473
f 469/469/469 470/470/470 467/467/467
f 477/477/477 478/478/478 469/469/469
f 469/469/469 468/468/468 477/477/477
f 253/253/253 246/246/246 249/249/249
f 248/248/248 249/249/249 246/246/246
f 246/246/246 247/247/247 248/248/248
f 249/249/249 254/254/254 253/253/253
f 252/252/252 253/253/253 254/254/254
f 262/262/262 254/254/254 249/249/249
f 249/249/249 259/259/259 262/262/262
f 259/259/259 249/249/249 248/248/248
f 263/263/263 255/255/255 254/254/254
f 254/254/254 262/262/262 263/263/263
f 119/119/119 101/101/101 104/104/104
f 103/103/103 104/104/104 101/101/101
f 101/101/101 102/102/102 103/103/103
f 114/114/114 113/113/113 119/119/119
f 119/119/119 120/120/120 114/114/114
f 104/104/104 120/120/120 119/119/119
f 104/104/104 365/365/365 374/374/374
f 374/374/374 120/120/120 104/104/104
f 365/365/365 104/104/104 103/103/103
f 103/103/103 171/171/171 366/366/366
f 149/149/149 150/150/150 151/151/151
f 151/151/151 152/152/152 149/149/149
f 445/445/445 442/442/442 423/423/423
f 423/423/423 422/422/422 445/445/445
f 448/448/448 445/445/445 422/422/422
f 422/422/422 449/449/449 448/448/448
f 449/449/449 422/422/422 421/421/421
f 422/422/422 423/423/423 420/420/420
f 420/420/420 421/421/421 422/422/422
f 421/421/421 434/434/434 449/449/449
f 439/439/439 435/435/435 421/421/421
f 421/421/421 420/420/420 439/439/439
f 421/421/421 435/435/435 433/433/433
f 433/433/433 434/434/434 421/421/421
f 439/439/439 420/420/420 410/410/410
f 410/410/410 447/447/447 439/439/439
f 446/446/446 447/447/447 410/410/410
f 103/103/103 366/366/366 365/365/365
f 103/103/103 102/102/102 171/171/171
f 114/114/114 120/120/120 374/374/374
f 374/374/374 371/371/371 114/114/114
f 115/115/115 114/114/114 371/371/371
f 113/113/113 114/114/114 115/115/115
f 115/115/115 116/116/116 113/113/113
f 371/371/371 372/372/372 115/115/115
f 223/223/223 224/224/224 221/221/221
f 200/200/200 221/221/221 224/224/224
f 224/224/224 201/201/201 200/200/200
f 201/201/201 224/224/224 227/227/227
f 227/227/227 228/228/228 201/201/201
f 202/202/202 201/201/201 228/228/228
f 201/201/201 202/202/202 199/199/199
f 199/199/199 200/200/200 201/201/201
f 228/228/228 214/214/214 202/202/202
f 218/218/218 199/199/199 202/202/202
f 202/202/202 213/213/213 218/218/218
f 202/202/202 214/214/214 212/212/212
f 212/212/212 213/213/213 202/202/202
f 185/185/185 226/226/226 211/211/211
f 211/211/211 186/186/186 185/185/185
f 226/226/226 185/185/185 189/189/189
f 189/189/189 185/185/185 188/188/188
f 187/187/187 188/188/188 185/185/185
f 185/185/185 186/186/186 187/187/187
f 189/189/189 225/225/225 226/226/226
f 189/189/189 199/199/199 218/218/218
f 218/218/218 225/225/225 189/189/189
f 199/199/199 189/189/189 190/190/190
f 110/110/110 105/105/105 108/108/108
f 107/107/107 108/108/108 105/105/105
f 105/105/105 106/106/106 107/107/107
f 108/108/108 111/111/111 110/110/110
f 109/109/109 110/110/110 111/111/111
f 108/108/108 367/367/367 370/370/370
f 370/370/370 111/111/111 108/108/108
f 367/367/367 108/108/108 107/107/107
f 368/368/368 107/107/107 118/118/118
f 107/107/107 368/368/368 367/367/367
f 453/453/453 417/417/417 416/416/416
f 440/440/440 455/455/455 453/453/453
f 455/455/455 440/440/440 443/443/443
f 442/442/442 443/443/443 440/440/440
f 455/455/455 419/419/419 417/417/417
f 419/419/419 455/455/455 456/456/456
f 443/443/443 456/456/456 455/455/455
f 417/417/417 419/419/419 418/418/418
f 416/416/416 417/417/417 418/418/418
f 429/429/429 437/437/437 416/416/416
f 416/416/416 418/418/418 429/429/429
f 424/424/424 429/429/429 418/418/418
f 418/418/418 419/419/419 424/424/424
f 456/456/456 424/424/424 419/419/419
f 425/425/425 424/424/424 456/456/456
f 456/456/456 451/451/451 425/425/425
f 451/451/451 456/456/456 443/443/443
f 443/443/443 444/444/444 451/451/451
f 444/444/444 443/443/443 442/442/442
f 452/452/452 451/451/451 444/444/444
f 451/451/451 452/452/452 450/450/450
f 450/450/450 425/425/425 451/451/451
f 426/426/426 425/425/425 450/450/450
f 424/424/424 425/425/425 426/426/426
f 444/444/444 457/457/457 452/452/452
f 444/444/444 445/445/445 448/448/448
f 448/448/448 457/457/457 444/444/444
f 442/442/442 445/445/445 444/444/444
f 136/136/136 137/137/137 135/135/135
f 142/142/142 143/143/143 144/144/144
f 145/145/145 140/140/140 142/142/142
f 142/142/142 144/144/144 145/145/145
f 139/139/139 143/143/143 142/142/142
f 391/391/391 143/143/143 139/139/139
f 139/139/139 389/389/389 391/391/391
f 389/389/389 139/139/139 134/134/134
f 134/134/134 385/385/385 389/389/389
f 385/385/385 134/134/134 133/133/133
f 391/391/391 389/389/389 388/388/388
f 389/389/389 385/385/385 384/384/384
f 384/384/384 388/388/388 389/389/389
f 391/391/391 144/144/144 143/143/143
f 392/392/392 144/144/144 391/391/391
f 391/391/391 390/390/390 392/392/392
f 388/388/388 390/390/390 391/391/391
f 392/392/392 146/146/146 144/144/144
f 145/145/145 144/144/144 146/146/146
f 147/147/147 392/392/392 390/390/390
f 392/392/392 147/147/147 146/146/146
f 390/390/390 141/141/141 147/147/147
f 387/387/387 141/141/141 390/390/390
f 390/390/390 388/388/388 387/387/387
f 388/388/388 384/384/384 386/386/386
f 386/386/386 387/387/387 388/388/388
f 148/148/148 387/387/387 386/386/386
f 387/387/387 148/148/148 141/141/141
f 118/118/118 107/107/107 106/106/106
f 106/106/106 117/117/117 118/118/118
f 118/118/118 373/373/373 368/368/368
f 111/111/111 370/370/370 369/369/369
f 369/369/369 112/112/112 111/111/111
f 111/111/111 112/112/112 109/109/109
f 109/109/109 112/112/112 121/121/121
f 369/369/369 121/121/121 112/112/112
f 234/234/234 232/232/232 197/197/197
f 195/195/195 197/197/197 232/232/232
f 232/232/232 234/234/234 219/219/219
f 220/220/220 219/219/219 234/234/234
f 219/219/219 220/220/220 221/221/221
f 197/197/197 198/198/198 234/234/234
f 235/235/235 234/234/234 198/198/198
f 234/234/234 235/235/235 220/220/220
f 197/197/197 196/196/196 198/198/198
f 195/195/195 196/196/196 197/197/197
f 208/208/208 196/196/196 195/195/195
f 195/195/195 217/217/217 208/208/208
f 203/203/203 198/198/198 196/196/196
f 196/196/196 208/208/208 203/203/203
f 198/198/198 203/203/203 235/235/235
f 205/205/205 231/231/231 235/235/235
f 235/235/235 203/203/203 205/205/205
f 220/220/220 235/235/235 231/231/231
f 231/231/231 223/223/223 220/220/220
f 221/221/221 220/220/220 223/223/223
f 223/223/223 231/231/231 230/230/230
f 231/231/231 205/205/205 229/229/229
f 229/229/229 230/230/230 231/231/231
f 204/204/204 229/229/229 205/205/205
f 203/203/203 204/204/204 205/205/205
f 230/230/230 236/236/236 223/223/223
f 223/223/223 236/236/236 227/227/227
f 227/227/227 224/224/224 223/223/223
f 130/130/130 129/129/129 127/127/127
f 127/127/127 129/129/129 128/128/128
f 129/129/129 78/78/78 99/99/99
f 99/99/99 128/128/128 129/129/129
f 128/128/128 242/242/242 127/127/127
f 124/124/124 127/127/127 242/242/242
f 126/126/126 127/127/127 124/124/124
f 155/155/155 126/126/126 125/125/125
f 126/126/126 155/155/155 156/156/156
f 124/124/124 125/125/125 126/126/126
f 242/242/242 133/133/133 124/124/124
f 131/131/131 124/124/124 133/133/133
f 132/132/132 125/125/125 124/124/124
f 124/124/124 131/131/131 132/132/132
f 125/125/125 180/180/180 155/155/155
f 135/135/135 180/180/180 125/125/125
f 125/125/125 132/132/132 135/135/135
f 138/138/138 136/136/136 132/132/132
f 132/132/132 131/131/131 138/138/138
f 135/135/135 132/132/132 136/136/136
f 138/138/138 131/131/131 134/134/134
f 133/133/133 134/134/134 131/131/131
f 142/142/142 138/138/138 139/139/139
f 136/136/136 138/138/138 142/142/142
f 134/134/134 139/139/139 138/138/138
f 142/142/142 140/140/140 136/136/136
f 137/137/137 136/136/136 140/140/140
f 467/467/467 468/468/468 469/469/469
f 478/478/478 489/489/489 480/480/480
f 480/480/480 473/473/473 478/478/478
f 489/489/489 478/478/478 477/477/477
f 474/474/474 473/473/473 480/480/480
f 473/473/473 474/474/474 463/463/463
f 480/480/480 483/483/483 474/474/474
f 481/481/481 480/480/480 489/489/489
f 482/482/482 483/483/483 480/480/480
f 480/480/480 481/481/481 482/482/482
f 477/477/477 486/486/486 489/489/489
f 489/489/489 488/488/488 481/481/481
f 488/488/488 489/489/489 486/486/486
f 481/481/481 488/488/488 499/499/499
f 499/499/499 497/497/497 481/481/481
f 482/482/482 481/481/481 497/497/497
f 482/482/482 497/497/497 484/484/484
f 483/483/483 482/482/482 484/484/484
f 474/474/474 483/483/483 485/485/485
f 484/484/484 485/485/485 483/483/483
f 499/499/499 495/495/495 484/484/484
f 484/484/484 497/497/497 499/499/499
f 485/485/485 484/484/484 495/495/495
f 495/495/495 496/496/496 485/485/485
f 475/475/475 485/485/485 496/496/496
f 485/485/485 475/475/475 474/474/474
f 496/496/496 501/501/501 475/475/475
f 243/243/243 244/244/244 393/393/393
f 243/243/243 149/149/149 244/244/244
f 157/157/157 395/395/395 386/386/386
f 152/152/152 393/393/393 395/395/395
f 395/395/395 157/157/157 152/152/152
f 386/386/386 180/180/180 157/157/157
f 397/397/397 180/180/180 380/380/380
f 380/380/380 180/180/180 386/386/386
f 386/386/386 384/384/384 380/380/380
f 380/380/380 379/379/379 397/397/397
f 377/377/377 380/380/380 384/384/384
f 379/379/379 380/380/380 377/377/377
f 396/396/396 397/397/397 379/379/379
f 379/379/379 383/383/383 396/396/396
f 383/383/383 379/379/379 378/378/378
f 270/270/270 267/267/267 266/266/266
f 265/265/265 266/266/266 267/267/267
f 281/281/281 270/270/270 269/269/269
f 266/266/266 269/269/269 270/270/270
f 269/269/269 280/280/280 281/281/281
f 280/280/280 269/269/269 261/261/261
f 258/258/258 261/261/261 269/269/269
f 269/269/269 266/266/266 258/258/258
f 258/258/258 266/266/266 265/265/265
f 265/265/265 259/259/259 258/258/258
f 261/261/261 258/258/258 248/248/248
f 248/248/248 258/258/258 259/259/259
f 286/286/286 261/261/261 260/260/260
f 261/261/261 286/286/286 280/280/280
f 248/248/248 260/260/260 261/261/261
f 248/248/248 251/251/251 260/260/260
f 250/250/250 251/251/251 248/248/248
f 248/248/248 247/247/247 250/250/250
f 260/260/260 279/279/279 286/286/286
f 279/279/279 260/260/260 251/251/251
f 251/251/251 277/277/277 279/279/279
f 277/277/277 251/251/251 250/250/250
f 250/250/250 278/278/278 277/277/277
f 254/254/254 255/255/255 252/252/252
f 256/256/256 257/257/257 252/252/252
f 252/252/252 255/255/255 256/256/256
f 285/285/285 264/264/264 255/255/255
f 255/255/255 263/263/263 285/285/285
f 256/256/256 255/255/255 264/264/264
f 275/275/275 285/285/285 263/263/263
f 263/263/263 271/271/271 275/275/275
f 263/263/263 262/262/262 272/272/272
f 272/272/272 271/271/271 263/263/263
f 262/262/262 259/259/259 265/265/265
f 265/265/265 272/272/272 262/262/262
f 268/268/268 273/273/273 272/272/272
f 272/272/272 265/265/265 268/268/268
f 271/271/271 272/272/272 273/273/273
f 275/275/275 271/271/271 274/274/274
f 273/273/273 274/274/274 271/271/271
f 274/274/274 276/276/276 275/275/275
f 283/283/283 274/274/274 273/273/273
f 276/276/276 274/274/274 283/283/283
f 284/284/284 273/273/273 268/268/268
f 268/268/268 282/282/282 284/284/284
f 267/267/267 282/282/282 268/268/268
f 267/267/267 268/268/268 265/265/265
f 284/284/284 282/282/282 270/270/270
f 270/270/270 281/281/281 284/284/284
f 267/267/267 270/270/270 282/282/282
f 415/415/415 408/408/408 407/407/407
f 428/428/428 408/408/408 415/415/415
f 412/412/412 407/407/407 411/411/411
f 407/407/407 412/412/412 415/415/415
f 410/410/410 411/411/411 407/407/407
f 454/454/454 427/427/427 415/415/415
f 415/415/415 414/414/414 454/454/454
f 415/415/415 427/427/427 428/428/428
f 414/414/414 415/415/415 412/412/412
f 411/411/411 441/441/441 412/412/412
f 413/413/413 412/412/412 441/441/441
f 412/412/412 413/413/413 414/414/414
f 441/441/441 411/411/411 423/423/423
f 411/411/411 410/410/410 420/420/420
f 420/420/420 423/423/423 411/411/411
f 423/423/423 442/442/442 441/441/441
f 441/441/441 440/440/440 413/413/413
f 440/440/440 441/441/441 442/442/442
f 453/453/453 413/413/413 440/440/440
f 413/413/413 453/453/453 436/436/436
f 436/436/436 414/414/414 413/413/413
f 438/438/438 454/454/454 414/414/414
f 414/414/414 436/436/436 438/438/438
f 416/416/416 436/436/436 453/453/453
f 437/437/437 438/438/438 436/436/436
f 436/436/436 416/416/416 437/437/437
f 417/417/417 453/453/453 455/455/455
f 170/170/170 341/341/341 296/296/296
f 296/296/296 14/14/14 170/170/170
f 241/241/241 170/170/170 69/69/69
f 69/69/69 170/170/170 71/71/71
f 15/15/15 14/14/14 296/296/296
f 15/15/15 297/297/297 336/336/336
f 336/336/336 164/164/164 15/15/15
f 296/296/296 297/297/297 15/15/15
f 15/15/15 164/164/164 64/64/64
f 64/64/64 16/16/16 15/15/15
f 320/320/320 313/313/313 296/296/296
f 296/296/296 341/341/341 320/320/320
f 314/314/314 297/297/297 296/296/296
f 296/296/296 313/313/313 314/314/314
f 297/297/297 314/314/314 337/337/337
f 337/337/337 336/336/336 297/297/297
f 398/398/398 314/314/314 313/313/313
f 403/403/403 458/458/458 314/314/314
f 314/314/314 398/398/398 403/403/403
f 337/337/337 314/314/314 458/458/458
f 313/313/313 331/331/331 398/398/398
f 315/315/315 331/331/331 313/313/313
f 313/313/313 320/320/320 315/315/315
f 179/179/179 401/401/401 398/398/398
f 398/398/398 161/161/161 179/179/179
f 403/403/403 398/398/398 401/401/401
f 161/161/161 398/398/398 331/331/331
f 45/45/45 40/40/40 91/91/91
f 91/91/91 72/72/72 45/45/45
f 67/67/67 70/70/70 45/45/45
f 45/45/45 72/72/72 67/67/67
f 40/40/40 39/39/39 97/97/97
f 97/97/97 91/91/91 40/40/40
f 97/97/97 39/39/39 316/316/316
f 39/39/39 38/38/38 315/315/315
f 315/315/315 316/316/316 39/39/39
f 315/315/315 38/38/38 56/56/56
f 56/56/56 331/331/331 315/315/315
f 321/321/321 316/316/316 315/315/315
f 315/315/315 320/320/320 321/321/321
f 316/316/316 358/358/358 97/97/97
f 358/358/358 316/316/316 321/321/321
f 95/95/95 97/97/97 358/358/358
f 91/91/91 97/97/97 95/95/95
f 358/358/358 356/356/356 95/95/95
f 321/321/321 342/342/342 358/358/358
f 359/359/359 358/358/358 342/342/342
f 358/358/358 359/359/359 357/357/357
f 357/357/357 356/356/356 358/358/358
f 338/338/338 342/342/342 321/321/321
f 321/321/321 339/339/339 338/338/338
f 339/339/339 321/321/321 320/320/320
f 320/320/320 341/341/341 339/339/339
f 340/340/340 339/339/339 341/341/341
f 188/188/188 190/190/190 189/189/189
f 190/190/190 188/188/188 191/191/191
f 188/188/188 187/187/187 192/192/192
f 192/192/192 191/191/191 188/188/188
f 210/210/210 206/206/206 187/187/187
f 187/187/187 186/186/186 210/210/210
f 192/192/192 187/187/187 206/206/206
f 233/233/233 193/193/193 192/192/192
f 192/192/192 207/207/207 233/233/233
f 206/206/206 207/207/207 192/192/192
f 191/191/191 192/192/192 193/193/193
f 191/191/191 222/222/222 190/190/190
f 222/222/222 191/191/191 194/194/194
f 193/193/193 194/194/194 191/191/191
f 200/200/200 190/190/190 222/222/222
f 190/190/190 200/200/200 199/199/199
f 222/222/222 221/221/221 200/200/200
f 194/194/194 219/219/219 222/222/222
f 221/221/221 222/222/222 219/219/219
f 219/219/219 194/194/194 232/232/232
f 194/194/194 193/193/193 215/215/215
f 215/215/215 232/232/232 194/194/194
f 216/216/216 215/215/215 193/193/193
f 193/193/193 233/233/233 216/216/216
f 232/232/232 215/215/215 195/195/195
f 217/217/217 195/195/195 215/215/215
f 215/215/215 216/216/216 217/217/217
f 326/326/326 327/327/327 305/305/305
f 322/322/322 326/326/326 66/66/66
f 325/325/325 327/327/327 326/326/326
f 326/326/326 322/322/322 325/325/325
f 323/323/323 322/322/322 65/65/65
f 66/66/66 65/65/65 322/322/322
f 324/324/324 325/325/325 322/322/322
f 322/322/322 323/323/323 324/324/324
f 47/47/47 65/65/65 66/66/66
f 65/65/65 80/80/80 323/323/323
f 406/406/406 409/409/409 431/431/431
f 431/431/431 446/446/446 406/406/406
f 410/410/410 406/406/406 446/446/446
f 407/407/407 406/406/406 410/410/410
f 408/408/408 409/409/409 406/406/406
f 406/406/406 407/407/407 408/408/408
f 432/432/432 409/409/409 408/408/408
f 409/409/409 432/432/432 430/430/430
f 430/430/430 431/431/431 409/409/409
f 408/408/408 428/428/428 432/432/432
f 170/170/170 14/14/14 13/13/13
f 13/13/13 71/71/71 170/170/170
f 46/46/46 71/71/71 13/13/13
f 13/13/13 36/36/36 46/46/46
f 35/35/35 36/36/36 13/13/13
f 13/13/13 16/16/16 35/35/35
f 15/15/15 16/16/16 13/13/13
f 13/13/13 14/14/14 15/15/15
f 340/340/340 170/170/170 241/241/241
f 341/341/341 170/170/170 340/340/340
f 377/377/377 378/378/378 379/379/379
f 460/460/460 378/378/378 377/377/377
f 377/377/377 133/133/133 460/460/460
f 133/133/133 377/377/377 385/385/385
f 384/384/384 385/385/385 377/377/377
f 382/382/382 381/381/381 378/378/378
f 378/378/378 460/460/460 382/382/382
f 378/378/378 381/381/381 383/383/383
f 383/383/383 317/317/317 319/319/319
f 319/319/319 396/396/396 383/383/383
f 317/317/317 383/383/383 381/381/381
f 381/381/381 348/348/348 317/317/317
f 381/381/381 382/382/382 364/364/364
f 364/364/364 348/348/348 381/381/381
f 317/317/317 348/348/348 347/347/347
f 347/347/347 318/318/318 317/317/317
f 43/43/43 319/319/319 317/317/317
f 317/317/317 318/318/318 43/43/43
f 347/347/347 348/348/348 363/363/363
f 348/348/348 364/364/364 98/98/98
f 98/98/98 363/363/363 348/348/348
f 78/78/78 100/100/100 98/98/98
f 98/98/98 99/99/99 78/78/78
f 77/77/77 100/100/100 78/78/78
f 37/37/37 46/46/46 36/36/36
f 36/36/36 57/57/57 37/37/37
f 37/37/37 57/57/57 56/56/56
f 56/56/56 38/38/38 37/37/37
f 45/45/45 46/46/46 37/37/37
f 37/37/37 40/40/40 45/45/45
f 39/39/39 40/40/40 37/37/37
f 37/37/37 38/38/38 39/39/39
f 70/70/70 71/71/71 46/46/46
f 46/46/46 45/45/45 70/70/70
f 42/42/42 41/41/41 130/130/130
f 129/129/129 130/130/130 41/41/41
f 41/41/41 78/78/78 129/129/129
f 41/41/41 44/44/44 77/77/77
f 77/77/77 78/78/78 41/41/41
f 43/43/43 44/44/44 41/41/41
f 41/41/41 42/42/42 43/43/43
f 130/130/130 156/156/156 42/42/42
f 156/156/156 130/130/130 126/126/126
f 127/127/127 126/126/126 130/130/130
f 338/338/338 339/339/339 340/340/340
f 163/163/163 343/343/343 338/338/338
f 338/338/338 68/68/68 163/163/163
f 342/342/342 338/338/338 343/343/343
f 340/340/340 68/68/68 338/338/338
f 241/241/241 399/399/399 340/340/340
f 340/340/340 399/399/399 68/68/68
f 399/399/399 239/239/239 68/68/68
f 163/163/163 68/68/68 67/67/67
f 174/174/174 68/68/68 239/239/239
f 69/69/69 68/68/68 174/174/174
f 67/67/67 68/68/68 69/69/69
f 343/343/343 163/163/163 162/162/162
f 67/67/67 74/74/74 163/163/163
f 162/162/162 163/163/163 74/74/74
f 74/74/74 67/67/67 72/72/72
f 69/69/69 70/70/70 67/67/67
f 69/69/69 174/174/174 241/241/241
f 71/71/71 70/70/70 69/69/69
f 175/175/175 174/174/174 239/239/239
f 240/240/240 241/241/241 174/174/174
f 174/174/174 175/175/175 240/240/240
f 240/240/240 175/175/175 177/177/177
f 239/239/239 176/176/176 175/175/175
f 175/175/175 176/176/176 177/177/177
f 240/240/240 177/177/177 400/400/400
f 240/240/240 400/400/400 399/399/399
f 399/399/399 241/241/241 240/240/240
f 400/400/400 177/177/177 176/176/176
f 400/400/400 176/176/176 239/239/239
f 239/239/239 399/399/399 400/400/400
f 90/90/90 94/94/94 72/72/72
f 72/72/72 91/91/91 90/90/90
f 73/73/73 72/72/72 94/94/94
f 72/72/72 73/73/73 74/74/74
f 87/87/87 90/90/90 91/91/91
f 95/95/95 88/88/88 91/91/91
f 91/91/91 88/88/88 87/87/87
f 86/86/86 87/87/87 88/88/88
f 89/89/89 88/88/88 95/95/95
f 88/88/88 89/89/89 86/86/86
f 95/95/95 356/356/356 355/355/355
f 355/355/355 96/96/96 95/95/95
f 95/95/95 96/96/96 89/89/89
f 401/401/401 402/402/402 403/403/403
f 401/401/401 459/459/459 402/402/402
f 401/401/401 375/375/375 459/459/459
f 173/173/173 375/375/375 401/401/401
f 401/401/401 179/179/179 173/173/173
f 179/179/179 161/161/161 160/160/160
f 160/160/160 178/178/178 179/179/179
f 173/173/173 179/179/179 178/178/178
f 331/331/331 56/56/56 161/161/161
f 161/161/161 56/56/56 57/57/57
f 57/57/57 160/160/160 161/161/161
f 36/36/36 35/35/35 160/160/160
f 160/160/160 57/57/57 36/36/36
f 181/181/181 160/160/160 35/35/35
f 178/178/178 160/160/160 181/181/181
f 178/178/178 182/182/182 238/238/238
f 178/178/178 238/238/238 123/123/123
f 181/181/181 182/182/182 178/178/178
f 178/178/178 123/123/123 173/173/173
f 35/35/35 237/237/237 181/181/181
f 237/237/237 35/35/35 63/63/63
f 63/63/63 35/35/35 16/16/16
f 63/63/63 183/183/183 237/237/237
f 63/63/63 60/60/60 238/238/238
f 238/238/238 184/184/184 63/63/63
f 183/183/183 63/63/63 184/184/184
f 16/16/16 64/64/64 63/63/63
f 60/60/60 63/63/63 64/64/64
f 209/209/209 210/210/210 186/186/186
f 186/186/186 211/211/211 209/209/209
f 288/288/288 292/292/292 293/293/293
f 293/293/293 311/311/311 288/288/288
f 311/311/311 295/295/295 288/288/288
f 3/3/3 288/288/288 295/295/295
f 295/295/295 11/11/11 3/3/3
f 3/3/3 11/11/11 12/12/12
f 11/11/11 295/295/295 350/350/350
f 353/353/353 295/295/295 311/311/311
f 350/350/350 295/295/295 353/353/353
f 311/311/311 310/310/310 353/353/353
f 353/353/353 351/351/351 350/350/350
f 350/350/350 166/166/166 11/11/11
f 166/166/166 350/350/350 349/349/349
f 349/349/349 350/350/350 351/351/351
f 11/11/11 166/166/166 84/84/84
f 346/346/346 360/360/360 361/361/361
f 360/360/360 346/346/346 355/355/355
f 355/355/355 354/354/354 360/360/360
f 354/354/354 355/355/355 356/356/356
f 356/356/356 357/357/357 354/354/354
f 342/342/342 362/362/362 359/359/359
f 476/476/476 475/475/475 501/501/501
f 475/475/475 476/476/476 463/463/463
f 463/463/463 474/474/474 475/475/475
f 501/501/501 494/494/494 476/476/476
f 463/463/463 476/476/476 465/465/465
f 465/465/465 476/476/476 494/494/494
f 466/466/466 464/464/464 463/463/463
f 463/463/463 465/465/465 466/466/466
f 494/494/494 492/492/492 465/465/465
f 466/466/466 465/465/465 492/492/492
f 492/492/492 493/493/493 466/466/466
f 498/498/498 488/488/488 487/487/487
f 486/486/486 487/487/487 488/488/488
f 491/491/491 498/498/498 487/487/487
f 487/487/487 486/486/486 490/490/490
f 490/490/490 491/491/491 487/487/487
f 490/490/490 486/486/486 477/477/477
f 477/477/477 500/500/500 490/490/490
f 500/500/500 477/477/477 468/468/468
f 468/468/468 479/479/479 500/500/500
f 472/472/472 479/479/479 468/468/468
f 472/472/472 468/468/468 467/467/467
f 467/467/467 471/471/471 472/472/472
f 22/22/22 17/17/17 19/19/19
f 17/17/17 18/18/18 19/19/19
f 21/21/21 22/22/22 19/19/19
f 19/19/19 18/18/18 20/20/20
f 20/20/20 21/21/21 19/19/19
f 303/303/303 299/299/299 298/298/298
f 298/298/298 299/299/299 300/300/300
f 302/302/302 299/299/299 303/303/303
f 299/299/299 301/301/301 300/300/300
f 301/301/301 299/299/299 302/302/302
f 8/8/8 9/9/9 7/7/7
f 4/4/4 33/33/33 9/9/9
f 33/33/33 4/4/4 12/12/12
f 12/12/12 4/4/4 3/3/3
f 10/10/10 9/9/9 33/33/33
f 9/9/9 10/10/10 7/7/7
f 10/10/10 5/5/5 7/7/7
f 32/32/32 53/53/53 5/5/5
f 5/5/5 10/10/10 32/32/32
f 5/5/5 53/53/53 30/30/30
f 33/33/33 32/32/32 10/10/10
f 54/54/54 55/55/55 32/32/32
f 55/55/55 53/53/53 32/32/32
f 25/25/25 54/54/54 32/32/32
f 25/25/25 32/32/32 33/33/33
f 33/33/33 12/12/12 85/85/85
f 85/85/85 34/34/34 33/33/33
f 33/33/33 34/34/34 25/25/25
f 54/54/54 25/25/25 24/24/24
f 25/25/25 26/26/26 23/23/23
f 23/23/23 24/24/24 25/25/25
f 24/24/24 29/29/29 54/54/54
f 27/27/27 24/24/24 23/23/23
f 28/28/28 29/29/29 24/24/24
f 24/24/24 27/27/27 28/28/28
f 58/58/58 23/23/23 51/51/51
f 51/51/51 23/23/23 26/26/26
f 89/89/89 75/75/75 92/92/92
f 92/92/92 86/86/86 89/89/89
f 93/93/93 92/92/92 75/75/75
f 75/75/75 73/73/73 93/93/93
f 73/73/73 75/75/75 76/76/76
f 94/94/94 93/93/93 73/73/73
f 76/76/76 74/74/74 73/73/73
f 74/74/74 76/76/76 162/162/162
f 162/162/162 345/345/345 343/343/343
f 345/345/345 346/346/346 344/344/344
f 344/344/344 343/343/343 345/345/345
f 343/343/343 344/344/344 342/342/342
f 344/344/344 361/361/361 362/362/362
f 362/362/362 342/342/342 344/344/344
f 361/361/361 344/344/344 346/346/346
f 6/6/6 30/30/30 1/1/1
f 1/1/1 8/8/8 6/6/6
f 4/4/4 8/8/8 1/1/1
f 2/2/2 1/1/1 30/30/30
f 3/3/3 4/4/4 1/1/1
f 1/1/1 2/2/2 3/3/3
f 30/30/30 6/6/6 5/5/5
f 6/6/6 8/8/8 7/7/7
f 5/5/5 6/6/6 7/7/7
f 9/9/9 8/8/8 4/4/4
f 334/334/334 335/335/335 332/332/332
f 332/332/332 333/333/333 334/334/334
f 336/336/336 337/337/337 335/335/335
f 459/459/459 375/375/375 335/335/335
f 459/459/459 335/335/335 337/337/337
f 332/332/332 335/335/335 375/375/375
f 375/375/375 376/376/376 332/332/332
f 376/376/376 375/375/375 173/173/173
f 173/173/173 172/172/172 376/376/376
f 122/122/122 172/172/172 173/173/173
f 337/337/337 405/405/405 459/459/459
f 458/458/458 404/404/404 337/337/337
f 404/404/404 405/405/405 337/337/337
f 309/309/309 328/328/328 289/289/289
f 289/289/289 291/291/291 309/309/309
f 294/294/294 290/290/290 289/289/289
f 289/289/289 290/290/290 291/291/291
f 311/311/311 293/293/293 294/294/294
f 293/293/293 290/290/290 294/294/294
f 292/292/292 290/290/290 293/293/293
f 291/291/291 290/290/290 292/292/292
f 291/291/291 292/292/292 287/287/287
f 287/287/287 309/309/309 291/291/291
f 309/309/309 31/31/31 159/159/159
f 2/2/2 31/31/31 309/309/309
f 309/309/309 287/287/287 2/2/2
f 288/288/288 287/287/287 292/292/292
f 3/3/3 2/2/2 287/287/287
f 287/287/287 288/288/288 3/3/3
f 238/238/238 60/60/60 123/123/123
f 123/123/123 60/60/60 59/59/59
f 64/64/64 61/61/61 60/60/60
f 59/59/59 60/60/60 61/61/61
f 173/173/173 123/123/123 122/122/122
f 59/59/59 122/122/122 123/123/123
f 61/61/61 62/62/62 59/59/59
f 62/62/62 61/61/61 165/165/165
f 164/164/164 165/165/165 61/61/61
f 61/61/61 64/64/64 164/164/164
f 165/165/165 168/168/168 62/62/62
f 165/165/165 334/334/334 333/333/333
f 333/333/333 168/168/168 165/165/165
f 334/334/334 165/165/165 164/164/164
f 164/164/164 336/336/336 334/334/334
f 335/335/335 334/334/334 336/336/336
f 23/23/23 58/58/58 27/27/27
f 26/26/26 52/52/52 51/51/51
f 51/51/51 66/66/66 58/58/58
f 66/66/66 51/51/51 47/47/47
f 48/48/48 47/47/47 51/51/51
f 51/51/51 52/52/52 48/48/48
f 326/326/326 304/304/304 58/58/58
f 58/58/58 66/66/66 326/326/326
f 27/27/27 58/58/58 304/304/304
f 304/304/304 307/307/307 27/27/27
f 28/28/28 27/27/27 307/307/307
f 307/307/307 308/308/308 28/28/28
f 329/329/329 307/307/307 306/306/306
f 307/307/307 329/329/329 308/308/308
f 306/306/306 307/307/307 304/304/304
f 305/305/305 304/304/304 326/326/326
f 304/304/304 305/305/305 306/306/306
f 306/306/306 312/312/312 329/329/329
f 311/311/311 312/312/312 306/306/306
f 306/306/306 310/310/310 311/311/311
f 329/329/329 312/312/312 330/330/330
f 294/294/294 312/312/312 311/311/311
f 312/312/312 294/294/294 289/289/289
f 289/289/289 328/328/328 312/312/312
f 330/330/330 312/312/312 328/328/328
f 158/158/158 330/330/330 328/328/328
f 159/159/159 328/328/328 309/309/309
f 328/328/328 159/159/159 158/158/158
f 50/50/50 80/80/80 65/65/65
f 65/65/65 47/47/47 50/50/50
f 324/324/324 323/323/323 80/80/80
f 80/80/80 79/79/79 324/324/324
f 80/80/80 50/50/50 49/49/49
f 49/49/49 79/79/79 80/80/80
f 49/49/49 50/50/50 47/47/47
f 47/47/47 48/48/48 49/49/49
f 147/147/147 141/141/141 140/140/140
f 137/137/137 141/141/141 148/148/148
f 140/140/140 141/141/141 137/137/137
f 140/140/140 145/145/145 147/147/147
f 145/145/145 146/146/146 147/147/147
f 135/135/135 137/137/137 148/148/148
f 244/244/244 148/148/148 395/395/395
f 386/386/386 395/395/395 148/148/148
f 154/154/154 148/148/148 244/244/244
f 148/148/148 154/154/154 135/135/135
f 157/157/157 180/180/180 135/135/135
f 135/135/135 154/154/154 157/157/157
f 244/244/244 149/149/149 154/154/154
f 152/152/152 157/157/157 154/154/154
f 154/154/154 149/149/149 152/152/152
f 395/395/395 393/393/393 244/244/244
f 84/84/84 12/12/12 11/11/11
f 85/85/85 12/12/12 84/84/84
f 81/81/81 84/84/84 166/166/166
f 84/84/84 83/83/83 85/85/85
f 83/83/83 84/84/84 81/81/81
f 349/349/349 167/167/167 166/166/166
f 166/166/166 167/167/167 81/81/81
f 167/167/167 349/349/349 352/352/352
f 351/351/351 352/352/352 349/349/349
f 352/352/352 169/169/169 167/167/167
f 167/167/167 169/169/169 82/82/82
f 82/82/82 81/81/81 167/167/167
f 81/81/81 82/82/82 83/83/83
f 30/30/30 31/31/31 2/2/2
f 159/159/159 31/31/31 30/30/30
f 30/30/30 53/53/53 159/159/159
f 158/158/158 159/159/159 53/53/53
f 53/53/53 55/55/55 158/158/158
f 245/245/245 243/243/243 393/393/393
f 149/149/149 243/243/243 245/245/245
f 393/393/393 394/394/394 245/245/245
f 153/153/153 245/245/245 394/394/394
f 245/245/245 150/150/150 149/149/149
f 153/153/153 150/150/150 245/245/245
f 151/151/151 394/394/394 393/393/393
f 393/393/393 152/152/152 151/151/151
f 394/394/394 151/151/151 153/153/153
f 150/150/150 153/153/153 151/151/151
