# ammonit_ad reconstructed from live game memory
v -8.77534 62.50116 -12.87684
v -10.30941 59.12559 -10.06441
v -11.94393 59.93806 -14.45959
v -12.32837 60.25486 -6.36246
v -13.13446 60.18031 0.34387
v -15.05676 55.99868 -1.63677
v -14.00240 57.19244 -7.92049
v -9.07549 62.72005 -7.27140
v -13.84653 57.28510 -12.64296
v -9.11232 61.62638 -12.13497
v -12.31059 60.27637 -10.15261
v -11.46443 59.68111 -13.45277
v -12.20283 57.12664 -12.10142
v -12.38340 57.04403 -8.22702
v -11.75350 59.96965 -7.19919
v -9.42324 61.44009 -8.17546
v -7.02695 62.92040 -12.38975
v -11.34749 62.81248 0.19318
v -16.14569 51.09829 -4.25384
v -15.02347 51.85184 -8.54560
v -14.54338 52.29226 -13.40059
v -9.89242 60.39938 -27.94165
v -9.10088 60.88176 -23.61117
v -11.84060 58.92759 -23.54033
v -12.51964 56.63039 -29.34796
v -13.34385 56.03003 -20.99334
v -12.99534 54.41924 -26.30571
v -5.28660 59.62726 -27.78472
v -5.02957 61.49654 -23.19583
v -12.07360 44.49902 -19.00474
v -10.03186 48.20169 -24.75530
v -12.33320 47.15601 -25.48786
v -14.79185 46.03256 -20.51530
v -16.78880 50.48820 -20.92685
v -14.26426 52.98657 -17.73901
v -13.78725 48.88824 -14.88997
v -30.19943 39.08195 -36.55784
v -23.28753 44.73650 -31.74773
v -24.61431 44.02423 -28.47529
v -31.36554 38.42818 -34.51614
v -22.17686 40.87026 -27.48697
v -30.13326 36.21124 -34.05080
v -35.40242 35.00841 -38.18413
v -36.23476 33.41412 -39.98032
v -34.64410 35.39824 -39.70629
v -34.56347 33.24274 -37.99369
v -14.78075 51.64051 -25.74481
v -14.78075 51.64051 -25.74481
v -16.78880 50.48820 -20.92685
v -14.79185 46.03256 -20.51530
v -12.33320 47.15601 -25.48786
v -21.16963 41.88642 -31.56229
v -28.72263 37.13613 -36.39122
v -21.16963 41.88642 -31.56229
v -33.44477 33.69745 -39.62494
v -9.35102 40.73769 -12.15917
v -10.44596 43.60678 -7.97450
v -4.38941 42.90617 -8.38944
v -5.16704 38.92421 -14.43678
v 0.00009 41.93114 -8.67900
v 0.00008 41.24238 -14.17258
v -11.48414 46.17170 -12.44895
v -11.77884 41.76348 -16.62251
v -12.33320 47.15601 -25.48786
v -28.72263 37.13613 -36.39122
v -33.44477 33.69745 -39.62494
v -17.45197 20.48122 -20.09636
v -14.64427 30.50714 -18.51597
v -12.95823 29.99954 -15.32635
v -16.38418 19.92147 -17.92028
v -10.04071 28.13981 -16.97797
v -14.24867 18.87200 -18.97051
v -18.67081 13.10680 -19.71577
v -19.08289 10.98045 -21.47632
v -19.39758 13.50545 -21.23230
v -17.01307 12.44633 -20.49785
v -11.77884 41.76348 -16.62251
v -9.35102 40.73769 -12.15917
v -5.16704 38.92421 -14.43678
v -7.36857 40.18195 -19.49999
v -11.49756 28.75691 -20.55372
v -15.23060 19.31725 -21.57176
v -11.49756 28.75691 -20.55372
v -17.67053 13.10120 -22.29361
v -7.36857 40.18195 -19.49999
v -15.23060 19.31725 -21.57176
v -17.67053 13.10120 -22.29361
v -6.03775 43.85869 -20.33623
v 0.00008 43.59067 -20.37371
v -7.36857 40.18195 -19.49999
v -13.35349 57.62837 -52.16017
v -9.87132 57.94447 -42.20984
v -12.74330 59.55331 -39.86907
v -15.36256 58.69878 -50.69357
v -14.75274 56.62420 -41.49827
v -16.71680 56.63311 -51.52496
v -17.03817 58.21635 -57.66998
v -17.36268 56.90799 -60.34246
v -15.56772 57.48394 -58.54305
v -18.03528 56.66058 -58.19932
v -5.46216 58.25639 -30.78544
v -9.89242 60.39938 -27.94165
v -12.51964 56.63039 -29.34796
v -8.72441 55.02196 -31.37749
v -12.06733 55.07768 -42.47691
v -14.81468 55.38462 -52.48318
v -12.06733 55.07768 -42.47691
v -16.30805 55.65952 -58.39358
v -8.72441 55.02196 -31.37749
v -14.81468 55.38462 -52.48318
v -16.30805 55.65952 -58.39358
v -7.74308 53.63651 -28.67415
v -8.72441 55.02196 -31.37749
v -6.84414 48.23140 -25.15812
v -9.67991 60.92427 -20.56146
v -6.32949 62.16633 -18.57317
v -4.83548 62.91846 -19.32905
v 0.00008 54.06393 -27.70809
v -5.46216 58.25639 -30.78544
v 0.00008 49.24831 -24.54736
v -11.19927 41.96247 -6.51795
v -15.31848 46.20174 -4.70778
v -11.00322 40.81212 13.15793
v -18.19129 56.16161 0.08610
v -16.18956 60.81846 2.02110
v -19.76677 54.47829 12.77180
v -19.33882 58.57984 29.69656
v -10.90070 48.00139 35.74376
v -13.28703 65.50893 25.26587
v -13.76692 62.96659 12.44773
v -6.14279 67.67855 23.88545
v -13.28703 65.50893 25.26587
v -13.76692 62.96659 12.44773
v -5.09525 65.22845 12.34314
v -10.03787 63.97324 52.90243
v 0.00008 62.00797 56.08013
v 0.00008 44.86106 37.31351
v -18.04047 69.55450 43.72240
v -13.06802 73.50500 35.92835
v -6.02499 74.80444 33.13196
v -13.06802 73.50500 35.92835
v -9.81194 85.56617 56.56914
v 0.00008 85.56402 60.34247
v -16.54187 85.56801 46.79144
v -12.11017 85.56325 38.50103
v -4.67863 85.55659 35.71833
v -12.11017 85.56325 38.50103
v -9.63200 105.24909 48.44724
v 0.00008 106.89328 51.33053
v -14.95914 100.75474 41.48394
v -11.31544 96.17619 34.38906
v -5.74153 94.76224 32.04746
v -11.31544 96.17619 34.38906
v -8.51865 117.33794 32.20773
v 0.00008 120.47472 33.67128
v -13.16950 111.30087 29.29462
v -10.89832 103.40309 25.44229
v -5.81579 101.23190 24.29626
v -10.89832 103.40309 25.44229
v -7.20682 119.87154 15.10404
v 0.00009 122.95297 15.07236
v -11.01090 113.59023 15.18686
v -10.44453 104.97792 15.30555
v -5.48091 102.88684 15.31975
v -10.44453 104.97792 15.30555
v -6.05730 114.17502 -2.36848
v 0.00009 116.20187 -3.76399
v -10.55567 108.94124 0.93272
v -9.83910 101.81084 5.21007
v -4.95523 99.97993 6.25676
v -9.83910 101.81084 5.21007
v -5.78889 101.54504 -13.54757
v 0.00009 102.73038 -15.45156
v -10.05828 98.44905 -8.54508
v -9.37547 94.50336 -1.82565
v -4.12755 93.44157 -0.06298
v -9.37547 94.50336 -1.82565
v -5.61746 85.66272 -15.17105
v 0.00008 85.65416 -17.28289
v -9.73887 85.66604 -10.09183
v -9.07478 85.85145 -2.68377
v -3.99581 85.87199 -0.47444
v -9.07478 85.85145 -2.68377
v -4.08795 73.87589 -11.73749
v 0.00008 73.53941 -12.75337
v -9.45220 76.01678 -6.94320
v -8.81384 79.54697 1.13947
v -4.79009 80.01328 2.82680
v -8.81384 79.54697 1.13947
v -8.44877 76.50066 5.17943
v -8.97272 71.06065 0.78983
v -4.67176 78.00311 5.77180
v -8.44877 76.50066 5.17943
v -8.42583 71.14996 22.10827
v -6.14279 67.67855 23.88545
v -5.09525 65.22845 12.34314
v -8.78901 69.00200 12.23286
v -7.86926 75.94400 18.77726
v -8.22284 74.50317 12.09648
v -8.18107 77.08832 30.12640
v -6.02499 74.80444 33.13196
v -7.63591 80.20976 24.76924
v -4.02471 80.98541 23.17038
v -7.63591 80.20976 24.76924
v -7.86926 75.94400 18.77726
v -4.04581 77.30966 17.56944
v -8.01038 85.56812 32.04459
v -4.67863 85.55659 35.71833
v -7.47605 85.60524 26.18412
v -4.01160 85.63455 24.18502
v -7.47605 85.60524 26.18412
v -7.78987 93.23710 28.92007
v -5.74153 94.76224 32.04746
v -7.27340 91.47064 24.58822
v -4.00205 90.20859 22.76826
v -7.27340 91.47064 24.58822
v -7.58629 97.61269 22.32680
v -5.81579 101.23190 24.29626
v -7.08474 94.27711 20.31701
v -4.59835 92.45879 19.40150
v -7.08474 94.27711 20.31701
v -7.43558 99.42577 15.32797
v -5.48091 102.88684 15.31975
v -6.94414 95.35590 15.32185
v -4.26497 93.54910 15.38067
v -6.94414 95.35590 15.32185
v -7.28134 96.67672 8.25216
v -4.95523 99.97993 6.25676
v -6.79999 93.63106 10.23161
v -4.60377 92.13513 11.04218
v -6.79999 93.63106 10.23161
v -7.09756 91.46928 3.64867
v -4.12755 93.44157 -0.06298
v -6.63186 89.92549 7.63859
v -5.12947 89.34169 9.26035
v -6.63186 89.92549 7.63859
v -7.01483 85.97314 3.07690
v -3.99581 85.87199 -0.47444
v -6.38921 86.52397 7.35603
v -5.34728 86.81934 8.83208
v -6.38921 86.52397 7.35603
v -6.95958 81.41571 7.49763
v -4.79009 80.01328 2.82680
v -6.07754 83.76644 9.58520
v -4.67176 78.00311 5.77180
v -6.85516 79.82756 14.47340
v -4.60707 76.20668 12.21534
v -6.40723 82.59006 13.96906
v -4.04581 77.30966 17.56944
v -6.80305 82.70521 20.13093
v -4.02471 80.98541 23.17038
v -6.36073 84.47752 16.89653
v -6.77610 85.67416 21.18572
v -4.01160 85.63455 24.18502
v -6.33397 86.14529 17.51317
v -6.75847 88.78112 20.16874
v -4.00205 90.20859 22.76826
v -6.31763 87.24278 17.19377
v -6.74353 90.36964 18.08322
v -4.59835 92.45879 19.40150
v -6.30379 88.16106 16.32694
v -6.29029 88.73165 15.03330
v -6.72896 91.15331 15.26858
v -6.27570 88.22542 13.68559
v -6.71510 90.28494 11.68969
v -5.33285 66.79768 4.20390
v -6.55148 68.30455 -0.86254
v -4.60707 76.20668 12.21534
v -8.22284 74.50317 12.09648
v -4.60377 92.13513 11.04218
v -5.12947 89.34169 9.26035
v -5.34728 86.81934 8.83208
v -6.70346 85.99217 11.18950
v -6.04229 84.40726 10.25408
v -6.34454 86.76601 13.60568
v -6.04229 84.40726 10.25408
v -6.07754 83.76644 9.58520
v -4.26497 93.54910 15.38067
v -6.56527 84.77338 13.57887
v -5.85004 83.41385 13.77261
v -6.36577 86.16068 14.55053
v -6.30379 88.16106 16.32694
v -6.31763 87.24278 17.19377
v -5.99696 87.07584 16.57218
v -5.98640 87.71904 16.01359
v -6.29029 88.73165 15.03330
v -5.97607 88.25089 15.01122
v -6.27570 88.22542 13.68559
v -6.06650 87.89898 14.04211
v -6.34454 86.76601 13.60568
v -6.10378 86.91242 13.99144
v -6.36577 86.16068 14.55053
v -5.98640 87.71904 16.01359
v -5.99696 87.07584 16.57218
v -6.68331 86.43644 15.65034
v -6.67519 87.41763 14.80620
v -5.97607 88.25089 15.01122
v -6.06650 87.89898 14.04211
v -6.10378 86.91242 13.99144
v -5.99696 86.13976 16.88260
v -5.87611 84.77010 16.22131
v -6.58655 85.45243 15.25081
v -5.99696 86.13976 16.88260
v -6.33397 86.14529 17.51317
v -6.36073 84.47752 16.89653
v -5.87611 84.77010 16.22131
v -5.85004 83.41385 13.77261
v -6.40723 82.59006 13.96906
v -5.80372 40.71621 -6.97211
v -4.38941 42.90617 -8.38944
v -10.44596 43.60678 -7.97450
v -11.19927 41.96247 -6.51795
v -17.68892 50.61824 -2.61431
v -16.14569 51.09829 -4.25384
v -16.67957 56.10862 -1.12036
v -18.19129 56.16161 0.08610
v -13.88163 64.16243 1.86484
v -16.18956 60.81846 2.02110
v -14.88349 60.43911 0.87225
v -13.08742 63.37785 0.54342
v -9.29090 66.31695 1.58624
v -5.33285 66.79768 4.20390
v -6.55148 68.30455 -0.86254
v -9.29090 66.31695 1.58624
v -4.95771 69.05714 -13.81371
v -4.08795 73.87589 -11.73749
v -4.22007 64.50220 -22.24303
v -4.23611 64.24963 -23.02424
v -2.15193 65.26208 -24.88021
v -2.06210 65.59363 -24.01986
v -8.78874 64.18590 -12.58571
v -10.83709 64.18944 -7.31492
v -10.60703 63.35267 -7.37526
v -8.55858 63.35952 -12.44270
v -6.10954 63.32092 -19.24744
v -7.02695 62.92040 -12.38975
v -4.83548 62.91846 -19.32905
v -4.23611 64.24963 -23.02424
v -3.58598 63.61539 -23.28493
v -4.22007 64.50220 -22.24303
v -3.98251 65.91199 -19.18432
v -6.18851 64.32118 -19.01153
v -2.06210 65.59363 -24.01986
v -13.88163 64.16243 1.86484
v -13.08742 63.37785 0.54342
v 0.00008 69.68242 -15.67997
v 0.00008 73.53941 -12.75337
v 0.00008 66.70190 -19.54454
v -8.78874 64.18590 -12.58571
v -10.83709 64.18944 -7.31492
v -13.88163 64.16243 1.86484
v -5.33285 66.79768 4.20390
v 0.00008 65.94492 -25.80723
v 0.00008 66.25787 -24.88701
v 0.00008 66.25787 -24.88701
v -1.51164 64.56667 -25.02206
v 0.00008 65.04176 -25.76565
v -13.08742 63.37785 0.54342
v -14.88349 60.43911 0.87225
v -13.13446 60.18031 0.34387
v -11.34749 62.81248 0.19318
v -15.31848 46.20174 -4.70778
v -13.92524 47.44268 -6.15118
v -15.05676 55.99868 -1.63677
v -16.67957 56.10862 -1.12036
v -16.14569 51.09829 -4.25384
v 0.00008 37.59762 -7.54350
v 0.00009 41.93114 -8.67900
v -17.68892 50.61824 -2.61431
v 0.00008 58.84435 -26.56502
v 0.00009 61.69741 -23.26343
v -1.51164 64.56667 -25.02206
v -3.58598 63.61539 -23.28493
v 0.00008 63.67308 -22.84188
v 0.00008 65.04176 -25.76565
v -5.80372 40.71621 -6.97211
v 0.00008 37.59762 14.12586
v 0.00008 37.59762 -7.54350
v -13.88163 64.16243 1.86484
v -9.07549 62.72005 -7.27140
v -6.18851 64.32118 -19.01153
v -4.22007 64.50220 -22.24303
v -11.34749 62.81248 0.19318
v -3.58598 63.61539 -23.28493
v 0.00008 57.12694 -27.72527
v -13.92524 47.44268 -6.15118
v -13.88163 64.16243 1.86484
v 0.00008 63.67308 -22.84188
v -3.58598 63.61539 -23.28493
v -4.83548 62.91846 -19.32905
v 0.00009 62.37712 -20.14928
v 0.00009 62.37712 -20.14928
v 8.77551 62.50116 -12.87684
v 11.94410 59.93807 -14.45959
v 10.30958 59.12559 -10.06441
v 12.32854 60.25486 -6.36246
v 14.00258 57.19245 -7.92048
v 15.05693 55.99868 -1.63677
v 13.13463 60.18031 0.34387
v 9.07566 62.72005 -7.27140
v 13.84670 57.28510 -12.64296
v 9.11249 61.62638 -12.13497
v 11.46460 59.68111 -13.45277
v 12.31076 60.27638 -10.15261
v 12.20300 57.12664 -12.10142
v 12.38357 57.04403 -8.22702
v 11.75367 59.96965 -7.19919
v 9.42341 61.44009 -8.17546
v 7.02711 62.92040 -12.38975
v 11.34766 62.81248 0.19318
v 16.14585 51.09829 -4.25384
v 15.02364 51.85184 -8.54559
v 14.54356 52.29226 -13.40059
v 9.89259 60.39938 -27.94165
v 12.51981 56.63038 -29.34796
v 11.84078 58.92759 -23.54033
v 9.10105 60.88176 -23.61117
v 12.99551 54.41923 -26.30571
v 13.34402 56.03003 -20.99334
v 5.02974 61.49654 -23.19583
v 5.28677 59.62726 -27.78472
v 12.07377 44.49902 -19.00474
v 14.79202 46.03255 -20.51530
v 12.33337 47.15600 -25.48787
v 10.03203 48.20169 -24.75530
v 16.78896 50.48819 -20.92686
v 13.78742 48.88825 -14.88997
v 14.26443 52.98657 -17.73901
v 30.19960 39.08195 -36.55784
v 31.36570 38.42818 -34.51614
v 24.61448 44.02423 -28.47529
v 23.28770 44.73650 -31.74773
v 30.13342 36.21124 -34.05080
v 22.17703 40.87026 -27.48697
v 35.40258 35.00841 -38.18413
v 34.64426 35.39824 -39.70629
v 36.23492 33.41412 -39.98032
v 34.56362 33.24274 -37.99369
v 14.78091 51.64050 -25.74481
v 14.78091 51.64050 -25.74481
v 16.78896 50.48819 -20.92686
v 14.79202 46.03255 -20.51530
v 21.16979 41.88642 -31.56229
v 12.33337 47.15600 -25.48787
v 21.16979 41.88642 -31.56229
v 28.72279 37.13614 -36.39122
v 33.44493 33.69745 -39.62494
v 9.35118 40.73769 -12.15917
v 5.16721 38.92421 -14.43678
v 4.38958 42.90617 -8.38944
v 10.44613 43.60678 -7.97449
v 11.77900 41.76348 -16.62251
v 11.48431 46.17170 -12.44894
v 12.33337 47.15600 -25.48787
v 28.72279 37.13614 -36.39122
v 33.44493 33.69745 -39.62494
v 17.45214 20.48121 -20.09636
v 16.38435 19.92146 -17.92028
v 12.95840 29.99954 -15.32635
v 14.64443 30.50714 -18.51597
v 14.24884 18.87199 -18.97051
v 10.04088 28.13981 -16.97798
v 18.67098 13.10680 -19.71577
v 19.39775 13.50544 -21.23230
v 19.08306 10.98044 -21.47632
v 17.01324 12.44632 -20.49785
v 11.77900 41.76348 -16.62251
v 9.35118 40.73769 -12.15917
v 5.16721 38.92421 -14.43678
v 11.49773 28.75691 -20.55372
v 7.36873 40.18195 -19.49999
v 11.49773 28.75691 -20.55372
v 15.23077 19.31725 -21.57176
v 17.67070 13.10120 -22.29361
v 7.36873 40.18195 -19.49999
v 15.23077 19.31725 -21.57176
v 17.67070 13.10120 -22.29361
v 6.03791 43.85869 -20.33623
v 7.36873 40.18195 -19.49999
v 13.35366 57.62836 -52.16018
v 15.36273 58.69877 -50.69357
v 12.74346 59.55331 -39.86907
v 9.87149 57.94446 -42.20984
v 16.71697 56.63310 -51.52497
v 14.75291 56.62420 -41.49826
v 17.03834 58.21634 -57.66998
v 15.56789 57.48393 -58.54305
v 17.36284 56.90798 -60.34246
v 18.03545 56.66057 -58.19932
v 5.46233 58.25639 -30.78543
v 9.89259 60.39938 -27.94165
v 12.51981 56.63038 -29.34796
v 12.06749 55.07768 -42.47691
v 8.72458 55.02195 -31.37748
v 12.06749 55.07768 -42.47691
v 14.81485 55.38461 -52.48319
v 16.30822 55.65952 -58.39358
v 8.72458 55.02195 -31.37748
v 14.81485 55.38461 -52.48319
v 16.30822 55.65952 -58.39358
v 8.72458 55.02195 -31.37748
v 7.74324 53.63651 -28.67415
v 6.84431 48.23140 -25.15812
v 6.32965 62.16633 -18.57317
v 9.68008 60.92428 -20.56146
v 4.83565 62.91846 -19.32905
v 5.46233 58.25639 -30.78543
v 11.19943 41.96247 -6.51795
v 11.00339 40.81212 13.15793
v 15.31864 46.20174 -4.70778
v 18.19146 56.16161 0.08610
v 19.76694 54.47829 12.77180
v 16.18973 60.81846 2.02110
v 10.90087 48.00139 35.74376
v 19.33898 58.57984 29.69656
v 13.28720 65.50893 25.26587
v 13.76709 62.96659 12.44773
v 6.14296 67.67855 23.88545
v 5.09542 65.22845 12.34314
v 13.76709 62.96659 12.44773
v 13.28720 65.50893 25.26587
v 10.03804 63.97324 52.90243
v 18.04063 69.55450 43.72240
v 13.06819 73.50500 35.92835
v 6.02516 74.80444 33.13196
v 13.06819 73.50500 35.92835
v 9.81211 85.56617 56.56914
v 16.54204 85.56800 46.79144
v 12.11033 85.56325 38.50103
v 4.67880 85.55659 35.71833
v 12.11033 85.56325 38.50103
v 9.63217 105.24909 48.44724
v 14.95931 100.75473 41.48394
v 11.31561 96.17619 34.38906
v 5.74170 94.76224 32.04746
v 11.31561 96.17619 34.38906
v 8.51882 117.33794 32.20773
v 13.16967 111.30087 29.29462
v 10.89849 103.40309 25.44229
v 5.81596 101.23190 24.29626
v 10.89849 103.40309 25.44229
v 7.20699 119.87154 15.10404
v 11.01107 113.59023 15.18686
v 10.44470 104.97792 15.30555
v 5.48108 102.88684 15.31975
v 10.44470 104.97792 15.30555
v 6.05747 114.17502 -2.36848
v 10.55584 108.94124 0.93272
v 9.83926 101.81084 5.21007
v 4.95540 99.97993 6.25676
v 9.83926 101.81084 5.21007
v 5.78906 101.54504 -13.54757
v 10.05845 98.44905 -8.54508
v 9.37564 94.50336 -1.82565
v 4.12772 93.44157 -0.06298
v 9.37564 94.50336 -1.82565
v 5.61763 85.66272 -15.17105
v 9.73904 85.66604 -10.09183
v 9.07495 85.85145 -2.68377
v 3.99598 85.87199 -0.47444
v 9.07495 85.85145 -2.68377
v 4.08812 73.87589 -11.73749
v 9.45237 76.01678 -6.94320
v 8.81401 79.54697 1.13947
v 4.79026 80.01328 2.82680
v 8.81401 79.54697 1.13947
v 8.44894 76.50066 5.17943
v 8.97289 71.06065 0.78983
v 4.67193 78.00311 5.77180
v 8.44894 76.50066 5.17943
v 8.42600 71.14996 22.10827
v 8.78918 69.00200 12.23286
v 5.09542 65.22845 12.34314
v 6.14296 67.67855 23.88545
v 7.86943 75.94400 18.77726
v 8.22301 74.50317 12.09648
v 8.18124 77.08832 30.12640
v 6.02516 74.80444 33.13196
v 7.63608 80.20976 24.76924
v 4.02488 80.98541 23.17038
v 4.04598 77.30966 17.56944
v 7.86943 75.94400 18.77726
v 7.63608 80.20976 24.76924
v 8.01055 85.56812 32.04459
v 4.67880 85.55659 35.71833
v 7.47622 85.60524 26.18412
v 4.01177 85.63455 24.18502
v 7.47622 85.60524 26.18412
v 7.79003 93.23710 28.92007
v 5.74170 94.76224 32.04746
v 7.27357 91.47064 24.58822
v 4.00222 90.20859 22.76826
v 7.27357 91.47064 24.58822
v 7.58646 97.61269 22.32680
v 5.81596 101.23190 24.29626
v 7.08491 94.27711 20.31701
v 4.59852 92.45879 19.40150
v 7.08491 94.27711 20.31701
v 7.43574 99.42577 15.32797
v 5.48108 102.88684 15.31975
v 6.94430 95.35590 15.32185
v 4.26514 93.54910 15.38067
v 6.94430 95.35590 15.32185
v 7.28151 96.67672 8.25216
v 4.95540 99.97993 6.25676
v 6.80015 93.63106 10.23161
v 4.60394 92.13513 11.04218
v 6.80015 93.63106 10.23161
v 7.09773 91.46928 3.64867
v 4.12772 93.44157 -0.06298
v 6.63203 89.92549 7.63859
v 5.12964 89.34169 9.26035
v 6.63203 89.92549 7.63859
v 7.01500 85.97314 3.07690
v 3.99598 85.87199 -0.47444
v 6.38938 86.52397 7.35603
v 5.34745 86.81934 8.83208
v 6.38938 86.52397 7.35603
v 6.95975 81.41571 7.49763
v 4.79026 80.01328 2.82680
v 6.07771 83.76644 9.58520
v 4.67193 78.00311 5.77180
v 6.85532 79.82756 14.47340
v 4.60724 76.20668 12.21534
v 6.40740 82.59006 13.96906
v 4.04598 77.30966 17.56944
v 6.80321 82.70521 20.13093
v 4.02488 80.98541 23.17038
v 6.36090 84.47752 16.89653
v 6.77626 85.67416 21.18572
v 4.01177 85.63455 24.18502
v 6.33414 86.14529 17.51317
v 6.75864 88.78112 20.16874
v 4.00222 90.20859 22.76826
v 6.31780 87.24278 17.19377
v 6.74370 90.36964 18.08322
v 4.59852 92.45879 19.40150
v 6.30396 88.16106 16.32694
v 6.29046 88.73165 15.03330
v 6.72913 91.15331 15.26858
v 6.27587 88.22542 13.68559
v 6.71527 90.28494 11.68969
v 6.55165 68.30455 -0.86254
v 5.33302 66.79768 4.20390
v 8.22301 74.50317 12.09648
v 4.60724 76.20668 12.21534
v 4.60394 92.13513 11.04218
v 5.12964 89.34169 9.26035
v 5.34745 86.81934 8.83208
v 6.04246 84.40726 10.25408
v 6.70363 85.99217 11.18950
v 6.34471 86.76601 13.60568
v 6.07771 83.76644 9.58520
v 6.04246 84.40726 10.25408
v 4.26514 93.54910 15.38067
v 5.85021 83.41385 13.77261
v 6.56544 84.77338 13.57887
v 6.36594 86.16068 14.55053
v 6.30396 88.16106 16.32694
v 5.98657 87.71904 16.01359
v 5.99713 87.07584 16.57218
v 6.31780 87.24278 17.19377
v 6.29046 88.73165 15.03330
v 5.97624 88.25089 15.01122
v 6.27587 88.22542 13.68559
v 6.06667 87.89898 14.04211
v 6.34471 86.76601 13.60568
v 6.10394 86.91242 13.99144
v 6.36594 86.16068 14.55053
v 5.98657 87.71904 16.01359
v 6.67536 87.41763 14.80620
v 6.68348 86.43644 15.65034
v 5.99713 87.07584 16.57218
v 5.97624 88.25089 15.01122
v 6.06667 87.89898 14.04211
v 6.10394 86.91242 13.99144
v 5.99713 86.13976 16.88260
v 6.58672 85.45243 15.25081
v 5.87628 84.77010 16.22131
v 5.99713 86.13976 16.88260
v 5.87628 84.77010 16.22131
v 6.36090 84.47752 16.89653
v 6.33414 86.14529 17.51317
v 5.85021 83.41385 13.77261
v 6.40740 82.59006 13.96906
v 5.80389 40.71621 -6.97211
v 11.19943 41.96247 -6.51795
v 10.44613 43.60678 -7.97449
v 4.38958 42.90617 -8.38944
v 17.68909 50.61824 -2.61431
v 18.19146 56.16161 0.08610
v 16.67974 56.10862 -1.12036
v 16.14585 51.09829 -4.25384
v 13.88179 64.16243 1.86484
v 13.08759 63.37785 0.54342
v 14.88366 60.43911 0.87225
v 16.18973 60.81846 2.02110
v 5.33302 66.79768 4.20390
v 9.29107 66.31695 1.58624
v 6.55165 68.30455 -0.86254
v 4.08812 73.87589 -11.73749
v 4.95788 69.05714 -13.81371
v 9.29107 66.31695 1.58624
v 4.22024 64.50220 -22.24303
v 2.06227 65.59363 -24.01986
v 2.15210 65.26208 -24.88021
v 4.23628 64.24963 -23.02424
v 8.78891 64.18590 -12.58571
v 8.55875 63.35952 -12.44270
v 10.60720 63.35267 -7.37526
v 10.83726 64.18944 -7.31492
v 6.10971 63.32092 -19.24744
v 4.83565 62.91846 -19.32905
v 7.02711 62.92040 -12.38975
v 4.23628 64.24963 -23.02424
v 3.58615 63.61539 -23.28493
v 4.22024 64.50220 -22.24303
v 6.18867 64.32118 -19.01153
v 3.98268 65.91199 -19.18432
v 2.06227 65.59363 -24.01986
v 13.08759 63.37785 0.54342
v 13.88179 64.16243 1.86484
v 8.78891 64.18590 -12.58571
v 10.83726 64.18944 -7.31492
v 13.88179 64.16243 1.86484
v 5.33302 66.79768 4.20390
v 1.51180 64.56667 -25.02206
v 13.08759 63.37785 0.54342
v 11.34766 62.81248 0.19318
v 13.13463 60.18031 0.34387
v 14.88366 60.43911 0.87225
v 15.31864 46.20174 -4.70778
v 13.92541 47.44268 -6.15118
v 15.05693 55.99868 -1.63677
v 16.14585 51.09829 -4.25384
v 16.67974 56.10862 -1.12036
v 17.68909 50.61824 -2.61431
v 1.51180 64.56667 -25.02206
v 0.00008 63.67308 -22.84188
v 3.58615 63.61539 -23.28493
v 5.80389 40.71621 -6.97211
v 13.88179 64.16243 1.86484
v 9.07566 62.72005 -7.27140
v 6.18867 64.32118 -19.01153
v 4.22024 64.50220 -22.24303
v 11.34766 62.81248 0.19318
v 3.58615 63.61539 -23.28493
v 13.92541 47.44268 -6.15118
v 13.88179 64.16243 1.86484
v 0.00008 63.67308 -22.84188
v 4.83565 62.91846 -19.32905
v 3.58615 63.61539 -23.28493
vt 0.760085 0.967026
vt 0.705246 0.932087
vt 0.754769 0.911796
vt 0.660172 0.932233
vt 0.583478 0.944223
vt 0.591049 0.883292
vt 0.665777 0.884773
vt 0.684451 0.978530
vt 0.716595 0.876305
vt 0.091779 0.147042
vt 0.070965 0.079397
vt 0.137467 0.093954
vt 0.128499 0.032087
vt 0.052356 0.007610
vt 0.008050 0.064095
vt 0.020791 0.132864
vt 0.764880 0.991098
vt 0.593404 0.990637
vt 0.604649 0.819169
vt 0.653672 0.811639
vt 0.707254 0.815526
vt 0.874196 0.843226
vt 0.862539 0.891626
vt 0.833961 0.864321
vt 0.858217 0.814067
vt 0.795486 0.845586
vt 0.835840 0.804792
vt 0.924856 0.857877
vt 0.903325 0.917475
vt 0.761938 0.715254
vt 0.832717 0.734737
vt 0.815774 0.746394
vt 0.771416 0.746334
vt 0.779471 0.785888
vt 0.751514 0.819536
vt 0.719074 0.772900
vt 0.163151 0.886412
vt 0.322664 0.872921
vt 0.329490 0.899589
vt 0.166739 0.905528
vt 0.340930 0.940769
vt 0.162324 0.918522
vt 0.079760 0.902782
vt 0.017859 0.902903
vt 0.077378 0.888851
vt 0.077432 0.917477
vt 0.817542 0.788451
vt 0.517613 0.855199
vt 0.519375 0.901677
vt 0.507500 0.948711
vt 0.490480 0.984499
vt 0.316083 0.973839
vt 0.157871 0.862457
vt 0.320443 0.841868
vt 0.069820 0.874167
vt 0.697301 0.672571
vt 0.645454 0.688483
vt 0.658020 0.601676
vt 0.732525 0.629912
vt 0.686882 0.548334
vt 0.756635 0.575520
vt 0.689421 0.735568
vt 0.735884 0.697056
vt 0.499994 0.815968
vt 0.159099 0.951168
vt 0.066681 0.930967
vt 0.171667 0.887516
vt 0.335186 0.868763
vt 0.340358 0.899809
vt 0.177529 0.903622
vt 0.330421 0.934103
vt 0.170225 0.920300
vt 0.079730 0.902783
vt 0.017864 0.902903
vt 0.077387 0.888847
vt 0.077459 0.917457
vt 0.517613 0.855192
vt 0.519396 0.901675
vt 0.507500 0.948711
vt 0.490409 0.984499
vt 0.317818 0.960289
vt 0.157070 0.867470
vt 0.315486 0.844922
vt 0.069805 0.874164
vt 0.499982 0.816002
vt 0.159027 0.937205
vt 0.066683 0.930975
vt 0.806038 0.665973
vt 0.838894 0.612986
vt 0.768490 0.662498
vt 0.162213 0.887934
vt 0.323302 0.869451
vt 0.331002 0.901208
vt 0.171222 0.904855
vt 0.322181 0.934619
vt 0.164281 0.921529
vt 0.079697 0.902776
vt 0.017856 0.902896
vt 0.077343 0.888845
vt 0.077405 0.917475
vt 0.517613 0.855176
vt 0.519410 0.901677
vt 0.507500 0.948713
vt 0.490515 0.984499
vt 0.307472 0.956050
vt 0.150149 0.868638
vt 0.303472 0.847369
vt 0.069799 0.874166
vt 0.499973 0.816100
vt 0.152275 0.936049
vt 0.066678 0.930969
vt 0.888068 0.776848
vt 0.891414 0.804775
vt 0.860689 0.717457
vt 0.833658 0.909396
vt 0.848300 0.960982
vt 0.866133 0.977704
vt 0.981319 0.745658
vt 0.924938 0.819457
vt 0.908616 0.673962
vt 0.799245 0.205003
vt 0.768152 0.246196
vt 0.657740 0.141429
vt 0.704061 0.323515
vt 0.675159 0.363279
vt 0.611089 0.272482
vt 0.476250 0.228781
vt 0.476766 0.108550
vt 0.473003 0.311483
vt 0.580911 0.358331
vt 0.459509 0.369464
vt 0.473003 0.311483
vt 0.580911 0.358331
vt 0.544730 0.423080
vt 0.292779 0.120151
vt 0.260198 0.040499
vt 0.478853 0.013459
vt 0.332161 0.220342
vt 0.358789 0.294952
vt 0.372456 0.352756
vt 0.358789 0.294952
vt 0.154236 0.224837
vt 0.092336 0.169410
vt 0.220001 0.288419
vt 0.264506 0.341335
vt 0.298244 0.382508
vt 0.264506 0.341335
vt 0.086258 0.372916
vt 0.012623 0.355397
vt 0.155233 0.393501
vt 0.216020 0.419632
vt 0.254338 0.436807
vt 0.216020 0.419632
vt 0.090567 0.529292
vt 0.023349 0.546535
vt 0.147081 0.518084
vt 0.209260 0.512350
vt 0.246054 0.509942
vt 0.209260 0.512350
vt 0.143276 0.654639
vt 0.097591 0.690802
vt 0.185925 0.623980
vt 0.237257 0.591428
vt 0.265958 0.573661
vt 0.237257 0.591428
vt 0.252781 0.749526
vt 0.234543 0.796718
vt 0.274661 0.700895
vt 0.301422 0.647927
vt 0.318033 0.619536
vt 0.301422 0.647927
vt 0.389929 0.769419
vt 0.393861 0.815019
vt 0.387657 0.720348
vt 0.382409 0.665527
vt 0.380631 0.632273
vt 0.382409 0.665527
vt 0.513255 0.721832
vt 0.535573 0.764538
vt 0.487827 0.679642
vt 0.455714 0.633386
vt 0.433748 0.607636
vt 0.455714 0.633386
vt 0.598023 0.658583
vt 0.625338 0.691872
vt 0.549514 0.617897
vt 0.491427 0.583930
vt 0.460703 0.565992
vt 0.491427 0.583930
vt 0.496895 0.538333
vt 0.565379 0.538608
vt 0.464211 0.540881
vt 0.496895 0.538333
vt 0.448565 0.402565
vt 0.459509 0.369464
vt 0.544730 0.423080
vt 0.515771 0.453093
vt 0.435125 0.442630
vt 0.475590 0.479658
vt 0.376453 0.383814
vt 0.372456 0.352756
vt 0.380164 0.424371
vt 0.380033 0.448443
vt 0.380164 0.424371
vt 0.435125 0.442630
vt 0.422306 0.467671
vt 0.316444 0.406226
vt 0.298244 0.382508
vt 0.336994 0.437244
vt 0.348313 0.457972
vt 0.336994 0.437244
vt 0.276422 0.451237
vt 0.254338 0.436807
vt 0.301749 0.470664
vt 0.324709 0.481207
vt 0.301749 0.470664
vt 0.274550 0.508872
vt 0.246054 0.509942
vt 0.299264 0.509854
vt 0.319820 0.509263
vt 0.299264 0.509854
vt 0.286274 0.560508
vt 0.265958 0.573661
vt 0.309460 0.547188
vt 0.327100 0.536646
vt 0.309460 0.547188
vt 0.329349 0.594545
vt 0.318033 0.619536
vt 0.340508 0.573101
vt 0.348883 0.557669
vt 0.340508 0.573101
vt 0.378099 0.601837
vt 0.380631 0.632273
vt 0.374293 0.574812
vt 0.371665 0.560879
vt 0.374293 0.574812
vt 0.414646 0.585848
vt 0.433748 0.607636
vt 0.397239 0.564504
vt 0.389209 0.556117
vt 0.397239 0.564504
vt 0.430994 0.544665
vt 0.460703 0.565992
vt 0.407297 0.541714
vt 0.464211 0.540881
vt 0.416669 0.499337
vt 0.449863 0.494389
vt 0.401892 0.511801
vt 0.422306 0.467671
vt 0.380560 0.477313
vt 0.380033 0.448443
vt 0.381034 0.501127
vt 0.360702 0.480614
vt 0.348313 0.457972
vt 0.369007 0.502778
vt 0.345767 0.495232
vt 0.324709 0.481207
vt 0.363141 0.507732
vt 0.341839 0.511023
vt 0.319820 0.509263
vt 0.359827 0.515163
vt 0.360233 0.523775
vt 0.345930 0.528169
vt 0.367357 0.529967
vt 0.363011 0.545457
vt 0.595126 0.477579
vt 0.601580 0.535804
vt 0.449863 0.494389
vt 0.475590 0.479658
vt 0.348883 0.557669
vt 0.371665 0.560879
vt 0.389209 0.556117
vt 0.387815 0.538735
vt 0.400698 0.540211
vt 0.376472 0.527310
vt 0.400698 0.540211
vt 0.407297 0.541714
vt 0.327100 0.536646
vt 0.388295 0.522113
vt 0.396545 0.516540
vt 0.377597 0.520490
vt 0.359827 0.515163
vt 0.363141 0.507732
vt 0.366246 0.510694
vt 0.363712 0.515503
vt 0.360233 0.523775
vt 0.363458 0.522590
vt 0.367357 0.529967
vt 0.368255 0.527202
vt 0.376472 0.527310
vt 0.374445 0.525642
vt 0.377597 0.520490
vt 0.363712 0.515503
vt 0.366246 0.510694
vt 0.373272 0.514820
vt 0.369765 0.521211
vt 0.363458 0.522590
vt 0.368255 0.527202
vt 0.374445 0.525642
vt 0.371273 0.506487
vt 0.381419 0.506439
vt 0.379807 0.514670
vt 0.371273 0.506487
vt 0.369007 0.502778
vt 0.381034 0.501127
vt 0.381419 0.506439
vt 0.396545 0.516540
vt 0.401892 0.511801
vt 0.823217 0.163634
vt 0.847937 0.172264
vt 0.815280 0.214977
vt 0.799245 0.205003
vt 0.738181 0.282205
vt 0.756107 0.289988
vt 0.718106 0.331613
vt 0.704061 0.323515
vt 0.663760 0.402338
vt 0.675159 0.363279
vt 0.689161 0.372101
vt 0.680230 0.403217
vt 0.638681 0.453048
vt 0.595126 0.477579
vt 0.827820 0.305998
vt 0.875658 0.256802
vt 0.857630 0.503188
vt 0.786652 0.491033
vt 0.951700 0.589322
vt 0.965293 0.603828
vt 0.948840 0.646035
vt 0.935455 0.631896
vt 0.945405 0.474128
vt 0.939905 0.366014
vt 0.952236 0.366547
vt 0.957072 0.471577
vt 0.973063 0.540660
vt 0.985917 0.446151
vt 0.989809 0.547999
vt 0.965293 0.603828
vt 0.982403 0.612056
vt 0.951700 0.589322
vt 0.922863 0.571544
vt 0.957740 0.542041
vt 0.935455 0.631896
vt 0.945671 0.229393
vt 0.958448 0.251422
vt 0.824076 0.570806
vt 0.770158 0.541018
vt 0.884873 0.610845
vt 0.945405 0.474128
vt 0.939905 0.366014
vt 0.945671 0.229393
vt 0.836810 0.229625
vt 0.929383 0.677077
vt 0.917556 0.665194
vt 0.917556 0.665194
vt 0.961518 0.654863
vt 0.945995 0.680780
vt 0.570735 0.988809
vt 0.561700 0.940022
vt 0.583478 0.944223
vt 0.593404 0.990637
vt 0.768152 0.246196
vt 0.785459 0.256680
vt 0.591049 0.883292
vt 0.570595 0.878057
vt 0.604649 0.819169
vt 0.852959 0.113816
vt 0.874260 0.145191
vt 0.738181 0.282205
vt 0.991595 0.870119
vt 0.965451 0.941814
vt 0.961518 0.654863
vt 0.982403 0.612056
vt 0.977142 0.688310
vt 0.945995 0.680780
vt 0.823217 0.163634
vt 0.681363 0.049098
vt 0.852959 0.113816
vt 0.663760 0.402338
vt 0.974807 0.371095
vt 0.957740 0.542041
vt 0.951700 0.589322
vt 0.982717 0.263433
vt 0.982403 0.612056
vt 0.995415 0.816005
vt 0.617073 0.758183
vt 0.663760 0.402338
vt 0.977142 0.688310
vt 0.982403 0.612056
vt 0.989809 0.547999
vt 0.977142 0.688310
vt 0.936859 0.984394
vt 0.760085 0.967026
vt 0.754769 0.911796
vt 0.705246 0.932087
vt 0.660172 0.932233
vt 0.665777 0.884773
vt 0.591049 0.883292
vt 0.583478 0.944223
vt 0.684451 0.978530
vt 0.716595 0.876305
vt 0.091779 0.147042
vt 0.137467 0.093954
vt 0.070965 0.079397
vt 0.128499 0.032087
vt 0.052356 0.007610
vt 0.008050 0.064095
vt 0.020791 0.132864
vt 0.764880 0.991098
vt 0.593404 0.990637
vt 0.604649 0.819169
vt 0.653672 0.811639
vt 0.707254 0.815526
vt 0.874196 0.843226
vt 0.858217 0.814067
vt 0.833961 0.864321
vt 0.862539 0.891626
vt 0.835840 0.804792
vt 0.795486 0.845586
vt 0.903325 0.917475
vt 0.924856 0.857877
vt 0.761938 0.715254
vt 0.771416 0.746334
vt 0.815774 0.746394
vt 0.832717 0.734737
vt 0.779471 0.785888
vt 0.719074 0.772900
vt 0.751514 0.819536
vt 0.163151 0.886412
vt 0.166739 0.905528
vt 0.329490 0.899589
vt 0.322664 0.872921
vt 0.162324 0.918522
vt 0.340930 0.940769
vt 0.079760 0.902782
vt 0.077378 0.888851
vt 0.017859 0.902903
vt 0.077432 0.917477
vt 0.817542 0.788451
vt 0.517613 0.855199
vt 0.519375 0.901677
vt 0.507500 0.948711
vt 0.316083 0.973839
vt 0.490480 0.984499
vt 0.320443 0.841868
vt 0.157871 0.862457
vt 0.069820 0.874167
vt 0.697301 0.672571
vt 0.732525 0.629912
vt 0.658020 0.601676
vt 0.645454 0.688483
vt 0.735884 0.697056
vt 0.689421 0.735568
vt 0.499994 0.815968
vt 0.159099 0.951168
vt 0.066681 0.930967
vt 0.171667 0.887516
vt 0.177529 0.903622
vt 0.340358 0.899809
vt 0.335186 0.868763
vt 0.170225 0.920300
vt 0.330421 0.934103
vt 0.079730 0.902783
vt 0.077387 0.888847
vt 0.017864 0.902903
vt 0.077459 0.917457
vt 0.517613 0.855192
vt 0.519396 0.901675
vt 0.507500 0.948711
vt 0.317818 0.960289
vt 0.490409 0.984499
vt 0.315486 0.844922
vt 0.157070 0.867470
vt 0.069805 0.874164
vt 0.499982 0.816002
vt 0.159027 0.937205
vt 0.066683 0.930975
vt 0.806038 0.665973
vt 0.768490 0.662498
vt 0.162213 0.887934
vt 0.171222 0.904855
vt 0.331002 0.901208
vt 0.323302 0.869451
vt 0.164281 0.921529
vt 0.322181 0.934619
vt 0.079697 0.902776
vt 0.077343 0.888845
vt 0.017856 0.902896
vt 0.077405 0.917475
vt 0.517613 0.855176
vt 0.519410 0.901677
vt 0.507500 0.948713
vt 0.307472 0.956050
vt 0.490515 0.984499
vt 0.303472 0.847369
vt 0.150149 0.868638
vt 0.069799 0.874166
vt 0.499973 0.816100
vt 0.152275 0.936049
vt 0.066678 0.930969
vt 0.891414 0.804775
vt 0.888068 0.776848
vt 0.860689 0.717457
vt 0.848300 0.960982
vt 0.833658 0.909396
vt 0.866133 0.977704
vt 0.924938 0.819457
vt 0.799245 0.205003
vt 0.657740 0.141429
vt 0.768152 0.246196
vt 0.704061 0.323515
vt 0.611089 0.272482
vt 0.675159 0.363279
vt 0.476766 0.108550
vt 0.476250 0.228781
vt 0.473003 0.311483
vt 0.580911 0.358331
vt 0.459509 0.369464
vt 0.544730 0.423080
vt 0.580911 0.358331
vt 0.473003 0.311483
vt 0.292779 0.120151
vt 0.332161 0.220342
vt 0.358789 0.294952
vt 0.372456 0.352756
vt 0.358789 0.294952
vt 0.154236 0.224837
vt 0.220001 0.288419
vt 0.264506 0.341335
vt 0.298244 0.382508
vt 0.264506 0.341335
vt 0.086258 0.372916
vt 0.155233 0.393501
vt 0.216020 0.419632
vt 0.254338 0.436807
vt 0.216020 0.419632
vt 0.090567 0.529292
vt 0.147081 0.518084
vt 0.209260 0.512350
vt 0.246054 0.509942
vt 0.209260 0.512350
vt 0.143276 0.654639
vt 0.185925 0.623980
vt 0.237257 0.591428
vt 0.265958 0.573661
vt 0.237257 0.591428
vt 0.252781 0.749526
vt 0.274661 0.700895
vt 0.301422 0.647927
vt 0.318033 0.619536
vt 0.301422 0.647927
vt 0.389929 0.769419
vt 0.387657 0.720348
vt 0.382409 0.665527
vt 0.380631 0.632273
vt 0.382409 0.665527
vt 0.513255 0.721832
vt 0.487827 0.679642
vt 0.455714 0.633386
vt 0.433748 0.607636
vt 0.455714 0.633386
vt 0.598023 0.658583
vt 0.549514 0.617897
vt 0.491427 0.583930
vt 0.460703 0.565992
vt 0.491427 0.583930
vt 0.496895 0.538333
vt 0.565379 0.538608
vt 0.464211 0.540881
vt 0.496895 0.538333
vt 0.448565 0.402565
vt 0.515771 0.453093
vt 0.544730 0.423080
vt 0.459509 0.369464
vt 0.435125 0.442630
vt 0.475590 0.479658
vt 0.376453 0.383814
vt 0.372456 0.352756
vt 0.380164 0.424371
vt 0.380033 0.448443
vt 0.422306 0.467671
vt 0.435125 0.442630
vt 0.380164 0.424371
vt 0.316444 0.406226
vt 0.298244 0.382508
vt 0.336994 0.437244
vt 0.348313 0.457972
vt 0.336994 0.437244
vt 0.276422 0.451237
vt 0.254338 0.436807
vt 0.301749 0.470664
vt 0.324709 0.481207
vt 0.301749 0.470664
vt 0.274550 0.508872
vt 0.246054 0.509942
vt 0.299264 0.509854
vt 0.319820 0.509263
vt 0.299264 0.509854
vt 0.286274 0.560508
vt 0.265958 0.573661
vt 0.309460 0.547188
vt 0.327100 0.536646
vt 0.309460 0.547188
vt 0.329349 0.594545
vt 0.318033 0.619536
vt 0.340508 0.573101
vt 0.348883 0.557669
vt 0.340508 0.573101
vt 0.378099 0.601837
vt 0.380631 0.632273
vt 0.374293 0.574812
vt 0.371665 0.560879
vt 0.374293 0.574812
vt 0.414646 0.585848
vt 0.433748 0.607636
vt 0.397239 0.564504
vt 0.389209 0.556117
vt 0.397239 0.564504
vt 0.430994 0.544665
vt 0.460703 0.565992
vt 0.407297 0.541714
vt 0.464211 0.540881
vt 0.416669 0.499337
vt 0.449863 0.494389
vt 0.401892 0.511801
vt 0.422306 0.467671
vt 0.380560 0.477313
vt 0.380033 0.448443
vt 0.381034 0.501127
vt 0.360702 0.480614
vt 0.348313 0.457972
vt 0.369007 0.502778
vt 0.345767 0.495232
vt 0.324709 0.481207
vt 0.363141 0.507732
vt 0.341839 0.511023
vt 0.319820 0.509263
vt 0.359827 0.515163
vt 0.360233 0.523775
vt 0.345930 0.528169
vt 0.367357 0.529967
vt 0.363011 0.545457
vt 0.601580 0.535804
vt 0.595126 0.477579
vt 0.475590 0.479658
vt 0.449863 0.494389
vt 0.348883 0.557669
vt 0.371665 0.560879
vt 0.389209 0.556117
vt 0.400698 0.540211
vt 0.387815 0.538735
vt 0.376472 0.527310
vt 0.407297 0.541714
vt 0.400698 0.540211
vt 0.327100 0.536646
vt 0.396545 0.516540
vt 0.388295 0.522113
vt 0.377597 0.520490
vt 0.359827 0.515163
vt 0.363712 0.515503
vt 0.366246 0.510694
vt 0.363141 0.507732
vt 0.360233 0.523775
vt 0.363458 0.522590
vt 0.367357 0.529967
vt 0.368255 0.527202
vt 0.376472 0.527310
vt 0.374445 0.525642
vt 0.377597 0.520490
vt 0.363712 0.515503
vt 0.369765 0.521211
vt 0.373272 0.514820
vt 0.366246 0.510694
vt 0.363458 0.522590
vt 0.368255 0.527202
vt 0.374445 0.525642
vt 0.371273 0.506487
vt 0.379807 0.514670
vt 0.381419 0.506439
vt 0.371273 0.506487
vt 0.381419 0.506439
vt 0.381034 0.501127
vt 0.369007 0.502778
vt 0.396545 0.516540
vt 0.401892 0.511801
vt 0.823217 0.163634
vt 0.799245 0.205003
vt 0.815280 0.214977
vt 0.847937 0.172264
vt 0.738181 0.282205
vt 0.704061 0.323515
vt 0.718106 0.331613
vt 0.756107 0.289988
vt 0.663760 0.402338
vt 0.680230 0.403217
vt 0.689161 0.372101
vt 0.675159 0.363279
vt 0.595126 0.477579
vt 0.638681 0.453048
vt 0.827820 0.305998
vt 0.786652 0.491033
vt 0.857630 0.503188
vt 0.875658 0.256802
vt 0.952300 0.588861
vt 0.935797 0.631742
vt 0.948120 0.644032
vt 0.963840 0.603205
vt 0.945405 0.474128
vt 0.957072 0.471577
vt 0.952236 0.366547
vt 0.939905 0.366014
vt 0.973063 0.540660
vt 0.989809 0.547999
vt 0.985917 0.446151
vt 0.963840 0.603205
vt 0.983312 0.615192
vt 0.952300 0.588861
vt 0.957740 0.542041
vt 0.922863 0.571544
vt 0.935797 0.631742
vt 0.958448 0.251422
vt 0.945671 0.229393
vt 0.945405 0.474128
vt 0.939905 0.366014
vt 0.945671 0.229393
vt 0.836810 0.229625
vt 0.962030 0.656925
vt 0.570735 0.988809
vt 0.593404 0.990637
vt 0.583478 0.944223
vt 0.561700 0.940022
vt 0.768152 0.246196
vt 0.785459 0.256680
vt 0.591049 0.883292
vt 0.604649 0.819169
vt 0.570595 0.878057
vt 0.738181 0.282205
vt 0.962030 0.656925
vt 0.977080 0.688191
vt 0.983312 0.615192
vt 0.823217 0.163634
vt 0.663760 0.402338
vt 0.974807 0.371095
vt 0.957740 0.542041
vt 0.952300 0.588861
vt 0.982717 0.263433
vt 0.983312 0.615192
vt 0.617073 0.758183
vt 0.663760 0.402338
vt 0.977080 0.688191
vt 0.989809 0.547999
vt 0.983312 0.615192
vn -0.56240 0.82617 -0.03390
vn -0.71860 0.69225 -0.06639
vn -0.68773 0.72535 0.02999
vn -0.74581 0.61333 -0.25998
vn -0.78443 0.60365 -0.14241
vn -0.90764 0.41053 -0.08746
vn -0.86483 0.47456 -0.16388
vn -0.68183 0.70268 -0.20333
vn -0.90333 0.42895 -0.00128
vn -0.45487 0.88037 -0.13433
vn -0.83078 0.55520 -0.03952
vn -0.80263 0.51618 -0.29890
vn -0.98514 0.06472 -0.15909
vn -0.99478 0.06780 0.07620
vn -0.80235 0.55891 0.20939
vn -0.42820 0.89852 0.09647
vn -0.31105 0.94299 -0.11841
vn -0.80724 0.53358 -0.25231
vn -0.97571 0.03472 -0.21631
vn -0.98042 -0.14360 -0.13478
vn -0.99646 -0.01311 -0.08308
vn -0.27809 0.94588 -0.16723
vn -0.37204 0.92630 -0.05957
vn -0.79754 0.59773 -0.08158
vn -0.95570 -0.28182 -0.08491
vn -0.89494 0.43697 -0.09017
vn -0.67053 -0.05076 -0.74014
vn 0.24867 0.83641 -0.48845
vn -0.03687 0.96128 -0.27308
vn -0.45103 -0.75767 -0.47171
vn -0.00038 -0.62876 -0.77760
vn 0.33927 -0.44232 -0.83021
vn -0.38996 -0.82361 0.41182
vn -0.90260 0.29856 0.31013
vn -0.97506 0.19404 0.10775
vn -0.93150 -0.30741 0.19445
vn -0.12897 0.72980 -0.67139
vn 0.02655 0.64217 -0.76610
vn -0.77892 0.48954 0.39197
vn -0.77485 0.41969 0.47273
vn -0.18114 -0.68125 0.70928
vn -0.02687 -0.79249 0.60929
vn -0.84658 0.20573 0.49090
vn -0.78371 -0.37422 -0.49574
vn -0.22957 0.64331 -0.73037
vn -0.03555 -0.91876 0.39322
vn -0.57520 0.60817 -0.54705
vn -0.57520 0.60817 -0.54705
vn -0.90260 0.29856 0.31013
vn -0.38996 -0.82361 0.41182
vn 0.33927 -0.44232 -0.83021
vn 0.67530 -0.51039 -0.53242
vn 0.68112 -0.42469 -0.59642
vn 0.67530 -0.51039 -0.53242
vn 0.43485 -0.55893 -0.70604
vn -0.53527 -0.56166 0.63089
vn -0.68864 -0.70909 0.15151
vn 0.00331 -0.89455 0.44696
vn 0.67613 -0.71919 0.16003
vn 0.00000 -0.99223 0.12440
vn 0.00000 -0.99394 -0.10993
vn -0.88868 -0.45051 0.08540
vn -0.98526 -0.16670 0.03845
vn 0.33927 -0.44232 -0.83021
vn 0.68112 -0.42469 -0.59642
vn 0.43485 -0.55893 -0.70604
vn -0.91255 0.30202 -0.27576
vn -0.84298 0.29288 -0.45123
vn -0.48312 -0.07942 0.87194
vn -0.38906 -0.10635 0.91505
vn 0.72467 -0.44539 0.52582
vn 0.81871 -0.44579 0.36193
vn -0.29070 -0.33970 0.89448
vn -0.43739 -0.89327 -0.10374
vn -0.94224 0.17222 -0.28728
vn 0.78319 -0.61181 0.11089
vn -0.98526 -0.16670 0.03845
vn -0.53527 -0.56166 0.63089
vn 0.67613 -0.71919 0.16003
vn -0.00986 -0.20535 -0.97864
vn 0.45476 -0.08757 -0.88630
vn 0.32462 -0.01952 -0.94564
vn 0.45476 -0.08757 -0.88630
vn 0.19700 -0.22301 -0.95470
vn -0.00986 -0.20535 -0.97864
vn 0.32462 -0.01952 -0.94564
vn 0.19700 -0.22301 -0.95470
vn 0.10064 -0.69489 -0.71204
vn 0.00000 -0.79689 -0.60413
vn -0.00986 -0.20535 -0.97864
vn 0.90154 0.29562 -0.31597
vn 0.94180 0.00324 -0.33616
vn -0.20253 0.97884 -0.02920
vn -0.32456 0.94582 0.00943
vn -0.97936 -0.07562 0.18745
vn -0.94676 -0.26019 0.18961
vn -0.50374 0.85638 -0.11340
vn -0.26400 0.18104 -0.94738
vn 0.81305 0.36180 -0.45611
vn -0.90543 -0.42378 -0.02450
vn 0.62151 0.35578 -0.69796
vn -0.27809 0.94588 -0.16723
vn -0.95570 -0.28182 -0.08491
vn 0.32756 -0.89817 -0.29325
vn 0.11371 -0.99132 -0.06591
vn 0.25124 -0.96128 -0.11324
vn 0.11371 -0.99132 -0.06591
vn 0.22706 -0.89706 -0.37912
vn 0.32756 -0.89817 -0.29325
vn 0.25124 -0.96128 -0.11324
vn 0.22706 -0.89706 -0.37912
vn -0.07506 -0.65188 -0.75460
vn 0.32756 -0.89817 -0.29325
vn 0.05662 -0.62560 -0.77808
vn -0.39185 0.91557 -0.09050
vn -0.36375 0.87809 -0.31086
vn -0.54436 0.29041 -0.78697
vn -0.00000 -0.41071 -0.91177
vn 0.62151 0.35578 -0.69796
vn 0.00000 -0.62584 -0.77995
vn -0.49708 -0.86650 -0.04571
vn -0.80234 -0.59671 0.01378
vn -0.65217 -0.75453 0.07320
vn -0.97552 0.19840 -0.09483
vn -0.85172 0.52321 0.02861
vn -0.98404 0.17615 -0.02519
vn -0.99990 0.01238 -0.00669
vn -0.59234 -0.69797 0.40246
vn -0.80856 0.55806 -0.18656
vn -0.81812 0.57469 0.02005
vn -0.30729 0.89280 -0.32937
vn -0.34498 0.82762 -0.44276
vn -0.31274 0.94952 -0.02479
vn -0.25003 0.96672 0.05430
vn -0.60456 -0.38087 0.69960
vn -0.00000 -0.37821 0.92572
vn -0.00000 -0.82403 0.56655
vn -0.99857 -0.01672 0.05087
vn -0.84650 0.37941 -0.37347
vn -0.37927 0.60996 -0.69577
vn -0.38252 0.42972 -0.81794
vn -0.62233 0.07927 0.77873
vn 0.00000 0.20720 0.97830
vn -0.99667 0.02666 0.07700
vn -0.87882 0.07512 -0.47120
vn -0.37126 0.03522 -0.92786
vn -0.38075 -0.15860 -0.91098
vn -0.61930 0.48698 0.61588
vn -0.00000 0.68591 0.72769
vn -0.99306 0.09258 0.07254
vn -0.90516 -0.15631 -0.39528
vn -0.40265 -0.47124 -0.78473
vn -0.43831 -0.57829 -0.68809
vn -0.62703 0.72901 0.27456
vn -0.00000 0.95523 0.29588
vn -0.97767 0.20960 0.01523
vn -0.95096 -0.22727 -0.20983
vn -0.43224 -0.77773 -0.45639
vn -0.42026 -0.85147 -0.31365
vn -0.64357 0.76043 -0.08702
vn 0.00000 0.98269 -0.18524
vn -0.96586 0.24914 -0.07098
vn -0.98773 -0.12462 -0.09412
vn -0.40139 -0.91555 -0.02550
vn -0.38930 -0.91296 0.12227
vn -0.62097 0.65019 -0.43778
vn 0.00000 0.77370 -0.63356
vn -0.96727 0.20737 -0.14623
vn -0.99646 -0.08391 -0.00492
vn -0.39130 -0.83165 0.39401
vn -0.38534 -0.75490 0.53069
vn -0.60901 0.32361 -0.72414
vn 0.00000 0.29800 -0.95457
vn -0.96365 0.11803 -0.23969
vn -0.99612 -0.07290 0.04936
vn -0.37638 -0.48615 0.78867
vn -0.37784 -0.28713 0.88022
vn -0.56851 -0.09807 -0.81681
vn 0.00000 -0.19487 -0.98083
vn -0.95640 -0.02472 -0.29100
vn -0.99613 -0.02176 0.08520
vn -0.37259 0.11614 0.92070
vn -0.39334 0.29798 0.86977
vn -0.57458 -0.43581 -0.69276
vn 0.00000 -0.35021 -0.93667
vn -0.94018 -0.21581 -0.26360
vn -0.99646 -0.00008 0.08402
vn -0.35741 0.58994 0.72404
vn -0.36704 0.66590 0.64951
vn -0.99673 0.04934 0.06396
vn -0.88872 -0.43324 -0.14991
vn -0.38251 0.82537 0.41528
vn -0.39114 0.81392 0.42959
vn -0.96843 -0.23441 0.08482
vn -0.86402 -0.44895 0.22783
vn -0.76165 -0.64713 0.03330
vn -0.96412 -0.26517 0.01255
vn -0.99427 0.10687 0.00374
vn -0.99356 0.10341 0.04639
vn -0.97764 -0.12509 0.16903
vn -0.83401 -0.19368 0.51664
vn -0.99552 0.08115 -0.04848
vn -0.44038 0.60007 -0.66782
vn -0.45940 0.41449 -0.78559
vn -0.41007 0.84600 -0.34078
vn -0.40800 0.85191 -0.32832
vn -0.95916 0.02645 0.28162
vn -0.77947 0.10785 0.61709
vn -0.99586 0.03296 -0.08475
vn -0.47907 0.05818 -0.87585
vn -0.51403 -0.07796 -0.85422
vn -0.96969 0.12577 0.20947
vn -0.88012 0.30494 0.36387
vn -0.99491 -0.02575 -0.09746
vn -0.53894 -0.42647 -0.72641
vn -0.58850 -0.55680 -0.58621
vn -0.98536 0.15136 0.07850
vn -0.90561 0.40168 0.13609
vn -0.99251 -0.09350 -0.07857
vn -0.59616 -0.71175 -0.37148
vn -0.60750 -0.73585 -0.29912
vn -0.98449 0.17498 -0.01259
vn -0.86525 0.48733 -0.11772
vn -0.99242 -0.11892 -0.03102
vn -0.59040 -0.80559 -0.04965
vn -0.57753 -0.80769 0.11874
vn -0.97897 0.16994 -0.11289
vn -0.84397 0.39232 -0.36580
vn -0.99191 -0.11970 0.04221
vn -0.58657 -0.67259 0.45118
vn -0.65379 -0.53806 0.53203
vn -0.97267 0.09480 -0.21196
vn -0.80061 0.14230 -0.58204
vn -0.99219 -0.09441 0.08157
vn -0.68730 -0.28571 0.66782
vn -0.77180 -0.19096 0.60651
vn -0.96792 -0.05661 -0.24478
vn -0.80835 -0.21118 -0.54953
vn -0.99140 -0.03459 0.12621
vn -0.89417 0.09672 0.43715
vn -0.82224 0.10779 0.55884
vn -0.97621 -0.14238 -0.16353
vn -0.90101 -0.27415 -0.33618
vn -0.97656 0.17674 0.12288
vn -0.86366 -0.47640 -0.16472
vn -0.96543 -0.25925 0.02706
vn -0.83668 -0.54603 0.04260
vn -0.97591 0.21818 -0.00187
vn -0.77163 -0.56835 0.28558
vn -0.96526 -0.19309 0.17602
vn -0.77004 -0.30914 0.55810
vn -0.99030 0.11252 -0.08150
vn -0.95730 -0.02493 0.28803
vn -0.73380 0.09530 0.67265
vn -0.99312 0.02783 -0.11371
vn -0.95388 0.14140 0.26481
vn -0.73795 0.42662 0.52290
vn -0.99190 -0.04675 -0.11808
vn -0.95902 0.23645 0.15611
vn -0.73884 0.62205 0.25918
vn -0.98930 -0.11393 -0.09119
vn -0.98594 -0.16561 -0.02231
vn -0.95640 0.29010 0.03386
vn -0.99064 -0.08603 0.10602
vn -0.90790 0.34004 -0.24513
vn -0.72517 -0.68386 -0.08040
vn -0.79423 -0.56740 -0.21738
vn -0.41083 0.91138 -0.02459
vn -0.41764 0.90103 0.11709
vn -0.67016 0.62422 -0.40154
vn -0.79624 0.24528 -0.55303
vn -0.87310 0.04905 -0.48507
vn -0.98862 0.01324 -0.14984
vn -0.92342 -0.29515 -0.24530
vn -0.98786 0.10720 0.11241
vn -0.95211 0.30567 0.00753
vn -0.96986 0.21661 0.11162
vn -0.69255 0.71756 -0.07402
vn -0.96402 -0.26243 0.04235
vn -0.88690 -0.45635 0.07183
vn -0.98586 0.03276 -0.16432
vn -0.86676 -0.37706 -0.32643
vn -0.88957 -0.22181 -0.39934
vn -0.87877 -0.23300 -0.41650
vn -0.84629 -0.44025 -0.29995
vn -0.84799 -0.51997 -0.10273
vn -0.87323 -0.48537 0.04331
vn -0.89672 -0.30596 0.31981
vn -0.89579 -0.11445 0.42949
vn -0.86596 0.18164 0.46597
vn -0.85974 0.26751 0.43507
vn -0.80352 0.50927 0.30822
vn -0.82818 0.42692 0.36313
vn -0.85226 0.26228 0.45262
vn -0.96608 0.02512 0.25702
vn -0.95222 0.25979 -0.16056
vn -0.77221 0.63213 0.06409
vn -0.82449 0.38647 -0.41335
vn -0.82422 -0.01953 -0.56594
vn -0.87790 -0.05542 0.47563
vn -0.86335 -0.38324 0.32825
vn -0.98447 -0.15875 0.07498
vn -0.86883 0.07084 -0.49001
vn -0.88805 -0.02724 -0.45894
vn -0.84012 0.35737 -0.40802
vn -0.82253 0.37437 -0.42814
vn -0.81877 0.55682 -0.13985
vn -0.91101 0.40950 -0.04870
vn -0.20465 -0.49096 -0.84680
vn -0.17678 -0.37601 -0.90960
vn -0.41096 -0.41810 -0.81012
vn -0.43643 -0.47624 -0.76336
vn -0.69355 0.18835 -0.69535
vn -0.72839 0.06497 -0.68207
vn -0.58731 0.41574 -0.69443
vn -0.55930 0.41267 -0.71895
vn -0.62909 0.35380 -0.69215
vn -0.52128 0.46270 -0.71706
vn -0.58020 0.41266 -0.70220
vn -0.69386 0.35390 -0.62715
vn -0.30274 0.93891 0.16370
vn -0.24155 0.95150 0.19050
vn -0.70656 0.70347 0.07679
vn -0.52948 0.84809 -0.01954
vn -0.69732 0.61194 -0.37320
vn -0.57202 0.47952 -0.66547
vn -0.58720 0.77381 -0.23753
vn -0.71194 0.31540 -0.62743
vn -0.63389 0.35702 -0.68609
vn -0.46612 0.84051 -0.27618
vn -0.89083 -0.28007 -0.35775
vn -0.90620 -0.28514 -0.31223
vn -0.70637 -0.66142 -0.25211
vn -0.69566 -0.66222 -0.27843
vn -0.79216 -0.48165 -0.37483
vn -0.28178 -0.95303 -0.11106
vn -0.46127 -0.84311 -0.27639
vn -0.82034 -0.38679 -0.42123
vn -0.72336 -0.60384 -0.33486
vn -0.59234 0.74821 -0.29885
vn -0.48264 0.79205 -0.37378
vn -0.57780 0.77270 -0.26282
vn -0.39350 0.90237 -0.17576
vn -0.87215 -0.39372 -0.29041
vn -0.77932 -0.57500 -0.24906
vn -0.00000 0.68809 -0.72562
vn 0.00000 0.60447 -0.79663
vn 0.00000 0.95622 -0.29264
vn -0.65307 0.71951 -0.23626
vn -0.40682 0.90194 -0.14491
vn -0.42763 0.89317 -0.13920
vn -0.33259 0.87908 0.34146
vn -0.00000 0.54159 -0.84064
vn 0.00000 0.94675 -0.32197
vn 0.00000 0.99656 -0.08283
vn -0.43946 -0.16702 -0.88260
vn 0.00000 -0.04599 -0.99894
vn -0.22875 0.06399 -0.97138
vn -0.24040 0.27555 -0.93074
vn -0.22522 0.28308 -0.93228
vn -0.17694 0.06390 -0.98214
vn -0.67274 -0.15833 -0.72274
vn -0.65850 -0.12407 -0.74228
vn -0.23177 0.49957 -0.83469
vn -0.21778 0.49129 -0.84333
vn -0.23218 0.49785 -0.83561
vn 0.00000 -0.32512 -0.94567
vn 0.00000 -0.25347 -0.96734
vn -0.93059 -0.36574 -0.01546
vn -0.00000 0.76789 -0.64059
vn -0.00000 0.89436 -0.44734
vn 0.07101 -0.90472 -0.42005
vn 0.06614 -0.90634 -0.41734
vn -0.00000 -0.90701 -0.42111
vn 0.00000 -0.90568 -0.42396
vn -0.32786 -0.94385 -0.04056
vn -0.00000 -0.99044 0.13795
vn 0.00000 -1.00000 0.00000
vn -0.41714 0.90258 0.10651
vn -0.33739 -0.93198 -0.13262
vn -0.90683 -0.08394 -0.41306
vn -0.84252 0.38036 -0.38143
vn -0.34977 -0.93141 -0.10070
vn -0.54413 -0.28914 -0.78760
vn 0.00000 0.54902 -0.83581
vn -0.85312 -0.45841 -0.24909
vn -0.81920 0.56882 0.07315
vn 0.00000 -0.95389 -0.30016
vn 0.03593 -0.98607 -0.16238
vn -0.06903 -0.95161 -0.29945
vn 0.00000 -0.90106 -0.43369
vn -0.00000 0.76958 -0.63855
vn 0.56240 0.82617 -0.03390
vn 0.68773 0.72535 0.02999
vn 0.71860 0.69225 -0.06639
vn 0.74581 0.61333 -0.25998
vn 0.86483 0.47456 -0.16388
vn 0.90764 0.41053 -0.08746
vn 0.78443 0.60365 -0.14241
vn 0.68183 0.70268 -0.20333
vn 0.90333 0.42895 -0.00128
vn 0.45487 0.88037 -0.13433
vn 0.80263 0.51618 -0.29890
vn 0.83078 0.55520 -0.03952
vn 0.98514 0.06472 -0.15909
vn 0.99478 0.06780 0.07621
vn 0.80235 0.55891 0.20939
vn 0.42820 0.89852 0.09647
vn 0.31105 0.94299 -0.11840
vn 0.80724 0.53358 -0.25231
vn 0.97571 0.03472 -0.21631
vn 0.98042 -0.14360 -0.13478
vn 0.99646 -0.01311 -0.08308
vn 0.27809 0.94588 -0.16723
vn 0.95570 -0.28182 -0.08491
vn 0.79754 0.59773 -0.08158
vn 0.37204 0.92630 -0.05957
vn 0.67053 -0.05076 -0.74014
vn 0.89494 0.43697 -0.09017
vn 0.03687 0.96128 -0.27308
vn -0.24867 0.83641 -0.48845
vn 0.45103 -0.75767 -0.47171
vn 0.38997 -0.82361 0.41182
vn -0.33927 -0.44232 -0.83021
vn 0.00038 -0.62876 -0.77760
vn 0.90260 0.29856 0.31013
vn 0.93150 -0.30741 0.19445
vn 0.97506 0.19404 0.10775
vn 0.12897 0.72980 -0.67139
vn 0.77485 0.41969 0.47273
vn 0.77892 0.48954 0.39197
vn -0.02655 0.64217 -0.76610
vn 0.02687 -0.79249 0.60929
vn 0.18114 -0.68125 0.70928
vn 0.84658 0.20573 0.49090
vn 0.22957 0.64331 -0.73037
vn 0.78371 -0.37422 -0.49574
vn 0.03555 -0.91876 0.39322
vn 0.57520 0.60817 -0.54706
vn 0.57520 0.60817 -0.54706
vn 0.90260 0.29856 0.31013
vn 0.38997 -0.82361 0.41182
vn -0.67530 -0.51039 -0.53242
vn -0.33927 -0.44232 -0.83021
vn -0.67530 -0.51039 -0.53242
vn -0.68112 -0.42469 -0.59642
vn -0.43485 -0.55893 -0.70604
vn 0.53527 -0.56166 0.63089
vn -0.67613 -0.71919 0.16003
vn -0.00331 -0.89455 0.44696
vn 0.68864 -0.70909 0.15151
vn 0.98526 -0.16670 0.03845
vn 0.88868 -0.45051 0.08540
vn -0.33927 -0.44232 -0.83021
vn -0.68112 -0.42469 -0.59642
vn -0.43485 -0.55893 -0.70604
vn 0.91255 0.30202 -0.27576
vn 0.38906 -0.10635 0.91505
vn 0.48312 -0.07942 0.87194
vn 0.84298 0.29288 -0.45123
vn -0.81871 -0.44579 0.36193
vn -0.72467 -0.44539 0.52581
vn 0.29070 -0.33970 0.89448
vn 0.94224 0.17222 -0.28728
vn 0.43739 -0.89327 -0.10374
vn -0.78319 -0.61181 0.11089
vn 0.98526 -0.16670 0.03845
vn 0.53527 -0.56166 0.63089
vn -0.67613 -0.71919 0.16003
vn -0.45476 -0.08757 -0.88630
vn 0.00986 -0.20535 -0.97864
vn -0.45476 -0.08757 -0.88630
vn -0.32462 -0.01952 -0.94564
vn -0.19700 -0.22301 -0.95470
vn 0.00986 -0.20535 -0.97864
vn -0.32462 -0.01952 -0.94564
vn -0.19700 -0.22301 -0.95470
vn -0.10064 -0.69489 -0.71204
vn 0.00986 -0.20535 -0.97864
vn -0.90154 0.29562 -0.31597
vn 0.32456 0.94582 0.00943
vn 0.20253 0.97884 -0.02920
vn -0.94180 0.00324 -0.33616
vn 0.94676 -0.26019 0.18961
vn 0.97936 -0.07562 0.18745
vn 0.50374 0.85638 -0.11340
vn -0.81305 0.36180 -0.45611
vn 0.26400 0.18104 -0.94738
vn 0.90543 -0.42378 -0.02450
vn -0.62151 0.35578 -0.69796
vn 0.27809 0.94588 -0.16723
vn 0.95570 -0.28182 -0.08491
vn -0.11371 -0.99132 -0.06591
vn -0.32756 -0.89817 -0.29325
vn -0.11371 -0.99132 -0.06591
vn -0.25124 -0.96128 -0.11324
vn -0.22706 -0.89706 -0.37912
vn -0.32756 -0.89817 -0.29325
vn -0.25124 -0.96128 -0.11324
vn -0.22706 -0.89706 -0.37912
vn -0.32756 -0.89817 -0.29325
vn 0.07506 -0.65188 -0.75460
vn -0.05662 -0.62560 -0.77808
vn 0.36375 0.87809 -0.31086
vn 0.39185 0.91557 -0.09050
vn 0.54436 0.29042 -0.78697
vn -0.62151 0.35578 -0.69796
vn 0.49708 -0.86650 -0.04571
vn 0.65217 -0.75453 0.07320
vn 0.80234 -0.59671 0.01378
vn 0.97552 0.19840 -0.09483
vn 0.98404 0.17615 -0.02519
vn 0.85172 0.52321 0.02861
vn 0.59234 -0.69797 0.40246
vn 0.99990 0.01238 -0.00669
vn 0.80856 0.55806 -0.18656
vn 0.81812 0.57469 0.02005
vn 0.30729 0.89280 -0.32937
vn 0.25003 0.96672 0.05430
vn 0.31274 0.94952 -0.02479
vn 0.34498 0.82762 -0.44276
vn 0.60456 -0.38087 0.69960
vn 0.99857 -0.01672 0.05087
vn 0.84650 0.37941 -0.37347
vn 0.37927 0.60996 -0.69577
vn 0.38252 0.42972 -0.81794
vn 0.62233 0.07927 0.77873
vn 0.99667 0.02666 0.07700
vn 0.87882 0.07512 -0.47120
vn 0.37126 0.03522 -0.92786
vn 0.38075 -0.15860 -0.91098
vn 0.61930 0.48698 0.61588
vn 0.99306 0.09258 0.07254
vn 0.90516 -0.15631 -0.39528
vn 0.40265 -0.47124 -0.78473
vn 0.43831 -0.57829 -0.68809
vn 0.62703 0.72901 0.27456
vn 0.97767 0.20960 0.01523
vn 0.95096 -0.22727 -0.20983
vn 0.43224 -0.77773 -0.45639
vn 0.42026 -0.85147 -0.31365
vn 0.64357 0.76043 -0.08702
vn 0.96586 0.24914 -0.07098
vn 0.98773 -0.12462 -0.09412
vn 0.40139 -0.91555 -0.02550
vn 0.38930 -0.91296 0.12227
vn 0.62097 0.65019 -0.43778
vn 0.96727 0.20737 -0.14623
vn 0.99646 -0.08391 -0.00492
vn 0.39130 -0.83165 0.39401
vn 0.38534 -0.75490 0.53069
vn 0.60901 0.32361 -0.72414
vn 0.96365 0.11803 -0.23969
vn 0.99612 -0.07290 0.04936
vn 0.37638 -0.48615 0.78867
vn 0.37784 -0.28713 0.88022
vn 0.56851 -0.09807 -0.81681
vn 0.95640 -0.02472 -0.29100
vn 0.99613 -0.02176 0.08520
vn 0.37259 0.11614 0.92070
vn 0.39334 0.29798 0.86977
vn 0.57458 -0.43581 -0.69276
vn 0.94018 -0.21581 -0.26360
vn 0.99646 -0.00008 0.08402
vn 0.35741 0.58994 0.72404
vn 0.36704 0.66590 0.64951
vn 0.99673 0.04934 0.06396
vn 0.88872 -0.43324 -0.14991
vn 0.38251 0.82537 0.41528
vn 0.39114 0.81392 0.42959
vn 0.96843 -0.23441 0.08482
vn 0.96412 -0.26517 0.01255
vn 0.76165 -0.64713 0.03330
vn 0.86402 -0.44895 0.22783
vn 0.99427 0.10687 0.00374
vn 0.99356 0.10340 0.04639
vn 0.97764 -0.12509 0.16903
vn 0.83401 -0.19368 0.51664
vn 0.99552 0.08115 -0.04848
vn 0.44038 0.60007 -0.66782
vn 0.40800 0.85191 -0.32832
vn 0.41007 0.84600 -0.34078
vn 0.45940 0.41449 -0.78559
vn 0.95916 0.02645 0.28162
vn 0.77947 0.10785 0.61709
vn 0.99586 0.03296 -0.08475
vn 0.47907 0.05818 -0.87585
vn 0.51403 -0.07796 -0.85422
vn 0.96969 0.12577 0.20947
vn 0.88012 0.30494 0.36387
vn 0.99491 -0.02575 -0.09746
vn 0.53894 -0.42647 -0.72641
vn 0.58850 -0.55680 -0.58621
vn 0.98536 0.15136 0.07850
vn 0.90561 0.40168 0.13609
vn 0.99251 -0.09350 -0.07857
vn 0.59616 -0.71175 -0.37148
vn 0.60750 -0.73585 -0.29912
vn 0.98449 0.17498 -0.01259
vn 0.86525 0.48733 -0.11772
vn 0.99242 -0.11892 -0.03102
vn 0.59040 -0.80559 -0.04965
vn 0.57753 -0.80769 0.11874
vn 0.97897 0.16994 -0.11289
vn 0.84397 0.39232 -0.36580
vn 0.99191 -0.11970 0.04221
vn 0.58657 -0.67259 0.45118
vn 0.65379 -0.53806 0.53203
vn 0.97267 0.09480 -0.21196
vn 0.80061 0.14230 -0.58204
vn 0.99219 -0.09441 0.08157
vn 0.68730 -0.28571 0.66782
vn 0.77180 -0.19096 0.60651
vn 0.96792 -0.05661 -0.24478
vn 0.80835 -0.21118 -0.54953
vn 0.99140 -0.03459 0.12621
vn 0.89417 0.09672 0.43715
vn 0.82224 0.10779 0.55884
vn 0.97621 -0.14238 -0.16353
vn 0.90101 -0.27415 -0.33618
vn 0.97656 0.17674 0.12288
vn 0.86366 -0.47640 -0.16472
vn 0.96543 -0.25925 0.02706
vn 0.83668 -0.54603 0.04260
vn 0.97591 0.21818 -0.00187
vn 0.77163 -0.56835 0.28558
vn 0.96526 -0.19309 0.17602
vn 0.77004 -0.30914 0.55810
vn 0.99030 0.11252 -0.08150
vn 0.95730 -0.02493 0.28803
vn 0.73380 0.09530 0.67265
vn 0.99312 0.02783 -0.11371
vn 0.95388 0.14140 0.26481
vn 0.73795 0.42662 0.52290
vn 0.99190 -0.04675 -0.11808
vn 0.95902 0.23645 0.15611
vn 0.73884 0.62205 0.25918
vn 0.98930 -0.11393 -0.09119
vn 0.98594 -0.16561 -0.02231
vn 0.95640 0.29010 0.03386
vn 0.99064 -0.08603 0.10602
vn 0.90790 0.34004 -0.24513
vn 0.79423 -0.56740 -0.21739
vn 0.72517 -0.68386 -0.08040
vn 0.41764 0.90104 0.11709
vn 0.41083 0.91138 -0.02459
vn 0.67016 0.62422 -0.40154
vn 0.79624 0.24528 -0.55303
vn 0.87310 0.04905 -0.48507
vn 0.92342 -0.29515 -0.24530
vn 0.98862 0.01324 -0.14984
vn 0.98786 0.10720 0.11241
vn 0.96986 0.21661 0.11162
vn 0.95211 0.30567 0.00753
vn 0.69255 0.71756 -0.07402
vn 0.88690 -0.45635 0.07183
vn 0.96402 -0.26243 0.04235
vn 0.98586 0.03276 -0.16432
vn 0.86676 -0.37706 -0.32643
vn 0.84629 -0.44025 -0.29995
vn 0.87877 -0.23300 -0.41650
vn 0.88957 -0.22181 -0.39934
vn 0.84799 -0.51997 -0.10273
vn 0.87323 -0.48537 0.04331
vn 0.89672 -0.30596 0.31981
vn 0.89579 -0.11445 0.42949
vn 0.86596 0.18164 0.46597
vn 0.85974 0.26751 0.43507
vn 0.80352 0.50927 0.30822
vn 0.82818 0.42692 0.36313
vn 0.95222 0.25979 -0.16056
vn 0.96608 0.02512 0.25702
vn 0.85226 0.26228 0.45262
vn 0.77221 0.63213 0.06409
vn 0.82449 0.38647 -0.41335
vn 0.82422 -0.01953 -0.56594
vn 0.87790 -0.05542 0.47563
vn 0.98447 -0.15875 0.07498
vn 0.86335 -0.38324 0.32825
vn 0.86883 0.07084 -0.49001
vn 0.82253 0.37437 -0.42814
vn 0.84012 0.35737 -0.40802
vn 0.88805 -0.02724 -0.45894
vn 0.81877 0.55682 -0.13985
vn 0.91101 0.40950 -0.04870
vn 0.20465 -0.49096 -0.84680
vn 0.43643 -0.47624 -0.76336
vn 0.41096 -0.41810 -0.81012
vn 0.17678 -0.37601 -0.90960
vn 0.69355 0.18835 -0.69535
vn 0.55930 0.41267 -0.71895
vn 0.58731 0.41574 -0.69443
vn 0.72839 0.06497 -0.68207
vn 0.62909 0.35380 -0.69215
vn 0.69386 0.35390 -0.62715
vn 0.58020 0.41266 -0.70220
vn 0.52128 0.46270 -0.71706
vn 0.24155 0.95150 0.19050
vn 0.30274 0.93891 0.16370
vn 0.70656 0.70347 0.07679
vn 0.57202 0.47952 -0.66547
vn 0.69732 0.61194 -0.37320
vn 0.52948 0.84809 -0.01954
vn 0.58720 0.77381 -0.23753
vn 0.46612 0.84051 -0.27618
vn 0.63389 0.35702 -0.68609
vn 0.71194 0.31540 -0.62743
vn 0.89083 -0.28007 -0.35775
vn 0.69566 -0.66222 -0.27843
vn 0.70637 -0.66142 -0.25211
vn 0.90620 -0.28514 -0.31223
vn 0.79216 -0.48165 -0.37483
vn 0.46127 -0.84311 -0.27639
vn 0.28178 -0.95303 -0.11106
vn 0.82034 -0.38680 -0.42123
vn 0.72336 -0.60384 -0.33486
vn 0.59234 0.74821 -0.29885
vn 0.57780 0.77270 -0.26282
vn 0.48264 0.79205 -0.37378
vn 0.39350 0.90237 -0.17576
vn 0.77932 -0.57500 -0.24906
vn 0.87215 -0.39372 -0.29041
vn 0.65307 0.71951 -0.23626
vn 0.40682 0.90194 -0.14491
vn 0.42763 0.89317 -0.13920
vn 0.33259 0.87908 0.34146
vn 0.43946 -0.16702 -0.88260
vn 0.22875 0.06399 -0.97138
vn 0.17694 0.06390 -0.98215
vn 0.22522 0.28308 -0.93228
vn 0.24040 0.27555 -0.93074
vn 0.67274 -0.15833 -0.72274
vn 0.65850 -0.12407 -0.74228
vn 0.23177 0.49957 -0.83469
vn 0.23218 0.49785 -0.83561
vn 0.21778 0.49129 -0.84333
vn 0.93059 -0.36574 -0.01546
vn -0.07101 -0.90472 -0.42005
vn -0.00000 -0.90701 -0.42111
vn -0.06614 -0.90634 -0.41734
vn 0.32786 -0.94385 -0.04056
vn 0.41714 0.90258 0.10651
vn 0.33739 -0.93198 -0.13262
vn 0.90683 -0.08394 -0.41306
vn 0.84252 0.38036 -0.38143
vn 0.34977 -0.93141 -0.10070
vn 0.54413 -0.28914 -0.78760
vn 0.85312 -0.45841 -0.24909
vn 0.81920 0.56882 0.07315
vn 0.00000 -0.95389 -0.30016
vn 0.06903 -0.95161 -0.29945
vn -0.03593 -0.98607 -0.16238
f 132/132/132 131/131/131 140/140/140
f 133/133/133 134/134/134 131/131/131
f 131/131/131 132/132/132 133/133/133
f 140/140/140 141/141/141 132/132/132
f 141/141/141 140/140/140 146/146/146
f 146/146/146 147/147/147 141/141/141
f 147/147/147 146/146/146 152/152/152
f 152/152/152 153/153/153 147/147/147
f 153/153/153 152/152/152 158/158/158
f 158/158/158 159/159/159 153/153/153
f 159/159/159 158/158/158 164/164/164
f 164/164/164 165/165/165 159/159/159
f 165/165/165 164/164/164 170/170/170
f 525/525/525 518/518/518 521/521/521
f 520/520/520 521/521/521 518/518/518
f 518/518/518 519/519/519 520/520/520
f 530/530/530 525/525/525 526/526/526
f 521/521/521 526/526/526 525/525/525
f 535/535/535 530/530/530 531/531/531
f 526/526/526 531/531/531 530/530/530
f 540/540/540 535/535/535 536/536/536
f 531/531/531 536/536/536 535/535/535
f 545/545/545 540/540/540 541/541/541
f 536/536/536 541/541/541 540/540/540
f 550/550/550 545/545/545 546/546/546
f 541/541/541 546/546/546 545/545/545
f 321/321/321 322/322/322 134/134/134
f 134/134/134 133/133/133 321/321/321
f 133/133/133 379/379/379 321/321/321
f 699/699/699 520/520/520 519/519/519
f 519/519/519 698/698/698 699/699/699
f 520/520/520 699/699/699 742/742/742
f 17/17/17 1/1/1 116/116/116
f 116/116/116 1/1/1 3/3/3
f 17/17/17 8/8/8 1/1/1
f 8/8/8 2/2/2 1/1/1
f 1/1/1 2/2/2 3/3/3
f 116/116/116 117/117/117 17/17/17
f 117/117/117 116/116/116 392/392/392
f 392/392/392 116/116/116 29/29/29
f 29/29/29 116/116/116 115/115/115
f 3/3/3 115/115/115 116/116/116
f 24/24/24 115/115/115 3/3/3
f 3/3/3 26/26/26 24/24/24
f 26/26/26 3/3/3 9/9/9
f 216/216/216 215/215/215 220/220/220
f 220/220/220 221/221/221 216/216/216
f 221/221/221 220/220/220 225/225/225
f 225/225/225 226/226/226 221/221/221
f 226/226/226 225/225/225 230/230/230
f 230/230/230 231/231/231 226/226/226
f 231/231/231 230/230/230 235/235/235
f 235/235/235 236/236/236 231/231/231
f 236/236/236 235/235/235 240/240/240
f 240/240/240 241/241/241 236/236/236
f 277/277/277 241/241/241 240/240/240
f 240/240/240 276/276/276 277/277/277
f 308/308/308 277/277/277 276/276/276
f 276/276/276 307/307/307 308/308/308
f 305/305/305 308/308/308 307/307/307
f 307/307/307 306/306/306 305/305/305
f 305/305/305 306/306/306 303/303/303
f 303/303/303 304/304/304 305/305/305
f 304/304/304 303/303/303 284/284/284
f 284/284/284 283/283/283 304/304/304
f 284/284/284 285/285/285 282/282/282
f 282/282/282 283/283/283 284/284/284
f 285/285/285 287/287/287 286/286/286
f 286/286/286 282/282/282 285/285/285
f 287/287/287 289/289/289 288/288/288
f 288/288/288 286/286/286 287/287/287
f 289/289/289 291/291/291 290/290/290
f 290/290/290 288/288/288 289/289/289
f 290/290/290 291/291/291 292/292/292
f 593/593/593 598/598/598 597/597/597
f 597/597/597 592/592/592 593/593/593
f 598/598/598 603/603/603 602/602/602
f 602/602/602 597/597/597 598/598/598
f 603/603/603 608/608/608 607/607/607
f 607/607/607 602/602/602 603/603/603
f 608/608/608 613/613/613 612/612/612
f 612/612/612 607/607/607 608/608/608
f 613/613/613 618/618/618 617/617/617
f 617/617/617 612/612/612 613/613/613
f 617/617/617 618/618/618 653/653/653
f 653/653/653 654/654/654 617/617/617
f 654/654/654 653/653/653 685/685/685
f 685/685/685 684/684/684 654/654/654
f 684/684/684 685/685/685 682/682/682
f 682/682/682 681/681/681 684/684/684
f 682/682/682 683/683/683 680/680/680
f 680/680/680 681/681/681 682/682/682
f 683/683/683 662/662/662 661/661/661
f 661/661/661 680/680/680 683/683/683
f 661/661/661 662/662/662 659/659/659
f 659/659/659 660/660/660 661/661/661
f 660/660/660 659/659/659 663/663/663
f 663/663/663 664/664/664 660/660/660
f 664/664/664 663/663/663 665/665/665
f 665/665/665 666/666/666 664/664/664
f 666/666/666 665/665/665 667/667/667
f 667/667/667 668/668/668 666/666/666
f 667/667/667 669/669/669 668/668/668
f 346/346/346 702/702/702 701/701/701
f 341/341/341 348/348/348 346/346/346
f 348/348/348 341/341/341 343/343/343
f 349/349/349 342/342/342 341/341/341
f 340/340/340 343/343/343 341/341/341
f 340/340/340 341/341/341 342/342/342
f 720/720/720 719/719/719 348/348/348
f 348/348/348 355/355/355 720/720/720
f 343/343/343 355/355/355 348/348/348
f 717/717/717 719/719/719 720/720/720
f 717/717/717 718/718/718 719/719/719
f 719/719/719 718/718/718 723/723/723
f 723/723/723 702/702/702 719/719/719
f 703/703/703 702/702/702 723/723/723
f 723/723/723 724/724/724 703/703/703
f 703/703/703 726/726/726 700/700/700
f 703/703/703 724/724/724 725/725/725
f 702/702/702 703/703/703 700/700/700
f 700/700/700 701/701/701 702/702/702
f 408/408/408 402/402/402 404/404/404
f 402/402/402 403/403/403 404/404/404
f 407/407/407 408/408/408 404/404/404
f 404/404/404 403/403/403 405/405/405
f 406/406/406 407/407/407 404/404/404
f 405/405/405 406/406/406 404/404/404
f 16/16/16 11/11/11 10/10/10
f 10/10/10 11/11/11 12/12/12
f 15/15/15 11/11/11 16/16/16
f 11/11/11 13/13/13 12/12/12
f 14/14/14 11/11/11 15/15/15
f 13/13/13 11/11/11 14/14/14
f 428/428/428 413/413/413 401/401/401
f 397/397/397 395/395/395 401/401/401
f 412/412/412 397/397/397 401/401/401
f 401/401/401 413/413/413 412/412/412
f 395/395/395 394/394/394 401/401/401
f 394/394/394 505/505/505 416/416/416
f 504/504/504 505/505/505 394/394/394
f 394/394/394 393/393/393 504/504/504
f 393/393/393 394/394/394 395/395/395
f 396/396/396 400/400/400 395/395/395
f 397/397/397 396/396/396 395/395/395
f 400/400/400 393/393/393 395/395/395
f 397/397/397 412/412/412 411/411/411
f 411/411/411 398/398/398 397/397/397
f 396/396/396 397/397/397 398/398/398
f 400/400/400 396/396/396 399/399/399
f 398/398/398 399/399/399 396/396/396
f 399/399/399 410/410/410 400/400/400
f 409/409/409 393/393/393 400/400/400
f 504/504/504 393/393/393 409/409/409
f 409/409/409 506/506/506 504/504/504
f 506/506/506 392/392/392 504/504/504
f 392/392/392 371/371/371 420/420/420
f 420/420/420 504/504/504 392/392/392
f 29/29/29 371/371/371 392/392/392
f 420/420/420 371/371/371 370/370/370
f 370/370/370 371/371/371 29/29/29
f 29/29/29 28/28/28 370/370/370
f 115/115/115 23/23/23 29/29/29
f 29/29/29 23/23/23 22/22/22
f 22/22/22 28/28/28 29/29/29
f 421/421/421 370/370/370 385/385/385
f 370/370/370 421/421/421 420/420/420
f 385/385/385 370/370/370 28/28/28
f 28/28/28 119/119/119 385/385/385
f 22/22/22 119/119/119 28/28/28
f 24/24/24 25/25/25 22/22/22
f 22/22/22 23/23/23 24/24/24
f 24/24/24 23/23/23 115/115/115
f 118/118/118 385/385/385 119/119/119
f 118/118/118 507/507/507 385/385/385
f 264/264/264 275/275/275 273/273/273
f 273/273/273 265/265/265 264/264/264
f 265/265/265 270/270/270 278/278/278
f 271/271/271 265/265/265 273/273/273
f 270/270/270 265/265/265 271/271/271
f 281/281/281 279/279/279 273/273/273
f 273/273/273 275/275/275 281/281/281
f 274/274/274 273/273/273 279/279/279
f 273/273/273 272/272/272 271/271/271
f 272/272/272 273/273/273 274/274/274
f 302/302/302 279/279/279 281/281/281
f 295/295/295 302/302/302 281/281/281
f 296/296/296 295/295/295 281/281/281
f 281/281/281 299/299/299 296/296/296
f 279/279/279 302/302/302 301/301/301
f 301/301/301 280/280/280 279/279/279
f 279/279/279 280/280/280 274/274/274
f 301/301/301 302/302/302 295/295/295
f 7/7/7 6/6/6 19/19/19
f 6/6/6 7/7/7 4/4/4
f 4/4/4 5/5/5 6/6/6
f 5/5/5 4/4/4 8/8/8
f 8/8/8 18/18/18 5/5/5
f 106/106/106 91/91/91 99/99/99
f 107/107/107 92/92/92 91/91/91
f 91/91/91 106/106/106 107/107/107
f 99/99/99 91/91/91 94/94/94
f 93/93/93 94/94/94 91/91/91
f 91/91/91 92/92/92 93/93/93
f 99/99/99 108/108/108 106/106/106
f 99/99/99 98/98/98 108/108/108
f 94/94/94 97/97/97 99/99/99
f 97/97/97 98/98/98 99/99/99
f 97/97/97 94/94/94 96/96/96
f 95/95/95 96/96/96 94/94/94
f 94/94/94 93/93/93 95/95/95
f 487/487/487 480/480/480 496/496/496
f 495/495/495 496/496/496 480/480/480
f 480/480/480 483/483/483 495/495/495
f 481/481/481 480/480/480 487/487/487
f 482/482/482 483/483/483 480/480/480
f 480/480/480 481/481/481 482/482/482
f 487/487/487 497/497/497 488/488/488
f 496/496/496 497/497/497 487/487/487
f 487/487/487 486/486/486 481/481/481
f 486/486/486 487/487/487 488/488/488
f 484/484/484 481/481/481 486/486/486
f 485/485/485 482/482/482 481/481/481
f 481/481/481 484/484/484 485/485/485
f 227/227/227 228/228/228 223/223/223
f 227/227/227 229/229/229 234/234/234
f 234/234/234 232/232/232 227/227/227
f 228/228/228 227/227/227 232/232/232
f 232/232/232 233/233/233 228/228/228
f 232/232/232 234/234/234 239/239/239
f 239/239/239 237/237/237 232/232/232
f 233/233/233 232/232/232 237/237/237
f 237/237/237 238/238/238 233/233/233
f 244/244/244 242/242/242 237/237/237
f 237/237/237 239/239/239 244/244/244
f 238/238/238 237/237/237 242/242/242
f 242/242/242 243/243/243 238/238/238
f 248/248/248 246/246/246 242/242/242
f 242/242/242 244/244/244 248/248/248
f 245/245/245 242/242/242 246/246/246
f 243/243/243 242/242/242 245/245/245
f 246/246/246 248/248/248 252/252/252
f 252/252/252 250/250/250 246/246/246
f 249/249/249 246/246/246 250/250/250
f 247/247/247 246/246/246 249/249/249
f 246/246/246 247/247/247 245/245/245
f 250/250/250 252/252/252 255/255/255
f 255/255/255 253/253/253 250/250/250
f 251/251/251 250/250/250 253/253/253
f 250/250/250 251/251/251 249/249/249
f 253/253/253 255/255/255 258/258/258
f 258/258/258 256/256/256 253/253/253
f 254/254/254 253/253/253 256/256/256
f 253/253/253 254/254/254 251/251/251
f 256/256/256 258/258/258 261/261/261
f 261/261/261 259/259/259 256/256/256
f 257/257/257 256/256/256 259/259/259
f 256/256/256 257/257/257 254/254/254
f 259/259/259 261/261/261 262/262/262
f 260/260/260 259/259/259 263/263/263
f 262/262/262 263/263/263 259/259/259
f 259/259/259 260/260/260 257/257/257
f 263/263/263 262/262/262 264/264/264
f 263/263/263 278/278/278 260/260/260
f 278/278/278 263/263/263 265/265/265
f 264/264/264 265/265/265 263/263/263
f 609/609/609 604/604/604 605/605/605
f 605/605/605 610/610/610 609/609/609
f 609/609/609 614/614/614 616/616/616
f 616/616/616 611/611/611 609/609/609
f 614/614/614 609/609/609 610/610/610
f 610/610/610 615/615/615 614/614/614
f 621/621/621 616/616/616 614/614/614
f 614/614/614 619/619/619 621/621/621
f 619/619/619 614/614/614 615/615/615
f 615/615/615 620/620/620 619/619/619
f 625/625/625 621/621/621 619/619/619
f 619/619/619 623/623/623 625/625/625
f 623/623/623 619/619/619 622/622/622
f 620/620/620 622/622/622 619/619/619
f 629/629/629 625/625/625 623/623/623
f 623/623/623 627/627/627 629/629/629
f 627/627/627 623/623/623 626/626/626
f 624/624/624 626/626/626 623/623/623
f 622/622/622 624/624/624 623/623/623
f 632/632/632 629/629/629 627/627/627
f 627/627/627 630/630/630 632/632/632
f 630/630/630 627/627/627 628/628/628
f 626/626/626 628/628/628 627/627/627
f 635/635/635 632/632/632 630/630/630
f 630/630/630 633/633/633 635/635/635
f 633/633/633 630/630/630 631/631/631
f 628/628/628 631/631/631 630/630/630
f 638/638/638 635/635/635 633/633/633
f 633/633/633 636/636/636 638/638/638
f 636/636/636 633/633/633 634/634/634
f 631/631/631 634/634/634 633/633/633
f 639/639/639 638/638/638 636/636/636
f 640/640/640 636/636/636 637/637/637
f 636/636/636 640/640/640 639/639/639
f 634/634/634 637/637/637 636/636/636
f 641/641/641 639/639/639 640/640/640
f 637/637/637 655/655/655 640/640/640
f 642/642/642 640/640/640 655/655/655
f 640/640/640 642/642/642 641/641/641
f 641/641/641 642/642/642 651/651/651
f 651/651/651 652/652/652 641/641/641
f 655/655/655 647/647/647 642/642/642
f 651/651/651 642/642/642 648/648/648
f 647/647/647 648/648/648 642/642/642
f 658/658/658 652/652/652 651/651/651
f 651/651/651 657/657/657 658/658/658
f 657/657/657 651/651/651 650/650/650
f 648/648/648 649/649/649 651/651/651
f 649/649/649 650/650/650 651/651/651
f 678/678/678 658/658/658 657/657/657
f 672/672/672 658/658/658 678/678/678
f 671/671/671 676/676/676 658/658/658
f 658/658/658 672/672/672 671/671/671
f 657/657/657 656/656/656 679/679/679
f 679/679/679 678/678/678 657/657/657
f 650/650/650 656/656/656 657/657/657
f 672/672/672 678/678/678 679/679/679
f 679/679/679 677/677/677 672/672/672
f 673/673/673 672/672/672 677/677/677
f 672/672/672 673/673/673 670/670/670
f 670/670/670 671/671/671 672/672/672
f 676/676/676 671/671/671 675/675/675
f 675/675/675 671/671/671 674/674/674
f 674/674/674 671/671/671 670/670/670
f 82/82/82 67/67/67 75/75/75
f 83/83/83 68/68/68 67/67/67
f 67/67/67 82/82/82 83/83/83
f 75/75/75 67/67/67 70/70/70
f 69/69/69 70/70/70 67/67/67
f 67/67/67 68/68/68 69/69/69
f 75/75/75 84/84/84 82/82/82
f 75/75/75 74/74/74 84/84/84
f 70/70/70 73/73/73 75/75/75
f 73/73/73 74/74/74 75/75/75
f 73/73/73 70/70/70 72/72/72
f 71/71/71 72/72/72 70/70/70
f 70/70/70 69/69/69 71/71/71
f 464/464/464 457/457/457 473/473/473
f 472/472/472 473/473/473 457/457/457
f 457/457/457 460/460/460 472/472/472
f 458/458/458 457/457/457 464/464/464
f 459/459/459 460/460/460 457/457/457
f 457/457/457 458/458/458 459/459/459
f 464/464/464 474/474/474 465/465/465
f 473/473/473 474/474/474 464/464/464
f 464/464/464 463/463/463 458/458/458
f 463/463/463 464/464/464 465/465/465
f 461/461/461 458/458/458 463/463/463
f 462/462/462 459/459/459 458/458/458
f 458/458/458 461/461/461 462/462/462
f 690/690/690 691/691/691 692/692/692
f 692/692/692 691/691/691 697/697/697
f 697/697/697 696/696/696 692/692/692
f 696/696/696 697/697/697 694/694/694
f 694/694/694 695/695/695 696/696/696
f 362/362/362 312/312/312 311/311/311
f 311/311/311 363/363/363 362/362/362
f 314/314/314 313/313/313 362/362/362
f 362/362/362 363/363/363 314/314/314
f 315/315/315 316/316/316 313/313/313
f 313/313/313 314/314/314 315/315/315
f 315/315/315 319/319/319 318/318/318
f 318/318/318 316/316/316 315/315/315
f 319/319/319 320/320/320 317/317/317
f 317/317/317 318/318/318 319/319/319
f 324/324/324 323/323/323 352/352/352
f 325/325/325 326/326/326 323/323/323
f 323/323/323 324/324/324 325/325/325
f 324/324/324 351/351/351 350/350/350
f 324/324/324 350/350/350 349/349/349
f 349/349/349 325/325/325 324/324/324
f 341/341/341 325/325/325 349/349/349
f 346/346/346 325/325/325 341/341/341
f 326/326/326 325/325/325 346/346/346
f 346/346/346 347/347/347 326/326/326
f 719/719/719 702/702/702 346/346/346
f 346/346/346 348/348/348 719/719/719
f 701/701/701 347/347/347 346/346/346
f 562/562/562 643/643/643 568/568/568
f 557/557/557 562/562/562 563/563/563
f 572/572/572 568/568/568 644/644/644
f 567/567/567 568/568/568 572/572/572
f 568/568/568 643/643/643 644/644/644
f 563/563/563 568/568/568 567/567/567
f 567/567/567 564/564/564 563/563/563
f 558/558/558 563/563/563 564/564/564
f 563/563/563 558/558/558 557/557/557
f 572/572/572 576/576/576 567/567/567
f 644/644/644 573/573/573 572/572/572
f 572/572/572 571/571/571 575/575/575
f 575/575/575 576/576/576 572/572/572
f 571/571/571 572/572/572 573/573/573
f 573/573/573 574/574/574 571/571/571
f 571/571/571 577/577/577 579/579/579
f 191/191/191 266/266/266 267/267/267
f 266/266/266 191/191/191 197/197/197
f 197/197/197 191/191/191 190/190/190
f 197/197/197 196/196/196 266/266/266
f 190/190/190 199/199/199 197/197/197
f 197/197/197 199/199/199 198/198/198
f 198/198/198 194/194/194 197/197/197
f 196/196/196 197/197/197 194/194/194
f 194/194/194 195/195/195 196/196/196
f 194/194/194 198/198/198 202/202/202
f 202/202/202 200/200/200 194/194/194
f 195/195/195 194/194/194 200/200/200
f 200/200/200 201/201/201 195/195/195
f 385/385/385 507/507/507 421/421/421
f 414/414/414 421/421/421 507/507/507
f 420/420/420 421/421/421 414/414/414
f 507/507/507 118/118/118 502/502/502
f 502/502/502 501/501/501 507/507/507
f 415/415/415 501/501/501 502/502/502
f 414/414/414 415/415/415 416/416/416
f 414/414/414 417/417/417 420/420/420
f 416/416/416 417/417/417 414/414/414
f 420/420/420 417/417/417 505/505/505
f 505/505/505 504/504/504 420/420/420
f 416/416/416 505/505/505 417/417/417
f 730/730/730 731/731/731 728/728/728
f 728/728/728 729/729/729 730/730/730
f 730/730/730 734/734/734 736/736/736
f 736/736/736 731/731/731 730/730/730
f 734/734/734 735/735/735 736/736/736
f 360/360/360 361/361/361 358/358/358
f 358/358/358 359/359/359 360/360/360
f 360/360/360 359/359/359 365/365/365
f 365/365/365 364/364/364 360/360/360
f 364/364/364 365/365/365 366/366/366
f 126/126/126 130/130/130 129/129/129
f 130/130/130 126/126/126 125/125/125
f 369/369/369 124/124/124 126/126/126
f 124/124/124 125/125/125 126/126/126
f 125/125/125 387/387/387 130/130/130
f 2/2/2 9/9/9 3/3/3
f 7/7/7 9/9/9 2/2/2
f 4/4/4 2/2/2 8/8/8
f 7/7/7 2/2/2 4/4/4
f 35/35/35 9/9/9 21/21/21
f 9/9/9 35/35/35 26/26/26
f 20/20/20 21/21/21 9/9/9
f 9/9/9 7/7/7 20/20/20
f 26/26/26 35/35/35 34/34/34
f 34/34/34 47/47/47 26/26/26
f 27/27/27 26/26/26 47/47/47
f 24/24/24 26/26/26 27/27/27
f 35/35/35 21/21/21 36/36/36
f 34/34/34 35/35/35 36/36/36
f 36/36/36 21/21/21 20/20/20
f 20/20/20 62/62/62 36/36/36
f 63/63/63 30/30/30 36/36/36
f 36/36/36 62/62/62 63/63/63
f 33/33/33 36/36/36 30/30/30
f 579/579/579 575/575/575 571/571/571
f 577/577/577 571/571/571 574/574/574
f 574/574/574 578/578/578 577/577/577
f 577/577/577 584/584/584 586/586/586
f 586/586/586 579/579/579 577/577/577
f 584/584/584 577/577/577 578/578/578
f 578/578/578 585/585/585 584/584/584
f 584/584/584 589/589/589 591/591/591
f 591/591/591 586/586/586 584/584/584
f 589/589/589 584/584/584 585/585/585
f 585/585/585 590/590/590 589/589/589
f 589/589/589 594/594/594 596/596/596
f 596/596/596 591/591/591 589/589/589
f 594/594/594 589/589/589 590/590/590
f 590/590/590 595/595/595 594/594/594
f 594/594/594 599/599/599 601/601/601
f 601/601/601 596/596/596 594/594/594
f 599/599/599 594/594/594 595/595/595
f 595/595/595 600/600/600 599/599/599
f 599/599/599 604/604/604 606/606/606
f 606/606/606 601/601/601 599/599/599
f 604/604/604 599/599/599 600/600/600
f 600/600/600 605/605/605 604/604/604
f 604/604/604 609/609/609 611/611/611
f 611/611/611 606/606/606 604/604/604
f 436/436/436 429/429/429 446/446/446
f 445/445/445 446/446/446 429/429/429
f 429/429/429 432/432/432 445/445/445
f 430/430/430 429/429/429 436/436/436
f 431/431/431 432/432/432 429/429/429
f 429/429/429 430/430/430 431/431/431
f 436/436/436 447/447/447 437/437/437
f 446/446/446 447/447/447 436/436/436
f 436/436/436 435/435/435 430/430/430
f 435/435/435 436/436/436 437/437/437
f 433/433/433 430/430/430 435/435/435
f 434/434/434 431/431/431 430/430/430
f 430/430/430 433/433/433 434/434/434
f 53/53/53 37/37/37 45/45/45
f 54/54/54 38/38/38 37/37/37
f 37/37/37 53/53/53 54/54/54
f 45/45/45 37/37/37 40/40/40
f 39/39/39 40/40/40 37/37/37
f 37/37/37 38/38/38 39/39/39
f 45/45/45 55/55/55 53/53/53
f 45/45/45 44/44/44 55/55/55
f 40/40/40 43/43/43 45/45/45
f 43/43/43 44/44/44 45/45/45
f 43/43/43 40/40/40 42/42/42
f 41/41/41 42/42/42 40/40/40
f 40/40/40 39/39/39 41/41/41
f 200/200/200 202/202/202 209/209/209
f 209/209/209 207/207/207 200/200/200
f 201/201/201 200/200/200 207/207/207
f 207/207/207 208/208/208 201/201/201
f 207/207/207 209/209/209 214/214/214
f 214/214/214 212/212/212 207/207/207
f 208/208/208 207/207/207 212/212/212
f 212/212/212 213/213/213 208/208/208
f 212/212/212 214/214/214 219/219/219
f 219/219/219 217/217/217 212/212/212
f 213/213/213 212/212/212 217/217/217
f 217/217/217 218/218/218 213/213/213
f 217/217/217 219/219/219 224/224/224
f 224/224/224 222/222/222 217/217/217
f 218/218/218 217/217/217 222/222/222
f 222/222/222 223/223/223 218/218/218
f 222/222/222 224/224/224 229/229/229
f 229/229/229 227/227/227 222/222/222
f 223/223/223 222/222/222 227/227/227
f 295/295/295 300/300/300 301/301/301
f 294/294/294 300/300/300 295/295/295
f 295/295/295 296/296/296 293/293/293
f 293/293/293 294/294/294 295/295/295
f 299/299/299 298/298/298 296/296/296
f 298/298/298 297/297/297 296/296/296
f 297/297/297 293/293/293 296/296/296
f 555/555/555 550/550/550 551/551/551
f 546/546/546 551/551/551 550/550/550
f 560/560/560 555/555/555 556/556/556
f 551/551/551 556/556/556 555/555/555
f 565/565/565 560/560/560 561/561/561
f 556/556/556 561/561/561 560/560/560
f 569/569/569 565/565/565 566/566/566
f 561/561/561 566/566/566 565/565/565
f 645/645/645 646/646/646 569/569/569
f 569/569/569 570/570/570 645/645/645
f 566/566/566 570/570/570 569/569/569
f 646/646/646 645/645/645 582/582/582
f 582/582/582 581/581/581 646/646/646
f 582/582/582 583/583/583 580/580/580
f 580/580/580 581/581/581 582/582/582
f 583/583/583 588/588/588 587/587/587
f 587/587/587 580/580/580 583/583/583
f 588/588/588 593/593/593 592/592/592
f 592/592/592 587/587/587 588/588/588
f 170/170/170 171/171/171 165/165/165
f 171/171/171 170/170/170 176/176/176
f 176/176/176 177/177/177 171/171/171
f 177/177/177 176/176/176 182/182/182
f 182/182/182 183/183/183 177/177/177
f 183/183/183 182/182/182 188/188/188
f 188/188/188 189/189/189 183/183/183
f 189/189/189 188/188/188 192/192/192
f 192/192/192 193/193/193 189/189/189
f 269/269/269 193/193/193 192/192/192
f 192/192/192 268/268/268 269/269/269
f 205/205/205 269/269/269 268/268/268
f 268/268/268 206/206/206 205/205/205
f 205/205/205 206/206/206 203/203/203
f 203/203/203 204/204/204 205/205/205
f 204/204/204 203/203/203 210/210/210
f 210/210/210 211/211/211 204/204/204
f 211/211/211 210/210/210 215/215/215
f 215/215/215 216/216/216 211/211/211
f 549/549/549 544/544/544 543/543/543
f 538/538/538 543/543/543 544/544/544
f 543/543/543 538/538/538 537/537/537
f 532/532/532 537/537/537 538/538/538
f 544/544/544 539/539/539 538/538/538
f 533/533/533 538/538/538 539/539/539
f 538/538/538 533/533/533 532/532/532
f 527/527/527 532/532/532 533/533/533
f 539/539/539 534/534/534 533/533/533
f 528/528/528 533/533/533 534/534/534
f 533/533/533 528/528/528 527/527/527
f 522/522/522 527/527/527 528/528/528
f 534/534/534 529/529/529 528/528/528
f 523/523/523 528/528/528 529/529/529
f 528/528/528 523/523/523 522/522/522
f 514/514/514 522/522/522 523/523/523
f 529/529/529 524/524/524 523/523/523
f 515/515/515 523/523/523 524/524/524
f 523/523/523 515/515/515 514/514/514
f 747/747/747 707/707/707 706/706/706
f 706/706/706 707/707/707 704/704/704
f 704/704/704 705/705/705 706/706/706
f 552/552/552 557/557/557 558/558/558
f 558/558/558 553/553/553 552/552/552
f 547/547/547 552/552/552 553/553/553
f 564/564/564 559/559/559 558/558/558
f 553/553/553 558/558/558 559/559/559
f 559/559/559 554/554/554 553/553/553
f 548/548/548 553/553/553 554/554/554
f 553/553/553 548/548/548 547/547/547
f 542/542/542 547/547/547 548/548/548
f 554/554/554 549/549/549 548/548/548
f 543/543/543 548/548/548 549/549/549
f 548/548/548 543/543/543 542/542/542
f 537/537/537 542/542/542 543/543/543
f 509/509/509 514/514/514 515/515/515
f 524/524/524 516/516/516 515/515/515
f 512/512/512 515/515/515 516/516/516
f 515/515/515 512/512/512 509/509/509
f 509/509/509 512/512/512 737/737/737
f 737/737/737 510/510/510 509/509/509
f 741/741/741 509/509/509 508/508/508
f 508/508/508 509/509/509 510/510/510
f 513/513/513 512/512/512 517/517/517
f 737/737/737 512/512/512 511/511/511
f 516/516/516 517/517/517 512/512/512
f 511/511/511 512/512/512 513/513/513
f 517/517/517 749/749/749 513/513/513
f 167/167/167 173/173/173 552/552/552
f 552/552/552 547/547/547 167/167/167
f 173/173/173 179/179/179 557/557/557
f 557/557/557 552/552/552 173/173/173
f 178/178/178 179/179/179 173/173/173
f 178/178/178 180/180/180 186/186/186
f 186/186/186 184/184/184 178/178/178
f 179/179/179 178/178/178 184/184/184
f 180/180/180 181/181/181 187/187/187
f 187/187/187 186/186/186 180/180/180
f 184/184/184 186/186/186 191/191/191
f 186/186/186 187/187/187 190/190/190
f 190/190/190 191/191/191 186/186/186
f 191/191/191 267/267/267 184/184/184
f 184/184/184 185/185/185 179/179/179
f 562/562/562 557/557/557 179/179/179
f 179/179/179 185/185/185 562/562/562
f 568/568/568 563/563/563 562/562/562
f 469/469/469 468/468/468 459/459/459
f 459/459/459 462/462/462 469/469/469
f 459/459/459 468/468/468 467/467/467
f 467/467/467 460/460/460 459/459/459
f 475/475/475 472/472/472 460/460/460
f 460/460/460 467/467/467 475/475/475
f 470/470/470 471/471/471 469/469/469
f 469/469/469 462/462/462 470/470/470
f 470/470/470 462/462/462 461/461/461
f 461/461/461 476/476/476 470/470/470
f 476/476/476 461/461/461 466/466/466
f 463/463/463 466/466/466 461/461/461
f 466/466/466 477/477/477 476/476/476
f 477/477/477 466/466/466 465/465/465
f 466/466/466 463/463/463 465/465/465
f 79/79/79 71/71/71 69/69/69
f 69/69/69 78/78/78 79/79/79
f 69/69/69 68/68/68 77/77/77
f 77/77/77 78/78/78 69/69/69
f 85/85/85 77/77/77 68/68/68
f 68/68/68 83/83/83 85/85/85
f 81/81/81 71/71/71 79/79/79
f 79/79/79 80/80/80 81/81/81
f 72/72/72 71/71/71 81/81/81
f 81/81/81 86/86/86 72/72/72
f 76/76/76 72/72/72 86/86/86
f 86/86/86 87/87/87 76/76/76
f 72/72/72 76/76/76 73/73/73
f 87/87/87 74/74/74 76/76/76
f 76/76/76 74/74/74 73/73/73
f 746/746/746 721/721/721 710/710/710
f 711/711/711 710/710/710 721/721/721
f 721/721/721 722/722/722 711/711/711
f 442/442/442 441/441/441 431/431/431
f 431/431/431 434/434/434 442/442/442
f 431/431/431 441/441/441 440/440/440
f 440/440/440 432/432/432 431/431/431
f 454/454/454 445/445/445 432/432/432
f 432/432/432 440/440/440 454/454/454
f 443/443/443 444/444/444 442/442/442
f 442/442/442 434/434/434 443/443/443
f 443/443/443 434/434/434 433/433/433
f 433/433/433 455/455/455 443/443/443
f 455/455/455 433/433/433 438/438/438
f 435/435/435 438/438/438 433/433/433
f 438/438/438 456/456/456 455/455/455
f 456/456/456 438/438/438 437/437/437
f 438/438/438 435/435/435 437/437/437
f 50/50/50 41/41/41 39/39/39
f 39/39/39 49/49/49 50/50/50
f 39/39/39 38/38/38 48/48/48
f 48/48/48 49/49/49 39/39/39
f 64/64/64 48/48/48 38/38/38
f 38/38/38 54/54/54 64/64/64
f 52/52/52 41/41/41 50/50/50
f 50/50/50 51/51/51 52/52/52
f 42/42/42 41/41/41 52/52/52
f 52/52/52 65/65/65 42/42/42
f 46/46/46 42/42/42 65/65/65
f 65/65/65 66/66/66 46/46/46
f 42/42/42 46/46/46 43/43/43
f 66/66/66 44/44/44 46/46/46
f 46/46/46 44/44/44 43/43/43
f 381/381/381 331/331/331 334/334/334
f 333/333/333 334/334/334 331/331/331
f 331/331/331 332/332/332 333/333/333
f 382/382/382 381/381/381 335/335/335
f 334/334/334 335/335/335 381/381/381
f 334/334/334 333/333/333 380/380/380
f 380/380/380 336/336/336 334/334/334
f 335/335/335 334/334/334 336/336/336
f 333/333/333 345/345/345 383/383/383
f 383/383/383 380/380/380 333/333/333
f 345/345/345 333/333/333 332/332/332
f 332/332/332 344/344/344 345/345/345
f 336/336/336 337/337/337 335/335/335
f 390/390/390 391/391/391 388/388/388
f 388/388/388 389/389/389 390/390/390
f 750/750/750 391/391/391 751/751/751
f 751/751/751 752/752/752 750/750/750
f 709/709/709 708/708/708 744/744/744
f 710/710/710 711/711/711 708/708/708
f 708/708/708 709/709/709 710/710/710
f 744/744/744 712/712/712 709/709/709
f 709/709/709 714/714/714 743/743/743
f 743/743/743 710/710/710 709/709/709
f 714/714/714 709/709/709 712/712/712
f 712/712/712 744/744/744 745/745/745
f 745/745/745 715/715/715 712/712/712
f 713/713/713 712/712/712 715/715/715
f 712/712/712 713/713/713 714/714/714
f 715/715/715 716/716/716 713/713/713
f 710/710/710 743/743/743 746/746/746
f 58/58/58 60/60/60 61/61/61
f 58/58/58 59/59/59 56/56/56
f 56/56/56 57/57/57 58/58/58
f 103/103/103 95/95/95 93/93/93
f 93/93/93 102/102/102 103/103/103
f 93/93/93 92/92/92 101/101/101
f 101/101/101 102/102/102 93/93/93
f 109/109/109 101/101/101 92/92/92
f 92/92/92 107/107/107 109/109/109
f 105/105/105 95/95/95 103/103/103
f 103/103/103 104/104/104 105/105/105
f 96/96/96 95/95/95 105/105/105
f 105/105/105 110/110/110 96/96/96
f 100/100/100 96/96/96 110/110/110
f 110/110/110 111/111/111 100/100/100
f 96/96/96 100/100/100 97/97/97
f 111/111/111 98/98/98 100/100/100
f 100/100/100 98/98/98 97/97/97
f 492/492/492 491/491/491 482/482/482
f 482/482/482 485/485/485 492/492/492
f 482/482/482 491/491/491 490/490/490
f 490/490/490 483/483/483 482/482/482
f 498/498/498 495/495/495 483/483/483
f 483/483/483 490/490/490 498/498/498
f 493/493/493 494/494/494 492/492/492
f 492/492/492 485/485/485 493/493/493
f 493/493/493 485/485/485 484/484/484
f 484/484/484 499/499/499 493/493/493
f 499/499/499 484/484/484 489/489/489
f 486/486/486 489/489/489 484/484/484
f 489/489/489 500/500/500 499/499/499
f 500/500/500 489/489/489 488/488/488
f 489/489/489 486/486/486 488/488/488
f 411/411/411 412/412/412 748/748/748
f 748/748/748 412/412/412 453/453/453
f 427/427/427 453/453/453 412/412/412
f 412/412/412 413/413/413 427/427/427
f 453/453/453 451/451/451 748/748/748
f 453/453/453 452/452/452 448/448/448
f 448/448/448 451/451/451 453/453/453
f 452/452/452 453/453/453 427/427/427
f 450/450/450 451/451/451 448/448/448
f 448/448/448 449/449/449 450/450/450
f 61/61/61 60/60/60 450/450/450
f 450/450/450 449/449/449 61/61/61
f 61/61/61 59/59/59 58/58/58
f 335/335/335 338/338/338 382/382/382
f 338/338/338 335/335/335 337/337/337
f 337/337/337 339/339/339 338/338/338
f 424/424/424 425/425/425 422/422/422
f 479/479/479 452/452/452 422/422/422
f 427/427/427 422/422/422 452/452/452
f 423/423/423 422/422/422 427/427/427
f 422/422/422 423/423/423 424/424/424
f 424/424/424 439/439/439 418/418/418
f 419/419/419 439/439/439 426/426/426
f 418/418/418 439/439/439 419/419/419
f 416/416/416 415/415/415 418/418/418
f 502/502/502 418/418/418 415/415/415
f 416/416/416 418/418/418 419/419/419
f 416/416/416 419/419/419 394/394/394
f 401/401/401 394/394/394 419/419/419
f 419/419/419 428/428/428 401/401/401
f 426/426/426 428/428/428 419/419/419
f 427/427/427 428/428/428 426/426/426
f 426/426/426 423/423/423 427/427/427
f 428/428/428 427/427/427 413/413/413
f 375/375/375 372/372/372 374/374/374
f 372/372/372 373/373/373 374/374/374
f 375/375/375 739/739/739 738/738/738
f 738/738/738 739/739/739 740/740/740
f 150/150/150 148/148/148 142/142/142
f 143/143/143 142/142/142 148/148/148
f 144/144/144 145/145/145 151/151/151
f 151/151/151 150/150/150 144/144/144
f 150/150/150 151/151/151 157/157/157
f 157/157/157 156/156/156 150/150/150
f 148/148/148 150/150/150 156/156/156
f 156/156/156 154/154/154 148/148/148
f 149/149/149 148/148/148 154/154/154
f 148/148/148 149/149/149 143/143/143
f 143/143/143 149/149/149 532/532/532
f 532/532/532 527/527/527 143/143/143
f 149/149/149 155/155/155 537/537/537
f 537/537/537 532/532/532 149/149/149
f 154/154/154 155/155/155 149/149/149
f 154/154/154 156/156/156 162/162/162
f 162/162/162 160/160/160 154/154/154
f 155/155/155 154/154/154 160/160/160
f 156/156/156 157/157/157 163/163/163
f 163/163/163 162/162/162 156/156/156
f 162/162/162 163/163/163 169/169/169
f 169/169/169 168/168/168 162/162/162
f 160/160/160 162/162/162 168/168/168
f 168/168/168 166/166/166 160/160/160
f 161/161/161 160/160/160 166/166/166
f 160/160/160 161/161/161 155/155/155
f 155/155/155 161/161/161 542/542/542
f 542/542/542 537/537/537 155/155/155
f 161/161/161 167/167/167 547/547/547
f 547/547/547 542/542/542 161/161/161
f 166/166/166 167/167/167 161/161/161
f 166/166/166 168/168/168 174/174/174
f 174/174/174 172/172/172 166/166/166
f 167/167/167 166/166/166 172/172/172
f 168/168/168 169/169/169 175/175/175
f 175/175/175 174/174/174 168/168/168
f 174/174/174 175/175/175 181/181/181
f 181/181/181 180/180/180 174/174/174
f 172/172/172 174/174/174 180/180/180
f 180/180/180 178/178/178 172/172/172
f 173/173/173 172/172/172 178/178/178
f 172/172/172 173/173/173 167/167/167
f 310/310/310 309/309/309 367/367/367
f 311/311/311 312/312/312 309/309/309
f 309/309/309 310/310/310 311/311/311
f 367/367/367 368/368/368 310/310/310
f 689/689/689 368/368/368 367/367/367
f 367/367/367 686/686/686 689/689/689
f 688/688/688 689/689/689 686/686/686
f 686/686/686 687/687/687 688/688/688
f 688/688/688 687/687/687 732/732/732
f 732/732/732 733/733/733 688/688/688
f 693/693/693 733/733/733 732/732/732
f 732/732/732 690/690/690 693/693/693
f 692/692/692 693/693/693 690/690/690
f 329/329/329 330/330/330 327/327/327
f 327/327/327 328/328/328 329/329/329
f 329/329/329 328/328/328 384/384/384
f 384/384/384 356/356/356 329/329/329
f 353/353/353 329/329/329 356/356/356
f 330/330/330 329/329/329 353/353/353
f 353/353/353 354/354/354 330/330/330
f 727/727/727 706/706/706 353/353/353
f 353/353/353 357/357/357 727/727/727
f 353/353/353 706/706/706 705/705/705
f 705/705/705 354/354/354 353/353/353
f 356/356/356 357/357/357 353/353/353
f 706/706/706 727/727/727 747/747/747
f 376/376/376 121/121/121 123/123/123
f 121/121/121 122/122/122 123/123/123
f 377/377/377 378/378/378 376/376/376
f 376/376/376 123/123/123 377/377/377
f 123/123/123 122/122/122 369/369/369
f 369/369/369 126/126/126 123/123/123
f 377/377/377 123/123/123 128/128/128
f 127/127/127 128/128/128 123/123/123
f 123/123/123 126/126/126 127/127/127
f 514/514/514 509/509/509 377/377/377
f 377/377/377 137/137/137 514/514/514
f 377/377/377 509/509/509 741/741/741
f 741/741/741 378/378/378 377/377/377
f 128/128/128 137/137/137 377/377/377
f 128/128/128 127/127/127 138/138/138
f 138/138/138 135/135/135 128/128/128
f 137/137/137 128/128/128 135/135/135
f 127/127/127 129/129/129 139/139/139
f 139/139/139 138/138/138 127/127/127
f 129/129/129 127/127/127 126/126/126
f 138/138/138 139/139/139 145/145/145
f 145/145/145 144/144/144 138/138/138
f 135/135/135 138/138/138 144/144/144
f 144/144/144 142/142/142 135/135/135
f 136/136/136 135/135/135 142/142/142
f 135/135/135 136/136/136 137/137/137
f 137/137/137 136/136/136 522/522/522
f 522/522/522 514/514/514 137/137/137
f 136/136/136 143/143/143 527/527/527
f 527/527/527 522/522/522 136/136/136
f 142/142/142 143/143/143 136/136/136
f 142/142/142 144/144/144 150/150/150
f 36/36/36 33/33/33 34/34/34
f 19/19/19 386/386/386 20/20/20
f 62/62/62 20/20/20 386/386/386
f 19/19/19 20/20/20 7/7/7
f 386/386/386 57/57/57 62/62/62
f 62/62/62 57/57/57 56/56/56
f 56/56/56 63/63/63 62/62/62
f 30/30/30 63/63/63 90/90/90
f 31/31/31 30/30/30 88/88/88
f 90/90/90 88/88/88 30/30/30
f 32/32/32 33/33/33 30/30/30
f 30/30/30 31/31/31 32/32/32
f 88/88/88 90/90/90 59/59/59
f 59/59/59 61/61/61 88/88/88
f 120/120/120 114/114/114 88/88/88
f 88/88/88 89/89/89 120/120/120
f 88/88/88 114/114/114 31/31/31
f 88/88/88 61/61/61 89/89/89
f 31/31/31 114/114/114 112/112/112
f 112/112/112 27/27/27 31/31/31
f 32/32/32 31/31/31 27/27/27
f 27/27/27 47/47/47 32/32/32
f 24/24/24 27/27/27 25/25/25
f 25/25/25 27/27/27 112/112/112
f 118/118/118 112/112/112 114/114/114
f 119/119/119 113/113/113 112/112/112
f 112/112/112 118/118/118 119/119/119
f 112/112/112 113/113/113 25/25/25
f 114/114/114 120/120/120 118/118/118
f 118/118/118 120/120/120 503/503/503
f 120/120/120 89/89/89 478/478/478
f 478/478/478 503/503/503 120/120/120
f 478/478/478 89/89/89 61/61/61
f 449/449/449 479/479/479 478/478/478
f 478/478/478 61/61/61 449/449/449
f 478/478/478 422/422/422 425/425/425
f 425/425/425 503/503/503 478/478/478
f 422/422/422 478/478/478 479/479/479
f 503/503/503 502/502/502 118/118/118
f 502/502/502 503/503/503 425/425/425
f 425/425/425 418/418/418 502/502/502
f 418/418/418 425/425/425 424/424/424
