# hybodus_ad_c reconstructed from live game memory
v -7.44811 42.15879 -21.39790
v -7.06176 43.05703 -20.44304
v -7.79025 42.99979 -19.21704
v -5.74116 42.80584 -21.50902
v -6.22106 42.59893 -24.13821
v 0.00000 42.61910 39.13684
v 0.00000 41.80930 42.80710
v -3.39137 39.01238 42.71516
v -1.08688 42.27121 38.27156
v -6.06046 43.72945 -21.51429
v -6.77026 42.93176 -21.59720
v -6.24182 42.75171 -22.81731
v -7.15152 41.94593 -21.71679
v -7.05880 43.06902 -20.53597
v -3.59507 45.86841 -18.11331
v -5.91783 45.54950 -18.19894
v -6.68692 45.20934 -19.56552
v -3.38533 45.11283 -22.37992
v -4.68838 31.02242 13.88980
v -2.89007 30.64721 19.17397
v 0.00000 29.85251 19.22515
v 0.00000 29.63110 13.38665
v 0.00000 30.47240 23.16836
v -4.03085 32.13737 23.80300
v -2.73720 38.89952 46.17384
v 0.00000 41.33696 45.99913
v 0.00000 40.72628 50.13232
v -2.02813 38.71531 50.16758
v -4.57545 42.70176 -25.59516
v -6.32010 39.72123 -26.45322
v -6.23390 44.06903 -21.64889
v -3.49654 42.13823 28.67735
v -6.19776 39.13070 28.19752
v -7.12470 39.44649 24.04756
v -2.84026 44.41125 24.18921
v -3.60330 34.75410 -26.67926
v -2.20171 35.02484 -27.98772
v -2.61611 35.72862 -28.53061
v -4.43548 35.79513 -27.22381
v 0.00000 35.65392 -28.81609
v 0.00000 34.98519 -28.21365
v 0.00000 42.77191 -27.40719
v 0.00000 45.39186 -22.67733
v -8.41303 35.66163 -18.80754
v -9.22169 36.39389 -15.38332
v -4.98023 32.05898 -15.38520
v -4.68494 32.64302 -18.70607
v -10.32129 35.61499 -11.45956
v -5.44133 31.58856 -11.78896
v 0.00000 30.56290 -15.34442
v 0.00000 31.38653 -18.68431
v 0.00000 30.02801 -11.85959
v -10.23294 38.18928 6.60018
v -8.94009 42.71632 6.57580
v -8.65575 39.76736 13.57445
v 0.00000 30.02801 -11.85959
v -5.44133 31.58856 -11.78896
v -5.32134 30.67535 -2.11063
v 0.00000 29.26408 -2.17046
v -4.54401 46.40112 6.74683
v -8.88295 43.38593 -0.17882
v -5.24322 46.44777 -0.17765
v -1.22887 47.72644 6.82975
v 0.00000 48.21143 -0.16240
v -3.19165 40.04425 -28.64249
v -8.88453 37.17950 -18.83383
v -8.04365 37.71870 -22.20858
v -8.49097 39.78360 -21.01470
v -7.96482 39.56605 18.96229
v -3.29732 44.92073 18.96945
v -3.93946 45.96360 13.40227
v -6.98057 44.24393 -17.03526
v -9.04741 39.72704 -15.66608
v -8.76143 39.83062 -18.97216
v -7.82890 43.82111 -11.16417
v -9.80300 39.59848 -11.31271
v -7.27374 35.28852 -21.82913
v -6.97985 36.17010 -23.13675
v 0.00000 38.89212 -29.98038
v -6.20314 37.77180 -26.41295
v -3.67479 37.40667 -28.81252
v -7.74570 44.37786 -18.69930
v -1.61245 36.08845 50.15335
v -2.18362 35.67404 46.36259
v -6.65632 33.66390 18.94532
v -6.93833 32.90527 13.41097
v -5.80269 32.39551 18.97842
v -5.92489 33.92552 23.99763
v -5.72954 36.34021 28.19927
v -3.55517 32.85804 28.37135
v -4.04073 38.95100 38.20262
v -2.54921 35.08622 42.99986
v -2.87637 34.60023 38.24863
v -4.25424 46.09888 -11.18703
v 0.00000 47.17619 -11.05349
v -7.82890 43.82111 -11.16417
v -4.45857 33.36034 -21.92854
v 0.00000 33.66746 -25.96087
v 0.00000 32.25583 -21.81085
v -20.73887 33.24847 -5.03018
v -16.62790 33.76097 -9.99823
v -21.68219 33.86355 -7.61330
v -20.74328 34.41832 -4.79327
v 0.00000 37.15586 -29.72988
v -18.50778 33.64128 -0.98590
v -22.97690 33.74852 -0.42648
v -18.50778 33.64128 -0.98590
v -22.97690 33.74852 -0.42648
v -12.50209 34.37130 -1.39423
v -11.79513 33.06579 -1.80355
v -13.36212 33.21815 -0.76119
v -13.36164 34.23539 -0.55622
v -13.36212 33.21815 -0.76119
v -13.36260 32.98305 -6.20501
v -11.79513 33.06579 -1.80355
v -9.71523 32.26432 -5.75315
v -13.36164 35.14946 -5.60256
v -11.46338 36.47677 -5.55812
v -10.32129 35.61499 -11.45956
v -13.36234 33.75605 -10.21920
v -9.71476 32.76013 -10.11831
v -25.04747 33.98447 -1.17879
v -25.04747 33.98447 -1.17879
v -24.88594 34.03932 -4.90819
v 0.00000 33.28773 38.43877
v -0.65776 33.85751 43.21673
v -9.71523 32.26432 -5.75315
v -9.70695 32.49911 -0.66426
v -9.71476 32.76013 -10.11831
v -10.77377 39.36043 -0.11537
v -9.80300 39.59848 -11.31271
v -4.25424 46.09888 -11.18703
v 0.00000 46.41225 -18.20580
v 0.00000 47.17619 -11.05349
v -11.46338 36.47677 -5.55812
v -10.32129 35.61499 -11.45956
v -11.09963 35.30195 -0.47421
v -1.52799 38.79401 53.84857
v -0.61109 35.99149 53.61830
v 0.00000 40.71521 53.57642
v 0.00000 37.15586 -29.72988
v -3.67479 37.40667 -28.81252
v 0.00000 37.33470 -18.11543
v -8.88453 37.17950 -18.83383
v -8.04365 37.71870 -22.20858
v -6.97985 36.17010 -23.13675
v 0.00000 35.63399 -22.86031
v -6.20314 37.77180 -26.41295
v -4.43548 35.79513 -27.22381
v -2.61611 35.72862 -28.53061
v 0.00000 35.65392 -28.81609
v -3.57370 36.02530 -27.88384
v -3.25301 37.56140 -28.41412
v -4.16380 37.64791 -27.54305
v -3.25301 37.67287 -28.17926
v -2.49943 36.01837 -28.54178
v -2.03139 37.55054 -28.86349
v -1.46370 36.11823 -29.05602
v -0.87957 37.42940 -29.18630
v -2.03139 37.55054 -28.86349
v -4.26370 36.25236 -26.88027
v -4.16380 37.64791 -27.54305
v -4.85198 37.81151 -26.42466
v -5.62069 38.05003 -25.03445
v -5.18448 36.33467 -25.52426
v -4.85198 37.81151 -26.42466
v -6.28585 38.12091 -23.93079
v -5.86774 36.68348 -24.46727
v -5.62069 38.05003 -25.03445
v -6.48112 36.80026 -23.15471
v -6.10542 38.29321 -23.78082
v -6.78454 38.27476 -22.78759
v -7.01783 36.71677 -22.10663
v -6.78454 38.27476 -22.78759
v -7.36473 38.47214 -21.44910
v -6.81777 37.23897 -21.37996
v -7.06267 35.96313 -20.94292
v -6.62937 36.04049 -21.92377
v -6.39909 37.21691 -22.69402
v -6.62937 36.04049 -21.92377
v -6.14593 35.91835 -23.14070
v -5.73660 36.87264 -23.60491
v -6.12234 35.69864 -22.98534
v -5.58157 35.85402 -24.23475
v -5.18401 36.97239 -24.84506
v -5.58157 35.85402 -24.23475
v -4.73778 35.57606 -25.30960
v -4.02478 35.52589 -26.46583
v -4.26430 36.67348 -26.05039
v -4.73778 35.57606 -25.30960
v -3.52945 36.80197 -26.89925
v -4.02478 35.52589 -26.46583
v -2.91642 35.35919 -27.19579
v -2.55532 36.57372 -27.70887
v -2.91642 35.35919 -27.19579
v -1.88544 35.27916 -27.93893
v -1.88544 35.27916 -27.93893
v -0.87957 35.20972 -28.25264
v -1.31858 36.48573 -28.26818
v 0.00000 35.42411 50.15372
v 0.00000 31.34727 28.45360
v 0.00000 42.10892 56.09280
v -0.86496 39.18416 58.32147
v 0.00000 45.19932 74.69452
v -0.33900 47.91348 72.85097
v -0.30833 49.26607 77.79132
v 0.00000 47.92852 79.07677
v 0.00000 50.21876 79.46431
v 0.00000 49.44606 71.73443
v 0.00000 50.66066 76.94426
v -0.65133 44.51209 65.60757
v 0.00000 46.62555 64.28128
v 0.00000 28.89258 61.65991
v 0.00000 32.97271 57.41322
v -0.18087 32.19973 61.57662
v 0.00000 46.11425 18.99521
v 0.00000 45.09722 24.17150
v 0.00000 44.79834 26.13505
v -1.45670 43.98827 28.89335
v 0.00000 49.36959 16.98623
v 0.00000 47.99311 17.85158
v -0.88644 48.46912 15.72002
v -0.85052 47.09415 15.33127
v -1.07106 51.23877 5.17831
v -0.98073 52.23375 11.29185
v 0.00000 46.66231 16.75654
v -0.58780 54.91396 8.29427
v 0.00000 55.52985 7.41191
v 0.00000 57.18839 10.28911
v -0.28618 56.67282 10.44225
v 0.00000 51.56141 2.40368
v 0.00000 53.56587 4.91404
v -0.78936 53.20197 6.68456
v 0.00000 53.16869 8.15464
v 0.00000 54.75684 10.36508
v 0.00000 57.63954 12.03475
v 0.00000 56.49018 10.78358
v 0.00000 54.63271 9.06385
v 0.00000 58.03519 14.94782
v -0.37663 56.87084 15.60171
v 0.00000 59.16204 17.39257
v -0.22669 58.34197 17.62996
v 0.00000 58.85414 18.35218
v 0.00000 57.50277 18.26225
v 0.00000 55.53302 16.70949
v 0.00000 51.91991 15.15297
v 0.00000 50.29590 15.75928
v 0.00000 29.22957 6.37545
v -5.74093 31.13263 6.48391
v -8.65690 33.26793 6.54688
v 0.00000 34.51100 46.51149
v 0.00000 34.50048 46.47722
v 0.00000 30.62081 42.53485
v -6.19776 39.13070 28.19752
v -3.49654 42.13823 28.67735
v -5.07153 39.26506 33.12810
v -3.55517 32.85804 28.37135
v -3.17591 33.71337 33.15675
v 0.00000 32.21304 33.22149
v 0.00000 31.34727 28.45360
v 0.00000 45.76658 71.80873
v 0.00000 43.62873 72.13382
v -5.72954 36.34021 28.19927
v -1.88935 43.05975 33.32895
v -1.45670 43.98827 28.89335
v -0.77673 46.70710 30.82219
v -0.84445 45.93692 34.89073
v -0.43299 43.65170 39.01533
v 0.00000 47.18256 28.94192
v 0.00000 49.26986 31.16289
v -0.50434 48.92090 32.24604
v 0.00000 51.13995 34.09170
v -0.23802 50.85524 34.45243
v 0.00000 48.81927 33.59145
v 0.00000 49.10818 34.72056
v -0.03205 51.84631 35.94051
v 0.00000 51.87632 35.99413
v 0.00000 50.63364 34.82544
v 0.00000 50.49345 36.93445
v -0.25308 49.33575 38.13007
v 0.00000 51.44127 40.14799
v -0.08230 50.65246 40.32143
v 0.00000 51.01968 41.22137
v 0.00000 49.61507 40.69179
v 0.00000 47.97412 39.79771
v 0.00000 45.29300 39.44844
v 0.00000 43.54659 39.84053
v -5.91783 45.54950 -18.19894
v -7.12641 45.87495 -17.69250
v -7.59128 45.76411 -18.71095
v -6.68692 45.20934 -19.56552
v -6.98057 44.24393 -17.03526
v -7.74570 44.37786 -18.69930
v -8.24263 45.02338 -17.99887
v -7.68802 45.08192 -16.87350
v -6.98057 44.24393 -17.03526
v -7.68802 45.08192 -16.87350
v -8.58011 45.88587 -16.83444
v -8.80324 45.95544 -17.51310
v -9.04838 45.33565 -17.02259
v -8.72457 45.28684 -16.38103
v -8.72457 45.28684 -16.38103
v 0.00000 29.89108 63.54699
v 0.00000 40.10122 69.05963
v 0.00000 33.83821 64.97337
v 0.00000 33.02802 46.54295
v 0.00000 31.74998 47.19237
v -9.48460 45.75357 -16.68084
v -9.36265 45.36958 -16.12392
v 0.00000 44.79834 26.13505
v -5.80269 32.39551 18.97842
v -8.39860 30.52906 20.93568
v -7.68308 29.71547 16.99135
v -4.68838 31.02242 13.88980
v -6.46588 29.98193 20.90412
v -2.89007 30.64721 19.17397
v -7.08759 30.87206 24.56149
v -4.03085 32.13737 23.80300
v -4.03085 32.13737 23.80300
v -7.08759 30.87206 24.56149
v -11.17785 28.68268 23.44361
v -11.17053 28.52611 20.42981
v -11.17785 28.68268 23.44361
v -10.72216 29.15328 26.07602
v -10.72216 29.15328 26.07602
v -11.09963 35.30195 -0.47421
v -9.70695 32.49911 -0.66426
v -9.70695 32.49911 -0.66426
v -0.54422 36.04065 -29.05602
v 0.00000 37.26225 -29.17740
v 0.00000 37.35601 -29.17511
v -1.11192 37.47296 -28.86349
v -0.39911 36.40815 -28.26818
v -0.96597 35.20158 -27.93893
v 0.00000 35.13490 -28.24020
v 0.00000 35.24812 -28.25405
v 0.00000 34.48240 46.42833
v -9.71476 32.76013 -10.11831
v 0.00000 30.75253 45.75712
v 7.44811 42.15879 -21.39790
v 7.79025 42.99979 -19.21704
v 7.06176 43.05703 -20.44304
v 5.74116 42.80584 -21.50902
v 6.22106 42.59893 -24.13821
v 1.08688 42.27121 38.27156
v 3.39137 39.01238 42.71516
v 6.06046 43.72945 -21.51429
v 6.24182 42.75171 -22.81731
v 6.77027 42.93176 -21.59720
v 7.15152 41.94593 -21.71679
v 7.05880 43.06902 -20.53597
v 3.59508 45.86841 -18.11331
v 3.38533 45.11283 -22.37992
v 6.68692 45.20934 -19.56552
v 5.91783 45.54950 -18.19894
v 4.68838 31.02242 13.88980
v 2.89007 30.64721 19.17397
v 4.03085 32.13737 23.80300
v 2.73721 38.89952 46.17384
v 2.02813 38.71531 50.16758
v 4.57545 42.70176 -25.59516
v 6.32010 39.72123 -26.45322
v 6.23390 44.06903 -21.64889
v 3.49654 42.13823 28.67735
v 2.84026 44.41125 24.18921
v 7.12470 39.44649 24.04756
v 6.19776 39.13070 28.19752
v 3.60330 34.75410 -26.67926
v 4.43548 35.79513 -27.22381
v 2.61611 35.72862 -28.53061
v 2.20171 35.02484 -27.98772
v 8.41303 35.66163 -18.80754
v 4.68494 32.64302 -18.70607
v 4.98023 32.05898 -15.38520
v 9.22169 36.39389 -15.38332
v 5.44134 31.58856 -11.78896
v 10.32130 35.61499 -11.45956
v 10.23295 38.18928 6.60018
v 8.65575 39.76736 13.57445
v 8.94009 42.71632 6.57580
v 5.32134 30.67535 -2.11063
v 5.44134 31.58856 -11.78896
v 4.54401 46.40112 6.74683
v 5.24322 46.44777 -0.17765
v 8.88295 43.38593 -0.17882
v 1.22887 47.72644 6.82975
v 3.19165 40.04425 -28.64249
v 8.88453 37.17950 -18.83383
v 8.49097 39.78360 -21.01470
v 8.04365 37.71870 -22.20858
v 3.29732 44.92073 18.96945
v 7.96482 39.56605 18.96229
v 3.93946 45.96360 13.40227
v 8.76143 39.83062 -18.97216
v 9.04741 39.72704 -15.66608
v 6.98057 44.24393 -17.03526
v 9.80300 39.59848 -11.31271
v 7.82890 43.82111 -11.16417
v 6.97985 36.17010 -23.13675
v 7.27375 35.28852 -21.82913
v 3.67479 37.40667 -28.81252
v 6.20314 37.77180 -26.41295
v 7.74570 44.37786 -18.69930
v 2.18362 35.67404 46.36259
v 1.61245 36.08845 50.15335
v 6.93833 32.90527 13.41097
v 6.65632 33.66390 18.94532
v 5.80269 32.39551 18.97842
v 5.92489 33.92552 23.99763
v 5.72954 36.34021 28.19927
v 3.55517 32.85804 28.37135
v 4.04073 38.95100 38.20262
v 2.87637 34.60023 38.24863
v 2.54921 35.08622 42.99986
v 4.25424 46.09888 -11.18703
v 7.82890 43.82111 -11.16417
v 4.45857 33.36034 -21.92854
v 20.73886 33.24848 -5.03018
v 21.68219 33.86356 -7.61329
v 16.62790 33.76098 -9.99823
v 20.74328 34.41832 -4.79327
v 18.50778 33.64128 -0.98590
v 22.97690 33.74852 -0.42647
v 18.50778 33.64128 -0.98590
v 22.97690 33.74852 -0.42647
v 12.50209 34.37130 -1.39422
v 13.36164 34.23539 -0.55621
v 13.36212 33.21815 -0.76119
v 11.79513 33.06579 -1.80355
v 13.36212 33.21815 -0.76119
v 13.36260 32.98305 -6.20501
v 11.79513 33.06579 -1.80355
v 9.71524 32.26432 -5.75314
v 11.46338 36.47678 -5.55812
v 13.36164 35.14947 -5.60256
v 10.32130 35.61499 -11.45956
v 9.71476 32.76014 -10.11831
v 13.36235 33.75606 -10.21919
v 25.04747 33.98448 -1.17879
v 25.04747 33.98448 -1.17879
v 24.88593 34.03932 -4.90818
v 0.65776 33.85751 43.21673
v 9.70696 32.49911 -0.66426
v 9.71524 32.26432 -5.75314
v 9.71476 32.76014 -10.11831
v 10.77377 39.36043 -0.11537
v 9.80300 39.59848 -11.31271
v 4.25424 46.09888 -11.18703
v 10.32130 35.61499 -11.45956
v 11.46338 36.47678 -5.55812
v 11.09963 35.30195 -0.47421
v 0.61109 35.99149 53.61830
v 1.52799 38.79401 53.84857
v 3.67479 37.40667 -28.81252
v 8.88453 37.17950 -18.83383
v 8.04365 37.71870 -22.20858
v 6.97985 36.17010 -23.13675
v 6.20314 37.77180 -26.41295
v 4.43548 35.79513 -27.22381
v 2.61611 35.72862 -28.53061
v 3.57371 36.02530 -27.88384
v 4.16381 37.64791 -27.54305
v 3.25301 37.56140 -28.41412
v 3.25301 37.67287 -28.17926
v 2.03139 37.55054 -28.86349
v 2.49943 36.01837 -28.54178
v 1.46370 36.11823 -29.05602
v 2.03139 37.55054 -28.86349
v 0.87957 37.42940 -29.18630
v 4.26370 36.25236 -26.88027
v 4.85198 37.81151 -26.42466
v 4.16381 37.64791 -27.54305
v 5.62069 38.05003 -25.03445
v 4.85198 37.81151 -26.42466
v 5.18448 36.33467 -25.52426
v 6.28586 38.12091 -23.93079
v 5.62069 38.05003 -25.03445
v 5.86774 36.68348 -24.46727
v 6.48112 36.80026 -23.15471
v 6.78454 38.27476 -22.78759
v 6.10542 38.29321 -23.78082
v 7.01783 36.71677 -22.10663
v 7.36473 38.47214 -21.44910
v 6.78454 38.27476 -22.78759
v 6.81777 37.23897 -21.37996
v 6.62937 36.04049 -21.92377
v 7.06268 35.96313 -20.94292
v 6.39909 37.21691 -22.69402
v 6.14593 35.91835 -23.14070
v 6.62937 36.04049 -21.92377
v 5.73660 36.87264 -23.60491
v 5.58157 35.85402 -24.23475
v 6.12234 35.69864 -22.98534
v 5.18401 36.97239 -24.84506
v 4.73778 35.57606 -25.30960
v 5.58157 35.85402 -24.23475
v 4.02478 35.52589 -26.46583
v 4.73778 35.57606 -25.30960
v 4.26430 36.67348 -26.05039
v 3.52945 36.80197 -26.89925
v 2.91642 35.35919 -27.19579
v 4.02478 35.52589 -26.46583
v 2.55532 36.57372 -27.70887
v 1.88544 35.27916 -27.93893
v 2.91642 35.35919 -27.19579
v 1.88544 35.27916 -27.93893
v 1.31859 36.48573 -28.26818
v 0.87957 35.20972 -28.25264
v 0.86496 39.18416 58.32147
v 0.30833 49.26607 77.79132
v 0.33900 47.91348 72.85097
v 0.65133 44.51209 65.60757
v 0.18087 32.19973 61.57662
v 1.45670 43.98827 28.89335
v 0.88644 48.46912 15.72002
v 0.85053 47.09415 15.33127
v 1.07106 51.23877 5.17831
v 0.98073 52.23375 11.29185
v 0.58780 54.91396 8.29427
v 0.28618 56.67282 10.44225
v 0.78936 53.20197 6.68456
v 0.37663 56.87084 15.60171
v 0.22669 58.34197 17.62996
v 5.74093 31.13263 6.48391
v 8.65690 33.26793 6.54688
v 6.19776 39.13070 28.19752
v 5.07153 39.26506 33.12810
v 3.49654 42.13823 28.67735
v 3.55517 32.85804 28.37135
v 3.17591 33.71337 33.15675
v 5.72954 36.34021 28.19927
v 1.88935 43.05975 33.32895
v 0.84445 45.93692 34.89073
v 0.77673 46.70710 30.82219
v 1.45670 43.98827 28.89335
v 0.43299 43.65170 39.01533
v 0.50435 48.92090 32.24604
v 0.23802 50.85524 34.45243
v 0.03206 51.84631 35.94051
v 0.25308 49.33575 38.13007
v 0.08230 50.65246 40.32143
v 5.91783 45.54950 -18.19894
v 6.68692 45.20934 -19.56552
v 7.59128 45.76411 -18.71095
v 7.12641 45.87495 -17.69250
v 6.98057 44.24393 -17.03526
v 7.68802 45.08192 -16.87350
v 8.24263 45.02338 -17.99887
v 7.74570 44.37786 -18.69930
v 6.98057 44.24393 -17.03526
v 7.68802 45.08192 -16.87350
v 8.80325 45.95544 -17.51310
v 8.58011 45.88587 -16.83444
v 9.04838 45.33565 -17.02259
v 8.72457 45.28684 -16.38103
v 8.72457 45.28684 -16.38103
v 9.48460 45.75357 -16.68084
v 9.36265 45.36958 -16.12392
v 5.80269 32.39551 18.97842
v 4.68838 31.02242 13.88980
v 7.68308 29.71547 16.99135
v 8.39860 30.52906 20.93568
v 2.89007 30.64721 19.17397
v 6.46588 29.98193 20.90412
v 4.03085 32.13737 23.80300
v 7.08759 30.87206 24.56149
v 4.03085 32.13737 23.80300
v 7.08759 30.87206 24.56149
v 11.17054 28.52611 20.42981
v 11.17785 28.68268 23.44361
v 11.17785 28.68268 23.44361
v 10.72216 29.15328 26.07602
v 10.72216 29.15328 26.07602
v 11.09963 35.30195 -0.47421
v 9.70696 32.49911 -0.66426
v 9.70696 32.49911 -0.66426
v 0.54423 36.04065 -29.05602
v 1.11192 37.47296 -28.86349
v 0.39911 36.40815 -28.26818
v 0.96597 35.20158 -27.93893
v 9.71476 32.76014 -10.11831
vt 0.224579 0.269737
vt 0.214208 0.292522
vt 0.187740 0.284924
vt 0.230758 0.283407
vt 0.274852 0.280751
vt 0.240123 0.862818
vt 0.290957 0.857093
vt 0.272812 0.784270
vt 0.218553 0.847163
vt 0.630586 0.640228
vt 0.617387 0.591939
vt 0.685421 0.591843
vt 0.619076 0.545232
vt 0.562323 0.596946
vt 0.194377 0.370681
vt 0.184587 0.337406
vt 0.199985 0.320989
vt 0.265267 0.343181
vt 0.640797 0.101936
vt 0.562716 0.090842
vt 0.556105 0.054423
vt 0.639372 0.041104
vt 0.499495 0.066071
vt 0.501238 0.120879
vt 0.351101 0.789185
vt 0.353543 0.847734
vt 0.393204 0.839011
vt 0.392602 0.788990
vt 0.308852 0.286163
vt 0.313027 0.233056
vt 0.235183 0.303999
vt 0.450521 0.278027
vt 0.459566 0.224208
vt 0.508467 0.227295
vt 0.499839 0.309099
vt 0.301925 0.095315
vt 0.327009 0.076585
vt 0.339792 0.086029
vt 0.315401 0.113799
vt 0.350547 0.047416
vt 0.335324 0.044249
vt 0.376426 0.321462
vt 0.294371 0.385452
vt 0.160226 0.171239
vt 0.103902 0.195998
vt 0.103864 0.103594
vt 0.159438 0.101745
vt 0.019372 0.202012
vt 0.044418 0.105521
vt 0.105621 0.025042
vt 0.160677 0.028199
vt 0.048577 0.020315
vt 0.746929 0.212269
vt 0.745528 0.271341
vt 0.650394 0.232653
vt 0.968782 0.012282
vt 0.972992 0.080570
vt 0.847720 0.087417
vt 0.842454 0.019179
vt 0.737598 0.341259
vt 0.825338 0.283794
vt 0.820634 0.340383
vt 0.734256 0.380778
vt 0.821590 0.403628
vt 0.370129 0.253889
vt 0.172798 0.196098
vt 0.234170 0.199404
vt 0.212035 0.232114
vt 0.571409 0.229050
vt 0.560712 0.319185
vt 0.643207 0.333828
vt 0.157145 0.317378
vt 0.118664 0.245686
vt 0.179036 0.237140
vt 0.048215 0.333536
vt 0.023882 0.265430
vt 0.206689 0.149786
vt 0.243675 0.157195
vt 0.427200 0.255414
vt 0.316311 0.204078
vt 0.376382 0.212097
vt 0.179266 0.302613
vt 0.396402 0.739290
vt 0.357998 0.735526
vt 0.569322 0.148971
vt 0.653308 0.137572
vt 0.567455 0.129908
vt 0.505703 0.152594
vt 0.456856 0.180618
vt 0.450423 0.127302
vt 0.204052 0.781328
vt 0.289561 0.721569
vt 0.213706 0.700374
vt 0.977071 0.353810
vt 0.978688 0.410168
vt 0.973768 0.294130
vt 0.214430 0.101364
vt 0.291014 0.037609
vt 0.213375 0.031599
vt 0.346306 0.475694
vt 0.432488 0.498462
vt 0.364194 0.510132
vt 0.360309 0.546363
vt 0.435809 0.225551
vt 0.327449 0.410500
vt 0.271295 0.444617
vt 0.355573 0.617334
vt 0.296700 0.600485
vt 0.440943 0.625676
vt 0.441480 0.653031
vt 0.418283 0.643458
vt 0.423114 0.627647
vt 0.391928 0.375341
vt 0.441380 0.434523
vt 0.419741 0.376834
vt 0.477892 0.405306
vt 0.458794 0.561220
vt 0.489309 0.569032
vt 0.526575 0.496997
vt 0.483155 0.495892
vt 0.517403 0.457064
vt 0.282366 0.572156
vt 0.259434 0.473453
vt 0.303063 0.520716
vt 0.270118 0.651517
vt 0.329211 0.677449
vt 0.900915 0.129292
vt 0.824628 0.139836
vt 0.967800 0.127419
vt 0.828472 0.228381
vt 0.972973 0.235124
vt 0.086480 0.398817
vt 0.213523 0.422180
vt 0.108275 0.462207
vt 0.899995 0.201325
vt 0.974953 0.198600
vt 0.822770 0.175797
vt 0.529403 0.794890
vt 0.529742 0.746803
vt 0.526386 0.830797
vt 0.990050 0.900742
vt 0.941731 0.892374
vt 0.980081 0.754766
vt 0.863676 0.755218
vt 0.879228 0.798240
vt 0.892843 0.695851
vt 0.954397 0.703146
vt 0.908023 0.859015
vt 0.928150 0.636461
vt 0.952245 0.617799
vt 0.985906 0.614621
vt 0.355259 0.880971
vt 0.407139 0.966291
vt 0.309420 0.972858
vt 0.309220 0.972837
vt 0.355104 0.880925
vt 0.407048 0.966275
vt 0.355195 0.881107
vt 0.407073 0.966308
vt 0.309336 0.972826
vt 0.355099 0.881012
vt 0.407068 0.966269
vt 0.309326 0.972873
vt 0.309296 0.972905
vt 0.355024 0.881003
vt 0.407147 0.966279
vt 0.309341 0.972854
vt 0.355157 0.881106
vt 0.407077 0.966305
vt 0.354964 0.881053
vt 0.407032 0.966320
vt 0.309316 0.972825
vt 0.355128 0.881007
vt 0.407086 0.966317
vt 0.309336 0.972920
vt 0.355150 0.881206
vt 0.406974 0.966353
vt 0.309316 0.972775
vt 0.355097 0.881149
vt 0.406983 0.966294
vt 0.309316 0.972786
vt 0.355110 0.881219
vt 0.407035 0.966338
vt 0.309263 0.972707
vt 0.355115 0.881138
vt 0.407053 0.966274
vt 0.309256 0.972816
vt 0.309290 0.972761
vt 0.355042 0.881220
vt 0.407066 0.966316
vt 0.355188 0.881092
vt 0.407064 0.966301
vt 0.309273 0.972808
vt 0.355219 0.881210
vt 0.407073 0.966331
vt 0.309314 0.972843
vt 0.407011 0.966300
vt 0.309332 0.972771
vt 0.355074 0.881129
vt 0.400487 0.716634
vt 0.440752 0.077975
vt 0.569991 0.846044
vt 0.610241 0.803200
vt 0.898869 0.896022
vt 0.864922 0.933810
vt 0.951497 0.956014
vt 0.974817 0.937780
vt 0.980525 0.970650
vt 0.844500 0.955182
vt 0.935820 0.975486
vt 0.737319 0.882892
vt 0.713151 0.912602
vt 0.668659 0.686328
vt 0.596005 0.717255
vt 0.669642 0.725391
vt 0.551365 0.359856
vt 0.494042 0.345161
vt 0.452814 0.334815
vt 0.442694 0.314447
vt 0.587751 0.404126
vt 0.573733 0.389150
vt 0.606562 0.389057
vt 0.608158 0.372758
vt 0.756146 0.424326
vt 0.670031 0.432289
vt 0.584872 0.370798
vt 0.711706 0.468535
vt 0.724846 0.479121
vt 0.681811 0.496270
vt 0.679607 0.488746
vt 0.792892 0.435938
vt 0.762437 0.457422
vt 0.735928 0.448241
vt 0.712557 0.447017
vt 0.683066 0.466867
vt 0.656492 0.500766
vt 0.673616 0.485216
vt 0.698366 0.462725
vt 0.614124 0.503129
vt 0.605400 0.487144
vt 0.577736 0.514013
vt 0.575009 0.503235
vt 0.563991 0.509164
vt 0.566138 0.492154
vt 0.589503 0.469188
vt 0.612986 0.428867
vt 0.605353 0.412893
vt 0.726223 0.029969
vt 0.739412 0.103536
vt 0.744745 0.147793
vt 0.364751 0.715993
vt 0.364081 0.715793
vt 0.310805 0.647196
vt 0.046699 0.767462
vt 0.057210 0.827225
vt 0.137291 0.781179
vt 0.066354 0.660604
vt 0.150823 0.684136
vt 0.167251 0.634145
vt 0.083026 0.604103
vt 0.847064 0.902543
vt 0.852915 0.872220
vt 0.051587 0.724174
vt 0.143494 0.848076
vt 0.059908 0.864112
vt 0.091758 0.905174
vt 0.163531 0.896207
vt 0.231280 0.872741
vt 0.060252 0.920244
vt 0.095873 0.945650
vt 0.114245 0.939533
vt 0.143473 0.972798
vt 0.149622 0.968759
vt 0.137001 0.939634
vt 0.154534 0.944356
vt 0.173299 0.983678
vt 0.174540 0.984339
vt 0.156051 0.965829
vt 0.190161 0.965148
vt 0.210622 0.949215
vt 0.242715 0.980827
vt 0.246013 0.969513
vt 0.260731 0.975313
vt 0.252882 0.954959
vt 0.239297 0.931395
vt 0.236669 0.896354
vt 0.245895 0.875814
vt 0.255226 0.535691
vt 0.218876 0.549123
vt 0.206202 0.508269
vt 0.235064 0.481321
vt 0.114644 0.489570
vt 0.170692 0.476451
vt 0.159386 0.508457
vt 0.120818 0.522309
vt 0.238588 0.603766
vt 0.207125 0.602370
vt 0.173584 0.570809
vt 0.170205 0.547637
vt 0.145034 0.552634
vt 0.124917 0.563368
vt 0.166882 0.598727
vt 0.722755 0.708774
vt 0.799942 0.821627
vt 0.736641 0.739474
vt 0.368854 0.697032
vt 0.383302 0.681616
vt 0.150659 0.576721
vt 0.141468 0.590595
vt 0.006239 0.888000
vt 0.871154 0.649579
vt 0.814748 0.632802
vt 0.863356 0.579407
vt 0.937329 0.573570
vt 0.831775 0.519840
vt 0.894433 0.492162
vt 0.789692 0.480606
vt 0.842324 0.445624
vt 0.832212 0.729051
vt 0.787543 0.692844
vt 0.743614 0.618073
vt 0.780723 0.586920
vt 0.748113 0.551211
vt 0.722995 0.516998
vt 0.724404 0.656347
vt 0.466200 0.637927
vt 0.467635 0.662232
vt 0.433439 0.360019
vt 0.355195 0.881107
vt 0.403530 0.960488
vt 0.403688 0.966534
vt 0.309336 0.972826
vt 0.355074 0.881129
vt 0.407011 0.966300
vt 0.313207 0.972514
vt 0.313490 0.964441
vt 0.363434 0.715346
vt 0.011632 0.140838
vt 0.362680 0.662198
vt 0.224579 0.269737
vt 0.187740 0.284924
vt 0.214208 0.292522
vt 0.230758 0.283407
vt 0.274852 0.280751
vt 0.218553 0.847163
vt 0.272812 0.784270
vt 0.630586 0.640228
vt 0.685421 0.591843
vt 0.617387 0.591939
vt 0.619076 0.545232
vt 0.562323 0.596946
vt 0.194377 0.370681
vt 0.265267 0.343181
vt 0.199985 0.320989
vt 0.184587 0.337406
vt 0.640797 0.101936
vt 0.562716 0.090842
vt 0.501238 0.120879
vt 0.351101 0.789185
vt 0.392602 0.788990
vt 0.308852 0.286163
vt 0.313027 0.233056
vt 0.235183 0.303999
vt 0.450521 0.278027
vt 0.499839 0.309099
vt 0.508467 0.227295
vt 0.459566 0.224208
vt 0.301925 0.095315
vt 0.315401 0.113799
vt 0.339792 0.086029
vt 0.327009 0.076585
vt 0.160226 0.171239
vt 0.159438 0.101745
vt 0.103864 0.103594
vt 0.103902 0.195998
vt 0.044418 0.105521
vt 0.019372 0.202012
vt 0.746929 0.212269
vt 0.650394 0.232653
vt 0.745528 0.271341
vt 0.847720 0.087417
vt 0.972992 0.080570
vt 0.737598 0.341259
vt 0.820634 0.340383
vt 0.825338 0.283794
vt 0.734256 0.380778
vt 0.370129 0.253889
vt 0.172798 0.196098
vt 0.212035 0.232114
vt 0.234170 0.199404
vt 0.560712 0.319185
vt 0.571409 0.229050
vt 0.643207 0.333828
vt 0.179036 0.237140
vt 0.118664 0.245686
vt 0.157145 0.317378
vt 0.023882 0.265430
vt 0.048215 0.333536
vt 0.243675 0.157195
vt 0.206689 0.149786
vt 0.376382 0.212097
vt 0.316311 0.204078
vt 0.179266 0.302613
vt 0.357998 0.735526
vt 0.396402 0.739290
vt 0.653308 0.137572
vt 0.569322 0.148971
vt 0.567455 0.129908
vt 0.505703 0.152594
vt 0.456856 0.180618
vt 0.450423 0.127302
vt 0.204052 0.781328
vt 0.213706 0.700374
vt 0.289561 0.721569
vt 0.977071 0.353810
vt 0.973768 0.294130
vt 0.214430 0.101364
vt 0.346306 0.475694
vt 0.364194 0.510132
vt 0.432488 0.498462
vt 0.360309 0.546363
vt 0.327449 0.410500
vt 0.271295 0.444617
vt 0.355573 0.617334
vt 0.296700 0.600485
vt 0.440943 0.625676
vt 0.423114 0.627647
vt 0.418283 0.643458
vt 0.441480 0.653031
vt 0.391928 0.375341
vt 0.441380 0.434523
vt 0.419741 0.376834
vt 0.477892 0.405306
vt 0.489309 0.569032
vt 0.458794 0.561220
vt 0.526575 0.496997
vt 0.517403 0.457064
vt 0.483155 0.495892
vt 0.282366 0.572156
vt 0.259434 0.473453
vt 0.303063 0.520716
vt 0.329211 0.677449
vt 0.824628 0.139836
vt 0.900915 0.129292
vt 0.967800 0.127419
vt 0.828472 0.228381
vt 0.972973 0.235124
vt 0.086480 0.398817
vt 0.974953 0.198600
vt 0.899995 0.201325
vt 0.822770 0.175797
vt 0.529742 0.746803
vt 0.529403 0.794890
vt 0.941731 0.892374
vt 0.863676 0.755218
vt 0.879228 0.798240
vt 0.892843 0.695851
vt 0.908023 0.859015
vt 0.928150 0.636461
vt 0.952245 0.617799
vt 0.355259 0.880971
vt 0.309420 0.972858
vt 0.407139 0.966291
vt 0.309220 0.972837
vt 0.407048 0.966275
vt 0.355104 0.880925
vt 0.355195 0.881107
vt 0.309336 0.972826
vt 0.407073 0.966308
vt 0.355099 0.881012
vt 0.309326 0.972873
vt 0.407068 0.966269
vt 0.309296 0.972905
vt 0.407147 0.966279
vt 0.355024 0.881003
vt 0.309341 0.972854
vt 0.407077 0.966305
vt 0.355157 0.881106
vt 0.354964 0.881053
vt 0.309316 0.972825
vt 0.407032 0.966320
vt 0.355128 0.881007
vt 0.309336 0.972920
vt 0.407086 0.966317
vt 0.355150 0.881206
vt 0.309316 0.972775
vt 0.406974 0.966353
vt 0.355097 0.881149
vt 0.309316 0.972786
vt 0.406983 0.966294
vt 0.355110 0.881219
vt 0.309263 0.972707
vt 0.407035 0.966338
vt 0.355115 0.881138
vt 0.309256 0.972816
vt 0.407053 0.966274
vt 0.309290 0.972761
vt 0.407066 0.966316
vt 0.355042 0.881220
vt 0.355188 0.881092
vt 0.309273 0.972808
vt 0.407064 0.966301
vt 0.355219 0.881210
vt 0.309314 0.972843
vt 0.407073 0.966331
vt 0.407011 0.966300
vt 0.355074 0.881129
vt 0.309332 0.972771
vt 0.610241 0.803200
vt 0.951497 0.956014
vt 0.864922 0.933810
vt 0.737319 0.882892
vt 0.669642 0.725391
vt 0.442694 0.314447
vt 0.606562 0.389057
vt 0.608158 0.372758
vt 0.756146 0.424326
vt 0.670031 0.432289
vt 0.711706 0.468535
vt 0.679607 0.488746
vt 0.735928 0.448241
vt 0.605400 0.487144
vt 0.575009 0.503235
vt 0.739412 0.103536
vt 0.744745 0.147793
vt 0.046699 0.767462
vt 0.137291 0.781179
vt 0.057210 0.827225
vt 0.066354 0.660604
vt 0.150823 0.684136
vt 0.051587 0.724174
vt 0.143494 0.848076
vt 0.163531 0.896207
vt 0.091758 0.905174
vt 0.059908 0.864112
vt 0.231280 0.872741
vt 0.114245 0.939533
vt 0.149622 0.968759
vt 0.173299 0.983678
vt 0.210622 0.949215
vt 0.246013 0.969513
vt 0.255226 0.535691
vt 0.235064 0.481321
vt 0.206202 0.508269
vt 0.218876 0.549123
vt 0.114644 0.489570
vt 0.120818 0.522309
vt 0.159386 0.508457
vt 0.170692 0.476451
vt 0.238588 0.603766
vt 0.207125 0.602370
vt 0.170205 0.547637
vt 0.173584 0.570809
vt 0.145034 0.552634
vt 0.124917 0.563368
vt 0.166882 0.598727
vt 0.150659 0.576721
vt 0.141468 0.590595
vt 0.871154 0.649579
vt 0.937329 0.573570
vt 0.863356 0.579407
vt 0.814748 0.632802
vt 0.894433 0.492162
vt 0.831775 0.519840
vt 0.842324 0.445624
vt 0.789692 0.480606
vt 0.832212 0.729051
vt 0.787543 0.692844
vt 0.780723 0.586920
vt 0.743614 0.618073
vt 0.748113 0.551211
vt 0.722995 0.516998
vt 0.724404 0.656347
vt 0.466200 0.637927
vt 0.467635 0.662232
vt 0.433439 0.360019
vt 0.355195 0.881107
vt 0.309336 0.972826
vt 0.355074 0.881129
vt 0.407011 0.966300
vt 0.011632 0.140838
vn -0.76509 0.56263 -0.31319
vn -0.74473 0.32778 -0.58133
vn -0.94075 0.31571 -0.12377
vn -0.82969 0.38125 -0.40775
vn -0.72127 0.60433 -0.33846
vn 0.00000 0.54221 0.84024
vn 0.00000 0.98346 0.18110
vn -0.87094 0.45431 0.18724
vn -0.77947 0.50869 0.36559
vn -0.68778 0.64634 -0.33047
vn -0.78292 0.51716 -0.34581
vn -0.75941 0.50986 -0.40415
vn -0.85777 0.37445 -0.35216
vn -0.80332 0.52239 -0.28598
vn -0.18530 0.98231 -0.02712
vn 0.14695 0.96955 0.19591
vn -0.35777 0.81114 -0.46266
vn -0.26419 0.87494 -0.40581
vn -0.44950 -0.89274 -0.03105
vn -0.01673 -0.99428 0.10544
vn 0.00000 -0.99739 0.07215
vn 0.00000 -0.99887 0.04754
vn 0.00000 -0.98358 0.18049
vn -0.48175 -0.80044 0.35667
vn -0.88979 0.42323 0.17075
vn 0.00000 0.98672 0.16243
vn -0.00000 0.99237 0.12326
vn -0.94708 0.29220 0.13287
vn -0.42092 0.67342 -0.60773
vn -0.80312 0.23746 -0.54645
vn -0.81476 0.31547 -0.48647
vn -0.71436 0.66671 0.21257
vn -0.93967 0.26320 0.21849
vn -0.94821 0.24559 0.20146
vn -0.53888 0.82447 0.17280
vn -0.46980 -0.76025 -0.44867
vn -0.17671 -0.77183 -0.61078
vn -0.42150 -0.00494 -0.90681
vn -0.64364 0.41991 -0.63985
vn 0.00000 -0.20398 -0.97898
vn -0.00000 -0.77552 -0.63132
vn 0.00000 0.75120 -0.66008
vn 0.00000 0.95441 -0.29849
vn -0.79151 -0.58720 -0.16943
vn -0.92232 -0.34038 -0.18292
vn -0.50841 -0.83996 -0.18968
vn -0.42927 -0.87896 -0.20775
vn -0.85151 -0.19685 -0.48599
vn -0.37215 -0.89853 -0.23270
vn -0.00000 -0.98253 -0.18611
vn -0.00000 -0.97212 -0.23447
vn -0.00000 -0.99427 -0.10692
vn -0.98146 -0.03830 0.18778
vn -0.83682 0.53119 0.13257
vn -0.95651 0.22069 0.19074
vn -0.00000 -0.99427 -0.10692
vn -0.37215 -0.89853 -0.23270
vn -0.30242 -0.95290 -0.02284
vn -0.00000 -0.99990 -0.01421
vn -0.51686 0.85233 0.07987
vn -0.76542 0.64335 0.01503
vn -0.47877 0.87791 -0.00699
vn -0.87497 0.48410 0.00846
vn 0.00000 0.97896 -0.20407
vn -0.44841 0.34306 -0.82537
vn -0.96157 -0.10859 -0.25219
vn -0.75804 -0.56629 -0.32356
vn -0.95686 0.14257 -0.25316
vn -0.95813 0.24338 0.15083
vn -0.53628 0.82259 0.18907
vn -0.61962 0.76304 0.18399
vn -0.71679 0.43307 0.54650
vn -0.96800 0.22703 -0.10693
vn -0.96924 0.20548 -0.13548
vn -0.79005 0.60838 -0.07548
vn -0.94517 0.29827 -0.13301
vn -0.74515 -0.58486 -0.32046
vn -0.66930 0.47992 -0.56719
vn 0.00000 0.19227 -0.98134
vn -0.64152 -0.54154 -0.54330
vn -0.41419 -0.52953 -0.74030
vn -0.93120 0.02715 -0.36350
vn -0.81339 -0.55361 0.17863
vn -0.79062 -0.57656 0.20616
vn -0.92425 -0.36076 0.12497
vn -0.82661 -0.54536 0.13892
vn -0.99677 -0.07347 0.03251
vn -0.86514 -0.46164 0.19600
vn -0.91473 -0.30526 0.26475
vn -0.66420 -0.70952 0.23543
vn -0.95788 0.22912 0.17312
vn -0.73840 -0.65193 0.17247
vn -0.75139 -0.64066 0.15798
vn -0.35803 0.93129 -0.06723
vn 0.00000 0.99495 -0.10042
vn -0.79005 0.60838 -0.07548
vn -0.35901 -0.88923 -0.28352
vn 0.00000 -0.92150 -0.38837
vn -0.00000 -0.96158 -0.27453
vn -0.09184 -0.99504 -0.03815
vn -0.29680 0.00832 -0.95490
vn -0.54267 0.02662 -0.83952
vn -0.04426 0.99882 -0.01994
vn -0.00000 -0.76938 -0.63879
vn -0.15549 0.37761 0.91282
vn -0.09308 -0.03661 0.99499
vn -0.15549 0.37761 0.91282
vn -0.09308 -0.03661 0.99499
vn -0.19904 0.39535 0.89671
vn -0.13467 -0.88494 0.44580
vn 0.23124 -0.74689 0.62344
vn 0.20133 0.61115 0.76548
vn 0.23124 -0.74689 0.62344
vn -0.10779 -0.99337 -0.04003
vn -0.13467 -0.88494 0.44580
vn -0.26772 -0.96246 -0.04476
vn -0.25014 0.96649 0.05763
vn -0.81636 0.57684 -0.02861
vn -0.85151 -0.19685 -0.48599
vn -0.59473 -0.26120 -0.76031
vn -0.30584 -0.78970 -0.53183
vn -0.86543 0.01565 0.50078
vn -0.86543 0.01565 0.50078
vn -0.85275 0.04297 -0.52055
vn 0.00000 -0.99707 0.07650
vn -0.94217 -0.31678 0.10941
vn -0.26772 -0.96246 -0.04476
vn -0.54591 -0.77151 0.32673
vn -0.30584 -0.78970 -0.53183
vn -0.95460 0.29733 0.01842
vn -0.94517 0.29827 -0.13301
vn -0.35803 0.93129 -0.06723
vn 0.00000 0.99204 -0.12593
vn 0.00000 0.99495 -0.10042
vn -0.81636 0.57684 -0.02861
vn -0.85151 -0.19685 -0.48599
vn -0.94384 -0.02361 0.32956
vn -0.98182 0.10332 0.15922
vn -0.87360 -0.46317 0.14933
vn 0.00000 0.99981 0.01954
vn -0.00000 -0.76938 -0.63879
vn -0.41419 -0.52953 -0.74030
vn 0.00000 -0.94791 -0.31854
vn -0.96157 -0.10859 -0.25219
vn -0.75804 -0.56629 -0.32356
vn -0.66930 0.47992 -0.56719
vn 0.00000 0.99547 -0.09509
vn -0.64152 -0.54154 -0.54330
vn -0.64364 0.41991 -0.63985
vn -0.42150 -0.00494 -0.90681
vn 0.00000 -0.20398 -0.97898
vn -0.69261 -0.10191 -0.71408
vn -0.69261 -0.10191 -0.71408
vn -0.77871 -0.13997 -0.61157
vn -0.49091 -0.03284 -0.87059
vn -0.49091 -0.03284 -0.87059
vn -0.38216 -0.00473 -0.92408
vn -0.26750 0.02345 -0.96327
vn -0.26750 0.02345 -0.96327
vn -0.38216 -0.00473 -0.92408
vn -0.84973 -0.17531 -0.49722
vn -0.77871 -0.13997 -0.61157
vn -0.86486 -0.13231 -0.48427
vn -0.86771 -0.07347 -0.49161
vn -0.87804 -0.08901 -0.47024
vn -0.86486 -0.13231 -0.48427
vn -0.85668 -0.05787 -0.51259
vn -0.85668 -0.05787 -0.51259
vn -0.86771 -0.07347 -0.49161
vn -0.82488 -0.02918 -0.56455
vn -0.82488 -0.02918 -0.56455
vn -0.87604 -0.03189 -0.48119
vn -0.91881 -0.03429 -0.39322
vn -0.87604 -0.03189 -0.48119
vn -0.91881 -0.03429 -0.39322
vn -0.91516 0.03821 -0.40127
vn -0.91516 0.03821 -0.40127
vn -0.92370 -0.00898 -0.38301
vn -0.92981 -0.05615 -0.36374
vn -0.92370 -0.00898 -0.38301
vn -0.92981 -0.05615 -0.36374
vn -0.91768 0.09836 -0.38496
vn -0.91768 0.09836 -0.38496
vn -0.86435 0.02414 -0.50232
vn -0.79189 -0.05061 -0.60857
vn -0.86435 0.02414 -0.50232
vn -0.82286 -0.01906 -0.56793
vn -0.72017 -0.02726 -0.69326
vn -0.85086 0.01255 -0.52524
vn -0.82286 -0.01906 -0.56793
vn -0.55571 -0.06579 -0.82877
vn -0.72017 -0.02726 -0.69326
vn -0.57130 -0.11388 -0.81280
vn -0.58528 -0.16165 -0.79456
vn -0.57130 -0.11388 -0.81280
vn -0.45007 -0.14056 -0.88186
vn -0.45007 -0.14056 -0.88186
vn -0.30301 -0.11577 -0.94593
vn -0.30301 -0.11577 -0.94593
vn 0.00000 -0.98600 0.16676
vn -0.00000 -0.98365 0.18009
vn -0.00000 0.87107 -0.49116
vn -0.99925 0.02818 0.02653
vn 0.00000 -0.97138 0.23753
vn -0.99971 0.02350 -0.00553
vn -0.99728 0.05713 0.04662
vn 0.00000 -0.52103 0.85354
vn 0.00000 0.64885 0.76092
vn 0.00000 0.96267 -0.27067
vn 0.00000 0.99999 -0.00512
vn -0.99888 0.04467 0.01580
vn 0.00000 0.92563 -0.37843
vn -0.00000 -0.97467 -0.22364
vn 0.00000 -0.97424 -0.22551
vn -0.99788 -0.06424 0.01083
vn 0.00000 0.96708 0.25448
vn 0.00000 0.98817 0.15337
vn 0.00000 0.99990 -0.01429
vn -0.77685 0.62961 0.00961
vn 0.00000 0.67857 0.73453
vn 0.00000 0.00127 1.00000
vn -0.95119 0.09544 0.29347
vn -0.58404 0.76996 0.25704
vn -0.97192 0.20694 -0.11201
vn -0.97592 0.21580 0.03174
vn -0.00000 0.47063 0.88233
vn -0.99186 0.04220 0.12010
vn -0.00000 0.81564 -0.57856
vn -0.00000 0.91150 -0.41130
vn -0.96893 -0.09500 0.22838
vn 0.00000 0.70659 -0.70762
vn -0.00000 0.77576 -0.63103
vn -0.99035 0.13847 -0.00646
vn -0.00000 0.00740 0.99997
vn 0.00000 0.81272 -0.58266
vn 0.00000 0.00316 0.99999
vn 0.00000 -0.70871 0.70550
vn 0.00000 -0.63172 0.77520
vn 0.00000 0.86779 -0.49694
vn -0.99640 0.06921 0.04892
vn 0.00000 0.98786 -0.15532
vn -0.98997 0.04888 0.13258
vn 0.00000 0.55297 0.83320
vn -0.00000 -0.30620 0.95197
vn 0.00000 -0.54513 0.83835
vn -0.00000 -0.13244 0.99119
vn 0.00000 0.70108 0.71309
vn 0.00000 -0.99959 0.02854
vn -0.44647 -0.89239 0.06553
vn -0.81251 -0.55183 0.18789
vn 0.00000 -0.96328 0.26849
vn 0.00000 -0.95743 0.28865
vn 0.00000 -0.96268 -0.27064
vn -0.93967 0.26320 0.21849
vn -0.71436 0.66671 0.21257
vn -0.96686 0.14047 0.21319
vn -0.66420 -0.70952 0.23543
vn -0.73802 -0.65396 0.16634
vn -0.00000 -0.98030 0.19750
vn -0.00000 -0.98365 0.18009
vn 0.00000 -0.84725 0.53119
vn 0.00000 -0.30950 0.95090
vn -0.91473 -0.30526 0.26475
vn -0.88465 0.44713 0.13218
vn -0.77685 0.62961 0.00961
vn -0.96061 0.26860 -0.07135
vn -0.97403 0.21909 0.05711
vn -0.91035 0.06991 0.40789
vn 0.00000 0.78077 -0.62482
vn 0.00000 0.76596 -0.64289
vn -0.98396 0.17434 -0.03773
vn 0.00000 0.90013 -0.43562
vn -0.99007 0.00494 0.14047
vn 0.00000 -0.06596 0.99782
vn -0.00000 0.91592 -0.40136
vn -0.97074 0.16898 0.17062
vn 0.00000 0.73609 0.67688
vn -0.00000 -0.65921 0.75196
vn -0.00000 0.93697 -0.34940
vn -0.99590 0.06583 0.06197
vn 0.00000 0.99971 0.02393
vn -0.99724 0.01609 0.07251
vn 0.00000 0.43255 0.90161
vn 0.00000 -0.41218 0.91110
vn 0.00000 -0.33277 0.94301
vn -0.00000 0.27485 0.96149
vn 0.00000 -0.22632 0.97405
vn 0.14695 0.96955 0.19591
vn 0.35309 0.83530 0.42143
vn -0.38959 0.67555 -0.62598
vn -0.35777 0.81114 -0.46266
vn -0.71679 0.43307 0.54650
vn -0.93120 0.02715 -0.36350
vn -0.80784 -0.53223 -0.25322
vn 0.13794 -0.42185 0.89611
vn -0.71679 0.43307 0.54650
vn 0.13794 -0.42185 0.89611
vn 0.22291 0.78664 0.57576
vn -0.58312 0.65500 -0.48057
vn -0.55804 -0.78579 -0.26668
vn 0.26811 -0.52570 0.80732
vn 0.26811 -0.52570 0.80732
vn 0.00000 -0.63897 0.76923
vn -0.00000 -0.63052 0.77617
vn -0.00000 -0.51319 0.85828
vn 0.00000 0.29145 0.95659
vn 0.00000 -0.06948 0.99758
vn -0.85362 0.51206 -0.09555
vn -0.43137 -0.21488 0.87621
vn 0.00000 0.99990 -0.01429
vn -0.99677 -0.07347 0.03251
vn -0.52799 0.84817 -0.04285
vn -0.66659 -0.42578 -0.61185
vn -0.44950 -0.89274 -0.03105
vn 0.34321 -0.92625 0.15581
vn -0.01673 -0.99428 0.10544
vn 0.21406 0.23049 0.94924
vn -0.48175 -0.80044 0.35667
vn -0.48175 -0.80044 0.35667
vn 0.21406 0.23049 0.94924
vn -0.89122 -0.43716 0.12091
vn -0.78995 -0.43974 -0.42732
vn -0.89122 -0.43716 0.12091
vn -0.36519 -0.07052 0.92826
vn -0.36519 -0.07052 0.92826
vn -0.94384 -0.02361 0.32956
vn -0.54591 -0.77151 0.32673
vn -0.54591 -0.77151 0.32673
vn -0.26752 0.02347 -0.96327
vn -0.00000 0.02436 -0.99970
vn -0.00000 0.02435 -0.99970
vn -0.26749 0.02346 -0.96327
vn -0.30299 -0.11576 -0.94594
vn -0.30301 -0.11577 -0.94593
vn 0.00000 -0.12147 -0.99259
vn 0.00000 -0.12147 -0.99260
vn 0.00000 -0.90033 0.43520
vn -0.30584 -0.78970 -0.53183
vn 0.00000 -0.95735 0.28893
vn 0.76509 0.56263 -0.31319
vn 0.94075 0.31571 -0.12377
vn 0.74473 0.32778 -0.58133
vn 0.82969 0.38125 -0.40775
vn 0.72127 0.60433 -0.33846
vn 0.77947 0.50869 0.36559
vn 0.87094 0.45431 0.18724
vn 0.68778 0.64634 -0.33047
vn 0.75941 0.50986 -0.40415
vn 0.78292 0.51716 -0.34581
vn 0.85777 0.37445 -0.35216
vn 0.80332 0.52239 -0.28598
vn 0.18530 0.98231 -0.02712
vn 0.26419 0.87494 -0.40581
vn 0.35777 0.81114 -0.46266
vn -0.14695 0.96955 0.19591
vn 0.44950 -0.89274 -0.03105
vn 0.01673 -0.99428 0.10544
vn 0.48175 -0.80044 0.35667
vn 0.88979 0.42323 0.17075
vn 0.94708 0.29220 0.13287
vn 0.42092 0.67342 -0.60773
vn 0.80312 0.23746 -0.54645
vn 0.81476 0.31547 -0.48647
vn 0.71436 0.66671 0.21257
vn 0.53888 0.82447 0.17280
vn 0.94821 0.24559 0.20146
vn 0.93967 0.26320 0.21849
vn 0.46980 -0.76025 -0.44867
vn 0.64364 0.41991 -0.63985
vn 0.42150 -0.00494 -0.90681
vn 0.17671 -0.77183 -0.61078
vn 0.79151 -0.58720 -0.16943
vn 0.42926 -0.87896 -0.20775
vn 0.50841 -0.83996 -0.18968
vn 0.92232 -0.34038 -0.18292
vn 0.37215 -0.89853 -0.23270
vn 0.85151 -0.19685 -0.48599
vn 0.98146 -0.03830 0.18778
vn 0.95651 0.22069 0.19074
vn 0.83682 0.53119 0.13257
vn 0.30242 -0.95290 -0.02284
vn 0.37215 -0.89853 -0.23270
vn 0.51686 0.85233 0.07987
vn 0.47877 0.87791 -0.00699
vn 0.76542 0.64335 0.01503
vn 0.87497 0.48410 0.00846
vn 0.44841 0.34306 -0.82537
vn 0.96157 -0.10859 -0.25219
vn 0.95686 0.14257 -0.25316
vn 0.75804 -0.56629 -0.32356
vn 0.53628 0.82259 0.18907
vn 0.95813 0.24338 0.15083
vn 0.61962 0.76304 0.18399
vn 0.96924 0.20548 -0.13548
vn 0.96800 0.22703 -0.10693
vn 0.71679 0.43307 0.54650
vn 0.94517 0.29827 -0.13301
vn 0.79005 0.60838 -0.07548
vn 0.66930 0.47992 -0.56719
vn 0.74515 -0.58486 -0.32046
vn 0.41419 -0.52953 -0.74030
vn 0.64152 -0.54154 -0.54330
vn 0.93120 0.02715 -0.36350
vn 0.79062 -0.57656 0.20616
vn 0.81339 -0.55361 0.17863
vn 0.82661 -0.54536 0.13892
vn 0.92425 -0.36076 0.12497
vn 0.99677 -0.07347 0.03251
vn 0.86514 -0.46164 0.19600
vn 0.91473 -0.30526 0.26475
vn 0.66420 -0.70952 0.23543
vn 0.95788 0.22912 0.17312
vn 0.75139 -0.64066 0.15798
vn 0.73840 -0.65193 0.17247
vn 0.35803 0.93129 -0.06723
vn 0.79005 0.60838 -0.07548
vn 0.35901 -0.88923 -0.28352
vn 0.09184 -0.99504 -0.03815
vn 0.54267 0.02662 -0.83952
vn 0.29680 0.00832 -0.95490
vn 0.04426 0.99882 -0.01994
vn 0.15549 0.37761 0.91282
vn 0.09308 -0.03661 0.99499
vn 0.15549 0.37761 0.91282
vn 0.09308 -0.03661 0.99499
vn 0.19904 0.39535 0.89671
vn -0.20133 0.61115 0.76548
vn -0.23124 -0.74689 0.62344
vn 0.13467 -0.88494 0.44580
vn -0.23124 -0.74689 0.62344
vn 0.10779 -0.99337 -0.04003
vn 0.13467 -0.88494 0.44580
vn 0.26772 -0.96246 -0.04476
vn 0.81636 0.57684 -0.02861
vn 0.25014 0.96649 0.05763
vn 0.85151 -0.19685 -0.48599
vn 0.30584 -0.78969 -0.53183
vn 0.59473 -0.26120 -0.76031
vn 0.86543 0.01565 0.50078
vn 0.86543 0.01565 0.50078
vn 0.85275 0.04297 -0.52055
vn 0.94217 -0.31678 0.10941
vn 0.54591 -0.77151 0.32673
vn 0.26772 -0.96246 -0.04476
vn 0.30584 -0.78969 -0.53183
vn 0.95460 0.29733 0.01842
vn 0.94517 0.29827 -0.13301
vn 0.35803 0.93129 -0.06723
vn 0.85151 -0.19685 -0.48599
vn 0.81636 0.57684 -0.02861
vn 0.94384 -0.02361 0.32956
vn 0.87360 -0.46317 0.14933
vn 0.98182 0.10332 0.15922
vn 0.41419 -0.52953 -0.74030
vn 0.96157 -0.10859 -0.25219
vn 0.75804 -0.56629 -0.32356
vn 0.66930 0.47992 -0.56719
vn 0.64152 -0.54154 -0.54330
vn 0.64364 0.41991 -0.63985
vn 0.42150 -0.00494 -0.90681
vn 0.69261 -0.10191 -0.71408
vn 0.77871 -0.13997 -0.61157
vn 0.69261 -0.10191 -0.71408
vn 0.49091 -0.03284 -0.87059
vn 0.38216 -0.00473 -0.92408
vn 0.49091 -0.03284 -0.87059
vn 0.26750 0.02345 -0.96327
vn 0.38216 -0.00473 -0.92408
vn 0.26750 0.02345 -0.96327
vn 0.84973 -0.17531 -0.49722
vn 0.86486 -0.13231 -0.48427
vn 0.77871 -0.13997 -0.61157
vn 0.86771 -0.07347 -0.49161
vn 0.86486 -0.13231 -0.48427
vn 0.87804 -0.08901 -0.47024
vn 0.85668 -0.05787 -0.51259
vn 0.86771 -0.07347 -0.49161
vn 0.85668 -0.05787 -0.51259
vn 0.82488 -0.02918 -0.56455
vn 0.87604 -0.03189 -0.48119
vn 0.82488 -0.02918 -0.56455
vn 0.91881 -0.03429 -0.39322
vn 0.91881 -0.03429 -0.39322
vn 0.87604 -0.03189 -0.48119
vn 0.91516 0.03821 -0.40127
vn 0.92370 -0.00898 -0.38301
vn 0.91516 0.03821 -0.40127
vn 0.92981 -0.05615 -0.36374
vn 0.92981 -0.05615 -0.36374
vn 0.92370 -0.00898 -0.38301
vn 0.91768 0.09836 -0.38496
vn 0.86435 0.02414 -0.50232
vn 0.91768 0.09836 -0.38496
vn 0.79189 -0.05061 -0.60857
vn 0.82286 -0.01906 -0.56793
vn 0.86435 0.02414 -0.50232
vn 0.72017 -0.02726 -0.69326
vn 0.82286 -0.01906 -0.56793
vn 0.85086 0.01255 -0.52524
vn 0.55571 -0.06579 -0.82877
vn 0.57130 -0.11388 -0.81280
vn 0.72017 -0.02726 -0.69326
vn 0.58528 -0.16165 -0.79456
vn 0.45007 -0.14056 -0.88186
vn 0.57130 -0.11388 -0.81280
vn 0.45007 -0.14056 -0.88186
vn 0.30301 -0.11577 -0.94593
vn 0.30301 -0.11577 -0.94593
vn 0.99925 0.02818 0.02653
vn 0.99728 0.05713 0.04662
vn 0.99971 0.02350 -0.00553
vn 0.99888 0.04467 0.01580
vn 0.99788 -0.06424 0.01083
vn 0.77685 0.62961 0.00961
vn 0.95119 0.09544 0.29347
vn 0.58404 0.76996 0.25704
vn 0.97192 0.20694 -0.11201
vn 0.97592 0.21580 0.03174
vn 0.99186 0.04220 0.12010
vn 0.96893 -0.09500 0.22838
vn 0.99035 0.13847 -0.00646
vn 0.99640 0.06921 0.04892
vn 0.98997 0.04888 0.13258
vn 0.44647 -0.89239 0.06553
vn 0.81251 -0.55183 0.18789
vn 0.93967 0.26320 0.21849
vn 0.96686 0.14047 0.21319
vn 0.71436 0.66671 0.21257
vn 0.66420 -0.70952 0.23543
vn 0.73802 -0.65396 0.16634
vn 0.91473 -0.30526 0.26475
vn 0.88465 0.44713 0.13218
vn 0.97403 0.21909 0.05711
vn 0.96061 0.26860 -0.07135
vn 0.77685 0.62961 0.00961
vn 0.91035 0.06991 0.40789
vn 0.98396 0.17434 -0.03773
vn 0.99007 0.00494 0.14047
vn 0.97074 0.16898 0.17062
vn 0.99590 0.06583 0.06197
vn 0.99724 0.01609 0.07251
vn -0.14695 0.96955 0.19591
vn 0.35777 0.81114 -0.46266
vn 0.38959 0.67555 -0.62598
vn -0.35309 0.83530 0.42143
vn 0.71679 0.43307 0.54650
vn -0.13794 -0.42185 0.89611
vn 0.80784 -0.53223 -0.25322
vn 0.93120 0.02715 -0.36350
vn 0.71679 0.43307 0.54650
vn -0.13794 -0.42185 0.89611
vn 0.58312 0.65500 -0.48057
vn -0.22291 0.78664 0.57576
vn 0.55804 -0.78579 -0.26668
vn -0.26811 -0.52570 0.80732
vn -0.26811 -0.52570 0.80732
vn 0.85362 0.51206 -0.09555
vn 0.43137 -0.21488 0.87621
vn 0.99677 -0.07347 0.03251
vn 0.44950 -0.89274 -0.03105
vn 0.66659 -0.42578 -0.61185
vn 0.52799 0.84817 -0.04285
vn 0.01673 -0.99428 0.10544
vn -0.34321 -0.92625 0.15581
vn 0.48175 -0.80044 0.35667
vn -0.21406 0.23049 0.94924
vn 0.48175 -0.80044 0.35667
vn -0.21406 0.23049 0.94924
vn 0.78995 -0.43974 -0.42732
vn 0.89122 -0.43716 0.12091
vn 0.89122 -0.43716 0.12091
vn 0.36519 -0.07052 0.92826
vn 0.36519 -0.07052 0.92826
vn 0.94384 -0.02361 0.32956
vn 0.54591 -0.77151 0.32673
vn 0.54591 -0.77151 0.32673
vn 0.26752 0.02347 -0.96327
vn 0.26749 0.02346 -0.96327
vn 0.30299 -0.11576 -0.94594
vn 0.30301 -0.11577 -0.94593
vn 0.30584 -0.78969 -0.53183
f 548/548/548 554/554/554 552/552/552
f 553/553/553 557/557/557 558/558/558
f 556/556/556 553/553/553 558/558/558
f 553/553/553 556/556/556 551/551/551
f 554/554/554 558/558/558 557/557/557
f 554/554/554 555/555/555 558/558/558
f 547/547/547 555/555/555 554/554/554
f 554/554/554 548/548/548 547/547/547
f 548/548/548 549/549/549 546/546/546
f 546/546/546 547/547/547 548/548/548
f 299/299/299 300/300/300 294/294/294
f 298/298/298 309/309/309 308/308/308
f 302/302/302 309/309/309 298/298/298
f 297/297/297 302/302/302 298/298/298
f 300/300/300 308/308/308 309/309/309
f 300/300/300 309/309/309 301/301/301
f 295/295/295 294/294/294 300/300/300
f 300/300/300 301/301/301 295/295/295
f 294/294/294 295/295/295 292/292/292
f 292/292/292 293/293/293 294/294/294
f 103/103/103 101/101/101 120/120/120
f 103/103/103 108/108/108 122/122/122
f 120/120/120 117/117/117 103/103/103
f 107/107/107 103/103/103 117/117/117
f 107/107/107 108/108/108 103/103/103
f 117/117/117 112/112/112 107/107/107
f 112/112/112 111/111/111 107/107/107
f 118/118/118 117/117/117 120/120/120
f 117/117/117 118/118/118 109/109/109
f 109/109/109 112/112/112 117/117/117
f 111/111/111 112/112/112 109/109/109
f 109/109/109 110/110/110 111/111/111
f 327/327/327 110/110/110 109/109/109
f 109/109/109 326/326/326 327/327/327
f 326/326/326 109/109/109 118/118/118
f 120/120/120 119/119/119 118/118/118
f 116/116/116 121/121/121 120/120/120
f 120/120/120 114/114/114 116/116/116
f 119/119/119 120/120/120 121/121/121
f 115/115/115 328/328/328 116/116/116
f 115/115/115 116/116/116 114/114/114
f 114/114/114 113/113/113 115/115/115
f 438/438/438 420/420/420 421/421/421
f 421/421/421 439/439/439 425/425/425
f 421/421/421 435/435/435 438/438/438
f 435/435/435 421/421/421 424/424/424
f 424/424/424 421/421/421 425/425/425
f 424/424/424 427/427/427 435/435/435
f 427/427/427 424/424/424 428/428/428
f 438/438/438 435/435/435 434/434/434
f 435/435/435 427/427/427 426/426/426
f 426/426/426 434/434/434 435/435/435
f 426/426/426 427/427/427 428/428/428
f 428/428/428 429/429/429 426/426/426
f 575/575/575 574/574/574 426/426/426
f 426/426/426 429/429/429 575/575/575
f 574/574/574 434/434/434 426/426/426
f 434/434/434 436/436/436 438/438/438
f 436/436/436 437/437/437 438/438/438
f 433/433/433 431/431/431 438/438/438
f 438/438/438 437/437/437 433/433/433
f 432/432/432 433/433/433 576/576/576
f 431/431/431 433/433/433 432/432/432
f 432/432/432 430/430/430 431/431/431
f 149/149/149 147/147/147 146/146/146
f 149/149/149 150/150/150 147/147/147
f 151/151/151 147/147/147 150/150/150
f 151/151/151 460/460/460 147/147/147
f 459/459/459 147/147/147 460/460/460
f 459/459/459 457/457/457 147/147/147
f 312/312/312 311/311/311 319/319/319
f 313/313/313 314/314/314 311/311/311
f 311/311/311 312/312/312 313/313/313
f 312/312/312 320/320/320 325/325/325
f 325/325/325 321/321/321 312/312/312
f 322/322/322 313/313/313 312/312/312
f 312/312/312 321/321/321 322/322/322
f 319/319/319 320/320/320 312/312/312
f 315/315/315 313/313/313 322/322/322
f 316/316/316 314/314/314 313/313/313
f 313/313/313 315/315/315 316/316/316
f 322/322/322 323/323/323 315/315/315
f 567/567/567 559/559/559 562/562/562
f 561/561/561 562/562/562 559/559/559
f 559/559/559 560/560/560 561/561/561
f 562/562/562 568/568/568 567/567/567
f 562/562/562 573/573/573 568/568/568
f 573/573/573 562/562/562 570/570/570
f 569/569/569 570/570/570 562/562/562
f 562/562/562 561/561/561 569/569/569
f 569/569/569 561/561/561 564/564/564
f 563/563/563 564/564/564 561/561/561
f 561/561/561 560/560/560 563/563/563
f 564/564/564 571/571/571 569/569/569
f 270/270/270 269/269/269 534/534/534
f 272/272/272 270/270/270 537/537/537
f 534/534/534 537/537/537 270/270/270
f 271/271/271 270/270/270 272/272/272
f 274/274/274 271/271/271 273/273/273
f 272/272/272 273/273/273 271/271/271
f 272/272/272 538/538/538 539/539/539
f 539/539/539 277/277/277 272/272/272
f 537/537/537 538/538/538 272/272/272
f 272/272/272 277/277/277 276/276/276
f 276/276/276 273/273/273 272/272/272
f 538/538/538 537/537/537 274/274/274
f 534/534/534 274/274/274 537/537/537
f 268/268/268 286/286/286 287/287/287
f 268/268/268 9/9/9 264/264/264
f 267/267/267 268/268/268 264/264/264
f 268/268/268 267/267/267 286/286/286
f 91/91/91 9/9/9 8/8/8
f 264/264/264 9/9/9 91/91/91
f 91/91/91 256/256/256 264/264/264
f 265/265/265 264/264/264 256/256/256
f 266/266/266 267/267/267 264/264/264
f 264/264/264 265/265/265 266/266/266
f 286/286/286 267/267/267 280/280/280
f 279/279/279 280/280/280 267/267/267
f 267/267/267 275/275/275 279/279/279
f 267/267/267 274/274/274 275/275/275
f 267/267/267 266/266/266 274/274/274
f 269/269/269 266/266/266 265/265/265
f 266/266/266 271/271/271 274/274/274
f 270/270/270 271/271/271 266/266/266
f 266/266/266 269/269/269 270/270/270
f 256/256/256 255/255/255 265/265/265
f 265/265/265 310/310/310 269/269/269
f 269/269/269 310/310/310 535/535/535
f 535/535/535 534/534/534 269/269/269
f 94/94/94 95/95/95 64/64/64
f 64/64/64 62/62/62 94/94/94
f 96/96/96 94/94/94 62/62/62
f 230/230/230 236/236/236 237/237/237
f 230/230/230 229/229/229 236/236/236
f 520/520/520 237/237/237 236/236/236
f 520/520/520 236/236/236 229/229/229
f 223/223/223 222/222/222 226/226/226
f 223/223/223 63/63/63 222/222/222
f 54/54/54 60/60/60 71/71/71
f 55/55/55 54/54/54 71/71/71
f 53/53/53 54/54/54 55/55/55
f 130/130/130 61/61/61 54/54/54
f 54/54/54 53/53/53 130/130/130
f 60/60/60 54/54/54 61/61/61
f 63/63/63 60/60/60 62/62/62
f 61/61/61 62/62/62 60/60/60
f 96/96/96 61/61/61 130/130/130
f 62/62/62 61/61/61 96/96/96
f 130/130/130 53/53/53 137/137/137
f 130/130/130 137/137/137 135/135/135
f 131/131/131 130/130/130 135/135/135
f 130/130/130 131/131/131 96/96/96
f 137/137/137 53/53/53 250/250/250
f 128/128/128 137/137/137 250/250/250
f 250/250/250 249/249/249 128/128/128
f 128/128/128 249/249/249 58/58/58
f 58/58/58 127/127/127 128/128/128
f 59/59/59 58/58/58 249/249/249
f 516/516/516 391/391/391 216/216/216
f 391/391/391 516/516/516 393/393/393
f 217/217/217 216/216/216 391/391/391
f 391/391/391 393/393/393 379/379/379
f 35/35/35 217/217/217 218/218/218
f 217/217/217 35/35/35 70/70/70
f 70/70/70 216/216/216 217/217/217
f 218/218/218 219/219/219 35/35/35
f 35/35/35 219/219/219 32/32/32
f 69/69/69 70/70/70 35/35/35
f 35/35/35 34/34/34 69/69/69
f 34/34/34 35/35/35 32/32/32
f 216/216/216 70/70/70 223/223/223
f 70/70/70 71/71/71 223/223/223
f 55/55/55 71/71/71 70/70/70
f 70/70/70 69/69/69 55/55/55
f 216/216/216 226/226/226 516/516/516
f 223/223/223 226/226/226 216/216/216
f 223/223/223 60/60/60 63/63/63
f 223/223/223 71/71/71 60/60/60
f 408/408/408 407/407/407 406/406/406
f 407/407/407 392/392/392 379/379/379
f 379/379/379 406/406/406 407/407/407
f 379/379/379 392/392/392 391/391/391
f 392/392/392 366/366/366 365/365/365
f 365/365/365 391/391/391 392/392/392
f 410/410/410 367/367/367 366/366/366
f 366/366/366 367/367/367 364/364/364
f 364/364/364 365/365/365 366/366/366
f 365/365/365 364/364/364 514/514/514
f 218/218/218 217/217/217 365/365/365
f 365/365/365 514/514/514 218/218/218
f 391/391/391 365/365/365 217/217/217
f 87/87/87 85/85/85 88/88/88
f 88/88/88 85/85/85 69/69/69
f 55/55/55 69/69/69 85/85/85
f 88/88/88 89/89/89 90/90/90
f 90/90/90 24/24/24 88/88/88
f 89/89/89 88/88/88 34/34/34
f 69/69/69 34/34/34 88/88/88
f 201/201/201 23/23/23 24/24/24
f 24/24/24 90/90/90 201/201/201
f 20/20/20 24/24/24 23/23/23
f 201/201/201 411/411/411 358/358/358
f 358/358/358 23/23/23 201/201/201
f 357/357/357 21/21/21 23/23/23
f 23/23/23 358/358/358 357/357/357
f 23/23/23 21/21/21 20/20/20
f 411/411/411 409/409/409 358/358/358
f 408/408/408 358/358/358 409/409/409
f 409/409/409 411/411/411 410/410/410
f 366/366/366 409/409/409 410/410/410
f 392/392/392 407/407/407 409/409/409
f 409/409/409 366/366/366 392/392/392
f 409/409/409 407/407/407 408/408/408
f 406/406/406 356/356/356 408/408/408
f 315/315/315 323/323/323 324/324/324
f 315/315/315 324/324/324 317/317/317
f 318/318/318 316/316/316 315/315/315
f 315/315/315 317/317/317 318/318/318
f 564/564/564 572/572/572 571/571/571
f 564/564/564 566/566/566 572/572/572
f 565/565/565 566/566/566 564/564/564
f 564/564/564 563/563/563 565/565/565
f 444/444/444 445/445/445 382/382/382
f 378/378/378 406/406/406 379/379/379
f 525/525/525 406/406/406 378/378/378
f 451/451/451 525/525/525 378/378/378
f 525/525/525 451/451/451 443/443/443
f 446/446/446 451/451/451 378/378/378
f 446/446/446 378/378/378 380/380/380
f 378/378/378 379/379/379 380/380/380
f 379/379/379 393/393/393 380/380/380
f 380/380/380 393/393/393 383/383/383
f 380/380/380 385/385/385 446/446/446
f 385/385/385 380/380/380 383/383/383
f 446/446/446 450/450/450 451/451/451
f 450/450/450 446/446/446 447/447/447
f 416/416/416 447/447/447 446/446/446
f 446/446/446 385/385/385 416/416/416
f 416/416/416 385/385/385 384/384/384
f 383/383/383 384/384/384 385/385/385
f 249/249/249 248/248/248 59/59/59
f 127/127/127 58/58/58 57/57/57
f 58/58/58 59/59/59 56/56/56
f 56/56/56 57/57/57 58/58/58
f 57/57/57 129/129/129 127/127/127
f 381/381/381 382/382/382 56/56/56
f 56/56/56 59/59/59 381/381/381
f 59/59/59 248/248/248 524/524/524
f 524/524/524 381/381/381 59/59/59
f 356/356/356 524/524/524 248/248/248
f 248/248/248 22/22/22 356/356/356
f 443/443/443 381/381/381 524/524/524
f 443/443/443 524/524/524 525/525/525
f 406/406/406 525/525/525 524/524/524
f 524/524/524 356/356/356 406/406/406
f 382/382/382 381/381/381 444/444/444
f 381/381/381 443/443/443 444/444/444
f 86/86/86 19/19/19 249/249/249
f 19/19/19 22/22/22 248/248/248
f 248/248/248 249/249/249 19/19/19
f 87/87/87 19/19/19 86/86/86
f 21/21/21 22/22/22 19/19/19
f 19/19/19 20/20/20 21/21/21
f 53/53/53 55/55/55 86/86/86
f 250/250/250 53/53/53 86/86/86
f 249/249/249 250/250/250 86/86/86
f 86/86/86 85/85/85 87/87/87
f 85/85/85 86/86/86 55/55/55
f 88/88/88 24/24/24 87/87/87
f 356/356/356 22/22/22 21/21/21
f 21/21/21 357/357/357 356/356/356
f 541/541/541 284/284/284 283/283/283
f 541/541/541 283/283/283 281/281/281
f 282/282/282 281/281/281 283/283/283
f 281/281/281 282/282/282 280/280/280
f 280/280/280 279/279/279 281/281/281
f 282/282/282 283/283/283 284/284/284
f 534/534/534 535/535/535 532/532/532
f 527/527/527 532/532/532 535/535/535
f 535/535/535 528/528/528 527/527/527
f 532/532/532 527/527/527 412/412/412
f 413/413/413 412/412/412 527/527/527
f 527/527/527 530/530/530 413/413/413
f 531/531/531 527/527/527 526/526/526
f 527/527/527 531/531/531 529/529/529
f 529/529/529 530/530/530 527/527/527
f 526/526/526 527/527/527 528/528/528
f 412/412/412 345/345/345 532/532/532
f 412/412/412 346/346/346 345/345/345
f 414/414/414 346/346/346 412/412/412
f 412/412/412 413/413/413 414/414/414
f 346/346/346 359/359/359 26/26/26
f 26/26/26 7/7/7 346/346/346
f 8/8/8 7/7/7 26/26/26
f 91/91/91 8/8/8 92/92/92
f 256/256/256 91/91/91 93/93/93
f 92/92/92 93/93/93 91/91/91
f 337/337/337 126/126/126 92/92/92
f 125/125/125 93/93/93 92/92/92
f 125/125/125 92/92/92 126/126/126
f 259/259/259 258/258/258 93/93/93
f 93/93/93 125/125/125 259/259/259
f 93/93/93 258/258/258 256/256/256
f 259/259/259 125/125/125 413/413/413
f 253/253/253 442/442/442 125/125/125
f 386/386/386 384/384/384 383/383/383
f 516/516/516 386/386/386 383/383/383
f 516/516/516 383/383/383 393/393/393
f 384/384/384 415/415/415 416/416/416
f 415/415/415 384/384/384 64/64/64
f 386/386/386 64/64/64 384/384/384
f 386/386/386 515/515/515 518/518/518
f 386/386/386 518/518/518 517/517/517
f 386/386/386 517/517/517 64/64/64
f 516/516/516 515/515/515 386/386/386
f 516/516/516 226/226/226 515/515/515
f 515/515/515 226/226/226 221/221/221
f 515/515/515 220/220/220 247/247/247
f 518/518/518 515/515/515 247/247/247
f 220/220/220 515/515/515 221/221/221
f 222/222/222 221/221/221 226/226/226
f 220/220/220 221/221/221 222/222/222
f 222/222/222 247/247/247 220/220/220
f 247/247/247 246/246/246 518/518/518
f 247/247/247 222/222/222 225/225/225
f 225/225/225 246/246/246 247/247/247
f 63/63/63 225/225/225 222/222/222
f 63/63/63 224/224/224 225/225/225
f 63/63/63 64/64/64 224/224/224
f 63/63/63 62/62/62 64/64/64
f 246/246/246 225/225/225 240/240/240
f 239/239/239 240/240/240 225/225/225
f 225/225/225 235/235/235 239/239/239
f 225/225/225 234/234/234 235/235/235
f 225/225/225 224/224/224 234/234/234
f 246/246/246 245/245/245 522/522/522
f 522/522/522 518/518/518 246/246/246
f 240/240/240 245/245/245 246/246/246
f 245/245/245 240/240/240 242/242/242
f 241/241/241 242/242/242 240/240/240
f 240/240/240 239/239/239 241/241/241
f 245/245/245 244/244/244 523/523/523
f 523/523/523 522/522/522 245/245/245
f 242/242/242 244/244/244 245/245/245
f 241/241/241 239/239/239 522/522/522
f 522/522/522 523/523/523 241/241/241
f 518/518/518 522/522/522 239/239/239
f 239/239/239 235/235/235 518/518/518
f 518/518/518 235/235/235 234/234/234
f 34/34/34 33/33/33 89/89/89
f 32/32/32 33/33/33 34/34/34
f 274/274/274 278/278/278 538/538/538
f 539/539/539 538/538/538 278/278/278
f 278/278/278 277/277/277 539/539/539
f 276/276/276 277/277/277 278/278/278
f 278/278/278 273/273/273 276/276/276
f 273/273/273 278/278/278 274/274/274
f 533/533/533 275/275/275 274/274/274
f 533/533/533 274/274/274 534/534/534
f 540/540/540 533/533/533 286/286/286
f 279/279/279 275/275/275 533/533/533
f 533/533/533 540/540/540 279/279/279
f 532/532/532 533/533/533 534/534/534
f 286/286/286 285/285/285 540/540/540
f 541/541/541 540/540/540 285/285/285
f 281/281/281 279/279/279 540/540/540
f 540/540/540 541/541/541 281/281/281
f 280/280/280 285/285/285 286/286/286
f 285/285/285 284/284/284 541/541/541
f 285/285/285 280/280/280 282/282/282
f 282/282/282 284/284/284 285/285/285
f 441/441/441 418/418/418 440/440/440
f 441/441/441 419/419/419 418/418/418
f 423/423/423 440/440/440 418/418/418
f 438/438/438 431/431/431 418/418/418
f 418/418/418 420/420/420 438/438/438
f 418/418/418 431/431/431 430/430/430
f 430/430/430 422/422/422 418/418/418
f 422/422/422 423/423/423 418/418/418
f 418/418/418 419/419/419 420/420/420
f 421/421/421 441/441/441 439/439/439
f 419/419/419 441/441/441 421/421/421
f 421/421/421 420/420/420 419/419/419
f 124/124/124 123/123/123 100/100/100
f 124/124/124 100/100/100 102/102/102
f 106/106/106 100/100/100 123/123/123
f 120/120/120 101/101/101 100/100/100
f 100/100/100 114/114/114 120/120/120
f 100/100/100 105/105/105 113/113/113
f 113/113/113 114/114/114 100/100/100
f 105/105/105 100/100/100 106/106/106
f 100/100/100 101/101/101 102/102/102
f 103/103/103 122/122/122 124/124/124
f 102/102/102 103/103/103 124/124/124
f 103/103/103 102/102/102 101/101/101
f 17/17/17 82/82/82 31/31/31
f 15/15/15 16/16/16 17/17/17
f 72/72/72 15/15/15 132/132/132
f 72/72/72 16/16/16 15/15/15
f 132/132/132 75/75/75 72/72/72
f 67/67/67 80/80/80 30/30/30
f 518/518/518 234/234/234 517/517/517
f 517/517/517 234/234/234 521/521/521
f 232/232/232 231/231/231 517/517/517
f 517/517/517 521/521/521 232/232/232
f 517/517/517 231/231/231 64/64/64
f 234/234/234 238/238/238 519/519/519
f 519/519/519 521/521/521 234/234/234
f 234/234/234 233/233/233 227/227/227
f 227/227/227 238/238/238 234/234/234
f 224/224/224 233/233/233 234/234/234
f 228/228/228 232/232/232 521/521/521
f 521/521/521 519/519/519 228/228/228
f 520/520/520 519/519/519 238/238/238
f 229/229/229 228/228/228 519/519/519
f 519/519/519 520/520/520 229/229/229
f 238/238/238 237/237/237 520/520/520
f 238/238/238 227/227/227 230/230/230
f 230/230/230 237/237/237 238/238/238
f 228/228/228 227/227/227 233/233/233
f 229/229/229 230/230/230 227/227/227
f 227/227/227 228/228/228 229/229/229
f 233/233/233 232/232/232 228/228/228
f 232/232/232 233/233/233 224/224/224
f 224/224/224 231/231/231 232/232/232
f 224/224/224 64/64/64 231/231/231
f 64/64/64 95/95/95 415/415/415
f 141/141/141 143/143/143 454/454/454
f 141/141/141 142/142/142 143/143/143
f 143/143/143 458/458/458 454/454/454
f 143/143/143 456/456/456 458/458/458
f 143/143/143 147/147/147 457/457/457
f 457/457/457 455/455/455 143/143/143
f 455/455/455 456/456/456 143/143/143
f 143/143/143 142/142/142 148/148/148
f 143/143/143 148/148/148 145/145/145
f 143/143/143 144/144/144 146/146/146
f 146/146/146 147/147/147 143/143/143
f 144/144/144 143/143/143 145/145/145
f 404/404/404 359/359/359 346/346/346
f 346/346/346 414/414/414 404/404/404
f 337/337/337 252/252/252 414/414/414
f 414/414/414 442/442/442 337/337/337
f 125/125/125 414/414/414 413/413/413
f 404/404/404 414/414/414 252/252/252
f 125/125/125 442/442/442 414/414/414
f 200/200/200 405/405/405 404/404/404
f 404/404/404 251/251/251 200/200/200
f 252/252/252 251/251/251 404/404/404
f 404/404/404 405/405/405 360/360/360
f 360/360/360 359/359/359 404/404/404
f 92/92/92 252/252/252 337/337/337
f 252/252/252 92/92/92 84/84/84
f 84/84/84 251/251/251 252/252/252
f 200/200/200 251/251/251 84/84/84
f 84/84/84 83/83/83 200/200/200
f 550/550/550 542/542/542 545/545/545
f 544/544/544 545/545/545 542/542/542
f 542/542/542 543/543/543 544/544/544
f 545/545/545 551/551/551 550/550/550
f 551/551/551 545/545/545 553/553/553
f 552/552/552 553/553/553 545/545/545
f 545/545/545 544/544/544 552/552/552
f 552/552/552 544/544/544 548/548/548
f 544/544/544 543/543/543 549/549/549
f 549/549/549 548/548/548 544/544/544
f 552/552/552 554/554/554 557/557/557
f 553/553/553 552/552/552 557/557/557
f 289/289/289 288/288/288 296/296/296
f 290/290/290 291/291/291 288/288/288
f 288/288/288 289/289/289 290/290/290
f 298/298/298 289/289/289 297/297/297
f 299/299/299 290/290/290 289/289/289
f 289/289/289 298/298/298 299/299/299
f 296/296/296 297/297/297 289/289/289
f 294/294/294 290/290/290 299/299/299
f 290/290/290 294/294/294 293/293/293
f 293/293/293 291/291/291 290/290/290
f 299/299/299 308/308/308 300/300/300
f 298/298/298 308/308/308 299/299/299
f 84/84/84 92/92/92 8/8/8
f 8/8/8 25/25/25 84/84/84
f 84/84/84 25/25/25 28/28/28
f 28/28/28 83/83/83 84/84/84
f 452/452/452 405/405/405 200/200/200
f 139/139/139 200/200/200 83/83/83
f 138/138/138 139/139/139 83/83/83
f 83/83/83 28/28/28 138/138/138
f 28/28/28 27/27/27 140/140/140
f 140/140/140 138/138/138 28/28/28
f 27/27/27 28/28/28 25/25/25
f 26/26/26 25/25/25 8/8/8
f 25/25/25 26/26/26 27/27/27
f 140/140/140 27/27/27 360/360/360
f 27/27/27 26/26/26 359/359/359
f 359/359/359 360/360/360 27/27/27
f 509/509/509 202/202/202 140/140/140
f 140/140/140 453/453/453 509/509/509
f 394/394/394 341/341/341 340/340/340
f 342/342/342 341/341/341 403/403/403
f 403/403/403 341/341/341 396/396/396
f 340/340/340 341/341/341 342/342/342
f 448/448/448 352/352/352 396/396/396
f 396/396/396 398/398/398 448/448/448
f 396/396/396 352/352/352 355/355/355
f 133/133/133 352/352/352 448/448/448
f 448/448/448 134/134/134 133/133/133
f 43/43/43 353/353/353 352/352/352
f 352/352/352 133/133/133 43/43/43
f 354/354/354 355/355/355 352/352/352
f 352/352/352 353/353/353 354/354/354
f 43/43/43 133/133/133 15/15/15
f 133/133/133 134/134/134 132/132/132
f 132/132/132 15/15/15 133/133/133
f 353/353/353 43/43/43 42/42/42
f 15/15/15 18/18/18 43/43/43
f 18/18/18 42/42/42 43/43/43
f 353/353/353 42/42/42 361/361/361
f 354/354/354 353/353/353 363/363/363
f 344/344/344 363/363/363 353/353/353
f 253/253/253 125/125/125 126/126/126
f 307/307/307 339/339/339 126/126/126
f 126/126/126 339/339/339 253/253/253
f 306/306/306 126/126/126 337/337/337
f 306/306/306 307/307/307 126/126/126
f 306/306/306 337/337/337 442/442/442
f 307/307/307 442/442/442 339/339/339
f 442/442/442 253/253/253 339/339/339
f 306/306/306 442/442/442 307/307/307
f 413/413/413 530/530/530 259/259/259
f 259/259/259 530/530/530 529/529/529
f 529/529/529 260/260/260 259/259/259
f 259/259/259 260/260/260 257/257/257
f 257/257/257 258/258/258 259/259/259
f 256/256/256 258/258/258 257/257/257
f 257/257/257 263/263/263 256/256/256
f 263/263/263 254/254/254 256/256/256
f 254/254/254 255/255/255 256/256/256
f 66/66/66 74/74/74 73/73/73
f 30/30/30 68/68/68 67/67/67
f 66/66/66 67/67/67 68/68/68
f 44/44/44 77/77/77 66/66/66
f 45/45/45 44/44/44 66/66/66
f 73/73/73 45/45/45 66/66/66
f 66/66/66 77/77/77 78/78/78
f 73/73/73 76/76/76 48/48/48
f 48/48/48 45/45/45 73/73/73
f 75/75/75 76/76/76 73/73/73
f 73/73/73 72/72/72 75/75/75
f 46/46/46 45/45/45 48/48/48
f 44/44/44 45/45/45 46/46/46
f 77/77/77 44/44/44 47/47/47
f 46/46/46 47/47/47 44/44/44
f 50/50/50 46/46/46 49/49/49
f 51/51/51 47/47/47 46/46/46
f 46/46/46 50/50/50 51/51/51
f 48/48/48 49/49/49 46/46/46
f 338/338/338 49/49/49 48/48/48
f 49/49/49 52/52/52 50/50/50
f 376/376/376 374/374/374 50/50/50
f 50/50/50 52/52/52 376/376/376
f 51/51/51 50/50/50 374/374/374
f 99/99/99 51/51/51 373/373/373
f 374/374/374 373/373/373 51/51/51
f 47/47/47 51/51/51 99/99/99
f 47/47/47 97/97/97 77/77/77
f 99/99/99 97/97/97 47/47/47
f 373/373/373 417/417/417 99/99/99
f 98/98/98 99/99/99 417/417/417
f 97/97/97 99/99/99 98/98/98
f 400/400/400 417/417/417 373/373/373
f 373/373/373 372/372/372 400/400/400
f 372/372/372 373/373/373 374/374/374
f 417/417/417 368/368/368 98/98/98
f 135/135/135 136/136/136 131/131/131
f 447/447/447 449/449/449 450/450/450
f 368/368/368 417/417/417 400/400/400
f 372/372/372 388/388/388 400/400/400
f 368/368/368 400/400/400 399/399/399
f 388/388/388 399/399/399 400/400/400
f 375/375/375 388/388/388 372/372/372
f 374/374/374 375/375/375 372/372/372
f 388/388/388 394/394/394 389/389/389
f 395/395/395 394/394/394 388/388/388
f 388/388/388 375/375/375 395/395/395
f 388/388/388 389/389/389 390/390/390
f 395/395/395 375/375/375 377/377/377
f 377/377/377 375/375/375 374/374/374
f 374/374/374 376/376/376 377/377/377
f 581/581/581 377/377/377 376/376/376
f 377/377/377 397/397/397 395/395/395
f 398/398/398 396/396/396 395/395/395
f 395/395/395 397/397/397 398/398/398
f 395/395/395 396/396/396 341/341/341
f 341/341/341 394/394/394 395/395/395
f 340/340/340 389/389/389 394/394/394
f 1/1/1 3/3/3 74/74/74
f 74/74/74 68/68/68 1/1/1
f 5/5/5 1/1/1 30/30/30
f 68/68/68 30/30/30 1/1/1
f 4/4/4 1/1/1 5/5/5
f 4/4/4 2/2/2 1/1/1
f 1/1/1 2/2/2 3/3/3
f 2/2/2 82/82/82 3/3/3
f 82/82/82 72/72/72 3/3/3
f 73/73/73 74/74/74 3/3/3
f 3/3/3 72/72/72 73/73/73
f 66/66/66 68/68/68 74/74/74
f 523/523/523 244/244/244 243/243/243
f 523/523/523 243/243/243 241/241/241
f 242/242/242 243/243/243 244/244/244
f 242/242/242 241/241/241 243/243/243
f 179/179/179 180/180/180 181/181/181
f 488/488/488 489/489/489 490/490/490
f 182/182/182 183/183/183 184/184/184
f 491/491/491 492/492/492 493/493/493
f 14/14/14 11/11/11 10/10/10
f 10/10/10 11/11/11 12/12/12
f 13/13/13 11/11/11 14/14/14
f 11/11/11 13/13/13 12/12/12
f 351/351/351 347/347/347 349/349/349
f 347/347/347 348/348/348 349/349/349
f 350/350/350 351/351/351 349/349/349
f 349/349/349 348/348/348 350/350/350
f 176/176/176 177/177/177 178/178/178
f 485/485/485 486/486/486 487/487/487
f 173/173/173 174/174/174 175/175/175
f 482/482/482 483/483/483 484/484/484
f 164/164/164 165/165/165 166/166/166
f 473/473/473 474/474/474 475/475/475
f 36/36/36 37/37/37 38/38/38
f 36/36/36 77/77/77 97/97/97
f 36/36/36 39/39/39 78/78/78
f 78/78/78 77/77/77 36/36/36
f 38/38/38 39/39/39 36/36/36
f 536/536/536 6/6/6 287/287/287
f 345/345/345 6/6/6 536/536/536
f 346/346/346 7/7/7 6/6/6
f 6/6/6 345/345/345 346/346/346
f 268/268/268 287/287/287 6/6/6
f 9/9/9 268/268/268 6/6/6
f 8/8/8 9/9/9 6/6/6
f 6/6/6 7/7/7 8/8/8
f 536/536/536 532/532/532 345/345/345
f 533/533/533 532/532/532 536/536/536
f 536/536/536 287/287/287 286/286/286
f 536/536/536 286/286/286 533/533/533
f 161/161/161 162/162/162 163/163/163
f 470/470/470 471/471/471 472/472/472
f 497/497/497 498/498/498 499/499/499
f 188/188/188 189/189/189 190/190/190
f 167/167/167 168/168/168 169/169/169
f 476/476/476 477/477/477 478/478/478
f 213/213/213 214/214/214 215/215/215
f 305/305/305 513/513/513 303/303/303
f 513/513/513 213/213/213 303/303/303
f 305/305/305 303/303/303 215/215/215
f 215/215/215 303/303/303 213/213/213
f 405/405/405 452/452/452 453/453/453
f 453/453/453 360/360/360 405/405/405
f 170/170/170 171/171/171 172/172/172
f 479/479/479 480/480/480 481/481/481
f 399/399/399 369/369/369 368/368/368
f 368/368/368 369/369/369 370/370/370
f 371/371/371 98/98/98 368/368/368
f 370/370/370 371/371/371 368/368/368
f 371/371/371 370/370/370 40/40/40
f 98/98/98 371/371/371 41/41/41
f 40/40/40 41/41/41 371/371/371
f 37/37/37 36/36/36 98/98/98
f 98/98/98 41/41/41 37/37/37
f 98/98/98 36/36/36 97/97/97
f 37/37/37 41/41/41 40/40/40
f 40/40/40 38/38/38 37/37/37
f 353/353/353 361/361/361 344/344/344
f 354/354/354 363/363/363 403/403/403
f 342/342/342 403/403/403 363/363/363
f 363/363/363 344/344/344 343/343/343
f 343/343/343 342/342/342 363/363/363
f 344/344/344 362/362/362 340/340/340
f 361/361/361 362/362/362 344/344/344
f 343/343/343 344/344/344 340/340/340
f 361/361/361 42/42/42 387/387/387
f 361/361/361 387/387/387 362/362/362
f 389/389/389 340/340/340 362/362/362
f 390/390/390 389/389/389 362/362/362
f 362/362/362 402/402/402 390/390/390
f 402/402/402 362/362/362 387/387/387
f 343/343/343 340/340/340 342/342/342
f 387/387/387 401/401/401 402/402/402
f 401/401/401 387/387/387 79/79/79
f 185/185/185 186/186/186 187/187/187
f 494/494/494 495/495/495 496/496/496
f 461/461/461 462/462/462 463/463/463
f 152/152/152 153/153/153 154/154/154
f 42/42/42 79/79/79 387/387/387
f 79/79/79 104/104/104 401/401/401
f 81/81/81 104/104/104 79/79/79
f 79/79/79 65/65/65 81/81/81
f 42/42/42 65/65/65 79/79/79
f 18/18/18 29/29/29 42/42/42
f 29/29/29 65/65/65 42/42/42
f 80/80/80 81/81/81 65/65/65
f 65/65/65 30/30/30 80/80/80
f 29/29/29 30/30/30 65/65/65
f 5/5/5 29/29/29 18/18/18
f 29/29/29 5/5/5 30/30/30
f 17/17/17 31/31/31 18/18/18
f 18/18/18 31/31/31 5/5/5
f 17/17/17 18/18/18 15/15/15
f 4/4/4 5/5/5 31/31/31
f 2/2/2 31/31/31 82/82/82
f 31/31/31 2/2/2 4/4/4
f 194/194/194 195/195/195 196/196/196
f 503/503/503 504/504/504 505/505/505
f 500/500/500 501/501/501 502/502/502
f 191/191/191 192/192/192 193/193/193
f 464/464/464 465/465/465 466/466/466
f 155/155/155 156/156/156 157/157/157
f 197/197/197 198/198/198 199/199/199
f 506/506/506 507/507/507 508/508/508
f 158/158/158 159/159/159 160/160/160
f 467/467/467 468/468/468 469/469/469
f 360/360/360 453/453/453 140/140/140
f 203/203/203 138/138/138 140/140/140
f 140/140/140 202/202/202 203/203/203
f 139/139/139 138/138/138 203/203/203
f 203/203/203 214/214/214 139/139/139
f 214/214/214 203/203/203 215/215/215
f 203/203/203 305/305/305 215/215/215
f 304/304/304 305/305/305 203/203/203
f 203/203/203 211/211/211 304/304/304
f 211/211/211 203/203/203 202/202/202
f 202/202/202 509/509/509 512/512/512
f 512/512/512 212/212/212 202/202/202
f 202/202/202 212/212/212 211/211/211
f 262/262/262 304/304/304 211/211/211
f 205/205/205 211/211/211 212/212/212
f 261/261/261 262/262/262 211/211/211
f 261/261/261 211/211/211 205/205/205
f 262/262/262 512/512/512 304/304/304
f 304/304/304 512/512/512 509/509/509
f 509/509/509 305/305/305 304/304/304
f 212/212/212 512/512/512 511/511/511
f 261/261/261 512/512/512 262/262/262
f 261/261/261 511/511/511 512/512/512
f 511/511/511 209/209/209 212/212/212
f 212/212/212 209/209/209 205/205/205
f 204/204/204 261/261/261 205/205/205
f 206/206/206 205/205/205 209/209/209
f 204/204/204 205/205/205 206/206/206
f 204/204/204 511/511/511 261/261/261
f 209/209/209 511/511/511 510/510/510
f 510/510/510 511/511/511 204/204/204
f 510/510/510 210/210/210 209/209/209
f 209/209/209 210/210/210 206/206/206
f 210/210/210 208/208/208 206/206/206
f 208/208/208 207/207/207 206/206/206
f 206/206/206 207/207/207 204/204/204
f 204/204/204 207/207/207 510/510/510
f 210/210/210 510/510/510 208/208/208
f 208/208/208 510/510/510 207/207/207
f 214/214/214 513/513/513 509/509/509
f 509/509/509 453/453/453 452/452/452
f 452/452/452 214/214/214 509/509/509
f 509/509/509 513/513/513 305/305/305
f 213/213/213 513/513/513 214/214/214
f 335/335/335 336/336/336 333/333/333
f 333/333/333 334/334/334 335/335/335
f 335/335/335 580/580/580 579/579/579
f 579/579/579 336/336/336 335/335/335
f 331/331/331 332/332/332 329/329/329
f 329/329/329 330/330/330 331/331/331
f 331/331/331 330/330/330 577/577/577
f 577/577/577 578/578/578 331/331/331
