# styxosaurus_ad reconstructed from live game memory
v 5.21678 42.32069 -167.76442
v 5.43509 40.90533 -170.00430
v 4.91416 40.54724 -167.79689
v 7.23030 38.59955 -169.45934
v 7.50584 38.73215 -166.17697
v 6.13991 41.04900 -165.49609
v 4.31578 31.10447 -174.23152
v 5.16009 34.54655 -174.23410
v 1.98170 34.54243 -181.37038
v 1.68286 32.29694 -180.37376
v 7.19299 29.72993 -155.86636
v 8.84648 34.90040 -155.87343
v 8.58951 35.38228 -161.38744
v 6.84763 29.02156 -161.43800
v 6.08434 29.69664 -167.98717
v 7.93493 34.44485 -167.98640
v 1.72629 38.29053 -181.42850
v 5.05455 38.68509 -174.38860
v 2.06052 40.36563 -174.57310
v 0.00000 38.54719 -182.22517
v 0.00000 36.00233 -183.14594
v 1.76150 36.00132 -181.77074
v 2.67763 41.89386 -170.31395
v -0.00000 28.05937 -155.82394
v 0.00000 29.88982 -151.47150
v 6.99334 32.30962 -151.47394
v 5.12544 36.00654 -174.22539
v 7.63672 35.43097 -168.06978
v 4.75755 41.61098 -167.64264
v 5.17728 40.55160 -169.47676
v 6.17152 40.33095 -167.70602
v 6.51691 38.75191 -169.07188
v 6.83034 38.77973 -166.39920
v 5.66382 40.79222 -165.76720
v -0.00000 30.42964 -174.22951
v -0.00000 28.84341 -167.98729
v 8.44089 36.22630 -161.45374
v 8.31107 40.12904 -161.38509
v 9.15607 40.92790 -155.89270
v 4.81112 45.64572 -155.90530
v 4.29539 44.33850 -161.36789
v -0.00000 27.71761 -161.34004
v 5.16009 34.54655 -174.23410
v -0.00000 31.54091 -168.05962
v -0.00000 34.54499 -182.72084
v 1.98170 34.54243 -181.37038
v 7.93493 34.44485 -167.98640
v -0.00000 31.53901 -168.05719
v 8.58951 35.38228 -161.38744
v 8.84648 34.90040 -155.87343
v 0.00000 33.82172 -154.07141
v -0.00000 31.54091 -168.05962
v 1.76150 36.00132 -181.77074
v 0.00000 36.00233 -183.14594
v 0.00000 37.84639 -174.21303
v 5.12544 36.00654 -174.22539
v 8.44089 36.22630 -161.45374
v 7.63672 35.43097 -168.06978
v 0.00000 38.42918 -160.83067
v 0.00000 38.43065 -160.82097
v 0.00000 37.84686 -174.20406
v 8.84648 34.90040 -155.87343
v 0.00000 37.73874 -154.47903
v 8.41314 41.38111 -151.48505
v 0.00000 45.55372 -161.35571
v 0.00000 43.87551 -165.16046
v 3.58688 43.46359 -165.18179
v 3.04166 43.01118 -167.75490
v 4.17652 44.82396 -151.43677
v 7.77880 36.87704 -162.57599
v 7.42195 36.65380 -165.04317
v 9.38394 33.12093 -163.89949
v 7.86620 34.81684 -162.95741
v 8.13269 34.93894 -160.69295
v 9.61969 38.54384 -161.76686
v 7.92136 36.46919 -158.61804
v 7.77605 36.71511 -160.99295
v 9.93026 32.96870 -159.84535
v 7.48963 34.43896 -166.67720
v 7.75430 34.56107 -164.57672
v 9.22468 38.16597 -165.45288
v 7.23433 36.87704 -165.95157
v 6.87748 36.65380 -168.41875
v 8.83948 33.12093 -167.60678
v 6.38123 36.61225 -169.65334
v 5.45306 36.38902 -171.96695
v 7.64087 32.85614 -170.97000
v 6.35583 34.12705 -170.02032
v 7.24728 34.24915 -168.10007
v 8.56207 37.85406 -169.12108
v 4.71903 36.61225 -173.21860
v 3.79087 36.38902 -175.53221
v 5.97867 32.85614 -174.53526
v 4.69363 34.12705 -173.58557
v 5.58508 34.24915 -171.66533
v 6.69081 37.85406 -172.68634
v 3.30369 36.61225 -176.74985
v 2.37552 36.38902 -179.06346
v 4.15267 32.85614 -178.06651
v 3.27828 34.12705 -177.11685
v 4.16973 34.24915 -175.19659
v 5.27547 37.85406 -176.21761
v 2.07286 36.56161 -180.17636
v 0.37389 36.54395 -182.44315
v 1.71849 32.98195 -182.86244
v 1.54530 34.12705 -180.35043
v 2.61562 34.24915 -178.66025
v 3.62724 37.85406 -179.75278
v 10.13255 47.21397 39.51458
v 23.23048 36.52970 39.49233
v 18.61555 33.16653 55.78526
v 8.97770 44.38779 55.76928
v 0.00000 47.31284 55.77061
v 0.00000 50.06249 39.51314
v 5.13166 39.26057 80.00475
v 11.97188 29.86012 80.01585
v 9.18659 29.86352 94.23508
v 2.90468 37.03772 94.23265
v -0.00000 37.59684 94.23205
v -0.00000 40.48315 79.98556
v 8.62930 22.65666 80.02065
v 4.40857 24.09190 94.23331
v 23.13752 40.15148 -0.03936
v 9.44442 48.73754 -0.03538
v 6.40057 48.64010 -17.84784
v 19.76041 40.69188 -17.84781
v 0.00000 51.45636 -0.03127
v 0.00000 50.03669 -17.84784
v 8.30332 30.55956 -57.42912
v -0.00000 27.29107 -57.42139
v 0.00000 24.05211 -33.13531
v 16.99589 27.89965 -33.13737
v 15.36113 40.61942 -33.14119
v 10.76588 41.01915 -57.42126
v 14.71594 22.27990 -17.84213
v 0.00000 20.10152 -17.84192
v 3.93672 29.86436 126.20824
v 0.00000 32.93452 126.15925
v 0.00000 34.04186 116.89091
v 5.44701 29.86430 116.89912
v 0.00000 29.86267 132.64874
v 16.32366 30.54082 64.64587
v 7.68059 42.63058 64.63746
v 0.00000 44.97250 64.61634
v 7.06789 29.86415 106.22134
v 0.00000 35.47004 106.21361
v 0.00000 25.22091 106.22597
v 5.78329 32.52705 -116.60768
v -0.00000 29.91585 -116.60791
v -0.00000 29.39100 -99.20846
v 6.06625 32.19794 -99.20816
v 7.93006 41.14398 -116.60684
v 8.31688 41.00835 -99.20772
v -0.00000 21.67032 80.02313
v -0.00000 23.72023 94.23697
v 24.57202 38.90377 18.22633
v 10.18862 48.53924 18.22316
v 28.70715 22.33539 18.23145
v 15.92205 17.86354 18.23648
v 16.15465 17.66503 36.99758
v 27.23955 22.23504 36.99869
v 16.32366 30.54082 64.64587
v 7.68059 42.63058 64.63746
v 0.00000 44.97250 64.61634
v -0.00000 26.23831 116.91616
v 0.00000 47.88388 -33.14474
v -0.00000 46.40929 -57.42125
v 0.00000 26.90185 126.16169
v 8.92445 41.02436 -79.09053
v -0.00000 45.41774 -79.08142
v 0.00000 44.66112 -99.20647
v 0.00000 51.35852 18.22257
v -0.00000 28.61211 -79.09236
v 6.49286 31.54076 -79.09224
v 10.76588 41.01915 -57.42126
v -0.00000 46.40929 -57.42125
v -0.00000 27.29107 -57.42139
v 8.30332 30.55956 -57.42912
v 36.91912 26.81372 -15.81969
v 36.86638 28.04601 -9.43946
v 25.64326 28.39475 -9.62547
v 24.19599 27.07190 -17.84382
v 36.66791 26.92446 -2.39545
v 27.54197 26.78467 -0.08883
v 49.94145 27.70008 -7.65166
v 50.42801 26.73931 -12.79894
v 63.68801 26.68186 -8.50913
v 62.67532 27.35262 -5.16645
v 74.29908 26.50774 -4.66869
v 81.49474 26.50202 -0.24203
v 73.59339 26.82291 -2.69936
v 73.04623 26.52588 -0.93674
v 72.81426 25.28422 -0.19102
v 83.73663 25.27399 0.48982
v 73.66869 25.04284 -2.86706
v 50.55428 25.27540 -14.07272
v 36.93614 25.27617 -17.05519
v 72.81426 25.28422 -0.19102
v 83.73663 25.27399 0.48982
v 64.17853 25.27732 -9.67646
v 74.59554 25.28298 -5.62995
v 62.82709 24.92865 -5.54638
v 61.75260 26.64358 -2.30073
v 61.49734 25.27554 -1.16501
v 49.43309 25.27341 -1.87243
v 49.65881 26.64618 -3.29232
v 49.43309 25.27341 -1.87243
v 61.49734 25.27554 -1.16501
v 49.92980 24.84547 -7.91931
v 25.64326 28.39475 -9.62547
v 27.54197 26.78467 -0.08883
v 28.48251 23.74383 -0.06534
v 26.52112 24.55953 -8.72037
v 14.56095 19.22811 -0.06783
v 0.00000 17.25006 -0.05011
v 36.61321 25.27647 -1.06487
v 28.48251 23.74383 -0.06534
v 28.48251 23.74383 -0.06534
v 36.61321 25.27647 -1.06487
v 36.86900 24.82515 -9.82136
v 26.52112 24.55953 -8.72037
v 0.00000 15.93619 18.23996
v 24.48008 25.31342 -17.84648
v 0.00000 15.99650 37.27759
v 5.67503 32.70186 -132.32968
v 6.99693 32.48556 -145.97124
v -0.00000 29.96341 -145.97003
v -0.00000 30.01002 -132.32968
v 7.76817 41.41711 -132.32359
v 8.01461 41.51280 -145.97160
v -0.00000 44.54711 -116.60529
v -0.00000 44.90909 -132.32912
v 20.29274 20.46522 55.74269
v 21.15654 23.71818 55.76438
v 30.04214 22.08998 56.17905
v 29.80836 20.76521 57.30287
v 24.19599 27.07190 -17.84382
v 21.15654 23.71818 55.76438
v -0.00000 18.43375 64.64488
v 11.97696 20.45247 64.63875
v 24.48008 25.31342 -17.84648
v 20.29274 20.46522 55.74269
v 29.80836 20.76521 57.30287
v 31.05782 20.36009 51.37125
v 23.38347 20.02806 48.95574
v 26.15025 22.21596 41.98434
v -0.00000 17.19698 55.73194
v -0.00000 18.43375 64.64488
v 11.97696 20.45247 64.63875
v 16.03030 18.89945 55.74773
v 20.29274 20.46522 55.74269
v 23.38347 20.02806 48.95574
v 16.12896 17.97763 42.72144
v 31.20552 23.08121 50.88021
v 24.47697 24.75575 49.50858
v 24.47697 24.75575 49.50858
v 40.00829 22.85186 53.18535
v 40.94190 21.86327 49.01958
v 48.61309 21.81286 52.39761
v 47.83313 22.54697 55.21028
v 55.62389 21.66006 55.20476
v 60.52546 21.65504 58.06559
v 55.07155 22.05632 56.87915
v 54.60863 21.67036 58.43261
v 54.40723 20.79345 59.09431
v 61.86648 20.79183 58.29279
v 55.22163 20.52576 56.77814
v 41.09905 20.76058 48.27884
v 32.44131 22.19435 45.20408
v 32.55489 20.72729 45.31029
v 54.40723 20.79345 59.09431
v 61.86648 20.79183 58.29279
v 48.84966 20.76086 51.33164
v 55.86045 20.76172 54.32893
v 47.90160 20.44802 55.20958
v 47.21777 21.77926 57.75893
v 47.00737 20.79207 58.49058
v 38.80015 20.76027 58.02447
v 39.06712 21.78154 57.18600
v 38.80015 20.76027 58.02447
v 47.00737 20.79207 58.49058
v 39.98466 20.37815 53.36831
v 27.12515 20.10716 43.64513
v 26.15025 22.21596 41.98434
v 27.12515 20.10716 43.64513
v -0.00000 46.11919 -145.94922
v 0.00000 43.41793 -167.75363
v 0.00000 42.23377 -170.46852
v 0.00000 40.80972 -174.59868
v -0.00000 31.58780 -180.84885
v -0.00000 34.54499 -182.72084
v 0.00000 33.82172 -154.07141
v 0.00000 46.95049 -155.89021
v 0.00000 46.74238 -151.40958
v -5.21678 42.32069 -167.76442
v -4.91416 40.54724 -167.79689
v -5.43509 40.90533 -170.00430
v -7.23030 38.59955 -169.45934
v -7.50584 38.73215 -166.17697
v -6.13991 41.04900 -165.49609
v -4.31578 31.10446 -174.23152
v -1.68287 32.29694 -180.37376
v -1.98170 34.54243 -181.37038
v -5.16009 34.54655 -174.23410
v -7.19300 29.72993 -155.86636
v -6.84763 29.02156 -161.43800
v -8.58951 35.38227 -161.38744
v -8.84648 34.90040 -155.87343
v -7.93493 34.44485 -167.98640
v -6.08435 29.69664 -167.98717
v -1.72629 38.29053 -181.42850
v -2.06052 40.36563 -174.57310
v -5.05455 38.68509 -174.38860
v -1.76150 36.00132 -181.77074
v -2.67763 41.89386 -170.31395
v -6.99334 32.30962 -151.47394
v 0.00000 29.88982 -151.47150
v -5.12544 36.00654 -174.22539
v -7.63672 35.43097 -168.06978
v -4.75755 41.61098 -167.64264
v -6.17152 40.33095 -167.70602
v -5.17728 40.55160 -169.47676
v -6.51691 38.75191 -169.07188
v -6.83034 38.77973 -166.39920
v -5.66382 40.79222 -165.76720
v -8.31107 40.12904 -161.38509
v -8.44089 36.22630 -161.45374
v -4.29539 44.33850 -161.36789
v -4.81112 45.64572 -155.90530
v -9.15607 40.92790 -155.89270
v -5.16009 34.54655 -174.23410
v -1.98170 34.54243 -181.37038
v -7.93493 34.44485 -167.98640
v -8.58951 35.38227 -161.38744
v -8.84648 34.90040 -155.87343
v -1.76150 36.00132 -181.77074
v -5.12544 36.00654 -174.22539
v -8.44089 36.22630 -161.45374
v -7.63672 35.43097 -168.06978
v -8.84648 34.90040 -155.87343
v -8.41314 41.38111 -151.48505
v -3.58688 43.46359 -165.18179
v -3.04166 43.01118 -167.75490
v -4.17652 44.82396 -151.43677
v -7.77880 36.87704 -162.57599
v -9.38394 33.12093 -163.89949
v -7.42195 36.65380 -165.04317
v -7.86620 34.81683 -162.95741
v -9.61969 38.54384 -161.76686
v -8.13269 34.93894 -160.69295
v -7.92136 36.46919 -158.61804
v -9.93026 32.96870 -159.84535
v -7.77605 36.71511 -160.99295
v -7.48963 34.43896 -166.67720
v -9.22468 38.16597 -165.45288
v -7.75430 34.56106 -164.57672
v -7.23433 36.87704 -165.95157
v -8.83948 33.12093 -167.60678
v -6.87748 36.65380 -168.41875
v -6.38123 36.61225 -169.65334
v -7.64087 32.85614 -170.97000
v -5.45306 36.38902 -171.96695
v -6.35583 34.12705 -170.02032
v -8.56207 37.85406 -169.12108
v -7.24728 34.24915 -168.10007
v -4.71903 36.61225 -173.21860
v -5.97867 32.85614 -174.53526
v -3.79086 36.38902 -175.53221
v -4.69363 34.12705 -173.58557
v -6.69081 37.85406 -172.68634
v -5.58508 34.24915 -171.66533
v -3.30369 36.61225 -176.74985
v -4.15267 32.85614 -178.06651
v -2.37552 36.38902 -179.06346
v -3.27829 34.12705 -177.11685
v -5.27547 37.85406 -176.21761
v -4.16974 34.24915 -175.19659
v -2.07286 36.56161 -180.17636
v -1.71849 32.98195 -182.86244
v -0.37389 36.54395 -182.44315
v -1.54530 34.12705 -180.35043
v -3.62725 37.85406 -179.75278
v -2.61563 34.24915 -178.66025
v -10.13255 47.21397 39.51458
v -8.97770 44.38779 55.76928
v -18.61555 33.16653 55.78526
v -23.23048 36.52970 39.49233
v -5.13166 39.26057 80.00475
v -2.90468 37.03772 94.23265
v -9.18659 29.86352 94.23508
v -11.97188 29.86012 80.01585
v -8.62930 22.65666 80.02065
v -4.40857 24.09190 94.23331
v -23.13752 40.15148 -0.03936
v -19.76041 40.69188 -17.84781
v -6.40057 48.64010 -17.84784
v -9.44442 48.73754 -0.03538
v -8.30332 30.55956 -57.42912
v -16.99589 27.89965 -33.13737
v -10.76588 41.01915 -57.42127
v -15.36113 40.61942 -33.14119
v -14.71594 22.27990 -17.84213
v -3.93672 29.86436 126.20824
v -5.44701 29.86430 116.89912
v -16.32366 30.54082 64.64587
v -7.68059 42.63058 64.63746
v -7.06789 29.86415 106.22134
v -5.78330 32.52705 -116.60768
v -6.06625 32.19794 -99.20816
v -0.00000 29.39100 -99.20846
v -0.00000 29.91585 -116.60791
v -7.93006 41.14398 -116.60684
v -8.31688 41.00835 -99.20772
v -10.18863 48.53924 18.22316
v -24.57201 38.90377 18.22633
v -28.70715 22.33539 18.23145
v -27.23955 22.23504 36.99869
v -16.15465 17.66503 36.99758
v -15.92205 17.86354 18.23647
v -16.32366 30.54082 64.64587
v -7.68059 42.63058 64.63746
v 0.00000 44.66112 -99.20647
v -0.00000 45.41774 -79.08142
v -8.92445 41.02436 -79.09053
v -6.49286 31.54076 -79.09224
v -0.00000 28.61211 -79.09236
v -10.76588 41.01915 -57.42127
v -8.30332 30.55956 -57.42912
v -36.91913 26.81372 -15.81969
v -24.19599 27.07190 -17.84382
v -25.64326 28.39475 -9.62547
v -36.86638 28.04601 -9.43946
v -27.54197 26.78467 -0.25598
v -36.66791 26.92445 -2.39545
v -49.94145 27.70008 -7.65166
v -62.67532 27.35262 -5.16646
v -63.68801 26.68186 -8.50913
v -50.42801 26.73931 -12.79894
v -74.29907 26.50774 -4.66869
v -73.59339 26.82291 -2.69936
v -81.49474 26.50202 -0.24204
v -73.04622 26.52588 -0.93674
v -72.81425 25.28422 -0.19103
v -73.66869 25.04284 -2.86706
v -83.73663 25.27399 0.48982
v -50.55428 25.27540 -14.07272
v -36.93615 25.27617 -17.05518
v -72.81425 25.28422 -0.19103
v -83.73663 25.27399 0.48982
v -74.59554 25.28298 -5.62995
v -64.17853 25.27732 -9.67647
v -62.82709 24.92865 -5.54638
v -61.75260 26.64358 -2.30073
v -49.65881 26.64618 -3.29232
v -49.43309 25.27341 -1.87243
v -61.49734 25.27553 -1.16501
v -49.43309 25.27341 -1.87243
v -49.92980 24.84547 -7.91931
v -61.49734 25.27553 -1.16501
v -27.54197 26.78467 -0.25598
v -25.64326 28.39475 -9.62547
v -28.48251 23.74383 -0.06534
v -14.56095 19.22811 -0.06783
v -26.52112 24.55953 -8.72037
v -28.48251 23.74383 -0.06534
v -36.61321 25.27647 -1.06487
v -28.48251 23.74383 -0.06534
v -26.52112 24.55953 -8.72037
v -36.86900 24.82515 -9.82135
v -36.61321 25.27647 -1.06487
v -24.48008 25.31342 -17.84648
v 0.00000 15.99650 37.27759
v -5.67503 32.70186 -132.32968
v -0.00000 30.01002 -132.32968
v -0.00000 29.96341 -145.97003
v -6.99693 32.48556 -145.97124
v -7.76817 41.41711 -132.32359
v -8.01461 41.51280 -145.97160
v -0.00000 44.90909 -132.32912
v -0.00000 44.54711 -116.60529
v -20.29274 20.46521 56.28738
v -29.80836 20.76521 57.30287
v -30.04214 22.08998 56.17905
v -21.15654 23.71818 55.76438
v -24.19599 27.07190 -17.84382
v -21.15654 23.71818 55.76438
v -11.97696 20.45247 64.63875
v -24.48008 25.31342 -17.84648
v -20.29274 20.46521 56.28738
v -23.38347 20.02806 48.95574
v -31.05782 20.36009 51.37125
v -29.80836 20.76521 57.30287
v -26.15025 22.21596 41.98434
v -16.03030 18.89945 55.74772
v -11.97696 20.45247 64.63875
v -20.29274 20.46521 56.28738
v -23.38347 20.02806 48.95574
v -16.12896 17.97763 42.72144
v -31.20552 23.08121 50.88021
v -24.47697 24.75575 49.50858
v -24.47697 24.75575 49.50858
v -40.00829 22.85186 53.18535
v -47.83312 22.54697 55.21028
v -48.61309 21.81286 52.39761
v -40.94190 21.86327 49.01958
v -55.62389 21.66006 55.20476
v -55.07155 22.05632 56.87915
v -60.52546 21.65504 58.06559
v -54.60862 21.67036 58.43261
v -54.40723 20.79345 59.09431
v -55.22163 20.52576 56.77814
v -61.86647 20.79183 58.29279
v -41.09905 20.76058 48.27884
v -32.55489 20.72729 45.31029
v -32.44131 22.19435 45.20408
v -54.40723 20.79345 59.09431
v -61.86647 20.79183 58.29279
v -55.86044 20.76172 54.32893
v -48.84966 20.76086 51.33164
v -47.90160 20.44802 55.20958
v -47.21777 21.77926 57.75893
v -39.06712 21.78154 57.18600
v -38.80014 20.76027 58.02447
v -47.00737 20.79207 58.49058
v -38.80014 20.76027 58.02447
v -39.98466 20.37815 53.36831
v -47.00737 20.79207 58.49058
v -27.12515 20.10716 43.64513
v -26.15025 22.21596 41.98434
v -27.12515 20.10716 43.64513
v -0.00000 46.11919 -145.94922
v 0.00000 46.74238 -151.40958
vt 0.145350 0.927768
vt 0.127308 0.916554
vt 0.144152 0.915724
vt 0.132370 0.893093
vt 0.158864 0.893129
vt 0.163865 0.916197
vt 0.097004 0.807623
vt 0.090313 0.835268
vt 0.031621 0.813523
vt 0.044254 0.798487
vt 0.240155 0.820585
vt 0.240955 0.860316
vt 0.196056 0.865615
vt 0.198508 0.813638
vt 0.148360 0.811775
vt 0.143020 0.851932
vt 0.030081 0.911836
vt 0.090977 0.902499
vt 0.084227 0.929369
vt 0.019023 0.921473
vt 0.006021 0.903089
vt 0.022884 0.895466
vt 0.119746 0.938683
vt 0.248372 0.764063
vt 0.281852 0.779602
vt 0.273808 0.836637
vt 0.088261 0.881053
vt 0.141166 0.867268
vt 0.339140 0.388448
vt 0.287881 0.352634
vt 0.340749 0.334546
vt 0.304208 0.291481
vt 0.382583 0.290696
vt 0.391568 0.353677
vt 0.091264 0.773134
vt 0.143690 0.763122
vt 0.195846 0.870321
vt 0.198011 0.901435
vt 0.241676 0.905162
vt 0.240600 0.953467
vt 0.195931 0.948013
vt 0.200698 0.758687
vt 0.032309 0.155168
vt 0.077506 0.108989
vt 0.077506 0.221974
vt 0.046949 0.212823
vt 0.014445 0.103686
vt 0.077506 0.108882
vt 0.012849 0.051139
vt 0.006540 0.010255
vt 0.077506 0.008766
vt 0.077506 0.108815
vt 0.106356 0.218190
vt 0.087774 0.225840
vt 0.087774 0.170158
vt 0.124244 0.169598
vt 0.145885 0.066701
vt 0.145899 0.107874
vt 0.087774 0.064786
vt 0.087774 0.064726
vt 0.087774 0.147341
vt 0.154353 0.009346
vt 0.087774 0.024234
vt 0.273576 0.908693
vt 0.191204 0.983291
vt 0.157422 0.973428
vt 0.163941 0.945095
vt 0.142206 0.944180
vt 0.273874 0.951151
vt 0.016770 0.743307
vt 0.078530 0.744238
vt 0.047877 0.639732
vt 0.015489 0.744232
vt 0.077256 0.744085
vt 0.047420 0.640129
vt 0.015489 0.744232
vt 0.077256 0.744085
vt 0.047420 0.640129
vt 0.015489 0.744232
vt 0.077256 0.744085
vt 0.047420 0.640129
vt 0.015489 0.744232
vt 0.077256 0.744085
vt 0.047420 0.640129
vt 0.015489 0.744232
vt 0.077256 0.744085
vt 0.047420 0.640129
vt 0.015489 0.744232
vt 0.077256 0.744085
vt 0.047420 0.640129
vt 0.015489 0.744232
vt 0.077256 0.744085
vt 0.047420 0.640129
vt 0.015489 0.744232
vt 0.077256 0.744085
vt 0.047420 0.640129
vt 0.015489 0.744232
vt 0.077256 0.744085
vt 0.047420 0.640129
vt 0.015489 0.744232
vt 0.077256 0.744085
vt 0.047420 0.640129
vt 0.015489 0.744232
vt 0.077256 0.744085
vt 0.047420 0.640129
vt 0.015489 0.744232
vt 0.077256 0.744085
vt 0.047420 0.640129
vt 0.834165 0.680639
vt 0.825425 0.582450
vt 0.926022 0.569293
vt 0.932826 0.657916
vt 0.943055 0.714023
vt 0.843482 0.742133
vt 0.052960 0.342135
vt 0.122339 0.337682
vt 0.121224 0.438210
vt 0.056751 0.442783
vt 0.040444 0.445931
vt 0.021886 0.344643
vt 0.192568 0.338418
vt 0.182129 0.440063
vt 0.595814 0.597619
vt 0.588196 0.694657
vt 0.476746 0.690698
vt 0.489951 0.596837
vt 0.581868 0.750511
vt 0.469612 0.730296
vt 0.211431 0.522484
vt 0.211431 0.458948
vt 0.359292 0.407457
vt 0.392346 0.514489
vt 0.386274 0.596971
vt 0.211431 0.593152
vt 0.486305 0.447741
vt 0.471448 0.356799
vt 0.122579 0.696343
vt 0.093547 0.699983
vt 0.077396 0.614964
vt 0.124187 0.612337
vt 0.122921 0.756972
vt 0.987563 0.544769
vt 0.987563 0.642456
vt 0.987563 0.699237
vt 0.119339 0.528615
vt 0.057417 0.531056
vt 0.178902 0.527164
vt 0.536412 0.839822
vt 0.534979 0.791117
vt 0.664191 0.784806
vt 0.666581 0.836224
vt 0.536590 0.908618
vt 0.667296 0.906181
vt 0.222851 0.340963
vt 0.197780 0.439749
vt 0.702075 0.591434
vt 0.701957 0.696103
vt 0.704215 0.489604
vt 0.702389 0.409796
vt 0.812245 0.423349
vt 0.809154 0.490426
vt 0.123026 0.232179
vt 0.047071 0.232154
vt 0.005634 0.232572
vt 0.167297 0.614820
vt 0.368307 0.698462
vt 0.211431 0.664134
vt 0.155986 0.698902
vt 0.822348 0.903482
vt 0.819646 0.981561
vt 0.666133 0.976369
vt 0.701154 0.751584
vt 0.817257 0.769569
vt 0.821466 0.825694
vt 0.982435 0.901711
vt 0.982435 0.996567
vt 0.982435 0.745740
vt 0.982435 0.816753
vt 0.621512 0.171476
vt 0.626356 0.224495
vt 0.532956 0.226510
vt 0.532956 0.173132
vt 0.633172 0.279665
vt 0.532956 0.286436
vt 0.738096 0.221379
vt 0.731640 0.168645
vt 0.826641 0.170937
vt 0.830696 0.210171
vt 0.912098 0.170252
vt 0.967548 0.195155
vt 0.913032 0.198599
vt 0.916750 0.219479
vt 0.922755 0.081261
vt 0.982057 0.119928
vt 0.916668 0.115072
vt 0.729913 0.154454
vt 0.622259 0.156062
vt 0.919751 0.238350
vt 0.990315 0.193537
vt 0.824243 0.152897
vt 0.911421 0.153209
vt 0.828502 0.108765
vt 0.836107 0.245580
vt 0.840009 0.264867
vt 0.747141 0.285644
vt 0.743698 0.265051
vt 0.744536 0.032878
vt 0.837502 0.052152
vt 0.733578 0.103181
vt 0.545435 0.519831
vt 0.596706 0.514078
vt 0.598874 0.501372
vt 0.554139 0.503560
vt 0.589275 0.414170
vt 0.585744 0.324028
vt 0.636274 0.300980
vt 0.532956 0.307403
vt 0.532956 0.026781
vt 0.629963 0.021212
vt 0.624863 0.095435
vt 0.532956 0.083214
vt 0.710394 0.310310
vt 0.502576 0.506328
vt 0.825328 0.324518
vt 0.415859 0.842129
vt 0.314794 0.841313
vt 0.321059 0.786271
vt 0.418361 0.794745
vt 0.415313 0.911324
vt 0.313916 0.910306
vt 0.535898 0.974864
vt 0.415585 0.974500
vt 0.523600 0.025887
vt 0.523600 0.048772
vt 0.445077 0.068038
vt 0.440096 0.054518
vt 0.501496 0.514525
vt 0.920625 0.505077
vt 0.245970 0.230001
vt 0.203939 0.230558
vt 0.532956 0.155153
vt 0.523601 0.304524
vt 0.445253 0.281896
vt 0.460402 0.229311
vt 0.523601 0.240702
vt 0.835831 0.490405
vt 0.945323 0.359549
vt 0.987563 0.369366
vt 0.987618 0.456942
vt 0.932449 0.451105
vt 0.926843 0.483903
vt 0.874142 0.484300
vt 0.851543 0.429197
vt 0.454922 0.113620
vt 0.523600 0.107679
vt 0.879695 0.504695
vt 0.367308 0.124169
vt 0.373574 0.160684
vt 0.292013 0.156933
vt 0.289512 0.132041
vt 0.218634 0.156020
vt 0.169693 0.145017
vt 0.218337 0.140945
vt 0.216972 0.127266
vt 0.213175 0.209233
vt 0.149851 0.178932
vt 0.217056 0.188295
vt 0.374165 0.172591
vt 0.464408 0.162299
vt 0.464358 0.176359
vt 0.214633 0.117922
vt 0.148691 0.145321
vt 0.293102 0.169487
vt 0.218653 0.167187
vt 0.286791 0.199511
vt 0.285455 0.109540
vt 0.282994 0.098880
vt 0.358293 0.077858
vt 0.360623 0.089143
vt 0.354491 0.255093
vt 0.280586 0.230192
vt 0.366515 0.214405
vt 0.850665 0.487354
vt 0.523600 0.162491
vt 0.523600 0.180315
vt 0.315441 0.980159
vt 0.135633 0.967468
vt 0.112066 0.958778
vt 0.078932 0.945430
vt 0.038058 0.785109
vt 0.015760 0.802572
vt 0.087774 0.010518
vt 0.239200 0.991835
vt 0.275556 0.986011
vt 0.145350 0.927768
vt 0.144152 0.915724
vt 0.127308 0.916554
vt 0.132370 0.893093
vt 0.158864 0.893129
vt 0.163865 0.916197
vt 0.097004 0.807623
vt 0.044254 0.798487
vt 0.031621 0.813523
vt 0.090313 0.835268
vt 0.240155 0.820585
vt 0.198508 0.813638
vt 0.196056 0.865615
vt 0.240955 0.860316
vt 0.143020 0.851932
vt 0.148360 0.811775
vt 0.030081 0.911836
vt 0.084227 0.929369
vt 0.090977 0.902499
vt 0.022884 0.895466
vt 0.119746 0.938683
vt 0.273772 0.836365
vt 0.281907 0.779661
vt 0.088261 0.881053
vt 0.141166 0.867268
vt 0.339140 0.388448
vt 0.340749 0.334546
vt 0.287881 0.352634
vt 0.304208 0.291481
vt 0.382583 0.290696
vt 0.391568 0.353677
vt 0.198011 0.901435
vt 0.195846 0.870321
vt 0.195931 0.948013
vt 0.240600 0.953467
vt 0.241676 0.905162
vt 0.032309 0.155168
vt 0.046949 0.212823
vt 0.014445 0.103686
vt 0.012849 0.051139
vt 0.006540 0.010255
vt 0.106356 0.218190
vt 0.124244 0.169598
vt 0.145885 0.066701
vt 0.145899 0.107874
vt 0.154353 0.009346
vt 0.273594 0.908469
vt 0.163941 0.945095
vt 0.142206 0.944180
vt 0.273855 0.951304
vt 0.016770 0.743307
vt 0.047877 0.639732
vt 0.078530 0.744238
vt 0.015489 0.744232
vt 0.047420 0.640129
vt 0.077256 0.744085
vt 0.015489 0.744232
vt 0.047420 0.640129
vt 0.077256 0.744085
vt 0.015489 0.744232
vt 0.047420 0.640129
vt 0.077256 0.744085
vt 0.015489 0.744232
vt 0.047420 0.640129
vt 0.077256 0.744085
vt 0.015489 0.744232
vt 0.047420 0.640129
vt 0.077256 0.744085
vt 0.015489 0.744232
vt 0.047420 0.640129
vt 0.077256 0.744085
vt 0.015489 0.744232
vt 0.047420 0.640129
vt 0.077256 0.744085
vt 0.015489 0.744232
vt 0.047420 0.640129
vt 0.077256 0.744085
vt 0.015489 0.744232
vt 0.047420 0.640129
vt 0.077256 0.744085
vt 0.015489 0.744232
vt 0.047420 0.640129
vt 0.077256 0.744085
vt 0.015489 0.744232
vt 0.047420 0.640129
vt 0.077256 0.744085
vt 0.015489 0.744232
vt 0.047420 0.640129
vt 0.077256 0.744085
vt 0.834165 0.680639
vt 0.932826 0.657916
vt 0.926022 0.569293
vt 0.825425 0.582450
vt 0.052960 0.342135
vt 0.056751 0.442783
vt 0.121224 0.438210
vt 0.122339 0.337682
vt 0.192568 0.338418
vt 0.182129 0.440063
vt 0.595814 0.597619
vt 0.489951 0.596837
vt 0.476746 0.690698
vt 0.588196 0.694657
vt 0.211431 0.522484
vt 0.392346 0.514489
vt 0.211431 0.593152
vt 0.386274 0.596971
vt 0.486305 0.447741
vt 0.122579 0.696343
vt 0.124187 0.612337
vt 0.987563 0.544769
vt 0.987563 0.642456
vt 0.119339 0.528615
vt 0.536431 0.839902
vt 0.666547 0.836213
vt 0.664230 0.784952
vt 0.534878 0.791119
vt 0.536707 0.908646
vt 0.667175 0.906021
vt 0.701957 0.696103
vt 0.702075 0.591434
vt 0.704215 0.489604
vt 0.809154 0.490426
vt 0.812245 0.423349
vt 0.702389 0.409796
vt 0.123026 0.232179
vt 0.047071 0.232154
vt 0.666284 0.976429
vt 0.819776 0.982201
vt 0.822176 0.903757
vt 0.821551 0.826013
vt 0.817234 0.769507
vt 0.982435 0.901711
vt 0.982435 0.816753
vt 0.621512 0.171476
vt 0.532956 0.173132
vt 0.532956 0.226510
vt 0.626356 0.224495
vt 0.532956 0.286436
vt 0.633172 0.279665
vt 0.738096 0.221379
vt 0.830696 0.210171
vt 0.826641 0.170937
vt 0.731640 0.168645
vt 0.912098 0.170252
vt 0.913032 0.198599
vt 0.967548 0.195155
vt 0.916750 0.219479
vt 0.922755 0.081261
vt 0.916668 0.115072
vt 0.982057 0.119928
vt 0.729913 0.154454
vt 0.622259 0.156062
vt 0.919751 0.238350
vt 0.990315 0.193537
vt 0.911421 0.153209
vt 0.824243 0.152897
vt 0.828502 0.108765
vt 0.836107 0.245580
vt 0.743698 0.265051
vt 0.747141 0.285644
vt 0.840009 0.264867
vt 0.744536 0.032878
vt 0.733578 0.103181
vt 0.837502 0.052152
vt 0.596706 0.514078
vt 0.545435 0.519831
vt 0.598874 0.501372
vt 0.589275 0.414170
vt 0.554139 0.503560
vt 0.532956 0.307403
vt 0.636274 0.300980
vt 0.532956 0.026781
vt 0.532956 0.083214
vt 0.624863 0.095435
vt 0.629963 0.021212
vt 0.502576 0.506328
vt 0.825710 0.324065
vt 0.415675 0.841834
vt 0.418388 0.794956
vt 0.321175 0.786417
vt 0.314790 0.841286
vt 0.415443 0.911299
vt 0.314012 0.910284
vt 0.415567 0.974339
vt 0.535788 0.974853
vt 0.523600 0.025887
vt 0.440096 0.054518
vt 0.445077 0.068038
vt 0.523600 0.048772
vt 0.501496 0.514525
vt 0.920625 0.505077
vt 0.203939 0.230558
vt 0.532956 0.155153
vt 0.523601 0.304524
vt 0.523601 0.240702
vt 0.460402 0.229311
vt 0.445253 0.281896
vt 0.835831 0.490405
vt 0.932449 0.451105
vt 0.987618 0.456942
vt 0.926843 0.483903
vt 0.874142 0.484300
vt 0.852034 0.430341
vt 0.454922 0.113620
vt 0.523600 0.107679
vt 0.879695 0.504695
vt 0.367308 0.124169
vt 0.289512 0.132041
vt 0.292013 0.156933
vt 0.373574 0.160684
vt 0.218634 0.156020
vt 0.218337 0.140945
vt 0.169693 0.145017
vt 0.216972 0.127266
vt 0.213175 0.209233
vt 0.217056 0.188295
vt 0.149851 0.178932
vt 0.374165 0.172591
vt 0.464358 0.176359
vt 0.464408 0.162299
vt 0.214633 0.117922
vt 0.148691 0.145321
vt 0.218653 0.167187
vt 0.293102 0.169487
vt 0.286791 0.199511
vt 0.285455 0.109540
vt 0.360623 0.089143
vt 0.358293 0.077858
vt 0.282994 0.098880
vt 0.354491 0.255093
vt 0.366515 0.214405
vt 0.280586 0.230192
vt 0.850665 0.487354
vt 0.523600 0.162491
vt 0.523600 0.180315
vt 0.315414 0.980233
vt 0.275650 0.985574
vn 0.72778 0.63392 -0.26171
vn 0.70787 0.67092 -0.22088
vn 0.91203 0.39038 -0.12571
vn 0.91123 0.36682 -0.18735
vn 0.89794 0.37905 -0.22367
vn 0.78658 0.54682 -0.28684
vn 0.60513 -0.70645 -0.36707
vn 0.89321 -0.26072 -0.36632
vn 0.69353 -0.36661 -0.62018
vn 0.51429 -0.72211 -0.46267
vn 0.69175 -0.68971 0.21396
vn 0.97868 -0.17316 0.11049
vn 0.95195 -0.29834 -0.06915
vn 0.58932 -0.80744 -0.02730
vn 0.68931 -0.68448 -0.23735
vn 0.90947 -0.35443 -0.21736
vn 0.63674 0.57761 -0.51081
vn 0.78057 0.46945 -0.41271
vn 0.31065 0.88654 -0.34284
vn 0.00000 0.57131 -0.82074
vn 0.00000 0.34023 -0.94034
vn 0.67540 0.17065 -0.71743
vn 0.22877 0.88515 -0.40518
vn -0.00000 -0.98196 0.18911
vn 0.00000 -0.96920 0.24627
vn 0.85366 -0.47387 0.21613
vn 0.91427 0.00587 -0.40507
vn 0.97779 0.05260 -0.20287
vn 0.66149 0.73746 -0.13630
vn 0.71796 0.61474 -0.32652
vn 0.81234 0.56765 -0.13369
vn 0.87816 0.40804 -0.24966
vn 0.91994 0.39205 0.00159
vn 0.78568 0.61579 0.05923
vn 0.00000 -0.97427 -0.22537
vn 0.00000 -0.97473 -0.22337
vn 0.98984 0.03398 -0.13803
vn 0.85804 0.46170 -0.22496
vn 0.95980 0.27645 -0.04852
vn 0.57693 0.81610 -0.03370
vn 0.48650 0.83576 -0.25460
vn -0.00000 -0.99703 -0.07706
vn -0.22083 0.96786 0.12036
vn 0.10380 0.99259 0.06318
vn 0.00000 0.99524 0.09742
vn 0.00242 1.00000 -0.00165
vn -0.33641 0.91320 0.22999
vn 0.01456 0.99975 0.01696
vn -0.04514 0.96174 -0.27022
vn -0.48785 -0.55944 -0.67010
vn -0.00000 0.86955 -0.49385
vn 0.10380 0.99259 0.06318
vn -0.24618 -0.95323 0.17533
vn 0.00000 -0.97935 0.20217
vn 0.00000 -0.99303 0.11785
vn -0.33596 -0.93658 0.09970
vn -0.25057 -0.96768 0.02852
vn -0.31196 -0.94741 0.07135
vn 0.00000 -0.99340 0.11469
vn 0.00000 -0.99836 -0.05718
vn 0.00000 -0.99884 0.04807
vn -0.48785 -0.55944 -0.67010
vn 0.00000 -0.69504 -0.71897
vn 0.92244 0.35015 0.16277
vn 0.00000 0.95097 -0.30928
vn -0.00000 0.96576 -0.25943
vn 0.36713 0.90424 -0.21807
vn 0.18768 0.93931 -0.28717
vn 0.47780 0.86850 0.13197
vn 0.88390 0.43670 -0.16736
vn 0.88390 0.43670 -0.16736
vn 0.88390 0.43670 -0.16736
vn 0.91179 -0.40162 -0.08564
vn 0.91179 -0.40162 -0.08564
vn 0.91179 -0.40162 -0.08564
vn 0.86710 0.49814 -0.00147
vn 0.86710 0.49814 -0.00147
vn 0.86710 0.49814 -0.00147
vn 0.91396 -0.39519 -0.09219
vn 0.91396 -0.39519 -0.09219
vn 0.91396 -0.39519 -0.09219
vn 0.87771 0.44893 -0.16757
vn 0.87771 0.44893 -0.16757
vn 0.87771 0.44893 -0.16757
vn 0.83217 0.40996 -0.37340
vn 0.83217 0.40996 -0.37340
vn 0.83217 0.40996 -0.37340
vn 0.83762 -0.40828 -0.36289
vn 0.83762 -0.40828 -0.36289
vn 0.83762 -0.40828 -0.36289
vn 0.83217 0.40996 -0.37340
vn 0.83217 0.40996 -0.37340
vn 0.83217 0.40996 -0.37340
vn 0.85245 -0.36695 -0.37241
vn 0.85245 -0.36695 -0.37241
vn 0.85245 -0.36695 -0.37241
vn 0.86527 0.32836 -0.37880
vn 0.86527 0.32836 -0.37880
vn 0.86527 0.32836 -0.37880
vn 0.85245 -0.36695 -0.37240
vn 0.85245 -0.36695 -0.37240
vn 0.85245 -0.36695 -0.37240
vn 0.74859 0.34894 -0.56379
vn 0.74859 0.34894 -0.56379
vn 0.74859 0.34894 -0.56379
vn 0.79716 -0.36862 -0.47818
vn 0.79716 -0.36862 -0.47818
vn 0.79716 -0.36862 -0.47818
vn 0.52538 0.83651 0.15566
vn 0.88686 0.42056 0.19134
vn 0.80617 0.48540 0.33834
vn 0.54394 0.80668 0.23107
vn 0.00000 0.97535 0.22068
vn -0.00000 0.99274 0.12026
vn 0.62393 0.74733 0.22850
vn 0.96775 0.09452 0.23350
vn 0.96066 -0.10812 0.25583
vn 0.46725 0.86134 0.19944
vn 0.00000 0.98242 0.18668
vn 0.00000 0.97325 0.22973
vn 0.60707 -0.76003 0.23198
vn 0.37683 -0.90057 0.21674
vn 0.77826 0.62156 -0.08931
vn 0.38323 0.92317 -0.02978
vn 0.40266 0.90744 -0.12005
vn 0.80645 0.56203 -0.18376
vn -0.00000 0.99931 -0.03707
vn -0.00000 0.99618 -0.08729
vn 0.72383 -0.66813 -0.17226
vn 0.00000 -0.99589 -0.09059
vn 0.00000 -0.97477 -0.22321
vn 0.79150 -0.47293 -0.38713
vn 0.77032 0.59012 -0.24158
vn 0.85869 0.48727 -0.15881
vn 0.23064 -0.94764 -0.22086
vn 0.00000 -0.98134 -0.19227
vn 0.95906 -0.01735 0.28268
vn 0.00000 0.96012 0.27958
vn -0.00000 0.99217 0.12490
vn 0.98708 -0.03760 0.15576
vn -0.00000 -0.01696 0.99986
vn 0.91270 0.20461 0.35370
vn 0.46588 0.84686 0.25649
vn 0.00000 0.96339 0.26810
vn 0.96449 0.16642 0.20511
vn 0.00000 0.98295 0.18386
vn -0.00000 -0.98536 0.17049
vn 0.76954 -0.63829 -0.02005
vn 0.00000 -0.99986 -0.01682
vn 0.00000 -0.99950 -0.03176
vn 0.76811 -0.63954 -0.03141
vn 0.89744 0.44109 -0.00586
vn 0.84246 0.53816 -0.02543
vn 0.00000 -0.98697 0.16088
vn 0.00000 -0.99105 0.13348
vn 0.78433 0.61950 0.03238
vn 0.38798 0.92111 0.03203
vn 0.94001 -0.34052 0.02055
vn 0.21959 -0.97450 -0.04619
vn 0.28422 -0.95825 0.03114
vn 0.88414 -0.44912 0.12878
vn 0.91270 0.20461 0.35370
vn 0.46588 0.84686 0.25649
vn 0.00000 0.96339 0.26810
vn -0.00000 -0.99580 0.09153
vn -0.00000 0.99163 -0.12910
vn 0.00000 0.99877 -0.04954
vn -0.00000 -0.96819 0.25021
vn 0.90537 0.41988 -0.06336
vn -0.00000 0.99945 -0.03302
vn -0.00000 0.99976 -0.02206
vn 0.00000 0.99976 0.02193
vn 0.00000 -0.99888 -0.04726
vn 0.75904 -0.64839 -0.05867
vn 0.85869 0.48727 -0.15881
vn 0.00000 0.99877 -0.04954
vn 0.00000 -0.99589 -0.09059
vn 0.72383 -0.66813 -0.17226
vn 0.10639 0.85920 -0.50045
vn 0.03147 0.99950 -0.00108
vn 0.51219 0.85349 -0.09603
vn 0.68958 0.43969 -0.57546
vn 0.06805 0.87270 0.48349
vn 0.78181 0.52965 0.32900
vn 0.03030 0.99945 -0.01352
vn 0.13979 0.86712 -0.47807
vn 0.17185 0.86706 -0.46763
vn 0.02945 0.99884 0.03819
vn 0.25981 0.84265 -0.47163
vn 0.12056 0.95061 0.28600
vn 0.02657 0.99774 0.06176
vn -0.05355 0.79525 0.60391
vn -0.07450 -0.18088 0.98068
vn 0.77337 -0.45524 -0.44121
vn 0.01092 -0.99972 0.02090
vn 0.24852 -0.02930 -0.96818
vn 0.12060 -0.53400 -0.83684
vn -0.07450 -0.18088 0.98068
vn 0.77337 -0.45524 -0.44121
vn 0.30146 -0.37551 -0.87642
vn 0.39414 -0.38827 -0.83301
vn 0.01010 -0.99995 -0.00076
vn -0.03879 0.86569 0.49908
vn -0.07750 -0.40959 0.90897
vn 0.00150 -0.09100 0.99585
vn -0.00091 0.92154 0.38828
vn 0.00150 -0.09100 0.99585
vn -0.07750 -0.40959 0.90897
vn 0.00858 -0.99989 -0.01186
vn 0.51219 0.85349 -0.09603
vn 0.78181 0.52965 0.32900
vn 0.44124 -0.88845 0.12636
vn 0.18878 -0.97337 -0.13001
vn 0.20768 -0.96989 -0.12722
vn -0.00000 -0.99336 -0.11506
vn 0.16564 -0.52161 0.83695
vn 0.44124 -0.88845 0.12636
vn 0.44124 -0.88845 0.12636
vn 0.16564 -0.52161 0.83695
vn 0.03831 -0.99870 -0.03350
vn 0.18878 -0.97337 -0.13001
vn 0.00000 -0.99872 -0.05061
vn 0.34737 -0.82486 -0.44603
vn 0.00000 -0.99933 0.03655
vn 0.65195 -0.75794 0.02216
vn 0.76933 -0.63757 0.04038
vn 0.00000 -0.99974 0.02277
vn 0.00000 -1.00000 -0.00129
vn 0.97785 0.20790 0.02413
vn 0.85361 0.51676 0.06570
vn -0.00000 0.99999 0.00492
vn 0.00000 0.99942 0.03418
vn 0.26234 -0.70988 0.65364
vn 0.65557 0.35319 0.66744
vn -0.02476 0.72862 0.68447
vn -0.08397 -0.69818 0.71098
vn 0.68958 0.43969 -0.57546
vn 0.65557 0.35319 0.66744
vn -0.00000 -0.98480 0.17367
vn 0.50505 -0.77014 0.38963
vn 0.34737 -0.82486 -0.44603
vn 0.26234 -0.70988 0.65364
vn -0.08397 -0.69818 0.71098
vn 0.01993 -0.99957 0.02166
vn 0.15246 -0.98506 0.08008
vn 0.84830 -0.11913 -0.51594
vn -0.00000 -0.99011 0.14029
vn -0.00000 -0.98480 0.17367
vn 0.50505 -0.77014 0.38963
vn 0.19987 -0.96692 0.15851
vn 0.26234 -0.70988 0.65364
vn 0.15246 -0.98506 0.08008
vn 0.20960 -0.97441 -0.08118
vn 0.11019 0.99366 0.02232
vn 0.74083 0.63308 0.22444
vn 0.74083 0.63308 0.22444
vn 0.04284 0.99863 -0.03012
vn 0.21824 0.84775 -0.48342
vn 0.19745 0.87197 -0.44797
vn 0.04625 0.99844 0.03130
vn 0.25559 0.84888 -0.46269
vn 0.19849 0.93950 0.27917
vn 0.04793 0.99570 0.07928
vn -0.01408 0.79358 0.60830
vn 0.03210 -0.14052 0.98956
vn 0.86583 -0.35815 -0.34938
vn 0.01613 -0.99933 0.03281
vn 0.35400 -0.31216 -0.88161
vn 0.32937 0.61591 -0.71566
vn 0.23466 -0.83117 -0.50408
vn 0.03210 -0.14052 0.98956
vn 0.86583 -0.35815 -0.34938
vn 0.35734 -0.37755 -0.85426
vn 0.41848 -0.34329 -0.84085
vn 0.01069 -0.99991 0.00825
vn -0.03395 0.83050 0.55598
vn -0.06712 -0.39638 0.91563
vn -0.07192 -0.13298 0.98851
vn -0.03336 0.89944 0.43576
vn -0.07192 -0.13298 0.98851
vn -0.06712 -0.39638 0.91563
vn 0.00953 -0.99993 -0.00628
vn 0.22034 -0.87886 -0.42314
vn 0.84830 -0.11913 -0.51594
vn 0.22034 -0.87886 -0.42314
vn 0.00000 0.99109 0.13316
vn 0.00000 0.94342 -0.33161
vn 0.00000 0.93266 -0.36075
vn 0.00000 0.95290 -0.30329
vn -0.00000 -0.72108 -0.69286
vn -0.00000 -0.53487 -0.84493
vn -0.00000 0.86955 -0.49385
vn -0.00000 0.99802 -0.06287
vn 0.00000 0.99680 0.07995
vn -0.72778 0.63392 -0.26171
vn -0.91203 0.39038 -0.12571
vn -0.70787 0.67092 -0.22088
vn -0.91123 0.36682 -0.18735
vn -0.89794 0.37905 -0.22367
vn -0.78658 0.54682 -0.28684
vn -0.60513 -0.70645 -0.36707
vn -0.51429 -0.72211 -0.46267
vn -0.69353 -0.36661 -0.62018
vn -0.89321 -0.26072 -0.36632
vn -0.69175 -0.68971 0.21396
vn -0.58932 -0.80744 -0.02730
vn -0.95195 -0.29834 -0.06915
vn -0.97868 -0.17316 0.11049
vn -0.90947 -0.35443 -0.21736
vn -0.68931 -0.68448 -0.23735
vn -0.63674 0.57761 -0.51081
vn -0.31065 0.88654 -0.34284
vn -0.78057 0.46945 -0.41271
vn -0.67540 0.17065 -0.71743
vn -0.22877 0.88515 -0.40518
vn -0.85366 -0.47387 0.21613
vn 0.00000 -0.96920 0.24627
vn -0.91427 0.00587 -0.40507
vn -0.97779 0.05260 -0.20287
vn -0.66149 0.73746 -0.13630
vn -0.81234 0.56765 -0.13369
vn -0.71796 0.61474 -0.32652
vn -0.87816 0.40804 -0.24966
vn -0.91994 0.39205 0.00159
vn -0.78568 0.61579 0.05923
vn -0.85804 0.46170 -0.22496
vn -0.98984 0.03398 -0.13803
vn -0.48650 0.83576 -0.25460
vn -0.57693 0.81610 -0.03370
vn -0.95980 0.27645 -0.04852
vn 0.22083 0.96786 0.12036
vn -0.00242 1.00000 -0.00165
vn 0.34376 0.93845 0.03392
vn 0.25119 0.96641 -0.05430
vn 0.48785 -0.55944 -0.67010
vn 0.24618 -0.95323 0.17533
vn 0.33596 -0.93658 0.09970
vn 0.25057 -0.96768 0.02852
vn 0.31196 -0.94741 0.07135
vn 0.48785 -0.55944 -0.67010
vn -0.92244 0.35015 0.16277
vn -0.36713 0.90424 -0.21807
vn -0.18768 0.93931 -0.28717
vn -0.47780 0.86850 0.13197
vn -0.88390 0.43670 -0.16736
vn -0.88390 0.43670 -0.16736
vn -0.88390 0.43670 -0.16736
vn -0.91179 -0.40162 -0.08564
vn -0.91179 -0.40162 -0.08564
vn -0.91179 -0.40162 -0.08564
vn -0.86710 0.49814 -0.00147
vn -0.86710 0.49814 -0.00147
vn -0.86710 0.49814 -0.00147
vn -0.91396 -0.39519 -0.09219
vn -0.91396 -0.39519 -0.09219
vn -0.91396 -0.39519 -0.09219
vn -0.87771 0.44893 -0.16757
vn -0.87771 0.44893 -0.16757
vn -0.87771 0.44893 -0.16757
vn -0.83217 0.40996 -0.37340
vn -0.83217 0.40996 -0.37340
vn -0.83217 0.40996 -0.37340
vn -0.83762 -0.40828 -0.36289
vn -0.83762 -0.40828 -0.36289
vn -0.83762 -0.40828 -0.36289
vn -0.83217 0.40996 -0.37340
vn -0.83217 0.40996 -0.37340
vn -0.83217 0.40996 -0.37340
vn -0.85245 -0.36695 -0.37241
vn -0.85245 -0.36695 -0.37241
vn -0.85245 -0.36695 -0.37241
vn -0.86527 0.32836 -0.37880
vn -0.86527 0.32836 -0.37880
vn -0.86527 0.32836 -0.37880
vn -0.85245 -0.36695 -0.37240
vn -0.85245 -0.36695 -0.37240
vn -0.85245 -0.36695 -0.37240
vn -0.74859 0.34894 -0.56379
vn -0.74859 0.34894 -0.56379
vn -0.74859 0.34894 -0.56379
vn -0.79716 -0.36862 -0.47818
vn -0.79716 -0.36862 -0.47818
vn -0.79716 -0.36862 -0.47818
vn -0.52538 0.83651 0.15566
vn -0.54394 0.80668 0.23107
vn -0.80617 0.48540 0.33834
vn -0.88686 0.42056 0.19134
vn -0.62393 0.74733 0.22850
vn -0.46725 0.86134 0.19944
vn -0.96066 -0.10812 0.25583
vn -0.96775 0.09452 0.23350
vn -0.60707 -0.76003 0.23198
vn -0.37683 -0.90057 0.21674
vn -0.77799 0.62185 -0.08964
vn -0.80645 0.56203 -0.18376
vn -0.40266 0.90744 -0.12005
vn -0.38323 0.92317 -0.02978
vn -0.72383 -0.66813 -0.17226
vn -0.79150 -0.47293 -0.38713
vn -0.85869 0.48727 -0.15881
vn -0.77032 0.59012 -0.24158
vn -0.23064 -0.94764 -0.22086
vn -0.95906 -0.01735 0.28268
vn -0.98708 -0.03760 0.15576
vn -0.91270 0.20461 0.35370
vn -0.46588 0.84686 0.25649
vn -0.96449 0.16642 0.20511
vn -0.76954 -0.63829 -0.02005
vn -0.76811 -0.63954 -0.03141
vn 0.00000 -0.99950 -0.03176
vn 0.00000 -0.99986 -0.01682
vn -0.89744 0.44109 -0.00586
vn -0.84246 0.53816 -0.02543
vn -0.38798 0.92111 0.03203
vn -0.78428 0.61957 0.03239
vn -0.94004 -0.34044 0.02056
vn -0.88414 -0.44912 0.12878
vn -0.28422 -0.95825 0.03114
vn -0.21959 -0.97450 -0.04619
vn -0.91270 0.20461 0.35370
vn -0.46588 0.84686 0.25649
vn -0.00000 0.99976 -0.02206
vn -0.00000 0.99945 -0.03302
vn -0.90537 0.41988 -0.06336
vn -0.75904 -0.64839 -0.05867
vn 0.00000 -0.99888 -0.04726
vn -0.85869 0.48727 -0.15881
vn -0.72383 -0.66813 -0.17226
vn -0.10639 0.85920 -0.50045
vn -0.68958 0.43969 -0.57546
vn -0.51174 0.85378 -0.09582
vn -0.03147 0.99950 -0.00108
vn -0.77543 0.53920 0.32857
vn -0.06520 0.87255 0.48415
vn -0.03030 0.99945 -0.01352
vn -0.02945 0.99884 0.03819
vn -0.17185 0.86706 -0.46763
vn -0.13979 0.86712 -0.47807
vn -0.25981 0.84265 -0.47163
vn -0.02657 0.99774 0.06176
vn -0.12056 0.95061 0.28600
vn 0.05355 0.79525 0.60391
vn 0.07450 -0.18088 0.98068
vn -0.01092 -0.99972 0.02090
vn -0.77337 -0.45523 -0.44121
vn -0.24852 -0.02930 -0.96818
vn -0.12060 -0.53400 -0.83684
vn 0.07450 -0.18088 0.98068
vn -0.77337 -0.45523 -0.44121
vn -0.39414 -0.38827 -0.83301
vn -0.30146 -0.37551 -0.87642
vn -0.01010 -0.99995 -0.00076
vn 0.03879 0.86569 0.49908
vn 0.00091 0.92154 0.38828
vn -0.00150 -0.09100 0.99585
vn 0.07750 -0.40959 0.90897
vn -0.00150 -0.09100 0.99585
vn -0.00858 -0.99989 -0.01186
vn 0.07750 -0.40959 0.90897
vn -0.77543 0.53920 0.32857
vn -0.51174 0.85378 -0.09582
vn -0.44372 -0.88710 0.12717
vn -0.20768 -0.96989 -0.12722
vn -0.18878 -0.97337 -0.13001
vn -0.44372 -0.88710 0.12717
vn -0.15993 -0.51025 0.84503
vn -0.44372 -0.88710 0.12717
vn -0.18878 -0.97337 -0.13001
vn -0.03831 -0.99870 -0.03350
vn -0.15993 -0.51025 0.84503
vn -0.34737 -0.82486 -0.44603
vn 0.00000 -0.99933 0.03655
vn -0.65195 -0.75794 0.02216
vn 0.00000 -1.00000 -0.00129
vn 0.00000 -0.99974 0.02277
vn -0.76933 -0.63757 0.04038
vn -0.97785 0.20790 0.02413
vn -0.85361 0.51676 0.06570
vn 0.00000 0.99942 0.03418
vn -0.00000 0.99999 0.00492
vn -0.27586 -0.68247 0.67686
vn 0.06493 -0.69759 0.71355
vn 0.01123 0.74253 0.66972
vn -0.64344 0.39551 0.65540
vn -0.68958 0.43969 -0.57546
vn -0.64344 0.39551 0.65540
vn -0.50590 -0.76459 0.39933
vn -0.34737 -0.82486 -0.44603
vn -0.27586 -0.68247 0.67686
vn -0.14921 -0.98594 0.07524
vn -0.02104 -0.99956 0.02087
vn 0.06493 -0.69759 0.71355
vn -0.84830 -0.11913 -0.51594
vn -0.19080 -0.96975 0.15228
vn -0.50590 -0.76459 0.39933
vn -0.27586 -0.68247 0.67686
vn -0.14921 -0.98594 0.07524
vn -0.20960 -0.97441 -0.08118
vn -0.11019 0.99366 0.02232
vn -0.74083 0.63308 0.22444
vn -0.74083 0.63308 0.22444
vn -0.04284 0.99863 -0.03012
vn -0.04625 0.99844 0.03130
vn -0.19745 0.87197 -0.44797
vn -0.21824 0.84775 -0.48342
vn -0.25559 0.84888 -0.46269
vn -0.04793 0.99570 0.07928
vn -0.19849 0.93950 0.27917
vn 0.01408 0.79358 0.60830
vn -0.03210 -0.14052 0.98956
vn -0.01613 -0.99933 0.03281
vn -0.86583 -0.35816 -0.34938
vn -0.35400 -0.31216 -0.88161
vn -0.23466 -0.83117 -0.50408
vn -0.32937 0.61591 -0.71566
vn -0.03210 -0.14052 0.98956
vn -0.86583 -0.35816 -0.34938
vn -0.41848 -0.34329 -0.84085
vn -0.35734 -0.37755 -0.85426
vn -0.01069 -0.99991 0.00825
vn 0.03395 0.83050 0.55598
vn 0.03336 0.89944 0.43576
vn 0.07192 -0.13298 0.98851
vn 0.06712 -0.39638 0.91563
vn 0.07192 -0.13298 0.98851
vn -0.00953 -0.99993 -0.00628
vn 0.06712 -0.39638 0.91563
vn -0.22034 -0.87886 -0.42314
vn -0.84830 -0.11913 -0.51594
vn -0.22034 -0.87886 -0.42314
vn 0.00000 0.99109 0.13316
vn 0.00000 0.99680 0.07995
f 55/55/55 56/56/56 53/53/53
f 53/53/53 54/54/54 55/55/55
f 55/55/55 337/337/337 339/339/339
f 339/339/339 61/61/61 55/55/55
f 55/55/55 54/54/54 336/336/336
f 336/336/336 337/337/337 55/55/55
f 55/55/55 61/61/61 58/58/58
f 58/58/58 56/56/56 55/55/55
f 58/58/58 61/61/61 59/59/59
f 57/57/57 58/58/58 59/59/59
f 339/339/339 59/59/59 61/61/61
f 44/44/44 43/43/43 47/47/47
f 45/45/45 46/46/46 43/43/43
f 43/43/43 44/44/44 45/45/45
f 333/333/333 331/331/331 44/44/44
f 44/44/44 48/48/48 333/333/333
f 45/45/45 44/44/44 331/331/331
f 47/47/47 48/48/48 44/44/44
f 48/48/48 47/47/47 49/49/49
f 333/333/333 48/48/48 52/52/52
f 49/49/49 52/52/52 48/48/48
f 52/52/52 334/334/334 333/333/333
f 37/37/37 12/12/12 39/39/39
f 230/230/230 64/64/64 26/26/26
f 12/12/12 26/26/26 64/64/64
f 12/12/12 11/11/11 26/26/26
f 11/11/11 12/12/12 13/13/13
f 26/26/26 226/226/226 230/230/230
f 226/226/226 26/26/26 25/25/25
f 25/25/25 26/26/26 11/11/11
f 24/24/24 11/11/11 14/14/14
f 11/11/11 24/24/24 25/25/25
f 13/13/13 14/14/14 11/11/11
f 15/15/15 14/14/14 13/13/13
f 13/13/13 16/16/16 15/15/15
f 14/14/14 42/42/42 24/24/24
f 42/42/42 14/14/14 15/15/15
f 306/306/306 305/305/305 24/24/24
f 24/24/24 42/42/42 306/306/306
f 317/317/317 24/24/24 305/305/305
f 42/42/42 36/36/36 310/310/310
f 310/310/310 306/306/306 42/42/42
f 258/258/258 257/257/257 254/254/254
f 279/279/279 257/257/257 260/260/260
f 260/260/260 276/276/276 279/279/279
f 278/278/278 279/279/279 276/276/276
f 276/276/276 277/277/277 278/278/278
f 276/276/276 260/260/260 263/263/263
f 263/263/263 264/264/264 276/276/276
f 277/277/277 276/276/276 264/264/264
f 260/260/260 259/259/259 261/261/261
f 261/261/261 263/263/263 260/260/260
f 259/259/259 260/260/260 257/257/257
f 257/257/257 258/258/258 259/259/259
f 273/273/273 259/259/259 258/258/258
f 274/274/274 261/261/261 259/259/259
f 259/259/259 273/273/273 274/274/274
f 505/505/505 515/515/515 499/499/499
f 522/522/522 521/521/521 503/503/503
f 503/503/503 502/502/502 522/522/522
f 521/521/521 522/522/522 523/523/523
f 523/523/523 524/524/524 521/521/521
f 521/521/521 509/509/509 507/507/507
f 507/507/507 503/503/503 521/521/521
f 509/509/509 521/521/521 524/524/524
f 503/503/503 507/507/507 506/506/506
f 506/506/506 504/504/504 503/503/503
f 502/502/502 503/503/503 504/504/504
f 504/504/504 505/505/505 502/502/502
f 505/505/505 504/504/504 519/519/519
f 518/518/518 519/519/519 504/504/504
f 504/504/504 506/506/506 518/518/518
f 308/308/308 341/341/341 316/316/316
f 308/308/308 316/316/316 305/305/305
f 307/307/307 308/308/308 305/305/305
f 478/478/478 476/476/476 316/316/316
f 317/317/317 316/316/316 476/476/476
f 305/305/305 316/316/316 317/317/317
f 531/531/531 478/478/478 344/344/344
f 479/479/479 477/477/477 478/478/478
f 478/478/478 531/531/531 479/479/479
f 476/476/476 478/478/478 477/477/477
f 344/344/344 532/532/532 531/531/531
f 293/293/293 532/532/532 344/344/344
f 69/69/69 294/294/294 293/293/293
f 293/293/293 40/40/40 69/69/69
f 41/41/41 40/40/40 293/293/293
f 286/286/286 294/294/294 69/69/69
f 69/69/69 230/230/230 286/286/286
f 230/230/230 69/69/69 64/64/64
f 64/64/64 69/69/69 40/40/40
f 40/40/40 39/39/39 64/64/64
f 40/40/40 41/41/41 38/38/38
f 38/38/38 39/39/39 40/40/40
f 6/6/6 38/38/38 41/41/41
f 39/39/39 38/38/38 37/37/37
f 6/6/6 5/5/5 38/38/38
f 37/37/37 38/38/38 5/5/5
f 12/12/12 64/64/64 39/39/39
f 152/152/152 231/231/231 232/232/232
f 229/229/229 225/225/225 148/148/148
f 149/149/149 148/148/148 225/225/225
f 148/148/148 149/149/149 150/150/150
f 230/230/230 229/229/229 232/232/232
f 226/226/226 225/225/225 229/229/229
f 229/229/229 230/230/230 226/226/226
f 232/232/232 286/286/286 230/230/230
f 25/25/25 227/227/227 226/226/226
f 225/225/225 226/226/226 227/227/227
f 225/225/225 228/228/228 149/149/149
f 227/227/227 228/228/228 225/225/225
f 201/201/201 189/189/189 187/187/187
f 188/188/188 187/187/187 189/189/189
f 187/187/187 188/188/188 185/185/185
f 189/189/189 191/191/191 188/188/188
f 199/199/199 190/190/190 189/189/189
f 189/189/189 190/190/190 191/191/191
f 190/190/190 199/199/199 198/198/198
f 198/198/198 192/192/192 190/190/190
f 191/191/191 190/190/190 192/192/192
f 203/203/203 188/188/188 191/191/191
f 191/191/191 192/192/192 203/203/203
f 206/206/206 185/185/185 188/188/188
f 188/188/188 203/203/203 206/206/206
f 204/204/204 203/203/203 192/192/192
f 205/205/205 206/206/206 203/203/203
f 449/449/449 450/450/450 439/439/439
f 437/437/437 439/439/439 450/450/450
f 444/444/444 443/443/443 459/459/459
f 443/443/443 444/444/444 445/445/445
f 436/436/436 440/440/440 439/439/439
f 439/439/439 437/437/437 436/436/436
f 439/439/439 441/441/441 449/449/449
f 439/439/439 440/440/440 441/441/441
f 437/437/437 438/438/438 435/435/435
f 435/435/435 436/436/436 437/437/437
f 432/432/432 435/435/435 438/438/438
f 454/454/454 435/435/435 432/432/432
f 436/436/436 435/435/435 454/454/454
f 440/440/440 436/436/436 453/453/453
f 454/454/454 453/453/453 436/436/436
f 453/453/453 442/442/442 440/440/440
f 440/440/440 442/442/442 441/441/441
f 441/441/441 442/442/442 448/448/448
f 448/448/448 449/449/449 441/441/441
f 456/456/456 448/448/448 442/442/442
f 442/442/442 453/453/453 456/456/456
f 455/455/455 456/456/456 453/453/453
f 453/453/453 454/454/454 455/455/455
f 455/455/455 454/454/454 434/434/434
f 432/432/432 434/434/434 454/454/454
f 434/434/434 432/432/432 431/431/431
f 434/434/434 466/466/466 455/455/455
f 466/466/466 434/434/434 433/433/433
f 431/431/431 433/433/433 434/434/434
f 433/433/433 465/465/465 466/466/466
f 511/511/511 510/510/510 527/527/527
f 527/527/527 520/520/520 511/511/511
f 520/520/520 527/527/527 525/525/525
f 525/525/525 526/526/526 520/520/520
f 526/526/526 525/525/525 492/492/492
f 492/492/492 491/491/491 526/526/526
f 514/514/514 513/513/513 526/526/526
f 526/526/526 491/491/491 514/514/514
f 491/491/491 492/492/492 489/489/489
f 514/514/514 491/491/491 490/490/490
f 489/489/489 490/490/490 491/491/491
f 529/529/529 515/515/515 514/514/514
f 514/514/514 530/530/530 529/529/529
f 490/490/490 530/530/530 514/514/514
f 513/513/513 514/514/514 515/515/515
f 267/267/267 275/275/275 281/281/281
f 281/281/281 265/265/265 267/267/267
f 275/275/275 282/282/282 280/280/280
f 280/280/280 281/281/281 275/275/275
f 243/243/243 280/280/280 282/282/282
f 282/282/282 244/244/244 243/243/243
f 270/270/270 244/244/244 282/282/282
f 282/282/282 268/268/268 270/270/270
f 242/242/242 243/243/243 244/244/244
f 245/245/245 244/244/244 270/270/270
f 244/244/244 245/245/245 242/242/242
f 284/284/284 285/285/285 270/270/270
f 270/270/270 269/269/269 284/284/284
f 270/270/270 285/285/285 245/245/245
f 269/269/269 270/270/270 268/268/268
f 430/430/430 429/429/429 447/447/447
f 438/438/438 429/429/429 432/432/432
f 429/429/429 438/438/438 446/446/446
f 446/446/446 447/447/447 429/429/429
f 431/431/431 432/432/432 429/429/429
f 429/429/429 430/430/430 431/431/431
f 447/447/447 488/488/488 430/430/430
f 488/488/488 447/447/447 469/469/469
f 447/447/447 446/446/446 458/458/458
f 458/458/458 469/469/469 447/447/447
f 458/458/458 446/446/446 451/451/451
f 197/197/197 179/179/179 182/182/182
f 180/180/180 179/179/179 186/186/186
f 179/179/179 197/197/197 196/196/196
f 196/196/196 186/186/186 179/179/179
f 181/181/181 182/182/182 179/179/179
f 179/179/179 180/180/180 181/181/181
f 220/220/220 197/197/197 241/241/241
f 182/182/182 241/241/241 197/197/197
f 197/197/197 220/220/220 209/209/209
f 209/209/209 196/196/196 197/197/197
f 200/200/200 196/196/196 209/209/209
f 334/334/334 52/52/52 51/51/51
f 51/51/51 52/52/52 49/49/49
f 49/49/49 50/50/50 51/51/51
f 51/51/51 335/335/335 334/334/334
f 331/331/331 332/332/332 45/45/45
f 203/203/203 204/204/204 205/205/205
f 192/192/192 198/198/198 204/204/204
f 205/205/205 216/216/216 183/183/183
f 183/183/183 206/206/206 205/205/205
f 206/206/206 183/183/183 180/180/180
f 180/180/180 185/185/185 206/206/206
f 184/184/184 183/183/183 216/216/216
f 183/183/183 184/184/184 181/181/181
f 181/181/181 180/180/180 183/183/183
f 216/216/216 217/217/217 184/184/184
f 193/193/193 194/194/194 195/195/195
f 208/208/208 193/193/193 195/195/195
f 351/351/351 352/352/352 353/353/353
f 76/76/76 77/77/77 78/78/78
f 218/218/218 219/219/219 220/220/220
f 220/220/220 221/221/221 218/218/218
f 241/241/241 221/221/221 220/220/220
f 451/451/451 446/446/446 438/438/438
f 451/451/451 452/452/452 458/458/458
f 470/470/470 469/469/469 458/458/458
f 458/458/458 457/457/457 470/470/470
f 457/457/457 458/458/458 452/452/452
f 469/469/469 468/468/468 488/488/488
f 469/469/469 470/470/470 467/467/467
f 467/467/467 468/468/468 469/469/469
f 452/452/452 459/459/459 457/457/457
f 459/459/459 452/452/452 444/444/444
f 452/452/452 451/451/451 450/450/450
f 450/450/450 444/444/444 452/452/452
f 438/438/438 437/437/437 451/451/451
f 450/450/450 451/451/451 437/437/437
f 444/444/444 450/450/450 445/445/445
f 135/135/135 214/214/214 213/213/213
f 214/214/214 135/135/135 136/136/136
f 136/136/136 215/215/215 214/214/214
f 212/212/212 213/213/213 214/214/214
f 463/463/463 215/215/215 136/136/136
f 402/402/402 464/464/464 463/463/463
f 136/136/136 402/402/402 463/463/463
f 402/402/402 136/136/136 131/131/131
f 131/131/131 136/136/136 135/135/135
f 213/213/213 223/223/223 135/135/135
f 132/132/132 135/135/135 223/223/223
f 135/135/135 132/132/132 131/131/131
f 131/131/131 130/130/130 398/398/398
f 131/131/131 132/132/132 129/129/129
f 129/129/129 130/130/130 131/131/131
f 132/132/132 223/223/223 237/237/237
f 133/133/133 132/132/132 237/237/237
f 134/134/134 129/129/129 132/132/132
f 132/132/132 133/133/133 134/134/134
f 237/237/237 126/126/126 133/133/133
f 126/126/126 237/237/237 210/210/210
f 413/413/413 422/422/422 423/423/423
f 428/428/428 425/425/425 424/424/424
f 177/177/177 426/426/426 425/425/425
f 425/425/425 428/428/428 177/177/177
f 424/424/424 427/427/427 428/428/428
f 176/176/176 427/427/427 424/424/424
f 424/424/424 423/423/423 176/176/176
f 176/176/176 170/170/170 169/169/169
f 169/169/169 175/175/175 176/176/176
f 170/170/170 171/171/171 153/153/153
f 153/153/153 169/169/169 170/170/170
f 178/178/178 175/175/175 169/169/169
f 169/169/169 174/174/174 178/178/178
f 174/174/174 169/169/169 153/153/153
f 231/231/231 152/152/152 153/153/153
f 153/153/153 171/171/171 231/231/231
f 153/153/153 151/151/151 174/174/174
f 151/151/151 153/153/153 152/152/152
f 177/177/177 178/178/178 174/174/174
f 174/174/174 173/173/173 177/177/177
f 173/173/173 174/174/174 151/151/151
f 151/151/151 150/150/150 173/173/173
f 152/152/152 148/148/148 151/151/151
f 150/150/150 151/151/151 148/148/148
f 148/148/148 152/152/152 229/229/229
f 232/232/232 229/229/229 152/152/152
f 123/123/123 126/126/126 210/210/210
f 123/123/123 210/210/210 211/211/211
f 464/464/464 402/402/402 471/471/471
f 110/110/110 156/156/156 158/158/158
f 124/124/124 123/123/123 156/156/156
f 172/172/172 127/127/127 124/124/124
f 128/128/128 125/125/125 124/124/124
f 124/124/124 127/127/127 128/128/128
f 123/123/123 124/124/124 125/125/125
f 414/414/414 172/172/172 114/114/114
f 172/172/172 414/414/414 397/397/397
f 397/397/397 127/127/127 172/172/172
f 128/128/128 127/127/127 397/397/397
f 396/396/396 166/166/166 128/128/128
f 397/397/397 396/396/396 128/128/128
f 125/125/125 128/128/128 166/166/166
f 125/125/125 166/166/166 133/133/133
f 133/133/133 126/126/126 125/125/125
f 186/186/186 196/196/196 200/200/200
f 200/200/200 187/187/187 186/186/186
f 186/186/186 185/185/185 180/180/180
f 185/185/185 186/186/186 187/187/187
f 209/209/209 202/202/202 200/200/200
f 201/201/201 200/200/200 202/202/202
f 187/187/187 200/200/200 201/201/201
f 219/219/219 207/207/207 209/209/209
f 209/209/209 220/220/220 219/219/219
f 202/202/202 209/209/209 207/207/207
f 195/195/195 202/202/202 208/208/208
f 207/207/207 208/208/208 202/202/202
f 202/202/202 195/195/195 201/201/201
f 195/195/195 194/194/194 201/201/201
f 189/189/189 201/201/201 199/199/199
f 125/125/125 126/126/126 123/123/123
f 401/401/401 166/166/166 396/396/396
f 166/166/166 401/401/401 400/400/400
f 400/400/400 167/167/167 166/166/166
f 166/166/166 167/167/167 134/134/134
f 134/134/134 133/133/133 166/166/166
f 396/396/396 395/395/395 401/401/401
f 396/396/396 397/397/397 394/394/394
f 394/394/394 395/395/395 396/396/396
f 485/485/485 399/399/399 401/401/401
f 401/401/401 395/395/395 485/485/485
f 400/400/400 401/401/401 399/399/399
f 399/399/399 398/398/398 400/400/400
f 399/399/399 485/485/485 471/471/471
f 399/399/399 471/471/471 402/402/402
f 290/290/290 10/10/10 9/9/9
f 9/9/9 10/10/10 7/7/7
f 7/7/7 8/8/8 9/9/9
f 476/476/476 475/475/475 317/317/317
f 477/477/477 473/473/473 476/476/476
f 475/475/475 476/476/476 473/473/473
f 473/473/473 474/474/474 475/475/475
f 408/408/408 473/473/473 477/477/477
f 411/411/411 474/474/474 473/473/473
f 473/473/473 408/408/408 411/411/411
f 477/477/477 412/412/412 408/408/408
f 412/412/412 477/477/477 479/479/479
f 409/409/409 408/408/408 412/412/412
f 410/410/410 411/411/411 408/408/408
f 408/408/408 409/409/409 410/410/410
f 413/413/413 412/412/412 480/480/480
f 479/479/479 480/480/480 412/412/412
f 412/412/412 413/413/413 409/409/409
f 425/425/425 409/409/409 413/413/413
f 426/426/426 410/410/410 409/409/409
f 409/409/409 425/425/425 426/426/426
f 480/480/480 422/422/422 413/413/413
f 413/413/413 424/424/424 425/425/425
f 423/423/423 424/424/424 413/413/413
f 253/253/253 250/250/250 252/252/252
f 250/250/250 253/253/253 224/224/224
f 252/252/252 283/283/283 253/253/253
f 246/246/246 253/253/253 283/283/283
f 160/160/160 253/253/253 246/246/246
f 224/224/224 253/253/253 160/160/160
f 159/159/159 222/222/222 224/224/224
f 224/224/224 160/160/160 159/159/159
f 246/246/246 161/161/161 160/160/160
f 160/160/160 161/161/161 158/158/158
f 158/158/158 159/159/159 160/160/160
f 246/246/246 256/256/256 110/110/110
f 161/161/161 246/246/246 110/110/110
f 158/158/158 161/161/161 110/110/110
f 159/159/159 158/158/158 212/212/212
f 212/212/212 158/158/158 211/211/211
f 222/222/222 159/159/159 214/214/214
f 212/212/212 214/214/214 159/159/159
f 222/222/222 215/215/215 463/463/463
f 214/214/214 215/215/215 222/222/222
f 483/483/483 484/484/484 481/481/481
f 481/481/481 482/482/482 483/483/483
f 523/523/523 522/522/522 483/483/483
f 483/483/483 482/482/482 523/523/523
f 499/499/499 483/483/483 522/522/522
f 484/484/484 483/483/483 499/499/499
f 499/499/499 500/500/500 484/484/484
f 499/499/499 515/515/515 529/529/529
f 529/529/529 500/500/500 499/499/499
f 522/522/522 502/502/502 499/499/499
f 499/499/499 502/502/502 505/505/505
f 418/418/418 419/419/419 416/416/416
f 416/416/416 417/417/417 418/418/418
f 419/419/419 463/463/463 462/462/462
f 462/462/462 463/463/463 464/464/464
f 419/419/419 418/418/418 472/472/472
f 472/472/472 222/222/222 419/419/419
f 463/463/463 419/419/419 222/222/222
f 493/493/493 498/498/498 418/418/418
f 418/418/418 417/417/417 493/493/493
f 472/472/472 418/418/418 498/498/498
f 387/387/387 493/493/493 417/417/417
f 493/493/493 528/528/528 498/498/498
f 493/493/493 387/387/387 501/501/501
f 498/498/498 497/497/497 494/494/494
f 472/472/472 498/498/498 494/494/494
f 497/497/497 498/498/498 528/528/528
f 494/494/494 247/247/247 472/472/472
f 496/496/496 495/495/495 494/494/494
f 496/496/496 494/494/494 497/497/497
f 247/247/247 494/494/494 495/495/495
f 495/495/495 248/248/248 247/247/247
f 224/224/224 247/247/247 250/250/250
f 249/249/249 250/250/250 247/247/247
f 131/131/131 399/399/399 402/402/402
f 398/398/398 399/399/399 131/131/131
f 395/395/395 461/461/461 485/485/485
f 394/394/394 461/461/461 395/395/395
f 394/394/394 460/460/460 461/461/461
f 460/460/460 394/394/394 415/415/415
f 415/415/415 394/394/394 397/397/397
f 415/415/415 416/416/416 460/460/460
f 462/462/462 460/460/460 416/416/416
f 416/416/416 415/415/415 387/387/387
f 415/415/415 414/414/414 384/384/384
f 384/384/384 387/387/387 415/415/415
f 397/397/397 414/414/414 415/415/415
f 462/462/462 416/416/416 419/419/419
f 387/387/387 417/417/417 416/416/416
f 235/235/235 236/236/236 233/233/233
f 233/233/233 234/234/234 235/235/235
f 278/278/278 236/236/236 235/235/235
f 235/235/235 279/279/279 278/278/278
f 279/279/279 235/235/235 254/254/254
f 254/254/254 235/235/235 234/234/234
f 234/234/234 255/255/255 254/254/254
f 254/254/254 255/255/255 284/284/284
f 284/284/284 269/269/269 254/254/254
f 254/254/254 257/257/257 279/279/279
f 254/254/254 269/269/269 258/258/258
f 348/348/348 349/349/349 350/350/350
f 73/73/73 74/74/74 75/75/75
f 354/354/354 355/355/355 356/356/356
f 79/79/79 80/80/80 81/81/81
f 157/157/157 109/109/109 114/114/114
f 156/156/156 110/110/110 109/109/109
f 109/109/109 157/157/157 156/156/156
f 114/114/114 109/109/109 112/112/112
f 111/111/111 112/112/112 109/109/109
f 109/109/109 110/110/110 111/111/111
f 114/114/114 172/172/172 157/157/157
f 124/124/124 157/157/157 172/172/172
f 156/156/156 157/157/157 124/124/124
f 156/156/156 123/123/123 211/211/211
f 211/211/211 158/158/158 156/156/156
f 147/147/147 407/407/407 404/404/404
f 404/404/404 407/407/407 146/146/146
f 147/147/147 155/155/155 393/393/393
f 404/404/404 165/165/165 147/147/147
f 147/147/147 122/122/122 155/155/155
f 147/147/147 165/165/165 140/140/140
f 140/140/140 145/145/145 147/147/147
f 117/117/117 122/122/122 147/147/147
f 147/147/147 145/145/145 117/117/117
f 393/393/393 155/155/155 154/154/154
f 154/154/154 392/392/392 393/393/393
f 154/154/154 155/155/155 122/122/122
f 122/122/122 121/121/121 154/154/154
f 121/121/121 122/122/122 117/117/117
f 117/117/117 116/116/116 121/121/121
f 5/5/5 28/28/28 37/37/37
f 519/519/519 513/513/513 505/505/505
f 515/515/515 505/505/505 513/513/513
f 526/526/526 513/513/513 519/519/519
f 519/519/519 520/520/520 526/526/526
f 520/520/520 519/519/519 518/518/518
f 511/511/511 518/518/518 512/512/512
f 517/517/517 518/518/518 506/506/506
f 518/518/518 511/511/511 520/520/520
f 506/506/506 508/508/508 517/517/517
f 506/506/506 507/507/507 508/508/508
f 516/516/516 517/517/517 508/508/508
f 508/508/508 509/509/509 516/516/516
f 507/507/507 509/509/509 508/508/508
f 524/524/524 516/516/516 509/509/509
f 510/510/510 511/511/511 512/512/512
f 258/258/258 268/268/268 273/273/273
f 268/268/268 258/258/258 269/269/269
f 282/282/282 275/275/275 273/273/273
f 273/273/273 268/268/268 282/282/282
f 274/274/274 273/273/273 275/275/275
f 267/267/267 266/266/266 274/274/274
f 261/261/261 274/274/274 272/272/272
f 275/275/275 267/267/267 274/274/274
f 272/272/272 262/262/262 261/261/261
f 261/261/261 262/262/262 263/263/263
f 262/262/262 272/272/272 271/271/271
f 271/271/271 264/264/264 262/262/262
f 263/263/263 262/262/262 264/264/264
f 264/264/264 271/271/271 277/277/277
f 265/265/265 266/266/266 267/267/267
f 163/163/163 115/115/115 120/120/120
f 115/115/115 163/163/163 162/162/162
f 162/162/162 116/116/116 115/115/115
f 120/120/120 115/115/115 118/118/118
f 117/117/117 118/118/118 115/115/115
f 115/115/115 116/116/116 117/117/117
f 120/120/120 164/164/164 163/163/163
f 120/120/120 388/388/388 421/421/421
f 421/421/421 164/164/164 120/120/120
f 120/120/120 119/119/119 389/389/389
f 389/389/389 388/388/388 120/120/120
f 325/325/325 321/321/321 320/320/320
f 320/320/320 321/321/321 322/322/322
f 324/324/324 321/321/321 325/325/325
f 321/321/321 323/323/323 322/322/322
f 323/323/323 321/321/321 324/324/324
f 34/34/34 29/29/29 31/31/31
f 29/29/29 30/30/30 31/31/31
f 33/33/33 34/34/34 31/31/31
f 31/31/31 30/30/30 32/32/32
f 32/32/32 33/33/33 31/31/31
f 345/345/345 346/346/346 347/347/347
f 70/70/70 71/71/71 72/72/72
f 357/357/357 358/358/358 359/359/359
f 82/82/82 83/83/83 84/84/84
f 299/299/299 296/296/296 300/300/300
f 300/300/300 326/326/326 299/299/299
f 327/327/327 319/319/319 299/299/299
f 299/299/299 326/326/326 327/327/327
f 328/328/328 326/326/326 300/300/300
f 300/300/300 342/342/342 328/328/328
f 66/66/66 342/342/342 343/343/343
f 342/342/342 66/66/66 65/65/65
f 65/65/65 328/328/328 342/342/342
f 343/343/343 287/287/287 66/66/66
f 328/328/328 65/65/65 293/293/293
f 293/293/293 65/65/65 41/41/41
f 293/293/293 329/329/329 328/328/328
f 326/326/326 328/328/328 329/329/329
f 327/327/327 326/326/326 330/330/330
f 329/329/329 330/330/330 326/326/326
f 330/330/330 308/308/308 327/327/327
f 341/341/341 330/330/330 329/329/329
f 308/308/308 330/330/330 341/341/341
f 344/344/344 329/329/329 293/293/293
f 329/329/329 344/344/344 341/341/341
f 478/478/478 341/341/341 344/344/344
f 316/316/316 341/341/341 478/478/478
f 59/59/59 339/339/339 338/338/338
f 338/338/338 60/60/60 59/59/59
f 59/59/59 60/60/60 57/57/57
f 62/62/62 57/57/57 60/60/60
f 60/60/60 338/338/338 340/340/340
f 340/340/340 63/63/63 60/60/60
f 60/60/60 63/63/63 62/62/62
f 292/292/292 62/62/62 63/63/63
f 292/292/292 63/63/63 340/340/340
f 118/118/118 119/119/119 120/120/120
f 118/118/118 146/146/146 119/119/119
f 118/118/118 117/117/117 145/145/145
f 145/145/145 146/146/146 118/118/118
f 389/389/389 119/119/119 146/146/146
f 389/389/389 146/146/146 407/407/407
f 407/407/407 390/390/390 389/389/389
f 388/388/388 389/389/389 390/390/390
f 388/388/388 391/391/391 420/420/420
f 420/420/420 421/421/421 388/388/388
f 390/390/390 391/391/391 388/388/388
f 390/390/390 407/407/407 147/147/147
f 147/147/147 393/393/393 390/390/390
f 390/390/390 393/393/393 392/392/392
f 392/392/392 391/391/391 390/390/390
f 247/247/247 248/248/248 249/249/249
f 486/486/486 495/495/495 496/496/496
f 486/486/486 405/405/405 495/495/495
f 501/501/501 386/386/386 486/486/486
f 486/486/486 386/386/386 405/405/405
f 385/385/385 406/406/406 405/405/405
f 405/405/405 386/386/386 385/385/385
f 501/501/501 387/387/387 386/386/386
f 386/386/386 387/387/387 384/384/384
f 384/384/384 385/385/385 386/386/386
f 406/406/406 385/385/385 113/113/113
f 114/114/114 113/113/113 385/385/385
f 385/385/385 384/384/384 114/114/114
f 113/113/113 144/144/144 406/406/406
f 113/113/113 112/112/112 143/143/143
f 143/143/143 144/144/144 113/113/113
f 112/112/112 113/113/113 114/114/114
f 114/114/114 384/384/384 414/414/414
f 142/142/142 143/143/143 112/112/112
f 112/112/112 111/111/111 142/142/142
f 238/238/238 249/249/249 142/142/142
f 238/238/238 142/142/142 111/111/111
f 256/256/256 238/238/238 111/111/111
f 256/256/256 111/111/111 110/110/110
f 238/238/238 251/251/251 249/249/249
f 251/251/251 250/250/250 249/249/249
f 251/251/251 252/252/252 250/250/250
f 312/312/312 315/315/315 297/297/297
f 313/313/313 297/297/297 298/298/298
f 318/318/318 313/313/313 298/298/298
f 298/298/298 319/319/319 318/318/318
f 296/296/296 298/298/298 297/297/297
f 298/298/298 299/299/299 319/319/319
f 298/298/298 296/296/296 299/299/299
f 295/295/295 297/297/297 315/315/315
f 295/295/295 296/296/296 297/297/297
f 287/287/287 343/343/343 315/315/315
f 315/315/315 288/288/288 287/287/287
f 315/315/315 343/343/343 295/295/295
f 342/342/342 300/300/300 295/295/295
f 295/295/295 343/343/343 342/342/342
f 300/300/300 296/296/296 295/295/295
f 67/67/67 68/68/68 1/1/1
f 1/1/1 6/6/6 67/67/67
f 23/23/23 2/2/2 1/1/1
f 1/1/1 68/68/68 23/23/23
f 6/6/6 1/1/1 3/3/3
f 1/1/1 2/2/2 3/3/3
f 68/68/68 67/67/67 66/66/66
f 41/41/41 67/67/67 6/6/6
f 67/67/67 41/41/41 65/65/65
f 65/65/65 66/66/66 67/67/67
f 66/66/66 287/287/287 68/68/68
f 363/363/363 364/364/364 365/365/365
f 88/88/88 89/89/89 90/90/90
f 23/23/23 68/68/68 287/287/287
f 19/19/19 23/23/23 288/288/288
f 287/287/287 288/288/288 23/23/23
f 2/2/2 23/23/23 19/19/19
f 18/18/18 4/4/4 2/2/2
f 3/3/3 2/2/2 4/4/4
f 19/19/19 18/18/18 2/2/2
f 5/5/5 6/6/6 3/3/3
f 4/4/4 5/5/5 3/3/3
f 4/4/4 28/28/28 5/5/5
f 4/4/4 18/18/18 27/27/27
f 27/27/27 28/28/28 4/4/4
f 27/27/27 18/18/18 17/17/17
f 17/17/17 18/18/18 19/19/19
f 288/288/288 289/289/289 19/19/19
f 369/369/369 370/370/370 371/371/371
f 94/94/94 95/95/95 96/96/96
f 375/375/375 376/376/376 377/377/377
f 100/100/100 101/101/101 102/102/102
f 366/366/366 367/367/367 368/368/368
f 91/91/91 92/92/92 93/93/93
f 360/360/360 361/361/361 362/362/362
f 85/85/85 86/86/86 87/87/87
f 372/372/372 373/373/373 374/374/374
f 97/97/97 98/98/98 99/99/99
f 15/15/15 36/36/36 42/42/42
f 36/36/36 15/15/15 7/7/7
f 15/15/15 16/16/16 8/8/8
f 8/8/8 7/7/7 15/15/15
f 36/36/36 35/35/35 301/301/301
f 301/301/301 310/310/310 36/36/36
f 7/7/7 35/35/35 36/36/36
f 310/310/310 309/309/309 307/307/307
f 307/307/307 306/306/306 310/310/310
f 310/310/310 301/301/301 304/304/304
f 304/304/304 309/309/309 310/310/310
f 305/305/305 306/306/306 307/307/307
f 303/303/303 304/304/304 301/301/301
f 302/302/302 301/301/301 35/35/35
f 301/301/301 302/302/302 303/303/303
f 35/35/35 290/290/290 302/302/302
f 10/10/10 290/290/290 35/35/35
f 35/35/35 7/7/7 10/10/10
f 303/303/303 302/302/302 290/290/290
f 290/290/290 291/291/291 303/303/303
f 9/9/9 291/291/291 290/290/290
f 381/381/381 382/382/382 383/383/383
f 106/106/106 107/107/107 108/108/108
f 121/121/121 116/116/116 162/162/162
f 162/162/162 240/240/240 121/121/121
f 121/121/121 240/240/240 239/239/239
f 239/239/239 154/154/154 121/121/121
f 392/392/392 154/154/154 239/239/239
f 239/239/239 487/487/487 392/392/392
f 392/392/392 487/487/487 420/420/420
f 420/420/420 391/391/391 392/392/392
f 146/146/146 145/145/145 140/140/140
f 146/146/146 139/139/139 404/404/404
f 140/140/140 139/139/139 146/146/146
f 137/137/137 140/140/140 165/165/165
f 139/139/139 140/140/140 137/137/137
f 139/139/139 138/138/138 403/403/403
f 403/403/403 404/404/404 139/139/139
f 378/378/378 379/379/379 380/380/380
f 103/103/103 104/104/104 105/105/105
f 137/137/137 138/138/138 139/139/139
f 165/165/165 404/404/404 403/403/403
f 403/403/403 168/168/168 165/165/165
f 165/165/165 168/168/168 137/137/137
f 141/141/141 137/137/137 168/168/168
f 137/137/137 141/141/141 138/138/138
f 403/403/403 138/138/138 141/141/141
f 141/141/141 168/168/168 403/403/403
f 17/17/17 19/19/19 289/289/289
f 289/289/289 20/20/20 17/17/17
f 17/17/17 22/22/22 27/27/27
f 22/22/22 17/17/17 20/20/20
f 312/312/312 289/289/289 288/288/288
f 289/289/289 312/312/312 311/311/311
f 311/311/311 20/20/20 289/289/289
f 314/314/314 21/21/21 20/20/20
f 20/20/20 311/311/311 314/314/314
f 20/20/20 21/21/21 22/22/22
f 318/318/318 314/314/314 311/311/311
f 311/311/311 313/313/313 318/318/318
f 311/311/311 312/312/312 313/313/313
f 288/288/288 315/315/315 312/312/312
f 297/297/297 313/313/313 312/312/312
