# basilosaurus reconstructed from live game memory
v -2.55997 34.57676 -110.25957
v -0.00000 32.91299 -108.60542
v -0.00000 31.99701 -101.42004
v -8.03955 34.59230 -101.38457
v -13.28391 52.54487 -83.47656
v -11.86719 47.72234 -83.47778
v -12.33297 49.51740 -87.57057
v -17.69982 43.92703 -80.70947
v -15.16923 44.09905 -86.49281
v -16.58731 49.67162 -79.59637
v -22.52856 36.93255 -63.13147
v -23.87866 29.18876 -63.16769
v -22.10425 28.74455 -73.89568
v -21.66717 35.14368 -73.76503
v -12.14771 30.05307 -92.90364
v -16.47766 23.44451 -85.09947
v -10.48869 22.18955 -85.15018
v -19.11082 21.50755 -73.78812
v -12.57867 18.87777 -73.58650
v -2.53835 47.24777 -109.34120
v -0.00000 47.52073 -110.12387
v -0.00000 51.78770 -101.03471
v -4.39872 50.09090 -101.10312
v -3.18700 43.21516 -110.68701
v -0.00000 43.73857 -111.65022
v -8.89930 44.74374 -101.24171
v -9.16453 38.95813 -101.09465
v -2.86721 39.02142 -110.62064
v -10.92956 49.38124 143.95892
v -0.00000 56.06557 143.96414
v -0.00000 50.96113 159.20483
v -9.66339 46.20110 159.26498
v -12.63409 52.31147 126.78758
v -0.00000 61.10343 126.70772
v -15.23690 36.71521 143.95941
v -11.60443 27.48261 143.96783
v -11.82739 24.12425 126.78739
v -17.04883 36.68242 126.74501
v -0.00000 66.83708 -17.00097
v -13.62978 61.23724 -16.99691
v -13.65583 58.45018 -31.07982
v 0.00000 63.45098 -31.07983
v -13.81264 36.32010 159.28864
v -12.89456 51.44086 -83.27330
v -15.66968 47.77473 -83.86296
v -12.11809 49.29361 -86.90698
v -14.60307 44.39529 -86.07193
v -16.34180 44.46243 -81.34291
v -15.95079 49.45280 -79.96997
v -0.00000 57.70599 -71.11345
v -0.00000 59.87821 -63.01065
v -12.13956 55.73055 -63.04676
v -10.51130 54.70829 -71.93300
v -19.18414 29.01968 117.47464
v -18.82648 36.49787 117.26611
v -17.04883 36.68242 126.74501
v -12.12293 34.58103 -92.88130
v -16.41432 34.67934 -84.72961
v -18.00851 29.47397 -84.63132
v -24.63767 51.45231 -17.03598
v -31.28973 36.21092 -17.01065
v -28.03922 36.97959 -31.07983
v -23.00164 51.19656 -31.07983
v -21.50770 30.41977 113.66591
v -22.73095 31.84393 109.61777
v -20.30640 36.48976 108.53822
v -46.20290 29.47792 114.38279
v -45.25535 30.57266 117.39607
v -48.34028 29.80679 118.39785
v -44.49462 29.37867 119.30199
v -22.72283 26.25744 109.16240
v -21.45284 28.75078 114.39224
v -45.22021 27.47671 117.38943
v -45.92116 27.69020 115.00204
v -48.26842 27.77763 117.79613
v -44.22533 28.75896 120.04047
v -44.69641 27.78098 119.20542
v -47.87239 27.83116 118.79102
v -48.12981 28.64344 119.62991
v -24.23425 28.75669 104.62270
v -23.36848 36.35948 99.12399
v -23.57317 30.30279 105.45811
v -35.14840 30.05131 118.19590
v -34.80167 28.90217 118.93470
v -48.12981 28.64344 119.62991
v -37.79929 27.60925 118.26592
v -37.85204 27.31073 114.00082
v -36.38066 31.27091 114.26039
v -46.46808 28.57742 113.68369
v -38.08311 28.46650 108.91203
v -37.74505 29.46754 109.75603
v -46.46808 28.57742 113.68369
v -40.26435 27.67539 111.01336
v -38.08311 28.46650 108.91203
v -48.97366 28.51347 117.25057
v 0.00000 15.51033 -31.07983
v -22.35331 17.84810 -31.07983
v -21.86286 15.18276 -21.96213
v 0.00000 13.06111 -22.01578
v -49.35984 28.62307 118.70874
v -11.82739 24.12425 126.78739
v -12.16815 22.19440 117.20433
v -48.97366 28.51347 117.25057
v -22.13822 13.36902 -12.07346
v -0.00000 11.17292 -12.15685
v -22.13822 13.36902 -12.07346
v -22.87745 12.13812 -0.26130
v -0.00000 9.61280 -0.33430
v -0.00000 11.17292 -12.15685
v -17.06881 14.88720 70.08401
v -0.00000 11.63498 70.07941
v -0.00000 8.16467 34.82891
v -21.70093 11.55263 34.82732
v -7.89899 59.56104 117.25262
v -0.00000 64.74596 102.57611
v -0.00000 75.11610 114.57621
v -2.84514 70.92404 118.22570
v -15.19883 19.11471 99.15079
v -13.19511 20.77235 109.04735
v -49.35984 28.62307 118.70874
v -23.57317 30.30279 105.45811
v -22.73095 31.84393 109.61777
v -27.38929 30.88753 111.24892
v -28.52266 29.72420 107.75880
v -21.50770 30.41977 113.66591
v -26.25938 29.93667 114.54844
v -21.45284 28.75078 114.39224
v -26.08915 28.89015 115.08349
v -28.75752 28.77612 107.02399
v -27.12967 27.21852 111.03361
v -22.72283 26.25744 109.16240
v -24.23425 28.75669 104.62270
v -28.75752 28.77612 107.02399
v -33.19756 27.27077 112.85352
v -12.12293 34.58103 -92.88130
v -0.00000 30.53473 -92.68034
v -0.00000 27.54969 -84.17529
v -16.41432 34.67934 -84.72961
v -0.00000 16.01712 98.99130
v -28.42375 35.65531 70.10542
v -0.00000 19.47437 117.21639
v -0.00000 17.84377 108.78544
v -26.24095 52.24166 0.14568
v -33.25823 35.72989 -0.16496
v -31.28973 36.21092 -17.01065
v -24.63767 51.45231 -17.03598
v -16.75092 52.40649 102.80560
v -32.17425 35.60967 34.93958
v -25.43582 52.64913 34.96638
v -22.97828 51.77346 70.11736
v -13.71303 52.47353 117.25655
v -0.00000 43.84981 -101.26457
v -0.00000 40.19035 -110.45398
v -2.86721 39.02142 -110.62064
v -9.16453 38.95813 -101.09465
v -16.73463 20.83305 -63.20084
v -13.17776 56.27045 -41.86593
v 0.00000 60.59547 -41.86593
v -26.10358 26.61966 -31.07983
v -25.92176 28.16023 -41.86594
v -26.00296 37.69964 -41.86594
v -22.58821 50.45036 -41.86593
v -20.27858 49.36687 -63.08883
v -13.16634 36.31863 185.80362
v -11.14888 32.35481 185.69223
v -10.28096 31.16307 172.81537
v -12.59252 36.31987 172.78539
v -0.00000 66.83708 -17.00097
v -0.00000 68.22218 0.28719
v -13.28772 62.30207 0.18582
v -13.62978 61.23724 -16.99691
v -0.00000 68.03044 70.24258
v -10.63327 63.72949 70.25294
v -12.89782 63.81483 34.94439
v -0.00000 68.97292 34.96219
v -42.60704 25.01805 -22.02341
v -31.56612 26.68634 -22.22865
v -32.15977 25.26250 -16.78814
v -42.49701 22.64605 -16.90905
v -32.21647 20.65231 -15.22331
v -29.72906 19.09058 -22.14978
v -41.06806 18.93345 -21.97410
v -42.39043 19.66634 -15.52725
v -55.52441 21.13174 -12.84559
v -57.03249 24.15311 -19.92545
v -57.91748 21.94799 -26.83804
v -42.18994 23.40386 -27.81504
v -56.21223 17.88331 -20.40639
v -54.95961 18.41349 -11.67542
v -41.94237 20.50856 -29.34615
v -57.77779 19.90106 -28.40724
v -69.94670 20.10966 -8.69961
v -81.15964 19.22971 -6.94440
v -82.81268 19.99657 -10.62761
v -71.22487 22.82216 -15.33250
v -82.42328 19.85242 -15.04372
v -72.17661 20.59555 -21.81374
v -71.35648 17.17954 -15.91395
v -82.81755 16.57664 -11.14772
v -81.47501 17.19458 -5.70707
v -69.69232 17.32775 -7.58327
v -72.42487 18.66127 -23.33324
v -83.36707 18.24206 -15.89769
v -32.21647 20.65231 -15.22331
v -42.39043 19.66634 -15.52725
v -54.95961 18.41349 -11.67542
v -69.69232 17.32775 -7.58327
v -81.47501 17.19458 -5.70707
v -21.10384 40.26525 195.98956
v -38.58134 36.61578 210.76208
v -39.18741 34.95872 209.54675
v -22.25718 36.31037 195.52545
v -46.56095 34.87634 223.12163
v -46.93976 33.72456 222.50150
v -48.84229 33.70559 235.62091
v -85.63289 18.07103 -10.31255
v -85.63289 18.07103 -10.31255
v -16.34179 39.75271 207.99771
v -33.91856 37.20354 217.47740
v -43.50531 35.54409 226.47694
v -32.21647 20.65231 -15.22331
v -32.15977 25.26250 -16.78814
v -31.17575 21.72272 -10.42928
v -29.72906 19.09058 -22.14978
v -28.94762 20.84982 -28.82888
v -32.15977 25.26250 -16.78814
v -31.56612 26.68634 -22.22865
v -30.05806 25.36788 -27.42457
v -42.18754 35.78056 229.23366
v -32.24552 37.03210 222.42218
v -14.97249 38.68566 215.86411
v -0.00000 41.60468 204.29549
v -0.00000 39.87849 213.11230
v -20.73766 33.11734 196.59180
v -37.84154 33.34628 210.27138
v -46.02006 32.60149 223.24471
v -32.42596 33.75776 218.24425
v -15.48687 33.07909 209.48373
v -41.83144 34.24001 227.37988
v -0.00000 32.86257 205.83658
v -0.00000 32.09645 196.71555
v -42.18754 35.78056 229.23366
v -32.24552 37.03210 222.42218
v -14.97249 38.68566 215.86411
v -0.00000 39.87849 213.11230
v -32.21647 20.65231 -15.22331
v -8.98962 60.29836 102.67999
v -10.30591 29.52271 159.27930
v 0.00000 47.51566 172.81082
v -9.76689 43.76506 172.74922
v -0.00000 78.05837 120.48477
v -12.63409 52.31147 126.78758
v -0.00000 79.29669 124.32229
v -24.23425 28.75669 104.62270
v 0.00000 44.62210 185.80377
v -10.64003 41.37495 185.81796
v -0.00000 23.97914 -70.69697
v -21.66717 35.14368 -73.76503
v -0.00000 28.00289 -101.44754
v -0.00000 31.34761 -110.44218
v -2.70996 32.15031 -109.70560
v -7.72290 30.55339 -101.40961
v -2.55997 34.57676 -110.25957
v -8.03955 34.59230 -101.38457
v -0.00000 34.56013 -111.09888
v 0.00000 21.08815 126.80594
v 0.00000 21.08815 126.80594
v -0.00000 24.27125 143.96811
v -0.00000 26.68646 159.27960
v 0.00000 28.79368 172.75842
v 0.00000 30.58741 185.76944
v -7.51885 56.09876 -83.73250
v -5.53379 51.82721 -92.75421
v -0.00000 42.10086 -80.46449
v -0.00000 44.70047 -92.95059
v -12.88608 38.94917 -92.47519
v -16.12562 38.89152 -84.59171
v -16.12562 38.89152 -84.59171
v -12.88608 38.94917 -92.47519
v -12.25488 45.59767 -92.92046
v -0.00000 40.97729 -69.89650
v -21.66717 35.14368 -73.76503
v -20.14768 43.19562 -73.25998
v -18.06873 50.09457 -72.55994
v -15.35553 51.63720 -78.49748
v -8.59968 55.41256 -77.50972
v -20.47195 20.44517 -41.86594
v -0.00000 17.85235 -73.56334
v -0.00000 21.59622 -85.10225
v -0.00000 17.99097 -63.21852
v -0.00000 26.27032 -92.78886
v -0.00000 56.43125 -77.11746
v -0.00000 61.22581 126.58553
v -0.00000 61.10343 126.70772
v 0.00000 18.23597 -41.86594
v -0.00000 52.84238 -92.65784
v -6.15246 40.10436 -103.52278
v -4.20264 36.01464 -104.83421
v -4.40816 39.99985 -106.35414
v -4.33336 40.04205 -106.40341
v -2.53010 36.30690 -107.59319
v -2.69658 39.92302 -108.99019
v -2.73418 39.78524 -109.09138
v -1.00576 36.83947 -109.93407
v -0.51571 39.71128 -111.11740
v -7.72682 39.65341 -100.90465
v -5.86091 35.88313 -102.20381
v -5.98781 39.48550 -103.63696
v -9.36369 39.61484 -97.71281
v -7.85355 35.76119 -99.19746
v -7.89417 40.16537 -101.06531
v -10.67916 39.54070 -94.95811
v -9.72909 35.90297 -96.25043
v -9.48028 39.61083 -97.46629
v -12.37272 39.48438 -92.00183
v -10.93822 35.83266 -93.29472
v -11.05125 39.56403 -94.92125
v -13.67839 40.15446 -89.11815
v -12.20706 36.15028 -90.43533
v -12.33514 39.99571 -91.93671
v -15.14571 39.50617 -85.74176
v -13.38370 36.06168 -87.31393
v -13.66216 39.28821 -88.68962
v -16.77107 39.39603 -82.88382
v -15.21520 36.06393 -84.12514
v -15.17703 39.20310 -85.45445
v -17.92356 38.77313 -79.70172
v -16.34100 35.68111 -81.27213
v -16.46453 39.01991 -82.35876
v -11.74836 33.50840 -90.41105
v -12.07195 37.66114 -88.95655
v -13.09478 33.83014 -87.59941
v -10.51939 33.50840 -93.21969
v -10.65222 37.66114 -91.75185
v -11.49432 33.83014 -90.34009
v -13.41926 33.29945 -87.01921
v -13.74284 37.45219 -85.56471
v -14.76567 33.62118 -84.20759
v -15.46272 33.17767 -83.96959
v -15.78630 37.33041 -82.51511
v -16.80914 33.49940 -81.15796
v -8.89995 33.50842 -96.30214
v -9.22353 37.66114 -94.84766
v -10.24637 33.83014 -93.49052
v -7.89718 33.50842 -99.13216
v -8.22077 37.66116 -97.67769
v -9.24360 33.83015 -96.32055
v -6.75015 33.50842 -102.30721
v -7.07374 37.66117 -100.85271
v -8.09657 33.83015 -99.49555
v -5.36347 33.50843 -105.32086
v -5.68706 37.66117 -103.86637
v -6.70989 33.83016 -102.50923
v -3.19346 33.50842 -107.92516
v -3.78880 37.66117 -106.50971
v -5.05943 33.83016 -105.25002
v -1.11873 33.75025 -110.09792
v -1.83956 37.22971 -108.96432
v -3.09670 34.01981 -108.00851
v -30.05806 25.36788 -27.42457
v -28.94762 20.84982 -28.82888
v -0.00000 43.16544 195.86212
v -0.00000 70.68927 122.91563
v -0.00000 34.56013 -111.09888
v -0.00000 39.44643 -111.78088
v -0.00000 54.39407 -83.51010
v -0.00000 39.44643 -111.78088
v -0.00000 23.97914 -70.69697
v 2.55997 34.57676 -110.25957
v 8.03955 34.59230 -101.38457
v 13.28391 52.54487 -83.47656
v 12.33297 49.51740 -87.57057
v 11.86719 47.72234 -83.47778
v 17.69982 43.92703 -80.70947
v 15.16923 44.09905 -86.49281
v 16.58731 49.67162 -79.59637
v 22.52856 36.93255 -63.13147
v 21.66717 35.14368 -73.76503
v 22.10425 28.74455 -73.89568
v 23.87866 29.18876 -63.16769
v 12.14771 30.05307 -92.90364
v 10.48868 22.18955 -85.15018
v 16.47765 23.44451 -85.09947
v 12.57867 18.87777 -73.58650
v 19.11082 21.50755 -73.78812
v 2.53835 47.24777 -109.34120
v 4.39872 50.09090 -101.10312
v 3.18700 43.21516 -110.68701
v 8.89930 44.74374 -101.24171
v 2.86721 39.02142 -110.62064
v 9.16453 38.95813 -101.09465
v 10.92956 49.38124 143.95892
v 9.66339 46.20110 159.26498
v 12.63409 52.31147 126.78758
v 15.23690 36.71521 143.95941
v 17.04883 36.68242 126.74501
v 11.82739 24.12425 126.78739
v 11.60443 27.48261 143.96783
v 13.65583 58.45018 -31.07982
v 13.62978 61.23724 -16.99691
v 13.81264 36.32010 159.28864
v 12.89456 51.44086 -83.27330
v 12.11809 49.29361 -86.90698
v 15.66968 47.77473 -83.86296
v 14.60307 44.39529 -86.07193
v 16.34180 44.46243 -81.34291
v 15.95079 49.45280 -79.96997
v 10.51130 54.70829 -71.93300
v 12.13956 55.73055 -63.04676
v 19.18414 29.01968 117.47464
v 17.04883 36.68242 126.74501
v 18.82648 36.49787 117.26611
v 12.12293 34.58103 -92.88130
v 18.00851 29.47397 -84.63132
v 16.41432 34.67935 -84.72961
v 24.63767 51.45231 -17.03598
v 23.00164 51.19656 -31.07983
v 28.03922 36.97959 -31.07983
v 31.28973 36.21092 -17.01065
v 20.30640 36.48976 108.53822
v 22.73095 31.84393 109.61777
v 21.50770 30.41977 113.66591
v 46.20290 29.47792 114.38280
v 48.34028 29.80679 118.39786
v 45.25535 30.57266 117.39608
v 44.49462 29.37867 119.30199
v 21.45284 28.75078 114.39224
v 22.72283 26.25744 109.16240
v 45.22021 27.47671 117.38944
v 48.26842 27.77763 117.79614
v 45.92116 27.69020 115.00205
v 44.22533 28.75896 120.04048
v 48.12981 28.64344 119.62992
v 47.87239 27.83116 118.79102
v 44.69641 27.78098 119.20543
v 24.23424 28.75669 104.62270
v 23.57316 30.30279 105.45812
v 23.36848 36.35948 99.12399
v 35.14840 30.05131 118.19591
v 34.80166 28.90217 118.93471
v 48.12981 28.64344 119.62992
v 37.85204 27.31073 114.00083
v 37.79928 27.60925 118.26593
v 36.38066 31.27091 114.26040
v 37.74504 29.46754 109.75604
v 38.08311 28.46650 108.91204
v 46.46808 28.57742 113.68369
v 46.46808 28.57742 113.68369
v 38.08311 28.46650 108.91204
v 40.26435 27.67539 111.01337
v 48.97366 28.51347 117.25058
v 21.86286 15.18276 -21.96213
v 22.35331 17.84810 -31.07983
v 49.35984 28.62307 118.70875
v 11.82739 24.12425 126.78739
v 12.16815 22.19440 117.20433
v 48.97366 28.51347 117.25058
v 22.13822 13.36902 -12.07346
v 22.13822 13.36902 -12.07346
v 22.87745 12.13812 -0.26130
v 17.06881 14.88720 70.08401
v 21.70093 11.55263 34.82732
v 7.89899 59.56104 117.25262
v 2.84514 70.92404 118.22570
v 15.19883 19.11471 99.15079
v 13.19511 20.77235 109.04735
v 49.35984 28.62307 118.70875
v 23.57316 30.30279 105.45812
v 28.52265 29.72420 107.75880
v 27.38929 30.88753 111.24893
v 22.73095 31.84393 109.61777
v 26.25937 29.93667 114.54845
v 21.50770 30.41977 113.66591
v 26.08914 28.89015 115.08350
v 21.45284 28.75078 114.39224
v 28.75751 28.77612 107.02400
v 27.12967 27.21852 111.03362
v 28.75751 28.77612 107.02400
v 24.23424 28.75669 104.62270
v 22.72283 26.25744 109.16240
v 33.19756 27.27077 112.85353
v 12.12293 34.58103 -92.88130
v 16.41432 34.67935 -84.72961
v 28.42375 35.65531 70.10542
v 26.24095 52.24166 0.14568
v 24.63767 51.45231 -17.03598
v 31.28973 36.21092 -17.01065
v 33.25823 35.72989 -0.16496
v 16.75092 52.40649 102.80560
v 22.97828 51.77346 70.11736
v 25.43582 52.64913 34.96638
v 32.17425 35.60967 34.93958
v 13.71303 52.47353 117.25655
v 9.16453 38.95813 -101.09465
v 2.86721 39.02142 -110.62064
v 16.73463 20.83305 -63.20084
v 13.17776 56.27045 -41.86593
v 26.00296 37.69964 -41.86594
v 25.92176 28.16023 -41.86594
v 26.10358 26.61966 -31.07983
v 22.58821 50.45036 -41.86593
v 20.27858 49.36687 -63.08883
v 13.16634 36.31863 185.80362
v 12.59252 36.31987 172.78539
v 10.28096 31.16307 172.81537
v 11.14888 32.35481 185.69223
v 13.62978 61.23724 -16.99691
v 13.28772 62.30207 0.18582
v 12.89782 63.81483 34.94439
v 10.63327 63.72949 70.25294
v 42.60704 25.01806 -22.02340
v 42.49701 22.64605 -16.90905
v 32.15977 25.26250 -16.78814
v 31.56612 26.68634 -22.22865
v 32.21647 20.65232 -15.22331
v 42.39043 19.66634 -15.52724
v 41.06806 18.93346 -21.97409
v 29.72906 19.09058 -22.14978
v 57.03249 24.15311 -19.92544
v 55.52441 21.13174 -12.84559
v 42.18994 23.40387 -27.81504
v 57.91748 21.94799 -26.83803
v 54.95961 18.41349 -11.67541
v 56.21223 17.88331 -20.40639
v 57.77779 19.90106 -28.40724
v 41.94237 20.50856 -29.34615
v 69.94670 20.10966 -8.69962
v 71.22487 22.82216 -15.33250
v 82.81268 19.99657 -10.62761
v 81.15964 19.22971 -6.94440
v 72.17661 20.59555 -21.81374
v 82.42328 19.85242 -15.04372
v 71.35648 17.17954 -15.91396
v 69.69232 17.32775 -7.58328
v 81.47501 17.19458 -5.70708
v 82.81755 16.57664 -11.14772
v 72.42487 18.66127 -23.33324
v 83.36707 18.24206 -15.89769
v 32.21647 20.65232 -15.22331
v 42.39043 19.66634 -15.52724
v 54.95961 18.41349 -11.67541
v 69.69232 17.32775 -7.58328
v 81.47501 17.19458 -5.70708
v 21.10384 40.26525 195.98956
v 22.25718 36.31036 195.52545
v 39.18741 34.95871 209.54675
v 38.58134 36.61577 210.76208
v 46.93975 33.72455 222.50150
v 46.56095 34.87633 223.12163
v 48.84228 33.70559 235.62091
v 85.63289 18.07103 -10.31256
v 85.63289 18.07103 -10.31256
v 33.91855 37.20353 217.47740
v 16.34179 39.75270 207.99771
v 43.50531 35.54409 226.47694
v 32.21647 20.65232 -15.22331
v 31.17575 21.72272 -10.42928
v 32.15977 25.26250 -16.78814
v 29.72906 19.09058 -22.14978
v 28.94762 20.84982 -28.82888
v 32.15977 25.26250 -16.78814
v 31.56612 26.68634 -22.22865
v 30.05806 25.36788 -27.42457
v 42.18753 35.78056 229.23366
v 32.24551 37.03209 222.42218
v 14.97249 38.68566 215.86411
v 20.73766 33.11734 196.59180
v 37.84153 33.34627 210.27138
v 46.02006 32.60148 223.24471
v 15.48687 33.07909 209.48373
v 32.42596 33.75776 218.24425
v 41.83143 34.24000 227.37988
v 42.18753 35.78056 229.23366
v 32.24551 37.03209 222.42218
v 14.97249 38.68566 215.86411
v 32.21647 20.65232 -15.22331
v 8.98962 60.29836 102.67999
v 10.30591 29.52271 159.27930
v 9.76689 43.76506 172.74922
v 12.63409 52.31147 126.78758
v 24.23424 28.75669 104.62270
v 10.64003 41.37495 185.81796
v 21.66717 35.14368 -73.76503
v 7.72289 30.55339 -101.40961
v 2.70996 32.15031 -109.70560
v 8.03955 34.59230 -101.38457
v 2.55997 34.57676 -110.25957
v 7.51885 56.09876 -83.73250
v 5.53379 51.82721 -92.75421
v 16.12562 38.89152 -84.59171
v 12.88608 38.94917 -92.47519
v 16.12562 38.89152 -84.59171
v 12.25488 45.59767 -92.92046
v 12.88608 38.94917 -92.47519
v 21.66717 35.14368 -73.76503
v 20.14768 43.19562 -73.25998
v 18.06873 50.09457 -72.55994
v 15.35553 51.63720 -78.49748
v 8.59968 55.41256 -77.50972
v 20.47195 20.44517 -41.86594
v 6.15246 40.10436 -103.52278
v 4.40816 39.99985 -106.35414
v 4.20264 36.01464 -104.83421
v 4.33336 40.04205 -106.40341
v 2.69658 39.92302 -108.99019
v 2.53010 36.30690 -107.59319
v 2.73418 39.78524 -109.09138
v 0.51571 39.71128 -111.11740
v 1.00576 36.83947 -109.93407
v 7.72682 39.65341 -100.90465
v 5.98781 39.48550 -103.63696
v 5.86091 35.88313 -102.20381
v 9.36369 39.61484 -97.71281
v 7.89417 40.16537 -101.06531
v 7.85355 35.76119 -99.19746
v 10.67916 39.54070 -94.95811
v 9.48028 39.61083 -97.46629
v 9.72909 35.90297 -96.25043
v 12.37272 39.48438 -92.00183
v 11.05125 39.56403 -94.92125
v 10.93822 35.83266 -93.29472
v 13.67839 40.15446 -89.11815
v 12.33514 39.99571 -91.93671
v 12.20706 36.15028 -90.43533
v 15.14571 39.50617 -85.74176
v 13.66216 39.28821 -88.68962
v 13.38370 36.06168 -87.31393
v 16.77107 39.39603 -82.88382
v 15.17703 39.20310 -85.45445
v 15.21520 36.06393 -84.12514
v 17.92356 38.77313 -79.70172
v 16.46453 39.01991 -82.35876
v 16.34100 35.68111 -81.27213
v 11.74836 33.50841 -90.41105
v 13.09478 33.83014 -87.59941
v 12.07195 37.66115 -88.95655
v 10.51939 33.50841 -93.21969
v 11.49432 33.83014 -90.34009
v 10.65222 37.66115 -91.75185
v 13.41926 33.29945 -87.01921
v 14.76567 33.62119 -84.20759
v 13.74284 37.45219 -85.56471
v 15.46272 33.17767 -83.96959
v 16.80914 33.49940 -81.15796
v 15.78630 37.33041 -82.51511
v 8.89995 33.50842 -96.30214
v 10.24637 33.83014 -93.49052
v 9.22353 37.66115 -94.84766
v 7.89718 33.50842 -99.13216
v 9.24360 33.83015 -96.32055
v 8.22076 37.66116 -97.67769
v 6.75015 33.50843 -102.30721
v 8.09657 33.83016 -99.49555
v 7.07374 37.66117 -100.85271
v 5.36347 33.50843 -105.32086
v 6.70989 33.83016 -102.50923
v 5.68706 37.66117 -103.86637
v 3.19346 33.50842 -107.92516
v 5.05943 33.83016 -105.25002
v 3.78880 37.66117 -106.50971
v 1.11872 33.75025 -110.09792
v 3.09670 34.01981 -108.00851
v 1.83955 37.22971 -108.96432
v 30.05806 25.36788 -27.42457
v 28.94762 20.84982 -28.82888
vt 0.494633 0.279196
vt 0.515100 0.254809
vt 0.521414 0.215589
vt 0.467469 0.200348
vt 0.202564 0.880809
vt 0.193436 0.868331
vt 0.174343 0.866611
vt 0.208365 0.847779
vt 0.183921 0.850564
vt 0.217101 0.859817
vt 0.320468 0.812664
vt 0.320618 0.771032
vt 0.256908 0.773355
vt 0.252209 0.802097
vt 0.154630 0.735425
vt 0.207810 0.735704
vt 0.203180 0.711417
vt 0.260433 0.740457
vt 0.259180 0.710838
vt 0.041074 0.864615
vt 0.031040 0.870692
vt 0.082868 0.897597
vt 0.088801 0.878864
vt 0.034235 0.848301
vt 0.020967 0.854172
vt 0.093749 0.850718
vt 0.094308 0.826596
vt 0.030541 0.831422
vt 0.769284 0.411304
vt 0.715928 0.416678
vt 0.731787 0.496564
vt 0.775093 0.493936
vt 0.765002 0.311916
vt 0.694082 0.323790
vt 0.815910 0.407067
vt 0.861038 0.412830
vt 0.877120 0.314028
vt 0.818351 0.308480
vt 0.556014 0.985261
vt 0.566676 0.930068
vt 0.482679 0.917916
vt 0.473469 0.975722
vt 0.814149 0.492416
vt 0.688643 0.905165
vt 0.660589 0.909700
vt 0.672347 0.877019
vt 0.635685 0.889332
vt 0.638888 0.934989
vt 0.674749 0.935930
vt 0.272908 0.957728
vt 0.319014 0.959974
vt 0.322572 0.906646
vt 0.274594 0.912213
vt 0.618525 0.419530
vt 0.616024 0.447271
vt 0.660947 0.443615
vt 0.148336 0.753673
vt 0.193762 0.779653
vt 0.204345 0.760204
vt 0.576947 0.870801
vt 0.578536 0.813165
vt 0.499158 0.814778
vt 0.492413 0.867341
vt 0.600049 0.427930
vt 0.582928 0.433788
vt 0.582889 0.451150
vt 0.926554 0.060465
vt 0.924481 0.102121
vt 0.965131 0.102995
vt 0.925658 0.133327
vt 0.578611 0.422820
vt 0.602571 0.423000
vt 0.931562 0.198729
vt 0.935200 0.231053
vt 0.970267 0.200229
vt 0.928163 0.150841
vt 0.929948 0.172108
vt 0.967726 0.186105
vt 0.976260 0.173594
vt 0.562499 0.428800
vt 0.538170 0.440337
vt 0.565135 0.430907
vt 0.803789 0.146015
vt 0.803415 0.159320
vt 0.973713 0.122124
vt 0.839198 0.176392
vt 0.831579 0.228036
vt 0.803621 0.095873
vt 0.930489 0.046342
vt 0.807134 0.018460
vt 0.805382 0.035316
vt 0.942368 0.251426
vt 0.855459 0.268631
vt 0.822848 0.293722
vt 0.975495 0.083266
vt 0.470373 0.633869
vt 0.499676 0.728265
vt 0.548849 0.713832
vt 0.517083 0.619541
vt 0.989070 0.190273
vt 0.662414 0.394352
vt 0.621597 0.387831
vt 0.981397 0.209390
vt 0.601531 0.704014
vt 0.569216 0.606451
vt 0.031135 0.370088
vt 0.081571 0.368665
vt 0.082790 0.272701
vt 0.029354 0.273461
vt 0.406319 0.367535
vt 0.418328 0.289804
vt 0.249467 0.268934
vt 0.246742 0.362677
vt 0.637159 0.528341
vt 0.574579 0.581343
vt 0.648819 0.594645
vt 0.664628 0.573973
vt 0.540474 0.384185
vt 0.584895 0.383583
vt 0.984213 0.102871
vt 0.612282 0.037454
vt 0.616877 0.095676
vt 0.683198 0.101434
vt 0.683447 0.046841
vt 0.619512 0.152436
vt 0.682627 0.149411
vt 0.622479 0.172102
vt 0.684341 0.172404
vt 0.684010 0.031617
vt 0.686863 0.231476
vt 0.623450 0.246689
vt 0.633590 0.314231
vt 0.697035 0.294991
vt 0.768421 0.232846
vt 0.460527 0.162135
vt 0.522153 0.171825
vt 0.525607 0.109822
vt 0.453447 0.094127
vt 0.550699 0.317255
vt 0.401196 0.439888
vt 0.633062 0.335032
vt 0.595016 0.326289
vt 0.097942 0.528145
vt 0.090766 0.459099
vt 0.036327 0.475356
vt 0.038909 0.535188
vt 0.563513 0.494306
vt 0.245253 0.447166
vt 0.250920 0.511582
vt 0.408214 0.505257
vt 0.623145 0.492463
vt 0.584371 0.229418
vt 0.572847 0.279830
vt 0.554667 0.278352
vt 0.548442 0.221509
vt 0.316270 0.725297
vt 0.432362 0.911846
vt 0.421662 0.972737
vt 0.486047 0.770529
vt 0.438111 0.773609
vt 0.439571 0.816892
vt 0.437783 0.863513
vt 0.323480 0.862687
vt 0.814903 0.647162
vt 0.837605 0.641232
vt 0.841538 0.567245
vt 0.814206 0.568040
vt 0.050235 0.657627
vt 0.106907 0.651506
vt 0.104214 0.592904
vt 0.044703 0.596969
vt 0.430296 0.611346
vt 0.419631 0.562585
vt 0.261000 0.581910
vt 0.267263 0.640716
vt 0.345455 0.089299
vt 0.426772 0.090086
vt 0.420139 0.051495
vt 0.341368 0.051362
vt 0.404832 0.256781
vt 0.428483 0.209903
vt 0.345057 0.204406
vt 0.328652 0.247280
vt 0.240198 0.035087
vt 0.244573 0.084288
vt 0.246382 0.130428
vt 0.349739 0.130517
vt 0.238008 0.199390
vt 0.223996 0.257098
vt 0.348632 0.152933
vt 0.246552 0.145780
vt 0.130001 0.034569
vt 0.050271 0.052989
vt 0.047781 0.080811
vt 0.136302 0.080189
vt 0.058311 0.108927
vt 0.140553 0.123059
vt 0.121040 0.182446
vt 0.034674 0.159909
vt 0.017499 0.195740
vt 0.101546 0.236761
vt 0.140495 0.137128
vt 0.050199 0.124905
vt 0.412470 0.022271
vt 0.338844 0.030648
vt 0.242351 0.016413
vt 0.126503 0.016374
vt 0.039901 0.041922
vt 0.788155 0.737633
vt 0.800003 0.855216
vt 0.810790 0.851999
vt 0.811716 0.737893
vt 0.804573 0.930909
vt 0.811086 0.929159
vt 0.812241 0.994483
vt 0.024116 0.084930
vt 0.013000 0.151430
vt 0.725971 0.768741
vt 0.763667 0.871023
vt 0.785624 0.941073
vt 0.013858 0.421451
vt 0.011469 0.438825
vt 0.038597 0.418815
vt 0.558366 0.754106
vt 0.524321 0.759206
vt 0.599832 0.772044
vt 0.552417 0.774715
vt 0.525900 0.771606
vt 0.776728 0.952796
vt 0.741919 0.889323
vt 0.691738 0.796681
vt 0.675745 0.691546
vt 0.642189 0.728279
vt 0.835074 0.738174
vt 0.819935 0.851627
vt 0.816885 0.930540
vt 0.865331 0.870437
vt 0.903232 0.773239
vt 0.842251 0.942208
vt 0.951398 0.700404
vt 0.915944 0.663515
vt 0.849289 0.953035
vt 0.883490 0.891736
vt 0.936614 0.802686
vt 0.988878 0.737211
vt 0.597497 0.761409
vt 0.569096 0.539471
vt 0.849443 0.494285
vt 0.744785 0.566784
vt 0.780934 0.566933
vt 0.676860 0.603598
vt 0.668973 0.487412
vt 0.694522 0.607187
vt 0.619650 0.015848
vt 0.752875 0.627716
vt 0.787431 0.644712
vt 0.523074 0.039512
vt 0.443076 0.032035
vt 0.093780 0.693842
vt 0.040311 0.714579
vt 0.048969 0.723741
vt 0.101000 0.726432
vt 0.042429 0.732386
vt 0.098724 0.743222
vt 0.032069 0.726378
vt 0.673192 0.345042
vt 0.937631 0.327751
vt 0.910869 0.423012
vt 0.892251 0.502081
vt 0.878463 0.569008
vt 0.874819 0.624224
vt 0.193259 0.910444
vt 0.138088 0.892601
vt 0.600843 0.126874
vt 0.592846 0.179374
vt 0.545762 0.172433
vt 0.544482 0.121168
vt 0.196012 0.824935
vt 0.147895 0.826806
vt 0.145287 0.854852
vt 0.597362 0.059634
vt 0.539139 0.050725
vt 0.256790 0.837536
vt 0.267622 0.872079
vt 0.230731 0.877029
vt 0.232407 0.912839
vt 0.432100 0.729015
vt 0.252545 0.659231
vt 0.194054 0.669265
vt 0.307272 0.655158
vt 0.146055 0.682844
vt 0.232093 0.951406
vt 0.694402 0.536667
vt 0.695620 0.535831
vt 0.418684 0.641719
vt 0.129588 0.915120
vt 0.022234 0.978773
vt 0.153547 0.963309
vt 0.034563 0.901952
vt 0.022234 0.978773
vt 0.153547 0.963309
vt 0.034563 0.901952
vt 0.022234 0.978773
vt 0.153547 0.963309
vt 0.034563 0.901952
vt 0.022234 0.978773
vt 0.153547 0.963309
vt 0.034563 0.901952
vt 0.022234 0.978773
vt 0.153547 0.963309
vt 0.034563 0.901952
vt 0.022234 0.978773
vt 0.153547 0.963309
vt 0.034563 0.901952
vt 0.022234 0.978773
vt 0.153547 0.963309
vt 0.034563 0.901952
vt 0.022234 0.978773
vt 0.153547 0.963309
vt 0.034563 0.901952
vt 0.022234 0.978773
vt 0.153547 0.963309
vt 0.034563 0.901952
vt 0.022234 0.978773
vt 0.153547 0.963309
vt 0.034563 0.901952
vt 0.022234 0.978773
vt 0.153547 0.963309
vt 0.034563 0.901952
vt 0.022234 0.978773
vt 0.153547 0.963309
vt 0.034563 0.901952
vt 0.022234 0.978773
vt 0.153547 0.963309
vt 0.034563 0.901952
vt 0.022234 0.978773
vt 0.153547 0.963309
vt 0.034563 0.901952
vt 0.022234 0.978773
vt 0.153547 0.963309
vt 0.034563 0.901952
vt 0.022234 0.978773
vt 0.153547 0.963309
vt 0.034563 0.901952
vt 0.022234 0.978773
vt 0.153547 0.963309
vt 0.034563 0.901952
vt 0.022234 0.978773
vt 0.153547 0.963309
vt 0.034563 0.901952
vt 0.022234 0.978773
vt 0.153547 0.963309
vt 0.034563 0.901952
vt 0.022234 0.978773
vt 0.153547 0.963309
vt 0.034563 0.901952
vt 0.022234 0.978773
vt 0.153547 0.963309
vt 0.034563 0.901952
vt 0.437151 0.128912
vt 0.440309 0.161767
vt 0.708612 0.658283
vt 0.689327 0.574303
vt 0.509422 0.289088
vt 0.560917 0.301069
vt 0.180667 0.938386
vt 0.016903 0.836200
vt 0.585457 0.013617
vt 0.494633 0.279196
vt 0.467469 0.200348
vt 0.202564 0.880809
vt 0.174343 0.866611
vt 0.193436 0.868331
vt 0.208365 0.847779
vt 0.183921 0.850564
vt 0.217101 0.859817
vt 0.320468 0.812664
vt 0.252209 0.802097
vt 0.256908 0.773355
vt 0.320618 0.771032
vt 0.154630 0.735425
vt 0.203180 0.711417
vt 0.207810 0.735704
vt 0.259180 0.710838
vt 0.260433 0.740457
vt 0.041074 0.864615
vt 0.088801 0.878864
vt 0.034235 0.848301
vt 0.093749 0.850718
vt 0.030541 0.831422
vt 0.094308 0.826596
vt 0.769284 0.411304
vt 0.775093 0.493936
vt 0.765002 0.311916
vt 0.815910 0.407067
vt 0.818351 0.308480
vt 0.877120 0.314028
vt 0.861038 0.412830
vt 0.482679 0.917916
vt 0.566676 0.930068
vt 0.814149 0.492416
vt 0.688643 0.905165
vt 0.672347 0.877019
vt 0.660589 0.909700
vt 0.635685 0.889332
vt 0.638888 0.934989
vt 0.674749 0.935930
vt 0.274594 0.912213
vt 0.322572 0.906646
vt 0.618525 0.419530
vt 0.660947 0.443615
vt 0.616024 0.447271
vt 0.148336 0.753673
vt 0.204345 0.760204
vt 0.193762 0.779653
vt 0.576947 0.870801
vt 0.492413 0.867341
vt 0.499158 0.814778
vt 0.578536 0.813165
vt 0.582889 0.451150
vt 0.582928 0.433788
vt 0.600049 0.427930
vt 0.926554 0.060465
vt 0.965131 0.102995
vt 0.924481 0.102121
vt 0.925658 0.133327
vt 0.602571 0.423000
vt 0.578611 0.422820
vt 0.931562 0.198729
vt 0.970267 0.200229
vt 0.935200 0.231053
vt 0.928163 0.150841
vt 0.976260 0.173594
vt 0.967726 0.186105
vt 0.929948 0.172108
vt 0.562499 0.428800
vt 0.565135 0.430907
vt 0.538170 0.440337
vt 0.803789 0.146015
vt 0.803415 0.159320
vt 0.973713 0.122124
vt 0.831579 0.228036
vt 0.839198 0.176392
vt 0.803621 0.095873
vt 0.805382 0.035316
vt 0.807134 0.018460
vt 0.930489 0.046342
vt 0.942368 0.251426
vt 0.822848 0.293722
vt 0.855459 0.268631
vt 0.975495 0.083266
vt 0.548849 0.713832
vt 0.499676 0.728265
vt 0.989070 0.190273
vt 0.662414 0.394352
vt 0.621597 0.387831
vt 0.981397 0.209390
vt 0.601531 0.704014
vt 0.031135 0.370088
vt 0.081571 0.368665
vt 0.406319 0.367535
vt 0.246742 0.362677
vt 0.637159 0.528341
vt 0.664628 0.573973
vt 0.540474 0.384185
vt 0.584895 0.383583
vt 0.984213 0.102871
vt 0.612282 0.037454
vt 0.683447 0.046841
vt 0.683198 0.101434
vt 0.616877 0.095676
vt 0.682627 0.149411
vt 0.619512 0.152436
vt 0.684341 0.172404
vt 0.622479 0.172102
vt 0.684010 0.031617
vt 0.686863 0.231476
vt 0.697035 0.294991
vt 0.633590 0.314231
vt 0.623450 0.246689
vt 0.768421 0.232846
vt 0.460527 0.162135
vt 0.453447 0.094127
vt 0.401196 0.439888
vt 0.097942 0.528145
vt 0.038909 0.535188
vt 0.036327 0.475356
vt 0.090766 0.459099
vt 0.563513 0.494306
vt 0.408214 0.505257
vt 0.250920 0.511582
vt 0.245253 0.447166
vt 0.623145 0.492463
vt 0.548442 0.221509
vt 0.554667 0.278352
vt 0.316270 0.725297
vt 0.432362 0.911846
vt 0.439571 0.816892
vt 0.438111 0.773609
vt 0.486047 0.770529
vt 0.437783 0.863513
vt 0.323480 0.862687
vt 0.814903 0.647162
vt 0.814206 0.568040
vt 0.841538 0.567245
vt 0.837605 0.641232
vt 0.044703 0.596969
vt 0.104214 0.592904
vt 0.261000 0.581910
vt 0.419631 0.562585
vt 0.345455 0.089299
vt 0.341368 0.051362
vt 0.420139 0.051495
vt 0.426772 0.090086
vt 0.404832 0.256781
vt 0.328652 0.247280
vt 0.345057 0.204406
vt 0.428483 0.209903
vt 0.244573 0.084288
vt 0.240198 0.035087
vt 0.349739 0.130517
vt 0.246382 0.130428
vt 0.223996 0.257098
vt 0.238008 0.199390
vt 0.246552 0.145780
vt 0.348632 0.152933
vt 0.130001 0.034569
vt 0.136302 0.080189
vt 0.047781 0.080811
vt 0.050271 0.052989
vt 0.140553 0.123059
vt 0.058311 0.108927
vt 0.121040 0.182446
vt 0.101546 0.236761
vt 0.017499 0.195740
vt 0.034674 0.159909
vt 0.140495 0.137128
vt 0.050199 0.124905
vt 0.412470 0.022271
vt 0.338844 0.030648
vt 0.242351 0.016413
vt 0.126503 0.016374
vt 0.039901 0.041922
vt 0.788155 0.737633
vt 0.811716 0.737893
vt 0.810790 0.851999
vt 0.800003 0.855216
vt 0.811086 0.929159
vt 0.804573 0.930909
vt 0.812241 0.994483
vt 0.024116 0.084930
vt 0.013000 0.151430
vt 0.763667 0.871023
vt 0.725971 0.768741
vt 0.785624 0.941073
vt 0.013858 0.421451
vt 0.038597 0.418815
vt 0.011469 0.438825
vt 0.558366 0.754106
vt 0.524321 0.759206
vt 0.599832 0.772044
vt 0.552417 0.774715
vt 0.525900 0.771606
vt 0.776728 0.952796
vt 0.741919 0.889323
vt 0.691738 0.796681
vt 0.835074 0.738174
vt 0.819935 0.851627
vt 0.816885 0.930540
vt 0.903232 0.773239
vt 0.865331 0.870437
vt 0.842251 0.942208
vt 0.849289 0.953035
vt 0.883490 0.891736
vt 0.936614 0.802686
vt 0.597497 0.761409
vt 0.569096 0.539471
vt 0.849443 0.494285
vt 0.780934 0.566933
vt 0.668973 0.487412
vt 0.619650 0.015848
vt 0.787431 0.644712
vt 0.443076 0.032035
vt 0.101000 0.726432
vt 0.048969 0.723741
vt 0.098724 0.743222
vt 0.042429 0.732386
vt 0.193259 0.910444
vt 0.138088 0.892601
vt 0.544482 0.121168
vt 0.545762 0.172433
vt 0.196012 0.824935
vt 0.145287 0.854852
vt 0.147895 0.826806
vt 0.539139 0.050725
vt 0.256790 0.837536
vt 0.267622 0.872079
vt 0.230731 0.877029
vt 0.232407 0.912839
vt 0.432100 0.729015
vt 0.022234 0.978773
vt 0.034563 0.901952
vt 0.153547 0.963309
vt 0.022234 0.978773
vt 0.034563 0.901952
vt 0.153547 0.963309
vt 0.022234 0.978773
vt 0.034563 0.901952
vt 0.153547 0.963309
vt 0.022234 0.978773
vt 0.034563 0.901952
vt 0.153547 0.963309
vt 0.022234 0.978773
vt 0.034563 0.901952
vt 0.153547 0.963309
vt 0.022234 0.978773
vt 0.034563 0.901952
vt 0.153547 0.963309
vt 0.022234 0.978773
vt 0.034563 0.901952
vt 0.153547 0.963309
vt 0.022234 0.978773
vt 0.034563 0.901952
vt 0.153547 0.963309
vt 0.022234 0.978773
vt 0.034563 0.901952
vt 0.153547 0.963309
vt 0.022234 0.978773
vt 0.034563 0.901952
vt 0.153547 0.963309
vt 0.022234 0.978773
vt 0.034563 0.901952
vt 0.153547 0.963309
vt 0.022234 0.978773
vt 0.034563 0.901952
vt 0.153547 0.963309
vt 0.022234 0.978773
vt 0.034563 0.901952
vt 0.153547 0.963309
vt 0.022234 0.978773
vt 0.034563 0.901952
vt 0.153547 0.963309
vt 0.022234 0.978773
vt 0.034563 0.901952
vt 0.153547 0.963309
vt 0.022234 0.978773
vt 0.034563 0.901952
vt 0.153547 0.963309
vt 0.022234 0.978773
vt 0.034563 0.901952
vt 0.153547 0.963309
vt 0.022234 0.978773
vt 0.034563 0.901952
vt 0.153547 0.963309
vt 0.022234 0.978773
vt 0.034563 0.901952
vt 0.153547 0.963309
vt 0.022234 0.978773
vt 0.034563 0.901952
vt 0.153547 0.963309
vt 0.022234 0.978773
vt 0.034563 0.901952
vt 0.153547 0.963309
vt 0.437151 0.128912
vt 0.440309 0.161767
vn 0.33451 0.89766 0.28691
vn 0.00000 0.93258 0.36096
vn -0.00000 0.98662 0.16304
vn 0.30584 0.93780 0.16432
vn -0.76980 0.53941 -0.34125
vn -0.89579 0.25537 -0.36381
vn -0.87864 0.41308 -0.23950
vn -0.85864 0.27107 -0.43505
vn -0.91306 0.31702 -0.25656
vn -0.83768 0.32598 -0.43821
vn -0.97439 0.17832 -0.13695
vn -0.96560 -0.24120 -0.09717
vn -0.96516 -0.11080 -0.23705
vn -0.94678 0.14231 -0.28872
vn -0.67531 -0.42646 -0.60174
vn -0.62928 -0.62374 -0.46363
vn -0.12663 -0.87152 -0.47373
vn -0.70955 -0.69665 -0.10593
vn -0.21354 -0.97020 -0.11448
vn -0.48698 0.60963 -0.62547
vn -0.00000 0.69085 -0.72300
vn 0.00000 0.95365 -0.30092
vn -0.54771 0.77633 -0.31199
vn -0.56591 0.12072 -0.81558
vn 0.00000 0.25966 -0.96570
vn -0.83340 0.33636 -0.43854
vn -0.89568 0.03936 -0.44295
vn -0.71972 -0.03216 -0.69352
vn -0.72493 0.65895 0.20064
vn 0.00000 0.95425 0.29900
vn -0.00000 0.96355 0.26752
vn -0.71401 0.68133 0.16115
vn -0.84611 0.50465 0.17155
vn -0.00000 0.91763 0.39744
vn -0.99367 -0.03585 0.10644
vn -0.64836 -0.74647 0.14973
vn -0.70249 -0.67664 0.22060
vn -0.97610 -0.02750 0.21556
vn -0.00000 0.98997 -0.14126
vn -0.55568 0.82510 -0.10215
vn -0.46795 0.86680 -0.17229
vn 0.00000 0.97212 -0.23448
vn -0.99293 -0.03400 0.11369
vn -0.69892 0.59330 -0.39938
vn -0.85513 0.31021 -0.41536
vn -0.68805 0.41286 -0.59677
vn -0.84151 0.08331 -0.53377
vn -0.97216 0.01961 -0.23351
vn -0.89947 0.37393 -0.22613
vn 0.00000 0.98846 -0.15148
vn 0.00000 0.98905 -0.14758
vn -0.41129 0.90319 -0.12284
vn -0.44107 0.89273 -0.09217
vn -0.80953 -0.40524 0.42478
vn -0.94022 0.24577 0.23577
vn -0.97610 -0.02750 0.21556
vn -0.86562 0.09005 -0.49253
vn -0.86105 0.25540 -0.43973
vn -0.88283 0.03878 -0.46808
vn -0.83554 0.53584 -0.12141
vn -0.95870 0.25006 -0.13554
vn -0.95872 0.12593 -0.25495
vn -0.81931 0.56225 -0.11229
vn -0.52880 0.57557 0.62377
vn -0.70366 0.69809 0.13243
vn -0.90938 0.37492 0.18019
vn -0.40390 0.79480 -0.45294
vn -0.10556 0.97785 0.18072
vn -0.40974 0.86753 0.28197
vn -0.02059 0.80486 0.59311
vn -0.46943 -0.85942 0.20255
vn -0.26193 -0.35574 0.89713
vn -0.04802 -0.99796 0.04209
vn -0.29942 -0.91454 -0.27195
vn -0.38740 -0.92032 -0.05417
vn -0.02406 0.15413 0.98776
vn 0.00755 -0.82630 0.56318
vn -0.20743 -0.86862 0.44996
vn -0.37475 -0.04781 0.92589
vn -0.78892 -0.28636 -0.54370
vn -0.98550 0.12726 0.11219
vn -0.71339 0.68635 -0.14144
vn 0.13945 0.77403 0.61760
vn 0.24151 -0.46086 0.85398
vn -0.37475 -0.04781 0.92589
vn 0.08906 -0.95029 0.29834
vn -0.01781 -0.99981 -0.00791
vn -0.03653 0.99690 -0.06970
vn -0.61978 -0.31478 -0.71888
vn -0.35442 -0.17040 -0.91943
vn -0.20232 0.79126 -0.57704
vn -0.61978 -0.31478 -0.71888
vn -0.13880 -0.94792 -0.28666
vn -0.35442 -0.17040 -0.91943
vn -0.87770 -0.11609 -0.46494
vn 0.00000 -0.96613 -0.25807
vn -0.49034 -0.70115 -0.51764
vn -0.23408 -0.94511 -0.22800
vn 0.00000 -0.97753 -0.21079
vn -0.87581 -0.34849 0.33392
vn -0.70249 -0.67664 0.22060
vn -0.38618 -0.90221 0.19203
vn -0.87770 -0.11609 -0.46494
vn -0.35767 -0.93017 -0.08277
vn 0.00000 -0.98719 -0.15953
vn -0.35767 -0.93017 -0.08277
vn -0.67925 -0.73333 0.02909
vn -0.00000 -0.99726 -0.07401
vn 0.00000 -0.98719 -0.15953
vn -0.44723 -0.88267 0.14449
vn -0.00000 -0.99229 0.12396
vn -0.00000 -0.99837 0.05712
vn -0.59109 -0.80401 0.06456
vn -0.76753 0.62216 0.15428
vn -0.00000 0.99991 -0.01337
vn 0.00000 0.84893 -0.52851
vn -0.93446 0.29850 0.19414
vn -0.60883 -0.79161 0.05175
vn -0.41463 -0.87062 0.26476
vn -0.87581 -0.34849 0.33392
vn -0.71339 0.68635 -0.14144
vn -0.70366 0.69809 0.13243
vn -0.09853 0.99509 0.00960
vn -0.23249 0.81298 -0.53386
vn -0.52880 0.57557 0.62377
vn 0.14786 0.77181 0.61842
vn -0.26193 -0.35574 0.89713
vn 0.27843 -0.33514 0.90009
vn -0.29974 -0.27524 -0.91345
vn -0.08974 -0.99543 0.03275
vn -0.46943 -0.85942 0.20255
vn -0.78892 -0.28636 -0.54370
vn -0.29974 -0.27524 -0.91345
vn 0.05493 -0.99848 0.00386
vn 0.33176 0.91726 0.22039
vn -0.00000 0.97571 0.21906
vn -0.00000 0.96390 0.26627
vn 0.39966 0.89466 0.19964
vn -0.00000 -0.98659 0.16324
vn -0.98358 -0.11909 0.13558
vn 0.00000 -0.98404 0.17793
vn 0.00000 -0.98090 0.19451
vn -0.82028 0.57048 -0.04125
vn -0.99889 -0.01917 0.04311
vn -0.95870 0.25006 -0.13554
vn -0.83554 0.53584 -0.12141
vn -0.86301 0.47457 0.17321
vn -0.99849 -0.01366 0.05318
vn -0.81736 0.57471 0.04039
vn -0.81734 0.56576 0.10900
vn -0.86907 0.47349 0.14326
vn 0.00000 -0.96231 0.27194
vn 0.00000 -0.90249 0.43071
vn 0.36893 -0.85219 0.37102
vn 0.44558 -0.87546 0.18717
vn -0.47853 -0.87807 -0.00157
vn -0.43963 0.88729 -0.13940
vn 0.00000 0.99379 -0.11131
vn -0.85259 -0.32851 -0.40643
vn -0.93039 -0.34712 -0.11784
vn -0.97626 0.16927 -0.13514
vn -0.76256 0.63650 -0.11562
vn -0.79194 0.59478 -0.13811
vn -0.92539 -0.04182 -0.37669
vn -0.46191 -0.88239 -0.08955
vn -0.56952 -0.81851 0.07540
vn -0.99887 -0.03261 0.03450
vn -0.00000 0.98997 -0.14126
vn 0.00000 0.99871 -0.05079
vn -0.49850 0.86622 -0.03399
vn -0.55568 0.82510 -0.10215
vn 0.00000 0.99864 0.05207
vn -0.52358 0.84821 0.08001
vn -0.53245 0.84629 0.01714
vn 0.00000 0.99994 -0.01127
vn -0.12648 0.99113 0.04070
vn -0.71334 0.67280 -0.19617
vn -0.84808 0.42609 0.31497
vn 0.01333 0.66390 0.74770
vn -0.50690 -0.61109 0.60796
vn -0.33070 -0.93495 -0.12849
vn 0.04376 -0.99694 -0.06474
vn 0.14792 -0.70649 0.69209
vn 0.11574 0.77491 0.62138
vn -0.07315 0.99555 0.05939
vn -0.19722 0.81238 -0.54877
vn -0.11123 0.78559 -0.60867
vn 0.04772 -0.99577 -0.07857
vn 0.28351 -0.33225 0.89957
vn -0.00860 -0.22447 -0.97444
vn -0.12369 -0.37547 -0.91855
vn 0.08990 0.73371 0.67349
vn -0.20146 0.70385 0.68118
vn -0.29926 0.93681 0.18118
vn -0.12020 0.98857 0.09097
vn -0.48535 0.82736 -0.28268
vn -0.32621 0.80166 -0.50092
vn 0.03346 -0.99872 -0.03793
vn -0.21685 -0.97185 -0.09215
vn -0.28595 -0.69551 0.65917
vn 0.19481 -0.25927 0.94595
vn -0.33147 -0.53197 -0.77919
vn -0.74452 0.00681 -0.66756
vn -0.50690 -0.61109 0.60796
vn 0.14792 -0.70649 0.69209
vn 0.28351 -0.33225 0.89957
vn 0.19481 -0.25927 0.94595
vn -0.28595 -0.69551 0.65917
vn -0.46540 0.80996 -0.35690
vn -0.53486 0.79591 -0.28364
vn -0.74376 0.02346 -0.66803
vn -0.65226 -0.23959 -0.71914
vn -0.51583 0.84910 -0.11380
vn -0.90801 -0.14156 -0.39431
vn -0.91443 0.12597 0.38464
vn -0.94590 0.27150 0.17765
vn -0.94590 0.27150 0.17765
vn -0.08168 0.98677 0.14002
vn -0.12855 0.99049 0.04894
vn -0.22073 0.97521 0.01530
vn -0.50690 -0.61109 0.60796
vn -0.84808 0.42609 0.31497
vn -0.89306 -0.41809 0.16624
vn -0.33070 -0.93495 -0.12849
vn -0.17478 -0.63594 -0.75168
vn -0.84808 0.42609 0.31497
vn -0.71334 0.67280 -0.19617
vn -0.45058 0.28676 -0.84543
vn 0.48248 0.47551 0.73560
vn 0.40453 0.35493 0.84284
vn 0.24010 0.30936 0.92013
vn 0.00000 0.98235 0.18706
vn 0.00000 0.29306 0.95609
vn -0.33719 -0.89284 -0.29857
vn -0.38110 -0.84129 -0.38341
vn -0.18529 -0.98208 -0.03453
vn 0.24381 -0.90519 0.34812
vn 0.09669 -0.92506 0.36730
vn 0.43495 -0.80643 0.40060
vn 0.00000 -0.91168 0.41090
vn 0.00000 -0.99783 0.06586
vn 0.48248 0.47551 0.73560
vn 0.40453 0.35493 0.84284
vn 0.24010 0.30936 0.92013
vn 0.00000 0.29306 0.95609
vn -0.50690 -0.61109 0.60796
vn -0.60556 0.78893 0.10433
vn -0.63315 -0.76393 0.12466
vn -0.00000 0.97720 0.21232
vn -0.68693 0.71951 0.10209
vn 0.00000 0.92459 -0.38097
vn -0.84611 0.50465 0.17155
vn 0.00000 0.63857 0.76956
vn -0.78892 -0.28636 -0.54370
vn -0.00000 0.98484 0.17346
vn -0.52622 0.84592 -0.08668
vn -0.00000 0.95323 -0.30226
vn 0.66282 -0.00702 -0.74875
vn -0.00000 -0.95254 -0.30440
vn -0.00000 -0.64741 -0.76214
vn -0.48678 -0.51228 -0.70754
vn -0.68294 -0.58064 -0.44323
vn -0.70643 -0.11444 -0.69847
vn -0.87943 -0.04095 -0.47427
vn -0.00000 -0.20194 -0.97940
vn 0.00000 -0.98230 0.18732
vn 0.00000 -0.98230 0.18732
vn -0.00000 -0.98640 0.16435
vn 0.00000 -0.98961 0.14375
vn 0.00000 -0.98936 0.14552
vn 0.00000 -0.99299 0.11819
vn -0.15070 0.96208 -0.22736
vn -0.42128 0.83589 -0.35188
vn -0.00000 -0.99692 -0.07841
vn 0.00000 -0.99958 0.02885
vn 0.33253 -0.94292 0.01816
vn 0.22929 -0.97064 -0.07270
vn -0.91291 0.03714 -0.40646
vn -0.91857 0.05056 -0.39202
vn -0.85299 0.33278 -0.40207
vn -0.00000 -0.82692 -0.56232
vn 0.66282 -0.00702 -0.74875
vn -0.95104 0.24442 -0.18914
vn -0.78748 0.60442 -0.12067
vn -0.64538 0.75517 -0.11489
vn -0.36675 0.92988 -0.02855
vn -0.52617 -0.82867 -0.19096
vn 0.00000 -0.98045 -0.19676
vn 0.00000 -0.90894 -0.41692
vn 0.00000 -0.99884 0.04806
vn -0.00000 -0.90788 -0.41923
vn 0.00000 0.98987 -0.14201
vn -0.00000 0.52381 0.85183
vn -0.00000 0.91763 0.39744
vn -0.00000 -0.99584 -0.09107
vn 0.00000 0.98927 -0.14611
vn -0.83142 -0.23492 -0.50354
vn -0.83142 -0.23492 -0.50354
vn -0.83142 -0.23492 -0.50354
vn -0.82608 -0.23577 -0.51186
vn -0.82608 -0.23577 -0.51186
vn -0.82608 -0.23577 -0.51186
vn -0.66616 -0.18412 -0.72272
vn -0.66616 -0.18412 -0.72272
vn -0.66616 -0.18412 -0.72272
vn -0.82686 -0.23280 -0.51196
vn -0.82686 -0.23280 -0.51196
vn -0.82686 -0.23280 -0.51196
vn -0.88823 -0.18629 -0.41993
vn -0.88823 -0.18629 -0.41993
vn -0.88823 -0.18629 -0.41993
vn -0.89836 -0.08127 -0.43168
vn -0.89836 -0.08127 -0.43168
vn -0.89836 -0.08127 -0.43168
vn -0.88957 -0.20491 -0.40825
vn -0.88957 -0.20491 -0.40825
vn -0.88957 -0.20491 -0.40825
vn -0.89023 -0.19109 -0.41350
vn -0.89023 -0.19109 -0.41350
vn -0.89023 -0.19109 -0.41350
vn -0.87134 -0.25416 -0.41972
vn -0.87134 -0.25416 -0.41972
vn -0.87134 -0.25416 -0.41972
vn -0.83884 -0.20360 -0.50488
vn -0.83884 -0.20360 -0.50488
vn -0.83884 -0.20360 -0.50488
vn -0.85307 -0.18976 -0.48606
vn -0.85307 -0.18976 -0.48606
vn -0.85307 -0.18976 -0.48606
vn -0.89499 0.08373 -0.43817
vn -0.89499 0.08373 -0.43817
vn -0.89499 0.08373 -0.43817
vn -0.94073 0.08588 -0.32809
vn -0.94073 0.08588 -0.32809
vn -0.94073 0.08588 -0.32809
vn -0.89499 0.08373 -0.43817
vn -0.89499 0.08373 -0.43817
vn -0.89499 0.08373 -0.43817
vn -0.89499 0.08373 -0.43817
vn -0.89499 0.08373 -0.43817
vn -0.89499 0.08373 -0.43817
vn -0.89499 0.08373 -0.43817
vn -0.89499 0.08373 -0.43817
vn -0.89499 0.08373 -0.43817
vn -0.89498 0.08373 -0.43817
vn -0.89498 0.08373 -0.43817
vn -0.89498 0.08373 -0.43817
vn -0.89499 0.08373 -0.43816
vn -0.89499 0.08373 -0.43816
vn -0.89499 0.08373 -0.43816
vn -0.89499 0.08373 -0.43817
vn -0.89499 0.08373 -0.43817
vn -0.89499 0.08373 -0.43817
vn -0.81301 0.08002 -0.57672
vn -0.81301 0.08002 -0.57672
vn -0.81301 0.08002 -0.57672
vn -0.71919 0.07602 -0.69064
vn -0.71919 0.07602 -0.69064
vn -0.71919 0.07602 -0.69064
vn -0.45058 0.28676 -0.84543
vn -0.17478 -0.63594 -0.75168
vn 0.00000 0.99524 0.09742
vn -0.00000 0.11194 0.99371
vn 0.00000 0.83439 0.55118
vn 0.00000 -0.87226 0.48903
vn 0.00000 0.95787 -0.28722
vn 0.00000 -0.00731 -0.99997
vn -0.00000 0.95323 -0.30226
vn -0.33451 0.89766 0.28691
vn -0.30584 0.93780 0.16432
vn 0.76980 0.53941 -0.34125
vn 0.87864 0.41308 -0.23950
vn 0.89579 0.25537 -0.36381
vn 0.85864 0.27107 -0.43505
vn 0.91306 0.31702 -0.25656
vn 0.83768 0.32598 -0.43821
vn 0.97439 0.17832 -0.13695
vn 0.94678 0.14231 -0.28872
vn 0.96516 -0.11080 -0.23705
vn 0.96560 -0.24120 -0.09717
vn 0.67531 -0.42646 -0.60174
vn 0.12663 -0.87152 -0.47373
vn 0.62928 -0.62374 -0.46363
vn 0.21354 -0.97020 -0.11448
vn 0.70955 -0.69665 -0.10593
vn 0.48698 0.60963 -0.62547
vn 0.54771 0.77633 -0.31199
vn 0.56591 0.12072 -0.81558
vn 0.83340 0.33636 -0.43854
vn 0.71972 -0.03216 -0.69352
vn 0.89568 0.03936 -0.44295
vn 0.72493 0.65895 0.20064
vn 0.71401 0.68133 0.16115
vn 0.84611 0.50465 0.17155
vn 0.99367 -0.03585 0.10644
vn 0.97610 -0.02750 0.21556
vn 0.70249 -0.67664 0.22060
vn 0.64836 -0.74647 0.14973
vn 0.46795 0.86680 -0.17229
vn 0.55568 0.82510 -0.10215
vn 0.99293 -0.03400 0.11369
vn 0.69892 0.59330 -0.39938
vn 0.68805 0.41286 -0.59677
vn 0.85513 0.31021 -0.41536
vn 0.84151 0.08331 -0.53377
vn 0.97216 0.01961 -0.23351
vn 0.89947 0.37393 -0.22613
vn 0.44107 0.89273 -0.09217
vn 0.41129 0.90319 -0.12284
vn 0.80953 -0.40524 0.42478
vn 0.97610 -0.02750 0.21556
vn 0.94022 0.24577 0.23577
vn 0.86562 0.09005 -0.49253
vn 0.88283 0.03878 -0.46808
vn 0.86105 0.25540 -0.43973
vn 0.83554 0.53584 -0.12141
vn 0.81931 0.56225 -0.11229
vn 0.95872 0.12593 -0.25495
vn 0.95870 0.25006 -0.13554
vn 0.90938 0.37492 0.18019
vn 0.70366 0.69809 0.13243
vn 0.52880 0.57557 0.62377
vn 0.40390 0.79480 -0.45294
vn 0.40974 0.86753 0.28197
vn 0.10556 0.97785 0.18072
vn 0.02059 0.80486 0.59311
vn 0.26193 -0.35574 0.89713
vn 0.46943 -0.85942 0.20255
vn 0.04802 -0.99796 0.04209
vn 0.38740 -0.92032 -0.05417
vn 0.29942 -0.91454 -0.27195
vn 0.02406 0.15413 0.98776
vn 0.37475 -0.04781 0.92589
vn 0.20743 -0.86862 0.44996
vn -0.00755 -0.82630 0.56318
vn 0.78892 -0.28636 -0.54370
vn 0.71339 0.68635 -0.14144
vn 0.98550 0.12726 0.11219
vn -0.13945 0.77403 0.61760
vn -0.24151 -0.46086 0.85398
vn 0.37475 -0.04781 0.92589
vn 0.01781 -0.99981 -0.00791
vn -0.08906 -0.95029 0.29834
vn 0.03653 0.99690 -0.06970
vn 0.20232 0.79126 -0.57704
vn 0.35442 -0.17039 -0.91943
vn 0.61978 -0.31478 -0.71888
vn 0.61978 -0.31478 -0.71888
vn 0.35442 -0.17039 -0.91943
vn 0.13880 -0.94792 -0.28666
vn 0.87770 -0.11609 -0.46494
vn 0.23408 -0.94511 -0.22800
vn 0.49034 -0.70115 -0.51764
vn 0.87581 -0.34849 0.33392
vn 0.70249 -0.67664 0.22060
vn 0.38618 -0.90221 0.19203
vn 0.87770 -0.11609 -0.46494
vn 0.35767 -0.93017 -0.08277
vn 0.35767 -0.93017 -0.08277
vn 0.67925 -0.73333 0.02909
vn 0.44723 -0.88267 0.14449
vn 0.59109 -0.80401 0.06456
vn 0.76753 0.62216 0.15428
vn 0.93446 0.29850 0.19414
vn 0.60883 -0.79161 0.05175
vn 0.41463 -0.87062 0.26476
vn 0.87581 -0.34849 0.33392
vn 0.71339 0.68635 -0.14144
vn 0.23249 0.81299 -0.53386
vn 0.09853 0.99509 0.00960
vn 0.70366 0.69809 0.13243
vn -0.14786 0.77181 0.61842
vn 0.52880 0.57557 0.62377
vn -0.27843 -0.33514 0.90009
vn 0.26193 -0.35574 0.89713
vn 0.29974 -0.27524 -0.91345
vn 0.08974 -0.99543 0.03275
vn 0.29974 -0.27524 -0.91345
vn 0.78892 -0.28636 -0.54370
vn 0.46943 -0.85942 0.20255
vn -0.05493 -0.99848 0.00386
vn -0.33176 0.91726 0.22039
vn -0.39966 0.89466 0.19964
vn 0.98358 -0.11909 0.13558
vn 0.82028 0.57048 -0.04125
vn 0.83554 0.53584 -0.12141
vn 0.95870 0.25006 -0.13554
vn 0.99889 -0.01917 0.04311
vn 0.86301 0.47457 0.17321
vn 0.81734 0.56576 0.10900
vn 0.81736 0.57471 0.04039
vn 0.99849 -0.01366 0.05318
vn 0.86907 0.47349 0.14326
vn -0.44558 -0.87546 0.18717
vn -0.36893 -0.85219 0.37102
vn 0.47853 -0.87807 -0.00157
vn 0.43963 0.88729 -0.13940
vn 0.97626 0.16927 -0.13514
vn 0.93039 -0.34712 -0.11784
vn 0.85259 -0.32851 -0.40643
vn 0.76256 0.63650 -0.11562
vn 0.79194 0.59478 -0.13811
vn 0.92539 -0.04182 -0.37669
vn 0.99887 -0.03261 0.03450
vn 0.56952 -0.81851 0.07540
vn 0.46191 -0.88239 -0.08955
vn 0.55568 0.82510 -0.10215
vn 0.49850 0.86622 -0.03399
vn 0.53245 0.84629 0.01714
vn 0.52358 0.84821 0.08001
vn 0.12648 0.99113 0.04070
vn -0.01333 0.66390 0.74770
vn 0.84808 0.42609 0.31497
vn 0.71334 0.67280 -0.19617
vn 0.50690 -0.61109 0.60796
vn -0.14792 -0.70649 0.69209
vn -0.04376 -0.99694 -0.06474
vn 0.33070 -0.93495 -0.12849
vn 0.07315 0.99555 0.05939
vn -0.11574 0.77491 0.62138
vn 0.11123 0.78559 -0.60867
vn 0.19722 0.81238 -0.54877
vn -0.28351 -0.33225 0.89957
vn -0.04772 -0.99577 -0.07857
vn 0.12369 -0.37547 -0.91855
vn 0.00860 -0.22447 -0.97444
vn -0.08990 0.73371 0.67349
vn 0.12020 0.98857 0.09097
vn 0.29926 0.93681 0.18118
vn 0.20146 0.70385 0.68118
vn 0.32621 0.80166 -0.50092
vn 0.48535 0.82736 -0.28268
vn -0.03346 -0.99872 -0.03793
vn -0.19481 -0.25927 0.94595
vn 0.28595 -0.69551 0.65917
vn 0.21685 -0.97185 -0.09215
vn 0.33147 -0.53197 -0.77919
vn 0.74452 0.00681 -0.66756
vn 0.50690 -0.61109 0.60796
vn -0.14792 -0.70649 0.69209
vn -0.28351 -0.33225 0.89957
vn -0.19481 -0.25927 0.94595
vn 0.28595 -0.69551 0.65917
vn 0.46540 0.80996 -0.35690
vn 0.65226 -0.23959 -0.71914
vn 0.74376 0.02346 -0.66803
vn 0.53486 0.79591 -0.28364
vn 0.90801 -0.14156 -0.39431
vn 0.51583 0.84910 -0.11380
vn 0.91443 0.12597 0.38464
vn 0.94590 0.27151 0.17765
vn 0.94590 0.27151 0.17765
vn 0.12855 0.99049 0.04894
vn 0.08168 0.98677 0.14002
vn 0.22073 0.97521 0.01530
vn 0.50690 -0.61109 0.60796
vn 0.89306 -0.41809 0.16624
vn 0.84808 0.42609 0.31497
vn 0.33070 -0.93495 -0.12849
vn 0.17478 -0.63594 -0.75168
vn 0.84808 0.42609 0.31497
vn 0.71334 0.67280 -0.19617
vn 0.45058 0.28676 -0.84543
vn -0.48248 0.47551 0.73560
vn -0.40453 0.35493 0.84284
vn -0.24010 0.30936 0.92013
vn 0.33719 -0.89284 -0.29857
vn 0.38110 -0.84129 -0.38341
vn 0.18529 -0.98208 -0.03453
vn -0.09669 -0.92506 0.36730
vn -0.24381 -0.90519 0.34812
vn -0.43495 -0.80643 0.40060
vn -0.48248 0.47551 0.73560
vn -0.40453 0.35493 0.84284
vn -0.24010 0.30936 0.92013
vn 0.50690 -0.61109 0.60796
vn 0.60556 0.78893 0.10433
vn 0.63315 -0.76393 0.12466
vn 0.68693 0.71951 0.10209
vn 0.84611 0.50465 0.17155
vn 0.78892 -0.28636 -0.54370
vn 0.52622 0.84592 -0.08668
vn -0.66282 -0.00702 -0.74875
vn 0.68294 -0.58064 -0.44323
vn 0.48678 -0.51228 -0.70754
vn 0.87943 -0.04095 -0.47427
vn 0.70643 -0.11444 -0.69847
vn 0.15070 0.96208 -0.22736
vn 0.42128 0.83589 -0.35188
vn -0.22929 -0.97064 -0.07270
vn -0.33253 -0.94292 0.01816
vn 0.91291 0.03714 -0.40646
vn 0.85299 0.33278 -0.40207
vn 0.91857 0.05056 -0.39202
vn -0.66282 -0.00702 -0.74875
vn 0.95104 0.24442 -0.18914
vn 0.78748 0.60442 -0.12067
vn 0.64538 0.75517 -0.11489
vn 0.36675 0.92988 -0.02855
vn 0.52617 -0.82867 -0.19096
vn 0.83142 -0.23492 -0.50354
vn 0.83142 -0.23492 -0.50354
vn 0.83142 -0.23492 -0.50354
vn 0.82608 -0.23577 -0.51186
vn 0.82608 -0.23577 -0.51186
vn 0.82608 -0.23577 -0.51186
vn 0.66616 -0.18412 -0.72272
vn 0.66616 -0.18412 -0.72272
vn 0.66616 -0.18412 -0.72272
vn 0.82686 -0.23280 -0.51196
vn 0.82686 -0.23280 -0.51196
vn 0.82686 -0.23280 -0.51196
vn 0.88823 -0.18629 -0.41993
vn 0.88823 -0.18629 -0.41993
vn 0.88823 -0.18629 -0.41993
vn 0.89836 -0.08127 -0.43168
vn 0.89836 -0.08127 -0.43168
vn 0.89836 -0.08127 -0.43168
vn 0.88957 -0.20491 -0.40825
vn 0.88957 -0.20491 -0.40825
vn 0.88957 -0.20491 -0.40825
vn 0.89023 -0.19109 -0.41350
vn 0.89023 -0.19109 -0.41350
vn 0.89023 -0.19109 -0.41350
vn 0.87134 -0.25416 -0.41972
vn 0.87134 -0.25416 -0.41972
vn 0.87134 -0.25416 -0.41972
vn 0.83884 -0.20360 -0.50488
vn 0.83884 -0.20360 -0.50488
vn 0.83884 -0.20360 -0.50488
vn 0.85307 -0.18976 -0.48606
vn 0.85307 -0.18976 -0.48606
vn 0.85307 -0.18976 -0.48606
vn 0.89499 0.08373 -0.43817
vn 0.89499 0.08373 -0.43817
vn 0.89499 0.08373 -0.43817
vn 0.94073 0.08588 -0.32809
vn 0.94073 0.08588 -0.32809
vn 0.94073 0.08588 -0.32809
vn 0.89499 0.08373 -0.43817
vn 0.89499 0.08373 -0.43817
vn 0.89499 0.08373 -0.43817
vn 0.89499 0.08373 -0.43817
vn 0.89499 0.08373 -0.43817
vn 0.89499 0.08373 -0.43817
vn 0.89499 0.08373 -0.43817
vn 0.89499 0.08373 -0.43817
vn 0.89499 0.08373 -0.43817
vn 0.89498 0.08373 -0.43817
vn 0.89498 0.08373 -0.43817
vn 0.89498 0.08373 -0.43817
vn 0.89499 0.08373 -0.43817
vn 0.89499 0.08373 -0.43817
vn 0.89499 0.08373 -0.43817
vn 0.89499 0.08373 -0.43817
vn 0.89499 0.08373 -0.43817
vn 0.89499 0.08373 -0.43817
vn 0.81301 0.08002 -0.57672
vn 0.81301 0.08002 -0.57672
vn 0.81301 0.08002 -0.57672
vn 0.71919 0.07602 -0.69064
vn 0.71919 0.07602 -0.69064
vn 0.71919 0.07602 -0.69064
vn 0.45058 0.28676 -0.84543
vn 0.17478 -0.63594 -0.75168
f 234/234/234 235/235/235 237/237/237
f 235/235/235 234/234/234 212/212/212
f 164/164/164 212/212/212 234/234/234
f 214/214/214 236/236/236 235/235/235
f 235/235/235 211/211/211 214/214/214
f 212/212/212 211/211/211 235/235/235
f 239/239/239 236/236/236 215/215/215
f 236/236/236 214/214/214 215/215/215
f 215/215/215 242/242/242 239/239/239
f 215/215/215 220/220/220 229/229/229
f 220/220/220 215/215/215 213/213/213
f 213/213/213 215/215/215 214/214/214
f 214/214/214 211/211/211 210/210/210
f 210/210/210 213/213/213 214/214/214
f 211/211/211 212/212/212 209/209/209
f 209/209/209 210/210/210 211/211/211
f 469/469/469 468/468/468 581/581/581
f 445/445/445 469/469/469 476/476/476
f 476/476/476 446/446/446 445/445/445
f 124/124/124 129/129/129 254/254/254
f 129/129/129 124/124/124 91/91/91
f 91/91/91 90/90/90 129/129/129
f 2/2/2 1/1/1 364/364/364
f 3/3/3 4/4/4 1/1/1
f 1/1/1 2/2/2 3/3/3
f 2/2/2 364/364/364 369/369/369
f 3/3/3 2/2/2 369/369/369
f 136/136/136 3/3/3 370/370/370
f 369/369/369 370/370/370 3/3/3
f 4/4/4 3/3/3 136/136/136
f 136/136/136 135/135/135 4/4/4
f 370/370/370 482/482/482 136/136/136
f 137/137/137 136/136/136 482/482/482
f 135/135/135 136/136/136 137/137/137
f 137/137/137 138/138/138 135/135/135
f 257/257/257 137/137/137 483/483/483
f 482/482/482 483/483/483 137/137/137
f 138/138/138 137/137/137 257/257/257
f 257/257/257 258/258/258 138/138/138
f 483/483/483 583/583/583 257/257/257
f 494/494/494 152/152/152 275/275/275
f 495/495/495 153/153/153 152/152/152
f 152/152/152 494/494/494 495/495/495
f 275/275/275 152/152/152 155/155/155
f 154/154/154 155/155/155 152/152/152
f 152/152/152 153/153/153 154/154/154
f 275/275/275 591/591/591 494/494/494
f 591/591/591 275/275/275 274/274/274
f 155/155/155 276/276/276 275/275/275
f 274/274/274 275/275/275 276/276/276
f 274/274/274 590/590/590 591/591/591
f 179/179/179 178/178/178 204/204/204
f 204/204/204 205/205/205 179/179/179
f 182/182/182 183/183/183 180/180/180
f 182/182/182 181/181/181 361/361/361
f 361/361/361 190/190/190 182/182/182
f 180/180/180 181/181/181 182/182/182
f 190/190/190 361/361/361 360/360/360
f 512/512/512 540/540/540 539/539/539
f 539/539/539 513/513/513 512/512/512
f 515/515/515 516/516/516 517/517/517
f 517/517/517 518/518/518 515/515/515
f 517/517/517 526/526/526 665/665/665
f 665/665/665 518/518/518 517/517/517
f 664/664/664 665/665/665 526/526/526
f 451/451/451 424/424/424 423/423/423
f 423/423/423 447/447/447 451/451/451
f 423/423/423 425/425/425 444/444/444
f 444/444/444 445/445/445 423/423/423
f 446/446/446 447/447/447 423/423/423
f 423/423/423 445/445/445 446/446/446
f 423/423/423 424/424/424 425/425/425
f 467/467/467 424/424/424 451/451/451
f 441/441/441 424/424/424 467/467/467
f 424/424/424 441/441/441 432/432/432
f 432/432/432 426/426/426 424/424/424
f 95/95/95 89/89/89 67/67/67
f 67/67/67 69/69/69 95/95/95
f 67/67/67 91/91/91 88/88/88
f 88/88/88 68/68/68 67/67/67
f 90/90/90 91/91/91 67/67/67
f 67/67/67 89/89/89 90/90/90
f 67/67/67 68/68/68 69/69/69
f 120/120/120 95/95/95 69/69/69
f 85/85/85 120/120/120 69/69/69
f 69/69/69 70/70/70 76/76/76
f 76/76/76 85/85/85 69/69/69
f 537/537/537 531/531/531 522/522/522
f 519/519/519 522/522/522 531/531/531
f 531/531/531 528/528/528 519/519/519
f 520/520/520 519/519/519 528/528/528
f 519/519/519 520/520/520 512/512/512
f 538/538/538 532/532/532 531/531/531
f 531/531/531 537/537/537 538/538/538
f 528/528/528 531/531/531 532/532/532
f 537/537/537 525/525/525 524/524/524
f 524/524/524 533/533/533 537/537/537
f 536/536/536 538/538/538 537/537/537
f 537/537/537 533/533/533 536/536/536
f 525/525/525 526/526/526 517/517/517
f 517/517/517 524/524/524 525/525/525
f 533/533/533 524/524/524 523/523/523
f 524/524/524 517/517/517 516/516/516
f 516/516/516 523/523/523 524/524/524
f 523/523/523 534/534/534 533/533/533
f 535/535/535 536/536/536 533/533/533
f 533/533/533 534/534/534 535/535/535
f 552/552/552 536/536/536 535/535/535
f 538/538/538 536/536/536 552/552/552
f 532/532/532 538/538/538 551/551/551
f 551/551/551 529/529/529 532/532/532
f 532/532/532 529/529/529 528/528/528
f 530/530/530 529/529/529 551/551/551
f 551/551/551 543/543/543 530/530/530
f 529/529/529 530/530/530 527/527/527
f 527/527/527 528/528/528 529/529/529
f 528/528/528 527/527/527 520/520/520
f 541/541/541 520/520/520 527/527/527
f 527/527/527 542/542/542 541/541/541
f 542/542/542 527/527/527 530/530/530
f 530/530/530 543/543/543 542/542/542
f 541/541/541 540/540/540 512/512/512
f 512/512/512 520/520/520 541/541/541
f 202/202/202 191/191/191 186/186/186
f 197/197/197 186/186/186 185/185/185
f 185/185/185 195/195/195 197/197/197
f 195/195/195 185/185/185 184/184/184
f 179/179/179 184/184/184 185/185/185
f 203/203/203 202/202/202 197/197/197
f 197/197/197 196/196/196 203/203/203
f 196/196/196 197/197/197 195/195/195
f 202/202/202 198/198/198 188/188/188
f 188/188/188 191/191/191 202/202/202
f 199/199/199 198/198/198 202/202/202
f 202/202/202 203/203/203 199/199/199
f 191/191/191 188/188/188 182/182/182
f 182/182/182 190/190/190 191/191/191
f 189/189/189 188/188/188 198/198/198
f 188/188/188 189/189/189 183/183/183
f 183/183/183 182/182/182 188/188/188
f 198/198/198 201/201/201 189/189/189
f 200/200/200 201/201/201 198/198/198
f 198/198/198 199/199/199 200/200/200
f 217/217/217 200/200/200 199/199/199
f 203/203/203 217/217/217 199/199/199
f 216/216/216 203/203/203 196/196/196
f 196/196/196 194/194/194 216/216/216
f 193/193/193 208/208/208 216/216/216
f 216/216/216 194/194/194 193/193/193
f 195/195/195 194/194/194 196/196/196
f 194/194/194 195/195/195 192/192/192
f 192/192/192 193/193/193 194/194/194
f 193/193/193 192/192/192 207/207/207
f 207/207/207 208/208/208 193/193/193
f 206/206/206 207/207/207 192/192/192
f 192/192/192 184/184/184 206/206/206
f 184/184/184 192/192/192 195/195/195
f 206/206/206 184/184/184 179/179/179
f 179/179/179 205/205/205 206/206/206
f 248/248/248 43/43/43 167/167/167
f 167/167/167 43/43/43 32/32/32
f 43/43/43 248/248/248 36/36/36
f 268/268/268 36/36/36 248/248/248
f 36/36/36 268/268/268 267/267/267
f 267/267/267 37/37/37 36/36/36
f 269/269/269 248/248/248 166/166/166
f 248/248/248 269/269/269 268/268/268
f 167/167/167 166/166/166 248/248/248
f 164/164/164 167/167/167 250/250/250
f 32/32/32 250/250/250 167/167/167
f 166/166/166 167/167/167 164/164/164
f 271/271/271 270/270/270 166/166/166
f 166/166/166 165/165/165 271/271/271
f 166/166/166 270/270/270 269/269/269
f 164/164/164 165/165/165 166/166/166
f 505/505/505 578/578/578 269/269/269
f 269/269/269 270/270/270 505/505/505
f 268/268/268 269/269/269 578/578/578
f 505/505/505 270/270/270 271/271/271
f 506/506/506 271/271/271 241/241/241
f 271/271/271 506/506/506 505/505/505
f 241/241/241 271/271/271 165/165/165
f 165/165/165 234/234/234 241/241/241
f 234/234/234 165/165/165 164/164/164
f 241/241/241 567/567/567 506/506/506
f 241/241/241 240/240/240 570/570/570
f 570/570/570 567/567/567 241/241/241
f 241/241/241 234/234/234 238/238/238
f 238/238/238 240/240/240 241/241/241
f 503/503/503 506/506/506 567/567/567
f 505/505/505 506/506/506 503/503/503
f 571/571/571 568/568/568 567/567/567
f 567/567/567 570/570/570 571/571/571
f 545/545/545 567/567/567 568/568/568
f 567/567/567 545/545/545 503/503/503
f 130/130/130 128/128/128 127/127/127
f 130/130/130 131/131/131 132/132/132
f 127/127/127 128/128/128 126/126/126
f 126/126/126 125/125/125 127/127/127
f 88/88/88 123/123/123 126/126/126
f 125/125/125 126/126/126 123/123/123
f 123/123/123 122/122/122 125/125/125
f 124/124/124 123/123/123 88/88/88
f 123/123/123 124/124/124 121/121/121
f 121/121/121 122/122/122 123/123/123
f 88/88/88 91/91/91 124/124/124
f 254/254/254 121/121/121 124/124/124
f 477/477/477 480/480/480 475/475/475
f 479/479/479 480/480/480 477/477/477
f 472/472/472 474/474/474 475/475/475
f 475/475/475 473/473/473 472/472/472
f 472/472/472 470/470/470 444/444/444
f 470/470/470 472/472/472 473/473/473
f 473/473/473 471/471/471 470/470/470
f 444/444/444 470/470/470 469/469/469
f 470/470/470 471/471/471 468/468/468
f 468/468/468 469/469/469 470/470/470
f 469/469/469 445/445/445 444/444/444
f 581/581/581 476/476/476 469/469/469
f 568/568/568 569/569/569 548/548/548
f 547/547/547 546/546/546 548/548/548
f 546/546/546 547/547/547 544/544/544
f 362/362/362 544/544/544 554/554/554
f 553/553/553 554/554/554 544/544/544
f 544/544/544 547/547/547 553/553/553
f 553/553/553 547/547/547 549/549/549
f 548/548/548 549/549/549 547/547/547
f 569/569/569 550/550/550 548/548/548
f 549/549/549 548/548/548 550/550/550
f 572/572/572 550/550/550 569/569/569
f 571/571/571 572/572/572 569/569/569
f 550/550/550 572/572/572 573/573/573
f 550/550/550 564/564/564 555/555/555
f 555/555/555 549/549/549 550/550/550
f 549/549/549 555/555/555 553/553/553
f 553/553/553 555/555/555 564/564/564
f 564/564/564 565/565/565 553/553/553
f 566/566/566 554/554/554 553/553/553
f 553/553/553 565/565/565 566/566/566
f 554/554/554 566/566/566 233/233/233
f 209/209/209 212/212/212 164/164/164
f 362/362/362 209/209/209 256/256/256
f 218/218/218 209/209/209 362/362/362
f 164/164/164 256/256/256 209/209/209
f 219/219/219 210/210/210 209/209/209
f 209/209/209 218/218/218 219/219/219
f 250/250/250 256/256/256 164/164/164
f 256/256/256 255/255/255 362/362/362
f 255/255/255 256/256/256 250/250/250
f 250/250/250 249/249/249 255/255/255
f 249/249/249 250/250/250 32/32/32
f 362/362/362 255/255/255 582/582/582
f 255/255/255 249/249/249 579/579/579
f 579/579/579 582/582/582 255/255/255
f 395/395/395 392/392/392 394/394/394
f 392/392/392 395/395/395 401/401/401
f 34/34/34 394/394/394 392/392/392
f 392/392/392 30/30/30 34/34/34
f 398/398/398 578/578/578 401/401/401
f 401/401/401 395/395/395 398/398/398
f 578/578/578 398/398/398 268/268/268
f 398/398/398 397/397/397 267/267/267
f 267/267/267 268/268/268 398/398/398
f 397/397/397 398/398/398 395/395/395
f 394/394/394 396/396/396 395/395/395
f 395/395/395 396/396/396 397/397/397
f 568/568/568 546/546/546 545/545/545
f 544/544/544 545/545/545 546/546/546
f 569/569/569 568/568/568 571/571/571
f 548/548/548 546/546/546 568/568/568
f 249/249/249 31/31/31 393/393/393
f 393/393/393 579/579/579 249/249/249
f 32/32/32 31/31/31 249/249/249
f 579/579/579 504/504/504 503/503/503
f 503/503/503 582/582/582 579/579/579
f 504/504/504 579/579/579 393/393/393
f 582/582/582 544/544/544 362/362/362
f 544/544/544 582/582/582 503/503/503
f 503/503/503 545/545/545 544/544/544
f 503/503/503 504/504/504 505/505/505
f 578/578/578 505/505/505 504/504/504
f 504/504/504 401/401/401 578/578/578
f 393/393/393 401/401/401 504/504/504
f 401/401/401 393/393/393 392/392/392
f 392/392/392 393/393/393 31/31/31
f 31/31/31 30/30/30 392/392/392
f 177/177/177 176/176/176 187/187/187
f 186/186/186 187/187/187 176/176/176
f 176/176/176 185/185/185 186/186/186
f 185/185/185 176/176/176 179/179/179
f 178/178/178 179/179/179 176/176/176
f 176/176/176 177/177/177 178/178/178
f 187/187/187 360/360/360 177/177/177
f 360/360/360 187/187/187 190/190/190
f 191/191/191 190/190/190 187/187/187
f 187/187/187 186/186/186 191/191/191
f 186/186/186 197/197/197 202/202/202
f 521/521/521 511/511/511 514/514/514
f 522/522/522 519/519/519 511/511/511
f 511/511/511 521/521/521 522/522/522
f 512/512/512 511/511/511 519/519/519
f 513/513/513 514/514/514 511/511/511
f 511/511/511 512/512/512 513/513/513
f 526/526/526 521/521/521 664/664/664
f 514/514/514 664/664/664 521/521/521
f 525/525/525 522/522/522 521/521/521
f 521/521/521 526/526/526 525/525/525
f 522/522/522 525/525/525 537/537/537
f 118/118/118 80/80/80 71/71/71
f 142/142/142 139/139/139 118/118/118
f 140/140/140 81/81/81 118/118/118
f 118/118/118 110/110/110 140/140/140
f 110/110/110 118/118/118 139/139/139
f 80/80/80 118/118/118 81/81/81
f 142/142/142 466/466/466 465/465/465
f 465/465/465 139/139/139 142/142/142
f 142/142/142 141/141/141 456/456/456
f 456/456/456 466/466/466 142/142/142
f 102/102/102 141/141/141 142/142/142
f 461/461/461 111/111/111 139/139/139
f 139/139/139 465/465/465 461/461/461
f 139/139/139 111/111/111 110/110/110
f 140/140/140 110/110/110 113/113/113
f 112/112/112 113/113/113 110/110/110
f 110/110/110 111/111/111 112/112/112
f 112/112/112 111/111/111 461/461/461
f 462/462/462 461/461/461 484/484/484
f 484/484/484 461/461/461 465/465/465
f 461/461/461 462/462/462 112/112/112
f 108/108/108 112/112/112 462/462/462
f 113/113/113 112/112/112 108/108/108
f 148/148/148 113/113/113 107/107/107
f 108/108/108 107/107/107 113/113/113
f 113/113/113 148/148/148 140/140/140
f 462/462/462 460/460/460 108/108/108
f 108/108/108 460/460/460 459/459/459
f 459/459/459 109/109/109 108/108/108
f 108/108/108 109/109/109 106/106/106
f 106/106/106 107/107/107 108/108/108
f 460/460/460 462/462/462 492/492/492
f 484/484/484 492/492/492 462/462/462
f 492/492/492 488/488/488 460/460/460
f 557/557/557 460/460/460 488/488/488
f 557/557/557 459/459/459 460/460/460
f 143/143/143 144/144/144 145/145/145
f 107/107/107 144/144/144 148/148/148
f 222/222/222 145/145/145 144/144/144
f 144/144/144 223/223/223 222/222/222
f 223/223/223 144/144/144 107/107/107
f 223/223/223 107/107/107 106/106/106
f 221/221/221 223/223/223 106/106/106
f 221/221/221 222/222/222 223/223/223
f 147/147/147 66/66/66 81/81/81
f 82/82/82 81/81/81 66/66/66
f 80/80/80 81/81/81 82/82/82
f 114/114/114 151/151/151 147/147/147
f 147/147/147 151/151/151 55/55/55
f 55/55/55 66/66/66 147/147/147
f 66/66/66 65/65/65 82/82/82
f 65/65/65 66/66/66 55/55/55
f 149/149/149 150/150/150 140/140/140
f 170/170/170 174/174/174 149/149/149
f 175/175/175 174/174/174 170/170/170
f 149/149/149 143/143/143 170/170/170
f 143/143/143 149/149/149 148/148/148
f 140/140/140 148/148/148 149/149/149
f 171/171/171 170/170/170 143/143/143
f 170/170/170 169/169/169 175/175/175
f 170/170/170 171/171/171 168/168/168
f 168/168/168 169/169/169 170/170/170
f 175/175/175 169/169/169 508/508/508
f 508/508/508 169/169/169 168/168/168
f 168/168/168 507/507/507 508/508/508
f 143/143/143 146/146/146 171/171/171
f 148/148/148 144/144/144 143/143/143
f 145/145/145 146/146/146 143/143/143
f 590/590/590 274/274/274 281/281/281
f 281/281/281 274/274/274 277/277/277
f 276/276/276 277/277/277 274/274/274
f 281/281/281 595/595/595 590/590/590
f 281/281/281 368/368/368 595/595/595
f 281/281/281 282/282/282 368/368/368
f 277/277/277 282/282/282 281/281/281
f 365/365/365 154/154/154 153/153/153
f 365/365/365 153/153/153 495/495/495
f 116/116/116 115/115/115 463/463/463
f 115/115/115 114/114/114 247/247/247
f 115/115/115 247/247/247 173/173/173
f 173/173/173 172/172/172 115/115/115
f 114/114/114 115/115/115 116/116/116
f 174/174/174 175/175/175 172/172/172
f 172/172/172 173/173/173 174/174/174
f 150/150/150 173/173/173 247/247/247
f 174/174/174 173/173/173 150/150/150
f 147/147/147 247/247/247 114/114/114
f 247/247/247 147/147/147 150/150/150
f 150/150/150 149/149/149 174/174/174
f 81/81/81 140/140/140 150/150/150
f 150/150/150 147/147/147 81/81/81
f 509/509/509 491/491/491 490/490/490
f 491/491/491 509/509/509 508/508/508
f 484/484/484 490/490/490 491/491/491
f 490/490/490 484/484/484 438/438/438
f 465/465/465 438/438/438 484/484/484
f 490/490/490 489/489/489 577/577/577
f 577/577/577 510/510/510 490/490/490
f 490/490/490 510/510/510 509/509/509
f 438/438/438 489/489/489 490/490/490
f 508/508/508 509/509/509 175/175/175
f 509/509/509 510/510/510 172/172/172
f 172/172/172 175/175/175 509/509/509
f 115/115/115 172/172/172 510/510/510
f 510/510/510 577/577/577 115/115/115
f 115/115/115 577/577/577 463/463/463
f 463/463/463 577/577/577 489/489/489
f 556/556/556 459/459/459 557/557/557
f 558/558/558 557/557/557 488/488/488
f 556/556/556 557/557/557 558/558/558
f 488/488/488 487/487/487 558/558/558
f 485/485/485 488/488/488 492/492/492
f 487/487/487 488/488/488 485/485/485
f 492/492/492 491/491/491 485/485/485
f 491/491/491 492/492/492 484/484/484
f 508/508/508 485/485/485 491/491/491
f 485/485/485 508/508/508 507/507/507
f 507/507/507 486/486/486 485/485/485
f 485/485/485 486/486/486 487/487/487
f 417/417/417 501/501/501 498/498/498
f 498/498/498 418/418/418 417/417/417
f 418/418/418 498/498/498 499/499/499
f 499/499/499 380/380/380 496/496/496
f 379/379/379 385/385/385 380/380/380
f 385/385/385 496/496/496 380/380/380
f 496/496/496 600/600/600 499/499/499
f 500/500/500 499/499/499 600/600/600
f 499/499/499 500/500/500 418/418/418
f 385/385/385 384/384/384 496/496/496
f 496/496/496 290/290/290 295/295/295
f 295/295/295 600/600/600 496/496/496
f 290/290/290 496/496/496 384/384/384
f 383/383/383 385/385/385 379/379/379
f 384/384/384 385/385/385 383/383/383
f 384/384/384 288/288/288 290/290/290
f 33/33/33 29/29/29 35/35/35
f 43/43/43 35/35/35 29/29/29
f 29/29/29 32/32/32 43/43/43
f 34/34/34 30/30/30 29/29/29
f 29/29/29 33/33/33 34/34/34
f 31/31/31 32/32/32 29/29/29
f 29/29/29 30/30/30 31/31/31
f 35/35/35 38/38/38 33/33/33
f 36/36/36 35/35/35 43/43/43
f 37/37/37 38/38/38 35/35/35
f 35/35/35 36/36/36 37/37/37
f 288/288/288 384/384/384 382/382/382
f 383/383/383 382/382/382 384/384/384
f 295/295/295 290/290/290 156/156/156
f 290/290/290 288/288/288 19/19/19
f 19/19/19 156/156/156 290/290/290
f 600/600/600 295/295/295 96/96/96
f 156/156/156 287/287/287 295/295/295
f 96/96/96 295/295/295 287/287/287
f 160/160/160 287/287/287 156/156/156
f 156/156/156 12/12/12 160/160/160
f 18/18/18 156/156/156 19/19/19
f 18/18/18 12/12/12 156/156/156
f 17/17/17 19/19/19 288/288/288
f 19/19/19 17/17/17 16/16/16
f 16/16/16 18/18/18 19/19/19
f 13/13/13 12/12/12 18/18/18
f 8/8/8 10/10/10 283/283/283
f 10/10/10 285/285/285 284/284/284
f 286/286/286 53/53/53 284/284/284
f 284/284/284 285/285/285 286/286/286
f 163/163/163 284/284/284 53/53/53
f 163/163/163 52/52/52 157/157/157
f 157/157/157 162/162/162 163/163/163
f 53/53/53 52/52/52 163/163/163
f 50/50/50 53/53/53 286/286/286
f 52/52/52 53/53/53 50/50/50
f 52/52/52 51/51/51 158/158/158
f 158/158/158 157/157/157 52/52/52
f 50/50/50 51/51/51 52/52/52
f 162/162/162 157/157/157 41/41/41
f 157/157/157 158/158/158 42/42/42
f 42/42/42 41/41/41 157/157/157
f 41/41/41 63/63/63 162/162/162
f 63/63/63 41/41/41 40/40/40
f 41/41/41 42/42/42 39/39/39
f 39/39/39 40/40/40 41/41/41
f 497/497/497 399/399/399 42/42/42
f 42/42/42 158/158/158 497/497/497
f 39/39/39 42/42/42 399/399/399
f 409/409/409 497/497/497 158/158/158
f 158/158/158 51/51/51 409/409/409
f 409/409/409 51/51/51 50/50/50
f 50/50/50 408/408/408 409/409/409
f 400/400/400 399/399/399 417/417/417
f 399/399/399 497/497/497 501/501/501
f 501/501/501 417/417/417 399/399/399
f 399/399/399 400/400/400 39/39/39
f 417/417/417 416/416/416 400/400/400
f 416/416/416 417/417/417 418/418/418
f 418/418/418 419/419/419 416/416/416
f 563/563/563 418/418/418 500/500/500
f 562/562/562 419/419/419 418/418/418
f 418/418/418 563/563/563 562/562/562
f 561/561/561 419/419/419 562/562/562
f 563/563/563 500/500/500 453/453/453
f 600/600/600 453/453/453 500/500/500
f 410/410/410 412/412/412 422/422/422
f 421/421/421 422/422/422 412/412/412
f 412/412/412 420/420/420 421/421/421
f 410/410/410 411/411/411 412/412/412
f 455/455/455 411/411/411 410/410/410
f 266/266/266 455/455/455 456/456/456
f 410/410/410 456/456/456 455/455/455
f 466/466/466 456/456/456 410/410/410
f 410/410/410 428/428/428 466/466/466
f 422/422/422 427/427/427 410/410/410
f 410/410/410 427/427/427 428/428/428
f 456/456/456 141/141/141 266/266/266
f 266/266/266 141/141/141 102/102/102
f 102/102/102 101/101/101 266/266/266
f 428/428/428 436/436/436 465/465/465
f 465/465/465 466/466/466 428/428/428
f 436/436/436 438/438/438 465/465/465
f 436/436/436 437/437/437 438/438/438
f 420/420/420 438/438/438 437/437/437
f 437/437/437 421/421/421 420/420/420
f 425/425/425 424/424/424 426/426/426
f 425/425/425 426/426/426 439/439/439
f 439/439/439 444/444/444 425/425/425
f 439/439/439 426/426/426 432/432/432
f 440/440/440 432/432/432 435/435/435
f 432/432/432 440/440/440 439/439/439
f 434/434/434 435/435/435 432/432/432
f 432/432/432 433/433/433 434/434/434
f 474/474/474 472/472/472 439/439/439
f 439/439/439 440/440/440 474/474/474
f 444/444/444 439/439/439 472/472/472
f 474/474/474 440/440/440 481/481/481
f 481/481/481 440/440/440 443/443/443
f 435/435/435 443/443/443 440/440/440
f 434/434/434 429/429/429 435/435/435
f 443/443/443 435/435/435 429/429/429
f 443/443/443 442/442/442 481/481/481
f 429/429/429 442/442/442 443/443/443
f 429/429/429 434/434/434 430/430/430
f 429/429/429 431/431/431 450/450/450
f 450/450/450 442/442/442 429/429/429
f 429/429/429 430/430/430 431/431/431
f 481/481/481 442/442/442 450/450/450
f 450/450/450 449/449/449 481/481/481
f 450/450/450 431/431/431 448/448/448
f 448/448/448 449/449/449 450/450/450
f 431/431/431 430/430/430 457/457/457
f 457/457/457 448/448/448 431/431/431
f 454/454/454 457/457/457 430/430/430
f 434/434/434 454/454/454 430/430/430
f 434/434/434 433/433/433 454/454/454
f 481/481/481 449/449/449 478/478/478
f 481/481/481 477/477/477 474/474/474
f 478/478/478 477/477/477 481/481/481
f 477/477/477 478/478/478 479/479/479
f 475/475/475 474/474/474 477/477/477
f 68/68/68 70/70/70 69/69/69
f 68/68/68 88/88/88 83/83/83
f 83/83/83 70/70/70 68/68/68
f 76/76/76 70/70/70 83/83/83
f 77/77/77 76/76/76 84/84/84
f 83/83/83 84/84/84 76/76/76
f 78/78/78 79/79/79 76/76/76
f 76/76/76 77/77/77 78/78/78
f 128/128/128 84/84/84 83/83/83
f 83/83/83 126/126/126 128/128/128
f 126/126/126 83/83/83 88/88/88
f 134/134/134 84/84/84 128/128/128
f 86/86/86 84/84/84 134/134/134
f 84/84/84 86/86/86 77/77/77
f 78/78/78 77/77/77 73/73/73
f 73/73/73 77/77/77 86/86/86
f 134/134/134 87/87/87 86/86/86
f 86/86/86 87/87/87 73/73/73
f 73/73/73 75/75/75 78/78/78
f 73/73/73 87/87/87 93/93/93
f 93/93/93 74/74/74 73/73/73
f 73/73/73 74/74/74 75/75/75
f 93/93/93 87/87/87 134/134/134
f 134/134/134 94/94/94 93/93/93
f 93/93/93 94/94/94 92/92/92
f 92/92/92 74/74/74 93/93/93
f 74/74/74 92/92/92 103/103/103
f 103/103/103 75/75/75 74/74/74
f 100/100/100 75/75/75 103/103/103
f 78/78/78 75/75/75 100/100/100
f 78/78/78 100/100/100 79/79/79
f 133/133/133 94/94/94 134/134/134
f 134/134/134 130/130/130 133/133/133
f 132/132/132 133/133/133 130/130/130
f 128/128/128 130/130/130 134/134/134
f 127/127/127 131/131/131 130/130/130
f 599/599/599 588/588/588 371/371/371
f 376/376/376 598/598/598 371/371/371
f 376/376/376 371/371/371 373/373/373
f 588/588/588 599/599/599 292/292/292
f 292/292/292 366/366/366 588/588/588
f 272/272/272 366/366/366 292/292/292
f 50/50/50 292/292/292 599/599/599
f 292/292/292 286/286/286 272/272/272
f 286/286/286 292/292/292 50/50/50
f 599/599/599 598/598/598 597/597/597
f 597/597/597 408/408/408 599/599/599
f 599/599/599 408/408/408 50/50/50
f 597/597/597 598/598/598 376/376/376
f 376/376/376 596/596/596 597/597/597
f 377/377/377 502/502/502 597/597/597
f 597/597/597 596/596/596 377/377/377
f 13/13/13 18/18/18 16/16/16
f 12/12/12 11/11/11 161/161/161
f 161/161/161 160/160/160 12/12/12
f 11/11/11 12/12/12 13/13/13
f 287/287/287 160/160/160 159/159/159
f 160/160/160 161/161/161 62/62/62
f 62/62/62 159/159/159 160/160/160
f 161/161/161 11/11/11 163/163/163
f 163/163/163 162/162/162 161/161/161
f 63/63/63 62/62/62 161/161/161
f 161/161/161 162/162/162 63/63/63
f 11/11/11 283/283/283 284/284/284
f 284/284/284 163/163/163 11/11/11
f 14/14/14 283/283/283 11/11/11
f 13/13/13 14/14/14 11/11/11
f 14/14/14 13/13/13 59/59/59
f 16/16/16 59/59/59 13/13/13
f 8/8/8 283/283/283 14/14/14
f 14/14/14 278/278/278 8/8/8
f 59/59/59 58/58/58 14/14/14
f 284/284/284 283/283/283 10/10/10
f 408/408/408 597/597/597 502/502/502
f 374/374/374 596/596/596 376/376/376
f 376/376/376 373/373/373 374/374/374
f 378/378/378 596/596/596 374/374/374
f 378/378/378 377/377/377 596/596/596
f 498/498/498 377/377/377 380/380/380
f 502/502/502 377/377/377 498/498/498
f 379/379/379 380/380/380 377/377/377
f 377/377/377 378/378/378 379/379/379
f 502/502/502 501/501/501 497/497/497
f 497/497/497 409/409/409 502/502/502
f 502/502/502 409/409/409 408/408/408
f 498/498/498 501/501/501 502/502/502
f 380/380/380 499/499/499 498/498/498
f 453/453/453 560/560/560 563/563/563
f 96/96/96 453/453/453 600/600/600
f 453/453/453 452/452/452 559/559/559
f 559/559/559 560/560/560 453/453/453
f 452/452/452 453/453/453 96/96/96
f 96/96/96 99/99/99 452/452/452
f 287/287/287 97/97/97 96/96/96
f 98/98/98 99/99/99 96/96/96
f 96/96/96 97/97/97 98/98/98
f 559/559/559 452/452/452 458/458/458
f 458/458/458 452/452/452 99/99/99
f 458/458/458 576/576/576 559/559/559
f 99/99/99 105/105/105 458/458/458
f 104/104/104 105/105/105 99/99/99
f 99/99/99 98/98/98 104/104/104
f 104/104/104 98/98/98 224/224/224
f 224/224/224 98/98/98 97/97/97
f 224/224/224 246/246/246 104/104/104
f 97/97/97 225/225/225 224/224/224
f 97/97/97 159/159/159 228/228/228
f 228/228/228 225/225/225 97/97/97
f 159/159/159 97/97/97 287/287/287
f 228/228/228 159/159/159 62/62/62
f 227/227/227 228/228/228 62/62/62
f 62/62/62 61/61/61 227/227/227
f 62/62/62 63/63/63 60/60/60
f 60/60/60 61/61/61 62/62/62
f 226/226/226 227/227/227 61/61/61
f 40/40/40 60/60/60 63/63/63
f 119/119/119 71/71/71 54/54/54
f 54/54/54 102/102/102 119/119/119
f 54/54/54 56/56/56 101/101/101
f 101/101/101 102/102/102 54/54/54
f 64/64/64 55/55/55 54/54/54
f 54/54/54 72/72/72 64/64/64
f 54/54/54 71/71/71 72/72/72
f 54/54/54 55/55/55 56/56/56
f 118/118/118 119/119/119 142/142/142
f 142/142/142 119/119/119 102/102/102
f 71/71/71 119/119/119 118/118/118
f 637/637/637 638/638/638 639/639/639
f 333/333/333 334/334/334 335/335/335
f 252/252/252 56/56/56 55/55/55
f 55/55/55 151/151/151 252/252/252
f 55/55/55 64/64/64 65/65/65
f 151/151/151 114/114/114 252/252/252
f 294/294/294 252/252/252 114/114/114
f 294/294/294 293/293/293 463/463/463
f 463/463/463 580/580/580 294/294/294
f 114/114/114 293/293/293 294/294/294
f 293/293/293 114/114/114 117/117/117
f 116/116/116 117/117/117 114/114/114
f 293/293/293 363/363/363 464/464/464
f 464/464/464 463/463/463 293/293/293
f 117/117/117 363/363/363 293/293/293
f 489/489/489 493/493/493 463/463/463
f 493/493/493 580/580/580 463/463/463
f 463/463/463 464/464/464 116/116/116
f 580/580/580 493/493/493 412/412/412
f 412/412/412 411/411/411 580/580/580
f 412/412/412 493/493/493 489/489/489
f 489/489/489 420/420/420 412/412/412
f 489/489/489 438/438/438 420/420/420
f 253/253/253 464/464/464 363/363/363
f 464/464/464 253/253/253 251/251/251
f 464/464/464 251/251/251 116/116/116
f 253/253/253 363/363/363 117/117/117
f 117/117/117 251/251/251 253/253/253
f 117/117/117 116/116/116 251/251/251
f 554/554/554 232/232/232 362/362/362
f 233/233/233 232/232/232 554/554/554
f 233/233/233 231/231/231 218/218/218
f 218/218/218 232/232/232 233/233/233
f 362/362/362 232/232/232 218/218/218
f 219/219/219 218/218/218 231/231/231
f 231/231/231 230/230/230 219/219/219
f 219/219/219 230/230/230 229/229/229
f 229/229/229 220/220/220 219/219/219
f 213/213/213 210/210/210 219/219/219
f 219/219/219 220/220/220 213/213/213
f 571/571/571 574/574/574 573/573/573
f 573/573/573 572/572/572 571/571/571
f 575/575/575 574/574/574 571/571/571
f 390/390/390 391/391/391 389/389/389
f 589/589/589 588/588/588 366/366/366
f 366/366/366 296/296/296 589/589/589
f 589/589/589 593/593/593 372/372/372
f 372/372/372 371/371/371 589/589/589
f 588/588/588 589/589/589 371/371/371
f 593/593/593 375/375/375 372/372/372
f 391/391/391 594/594/594 593/593/593
f 375/375/375 593/593/593 594/594/594
f 373/373/373 372/372/372 375/375/375
f 371/371/371 372/372/372 373/373/373
f 371/371/371 598/598/598 599/599/599
f 273/273/273 5/5/5 7/7/7
f 5/5/5 272/272/272 286/286/286
f 286/286/286 285/285/285 5/5/5
f 10/10/10 5/5/5 285/285/285
f 272/272/272 5/5/5 273/273/273
f 10/10/10 6/6/6 5/5/5
f 5/5/5 6/6/6 7/7/7
f 273/273/273 296/296/296 366/366/366
f 366/366/366 272/272/272 273/273/273
f 7/7/7 280/280/280 273/273/273
f 273/273/273 23/23/23 22/22/22
f 619/619/619 620/620/620 621/621/621
f 315/315/315 316/316/316 317/317/317
f 318/318/318 319/319/319 320/320/320
f 622/622/622 623/623/623 624/624/624
f 321/321/321 322/322/322 323/323/323
f 625/625/625 626/626/626 627/627/627
f 309/309/309 310/310/310 311/311/311
f 613/613/613 614/614/614 615/615/615
f 336/336/336 337/337/337 338/338/338
f 640/640/640 641/641/641 642/642/642
f 330/330/330 331/331/331 332/332/332
f 634/634/634 635/635/635 636/636/636
f 646/646/646 647/647/647 648/648/648
f 342/342/342 343/343/343 344/344/344
f 312/312/312 313/313/313 314/314/314
f 616/616/616 617/617/617 618/618/618
f 407/407/407 402/402/402 404/404/404
f 402/402/402 403/403/403 404/404/404
f 406/406/406 407/407/407 404/404/404
f 404/404/404 403/403/403 405/405/405
f 405/405/405 406/406/406 404/404/404
f 49/49/49 45/45/45 44/44/44
f 44/44/44 45/45/45 46/46/46
f 48/48/48 45/45/45 49/49/49
f 45/45/45 47/47/47 46/46/46
f 47/47/47 45/45/45 48/48/48
f 345/345/345 346/346/346 347/347/347
f 649/649/649 650/650/650 651/651/651
f 339/339/339 340/340/340 341/341/341
f 643/643/643 644/644/644 645/645/645
f 348/348/348 349/349/349 350/350/350
f 652/652/652 653/653/653 654/654/654
f 351/351/351 352/352/352 353/353/353
f 655/655/655 656/656/656 657/657/657
f 631/631/631 632/632/632 633/633/633
f 327/327/327 328/328/328 329/329/329
f 324/324/324 325/325/325 326/326/326
f 628/628/628 629/629/629 630/630/630
f 601/601/601 602/602/602 603/603/603
f 297/297/297 298/298/298 299/299/299
f 604/604/604 605/605/605 606/606/606
f 300/300/300 301/301/301 302/302/302
f 306/306/306 307/307/307 308/308/308
f 610/610/610 611/611/611 612/612/612
f 57/57/57 58/58/58 59/59/59
f 264/264/264 57/57/57 15/15/15
f 59/59/59 15/15/15 57/57/57
f 15/15/15 59/59/59 16/16/16
f 262/262/262 15/15/15 291/291/291
f 291/291/291 15/15/15 17/17/17
f 15/15/15 262/262/262 264/264/264
f 15/15/15 16/16/16 17/17/17
f 263/263/263 264/264/264 262/262/262
f 291/291/291 259/259/259 262/262/262
f 262/262/262 261/261/261 263/263/263
f 354/354/354 355/355/355 356/356/356
f 658/658/658 659/659/659 660/660/660
f 245/245/245 575/575/575 570/570/570
f 570/570/570 240/240/240 245/245/245
f 571/571/571 570/570/570 575/575/575
f 245/245/245 240/240/240 238/238/238
f 238/238/238 244/244/244 245/245/245
f 244/244/244 238/238/238 237/237/237
f 237/237/237 238/238/238 234/234/234
f 237/237/237 243/243/243 244/244/244
f 237/237/237 239/239/239 242/242/242
f 242/242/242 243/243/243 237/237/237
f 236/236/236 239/239/239 237/237/237
f 237/237/237 235/235/235 236/236/236
f 261/261/261 262/262/262 259/259/259
f 265/265/265 263/263/263 261/261/261
f 261/261/261 260/260/260 265/265/265
f 259/259/259 260/260/260 261/261/261
f 584/584/584 259/259/259 291/291/291
f 585/585/585 260/260/260 259/259/259
f 259/259/259 584/584/584 585/585/585
f 265/265/265 260/260/260 585/585/585
f 585/585/585 587/587/587 265/265/265
f 587/587/587 585/585/585 584/584/584
f 291/291/291 381/381/381 584/584/584
f 586/586/586 584/584/584 381/381/381
f 584/584/584 586/586/586 587/587/587
f 291/291/291 289/289/289 382/382/382
f 382/382/382 381/381/381 291/291/291
f 17/17/17 289/289/289 291/291/291
f 381/381/381 413/413/413 586/586/586
f 381/381/381 383/383/383 414/414/414
f 413/413/413 381/381/381 414/414/414
f 381/381/381 382/382/382 383/383/383
f 382/382/382 289/289/289 288/288/288
f 288/288/288 289/289/289 17/17/17
f 378/378/378 415/415/415 414/414/414
f 414/414/414 379/379/379 378/378/378
f 379/379/379 414/414/414 383/383/383
f 414/414/414 415/415/415 413/413/413
f 374/374/374 592/592/592 378/378/378
f 374/374/374 375/375/375 592/592/592
f 374/374/374 373/373/373 375/375/375
f 594/594/594 592/592/592 375/375/375
f 357/357/357 358/358/358 359/359/359
f 661/661/661 662/662/662 663/663/663
f 303/303/303 304/304/304 305/305/305
f 607/607/607 608/608/608 609/609/609
f 22/22/22 296/296/296 273/273/273
f 273/273/273 280/280/280 26/26/26
f 26/26/26 23/23/23 273/273/273
f 280/280/280 7/7/7 9/9/9
f 6/6/6 9/9/9 7/7/7
f 10/10/10 8/8/8 6/6/6
f 8/8/8 9/9/9 6/6/6
f 279/279/279 280/280/280 9/9/9
f 9/9/9 278/278/278 279/279/279
f 8/8/8 278/278/278 9/9/9
f 280/280/280 279/279/279 27/27/27
f 27/27/27 26/26/26 280/280/280
f 26/26/26 27/27/27 28/28/28
f 26/26/26 24/24/24 20/20/20
f 20/20/20 23/23/23 26/26/26
f 28/28/28 24/24/24 26/26/26
f 24/24/24 28/28/28 367/367/367
f 367/367/367 25/25/25 24/24/24
f 20/20/20 24/24/24 25/25/25
f 25/25/25 21/21/21 20/20/20
f 22/22/22 23/23/23 20/20/20
f 20/20/20 21/21/21 22/22/22
f 388/388/388 25/25/25 367/367/367
f 25/25/25 388/388/388 386/386/386
f 386/386/386 21/21/21 25/25/25
f 367/367/367 390/390/390 388/388/388
f 386/386/386 388/388/388 389/389/389
f 389/389/389 388/388/388 390/390/390
f 389/389/389 387/387/387 386/386/386
f 22/22/22 21/21/21 386/386/386
f 386/386/386 387/387/387 22/22/22
f 589/589/589 296/296/296 22/22/22
f 22/22/22 387/387/387 589/589/589
f 589/589/589 387/387/387 389/389/389
f 389/389/389 593/593/593 589/589/589
f 593/593/593 389/389/389 391/391/391
