# enchodus_a reconstructed from live game memory
v -0.00126 47.54954 -24.17442
v 0.00000 47.54934 -24.17380
v 0.00000 48.84093 -20.41075
v 0.00000 42.87340 -28.27004
v 0.00000 47.54824 -24.17484
v -9.80103 35.25817 -4.49463
v -8.96907 38.68327 -5.40862
v -9.30933 37.47712 0.18924
v -9.19727 35.49184 -7.95584
v -8.75014 41.78307 0.51466
v -8.40649 39.67246 9.58321
v -4.45223 47.54768 9.29447
v -4.28143 48.23794 0.54652
v -2.95142 34.18189 -27.67175
v -4.35400 35.80115 -27.67224
v -6.60304 35.42010 -16.85144
v -4.31126 31.00056 -18.55187
v -3.88183 36.09949 -27.54961
v -7.04698 36.82056 -16.81137
v -2.40969 39.18993 42.69901
v -3.40369 38.97702 37.35078
v -1.98334 42.73637 37.25543
v -1.52677 42.03455 42.56159
v -5.61337 39.21503 26.50499
v -3.43042 45.03406 26.39867
v -3.12622 35.85132 -30.15857
v -2.65179 36.12401 -30.15187
v 0.00000 29.46586 -19.28999
v -0.00000 33.24829 -27.47429
v -8.25750 35.24915 -13.22793
v -5.59558 29.46616 -11.49681
v 0.00000 27.49615 -12.22410
v 0.00000 46.26607 30.49705
v 0.00000 44.00012 37.33170
v -0.90283 46.06882 29.50756
v 0.00000 54.31252 22.51049
v -2.32837 48.54441 19.16943
v 0.00000 55.18597 19.55837
v 0.00000 52.18801 25.17419
v -3.12328 35.93830 37.69631
v -2.31054 36.43529 42.74292
v -1.37448 34.80255 42.84433
v -2.07654 33.82420 38.05721
v -4.07480 46.36209 18.98475
v -7.21875 39.36756 18.83904
v -0.00000 25.94993 9.81524
v -5.81055 28.75903 9.81612
v -4.99464 29.85564 19.20916
v -1.25708 26.47079 19.36341
v -8.42575 33.38376 9.77257
v -6.99106 33.77685 18.99326
v -1.42878 46.98832 26.44124
v -1.72290 50.12646 10.89428
v -1.25073 50.59546 5.32300
v 0.00000 50.63033 29.21068
v -5.33164 34.41380 26.50303
v -3.46251 30.79965 26.48063
v -0.87711 28.21431 26.22936
v -10.01709 33.11792 -1.43060
v -10.20044 34.65918 -2.72272
v -10.53735 33.67720 -2.69800
v -9.77081 33.74328 -7.95117
v -9.89954 34.46790 -7.44385
v -8.61450 39.71582 -17.56409
v -7.66781 43.19909 -19.65762
v -7.15061 44.59988 -17.44017
v -8.49222 42.23664 -4.78500
v -8.96907 38.68327 -5.40862
v -9.19727 35.49184 -7.95584
v -1.62433 39.54071 50.33129
v -1.63747 36.84269 50.33105
v -1.23218 35.94865 50.46304
v -2.90585 36.33536 -27.55052
v -6.34951 37.22298 -18.78052
v -2.90585 36.33536 -27.55052
v -0.00000 35.80567 -30.21119
v 0.00000 37.22298 -18.78052
v -6.34951 37.22298 -18.78052
v -0.00000 36.02725 -31.25247
v -0.00000 35.80567 -30.21119
v -2.00219 36.21955 -29.24817
v -0.00000 35.81799 -31.54565
v -10.53735 33.67720 -2.69800
v -11.44549 33.64136 -3.48535
v -11.44104 34.23902 -3.51221
v -10.20044 34.65918 -2.72272
v -11.18668 34.78785 -6.06989
v -9.80103 35.25817 -4.49463
v -10.77081 33.52664 -7.10374
v -9.77081 33.74328 -7.95117
v -9.89954 34.46790 -7.44385
v -10.73364 34.18506 -7.19482
v -11.03387 32.80473 -5.73251
v -9.99048 32.54492 -5.76500
v -8.30298 34.11543 -9.90723
v -9.99048 32.54492 -5.76500
v -9.24243 31.99512 -5.99036
v -4.15961 42.83648 -25.94701
v -4.87467 44.57612 -24.34328
v -6.40094 43.27887 -23.07269
v -6.46051 41.88498 -23.56418
v -7.67606 38.52456 -19.39575
v -7.85852 40.57074 -19.35132
v -6.74384 46.46852 -5.52655
v -5.75606 46.60745 -18.25783
v 0.00000 49.90739 -7.00261
v -4.38219 48.49008 -6.60251
v -4.35520 48.07694 -19.89314
v -5.81098 46.33149 -21.50703
v -5.95321 40.14803 -24.21290
v -4.43774 41.59118 -28.03442
v -8.30298 34.11543 -9.90723
v -12.49469 33.64505 -3.22168
v -12.46658 34.11434 -3.24951
v -10.53735 33.67720 -2.69800
v -12.48086 34.57369 -5.92000
v -12.47850 34.32990 -7.65110
v -12.47297 33.52686 -7.52696
v -12.47014 33.16235 -5.68779
v -11.44549 33.64136 -3.48535
v -12.49469 33.64505 -3.22168
v -20.46021 33.61768 -6.06390
v -19.25329 33.24561 -3.72931
v -20.51937 34.36719 -5.78491
v -19.17828 34.42787 -3.19898
v -17.41933 34.22021 -0.34598
v -17.45422 33.83960 -0.39428
v -17.45422 33.83960 -0.39428
v -3.55162 47.37458 -23.09554
v 0.00000 50.32780 -0.00306
v -0.00000 51.16377 4.64592
v 0.00000 58.14662 13.32285
v 0.00000 48.30223 30.76199
v -2.00219 36.21955 -29.24817
v -6.12898 28.04857 -0.06466
v -5.79694 28.86176 -6.40562
v 0.00000 33.68209 42.95017
v -1.30268 32.43226 38.24573
v -0.95337 41.84001 50.14792
v 0.00000 42.92252 42.52279
v -0.00000 42.32995 50.08863
v -0.00000 35.03695 50.44007
v -0.79343 31.08915 39.22485
v -0.49185 26.23469 28.47130
v 0.00000 31.52748 41.42628
v -6.26869 38.17049 -19.80660
v 0.00000 42.05999 -30.30001
v -0.28041 25.19885 13.08335
v 0.00000 27.49615 -12.22410
v -5.59558 29.46616 -11.49681
v 0.00000 26.54070 -6.62370
v 0.00000 25.56688 0.43923
v 0.00000 26.02160 27.33160
v 0.00000 28.20048 25.28955
v -0.23209 24.29367 31.81106
v -0.45812 28.68379 41.08700
v -0.00000 26.74237 20.45612
v -0.00000 26.37454 20.07243
v -0.44360 22.79831 16.30762
v -0.39392 24.07750 20.69352
v -0.00000 23.83839 21.25978
v -0.00000 22.40577 16.00727
v 0.00000 23.43981 31.82387
v 0.00000 29.86913 41.74131
v -5.16141 39.64326 -24.27880
v -3.85254 41.08288 -28.12793
v 0.00000 41.49200 -30.16964
v 0.00000 41.08288 -28.12793
v 0.00000 41.49200 -30.16964
v -3.85254 41.08288 -28.12793
v 0.00000 28.15770 41.46894
v -0.72556 36.07820 52.32763
v -0.00000 35.35461 52.02542
v -1.39905 39.48299 52.93655
v -0.71264 42.03455 52.14112
v -0.00000 42.55494 51.93005
v -0.71264 42.03455 52.14112
v -0.00000 42.55494 51.93005
v -0.00000 48.27132 57.80919
v -0.63465 47.39266 58.32263
v -1.39905 39.48299 52.93655
v -0.86939 39.57541 58.58945
v -0.72556 36.07820 52.32763
v -0.90719 32.58966 58.68106
v -0.00000 35.35461 52.02542
v -0.00000 31.52955 58.02416
v -0.00001 49.93410 62.73263
v -0.51934 49.72611 61.54037
v -0.00001 51.54338 62.22004
v -0.00000 39.56444 61.67160
v -0.44281 39.51613 60.74876
v -0.00000 30.62757 63.57896
v -0.46752 31.08520 62.33573
v -0.60877 30.01432 62.33957
v -0.00000 29.65853 63.76564
v -4.38219 48.49008 -6.60251
v 0.00000 49.90739 -7.00261
v 0.00000 56.68515 17.57663
v -21.29982 34.04126 -1.62820
v -24.44540 34.07446 -3.79601
v -24.87879 33.70972 -4.33349
v -23.53982 33.66746 -4.88967
v -21.48853 33.77063 -1.41235
v -24.72852 33.91504 -3.75073
v -22.63202 33.49878 -3.34787
v -21.48853 33.77063 -1.41235
v -24.72852 33.91504 -3.75073
v -24.39783 33.76123 -4.00915
v 0.00000 38.17049 -19.80660
v -5.16141 39.64326 -24.27880
v -6.26869 38.17049 -19.80660
v -0.00001 50.86384 61.15782
v -0.00000 28.72698 63.59744
v -0.00000 29.15567 62.10059
v -2.95414 36.12237 -28.68331
v -2.64306 35.93506 -29.08469
v -2.48723 37.67261 -29.49614
v -3.28073 36.19596 -27.74574
v -2.97101 35.97285 -28.38848
v -2.96746 37.93148 -28.66750
v -3.60826 36.15653 -26.48799
v -3.20416 35.93689 -27.22917
v -2.96867 37.96738 -27.64632
v -2.51484 36.06781 -29.64643
v -2.13267 35.94276 -30.00874
v -1.89618 37.51751 -30.09914
v -2.49008 41.28228 -28.74439
v -3.18585 41.18031 -27.95040
v -2.82550 39.54211 -28.11495
v -1.30959 41.35127 -29.53713
v -2.10287 41.23134 -28.84340
v -1.86792 39.46737 -29.03010
v -8.49222 42.23664 -4.78500
v -6.74384 46.46852 -5.52655
v -0.00000 24.88527 12.63367
v -0.64390 36.71206 -32.53779
v -0.45281 38.30096 -31.59379
v -0.45281 38.60925 -32.09446
v -0.95888 41.65120 -29.22224
v -0.88924 40.27396 -30.89874
v -0.38853 40.41302 -30.86657
v -0.31889 41.94857 -29.22224
v -0.95888 41.40072 -28.37241
v -0.88924 39.85002 -30.31090
v -0.72927 41.08086 -27.94231
v -0.70960 39.58651 -30.09485
v -0.38853 39.85002 -30.31090
v -0.31889 41.40072 -28.37241
v -0.82496 38.60925 -32.09446
v -0.69144 38.19614 -31.47179
v -0.82496 38.30096 -31.59379
v -0.70960 39.58651 -30.09485
v -0.72927 41.08086 -27.94231
v -0.69144 38.19614 -31.47179
v -1.12020 35.42194 -29.74489
v -1.19360 36.85530 -31.42537
v -1.69683 36.85530 -31.42537
v -1.77023 35.42194 -29.74489
v -1.12020 35.83240 -29.26566
v -1.19360 37.22504 -31.10614
v -1.35341 36.06648 -29.02673
v -1.37414 37.37747 -30.96326
v -1.69683 37.22504 -31.10614
v -1.77023 35.83240 -29.26566
v -1.44012 38.64740 -32.69266
v -1.37414 37.37747 -30.96326
v -1.35341 36.06648 -29.02673
v -6.28631 46.33170 -21.59606
v -4.45045 47.76477 -21.09674
v -5.06898 47.38987 -19.64856
v -5.86799 46.42024 -18.72183
v -6.87732 43.62565 -21.65363
v -5.95815 44.17022 -23.23792
v -7.26363 44.05507 -19.69955
v -5.18016 44.91686 -23.99699
v -4.28973 46.19349 -23.79729
v -6.85138 45.14745 -18.76289
v -4.04076 47.20660 -22.64934
v 0.00126 47.54954 -24.17442
v 9.80103 35.25817 -4.49463
v 9.30933 37.47712 0.18924
v 8.96907 38.68327 -5.40862
v 9.19727 35.49184 -7.95584
v 8.40649 39.67246 9.58321
v 8.75014 41.78307 0.51466
v 4.45223 47.54768 9.29447
v 4.28143 48.23794 0.54652
v 2.95142 34.18189 -27.67175
v 4.31126 31.00056 -18.55187
v 6.60304 35.42010 -16.85144
v 4.35400 35.80115 -27.67224
v 7.04698 36.82056 -16.81137
v 3.88183 36.09949 -27.54961
v 2.40969 39.18993 42.69901
v 1.52677 42.03455 42.56159
v 1.98335 42.73637 37.25543
v 3.40370 38.97702 37.35078
v 3.43042 45.03406 26.39867
v 5.61338 39.21503 26.50499
v 3.12622 35.85132 -30.15857
v 2.65179 36.12401 -30.15187
v 8.25750 35.24915 -13.22793
v 5.59558 29.46616 -11.49681
v 0.90283 46.06882 29.50756
v 2.32837 48.54441 19.16943
v 3.12328 35.93830 37.69631
v 2.07654 33.82420 38.05721
v 1.37448 34.80255 42.84433
v 2.31054 36.43529 42.74292
v 7.21875 39.36756 18.83904
v 4.07480 46.36209 18.98475
v 1.25708 26.47079 19.36341
v 4.99464 29.85564 19.20916
v 5.81055 28.75903 9.81612
v 6.99106 33.77685 18.99326
v 8.42575 33.38376 9.77257
v 1.42878 46.98832 26.44124
v 1.72290 50.12646 10.89428
v 1.25073 50.59546 5.32300
v 3.46251 30.79965 26.48063
v 5.33165 34.41380 26.50303
v 0.87712 28.21431 26.22936
v 10.20044 34.65918 -2.72272
v 10.01709 33.11792 -1.43060
v 10.53735 33.67720 -2.69800
v 9.77081 33.74328 -7.95117
v 9.89954 34.46790 -7.44385
v 8.61450 39.71582 -17.56409
v 8.49222 42.23664 -4.78500
v 7.15061 44.59988 -17.44017
v 7.66781 43.19909 -19.65762
v 8.96907 38.68327 -5.40862
v 9.19727 35.49184 -7.95584
v 1.62432 39.54071 50.33129
v 1.63746 36.84269 50.33105
v 1.23217 35.94865 50.46304
v 6.34951 37.22298 -18.78052
v 2.90585 36.33536 -27.55052
v 2.90585 36.33536 -27.55052
v 6.34951 37.22298 -18.78052
v 2.00219 36.21955 -29.24817
v 10.53735 33.67720 -2.69800
v 10.20044 34.65918 -2.72272
v 11.44104 34.23901 -3.51221
v 11.44550 33.64136 -3.48535
v 9.80103 35.25817 -4.49463
v 11.18669 34.78784 -6.06989
v 10.77081 33.52663 -7.10374
v 10.73364 34.18506 -7.19482
v 9.89954 34.46790 -7.44385
v 9.77081 33.74328 -7.95117
v 9.99048 32.54492 -5.76500
v 11.03387 32.80473 -5.73251
v 8.30298 34.11543 -9.90723
v 9.24243 31.99512 -5.99036
v 9.99048 32.54492 -5.76500
v 4.15961 42.83648 -25.94701
v 6.46051 41.88498 -23.56418
v 6.40094 43.27887 -23.07269
v 4.87467 44.57612 -24.34328
v 7.85852 40.57074 -19.35132
v 7.67606 38.52456 -19.39575
v 6.74384 46.46852 -5.52655
v 5.75606 46.60745 -18.25783
v 4.35520 48.07694 -19.89314
v 4.38219 48.49008 -6.60251
v 5.81098 46.33149 -21.50703
v 4.43774 41.59118 -28.03442
v 5.95321 40.14803 -24.21290
v 8.30298 34.11543 -9.90723
v 12.49469 33.64505 -3.22168
v 12.46658 34.11434 -3.24951
v 10.53735 33.67720 -2.69800
v 12.48086 34.57369 -5.92000
v 12.47850 34.32990 -7.65110
v 12.47297 33.52686 -7.52696
v 12.47014 33.16235 -5.68779
v 11.44550 33.64136 -3.48535
v 12.49469 33.64505 -3.22168
v 19.25329 33.24561 -3.72931
v 20.46021 33.61768 -6.06390
v 20.51937 34.36719 -5.78491
v 19.17828 34.42787 -3.19898
v 17.41933 34.22021 -0.34598
v 17.45422 33.83960 -0.39429
v 17.45422 33.83960 -0.39429
v 3.55162 47.37458 -23.09554
v 2.00219 36.21955 -29.24817
v 6.12898 28.04857 -0.06466
v 5.79694 28.86176 -6.40562
v 1.30269 32.43226 38.24573
v 0.95337 41.84001 50.14792
v 0.79343 31.08915 39.22485
v 0.49185 26.23469 28.47130
v 6.26869 38.17049 -19.80660
v 0.28041 25.19885 13.08335
v 5.59558 29.46616 -11.49681
v 0.23209 24.29367 31.81106
v 0.45812 28.68379 41.08700
v 0.44360 22.79831 16.30762
v 0.39392 24.07750 20.69352
v 3.85254 41.08288 -28.12793
v 5.16141 39.64326 -24.27880
v 3.85254 41.08288 -28.12793
v 0.72555 36.07820 52.32763
v 1.39904 39.48299 52.93655
v 0.71263 42.03455 52.14112
v 0.71263 42.03455 52.14112
v 0.63464 47.39266 58.32263
v 1.39904 39.48299 52.93655
v 0.86938 39.57541 58.58945
v 0.72555 36.07820 52.32763
v 0.90718 32.58966 58.68106
v 0.51933 49.72611 61.54037
v 0.44280 39.51613 60.74876
v 0.46752 31.08520 62.33573
v 0.60876 30.01432 62.33957
v 4.38219 48.49008 -6.60251
v 24.44539 34.07446 -3.79601
v 21.29982 34.04126 -1.62820
v 24.87878 33.70971 -4.33349
v 23.53982 33.66746 -4.88967
v 24.72852 33.91504 -3.75073
v 21.48853 33.77063 -1.41235
v 21.48853 33.77063 -1.41235
v 22.63202 33.49878 -3.34787
v 24.72852 33.91504 -3.75073
v 24.39783 33.76123 -4.00915
v 5.16141 39.64326 -24.27880
v 6.26869 38.17049 -19.80660
v 2.95414 36.12237 -28.68331
v 2.48723 37.67261 -29.49614
v 2.64306 35.93506 -29.08469
v 3.28073 36.19596 -27.74574
v 2.96746 37.93148 -28.66750
v 2.97101 35.97285 -28.38848
v 3.60826 36.15653 -26.48799
v 2.96867 37.96738 -27.64632
v 3.20416 35.93689 -27.22917
v 2.51484 36.06781 -29.64643
v 1.89618 37.51751 -30.09914
v 2.13267 35.94276 -30.00874
v 2.49008 41.28228 -28.74439
v 2.82550 39.54211 -28.11495
v 3.18585 41.18031 -27.95040
v 1.30959 41.35127 -29.53713
v 1.86792 39.46737 -29.03010
v 2.10287 41.23134 -28.84340
v 8.49222 42.23664 -4.78500
v 6.74384 46.46852 -5.52655
v 0.64390 36.71206 -32.53779
v 0.45281 38.60925 -32.09446
v 0.45281 38.30096 -31.59379
v 0.95888 41.65120 -29.22224
v 0.31889 41.94857 -29.22224
v 0.38853 40.41302 -30.86657
v 0.88924 40.27396 -30.89874
v 0.88924 39.85002 -30.31090
v 0.95888 41.40072 -28.37241
v 0.70960 39.58651 -30.09485
v 0.72927 41.08086 -27.94231
v 0.31889 41.40072 -28.37241
v 0.38853 39.85002 -30.31090
v 0.82496 38.60925 -32.09446
v 0.69144 38.19614 -31.47179
v 0.82496 38.30096 -31.59379
v 0.72927 41.08086 -27.94231
v 0.70960 39.58651 -30.09485
v 0.69144 38.19614 -31.47179
v 1.12020 35.42194 -29.74489
v 1.77023 35.42194 -29.74489
v 1.69683 36.85530 -31.42537
v 1.19360 36.85530 -31.42537
v 1.12020 35.83240 -29.26566
v 1.19360 37.22504 -31.10614
v 1.35341 36.06648 -29.02673
v 1.37414 37.37747 -30.96326
v 1.77023 35.83240 -29.26566
v 1.69683 37.22504 -31.10614
v 1.44012 38.64740 -32.69266
v 1.37414 37.37747 -30.96326
v 1.35341 36.06648 -29.02673
v 6.28631 46.33170 -21.59606
v 5.86799 46.42024 -18.72183
v 5.06898 47.38987 -19.64856
v 4.45045 47.76477 -21.09674
v 6.87732 43.62565 -21.65363
v 7.26363 44.05507 -19.69955
v 5.95815 44.17022 -23.23792
v 4.28973 46.19349 -23.79729
v 5.18016 44.91686 -23.99699
v 6.85138 45.14745 -18.76289
v 4.04076 47.20660 -22.64934
vt 0.522903 0.242347
vt 0.522918 0.242336
vt 0.519004 0.178400
vt 0.535614 0.318351
vt 0.522927 0.242363
vt 0.661046 0.592461
vt 0.686050 0.624138
vt 0.598806 0.614470
vt 0.689280 0.605629
vt 0.585709 0.673677
vt 0.481230 0.650775
vt 0.479268 0.788780
vt 0.593610 0.761383
vt 0.946441 0.265945
vt 0.918787 0.280366
vt 0.816692 0.169611
vt 0.891801 0.153123
vt 0.906635 0.303385
vt 0.780530 0.183353
vt 0.130071 0.611011
vt 0.184005 0.619358
vt 0.162239 0.705070
vt 0.119454 0.661940
vt 0.293524 0.628055
vt 0.268731 0.768312
vt 0.961273 0.301130
vt 0.944519 0.317897
vt 0.941764 0.159614
vt 0.958679 0.256629
vt 0.803147 0.117962
vt 0.876871 0.043404
vt 0.943768 0.041313
vt 0.186969 0.804309
vt 0.144360 0.723080
vt 0.217906 0.786208
vt 0.296802 0.935418
vt 0.353821 0.825611
vt 0.357890 0.935437
vt 0.261407 0.897628
vt 0.184441 0.556845
vt 0.131298 0.563944
vt 0.127854 0.528271
vt 0.174215 0.501823
vt 0.359492 0.787112
vt 0.377119 0.639130
vt 0.531492 0.381955
vt 0.500955 0.463327
vt 0.397668 0.448451
vt 0.416717 0.374149
vt 0.489129 0.534640
vt 0.385896 0.526721
vt 0.250498 0.809777
vt 0.487590 0.846606
vt 0.540268 0.850593
vt 0.207754 0.863450
vt 0.302036 0.537989
vt 0.308623 0.457486
vt 0.305117 0.397621
vt 0.626925 0.538587
vt 0.621890 0.592463
vt 0.630590 0.561483
vt 0.679240 0.543543
vt 0.677465 0.571284
vt 0.731146 0.178098
vt 0.660757 0.206480
vt 0.642450 0.170910
vt 0.696976 0.008645
vt 0.732628 0.024014
vt 0.767629 0.045634
vt 0.040738 0.605245
vt 0.043171 0.576692
vt 0.043716 0.557944
vt 0.904643 0.317309
vt 0.772775 0.214991
vt 0.945943 0.634900
vt 0.996509 0.591000
vt 0.992261 0.718915
vt 0.899335 0.782209
vt 0.981143 0.329647
vt 0.976183 0.340138
vt 0.937783 0.329825
vt 0.982815 0.319037
vt 0.024645 0.246194
vt 0.037450 0.232856
vt 0.049365 0.236854
vt 0.034151 0.260202
vt 0.081824 0.253093
vt 0.064381 0.270717
vt 0.146531 0.262871
vt 0.151277 0.281145
vt 0.118771 0.277481
vt 0.121509 0.262904
vt 0.189081 0.251209
vt 0.178820 0.273449
vt 0.685537 0.537888
vt 0.663093 0.541023
vt 0.666052 0.532571
vt 0.597030 0.294158
vt 0.596587 0.254714
vt 0.634905 0.246995
vt 0.644506 0.262840
vt 0.732293 0.218017
vt 0.701195 0.209701
vt 0.634471 0.004739
vt 0.619596 0.168614
vt 0.516238 0.009373
vt 0.585684 0.001691
vt 0.575861 0.175294
vt 0.608806 0.208694
vt 0.664617 0.272328
vt 0.603886 0.321065
vt 0.794422 0.043769
vt 0.039441 0.218299
vt 0.050136 0.218435
vt 0.234517 0.252185
vt 0.089180 0.225899
vt 0.125454 0.234645
vt 0.142553 0.235325
vt 0.190009 0.226040
vt 0.219293 0.239289
vt 0.219131 0.222538
vt 0.137869 0.109938
vt 0.195794 0.120320
vt 0.121756 0.108472
vt 0.082014 0.116823
vt 0.031219 0.120386
vt 0.013296 0.120656
vt 0.250001 0.130973
vt 0.554991 0.216836
vt 0.606264 0.824314
vt 0.554692 0.849517
vt 0.452197 0.974083
vt 0.182132 0.835480
vt 0.962108 0.606936
vt 0.605826 0.483408
vt 0.679164 0.491285
vt 0.117231 0.504658
vt 0.165177 0.474751
vt 0.036264 0.635995
vt 0.108497 0.682142
vt 0.033205 0.650540
vt 0.040758 0.545634
vt 0.154061 0.452166
vt 0.272977 0.375094
vt 0.127082 0.466332
vt 0.745283 0.233421
vt 0.539388 0.356362
vt 0.515598 0.369557
vt 0.744873 0.474042
vt 0.732646 0.509149
vt 0.689018 0.457649
vt 0.617795 0.443477
vt 0.284599 0.367907
vt 0.318737 0.385746
vt 0.222558 0.330352
vt 0.119719 0.405525
vt 0.393219 0.346818
vt 0.407250 0.329732
vt 0.503224 0.282947
vt 0.406356 0.261166
vt 0.397531 0.253641
vt 0.509190 0.279067
vt 0.223388 0.318466
vt 0.097013 0.411946
vt 0.674556 0.283361
vt 0.605420 0.332176
vt 0.544196 0.363610
vt 0.994441 0.951497
vt 0.995120 0.994559
vt 0.939693 0.951558
vt 0.111099 0.393597
vt 0.021281 0.563853
vt 0.022900 0.550918
vt 0.012600 0.601270
vt 0.012794 0.635125
vt 0.012118 0.646376
vt 0.417995 0.176497
vt 0.426081 0.185888
vt 0.353116 0.291817
vt 0.344840 0.273984
vt 0.397118 0.136923
vt 0.321037 0.157872
vt 0.399458 0.097328
vt 0.306505 0.068583
vt 0.402378 0.083163
vt 0.302359 0.041922
vt 0.291092 0.335692
vt 0.305413 0.327635
vt 0.304281 0.355061
vt 0.272390 0.172894
vt 0.285095 0.169890
vt 0.261363 0.135990
vt 0.229138 0.038079
vt 0.225730 0.024394
vt 0.204758 0.024172
vt 0.694956 0.747927
vt 0.709122 0.806506
vt 0.394952 0.953056
vt 0.070203 0.068480
vt 0.120382 0.037401
vt 0.142682 0.034672
vt 0.141341 0.063730
vt 0.060056 0.065863
vt 0.122409 0.032497
vt 0.196769 0.068744
vt 0.211173 0.072447
vt 0.153812 0.035963
vt 0.151952 0.039980
vt 0.992386 0.805026
vt 0.909454 0.881001
vt 0.900948 0.806019
vt 0.316407 0.342754
vt 0.202787 0.012756
vt 0.224412 0.010454
vt 0.718133 0.622877
vt 0.792046 0.623522
vt 0.752692 0.897887
vt 0.718133 0.622877
vt 0.792046 0.623522
vt 0.752692 0.897887
vt 0.718133 0.622877
vt 0.792046 0.623522
vt 0.752692 0.897887
vt 0.718133 0.622877
vt 0.792046 0.623522
vt 0.752692 0.897887
vt 0.718133 0.622877
vt 0.792046 0.623522
vt 0.752692 0.897887
vt 0.718133 0.622877
vt 0.792046 0.623522
vt 0.752692 0.897887
vt 0.681999 0.657783
vt 0.689276 0.708410
vt 0.521905 0.368464
vt 0.846608 0.827319
vt 0.834936 0.731527
vt 0.845689 0.731275
vt 0.870845 0.601313
vt 0.865042 0.669332
vt 0.847180 0.668291
vt 0.848796 0.600056
vt 0.889980 0.601060
vt 0.879775 0.669993
vt 0.902166 0.602129
vt 0.888101 0.671227
vt 0.832459 0.667293
vt 0.829774 0.597703
vt 0.859686 0.732117
vt 0.831456 0.733958
vt 0.870355 0.733622
vt 0.822942 0.668607
vt 0.813719 0.597808
vt 0.875118 0.735009
vt 0.870845 0.601313
vt 0.865231 0.666966
vt 0.847388 0.665928
vt 0.848796 0.600056
vt 0.889980 0.601060
vt 0.879383 0.669741
vt 0.902166 0.602129
vt 0.887464 0.671173
vt 0.833013 0.667112
vt 0.829774 0.597703
vt 0.846608 0.827319
vt 0.821588 0.667913
vt 0.813719 0.597808
vt 0.880386 0.476798
vt 0.936396 0.389341
vt 0.979662 0.440386
vt 0.978924 0.507553
vt 0.807912 0.552293
vt 0.770870 0.503245
vt 0.876127 0.575903
vt 0.775410 0.432790
vt 0.809010 0.390029
vt 0.945224 0.556816
vt 0.877546 0.374212
vt 0.522903 0.242347
vt 0.661046 0.592461
vt 0.598806 0.614470
vt 0.686050 0.624138
vt 0.689280 0.605629
vt 0.481230 0.650775
vt 0.585709 0.673677
vt 0.479268 0.788780
vt 0.593610 0.761383
vt 0.946441 0.265945
vt 0.891801 0.153123
vt 0.816692 0.169611
vt 0.918787 0.280366
vt 0.780530 0.183353
vt 0.906635 0.303385
vt 0.130071 0.611011
vt 0.119454 0.661940
vt 0.162239 0.705070
vt 0.184005 0.619358
vt 0.268731 0.768312
vt 0.293524 0.628055
vt 0.961273 0.301130
vt 0.944519 0.317897
vt 0.803147 0.117962
vt 0.876871 0.043404
vt 0.217906 0.786208
vt 0.353821 0.825611
vt 0.184441 0.556845
vt 0.174215 0.501823
vt 0.127854 0.528271
vt 0.131298 0.563944
vt 0.377119 0.639130
vt 0.359492 0.787112
vt 0.416717 0.374149
vt 0.397668 0.448451
vt 0.500955 0.463327
vt 0.385896 0.526721
vt 0.489129 0.534640
vt 0.250498 0.809777
vt 0.487590 0.846606
vt 0.540268 0.850593
vt 0.308623 0.457486
vt 0.302036 0.537989
vt 0.305117 0.397621
vt 0.621890 0.592463
vt 0.626925 0.538587
vt 0.630590 0.561483
vt 0.679240 0.543543
vt 0.677465 0.571284
vt 0.731146 0.178098
vt 0.696976 0.008645
vt 0.642450 0.170910
vt 0.660757 0.206480
vt 0.732628 0.024014
vt 0.767629 0.045634
vt 0.040738 0.605245
vt 0.043171 0.576692
vt 0.043716 0.557944
vt 0.772775 0.214991
vt 0.904643 0.317309
vt 0.945943 0.634900
vt 0.899335 0.782209
vt 0.937783 0.329825
vt 0.024645 0.246194
vt 0.034151 0.260202
vt 0.049365 0.236854
vt 0.037450 0.232856
vt 0.064381 0.270717
vt 0.081824 0.253093
vt 0.146531 0.262871
vt 0.121509 0.262904
vt 0.118771 0.277481
vt 0.151277 0.281145
vt 0.178820 0.273449
vt 0.189081 0.251209
vt 0.685537 0.537888
vt 0.666052 0.532571
vt 0.663093 0.541023
vt 0.597030 0.294158
vt 0.644506 0.262840
vt 0.634905 0.246995
vt 0.596587 0.254714
vt 0.701195 0.209701
vt 0.732293 0.218017
vt 0.634471 0.004739
vt 0.619596 0.168614
vt 0.575861 0.175294
vt 0.585684 0.001691
vt 0.608806 0.208694
vt 0.603886 0.321065
vt 0.664617 0.272328
vt 0.794422 0.043769
vt 0.039441 0.218299
vt 0.050136 0.218435
vt 0.234517 0.252185
vt 0.089180 0.225899
vt 0.125454 0.234645
vt 0.142553 0.235325
vt 0.190009 0.226040
vt 0.219293 0.239289
vt 0.219131 0.222538
vt 0.195794 0.120320
vt 0.137869 0.109938
vt 0.121756 0.108472
vt 0.082014 0.116823
vt 0.031219 0.120386
vt 0.013296 0.120656
vt 0.250001 0.130973
vt 0.554991 0.216836
vt 0.962108 0.606936
vt 0.605826 0.483408
vt 0.679164 0.491285
vt 0.165177 0.474751
vt 0.036264 0.635995
vt 0.154061 0.452166
vt 0.272977 0.375094
vt 0.745283 0.233421
vt 0.515598 0.369557
vt 0.732646 0.509149
vt 0.222558 0.330352
vt 0.119719 0.405525
vt 0.503224 0.282947
vt 0.406356 0.261166
vt 0.605420 0.332176
vt 0.674556 0.283361
vt 0.939693 0.951558
vt 0.021281 0.563853
vt 0.012600 0.601270
vt 0.012794 0.635125
vt 0.417995 0.176497
vt 0.344840 0.273984
vt 0.397118 0.136923
vt 0.321037 0.157872
vt 0.399458 0.097328
vt 0.306505 0.068583
vt 0.305413 0.327635
vt 0.285095 0.169890
vt 0.229138 0.038079
vt 0.225730 0.024394
vt 0.694956 0.747927
vt 0.120382 0.037401
vt 0.070203 0.068480
vt 0.142682 0.034672
vt 0.141341 0.063730
vt 0.122409 0.032497
vt 0.060056 0.065863
vt 0.211173 0.072447
vt 0.196769 0.068744
vt 0.153812 0.035963
vt 0.151952 0.039980
vt 0.909454 0.881001
vt 0.900948 0.806019
vt 0.718133 0.622877
vt 0.752692 0.897887
vt 0.792046 0.623522
vt 0.718133 0.622877
vt 0.752692 0.897887
vt 0.792046 0.623522
vt 0.718133 0.622877
vt 0.752692 0.897887
vt 0.792046 0.623522
vt 0.718133 0.622877
vt 0.752692 0.897887
vt 0.792046 0.623522
vt 0.718133 0.622877
vt 0.752692 0.897887
vt 0.792046 0.623522
vt 0.718133 0.622877
vt 0.752692 0.897887
vt 0.792046 0.623522
vt 0.681999 0.657783
vt 0.689276 0.708410
vt 0.846608 0.827319
vt 0.845689 0.731275
vt 0.834936 0.731527
vt 0.870845 0.601313
vt 0.848796 0.600056
vt 0.847180 0.668291
vt 0.865042 0.669332
vt 0.879775 0.669993
vt 0.889980 0.601060
vt 0.888101 0.671227
vt 0.902166 0.602129
vt 0.829774 0.597703
vt 0.832459 0.667293
vt 0.859686 0.732117
vt 0.831456 0.733958
vt 0.870355 0.733622
vt 0.813719 0.597808
vt 0.822942 0.668607
vt 0.875118 0.735009
vt 0.870845 0.601313
vt 0.848796 0.600056
vt 0.847388 0.665928
vt 0.865231 0.666966
vt 0.889980 0.601060
vt 0.879383 0.669741
vt 0.902166 0.602129
vt 0.887464 0.671173
vt 0.829774 0.597703
vt 0.833013 0.667112
vt 0.846608 0.827319
vt 0.821588 0.667913
vt 0.813719 0.597808
vt 0.880386 0.476798
vt 0.978924 0.507553
vt 0.979662 0.440386
vt 0.936396 0.389341
vt 0.807912 0.552293
vt 0.876127 0.575903
vt 0.770870 0.503245
vt 0.809010 0.390029
vt 0.775410 0.432790
vt 0.945224 0.556816
vt 0.877546 0.374212
vn -0.00256 0.74463 -0.66747
vn 0.00000 0.84603 -0.53314
vn 0.00000 0.97850 -0.20627
vn 0.00000 0.80020 -0.59973
vn 0.00000 0.67543 -0.73743
vn -0.73566 0.66331 -0.13716
vn -0.98828 0.13421 -0.07272
vn -0.98416 0.17498 0.02854
vn -0.93438 0.18789 -0.30272
vn -0.92492 0.37783 0.04200
vn -0.97346 0.19919 0.11273
vn -0.80657 0.58590 0.07856
vn -0.69649 0.71663 0.03660
vn -0.52000 -0.75718 -0.39531
vn -0.93259 0.17006 -0.31835
vn -0.93188 -0.19305 -0.30714
vn -0.71499 -0.61634 -0.33001
vn -0.48853 0.85251 -0.18594
vn -0.90379 -0.23840 -0.35543
vn -0.97856 0.15982 0.12990
vn -0.97023 0.14609 0.19319
vn -0.74285 0.63430 0.21410
vn -0.68823 0.71602 0.11682
vn -0.96077 0.20081 0.19131
vn -0.80902 0.54548 0.21894
vn -0.61864 0.40532 -0.67305
vn -0.14426 0.96353 -0.22540
vn 0.00000 -0.94087 -0.33876
vn 0.00000 -0.87846 -0.47782
vn -0.91621 -0.29630 -0.26976
vn -0.64911 -0.73276 -0.20426
vn -0.00000 -0.98179 -0.18997
vn 0.00000 0.78074 0.62486
vn -0.00000 0.97213 0.23444
vn -0.75425 0.53063 0.38671
vn -0.00000 0.88748 0.46085
vn -0.90153 0.41294 0.12935
vn -0.00000 0.97008 0.24280
vn -0.00000 0.86227 0.50645
vn -0.93903 -0.27775 0.20269
vn -0.96133 -0.24523 0.12534
vn -0.76000 -0.62713 0.17061
vn -0.81239 -0.53192 0.23891
vn -0.82506 0.54587 0.14593
vn -0.97237 0.16657 0.16353
vn -0.00000 -0.99847 -0.05523
vn -0.65753 -0.74634 0.10307
vn -0.74412 -0.64908 0.15805
vn -0.80504 -0.52661 0.27312
vn -0.95814 -0.24676 0.14518
vn -0.93681 -0.28411 0.20410
vn -0.86984 0.44001 0.22308
vn -0.89957 0.43476 0.04203
vn -0.67435 0.72352 -0.14754
vn -0.00000 0.77884 0.62722
vn -0.95752 -0.18895 0.21785
vn -0.81580 -0.52735 0.23742
vn -0.70908 -0.70107 0.07548
vn -0.93916 -0.31675 0.13288
vn -0.79273 0.51374 0.32809
vn -0.69233 -0.50169 0.51864
vn -0.71613 -0.27092 -0.64324
vn -0.67328 0.44520 -0.59033
vn -0.97235 -0.06290 -0.22489
vn -0.94536 0.23502 -0.22597
vn -0.89743 0.44061 -0.02185
vn -0.94244 0.33427 0.00878
vn -0.98828 0.13421 -0.07272
vn -0.93438 0.18789 -0.30272
vn -0.98967 0.11048 0.09141
vn -0.96290 -0.20288 0.17792
vn -0.79265 -0.58667 0.16589
vn -0.22135 0.96025 -0.17010
vn -0.47276 -0.51204 -0.71716
vn -0.22135 0.96025 -0.17010
vn 0.00000 0.99993 -0.01177
vn -0.00000 0.81103 -0.58500
vn -0.47276 -0.51204 -0.71716
vn -0.00000 0.89708 -0.44187
vn 0.00000 0.99993 -0.01177
vn 0.00341 0.99590 -0.09043
vn 0.00000 -0.46510 -0.88526
vn -0.69233 -0.50169 0.51864
vn -0.21313 -0.72015 0.66027
vn -0.25704 0.60346 0.75483
vn -0.79273 0.51374 0.32809
vn -0.15485 0.98490 -0.07747
vn -0.73566 0.66331 -0.13716
vn -0.13385 -0.46339 -0.87599
vn -0.71613 -0.27092 -0.64324
vn -0.67328 0.44520 -0.59033
vn -0.00901 0.63234 -0.77464
vn -0.18449 -0.98210 -0.03803
vn -0.40013 -0.89555 -0.19464
vn -0.82947 -0.43386 -0.35177
vn -0.40013 -0.89555 -0.19464
vn -0.64812 -0.73634 -0.19429
vn -0.62778 0.47125 -0.61953
vn -0.56722 0.47303 -0.67417
vn -0.85595 0.24219 -0.45684
vn -0.86426 0.07510 -0.49741
vn -0.73698 -0.56618 -0.36920
vn -0.94672 -0.09341 -0.30821
vn -0.80404 0.59306 0.04250
vn -0.79461 0.60627 -0.03200
vn -0.00000 0.99757 -0.06962
vn -0.48049 0.87671 -0.02274
vn -0.51042 0.84850 -0.13973
vn -0.78627 0.55391 -0.27380
vn -0.80982 -0.34412 -0.47515
vn -0.67891 0.06404 -0.73143
vn -0.82947 -0.43386 -0.35177
vn 0.24697 -0.62779 0.73817
vn 0.33816 0.49485 0.80048
vn -0.69233 -0.50169 0.51864
vn -0.05819 0.99680 0.05480
vn 0.00176 0.63736 -0.77057
vn -0.02875 -0.74839 -0.66264
vn -0.08105 -0.99626 0.02999
vn -0.21313 -0.72015 0.66027
vn 0.24697 -0.62779 0.73817
vn -0.29396 -0.36859 -0.88189
vn -0.02237 -0.99673 0.07760
vn -0.20849 0.88679 -0.41248
vn -0.06078 0.99801 0.01668
vn 0.06522 0.78092 0.62122
vn 0.12675 -0.37243 0.91936
vn 0.12675 -0.37243 0.91936
vn -0.38814 0.78582 -0.48150
vn -0.00000 0.99595 -0.08989
vn 0.00000 0.91341 -0.40705
vn 0.00000 0.89994 -0.43601
vn 0.00000 0.27214 0.96226
vn 0.00341 0.99590 -0.09043
vn -0.55875 -0.82786 -0.04944
vn -0.60234 -0.78280 -0.15622
vn -0.00000 -0.90004 0.43581
vn -0.91864 -0.30741 0.24819
vn -0.81786 0.57377 0.04354
vn 0.00000 0.98999 0.14113
vn 0.00000 0.99998 0.00645
vn -0.00000 -0.97987 0.19966
vn -0.98378 -0.11060 0.14122
vn -0.94710 -0.29920 -0.11612
vn -0.00000 -0.07983 0.99681
vn -0.25166 -0.82596 -0.50443
vn 0.00000 0.48671 -0.87356
vn -0.94041 -0.28255 -0.18917
vn -0.00000 -0.98179 -0.18997
vn -0.64911 -0.73276 -0.20426
vn 0.00000 -0.98855 -0.15087
vn -0.00000 -0.99999 -0.00437
vn -0.00000 -0.79855 -0.60193
vn -0.00000 -0.98007 -0.19864
vn -0.96320 -0.26014 0.06758
vn -0.92163 -0.11917 0.36933
vn 0.00000 -0.91066 0.41316
vn 0.00000 -0.02952 0.99956
vn -0.88627 -0.45058 -0.10723
vn -0.82345 -0.29101 0.48707
vn 0.00000 -0.44150 0.89726
vn -0.00000 -0.99986 0.01667
vn -0.00000 -0.97560 -0.21955
vn -0.00000 -0.02030 0.99979
vn -0.34048 -0.84511 -0.41214
vn -0.22463 -0.84752 -0.48089
vn 0.00000 -0.61560 -0.78806
vn 0.00000 -0.96451 -0.26405
vn 0.00000 -0.61560 -0.78806
vn -0.22463 -0.84752 -0.48089
vn -0.00000 -0.65048 0.75952
vn -0.88725 -0.44934 0.10427
vn 0.00000 -0.96213 -0.27259
vn -0.99451 0.05391 0.08966
vn -0.84532 0.48994 -0.21307
vn 0.00000 0.95807 -0.28655
vn -0.84532 0.48994 -0.21307
vn 0.00000 0.95807 -0.28655
vn 0.00000 0.77128 -0.63650
vn -0.97759 0.19398 -0.08179
vn -0.99451 0.05391 0.08966
vn -0.99350 -0.02568 0.11089
vn -0.88725 -0.44934 0.10427
vn -0.95173 -0.29305 -0.09126
vn 0.00000 -0.96213 -0.27259
vn 0.00000 -0.86400 -0.50348
vn -0.00000 0.10050 0.99494
vn -0.98157 0.17529 0.07611
vn -0.00000 0.94582 0.32469
vn -0.00000 0.04964 0.99877
vn -0.97053 0.01742 0.24036
vn -0.00000 0.23285 0.97251
vn -0.98090 -0.02605 0.19275
vn -0.98300 -0.14233 0.11598
vn -0.00000 0.01332 0.99991
vn -0.48049 0.87671 -0.02274
vn -0.00000 0.99757 -0.06962
vn 0.00000 0.88628 0.46315
vn -0.24687 0.83462 0.49241
vn -0.36277 0.90737 -0.21234
vn -0.72036 0.54853 -0.42450
vn -0.14225 -0.97278 -0.18293
vn -0.34691 -0.57602 0.74017
vn -0.70414 -0.16846 0.68979
vn -0.13517 -0.98753 0.08070
vn -0.34691 -0.57602 0.74017
vn -0.70414 -0.16846 0.68979
vn -0.12609 -0.97517 0.18206
vn -0.00000 -0.87832 -0.47806
vn -0.34048 -0.84511 -0.41214
vn -0.25166 -0.82596 -0.50443
vn 0.00000 0.81708 -0.57652
vn -0.00000 -0.93978 0.34179
vn 0.00000 -0.91929 -0.39358
vn -0.80368 -0.06791 -0.59118
vn -0.80368 -0.06791 -0.59118
vn -0.80368 -0.06791 -0.59118
vn -0.90706 -0.05776 -0.41703
vn -0.90706 -0.05776 -0.41703
vn -0.90706 -0.05776 -0.41703
vn -0.87757 0.00328 -0.47944
vn -0.87757 0.00328 -0.47944
vn -0.87757 0.00328 -0.47944
vn -0.67648 0.05945 -0.73406
vn -0.67648 0.05945 -0.73406
vn -0.67648 0.05945 -0.73406
vn -0.74238 -0.09670 -0.66296
vn -0.74238 -0.09670 -0.66296
vn -0.74238 -0.09670 -0.66296
vn -0.65760 -0.00786 -0.75333
vn -0.65760 -0.00786 -0.75333
vn -0.65760 -0.00786 -0.75333
vn -0.94244 0.33427 0.00878
vn -0.80404 0.59306 0.04250
vn -0.00000 -0.84134 -0.54050
vn -0.25322 -0.95826 0.13271
vn 0.92600 -0.25925 0.27442
vn 0.53861 0.35905 -0.76222
vn -0.79448 0.44496 -0.41330
vn -0.74283 0.41410 -0.52605
vn 0.63755 0.51758 -0.57065
vn 0.87222 0.33935 -0.35223
vn -0.95157 -0.25759 0.16780
vn -0.96071 -0.21283 0.17817
vn -0.12535 -0.81551 0.56501
vn -0.13254 -0.77121 0.62263
vn 0.91540 -0.29950 0.26897
vn 0.88417 -0.38282 0.26776
vn -0.70941 0.24935 -0.65921
vn -0.14078 -0.64095 0.75456
vn -0.96084 -0.20157 0.19013
vn -0.13254 -0.77121 0.62263
vn -0.12535 -0.81551 0.56501
vn -0.14078 -0.64095 0.75456
vn 0.44790 -0.67049 -0.59146
vn 0.83026 -0.33760 -0.44351
vn -0.55386 -0.55577 -0.61997
vn -0.89489 -0.31983 -0.31126
vn 0.97839 0.18195 0.09819
vn 0.91362 0.35302 0.20168
vn 0.14103 0.81509 0.56191
vn 0.14001 0.81076 0.56839
vn -0.88299 0.39973 0.24606
vn -0.89816 0.36711 0.24196
vn 0.25716 0.95668 -0.13652
vn 0.14001 0.81076 0.56839
vn 0.14103 0.81509 0.56191
vn -0.78474 0.56534 -0.25411
vn -0.55794 0.79625 -0.23387
vn -0.67046 0.74177 0.01604
vn -0.75927 0.64443 0.09065
vn -0.91771 0.20763 -0.33868
vn -0.80038 0.39882 -0.44758
vn -0.94603 0.29576 -0.13247
vn -0.78112 0.58071 -0.22940
vn -0.67426 0.56943 -0.47024
vn -0.86769 0.49593 0.03424
vn -0.50071 0.73533 -0.45670
vn 0.00256 0.74463 -0.66747
vn 0.73566 0.66331 -0.13717
vn 0.98416 0.17498 0.02854
vn 0.98828 0.13421 -0.07272
vn 0.93438 0.18789 -0.30272
vn 0.97346 0.19919 0.11273
vn 0.92492 0.37783 0.04200
vn 0.80657 0.58590 0.07856
vn 0.69649 0.71663 0.03660
vn 0.52000 -0.75718 -0.39531
vn 0.71499 -0.61634 -0.33001
vn 0.93188 -0.19305 -0.30714
vn 0.93259 0.17006 -0.31835
vn 0.90379 -0.23840 -0.35543
vn 0.48853 0.85251 -0.18594
vn 0.97856 0.15982 0.12990
vn 0.68823 0.71602 0.11682
vn 0.74285 0.63430 0.21410
vn 0.97023 0.14609 0.19319
vn 0.80902 0.54548 0.21894
vn 0.96077 0.20081 0.19131
vn 0.61864 0.40532 -0.67305
vn 0.14426 0.96353 -0.22540
vn 0.91621 -0.29630 -0.26976
vn 0.64911 -0.73276 -0.20426
vn 0.75425 0.53063 0.38671
vn 0.90153 0.41294 0.12935
vn 0.93903 -0.27775 0.20269
vn 0.81239 -0.53192 0.23891
vn 0.76000 -0.62713 0.17061
vn 0.96133 -0.24523 0.12534
vn 0.97237 0.16657 0.16353
vn 0.82506 0.54587 0.14593
vn 0.80504 -0.52661 0.27312
vn 0.74412 -0.64908 0.15805
vn 0.65753 -0.74634 0.10307
vn 0.93681 -0.28411 0.20410
vn 0.95814 -0.24676 0.14518
vn 0.86984 0.44001 0.22308
vn 0.89957 0.43476 0.04203
vn 0.67435 0.72352 -0.14754
vn 0.81580 -0.52735 0.23742
vn 0.95752 -0.18895 0.21785
vn 0.70908 -0.70107 0.07548
vn 0.79273 0.51374 0.32809
vn 0.93916 -0.31675 0.13288
vn 0.69233 -0.50169 0.51864
vn 0.71613 -0.27092 -0.64324
vn 0.67328 0.44520 -0.59033
vn 0.97235 -0.06290 -0.22489
vn 0.94244 0.33427 0.00878
vn 0.89743 0.44061 -0.02185
vn 0.94536 0.23502 -0.22597
vn 0.98828 0.13421 -0.07272
vn 0.93438 0.18789 -0.30272
vn 0.98967 0.11048 0.09141
vn 0.96290 -0.20288 0.17792
vn 0.79265 -0.58667 0.16589
vn 0.47276 -0.51204 -0.71716
vn 0.22135 0.96025 -0.17010
vn 0.22135 0.96025 -0.17010
vn 0.47276 -0.51204 -0.71716
vn -0.00341 0.99590 -0.09043
vn 0.69233 -0.50169 0.51864
vn 0.79273 0.51374 0.32809
vn 0.25704 0.60346 0.75483
vn 0.21313 -0.72015 0.66027
vn 0.73566 0.66331 -0.13717
vn 0.15485 0.98490 -0.07747
vn 0.13385 -0.46339 -0.87599
vn 0.00901 0.63234 -0.77464
vn 0.67328 0.44520 -0.59033
vn 0.71613 -0.27092 -0.64324
vn 0.40013 -0.89555 -0.19464
vn 0.18449 -0.98210 -0.03802
vn 0.82947 -0.43386 -0.35177
vn 0.64812 -0.73634 -0.19429
vn 0.40013 -0.89555 -0.19464
vn 0.62778 0.47125 -0.61953
vn 0.86426 0.07510 -0.49741
vn 0.85595 0.24219 -0.45684
vn 0.56722 0.47303 -0.67417
vn 0.94672 -0.09341 -0.30821
vn 0.73698 -0.56618 -0.36920
vn 0.80404 0.59306 0.04250
vn 0.79461 0.60627 -0.03200
vn 0.51042 0.84850 -0.13973
vn 0.48049 0.87671 -0.02274
vn 0.78627 0.55391 -0.27380
vn 0.67891 0.06404 -0.73143
vn 0.80982 -0.34412 -0.47515
vn 0.82947 -0.43386 -0.35177
vn -0.24696 -0.62779 0.73817
vn -0.33816 0.49485 0.80048
vn 0.69233 -0.50169 0.51864
vn 0.05819 0.99680 0.05480
vn -0.00176 0.63736 -0.77057
vn 0.02875 -0.74839 -0.66264
vn 0.08105 -0.99626 0.03000
vn 0.21313 -0.72015 0.66027
vn -0.24696 -0.62779 0.73817
vn 0.02237 -0.99673 0.07760
vn 0.29396 -0.36859 -0.88189
vn 0.20849 0.88679 -0.41248
vn 0.06078 0.99801 0.01668
vn -0.06522 0.78092 0.62122
vn -0.12675 -0.37243 0.91936
vn -0.12675 -0.37243 0.91936
vn 0.38814 0.78582 -0.48150
vn -0.00341 0.99590 -0.09043
vn 0.55875 -0.82786 -0.04944
vn 0.60234 -0.78280 -0.15622
vn 0.91864 -0.30741 0.24819
vn 0.81786 0.57377 0.04354
vn 0.98378 -0.11060 0.14122
vn 0.94710 -0.29920 -0.11612
vn 0.25165 -0.82596 -0.50443
vn 0.94041 -0.28255 -0.18917
vn 0.64911 -0.73276 -0.20426
vn 0.96320 -0.26014 0.06758
vn 0.92163 -0.11917 0.36933
vn 0.88627 -0.45058 -0.10723
vn 0.82345 -0.29101 0.48707
vn 0.22463 -0.84752 -0.48089
vn 0.34048 -0.84511 -0.41214
vn 0.22463 -0.84752 -0.48089
vn 0.88725 -0.44934 0.10427
vn 0.99451 0.05391 0.08966
vn 0.84532 0.48994 -0.21307
vn 0.84532 0.48994 -0.21307
vn 0.97759 0.19398 -0.08179
vn 0.99451 0.05391 0.08966
vn 0.99350 -0.02568 0.11089
vn 0.88725 -0.44934 0.10427
vn 0.95173 -0.29305 -0.09126
vn 0.98157 0.17529 0.07611
vn 0.97053 0.01742 0.24036
vn 0.98090 -0.02605 0.19275
vn 0.98300 -0.14233 0.11598
vn 0.48049 0.87671 -0.02274
vn 0.36277 0.90736 -0.21234
vn 0.24687 0.83462 0.49241
vn 0.72036 0.54851 -0.42452
vn 0.14225 -0.97278 -0.18294
vn 0.70414 -0.16846 0.68979
vn 0.34691 -0.57602 0.74017
vn 0.34691 -0.57602 0.74017
vn 0.13517 -0.98753 0.08070
vn 0.70414 -0.16846 0.68979
vn 0.12608 -0.97517 0.18206
vn 0.34048 -0.84511 -0.41214
vn 0.25165 -0.82596 -0.50443
vn 0.80368 -0.06791 -0.59118
vn 0.80368 -0.06791 -0.59118
vn 0.80368 -0.06791 -0.59118
vn 0.90706 -0.05776 -0.41703
vn 0.90706 -0.05776 -0.41703
vn 0.90706 -0.05776 -0.41703
vn 0.87757 0.00328 -0.47944
vn 0.87757 0.00328 -0.47944
vn 0.87757 0.00328 -0.47944
vn 0.67648 0.05945 -0.73406
vn 0.67648 0.05945 -0.73406
vn 0.67648 0.05945 -0.73406
vn 0.74238 -0.09670 -0.66296
vn 0.74238 -0.09670 -0.66296
vn 0.74238 -0.09670 -0.66296
vn 0.65760 -0.00786 -0.75333
vn 0.65760 -0.00786 -0.75333
vn 0.65760 -0.00786 -0.75333
vn 0.94244 0.33427 0.00878
vn 0.80404 0.59306 0.04250
vn 0.25322 -0.95826 0.13271
vn -0.53861 0.35905 -0.76222
vn -0.92600 -0.25925 0.27442
vn 0.79448 0.44496 -0.41330
vn -0.87222 0.33935 -0.35223
vn -0.63755 0.51758 -0.57065
vn 0.74283 0.41410 -0.52605
vn 0.96071 -0.21283 0.17817
vn 0.95157 -0.25759 0.16780
vn 0.13254 -0.77121 0.62263
vn 0.12535 -0.81551 0.56501
vn -0.88417 -0.38282 0.26776
vn -0.91540 -0.29950 0.26897
vn 0.70941 0.24935 -0.65921
vn 0.14078 -0.64095 0.75456
vn 0.96084 -0.20157 0.19013
vn 0.12535 -0.81551 0.56501
vn 0.13254 -0.77121 0.62263
vn 0.14078 -0.64095 0.75456
vn -0.44790 -0.67049 -0.59146
vn 0.89489 -0.31983 -0.31126
vn 0.55386 -0.55577 -0.61997
vn -0.83026 -0.33760 -0.44351
vn -0.97839 0.18195 0.09819
vn -0.91362 0.35302 0.20168
vn -0.14103 0.81509 0.56191
vn -0.14001 0.81076 0.56839
vn 0.89816 0.36711 0.24196
vn 0.88299 0.39973 0.24606
vn -0.25716 0.95668 -0.13652
vn -0.14001 0.81076 0.56839
vn -0.14103 0.81509 0.56191
vn 0.78474 0.56534 -0.25411
vn 0.75927 0.64443 0.09065
vn 0.67046 0.74177 0.01604
vn 0.55794 0.79625 -0.23387
vn 0.91771 0.20763 -0.33868
vn 0.94603 0.29576 -0.13247
vn 0.80038 0.39882 -0.44758
vn 0.67426 0.56943 -0.47024
vn 0.78112 0.58071 -0.22940
vn 0.86769 0.49593 0.03424
vn 0.50071 0.73533 -0.45670
f 471/471/471 478/478/478 479/479/479
f 479/479/479 478/478/478 482/482/482
f 482/482/482 481/481/481 479/479/479
f 479/479/479 481/481/481 480/480/480
f 480/480/480 477/477/477 475/475/475
f 475/475/475 477/477/477 476/476/476
f 257/257/257 265/265/265 263/263/263
f 263/263/263 265/265/265 266/266/266
f 258/258/258 257/257/257 263/263/263
f 263/263/263 264/264/264 258/258/258
f 263/263/263 266/266/266 267/267/267
f 267/267/267 264/264/264 263/263/263
f 85/85/85 86/86/86 83/83/83
f 83/83/83 84/84/84 85/85/85
f 116/116/116 87/87/87 85/85/85
f 85/85/85 114/114/114 116/116/116
f 85/85/85 84/84/84 113/113/113
f 113/113/113 114/114/114 85/85/85
f 86/86/86 85/85/85 87/87/87
f 87/87/87 88/88/88 86/86/86
f 117/117/117 92/92/92 87/87/87
f 251/251/251 254/254/254 236/236/236
f 236/236/236 249/249/249 251/251/251
f 237/237/237 236/236/236 250/250/250
f 236/236/236 238/238/238 249/249/249
f 236/236/236 237/237/237 238/238/238
f 254/254/254 251/251/251 244/244/244
f 240/240/240 244/244/244 251/251/251
f 251/251/251 249/249/249 240/240/240
f 244/244/244 246/246/246 254/254/254
f 466/466/466 451/451/451 469/469/469
f 451/451/451 466/466/466 464/464/464
f 453/453/453 465/465/465 451/451/451
f 451/451/451 464/464/464 452/452/452
f 451/451/451 452/452/452 453/453/453
f 458/458/458 466/466/466 469/469/469
f 457/457/457 464/464/464 466/466/466
f 466/466/466 458/458/458 457/457/457
f 469/469/469 460/460/460 458/458/458
f 344/344/344 345/345/345 342/342/342
f 342/342/342 343/343/343 344/344/344
f 374/374/374 372/372/372 344/344/344
f 344/344/344 347/347/347 374/374/374
f 344/344/344 372/372/372 371/371/371
f 371/371/371 345/345/345 344/344/344
f 347/347/347 344/344/344 343/343/343
f 343/343/343 346/346/346 347/347/347
f 375/375/375 374/374/374 347/347/347
f 347/347/347 349/349/349 375/375/375
f 349/349/349 347/347/347 346/346/346
f 384/384/384 372/372/372 374/374/374
f 374/374/374 383/383/383 384/384/384
f 383/383/383 374/374/374 375/375/375
f 385/385/385 371/371/371 372/372/372
f 372/372/372 384/384/384 385/385/385
f 385/385/385 384/384/384 420/420/420
f 420/420/420 384/384/384 383/383/383
f 420/420/420 383/383/383 382/382/382
f 375/375/375 382/382/382 383/383/383
f 420/420/420 424/424/424 385/385/385
f 423/423/423 424/424/424 420/420/420
f 420/420/420 419/419/419 423/423/423
f 382/382/382 419/419/419 420/420/420
f 419/419/419 382/382/382 381/381/381
f 87/87/87 116/116/116 117/117/117
f 88/88/88 87/87/87 92/92/92
f 126/126/126 125/125/125 116/116/116
f 116/116/116 114/114/114 126/126/126
f 117/117/117 116/116/116 125/125/125
f 127/127/127 126/126/126 114/114/114
f 114/114/114 113/113/113 127/127/127
f 199/199/199 126/126/126 127/127/127
f 199/199/199 125/125/125 126/126/126
f 124/124/124 125/125/125 199/199/199
f 125/125/125 124/124/124 117/117/117
f 127/127/127 203/203/203 199/199/199
f 204/204/204 200/200/200 199/199/199
f 199/199/199 203/203/203 204/204/204
f 199/199/199 200/200/200 124/124/124
f 122/122/122 124/124/124 200/200/200
f 195/195/195 417/417/417 213/213/213
f 195/195/195 213/213/213 194/194/194
f 213/213/213 214/214/214 194/194/194
f 411/411/411 410/410/410 412/412/412
f 410/410/410 411/411/411 409/409/409
f 409/409/409 408/408/408 410/410/410
f 179/179/179 409/409/409 414/414/414
f 408/408/408 409/409/409 179/179/179
f 179/179/179 178/178/178 408/408/408
f 414/414/414 212/212/212 179/179/179
f 179/179/179 212/212/212 188/188/188
f 414/414/414 189/189/189 212/212/212
f 187/187/187 189/189/189 414/414/414
f 188/188/188 212/212/212 189/189/189
f 187/187/187 188/188/188 189/189/189
f 181/181/181 177/177/177 180/180/180
f 179/179/179 180/180/180 177/177/177
f 177/177/177 178/178/178 179/179/179
f 183/183/183 181/181/181 182/182/182
f 180/180/180 182/182/182 181/181/181
f 180/180/180 188/188/188 191/191/191
f 191/191/191 182/182/182 180/180/180
f 188/188/188 180/180/180 179/179/179
f 184/184/184 182/182/182 191/191/191
f 417/417/417 195/195/195 192/192/192
f 192/192/192 195/195/195 194/194/194
f 186/186/186 417/417/417 416/416/416
f 416/416/416 413/413/413 186/186/186
f 413/413/413 416/416/416 415/415/415
f 415/415/415 411/411/411 413/413/413
f 409/409/409 411/411/411 415/415/415
f 415/415/415 414/414/414 409/409/409
f 413/413/413 412/412/412 185/185/185
f 185/185/185 186/186/186 413/413/413
f 412/412/412 413/413/413 411/411/411
f 417/417/417 186/186/186 214/214/214
f 194/194/194 214/214/214 186/186/186
f 213/213/213 417/417/417 214/214/214
f 132/132/132 319/319/319 318/318/318
f 318/318/318 198/198/198 132/132/132
f 319/319/319 132/132/132 131/131/131
f 38/38/38 198/198/198 318/318/318
f 318/318/318 305/305/305 38/38/38
f 318/318/318 319/319/319 286/286/286
f 318/318/318 286/286/286 311/311/311
f 311/311/311 305/305/305 318/318/318
f 286/286/286 319/319/319 287/287/287
f 287/287/287 319/319/319 130/130/130
f 319/319/319 131/131/131 130/130/130
f 310/310/310 311/311/311 286/286/286
f 286/286/286 284/284/284 310/310/310
f 285/285/285 284/284/284 286/286/286
f 286/286/286 287/287/287 285/285/285
f 299/299/299 298/298/298 311/311/311
f 311/311/311 310/310/310 299/299/299
f 317/317/317 305/305/305 311/311/311
f 311/311/311 298/298/298 317/317/317
f 298/298/298 299/299/299 297/297/297
f 39/39/39 305/305/305 317/317/317
f 317/317/317 55/55/55 39/39/39
f 39/39/39 36/36/36 305/305/305
f 36/36/36 38/38/38 305/305/305
f 281/281/281 285/285/285 449/449/449
f 449/449/449 285/285/285 287/287/287
f 281/281/281 284/284/284 285/285/285
f 449/449/449 282/282/282 281/281/281
f 284/284/284 281/281/281 324/324/324
f 281/281/281 280/280/280 323/323/323
f 281/281/281 323/323/323 324/324/324
f 280/280/280 281/281/281 282/282/282
f 287/287/287 450/450/450 449/449/449
f 450/450/450 287/287/287 418/418/418
f 418/418/418 287/287/287 130/130/130
f 130/130/130 197/197/197 418/418/418
f 130/130/130 13/13/13 196/196/196
f 196/196/196 197/197/197 130/130/130
f 234/234/234 196/196/196 13/13/13
f 13/13/13 10/10/10 233/233/233
f 233/233/233 234/234/234 13/13/13
f 324/324/324 323/323/323 325/325/325
f 324/324/324 355/355/355 390/390/390
f 355/355/355 324/324/324 325/325/325
f 325/325/325 356/356/356 355/355/355
f 390/390/390 355/355/355 354/354/354
f 355/355/355 356/356/356 326/326/326
f 326/326/326 354/354/354 355/355/355
f 354/354/354 397/397/397 390/390/390
f 390/390/390 397/397/397 149/149/149
f 326/326/326 283/283/283 354/354/354
f 326/326/326 327/327/327 283/283/283
f 256/256/256 255/255/255 259/259/259
f 257/257/257 258/258/258 255/255/255
f 255/255/255 256/256/256 257/257/257
f 260/260/260 265/265/265 256/256/256
f 256/256/256 265/265/265 257/257/257
f 259/259/259 260/260/260 256/256/256
f 260/260/260 259/259/259 261/261/261
f 265/265/265 260/260/260 262/262/262
f 261/261/261 262/262/262 260/260/260
f 59/59/59 61/61/61 60/60/60
f 136/136/136 97/97/97 59/59/59
f 59/59/59 135/135/135 136/136/136
f 47/47/47 135/135/135 59/59/59
f 59/59/59 50/50/50 47/47/47
f 11/11/11 50/50/50 59/59/59
f 61/61/61 59/59/59 97/97/97
f 50/50/50 11/11/11 45/45/45
f 45/45/45 11/11/11 12/12/12
f 12/12/12 11/11/11 10/10/10
f 45/45/45 51/51/51 50/50/50
f 50/50/50 51/51/51 48/48/48
f 48/48/48 47/47/47 50/50/50
f 47/47/47 46/46/46 152/152/152
f 152/152/152 135/135/135 47/47/47
f 46/46/46 47/47/47 48/48/48
f 48/48/48 57/57/57 58/58/58
f 20/20/20 41/41/41 40/40/40
f 40/40/40 21/21/21 20/20/20
f 42/42/42 43/43/43 40/40/40
f 40/40/40 41/41/41 42/42/42
f 43/43/43 138/138/138 58/58/58
f 137/137/137 138/138/138 43/43/43
f 43/43/43 42/42/42 137/137/137
f 142/142/142 137/137/137 42/42/42
f 42/42/42 72/72/72 142/142/142
f 72/72/72 42/42/42 41/41/41
f 41/41/41 71/71/71 72/72/72
f 41/41/41 20/20/20 70/70/70
f 70/70/70 71/71/71 41/41/41
f 139/139/139 70/70/70 20/20/20
f 174/174/174 70/70/70 139/139/139
f 406/406/406 407/407/407 392/392/392
f 392/392/392 407/407/407 176/176/176
f 176/176/176 141/141/141 392/392/392
f 295/295/295 392/392/392 141/141/141
f 392/392/392 295/295/295 294/294/294
f 139/139/139 141/141/141 176/176/176
f 176/176/176 175/175/175 139/139/139
f 141/141/141 140/140/140 295/295/295
f 23/23/23 140/140/140 141/141/141
f 141/141/141 139/139/139 23/23/23
f 295/295/295 140/140/140 34/34/34
f 34/34/34 296/296/296 295/295/295
f 294/294/294 295/295/295 296/296/296
f 296/296/296 297/297/297 294/294/294
f 296/296/296 304/304/304 298/298/298
f 296/296/296 34/34/34 33/33/33
f 33/33/33 304/304/304 296/296/296
f 297/297/297 296/296/296 298/298/298
f 23/23/23 22/22/22 34/34/34
f 34/34/34 140/140/140 23/23/23
f 459/459/459 458/458/458 460/460/460
f 458/458/458 459/459/459 454/454/454
f 454/454/454 457/457/457 458/458/458
f 452/452/452 464/464/464 457/457/457
f 457/457/457 456/456/456 452/452/452
f 456/456/456 457/457/457 454/454/454
f 453/453/453 452/452/452 456/456/456
f 456/456/456 463/463/463 453/453/453
f 463/463/463 456/456/456 455/455/455
f 454/454/454 455/455/455 456/456/456
f 465/465/465 453/453/453 463/463/463
f 463/463/463 468/468/468 465/465/465
f 468/468/468 463/463/463 462/462/462
f 455/455/455 462/462/462 463/463/463
f 462/462/462 467/467/467 468/468/468
f 460/460/460 461/461/461 459/459/459
f 246/246/246 244/244/244 243/243/243
f 244/244/244 240/240/240 239/239/239
f 239/239/239 243/243/243 244/244/244
f 238/238/238 241/241/241 240/240/240
f 240/240/240 249/249/249 238/238/238
f 239/239/239 240/240/240 241/241/241
f 241/241/241 238/238/238 237/237/237
f 237/237/237 247/247/247 241/241/241
f 242/242/242 241/241/241 247/247/247
f 241/241/241 242/242/242 239/239/239
f 247/247/247 237/237/237 250/250/250
f 250/250/250 252/252/252 247/247/247
f 248/248/248 247/247/247 252/252/252
f 247/247/247 248/248/248 242/242/242
f 252/252/252 253/253/253 248/248/248
f 243/243/243 245/245/245 246/246/246
f 310/310/310 284/284/284 316/316/316
f 316/316/316 315/315/315 310/310/310
f 313/313/313 315/315/315 316/316/316
f 322/322/322 320/320/320 313/313/313
f 313/313/313 312/312/312 322/322/322
f 315/315/315 313/313/313 320/320/320
f 46/46/46 312/312/312 313/313/313
f 310/310/310 315/315/315 321/321/321
f 320/320/320 321/321/321 315/315/315
f 307/307/307 320/320/320 322/322/322
f 306/306/306 321/321/321 320/320/320
f 320/320/320 307/307/307 306/306/306
f 297/297/297 299/299/299 321/321/321
f 321/321/321 306/306/306 297/297/297
f 321/321/321 299/299/299 310/310/310
f 294/294/294 297/297/297 306/306/306
f 306/306/306 309/309/309 294/294/294
f 308/308/308 309/309/309 306/306/306
f 306/306/306 307/307/307 308/308/308
f 322/322/322 391/391/391 307/307/307
f 137/137/137 308/308/308 307/307/307
f 307/307/307 391/391/391 137/137/137
f 142/142/142 336/336/336 308/308/308
f 308/308/308 137/137/137 142/142/142
f 309/309/309 308/308/308 336/336/336
f 336/336/336 335/335/335 309/309/309
f 309/309/309 335/335/335 334/334/334
f 334/334/334 294/294/294 309/309/309
f 336/336/336 405/405/405 335/335/335
f 405/405/405 336/336/336 142/142/142
f 335/335/335 405/405/405 406/406/406
f 406/406/406 334/334/334 335/335/335
f 392/392/392 334/334/334 406/406/406
f 294/294/294 334/334/334 392/392/392
f 8/8/8 60/60/60 6/6/6
f 63/63/63 9/9/9 6/6/6
f 6/6/6 9/9/9 7/7/7
f 6/6/6 7/7/7 8/8/8
f 8/8/8 7/7/7 233/233/233
f 233/233/233 10/10/10 8/8/8
f 59/59/59 8/8/8 11/11/11
f 8/8/8 59/59/59 60/60/60
f 8/8/8 10/10/10 11/11/11
f 288/288/288 289/289/289 290/290/290
f 300/300/300 301/301/301 79/79/79
f 293/293/293 301/301/301 300/300/300
f 300/300/300 291/291/291 293/293/293
f 80/80/80 79/79/79 301/301/301
f 27/27/27 79/79/79 80/80/80
f 341/341/341 301/301/301 293/293/293
f 301/301/301 341/341/341 80/80/80
f 293/293/293 338/338/338 341/341/341
f 293/293/293 291/291/291 290/290/290
f 302/302/302 290/290/290 289/289/289
f 302/302/302 303/303/303 370/370/370
f 370/370/370 333/333/333 302/302/302
f 302/302/302 333/333/333 332/332/332
f 289/289/289 303/303/303 302/302/302
f 28/28/28 32/32/32 303/303/303
f 303/303/303 289/289/289 28/28/28
f 80/80/80 81/81/81 27/27/27
f 33/33/33 34/34/34 22/22/22
f 20/20/20 23/23/23 139/139/139
f 22/22/22 23/23/23 20/20/20
f 22/22/22 25/25/25 35/35/35
f 22/22/22 35/35/35 33/33/33
f 25/25/25 22/22/22 21/21/21
f 20/20/20 21/21/21 22/22/22
f 304/304/304 33/33/33 133/133/133
f 133/133/133 33/33/33 35/35/35
f 298/298/298 304/304/304 317/317/317
f 133/133/133 317/317/317 304/304/304
f 133/133/133 55/55/55 317/317/317
f 133/133/133 52/52/52 55/55/55
f 35/35/35 52/52/52 133/133/133
f 25/25/25 52/52/52 35/35/35
f 39/39/39 55/55/55 52/52/52
f 52/52/52 37/37/37 39/39/39
f 52/52/52 25/25/25 44/44/44
f 44/44/44 37/37/37 52/52/52
f 44/44/44 25/25/25 24/24/24
f 21/21/21 24/24/24 25/25/25
f 53/53/53 37/37/37 44/44/44
f 44/44/44 12/12/12 53/53/53
f 24/24/24 45/45/45 44/44/44
f 12/12/12 44/44/44 45/45/45
f 38/38/38 37/37/37 53/53/53
f 39/39/39 37/37/37 36/36/36
f 36/36/36 37/37/37 38/38/38
f 132/132/132 198/198/198 53/53/53
f 53/53/53 54/54/54 132/132/132
f 53/53/53 198/198/198 38/38/38
f 53/53/53 12/12/12 54/54/54
f 12/12/12 13/13/13 54/54/54
f 10/10/10 13/13/13 12/12/12
f 13/13/13 130/130/130 54/54/54
f 54/54/54 131/131/131 132/132/132
f 54/54/54 130/130/130 131/131/131
f 56/56/56 51/51/51 45/45/45
f 45/45/45 24/24/24 56/56/56
f 57/57/57 56/56/56 40/40/40
f 21/21/21 40/40/40 56/56/56
f 56/56/56 24/24/24 21/21/21
f 51/51/51 56/56/56 57/57/57
f 57/57/57 48/48/48 51/51/51
f 58/58/58 57/57/57 43/43/43
f 40/40/40 43/43/43 57/57/57
f 429/429/429 209/209/209 430/430/430
f 340/340/340 430/430/430 209/209/209
f 404/404/404 168/168/168 209/209/209
f 209/209/209 429/429/429 404/404/404
f 210/210/210 211/211/211 209/209/209
f 170/170/170 210/210/210 209/209/209
f 209/209/209 168/168/168 170/170/170
f 168/168/168 169/169/169 170/170/170
f 168/168/168 404/404/404 169/169/169
f 135/135/135 152/152/152 151/151/151
f 151/151/151 136/136/136 135/135/135
f 314/314/314 389/389/389 152/152/152
f 152/152/152 46/46/46 314/314/314
f 151/151/151 152/152/152 389/389/389
f 389/389/389 390/390/390 151/151/151
f 149/149/149 151/151/151 390/390/390
f 136/136/136 151/151/151 149/149/149
f 390/390/390 389/389/389 324/324/324
f 324/324/324 389/389/389 314/314/314
f 314/314/314 316/316/316 324/324/324
f 316/316/316 314/314/314 313/313/313
f 313/313/313 314/314/314 46/46/46
f 324/324/324 316/316/316 284/284/284
f 425/425/425 426/426/426 380/380/380
f 380/380/380 386/386/386 425/425/425
f 380/380/380 377/377/377 379/379/379
f 379/379/379 386/386/386 380/380/380
f 377/377/377 353/353/353 378/378/378
f 378/378/378 379/379/379 377/377/377
f 353/353/353 377/377/377 376/376/376
f 376/376/376 348/348/348 353/353/353
f 348/348/348 376/376/376 375/375/375
f 375/375/375 349/349/349 348/348/348
f 352/352/352 353/353/353 348/348/348
f 348/348/348 351/351/351 352/352/352
f 350/350/350 351/351/351 348/348/348
f 348/348/348 349/349/349 350/350/350
f 373/373/373 378/378/378 353/353/353
f 353/353/353 352/352/352 373/373/373
f 346/346/346 350/350/350 349/349/349
f 123/123/123 205/205/205 206/206/206
f 206/206/206 128/128/128 123/123/123
f 123/123/123 128/128/128 121/121/121
f 121/121/121 119/119/119 123/123/123
f 119/119/119 121/121/121 120/120/120
f 120/120/120 93/93/93 119/119/119
f 118/118/118 119/119/119 93/93/93
f 93/93/93 89/89/89 118/118/118
f 117/117/117 118/118/118 89/89/89
f 89/89/89 92/92/92 117/117/117
f 94/94/94 90/90/90 89/89/89
f 89/89/89 93/93/93 94/94/94
f 91/91/91 92/92/92 89/89/89
f 89/89/89 90/90/90 91/91/91
f 115/115/115 93/93/93 120/120/120
f 93/93/93 115/115/115 94/94/94
f 92/92/92 91/91/91 88/88/88
f 102/102/102 19/19/19 74/74/74
f 19/19/19 64/64/64 30/30/30
f 16/16/16 19/19/19 30/30/30
f 73/73/73 74/74/74 19/19/19
f 19/19/19 18/18/18 73/73/73
f 18/18/18 19/19/19 16/16/16
f 64/64/64 67/67/67 68/68/68
f 30/30/30 64/64/64 68/68/68
f 66/66/66 67/67/67 64/64/64
f 64/64/64 65/65/65 66/66/66
f 109/109/109 66/66/66 65/65/65
f 100/100/100 109/109/109 65/65/65
f 66/66/66 109/109/109 105/105/105
f 67/67/67 66/66/66 105/105/105
f 104/104/104 67/67/67 105/105/105
f 107/107/107 104/104/104 105/105/105
f 105/105/105 108/108/108 107/107/107
f 108/108/108 105/105/105 109/109/109
f 99/99/99 129/129/129 109/109/109
f 100/100/100 99/99/99 109/109/109
f 322/322/322 394/394/394 393/393/393
f 157/157/157 154/154/154 322/322/322
f 322/322/322 312/312/312 157/157/157
f 153/153/153 394/394/394 322/322/322
f 322/322/322 154/154/154 153/153/153
f 394/394/394 153/153/153 163/163/163
f 163/163/163 398/398/398 394/394/394
f 398/398/398 163/163/163 171/171/171
f 171/171/171 399/399/399 398/398/398
f 399/399/399 171/171/171 164/164/164
f 399/399/399 164/164/164 145/145/145
f 156/156/156 164/164/164 171/171/171
f 155/155/155 156/156/156 171/171/171
f 171/171/171 163/163/163 155/155/155
f 144/144/144 155/155/155 163/163/163
f 163/163/163 153/153/153 144/144/144
f 153/153/153 154/154/154 58/58/58
f 58/58/58 144/144/144 153/153/153
f 58/58/58 154/154/154 157/157/157
f 157/157/157 49/49/49 58/58/58
f 58/58/58 138/138/138 143/143/143
f 143/143/143 144/144/144 58/58/58
f 58/58/58 49/49/49 48/48/48
f 155/155/155 144/144/144 143/143/143
f 143/143/143 156/156/156 155/155/155
f 156/156/156 143/143/143 145/145/145
f 145/145/145 164/164/164 156/156/156
f 143/143/143 138/138/138 145/145/145
f 48/48/48 49/49/49 46/46/46
f 160/160/160 49/49/49 158/158/158
f 49/49/49 160/160/160 159/159/159
f 159/159/159 148/148/148 49/49/49
f 157/157/157 158/158/158 49/49/49
f 148/148/148 46/46/46 49/49/49
f 396/396/396 46/46/46 235/235/235
f 396/396/396 312/312/312 46/46/46
f 148/148/148 235/235/235 46/46/46
f 235/235/235 148/148/148 159/159/159
f 159/159/159 162/162/162 235/235/235
f 162/162/162 159/159/159 160/160/160
f 160/160/160 161/161/161 162/162/162
f 158/158/158 161/161/161 160/160/160
f 235/235/235 162/162/162 400/400/400
f 162/162/162 161/161/161 401/401/401
f 401/401/401 400/400/400 162/162/162
f 400/400/400 396/396/396 235/235/235
f 312/312/312 396/396/396 400/400/400
f 158/158/158 312/312/312 401/401/401
f 400/400/400 401/401/401 312/312/312
f 157/157/157 312/312/312 158/158/158
f 401/401/401 161/161/161 158/158/158
f 365/365/365 387/387/387 367/367/367
f 365/365/365 367/367/367 364/364/364
f 330/330/330 364/364/364 367/367/367
f 367/367/367 331/331/331 330/330/330
f 359/359/359 331/331/331 367/367/367
f 361/361/361 331/331/331 359/359/359
f 359/359/359 358/358/358 361/361/361
f 361/361/361 358/358/358 369/369/369
f 369/369/369 362/362/362 361/361/361
f 328/328/328 331/331/331 361/361/361
f 361/361/361 362/362/362 292/292/292
f 292/292/292 328/328/328 361/361/361
f 330/330/330 331/331/331 328/328/328
f 329/329/329 364/364/364 330/330/330
f 117/117/117 124/124/124 122/122/122
f 200/200/200 204/204/204 201/201/201
f 201/201/201 122/122/122 200/200/200
f 208/208/208 201/201/201 207/207/207
f 202/202/202 201/201/201 208/208/208
f 201/201/201 202/202/202 122/122/122
f 122/122/122 202/202/202 205/205/205
f 205/205/205 123/123/123 122/122/122
f 122/122/122 118/118/118 117/117/117
f 122/122/122 123/123/123 119/119/119
f 119/119/119 118/118/118 122/122/122
f 208/208/208 205/205/205 202/202/202
f 205/205/205 208/208/208 207/207/207
f 207/207/207 206/206/206 205/205/205
f 381/381/381 382/382/382 375/375/375
f 419/419/419 421/421/421 423/423/423
f 421/421/421 419/419/419 381/381/381
f 428/428/428 427/427/427 421/421/421
f 428/428/428 421/421/421 422/422/422
f 421/421/421 381/381/381 422/422/422
f 381/381/381 380/380/380 426/426/426
f 426/426/426 422/422/422 381/381/381
f 375/375/375 376/376/376 381/381/381
f 381/381/381 376/376/376 377/377/377
f 377/377/377 380/380/380 381/381/381
f 422/422/422 426/426/426 428/428/428
f 427/427/427 428/428/428 426/426/426
f 426/426/426 425/425/425 427/427/427
f 273/273/273 275/275/275 276/276/276
f 490/490/490 491/491/491 489/489/489
f 327/327/327 280/280/280 283/283/283
f 280/280/280 282/282/282 283/283/283
f 149/149/149 150/150/150 136/136/136
f 136/136/136 150/150/150 95/95/95
f 95/95/95 97/97/97 136/136/136
f 97/97/97 95/95/95 62/62/62
f 62/62/62 95/95/95 9/9/9
f 97/97/97 96/96/96 61/61/61
f 62/62/62 96/96/96 97/97/97
f 62/62/62 9/9/9 63/63/63
f 76/76/76 75/75/75 134/134/134
f 77/77/77 78/78/78 75/75/75
f 75/75/75 76/76/76 77/77/77
f 76/76/76 388/388/388 339/339/339
f 77/77/77 76/76/76 339/339/339
f 209/209/209 77/77/77 340/340/340
f 339/339/339 340/340/340 77/77/77
f 78/78/78 77/77/77 209/209/209
f 209/209/209 211/211/211 78/78/78
f 278/278/278 269/269/269 268/268/268
f 268/268/268 276/276/276 278/278/278
f 277/277/277 274/274/274 268/268/268
f 268/268/268 271/271/271 277/277/277
f 276/276/276 268/268/268 273/273/273
f 268/268/268 274/274/274 272/272/272
f 272/272/272 273/273/273 268/268/268
f 270/270/270 271/271/271 268/268/268
f 268/268/268 269/269/269 270/270/270
f 493/493/493 490/490/490 483/483/483
f 483/483/483 486/486/486 493/493/493
f 492/492/492 484/484/484 483/483/483
f 483/483/483 488/488/488 492/492/492
f 489/489/489 483/483/483 490/490/490
f 483/483/483 489/489/489 487/487/487
f 487/487/487 488/488/488 483/483/483
f 485/485/485 486/486/486 483/483/483
f 483/483/483 484/484/484 485/485/485
f 218/218/218 219/219/219 220/220/220
f 434/434/434 435/435/435 436/436/436
f 221/221/221 222/222/222 223/223/223
f 437/437/437 438/438/438 439/439/439
f 328/328/328 329/329/329 330/330/330
f 292/292/292 302/302/302 328/328/328
f 328/328/328 332/332/332 329/329/329
f 332/332/332 328/328/328 302/302/302
f 337/337/337 292/292/292 362/362/362
f 290/290/290 302/302/302 292/292/292
f 338/338/338 293/293/293 292/292/292
f 292/292/292 337/337/337 338/338/338
f 290/290/290 292/292/292 293/293/293
f 395/395/395 362/362/362 369/369/369
f 362/362/362 395/395/395 337/337/337
f 369/369/369 403/403/403 395/395/395
f 403/403/403 369/369/369 368/368/368
f 368/368/368 402/402/402 403/403/403
f 368/368/368 147/147/147 167/167/167
f 167/167/167 402/402/402 368/368/368
f 167/167/167 147/147/147 111/111/111
f 111/111/111 166/166/166 167/167/167
f 165/165/165 166/166/166 111/111/111
f 111/111/111 110/110/110 165/165/165
f 110/110/110 111/111/111 98/98/98
f 146/146/146 165/165/165 110/110/110
f 110/110/110 102/102/102 146/146/146
f 110/110/110 101/101/101 103/103/103
f 103/103/103 102/102/102 110/110/110
f 98/98/98 101/101/101 110/110/110
f 100/100/100 101/101/101 98/98/98
f 98/98/98 99/99/99 100/100/100
f 103/103/103 101/101/101 100/100/100
f 100/100/100 65/65/65 103/103/103
f 64/64/64 103/103/103 65/65/65
f 103/103/103 64/64/64 19/19/19
f 19/19/19 102/102/102 103/103/103
f 74/74/74 146/146/146 102/102/102
f 108/108/108 109/109/109 129/129/129
f 3/3/3 108/108/108 129/129/129
f 107/107/107 108/108/108 3/3/3
f 3/3/3 106/106/106 107/107/107
f 366/366/366 106/106/106 3/3/3
f 3/3/3 365/365/365 366/366/366
f 366/366/366 365/365/365 364/364/364
f 364/364/364 363/363/363 366/366/366
f 363/363/363 364/364/364 329/329/329
f 68/68/68 69/69/69 30/30/30
f 112/112/112 30/30/30 69/69/69
f 30/30/30 112/112/112 31/31/31
f 17/17/17 16/16/16 30/30/30
f 30/30/30 31/31/31 17/17/17
f 28/28/28 17/17/17 31/31/31
f 31/31/31 32/32/32 28/28/28
f 14/14/14 17/17/17 28/28/28
f 16/16/16 17/17/17 14/14/14
f 16/16/16 15/15/15 18/18/18
f 14/14/14 15/15/15 16/16/16
f 14/14/14 29/29/29 82/82/82
f 82/82/82 26/26/26 14/14/14
f 28/28/28 29/29/29 14/14/14
f 26/26/26 15/15/15 14/14/14
f 18/18/18 15/15/15 26/26/26
f 18/18/18 27/27/27 81/81/81
f 81/81/81 73/73/73 18/18/18
f 26/26/26 27/27/27 18/18/18
f 79/79/79 27/27/27 26/26/26
f 26/26/26 82/82/82 79/79/79
f 288/288/288 300/300/300 82/82/82
f 82/82/82 29/29/29 288/288/288
f 79/79/79 82/82/82 300/300/300
f 288/288/288 29/29/29 28/28/28
f 28/28/28 289/289/289 288/288/288
f 300/300/300 288/288/288 291/291/291
f 290/290/290 291/291/291 288/288/288
f 71/71/71 70/70/70 174/174/174
f 174/174/174 172/172/172 71/71/71
f 72/72/72 71/71/71 172/172/172
f 142/142/142 72/72/72 172/172/172
f 142/142/142 173/173/173 405/405/405
f 172/172/172 173/173/173 142/142/142
f 139/139/139 175/175/175 174/174/174
f 391/391/391 145/145/145 137/137/137
f 138/138/138 137/137/137 145/145/145
f 393/393/393 145/145/145 391/391/391
f 393/393/393 391/391/391 322/322/322
f 145/145/145 393/393/393 399/399/399
f 393/393/393 394/394/394 398/398/398
f 398/398/398 399/399/399 393/393/393
f 215/215/215 216/216/216 217/217/217
f 431/431/431 432/432/432 433/433/433
f 279/279/279 5/5/5 4/4/4
f 279/279/279 4/4/4 357/357/357
f 360/360/360 387/387/387 279/279/279
f 279/279/279 357/357/357 360/360/360
f 3/3/3 279/279/279 387/387/387
f 4/4/4 147/147/147 368/368/368
f 368/368/368 357/357/357 4/4/4
f 4/4/4 98/98/98 111/111/111
f 111/111/111 147/147/147 4/4/4
f 369/369/369 358/358/358 357/357/357
f 357/357/357 368/368/368 369/369/369
f 359/359/359 360/360/360 357/357/357
f 357/357/357 358/358/358 359/359/359
f 360/360/360 367/367/367 387/387/387
f 359/359/359 367/367/367 360/360/360
f 387/387/387 365/365/365 3/3/3
f 474/474/474 470/470/470 473/473/473
f 472/472/472 473/473/473 470/470/470
f 470/470/470 471/471/471 472/472/472
f 476/476/476 474/474/474 475/475/475
f 473/473/473 475/475/475 474/474/474
f 475/475/475 473/473/473 480/480/480
f 473/473/473 472/472/472 480/480/480
f 472/472/472 479/479/479 480/480/480
f 479/479/479 472/472/472 471/471/471
f 227/227/227 228/228/228 229/229/229
f 443/443/443 444/444/444 445/445/445
f 182/182/182 184/184/184 183/183/183
f 185/185/185 183/183/183 184/184/184
f 186/186/186 184/184/184 193/193/193
f 191/191/191 193/193/193 184/184/184
f 184/184/184 186/186/186 185/185/185
f 193/193/193 191/191/191 190/190/190
f 190/190/190 191/191/191 188/188/188
f 193/193/193 194/194/194 186/186/186
f 194/194/194 193/193/193 192/192/192
f 190/190/190 192/192/192 193/193/193
f 416/416/416 192/192/192 190/190/190
f 190/190/190 415/415/415 416/416/416
f 414/414/414 415/415/415 190/190/190
f 190/190/190 187/187/187 414/414/414
f 188/188/188 187/187/187 190/190/190
f 192/192/192 416/416/416 417/417/417
f 2/2/2 1/1/1 5/5/5
f 1/1/1 98/98/98 4/4/4
f 99/99/99 98/98/98 1/1/1
f 1/1/1 129/129/129 99/99/99
f 129/129/129 1/1/1 3/3/3
f 1/1/1 4/4/4 5/5/5
f 1/1/1 2/2/2 3/3/3
f 2/2/2 5/5/5 279/279/279
f 279/279/279 3/3/3 2/2/2
f 230/230/230 231/231/231 232/232/232
f 446/446/446 447/447/447 448/448/448
f 224/224/224 225/225/225 226/226/226
f 440/440/440 441/441/441 442/442/442
