# Blender 5.1.0
# www.blender.org
mtllib leviathan_park_baby.mtl
o leviathan
v -21.299387 28.305605 -79.397026
v -15.052375 30.439295 -97.073326
v -16.680447 34.659016 -97.136810
v -23.331669 34.634357 -79.395004
v -26.665728 71.302002 70.514359
v -0.000000 82.051498 70.469810
v -0.000000 70.475990 98.950439
v -21.560528 62.976177 98.970039
v -18.296921 38.383862 159.793213
v -13.410821 28.602638 159.788162
v -15.095173 27.875971 143.295502
v -20.075840 39.471359 143.326431
v -21.601572 83.785591 -79.423126
v -19.491411 81.104752 -100.124405
v -0.000000 84.092331 -99.914810
v -0.000000 86.624794 -79.411255
v -41.219330 48.313686 -41.788441
v -41.650810 56.980579 -41.795757
v -42.143337 52.862663 -18.728306
v -0.000000 16.314642 -41.631592
v -32.390457 19.595549 -41.679314
v -31.390266 18.336378 -30.003828
v 0.000000 12.404151 -18.960360
v -32.226284 46.370071 70.504379
v -27.143675 23.517284 70.479248
v -32.981853 22.386072 35.336365
v -37.680679 49.121365 35.339989
v -30.390062 17.174517 -18.787714
v -31.582491 17.383944 -9.199870
v -13.091436 86.969543 51.892960
v -0.000001 93.876541 35.358269
v -0.000000 99.499680 45.632275
v -5.965152 95.356400 56.035198
v -42.116032 29.284096 -18.414879
v -51.094147 26.696413 -17.757381
v -51.436111 23.596443 -26.980549
v -40.648460 25.730032 -28.495968
v -38.612530 18.399393 -19.511892
v -41.098251 19.473076 -7.180639
v -50.815315 18.425270 -18.443243
v -38.612530 18.399393 -19.511892
v -39.564949 20.733906 -30.323925
v -51.491062 20.552244 -29.159643
v -61.578232 22.139675 -6.650156
v -64.483505 24.696733 -15.982622
v -48.597511 23.426748 -8.425132
v -64.906876 22.438309 -26.115049
v -63.886471 18.139992 -16.851604
v -62.069508 19.811611 -4.573336
v -49.402603 20.019804 -6.397226
v -65.047806 20.044638 -28.463684
v -77.286758 22.915773 -13.980099
v -74.060394 21.021530 -0.580334
v -87.662216 20.384819 -1.760748
v -90.349915 21.715445 -10.500782
v -77.774063 21.401478 -26.242821
v -91.106613 20.660564 -19.854977
v -76.439697 17.861515 -15.007351
v -90.569962 17.525263 -11.332920
v -88.778748 18.904264 0.328458
v -74.305099 19.546698 1.538982
v -77.982574 19.538130 -28.770294
v -91.569458 18.897293 -22.532608
v -49.402603 20.019804 -6.397226
v -62.069508 19.811611 -4.573336
v -74.305099 19.546698 1.538982
v -88.778748 18.904264 0.328458
v -97.719406 18.491703 -5.716999
v -96.444565 20.036400 -6.935947
v -97.719406 18.491703 -5.716999
v -41.101536 25.120075 -9.058677
v -42.116032 29.284096 -18.414879
v -40.648460 25.730032 -28.495968
v -36.128502 24.839777 -41.770844
v -61.597507 32.981457 244.432755
v -46.803741 31.565914 222.285889
v -47.384930 34.411610 221.052856
v -39.403805 32.998379 234.214127
v -40.286530 31.829060 232.724960
v -0.000000 52.800014 159.808685
v -0.000000 50.240013 173.145523
v -13.001143 47.290058 173.129990
v -13.979957 49.092461 159.806122
v -17.774012 37.589985 173.099319
v -0.000000 103.218140 56.271847
v -32.850067 76.399841 35.342854
v -0.000000 104.616562 68.534363
v -17.251095 36.437695 196.380386
v -12.118095 29.047205 198.350418
v -12.441274 28.936056 186.118881
v -17.512548 37.013840 186.007629
v -6.702341 32.236965 -109.135178
v -7.908835 34.655224 -110.150307
v -12.764456 28.824913 173.121277
v -0.000000 27.740570 173.130737
v -0.000000 27.116840 159.786453
v -12.118095 29.047205 198.350418
v -12.376455 29.780388 212.727936
v -0.000000 29.734013 211.904922
v 0.000000 28.364313 199.191742
v -34.415394 74.193047 -79.422592
v -37.657906 58.864151 -79.421555
v -31.439589 58.366440 -100.310745
v -28.431969 72.760269 -100.391418
v -34.953182 46.468880 -79.404190
v -27.816549 46.548431 -99.688141
v -23.193666 92.065353 -41.783913
v -23.225578 93.798050 -18.672834
v -37.577396 82.021622 -18.689211
v -37.428284 80.190918 -41.794285
v -22.664400 92.757080 0.103470
v -36.565983 80.064682 0.097412
v -19.206221 89.318695 35.340843
v -0.000000 26.647673 -79.398407
v -0.000000 29.272615 -97.083092
v -41.101536 25.120075 -9.058677
v -41.098251 19.473076 -7.180639
v -39.564949 20.733906 -30.323925
v -41.098251 19.473076 -7.180639
v -0.000001 93.876541 35.358269
v -13.091436 86.969543 51.892960
v -40.938362 53.658512 -64.317810
v -37.024330 46.989880 -64.094711
v -38.612389 46.869030 -71.054825
v -38.402351 41.182652 -59.058174
v -37.840179 41.345783 -68.279938
v -40.688576 47.079433 -57.092213
v -40.488297 58.579609 -64.451477
v -41.219330 48.313686 -41.788441
v -41.650810 56.980579 -41.795757
v -36.581352 76.507187 -64.464256
v -37.428284 80.190918 -41.794285
v -23.193666 92.065353 -41.783913
v -23.178429 86.516541 -64.509682
v -0.000000 89.732071 -64.503914
v -0.000000 95.994904 -41.775238
v -36.128502 24.839777 -41.770844
v -28.605556 36.405499 -79.398392
v -22.501268 37.474133 -98.013779
v -16.269567 72.284988 -125.010025
v -14.622023 79.803947 -120.429565
v -26.582237 43.287861 98.942589
v -17.251095 36.437695 196.380386
v -12.022333 43.987579 199.023056
v -30.315395 42.229141 209.450958
v -31.809959 36.231651 206.767975
v -40.529259 51.427120 0.095513
v -17.013891 58.217239 -125.791992
v -10.468844 37.095779 -115.705032
v -14.101148 45.904968 -121.675934
v -0.000000 36.043064 -117.988373
v -0.000000 45.784321 -126.146774
v -23.764603 34.628719 -79.399414
v -17.493820 35.470337 -97.286819
v -8.321067 35.337284 -113.135071
v -0.000000 34.660229 -114.974930
v -16.680447 34.659016 -97.136810
v -0.000000 31.008200 -96.892082
v -0.000000 29.078608 -79.258713
v -23.331669 34.634357 -79.395004
v -7.908835 34.655224 -110.150307
v -0.000000 34.653286 -111.703239
v 0.000000 46.179947 200.381012
v -0.000000 45.428143 208.815857
v -12.017008 44.276978 211.577362
v -0.000000 58.286594 -132.925110
v -0.000000 72.941589 -131.585678
v -0.000000 40.068161 -106.409515
v -0.000000 34.660229 -114.974930
v -8.321067 35.337284 -113.135071
v -17.493820 35.470337 -97.286819
v -0.000000 38.161194 -76.792725
v -23.764603 34.628719 -79.399414
v -0.000000 82.701904 -123.231445
v -30.866394 32.887589 -71.786690
v -24.841003 31.118410 -72.102982
v -32.390457 19.595549 -41.679314
v -26.834585 23.538860 -63.577148
v -32.872513 28.277523 -63.618698
v -0.000000 21.127880 -63.708984
v -0.000000 16.314642 -41.631592
v -0.000000 15.871896 70.457268
v 0.000000 11.989351 35.480732
v -21.518305 25.489861 98.907433
v 0.000000 20.478052 98.882652
v -37.351452 22.947447 0.132417
v -0.000001 10.888298 0.192652
v -24.841003 31.118410 -72.102982
v -0.000000 31.113329 -70.598915
v -11.917704 31.058590 224.445557
v -11.100836 34.331074 227.989899
v -0.000000 34.965286 222.471313
v -0.000000 31.125408 219.057953
v -28.121429 42.275146 217.157562
v -39.059998 52.635235 -64.263382
v -40.636642 46.920231 -64.079117
v -37.138908 46.820431 -69.826019
v -36.965424 41.800526 -59.926193
v -36.501122 41.347614 -67.542664
v -38.853683 46.994205 -58.294003
v -11.166510 40.033108 224.165497
v -0.000000 41.724407 219.832153
v -0.000000 34.965286 222.471313
v -11.100836 34.331074 227.989899
v -61.597507 32.981457 244.432755
v -41.505234 36.766605 232.259125
v -39.403805 32.998379 234.214127
v -29.433893 30.499977 217.621017
v -28.321157 31.159267 226.711838
v -30.074169 30.120613 209.291946
v -25.721264 36.394218 -82.405060
v -24.767847 33.739208 -83.083008
v -24.358818 33.945671 -84.586960
v -24.903212 36.807140 -85.413010
v -21.834503 36.896065 -84.566193
v -24.903212 36.807140 -85.413010
v -24.358818 33.945671 -84.586960
v -22.824463 33.990124 -84.163559
v -22.652555 36.483154 -81.558304
v -21.834503 36.896065 -84.566193
v -22.824463 33.990124 -84.163559
v -23.233492 33.783665 -82.659607
v -22.652555 36.483154 -81.558304
v -23.233492 33.783665 -82.659607
v -24.767847 33.739208 -83.083008
v -25.721264 36.394218 -82.405060
v -23.202309 31.096828 -83.779709
v -23.202309 31.096828 -83.779709
v -23.202309 31.096828 -83.779709
v -23.202309 31.096828 -83.779709
v -23.947151 36.402431 -88.070770
v -22.993729 33.741432 -88.724792
v -22.584705 33.934364 -90.230576
v -23.129099 36.788288 -91.082291
v -20.060385 36.884830 -90.236328
v -23.129099 36.788288 -91.082291
v -22.584705 33.934364 -90.230576
v -21.050346 33.982628 -89.807587
v -20.878450 36.498966 -87.224808
v -20.060385 36.884830 -90.236328
v -21.050346 33.982628 -89.807587
v -21.459379 33.789700 -88.301849
v -20.878450 36.498966 -87.224808
v -21.459379 33.789700 -88.301849
v -22.993729 33.741432 -88.724792
v -23.947151 36.402431 -88.070770
v -21.428196 31.092907 -89.397720
v -21.428196 31.092907 -89.397720
v -21.428196 31.092907 -89.397720
v -21.428196 31.092907 -89.397720
v -21.883902 36.541267 -94.227386
v -20.917768 33.845566 -94.693863
v -20.378128 33.973984 -96.164963
v -20.804604 36.798088 -97.169586
v -17.818762 36.892422 -96.066055
v -20.804604 36.798088 -97.169586
v -20.378128 33.973984 -96.164963
v -18.885208 34.021172 -95.613174
v -18.898060 36.635620 -93.123886
v -17.818762 36.892422 -96.066055
v -18.885208 34.021172 -95.613174
v -19.424854 33.892742 -94.142075
v -18.898060 36.635620 -93.123886
v -19.424854 33.892742 -94.142075
v -20.917768 33.845566 -94.693863
v -21.883902 36.541267 -94.227386
v -19.340061 31.154507 -95.126694
v -19.340061 31.154507 -95.126694
v -19.340061 31.154507 -95.126694
v -19.340061 31.154507 -95.126694
v -19.517397 37.284904 -99.949066
v -18.661177 34.516197 -100.086227
v -17.981352 34.485512 -101.503510
v -18.157749 37.223549 -102.783646
v -15.286309 37.279259 -101.407486
v -18.157749 37.223549 -102.783646
v -17.981352 34.485512 -101.503510
v -16.545635 34.513363 -100.815445
v -16.645960 37.340618 -98.572952
v -15.286309 37.279259 -101.407486
v -16.545635 34.513363 -100.815445
v -17.225458 34.544048 -99.398148
v -16.645960 37.340618 -98.572952
v -17.225458 34.544048 -99.398148
v -18.661177 34.516197 -100.086227
v -19.517397 37.284904 -99.949066
v -17.199778 31.726797 -100.130997
v -17.199778 31.726797 -100.130997
v -17.199778 31.726797 -100.130997
v -17.199778 31.726797 -100.130997
v -6.261934 36.474472 -115.171021
v -5.521523 33.764931 -114.444366
v -4.005620 33.749523 -114.860962
v -3.230130 36.443615 -116.004333
v -2.386573 36.713688 -112.945297
v -3.230130 36.443615 -116.004333
v -4.005620 33.749523 -114.860962
v -3.583840 33.884563 -113.331528
v -5.418380 36.744545 -112.111969
v -2.386573 36.713688 -112.945297
v -3.583840 33.884563 -113.331528
v -5.099747 33.899982 -112.914795
v -5.418380 36.744545 -112.111969
v -5.099747 33.899982 -112.914795
v -5.521523 33.764931 -114.444366
v -6.261934 36.474472 -115.171021
v -4.453316 31.075970 -113.200638
v -4.453316 31.075970 -113.200638
v -4.453316 31.075970 -113.200638
v -4.453316 31.075970 -113.200638
v -0.000000 31.459545 -110.177200
v -0.000000 34.653286 -111.703239
v -97.148102 20.212570 -12.889591
v -99.988464 18.484114 -14.043873
v -99.988464 18.484114 -14.043873
v -12.332788 36.895725 -110.920273
v -11.474137 34.127022 -110.799255
v -10.407155 34.096333 -111.953568
v -10.198822 36.834377 -113.228897
v -7.859841 36.890083 -111.068314
v -10.198822 36.834377 -113.228897
v -10.407155 34.096333 -111.953568
v -9.237663 34.124199 -110.873245
v -9.993811 36.951435 -108.759735
v -7.859841 36.890083 -111.068314
v -9.237663 34.124199 -110.873245
v -10.304650 34.154865 -109.718994
v -9.993811 36.951435 -108.759735
v -10.304650 34.154865 -109.718994
v -11.474137 34.127022 -110.799255
v -12.332788 36.895725 -110.920273
v -10.064335 31.337635 -110.411774
v -10.064335 31.337635 -110.411774
v -10.064335 31.337635 -110.411774
v -10.064335 31.337635 -110.411774
v -15.877120 37.284904 -105.250961
v -15.012885 34.516197 -105.321869
v -14.226056 34.485512 -106.682617
v -14.303459 37.223549 -107.972519
v -11.546385 37.279251 -106.379639
v -14.303459 37.223549 -107.972519
v -14.226056 34.485512 -106.682617
v -12.847520 34.513363 -105.886185
v -13.120045 37.340614 -103.658020
v -11.546385 37.279251 -106.379639
v -12.847520 34.513363 -105.886185
v -13.634350 34.544048 -104.525375
v -13.120045 37.340614 -103.658020
v -13.634350 34.544048 -104.525375
v -15.012885 34.516197 -105.321869
v -15.877120 37.284904 -105.250961
v -13.552373 31.726807 -105.254089
v -13.552373 31.726807 -105.254089
v -13.552373 31.726807 -105.254089
v -13.552373 31.726807 -105.254089
v 0.000000 91.879578 67.429283
v -0.000001 98.090034 -18.672068
v -0.000001 97.241402 0.105056
v -17.346903 56.093815 126.027275
v 0.000000 61.586231 126.046349
v -0.000000 56.784359 143.396896
v -15.663429 52.184376 143.380508
v -21.854765 41.044338 125.988045
v -16.779530 27.149309 125.953300
v 0.000000 24.331051 125.934227
v -0.000000 25.723944 143.281418
v -0.000000 95.994904 -41.775238
v -31.809959 36.231651 206.767975
v -27.901434 33.892521 229.609009
v -47.384930 34.411610 221.052856
v -46.134228 38.192486 222.761765
v -27.901434 33.892521 229.609009
v -26.296396 38.993237 226.543182
v -17.251095 36.437695 196.380386
v -0.000000 82.051498 70.469810
v 0.000000 48.209984 186.233627
v -12.511737 45.638821 186.156891
v 0.000000 28.052435 186.166367
v 0.000000 46.179947 200.381012
v -12.022333 43.987579 199.023056
v 0.000000 28.364313 199.191742
v 21.299387 28.305605 -79.397026
v 23.331669 34.634357 -79.395004
v 16.680447 34.659016 -97.136810
v 15.052375 30.439295 -97.073326
v 26.665728 71.302002 70.514359
v 21.560528 62.976177 98.970039
v 18.296921 38.383862 159.793213
v 20.075840 39.471359 143.326431
v 15.095173 27.875971 143.295502
v 13.410821 28.602638 159.788162
v 21.601572 83.785591 -79.423126
v 19.491411 81.104752 -100.124405
v 41.219330 48.313686 -41.788441
v 42.143337 52.862663 -18.728306
v 41.650810 56.980579 -41.795757
v 31.390266 18.336378 -30.003828
v 32.390457 19.595549 -41.679314
v 32.226284 46.370071 70.504379
v 37.680679 49.121365 35.339989
v 32.981853 22.386072 35.336365
v 27.143675 23.517284 70.479248
v 30.390062 17.174515 -18.787714
v 31.582489 17.383944 -9.199870
v 13.091436 86.969543 51.892960
v 5.965154 95.356400 56.035198
v 42.116032 29.284096 -18.414875
v 40.648460 25.730032 -28.495966
v 51.436115 23.596441 -26.980553
v 51.094151 26.696417 -17.757380
v 41.098251 19.473076 -7.180636
v 38.612530 18.399393 -19.511889
v 50.815319 18.425270 -18.443237
v 51.491066 20.552244 -29.159647
v 39.564949 20.733906 -30.323927
v 38.612530 18.399393 -19.511889
v 61.578236 22.139675 -6.650162
v 48.597515 23.426746 -8.425130
v 64.483513 24.696735 -15.982627
v 64.906868 22.438311 -26.115053
v 63.886475 18.139992 -16.851604
v 49.402607 20.019802 -6.397224
v 62.069511 19.811611 -4.573341
v 65.047813 20.044641 -28.463688
v 77.286751 22.915775 -13.980105
v 90.349915 21.715446 -10.500789
v 87.662209 20.384821 -1.760756
v 74.060387 21.021532 -0.580344
v 77.774063 21.401480 -26.242825
v 91.106606 20.660566 -19.854984
v 76.439690 17.861517 -15.007358
v 74.305092 19.546700 1.538973
v 88.778740 18.904266 0.328449
v 90.569962 17.525265 -11.332931
v 77.982567 19.538132 -28.770298
v 91.569450 18.897295 -22.532616
v 49.402607 20.019802 -6.397224
v 62.069511 19.811611 -4.573341
v 74.305092 19.546700 1.538973
v 88.778740 18.904266 0.328449
v 97.719414 18.491705 -5.717008
v 96.444565 20.036402 -6.935956
v 97.719414 18.491705 -5.717008
v 41.101536 25.120075 -9.058675
v 42.116032 29.284096 -18.414875
v 36.128502 24.839777 -41.770844
v 40.648460 25.730032 -28.495966
v 61.597504 32.981445 244.432770
v 47.384926 34.411598 221.052856
v 46.803738 31.565905 222.285904
v 40.286526 31.829050 232.724976
v 39.403801 32.998367 234.214142
v 13.979957 49.092461 159.806122
v 13.001143 47.290058 173.129990
v 17.774012 37.589985 173.099319
v 32.850067 76.399841 35.342854
v 17.251093 36.437691 196.380386
v 17.512548 37.013840 186.007629
v 12.441274 28.936056 186.118881
v 12.118093 29.047203 198.350418
v 7.908836 34.655224 -110.150307
v 6.702343 32.236965 -109.135178
v 12.764456 28.824913 173.121277
v 12.118093 29.047203 198.350418
v 12.376451 29.780382 212.727936
v 34.415394 74.193047 -79.422592
v 28.431969 72.760269 -100.391418
v 31.439589 58.366440 -100.310745
v 37.657906 58.864151 -79.421555
v 27.816549 46.548431 -99.688141
v 34.953182 46.468880 -79.404190
v 23.193666 92.065353 -41.783913
v 37.428284 80.190918 -41.794285
v 37.577393 82.021622 -18.689211
v 23.225576 93.798050 -18.672834
v 36.565979 80.064682 0.097411
v 22.664398 92.757080 0.103470
v 19.206221 89.318695 35.340843
v 41.101536 25.120075 -9.058675
v 41.098251 19.473076 -7.180636
v 39.564949 20.733906 -30.323927
v 41.098251 19.473076 -7.180636
v 13.091436 86.969543 51.892960
v 40.938362 53.658512 -64.317810
v 38.612389 46.869030 -71.054825
v 37.024330 46.989880 -64.094711
v 38.402351 41.182652 -59.058174
v 37.840179 41.345783 -68.279938
v 40.688576 47.079433 -57.092213
v 40.488297 58.579609 -64.451477
v 41.219330 48.313686 -41.788441
v 41.650810 56.980579 -41.795757
v 37.428284 80.190918 -41.794285
v 36.581352 76.507187 -64.464256
v 23.193666 92.065353 -41.783913
v 23.178429 86.516541 -64.509682
v 36.128502 24.839777 -41.770844
v 28.605556 36.405499 -79.398392
v 22.501268 37.474133 -98.013779
v 14.622021 79.803947 -120.429565
v 16.269567 72.284988 -125.010025
v 26.582237 43.287861 98.942589
v 17.251093 36.437691 196.380386
v 31.809952 36.231640 206.767990
v 30.315390 42.229130 209.450974
v 12.022331 43.987572 199.023056
v 40.529259 51.427120 0.095511
v 17.013891 58.217239 -125.791992
v 14.101148 45.904968 -121.675934
v 10.468844 37.095779 -115.705032
v 17.493820 35.470337 -97.286819
v 23.764603 34.628719 -79.399414
v 8.321067 35.337284 -113.135071
v 16.680447 34.659016 -97.136810
v 23.331669 34.634357 -79.395004
v 7.908836 34.655224 -110.150307
v 12.017004 44.276970 211.577362
v 17.493820 35.470337 -97.286819
v 8.321067 35.337284 -113.135071
v 23.764603 34.628719 -79.399414
v 24.841003 31.118410 -72.102982
v 30.866394 32.887589 -71.786690
v 32.390457 19.595549 -41.679314
v 32.872513 28.277523 -63.618698
v 26.834585 23.538860 -63.577148
v 21.518305 25.489861 98.907433
v 37.351452 22.947445 0.132415
v 24.841003 31.118410 -72.102982
v 11.917702 31.058588 224.445557
v 11.100833 34.331066 227.989899
v 28.121422 42.275131 217.157578
v 39.059998 52.635235 -64.263382
v 37.138908 46.820431 -69.826019
v 40.636642 46.920231 -64.079117
v 36.965424 41.800526 -59.926193
v 36.501122 41.347614 -67.542664
v 38.853683 46.994205 -58.294003
v 11.166505 40.033100 224.165497
v 11.100833 34.331066 227.989899
v 61.597504 32.981445 244.432770
v 39.403801 32.998367 234.214142
v 41.505230 36.766594 232.259140
v 28.321152 31.159258 226.711853
v 29.433884 30.499968 217.621033
v 30.074160 30.120604 209.291962
v 25.721264 36.394218 -82.405060
v 24.903212 36.807140 -85.413010
v 24.358818 33.945671 -84.586960
v 24.767847 33.739208 -83.083008
v 21.834503 36.896065 -84.566193
v 22.824463 33.990124 -84.163559
v 24.358818 33.945671 -84.586960
v 24.903212 36.807140 -85.413010
v 22.652555 36.483154 -81.558304
v 23.233492 33.783665 -82.659607
v 22.824463 33.990124 -84.163559
v 21.834503 36.896065 -84.566193
v 22.652555 36.483154 -81.558304
v 25.721264 36.394218 -82.405060
v 24.767847 33.739208 -83.083008
v 23.233492 33.783665 -82.659607
v 23.202309 31.096828 -83.779709
v 23.202309 31.096828 -83.779709
v 23.202309 31.096828 -83.779709
v 23.202309 31.096828 -83.779709
v 23.947151 36.402431 -88.070770
v 23.129099 36.788288 -91.082291
v 22.584705 33.934364 -90.230576
v 22.993729 33.741432 -88.724792
v 20.060385 36.884830 -90.236328
v 21.050346 33.982628 -89.807587
v 22.584705 33.934364 -90.230576
v 23.129099 36.788288 -91.082291
v 20.878450 36.498966 -87.224808
v 21.459379 33.789700 -88.301849
v 21.050346 33.982628 -89.807587
v 20.060385 36.884830 -90.236328
v 20.878450 36.498966 -87.224808
v 23.947151 36.402431 -88.070770
v 22.993729 33.741432 -88.724792
v 21.459379 33.789700 -88.301849
v 21.428196 31.092907 -89.397720
v 21.428196 31.092907 -89.397720
v 21.428196 31.092907 -89.397720
v 21.428196 31.092907 -89.397720
v 21.883902 36.541267 -94.227386
v 20.804604 36.798088 -97.169586
v 20.378128 33.973984 -96.164963
v 20.917768 33.845566 -94.693863
v 17.818762 36.892422 -96.066055
v 18.885208 34.021172 -95.613174
v 20.378128 33.973984 -96.164963
v 20.804604 36.798088 -97.169586
v 18.898060 36.635620 -93.123886
v 19.424854 33.892742 -94.142075
v 18.885208 34.021172 -95.613174
v 17.818762 36.892422 -96.066055
v 18.898060 36.635620 -93.123886
v 21.883902 36.541267 -94.227386
v 20.917768 33.845566 -94.693863
v 19.424854 33.892742 -94.142075
v 19.340061 31.154507 -95.126694
v 19.340061 31.154507 -95.126694
v 19.340061 31.154507 -95.126694
v 19.340061 31.154507 -95.126694
v 19.517397 37.284904 -99.949066
v 18.157749 37.223549 -102.783646
v 17.981352 34.485512 -101.503510
v 18.661177 34.516197 -100.086227
v 15.286309 37.279259 -101.407486
v 16.545635 34.513363 -100.815445
v 17.981352 34.485512 -101.503510
v 18.157749 37.223549 -102.783646
v 16.645960 37.340618 -98.572952
v 17.225458 34.544048 -99.398148
v 16.545635 34.513363 -100.815445
v 15.286309 37.279259 -101.407486
v 16.645960 37.340618 -98.572952
v 19.517397 37.284904 -99.949066
v 18.661177 34.516197 -100.086227
v 17.225458 34.544048 -99.398148
v 17.199778 31.726797 -100.130997
v 17.199778 31.726797 -100.130997
v 17.199778 31.726797 -100.130997
v 17.199778 31.726797 -100.130997
v 6.261935 36.474472 -115.171021
v 3.230131 36.443615 -116.004333
v 4.005620 33.749523 -114.860962
v 5.521523 33.764931 -114.444366
v 2.386574 36.713688 -112.945297
v 3.583840 33.884563 -113.331528
v 4.005620 33.749523 -114.860962
v 3.230131 36.443615 -116.004333
v 5.418381 36.744545 -112.111969
v 5.099747 33.899982 -112.914795
v 3.583840 33.884563 -113.331528
v 2.386574 36.713688 -112.945297
v 5.418381 36.744545 -112.111969
v 6.261935 36.474472 -115.171021
v 5.521523 33.764931 -114.444366
v 5.099747 33.899982 -112.914795
v 4.453318 31.075970 -113.200638
v 4.453318 31.075970 -113.200638
v 4.453318 31.075970 -113.200638
v 4.453318 31.075970 -113.200638
v 97.148109 20.212572 -12.889602
v 99.988464 18.484116 -14.043883
v 99.988464 18.484116 -14.043883
v 12.332788 36.895725 -110.920273
v 10.198822 36.834377 -113.228897
v 10.407155 34.096333 -111.953568
v 11.474137 34.127022 -110.799255
v 7.859841 36.890083 -111.068314
v 9.237663 34.124199 -110.873245
v 10.407155 34.096333 -111.953568
v 10.198822 36.834377 -113.228897
v 9.993811 36.951435 -108.759735
v 10.304650 34.154865 -109.718994
v 9.237663 34.124199 -110.873245
v 7.859841 36.890083 -111.068314
v 9.993811 36.951435 -108.759735
v 12.332788 36.895725 -110.920273
v 11.474137 34.127022 -110.799255
v 10.304650 34.154865 -109.718994
v 10.064335 31.337635 -110.411774
v 10.064335 31.337635 -110.411774
v 10.064335 31.337635 -110.411774
v 10.064335 31.337635 -110.411774
v 15.877120 37.284904 -105.250961
v 14.303459 37.223549 -107.972519
v 14.226056 34.485512 -106.682617
v 15.012885 34.516197 -105.321869
v 11.546385 37.279251 -106.379639
v 12.847520 34.513363 -105.886185
v 14.226056 34.485512 -106.682617
v 14.303459 37.223549 -107.972519
v 13.120045 37.340614 -103.658020
v 13.634350 34.544048 -104.525375
v 12.847520 34.513363 -105.886185
v 11.546385 37.279251 -106.379639
v 13.120045 37.340614 -103.658020
v 15.877120 37.284904 -105.250961
v 15.012885 34.516197 -105.321869
v 13.634350 34.544048 -104.525375
v 13.552373 31.726807 -105.254089
v 13.552373 31.726807 -105.254089
v 13.552373 31.726807 -105.254089
v 13.552373 31.726807 -105.254089
v 17.346903 56.093815 126.027275
v 15.663429 52.184376 143.380508
v 21.854765 41.044338 125.988045
v 16.779530 27.149309 125.953300
v 31.809952 36.231640 206.767990
v 27.901428 33.892509 229.609024
v 47.384926 34.411598 221.052856
v 46.134224 38.192478 222.761780
v 27.901428 33.892509 229.609024
v 26.296391 38.993229 226.543198
v 17.251093 36.437691 196.380386
v 12.511737 45.638821 186.156891
v 12.022331 43.987572 199.023056
vn 0.5963 0.7208 0.3534
vn 0.5492 0.7523 0.3638
vn 0.8416 0.3240 0.4321
vn 0.8983 0.2883 0.3316
vn 0.7473 -0.5885 -0.3084
vn -0.0000 -0.9061 -0.4230
vn -0.0000 -0.9423 -0.3348
vn 0.7103 -0.6397 -0.2938
vn 0.9956 0.0276 -0.0893
vn 0.5654 0.8222 -0.0655
vn 0.6033 0.7923 -0.0910
vn 0.9929 0.0285 -0.1154
vn 0.3748 -0.9094 0.1805
vn 0.4279 -0.8871 0.1733
vn -0.0000 -0.9941 0.1088
vn -0.0000 -0.9865 0.1640
vn 0.9940 0.0749 0.0796
vn 0.9974 -0.0701 0.0162
vn 0.9977 -0.0602 -0.0299
vn -0.0000 0.9881 0.1540
vn 0.3954 0.8906 0.2247
vn 0.1858 0.9761 0.1129
vn -0.0000 0.9941 0.1080
vn 0.9830 -0.0092 -0.1832
vn 0.7112 0.6855 -0.1561
vn 0.7457 0.6584 -0.1022
vn 0.9925 -0.0053 -0.1219
vn 0.1499 0.9878 0.0418
vn 0.2024 0.9644 -0.1701
vn 0.8130 -0.5551 -0.1759
vn -0.0000 -0.8772 0.4801
vn -0.0000 -0.9238 0.3830
vn 0.8551 -0.4892 -0.1720
vn 0.2478 -0.9687 -0.0127
vn 0.1881 -0.9817 -0.0285
vn 0.1808 -0.7883 0.5881
vn 0.1856 -0.6704 0.7184
vn 0.1848 0.9813 0.0539
vn 0.5552 0.7149 -0.4250
vn -0.0063 0.9992 0.0391
vn 0.0088 0.9970 0.0764
vn 0.0781 0.5639 0.8222
vn 0.1194 0.3846 0.9153
vn -0.0709 -0.8438 -0.5319
vn 0.1078 -0.9937 -0.0303
vn 0.0271 -0.7332 -0.6795
vn 0.0888 -0.8664 0.4913
vn -0.0256 0.9996 0.0130
vn -0.0467 0.9919 -0.1178
vn 0.0079 0.9911 -0.1328
vn 0.0271 0.3059 0.9517
vn 0.1115 -0.9936 -0.0184
vn -0.0494 -0.9028 -0.4273
vn 0.1491 -0.9188 -0.3656
vn 0.1355 -0.9896 -0.0477
vn 0.1478 -0.9041 0.4009
vn 0.3061 -0.9032 0.3009
vn -0.0228 0.9997 0.0111
vn 0.0238 0.9997 -0.0055
vn -0.0181 0.9939 -0.1090
vn -0.0512 0.9942 -0.0947
vn 0.1893 0.2245 0.9559
vn 0.5435 0.2326 0.8065
vn -0.0903 -0.5065 -0.8575
vn -0.2247 -0.6320 -0.7417
vn -0.0571 -0.8172 -0.5736
vn 0.2198 -0.8475 -0.4831
vn 0.5226 -0.7603 -0.3858
vn 0.4199 -0.8631 -0.2805
vn 0.0725 0.9942 -0.0789
vn 0.9613 0.0039 -0.2755
vn 0.9999 0.0013 0.0142
vn 0.9723 0.0933 0.2142
vn 0.8672 0.3425 0.3614
vn 0.1389 0.9902 -0.0135
vn 0.4649 0.8122 0.3524
vn 0.6746 0.4052 0.6171
vn -0.2335 0.8174 -0.5266
vn -0.0998 0.9520 -0.2894
vn -0.0000 -0.9803 -0.1977
vn -0.0000 -0.9860 -0.1666
vn 0.6239 -0.7704 -0.1313
vn 0.6593 -0.7323 -0.1707
vn 0.9988 0.0204 -0.0451
vn -0.0000 -0.9777 0.2101
vn 0.8691 -0.4639 -0.1717
vn -0.0000 -0.6847 -0.7288
vn 0.9983 0.0203 -0.0544
vn 0.4488 0.8933 -0.0242
vn 0.5122 0.8587 -0.0172
vn 0.9995 0.0119 -0.0278
vn 0.3215 0.7570 0.5688
vn 0.4800 0.5018 0.7196
vn 0.5352 0.8443 -0.0290
vn -0.0000 0.9995 -0.0319
vn -0.0000 0.9982 -0.0592
vn 0.1907 0.9606 0.2022
vn 0.0101 0.9969 -0.0774
vn -0.0000 0.9938 -0.1115
vn -0.0000 0.9942 -0.1071
vn 0.8323 -0.5061 0.2262
vn 0.9674 -0.0146 0.2527
vn 0.9212 0.0513 0.3857
vn 0.8352 -0.4471 0.3202
vn 0.8807 0.3362 0.3335
vn 0.8274 0.4067 0.3872
vn 0.4202 -0.9047 0.0704
vn 0.4237 -0.9058 -0.0019
vn 0.8595 -0.5103 -0.0301
vn 0.8702 -0.4906 0.0445
vn 0.4512 -0.8872 -0.0962
vn 0.8763 -0.4681 -0.1138
vn 0.4620 -0.8681 -0.1816
vn -0.0000 0.9704 0.2415
vn -0.0000 0.9859 0.1672
vn 0.0960 -0.6924 -0.7151
vn 0.0242 0.9933 -0.1133
vn 0.6607 0.7002 0.2705
vn -0.0418 -0.3712 -0.9276
vn -0.0000 -0.9900 -0.1408
vn 0.4009 -0.8552 -0.3286
vn 0.9815 0.1277 0.1428
vn 0.9666 0.2375 0.0963
vn 0.9670 0.1418 0.2118
vn 0.9600 0.2345 0.1528
vn 0.9452 0.2667 0.1885
vn 0.9568 0.2462 0.1546
vn 0.9826 -0.1497 0.1103
vn 0.9886 0.1450 0.0403
vn 0.9963 -0.0763 0.0394
vn 0.8410 -0.5178 0.1570
vn 0.8452 -0.5217 0.1163
vn 0.3791 -0.8996 0.2169
vn 0.3802 -0.9002 0.2125
vn -0.0000 -0.9740 0.2264
vn -0.0000 -0.9641 0.2656
vn 0.8850 0.4329 0.1714
vn 0.6027 0.7087 0.3668
vn 0.5989 0.7434 0.2978
vn 0.6235 -0.3084 0.7185
vn 0.4734 -0.7567 0.4508
vn 0.9809 0.0067 -0.1945
vn 0.4652 -0.5377 0.7032
vn 0.2492 -0.9383 0.2396
vn 0.4175 -0.8243 0.3824
vn 0.5807 -0.4513 0.6776
vn 0.9931 -0.0322 -0.1126
vn 0.6509 0.1440 0.7454
vn 0.4150 0.7451 0.5222
vn 0.5437 0.4973 0.6761
vn -0.0000 0.7832 0.6218
vn -0.0000 0.5508 0.8346
vn 0.3290 0.8961 0.2979
vn 0.3425 0.9222 0.1795
vn 0.2891 0.8903 0.3518
vn -0.0000 0.9089 0.4171
vn -0.2181 -0.9696 -0.1112
vn -0.0000 -0.9898 -0.1424
vn -0.0000 -0.9979 0.0646
vn -0.1153 -0.9696 -0.2158
vn -0.1258 -0.9732 -0.1927
vn -0.0000 -0.9710 -0.2390
vn -0.0000 -0.9961 -0.0888
vn -0.0000 -0.9877 -0.1561
vn 0.0623 -0.9870 -0.1484
vn -0.0000 0.1733 0.9849
vn -0.0000 -0.3709 0.9287
vn -0.0000 0.9778 -0.2095
vn -0.0000 0.8456 -0.5339
vn -0.2310 0.9070 -0.3521
vn -0.2237 0.9745 -0.0167
vn -0.0000 0.9177 0.3972
vn -0.1676 0.9592 0.2276
vn -0.0000 -0.8801 0.4748
vn 0.5746 0.6322 0.5197
vn 0.6380 0.5640 0.5242
vn 0.4874 0.8421 0.2310
vn 0.3599 0.8608 0.3599
vn 0.7467 0.5730 0.3378
vn -0.0000 0.9632 0.2689
vn -0.0000 0.9781 0.2079
vn -0.0000 0.9932 -0.1164
vn -0.0000 0.9976 -0.0685
vn 0.6764 0.7159 -0.1731
vn -0.0000 0.9904 -0.1384
vn 0.7487 0.5871 -0.3078
vn -0.0000 0.9998 -0.0180
vn -0.8268 -0.0889 0.5554
vn -0.0000 -0.3500 0.9367
vn -0.1263 0.8971 -0.4233
vn -0.2113 0.7419 -0.6363
vn -0.0000 0.6893 -0.7245
vn -0.0000 0.9051 -0.4252
vn 0.1075 -0.9757 -0.1911
vn 0.9541 -0.2583 0.1515
vn 0.9894 0.1042 0.1010
vn 0.8498 0.1111 0.5153
vn 0.8503 0.5124 -0.1200
vn 0.8457 0.4661 0.2599
vn 0.9416 0.1672 -0.2923
vn -0.1256 -0.7653 -0.6313
vn -0.0000 -0.7909 -0.6120
vn -0.0000 -0.4264 -0.9045
vn -0.2068 -0.5392 -0.8164
vn 0.1422 -0.9589 -0.2457
vn -0.1178 -0.8527 -0.5090
vn -0.3015 -0.5661 -0.7672
vn 0.0293 0.9974 -0.0653
vn -0.0772 0.9325 -0.3529
vn 0.3437 0.8500 0.3993
vn 0.9227 0.2582 0.2864
vn 0.8971 0.3336 0.2898
vn 0.8989 0.3289 0.2896
vn -0.2654 0.2205 0.9386
vn -0.2661 0.1971 0.9436
vn -0.2662 0.1945 0.9441
vn -0.9333 0.2883 -0.2143
vn -0.9502 0.2108 -0.2295
vn -0.9511 0.2055 -0.2305
vn 0.2433 0.3211 -0.9153
vn 0.2403 0.3452 -0.9072
vn 0.2406 0.3428 -0.9081
vn 0.8547 0.4296 0.2914
vn -0.2669 0.1609 0.9502
vn -0.9639 0.0928 -0.2494
vn 0.2363 0.3762 -0.8959
vn 0.9227 0.2608 0.2840
vn 0.8971 0.3362 0.2868
vn 0.8989 0.3315 0.2866
vn -0.2654 0.2289 0.9366
vn -0.2661 0.2055 0.9418
vn -0.2662 0.2030 0.9423
vn -0.9333 0.2863 -0.2168
vn -0.9502 0.2088 -0.2314
vn -0.9511 0.2034 -0.2323
vn 0.2433 0.3128 -0.9181
vn 0.2403 0.3370 -0.9103
vn 0.2406 0.3347 -0.9111
vn 0.8547 0.4322 0.2875
vn -0.2669 0.1695 0.9487
vn -0.9639 0.0905 -0.2503
vn 0.2363 0.3681 -0.8992
vn 0.8987 0.2611 0.3525
vn 0.8741 0.3368 0.3500
vn 0.8758 0.3321 0.3503
vn -0.3414 0.2688 0.9007
vn -0.3429 0.2457 0.9067
vn -0.3430 0.2432 0.9073
vn -0.9068 0.2883 -0.3075
vn -0.9236 0.2104 -0.3204
vn -0.9245 0.2050 -0.3213
vn 0.3258 0.2734 -0.9050
vn 0.3226 0.2979 -0.8984
vn 0.3230 0.2955 -0.8991
vn 0.8332 0.4333 0.3435
vn -0.3448 0.2100 0.9149
vn -0.9374 0.0917 -0.3359
vn 0.3181 0.3295 -0.8889
vn 0.8751 0.2501 0.4143
vn 0.8550 0.3264 0.4031
vn 0.8564 0.3216 0.4038
vn -0.4081 0.3649 0.8368
vn -0.4114 0.3426 0.8446
vn -0.4118 0.3402 0.8454
vn -0.8573 0.3009 -0.4177
vn -0.8770 0.2230 -0.4255
vn -0.8782 0.2176 -0.4259
vn 0.4228 0.1748 -0.8892
vn 0.4203 0.1999 -0.8851
vn 0.4206 0.1975 -0.8855
vn 0.8203 0.4236 0.3843
vn -0.4160 0.3078 0.8557
vn -0.8959 0.1042 -0.4320
vn 0.4167 0.2324 -0.8788
vn 0.2545 0.3148 0.9144
vn 0.2478 0.3893 0.8871
vn 0.2482 0.3847 0.8890
vn -0.9089 0.3547 0.2193
vn -0.9163 0.3323 0.2234
vn -0.9171 0.3299 0.2238
vn -0.2553 0.2360 -0.9376
vn -0.2603 0.1569 -0.9527
vn -0.2606 0.1514 -0.9535
vn 0.9433 0.1837 -0.2763
vn 0.9379 0.2087 -0.2771
vn 0.9385 0.2062 -0.2770
vn 0.2365 0.4837 0.8427
vn -0.9267 0.2976 0.2293
vn -0.2645 0.0370 -0.9637
vn 0.9300 0.2410 -0.2777
vn -0.0000 0.7923 0.6101
vn -0.0000 0.4311 0.9023
vn 0.3868 -0.9180 0.0881
vn 0.0886 0.9951 0.0441
vn 0.4905 -0.8607 0.1365
vn 0.7143 0.2501 0.6536
vn 0.6984 0.3264 0.6369
vn 0.6996 0.3216 0.6381
vn -0.6364 0.3649 0.6795
vn -0.6364 0.3649 0.6796
vn -0.6419 0.3426 0.6860
vn -0.6424 0.3402 0.6867
vn -0.6963 0.3009 -0.6516
vn -0.7129 0.2230 -0.6649
vn -0.7138 0.2176 -0.6656
vn 0.6658 0.1748 -0.7253
vn 0.6623 0.1999 -0.7221
vn 0.6626 0.1975 -0.7224
vn 0.6708 0.4236 0.6088
vn -0.6495 0.3078 0.6952
vn -0.7289 0.1042 -0.6766
vn 0.6570 0.2324 -0.7172
vn 0.8406 0.2501 0.4804
vn 0.8215 0.3264 0.4676
vn 0.8228 0.3216 0.4685
vn -0.4713 0.3649 0.8029
vn -0.4752 0.3426 0.8105
vn -0.4756 0.3402 0.8113
vn -0.8226 0.3009 -0.4824
vn -0.8417 0.2230 -0.4917
vn -0.8428 0.2176 -0.4922
vn 0.4899 0.1748 -0.8541
vn 0.4872 0.1999 -0.8501
vn 0.4874 0.1975 -0.8505
vn 0.7883 0.4236 0.4463
vn -0.4806 0.3078 0.8211
vn -0.8600 0.1042 -0.4996
vn 0.4831 0.2324 -0.8442
vn -0.0000 -0.1579 -0.9874
vn -0.0000 -0.9998 0.0191
vn -0.0000 -0.9970 -0.0770
vn 0.6932 -0.6763 -0.2492
vn -0.0000 -0.9588 -0.2841
vn -0.0000 -0.9691 -0.2466
vn 0.6823 -0.7003 -0.2100
vn 0.9884 0.0182 -0.1505
vn 0.6283 0.7673 -0.1284
vn -0.0000 0.9945 -0.1051
vn -0.0000 0.9972 -0.0749
vn -0.0000 -0.9966 0.0827
vn 0.5433 0.4464 0.7110
vn -0.2013 0.7278 -0.6556
vn 0.6988 -0.4735 0.5361
vn 0.4929 -0.8399 0.2273
vn -0.1914 -0.4738 -0.8596
vn -0.0381 -0.7875 -0.6151
vn 0.4772 0.5035 0.7203
vn -0.0000 -0.3941 -0.9190
vn -0.0000 -0.9893 -0.1459
vn 0.5861 -0.8025 -0.1116
vn -0.0000 0.9998 -0.0207
vn -0.0000 -0.9899 -0.1420
vn 0.5217 -0.8431 -0.1304
vn -0.0000 0.9997 -0.0239
vn -0.5963 0.7208 0.3534
vn -0.8983 0.2883 0.3316
vn -0.8416 0.3240 0.4321
vn -0.5492 0.7523 0.3638
vn -0.7473 -0.5885 -0.3084
vn -0.7103 -0.6397 -0.2938
vn -0.9956 0.0276 -0.0893
vn -0.9929 0.0285 -0.1154
vn -0.6033 0.7923 -0.0910
vn -0.5654 0.8222 -0.0655
vn -0.3748 -0.9094 0.1805
vn -0.4279 -0.8871 0.1733
vn -0.9940 0.0749 0.0796
vn -0.9977 -0.0602 -0.0299
vn -0.9974 -0.0701 0.0162
vn -0.1858 0.9761 0.1129
vn -0.3954 0.8906 0.2247
vn -0.9830 -0.0092 -0.1832
vn -0.9925 -0.0053 -0.1219
vn -0.7457 0.6584 -0.1022
vn -0.7112 0.6855 -0.1561
vn -0.1499 0.9878 0.0418
vn -0.2024 0.9644 -0.1701
vn -0.8130 -0.5551 -0.1759
vn -0.8551 -0.4892 -0.1720
vn -0.2478 -0.9687 -0.0127
vn -0.1856 -0.6704 0.7184
vn -0.1808 -0.7883 0.5881
vn -0.1881 -0.9817 -0.0285
vn -0.5552 0.7149 -0.4250
vn -0.1848 0.9813 0.0539
vn 0.0063 0.9992 0.0391
vn -0.1194 0.3846 0.9153
vn -0.0781 0.5639 0.8222
vn -0.0088 0.9970 0.0764
vn 0.0709 -0.8438 -0.5319
vn -0.0271 -0.7332 -0.6795
vn -0.1078 -0.9937 -0.0303
vn -0.0888 -0.8664 0.4913
vn 0.0256 0.9996 0.0130
vn -0.0079 0.9911 -0.1328
vn 0.0467 0.9919 -0.1178
vn -0.0271 0.3059 0.9517
vn -0.1115 -0.9936 -0.0184
vn -0.1355 -0.9896 -0.0477
vn -0.1491 -0.9188 -0.3656
vn 0.0494 -0.9028 -0.4273
vn -0.1478 -0.9041 0.4009
vn -0.3061 -0.9032 0.3009
vn 0.0228 0.9997 0.0111
vn 0.0512 0.9942 -0.0947
vn 0.0181 0.9939 -0.1090
vn -0.0238 0.9997 -0.0055
vn -0.1893 0.2245 0.9559
vn -0.5435 0.2326 0.8065
vn 0.0903 -0.5065 -0.8575
vn 0.2247 -0.6320 -0.7417
vn 0.0571 -0.8172 -0.5736
vn -0.2198 -0.8475 -0.4831
vn -0.5226 -0.7603 -0.3858
vn -0.4199 -0.8631 -0.2805
vn -0.0725 0.9942 -0.0789
vn -0.9613 0.0039 -0.2755
vn -0.9999 0.0013 0.0142
vn -0.8672 0.3425 0.3614
vn -0.9723 0.0933 0.2142
vn -0.1389 0.9902 -0.0135
vn -0.6746 0.4052 0.6171
vn -0.4649 0.8122 0.3524
vn 0.0998 0.9520 -0.2894
vn 0.2335 0.8174 -0.5266
vn -0.6593 -0.7323 -0.1707
vn -0.6239 -0.7704 -0.1313
vn -0.9988 0.0204 -0.0451
vn -0.8691 -0.4639 -0.1717
vn -0.9983 0.0203 -0.0544
vn -0.9995 0.0119 -0.0278
vn -0.5122 0.8587 -0.0172
vn -0.4488 0.8933 -0.0242
vn -0.4800 0.5018 0.7196
vn -0.3215 0.7570 0.5688
vn -0.5352 0.8443 -0.0290
vn -0.1907 0.9606 0.2022
vn -0.0101 0.9969 -0.0774
vn -0.8323 -0.5061 0.2262
vn -0.8352 -0.4471 0.3202
vn -0.9212 0.0513 0.3857
vn -0.9674 -0.0146 0.2527
vn -0.8274 0.4067 0.3872
vn -0.8807 0.3362 0.3335
vn -0.4202 -0.9047 0.0704
vn -0.8702 -0.4906 0.0445
vn -0.8595 -0.5103 -0.0301
vn -0.4237 -0.9058 -0.0019
vn -0.8763 -0.4681 -0.1138
vn -0.4512 -0.8872 -0.0962
vn -0.4620 -0.8681 -0.1816
vn -0.0960 -0.6924 -0.7151
vn -0.0242 0.9933 -0.1133
vn -0.6607 0.7002 0.2705
vn 0.0418 -0.3712 -0.9276
vn -0.4009 -0.8552 -0.3286
vn -0.9815 0.1277 0.1428
vn -0.9670 0.1418 0.2118
vn -0.9666 0.2375 0.0963
vn -0.9600 0.2345 0.1528
vn -0.9452 0.2667 0.1885
vn -0.9568 0.2462 0.1546
vn -0.9826 -0.1497 0.1103
vn -0.9886 0.1450 0.0403
vn -0.9963 -0.0763 0.0394
vn -0.8452 -0.5217 0.1163
vn -0.8410 -0.5178 0.1570
vn -0.3791 -0.8996 0.2169
vn -0.3802 -0.9002 0.2125
vn -0.8850 0.4329 0.1714
vn -0.6027 0.7087 0.3668
vn -0.5989 0.7434 0.2978
vn -0.4734 -0.7567 0.4508
vn -0.6235 -0.3084 0.7185
vn -0.9809 0.0067 -0.1945
vn -0.4652 -0.5377 0.7032
vn -0.5807 -0.4513 0.6776
vn -0.4175 -0.8243 0.3824
vn -0.2492 -0.9383 0.2396
vn -0.9931 -0.0322 -0.1126
vn -0.6509 0.1440 0.7454
vn -0.5437 0.4973 0.6761
vn -0.4150 0.7451 0.5222
vn -0.3425 0.9222 0.1795
vn -0.3290 0.8961 0.2979
vn -0.2891 0.8903 0.3518
vn 0.2181 -0.9696 -0.1112
vn 0.1153 -0.9696 -0.2158
vn 0.1258 -0.9732 -0.1927
vn -0.0623 -0.9870 -0.1484
vn 0.2237 0.9745 -0.0167
vn 0.2310 0.9070 -0.3521
vn 0.1676 0.9592 0.2276
vn -0.6380 0.5640 0.5242
vn -0.5746 0.6322 0.5197
vn -0.4874 0.8421 0.2310
vn -0.7467 0.5730 0.3378
vn -0.3599 0.8608 0.3599
vn -0.6764 0.7159 -0.1731
vn -0.7487 0.5871 -0.3078
vn 0.8268 -0.0889 0.5554
vn 0.1263 0.8972 -0.4233
vn 0.2113 0.7419 -0.6363
vn -0.1075 -0.9757 -0.1911
vn -0.9541 -0.2583 0.1515
vn -0.8498 0.1111 0.5153
vn -0.9894 0.1042 0.1010
vn -0.8503 0.5124 -0.1200
vn -0.8457 0.4661 0.2599
vn -0.9416 0.1672 -0.2923
vn 0.1256 -0.7653 -0.6313
vn 0.2068 -0.5392 -0.8164
vn -0.1422 -0.9589 -0.2457
vn 0.3015 -0.5661 -0.7672
vn 0.1178 -0.8527 -0.5090
vn 0.0772 0.9325 -0.3529
vn -0.0293 0.9974 -0.0653
vn -0.3437 0.8500 0.3993
vn -0.9227 0.2582 0.2864
vn -0.8989 0.3289 0.2896
vn -0.8971 0.3336 0.2898
vn 0.2654 0.2205 0.9386
vn 0.2662 0.1945 0.9441
vn 0.2661 0.1971 0.9436
vn 0.9333 0.2883 -0.2143
vn 0.9511 0.2055 -0.2305
vn 0.9502 0.2108 -0.2295
vn -0.2433 0.3211 -0.9153
vn -0.2432 0.3211 -0.9153
vn -0.2406 0.3428 -0.9081
vn -0.2403 0.3452 -0.9072
vn -0.8547 0.4296 0.2914
vn 0.2669 0.1609 0.9502
vn 0.9639 0.0928 -0.2494
vn -0.2363 0.3762 -0.8959
vn -0.9227 0.2608 0.2840
vn -0.8989 0.3315 0.2866
vn -0.8971 0.3362 0.2868
vn 0.2654 0.2289 0.9366
vn 0.2662 0.2030 0.9423
vn 0.2661 0.2055 0.9418
vn 0.9333 0.2863 -0.2168
vn 0.9511 0.2034 -0.2323
vn 0.9502 0.2088 -0.2314
vn -0.2433 0.3128 -0.9181
vn -0.2406 0.3347 -0.9111
vn -0.2403 0.3370 -0.9103
vn -0.8547 0.4322 0.2875
vn 0.2669 0.1695 0.9487
vn 0.9639 0.0905 -0.2503
vn -0.2363 0.3681 -0.8992
vn -0.8987 0.2611 0.3525
vn -0.8758 0.3321 0.3503
vn -0.8741 0.3368 0.3500
vn 0.3414 0.2688 0.9007
vn 0.3430 0.2432 0.9073
vn 0.3429 0.2457 0.9067
vn 0.9068 0.2883 -0.3075
vn 0.9245 0.2050 -0.3212
vn 0.9236 0.2104 -0.3204
vn -0.3258 0.2734 -0.9050
vn -0.3230 0.2955 -0.8991
vn -0.3226 0.2979 -0.8984
vn -0.8332 0.4333 0.3435
vn 0.3448 0.2100 0.9149
vn 0.9374 0.0917 -0.3359
vn -0.3181 0.3295 -0.8889
vn -0.8751 0.2501 0.4143
vn -0.8564 0.3216 0.4038
vn -0.8550 0.3264 0.4031
vn 0.4081 0.3649 0.8368
vn 0.4118 0.3402 0.8454
vn 0.4114 0.3426 0.8446
vn 0.8573 0.3009 -0.4177
vn 0.8782 0.2176 -0.4259
vn 0.8770 0.2230 -0.4255
vn -0.4228 0.1748 -0.8892
vn -0.4206 0.1975 -0.8855
vn -0.4203 0.1999 -0.8851
vn -0.8203 0.4236 0.3843
vn 0.4160 0.3078 0.8557
vn 0.8959 0.1042 -0.4320
vn -0.4167 0.2324 -0.8788
vn -0.2545 0.3148 0.9144
vn -0.2482 0.3847 0.8890
vn -0.2478 0.3893 0.8871
vn 0.9089 0.3547 0.2193
vn 0.9171 0.3299 0.2238
vn 0.9163 0.3323 0.2234
vn 0.2553 0.2360 -0.9376
vn 0.2606 0.1514 -0.9535
vn 0.2603 0.1569 -0.9527
vn -0.9433 0.1837 -0.2763
vn -0.9385 0.2062 -0.2770
vn -0.9379 0.2087 -0.2771
vn -0.2365 0.4837 0.8427
vn 0.9267 0.2976 0.2293
vn 0.2645 0.0370 -0.9637
vn -0.9300 0.2410 -0.2777
vn -0.3868 -0.9180 0.0881
vn -0.0886 0.9951 0.0441
vn -0.4905 -0.8607 0.1365
vn -0.7143 0.2501 0.6536
vn -0.6996 0.3216 0.6381
vn -0.6984 0.3264 0.6369
vn 0.6364 0.3649 0.6795
vn 0.6424 0.3402 0.6867
vn 0.6419 0.3426 0.6860
vn 0.6364 0.3649 0.6796
vn 0.6963 0.3009 -0.6516
vn 0.7138 0.2176 -0.6656
vn 0.7129 0.2230 -0.6649
vn -0.6658 0.1748 -0.7253
vn -0.6626 0.1975 -0.7224
vn -0.6623 0.1999 -0.7221
vn -0.6708 0.4236 0.6088
vn 0.6495 0.3078 0.6952
vn 0.7289 0.1042 -0.6766
vn -0.6570 0.2324 -0.7172
vn -0.8406 0.2501 0.4804
vn -0.8228 0.3216 0.4685
vn -0.8215 0.3264 0.4676
vn 0.4713 0.3649 0.8029
vn 0.4756 0.3402 0.8113
vn 0.4752 0.3426 0.8105
vn 0.8226 0.3009 -0.4824
vn 0.8428 0.2176 -0.4922
vn 0.8417 0.2230 -0.4917
vn -0.4899 0.1748 -0.8541
vn -0.4874 0.1975 -0.8505
vn -0.4872 0.1999 -0.8501
vn -0.7883 0.4236 0.4463
vn 0.4806 0.3078 0.8211
vn 0.8600 0.1042 -0.4996
vn -0.4831 0.2324 -0.8442
vn -0.6932 -0.6763 -0.2492
vn -0.6823 -0.7003 -0.2100
vn -0.9884 0.0182 -0.1505
vn -0.6283 0.7673 -0.1284
vn -0.5433 0.4465 0.7110
vn 0.2013 0.7278 -0.6556
vn -0.6988 -0.4735 0.5361
vn -0.4929 -0.8399 0.2273
vn 0.1914 -0.4738 -0.8596
vn 0.0381 -0.7875 -0.6151
vn -0.4772 0.5035 0.7203
vn -0.5861 -0.8025 -0.1116
vn -0.5217 -0.8431 -0.1304
vt 0.036900 0.061253
vt 0.027361 0.012108
vt 0.119017 0.011908
vt 0.106287 0.067204
vt 0.070598 0.133103
vt 0.106261 0.067150
vt 0.119007 0.011865
vt 0.027338 0.011873
vt 0.036761 0.061239
vt 0.070501 0.133127
vt 0.106256 0.067163
vt 0.119002 0.011885
vt 0.027321 0.011927
vt 0.036743 0.061260
vt 0.070495 0.133188
vt 0.036912 0.061264
vt 0.027364 0.012180
vt 0.119020 0.011928
vt 0.106289 0.067214
vt 0.070603 0.133125
vt 0.106256 0.067172
vt 0.036742 0.061271
vt 0.027317 0.011962
vt 0.119002 0.011896
vt 0.070494 0.133221
vt 0.106257 0.067174
vt 0.119003 0.011898
vt 0.027318 0.011972
vt 0.036746 0.061273
vt 0.070496 0.133228
vt 0.036949 0.061300
vt 0.027408 0.012312
vt 0.119038 0.011977
vt 0.106296 0.067226
vt 0.070619 0.133157
vt 0.036876 0.061303
vt 0.106282 0.067219
vt 0.119019 0.011981
vt 0.027365 0.012294
vt 0.070593 0.133139
vt 0.036889 0.061302
vt 0.027373 0.012295
vt 0.119022 0.011979
vt 0.106285 0.067220
vt 0.070597 0.133141
vt 0.205137 0.337033
vt 0.225807 0.291053
vt 0.161190 0.287723
vt 0.276941 0.301404
vt 0.166248 0.271049
vt 0.112768 0.267625
vt 0.188657 0.243591
vt 0.128576 0.223261
vt 0.198308 0.196225
vt 0.149209 0.169709
vt 0.199110 0.182320
vt 0.255250 0.196413
vt 0.137390 0.156087
vt 0.070788 0.168715
vt 0.057344 0.209442
vt 0.106274 0.067164
vt 0.119038 0.011926
vt 0.027410 0.012024
vt 0.036847 0.061285
vt 0.070535 0.133223
vt 0.345924 0.132226
vt 0.330262 0.153841
vt 0.427600 0.204440
vt 0.552959 0.195143
vt 0.357188 0.087350
vt 0.270017 0.087712
vt 0.506499 0.140268
vt 0.254243 0.109517
vt 0.354902 0.046560
vt 0.282943 0.038262
vt 0.176558 0.034246
vt 0.496270 0.078329
vt 0.534233 0.069348
vt 0.553777 0.132035
vt 0.253346 0.211099
vt 0.298207 0.224572
vt 0.278074 0.271113
vt 0.239246 0.262796
vt 0.229394 0.280425
vt 0.280702 0.287342
vt 0.289373 0.205185
vt 0.496581 0.970956
vt 0.496526 0.938281
vt 0.464217 0.956795
vt 0.588705 0.977860
vt 0.586772 0.917345
vt 0.453580 0.966618
vt 0.625175 0.979655
vt 0.624347 0.912088
vt 0.659280 0.982540
vt 0.659757 0.912641
vt 0.733994 0.925724
vt 0.739536 0.971640
vt 0.789043 0.932578
vt 0.795578 0.959472
vt 0.038189 0.183824
vt 0.030376 0.174874
vt 0.072671 0.157062
vt 0.023828 0.216771
vt 0.050173 0.248356
vt 0.005567 0.220950
vt 0.042616 0.265365
vt 0.033540 0.325436
vt 0.014145 0.290859
vt 0.103657 0.279262
vt 0.875917 0.614934
vt 0.920465 0.639216
vt 0.906277 0.690975
vt 0.957698 0.658558
vt 0.982063 0.675671
vt 0.982063 0.718924
vt 0.946363 0.704392
vt 0.938029 0.753318
vt 0.982063 0.756527
vt 0.269854 0.086947
vt 0.176468 0.034202
vt 0.284281 0.036601
vt 0.290760 0.019151
vt 0.254626 0.108913
vt 0.357572 0.087719
vt 0.345568 0.131907
vt 0.355657 0.047057
vt 0.329683 0.155079
vt 0.352652 0.028303
vt 0.496484 0.078720
vt 0.507060 0.140211
vt 0.552430 0.194218
vt 0.427802 0.204620
vt 0.026190 0.900426
vt 0.117373 0.906063
vt 0.119700 0.819926
vt 0.127614 0.709573
vt 0.005432 0.740268
vt 0.011481 0.813855
vt 0.078316 0.607500
vt 0.131242 0.621064
vt 0.011011 0.686586
vt 0.184733 0.619200
vt 0.189839 0.604715
vt 0.262928 0.606716
vt 0.189762 0.575092
vt 0.129492 0.595621
vt 0.399051 0.608533
vt 0.444334 0.472197
vt 0.295711 0.460584
vt 0.170095 0.444076
vt 0.137302 0.550687
vt 0.148146 0.334130
vt 0.089804 0.330866
vt 0.003291 0.326659
vt 0.027050 0.369449
vt 0.140992 0.390173
vt 0.076315 0.384939
vt 0.200668 0.378573
vt 0.276072 0.342245
vt 0.264949 0.369455
vt 0.248608 0.712590
vt 0.376546 0.712811
vt 0.522671 0.718362
vt 0.235931 0.816311
vt 0.230552 0.918137
vt 0.114077 0.982304
vt 0.230387 0.989413
vt 0.030585 0.979737
vt 0.037043 0.061319
vt 0.106294 0.067251
vt 0.119047 0.011952
vt 0.027253 0.011864
vt 0.070667 0.133361
vt 0.787810 0.799292
vt 0.714938 0.798441
vt 0.713782 0.729471
vt 0.621337 0.728732
vt 0.620443 0.802768
vt 0.633814 0.640681
vt 0.544513 0.621927
vt 0.583906 0.514246
vt 0.083266 0.546306
vt 0.075058 0.589736
vt 0.005393 0.540257
vt 0.050167 0.427773
vt 0.007276 0.597385
vt 0.361014 0.820091
vt 0.357683 0.884362
vt 0.510120 0.820593
vt 0.428769 0.905846
vt 0.521919 0.891673
vt 0.630096 0.865190
vt 0.353995 0.950455
vt 0.723028 0.839165
vt 0.660469 0.537773
vt 0.726290 0.657297
vt 0.790348 0.739153
vt 0.796426 0.669934
vt 0.746292 0.569341
vt 0.853652 0.802372
vt 0.852085 0.747722
vt 0.816376 0.594838
vt 0.861334 0.679314
vt 0.896638 0.751224
vt 0.899142 0.802057
vt 0.852734 0.821785
vt 0.939460 0.803528
vt 0.903521 0.822499
vt 0.791396 0.823789
vt 0.535261 0.068524
vt 0.508205 0.015009
vt 0.481709 0.018637
vt 0.479767 0.017684
vt 0.353315 0.029491
vt 0.289122 0.019545
vt 0.982063 0.806114
vt 0.942201 0.824485
vt 0.982063 0.827584
vt 0.442293 0.362908
vt 0.388831 0.334667
vt 0.382786 0.391581
vt 0.336217 0.355181
vt 0.442634 0.281507
vt 0.335669 0.275554
vt 0.818467 0.240061
vt 0.829003 0.214562
vt 0.780171 0.224284
vt 0.929298 0.182433
vt 0.874080 0.241667
vt 0.998189 0.181800
vt 0.998189 0.147849
vt 0.774695 0.270091
vt 0.806509 0.264699
vt 0.842933 0.264729
vt 0.998189 0.280824
vt 0.885007 0.268743
vt 0.847028 0.295042
vt 0.552447 0.132393
vt 0.559095 0.183491
vt 0.813617 0.853330
vt 0.849420 0.904951
vt 0.916099 0.883730
vt 0.939813 0.921557
vt 0.895905 0.938614
vt 0.886349 0.841242
vt 0.986696 0.848791
vt 0.977130 0.886457
vt 0.607700 0.064723
vt 0.578095 0.074355
vt 0.594417 0.124627
vt 0.995618 0.356109
vt 0.864874 0.352079
vt 0.792598 0.330579
vt 0.685877 0.274954
vt 0.687280 0.323152
vt 0.796267 0.395255
vt 0.865427 0.394938
vt 0.990119 0.408693
vt 0.863351 0.474684
vt 0.990514 0.483371
vt 0.787559 0.460247
vt 0.106283 0.067212
vt 0.037004 0.061302
vt 0.027284 0.011551
vt 0.119065 0.011880
vt 0.070615 0.133461
vt 0.106286 0.067216
vt 0.037017 0.061303
vt 0.027292 0.011551
vt 0.119069 0.011880
vt 0.070620 0.133465
vt 0.671483 0.443535
vt 0.685886 0.386942
vt 0.866340 0.563757
vt 0.775411 0.540360
vt 0.650942 0.512693
vt 0.998189 0.593065
vt 0.802755 0.140760
vt 0.840078 0.171087
vt 0.917196 0.149025
vt 0.865646 0.044914
vt 0.800847 0.053170
vt 0.788880 0.179353
vt 0.690120 0.143938
vt 0.675487 0.171912
vt 0.787529 0.193136
vt 0.972382 0.035157
vt 0.579579 0.416136
vt 0.520928 0.466763
vt 0.665594 0.213031
vt 0.700410 0.059708
vt 0.612426 0.111331
vt 0.106269 0.067195
vt 0.119048 0.011877
vt 0.027248 0.011544
vt 0.036945 0.061297
vt 0.070593 0.133439
vt 0.560142 0.385080
vt 0.550656 0.326827
vt 0.554195 0.268839
vt 0.679649 0.241722
vt 0.473160 0.332831
vt 0.106237 0.067157
vt 0.119007 0.011875
vt 0.027159 0.011546
vt 0.036803 0.061290
vt 0.070538 0.133396
vt 0.559676 0.183948
vt 0.506794 0.014261
vt 0.472352 0.263615
vt 0.560170 0.251738
vt 0.564000 0.230085
vt 0.491879 0.232250
vt 0.504429 0.212674
vt 0.036954 0.061315
vt 0.027196 0.011892
vt 0.119020 0.011949
vt 0.106277 0.067241
vt 0.070633 0.133329
vt 0.036972 0.061284
vt 0.106280 0.067217
vt 0.119025 0.011907
vt 0.027208 0.011723
vt 0.070640 0.133261
vt 0.036975 0.061285
vt 0.027210 0.011730
vt 0.119026 0.011909
vt 0.106281 0.067218
vt 0.070641 0.133266
vt 0.036973 0.061293
vt 0.106280 0.067224
vt 0.119026 0.011919
vt 0.027208 0.011769
vt 0.070641 0.133282
vt 0.479496 0.422828
vt 0.106239 0.067177
vt 0.119011 0.011890
vt 0.027166 0.011605
vt 0.036816 0.061309
vt 0.070544 0.133457
s 1
usemtl leviathanSkin
f 636/1/592 637/2/590 634/3/590
f 634/3/590 635/4/591 636/1/592
f 635/4/591 644/5/598 636/1/592
f 301/1/282 302/4/283 299/3/281
f 299/3/281 300/2/281 301/1/282
f 302/4/283 301/1/282 309/5/289
f 350/6/324 351/7/322 348/8/322
f 348/8/322 349/9/323 350/6/324
f 350/6/324 349/9/323 355/10/328
f 683/6/630 684/9/631 681/8/629
f 681/8/629 682/7/629 683/6/630
f 683/6/630 688/10/635 684/9/631
f 620/6/578 621/9/579 618/8/577
f 618/8/577 619/7/577 620/6/578
f 620/6/578 625/10/583 621/9/579
f 285/6/270 286/7/268 283/8/268
f 283/8/268 284/9/269 285/6/270
f 285/6/270 284/9/269 290/10/274
f 265/11/254 266/12/252 263/13/252
f 263/13/252 264/14/253 265/11/254
f 265/11/254 264/14/253 270/15/258
f 600/11/562 601/14/563 598/13/561
f 598/13/561 599/12/561 600/11/562
f 600/11/562 605/15/567 601/14/563
f 659/16/612 660/17/610 657/18/610
f 657/18/610 658/19/611 659/16/612
f 658/19/611 667/20/618 659/16/612
f 326/16/304 327/19/305 324/18/303
f 324/18/303 325/17/303 326/16/304
f 327/19/305 326/16/304 334/20/311
f 580/21/546 581/22/547 578/23/545
f 578/23/545 579/24/545 580/21/546
f 580/21/546 585/25/551 581/22/547
f 245/21/238 246/24/236 243/23/236
f 243/23/236 244/22/237 245/21/238
f 245/21/238 244/22/237 250/25/242
f 663/6/614 664/9/615 661/8/613
f 661/8/613 662/7/613 663/6/614
f 663/6/614 668/10/619 664/9/615
f 330/6/308 331/7/306 328/8/306
f 328/8/306 329/9/307 330/6/308
f 330/6/308 329/9/307 335/10/312
f 225/26/222 226/27/220 223/28/220
f 223/28/220 224/29/221 225/26/222
f 225/26/222 224/29/221 230/30/226
f 560/26/530 561/29/531 558/28/528
f 558/28/528 559/27/529 560/26/530
f 560/26/530 565/30/535 561/29/531
f 679/16/628 680/17/626 677/18/626
f 677/18/626 678/19/627 679/16/628
f 678/19/627 687/20/634 679/16/628
f 346/16/320 347/19/321 344/18/319
f 344/18/319 345/17/319 346/16/320
f 347/19/321 346/16/320 354/20/327
f 281/16/266 282/19/267 279/18/265
f 279/18/265 280/17/265 281/16/266
f 282/19/267 281/16/266 289/20/273
f 616/16/576 617/17/574 614/18/574
f 614/18/574 615/19/575 616/16/576
f 615/19/575 624/20/582 616/16/576
f 596/31/560 597/32/558 594/33/558
f 594/33/558 595/34/559 596/31/560
f 595/34/559 604/35/566 596/31/560
f 261/31/250 262/34/251 259/33/249
f 259/33/249 260/32/249 261/31/250
f 262/34/251 261/31/250 269/35/257
f 221/36/218 222/37/219 219/38/217
f 219/38/217 220/39/217 221/36/218
f 222/37/219 221/36/218 229/40/225
f 556/36/527 557/39/525 554/38/525
f 554/38/525 555/37/526 556/36/527
f 555/37/526 564/40/534 556/36/527
f 576/41/544 577/42/542 574/43/542
f 574/43/542 575/44/543 576/41/544
f 575/44/543 584/45/550 576/41/544
f 241/41/234 242/44/235 239/43/233
f 239/43/233 240/42/233 241/41/234
f 242/44/235 241/41/234 249/45/241
f 40/46/40 43/47/43 51/48/51
f 42/49/42 43/47/43 40/46/40
f 51/48/51 47/50/47 56/51/56
f 56/51/56 47/50/47 45/52/45
f 45/52/45 52/53/52 56/51/56
f 45/52/45 44/54/44 53/55/53
f 53/55/53 52/53/52 45/52/45
f 53/55/53 44/54/44 65/56/65
f 64/57/64 65/56/65 44/54/44
f 65/56/65 66/58/66 53/55/53
f 54/59/54 53/55/53 66/58/66
f 52/53/52 53/55/53 54/59/54
f 56/51/56 52/53/52 55/60/55
f 424/48/397 414/47/387 413/46/386
f 413/46/386 414/47/387 415/49/388
f 429/51/402 420/50/393 424/48/397
f 419/52/392 420/50/393 429/51/402
f 429/51/402 425/53/398 419/52/392
f 419/52/392 425/53/398 428/55/401
f 428/55/401 417/54/390 419/52/392
f 438/56/411 417/54/390 428/55/401
f 417/54/390 438/56/411 437/57/410
f 428/55/401 439/58/412 438/56/411
f 439/58/412 428/55/401 427/59/400
f 427/59/400 428/55/401 425/53/398
f 426/60/399 425/53/398 429/51/402
f 305/61/286 306/62/284 303/63/284
f 303/63/284 304/64/285 305/61/286
f 305/61/286 304/64/285 310/65/290
f 640/61/594 641/64/595 638/63/593
f 638/63/593 639/62/593 640/61/594
f 640/61/594 645/65/599 641/64/595
f 145/66/145 146/67/146 143/68/143
f 143/68/143 144/69/144 145/66/145
f 145/66/145 194/70/194 371/71/344
f 146/67/146 145/66/145 371/71/344
f 145/66/145 144/69/144 165/72/165
f 165/72/165 194/70/194 145/66/145
f 371/71/344 370/73/343 146/67/146
f 373/74/346 206/75/206 371/71/344
f 371/71/344 194/70/194 373/74/346
f 371/71/344 206/75/206 205/76/205
f 370/73/343 371/71/344 205/76/205
f 194/70/194 165/72/165 201/77/201
f 201/77/201 373/74/346 194/70/194
f 202/78/202 201/77/201 165/72/165
f 165/72/165 164/79/164 202/78/202
f 418/80/391 479/81/452 407/82/380
f 407/82/380 410/83/383 418/80/391
f 409/84/382 410/83/383 407/82/380
f 407/82/380 408/85/381 409/84/382
f 482/86/455 479/81/452 418/80/391
f 418/80/391 437/57/410 482/86/455
f 437/57/410 418/80/391 417/54/390
f 417/54/390 418/80/391 410/83/383
f 420/50/393 419/52/392 410/83/383
f 410/83/383 409/84/382 420/50/393
f 410/83/383 419/52/392 417/54/390
f 420/50/393 409/84/382 414/47/387
f 414/47/387 409/84/382 408/85/381
f 408/85/381 415/49/388 414/47/387
f 414/47/387 424/48/397 420/50/393
f 46/80/46 35/83/35 34/82/34
f 34/82/34 116/81/116 46/80/46
f 36/84/36 37/85/37 34/82/34
f 34/82/34 35/83/35 36/84/36
f 119/86/119 64/57/64 46/80/46
f 46/80/46 116/81/116 119/86/119
f 44/54/44 46/80/46 64/57/64
f 35/83/35 46/80/46 44/54/44
f 47/50/47 36/84/36 35/83/35
f 35/83/35 45/52/45 47/50/47
f 44/54/44 45/52/45 35/83/35
f 43/47/43 36/84/36 47/50/47
f 37/85/37 36/84/36 43/47/43
f 43/47/43 42/49/42 37/85/37
f 47/50/47 51/48/51 43/47/43
f 158/87/158 157/88/157 161/89/161
f 159/90/159 160/91/160 157/88/157
f 157/88/157 158/87/158 159/90/159
f 516/89/489 514/88/487 158/87/158
f 158/87/158 162/92/162 516/89/489
f 159/90/159 158/87/158 514/88/487
f 161/89/161 162/92/162 158/87/158
f 189/93/189 159/90/159 515/91/488
f 514/88/487 515/91/488 159/90/159
f 160/91/160 159/90/159 189/93/189
f 189/93/189 188/94/188 160/91/160
f 515/91/488 528/94/501 189/93/189
f 172/95/172 189/93/189 528/94/501
f 188/94/188 189/93/189 172/95/172
f 172/95/172 173/96/173 188/94/188
f 528/94/501 520/96/493 172/95/172
f 518/97/491 168/98/168 172/95/172
f 172/95/172 520/96/493 518/97/491
f 171/97/171 173/96/173 172/95/172
f 172/95/172 168/98/168 171/97/171
f 170/99/170 171/97/171 168/98/168
f 519/99/492 169/100/169 168/98/168
f 168/98/168 518/97/491 519/99/492
f 168/98/168 169/100/169 170/99/170
f 425/53/398 426/60/399 427/59/400
f 426/60/399 442/101/415 427/59/400
f 427/59/400 442/101/415 441/102/414
f 441/102/414 440/103/413 427/59/400
f 427/59/400 440/103/413 439/58/412
f 646/104/600 426/60/399 430/105/403
f 442/101/415 426/60/399 646/104/600
f 429/51/402 430/105/403 426/60/399
f 442/101/415 646/104/600 648/106/602
f 648/106/602 441/102/414 442/101/415
f 646/104/600 430/105/403 436/107/409
f 436/107/409 648/106/602 646/104/600
f 436/107/409 430/105/403 429/51/402
f 434/108/407 647/109/601 436/107/409
f 429/51/402 435/110/408 436/107/409
f 434/108/407 436/107/409 435/110/408
f 424/48/397 435/110/408 429/51/402
f 54/59/54 55/60/55 52/53/52
f 55/60/55 54/59/54 69/101/69
f 54/59/54 67/103/67 68/102/68
f 68/102/68 69/101/69 54/59/54
f 66/58/66 67/103/67 54/59/54
f 313/104/293 57/105/57 55/60/55
f 69/101/69 313/104/293 55/60/55
f 55/60/55 57/105/57 56/51/56
f 69/101/69 68/102/68 315/106/295
f 315/106/295 313/104/293 69/101/69
f 313/104/293 315/106/295 63/107/63
f 63/107/63 57/105/57 313/104/293
f 56/51/56 57/105/57 63/107/63
f 59/108/59 63/107/63 314/109/294
f 63/107/63 62/110/62 56/51/56
f 62/110/62 63/107/63 59/108/59
f 56/51/56 62/110/62 51/48/51
f 96/111/96 95/112/95 463/113/436
f 378/114/351 381/115/354 460/116/433
f 460/116/433 459/117/432 378/114/351
f 89/116/89 381/115/354 378/114/351
f 463/113/436 459/117/432 458/118/431
f 459/117/432 460/116/433 457/119/430
f 457/119/430 458/118/431 459/117/432
f 76/120/76 75/121/75 79/122/79
f 75/121/75 78/123/78 79/122/79
f 75/121/75 76/120/76 77/124/77
f 76/120/76 208/125/208 210/126/210
f 76/120/76 79/122/79 209/127/209
f 209/127/209 208/125/208 76/120/76
f 76/120/76 210/126/210 368/128/341
f 368/128/341 77/124/77 76/120/76
f 209/127/209 79/122/79 78/123/78
f 78/123/78 369/129/342 209/127/209
f 190/130/190 209/127/209 369/129/342
f 208/125/208 209/127/209 190/130/190
f 210/126/210 208/125/208 98/131/98
f 190/130/190 98/131/98 208/125/208
f 210/126/210 97/132/97 374/133/347
f 107/134/107 108/135/108 109/136/109
f 109/136/109 19/137/19 18/138/18
f 18/138/18 110/139/110 109/136/109
f 109/136/109 110/139/110 107/134/107
f 73/140/73 19/137/19 72/141/72
f 17/142/17 19/137/19 73/140/73
f 71/143/71 72/141/72 19/137/19
f 17/142/17 18/138/18 19/137/19
f 39/144/39 71/143/71 186/145/186
f 186/145/186 29/146/29 39/144/39
f 38/147/38 39/144/39 29/146/29
f 186/145/186 26/148/26 183/149/183
f 183/149/183 187/150/187 186/145/186
f 29/146/29 186/145/186 187/150/187
f 187/150/187 23/151/23 29/146/29
f 29/146/29 28/152/28 38/147/38
f 28/152/28 29/146/29 23/151/23
f 421/153/394 431/154/404 435/110/408
f 435/110/408 424/48/397 421/153/394
f 435/110/408 431/154/404 434/108/407
f 434/108/407 443/155/416 647/109/601
f 443/155/416 434/108/407 433/156/406
f 433/156/406 434/108/407 431/154/404
f 423/157/396 432/158/405 431/154/404
f 431/154/404 421/153/394 423/157/396
f 431/154/404 432/158/405 433/156/406
f 413/46/386 421/153/394 424/48/397
f 422/159/395 423/157/396 421/153/394
f 421/153/394 413/46/386 422/159/395
f 413/46/386 416/160/389 480/161/453
f 480/161/453 422/159/395 413/46/386
f 415/49/388 416/160/389 413/46/386
f 48/153/48 51/48/51 62/110/62
f 62/110/62 58/154/58 48/153/48
f 59/108/59 58/154/58 62/110/62
f 59/108/59 314/109/294 70/155/70
f 70/155/70 60/156/60 59/108/59
f 58/154/58 59/108/59 60/156/60
f 49/157/49 48/153/48 58/154/58
f 58/154/58 61/158/61 49/157/49
f 60/156/60 61/158/61 58/154/58
f 51/48/51 48/153/48 40/46/40
f 50/159/50 40/46/40 48/153/48
f 48/153/48 49/157/49 50/159/50
f 40/46/40 50/159/50 117/161/117
f 117/161/117 41/160/41 40/46/40
f 40/46/40 41/160/41 42/49/42
f 147/162/147 27/163/27 26/148/26
f 26/148/26 27/163/27 24/164/24
f 26/148/26 186/145/186 147/162/147
f 71/143/71 19/137/19 147/162/147
f 147/162/147 186/145/186 71/143/71
f 112/165/112 147/162/147 19/137/19
f 19/137/19 109/136/109 112/165/112
f 112/165/112 109/136/109 108/135/108
f 108/135/108 111/166/111 112/165/112
f 111/166/111 108/135/108 357/167/330
f 357/167/330 358/168/331 111/166/111
f 108/135/108 107/134/107 367/169/340
f 367/169/340 357/167/330 108/135/108
f 297/170/279 298/171/280 295/172/278
f 295/172/278 296/173/278 297/170/279
f 298/171/280 297/170/279 308/174/288
f 632/170/589 633/173/587 630/172/587
f 630/172/587 631/171/588 632/170/589
f 631/171/588 643/174/597 632/170/589
f 450/120/423 451/122/424 448/121/421
f 448/121/421 449/124/422 450/120/423
f 448/121/421 451/122/424 452/123/425
f 690/175/637 689/176/636 691/177/638
f 502/178/475 691/177/638 689/176/636
f 689/176/636 387/179/360 502/178/475
f 691/177/638 502/178/475 526/180/499
f 502/178/475 399/164/372 402/181/375
f 402/181/375 526/180/499 502/178/475
f 399/164/372 502/178/475 387/179/360
f 526/180/499 402/181/375 182/182/182
f 182/182/182 402/181/375 401/148/374
f 401/148/374 402/181/375 399/164/372
f 401/148/374 183/149/183 182/182/182
f 182/182/182 183/149/183 26/148/26
f 183/149/183 401/148/374 527/145/500
f 38/147/38 28/152/28 22/183/22
f 22/183/22 118/184/118 38/147/38
f 22/183/22 28/152/28 23/151/23
f 118/184/118 22/183/22 21/185/21
f 22/183/22 23/151/23 20/186/20
f 20/186/20 21/185/21 22/183/22
f 397/183/370 23/151/23 403/152/376
f 404/146/377 23/151/23 187/150/187
f 403/152/376 23/151/23 404/146/377
f 20/186/20 23/151/23 397/183/370
f 527/145/500 187/150/187 183/149/183
f 187/150/187 527/145/500 404/146/377
f 411/144/384 404/146/377 527/145/500
f 412/147/385 403/152/376 404/146/377
f 404/146/377 411/144/384 412/147/385
f 397/183/370 403/152/376 412/147/385
f 481/184/454 398/185/371 397/183/370
f 412/147/385 481/184/454 397/183/370
f 397/183/370 398/185/371 20/186/20
f 481/184/454 447/140/420 446/187/419
f 446/187/419 398/185/371 481/184/454
f 447/140/420 445/141/418 395/137/368
f 447/140/420 395/137/368 394/142/367
f 394/142/367 446/187/419 447/140/420
f 444/143/417 395/137/368 445/141/418
f 507/162/480 395/137/368 444/143/417
f 476/165/449 474/136/447 395/137/368
f 395/137/368 507/162/480 476/165/449
f 396/138/369 395/137/368 474/136/447
f 394/142/367 395/137/368 396/138/369
f 444/143/417 527/145/500 507/162/480
f 527/145/500 444/143/417 411/144/384
f 401/148/374 400/163/373 507/162/480
f 507/162/480 527/145/500 401/148/374
f 456/188/429 476/165/449 507/162/480
f 507/162/480 400/163/373 456/188/429
f 477/166/450 476/165/449 456/188/429
f 476/165/449 477/166/450 475/135/448
f 475/135/448 474/136/447 476/165/449
f 456/188/429 478/189/451 477/166/450
f 478/189/451 456/188/429 386/190/359
f 386/190/359 456/188/429 400/163/373
f 400/163/373 399/164/372 386/190/359
f 399/164/372 400/163/373 401/148/374
f 478/189/451 386/190/359 483/191/456
f 483/191/456 386/190/359 6/192/6
f 387/179/360 386/190/359 399/164/372
f 7/193/7 6/192/6 386/190/359
f 386/190/359 387/179/360 7/193/7
f 358/168/331 477/166/450 478/189/451
f 478/189/451 120/194/120 358/168/331
f 478/189/451 483/191/456 120/194/120
f 477/166/450 358/168/331 357/167/330
f 357/167/330 475/135/448 477/166/450
f 475/135/448 357/167/330 367/169/340
f 367/169/340 472/134/445 475/135/448
f 474/136/447 475/135/448 472/134/445
f 472/134/445 473/139/446 474/136/447
f 474/136/447 473/139/446 396/138/369
f 360/195/333 7/193/7 387/179/360
f 8/179/8 7/193/7 360/195/333
f 387/179/360 689/176/636 360/195/333
f 24/164/24 25/181/25 26/148/26
f 182/182/182 25/181/25 184/180/184
f 26/148/26 25/181/25 182/182/182
f 185/196/185 184/180/184 364/197/337
f 184/180/184 185/196/185 182/182/182
f 12/198/12 11/199/11 364/197/337
f 364/197/337 365/200/338 185/196/185
f 365/200/338 364/197/337 11/199/11
f 83/201/83 9/202/9 12/198/12
f 11/199/11 12/198/12 9/202/9
f 366/203/339 11/199/11 10/204/10
f 11/199/11 366/203/339 365/200/338
f 9/202/9 10/204/10 11/199/11
f 185/196/185 365/200/338 692/197/639
f 390/199/363 692/197/639 365/200/338
f 365/200/338 366/203/339 390/199/363
f 692/197/639 526/180/499 185/196/185
f 182/182/182 185/196/185 526/180/499
f 389/198/362 691/177/638 692/197/639
f 692/197/639 390/199/363 389/198/362
f 526/180/499 692/197/639 691/177/638
f 391/204/364 390/199/363 366/203/339
f 390/199/363 391/204/364 388/202/361
f 388/202/361 389/198/362 390/199/363
f 366/203/339 96/111/96 391/204/364
f 10/204/10 96/111/96 366/203/339
f 455/205/428 388/202/361 391/204/364
f 391/204/364 463/113/436 455/205/428
f 463/113/436 391/204/364 96/111/96
f 389/198/362 388/202/361 453/201/426
f 454/206/427 453/201/426 388/202/361
f 388/202/361 455/205/428 454/206/427
f 453/201/426 690/175/637 389/198/362
f 691/177/638 389/198/362 690/175/637
f 690/175/637 453/201/426 80/207/80
f 80/207/80 453/201/426 454/206/427
f 700/208/647 454/206/427 455/205/428
f 81/209/81 454/206/427 700/208/647
f 454/206/427 81/209/81 80/207/80
f 361/210/334 360/195/333 689/176/636
f 360/195/333 359/176/332 8/179/8
f 359/176/332 360/195/333 361/210/334
f 142/178/142 8/179/8 359/176/332
f 8/179/8 142/178/142 24/164/24
f 359/176/332 363/177/336 142/178/142
f 363/177/336 359/176/332 362/175/335
f 361/210/334 362/175/335 359/176/332
f 80/207/80 361/210/334 690/175/637
f 689/176/636 690/175/637 361/210/334
f 362/175/335 361/210/334 80/207/80
f 12/198/12 362/175/335 83/201/83
f 80/207/80 83/201/83 362/175/335
f 362/175/335 12/198/12 363/177/336
f 364/197/337 363/177/336 12/198/12
f 184/180/184 142/178/142 363/177/336
f 363/177/336 364/197/337 184/180/184
f 142/178/142 184/180/184 25/181/25
f 25/181/25 24/164/24 142/178/142
f 529/130/502 193/211/193 192/212/192
f 192/212/192 530/213/503 529/130/502
f 694/129/641 543/127/516 529/130/502
f 529/130/502 530/213/503 694/129/641
f 544/125/517 465/131/438 529/130/502
f 529/130/502 543/127/516 544/125/517
f 545/126/518 464/132/437 465/131/438
f 465/131/438 544/125/517 545/126/518
f 699/133/646 464/132/437 545/126/518
f 450/120/423 545/126/518 544/125/517
f 545/126/518 693/128/640 699/133/646
f 693/128/640 545/126/518 450/120/423
f 450/120/423 544/125/517 543/127/516
f 543/127/516 451/122/424 450/120/423
f 452/123/425 451/122/424 543/127/516
f 543/127/516 694/129/641 452/123/425
f 450/120/423 449/124/422 693/128/640
f 113/189/113 121/191/121 5/190/5
f 121/191/121 6/192/6 5/190/5
f 24/164/24 5/190/5 8/179/8
f 113/189/113 5/190/5 86/188/86
f 5/190/5 24/164/24 27/163/27
f 27/163/27 86/188/86 5/190/5
f 7/193/7 8/179/8 5/190/5
f 5/190/5 6/192/6 7/193/7
f 358/168/331 120/194/120 113/189/113
f 113/189/113 111/166/111 358/168/331
f 111/166/111 113/189/113 86/188/86
f 113/189/113 120/194/120 121/191/121
f 86/188/86 27/163/27 147/162/147
f 147/162/147 112/165/112 86/188/86
f 86/188/86 112/165/112 111/166/111
f 539/214/512 538/77/511 698/74/645
f 505/66/478 531/70/504 517/72/490
f 517/72/490 506/69/479 505/66/478
f 505/66/478 506/69/479 503/68/476
f 505/66/478 696/71/643 531/70/504
f 696/71/643 505/66/478 504/67/477
f 503/68/476 504/67/477 505/66/478
f 698/74/645 531/70/504 696/71/643
f 698/74/645 697/215/644 539/214/512
f 696/71/643 542/75/515 698/74/645
f 697/215/644 698/74/645 542/75/515
f 504/67/477 695/73/642 696/71/643
f 696/71/643 540/76/513 542/75/515
f 695/73/642 540/76/513 696/71/643
f 542/75/515 541/216/514 697/215/644
f 540/76/513 541/216/514 542/75/515
f 204/214/204 372/215/345 373/74/346
f 458/118/431 455/205/428 463/113/436
f 455/205/428 458/118/431 700/208/647
f 457/119/430 701/217/648 700/208/647
f 700/208/647 458/118/431 457/119/430
f 376/218/349 700/208/647 701/217/648
f 700/208/647 376/218/349 81/209/81
f 377/208/350 82/206/82 81/209/81
f 81/209/81 376/218/349 377/208/350
f 80/207/80 81/209/81 82/206/82
f 82/206/82 83/201/83 80/207/80
f 84/205/84 82/206/82 377/208/350
f 82/206/82 84/205/84 9/202/9
f 9/202/9 83/201/83 82/206/82
f 88/119/88 91/118/91 377/208/350
f 377/208/350 380/217/353 88/119/88
f 380/217/353 377/208/350 376/218/349
f 377/208/350 91/118/91 84/205/84
f 701/217/648 379/219/352 376/218/349
f 376/218/349 379/219/352 380/217/353
f 91/118/91 90/117/90 94/113/94
f 94/113/94 84/205/84 91/118/91
f 90/117/90 91/118/91 88/119/88
f 84/205/84 94/113/94 10/204/10
f 10/204/10 9/202/9 84/205/84
f 95/112/95 94/113/94 90/117/90
f 96/111/96 10/204/10 94/113/94
f 94/113/94 95/112/95 96/111/96
f 378/114/351 90/117/90 89/116/89
f 90/117/90 378/114/351 95/112/95
f 88/119/88 89/116/89 90/117/90
f 95/112/95 378/114/351 459/117/432
f 459/117/432 463/113/436 95/112/95
f 200/220/200 196/221/196 195/222/195
f 195/222/195 196/221/196 197/223/197
f 200/220/200 198/224/198 196/221/196
f 196/221/196 199/225/199 197/223/197
f 198/224/198 199/225/199 196/221/196
f 537/220/510 532/222/505 534/221/507
f 532/222/505 533/223/506 534/221/507
f 537/220/510 534/221/507 535/224/508
f 534/221/507 533/223/506 536/225/509
f 535/224/508 534/221/507 536/225/509
f 126/226/126 175/227/175 138/228/138
f 179/229/179 126/226/126 125/230/125
f 179/229/179 125/230/125 137/231/137
f 179/229/179 137/231/137 177/232/177
f 138/228/138 105/233/105 126/226/126
f 105/233/105 124/234/124 126/226/126
f 123/235/123 126/226/126 124/234/124
f 125/230/125 126/226/126 123/235/123
f 137/231/137 125/230/125 129/236/129
f 125/230/125 127/237/127 129/236/129
f 127/237/127 125/230/125 123/235/123
f 127/237/127 123/235/123 122/238/122
f 122/238/122 123/235/123 124/234/124
f 374/133/347 368/128/341 210/126/210
f 98/131/98 97/132/97 210/126/210
f 99/239/99 98/131/98 190/130/190
f 97/132/97 98/131/98 99/239/99
f 369/129/342 191/213/191 190/130/190
f 190/130/190 193/211/193 99/239/99
f 192/212/192 193/211/193 190/130/190
f 190/130/190 191/213/191 192/212/192
f 529/130/502 465/131/438 99/239/99
f 99/239/99 193/211/193 529/130/502
f 99/239/99 465/131/438 464/132/437
f 464/132/437 100/240/100 99/239/99
f 99/239/99 100/240/100 97/132/97
f 375/241/348 30/242/30 33/243/33
f 32/244/32 33/243/33 30/242/30
f 30/242/30 31/245/31 32/244/32
f 375/241/348 356/246/329 406/243/379
f 406/243/379 405/242/378 375/241/348
f 33/243/33 356/246/329 375/241/348
f 87/247/87 356/246/329 33/243/33
f 33/243/33 85/248/85 87/247/87
f 33/243/33 32/244/32 85/248/85
f 406/243/379 85/248/85 32/244/32
f 32/244/32 31/245/31 405/242/378
f 405/242/378 406/243/379 32/244/32
f 87/247/87 406/243/379 356/246/329
f 406/243/379 87/247/87 85/248/85
f 311/249/291 312/250/292 93/251/93
f 497/231/470 491/236/464 487/230/460
f 487/230/460 491/236/464 489/237/462
f 484/238/457 489/237/462 491/236/464
f 491/236/464 492/252/465 484/238/457
f 489/237/462 486/235/459 487/230/460
f 489/237/462 484/238/457 486/235/459
f 484/238/457 492/252/465 490/253/463
f 484/238/457 485/234/458 486/235/459
f 122/238/122 124/234/124 105/233/105
f 105/233/105 102/254/102 122/238/122
f 122/238/122 128/253/128 130/252/130
f 122/238/122 130/252/130 129/236/129
f 129/236/129 127/237/127 122/238/122
f 128/253/128 122/238/122 102/254/102
f 106/255/106 105/233/105 138/228/138
f 105/233/105 106/255/106 103/256/103
f 103/256/103 102/254/102 105/233/105
f 128/253/128 102/254/102 101/257/101
f 101/257/101 102/254/102 103/256/103
f 101/257/101 131/258/131 128/253/128
f 130/252/130 128/253/128 131/258/131
f 131/258/131 132/259/132 130/252/130
f 131/258/131 134/260/134 133/261/133
f 133/261/133 132/259/132 131/258/131
f 131/258/131 101/257/101 13/262/13
f 568/263/537 569/264/538 566/265/536
f 566/265/536 567/266/536 568/263/537
f 568/263/537 582/267/548 569/264/538
f 233/263/229 234/266/227 231/265/227
f 231/265/227 232/264/228 233/263/229
f 233/263/229 232/264/228 247/267/239
f 548/268/520 549/269/521 546/270/519
f 546/270/519 547/271/519 548/268/520
f 548/268/520 562/272/532 549/269/521
f 213/268/213 214/271/211 211/270/211
f 211/270/211 212/269/212 213/268/213
f 213/268/213 212/269/212 227/272/223
f 13/262/13 134/260/134 131/258/131
f 14/273/14 13/262/13 101/257/101
f 101/257/101 104/274/104 14/273/14
f 103/256/103 104/274/104 101/257/101
f 135/275/135 134/260/134 13/262/13
f 13/262/13 16/276/16 135/275/135
f 15/277/15 16/276/16 13/262/13
f 13/262/13 14/273/14 15/277/15
f 133/261/133 134/260/134 135/275/135
f 135/275/135 136/278/136 133/261/133
f 135/275/135 16/276/16 392/262/365
f 392/262/365 496/260/469 135/275/135
f 135/275/135 496/260/469 495/261/468
f 495/261/468 136/278/136 135/275/135
f 392/262/365 16/276/16 15/277/15
f 466/257/439 392/262/365 393/273/366
f 494/258/467 496/260/469 392/262/365
f 392/262/365 466/257/439 494/258/467
f 118/184/118 21/185/21 74/187/74
f 74/187/74 73/140/73 118/184/118
f 73/140/73 74/187/74 17/142/17
f 1/279/1 176/280/176 178/281/178
f 180/282/180 114/283/114 1/279/1
f 1/279/1 178/281/178 180/282/180
f 4/284/4 176/280/176 1/279/1
f 2/285/2 1/279/1 114/283/114
f 3/286/3 4/284/4 1/279/1
f 1/279/1 2/285/2 3/286/3
f 178/281/178 176/280/176 175/227/175
f 176/280/176 153/287/153 138/228/138
f 138/228/138 175/227/175 176/280/176
f 181/288/181 180/282/180 178/281/178
f 178/281/178 177/232/177 181/288/181
f 175/227/175 179/229/179 178/281/178
f 177/232/177 178/281/178 179/229/179
f 179/229/179 175/227/175 126/226/126
f 141/289/141 174/290/174 15/277/15
f 15/277/15 14/273/14 141/289/141
f 141/289/141 14/273/14 104/274/104
f 138/228/138 153/287/153 154/291/154
f 511/291/484 512/287/485 498/228/471
f 498/228/471 512/287/485 521/280/494
f 498/228/471 522/227/495 488/226/461
f 521/280/494 522/227/495 498/228/471
f 382/279/355 525/281/498 521/280/494
f 522/227/495 521/280/494 525/281/498
f 383/284/356 382/279/355 521/280/494
f 524/229/497 488/226/461 522/227/495
f 525/281/498 524/229/497 522/227/495
f 524/229/497 487/230/460 488/226/461
f 486/235/459 485/234/458 488/226/461
f 487/230/460 486/235/459 488/226/461
f 524/229/497 497/231/470 487/230/460
f 524/229/497 525/281/498 523/232/496
f 523/232/496 497/231/470 524/229/497
f 181/288/181 523/232/496 525/281/498
f 525/281/498 180/282/180 181/288/181
f 180/282/180 525/281/498 382/279/355
f 382/279/355 114/283/114 180/282/180
f 114/283/114 382/279/355 385/285/358
f 384/286/357 385/285/358 382/279/355
f 382/279/355 383/284/356 384/286/357
f 385/285/358 115/292/115 114/283/114
f 114/283/114 115/292/115 2/285/2
f 115/292/115 385/285/358 462/293/435
f 461/251/434 462/293/435 385/285/358
f 385/285/358 384/286/357 461/251/434
f 462/293/435 311/249/291 115/292/115
f 115/292/115 311/249/291 92/293/92
f 92/293/92 2/285/2 115/292/115
f 93/251/93 3/286/3 2/285/2
f 2/285/2 92/293/92 93/251/93
f 93/251/93 92/293/92 311/249/291
f 311/249/291 462/293/435 461/251/434
f 461/251/434 312/250/292 311/249/291
f 253/294/245 254/295/243 251/296/243
f 251/296/243 252/297/244 253/294/245
f 253/294/245 252/297/244 267/298/255
f 588/294/553 589/297/554 586/296/552
f 586/296/552 587/295/552 588/294/553
f 588/294/553 602/298/564 589/297/554
f 15/277/15 393/273/366 392/262/365
f 495/261/468 496/260/469 494/258/467
f 494/258/467 493/259/466 495/261/468
f 490/253/463 494/258/467 466/257/439
f 494/258/467 490/253/463 492/252/465
f 492/252/465 493/259/466 494/258/467
f 466/257/439 469/254/442 490/253/463
f 393/273/366 467/274/440 466/257/439
f 468/256/441 469/254/442 466/257/439
f 466/257/439 467/274/440 468/256/441
f 500/289/473 393/273/366 15/277/15
f 467/274/440 393/273/366 500/289/473
f 468/256/441 467/274/440 501/299/474
f 500/289/473 501/299/474 467/274/440
f 470/255/443 468/256/441 508/300/481
f 501/299/474 508/300/481 468/256/441
f 471/233/444 469/254/442 468/256/441
f 468/256/441 470/255/443 471/233/444
f 484/238/457 469/254/442 471/233/444
f 490/253/463 469/254/442 484/238/457
f 488/226/461 471/233/444 498/228/471
f 498/228/471 471/233/444 470/255/443
f 471/233/444 485/234/458 484/238/457
f 471/233/444 488/226/461 485/234/458
f 508/300/481 509/301/482 470/255/443
f 499/302/472 470/255/443 509/301/482
f 470/255/443 499/302/472 498/228/471
f 509/301/482 508/300/481 166/303/166
f 273/304/261 274/305/259 271/306/259
f 271/306/259 272/307/260 273/304/261
f 273/304/261 272/307/260 287/308/271
f 608/304/569 609/307/570 606/306/568
f 606/306/568 607/305/568 608/304/569
f 608/304/569 622/308/580 609/307/570
f 338/304/315 339/305/313 336/306/313
f 336/306/313 337/307/314 338/304/315
f 338/304/315 337/307/314 352/308/325
f 671/304/621 672/307/622 669/306/620
f 669/306/620 670/305/620 671/304/621
f 671/304/621 685/308/632 672/307/622
f 164/79/164 165/72/165 144/69/144
f 144/69/144 163/309/163 164/79/164
f 202/78/202 164/79/164 517/72/490
f 164/79/164 163/309/163 506/69/479
f 506/69/479 517/72/490 164/79/164
f 517/72/490 538/77/511 202/78/202
f 203/310/203 202/78/202 538/77/511
f 201/77/201 202/78/202 203/310/203
f 373/74/346 201/77/201 204/214/204
f 203/310/203 204/214/204 201/77/201
f 538/77/511 539/214/512 203/310/203
f 531/70/504 698/74/645 538/77/511
f 538/77/511 517/72/490 531/70/504
f 166/303/166 508/300/481 501/299/474
f 166/303/166 152/311/152 509/301/482
f 510/312/483 509/301/482 152/311/152
f 509/301/482 510/312/483 499/302/472
f 499/302/472 510/312/483 513/313/486
f 513/313/486 511/291/484 499/302/472
f 498/228/471 499/302/472 511/291/484
f 513/313/486 510/312/483 151/314/151
f 152/311/152 151/314/151 510/312/483
f 150/301/150 152/311/152 166/303/166
f 152/311/152 150/301/150 149/312/149
f 149/312/149 151/314/151 152/311/152
f 151/314/151 156/315/156 513/313/486
f 155/313/155 156/315/156 151/314/151
f 151/314/151 149/312/149 155/313/155
f 155/313/155 149/312/149 139/302/139
f 655/316/608 656/317/609 653/318/606
f 653/318/606 654/319/607 655/316/608
f 654/319/607 666/320/617 655/316/608
f 322/316/301 323/319/302 320/318/299
f 320/318/299 321/317/300 322/316/301
f 323/319/302 322/316/301 333/320/310
f 217/321/215 218/322/216 215/323/214
f 215/323/214 216/324/214 217/321/215
f 218/322/216 217/321/215 228/325/224
f 552/321/524 553/324/522 550/323/522
f 550/323/522 551/322/523 552/321/524
f 551/322/523 563/325/533 552/321/524
f 318/304/298 319/305/296 316/306/296
f 316/306/296 317/307/297 318/304/298
f 318/304/298 317/307/297 332/308/309
f 651/304/604 652/307/605 649/306/603
f 649/306/603 650/305/603 651/304/604
f 651/304/604 665/308/616 652/307/605
f 277/316/263 278/319/264 275/318/262
f 275/318/262 276/317/262 277/316/263
f 278/319/264 277/316/263 288/320/272
f 612/316/573 613/317/571 610/318/571
f 610/318/571 611/319/572 612/316/573
f 611/319/572 623/320/581 612/316/573
f 675/316/625 676/317/623 673/318/623
f 673/318/623 674/319/624 675/316/625
f 674/319/624 686/320/633 675/316/625
f 342/316/317 343/319/318 340/318/316
f 340/318/316 341/317/316 342/316/317
f 343/319/318 342/316/317 353/320/326
f 572/326/541 573/327/539 570/328/539
f 570/328/539 571/329/540 572/326/541
f 571/329/540 583/330/549 572/326/541
f 237/326/231 238/329/232 235/328/230
f 235/328/230 236/327/230 237/326/231
f 238/329/232 237/326/231 248/330/240
f 257/331/247 258/332/248 255/333/246
f 255/333/246 256/334/246 257/331/247
f 258/332/248 257/331/247 268/335/256
f 592/331/557 593/334/555 590/333/555
f 590/333/555 591/332/556 592/331/557
f 591/332/556 603/335/565 592/331/557
f 139/302/139 149/312/149 150/301/150
f 166/303/166 148/300/148 150/301/150
f 106/255/106 150/301/150 148/300/148
f 150/301/150 106/255/106 139/302/139
f 139/302/139 154/291/154 155/313/155
f 154/291/154 139/302/139 138/228/138
f 138/228/138 139/302/139 106/255/106
f 148/300/148 103/256/103 106/255/106
f 140/299/140 148/300/148 166/303/166
f 103/256/103 148/300/148 140/299/140
f 140/299/140 104/274/104 103/256/103
f 140/299/140 167/336/167 174/290/174
f 174/290/174 141/289/141 140/299/140
f 166/303/166 167/336/167 140/299/140
f 104/274/104 140/299/140 141/289/141
f 501/299/474 167/336/167 166/303/166
f 174/290/174 167/336/167 501/299/474
f 15/277/15 174/290/174 500/289/473
f 501/299/474 500/289/473 174/290/174
f 293/337/277 294/338/275 291/339/275
f 291/339/275 292/340/276 293/337/277
f 293/337/277 292/340/276 307/341/287
f 628/337/585 629/340/586 626/339/584
f 626/339/584 627/338/584 628/337/585
f 628/337/585 642/341/596 629/340/586
f 206/75/206 373/74/346 372/215/345
f 372/215/345 207/216/207 206/75/206
f 205/76/205 206/75/206 207/216/207
