# Blender 5.1.0
# www.blender.org
mtllib leviathan_park_adult.mtl
o leviathan_ad
v 20.413115 35.448994 -101.637985
v -0.020337 31.669525 -101.306488
v -0.020336 32.627907 -117.057289
v 13.327937 35.069977 -118.191696
v 22.018694 30.315842 -83.525238
v 24.121565 34.635498 -83.493301
v 20.413115 35.448994 -101.637985
v 18.786747 31.353495 -101.594406
v 20.073528 54.884895 98.780952
v 15.826433 50.015587 126.229828
v -0.020332 57.342453 126.230560
v -0.020332 64.732384 98.782753
v -0.020332 71.351372 79.073822
v 25.224306 59.864040 70.514282
v 24.099796 38.669312 98.821129
v 29.871048 40.357441 70.541290
v 24.372761 22.097374 70.529495
v 20.076302 22.826385 98.772560
v 21.077124 81.190765 -11.803073
v -0.020335 85.253281 -11.803329
v -0.020335 82.507019 -41.201633
v 22.095974 78.941559 -41.201595
v 22.322559 72.443367 -83.928574
v -0.020338 75.268394 -83.896835
v -0.020338 73.638596 -102.297226
v 21.044115 70.764679 -102.420578
v 39.327095 48.596798 -11.813724
v 39.931931 50.778053 -41.202969
v 39.806793 37.361107 -41.197975
v 38.856552 35.797665 -11.801127
v 30.891113 20.210196 -41.111488
v -0.020335 18.220276 -41.160034
v -0.020333 15.967635 -22.849669
v 31.748169 17.808100 -22.728392
v -0.020332 15.623060 -12.059769
v 32.444885 18.747778 -12.127783
v 35.480072 44.137955 35.071461
v 30.600136 22.097815 35.056732
v 34.251892 24.739292 0.166964
v 38.840469 47.410473 0.165341
v 39.806793 37.361107 -41.197975
v 39.931931 50.778053 -41.202969
v 40.449280 51.260624 -63.333973
v 39.736000 40.007946 -63.301239
v 14.747964 37.148777 159.878174
v 11.374393 27.712109 159.882629
v 10.551885 29.001076 173.077499
v 13.712109 36.978401 173.068314
v 46.515854 24.833572 -22.393700
v 42.596119 22.383266 -13.587369
v 36.873219 25.786127 -11.737444
v 41.323353 28.636446 -24.642168
v 46.908909 22.167084 -31.096966
v 60.662285 21.837666 -28.610106
v 57.034904 24.013573 -19.875854
v 32.444885 18.747778 -12.127783
v 41.833267 19.904514 -11.894526
v 43.971428 17.902378 -22.012672
v 31.748169 17.808100 -22.728392
v 57.769150 18.067791 -19.511328
v 61.342560 19.956013 -30.320808
v 46.011749 19.958092 -32.416138
v 52.839722 21.773088 -9.817228
v 69.632469 23.048500 -15.809912
v 65.595802 20.811119 -5.544975
v 73.379478 21.469725 -24.362976
v 52.018944 19.933498 -7.312997
v 64.928482 19.928423 -3.787251
v 72.365005 18.269047 -14.875240
v 74.182358 19.959908 -26.267235
v 82.726730 22.044502 -11.070850
v 79.315971 20.986866 -5.245061
v 85.771538 21.376839 -18.345436
v 78.403381 19.911285 -3.296768
v 84.702347 18.500957 -11.498015
v 86.752022 19.949215 -20.478403
v 64.928482 19.928423 -3.787251
v 52.018944 19.933498 -7.312997
v 78.403381 19.911285 -3.296768
v 51.995373 36.529697 234.181839
v 54.051754 34.284668 231.823822
v 56.729427 33.973499 239.478439
v 86.570572 19.946981 -5.923552
v 85.664299 20.974957 -7.400165
v 86.570572 19.946981 -5.923552
v 50.390694 34.109692 236.499329
v 41.058609 34.297577 232.092499
v 42.058628 37.529556 230.111801
v 36.873219 25.786127 -11.737444
v 41.323353 28.636446 -24.642168
v 29.936350 35.865337 196.536148
v 12.676254 36.457436 186.155304
v 9.729378 30.290035 186.158310
v 25.409576 31.069088 196.571381
v 45.687099 31.497189 222.397476
v 48.328068 35.072441 220.776764
v 50.811474 31.778601 233.807541
v 54.051754 34.284668 231.823822
v 56.729427 33.973499 239.478439
v 41.215172 31.700306 230.133163
v 50.390694 34.109692 236.499329
v 41.058609 34.297577 232.092499
v 23.648964 31.474388 222.466248
v 22.632412 34.867149 225.841766
v 9.300459 31.499626 216.085846
v 7.126633 35.276897 219.352753
v 22.095974 78.941559 -41.201595
v -0.020335 82.507019 -41.201633
v -0.020337 79.113876 -63.328152
v 22.667488 76.013229 -63.330357
v 19.342646 37.551533 126.225449
v 15.428090 25.049276 126.221878
v 13.267093 47.072029 144.453430
v -0.020332 53.040840 144.456146
v 16.515228 37.319160 144.429596
v 6.627302 84.271103 68.325745
v -0.020332 92.587845 67.808144
v -0.020332 89.411545 57.750561
v -0.020332 94.435287 81.309990
v 12.928311 26.423143 144.420807
v 10.766154 43.982460 173.061661
v -0.020332 47.197514 173.057663
v -0.020332 49.484390 159.875244
v 11.650917 45.169838 159.877289
v 11.670485 31.918224 -118.204399
v 13.327937 35.069977 -118.191696
v 7.414435 34.864033 -124.564911
v 6.293250 32.782234 -123.683487
v -0.020332 18.804649 98.771278
v -0.020332 21.756659 126.221481
v -0.020332 23.942965 144.414581
v -0.020332 25.741249 159.882446
v -0.020332 27.539536 173.078522
v -0.020332 29.337807 186.158768
v -0.020332 32.022568 208.576492
v 9.410306 31.735325 205.105408
v 35.565716 63.943161 -83.879715
v 32.155407 62.786282 -102.218460
v 35.249737 50.878654 -102.241867
v 38.915646 50.923393 -83.904266
v 29.180218 38.852543 -102.019302
v 32.850243 38.601425 -83.591110
v 36.195915 65.759201 -63.337238
v 36.033558 68.039734 -41.202137
v 36.033558 68.039734 -41.202137
v 35.052319 69.239868 -11.807444
v 34.161144 68.772720 0.165621
v 20.581188 81.289886 0.165958
v 18.545338 77.591202 35.088146
v 30.372330 66.633728 35.080433
v 17.108835 76.650314 40.228207
v -0.020336 30.154495 -101.609825
v -0.020337 28.916195 -83.546654
v 24.972990 24.563511 -63.253677
v -0.020338 22.433794 -63.253716
v -0.020335 18.220276 -41.160034
v 30.891113 20.210196 -41.111488
v 38.845352 27.192156 -41.117710
v 30.891113 20.210196 -41.111488
v 41.833267 19.904514 -11.894526
v -0.020332 80.457764 43.361053
v -0.020333 81.529999 35.090443
v 38.835732 44.706104 -73.386734
v 37.201031 40.628643 -78.191605
v 36.150066 40.715481 -73.227814
v 37.114990 36.646656 -69.636047
v 36.688683 36.761982 -76.212799
v 38.690735 40.775276 -68.233795
v 39.890816 52.116177 -73.458878
v 30.349413 33.736027 -79.264526
v 36.041046 64.992226 -73.526855
v -0.020338 77.337532 -73.713974
v 22.835077 74.626747 -73.742386
v 38.845352 27.192156 -41.117710
v 33.761688 29.031132 -63.257034
v -0.020339 73.519333 -123.220322
v 17.173288 70.064117 -123.150711
v 23.468889 62.839291 -123.409042
v 14.265448 69.316727 -135.865494
v 15.639793 62.921101 -139.380707
v 26.527449 50.874840 -123.246567
v 46.457321 37.914734 222.395035
v 48.328068 35.072441 220.776764
v 13.167180 73.978485 62.656605
v -0.020332 71.356682 79.066559
v 12.676254 36.457436 186.155304
v 29.936350 35.865337 196.536148
v 28.288944 41.445477 196.530457
v 9.881392 43.167648 186.152817
v 15.506495 50.865288 -138.643326
v 20.420076 38.658352 -121.987549
v 11.344896 37.738846 -131.645966
v -0.020336 31.111767 -118.266296
v 38.845352 27.192156 -41.117710
v 14.143742 35.988514 -119.366379
v 21.211773 35.896549 -101.651138
v 24.567192 35.592400 -83.561874
v -0.020339 36.538319 -133.756973
v -0.020339 34.716724 -128.754669
v 7.763620 35.370567 -127.156891
v -0.020334 85.425690 0.166069
v 14.143742 35.988514 -119.366379
v -0.020339 38.608612 -125.422501
v -0.020338 40.536652 -101.708786
v 21.211773 35.896549 -101.651138
v 24.121565 34.635498 -83.493301
v -0.020337 30.958603 -81.378685
v -0.020336 34.815041 -125.913498
v 7.414435 34.864033 -124.564911
v 9.166151 42.509003 196.527466
v -0.020332 43.583523 196.522903
v -0.020332 45.263123 186.151535
v -0.020339 50.819176 -142.857574
v -0.020339 63.637554 -143.172791
v 7.763620 35.370567 -127.156891
v -0.020339 34.716724 -128.754669
v -0.020338 39.421066 -82.339859
v 24.567192 35.592400 -83.561874
v -0.020339 71.796463 -138.093979
v 24.406313 32.483101 -80.025726
v 23.944094 28.023411 -74.028915
v 30.082424 29.859266 -73.298325
v 24.406313 32.483101 -80.025726
v -0.020338 25.897331 -74.783752
v 23.944094 28.023411 -74.028915
v 22.018694 30.315842 -83.525238
v 23.944094 28.023411 -74.028915
v 24.406313 32.483101 -80.025726
v -0.020338 25.897331 -74.783752
v -0.020338 22.433794 -63.253716
v 24.972990 24.563511 -63.253677
v 32.444885 18.747778 -12.127783
v -0.020332 14.587454 35.039162
v -0.020332 16.128990 70.529373
v -0.020332 15.424047 0.167305
v 24.406313 32.483101 -80.025726
v 24.567192 35.592400 -83.561874
v -0.020338 39.421066 -82.339859
v -0.020338 34.734241 -75.275116
v -0.020338 34.734241 -75.275116
v 24.406313 32.483101 -80.025726
v 22.632412 34.867149 225.841766
v 23.414387 38.894188 222.970398
v -0.020332 35.532078 213.103439
v 37.504719 43.944298 -73.318268
v 36.375664 40.531445 -76.642365
v 38.412231 40.590969 -73.208328
v 36.314331 37.585907 -70.726868
v 36.019691 37.320805 -75.278107
v 37.405293 40.632851 -69.751389
v 7.337320 40.262314 215.558411
v 7.126633 35.276897 219.352753
v -0.020332 35.532078 213.103439
v -0.020332 41.516052 209.768478
v 27.189001 38.211586 -90.354675
v 26.136660 38.555016 -94.128693
v 25.333284 35.147572 -93.014755
v 25.857864 34.978901 -91.127762
v 21.849529 38.727257 -93.226562
v 23.188080 35.234272 -92.563721
v 25.333284 35.147572 -93.014755
v 26.136660 38.555016 -94.128693
v 22.888527 38.381874 -89.452530
v 23.709291 35.065014 -90.676682
v 23.188080 35.234272 -92.563721
v 21.849529 38.727257 -93.226562
v 22.888527 38.381874 -89.452530
v 27.189001 38.211586 -90.354675
v 25.857864 34.978901 -91.127762
v 23.709291 35.065014 -90.676682
v 23.676786 31.761332 -91.952698
v 23.676786 31.761332 -91.952698
v 23.676786 31.761332 -91.952698
v 23.676786 31.761332 -91.952698
v 28.213617 38.249451 -84.915192
v 27.285786 38.831486 -88.679794
v 26.437698 35.367783 -87.805374
v 26.900505 35.079144 -85.923050
v 22.952450 38.951950 -87.872910
v 24.270020 35.428402 -87.401901
v 26.437698 35.367783 -87.805374
v 27.285786 38.831486 -88.679794
v 23.869173 38.368382 -84.108322
v 24.730032 35.139324 -85.519623
v 24.270020 35.428402 -87.401901
v 22.952450 38.951950 -87.872910
v 23.869173 38.368382 -84.108322
v 28.213617 38.249451 -84.915192
v 26.900505 35.079144 -85.923050
v 24.730032 35.139324 -85.519623
v 24.724310 31.919188 -86.956329
v 24.724310 31.919188 -86.956329
v 24.724310 31.919188 -86.956329
v 24.724310 31.919188 -86.956329
v 24.484938 37.994415 -100.426102
v 23.265636 38.436745 -104.150085
v 22.541119 34.971554 -103.127563
v 23.148752 34.755203 -101.265564
v 19.063992 38.562431 -103.101669
v 20.438488 35.035591 -102.603378
v 22.541119 34.971554 -103.127563
v 23.265636 38.436745 -104.150085
v 20.266033 38.117882 -99.377670
v 21.041771 34.818611 -100.741348
v 20.438488 35.035591 -102.603378
v 19.063992 38.562431 -103.101669
v 20.266033 38.117882 -99.377670
v 24.484938 37.994415 -100.426102
v 23.148752 34.755203 -101.265564
v 21.041771 34.818611 -100.741348
v 20.969587 31.526293 -102.128235
v 20.969587 31.526293 -102.128235
v 20.969587 31.526293 -102.128235
v 20.969587 31.526293 -102.128235
v 22.591732 37.914642 -105.832428
v 21.372305 38.314003 -109.560867
v 20.654907 34.845345 -108.506500
v 21.262300 34.651451 -106.642334
v 17.198389 38.452934 -108.513474
v 18.565834 34.916275 -107.982819
v 20.654907 34.845345 -108.506500
v 21.372305 38.314003 -109.560867
v 18.398186 38.051231 -104.785004
v 19.168261 34.721695 -106.118591
v 18.565834 34.916275 -107.982819
v 17.198389 38.452934 -108.513474
v 18.398186 38.051231 -104.785004
v 22.591732 37.914642 -105.832428
v 21.262300 34.651451 -106.642334
v 19.168261 34.721695 -106.118591
v 19.095118 31.397633 -107.475540
v 19.095118 31.397633 -107.475540
v 19.095118 31.397633 -107.475540
v 19.095118 31.397633 -107.475540
v 20.507250 37.961910 -110.703537
v 18.939486 38.196011 -114.346146
v 18.392036 34.754829 -113.102493
v 19.173557 34.644096 -111.281204
v 14.911036 38.343132 -112.979874
v 16.375368 34.830559 -112.419373
v 18.392036 34.754829 -113.102493
v 18.939486 38.196011 -114.346146
v 16.458868 38.105907 -109.337250
v 17.151867 34.718899 -110.598053
v 16.375368 34.830559 -112.419373
v 14.911036 38.343132 -112.979874
v 16.458868 38.105907 -109.337250
v 20.507250 37.961910 -110.703537
v 19.173557 34.644096 -111.281204
v 17.151867 34.718899 -110.598053
v 17.008785 31.328899 -111.817230
v 17.008785 31.328899 -111.817230
v 17.008785 31.328899 -111.817230
v 17.008785 31.328899 -111.817230
v 18.340654 38.379902 -115.861633
v 16.408487 38.215698 -119.371094
v 16.210987 34.874260 -117.786362
v 17.175528 34.962772 -116.031586
v 12.570175 38.328514 -117.667328
v 14.288824 34.933537 -116.934418
v 16.210987 34.874260 -117.786362
v 16.408487 38.215698 -119.371094
v 14.483379 38.488392 -114.157913
v 15.248575 35.020798 -115.179749
v 14.288824 34.933537 -116.934418
v 12.570175 38.328514 -117.667328
v 14.483379 38.488392 -114.157913
v 18.340654 38.379902 -115.861633
v 17.175528 34.962772 -116.031586
v 15.248575 35.020798 -115.179749
v 15.193478 31.522463 -116.087234
v 15.193478 31.522463 -116.087234
v 15.193478 31.522463 -116.087234
v 15.193478 31.522463 -116.087234
v 5.773916 37.243980 -129.068741
v 1.752364 37.169628 -130.100418
v 2.785806 33.838615 -128.685104
v 4.801120 33.878075 -128.169220
v 0.641416 37.634239 -126.313202
v 2.234560 34.080315 -126.791428
v 2.785806 33.838615 -128.685104
v 1.752364 37.169628 -130.100418
v 4.689634 37.705040 -125.281448
v 4.256522 34.118767 -126.275589
v 2.234560 34.080315 -126.791428
v 0.641416 37.634239 -126.313202
v 4.689634 37.705040 -125.281448
v 5.773916 37.243980 -129.068741
v 4.801120 33.878075 -128.169220
v 4.256522 34.118767 -126.275589
v 3.392950 30.574226 -126.629593
v 3.392950 30.574226 -126.629593
v 3.392950 30.574226 -126.629593
v 3.392950 30.574226 -126.629593
v 25.717339 38.165466 -95.549606
v 24.659060 38.473045 -99.326340
v 23.862648 35.066288 -98.187714
v 24.389847 34.916382 -96.299377
v 20.392910 38.654640 -98.425415
v 21.727600 35.157845 -97.737228
v 23.862648 35.066288 -98.187714
v 24.659060 38.473045 -99.326340
v 21.435617 38.344940 -94.648682
v 22.250929 35.007324 -95.848877
v 21.727600 35.157845 -97.737228
v 20.392910 38.654640 -98.425415
v 21.435617 38.344940 -94.648682
v 25.717339 38.165466 -95.549606
v 24.389847 34.916382 -96.299377
v 22.250929 35.007324 -95.848877
v 22.216093 31.681328 -97.101044
v 22.216093 31.681328 -97.101044
v 22.216093 31.681328 -97.101044
v 22.216093 31.681328 -97.101044
v -0.020336 34.815041 -125.913498
v -0.020336 32.068722 -124.588409
v 88.486580 21.002260 -12.440054
v 90.713882 19.948092 -12.956364
v 90.713882 19.948092 -12.956364
v 12.090317 37.787025 -125.181046
v 9.191738 37.619530 -128.039261
v 9.496947 34.247437 -126.460464
v 10.946916 34.337566 -125.031372
v 6.116516 37.774338 -125.364304
v 7.958889 34.330776 -125.123001
v 9.496947 34.247437 -126.460464
v 9.191738 37.619530 -128.039261
v 9.010145 37.935894 -122.506104
v 9.407609 34.419212 -123.693863
v 7.958889 34.330776 -125.123001
v 6.116516 37.774338 -125.364304
v 9.010145 37.935894 -122.506104
v 12.090317 37.787025 -125.181046
v 10.946916 34.337566 -125.031372
v 9.407609 34.419212 -123.693863
v 9.072084 30.877184 -124.551819
v 9.072084 30.877184 -124.551819
v 9.072084 30.877184 -124.551819
v 9.072084 30.877184 -124.551819
v 15.472286 38.269367 -120.209702
v 13.277059 38.098740 -123.579254
v 13.209870 34.743488 -121.982361
v 14.306472 34.835659 -120.297577
v 9.618194 38.224190 -121.607071
v 11.377893 34.809994 -120.996323
v 13.209870 34.743488 -121.982361
v 13.277059 38.098740 -123.579254
v 11.796713 38.389874 -118.237534
v 12.470274 34.900745 -119.311508
v 11.377893 34.809994 -120.996323
v 9.618194 38.224190 -121.607071
v 11.796713 38.389874 -118.237534
v 15.472286 38.269367 -120.209702
v 14.306472 34.835659 -120.297577
v 12.470274 34.900745 -119.311508
v 12.341675 31.381702 -120.213898
v 12.341675 31.381702 -120.213898
v 12.341675 31.381702 -120.213898
v 12.341675 31.381702 -120.213898
v -0.020332 80.452438 43.384365
v 9.729378 30.290035 186.158310
v 12.676254 36.457436 186.155304
v 9.881392 43.167648 186.152817
v -0.020332 45.263123 186.151535
v -0.020332 29.337807 186.158768
v 13.167180 73.978485 62.656605
v -0.020332 71.356682 79.066559
v -0.020332 78.654800 78.209549
v -0.020332 80.452438 43.384365
v -20.453793 35.448986 -101.637985
v -13.368607 35.069973 -118.191696
v -22.059374 30.315834 -83.525238
v -18.827423 31.353489 -101.594406
v -20.453793 35.448986 -101.637985
v -24.162243 34.635490 -83.493317
v -20.114197 54.884892 98.780952
v -15.867097 50.015587 126.229828
v -25.264973 59.864040 70.514282
v -24.140465 38.669312 98.821129
v -20.116970 22.826385 98.772560
v -24.413427 22.097374 70.529495
v -29.911713 40.357441 70.541290
v -21.117794 81.190765 -11.803070
v -22.136646 78.941559 -41.201588
v -22.363243 72.443367 -83.928574
v -21.084801 70.764679 -102.420578
v -39.367767 48.596798 -11.813717
v -38.897224 35.797661 -11.801122
v -39.847466 37.361107 -41.197968
v -39.972599 50.778046 -41.202961
v -30.931787 20.210194 -41.111481
v -31.788834 17.808100 -22.728388
v -32.485554 18.747778 -12.127776
v -30.640797 22.097807 35.056732
v -35.520737 44.137955 35.071461
v -38.881134 47.410473 0.165346
v -34.292557 24.739292 0.166969
v -39.847466 37.361107 -41.197968
v -39.776672 40.007946 -63.301239
v -40.489952 51.260624 -63.333965
v -39.972599 50.778046 -41.202961
v -14.788627 37.148777 159.878174
v -13.752770 36.978401 173.068314
v -10.592546 29.001076 173.077515
v -11.415054 27.712109 159.882629
v -46.556519 24.833569 -22.393696
v -41.364021 28.636446 -24.642160
v -36.913891 25.786125 -11.737439
v -42.636787 22.383265 -13.587364
v -57.075562 24.013559 -19.875849
v -60.702950 21.837662 -28.610102
v -46.949577 22.167084 -31.096960
v -32.485554 18.747778 -12.127776
v -31.788834 17.808100 -22.728388
v -44.012093 17.902376 -22.012671
v -41.873932 19.904520 -11.894523
v -57.809814 18.067787 -19.511322
v -46.052410 19.958080 -32.416126
v -61.383224 19.956011 -30.320801
v -52.880379 21.773088 -9.817223
v -65.636459 20.811117 -5.544962
v -69.673126 23.048496 -15.809900
v -73.420151 21.469721 -24.362968
v -52.059601 19.933496 -7.312990
v -72.405670 18.269043 -14.875228
v -64.969147 19.928427 -3.787240
v -74.223022 19.959894 -26.267227
v -79.356644 20.986864 -5.245046
v -82.767395 22.044498 -11.070834
v -85.812210 21.376835 -18.345425
v -84.743011 18.500959 -11.497999
v -78.444046 19.911274 -3.296753
v -86.792694 19.949209 -20.478390
v -52.059601 19.933496 -7.312990
v -64.969147 19.928427 -3.787240
v -78.444046 19.911274 -3.296753
v -52.036049 36.529713 234.181839
v -56.770100 33.973515 239.478439
v -54.092430 34.284679 231.823837
v -86.611252 19.946978 -5.923533
v -85.704971 20.974953 -7.400147
v -86.611252 19.946978 -5.923533
v -42.099300 37.529560 230.111801
v -41.099277 34.297581 232.092499
v -50.431366 34.109707 236.499329
v -36.913891 25.786125 -11.737439
v -41.364021 28.636446 -24.642160
v -29.977020 35.865341 196.536148
v -25.450251 31.069096 196.571381
v -9.770039 30.290035 186.158310
v -12.716915 36.457436 186.155304
v -45.727768 31.497200 222.397476
v -48.368736 35.072460 220.776764
v -54.092430 34.284679 231.823837
v -50.852150 31.778610 233.807541
v -56.770100 33.973515 239.478439
v -41.255844 31.700314 230.133179
v -50.431366 34.109707 236.499329
v -41.099277 34.297581 232.092499
v -23.689640 31.474400 222.466248
v -22.673086 34.867153 225.841766
v -7.167301 35.276897 219.352753
v -9.341126 31.499632 216.085846
v -22.136646 78.941559 -41.201588
v -22.708168 76.013229 -63.330349
v -19.383312 37.551537 126.225433
v -15.468754 25.049276 126.221878
v -13.307755 47.072033 144.453430
v -16.555893 37.319160 144.429596
v -6.667966 84.271103 68.325745
v -12.968973 26.423143 144.420807
v -10.806816 43.982460 173.061661
v -11.691580 45.169838 159.877289
v -11.711156 31.918221 -118.204399
v -6.333921 32.782234 -123.683487
v -7.455106 34.864033 -124.564911
v -13.368607 35.069973 -118.191696
v -9.450974 31.735331 205.105408
v -35.606384 63.943157 -83.879715
v -38.956318 50.923393 -83.904266
v -35.290409 50.878654 -102.241867
v -32.196079 62.786282 -102.218460
v -32.890915 38.601425 -83.591110
v -29.220900 38.852543 -102.019302
v -36.236588 65.759201 -63.337238
v -36.074238 68.039734 -41.202129
v -35.092991 69.239868 -11.807438
v -36.074238 68.039734 -41.202129
v -20.621859 81.289886 0.165961
v -34.201820 68.772720 0.165626
v -18.586010 77.591202 35.088146
v -17.149504 76.650314 40.228207
v -30.412998 66.633728 35.080433
v -25.013670 24.563511 -63.253677
v -30.931787 20.210194 -41.111481
v -38.886021 27.192154 -41.117702
v -30.931787 20.210194 -41.111481
v -41.873932 19.904520 -11.894523
v -38.876404 44.706104 -73.386734
v -36.190739 40.715481 -73.227814
v -37.241703 40.628647 -78.191605
v -37.155663 36.646656 -69.636047
v -36.729351 36.761982 -76.212799
v -38.731407 40.775276 -68.233795
v -39.931488 52.116173 -73.458878
v -30.390091 33.736027 -79.264526
v -36.081722 64.992226 -73.526855
v -22.875759 74.626747 -73.742386
v -38.886021 27.192154 -41.117702
v -33.802361 29.031132 -63.257034
v -17.213970 70.064117 -123.150711
v -23.509571 62.839291 -123.409042
v -15.680470 62.921101 -139.380707
v -14.306125 69.316727 -135.865494
v -26.568130 50.874836 -123.246567
v -46.497986 37.914745 222.395050
v -48.368736 35.072460 220.776764
v -13.207843 73.978485 62.656612
v -12.716915 36.457436 186.155304
v -9.922054 43.167648 186.152817
v -28.329620 41.445480 196.530457
v -29.977020 35.865341 196.536148
v -15.547172 50.865288 -138.643326
v -20.460758 38.658352 -121.987549
v -11.385571 37.738846 -131.645966
v -38.886021 27.192154 -41.117702
v -21.252457 35.896549 -101.651138
v -14.184417 35.988510 -119.366379
v -24.607876 35.592400 -83.561874
v -7.804298 35.370567 -127.156891
v -14.184417 35.988510 -119.366379
v -21.252457 35.896549 -101.651138
v -24.162243 34.635490 -83.493317
v -7.455106 34.864033 -124.564911
v -9.206820 42.509003 196.527496
v -7.804298 35.370567 -127.156891
v -24.607876 35.592400 -83.561874
v -24.446993 32.483105 -80.025726
v -23.984777 28.023411 -74.028915
v -30.123104 29.859266 -73.298325
v -24.446993 32.483105 -80.025726
v -23.984777 28.023411 -74.028915
v -22.059374 30.315834 -83.525238
v -24.446993 32.483105 -80.025726
v -23.984777 28.023411 -74.028915
v -25.013670 24.563511 -63.253677
v -32.485554 18.747778 -12.127776
v -24.446993 32.483105 -80.025726
v -24.607876 35.592400 -83.561874
v -24.446993 32.483105 -80.025726
v -22.673086 34.867153 225.841766
v -23.455059 38.894199 222.970398
v -37.545391 43.944294 -73.318268
v -38.452904 40.590969 -73.208328
v -36.416336 40.531441 -76.642365
v -36.355003 37.585907 -70.726868
v -36.060364 37.320805 -75.278107
v -37.445965 40.632847 -69.751389
v -7.377989 40.262314 215.558411
v -7.167301 35.276897 219.352753
v -27.229685 38.211586 -90.354675
v -25.898548 34.978901 -91.127762
v -25.373968 35.147572 -93.014755
v -26.177343 38.555012 -94.128693
v -21.890215 38.727257 -93.226562
v -26.177343 38.555012 -94.128693
v -25.373968 35.147572 -93.014755
v -23.228764 35.234272 -92.563721
v -22.929207 38.381874 -89.452530
v -21.890215 38.727257 -93.226562
v -23.228764 35.234272 -92.563721
v -23.749973 35.065014 -90.676682
v -22.929207 38.381874 -89.452530
v -23.749973 35.065014 -90.676682
v -25.898548 34.978901 -91.127762
v -27.229685 38.211586 -90.354675
v -23.717468 31.761332 -91.952698
v -23.717468 31.761332 -91.952698
v -23.717468 31.761332 -91.952698
v -23.717468 31.761332 -91.952698
v -28.254301 38.249447 -84.915192
v -26.941189 35.079147 -85.923050
v -26.478382 35.367783 -87.805374
v -27.326469 38.831486 -88.679794
v -22.993134 38.951950 -87.872910
v -27.326469 38.831486 -88.679794
v -26.478382 35.367783 -87.805374
v -24.310701 35.428402 -87.401901
v -23.909857 38.368382 -84.108322
v -22.993134 38.951950 -87.872910
v -24.310701 35.428402 -87.401901
v -24.770716 35.139328 -85.519623
v -23.909857 38.368382 -84.108322
v -24.770716 35.139328 -85.519623
v -26.941189 35.079147 -85.923050
v -28.254301 38.249447 -84.915192
v -24.764992 31.919188 -86.956329
v -24.764992 31.919188 -86.956329
v -24.764992 31.919188 -86.956329
v -24.764992 31.919188 -86.956329
v -24.525620 37.994411 -100.426102
v -23.189434 34.755203 -101.265564
v -22.581802 34.971554 -103.127563
v -23.306320 38.436745 -104.150085
v -19.104675 38.562435 -103.101669
v -23.306320 38.436745 -104.150085
v -22.581802 34.971554 -103.127563
v -20.479172 35.035591 -102.603378
v -20.306717 38.117882 -99.377670
v -19.104675 38.562435 -103.101669
v -20.479172 35.035591 -102.603378
v -21.082455 34.818611 -100.741348
v -20.306717 38.117882 -99.377670
v -21.082455 34.818611 -100.741348
v -23.189434 34.755203 -101.265564
v -24.525620 37.994411 -100.426102
v -21.010271 31.526293 -102.128235
v -21.010271 31.526293 -102.128235
v -21.010271 31.526293 -102.128235
v -21.010271 31.526293 -102.128235
v -22.632414 37.914642 -105.832428
v -21.302984 34.651451 -106.642334
v -20.695589 34.845345 -108.506500
v -21.412989 38.314003 -109.560867
v -17.239075 38.452934 -108.513474
v -21.412989 38.314003 -109.560867
v -20.695589 34.845345 -108.506500
v -18.606518 34.916275 -107.982819
v -18.438869 38.051231 -104.785004
v -17.239075 38.452934 -108.513474
v -18.606518 34.916275 -107.982819
v -19.208944 34.721695 -106.118591
v -18.438869 38.051231 -104.785004
v -19.208944 34.721695 -106.118591
v -21.302984 34.651451 -106.642334
v -22.632414 37.914642 -105.832428
v -19.135801 31.397633 -107.475540
v -19.135801 31.397633 -107.475540
v -19.135801 31.397633 -107.475540
v -19.135801 31.397633 -107.475540
v -20.547934 37.961906 -110.703537
v -19.214243 34.644096 -111.281204
v -18.432718 34.754829 -113.102493
v -18.980169 38.196011 -114.346146
v -14.951714 38.343132 -112.979874
v -18.980169 38.196011 -114.346146
v -18.432718 34.754829 -113.102493
v -16.416052 34.830559 -112.419373
v -16.499552 38.105907 -109.337250
v -14.951714 38.343132 -112.979874
v -16.416052 34.830559 -112.419373
v -17.192551 34.718899 -110.598053
v -16.499552 38.105907 -109.337250
v -17.192551 34.718899 -110.598053
v -19.214243 34.644096 -111.281204
v -20.547934 37.961906 -110.703537
v -17.049467 31.328899 -111.817230
v -17.049467 31.328899 -111.817230
v -17.049467 31.328899 -111.817230
v -17.049467 31.328899 -111.817230
v -18.381336 38.379902 -115.861633
v -17.216211 34.962772 -116.031586
v -16.251669 34.874260 -117.786362
v -16.449171 38.215698 -119.371094
v -12.610850 38.328514 -117.667328
v -16.449171 38.215698 -119.371094
v -16.251669 34.874260 -117.786362
v -14.329499 34.933540 -116.934418
v -14.524055 38.488392 -114.157913
v -12.610850 38.328514 -117.667328
v -14.329499 34.933540 -116.934418
v -15.289252 35.020798 -115.179749
v -14.524055 38.488392 -114.157913
v -15.289252 35.020798 -115.179749
v -17.216211 34.962772 -116.031586
v -18.381336 38.379902 -115.861633
v -15.234155 31.522463 -116.087234
v -15.234155 31.522463 -116.087234
v -15.234155 31.522463 -116.087234
v -15.234155 31.522463 -116.087234
v -5.814594 37.243980 -129.068741
v -4.841796 33.878075 -128.169220
v -2.826483 33.838615 -128.685104
v -1.793042 37.169624 -130.100418
v -0.682093 37.634239 -126.313202
v -1.793042 37.169624 -130.100418
v -2.826483 33.838615 -128.685104
v -2.275236 34.080315 -126.791428
v -4.730312 37.705040 -125.281448
v -0.682093 37.634239 -126.313202
v -2.275236 34.080315 -126.791428
v -4.297201 34.118767 -126.275589
v -4.730312 37.705040 -125.281448
v -4.297201 34.118767 -126.275589
v -4.841796 33.878075 -128.169220
v -5.814594 37.243980 -129.068741
v -3.433627 30.574226 -126.629593
v -3.433627 30.574226 -126.629593
v -3.433627 30.574226 -126.629593
v -3.433627 30.574226 -126.629593
v -25.758022 38.165466 -95.549606
v -24.430529 34.916382 -96.299377
v -23.903330 35.066292 -98.187714
v -24.699743 38.473045 -99.326340
v -20.433594 38.654640 -98.425415
v -24.699743 38.473045 -99.326340
v -23.903330 35.066292 -98.187714
v -21.768284 35.157845 -97.737228
v -21.476301 38.344940 -94.648682
v -20.433594 38.654640 -98.425415
v -21.768284 35.157845 -97.737228
v -22.291613 35.007320 -95.848877
v -21.476301 38.344940 -94.648682
v -22.291613 35.007320 -95.848877
v -24.430529 34.916382 -96.299377
v -25.758022 38.165466 -95.549606
v -22.256779 31.681326 -97.101044
v -22.256779 31.681326 -97.101044
v -22.256779 31.681326 -97.101044
v -22.256779 31.681326 -97.101044
v -88.527252 21.002264 -12.440037
v -90.754547 19.948080 -12.956347
v -90.754547 19.948080 -12.956347
v -12.130992 37.787025 -125.181046
v -10.987592 34.337566 -125.031372
v -9.537622 34.247437 -126.460464
v -9.232414 37.619530 -128.039261
v -6.157195 37.774338 -125.364304
v -9.232414 37.619530 -128.039261
v -9.537622 34.247437 -126.460464
v -7.999567 34.330776 -125.123001
v -9.050820 37.935894 -122.506104
v -6.157195 37.774338 -125.364304
v -7.999567 34.330776 -125.123001
v -9.448284 34.419212 -123.693863
v -9.050820 37.935894 -122.506104
v -9.448284 34.419212 -123.693863
v -10.987592 34.337566 -125.031372
v -12.130992 37.787025 -125.181046
v -9.112760 30.877184 -124.551819
v -9.112760 30.877184 -124.551819
v -9.112760 30.877184 -124.551819
v -9.112760 30.877184 -124.551819
v -15.512963 38.269367 -120.209702
v -14.347147 34.835659 -120.297577
v -13.250546 34.743488 -121.982361
v -13.317734 38.098740 -123.579254
v -9.658869 38.224190 -121.607071
v -13.317734 38.098740 -123.579254
v -13.250546 34.743488 -121.982361
v -11.418569 34.809994 -120.996323
v -11.837388 38.389874 -118.237534
v -9.658869 38.224190 -121.607071
v -11.418569 34.809994 -120.996323
v -12.510949 34.900745 -119.311508
v -11.837388 38.389874 -118.237534
v -12.510949 34.900745 -119.311508
v -14.347147 34.835659 -120.297577
v -15.512963 38.269367 -120.209702
v -12.382350 31.381702 -120.213898
v -12.382350 31.381702 -120.213898
v -12.382350 31.381702 -120.213898
v -12.382350 31.381702 -120.213898
v -9.770039 30.290035 186.158310
v -12.716915 36.457436 186.155304
v -9.922054 43.167648 186.152817
v -13.207843 73.978485 62.656612
vn 0.1674 -0.9842 -0.0568
vn -0.0000 -0.9988 -0.0480
vn -0.0000 -0.9930 -0.1181
vn 0.1732 -0.9819 -0.0761
vn -0.4920 0.8373 0.2384
vn -0.8705 0.4219 0.2535
vn -0.8876 0.3682 0.2767
vn -0.5883 0.7796 0.2149
vn -0.7573 -0.6054 -0.2450
vn -0.7439 -0.6341 -0.2110
vn -0.0000 -0.9707 -0.2401
vn -0.0000 -0.9565 -0.2917
vn -0.0000 -0.9003 -0.4352
vn -0.8062 -0.5281 -0.2667
vn -0.9829 0.0079 -0.1842
vn -0.9827 0.0261 -0.1835
vn -0.6790 0.7235 -0.1248
vn -0.6773 0.7208 -0.1471
vn -0.4348 -0.9003 0.0198
vn -0.0000 -0.9987 0.0512
vn -0.0000 -0.9968 0.0796
vn -0.4163 -0.9081 0.0455
vn -0.3509 -0.9242 0.1507
vn -0.0000 -0.9895 0.1446
vn -0.0000 -0.9979 0.0647
vn -0.3715 -0.9216 0.1127
vn -0.9952 -0.0883 -0.0423
vn -0.9939 -0.1077 -0.0243
vn -0.9995 0.0053 0.0307
vn -0.9858 0.0951 -0.1384
vn -0.0599 0.9899 0.1286
vn -0.0000 0.9925 0.1221
vn -0.0000 0.9969 0.0788
vn -0.0740 0.9967 0.0331
vn -0.0000 0.9999 0.0124
vn -0.3517 0.9133 -0.2054
vn -0.9915 -0.0048 -0.1300
vn -0.7097 0.7013 -0.0672
vn -0.7575 0.6301 -0.1708
vn -0.9952 -0.0301 -0.0934
vn -0.9980 0.0627 0.0019
vn -0.9931 -0.1167 -0.0125
vn -0.9948 -0.0980 0.0293
vn -0.9637 0.2277 0.1394
vn -0.9946 -0.0121 -0.1031
vn -0.6381 0.7605 -0.1204
vn -0.6199 0.7762 -0.1152
vn -0.9964 -0.0083 -0.0848
vn -0.3109 -0.9490 -0.0512
vn -0.2460 -0.7413 -0.6245
vn -0.3220 -0.4064 -0.8551
vn -0.5908 -0.8060 -0.0350
vn -0.4745 -0.6798 0.5592
vn -0.1447 -0.8651 0.4803
vn -0.0658 -0.9977 -0.0146
vn -0.0528 0.9879 -0.1461
vn -0.0370 0.9816 -0.1874
vn -0.0313 0.9995 0.0054
vn -0.0094 0.9995 0.0292
vn -0.0055 0.9999 0.0138
vn -0.2330 0.3055 0.9232
vn -0.3966 0.6513 0.6470
vn 0.1004 -0.9103 -0.4016
vn -0.0598 -0.9975 -0.0379
vn 0.0279 -0.9414 -0.3360
vn -0.1715 -0.9191 0.3549
vn 0.0437 0.9907 -0.1288
vn 0.0247 0.9910 -0.1317
vn -0.0175 0.9998 -0.0034
vn -0.3691 0.2323 0.8999
vn -0.0988 -0.9921 -0.0779
vn -0.0671 -0.9234 -0.3779
vn -0.3182 -0.9197 0.2299
vn -0.0053 0.9862 -0.1655
vn -0.1229 0.9913 -0.0474
vn -0.6645 0.1642 0.7290
vn 0.0572 -0.8935 -0.4453
vn 0.1937 -0.8199 -0.5388
vn -0.0434 -0.8659 -0.4984
vn -0.2075 -0.9492 -0.2367
vn -0.6243 -0.7538 0.2049
vn -0.2085 -0.9407 -0.2676
vn -0.3171 -0.8561 -0.4081
vn -0.2637 -0.9151 -0.3051
vn -0.1463 0.9684 -0.2022
vn 0.2676 -0.7531 -0.6011
vn 0.2586 -0.5832 -0.7701
vn 0.1119 -0.8711 -0.4782
vn -0.9302 0.3038 -0.2058
vn -0.9923 -0.1053 -0.0660
vn -0.5969 0.5498 0.5843
vn -0.4948 0.2368 0.8361
vn -0.2274 0.9456 0.2326
vn -0.3385 0.8583 0.3856
vn -0.3573 0.9056 0.2285
vn -0.6226 0.6544 0.4291
vn -0.1353 0.9686 -0.2085
vn -0.5326 0.8134 0.2339
vn -0.1950 0.9659 -0.1704
vn 0.1826 0.8860 -0.4263
vn 0.2801 0.7342 -0.6184
vn 0.3353 0.5904 -0.7341
vn 0.1464 0.9220 -0.3584
vn 0.2635 0.7189 -0.6432
vn 0.2316 0.9143 -0.3323
vn 0.3844 0.7206 -0.5770
vn -0.3785 -0.9184 0.1150
vn -0.0000 -0.9884 0.1516
vn -0.0000 -0.9881 0.1540
vn -0.3755 -0.9197 0.1145
vn -0.9857 0.0120 -0.1679
vn -0.6591 0.7358 -0.1556
vn -0.7300 -0.6581 -0.1843
vn -0.0000 -0.9778 -0.2094
vn -0.9890 0.0006 -0.1481
vn -0.8956 -0.4005 -0.1934
vn -0.0000 -0.9771 0.2130
vn -0.0000 -0.9104 0.4138
vn -0.0000 -0.6670 -0.7451
vn -0.6507 0.7463 -0.1400
vn -0.6741 -0.7309 -0.1066
vn -0.0000 -0.9900 -0.1409
vn -0.0000 -0.9829 -0.1842
vn -0.7047 -0.6957 -0.1393
vn -0.4960 0.7846 0.3720
vn -0.7834 0.4101 0.4669
vn -0.4253 0.5006 0.7540
vn -0.2629 0.7640 0.5893
vn -0.0000 0.9947 -0.1029
vn -0.0000 0.9941 -0.1086
vn -0.0000 0.9935 -0.1135
vn -0.0000 0.9931 -0.1175
vn -0.0000 0.9919 -0.1270
vn -0.0000 0.9929 -0.1189
vn -0.0000 0.9757 -0.2189
vn 0.0259 0.9994 -0.0250
vn -0.8090 -0.5711 0.1393
vn -0.8142 -0.5280 0.2415
vn -0.9531 0.1030 0.2846
vn -0.9802 0.0604 0.1885
vn -0.6566 0.7251 0.2075
vn -0.6508 0.6615 0.3726
vn -0.8294 -0.5567 0.0461
vn -0.8334 -0.5504 0.0506
vn -0.8507 -0.5256 -0.0069
vn -0.8548 -0.5172 -0.0420
vn -0.8609 -0.4997 -0.0952
vn -0.4492 -0.8911 -0.0640
vn -0.4601 -0.8654 -0.1984
vn -0.8483 -0.5017 -0.1695
vn -0.4420 -0.8695 -0.2204
vn -0.0000 0.9979 0.0641
vn -0.0000 0.9798 0.1998
vn -0.2879 0.9246 0.2497
vn -0.0000 0.9823 0.1873
vn -0.0000 0.9803 0.1976
vn -0.3727 0.8991 0.2297
vn -0.6597 0.1385 0.7386
vn -0.2495 0.8396 0.4826
vn -0.0401 -0.4209 -0.9062
vn -0.0000 -0.9837 -0.1798
vn -0.0000 -0.9916 -0.1295
vn -0.9542 0.2820 0.0994
vn -0.9180 0.3286 0.2221
vn -0.9595 0.2645 0.0973
vn -0.8910 0.3999 0.2151
vn -0.8761 0.4313 0.2156
vn -0.9400 0.2222 0.2587
vn -0.9943 -0.0812 0.0687
vn -0.3851 0.7495 0.5386
vn -0.8108 -0.5790 0.0864
vn -0.0000 -0.9836 0.1806
vn -0.3642 -0.9168 0.1639
vn -0.8531 0.4980 0.1556
vn -0.6734 0.6949 0.2524
vn -0.0000 -0.9983 0.0578
vn -0.4684 -0.8706 0.1506
vn -0.8343 -0.4240 0.3522
vn -0.4753 -0.7387 0.4780
vn -0.5779 -0.2370 0.7810
vn -0.8809 0.1325 0.4544
vn -0.4114 -0.8953 0.1708
vn -0.6559 -0.6501 0.3836
vn -0.5401 -0.7765 -0.3246
vn -0.0001 -0.8073 -0.5901
vn -0.4980 -0.1976 0.8444
vn -0.6965 -0.2244 0.6815
vn -0.4857 -0.7445 0.4581
vn -0.2876 -0.9287 0.2342
vn -0.5422 0.2780 0.7929
vn -0.6012 0.7185 0.3498
vn -0.3797 0.7346 0.5623
vn -0.0000 0.9928 0.1201
vn -0.9857 0.0943 0.1400
vn -0.3271 0.9305 0.1648
vn -0.3405 0.9333 0.1141
vn -0.3064 0.8693 0.3878
vn -0.0000 0.7683 0.6401
vn -0.0000 0.9396 0.3422
vn -0.2373 0.9277 0.2882
vn -0.0000 -0.9988 -0.0500
vn 0.2312 0.9649 -0.1245
vn -0.0000 0.9051 -0.4253
vn -0.0000 0.9999 -0.0120
vn 0.1927 0.9810 -0.0225
vn 0.0066 -0.9744 -0.2248
vn -0.0000 -0.9667 0.2559
vn -0.0000 -0.9708 -0.2398
vn 0.1224 -0.9778 -0.1700
vn -0.0816 -0.9916 -0.1008
vn -0.0000 -0.9909 -0.1343
vn -0.0000 -0.9871 -0.1599
vn -0.0000 0.2847 0.9586
vn -0.0000 -0.2598 0.9657
vn 0.2612 0.8613 -0.4357
vn -0.0000 0.6504 -0.7596
vn -0.0000 0.9997 0.0264
vn 0.1533 0.9881 -0.0118
vn -0.0000 -0.8388 0.5445
vn -0.2529 0.7706 0.5850
vn -0.3050 0.8453 0.4387
vn -0.4807 0.7961 0.3677
vn -0.8511 0.4119 0.3256
vn -0.0000 0.9518 0.3066
vn -0.0934 0.9633 0.2515
vn -0.8380 0.4669 0.2826
vn -0.2713 0.9067 0.3229
vn -0.0000 0.9577 0.2877
vn -0.0000 0.9556 0.2948
vn -0.0807 0.9467 0.3117
vn 0.0195 0.0431 -0.9989
vn -0.0000 1.0000 -0.0095
vn -0.0000 0.9982 -0.0593
vn -0.0000 0.9997 -0.0264
vn 0.1547 0.7566 0.6353
vn 0.1478 0.7394 0.6569
vn -0.0000 0.8237 0.5670
vn -0.0000 0.8333 0.5528
vn -0.0000 -0.9007 0.4345
vn -0.1766 -0.8427 -0.5086
vn 0.2726 -0.5911 -0.7592
vn 0.1320 -0.8685 -0.4777
vn -0.0000 0.7963 -0.6049
vn -0.9553 -0.2535 0.1523
vn -0.8557 0.1098 0.5056
vn -0.9892 0.1035 0.1033
vn -0.8561 0.5042 -0.1131
vn -0.8503 0.4575 0.2601
vn -0.9463 0.1658 -0.2776
vn 0.2410 -0.8373 -0.4908
vn 0.4015 -0.5659 -0.7201
vn -0.0000 -0.5362 -0.8441
vn -0.0000 -0.9197 -0.3926
vn -0.9093 0.3067 0.2811
vn -0.9093 0.3064 0.2814
vn -0.8795 0.3853 0.2793
vn -0.8794 0.3858 0.2790
vn 0.2088 0.2590 0.9430
vn 0.2091 0.2330 0.9497
vn 0.2091 0.2358 0.9490
vn 0.9230 0.3113 -0.2261
vn 0.9454 0.2190 -0.2415
vn 0.9445 0.2242 -0.2403
vn 0.9232 0.3110 -0.2257
vn -0.1845 0.2998 -0.9360
vn -0.1823 0.3207 -0.9295
vn -0.1819 0.3244 -0.9283
vn -0.8273 0.4906 0.2738
vn 0.2093 0.1979 0.9576
vn 0.9620 0.0900 -0.2576
vn -0.1783 0.3561 -0.9173
vn -0.9168 0.2932 0.2710
vn -0.9168 0.2930 0.2713
vn -0.8860 0.3732 0.2753
vn -0.8854 0.3746 0.2751
vn 0.1847 0.1978 0.9627
vn 0.1849 0.1762 0.9668
vn 0.1849 0.1787 0.9664
vn 0.1848 0.1978 0.9627
vn 0.9293 0.3244 -0.1764
vn 0.9530 0.2294 -0.1977
vn 0.9519 0.2355 -0.1961
vn 0.9295 0.3240 -0.1761
vn -0.1609 0.3589 -0.9194
vn -0.1593 0.3751 -0.9132
vn -0.1590 0.3781 -0.9120
vn -0.8312 0.4814 0.2782
vn 0.1850 0.1473 0.9716
vn 0.9701 0.0974 -0.2221
vn -0.1565 0.4027 -0.9019
vn -0.9004 0.2857 0.3282
vn -0.9003 0.2852 0.3287
vn -0.8719 0.3642 0.3274
vn -0.8722 0.3639 0.3269
vn 0.2421 0.2277 0.9432
vn 0.2427 0.2015 0.9489
vn 0.2427 0.2040 0.9484
vn 0.2421 0.2277 0.9431
vn 0.9120 0.3198 -0.2569
vn 0.9333 0.2302 -0.2756
vn 0.9327 0.2344 -0.2742
vn 0.9123 0.3193 -0.2564
vn -0.2187 0.3284 -0.9189
vn -0.2164 0.3490 -0.9118
vn -0.2159 0.3525 -0.9106
vn -0.8223 0.4687 0.3228
vn 0.2433 0.1662 0.9556
vn 0.9497 0.1037 -0.2956
vn -0.2121 0.3833 -0.8989
vn -0.9015 0.2859 0.3248
vn -0.9015 0.2854 0.3254
vn -0.8735 0.3642 0.3231
vn -0.8738 0.3638 0.3226
vn 0.2439 0.2355 0.9408
vn 0.2444 0.2095 0.9468
vn 0.2444 0.2119 0.9462
vn 0.9128 0.3146 -0.2606
vn 0.9336 0.2258 -0.2781
vn 0.9331 0.2296 -0.2769
vn 0.9131 0.3140 -0.2600
vn -0.2199 0.3185 -0.9221
vn -0.2175 0.3391 -0.9152
vn -0.2171 0.3425 -0.9141
vn -0.8247 0.4680 0.3174
vn 0.2450 0.1743 0.9537
vn 0.9498 0.1001 -0.2965
vn -0.2133 0.3733 -0.9029
vn -0.8747 0.2823 0.3939
vn -0.8746 0.2817 0.3945
vn -0.8488 0.3605 0.3868
vn -0.8493 0.3598 0.3863
vn 0.3176 0.2772 0.9068
vn 0.3190 0.2515 0.9138
vn 0.3189 0.2535 0.9132
vn 0.3177 0.2772 0.9068
vn 0.8814 0.3116 -0.3550
vn 0.9014 0.2238 -0.3706
vn 0.9009 0.2277 -0.3694
vn 0.8818 0.3111 -0.3544
vn -0.2982 0.2788 -0.9129
vn -0.2954 0.3000 -0.9070
vn -0.2950 0.3033 -0.9061
vn -0.8033 0.4643 0.3729
vn 0.3205 0.2165 0.9222
vn 0.9175 0.0998 -0.3850
vn -0.2905 0.3347 -0.8964
vn -0.8498 0.2665 0.4548
vn -0.8496 0.2662 0.4553
vn -0.8296 0.3447 0.4392
vn -0.8300 0.3443 0.4389
vn 0.3850 0.3768 0.8425
vn 0.3883 0.3523 0.8515
vn 0.3881 0.3537 0.8510
vn 0.8257 0.3184 -0.4656
vn 0.8484 0.2323 -0.4756
vn 0.8478 0.2368 -0.4746
vn 0.8263 0.3179 -0.4649
vn -0.3933 0.1790 -0.9018
vn -0.3910 0.2013 -0.8981
vn -0.3906 0.2043 -0.8976
vn -0.7921 0.4497 0.4127
vn 0.3923 0.3184 0.8630
vn 0.8696 0.1111 -0.4812
vn -0.3868 0.2373 -0.8911
vn -0.2412 0.3151 0.9179
vn -0.2413 0.3151 0.9179
vn -0.2358 0.3870 0.8914
vn -0.2355 0.3899 0.8902
vn 0.9018 0.3736 0.2175
vn 0.9105 0.3499 0.2204
vn 0.9102 0.3500 0.2215
vn 0.9018 0.3727 0.2188
vn 0.2363 0.2329 -0.9433
vn 0.2417 0.1506 -0.9586
vn 0.2414 0.1557 -0.9578
vn 0.2364 0.2329 -0.9433
vn -0.9365 0.1934 -0.2924
vn -0.9369 0.1928 -0.2917
vn -0.9304 0.2179 -0.2946
vn -0.9297 0.2200 -0.2953
vn -0.2253 0.4888 0.8428
vn 0.9213 0.3149 0.2280
vn 0.2464 0.0367 -0.9685
vn -0.9205 0.2539 -0.2970
vn -0.9099 0.3067 0.2794
vn -0.9099 0.3063 0.2799
vn -0.8804 0.3851 0.2768
vn -0.8804 0.3854 0.2764
vn 0.2100 0.2654 0.9410
vn 0.2103 0.2395 0.9479
vn 0.2103 0.2422 0.9472
vn 0.9232 0.3077 -0.2302
vn 0.9452 0.2161 -0.2447
vn 0.9444 0.2208 -0.2436
vn 0.9235 0.3073 -0.2298
vn -0.1852 0.2922 -0.9383
vn -0.1830 0.3131 -0.9319
vn -0.1826 0.3168 -0.9308
vn -0.8288 0.4899 0.2703
vn 0.2105 0.2045 0.9560
vn 0.9617 0.0876 -0.2595
vn -0.1790 0.3483 -0.9201
vn -0.0000 0.4346 0.9006
vn -0.0000 0.7988 0.6015
vn -0.3616 -0.9311 -0.0489
vn -0.2323 0.9726 0.0074
vn -0.4274 -0.9040 0.0128
vn -0.6862 0.2568 0.6806
vn -0.6861 0.2566 0.6807
vn -0.6722 0.3329 0.6613
vn -0.6724 0.3327 0.6612
vn 0.6184 0.3787 0.6886
vn 0.6244 0.3546 0.6960
vn 0.6240 0.3553 0.6960
vn 0.6182 0.3785 0.6889
vn 0.6600 0.3057 -0.6863
vn 0.6777 0.2228 -0.7008
vn 0.6773 0.2271 -0.6998
vn 0.6605 0.3053 -0.6859
vn -0.6399 0.1799 -0.7471
vn -0.6400 0.1797 -0.7470
vn -0.6362 0.2030 -0.7444
vn -0.6357 0.2055 -0.7441
vn -0.6452 0.4365 0.6271
vn 0.6314 0.3203 0.7062
vn 0.6950 0.1064 -0.7111
vn -0.6297 0.2387 -0.7393
vn -0.8147 0.2629 0.5169
vn -0.8145 0.2625 0.5173
vn -0.7962 0.3404 0.5001
vn -0.7966 0.3399 0.4999
vn 0.4496 0.3766 0.8100
vn 0.4535 0.3522 0.8188
vn 0.4533 0.3534 0.8183
vn 0.4495 0.3765 0.8100
vn 0.7898 0.3137 -0.5270
vn 0.8111 0.2289 -0.5382
vn 0.8106 0.2330 -0.5372
vn 0.7904 0.3132 -0.5264
vn -0.4606 0.1787 -0.8694
vn -0.4606 0.1786 -0.8694
vn -0.4579 0.2012 -0.8659
vn -0.4575 0.2040 -0.8655
vn -0.7616 0.4447 0.4714
vn 0.4582 0.3182 0.8299
vn 0.8313 0.1093 -0.5449
vn -0.4531 0.2369 -0.8594
vn -0.0000 -0.9806 -0.1960
vn -0.5898 0.8000 -0.1100
vn -0.9963 0.0366 -0.0774
vn -0.6456 -0.7553 -0.1129
vn -0.0000 -0.9893 -0.1461
vn -0.0000 0.9907 -0.1362
vn -0.8843 -0.4522 -0.1163
vn -0.0000 -0.1650 -0.9863
vn -0.0000 -0.0071 -1.0000
vn -0.0000 -0.8485 0.5292
vn -0.1674 -0.9842 -0.0568
vn -0.1732 -0.9819 -0.0761
vn 0.4920 0.8373 0.2384
vn 0.5883 0.7796 0.2149
vn 0.8876 0.3682 0.2767
vn 0.8705 0.4219 0.2535
vn 0.7573 -0.6054 -0.2450
vn 0.7439 -0.6341 -0.2110
vn 0.8062 -0.5281 -0.2667
vn 0.9829 0.0079 -0.1842
vn 0.6773 0.7208 -0.1471
vn 0.6790 0.7235 -0.1248
vn 0.9827 0.0261 -0.1835
vn 0.4348 -0.9003 0.0198
vn 0.4163 -0.9081 0.0455
vn 0.3509 -0.9242 0.1507
vn 0.3715 -0.9216 0.1127
vn 0.9952 -0.0883 -0.0423
vn 0.9858 0.0951 -0.1384
vn 0.9995 0.0053 0.0307
vn 0.9939 -0.1077 -0.0243
vn 0.0599 0.9899 0.1286
vn 0.0740 0.9967 0.0331
vn 0.3517 0.9133 -0.2054
vn 0.7097 0.7013 -0.0672
vn 0.9915 -0.0048 -0.1300
vn 0.9952 -0.0301 -0.0934
vn 0.7575 0.6301 -0.1708
vn 0.9980 0.0627 0.0019
vn 0.9637 0.2277 0.1394
vn 0.9948 -0.0980 0.0293
vn 0.9931 -0.1167 -0.0125
vn 0.9946 -0.0121 -0.1031
vn 0.9964 -0.0083 -0.0848
vn 0.6199 0.7762 -0.1152
vn 0.6381 0.7605 -0.1204
vn 0.3109 -0.9490 -0.0512
vn 0.5908 -0.8060 -0.0350
vn 0.3220 -0.4064 -0.8551
vn 0.2460 -0.7413 -0.6245
vn 0.0658 -0.9977 -0.0146
vn 0.1447 -0.8651 0.4803
vn 0.4745 -0.6798 0.5592
vn 0.0528 0.9879 -0.1461
vn 0.0094 0.9995 0.0292
vn 0.0313 0.9995 0.0054
vn 0.0370 0.9816 -0.1874
vn 0.0055 0.9999 0.0138
vn 0.3966 0.6513 0.6470
vn 0.2330 0.3055 0.9232
vn -0.1004 -0.9103 -0.4016
vn -0.0279 -0.9414 -0.3360
vn 0.0598 -0.9975 -0.0379
vn 0.1715 -0.9191 0.3549
vn -0.0437 0.9907 -0.1288
vn 0.0175 0.9998 -0.0034
vn -0.0247 0.9910 -0.1317
vn 0.3691 0.2323 0.8999
vn 0.0671 -0.9234 -0.3779
vn 0.0988 -0.9921 -0.0779
vn 0.3182 -0.9197 0.2299
vn 0.1229 0.9913 -0.0474
vn 0.0053 0.9862 -0.1655
vn 0.6645 0.1642 0.7290
vn -0.1937 -0.8199 -0.5388
vn -0.0572 -0.8935 -0.4453
vn 0.0434 -0.8659 -0.4984
vn 0.2075 -0.9492 -0.2367
vn 0.2085 -0.9407 -0.2676
vn 0.6243 -0.7538 0.2049
vn 0.3171 -0.8561 -0.4081
vn 0.2637 -0.9151 -0.3051
vn 0.1463 0.9684 -0.2022
vn -0.1119 -0.8711 -0.4782
vn -0.2586 -0.5832 -0.7701
vn -0.2676 -0.7531 -0.6011
vn 0.9302 0.3038 -0.2058
vn 0.9923 -0.1053 -0.0660
vn 0.5969 0.5498 0.5843
vn 0.3385 0.8583 0.3856
vn 0.2274 0.9456 0.2326
vn 0.4948 0.2368 0.8361
vn 0.3573 0.9056 0.2285
vn 0.6226 0.6544 0.4291
vn 0.5326 0.8134 0.2339
vn 0.1353 0.9686 -0.2085
vn 0.1950 0.9659 -0.1704
vn -0.1826 0.8860 -0.4263
vn -0.2801 0.7342 -0.6184
vn -0.3353 0.5904 -0.7341
vn -0.1464 0.9220 -0.3584
vn -0.2635 0.7189 -0.6432
vn -0.3844 0.7206 -0.5770
vn -0.2316 0.9143 -0.3323
vn 0.3785 -0.9184 0.1150
vn 0.3755 -0.9197 0.1145
vn 0.9857 0.0120 -0.1679
vn 0.6591 0.7358 -0.1556
vn 0.7300 -0.6581 -0.1843
vn 0.9890 0.0006 -0.1481
vn 0.8956 -0.4005 -0.1934
vn 0.6507 0.7463 -0.1400
vn 0.6741 -0.7309 -0.1066
vn 0.7047 -0.6957 -0.1393
vn 0.4960 0.7846 0.3720
vn 0.2629 0.7640 0.5893
vn 0.4253 0.5006 0.7540
vn 0.7834 0.4101 0.4669
vn -0.0259 0.9994 -0.0250
vn 0.8090 -0.5711 0.1393
vn 0.9802 0.0604 0.1885
vn 0.9531 0.1030 0.2846
vn 0.8142 -0.5280 0.2415
vn 0.6508 0.6615 0.3726
vn 0.6566 0.7251 0.2075
vn 0.8294 -0.5567 0.0461
vn 0.8334 -0.5504 0.0506
vn 0.8548 -0.5172 -0.0420
vn 0.8507 -0.5256 -0.0069
vn 0.4492 -0.8911 -0.0640
vn 0.8609 -0.4997 -0.0952
vn 0.4601 -0.8654 -0.1984
vn 0.4420 -0.8695 -0.2204
vn 0.8483 -0.5017 -0.1695
vn 0.2879 0.9246 0.2497
vn 0.3727 0.8991 0.2297
vn 0.6597 0.1385 0.7386
vn 0.2495 0.8396 0.4826
vn 0.0401 -0.4209 -0.9062
vn 0.9542 0.2820 0.0994
vn 0.9595 0.2645 0.0973
vn 0.9180 0.3286 0.2221
vn 0.8910 0.3999 0.2151
vn 0.8761 0.4313 0.2156
vn 0.9400 0.2222 0.2587
vn 0.9943 -0.0812 0.0687
vn 0.3851 0.7494 0.5386
vn 0.8108 -0.5790 0.0864
vn 0.3642 -0.9168 0.1639
vn 0.8531 0.4980 0.1556
vn 0.6734 0.6949 0.2524
vn 0.4684 -0.8706 0.1506
vn 0.8343 -0.4240 0.3522
vn 0.5779 -0.2370 0.7810
vn 0.4753 -0.7387 0.4780
vn 0.8809 0.1325 0.4544
vn 0.4114 -0.8953 0.1708
vn 0.6559 -0.6501 0.3836
vn 0.5401 -0.7765 -0.3246
vn 0.4980 -0.1976 0.8444
vn 0.2876 -0.9287 0.2342
vn 0.4857 -0.7445 0.4581
vn 0.6965 -0.2244 0.6815
vn 0.5422 0.2780 0.7929
vn 0.6012 0.7185 0.3498
vn 0.3797 0.7346 0.5623
vn 0.9857 0.0943 0.1400
vn 0.3405 0.9333 0.1141
vn 0.3271 0.9305 0.1648
vn 0.3064 0.8693 0.3878
vn 0.2373 0.9277 0.2882
vn -0.2312 0.9649 -0.1245
vn -0.1927 0.9810 -0.0225
vn -0.0066 -0.9744 -0.2248
vn -0.1224 -0.9778 -0.1700
vn 0.0816 -0.9916 -0.1008
vn -0.2612 0.8613 -0.4357
vn -0.1533 0.9881 -0.0118
vn 0.2529 0.7706 0.5850
vn 0.3050 0.8453 0.4387
vn 0.4807 0.7961 0.3677
vn 0.8511 0.4119 0.3256
vn 0.0934 0.9633 0.2515
vn 0.8380 0.4668 0.2826
vn 0.2713 0.9067 0.3229
vn 0.0807 0.9467 0.3117
vn -0.0195 0.0431 -0.9989
vn -0.1547 0.7566 0.6353
vn -0.1478 0.7394 0.6569
vn 0.1766 -0.8427 -0.5086
vn -0.2726 -0.5911 -0.7592
vn -0.1320 -0.8685 -0.4777
vn 0.9553 -0.2535 0.1523
vn 0.9892 0.1035 0.1033
vn 0.8557 0.1098 0.5056
vn 0.8561 0.5042 -0.1131
vn 0.8503 0.4575 0.2601
vn 0.9463 0.1658 -0.2776
vn -0.2410 -0.8373 -0.4908
vn -0.4015 -0.5659 -0.7201
vn 0.9093 0.3067 0.2811
vn 0.8794 0.3858 0.2790
vn 0.8795 0.3853 0.2793
vn 0.9093 0.3064 0.2814
vn -0.2088 0.2590 0.9430
vn -0.2091 0.2358 0.9490
vn -0.2091 0.2330 0.9497
vn -0.9230 0.3113 -0.2261
vn -0.9232 0.3110 -0.2257
vn -0.9445 0.2242 -0.2403
vn -0.9454 0.2190 -0.2415
vn 0.1845 0.2998 -0.9360
vn 0.1819 0.3244 -0.9283
vn 0.1823 0.3207 -0.9295
vn 0.8273 0.4906 0.2738
vn -0.2093 0.1979 0.9576
vn -0.9620 0.0900 -0.2576
vn 0.1783 0.3561 -0.9173
vn 0.9168 0.2932 0.2710
vn 0.8854 0.3746 0.2751
vn 0.8860 0.3732 0.2753
vn 0.9168 0.2930 0.2713
vn -0.1847 0.1978 0.9627
vn -0.1848 0.1978 0.9627
vn -0.1849 0.1787 0.9664
vn -0.1849 0.1762 0.9668
vn -0.9293 0.3244 -0.1764
vn -0.9295 0.3240 -0.1761
vn -0.9519 0.2355 -0.1961
vn -0.9530 0.2294 -0.1977
vn 0.1609 0.3589 -0.9194
vn 0.1590 0.3781 -0.9120
vn 0.1593 0.3751 -0.9132
vn 0.8312 0.4814 0.2782
vn -0.1850 0.1473 0.9716
vn -0.9701 0.0974 -0.2221
vn 0.1565 0.4027 -0.9019
vn 0.9004 0.2857 0.3282
vn 0.8722 0.3639 0.3269
vn 0.8719 0.3642 0.3274
vn 0.9003 0.2852 0.3287
vn -0.2421 0.2277 0.9432
vn -0.2421 0.2277 0.9431
vn -0.2427 0.2040 0.9484
vn -0.2427 0.2015 0.9489
vn -0.9120 0.3198 -0.2568
vn -0.9123 0.3193 -0.2564
vn -0.9327 0.2344 -0.2742
vn -0.9333 0.2302 -0.2756
vn 0.2187 0.3284 -0.9189
vn 0.2159 0.3525 -0.9106
vn 0.2164 0.3490 -0.9118
vn 0.8223 0.4687 0.3228
vn -0.2433 0.1662 0.9556
vn -0.9497 0.1037 -0.2956
vn 0.2121 0.3833 -0.8989
vn 0.9015 0.2859 0.3248
vn 0.8738 0.3638 0.3226
vn 0.8735 0.3642 0.3231
vn 0.9015 0.2854 0.3254
vn -0.2439 0.2355 0.9408
vn -0.2444 0.2119 0.9462
vn -0.2444 0.2095 0.9468
vn -0.9128 0.3146 -0.2606
vn -0.9131 0.3140 -0.2600
vn -0.9331 0.2296 -0.2769
vn -0.9336 0.2258 -0.2781
vn 0.2199 0.3185 -0.9221
vn 0.2171 0.3425 -0.9141
vn 0.2175 0.3391 -0.9152
vn 0.8247 0.4680 0.3174
vn -0.2450 0.1743 0.9537
vn -0.9498 0.1001 -0.2965
vn 0.2133 0.3733 -0.9029
vn 0.8747 0.2823 0.3939
vn 0.8493 0.3598 0.3863
vn 0.8488 0.3605 0.3868
vn 0.8746 0.2817 0.3945
vn -0.3176 0.2772 0.9068
vn -0.3177 0.2772 0.9068
vn -0.3189 0.2535 0.9132
vn -0.3190 0.2515 0.9138
vn -0.8814 0.3116 -0.3550
vn -0.8818 0.3111 -0.3544
vn -0.9009 0.2277 -0.3694
vn -0.9014 0.2238 -0.3706
vn 0.2982 0.2788 -0.9129
vn 0.2950 0.3033 -0.9061
vn 0.2954 0.3000 -0.9070
vn 0.8033 0.4643 0.3729
vn -0.3205 0.2165 0.9222
vn -0.9175 0.0998 -0.3850
vn 0.2905 0.3347 -0.8964
vn 0.8498 0.2665 0.4548
vn 0.8300 0.3443 0.4389
vn 0.8296 0.3447 0.4392
vn 0.8496 0.2662 0.4553
vn -0.3850 0.3768 0.8425
vn -0.3881 0.3537 0.8510
vn -0.3883 0.3523 0.8515
vn -0.8257 0.3184 -0.4656
vn -0.8263 0.3179 -0.4649
vn -0.8478 0.2368 -0.4746
vn -0.8484 0.2323 -0.4756
vn 0.3933 0.1790 -0.9018
vn 0.3906 0.2043 -0.8976
vn 0.3910 0.2013 -0.8981
vn 0.7921 0.4497 0.4127
vn -0.3923 0.3184 0.8630
vn -0.8696 0.1111 -0.4812
vn 0.3868 0.2373 -0.8911
vn 0.2412 0.3151 0.9179
vn 0.2355 0.3899 0.8902
vn 0.2358 0.3870 0.8914
vn 0.2413 0.3151 0.9179
vn -0.9018 0.3736 0.2175
vn -0.9018 0.3727 0.2188
vn -0.9102 0.3500 0.2215
vn -0.9105 0.3499 0.2204
vn -0.2363 0.2329 -0.9433
vn -0.2364 0.2329 -0.9433
vn -0.2414 0.1557 -0.9578
vn -0.2417 0.1506 -0.9586
vn 0.9365 0.1934 -0.2924
vn 0.9297 0.2200 -0.2953
vn 0.9304 0.2179 -0.2946
vn 0.9369 0.1928 -0.2917
vn 0.2253 0.4888 0.8428
vn -0.9213 0.3149 0.2280
vn -0.2464 0.0367 -0.9685
vn 0.9205 0.2539 -0.2970
vn 0.9099 0.3067 0.2794
vn 0.8804 0.3854 0.2764
vn 0.8804 0.3851 0.2768
vn 0.9099 0.3063 0.2799
vn -0.2100 0.2654 0.9410
vn -0.2103 0.2422 0.9472
vn -0.2103 0.2395 0.9479
vn -0.9232 0.3077 -0.2302
vn -0.9235 0.3073 -0.2298
vn -0.9444 0.2208 -0.2436
vn -0.9452 0.2161 -0.2447
vn 0.1852 0.2922 -0.9383
vn 0.1826 0.3168 -0.9308
vn 0.1830 0.3131 -0.9319
vn 0.8288 0.4899 0.2703
vn -0.2105 0.2045 0.9560
vn -0.9617 0.0876 -0.2595
vn 0.1790 0.3483 -0.9201
vn 0.3616 -0.9311 -0.0489
vn 0.2323 0.9726 0.0074
vn 0.4274 -0.9040 0.0128
vn 0.6862 0.2568 0.6806
vn 0.6724 0.3327 0.6612
vn 0.6722 0.3329 0.6613
vn 0.6861 0.2566 0.6807
vn -0.6184 0.3787 0.6886
vn -0.6182 0.3785 0.6889
vn -0.6240 0.3553 0.6960
vn -0.6244 0.3546 0.6960
vn -0.6600 0.3057 -0.6863
vn -0.6605 0.3053 -0.6859
vn -0.6773 0.2271 -0.6998
vn -0.6777 0.2228 -0.7008
vn 0.6399 0.1799 -0.7471
vn 0.6357 0.2055 -0.7441
vn 0.6362 0.2030 -0.7444
vn 0.6400 0.1797 -0.7470
vn 0.6452 0.4365 0.6271
vn -0.6314 0.3203 0.7062
vn -0.6950 0.1064 -0.7111
vn 0.6297 0.2387 -0.7393
vn 0.8147 0.2629 0.5169
vn 0.7966 0.3399 0.4999
vn 0.7962 0.3404 0.5001
vn 0.8145 0.2625 0.5173
vn -0.4496 0.3766 0.8100
vn -0.4495 0.3765 0.8100
vn -0.4533 0.3534 0.8183
vn -0.4535 0.3522 0.8188
vn -0.7898 0.3137 -0.5270
vn -0.7904 0.3132 -0.5264
vn -0.8106 0.2330 -0.5372
vn -0.8111 0.2289 -0.5382
vn 0.4606 0.1787 -0.8694
vn 0.4575 0.2040 -0.8655
vn 0.4579 0.2012 -0.8659
vn 0.4606 0.1786 -0.8694
vn 0.7616 0.4447 0.4714
vn -0.4582 0.3182 0.8299
vn -0.8313 0.1093 -0.5449
vn 0.4531 0.2369 -0.8594
vn 0.5898 0.8000 -0.1100
vn 0.9963 0.0367 -0.0774
vn 0.6456 -0.7553 -0.1129
vn 0.8843 -0.4522 -0.1163
vt 0.045170 0.079540
vt 0.021204 0.017898
vt 0.126553 0.012468
vt 0.094035 0.077960
vt 0.066387 0.143789
vt 0.094313 0.077978
vt 0.127501 0.012542
vt 0.019693 0.017447
vt 0.044740 0.079439
vt 0.067178 0.143519
vt 0.367523 0.205458
vt 0.397363 0.183306
vt 0.240298 0.086415
vt 0.224178 0.107752
vt 0.500716 0.206779
vt 0.477477 0.238030
vt 0.464536 0.105211
vt 0.442827 0.047109
vt 0.355091 0.041847
vt 0.556962 0.977635
vt 0.589898 0.981615
vt 0.593552 0.922721
vt 0.556731 0.938944
vt 0.542185 0.954401
vt 0.537897 0.974990
vt 0.644313 0.990167
vt 0.642030 0.919389
vt 0.633884 0.918728
vt 0.210756 0.234241
vt 0.273756 0.244565
vt 0.273572 0.213668
vt 0.301763 0.232329
vt 0.275186 0.202905
vt 0.219945 0.175044
vt 0.218169 0.189800
vt 0.157336 0.174868
vt 0.161047 0.160898
vt 0.113335 0.153904
vt 0.108154 0.166176
vt 0.081929 0.158571
vt 0.090547 0.143770
vt 0.019781 0.250862
vt 0.012397 0.279236
vt 0.075198 0.277816
vt 0.080583 0.332400
vt 0.028560 0.349310
vt 0.044492 0.393154
vt 0.084158 0.381582
vt 0.750274 0.968570
vt 0.733672 0.930351
vt 0.752141 0.944349
vt 0.700985 0.978715
vt 0.693751 0.917698
vt 0.759824 0.963905
vt 0.661275 0.987356
vt 0.072635 0.207414
vt 0.101856 0.213988
vt 0.082790 0.257897
vt 0.150100 0.224958
vt 0.147124 0.268384
vt 0.631110 0.988120
vt 0.653549 0.917291
vt 0.167697 0.428281
vt 0.121035 0.419416
vt 0.098477 0.564349
vt 0.141651 0.574935
vt 0.021688 0.547304
vt 0.043246 0.406140
vt 0.013486 0.659133
vt 0.084346 0.619365
vt 0.013749 0.611911
vt 0.011477 0.721545
vt 0.010406 0.805149
vt 0.134180 0.809980
vt 0.012607 0.889267
vt 0.349206 0.010999
vt 0.351989 0.038700
vt 0.240695 0.039390
vt 0.379688 0.185755
vt 0.233774 0.088763
vt 0.359708 0.209628
vt 0.221776 0.105589
vt 0.170684 0.057463
vt 0.450390 0.046210
vt 0.443561 0.012157
vt 0.479067 0.149488
vt 0.494674 0.205575
vt 0.470690 0.239079
vt 0.500269 0.062045
vt 0.495322 0.024081
vt 0.527257 0.132142
vt 0.547940 0.187078
vt 0.194308 0.601286
vt 0.186440 0.708917
vt 0.334696 0.705664
vt 0.183270 0.809673
vt 0.136180 0.712879
vt 0.138734 0.654540
vt 0.142440 0.609118
vt 0.219494 0.438026
vt 0.370059 0.462968
vt 0.344533 0.604586
vt 0.497041 0.615031
vt 0.522716 0.502165
vt 0.617618 0.632763
vt 0.642431 0.542305
vt 0.486722 0.702412
vt 0.482173 0.795159
vt 0.330215 0.809953
vt 0.136995 0.894461
vt 0.141012 0.993402
vt 0.186498 0.894281
vt 0.924566 0.777619
vt 0.868204 0.775465
vt 0.870282 0.831896
vt 0.925209 0.829248
vt 0.980248 0.780771
vt 0.980769 0.827211
vt 0.806544 0.839758
vt 0.804839 0.726604
vt 0.801865 0.774409
vt 0.870922 0.735587
vt 0.927026 0.742771
vt 0.982607 0.747806
vt 0.987044 0.717116
vt 0.872372 0.847326
vt 0.765143 0.895909
vt 0.830236 0.943160
vt 0.888511 0.914987
vt 0.875099 0.964411
vt 0.935758 0.986261
vt 0.952097 0.911512
vt 0.973342 0.866052
vt 0.193978 0.990565
vt 0.343947 0.969787
vt 0.333980 0.883082
vt 0.356044 0.884258
vt 0.380361 0.962511
vt 0.380460 0.962486
vt 0.453144 0.878695
vt 0.538131 0.908768
vt 0.538097 0.908786
vt 0.014857 0.993735
vt 0.962865 0.028792
vt 0.989226 0.166863
vt 0.884245 0.162817
vt 0.865106 0.050247
vt 0.734826 0.656260
vt 0.726635 0.716656
vt 0.812301 0.673824
vt 0.755255 0.586554
vt 0.828946 0.615623
vt 0.608631 0.707698
vt 0.723101 0.776627
vt 0.731768 0.854775
vt 0.604447 0.785049
vt 0.618726 0.883595
vt 0.814853 0.061597
vt 0.832193 0.171129
vt 0.786801 0.169214
vt 0.777541 0.067675
vt 0.783330 0.191439
vt 0.800303 0.187816
vt 0.704962 0.158923
vt 0.701284 0.178488
vt 0.974219 0.480841
vt 0.876613 0.459779
vt 0.885009 0.382290
vt 0.982715 0.398970
vt 0.843795 0.314463
vt 0.841320 0.376117
vt 0.797968 0.369860
vt 0.831126 0.450217
vt 0.798603 0.307435
vt 0.843585 0.280087
vt 0.704193 0.427016
vt 0.718348 0.366570
vt 0.719056 0.311209
vt 0.611689 0.416775
vt 0.857852 0.562956
vt 0.956916 0.582470
vt 0.785807 0.441389
vt 0.762154 0.542032
vt 0.809908 0.553168
vt 0.677912 0.520594
vt 0.581212 0.490087
vt 0.887872 0.313132
vt 0.821092 0.259445
vt 0.792057 0.242324
vt 0.867151 0.263573
vt 0.843150 0.259758
vt 0.986539 0.317181
vt 0.889375 0.262365
vt 0.988533 0.256245
vt 0.458154 0.344310
vt 0.392328 0.349021
vt 0.390034 0.412413
vt 0.318876 0.346493
vt 0.435460 0.279378
vt 0.344050 0.279919
vt 0.247468 0.035431
vt 0.189764 0.038255
vt 0.173509 0.057984
vt 0.449587 0.017116
vt 0.354255 0.014012
vt 0.243867 0.016880
vt 0.506931 0.067026
vt 0.500615 0.034737
vt 0.552566 0.187083
vt 0.184986 0.018971
vt 0.860234 0.243154
vt 0.841227 0.199551
vt 0.889634 0.206493
vt 0.991534 0.212564
vt 0.877464 0.689624
vt 0.891321 0.638398
vt 0.932542 0.703764
vt 0.944881 0.656485
vt 0.994304 0.673353
vt 0.181072 0.038910
vt 0.240531 0.017591
vt 0.143481 0.020804
vt 0.182754 0.018484
vt 0.811739 0.214479
vt 0.830741 0.242659
vt 0.779144 0.202425
vt 0.692426 0.215948
vt 0.706140 0.251882
vt 0.599729 0.229410
vt 0.607613 0.261246
vt 0.622420 0.320683
vt 0.620566 0.375347
vt 0.542534 0.331140
vt 0.545761 0.380141
vt 0.147359 0.278684
vt 0.207660 0.284775
vt 0.208032 0.275507
vt 0.270058 0.292976
vt 0.270304 0.280223
vt 0.271335 0.335557
vt 0.213035 0.335931
vt 0.143323 0.330081
vt 0.132135 0.390935
vt 0.253907 0.379675
vt 0.193246 0.393340
vt 0.287032 0.358011
vt 0.296617 0.321730
vt 0.294072 0.262881
vt 0.302875 0.270135
vt 0.293849 0.236582
vt 0.699493 0.073029
vt 0.630219 0.130453
vt 0.625522 0.145589
vt 0.625876 0.077239
vt 0.604134 0.108624
vt 0.596547 0.116903
vt 0.597574 0.080143
vt 0.584563 0.084146
vt 0.546966 0.235326
vt 0.547182 0.263245
vt 0.496916 0.249165
vt 0.509378 0.225785
vt 0.472843 0.331624
vt 0.480707 0.403572
vt 0.556749 0.406106
vt 0.145254 0.021285
vt 0.511971 0.452143
s 1
usemtl leviathan_adSkin
f 385/1/375 386/2/376 383/3/373
f 383/3/373 384/4/374 385/1/375
f 384/4/374 393/5/383 385/1/375
f 791/1/769 792/4/770 789/3/767
f 789/3/767 790/2/768 791/1/769
f 792/4/770 791/1/769 799/5/777
f 775/6/754 776/7/752 773/8/752
f 773/8/752 774/9/753 775/6/754
f 775/6/754 774/9/753 780/10/758
f 369/6/359 370/9/360 367/8/358
f 367/8/358 368/7/358 369/6/359
f 369/6/359 374/10/364 370/9/360
f 454/6/442 455/9/443 452/8/440
f 452/8/440 453/7/441 454/6/442
f 454/6/442 459/10/447 455/9/443
f 858/6/834 859/7/835 856/8/832
f 856/8/832 857/9/833 858/6/834
f 858/6/834 857/9/833 863/10/839
f 755/6/736 756/7/734 753/8/734
f 753/8/734 754/9/735 755/6/736
f 755/6/736 754/9/735 760/10/740
f 349/6/341 350/9/342 347/8/340
f 347/8/340 348/7/340 349/6/341
f 349/6/341 354/10/346 350/9/342
f 329/6/322 330/9/323 327/8/321
f 327/8/321 328/7/321 329/6/322
f 329/6/322 334/10/327 330/9/323
f 735/6/717 736/7/715 733/8/715
f 733/8/715 734/9/716 735/6/717
f 735/6/717 734/9/716 740/10/721
f 430/1/418 431/2/419 428/3/416
f 428/3/416 429/4/417 430/1/418
f 429/4/417 438/5/426 430/1/418
f 834/1/810 835/4/811 832/3/808
f 832/3/808 833/2/809 834/1/810
f 835/4/811 834/1/810 842/5/818
f 309/6/304 310/9/305 307/8/303
f 307/8/303 308/7/303 309/6/304
f 309/6/304 314/10/309 310/9/305
f 715/6/699 716/7/697 713/8/697
f 713/8/697 714/9/698 715/6/699
f 715/6/699 714/9/698 720/10/703
f 409/6/397 410/9/398 407/8/396
f 407/8/396 408/7/396 409/6/397
f 409/6/397 414/10/402 410/9/398
f 815/6/792 816/7/790 813/8/790
f 813/8/790 814/9/791 815/6/792
f 815/6/792 814/9/791 820/10/796
f 434/6/422 435/9/423 432/8/420
f 432/8/420 433/7/421 434/6/422
f 434/6/422 439/10/427 435/9/423
f 838/6/814 839/7/815 836/8/812
f 836/8/812 837/9/813 838/6/814
f 838/6/814 837/9/813 843/10/819
f 675/6/661 676/7/659 673/8/659
f 673/8/659 674/9/660 675/6/661
f 675/6/661 674/9/660 680/10/665
f 269/6/266 270/9/267 267/8/265
f 267/8/265 268/7/265 269/6/266
f 269/6/266 274/10/271 270/9/267
f 289/6/285 290/9/286 287/8/284
f 287/8/284 288/7/284 289/6/285
f 289/6/285 294/10/290 290/9/286
f 695/6/680 696/7/678 693/8/678
f 693/8/678 694/9/679 695/6/680
f 695/6/680 694/9/679 700/10/684
f 854/1/830 855/4/831 852/3/828
f 852/3/828 853/2/829 854/1/830
f 855/4/831 854/1/830 862/5/838
f 450/1/438 451/2/439 448/3/436
f 448/3/436 449/4/437 450/1/438
f 449/4/437 458/5/446 450/1/438
f 771/1/750 772/4/751 769/3/748
f 769/3/748 770/2/749 771/1/750
f 772/4/751 771/1/750 779/5/757
f 365/1/356 366/2/357 363/3/354
f 363/3/354 364/4/355 365/1/356
f 364/4/355 373/5/363 365/1/356
f 751/1/732 752/4/733 749/3/730
f 749/3/730 750/2/731 751/1/732
f 752/4/733 751/1/732 759/5/739
f 345/1/338 346/2/339 343/3/336
f 343/3/336 344/4/337 345/1/338
f 344/4/337 353/5/345 345/1/338
f 91/11/91 94/12/94 95/13/95
f 95/13/95 96/14/96 91/11/91
f 93/15/93 94/12/94 91/11/91
f 91/11/91 92/16/92 93/15/93
f 136/17/136 94/12/94 93/15/93
f 105/18/105 103/19/103 94/12/94
f 94/12/94 136/17/136 105/18/105
f 95/13/95 94/12/94 103/19/103
f 731/1/713 732/4/714 729/3/711
f 729/3/711 730/2/712 731/1/713
f 732/4/714 731/1/713 739/5/720
f 325/1/319 326/2/320 323/3/317
f 323/3/317 324/4/318 325/1/319
f 324/4/318 333/5/326 325/1/319
f 305/1/301 306/2/302 303/3/299
f 303/3/299 304/4/300 305/1/301
f 304/4/300 313/5/308 305/1/301
f 711/1/695 712/4/696 709/3/693
f 709/3/693 710/2/694 711/1/695
f 712/4/696 711/1/695 719/5/702
f 405/1/394 406/2/395 403/3/392
f 403/3/392 404/4/393 405/1/394
f 404/4/393 413/5/401 405/1/394
f 811/1/788 812/4/789 809/3/786
f 809/3/786 810/2/787 811/1/788
f 812/4/789 811/1/788 819/5/795
f 265/1/263 266/2/264 263/3/261
f 263/3/261 264/4/262 265/1/263
f 264/4/262 273/5/270 265/1/263
f 671/1/657 672/4/658 669/3/655
f 669/3/655 670/2/656 671/1/657
f 672/4/658 671/1/657 679/5/664
f 691/1/676 692/4/677 689/3/674
f 689/3/674 690/2/675 691/1/676
f 692/4/677 691/1/676 699/5/683
f 285/1/282 286/2/283 283/3/280
f 283/3/280 284/4/281 285/1/282
f 284/4/281 293/5/289 285/1/282
f 3/20/3 2/21/2 470/22/458
f 470/22/458 471/23/459 3/20/3
f 3/20/3 471/23/459 634/24/622
f 634/24/622 208/25/208 3/20/3
f 209/24/209 4/23/4 3/20/3
f 3/20/3 208/25/208 209/24/209
f 240/26/239 650/27/637 633/28/621
f 206/28/206 241/27/240 240/26/239
f 64/29/64 71/30/71 72/31/72
f 83/32/83 79/33/79 72/31/72
f 72/31/72 79/33/79 77/34/77
f 77/34/77 65/35/65 72/31/72
f 72/31/72 65/35/65 64/29/64
f 64/29/64 65/35/65 63/36/63
f 63/36/63 65/35/65 77/34/77
f 77/34/77 78/37/78 63/36/63
f 160/38/160 50/39/50 63/36/63
f 63/36/63 78/37/78 160/38/160
f 51/40/51 50/39/50 160/38/160
f 160/38/160 232/41/231 51/40/51
f 158/42/158 159/43/159 62/44/62
f 58/45/58 62/44/62 159/43/159
f 159/43/159 59/46/59 58/45/58
f 58/45/58 59/46/59 56/47/56
f 56/47/56 57/48/57 58/45/58
f 528/31/516 529/30/517 522/29/510
f 528/31/516 536/33/524 540/32/528
f 528/31/516 521/35/509 535/34/523
f 535/34/523 536/33/524 528/31/516
f 522/29/510 521/35/509 528/31/516
f 520/36/508 521/35/509 522/29/510
f 535/34/523 521/35/509 520/36/508
f 520/36/508 534/37/522 535/34/523
f 598/38/586 534/37/522 520/36/508
f 520/36/508 509/39/497 598/38/586
f 508/40/496 647/41/634 598/38/586
f 598/38/586 509/39/497 508/40/496
f 596/42/584 518/44/506 597/43/585
f 597/43/585 518/44/506 515/45/503
f 515/45/503 514/46/502 597/43/585
f 515/45/503 516/48/504 513/47/501
f 513/47/501 514/46/502 515/45/503
f 389/6/379 390/9/380 387/8/377
f 387/8/377 388/7/378 389/6/379
f 389/6/379 394/10/384 390/9/380
f 795/6/773 796/7/774 793/8/771
f 793/8/771 794/9/772 795/6/773
f 795/6/773 794/9/772 800/10/778
f 203/49/203 202/50/202 215/51/215
f 204/52/204 205/53/205 202/50/202
f 202/50/202 203/49/203 204/52/204
f 636/51/624 631/50/619 203/49/203
f 203/49/203 216/54/216 636/51/624
f 204/52/204 203/49/203 631/50/619
f 215/51/215 216/54/216 203/49/203
f 217/55/217 204/52/204 632/53/620
f 507/56/495 506/57/494 512/58/500
f 520/36/508 510/59/498 506/57/494
f 506/57/494 509/39/497 520/36/508
f 511/60/499 512/58/500 506/57/494
f 506/57/494 510/59/498 511/60/499
f 508/40/496 509/39/497 506/57/494
f 506/57/494 507/56/495 508/40/496
f 512/58/500 596/42/584 507/56/495
f 207/61/207 2/21/2 1/22/1
f 1/22/1 206/28/206 207/61/207
f 3/20/3 4/23/4 1/22/1
f 1/22/1 2/21/2 3/20/3
f 633/28/621 207/61/207 240/26/239
f 207/61/207 633/28/621 470/22/458
f 470/22/458 2/21/2 207/61/207
f 240/26/239 207/61/207 206/28/206
f 53/58/53 49/57/49 52/56/52
f 63/36/63 50/39/50 49/57/49
f 49/57/49 55/59/55 63/36/63
f 54/60/54 55/59/55 49/57/49
f 49/57/49 53/58/53 54/60/54
f 51/40/51 52/56/52 49/57/49
f 49/57/49 50/39/50 51/40/51
f 53/58/53 158/42/158 62/44/62
f 631/50/619 632/53/620 204/52/204
f 205/53/205 204/52/204 217/55/217
f 217/55/217 218/62/218 205/53/205
f 632/53/620 637/62/625 217/55/217
f 35/63/35 33/64/33 492/65/480
f 35/63/35 36/66/36 34/65/34
f 34/65/34 33/64/33 35/63/35
f 491/67/479 492/65/480 33/64/33
f 33/64/33 32/68/32 491/67/479
f 33/64/33 34/65/34 31/67/31
f 31/67/31 32/68/32 33/64/33
f 489/69/477 547/70/535 626/71/614
f 490/72/478 588/73/576 587/74/575
f 587/74/575 588/73/576 484/75/472
f 242/76/241 243/77/242 88/78/88
f 243/77/242 188/79/188 182/80/182
f 182/80/182 188/79/188 187/81/187
f 187/81/187 183/82/183 182/80/182
f 182/80/182 183/82/183 81/83/81
f 188/79/188 243/77/242 251/84/250
f 252/85/251 251/84/250 243/77/242
f 243/77/242 242/76/241 252/85/251
f 251/84/250 210/86/210 188/79/188
f 189/87/189 188/79/188 210/86/210
f 188/79/188 189/87/189 186/88/186
f 186/88/186 187/81/187 188/79/188
f 210/86/210 251/84/250 254/89/253
f 253/90/252 254/89/253 251/84/250
f 251/84/250 252/85/251 253/90/252
f 254/89/253 211/91/211 210/86/210
f 189/87/189 210/86/210 211/91/211
f 211/91/211 212/92/212 189/87/189
f 635/86/623 211/91/211 254/89/253
f 211/91/211 635/86/623 620/87/608
f 620/87/608 212/92/212 211/91/211
f 254/89/253 659/84/646 635/86/623
f 659/84/646 254/89/253 253/90/252
f 253/90/252 660/85/647 659/84/646
f 659/84/646 652/77/639 621/79/609
f 621/79/609 635/86/623 659/84/646
f 652/77/639 659/84/646 660/85/647
f 620/87/608 635/86/623 621/79/609
f 619/88/607 620/87/608 621/79/609
f 616/80/604 621/79/609 652/77/639
f 622/81/610 621/79/609 616/80/604
f 621/79/609 622/81/610 619/88/607
f 652/77/639 543/78/531 616/80/604
f 660/85/647 651/76/638 652/77/639
f 543/78/531 652/77/639 651/76/638
f 497/93/485 496/94/484 495/95/483
f 590/96/578 496/94/484 487/97/475
f 496/94/484 497/93/485 488/98/476
f 488/98/476 487/97/475 496/94/484
f 487/97/475 587/74/575 590/96/578
f 587/74/575 487/97/475 490/72/478
f 489/69/477 490/72/478 487/97/475
f 487/97/475 488/98/476 489/69/477
f 497/93/485 546/99/534 488/98/476
f 489/69/477 488/98/476 547/70/535
f 546/99/534 547/70/535 488/98/476
f 493/66/481 497/93/485 235/100/234
f 546/99/534 497/93/485 493/66/481
f 235/100/234 35/63/35 493/66/481
f 492/65/480 493/66/481 35/63/35
f 36/66/36 35/63/35 235/100/234
f 235/100/234 233/101/232 38/102/38
f 17/103/17 38/102/38 233/101/232
f 233/101/232 234/104/233 17/103/17
f 18/105/18 17/103/17 234/104/233
f 234/104/233 129/106/129 18/105/18
f 38/102/38 17/103/17 16/107/16
f 38/102/38 39/93/39 235/100/234
f 39/93/39 38/102/38 37/95/37
f 16/107/16 37/95/37 38/102/38
f 37/95/37 16/107/16 14/108/14
f 147/96/147 40/94/40 37/95/37
f 37/95/37 150/109/150 147/96/147
f 37/95/37 40/94/40 39/93/39
f 14/108/14 150/109/150 37/95/37
f 235/100/234 39/93/39 36/66/36
f 89/99/89 36/66/36 39/93/39
f 39/93/39 30/98/30 89/99/89
f 30/98/30 39/93/39 40/94/40
f 27/97/27 40/94/40 147/96/147
f 40/94/40 27/97/27 30/98/30
f 29/69/29 90/70/90 30/98/30
f 89/99/89 30/98/30 90/70/90
f 29/69/29 30/98/30 27/97/27
f 147/96/147 146/74/146 27/97/27
f 28/72/28 27/97/27 146/74/146
f 27/97/27 28/72/28 29/69/29
f 29/69/29 194/71/194 90/70/90
f 146/74/146 145/73/145 28/72/28
f 19/110/19 146/74/146 147/96/147
f 146/74/146 19/110/19 22/75/22
f 22/75/22 145/73/145 146/74/146
f 20/111/20 19/110/19 148/112/148
f 572/113/560 573/114/561 123/115/123
f 122/116/122 121/113/121 463/117/451
f 463/117/451 464/118/452 122/116/122
f 121/113/121 122/116/122 123/115/123
f 114/119/114 123/115/123 573/114/561
f 124/114/124 123/115/123 114/119/114
f 123/115/123 124/114/124 121/113/121
f 569/120/557 568/121/556 573/114/561
f 573/114/561 502/122/490 569/120/557
f 573/114/561 568/121/556 114/119/114
f 114/119/114 113/121/113 124/114/124
f 121/113/121 124/114/124 45/122/45
f 463/117/451 121/113/121 48/123/48
f 45/122/45 48/123/48 121/113/121
f 48/123/48 462/124/450 463/117/451
f 461/125/449 462/124/450 48/123/48
f 867/126/843 469/127/457 118/128/118
f 570/129/558 118/128/118 117/130/117
f 570/129/558 117/130/117 119/131/119
f 119/131/119 468/132/456 570/129/558
f 570/129/558 468/132/456 467/133/455
f 467/133/455 867/126/843 570/129/558
f 466/126/454 116/129/116 118/128/118
f 119/131/119 116/129/116 468/132/456
f 467/133/455 468/132/456 116/129/116
f 116/129/116 466/126/454 467/133/455
f 116/129/116 119/131/119 117/130/117
f 116/129/116 117/130/117 118/128/118
f 118/128/118 469/127/457 466/126/454
f 118/128/118 570/129/558 867/126/843
f 201/134/201 162/135/162 591/136/579
f 149/136/149 162/135/162 201/134/201
f 162/135/162 149/136/149 151/137/151
f 149/136/149 150/109/150 151/137/151
f 162/135/162 161/138/161 592/137/580
f 592/137/580 591/136/579 162/135/162
f 151/137/151 161/138/161 162/135/162
f 591/136/579 592/137/580 593/109/581
f 592/137/580 161/138/161 460/139/448
f 460/139/448 618/140/606 592/137/580
f 593/109/581 592/137/580 618/140/606
f 618/140/606 478/108/466 593/109/581
f 590/96/578 593/109/581 495/95/483
f 495/95/483 593/109/581 478/108/466
f 13/141/13 478/108/466 618/140/606
f 618/140/606 185/142/185 13/141/13
f 13/141/13 185/142/185 184/140/184
f 184/140/184 14/108/14 13/141/13
f 151/137/151 184/140/184 460/139/448
f 184/140/184 151/137/151 150/109/150
f 150/109/150 14/108/14 184/140/184
f 460/139/448 161/138/161 151/137/151
f 495/95/483 496/94/484 590/96/578
f 787/1/765 788/4/766 785/3/763
f 785/3/763 786/2/764 787/1/765
f 788/4/766 787/1/765 798/5/776
f 381/1/371 382/2/372 379/3/369
f 379/3/369 380/4/370 381/1/371
f 380/4/370 392/5/382 381/1/371
f 147/96/147 148/112/148 19/110/19
f 21/143/21 22/75/22 19/110/19
f 19/110/19 20/111/20 21/143/21
f 148/112/148 147/96/147 150/109/150
f 148/112/148 201/134/201 20/111/20
f 150/109/150 149/136/149 148/112/148
f 201/134/201 148/112/148 149/136/149
f 589/112/577 483/110/471 20/111/20
f 20/111/20 201/134/201 589/112/577
f 21/143/21 20/111/20 483/110/471
f 483/110/471 484/75/472 21/143/21
f 590/96/578 587/74/575 483/110/471
f 483/110/471 589/112/577 590/96/578
f 484/75/472 483/110/471 587/74/575
f 589/112/577 591/136/579 593/109/581
f 593/109/581 590/96/578 589/112/577
f 591/136/579 589/112/577 201/134/201
f 156/144/156 157/145/157 154/146/154
f 156/144/156 155/147/155 594/146/582
f 594/146/582 595/145/583 156/144/156
f 154/146/154 155/147/155 156/144/156
f 112/148/112 18/105/18 129/106/129
f 18/105/18 112/148/112 111/149/111
f 120/150/120 112/148/112 130/151/130
f 129/106/129 130/151/130 112/148/112
f 112/148/112 120/150/120 115/120/115
f 115/120/115 111/149/111 112/148/112
f 567/148/555 130/151/130 129/106/129
f 571/150/559 131/152/131 130/151/130
f 111/149/111 15/153/15 18/105/18
f 17/103/17 18/105/18 15/153/15
f 15/153/15 16/107/16 17/103/17
f 10/154/10 111/149/111 115/120/115
f 115/120/115 113/121/113 10/154/10
f 114/119/114 11/155/11 10/154/10
f 10/154/10 113/121/113 114/119/114
f 477/154/465 11/155/11 114/119/114
f 11/155/11 477/154/465 476/156/464
f 476/156/464 12/157/12 11/155/11
f 13/141/13 12/157/12 476/156/464
f 478/108/466 476/156/464 479/153/467
f 479/153/467 476/156/464 477/154/465
f 476/156/464 478/108/466 13/141/13
f 477/154/465 566/149/554 479/153/467
f 477/154/465 568/121/556 569/120/557
f 569/120/557 566/149/554 477/154/465
f 114/119/114 568/121/556 477/154/465
f 479/153/467 482/107/470 478/108/466
f 480/105/468 479/153/467 566/149/554
f 481/103/469 482/107/470 479/153/467
f 479/153/467 480/105/468 481/103/469
f 567/148/555 566/149/554 569/120/557
f 566/149/554 567/148/555 480/105/468
f 480/105/468 129/106/129 234/104/233
f 234/104/233 481/103/469 480/105/468
f 129/106/129 480/105/468 567/148/555
f 481/103/469 234/104/233 233/101/232
f 233/101/232 494/102/482 481/103/469
f 482/107/470 481/103/469 494/102/482
f 478/108/466 482/107/470 495/95/483
f 494/102/482 495/95/483 482/107/470
f 494/102/482 233/101/232 235/100/234
f 235/100/234 497/93/485 494/102/482
f 495/95/483 494/102/482 497/93/485
f 15/153/15 9/156/9 14/108/14
f 10/154/10 9/156/9 15/153/15
f 13/141/13 14/108/14 9/156/9
f 9/156/9 12/157/12 13/141/13
f 11/155/11 12/157/12 9/156/9
f 9/156/9 10/154/10 11/155/11
f 14/108/14 16/107/16 15/153/15
f 15/153/15 111/149/111 10/154/10
f 224/158/224 225/159/225 5/160/5
f 5/160/5 153/161/153 224/158/224
f 6/162/6 5/160/5 223/163/223
f 153/161/153 5/160/5 8/164/8
f 7/165/7 8/164/8 5/160/5
f 5/160/5 6/162/6 7/165/7
f 224/158/224 153/161/153 472/160/460
f 472/160/460 642/159/630 224/158/224
f 107/166/107 110/167/110 143/168/143
f 143/168/143 144/169/144 107/166/107
f 169/170/169 171/171/171 137/172/137
f 110/167/110 173/173/173 171/171/171
f 137/172/137 140/174/140 169/170/169
f 169/170/169 140/174/140 163/175/163
f 26/176/26 138/177/138 137/172/137
f 139/178/139 140/174/140 137/172/137
f 137/172/137 138/177/138 139/178/139
f 138/177/138 26/176/26 177/179/177
f 109/180/109 110/167/110 107/166/107
f 107/166/107 108/181/108 109/180/109
f 109/180/109 108/181/108 564/166/552
f 564/166/552 565/167/553 109/180/109
f 485/182/473 24/183/24 172/184/172
f 172/184/172 109/180/109 565/167/553
f 565/167/553 608/173/596 172/184/172
f 172/184/172 173/173/173 110/167/110
f 110/167/110 109/180/109 172/184/172
f 25/185/25 24/183/24 485/182/473
f 611/179/599 176/186/176 25/185/25
f 25/185/25 486/176/474 611/179/599
f 485/182/473 486/176/474 25/185/25
f 177/179/177 26/176/26 25/185/25
f 25/185/25 176/186/176 177/179/177
f 486/176/474 485/182/473 579/172/567
f 607/171/595 579/172/567 485/182/473
f 485/182/473 608/173/596 607/171/595
f 611/179/599 486/176/474 582/177/570
f 579/172/567 582/177/570 486/176/474
f 605/170/593 580/174/568 579/172/567
f 579/172/567 607/171/595 605/170/593
f 581/178/569 582/177/570 579/172/567
f 579/172/567 580/174/568 581/178/569
f 607/171/595 608/173/596 565/167/553
f 565/167/553 585/168/573 607/171/595
f 607/171/595 585/168/573 500/187/488
f 500/187/488 605/170/593 607/171/595
f 599/175/587 605/170/593 500/187/488
f 605/170/593 599/175/587 580/174/568
f 580/174/568 599/175/587 601/188/589
f 601/188/589 583/189/571 580/174/568
f 581/178/569 580/174/568 583/189/571
f 604/190/592 599/175/587 500/187/488
f 604/190/592 600/191/588 599/175/587
f 599/175/587 600/191/588 601/188/589
f 501/192/489 500/187/488 585/168/573
f 500/187/488 499/193/487 604/190/592
f 500/187/488 501/192/489 498/194/486
f 564/166/552 586/169/574 585/168/573
f 585/168/573 565/167/553 564/166/552
f 585/168/573 586/169/574 501/192/489
f 172/184/172 24/183/24 23/182/23
f 23/182/23 173/173/173 172/184/172
f 137/172/137 23/182/23 26/176/26
f 171/171/171 173/173/173 23/182/23
f 23/182/23 137/172/137 171/171/171
f 25/185/25 26/176/26 23/182/23
f 23/182/23 24/183/24 25/185/25
f 172/184/172 608/173/596 485/182/473
f 658/195/645 654/196/641 653/197/640
f 653/197/640 654/196/641 655/198/642
f 658/195/645 656/199/643 654/196/641
f 654/196/641 657/200/644 655/198/642
f 656/199/643 657/200/644 654/196/641
f 250/195/249 245/197/244 247/196/246
f 245/197/244 246/198/245 247/196/246
f 250/195/249 247/196/246 248/199/247
f 247/196/246 246/198/245 249/200/248
f 248/199/247 247/196/246 249/200/248
f 226/160/226 227/159/227 228/163/226
f 230/147/229 231/146/230 227/159/227
f 227/159/227 229/158/228 230/147/229
f 230/147/229 229/158/228 645/159/632
f 645/159/632 646/146/633 230/147/229
f 643/160/631 644/163/631 645/159/632
f 103/19/103 100/201/100 95/13/95
f 97/202/97 95/13/95 100/201/100
f 98/203/98 96/14/96 95/13/95
f 95/13/95 97/202/97 98/203/98
f 106/204/106 104/205/104 103/19/103
f 103/19/103 105/18/105 106/204/106
f 102/206/102 100/201/100 103/19/103
f 103/19/103 104/205/104 102/206/102
f 135/207/135 105/18/105 136/17/136
f 244/208/243 106/204/106 105/18/105
f 105/18/105 135/207/135 244/208/243
f 135/207/135 136/17/136 93/15/93
f 135/207/135 578/17/566 563/18/551
f 244/208/243 135/207/135 563/18/551
f 135/207/135 134/209/134 550/15/538
f 550/15/538 578/17/566 135/207/135
f 93/15/93 134/209/134 135/207/135
f 563/18/551 562/204/550 244/208/243
f 563/18/551 578/17/566 549/12/537
f 549/12/537 560/19/548 563/18/551
f 562/204/550 563/18/551 560/19/548
f 578/17/566 550/15/538 549/12/537
f 550/15/538 551/16/539 548/11/536
f 548/11/536 549/12/537 550/15/538
f 560/19/548 549/12/537 552/13/540
f 552/13/540 549/12/537 548/11/536
f 552/13/540 557/201/545 560/19/548
f 560/19/548 561/205/549 562/204/550
f 559/206/547 561/205/549 560/19/548
f 560/19/548 557/201/545 559/206/547
f 555/202/543 557/201/545 552/13/540
f 554/203/542 555/202/543 552/13/540
f 552/13/540 553/14/541 554/203/542
f 548/11/536 553/14/541 552/13/540
f 558/210/546 559/206/547 557/201/545
f 166/211/166 44/193/44 168/190/168
f 220/163/220 221/159/221 222/212/222
f 222/212/222 154/146/154 175/213/175
f 221/159/221 154/146/154 222/212/222
f 175/213/175 154/146/154 157/145/157
f 157/145/157 174/214/174 175/213/175
f 44/193/44 175/213/175 174/214/174
f 174/214/174 41/194/41 44/193/44
f 168/190/168 44/193/44 43/187/43
f 43/187/43 44/193/44 41/194/41
f 43/187/43 163/175/163 168/190/168
f 143/168/143 43/187/43 42/192/42
f 171/171/171 169/170/169 43/187/43
f 43/187/43 143/168/143 171/171/171
f 163/175/163 43/187/43 169/170/169
f 41/194/41 42/192/42 43/187/43
f 171/171/171 143/168/143 110/167/110
f 42/192/42 144/169/144 143/168/143
f 130/151/130 567/148/555 571/150/559
f 130/151/130 131/152/131 120/150/120
f 46/215/46 120/150/120 131/152/131
f 115/120/115 120/150/120 46/215/46
f 115/120/115 45/122/45 124/114/124
f 124/114/124 113/121/113 115/120/115
f 46/215/46 45/122/45 115/120/115
f 131/152/131 132/216/132 46/215/46
f 47/217/47 46/215/46 132/216/132
f 45/122/45 46/215/46 47/217/47
f 131/152/131 571/150/559 505/215/493
f 505/215/493 132/216/132 131/152/131
f 505/215/493 571/150/559 569/120/557
f 569/120/557 571/150/559 567/148/555
f 569/120/557 502/122/490 505/215/493
f 132/216/132 505/215/493 504/217/492
f 504/217/492 505/215/493 502/122/490
f 504/217/492 133/218/133 132/216/132
f 132/216/132 133/218/133 47/217/47
f 461/125/449 47/217/47 133/218/133
f 48/123/48 47/217/47 461/125/449
f 47/217/47 48/123/48 45/122/45
f 864/125/840 465/219/453 133/218/133
f 133/218/133 504/217/492 864/125/840
f 133/218/133 465/219/453 461/125/449
f 864/125/840 504/217/492 503/123/491
f 502/122/490 503/123/491 504/217/492
f 503/123/491 865/124/841 864/125/840
f 866/117/842 865/124/841 503/123/491
f 503/123/491 572/113/560 866/117/842
f 572/113/560 503/123/491 502/122/490
f 122/116/122 464/118/452 866/117/842
f 866/117/842 572/113/560 122/116/122
f 502/122/490 573/114/561 572/113/560
f 123/115/123 122/116/122 572/113/560
f 683/6/668 684/7/669 681/8/666
f 681/8/666 682/9/667 683/6/668
f 683/6/668 682/9/667 697/10/681
f 277/6/274 278/9/275 275/8/272
f 275/8/272 276/7/273 277/6/274
f 277/6/274 291/10/287 278/9/275
f 616/80/604 617/82/605 622/81/610
f 543/78/531 537/220/525 616/80/604
f 539/83/527 617/82/605 616/80/604
f 616/80/604 537/220/525 539/83/527
f 651/76/638 544/221/532 543/78/531
f 537/220/525 543/78/531 544/221/532
f 538/222/526 537/220/525 545/223/533
f 544/221/532 545/223/533 537/220/525
f 537/220/525 538/222/526 539/83/527
f 397/6/387 398/9/388 395/8/385
f 395/8/385 396/7/386 397/6/387
f 397/6/387 411/10/399 398/9/388
f 803/6/781 804/7/782 801/8/779
f 801/8/779 802/9/780 803/6/781
f 803/6/781 802/9/780 817/10/793
f 663/6/650 664/7/651 661/8/648
f 661/8/648 662/9/649 663/6/650
f 663/6/650 662/9/649 677/10/662
f 257/6/256 258/9/257 255/8/254
f 255/8/254 256/7/255 257/6/256
f 257/6/256 271/10/268 258/9/257
f 140/174/140 142/189/142 164/188/164
f 142/189/142 170/224/170 167/225/167
f 167/225/167 164/188/164 142/189/142
f 142/189/142 140/174/140 139/178/139
f 167/225/167 170/224/170 222/212/222
f 222/212/222 170/224/170 220/163/220
f 197/226/197 220/163/220 170/224/170
f 222/212/222 166/211/166 167/225/167
f 165/191/165 164/188/164 167/225/167
f 166/211/166 165/191/165 167/225/167
f 164/188/164 163/175/163 140/174/140
f 163/175/163 164/188/164 165/191/165
f 168/190/168 163/175/163 165/191/165
f 168/190/168 165/191/165 166/211/166
f 222/212/222 175/213/175 166/211/166
f 175/213/175 44/193/44 166/211/166
f 498/194/486 499/193/487 500/187/488
f 602/211/590 604/190/592 499/193/487
f 604/190/592 602/211/590 600/191/588
f 600/191/588 603/225/591 601/188/589
f 602/211/590 603/225/591 600/191/588
f 583/189/571 601/188/589 603/225/591
f 603/225/591 602/211/590 640/212/628
f 640/212/628 606/224/594 603/225/591
f 603/225/591 606/224/594 583/189/571
f 640/212/628 602/211/590 610/213/598
f 610/213/598 602/211/590 499/193/487
f 499/193/487 498/194/486 609/214/597
f 609/214/597 610/213/598 499/193/487
f 640/212/628 610/213/598 594/146/582
f 610/213/598 609/214/597 595/145/583
f 595/145/583 594/146/582 610/213/598
f 640/212/628 639/159/627 638/163/626
f 638/163/626 606/224/594 640/212/628
f 639/159/627 640/212/628 594/146/582
f 629/226/617 583/189/571 606/224/594
f 606/224/594 638/163/626 629/226/617
f 583/189/571 629/226/617 627/227/615
f 627/227/615 584/228/572 583/189/571
f 583/189/571 584/228/572 581/178/569
f 584/228/572 627/227/615 628/229/616
f 628/229/616 624/230/612 584/228/572
f 584/228/572 624/230/612 615/231/603
f 615/231/603 581/178/569 584/228/572
f 612/232/600 582/177/570 581/178/569
f 581/178/569 615/231/603 612/232/600
f 623/233/611 615/231/603 624/230/612
f 615/231/603 623/233/611 613/234/601
f 52/56/52 158/42/158 53/58/53
f 53/58/53 62/44/62 61/235/61
f 61/235/61 54/60/54 53/58/53
f 70/236/70 66/237/66 54/60/54
f 54/60/54 61/235/61 70/236/70
f 55/59/55 54/60/54 66/237/66
f 66/237/66 64/29/64 55/59/55
f 63/36/63 55/59/55 64/29/64
f 76/238/76 73/239/73 66/237/66
f 66/237/66 70/236/70 76/238/76
f 71/30/71 64/29/64 66/237/66
f 66/237/66 73/239/73 71/30/71
f 75/240/75 76/238/76 70/236/70
f 70/236/70 69/241/69 75/240/75
f 70/236/70 61/235/61 60/242/60
f 60/242/60 69/241/69 70/236/70
f 60/242/60 61/235/61 62/44/62
f 60/242/60 58/45/58 57/48/57
f 57/48/57 67/243/67 60/242/60
f 69/241/69 60/242/60 67/243/67
f 62/44/62 58/45/58 60/242/60
f 74/244/74 75/240/75 69/241/69
f 69/241/69 68/245/68 74/244/74
f 67/243/67 68/245/68 69/241/69
f 85/246/85 75/240/75 74/244/74
f 75/240/75 85/246/85 418/247/406
f 75/240/75 418/247/406 76/238/76
f 417/248/405 73/239/73 76/238/76
f 76/238/76 419/249/407 417/248/405
f 84/250/84 417/248/405 419/249/407
f 417/248/405 71/30/71 73/239/73
f 84/250/84 71/30/71 417/248/405
f 419/249/407 83/32/83 84/250/84
f 71/30/71 84/250/84 72/31/72
f 72/31/72 84/250/84 83/32/83
f 723/6/706 724/7/707 721/8/704
f 721/8/704 722/9/705 723/6/706
f 723/6/706 722/9/705 737/10/718
f 317/6/312 318/9/313 315/8/310
f 315/8/310 316/7/311 317/6/312
f 317/6/312 331/10/324 318/9/313
f 703/6/687 704/7/688 701/8/685
f 701/8/685 702/9/686 703/6/687
f 703/6/687 702/9/686 717/10/700
f 297/6/293 298/9/294 295/8/291
f 295/8/291 296/7/292 297/6/293
f 297/6/293 311/10/306 298/9/294
f 238/55/237 239/26/238 236/27/235
f 236/27/235 237/62/236 238/55/237
f 238/55/237 649/62/636 648/27/635
f 648/27/635 239/26/238 238/55/237
f 512/58/500 518/44/506 596/42/584
f 512/58/500 511/60/499 519/235/507
f 519/235/507 518/44/506 512/58/500
f 527/236/515 519/235/507 511/60/499
f 511/60/499 523/237/511 527/236/515
f 523/237/511 511/60/499 510/59/498
f 510/59/498 522/29/510 523/237/511
f 522/29/510 510/59/498 520/36/508
f 533/238/521 527/236/515 523/237/511
f 523/237/511 530/239/518 533/238/521
f 529/30/517 530/239/518 523/237/511
f 523/237/511 522/29/510 529/30/517
f 531/240/519 525/241/513 527/236/515
f 527/236/515 533/238/521 531/240/519
f 527/236/515 525/241/513 517/242/505
f 517/242/505 519/235/507 527/236/515
f 518/44/506 519/235/507 517/242/505
f 517/242/505 524/243/512 516/48/504
f 516/48/504 515/45/503 517/242/505
f 524/243/512 517/242/505 525/241/513
f 517/242/505 515/45/503 518/44/506
f 532/244/520 526/245/514 525/241/513
f 525/241/513 531/240/519 532/244/520
f 525/241/513 526/245/514 524/243/512
f 542/246/530 532/244/520 531/240/519
f 531/240/519 822/247/798 542/246/530
f 531/240/519 533/238/521 822/247/798
f 821/248/797 823/249/799 533/238/521
f 533/238/521 530/239/518 821/248/797
f 823/249/799 821/248/797 541/250/529
f 821/248/797 530/239/518 529/30/517
f 541/250/529 821/248/797 529/30/517
f 541/250/529 540/32/528 823/249/799
f 529/30/517 528/31/516 541/250/529
f 540/32/528 541/250/529 528/31/516
f 153/161/153 152/251/152 473/164/461
f 473/164/461 472/160/460 153/161/153
f 8/164/8 152/251/152 153/161/153
f 125/252/125 8/164/8 7/165/7
f 152/251/152 8/164/8 125/252/125
f 7/165/7 126/253/126 125/252/125
f 193/254/193 125/252/125 128/255/128
f 125/252/125 193/254/193 152/251/152
f 127/256/127 128/255/128 125/252/125
f 125/252/125 126/253/126 127/256/127
f 152/251/152 193/254/193 574/252/562
f 574/252/562 473/164/461 152/251/152
f 474/165/462 473/164/461 574/252/562
f 472/160/460 473/164/461 474/165/462
f 575/255/563 574/252/562 193/254/193
f 574/252/562 577/253/565 474/165/462
f 576/256/564 577/253/565 574/252/562
f 574/252/562 575/255/563 576/256/564
f 193/254/193 416/257/404 575/255/563
f 128/255/128 416/257/404 193/254/193
f 416/257/404 128/255/128 127/256/127
f 127/256/127 415/258/403 416/257/404
f 416/257/404 415/258/403 576/256/564
f 576/256/564 575/255/563 416/257/404
f 474/165/462 475/162/463 472/160/460
f 475/162/463 641/163/629 472/160/460
f 337/6/330 338/9/331 335/8/328
f 335/8/328 336/7/329 337/6/330
f 337/6/330 351/10/343 338/9/331
f 743/6/724 744/7/725 741/8/722
f 741/8/722 742/9/723 743/6/724
f 743/6/724 742/9/723 757/10/737
f 357/6/349 358/9/350 355/8/347
f 355/8/347 356/7/348 357/6/349
f 357/6/349 371/10/361 358/9/350
f 763/6/743 764/7/744 761/8/741
f 761/8/741 762/9/742 763/6/743
f 763/6/743 762/9/742 777/10/755
f 88/78/88 182/80/182 80/220/80
f 81/83/81 80/220/80 182/80/182
f 82/222/82 86/223/86 80/220/80
f 87/221/87 88/78/88 80/220/80
f 80/220/80 86/223/86 87/221/87
f 80/220/80 81/83/81 82/222/82
f 182/80/182 88/78/88 243/77/242
f 88/78/88 87/221/87 242/76/241
f 442/6/430 443/9/431 440/8/428
f 440/8/428 441/7/429 442/6/430
f 442/6/430 456/10/444 443/9/431
f 846/6/822 847/7/823 844/8/820
f 844/8/820 845/9/821 846/6/822
f 846/6/822 845/9/821 860/10/836
f 200/259/200 192/260/192 198/261/198
f 198/261/198 199/262/199 200/259/200
f 213/263/213 198/261/198 192/260/192
f 625/260/613 198/261/198 213/263/213
f 630/259/618 199/262/199 198/261/198
f 198/261/198 625/260/613 630/259/618
f 180/234/180 214/264/214 213/263/213
f 213/263/213 190/233/190 180/234/180
f 181/231/181 178/232/178 180/234/180
f 180/234/180 190/233/190 181/231/181
f 179/265/179 180/234/180 178/232/178
f 179/265/179 177/179/177 176/186/176
f 178/232/178 177/179/177 179/265/179
f 177/179/177 178/232/178 138/177/138
f 178/232/178 181/231/181 139/178/139
f 139/178/139 138/177/138 178/232/178
f 141/228/141 139/178/139 181/231/181
f 181/231/181 191/230/191 141/228/141
f 191/230/191 181/231/181 190/233/190
f 192/260/192 190/233/190 213/263/213
f 190/233/190 192/260/192 191/230/191
f 191/230/191 192/260/192 200/259/200
f 200/259/200 195/229/195 191/230/191
f 141/228/141 191/230/191 195/229/195
f 142/189/142 141/228/141 196/227/196
f 195/229/195 196/227/196 141/228/141
f 139/178/139 141/228/141 142/189/142
f 170/224/170 142/189/142 197/226/197
f 196/227/196 197/226/197 142/189/142
f 830/1/806 831/4/807 828/3/804
f 828/3/804 829/2/805 830/1/806
f 831/4/807 830/1/806 841/5/817
f 426/1/414 427/2/415 424/3/412
f 424/3/412 425/4/413 426/1/414
f 425/4/413 437/5/425 426/1/414
f 687/1/672 688/4/673 685/3/670
f 685/3/670 686/2/671 687/1/672
f 688/4/673 687/1/672 698/5/682
f 281/1/278 282/2/279 279/3/276
f 279/3/276 280/4/277 281/1/278
f 280/4/277 292/5/288 281/1/278
f 261/9/260 262/8/258 259/7/258
f 259/7/258 260/6/259 261/9/260
f 260/6/259 272/10/269 261/9/260
f 667/9/653 668/6/654 665/7/652
f 665/7/652 666/8/652 667/9/653
f 668/6/654 667/9/653 678/10/663
f 422/6/410 423/9/411 420/8/408
f 420/8/408 421/7/409 422/6/410
f 422/6/410 436/10/424 423/9/411
f 826/6/802 827/7/803 824/8/800
f 824/8/800 825/9/801 826/6/802
f 826/6/802 825/9/801 840/10/816
f 807/9/784 808/6/785 805/7/783
f 805/7/783 806/8/783 807/9/784
f 808/6/785 807/9/784 818/10/794
f 401/9/391 402/8/389 399/7/389
f 399/7/389 400/6/390 401/9/391
f 400/6/390 412/10/400 401/9/391
f 301/1/297 302/2/298 299/3/295
f 299/3/295 300/4/296 301/1/297
f 300/4/296 312/5/307 301/1/297
f 707/1/691 708/4/692 705/3/689
f 705/3/689 706/2/690 707/1/691
f 708/4/692 707/1/691 718/5/701
f 446/1/434 447/2/435 444/3/432
f 444/3/432 445/4/433 446/1/434
f 445/4/433 457/5/445 446/1/434
f 850/1/826 851/4/827 848/3/824
f 848/3/824 849/2/825 850/1/826
f 851/4/827 850/1/826 861/5/837
f 361/1/353 362/2/351 359/3/351
f 359/3/351 360/4/352 361/1/353
f 360/4/352 372/5/362 361/1/353
f 767/1/746 768/4/747 765/3/745
f 765/3/745 766/2/745 767/1/746
f 768/4/747 767/1/746 778/5/756
f 557/201/545 555/202/543 558/210/546
f 556/266/544 558/210/546 555/202/543
f 555/202/543 554/203/542 556/266/544
f 100/201/100 102/206/102 101/210/101
f 101/210/101 97/202/97 100/201/100
f 99/266/99 97/202/97 101/210/101
f 97/202/97 99/266/99 98/203/98
f 747/9/728 748/6/729 745/7/726
f 745/7/726 746/8/727 747/9/728
f 748/6/729 747/9/728 758/10/738
f 341/9/334 342/8/335 339/7/332
f 339/7/332 340/6/333 341/9/334
f 340/6/333 352/10/344 341/9/334
f 321/1/316 322/2/314 319/3/314
f 319/3/314 320/4/315 321/1/316
f 320/4/315 332/5/325 321/1/316
f 727/1/709 728/4/710 725/3/708
f 725/3/708 726/2/708 727/1/709
f 728/4/710 727/1/709 738/5/719
f 613/234/601 612/232/600 615/231/603
f 624/230/612 628/229/616 630/259/618
f 630/259/618 625/260/613 624/230/612
f 624/230/612 625/260/613 623/233/611
f 213/263/213 623/233/611 625/260/613
f 613/234/601 623/233/611 213/263/213
f 613/234/601 214/264/214 219/267/219
f 219/267/219 614/265/602 613/234/601
f 213/263/213 214/264/214 613/234/601
f 612/232/600 613/234/601 614/265/602
f 582/177/570 612/232/600 611/179/599
f 614/265/602 611/179/599 612/232/600
f 614/265/602 219/267/219 176/186/176
f 176/186/176 611/179/599 614/265/602
f 176/186/176 219/267/219 179/265/179
f 180/234/180 179/265/179 219/267/219
f 219/267/219 214/264/214 180/234/180
f 377/6/367 378/9/368 375/8/365
f 375/8/365 376/7/366 377/6/367
f 377/6/367 391/10/381 378/9/368
f 783/6/761 784/7/762 781/8/759
f 781/8/759 782/9/760 783/6/761
f 783/6/761 782/9/760 797/10/775
