# kronosa reconstructed from live game memory
v 0.00000 52.48380 -101.13828
v -9.03196 49.72457 -101.09264
v -5.20121 48.23715 -113.18838
v 0.00000 50.52326 -113.22980
v -8.80731 37.27863 -107.46900
v -4.54292 36.35067 -117.47578
v -0.00000 34.44506 -107.76838
v -0.00000 36.37513 -78.62703
v -12.17502 43.06994 -100.75874
v -7.63650 43.57946 -113.07195
v -9.80582 53.97905 -83.34189
v -8.83076 49.24585 -83.29185
v -10.91681 51.99117 -88.26801
v -13.32572 46.67862 -80.85775
v -12.35540 46.89159 -87.22440
v -11.99700 51.47166 -78.81174
v -7.57215 33.40866 -107.40157
v -4.60074 34.51094 -116.34359
v -4.54292 36.35067 -117.47578
v -8.80731 37.27863 -107.46900
v -17.14041 41.58144 -76.14158
v -10.39912 32.73517 -76.14795
v -10.53381 32.82618 -91.36965
v -14.96477 40.30876 -91.18013
v -3.48959 48.16545 -118.77092
v 0.00000 49.91838 -118.95440
v -4.76944 45.01584 -119.75436
v 0.00000 45.55345 -121.59193
v -16.91850 42.06698 -63.85907
v -9.71899 33.93311 -63.93706
v -15.75891 44.62430 -76.09665
v -5.85822 34.11581 106.61597
v -8.24225 33.88793 88.54971
v -5.44665 40.44632 88.54386
v -2.83251 37.95298 106.61604
v -0.00000 43.29633 88.51071
v 0.00000 39.66263 106.61981
v -1.53664 30.12063 106.61597
v -4.19756 28.23229 88.54895
v -5.44665 40.44632 88.54386
v -10.09141 45.05290 66.03156
v -0.00000 49.66495 66.34758
v -0.00000 43.29633 88.51071
v -4.19756 28.23229 88.54895
v -7.43434 24.15612 65.69257
v -13.19255 33.54223 65.71780
v -8.24225 33.88793 88.54971
v -14.76532 54.31961 -34.99643
v -13.55503 53.53661 -49.08303
v 0.00000 59.74089 -48.85911
v 0.00000 60.63179 -34.78944
v -2.49360 34.07373 132.26257
v -3.82951 34.17138 122.56812
v -0.00000 36.80232 122.53864
v -0.00000 35.78816 132.25244
v -0.00000 34.07372 135.10315
v -12.15199 48.03832 48.75302
v -13.64483 51.10587 33.68445
v -0.00000 58.03796 33.70667
v 0.00000 54.53543 49.47250
v -24.50121 31.40957 2.50082
v -13.35547 15.28875 2.45441
v -14.91733 15.16809 -24.06748
v -25.67284 32.51462 -23.84020
v -23.63094 36.81324 -35.55338
v -0.00000 31.12362 122.39603
v -9.50024 53.89351 -83.54961
v -11.81170 50.10433 -83.18912
v -10.05614 51.07714 -87.48255
v -11.52902 46.82731 -87.19419
v -12.19456 46.95147 -80.81863
v -10.87519 51.11512 -79.09353
v 0.00000 57.81121 -84.95270
v 0.00000 58.88621 -72.63110
v -7.24496 56.18764 -74.09105
v -25.46677 27.95697 -40.74514
v -26.45707 32.11411 -35.45211
v -39.26448 30.17170 -35.64183
v -39.59528 26.64214 -42.14923
v -26.91000 29.28150 -29.39162
v -34.66014 28.00153 -25.38179
v -48.56050 29.50870 -34.10831
v -49.10991 26.94807 -40.07378
v -41.85525 27.72480 -25.09077
v -59.75703 28.94204 -31.73202
v -66.76619 28.06943 -29.62570
v -65.62627 27.67657 -32.73686
v -60.23557 27.28370 -35.25132
v -59.68014 27.95095 -28.40730
v -38.07340 24.06461 -34.15688
v -26.70804 24.54066 -35.53057
v -26.35477 24.75381 -38.69193
v -38.73869 24.28255 -38.94326
v -34.89020 26.79693 -24.08395
v -27.48353 26.97409 -28.26201
v -26.88013 25.08032 -30.99368
v -37.72901 24.54811 -27.59604
v -48.37640 24.41454 -32.52468
v -48.74316 24.63920 -36.64697
v -41.97138 26.14273 -23.82817
v -59.55482 24.72849 -30.57726
v -60.14360 24.94036 -33.48851
v -64.02551 25.09819 -32.11070
v -64.41811 25.25602 -29.71627
v -60.31688 27.12170 -26.49420
v -60.14057 25.78903 -29.05994
v -69.28137 26.62465 -28.85529
v -27.48353 26.97409 -28.26201
v -34.89020 26.79693 -24.08395
v -39.76889 25.38941 -43.73061
v -25.10446 26.36260 -42.10375
v -41.97138 26.14273 -23.82817
v -49.10991 25.70495 -41.43558
v -48.19251 27.91043 -26.71264
v -48.19251 26.19175 -25.48513
v -60.31688 27.12170 -26.49420
v -69.28137 26.62465 -28.85529
v -67.54295 26.30899 -33.26497
v -48.28446 24.67597 -28.88967
v -18.76279 26.77240 -46.78688
v -21.27065 38.10099 -49.44561
v -24.03129 22.81511 -36.76143
v -60.73237 25.99333 -36.39977
v -17.42277 26.02641 56.01937
v -16.93404 32.80283 55.22269
v -26.88013 25.08032 -30.99368
v -27.48353 26.97409 -28.26201
v 0.00000 58.27474 -62.62043
v 0.00000 59.74089 -48.85911
v -13.55503 53.53661 -49.08303
v -12.50871 54.02093 -63.42308
v -48.19251 26.19175 -25.48513
v -23.63094 36.81324 -35.55338
v -25.67284 32.51462 -23.84020
v -21.27065 38.10099 -49.44561
v -16.93404 32.80283 55.22269
v -21.14982 29.81178 49.84190
v -21.90447 31.54027 46.44747
v -18.93894 34.42406 46.45025
v -28.55905 31.94609 46.20065
v -36.51921 31.72793 47.06669
v -37.71145 28.35297 39.88298
v -27.09228 29.90933 53.24945
v -34.58414 30.10634 55.58316
v -57.73779 28.84307 46.33018
v -56.92557 30.51046 50.86906
v -63.65531 29.34397 52.11029
v -56.10344 28.69190 55.08993
v -17.42277 26.02641 56.01937
v -19.99625 23.44748 44.35341
v -20.83869 27.78613 51.27030
v -47.15064 25.88417 43.13691
v -46.06860 25.46185 48.89677
v -31.70276 25.51032 45.96513
v -36.32718 26.27449 40.21614
v -26.75143 27.79093 54.78734
v -31.76014 26.09138 52.58198
v -34.28036 28.58473 57.38872
v -56.85304 25.79505 50.86462
v -57.39365 26.12022 47.71194
v -63.27765 26.25339 50.86473
v -55.83863 27.74804 56.71810
v -56.46775 26.25848 54.83147
v -62.80859 26.33492 53.07220
v -63.66700 27.57210 54.76354
v -17.42277 26.02641 56.01937
v -20.83869 27.78613 51.27030
v -23.12281 27.63819 38.42855
v -22.26712 27.03160 33.53267
v -22.58564 29.66981 40.06086
v -26.75143 27.79093 54.78734
v -34.28036 28.58473 57.38872
v -47.68047 27.15439 40.33435
v -38.09117 27.02819 37.63316
v -47.33321 28.33683 42.28024
v -44.88586 29.38775 56.11102
v -44.59021 27.90424 57.94110
v -55.83863 27.74804 56.71810
v -63.66700 27.57210 54.76354
v -44.73792 25.74734 55.19812
v -46.07575 30.94308 48.90384
v -58.02147 27.47153 44.78471
v -44.59021 27.90424 57.94110
v -64.58560 27.37413 49.51224
v -0.00000 29.83620 -91.24519
v -0.00000 31.69549 -107.49651
v -9.96536 24.86975 -50.14893
v -21.27065 38.10099 -49.44561
v -18.76279 26.77240 -46.78688
v -13.00346 18.08775 -36.75742
v 0.00000 15.03581 -37.74459
v -0.00000 21.05902 -50.61016
v -65.97406 27.54106 52.46713
v -8.76536 21.94815 56.60983
v 0.00000 11.46222 -24.18209
v 0.00000 10.99163 2.48455
v -10.28124 18.21865 45.45238
v -24.03129 22.81511 -36.76143
v 0.00000 29.62279 106.61597
v -11.04480 16.75335 33.58212
v -29.71281 29.38062 39.02328
v -30.07897 27.07106 37.33572
v -65.97406 27.54106 52.46713
v -15.20974 53.27335 2.48413
v -0.00000 60.86654 2.48528
v -21.27065 38.10099 -49.44561
v -9.96536 24.86975 -50.14893
v -15.99238 42.55785 -90.91069
v -14.55643 45.29979 -90.91213
v -20.85035 33.32257 33.63343
v -14.96477 40.30876 -91.18013
v -17.14041 41.58144 -76.14158
v -0.00000 41.97401 -73.56897
v -12.17502 43.06994 -100.75874
v -15.99238 42.55785 -90.91069
v 0.00000 46.24299 -79.35335
v 0.00000 46.29312 -101.10455
v -11.04480 16.75335 33.58212
v 0.00000 12.68195 33.42419
v -22.26712 27.03160 33.53267
v -10.28124 18.21865 45.45238
v -0.00000 18.78019 56.54448
v 0.00000 15.38509 45.53711
v -20.85035 33.32257 33.63343
v -14.76731 54.09956 -23.17992
v -18.93894 34.42406 46.45025
v -10.79975 51.84939 -92.11031
v 0.00000 55.82337 -92.02419
v -7.63650 43.57946 -113.07195
v 0.00000 46.06450 -112.69927
v -4.76944 45.01584 -119.75436
v -0.00000 28.84624 -76.29738
v -12.05147 51.30427 -75.12731
v -0.00000 21.80318 65.69237
v -17.14041 41.58144 -76.14158
v -0.00000 41.97401 -73.56897
v 0.00000 61.12452 -23.34389
v -0.00000 29.14003 -63.74545
v -0.00000 32.60461 -117.57620
v -0.00000 35.60514 -119.87228
v -0.00000 35.60514 -119.87228
v -0.00000 32.28682 132.20831
v 0.00000 45.55345 -121.59193
v -0.00000 21.05902 -50.61016
v -0.00000 27.10592 88.54752
v -0.00000 27.10592 88.54752
v -5.77650 45.03653 -109.93061
v -4.53635 41.48880 -111.97388
v -4.83106 45.32911 -113.32499
v -4.83106 45.32911 -113.32499
v -3.40088 41.83218 -115.29288
v -3.49437 45.64814 -116.60130
v -3.49437 45.64814 -116.60130
v -1.49706 42.04624 -117.64198
v -0.42415 45.81374 -118.82676
v -6.27551 44.59048 -106.27404
v -5.29611 41.07616 -108.68412
v -5.64973 44.82909 -109.70899
v -7.09885 44.05365 -102.25288
v -6.12686 40.66606 -104.44511
v -6.34475 44.88390 -106.27746
v -7.94593 43.94519 -99.02937
v -7.27427 40.77323 -100.70448
v -7.09885 44.05365 -102.25288
v -9.26845 43.40671 -95.14841
v -8.25117 40.24767 -97.04893
v -8.33184 43.87257 -98.56855
v -10.41066 43.65073 -91.12788
v -9.61580 40.31855 -92.69540
v -9.44899 43.66073 -94.46028
v -11.67513 43.94365 -87.00568
v -10.75343 40.85924 -88.89868
v -10.61604 44.14167 -90.49037
v -12.60236 43.86276 -82.84549
v -11.44861 40.66410 -84.63121
v -11.85517 43.91538 -86.29517
v -9.35252 37.38007 -92.81711
v -9.89610 40.57407 -91.56866
v -10.21554 38.20237 -90.26113
v -10.91010 38.39739 -88.45758
v -10.98345 40.92727 -86.90163
v -11.64970 38.52406 -85.85754
v -12.12074 38.74988 -84.05731
v -12.01785 41.48504 -82.48117
v -12.50326 39.06476 -81.37384
v -8.59148 36.85562 -96.41145
v -9.11237 40.42173 -95.47101
v -9.20445 37.76257 -93.80827
v -7.44101 36.49466 -100.34293
v -8.18868 39.94396 -98.99354
v -8.00272 36.93343 -97.10255
v -6.27663 35.84028 -104.56104
v -6.99789 39.51541 -103.31370
v -7.26703 36.69945 -101.40958
v -5.24081 35.79686 -109.08579
v -5.49686 38.77759 -107.14696
v -6.17181 36.04799 -105.79819
v -3.99163 35.66229 -112.39106
v -4.44487 38.58031 -110.56387
v -4.94726 35.80433 -109.19061
v -2.64291 35.48589 -115.79096
v -3.47400 38.47534 -114.04532
v -3.99163 35.66229 -112.39106
v -2.51422 35.88247 -115.78947
v -0.00000 35.43946 -117.39798
v -0.00000 35.51083 -117.39865
v -1.38079 38.46553 -116.54044
v 5.20121 48.23715 -113.18838
v 9.03196 49.72457 -101.09264
v 8.80731 37.27863 -107.46900
v 4.54292 36.35067 -117.47578
v 7.63650 43.57946 -113.07195
v 12.17502 43.06994 -100.75874
v 9.80582 53.97905 -83.34189
v 10.91681 51.99117 -88.26801
v 8.83076 49.24585 -83.29185
v 13.32572 46.67862 -80.85775
v 12.35540 46.89159 -87.22440
v 11.99700 51.47166 -78.81174
v 7.57215 33.40866 -107.40157
v 8.80731 37.27863 -107.46900
v 4.54292 36.35067 -117.47578
v 4.60074 34.51094 -116.34359
v 17.14041 41.58144 -76.14158
v 14.96477 40.30876 -91.18013
v 10.53381 32.82618 -91.36965
v 10.39912 32.73517 -76.14795
v 3.48959 48.16545 -118.77092
v 4.76944 45.01584 -119.75436
v 9.71899 33.93311 -63.93706
v 16.91850 42.06698 -63.85907
v 15.75891 44.62430 -76.09665
v 5.85822 34.11581 106.61597
v 2.83251 37.95298 106.61604
v 5.44665 40.44632 88.54386
v 8.24225 33.88793 88.54971
v 1.53664 30.12063 106.61597
v 4.19756 28.23229 88.54895
v 5.44665 40.44632 88.54386
v 10.09141 45.05290 66.03156
v 4.19756 28.23229 88.54895
v 8.24225 33.88793 88.54971
v 13.19255 33.54223 65.71780
v 7.43434 24.15612 65.69257
v 14.76532 54.31961 -34.99643
v 13.55503 53.53661 -49.08303
v 2.49360 34.07373 132.26257
v 3.82951 34.17138 122.56812
v 12.15199 48.03832 48.75302
v 13.64483 51.10587 33.68445
v 24.50121 31.40957 2.50082
v 25.67284 32.51462 -23.84020
v 14.91733 15.16809 -24.06748
v 13.35547 15.28875 2.45441
v 23.63094 36.81324 -35.55338
v 9.50024 53.89351 -83.54961
v 10.05614 51.07714 -87.48255
v 11.81170 50.10433 -83.18912
v 11.52902 46.82731 -87.19419
v 12.19456 46.95147 -80.81863
v 10.87519 51.11512 -79.09353
v 7.24496 56.18764 -74.09105
v 25.46677 27.95697 -40.74514
v 39.59528 26.64214 -42.14923
v 39.26448 30.17170 -35.64183
v 26.45707 32.11411 -35.45211
v 26.91000 29.28150 -29.39162
v 34.66014 28.00154 -25.38179
v 49.10991 26.94807 -40.07378
v 48.56050 29.50870 -34.10831
v 41.85524 27.72480 -25.09077
v 59.75702 28.94203 -31.73202
v 60.23557 27.28370 -35.25132
v 65.62627 27.67657 -32.73686
v 66.76618 28.06943 -29.62569
v 59.68014 27.95095 -28.40729
v 38.07339 24.06462 -34.15688
v 38.73869 24.28256 -38.94326
v 26.35476 24.75381 -38.69193
v 26.70804 24.54066 -35.53057
v 34.89019 26.79694 -24.08395
v 37.72900 24.54811 -27.59604
v 26.88013 25.08032 -30.99368
v 27.48353 26.97409 -28.26201
v 48.37640 24.41454 -32.52468
v 48.74315 24.63920 -36.64697
v 41.97138 26.14273 -23.82817
v 59.55482 24.72848 -30.57726
v 64.41811 25.25602 -29.71627
v 64.02551 25.09819 -32.11070
v 60.14360 24.94036 -33.48850
v 60.31687 27.12170 -26.49420
v 69.28137 26.62464 -28.85528
v 60.14056 25.78903 -29.05994
v 34.89019 26.79694 -24.08395
v 27.48353 26.97409 -28.26201
v 25.10446 26.36260 -42.10375
v 39.76889 25.38941 -43.73061
v 41.97138 26.14273 -23.82817
v 49.10991 25.70495 -41.43558
v 48.19251 27.91043 -26.71264
v 60.31687 27.12170 -26.49420
v 48.19251 26.19175 -25.48513
v 67.54295 26.30898 -33.26496
v 69.28137 26.62464 -28.85528
v 48.28445 24.67597 -28.88967
v 18.76279 26.77240 -46.78688
v 21.27065 38.10099 -49.44561
v 24.03129 22.81511 -36.76143
v 60.73236 25.99333 -36.39976
v 17.42277 26.02641 56.01937
v 16.93404 32.80283 55.22269
v 26.88013 25.08032 -30.99368
v 27.48353 26.97409 -28.26201
v 12.50871 54.02093 -63.42308
v 13.55503 53.53661 -49.08303
v 48.19251 26.19175 -25.48513
v 23.63094 36.81324 -35.55338
v 25.67284 32.51462 -23.84020
v 21.27065 38.10099 -49.44561
v 16.93404 32.80283 55.22269
v 18.93894 34.42406 46.45025
v 21.90447 31.54027 46.44747
v 21.14982 29.81179 49.84190
v 28.55905 31.94609 46.20065
v 37.71144 28.35297 39.88298
v 36.51920 31.72793 47.06669
v 27.09228 29.90933 53.24945
v 34.58413 30.10634 55.58316
v 57.73779 28.84307 46.33018
v 63.65530 29.34397 52.11029
v 56.92557 30.51046 50.86906
v 56.10344 28.69190 55.08993
v 17.42277 26.02641 56.01937
v 20.83869 27.78613 51.27030
v 19.99625 23.44748 44.35341
v 47.15063 25.88417 43.13691
v 36.32718 26.27449 40.21614
v 31.70276 25.51032 45.96513
v 46.06860 25.46185 48.89677
v 26.75143 27.79093 54.78734
v 34.28035 28.58473 57.38872
v 31.76013 26.09138 52.58198
v 56.85303 25.79504 50.86462
v 63.27765 26.25339 50.86473
v 57.39365 26.12022 47.71194
v 55.83863 27.74804 56.71810
v 63.66700 27.57210 54.76354
v 62.80859 26.33491 53.07220
v 56.46775 26.25847 54.83147
v 17.42277 26.02641 56.01937
v 20.83869 27.78613 51.27030
v 23.12280 27.63819 38.42855
v 22.58564 29.66981 40.06086
v 22.26712 27.03160 33.53267
v 26.75143 27.79093 54.78734
v 34.28035 28.58473 57.38872
v 47.68047 27.15439 40.33435
v 47.33320 28.33683 42.28024
v 38.09117 27.02819 37.63316
v 44.88586 29.38775 56.11102
v 55.83863 27.74804 56.71810
v 44.59020 27.90424 57.94110
v 63.66700 27.57210 54.76354
v 44.73792 25.74734 55.19812
v 46.07574 30.94308 48.90384
v 58.02147 27.47153 44.78471
v 44.59020 27.90424 57.94110
v 64.58560 27.37413 49.51224
v 9.96536 24.86975 -50.14893
v 18.76279 26.77240 -46.78688
v 21.27065 38.10099 -49.44561
v 13.00346 18.08775 -36.75742
v 65.97406 27.54106 52.46713
v 8.76536 21.94815 56.60983
v 10.28124 18.21865 45.45238
v 24.03129 22.81511 -36.76143
v 11.04480 16.75335 33.58212
v 29.71280 29.38063 39.02328
v 30.07896 27.07107 37.33572
v 65.97406 27.54106 52.46713
v 15.20974 53.27335 2.48413
v 9.96536 24.86975 -50.14893
v 21.27065 38.10099 -49.44561
v 14.55643 45.29979 -90.91213
v 15.99238 42.55785 -90.91069
v 20.85035 33.32257 33.63343
v 14.96477 40.30876 -91.18013
v 17.14041 41.58144 -76.14158
v 12.17502 43.06994 -100.75874
v 15.99238 42.55785 -90.91069
v 11.04480 16.75335 33.58212
v 22.26712 27.03160 33.53267
v 10.28124 18.21865 45.45238
v 20.85035 33.32257 33.63343
v 14.76731 54.09956 -23.17992
v 18.93894 34.42406 46.45025
v 10.79975 51.84939 -92.11031
v 7.63650 43.57946 -113.07195
v 4.76944 45.01584 -119.75436
v 12.05147 51.30427 -75.12731
v 17.14041 41.58144 -76.14158
v 5.77650 45.03653 -109.93061
v 4.83106 45.32911 -113.32499
v 4.53635 41.48880 -111.97388
v 4.83106 45.32911 -113.32499
v 3.49437 45.64814 -116.60130
v 3.40088 41.83218 -115.29288
v 3.49437 45.64814 -116.60130
v 0.42415 45.81374 -118.82676
v 1.49706 42.04624 -117.64198
v 6.27551 44.59048 -106.27404
v 5.64973 44.82909 -109.70899
v 5.29611 41.07616 -108.68412
v 7.09885 44.05365 -102.25288
v 6.34475 44.88390 -106.27746
v 6.12686 40.66606 -104.44511
v 7.94593 43.94519 -99.02937
v 7.09885 44.05365 -102.25288
v 7.27427 40.77323 -100.70448
v 9.26845 43.40671 -95.14841
v 8.33184 43.87257 -98.56855
v 8.25117 40.24767 -97.04893
v 10.41066 43.65073 -91.12788
v 9.44899 43.66073 -94.46028
v 9.61580 40.31855 -92.69540
v 11.67513 43.94365 -87.00568
v 10.61604 44.14167 -90.49037
v 10.75343 40.85924 -88.89868
v 12.60236 43.86276 -82.84549
v 11.85517 43.91538 -86.29517
v 11.44861 40.66410 -84.63121
v 9.35252 37.38007 -92.81711
v 10.21554 38.20237 -90.26113
v 9.89610 40.57407 -91.56866
v 10.91010 38.39739 -88.45758
v 11.64970 38.52406 -85.85754
v 10.98345 40.92727 -86.90163
v 12.12074 38.74988 -84.05731
v 12.50326 39.06476 -81.37384
v 12.01785 41.48504 -82.48117
v 8.59148 36.85562 -96.41145
v 9.20445 37.76257 -93.80827
v 9.11237 40.42173 -95.47101
v 7.44101 36.49466 -100.34293
v 8.00272 36.93343 -97.10255
v 8.18868 39.94396 -98.99354
v 6.27663 35.84028 -104.56104
v 7.26703 36.69945 -101.40958
v 6.99789 39.51541 -103.31370
v 5.24081 35.79686 -109.08579
v 6.17181 36.04799 -105.79819
v 5.49686 38.77759 -107.14696
v 3.99163 35.66229 -112.39106
v 4.94726 35.80433 -109.19061
v 4.44487 38.58031 -110.56387
v 2.64291 35.48589 -115.79096
v 3.99163 35.66229 -112.39106
v 3.47400 38.47534 -114.04532
v 2.51422 35.88247 -115.78947
v 1.38079 38.46553 -116.54044
vt 0.198930 0.945480
vt 0.194846 0.898643
vt 0.100094 0.930572
vt 0.105512 0.957753
vt 0.769884 0.018011
vt 0.702721 0.019758
vt 0.730808 0.055880
vt 0.838497 0.097241
vt 0.185524 0.865102
vt 0.090936 0.906286
vt 0.311754 0.895562
vt 0.295903 0.878674
vt 0.276655 0.883811
vt 0.301300 0.857453
vt 0.280704 0.865369
vt 0.336097 0.865688
vt 0.137100 0.802475
vt 0.059096 0.830000
vt 0.051200 0.842426
vt 0.139314 0.825760
vt 0.373986 0.817163
vt 0.390229 0.755452
vt 0.272053 0.762937
vt 0.272680 0.808798
vt 0.059100 0.948468
vt 0.061675 0.967019
vt 0.045863 0.938966
vt 0.031691 0.965631
vt 0.480389 0.832725
vt 0.467675 0.751006
vt 0.378802 0.831407
vt 0.119936 0.225629
vt 0.148991 0.027793
vt 0.077038 0.022046
vt 0.059531 0.220324
vt 0.004066 0.021455
vt 0.009169 0.224299
vt 0.173558 0.232063
vt 0.211498 0.043771
vt 0.982461 0.413082
vt 0.878550 0.399192
vt 0.873502 0.460775
vt 0.980098 0.467029
vt 0.986468 0.319448
vt 0.912778 0.277731
vt 0.891506 0.339493
vt 0.982871 0.362190
vt 0.308996 0.358052
vt 0.257731 0.341073
vt 0.239808 0.421683
vt 0.298996 0.448230
vt 0.049162 0.693334
vt 0.083678 0.535124
vt 0.008768 0.459144
vt 0.007773 0.693797
vt 0.034485 0.756582
vt 0.768023 0.391539
vt 0.696594 0.389613
vt 0.689378 0.478955
vt 0.775770 0.471714
vt 0.558137 0.250610
vt 0.584237 0.139312
vt 0.455697 0.115298
vt 0.419616 0.222561
vt 0.338328 0.232516
vt 0.128255 0.537002
vt 0.563745 0.607083
vt 0.551640 0.566094
vt 0.614048 0.571065
vt 0.595933 0.519276
vt 0.518128 0.518126
vt 0.486930 0.554330
vt 0.345317 0.950418
vt 0.411759 0.966073
vt 0.405361 0.915538
vt 0.786684 0.606056
vt 0.719490 0.610902
vt 0.729273 0.717462
vt 0.785683 0.716052
vt 0.656446 0.629563
vt 0.647416 0.707228
vt 0.741371 0.806675
vt 0.788327 0.804431
vt 0.663948 0.770150
vt 0.764284 0.900183
vt 0.779190 0.955016
vt 0.796138 0.939943
vt 0.795219 0.897272
vt 0.740225 0.910759
vt 0.896443 0.726492
vt 0.914250 0.648475
vt 0.879423 0.633505
vt 0.859674 0.720982
vt 0.991368 0.727445
vt 0.989278 0.663397
vt 0.939658 0.656190
vt 0.947573 0.737539
vt 0.885932 0.820144
vt 0.850293 0.808825
vt 0.973469 0.774887
vt 0.875372 0.905430
vt 0.845700 0.900151
vt 0.850101 0.931823
vt 0.875690 0.945934
vt 0.927553 0.926176
vt 0.905098 0.916424
vt 0.877768 0.977529
vt 0.618199 0.639044
vt 0.622514 0.716172
vt 0.820668 0.718302
vt 0.837739 0.612335
vt 0.639267 0.773593
vt 0.820866 0.803740
vt 0.685191 0.826786
vt 0.661674 0.847876
vt 0.719740 0.933874
vt 0.775208 0.987160
vt 0.824797 0.962442
vt 0.913832 0.827269
vt 0.854720 0.554235
vt 0.792087 0.499617
vt 0.912154 0.566934
vt 0.822247 0.896806
vt 0.816563 0.282390
vt 0.814142 0.317275
vt 0.393871 0.191209
vt 0.401960 0.202201
vt 0.476506 0.971380
vt 0.616770 0.981802
vt 0.631103 0.902231
vt 0.483499 0.888627
vt 0.943244 0.834302
vt 0.722994 0.539062
vt 0.628605 0.567290
vt 0.257951 0.241986
vt 0.153731 0.666887
vt 0.186677 0.657548
vt 0.183915 0.617221
vt 0.164425 0.621927
vt 0.219400 0.617097
vt 0.261916 0.615028
vt 0.259297 0.574784
vt 0.222932 0.660377
vt 0.270599 0.663810
vt 0.388300 0.586178
vt 0.391956 0.604421
vt 0.435894 0.597607
vt 0.402103 0.628603
vt 0.215926 0.420440
vt 0.219755 0.492250
vt 0.254827 0.444481
vt 0.325424 0.556982
vt 0.337348 0.533669
vt 0.245780 0.514791
vt 0.261136 0.547578
vt 0.273790 0.461681
vt 0.279570 0.490157
vt 0.304668 0.474531
vt 0.401730 0.551396
vt 0.391422 0.564675
vt 0.435582 0.571100
vt 0.419602 0.523043
vt 0.413685 0.534285
vt 0.443231 0.557196
vt 0.457708 0.550586
vt 0.171772 0.687830
vt 0.197672 0.676176
vt 0.195082 0.541828
vt 0.162952 0.546627
vt 0.181137 0.570065
vt 0.225578 0.670898
vt 0.272469 0.676307
vt 0.320521 0.570203
vt 0.258639 0.563427
vt 0.319492 0.582737
vt 0.337143 0.653896
vt 0.341533 0.665919
vt 0.413070 0.643610
vt 0.449213 0.607159
vt 0.352191 0.511553
vt 0.324075 0.614152
vt 0.388442 0.575765
vt 0.362200 0.496917
vt 0.436742 0.582206
vt 0.260177 0.702323
vt 0.115121 0.764012
vt 0.329172 0.057173
vt 0.278240 0.123082
vt 0.329688 0.137165
vt 0.393732 0.090745
vt 0.413855 0.013756
vt 0.337580 0.007257
vt 0.459566 0.567393
vt 0.858045 0.236488
vt 0.481456 0.027551
vt 0.607276 0.057545
vt 0.180627 0.462195
vt 0.375168 0.168214
vt 0.222146 0.250599
vt 0.157983 0.506571
vt 0.221040 0.575174
vt 0.224197 0.553986
vt 0.456839 0.592945
vt 0.536860 0.370992
vt 0.525966 0.485715
vt 0.626568 0.810163
vt 0.598503 0.718361
vt 0.266615 0.826887
vt 0.277630 0.847403
vt 0.156206 0.564789
vt 0.894381 0.024939
vt 0.981606 0.028615
vt 0.971176 0.157239
vt 0.826880 0.016368
vt 0.902273 0.025906
vt 0.897796 0.126606
vt 0.785734 0.075892
vt 0.741771 0.187632
vt 0.764529 0.110957
vt 0.708515 0.260974
vt 0.798865 0.206456
vt 0.889534 0.181890
vt 0.831590 0.144900
vt 0.708285 0.296149
vt 0.396914 0.363631
vt 0.764203 0.313138
vt 0.259172 0.884287
vt 0.270499 0.952933
vt 0.741282 0.017968
vt 0.726816 0.051842
vt 0.699393 0.019016
vt 0.389060 0.681333
vt 0.400631 0.866595
vt 0.937446 0.227171
vt 0.981257 0.025822
vt 0.970827 0.154446
vt 0.376136 0.475857
vt 0.456053 0.690834
vt 0.031812 0.815431
vt 0.015679 0.838623
vt 0.682235 0.035796
vt 0.075282 0.710240
vt 0.682856 0.038100
vt 0.578121 0.659564
vt 0.989072 0.260236
vt 0.284438 0.061086
vt 0.038585 0.924965
vt 0.138262 0.859698
vt 0.017640 0.858058
vt 0.038585 0.924965
vt 0.138262 0.859698
vt 0.017640 0.858058
vt 0.038585 0.924965
vt 0.138262 0.859698
vt 0.017640 0.858058
vt 0.038585 0.924965
vt 0.138262 0.859698
vt 0.017640 0.858058
vt 0.038585 0.924965
vt 0.138262 0.859698
vt 0.017640 0.858058
vt 0.038585 0.924965
vt 0.138262 0.859698
vt 0.017640 0.858058
vt 0.038585 0.924965
vt 0.138262 0.859698
vt 0.017640 0.858058
vt 0.038585 0.924965
vt 0.138262 0.859698
vt 0.017640 0.858058
vt 0.038585 0.924965
vt 0.138262 0.859698
vt 0.017640 0.858058
vt 0.038585 0.924965
vt 0.138262 0.859698
vt 0.017640 0.858058
vt 0.038585 0.924965
vt 0.138262 0.859698
vt 0.017640 0.858058
vt 0.038585 0.924965
vt 0.138262 0.859698
vt 0.017640 0.858058
vt 0.038585 0.924965
vt 0.138262 0.859698
vt 0.017640 0.858058
vt 0.038585 0.924965
vt 0.138262 0.859698
vt 0.017640 0.858058
vt 0.038585 0.924965
vt 0.138262 0.859698
vt 0.017640 0.858058
vt 0.038585 0.924965
vt 0.138262 0.859698
vt 0.017640 0.858058
vt 0.038585 0.924965
vt 0.138262 0.859698
vt 0.017640 0.858058
vt 0.038585 0.924965
vt 0.138262 0.859698
vt 0.017640 0.858058
vt 0.038585 0.924965
vt 0.138262 0.859698
vt 0.017640 0.858058
vt 0.017640 0.858058
vt 0.041682 0.920722
vt 0.044498 0.920040
vt 0.138262 0.859698
vt 0.100094 0.930572
vt 0.194846 0.898643
vt 0.769884 0.018011
vt 0.702721 0.019758
vt 0.090936 0.906286
vt 0.185524 0.865102
vt 0.311754 0.895562
vt 0.276655 0.883811
vt 0.295903 0.878674
vt 0.301300 0.857453
vt 0.280704 0.865369
vt 0.336097 0.865688
vt 0.137100 0.802475
vt 0.139314 0.825760
vt 0.051200 0.842426
vt 0.059096 0.830000
vt 0.373986 0.817163
vt 0.272680 0.808798
vt 0.272053 0.762937
vt 0.390229 0.755452
vt 0.059100 0.948468
vt 0.045863 0.938966
vt 0.467675 0.751006
vt 0.480389 0.832725
vt 0.378802 0.831407
vt 0.119936 0.225629
vt 0.059531 0.220324
vt 0.077038 0.022046
vt 0.148991 0.027793
vt 0.173558 0.232063
vt 0.211498 0.043771
vt 0.982461 0.413082
vt 0.878550 0.399192
vt 0.986468 0.319448
vt 0.982871 0.362190
vt 0.891506 0.339493
vt 0.912778 0.277731
vt 0.308996 0.358052
vt 0.257731 0.341073
vt 0.049162 0.693334
vt 0.083678 0.535124
vt 0.768023 0.391539
vt 0.696594 0.389613
vt 0.558137 0.250610
vt 0.419616 0.222561
vt 0.455697 0.115298
vt 0.584237 0.139312
vt 0.338328 0.232516
vt 0.563745 0.607083
vt 0.614048 0.571065
vt 0.551640 0.566094
vt 0.595933 0.519276
vt 0.518128 0.518126
vt 0.486930 0.554330
vt 0.405361 0.915538
vt 0.786684 0.606056
vt 0.785683 0.716052
vt 0.729273 0.717462
vt 0.719490 0.610902
vt 0.656446 0.629563
vt 0.647416 0.707228
vt 0.788327 0.804431
vt 0.741371 0.806675
vt 0.663948 0.770150
vt 0.764284 0.900183
vt 0.795219 0.897272
vt 0.796138 0.939943
vt 0.779190 0.955016
vt 0.740225 0.910759
vt 0.896443 0.726492
vt 0.859674 0.720982
vt 0.879423 0.633505
vt 0.914250 0.648475
vt 0.991368 0.727445
vt 0.947573 0.737539
vt 0.939658 0.656190
vt 0.989278 0.663397
vt 0.885932 0.820144
vt 0.850293 0.808825
vt 0.973469 0.774887
vt 0.875372 0.905430
vt 0.875690 0.945934
vt 0.850101 0.931823
vt 0.845700 0.900151
vt 0.927553 0.926176
vt 0.877768 0.977529
vt 0.905098 0.916424
vt 0.622514 0.716172
vt 0.618199 0.639044
vt 0.837739 0.612335
vt 0.820668 0.718302
vt 0.639267 0.773593
vt 0.820866 0.803740
vt 0.685191 0.826786
vt 0.719740 0.933874
vt 0.661674 0.847876
vt 0.824797 0.962442
vt 0.775208 0.987160
vt 0.913832 0.827269
vt 0.854720 0.554235
vt 0.792087 0.499617
vt 0.912154 0.566934
vt 0.822247 0.896806
vt 0.816563 0.282390
vt 0.814142 0.317275
vt 0.393871 0.191209
vt 0.401960 0.202201
vt 0.483499 0.888627
vt 0.631103 0.902231
vt 0.943244 0.834302
vt 0.722994 0.539062
vt 0.628605 0.567290
vt 0.257951 0.241986
vt 0.153731 0.666887
vt 0.164425 0.621927
vt 0.183915 0.617221
vt 0.186677 0.657548
vt 0.219400 0.617097
vt 0.259297 0.574784
vt 0.261916 0.615028
vt 0.222932 0.660377
vt 0.270599 0.663810
vt 0.388300 0.586178
vt 0.435894 0.597607
vt 0.391956 0.604421
vt 0.402103 0.628603
vt 0.215926 0.420440
vt 0.254827 0.444481
vt 0.219755 0.492250
vt 0.325424 0.556982
vt 0.261136 0.547578
vt 0.245780 0.514791
vt 0.337348 0.533669
vt 0.273790 0.461681
vt 0.304668 0.474531
vt 0.279570 0.490157
vt 0.401730 0.551396
vt 0.435582 0.571100
vt 0.391422 0.564675
vt 0.419602 0.523043
vt 0.457708 0.550586
vt 0.443231 0.557196
vt 0.413685 0.534285
vt 0.171772 0.687830
vt 0.197672 0.676176
vt 0.195082 0.541828
vt 0.181137 0.570065
vt 0.162952 0.546627
vt 0.225578 0.670898
vt 0.272469 0.676307
vt 0.320521 0.570203
vt 0.319492 0.582737
vt 0.258639 0.563427
vt 0.337143 0.653896
vt 0.413070 0.643610
vt 0.341533 0.665919
vt 0.449213 0.607159
vt 0.352191 0.511553
vt 0.324075 0.614152
vt 0.388442 0.575765
vt 0.362200 0.496917
vt 0.436742 0.582206
vt 0.329172 0.057173
vt 0.329688 0.137165
vt 0.278240 0.123082
vt 0.393732 0.090745
vt 0.459566 0.567393
vt 0.858045 0.236488
vt 0.180627 0.462195
vt 0.375168 0.168214
vt 0.157983 0.506571
vt 0.221040 0.575174
vt 0.224197 0.553986
vt 0.456839 0.592945
vt 0.536860 0.370992
vt 0.598503 0.718361
vt 0.626568 0.810163
vt 0.277630 0.847403
vt 0.266615 0.826887
vt 0.156206 0.564789
vt 0.894381 0.024939
vt 0.981606 0.028615
vt 0.826880 0.016368
vt 0.902273 0.025906
vt 0.741771 0.187632
vt 0.708515 0.260974
vt 0.798865 0.206456
vt 0.708285 0.296149
vt 0.396914 0.363631
vt 0.764203 0.313138
vt 0.259172 0.884287
vt 0.741282 0.017968
vt 0.699393 0.019016
vt 0.400631 0.866595
vt 0.981257 0.025822
vt 0.038585 0.924965
vt 0.017640 0.858058
vt 0.138262 0.859698
vt 0.038585 0.924965
vt 0.017640 0.858058
vt 0.138262 0.859698
vt 0.038585 0.924965
vt 0.017640 0.858058
vt 0.138262 0.859698
vt 0.038585 0.924965
vt 0.017640 0.858058
vt 0.138262 0.859698
vt 0.038585 0.924965
vt 0.017640 0.858058
vt 0.138262 0.859698
vt 0.038585 0.924965
vt 0.017640 0.858058
vt 0.138262 0.859698
vt 0.038585 0.924965
vt 0.017640 0.858058
vt 0.138262 0.859698
vt 0.038585 0.924965
vt 0.017640 0.858058
vt 0.138262 0.859698
vt 0.038585 0.924965
vt 0.017640 0.858058
vt 0.138262 0.859698
vt 0.038585 0.924965
vt 0.017640 0.858058
vt 0.138262 0.859698
vt 0.038585 0.924965
vt 0.017640 0.858058
vt 0.138262 0.859698
vt 0.038585 0.924965
vt 0.017640 0.858058
vt 0.138262 0.859698
vt 0.038585 0.924965
vt 0.017640 0.858058
vt 0.138262 0.859698
vt 0.038585 0.924965
vt 0.017640 0.858058
vt 0.138262 0.859698
vt 0.038585 0.924965
vt 0.017640 0.858058
vt 0.138262 0.859698
vt 0.038585 0.924965
vt 0.017640 0.858058
vt 0.138262 0.859698
vt 0.038585 0.924965
vt 0.017640 0.858058
vt 0.138262 0.859698
vt 0.038585 0.924965
vt 0.017640 0.858058
vt 0.138262 0.859698
vt 0.038585 0.924965
vt 0.017640 0.858058
vt 0.138262 0.859698
vt 0.017640 0.858058
vt 0.138262 0.859698
vn -0.00000 0.96765 -0.25228
vn -0.68316 0.66736 -0.29652
vn -0.64889 0.72198 -0.24016
vn 0.00000 0.99050 -0.13749
vn 0.30489 0.95199 -0.02761
vn 0.25855 0.96359 0.06816
vn 0.00000 0.99968 0.02543
vn 0.00000 0.96868 -0.24830
vn -0.85967 0.41732 -0.29463
vn -0.85560 0.42272 -0.29876
vn -0.76247 0.63710 -0.11287
vn -0.94126 0.32129 -0.10394
vn -0.94555 0.26215 0.19290
vn -0.68190 0.69524 -0.22730
vn -0.78167 0.60830 0.13768
vn -0.86437 0.39449 -0.31184
vn -0.66796 -0.70393 -0.24149
vn -0.56227 -0.72401 -0.39958
vn -0.71492 -0.39259 -0.57859
vn -0.89547 -0.36410 -0.25605
vn -0.95532 -0.29555 0.00414
vn -0.53475 -0.84441 0.03181
vn -0.71642 -0.68990 -0.10387
vn -0.85187 -0.50054 -0.15421
vn -0.52918 0.69955 -0.48022
vn 0.00000 0.83457 -0.55090
vn -0.74200 0.45735 -0.49018
vn 0.00000 0.48006 -0.87724
vn -0.98761 0.02683 -0.15462
vn -0.56755 -0.80467 -0.17434
vn -0.87070 0.48874 -0.05492
vn -0.97822 -0.13875 0.15441
vn -0.96600 -0.16480 0.19919
vn -0.68079 0.69794 0.22225
vn -0.60668 0.77824 0.16210
vn 0.00000 0.97371 0.22778
vn 0.00000 0.98240 0.18681
vn -0.52179 -0.84324 0.12915
vn -0.62538 -0.75592 0.19361
vn -0.68079 0.69794 0.22225
vn -0.80530 0.53622 0.25291
vn 0.00000 0.96398 0.26597
vn 0.00000 0.97371 0.22778
vn -0.62538 -0.75592 0.19361
vn -0.46643 -0.82679 0.31442
vn -0.92787 -0.16385 0.33498
vn -0.96600 -0.16480 0.19919
vn -0.68874 0.72345 -0.04757
vn -0.69183 0.71700 -0.08538
vn -0.00000 0.99614 -0.08776
vn -0.00000 0.99859 -0.05311
vn -0.93748 0.01670 0.34763
vn -0.96518 0.21166 0.15370
vn -0.00000 0.98953 0.14436
vn 0.00000 0.94682 0.32175
vn -0.00000 0.00984 0.99995
vn -0.67757 0.70072 0.22336
vn -0.72416 0.67712 0.13078
vn -0.00000 0.98277 0.18483
vn 0.00000 0.96896 0.24724
vn -0.99076 -0.12454 0.05365
vn -0.52579 -0.84987 0.03558
vn -0.60280 -0.79762 0.02100
vn -0.97437 0.12195 0.18904
vn -0.89726 0.43075 -0.09681
vn 0.00000 -0.99370 0.11210
vn -0.85419 0.51301 -0.08474
vn -0.94065 0.32831 -0.08598
vn -0.87848 0.39427 -0.26987
vn -0.96339 0.17013 -0.20720
vn -0.98953 0.14152 0.02841
vn -0.91556 0.38564 0.11418
vn -0.00000 0.98705 -0.16040
vn 0.00000 0.99991 -0.01338
vn -0.47617 0.87817 -0.04559
vn -0.51952 0.54360 -0.65925
vn -0.56740 0.80723 -0.16257
vn -0.08090 0.98946 -0.12009
vn -0.05433 0.79272 -0.60716
vn -0.42780 0.77877 0.45882
vn 0.04336 0.88046 0.47213
vn -0.08087 0.99243 -0.09238
vn -0.14669 0.84271 -0.51800
vn -0.07614 0.82842 0.55490
vn -0.08961 0.99523 -0.03854
vn -0.27930 0.95418 0.10742
vn -0.28063 0.86772 -0.41025
vn -0.21474 0.79775 -0.56345
vn -0.04397 0.94123 0.33488
vn 0.02299 -0.99957 0.01841
vn -0.26385 -0.96455 0.00525
vn -0.15616 -0.95808 -0.24019
vn -0.01172 -0.98443 -0.17538
vn 0.27832 -0.03245 0.95994
vn 0.18155 -0.35791 0.91594
vn -0.09425 -0.93032 0.35442
vn 0.04244 -0.96776 0.24828
vn -0.03227 -0.99948 0.00194
vn -0.07997 -0.98248 -0.16834
vn -0.09449 -0.46825 0.87853
vn -0.05011 -0.97953 0.19497
vn -0.08125 -0.98343 -0.16206
vn -0.17092 -0.97612 -0.13411
vn -0.13472 -0.94701 0.29159
vn -0.13591 0.15328 0.97879
vn -0.04620 -0.86961 0.49157
vn -0.76072 -0.15254 0.63091
vn 0.18155 -0.35791 0.91594
vn 0.27832 -0.03245 0.95994
vn -0.05721 -0.21648 -0.97461
vn -0.23133 -0.38912 -0.89167
vn -0.09449 -0.46825 0.87853
vn -0.31221 0.00183 -0.95001
vn -0.05865 0.87746 0.47606
vn -0.18844 -0.24280 0.95160
vn -0.13591 0.15328 0.97879
vn -0.76072 -0.15254 0.63091
vn -0.72177 0.04412 -0.69073
vn -0.06482 -0.94749 0.31314
vn -0.50185 -0.48955 -0.71309
vn -0.90984 0.07296 -0.40849
vn -0.44870 -0.85400 -0.26335
vn -0.30850 -0.65398 -0.69075
vn -0.75614 -0.43740 0.48675
vn -0.87440 0.34382 0.34237
vn -0.09425 -0.93032 0.35442
vn 0.18155 -0.35791 0.91594
vn 0.00000 1.00000 0.00033
vn -0.00000 0.99614 -0.08776
vn -0.69183 0.71700 -0.08538
vn -0.69391 0.71661 -0.07041
vn -0.18844 -0.24280 0.95160
vn -0.89726 0.43075 -0.09681
vn -0.97437 0.12195 0.18904
vn -0.90984 0.07296 -0.40849
vn -0.87440 0.34382 0.34237
vn -0.26837 0.62668 0.73161
vn -0.30741 0.94643 0.09887
vn -0.83593 0.53256 0.13265
vn -0.00117 0.99802 -0.06296
vn -0.07611 0.98375 -0.16261
vn -0.12392 0.89200 -0.43473
vn 0.22310 0.83595 0.50142
vn 0.06518 0.88737 0.45642
vn -0.23254 0.86049 -0.45331
vn -0.10419 0.99095 0.08460
vn -0.33559 0.93173 0.13875
vn -0.10133 0.88151 0.46117
vn -0.75614 -0.43740 0.48675
vn -0.49049 -0.86386 0.11472
vn -0.32809 -0.51799 0.78996
vn -0.08657 -0.96654 -0.24145
vn -0.01283 -0.99988 -0.00891
vn 0.03108 -0.99940 -0.01501
vn 0.00195 -0.97782 -0.20945
vn 0.46222 -0.07607 0.88350
vn 0.11215 -0.96188 0.24942
vn 0.18130 -0.32179 0.92929
vn -0.05086 -0.99836 0.02640
vn -0.14760 -0.95830 -0.24469
vn -0.26839 -0.95593 -0.11906
vn -0.19595 0.22488 0.95448
vn -0.08164 -0.89173 0.44513
vn -0.20642 -0.92203 0.32749
vn -0.50299 -0.04669 0.86303
vn -0.75614 -0.43740 0.48675
vn -0.32809 -0.51799 0.78996
vn -0.57827 -0.44245 -0.68545
vn -0.97152 -0.23360 -0.03968
vn -0.66149 0.68984 -0.29419
vn 0.46222 -0.07607 0.88350
vn 0.18130 -0.32179 0.92929
vn -0.28354 0.44619 -0.84883
vn -0.17326 -0.18637 -0.96708
vn -0.12276 0.89951 -0.41931
vn -0.05983 0.89349 0.44509
vn -0.03806 -0.00977 0.99923
vn -0.19595 0.22488 0.95448
vn -0.50299 -0.04669 0.86303
vn 0.02113 -0.94066 0.33870
vn -0.07450 0.99492 -0.06764
vn -0.44117 -0.42889 -0.78830
vn -0.03806 -0.00977 0.99923
vn -0.71397 -0.10321 -0.69253
vn -0.00000 -0.99768 -0.06809
vn -0.00000 -0.99098 -0.13401
vn -0.45765 -0.71338 -0.53071
vn -0.90984 0.07296 -0.40849
vn -0.50185 -0.48955 -0.71309
vn -0.30144 -0.87697 -0.37425
vn 0.00000 -0.91943 -0.39324
vn 0.00000 -0.86513 -0.50154
vn -0.88804 -0.42367 0.17857
vn -0.37285 -0.87628 0.30515
vn -0.00000 -0.99155 -0.12970
vn -0.00000 -0.99983 0.01847
vn -0.37322 -0.89162 0.25637
vn -0.44870 -0.85400 -0.26335
vn -0.00000 -0.99321 0.11636
vn -0.50821 -0.85848 0.06888
vn -0.01606 0.82006 -0.57205
vn 0.06854 -0.61872 -0.78262
vn -0.88804 -0.42367 0.17857
vn -0.80016 0.59717 0.05594
vn 0.00000 0.99852 0.05439
vn -0.90984 0.07296 -0.40849
vn -0.45765 -0.71338 -0.53071
vn -0.88644 0.44308 -0.13380
vn -0.79701 0.59851 -0.08102
vn -0.93317 0.35575 0.05136
vn 0.29384 0.95448 -0.05119
vn 0.20672 0.88238 -0.42270
vn 0.00000 0.67036 -0.74204
vn 0.23937 -0.97055 0.02705
vn 0.22988 -0.97319 -0.00779
vn 0.00000 -0.98684 -0.16173
vn 0.00000 -0.99969 0.02473
vn -0.50821 -0.85848 0.06888
vn 0.00000 -0.99329 0.11563
vn -0.97152 -0.23360 -0.03968
vn -0.37322 -0.89162 0.25637
vn 0.00000 -0.94991 0.31251
vn 0.00000 -0.97595 0.21798
vn -0.93317 0.35575 0.05136
vn -0.65111 0.75890 0.01143
vn -0.83593 0.53256 0.13265
vn -0.72170 0.67320 -0.16111
vn -0.00000 0.96248 -0.27134
vn 0.29294 -0.95613 0.00121
vn 0.00000 -1.00000 0.00197
vn 0.22400 -0.97457 -0.00657
vn 0.00000 -0.99968 0.02525
vn -0.81600 0.57674 -0.03893
vn 0.00000 -0.96280 0.27022
vn 0.18912 -0.92412 -0.33201
vn 0.00000 -0.80460 -0.59381
vn -0.00000 0.99999 -0.00506
vn 0.00000 -0.96412 -0.26548
vn -0.00000 -0.77416 -0.63299
vn -0.00000 -0.60771 -0.79416
vn 0.00000 0.99544 0.09541
vn 0.00000 -0.94239 0.33453
vn 0.00000 -0.99835 0.05737
vn 0.00000 -0.86513 -0.50154
vn -0.00000 -0.98373 0.17967
vn -0.00000 -0.98373 0.17967
vn -0.94536 -0.17035 -0.27799
vn -0.94536 -0.17035 -0.27799
vn -0.92892 -0.16278 -0.33259
vn -0.92892 -0.16278 -0.33259
vn -0.90941 -0.15466 -0.38609
vn -0.77406 -0.12638 -0.62037
vn -0.77406 -0.12638 -0.62037
vn -0.58143 -0.08875 -0.80874
vn -0.58143 -0.08875 -0.80874
vn -0.97195 -0.14264 -0.18698
vn -0.97195 -0.14264 -0.18698
vn -0.97195 -0.14264 -0.18698
vn -0.96668 -0.10536 -0.23328
vn -0.96733 -0.14138 -0.21042
vn -0.96733 -0.14138 -0.21042
vn -0.96428 -0.06914 -0.25572
vn -0.96428 -0.06914 -0.25572
vn -0.96668 -0.10536 -0.23328
vn -0.95029 -0.13813 -0.27905
vn -0.95029 -0.13813 -0.27905
vn -0.95029 -0.13813 -0.27905
vn -0.95608 -0.09813 -0.27620
vn -0.95608 -0.09813 -0.27620
vn -0.95608 -0.09813 -0.27620
vn -0.95004 -0.10309 -0.29460
vn -0.95004 -0.10309 -0.29460
vn -0.95004 -0.10309 -0.29460
vn -0.95129 -0.22617 -0.20950
vn -0.95129 -0.22617 -0.20950
vn -0.95129 -0.22617 -0.20950
vn -0.95061 -0.04155 -0.30760
vn -0.95061 -0.04155 -0.30760
vn -0.95061 -0.04155 -0.30760
vn -0.95011 0.14296 -0.27723
vn -0.95011 0.14296 -0.27723
vn -0.95011 0.14296 -0.27723
vn -0.97995 0.12587 -0.15446
vn -0.97995 0.12587 -0.15446
vn -0.97995 0.12587 -0.15446
vn -0.97596 -0.09024 -0.19837
vn -0.97596 -0.09024 -0.19837
vn -0.97596 -0.09024 -0.19837
vn -0.97690 -0.15364 -0.14854
vn -0.97690 -0.15364 -0.14854
vn -0.97690 -0.15364 -0.14854
vn -0.95681 -0.09446 -0.27494
vn -0.95681 -0.09446 -0.27494
vn -0.95681 -0.09446 -0.27494
vn -0.95545 0.09883 -0.27812
vn -0.95545 0.09883 -0.27812
vn -0.95545 0.09883 -0.27812
vn -0.94489 -0.00665 -0.32733
vn -0.95735 0.03116 -0.28724
vn -0.95735 0.03116 -0.28724
vn -0.92940 -0.04443 -0.36638
vn -0.92940 -0.04443 -0.36638
vn -0.94489 -0.00665 -0.32733
vn -0.53988 -0.00787 -0.84170
vn 0.00000 -0.00941 -0.99996
vn 0.00000 -0.00934 -0.99996
vn -0.53988 -0.00781 -0.84171
vn 0.64889 0.72198 -0.24016
vn 0.68316 0.66736 -0.29652
vn -0.30489 0.95199 -0.02761
vn -0.25855 0.96359 0.06816
vn 0.85560 0.42272 -0.29876
vn 0.85967 0.41732 -0.29463
vn 0.76247 0.63710 -0.11287
vn 0.94555 0.26215 0.19290
vn 0.94126 0.32129 -0.10394
vn 0.68190 0.69524 -0.22730
vn 0.78167 0.60830 0.13768
vn 0.86437 0.39449 -0.31184
vn 0.66796 -0.70393 -0.24149
vn 0.89547 -0.36410 -0.25605
vn 0.71492 -0.39259 -0.57859
vn 0.56227 -0.72401 -0.39958
vn 0.95532 -0.29555 0.00414
vn 0.85187 -0.50054 -0.15421
vn 0.71642 -0.68990 -0.10387
vn 0.53475 -0.84441 0.03181
vn 0.52918 0.69955 -0.48022
vn 0.74200 0.45735 -0.49018
vn 0.56755 -0.80467 -0.17434
vn 0.98761 0.02683 -0.15462
vn 0.87070 0.48874 -0.05492
vn 0.97822 -0.13875 0.15441
vn 0.60668 0.77824 0.16210
vn 0.68079 0.69794 0.22225
vn 0.96600 -0.16480 0.19919
vn 0.52179 -0.84324 0.12915
vn 0.62538 -0.75592 0.19361
vn 0.68079 0.69794 0.22225
vn 0.80530 0.53622 0.25291
vn 0.62538 -0.75592 0.19361
vn 0.96600 -0.16480 0.19919
vn 0.92787 -0.16385 0.33498
vn 0.46643 -0.82679 0.31442
vn 0.68874 0.72345 -0.04757
vn 0.69183 0.71700 -0.08538
vn 0.93748 0.01670 0.34763
vn 0.96518 0.21166 0.15370
vn 0.67757 0.70072 0.22336
vn 0.72416 0.67712 0.13078
vn 0.99076 -0.12454 0.05365
vn 0.97437 0.12195 0.18904
vn 0.60280 -0.79762 0.02100
vn 0.52579 -0.84987 0.03558
vn 0.89726 0.43075 -0.09681
vn 0.85419 0.51301 -0.08474
vn 0.87848 0.39427 -0.26987
vn 0.94065 0.32831 -0.08598
vn 0.96339 0.17013 -0.20720
vn 0.98953 0.14152 0.02841
vn 0.91556 0.38564 0.11418
vn 0.47617 0.87817 -0.04559
vn 0.51952 0.54360 -0.65925
vn 0.05433 0.79272 -0.60716
vn 0.08090 0.98946 -0.12009
vn 0.56740 0.80723 -0.16257
vn 0.42780 0.77877 0.45882
vn -0.04336 0.88046 0.47213
vn 0.14669 0.84271 -0.51800
vn 0.08087 0.99243 -0.09238
vn 0.07614 0.82842 0.55490
vn 0.08962 0.99523 -0.03854
vn 0.21474 0.79775 -0.56345
vn 0.28063 0.86772 -0.41025
vn 0.27930 0.95418 0.10742
vn 0.04397 0.94123 0.33488
vn -0.02299 -0.99957 0.01841
vn 0.01172 -0.98443 -0.17538
vn 0.15616 -0.95808 -0.24019
vn 0.26385 -0.96455 0.00525
vn -0.27832 -0.03245 0.95994
vn -0.04244 -0.96776 0.24828
vn 0.09425 -0.93032 0.35442
vn -0.18155 -0.35791 0.91594
vn 0.03227 -0.99948 0.00194
vn 0.07997 -0.98248 -0.16834
vn 0.09449 -0.46825 0.87853
vn 0.05011 -0.97953 0.19497
vn 0.13472 -0.94701 0.29159
vn 0.17092 -0.97611 -0.13411
vn 0.08125 -0.98343 -0.16206
vn 0.13591 0.15328 0.97879
vn 0.76072 -0.15254 0.63091
vn 0.04620 -0.86961 0.49157
vn -0.27832 -0.03245 0.95994
vn -0.18155 -0.35791 0.91594
vn 0.23133 -0.38912 -0.89167
vn 0.05721 -0.21648 -0.97461
vn 0.09449 -0.46825 0.87853
vn 0.31221 0.00183 -0.95001
vn 0.05865 0.87746 0.47606
vn 0.13591 0.15328 0.97879
vn 0.18844 -0.24280 0.95160
vn 0.72177 0.04412 -0.69073
vn 0.76072 -0.15254 0.63091
vn 0.06482 -0.94749 0.31314
vn 0.50185 -0.48955 -0.71309
vn 0.90984 0.07296 -0.40849
vn 0.44870 -0.85400 -0.26335
vn 0.30850 -0.65398 -0.69075
vn 0.75614 -0.43740 0.48675
vn 0.87440 0.34382 0.34237
vn 0.09425 -0.93032 0.35442
vn -0.18155 -0.35791 0.91594
vn 0.69391 0.71661 -0.07041
vn 0.69183 0.71700 -0.08538
vn 0.18844 -0.24280 0.95160
vn 0.89726 0.43075 -0.09681
vn 0.97437 0.12195 0.18904
vn 0.90984 0.07296 -0.40849
vn 0.87440 0.34382 0.34237
vn 0.83593 0.53256 0.13265
vn 0.30741 0.94643 0.09887
vn 0.26837 0.62668 0.73161
vn 0.00117 0.99802 -0.06296
vn 0.12392 0.89200 -0.43473
vn 0.07611 0.98375 -0.16261
vn -0.22310 0.83595 0.50142
vn -0.06518 0.88737 0.45642
vn 0.23254 0.86049 -0.45331
vn 0.33559 0.93173 0.13875
vn 0.10419 0.99095 0.08460
vn 0.10133 0.88151 0.46117
vn 0.75614 -0.43740 0.48675
vn 0.32809 -0.51799 0.78996
vn 0.49049 -0.86386 0.11472
vn 0.08657 -0.96654 -0.24145
vn -0.00195 -0.97782 -0.20945
vn -0.03108 -0.99940 -0.01501
vn 0.01283 -0.99988 -0.00891
vn -0.46222 -0.07607 0.88350
vn -0.18130 -0.32179 0.92929
vn -0.11215 -0.96188 0.24942
vn 0.05086 -0.99836 0.02640
vn 0.26839 -0.95593 -0.11906
vn 0.14760 -0.95830 -0.24469
vn 0.19595 0.22488 0.95448
vn 0.50299 -0.04669 0.86303
vn 0.20642 -0.92203 0.32749
vn 0.08164 -0.89173 0.44513
vn 0.75614 -0.43740 0.48675
vn 0.32809 -0.51799 0.78996
vn 0.57827 -0.44245 -0.68545
vn 0.66149 0.68984 -0.29419
vn 0.97152 -0.23360 -0.03968
vn -0.46222 -0.07607 0.88350
vn -0.18130 -0.32179 0.92929
vn 0.28354 0.44619 -0.84883
vn 0.12276 0.89951 -0.41930
vn 0.17326 -0.18637 -0.96708
vn 0.05983 0.89349 0.44509
vn 0.19595 0.22488 0.95448
vn 0.03806 -0.00977 0.99923
vn 0.50299 -0.04669 0.86303
vn -0.02113 -0.94066 0.33870
vn 0.07450 0.99492 -0.06764
vn 0.44117 -0.42889 -0.78830
vn 0.03806 -0.00977 0.99923
vn 0.71397 -0.10321 -0.69253
vn 0.45765 -0.71338 -0.53071
vn 0.50185 -0.48955 -0.71309
vn 0.90984 0.07296 -0.40849
vn 0.30144 -0.87697 -0.37425
vn 0.88804 -0.42367 0.17857
vn 0.37285 -0.87628 0.30515
vn 0.37322 -0.89162 0.25637
vn 0.44870 -0.85400 -0.26335
vn 0.50821 -0.85848 0.06888
vn 0.01606 0.82006 -0.57205
vn -0.06854 -0.61872 -0.78262
vn 0.88804 -0.42367 0.17857
vn 0.80016 0.59717 0.05594
vn 0.45765 -0.71338 -0.53071
vn 0.90984 0.07296 -0.40849
vn 0.79701 0.59851 -0.08102
vn 0.88644 0.44308 -0.13380
vn 0.93317 0.35575 0.05136
vn -0.29384 0.95448 -0.05119
vn -0.20672 0.88238 -0.42270
vn -0.23937 -0.97055 0.02705
vn -0.22988 -0.97319 -0.00779
vn 0.50821 -0.85848 0.06888
vn 0.97152 -0.23360 -0.03968
vn 0.37322 -0.89162 0.25637
vn 0.93317 0.35575 0.05136
vn 0.65111 0.75890 0.01143
vn 0.83593 0.53256 0.13265
vn 0.72170 0.67320 -0.16111
vn -0.29294 -0.95613 0.00121
vn -0.22400 -0.97457 -0.00657
vn 0.81600 0.57674 -0.03893
vn -0.18912 -0.92412 -0.33201
vn 0.94536 -0.17035 -0.27799
vn 0.92892 -0.16278 -0.33259
vn 0.94536 -0.17035 -0.27799
vn 0.92892 -0.16278 -0.33259
vn 0.77406 -0.12638 -0.62037
vn 0.90941 -0.15466 -0.38609
vn 0.77406 -0.12638 -0.62037
vn 0.58143 -0.08875 -0.80874
vn 0.58143 -0.08875 -0.80874
vn 0.97195 -0.14264 -0.18698
vn 0.97195 -0.14264 -0.18698
vn 0.97195 -0.14264 -0.18698
vn 0.96668 -0.10536 -0.23328
vn 0.96733 -0.14138 -0.21042
vn 0.96733 -0.14138 -0.21042
vn 0.96428 -0.06914 -0.25572
vn 0.96668 -0.10536 -0.23328
vn 0.96428 -0.06914 -0.25572
vn 0.95029 -0.13813 -0.27905
vn 0.95029 -0.13813 -0.27905
vn 0.95029 -0.13813 -0.27905
vn 0.95608 -0.09813 -0.27620
vn 0.95608 -0.09813 -0.27620
vn 0.95608 -0.09813 -0.27620
vn 0.95004 -0.10309 -0.29460
vn 0.95004 -0.10309 -0.29460
vn 0.95004 -0.10309 -0.29460
vn 0.95129 -0.22617 -0.20950
vn 0.95129 -0.22617 -0.20950
vn 0.95129 -0.22617 -0.20950
vn 0.95061 -0.04155 -0.30760
vn 0.95061 -0.04155 -0.30760
vn 0.95061 -0.04155 -0.30760
vn 0.95011 0.14296 -0.27723
vn 0.95011 0.14296 -0.27723
vn 0.95011 0.14296 -0.27723
vn 0.97995 0.12587 -0.15446
vn 0.97995 0.12587 -0.15446
vn 0.97995 0.12587 -0.15446
vn 0.97596 -0.09024 -0.19837
vn 0.97596 -0.09024 -0.19837
vn 0.97596 -0.09024 -0.19837
vn 0.97690 -0.15364 -0.14854
vn 0.97690 -0.15364 -0.14854
vn 0.97690 -0.15364 -0.14854
vn 0.95681 -0.09446 -0.27494
vn 0.95681 -0.09446 -0.27494
vn 0.95681 -0.09446 -0.27494
vn 0.95545 0.09883 -0.27812
vn 0.95545 0.09883 -0.27812
vn 0.95545 0.09883 -0.27812
vn 0.94489 -0.00665 -0.32733
vn 0.95735 0.03116 -0.28724
vn 0.95735 0.03116 -0.28724
vn 0.92940 -0.04443 -0.36638
vn 0.94489 -0.00665 -0.32733
vn 0.92940 -0.04443 -0.36638
vn 0.53988 -0.00787 -0.84170
vn 0.53988 -0.00781 -0.84171
f 168/168/168 170/170/170 201/201/201
f 168/168/168 169/169/169 170/170/170
f 201/201/201 202/202/202 168/168/168
f 140/140/140 142/142/142 201/201/201
f 174/174/174 202/202/202 201/201/201
f 201/201/201 142/142/142 174/174/174
f 140/140/140 144/144/144 141/141/141
f 143/143/143 144/144/144 140/140/140
f 140/140/140 141/141/141 142/142/142
f 175/175/175 142/142/142 141/141/141
f 142/142/142 175/175/175 173/173/173
f 173/173/173 174/174/174 142/142/142
f 155/155/155 202/202/202 174/174/174
f 174/174/174 173/173/173 152/152/152
f 152/152/152 155/155/155 174/174/174
f 168/168/168 202/202/202 154/154/154
f 202/202/202 155/155/155 154/154/154
f 154/154/154 155/155/155 152/152/152
f 153/153/153 152/152/152 160/160/160
f 152/152/152 173/173/173 182/182/182
f 182/182/182 160/160/160 152/152/152
f 152/152/152 153/153/153 154/154/154
f 173/173/173 175/175/175 145/145/145
f 145/145/145 182/182/182 173/173/173
f 141/141/141 181/181/181 175/175/175
f 145/145/145 175/175/175 181/181/181
f 184/184/184 182/182/182 145/145/145
f 145/145/145 147/147/147 184/184/184
f 181/181/181 146/146/146 145/145/145
f 145/145/145 146/146/146 147/147/147
f 160/160/160 182/182/182 184/184/184
f 193/193/193 161/161/161 184/184/184
f 203/203/203 184/184/184 147/147/147
f 184/184/184 161/161/161 160/160/160
f 160/160/160 159/159/159 153/153/153
f 159/159/159 160/160/160 161/161/161
f 116/116/116 89/89/89 114/114/114
f 114/114/114 115/115/115 116/116/116
f 402/402/402 403/403/403 401/401/401
f 401/401/401 376/376/376 402/402/402
f 462/462/462 463/463/463 461/461/461
f 461/461/461 433/433/433 462/462/462
f 432/432/432 431/431/431 433/433/433
f 430/430/430 431/431/431 432/432/432
f 469/469/469 431/431/431 430/430/430
f 430/430/430 467/467/467 469/469/469
f 458/458/458 467/467/467 430/430/430
f 430/430/430 459/459/459 458/458/458
f 458/458/458 459/459/459 426/426/426
f 437/437/437 458/458/458 460/460/460
f 467/467/467 458/458/458 437/437/437
f 426/426/426 460/460/460 458/458/458
f 469/469/469 467/467/467 446/446/446
f 437/437/437 446/446/446 467/467/467
f 474/474/474 469/469/469 445/445/445
f 479/479/479 454/454/454 453/453/453
f 453/453/453 454/454/454 455/455/455
f 453/453/453 480/480/480 479/479/479
f 425/425/425 479/479/479 426/426/426
f 460/460/460 426/426/426 479/479/479
f 479/479/479 480/480/480 460/460/460
f 425/425/425 427/427/427 429/429/429
f 428/428/428 425/425/425 429/429/429
f 425/425/425 426/426/426 427/427/427
f 456/456/456 428/428/428 429/429/429
f 429/429/429 427/427/427 466/466/466
f 466/466/466 461/461/461 429/429/429
f 463/463/463 457/457/457 429/429/429
f 429/429/429 461/461/461 463/463/463
f 429/429/429 457/457/457 456/456/456
f 427/427/427 426/426/426 459/459/459
f 459/459/459 466/466/466 427/427/427
f 430/430/430 432/432/432 466/466/466
f 466/466/466 459/459/459 430/430/430
f 461/461/461 466/466/466 432/432/432
f 432/432/432 433/433/433 461/461/461
f 214/214/214 217/217/217 229/229/229
f 216/216/216 217/217/217 214/214/214
f 214/214/214 215/215/215 216/216/216
f 230/230/230 217/217/217 499/499/499
f 490/490/490 499/499/499 217/217/217
f 490/490/490 217/217/217 216/216/216
f 229/229/229 217/217/217 230/230/230
f 230/230/230 231/231/231 229/229/229
f 230/230/230 500/500/500 243/243/243
f 499/499/499 500/500/500 230/230/230
f 230/230/230 243/243/243 231/231/231
f 216/216/216 491/491/491 490/490/490
f 216/216/216 236/236/236 502/502/502
f 80/80/80 81/81/81 78/78/78
f 82/82/82 78/78/78 84/84/84
f 81/81/81 84/84/84 78/78/78
f 83/83/83 79/79/79 78/78/78
f 78/78/78 82/82/82 83/83/83
f 84/84/84 81/81/81 109/109/109
f 109/109/109 112/112/112 84/84/84
f 84/84/84 114/114/114 82/82/82
f 115/115/115 114/114/114 84/84/84
f 84/84/84 112/112/112 115/115/115
f 88/88/88 83/83/83 82/82/82
f 82/82/82 85/85/85 88/88/88
f 85/85/85 82/82/82 114/114/114
f 113/113/113 83/83/83 88/88/88
f 79/79/79 83/83/83 113/113/113
f 118/118/118 123/123/123 88/88/88
f 88/88/88 87/87/87 118/118/118
f 88/88/88 123/123/123 113/113/113
f 87/87/87 88/88/88 85/85/85
f 114/114/114 89/89/89 85/85/85
f 85/85/85 89/89/89 86/86/86
f 365/365/365 368/368/368 367/367/367
f 371/371/371 365/365/365 370/370/370
f 368/368/368 365/365/365 371/371/371
f 369/369/369 370/370/370 365/365/365
f 365/365/365 364/364/364 369/369/369
f 395/395/395 368/368/368 371/371/371
f 371/371/371 399/399/399 395/395/395
f 370/370/370 401/401/401 371/371/371
f 403/403/403 399/399/399 371/371/371
f 371/371/371 401/401/401 403/403/403
f 373/373/373 372/372/372 370/370/370
f 370/370/370 369/369/369 373/373/373
f 401/401/401 370/370/370 372/372/372
f 373/373/373 369/369/369 400/400/400
f 400/400/400 369/369/369 364/364/364
f 404/404/404 374/374/374 373/373/373
f 373/373/373 410/410/410 404/404/404
f 400/400/400 410/410/410 373/373/373
f 372/372/372 373/373/373 374/374/374
f 372/372/372 376/376/376 401/401/401
f 372/372/372 375/375/375 376/376/376
f 96/96/96 122/122/122 91/91/91
f 96/96/96 97/97/97 94/94/94
f 94/94/94 95/95/95 96/96/96
f 100/100/100 97/97/97 119/119/119
f 94/94/94 97/97/97 100/100/100
f 119/119/119 132/132/132 100/100/100
f 132/132/132 119/119/119 106/106/106
f 106/106/106 105/105/105 132/132/132
f 383/383/383 380/380/380 409/409/409
f 383/383/383 384/384/384 381/381/381
f 381/381/381 382/382/382 383/383/383
f 406/406/406 382/382/382 387/387/387
f 381/381/381 387/387/387 382/382/382
f 394/394/394 406/406/406 417/417/417
f 387/387/387 417/417/417 406/406/406
f 417/417/417 392/392/392 394/394/394
f 345/345/345 352/352/352 496/496/496
f 420/420/420 355/355/355 345/345/345
f 352/352/352 345/345/345 355/355/355
f 352/352/352 414/414/414 413/413/413
f 224/224/224 61/61/61 204/204/204
f 61/61/61 224/224/224 220/220/220
f 502/502/502 491/491/491 216/216/216
f 216/216/216 215/215/215 235/235/235
f 235/235/235 236/236/236 216/216/216
f 481/481/481 431/431/431 469/469/469
f 446/446/446 445/445/445 469/469/469
f 446/446/446 437/437/437 440/440/440
f 440/440/440 444/444/444 446/446/446
f 444/444/444 445/445/445 446/446/446
f 460/460/460 438/438/438 437/437/437
f 439/439/439 440/440/440 437/437/437
f 437/437/437 438/438/438 439/439/439
f 438/438/438 460/460/460 480/480/480
f 480/480/480 439/439/439 438/438/438
f 439/439/439 480/480/480 453/453/453
f 435/435/435 441/441/441 439/439/439
f 439/439/439 436/436/436 435/435/435
f 441/441/441 443/443/443 439/439/439
f 453/453/453 436/436/436 439/439/439
f 440/440/440 439/439/439 443/443/443
f 443/443/443 465/465/465 440/440/440
f 444/444/444 440/440/440 465/465/465
f 465/465/465 443/443/443 442/442/442
f 441/441/441 442/442/442 443/443/443
f 450/450/450 465/465/465 468/468/468
f 442/442/442 468/468/468 465/465/465
f 5/5/5 8/8/8 211/211/211
f 7/7/7 8/8/8 5/5/5
f 5/5/5 6/6/6 7/7/7
f 8/8/8 488/488/488 489/489/489
f 489/489/489 213/213/213 8/8/8
f 310/310/310 488/488/488 8/8/8
f 310/310/310 8/8/8 7/7/7
f 8/8/8 213/213/213 212/212/212
f 212/212/212 211/211/211 8/8/8
f 241/241/241 311/311/311 7/7/7
f 7/7/7 311/311/311 310/310/310
f 241/241/241 7/7/7 6/6/6
f 105/105/105 106/106/106 104/104/104
f 102/102/102 101/101/101 98/98/98
f 119/119/119 98/98/98 101/101/101
f 101/101/101 106/106/106 119/119/119
f 98/98/98 99/99/99 102/102/102
f 113/113/113 99/99/99 93/93/93
f 93/93/93 99/99/99 98/98/98
f 93/93/93 110/110/110 113/113/113
f 113/113/113 110/110/110 79/79/79
f 111/111/111 110/110/110 93/93/93
f 93/93/93 92/92/92 111/111/111
f 98/98/98 90/90/90 93/93/93
f 92/92/92 93/93/93 90/90/90
f 97/97/97 90/90/90 98/98/98
f 98/98/98 119/119/119 97/97/97
f 96/96/96 91/91/91 90/90/90
f 90/90/90 97/97/97 96/96/96
f 90/90/90 91/91/91 92/92/92
f 122/122/122 92/92/92 91/91/91
f 111/111/111 92/92/92 122/122/122
f 122/122/122 120/120/120 111/111/111
f 79/79/79 110/110/110 111/111/111
f 392/392/392 393/393/393 389/389/389
f 385/385/385 388/388/388 391/391/391
f 406/406/406 394/394/394 388/388/388
f 388/388/388 385/385/385 406/406/406
f 391/391/391 386/386/386 385/385/385
f 378/378/378 386/386/386 400/400/400
f 385/385/385 386/386/386 378/378/378
f 400/400/400 398/398/398 378/378/378
f 364/364/364 398/398/398 400/400/400
f 397/397/397 379/379/379 378/378/378
f 378/378/378 398/398/398 397/397/397
f 378/378/378 377/377/377 385/385/385
f 377/377/377 378/378/378 379/379/379
f 382/382/382 406/406/406 385/385/385
f 385/385/385 377/377/377 382/382/382
f 383/383/383 382/382/382 377/377/377
f 377/377/377 380/380/380 383/383/383
f 379/379/379 380/380/380 377/377/377
f 409/409/409 380/380/380 379/379/379
f 409/409/409 379/379/379 397/397/397
f 397/397/397 407/407/407 409/409/409
f 397/397/397 398/398/398 364/364/364
f 319/319/319 316/316/316 317/317/317
f 316/316/316 315/315/315 318/318/318
f 317/317/317 316/316/316 318/318/318
f 318/318/318 315/315/315 498/498/498
f 498/498/498 485/485/485 318/318/318
f 313/313/313 485/485/485 498/498/498
f 317/317/317 318/318/318 485/485/485
f 485/485/485 332/332/332 317/317/317
f 486/486/486 324/324/324 332/332/332
f 332/332/332 485/485/485 486/486/486
f 332/332/332 324/324/324 331/331/331
f 313/313/313 486/486/486 485/485/485
f 330/330/330 331/331/331 324/324/324
f 324/324/324 327/327/327 330/330/330
f 326/326/326 327/327/327 324/324/324
f 324/324/324 325/325/325 326/326/326
f 330/330/330 238/238/238 244/244/244
f 244/244/244 483/483/483 330/330/330
f 232/232/232 238/238/238 330/330/330
f 330/330/330 327/327/327 232/232/232
f 470/470/470 471/471/471 472/472/472
f 48/48/48 225/225/225 64/64/64
f 204/204/204 61/61/61 64/64/64
f 64/64/64 225/225/225 204/204/204
f 126/126/126 127/127/127 64/64/64
f 64/64/64 65/65/65 48/48/48
f 237/237/237 225/225/225 48/48/48
f 48/48/48 51/51/51 237/237/237
f 49/49/49 48/48/48 135/135/135
f 135/135/135 48/48/48 65/65/65
f 50/50/50 51/51/51 48/48/48
f 48/48/48 49/49/49 50/50/50
f 205/205/205 204/204/204 225/225/225
f 225/225/225 237/237/237 205/205/205
f 237/237/237 51/51/51 345/345/345
f 345/345/345 496/496/496 237/237/237
f 205/205/205 237/237/237 496/496/496
f 345/345/345 51/51/51 50/50/50
f 50/50/50 346/346/346 345/345/345
f 346/346/346 420/420/420 345/345/345
f 482/482/482 496/496/496 352/352/352
f 352/352/352 351/351/351 482/482/482
f 493/493/493 351/351/351 354/354/354
f 353/353/353 354/354/354 351/351/351
f 351/351/351 352/352/352 353/353/353
f 354/354/354 492/492/492 493/493/493
f 219/219/219 492/492/492 354/354/354
f 354/354/354 196/196/196 219/219/219
f 354/354/354 353/353/353 195/195/195
f 195/195/195 196/196/196 354/354/354
f 353/353/353 413/413/413 477/477/477
f 477/477/477 473/473/473 353/353/353
f 195/195/195 353/353/353 473/473/473
f 413/413/413 353/353/353 352/352/352
f 473/473/473 191/191/191 195/195/195
f 62/62/62 196/196/196 195/195/195
f 195/195/195 63/63/63 62/62/62
f 195/195/195 191/191/191 190/190/190
f 190/190/190 63/63/63 195/195/195
f 219/219/219 196/196/196 62/62/62
f 62/62/62 61/61/61 220/220/220
f 220/220/220 218/218/218 62/62/62
f 62/62/62 218/218/218 219/219/219
f 61/61/61 62/62/62 63/63/63
f 63/63/63 190/190/190 198/198/198
f 198/198/198 126/126/126 63/63/63
f 64/64/64 63/63/63 126/126/126
f 63/63/63 64/64/64 61/61/61
f 190/190/190 187/187/187 189/189/189
f 189/189/189 198/198/198 190/190/190
f 187/187/187 190/190/190 191/191/191
f 191/191/191 192/192/192 187/187/187
f 187/187/187 188/188/188 189/189/189
f 191/191/191 473/473/473 470/470/470
f 470/470/470 192/192/192 191/191/191
f 473/473/473 477/477/477 471/471/471
f 471/471/471 470/470/470 473/473/473
f 418/418/418 408/408/408 363/363/363
f 363/363/363 366/366/366 418/418/418
f 363/363/363 408/408/408 407/407/407
f 407/407/407 397/397/397 363/363/363
f 364/364/364 363/363/363 397/397/397
f 365/365/365 366/366/366 363/363/363
f 363/363/363 364/364/364 365/365/365
f 367/367/367 419/419/419 418/418/418
f 418/418/418 366/366/366 367/367/367
f 367/367/367 366/366/366 365/365/365
f 367/367/367 396/396/396 419/419/419
f 395/395/395 396/396/396 367/367/367
f 367/367/367 368/368/368 395/395/395
f 133/133/133 77/77/77 76/76/76
f 76/76/76 121/121/121 133/133/133
f 76/76/76 111/111/111 120/120/120
f 120/120/120 121/121/121 76/76/76
f 111/111/111 76/76/76 79/79/79
f 78/78/78 79/79/79 76/76/76
f 76/76/76 77/77/77 78/78/78
f 80/80/80 77/77/77 133/133/133
f 133/133/133 134/134/134 80/80/80
f 78/78/78 77/77/77 80/80/80
f 80/80/80 134/134/134 108/108/108
f 109/109/109 81/81/81 80/80/80
f 80/80/80 108/108/108 109/109/109
f 331/331/331 330/330/330 483/483/483
f 185/185/185 232/232/232 327/327/327
f 327/327/327 326/326/326 185/185/185
f 232/232/232 22/22/22 30/30/30
f 30/30/30 238/238/238 232/232/232
f 22/22/22 232/232/232 185/185/185
f 244/244/244 238/238/238 30/30/30
f 30/30/30 207/207/207 244/244/244
f 207/207/207 30/30/30 29/29/29
f 30/30/30 22/22/22 21/21/21
f 21/21/21 29/29/29 30/30/30
f 185/185/185 23/23/23 22/22/22
f 21/21/21 22/22/22 23/23/23
f 23/23/23 24/24/24 21/21/21
f 17/17/17 23/23/23 185/185/185
f 23/23/23 17/17/17 20/20/20
f 20/20/20 24/24/24 23/23/23
f 18/18/18 17/17/17 186/186/186
f 185/185/185 186/186/186 17/17/17
f 19/19/19 20/20/20 17/17/17
f 17/17/17 18/18/18 19/19/19
f 19/19/19 18/18/18 239/239/239
f 186/186/186 239/239/239 18/18/18
f 323/323/323 239/239/239 186/186/186
f 186/186/186 320/320/320 323/323/323
f 545/545/545 546/546/546 547/547/547
f 289/289/289 290/290/290 291/291/291
f 14/14/14 15/15/15 12/12/12
f 227/227/227 13/13/13 15/15/15
f 12/12/12 15/15/15 13/13/13
f 16/16/16 12/12/12 11/11/11
f 11/11/11 12/12/12 13/13/13
f 233/233/233 16/16/16 11/11/11
f 75/75/75 131/131/131 233/233/233
f 233/233/233 131/131/131 29/29/29
f 11/11/11 75/75/75 233/233/233
f 228/228/228 73/73/73 11/11/11
f 11/11/11 13/13/13 227/227/227
f 227/227/227 228/228/228 11/11/11
f 75/75/75 11/11/11 73/73/73
f 128/128/128 131/131/131 75/75/75
f 75/75/75 74/74/74 128/128/128
f 57/57/57 60/60/60 42/42/42
f 59/59/59 60/60/60 57/57/57
f 57/57/57 58/58/58 59/59/59
f 226/226/226 224/224/224 58/58/58
f 204/204/204 58/58/58 224/224/224
f 205/205/205 59/59/59 58/58/58
f 58/58/58 204/204/204 205/205/205
f 350/350/350 59/59/59 205/205/205
f 59/59/59 350/350/350 349/349/349
f 349/349/349 60/60/60 59/59/59
f 42/42/42 60/60/60 349/349/349
f 349/349/349 497/497/497 412/412/412
f 412/412/412 340/340/340 349/349/349
f 497/497/497 349/349/349 350/350/350
f 349/349/349 340/340/340 42/42/42
f 495/495/495 350/350/350 482/482/482
f 350/350/350 495/495/495 497/497/497
f 205/205/205 482/482/482 350/350/350
f 482/482/482 351/351/351 495/495/495
f 351/351/351 493/493/493 495/495/495
f 496/496/496 482/482/482 205/205/205
f 361/361/361 356/356/356 358/358/358
f 356/356/356 357/357/357 358/358/358
f 360/360/360 361/361/361 358/358/358
f 358/358/358 357/357/357 359/359/359
f 359/359/359 360/360/360 358/358/358
f 72/72/72 68/68/68 67/67/67
f 67/67/67 68/68/68 69/69/69
f 71/71/71 68/68/68 72/72/72
f 68/68/68 70/70/70 69/69/69
f 70/70/70 68/68/68 71/71/71
f 337/337/337 333/333/333 336/336/336
f 337/337/337 338/338/338 246/246/246
f 246/246/246 199/199/199 337/337/337
f 38/38/38 199/199/199 246/246/246
f 246/246/246 39/39/39 38/38/38
f 38/38/38 39/39/39 33/33/33
f 73/73/73 74/74/74 75/75/75
f 29/29/29 131/131/131 130/130/130
f 130/130/130 131/131/131 128/128/128
f 128/128/128 74/74/74 362/362/362
f 362/362/362 415/415/415 128/128/128
f 416/416/416 129/129/129 128/128/128
f 128/128/128 415/415/415 416/416/416
f 128/128/128 129/129/129 130/130/130
f 73/73/73 362/362/362 74/74/74
f 362/362/362 501/501/501 415/415/415
f 362/362/362 73/73/73 314/314/314
f 501/501/501 362/362/362 314/314/314
f 228/228/228 314/314/314 73/73/73
f 314/314/314 228/228/228 498/498/498
f 498/498/498 315/315/315 314/314/314
f 314/314/314 319/319/319 501/501/501
f 319/319/319 314/314/314 316/316/316
f 314/314/314 315/315/315 316/316/316
f 331/331/331 415/415/415 501/501/501
f 501/501/501 332/332/332 331/331/331
f 332/332/332 501/501/501 319/319/319
f 319/319/319 317/317/317 332/332/332
f 512/512/512 513/513/513 514/514/514
f 256/256/256 257/257/257 258/258/258
f 539/539/539 540/540/540 541/541/541
f 283/283/283 284/284/284 285/285/285
f 137/137/137 136/136/136 166/166/166
f 138/138/138 139/139/139 136/136/136
f 136/136/136 137/137/137 138/138/138
f 171/171/171 143/143/143 137/137/137
f 137/137/137 167/167/167 171/171/171
f 138/138/138 137/137/137 143/143/143
f 166/166/166 167/167/167 137/137/137
f 139/139/139 138/138/138 170/170/170
f 143/143/143 140/140/140 138/138/138
f 201/201/201 170/170/170 138/138/138
f 138/138/138 140/140/140 201/201/201
f 170/170/170 210/210/210 139/139/139
f 170/170/170 169/169/169 210/210/210
f 451/451/451 421/421/421 424/424/424
f 423/423/423 424/424/424 421/421/421
f 421/421/421 422/422/422 423/423/423
f 424/424/424 452/452/452 451/451/451
f 456/456/456 452/452/452 424/424/424
f 424/424/424 428/428/428 456/456/456
f 428/428/428 424/424/424 423/423/423
f 454/454/454 423/423/423 422/422/422
f 423/423/423 425/425/425 428/428/428
f 479/479/479 425/425/425 423/423/423
f 423/423/423 454/454/454 479/479/479
f 422/422/422 487/487/487 454/454/454
f 454/454/454 487/487/487 455/455/455
f 515/515/515 516/516/516 517/517/517
f 259/259/259 260/260/260 261/261/261
f 32/32/32 53/53/53 66/66/66
f 66/66/66 38/38/38 32/32/32
f 53/53/53 32/32/32 35/35/35
f 33/33/33 32/32/32 38/38/38
f 34/34/34 35/35/35 32/32/32
f 32/32/32 33/33/33 34/34/34
f 66/66/66 242/242/242 347/347/347
f 347/347/347 348/348/348 66/66/66
f 337/337/337 199/199/199 66/66/66
f 333/333/333 337/337/337 66/66/66
f 66/66/66 348/348/348 333/333/333
f 66/66/66 53/53/53 52/52/52
f 52/52/52 242/242/242 66/66/66
f 530/530/530 531/531/531 532/532/532
f 274/274/274 275/275/275 276/276/276
f 542/542/542 543/543/543 544/544/544
f 286/286/286 287/287/287 288/288/288
f 416/416/416 415/415/415 331/331/331
f 331/331/331 484/484/484 416/416/416
f 483/483/483 484/484/484 331/331/331
f 518/518/518 519/519/519 520/520/520
f 262/262/262 263/263/263 264/264/264
f 328/328/328 308/308/308 4/4/4
f 4/4/4 26/26/26 328/328/328
f 4/4/4 3/3/3 25/25/25
f 25/25/25 26/26/26 4/4/4
f 27/27/27 25/25/25 3/3/3
f 3/3/3 10/10/10 27/27/27
f 10/10/10 3/3/3 2/2/2
f 9/9/9 2/2/2 227/227/227
f 2/2/2 9/9/9 10/10/10
f 9/9/9 209/209/209 208/208/208
f 227/227/227 209/209/209 9/9/9
f 15/15/15 209/209/209 227/227/227
f 14/14/14 31/31/31 209/209/209
f 209/209/209 15/15/15 14/14/14
f 208/208/208 209/209/209 31/31/31
f 31/31/31 21/21/21 208/208/208
f 29/29/29 31/31/31 233/233/233
f 31/31/31 14/14/14 16/16/16
f 16/16/16 233/233/233 31/31/31
f 31/31/31 29/29/29 21/21/21
f 16/16/16 14/14/14 12/12/12
f 159/159/159 161/161/161 164/164/164
f 164/164/164 161/161/161 193/193/193
f 164/164/164 193/193/193 165/165/165
f 164/164/164 163/163/163 159/159/159
f 164/164/164 165/165/165 162/162/162
f 162/162/162 163/163/163 164/164/164
f 180/180/180 153/153/153 159/159/159
f 159/159/159 163/163/163 180/180/180
f 163/163/163 162/162/162 183/183/183
f 183/183/183 180/180/180 163/163/163
f 153/153/153 180/180/180 157/157/157
f 180/180/180 183/183/183 158/158/158
f 158/158/158 157/157/157 180/180/180
f 157/157/157 154/154/154 153/153/153
f 156/156/156 154/154/154 157/157/157
f 156/156/156 157/157/157 158/158/158
f 151/151/151 150/150/150 154/154/154
f 154/154/154 156/156/156 151/151/151
f 154/154/154 150/150/150 168/168/168
f 149/149/149 150/150/150 151/151/151
f 150/150/150 197/197/197 200/200/200
f 200/200/200 168/168/168 150/150/150
f 521/521/521 522/522/522 523/523/523
f 265/265/265 266/266/266 267/267/267
f 524/524/524 525/525/525 526/526/526
f 268/268/268 269/269/269 270/270/270
f 503/503/503 504/504/504 505/505/505
f 247/247/247 248/248/248 249/249/249
f 548/548/548 549/549/549 550/550/550
f 292/292/292 293/293/293 294/294/294
f 280/280/280 281/281/281 282/282/282
f 536/536/536 537/537/537 538/538/538
f 492/492/492 219/219/219 223/223/223
f 223/223/223 219/219/219 218/218/218
f 223/223/223 494/494/494 492/492/492
f 494/494/494 223/223/223 222/222/222
f 218/218/218 221/221/221 223/223/223
f 222/222/222 223/223/223 221/221/221
f 222/222/222 475/475/475 494/494/494
f 411/411/411 494/494/494 475/475/475
f 222/222/222 234/234/234 344/344/344
f 344/344/344 475/475/475 222/222/222
f 222/222/222 194/194/194 45/45/45
f 45/45/45 234/234/234 222/222/222
f 221/221/221 194/194/194 222/222/222
f 551/551/551 552/552/552 553/553/553
f 295/295/295 296/296/296 297/297/297
f 527/527/527 528/528/528 529/529/529
f 271/271/271 272/272/272 273/273/273
f 298/298/298 299/299/299 300/300/300
f 554/554/554 555/555/555 556/556/556
f 149/149/149 197/197/197 150/150/150
f 168/168/168 200/200/200 169/169/169
f 179/179/179 203/203/203 147/147/147
f 178/178/178 179/179/179 147/147/147
f 147/147/147 148/148/148 178/178/178
f 146/146/146 148/148/148 147/147/147
f 178/178/178 148/148/148 176/176/176
f 176/176/176 177/177/177 178/178/178
f 176/176/176 148/148/148 146/146/146
f 146/146/146 181/181/181 176/176/176
f 144/144/144 176/176/176 181/181/181
f 177/177/177 176/176/176 144/144/144
f 144/144/144 172/172/172 177/177/177
f 181/181/181 141/141/141 144/144/144
f 144/144/144 143/143/143 171/171/171
f 171/171/171 172/172/172 144/144/144
f 41/41/41 40/40/40 47/47/47
f 42/42/42 43/43/43 40/40/40
f 40/40/40 41/41/41 42/42/42
f 47/47/47 46/46/46 41/41/41
f 41/41/41 46/46/46 125/125/125
f 57/57/57 41/41/41 125/125/125
f 42/42/42 41/41/41 57/57/57
f 46/46/46 47/47/47 44/44/44
f 124/124/124 46/46/46 45/45/45
f 124/124/124 125/125/125 46/46/46
f 44/44/44 45/45/45 46/46/46
f 125/125/125 226/226/226 57/57/57
f 58/58/58 57/57/57 226/226/226
f 277/277/277 278/278/278 279/279/279
f 533/533/533 534/534/534 535/535/535
f 465/465/465 450/450/450 444/444/444
f 468/468/468 447/447/447 450/450/450
f 449/449/449 444/444/444 450/450/450
f 449/449/449 450/450/450 447/447/447
f 444/444/444 449/449/449 445/445/445
f 449/449/449 448/448/448 474/474/474
f 449/449/449 474/474/474 445/445/445
f 447/447/447 448/448/448 449/449/449
f 436/436/436 453/453/453 478/478/478
f 478/478/478 476/476/476 436/436/436
f 434/434/434 436/436/436 476/476/476
f 434/434/434 435/435/435 436/436/436
f 453/453/453 455/455/455 478/478/478
f 374/374/374 375/375/375 372/372/372
f 375/375/375 374/374/374 404/404/404
f 375/375/375 405/405/405 402/402/402
f 402/402/402 376/376/376 375/375/375
f 404/404/404 405/405/405 375/375/375
f 390/390/390 404/404/404 410/410/410
f 404/404/404 390/390/390 389/389/389
f 389/389/389 393/393/393 404/404/404
f 410/410/410 391/391/391 390/390/390
f 386/386/386 391/391/391 410/410/410
f 410/410/410 400/400/400 386/386/386
f 390/390/390 391/391/391 388/388/388
f 388/388/388 389/389/389 390/390/390
f 389/389/389 388/388/388 394/394/394
f 389/389/389 394/394/394 392/392/392
f 85/85/85 86/86/86 87/87/87
f 118/118/118 87/87/87 86/86/86
f 86/86/86 89/89/89 116/116/116
f 116/116/116 117/117/117 86/86/86
f 86/86/86 117/117/117 118/118/118
f 123/123/123 118/118/118 103/103/103
f 118/118/118 107/107/107 104/104/104
f 104/104/104 103/103/103 118/118/118
f 103/103/103 102/102/102 123/123/123
f 99/99/99 113/113/113 123/123/123
f 123/123/123 102/102/102 99/99/99
f 103/103/103 104/104/104 101/101/101
f 101/101/101 102/102/102 103/103/103
f 104/104/104 106/106/106 101/101/101
f 104/104/104 107/107/107 105/105/105
f 320/320/320 186/186/186 185/185/185
f 322/322/322 240/240/240 239/239/239
f 239/239/239 323/323/323 322/322/322
f 239/239/239 240/240/240 19/19/19
f 322/322/322 323/323/323 320/320/320
f 185/185/185 326/326/326 320/320/320
f 321/321/321 320/320/320 326/326/326
f 320/320/320 321/321/321 322/322/322
f 326/326/326 325/325/325 321/321/321
f 130/130/130 206/206/206 29/29/29
f 29/29/29 206/206/206 207/207/207
f 557/557/557 558/558/558 559/559/559
f 301/301/301 302/302/302 303/303/303
f 1/1/1 309/309/309 498/498/498
f 498/498/498 228/228/228 1/1/1
f 308/308/308 309/309/309 1/1/1
f 1/1/1 4/4/4 308/308/308
f 1/1/1 228/228/228 227/227/227
f 227/227/227 2/2/2 1/1/1
f 3/3/3 4/4/4 1/1/1
f 1/1/1 2/2/2 3/3/3
f 498/498/498 309/309/309 313/313/313
f 312/312/312 313/313/313 309/309/309
f 309/309/309 308/308/308 312/312/312
f 329/329/329 312/312/312 308/308/308
f 308/308/308 328/328/328 329/329/329
f 506/506/506 507/507/507 508/508/508
f 250/250/250 251/251/251 252/252/252
f 124/124/124 194/194/194 221/221/221
f 45/45/45 194/194/194 124/124/124
f 245/245/245 234/234/234 45/45/45
f 45/45/45 44/44/44 245/245/245
f 344/344/344 234/234/234 245/245/245
f 245/245/245 341/341/341 344/344/344
f 411/411/411 475/475/475 344/344/344
f 344/344/344 343/343/343 411/411/411
f 343/343/343 344/344/344 341/341/341
f 411/411/411 343/343/343 412/412/412
f 340/340/340 343/343/343 342/342/342
f 340/340/340 412/412/412 343/343/343
f 341/341/341 342/342/342 343/343/343
f 342/342/342 339/339/339 340/340/340
f 42/42/42 340/340/340 339/339/339
f 339/339/339 43/43/43 42/42/42
f 464/464/464 431/431/431 481/481/481
f 431/431/431 464/464/464 462/462/462
f 462/462/462 433/433/433 431/431/431
f 38/38/38 66/66/66 199/199/199
f 35/35/35 54/54/54 53/53/53
f 52/52/52 53/53/53 54/54/54
f 56/56/56 242/242/242 52/52/52
f 52/52/52 55/55/55 56/56/56
f 54/54/54 55/55/55 52/52/52
f 56/56/56 347/347/347 242/242/242
f 347/347/347 56/56/56 55/55/55
f 347/347/347 55/55/55 54/54/54
f 54/54/54 348/348/348 347/347/347
f 334/334/334 54/54/54 37/37/37
f 348/348/348 54/54/54 334/334/334
f 35/35/35 37/37/37 54/54/54
f 334/334/334 333/333/333 348/348/348
f 36/36/36 335/335/335 334/334/334
f 334/334/334 37/37/37 36/36/36
f 333/333/333 334/334/334 335/335/335
f 36/36/36 37/37/37 35/35/35
f 35/35/35 34/34/34 36/36/36
f 335/335/335 336/336/336 333/333/333
f 336/336/336 338/338/338 337/337/337
f 253/253/253 254/254/254 255/255/255
f 509/509/509 510/510/510 511/511/511
f 25/25/25 27/27/27 28/28/28
f 28/28/28 26/26/26 25/25/25
f 28/28/28 329/329/329 328/328/328
f 328/328/328 26/26/26 28/28/28
f 306/306/306 307/307/307 304/304/304
f 304/304/304 305/305/305 306/306/306
f 306/306/306 305/305/305 560/560/560
f 560/560/560 561/561/561 306/306/306
