# leedsic_ad reconstructed from live game memory
v 13.46936 176.31137 -215.21576
v 0.00008 181.33969 -215.49734
v 0.00009 167.09418 -228.59698
v 9.64591 163.64514 -228.49641
v 4.73194 140.19991 -245.69473
v 18.74466 138.32416 -232.97354
v 0.00007 126.84097 -204.90567
v 0.00010 135.03682 -241.56090
v 30.07106 163.77919 -194.31569
v 28.48924 161.28778 -198.11246
v 28.36847 158.11238 -194.19669
v 28.56935 156.97971 -200.23564
v 32.93550 154.23814 -191.60994
v 30.03603 153.60248 -196.53285
v 33.70132 157.84245 -188.93562
v 32.35199 162.49741 -190.78844
v 13.62914 128.17363 -233.68411
v 18.98285 133.37267 -233.79175
v 5.93268 136.32408 -247.18318
v 4.83983 133.08417 -246.05431
v 44.52639 129.21361 -172.66153
v 37.09434 128.59016 -193.72525
v 29.44084 114.96630 -192.59505
v 35.16721 113.78432 -172.82867
v 0.00010 126.14240 -234.13124
v 0.00008 119.66226 -214.66983
v 21.80079 123.11272 -214.94543
v 0.00007 110.25616 -192.48019
v 0.00010 157.20204 -240.13080
v 6.62881 155.93153 -237.85497
v 0.00011 148.03517 -244.59157
v 6.77053 147.04642 -240.61626
v 47.60040 130.69455 -154.98247
v 46.25035 140.24753 -154.56236
v 42.93843 139.05725 -172.55992
v 15.62741 159.28055 -228.61305
v 17.79400 148.48309 -229.24901
v 22.07143 176.07233 53.08130
v 14.02587 159.84016 100.90509
v -0.00063 165.53305 100.89613
v -0.00041 189.21518 49.58243
v 19.99009 123.08383 97.73772
v 29.86799 128.55345 53.03286
v -0.00043 115.67114 52.34605
v -0.00063 114.77355 96.25079
v 0.00001 217.01521 -136.31996
v 0.00003 214.77795 -154.43591
v 27.32467 203.57123 -154.67345
v 32.16082 205.05322 -136.01825
v 28.59468 189.25937 -2.26148
v 25.20148 182.77008 26.34129
v 8.88069 197.74506 27.02749
v -0.00040 205.96060 -1.80093
v 44.84176 136.53897 -4.39363
v 46.94234 138.52013 -61.02199
v 35.90185 121.99265 -61.90739
v 28.47221 121.19355 -5.36866
v 31.27595 200.64240 -117.07442
v 30.49666 200.79610 -127.06760
v 39.10865 182.00998 -129.94463
v 40.01876 182.55292 -118.03322
v 29.47813 162.69354 -194.23941
v 28.14375 160.73103 -197.18520
v 31.34795 158.83978 -194.67946
v 27.90638 157.45491 -197.73015
v 29.04102 155.53899 -195.53328
v 30.92486 155.72572 -192.56325
v 31.57551 158.03412 -190.36162
v 31.33712 161.69299 -191.43166
v 17.90791 187.52994 -191.77267
v 24.23820 199.82407 -172.03300
v 0.00005 209.00650 -172.04587
v 0.00006 193.78845 -191.75772
v 34.86159 126.66228 34.22670
v 29.86799 128.55345 53.03286
v 40.33682 138.30569 24.50968
v 18.74466 138.32416 -232.97354
v 28.75439 130.29604 -215.32840
v 28.01740 136.02660 -214.94937
v 41.48265 181.69386 -136.77272
v 41.14631 181.33472 -153.74904
v 42.97153 133.77689 15.11507
v 41.65960 129.98526 19.75986
v 92.37670 127.47972 16.52126
v 103.59608 126.64683 28.05009
v 91.08706 127.80223 24.97265
v 90.07814 126.45835 30.83891
v 40.83469 125.09614 21.05126
v 38.67205 121.54877 13.10652
v 89.72602 124.16044 32.79288
v 103.55592 124.33258 31.18217
v 102.86926 122.62111 27.65415
v 90.17972 121.98779 30.01313
v 39.83089 126.83683 4.36121
v 43.36759 130.82869 6.39156
v 93.00246 125.64349 14.03193
v 70.85876 128.14142 9.02401
v 71.03151 126.30290 6.53328
v 89.72602 124.16044 32.79288
v 103.55592 124.33258 31.18217
v 68.44771 126.64358 29.70368
v 68.14774 124.28363 32.02794
v 68.14774 124.28363 32.02794
v 68.33295 122.55865 28.41609
v 104.77262 124.79550 24.73765
v 38.53836 117.01009 -155.20808
v 0.00004 110.24340 -155.41144
v 0.00001 110.48058 -127.69404
v 38.73933 116.17108 -135.41635
v 90.23785 123.02626 20.84061
v 69.13889 123.04008 16.54636
v 12.51876 117.77946 33.66101
v -0.00043 115.67114 52.34605
v 37.63412 118.44003 -118.56905
v 37.63412 118.44003 -118.56905
v 0.00001 110.48058 -127.69404
v 0.00000 113.39456 -91.24761
v 37.48638 122.21939 -91.52511
v 21.89696 119.15981 12.83879
v 107.35291 124.55445 29.08075
v 69.23112 129.10646 19.84668
v 52.43048 130.72530 15.86680
v 42.97153 133.77689 15.11507
v 43.36759 130.82869 6.39156
v 53.73644 129.44473 6.95710
v 51.07835 128.12878 21.13800
v 41.65960 129.98526 19.75986
v 50.86227 125.33238 22.47792
v 40.83469 125.09614 21.05126
v 54.00180 126.65308 4.73913
v 52.89391 122.56023 14.71358
v 39.83089 126.83683 4.36121
v 38.67205 121.54877 13.10652
v 50.86227 125.33238 22.47792
v 107.35291 124.55445 29.08075
v 28.01740 136.02660 -214.94937
v -0.00036 116.04726 -5.09424
v -0.00037 115.50294 33.46595
v 31.27595 200.64240 -117.07442
v 40.01876 182.55292 -118.03322
v 41.26043 182.43622 -91.87276
v 32.23906 198.65259 -91.64021
v 38.45021 172.00732 -2.60168
v 34.92635 167.09673 25.79206
v 16.24201 140.34132 -228.96152
v 5.50580 141.27490 -240.90390
v 0.00010 144.09282 -233.20448
v 28.65366 162.28865 53.96563
v 18.66497 150.01172 100.48933
v 0.00005 107.33029 -172.92375
v 30.54844 181.08934 -172.54356
v 25.14438 176.88586 -195.63245
v 39.57506 148.76480 -184.74162
v 36.32040 147.96222 -192.14233
v 17.95258 167.18106 -215.00116
v 21.57568 154.35265 -215.14455
v 10.34932 117.07202 136.10361
v -0.00080 111.89371 134.17818
v 0.00001 215.41571 -116.83440
v 0.00001 215.64912 -91.11287
v 0.00001 215.41571 -116.83440
v 0.00001 214.33905 -127.75941
v 44.58437 130.59735 -117.12267
v 48.08244 136.99883 -117.11427
v 49.42377 130.71341 -121.97564
v 49.22931 123.97604 -120.70314
v 48.22771 123.71143 -134.11481
v 47.17042 125.89410 -145.89499
v 47.14246 142.31862 -135.47717
v 49.40004 133.77226 -135.37218
v 47.64024 131.31284 -146.31128
v 44.58437 130.59735 -117.12267
v 49.06884 140.10349 -91.22962
v 48.08244 136.99883 -117.11427
v -0.00008 114.60693 -62.11591
v 32.03829 196.95013 -59.25061
v -0.00008 213.46039 -58.84705
v 41.01199 179.18820 -59.73736
v -0.00041 189.21518 49.58243
v -0.00045 198.90289 50.79368
v 4.37952 208.53273 33.51132
v -0.00046 209.98901 55.29009
v 1.87330 216.54117 46.03785
v 28.65366 162.28865 53.96563
v 22.07143 176.07233 53.08130
v 40.83469 125.09614 21.05126
v 7.95458 148.14503 140.20924
v -0.00081 151.49606 140.26613
v 35.06272 135.90082 -192.62978
v 42.93843 139.05725 -172.55992
v 0.00004 138.10123 -164.58525
v 26.91237 148.20053 -215.10942
v 0.00011 133.52879 -248.76866
v 4.73194 140.19991 -245.69473
v 35.06272 135.90082 -192.62978
v 0.00010 140.03082 -247.25342
v 0.00011 136.81374 -248.42424
v 11.28929 139.87593 139.69766
v -0.00094 94.45036 144.43730
v -0.00109 63.40111 159.92046
v 5.84552 67.38591 164.63663
v 7.59551 99.64581 150.48839
v -0.00116 39.46636 171.21004
v 5.17792 42.38068 176.15062
v -0.00113 22.97211 184.36505
v 2.56947 26.09884 188.14648
v 0.16941 73.50557 185.25694
v 3.26610 98.58879 176.87978
v 1.63252 52.87374 189.33371
v 0.98814 33.73033 196.84973
v -0.00106 9.99543 207.19994
v -0.00099 36.81451 199.78598
v -0.00093 56.93252 194.42485
v -0.00091 76.16745 191.63974
v -0.00096 99.02385 183.65520
v -0.00103 111.13095 183.12468
v 3.25374 120.44556 175.76909
v 13.67831 128.59622 139.17059
v 11.08223 124.97035 155.38931
v -0.00045 215.10669 22.11341
v -0.00046 220.60501 41.09942
v 42.43447 148.96838 -172.72009
v 37.24691 159.67737 -172.89317
v 46.79285 160.87379 -154.53236
v 46.38355 158.31741 -135.08870
v 47.96722 158.96429 -118.73186
v 47.96722 158.96429 -118.73186
v 48.84570 159.60178 -91.65736
v 48.42884 157.45474 -60.55955
v 44.66089 153.65714 -3.64043
v 40.03576 150.81906 24.93199
v 33.52378 145.58487 53.79525
v 22.43749 136.19437 99.76383
v 33.52378 145.58487 53.79525
v 5.22197 172.44400 190.19498
v -0.00016 177.81416 186.50368
v -0.00079 156.80125 154.80620
v 7.56555 150.32257 157.32158
v 5.10568 183.47659 208.21022
v 4.06990 198.37061 240.27316
v 0.00186 203.09021 238.01649
v 0.00092 187.95578 201.53484
v 0.00228 207.59207 258.37900
v 1.07998 171.25072 216.80818
v 0.98289 193.04623 243.40393
v 0.00153 188.95224 246.07332
v 0.00049 165.82236 222.45868
v 2.83491 160.78963 199.64473
v -0.00057 151.04610 205.57248
v -0.00105 119.03239 187.58530
v -0.00106 130.31725 186.16158
v 3.42012 133.94653 178.50807
v 10.15531 137.21851 156.68773
v 5.50580 141.27490 -240.90390
v 16.24201 140.34132 -228.96152
v 32.05056 148.27667 -203.61537
v -0.00048 224.79346 63.44885
v 34.28221 138.37320 -192.95575
v 27.55718 139.67014 -215.06071
v 0.00007 146.43677 -202.37155
v 0.00010 140.03082 -247.25342
v 0.00011 141.94777 -245.31142
v 0.00011 141.94777 -245.31142
v 0.00004 138.10123 -164.58525
v 42.93843 139.05725 -172.55992
v 27.55718 139.67014 -215.06071
v 34.28221 138.37320 -192.95575
v 49.42377 130.71341 -121.97564
v 49.40004 133.77226 -135.37218
v 62.28561 130.82092 -132.07991
v 58.41870 127.85360 -119.17529
v 47.64024 131.31284 -146.31128
v 64.91524 127.99142 -141.62888
v 61.17293 123.11636 -129.61931
v 48.22771 123.71143 -134.11481
v 49.22931 123.97604 -120.70314
v 57.04912 125.11086 -117.99749
v 65.11877 125.64658 -143.43050
v 47.17042 125.89410 -145.89499
v 75.73804 130.44862 -125.38134
v 66.43803 127.19702 -108.58868
v 79.93170 127.76348 -137.60098
v 65.29012 124.63386 -106.88322
v 75.14619 122.83331 -123.37278
v 80.54797 125.28199 -139.45432
v 103.65440 125.71379 -82.66756
v 110.34705 128.46722 -99.34151
v 125.72583 127.53478 -85.35101
v 121.81358 125.44476 -76.27449
v 116.46726 127.00980 -113.17332
v 129.75116 126.35285 -94.74711
v 103.02372 123.58546 -80.87966
v 121.04501 123.48994 -74.43037
v 125.46207 122.61115 -85.11494
v 110.05248 122.81950 -98.17273
v 130.40517 124.09440 -96.20172
v 117.42047 124.81818 -115.06638
v 49.22931 123.97604 -120.70314
v 57.04912 125.11086 -117.99749
v 65.29012 124.63386 -106.88322
v 121.04501 123.48994 -74.43037
v 103.02372 123.58546 -80.87966
v 139.58501 126.63518 -71.64619
v 142.37341 125.27112 -69.40276
v 139.87743 125.14900 -68.11057
v 136.59894 125.32193 -67.82130
v 142.90691 125.90457 -76.18815
v 143.46277 125.44027 -72.48542
v 138.71002 122.35604 -72.48306
v 143.06238 124.97595 -68.80828
v 144.24294 124.35289 -72.21675
v 143.42801 123.72940 -77.09583
v 136.20222 123.41537 -67.10403
v 140.07027 124.19583 -67.36146
v 143.46277 125.44027 -72.48542
v 93.74741 129.78336 -113.24772
v 82.25681 126.66458 -88.89525
v 99.58190 127.39214 -130.19051
v 81.39683 123.91965 -87.25020
v 93.69456 122.67592 -110.94736
v 100.45113 125.10598 -132.22247
v 81.39683 123.91965 -87.25020
v 136.20222 123.41537 -67.10403
v 140.07027 124.19583 -67.36146
v 142.37341 125.27112 -69.40276
v 143.06238 124.97595 -68.80828
v -13.46920 176.31137 -215.21576
v -9.64573 163.64514 -228.49641
v -4.73173 140.19991 -245.69473
v 0.00007 126.84097 -204.90567
v -18.74447 138.32414 -232.97357
v -30.07094 163.77921 -194.31573
v -28.36834 158.11240 -194.19673
v -28.48911 161.28778 -198.11250
v -28.56922 156.97972 -200.23569
v -32.93538 154.23816 -191.60999
v -30.03590 153.60249 -196.53290
v -33.70121 157.84247 -188.93567
v -32.35187 162.49741 -190.78848
v -13.62895 128.17363 -233.68411
v -4.83962 133.08417 -246.05431
v -5.93247 136.32408 -247.18318
v -18.98266 133.37267 -233.79179
v -44.52630 129.21361 -172.66161
v -35.16711 113.78432 -172.82874
v -29.44070 114.96630 -192.59509
v -37.09421 128.59016 -193.72530
v -21.80062 123.11271 -214.94547
v -6.62861 155.93153 -237.85497
v -6.77032 147.04642 -240.61626
v -42.93833 139.05725 -172.56000
v -46.25027 140.24754 -154.56244
v -47.60033 130.69455 -154.98253
v -15.62723 159.28056 -228.61310
v -17.79381 148.48311 -229.24904
v -22.07228 176.07233 53.08117
v -0.00063 165.53305 100.89613
v -14.02714 159.84018 100.90496
v -19.99135 123.08385 97.73755
v -0.00063 114.77355 96.25079
v -29.86884 128.55348 53.03258
v -32.16080 205.05324 -136.01828
v -27.32461 203.57123 -154.67349
v -28.59548 189.25937 -2.26166
v -8.88155 197.74506 27.02748
v -25.20230 182.77008 26.34124
v -44.84253 136.53897 -4.39392
v -28.47297 121.19355 -5.36884
v -35.90200 121.99266 -61.90762
v -46.94247 138.52016 -61.02227
v -31.27593 200.64240 -117.07449
v -40.01874 182.55293 -118.03333
v -39.10863 182.00999 -129.94470
v -30.49665 200.79611 -127.06766
v -29.47800 162.69354 -194.23946
v -31.34783 158.83980 -194.67949
v -28.14362 160.73105 -197.18523
v -27.90625 157.45493 -197.73018
v -29.04090 155.53899 -195.53333
v -30.92474 155.72574 -192.56328
v -31.57539 158.03413 -190.36166
v -31.33700 161.69301 -191.43170
v -17.90779 187.52994 -191.77269
v 0.00006 193.78845 -191.75772
v -24.23812 199.82408 -172.03304
v -34.86235 126.66226 34.22660
v -40.33760 138.30566 24.50961
v -29.86884 128.55348 53.03258
v -18.74447 138.32414 -232.97357
v -28.01724 136.02660 -214.94942
v -28.75423 130.29602 -215.32843
v -41.48261 181.69388 -136.77278
v -41.14624 181.33475 -153.74910
v -41.66037 129.98521 19.75980
v -42.97230 133.77684 15.11502
v -92.37746 127.47964 16.52112
v -91.08784 127.80214 24.97251
v -103.59686 126.64673 28.04993
v -90.07893 126.45826 30.83878
v -38.67280 121.54874 13.10647
v -40.83546 125.09610 21.05120
v -89.72681 124.16035 32.79274
v -90.18050 121.98770 30.01300
v -102.87004 122.62101 27.65400
v -103.55670 124.33247 31.18201
v -39.83164 126.83678 4.36116
v -43.36835 130.82864 6.39151
v -93.00323 125.64340 14.03179
v -71.03227 126.30283 6.53318
v -70.85953 128.14134 9.02391
v -89.72681 124.16035 32.79274
v -103.55670 124.33247 31.18201
v -68.44849 126.64351 29.70358
v -68.14854 124.28356 32.02784
v -68.14854 124.28356 32.02784
v -68.33374 122.55858 28.41599
v -104.77341 124.79540 24.73748
v -38.53829 117.01009 -155.20815
v -38.73930 116.17109 -135.41643
v -90.23861 123.02617 20.84047
v -69.13966 123.04002 16.54626
v -12.51951 117.77946 33.66098
v -37.63409 118.44003 -118.56915
v -37.63409 118.44003 -118.56915
v -37.48637 122.21941 -91.52527
v -21.89771 119.15979 12.83876
v -107.35370 124.55434 29.08059
v -69.23190 129.10638 19.84657
v -52.43126 130.72523 15.86673
v -53.73720 129.44467 6.95703
v -43.36835 130.82864 6.39151
v -42.97230 133.77684 15.11502
v -41.66037 129.98521 19.75980
v -51.07912 128.12874 21.13793
v -40.83546 125.09610 21.05120
v -50.86304 125.33233 22.47785
v -54.00255 126.65302 4.73905
v -52.89468 122.56017 14.71351
v -38.67280 121.54874 13.10647
v -39.83164 126.83678 4.36116
v -50.86304 125.33233 22.47785
v -107.35370 124.55434 29.08059
v -28.01724 136.02660 -214.94942
v -0.00036 116.04726 -5.09424
v -31.27593 200.64240 -117.07449
v -32.23904 198.65259 -91.64035
v -41.26041 182.43623 -91.87293
v -40.01874 182.55293 -118.03333
v -38.45100 172.00731 -2.60192
v -34.92716 167.09669 25.79199
v -16.24182 140.34132 -228.96155
v -5.50560 141.27492 -240.90390
v -28.65451 162.28865 53.96548
v -18.66624 150.01173 100.48915
v -30.54835 181.08936 -172.54361
v -25.14425 176.88586 -195.63248
v -39.57495 148.76480 -184.74167
v -36.32028 147.96225 -192.14238
v -17.95241 167.18106 -215.00121
v -21.57552 154.35266 -215.14459
v -10.35094 117.07204 136.10352
v -44.58436 130.59737 -117.12276
v -49.22929 123.97604 -120.70325
v -49.42376 130.71342 -121.97575
v -48.08242 136.99884 -117.11439
v -48.22768 123.71143 -134.11491
v -47.17036 125.89410 -145.89508
v -49.40000 133.77226 -135.37227
v -47.14242 142.31863 -135.47726
v -47.64018 131.31285 -146.31139
v -44.58436 130.59737 -117.12276
v -49.06884 140.10350 -91.22984
v -48.08242 136.99884 -117.11439
v -0.00008 114.60693 -62.11591
v -0.00008 213.46039 -58.84705
v -32.03844 196.95015 -59.25081
v -41.01213 179.18823 -59.73763
v -4.38041 208.53273 33.51131
v -1.87422 216.54117 46.03785
v -22.07228 176.07233 53.08117
v -28.65451 162.28865 53.96548
v -40.83546 125.09610 21.05120
v -7.95620 148.14503 140.20917
v -35.06260 135.90080 -192.62981
v -42.93833 139.05725 -172.56000
v -26.91221 148.20053 -215.10947
v -4.73173 140.19991 -245.69473
v -35.06260 135.90080 -192.62981
v -11.29092 139.87595 139.69754
v -7.59739 99.64584 150.48837
v -5.84763 67.38596 164.63666
v -5.18015 42.38072 176.15068
v -2.57166 26.09885 188.14650
v -3.26801 98.58881 176.87976
v -0.17130 73.50557 185.25694
v -1.63448 52.87375 189.33372
v -0.99018 33.73034 196.84973
v -3.25581 120.44559 175.76907
v -13.67995 128.59624 139.17047
v -11.08403 124.97037 155.38919
v -37.24681 159.67738 -172.89320
v -42.43438 148.96840 -172.72018
v -46.79278 160.87381 -154.53242
v -46.38351 158.31741 -135.08878
v -47.96718 158.96432 -118.73197
v -47.96718 158.96432 -118.73197
v -48.84568 159.60181 -91.65755
v -48.42896 157.45477 -60.55984
v -44.66168 153.65714 -3.64072
v -40.03654 150.81903 24.93191
v -33.52462 145.58490 53.79493
v -22.43876 136.19440 99.76361
v -33.52462 145.58490 53.79493
v -5.22246 172.44420 190.19504
v -7.56734 150.32259 157.32150
v -0.00016 177.81416 186.50368
v -5.10395 183.47690 208.21036
v -4.06641 198.37085 240.27327
v -0.97965 193.04630 243.40398
v -1.07880 171.25079 216.80821
v -0.00057 151.04610 205.57248
v -2.83574 160.78973 199.64476
v -3.42217 133.94661 178.50807
v -10.15734 137.21873 156.68774
v -16.24182 140.34132 -228.96155
v -5.50560 141.27492 -240.90390
v -32.05042 148.27667 -203.61542
v -27.55702 139.67015 -215.06075
v -34.28209 138.37320 -192.95580
v -42.93833 139.05725 -172.56000
v -27.55702 139.67015 -215.06075
v -34.28209 138.37320 -192.95580
v -49.42376 130.71342 -121.97575
v -58.41869 127.85360 -119.17540
v -62.28557 130.82092 -132.08005
v -49.40000 133.77226 -135.37227
v -64.91518 127.99142 -141.62900
v -47.64018 131.31285 -146.31139
v -61.17290 123.11637 -129.61945
v -57.04911 125.11086 -117.99760
v -49.22929 123.97604 -120.70325
v -48.22768 123.71143 -134.11491
v -47.17036 125.89410 -145.89508
v -65.11871 125.64659 -143.43063
v -66.43805 127.19703 -108.58881
v -75.73802 130.44862 -125.38149
v -79.93166 127.76349 -137.60117
v -75.14618 122.83331 -123.37293
v -65.29015 124.63386 -106.88335
v -80.54791 125.28199 -139.45448
v -103.65447 125.71379 -82.66778
v -121.81367 125.44476 -76.27475
v -125.72591 127.53479 -85.35128
v -110.34708 128.46724 -99.34175
v -129.75121 126.35285 -94.74737
v -116.46726 127.00980 -113.17355
v -103.02379 123.58546 -80.87988
v -110.05251 122.81950 -98.17297
v -125.46215 122.61115 -85.11521
v -121.04510 123.48994 -74.43063
v -117.42047 124.81818 -115.06663
v -130.40521 124.09441 -96.20200
v -49.22929 123.97604 -120.70325
v -57.04911 125.11086 -117.99760
v -65.29015 124.63386 -106.88335
v -103.02379 123.58546 -80.87988
v -121.04510 123.48994 -74.43063
v -139.58510 126.63518 -71.64649
v -136.59906 125.32193 -67.82160
v -139.87753 125.14900 -68.11086
v -142.37354 125.27112 -69.40306
v -143.46284 125.44027 -72.48573
v -142.90700 125.90457 -76.18846
v -138.71013 122.35604 -72.48335
v -143.42809 123.72941 -77.09614
v -144.24303 124.35290 -72.21706
v -143.06248 124.97596 -68.80859
v -140.07037 124.19584 -67.36176
v -136.20233 123.41537 -67.10432
v -143.46284 125.44027 -72.48573
v -93.74742 129.78336 -113.24792
v -82.25687 126.66458 -88.89542
v -99.58188 127.39215 -130.19072
v -93.69457 122.67592 -110.94756
v -81.39689 123.91965 -87.25037
v -100.45110 125.10599 -132.22267
v -81.39689 123.91965 -87.25037
v -136.20233 123.41537 -67.10432
v -140.07037 124.19584 -67.36176
v -142.37354 125.27112 -69.40306
v -143.06248 124.97596 -68.80859
vt 0.604982 0.401877
vt 0.583995 0.443216
vt 0.530246 0.405442
vt 0.547401 0.377008
vt 0.087490 0.392923
vt 0.097535 0.345305
vt 0.021047 0.265356
vt 0.059962 0.393321
vt 0.686268 0.341182
vt 0.669402 0.337011
vt 0.680350 0.323244
vt 0.658303 0.324371
vt 0.692798 0.304059
vt 0.670566 0.309823
vt 0.705551 0.314710
vt 0.700458 0.332896
vt 0.563161 0.075469
vt 0.558629 0.098212
vt 0.503855 0.068197
vt 0.511356 0.059808
vt 0.770862 0.191182
vt 0.698717 0.159464
vt 0.715503 0.111284
vt 0.780938 0.130665
vt 0.554296 0.033718
vt 0.628655 0.025008
vt 0.632834 0.093762
vt 0.715636 0.018707
vt 0.488574 0.374616
vt 0.508551 0.360827
vt 0.467370 0.348473
vt 0.492657 0.336744
vt 0.833562 0.204451
vt 0.831902 0.240256
vt 0.759311 0.232105
vt 0.554380 0.354877
vt 0.546496 0.321981
vt 0.161177 0.015716
vt 0.197127 0.155624
vt 0.152537 0.165859
vt 0.087856 0.020561
vt 0.299057 0.154641
vt 0.304052 0.025881
vt 0.394208 0.045486
vt 0.363083 0.165418
vt 0.886233 0.560487
vt 0.813968 0.548431
vt 0.831268 0.457359
vt 0.898155 0.456944
vt 0.745580 0.845001
vt 0.838668 0.825363
vt 0.858502 0.879756
vt 0.769222 0.926800
vt 0.730083 0.696559
vt 0.552871 0.697288
vt 0.550156 0.645352
vt 0.731476 0.637723
vt 0.975212 0.452093
vt 0.935284 0.453564
vt 0.928614 0.385175
vt 0.973291 0.385881
vt 0.512358 0.256790
vt 0.536596 0.229161
vt 0.489381 0.207457
vt 0.539581 0.191477
vt 0.498190 0.154191
vt 0.447814 0.174382
vt 0.440036 0.221975
vt 0.465862 0.258066
vt 0.688941 0.429242
vt 0.770287 0.448777
vt 0.746433 0.526757
vt 0.666784 0.486705
vt 0.850289 0.670743
vt 0.932193 0.667167
vt 0.819743 0.703764
vt 0.549148 0.111589
vt 0.625220 0.125533
vt 0.614710 0.141440
vt 0.900656 0.380634
vt 0.840365 0.376301
vt 0.790064 0.694057
vt 0.802030 0.684784
vt 0.102188 0.844977
vt 0.033930 0.827122
vt 0.093295 0.810234
vt 0.086760 0.784895
vt 0.804378 0.674280
vt 0.783644 0.664596
vt 0.073427 0.936853
vt 0.020061 0.889668
vt 0.033903 0.876716
vt 0.080429 0.921499
vt 0.759396 0.670879
vt 0.767317 0.683833
vt 0.103754 0.855247
vt 0.203760 0.849834
vt 0.205041 0.861768
vt 0.081810 0.771307
vt 0.024165 0.811377
vt 0.186982 0.757828
vt 0.184024 0.742041
vt 0.175336 0.975899
vt 0.180817 0.957703
vt 0.031449 0.851674
vt 0.840014 0.148439
vt 0.850118 0.025082
vt 0.950611 0.033114
vt 0.909304 0.148631
vt 0.099291 0.886538
vt 0.197810 0.907732
vt 0.861903 0.611228
vt 0.947749 0.583563
vt 0.969826 0.156599
vt 0.371844 0.634219
vt 0.384274 0.536108
vt 0.469450 0.544941
vt 0.457332 0.644282
vt 0.791676 0.624162
vt 0.013059 0.831343
vt 0.198012 0.802023
vt 0.280557 0.804511
vt 0.328866 0.801595
vt 0.330843 0.845420
vt 0.281983 0.848742
vt 0.278447 0.774689
vt 0.325617 0.772465
vt 0.276998 0.759915
vt 0.323326 0.748196
vt 0.280982 0.867948
vt 0.275052 0.919337
vt 0.347346 0.872512
vt 0.343933 0.925612
vt 0.272621 0.960217
vt 0.010538 0.868995
vt 0.101147 0.294337
vt 0.741957 0.563303
vt 0.868928 0.578796
vt 0.376638 0.877494
vt 0.374928 0.822983
vt 0.457549 0.821072
vt 0.459149 0.872595
vt 0.737774 0.793075
vt 0.828930 0.778521
vt 0.096683 0.344440
vt 0.086333 0.393142
vt 0.052206 0.374090
vt 0.204813 0.018197
vt 0.230873 0.156358
vt 0.786967 0.019630
vt 0.766026 0.385312
vt 0.682248 0.385155
vt 0.719923 0.275940
vt 0.689231 0.281086
vt 0.606005 0.369045
vt 0.600760 0.328358
vt 0.311577 0.269493
vt 0.343599 0.263932
vt 0.374898 0.966338
vt 0.463379 0.966400
vt 0.973257 0.560007
vt 0.926749 0.558426
vt 0.976913 0.204227
vt 0.973443 0.233436
vt 0.953631 0.214772
vt 0.950220 0.194961
vt 0.909811 0.186497
vt 0.869693 0.189956
vt 0.904742 0.252162
vt 0.905738 0.223725
vt 0.865594 0.210654
vt 0.378152 0.673430
vt 0.457550 0.703066
vt 0.375064 0.697478
vt 0.561035 0.550882
vt 0.562427 0.869050
vt 0.574123 0.960546
vt 0.558693 0.814817
vt 0.960343 0.856842
vt 0.955357 0.904614
vt 0.885245 0.921880
vt 0.964936 0.942019
vt 0.928982 0.954845
vt 0.939927 0.759483
vt 0.941607 0.796899
vt 0.322659 0.964763
vt 0.214061 0.272154
vt 0.190001 0.272907
vt 0.103507 0.224359
vt 0.123823 0.183056
vt 0.032536 0.126959
vt 0.601764 0.303155
vt 0.496181 0.047962
vt 0.492402 0.076872
vt 0.687739 0.182858
vt 0.479592 0.065030
vt 0.487601 0.056189
vt 0.240730 0.271481
vt 0.376295 0.303586
vt 0.450011 0.363891
vt 0.431380 0.379170
vt 0.351697 0.321335
vt 0.507355 0.410641
vt 0.491567 0.425611
vt 0.542321 0.458605
vt 0.529464 0.467671
vt 0.402763 0.431646
vt 0.340560 0.393040
vt 0.456408 0.455736
vt 0.504687 0.487234
vt 0.564995 0.528969
vt 0.494520 0.494064
vt 0.442095 0.467759
vt 0.392093 0.447672
vt 0.335907 0.413250
vt 0.304228 0.408514
vt 0.281791 0.382969
vt 0.275241 0.272263
vt 0.279191 0.320786
vt 0.838615 0.958670
vt 0.901625 0.979842
vt 0.766313 0.270373
vt 0.763494 0.311630
vt 0.836494 0.309100
vt 0.908121 0.305975
vt 0.969531 0.305800
vt 0.371581 0.757054
vt 0.457119 0.756486
vt 0.553504 0.749829
vt 0.731173 0.742437
vt 0.822837 0.735308
vt 0.935182 0.714018
vt 0.268470 0.156726
vt 0.254564 0.020000
vt 0.136328 0.407861
vt 0.115495 0.392182
vt 0.178807 0.310837
vt 0.205124 0.321744
vt 0.098357 0.453376
vt 0.046744 0.534855
vt 0.029685 0.527181
vt 0.083721 0.430632
vt 0.015194 0.584285
vt 0.129698 0.481829
vt 0.061442 0.546899
vt 0.071339 0.556956
vt 0.143169 0.499906
vt 0.141092 0.450755
vt 0.168873 0.458491
vt 0.281164 0.417614
vt 0.251146 0.409393
vt 0.243047 0.384788
vt 0.243670 0.320518
vt 0.480760 0.321302
vt 0.533216 0.298905
vt 0.645602 0.292893
vt 0.991416 0.987625
vt 0.102718 0.225196
vt 0.101590 0.294457
vt 0.020808 0.267973
vt 0.078802 0.410649
vt 0.079490 0.409484
vt 0.458056 0.331269
vt 0.025788 0.150293
vt 0.124796 0.183409
vt 0.594493 0.277023
vt 0.675884 0.252389
vt 0.306565 0.506518
vt 0.334120 0.527728
vt 0.301353 0.545175
vt 0.281592 0.518331
vt 0.358566 0.546928
vt 0.314546 0.567928
vt 0.328908 0.611139
vt 0.363177 0.595084
vt 0.361268 0.628272
vt 0.339624 0.638699
vt 0.318284 0.577318
vt 0.364351 0.562814
vt 0.263076 0.559001
vt 0.244185 0.519998
vt 0.278321 0.584789
vt 0.312704 0.670638
vt 0.291351 0.631592
vt 0.280961 0.593219
vt 0.126465 0.569693
vt 0.154174 0.599804
vt 0.105064 0.623699
vt 0.088619 0.606604
vt 0.177007 0.625328
vt 0.122422 0.641520
vt 0.169158 0.718305
vt 0.110136 0.705555
vt 0.119421 0.678426
vt 0.176083 0.674545
vt 0.126863 0.649280
vt 0.181286 0.632002
vt 0.294525 0.495324
vt 0.279357 0.510651
vt 0.241978 0.512481
vt 0.083680 0.601840
vt 0.121297 0.564974
vt 0.058958 0.645272
vt 0.049150 0.648796
vt 0.049565 0.641914
vt 0.053497 0.634842
vt 0.064596 0.658426
vt 0.054754 0.654820
vt 0.070053 0.679474
vt 0.053427 0.677583
vt 0.059021 0.669853
vt 0.069639 0.663530
vt 0.063326 0.692993
vt 0.056369 0.685594
vt 0.056765 0.667652
vt 0.207731 0.570987
vt 0.174530 0.530087
vt 0.232282 0.602774
vt 0.245684 0.719359
vt 0.239786 0.659688
vt 0.235933 0.614016
vt 0.170446 0.523781
vt 0.049446 0.631815
vt 0.046404 0.641312
vt 0.051967 0.675387
vt 0.046675 0.649461
vt 0.604982 0.401877
vt 0.547401 0.377008
vt 0.087490 0.392923
vt 0.019999 0.266711
vt 0.097535 0.345305
vt 0.686268 0.341182
vt 0.680350 0.323244
vt 0.669402 0.337011
vt 0.658303 0.324371
vt 0.692798 0.304059
vt 0.670566 0.309823
vt 0.705551 0.314710
vt 0.700458 0.332896
vt 0.563161 0.075469
vt 0.511356 0.059808
vt 0.503855 0.068197
vt 0.558629 0.098212
vt 0.770862 0.191182
vt 0.780938 0.130665
vt 0.715503 0.111284
vt 0.698717 0.159464
vt 0.632834 0.093762
vt 0.508551 0.360827
vt 0.492657 0.336744
vt 0.759311 0.232105
vt 0.831902 0.240256
vt 0.833562 0.204451
vt 0.554380 0.354877
vt 0.546496 0.321981
vt 0.161177 0.015716
vt 0.153558 0.165876
vt 0.196037 0.155865
vt 0.301294 0.155579
vt 0.363445 0.165462
vt 0.304052 0.025881
vt 0.898155 0.456944
vt 0.831268 0.457359
vt 0.745580 0.845001
vt 0.858502 0.879756
vt 0.838668 0.825363
vt 0.730083 0.696559
vt 0.731476 0.637723
vt 0.548045 0.644748
vt 0.552930 0.696897
vt 0.975212 0.452093
vt 0.973291 0.385881
vt 0.928614 0.385175
vt 0.935284 0.453564
vt 0.512358 0.256790
vt 0.489381 0.207457
vt 0.536596 0.229161
vt 0.539581 0.191477
vt 0.498190 0.154191
vt 0.447814 0.174382
vt 0.440036 0.221975
vt 0.465862 0.258066
vt 0.688632 0.429088
vt 0.666741 0.486670
vt 0.770287 0.448777
vt 0.850289 0.670743
vt 0.819743 0.703764
vt 0.932193 0.667167
vt 0.549148 0.111589
vt 0.614710 0.141440
vt 0.625220 0.125533
vt 0.900656 0.380634
vt 0.840365 0.376301
vt 0.802030 0.684784
vt 0.790064 0.694057
vt 0.102188 0.844977
vt 0.093295 0.810234
vt 0.033930 0.827122
vt 0.086760 0.784895
vt 0.783644 0.664596
vt 0.804378 0.674280
vt 0.073427 0.936853
vt 0.080429 0.921499
vt 0.033903 0.876716
vt 0.020061 0.889668
vt 0.759396 0.670879
vt 0.767317 0.683833
vt 0.103754 0.855247
vt 0.205041 0.861768
vt 0.203760 0.849834
vt 0.081810 0.771307
vt 0.024165 0.811377
vt 0.186982 0.757828
vt 0.184024 0.742041
vt 0.175336 0.975899
vt 0.180817 0.957703
vt 0.031449 0.851674
vt 0.840014 0.148439
vt 0.909304 0.148631
vt 0.099291 0.886538
vt 0.197810 0.907732
vt 0.861903 0.611228
vt 0.969826 0.156599
vt 0.371844 0.634219
vt 0.457332 0.644282
vt 0.791676 0.624162
vt 0.013059 0.831343
vt 0.198012 0.802023
vt 0.280557 0.804511
vt 0.281983 0.848742
vt 0.330843 0.845420
vt 0.328866 0.801595
vt 0.325617 0.772465
vt 0.278447 0.774689
vt 0.323326 0.748196
vt 0.276998 0.759915
vt 0.280982 0.867948
vt 0.275052 0.919337
vt 0.343933 0.925612
vt 0.347346 0.872512
vt 0.272621 0.960217
vt 0.010538 0.868995
vt 0.101147 0.294337
vt 0.741878 0.563256
vt 0.376638 0.877494
vt 0.459149 0.872595
vt 0.457549 0.821072
vt 0.374928 0.822983
vt 0.737774 0.793075
vt 0.828930 0.778521
vt 0.096683 0.344440
vt 0.086333 0.393142
vt 0.204813 0.018197
vt 0.231325 0.156413
vt 0.766026 0.385312
vt 0.682248 0.385155
vt 0.719923 0.275940
vt 0.689231 0.281086
vt 0.606005 0.369045
vt 0.600760 0.328358
vt 0.311577 0.269493
vt 0.976913 0.204227
vt 0.950220 0.194961
vt 0.953631 0.214772
vt 0.973443 0.233436
vt 0.909811 0.186497
vt 0.869693 0.189956
vt 0.905738 0.223725
vt 0.904742 0.252162
vt 0.865594 0.210654
vt 0.378152 0.673430
vt 0.457550 0.703066
vt 0.375064 0.697478
vt 0.561031 0.550936
vt 0.574056 0.959869
vt 0.563442 0.867543
vt 0.558722 0.814429
vt 0.885245 0.921880
vt 0.928982 0.954845
vt 0.941607 0.796899
vt 0.939927 0.759483
vt 0.322659 0.964763
vt 0.214061 0.272154
vt 0.103507 0.224359
vt 0.123823 0.183056
vt 0.601764 0.303155
vt 0.492402 0.076872
vt 0.687739 0.182858
vt 0.240730 0.271481
vt 0.351697 0.321335
vt 0.431380 0.379170
vt 0.491567 0.425611
vt 0.529464 0.467671
vt 0.340560 0.393040
vt 0.402763 0.431646
vt 0.456408 0.455736
vt 0.504687 0.487234
vt 0.281791 0.382969
vt 0.275241 0.272263
vt 0.279191 0.320786
vt 0.763494 0.311630
vt 0.766313 0.270373
vt 0.836494 0.309100
vt 0.908121 0.305975
vt 0.969531 0.305800
vt 0.371581 0.757054
vt 0.457119 0.756486
vt 0.553756 0.754475
vt 0.731173 0.742437
vt 0.822837 0.735308
vt 0.935182 0.714018
vt 0.262002 0.155572
vt 0.254564 0.020000
vt 0.134896 0.407927
vt 0.205124 0.321744
vt 0.115925 0.392454
vt 0.098357 0.453376
vt 0.046744 0.534855
vt 0.061442 0.546899
vt 0.129698 0.481829
vt 0.171099 0.454747
vt 0.155934 0.442365
vt 0.243047 0.384788
vt 0.243670 0.320518
vt 0.533216 0.298905
vt 0.480760 0.321302
vt 0.645602 0.292893
vt 0.101590 0.294457
vt 0.102718 0.225196
vt 0.124796 0.183409
vt 0.594493 0.277023
vt 0.675884 0.252389
vt 0.306565 0.506518
vt 0.281592 0.518331
vt 0.301353 0.545175
vt 0.334120 0.527728
vt 0.314546 0.567928
vt 0.358566 0.546928
vt 0.328908 0.611139
vt 0.339624 0.638699
vt 0.361268 0.628272
vt 0.363177 0.595084
vt 0.364351 0.562814
vt 0.318284 0.577318
vt 0.244185 0.519998
vt 0.263076 0.559001
vt 0.278321 0.584789
vt 0.291351 0.631592
vt 0.312704 0.670638
vt 0.280961 0.593219
vt 0.126465 0.569693
vt 0.088619 0.606604
vt 0.105064 0.623699
vt 0.154174 0.599804
vt 0.122422 0.641520
vt 0.177007 0.625328
vt 0.169158 0.718305
vt 0.176083 0.674545
vt 0.119421 0.678426
vt 0.110136 0.705555
vt 0.181286 0.632002
vt 0.126863 0.649280
vt 0.294525 0.495324
vt 0.279357 0.510651
vt 0.241978 0.512481
vt 0.121297 0.564974
vt 0.083680 0.601840
vt 0.058958 0.645272
vt 0.053497 0.634842
vt 0.049565 0.641914
vt 0.049150 0.648796
vt 0.054754 0.654820
vt 0.064596 0.658426
vt 0.070053 0.679474
vt 0.069639 0.663530
vt 0.059021 0.669853
vt 0.053427 0.677583
vt 0.056369 0.685594
vt 0.063326 0.692993
vt 0.056765 0.667652
vt 0.207731 0.570987
vt 0.174530 0.530087
vt 0.232282 0.602774
vt 0.239786 0.659688
vt 0.245684 0.719359
vt 0.235933 0.614016
vt 0.170446 0.523781
vt 0.049446 0.631815
vt 0.046404 0.641312
vt 0.051967 0.675387
vt 0.046675 0.649461
vn 0.53200 0.62030 -0.57638
vn 0.00000 0.82230 -0.56906
vn 0.00000 0.70833 -0.70588
vn 0.34665 0.65727 -0.66920
vn -0.36395 0.84758 0.38620
vn -0.18276 0.94670 0.26526
vn -0.00000 0.99344 0.11439
vn -0.00000 0.87642 0.48155
vn 0.88786 0.00042 -0.46012
vn 0.93841 0.09813 -0.33130
vn 0.90292 0.09720 -0.41868
vn 0.90461 0.34103 -0.25569
vn 0.74756 0.40688 -0.52498
vn 0.83591 0.47917 -0.26769
vn 0.83022 0.23975 -0.50325
vn 0.89194 0.13714 -0.43085
vn 0.39376 -0.77575 -0.49312
vn 0.75857 -0.21388 -0.61549
vn 0.48226 -0.02057 -0.87578
vn 0.36413 -0.69505 -0.61993
vn 0.94580 -0.24273 -0.21576
vn 0.92161 -0.11433 -0.37090
vn 0.53240 -0.79269 -0.29698
vn 0.48856 -0.87197 -0.03113
vn 0.00000 -0.91251 -0.40905
vn 0.00000 -0.93964 -0.34217
vn 0.47097 -0.78127 -0.40964
vn 0.00000 -0.95061 -0.31040
vn 0.00000 0.57106 -0.82091
vn 0.46558 0.46383 -0.75372
vn 0.00000 0.28174 -0.95949
vn 0.61747 0.10172 -0.77999
vn 0.97577 -0.18697 -0.11367
vn 0.99112 0.07416 -0.11037
vn 0.95117 0.05511 -0.30370
vn 0.73332 0.37509 -0.56705
vn 0.81375 0.13510 -0.56530
vn 0.65490 0.67908 0.33160
vn 0.65417 0.68371 0.32342
vn -0.00000 0.92611 0.37725
vn -0.00000 0.79749 0.60333
vn 0.75211 -0.65354 0.08492
vn 0.79269 -0.57642 0.19845
vn -0.00000 -0.99946 0.03286
vn -0.00000 -0.99881 -0.04881
vn 0.00000 1.00000 0.00180
vn 0.00000 0.97119 -0.23830
vn 0.65017 0.73517 -0.19183
vn 0.63547 0.75846 0.14464
vn 0.69918 0.69906 0.14986
vn 0.77538 0.58952 0.22639
vn 0.77927 0.57501 0.24919
vn -0.00000 0.99950 -0.03168
vn 0.94604 -0.32387 -0.01113
vn 0.94902 -0.31234 0.04251
vn 0.52824 -0.84843 0.03353
vn 0.40145 -0.90987 -0.10479
vn 0.77622 0.62988 -0.02683
vn 0.70640 0.68839 0.16469
vn 0.93102 0.35730 0.07441
vn 0.93162 0.35720 -0.06701
vn 0.76185 0.42542 -0.48847
vn 0.68331 0.24769 -0.68683
vn 0.88369 0.00649 -0.46804
vn 0.68563 -0.12354 -0.71739
vn 0.74158 -0.37427 -0.55677
vn 0.90449 -0.31687 -0.28545
vn 0.99536 -0.07039 -0.06559
vn 0.94133 0.25510 -0.22097
vn 0.51452 0.70839 -0.48317
vn 0.62922 0.65711 -0.41507
vn 0.00000 0.85770 -0.51415
vn 0.00000 0.84158 -0.54013
vn 0.66874 -0.67060 0.32107
vn 0.79269 -0.57642 0.19845
vn 0.97052 -0.02524 0.23969
vn 0.82755 0.13915 -0.54388
vn 0.87807 -0.19792 -0.43568
vn 0.91292 0.19472 -0.35868
vn 0.93684 0.33590 0.09751
vn 0.88831 0.37904 -0.25929
vn 0.86218 0.45940 0.21353
vn 0.63609 0.37343 0.67523
vn 0.22651 0.94062 -0.25284
vn 0.24748 0.93680 0.24729
vn 0.03934 0.99077 0.12971
vn 0.03831 0.85224 0.52175
vn 0.26654 -0.51435 0.81510
vn 0.26279 -0.96482 0.00793
vn 0.07563 0.07189 0.99454
vn 0.31313 -0.10304 0.94411
vn 0.22215 -0.97024 0.09633
vn 0.01800 -0.95116 0.30817
vn 0.46183 -0.54626 -0.69880
vn 0.73546 0.49703 -0.46050
vn 0.46484 0.19378 -0.86393
vn 0.13892 0.87745 -0.45911
vn 0.15732 -0.65387 -0.74007
vn 0.07563 0.07189 0.99454
vn 0.31313 -0.10304 0.94411
vn -0.11970 0.82114 0.55803
vn -0.22331 -0.37659 0.89906
vn -0.22331 -0.37659 0.89906
vn -0.09430 -0.98309 0.15700
vn 0.72840 -0.06065 -0.68247
vn 0.59506 -0.80061 -0.07015
vn -0.00000 -0.99425 0.10713
vn -0.00000 -0.99888 0.04727
vn 0.39872 -0.91553 0.05319
vn 0.08479 -0.96703 -0.24015
vn 0.04121 -0.98450 -0.17049
vn 0.27115 -0.95967 0.07421
vn -0.00000 -0.99946 0.03286
vn 0.44597 -0.86334 0.23613
vn 0.44597 -0.86334 0.23613
vn -0.00000 -0.99888 0.04727
vn -0.00000 -0.99778 0.06655
vn 0.68246 -0.72839 0.06078
vn 0.19386 -0.97970 0.05101
vn 0.96811 -0.08633 0.23517
vn 0.04121 0.99512 0.08962
vn 0.15338 0.97103 0.18323
vn 0.86218 0.45940 0.21353
vn 0.73546 0.49703 -0.46050
vn 0.11409 0.84879 -0.51627
vn -0.09908 0.70959 0.69761
vn 0.63609 0.37343 0.67523
vn -0.35686 -0.31375 0.87990
vn 0.26654 -0.51435 0.81510
vn 0.09147 0.06909 -0.99341
vn -0.00173 -0.99685 -0.07933
vn 0.46183 -0.54626 -0.69880
vn 0.26279 -0.96482 0.00793
vn -0.35686 -0.31375 0.87990
vn 0.96811 -0.08633 0.23517
vn -0.25317 0.95316 0.16549
vn 0.00000 -0.99996 -0.00926
vn 0.00000 -1.00000 -0.00260
vn 0.77622 0.62988 -0.02683
vn 0.93162 0.35720 -0.06701
vn 0.90927 0.41615 0.00720
vn 0.61815 0.78535 0.03324
vn 0.90236 0.40737 0.14073
vn 0.89541 0.38941 0.21586
vn -0.23179 -0.96604 0.11419
vn -0.25675 -0.95230 0.16494
vn -0.00000 -0.99028 0.13910
vn 0.89799 0.34576 0.27214
vn 0.91023 0.31762 0.26569
vn 0.00000 -0.99947 -0.03252
vn 0.85865 0.34317 -0.38074
vn 0.81765 0.39747 -0.41648
vn 0.90111 0.25307 -0.35208
vn 0.89585 0.18488 -0.40407
vn 0.85680 0.29832 -0.42059
vn 0.83161 0.38802 -0.39733
vn 0.71785 -0.67746 -0.16045
vn 0.00000 -0.81287 -0.58245
vn 0.00000 0.99985 -0.01738
vn -0.00000 0.99957 0.02932
vn 0.00000 0.99985 -0.01738
vn 0.00000 0.97105 0.23888
vn 0.80066 -0.38790 0.45660
vn 0.99465 -0.05511 0.08737
vn 0.58068 0.47016 0.66465
vn 0.19981 -0.54007 0.81756
vn 0.37284 -0.92561 -0.06505
vn 0.70350 -0.58218 -0.40762
vn 0.98773 0.14132 -0.06645
vn 0.79143 0.60980 -0.04215
vn 0.79571 0.45296 -0.40208
vn 0.80066 -0.38790 0.45660
vn 0.97053 -0.24035 0.01750
vn 0.99465 -0.05511 0.08737
vn -0.00000 -0.99965 0.02657
vn 0.74731 0.65936 0.08226
vn -0.00000 0.99453 0.10442
vn 0.91727 0.39191 0.07080
vn -0.00000 0.79749 0.60333
vn -0.00000 0.03097 0.99952
vn 0.95637 0.28975 0.03743
vn -0.00000 -0.42947 0.90308
vn 0.98633 0.15826 0.04595
vn 0.89799 0.34576 0.27214
vn 0.65490 0.67908 0.33160
vn 0.26654 -0.51435 0.81510
vn 0.75585 0.63678 0.15233
vn 0.00000 0.99678 0.08018
vn -0.16259 0.98112 -0.10470
vn -0.04747 0.98944 -0.13698
vn 0.00000 0.97914 -0.20317
vn 0.82487 0.28007 -0.49107
vn 0.00000 -0.47468 -0.88016
vn 0.56545 0.34695 -0.74826
vn 0.89249 0.29867 -0.33801
vn 0.00000 0.38781 -0.92174
vn 0.00000 0.22471 -0.97443
vn 0.95996 0.23186 0.15720
vn -0.00000 -0.46706 -0.88423
vn -0.00000 -0.43644 -0.89973
vn 0.90473 -0.20251 -0.37477
vn 0.94705 -0.26190 -0.18575
vn -0.00001 -0.49946 -0.86634
vn 0.98649 -0.13419 -0.09400
vn -0.00001 -0.74896 -0.66262
vn 0.97768 -0.20387 -0.05087
vn 0.98025 0.04236 0.19319
vn 0.94969 -0.03193 0.31155
vn 0.97203 0.08467 0.21907
vn 0.97407 0.04499 0.22173
vn -0.00000 -0.89219 0.45167
vn 0.00001 0.26196 0.96508
vn 0.00001 0.31581 0.94882
vn 0.00000 0.23623 0.97170
vn -0.00000 0.06263 0.99804
vn -0.00000 -0.17743 0.98413
vn 0.93567 -0.03062 0.35153
vn 0.98587 -0.09368 0.13885
vn 0.97433 -0.01193 0.22479
vn -0.00000 0.95928 -0.28247
vn -0.00000 0.97321 -0.22994
vn 0.94725 0.17939 -0.26560
vn 0.89078 0.33801 -0.30375
vn 0.95257 0.19769 -0.23139
vn 0.98974 0.14287 0.00020
vn 0.98926 0.13206 -0.06270
vn 0.98926 0.13206 -0.06270
vn 0.97590 0.21818 -0.00442
vn 0.98884 0.13722 0.05798
vn 0.98458 0.12462 0.12278
vn 0.96033 0.17472 0.21735
vn 0.96547 0.06198 0.25302
vn 0.97461 0.00763 0.22380
vn 0.96547 0.06198 0.25302
vn 0.96318 0.24228 -0.11655
vn 0.00002 0.84018 -0.54231
vn 0.00001 0.88395 -0.46759
vn 0.91919 0.39359 -0.01331
vn 0.97237 0.21311 -0.09535
vn 0.98839 0.14079 0.05706
vn 0.00002 0.94434 -0.32897
vn 0.00003 0.88239 -0.47053
vn 0.00002 0.42523 0.90508
vn 0.97967 -0.14504 0.13862
vn 0.94889 -0.23578 0.20981
vn -0.00001 -0.67432 0.73844
vn -0.00001 -0.73380 0.67937
vn 0.97350 -0.13549 0.18423
vn -0.00001 -0.67955 0.73363
vn -0.00000 -0.20047 0.97970
vn -0.00001 -0.36673 0.93033
vn 0.95369 -0.04407 0.29755
vn 0.97313 0.11737 0.19809
vn 0.67615 -0.11187 -0.72822
vn 0.76832 -0.10304 -0.63172
vn 0.92786 0.22277 -0.29909
vn -0.00000 0.96120 0.27584
vn -0.12627 -0.99021 -0.05951
vn -0.21157 -0.97548 0.06072
vn -0.00000 -0.99999 -0.00452
vn -0.00000 0.75172 0.65948
vn -0.00000 -0.98466 0.17446
vn 0.00000 0.00303 -1.00000
vn 0.00000 -0.99534 -0.09641
vn 0.02640 -0.99940 0.02232
vn 0.89261 0.00610 -0.45078
vn 0.92871 -0.14394 -0.34172
vn 0.58068 0.47016 0.66465
vn 0.79143 0.60980 -0.04215
vn 0.15040 0.98817 -0.03015
vn -0.23014 0.79902 0.55552
vn 0.79571 0.45296 -0.40208
vn 0.22413 0.78550 -0.57685
vn 0.00279 -0.99976 -0.02174
vn 0.37284 -0.92561 -0.06505
vn 0.19981 -0.54007 0.81756
vn -0.56687 -0.41988 0.70877
vn 0.19666 -0.50886 -0.83808
vn 0.70350 -0.58218 -0.40762
vn 0.01167 0.99992 0.00488
vn -0.38539 0.85615 0.34422
vn 0.16664 0.87906 -0.44663
vn -0.71253 -0.41660 0.56457
vn -0.01941 -0.99963 -0.01925
vn 0.29905 -0.11954 -0.94672
vn -0.12260 0.90434 0.40883
vn 0.05194 0.99841 0.02212
vn 0.00235 0.99702 0.07705
vn -0.18770 0.88176 0.43275
vn 0.42744 0.84198 -0.32918
vn 0.39283 0.88298 -0.25696
vn -0.23452 -0.64164 0.73027
vn -0.40734 -0.14371 0.90190
vn 0.02785 -0.99908 -0.03258
vn 0.03211 -0.99862 -0.04156
vn 0.79141 -0.23430 -0.56461
vn 0.56252 -0.67201 -0.48163
vn 0.19981 -0.54007 0.81756
vn -0.56687 -0.41988 0.70877
vn -0.71253 -0.41660 0.56457
vn -0.40734 -0.14371 0.90190
vn -0.23452 -0.64164 0.73027
vn 0.14373 0.97020 0.19510
vn 0.21941 0.94165 0.25524
vn 0.13469 0.83277 0.53698
vn -0.12780 0.77722 0.61612
vn 0.61140 0.76270 -0.21089
vn 0.52785 0.84284 0.10489
vn 0.17436 -0.97568 0.13285
vn 0.66453 0.42338 0.61575
vn 0.99025 -0.11460 0.07925
vn 0.68894 -0.67254 -0.27027
vn -0.11161 -0.46738 0.87698
vn 0.27351 -0.07520 0.95892
vn 0.52785 0.84284 0.10489
vn 0.02377 0.99897 0.03860
vn -0.31865 0.79630 0.51416
vn 0.24747 0.87747 -0.41086
vn -0.49902 -0.47172 0.72695
vn 0.00491 -0.99988 -0.01488
vn 0.55436 -0.35072 -0.75477
vn -0.49902 -0.47172 0.72695
vn -0.11161 -0.46738 0.87698
vn 0.27351 -0.07520 0.95892
vn 0.21941 0.94165 0.25524
vn 0.66453 0.42338 0.61575
vn -0.53199 0.62030 -0.57638
vn -0.34665 0.65727 -0.66920
vn 0.36395 0.84758 0.38620
vn -0.00000 0.99344 0.11439
vn 0.18276 0.94670 0.26526
vn -0.88786 0.00042 -0.46012
vn -0.90292 0.09720 -0.41868
vn -0.93841 0.09813 -0.33130
vn -0.90461 0.34103 -0.25569
vn -0.74756 0.40688 -0.52498
vn -0.83591 0.47917 -0.26769
vn -0.83022 0.23975 -0.50325
vn -0.89194 0.13714 -0.43085
vn -0.39376 -0.77575 -0.49312
vn -0.36413 -0.69505 -0.61993
vn -0.48226 -0.02058 -0.87579
vn -0.75857 -0.21388 -0.61549
vn -0.94580 -0.24273 -0.21576
vn -0.48856 -0.87197 -0.03113
vn -0.53239 -0.79269 -0.29698
vn -0.92161 -0.11433 -0.37091
vn -0.47097 -0.78127 -0.40964
vn -0.46557 0.46383 -0.75373
vn -0.61747 0.10172 -0.77999
vn -0.95117 0.05511 -0.30370
vn -0.99112 0.07416 -0.11037
vn -0.97577 -0.18697 -0.11367
vn -0.73332 0.37510 -0.56705
vn -0.81375 0.13510 -0.56530
vn -0.65490 0.67908 0.33160
vn -0.00000 0.92611 0.37725
vn -0.65417 0.68371 0.32341
vn -0.75211 -0.65354 0.08492
vn -0.00000 -0.99881 -0.04881
vn -0.79269 -0.57642 0.19844
vn -0.63547 0.75846 0.14464
vn -0.65017 0.73517 -0.19183
vn -0.69918 0.69906 0.14985
vn -0.77927 0.57501 0.24919
vn -0.77538 0.58952 0.22639
vn -0.94603 -0.32387 -0.01114
vn -0.40145 -0.90987 -0.10479
vn -0.52824 -0.84843 0.03352
vn -0.94902 -0.31234 0.04250
vn -0.77622 0.62988 -0.02683
vn -0.93162 0.35720 -0.06701
vn -0.93102 0.35730 0.07441
vn -0.70640 0.68839 0.16469
vn -0.76185 0.42542 -0.48848
vn -0.88368 0.00649 -0.46804
vn -0.68331 0.24769 -0.68683
vn -0.68563 -0.12354 -0.71739
vn -0.74158 -0.37426 -0.55677
vn -0.90449 -0.31687 -0.28545
vn -0.99536 -0.07039 -0.06559
vn -0.94133 0.25510 -0.22097
vn -0.51452 0.70838 -0.48317
vn 0.00000 0.84158 -0.54013
vn -0.62922 0.65711 -0.41508
vn -0.66874 -0.67060 0.32107
vn -0.97052 -0.02524 0.23969
vn -0.79269 -0.57642 0.19844
vn -0.82755 0.13915 -0.54388
vn -0.91292 0.19472 -0.35869
vn -0.87807 -0.19792 -0.43569
vn -0.93684 0.33590 0.09751
vn -0.88831 0.37904 -0.25929
vn -0.63609 0.37343 0.67523
vn -0.86218 0.45940 0.21353
vn -0.22651 0.94062 -0.25284
vn -0.03934 0.99077 0.12971
vn -0.24748 0.93680 0.24729
vn -0.03831 0.85224 0.52175
vn -0.26279 -0.96482 0.00793
vn -0.26654 -0.51435 0.81510
vn -0.07564 0.07189 0.99454
vn -0.01800 -0.95116 0.30817
vn -0.22215 -0.97024 0.09633
vn -0.31313 -0.10304 0.94410
vn -0.46183 -0.54626 -0.69880
vn -0.73546 0.49703 -0.46050
vn -0.46484 0.19378 -0.86393
vn -0.15732 -0.65387 -0.74007
vn -0.13892 0.87745 -0.45911
vn -0.07564 0.07189 0.99454
vn -0.31313 -0.10304 0.94410
vn 0.11969 0.82114 0.55803
vn 0.22331 -0.37659 0.89906
vn 0.22331 -0.37659 0.89906
vn 0.09430 -0.98309 0.15700
vn -0.72840 -0.06065 -0.68247
vn -0.59506 -0.80061 -0.07015
vn -0.39872 -0.91553 0.05319
vn -0.08479 -0.96703 -0.24015
vn -0.04121 -0.98450 -0.17049
vn -0.27115 -0.95967 0.07421
vn -0.44597 -0.86334 0.23613
vn -0.44597 -0.86334 0.23613
vn -0.68246 -0.72839 0.06078
vn -0.19385 -0.97970 0.05101
vn -0.96811 -0.08634 0.23517
vn -0.04121 0.99512 0.08962
vn -0.15338 0.97103 0.18323
vn -0.11409 0.84879 -0.51627
vn -0.73546 0.49703 -0.46050
vn -0.86218 0.45940 0.21353
vn -0.63609 0.37343 0.67523
vn 0.09907 0.70959 0.69761
vn -0.26654 -0.51435 0.81510
vn 0.35686 -0.31375 0.87990
vn -0.09147 0.06909 -0.99341
vn 0.00173 -0.99685 -0.07933
vn -0.26279 -0.96482 0.00793
vn -0.46183 -0.54626 -0.69880
vn 0.35686 -0.31375 0.87990
vn -0.96811 -0.08634 0.23517
vn 0.25317 0.95316 0.16549
vn 0.00000 -0.99996 -0.00926
vn -0.77622 0.62988 -0.02683
vn -0.61815 0.78535 0.03323
vn -0.90927 0.41615 0.00720
vn -0.93162 0.35720 -0.06701
vn -0.90236 0.40737 0.14072
vn -0.89541 0.38941 0.21586
vn 0.23179 -0.96604 0.11419
vn 0.25675 -0.95230 0.16494
vn -0.89799 0.34576 0.27214
vn -0.91023 0.31762 0.26568
vn -0.85865 0.34317 -0.38074
vn -0.81765 0.39747 -0.41648
vn -0.90110 0.25307 -0.35208
vn -0.89585 0.18488 -0.40407
vn -0.85680 0.29832 -0.42059
vn -0.83160 0.38802 -0.39733
vn -0.71785 -0.67746 -0.16046
vn -0.80066 -0.38790 0.45660
vn -0.19981 -0.54007 0.81756
vn -0.58068 0.47016 0.66465
vn -0.99465 -0.05511 0.08737
vn -0.37284 -0.92561 -0.06505
vn -0.70350 -0.58218 -0.40762
vn -0.79143 0.60980 -0.04215
vn -0.98773 0.14132 -0.06645
vn -0.79571 0.45296 -0.40208
vn -0.80066 -0.38790 0.45660
vn -0.97053 -0.24035 0.01750
vn -0.99465 -0.05511 0.08737
vn -0.00000 -0.99965 0.02657
vn -0.00000 0.99453 0.10442
vn -0.74731 0.65936 0.08226
vn -0.91728 0.39191 0.07079
vn -0.95637 0.28975 0.03743
vn -0.98633 0.15826 0.04595
vn -0.65490 0.67908 0.33160
vn -0.89799 0.34576 0.27214
vn -0.26654 -0.51435 0.81510
vn -0.75585 0.63678 0.15232
vn 0.16259 0.98112 -0.10470
vn 0.04747 0.98944 -0.13698
vn -0.82487 0.28007 -0.49107
vn -0.56545 0.34695 -0.74826
vn -0.89249 0.29867 -0.33801
vn -0.95996 0.23186 0.15719
vn -0.94705 -0.26190 -0.18575
vn -0.90474 -0.20250 -0.37476
vn -0.98649 -0.13418 -0.09399
vn -0.97768 -0.20386 -0.05086
vn -0.94969 -0.03193 0.31155
vn -0.98024 0.04237 0.19320
vn -0.97203 0.08468 0.21908
vn -0.97407 0.04500 0.22174
vn -0.93568 -0.03062 0.35153
vn -0.98587 -0.09368 0.13884
vn -0.97434 -0.01194 0.22478
vn -0.89078 0.33801 -0.30375
vn -0.94725 0.17939 -0.26560
vn -0.95256 0.19769 -0.23139
vn -0.98974 0.14287 0.00020
vn -0.98926 0.13206 -0.06270
vn -0.98926 0.13206 -0.06270
vn -0.97590 0.21818 -0.00442
vn -0.98884 0.13722 0.05797
vn -0.98458 0.12462 0.12277
vn -0.96033 0.17472 0.21735
vn -0.96547 0.06198 0.25302
vn -0.97461 0.00763 0.22379
vn -0.96547 0.06198 0.25302
vn -0.96317 0.24234 -0.11651
vn -0.91918 0.39361 -0.01331
vn 0.00002 0.84018 -0.54231
vn -0.97235 0.21318 -0.09530
vn -0.98838 0.14085 0.05709
vn -0.94890 -0.23572 0.20983
vn -0.97967 -0.14496 0.13866
vn -0.00001 -0.67955 0.73363
vn -0.97350 -0.13544 0.18426
vn -0.95369 -0.04406 0.29755
vn -0.97314 0.11737 0.19807
vn -0.76832 -0.10304 -0.63172
vn -0.67615 -0.11187 -0.72822
vn -0.92786 0.22277 -0.29909
vn 0.21157 -0.97548 0.06072
vn 0.12627 -0.99021 -0.05951
vn -0.02640 -0.99940 0.02232
vn -0.89261 0.00610 -0.45078
vn -0.92871 -0.14394 -0.34172
vn -0.58068 0.47016 0.66465
vn 0.23014 0.79902 0.55552
vn -0.15040 0.98817 -0.03015
vn -0.79143 0.60980 -0.04215
vn -0.22413 0.78550 -0.57685
vn -0.79571 0.45296 -0.40208
vn -0.00279 -0.99976 -0.02174
vn 0.56687 -0.41988 0.70877
vn -0.19981 -0.54007 0.81756
vn -0.37284 -0.92561 -0.06505
vn -0.70350 -0.58218 -0.40762
vn -0.19666 -0.50886 -0.83808
vn 0.38539 0.85615 0.34422
vn -0.01167 0.99992 0.00488
vn -0.16664 0.87906 -0.44663
vn 0.01941 -0.99963 -0.01925
vn 0.71253 -0.41660 0.56458
vn -0.29904 -0.11954 -0.94672
vn 0.12260 0.90434 0.40883
vn 0.18770 0.88176 0.43275
vn -0.00235 0.99702 0.07705
vn -0.05194 0.99841 0.02212
vn -0.39283 0.88298 -0.25696
vn -0.42744 0.84198 -0.32918
vn 0.23452 -0.64164 0.73027
vn -0.03211 -0.99862 -0.04156
vn -0.02785 -0.99908 -0.03258
vn 0.40734 -0.14371 0.90190
vn -0.56252 -0.67201 -0.48164
vn -0.79140 -0.23430 -0.56461
vn -0.19981 -0.54007 0.81756
vn 0.56687 -0.41988 0.70877
vn 0.71253 -0.41660 0.56458
vn 0.23452 -0.64164 0.73027
vn 0.40734 -0.14371 0.90190
vn -0.14373 0.97020 0.19509
vn 0.12780 0.77722 0.61612
vn -0.13469 0.83277 0.53698
vn -0.21941 0.94166 0.25524
vn -0.52784 0.84284 0.10489
vn -0.61140 0.76271 -0.21089
vn -0.17436 -0.97568 0.13285
vn -0.68894 -0.67254 -0.27027
vn -0.99025 -0.11459 0.07925
vn -0.66453 0.42338 0.61575
vn -0.27351 -0.07520 0.95892
vn 0.11161 -0.46738 0.87698
vn -0.52784 0.84284 0.10489
vn -0.02377 0.99897 0.03860
vn 0.31865 0.79630 0.51416
vn -0.24747 0.87747 -0.41086
vn -0.00491 -0.99988 -0.01488
vn 0.49902 -0.47172 0.72695
vn -0.55436 -0.35072 -0.75478
vn 0.49902 -0.47172 0.72695
vn 0.11161 -0.46738 0.87698
vn -0.27351 -0.07520 0.95892
vn -0.21941 0.94166 0.25524
vn -0.66453 0.42338 0.61575
f 199/199/199 490/490/490 491/491/491
f 199/199/199 200/200/200 201/201/201
f 495/495/495 491/491/491 490/490/490
f 492/492/492 491/491/491 495/495/495
f 203/203/203 200/200/200 491/491/491
f 491/491/491 492/492/492 203/203/203
f 201/201/201 200/200/200 203/203/203
f 207/207/207 201/201/201 204/204/204
f 203/203/203 204/204/204 201/201/201
f 207/207/207 209/209/209 213/213/213
f 213/213/213 214/214/214 207/207/207
f 204/204/204 209/209/209 207/207/207
f 210/210/210 209/209/209 204/204/204
f 204/204/204 206/206/206 210/210/210
f 205/205/205 206/206/206 204/204/204
f 204/204/204 203/203/203 205/205/205
f 574/574/574 577/577/577 578/578/578
f 574/574/574 579/579/579 560/560/560
f 578/578/578 579/579/579 574/574/574
f 568/568/568 571/571/571 572/572/572
f 569/569/569 568/568/568 553/553/553
f 570/570/570 571/571/571 568/568/568
f 568/568/568 569/569/569 570/570/570
f 591/591/591 571/571/571 570/570/570
f 570/570/570 589/589/589 591/591/591
f 589/589/589 570/570/570 569/569/569
f 569/569/569 588/588/588 589/589/589
f 567/567/567 588/588/588 569/569/569
f 569/569/569 552/552/552 567/567/567
f 553/553/553 552/552/552 569/569/569
f 553/553/553 554/554/554 551/551/551
f 551/551/551 552/552/552 553/553/553
f 567/567/567 552/552/552 551/551/551
f 551/551/551 566/566/566 567/567/567
f 566/566/566 551/551/551 582/582/582
f 582/582/582 587/587/587 566/566/566
f 565/565/565 587/587/587 582/582/582
f 291/291/291 288/288/288 287/287/287
f 287/287/287 290/290/290 291/291/291
f 306/306/306 289/289/289 288/288/288
f 288/288/288 303/303/303 306/306/306
f 288/288/288 289/289/289 286/286/286
f 286/286/286 287/287/287 288/288/288
f 308/308/308 304/304/304 303/303/303
f 305/305/305 306/306/306 303/303/303
f 303/303/303 304/304/304 305/305/305
f 324/324/324 323/323/323 306/306/306
f 306/306/306 305/305/305 324/324/324
f 301/301/301 289/289/289 306/306/306
f 306/306/306 323/323/323 301/301/301
f 286/286/286 289/289/289 301/301/301
f 317/317/317 286/286/286 302/302/302
f 301/301/301 302/302/302 286/286/286
f 302/302/302 322/322/322 317/317/317
f 317/317/317 322/322/322 300/300/300
f 326/326/326 324/324/324 305/305/305
f 305/305/305 304/304/304 326/326/326
f 290/290/290 297/297/297 296/296/296
f 298/298/298 268/268/268 271/271/271
f 270/270/270 271/271/271 268/268/268
f 268/268/268 269/269/269 270/270/270
f 271/271/271 299/299/299 298/298/298
f 299/299/299 271/271/271 281/281/281
f 280/280/280 281/281/281 271/271/271
f 271/271/271 270/270/270 280/280/280
f 282/282/282 280/280/280 270/270/270
f 270/270/270 273/273/273 282/282/282
f 272/272/272 273/273/273 270/270/270
f 270/270/270 269/269/269 272/272/272
f 280/280/280 282/282/282 318/318/318
f 318/318/318 316/316/316 280/280/280
f 281/281/281 280/280/280 316/316/316
f 300/300/300 281/281/281 317/317/317
f 534/534/534 533/533/533 563/563/563
f 535/535/535 536/536/536 533/533/533
f 533/533/533 534/534/534 535/535/535
f 545/545/545 534/534/534 564/564/564
f 563/563/563 564/564/564 534/534/534
f 546/546/546 535/535/535 534/534/534
f 534/534/534 545/545/545 546/546/546
f 547/547/547 537/537/537 535/535/535
f 535/535/535 546/546/546 547/547/547
f 538/538/538 536/536/536 535/535/535
f 535/535/535 537/537/537 538/538/538
f 546/546/546 581/581/581 583/583/583
f 583/583/583 547/547/547 546/546/546
f 581/581/581 546/546/546 545/545/545
f 582/582/582 545/545/545 565/565/565
f 261/261/261 5/5/5 8/8/8
f 7/7/7 8/8/8 5/5/5
f 5/5/5 6/6/6 7/7/7
f 261/261/261 8/8/8 329/329/329
f 329/329/329 8/8/8 330/330/330
f 330/330/330 331/331/331 329/329/329
f 484/484/484 330/330/330 191/191/191
f 443/443/443 330/330/330 484/484/484
f 331/331/331 330/330/330 443/443/443
f 191/191/191 485/485/485 484/484/484
f 191/191/191 7/7/7 189/189/189
f 189/189/189 190/190/190 191/191/191
f 136/136/136 189/189/189 7/7/7
f 6/6/6 136/136/136 7/7/7
f 44/44/44 361/361/361 359/359/359
f 359/359/359 360/360/360 44/44/44
f 44/44/44 45/45/45 42/42/42
f 42/42/42 43/43/43 44/44/44
f 360/360/360 359/359/359 461/461/461
f 461/461/461 158/158/158 360/360/360
f 158/158/158 461/461/461 490/490/490
f 490/490/490 199/199/199 158/158/158
f 202/202/202 157/157/157 158/158/158
f 158/158/158 199/199/199 202/202/202
f 45/45/45 158/158/158 157/157/157
f 157/157/157 42/42/42 45/45/45
f 202/202/202 201/201/201 207/207/207
f 201/201/201 202/202/202 199/199/199
f 491/491/491 200/200/200 199/199/199
f 121/121/121 97/97/97 84/84/84
f 84/84/84 86/86/86 121/121/121
f 105/105/105 85/85/85 84/84/84
f 84/84/84 96/96/96 105/105/105
f 96/96/96 84/84/84 97/97/97
f 84/84/84 85/85/85 86/86/86
f 126/126/126 122/122/122 121/121/121
f 121/121/121 101/101/101 126/126/126
f 121/121/121 122/122/122 125/125/125
f 125/125/125 97/97/97 121/121/121
f 101/101/101 121/121/121 86/86/86
f 130/130/130 98/98/98 97/97/97
f 97/97/97 125/125/125 130/130/130
f 97/97/97 98/98/98 96/96/96
f 110/110/110 96/96/96 98/98/98
f 411/411/411 399/399/399 413/413/413
f 413/413/413 414/414/414 411/411/411
f 435/435/435 436/436/436 434/434/434
f 434/434/434 433/433/433 435/435/435
f 433/433/433 434/434/434 429/429/429
f 429/429/429 432/432/432 433/433/433
f 431/431/431 432/432/432 429/429/429
f 429/429/429 430/430/430 431/431/431
f 440/440/440 431/431/431 430/430/430
f 430/430/430 437/437/437 440/440/440
f 440/440/440 437/437/437 438/438/438
f 438/438/438 439/439/439 440/440/440
f 437/437/437 430/430/430 410/410/410
f 438/438/438 437/437/437 409/409/409
f 410/410/410 409/409/409 437/437/437
f 408/408/408 409/409/409 410/410/410
f 428/428/428 397/397/397 396/396/396
f 396/396/396 410/410/410 428/428/428
f 417/417/417 408/408/408 396/396/396
f 396/396/396 398/398/398 417/417/417
f 410/410/410 396/396/396 408/408/408
f 396/396/396 397/397/397 398/398/398
f 434/434/434 413/413/413 428/428/428
f 428/428/428 429/429/429 434/434/434
f 428/428/428 410/410/410 430/430/430
f 430/430/430 429/429/429 428/428/428
f 397/397/397 428/428/428 413/413/413
f 413/413/413 399/399/399 397/397/397
f 397/397/397 399/399/399 398/398/398
f 436/436/436 414/414/414 413/413/413
f 413/413/413 434/434/434 436/436/436
f 145/145/145 147/147/147 260/260/260
f 260/260/260 259/259/259 145/145/145
f 145/145/145 146/146/146 147/147/147
f 260/260/260 147/147/147 451/451/451
f 147/147/147 262/262/262 452/452/452
f 451/451/451 147/147/147 452/452/452
f 147/147/147 146/146/146 262/262/262
f 264/264/264 260/260/260 529/529/529
f 451/451/451 528/528/528 260/260/260
f 260/260/260 528/528/528 529/529/529
f 258/258/258 260/260/260 264/264/264
f 258/258/258 259/259/259 260/260/260
f 529/529/529 530/530/530 264/264/264
f 264/264/264 265/265/265 258/258/258
f 105/105/105 96/96/96 110/110/110
f 98/98/98 130/130/130 131/131/131
f 131/131/131 111/111/111 98/98/98
f 98/98/98 111/111/111 110/110/110
f 132/132/132 130/130/130 125/125/125
f 131/131/131 130/130/130 132/132/132
f 125/125/125 124/124/124 132/132/132
f 124/124/124 125/125/125 122/122/122
f 132/132/132 133/133/133 131/131/131
f 186/186/186 134/134/134 131/131/131
f 131/131/131 133/133/133 186/186/186
f 104/104/104 111/111/111 131/131/131
f 131/131/131 134/134/134 104/104/104
f 110/110/110 111/111/111 104/104/104
f 134/134/134 103/103/103 104/104/104
f 104/104/104 93/93/93 110/110/110
f 173/173/173 228/228/228 227/227/227
f 227/227/227 174/174/174 173/173/173
f 172/172/172 118/118/118 173/173/173
f 173/173/173 174/174/174 172/172/172
f 56/56/56 118/118/118 117/117/117
f 172/172/172 115/115/115 118/118/118
f 117/117/117 118/118/118 115/115/115
f 57/57/57 56/56/56 175/175/175
f 117/117/117 175/175/175 56/56/56
f 56/56/56 57/57/57 54/54/54
f 369/369/369 474/474/474 117/117/117
f 117/117/117 425/425/425 369/369/369
f 117/117/117 116/116/116 424/424/424
f 424/424/424 425/425/425 117/117/117
f 115/115/115 116/116/116 117/117/117
f 370/370/370 369/369/369 425/425/425
f 474/474/474 369/369/369 368/368/368
f 369/369/369 370/370/370 367/367/367
f 513/513/513 453/453/453 454/454/454
f 454/454/454 358/358/358 483/483/483
f 358/358/358 454/454/454 453/453/453
f 515/515/515 483/483/483 188/188/188
f 188/188/188 483/483/483 358/358/358
f 358/358/358 357/357/357 188/188/188
f 453/453/453 356/356/356 358/358/358
f 357/357/357 358/358/358 356/356/356
f 188/188/188 237/237/237 515/515/515
f 238/238/238 237/237/237 188/188/188
f 237/237/237 516/516/516 514/514/514
f 514/514/514 515/515/515 237/237/237
f 237/237/237 238/238/238 235/235/235
f 235/235/235 236/236/236 237/237/237
f 515/515/515 514/514/514 522/522/522
f 514/514/514 517/517/517 520/520/520
f 520/520/520 522/522/522 514/514/514
f 517/517/517 514/514/514 516/516/516
f 516/516/516 242/242/242 517/517/517
f 519/519/519 520/520/520 517/517/517
f 517/517/517 518/518/518 519/519/519
f 241/241/241 518/518/518 517/517/517
f 517/517/517 242/242/242 241/241/241
f 521/521/521 522/522/522 520/520/520
f 520/520/520 247/247/247 521/521/521
f 520/520/520 519/519/519 246/246/246
f 246/246/246 247/247/247 520/520/520
f 522/522/522 521/521/521 251/251/251
f 251/251/251 249/249/249 248/248/248
f 249/249/249 247/247/247 244/244/244
f 244/244/244 248/248/248 249/249/249
f 244/244/244 247/247/247 246/246/246
f 243/243/243 246/246/246 519/519/519
f 246/246/246 245/245/245 244/244/244
f 243/243/243 245/245/245 246/246/246
f 519/519/519 518/518/518 243/243/243
f 518/518/518 241/241/241 243/243/243
f 245/245/245 243/243/243 240/240/240
f 240/240/240 243/243/243 241/241/241
f 245/245/245 240/240/240 239/239/239
f 239/239/239 244/244/244 245/245/245
f 235/235/235 248/248/248 244/244/244
f 244/244/244 239/239/239 235/235/235
f 248/248/248 235/235/235 238/238/238
f 236/236/236 235/235/235 239/239/239
f 239/239/239 242/242/242 236/236/236
f 241/241/241 242/242/242 239/239/239
f 239/239/239 240/240/240 241/241/241
f 284/284/284 320/320/320 321/321/321
f 320/320/320 284/284/284 283/283/283
f 284/284/284 274/274/274 277/277/277
f 277/277/277 283/283/283 284/284/284
f 275/275/275 274/274/274 278/278/278
f 276/276/276 277/277/277 274/274/274
f 274/274/274 275/275/275 276/276/276
f 272/272/272 279/279/279 278/278/278
f 278/278/278 273/273/273 272/272/272
f 278/278/278 279/279/279 275/275/275
f 283/283/283 319/319/319 320/320/320
f 320/320/320 319/319/319 292/292/292
f 320/320/320 295/295/295 297/297/297
f 292/292/292 295/295/295 320/320/320
f 294/294/294 295/295/295 292/292/292
f 292/292/292 293/293/293 294/294/294
f 296/296/296 297/297/297 295/295/295
f 295/295/295 294/294/294 296/296/296
f 126/126/126 128/128/128 129/129/129
f 129/129/129 127/127/127 126/126/126
f 122/122/122 126/126/126 127/127/127
f 127/127/127 123/123/123 122/122/122
f 122/122/122 123/123/123 124/124/124
f 409/409/409 421/421/421 438/438/438
f 409/409/409 408/408/408 420/420/420
f 420/420/420 421/421/421 409/409/409
f 420/420/420 408/408/408 417/417/417
f 417/417/417 404/404/404 420/420/420
f 416/416/416 421/421/421 420/420/420
f 420/420/420 403/403/403 416/416/416
f 404/404/404 403/403/403 420/420/420
f 438/438/438 421/421/421 416/416/416
f 441/441/441 416/416/416 415/415/415
f 416/416/416 441/441/441 438/438/438
f 415/415/415 416/416/416 403/403/403
f 403/403/403 402/402/402 415/415/415
f 402/402/402 403/403/403 404/404/404
f 442/442/442 404/404/404 417/417/417
f 404/404/404 442/442/442 405/405/405
f 404/404/404 405/405/405 402/402/402
f 427/427/427 417/417/417 398/398/398
f 426/426/426 400/400/400 386/386/386
f 386/386/386 422/422/422 426/426/426
f 422/422/422 386/386/386 388/388/388
f 386/386/386 401/401/401 394/394/394
f 386/386/386 400/400/400 401/401/401
f 444/444/444 426/426/426 422/422/422
f 422/422/422 113/113/113 138/138/138
f 422/422/422 138/138/138 444/444/444
f 388/388/388 113/113/113 422/422/422
f 112/112/112 138/138/138 113/113/113
f 112/112/112 113/113/113 75/75/75
f 137/137/137 138/138/138 112/112/112
f 112/112/112 119/119/119 137/137/137
f 119/119/119 112/112/112 74/74/74
f 75/75/75 74/74/74 112/112/112
f 367/367/367 368/368/368 369/369/369
f 368/368/368 444/444/444 474/474/474
f 444/444/444 368/368/368 426/426/426
f 406/406/406 368/368/368 367/367/367
f 400/400/400 426/426/426 368/368/368
f 368/368/368 406/406/406 400/400/400
f 387/387/387 367/367/367 509/509/509
f 509/509/509 367/367/367 370/370/370
f 367/367/367 387/387/387 395/395/395
f 395/395/395 407/407/407 367/367/367
f 406/406/406 367/367/367 407/407/407
f 387/387/387 510/510/510 511/511/511
f 511/511/511 388/388/388 387/387/387
f 509/509/509 510/510/510 387/387/387
f 394/394/394 387/387/387 386/386/386
f 394/394/394 395/395/395 387/387/387
f 386/386/386 387/387/387 388/388/388
f 450/450/450 510/510/510 509/509/509
f 48/48/48 49/49/49 46/46/46
f 362/362/362 46/46/46 162/162/162
f 162/162/162 46/46/46 49/49/49
f 59/59/59 49/49/49 80/80/80
f 49/49/49 59/59/59 162/162/162
f 224/224/224 225/225/225 80/80/80
f 80/80/80 81/81/81 224/224/224
f 60/60/60 80/80/80 225/225/225
f 80/80/80 60/60/60 59/59/59
f 224/224/224 81/81/81 151/151/151
f 151/151/151 223/223/223 224/224/224
f 225/225/225 224/224/224 34/34/34
f 224/224/224 223/223/223 222/222/222
f 222/222/222 34/34/34 224/224/224
f 61/61/61 60/60/60 225/225/225
f 225/225/225 226/226/226 61/61/61
f 164/164/164 226/226/226 225/225/225
f 225/225/225 169/169/169 164/164/164
f 34/34/34 169/169/169 225/225/225
f 60/60/60 61/61/61 58/58/58
f 58/58/58 59/59/59 60/60/60
f 59/59/59 58/58/58 161/161/161
f 161/161/161 162/162/162 59/59/59
f 161/161/161 371/371/371 374/374/374
f 374/374/374 162/162/162 161/161/161
f 162/162/162 374/374/374 362/362/362
f 392/392/392 362/362/362 374/374/374
f 374/374/374 373/373/373 392/392/392
f 373/373/373 374/374/374 371/371/371
f 371/371/371 372/372/372 373/373/373
f 373/373/373 504/504/504 392/392/392
f 76/76/76 75/75/75 232/232/232
f 74/74/74 75/75/75 76/76/76
f 74/74/74 89/89/89 119/119/119
f 83/83/83 88/88/88 74/74/74
f 74/74/74 76/76/76 83/83/83
f 74/74/74 88/88/88 89/89/89
f 137/137/137 119/119/119 57/57/57
f 57/57/57 119/119/119 89/89/89
f 175/175/175 137/137/137 57/57/57
f 94/94/94 54/54/54 57/57/57
f 89/89/89 94/94/94 57/57/57
f 94/94/94 95/95/95 54/54/54
f 54/54/54 95/95/95 82/82/82
f 82/82/82 76/76/76 54/54/54
f 76/76/76 82/82/82 83/83/83
f 232/232/232 231/231/231 76/76/76
f 586/586/586 584/584/584 548/548/548
f 549/549/549 548/548/548 584/584/584
f 548/548/548 549/549/549 540/540/540
f 540/540/540 539/539/539 548/548/548
f 544/544/544 539/539/539 542/542/542
f 541/541/541 542/542/542 539/539/539
f 539/539/539 540/540/540 541/541/541
f 538/538/538 537/537/537 544/544/544
f 544/544/544 543/543/543 538/538/538
f 542/542/542 543/543/543 544/544/544
f 584/584/584 585/585/585 549/549/549
f 561/561/561 558/558/558 584/584/584
f 584/584/584 558/558/558 557/557/557
f 557/557/557 585/585/585 584/584/584
f 562/562/562 561/561/561 556/556/556
f 558/558/558 561/561/561 562/562/562
f 562/562/562 559/559/559 558/558/558
f 557/557/557 558/558/558 559/559/559
f 471/471/471 425/425/425 424/424/424
f 509/509/509 449/449/449 450/450/450
f 449/449/449 509/509/509 508/508/508
f 370/370/370 508/508/508 509/509/509
f 481/481/481 511/511/511 510/510/510
f 510/510/510 450/450/450 481/481/481
f 480/480/480 481/481/481 450/450/450
f 450/450/450 366/366/366 480/480/480
f 366/366/366 450/450/450 449/449/449
f 508/508/508 477/477/477 449/449/449
f 364/364/364 449/449/449 477/477/477
f 449/449/449 364/364/364 366/366/366
f 477/477/477 508/508/508 507/507/507
f 508/508/508 370/370/370 472/472/472
f 472/472/472 507/507/507 508/508/508
f 425/425/425 472/472/472 370/370/370
f 472/472/472 473/473/473 506/506/506
f 506/506/506 507/507/507 472/472/472
f 471/471/471 473/473/473 472/472/472
f 472/472/472 425/425/425 471/471/471
f 507/507/507 447/447/447 477/477/477
f 507/507/507 506/506/506 448/448/448
f 448/448/448 447/447/447 507/507/507
f 476/476/476 477/477/477 447/447/447
f 477/477/477 476/476/476 364/364/364
f 447/447/447 446/446/446 476/476/476
f 447/447/447 448/448/448 445/445/445
f 445/445/445 446/446/446 447/447/447
f 364/364/364 476/476/476 475/475/475
f 475/475/475 476/476/476 446/446/446
f 446/446/446 160/160/160 475/475/475
f 504/504/504 373/373/373 372/372/372
f 372/372/372 505/505/505 504/504/504
f 465/465/465 469/469/469 504/504/504
f 504/504/504 505/505/505 465/465/465
f 504/504/504 469/469/469 352/352/352
f 468/468/468 469/469/469 465/465/465
f 465/465/465 464/464/464 468/468/468
f 464/464/464 465/465/465 462/462/462
f 469/469/469 468/468/468 470/470/470
f 470/470/470 352/352/352 469/469/469
f 470/470/470 353/353/353 352/352/352
f 352/352/352 353/353/353 344/344/344
f 353/353/353 470/470/470 467/467/467
f 467/467/467 418/418/418 353/353/353
f 344/344/344 353/353/353 418/418/418
f 418/418/418 345/345/345 344/344/344
f 346/346/346 347/347/347 344/344/344
f 344/344/344 345/345/345 346/346/346
f 345/345/345 418/418/418 107/107/107
f 418/418/418 467/467/467 466/466/466
f 466/466/466 419/419/419 418/418/418
f 108/108/108 107/107/107 418/418/418
f 418/418/418 419/419/419 108/108/108
f 107/107/107 150/150/150 345/345/345
f 229/229/229 230/230/230 143/143/143
f 143/143/143 144/144/144 51/51/51
f 52/52/52 51/51/51 185/185/185
f 185/185/185 51/51/51 144/144/144
f 184/184/184 144/144/144 231/231/231
f 230/230/230 231/231/231 144/144/144
f 144/144/144 184/184/184 185/185/185
f 76/76/76 231/231/231 230/230/230
f 230/230/230 54/54/54 76/76/76
f 230/230/230 229/229/229 55/55/55
f 55/55/55 54/54/54 230/230/230
f 229/229/229 228/228/228 173/173/173
f 173/173/173 55/55/55 229/229/229
f 118/118/118 56/56/56 55/55/55
f 55/55/55 173/173/173 118/118/118
f 54/54/54 55/55/55 56/56/56
f 316/316/316 317/317/317 281/281/281
f 281/281/281 300/300/300 299/299/299
f 316/316/316 318/318/318 290/290/290
f 290/290/290 287/287/287 316/316/316
f 286/286/286 317/317/317 316/316/316
f 316/316/316 287/287/287 286/286/286
f 290/290/290 318/318/318 321/321/321
f 318/318/318 282/282/282 285/285/285
f 285/285/285 321/321/321 318/318/318
f 285/285/285 282/282/282 273/273/273
f 321/321/321 285/285/285 284/284/284
f 273/273/273 278/278/278 285/285/285
f 285/285/285 278/278/278 274/274/274
f 274/274/274 284/284/284 285/285/285
f 321/321/321 297/297/297 290/290/290
f 297/297/297 321/321/321 320/320/320
f 545/545/545 582/582/582 581/581/581
f 564/564/564 565/565/565 545/545/545
f 581/581/581 554/554/554 556/556/556
f 556/556/556 583/583/583 581/581/581
f 551/551/551 554/554/554 581/581/581
f 581/581/581 582/582/582 551/551/551
f 586/586/586 583/583/583 556/556/556
f 583/583/583 586/586/586 550/550/550
f 550/550/550 547/547/547 583/583/583
f 537/537/537 547/547/547 550/550/550
f 548/548/548 550/550/550 586/586/586
f 550/550/550 544/544/544 537/537/537
f 550/550/550 548/548/548 539/539/539
f 539/539/539 544/544/544 550/550/550
f 556/556/556 561/561/561 586/586/586
f 584/584/584 586/586/586 561/561/561
f 500/500/500 524/524/524 523/523/523
f 500/500/500 499/499/499 489/489/489
f 489/489/489 524/524/524 500/500/500
f 499/499/499 500/500/500 490/490/490
f 523/523/523 524/524/524 515/515/515
f 522/522/522 523/523/523 515/515/515
f 251/251/251 523/523/523 522/522/522
f 515/515/515 524/524/524 489/489/489
f 489/489/489 483/483/483 515/515/515
f 489/489/489 499/499/499 512/512/512
f 512/512/512 454/454/454 489/489/489
f 483/483/483 489/489/489 454/454/454
f 499/499/499 461/461/461 359/359/359
f 359/359/359 512/512/512 499/499/499
f 490/490/490 461/461/461 499/499/499
f 454/454/454 512/512/512 513/513/513
f 361/361/361 513/513/513 512/512/512
f 512/512/512 359/359/359 361/361/361
f 177/177/177 176/176/176 50/50/50
f 50/50/50 53/53/53 177/177/177
f 178/178/178 143/143/143 50/50/50
f 50/50/50 176/176/176 178/178/178
f 51/51/51 50/50/50 143/143/143
f 52/52/52 53/53/53 50/50/50
f 50/50/50 51/51/51 52/52/52
f 177/177/177 160/160/160 142/142/142
f 142/142/142 176/176/176 177/177/177
f 141/141/141 178/178/178 176/176/176
f 176/176/176 142/142/142 141/141/141
f 143/143/143 178/178/178 229/229/229
f 178/178/178 141/141/141 228/228/228
f 228/228/228 229/229/229 178/178/178
f 144/144/144 143/143/143 230/230/230
f 219/219/219 253/253/253 198/198/198
f 198/198/198 218/218/218 219/219/219
f 218/218/218 233/233/233 42/42/42
f 43/43/43 42/42/42 233/233/233
f 233/233/233 234/234/234 43/43/43
f 42/42/42 157/157/157 218/218/218
f 202/202/202 219/219/219 218/218/218
f 218/218/218 157/157/157 202/202/202
f 208/208/208 217/217/217 219/219/219
f 219/219/219 217/217/217 252/252/252
f 252/252/252 253/253/253 219/219/219
f 202/202/202 208/208/208 219/219/219
f 252/252/252 238/238/238 253/253/253
f 238/238/238 252/252/252 248/248/248
f 248/248/248 252/252/252 251/251/251
f 251/251/251 252/252/252 217/217/217
f 139/139/139 140/140/140 141/141/141
f 228/228/228 141/141/141 140/140/140
f 140/140/140 227/227/227 228/228/228
f 39/39/39 38/38/38 148/148/148
f 40/40/40 41/41/41 38/38/38
f 38/38/38 39/39/39 40/40/40
f 187/187/187 39/39/39 149/149/149
f 188/188/188 40/40/40 39/39/39
f 39/39/39 187/187/187 188/188/188
f 148/148/148 149/149/149 39/39/39
f 149/149/149 148/148/148 234/234/234
f 198/198/198 149/149/149 233/233/233
f 234/234/234 233/233/233 149/149/149
f 149/149/149 198/198/198 187/187/187
f 238/238/238 187/187/187 198/198/198
f 188/188/188 187/187/187 238/238/238
f 198/198/198 253/253/253 238/238/238
f 233/233/233 218/218/218 198/198/198
f 231/231/231 232/232/232 184/184/184
f 446/446/446 445/445/445 159/159/159
f 159/159/159 160/160/160 446/446/446
f 475/475/475 53/53/53 364/364/364
f 478/478/478 365/365/365 53/53/53
f 53/53/53 220/220/220 478/478/478
f 364/364/364 53/53/53 365/365/365
f 181/181/181 220/220/220 53/53/53
f 53/53/53 52/52/52 181/181/181
f 365/365/365 366/366/366 364/364/364
f 480/480/480 366/366/366 365/365/365
f 365/365/365 179/179/179 480/480/480
f 180/180/180 179/179/179 365/365/365
f 365/365/365 478/478/478 180/180/180
f 479/479/479 478/478/478 220/220/220
f 180/180/180 478/478/478 479/479/479
f 479/479/479 182/182/182 180/180/180
f 183/183/183 181/181/181 180/180/180
f 180/180/180 182/182/182 183/183/183
f 180/180/180 181/181/181 52/52/52
f 52/52/52 179/179/179 180/180/180
f 220/220/220 181/181/181 183/183/183
f 183/183/183 257/257/257 221/221/221
f 182/182/182 257/257/257 183/183/183
f 183/183/183 221/221/221 220/220/220
f 220/220/220 221/221/221 479/479/479
f 479/479/479 221/221/221 257/257/257
f 182/182/182 479/479/479 257/257/257
f 185/185/185 179/179/179 52/52/52
f 142/142/142 160/160/160 159/159/159
f 159/159/159 139/139/139 142/142/142
f 141/141/141 142/142/142 139/139/139
f 17/17/17 18/18/18 19/19/19
f 25/25/25 17/17/17 20/20/20
f 18/18/18 17/17/17 27/27/27
f 27/27/27 78/78/78 18/18/18
f 18/18/18 77/77/77 194/194/194
f 77/77/77 18/18/18 78/78/78
f 22/22/22 78/78/78 27/27/27
f 27/27/27 23/23/23 22/22/22
f 79/79/79 78/78/78 22/22/22
f 78/78/78 79/79/79 77/77/77
f 22/22/22 195/195/195 79/79/79
f 22/22/22 21/21/21 35/35/35
f 35/35/35 195/195/195 22/22/22
f 21/21/21 22/22/22 23/23/23
f 150/150/150 24/24/24 23/23/23
f 23/23/23 24/24/24 21/21/21
f 106/106/106 33/33/33 21/21/21
f 21/21/21 24/24/24 106/106/106
f 34/34/34 35/35/35 21/21/21
f 21/21/21 33/33/33 34/34/34
f 222/222/222 35/35/35 34/34/34
f 153/153/153 35/35/35 222/222/222
f 154/154/154 267/267/267 35/35/35
f 35/35/35 153/153/153 154/154/154
f 171/171/171 34/34/34 33/33/33
f 169/169/169 34/34/34 171/171/171
f 168/168/168 171/171/171 33/33/33
f 33/33/33 106/106/106 168/168/168
f 171/171/171 170/170/170 169/169/169
f 164/164/164 169/169/169 170/170/170
f 170/170/170 165/165/165 164/164/164
f 163/163/163 164/164/164 165/165/165
f 165/165/165 166/166/166 163/163/163
f 166/166/166 114/114/114 163/163/163
f 114/114/114 166/166/166 167/167/167
f 167/167/167 109/109/109 114/114/114
f 109/109/109 108/108/108 114/114/114
f 106/106/106 109/109/109 167/167/167
f 205/205/205 203/203/203 492/492/492
f 205/205/205 493/493/493 211/211/211
f 492/492/492 493/493/493 205/205/205
f 205/205/205 211/211/211 206/206/206
f 206/206/206 211/211/211 210/210/210
f 210/210/210 212/212/212 213/213/213
f 213/213/213 209/209/209 210/210/210
f 211/211/211 212/212/212 210/210/210
f 493/493/493 497/497/497 211/211/211
f 211/211/211 497/497/497 212/212/212
f 497/497/497 493/493/493 492/492/492
f 497/497/497 496/496/496 213/213/213
f 213/213/213 212/212/212 497/497/497
f 492/492/492 496/496/496 497/497/497
f 495/495/495 496/496/496 492/492/492
f 213/213/213 496/496/496 495/495/495
f 495/495/495 214/214/214 213/213/213
f 356/356/356 41/41/41 357/357/357
f 412/412/412 427/427/427 398/398/398
f 398/398/398 399/399/399 411/411/411
f 411/411/411 412/412/412 398/398/398
f 482/482/482 439/439/439 438/438/438
f 438/438/438 441/441/441 482/482/482
f 167/167/167 168/168/168 106/106/106
f 108/108/108 109/109/109 106/106/106
f 419/419/419 423/423/423 108/108/108
f 106/106/106 107/107/107 108/108/108
f 107/107/107 106/106/106 24/24/24
f 24/24/24 150/150/150 107/107/107
f 423/423/423 419/419/419 466/466/466
f 466/466/466 463/463/463 423/423/423
f 463/463/463 462/462/462 423/423/423
f 462/462/462 463/463/463 464/464/464
f 267/267/267 154/154/154 256/256/256
f 256/256/256 266/266/266 267/267/267
f 154/154/154 13/13/13 14/14/14
f 14/14/14 256/256/256 154/154/154
f 153/153/153 13/13/13 154/154/154
f 192/192/192 266/266/266 256/256/256
f 192/192/192 256/256/256 12/12/12
f 256/256/256 14/14/14 12/12/12
f 255/255/255 266/266/266 192/192/192
f 192/192/192 37/37/37 255/255/255
f 156/156/156 192/192/192 12/12/12
f 192/192/192 156/156/156 37/37/37
f 155/155/155 12/12/12 10/10/10
f 155/155/155 156/156/156 12/12/12
f 11/11/11 12/12/12 14/14/14
f 10/10/10 12/12/12 11/11/11
f 13/13/13 11/11/11 14/14/14
f 16/16/16 9/9/9 11/11/11
f 15/15/15 16/16/16 11/11/11
f 15/15/15 11/11/11 13/13/13
f 9/9/9 10/10/10 11/11/11
f 152/152/152 10/10/10 9/9/9
f 10/10/10 152/152/152 155/155/155
f 156/156/156 155/155/155 36/36/36
f 36/36/36 37/37/37 156/156/156
f 30/30/30 32/32/32 36/36/36
f 36/36/36 32/32/32 37/37/37
f 32/32/32 31/31/31 263/263/263
f 263/263/263 254/254/254 32/32/32
f 255/255/255 37/37/37 32/32/32
f 32/32/32 254/254/254 255/255/255
f 263/263/263 31/31/31 350/350/350
f 350/350/350 526/526/526 263/263/263
f 525/525/525 526/526/526 350/350/350
f 152/152/152 9/9/9 16/16/16
f 16/16/16 151/151/151 152/152/152
f 70/70/70 152/152/152 151/151/151
f 223/223/223 151/151/151 16/16/16
f 16/16/16 15/15/15 223/223/223
f 15/15/15 153/153/153 223/223/223
f 153/153/153 222/222/222 223/223/223
f 15/15/15 13/13/13 153/153/153
f 337/337/337 336/336/336 458/458/458
f 532/532/532 531/531/531 527/527/527
f 527/527/527 458/458/458 532/532/532
f 458/458/458 457/457/457 351/351/351
f 351/351/351 532/532/532 458/458/458
f 457/457/457 458/458/458 336/336/336
f 338/338/338 457/457/457 336/336/336
f 501/501/501 338/338/338 339/339/339
f 338/338/338 501/501/501 457/457/457
f 457/457/457 502/502/502 351/351/351
f 501/501/501 502/502/502 457/457/457
f 502/502/502 352/352/352 351/351/351
f 347/347/347 488/488/488 351/351/351
f 351/351/351 344/344/344 347/347/347
f 344/344/344 351/351/351 352/352/352
f 502/502/502 501/501/501 503/503/503
f 503/503/503 352/352/352 502/502/502
f 339/339/339 455/455/455 501/501/501
f 346/346/346 345/345/345 150/150/150
f 150/150/150 28/28/28 346/346/346
f 347/347/347 346/346/346 348/348/348
f 348/348/348 346/346/346 28/28/28
f 390/390/390 488/488/488 347/347/347
f 347/347/347 391/391/391 390/390/390
f 348/348/348 391/391/391 347/347/347
f 348/348/348 340/340/340 343/343/343
f 343/343/343 391/391/391 348/348/348
f 28/28/28 26/26/26 348/348/348
f 340/340/340 348/348/348 26/26/26
f 23/23/23 28/28/28 150/150/150
f 28/28/28 23/23/23 27/27/27
f 27/27/27 26/26/26 28/28/28
f 26/26/26 25/25/25 340/340/340
f 26/26/26 27/27/27 17/17/17
f 93/93/93 104/104/104 103/103/103
f 103/103/103 90/90/90 93/93/93
f 92/92/92 110/110/110 93/93/93
f 92/92/92 93/93/93 90/90/90
f 90/90/90 91/91/91 92/92/92
f 135/135/135 105/105/105 92/92/92
f 92/92/92 91/91/91 135/135/135
f 110/110/110 92/92/92 105/105/105
f 120/120/120 85/85/85 105/105/105
f 100/100/100 85/85/85 120/120/120
f 85/85/85 100/100/100 99/99/99
f 99/99/99 87/87/87 85/85/85
f 86/86/86 85/85/85 87/87/87
f 99/99/99 102/102/102 101/101/101
f 101/101/101 87/87/87 99/99/99
f 86/86/86 87/87/87 101/101/101
f 128/128/128 126/126/126 101/101/101
f 101/101/101 102/102/102 128/128/128
f 503/503/503 501/501/501 455/455/455
f 503/503/503 393/393/393 392/392/392
f 392/392/392 504/504/504 503/503/503
f 455/455/455 393/393/393 503/503/503
f 352/352/352 503/503/503 504/504/504
f 456/456/456 455/455/455 339/339/339
f 393/393/393 455/455/455 385/385/385
f 383/383/383 385/385/385 455/455/455
f 455/455/455 456/456/456 383/383/383
f 339/339/339 332/332/332 456/456/456
f 327/327/327 383/383/383 456/456/456
f 72/72/72 385/385/385 383/383/383
f 383/383/383 384/384/384 72/72/72
f 47/47/47 363/363/363 385/385/385
f 385/385/385 72/72/72 47/47/47
f 385/385/385 363/363/363 393/393/393
f 392/392/392 393/393/393 363/363/363
f 363/363/363 362/362/362 392/392/392
f 363/363/363 47/47/47 46/46/46
f 46/46/46 362/362/362 363/363/363
f 47/47/47 72/72/72 71/71/71
f 71/71/71 48/48/48 47/47/47
f 46/46/46 47/47/47 48/48/48
f 72/72/72 73/73/73 70/70/70
f 70/70/70 71/71/71 72/72/72
f 81/81/81 48/48/48 71/71/71
f 71/71/71 151/151/151 81/81/81
f 151/151/151 71/71/71 70/70/70
f 48/48/48 81/81/81 80/80/80
f 80/80/80 49/49/49 48/48/48
f 459/459/459 335/335/335 460/460/460
f 460/460/460 335/335/335 486/486/486
f 486/486/486 355/355/355 460/460/460
f 525/525/525 355/355/355 486/486/486
f 350/350/350 355/355/355 525/525/525
f 486/486/486 527/527/527 531/531/531
f 486/486/486 531/531/531 525/525/525
f 335/335/335 527/527/527 486/486/486
f 335/335/335 337/337/337 527/527/527
f 333/333/333 337/337/337 335/335/335
f 334/334/334 333/333/333 335/335/335
f 456/456/456 332/332/332 334/334/334
f 332/332/332 333/333/333 334/334/334
f 339/339/339 333/333/333 332/332/332
f 338/338/338 333/333/333 339/339/339
f 338/338/338 336/336/336 333/333/333
f 336/336/336 337/337/337 333/333/333
f 458/458/458 527/527/527 337/337/337
f 382/382/382 376/376/376 375/375/375
f 375/375/375 376/376/376 377/377/377
f 381/381/381 376/376/376 382/382/382
f 376/376/376 379/379/379 378/378/378
f 380/380/380 376/376/376 381/381/381
f 379/379/379 376/376/376 380/380/380
f 377/377/377 376/376/376 378/378/378
f 69/69/69 62/62/62 64/64/64
f 62/62/62 63/63/63 64/64/64
f 68/68/68 69/69/69 64/64/64
f 64/64/64 65/65/65 66/66/66
f 67/67/67 68/68/68 64/64/64
f 66/66/66 67/67/67 64/64/64
f 63/63/63 65/65/65 64/64/64
f 559/559/559 560/560/560 557/557/557
f 575/575/575 574/574/574 559/559/559
f 559/559/559 562/562/562 575/575/575
f 560/560/560 559/559/559 574/574/574
f 573/573/573 575/575/575 562/562/562
f 562/562/562 555/555/555 573/573/573
f 556/556/556 555/555/555 562/562/562
f 555/555/555 556/556/556 554/554/554
f 573/573/573 555/555/555 553/553/553
f 554/554/554 553/553/553 555/555/555
f 553/553/553 568/568/568 573/573/573
f 576/576/576 575/575/575 573/573/573
f 573/573/573 580/580/580 576/576/576
f 572/572/572 573/573/573 568/568/568
f 574/574/574 575/575/575 576/576/576
f 577/577/577 576/576/576 580/580/580
f 576/576/576 577/577/577 574/574/574
f 580/580/580 590/590/590 577/577/577
f 2/2/2 1/1/1 70/70/70
f 152/152/152 70/70/70 1/1/1
f 1/1/1 155/155/155 152/152/152
f 1/1/1 4/4/4 36/36/36
f 36/36/36 155/155/155 1/1/1
f 3/3/3 4/4/4 1/1/1
f 1/1/1 2/2/2 3/3/3
f 383/383/383 327/327/327 2/2/2
f 2/2/2 384/384/384 383/383/383
f 3/3/3 2/2/2 327/327/327
f 70/70/70 73/73/73 2/2/2
f 29/29/29 3/3/3 328/328/328
f 327/327/327 328/328/328 3/3/3
f 4/4/4 3/3/3 29/29/29
f 36/36/36 4/4/4 30/30/30
f 312/312/312 296/296/296 294/294/294
f 294/294/294 309/309/309 312/312/312
f 309/309/309 294/294/294 293/293/293
f 293/293/293 313/313/313 309/309/309
f 314/314/314 310/310/310 309/309/309
f 309/309/309 313/313/313 314/314/314
f 311/311/311 312/312/312 309/309/309
f 309/309/309 310/310/310 311/311/311
f 296/296/296 312/312/312 307/307/307
f 307/307/307 312/312/312 311/311/311
f 315/315/315 311/311/311 310/310/310
f 311/311/311 315/315/315 307/307/307
f 310/310/310 325/325/325 315/315/315
f 307/307/307 291/291/291 296/296/296
f 288/288/288 291/291/291 307/307/307
f 307/307/307 303/303/303 288/288/288
f 303/303/303 307/307/307 308/308/308
f 296/296/296 291/291/291 290/290/290
f 29/29/29 30/30/30 4/4/4
f 350/350/350 31/31/31 29/29/29
f 29/29/29 349/349/349 350/350/350
f 328/328/328 349/349/349 29/29/29
f 32/32/32 30/30/30 29/29/29
f 29/29/29 31/31/31 32/32/32
f 354/354/354 328/328/328 327/327/327
f 349/349/349 328/328/328 354/354/354
f 354/354/354 350/350/350 349/349/349
f 354/354/354 459/459/459 460/460/460
f 460/460/460 355/355/355 354/354/354
f 327/327/327 459/459/459 354/354/354
f 354/354/354 355/355/355 350/350/350
f 334/334/334 335/335/335 459/459/459
f 459/459/459 456/456/456 334/334/334
f 456/456/456 459/459/459 327/327/327
f 216/216/216 250/250/250 217/217/217
f 217/217/217 250/250/250 251/251/251
f 217/217/217 208/208/208 215/215/215
f 215/215/215 216/216/216 217/217/217
f 215/215/215 208/208/208 207/207/207
f 207/207/207 208/208/208 202/202/202
f 498/498/498 216/216/216 215/215/215
f 215/215/215 494/494/494 498/498/498
f 215/215/215 214/214/214 495/495/495
f 495/495/495 494/494/494 215/215/215
f 207/207/207 214/214/214 215/215/215
f 216/216/216 498/498/498 250/250/250
f 251/251/251 250/250/250 498/498/498
f 494/494/494 500/500/500 498/498/498
f 523/523/523 498/498/498 500/500/500
f 498/498/498 523/523/523 251/251/251
f 490/490/490 500/500/500 494/494/494
f 490/490/490 494/494/494 495/495/495
f 17/17/17 25/25/25 26/26/26
f 341/341/341 340/340/340 25/25/25
f 342/342/342 343/343/343 340/340/340
f 340/340/340 341/341/341 342/342/342
f 487/487/487 389/389/389 343/343/343
f 343/343/343 342/342/342 487/487/487
f 391/391/391 343/343/343 389/389/389
f 389/389/389 390/390/390 391/391/391
f 196/196/196 487/487/487 342/342/342
f 342/342/342 341/341/341 193/193/193
f 193/193/193 197/197/197 342/342/342
f 342/342/342 197/197/197 196/196/196
f 25/25/25 193/193/193 341/341/341
f 19/19/19 197/197/197 193/193/193
f 193/193/193 20/20/20 19/19/19
f 20/20/20 193/193/193 25/25/25
f 196/196/196 197/197/197 19/19/19
f 19/19/19 194/194/194 196/196/196
f 194/194/194 19/19/19 18/18/18
f 19/19/19 20/20/20 17/17/17
