# orthoceras_ad reconstructed from live game memory
v -10.68347 60.79476 -13.22430
v -10.18982 61.18307 -14.36067
v -9.24778 62.55426 -12.24110
v -9.88047 62.20448 -11.23953
v -11.78439 58.54661 -13.56574
v -12.08144 58.37248 -14.82903
v -11.24244 60.20828 -4.91026
v -11.56760 62.28508 -1.34191
v -12.55404 58.52722 -0.60449
v -13.40544 56.55953 -5.25271
v -13.95617 55.42768 -7.84383
v -9.73465 63.60189 -6.39633
v -9.97293 61.84069 -8.03097
v -12.65533 56.74350 -12.10934
v -14.14805 54.63678 -12.16716
v -10.54328 64.69887 -2.55988
v -12.76592 50.47403 -5.88167
v -13.58720 49.81253 -9.92953
v -14.11241 50.80978 -13.50188
v -7.36505 60.20202 -25.81177
v -11.91066 57.85671 -26.34914
v -12.17116 56.79138 -29.72627
v -8.67715 59.33510 -29.31464
v -9.49684 60.20351 -22.62191
v -12.65085 56.88786 -18.09417
v -12.60165 56.38655 -25.43031
v -4.14863 62.06176 -21.66521
v -12.30763 46.47232 -22.44080
v -13.18100 45.86929 -20.02438
v -11.55567 44.23671 -18.37311
v -9.52735 45.76117 -21.68155
v -14.85854 45.50845 -24.15136
v -15.34379 45.73526 -21.60726
v -11.80200 48.04610 -24.56435
v -14.45046 46.64923 -25.91263
v -7.98346 47.94074 -24.18648
v -14.98780 51.56289 -20.31946
v -14.25951 47.75009 -18.01493
v -16.71490 49.40640 -22.93781
v -14.02645 53.26212 -16.08898
v -13.07649 46.18341 -17.24136
v -13.70665 54.02993 -24.34795
v -13.50451 52.61101 -25.49297
v -12.35597 54.97780 -26.92051
v -14.15641 53.62170 -23.10927
v -15.23431 50.97207 -25.87239
v -4.11877 41.70669 -10.91347
v -4.42036 39.59254 -14.38404
v -9.62225 39.85544 -13.92381
v -9.70591 43.65968 -11.55538
v -9.27716 47.12587 -7.76015
v -4.52605 45.59008 -7.02074
v -11.57723 44.55063 -14.30092
v -11.36853 41.32819 -17.03119
v -12.53529 50.35436 -25.57342
v -14.83581 48.54933 -26.64661
v -10.38190 53.40898 -27.70819
v -8.39515 50.26899 -25.69663
v -9.65285 41.26268 -18.69489
v -3.66474 43.27271 -19.06893
v -13.75355 58.35905 -46.41532
v -12.16749 57.63447 -47.05408
v -10.48169 57.79062 -41.37055
v -12.28299 58.64271 -40.80911
v -14.99087 58.10752 -51.11891
v -13.65327 57.50312 -51.62147
v -15.17250 56.76614 -46.26522
v -16.16275 56.74232 -50.93185
v -14.02166 56.80223 -40.46854
v -16.60921 57.72731 -57.36222
v -16.98630 56.96643 -59.05391
v -15.75091 57.31560 -57.81357
v -17.47993 56.75058 -57.55709
v -15.93742 57.92112 -54.75666
v -14.82483 57.41457 -55.24620
v -16.97391 56.73259 -54.75643
v -10.84139 58.92545 -35.45070
v -8.50969 57.95358 -36.36708
v -5.31996 58.48954 -29.87645
v -8.67715 59.33510 -29.31464
v -12.84307 56.84874 -35.11891
v -12.17116 56.79138 -29.72627
v -11.81739 55.83855 -35.56379
v -10.93893 55.60448 -31.45673
v -13.23402 55.86759 -40.72502
v -10.26009 55.62833 -36.07093
v -11.97709 55.65307 -41.06483
v -9.03831 55.39763 -32.10966
v -12.45650 56.50879 -47.10289
v -13.86559 56.51522 -51.64363
v -10.87404 56.52652 -41.32636
v -13.37239 55.72525 -46.90752
v -11.97709 55.65307 -41.06483
v -14.61182 55.82113 -51.46947
v -15.67478 56.18016 -55.18473
v -16.39084 56.29482 -57.78997
v -8.92846 56.57513 -36.39590
v -10.26009 55.62833 -36.07093
v -7.17507 56.27454 -32.12791
v -9.03831 55.39763 -32.10966
v -14.45983 55.92990 -46.57699
v -13.37239 55.72525 -46.90752
v -15.53858 56.00803 -51.18388
v -14.61182 55.82113 -51.46947
v -15.67478 56.18016 -55.18473
v -16.39084 56.29482 -57.78997
v -4.61266 53.96046 -28.15242
v -7.17507 56.27454 -32.12791
v -9.03831 55.39763 -32.10966
v -7.54752 53.67992 -27.92644
v -10.93893 55.60448 -31.45673
v -4.04259 48.11946 -24.83629
v -7.42230 62.79401 -17.32415
v -9.49918 60.87683 -18.68347
v -8.80770 63.69576 -11.62018
v -5.31996 58.48954 -29.87645
v -3.76957 46.58870 -22.36938
v -5.65196 50.05964 -0.77443
v -12.75738 62.35518 2.43174
v -12.74222 58.43426 4.39991
v -9.84584 65.19279 -6.45375
v -9.57188 64.47478 -12.60830
v -8.58279 65.71465 -12.33524
v -8.99469 66.38409 -6.37128
v -10.07977 67.32823 -1.23360
v -4.89361 68.36852 -8.86335
v -7.32103 65.12865 -17.53424
v -5.85368 69.92349 -3.31497
v -4.49739 65.27679 -20.50101
v 0.00008 65.47410 -21.38209
v 0.00008 69.54671 -9.78331
v -11.37197 53.03242 0.54635
v -6.54080 39.93580 -17.87273
v 0.00008 42.04348 -16.29855
v -8.14628 64.04546 -17.18912
v -3.94110 63.26323 -19.58927
v -4.70230 64.46830 -21.00114
v -2.62060 60.23040 -25.64462
v -2.57303 58.11068 -28.59520
v 0.00008 57.83688 -27.90521
v 0.00009 60.12309 -25.25706
v -11.23699 59.12795 -7.16000
v -12.63602 56.91544 -8.86970
v -11.29839 55.41526 5.27582
v -6.57131 53.21011 5.45624
v 0.00008 44.89975 -24.78078
v -2.41552 45.70356 -25.09067
v -3.76957 46.58870 -22.36938
v 0.00008 45.64585 -21.87301
v -1.03078 45.23856 -26.55640
v -4.04259 48.11946 -24.83629
v -2.44451 47.02927 -27.74168
v 0.00008 51.31380 -27.40806
v -2.41073 46.75997 -25.58477
v -2.44451 47.02927 -27.74168
v -4.04259 48.11946 -24.83629
v 0.00008 49.31486 -23.36939
v 0.00008 46.04016 -29.04082
v 0.00008 44.58379 -29.96772
v -2.41073 46.75997 -25.58477
v 0.00008 46.29940 -23.70766
v -1.03078 45.23856 -26.55640
v 0.00008 44.85777 -26.74553
v 0.00008 45.04675 -25.34778
v -4.04259 48.11946 -24.83629
v -12.87226 72.91733 10.07633
v -9.40101 91.37323 28.98468
v -7.50213 83.88016 33.09796
v -12.28275 62.75554 11.74515
v -11.68105 65.11773 0.60303
v 0.00008 71.39105 -4.65263
v -5.67990 79.88753 4.13309
v 0.00008 96.02992 24.60434
v -6.57131 53.21011 5.45624
v -7.13863 51.90778 5.32687
v 0.42568 51.05365 5.55661
v 0.00008 52.72205 5.80043
v -11.29839 55.41526 5.27582
v -12.07833 54.00681 4.60525
v -13.58921 56.56098 3.41847
v -12.74222 58.43426 4.39991
v -13.96833 61.45228 0.57586
v -12.75738 62.35518 2.43174
v -12.75838 64.97113 -1.93522
v -11.68105 65.11773 0.60303
v -10.11256 68.59554 -4.82214
v -10.07977 67.32823 -1.23360
v -5.85368 69.92349 -3.31497
v -5.20373 71.43387 -6.99820
v -13.25626 66.82741 4.30820
v -10.25173 72.63025 -0.18073
v 0.00008 80.88728 3.23106
v -5.35561 75.29553 -2.91840
v 0.00008 76.22391 -3.89258
v -12.22786 54.41264 5.22595
v -6.58043 51.95073 5.94562
v -13.88067 56.97066 4.04107
v -14.39580 62.19800 1.10661
v -13.17634 65.98602 -1.53271
v -10.50521 69.90453 -4.63295
v -5.44866 72.68753 -7.16085
v 0.00008 72.09776 -7.70613
v 0.00008 73.46528 -7.76427
v -10.93837 62.04231 -10.92657
v -11.59248 60.98387 -12.53997
v -10.68347 60.79476 -13.22430
v -9.88047 62.20448 -11.23953
v -12.27055 58.92287 -12.78522
v -11.78439 58.54661 -13.56574
v -9.97293 61.84069 -8.03097
v -10.97713 61.56044 -8.46917
v -12.45041 59.68220 -10.13426
v -12.52430 57.41001 -11.54589
v -12.43849 57.19580 -9.61052
v -11.79070 59.26234 -7.74274
v -11.23699 59.12795 -7.16000
v -12.63602 56.91544 -8.86970
v -12.65533 56.74350 -12.10934
v 0.00008 81.84244 33.72101
v 0.00008 59.33449 13.65826
v -6.35301 59.50642 13.00135
v 0.00008 125.05667 65.89948
v -1.45103 124.01272 68.17458
v -4.94793 113.54301 53.54334
v 0.00008 123.44357 68.45065
v 0.00008 108.40878 57.45211
v -4.53034 109.53443 56.40618
v 0.00008 125.69459 68.17682
v 0.00008 41.88898 -10.99551
v 0.00008 45.55020 -6.82925
v 0.00008 50.35728 -0.23317
v 0.00008 51.31380 -27.40806
v 0.00008 54.62043 -27.75996
v 0.00008 44.85777 -26.74553
v 0.00008 44.58379 -29.96772
v 0.00008 52.72205 5.80043
v 0.00009 62.38483 -21.20727
v 0.00008 63.21129 -19.35689
v 0.00008 64.73605 -22.00252
v 0.00008 71.39105 -4.65263
v 0.00008 51.34748 6.32206
v 0.00008 115.92422 52.19881
v 0.00008 45.64585 -21.87301
v 0.00008 43.71647 -19.64107
v -27.51572 40.05507 -32.88984
v -26.92670 40.71043 -34.52452
v -23.04958 43.77343 -31.24507
v -23.84120 42.99731 -29.49666
v -30.58970 37.57632 -35.74018
v -30.07552 38.14323 -37.08974
v -26.66050 38.11210 -32.63133
v -29.80803 35.96275 -35.50045
v -22.77814 40.72356 -29.02095
v -34.62913 34.27941 -39.55541
v -35.19369 33.06687 -40.95011
v -34.36130 34.59244 -40.52502
v -34.28214 33.00380 -39.60606
v -32.97010 35.67185 -37.94713
v -32.58381 36.12043 -39.12342
v -32.39469 34.20691 -37.84820
v -20.32734 45.84411 -26.26876
v -19.51583 46.86561 -28.61805
v -15.23431 50.97207 -25.87239
v -16.71490 49.40640 -22.93781
v -19.17162 43.23203 -25.74827
v -15.34379 45.73526 -21.60726
v -18.41343 43.34844 -27.04521
v -14.85854 45.50845 -24.15136
v -22.02688 40.75034 -30.01826
v -18.12828 44.30286 -28.36215
v -21.72091 41.51627 -31.04835
v -14.45046 46.64923 -25.91263
v -26.21436 39.85047 -34.85025
v -29.42582 37.42689 -37.38336
v -22.20782 42.78358 -31.50099
v -25.78080 38.75975 -34.51364
v -21.72091 41.51627 -31.04835
v -29.02249 36.51191 -37.12045
v -31.88372 34.79404 -39.10141
v -33.78123 33.53687 -40.56157
v -18.64293 45.77082 -28.95839
v -18.12828 44.30286 -28.36215
v -14.83581 48.54933 -26.64661
v -14.45046 46.64923 -25.91263
v -26.03690 38.11826 -33.58814
v -25.78080 38.75975 -34.51364
v -29.24749 35.97321 -36.32385
v -29.02249 36.51191 -37.12045
v -31.88372 34.79404 -39.10141
v -33.78123 33.53687 -40.56157
v -14.33465 24.12523 -17.81377
v -15.16101 24.48801 -19.43677
v -13.42330 30.06535 -18.41572
v -12.58514 29.52367 -16.60189
v -15.79194 19.59282 -18.83922
v -16.47487 19.92837 -20.19128
v -12.41551 23.28553 -18.24405
v -14.14449 18.94620 -19.21323
v -10.22413 28.62954 -16.99241
v -17.71197 13.58722 -20.24944
v -17.95480 12.01631 -21.20920
v -18.20001 13.69697 -21.17661
v -16.67871 12.84110 -20.60416
v -16.93031 16.09422 -19.63155
v -17.53187 16.31547 -20.78189
v -15.56783 15.39084 -20.00014
v -10.94190 34.70563 -15.45391
v -12.20335 35.26455 -17.75987
v -11.36853 41.32819 -17.03119
v -9.62225 39.85544 -13.92381
v -8.28016 33.63104 -15.88980
v -4.42036 39.59254 -14.38404
v -9.02548 34.04360 -17.95418
v -6.54080 39.93580 -17.87273
v -10.64461 29.03822 -18.70383
v -14.31259 24.19015 -20.17468
v -15.74482 19.70792 -20.85454
v -12.38003 29.77061 -19.17635
v -12.82928 23.56754 -19.80490
v -10.64461 29.03822 -18.70383
v -14.48408 19.20367 -20.57052
v -16.39936 15.84655 -21.30085
v -17.30852 13.33485 -21.64421
v -11.10979 34.88651 -18.61868
v -9.02548 34.04360 -17.95418
v -9.65285 41.26268 -18.69489
v -6.54080 39.93580 -17.87273
v -12.82928 23.56754 -19.80490
v -14.48408 19.20367 -20.57052
v -16.39936 15.84655 -21.30085
v -17.30852 13.33485 -21.64421
v 10.68365 60.79476 -13.22430
v 9.88064 62.20448 -11.23953
v 9.24795 62.55426 -12.24110
v 10.18999 61.18307 -14.36067
v 11.78456 58.54661 -13.56574
v 12.08161 58.37248 -14.82903
v 11.24261 60.20828 -4.91026
v 13.40561 56.55953 -5.25271
v 12.55421 58.52722 -0.60449
v 11.56777 62.28508 -1.34191
v 13.95634 55.42767 -7.84383
v 9.97310 61.84069 -8.03097
v 9.73482 63.60189 -6.39633
v 14.14822 54.63678 -12.16716
v 12.65550 56.74350 -12.10934
v 10.54345 64.69887 -2.55988
v 12.76609 50.47403 -5.88167
v 13.58737 49.81253 -9.92953
v 14.11258 50.80978 -13.50188
v 7.36522 60.20202 -25.81177
v 8.67732 59.33510 -29.31464
v 12.17133 56.79137 -29.72627
v 11.91083 57.85670 -26.34914
v 9.49701 60.20351 -22.62191
v 12.65102 56.88786 -18.09417
v 12.60182 56.38654 -25.43031
v 4.14880 62.06176 -21.66521
v 12.30780 46.47231 -22.44080
v 9.52752 45.76117 -21.68155
v 11.55583 44.23670 -18.37311
v 13.18116 45.86929 -20.02438
v 14.85870 45.50845 -24.15136
v 15.34396 45.73526 -21.60726
v 14.45062 46.64923 -25.91263
v 11.80216 48.04609 -24.56435
v 7.98363 47.94074 -24.18648
v 14.98797 51.56289 -20.31946
v 16.71507 49.40639 -22.93781
v 14.25968 47.75009 -18.01493
v 14.02662 53.26212 -16.08898
v 13.07665 46.18341 -17.24136
v 13.70682 54.02992 -24.34796
v 12.35614 54.97779 -26.92052
v 13.50467 52.61100 -25.49298
v 14.15658 53.62170 -23.10928
v 15.23447 50.97206 -25.87239
v 4.11894 41.70669 -10.91347
v 9.70608 43.65968 -11.55538
v 9.62242 39.85544 -13.92381
v 4.42053 39.59254 -14.38404
v 9.27733 47.12587 -7.76015
v 4.52622 45.59008 -7.02074
v 11.36870 41.32819 -17.03119
v 11.57740 44.55063 -14.30092
v 12.53546 50.35435 -25.57343
v 14.83598 48.54933 -26.64661
v 10.38207 53.40898 -27.70819
v 8.39531 50.26899 -25.69663
v 3.66490 43.27271 -19.06893
v 9.65301 41.26268 -18.69489
v 13.75372 58.35905 -46.41532
v 12.28315 58.64270 -40.80911
v 10.48185 57.79062 -41.37055
v 12.16766 57.63446 -47.05408
v 14.99104 58.10752 -51.11891
v 13.65344 57.50311 -51.62148
v 16.16291 56.74232 -50.93185
v 15.17266 56.76614 -46.26522
v 14.02183 56.80223 -40.46854
v 16.60937 57.72730 -57.36222
v 15.75108 57.31559 -57.81357
v 16.98647 56.96642 -59.05391
v 17.48010 56.75057 -57.55709
v 15.93759 57.92111 -54.75666
v 14.82500 57.41457 -55.24621
v 16.97407 56.73258 -54.75644
v 10.84155 58.92545 -35.45070
v 8.67732 59.33510 -29.31464
v 5.32013 58.48954 -29.87645
v 8.50985 57.95358 -36.36707
v 12.84324 56.84873 -35.11891
v 12.17133 56.79137 -29.72627
v 11.81755 55.83855 -35.56379
v 10.93909 55.60448 -31.45673
v 13.23419 55.86759 -40.72502
v 11.97726 55.65307 -41.06483
v 10.26025 55.62833 -36.07093
v 9.03847 55.39763 -32.10966
v 12.45667 56.50878 -47.10289
v 13.86576 56.51522 -51.64363
v 10.87420 56.52651 -41.32636
v 11.97726 55.65307 -41.06483
v 13.37256 55.72524 -46.90752
v 14.61199 55.82112 -51.46947
v 15.67495 56.18016 -55.18474
v 16.39101 56.29481 -57.78997
v 8.92863 56.57512 -36.39590
v 10.26025 55.62833 -36.07093
v 7.17523 56.27454 -32.12791
v 9.03847 55.39763 -32.10966
v 14.46000 55.92990 -46.57699
v 13.37256 55.72524 -46.90752
v 15.53875 56.00802 -51.18388
v 14.61199 55.82112 -51.46947
v 15.67495 56.18016 -55.18474
v 16.39101 56.29481 -57.78997
v 4.61282 53.96046 -28.15242
v 7.54768 53.67992 -27.92643
v 9.03847 55.39763 -32.10966
v 7.17523 56.27454 -32.12791
v 10.93909 55.60448 -31.45673
v 4.04276 48.11946 -24.83629
v 7.42247 62.79401 -17.32415
v 9.49935 60.87683 -18.68347
v 8.80787 63.69576 -11.62018
v 5.32013 58.48954 -29.87645
v 3.76974 46.58870 -22.36938
v 5.65213 50.05964 -0.77443
v 12.74239 58.43426 4.39991
v 12.75754 62.35518 2.43175
v 9.84601 65.19279 -6.45375
v 8.99486 66.38409 -6.37128
v 8.58296 65.71465 -12.33524
v 9.57205 64.47478 -12.60830
v 10.07994 67.32823 -1.23360
v 4.89378 68.36852 -8.86335
v 7.32120 65.12865 -17.53424
v 5.85385 69.92349 -3.31497
v 4.49756 65.27679 -20.50101
v 11.37214 53.03242 0.54635
v 6.54097 39.93580 -17.87273
v 8.14645 64.04546 -17.18912
v 4.70247 64.46830 -21.00114
v 3.94127 63.26323 -19.58927
v 2.62077 60.23040 -25.64462
v 2.57320 58.11068 -28.59520
v 11.23715 59.12795 -7.16000
v 12.63619 56.91544 -8.86970
v 11.29856 55.41526 5.27582
v 6.57148 53.21011 5.45624
v 3.76974 46.58870 -22.36938
v 2.41569 45.70356 -25.09067
v 1.03094 45.23856 -26.55640
v 4.04276 48.11946 -24.83629
v 0.00008 51.31380 -27.40806
v 2.44468 47.02927 -27.74168
v 2.41090 46.75997 -25.58477
v 2.44468 47.02927 -27.74168
v 4.04276 48.11946 -24.83629
v 2.41090 46.75997 -25.58477
v 1.03094 45.23856 -26.55640
v 4.04276 48.11946 -24.83629
v 12.87243 72.91733 10.07633
v 12.28292 62.75554 11.74515
v 7.50230 83.88016 33.09796
v 9.40118 91.37323 28.98468
v 11.68122 65.11773 0.60303
v 5.68007 79.88753 4.13309
v 6.57148 53.21011 5.45624
v 0.42568 51.05365 5.55661
v 6.71320 51.90778 5.32687
v 11.29856 55.41526 5.27582
v 12.07850 54.00681 4.60525
v 13.58937 56.56098 3.41847
v 12.74239 58.43426 4.39991
v 13.96850 61.45228 0.57586
v 12.75754 62.35518 2.43175
v 12.75855 64.97113 -1.93522
v 11.68122 65.11773 0.60303
v 10.11273 68.59554 -4.82214
v 10.07994 67.32823 -1.23360
v 5.85385 69.92349 -3.31497
v 5.20390 71.43387 -6.99820
v 13.25643 66.82741 4.30820
v 10.25190 72.63025 -0.18073
v 5.35578 75.29553 -2.91840
v 6.58060 51.95073 5.94562
v 12.22803 54.41264 5.22595
v 13.88084 56.97066 4.04107
v 14.39597 62.19800 1.10661
v 13.17651 65.98602 -1.53271
v 10.50538 69.90453 -4.63295
v 5.44883 72.68753 -7.16085
v 10.93854 62.04231 -10.92656
v 9.88064 62.20448 -11.23953
v 10.68365 60.79476 -13.22430
v 11.59265 60.98386 -12.53998
v 11.78456 58.54661 -13.56574
v 12.27072 58.92287 -12.78522
v 9.97310 61.84069 -8.03097
v 10.97730 61.56044 -8.46917
v 12.45058 59.68220 -10.13426
v 12.52447 57.41001 -11.54589
v 12.43866 57.19580 -9.61052
v 12.63619 56.91544 -8.86970
v 11.23715 59.12795 -7.16000
v 11.79087 59.26234 -7.74274
v 12.65550 56.74350 -12.10934
v 6.35318 59.50642 13.00135
v 4.94810 113.54301 53.54334
v 1.45120 124.01272 68.17458
v 4.53051 109.53443 56.40618
v 0.00008 51.31380 -27.40806
v 27.51588 40.05507 -32.88984
v 23.84136 42.99731 -29.49666
v 23.04974 43.77343 -31.24507
v 26.92686 40.71043 -34.52452
v 30.58986 37.57632 -35.74018
v 30.07568 38.14323 -37.08973
v 29.80819 35.96275 -35.50045
v 26.66067 38.11211 -32.63133
v 22.77831 40.72356 -29.02095
v 34.62928 34.27941 -39.55541
v 34.36146 34.59244 -40.52503
v 35.19385 33.06687 -40.95011
v 34.28230 33.00380 -39.60606
v 32.97026 35.67185 -37.94713
v 32.58397 36.12043 -39.12342
v 32.39484 34.20691 -37.84819
v 20.32751 45.84411 -26.26877
v 16.71507 49.40639 -22.93781
v 15.23447 50.97206 -25.87239
v 19.51600 46.86561 -28.61805
v 19.17179 43.23202 -25.74828
v 15.34396 45.73526 -21.60726
v 18.41360 43.34843 -27.04522
v 14.85870 45.50845 -24.15136
v 22.02704 40.75034 -30.01826
v 21.72108 41.51627 -31.04835
v 18.12845 44.30286 -28.36215
v 14.45062 46.64923 -25.91263
v 26.21452 39.85047 -34.85025
v 29.42598 37.42689 -37.38336
v 22.20799 42.78358 -31.50099
v 21.72108 41.51627 -31.04835
v 25.78096 38.75976 -34.51364
v 29.02265 36.51191 -37.12044
v 31.88388 34.79404 -39.10141
v 33.78138 33.53687 -40.56157
v 18.64309 45.77081 -28.95839
v 18.12845 44.30286 -28.36215
v 14.83598 48.54933 -26.64661
v 14.45062 46.64923 -25.91263
v 26.03707 38.11826 -33.58813
v 25.78096 38.75976 -34.51364
v 29.24765 35.97321 -36.32385
v 29.02265 36.51191 -37.12044
v 31.88388 34.79404 -39.10141
v 33.78138 33.53687 -40.56157
v 14.33482 24.12523 -17.81377
v 12.58531 29.52367 -16.60189
v 13.42347 30.06535 -18.41572
v 15.16117 24.48800 -19.43678
v 15.79211 19.59281 -18.83922
v 16.47504 19.92836 -20.19128
v 14.14466 18.94619 -19.21324
v 12.41568 23.28553 -18.24405
v 10.22430 28.62954 -16.99241
v 17.71214 13.58721 -20.24944
v 18.20018 13.69697 -21.17662
v 17.95497 12.01630 -21.20920
v 16.67888 12.84110 -20.60417
v 16.93048 16.09421 -19.63155
v 17.53204 16.31546 -20.78189
v 15.56800 15.39084 -20.00014
v 10.94207 34.70562 -15.45391
v 9.62242 39.85544 -13.92381
v 11.36870 41.32819 -17.03119
v 12.20352 35.26455 -17.75987
v 8.28033 33.63104 -15.88980
v 4.42053 39.59254 -14.38404
v 9.02565 34.04359 -17.95418
v 6.54097 39.93580 -17.87273
v 10.64478 29.03822 -18.70383
v 14.31276 24.19014 -20.17469
v 15.74500 19.70791 -20.85455
v 12.38020 29.77061 -19.17635
v 10.64478 29.03822 -18.70383
v 12.82945 23.56754 -19.80490
v 14.48425 19.20366 -20.57052
v 16.39953 15.84654 -21.30085
v 17.30869 13.33484 -21.64421
v 11.10996 34.88650 -18.61868
v 9.02565 34.04359 -17.95418
v 9.65301 41.26268 -18.69489
v 6.54097 39.93580 -17.87273
v 12.82945 23.56754 -19.80490
v 14.48425 19.20366 -20.57052
v 16.39953 15.84654 -21.30085
v 17.30869 13.33484 -21.64421
vt 0.198411 0.813364
vt 0.209865 0.822975
vt 0.182595 0.833602
vt 0.173229 0.823319
vt 0.205178 0.786810
vt 0.219703 0.786795
vt 0.111051 0.764372
vt 0.064598 0.764440
vt 0.073105 0.716543
vt 0.129668 0.721229
vt 0.161037 0.719285
vt 0.115508 0.813009
vt 0.140597 0.801441
vt 0.194276 0.758566
vt 0.205810 0.730810
vt 0.069294 0.800636
vt 0.167589 0.653659
vt 0.208784 0.668890
vt 0.235505 0.694854
vt 0.345002 0.837451
vt 0.332013 0.790641
vt 0.352616 0.775230
vt 0.363726 0.809286
vt 0.302027 0.828936
vt 0.256230 0.778432
vt 0.327957 0.775855
vt 0.315530 0.887836
vt 0.350932 0.679881
vt 0.323423 0.671205
vt 0.321263 0.648751
vt 0.366821 0.662582
vt 0.339430 0.699332
vt 0.324235 0.687529
vt 0.370274 0.699526
vt 0.347928 0.703842
vt 0.400523 0.688471
vt 0.294967 0.725793
vt 0.290597 0.683591
vt 0.329048 0.710419
vt 0.248587 0.731013
vt 0.294928 0.664588
vt 0.325427 0.755752
vt 0.341587 0.742602
vt 0.348261 0.761081
vt 0.313705 0.751707
vt 0.338524 0.726006
vt 0.283471 0.545706
vt 0.327321 0.558041
vt 0.308029 0.596953
vt 0.262735 0.607747
vt 0.207577 0.608186
vt 0.218857 0.550521
vt 0.278353 0.636364
vt 0.314202 0.619293
vt 0.361694 0.724540
vt 0.342882 0.709617
vt 0.373807 0.754525
vt 0.394661 0.719227
vt 0.335509 0.620168
vt 0.388295 0.591657
vt 0.738347 0.175434
vt 0.755983 0.148835
vt 0.827474 0.204369
vt 0.804824 0.233358
vt 0.683299 0.126482
vt 0.698345 0.104137
vt 0.708037 0.200864
vt 0.658120 0.148421
vt 0.770590 0.265281
vt 0.611286 0.062559
vt 0.588472 0.044731
vt 0.617240 0.048420
vt 0.592959 0.070509
vt 0.641162 0.088983
vt 0.651999 0.069981
vt 0.618499 0.104594
vt 0.867395 0.290134
vt 0.894803 0.252237
vt 0.969284 0.296283
vt 0.928665 0.343428
vt 0.826287 0.327450
vt 0.881456 0.389191
vt 0.806585 0.340046
vt 0.845388 0.390873
vt 0.755566 0.276790
vt 0.785748 0.354310
vt 0.740002 0.289369
vt 0.819516 0.406892
vt 0.764052 0.133194
vt 0.705534 0.090463
vt 0.837765 0.186742
vt 0.773701 0.117410
vt 0.848740 0.167887
vt 0.713580 0.076948
vt 0.659121 0.051346
vt 0.620179 0.033874
vt 0.904463 0.232131
vt 0.915361 0.209207
vt 0.967171 0.263871
vt 0.972561 0.233560
vt 0.693450 0.210497
vt 0.679476 0.221163
vt 0.645306 0.156685
vt 0.633074 0.165428
vt 0.601212 0.113936
vt 0.579358 0.076416
vt 0.424570 0.783660
vt 0.384727 0.801604
vt 0.377494 0.790037
vt 0.398746 0.768839
vt 0.364297 0.777850
vt 0.441643 0.692073
vt 0.239761 0.866339
vt 0.258119 0.835239
vt 0.172300 0.840628
vt 0.388327 0.824809
vt 0.428876 0.643346
vt 0.128120 0.565622
vt 0.024024 0.741690
vt 0.023475 0.686024
vt 0.108482 0.830268
vt 0.174279 0.856688
vt 0.165274 0.870615
vt 0.101209 0.845396
vt 0.043112 0.822026
vt 0.114088 0.904270
vt 0.220579 0.892706
vt 0.048062 0.884073
vt 0.251639 0.925232
vt 0.266008 0.974512
vt 0.112139 0.962551
vt 0.091328 0.641856
vt 0.344685 0.594511
vt 0.377314 0.534220
vt 0.223121 0.877391
vt 0.284478 0.908109
vt 0.262988 0.918933
vt 0.374675 0.875422
vt 0.412294 0.844545
vt 0.433793 0.862707
vt 0.390638 0.899266
vt 0.138532 0.763197
vt 0.162396 0.744012
vt 0.031338 0.642867
vt 0.046419 0.576341
vt 0.122171 0.052337
vt 0.120749 0.109766
vt 0.056763 0.154125
vt 0.048676 0.068573
vt 0.164873 0.081802
vt 0.887755 0.958128
vt 0.848305 0.896381
vt 0.958639 0.856247
vt 0.134665 0.134890
vt 0.192195 0.439687
vt 0.127755 0.425936
vt 0.152293 0.384066
vt 0.226199 0.432140
vt 0.240550 0.446431
vt 0.110517 0.439661
vt 0.091964 0.413973
vt 0.085222 0.448791
vt 0.072119 0.448342
vt 0.076127 0.432265
vt 0.083275 0.184948
vt 0.372106 0.253976
vt 0.579680 0.422924
vt 0.501903 0.482945
vt 0.279951 0.271011
vt 0.032539 0.784854
vt 0.049067 0.953785
vt 0.446230 0.178482
vt 0.635451 0.368461
vt 0.130513 0.215387
vt 0.141709 0.226652
vt 0.089265 0.272082
vt 0.080658 0.255269
vt 0.173529 0.184864
vt 0.179619 0.203092
vt 0.204600 0.193255
vt 0.198684 0.169922
vt 0.244605 0.164298
vt 0.225020 0.145708
vt 0.272382 0.139122
vt 0.245218 0.124477
vt 0.306294 0.107333
vt 0.267011 0.102393
vt 0.303843 0.063466
vt 0.343028 0.067212
vt 0.304181 0.200534
vt 0.354344 0.153654
vt 0.485518 0.141485
vt 0.390096 0.111491
vt 0.425702 0.075391
vt 0.188561 0.210002
vt 0.146427 0.238247
vt 0.212038 0.198386
vt 0.253795 0.170499
vt 0.283186 0.145948
vt 0.318424 0.113556
vt 0.354509 0.074356
vt 0.369130 0.025532
vt 0.387533 0.037208
vt 0.627851 0.927534
vt 0.678561 0.894355
vt 0.715503 0.911894
vt 0.642600 0.964438
vt 0.693393 0.829023
vt 0.726667 0.825600
vt 0.529207 0.936681
vt 0.551735 0.907080
vt 0.607303 0.841737
vt 0.658597 0.773277
vt 0.592332 0.761425
vt 0.530781 0.827857
vt 0.505940 0.826646
vt 0.567142 0.753665
vt 0.677210 0.755812
vt 0.448187 0.544682
vt 0.193753 0.360328
vt 0.228952 0.309778
vt 0.976790 0.745854
vt 0.958198 0.778863
vt 0.832094 0.642093
vt 0.954339 0.790471
vt 0.768751 0.723392
vt 0.790307 0.682448
vt 0.982380 0.775055
vt 0.295927 0.503334
vt 0.223255 0.499634
vt 0.124960 0.500320
vt 0.478291 0.780641
vt 0.464549 0.814011
vt 0.174544 0.054361
vt 0.790733 0.814935
vt 0.049877 0.499817
vt 0.337811 0.928731
vt 0.317106 0.940817
vt 0.281211 0.971815
vt 0.339505 0.012744
vt 0.102946 0.281683
vt 0.878132 0.608622
vt 0.442657 0.609138
vt 0.418657 0.576552
vt 0.738347 0.175434
vt 0.755983 0.148835
vt 0.827474 0.204369
vt 0.804824 0.233358
vt 0.683299 0.126482
vt 0.698345 0.104137
vt 0.708037 0.200864
vt 0.658120 0.148421
vt 0.770590 0.265281
vt 0.611286 0.062559
vt 0.588225 0.044105
vt 0.617240 0.048420
vt 0.592959 0.070509
vt 0.641162 0.088983
vt 0.651999 0.069981
vt 0.618499 0.104594
vt 0.867395 0.290134
vt 0.894803 0.252237
vt 0.969284 0.296283
vt 0.928665 0.343428
vt 0.826287 0.327450
vt 0.881456 0.389191
vt 0.806585 0.340046
vt 0.845388 0.390873
vt 0.755566 0.276790
vt 0.785748 0.354310
vt 0.740002 0.289369
vt 0.819516 0.406892
vt 0.764052 0.133194
vt 0.705534 0.090463
vt 0.837765 0.186742
vt 0.773701 0.117410
vt 0.848740 0.167887
vt 0.713580 0.076948
vt 0.659121 0.051346
vt 0.620179 0.033874
vt 0.904463 0.232131
vt 0.915361 0.209207
vt 0.967171 0.263871
vt 0.972561 0.233560
vt 0.693450 0.210497
vt 0.679476 0.221163
vt 0.645306 0.156685
vt 0.633074 0.165428
vt 0.601212 0.113936
vt 0.579358 0.076416
vt 0.738347 0.175434
vt 0.755983 0.148835
vt 0.827474 0.204369
vt 0.804824 0.233358
vt 0.683299 0.126482
vt 0.698345 0.104137
vt 0.708037 0.200864
vt 0.658120 0.148421
vt 0.770590 0.265281
vt 0.611286 0.062559
vt 0.590692 0.042642
vt 0.617240 0.048420
vt 0.592959 0.070509
vt 0.641162 0.088983
vt 0.651999 0.069981
vt 0.618499 0.104594
vt 0.867395 0.290134
vt 0.894803 0.252237
vt 0.969284 0.296283
vt 0.928665 0.343428
vt 0.826287 0.327450
vt 0.881456 0.389191
vt 0.796167 0.347178
vt 0.832452 0.398882
vt 0.747784 0.283080
vt 0.764052 0.133194
vt 0.705534 0.090463
vt 0.837765 0.186742
vt 0.773701 0.117410
vt 0.848740 0.167887
vt 0.713580 0.076948
vt 0.659121 0.051346
vt 0.620179 0.033874
vt 0.904463 0.232131
vt 0.915361 0.209207
vt 0.967171 0.263871
vt 0.972561 0.233560
vt 0.686463 0.215830
vt 0.639190 0.161057
vt 0.601212 0.113936
vt 0.579358 0.076416
vt 0.198411 0.813364
vt 0.173229 0.823319
vt 0.182595 0.833602
vt 0.209865 0.822975
vt 0.205178 0.786810
vt 0.219703 0.786795
vt 0.111051 0.764372
vt 0.129668 0.721229
vt 0.073105 0.716543
vt 0.064598 0.764440
vt 0.161037 0.719285
vt 0.140597 0.801441
vt 0.115508 0.813009
vt 0.205810 0.730810
vt 0.194276 0.758566
vt 0.069294 0.800636
vt 0.167589 0.653659
vt 0.208784 0.668890
vt 0.235505 0.694854
vt 0.345002 0.837451
vt 0.363726 0.809286
vt 0.352616 0.775230
vt 0.332013 0.790641
vt 0.302027 0.828936
vt 0.256230 0.778432
vt 0.327957 0.775855
vt 0.315530 0.887836
vt 0.350932 0.679881
vt 0.366821 0.662582
vt 0.321263 0.648751
vt 0.323423 0.671205
vt 0.339430 0.699332
vt 0.324235 0.687529
vt 0.347928 0.703842
vt 0.370274 0.699526
vt 0.400523 0.688471
vt 0.294967 0.725793
vt 0.329048 0.710419
vt 0.290597 0.683591
vt 0.248587 0.731013
vt 0.294928 0.664588
vt 0.325427 0.755752
vt 0.348261 0.761081
vt 0.341587 0.742602
vt 0.313705 0.751707
vt 0.338524 0.726006
vt 0.283471 0.545706
vt 0.262735 0.607747
vt 0.308029 0.596953
vt 0.327321 0.558041
vt 0.207577 0.608186
vt 0.218857 0.550521
vt 0.314202 0.619293
vt 0.278353 0.636364
vt 0.361694 0.724540
vt 0.342882 0.709617
vt 0.373807 0.754525
vt 0.394661 0.719227
vt 0.388295 0.591657
vt 0.335509 0.620168
vt 0.738347 0.175434
vt 0.804824 0.233358
vt 0.827474 0.204369
vt 0.755983 0.148835
vt 0.683299 0.126482
vt 0.698345 0.104137
vt 0.658120 0.148421
vt 0.708037 0.200864
vt 0.770590 0.265281
vt 0.611286 0.062559
vt 0.617240 0.048420
vt 0.588472 0.044731
vt 0.592959 0.070509
vt 0.641162 0.088983
vt 0.651999 0.069981
vt 0.618499 0.104594
vt 0.867395 0.290134
vt 0.928665 0.343428
vt 0.969284 0.296283
vt 0.894803 0.252237
vt 0.826287 0.327450
vt 0.881456 0.389191
vt 0.806585 0.340046
vt 0.845388 0.390873
vt 0.755566 0.276790
vt 0.740002 0.289369
vt 0.785748 0.354310
vt 0.819516 0.406892
vt 0.764052 0.133194
vt 0.705534 0.090463
vt 0.837765 0.186742
vt 0.848740 0.167887
vt 0.773701 0.117410
vt 0.713580 0.076948
vt 0.659121 0.051346
vt 0.620179 0.033874
vt 0.904463 0.232131
vt 0.915361 0.209207
vt 0.967171 0.263871
vt 0.972561 0.233560
vt 0.693450 0.210497
vt 0.679476 0.221163
vt 0.645306 0.156685
vt 0.633074 0.165428
vt 0.601212 0.113936
vt 0.579358 0.076416
vt 0.424570 0.783660
vt 0.398746 0.768839
vt 0.377494 0.790037
vt 0.384727 0.801604
vt 0.364297 0.777850
vt 0.437968 0.693017
vt 0.239761 0.866339
vt 0.258119 0.835239
vt 0.172300 0.840628
vt 0.388327 0.824809
vt 0.428876 0.643346
vt 0.128120 0.565622
vt 0.023475 0.686024
vt 0.024024 0.741690
vt 0.108482 0.830268
vt 0.101209 0.845396
vt 0.165274 0.870615
vt 0.174279 0.856688
vt 0.043112 0.822026
vt 0.114088 0.904270
vt 0.220579 0.892706
vt 0.048062 0.884073
vt 0.251639 0.925232
vt 0.091328 0.641856
vt 0.344685 0.594511
vt 0.223121 0.877391
vt 0.262988 0.918933
vt 0.284478 0.908109
vt 0.374675 0.875422
vt 0.412294 0.844545
vt 0.138532 0.763197
vt 0.162396 0.744012
vt 0.031338 0.642867
vt 0.046419 0.576341
vt 0.056763 0.154125
vt 0.120749 0.109766
vt 0.164873 0.081802
vt 0.883971 0.956469
vt 0.958671 0.856207
vt 0.848305 0.896381
vt 0.134665 0.134890
vt 0.192195 0.439687
vt 0.139563 0.422975
vt 0.110517 0.439661
vt 0.085222 0.448791
vt 0.089499 0.160326
vt 0.372106 0.253976
vt 0.279951 0.271011
vt 0.501903 0.482945
vt 0.579680 0.422924
vt 0.032539 0.784854
vt 0.446236 0.178446
vt 0.130513 0.215387
vt 0.095373 0.267302
vt 0.138925 0.228957
vt 0.173529 0.184864
vt 0.179619 0.203092
vt 0.204600 0.193255
vt 0.198684 0.169922
vt 0.244605 0.164298
vt 0.225020 0.145708
vt 0.272382 0.139122
vt 0.245218 0.124477
vt 0.306294 0.107333
vt 0.267011 0.102393
vt 0.303843 0.063466
vt 0.343172 0.067381
vt 0.304181 0.200534
vt 0.354344 0.153654
vt 0.390105 0.111504
vt 0.146427 0.238247
vt 0.188561 0.210002
vt 0.212038 0.198386
vt 0.253795 0.170499
vt 0.283186 0.145948
vt 0.318424 0.113556
vt 0.353995 0.074170
vt 0.627851 0.927534
vt 0.642600 0.964438
vt 0.715503 0.911894
vt 0.678561 0.894355
vt 0.726667 0.825600
vt 0.693393 0.829023
vt 0.529207 0.936681
vt 0.551735 0.907080
vt 0.607303 0.841737
vt 0.658597 0.773277
vt 0.592332 0.761425
vt 0.567142 0.753665
vt 0.505940 0.826646
vt 0.530781 0.827857
vt 0.677210 0.755812
vt 0.228952 0.309778
vt 0.832094 0.642093
vt 0.958198 0.778863
vt 0.790307 0.682448
vt 0.478867 0.781682
vt 0.738347 0.175434
vt 0.804824 0.233358
vt 0.827474 0.204369
vt 0.755983 0.148835
vt 0.683299 0.126482
vt 0.698345 0.104137
vt 0.658120 0.148421
vt 0.708037 0.200864
vt 0.770590 0.265281
vt 0.611286 0.062559
vt 0.617240 0.048420
vt 0.588225 0.044105
vt 0.592959 0.070509
vt 0.641162 0.088983
vt 0.651999 0.069981
vt 0.618499 0.104594
vt 0.867395 0.290134
vt 0.928665 0.343428
vt 0.969284 0.296283
vt 0.894803 0.252237
vt 0.826287 0.327450
vt 0.881456 0.389191
vt 0.806585 0.340046
vt 0.845388 0.390873
vt 0.755566 0.276790
vt 0.740002 0.289369
vt 0.785748 0.354310
vt 0.819516 0.406892
vt 0.764052 0.133194
vt 0.705534 0.090463
vt 0.837765 0.186742
vt 0.848740 0.167887
vt 0.773701 0.117410
vt 0.713580 0.076948
vt 0.659121 0.051346
vt 0.620179 0.033874
vt 0.904463 0.232131
vt 0.915361 0.209207
vt 0.967171 0.263871
vt 0.972561 0.233560
vt 0.693450 0.210497
vt 0.679476 0.221163
vt 0.645306 0.156685
vt 0.633074 0.165428
vt 0.601212 0.113936
vt 0.579358 0.076416
vt 0.738347 0.175434
vt 0.804824 0.233358
vt 0.827474 0.204369
vt 0.755983 0.148835
vt 0.683299 0.126482
vt 0.698345 0.104137
vt 0.658120 0.148421
vt 0.708037 0.200864
vt 0.770590 0.265281
vt 0.611286 0.062559
vt 0.617240 0.048420
vt 0.590692 0.042642
vt 0.592959 0.070509
vt 0.641162 0.088983
vt 0.651999 0.069981
vt 0.618499 0.104594
vt 0.867395 0.290134
vt 0.928665 0.343428
vt 0.969284 0.296283
vt 0.894803 0.252237
vt 0.826287 0.327450
vt 0.881456 0.389191
vt 0.796167 0.347178
vt 0.832452 0.398882
vt 0.747784 0.283080
vt 0.764052 0.133194
vt 0.705534 0.090463
vt 0.837765 0.186742
vt 0.848740 0.167887
vt 0.773701 0.117410
vt 0.713580 0.076948
vt 0.659121 0.051346
vt 0.620179 0.033874
vt 0.904463 0.232131
vt 0.915361 0.209207
vt 0.967171 0.263871
vt 0.972561 0.233560
vt 0.686463 0.215830
vt 0.639190 0.161057
vt 0.601212 0.113936
vt 0.579358 0.076416
vn -0.59061 0.69588 -0.40857
vn -0.76312 0.63487 -0.12076
vn -0.75885 0.62383 -0.18700
vn -0.62535 0.76046 -0.17502
vn -0.85862 0.43895 -0.26477
vn -0.83655 0.54739 -0.02334
vn -0.90033 0.39093 -0.19126
vn -0.93768 0.22827 -0.26202
vn -0.99998 -0.00204 -0.00568
vn -0.97289 0.20681 0.10353
vn -0.95054 0.31061 -0.00174
vn -0.94947 0.25871 -0.17769
vn -0.75314 0.64490 0.12991
vn -0.94480 0.32037 -0.06864
vn -0.93981 0.34085 0.02408
vn -0.94115 0.20682 -0.26734
vn -0.82190 -0.45630 0.34099
vn -0.89058 -0.38572 0.24100
vn -0.96938 -0.21323 0.12180
vn -0.22678 0.93614 -0.26871
vn -0.79806 0.58580 -0.14121
vn -0.98745 0.14794 -0.05532
vn -0.32947 0.94363 -0.03190
vn -0.59500 0.79725 -0.10186
vn -0.87030 0.48866 -0.06150
vn -0.89648 0.42488 -0.12566
vn -0.17071 0.90509 -0.38945
vn 0.16949 -0.89320 -0.41648
vn -0.38398 -0.92047 0.07273
vn -0.63196 -0.61923 -0.46603
vn -0.12087 -0.73010 -0.67257
vn 0.47099 -0.86957 -0.14838
vn -0.41033 -0.75206 0.51578
vn 0.20507 -0.61647 -0.76021
vn 0.61399 -0.48945 -0.61924
vn 0.00184 -0.70316 -0.71103
vn -0.95058 0.20449 0.23361
vn -0.90224 -0.33140 0.27592
vn -0.87171 0.29006 0.39495
vn -0.99018 0.13694 0.02805
vn -0.87741 -0.47088 0.09184
vn -0.91600 0.31148 -0.25284
vn -0.55865 0.25632 -0.78881
vn -0.87717 -0.10273 -0.46905
vn -0.86075 0.48551 -0.15295
vn -0.44353 0.66793 -0.59763
vn -0.12427 -0.73910 0.66203
vn 0.50608 -0.86245 0.00851
vn -0.46371 -0.42979 0.77476
vn -0.58705 -0.54824 0.59566
vn -0.44557 -0.71581 0.53767
vn -0.18444 -0.76297 0.61956
vn -0.87681 -0.38672 0.28574
vn -0.97615 -0.13268 -0.17183
vn 0.03778 -0.26444 -0.96366
vn 0.40243 0.05194 -0.91398
vn -0.25995 -0.69314 -0.67230
vn -0.03066 -0.52175 -0.85254
vn -0.22117 -0.27805 -0.93476
vn 0.11487 -0.71779 -0.68672
vn -0.22318 0.97474 0.00883
vn 0.85382 0.44329 -0.27293
vn 0.77368 0.56807 -0.28056
vn -0.21296 0.97706 -0.00342
vn -0.23345 0.97233 0.00908
vn 0.83918 0.46461 -0.28269
vn -0.97939 0.00378 0.20195
vn -0.97787 -0.00849 0.20906
vn -0.95788 0.20423 0.20187
vn -0.13992 0.97326 -0.18217
vn -0.17913 0.16310 -0.97021
vn 0.85865 0.08336 -0.50574
vn -0.97626 -0.21662 0.00100
vn -0.24126 0.97046 0.00133
vn 0.87103 0.36051 -0.33368
vn -0.97479 -0.14582 0.16889
vn -0.24506 0.96951 -0.00127
vn 0.82094 0.43735 -0.36713
vn 0.60692 0.53915 -0.58392
vn -0.32947 0.94363 -0.03190
vn -0.97870 0.01671 0.20459
vn -0.98745 0.14794 -0.05532
vn -0.41442 -0.90755 0.06790
vn -0.48128 -0.85573 -0.19001
vn -0.55368 -0.82373 0.12211
vn 0.19299 -0.97444 -0.11501
vn 0.23214 -0.96929 -0.08121
vn 0.08650 -0.92677 -0.36553
vn 0.81702 -0.52495 -0.23855
vn 0.78751 -0.55311 -0.27182
vn 0.84056 -0.46479 -0.27825
vn 0.24739 -0.96526 -0.08409
vn 0.23214 -0.96929 -0.08121
vn 0.24484 -0.96151 -0.12470
vn 0.25712 -0.95267 -0.16218
vn 0.23716 -0.91189 -0.33497
vn 0.75028 -0.57877 -0.31955
vn 0.19299 -0.97444 -0.11501
vn 0.64282 -0.62378 -0.44462
vn 0.08650 -0.92677 -0.36553
vn -0.47356 -0.87565 0.09479
vn 0.24739 -0.96526 -0.08409
vn -0.42171 -0.90514 0.05371
vn 0.24484 -0.96151 -0.12470
vn 0.25712 -0.95267 -0.16218
vn 0.23716 -0.91189 -0.33497
vn 0.19408 -0.43147 -0.88100
vn 0.64282 -0.62378 -0.44462
vn 0.08650 -0.92677 -0.36553
vn 0.02330 -0.76356 -0.64532
vn -0.48128 -0.85573 -0.19001
vn -0.36055 -0.49798 -0.78868
vn -0.82441 0.36215 -0.43497
vn -0.64241 0.73889 -0.20335
vn -0.98003 -0.13670 -0.14439
vn 0.60692 0.53915 -0.58392
vn -0.28152 -0.89542 -0.34491
vn -0.24033 -0.83702 0.49157
vn -0.51801 -0.27620 -0.80956
vn 0.26248 -0.39681 -0.87957
vn -0.96862 0.19511 -0.15394
vn -0.97472 -0.15582 -0.16011
vn -0.68644 0.70244 -0.18811
vn -0.65717 0.71992 -0.22326
vn -0.79650 0.12532 -0.59151
vn -0.34877 0.89838 -0.26697
vn -0.61627 0.67697 -0.40240
vn -0.28103 -0.12548 -0.95146
vn -0.32965 0.79282 -0.51261
vn 0.00000 0.81829 -0.57481
vn 0.00000 0.94229 -0.33479
vn -0.74226 -0.57434 0.34523
vn 0.46791 -0.40765 -0.78414
vn -0.00000 -0.92365 -0.38323
vn -0.83401 0.01043 -0.55165
vn -0.34802 0.23231 -0.90825
vn -0.44299 -0.07373 -0.89349
vn 0.14080 0.85577 -0.49783
vn 0.35824 0.31650 -0.87835
vn 0.00000 0.37631 -0.92649
vn 0.00000 0.85796 -0.51371
vn -0.85840 0.45310 0.24051
vn -0.82564 0.56358 -0.02627
vn -0.30042 -0.55223 -0.77768
vn -0.10642 -0.78964 -0.60427
vn 0.00000 -0.99431 0.10652
vn -0.64365 -0.69249 -0.32585
vn -0.28152 -0.89542 -0.34491
vn -0.00000 -0.90593 -0.42342
vn 0.04333 0.06769 -0.99676
vn -0.36055 -0.49798 -0.78868
vn -0.49290 -0.84993 0.18620
vn -0.00000 0.04903 -0.99880
vn -0.03251 0.22992 -0.97267
vn -0.49290 -0.84993 0.18620
vn -0.36055 -0.49798 -0.78868
vn 0.00000 -0.85128 -0.52472
vn -0.00000 -0.72410 0.68970
vn -0.00000 -0.99713 -0.07572
vn -0.03251 0.22992 -0.97267
vn 0.00000 0.64524 -0.76398
vn 0.04333 0.06769 -0.99676
vn 0.00000 -0.01159 -0.99993
vn 0.00000 0.93444 -0.35613
vn -0.36055 -0.49798 -0.78868
vn -0.97344 0.22617 -0.03562
vn -0.89372 0.40708 -0.18852
vn -0.61094 -0.48226 0.62783
vn -0.89053 -0.22082 0.39773
vn 0.16467 -0.67915 -0.71529
vn 0.00000 -0.07020 -0.99753
vn -0.54930 0.71054 -0.43977
vn -0.00000 0.83124 -0.55592
vn -0.10642 -0.78964 -0.60427
vn -0.05702 -0.50112 -0.86350
vn 0.00368 -0.74723 -0.66456
vn 0.00103 -0.78204 -0.62323
vn -0.30042 -0.55223 -0.77768
vn -0.38095 -0.85324 -0.35617
vn -0.17978 -0.51488 -0.83820
vn 0.26248 -0.39681 -0.87957
vn -0.03568 -0.54212 -0.83955
vn -0.51801 -0.27620 -0.80956
vn -0.02686 -0.59271 -0.80497
vn 0.16467 -0.67915 -0.71529
vn 0.06143 -0.68712 -0.72394
vn -0.79650 0.12532 -0.59151
vn -0.28103 -0.12548 -0.95146
vn -0.05322 -0.64341 -0.76367
vn -0.96548 0.25694 -0.04271
vn -0.78806 0.53626 -0.30230
vn -0.00000 0.82865 -0.55977
vn -0.42526 0.76565 -0.48264
vn 0.00000 0.83540 -0.54965
vn -0.67847 -0.60430 0.41773
vn -0.25968 -0.84040 0.47571
vn -0.95494 -0.29678 -0.00429
vn -0.98037 -0.01762 -0.19640
vn -0.88119 0.11790 -0.45782
vn -0.73189 0.32767 -0.59747
vn -0.31215 0.38556 -0.86828
vn -0.00000 -0.46701 -0.88425
vn -0.00000 0.43653 -0.89969
vn -0.47829 0.87122 -0.11053
vn -0.71363 0.53396 -0.45346
vn -0.59061 0.69588 -0.40857
vn -0.62535 0.76046 -0.17502
vn -0.93995 0.18732 -0.28532
vn -0.85862 0.43895 -0.26477
vn -0.75314 0.64490 0.12991
vn -0.66890 0.60138 0.43693
vn -0.95351 0.29336 0.06906
vn -0.96633 0.25681 0.01601
vn -0.94435 0.23318 0.23202
vn -0.85046 0.15038 0.50409
vn -0.85840 0.45310 0.24051
vn -0.82564 0.56358 -0.02627
vn -0.94480 0.32037 -0.06864
vn -0.00000 -0.66579 0.74614
vn -0.00000 -0.66035 0.75096
vn -0.26523 -0.63414 0.72630
vn 0.00000 0.90896 -0.41688
vn -0.82025 0.06908 0.56782
vn -0.85541 0.47586 -0.20454
vn 0.00000 -0.24116 0.97048
vn 0.00000 -0.62467 0.78089
vn -0.82601 -0.28417 0.48679
vn -0.00000 0.68855 0.72519
vn 0.00000 -0.90743 0.42021
vn -0.00000 -0.77306 0.63434
vn -0.00000 -0.88199 0.47128
vn -0.00000 0.04903 -0.99880
vn 0.00000 -0.07549 -0.99715
vn 0.00000 -0.01159 -0.99993
vn -0.00000 -0.99713 -0.07572
vn 0.00103 -0.78204 -0.62323
vn 0.00000 0.88498 -0.46564
vn -0.00000 -0.41100 -0.91164
vn 0.00000 -0.18411 -0.98291
vn 0.00000 -0.07020 -0.99753
vn 0.00038 -0.78151 0.62389
vn -0.00000 0.81129 -0.58464
vn -0.00000 -0.90593 -0.42342
vn -0.00000 -0.83178 -0.55510
vn -0.77256 0.36457 0.51984
vn -0.24982 0.83224 -0.49494
vn -0.36885 0.83602 -0.40623
vn -0.77891 0.37027 0.50616
vn -0.77357 0.35529 0.52474
vn -0.27565 0.82968 -0.48544
vn -0.15747 -0.70507 0.69143
vn -0.14366 -0.70856 0.69087
vn -0.29829 -0.57793 0.75962
vn -0.87087 0.36904 0.32465
vn -0.75865 -0.33185 -0.56066
vn -0.11899 0.57329 -0.81067
vn -0.11943 -0.88467 0.45066
vn -0.77922 0.34588 0.52267
vn -0.22178 0.78241 -0.58194
vn -0.06695 -0.79347 0.60491
vn -0.78878 0.35651 0.50073
vn -0.31071 0.77857 -0.54523
vn -0.44353 0.66793 -0.59763
vn -0.87171 0.29006 0.39495
vn -0.16982 -0.70223 0.69140
vn -0.41033 -0.75206 0.51578
vn 0.59023 -0.80418 -0.07018
vn 0.47099 -0.86957 -0.14838
vn 0.52111 -0.85090 0.06643
vn 0.69175 -0.42356 -0.58487
vn 0.72641 -0.37568 -0.57548
vn 0.61399 -0.48945 -0.61924
vn 0.47048 0.28050 -0.83664
vn 0.46215 0.23221 -0.85586
vn 0.40859 0.32044 -0.85462
vn 0.72604 -0.36237 -0.58443
vn 0.72641 -0.37568 -0.57548
vn 0.69748 -0.37415 -0.61117
vn 0.67135 -0.37061 -0.64182
vn 0.54737 -0.40565 -0.73201
vn 0.44472 0.16582 -0.88018
vn 0.69175 -0.42356 -0.58487
vn 0.40243 0.05194 -0.91398
vn 0.61399 -0.48945 -0.61924
vn 0.56515 -0.82478 -0.01865
vn 0.72604 -0.36237 -0.58443
vn 0.57618 -0.81244 -0.08917
vn 0.69748 -0.37415 -0.61117
vn 0.67135 -0.37061 -0.64182
vn 0.54737 -0.40565 -0.73201
vn -0.46614 -0.04766 0.88343
vn -0.92657 0.31786 -0.20107
vn -0.95956 0.27435 -0.06298
vn -0.47988 -0.05132 0.87583
vn -0.45833 -0.05370 0.88716
vn -0.93588 0.30307 -0.17966
vn 0.75480 -0.41839 0.50520
vn 0.76121 -0.41265 0.50027
vn 0.60302 -0.39495 0.69309
vn -0.61633 -0.14996 0.77308
vn -0.56132 -0.81846 -0.12265
vn -0.84933 0.12662 -0.51246
vn 0.72917 -0.61091 0.30839
vn -0.45635 -0.06468 0.88745
vn -0.92117 0.27593 -0.27443
vn 0.79506 -0.45367 0.40256
vn -0.47728 -0.09586 0.87350
vn -0.95019 0.22244 -0.21833
vn -0.97615 -0.13268 -0.17183
vn -0.46371 -0.42979 0.77476
vn 0.73864 -0.46883 0.48437
vn 0.50608 -0.86245 0.00851
vn 0.61243 -0.20461 -0.76359
vn 0.46791 -0.40765 -0.78414
vn 0.68003 -0.12814 -0.72190
vn -0.16421 0.21209 -0.96335
vn -0.14206 0.17785 -0.97375
vn -0.28707 0.21760 -0.93287
vn 0.67704 -0.13000 -0.72438
vn 0.68003 -0.12814 -0.72190
vn 0.69442 -0.17048 -0.69908
vn 0.27069 -0.00043 -0.96267
vn 0.18253 -0.16627 -0.96904
vn -0.17712 0.10354 -0.97873
vn 0.61243 -0.20461 -0.76359
vn -0.22117 -0.27805 -0.93476
vn 0.46791 -0.40765 -0.78414
vn 0.67704 -0.13000 -0.72438
vn 0.69442 -0.17048 -0.69908
vn 0.27069 -0.00043 -0.96267
vn 0.18253 -0.16627 -0.96904
vn 0.59061 0.69588 -0.40857
vn 0.62535 0.76046 -0.17502
vn 0.75885 0.62383 -0.18700
vn 0.76312 0.63487 -0.12076
vn 0.85862 0.43895 -0.26478
vn 0.83655 0.54739 -0.02334
vn 0.90033 0.39093 -0.19126
vn 0.97289 0.20681 0.10353
vn 0.99998 -0.00204 -0.00568
vn 0.93768 0.22827 -0.26202
vn 0.95054 0.31061 -0.00174
vn 0.75314 0.64490 0.12991
vn 0.94947 0.25871 -0.17769
vn 0.93981 0.34085 0.02408
vn 0.94480 0.32037 -0.06864
vn 0.94115 0.20682 -0.26734
vn 0.82190 -0.45630 0.34099
vn 0.89058 -0.38572 0.24100
vn 0.96938 -0.21323 0.12180
vn 0.22678 0.93614 -0.26871
vn 0.32947 0.94363 -0.03190
vn 0.98745 0.14794 -0.05532
vn 0.79806 0.58580 -0.14121
vn 0.59500 0.79725 -0.10186
vn 0.87030 0.48866 -0.06150
vn 0.89648 0.42488 -0.12566
vn 0.17071 0.90509 -0.38945
vn -0.16949 -0.89320 -0.41648
vn 0.12087 -0.73010 -0.67257
vn 0.63196 -0.61923 -0.46603
vn 0.38398 -0.92047 0.07273
vn -0.47099 -0.86957 -0.14838
vn 0.41033 -0.75206 0.51578
vn -0.61399 -0.48945 -0.61924
vn -0.20507 -0.61647 -0.76021
vn -0.00184 -0.70316 -0.71103
vn 0.95059 0.20449 0.23361
vn 0.87171 0.29006 0.39495
vn 0.90224 -0.33140 0.27592
vn 0.99018 0.13694 0.02805
vn 0.87741 -0.47088 0.09184
vn 0.91600 0.31147 -0.25284
vn 0.87717 -0.10273 -0.46906
vn 0.55865 0.25632 -0.78881
vn 0.86075 0.48551 -0.15295
vn 0.44353 0.66793 -0.59763
vn 0.12427 -0.73910 0.66203
vn 0.58705 -0.54824 0.59566
vn 0.46371 -0.42979 0.77476
vn -0.50608 -0.86245 0.00851
vn 0.44557 -0.71581 0.53767
vn 0.18444 -0.76297 0.61956
vn 0.97615 -0.13268 -0.17183
vn 0.87681 -0.38672 0.28574
vn -0.03778 -0.26444 -0.96366
vn -0.40243 0.05194 -0.91398
vn 0.25995 -0.69314 -0.67230
vn 0.03066 -0.52175 -0.85255
vn -0.11487 -0.71779 -0.68672
vn 0.22117 -0.27805 -0.93476
vn 0.22318 0.97474 0.00883
vn 0.21296 0.97706 -0.00342
vn -0.77368 0.56807 -0.28056
vn -0.85382 0.44329 -0.27293
vn 0.23345 0.97233 0.00908
vn -0.83918 0.46461 -0.28269
vn 0.97787 -0.00849 0.20906
vn 0.97939 0.00378 0.20195
vn 0.95788 0.20423 0.20187
vn 0.13993 0.97326 -0.18217
vn -0.85865 0.08336 -0.50574
vn 0.17913 0.16310 -0.97021
vn 0.97625 -0.21662 0.00101
vn 0.24126 0.97046 0.00133
vn -0.87103 0.36051 -0.33368
vn 0.97479 -0.14582 0.16889
vn 0.24506 0.96951 -0.00127
vn 0.32947 0.94363 -0.03190
vn -0.60692 0.53915 -0.58392
vn -0.82094 0.43735 -0.36713
vn 0.97870 0.01670 0.20459
vn 0.98745 0.14794 -0.05532
vn 0.41442 -0.90755 0.06790
vn 0.48128 -0.85573 -0.19001
vn 0.55368 -0.82373 0.12211
vn -0.23214 -0.96929 -0.08121
vn -0.19299 -0.97444 -0.11501
vn -0.08650 -0.92677 -0.36553
vn -0.81702 -0.52495 -0.23855
vn -0.78751 -0.55311 -0.27182
vn -0.84056 -0.46479 -0.27825
vn -0.23214 -0.96929 -0.08121
vn -0.24740 -0.96526 -0.08409
vn -0.24484 -0.96151 -0.12470
vn -0.25713 -0.95267 -0.16218
vn -0.23716 -0.91189 -0.33497
vn -0.75028 -0.57877 -0.31955
vn -0.19299 -0.97444 -0.11501
vn -0.64282 -0.62378 -0.44462
vn -0.08650 -0.92677 -0.36553
vn 0.47356 -0.87564 0.09479
vn -0.24740 -0.96526 -0.08409
vn 0.42171 -0.90514 0.05371
vn -0.24484 -0.96151 -0.12470
vn -0.25713 -0.95267 -0.16218
vn -0.23716 -0.91189 -0.33497
vn -0.19408 -0.43147 -0.88100
vn -0.02330 -0.76356 -0.64532
vn -0.08650 -0.92677 -0.36553
vn -0.64282 -0.62378 -0.44462
vn 0.48128 -0.85573 -0.19001
vn 0.36055 -0.49798 -0.78868
vn 0.82441 0.36215 -0.43497
vn 0.64241 0.73889 -0.20335
vn 0.98003 -0.13670 -0.14439
vn -0.60692 0.53915 -0.58392
vn 0.28152 -0.89542 -0.34491
vn 0.24033 -0.83702 0.49157
vn -0.26248 -0.39681 -0.87957
vn 0.51801 -0.27620 -0.80956
vn 0.96862 0.19511 -0.15394
vn 0.65717 0.71992 -0.22326
vn 0.68644 0.70244 -0.18811
vn 0.97472 -0.15582 -0.16011
vn 0.79650 0.12532 -0.59151
vn 0.34877 0.89838 -0.26697
vn 0.61627 0.67697 -0.40240
vn 0.28103 -0.12548 -0.95146
vn 0.32965 0.79282 -0.51261
vn 0.74226 -0.57434 0.34524
vn -0.46791 -0.40765 -0.78414
vn 0.83401 0.01043 -0.55165
vn 0.44299 -0.07373 -0.89349
vn 0.34802 0.23231 -0.90825
vn -0.14080 0.85577 -0.49783
vn -0.35824 0.31650 -0.87835
vn 0.85840 0.45310 0.24051
vn 0.82564 0.56358 -0.02627
vn 0.30389 -0.54542 -0.78113
vn 0.10066 -0.78974 -0.60513
vn 0.28152 -0.89542 -0.34491
vn 0.64365 -0.69249 -0.32585
vn -0.04333 0.06769 -0.99676
vn 0.36055 -0.49798 -0.78868
vn -0.00000 0.04903 -0.99880
vn 0.49290 -0.84993 0.18620
vn 0.03251 0.22992 -0.97267
vn 0.49290 -0.84993 0.18620
vn 0.36055 -0.49798 -0.78868
vn 0.03251 0.22992 -0.97267
vn -0.04333 0.06769 -0.99676
vn 0.36055 -0.49798 -0.78868
vn 0.97344 0.22617 -0.03562
vn 0.89053 -0.22082 0.39773
vn 0.61094 -0.48226 0.62783
vn 0.89372 0.40708 -0.18852
vn -0.16467 -0.67915 -0.71529
vn 0.54930 0.71054 -0.43977
vn 0.10066 -0.78974 -0.60513
vn 0.00368 -0.74723 -0.66456
vn 0.04735 -0.46775 -0.88259
vn 0.30389 -0.54542 -0.78113
vn 0.34405 -0.82427 -0.44968
vn 0.17978 -0.51488 -0.83820
vn -0.26248 -0.39681 -0.87957
vn 0.03568 -0.54212 -0.83955
vn 0.51801 -0.27620 -0.80956
vn 0.02686 -0.59271 -0.80497
vn -0.16467 -0.67915 -0.71529
vn -0.06143 -0.68712 -0.72394
vn 0.79650 0.12532 -0.59151
vn 0.28103 -0.12548 -0.95146
vn 0.05322 -0.64341 -0.76367
vn 0.96548 0.25694 -0.04271
vn 0.78806 0.53626 -0.30230
vn 0.42526 0.76565 -0.48264
vn 0.26130 -0.86100 0.43635
vn 0.67847 -0.60430 0.41773
vn 0.95494 -0.29678 -0.00429
vn 0.98037 -0.01763 -0.19640
vn 0.88119 0.11790 -0.45781
vn 0.73189 0.32767 -0.59747
vn 0.31215 0.38556 -0.86828
vn 0.47829 0.87122 -0.11053
vn 0.62535 0.76046 -0.17502
vn 0.59061 0.69588 -0.40857
vn 0.71363 0.53396 -0.45346
vn 0.85862 0.43895 -0.26478
vn 0.93995 0.18732 -0.28532
vn 0.75314 0.64490 0.12991
vn 0.66890 0.60138 0.43693
vn 0.95351 0.29336 0.06906
vn 0.96633 0.25681 0.01601
vn 0.94435 0.23318 0.23202
vn 0.82564 0.56358 -0.02627
vn 0.85840 0.45310 0.24051
vn 0.85046 0.15038 0.50409
vn 0.94480 0.32037 -0.06864
vn 0.26523 -0.63414 0.72630
vn 0.85541 0.47586 -0.20454
vn 0.82025 0.06908 0.56782
vn 0.82601 -0.28417 0.48679
vn -0.00000 0.04903 -0.99880
vn 0.77256 0.36457 0.51984
vn 0.77891 0.37027 0.50616
vn 0.36885 0.83602 -0.40623
vn 0.24982 0.83224 -0.49494
vn 0.77357 0.35529 0.52474
vn 0.27565 0.82968 -0.48544
vn 0.14367 -0.70856 0.69087
vn 0.15747 -0.70507 0.69143
vn 0.29829 -0.57793 0.75962
vn 0.87087 0.36904 0.32465
vn 0.11899 0.57329 -0.81067
vn 0.75865 -0.33185 -0.56065
vn 0.11944 -0.88467 0.45066
vn 0.77922 0.34588 0.52267
vn 0.22178 0.78241 -0.58194
vn 0.06695 -0.79347 0.60491
vn 0.78878 0.35651 0.50074
vn 0.87171 0.29006 0.39495
vn 0.44353 0.66793 -0.59763
vn 0.31071 0.77857 -0.54523
vn 0.16982 -0.70223 0.69140
vn 0.41033 -0.75206 0.51578
vn -0.59023 -0.80418 -0.07018
vn -0.47099 -0.86957 -0.14838
vn -0.52111 -0.85090 0.06643
vn -0.72641 -0.37568 -0.57549
vn -0.69175 -0.42356 -0.58487
vn -0.61399 -0.48945 -0.61924
vn -0.47048 0.28050 -0.83664
vn -0.46215 0.23221 -0.85586
vn -0.40859 0.32044 -0.85462
vn -0.72641 -0.37568 -0.57549
vn -0.72604 -0.36237 -0.58443
vn -0.69748 -0.37415 -0.61117
vn -0.67136 -0.37061 -0.64182
vn -0.54738 -0.40565 -0.73201
vn -0.44472 0.16582 -0.88018
vn -0.69175 -0.42356 -0.58487
vn -0.40243 0.05194 -0.91398
vn -0.61399 -0.48945 -0.61924
vn -0.56515 -0.82478 -0.01865
vn -0.72604 -0.36237 -0.58443
vn -0.57618 -0.81244 -0.08917
vn -0.69748 -0.37415 -0.61117
vn -0.67136 -0.37061 -0.64182
vn -0.54738 -0.40565 -0.73201
vn 0.46614 -0.04766 0.88343
vn 0.47988 -0.05132 0.87583
vn 0.95956 0.27435 -0.06298
vn 0.92657 0.31786 -0.20107
vn 0.45833 -0.05370 0.88716
vn 0.93588 0.30307 -0.17966
vn -0.76121 -0.41265 0.50027
vn -0.75480 -0.41839 0.50520
vn -0.60302 -0.39495 0.69309
vn 0.61633 -0.14996 0.77308
vn 0.84933 0.12662 -0.51246
vn 0.56132 -0.81846 -0.12265
vn -0.72917 -0.61091 0.30839
vn 0.45635 -0.06468 0.88745
vn 0.92117 0.27593 -0.27443
vn -0.79506 -0.45367 0.40256
vn 0.47728 -0.09586 0.87350
vn 0.46371 -0.42979 0.77476
vn 0.97615 -0.13268 -0.17183
vn 0.95019 0.22244 -0.21833
vn -0.73864 -0.46883 0.48437
vn -0.50608 -0.86245 0.00851
vn -0.61243 -0.20461 -0.76359
vn -0.46791 -0.40765 -0.78414
vn -0.68003 -0.12814 -0.72190
vn 0.16421 0.21209 -0.96335
vn 0.14206 0.17785 -0.97375
vn 0.28707 0.21760 -0.93286
vn -0.68003 -0.12814 -0.72190
vn -0.67704 -0.13000 -0.72438
vn -0.69442 -0.17048 -0.69908
vn -0.27069 -0.00044 -0.96267
vn -0.18253 -0.16627 -0.96904
vn 0.17712 0.10354 -0.97873
vn -0.61243 -0.20461 -0.76359
vn 0.22117 -0.27805 -0.93476
vn -0.46791 -0.40765 -0.78414
vn -0.67704 -0.13000 -0.72438
vn -0.69442 -0.17048 -0.69908
vn -0.27069 -0.00044 -0.96267
vn -0.18253 -0.16627 -0.96904
f 164/164/164 161/161/161 162/162/162
f 162/162/162 163/163/163 164/164/164
f 482/482/482 164/164/164 163/163/163
f 297/297/297 291/291/291 294/294/294
f 298/298/298 295/295/295 291/291/291
f 291/291/291 297/297/297 298/298/298
f 292/292/292 291/291/291 295/295/295
f 293/293/293 294/294/294 291/291/291
f 291/291/291 292/292/292 293/293/293
f 298/298/298 297/297/297 328/328/328
f 315/315/315 328/328/328 297/297/297
f 297/297/297 299/299/299 315/315/315
f 294/294/294 299/299/299 297/297/297
f 299/299/299 294/294/294 307/307/307
f 308/308/308 307/307/307 294/294/294
f 294/294/294 293/293/293 308/308/308
f 582/582/582 581/581/581 588/588/588
f 587/587/587 588/588/588 581/581/581
f 581/581/581 585/585/585 587/587/587
f 585/585/585 581/581/581 584/584/584
f 583/583/583 584/584/584 581/581/581
f 581/581/581 582/582/582 583/583/583
f 597/597/597 582/582/582 589/589/589
f 600/600/600 583/583/583 582/582/582
f 582/582/582 597/597/597 600/600/600
f 588/588/588 589/589/589 582/582/582
f 618/618/618 588/588/588 587/587/587
f 605/605/605 589/589/589 588/588/588
f 588/588/588 618/618/618 605/605/605
f 251/251/251 245/245/245 248/248/248
f 252/252/252 249/249/249 245/245/245
f 245/245/245 251/251/251 252/252/252
f 246/246/246 245/245/245 249/249/249
f 247/247/247 248/248/248 245/245/245
f 245/245/245 246/246/246 247/247/247
f 252/252/252 251/251/251 285/285/285
f 269/269/269 285/285/285 251/251/251
f 251/251/251 253/253/253 269/269/269
f 248/248/248 253/253/253 251/251/251
f 253/253/253 248/248/248 261/261/261
f 262/262/262 261/261/261 248/248/248
f 248/248/248 247/247/247 262/262/262
f 536/536/536 535/535/535 542/542/542
f 541/541/541 542/542/542 535/535/535
f 535/535/535 539/539/539 541/541/541
f 539/539/539 535/535/535 538/538/538
f 537/537/537 538/538/538 535/535/535
f 535/535/535 536/536/536 537/537/537
f 551/551/551 536/536/536 543/543/543
f 554/554/554 537/537/537 536/536/536
f 536/536/536 551/551/551 554/554/554
f 542/542/542 543/543/543 536/536/536
f 575/575/575 542/542/542 541/541/541
f 559/559/559 543/543/543 542/542/542
f 542/542/542 575/575/575 559/559/559
f 67/67/67 61/61/61 64/64/64
f 68/68/68 65/65/65 61/61/61
f 61/61/61 67/67/67 68/68/68
f 62/62/62 61/61/61 65/65/65
f 63/63/63 64/64/64 61/61/61
f 61/61/61 62/62/62 63/63/63
f 68/68/68 67/67/67 101/101/101
f 85/85/85 101/101/101 67/67/67
f 67/67/67 69/69/69 85/85/85
f 64/64/64 69/69/69 67/67/67
f 69/69/69 64/64/64 77/77/77
f 78/78/78 77/77/77 64/64/64
f 64/64/64 63/63/63 78/78/78
f 393/393/393 392/392/392 399/399/399
f 398/398/398 399/399/399 392/392/392
f 392/392/392 396/396/396 398/398/398
f 396/396/396 392/392/392 395/395/395
f 394/394/394 395/395/395 392/392/392
f 392/392/392 393/393/393 394/394/394
f 408/408/408 393/393/393 400/400/400
f 411/411/411 394/394/394 393/393/393
f 393/393/393 408/408/408 411/411/411
f 399/399/399 400/400/400 393/393/393
f 432/432/432 399/399/399 398/398/398
f 416/416/416 400/400/400 399/399/399
f 399/399/399 432/432/432 416/416/416
f 182/182/182 198/198/198 197/197/197
f 197/197/197 180/180/180 182/182/182
f 181/181/181 183/183/183 182/182/182
f 182/182/182 180/180/180 181/181/181
f 178/178/178 181/181/181 180/180/180
f 180/180/180 179/179/179 178/178/178
f 175/175/175 174/174/174 178/178/178
f 178/178/178 179/179/179 175/175/175
f 174/174/174 175/175/175 176/176/176
f 176/176/176 177/177/177 174/174/174
f 211/211/211 212/212/212 204/204/204
f 204/204/204 212/212/212 205/205/205
f 204/204/204 207/207/207 210/210/210
f 210/210/210 211/211/211 204/204/204
f 206/206/206 207/207/207 204/204/204
f 204/204/204 205/205/205 206/206/206
f 215/215/215 212/212/212 211/211/211
f 211/211/211 210/210/210 216/216/216
f 216/216/216 215/215/215 211/211/211
f 214/214/214 212/212/212 215/215/215
f 214/214/214 215/215/215 216/216/216
f 216/216/216 217/217/217 214/214/214
f 213/213/213 214/214/214 217/217/217
f 522/522/522 515/515/515 523/523/523
f 515/515/515 518/518/518 523/523/523
f 515/515/515 522/522/522 521/521/521
f 521/521/521 516/516/516 515/515/515
f 517/517/517 518/518/518 515/515/515
f 515/515/515 516/516/516 517/517/517
f 528/528/528 522/522/522 523/523/523
f 522/522/522 528/528/528 527/527/527
f 527/527/527 521/521/521 522/522/522
f 525/525/525 528/528/528 523/523/523
f 527/527/527 528/528/528 525/525/525
f 525/525/525 526/526/526 527/527/527
f 526/526/526 525/525/525 524/524/524
f 2/2/2 1/1/1 5/5/5
f 3/3/3 4/4/4 1/1/1
f 1/1/1 2/2/2 3/3/3
f 114/114/114 2/2/2 6/6/6
f 2/2/2 114/114/114 113/113/113
f 113/113/113 3/3/3 2/2/2
f 5/5/5 6/6/6 2/2/2
f 15/15/15 6/6/6 5/5/5
f 5/5/5 14/14/14 15/15/15
f 25/25/25 6/6/6 15/15/15
f 6/6/6 25/25/25 114/114/114
f 25/25/25 24/24/24 114/114/114
f 114/114/114 24/24/24 27/27/27
f 513/513/513 514/514/514 504/504/504
f 504/504/504 501/501/501 513/513/513
f 503/503/503 501/501/501 504/504/504
f 503/503/503 502/502/502 501/501/501
f 501/501/501 502/502/502 500/500/500
f 504/504/504 202/202/202 240/240/240
f 240/240/240 503/503/503 504/504/504
f 202/202/202 504/504/504 514/514/514
f 514/514/514 194/194/194 203/203/203
f 507/507/507 194/194/194 514/514/514
f 514/514/514 203/203/203 202/202/202
f 240/240/240 202/202/202 189/189/189
f 202/202/202 203/203/203 201/201/201
f 201/201/201 189/189/189 202/202/202
f 189/189/189 188/188/188 240/240/240
f 200/200/200 186/186/186 189/189/189
f 189/189/189 201/201/201 200/200/200
f 188/188/188 189/189/189 186/186/186
f 201/201/201 203/203/203 194/194/194
f 193/193/193 201/201/201 194/194/194
f 200/200/200 201/201/201 193/193/193
f 199/199/199 184/184/184 186/186/186
f 186/186/186 200/200/200 199/199/199
f 188/188/188 186/186/186 187/187/187
f 185/185/185 187/187/187 186/186/186
f 186/186/186 184/184/184 185/185/185
f 190/190/190 199/199/199 200/200/200
f 190/190/190 198/198/198 199/199/199
f 184/184/184 199/199/199 198/198/198
f 198/198/198 182/182/182 184/184/184
f 183/183/183 185/185/185 184/184/184
f 184/184/184 182/182/182 183/183/183
f 412/412/412 400/400/400 416/416/416
f 400/400/400 412/412/412 408/408/408
f 409/409/409 408/408/408 412/412/412
f 410/410/410 411/411/411 408/408/408
f 408/408/408 409/409/409 410/410/410
f 428/428/428 411/411/411 410/410/410
f 422/422/422 394/394/394 411/411/411
f 411/411/411 428/428/428 422/422/422
f 395/395/395 394/394/394 422/422/422
f 423/423/423 422/422/422 428/428/428
f 420/420/420 422/422/422 423/423/423
f 422/422/422 420/420/420 395/395/395
f 429/429/429 428/428/428 430/430/430
f 410/410/410 430/430/430 428/428/428
f 428/428/428 429/429/429 423/423/423
f 423/423/423 424/424/424 420/420/420
f 421/421/421 420/420/420 424/424/424
f 397/397/397 395/395/395 420/420/420
f 420/420/420 421/421/421 397/397/397
f 395/395/395 397/397/397 396/396/396
f 406/406/406 397/397/397 421/421/421
f 397/397/397 406/406/406 405/405/405
f 405/405/405 396/396/396 397/397/397
f 47/47/47 48/48/48 49/49/49
f 50/50/50 18/18/18 51/51/51
f 53/53/53 50/50/50 49/49/49
f 18/18/18 50/50/50 53/53/53
f 49/49/49 54/54/54 53/53/53
f 231/231/231 236/236/236 471/471/471
f 471/471/471 449/449/449 231/231/231
f 145/145/145 236/236/236 231/231/231
f 449/449/449 471/471/471 470/470/470
f 470/470/470 461/461/461 449/449/449
f 449/449/449 461/461/461 348/348/348
f 340/340/340 461/461/461 470/470/470
f 470/470/470 450/450/450 340/340/340
f 461/461/461 340/340/340 348/348/348
f 339/339/339 348/348/348 340/340/340
f 348/348/348 339/339/339 342/342/342
f 340/340/340 451/451/451 341/341/341
f 340/340/340 450/450/450 451/451/451
f 340/340/340 341/341/341 338/338/338
f 338/338/338 339/339/339 340/340/340
f 338/338/338 342/342/342 339/339/339
f 342/342/342 469/469/469 345/345/345
f 342/342/342 338/338/338 468/468/468
f 468/468/468 469/469/469 342/342/342
f 338/338/338 344/344/344 343/343/343
f 343/343/343 468/468/468 338/338/338
f 338/338/338 341/341/341 347/347/347
f 347/347/347 344/344/344 338/338/338
f 347/347/347 341/341/341 451/451/451
f 451/451/451 488/488/488 347/347/347
f 488/488/488 456/456/456 347/347/347
f 452/452/452 347/347/347 456/456/456
f 347/347/347 452/452/452 344/344/344
f 344/344/344 446/446/446 334/334/334
f 344/344/344 452/452/452 446/446/446
f 344/344/344 334/334/334 333/333/333
f 222/222/222 532/532/532 228/228/228
f 226/226/226 225/225/225 532/532/532
f 222/222/222 228/228/228 223/223/223
f 222/222/222 223/223/223 224/224/224
f 225/225/225 223/223/223 228/228/228
f 223/223/223 225/225/225 226/226/226
f 223/223/223 227/227/227 224/224/224
f 226/226/226 227/227/227 223/223/223
f 486/486/486 219/219/219 226/226/226
f 226/226/226 219/219/219 168/168/168
f 168/168/168 227/227/227 226/226/226
f 530/530/530 486/486/486 485/485/485
f 220/220/220 219/219/219 486/486/486
f 486/486/486 530/530/530 220/220/220
f 484/484/484 485/485/485 486/486/486
f 168/168/168 219/219/219 220/220/220
f 221/221/221 169/169/169 168/168/168
f 220/220/220 221/221/221 168/168/168
f 241/241/241 220/220/220 530/530/530
f 221/221/221 220/220/220 241/241/241
f 241/241/241 196/196/196 221/221/221
f 195/195/195 169/169/169 221/221/221
f 221/221/221 196/196/196 195/195/195
f 198/198/198 190/190/190 169/169/169
f 169/169/169 197/197/197 198/198/198
f 169/169/169 195/195/195 197/197/197
f 195/195/195 179/179/179 180/180/180
f 180/180/180 197/197/197 195/195/195
f 179/179/179 195/195/195 196/196/196
f 196/196/196 241/241/241 176/176/176
f 176/176/176 175/175/175 196/196/196
f 196/196/196 175/175/175 179/179/179
f 530/530/530 508/508/508 241/241/241
f 491/491/491 241/241/241 508/508/508
f 509/509/509 508/508/508 530/530/530
f 530/530/530 485/485/485 509/509/509
f 508/508/508 492/492/492 491/491/491
f 508/508/508 509/509/509 494/494/494
f 494/494/494 492/492/492 508/508/508
f 491/491/491 492/492/492 490/490/490
f 490/490/490 177/177/177 491/491/491
f 492/492/492 494/494/494 493/493/493
f 493/493/493 490/490/490 492/492/492
f 495/495/495 494/494/494 509/509/509
f 493/493/493 494/494/494 495/495/495
f 485/485/485 510/510/510 509/509/509
f 509/509/509 510/510/510 495/495/495
f 497/497/497 495/495/495 510/510/510
f 496/496/496 495/495/495 497/497/497
f 495/495/495 496/496/496 493/493/493
f 511/511/511 510/510/510 485/485/485
f 510/510/510 511/511/511 497/497/497
f 499/499/499 497/497/497 511/511/511
f 498/498/498 497/497/497 499/499/499
f 497/497/497 498/498/498 496/496/496
f 505/505/505 512/512/512 511/511/511
f 485/485/485 505/505/505 511/511/511
f 511/511/511 512/512/512 499/499/499
f 501/501/501 499/499/499 512/512/512
f 500/500/500 499/499/499 501/501/501
f 499/499/499 500/500/500 498/498/498
f 513/513/513 512/512/512 505/505/505
f 512/512/512 513/513/513 501/501/501
f 505/505/505 506/506/506 513/513/513
f 484/484/484 506/506/506 505/505/505
f 485/485/485 484/484/484 505/505/505
f 507/507/507 514/514/514 513/513/513
f 513/513/513 506/506/506 507/507/507
f 12/12/12 115/115/115 121/121/121
f 4/4/4 3/3/3 12/12/12
f 13/13/13 12/12/12 7/7/7
f 16/16/16 12/12/12 121/121/121
f 7/7/7 12/12/12 16/16/16
f 12/12/12 13/13/13 4/4/4
f 125/125/125 16/16/16 121/121/121
f 121/121/121 124/124/124 125/125/125
f 123/123/123 124/124/124 121/121/121
f 126/126/126 124/124/124 123/123/123
f 126/126/126 123/123/123 127/127/127
f 124/124/124 126/126/126 128/128/128
f 128/128/128 125/125/125 124/124/124
f 170/170/170 16/16/16 125/125/125
f 16/16/16 170/170/170 119/119/119
f 119/119/119 8/8/8 16/16/16
f 16/16/16 8/8/8 7/7/7
f 9/9/9 8/8/8 119/119/119
f 9/9/9 119/119/119 120/120/120
f 7/7/7 8/8/8 9/9/9
f 9/9/9 120/120/120 144/144/144
f 144/144/144 132/132/132 9/9/9
f 132/132/132 17/17/17 9/9/9
f 10/10/10 9/9/9 17/17/17
f 9/9/9 10/10/10 7/7/7
f 118/118/118 132/132/132 144/144/144
f 144/144/144 145/145/145 118/118/118
f 601/601/601 602/602/602 598/598/598
f 605/605/605 603/603/603 601/601/601
f 602/602/602 601/601/601 603/603/603
f 603/603/603 604/604/604 602/602/602
f 166/166/166 191/191/191 172/172/172
f 166/166/166 190/190/190 191/191/191
f 169/169/169 190/190/190 166/166/166
f 167/167/167 166/166/166 172/172/172
f 168/168/168 169/169/169 166/166/166
f 166/166/166 167/167/167 168/168/168
f 191/191/191 193/193/193 172/172/172
f 193/193/193 191/191/191 200/200/200
f 200/200/200 191/191/191 190/190/190
f 172/172/172 192/192/192 173/173/173
f 192/192/192 172/172/172 193/193/193
f 172/172/172 173/173/173 167/167/167
f 227/227/227 168/168/168 167/167/167
f 333/333/333 343/343/343 344/344/344
f 456/456/456 453/453/453 452/452/452
f 455/455/455 446/446/446 452/452/452
f 454/454/454 455/455/455 452/452/452
f 452/452/452 453/453/453 454/454/454
f 453/453/453 456/456/456 459/459/459
f 457/457/457 454/454/454 453/453/453
f 459/459/459 457/457/457 453/453/453
f 454/454/454 458/458/458 463/463/463
f 463/463/463 455/455/455 454/454/454
f 457/457/457 458/458/458 454/454/454
f 444/444/444 446/446/446 455/455/455
f 455/455/455 463/463/463 444/444/444
f 444/444/444 334/334/334 446/446/446
f 358/358/358 444/444/444 465/465/465
f 465/465/465 444/444/444 463/463/463
f 445/445/445 444/444/444 358/358/358
f 335/335/335 334/334/334 444/444/444
f 444/444/444 445/445/445 335/335/335
f 464/464/464 463/463/463 458/458/458
f 463/463/463 464/464/464 465/465/465
f 458/458/458 460/460/460 464/464/464
f 373/373/373 357/357/357 374/374/374
f 356/356/356 445/445/445 355/355/355
f 345/345/345 337/337/337 356/356/356
f 356/356/356 371/371/371 345/345/345
f 445/445/445 356/356/356 337/337/337
f 368/368/368 371/371/371 356/356/356
f 356/356/356 355/355/355 357/357/357
f 371/371/371 368/368/368 370/370/370
f 364/364/364 370/370/370 368/368/368
f 368/368/368 369/369/369 364/364/364
f 371/371/371 350/350/350 345/345/345
f 370/370/370 350/350/350 371/371/371
f 362/362/362 370/370/370 364/364/364
f 350/350/350 370/370/370 372/372/372
f 370/370/370 362/362/362 372/372/372
f 362/362/362 364/364/364 363/363/363
f 350/350/350 372/372/372 385/385/385
f 384/384/384 385/385/385 372/372/372
f 385/385/385 349/349/349 350/350/350
f 345/345/345 350/350/350 349/349/349
f 385/385/385 384/384/384 380/380/380
f 380/380/380 379/379/379 385/385/385
f 349/349/349 385/385/385 379/379/379
f 382/382/382 348/348/348 349/349/349
f 379/379/379 382/382/382 349/349/349
f 349/349/349 342/342/342 345/345/345
f 342/342/342 349/349/349 348/348/348
f 382/382/382 379/379/379 378/378/378
f 555/555/555 543/543/543 559/559/559
f 543/543/543 555/555/555 551/551/551
f 552/552/552 551/551/551 555/555/555
f 553/553/553 554/554/554 551/551/551
f 551/551/551 552/552/552 553/553/553
f 571/571/571 554/554/554 553/553/553
f 565/565/565 537/537/537 554/554/554
f 554/554/554 571/571/571 565/565/565
f 538/538/538 537/537/537 565/565/565
f 566/566/566 565/565/565 571/571/571
f 563/563/563 565/565/565 566/566/566
f 565/565/565 563/563/563 538/538/538
f 572/572/572 571/571/571 573/573/573
f 553/553/553 573/573/573 571/571/571
f 571/571/571 572/572/572 566/566/566
f 566/566/566 567/567/567 563/563/563
f 564/564/564 563/563/563 567/567/567
f 540/540/540 538/538/538 563/563/563
f 563/563/563 564/564/564 540/540/540
f 538/538/538 540/540/540 539/539/539
f 549/549/549 540/540/540 564/564/564
f 540/540/540 549/549/549 548/548/548
f 548/548/548 539/539/539 540/540/540
f 378/378/378 379/379/379 380/380/380
f 380/380/380 381/381/381 378/378/378
f 230/230/230 383/383/383 378/378/378
f 378/378/378 229/229/229 230/230/230
f 229/229/229 378/378/378 381/381/381
f 378/378/378 383/383/383 382/382/382
f 348/348/348 382/382/382 449/449/449
f 383/383/383 449/449/449 382/382/382
f 449/449/449 383/383/383 230/230/230
f 230/230/230 231/231/231 449/449/449
f 230/230/230 229/229/229 47/47/47
f 47/47/47 52/52/52 230/230/230
f 381/381/381 134/134/134 229/229/229
f 229/229/229 134/134/134 48/48/48
f 48/48/48 47/47/47 229/229/229
f 47/47/47 50/50/50 51/51/51
f 51/51/51 52/52/52 47/47/47
f 49/49/49 50/50/50 47/47/47
f 430/430/430 431/431/431 429/429/429
f 17/17/17 132/132/132 118/118/118
f 231/231/231 118/118/118 145/145/145
f 118/118/118 231/231/231 230/230/230
f 230/230/230 52/52/52 118/118/118
f 118/118/118 51/51/51 17/17/17
f 52/52/52 51/51/51 118/118/118
f 51/51/51 18/18/18 17/17/17
f 11/11/11 10/10/10 17/17/17
f 17/17/17 18/18/18 11/11/11
f 7/7/7 10/10/10 11/11/11
f 11/11/11 15/15/15 143/143/143
f 11/11/11 143/143/143 142/142/142
f 142/142/142 7/7/7 11/11/11
f 15/15/15 11/11/11 18/18/18
f 7/7/7 142/142/142 13/13/13
f 14/14/14 143/143/143 15/15/15
f 40/40/40 15/15/15 19/19/19
f 18/18/18 19/19/19 15/15/15
f 38/38/38 37/37/37 40/40/40
f 40/40/40 19/19/19 38/38/38
f 53/53/53 41/41/41 19/19/19
f 19/19/19 18/18/18 53/53/53
f 19/19/19 41/41/41 38/38/38
f 29/29/29 33/33/33 38/38/38
f 38/38/38 41/41/41 29/29/29
f 37/37/37 38/38/38 33/33/33
f 33/33/33 39/39/39 37/37/37
f 32/32/32 33/33/33 29/29/29
f 29/29/29 41/41/41 30/30/30
f 29/29/29 28/28/28 32/32/32
f 28/28/28 29/29/29 30/30/30
f 54/54/54 30/30/30 41/41/41
f 212/212/212 214/214/214 213/213/213
f 217/217/217 218/218/218 213/213/213
f 208/208/208 213/213/213 218/218/218
f 212/212/212 213/213/213 208/208/208
f 218/218/218 209/209/209 208/208/208
f 205/205/205 212/212/212 208/208/208
f 205/205/205 208/208/208 209/209/209
f 209/209/209 206/206/206 205/205/205
f 523/523/523 524/524/524 525/525/525
f 524/524/524 529/529/529 526/526/526
f 529/529/529 524/524/524 520/520/520
f 523/523/523 520/520/520 524/524/524
f 520/520/520 519/519/519 529/529/529
f 518/518/518 520/520/520 523/523/523
f 519/519/519 520/520/520 518/518/518
f 518/518/518 517/517/517 519/519/519
f 27/27/27 113/113/113 114/114/114
f 15/15/15 40/40/40 25/25/25
f 37/37/37 25/25/25 40/40/40
f 25/25/25 37/37/37 45/45/45
f 25/25/25 45/45/45 42/42/42
f 42/42/42 26/26/26 25/25/25
f 25/25/25 26/26/26 24/24/24
f 24/24/24 26/26/26 21/21/21
f 27/27/27 24/24/24 20/20/20
f 21/21/21 20/20/20 24/24/24
f 21/21/21 26/26/26 44/44/44
f 44/44/44 26/26/26 42/42/42
f 43/43/43 42/42/42 45/45/45
f 42/42/42 43/43/43 44/44/44
f 45/45/45 37/37/37 39/39/39
f 39/39/39 46/46/46 45/45/45
f 45/45/45 46/46/46 43/43/43
f 44/44/44 43/43/43 55/55/55
f 56/56/56 55/55/55 43/43/43
f 43/43/43 46/46/46 56/56/56
f 44/44/44 22/22/22 21/21/21
f 44/44/44 57/57/57 111/111/111
f 111/111/111 22/22/22 44/44/44
f 458/458/458 457/457/457 460/460/460
f 130/130/130 239/239/239 464/464/464
f 464/464/464 460/460/460 130/130/130
f 464/464/464 239/239/239 238/238/238
f 238/238/238 465/465/465 464/464/464
f 130/130/130 460/460/460 457/457/457
f 457/457/457 131/131/131 130/130/130
f 130/130/130 129/129/129 137/137/137
f 137/137/137 239/239/239 130/130/130
f 130/130/130 131/131/131 126/126/126
f 126/126/126 129/129/129 130/130/130
f 238/238/238 239/239/239 137/137/137
f 137/137/137 129/129/129 127/127/127
f 262/262/262 247/247/247 275/275/275
f 275/275/275 247/247/247 246/246/246
f 263/263/263 262/262/262 281/281/281
f 275/275/275 281/281/281 262/262/262
f 261/261/261 262/262/262 263/263/263
f 265/265/265 261/261/261 264/264/264
f 261/261/261 265/265/265 253/253/253
f 263/263/263 264/264/264 261/261/261
f 269/269/269 253/253/253 265/265/265
f 265/265/265 267/267/267 269/269/269
f 267/267/267 265/265/265 266/266/266
f 264/264/264 266/266/266 265/265/265
f 270/270/270 267/267/267 268/268/268
f 271/271/271 269/269/269 267/267/267
f 267/267/267 270/270/270 271/271/271
f 266/266/266 268/268/268 267/267/267
f 268/268/268 272/272/272 270/270/270
f 285/285/285 269/269/269 271/271/271
f 271/271/271 286/286/286 285/285/285
f 287/287/287 285/285/285 286/286/286
f 285/285/285 287/287/287 252/252/252
f 286/286/286 288/288/288 287/287/287
f 287/287/287 289/289/289 260/260/260
f 127/127/127 129/129/129 126/126/126
f 126/126/126 131/131/131 171/171/171
f 171/171/171 128/128/128 126/126/126
f 171/171/171 131/131/131 457/457/457
f 457/457/457 459/459/459 171/171/171
f 334/334/334 335/335/335 332/332/332
f 332/332/332 333/333/333 334/334/334
f 337/337/337 335/335/335 445/445/445
f 335/335/335 337/337/337 336/336/336
f 336/336/336 332/332/332 335/335/335
f 336/336/336 337/337/337 345/345/345
f 345/345/345 346/346/346 336/336/336
f 346/346/346 345/345/345 469/469/469
f 358/358/358 355/355/355 445/445/445
f 351/351/351 358/358/358 466/466/466
f 358/358/358 351/351/351 355/355/355
f 355/355/355 354/354/354 357/357/357
f 354/354/354 355/355/355 351/351/351
f 352/352/352 351/351/351 447/447/447
f 447/447/447 351/351/351 466/466/466
f 353/353/353 354/354/354 351/351/351
f 351/351/351 352/352/352 353/353/353
f 140/140/140 467/467/467 466/466/466
f 466/466/466 467/467/467 447/447/447
f 438/438/438 447/447/447 467/467/467
f 447/447/447 438/438/438 441/441/441
f 438/438/438 467/467/467 140/140/140
f 140/140/140 233/233/233 438/438/438
f 438/438/438 233/233/233 534/534/534
f 534/534/534 443/443/443 438/438/438
f 389/389/389 439/439/439 438/438/438
f 438/438/438 443/443/443 389/389/389
f 440/440/440 441/441/441 438/438/438
f 438/438/438 439/439/439 440/440/440
f 440/440/440 439/439/439 388/388/388
f 388/388/388 442/442/442 440/440/440
f 439/439/439 389/389/389 388/388/388
f 442/442/442 388/388/388 374/374/374
f 374/374/374 353/353/353 442/442/442
f 354/354/354 353/353/353 374/374/374
f 374/374/374 357/357/357 354/354/354
f 78/78/78 63/63/63 91/91/91
f 91/91/91 63/63/63 62/62/62
f 79/79/79 78/78/78 97/97/97
f 91/91/91 97/97/97 78/78/78
f 77/77/77 78/78/78 79/79/79
f 81/81/81 77/77/77 80/80/80
f 77/77/77 81/81/81 69/69/69
f 79/79/79 80/80/80 77/77/77
f 85/85/85 69/69/69 81/81/81
f 81/81/81 83/83/83 85/85/85
f 83/83/83 81/81/81 82/82/82
f 80/80/80 82/82/82 81/81/81
f 86/86/86 83/83/83 84/84/84
f 87/87/87 85/85/85 83/83/83
f 83/83/83 86/86/86 87/87/87
f 82/82/82 84/84/84 83/83/83
f 84/84/84 88/88/88 86/86/86
f 101/101/101 85/85/85 87/87/87
f 87/87/87 102/102/102 101/101/101
f 103/103/103 101/101/101 102/102/102
f 101/101/101 103/103/103 68/68/68
f 102/102/102 104/104/104 103/103/103
f 103/103/103 105/105/105 76/76/76
f 601/601/601 589/589/589 605/605/605
f 589/589/589 601/601/601 597/597/597
f 598/598/598 597/597/597 601/601/601
f 599/599/599 600/600/600 597/597/597
f 597/597/597 598/598/598 599/599/599
f 614/614/614 600/600/600 599/599/599
f 608/608/608 583/583/583 600/600/600
f 600/600/600 614/614/614 608/608/608
f 584/584/584 583/583/583 608/608/608
f 609/609/609 608/608/608 614/614/614
f 606/606/606 608/608/608 609/609/609
f 608/608/608 606/606/606 584/584/584
f 615/615/615 614/614/614 616/616/616
f 599/599/599 616/616/616 614/614/614
f 614/614/614 615/615/615 609/609/609
f 609/609/609 610/610/610 606/606/606
f 607/607/607 606/606/606 610/610/610
f 586/586/586 584/584/584 606/606/606
f 606/606/606 607/607/607 586/586/586
f 584/584/584 586/586/586 585/585/585
f 595/595/595 586/586/586 607/607/607
f 586/586/586 595/595/595 594/594/594
f 594/594/594 585/585/585 586/586/586
f 167/167/167 224/224/224 227/227/227
f 167/167/167 173/173/173 242/242/242
f 242/242/242 224/224/224 167/167/167
f 242/242/242 173/173/173 487/487/487
f 489/489/489 173/173/173 192/192/192
f 487/487/487 173/173/173 489/489/489
f 507/507/507 489/489/489 192/192/192
f 192/192/192 194/194/194 507/507/507
f 193/193/193 194/194/194 192/192/192
f 506/506/506 489/489/489 507/507/507
f 484/484/484 489/489/489 506/506/506
f 489/489/489 484/484/484 487/487/487
f 533/533/533 531/531/531 487/487/487
f 487/487/487 486/486/486 533/533/533
f 487/487/487 531/531/531 242/242/242
f 486/486/486 487/487/487 484/484/484
f 531/531/531 222/222/222 242/242/242
f 224/224/224 242/242/242 222/222/222
f 532/532/532 531/531/531 533/533/533
f 222/222/222 531/531/531 532/532/532
f 226/226/226 533/533/533 486/486/486
f 532/532/532 533/533/533 226/226/226
f 225/225/225 228/228/228 532/532/532
f 573/573/573 574/574/574 572/572/572
f 151/151/151 152/152/152 153/153/153
f 153/153/153 152/152/152 235/235/235
f 476/476/476 235/235/235 477/477/477
f 475/475/475 476/476/476 477/477/477
f 76/76/76 68/68/68 103/103/103
f 104/104/104 105/105/105 103/103/103
f 65/65/65 68/68/68 76/76/76
f 73/73/73 76/76/76 105/105/105
f 76/76/76 74/74/74 65/65/65
f 74/74/74 76/76/76 73/73/73
f 105/105/105 106/106/106 73/73/73
f 106/106/106 71/71/71 73/73/73
f 73/73/73 70/70/70 74/74/74
f 73/73/73 71/71/71 70/70/70
f 75/75/75 74/74/74 70/70/70
f 66/66/66 65/65/65 74/74/74
f 74/74/74 75/75/75 66/66/66
f 65/65/65 66/66/66 62/62/62
f 90/90/90 66/66/66 75/75/75
f 66/66/66 90/90/90 89/89/89
f 89/89/89 62/62/62 66/66/66
f 75/75/75 95/95/95 90/90/90
f 95/95/95 75/75/75 72/72/72
f 70/70/70 72/72/72 75/75/75
f 70/70/70 71/71/71 72/72/72
f 72/72/72 71/71/71 96/96/96
f 72/72/72 96/96/96 95/95/95
f 94/94/94 90/90/90 95/95/95
f 92/92/92 89/89/89 90/90/90
f 90/90/90 94/94/94 92/92/92
f 93/93/93 91/91/91 89/89/89
f 89/89/89 92/92/92 93/93/93
f 62/62/62 89/89/89 91/91/91
f 93/93/93 98/98/98 97/97/97
f 97/97/97 91/91/91 93/93/93
f 99/99/99 97/97/97 98/98/98
f 98/98/98 100/100/100 99/99/99
f 97/97/97 99/99/99 79/79/79
f 568/568/568 569/569/569 564/564/564
f 564/564/564 569/569/569 549/549/549
f 567/567/567 568/568/568 564/564/564
f 545/545/545 549/549/549 569/569/569
f 549/549/549 545/545/545 544/544/544
f 544/544/544 548/548/548 549/549/549
f 539/539/539 548/548/548 550/550/550
f 547/547/547 550/550/550 548/548/548
f 548/548/548 544/544/544 547/547/547
f 550/550/550 541/541/541 539/539/539
f 579/579/579 550/550/550 547/547/547
f 577/577/577 541/541/541 550/550/550
f 550/550/550 579/579/579 577/577/577
f 580/580/580 547/547/547 546/546/546
f 547/547/547 580/580/580 579/579/579
f 547/547/547 544/544/544 546/546/546
f 544/544/544 545/545/545 546/546/546
f 545/545/545 570/570/570 546/546/546
f 569/569/569 570/570/570 545/545/545
f 578/578/578 577/577/577 579/579/579
f 577/577/577 578/578/578 576/576/576
f 576/576/576 575/575/575 577/577/577
f 541/541/541 577/577/577 575/575/575
f 560/560/560 559/559/559 575/575/575
f 575/575/575 576/576/576 560/560/560
f 560/560/560 561/561/561 557/557/557
f 557/557/557 559/559/559 560/560/560
f 559/559/559 557/557/557 555/555/555
f 558/558/558 557/557/557 561/561/561
f 556/556/556 555/555/555 557/557/557
f 557/557/557 558/558/558 556/556/556
f 561/561/561 562/562/562 558/558/558
f 555/555/555 556/556/556 552/552/552
f 55/55/55 57/57/57 44/44/44
f 20/20/20 21/21/21 22/22/22
f 22/22/22 23/23/23 20/20/20
f 23/23/23 116/116/116 20/20/20
f 107/107/107 139/139/139 116/116/116
f 116/116/116 139/139/139 138/138/138
f 138/138/138 20/20/20 116/116/116
f 116/116/116 108/108/108 107/107/107
f 107/107/107 233/233/233 140/140/140
f 140/140/140 139/139/139 107/107/107
f 232/232/232 233/233/233 107/107/107
f 107/107/107 112/112/112 232/232/232
f 58/58/58 112/112/112 107/107/107
f 107/107/107 110/110/110 58/58/58
f 109/109/109 110/110/110 107/107/107
f 107/107/107 108/108/108 109/109/109
f 138/138/138 139/139/139 140/140/140
f 20/20/20 138/138/138 27/27/27
f 27/27/27 138/138/138 141/141/141
f 140/140/140 141/141/141 138/138/138
f 136/136/136 27/27/27 237/237/237
f 141/141/141 237/237/237 27/27/27
f 27/27/27 136/136/136 113/113/113
f 358/358/358 237/237/237 141/141/141
f 141/141/141 466/466/466 358/358/358
f 466/466/466 141/141/141 140/140/140
f 465/465/465 238/238/238 237/237/237
f 237/237/237 358/358/358 465/465/465
f 237/237/237 238/238/238 136/136/136
f 137/137/137 136/136/136 238/238/238
f 136/136/136 137/137/137 135/135/135
f 135/135/135 113/113/113 136/136/136
f 113/113/113 135/135/135 122/122/122
f 122/122/122 115/115/115 113/113/113
f 113/113/113 115/115/115 3/3/3
f 127/127/127 135/135/135 137/137/137
f 123/123/123 122/122/122 135/135/135
f 135/135/135 127/127/127 123/123/123
f 122/122/122 121/121/121 115/115/115
f 121/121/121 122/122/122 123/123/123
f 12/12/12 3/3/3 115/115/115
f 308/308/308 293/293/293 318/318/318
f 318/318/318 293/293/293 292/292/292
f 309/309/309 308/308/308 324/324/324
f 318/318/318 324/324/324 308/308/308
f 307/307/307 308/308/308 309/309/309
f 311/311/311 307/307/307 310/310/310
f 307/307/307 311/311/311 299/299/299
f 309/309/309 310/310/310 307/307/307
f 315/315/315 299/299/299 311/311/311
f 311/311/311 313/313/313 315/315/315
f 313/313/313 311/311/311 312/312/312
f 310/310/310 312/312/312 311/311/311
f 312/312/312 314/314/314 313/313/313
f 326/326/326 324/324/324 325/325/325
f 324/324/324 326/326/326 309/309/309
f 320/320/320 325/325/325 324/324/324
f 324/324/324 318/318/318 320/320/320
f 320/320/320 318/318/318 316/316/316
f 292/292/292 316/316/316 318/318/318
f 316/316/316 319/319/319 320/320/320
f 319/319/319 316/316/316 317/317/317
f 296/296/296 317/317/317 316/316/316
f 316/316/316 292/292/292 296/296/296
f 425/425/425 426/426/426 421/421/421
f 421/421/421 426/426/426 406/406/406
f 424/424/424 425/425/425 421/421/421
f 402/402/402 406/406/406 426/426/426
f 406/406/406 402/402/402 401/401/401
f 401/401/401 405/405/405 406/406/406
f 396/396/396 405/405/405 407/407/407
f 404/404/404 407/407/407 405/405/405
f 405/405/405 401/401/401 404/404/404
f 407/407/407 398/398/398 396/396/396
f 436/436/436 407/407/407 404/404/404
f 434/434/434 398/398/398 407/407/407
f 407/407/407 436/436/436 434/434/434
f 437/437/437 404/404/404 403/403/403
f 404/404/404 437/437/437 436/436/436
f 404/404/404 401/401/401 403/403/403
f 401/401/401 402/402/402 403/403/403
f 402/402/402 427/427/427 403/403/403
f 426/426/426 427/427/427 402/402/402
f 435/435/435 434/434/434 436/436/436
f 434/434/434 435/435/435 433/433/433
f 433/433/433 432/432/432 434/434/434
f 398/398/398 434/434/434 432/432/432
f 417/417/417 416/416/416 432/432/432
f 432/432/432 433/433/433 417/417/417
f 417/417/417 418/418/418 414/414/414
f 414/414/414 416/416/416 417/417/417
f 416/416/416 414/414/414 412/412/412
f 415/415/415 414/414/414 418/418/418
f 413/413/413 412/412/412 414/414/414
f 414/414/414 415/415/415 413/413/413
f 418/418/418 419/419/419 415/415/415
f 412/412/412 413/413/413 409/409/409
f 260/260/260 252/252/252 287/287/287
f 288/288/288 289/289/289 287/287/287
f 249/249/249 252/252/252 260/260/260
f 257/257/257 260/260/260 289/289/289
f 260/260/260 258/258/258 249/249/249
f 258/258/258 260/260/260 257/257/257
f 289/289/289 290/290/290 257/257/257
f 290/290/290 255/255/255 257/257/257
f 257/257/257 254/254/254 258/258/258
f 257/257/257 255/255/255 254/254/254
f 259/259/259 258/258/258 254/254/254
f 250/250/250 249/249/249 258/258/258
f 258/258/258 259/259/259 250/250/250
f 249/249/249 250/250/250 246/246/246
f 274/274/274 250/250/250 259/259/259
f 250/250/250 274/274/274 273/273/273
f 273/273/273 246/246/246 250/250/250
f 259/259/259 279/279/279 274/274/274
f 279/279/279 259/259/259 256/256/256
f 254/254/254 256/256/256 259/259/259
f 254/254/254 255/255/255 256/256/256
f 256/256/256 255/255/255 280/280/280
f 256/256/256 280/280/280 279/279/279
f 278/278/278 274/274/274 279/279/279
f 276/276/276 273/273/273 274/274/274
f 274/274/274 278/278/278 276/276/276
f 277/277/277 275/275/275 273/273/273
f 273/273/273 276/276/276 277/277/277
f 246/246/246 273/273/273 275/275/275
f 277/277/277 282/282/282 281/281/281
f 281/281/281 275/275/275 277/277/277
f 283/283/283 281/281/281 282/282/282
f 282/282/282 284/284/284 283/283/283
f 281/281/281 283/283/283 263/263/263
f 386/386/386 366/366/366 365/365/365
f 365/365/365 387/387/387 386/386/386
f 388/388/388 389/389/389 386/386/386
f 374/374/374 388/388/388 386/386/386
f 386/386/386 375/375/375 374/374/374
f 375/375/375 386/386/386 387/387/387
f 387/387/387 377/377/377 375/375/375
f 375/375/375 377/377/377 376/376/376
f 376/376/376 373/373/373 375/375/375
f 374/374/374 375/375/375 373/373/373
f 376/376/376 377/377/377 369/369/369
f 369/369/369 368/368/368 376/376/376
f 356/356/356 376/376/376 368/368/368
f 373/373/373 376/376/376 356/356/356
f 356/356/356 357/357/357 373/373/373
f 473/473/473 478/478/478 474/474/474
f 234/234/234 146/146/146 474/474/474
f 146/146/146 473/473/473 474/474/474
f 472/472/472 473/473/473 146/146/146
f 146/146/146 149/149/149 472/472/472
f 234/234/234 150/150/150 146/146/146
f 146/146/146 150/150/150 147/147/147
f 148/148/148 149/149/149 146/146/146
f 146/146/146 147/147/147 148/148/148
f 165/165/165 148/148/148 147/147/147
f 147/147/147 154/154/154 165/165/165
f 147/147/147 150/150/150 154/154/154
f 473/473/473 472/472/472 483/483/483
f 483/483/483 478/478/478 473/473/473
f 155/155/155 157/157/157 158/158/158
f 155/155/155 158/158/158 159/159/159
f 155/155/155 156/156/156 157/157/157
f 479/479/479 158/158/158 157/157/157
f 157/157/157 161/161/161 481/481/481
f 481/481/481 480/480/480 157/157/157
f 479/479/479 157/157/157 480/480/480
f 157/157/157 156/156/156 160/160/160
f 160/160/160 161/161/161 157/157/157
f 479/479/479 159/159/159 158/158/158
f 161/161/161 160/160/160 162/162/162
f 164/164/164 482/482/482 161/161/161
f 161/161/161 482/482/482 481/481/481
f 41/41/41 53/53/53 54/54/54
f 30/30/30 59/59/59 31/31/31
f 54/54/54 59/59/59 30/30/30
f 30/30/30 31/31/31 28/28/28
f 34/34/34 28/28/28 31/31/31
f 35/35/35 32/32/32 28/28/28
f 28/28/28 34/34/34 35/35/35
f 36/36/36 31/31/31 60/60/60
f 31/31/31 59/59/59 60/60/60
f 31/31/31 36/36/36 34/34/34
f 59/59/59 133/133/133 60/60/60
f 60/60/60 133/133/133 48/48/48
f 60/60/60 134/134/134 244/244/244
f 60/60/60 244/244/244 243/243/243
f 243/243/243 117/117/117 60/60/60
f 48/48/48 134/134/134 60/60/60
f 60/60/60 117/117/117 36/36/36
f 58/58/58 36/36/36 112/112/112
f 34/34/34 36/36/36 58/58/58
f 117/117/117 112/112/112 36/36/36
f 58/58/58 55/55/55 34/34/34
f 110/110/110 57/57/57 58/58/58
f 57/57/57 55/55/55 58/58/58
f 35/35/35 34/34/34 55/55/55
f 55/55/55 56/56/56 35/35/35
f 109/109/109 111/111/111 57/57/57
f 57/57/57 110/110/110 109/109/109
f 390/390/390 448/448/448 243/243/243
f 243/243/243 244/244/244 390/390/390
f 391/391/391 390/390/390 462/462/462
f 390/390/390 244/244/244 134/134/134
f 381/381/381 462/462/462 390/390/390
f 390/390/390 134/134/134 381/381/381
f 390/390/390 367/367/367 448/448/448
f 367/367/367 390/390/390 360/360/360
f 360/360/360 390/390/390 391/391/391
f 448/448/448 367/367/367 443/443/443
f 389/389/389 443/443/443 367/367/367
f 389/389/389 367/367/367 366/366/366
f 366/366/366 367/367/367 360/360/360
f 361/361/361 360/360/360 391/391/391
f 360/360/360 359/359/359 366/366/366
f 359/359/359 360/360/360 361/361/361
f 384/384/384 361/361/361 391/391/391
f 372/372/372 361/361/361 384/384/384
f 362/362/362 361/361/361 372/372/372
f 361/361/361 362/362/362 359/359/359
f 365/365/365 366/366/366 359/359/359
f 359/359/359 363/363/363 365/365/365
f 363/363/363 359/359/359 362/362/362
f 366/366/366 386/386/386 389/389/389
f 611/611/611 612/612/612 607/607/607
f 607/607/607 612/612/612 595/595/595
f 610/610/610 611/611/611 607/607/607
f 591/591/591 595/595/595 612/612/612
f 595/595/595 591/591/591 590/590/590
f 590/590/590 594/594/594 595/595/595
f 585/585/585 594/594/594 596/596/596
f 593/593/593 596/596/596 594/594/594
f 594/594/594 590/590/590 593/593/593
f 596/596/596 587/587/587 585/585/585
f 620/620/620 596/596/596 593/593/593
f 619/619/619 587/587/587 596/596/596
f 596/596/596 620/620/620 619/619/619
f 621/621/621 593/593/593 592/592/592
f 593/593/593 621/621/621 620/620/620
f 593/593/593 590/590/590 592/592/592
f 590/590/590 591/591/591 592/592/592
f 591/591/591 613/613/613 592/592/592
f 612/612/612 613/613/613 591/591/591
f 587/587/587 619/619/619 618/618/618
f 616/616/616 617/617/617 615/615/615
f 295/295/295 296/296/296 292/292/292
f 317/317/317 296/296/296 305/305/305
f 296/296/296 295/295/295 304/304/304
f 304/304/304 305/305/305 296/296/296
f 321/321/321 317/317/317 322/322/322
f 305/305/305 322/322/322 317/317/317
f 317/317/317 321/321/321 319/319/319
f 322/322/322 305/305/305 302/302/302
f 305/305/305 304/304/304 300/300/300
f 300/300/300 302/302/302 305/305/305
f 306/306/306 304/304/304 295/295/295
f 303/303/303 300/300/300 304/304/304
f 304/304/304 306/306/306 303/303/303
f 295/295/295 298/298/298 306/306/306
f 303/303/303 306/306/306 330/330/330
f 329/329/329 330/330/330 306/306/306
f 306/306/306 298/298/298 329/329/329
f 331/331/331 301/301/301 303/303/303
f 330/330/330 331/331/331 303/303/303
f 303/303/303 301/301/301 300/300/300
f 300/300/300 301/301/301 302/302/302
f 302/302/302 301/301/301 323/323/323
f 302/302/302 323/323/323 322/322/322
f 328/328/328 329/329/329 298/298/298
f 325/325/325 327/327/327 326/326/326
