# gastornis_b reconstructed from live game memory
v 20.48034 23.59079 82.04371
v 18.17087 21.54624 84.27421
v 14.93431 25.78763 79.11927
v 17.84763 27.51730 77.02492
v 19.86569 21.49234 70.68160
v 16.16474 25.38465 69.98604
v 14.93431 25.78763 79.11927
v 18.17087 21.54624 84.27421
v 22.22950 16.91074 87.77251
v 25.13558 19.66757 84.56281
v 22.22950 16.91074 87.77251
v 27.12886 20.66314 75.59129
v 27.40302 16.05626 63.41520
v 27.76696 19.96486 66.12365
v 21.44971 25.49766 63.98175
v 19.55650 23.03919 61.34816
v 2.83069 43.58130 71.22070
v -1.89326 45.27874 73.21773
v 5.62171 38.66118 64.49289
v 6.98051 39.71643 66.26328
v 27.40302 16.05626 63.41520
v 19.55650 23.03919 61.34816
v 31.37434 14.88847 87.59451
v 34.29808 15.91840 80.38148
v -22.42274 18.71650 89.72126
v -5.61321 16.96738 92.37209
v -7.11704 0.00246 98.45220
v -24.17227 0.00247 94.96542
v -27.27552 22.69963 43.02562
v -17.03487 29.31602 42.98766
v -15.79266 31.07518 58.02014
v -31.67972 21.99182 53.31071
v 13.24880 21.79648 61.19631
v 27.40302 16.05626 63.41520
v 11.32396 21.02888 75.59892
v 86.83886 2.78350 113.82517
v 90.22563 3.39588 117.71691
v 79.02513 6.81100 119.13758
v 78.96303 4.94747 111.46339
v 87.42158 0.00245 111.69427
v 92.66272 0.00245 116.97681
v 87.98228 3.55238 133.06717
v 81.50843 4.30838 136.57683
v 80.96638 7.20983 130.24672
v 90.26536 0.00244 134.15327
v 81.97239 0.00245 137.77602
v 51.05920 7.57767 137.13235
v 60.91212 7.74953 140.13724
v 62.06779 0.00245 142.40262
v 49.24305 0.00245 139.75681
v 61.37825 14.14129 123.39405
v 70.41908 10.72171 122.99312
v 71.26774 9.89963 127.17357
v 63.24517 12.87562 127.04492
v 74.00977 4.93065 138.86710
v 74.24394 0.00245 139.55441
v 66.97484 0.00245 141.42857
v 67.24622 4.89306 143.01791
v 67.01624 10.86152 138.53264
v 72.46275 8.52340 134.12262
v 67.11948 7.61690 141.03949
v 60.78918 13.16077 133.70648
v 66.68314 9.71951 132.31429
v 43.94991 8.51316 130.11705
v 40.10650 0.00245 132.64195
v 39.05515 0.00245 119.64355
v 43.64198 8.81974 117.54832
v 41.53025 0.00245 107.40138
v 44.72856 7.48681 105.60528
v -16.00611 16.15492 43.38527
v -27.27552 22.69963 43.02562
v -31.67972 21.99182 53.31071
v 60.30373 0.00245 107.89368
v 70.49033 0.00245 107.02299
v 70.48721 8.82287 111.45434
v 60.76647 11.20177 112.88731
v -38.36338 15.83841 83.85185
v -34.85307 21.85543 67.75095
v -55.74994 9.11467 71.38982
v -50.48739 14.89784 53.07150
v -40.48798 0.00247 88.72085
v -57.48477 0.00247 75.17868
v -25.05648 26.02240 23.84030
v -25.75803 26.13542 8.07570
v -21.24879 22.92404 10.08912
v -20.10110 22.93198 23.84858
v -25.33133 18.28549 0.02307
v -24.98932 19.05886 8.07093
v -20.88803 17.22551 4.44959
v -18.25757 23.06795 7.31686
v -18.13616 19.20335 6.33508
v -31.12305 22.68552 28.03026
v -17.03487 29.31602 42.98766
v -7.24437 23.02233 37.33381
v -25.06267 19.51367 23.85032
v -16.00611 16.15492 43.38527
v -31.09337 22.73319 21.76478
v -1.64446 22.82720 44.86818
v 1.41444 23.09859 57.61539
v -1.23766 22.05275 75.74408
v 8.06606 15.14722 92.41949
v -18.55548 27.46069 73.71066
v -25.06267 19.51367 23.85032
v 22.22950 16.91074 87.77251
v 20.70825 12.42483 92.51983
v 47.15425 9.73431 88.84624
v 52.57871 0.00245 83.89773
v 58.03812 0.00245 98.15344
v 51.55487 7.67648 101.64697
v 53.05851 12.04923 113.30712
v 53.63637 14.40215 125.32409
v 90.71938 3.92143 126.96672
v 93.71085 0.00244 128.54785
v -17.09044 32.82079 0.02288
v -5.71760 34.59579 -0.13464
v -15.47016 30.78289 4.28383
v -14.62274 27.10460 0.02657
v -5.71760 34.59579 -0.13464
v -17.09044 32.82079 0.02288
v -14.62274 27.10460 0.02657
v -0.43060 24.24139 -0.19679
v -14.41331 23.26776 4.26640
v -13.84687 19.56190 0.02653
v -13.84687 19.56190 0.02653
v -0.43060 24.24139 -0.19679
v -14.73235 16.48144 3.62194
v -4.48471 14.10653 0.01682
v -4.48471 14.10653 0.01682
v -16.27577 13.71321 0.02287
v -16.27577 13.71321 0.02287
v -22.27384 28.36922 3.20222
v -18.95724 27.26571 6.25507
v -25.96025 27.20302 0.01082
v -25.33133 18.28549 0.02307
v -25.96025 27.20302 0.01082
v 39.73410 8.77370 94.44973
v 80.63239 7.22370 123.27048
v 89.80246 3.84642 121.60775
v 70.40041 11.13121 121.16121
v 53.81152 12.51548 132.31194
v 15.05505 18.08495 48.46600
v 30.04520 11.54282 55.43628
v -24.98932 19.05886 8.07093
v -28.71364 22.57269 7.33199
v -1.64446 22.82720 44.86818
v 79.02513 6.81100 119.13758
v 90.22563 3.39588 117.71691
v 81.63397 0.00245 114.17564
v 61.37825 14.14129 123.39405
v 70.40041 11.13121 121.16121
v 61.88613 0.00245 118.10338
v 70.41908 10.72171 122.99312
v 62.23268 0.00245 127.63747
v 83.26006 0.00245 127.98482
v 80.63239 7.22370 123.27048
v 89.80246 3.84642 121.60775
v 37.83023 12.95701 73.56990
v 31.37434 14.88847 87.59451
v 29.15928 10.69041 93.01388
v 70.51649 9.76980 127.94942
v 67.19440 12.20241 132.29184
v 63.73966 12.28368 127.84072
v 61.95087 12.33680 132.94476
v 66.92513 10.49150 137.54463
v 71.52592 8.51643 133.81938
v -2.24411 0.00246 39.41784
v 15.69066 0.00246 43.40298
v 13.00226 32.42563 71.75622
v 14.12560 32.18285 63.92519
v -66.98546 6.68655 55.61392
v -69.64944 0.00247 59.01886
v -34.91127 22.63498 2.36469
v -30.87419 22.60811 4.51482
v -25.33133 18.28549 0.02307
v -34.67102 20.85829 0.01899
v -34.47450 24.39804 0.01151
v -34.47450 24.39804 0.01151
v -34.67102 20.85829 0.01899
v -36.71594 22.51097 0.00792
v -36.71594 22.51097 0.00792
v -74.66530 0.00248 47.15963
v -72.08796 4.46435 44.30357
v -61.44965 10.89429 46.67118
v -46.98902 16.34393 44.22746
v -57.16893 15.10042 41.94357
v -53.20291 14.70364 40.17441
v -46.98902 16.34393 44.22746
v -53.20291 14.70364 40.17441
v -62.52338 10.72277 39.14581
v -61.44965 10.89429 46.67118
v -62.52338 10.72277 39.14581
v -61.74823 12.97786 29.26573
v -61.74823 12.97786 29.26573
v -68.37189 7.30974 39.84196
v -77.05618 0.00248 29.91667
v 6.58930 0.00246 98.27026
v 31.09365 0.00246 51.78897
v -32.17059 0.00247 47.92159
v -16.89445 0.00247 40.51786
v -16.00611 16.15492 43.38527
v -31.67972 21.99182 53.31071
v 34.29808 15.91840 80.38148
v 37.83023 12.95701 73.56990
v 27.85744 0.00246 96.23233
v 19.26154 0.00246 96.99942
v 10.48864 30.97557 74.00266
v 10.48864 30.97557 74.00266
v 11.73350 31.35183 61.92835
v 11.73350 31.35183 61.92835
v 4.56886 38.06691 72.93208
v 6.64037 39.54018 70.72998
v 5.62171 38.66118 64.49289
v 4.56886 38.06691 72.93208
v 61.37825 14.14129 123.39405
v 61.88613 0.00245 118.10338
v 92.66272 0.00245 116.97681
v -68.37189 7.30974 39.84196
v -65.11373 0.00247 47.99546
v -56.02749 0.00247 53.29234
v -77.05618 0.00248 29.91667
v 29.15928 10.69041 93.01388
v 31.37434 14.88847 87.59451
v 27.85744 0.00246 96.23233
v 36.69987 0.00246 97.29063
v 42.54684 0.00246 65.94167
v 37.83023 12.95701 73.56990
v -1.89326 45.27874 73.21773
v 94.70457 0.00244 123.38702
v 94.37954 0.00244 119.24298
v 79.01199 0.00245 107.97454
v 94.37954 0.00244 119.24298
v 46.86259 13.39016 124.05981
v 45.72982 12.38002 126.61775
v 42.66603 15.19515 122.11417
v 50.35859 12.27662 122.05392
v 59.99161 6.80545 126.24078
v 50.26871 9.72837 129.12883
v 45.01047 14.31850 122.06072
v 43.16992 12.99759 127.60658
v 41.16056 13.91137 127.20745
v 34.93081 18.21727 121.93530
v 46.54309 12.12004 119.43529
v 44.66249 12.65439 122.27474
v 43.73529 13.90347 116.08992
v 50.06097 10.57873 118.29274
v 55.44739 6.95934 126.23471
v 47.49930 10.73491 126.55974
v 45.67548 12.88962 116.72009
v 42.21676 13.77685 122.67731
v 40.71032 14.63842 121.61565
v 37.45871 17.24270 113.59421
v 40.27459 13.36749 128.41133
v 39.80821 11.10762 131.13150
v 34.17933 15.10027 128.34151
v 43.61951 14.57248 126.34998
v 54.48868 9.39177 130.23048
v 45.59321 8.30500 133.24948
v 37.67227 15.24295 126.74370
v 37.25037 10.55386 132.28021
v 34.89818 11.16221 132.03680
v 27.13515 16.18981 128.82652
v 37.91498 7.86355 134.56815
v 38.65101 4.69933 137.12532
v 30.92093 9.06437 134.01968
v 40.98645 10.52581 132.18477
v 57.99067 7.03142 134.74361
v 46.68306 2.77906 138.20053
v 54.10796 5.33818 135.62842
v 33.95967 9.54813 133.43073
v 36.09763 3.15444 138.55684
v 33.12748 3.22597 138.68468
v 20.60275 7.85641 135.66196
v -37.87736 14.43233 44.84479
v -43.41909 13.86859 47.13956
v -40.09494 13.96060 36.62020
v -32.42766 15.28350 46.95611
v -35.04147 16.11411 55.69129
v -42.84577 14.30104 56.83938
v -37.02179 14.36862 39.72057
v -47.31184 13.00709 40.03079
v -46.49044 12.66314 25.88839
v 11.80018 28.73310 75.04758
v 11.99365 27.79791 77.46888
v 7.64420 31.23387 78.58899
v 18.25087 23.70137 73.18370
v 17.40699 23.07411 77.48796
v 4.77574 36.11911 74.03761
v 6.32172 34.48163 77.17171
v 0.85696 39.22720 81.40497
v 12.77372 29.19790 67.48683
v 14.48697 25.71732 73.09609
v 3.30681 39.17366 70.76752
v 4.58593 36.78620 73.22571
v -0.45697 40.16663 76.90109
v 12.28141 32.54854 65.76673
v 12.63954 30.86763 70.54438
v 10.06280 32.61513 61.86508
v 8.85846 32.83579 65.52498
v 3.36658 38.44213 62.57327
v 18.32662 24.26180 65.95345
v 15.24936 24.06950 72.03678
v 42.54684 0.00246 65.94167
v 20.48033 -23.58588 82.04371
v 17.84762 -27.51238 77.02492
v 14.93430 -25.78271 79.11927
v 18.17086 -21.54132 84.27421
v 19.86568 -21.48742 70.68160
v 18.17086 -21.54132 84.27421
v 14.93430 -25.78271 79.11927
v 16.16473 -25.37973 69.98604
v 22.22949 -16.90583 87.77251
v 25.13557 -19.66265 84.56281
v 22.22949 -16.90583 87.77251
v 27.12885 -20.65822 75.59129
v 27.40301 -16.05134 63.41520
v 19.55650 -23.03427 61.34816
v 21.44971 -25.49274 63.98175
v 27.76695 -19.95995 66.12365
v 2.83067 -43.57638 71.22070
v 6.98050 -39.71151 66.26328
v 5.62170 -38.65626 64.49289
v -1.89327 -45.27382 73.21773
v 19.55650 -23.03427 61.34816
v 27.40301 -16.05134 63.41520
v 31.37434 -14.88356 87.59451
v 34.29808 -15.91349 80.38148
v -22.42275 -18.71157 89.72126
v -5.61322 -16.96245 92.37209
v -27.27553 -22.69469 43.02562
v -31.67973 -21.98688 53.31071
v -15.79267 -31.07025 58.02014
v -17.03488 -29.31108 42.98766
v 13.24880 -21.79156 61.19631
v 11.32395 -21.02396 75.59892
v 27.40301 -16.05134 63.41520
v 86.83886 -2.77860 113.82517
v 78.96303 -4.94258 111.46339
v 79.02513 -6.80611 119.13758
v 90.22563 -3.39099 117.71691
v 87.98228 -3.54749 133.06717
v 80.96638 -7.20494 130.24672
v 81.50843 -4.30348 136.57683
v 51.05920 -7.57277 137.13235
v 60.91212 -7.74463 140.13724
v 61.37824 -14.13639 123.39405
v 63.24517 -12.87073 127.04492
v 71.26775 -9.89474 127.17357
v 70.41908 -10.71682 122.99312
v 74.00977 -4.92575 138.86710
v 67.24622 -4.88816 143.01791
v 67.01624 -10.85663 138.53264
v 67.11948 -7.61200 141.03949
v 72.46275 -8.51850 134.12262
v 60.78917 -13.15587 133.70648
v 66.68314 -9.71462 132.31429
v 43.94991 -8.50826 130.11705
v 43.64198 -8.81483 117.54832
v 44.72856 -7.48190 105.60528
v -16.00612 -16.14999 43.38527
v -31.67973 -21.98688 53.31071
v -27.27553 -22.69469 43.02562
v 60.76647 -11.19687 112.88731
v 70.48721 -8.81798 111.45434
v -34.85308 -21.85049 67.75095
v -38.36339 -15.83347 83.85185
v -50.48740 -14.89289 53.07150
v -55.74994 -9.10973 71.38982
v -25.05649 -26.01746 23.84030
v -20.10111 -22.92705 23.84858
v -21.24880 -22.91910 10.08912
v -25.75804 -26.13048 8.07570
v -25.33134 -18.28055 0.02306
v -20.88804 -17.22057 4.44959
v -24.98933 -19.05392 8.07093
v -18.25757 -23.06301 7.31686
v -18.13616 -19.19841 6.33508
v -17.03488 -29.31108 42.98766
v -31.12306 -22.68058 28.03026
v -7.24438 -23.01740 37.33381
v -16.00612 -16.14999 43.38527
v -25.06268 -19.50874 23.85032
v -31.09338 -22.72824 21.76478
v 1.41443 -23.09366 57.61539
v -1.64447 -22.82227 44.86818
v 8.06605 -15.14229 92.41949
v -1.23767 -22.04782 75.74408
v -18.55548 -27.45575 73.71066
v -25.06268 -19.50874 23.85032
v 20.70824 -12.41991 92.51983
v 22.22949 -16.90583 87.77251
v 47.15425 -9.72940 88.84624
v 51.55487 -7.67157 101.64697
v 53.05851 -12.04433 113.30712
v 53.63636 -14.39725 125.32409
v 90.71938 -3.91654 126.96672
v -17.09046 -32.81585 0.02288
v -15.47017 -30.77796 4.28382
v -5.71762 -34.59086 -0.13464
v -14.62275 -27.09967 0.02656
v -17.09046 -32.81585 0.02288
v -5.71762 -34.59086 -0.13464
v -14.62275 -27.09967 0.02656
v -14.41332 -23.26283 4.26639
v -0.43061 -24.23646 -0.19679
v -13.84688 -19.55697 0.02653
v -13.84688 -19.55697 0.02653
v -0.43061 -24.23646 -0.19679
v -14.73235 -16.47650 3.62194
v -4.48471 -14.10160 0.01681
v -4.48471 -14.10160 0.01681
v -16.27577 -13.70828 0.02287
v -16.27577 -13.70828 0.02287
v -22.27385 -28.36428 3.20222
v -18.95725 -27.26077 6.25507
v -25.33134 -18.28055 0.02306
v -25.96026 -27.19808 0.01081
v -25.96026 -27.19808 0.01081
v 39.73410 -8.76879 94.44973
v 89.80246 -3.84153 121.60775
v 80.63239 -7.21881 123.27048
v 70.40041 -11.12631 121.16121
v 53.81151 -12.51058 132.31194
v 15.05504 -18.08002 48.46600
v 30.04520 -11.53790 55.43628
v -28.71365 -22.56775 7.33199
v -24.98933 -19.05392 8.07093
v -1.64447 -22.82227 44.86818
v 79.02513 -6.80611 119.13758
v 90.22563 -3.39099 117.71691
v 61.37824 -14.13639 123.39405
v 70.40041 -11.12631 121.16121
v 70.41908 -10.71682 122.99312
v 80.63239 -7.21881 123.27048
v 89.80246 -3.84153 121.60775
v 37.83023 -12.95209 73.56990
v 29.15928 -10.68549 93.01388
v 31.37434 -14.88356 87.59451
v 70.51649 -9.76490 127.94942
v 63.73966 -12.27878 127.84072
v 67.19440 -12.19752 132.29184
v 61.95086 -12.33191 132.94476
v 66.92513 -10.48660 137.54463
v 71.52594 -8.51154 133.81938
v 13.00225 -32.42072 71.75622
v 14.12559 -32.17794 63.92519
v -66.98546 -6.68160 55.61392
v -34.91127 -22.63004 2.36469
v -34.67103 -20.85334 0.01899
v -25.33134 -18.28055 0.02306
v -30.87420 -22.60316 4.51482
v -34.47451 -24.39310 0.01151
v -34.67103 -20.85334 0.01899
v -34.47451 -24.39310 0.01151
v -36.71595 -22.50602 0.00792
v -36.71595 -22.50602 0.00792
v -72.08796 -4.45940 44.30357
v -61.44965 -10.88935 46.67118
v -46.98903 -16.33899 44.22746
v -53.20292 -14.69870 40.17441
v -57.16894 -15.09547 41.94357
v -46.98903 -16.33899 44.22746
v -61.44965 -10.88935 46.67118
v -62.52338 -10.71782 39.14581
v -53.20292 -14.69870 40.17441
v -61.74823 -12.97291 29.26573
v -62.52338 -10.71782 39.14581
v -61.74823 -12.97291 29.26573
v -68.37189 -7.30479 39.84196
v -16.00612 -16.14999 43.38527
v -31.67973 -21.98688 53.31071
v 37.83023 -12.95209 73.56990
v 34.29808 -15.91349 80.38148
v 10.48863 -30.97065 74.00266
v 10.48863 -30.97065 74.00266
v 11.73349 -31.34690 61.92835
v 11.73349 -31.34690 61.92835
v 6.64036 -39.53526 70.72998
v 4.56885 -38.06199 72.93208
v 5.62170 -38.65626 64.49289
v 4.56885 -38.06199 72.93208
v 61.37824 -14.13639 123.39405
v -68.37189 -7.30479 39.84196
v 31.37434 -14.88356 87.59451
v 29.15928 -10.68549 93.01388
v 37.83023 -12.95209 73.56990
v -1.89327 -45.27382 73.21773
v 46.86258 -13.38525 124.05981
v 42.66602 -15.19024 122.11417
v 45.72981 -12.37511 126.61775
v 50.35858 -12.27172 122.05392
v 59.99161 -6.80055 126.24078
v 50.26871 -9.72346 129.12883
v 45.01046 -14.31360 122.06072
v 43.16991 -12.99269 127.60658
v 34.93081 -18.21236 121.93530
v 41.16055 -13.90647 127.20745
v 46.54309 -12.11514 119.43529
v 43.73529 -13.89857 116.08992
v 44.66249 -12.64949 122.27474
v 50.06097 -10.57383 118.29274
v 55.44739 -6.95444 126.23471
v 47.49930 -10.73000 126.55974
v 45.67547 -12.88472 116.72009
v 42.21675 -13.77195 122.67731
v 37.45871 -17.23779 113.59421
v 40.71031 -14.63352 121.61565
v 40.27458 -13.36259 128.41133
v 34.17932 -15.09536 128.34151
v 39.80821 -11.10271 131.13150
v 43.61950 -14.56757 126.34998
v 54.48868 -9.38687 130.23048
v 45.59321 -8.30010 133.24948
v 37.67226 -15.23804 126.74370
v 37.25037 -10.54895 132.28021
v 27.13515 -16.18489 128.82652
v 34.89818 -11.15730 132.03680
v 37.91498 -7.85864 134.56815
v 30.92093 -9.05946 134.01968
v 38.65101 -4.69442 137.12532
v 40.98645 -10.52090 132.18477
v 57.99067 -7.02652 134.74361
v 46.68306 -2.77416 138.20053
v 54.10796 -5.33328 135.62842
v 33.95967 -9.54323 133.43073
v 36.09763 -3.14953 138.55684
v 20.60275 -7.85149 135.66196
v 33.12748 -3.22106 138.68468
v -37.87737 -14.42740 44.84479
v -40.09495 -13.95566 36.62020
v -43.41909 -13.86365 47.13956
v -32.42767 -15.27856 46.95611
v -35.04148 -16.10917 55.69129
v -42.84578 -14.29610 56.83938
v -37.02180 -14.36368 39.72057
v -46.49045 -12.65820 25.88839
v -47.31185 -13.00215 40.03079
v 11.80017 -28.72817 75.04758
v 7.64419 -31.22894 78.58899
v 11.99364 -27.79299 77.46888
v 17.40698 -23.06919 77.48796
v 18.25087 -23.69646 73.18370
v 4.77572 -36.11419 74.03761
v 0.85695 -39.22227 81.40497
v 6.32171 -34.47671 77.17171
v 14.48697 -25.71240 73.09609
v 12.77371 -29.19298 67.48683
v 3.30679 -39.16874 70.76752
v -0.45699 -40.16171 76.90109
v 4.58591 -36.78128 73.22571
v 12.63953 -30.86271 70.54438
v 12.28140 -32.54363 65.76673
v 10.06279 -32.61021 61.86508
v 3.36657 -38.43721 62.57327
v 8.85845 -32.83087 65.52498
v 15.24935 -24.06458 72.03678
v 18.32661 -24.25688 65.95345
v 46.85737 12.58745 124.29792
v 42.89105 14.29342 122.45902
v 45.78674 11.63274 126.71552
v 50.16155 11.53502 122.40208
v 59.26606 6.36402 126.35923
v 50.07661 9.12657 129.08882
v 45.10686 13.46487 122.40851
v 43.36729 12.21643 127.65009
v 35.58023 17.14973 122.28996
v 41.46818 13.08008 127.27286
v 46.55540 11.38702 119.92712
v 43.90165 13.07261 116.76530
v 44.77798 11.89206 122.61079
v 49.88027 9.93028 118.84726
v 54.97116 6.50947 126.35349
v 47.45914 10.07788 126.66068
v 45.73539 12.11438 117.36089
v 42.46643 12.95294 122.99127
v 37.96944 16.22863 114.40651
v 41.04264 13.76724 121.98785
v 40.63081 12.56603 128.41069
v 34.86998 14.20374 128.34470
v 40.19003 10.43015 130.98163
v 43.79222 13.70491 126.46243
v 54.06505 8.80844 130.13004
v 45.65763 7.78130 132.98340
v 38.17127 14.33859 126.83455
v 37.77252 9.90677 132.06731
v 28.21228 15.23350 128.80310
v 35.54939 10.48175 131.83725
v 38.40067 7.36407 134.22971
v 31.79035 8.49900 133.71133
v 39.09631 4.37345 136.64659
v 41.30362 9.88026 131.97710
v 57.37490 6.57759 134.39554
v 46.68769 2.55854 137.66281
v 53.70522 4.97725 135.23181
v 34.66237 8.95623 133.15469
v 36.68303 2.91332 137.99956
v 22.03828 7.35732 135.26350
v 33.87584 2.98093 138.12039
v 69.21350 -9.29720 127.97412
v 66.07367 -11.59635 132.07829
v 62.80848 -11.67315 127.87138
v 61.11782 -11.72336 132.69540
v 65.81918 -9.97930 137.04289
v 70.16756 -8.11260 133.52203
v 46.85736 -12.71892 124.29792
v 45.78674 -11.76420 126.71552
v 42.89104 -14.42488 122.45902
v 50.16155 -11.66648 122.40208
v 59.26606 -6.49549 126.35923
v 50.07661 -9.25803 129.08882
v 45.10686 -13.59633 122.40851
v 43.36729 -12.34789 127.65009
v 41.46817 -13.21154 127.27286
v 35.58022 -17.28119 122.28996
v 46.55540 -11.51849 119.92712
v 44.77797 -12.02352 122.61079
v 43.90164 -13.20407 116.76530
v 49.88027 -10.06174 118.84726
v 54.97116 -6.64093 126.35349
v 47.45914 -10.20935 126.66068
v 45.73538 -12.24585 117.36089
v 42.46643 -13.08440 122.99127
v 41.04263 -13.89870 121.98785
v 37.96943 -16.36008 114.40651
v 40.63081 -12.69750 128.41069
v 40.19003 -10.56161 130.98163
v 34.86997 -14.33520 128.34470
v 43.79221 -13.83637 126.46243
v 54.06505 -8.93991 130.13004
v 45.65763 -7.91276 132.98340
v 38.17126 -14.47005 126.83455
v 37.77252 -10.03823 132.06731
v 35.54939 -10.61320 131.83725
v 28.21227 -15.36495 128.80310
v 38.40067 -7.49553 134.22971
v 39.09631 -4.50491 136.64659
v 31.79035 -8.63046 133.71133
v 41.30362 -10.01172 131.97710
v 57.37490 -6.70906 134.39554
v 46.68769 -2.69000 137.66281
v 53.70522 -5.10872 135.23181
v 34.66237 -9.08769 133.15469
v 36.68303 -3.04478 137.99956
v 33.87584 -3.11239 138.12039
v 22.03828 -7.48877 135.26350
vt 0.136310 0.333894
vt 0.157818 0.329488
vt 0.120123 0.285571
vt 0.098901 0.301212
vt 0.135946 0.052275
vt 0.114071 0.106125
vt 0.172835 0.112544
vt 0.207155 0.064715
vt 0.172590 0.376102
vt 0.146546 0.378476
vt 0.207155 0.010814
vt 0.100125 0.382329
vt 0.006225 0.399799
vt 0.029377 0.397167
vt 0.023146 0.318720
vt 0.003743 0.322721
vt 0.039792 0.154700
vt 0.045270 0.116967
vt 0.006225 0.199047
vt 0.025431 0.202798
vt 0.069036 0.010814
vt 0.056468 0.089974
vt 0.158206 0.429893
vt 0.108834 0.458439
vt 0.706588 0.424523
vt 0.789421 0.401276
vt 0.816955 0.505397
vt 0.721989 0.536793
vt 0.552309 0.210625
vt 0.622659 0.167996
vt 0.653899 0.245705
vt 0.547617 0.276544
vt 0.822480 0.187314
vt 0.899274 0.165415
vt 0.849186 0.296845
vt 0.616751 0.714333
vt 0.622772 0.732036
vt 0.564873 0.766733
vt 0.560658 0.714560
vt 0.611539 0.687429
vt 0.652387 0.712904
vt 0.627613 0.891728
vt 0.585229 0.916833
vt 0.558344 0.884101
vt 0.649881 0.905665
vt 0.599199 0.941432
vt 0.332722 0.911279
vt 0.420093 0.930675
vt 0.415177 0.972523
vt 0.302836 0.954516
vt 0.424959 0.820612
vt 0.512566 0.820670
vt 0.515096 0.881319
vt 0.488285 0.877372
vt 0.534115 0.933290
vt 0.543867 0.963691
vt 0.506561 0.977838
vt 0.497872 0.949705
vt 0.495700 0.917398
vt 0.517356 0.906984
vt 0.494129 0.935991
vt 0.429765 0.885492
vt 0.499840 0.897359
vt 0.298282 0.865808
vt 0.254705 0.899556
vt 0.211573 0.818060
vt 0.246931 0.788927
vt 0.180770 0.772866
vt 0.220154 0.739544
vt 0.664953 0.937563
vt 0.753051 0.937519
vt 0.709489 0.993790
vt 0.394434 0.668504
vt 0.496965 0.662241
vt 0.498232 0.736066
vt 0.417510 0.741022
vt 0.612810 0.439985
vt 0.598583 0.358662
vt 0.485253 0.451833
vt 0.468079 0.363128
vt 0.608910 0.539900
vt 0.480323 0.511338
vt 0.816781 0.790625
vt 0.807407 0.698044
vt 0.876583 0.689925
vt 0.878488 0.791977
vt 0.995438 0.712525
vt 0.939774 0.704944
vt 0.957476 0.673891
vt 0.887848 0.650589
vt 0.924228 0.652320
vt 0.756342 0.813315
vt 0.821259 0.937814
vt 0.897759 0.937689
vt 0.943291 0.783920
vt 0.985671 0.937648
vt 0.759119 0.784160
vt 0.716322 0.139893
vt 0.750191 0.217777
vt 0.774118 0.312255
vt 0.865653 0.369579
vt 0.691028 0.340533
vt 0.697407 0.796779
vt 0.919585 0.286952
vt 0.931085 0.336327
vt 0.208331 0.594958
vt 0.269349 0.543634
vt 0.324999 0.633540
vt 0.267650 0.700273
vt 0.322741 0.749855
vt 0.362833 0.833973
vt 0.645807 0.858779
vt 0.672593 0.871149
vt 0.789440 0.612312
vt 0.790873 0.532964
vt 0.822178 0.608056
vt 0.446505 0.567007
vt 0.508969 0.526913
vt 0.425521 0.536442
vt 0.856951 0.600435
vt 0.893676 0.501709
vt 0.888846 0.609320
vt 0.924920 0.605183
vt 0.444098 0.605854
vt 0.536059 0.589297
vt 0.953423 0.619648
vt 0.986930 0.535391
vt 0.507452 0.638968
vt 0.427641 0.634157
vt 0.992001 0.638651
vt 0.803886 0.652324
vt 0.850802 0.647634
vt 0.393634 0.562333
vt 0.391015 0.605161
vt 0.779693 0.656259
vt 0.162004 0.653305
vt 0.585575 0.827888
vt 0.643542 0.825884
vt 0.506845 0.794572
vt 0.358921 0.874780
vt 0.808682 0.126741
vt 0.889081 0.103467
vt 0.707792 0.708285
vt 0.748635 0.700535
vt 0.897702 0.994314
vt 0.186021 0.236212
vt 0.186021 0.173759
vt 0.224446 0.219943
vt 0.184307 0.333948
vt 0.186021 0.274820
vt 0.224251 0.314794
vt 0.234598 0.235611
vt 0.272702 0.221522
vt 0.272702 0.318223
vt 0.234598 0.275614
vt 0.234598 0.324800
vt 0.055581 0.450714
vt 0.975267 0.280099
vt 0.987916 0.322961
vt 0.128616 0.948801
vt 0.190830 0.928204
vt 0.188462 0.990319
vt 0.250244 0.947106
vt 0.227209 0.871049
vt 0.150486 0.872047
vt 0.718074 0.009049
vt 0.818604 0.014277
vt 0.066795 0.256730
vt 0.019023 0.263362
vt 0.346619 0.416407
vt 0.344881 0.464395
vt 0.725814 0.615725
vt 0.736412 0.665840
vt 0.689155 0.676086
vt 0.710717 0.616782
vt 0.739968 0.610969
vt 0.350308 0.568354
vt 0.348635 0.595705
vt 0.720631 0.590900
vt 0.319920 0.579349
vt 0.264860 0.425354
vt 0.271319 0.391421
vt 0.338202 0.361440
vt 0.454345 0.300890
vt 0.349993 0.316744
vt 0.359248 0.284892
vt 0.437191 0.156690
vt 0.360270 0.204112
vt 0.306553 0.186164
vt 0.328319 0.147898
vt 0.312614 0.329073
vt 0.281798 0.278572
vt 0.292854 0.244125
vt 0.272345 0.359887
vt 0.176421 0.364580
vt 0.897351 0.453848
vt 0.890890 0.028729
vt 0.514756 0.017995
vt 0.629387 0.006081
vt 0.629022 0.095776
vt 0.529547 0.145250
vt 0.133470 0.525090
vt 0.160476 0.500393
vt 0.987916 0.381022
vt 0.959586 0.404022
vt 0.079426 0.248407
vt 0.137779 0.157179
vt 0.003743 0.259814
vt 0.071964 0.161818
vt 0.061150 0.193232
vt 0.041066 0.201398
vt 0.098392 0.217199
vt 0.137393 0.204229
vt 0.232883 0.174171
vt 0.272702 0.174504
vt 0.224446 0.174075
vt 0.271469 0.148420
vt 0.274559 0.097256
vt 0.394699 0.045816
vt 0.197460 0.154971
vt 0.091557 0.595757
vt 0.113591 0.553903
vt 0.058179 0.652206
vt 0.122458 0.702155
vt 0.959618 0.059626
vt 0.967003 0.145297
vt 0.160265 0.256666
vt 0.681401 0.848088
vt 0.686179 0.825421
vt 0.560019 0.671161
vt 0.234598 0.341325
vt 0.046454 0.842811
vt 0.094872 0.841405
vt 0.035802 0.778275
vt 0.012045 0.871116
vt 0.042856 0.985258
vt 0.117640 0.911118
vt 0.028027 0.806352
vt 0.117441 0.816105
vt 0.110682 0.782772
vt 0.070553 0.682422
vt 0.046454 0.842811
vt 0.094872 0.841405
vt 0.035802 0.778275
vt 0.012045 0.871116
vt 0.042856 0.985258
vt 0.117640 0.911118
vt 0.028027 0.806352
vt 0.117441 0.816105
vt 0.110682 0.782772
vt 0.070553 0.682422
vt 0.046454 0.842811
vt 0.094872 0.841405
vt 0.035802 0.778275
vt 0.012045 0.871116
vt 0.042856 0.985258
vt 0.117640 0.911118
vt 0.028027 0.806352
vt 0.117441 0.816105
vt 0.110682 0.782772
vt 0.070553 0.682422
vt 0.046454 0.842811
vt 0.094872 0.841405
vt 0.035802 0.778275
vt 0.012045 0.871116
vt 0.042856 0.985258
vt 0.117640 0.911118
vt 0.081009 0.984927
vt 0.028027 0.806352
vt 0.117441 0.816105
vt 0.110682 0.782772
vt 0.070553 0.682422
vt 0.046454 0.842811
vt 0.094872 0.841405
vt 0.035802 0.778275
vt 0.012045 0.871116
vt 0.042856 0.985258
vt 0.117640 0.911118
vt 0.028027 0.806352
vt 0.110682 0.782772
vt 0.070553 0.682422
vt 0.017389 0.513402
vt 0.062348 0.512033
vt 0.037531 0.460051
vt 0.015311 0.609794
vt 0.069298 0.612816
vt 0.017389 0.513402
vt 0.062348 0.512033
vt 0.037531 0.460051
vt 0.015311 0.609794
vt 0.069298 0.612816
vt 0.017389 0.513402
vt 0.062348 0.512033
vt 0.037531 0.460051
vt 0.015311 0.609794
vt 0.069298 0.612816
vt 0.017389 0.513402
vt 0.062348 0.512033
vt 0.037531 0.460051
vt 0.015311 0.609794
vt 0.069298 0.612816
vt 0.226868 0.452467
vt 0.136310 0.333894
vt 0.098901 0.301212
vt 0.120123 0.285571
vt 0.157818 0.329488
vt 0.135946 0.052275
vt 0.207155 0.064715
vt 0.172835 0.112544
vt 0.114071 0.106125
vt 0.172590 0.376102
vt 0.146546 0.378476
vt 0.207155 0.010814
vt 0.100125 0.382329
vt 0.006225 0.399799
vt 0.003743 0.322721
vt 0.023146 0.318720
vt 0.029377 0.397167
vt 0.039792 0.154700
vt 0.025431 0.202798
vt 0.006225 0.199047
vt 0.045270 0.116967
vt 0.056468 0.089974
vt 0.069036 0.010814
vt 0.158206 0.429893
vt 0.108834 0.458439
vt 0.706588 0.424523
vt 0.789421 0.401276
vt 0.552309 0.210625
vt 0.547617 0.276544
vt 0.653899 0.245705
vt 0.622659 0.167996
vt 0.822480 0.187314
vt 0.849186 0.296845
vt 0.899274 0.165415
vt 0.616751 0.714333
vt 0.560658 0.714560
vt 0.564873 0.766733
vt 0.622772 0.732036
vt 0.627613 0.891728
vt 0.558344 0.884101
vt 0.585229 0.916833
vt 0.332722 0.911279
vt 0.420093 0.930675
vt 0.424959 0.820612
vt 0.488285 0.877372
vt 0.515096 0.881319
vt 0.512566 0.820670
vt 0.534115 0.933290
vt 0.497872 0.949705
vt 0.495700 0.917398
vt 0.494129 0.935991
vt 0.517356 0.906984
vt 0.429765 0.885492
vt 0.499840 0.897359
vt 0.298282 0.865808
vt 0.246931 0.788927
vt 0.220154 0.739544
vt 0.664953 0.937563
vt 0.709489 0.993790
vt 0.753051 0.937519
vt 0.417510 0.741022
vt 0.498232 0.736066
vt 0.598583 0.358662
vt 0.612810 0.439985
vt 0.468079 0.363128
vt 0.485253 0.451833
vt 0.816781 0.790625
vt 0.878488 0.791977
vt 0.876583 0.689925
vt 0.807407 0.698044
vt 0.995438 0.712525
vt 0.957476 0.673891
vt 0.939774 0.704944
vt 0.887848 0.650589
vt 0.924228 0.652320
vt 0.821259 0.937814
vt 0.756342 0.813315
vt 0.897759 0.937689
vt 0.985671 0.937648
vt 0.943291 0.783920
vt 0.759119 0.784160
vt 0.750191 0.217777
vt 0.716322 0.139893
vt 0.865653 0.369579
vt 0.774118 0.312255
vt 0.691028 0.340533
vt 0.697407 0.796779
vt 0.931085 0.336327
vt 0.919585 0.286952
vt 0.208331 0.594958
vt 0.267650 0.700273
vt 0.322741 0.749855
vt 0.362833 0.833973
vt 0.645807 0.858779
vt 0.789440 0.612312
vt 0.822178 0.608056
vt 0.790873 0.532964
vt 0.446505 0.567007
vt 0.425521 0.536442
vt 0.508969 0.526913
vt 0.856951 0.600435
vt 0.888846 0.609320
vt 0.893676 0.501709
vt 0.924920 0.605183
vt 0.444098 0.605854
vt 0.536059 0.589297
vt 0.953423 0.619648
vt 0.986930 0.535391
vt 0.507452 0.638968
vt 0.427641 0.634157
vt 0.992001 0.638651
vt 0.803886 0.652324
vt 0.850802 0.647634
vt 0.391015 0.605161
vt 0.393634 0.562333
vt 0.779693 0.656259
vt 0.162004 0.653305
vt 0.643542 0.825884
vt 0.585575 0.827888
vt 0.506845 0.794572
vt 0.358921 0.874780
vt 0.808682 0.126741
vt 0.889081 0.103467
vt 0.748635 0.700535
vt 0.707792 0.708285
vt 0.897702 0.994314
vt 0.186021 0.236212
vt 0.186021 0.173759
vt 0.184307 0.333948
vt 0.186021 0.274820
vt 0.234598 0.235611
vt 0.234598 0.275614
vt 0.234598 0.324800
vt 0.055581 0.450714
vt 0.987916 0.322961
vt 0.975267 0.280099
vt 0.128616 0.948801
vt 0.188462 0.990319
vt 0.190830 0.928204
vt 0.250244 0.947106
vt 0.227209 0.871049
vt 0.150486 0.872047
vt 0.066795 0.256730
vt 0.019023 0.263362
vt 0.346619 0.416407
vt 0.725814 0.615725
vt 0.710717 0.616782
vt 0.689155 0.676086
vt 0.736412 0.665840
vt 0.739968 0.610969
vt 0.348635 0.595705
vt 0.350308 0.568354
vt 0.720631 0.590900
vt 0.319920 0.579349
vt 0.271319 0.391421
vt 0.338202 0.361440
vt 0.454345 0.300890
vt 0.359248 0.284892
vt 0.349993 0.316744
vt 0.437191 0.156690
vt 0.328319 0.147898
vt 0.306553 0.186164
vt 0.360270 0.204112
vt 0.281798 0.278572
vt 0.312614 0.329073
vt 0.292854 0.244125
vt 0.272345 0.359887
vt 0.629022 0.095776
vt 0.529547 0.145250
vt 0.160476 0.500393
vt 0.133470 0.525090
vt 0.079426 0.248407
vt 0.137779 0.157179
vt 0.003743 0.259814
vt 0.071964 0.161818
vt 0.041066 0.201398
vt 0.061150 0.193232
vt 0.098392 0.217199
vt 0.137393 0.204229
vt 0.232883 0.174171
vt 0.271469 0.148420
vt 0.113591 0.553903
vt 0.091557 0.595757
vt 0.967003 0.145297
vt 0.160265 0.256666
vt 0.046454 0.842811
vt 0.035802 0.778275
vt 0.094872 0.841405
vt 0.012045 0.871116
vt 0.042856 0.985258
vt 0.117640 0.911118
vt 0.028027 0.806352
vt 0.117441 0.816105
vt 0.070553 0.682422
vt 0.110682 0.782772
vt 0.046454 0.842811
vt 0.035802 0.778275
vt 0.094872 0.841405
vt 0.012045 0.871116
vt 0.042856 0.985258
vt 0.117640 0.911118
vt 0.028027 0.806352
vt 0.117441 0.816105
vt 0.070553 0.682422
vt 0.110682 0.782772
vt 0.046454 0.842811
vt 0.035802 0.778275
vt 0.094872 0.841405
vt 0.012045 0.871116
vt 0.042856 0.985258
vt 0.117640 0.911118
vt 0.028027 0.806352
vt 0.117441 0.816105
vt 0.070553 0.682422
vt 0.110682 0.782772
vt 0.046454 0.842811
vt 0.035802 0.778275
vt 0.094872 0.841405
vt 0.012045 0.871116
vt 0.042856 0.985258
vt 0.117640 0.911118
vt 0.081009 0.984927
vt 0.028027 0.806352
vt 0.117441 0.816105
vt 0.070553 0.682422
vt 0.110682 0.782772
vt 0.046454 0.842811
vt 0.035802 0.778275
vt 0.094872 0.841405
vt 0.012045 0.871116
vt 0.042856 0.985258
vt 0.117640 0.911118
vt 0.028027 0.806352
vt 0.070553 0.682422
vt 0.110682 0.782772
vt 0.017389 0.513402
vt 0.037531 0.460051
vt 0.062348 0.512033
vt 0.069298 0.612816
vt 0.015311 0.609794
vt 0.017389 0.513402
vt 0.037531 0.460051
vt 0.062348 0.512033
vt 0.069298 0.612816
vt 0.015311 0.609794
vt 0.017389 0.513402
vt 0.037531 0.460051
vt 0.062348 0.512033
vt 0.069298 0.612816
vt 0.015311 0.609794
vt 0.017389 0.513402
vt 0.037531 0.460051
vt 0.062348 0.512033
vt 0.069298 0.612816
vt 0.015311 0.609794
vt 0.046454 0.842811
vt 0.035802 0.778275
vt 0.094872 0.841405
vt 0.012045 0.871116
vt 0.042856 0.985258
vt 0.117640 0.911118
vt 0.028027 0.806352
vt 0.117441 0.816105
vt 0.070553 0.682422
vt 0.110682 0.782772
vt 0.046454 0.842811
vt 0.035802 0.778275
vt 0.094872 0.841405
vt 0.012045 0.871116
vt 0.042856 0.985258
vt 0.117640 0.911118
vt 0.028027 0.806352
vt 0.117441 0.816105
vt 0.070553 0.682422
vt 0.110682 0.782772
vt 0.046454 0.842811
vt 0.035802 0.778275
vt 0.094872 0.841405
vt 0.012045 0.871116
vt 0.042856 0.985258
vt 0.117640 0.911118
vt 0.028027 0.806352
vt 0.117441 0.816105
vt 0.070553 0.682422
vt 0.110682 0.782772
vt 0.046454 0.842811
vt 0.035802 0.778275
vt 0.094872 0.841405
vt 0.012045 0.871116
vt 0.042856 0.985258
vt 0.117640 0.911118
vt 0.081009 0.984927
vt 0.028027 0.806352
vt 0.117441 0.816105
vt 0.070553 0.682422
vt 0.110682 0.782772
vt 0.128616 0.948801
vt 0.190830 0.928204
vt 0.188462 0.990319
vt 0.250244 0.947106
vt 0.227209 0.871049
vt 0.150486 0.872047
vt 0.046454 0.842811
vt 0.094872 0.841405
vt 0.035802 0.778275
vt 0.012045 0.871116
vt 0.042856 0.985258
vt 0.117640 0.911118
vt 0.028027 0.806352
vt 0.117441 0.816105
vt 0.110682 0.782772
vt 0.070553 0.682422
vt 0.046454 0.842811
vt 0.094872 0.841405
vt 0.035802 0.778275
vt 0.012045 0.871116
vt 0.042856 0.985258
vt 0.117640 0.911118
vt 0.028027 0.806352
vt 0.117441 0.816105
vt 0.110682 0.782772
vt 0.070553 0.682422
vt 0.046454 0.842811
vt 0.094872 0.841405
vt 0.035802 0.778275
vt 0.012045 0.871116
vt 0.042856 0.985258
vt 0.117640 0.911118
vt 0.028027 0.806352
vt 0.117441 0.816105
vt 0.110682 0.782772
vt 0.070553 0.682422
vt 0.046454 0.842811
vt 0.094872 0.841405
vt 0.035802 0.778275
vt 0.012045 0.871116
vt 0.042856 0.985258
vt 0.117640 0.911118
vt 0.081009 0.984927
vt 0.028027 0.806352
vt 0.117441 0.816105
vt 0.110682 0.782772
vt 0.070553 0.682422
vn 0.24607 0.78346 0.57064
vn -0.74907 0.03260 0.66169
vn -0.77987 0.07770 0.62110
vn 0.36617 0.83034 0.42008
vn -0.69739 -0.71082 -0.09160
vn -0.72309 -0.68556 -0.08461
vn -0.77987 0.07770 0.62110
vn -0.74907 0.03260 0.66169
vn -0.02779 0.72170 0.69165
vn 0.37566 0.78345 0.49505
vn -0.02779 0.72170 0.69165
vn 0.56873 0.81398 0.11825
vn 0.46685 0.71752 -0.51694
vn 0.68695 0.63204 -0.35864
vn 0.66019 0.68010 -0.31877
vn -0.23631 -0.28563 -0.92875
vn 0.51054 0.84948 0.13316
vn -0.36217 0.92416 0.12149
vn -0.60837 0.11111 -0.78584
vn 0.52955 0.74862 -0.39893
vn 0.46685 0.71752 -0.51694
vn -0.23631 -0.28563 -0.92875
vn 0.27184 0.83797 0.47319
vn 0.44600 0.89039 0.09107
vn -0.17903 0.71520 0.67560
vn 0.03695 0.71517 0.69797
vn -0.10284 0.00000 0.99470
vn -0.31760 0.00000 0.94823
vn -0.96933 0.24484 -0.02132
vn 0.09629 0.98360 -0.15249
vn -0.18985 0.98181 -0.00116
vn -0.49496 0.58174 -0.64544
vn 0.23109 0.97201 -0.04232
vn 0.46685 0.71752 -0.51694
vn 0.16216 0.96607 0.20103
vn 0.43757 0.74122 -0.50905
vn 0.42630 0.76001 -0.49057
vn 0.34091 0.90599 -0.25091
vn 0.30788 0.70582 -0.63799
vn 0.53711 -0.00000 -0.84352
vn 0.70528 -0.00000 -0.70893
vn 0.50374 0.73305 0.45703
vn 0.33085 0.54882 0.76768
vn 0.30454 0.92600 0.22312
vn 0.64714 -0.00000 0.76238
vn 0.37815 -0.00000 0.92574
vn -0.33582 0.56085 0.75675
vn -0.19616 0.53834 0.81958
vn -0.21202 0.00000 0.97727
vn -0.50870 0.00000 0.86094
vn 0.23494 0.97192 -0.01334
vn 0.30184 0.94993 0.08074
vn 0.27026 0.94677 0.17487
vn 0.40145 0.89699 0.18508
vn 0.43042 0.49413 0.75536
vn 0.25957 -0.00000 0.96572
vn 0.32627 -0.00000 0.94528
vn 0.18153 0.12842 0.97496
vn 0.28036 0.86763 0.41064
vn 0.32772 0.92239 0.20442
vn 0.02321 0.53483 0.84464
vn 0.09568 0.94067 0.32554
vn 0.35492 0.93318 0.05667
vn -0.66621 0.65520 0.35620
vn -0.88155 0.00000 0.47210
vn -0.99962 0.00000 -0.02765
vn -0.70597 0.70182 -0.09516
vn -0.99950 0.00000 0.03154
vn -0.60651 0.79262 0.06239
vn -0.20678 -0.48029 -0.85239
vn -0.96933 0.24484 -0.02132
vn -0.49496 0.58174 -0.64544
vn 0.38682 0.00000 -0.92215
vn 0.08370 0.00000 -0.99649
vn 0.20514 0.75437 -0.62358
vn 0.08572 0.85394 -0.51327
vn -0.46393 0.59166 0.65932
vn -0.41568 0.89872 0.13972
vn -0.60959 0.66054 0.43828
vn -0.38588 0.91526 0.11573
vn -0.55346 0.00000 0.83288
vn -0.76169 -0.00000 0.64794
vn 0.00597 0.99599 -0.08930
vn -0.34453 0.89852 0.27194
vn 0.75045 0.24385 0.61429
vn 0.92112 -0.20521 -0.33079
vn -0.34284 -0.80981 -0.47609
vn -0.14031 -0.95264 0.26981
vn -0.12787 -0.86854 0.47884
vn 0.72012 0.06424 0.69087
vn 0.51765 -0.38681 0.76316
vn -0.99321 -0.00800 0.11603
vn 0.09629 0.98360 -0.15249
vn 0.76483 0.02758 -0.64364
vn -0.06064 -0.99336 -0.09773
vn -0.20678 -0.48029 -0.85239
vn -0.99802 -0.02857 -0.05600
vn 0.39856 0.68789 -0.60660
vn 0.29271 0.95593 0.02289
vn 0.13416 0.96397 0.22968
vn 0.08265 0.65062 0.75490
vn 0.02412 0.95430 0.29788
vn -0.06064 -0.99336 -0.09773
vn -0.02779 0.72170 0.69165
vn 0.08202 0.48301 0.87177
vn 0.51058 0.85983 -0.00146
vn 0.90792 -0.00000 -0.41914
vn 0.96494 -0.00000 -0.26247
vn 0.37736 0.91707 -0.12877
vn -0.02635 0.91761 -0.39661
vn -0.19830 0.98014 0.00255
vn 0.55579 0.82553 0.09793
vn 0.91855 -0.00000 0.39530
vn -0.36720 0.89199 -0.26367
vn 0.79255 0.58192 0.18229
vn 0.13379 0.42963 0.89304
vn 0.90243 0.22330 -0.36846
vn 0.79255 0.58192 0.18229
vn -0.36720 0.89199 -0.26367
vn 0.90243 0.22330 -0.36846
vn 0.78727 0.04775 0.61475
vn 0.47706 0.03217 0.87828
vn 0.79861 -0.11244 -0.59125
vn 0.79861 -0.11244 -0.59125
vn 0.78727 0.04775 0.61475
vn 0.32553 -0.34698 0.87957
vn 0.81166 -0.28578 0.50945
vn 0.81166 -0.28578 0.50945
vn -0.16648 -0.96197 -0.21654
vn -0.16648 -0.96197 -0.21654
vn -0.34366 0.84844 0.40255
vn 0.40179 0.50660 0.76284
vn -0.39919 0.79210 -0.46177
vn -0.34284 -0.80981 -0.47609
vn -0.39919 0.79210 -0.46177
vn -0.11368 0.78231 0.61243
vn 0.34677 0.93781 0.01643
vn 0.54082 0.83723 -0.08093
vn 0.28159 0.92978 -0.23712
vn -0.29971 0.85142 0.43041
vn 0.41067 0.63849 -0.65091
vn 0.62427 0.52597 -0.57762
vn -0.14031 -0.95264 0.26981
vn -0.95852 -0.06980 0.27634
vn 0.39856 0.68789 -0.60660
vn -0.10545 -0.61176 0.78399
vn -0.15926 -0.49074 0.85663
vn -0.07691 0.00000 0.99704
vn 0.11564 -0.34446 0.93165
vn 0.05770 -0.45695 0.88762
vn 0.15892 -0.00000 0.98729
vn -0.10652 -0.43304 -0.89506
vn 0.41380 -0.00000 -0.91037
vn -0.32953 0.00000 -0.94415
vn -0.26562 -0.59293 -0.76018
vn -0.48669 -0.43164 -0.75949
vn 0.66930 0.68476 -0.28835
vn 0.27184 0.83797 0.47319
vn 0.05503 0.58538 0.80889
vn 0.50063 0.86001 -0.09878
vn 0.34541 0.93460 0.08491
vn 0.18692 0.97409 -0.12729
vn 0.04487 0.98653 0.15728
vn 0.32415 0.89448 0.30796
vn 0.60326 0.77927 0.16977
vn 0.10167 -0.00000 -0.99482
vn 0.40645 -0.00000 -0.91367
vn 0.56792 0.74276 0.35465
vn 0.63881 0.67546 -0.36833
vn -0.65981 0.69050 0.29642
vn -0.86727 0.00000 0.49783
vn -0.58384 -0.00402 0.81186
vn -0.80352 -0.05065 0.59312
vn -0.34284 -0.80981 -0.47609
vn -0.40087 -0.76847 -0.49875
vn -0.31753 0.55823 -0.76652
vn -0.31753 0.55823 -0.76652
vn -0.40087 -0.76847 -0.49875
vn -0.99420 0.00549 -0.10742
vn -0.99420 0.00549 -0.10742
vn -0.96159 0.00000 0.27450
vn -0.66918 0.73641 0.09946
vn -0.47276 0.83649 -0.27709
vn 0.39088 -0.03129 -0.91991
vn -0.35133 0.93604 0.01997
vn 0.64073 0.12952 -0.75676
vn 0.39088 -0.03129 -0.91991
vn 0.64073 0.12952 -0.75676
vn -0.13029 -0.96761 -0.21623
vn -0.47276 0.83649 -0.27709
vn -0.13029 -0.96761 -0.21623
vn -0.26995 0.92753 -0.25849
vn -0.26995 0.92753 -0.25849
vn 0.36331 0.33989 -0.86745
vn -0.82139 0.00000 -0.57036
vn 0.05341 -0.00000 0.99857
vn 0.64107 -0.00000 -0.76748
vn -0.37947 0.00000 -0.92520
vn -0.26005 0.00000 -0.96559
vn -0.20678 -0.48029 -0.85239
vn -0.49496 0.58174 -0.64544
vn 0.44600 0.89039 0.09107
vn 0.66930 0.68476 -0.28835
vn -0.02650 -0.00000 0.99965
vn 0.08548 -0.00000 0.99634
vn -0.62668 -0.04944 0.77770
vn -0.62668 -0.04944 0.77770
vn -0.36740 -0.11522 -0.92290
vn -0.36740 -0.11522 -0.92290
vn -0.02325 -0.01226 0.99965
vn 0.64676 0.61140 0.45595
vn -0.60837 0.11111 -0.78584
vn -0.02325 -0.01226 0.99965
vn 0.64195 -0.18456 -0.74420
vn 0.99934 -0.00000 -0.03632
vn -0.24617 0.00000 0.96923
vn 0.36331 0.33989 -0.86745
vn 0.70290 -0.00000 -0.71129
vn 0.37312 -0.00000 -0.92778
vn -0.82139 0.00000 -0.57036
vn 0.05503 0.58538 0.80889
vn 0.27184 0.83797 0.47319
vn -0.02650 -0.00000 0.99965
vn -0.70758 -0.00000 0.70664
vn 0.85207 -0.00000 -0.52342
vn 0.66930 0.68476 -0.28835
vn -0.36217 0.92416 0.12149
vn 0.99993 -0.00000 -0.01157
vn 0.99694 -0.00000 -0.07819
vn 0.26260 0.00000 -0.96490
vn -0.61804 0.00000 -0.78614
vn 0.32423 0.89364 0.31031
vn 0.31025 0.87572 0.36996
vn 0.28688 0.88783 0.35980
vn 0.38236 0.90982 0.16133
vn 0.36730 0.86939 0.33053
vn 0.34628 0.88567 0.30932
vn 0.35491 0.92924 0.10271
vn 0.33795 0.88410 0.32273
vn 0.33795 0.88410 0.32273
vn 0.33795 0.88410 0.32273
vn 0.43004 0.89528 0.11634
vn 0.43004 0.89528 0.11634
vn 0.43004 0.89528 0.11634
vn 0.43004 0.89528 0.11634
vn 0.43004 0.89528 0.11634
vn 0.43004 0.89528 0.11635
vn 0.43004 0.89528 0.11634
vn 0.43004 0.89528 0.11635
vn 0.43004 0.89528 0.11634
vn 0.43004 0.89528 0.11634
vn 0.14623 0.74845 0.64687
vn 0.14477 0.73739 0.65978
vn 0.16544 0.70670 0.68790
vn 0.12759 0.75204 0.64665
vn 0.12759 0.75204 0.64665
vn 0.12759 0.75204 0.64665
vn 0.12759 0.75204 0.64665
vn 0.12759 0.75204 0.64664
vn 0.14699 0.69098 0.70778
vn 0.15548 0.69090 0.70604
vn 0.03421 0.63861 0.76877
vn 0.03899 0.62350 0.78085
vn 0.04847 0.63461 0.77131
vn 0.03448 0.64423 0.76405
vn 0.16027 0.36534 0.91697
vn 0.22846 0.22341 0.94757
vn 0.43601 -0.71258 0.54965
vn 0.04847 0.63460 0.77132
vn 0.04847 0.63461 0.77131
vn 0.04847 0.63461 0.77131
vn 0.04847 0.63461 0.77131
vn -0.12650 0.98909 -0.07553
vn -0.15982 0.98576 -0.05226
vn -0.13562 0.99023 -0.03254
vn -0.12323 0.98909 -0.08067
vn -0.16135 0.98280 -0.08987
vn -0.23034 0.97266 -0.02975
vn -0.14067 0.98941 -0.03579
vn -0.14734 0.98845 -0.03543
vn -0.14601 0.98875 -0.03253
vn 0.63906 0.73328 0.23215
vn 0.63906 0.73328 0.23215
vn 0.63906 0.73328 0.23215
vn 0.63906 0.73328 0.23215
vn 0.63906 0.73328 0.23216
vn 0.67666 0.73459 0.05002
vn 0.70619 0.70265 0.08712
vn 0.67666 0.73459 0.05002
vn 0.72013 0.68575 0.10563
vn 0.75830 0.63185 0.16046
vn 0.67172 0.67474 0.30580
vn 0.65697 0.70127 0.27679
vn 0.67336 0.67388 0.30410
vn 0.64832 0.71453 0.26293
vn 0.62398 0.75062 0.21731
vn 0.65696 0.73406 0.17192
vn 0.64789 0.72684 0.22791
vn 0.65696 0.73406 0.17192
vn 0.64254 0.72233 0.25572
vn 0.62338 0.70527 0.33763
vn 0.85207 -0.00000 -0.52342
vn 0.24607 -0.78346 0.57064
vn 0.36617 -0.83033 0.42008
vn -0.77987 -0.07770 0.62110
vn -0.74907 -0.03260 0.66169
vn -0.69739 0.71082 -0.09160
vn -0.74907 -0.03260 0.66169
vn -0.77987 -0.07770 0.62110
vn -0.72309 0.68556 -0.08461
vn -0.02779 -0.72170 0.69165
vn 0.37566 -0.78345 0.49505
vn -0.02779 -0.72170 0.69165
vn 0.56873 -0.81398 0.11825
vn 0.46685 -0.71752 -0.51694
vn -0.23631 0.28564 -0.92875
vn 0.66019 -0.68010 -0.31877
vn 0.68695 -0.63204 -0.35864
vn 0.51054 -0.84948 0.13316
vn 0.52955 -0.74862 -0.39893
vn -0.60837 -0.11111 -0.78584
vn -0.36217 -0.92416 0.12149
vn -0.23631 0.28564 -0.92875
vn 0.46685 -0.71752 -0.51694
vn 0.27184 -0.83797 0.47319
vn 0.44600 -0.89039 0.09107
vn -0.17903 -0.71520 0.67560
vn 0.03695 -0.71517 0.69797
vn -0.96933 -0.24484 -0.02132
vn -0.49496 -0.58174 -0.64544
vn -0.18985 -0.98181 -0.00116
vn 0.09629 -0.98360 -0.15249
vn 0.23109 -0.97201 -0.04232
vn 0.16216 -0.96607 0.20103
vn 0.46685 -0.71752 -0.51694
vn 0.43757 -0.74122 -0.50905
vn 0.30788 -0.70582 -0.63799
vn 0.34091 -0.90599 -0.25091
vn 0.42630 -0.76001 -0.49057
vn 0.50374 -0.73305 0.45703
vn 0.30453 -0.92600 0.22312
vn 0.33085 -0.54882 0.76768
vn -0.33582 -0.56085 0.75675
vn -0.19616 -0.53834 0.81958
vn 0.23494 -0.97192 -0.01334
vn 0.40145 -0.89699 0.18508
vn 0.27026 -0.94677 0.17487
vn 0.30184 -0.94993 0.08074
vn 0.43042 -0.49413 0.75536
vn 0.18153 -0.12842 0.97496
vn 0.28036 -0.86763 0.41064
vn 0.02320 -0.53483 0.84464
vn 0.32772 -0.92239 0.20442
vn 0.09568 -0.94067 0.32554
vn 0.35492 -0.93318 0.05667
vn -0.66621 -0.65520 0.35620
vn -0.70597 -0.70182 -0.09516
vn -0.60651 -0.79262 0.06239
vn -0.20678 0.48029 -0.85239
vn -0.49496 -0.58174 -0.64544
vn -0.96933 -0.24484 -0.02132
vn 0.08572 -0.85394 -0.51327
vn 0.20514 -0.75437 -0.62358
vn -0.41568 -0.89872 0.13972
vn -0.46393 -0.59166 0.65932
vn -0.38588 -0.91526 0.11573
vn -0.60959 -0.66054 0.43828
vn 0.00597 -0.99599 -0.08930
vn 0.92112 0.20521 -0.33079
vn 0.75045 -0.24385 0.61429
vn -0.34453 -0.89852 0.27194
vn -0.34284 0.80981 -0.47609
vn -0.12787 0.86854 0.47884
vn -0.14031 0.95264 0.26981
vn 0.72012 -0.06424 0.69087
vn 0.51765 0.38681 0.76316
vn 0.09629 -0.98360 -0.15249
vn -0.99321 0.00801 0.11603
vn 0.76483 -0.02758 -0.64364
vn -0.20678 0.48029 -0.85239
vn -0.06064 0.99336 -0.09773
vn -0.99802 0.02857 -0.05600
vn 0.29271 -0.95593 0.02289
vn 0.39856 -0.68789 -0.60660
vn 0.08265 -0.65062 0.75490
vn 0.13416 -0.96397 0.22968
vn 0.02412 -0.95430 0.29788
vn -0.06064 0.99336 -0.09773
vn 0.08202 -0.48301 0.87177
vn -0.02779 -0.72170 0.69165
vn 0.51058 -0.85983 -0.00146
vn 0.37736 -0.91707 -0.12877
vn -0.02635 -0.91761 -0.39661
vn -0.19831 -0.98014 0.00255
vn 0.55579 -0.82553 0.09793
vn -0.36720 -0.89199 -0.26367
vn 0.13379 -0.42963 0.89304
vn 0.79255 -0.58192 0.18230
vn 0.90243 -0.22330 -0.36846
vn -0.36720 -0.89199 -0.26367
vn 0.79255 -0.58192 0.18230
vn 0.90243 -0.22330 -0.36846
vn 0.47706 -0.03217 0.87828
vn 0.78727 -0.04775 0.61475
vn 0.79861 0.11244 -0.59125
vn 0.79861 0.11244 -0.59125
vn 0.78727 -0.04775 0.61475
vn 0.32553 0.34698 0.87957
vn 0.81166 0.28578 0.50945
vn 0.81166 0.28578 0.50945
vn -0.16648 0.96197 -0.21654
vn -0.16648 0.96197 -0.21654
vn -0.34366 -0.84844 0.40255
vn 0.40179 -0.50660 0.76284
vn -0.34284 0.80981 -0.47609
vn -0.39919 -0.79210 -0.46177
vn -0.39919 -0.79210 -0.46177
vn -0.11368 -0.78231 0.61243
vn 0.54082 -0.83723 -0.08093
vn 0.34677 -0.93781 0.01643
vn 0.28159 -0.92978 -0.23712
vn -0.29971 -0.85142 0.43041
vn 0.41067 -0.63849 -0.65091
vn 0.62427 -0.52597 -0.57762
vn -0.95852 0.06980 0.27634
vn -0.14031 0.95264 0.26981
vn 0.39856 -0.68789 -0.60660
vn -0.10545 0.61176 0.78399
vn -0.15926 0.49074 0.85663
vn 0.11564 0.34446 0.93165
vn 0.05770 0.45695 0.88762
vn -0.10652 0.43304 -0.89506
vn -0.26562 0.59293 -0.76018
vn -0.48669 0.43164 -0.75949
vn 0.66930 -0.68476 -0.28835
vn 0.05503 -0.58538 0.80889
vn 0.27184 -0.83797 0.47319
vn 0.50063 -0.86001 -0.09878
vn 0.18692 -0.97409 -0.12729
vn 0.34541 -0.93460 0.08491
vn 0.04487 -0.98653 0.15728
vn 0.32415 -0.89448 0.30796
vn 0.60326 -0.77927 0.16977
vn 0.56792 -0.74276 0.35465
vn 0.63881 -0.67546 -0.36833
vn -0.65981 -0.69050 0.29642
vn -0.58384 0.00402 0.81186
vn -0.40087 0.76847 -0.49875
vn -0.34284 0.80981 -0.47609
vn -0.80352 0.05065 0.59312
vn -0.31753 -0.55823 -0.76652
vn -0.40087 0.76847 -0.49875
vn -0.31753 -0.55823 -0.76652
vn -0.99420 -0.00549 -0.10742
vn -0.99420 -0.00549 -0.10742
vn -0.66918 -0.73641 0.09946
vn -0.47276 -0.83649 -0.27709
vn 0.39088 0.03129 -0.91991
vn 0.64073 -0.12952 -0.75676
vn -0.35134 -0.93604 0.01997
vn 0.39088 0.03129 -0.91991
vn -0.47276 -0.83649 -0.27709
vn -0.13029 0.96761 -0.21623
vn 0.64073 -0.12952 -0.75676
vn -0.26995 -0.92753 -0.25849
vn -0.13029 0.96761 -0.21623
vn -0.26995 -0.92753 -0.25849
vn 0.36331 -0.33989 -0.86745
vn -0.20678 0.48029 -0.85239
vn -0.49496 -0.58174 -0.64544
vn 0.66930 -0.68476 -0.28835
vn 0.44600 -0.89039 0.09107
vn -0.62668 0.04944 0.77770
vn -0.62668 0.04944 0.77770
vn -0.36740 0.11522 -0.92290
vn -0.36740 0.11522 -0.92290
vn 0.64676 -0.61140 0.45595
vn -0.02325 0.01226 0.99965
vn -0.60837 -0.11111 -0.78584
vn -0.02325 0.01226 0.99965
vn 0.64195 0.18456 -0.74420
vn 0.36331 -0.33989 -0.86745
vn 0.27184 -0.83797 0.47319
vn 0.05503 -0.58538 0.80889
vn 0.66930 -0.68476 -0.28835
vn -0.36217 -0.92416 0.12149
vn 0.32423 -0.89364 0.31031
vn 0.28688 -0.88783 0.35980
vn 0.31025 -0.87572 0.36996
vn 0.38236 -0.90982 0.16133
vn 0.36730 -0.86939 0.33053
vn 0.34628 -0.88567 0.30932
vn 0.35491 -0.92924 0.10271
vn 0.33795 -0.88410 0.32273
vn 0.33795 -0.88410 0.32273
vn 0.33795 -0.88410 0.32273
vn 0.43004 -0.89528 0.11634
vn 0.43004 -0.89528 0.11634
vn 0.43004 -0.89528 0.11634
vn 0.43004 -0.89528 0.11634
vn 0.43004 -0.89528 0.11634
vn 0.43004 -0.89528 0.11635
vn 0.43004 -0.89528 0.11634
vn 0.43004 -0.89528 0.11635
vn 0.43004 -0.89528 0.11634
vn 0.43004 -0.89528 0.11634
vn 0.14623 -0.74845 0.64687
vn 0.16544 -0.70670 0.68790
vn 0.14477 -0.73739 0.65978
vn 0.12759 -0.75204 0.64665
vn 0.12759 -0.75204 0.64665
vn 0.12759 -0.75204 0.64665
vn 0.12759 -0.75204 0.64665
vn 0.12759 -0.75204 0.64664
vn 0.15547 -0.69090 0.70604
vn 0.14699 -0.69098 0.70778
vn 0.03421 -0.63861 0.76877
vn 0.04847 -0.63461 0.77131
vn 0.03899 -0.62350 0.78085
vn 0.03448 -0.64423 0.76405
vn 0.16027 -0.36534 0.91697
vn 0.22846 -0.22341 0.94757
vn 0.43601 0.71258 0.54965
vn 0.04847 -0.63460 0.77132
vn 0.04847 -0.63461 0.77131
vn 0.04847 -0.63461 0.77131
vn 0.04847 -0.63461 0.77131
vn -0.12650 -0.98909 -0.07553
vn -0.13562 -0.99023 -0.03254
vn -0.15982 -0.98576 -0.05226
vn -0.12323 -0.98909 -0.08067
vn -0.16135 -0.98280 -0.08987
vn -0.23034 -0.97266 -0.02975
vn -0.14067 -0.98941 -0.03579
vn -0.14601 -0.98875 -0.03253
vn -0.14734 -0.98845 -0.03543
vn 0.63906 -0.73328 0.23215
vn 0.63906 -0.73328 0.23215
vn 0.63906 -0.73328 0.23215
vn 0.63906 -0.73328 0.23216
vn 0.63906 -0.73328 0.23215
vn 0.67666 -0.73459 0.05002
vn 0.67666 -0.73459 0.05002
vn 0.70619 -0.70265 0.08712
vn 0.75830 -0.63185 0.16046
vn 0.72013 -0.68575 0.10563
vn 0.67172 -0.67474 0.30580
vn 0.67336 -0.67388 0.30410
vn 0.65697 -0.70127 0.27679
vn 0.62398 -0.75062 0.21732
vn 0.64832 -0.71453 0.26293
vn 0.65696 -0.73406 0.17192
vn 0.65696 -0.73406 0.17192
vn 0.64789 -0.72684 0.22791
vn 0.62338 -0.70527 0.33763
vn 0.64254 -0.72233 0.25572
vn -0.32423 -0.89364 -0.31031
vn -0.28688 -0.88783 -0.35980
vn -0.31025 -0.87572 -0.36996
vn -0.38236 -0.90982 -0.16133
vn -0.36730 -0.86939 -0.33053
vn -0.34628 -0.88567 -0.30932
vn -0.35491 -0.92924 -0.10271
vn -0.33795 -0.88410 -0.32273
vn -0.33795 -0.88410 -0.32273
vn -0.33795 -0.88410 -0.32273
vn -0.43004 -0.89528 -0.11634
vn -0.43004 -0.89528 -0.11634
vn -0.43004 -0.89528 -0.11634
vn -0.43004 -0.89528 -0.11634
vn -0.43004 -0.89528 -0.11634
vn -0.43004 -0.89528 -0.11635
vn -0.43004 -0.89528 -0.11634
vn -0.43004 -0.89528 -0.11635
vn -0.43004 -0.89528 -0.11634
vn -0.43004 -0.89528 -0.11634
vn -0.14623 -0.74845 -0.64687
vn -0.16544 -0.70670 -0.68790
vn -0.14477 -0.73739 -0.65978
vn -0.12759 -0.75204 -0.64665
vn -0.12759 -0.75204 -0.64665
vn -0.12759 -0.75204 -0.64665
vn -0.12759 -0.75204 -0.64665
vn -0.12759 -0.75204 -0.64665
vn -0.15548 -0.69090 -0.70604
vn -0.14699 -0.69098 -0.70778
vn -0.03421 -0.63861 -0.76877
vn -0.04847 -0.63461 -0.77131
vn -0.03899 -0.62350 -0.78085
vn -0.03448 -0.64423 -0.76405
vn -0.16027 -0.36535 -0.91697
vn -0.22846 -0.22341 -0.94757
vn -0.43601 0.71258 -0.54965
vn -0.04847 -0.63460 -0.77132
vn -0.04847 -0.63460 -0.77132
vn -0.04847 -0.63461 -0.77131
vn -0.04847 -0.63461 -0.77131
vn -0.50063 0.86001 0.09878
vn -0.34541 0.93460 -0.08491
vn -0.18692 0.97409 0.12729
vn -0.04487 0.98653 -0.15728
vn -0.32415 0.89448 -0.30796
vn -0.60326 0.77927 -0.16977
vn -0.32423 0.89364 -0.31031
vn -0.31025 0.87572 -0.36996
vn -0.28688 0.88783 -0.35980
vn -0.38236 0.90982 -0.16133
vn -0.36730 0.86939 -0.33053
vn -0.34628 0.88567 -0.30932
vn -0.35491 0.92924 -0.10271
vn -0.33795 0.88410 -0.32273
vn -0.33795 0.88410 -0.32273
vn -0.33795 0.88410 -0.32273
vn -0.43004 0.89528 -0.11634
vn -0.43004 0.89528 -0.11634
vn -0.43004 0.89528 -0.11634
vn -0.43004 0.89528 -0.11634
vn -0.43004 0.89528 -0.11634
vn -0.43004 0.89528 -0.11635
vn -0.43004 0.89528 -0.11634
vn -0.43004 0.89528 -0.11635
vn -0.43004 0.89528 -0.11634
vn -0.43004 0.89528 -0.11634
vn -0.14623 0.74845 -0.64687
vn -0.14477 0.73739 -0.65978
vn -0.16544 0.70670 -0.68790
vn -0.12759 0.75204 -0.64665
vn -0.12759 0.75204 -0.64665
vn -0.12759 0.75204 -0.64665
vn -0.12759 0.75204 -0.64665
vn -0.12759 0.75204 -0.64665
vn -0.14699 0.69098 -0.70778
vn -0.15547 0.69090 -0.70604
vn -0.03421 0.63861 -0.76877
vn -0.03899 0.62350 -0.78085
vn -0.04847 0.63461 -0.77131
vn -0.03448 0.64423 -0.76405
vn -0.16027 0.36535 -0.91697
vn -0.22846 0.22341 -0.94757
vn -0.43601 -0.71258 -0.54966
vn -0.04847 0.63460 -0.77132
vn -0.04847 0.63460 -0.77132
vn -0.04847 0.63461 -0.77131
vn -0.04847 0.63461 -0.77131
f 637/637/637 634/634/634 641/641/641
f 638/638/638 635/635/635 634/634/634
f 637/637/637 638/638/638 634/634/634
f 634/634/634 635/635/635 636/636/636
f 643/643/643 644/644/644 636/636/636
f 636/636/636 635/635/635 643/643/643
f 635/635/635 639/639/639 642/642/642
f 635/635/635 638/638/638 639/639/639
f 638/638/638 640/640/640 639/639/639
f 590/590/590 594/594/594 587/587/587
f 591/591/591 587/587/587 589/589/589
f 590/590/590 587/587/587 591/591/591
f 587/587/587 588/588/588 589/589/589
f 597/597/597 589/589/589 588/588/588
f 588/588/588 596/596/596 597/597/597
f 589/589/589 595/595/595 592/592/592
f 589/589/589 592/592/592 591/591/591
f 591/591/591 592/592/592 593/593/593
f 90/90/90 122/122/122 123/123/123
f 120/120/120 122/122/122 90/90/90
f 127/127/127 126/126/126 123/123/123
f 122/122/122 121/121/121 123/123/123
f 126/126/126 130/130/130 89/89/89
f 126/126/126 127/127/127 130/130/130
f 130/130/130 87/87/87 89/89/89
f 120/120/120 121/121/121 122/122/122
f 132/132/132 116/116/116 120/120/120
f 116/116/116 115/115/115 120/120/120
f 84/84/84 131/131/131 132/132/132
f 116/116/116 132/132/132 131/131/131
f 131/131/131 114/114/114 116/116/116
f 114/114/114 115/115/115 116/116/116
f 84/84/84 135/135/135 131/131/131
f 135/135/135 114/114/114 131/131/131
f 84/84/84 144/144/144 173/173/173
f 84/84/84 173/173/173 135/135/135
f 172/172/172 176/176/176 135/135/135
f 135/135/135 173/173/173 172/172/172
f 173/173/173 144/144/144 143/143/143
f 174/174/174 173/173/173 143/143/143
f 172/172/172 173/173/173 174/174/174
f 176/176/176 172/172/172 179/179/179
f 172/172/172 175/175/175 179/179/179
f 174/174/174 175/175/175 172/172/172
f 402/402/402 414/414/414 375/375/375
f 414/414/414 370/370/370 375/375/375
f 402/402/402 375/375/375 403/403/403
f 402/402/402 403/403/403 404/404/404
f 376/376/376 405/405/405 375/375/375
f 375/375/375 405/405/405 403/403/403
f 375/375/375 370/370/370 376/376/376
f 403/403/403 405/405/405 404/404/404
f 409/409/409 405/405/405 408/408/408
f 405/405/405 376/376/376 408/408/408
f 374/374/374 373/373/373 376/376/376
f 376/376/376 370/370/370 374/374/374
f 408/408/408 376/376/376 373/373/373
f 374/374/374 370/370/370 369/369/369
f 368/368/368 369/369/369 370/370/370
f 369/369/369 381/381/381 374/374/374
f 372/372/372 373/373/373 374/374/374
f 373/373/373 412/412/412 408/408/408
f 412/412/412 373/373/373 372/372/372
f 408/408/408 412/412/412 409/409/409
f 381/381/381 369/369/369 379/379/379
f 379/379/379 380/380/380 381/381/381
f 379/379/379 369/369/369 368/368/368
f 368/368/368 377/377/377 379/379/379
f 379/379/379 377/377/377 427/427/427
f 380/380/380 379/379/379 427/427/427
f 152/152/152 214/214/214 153/153/153
f 154/154/154 155/155/155 152/152/152
f 152/152/152 153/153/153 154/154/154
f 214/214/214 215/215/215 153/153/153
f 481/481/481 153/153/153 215/215/215
f 432/432/432 153/153/153 481/481/481
f 154/154/154 153/153/153 432/432/432
f 432/432/432 433/433/433 154/154/154
f 434/434/434 154/154/154 433/433/433
f 231/231/231 154/154/154 434/434/434
f 231/231/231 156/156/156 154/154/154
f 156/156/156 155/155/155 154/154/154
f 627/627/627 624/624/624 630/630/630
f 628/628/628 625/625/625 624/624/624
f 627/627/627 628/628/628 624/624/624
f 624/624/624 625/625/625 626/626/626
f 632/632/632 633/633/633 626/626/626
f 626/626/626 625/625/625 632/632/632
f 625/625/625 629/629/629 631/631/631
f 625/625/625 628/628/628 629/629/629
f 580/580/580 583/583/583 577/577/577
f 581/581/581 577/577/577 579/579/579
f 580/580/580 577/577/577 581/581/581
f 577/577/577 578/578/578 579/579/579
f 586/586/586 579/579/579 578/578/578
f 578/578/578 585/585/585 586/586/586
f 579/579/579 584/584/584 582/582/582
f 579/579/579 582/582/582 581/581/581
f 94/94/94 93/93/93 83/83/83
f 85/85/85 86/86/86 83/83/83
f 83/83/83 84/84/84 85/85/85
f 94/94/94 145/145/145 93/93/93
f 96/96/96 145/145/145 94/94/94
f 95/95/95 96/96/96 94/94/94
f 94/94/94 86/86/86 95/95/95
f 86/86/86 85/85/85 88/88/88
f 88/88/88 95/95/95 86/86/86
f 132/132/132 85/85/85 84/84/84
f 132/132/132 90/90/90 85/85/85
f 88/88/88 85/85/85 91/91/91
f 90/90/90 91/91/91 85/85/85
f 91/91/91 89/89/89 88/88/88
f 87/87/87 88/88/88 89/89/89
f 91/91/91 90/90/90 123/123/123
f 89/89/89 91/91/91 126/126/126
f 123/123/123 126/126/126 91/91/91
f 120/120/120 90/90/90 132/132/132
f 607/607/607 604/604/604 610/610/610
f 608/608/608 605/605/605 604/604/604
f 607/607/607 608/608/608 604/604/604
f 604/604/604 605/605/605 606/606/606
f 612/612/612 613/613/613 606/606/606
f 606/606/606 605/605/605 612/612/612
f 605/605/605 609/609/609 611/611/611
f 605/605/605 608/608/608 609/609/609
f 560/560/560 563/563/563 557/557/557
f 561/561/561 557/557/557 559/559/559
f 560/560/560 557/557/557 561/561/561
f 557/557/557 558/558/558 559/559/559
f 566/566/566 559/559/559 558/558/558
f 558/558/558 565/565/565 566/566/566
f 559/559/559 564/564/564 562/562/562
f 559/559/559 562/562/562 561/561/561
f 603/603/603 599/599/599 598/598/598
f 598/598/598 599/599/599 600/600/600
f 602/602/602 599/599/599 603/603/603
f 600/600/600 599/599/599 601/601/601
f 601/601/601 599/599/599 602/602/602
f 617/617/617 614/614/614 620/620/620
f 618/618/618 615/615/615 614/614/614
f 617/617/617 618/618/618 614/614/614
f 614/614/614 615/615/615 616/616/616
f 622/622/622 623/623/623 616/616/616
f 616/616/616 615/615/615 622/622/622
f 615/615/615 619/619/619 621/621/621
f 615/615/615 618/618/618 619/619/619
f 570/570/570 573/573/573 567/567/567
f 571/571/571 567/567/567 569/569/569
f 570/570/570 567/567/567 571/571/571
f 567/567/567 568/568/568 569/569/569
f 576/576/576 569/569/569 568/568/568
f 568/568/568 575/575/575 576/576/576
f 569/569/569 574/574/574 572/572/572
f 569/569/569 572/572/572 571/571/571
f 449/449/449 426/426/426 450/450/450
f 371/371/371 450/450/450 425/425/425
f 371/371/371 417/417/417 450/450/450
f 447/447/447 450/450/450 417/417/417
f 449/449/449 450/450/450 447/447/447
f 371/371/371 413/413/413 417/417/417
f 414/414/414 413/413/413 371/371/371
f 371/371/371 370/370/370 414/414/414
f 370/370/370 371/371/371 368/368/368
f 417/417/417 451/451/451 447/447/447
f 417/417/417 413/413/413 396/396/396
f 451/451/451 454/454/454 447/447/447
f 447/447/447 454/454/454 448/448/448
f 447/447/447 448/448/448 449/449/449
f 397/397/397 396/396/396 413/413/413
f 396/396/396 397/397/397 398/398/398
f 413/413/413 414/414/414 397/397/397
f 414/414/414 402/402/402 397/397/397
f 397/397/397 402/402/402 398/398/398
f 21/21/21 5/5/5 11/11/11
f 22/22/22 6/6/6 5/5/5
f 5/5/5 21/21/21 22/22/22
f 11/11/11 5/5/5 8/8/8
f 7/7/7 8/8/8 5/5/5
f 5/5/5 6/6/6 7/7/7
f 6/6/6 207/207/207 7/7/7
f 22/22/22 209/209/209 6/6/6
f 6/6/6 209/209/209 207/207/207
f 207/207/207 209/209/209 212/212/212
f 212/212/212 213/213/213 207/207/207
f 212/212/212 227/227/227 213/213/213
f 324/324/324 313/313/313 307/307/307
f 323/323/323 324/324/324 307/307/307
f 307/307/307 310/310/310 323/323/323
f 313/313/313 308/308/308 307/307/307
f 309/309/309 310/310/310 307/307/307
f 307/307/307 308/308/308 309/309/309
f 310/310/310 309/309/309 474/474/474
f 323/323/323 310/310/310 476/476/476
f 310/310/310 474/474/474 476/476/476
f 474/474/474 480/480/480 479/479/479
f 479/479/479 476/476/476 474/474/474
f 479/479/479 480/480/480 486/486/486
f 38/38/38 139/139/139 75/75/75
f 76/76/76 75/75/75 139/139/139
f 75/75/75 76/76/76 73/73/73
f 73/73/73 74/74/74 75/75/75
f 74/74/74 363/363/363 337/337/337
f 337/337/337 230/230/230 74/74/74
f 363/363/363 74/74/74 73/73/73
f 338/338/338 337/337/337 363/363/363
f 336/336/336 337/337/337 338/338/338
f 336/336/336 339/339/339 41/41/41
f 338/338/338 339/339/339 336/336/336
f 363/363/363 421/421/421 338/338/338
f 421/421/421 363/363/363 362/362/362
f 73/73/73 362/362/362 363/363/363
f 362/362/362 345/345/345 421/421/421
f 362/362/362 394/394/394 345/345/345
f 362/362/362 73/73/73 393/393/393
f 393/393/393 394/394/394 362/362/362
f 345/345/345 354/354/354 346/346/346
f 40/40/40 36/36/36 39/39/39
f 41/41/41 37/37/37 36/36/36
f 36/36/36 40/40/40 41/41/41
f 38/38/38 39/39/39 36/36/36
f 36/36/36 37/37/37 38/38/38
f 337/337/337 336/336/336 40/40/40
f 40/40/40 230/230/230 337/337/337
f 41/41/41 40/40/40 336/336/336
f 39/39/39 230/230/230 40/40/40
f 74/74/74 230/230/230 39/39/39
f 39/39/39 75/75/75 74/74/74
f 75/75/75 39/39/39 38/38/38
f 200/200/200 199/199/199 166/166/166
f 469/469/469 199/199/199 198/198/198
f 198/198/198 199/199/199 200/200/200
f 198/198/198 470/470/470 469/469/469
f 470/470/470 198/198/198 219/219/219
f 219/219/219 198/198/198 201/201/201
f 200/200/200 201/201/201 198/198/198
f 219/219/219 461/461/461 470/470/470
f 461/461/461 219/219/219 462/462/462
f 219/219/219 218/218/218 482/482/482
f 482/482/482 462/462/462 219/219/219
f 187/187/187 190/190/190 219/219/219
f 201/201/201 187/187/187 219/219/219
f 219/219/219 190/190/190 217/217/217
f 217/217/217 218/218/218 219/219/219
f 463/463/463 464/464/464 461/461/461
f 461/461/461 462/462/462 463/463/463
f 463/463/463 467/467/467 464/464/464
f 218/218/218 217/217/217 220/220/220
f 218/218/218 220/220/220 482/482/482
f 189/189/189 190/190/190 187/187/187
f 187/187/187 188/188/188 189/189/189
f 189/189/189 188/188/188 193/193/193
f 223/223/223 221/221/221 136/136/136
f 109/109/109 69/69/69 136/136/136
f 223/223/223 224/224/224 418/418/418
f 69/69/69 68/68/68 224/224/224
f 69/69/69 109/109/109 110/110/110
f 110/110/110 67/67/67 69/69/69
f 68/68/68 69/69/69 67/67/67
f 67/67/67 66/66/66 68/68/68
f 67/67/67 110/110/110 111/111/111
f 111/111/111 64/64/64 67/67/67
f 66/66/66 67/67/67 64/64/64
f 110/110/110 76/76/76 111/111/111
f 62/62/62 140/140/140 111/111/111
f 111/111/111 51/51/51 62/62/62
f 76/76/76 51/51/51 111/111/111
f 64/64/64 111/111/111 140/140/140
f 140/140/140 47/47/47 64/64/64
f 50/50/50 65/65/65 64/64/64
f 64/64/64 47/47/47 50/50/50
f 64/64/64 65/65/65 66/66/66
f 66/66/66 65/65/65 356/356/356
f 356/356/356 65/65/65 50/50/50
f 50/50/50 343/343/343 356/356/356
f 343/343/343 50/50/50 49/49/49
f 49/49/49 50/50/50 47/47/47
f 62/62/62 48/48/48 47/47/47
f 47/47/47 140/140/140 62/62/62
f 47/47/47 48/48/48 49/49/49
f 51/51/51 54/54/54 62/62/62
f 54/54/54 63/63/63 62/62/62
f 62/62/62 63/63/63 59/59/59
f 48/48/48 62/62/62 59/59/59
f 49/49/49 48/48/48 61/61/61
f 59/59/59 61/61/61 48/48/48
f 59/59/59 63/63/63 60/60/60
f 139/139/139 51/51/51 76/76/76
f 204/204/204 205/205/205 105/105/105
f 385/385/385 196/196/196 205/205/205
f 205/205/205 389/389/389 385/385/385
f 389/389/389 205/205/205 204/204/204
f 196/196/196 385/385/385 328/328/328
f 390/390/390 334/334/334 385/385/385
f 385/385/385 389/389/389 390/390/390
f 328/328/328 385/385/385 334/334/334
f 204/204/204 436/436/436 389/389/389
f 390/390/390 389/389/389 436/436/436
f 436/436/436 437/437/437 390/390/390
f 335/335/335 334/334/334 390/390/390
f 333/333/333 334/334/334 335/335/335
f 424/424/424 335/335/335 485/485/485
f 335/335/335 424/424/424 423/423/423
f 423/423/423 333/333/333 335/335/335
f 333/333/333 423/423/423 384/384/384
f 167/167/167 423/423/423 424/424/424
f 166/166/166 384/384/384 423/423/423
f 423/423/423 167/167/167 166/166/166
f 424/424/424 225/225/225 197/197/197
f 485/485/485 225/225/225 424/424/424
f 424/424/424 197/197/197 167/167/167
f 167/167/167 197/197/197 142/142/142
f 142/142/142 197/197/197 225/225/225
f 142/142/142 225/225/225 226/226/226
f 166/166/166 199/199/199 469/469/469
f 469/469/469 384/384/384 166/166/166
f 183/183/183 191/191/191 185/185/185
f 186/186/186 185/185/185 192/192/192
f 185/185/185 191/191/191 192/192/192
f 185/185/185 186/186/186 184/184/184
f 78/78/78 32/32/32 31/31/31
f 31/31/31 32/32/32 29/29/29
f 31/31/31 102/102/102 78/78/78
f 102/102/102 31/31/31 99/99/99
f 99/99/99 31/31/31 30/30/30
f 29/29/29 30/30/30 31/31/31
f 99/99/99 100/100/100 102/102/102
f 33/33/33 99/99/99 98/98/98
f 100/100/100 99/99/99 33/33/33
f 30/30/30 98/98/98 99/99/99
f 33/33/33 35/35/35 100/100/100
f 26/26/26 100/100/100 35/35/35
f 98/98/98 141/141/141 33/33/33
f 34/34/34 33/33/33 141/141/141
f 33/33/33 34/34/34 35/35/35
f 166/166/166 98/98/98 200/200/200
f 141/141/141 98/98/98 166/166/166
f 142/142/142 141/141/141 167/167/167
f 166/166/166 167/167/167 141/141/141
f 141/141/141 142/142/142 34/34/34
f 226/226/226 34/34/34 142/142/142
f 34/34/34 104/104/104 35/35/35
f 101/101/101 35/35/35 104/104/104
f 35/35/35 101/101/101 26/26/26
f 26/26/26 101/101/101 196/196/196
f 101/101/101 105/105/105 205/205/205
f 205/205/205 196/196/196 101/101/101
f 104/104/104 105/105/105 101/101/101
f 159/159/159 105/105/105 104/104/104
f 104/104/104 158/158/158 159/159/159
f 105/105/105 159/159/159 204/204/204
f 354/354/354 345/345/345 394/394/394
f 347/347/347 348/348/348 345/345/345
f 345/345/345 346/346/346 347/347/347
f 394/394/394 422/422/422 354/354/354
f 422/422/422 394/394/394 356/356/356
f 357/357/357 356/356/356 394/394/394
f 394/394/394 393/393/393 357/357/357
f 392/392/392 393/393/393 73/73/73
f 358/358/358 357/357/357 393/393/393
f 393/393/393 392/392/392 358/358/358
f 68/68/68 66/66/66 357/357/357
f 357/357/357 358/358/358 68/68/68
f 356/356/356 357/357/357 66/66/66
f 358/358/358 418/418/418 224/224/224
f 224/224/224 68/68/68 358/358/358
f 418/418/418 358/358/358 392/392/392
f 73/73/73 108/108/108 392/392/392
f 392/392/392 391/391/391 418/418/418
f 391/391/391 392/392/392 108/108/108
f 73/73/73 110/110/110 109/109/109
f 109/109/109 108/108/108 73/73/73
f 76/76/76 110/110/110 73/73/73
f 108/108/108 107/107/107 391/391/391
f 108/108/108 109/109/109 106/106/106
f 106/106/106 107/107/107 108/108/108
f 471/471/471 391/391/391 107/107/107
f 391/391/391 472/472/472 483/483/483
f 418/418/418 391/391/391 483/483/483
f 391/391/391 471/471/471 472/472/472
f 107/107/107 302/302/302 471/471/471
f 107/107/107 106/106/106 203/203/203
f 203/203/203 302/302/302 107/107/107
f 106/106/106 222/222/222 202/202/202
f 222/222/222 106/106/106 136/136/136
f 106/106/106 202/202/202 203/203/203
f 136/136/136 106/106/106 109/109/109
f 136/136/136 221/221/221 222/222/222
f 224/224/224 136/136/136 69/69/69
f 136/136/136 224/224/224 223/223/223
f 418/418/418 484/484/484 223/223/223
f 483/483/483 484/484/484 418/418/418
f 327/327/327 28/28/28 27/27/27
f 328/328/328 27/27/27 196/196/196
f 27/27/27 328/328/328 327/327/327
f 196/196/196 27/27/27 26/26/26
f 387/387/387 327/327/327 386/386/386
f 386/386/386 327/327/327 328/328/328
f 364/364/364 327/327/327 387/387/387
f 327/327/327 364/364/364 365/365/365
f 81/81/81 365/365/365 367/367/367
f 367/367/367 365/365/365 364/364/364
f 366/366/366 364/364/364 330/330/330
f 364/364/364 387/387/387 331/331/331
f 331/331/331 330/330/330 364/364/364
f 364/364/364 366/366/366 367/367/367
f 387/387/387 386/386/386 383/383/383
f 383/383/383 331/331/331 387/387/387
f 333/333/333 383/383/383 386/386/386
f 386/386/386 334/334/334 333/333/333
f 334/334/334 386/386/386 328/328/328
f 531/531/531 534/534/534 528/528/528
f 532/532/532 528/528/528 530/530/530
f 531/531/531 528/528/528 532/532/532
f 528/528/528 529/529/529 530/530/530
f 536/536/536 530/530/530 529/529/529
f 529/529/529 535/535/535 536/536/536
f 530/530/530 533/533/533 532/532/532
f 276/276/276 273/273/273 279/279/279
f 277/277/277 274/274/274 273/273/273
f 276/276/276 277/277/277 273/273/273
f 273/273/273 274/274/274 275/275/275
f 280/280/280 281/281/281 275/275/275
f 275/275/275 274/274/274 280/280/280
f 274/274/274 277/277/277 278/278/278
f 388/388/388 359/359/359 361/361/361
f 359/359/359 360/360/360 361/361/361
f 382/382/382 388/388/388 378/378/378
f 426/426/426 388/388/388 382/382/382
f 361/361/361 378/378/378 388/388/388
f 368/368/368 378/378/378 361/361/361
f 361/361/361 377/377/377 368/368/368
f 378/378/378 368/368/368 382/382/382
f 371/371/371 425/425/425 382/382/382
f 382/382/382 368/368/368 371/371/371
f 382/382/382 425/425/425 426/426/426
f 450/450/450 426/426/426 425/425/425
f 556/556/556 552/552/552 554/554/554
f 552/552/552 553/553/553 554/554/554
f 554/554/554 555/555/555 556/556/556
f 298/298/298 297/297/297 300/300/300
f 297/297/297 298/298/298 299/299/299
f 300/300/300 301/301/301 298/298/298
f 546/546/546 542/542/542 544/544/544
f 542/542/542 543/543/543 544/544/544
f 544/544/544 545/545/545 546/546/546
f 288/288/288 287/287/287 290/290/290
f 287/287/287 288/288/288 289/289/289
f 290/290/290 291/291/291 288/288/288
f 551/551/551 547/547/547 549/549/549
f 547/547/547 548/548/548 549/549/549
f 549/549/549 550/550/550 551/551/551
f 293/293/293 292/292/292 295/295/295
f 292/292/292 293/293/293 294/294/294
f 295/295/295 296/296/296 293/293/293
f 541/541/541 537/537/537 539/539/539
f 537/537/537 538/538/538 539/539/539
f 539/539/539 540/540/540 541/541/541
f 77/77/77 25/25/25 28/28/28
f 102/102/102 100/100/100 25/25/25
f 100/100/100 26/26/26 25/25/25
f 78/78/78 102/102/102 25/25/25
f 25/25/25 77/77/77 78/78/78
f 27/27/27 28/28/28 25/25/25
f 25/25/25 26/26/26 27/27/27
f 28/28/28 81/81/81 77/77/77
f 79/79/79 77/77/77 81/81/81
f 78/78/78 77/77/77 79/79/79
f 365/365/365 81/81/81 28/28/28
f 28/28/28 327/327/327 365/365/365
f 283/283/283 282/282/282 285/285/285
f 282/282/282 283/283/283 284/284/284
f 285/285/285 286/286/286 283/283/283
f 314/314/314 304/304/304 303/303/303
f 303/303/303 312/312/312 314/314/314
f 303/303/303 306/306/306 311/311/311
f 311/311/311 312/312/312 303/303/303
f 305/305/305 306/306/306 303/303/303
f 303/303/303 304/304/304 305/305/305
f 317/317/317 314/314/314 318/318/318
f 317/317/317 304/304/304 314/314/314
f 435/435/435 318/318/318 314/314/314
f 314/314/314 326/326/326 435/435/435
f 314/314/314 312/312/312 325/325/325
f 325/325/325 326/326/326 314/314/314
f 12/12/12 10/10/10 1/1/1
f 1/1/1 4/4/4 12/12/12
f 1/1/1 10/10/10 9/9/9
f 9/9/9 2/2/2 1/1/1
f 3/3/3 4/4/4 1/1/1
f 1/1/1 2/2/2 3/3/3
f 15/15/15 14/14/14 12/12/12
f 15/15/15 12/12/12 4/4/4
f 157/157/157 24/24/24 12/12/12
f 12/12/12 14/14/14 157/157/157
f 12/12/12 24/24/24 23/23/23
f 23/23/23 10/10/10 12/12/12
f 315/315/315 318/318/318 435/435/435
f 311/311/311 325/325/325 312/312/312
f 9/9/9 10/10/10 23/23/23
f 13/13/13 157/157/157 14/14/14
f 13/13/13 14/14/14 15/15/15
f 15/15/15 16/16/16 13/13/13
f 16/16/16 15/15/15 169/169/169
f 15/15/15 4/4/4 168/168/168
f 168/168/168 169/169/169 15/15/15
f 169/169/169 208/208/208 16/16/16
f 211/211/211 20/20/20 169/169/169
f 169/169/169 168/168/168 211/211/211
f 208/208/208 169/169/169 20/20/20
f 211/211/211 168/168/168 206/206/206
f 206/206/206 168/168/168 4/4/4
f 211/211/211 17/17/17 20/20/20
f 17/17/17 211/211/211 210/210/210
f 206/206/206 210/210/210 211/211/211
f 20/20/20 19/19/19 208/208/208
f 19/19/19 20/20/20 17/17/17
f 210/210/210 18/18/18 17/17/17
f 304/304/304 444/444/444 473/473/473
f 473/473/473 305/305/305 304/304/304
f 444/444/444 304/304/304 317/317/317
f 477/477/477 444/444/444 445/445/445
f 473/473/473 444/444/444 477/477/477
f 317/317/317 445/445/445 444/444/444
f 477/477/477 478/478/478 473/473/473
f 477/477/477 320/320/320 319/319/319
f 478/478/478 477/477/477 319/319/319
f 445/445/445 320/320/320 477/477/477
f 320/320/320 445/445/445 475/475/475
f 316/316/316 475/475/475 445/445/445
f 445/445/445 317/317/317 316/316/316
f 475/475/475 321/321/321 320/320/320
f 319/319/319 320/320/320 321/321/321
f 319/319/319 322/322/322 478/478/478
f 321/321/321 322/322/322 319/319/319
f 317/317/317 318/318/318 315/315/315
f 315/315/315 316/316/316 317/317/317
f 500/500/500 503/503/503 497/497/497
f 501/501/501 497/497/497 499/499/499
f 500/500/500 497/497/497 501/501/501
f 497/497/497 498/498/498 499/499/499
f 506/506/506 499/499/499 498/498/498
f 498/498/498 505/505/505 506/506/506
f 499/499/499 504/504/504 502/502/502
f 499/499/499 502/502/502 501/501/501
f 245/245/245 242/242/242 248/248/248
f 246/246/246 243/243/243 242/242/242
f 245/245/245 246/246/246 242/242/242
f 242/242/242 243/243/243 244/244/244
f 250/250/250 251/251/251 244/244/244
f 244/244/244 243/243/243 250/250/250
f 243/243/243 247/247/247 249/249/249
f 243/243/243 246/246/246 247/247/247
f 71/71/71 70/70/70 103/103/103
f 70/70/70 71/71/71 72/72/72
f 103/103/103 92/92/92 71/71/71
f 83/83/83 93/93/93 71/71/71
f 71/71/71 92/92/92 83/83/83
f 97/97/97 92/92/92 103/103/103
f 97/97/97 103/103/103 143/143/143
f 92/92/92 97/97/97 83/83/83
f 84/84/84 83/83/83 97/97/97
f 97/97/97 144/144/144 84/84/84
f 143/143/143 144/144/144 97/97/97
f 83/83/83 86/86/86 94/94/94
f 17/17/17 18/18/18 19/19/19
f 4/4/4 3/3/3 206/206/206
f 443/443/443 438/438/438 440/440/440
f 438/438/438 439/439/439 440/440/440
f 442/442/442 443/443/443 440/440/440
f 439/439/439 441/441/441 440/440/440
f 441/441/441 442/442/442 440/440/440
f 165/165/165 161/161/161 160/160/160
f 160/160/160 161/161/161 162/162/162
f 164/164/164 161/161/161 165/165/165
f 162/162/162 161/161/161 163/163/163
f 163/163/163 161/161/161 164/164/164
f 490/490/490 493/493/493 487/487/487
f 491/491/491 487/487/487 489/489/489
f 490/490/490 487/487/487 491/491/491
f 487/487/487 488/488/488 489/489/489
f 496/496/496 489/489/489 488/488/488
f 488/488/488 495/495/495 496/496/496
f 489/489/489 494/494/494 492/492/492
f 489/489/489 492/492/492 491/491/491
f 235/235/235 232/232/232 238/238/238
f 236/236/236 233/233/233 232/232/232
f 235/235/235 236/236/236 232/232/232
f 232/232/232 233/233/233 234/234/234
f 240/240/240 241/241/241 234/234/234
f 234/234/234 233/233/233 240/240/240
f 233/233/233 237/237/237 239/239/239
f 233/233/233 236/236/236 237/237/237
f 150/150/150 146/146/146 148/148/148
f 146/146/146 147/147/147 148/148/148
f 148/148/148 151/151/151 150/150/150
f 149/149/149 150/150/150 151/151/151
f 429/429/429 148/148/148 216/216/216
f 148/148/148 428/428/428 431/431/431
f 431/431/431 151/151/151 148/148/148
f 428/428/428 148/148/148 429/429/429
f 147/147/147 216/216/216 148/148/148
f 430/430/430 151/151/151 431/431/431
f 384/384/384 383/383/383 333/333/333
f 383/383/383 384/384/384 332/332/332
f 332/332/332 331/331/331 383/383/383
f 331/331/331 332/332/332 329/329/329
f 329/329/329 330/330/330 331/331/331
f 366/366/366 330/330/330 458/458/458
f 457/457/457 366/366/366 460/460/460
f 460/460/460 366/366/366 458/458/458
f 446/446/446 367/367/367 366/366/366
f 366/366/366 457/457/457 446/446/446
f 458/458/458 459/459/459 460/460/460
f 460/460/460 466/466/466 457/457/457
f 459/459/459 465/465/465 460/460/460
f 460/460/460 465/465/465 466/466/466
f 456/456/456 446/446/446 457/457/457
f 457/457/457 468/468/468 456/456/456
f 456/456/456 195/195/195 181/181/181
f 468/468/468 195/195/195 456/456/456
f 446/446/446 456/456/456 181/181/181
f 182/182/182 181/181/181 195/195/195
f 194/194/194 182/182/182 195/195/195
f 181/181/181 171/171/171 446/446/446
f 181/181/181 182/182/182 170/170/170
f 170/170/170 171/171/171 181/181/181
f 182/182/182 194/194/194 183/183/183
f 183/183/183 170/170/170 182/182/182
f 170/170/170 183/183/183 80/80/80
f 80/80/80 79/79/79 170/170/170
f 82/82/82 171/171/171 170/170/170
f 170/170/170 79/79/79 82/82/82
f 446/446/446 171/171/171 82/82/82
f 82/82/82 367/367/367 446/446/446
f 367/367/367 82/82/82 81/81/81
f 81/81/81 82/82/82 79/79/79
f 79/79/79 80/80/80 78/78/78
f 80/80/80 32/32/32 78/78/78
f 185/185/185 80/80/80 183/183/183
f 80/80/80 184/184/184 32/32/32
f 184/184/184 80/80/80 185/185/185
f 510/510/510 513/513/513 507/507/507
f 511/511/511 507/507/507 509/509/509
f 510/510/510 507/507/507 511/511/511
f 507/507/507 508/508/508 509/509/509
f 516/516/516 509/509/509 508/508/508
f 508/508/508 515/515/515 516/516/516
f 509/509/509 514/514/514 512/512/512
f 509/509/509 512/512/512 511/511/511
f 255/255/255 252/252/252 258/258/258
f 256/256/256 253/253/253 252/252/252
f 255/255/255 256/256/256 252/252/252
f 252/252/252 253/253/253 254/254/254
f 260/260/260 261/261/261 254/254/254
f 254/254/254 253/253/253 260/260/260
f 253/253/253 257/257/257 259/259/259
f 253/253/253 256/256/256 257/257/257
f 520/520/520 524/524/524 517/517/517
f 521/521/521 517/517/517 519/519/519
f 520/520/520 517/517/517 521/521/521
f 517/517/517 518/518/518 519/519/519
f 527/527/527 519/519/519 518/518/518
f 518/518/518 526/526/526 527/527/527
f 519/519/519 525/525/525 522/522/522
f 519/519/519 522/522/522 521/521/521
f 521/521/521 522/522/522 523/523/523
f 265/265/265 262/262/262 269/269/269
f 266/266/266 263/263/263 262/262/262
f 265/265/265 266/266/266 262/262/262
f 262/262/262 263/263/263 264/264/264
f 271/271/271 272/272/272 264/264/264
f 264/264/264 263/263/263 271/271/271
f 263/263/263 267/267/267 270/270/270
f 263/263/263 266/266/266 267/267/267
f 266/266/266 268/268/268 267/267/267
f 340/340/340 341/341/341 342/342/342
f 395/395/395 113/113/113 228/228/228
f 228/228/228 113/113/113 112/112/112
f 228/228/228 419/419/419 395/395/395
f 395/395/395 419/419/419 420/420/420
f 341/341/341 420/420/420 348/348/348
f 348/348/348 347/347/347 341/341/341
f 341/341/341 347/347/347 353/353/353
f 341/341/341 353/353/353 349/349/349
f 349/349/349 342/342/342 341/341/341
f 342/342/342 349/349/349 56/56/56
f 350/350/350 349/349/349 352/352/352
f 349/349/349 353/353/353 351/351/351
f 351/351/351 352/352/352 349/349/349
f 57/57/57 56/56/56 349/349/349
f 349/349/349 350/350/350 57/57/57
f 351/351/351 353/353/353 355/355/355
f 353/353/353 347/347/347 355/355/355
f 347/347/347 346/346/346 355/355/355
f 346/346/346 354/354/354 355/355/355
f 354/354/354 351/351/351 355/355/355
f 351/351/351 354/354/354 344/344/344
f 344/344/344 352/352/352 351/351/351
f 352/352/352 344/344/344 49/49/49
f 49/49/49 350/350/350 352/352/352
f 49/49/49 57/57/57 350/350/350
f 49/49/49 58/58/58 57/57/57
f 57/57/57 58/58/58 55/55/55
f 55/55/55 56/56/56 57/57/57
f 49/49/49 344/344/344 343/343/343
f 61/61/61 58/58/58 49/49/49
f 343/343/343 344/344/344 354/354/354
f 354/354/354 422/422/422 343/343/343
f 356/356/356 343/343/343 422/422/422
f 58/58/58 61/61/61 55/55/55
f 228/228/228 229/229/229 419/419/419
f 112/112/112 138/138/138 228/228/228
f 228/228/228 138/138/138 229/229/229
f 117/117/117 119/119/119 133/133/133
f 124/124/124 117/117/117 133/133/133
f 124/124/124 125/125/125 117/117/117
f 117/117/117 118/118/118 119/119/119
f 129/129/129 124/124/124 134/134/134
f 133/133/133 134/134/134 124/124/124
f 128/128/128 124/124/124 129/129/129
f 134/134/134 133/133/133 177/177/177
f 177/177/177 178/178/178 134/134/134
f 178/178/178 177/177/177 180/180/180
f 399/399/399 416/416/416 400/400/400
f 416/416/416 399/399/399 406/406/406
f 406/406/406 399/399/399 407/407/407
f 399/399/399 400/400/400 401/401/401
f 453/453/453 416/416/416 415/415/415
f 406/406/406 415/415/415 416/416/416
f 411/411/411 415/415/415 406/406/406
f 410/410/410 411/411/411 406/406/406
f 415/415/415 452/452/452 453/453/453
f 452/452/452 455/455/455 453/453/453
f 55/55/55 61/61/61 59/59/59
f 59/59/59 60/60/60 55/55/55
f 60/60/60 63/63/63 53/53/53
f 53/53/53 63/63/63 54/54/54
f 53/53/53 54/54/54 51/51/51
f 44/44/44 53/53/53 52/52/52
f 44/44/44 60/60/60 53/53/53
f 51/51/51 52/52/52 53/53/53
f 55/55/55 60/60/60 44/44/44
f 52/52/52 137/137/137 44/44/44
f 42/42/42 44/44/44 137/137/137
f 44/44/44 43/43/43 55/55/55
f 42/42/42 43/43/43 44/44/44
f 137/137/137 112/112/112 42/42/42
f 112/112/112 137/137/137 138/138/138
f 113/113/113 45/45/45 42/42/42
f 42/42/42 112/112/112 113/113/113
f 46/46/46 43/43/43 42/42/42
f 42/42/42 45/45/45 46/46/46
f 56/56/56 55/55/55 43/43/43
f 43/43/43 46/46/46 56/56/56
f 56/56/56 46/46/46 342/342/342
f 46/46/46 45/45/45 340/340/340
f 340/340/340 342/342/342 46/46/46
f 340/340/340 45/45/45 113/113/113
f 340/340/340 395/395/395 420/420/420
f 420/420/420 341/341/341 340/340/340
f 113/113/113 395/395/395 340/340/340
