# koolasuchus_a reconstructed from live game memory
v -2.27065 24.30698 -38.42733
v -0.00000 24.30600 -38.45899
v -0.00000 25.88151 -38.18791
v -2.47714 26.00073 -38.14856
v -2.27065 24.30698 -38.42733
v -0.00000 26.21559 -34.03056
v -0.00000 24.30600 -38.45899
v -1.33219 27.53093 -36.81016
v -0.00000 27.38741 -36.71435
v -5.44303 29.01011 -1.16437
v -8.41093 26.22796 -1.21435
v -5.85157 26.92923 -5.02000
v -3.46986 28.75145 -4.89046
v -2.65357 28.81044 -7.65682
v -5.53542 26.80070 -7.41430
v -5.99060 23.01791 -7.45636
v -6.46774 22.92255 -6.05493
v -0.00000 19.21495 -5.05340
v -0.00000 20.17346 -7.75238
v -6.59577 18.83132 -2.49503
v -6.59577 18.83132 -2.49503
v -6.72427 18.24129 0.50287
v -0.00000 17.51956 0.51020
v -0.00000 19.21495 -5.05340
v -5.31575 16.68639 5.17779
v -0.00000 15.94646 5.17155
v -6.02438 15.89093 9.38853
v -0.00000 14.94925 9.38587
v -10.18001 18.49676 9.35150
v -11.56241 23.12187 8.81339
v -11.66087 23.38919 15.59307
v -10.42959 18.61419 15.21617
v -5.44708 17.47301 20.38746
v -0.00000 16.89461 20.11221
v -0.00000 15.03472 14.82587
v -6.78332 16.02741 14.93878
v -9.71300 24.34583 20.67124
v -9.14102 19.50477 20.39531
v -9.13144 25.07364 1.86158
v -6.67214 28.66857 1.71292
v -7.60915 28.18180 5.10156
v -10.38683 23.52403 5.07699
v -8.33325 28.11111 8.15902
v -0.00000 34.63152 23.84138
v -1.61450 32.14279 23.90937
v -1.64773 31.88570 19.70541
v -0.00000 34.10512 19.48008
v -6.15270 28.81938 23.86551
v -7.16350 28.72956 20.28342
v -9.29737 19.53941 1.95024
v -8.50001 18.32286 5.20402
v -10.11945 21.95206 1.98873
v -0.98670 24.10381 63.71067
v -1.20678 26.01928 63.71019
v -0.00000 26.14656 70.29736
v -4.49038 28.56806 29.25635
v -3.95014 25.48293 38.83731
v -5.82491 25.32944 28.38977
v -2.26943 22.89231 47.32496
v -0.00000 21.62254 47.32327
v -0.00000 21.04930 38.35061
v -2.49300 21.50977 38.38437
v -0.73951 28.13432 63.70974
v -0.00000 30.45354 68.29906
v -3.95014 25.48293 38.83731
v -3.06480 26.05205 47.33300
v -8.63373 28.61748 15.11820
v -0.00000 22.41249 68.22691
v -9.74439 25.51979 24.22286
v -7.16434 21.71128 27.71753
v -11.70066 22.33455 25.16053
v -11.69218 21.31568 21.64547
v -3.75955 19.88664 26.95056
v -0.00000 18.73063 25.37239
v -4.40798 18.43610 23.71511
v -14.38425 17.93491 26.59130
v -12.02191 18.66334 28.25457
v -1.27225 30.20157 38.77332
v -1.08741 29.52294 47.34366
v -1.16320 29.22849 53.15585
v -2.56470 26.03752 53.15306
v -14.29012 16.43577 25.08369
v -10.85769 17.03218 26.24282
v -6.82020 18.68971 23.98665
v -6.82020 18.68971 23.98665
v -10.85769 17.03218 26.24282
v -1.42162 23.85294 57.79103
v -1.77000 26.03011 57.79380
v -1.01900 28.53822 57.79003
v -0.00000 33.87345 59.77779
v -0.00000 33.58472 64.13080
v -1.27225 30.20157 38.77332
v -1.79602 31.28728 29.72326
v -1.64073 30.52694 7.80774
v -1.69870 31.49142 14.41333
v -1.61141 30.03909 5.21600
v -1.44388 30.04234 1.84343
v -1.29816 30.04517 -1.09018
v -0.00000 29.81057 -4.77780
v -1.99291 23.32904 53.15619
v -0.00000 31.81779 47.34438
v 0.00000 32.20974 51.30997
v 0.00000 21.27510 50.48697
v 0.00000 33.44296 56.22546
v 0.00000 32.72279 53.93945
v -7.59039 26.68158 -36.17748
v -6.75848 28.18619 -33.66723
v -10.65339 26.86962 -34.08802
v -15.29850 23.65800 -13.56967
v -16.48286 23.68748 -17.44571
v -16.56025 26.19034 -17.87866
v -15.32097 26.40908 -13.68915
v -12.94270 23.60225 -11.77421
v -12.66448 24.50356 -32.99229
v -13.49368 26.89491 -30.60332
v -16.43322 26.37051 -24.57588
v -16.47204 23.94632 -24.57516
v -13.33274 20.53172 -12.89482
v -8.73079 18.17174 -17.37640
v -15.76445 19.92977 -18.63728
v -10.58680 21.08766 -34.52861
v -5.24236 20.29257 -35.96111
v -5.84067 21.78482 -36.89142
v -6.42691 18.54826 -29.37202
v -8.34103 24.15635 -11.23606
v -12.93407 26.92496 -12.32902
v -7.69816 27.16456 -11.87186
v -13.44815 20.38393 -28.43716
v -8.18343 17.63128 -21.90172
v -12.71942 29.28193 -14.88079
v -14.47917 28.61249 -24.27250
v -11.28650 29.00397 -28.44221
v -15.97889 22.67447 -16.11408
v -0.00000 20.11460 -27.58464
v -14.74024 22.71276 -13.60401
v -15.29850 23.65800 -13.56967
v -0.00000 25.90730 -20.84146
v -16.48286 23.68748 -17.44571
v -12.94270 23.60225 -11.77421
v -0.00000 23.24375 -14.42285
v -16.47204 23.94632 -24.57516
v -12.66448 24.50356 -32.99229
v -15.18766 23.04899 -28.55766
v -16.41467 22.88207 -20.14426
v -0.00000 23.24375 -14.42285
v -12.94270 23.60225 -11.77421
v -7.88932 24.48006 -37.21518
v -10.70049 23.22189 -34.73168
v -5.49477 23.43866 -37.20559
v -10.75430 28.42768 -31.16441
v -4.00196 27.66639 -36.68965
v -3.04053 28.33284 -34.97873
v -2.60424 30.97037 -16.30135
v -4.35736 31.43830 -16.82574
v -2.93409 31.25014 -21.55367
v -0.00000 19.67993 -13.18772
v -0.00000 17.20480 -18.32606
v -7.27468 21.20851 -12.12683
v -0.00000 28.43387 -34.95186
v -0.00000 20.29371 -35.94326
v -0.00000 21.87349 -37.73903
v -0.00000 17.49397 -25.89842
v -2.59251 28.86802 -12.36583
v -6.87494 30.30502 -13.96496
v -0.00000 23.12994 -38.23793
v -6.53838 31.54133 -16.99760
v -6.64419 31.38782 -15.48331
v -9.57768 31.14678 -16.87054
v -13.13034 29.21910 -17.91548
v -15.41835 27.97766 -15.84391
v -8.74312 31.38398 -26.99314
v -8.76597 30.20430 -25.17667
v -5.11209 28.99140 -30.62163
v -5.54900 29.08122 -30.03829
v -7.68700 28.46225 -31.52508
v -7.88932 24.48006 -37.21518
v -5.07242 30.18534 -27.77107
v -5.75801 30.29371 -27.87419
v -7.79928 30.92469 -29.91199
v -9.80857 30.30539 -29.93307
v -7.63349 29.67165 -31.31996
v -8.09654 31.36864 -28.07811
v -5.54900 29.08122 -30.03829
v -6.19122 30.55001 -29.55437
v -7.68700 28.46225 -31.52508
v -5.75801 30.29371 -27.87419
v -10.64739 28.85725 -30.53665
v -8.44189 31.02459 -27.11872
v -10.91470 29.84754 -28.41766
v -8.44189 31.02459 -27.11872
v -10.64739 28.85725 -30.53665
v -10.91470 29.84754 -28.41766
v -8.34103 24.15635 -11.23606
v -7.27468 21.20851 -12.12683
v -0.00000 19.67993 -13.18772
v -7.69816 27.16456 -11.87186
v -2.59251 28.86802 -12.36583
v -5.49477 23.43866 -37.20559
v -10.70049 23.22189 -34.73168
v -15.97889 22.67447 -16.11408
v -14.74024 22.71276 -13.60401
v -15.18766 23.04899 -28.55766
v -12.94270 23.60225 -11.77421
v -8.34103 24.15635 -11.23606
v -16.41467 22.88207 -20.14426
v -0.00000 23.12994 -38.23793
v -14.59561 14.15158 33.53276
v -14.51641 16.42545 33.02101
v -13.44374 17.36233 30.54300
v -12.89845 15.44244 30.06453
v -15.78473 15.60365 29.89919
v -15.87300 14.04166 29.44870
v -17.07097 14.39817 32.93309
v -17.19452 12.71484 32.36750
v -12.89845 15.44244 30.06453
v -14.59561 14.15158 33.53276
v -15.04291 15.56665 36.18972
v -15.22104 15.12311 39.96108
v -16.82146 14.86373 36.70709
v -15.86936 14.55362 37.85531
v -15.86936 14.55362 37.85531
v -15.22104 15.12311 39.96108
v -15.19225 14.33368 36.34935
v -18.86373 9.95538 37.64067
v -19.00156 10.91622 37.83100
v -18.89745 9.79989 41.26191
v -17.57920 11.17947 38.16448
v -18.89745 9.79989 41.26191
v -18.43704 11.03207 38.73973
v -18.43704 11.03207 38.73973
v -18.86373 9.95538 37.64067
v -15.04291 15.56665 36.18972
v -14.59561 14.15158 33.53276
v -14.09933 15.82429 34.51671
v -13.91516 17.00296 34.27640
v -14.51641 16.42545 33.02101
v -17.07097 14.39817 32.93309
v -14.51641 16.42545 33.02101
v -15.05949 16.85247 34.24412
v -13.91516 17.00296 34.27640
v -17.19452 12.71484 32.36750
v -17.86618 11.64222 33.40886
v -15.17026 13.38728 34.98716
v -16.25385 12.09675 36.42126
v -15.02336 16.07336 35.05851
v -17.19452 12.71484 32.36750
v -18.07516 12.80898 33.58872
v -15.02336 16.07336 35.05851
v -17.23854 14.71406 34.78584
v -13.62336 16.74633 36.72191
v -13.62336 16.74633 36.72191
v -17.17727 12.52964 38.35069
v -17.86618 11.64222 33.40886
v -18.33178 13.29424 37.46105
v -17.03583 13.57033 38.50431
v -17.17727 12.52964 38.35069
v -18.55953 11.84577 38.88324
v -16.41928 13.36861 41.68912
v -16.41928 13.36861 41.68912
v -17.80213 11.55325 42.34797
v -17.80213 11.55325 42.34797
v -4.40798 18.43610 23.71511
v -2.49300 21.50977 38.38437
v -7.96040 31.19665 -21.69799
v -6.46275 31.57437 -18.76874
v -0.00000 21.04930 38.35061
v -2.66643 28.12885 -36.62569
v -2.70146 27.34631 -36.71002
v -2.86087 30.89716 -25.79044
v -13.02531 20.79719 0.50035
v -12.90176 21.02540 -1.79747
v -10.30199 22.78451 -3.42580
v -11.26894 19.60885 -3.81933
v -10.06409 18.27639 -0.70448
v -10.06409 18.27639 -0.70448
v -11.68472 19.44519 1.03698
v -17.72114 11.72741 8.45214
v -16.58114 10.53961 10.24844
v -16.24411 10.78443 7.78580
v -16.58114 10.53961 10.24844
v -16.91784 12.27020 8.48774
v -16.24411 10.78443 7.78580
v -17.72114 11.72741 8.45214
v -17.21039 14.96453 10.84391
v -16.69190 13.95442 14.09920
v -17.99204 14.51689 10.76292
v -16.96848 14.11912 10.73704
v -16.69190 13.95442 14.09920
v -17.21039 14.96453 10.84391
v -17.68987 13.68801 10.67349
v -17.68987 13.68801 10.67349
v -17.16510 13.12402 10.50084
v -16.60019 11.87221 13.34708
v -17.99909 12.44792 10.44730
v -16.94484 12.31456 10.42591
v -16.60019 11.87221 13.34708
v -17.16510 13.12402 10.50084
v -17.72109 11.85542 10.38471
v -17.72109 11.85542 10.38471
v -18.16192 15.21175 6.14243
v -18.00250 13.64062 5.87093
v -17.24761 14.96277 4.82869
v -15.71818 13.96225 2.00572
v -15.96395 16.01042 2.42170
v -17.24761 14.96277 4.82869
v -16.92680 12.83631 4.67574
v -14.84116 17.28460 3.17408
v -16.50708 16.10015 5.59931
v -13.80594 15.51059 3.21843
v -15.52099 14.87801 5.78551
v -13.80594 15.51059 3.21843
v -15.52099 14.87801 5.78551
v -13.70216 16.63475 -2.02019
v -14.12822 17.79526 -0.57105
v -13.18062 18.68796 0.78182
v -11.75433 16.88404 -0.16248
v -11.75433 16.88404 -0.16248
v -13.02531 20.79719 0.50035
v -12.90176 21.02540 -1.79747
v -11.26894 19.60885 -3.81933
v -10.06409 18.27639 -0.70448
v -11.68472 19.44519 1.03698
v 0.00000 31.10055 -0.92446
v -0.00000 29.35050 -7.74067
v 0.00000 33.84714 29.94213
v 0.00000 32.36887 38.67674
v -0.00000 20.40539 64.42224
v -0.00000 31.39462 1.90678
v -0.00000 31.73835 5.21614
v -0.00000 32.26779 7.79654
v -0.00000 33.31086 14.35844
v -0.00000 18.73063 25.37239
v 0.00000 32.36887 38.67674
v -0.00000 20.00648 59.91923
v -0.00000 20.16568 56.36953
v 0.00000 20.63776 53.85344
v -0.00000 29.25927 -12.37159
v 0.00000 31.29209 -16.30833
v -0.00000 31.30157 -26.17276
v -0.00000 29.90747 -30.04011
v 0.00000 31.37860 -22.39782
v -0.00000 29.25927 -12.37159
v -10.06409 18.27639 -0.70448
v -16.92680 12.83631 4.67574
v -16.50708 16.10015 5.59931
v -17.37865 13.62474 9.59229
v -18.20289 14.67225 9.01326
v -15.77888 16.30557 9.26196
v -15.77658 16.05209 11.14936
v -16.13825 16.08418 11.20301
v -16.50598 16.37669 9.33525
v -15.80132 15.57246 12.79215
v -15.77658 16.05209 11.14936
v -15.90704 15.73819 10.88006
v -15.80132 15.57246 12.79215
v -16.43222 15.50865 11.24015
v -17.03526 15.41612 9.94025
v -17.03526 15.41612 9.94025
v -17.04678 14.50472 8.77913
v -17.37865 13.62474 9.59229
v -18.14247 12.67294 8.78504
v -16.43222 15.50865 11.24015
v -17.94309 11.88528 6.11231
v -16.07858 11.52415 6.39914
v -16.50664 16.50626 7.08699
v -16.50708 16.10015 5.59931
v -15.52099 14.87801 5.78551
v -15.76699 15.40311 7.07149
v -16.50664 16.50626 7.08699
v -16.07858 11.52415 6.39914
v -15.99779 15.42072 9.10354
v -15.77888 16.30557 9.26196
v -16.92680 12.83631 4.67574
v -15.99779 15.42072 9.10354
v 2.27064 24.30698 -38.42733
v 2.47713 26.00073 -38.14856
v 2.27064 24.30698 -38.42733
v 1.33219 27.53093 -36.81016
v 5.44303 29.01011 -1.16437
v 3.46986 28.75145 -4.89046
v 5.85157 26.92923 -5.02000
v 8.41093 26.22796 -1.21434
v 2.65357 28.81044 -7.65682
v 5.53542 26.80070 -7.41430
v 5.99060 23.01791 -7.45636
v 6.46774 22.92255 -6.05493
v 6.59577 18.83132 -2.49503
v 6.59577 18.83132 -2.49503
v 6.72427 18.24128 0.50287
v 5.31575 16.68639 5.17779
v 6.02437 15.89093 9.38853
v 10.18001 18.49676 9.35151
v 10.42958 18.61419 15.21617
v 11.66087 23.38919 15.59307
v 11.56240 23.12187 8.81339
v 5.44707 17.47301 20.38746
v 6.78331 16.02741 14.93878
v 9.71299 24.34583 20.67124
v 9.14101 19.50476 20.39531
v 9.13144 25.07364 1.86158
v 10.38683 23.52403 5.07699
v 7.60915 28.18180 5.10156
v 6.67214 28.66857 1.71292
v 8.33324 28.11111 8.15902
v 1.64773 31.88570 19.70541
v 1.61450 32.14279 23.90937
v 6.15270 28.81938 23.86550
v 7.16349 28.72956 20.28342
v 9.29737 19.53941 1.95024
v 8.50001 18.32286 5.20402
v 10.11945 21.95206 1.98873
v 0.98670 24.10381 63.71067
v 1.20678 26.01928 63.71019
v 4.49038 28.56806 29.25635
v 5.82491 25.32944 28.38977
v 3.95014 25.48292 38.83731
v 2.26943 22.89231 47.32496
v 2.49300 21.50977 38.38437
v 0.73951 28.13432 63.70974
v 3.06480 26.05205 47.33300
v 3.95014 25.48292 38.83731
v 8.63373 28.61748 15.11820
v 9.74439 25.51979 24.22286
v 11.70066 22.33455 25.16053
v 7.16434 21.71127 27.71753
v 11.69218 21.31568 21.64547
v 3.75955 19.88664 26.95056
v 4.40797 18.43610 23.71511
v 14.38425 17.93490 26.59130
v 12.02191 18.66334 28.25457
v 1.27225 30.20157 38.77332
v 1.08741 29.52294 47.34366
v 1.16320 29.22849 53.15585
v 2.56470 26.03752 53.15306
v 6.82020 18.68971 23.98664
v 10.85770 17.03218 26.24283
v 14.29011 16.43577 25.08370
v 6.82020 18.68971 23.98664
v 10.85770 17.03218 26.24283
v 1.42161 23.85294 57.79103
v 1.77000 26.03011 57.79380
v 1.01900 28.53822 57.79003
v 1.27225 30.20157 38.77332
v 1.79602 31.28728 29.72326
v 1.69870 31.49142 14.41333
v 1.64073 30.52694 7.80774
v 1.61141 30.03909 5.21600
v 1.44388 30.04234 1.84343
v 1.29816 30.04517 -1.09018
v 1.99292 23.32904 53.15619
v 7.59039 26.68157 -36.17748
v 10.65339 26.86962 -34.08802
v 6.75847 28.18619 -33.66723
v 15.29850 23.65800 -13.56967
v 15.32097 26.40907 -13.68915
v 16.56025 26.19034 -17.87866
v 16.48286 23.68747 -17.44571
v 12.94270 23.60225 -11.77421
v 12.66448 24.50356 -32.99229
v 16.47204 23.94631 -24.57516
v 16.43322 26.37050 -24.57588
v 13.49367 26.89491 -30.60332
v 13.33274 20.53172 -12.89482
v 15.76445 19.92977 -18.63728
v 8.73079 18.17174 -17.37640
v 10.58679 21.08766 -34.52861
v 5.84067 21.78482 -36.89142
v 5.24235 20.29256 -35.96111
v 6.42691 18.54826 -29.37203
v 8.34103 24.15635 -11.23606
v 7.69816 27.16456 -11.87186
v 12.93407 26.92496 -12.32902
v 13.44815 20.38392 -28.43716
v 8.18343 17.63128 -21.90173
v 12.71942 29.28193 -14.88079
v 14.47917 28.61249 -24.27250
v 11.28650 29.00397 -28.44221
v 15.97889 22.67447 -16.11408
v 14.74024 22.71276 -13.60401
v 15.29850 23.65800 -13.56967
v 16.48286 23.68747 -17.44571
v 12.94270 23.60225 -11.77421
v 16.47204 23.94631 -24.57516
v 12.66448 24.50356 -32.99229
v 15.18766 23.04898 -28.55766
v 16.41467 22.88206 -20.14427
v 12.94270 23.60225 -11.77421
v 7.88932 24.48006 -37.21518
v 10.70049 23.22188 -34.73168
v 5.49476 23.43866 -37.20559
v 10.75430 28.42768 -31.16441
v 4.00195 27.66639 -36.68965
v 3.04053 28.33284 -34.97873
v 2.60424 30.97037 -16.30135
v 2.93409 31.25014 -21.55367
v 4.35736 31.43830 -16.82574
v 7.27468 21.20851 -12.12683
v 6.87494 30.30502 -13.96496
v 2.59251 28.86802 -12.36583
v 6.53838 31.54133 -16.99760
v 9.57768 31.14678 -16.87054
v 6.64419 31.38782 -15.48331
v 13.13034 29.21910 -17.91548
v 15.41835 27.97766 -15.84391
v 8.76597 30.20430 -25.17667
v 8.74312 31.38398 -26.99314
v 5.11209 28.99140 -30.62163
v 7.68699 28.46225 -31.52508
v 5.54900 29.08122 -30.03829
v 7.88932 24.48006 -37.21518
v 5.07242 30.18534 -27.77107
v 5.75801 30.29371 -27.87419
v 7.79928 30.92468 -29.91199
v 7.63349 29.67165 -31.31996
v 9.80857 30.30538 -29.93307
v 8.09653 31.36864 -28.07811
v 5.54900 29.08122 -30.03829
v 7.68699 28.46225 -31.52508
v 6.19122 30.55001 -29.55437
v 5.75801 30.29371 -27.87419
v 10.64739 28.85725 -30.53665
v 8.44189 31.02459 -27.11872
v 8.44189 31.02459 -27.11872
v 10.91470 29.84754 -28.41766
v 10.64739 28.85725 -30.53665
v 10.91470 29.84754 -28.41766
v 8.34103 24.15635 -11.23606
v 7.27468 21.20851 -12.12683
v 2.59251 28.86802 -12.36583
v 7.69816 27.16456 -11.87186
v 10.70049 23.22188 -34.73168
v 5.49476 23.43866 -37.20559
v 15.97889 22.67447 -16.11408
v 14.74024 22.71276 -13.60401
v 15.18766 23.04898 -28.55766
v 12.94270 23.60225 -11.77421
v 8.34103 24.15635 -11.23606
v 16.41467 22.88206 -20.14427
v 14.59561 14.15158 33.53277
v 12.89845 15.44244 30.06453
v 13.44374 17.36233 30.54301
v 14.51641 16.42545 33.02101
v 15.87300 14.04165 29.44871
v 15.78473 15.60365 29.89920
v 17.19452 12.71484 32.36751
v 17.07097 14.39816 32.93309
v 12.89845 15.44244 30.06453
v 14.59561 14.15158 33.53277
v 15.04291 15.56664 36.18972
v 16.82146 14.86373 36.70710
v 15.22104 15.12311 39.96108
v 15.86936 14.55362 37.85532
v 15.86936 14.55362 37.85532
v 15.19225 14.33368 36.34936
v 15.22104 15.12311 39.96108
v 18.86372 9.95538 37.64068
v 18.89744 9.79988 41.26191
v 19.00156 10.91622 37.83101
v 17.57920 11.17947 38.16449
v 18.43704 11.03206 38.73975
v 18.89744 9.79988 41.26191
v 18.43704 11.03206 38.73975
v 18.86372 9.95538 37.64068
v 15.04291 15.56664 36.18972
v 14.59561 14.15158 33.53277
v 14.51641 16.42545 33.02101
v 13.91516 17.00295 34.27641
v 14.09933 15.82428 34.51672
v 17.07097 14.39816 32.93309
v 15.05949 16.85247 34.24413
v 14.51641 16.42545 33.02101
v 13.91516 17.00295 34.27641
v 17.19452 12.71484 32.36751
v 15.17026 13.38727 34.98717
v 17.86617 11.64222 33.40887
v 16.25385 12.09675 36.42127
v 15.02336 16.07336 35.05851
v 17.19452 12.71484 32.36751
v 18.07516 12.80898 33.58873
v 17.23854 14.71406 34.78585
v 15.02336 16.07336 35.05851
v 13.62336 16.74633 36.72192
v 13.62336 16.74633 36.72192
v 17.17727 12.52963 38.35070
v 17.86617 11.64222 33.40887
v 18.33178 13.29424 37.46106
v 17.03583 13.57032 38.50432
v 17.17727 12.52963 38.35070
v 18.55953 11.84577 38.88324
v 16.41928 13.36860 41.68913
v 16.41928 13.36860 41.68913
v 17.80213 11.55324 42.34798
v 17.80213 11.55324 42.34798
v 4.40797 18.43610 23.71511
v 2.49300 21.50977 38.38437
v 7.96040 31.19665 -21.69799
v 6.46276 31.57437 -18.76874
v 2.66643 28.12885 -36.62569
v 2.70145 27.34631 -36.71002
v 2.86087 30.89716 -25.79044
v 10.30200 22.78451 -3.42581
v 12.90176 21.02540 -1.79746
v 13.02532 20.79718 0.50036
v 11.26895 19.60884 -3.81933
v 10.06410 18.27639 -0.70448
v 10.06410 18.27639 -0.70448
v 11.68472 19.44519 1.03698
v 17.72114 11.72740 8.45215
v 16.24411 10.78443 7.78581
v 16.58115 10.53961 10.24845
v 16.58115 10.53961 10.24845
v 16.24411 10.78443 7.78581
v 16.91785 12.27020 8.48775
v 17.72114 11.72740 8.45215
v 17.21040 14.96453 10.84392
v 17.99204 14.51689 10.76293
v 16.69191 13.95441 14.09921
v 16.96849 14.11912 10.73705
v 17.21040 14.96453 10.84392
v 16.69191 13.95441 14.09921
v 17.68987 13.68801 10.67350
v 17.68987 13.68801 10.67350
v 17.16511 13.12402 10.50085
v 17.99910 12.44792 10.44732
v 16.60020 11.87221 13.34709
v 16.94485 12.31455 10.42592
v 17.16511 13.12402 10.50085
v 16.60020 11.87221 13.34709
v 17.72110 11.85542 10.38472
v 17.72110 11.85542 10.38472
v 18.16192 15.21175 6.14244
v 17.24762 14.96277 4.82870
v 18.00250 13.64062 5.87094
v 15.71819 13.96225 2.00573
v 16.92680 12.83631 4.67575
v 17.24762 14.96277 4.82870
v 15.96395 16.01041 2.42171
v 16.50708 16.10015 5.59932
v 14.84116 17.28460 3.17409
v 15.52099 14.87801 5.78551
v 13.80595 15.51059 3.21843
v 13.80595 15.51059 3.21843
v 15.52099 14.87801 5.78551
v 14.12822 17.79526 -0.57105
v 13.70217 16.63474 -2.02019
v 13.18062 18.68796 0.78183
v 11.75433 16.88404 -0.16248
v 11.75433 16.88404 -0.16248
v 13.02532 20.79718 0.50036
v 12.90176 21.02540 -1.79746
v 11.26895 19.60884 -3.81933
v 10.06410 18.27639 -0.70448
v 11.68472 19.44519 1.03698
v 10.06410 18.27639 -0.70448
v 16.92680 12.83631 4.67575
v 16.50708 16.10015 5.59932
v 17.37866 13.62473 9.59230
v 18.20290 14.67225 9.01327
v 15.77889 16.30557 9.26197
v 16.50598 16.37669 9.33525
v 16.13825 16.08417 11.20302
v 15.77659 16.05209 11.14937
v 15.80132 15.57246 12.79216
v 15.90705 15.73818 10.88007
v 15.77659 16.05209 11.14937
v 15.80132 15.57246 12.79216
v 16.43222 15.50865 11.24016
v 17.03527 15.41612 9.94026
v 17.04679 14.50472 8.77913
v 17.03527 15.41612 9.94026
v 17.37866 13.62473 9.59230
v 18.14248 12.67293 8.78505
v 16.43222 15.50865 11.24016
v 17.94310 11.88528 6.11231
v 16.07858 11.52415 6.39915
v 16.50664 16.50626 7.08700
v 15.76699 15.40311 7.07150
v 15.52099 14.87801 5.78551
v 16.50708 16.10015 5.59932
v 16.50664 16.50626 7.08700
v 16.07858 11.52415 6.39915
v 15.99780 15.42071 9.10355
v 15.77889 16.30557 9.26197
v 16.92680 12.83631 4.67575
v 15.99780 15.42071 9.10355
vt 0.549796 0.754292
vt 0.561810 0.782115
vt 0.542271 0.790932
vt 0.530132 0.762381
vt 0.208284 0.900142
vt 0.176722 0.888917
vt 0.208230 0.888083
vt 0.506552 0.786451
vt 0.512048 0.802365
vt 0.632103 0.349650
vt 0.641515 0.302493
vt 0.695676 0.339759
vt 0.682469 0.376169
vt 0.741383 0.411280
vt 0.756027 0.369351
vt 0.779797 0.326318
vt 0.722596 0.292487
vt 0.787797 0.224609
vt 0.829344 0.262446
vt 0.714989 0.226004
vt 0.669843 0.152942
vt 0.625621 0.157931
vt 0.630451 0.075617
vt 0.709429 0.078048
vt 0.559712 0.134368
vt 0.565502 0.068785
vt 0.500335 0.132029
vt 0.506865 0.059768
vt 0.495205 0.187655
vt 0.498024 0.241096
vt 0.400707 0.237878
vt 0.412066 0.185556
vt 0.351004 0.125518
vt 0.354609 0.056723
vt 0.430394 0.054477
vt 0.423931 0.136053
vt 0.319533 0.247929
vt 0.334349 0.181662
vt 0.598528 0.278495
vt 0.593635 0.331001
vt 0.546685 0.316454
vt 0.553840 0.249825
vt 0.495933 0.308672
vt 0.288000 0.429015
vt 0.282686 0.393418
vt 0.338838 0.389996
vt 0.342207 0.423100
vt 0.274211 0.323747
vt 0.327960 0.313106
vt 0.603589 0.198590
vt 0.557249 0.180165
vt 0.602018 0.237508
vt 0.585633 0.877820
vt 0.586955 0.898732
vt 0.505465 0.903562
vt 0.199182 0.354527
vt 0.078379 0.381303
vt 0.199620 0.304361
vt 0.883568 0.856317
vt 0.897743 0.821678
vt 0.971210 0.810370
vt 0.975959 0.845987
vt 0.586452 0.921960
vt 0.525594 0.949147
vt 0.977132 0.890494
vt 0.883279 0.894404
vt 0.403489 0.305012
vt 0.524448 0.861455
vt 0.262346 0.265372
vt 0.174896 0.254983
vt 0.243197 0.222803
vt 0.295699 0.207115
vt 0.124825 0.235277
vt 0.084492 0.198288
vt 0.128312 0.190514
vt 0.222320 0.158738
vt 0.198126 0.181720
vt 0.978562 0.932395
vt 0.887754 0.939223
vt 0.773213 0.932473
vt 0.773824 0.894933
vt 0.241397 0.148277
vt 0.273111 0.123474
vt 0.314952 0.127026
vt 0.138075 0.199640
vt 0.179891 0.191411
vt 0.643610 0.872512
vt 0.644815 0.896927
vt 0.644583 0.924661
vt 0.618774 0.981379
vt 0.579872 0.978854
vt 0.102394 0.439016
vt 0.202704 0.396862
vt 0.497839 0.393057
vt 0.411839 0.393098
vt 0.540427 0.391992
vt 0.585930 0.395824
vt 0.624993 0.400305
vt 0.672040 0.415419
vt 0.772136 0.864143
vt 0.900039 0.968323
vt 0.801203 0.966690
vt 0.800127 0.829196
vt 0.664436 0.979932
vt 0.732844 0.972540
vt 0.475964 0.709975
vt 0.435214 0.731654
vt 0.430468 0.678288
vt 0.108417 0.599896
vt 0.174672 0.575558
vt 0.185272 0.604590
vt 0.126367 0.625972
vt 0.069169 0.643261
vt 0.418152 0.632969
vt 0.378134 0.649069
vt 0.285525 0.616760
vt 0.289346 0.586298
vt 0.923462 0.641780
vt 0.877306 0.706995
vt 0.855990 0.627062
vt 0.676665 0.695857
vt 0.654738 0.750718
vt 0.636749 0.741688
vt 0.737421 0.738773
vt 0.063363 0.685001
vt 0.105952 0.665571
vt 0.100958 0.732823
vt 0.743405 0.664667
vt 0.825406 0.717525
vt 0.149434 0.680246
vt 0.282600 0.655251
vt 0.352234 0.693449
vt 0.289706 0.875225
vt 0.358262 0.979702
vt 0.272632 0.880771
vt 0.051468 0.987833
vt 0.090962 0.894139
vt 0.075847 0.992609
vt 0.039421 0.972483
vt 0.048962 0.897295
vt 0.119572 0.983229
vt 0.167460 0.957265
vt 0.370447 0.895456
vt 0.316392 0.874773
vt 0.268746 0.973770
vt 0.258531 0.893840
vt 0.198026 0.930299
vt 0.408205 0.923340
vt 0.429270 0.953895
vt 0.383333 0.691410
vt 0.494495 0.755334
vt 0.469041 0.774408
vt 0.173684 0.819144
vt 0.183562 0.796822
vt 0.255051 0.811897
vt 0.940575 0.786507
vt 0.874567 0.796249
vt 0.948259 0.709391
vt 0.478145 0.812130
vt 0.648559 0.803059
vt 0.619853 0.800040
vt 0.782952 0.802954
vt 0.106472 0.816011
vt 0.135232 0.763258
vt 0.435836 0.985414
vt 0.187077 0.770026
vt 0.165529 0.768221
vt 0.181596 0.730463
vt 0.192408 0.672313
vt 0.159849 0.632217
vt 0.351774 0.729267
vt 0.303755 0.729789
vt 0.391560 0.761423
vt 0.377446 0.750558
vt 0.385651 0.729107
vt 0.501818 0.691381
vt 0.357910 0.761188
vt 0.358667 0.754746
vt 0.053969 0.484129
vt 0.068416 0.508651
vt 0.033765 0.495624
vt 0.074900 0.474167
vt 0.020530 0.463525
vt 0.041830 0.465267
vt 0.022740 0.503606
vt 0.052204 0.444953
vt 0.371943 0.705813
vt 0.087186 0.471360
vt 0.356553 0.707204
vt 0.354520 0.730995
vt 0.063487 0.530658
vt 0.092840 0.515399
vt 0.805984 0.361843
vt 0.827785 0.347606
vt 0.875537 0.279758
vt 0.801167 0.385611
vt 0.776650 0.435404
vt 0.619440 0.739050
vt 0.660936 0.682319
vt 0.886725 0.599529
vt 0.921849 0.611642
vt 0.733999 0.633949
vt 0.954377 0.633865
vt 0.977073 0.689444
vt 0.834843 0.596955
vt 0.605840 0.796824
vt 0.112878 0.103245
vt 0.140234 0.098996
vt 0.167066 0.127908
vt 0.148820 0.140858
vt 0.186927 0.101215
vt 0.197779 0.086494
vt 0.155451 0.064902
vt 0.169729 0.050574
vt 0.233221 0.068769
vt 0.201167 0.026538
vt 0.868930 0.468490
vt 0.838453 0.402555
vt 0.895693 0.456114
vt 0.884026 0.430186
vt 0.750957 0.561239
vt 0.765577 0.592917
vt 0.735378 0.546469
vt 0.975007 0.399561
vt 0.957840 0.399866
vt 0.962349 0.334099
vt 0.777659 0.509446
vt 0.824348 0.492186
vt 0.795030 0.507960
vt 0.944688 0.376184
vt 0.775691 0.483100
vt 0.717893 0.565371
vt 0.690619 0.531366
vt 0.688586 0.558707
vt 0.670515 0.561211
vt 0.666393 0.541415
vt 0.928313 0.519467
vt 0.868606 0.524861
vt 0.869079 0.500743
vt 0.846503 0.504427
vt 0.692683 0.491326
vt 0.705149 0.486335
vt 0.713759 0.532646
vt 0.741775 0.518600
vt 0.700830 0.569143
vt 0.961453 0.523201
vt 0.956549 0.496278
vt 0.874930 0.485290
vt 0.917611 0.485685
vt 0.679739 0.595138
vt 0.828565 0.460873
vt 0.776659 0.532131
vt 0.971628 0.496443
vt 0.921918 0.422456
vt 0.893958 0.409382
vt 0.903975 0.394122
vt 0.929945 0.380786
vt 0.860090 0.356908
vt 0.810550 0.563496
vt 0.909070 0.324346
vt 0.836088 0.536974
vt 0.310317 0.108556
vt 0.048407 0.357458
vt 0.253480 0.747139
vt 0.211179 0.769571
vt 0.019736 0.349300
vt 0.495556 0.772189
vt 0.503542 0.769117
vt 0.319674 0.806132
vt 0.635580 0.217391
vt 0.654373 0.223058
vt 0.657262 0.262005
vt 0.673370 0.222820
vt 0.684224 0.188718
vt 0.643554 0.194759
vt 0.627419 0.211976
vt 0.604844 0.608118
vt 0.654045 0.584160
vt 0.632361 0.638741
vt 0.396852 0.593857
vt 0.358385 0.549862
vt 0.344398 0.575784
vt 0.382570 0.561583
vt 0.532882 0.531011
vt 0.558854 0.454452
vt 0.549542 0.537952
vt 0.414100 0.514095
vt 0.478954 0.526357
vt 0.415329 0.500605
vt 0.412238 0.527359
vt 0.566956 0.538603
vt 0.586030 0.545749
vt 0.633161 0.489516
vt 0.603329 0.558453
vt 0.413091 0.549691
vt 0.472208 0.578061
vt 0.423559 0.541753
vt 0.406041 0.563899
vt 0.615797 0.562488
vt 0.522479 0.642838
vt 0.548348 0.655434
vt 0.515770 0.677157
vt 0.815152 0.127760
vt 0.837180 0.150270
vt 0.797658 0.178390
vt 0.772948 0.156187
vt 0.856102 0.171580
vt 0.810549 0.198285
vt 0.866464 0.199886
vt 0.819884 0.219336
vt 0.793257 0.091632
vt 0.749175 0.120524
vt 0.884947 0.085674
vt 0.891219 0.115117
vt 0.906417 0.145192
vt 0.930356 0.179043
vt 0.858098 0.055593
vt 0.931316 0.127886
vt 0.938610 0.088232
vt 0.929102 0.047645
vt 0.881568 0.023277
vt 0.941490 0.149577
vt 0.620140 0.420124
vt 0.729778 0.441868
vt 0.210024 0.438118
vt 0.974311 0.972313
vt 0.572317 0.837516
vt 0.583039 0.419480
vt 0.538232 0.420011
vt 0.495623 0.421609
vt 0.410881 0.422713
vt 0.279297 0.060200
vt 0.110635 0.461527
vt 0.613163 0.831609
vt 0.659134 0.829456
vt 0.728165 0.829207
vt 0.109704 0.840845
vt 0.175403 0.843361
vt 0.330337 0.837986
vt 0.396846 0.829570
vt 0.265918 0.839489
vt 0.764126 0.462124
vt 0.968494 0.181869
vt 0.559808 0.692715
vt 0.486311 0.654920
vt 0.571300 0.564381
vt 0.544416 0.578845
vt 0.481920 0.559977
vt 0.494400 0.519810
vt 0.501181 0.521058
vt 0.496452 0.562342
vt 0.459308 0.463887
vt 0.416183 0.461324
vt 0.409006 0.472936
vt 0.508491 0.485628
vt 0.515297 0.518041
vt 0.520381 0.551119
vt 0.397550 0.497285
vt 0.372516 0.510382
vt 0.386695 0.526933
vt 0.584853 0.592848
vt 0.424915 0.480996
vt 0.579794 0.656043
vt 0.317748 0.559823
vt 0.330301 0.467355
vt 0.300672 0.473863
vt 0.305903 0.500555
vt 0.332917 0.491154
vt 0.483989 0.615195
vt 0.612192 0.673562
vt 0.374928 0.485577
vt 0.375523 0.469684
vt 0.277091 0.540577
vt 0.375527 0.485812
vt 0.549796 0.754292
vt 0.530132 0.762381
vt 0.208284 0.900142
vt 0.506552 0.786451
vt 0.632103 0.349650
vt 0.682469 0.376169
vt 0.695676 0.339759
vt 0.641515 0.302493
vt 0.741383 0.411280
vt 0.756027 0.369351
vt 0.779797 0.326318
vt 0.722596 0.292487
vt 0.714989 0.226004
vt 0.669843 0.152942
vt 0.625621 0.157931
vt 0.559712 0.134368
vt 0.500335 0.132029
vt 0.495205 0.187655
vt 0.412066 0.185556
vt 0.400707 0.237878
vt 0.498024 0.241096
vt 0.351004 0.125518
vt 0.423931 0.136053
vt 0.319533 0.247929
vt 0.334349 0.181662
vt 0.598528 0.278495
vt 0.553840 0.249825
vt 0.546685 0.316454
vt 0.593635 0.331001
vt 0.495933 0.308672
vt 0.338838 0.389996
vt 0.282686 0.393418
vt 0.274211 0.323747
vt 0.327960 0.313106
vt 0.603589 0.198590
vt 0.557249 0.180165
vt 0.602018 0.237508
vt 0.585633 0.877820
vt 0.586955 0.898732
vt 0.199182 0.354527
vt 0.199620 0.304361
vt 0.078379 0.381303
vt 0.883568 0.856317
vt 0.975959 0.845987
vt 0.586452 0.921960
vt 0.883279 0.894404
vt 0.977132 0.890494
vt 0.403489 0.305012
vt 0.262346 0.265372
vt 0.243197 0.222803
vt 0.174896 0.254983
vt 0.295699 0.207115
vt 0.124825 0.235277
vt 0.128312 0.190514
vt 0.222320 0.158738
vt 0.198126 0.181720
vt 0.978562 0.932395
vt 0.887754 0.939223
vt 0.773213 0.932473
vt 0.773824 0.894933
vt 0.314952 0.127026
vt 0.273111 0.123474
vt 0.241397 0.148277
vt 0.138075 0.199640
vt 0.179891 0.191411
vt 0.643610 0.872512
vt 0.644815 0.896927
vt 0.644583 0.924661
vt 0.102394 0.439016
vt 0.202704 0.396862
vt 0.411839 0.393098
vt 0.497839 0.393057
vt 0.540427 0.391992
vt 0.585930 0.395824
vt 0.624993 0.400305
vt 0.772136 0.864143
vt 0.475964 0.709975
vt 0.430468 0.678288
vt 0.435214 0.731654
vt 0.108417 0.599896
vt 0.126367 0.625972
vt 0.185272 0.604590
vt 0.174672 0.575558
vt 0.069169 0.643261
vt 0.418152 0.632969
vt 0.289346 0.586298
vt 0.285525 0.616760
vt 0.378134 0.649069
vt 0.923462 0.641780
vt 0.855990 0.627062
vt 0.877306 0.706995
vt 0.676665 0.695857
vt 0.636749 0.741688
vt 0.654738 0.750718
vt 0.737421 0.738773
vt 0.063363 0.685001
vt 0.100958 0.732823
vt 0.105952 0.665571
vt 0.743405 0.664667
vt 0.825406 0.717525
vt 0.149434 0.680246
vt 0.282600 0.655251
vt 0.352234 0.693449
vt 0.289706 0.875225
vt 0.272632 0.880771
vt 0.051468 0.987833
vt 0.075847 0.992609
vt 0.039421 0.972483
vt 0.119572 0.983229
vt 0.167460 0.957265
vt 0.370447 0.895456
vt 0.316392 0.874773
vt 0.258531 0.893840
vt 0.198026 0.930299
vt 0.408205 0.923340
vt 0.429270 0.953895
vt 0.383333 0.691410
vt 0.494495 0.755334
vt 0.469041 0.774408
vt 0.173684 0.819144
vt 0.255051 0.811897
vt 0.183562 0.796822
vt 0.948259 0.709391
vt 0.135232 0.763258
vt 0.106472 0.816011
vt 0.187077 0.770026
vt 0.181596 0.730463
vt 0.165529 0.768221
vt 0.192408 0.672313
vt 0.159849 0.632217
vt 0.303755 0.729789
vt 0.351774 0.729267
vt 0.391560 0.761423
vt 0.385651 0.729107
vt 0.377446 0.750558
vt 0.501818 0.691381
vt 0.357910 0.761188
vt 0.358667 0.754746
vt 0.053969 0.484129
vt 0.033765 0.495624
vt 0.068416 0.508651
vt 0.074900 0.474167
vt 0.020530 0.463525
vt 0.022740 0.503606
vt 0.041830 0.465267
vt 0.052204 0.444953
vt 0.371943 0.705813
vt 0.087186 0.471360
vt 0.354520 0.730995
vt 0.356553 0.707204
vt 0.063487 0.530658
vt 0.092840 0.515399
vt 0.805984 0.361843
vt 0.827785 0.347606
vt 0.776650 0.435404
vt 0.801167 0.385611
vt 0.660936 0.682319
vt 0.619440 0.739050
vt 0.886725 0.599529
vt 0.921849 0.611642
vt 0.733999 0.633949
vt 0.954377 0.633865
vt 0.977073 0.689444
vt 0.834843 0.596955
vt 0.112878 0.103245
vt 0.148820 0.140858
vt 0.167066 0.127908
vt 0.140234 0.098996
vt 0.197779 0.086494
vt 0.186927 0.101215
vt 0.169729 0.050574
vt 0.155451 0.064902
vt 0.233221 0.068769
vt 0.201167 0.026538
vt 0.868930 0.468490
vt 0.895693 0.456114
vt 0.838453 0.402555
vt 0.884026 0.430186
vt 0.750957 0.561239
vt 0.735378 0.546469
vt 0.765577 0.592917
vt 0.975007 0.399561
vt 0.962349 0.334099
vt 0.957840 0.399866
vt 0.777659 0.509446
vt 0.795030 0.507960
vt 0.824348 0.492186
vt 0.944688 0.376184
vt 0.775691 0.483100
vt 0.717893 0.565371
vt 0.690619 0.531366
vt 0.666393 0.541415
vt 0.670515 0.561211
vt 0.688586 0.558707
vt 0.928313 0.519467
vt 0.869079 0.500743
vt 0.868606 0.524861
vt 0.846503 0.504427
vt 0.692683 0.491326
vt 0.713759 0.532646
vt 0.705149 0.486335
vt 0.741775 0.518600
vt 0.700830 0.569143
vt 0.961453 0.523201
vt 0.956549 0.496278
vt 0.917611 0.485685
vt 0.874930 0.485290
vt 0.679739 0.595138
vt 0.828565 0.460873
vt 0.776659 0.532131
vt 0.971628 0.496443
vt 0.921918 0.422456
vt 0.893958 0.409382
vt 0.903975 0.394122
vt 0.929945 0.380786
vt 0.860090 0.356908
vt 0.810550 0.563496
vt 0.909070 0.324346
vt 0.836088 0.536974
vt 0.310317 0.108556
vt 0.048407 0.357458
vt 0.253480 0.747139
vt 0.211179 0.769571
vt 0.495556 0.772189
vt 0.503542 0.769117
vt 0.319674 0.806132
vt 0.657262 0.262005
vt 0.654373 0.223058
vt 0.635580 0.217391
vt 0.673370 0.222820
vt 0.684224 0.188718
vt 0.643554 0.194759
vt 0.627419 0.211976
vt 0.604844 0.608118
vt 0.632361 0.638741
vt 0.654045 0.584160
vt 0.396852 0.593857
vt 0.344398 0.575784
vt 0.358385 0.549862
vt 0.382570 0.561583
vt 0.532882 0.531011
vt 0.549542 0.537952
vt 0.558854 0.454452
vt 0.414100 0.514095
vt 0.415329 0.500605
vt 0.478954 0.526357
vt 0.412238 0.527359
vt 0.566956 0.538603
vt 0.586030 0.545749
vt 0.603329 0.558453
vt 0.633161 0.489516
vt 0.413091 0.549691
vt 0.423559 0.541753
vt 0.472208 0.578061
vt 0.406041 0.563899
vt 0.615797 0.562488
vt 0.522479 0.642838
vt 0.515770 0.677157
vt 0.548348 0.655434
vt 0.815152 0.127760
vt 0.772948 0.156187
vt 0.797658 0.178390
vt 0.837180 0.150270
vt 0.810549 0.198285
vt 0.856102 0.171580
vt 0.819884 0.219336
vt 0.866464 0.199886
vt 0.793257 0.091632
vt 0.749175 0.120524
vt 0.891219 0.115117
vt 0.884947 0.085674
vt 0.906417 0.145192
vt 0.930356 0.179043
vt 0.858098 0.055593
vt 0.931316 0.127886
vt 0.938610 0.088232
vt 0.929102 0.047645
vt 0.881568 0.023277
vt 0.941490 0.149577
vt 0.968494 0.181869
vt 0.559808 0.692715
vt 0.486311 0.654920
vt 0.571300 0.564381
vt 0.544416 0.578845
vt 0.481920 0.559977
vt 0.496452 0.562342
vt 0.501181 0.521058
vt 0.494400 0.519810
vt 0.459308 0.463887
vt 0.409006 0.472936
vt 0.416183 0.461324
vt 0.508491 0.485628
vt 0.515297 0.518041
vt 0.520381 0.551119
vt 0.372516 0.510382
vt 0.397550 0.497285
vt 0.386695 0.526933
vt 0.584853 0.592848
vt 0.424915 0.480996
vt 0.579794 0.656043
vt 0.317748 0.559823
vt 0.330301 0.467355
vt 0.332917 0.491154
vt 0.305903 0.500555
vt 0.300672 0.473863
vt 0.483989 0.615195
vt 0.612192 0.673562
vt 0.374928 0.485577
vt 0.375523 0.469684
vt 0.277091 0.540577
vt 0.375527 0.485812
vn -0.06562 -0.53482 -0.84241
vn -0.00000 -0.78571 -0.61860
vn 0.00000 0.43766 -0.89914
vn -0.10415 0.49790 -0.86096
vn -0.06562 -0.53482 -0.84241
vn -0.00000 -0.97218 0.23422
vn -0.00000 -0.78571 -0.61860
vn 0.06609 0.76161 -0.64466
vn 0.00000 0.78627 -0.61789
vn -0.45028 0.87421 -0.18164
vn -0.79900 0.54798 -0.24763
vn -0.77989 0.55654 -0.28641
vn -0.36672 0.91328 -0.17731
vn -0.41402 0.91026 0.00333
vn -0.85002 0.47092 0.23601
vn -0.81670 -0.57240 0.07321
vn -0.64379 -0.14570 -0.75121
vn -0.00000 -0.90583 -0.42365
vn -0.00000 -0.99213 -0.12520
vn -0.05156 -0.89476 -0.44356
vn -0.05156 -0.89476 -0.44356
vn -0.17589 -0.98175 -0.07224
vn -0.00000 -0.96162 -0.27438
vn -0.00000 -0.90583 -0.42365
vn -0.27850 -0.93100 -0.23597
vn 0.00000 -0.96135 -0.27532
vn -0.37076 -0.92356 -0.09783
vn 0.00000 -0.98977 -0.14266
vn -0.84743 -0.50728 -0.15660
vn -0.95250 0.26537 -0.14938
vn -0.99180 0.04613 0.11917
vn -0.81332 -0.56238 0.14911
vn -0.22154 -0.93359 0.28167
vn 0.00000 -0.94694 0.32141
vn 0.00000 -0.98676 0.16219
vn -0.38501 -0.90663 0.17261
vn -0.93058 0.36571 -0.01677
vn -0.51986 -0.82111 -0.23562
vn -0.88704 0.44788 -0.11205
vn -0.55006 0.83367 -0.04923
vn -0.69829 0.70723 -0.11049
vn -0.97799 0.05988 -0.19986
vn -0.56238 0.81805 -0.12053
vn -0.00000 0.99986 -0.01659
vn -0.71047 0.70004 0.07186
vn -0.66870 0.74278 -0.03344
vn 0.00000 0.99063 -0.13656
vn -0.72458 0.65734 0.20708
vn -0.66850 0.73096 0.13717
vn -0.51668 -0.79185 0.32559
vn -0.75393 -0.64200 -0.13936
vn -0.91564 0.27816 0.29022
vn -0.97604 -0.18700 0.11126
vn -0.99207 0.00892 0.12533
vn 0.00000 0.09365 0.99561
vn -0.80488 0.56390 0.18489
vn -0.97739 0.01331 0.21102
vn -0.79195 0.38839 0.47114
vn -0.74886 -0.65955 0.06482
vn 0.00000 -0.99974 -0.02283
vn 0.00000 -0.99083 0.13512
vn -0.65306 -0.74056 0.15837
vn -0.97975 0.17234 0.10198
vn -0.00000 0.63944 0.76884
vn -0.97739 0.01331 0.21102
vn -0.98429 0.16079 0.07300
vn -0.65943 0.75139 0.02367
vn -0.00000 -0.74135 0.67111
vn -0.73298 0.65074 0.19817
vn -0.41404 -0.44924 0.79168
vn -0.75614 0.53112 0.38231
vn -0.82380 0.22602 -0.51987
vn -0.42295 -0.84027 0.33920
vn 0.00000 -0.96089 0.27693
vn -0.11301 -0.90533 0.40940
vn -0.81286 0.57858 0.06704
vn 0.33331 0.25268 0.90832
vn -0.85069 0.51758 0.09185
vn -0.89625 0.44320 0.01785
vn -0.92798 0.36946 0.04848
vn -0.99280 -0.00208 0.11980
vn -0.57489 -0.56053 -0.59607
vn 0.55801 -0.82680 0.07095
vn 0.13453 -0.91159 0.38847
vn 0.13453 -0.91159 0.38847
vn 0.55801 -0.82680 0.07095
vn -0.95726 -0.27736 0.08197
vn -0.98266 0.14899 0.11038
vn -0.97405 0.22457 0.02823
vn 0.00000 0.99953 -0.03059
vn 0.00000 0.93777 0.34726
vn -0.85069 0.51758 0.09185
vn -0.78841 0.60791 0.09408
vn -0.55358 0.82210 -0.13301
vn -0.60518 0.79056 -0.09363
vn -0.48882 0.87015 -0.06240
vn -0.47021 0.88215 -0.02676
vn -0.40547 0.90440 -0.13288
vn 0.00000 0.97828 -0.20730
vn -0.87215 -0.48413 0.07051
vn 0.00000 0.99950 0.03174
vn 0.00000 0.99607 -0.08857
vn 0.00000 -0.99846 -0.05541
vn 0.00000 0.97759 -0.21052
vn -0.00000 0.99826 -0.05903
vn -0.39794 0.56377 -0.72374
vn -0.17233 0.93551 -0.30841
vn -0.49502 0.63221 -0.59604
vn -0.71546 -0.59423 0.36744
vn -0.64811 -0.75742 0.07920
vn -0.93974 0.33161 0.08317
vn -0.72830 0.33280 0.59902
vn -0.47138 -0.10286 0.87591
vn -0.69195 -0.41716 -0.58922
vn -0.67575 0.61597 -0.40490
vn -0.91757 0.31293 -0.24524
vn -0.79364 -0.59138 -0.14284
vn -0.50459 -0.60678 0.61417
vn -0.12753 -0.94021 0.31582
vn -0.72058 -0.69162 0.04922
vn -0.52512 -0.60136 -0.60217
vn -0.11096 -0.84924 -0.51621
vn -0.24093 -0.38997 -0.88875
vn -0.17438 -0.95930 -0.22211
vn -0.55069 0.00604 0.83469
vn -0.27246 0.44080 0.85525
vn -0.38680 0.65372 0.65041
vn -0.51881 -0.81819 -0.24779
vn -0.18262 -0.98195 -0.04919
vn -0.41314 0.81852 0.39916
vn -0.54784 0.82838 -0.11690
vn -0.68203 0.73101 0.02150
vn -0.87144 0.36994 0.32209
vn 0.00000 0.99978 0.02098
vn -0.69759 0.62515 0.35008
vn -0.71546 -0.59423 0.36744
vn -0.00000 -0.99424 -0.10717
vn -0.64811 -0.75742 0.07920
vn -0.47138 -0.10286 0.87591
vn -0.00000 0.08784 -0.99613
vn -0.79364 -0.59138 -0.14284
vn -0.69195 -0.41716 -0.58922
vn -0.91875 0.16192 -0.36011
vn -0.71782 0.69608 0.01446
vn -0.00000 0.08784 -0.99613
vn -0.47138 -0.10286 0.87591
vn -0.37669 -0.39261 -0.83902
vn -0.47873 0.56475 -0.67221
vn -0.21046 0.49363 -0.84382
vn -0.42430 0.82001 -0.38413
vn -0.15359 0.76047 -0.63094
vn -0.05284 0.96971 -0.23846
vn 0.05402 0.93424 0.35252
vn 0.11517 0.98917 0.09097
vn 0.01180 0.99953 -0.02835
vn 0.00000 -0.92847 0.37140
vn -0.00000 -0.98525 0.17112
vn -0.22117 -0.69076 0.68843
vn 0.00000 0.91285 -0.40829
vn -0.00000 -0.78357 -0.62130
vn -0.00000 -0.44520 -0.89543
vn -0.00000 -0.98408 -0.17770
vn -0.14122 0.93922 0.31294
vn -0.09629 0.76506 0.63672
vn 0.00000 0.67996 -0.73325
vn -0.04225 0.99746 0.05738
vn -0.00790 0.94151 0.33689
vn -0.27927 0.94983 0.14083
vn -0.49340 0.86749 -0.06340
vn -0.68953 0.70877 0.14900
vn -0.37369 0.92283 -0.09345
vn -0.26249 0.96475 0.01897
vn -0.15667 0.95140 -0.26512
vn 0.35662 0.75297 -0.55305
vn -0.02021 0.81405 -0.58045
vn -0.37669 -0.39261 -0.83902
vn -0.00029 0.93969 -0.34202
vn 0.45270 0.88681 -0.09291
vn 0.01951 0.88617 -0.46294
vn -0.43613 0.77395 -0.45911
vn 0.10482 0.51443 -0.85110
vn -0.03850 0.99919 0.01173
vn 0.35662 0.75297 -0.55305
vn 0.53266 0.76818 -0.35521
vn -0.02021 0.81405 -0.58045
vn 0.45270 0.88681 -0.09291
vn -0.42976 0.61515 -0.66098
vn 0.03802 0.91191 -0.40863
vn -0.63157 0.74961 -0.19800
vn 0.03802 0.91191 -0.40863
vn -0.42976 0.61515 -0.66098
vn -0.63157 0.74961 -0.19800
vn -0.55069 0.00604 0.83469
vn -0.22117 -0.69076 0.68843
vn 0.00000 -0.92847 0.37140
vn -0.38680 0.65372 0.65041
vn -0.14122 0.93922 0.31294
vn -0.21046 0.49363 -0.84382
vn -0.47873 0.56475 -0.67221
vn -0.87144 0.36994 0.32209
vn -0.69759 0.62515 0.35008
vn -0.91875 0.16192 -0.36011
vn -0.47138 -0.10286 0.87591
vn -0.55069 0.00604 0.83469
vn -0.71782 0.69608 0.01446
vn 0.00000 0.67996 -0.73325
vn 0.89573 -0.44458 0.00488
vn -0.01605 0.97351 -0.22808
vn 0.27046 0.77588 0.56997
vn 0.82393 -0.53418 0.18918
vn -0.85456 0.51039 -0.09612
vn -0.47180 -0.71861 -0.51088
vn -0.82148 0.52582 -0.22064
vn -0.26419 -0.65065 -0.71194
vn 0.82393 -0.53418 0.18918
vn 0.89573 -0.44458 0.00488
vn 0.29472 0.94026 0.17046
vn 0.13271 -0.73259 0.66760
vn -0.61769 0.71711 0.32281
vn -0.37587 0.28556 0.88158
vn -0.37587 0.28556 0.88158
vn 0.13271 -0.73259 0.66760
vn 0.91225 -0.27672 0.30204
vn -0.01003 -0.98889 -0.14830
vn -0.98778 0.15495 0.01674
vn -0.57260 0.61772 0.53903
vn 0.81985 -0.50171 0.27593
vn -0.57260 0.61772 0.53903
vn -0.78206 0.10932 0.61354
vn -0.78206 0.10932 0.61354
vn -0.01003 -0.98889 -0.14830
vn 0.29472 0.94026 0.17046
vn 0.89573 -0.44458 0.00488
vn 0.90963 -0.32660 0.25674
vn 0.83745 0.45547 -0.30203
vn -0.01605 0.97351 -0.22808
vn -0.82148 0.52582 -0.22064
vn -0.01605 0.97351 -0.22808
vn -0.55879 0.82835 0.03985
vn 0.83745 0.45547 -0.30203
vn -0.26419 -0.65065 -0.71194
vn -0.27805 -0.77984 -0.56084
vn 0.79746 -0.60336 -0.00428
vn 0.77835 -0.60492 0.16808
vn -0.35200 0.63089 0.69143
vn -0.26419 -0.65065 -0.71194
vn -0.91797 0.20314 -0.34068
vn -0.35200 0.63089 0.69143
vn -0.73728 0.67497 -0.02876
vn 0.06290 0.36777 0.92779
vn 0.06290 0.36777 0.92779
vn 0.38733 -0.00406 0.92193
vn -0.27805 -0.77984 -0.56084
vn -0.76031 0.52429 0.38347
vn -0.69535 0.53629 0.47842
vn 0.38733 -0.00406 0.92193
vn -0.81126 0.38246 0.44226
vn -0.07492 0.72810 0.68136
vn -0.07492 0.72810 0.68136
vn -0.21497 -0.69110 0.69005
vn -0.21497 -0.69110 0.69005
vn -0.11301 -0.90533 0.40940
vn -0.65306 -0.74056 0.15837
vn -0.20437 0.96986 -0.13272
vn -0.03476 0.99893 -0.03034
vn 0.00000 -0.99083 0.13512
vn 0.00543 0.68520 -0.72834
vn -0.01418 0.44620 -0.89482
vn -0.10569 0.97848 -0.17723
vn -0.70991 0.36513 0.60225
vn -0.78670 0.53307 -0.31136
vn -0.69666 0.57203 -0.43295
vn -0.30940 -0.36304 -0.87890
vn 0.21905 -0.97510 0.03460
vn 0.21905 -0.97510 0.03460
vn -0.10600 -0.33092 0.93769
vn -0.62064 -0.77234 0.13529
vn -0.13043 0.20823 0.96935
vn 0.31501 -0.94288 -0.10836
vn -0.13043 0.20823 0.96935
vn 0.90711 0.09040 0.41107
vn 0.31501 -0.94288 -0.10836
vn -0.62064 -0.77234 0.13529
vn 0.36282 0.86292 0.35174
vn 0.18245 -0.24646 0.95182
vn -0.94743 0.25414 0.19441
vn 0.94710 -0.31899 0.03536
vn 0.18245 -0.24646 0.95182
vn 0.36282 0.86292 0.35174
vn -0.32008 -0.94556 0.05885
vn -0.32008 -0.94556 0.05885
vn 0.35270 0.86697 0.35209
vn 0.06420 -0.54134 0.83835
vn -0.94767 0.12693 0.29293
vn 0.93431 -0.35263 -0.05217
vn 0.06420 -0.54134 0.83835
vn 0.35270 0.86697 0.35209
vn -0.27482 -0.95797 0.08227
vn -0.27482 -0.95797 0.08227
vn -0.85733 0.47325 -0.20256
vn -0.90875 -0.06160 -0.41278
vn -0.84035 0.28791 -0.45926
vn -0.50323 -0.64189 -0.57857
vn -0.84988 0.46010 -0.25693
vn -0.84035 0.28791 -0.45926
vn -0.09692 -0.72400 -0.68296
vn -0.08286 0.91052 0.40508
vn -0.14057 0.98057 -0.13681
vn 0.85914 -0.23322 0.45551
vn 0.96367 0.20384 0.17262
vn 0.85914 -0.23322 0.45551
vn 0.96367 0.20384 0.17262
vn -0.31646 -0.52936 -0.78717
vn -0.94841 0.28025 -0.14824
vn -0.25025 0.46707 0.84807
vn 0.66375 -0.66084 0.35033
vn 0.66375 -0.66084 0.35033
vn -0.70991 0.36513 0.60225
vn -0.78670 0.53307 -0.31136
vn -0.30940 -0.36304 -0.87890
vn 0.21905 -0.97510 0.03460
vn -0.10600 -0.33092 0.93769
vn 0.00000 0.98751 -0.15754
vn -0.00000 0.99874 -0.05012
vn 0.00000 0.99123 0.13218
vn 0.00000 0.98881 0.14916
vn -0.00000 -0.95808 0.28649
vn 0.00000 0.99649 -0.08370
vn 0.00000 0.98593 -0.16715
vn 0.00000 0.98534 -0.17061
vn 0.00000 0.99233 -0.12365
vn 0.00000 -0.96089 0.27693
vn 0.00000 0.98881 0.14916
vn -0.00000 -0.99526 0.09725
vn 0.00000 -0.99351 -0.11377
vn 0.00000 -0.99995 -0.01028
vn -0.00000 0.94985 0.31270
vn 0.00000 0.98336 0.18166
vn -0.00000 0.98335 -0.18173
vn -0.00000 0.95377 -0.30053
vn 0.00000 0.99955 -0.03016
vn -0.00000 0.94985 0.31270
vn 0.21905 -0.97510 0.03460
vn -0.09692 -0.72400 -0.68296
vn -0.14057 0.98057 -0.13681
vn 0.25974 -0.30782 0.91530
vn -0.91662 0.27681 0.28842
vn 0.71145 0.70149 0.04194
vn 0.94784 0.30254 0.10034
vn -0.41186 0.86475 0.28739
vn -0.48096 0.85807 0.17997
vn 0.79129 0.19396 0.57986
vn 0.94784 0.30254 0.10034
vn 0.72557 -0.68812 -0.00630
vn 0.79129 0.19396 0.57986
vn -0.36360 -0.86671 0.34147
vn -0.32026 0.58434 0.74564
vn -0.32026 0.58434 0.74564
vn 0.89110 -0.36239 0.27316
vn 0.25974 -0.30782 0.91530
vn -0.98795 -0.08760 0.12759
vn -0.36360 -0.86671 0.34147
vn -0.69110 -0.63440 -0.34630
vn 0.86041 -0.47639 -0.18097
vn 0.30144 0.94500 -0.12692
vn -0.14057 0.98057 -0.13681
vn 0.96367 0.20384 0.17262
vn 0.98141 -0.03498 0.18871
vn 0.30144 0.94500 -0.12692
vn 0.86041 -0.47639 -0.18097
vn 0.71678 -0.68156 0.14731
vn 0.71145 0.70149 0.04194
vn -0.09692 -0.72400 -0.68296
vn 0.71678 -0.68156 0.14731
vn 0.06562 -0.53482 -0.84241
vn 0.10415 0.49790 -0.86096
vn 0.06562 -0.53482 -0.84241
vn -0.06609 0.76161 -0.64466
vn 0.45028 0.87421 -0.18164
vn 0.36672 0.91328 -0.17731
vn 0.77989 0.55654 -0.28641
vn 0.79900 0.54798 -0.24763
vn 0.41402 0.91026 0.00333
vn 0.85002 0.47092 0.23601
vn 0.81670 -0.57240 0.07321
vn 0.64379 -0.14570 -0.75121
vn 0.05156 -0.89476 -0.44356
vn 0.05156 -0.89476 -0.44356
vn 0.17589 -0.98175 -0.07224
vn 0.27850 -0.93100 -0.23597
vn 0.37076 -0.92356 -0.09783
vn 0.84743 -0.50728 -0.15660
vn 0.81332 -0.56238 0.14911
vn 0.99180 0.04613 0.11917
vn 0.95250 0.26537 -0.14938
vn 0.22154 -0.93359 0.28167
vn 0.38500 -0.90663 0.17261
vn 0.93058 0.36571 -0.01677
vn 0.51986 -0.82111 -0.23562
vn 0.88704 0.44789 -0.11205
vn 0.97799 0.05988 -0.19986
vn 0.69829 0.70723 -0.11049
vn 0.55006 0.83367 -0.04923
vn 0.56238 0.81805 -0.12053
vn 0.66869 0.74278 -0.03344
vn 0.71047 0.70004 0.07186
vn 0.72458 0.65734 0.20708
vn 0.66850 0.73096 0.13717
vn 0.51668 -0.79185 0.32559
vn 0.75393 -0.64200 -0.13936
vn 0.91564 0.27816 0.29022
vn 0.97604 -0.18700 0.11126
vn 0.99207 0.00892 0.12533
vn 0.80488 0.56390 0.18489
vn 0.79195 0.38839 0.47114
vn 0.97739 0.01331 0.21102
vn 0.74886 -0.65955 0.06482
vn 0.65306 -0.74056 0.15837
vn 0.97975 0.17234 0.10198
vn 0.98429 0.16079 0.07300
vn 0.97739 0.01331 0.21102
vn 0.65943 0.75139 0.02367
vn 0.73298 0.65074 0.19817
vn 0.75614 0.53112 0.38231
vn 0.41404 -0.44924 0.79168
vn 0.82380 0.22602 -0.51987
vn 0.42295 -0.84027 0.33920
vn 0.11301 -0.90533 0.40940
vn 0.81286 0.57858 0.06704
vn -0.33332 0.25268 0.90832
vn 0.85069 0.51758 0.09185
vn 0.89625 0.44320 0.01785
vn 0.92798 0.36946 0.04848
vn 0.99280 -0.00208 0.11980
vn -0.13453 -0.91159 0.38847
vn -0.55801 -0.82680 0.07095
vn 0.57489 -0.56053 -0.59607
vn -0.13453 -0.91159 0.38847
vn -0.55801 -0.82680 0.07095
vn 0.95726 -0.27736 0.08197
vn 0.98266 0.14899 0.11038
vn 0.97405 0.22457 0.02823
vn 0.85069 0.51758 0.09185
vn 0.78841 0.60791 0.09408
vn 0.60518 0.79056 -0.09363
vn 0.55358 0.82210 -0.13301
vn 0.48882 0.87015 -0.06240
vn 0.47021 0.88215 -0.02676
vn 0.40547 0.90440 -0.13288
vn 0.87215 -0.48413 0.07051
vn 0.39794 0.56377 -0.72374
vn 0.49502 0.63221 -0.59604
vn 0.17233 0.93551 -0.30841
vn 0.71546 -0.59423 0.36744
vn 0.72830 0.33280 0.59902
vn 0.93974 0.33161 0.08317
vn 0.64811 -0.75742 0.07920
vn 0.47138 -0.10286 0.87591
vn 0.69195 -0.41716 -0.58922
vn 0.79364 -0.59138 -0.14284
vn 0.91757 0.31293 -0.24524
vn 0.67575 0.61597 -0.40490
vn 0.50459 -0.60678 0.61417
vn 0.72058 -0.69162 0.04922
vn 0.12753 -0.94021 0.31582
vn 0.52512 -0.60136 -0.60217
vn 0.24093 -0.38997 -0.88875
vn 0.11096 -0.84924 -0.51621
vn 0.17438 -0.95930 -0.22211
vn 0.55069 0.00604 0.83469
vn 0.38680 0.65372 0.65041
vn 0.27246 0.44080 0.85525
vn 0.51881 -0.81819 -0.24779
vn 0.18262 -0.98195 -0.04919
vn 0.41314 0.81852 0.39916
vn 0.54784 0.82838 -0.11690
vn 0.68203 0.73101 0.02150
vn 0.87144 0.36994 0.32208
vn 0.69759 0.62515 0.35008
vn 0.71546 -0.59423 0.36744
vn 0.64811 -0.75742 0.07920
vn 0.47138 -0.10286 0.87591
vn 0.79364 -0.59138 -0.14284
vn 0.69195 -0.41716 -0.58922
vn 0.91875 0.16192 -0.36011
vn 0.71782 0.69608 0.01446
vn 0.47138 -0.10286 0.87591
vn 0.37669 -0.39261 -0.83902
vn 0.47873 0.56475 -0.67221
vn 0.21046 0.49363 -0.84382
vn 0.42430 0.82001 -0.38413
vn 0.15359 0.76047 -0.63094
vn 0.05284 0.96971 -0.23846
vn -0.05402 0.93424 0.35252
vn -0.01180 0.99953 -0.02835
vn -0.11517 0.98917 0.09097
vn 0.22117 -0.69076 0.68843
vn 0.09629 0.76506 0.63672
vn 0.14122 0.93922 0.31294
vn 0.04225 0.99746 0.05738
vn 0.27927 0.94983 0.14083
vn 0.00790 0.94151 0.33689
vn 0.49340 0.86749 -0.06340
vn 0.68953 0.70877 0.14900
vn 0.26249 0.96475 0.01897
vn 0.37369 0.92283 -0.09345
vn 0.15667 0.95140 -0.26512
vn 0.02021 0.81405 -0.58045
vn -0.35662 0.75297 -0.55305
vn 0.37669 -0.39261 -0.83902
vn 0.00029 0.93969 -0.34202
vn -0.45270 0.88681 -0.09291
vn -0.01951 0.88617 -0.46294
vn -0.10482 0.51443 -0.85110
vn 0.43613 0.77395 -0.45911
vn 0.03850 0.99919 0.01173
vn -0.35662 0.75297 -0.55305
vn 0.02021 0.81405 -0.58045
vn -0.53266 0.76818 -0.35521
vn -0.45270 0.88681 -0.09291
vn 0.42976 0.61515 -0.66098
vn -0.03802 0.91191 -0.40863
vn -0.03802 0.91191 -0.40863
vn 0.63157 0.74961 -0.19800
vn 0.42976 0.61515 -0.66098
vn 0.63157 0.74961 -0.19800
vn 0.55069 0.00604 0.83469
vn 0.22117 -0.69076 0.68843
vn 0.14122 0.93922 0.31294
vn 0.38680 0.65372 0.65041
vn 0.47873 0.56475 -0.67221
vn 0.21046 0.49363 -0.84382
vn 0.87144 0.36994 0.32208
vn 0.69759 0.62515 0.35008
vn 0.91875 0.16192 -0.36011
vn 0.47138 -0.10286 0.87591
vn 0.55069 0.00604 0.83469
vn 0.71782 0.69608 0.01446
vn -0.89573 -0.44458 0.00488
vn -0.82393 -0.53418 0.18918
vn -0.27046 0.77588 0.56997
vn 0.01605 0.97351 -0.22808
vn 0.47180 -0.71861 -0.51088
vn 0.85456 0.51039 -0.09612
vn 0.26419 -0.65065 -0.71194
vn 0.82148 0.52582 -0.22064
vn -0.82393 -0.53418 0.18918
vn -0.89573 -0.44458 0.00488
vn -0.29472 0.94026 0.17046
vn 0.61769 0.71711 0.32281
vn -0.13271 -0.73259 0.66760
vn 0.37587 0.28556 0.88158
vn 0.37587 0.28556 0.88158
vn -0.91225 -0.27672 0.30204
vn -0.13271 -0.73259 0.66760
vn 0.01003 -0.98889 -0.14830
vn 0.57260 0.61772 0.53903
vn 0.98778 0.15495 0.01674
vn -0.81985 -0.50171 0.27593
vn 0.78206 0.10932 0.61354
vn 0.57260 0.61772 0.53903
vn 0.78206 0.10932 0.61354
vn 0.01003 -0.98889 -0.14830
vn -0.29472 0.94026 0.17046
vn -0.89573 -0.44458 0.00488
vn 0.01605 0.97351 -0.22808
vn -0.83745 0.45547 -0.30203
vn -0.90963 -0.32660 0.25674
vn 0.82148 0.52582 -0.22064
vn 0.55879 0.82835 0.03985
vn 0.01605 0.97351 -0.22808
vn -0.83745 0.45547 -0.30203
vn 0.26419 -0.65065 -0.71194
vn -0.79746 -0.60336 -0.00428
vn 0.27805 -0.77984 -0.56084
vn -0.77835 -0.60492 0.16808
vn 0.35200 0.63089 0.69143
vn 0.26419 -0.65065 -0.71194
vn 0.91797 0.20314 -0.34068
vn 0.73728 0.67497 -0.02876
vn 0.35200 0.63089 0.69143
vn -0.06290 0.36777 0.92779
vn -0.06290 0.36777 0.92779
vn -0.38733 -0.00406 0.92193
vn 0.27805 -0.77984 -0.56084
vn 0.76031 0.52429 0.38347
vn 0.69535 0.53629 0.47842
vn -0.38733 -0.00406 0.92193
vn 0.81126 0.38246 0.44225
vn 0.07492 0.72810 0.68136
vn 0.07492 0.72810 0.68136
vn 0.21498 -0.69110 0.69005
vn 0.21498 -0.69110 0.69005
vn 0.11301 -0.90533 0.40940
vn 0.65306 -0.74056 0.15837
vn 0.20437 0.96986 -0.13272
vn 0.03476 0.99893 -0.03034
vn -0.00543 0.68520 -0.72834
vn 0.01418 0.44620 -0.89482
vn 0.10569 0.97848 -0.17723
vn 0.69666 0.57203 -0.43295
vn 0.78670 0.53307 -0.31136
vn 0.70991 0.36513 0.60225
vn 0.30940 -0.36305 -0.87890
vn -0.21905 -0.97510 0.03460
vn -0.21905 -0.97510 0.03460
vn 0.10600 -0.33092 0.93769
vn 0.62064 -0.77234 0.13529
vn -0.31501 -0.94288 -0.10836
vn 0.13043 0.20823 0.96935
vn 0.13043 0.20823 0.96935
vn -0.31501 -0.94288 -0.10836
vn -0.90711 0.09040 0.41107
vn 0.62064 -0.77234 0.13529
vn -0.36282 0.86292 0.35174
vn 0.94743 0.25414 0.19441
vn -0.18245 -0.24646 0.95182
vn -0.94710 -0.31899 0.03536
vn -0.36282 0.86292 0.35174
vn -0.18245 -0.24646 0.95182
vn 0.32008 -0.94556 0.05885
vn 0.32008 -0.94556 0.05885
vn -0.35270 0.86697 0.35209
vn 0.94767 0.12693 0.29293
vn -0.06420 -0.54134 0.83835
vn -0.93431 -0.35263 -0.05217
vn -0.35270 0.86697 0.35209
vn -0.06420 -0.54134 0.83835
vn 0.27482 -0.95797 0.08227
vn 0.27482 -0.95797 0.08227
vn 0.85733 0.47325 -0.20256
vn 0.84035 0.28791 -0.45926
vn 0.90875 -0.06161 -0.41278
vn 0.50323 -0.64189 -0.57857
vn 0.09692 -0.72400 -0.68296
vn 0.84035 0.28791 -0.45926
vn 0.84988 0.46010 -0.25693
vn 0.14057 0.98057 -0.13681
vn 0.08286 0.91052 0.40508
vn -0.96367 0.20384 0.17262
vn -0.85914 -0.23322 0.45551
vn -0.85914 -0.23322 0.45551
vn -0.96367 0.20384 0.17262
vn 0.94841 0.28025 -0.14824
vn 0.31646 -0.52936 -0.78717
vn 0.25025 0.46707 0.84807
vn -0.66375 -0.66084 0.35033
vn -0.66375 -0.66084 0.35033
vn 0.70991 0.36513 0.60225
vn 0.78670 0.53307 -0.31136
vn 0.30940 -0.36305 -0.87890
vn -0.21905 -0.97510 0.03460
vn 0.10600 -0.33092 0.93769
vn -0.21905 -0.97510 0.03460
vn 0.09692 -0.72400 -0.68296
vn 0.14057 0.98057 -0.13681
vn -0.25974 -0.30782 0.91530
vn 0.91662 0.27681 0.28842
vn -0.71145 0.70149 0.04194
vn 0.48096 0.85807 0.17997
vn 0.41185 0.86475 0.28738
vn -0.94784 0.30254 0.10034
vn -0.79129 0.19396 0.57986
vn -0.72557 -0.68812 -0.00630
vn -0.94784 0.30254 0.10034
vn -0.79129 0.19396 0.57986
vn 0.36360 -0.86671 0.34147
vn 0.32026 0.58434 0.74564
vn -0.89110 -0.36239 0.27316
vn 0.32026 0.58434 0.74564
vn -0.25974 -0.30782 0.91530
vn 0.98795 -0.08760 0.12759
vn 0.36360 -0.86671 0.34147
vn 0.69110 -0.63440 -0.34630
vn -0.86041 -0.47639 -0.18097
vn -0.30144 0.94500 -0.12692
vn -0.98141 -0.03498 0.18871
vn -0.96367 0.20384 0.17262
vn 0.14057 0.98057 -0.13681
vn -0.30144 0.94500 -0.12692
vn -0.86041 -0.47639 -0.18097
vn -0.71678 -0.68156 0.14731
vn -0.71145 0.70149 0.04194
vn 0.09692 -0.72400 -0.68296
vn -0.71678 -0.68156 0.14731
f 618/618/618 669/669/669 670/670/670
f 670/670/670 619/619/619 618/618/618
f 621/621/621 618/618/618 620/620/620
f 618/618/618 619/619/619 620/620/620
f 685/685/685 670/670/670 682/682/682
f 685/685/685 673/673/673 670/670/670
f 664/664/664 685/685/685 682/682/682
f 665/665/665 664/664/664 682/682/682
f 682/682/682 683/683/683 665/665/665
f 677/677/677 683/683/683 682/682/682
f 673/673/673 685/685/685 664/664/664
f 663/663/663 673/673/673 664/664/664
f 663/663/663 664/664/664 665/665/665
f 676/676/676 683/683/683 677/677/677
f 678/678/678 677/677/677 675/675/675
f 676/676/676 677/677/677 678/678/678
f 678/678/678 679/679/679 676/676/676
f 358/358/358 359/359/359 287/287/287
f 287/287/287 289/289/289 358/358/358
f 290/290/290 288/288/288 287/287/287
f 287/287/287 288/288/288 289/289/289
f 371/371/371 358/358/358 374/374/374
f 374/374/374 358/358/358 362/362/362
f 354/354/354 371/371/371 374/374/374
f 353/353/353 372/372/372 371/371/371
f 371/371/371 354/354/354 353/353/353
f 368/368/368 371/371/371 372/372/372
f 362/362/362 354/354/354 374/374/374
f 352/352/352 354/354/354 362/362/362
f 352/352/352 353/353/353 354/354/354
f 365/365/365 368/368/368 372/372/372
f 367/367/367 368/368/368 365/365/365
f 365/365/365 366/366/366 367/367/367
f 367/367/367 364/364/364 368/368/368
f 675/675/675 684/684/684 678/678/678
f 364/364/364 367/367/367 373/373/373
f 614/614/614 611/611/611 613/613/613
f 611/611/611 612/612/612 613/613/613
f 626/626/626 629/629/629 614/614/614
f 614/614/614 613/613/613 626/626/626
f 677/677/677 669/669/669 613/613/613
f 675/675/675 677/677/677 613/613/613
f 612/612/612 675/675/675 613/613/613
f 613/613/613 669/669/669 671/671/671
f 626/626/626 613/613/613 671/671/671
f 671/671/671 627/627/627 626/626/626
f 629/629/629 626/626/626 628/628/628
f 626/626/626 627/627/627 628/628/628
f 671/671/671 669/669/669 618/618/618
f 618/618/618 621/621/621 671/671/671
f 670/670/670 669/669/669 682/682/682
f 677/677/677 682/682/682 669/669/669
f 283/283/283 281/281/281 280/280/280
f 280/280/280 281/281/281 282/282/282
f 295/295/295 281/281/281 283/283/283
f 283/283/283 298/298/298 295/295/295
f 360/360/360 281/281/281 295/295/295
f 295/295/295 297/297/297 360/360/360
f 298/298/298 296/296/296 295/295/295
f 295/295/295 296/296/296 297/297/297
f 281/281/281 360/360/360 359/359/359
f 360/360/360 290/290/290 287/287/287
f 287/287/287 359/359/359 360/360/360
f 368/368/368 281/281/281 359/359/359
f 364/364/364 281/281/281 368/368/368
f 282/282/282 281/281/281 364/364/364
f 371/371/371 359/359/359 358/358/358
f 368/368/368 359/359/359 371/371/371
f 472/472/472 458/458/458 470/470/470
f 472/472/472 471/471/471 498/498/498
f 470/470/470 471/471/471 472/472/472
f 499/499/499 498/498/498 471/471/471
f 502/502/502 498/498/498 494/494/494
f 494/494/494 498/498/498 499/499/499
f 494/494/494 499/499/499 337/337/337
f 337/337/337 163/163/163 153/153/153
f 163/163/163 127/127/127 164/164/164
f 153/153/153 163/163/163 164/164/164
f 164/164/164 127/127/127 126/126/126
f 126/126/126 127/127/127 125/125/125
f 125/125/125 113/113/113 126/126/126
f 568/568/568 582/582/582 577/577/577
f 567/567/567 582/582/582 568/568/568
f 567/567/567 568/568/568 565/565/565
f 565/565/565 566/566/566 567/567/567
f 560/560/560 559/559/559 593/593/593
f 559/559/559 584/584/584 593/593/593
f 559/559/559 561/561/561 563/563/563
f 559/559/559 560/560/560 561/561/561
f 227/227/227 261/261/261 252/252/252
f 229/229/229 261/261/261 227/227/227
f 227/227/227 231/231/231 228/228/228
f 227/227/227 228/228/228 229/229/229
f 235/235/235 236/236/236 233/233/233
f 233/233/233 234/234/234 235/235/235
f 235/235/235 234/234/234 250/250/250
f 234/234/234 245/245/245 250/250/250
f 636/636/636 638/638/638 639/639/639
f 646/646/646 639/639/639 641/641/641
f 640/640/640 641/641/641 639/639/639
f 639/639/639 638/638/638 640/640/640
f 653/653/653 649/649/649 646/646/646
f 647/647/647 653/653/653 646/646/646
f 641/641/641 647/647/647 646/646/646
f 653/653/653 647/647/647 654/654/654
f 642/642/642 643/643/643 635/635/635
f 463/463/463 534/534/534 533/533/533
f 463/463/463 536/536/536 534/534/534
f 536/536/536 463/463/463 497/497/497
f 463/463/463 465/465/465 497/497/497
f 497/497/497 537/537/537 536/536/536
f 121/121/121 199/199/199 202/202/202
f 121/121/121 128/128/128 124/124/124
f 202/202/202 128/128/128 121/121/121
f 120/120/120 128/128/128 202/202/202
f 202/202/202 205/205/205 120/120/120
f 120/120/120 205/205/205 200/200/200
f 118/118/118 201/201/201 203/203/203
f 158/158/158 118/118/118 203/203/203
f 118/118/118 120/120/120 200/200/200
f 200/200/200 201/201/201 118/118/118
f 118/118/118 158/158/158 119/119/119
f 118/118/118 119/119/119 120/120/120
f 129/129/129 119/119/119 157/157/157
f 120/120/120 119/119/119 129/129/129
f 119/119/119 158/158/158 156/156/156
f 156/156/156 157/157/157 119/119/119
f 203/203/203 204/204/204 158/158/158
f 465/465/465 157/157/157 156/156/156
f 156/156/156 497/497/497 465/465/465
f 474/474/474 157/157/157 465/465/465
f 474/474/474 162/162/162 157/157/157
f 129/129/129 157/157/157 162/162/162
f 554/554/554 553/553/553 591/591/591
f 553/553/553 554/554/554 555/555/555
f 554/554/554 576/576/576 574/574/574
f 584/584/584 554/554/554 591/591/591
f 576/576/576 554/554/554 584/584/584
f 554/554/554 574/574/574 568/568/568
f 554/554/554 568/568/568 577/577/577
f 577/577/577 564/564/564 554/554/554
f 564/564/564 555/555/555 554/554/554
f 576/576/576 575/575/575 574/574/574
f 575/575/575 576/576/576 563/563/563
f 576/576/576 584/584/584 559/559/559
f 576/576/576 559/559/559 563/563/563
f 574/574/574 565/565/565 568/568/568
f 574/574/574 575/575/575 573/573/573
f 573/573/573 565/565/565 574/574/574
f 223/223/223 259/259/259 221/221/221
f 221/221/221 222/222/222 223/223/223
f 223/223/223 243/243/243 244/244/244
f 252/252/252 259/259/259 223/223/223
f 244/244/244 252/252/252 223/223/223
f 223/223/223 234/234/234 243/243/243
f 223/223/223 232/232/232 245/245/245
f 245/245/245 234/234/234 223/223/223
f 232/232/232 223/223/223 222/222/222
f 244/244/244 243/243/243 242/242/242
f 243/243/243 234/234/234 233/233/233
f 243/243/243 233/233/233 241/241/241
f 241/241/241 242/242/242 243/243/243
f 242/242/242 231/231/231 244/244/244
f 244/244/244 227/227/227 252/252/252
f 244/244/244 231/231/231 227/227/227
f 5/5/5 147/147/147 6/6/6
f 5/5/5 6/6/6 7/7/7
f 147/147/147 142/142/142 6/6/6
f 6/6/6 137/137/137 484/484/484
f 488/488/488 6/6/6 484/484/484
f 377/377/377 6/6/6 488/488/488
f 377/377/377 7/7/7 6/6/6
f 6/6/6 142/142/142 137/137/137
f 141/141/141 137/137/137 142/142/142
f 138/138/138 137/137/137 141/141/141
f 136/136/136 137/137/137 138/138/138
f 137/137/137 136/136/136 139/139/139
f 481/481/481 483/483/483 137/137/137
f 483/483/483 484/484/484 137/137/137
f 137/137/137 140/140/140 482/482/482
f 482/482/482 480/480/480 137/137/137
f 133/133/133 144/144/144 134/134/134
f 133/133/133 134/134/134 135/135/135
f 478/478/478 134/134/134 486/486/486
f 490/490/490 134/134/134 165/165/165
f 134/134/134 490/490/490 489/489/489
f 485/485/485 134/134/134 489/489/489
f 487/487/487 145/145/145 134/134/134
f 134/134/134 479/479/479 487/487/487
f 485/485/485 486/486/486 134/134/134
f 478/478/478 479/479/479 134/134/134
f 149/149/149 165/165/165 134/134/134
f 134/134/134 148/148/148 149/149/149
f 143/143/143 148/148/148 134/134/134
f 146/146/146 135/135/135 134/134/134
f 134/134/134 145/145/145 146/146/146
f 143/143/143 134/134/134 144/144/144
f 169/169/169 130/130/130 170/170/170
f 112/112/112 170/170/170 130/130/130
f 112/112/112 126/126/126 113/113/113
f 126/126/126 112/112/112 130/130/130
f 109/109/109 112/112/112 113/113/113
f 164/164/164 130/130/130 168/168/168
f 126/126/126 130/130/130 164/164/164
f 265/265/265 168/168/168 264/264/264
f 166/166/166 168/168/168 265/265/265
f 168/168/168 167/167/167 164/164/164
f 166/166/166 167/167/167 168/168/168
f 264/264/264 172/172/172 269/269/269
f 264/264/264 269/269/269 155/155/155
f 265/265/265 264/264/264 155/155/155
f 265/265/265 155/155/155 154/154/154
f 154/154/154 166/166/166 265/265/265
f 154/154/154 167/167/167 166/166/166
f 167/167/167 154/154/154 153/153/153
f 480/480/480 481/481/481 137/137/137
f 139/139/139 140/140/140 137/137/137
f 496/496/496 597/597/597 500/500/500
f 496/496/496 500/500/500 502/502/502
f 494/494/494 496/496/496 502/502/502
f 500/500/500 501/501/501 502/502/502
f 498/498/498 502/502/502 501/501/501
f 501/501/501 475/475/475 498/498/498
f 501/501/501 503/503/503 475/475/475
f 476/476/476 456/456/456 503/503/503
f 456/456/456 504/504/504 503/503/503
f 503/503/503 505/505/505 476/476/476
f 503/503/503 504/504/504 475/475/475
f 455/455/455 475/475/475 504/504/504
f 498/498/498 475/475/475 472/472/472
f 472/472/472 475/475/475 455/455/455
f 456/456/456 455/455/455 504/504/504
f 455/455/455 458/458/458 472/472/472
f 454/454/454 458/458/458 455/455/455
f 440/440/440 450/450/450 336/336/336
f 336/336/336 335/335/335 440/440/440
f 103/103/103 450/450/450 417/417/417
f 417/417/417 60/60/60 103/103/103
f 61/61/61 60/60/60 417/417/417
f 417/417/417 418/418/418 61/61/61
f 418/418/418 417/417/417 420/420/420
f 431/431/431 432/432/432 101/101/101
f 102/102/102 101/101/101 432/432/432
f 101/101/101 326/326/326 431/431/431
f 78/78/78 326/326/326 101/101/101
f 101/101/101 79/79/79 78/78/78
f 79/79/79 101/101/101 102/102/102
f 66/66/66 65/65/65 78/78/78
f 78/78/78 79/79/79 66/66/66
f 102/102/102 80/80/80 79/79/79
f 66/66/66 79/79/79 80/80/80
f 59/59/59 66/66/66 81/81/81
f 80/80/80 81/81/81 66/66/66
f 66/66/66 59/59/59 62/62/62
f 62/62/62 65/65/65 66/66/66
f 88/88/88 81/81/81 80/80/80
f 87/87/87 100/100/100 81/81/81
f 81/81/81 88/88/88 87/87/87
f 81/81/81 100/100/100 59/59/59
f 103/103/103 60/60/60 59/59/59
f 59/59/59 100/100/100 103/103/103
f 61/61/61 62/62/62 59/59/59
f 59/59/59 60/60/60 61/61/61
f 103/103/103 100/100/100 336/336/336
f 336/336/336 100/100/100 87/87/87
f 87/87/87 335/335/335 336/336/336
f 103/103/103 336/336/336 450/450/450
f 14/14/14 13/13/13 12/12/12
f 193/193/193 196/196/196 15/15/15
f 14/14/14 15/15/15 196/196/196
f 324/324/324 14/14/14 197/197/197
f 13/13/13 14/14/14 324/324/324
f 196/196/196 197/197/197 14/14/14
f 324/324/324 99/99/99 13/13/13
f 13/13/13 99/99/99 98/98/98
f 529/529/529 383/383/383 324/324/324
f 324/324/324 342/342/342 529/529/529
f 324/324/324 383/383/383 380/380/380
f 380/380/380 99/99/99 324/324/324
f 197/197/197 342/342/342 324/324/324
f 323/323/323 99/99/99 449/449/449
f 449/449/449 99/99/99 380/380/380
f 23/23/23 26/26/26 390/390/390
f 390/390/390 389/389/389 23/23/23
f 410/410/410 390/390/390 391/391/391
f 390/390/390 410/410/410 409/409/409
f 409/409/409 389/389/389 390/390/390
f 35/35/35 397/397/397 391/391/391
f 391/391/391 397/397/397 393/393/393
f 393/393/393 392/392/392 391/391/391
f 391/391/391 392/392/392 410/410/410
f 401/401/401 410/410/410 392/392/392
f 410/410/410 401/401/401 411/411/411
f 411/411/411 409/409/409 410/410/410
f 607/607/607 409/409/409 411/411/411
f 409/409/409 607/607/607 606/606/606
f 606/606/606 389/389/389 409/409/409
f 388/388/388 389/389/389 606/606/606
f 23/23/23 389/389/389 388/388/388
f 388/388/388 24/24/24 23/23/23
f 23/23/23 24/24/24 21/21/21
f 21/21/21 22/22/22 23/23/23
f 21/21/21 275/275/275 22/22/22
f 50/50/50 22/22/22 275/275/275
f 275/275/275 276/276/276 50/50/50
f 52/52/52 50/50/50 276/276/276
f 276/276/276 270/270/270 52/52/52
f 271/271/271 272/272/272 52/52/52
f 52/52/52 270/270/270 271/271/271
f 37/37/37 31/31/31 67/67/67
f 32/32/32 31/31/31 37/37/37
f 36/36/36 32/32/32 38/38/38
f 32/32/32 36/36/36 27/27/27
f 37/37/37 38/38/38 32/32/32
f 27/27/27 36/36/36 35/35/35
f 35/35/35 28/28/28 27/27/27
f 27/27/27 25/25/25 51/51/51
f 25/25/25 27/27/27 28/28/28
f 51/51/51 50/50/50 52/52/52
f 50/50/50 51/51/51 25/25/25
f 25/25/25 23/23/23 22/22/22
f 25/25/25 22/22/22 50/50/50
f 28/28/28 26/26/26 25/25/25
f 23/23/23 25/25/25 26/26/26
f 391/391/391 28/28/28 35/35/35
f 28/28/28 391/391/391 390/390/390
f 390/390/390 26/26/26 28/28/28
f 323/323/323 98/98/98 99/99/99
f 97/97/97 98/98/98 323/323/323
f 323/323/323 449/449/449 448/448/448
f 448/448/448 328/328/328 323/323/323
f 323/323/323 328/328/328 97/97/97
f 448/448/448 449/449/449 379/379/379
f 380/380/380 379/379/379 449/449/449
f 381/381/381 380/380/380 383/383/383
f 379/379/379 380/380/380 381/381/381
f 382/382/382 403/403/403 379/379/379
f 379/379/379 403/403/403 448/448/448
f 381/381/381 382/382/382 379/379/379
f 328/328/328 448/448/448 447/447/447
f 447/447/447 448/448/448 403/403/403
f 447/447/447 329/329/329 328/328/328
f 329/329/329 447/447/447 446/446/446
f 447/447/447 402/402/402 404/404/404
f 404/404/404 446/446/446 447/447/447
f 403/403/403 402/402/402 447/447/447
f 403/403/403 382/382/382 400/400/400
f 402/402/402 403/403/403 400/400/400
f 395/395/395 404/404/404 402/402/402
f 402/402/402 401/401/401 395/395/395
f 400/400/400 401/401/401 402/402/402
f 446/446/446 404/404/404 422/422/422
f 422/422/422 404/404/404 395/395/395
f 272/272/272 271/271/271 273/273/273
f 273/273/273 17/17/17 272/272/272
f 20/20/20 17/17/17 273/273/273
f 273/273/273 274/274/274 20/20/20
f 17/17/17 20/20/20 18/18/18
f 16/16/16 17/17/17 18/18/18
f 12/12/12 17/17/17 16/16/16
f 386/386/386 18/18/18 387/387/387
f 18/18/18 386/386/386 385/385/385
f 385/385/385 19/19/19 18/18/18
f 18/18/18 19/19/19 16/16/16
f 15/15/15 16/16/16 193/193/193
f 195/195/195 194/194/194 16/16/16
f 16/16/16 19/19/19 195/195/195
f 193/193/193 16/16/16 194/194/194
f 16/16/16 15/15/15 12/12/12
f 12/12/12 15/15/15 14/14/14
f 43/43/43 41/41/41 96/96/96
f 30/30/30 42/42/42 41/41/41
f 41/41/41 43/43/43 30/30/30
f 94/94/94 96/96/96 329/329/329
f 96/96/96 94/94/94 43/43/43
f 328/328/328 329/329/329 96/96/96
f 96/96/96 97/97/97 328/328/328
f 67/67/67 43/43/43 94/94/94
f 30/30/30 43/43/43 67/67/67
f 67/67/67 31/31/31 30/30/30
f 42/42/42 30/30/30 29/29/29
f 29/29/29 30/30/30 31/31/31
f 29/29/29 51/51/51 42/42/42
f 52/52/52 42/42/42 51/51/51
f 27/27/27 29/29/29 32/32/32
f 51/51/51 29/29/29 27/27/27
f 31/31/31 32/32/32 29/29/29
f 11/11/11 10/10/10 40/40/40
f 97/97/97 40/40/40 10/10/10
f 10/10/10 98/98/98 97/97/97
f 98/98/98 10/10/10 13/13/13
f 12/12/12 13/13/13 10/10/10
f 10/10/10 11/11/11 12/12/12
f 11/11/11 17/17/17 12/12/12
f 11/11/11 272/272/272 17/17/17
f 11/11/11 52/52/52 272/272/272
f 39/39/39 52/52/52 11/11/11
f 40/40/40 39/39/39 11/11/11
f 40/40/40 97/97/97 96/96/96
f 96/96/96 41/41/41 40/40/40
f 39/39/39 40/40/40 41/41/41
f 52/52/52 39/39/39 42/42/42
f 41/41/41 42/42/42 39/39/39
f 616/616/616 658/658/658 657/657/657
f 657/657/657 622/622/622 616/616/616
f 658/658/658 660/660/660 631/631/631
f 660/660/660 658/658/658 668/668/668
f 668/668/668 658/658/658 616/616/616
f 616/616/616 615/615/615 668/668/668
f 616/616/616 622/622/622 617/617/617
f 615/615/615 616/616/616 617/617/617
f 661/661/661 668/668/668 667/667/667
f 668/668/668 661/661/661 660/660/660
f 659/659/659 680/680/680 660/660/660
f 631/631/631 660/660/660 680/680/680
f 659/659/659 660/660/660 661/661/661
f 662/662/662 661/661/661 666/666/666
f 666/666/666 661/661/661 667/667/667
f 661/661/661 662/662/662 659/659/659
f 631/631/631 680/680/680 656/656/656
f 587/587/587 588/588/588 590/590/590
f 552/552/552 587/587/587 590/590/590
f 588/588/588 589/589/589 592/592/592
f 589/589/589 562/562/562 592/592/592
f 562/562/562 589/589/589 558/558/558
f 562/562/562 558/558/558 557/557/557
f 585/585/585 556/556/556 558/558/558
f 558/558/558 579/579/579 585/585/585
f 556/556/556 557/557/557 558/558/558
f 579/579/579 578/578/578 585/585/585
f 578/578/578 579/579/579 569/569/569
f 569/569/569 570/570/570 571/571/571
f 570/570/570 583/583/583 572/572/572
f 571/571/571 570/570/570 572/572/572
f 442/442/442 90/90/90 104/104/104
f 91/91/91 90/90/90 442/442/442
f 89/89/89 90/90/90 91/91/91
f 89/89/89 104/104/104 90/90/90
f 105/105/105 104/104/104 89/89/89
f 80/80/80 89/89/89 88/88/88
f 89/89/89 80/80/80 105/105/105
f 433/433/433 105/105/105 102/102/102
f 80/80/80 102/102/102 105/105/105
f 432/432/432 433/433/433 102/102/102
f 420/420/420 434/434/434 433/433/433
f 433/433/433 432/432/432 420/420/420
f 434/434/434 450/450/450 440/440/440
f 434/434/434 420/420/420 417/417/417
f 417/417/417 450/450/450 434/434/434
f 420/420/420 432/432/432 431/431/431
f 431/431/431 421/421/421 420/420/420
f 420/420/420 421/421/421 418/418/418
f 300/300/300 369/369/369 351/351/351
f 347/347/347 300/300/300 351/351/351
f 300/300/300 302/302/302 345/345/345
f 351/351/351 357/357/357 347/347/347
f 286/286/286 347/347/347 357/357/357
f 346/346/346 347/347/347 286/286/286
f 346/346/346 292/292/292 294/294/294
f 286/286/286 291/291/291 346/346/346
f 357/357/357 284/284/284 286/286/286
f 286/286/286 285/285/285 291/291/291
f 284/284/284 285/285/285 286/286/286
f 350/350/350 356/356/356 357/357/357
f 357/357/357 351/351/351 350/350/350
f 348/348/348 351/351/351 369/369/369
f 350/350/350 351/351/351 348/348/348
f 349/349/349 355/355/355 350/350/350
f 355/355/355 356/356/356 350/350/350
f 153/153/153 164/164/164 167/167/167
f 153/153/153 154/154/154 155/155/155
f 155/155/155 341/341/341 338/338/338
f 338/338/338 153/153/153 155/155/155
f 341/341/341 155/155/155 269/269/269
f 177/177/177 340/340/340 269/269/269
f 269/269/269 172/172/172 177/177/177
f 269/269/269 339/339/339 341/341/341
f 339/339/339 269/269/269 340/340/340
f 338/338/338 341/341/341 495/495/495
f 600/600/600 495/495/495 341/341/341
f 341/341/341 339/339/339 600/600/600
f 495/495/495 494/494/494 338/338/338
f 337/337/337 338/338/338 494/494/494
f 153/153/153 338/338/338 337/337/337
f 596/596/596 495/495/495 600/600/600
f 597/597/597 495/495/495 596/596/596
f 597/597/597 496/496/496 495/495/495
f 494/494/494 495/495/495 496/496/496
f 596/596/596 600/600/600 505/505/505
f 511/511/511 600/600/600 340/340/340
f 600/600/600 511/511/511 505/505/505
f 339/339/339 340/340/340 600/600/600
f 596/596/596 503/503/503 501/501/501
f 597/597/597 596/596/596 501/501/501
f 503/503/503 596/596/596 505/505/505
f 500/500/500 597/597/597 501/501/501
f 399/399/399 435/435/435 436/436/436
f 429/429/429 426/426/426 437/437/437
f 547/547/547 543/543/543 437/437/437
f 437/437/437 436/436/436 547/547/547
f 544/544/544 429/429/429 437/437/437
f 437/437/437 543/543/543 544/544/544
f 541/541/541 430/430/430 429/429/429
f 429/429/429 544/544/544 541/541/541
f 542/542/542 541/541/541 544/544/544
f 544/544/544 546/546/546 542/542/542
f 546/546/546 544/544/544 543/543/543
f 543/543/543 547/547/547 548/548/548
f 548/548/548 545/545/545 543/543/543
f 543/543/543 545/545/545 546/546/546
f 541/541/541 542/542/542 539/539/539
f 430/430/430 541/541/541 540/540/540
f 539/539/539 540/540/540 541/541/541
f 540/540/540 439/439/439 430/430/430
f 430/430/430 439/439/439 438/438/438
f 392/392/392 393/393/393 394/394/394
f 392/392/392 395/395/395 401/401/401
f 394/394/394 395/395/395 392/392/392
f 395/395/395 394/394/394 422/422/422
f 411/411/411 401/401/401 400/400/400
f 382/382/382 601/601/601 411/411/411
f 400/400/400 382/382/382 411/411/411
f 411/411/411 603/603/603 607/607/607
f 602/602/602 603/603/603 411/411/411
f 411/411/411 601/601/601 602/602/602
f 382/382/382 381/381/381 386/386/386
f 382/382/382 386/386/386 601/601/601
f 604/604/604 602/602/602 601/601/601
f 601/601/601 386/386/386 604/604/604
f 604/604/604 386/386/386 387/387/387
f 385/385/385 386/386/386 381/381/381
f 381/381/381 384/384/384 385/385/385
f 383/383/383 384/384/384 381/381/381
f 527/527/527 385/385/385 384/384/384
f 195/195/195 19/19/19 385/385/385
f 385/385/385 528/528/528 195/195/195
f 527/527/527 528/528/528 385/385/385
f 384/384/384 530/530/530 527/527/527
f 530/530/530 384/384/384 383/383/383
f 383/383/383 529/529/529 530/530/530
f 387/387/387 605/605/605 604/604/604
f 631/631/631 656/656/656 632/632/632
f 631/631/631 632/632/632 633/633/633
f 655/655/655 633/633/633 632/632/632
f 348/348/348 349/349/349 350/350/350
f 294/294/294 293/293/293 299/299/299
f 292/292/292 293/293/293 294/294/294
f 217/217/217 219/219/219 249/249/249
f 249/249/249 248/248/248 217/217/217
f 217/217/217 218/218/218 219/219/219
f 254/254/254 219/219/219 255/255/255
f 219/219/219 220/220/220 255/255/255
f 219/219/219 254/254/254 249/249/249
f 219/219/219 218/218/218 220/220/220
f 254/254/254 225/225/225 249/249/249
f 247/247/247 237/237/237 249/249/249
f 225/225/225 247/247/247 249/249/249
f 248/248/248 249/249/249 237/237/237
f 248/248/248 239/239/239 251/251/251
f 237/237/237 239/239/239 248/248/248
f 246/246/246 237/237/237 247/247/247
f 237/237/237 238/238/238 239/239/239
f 247/247/247 253/253/253 246/246/246
f 303/303/303 311/311/311 317/317/317
f 317/317/317 313/313/313 303/303/303
f 314/314/314 304/304/304 303/303/303
f 303/303/303 313/313/313 314/314/314
f 311/311/311 303/303/303 306/306/306
f 305/305/305 306/306/306 303/303/303
f 303/303/303 304/304/304 305/305/305
f 306/306/306 312/312/312 311/311/311
f 307/307/307 308/308/308 305/305/305
f 305/305/305 304/304/304 307/307/307
f 315/315/315 307/307/307 304/304/304
f 304/304/304 314/314/314 315/315/315
f 309/309/309 307/307/307 315/315/315
f 310/310/310 308/308/308 307/307/307
f 307/307/307 309/309/309 310/310/310
f 322/322/322 315/315/315 318/318/318
f 316/316/316 315/315/315 322/322/322
f 318/318/318 315/315/315 314/314/314
f 315/315/315 316/316/316 309/309/309
f 322/322/322 343/343/343 316/316/316
f 319/319/319 314/314/314 313/313/313
f 314/314/314 319/319/319 318/318/318
f 313/313/313 320/320/320 319/319/319
f 321/321/321 320/320/320 313/313/313
f 313/313/313 317/317/317 321/321/321
f 85/85/85 86/86/86 77/77/77
f 35/35/35 36/36/36 33/33/33
f 35/35/35 34/34/34 396/396/396
f 396/396/396 397/397/397 35/35/35
f 33/33/33 34/34/34 35/35/35
f 34/34/34 33/33/33 262/262/262
f 84/84/84 262/262/262 33/33/33
f 594/594/594 396/396/396 34/34/34
f 34/34/34 332/332/332 594/594/594
f 262/262/262 332/332/332 34/34/34
f 435/435/435 399/399/399 396/396/396
f 396/396/396 594/594/594 435/435/435
f 397/397/397 396/396/396 399/399/399
f 399/399/399 393/393/393 397/397/397
f 437/437/437 426/426/426 399/399/399
f 436/436/436 437/437/437 399/399/399
f 446/446/446 330/330/330 329/329/329
f 330/330/330 446/446/446 445/445/445
f 422/422/422 445/445/445 446/446/446
f 329/329/329 330/330/330 94/94/94
f 445/445/445 331/331/331 330/330/330
f 330/330/330 331/331/331 95/95/95
f 95/95/95 94/94/94 330/330/330
f 331/331/331 445/445/445 405/405/405
f 405/405/405 445/445/445 422/422/422
f 405/405/405 47/47/47 331/331/331
f 331/331/331 47/47/47 46/46/46
f 46/46/46 95/95/95 331/331/331
f 67/67/67 95/95/95 46/46/46
f 94/94/94 95/95/95 67/67/67
f 46/46/46 49/49/49 67/67/67
f 49/49/49 46/46/46 45/45/45
f 46/46/46 47/47/47 44/44/44
f 44/44/44 45/45/45 46/46/46
f 44/44/44 47/47/47 405/405/405
f 325/325/325 44/44/44 406/406/406
f 405/405/405 406/406/406 44/44/44
f 45/45/45 44/44/44 325/325/325
f 422/422/422 408/408/408 405/405/405
f 406/406/406 405/405/405 408/408/408
f 408/408/408 407/407/407 406/406/406
f 406/406/406 444/444/444 325/325/325
f 406/406/406 407/407/407 414/414/414
f 414/414/414 444/444/444 406/406/406
f 333/333/333 325/325/325 444/444/444
f 93/93/93 325/325/325 333/333/333
f 325/325/325 93/93/93 45/45/45
f 414/414/414 443/443/443 444/444/444
f 444/444/444 443/443/443 333/333/333
f 443/443/443 414/414/414 416/416/416
f 415/415/415 414/414/414 407/407/407
f 414/414/414 415/415/415 416/416/416
f 407/407/407 423/423/423 415/415/415
f 398/398/398 423/423/423 407/407/407
f 407/407/407 408/408/408 398/398/398
f 398/398/398 408/408/408 422/422/422
f 426/426/426 398/398/398 399/399/399
f 422/422/422 394/394/394 398/398/398
f 398/398/398 426/426/426 424/424/424
f 424/424/424 423/423/423 398/398/398
f 393/393/393 399/399/399 398/398/398
f 398/398/398 394/394/394 393/393/393
f 415/415/415 423/423/423 424/424/424
f 430/430/430 424/424/424 429/429/429
f 425/425/425 424/424/424 430/430/430
f 424/424/424 426/426/426 429/429/429
f 424/424/424 425/425/425 415/415/415
f 416/416/416 415/415/415 425/425/425
f 416/416/416 425/425/425 427/427/427
f 425/425/425 438/438/438 428/428/428
f 428/428/428 427/427/427 425/425/425
f 438/438/438 425/425/425 430/430/430
f 427/427/427 595/595/595 416/416/416
f 595/595/595 427/427/427 74/74/74
f 427/427/427 428/428/428 74/74/74
f 74/74/74 266/266/266 595/595/595
f 263/263/263 266/266/266 74/74/74
f 74/74/74 73/73/73 263/263/263
f 73/73/73 74/74/74 75/75/75
f 57/57/57 263/263/263 73/73/73
f 73/73/73 70/70/70 57/57/57
f 70/70/70 73/73/73 75/75/75
f 75/75/75 85/85/85 70/70/70
f 57/57/57 70/70/70 58/58/58
f 77/77/77 70/70/70 85/85/85
f 70/70/70 77/77/77 71/71/71
f 58/58/58 70/70/70 71/71/71
f 92/92/92 57/57/57 56/56/56
f 56/56/56 57/57/57 58/58/58
f 71/71/71 69/69/69 58/58/58
f 58/58/58 48/48/48 56/56/56
f 48/48/48 58/58/58 69/69/69
f 77/77/77 76/76/76 71/71/71
f 71/71/71 76/76/76 72/72/72
f 37/37/37 69/69/69 71/71/71
f 71/71/71 72/72/72 37/37/37
f 37/37/37 48/48/48 69/69/69
f 45/45/45 48/48/48 49/49/49
f 56/56/56 48/48/48 45/45/45
f 48/48/48 37/37/37 49/49/49
f 56/56/56 93/93/93 92/92/92
f 45/45/45 93/93/93 56/56/56
f 333/333/333 92/92/92 93/93/93
f 67/67/67 49/49/49 37/37/37
f 72/72/72 38/38/38 37/37/37
f 76/76/76 82/82/82 72/72/72
f 82/82/82 38/38/38 72/72/72
f 33/33/33 38/38/38 84/84/84
f 38/38/38 33/33/33 36/36/36
f 83/83/83 84/84/84 38/38/38
f 38/38/38 82/82/82 83/83/83
f 215/215/215 83/83/83 82/82/82
f 82/82/82 212/212/212 215/215/215
f 211/211/211 212/212/212 82/82/82
f 82/82/82 76/76/76 211/211/211
f 216/216/216 215/215/215 212/212/212
f 212/212/212 214/214/214 216/216/216
f 213/213/213 214/214/214 212/212/212
f 212/212/212 211/211/211 213/213/213
f 208/208/208 213/213/213 211/211/211
f 211/211/211 209/209/209 208/208/208
f 209/209/209 211/211/211 76/76/76
f 76/76/76 77/77/77 209/209/209
f 210/210/210 209/209/209 77/77/77
f 209/209/209 210/210/210 207/207/207
f 207/207/207 208/208/208 209/209/209
f 77/77/77 86/86/86 210/210/210
f 634/634/634 645/645/645 648/648/648
f 648/648/648 642/642/642 634/634/634
f 644/644/644 645/645/645 634/634/634
f 634/634/634 637/637/637 644/644/644
f 635/635/635 634/634/634 642/642/642
f 636/636/636 637/637/637 634/634/634
f 634/634/634 635/635/635 636/636/636
f 652/652/652 648/648/648 645/645/645
f 645/645/645 651/651/651 652/652/652
f 645/645/645 644/644/644 650/650/650
f 650/650/650 651/651/651 645/645/645
f 644/644/644 646/646/646 649/649/649
f 649/649/649 650/650/650 644/644/644
f 646/646/646 644/644/644 637/637/637
f 637/637/637 639/639/639 646/646/646
f 639/639/639 637/637/637 636/636/636
f 128/128/128 120/120/120 129/129/129
f 129/129/129 162/162/162 124/124/124
f 128/128/128 129/129/129 124/124/124
f 474/474/474 469/469/469 162/162/162
f 468/468/468 160/160/160 162/162/162
f 162/162/162 469/469/469 468/468/468
f 122/122/122 124/124/124 162/162/162
f 162/162/162 160/160/160 122/122/122
f 473/473/473 474/474/474 464/464/464
f 464/464/464 474/474/474 465/465/465
f 473/473/473 469/469/469 474/474/474
f 466/466/466 469/469/469 473/473/473
f 469/469/469 466/466/466 468/468/468
f 160/160/160 468/468/468 467/467/467
f 466/466/466 467/467/467 468/468/468
f 467/467/467 161/161/161 160/160/160
f 123/123/123 122/122/122 160/160/160
f 150/150/150 115/115/115 108/108/108
f 115/115/115 131/131/131 116/116/116
f 150/150/150 132/132/132 115/115/115
f 131/131/131 115/115/115 132/132/132
f 131/131/131 111/111/111 116/116/116
f 117/117/117 116/116/116 111/111/111
f 111/111/111 110/110/110 117/117/117
f 131/131/131 169/169/169 111/111/111
f 111/111/111 169/169/169 170/170/170
f 111/111/111 170/170/170 112/112/112
f 111/111/111 112/112/112 109/109/109
f 109/109/109 110/110/110 111/111/111
f 169/169/169 131/131/131 172/172/172
f 131/131/131 132/132/132 172/172/172
f 264/264/264 168/168/168 169/169/169
f 169/169/169 172/172/172 264/264/264
f 168/168/168 130/130/130 169/169/169
f 511/511/511 512/512/512 523/523/523
f 509/509/509 512/512/512 511/511/511
f 549/549/549 581/581/581 580/580/580
f 580/580/580 550/550/550 549/549/549
f 549/549/549 550/550/550 551/551/551
f 581/581/581 583/583/583 570/570/570
f 581/581/581 570/570/570 569/569/569
f 569/569/569 580/580/580 581/581/581
f 586/586/586 580/580/580 558/558/558
f 579/579/579 580/580/580 569/569/569
f 550/550/550 580/580/580 586/586/586
f 558/558/558 580/580/580 579/579/579
f 586/586/586 587/587/587 550/550/550
f 550/550/550 587/587/587 552/552/552
f 550/550/550 552/552/552 551/551/551
f 586/586/586 589/589/589 588/588/588
f 558/558/558 589/589/589 586/586/586
f 588/588/588 587/587/587 586/586/586
f 454/454/454 455/455/455 456/456/456
f 476/476/476 461/461/461 456/456/456
f 460/460/460 457/457/457 456/456/456
f 456/456/456 461/461/461 460/460/460
f 456/456/456 457/457/457 454/454/454
f 462/462/462 461/461/461 476/476/476
f 476/476/476 505/505/505 477/477/477
f 476/476/476 477/477/477 462/462/462
f 461/461/461 462/462/462 459/459/459
f 459/459/459 460/460/460 461/461/461
f 452/452/452 459/459/459 462/462/462
f 491/491/491 452/452/452 462/462/462
f 491/491/491 462/462/462 477/477/477
f 491/491/491 477/477/477 524/524/524
f 524/524/524 477/477/477 506/506/506
f 279/279/279 363/363/363 277/277/277
f 277/277/277 363/363/363 361/361/361
f 277/277/277 361/361/361 294/294/294
f 294/294/294 299/299/299 277/277/277
f 277/277/277 278/278/278 279/279/279
f 279/279/279 370/370/370 363/363/363
f 363/363/363 301/301/301 361/361/361
f 363/363/363 370/370/370 344/344/344
f 363/363/363 344/344/344 301/301/301
f 361/361/361 301/301/301 300/300/300
f 344/344/344 302/302/302 301/301/301
f 300/300/300 301/301/301 302/302/302
f 300/300/300 347/347/347 361/361/361
f 347/347/347 346/346/346 361/361/361
f 294/294/294 361/361/361 346/346/346
f 300/300/300 345/345/345 369/369/369
f 253/253/253 247/247/247 225/225/225
f 225/225/225 224/224/224 253/253/253
f 230/230/230 225/225/225 257/257/257
f 225/225/225 254/254/254 257/257/257
f 230/230/230 226/226/226 225/225/225
f 224/224/224 225/225/225 226/226/226
f 257/257/257 260/260/260 230/230/230
f 256/256/256 260/260/260 257/257/257
f 254/254/254 256/256/256 257/257/257
f 256/256/256 254/254/254 255/255/255
f 255/255/255 258/258/258 256/256/256
f 220/220/220 258/258/258 255/255/255
f 238/238/238 240/240/240 239/239/239
f 239/239/239 240/240/240 251/251/251
f 609/609/609 608/608/608 674/674/674
f 608/608/608 672/672/672 674/674/674
f 608/608/608 630/630/630 624/624/624
f 624/624/624 672/672/672 608/608/608
f 608/608/608 609/609/609 610/610/610
f 609/609/609 674/674/674 681/681/681
f 674/674/674 672/672/672 633/633/633
f 674/674/674 655/655/655 681/681/681
f 674/674/674 633/633/633 655/655/655
f 631/631/631 633/633/633 672/672/672
f 672/672/672 658/658/658 631/631/631
f 658/658/658 672/672/672 657/657/657
f 657/657/657 672/672/672 624/624/624
f 624/624/624 623/623/623 657/657/657
f 624/624/624 630/630/630 625/625/625
f 623/623/623 624/624/624 625/625/625
f 182/182/182 179/179/179 184/184/184
f 184/184/184 179/179/179 181/181/181
f 179/179/179 182/182/182 180/180/180
f 179/179/179 180/180/180 181/181/181
f 182/182/182 188/188/188 192/192/192
f 192/192/192 180/180/180 182/182/182
f 182/182/182 184/184/184 186/186/186
f 186/186/186 188/188/188 182/182/182
f 186/186/186 184/184/184 183/183/183
f 183/183/183 184/184/184 181/181/181
f 181/181/181 180/180/180 191/191/191
f 191/191/191 185/185/185 181/181/181
f 181/181/181 185/185/185 183/183/183
f 180/180/180 192/192/192 191/191/191
f 516/516/516 519/519/519 513/513/513
f 519/519/519 514/514/514 513/513/513
f 513/513/513 515/515/515 516/516/516
f 513/513/513 514/514/514 515/515/515
f 516/516/516 515/515/515 526/526/526
f 526/526/526 522/522/522 516/516/516
f 516/516/516 522/522/522 520/520/520
f 520/520/520 519/519/519 516/516/516
f 520/520/520 517/517/517 519/519/519
f 514/514/514 519/519/519 517/517/517
f 514/514/514 518/518/518 525/525/525
f 525/525/525 515/515/515 514/514/514
f 517/517/517 518/518/518 514/514/514
f 515/515/515 525/525/525 526/526/526
f 477/477/477 505/505/505 506/506/506
f 506/506/506 505/505/505 511/511/511
f 523/523/523 506/506/506 511/511/511
f 506/506/506 523/523/523 524/524/524
f 524/524/524 521/521/521 491/491/491
f 452/452/452 491/491/491 453/453/453
f 453/453/453 491/491/491 508/508/508
f 521/521/521 508/508/508 491/491/491
f 459/459/459 452/452/452 451/451/451
f 451/451/451 452/452/452 453/453/453
f 451/451/451 510/510/510 459/459/459
f 451/451/451 453/453/453 492/492/492
f 376/376/376 451/451/451 492/492/492
f 510/510/510 451/451/451 376/376/376
f 453/453/453 508/508/508 507/507/507
f 493/493/493 453/453/453 507/507/507
f 492/492/492 453/453/453 493/493/493
f 507/507/507 508/508/508 509/509/509
f 340/340/340 493/493/493 507/507/507
f 340/340/340 507/507/507 511/511/511
f 511/511/511 507/507/507 509/509/509
f 493/493/493 340/340/340 159/159/159
f 598/598/598 493/493/493 378/378/378
f 492/492/492 493/493/493 598/598/598
f 378/378/378 493/493/493 159/159/159
f 598/598/598 599/599/599 492/492/492
f 376/376/376 492/492/492 599/599/599
f 599/599/599 598/598/598 378/378/378
f 159/159/159 9/9/9 378/378/378
f 378/378/378 376/376/376 599/599/599
f 3/3/3 376/376/376 378/378/378
f 378/378/378 9/9/9 3/3/3
f 159/159/159 8/8/8 9/9/9
f 152/152/152 159/159/159 340/340/340
f 8/8/8 159/159/159 152/152/152
f 340/340/340 173/173/173 152/152/152
f 340/340/340 177/177/177 173/173/173
f 152/152/152 173/173/173 107/107/107
f 267/267/267 8/8/8 152/152/152
f 151/151/151 267/267/267 152/152/152
f 151/151/151 152/152/152 107/107/107
f 268/268/268 8/8/8 267/267/267
f 3/3/3 9/9/9 8/8/8
f 3/3/3 2/2/2 375/375/375
f 375/375/375 376/376/376 3/3/3
f 376/376/376 375/375/375 510/510/510
f 267/267/267 151/151/151 268/268/268
f 107/107/107 173/173/173 175/175/175
f 107/107/107 175/175/175 150/150/150
f 174/174/174 173/173/173 177/177/177
f 173/173/173 174/174/174 175/175/175
f 187/187/187 150/150/150 175/175/175
f 189/189/189 132/132/132 150/150/150
f 150/150/150 187/187/187 189/189/189
f 189/189/189 190/190/190 171/171/171
f 171/171/171 132/132/132 189/189/189
f 132/132/132 171/171/171 172/172/172
f 171/171/171 177/177/177 172/172/172
f 177/177/177 171/171/171 190/190/190
f 190/190/190 178/178/178 177/177/177
f 177/177/177 178/178/178 174/174/174
f 55/55/55 54/54/54 63/63/63
f 55/55/55 63/63/63 64/64/64
f 63/63/63 54/54/54 88/88/88
f 87/87/87 88/88/88 54/54/54
f 64/64/64 63/63/63 91/91/91
f 88/88/88 89/89/89 63/63/63
f 91/91/91 63/63/63 89/89/89
f 64/64/64 91/91/91 419/419/419
f 419/419/419 442/442/442 441/441/441
f 441/441/441 413/413/413 419/419/419
f 442/442/442 419/419/419 91/91/91
f 413/413/413 441/441/441 440/440/440
f 441/441/441 442/442/442 433/433/433
f 433/433/433 434/434/434 441/441/441
f 440/440/440 441/441/441 434/434/434
f 105/105/105 433/433/433 442/442/442
f 442/442/442 104/104/104 105/105/105
f 160/160/160 161/161/161 123/123/123
f 124/124/124 122/122/122 121/121/121
f 121/121/121 122/122/122 123/123/123
f 198/198/198 123/123/123 161/161/161
f 199/199/199 121/121/121 123/123/123
f 123/123/123 198/198/198 199/199/199
f 532/532/532 206/206/206 161/161/161
f 161/161/161 467/467/467 532/532/532
f 161/161/161 206/206/206 198/198/198
f 531/531/531 532/532/532 467/467/467
f 467/467/467 466/466/466 531/531/531
f 535/535/535 531/531/531 466/466/466
f 466/466/466 473/473/473 535/535/535
f 464/464/464 538/538/538 535/535/535
f 535/535/535 473/473/473 464/464/464
f 464/464/464 533/533/533 538/538/538
f 533/533/533 464/464/464 463/463/463
f 463/463/463 464/464/464 465/465/465
f 53/53/53 327/327/327 334/334/334
f 334/334/334 87/87/87 53/53/53
f 327/327/327 53/53/53 68/68/68
f 54/54/54 53/53/53 87/87/87
f 68/68/68 53/53/53 55/55/55
f 53/53/53 54/54/54 55/55/55
f 334/334/334 327/327/327 412/412/412
f 327/327/327 68/68/68 412/412/412
f 335/335/335 334/334/334 440/440/440
f 412/412/412 440/440/440 334/334/334
f 335/335/335 87/87/87 334/334/334
f 440/440/440 412/412/412 413/413/413
f 68/68/68 55/55/55 412/412/412
f 412/412/412 55/55/55 413/413/413
f 55/55/55 419/419/419 413/413/413
f 55/55/55 64/64/64 419/419/419
f 176/176/176 1/1/1 4/4/4
f 3/3/3 4/4/4 1/1/1
f 1/1/1 2/2/2 3/3/3
f 114/114/114 176/176/176 106/106/106
f 4/4/4 106/106/106 176/176/176
f 4/4/4 268/268/268 151/151/151
f 8/8/8 268/268/268 4/4/4
f 4/4/4 151/151/151 106/106/106
f 8/8/8 4/4/4 3/3/3
f 106/106/106 151/151/151 107/107/107
f 106/106/106 108/108/108 114/114/114
f 106/106/106 107/107/107 108/108/108
f 108/108/108 115/115/115 114/114/114
f 116/116/116 117/117/117 114/114/114
f 114/114/114 115/115/115 116/116/116
f 108/108/108 107/107/107 150/150/150
