# mystery_mosasau reconstructed from live game memory
v -15.87693 56.12002 -11.84284
v -14.98167 55.60883 -24.13707
v 0.00000 63.74395 -24.10015
v 0.00000 64.81501 -11.91433
v -14.53325 51.05198 61.73845
v -14.29259 52.82743 44.38373
v -0.00000 65.14548 44.19102
v -0.00000 63.58588 61.21501
v -15.70648 55.98236 2.14501
v -24.83694 35.81956 1.83236
v -24.43462 37.19954 -11.32854
v -23.03889 36.46840 -24.13992
v -17.64713 12.62368 -19.13247
v -18.17398 11.66658 0.58033
v 0.00000 6.05956 0.55473
v 0.00000 7.31666 -19.18657
v -16.45634 13.59900 27.08868
v -0.00000 8.82391 27.08701
v -0.00000 62.38754 72.09906
v -13.00716 48.98500 71.83858
v -15.23985 54.55637 27.21011
v -0.00000 65.63016 27.21116
v -23.42253 35.88199 27.16454
v -19.04982 36.12445 61.26413
v -20.36087 35.68763 44.56662
v -15.63471 34.78751 72.43060
v -13.09778 15.56400 44.23131
v -0.00000 11.86167 43.83251
v -18.80955 25.58786 44.28079
v -23.41218 23.49004 27.13950
v -9.95786 38.64013 106.82749
v -12.83613 41.71661 86.23162
v 0.00000 59.64715 86.22956
v 0.00000 54.68471 106.84735
v -7.98130 33.47265 136.29330
v -6.05185 29.03466 164.33472
v -4.01742 21.46616 162.72501
v -4.56512 23.55520 136.28934
v -13.00716 48.98500 71.83858
v -0.00000 62.38754 72.09906
v -8.19948 25.60251 86.25472
v -9.84894 20.95823 72.45186
v -14.53768 26.68492 72.49858
v -15.63471 34.78751 72.43060
v 0.00000 20.76582 86.21884
v -0.00000 18.58610 72.27049
v -6.06364 24.39099 106.80875
v 0.00000 20.50269 106.78352
v -1.02981 45.40199 136.29846
v -1.59518 37.96640 166.59299
v -2.16310 30.60745 180.43080
v -2.21100 21.04439 192.39902
v -4.65282 14.46878 187.77260
v -5.28321 24.65727 176.51126
v -3.20899 8.55946 183.66786
v -3.04062 17.99406 172.69606
v -3.53657 6.75798 196.21768
v -1.81467 11.78052 200.64978
v -2.07859 1.84952 193.63937
v -2.22661 -7.46446 214.41309
v -1.16143 -6.08140 215.63101
v -0.94327 -9.71519 221.91600
v -0.63219 -10.95422 222.21904
v 0.00000 47.95824 168.73268
v -2.21356 38.44968 187.59225
v -2.16310 30.60745 180.43080
v -1.59518 37.96640 166.59299
v -10.60794 18.94879 62.16049
v -9.84894 20.95823 72.45186
v -0.00000 18.58610 72.27049
v -0.00000 16.06218 61.91899
v -0.44332 -11.78480 221.40218
v -0.98228 -9.62376 213.26781
v 0.00000 20.76216 136.28827
v 0.00000 18.79649 162.11565
v -0.00000 65.65742 2.29733
v -1.34369 51.90079 200.42738
v 0.00000 57.15813 196.25603
v 0.00000 61.62265 213.15419
v -11.37988 48.79363 -63.19710
v -12.00858 41.58557 -63.14532
v -12.90655 45.90747 -69.96632
v -17.06498 37.53754 -57.67506
v -16.23255 37.59150 -69.04562
v -14.73911 45.72993 -56.04634
v -4.10594 28.50311 -92.70141
v -4.05091 31.21440 -94.30274
v -8.53525 31.22725 -85.01733
v -7.84928 26.83694 -84.98158
v -10.75727 24.65446 -74.69115
v -13.99054 23.07154 -67.91778
v 0.00000 19.63956 -67.76356
v 0.00000 22.08882 -74.69403
v -2.92912 37.40099 -95.15548
v -0.00000 38.16216 -96.88592
v -0.00000 41.28529 -92.94500
v -3.81805 40.10565 -91.89169
v -4.29843 33.67215 -96.04498
v -0.00000 34.25490 -98.40786
v -9.15808 38.94148 -84.94906
v -9.62840 42.04005 -76.70561
v -13.80961 33.94653 -75.22363
v -11.32333 33.84526 -84.91261
v -8.38225 33.51630 -91.13552
v -6.91921 37.85745 -91.13042
v -9.46069 53.04902 -55.80924
v -8.73857 52.02100 -63.18692
v -0.00000 55.06116 -63.20990
v -0.00000 57.48934 -55.82603
v -14.03688 55.12228 -32.98132
v -11.70431 54.54000 -45.63773
v -0.00000 60.13166 -45.63729
v 0.00000 62.54471 -32.98044
v -19.26948 31.42072 -56.26145
v -16.17407 33.45584 -68.63239
v -0.00000 51.66013 -71.25704
v -7.87417 49.82286 -70.87929
v -6.16365 46.16263 -77.48748
v -0.00000 48.04157 -77.74135
v -14.69907 19.76298 -56.43171
v -0.00000 15.74132 -56.39088
v -22.31931 35.81713 -32.98865
v -20.56714 35.81872 -45.69298
v -17.48740 14.93024 -32.99445
v -23.58562 28.22969 -25.89138
v -26.41219 22.67792 -19.03527
v -5.04378 42.18225 -84.98042
v -11.66878 31.23789 -74.79946
v -0.00000 44.13310 -84.99394
v 0.00000 25.03900 -85.36555
v 0.00000 27.50286 -94.44733
v -16.17407 33.45584 -68.63239
v -19.26948 31.42072 -56.26145
v -0.00000 33.92167 -52.85712
v -0.00000 35.57147 -67.40945
v -11.32333 33.84526 -84.91261
v -13.80961 33.94653 -75.22363
v -0.00000 35.60071 -74.71377
v -0.00000 35.52390 -82.57011
v -4.29843 33.67215 -96.04498
v -8.38225 33.51630 -91.13552
v -0.00000 34.79374 -91.13563
v -0.00000 34.25490 -98.40786
v -8.53525 31.22725 -85.01733
v 0.00000 28.52137 -85.01736
v 0.00000 28.26063 -74.79927
v -11.66878 31.23789 -74.79946
v 0.00000 28.34321 -68.37983
v -16.32966 31.17697 -68.34418
v 0.00000 28.39871 -55.26348
v -19.26948 31.42072 -56.26145
v -4.05091 31.21440 -94.30274
v 0.00000 30.48903 -96.71374
v 0.00000 10.17769 -32.99500
v 0.00000 13.19465 -45.67840
v -15.73144 17.35241 -45.68943
v -10.94535 48.03400 -63.15966
v -14.67975 43.08986 -63.16708
v -12.38501 44.54330 -67.51640
v -14.30291 38.26350 -67.32332
v -15.04247 38.13596 -59.20734
v -13.47843 44.45757 -57.68274
v -6.79990 35.39019 -89.29256
v -5.30445 32.27191 -90.35957
v -5.09455 35.38751 -91.80045
v -4.86231 35.12330 -92.02942
v -3.21872 32.18545 -93.36644
v -3.02984 35.39133 -94.01195
v -2.40433 35.21795 -94.48434
v -0.59933 32.19193 -95.83185
v -0.00000 34.13301 -96.45203
v -0.00000 35.33820 -96.12604
v -7.77845 35.34935 -86.28246
v -6.99226 32.14452 -87.90335
v -7.33814 35.14744 -89.21407
v -8.43814 35.19145 -83.61261
v -7.67144 32.21505 -85.26102
v -7.91784 35.63282 -87.09099
v -9.05317 34.93700 -80.91025
v -8.54037 32.27219 -82.33998
v -8.43904 35.02814 -83.66145
v -9.94139 35.17962 -78.24297
v -9.57827 32.32999 -79.65689
v -9.15026 35.25251 -81.15750
v -10.85800 35.10781 -75.16954
v -9.91605 32.30841 -76.50746
v -10.17560 35.11625 -78.01369
v -11.81358 35.21162 -71.94247
v -10.85092 32.52826 -73.39467
v -11.06427 35.19927 -74.92137
v -12.82004 35.43354 -69.05002
v -11.94862 32.44915 -70.57413
v -12.32428 35.27930 -71.99431
v -9.09006 31.04358 -76.37326
v -9.15458 33.60754 -75.03841
v -9.71992 31.51444 -74.13216
v -10.90737 31.60108 -73.11618
v -11.12551 33.85109 -71.97942
v -11.57277 31.74723 -70.93925
v -12.51463 31.04222 -70.33310
v -12.59656 33.69646 -69.16467
v -13.13764 31.52133 -68.14793
v -8.12762 30.96726 -79.47891
v -8.71230 33.71041 -78.07945
v -8.86362 31.22044 -77.21774
v -7.11891 30.91112 -82.54492
v -7.70037 33.56646 -80.89691
v -7.49931 30.79872 -79.75645
v -6.10349 30.73420 -84.96875
v -6.94898 33.67081 -83.66072
v -7.42356 31.12502 -82.42000
v -5.44766 31.06547 -87.99184
v -5.62504 33.67637 -86.51715
v -6.16984 31.46713 -85.20753
v -3.73060 30.79284 -90.59756
v -4.25173 33.24431 -89.08020
v -4.77937 30.91218 -87.95255
v -1.61890 30.89871 -93.54211
v -2.34096 33.41021 -92.05225
v -2.77463 31.04690 -90.64038
v -13.57135 35.23935 -66.30565
v -12.72422 32.12707 -67.61307
v -13.06738 34.97748 -69.14272
v -13.96488 34.97527 -63.34247
v -13.35433 31.88369 -64.72298
v -13.23716 34.75668 -66.22218
v -1.50292 31.23188 -93.54086
v 0.00000 30.98142 -94.46463
v 0.00000 32.41164 -94.47394
v -0.48566 33.40194 -94.18173
v -13.43020 30.92843 -67.42905
v -13.97934 33.58268 -66.26057
v -14.51998 31.40756 -65.24384
v 0.00000 28.58840 202.10863
v -2.21100 21.04439 192.39902
v 0.00000 47.44925 205.93500
v -31.64927 32.51602 -11.25988
v -38.78442 31.46790 -11.07673
v -38.88625 30.48629 -19.69764
v -31.31657 31.45727 -18.85450
v -54.87474 31.04810 -7.64906
v -53.97534 30.08216 -19.24982
v -38.95828 28.25527 -22.49261
v -31.66051 28.25907 -21.50898
v -54.03399 28.25107 -21.78432
v -31.60592 25.25979 -18.12207
v -26.41219 22.67792 -19.03527
v -26.07112 28.25745 -21.31433
v -37.00018 30.35156 -3.99668
v -35.89885 28.24912 -1.48586
v -46.59797 28.25217 3.70431
v -47.73018 30.12844 1.37603
v -35.89885 28.24912 -1.48586
v -37.25994 26.33930 -4.52102
v -48.69769 26.58845 -0.16344
v -46.59797 28.25217 3.70431
v -27.72204 34.04520 -11.20435
v -27.54918 31.53503 -1.57422
v -31.51825 30.66333 -4.08638
v -39.30598 26.38924 -17.97173
v -52.84029 26.55208 -16.98448
v -59.97232 28.25122 4.60618
v -59.77069 30.03235 1.60609
v -25.92592 32.50372 -18.58783
v -69.33358 28.25176 -1.98325
v -66.80143 30.05276 -3.08496
v -31.61044 28.36539 -1.42750
v -31.61044 28.36539 -1.42750
v -30.53731 25.28924 -4.66325
v -60.03505 26.56503 -0.24402
v -59.97232 28.25122 4.60618
v -66.01859 26.58152 -2.92418
v -69.33358 28.25176 -1.98325
v -62.72292 26.55775 -11.23456
v -25.13113 22.20047 0.80581
v -26.61717 28.77280 1.67578
v -26.61717 28.77280 1.67578
v -63.48639 30.07360 -11.96327
v -64.82396 28.25109 -14.21815
v -27.54918 31.53503 -1.57422
v -27.72204 34.04520 -11.20435
v -25.92592 32.50372 -18.58783
v -26.07112 28.25745 -21.31433
v -23.58562 28.22969 -25.89138
v -26.61717 28.77280 1.67578
v -16.32966 31.17697 -68.34418
v -25.13113 22.20047 0.80581
v -18.17398 11.66658 0.58033
v -21.56910 26.95627 62.04404
v -26.91961 26.00056 64.60349
v -28.79506 24.83290 58.97354
v -22.34484 26.37751 57.36225
v -31.96890 25.15033 67.52824
v -34.48909 24.05468 60.84496
v -29.33177 23.94183 57.27308
v -22.36276 24.89814 55.44417
v -34.93173 23.16472 59.36271
v -21.79758 23.24019 58.04975
v -17.31060 22.21910 56.04905
v -18.80955 25.58786 44.28079
v -24.03230 25.65472 68.22234
v -22.73048 24.54901 69.67531
v -25.74468 24.12531 73.66193
v -27.09828 25.06680 72.54605
v -22.73048 24.54901 69.67531
v -23.97603 23.28646 68.33913
v -27.68633 22.81448 71.85812
v -25.74468 24.12531 73.66193
v -19.84283 29.77677 61.51077
v -17.59085 28.85760 66.77919
v -20.05462 26.15766 65.59358
v -28.24625 22.76339 60.31045
v -33.54795 22.00272 62.22065
v -32.64771 23.14737 76.25542
v -33.36618 24.12159 74.43907
v -19.91225 29.11192 56.05731
v -39.92107 22.26976 74.36395
v -38.53656 23.47747 73.27338
v -18.21277 24.98199 68.01559
v -18.21277 24.98199 68.01559
v -19.10084 23.66583 65.34511
v -33.62006 21.95643 73.40753
v -32.64771 23.14737 76.25542
v -37.72400 21.44535 73.18983
v -39.92107 22.26976 74.36395
v -37.38343 21.43737 67.21182
v -14.53768 26.68492 72.49858
v -15.09547 22.14477 62.33272
v -14.53768 26.68492 72.49858
v -38.31696 23.48156 66.95581
v -40.03475 22.24596 66.25743
v -17.59085 28.85760 66.77919
v -19.84283 29.77677 61.51077
v -19.91225 29.11192 56.05731
v -18.80955 25.58786 44.28079
v -17.31060 22.21910 56.04905
v -14.53768 26.68492 72.49858
v -15.09547 22.14477 62.33272
v -10.60794 18.94879 62.16049
v -15.09547 22.14477 62.33272
v -14.53768 26.68492 72.49858
v -25.13113 22.20047 0.80581
v 0.00000 30.48903 -96.71374
v -0.00000 33.92167 -52.85712
v 0.00000 15.81536 204.24918
v -1.81467 11.78052 200.64978
v 0.00000 28.58840 202.10863
v -1.16143 -6.08140 215.63101
v 0.00000 -4.39208 217.14220
v 0.00000 -9.09444 224.21942
v -0.94327 -9.71519 221.91600
v -3.20899 8.55946 183.66786
v 0.00000 4.54186 181.32552
v 0.00000 13.21973 169.90221
v -3.04062 17.99406 172.69606
v -0.44332 -11.78480 221.40218
v 0.00000 -13.50339 222.12393
v 0.00000 -11.53867 212.76270
v -0.98228 -9.62376 213.26781
v -2.07859 1.84952 193.63937
v 0.00000 -1.96920 191.65102
v -3.20899 8.55946 183.66786
v 0.00000 18.79649 162.11565
v 0.00000 -11.76000 224.60046
v -0.63219 -10.95422 222.21904
v -0.63219 -10.95422 222.21904
v 0.00000 -11.76000 224.60046
v -2.07859 1.84952 193.63937
v -1.02981 45.40199 136.29846
v 0.00000 48.53089 136.29846
v 0.00000 54.68471 106.84735
v 15.87693 56.12002 -11.84284
v 14.98167 55.60883 -24.13707
v 14.53325 51.05198 61.73845
v 14.29259 52.82743 44.38373
v 24.43462 37.19954 -11.32854
v 24.83694 35.81956 1.83236
v 15.70648 55.98236 2.14501
v 23.03889 36.46840 -24.13992
v 17.64713 12.62368 -19.13247
v 18.17398 11.66658 0.58033
v 16.45634 13.59900 27.08868
v 13.00716 48.98500 71.83858
v 15.23985 54.55637 27.21011
v 23.42253 35.88199 27.16454
v 20.36087 35.68763 44.56662
v 19.04982 36.12445 61.26413
v 15.63471 34.78751 72.43060
v 13.09778 15.56400 44.23131
v 23.41218 23.49004 27.13950
v 18.80955 25.58786 44.28079
v 9.95786 38.64013 106.82749
v 12.83613 41.71661 86.23162
v 7.98130 33.47265 136.29330
v 4.56512 23.55520 136.28934
v 4.01742 21.46616 162.72501
v 6.05185 29.03466 164.33472
v 13.00716 48.98500 71.83858
v 8.19948 25.60251 86.25472
v 14.53768 26.68492 72.49858
v 9.84894 20.95823 72.45186
v 15.63471 34.78751 72.43060
v 6.06364 24.39099 106.80875
v 1.59518 37.96640 166.59299
v 1.02981 45.40199 136.29846
v 2.16310 30.60745 180.43080
v 5.28321 24.65727 176.51126
v 4.65282 14.46878 187.77260
v 2.21100 21.04439 192.39902
v 3.04062 17.99406 172.69606
v 3.20899 8.55946 183.66786
v 3.53657 6.75798 196.21768
v 1.81467 11.78052 200.64978
v 2.07859 1.84952 193.63937
v 2.22661 -7.46446 214.41309
v 0.63219 -10.95422 222.21904
v 0.94327 -9.71519 221.91600
v 1.16143 -6.08140 215.63101
v 1.59518 37.96640 166.59299
v 2.16310 30.60745 180.43080
v 2.21356 38.44968 187.59225
v 10.60794 18.94879 62.16049
v 9.84894 20.95823 72.45186
v 0.98228 -9.62376 213.26781
v 0.44332 -11.78480 221.40218
v 1.34369 51.90079 200.42738
v 11.37988 48.79363 -63.19710
v 12.90655 45.90747 -69.96632
v 12.00858 41.58557 -63.14532
v 17.06498 37.53754 -57.67506
v 16.23255 37.59150 -69.04562
v 14.73911 45.72993 -56.04634
v 4.10594 28.50311 -92.70141
v 7.84928 26.83694 -84.98158
v 8.53525 31.22725 -85.01733
v 4.05091 31.21440 -94.30274
v 10.75727 24.65446 -74.69115
v 13.99054 23.07154 -67.91778
v 2.92912 37.40099 -95.15548
v 3.81805 40.10565 -91.89169
v 4.29843 33.67215 -96.04498
v 9.15808 38.94148 -84.94906
v 11.32333 33.84526 -84.91261
v 13.80961 33.94653 -75.22363
v 9.62840 42.04005 -76.70561
v 6.91921 37.85745 -91.13042
v 8.38225 33.51630 -91.13552
v 9.46069 53.04902 -55.80924
v 8.73857 52.02100 -63.18692
v 14.03688 55.12228 -32.98132
v 11.70431 54.54000 -45.63773
v 16.17407 33.45584 -68.63239
v 19.26948 31.42072 -56.26145
v 6.16365 46.16263 -77.48748
v 7.87417 49.82286 -70.87929
v 14.69907 19.76298 -56.43171
v 22.31931 35.81713 -32.98865
v 20.56714 35.81872 -45.69298
v 26.41219 22.67792 -19.03527
v 23.58562 28.22969 -25.89138
v 17.48740 14.93024 -32.99445
v 5.04378 42.18225 -84.98042
v 11.66878 31.23789 -74.79946
v 16.17407 33.45584 -68.63239
v 19.26948 31.42072 -56.26145
v 11.32333 33.84526 -84.91261
v 13.80961 33.94653 -75.22363
v 4.29843 33.67215 -96.04498
v 8.38225 33.51630 -91.13552
v 8.53525 31.22725 -85.01733
v 11.66878 31.23789 -74.79946
v 16.32966 31.17697 -68.34418
v 19.26948 31.42072 -56.26145
v 4.05091 31.21440 -94.30274
v 15.73144 17.35241 -45.68943
v 10.94535 48.03400 -63.15966
v 12.38501 44.54330 -67.51640
v 14.67975 43.08986 -63.16708
v 14.30291 38.26350 -67.32332
v 15.04247 38.13596 -59.20734
v 13.47843 44.45757 -57.68274
v 6.79990 35.39019 -89.29256
v 5.09455 35.38751 -91.80045
v 5.30445 32.27191 -90.35957
v 4.86231 35.12330 -92.02942
v 3.02984 35.39133 -94.01195
v 3.21872 32.18545 -93.36644
v 2.40433 35.21795 -94.48434
v 0.59933 32.19193 -95.83185
v 7.77845 35.34935 -86.28246
v 7.33814 35.14744 -89.21407
v 6.99226 32.14452 -87.90335
v 8.43814 35.19145 -83.61261
v 7.91784 35.63282 -87.09099
v 7.67144 32.21505 -85.26102
v 9.05317 34.93700 -80.91025
v 8.43904 35.02814 -83.66145
v 8.54037 32.27219 -82.33998
v 9.94139 35.17962 -78.24297
v 9.15026 35.25251 -81.15750
v 9.57827 32.32999 -79.65689
v 10.85800 35.10781 -75.16954
v 10.17560 35.11625 -78.01369
v 9.91605 32.30841 -76.50746
v 11.81358 35.21162 -71.94247
v 11.06427 35.19927 -74.92137
v 10.85092 32.52826 -73.39467
v 12.82004 35.43354 -69.05002
v 12.32428 35.27930 -71.99431
v 11.94862 32.44915 -70.57413
v 9.09006 31.04358 -76.37326
v 9.71992 31.51444 -74.13216
v 9.15458 33.60754 -75.03841
v 10.90737 31.60108 -73.11618
v 11.57277 31.74723 -70.93925
v 11.12551 33.85109 -71.97942
v 12.51463 31.04222 -70.33310
v 13.13764 31.52133 -68.14793
v 12.59656 33.69646 -69.16467
v 8.12762 30.96726 -79.47891
v 8.86362 31.22044 -77.21774
v 8.71230 33.71041 -78.07945
v 7.11891 30.91112 -82.54492
v 7.49931 30.79872 -79.75645
v 7.70037 33.56646 -80.89691
v 6.10349 30.73420 -84.96875
v 7.42356 31.12502 -82.42000
v 6.94898 33.67081 -83.66072
v 5.44766 31.06547 -87.99184
v 6.16984 31.46713 -85.20753
v 5.62504 33.67637 -86.51715
v 3.73060 30.79284 -90.59756
v 4.77937 30.91218 -87.95255
v 4.25173 33.24431 -89.08020
v 1.61890 30.89871 -93.54211
v 2.77463 31.04690 -90.64038
v 2.34096 33.41021 -92.05225
v 13.57135 35.23935 -66.30565
v 13.06738 34.97748 -69.14272
v 12.72422 32.12707 -67.61307
v 13.96488 34.97527 -63.34247
v 13.23716 34.75668 -66.22218
v 13.35433 31.88369 -64.72298
v 1.50292 31.23188 -93.54086
v 0.48566 33.40194 -94.18173
v 13.43020 30.92843 -67.42905
v 14.51998 31.40756 -65.24384
v 13.97934 33.58268 -66.26057
v 2.21100 21.04439 192.39902
v 31.64927 32.51602 -11.25988
v 31.31657 31.45727 -18.85450
v 38.88625 30.48629 -19.69764
v 38.78442 31.46790 -11.07673
v 53.97533 30.08216 -19.24981
v 54.87473 31.04810 -7.64906
v 38.95828 28.25527 -22.49260
v 31.66051 28.25907 -21.50898
v 54.03399 28.25107 -21.78432
v 31.60592 25.25979 -18.12207
v 26.07112 28.25745 -21.31433
v 26.41219 22.67792 -19.03527
v 37.00018 30.35156 -3.99668
v 47.73018 30.12844 1.37603
v 46.59797 28.25217 3.70431
v 35.89885 28.24912 -1.48586
v 35.89885 28.24912 -1.48586
v 46.59797 28.25217 3.70431
v 48.69769 26.58845 -0.16344
v 37.25994 26.33930 -4.52102
v 27.72204 34.04520 -11.20435
v 31.51825 30.66333 -4.08638
v 27.54918 31.53503 -1.57422
v 39.30598 26.38924 -17.97173
v 52.84029 26.55209 -16.98448
v 59.77069 30.03235 1.60609
v 59.97232 28.25122 4.60618
v 25.92592 32.50372 -18.58783
v 66.80142 30.05276 -3.08496
v 69.33357 28.25176 -1.98325
v 31.61044 28.36539 -1.42750
v 30.53731 25.28924 -4.66325
v 31.61044 28.36539 -1.42750
v 59.97232 28.25122 4.60618
v 60.03504 26.56504 -0.24402
v 69.33357 28.25176 -1.98325
v 66.01858 26.58152 -2.92418
v 62.72291 26.55775 -11.23456
v 25.13113 22.20047 0.80581
v 26.61717 28.77280 1.67578
v 26.61717 28.77280 1.67578
v 64.82395 28.25109 -14.21814
v 63.48639 30.07360 -11.96327
v 27.54918 31.53503 -1.57422
v 27.72204 34.04520 -11.20435
v 25.92592 32.50372 -18.58783
v 26.07112 28.25745 -21.31433
v 23.58562 28.22969 -25.89138
v 26.61717 28.77280 1.67578
v 16.32966 31.17697 -68.34418
v 18.17398 11.66658 0.58033
v 25.13113 22.20047 0.80581
v 21.56910 26.95627 62.04404
v 22.34484 26.37751 57.36224
v 28.79506 24.83290 58.97353
v 26.91961 26.00057 64.60349
v 34.48909 24.05469 60.84496
v 31.96890 25.15034 67.52824
v 29.33177 23.94184 57.27308
v 22.36276 24.89814 55.44416
v 34.93173 23.16472 59.36270
v 21.79758 23.24019 58.04974
v 18.80955 25.58786 44.28079
v 17.31060 22.21911 56.04904
v 24.03230 25.65472 68.22234
v 27.09827 25.06680 72.54605
v 25.74467 24.12531 73.66193
v 22.73048 24.54901 69.67531
v 22.73048 24.54901 69.67531
v 25.74467 24.12531 73.66193
v 27.68633 22.81448 71.85812
v 23.97602 23.28647 68.33913
v 19.84282 29.77677 61.51077
v 20.05462 26.15766 65.59358
v 17.59085 28.85760 66.77919
v 28.24625 22.76339 60.31044
v 33.54795 22.00272 62.22064
v 33.36618 24.12159 74.43907
v 32.64771 23.14737 76.25542
v 19.91225 29.11192 56.05730
v 38.53656 23.47747 73.27338
v 39.92107 22.26977 74.36395
v 18.21277 24.98199 68.01559
v 19.10083 23.66583 65.34511
v 18.21277 24.98199 68.01559
v 32.64771 23.14737 76.25542
v 33.62006 21.95643 73.40753
v 39.92107 22.26977 74.36395
v 37.72400 21.44535 73.18983
v 37.38343 21.43737 67.21182
v 15.09547 22.14477 62.33272
v 14.53768 26.68492 72.49858
v 14.53768 26.68492 72.49858
v 40.03475 22.24597 66.25743
v 38.31696 23.48157 66.95581
v 17.59085 28.85760 66.77919
v 19.84282 29.77677 61.51077
v 19.91225 29.11192 56.05730
v 18.80955 25.58786 44.28079
v 17.31060 22.21911 56.04904
v 14.53768 26.68492 72.49858
v 15.09547 22.14477 62.33272
v 10.60794 18.94879 62.16049
v 14.53768 26.68492 72.49858
v 15.09547 22.14477 62.33272
v 25.13113 22.20047 0.80581
v 1.81467 11.78052 200.64978
v 1.16143 -6.08140 215.63101
v 0.94327 -9.71519 221.91600
v 3.20899 8.55946 183.66786
v 3.04062 17.99406 172.69606
v 0.44332 -11.78480 221.40218
v 0.98228 -9.62376 213.26781
v 2.07859 1.84952 193.63937
v 3.20899 8.55946 183.66786
v 0.63219 -10.95422 222.21904
v 0.63219 -10.95422 222.21904
v 2.07859 1.84952 193.63937
v 1.02981 45.40199 136.29846
vt 0.524568 0.900804
vt 0.466131 0.893914
vt 0.461464 0.974882
vt 0.521774 0.985072
vt 0.918183 0.870334
vt 0.812178 0.881248
vt 0.818807 0.973750
vt 0.918832 0.976405
vt 0.589842 0.899712
vt 0.592476 0.786964
vt 0.524920 0.794198
vt 0.461656 0.794640
vt 0.486536 0.657806
vt 0.578926 0.648123
vt 0.571200 0.553343
vt 0.477677 0.563737
vt 0.701799 0.646342
vt 0.706749 0.553675
vt 0.986141 0.965138
vt 0.979841 0.864405
vt 0.697850 0.892242
vt 0.702834 0.986993
vt 0.702939 0.782236
vt 0.915005 0.780841
vt 0.814819 0.776844
vt 0.983923 0.776014
vt 0.814927 0.647765
vt 0.814880 0.566504
vt 0.815590 0.714464
vt 0.702286 0.715459
vt 0.754023 0.452168
vt 0.923146 0.459842
vt 0.916372 0.541249
vt 0.760141 0.531162
vt 0.614993 0.455296
vt 0.467479 0.478999
vt 0.461602 0.441931
vt 0.600771 0.409693
vt 0.982254 0.500598
vt 0.966736 0.556086
vt 0.918637 0.386315
vt 0.975151 0.348618
vt 0.982078 0.386262
vt 0.972999 0.425147
vt 0.909150 0.336913
vt 0.963543 0.315784
vt 0.743842 0.391919
vt 0.735045 0.349303
vt 0.630387 0.522018
vt 0.470728 0.527446
vt 0.394172 0.522035
vt 0.318400 0.507121
vt 0.319797 0.470278
vt 0.398066 0.481193
vt 0.318062 0.429001
vt 0.398823 0.436794
vt 0.196402 0.460821
vt 0.195831 0.485623
vt 0.191925 0.430601
vt 0.074799 0.455290
vt 0.074233 0.465953
vt 0.036583 0.468583
vt 0.031712 0.464292
vt 0.643329 0.076724
vt 0.536496 0.080378
vt 0.528756 0.009437
vt 0.633902 0.013318
vt 0.917210 0.631378
vt 0.977874 0.627126
vt 0.979262 0.568484
vt 0.914533 0.568964
vt 0.032769 0.458354
vt 0.072135 0.439197
vt 0.593336 0.383371
vt 0.458224 0.417210
vt 0.591092 0.993543
vt 0.532420 0.213870
vt 0.581349 0.219669
vt 0.521104 0.315996
vt 0.218240 0.886867
vt 0.219757 0.860915
vt 0.185421 0.872651
vt 0.234135 0.821251
vt 0.194364 0.837961
vt 0.252286 0.851516
vt 0.047799 0.578029
vt 0.030297 0.581777
vt 0.055789 0.613059
vt 0.071252 0.596527
vt 0.126458 0.636492
vt 0.191208 0.673368
vt 0.205529 0.585571
vt 0.141869 0.570199
vt 0.033636 0.920911
vt 0.022940 0.939193
vt 0.049364 0.947677
vt 0.056475 0.924746
vt 0.020632 0.902732
vt 0.003866 0.926979
vt 0.096982 0.889739
vt 0.136398 0.880079
vt 0.132514 0.840371
vt 0.094793 0.857920
vt 0.048387 0.878713
vt 0.058251 0.903392
vt 0.267320 0.897964
vt 0.217945 0.908746
vt 0.216219 0.956357
vt 0.272207 0.952110
vt 0.416623 0.888864
vt 0.341744 0.886995
vt 0.343279 0.953964
vt 0.412383 0.964653
vt 0.239595 0.763347
vt 0.177537 0.813236
vt 0.175208 0.953498
vt 0.177015 0.908167
vt 0.136452 0.914736
vt 0.133172 0.953243
vt 0.256378 0.686618
vt 0.263665 0.591716
vt 0.415643 0.788238
vt 0.328540 0.783548
vt 0.415628 0.674731
vt 0.455016 0.746039
vt 0.494192 0.724156
vt 0.096457 0.919058
vt 0.104607 0.663457
vt 0.093639 0.950686
vt 0.077406 0.554788
vt 0.042525 0.549807
vt 0.595403 0.282788
vt 0.590373 0.301533
vt 0.621783 0.302529
vt 0.620544 0.283545
vt 0.603426 0.258654
vt 0.599173 0.269403
vt 0.620416 0.270190
vt 0.620734 0.259321
vt 0.614029 0.239888
vt 0.608654 0.246460
vt 0.620196 0.247567
vt 0.620835 0.236323
vt 0.642761 0.242812
vt 0.629535 0.242825
vt 0.629420 0.254699
vt 0.647828 0.255506
vt 0.628569 0.271115
vt 0.655498 0.273925
vt 0.626375 0.289103
vt 0.657261 0.292135
vt 0.636512 0.232590
vt 0.629924 0.229698
vt 0.406328 0.577244
vt 0.336642 0.592182
vt 0.339281 0.679778
vt 0.427235 0.329576
vt 0.424931 0.298303
vt 0.451477 0.309084
vt 0.444353 0.281717
vt 0.415856 0.280386
vt 0.394824 0.303143
vt 0.037981 0.848961
vt 0.200971 0.763203
vt 0.038297 0.690477
vt 0.037988 0.848966
vt 0.200974 0.763206
vt 0.038296 0.690512
vt 0.037986 0.848960
vt 0.200976 0.763208
vt 0.101210 0.718633
vt 0.038254 0.712025
vt 0.037979 0.848969
vt 0.200979 0.763199
vt 0.038300 0.690486
vt 0.037978 0.848969
vt 0.200957 0.763203
vt 0.038290 0.690436
vt 0.037990 0.848965
vt 0.200957 0.763200
vt 0.038300 0.690479
vt 0.037985 0.848968
vt 0.200961 0.763212
vt 0.038298 0.690480
vt 0.037988 0.848965
vt 0.200962 0.763202
vt 0.038300 0.690466
vt 0.037989 0.848965
vt 0.200955 0.763196
vt 0.038301 0.690455
vt 0.037987 0.848966
vt 0.200951 0.763197
vt 0.038299 0.690465
vt 0.038302 0.690504
vt 0.200942 0.763214
vt 0.038000 0.848964
vt 0.038302 0.690504
vt 0.200942 0.763214
vt 0.038000 0.848964
vt 0.038302 0.690504
vt 0.200942 0.763214
vt 0.038000 0.848964
vt 0.038302 0.690504
vt 0.200943 0.763213
vt 0.038000 0.848964
vt 0.038302 0.690504
vt 0.200943 0.763213
vt 0.038000 0.848964
vt 0.038302 0.690504
vt 0.200943 0.763213
vt 0.038000 0.848964
vt 0.038302 0.690504
vt 0.200942 0.763214
vt 0.038000 0.848964
vt 0.038302 0.690504
vt 0.200942 0.763214
vt 0.038000 0.848964
vt 0.038302 0.690504
vt 0.200942 0.763214
vt 0.038000 0.848964
vt 0.037983 0.848965
vt 0.200952 0.763207
vt 0.038302 0.690469
vt 0.037982 0.848968
vt 0.200946 0.763219
vt 0.038301 0.690485
vt 0.038000 0.848964
vt 0.038200 0.743851
vt 0.137722 0.734950
vt 0.200943 0.763213
vt 0.038302 0.690504
vt 0.200942 0.763214
vt 0.038000 0.848964
vt 0.408000 0.096318
vt 0.419214 0.017158
vt 0.481926 0.202260
vt 0.305649 0.319540
vt 0.252590 0.317036
vt 0.259427 0.264897
vt 0.312791 0.270080
vt 0.133928 0.321365
vt 0.155086 0.261108
vt 0.258469 0.243065
vt 0.308741 0.240029
vt 0.158175 0.251132
vt 0.307288 0.207438
vt 0.350896 0.203420
vt 0.349158 0.240647
vt 0.255451 0.362055
vt 0.260643 0.383239
vt 0.175766 0.401450
vt 0.171275 0.381526
vt 0.237345 0.110718
vt 0.235940 0.134355
vt 0.145131 0.130037
vt 0.149547 0.100963
vt 0.337118 0.321760
vt 0.326607 0.383304
vt 0.296970 0.365883
vt 0.250791 0.214344
vt 0.155188 0.228295
vt 0.076853 0.388377
vt 0.086156 0.367746
vt 0.352775 0.273832
vt 0.020263 0.333066
vt 0.045060 0.329760
vt 0.290152 0.387502
vt 0.264383 0.101940
vt 0.286478 0.124529
vt 0.067494 0.156229
vt 0.053079 0.126467
vt 0.034505 0.185751
vt 0.005549 0.187753
vt 0.075142 0.224888
vt 0.327477 0.094879
vt 0.283433 0.070910
vt 0.323587 0.410201
vt 0.077242 0.281516
vt 0.066803 0.256112
vt 0.573427 0.759994
vt 0.525001 0.768819
vt 0.490563 0.769910
vt 0.481327 0.749578
vt 0.455016 0.746039
vt 0.587869 0.746469
vt 0.169820 0.716640
vt 0.578804 0.712668
vt 0.578926 0.648123
vt 0.879545 0.111257
vt 0.830890 0.117420
vt 0.842920 0.165057
vt 0.896562 0.154593
vt 0.778597 0.122858
vt 0.794884 0.172366
vt 0.841173 0.186398
vt 0.901795 0.184518
vt 0.791211 0.184379
vt 0.893636 0.216987
vt 0.929876 0.233871
vt 0.990562 0.179077
vt 0.830681 0.079620
vt 0.830491 0.061066
vt 0.786650 0.053697
vt 0.784507 0.070447
vt 0.824827 0.303226
vt 0.823310 0.284854
vt 0.779364 0.289933
vt 0.783680 0.314209
vt 0.905714 0.103621
vt 0.901864 0.076494
vt 0.870709 0.076304
vt 0.831473 0.210557
vt 0.784822 0.201407
vt 0.726425 0.071574
vt 0.733795 0.088621
vt 0.921723 0.138830
vt 0.691253 0.119435
vt 0.710062 0.119014
vt 0.866996 0.048696
vt 0.865020 0.308314
vt 0.873010 0.282604
vt 0.728814 0.274361
vt 0.719875 0.299977
vt 0.703809 0.250904
vt 0.681399 0.247747
vt 0.732845 0.213178
vt 0.920203 0.311825
vt 0.916522 0.282548
vt 0.894227 0.043249
vt 0.739509 0.158958
vt 0.730816 0.180678
vt 0.949716 0.740514
vt 0.914857 0.740933
vt 0.881096 0.745991
vt 0.815590 0.714464
vt 0.886941 0.678142
vt 0.986657 0.729585
vt 0.919940 0.661156
vt 0.917210 0.631378
vt 0.919940 0.661156
vt 0.975412 0.671777
vt 0.578804 0.712668
vt 0.021058 0.552932
vt 0.626381 0.297961
vt 0.279313 0.060378
vt 0.281031 0.013906
vt 0.408000 0.096318
vt 0.150380 0.014199
vt 0.139730 0.051895
vt 0.076403 0.047539
vt 0.073538 0.012674
vt 0.228873 0.531494
vt 0.225758 0.560112
vt 0.268319 0.562454
vt 0.271228 0.533838
vt 0.075703 0.486047
vt 0.071059 0.491197
vt 0.094455 0.519360
vt 0.096867 0.506617
vt 0.160778 0.528177
vt 0.158844 0.550179
vt 0.228873 0.531494
vt 0.299008 0.562275
vt 0.015072 0.056686
vt 0.036966 0.015639
vt 0.075339 0.477740
vt 0.068297 0.473240
vt 0.160778 0.528177
vt 0.833690 0.008700
vt 0.837031 0.024164
vt 0.908430 0.012975
vt 0.524568 0.900804
vt 0.466131 0.893914
vt 0.918183 0.870334
vt 0.812178 0.881248
vt 0.524920 0.794198
vt 0.592476 0.786964
vt 0.589842 0.899712
vt 0.461656 0.794640
vt 0.486536 0.657806
vt 0.578926 0.648123
vt 0.701799 0.646342
vt 0.979841 0.864405
vt 0.697850 0.892242
vt 0.702939 0.782236
vt 0.814819 0.776844
vt 0.915005 0.780841
vt 0.983923 0.776014
vt 0.814927 0.647765
vt 0.702286 0.715459
vt 0.815590 0.714464
vt 0.754023 0.452168
vt 0.923146 0.459842
vt 0.614993 0.455296
vt 0.600771 0.409693
vt 0.461602 0.441931
vt 0.467479 0.478999
vt 0.982254 0.500598
vt 0.918637 0.386315
vt 0.982078 0.386262
vt 0.975151 0.348618
vt 0.972999 0.425147
vt 0.743842 0.391919
vt 0.470728 0.527446
vt 0.630387 0.522018
vt 0.394172 0.522035
vt 0.398066 0.481193
vt 0.319797 0.470278
vt 0.318400 0.507121
vt 0.398823 0.436794
vt 0.318062 0.429001
vt 0.196402 0.460821
vt 0.195831 0.485623
vt 0.191925 0.430601
vt 0.074799 0.455290
vt 0.031712 0.464292
vt 0.036583 0.468583
vt 0.074233 0.465953
vt 0.633902 0.013318
vt 0.528756 0.009437
vt 0.536496 0.080378
vt 0.917210 0.631378
vt 0.977874 0.627126
vt 0.072135 0.439197
vt 0.032769 0.458354
vt 0.532420 0.213870
vt 0.218240 0.886867
vt 0.185421 0.872651
vt 0.219757 0.860915
vt 0.234135 0.821251
vt 0.194364 0.837961
vt 0.252286 0.851516
vt 0.047799 0.578029
vt 0.071252 0.596527
vt 0.055789 0.613059
vt 0.030297 0.581777
vt 0.126458 0.636492
vt 0.191208 0.673368
vt 0.033636 0.920911
vt 0.056475 0.924746
vt 0.020632 0.902732
vt 0.096982 0.889739
vt 0.094793 0.857920
vt 0.132514 0.840371
vt 0.136398 0.880079
vt 0.058251 0.903392
vt 0.048387 0.878713
vt 0.267320 0.897964
vt 0.217945 0.908746
vt 0.416623 0.888864
vt 0.341744 0.886995
vt 0.177537 0.813236
vt 0.239595 0.763347
vt 0.136452 0.914736
vt 0.177015 0.908167
vt 0.256378 0.686618
vt 0.415643 0.788238
vt 0.328540 0.783548
vt 0.494192 0.724156
vt 0.455016 0.746039
vt 0.415628 0.674731
vt 0.096457 0.919058
vt 0.104607 0.663457
vt 0.595403 0.282788
vt 0.590373 0.301533
vt 0.603426 0.258654
vt 0.599173 0.269403
vt 0.614029 0.239888
vt 0.608654 0.246460
vt 0.642761 0.242812
vt 0.647828 0.255506
vt 0.655498 0.273925
vt 0.657261 0.292135
vt 0.636512 0.232590
vt 0.339281 0.679778
vt 0.427235 0.329576
vt 0.451477 0.309084
vt 0.424931 0.298303
vt 0.444353 0.281717
vt 0.415856 0.280386
vt 0.394824 0.303143
vt 0.037981 0.848961
vt 0.038297 0.690477
vt 0.200971 0.763203
vt 0.037988 0.848966
vt 0.038296 0.690512
vt 0.200974 0.763206
vt 0.037986 0.848960
vt 0.200976 0.763208
vt 0.037979 0.848969
vt 0.038300 0.690486
vt 0.200979 0.763199
vt 0.037978 0.848969
vt 0.038290 0.690436
vt 0.200957 0.763203
vt 0.037990 0.848965
vt 0.038300 0.690479
vt 0.200957 0.763200
vt 0.037985 0.848968
vt 0.038298 0.690480
vt 0.200961 0.763212
vt 0.037988 0.848965
vt 0.038300 0.690466
vt 0.200962 0.763202
vt 0.037989 0.848965
vt 0.038301 0.690455
vt 0.200955 0.763196
vt 0.037987 0.848966
vt 0.038299 0.690465
vt 0.200951 0.763197
vt 0.038302 0.690504
vt 0.038000 0.848964
vt 0.200942 0.763214
vt 0.038302 0.690504
vt 0.038000 0.848964
vt 0.200942 0.763214
vt 0.038302 0.690504
vt 0.038000 0.848964
vt 0.200942 0.763214
vt 0.038302 0.690504
vt 0.038000 0.848964
vt 0.200943 0.763213
vt 0.038302 0.690504
vt 0.038000 0.848964
vt 0.200943 0.763213
vt 0.038302 0.690504
vt 0.038000 0.848964
vt 0.200943 0.763213
vt 0.038302 0.690504
vt 0.038000 0.848964
vt 0.200942 0.763214
vt 0.038302 0.690504
vt 0.038000 0.848964
vt 0.200942 0.763214
vt 0.038302 0.690504
vt 0.038000 0.848964
vt 0.200942 0.763214
vt 0.037983 0.848965
vt 0.038302 0.690469
vt 0.200952 0.763207
vt 0.037982 0.848968
vt 0.038301 0.690485
vt 0.200946 0.763219
vt 0.038000 0.848964
vt 0.200943 0.763213
vt 0.038302 0.690504
vt 0.038000 0.848964
vt 0.200942 0.763214
vt 0.419214 0.017158
vt 0.305649 0.319540
vt 0.312791 0.270080
vt 0.259427 0.264897
vt 0.252590 0.317036
vt 0.155086 0.261108
vt 0.133928 0.321365
vt 0.258469 0.243065
vt 0.308741 0.240029
vt 0.158175 0.251132
vt 0.307288 0.207438
vt 0.349158 0.240647
vt 0.350896 0.203420
vt 0.255451 0.362055
vt 0.171275 0.381526
vt 0.175766 0.401450
vt 0.260643 0.383239
vt 0.237345 0.110718
vt 0.149547 0.100963
vt 0.145131 0.130037
vt 0.235940 0.134355
vt 0.337118 0.321760
vt 0.296970 0.365883
vt 0.326607 0.383304
vt 0.250791 0.214344
vt 0.155188 0.228295
vt 0.086156 0.367746
vt 0.076853 0.388377
vt 0.352775 0.273832
vt 0.045060 0.329760
vt 0.020263 0.333066
vt 0.290152 0.387502
vt 0.286478 0.124529
vt 0.264383 0.101940
vt 0.053079 0.126467
vt 0.067494 0.156229
vt 0.005549 0.187753
vt 0.034505 0.185751
vt 0.075142 0.224888
vt 0.327477 0.094879
vt 0.283433 0.070910
vt 0.323587 0.410201
vt 0.066803 0.256112
vt 0.077242 0.281516
vt 0.573427 0.759994
vt 0.525001 0.768819
vt 0.490563 0.769910
vt 0.481327 0.749578
vt 0.455016 0.746039
vt 0.587869 0.746469
vt 0.169820 0.716640
vt 0.578926 0.648123
vt 0.578804 0.712668
vt 0.879545 0.111257
vt 0.896562 0.154593
vt 0.842920 0.165057
vt 0.830890 0.117420
vt 0.794884 0.172366
vt 0.778597 0.122858
vt 0.841173 0.186398
vt 0.901795 0.184518
vt 0.791211 0.184379
vt 0.893636 0.216987
vt 0.990562 0.179077
vt 0.929876 0.233871
vt 0.830681 0.079620
vt 0.784507 0.070447
vt 0.786650 0.053697
vt 0.830491 0.061066
vt 0.824827 0.303226
vt 0.783680 0.314209
vt 0.779364 0.289933
vt 0.823310 0.284854
vt 0.905714 0.103621
vt 0.870709 0.076304
vt 0.901864 0.076494
vt 0.831473 0.210557
vt 0.784822 0.201407
vt 0.733795 0.088621
vt 0.726425 0.071574
vt 0.921723 0.138830
vt 0.710062 0.119014
vt 0.691253 0.119435
vt 0.866996 0.048696
vt 0.873010 0.282604
vt 0.865020 0.308314
vt 0.719875 0.299977
vt 0.728814 0.274361
vt 0.681399 0.247747
vt 0.703809 0.250904
vt 0.732845 0.213178
vt 0.916522 0.282548
vt 0.920203 0.311825
vt 0.894227 0.043249
vt 0.730816 0.180678
vt 0.739509 0.158958
vt 0.949716 0.740514
vt 0.914857 0.740933
vt 0.881096 0.745991
vt 0.815590 0.714464
vt 0.886941 0.678142
vt 0.986657 0.729585
vt 0.919940 0.661156
vt 0.917210 0.631378
vt 0.975412 0.671777
vt 0.919940 0.661156
vt 0.578804 0.712668
vt 0.281031 0.013906
vt 0.150380 0.014199
vt 0.073538 0.012674
vt 0.228873 0.531494
vt 0.271228 0.533838
vt 0.075703 0.486047
vt 0.096867 0.506617
vt 0.160778 0.528177
vt 0.228873 0.531494
vt 0.036966 0.015639
vt 0.075339 0.477740
vt 0.160778 0.528177
vt 0.833690 0.008700
vn -0.73911 0.67191 -0.04738
vn -0.73507 0.66989 -0.10454
vn -0.00000 0.99491 -0.10079
vn 0.00000 0.99730 -0.07337
vn -0.83998 0.52505 0.13699
vn -0.78232 0.61956 0.06425
vn -0.00000 0.99755 0.06998
vn -0.00000 0.99495 0.10034
vn -0.71954 0.69394 0.02666
vn -0.92088 0.37883 0.09203
vn -0.83572 0.54664 -0.05250
vn -0.93200 0.30890 -0.18962
vn -0.56853 -0.80031 -0.19045
vn -0.57874 -0.81463 0.03793
vn 0.00000 -0.99998 -0.00559
vn 0.00000 -0.98942 -0.14507
vn -0.63456 -0.76066 0.13688
vn 0.00000 -0.99074 0.13580
vn 0.00000 0.97721 0.21228
vn -0.85717 0.47525 0.19846
vn -0.83461 0.54379 0.08783
vn 0.00000 0.99822 0.05969
vn -0.97060 0.21138 0.11509
vn -0.96852 0.15330 0.19613
vn -0.98423 0.14271 0.10454
vn -0.96037 0.07222 0.26919
vn -0.55087 -0.81142 0.19531
vn 0.00000 -0.97930 0.20243
vn -0.95374 -0.29015 -0.07866
vn -0.93794 -0.29527 0.18191
vn -0.97322 0.19798 0.11686
vn -0.97393 0.06065 0.21857
vn -0.00000 0.95266 0.30403
vn 0.00000 0.97020 0.24231
vn -0.99317 0.09075 0.07338
vn -0.98480 0.13980 0.10306
vn -0.83194 -0.55203 -0.05606
vn -0.78850 -0.61504 -0.00067
vn -0.85717 0.47525 0.19846
vn 0.00000 0.97721 0.21228
vn -0.73300 -0.65182 0.19453
vn -0.50800 -0.82693 0.24110
vn -0.74503 -0.50928 0.43076
vn -0.96037 0.07222 0.26919
vn -0.00000 -0.98447 0.17555
vn -0.00000 -0.97983 0.19984
vn -0.84609 -0.53078 0.04909
vn 0.00000 -1.00000 0.00192
vn -0.85217 0.50713 0.12894
vn -0.88699 0.44081 0.13762
vn -0.92393 0.31823 0.21231
vn -0.95876 0.17886 0.22089
vn -0.99573 0.00755 0.09198
vn -0.99818 -0.05442 0.02614
vn -0.97380 -0.19908 -0.10991
vn -0.87201 -0.46503 -0.15280
vn -0.99514 -0.00049 0.09844
vn -0.93994 0.20620 0.27202
vn -0.95534 -0.27547 -0.10700
vn -0.99263 -0.07046 0.09858
vn -0.86571 0.36671 0.34070
vn -0.97397 0.10834 0.19909
vn -0.94952 -0.31290 0.02259
vn 0.00000 0.99692 -0.07843
vn -0.99929 0.02753 0.02565
vn -0.99682 0.06886 0.04006
vn -0.98803 0.15151 0.02908
vn -0.46572 -0.85271 0.23664
vn -0.50800 -0.82693 0.24110
vn -0.00000 -0.97983 0.19984
vn -0.00000 -0.97370 0.22781
vn -0.97413 -0.22595 0.00452
vn -0.92276 -0.37789 -0.07555
vn 0.00000 -0.99902 -0.04417
vn 0.00000 -0.98493 -0.17298
vn 0.00000 0.99990 -0.01404
vn -0.99784 0.04896 0.04384
vn -0.00000 0.92613 -0.37721
vn 0.00000 0.72162 0.69228
vn -0.86961 0.46680 -0.16087
vn -0.92883 0.35964 -0.08902
vn -0.84361 0.48127 -0.23813
vn -0.91463 0.33931 -0.21982
vn -0.92900 0.30388 -0.21122
vn -0.86651 0.42962 -0.25412
vn -0.62214 -0.60171 -0.50088
vn -0.63053 -0.41739 -0.65438
vn -0.90352 -0.17501 -0.39119
vn -0.67859 -0.63528 -0.36870
vn -0.58407 -0.71301 -0.38791
vn -0.70570 -0.58057 -0.40611
vn -0.00000 -0.94766 -0.31928
vn 0.00000 -0.95709 -0.28979
vn -0.56325 0.46784 -0.68108
vn -0.00000 0.59760 -0.80180
vn 0.00000 0.82769 -0.56119
vn -0.46089 0.76027 -0.45780
vn -0.60586 0.38815 -0.69446
vn -0.00000 0.39249 -0.91976
vn -0.79210 0.50982 -0.33565
vn -0.80070 0.41757 -0.42955
vn -0.90306 0.27499 -0.32994
vn -0.87098 0.36772 -0.32585
vn -0.78812 0.32432 -0.52315
vn -0.68989 0.53219 -0.49073
vn -0.56464 0.79428 -0.22429
vn -0.61556 0.76205 -0.20092
vn 0.00000 0.95489 -0.29697
vn 0.00000 0.96316 -0.26892
vn -0.67183 0.72622 -0.14575
vn -0.71526 0.67374 -0.18567
vn -0.00000 0.98164 -0.19073
vn 0.00000 0.98956 -0.14410
vn -0.98182 -0.08166 -0.17133
vn -0.97603 0.07680 -0.20364
vn -0.00000 0.88307 -0.46923
vn -0.47002 0.80182 -0.36901
vn -0.49417 0.72168 -0.48474
vn -0.00000 0.87284 -0.48800
vn -0.65821 -0.70871 -0.25394
vn 0.00000 -0.96384 -0.26647
vn -0.97651 0.13036 -0.17157
vn -0.97587 0.16375 -0.14442
vn -0.62297 -0.74695 -0.23234
vn -0.90925 -0.17496 -0.37771
vn -0.69885 -0.64060 -0.31819
vn -0.45325 0.79571 -0.40176
vn -0.89828 -0.16955 -0.40540
vn -0.00000 0.92199 -0.38722
vn 0.00000 -0.95934 -0.28224
vn 0.00000 -0.73999 -0.67262
vn 0.13948 -0.98635 -0.08748
vn 0.35270 0.34521 -0.86973
vn -0.00000 -0.80717 -0.59031
vn -0.00000 -0.99886 -0.04783
vn 0.12859 -0.99025 0.05358
vn 0.12274 -0.99243 0.00332
vn -0.00000 -0.99988 0.01553
vn 0.00000 -0.99763 0.06877
vn 0.16160 -0.98335 0.08316
vn 0.14118 -0.98532 0.09599
vn -0.00000 -0.99642 0.08449
vn 0.00000 -0.99727 0.07389
vn 0.28302 0.95570 0.08081
vn 0.00000 0.99345 0.11424
vn 0.00000 0.99955 0.02992
vn 0.22171 0.97296 0.06480
vn 0.00000 0.99923 0.03926
vn 0.16522 0.98506 0.04848
vn -0.00000 0.93515 -0.35425
vn 0.35270 0.34521 -0.86973
vn 0.28232 0.94727 0.15157
vn -0.00000 0.98614 0.16590
vn 0.00000 -0.97613 -0.21717
vn 0.00000 -0.97363 -0.22812
vn -0.74531 -0.63903 -0.19014
vn -0.79423 0.60004 -0.09562
vn -0.93173 0.34754 -0.10531
vn -0.84915 0.43217 -0.30360
vn -0.96141 0.13255 -0.24109
vn -0.99418 0.10156 0.03599
vn -0.90605 0.41221 0.09567
vn -0.81030 -0.20013 -0.55079
vn -0.81030 -0.20013 -0.55079
vn -0.81030 -0.20013 -0.55079
vn -0.72463 -0.09475 -0.68259
vn -0.72463 -0.09475 -0.68259
vn -0.72463 -0.09475 -0.68259
vn -0.60719 0.08682 -0.78980
vn -0.64472 -0.04475 -0.76311
vn 0.00000 0.10927 -0.99401
vn 0.00000 0.26111 -0.96531
vn -0.97596 -0.17124 -0.13479
vn -0.97596 -0.17124 -0.13479
vn -0.97596 -0.17124 -0.13479
vn -0.97328 -0.15891 -0.16575
vn -0.97328 -0.15891 -0.16575
vn -0.97328 -0.15891 -0.16575
vn -0.97313 -0.06948 -0.21952
vn -0.97313 -0.06948 -0.21952
vn -0.97313 -0.06948 -0.21952
vn -0.96510 0.00692 -0.26180
vn -0.96510 0.00692 -0.26180
vn -0.96510 0.00692 -0.26180
vn -0.95047 -0.21053 -0.22867
vn -0.95047 -0.21053 -0.22867
vn -0.95047 -0.21053 -0.22867
vn -0.94805 -0.21153 -0.23760
vn -0.94805 -0.21153 -0.23760
vn -0.94805 -0.21153 -0.23760
vn -0.96694 -0.20467 -0.15209
vn -0.96694 -0.20467 -0.15209
vn -0.96694 -0.20467 -0.15209
vn -0.94729 0.12887 -0.29331
vn -0.94729 0.12887 -0.29331
vn -0.94729 0.12887 -0.29331
vn -0.95371 0.05674 -0.29532
vn -0.95371 0.05674 -0.29532
vn -0.95371 0.05674 -0.29532
vn -0.95092 0.09961 -0.29296
vn -0.95092 0.09961 -0.29296
vn -0.95092 0.09961 -0.29296
vn -0.95138 -0.04751 -0.30435
vn -0.95138 -0.04751 -0.30435
vn -0.95138 -0.04751 -0.30435
vn -0.98188 -0.12866 -0.13913
vn -0.98188 -0.12866 -0.13913
vn -0.98188 -0.12866 -0.13913
vn -0.89004 -0.05466 -0.45260
vn -0.89004 -0.05466 -0.45260
vn -0.89004 -0.05466 -0.45260
vn -0.96174 0.08226 -0.26132
vn -0.96174 0.08226 -0.26132
vn -0.96174 0.08226 -0.26132
vn -0.92865 0.03138 -0.36963
vn -0.92865 0.03138 -0.36963
vn -0.92865 0.03138 -0.36963
vn -0.92876 -0.04907 -0.36741
vn -0.92876 -0.04907 -0.36741
vn -0.92876 -0.04907 -0.36741
vn -0.96790 -0.19894 -0.15357
vn -0.96790 -0.19894 -0.15357
vn -0.96790 -0.19894 -0.15357
vn -0.96754 -0.08477 -0.23807
vn -0.96754 -0.08477 -0.23807
vn -0.96754 -0.08477 -0.23807
vn -0.52423 -0.00566 -0.85155
vn 0.00000 -0.00651 -0.99998
vn 0.00000 -0.00665 -0.99998
vn -0.52417 -0.00578 -0.85160
vn -0.89372 0.01252 -0.44845
vn -0.89372 0.01252 -0.44845
vn -0.89372 0.01252 -0.44845
vn 0.00000 0.11478 0.99339
vn -0.97376 0.12384 0.19092
vn -0.00000 -0.40475 0.91443
vn -0.21816 0.97544 -0.03037
vn -0.06790 0.99670 0.04449
vn -0.06694 0.92263 -0.37983
vn -0.04556 0.80925 -0.58569
vn -0.03411 0.99893 0.03137
vn -0.15772 0.93286 -0.32389
vn -0.00756 -0.11186 -0.99369
vn 0.08422 -0.07899 -0.99331
vn -0.24340 -0.16081 -0.95650
vn -0.17450 -0.89823 -0.40341
vn -0.69885 -0.64060 -0.31819
vn -0.56079 0.06350 -0.82552
vn 0.06389 0.90733 0.41553
vn 0.20259 -0.39164 0.89754
vn 0.28754 0.20771 0.93497
vn 0.06406 0.92163 0.38274
vn 0.20259 -0.39164 0.89754
vn -0.03816 -0.96587 0.25619
vn 0.04741 -0.97416 0.22084
vn 0.28754 0.20771 0.93497
vn -0.50412 0.86336 0.02180
vn -0.66302 0.64716 0.37628
vn -0.24725 0.89714 0.36607
vn -0.07160 -0.97285 -0.22008
vn -0.08098 -0.98312 -0.16407
vn -0.21191 -0.35155 0.91187
vn -0.14973 0.92556 0.34773
vn -0.58037 0.72086 -0.37885
vn -0.86243 0.44312 0.24465
vn -0.30082 0.94960 0.08814
vn -0.42558 0.06751 0.90240
vn -0.42558 0.06751 0.90240
vn -0.40989 -0.88199 0.23256
vn -0.03825 -0.98525 0.16679
vn -0.21191 -0.35155 0.91187
vn -0.29369 -0.95206 0.08560
vn -0.86243 0.44312 0.24465
vn -0.13720 -0.98433 -0.11080
vn -0.79772 -0.55741 0.23008
vn -0.90388 0.11613 0.41172
vn -0.90388 0.11613 0.41172
vn -0.37156 0.90231 -0.21858
vn -0.72602 -0.33830 -0.59870
vn -0.66302 0.64716 0.37628
vn -0.50412 0.86336 0.02180
vn -0.58037 0.72086 -0.37885
vn -0.56079 0.06350 -0.82552
vn -0.90925 -0.17496 -0.37771
vn -0.90388 0.11613 0.41172
vn -0.89975 -0.30333 -0.31376
vn -0.79772 -0.55741 0.23008
vn -0.57874 -0.81463 0.03793
vn -0.52525 0.84677 0.08426
vn -0.13458 0.99044 0.03030
vn -0.25142 0.93293 -0.25774
vn -0.58488 0.76403 -0.27236
vn -0.16090 0.98585 0.04704
vn -0.33280 0.91800 -0.21569
vn -0.33173 -0.06718 -0.94098
vn -0.74395 -0.15147 -0.65084
vn -0.51447 -0.10838 -0.85063
vn -0.16629 -0.96876 -0.18397
vn -0.49189 -0.86817 0.06577
vn -0.95374 -0.29015 -0.07866
vn 0.10516 0.95183 0.28804
vn 0.59416 -0.30668 0.74359
vn 0.58163 0.31723 0.74905
vn 0.05152 0.94244 0.33038
vn 0.59416 -0.30668 0.74359
vn 0.21227 -0.95922 0.18665
vn 0.25478 -0.94968 0.18222
vn 0.58163 0.31723 0.74905
vn -0.89051 0.37912 0.25152
vn -0.85691 0.20194 0.47426
vn -0.40701 0.80797 0.42607
vn 0.03283 -0.97542 -0.21789
vn 0.00061 -0.98755 -0.15731
vn 0.12329 -0.32398 0.93800
vn -0.14714 0.91555 0.37432
vn -0.94673 0.31940 -0.04107
vn -0.70266 0.45761 0.54485
vn -0.34410 0.92230 0.17597
vn -0.24575 -0.04964 0.96806
vn -0.24575 -0.04964 0.96806
vn -0.05581 -0.96524 0.25534
vn 0.14672 -0.97427 0.17108
vn 0.12329 -0.32398 0.93800
vn -0.09429 -0.97807 0.18570
vn -0.70266 0.45761 0.54485
vn -0.01539 -0.99834 -0.05545
vn -0.74503 -0.50928 0.43076
vn -0.36892 -0.88798 0.27458
vn -0.74503 -0.50928 0.43076
vn -0.46191 0.88440 -0.06682
vn -0.83928 -0.42572 -0.33819
vn -0.85691 0.20194 0.47426
vn -0.89051 0.37912 0.25152
vn -0.94673 0.31940 -0.04107
vn -0.95374 -0.29015 -0.07866
vn -0.49189 -0.86817 0.06577
vn -0.74503 -0.50928 0.43076
vn -0.36892 -0.88798 0.27458
vn -0.46572 -0.85271 0.23664
vn -0.36892 -0.88798 0.27458
vn -0.74503 -0.50928 0.43076
vn -0.79772 -0.55741 0.23008
vn 0.00000 -0.60456 -0.79656
vn -0.00000 -0.80717 -0.59031
vn 0.00000 0.47963 0.87747
vn -0.92783 0.21638 0.30382
vn 0.00000 0.11478 0.99339
vn -0.88858 0.35162 0.29461
vn -0.00000 0.68061 0.73265
vn -0.00000 0.68551 0.72806
vn -0.95622 0.08542 0.27990
vn -0.84101 -0.44452 -0.30838
vn -0.00000 -0.84957 -0.52748
vn -0.00000 -0.78592 -0.61832
vn -0.87411 -0.37873 -0.30412
vn -0.94671 -0.32052 -0.03164
vn 0.00000 -0.98438 0.17606
vn 0.00000 -0.96597 -0.25866
vn -0.89777 -0.41696 -0.14198
vn -0.87686 -0.42641 -0.22204
vn 0.00000 -0.89069 -0.45460
vn -0.84101 -0.44452 -0.30838
vn 0.00000 -0.81300 -0.58227
vn 0.00000 -0.46908 0.88315
vn -0.96542 -0.22732 0.12763
vn -0.96542 -0.22732 0.12763
vn 0.00000 -0.46908 0.88315
vn -0.87686 -0.42641 -0.22204
vn -0.96507 0.26026 0.03009
vn 0.00000 0.99365 0.11248
vn 0.00000 0.97886 0.20453
vn 0.73911 0.67191 -0.04738
vn 0.73507 0.66989 -0.10454
vn 0.83998 0.52505 0.13699
vn 0.78232 0.61956 0.06425
vn 0.83572 0.54664 -0.05250
vn 0.92088 0.37883 0.09203
vn 0.71954 0.69394 0.02666
vn 0.93200 0.30890 -0.18962
vn 0.56853 -0.80031 -0.19045
vn 0.57874 -0.81463 0.03793
vn 0.63456 -0.76066 0.13688
vn 0.85717 0.47525 0.19846
vn 0.83461 0.54379 0.08783
vn 0.97060 0.21138 0.11509
vn 0.98423 0.14271 0.10454
vn 0.96852 0.15330 0.19613
vn 0.96037 0.07222 0.26919
vn 0.55087 -0.81142 0.19531
vn 0.93794 -0.29527 0.18191
vn 0.95374 -0.29015 -0.07866
vn 0.97322 0.19798 0.11686
vn 0.97393 0.06065 0.21857
vn 0.99317 0.09075 0.07338
vn 0.78850 -0.61504 -0.00067
vn 0.83194 -0.55203 -0.05606
vn 0.98480 0.13980 0.10306
vn 0.85717 0.47525 0.19846
vn 0.73300 -0.65182 0.19453
vn 0.74503 -0.50928 0.43076
vn 0.50800 -0.82693 0.24110
vn 0.96037 0.07222 0.26919
vn 0.84609 -0.53078 0.04909
vn 0.88699 0.44081 0.13762
vn 0.85217 0.50713 0.12894
vn 0.92393 0.31823 0.21231
vn 0.99818 -0.05442 0.02614
vn 0.99573 0.00755 0.09198
vn 0.95876 0.17886 0.22089
vn 0.87201 -0.46503 -0.15280
vn 0.97380 -0.19908 -0.10991
vn 0.99514 -0.00049 0.09844
vn 0.93994 0.20620 0.27202
vn 0.95534 -0.27547 -0.10700
vn 0.99263 -0.07046 0.09858
vn 0.94952 -0.31290 0.02259
vn 0.97397 0.10834 0.19909
vn 0.86571 0.36671 0.34070
vn 0.98803 0.15151 0.02908
vn 0.99682 0.06886 0.04006
vn 0.99929 0.02753 0.02565
vn 0.46572 -0.85271 0.23664
vn 0.50800 -0.82693 0.24110
vn 0.92276 -0.37789 -0.07555
vn 0.97413 -0.22595 0.00452
vn 0.99784 0.04896 0.04384
vn 0.86961 0.46680 -0.16087
vn 0.84361 0.48127 -0.23813
vn 0.92883 0.35964 -0.08902
vn 0.91463 0.33931 -0.21982
vn 0.92900 0.30388 -0.21122
vn 0.86651 0.42962 -0.25412
vn 0.62214 -0.60171 -0.50088
vn 0.67859 -0.63528 -0.36870
vn 0.90352 -0.17501 -0.39119
vn 0.63053 -0.41739 -0.65438
vn 0.58407 -0.71301 -0.38791
vn 0.70570 -0.58057 -0.40611
vn 0.56325 0.46784 -0.68108
vn 0.46089 0.76027 -0.45780
vn 0.60586 0.38815 -0.69446
vn 0.79210 0.50982 -0.33565
vn 0.87098 0.36772 -0.32585
vn 0.90306 0.27499 -0.32994
vn 0.80070 0.41757 -0.42955
vn 0.68989 0.53219 -0.49073
vn 0.78812 0.32432 -0.52315
vn 0.56464 0.79428 -0.22429
vn 0.61556 0.76205 -0.20092
vn 0.67183 0.72622 -0.14575
vn 0.71526 0.67374 -0.18567
vn 0.97603 0.07680 -0.20364
vn 0.98182 -0.08166 -0.17133
vn 0.49417 0.72168 -0.48474
vn 0.47002 0.80182 -0.36901
vn 0.65821 -0.70871 -0.25394
vn 0.97651 0.13036 -0.17157
vn 0.97587 0.16375 -0.14442
vn 0.69885 -0.64060 -0.31819
vn 0.90925 -0.17496 -0.37771
vn 0.62297 -0.74695 -0.23234
vn 0.45325 0.79571 -0.40176
vn 0.89828 -0.16955 -0.40540
vn -0.13948 -0.98635 -0.08748
vn -0.35270 0.34521 -0.86973
vn -0.12859 -0.99025 0.05358
vn -0.12274 -0.99243 0.00332
vn -0.16160 -0.98335 0.08316
vn -0.14118 -0.98532 0.09599
vn -0.28302 0.95570 0.08081
vn -0.22171 0.97296 0.06480
vn -0.16522 0.98506 0.04848
vn -0.35270 0.34521 -0.86973
vn -0.28232 0.94727 0.15157
vn 0.74531 -0.63903 -0.19014
vn 0.79423 0.60004 -0.09562
vn 0.84915 0.43217 -0.30360
vn 0.93173 0.34754 -0.10531
vn 0.96141 0.13255 -0.24109
vn 0.99418 0.10156 0.03599
vn 0.90605 0.41221 0.09567
vn 0.81030 -0.20013 -0.55079
vn 0.81030 -0.20013 -0.55079
vn 0.81030 -0.20013 -0.55079
vn 0.72463 -0.09475 -0.68259
vn 0.72463 -0.09475 -0.68259
vn 0.72463 -0.09475 -0.68259
vn 0.60719 0.08682 -0.78980
vn 0.64472 -0.04475 -0.76311
vn 0.97596 -0.17124 -0.13479
vn 0.97596 -0.17124 -0.13479
vn 0.97596 -0.17124 -0.13479
vn 0.97328 -0.15891 -0.16575
vn 0.97328 -0.15891 -0.16575
vn 0.97328 -0.15891 -0.16575
vn 0.97313 -0.06948 -0.21952
vn 0.97313 -0.06948 -0.21952
vn 0.97313 -0.06948 -0.21952
vn 0.96510 0.00692 -0.26180
vn 0.96510 0.00692 -0.26180
vn 0.96510 0.00692 -0.26180
vn 0.95047 -0.21053 -0.22867
vn 0.95047 -0.21053 -0.22867
vn 0.95047 -0.21053 -0.22867
vn 0.94805 -0.21153 -0.23760
vn 0.94805 -0.21153 -0.23760
vn 0.94805 -0.21153 -0.23760
vn 0.96694 -0.20467 -0.15209
vn 0.96694 -0.20467 -0.15209
vn 0.96694 -0.20467 -0.15209
vn 0.94729 0.12887 -0.29331
vn 0.94729 0.12887 -0.29331
vn 0.94729 0.12887 -0.29331
vn 0.95371 0.05674 -0.29532
vn 0.95371 0.05674 -0.29532
vn 0.95371 0.05674 -0.29532
vn 0.95092 0.09961 -0.29296
vn 0.95092 0.09961 -0.29296
vn 0.95092 0.09961 -0.29296
vn 0.95138 -0.04751 -0.30435
vn 0.95138 -0.04751 -0.30435
vn 0.95138 -0.04751 -0.30435
vn 0.98188 -0.12866 -0.13913
vn 0.98188 -0.12866 -0.13913
vn 0.98188 -0.12866 -0.13913
vn 0.89004 -0.05466 -0.45260
vn 0.89004 -0.05466 -0.45260
vn 0.89004 -0.05466 -0.45260
vn 0.96174 0.08226 -0.26132
vn 0.96174 0.08226 -0.26132
vn 0.96174 0.08226 -0.26132
vn 0.92865 0.03138 -0.36963
vn 0.92865 0.03138 -0.36963
vn 0.92865 0.03138 -0.36963
vn 0.92876 -0.04907 -0.36741
vn 0.92876 -0.04907 -0.36741
vn 0.92876 -0.04907 -0.36741
vn 0.96790 -0.19894 -0.15357
vn 0.96790 -0.19894 -0.15357
vn 0.96790 -0.19894 -0.15357
vn 0.96754 -0.08477 -0.23807
vn 0.96754 -0.08477 -0.23807
vn 0.96754 -0.08477 -0.23807
vn 0.52423 -0.00566 -0.85155
vn 0.52417 -0.00578 -0.85160
vn 0.89372 0.01252 -0.44845
vn 0.89372 0.01252 -0.44845
vn 0.89372 0.01252 -0.44845
vn 0.97376 0.12384 0.19092
vn 0.21816 0.97544 -0.03037
vn 0.04556 0.80925 -0.58569
vn 0.06694 0.92263 -0.37983
vn 0.06790 0.99670 0.04449
vn 0.15772 0.93286 -0.32389
vn 0.03411 0.99893 0.03137
vn 0.00756 -0.11186 -0.99369
vn -0.08422 -0.07899 -0.99331
vn 0.24340 -0.16081 -0.95650
vn 0.17450 -0.89823 -0.40341
vn 0.56079 0.06350 -0.82552
vn 0.69885 -0.64060 -0.31819
vn -0.06389 0.90733 0.41553
vn -0.06406 0.92163 0.38274
vn -0.28754 0.20771 0.93497
vn -0.20259 -0.39164 0.89754
vn -0.20259 -0.39164 0.89754
vn -0.28754 0.20771 0.93497
vn -0.04740 -0.97416 0.22084
vn 0.03816 -0.96587 0.25619
vn 0.50412 0.86336 0.02180
vn 0.24725 0.89714 0.36607
vn 0.66302 0.64716 0.37628
vn 0.07160 -0.97285 -0.22008
vn 0.08098 -0.98312 -0.16407
vn 0.14973 0.92556 0.34773
vn 0.21191 -0.35155 0.91187
vn 0.58037 0.72086 -0.37885
vn 0.30082 0.94960 0.08814
vn 0.86243 0.44312 0.24465
vn 0.42558 0.06751 0.90240
vn 0.40989 -0.88199 0.23256
vn 0.42558 0.06751 0.90240
vn 0.21191 -0.35155 0.91187
vn 0.03825 -0.98525 0.16679
vn 0.86243 0.44312 0.24465
vn 0.29369 -0.95206 0.08560
vn 0.13720 -0.98433 -0.11080
vn 0.79772 -0.55741 0.23008
vn 0.90388 0.11613 0.41172
vn 0.90388 0.11613 0.41172
vn 0.72602 -0.33830 -0.59870
vn 0.37156 0.90231 -0.21858
vn 0.66302 0.64716 0.37628
vn 0.50412 0.86336 0.02180
vn 0.58037 0.72086 -0.37885
vn 0.56079 0.06350 -0.82552
vn 0.90925 -0.17496 -0.37771
vn 0.90388 0.11613 0.41172
vn 0.89975 -0.30333 -0.31376
vn 0.57874 -0.81463 0.03793
vn 0.79772 -0.55741 0.23008
vn 0.52525 0.84677 0.08426
vn 0.58488 0.76403 -0.27236
vn 0.25142 0.93293 -0.25774
vn 0.13458 0.99044 0.03030
vn 0.33280 0.91800 -0.21569
vn 0.16090 0.98585 0.04704
vn 0.33173 -0.06718 -0.94098
vn 0.74395 -0.15147 -0.65084
vn 0.51447 -0.10838 -0.85063
vn 0.16629 -0.96876 -0.18397
vn 0.95374 -0.29015 -0.07866
vn 0.49189 -0.86817 0.06577
vn -0.10516 0.95183 0.28804
vn -0.05152 0.94244 0.33038
vn -0.58163 0.31723 0.74905
vn -0.59416 -0.30668 0.74359
vn -0.59416 -0.30668 0.74359
vn -0.58163 0.31723 0.74905
vn -0.25478 -0.94968 0.18222
vn -0.21227 -0.95922 0.18665
vn 0.89051 0.37912 0.25152
vn 0.40701 0.80797 0.42607
vn 0.85691 0.20194 0.47426
vn -0.03283 -0.97542 -0.21789
vn -0.00061 -0.98755 -0.15731
vn 0.14714 0.91555 0.37432
vn -0.12329 -0.32398 0.93800
vn 0.94673 0.31940 -0.04107
vn 0.34410 0.92230 0.17597
vn 0.70266 0.45761 0.54485
vn 0.24575 -0.04964 0.96806
vn 0.05581 -0.96524 0.25534
vn 0.24575 -0.04964 0.96806
vn -0.12329 -0.32398 0.93800
vn -0.14672 -0.97427 0.17108
vn 0.70266 0.45761 0.54485
vn 0.09429 -0.97807 0.18570
vn 0.01539 -0.99834 -0.05545
vn 0.36892 -0.88798 0.27458
vn 0.74503 -0.50928 0.43076
vn 0.74503 -0.50928 0.43076
vn 0.83928 -0.42572 -0.33819
vn 0.46191 0.88440 -0.06682
vn 0.85691 0.20194 0.47426
vn 0.89051 0.37912 0.25152
vn 0.94673 0.31940 -0.04107
vn 0.95374 -0.29015 -0.07866
vn 0.49189 -0.86817 0.06577
vn 0.74503 -0.50928 0.43076
vn 0.36892 -0.88798 0.27458
vn 0.46572 -0.85271 0.23664
vn 0.74503 -0.50928 0.43076
vn 0.36892 -0.88798 0.27458
vn 0.79772 -0.55741 0.23008
vn 0.92783 0.21638 0.30382
vn 0.88858 0.35162 0.29461
vn 0.95622 0.08542 0.27990
vn 0.84101 -0.44452 -0.30838
vn 0.87411 -0.37873 -0.30412
vn 0.94671 -0.32052 -0.03164
vn 0.89777 -0.41696 -0.14198
vn 0.87686 -0.42641 -0.22204
vn 0.84101 -0.44452 -0.30838
vn 0.96542 -0.22732 0.12763
vn 0.96542 -0.22732 0.12763
vn 0.87686 -0.42641 -0.22204
vn 0.96507 0.26026 0.03009
f 354/354/354 355/355/355 352/352/352
f 352/352/352 353/353/353 354/354/354
f 354/354/354 660/660/660 363/363/363
f 354/354/354 353/353/353 659/659/659
f 659/659/659 660/660/660 354/354/354
f 354/354/354 363/363/363 355/355/355
f 353/353/353 361/361/361 663/663/663
f 663/663/663 664/664/664 353/353/353
f 353/353/353 362/362/362 360/360/360
f 360/360/360 361/361/361 353/353/353
f 361/361/361 358/358/358 662/662/662
f 662/662/662 667/667/667 361/361/361
f 361/361/361 368/368/368 359/359/359
f 145/145/145 144/144/144 152/152/152
f 146/146/146 147/147/147 144/144/144
f 144/144/144 145/145/145 146/146/146
f 145/145/145 153/153/153 474/474/474
f 474/474/474 470/470/470 145/145/145
f 146/146/146 145/145/145 470/470/470
f 152/152/152 153/153/153 145/145/145
f 148/148/148 146/146/146 471/471/471
f 470/470/470 471/471/471 146/146/146
f 147/147/147 146/146/146 148/148/148
f 148/148/148 149/149/149 147/147/147
f 150/150/150 148/148/148 472/472/472
f 471/471/471 472/472/472 148/148/148
f 258/258/258 277/277/277 267/267/267
f 78/78/78 64/64/64 421/421/421
f 64/64/64 370/370/370 668/668/668
f 668/668/668 419/419/419 64/64/64
f 420/420/420 421/421/421 64/64/64
f 64/64/64 419/419/419 420/420/420
f 65/65/65 64/64/64 78/78/78
f 64/64/64 67/67/67 369/369/369
f 369/369/369 370/370/370 64/64/64
f 66/66/66 67/67/67 64/64/64
f 64/64/64 65/65/65 66/66/66
f 421/421/421 426/426/426 78/78/78
f 426/426/426 79/79/79 78/78/78
f 78/78/78 77/77/77 65/65/65
f 139/139/139 466/466/466 469/469/469
f 469/469/469 142/142/142 139/139/139
f 139/139/139 142/142/142 141/141/141
f 140/140/140 141/141/141 142/142/142
f 142/142/142 469/469/469 468/468/468
f 468/468/468 143/143/143 142/142/142
f 142/142/142 143/143/143 140/140/140
f 571/571/571 550/550/550 553/553/553
f 550/550/550 570/570/570 577/577/577
f 577/577/577 551/551/551 550/550/550
f 570/570/570 550/550/550 571/571/571
f 552/552/552 553/553/553 550/550/550
f 550/550/550 551/551/551 552/552/552
f 572/572/572 571/571/571 580/580/580
f 553/553/553 562/562/562 571/571/571
f 580/580/580 571/571/571 562/562/562
f 571/571/571 572/572/572 570/570/570
f 562/562/562 553/553/553 555/555/555
f 554/554/554 555/555/555 553/553/553
f 553/553/553 552/552/552 554/554/554
f 238/238/238 237/237/237 259/259/259
f 237/237/237 240/240/240 264/264/264
f 264/264/264 257/257/257 237/237/237
f 259/259/259 237/237/237 257/257/257
f 239/239/239 240/240/240 237/237/237
f 237/237/237 238/238/238 239/239/239
f 259/259/259 249/249/249 238/238/238
f 241/241/241 238/238/238 249/249/249
f 242/242/242 239/239/239 238/238/238
f 238/238/238 241/241/241 242/242/242
f 267/267/267 259/259/259 258/258/258
f 249/249/249 259/259/259 267/267/267
f 257/257/257 258/258/258 259/259/259
f 587/587/587 584/584/584 586/586/586
f 586/586/586 584/584/584 583/583/583
f 583/583/583 585/585/585 586/586/586
f 583/583/583 584/584/584 568/568/568
f 568/568/568 567/567/567 583/583/583
f 568/568/568 569/569/569 566/566/566
f 566/566/566 567/567/567 568/568/568
f 559/559/559 581/581/581 569/569/569
f 569/569/569 573/573/573 559/559/559
f 582/582/582 566/566/566 569/569/569
f 569/569/569 581/581/581 582/582/582
f 559/559/559 573/573/573 556/556/556
f 581/581/581 559/559/559 561/561/561
f 556/556/556 557/557/557 559/559/559
f 560/560/560 561/561/561 559/559/559
f 559/559/559 557/557/557 560/560/560
f 551/551/551 557/557/557 556/556/556
f 560/560/560 557/557/557 551/551/551
f 551/551/551 577/577/577 560/560/560
f 561/561/561 588/588/588 581/581/581
f 582/582/582 581/581/581 588/588/588
f 588/588/588 589/589/589 582/582/582
f 579/579/579 576/576/576 575/575/575
f 575/575/575 578/578/578 579/579/579
f 576/576/576 564/564/564 563/563/563
f 563/563/563 575/575/575 576/576/576
f 564/564/564 565/565/565 562/562/562
f 562/562/562 563/563/563 564/564/564
f 562/562/562 565/565/565 580/580/580
f 580/580/580 590/590/590 572/572/572
f 137/137/137 132/132/132 135/135/135
f 134/134/134 135/135/135 132/132/132
f 132/132/132 133/133/133 134/134/134
f 135/135/135 138/138/138 137/137/137
f 136/136/136 137/137/137 138/138/138
f 135/135/135 464/464/464 467/467/467
f 467/467/467 138/138/138 135/135/135
f 464/464/464 135/135/135 134/134/134
f 134/134/134 465/465/465 464/464/464
f 138/138/138 467/467/467 466/466/466
f 466/466/466 139/139/139 138/138/138
f 138/138/138 139/139/139 136/136/136
f 141/141/141 136/136/136 139/139/139
f 319/319/319 302/302/302 301/301/301
f 301/301/301 304/304/304 293/293/293
f 303/303/303 304/304/304 301/301/301
f 301/301/301 302/302/302 303/303/303
f 315/315/315 293/293/293 304/304/304
f 330/330/330 293/293/293 318/318/318
f 293/293/293 330/330/330 294/294/294
f 315/315/315 318/318/318 293/293/293
f 331/331/331 297/297/297 294/294/294
f 294/294/294 330/330/330 331/331/331
f 291/291/291 294/294/294 297/297/297
f 317/317/317 331/331/331 330/330/330
f 330/330/330 318/318/318 317/317/317
f 317/317/317 318/318/318 315/315/315
f 315/315/315 314/314/314 317/317/317
f 314/314/314 315/315/315 304/304/304
f 304/304/304 303/303/303 314/314/314
f 297/297/297 295/295/295 291/291/291
f 292/292/292 291/291/291 295/295/295
f 313/313/313 297/297/297 331/331/331
f 312/312/312 295/295/295 297/297/297
f 297/297/297 313/313/313 312/312/312
f 267/267/267 250/250/250 249/249/249
f 249/249/249 252/252/252 241/241/241
f 251/251/251 252/252/252 249/249/249
f 249/249/249 250/250/250 251/251/251
f 263/263/263 241/241/241 252/252/252
f 278/278/278 241/241/241 266/266/266
f 241/241/241 278/278/278 242/242/242
f 263/263/263 266/266/266 241/241/241
f 279/279/279 245/245/245 242/242/242
f 242/242/242 278/278/278 279/279/279
f 239/239/239 242/242/242 245/245/245
f 265/265/265 279/279/279 278/278/278
f 278/278/278 266/266/266 265/265/265
f 265/265/265 266/266/266 263/263/263
f 263/263/263 262/262/262 265/265/265
f 262/262/262 263/263/263 252/252/252
f 252/252/252 251/251/251 262/262/262
f 245/245/245 243/243/243 239/239/239
f 240/240/240 239/239/239 243/243/243
f 261/261/261 245/245/245 279/279/279
f 260/260/260 243/243/243 245/245/245
f 245/245/245 261/261/261 260/260/260
f 290/290/290 289/289/289 311/311/311
f 289/289/289 292/292/292 316/316/316
f 316/316/316 309/309/309 289/289/289
f 311/311/311 289/289/289 309/309/309
f 291/291/291 292/292/292 289/289/289
f 289/289/289 290/290/290 291/291/291
f 311/311/311 301/301/301 290/290/290
f 293/293/293 290/290/290 301/301/301
f 294/294/294 291/291/291 290/290/290
f 290/290/290 293/293/293 294/294/294
f 319/319/319 311/311/311 310/310/310
f 301/301/301 311/311/311 319/319/319
f 309/309/309 310/310/310 311/311/311
f 623/623/623 602/602/602 605/605/605
f 602/602/602 622/622/622 629/629/629
f 629/629/629 603/603/603 602/602/602
f 622/622/622 602/602/602 623/623/623
f 604/604/604 605/605/605 602/602/602
f 602/602/602 603/603/603 604/604/604
f 624/624/624 623/623/623 632/632/632
f 605/605/605 614/614/614 623/623/623
f 632/632/632 623/623/623 614/614/614
f 623/623/623 624/624/624 622/622/622
f 614/614/614 605/605/605 607/607/607
f 606/606/606 607/607/607 605/605/605
f 605/605/605 604/604/604 606/606/606
f 604/604/604 608/608/608 610/610/610
f 610/610/610 606/606/606 604/604/604
f 608/608/608 604/604/604 603/603/603
f 607/607/607 606/606/606 644/644/644
f 643/643/643 644/644/644 606/606/606
f 606/606/606 610/610/610 643/643/643
f 627/627/627 615/615/615 607/607/607
f 644/644/644 630/630/630 607/607/607
f 627/627/627 607/607/607 630/630/630
f 607/607/607 615/615/615 614/614/614
f 631/631/631 630/630/630 644/644/644
f 644/644/644 643/643/643 631/631/631
f 643/643/643 639/639/639 638/638/638
f 638/638/638 637/637/637 643/643/643
f 626/626/626 639/639/639 643/643/643
f 643/643/643 610/610/610 626/626/626
f 625/625/625 626/626/626 610/610/610
f 610/610/610 608/608/608 625/625/625
f 639/639/639 626/626/626 620/620/620
f 621/621/621 620/620/620 626/626/626
f 626/626/626 625/625/625 621/621/621
f 620/620/620 636/636/636 639/639/639
f 298/298/298 296/296/296 295/295/295
f 295/295/295 312/312/312 298/298/298
f 295/295/295 296/296/296 292/292/292
f 292/292/292 296/296/296 300/300/300
f 300/300/300 316/316/316 292/292/292
f 300/300/300 296/296/296 298/298/298
f 299/299/299 298/298/298 321/321/321
f 298/298/298 312/312/312 306/306/306
f 306/306/306 321/321/321 298/298/298
f 298/298/298 299/299/299 300/300/300
f 306/306/306 312/312/312 313/313/313
f 313/313/313 307/307/307 306/306/306
f 320/320/320 321/321/321 306/306/306
f 306/306/306 305/305/305 320/320/320
f 305/305/305 306/306/306 307/307/307
f 321/321/321 328/328/328 299/299/299
f 327/327/327 328/328/328 321/321/321
f 321/321/321 320/320/320 327/327/327
f 307/307/307 308/308/308 305/305/305
f 307/307/307 313/313/313 326/326/326
f 326/326/326 322/322/322 307/307/307
f 323/323/323 308/308/308 307/307/307
f 307/307/307 322/322/322 323/323/323
f 331/331/331 326/326/326 313/313/313
f 324/324/324 326/326/326 331/331/331
f 326/326/326 324/324/324 322/322/322
f 323/323/323 322/322/322 324/324/324
f 324/324/324 325/325/325 323/323/323
f 331/331/331 325/325/325 324/324/324
f 16/16/16 154/154/154 124/124/124
f 380/380/380 16/16/16 15/15/15
f 124/124/124 13/13/13 16/16/16
f 15/15/15 16/16/16 13/13/13
f 459/459/459 380/380/380 600/600/600
f 380/380/380 459/459/459 460/460/460
f 15/15/15 381/381/381 380/380/380
f 381/381/381 15/15/15 18/18/18
f 18/18/18 15/15/15 14/14/14
f 13/13/13 14/14/14 15/15/15
f 288/288/288 13/13/13 126/126/126
f 125/125/125 126/126/126 13/13/13
f 13/13/13 124/124/124 125/125/125
f 126/126/126 287/287/287 288/288/288
f 126/126/126 284/284/284 283/283/283
f 283/283/283 284/284/284 12/12/12
f 12/12/12 282/282/282 283/283/283
f 282/282/282 12/12/12 11/11/11
f 11/11/11 281/281/281 282/282/282
f 11/11/11 10/10/10 280/280/280
f 280/280/280 281/281/281 11/11/11
f 285/285/285 10/10/10 23/23/23
f 285/285/285 280/280/280 10/10/10
f 21/21/21 23/23/23 10/10/10
f 342/342/342 285/285/285 30/30/30
f 23/23/23 30/30/30 285/285/285
f 30/30/30 23/23/23 25/25/25
f 25/25/25 23/23/23 21/21/21
f 342/342/342 30/30/30 17/17/17
f 27/27/27 17/17/17 30/30/30
f 30/30/30 29/29/29 27/27/27
f 25/25/25 29/29/29 30/30/30
f 17/17/17 14/14/14 342/342/342
f 18/18/18 17/17/17 27/27/27
f 14/14/14 17/17/17 18/18/18
f 18/18/18 28/28/28 389/389/389
f 389/389/389 382/382/382 18/18/18
f 18/18/18 382/382/382 381/381/381
f 27/27/27 28/28/28 18/18/18
f 68/68/68 27/27/27 336/336/336
f 335/335/335 336/336/336 27/27/27
f 71/71/71 28/28/28 27/27/27
f 27/27/27 68/68/68 71/71/71
f 389/389/389 28/28/28 71/71/71
f 71/71/71 422/422/422 389/389/389
f 422/422/422 71/71/71 70/70/70
f 5/5/5 8/8/8 19/19/19
f 19/19/19 8/8/8 374/374/374
f 374/374/374 383/383/383 19/19/19
f 374/374/374 387/387/387 388/388/388
f 388/388/388 383/383/383 374/374/374
f 386/386/386 387/387/387 374/374/374
f 647/647/647 646/646/646 387/387/387
f 387/387/387 386/386/386 647/647/647
f 387/387/387 646/646/646 645/645/645
f 645/645/645 388/388/388 387/387/387
f 650/650/650 388/388/388 645/645/645
f 647/647/647 386/386/386 648/648/648
f 390/390/390 391/391/391 386/386/386
f 386/386/386 385/385/385 390/390/390
f 655/655/655 390/390/390 598/598/598
f 382/382/382 390/390/390 655/655/655
f 598/598/598 390/390/390 385/385/385
f 389/389/389 391/391/391 390/390/390
f 390/390/390 382/382/382 389/389/389
f 385/385/385 377/377/377 598/598/598
f 598/598/598 377/377/377 593/593/593
f 593/593/593 377/377/377 376/376/376
f 372/372/372 376/376/376 377/377/377
f 376/376/376 594/594/594 593/593/593
f 595/595/595 594/594/594 376/376/376
f 376/376/376 379/379/379 595/595/595
f 379/379/379 376/376/376 372/372/372
f 372/372/372 373/373/373 379/379/379
f 3/3/3 373/373/373 372/372/372
f 372/372/372 4/4/4 3/3/3
f 460/460/460 379/379/379 457/457/457
f 379/379/379 597/597/597 596/596/596
f 596/596/596 595/595/595 379/379/379
f 457/457/457 379/379/379 373/373/373
f 373/373/373 450/450/450 457/457/457
f 113/113/113 450/450/450 373/373/373
f 246/246/246 244/244/244 243/243/243
f 243/243/243 260/260/260 246/246/246
f 243/243/243 244/244/244 240/240/240
f 240/240/240 244/244/244 248/248/248
f 248/248/248 264/264/264 240/240/240
f 248/248/248 244/244/244 246/246/246
f 247/247/247 246/246/246 269/269/269
f 246/246/246 260/260/260 254/254/254
f 254/254/254 269/269/269 246/246/246
f 246/246/246 247/247/247 248/248/248
f 254/254/254 260/260/260 261/261/261
f 261/261/261 255/255/255 254/254/254
f 268/268/268 269/269/269 254/254/254
f 254/254/254 253/253/253 268/268/268
f 253/253/253 254/254/254 255/255/255
f 269/269/269 275/275/275 247/247/247
f 275/275/275 269/269/269 268/268/268
f 268/268/268 276/276/276 275/275/275
f 255/255/255 256/256/256 253/253/253
f 255/255/255 261/261/261 274/274/274
f 274/274/274 270/270/270 255/255/255
f 271/271/271 256/256/256 255/255/255
f 255/255/255 270/270/270 271/271/271
f 279/279/279 274/274/274 261/261/261
f 272/272/272 274/274/274 279/279/279
f 274/274/274 272/272/272 270/270/270
f 271/271/271 270/270/270 272/272/272
f 272/272/272 273/273/273 271/271/271
f 279/279/279 273/273/273 272/272/272
f 70/70/70 71/71/71 68/68/68
f 649/649/649 389/389/389 422/422/422
f 648/648/648 389/389/389 649/649/649
f 422/422/422 651/651/651 649/649/649
f 70/70/70 423/423/423 422/422/422
f 68/68/68 69/69/69 70/70/70
f 336/336/336 338/338/338 68/68/68
f 341/341/341 69/69/69 339/339/339
f 339/339/339 340/340/340 341/341/341
f 652/652/652 423/423/423 653/653/653
f 653/653/653 654/654/654 652/652/652
f 334/334/334 335/335/335 25/25/25
f 334/334/334 25/25/25 24/24/24
f 24/24/24 333/333/333 334/334/334
f 24/24/24 26/26/26 332/332/332
f 332/332/332 333/333/333 24/24/24
f 337/337/337 332/332/332 26/26/26
f 10/10/10 9/9/9 21/21/21
f 378/378/378 384/384/384 22/22/22
f 22/22/22 384/384/384 375/375/375
f 375/375/375 7/7/7 22/22/22
f 22/22/22 7/7/7 6/6/6
f 6/6/6 21/21/21 22/22/22
f 384/384/384 378/378/378 377/377/377
f 377/377/377 378/378/378 372/372/372
f 386/386/386 375/375/375 384/384/384
f 384/384/384 385/385/385 386/386/386
f 377/377/377 385/385/385 384/384/384
f 374/374/374 375/375/375 386/386/386
f 7/7/7 375/375/375 374/374/374
f 374/374/374 8/8/8 7/7/7
f 7/7/7 8/8/8 5/5/5
f 5/5/5 6/6/6 7/7/7
f 21/21/21 6/6/6 25/25/25
f 25/25/25 6/6/6 5/5/5
f 5/5/5 20/20/20 26/26/26
f 26/26/26 24/24/24 5/5/5
f 5/5/5 24/24/24 25/25/25
f 19/19/19 20/20/20 5/5/5
f 41/41/41 47/47/47 48/48/48
f 38/38/38 74/74/74 48/48/48
f 74/74/74 38/38/38 37/37/37
f 37/37/37 38/38/38 35/35/35
f 48/48/48 74/74/74 395/395/395
f 395/395/395 403/403/403 48/48/48
f 48/48/48 403/403/403 399/399/399
f 399/399/399 45/45/45 48/48/48
f 48/48/48 45/45/45 41/41/41
f 42/42/42 41/41/41 45/45/45
f 41/41/41 42/42/42 43/43/43
f 45/45/45 399/399/399 401/401/401
f 401/401/401 46/46/46 45/45/45
f 45/45/45 46/46/46 42/42/42
f 400/400/400 399/399/399 393/393/393
f 393/393/393 399/399/399 403/403/403
f 399/399/399 400/400/400 401/401/401
f 403/403/403 392/392/392 393/393/393
f 392/392/392 403/403/403 395/395/395
f 393/393/393 402/402/402 400/400/400
f 398/398/398 402/402/402 393/393/393
f 398/398/398 393/393/393 33/33/33
f 32/32/32 31/31/31 47/47/47
f 49/49/49 35/35/35 31/31/31
f 31/31/31 34/34/34 49/49/49
f 38/38/38 47/47/47 31/31/31
f 31/31/31 35/35/35 38/38/38
f 33/33/33 34/34/34 31/31/31
f 31/31/31 32/32/32 33/33/33
f 43/43/43 44/44/44 32/32/32
f 32/32/32 41/41/41 43/43/43
f 47/47/47 41/41/41 32/32/32
f 39/39/39 32/32/32 44/44/44
f 33/33/33 32/32/32 39/39/39
f 48/48/48 47/47/47 38/38/38
f 33/33/33 393/393/393 392/392/392
f 405/405/405 34/34/34 392/392/392
f 392/392/392 394/394/394 405/405/405
f 395/395/395 394/394/394 392/392/392
f 392/392/392 34/34/34 33/33/33
f 33/33/33 40/40/40 398/398/398
f 39/39/39 40/40/40 33/33/33
f 396/396/396 395/395/395 74/74/74
f 394/394/394 395/395/395 396/396/396
f 404/404/404 405/405/405 394/394/394
f 394/394/394 397/397/397 404/404/404
f 396/396/396 397/397/397 394/394/394
f 75/75/75 410/410/410 396/396/396
f 74/74/74 75/75/75 396/396/396
f 407/407/407 397/397/397 396/396/396
f 396/396/396 410/410/410 407/407/407
f 37/37/37 75/75/75 74/74/74
f 75/75/75 37/37/37 56/56/56
f 54/54/54 56/56/56 37/37/37
f 37/37/37 36/36/36 54/54/54
f 35/35/35 36/36/36 37/37/37
f 55/55/55 56/56/56 54/54/54
f 51/51/51 54/54/54 36/36/36
f 54/54/54 53/53/53 55/55/55
f 53/53/53 54/54/54 51/51/51
f 36/36/36 50/50/50 51/51/51
f 50/50/50 36/36/36 35/35/35
f 35/35/35 49/49/49 50/50/50
f 59/59/59 55/55/55 53/53/53
f 53/53/53 57/57/57 59/59/59
f 57/57/57 53/53/53 52/52/52
f 51/51/51 52/52/52 53/53/53
f 60/60/60 73/73/73 59/59/59
f 59/59/59 57/57/57 60/60/60
f 60/60/60 57/57/57 58/58/58
f 52/52/52 58/58/58 57/57/57
f 414/414/414 424/424/424 415/415/415
f 415/415/415 418/418/418 413/413/413
f 416/416/416 415/415/415 424/424/424
f 417/417/417 418/418/418 415/415/415
f 415/415/415 416/416/416 417/417/417
f 424/424/424 425/425/425 416/416/416
f 173/173/173 174/174/174 175/175/175
f 490/490/490 491/491/491 492/492/492
f 655/655/655 381/381/381 382/382/382
f 206/206/206 207/207/207 208/208/208
f 523/523/523 524/524/524 525/525/525
f 76/76/76 9/9/9 1/1/1
f 1/1/1 4/4/4 76/76/76
f 1/1/1 11/11/11 12/12/12
f 12/12/12 2/2/2 1/1/1
f 10/10/10 11/11/11 1/1/1
f 1/1/1 9/9/9 10/10/10
f 3/3/3 4/4/4 1/1/1
f 1/1/1 2/2/2 3/3/3
f 76/76/76 4/4/4 372/372/372
f 372/372/372 378/378/378 76/76/76
f 22/22/22 76/76/76 378/378/378
f 9/9/9 76/76/76 22/22/22
f 22/22/22 21/21/21 9/9/9
f 639/639/639 636/636/636 638/638/638
f 638/638/638 636/636/636 635/635/635
f 635/635/635 637/637/637 638/638/638
f 635/635/635 636/636/636 620/620/620
f 620/620/620 619/619/619 635/635/635
f 620/620/620 621/621/621 618/618/618
f 618/618/618 619/619/619 620/620/620
f 611/611/611 633/633/633 621/621/621
f 621/621/621 625/625/625 611/611/611
f 634/634/634 618/618/618 621/621/621
f 621/621/621 633/633/633 634/634/634
f 611/611/611 625/625/625 608/608/608
f 633/633/633 611/611/611 613/613/613
f 608/608/608 609/609/609 611/611/611
f 612/612/612 613/613/613 611/611/611
f 611/611/611 609/609/609 612/612/612
f 603/603/603 609/609/609 608/608/608
f 612/612/612 609/609/609 603/603/603
f 603/603/603 629/629/629 612/612/612
f 613/613/613 640/640/640 633/633/633
f 641/641/641 634/634/634 633/633/633
f 633/633/633 640/640/640 641/641/641
f 631/631/631 628/628/628 627/627/627
f 627/627/627 630/630/630 631/631/631
f 628/628/628 616/616/616 615/615/615
f 615/615/615 627/627/627 628/628/628
f 616/616/616 617/617/617 614/614/614
f 614/614/614 615/615/615 616/616/616
f 614/614/614 617/617/617 632/632/632
f 632/632/632 642/642/642 624/624/624
f 162/162/162 158/158/158 157/157/157
f 157/157/157 158/158/158 159/159/159
f 161/161/161 158/158/158 162/162/162
f 158/158/158 160/160/160 159/159/159
f 160/160/160 158/158/158 161/161/161
f 481/481/481 476/476/476 478/478/478
f 476/476/476 477/477/477 478/478/478
f 480/480/480 481/481/481 478/478/478
f 478/478/478 477/477/477 479/479/479
f 479/479/479 480/480/480 478/478/478
f 176/176/176 177/177/177 178/178/178
f 493/493/493 494/494/494 495/495/495
f 508/508/508 509/509/509 510/510/510
f 191/191/191 192/192/192 193/193/193
f 221/221/221 222/222/222 223/223/223
f 538/538/538 539/539/539 540/540/540
f 310/310/310 329/329/329 319/319/319
f 122/122/122 12/12/12 125/125/125
f 111/111/111 106/106/106 109/109/109
f 85/85/85 106/106/106 111/111/111
f 111/111/111 123/123/123 85/85/85
f 83/83/83 85/85/85 123/123/123
f 114/114/114 83/83/83 123/123/123
f 114/114/114 123/123/123 156/156/156
f 85/85/85 80/80/80 107/107/107
f 107/107/107 106/106/106 85/85/85
f 85/85/85 81/81/81 80/80/80
f 85/85/85 83/83/83 81/81/81
f 108/108/108 109/109/109 106/106/106
f 106/106/106 107/107/107 108/108/108
f 108/108/108 107/107/107 117/117/117
f 117/117/117 107/107/107 80/80/80
f 117/117/117 80/80/80 82/82/82
f 80/80/80 81/81/81 82/82/82
f 81/81/81 84/84/84 82/82/82
f 373/373/373 3/3/3 113/113/113
f 113/113/113 3/3/3 2/2/2
f 450/450/450 113/113/113 112/112/112
f 2/2/2 110/110/110 113/113/113
f 112/112/112 113/113/113 110/110/110
f 457/457/457 450/450/450 451/451/451
f 112/112/112 451/451/451 450/450/450
f 451/451/451 112/112/112 109/109/109
f 109/109/109 112/112/112 111/111/111
f 110/110/110 111/111/111 112/112/112
f 111/111/111 110/110/110 122/122/122
f 122/122/122 110/110/110 2/2/2
f 2/2/2 12/12/12 122/122/122
f 122/122/122 123/123/123 111/111/111
f 156/156/156 123/123/123 122/122/122
f 122/122/122 124/124/124 156/156/156
f 125/125/125 124/124/124 122/122/122
f 179/179/179 180/180/180 181/181/181
f 496/496/496 497/497/497 498/498/498
f 369/369/369 371/371/371 370/370/370
f 668/668/668 370/370/370 371/371/371
f 109/109/109 448/448/448 451/451/451
f 451/451/451 458/458/458 457/457/457
f 475/475/475 458/458/458 453/453/453
f 457/457/457 458/458/458 475/475/475
f 456/456/456 453/453/453 599/599/599
f 453/453/453 456/456/456 475/475/475
f 121/121/121 155/155/155 475/475/475
f 475/475/475 456/456/456 121/121/121
f 475/475/475 461/461/461 457/457/457
f 461/461/461 475/475/475 155/155/155
f 457/457/457 461/461/461 460/460/460
f 461/461/461 154/154/154 16/16/16
f 16/16/16 380/380/380 461/461/461
f 155/155/155 154/154/154 461/461/461
f 460/460/460 461/461/461 380/380/380
f 156/156/156 155/155/155 121/121/121
f 155/155/155 156/156/156 124/124/124
f 124/124/124 154/154/154 155/155/155
f 185/185/185 186/186/186 187/187/187
f 502/502/502 503/503/503 504/504/504
f 600/600/600 601/601/601 459/459/459
f 459/459/459 596/596/596 597/597/597
f 505/505/505 506/506/506 507/507/507
f 188/188/188 189/189/189 190/190/190
f 224/224/224 225/225/225 226/226/226
f 541/541/541 542/542/542 543/543/543
f 212/212/212 213/213/213 214/214/214
f 529/529/529 530/530/530 531/531/531
f 149/149/149 148/148/148 150/150/150
f 150/150/150 151/151/151 149/149/149
f 150/150/150 473/473/473 344/344/344
f 472/472/472 473/473/473 150/150/150
f 150/150/150 344/344/344 151/151/151
f 455/455/455 427/427/427 449/449/449
f 449/449/449 427/427/427 432/432/432
f 432/432/432 427/427/427 429/429/429
f 432/432/432 429/429/429 430/430/430
f 430/430/430 429/429/429 431/431/431
f 444/444/444 452/452/452 431/431/431
f 430/430/430 431/431/431 452/452/452
f 430/430/430 458/458/458 432/432/432
f 453/453/453 458/458/458 430/430/430
f 452/452/452 453/453/453 430/430/430
f 432/432/432 458/458/458 451/451/451
f 451/451/451 448/448/448 432/432/432
f 432/432/432 448/448/448 449/449/449
f 108/108/108 449/449/449 448/448/448
f 448/448/448 109/109/109 108/108/108
f 58/58/58 61/61/61 60/60/60
f 73/73/73 60/60/60 63/63/63
f 62/62/62 63/63/63 60/60/60
f 60/60/60 61/61/61 62/62/62
f 63/63/63 72/72/72 73/73/73
f 397/397/397 407/407/407 406/406/406
f 411/411/411 408/408/408 407/407/407
f 407/407/407 410/410/410 411/411/411
f 406/406/406 407/407/407 408/408/408
f 406/406/406 404/404/404 397/397/397
f 408/408/408 409/409/409 406/406/406
f 414/414/414 412/412/412 408/408/408
f 408/408/408 411/411/411 414/414/414
f 409/409/409 408/408/408 412/412/412
f 412/412/412 413/413/413 409/409/409
f 415/415/415 412/412/412 414/414/414
f 413/413/413 412/412/412 415/415/415
f 499/499/499 500/500/500 501/501/501
f 182/182/182 183/183/183 184/184/184
f 359/359/359 358/358/358 361/361/361
f 358/358/358 357/357/357 661/661/661
f 661/661/661 662/662/662 358/358/358
f 358/358/358 359/359/359 356/356/356
f 356/356/356 357/357/357 358/358/358
f 357/357/357 367/367/367 666/666/666
f 666/666/666 661/661/661 357/357/357
f 357/357/357 356/356/356 366/366/366
f 366/366/366 367/367/367 357/357/357
f 194/194/194 195/195/195 196/196/196
f 511/511/511 512/512/512 513/513/513
f 197/197/197 198/198/198 199/199/199
f 514/514/514 515/515/515 516/516/516
f 92/92/92 438/438/438 437/437/437
f 456/456/456 438/438/438 92/92/92
f 599/599/599 438/438/438 456/456/456
f 200/200/200 201/201/201 202/202/202
f 517/517/517 518/518/518 519/519/519
f 203/203/203 204/204/204 205/205/205
f 520/520/520 521/521/521 522/522/522
f 121/121/121 120/120/120 156/156/156
f 156/156/156 120/120/120 114/114/114
f 92/92/92 121/121/121 456/456/456
f 120/120/120 121/121/121 92/92/92
f 286/286/286 114/114/114 120/120/120
f 120/120/120 91/91/91 286/286/286
f 92/92/92 91/91/91 120/120/120
f 83/83/83 114/114/114 115/115/115
f 128/128/128 286/286/286 91/91/91
f 91/91/91 90/90/90 128/128/128
f 90/90/90 91/91/91 92/92/92
f 128/128/128 90/90/90 89/89/89
f 89/89/89 88/88/88 128/128/128
f 535/535/535 536/536/536 537/537/537
f 218/218/218 219/219/219 220/220/220
f 532/532/532 533/533/533 534/534/534
f 215/215/215 216/216/216 217/217/217
f 99/99/99 441/441/441 439/439/439
f 439/439/439 95/95/95 99/99/99
f 447/447/447 443/443/443 442/442/442
f 442/442/442 446/446/446 447/447/447
f 446/446/446 442/442/442 462/462/462
f 462/462/462 454/454/454 119/119/119
f 454/454/454 462/462/462 442/442/442
f 116/116/116 119/119/119 454/454/454
f 428/428/428 455/455/455 454/454/454
f 454/454/454 445/445/445 428/428/428
f 442/442/442 445/445/445 454/454/454
f 454/454/454 455/455/455 116/116/116
f 444/444/444 445/445/445 442/442/442
f 442/442/442 443/443/443 444/444/444
f 431/431/431 428/428/428 445/445/445
f 445/445/445 444/444/444 431/431/431
f 455/455/455 428/428/428 427/427/427
f 429/429/429 428/428/428 431/431/431
f 427/427/427 428/428/428 429/429/429
f 108/108/108 116/116/116 455/455/455
f 455/455/455 449/449/449 108/108/108
f 231/231/231 232/232/232 233/233/233
f 546/546/546 547/547/547 548/548/548
f 83/83/83 84/84/84 81/81/81
f 82/82/82 101/101/101 118/118/118
f 118/118/118 117/117/117 82/82/82
f 101/101/101 82/82/82 84/84/84
f 117/117/117 116/116/116 108/108/108
f 116/116/116 117/117/117 118/118/118
f 119/119/119 118/118/118 127/127/127
f 118/118/118 101/101/101 100/100/100
f 100/100/100 127/127/127 118/118/118
f 118/118/118 119/119/119 116/116/116
f 84/84/84 102/102/102 101/101/101
f 100/100/100 101/101/101 102/102/102
f 102/102/102 84/84/84 115/115/115
f 115/115/115 84/84/84 83/83/83
f 102/102/102 103/103/103 100/100/100
f 127/127/127 100/100/100 105/105/105
f 104/104/104 105/105/105 100/100/100
f 100/100/100 103/103/103 104/104/104
f 127/127/127 129/129/129 119/119/119
f 105/105/105 97/97/97 127/127/127
f 129/129/129 127/127/127 97/97/97
f 94/94/94 105/105/105 104/104/104
f 209/209/209 210/210/210 211/211/211
f 526/526/526 527/527/527 528/528/528
f 552/552/552 556/556/556 558/558/558
f 558/558/558 554/554/554 552/552/552
f 556/556/556 552/552/552 551/551/551
f 555/555/555 554/554/554 592/592/592
f 591/591/591 592/592/592 554/554/554
f 554/554/554 558/558/558 591/591/591
f 575/575/575 563/563/563 555/555/555
f 592/592/592 578/578/578 555/555/555
f 575/575/575 555/555/555 578/578/578
f 555/555/555 563/563/563 562/562/562
f 579/579/579 578/578/578 592/592/592
f 592/592/592 591/591/591 579/579/579
f 591/591/591 587/587/587 586/586/586
f 586/586/586 585/585/585 591/591/591
f 574/574/574 587/587/587 591/591/591
f 591/591/591 558/558/558 574/574/574
f 573/573/573 574/574/574 558/558/558
f 558/558/558 556/556/556 573/573/573
f 587/587/587 574/574/574 568/568/568
f 569/569/569 568/568/568 574/574/574
f 574/574/574 573/573/573 569/569/569
f 568/568/568 584/584/584 587/587/587
f 89/89/89 90/90/90 93/93/93
f 92/92/92 93/93/93 90/90/90
f 93/93/93 130/130/130 89/89/89
f 86/86/86 89/89/89 130/130/130
f 88/88/88 89/89/89 86/86/86
f 86/86/86 87/87/87 88/88/88
f 87/87/87 86/86/86 131/131/131
f 130/130/130 131/131/131 86/86/86
f 434/434/434 130/130/130 93/93/93
f 130/130/130 434/434/434 433/433/433
f 433/433/433 131/131/131 130/130/130
f 93/93/93 437/437/437 434/434/434
f 437/437/437 93/93/93 92/92/92
f 463/463/463 435/435/435 434/434/434
f 434/434/434 437/437/437 463/463/463
f 433/433/433 434/434/434 435/435/435
f 131/131/131 433/433/433 436/436/436
f 435/435/435 436/436/436 433/433/433
f 436/436/436 343/343/343 131/131/131
f 131/131/131 343/343/343 87/87/87
f 463/463/463 437/437/437 438/438/438
f 438/438/438 599/599/599 463/463/463
f 482/482/482 483/483/483 484/484/484
f 163/163/163 164/164/164 165/165/165
f 94/94/94 97/97/97 105/105/105
f 104/104/104 98/98/98 94/94/94
f 99/99/99 95/95/95 94/94/94
f 94/94/94 98/98/98 99/99/99
f 96/96/96 97/97/97 94/94/94
f 94/94/94 95/95/95 96/96/96
f 97/97/97 96/96/96 129/129/129
f 129/129/129 96/96/96 440/440/440
f 96/96/96 95/95/95 439/439/439
f 439/439/439 440/440/440 96/96/96
f 119/119/119 129/129/129 462/462/462
f 440/440/440 462/462/462 129/129/129
f 462/462/462 440/440/440 446/446/446
f 439/439/439 446/446/446 440/440/440
f 447/447/447 446/446/446 439/439/439
f 439/439/439 441/441/441 447/447/447
f 485/485/485 486/486/486 487/487/487
f 166/166/166 167/167/167 168/168/168
f 229/229/229 230/230/230 227/227/227
f 227/227/227 228/228/228 229/229/229
f 229/229/229 228/228/228 544/544/544
f 544/544/544 545/545/545 229/229/229
f 171/171/171 172/172/172 169/169/169
f 169/169/169 170/170/170 171/171/171
f 171/171/171 489/489/489 488/488/488
f 488/488/488 172/172/172 171/171/171
f 77/77/77 78/78/78 79/79/79
f 65/65/65 77/77/77 236/236/236
f 236/236/236 234/234/234 65/65/65
f 66/66/66 65/65/65 234/234/234
f 234/234/234 235/235/235 66/66/66
f 421/421/421 234/234/234 236/236/236
f 234/234/234 421/421/421 420/420/420
f 420/420/420 549/549/549 234/234/234
f 236/236/236 426/426/426 421/421/421
f 79/79/79 426/426/426 236/236/236
f 79/79/79 236/236/236 77/77/77
f 549/549/549 656/656/656 345/345/345
f 345/345/345 347/347/347 549/549/549
f 656/656/656 657/657/657 349/349/349
f 349/349/349 345/345/345 656/656/656
f 346/346/346 345/345/345 349/349/349
f 235/235/235 347/347/347 345/345/345
f 345/345/345 346/346/346 235/235/235
f 349/349/349 348/348/348 346/346/346
f 350/350/350 349/349/349 657/657/657
f 348/348/348 349/349/349 350/350/350
f 657/657/657 658/658/658 350/350/350
f 364/364/364 350/350/350 658/658/658
f 351/351/351 350/350/350 364/364/364
f 350/350/350 351/351/351 348/348/348
f 658/658/658 665/665/665 364/364/364
f 364/364/364 365/365/365 351/351/351
