# phorusrhacos_ad_b reconstructed from live game memory
v 14.27703 26.90172 75.76459
v 8.43505 33.10574 74.60286
v 11.46678 32.70654 74.07017
v 15.67351 27.90625 74.64002
v 20.32699 22.69065 76.56057
v 18.81701 21.62461 78.05354
v 18.81701 21.62461 78.05354
v 19.63535 21.29195 70.85971
v 14.27703 26.90172 75.76459
v 22.28076 17.99637 77.96109
v 24.14726 18.89229 76.79453
v 22.28076 17.99637 77.96109
v 21.25819 22.80067 72.82121
v 25.01079 19.16713 73.21927
v 21.20984 22.73437 67.84471
v 16.26830 28.04201 68.79533
v 14.79157 26.94795 66.71316
v 19.91599 21.47583 65.77643
v 11.01892 30.91998 68.40335
v 12.75663 31.78918 70.71641
v 14.79157 26.94795 66.71316
v 19.91599 21.47583 65.77643
v 34.42757 11.86032 80.02356
v 28.58536 16.42755 73.50349
v 38.49548 10.44387 72.93876
v -20.44961 18.32921 86.45413
v -3.95794 16.61606 87.10875
v -6.36705 -0.00000 93.32338
v -22.54889 0.00000 91.62968
v -16.31241 27.15605 41.63878
v -14.11738 30.13485 56.56816
v -30.66154 21.53718 52.07220
v -24.89211 21.69687 41.65330
v 13.02322 21.15917 59.60289
v 22.56124 18.58869 68.24944
v 11.43495 20.11182 71.64759
v 78.46455 1.66475 111.29652
v 79.37120 2.12664 113.86384
v 74.75659 4.07101 114.12301
v 74.03740 3.60936 110.55816
v 79.17876 -0.00002 110.62919
v 80.79723 -0.00002 114.28147
v 83.58649 1.27323 126.62463
v 80.95818 1.94518 129.50552
v 80.49844 3.69815 127.20789
v 82.13451 -0.00002 130.12704
v 84.85691 -0.00002 126.60513
v 49.80797 6.66855 129.33075
v 56.28866 6.17342 131.44075
v 54.94490 -0.00001 133.79103
v 47.77204 -0.00001 131.51404
v 58.74516 9.53035 119.80795
v 64.10402 7.63315 121.60172
v 62.25667 6.68489 125.92604
v 59.11615 7.91146 125.87871
v 60.48545 -0.00001 132.80782
v 60.54823 5.64791 131.44766
v 65.49966 4.95216 132.53204
v 65.72272 -0.00001 134.15106
v 60.59238 7.32243 130.10551
v 58.28722 8.22279 128.29576
v 60.46199 6.85175 127.81754
v 70.09420 4.20113 132.99779
v 70.06246 -0.00002 134.39375
v 62.72449 6.35877 128.48288
v 44.73686 6.78266 118.50117
v 41.14687 -0.00001 120.56476
v 42.43423 -0.00001 115.01799
v 46.56564 6.89768 112.93571
v 43.00857 -0.00001 106.39191
v 45.72748 6.74922 104.87440
v 31.46798 10.05039 85.49893
v 34.42757 11.86032 80.02356
v 47.37310 7.92871 87.79990
v 40.95096 7.22938 92.71641
v 37.61043 -0.00001 95.30272
v 28.70888 -0.00001 89.19789
v -15.49315 17.66638 41.02852
v 68.56635 5.23199 111.52227
v 63.01932 6.92652 110.97709
v 63.39729 -0.00001 108.42972
v 68.35097 -0.00001 110.64576
v -36.56975 15.51030 81.24377
v -33.02246 21.40359 66.69855
v -42.98848 17.75892 63.64044
v -39.83071 19.77157 53.01520
v -46.76950 11.73722 75.04044
v -38.88205 0.00001 85.91438
v -49.25091 0.00001 79.18491
v -21.98389 22.15088 7.34857
v -21.27854 22.01578 24.03532
v -24.63723 25.01793 24.02835
v -25.32083 25.19895 7.26918
v -22.13749 18.22310 0.50348
v -26.39096 19.00785 7.03804
v -18.57296 17.65785 3.97725
v -16.48489 22.23434 5.71753
v -15.81800 18.52701 5.06146
v -24.89211 21.69687 41.65330
v -28.46414 21.78314 26.86337
v -16.31241 27.15605 41.63878
v -9.77086 21.85372 37.88496
v -24.64143 18.46334 24.02121
v -15.49315 17.66638 41.02852
v -28.44402 21.78005 21.59117
v 69.79300 6.46659 127.73181
v 76.22536 5.25120 127.59813
v 76.56381 3.13637 131.97629
v -0.85569 23.46646 54.07590
v -3.62681 20.03834 43.34923
v 0.05220 21.59686 71.97054
v 7.78535 15.59697 87.14699
v -16.30739 28.50284 71.01585
v -24.64143 18.46334 24.02121
v -15.49315 17.66638 41.02852
v 22.28076 17.99637 77.96109
v 20.22090 12.72895 86.15076
v 52.26974 -0.00001 83.34409
v 58.01578 -0.00001 98.60829
v 53.07156 7.07400 100.98985
v 52.03699 8.42053 110.72743
v 56.42149 7.60466 108.59213
v 51.98140 10.71536 122.47913
v 45.42303 6.66764 125.46764
v 42.37446 -0.00001 127.51253
v 76.90991 -0.00002 133.20253
v 83.64838 1.60296 121.85507
v 85.24900 -0.00002 121.22897
v 65.59874 6.82777 127.34969
v 69.74578 6.41747 120.62433
v -16.95042 28.20573 0.15107
v -12.05667 30.73622 0.09132
v -10.83821 30.63449 1.62576
v -14.60729 27.38941 2.94634
v -12.05667 30.73622 0.09132
v -16.95042 28.20573 0.15107
v -14.12296 24.74522 0.19441
v -11.09987 29.81863 0.10135
v -14.12296 24.74522 0.19441
v -11.09987 29.81863 0.10135
v -6.45348 22.98643 1.57464
v -13.25136 22.45470 3.61669
v -7.15999 23.69462 0.10152
v -13.66803 20.23714 0.19398
v -6.97339 22.16218 0.10083
v -7.15999 23.69462 0.10152
v -13.66803 20.23714 0.19398
v -6.97339 22.16218 0.10083
v -13.27887 16.92450 3.67992
v -6.14395 13.06828 -0.24812
v -9.96973 14.51703 2.19248
v -9.67694 15.21724 0.03128
v -6.14395 13.06828 -0.24812
v -9.67694 15.21724 0.03128
v -10.44402 14.03401 -0.07768
v -15.63771 16.13373 0.20061
v -10.44402 14.03401 -0.07768
v -8.67307 31.73714 -0.25099
v -8.67307 31.73714 -0.25099
v -3.16222 23.14235 -0.16873
v -3.16222 23.14235 -0.16873
v -15.63771 16.13373 0.20061
v -19.83689 26.22642 2.71412
v -16.95688 25.45035 4.81699
v -22.52079 25.03521 0.15316
v -22.13749 18.22310 0.50348
v -22.52079 25.03521 0.15316
v 79.39150 3.76514 121.76904
v 82.27359 1.97535 118.47845
v 75.66542 5.22614 120.76340
v 69.11217 5.72562 115.89271
v 63.85353 7.10260 118.23553
v 14.88275 15.40476 48.27169
v 28.23368 8.77095 55.44971
v 26.59025 16.49488 63.11192
v -26.39096 19.00785 7.03804
v -28.95380 21.86274 7.12401
v -3.62681 20.03834 43.34923
v 24.74320 19.12555 70.01979
v 27.94463 16.49914 68.89147
v 41.56214 -0.00001 67.04706
v 22.56124 18.58869 68.24944
v 24.74320 19.12555 70.01979
v 25.01079 19.16713 73.21927
v 27.87305 15.75025 77.58281
v 22.56124 18.58869 68.24944
v 25.37075 14.59861 80.47908
v 74.46990 -0.00001 112.55717
v 74.75659 4.07101 114.12301
v 79.37120 2.12664 113.86384
v 80.79723 -0.00002 114.28147
v 69.74578 6.41747 120.62433
v 64.10402 7.63315 121.60172
v 63.35050 -0.00001 123.55627
v 72.69860 -0.00002 124.31183
v 58.22552 -0.00001 119.48338
v 58.74516 9.53035 119.80795
v 63.85353 7.10260 118.23553
v 66.86813 -0.00001 114.61944
v 75.66542 5.22614 120.76340
v 72.71752 -0.00002 124.30992
v 82.27359 1.97535 118.47845
v 79.39150 3.76514 121.76904
v 81.64054 -0.00002 122.89484
v 81.65733 -0.00002 122.85942
v 82.64536 -0.00002 114.80058
v 58.74516 9.53035 119.80795
v 58.22552 -0.00001 119.48338
v 69.11217 5.72562 115.89271
v 66.88230 -0.00001 114.61463
v 31.46798 10.05039 85.49893
v 24.14726 18.89229 76.79453
v 61.96259 6.63138 126.21150
v 60.66212 7.87509 127.80927
v 59.30973 7.66749 126.17152
v 58.60949 7.93047 128.21326
v 60.55672 7.16992 129.74199
v 62.35775 6.35590 128.37131
v 15.41913 -0.00000 45.00808
v 1.94432 0.00000 40.49565
v 59.23799 -0.00001 106.93918
v 11.01892 30.91998 68.40335
v 8.43505 33.10574 74.60286
v 38.49548 10.44387 72.93876
v -56.15209 6.98382 66.75290
v -57.94518 0.00001 69.75951
v -33.99171 21.25227 1.27944
v -30.22147 21.48844 3.83982
v -22.13749 18.22310 0.50348
v -33.39369 20.42344 -0.05552
v -33.47307 22.15378 -0.05615
v -33.47307 22.15378 -0.05615
v -33.39369 20.42344 -0.05552
v -35.95396 21.18179 -0.30042
v -35.95396 21.18179 -0.30042
v -51.81894 14.46772 59.63505
v -62.53082 0.00001 63.26245
v -60.88876 3.96478 59.53140
v -56.07829 7.07823 57.69566
v -60.33794 4.62330 55.42551
v -47.93660 13.94334 53.09983
v -53.88679 11.82829 51.68890
v -46.63610 15.26739 50.25624
v -36.25836 18.43452 46.41485
v -42.53630 18.18133 43.63173
v -41.21522 17.15386 40.23053
v -36.25836 18.43452 46.41485
v -41.21522 17.15386 40.23053
v -46.59656 14.45286 41.90639
v -46.63610 15.26739 50.25624
v -56.07829 7.07823 57.69566
v -52.09289 11.11253 48.58147
v -57.36766 6.73925 52.62683
v -56.62214 0.00001 57.86521
v -60.33794 4.62330 55.42551
v -59.25790 0.00001 56.02238
v -46.59656 14.45286 41.90639
v -45.02724 15.77468 31.20014
v -45.02724 15.77468 31.20014
v -57.36766 6.73925 52.62683
v -58.34373 8.50262 43.64820
v -52.09289 11.11253 48.58147
v -58.34373 8.50262 43.64820
v -63.66132 0.00001 51.51933
v -63.66089 0.00001 51.49348
v -25.32164 18.74923 49.55027
v -29.21873 20.72240 53.49992
v -31.62461 19.82730 43.70159
v -28.55052 18.49394 41.31041
v -35.11839 17.40292 40.81256
v -31.05204 16.82288 30.82630
v -37.59158 17.29467 47.18742
v 5.92598 -0.00000 93.04440
v 28.72254 -0.00000 53.10009
v -15.49315 17.66638 41.02852
v -15.16015 0.00000 39.29878
v -36.71453 0.00001 47.31062
v -30.66154 21.53718 52.07220
v 41.56214 -0.00001 67.04706
v 28.70888 -0.00001 89.19789
v 17.93285 -0.00000 91.03528
v 82.64536 -0.00002 114.80058
v 73.84690 -0.00001 109.54148
v -63.66089 0.00001 51.49348
v -41.32049 9.90576 47.64005
v -45.24849 11.87893 53.88955
v -49.24549 12.04397 44.30410
v -47.17641 10.71061 41.00462
v -53.51751 9.61960 42.78655
v -53.11771 11.22373 32.01155
v -53.65752 8.45119 49.62293
v 14.27702 -26.90172 75.76459
v 15.67350 -27.90625 74.64002
v 11.46677 -32.70654 74.07017
v 8.43504 -33.10574 74.60286
v 18.81700 -21.62462 78.05354
v 20.32699 -22.69065 76.56057
v 18.81700 -21.62462 78.05354
v 14.27702 -26.90172 75.76459
v 19.63534 -21.29195 70.85971
v 22.28075 -17.99638 77.96109
v 24.14725 -18.89230 76.79453
v 22.28075 -17.99638 77.96109
v 21.25819 -22.80067 72.82121
v 25.01078 -19.16714 73.21927
v 21.20984 -22.73438 67.84471
v 19.91599 -21.47584 65.77643
v 14.79156 -26.94796 66.71316
v 16.26830 -28.04201 68.79533
v 12.75662 -31.78918 70.71641
v 11.01891 -30.91998 68.40335
v 14.79156 -26.94796 66.71316
v 19.91599 -21.47584 65.77643
v 34.42756 -11.86033 80.02356
v 38.49548 -10.44388 72.93876
v 28.58535 -16.42756 73.50349
v -20.44962 -18.32920 86.45413
v -3.95795 -16.61606 87.10875
v -14.11739 -30.13484 56.56817
v -16.31242 -27.15604 41.63879
v -24.89211 -21.69686 41.65331
v -30.66155 -21.53717 52.07221
v 13.02321 -21.15917 59.60289
v 11.43495 -20.11183 71.64759
v 22.56124 -18.58870 68.24944
v 78.46455 -1.66478 111.29652
v 74.03740 -3.60939 110.55816
v 74.75659 -4.07103 114.12301
v 79.37120 -2.12667 113.86384
v 83.58649 -1.27327 126.62463
v 80.49844 -3.69818 127.20789
v 80.95818 -1.94521 129.50552
v 49.80797 -6.66858 129.33075
v 56.28866 -6.17345 131.44075
v 58.74516 -9.53038 119.80795
v 59.11615 -7.91149 125.87871
v 62.25667 -6.68492 125.92604
v 64.10402 -7.63317 121.60172
v 65.49966 -4.95218 132.53204
v 60.54823 -5.64794 131.44766
v 60.59238 -7.32246 130.10551
v 58.28722 -8.22282 128.29576
v 60.46199 -6.85177 127.81754
v 70.09420 -4.20116 132.99779
v 62.72449 -6.35879 128.48288
v 44.73686 -6.78268 118.50117
v 46.56564 -6.89770 112.93571
v 42.43423 -0.00001 115.01799
v 45.72748 -6.74924 104.87440
v 31.46798 -10.05040 85.49893
v 40.95096 -7.22940 92.71641
v 47.37310 -7.92873 87.79990
v 34.42756 -11.86033 80.02356
v -15.49316 -17.66637 41.02853
v 68.56635 -5.23201 111.52227
v 63.01932 -6.92655 110.97709
v -33.02246 -21.40358 66.69855
v -36.56976 -15.51029 81.24377
v -39.83072 -19.77156 53.01520
v -42.98848 -17.75891 63.64044
v -46.76951 -11.73720 75.04044
v -21.98390 -22.15087 7.34857
v -25.32083 -25.19894 7.26917
v -24.63724 -25.01792 24.02835
v -21.27855 -22.01577 24.03532
v -22.13750 -18.22309 0.50348
v -18.57297 -17.65784 3.97725
v -26.39097 -19.00783 7.03804
v -16.48489 -22.23433 5.71753
v -15.81800 -18.52700 5.06146
v -24.89211 -21.69686 41.65331
v -16.31242 -27.15604 41.63879
v -28.46415 -21.78313 26.86337
v -9.77087 -21.85371 37.88496
v -15.49316 -17.66637 41.02853
v -24.64144 -18.46333 24.02121
v -28.44403 -21.78004 21.59117
v 76.56381 -3.13640 131.97629
v 76.22536 -5.25124 127.59813
v 69.79300 -6.46662 127.73181
v 0.21129 -23.46775 58.20608
v -3.62682 -20.03834 43.34924
v 7.78534 -15.59698 87.14699
v 0.05219 -21.59686 71.97055
v -16.30740 -28.50284 71.01586
v -24.64144 -18.46333 24.02121
v -15.49316 -17.66637 41.02853
v 20.22089 -12.72896 86.15076
v 22.28075 -17.99638 77.96109
v 53.07156 -7.07402 100.98985
v 52.03699 -8.42055 110.72743
v 51.98140 -10.71538 122.47913
v 56.42149 -7.60468 108.59213
v 45.42303 -6.66766 125.46764
v 83.64838 -1.60300 121.85507
v 65.59874 -6.82780 127.34969
v 69.74578 -6.41750 120.62433
v -16.95043 -28.20573 0.15107
v -14.60730 -27.38940 2.94634
v -10.83822 -30.63448 1.62576
v -12.05669 -30.73621 0.09132
v -12.05669 -30.73621 0.09132
v -11.09989 -29.81862 0.10134
v -14.12297 -24.74521 0.19441
v -16.95043 -28.20573 0.15107
v -14.12297 -24.74521 0.19441
v -11.09989 -29.81862 0.10134
v -6.45349 -22.98642 1.57464
v -7.16000 -23.69461 0.10152
v -13.25137 -22.45469 3.61669
v -13.66804 -20.23714 0.19398
v -6.97340 -22.16218 0.10082
v -7.16000 -23.69461 0.10152
v -6.97340 -22.16218 0.10082
v -13.66804 -20.23714 0.19398
v -13.27888 -16.92449 3.67992
v -6.14396 -13.06828 -0.24812
v -9.67695 -15.21723 0.03128
v -9.96974 -14.51702 2.19248
v -6.14396 -13.06828 -0.24812
v -10.44403 -14.03401 -0.07768
v -9.67695 -15.21723 0.03128
v -15.63772 -16.13372 0.20061
v -10.44403 -14.03401 -0.07768
v -8.67308 -31.73713 -0.25099
v -8.67308 -31.73713 -0.25099
v -3.16223 -23.14234 -0.16873
v -3.16223 -23.14234 -0.16873
v -15.63772 -16.13372 0.20061
v -19.83689 -26.22641 2.71411
v -16.95689 -25.45035 4.81699
v -22.13750 -18.22309 0.50348
v -22.52079 -25.03519 0.15315
v -22.52079 -25.03519 0.15315
v 82.27359 -1.97538 118.47845
v 79.39150 -3.76517 121.76904
v 75.66542 -5.22617 120.76340
v 69.11217 -5.72602 115.89271
v 63.85353 -7.10302 118.23553
v 14.88275 -15.40477 48.27169
v 26.59024 -16.49489 63.11192
v 28.23368 -8.77096 55.44971
v -26.39097 -19.00783 7.03804
v -28.95380 -21.86272 7.12400
v -3.62682 -20.03834 43.34924
v 24.74319 -19.12556 70.01979
v 27.94462 -16.49915 68.89147
v 22.56124 -18.58870 68.24944
v 24.74319 -19.12556 70.01979
v 25.01078 -19.16714 73.21927
v 27.87304 -15.75026 77.58281
v 22.56124 -18.58870 68.24944
v 25.37074 -14.59862 80.47908
v 79.37120 -2.12667 113.86384
v 74.75659 -4.07103 114.12301
v 69.74578 -6.41750 120.62433
v 64.10402 -7.63317 121.60172
v 63.85353 -7.10302 118.23553
v 58.74516 -9.53038 119.80795
v 75.66542 -5.22617 120.76340
v 82.27359 -1.97538 118.47845
v 79.39150 -3.76517 121.76904
v 58.74516 -9.53038 119.80795
v 69.11217 -5.72602 115.89271
v 31.46798 -10.05040 85.49893
v 24.14725 -18.89230 76.79453
v 61.96259 -6.63141 126.21150
v 59.30973 -7.66751 126.17152
v 60.66212 -7.87511 127.80927
v 58.60949 -7.93050 128.21326
v 60.55672 -7.16995 129.74199
v 62.35775 -6.35592 128.37131
v 11.01891 -30.91998 68.40335
v 8.43504 -33.10574 74.60286
v 38.49548 -10.44388 72.93876
v -56.15209 -6.98380 66.75290
v -33.99171 -21.25225 1.27944
v -33.39369 -20.42342 -0.05552
v -22.13750 -18.22309 0.50348
v -30.22147 -21.48842 3.83982
v -33.47307 -22.15376 -0.05615
v -33.39369 -20.42342 -0.05552
v -33.47307 -22.15376 -0.05615
v -35.95396 -21.18177 -0.30043
v -35.95396 -21.18177 -0.30043
v -51.81895 -14.46770 59.63505
v -60.88876 -3.96476 59.53140
v -56.07829 -7.07821 57.69566
v -60.33794 -4.62328 55.42551
v -47.93660 -13.94333 53.09983
v -53.88680 -11.82827 51.68890
v -46.63611 -15.26737 50.25624
v -36.25837 -18.43450 46.41485
v -41.21523 -17.15384 40.23053
v -42.53630 -18.18131 43.63173
v -36.25837 -18.43450 46.41485
v -46.63611 -15.26737 50.25624
v -46.59657 -14.45284 41.90639
v -41.21523 -17.15384 40.23053
v -56.07829 -7.07821 57.69566
v -57.36766 -6.73923 52.62683
v -52.09289 -11.11251 48.58147
v -60.33794 -4.62328 55.42551
v -45.02725 -15.77467 31.20014
v -46.59657 -14.45284 41.90639
v -45.02725 -15.77467 31.20014
v -58.34373 -8.50260 43.64820
v -57.36766 -6.73923 52.62683
v -52.09289 -11.11251 48.58147
v -58.34373 -8.50260 43.64820
v -25.32165 -18.74922 49.55027
v -28.55052 -18.49393 41.31041
v -31.62461 -19.82728 43.70159
v -29.21874 -20.72239 53.49992
v -31.05205 -16.82287 30.82630
v -35.11840 -17.40291 40.81256
v -37.59159 -17.29465 47.18742
v -15.49316 -17.66637 41.02853
v -30.66155 -21.53717 52.07221
v -41.32049 -9.90575 47.64005
v -47.17641 -10.71059 41.00462
v -49.24550 -12.04395 44.30410
v -45.24849 -11.87891 53.88955
v -53.11771 -11.22371 32.01155
v -53.51751 -9.61958 42.78655
v -53.65752 -8.45118 49.62293
vt 0.144431 0.266849
vt 0.229389 0.257685
vt 0.203388 0.244926
vt 0.142277 0.245951
vt 0.072795 0.256838
vt 0.074543 0.280447
vt 0.077552 0.134192
vt 0.077892 0.064083
vt 0.138576 0.125128
vt 0.011261 0.278255
vt 0.011261 0.254538
vt 0.011464 0.126006
vt 0.071427 0.218312
vt 0.011261 0.216047
vt 0.077700 0.168629
vt 0.145934 0.186465
vt 0.153483 0.159369
vt 0.080496 0.141289
vt 0.206304 0.186218
vt 0.191874 0.211880
vt 0.147677 0.017022
vt 0.077988 0.010937
vt 0.992178 0.296534
vt 0.914555 0.276726
vt 0.992178 0.241482
vt 0.656727 0.482226
vt 0.758976 0.443532
vt 0.792365 0.558586
vt 0.677914 0.604425
vt 0.566378 0.180834
vt 0.596018 0.267711
vt 0.489318 0.308329
vt 0.474346 0.232453
vt 0.781816 0.227601
vt 0.863176 0.258354
vt 0.803389 0.306000
vt 0.459828 0.638780
vt 0.443102 0.656151
vt 0.477372 0.683924
vt 0.495342 0.657450
vt 0.455249 0.621705
vt 0.426285 0.640788
vt 0.345538 0.756094
vt 0.356934 0.790854
vt 0.374007 0.772128
vt 0.337918 0.793921
vt 0.331523 0.751210
vt 0.586743 0.925500
vt 0.533792 0.912855
vt 0.522750 0.974204
vt 0.589998 0.992143
vt 0.572558 0.803726
vt 0.518766 0.792558
vt 0.512665 0.836834
vt 0.536603 0.850347
vt 0.478895 0.945042
vt 0.501719 0.897072
vt 0.462180 0.879443
vt 0.437161 0.919464
vt 0.510407 0.879508
vt 0.534004 0.873461
vt 0.517693 0.859732
vt 0.427406 0.862573
vt 0.405213 0.894948
vt 0.498924 0.856254
vt 0.676248 0.880838
vt 0.702814 0.949834
vt 0.738117 0.912252
vt 0.706091 0.838492
vt 0.799997 0.860351
vt 0.772857 0.796422
vt 0.991643 0.729792
vt 0.991643 0.678188
vt 0.858804 0.676248
vt 0.877972 0.752706
vt 0.899080 0.831068
vt 0.991643 0.827704
vt 0.374942 0.207454
vt 0.539906 0.687149
vt 0.589415 0.713645
vt 0.604457 0.647699
vt 0.553537 0.639034
vt 0.556005 0.505140
vt 0.514999 0.400411
vt 0.449020 0.424697
vt 0.427888 0.352135
vt 0.466991 0.513547
vt 0.554769 0.613047
vt 0.461441 0.599889
vt 0.127970 0.700749
vt 0.124899 0.793217
vt 0.193217 0.793217
vt 0.196776 0.704671
vt 0.018635 0.698190
vt 0.073325 0.702422
vt 0.056538 0.662830
vt 0.123155 0.640139
vt 0.088439 0.641564
vt 0.254457 0.926686
vt 0.254057 0.813060
vt 0.196765 0.923653
vt 0.116239 0.908142
vt 0.063406 0.791808
vt 0.011649 0.926686
vt 0.256632 0.777716
vt 0.453238 0.817968
vt 0.406335 0.790724
vt 0.383755 0.827510
vt 0.681531 0.215795
vt 0.647331 0.151586
vt 0.737301 0.329790
vt 0.822643 0.414092
vt 0.626321 0.361009
vt 0.316829 0.798931
vt 0.362428 0.926686
vt 0.885359 0.318841
vt 0.901172 0.382204
vt 0.838764 0.580590
vt 0.724739 0.638201
vt 0.747430 0.718617
vt 0.675374 0.779523
vt 0.655500 0.734914
vt 0.605682 0.856925
vt 0.632671 0.921463
vt 0.652953 0.987002
vt 0.362291 0.846712
vt 0.360072 0.714497
vt 0.344256 0.702014
vt 0.483923 0.833131
vt 0.479677 0.758719
vt 0.217355 0.602732
vt 0.220113 0.555898
vt 0.205502 0.547636
vt 0.186164 0.598210
vt 0.155871 0.456890
vt 0.135280 0.403623
vt 0.098816 0.432082
vt 0.128042 0.471190
vt 0.153063 0.590310
vt 0.190763 0.544074
vt 0.121319 0.522458
vt 0.122563 0.598918
vt 0.136572 0.522536
vt 0.088191 0.594485
vt 0.106086 0.524250
vt 0.091761 0.505605
vt 0.052426 0.431214
vt 0.061435 0.506073
vt 0.060876 0.608694
vt 0.017164 0.529949
vt 0.037483 0.565251
vt 0.049751 0.551344
vt 0.014162 0.503890
vt 0.033087 0.475810
vt 0.004576 0.465855
vt 0.023914 0.627350
vt 0.018711 0.570000
vt 0.216680 0.523480
vt 0.153820 0.497244
vt 0.118894 0.491412
vt 0.076221 0.540962
vt 0.013759 0.413706
vt 0.203227 0.642570
vt 0.158517 0.637496
vt 0.102109 0.366556
vt 0.048576 0.366556
vt 0.226268 0.646701
vt 0.397775 0.728307
vt 0.379838 0.688741
vt 0.432989 0.734539
vt 0.514797 0.721838
vt 0.545173 0.763938
vt 0.776465 0.143473
vt 0.886208 0.146334
vt 0.878102 0.217149
vt 0.313684 0.714646
vt 0.259631 0.705929
vt 0.101240 0.943238
vt 0.877681 0.266489
vt 0.899883 0.249357
vt 0.992178 0.172786
vt 0.011261 0.155925
vt 0.011261 0.183085
vt 0.885655 0.284350
vt 0.921454 0.304440
vt 0.011464 0.022343
vt 0.916744 0.331230
vt 0.827305 0.936548
vt 0.826542 0.987540
vt 0.779839 0.987540
vt 0.779839 0.936757
vt 0.856378 0.925736
vt 0.818819 0.925736
vt 0.819102 0.890606
vt 0.876700 0.890622
vt 0.987160 0.936415
vt 0.987160 0.987540
vt 0.914449 0.986354
vt 0.908176 0.936446
vt 0.857291 0.925736
vt 0.876689 0.890645
vt 0.951045 0.925736
vt 0.921051 0.925736
vt 0.946946 0.890693
vt 0.947110 0.890847
vt 0.972787 0.925736
vt 0.779821 0.925736
vt 0.779821 0.890589
vt 0.880068 0.985539
vt 0.908079 0.936474
vt 0.992178 0.342894
vt 0.888835 0.306354
vt 0.233301 0.228645
vt 0.279507 0.213347
vt 0.277749 0.259480
vt 0.323633 0.227386
vt 0.306526 0.170899
vt 0.249544 0.171640
vt 0.811065 0.044852
vt 0.706601 0.029672
vt 0.645286 0.656935
vt 0.184233 0.044192
vt 0.210241 0.112912
vt 0.991643 0.606608
vt 0.378996 0.515905
vt 0.375256 0.577800
vt 0.277062 0.610067
vt 0.267172 0.656575
vt 0.312455 0.667256
vt 0.292405 0.607852
vt 0.264554 0.601804
vt 0.091311 0.313061
vt 0.057123 0.313061
vt 0.283174 0.581923
vt 0.076000 0.287421
vt 0.385532 0.441972
vt 0.314109 0.554658
vt 0.318919 0.509572
vt 0.335621 0.471365
vt 0.302036 0.487073
vt 0.374821 0.393070
vt 0.336536 0.414485
vt 0.372631 0.370743
vt 0.418263 0.302025
vt 0.373821 0.314961
vt 0.365810 0.291146
vt 0.405781 0.163504
vt 0.376329 0.186639
vt 0.338759 0.169058
vt 0.351429 0.115265
vt 0.289319 0.065351
vt 0.309525 0.128274
vt 0.271782 0.091137
vt 0.302539 0.019109
vt 0.251635 0.045494
vt 0.264355 0.016316
vt 0.337426 0.326693
vt 0.308186 0.259681
vt 0.340080 0.241611
vt 0.308318 0.446028
vt 0.274773 0.393825
vt 0.330172 0.391340
vt 0.258602 0.150979
vt 0.257534 0.499555
vt 0.257423 0.499388
vt 0.298859 0.301664
vt 0.204583 0.277482
vt 0.197822 0.378723
vt 0.254493 0.383698
vt 0.155544 0.389491
vt 0.200399 0.514299
vt 0.139689 0.315461
vt 0.864629 0.516902
vt 0.908747 0.090773
vt 0.578294 0.149449
vt 0.582198 0.017954
vt 0.447150 0.016011
vt 0.450311 0.156863
vt 0.991643 0.493737
vt 0.992178 0.417805
vt 0.935491 0.467842
vt 0.378256 0.649606
vt 0.501494 0.624002
vt 0.222845 0.009610
vt 0.298864 0.301693
vt 0.204556 0.277694
vt 0.198961 0.378453
vt 0.250114 0.382506
vt 0.159436 0.389807
vt 0.201074 0.510005
vt 0.139688 0.315166
vt 0.144431 0.266849
vt 0.142277 0.245951
vt 0.203388 0.244926
vt 0.229389 0.257685
vt 0.074543 0.280447
vt 0.072795 0.256838
vt 0.077552 0.134192
vt 0.138576 0.125128
vt 0.077892 0.064083
vt 0.011261 0.278255
vt 0.011261 0.254538
vt 0.011464 0.126006
vt 0.071427 0.218312
vt 0.011261 0.216047
vt 0.077700 0.168629
vt 0.080496 0.141289
vt 0.153483 0.159369
vt 0.145934 0.186465
vt 0.191874 0.211880
vt 0.206304 0.186218
vt 0.147677 0.017022
vt 0.077988 0.010937
vt 0.992178 0.296534
vt 0.992178 0.241482
vt 0.914555 0.276726
vt 0.656727 0.482226
vt 0.758976 0.443532
vt 0.596018 0.267711
vt 0.566378 0.180834
vt 0.474346 0.232453
vt 0.489318 0.308329
vt 0.781816 0.227601
vt 0.803389 0.306000
vt 0.863176 0.258354
vt 0.459828 0.638780
vt 0.495342 0.657450
vt 0.477372 0.683924
vt 0.443102 0.656151
vt 0.345538 0.756094
vt 0.374007 0.772128
vt 0.356934 0.790854
vt 0.586743 0.925500
vt 0.533792 0.912855
vt 0.572558 0.803726
vt 0.536603 0.850347
vt 0.512665 0.836834
vt 0.518766 0.792558
vt 0.462180 0.879443
vt 0.501719 0.897072
vt 0.510407 0.879508
vt 0.534004 0.873461
vt 0.517693 0.859732
vt 0.427406 0.862573
vt 0.498924 0.856254
vt 0.676248 0.880838
vt 0.707648 0.840432
vt 0.738175 0.911940
vt 0.772857 0.796422
vt 0.991643 0.729792
vt 0.877972 0.752706
vt 0.858804 0.676248
vt 0.991643 0.678188
vt 0.374942 0.207454
vt 0.539906 0.687149
vt 0.589415 0.713645
vt 0.514999 0.400411
vt 0.556005 0.505140
vt 0.427888 0.352135
vt 0.449020 0.424697
vt 0.466991 0.513547
vt 0.127970 0.700749
vt 0.196776 0.704671
vt 0.193217 0.793217
vt 0.124899 0.793217
vt 0.018635 0.698190
vt 0.056538 0.662830
vt 0.073325 0.702422
vt 0.123155 0.640139
vt 0.088439 0.641564
vt 0.254457 0.926686
vt 0.196765 0.923653
vt 0.254057 0.813060
vt 0.118540 0.904931
vt 0.011649 0.926686
vt 0.063406 0.791808
vt 0.256632 0.777716
vt 0.383755 0.827510
vt 0.406335 0.790724
vt 0.453238 0.817968
vt 0.690536 0.263049
vt 0.646837 0.150372
vt 0.822643 0.414092
vt 0.737301 0.329790
vt 0.626321 0.361009
vt 0.316829 0.798931
vt 0.362428 0.926686
vt 0.901172 0.382204
vt 0.885359 0.318841
vt 0.747430 0.718617
vt 0.675374 0.779523
vt 0.605682 0.856925
vt 0.655500 0.734914
vt 0.632671 0.921463
vt 0.360072 0.714497
vt 0.483923 0.833131
vt 0.479677 0.758719
vt 0.217355 0.602732
vt 0.186164 0.598210
vt 0.205502 0.547636
vt 0.220113 0.555898
vt 0.155871 0.456890
vt 0.128042 0.471190
vt 0.098816 0.432082
vt 0.135280 0.403623
vt 0.153063 0.590310
vt 0.190763 0.544074
vt 0.121319 0.522458
vt 0.136572 0.522536
vt 0.122563 0.598918
vt 0.088191 0.594485
vt 0.106086 0.524250
vt 0.091761 0.505605
vt 0.061435 0.506073
vt 0.052426 0.431214
vt 0.060876 0.608694
vt 0.017164 0.529949
vt 0.049751 0.551344
vt 0.037483 0.565251
vt 0.014162 0.503890
vt 0.004576 0.465855
vt 0.033087 0.475810
vt 0.023914 0.627350
vt 0.018711 0.570000
vt 0.216680 0.523480
vt 0.153820 0.497244
vt 0.118894 0.491412
vt 0.076221 0.540962
vt 0.013759 0.413706
vt 0.203227 0.642570
vt 0.158517 0.637496
vt 0.048576 0.366556
vt 0.102109 0.366556
vt 0.226268 0.646701
vt 0.379838 0.688741
vt 0.397775 0.728307
vt 0.432989 0.734539
vt 0.514789 0.721847
vt 0.545117 0.763976
vt 0.776465 0.143473
vt 0.878102 0.217149
vt 0.886208 0.146334
vt 0.313684 0.714646
vt 0.259631 0.705929
vt 0.095362 0.951054
vt 0.877681 0.266489
vt 0.899883 0.249357
vt 0.011261 0.155925
vt 0.011261 0.183085
vt 0.885655 0.284350
vt 0.921454 0.304440
vt 0.011464 0.022343
vt 0.916744 0.331230
vt 0.779839 0.987540
vt 0.826542 0.987540
vt 0.856378 0.925736
vt 0.818819 0.925736
vt 0.911919 0.986364
vt 0.987160 0.987540
vt 0.857291 0.925736
vt 0.951045 0.925736
vt 0.921051 0.925736
vt 0.779821 0.925736
vt 0.880135 0.985492
vt 0.992178 0.342894
vt 0.888835 0.306354
vt 0.233301 0.228645
vt 0.277749 0.259480
vt 0.279507 0.213347
vt 0.323633 0.227386
vt 0.306526 0.170899
vt 0.249544 0.171640
vt 0.184233 0.044192
vt 0.210241 0.112912
vt 0.991643 0.606608
vt 0.378996 0.515905
vt 0.277062 0.610067
vt 0.292405 0.607852
vt 0.312455 0.667256
vt 0.267172 0.656575
vt 0.264554 0.601804
vt 0.057123 0.313061
vt 0.091311 0.313061
vt 0.283174 0.581923
vt 0.076000 0.287421
vt 0.385532 0.441972
vt 0.318919 0.509572
vt 0.335621 0.471365
vt 0.302036 0.487073
vt 0.374821 0.393070
vt 0.336536 0.414485
vt 0.372631 0.370743
vt 0.418263 0.302025
vt 0.365810 0.291146
vt 0.373821 0.314961
vt 0.405781 0.163504
vt 0.351429 0.115265
vt 0.338759 0.169058
vt 0.376329 0.186639
vt 0.289319 0.065351
vt 0.271782 0.091137
vt 0.309525 0.128274
vt 0.251635 0.045494
vt 0.308186 0.259681
vt 0.337426 0.326693
vt 0.340080 0.241611
vt 0.274773 0.393825
vt 0.308318 0.446028
vt 0.330172 0.391340
vt 0.258602 0.150979
vt 0.298859 0.301664
vt 0.254493 0.383698
vt 0.197822 0.378723
vt 0.204583 0.277482
vt 0.200399 0.514299
vt 0.155544 0.389491
vt 0.139689 0.315461
vt 0.578294 0.149449
vt 0.450311 0.156863
vt 0.298864 0.301693
vt 0.250114 0.382506
vt 0.198961 0.378453
vt 0.204556 0.277694
vt 0.201074 0.510005
vt 0.159436 0.389807
vt 0.139688 0.315166
vn -0.49015 -0.21684 0.84424
vn -0.47076 0.66492 0.57989
vn 0.34233 0.88085 0.32698
vn 0.63679 0.66900 0.38332
vn 0.49356 0.59528 0.63406
vn -0.42773 -0.20892 0.87943
vn -0.42773 -0.20892 0.87943
vn -0.72669 -0.68458 -0.05717
vn -0.49015 -0.21684 0.84424
vn 0.05309 0.69117 0.72074
vn 0.51042 0.69694 0.50374
vn 0.05309 0.69117 0.72074
vn 0.69739 0.70824 0.10976
vn 0.65221 0.75547 0.06232
vn 0.70823 0.55382 -0.43783
vn 0.62723 0.71615 -0.30614
vn -0.36138 -0.09606 -0.92746
vn -0.11489 -0.40161 -0.90858
vn -0.23077 0.68270 -0.69330
vn 0.51554 0.83531 -0.19096
vn -0.36138 -0.09606 -0.92746
vn -0.11489 -0.40161 -0.90858
vn 0.33966 0.91142 0.23225
vn 0.53759 0.83829 0.09095
vn 0.62048 0.74749 -0.23720
vn -0.12380 0.69583 0.70745
vn 0.06366 0.71408 0.69717
vn -0.02806 -0.00000 0.99961
vn -0.26469 0.00000 0.96433
vn 0.06387 0.96804 -0.24254
vn -0.09176 0.99475 -0.04520
vn -0.39262 0.77358 -0.49742
vn -0.99843 -0.04807 0.02860
vn 0.25084 0.96325 -0.09605
vn 0.20455 0.81906 -0.53600
vn 0.11543 0.97278 0.20094
vn 0.45289 0.66015 -0.59925
vn 0.68089 0.64236 -0.35181
vn 0.33765 0.91524 -0.21983
vn 0.17492 0.70923 -0.68293
vn 0.74175 -0.00000 -0.67068
vn 0.91425 -0.00000 -0.40514
vn 0.63476 0.73504 0.23832
vn 0.51923 0.63964 0.56680
vn 0.49693 0.84432 0.20045
vn 0.71223 -0.00000 0.70194
vn 0.96061 -0.00000 0.27789
vn -0.29980 0.66854 0.68057
vn -0.02750 0.58247 0.81239
vn -0.13666 0.00000 0.99062
vn -0.52641 0.00000 0.85023
vn 0.23825 0.97087 0.02565
vn 0.11449 0.97607 0.18488
vn 0.15302 0.96776 0.20007
vn 0.37681 0.91243 0.15968
vn -0.05840 0.00000 0.99829
vn -0.04024 0.44089 0.89666
vn 0.00344 0.73906 0.67363
vn -0.11831 0.00000 0.99298
vn 0.21276 0.92214 0.32310
vn 0.20576 0.94604 0.25035
vn 0.37735 0.92607 0.00202
vn 0.11002 0.66831 0.73570
vn 0.10809 -0.00000 0.99414
vn 0.15668 0.98436 0.08058
vn -0.75033 0.65437 -0.09378
vn -0.99987 0.00000 0.01612
vn -0.97950 0.00000 -0.20146
vn -0.66168 0.74350 -0.09686
vn -0.98669 0.00000 0.16264
vn -0.56434 0.81362 0.13978
vn 0.09126 0.80255 0.58957
vn 0.33966 0.91142 0.23225
vn 0.41727 0.90817 -0.03339
vn -0.33555 0.83892 0.42852
vn -0.82413 0.00000 0.56640
vn -0.19659 -0.00000 0.98049
vn -0.01887 -0.65487 -0.75551
vn 0.25145 0.61675 -0.74592
vn 0.29618 0.76654 -0.56982
vn 0.32128 0.00000 -0.94698
vn 0.03290 0.00000 -0.99946
vn -0.42938 0.59362 0.68062
vn -0.37881 0.91072 0.16458
vn -0.46366 0.87423 0.14399
vn -0.36259 0.93073 -0.04775
vn -0.57840 0.63170 0.51615
vn -0.49762 0.00000 0.86739
vn -0.68723 0.00000 0.72644
vn 0.71316 0.03098 0.70032
vn 0.89937 -0.22202 -0.37662
vn -0.00160 0.99640 -0.08480
vn -0.28328 0.94424 0.16784
vn -0.21994 -0.80715 -0.54784
vn -0.29776 -0.92036 0.25354
vn -0.12040 -0.92744 0.35407
vn 0.61114 0.11560 0.78303
vn 0.42372 -0.27879 0.86182
vn -0.99843 -0.04807 0.02860
vn -0.99377 0.00718 0.11124
vn 0.06387 0.96804 -0.24254
vn 0.72740 0.21679 -0.65107
vn -0.06007 -0.99769 -0.03166
vn -0.01887 -0.65487 -0.75551
vn -0.99928 0.02161 0.03107
vn 0.13762 0.97348 0.18276
vn 0.30256 0.92416 0.23322
vn 0.32990 0.59515 0.73278
vn 0.36830 0.91722 -0.15185
vn 0.37917 0.37263 -0.84698
vn 0.19577 0.94515 0.26145
vn 0.12178 0.68056 0.72250
vn 0.06633 0.95598 0.28584
vn -0.06007 -0.99769 -0.03166
vn -0.01887 -0.65487 -0.75551
vn 0.05309 0.69117 0.72074
vn 0.21981 0.58876 0.77784
vn 0.89644 -0.00000 -0.44317
vn 0.95867 -0.00000 -0.28452
vn 0.37827 0.91297 -0.15293
vn -0.06925 0.98778 -0.13963
vn 0.35452 0.86683 -0.35059
vn -0.13418 0.98656 0.09321
vn -0.67276 0.63509 0.37955
vn -0.85114 0.00000 0.52495
vn 0.42112 -0.00000 0.90700
vn 0.60692 0.79452 -0.01954
vn 0.98029 -0.00000 -0.19758
vn 0.02087 0.98348 0.17983
vn 0.16940 0.98533 0.02093
vn -0.42493 0.89453 -0.13877
vn -0.25450 0.55275 -0.79354
vn 0.40162 0.28851 0.86917
vn 0.17705 0.47652 0.86115
vn -0.25450 0.55275 -0.79354
vn -0.42493 0.89453 -0.13877
vn 0.83555 0.32621 -0.44209
vn 0.55757 -0.53658 -0.63340
vn 0.83555 0.32621 -0.44209
vn 0.55757 -0.53658 -0.63340
vn 0.39725 0.02944 0.91724
vn 0.42271 0.01690 0.90611
vn 0.06852 0.62706 -0.77595
vn 0.77486 -0.14421 -0.61546
vn 0.19795 -0.81207 -0.54896
vn 0.06852 0.62706 -0.77595
vn 0.77486 -0.14421 -0.61546
vn 0.19795 -0.81207 -0.54896
vn 0.25627 -0.45099 0.85494
vn 0.56247 -0.09729 -0.82107
vn 0.40796 -0.28673 0.86680
vn 0.38901 0.51520 -0.76370
vn 0.56247 -0.09729 -0.82107
vn 0.38901 0.51520 -0.76370
vn -0.25425 -0.71873 -0.64714
vn -0.29840 -0.84325 -0.44709
vn -0.25425 -0.71873 -0.64714
vn 0.53876 0.20603 -0.81688
vn 0.53876 0.20603 -0.81688
vn 0.82736 0.07321 -0.55689
vn 0.82736 0.07321 -0.55689
vn -0.29840 -0.84325 -0.44709
vn -0.24070 0.93354 0.26564
vn 0.41684 0.46761 0.77948
vn -0.30389 0.74421 -0.59482
vn -0.21994 -0.80715 -0.54784
vn -0.30389 0.74421 -0.59482
vn 0.44590 0.89396 -0.04479
vn 0.61111 0.76889 -0.18803
vn 0.25285 0.96729 -0.02035
vn 0.25551 0.95851 -0.12638
vn 0.23784 0.96542 -0.10679
vn 0.43961 0.65660 -0.61288
vn 0.64620 0.40720 -0.64546
vn 0.47135 0.82793 -0.30391
vn -0.29776 -0.92036 0.25354
vn -0.97843 0.05453 0.19924
vn 0.37917 0.37263 -0.84698
vn 0.58746 0.74503 -0.31595
vn 0.57537 0.81273 -0.09178
vn 0.80332 -0.00000 -0.59555
vn 0.20455 0.81906 -0.53600
vn 0.58746 0.74503 -0.31595
vn 0.65221 0.75547 0.06232
vn 0.44003 0.81194 0.38356
vn 0.20455 0.81906 -0.53600
vn 0.27286 0.75884 0.59136
vn 0.01890 -0.00000 0.99982
vn 0.04240 -0.36127 0.93150
vn -0.18309 -0.17268 0.96781
vn -0.26293 0.00000 0.96482
vn -0.07718 -0.41372 -0.90713
vn 0.25513 -0.16549 -0.95264
vn 0.17508 -0.00000 -0.98455
vn -0.03895 -0.00000 -0.99924
vn 0.38319 -0.00000 0.92367
vn 0.27312 -0.04761 0.96080
vn 0.35890 -0.20182 0.91130
vn 0.38343 -0.00001 0.92357
vn -0.05628 -0.53870 -0.84061
vn -0.08784 -0.00000 -0.99613
vn -0.87835 -0.37720 -0.29363
vn -0.32860 -0.54357 -0.77237
vn -0.71052 0.00000 -0.70367
vn -0.96442 0.00000 -0.26437
vn -0.99257 0.00000 -0.12169
vn 0.32205 0.01468 -0.94661
vn 0.47666 -0.00000 -0.87909
vn 0.26233 -0.32738 0.90775
vn 0.29155 -0.00001 0.95656
vn 0.09126 0.80255 0.58957
vn 0.51042 0.69694 0.50374
vn 0.52310 0.82445 -0.21599
vn 0.36611 0.93027 0.02353
vn 0.17544 0.94814 -0.26505
vn 0.04895 0.99243 0.11265
vn 0.34651 0.87498 0.33814
vn 0.63410 0.76016 0.14170
vn 0.42591 -0.00000 -0.90477
vn 0.19452 -0.00000 -0.98090
vn 0.71015 -0.00000 -0.70405
vn -0.23077 0.68270 -0.69330
vn -0.47076 0.66492 0.57989
vn 0.62048 0.74749 -0.23720
vn -0.70784 0.61066 0.35504
vn -0.77785 0.00000 0.62845
vn -0.53624 -0.01655 0.84391
vn -0.95756 0.01973 0.28754
vn -0.21994 -0.80715 -0.54784
vn -0.16278 -0.82485 -0.54141
vn -0.15623 0.60758 -0.77874
vn -0.15623 0.60758 -0.77874
vn -0.16278 -0.82485 -0.54141
vn -0.95554 -0.05135 -0.29035
vn -0.95554 -0.05135 -0.29035
vn -0.60788 0.79385 0.01673
vn -0.93941 0.00000 0.34280
vn -0.72830 0.68003 0.08456
vn -0.70971 0.35779 -0.60688
vn -0.11235 0.65945 -0.74331
vn -0.42546 0.90460 -0.02602
vn -0.58256 0.81135 -0.04833
vn -0.66402 0.55648 -0.49940
vn 0.36706 0.33804 -0.86660
vn -0.28966 0.94807 -0.13139
vn 0.85008 0.09374 -0.51825
vn 0.36706 0.33804 -0.86660
vn 0.85008 0.09374 -0.51825
vn -0.12842 -0.98182 -0.13975
vn -0.66402 0.55648 -0.49940
vn -0.70971 0.35779 -0.60688
vn 0.64362 -0.39976 -0.65264
vn -0.71237 -0.69806 0.07238
vn 0.22746 -0.00000 -0.97379
vn -0.11235 0.65945 -0.74331
vn 0.64781 0.00000 -0.76180
vn -0.12842 -0.98182 -0.13975
vn -0.07254 0.94275 -0.32553
vn -0.07254 0.94275 -0.32553
vn -0.71237 -0.69806 0.07238
vn -0.48703 0.79097 -0.37036
vn 0.64362 -0.39976 -0.65264
vn -0.48703 0.79097 -0.37036
vn -0.99973 0.00000 0.02344
vn -0.12819 0.00000 -0.99175
vn 0.30337 0.94042 -0.15359
vn -0.04028 0.99589 -0.08109
vn -0.07549 0.98415 -0.16047
vn 0.27198 0.94575 -0.17771
vn -0.44524 0.87393 -0.19494
vn -0.09395 0.96860 -0.23020
vn -0.42787 0.90045 -0.07819
vn 0.07267 -0.00000 0.99736
vn 0.63435 -0.00000 -0.77305
vn -0.01887 -0.65487 -0.75551
vn -0.03668 -0.00000 -0.99933
vn -0.27316 -0.00000 -0.96197
vn -0.39262 0.77358 -0.49742
vn 0.80332 -0.00000 -0.59555
vn -0.19659 -0.00000 0.98049
vn 0.16431 -0.00000 0.98641
vn 0.92686 -0.00000 -0.37540
vn 0.09224 -0.00000 -0.99574
vn -0.12819 0.00000 -0.99175
vn 0.31287 0.93923 -0.14126
vn -0.08530 0.99496 0.05270
vn -0.10077 0.99491 -0.00067
vn 0.32810 0.92926 -0.16978
vn -0.52190 0.84453 0.11999
vn -0.10451 0.99396 -0.03340
vn -0.49139 0.85430 0.16945
vn -0.49015 0.21684 0.84424
vn 0.63679 -0.66900 0.38332
vn 0.34233 -0.88085 0.32698
vn -0.47076 -0.66492 0.57989
vn -0.42773 0.20892 0.87943
vn 0.49356 -0.59528 0.63406
vn -0.42773 0.20892 0.87943
vn -0.49015 0.21684 0.84424
vn -0.72669 0.68458 -0.05717
vn 0.05309 -0.69117 0.72074
vn 0.51042 -0.69694 0.50374
vn 0.05309 -0.69117 0.72074
vn 0.69739 -0.70824 0.10976
vn 0.65221 -0.75547 0.06232
vn 0.70823 -0.55382 -0.43783
vn -0.11489 0.40161 -0.90858
vn -0.36138 0.09606 -0.92746
vn 0.62723 -0.71615 -0.30614
vn 0.51554 -0.83532 -0.19096
vn -0.23077 -0.68270 -0.69330
vn -0.36138 0.09606 -0.92746
vn -0.11489 0.40161 -0.90858
vn 0.33966 -0.91142 0.23225
vn 0.62048 -0.74749 -0.23720
vn 0.53759 -0.83829 0.09095
vn -0.12380 -0.69583 0.70745
vn 0.06366 -0.71408 0.69717
vn -0.17625 -0.98163 -0.07309
vn 0.16166 -0.96354 -0.21321
vn -0.97501 -0.22152 0.01702
vn -0.34772 -0.74797 -0.56536
vn 0.24094 -0.96599 -0.09381
vn 0.11543 -0.97278 0.20094
vn 0.20455 -0.81906 -0.53600
vn 0.45289 -0.66015 -0.59925
vn 0.17492 -0.70922 -0.68294
vn 0.33767 -0.91523 -0.21983
vn 0.68089 -0.64236 -0.35181
vn 0.63476 -0.73504 0.23832
vn 0.49693 -0.84432 0.20045
vn 0.51923 -0.63964 0.56680
vn -0.29980 -0.66854 0.68057
vn -0.02750 -0.58247 0.81239
vn 0.23824 -0.97087 0.02565
vn 0.37681 -0.91243 0.15968
vn 0.15302 -0.96776 0.20007
vn 0.11449 -0.97607 0.18488
vn 0.00344 -0.73906 0.67363
vn -0.04024 -0.44089 0.89666
vn 0.21276 -0.92214 0.32310
vn 0.20576 -0.94604 0.25035
vn 0.37735 -0.92607 0.00202
vn 0.11002 -0.66831 0.73570
vn 0.15668 -0.98436 0.08058
vn -0.75033 -0.65437 -0.09378
vn -0.66168 -0.74350 -0.09686
vn -0.97950 0.00000 -0.20146
vn -0.56434 -0.81362 0.13978
vn 0.09126 -0.80255 0.58957
vn -0.33555 -0.83892 0.42852
vn 0.41727 -0.90817 -0.03339
vn 0.33966 -0.91142 0.23225
vn -0.01887 0.65487 -0.75551
vn 0.25144 -0.61673 -0.74594
vn 0.29617 -0.76652 -0.56985
vn -0.37881 -0.91072 0.16458
vn -0.42938 -0.59362 0.68062
vn -0.36259 -0.93073 -0.04775
vn -0.46366 -0.87423 0.14399
vn -0.57840 -0.63170 0.51615
vn 0.71316 -0.03098 0.70032
vn -0.28328 -0.94424 0.16784
vn -0.00160 -0.99640 -0.08480
vn 0.89937 0.22202 -0.37662
vn -0.21994 0.80715 -0.54784
vn -0.12040 0.92744 0.35407
vn -0.29776 0.92036 0.25354
vn 0.61114 -0.11560 0.78303
vn 0.42372 0.27879 0.86182
vn -0.97501 -0.22152 0.01702
vn 0.16166 -0.96354 -0.21321
vn -0.99377 -0.00718 0.11124
vn 0.72740 -0.21679 -0.65107
vn -0.01887 0.65487 -0.75551
vn -0.06007 0.99769 -0.03166
vn -0.99928 -0.02161 0.03107
vn 0.32990 -0.59515 0.73278
vn 0.30256 -0.92416 0.23322
vn 0.13762 -0.97348 0.18276
vn 0.35213 -0.92785 -0.12288
vn 0.38392 -0.38712 -0.83830
vn 0.12178 -0.68056 0.72250
vn 0.20050 -0.94000 0.27605
vn 0.04982 -0.95462 0.29364
vn -0.06007 0.99769 -0.03166
vn -0.01887 0.65487 -0.75551
vn 0.21981 -0.58876 0.77784
vn 0.05309 -0.69117 0.72074
vn 0.37827 -0.91297 -0.15293
vn -0.06925 -0.98778 -0.13963
vn -0.13418 -0.98656 0.09321
vn 0.35452 -0.86683 -0.35059
vn -0.67276 -0.63509 0.37955
vn 0.60692 -0.79452 -0.01954
vn 0.02087 -0.98348 0.17983
vn 0.16940 -0.98533 0.02093
vn -0.42493 -0.89452 -0.13877
vn 0.17705 -0.47652 0.86115
vn 0.40162 -0.28851 0.86917
vn -0.25450 -0.55275 -0.79354
vn -0.25450 -0.55275 -0.79354
vn 0.55757 0.53658 -0.63340
vn 0.83555 -0.32621 -0.44209
vn -0.42493 -0.89452 -0.13877
vn 0.83555 -0.32621 -0.44209
vn 0.55757 0.53658 -0.63340
vn 0.39725 -0.02944 0.91724
vn 0.06852 -0.62706 -0.77595
vn 0.42271 -0.01690 0.90611
vn 0.77486 0.14421 -0.61546
vn 0.19795 0.81207 -0.54896
vn 0.06852 -0.62706 -0.77595
vn 0.19795 0.81207 -0.54896
vn 0.77486 0.14421 -0.61546
vn 0.25627 0.45099 0.85494
vn 0.56247 0.09729 -0.82107
vn 0.38901 -0.51520 -0.76370
vn 0.40796 0.28673 0.86680
vn 0.56247 0.09729 -0.82107
vn -0.25425 0.71873 -0.64714
vn 0.38901 -0.51520 -0.76370
vn -0.29840 0.84325 -0.44709
vn -0.25425 0.71873 -0.64714
vn 0.53876 -0.20603 -0.81688
vn 0.53876 -0.20603 -0.81688
vn 0.82736 -0.07321 -0.55689
vn 0.82736 -0.07321 -0.55689
vn -0.29840 0.84325 -0.44709
vn -0.24070 -0.93354 0.26564
vn 0.41684 -0.46761 0.77948
vn -0.21994 0.80715 -0.54784
vn -0.30389 -0.74421 -0.59482
vn -0.30389 -0.74421 -0.59482
vn 0.61110 -0.76889 -0.18803
vn 0.44590 -0.89396 -0.04479
vn 0.25285 -0.96729 -0.02035
vn 0.25551 -0.95850 -0.12643
vn 0.23782 -0.96542 -0.10682
vn 0.42359 -0.67070 -0.60887
vn 0.47135 -0.82793 -0.30391
vn 0.64620 -0.40720 -0.64546
vn -0.29776 0.92036 0.25354
vn -0.97843 -0.05453 0.19923
vn 0.38392 -0.38712 -0.83830
vn 0.58746 -0.74503 -0.31595
vn 0.57537 -0.81273 -0.09178
vn 0.20455 -0.81906 -0.53600
vn 0.58746 -0.74503 -0.31595
vn 0.65221 -0.75547 0.06232
vn 0.44003 -0.81194 0.38356
vn 0.20455 -0.81906 -0.53600
vn 0.27286 -0.75884 0.59136
vn -0.18309 0.17268 0.96781
vn 0.04239 0.36127 0.93150
vn -0.07718 0.41372 -0.90713
vn 0.25513 0.16549 -0.95264
vn 0.35890 0.20181 0.91130
vn 0.27312 0.04761 0.96080
vn -0.05628 0.53870 -0.84061
vn -0.87835 0.37720 -0.29364
vn -0.32860 0.54357 -0.77237
vn 0.32205 -0.01468 -0.94661
vn 0.26233 0.32736 0.90775
vn 0.09126 -0.80255 0.58957
vn 0.51042 -0.69694 0.50374
vn 0.52310 -0.82445 -0.21599
vn 0.17543 -0.94814 -0.26505
vn 0.36611 -0.93027 0.02353
vn 0.04895 -0.99243 0.11265
vn 0.34651 -0.87498 0.33814
vn 0.63410 -0.76016 0.14170
vn -0.23077 -0.68270 -0.69330
vn -0.47076 -0.66492 0.57989
vn 0.62048 -0.74749 -0.23720
vn -0.70784 -0.61066 0.35504
vn -0.53624 0.01656 0.84391
vn -0.16278 0.82485 -0.54141
vn -0.21994 0.80715 -0.54784
vn -0.95756 -0.01973 0.28754
vn -0.15623 -0.60758 -0.77874
vn -0.16278 0.82485 -0.54141
vn -0.15623 -0.60758 -0.77874
vn -0.95554 0.05135 -0.29035
vn -0.95554 0.05135 -0.29035
vn -0.60788 -0.79385 0.01673
vn -0.72830 -0.68003 0.08456
vn -0.70971 -0.35779 -0.60688
vn -0.11235 -0.65945 -0.74331
vn -0.42546 -0.90460 -0.02602
vn -0.58256 -0.81135 -0.04833
vn -0.66402 -0.55648 -0.49941
vn 0.36706 -0.33804 -0.86660
vn 0.85008 -0.09374 -0.51824
vn -0.28966 -0.94807 -0.13139
vn 0.36706 -0.33804 -0.86660
vn -0.66402 -0.55648 -0.49941
vn -0.12842 0.98182 -0.13975
vn 0.85008 -0.09374 -0.51824
vn -0.70971 -0.35779 -0.60688
vn -0.71237 0.69806 0.07238
vn 0.64362 0.39976 -0.65264
vn -0.11235 -0.65945 -0.74331
vn -0.07254 -0.94275 -0.32553
vn -0.12842 0.98182 -0.13975
vn -0.07254 -0.94275 -0.32553
vn -0.48703 -0.79097 -0.37036
vn -0.71237 0.69806 0.07238
vn 0.64362 0.39976 -0.65264
vn -0.48703 -0.79097 -0.37036
vn 0.30336 -0.94042 -0.15359
vn 0.27198 -0.94575 -0.17771
vn -0.07549 -0.98415 -0.16047
vn -0.04028 -0.99589 -0.08109
vn -0.09395 -0.96860 -0.23020
vn -0.44524 -0.87393 -0.19494
vn -0.42787 -0.90045 -0.07819
vn -0.01887 0.65487 -0.75551
vn -0.34772 -0.74797 -0.56536
vn 0.31287 -0.93923 -0.14126
vn 0.32810 -0.92926 -0.16978
vn -0.10077 -0.99491 -0.00067
vn -0.08530 -0.99496 0.05270
vn -0.10451 -0.99396 -0.03340
vn -0.52190 -0.84453 0.11999
vn -0.49139 -0.85430 0.16945
f 208/208/208 463/463/463 457/457/457
f 201/201/201 460/460/460 462/462/462
f 462/462/462 204/204/204 201/201/201
f 201/201/201 204/204/204 203/203/203
f 202/202/202 203/203/203 204/204/204
f 204/204/204 462/462/462 461/461/461
f 461/461/461 205/205/205 204/204/204
f 204/204/204 205/205/205 202/202/202
f 202/202/202 205/205/205 206/206/206
f 461/461/461 206/206/206 205/205/205
f 90/90/90 95/95/95 103/103/103
f 103/103/103 91/91/91 90/90/90
f 164/164/164 90/90/90 93/93/93
f 164/164/164 97/97/97 90/90/90
f 95/95/95 90/90/90 98/98/98
f 97/97/97 98/98/98 90/90/90
f 92/92/92 93/93/93 90/90/90
f 90/90/90 91/91/91 92/92/92
f 98/98/98 96/96/96 95/95/95
f 94/94/94 95/95/95 96/96/96
f 98/98/98 97/97/97 144/144/144
f 96/96/96 98/98/98 149/149/149
f 200/200/200 192/192/192 195/195/195
f 194/194/194 195/195/195 192/192/192
f 192/192/192 193/193/193 194/194/194
f 203/203/203 200/200/200 201/201/201
f 195/195/195 201/201/201 200/200/200
f 195/195/195 456/456/456 460/460/460
f 460/460/460 201/201/201 195/195/195
f 456/456/456 195/195/195 194/194/194
f 457/457/457 194/194/194 208/208/208
f 194/194/194 457/457/457 456/456/456
f 208/208/208 194/194/194 193/193/193
f 193/193/193 207/207/207 208/208/208
f 144/144/144 149/149/149 98/98/98
f 139/139/139 97/97/97 164/164/164
f 97/97/97 142/142/142 144/144/144
f 139/139/139 142/142/142 97/97/97
f 144/144/144 152/152/152 151/151/151
f 151/151/151 149/149/149 144/144/144
f 141/141/141 145/145/145 144/144/144
f 144/144/144 142/142/142 141/141/141
f 149/149/149 156/156/156 96/96/96
f 156/156/156 149/149/149 151/151/151
f 156/156/156 94/94/94 96/96/96
f 151/151/151 157/157/157 156/156/156
f 157/157/157 151/151/151 150/150/150
f 150/150/150 151/151/151 152/152/152
f 145/145/145 141/141/141 160/160/160
f 141/141/141 143/143/143 160/160/160
f 139/139/139 143/143/143 141/141/141
f 141/141/141 142/142/142 139/139/139
f 164/164/164 134/134/134 139/139/139
f 133/133/133 140/140/140 139/139/139
f 139/139/139 134/134/134 133/133/133
f 93/93/93 163/163/163 164/164/164
f 134/134/134 164/164/164 163/163/163
f 163/163/163 131/131/131 134/134/134
f 133/133/133 134/134/134 131/131/131
f 140/140/140 133/133/133 158/158/158
f 133/133/133 132/132/132 158/158/158
f 131/131/131 132/132/132 133/133/133
f 167/167/167 131/131/131 163/163/163
f 93/93/93 167/167/167 163/163/163
f 228/228/228 167/167/167 93/93/93
f 227/227/227 231/231/231 167/167/167
f 167/167/167 228/228/228 227/227/227
f 93/93/93 92/92/92 105/105/105
f 105/105/105 177/177/177 93/93/93
f 93/93/93 177/177/177 228/228/228
f 228/228/228 177/177/177 176/176/176
f 176/176/176 229/229/229 228/228/228
f 227/227/227 228/228/228 229/229/229
f 231/231/231 227/227/227 234/234/234
f 227/227/227 230/230/230 234/234/234
f 229/229/229 230/230/230 227/227/227
f 105/105/105 114/114/114 176/176/176
f 176/176/176 177/177/177 105/105/105
f 105/105/105 100/100/100 114/114/114
f 100/100/100 105/105/105 92/92/92
f 99/99/99 115/115/115 114/114/114
f 362/362/362 365/365/365 376/376/376
f 376/376/376 368/368/368 362/362/362
f 363/363/363 362/362/362 431/431/431
f 431/431/431 362/362/362 369/369/369
f 370/370/370 362/362/362 368/368/368
f 369/369/369 362/362/362 370/370/370
f 364/364/364 365/365/365 362/362/362
f 362/362/362 363/363/363 364/364/364
f 375/375/375 376/376/376 365/365/365
f 365/365/365 374/374/374 375/375/375
f 374/374/374 365/365/365 364/364/364
f 377/377/377 364/364/364 363/363/363
f 368/368/368 367/367/367 370/370/370
f 416/416/416 370/370/370 367/367/367
f 367/367/367 423/423/423 416/416/416
f 419/419/419 416/416/416 423/423/423
f 424/424/424 417/417/417 419/419/419
f 423/423/423 424/424/424 419/419/419
f 417/417/417 418/418/418 419/419/419
f 423/423/423 367/367/367 366/366/366
f 366/366/366 367/367/367 368/368/368
f 253/253/253 252/252/252 263/263/263
f 249/249/249 248/248/248 259/259/259
f 502/502/502 497/497/497 500/500/500
f 500/500/500 501/501/501 502/502/502
f 501/501/501 510/510/510 502/502/502
f 496/496/496 497/497/497 498/498/498
f 498/498/498 499/499/499 496/496/496
f 498/498/498 506/506/506 499/499/499
f 303/303/303 298/298/298 300/300/300
f 298/298/298 299/299/299 300/300/300
f 452/452/452 303/303/303 300/300/300
f 452/452/452 300/300/300 313/313/313
f 300/300/300 312/312/312 313/313/313
f 300/300/300 299/299/299 312/312/312
f 299/299/299 474/474/474 473/473/473
f 473/473/473 312/312/312 299/299/299
f 12/12/12 8/8/8 7/7/7
f 7/7/7 8/8/8 9/9/9
f 186/186/186 8/8/8 12/12/12
f 186/186/186 22/22/22 8/8/8
f 8/8/8 22/22/22 21/21/21
f 8/8/8 21/21/21 9/9/9
f 9/9/9 21/21/21 222/222/222
f 222/222/222 223/223/223 9/9/9
f 373/373/373 364/364/364 377/377/377
f 364/364/364 372/372/372 374/374/374
f 364/364/364 373/373/373 371/371/371
f 371/371/371 372/372/372 364/364/364
f 374/374/374 372/372/372 445/445/445
f 375/375/375 374/374/374 445/445/445
f 371/371/371 373/373/373 386/386/386
f 386/386/386 387/387/387 371/371/371
f 377/377/377 386/386/386 373/373/373
f 443/443/443 386/386/386 377/377/377
f 363/363/363 444/444/444 377/377/377
f 377/377/377 444/444/444 443/443/443
f 480/480/480 479/479/479 443/443/443
f 443/443/443 444/444/444 480/480/480
f 480/480/480 444/444/444 363/363/363
f 363/363/363 434/434/434 480/480/480
f 363/363/363 430/430/430 434/434/434
f 431/431/431 430/430/430 363/363/363
f 477/477/477 480/480/480 434/434/434
f 479/479/479 480/480/480 477/477/477
f 477/477/477 478/478/478 479/479/479
f 481/481/481 484/484/484 477/477/477
f 477/477/477 484/484/484 478/478/478
f 434/434/434 481/481/481 477/477/477
f 434/434/434 430/430/430 398/398/398
f 399/399/399 398/398/398 430/430/430
f 430/430/430 431/431/431 399/399/399
f 406/406/406 431/431/431 369/369/369
f 431/431/431 406/406/406 399/399/399
f 400/400/400 399/399/399 406/406/406
f 398/398/398 399/399/399 400/400/400
f 400/400/400 401/401/401 398/398/398
f 407/407/407 425/425/425 400/400/400
f 400/400/400 425/425/425 401/401/401
f 406/406/406 407/407/407 400/400/400
f 406/406/406 369/369/369 410/410/410
f 406/406/406 410/410/410 408/408/408
f 408/408/408 409/409/409 406/406/406
f 370/370/370 411/411/411 369/369/369
f 369/369/369 411/411/411 410/410/410
f 408/408/408 410/410/410 411/411/411
f 412/412/412 427/427/427 408/408/408
f 408/408/408 427/427/427 409/409/409
f 411/411/411 412/412/412 408/408/408
f 411/411/411 416/416/416 419/419/419
f 419/419/419 418/418/418 411/411/411
f 411/411/411 370/370/370 416/416/416
f 37/37/37 40/40/40 283/283/283
f 283/283/283 41/41/41 37/37/37
f 38/38/38 37/37/37 41/41/41
f 39/39/39 40/40/40 37/37/37
f 37/37/37 38/38/38 39/39/39
f 40/40/40 79/79/79 82/82/82
f 82/82/82 283/283/283 40/40/40
f 40/40/40 39/39/39 171/171/171
f 171/171/171 79/79/79 40/40/40
f 326/326/326 41/41/41 283/283/283
f 283/283/283 327/327/327 326/326/326
f 327/327/327 283/283/283 82/82/82
f 120/120/120 71/71/71 75/75/75
f 75/75/75 74/74/74 120/120/120
f 74/74/74 75/75/75 72/72/72
f 71/71/71 120/120/120 121/121/121
f 121/121/121 69/69/69 71/71/71
f 70/70/70 71/71/71 69/69/69
f 122/122/122 121/121/121 120/120/120
f 69/69/69 121/121/121 123/123/123
f 52/52/52 123/123/123 121/121/121
f 121/121/121 122/122/122 52/52/52
f 123/123/123 66/66/66 69/69/69
f 69/69/69 68/68/68 70/70/70
f 68/68/68 69/69/69 66/66/66
f 123/123/123 124/124/124 66/66/66
f 123/123/123 55/55/55 61/61/61
f 61/61/61 48/48/48 123/123/123
f 48/48/48 124/124/124 123/123/123
f 52/52/52 55/55/55 123/123/123
f 172/172/172 52/52/52 122/122/122
f 54/54/54 55/55/55 52/52/52
f 277/277/277 278/278/278 247/247/247
f 277/277/277 497/497/497 496/496/496
f 496/496/496 519/519/519 277/277/277
f 277/277/277 500/500/500 497/497/497
f 254/254/254 500/500/500 277/277/277
f 277/277/277 519/519/519 518/518/518
f 247/247/247 250/250/250 277/277/277
f 277/277/277 250/250/250 251/251/251
f 254/254/254 277/277/277 251/251/251
f 249/249/249 250/250/250 247/247/247
f 247/247/247 248/248/248 249/249/249
f 251/251/251 250/250/250 252/252/252
f 254/254/254 251/251/251 255/255/255
f 252/252/252 253/253/253 251/251/251
f 503/503/503 500/500/500 254/254/254
f 254/254/254 256/256/256 503/503/503
f 255/255/255 256/256/256 254/254/254
f 284/284/284 256/256/256 255/255/255
f 284/284/284 503/503/503 256/256/256
f 41/41/41 326/326/326 329/329/329
f 329/329/329 42/42/42 41/41/41
f 41/41/41 42/42/42 38/38/38
f 328/328/328 329/329/329 326/326/326
f 326/326/326 327/327/327 328/328/328
f 82/82/82 355/355/355 327/327/327
f 327/327/327 355/355/355 438/438/438
f 438/438/438 328/328/328 327/327/327
f 355/355/355 82/82/82 81/81/81
f 81/81/81 82/82/82 79/79/79
f 438/438/438 355/355/355 356/356/356
f 81/81/81 356/356/356 355/355/355
f 356/356/356 439/439/439 438/438/438
f 439/439/439 356/356/356 393/393/393
f 221/221/221 393/393/393 356/356/356
f 356/356/356 81/81/81 221/221/221
f 221/221/221 81/81/81 80/80/80
f 79/79/79 80/80/80 81/81/81
f 221/221/221 119/119/119 390/390/390
f 390/390/390 393/393/393 221/221/221
f 80/80/80 122/122/122 221/221/221
f 221/221/221 122/122/122 120/120/120
f 120/120/120 119/119/119 221/221/221
f 393/393/393 335/335/335 439/439/439
f 393/393/393 390/390/390 391/391/391
f 335/335/335 393/393/393 391/391/391
f 391/391/391 390/390/390 349/349/349
f 390/390/390 352/352/352 351/351/351
f 351/351/351 349/349/349 390/390/390
f 352/352/352 390/390/390 119/119/119
f 119/119/119 118/118/118 352/352/352
f 119/119/119 120/120/120 74/74/74
f 74/74/74 118/118/118 119/119/119
f 475/475/475 352/352/352 118/118/118
f 352/352/352 475/475/475 353/353/353
f 352/352/352 353/353/353 350/350/350
f 350/350/350 351/351/351 352/352/352
f 349/349/349 351/351/351 76/76/76
f 77/77/77 76/76/76 351/351/351
f 351/351/351 350/350/350 77/77/77
f 76/76/76 70/70/70 349/349/349
f 349/349/349 347/347/347 391/391/391
f 347/347/347 349/349/349 70/70/70
f 76/76/76 75/75/75 71/71/71
f 71/71/71 70/70/70 76/76/76
f 75/75/75 76/76/76 77/77/77
f 77/77/77 72/72/72 75/75/75
f 440/440/440 382/382/382 381/381/381
f 381/381/381 323/323/323 440/440/440
f 320/320/320 319/319/319 381/381/381
f 381/381/381 382/382/382 320/320/320
f 441/441/441 323/323/323 325/325/325
f 440/440/440 323/323/323 441/441/441
f 323/323/323 324/324/324 325/325/325
f 325/325/325 324/324/324 389/389/389
f 389/389/389 324/324/324 383/383/383
f 383/383/383 388/388/388 389/389/389
f 466/466/466 389/389/389 453/453/453
f 389/389/389 388/388/388 453/453/453
f 453/453/453 388/388/388 465/465/465
f 453/453/453 451/451/451 466/466/466
f 451/451/451 453/453/453 465/465/465
f 450/450/450 466/466/466 451/451/451
f 451/451/451 316/316/316 450/450/450
f 465/465/465 314/314/314 451/451/451
f 314/314/314 316/316/316 451/451/451
f 447/447/447 446/446/446 450/450/450
f 450/450/450 316/316/316 447/447/447
f 447/447/447 316/316/316 315/315/315
f 314/314/314 315/315/315 316/316/316
f 441/441/441 447/447/447 315/315/315
f 446/446/446 447/447/447 441/441/441
f 441/441/441 325/325/325 446/446/446
f 442/442/442 441/441/441 315/315/315
f 441/441/441 442/442/442 440/440/440
f 315/315/315 181/181/181 442/442/442
f 274/274/274 442/442/442 181/181/181
f 442/442/442 274/274/274 219/219/219
f 219/219/219 440/440/440 442/442/442
f 382/382/382 440/440/440 219/219/219
f 219/219/219 220/220/220 382/382/382
f 174/174/174 173/173/173 219/219/219
f 219/219/219 274/274/274 174/174/174
f 110/110/110 220/220/220 219/219/219
f 219/219/219 173/173/173 110/110/110
f 274/274/274 181/181/181 174/174/174
f 174/174/174 181/181/181 25/25/25
f 25/25/25 175/175/175 174/174/174
f 173/173/173 174/174/174 175/175/175
f 173/173/173 34/34/34 109/109/109
f 109/109/109 110/110/110 173/173/173
f 175/175/175 34/34/34 173/173/173
f 110/110/110 276/276/276 220/220/220
f 275/275/275 276/276/276 110/110/110
f 30/30/30 110/110/110 109/109/109
f 382/382/382 220/220/220 276/276/276
f 518/518/518 276/276/276 277/277/277
f 518/518/518 382/382/382 276/276/276
f 277/277/277 276/276/276 275/275/275
f 275/275/275 278/278/278 277/277/277
f 287/287/287 288/288/288 285/285/285
f 285/285/285 286/286/286 287/287/287
f 291/291/291 289/289/289 287/287/287
f 287/287/287 286/286/286 291/291/291
f 288/288/288 287/287/287 290/290/290
f 287/287/287 289/289/289 290/290/290
f 522/522/522 523/523/523 520/520/520
f 520/520/520 521/521/521 522/522/522
f 526/526/526 523/523/523 522/522/522
f 522/522/522 525/525/525 526/526/526
f 521/521/521 524/524/524 522/522/522
f 522/522/522 524/524/524 525/525/525
f 280/280/280 281/281/281 117/117/117
f 116/116/116 117/117/117 112/112/112
f 388/388/388 281/281/281 280/280/280
f 280/280/280 465/465/465 388/388/388
f 383/383/383 273/273/273 281/281/281
f 281/281/281 388/388/388 383/383/383
f 281/281/281 273/273/273 112/112/112
f 27/27/27 112/112/112 273/273/273
f 112/112/112 36/36/36 116/116/116
f 36/36/36 112/112/112 27/27/27
f 35/35/35 116/116/116 36/36/36
f 34/34/34 36/36/36 111/111/111
f 27/27/27 111/111/111 36/36/36
f 34/34/34 35/35/35 36/36/36
f 273/273/273 28/28/28 27/27/27
f 111/111/111 27/27/27 26/26/26
f 26/26/26 27/27/27 28/28/28
f 318/318/318 28/28/28 273/273/273
f 273/273/273 383/383/383 318/318/318
f 28/28/28 318/318/318 317/317/317
f 317/317/317 29/29/29 28/28/28
f 28/28/28 29/29/29 26/26/26
f 83/83/83 26/26/26 29/29/29
f 113/113/113 111/111/111 26/26/26
f 84/84/84 113/113/113 26/26/26
f 26/26/26 83/83/83 84/84/84
f 111/111/111 109/109/109 34/34/34
f 109/109/109 111/111/111 113/113/113
f 113/113/113 31/31/31 109/109/109
f 31/31/31 113/113/113 84/84/84
f 84/84/84 83/83/83 87/87/87
f 87/87/87 85/85/85 84/84/84
f 84/84/84 32/32/32 31/31/31
f 86/86/86 32/32/32 84/84/84
f 84/84/84 85/85/85 86/86/86
f 29/29/29 88/88/88 83/83/83
f 87/87/87 83/83/83 88/88/88
f 85/85/85 87/87/87 225/225/225
f 225/225/225 87/87/87 89/89/89
f 88/88/88 89/89/89 87/87/87
f 241/241/241 86/86/86 85/85/85
f 85/85/85 236/236/236 241/241/241
f 225/225/225 236/236/236 85/85/85
f 245/245/245 86/86/86 243/243/243
f 86/86/86 244/244/244 32/32/32
f 244/244/244 86/86/86 245/245/245
f 241/241/241 243/243/243 86/86/86
f 359/359/359 360/360/360 357/357/357
f 361/361/361 358/358/358 357/357/357
f 88/88/88 358/358/358 361/361/361
f 361/361/361 89/89/89 88/88/88
f 357/357/357 385/385/385 319/319/319
f 319/319/319 322/322/322 357/357/357
f 357/357/357 317/317/317 385/385/385
f 357/357/357 322/322/322 359/359/359
f 317/317/317 357/357/357 358/358/358
f 492/492/492 359/359/359 495/495/495
f 359/359/359 322/322/322 493/493/493
f 495/495/495 359/359/359 493/493/493
f 490/490/490 359/359/359 492/492/492
f 491/491/491 490/490/490 492/492/492
f 495/495/495 505/505/505 492/492/492
f 492/492/492 509/509/509 491/491/491
f 494/494/494 504/504/504 495/495/495
f 495/495/495 504/504/504 505/505/505
f 493/493/493 494/494/494 495/495/495
f 509/509/509 507/507/507 491/491/491
f 491/491/491 507/507/507 508/508/508
f 29/29/29 317/317/317 358/358/358
f 385/385/385 317/317/317 384/384/384
f 384/384/384 317/317/317 318/318/318
f 358/358/358 88/88/88 29/29/29
f 324/324/324 384/384/384 318/318/318
f 318/318/318 383/383/383 324/324/324
f 323/323/323 381/381/381 384/384/384
f 384/384/384 324/324/324 323/323/323
f 385/385/385 384/384/384 381/381/381
f 381/381/381 319/319/319 385/385/385
f 52/52/52 53/53/53 54/54/54
f 122/122/122 80/80/80 172/172/172
f 171/171/171 172/172/172 80/80/80
f 80/80/80 79/79/79 171/171/171
f 129/129/129 53/53/53 130/130/130
f 129/129/129 54/54/54 53/53/53
f 129/129/129 65/65/65 54/54/54
f 65/65/65 62/62/62 54/54/54
f 54/54/54 62/62/62 55/55/55
f 58/58/58 129/129/129 106/106/106
f 130/130/130 106/106/106 129/129/129
f 58/58/58 65/65/65 129/129/129
f 106/106/106 130/130/130 170/170/170
f 170/170/170 107/107/107 106/106/106
f 106/106/106 63/63/63 58/58/58
f 63/63/63 106/106/106 107/107/107
f 107/107/107 170/170/170 168/168/168
f 168/168/168 45/45/45 107/107/107
f 268/268/268 269/269/269 266/266/266
f 266/266/266 267/267/267 268/268/268
f 272/272/272 270/270/270 268/268/268
f 268/268/268 267/267/267 272/272/272
f 269/269/269 268/268/268 271/271/271
f 268/268/268 270/270/270 271/271/271
f 513/513/513 514/514/514 511/511/511
f 511/511/511 512/512/512 513/513/513
f 517/517/517 514/514/514 513/513/513
f 513/513/513 516/516/516 517/517/517
f 512/512/512 515/515/515 513/513/513
f 513/513/513 515/515/515 516/516/516
f 114/114/114 100/100/100 99/99/99
f 99/99/99 100/100/100 92/92/92
f 92/92/92 101/101/101 99/99/99
f 92/92/92 91/91/91 102/102/102
f 102/102/102 101/101/101 92/92/92
f 102/102/102 178/178/178 101/101/101
f 104/104/104 178/178/178 102/102/102
f 104/104/104 102/102/102 91/91/91
f 91/91/91 103/103/103 104/104/104
f 185/185/185 23/23/23 211/211/211
f 23/23/23 185/185/185 24/24/24
f 23/23/23 24/24/24 25/25/25
f 212/212/212 185/185/185 187/187/187
f 185/185/185 212/212/212 184/184/184
f 184/184/184 24/24/24 185/185/185
f 211/211/211 187/187/187 185/185/185
f 117/117/117 211/211/211 280/280/280
f 187/187/187 211/211/211 117/117/117
f 187/187/187 116/116/116 212/212/212
f 116/116/116 187/187/187 117/117/117
f 112/112/112 117/117/117 281/281/281
f 3/3/3 2/2/2 19/19/19
f 16/16/16 20/20/20 19/19/19
f 19/19/19 17/17/17 16/16/16
f 15/15/15 13/13/13 16/16/16
f 15/15/15 16/16/16 17/17/17
f 14/14/14 13/13/13 15/15/15
f 13/13/13 14/14/14 11/11/11
f 15/15/15 183/183/183 14/14/14
f 15/15/15 18/18/18 182/182/182
f 182/182/182 183/183/183 15/15/15
f 17/17/17 18/18/18 15/15/15
f 294/294/294 310/310/310 311/311/311
f 311/311/311 310/310/310 309/309/309
f 309/309/309 308/308/308 311/311/311
f 306/306/306 309/309/309 304/304/304
f 308/308/308 309/309/309 306/306/306
f 306/306/306 304/304/304 305/305/305
f 302/302/302 305/305/305 304/304/304
f 305/305/305 449/449/449 306/306/306
f 306/306/306 449/449/449 448/448/448
f 448/448/448 307/307/307 306/306/306
f 306/306/306 307/307/307 308/308/308
f 175/175/175 35/35/35 34/34/34
f 175/175/175 25/25/25 180/180/180
f 175/175/175 180/180/180 179/179/179
f 179/179/179 35/35/35 175/175/175
f 180/180/180 25/25/25 24/24/24
f 180/180/180 24/24/24 184/184/184
f 184/184/184 179/179/179 180/180/180
f 118/118/118 74/74/74 224/224/224
f 74/74/74 73/73/73 224/224/224
f 72/72/72 73/73/73 74/74/74
f 118/118/118 279/279/279 475/475/475
f 224/224/224 279/279/279 118/118/118
f 5/5/5 6/6/6 1/1/1
f 1/1/1 4/4/4 5/5/5
f 3/3/3 4/4/4 1/1/1
f 1/1/1 2/2/2 3/3/3
f 13/13/13 5/5/5 4/4/4
f 11/11/11 5/5/5 13/13/13
f 5/5/5 11/11/11 10/10/10
f 10/10/10 6/6/6 5/5/5
f 16/16/16 13/13/13 4/4/4
f 20/20/20 16/16/16 4/4/4
f 4/4/4 3/3/3 20/20/20
f 19/19/19 20/20/20 3/3/3
f 297/297/297 293/293/293 292/292/292
f 292/292/292 296/296/296 297/297/297
f 294/294/294 295/295/295 292/292/292
f 292/292/292 293/293/293 294/294/294
f 304/304/304 293/293/293 297/297/297
f 304/304/304 297/297/297 302/302/302
f 297/297/297 296/296/296 301/301/301
f 301/301/301 302/302/302 297/297/297
f 309/309/309 293/293/293 304/304/304
f 310/310/310 294/294/294 293/293/293
f 293/293/293 309/309/309 310/310/310
f 311/311/311 295/295/295 294/294/294
f 218/218/218 214/214/214 213/213/213
f 213/213/213 214/214/214 215/215/215
f 217/217/217 214/214/214 218/218/218
f 215/215/215 214/214/214 216/216/216
f 216/216/216 214/214/214 217/217/217
f 472/472/472 467/467/467 469/469/469
f 467/467/467 468/468/468 469/469/469
f 471/471/471 472/472/472 469/469/469
f 468/468/468 470/470/470 469/469/469
f 470/470/470 471/471/471 469/469/469
f 332/332/332 331/331/331 379/379/379
f 332/332/332 378/378/378 126/126/126
f 379/379/379 378/378/378 332/332/332
f 436/436/436 437/437/437 379/379/379
f 380/380/380 379/379/379 437/437/437
f 379/379/379 380/380/380 344/344/344
f 344/344/344 378/378/378 379/379/379
f 378/378/378 344/344/344 64/64/64
f 64/64/64 126/126/126 378/378/378
f 339/339/339 344/344/344 380/380/380
f 344/344/344 339/339/339 59/59/59
f 59/59/59 64/64/64 344/344/344
f 437/437/437 397/397/397 380/380/380
f 380/380/380 396/396/396 339/339/339
f 396/396/396 380/380/380 397/397/397
f 339/339/339 396/396/396 345/345/345
f 339/339/339 345/345/345 341/341/341
f 341/341/341 340/340/340 339/339/339
f 339/339/339 340/340/340 56/56/56
f 56/56/56 59/59/59 339/339/339
f 58/58/58 59/59/59 56/56/56
f 334/334/334 50/50/50 56/56/56
f 56/56/56 340/340/340 334/334/334
f 49/49/49 57/57/57 56/56/56
f 56/56/56 50/50/50 49/49/49
f 56/56/56 57/57/57 58/58/58
f 334/334/334 340/340/340 341/341/341
f 342/342/342 333/333/333 334/334/334
f 341/341/341 342/342/342 334/334/334
f 50/50/50 334/334/334 333/333/333
f 341/341/341 345/345/345 343/343/343
f 342/342/342 341/341/341 343/343/343
f 392/392/392 333/333/333 342/342/342
f 342/342/342 336/336/336 392/392/392
f 336/336/336 342/342/342 343/343/343
f 333/333/333 392/392/392 394/394/394
f 51/51/51 333/333/333 394/394/394
f 333/333/333 51/51/51 50/50/50
f 50/50/50 51/51/51 48/48/48
f 48/48/48 49/49/49 50/50/50
f 394/394/394 125/125/125 51/51/51
f 51/51/51 125/125/125 124/124/124
f 124/124/124 48/48/48 51/51/51
f 392/392/392 346/346/346 394/394/394
f 67/67/67 125/125/125 394/394/394
f 394/394/394 346/346/346 67/67/67
f 124/124/124 125/125/125 67/67/67
f 67/67/67 66/66/66 124/124/124
f 348/348/348 67/67/67 346/346/346
f 66/66/66 67/67/67 68/68/68
f 347/347/347 346/346/346 392/392/392
f 346/346/346 347/347/347 348/348/348
f 70/70/70 348/348/348 347/347/347
f 109/109/109 31/31/31 30/30/30
f 32/32/32 33/33/33 30/30/30
f 30/30/30 31/31/31 32/32/32
f 78/78/78 33/33/33 32/32/32
f 319/319/319 320/320/320 321/321/321
f 321/321/321 322/322/322 319/319/319
f 354/354/354 322/322/322 321/321/321
f 487/487/487 264/264/264 237/237/237
f 237/237/237 226/226/226 476/476/476
f 476/476/476 487/487/487 237/237/237
f 225/225/225 226/226/226 237/237/237
f 89/89/89 226/226/226 225/225/225
f 476/476/476 226/226/226 89/89/89
f 476/476/476 486/486/486 488/488/488
f 487/487/487 476/476/476 488/488/488
f 476/476/476 361/361/361 360/360/360
f 360/360/360 486/486/486 476/476/476
f 89/89/89 361/361/361 476/476/476
f 488/488/488 489/489/489 487/487/487
f 488/488/488 486/486/486 491/491/491
f 491/491/491 508/508/508 488/488/488
f 486/486/486 490/490/490 491/491/491
f 490/490/490 486/486/486 360/360/360
f 360/360/360 359/359/359 490/490/490
f 357/357/357 360/360/360 361/361/361
f 243/243/243 241/241/241 242/242/242
f 236/236/236 242/242/242 241/241/241
f 242/242/242 236/236/236 239/239/239
f 225/225/225 239/239/239 236/236/236
f 239/239/239 260/260/260 242/242/242
f 242/242/242 262/262/262 243/243/243
f 262/262/262 242/242/242 261/261/261
f 242/242/242 260/260/260 261/261/261
f 243/243/243 257/257/257 245/245/245
f 245/245/245 257/257/257 258/258/258
f 246/246/246 245/245/245 258/258/258
f 245/245/245 246/246/246 244/244/244
f 238/238/238 240/240/240 239/239/239
f 239/239/239 225/225/225 238/238/238
f 240/240/240 238/238/238 264/264/264
f 238/238/238 237/237/237 264/264/264
f 237/237/237 238/238/238 225/225/225
f 264/264/264 265/265/265 240/240/240
f 489/489/489 265/265/265 264/264/264
f 264/264/264 487/487/487 489/489/489
f 188/188/188 455/455/455 464/464/464
f 464/464/464 210/210/210 188/188/188
f 454/454/454 455/455/455 188/188/188
f 188/188/188 191/191/191 454/454/454
f 188/188/188 210/210/210 209/209/209
f 209/209/209 189/189/189 188/188/188
f 190/190/190 191/191/191 188/188/188
f 188/188/188 189/189/189 190/190/190
f 209/209/209 210/210/210 199/199/199
f 199/199/199 198/198/198 209/209/209
f 199/199/199 210/210/210 464/464/464
f 464/464/464 458/458/458 199/199/199
f 402/402/402 426/426/426 403/403/403
f 404/404/404 405/405/405 402/402/402
f 402/402/402 403/403/403 404/404/404
f 404/404/404 433/433/433 405/405/405
f 433/433/433 404/404/404 415/415/415
f 415/415/415 404/404/404 413/413/413
f 483/483/483 433/433/433 432/432/432
f 415/415/415 432/432/432 433/433/433
f 429/429/429 432/432/432 415/415/415
f 429/429/429 415/415/415 422/422/422
f 413/413/413 414/414/414 415/415/415
f 413/413/413 428/428/428 414/414/414
f 135/135/135 138/138/138 159/159/159
f 137/137/137 138/138/138 135/135/135
f 135/135/135 136/136/136 137/137/137
f 137/137/137 136/136/136 165/165/165
f 147/147/147 137/137/137 165/165/165
f 146/146/146 137/137/137 147/147/147
f 166/166/166 165/165/165 232/232/232
f 165/165/165 166/166/166 147/147/147
f 162/162/162 147/147/147 166/166/166
f 154/154/154 147/147/147 162/162/162
f 147/147/147 148/148/148 146/146/146
f 146/146/146 148/148/148 161/161/161
f 162/162/162 155/155/155 154/154/154
f 153/153/153 154/154/154 155/155/155
f 233/233/233 232/232/232 235/235/235
f 232/232/232 233/233/233 166/166/166
f 422/422/422 421/421/421 429/429/429
f 420/420/420 421/421/421 422/422/422
f 432/432/432 482/482/482 483/483/483
f 482/482/482 485/485/485 483/483/483
f 392/392/392 391/391/391 347/347/347
f 335/335/335 392/392/392 336/336/336
f 391/391/391 392/392/392 335/335/335
f 337/337/337 338/338/338 335/335/335
f 335/335/335 336/336/336 337/337/337
f 337/337/337 336/336/336 343/343/343
f 396/396/396 337/337/337 345/345/345
f 396/396/396 338/338/338 337/337/337
f 345/345/345 337/337/337 343/343/343
f 397/397/397 338/338/338 396/396/396
f 61/61/61 49/49/49 48/48/48
f 55/55/55 62/62/62 61/61/61
f 61/61/61 62/62/62 60/60/60
f 49/49/49 61/61/61 60/60/60
f 60/60/60 57/57/57 49/49/49
f 60/60/60 62/62/62 65/65/65
f 58/58/58 60/60/60 65/65/65
f 60/60/60 58/58/58 57/57/57
f 196/196/196 199/199/199 458/458/458
f 198/198/198 199/199/199 196/196/196
f 196/196/196 197/197/197 198/198/198
f 458/458/458 459/459/459 196/196/196
f 107/107/107 45/45/45 44/44/44
f 44/44/44 108/108/108 107/107/107
f 107/107/107 108/108/108 63/63/63
f 64/64/64 63/63/63 108/108/108
f 63/63/63 64/64/64 59/59/59
f 59/59/59 58/58/58 63/63/63
f 126/126/126 108/108/108 44/44/44
f 108/108/108 126/126/126 64/64/64
f 44/44/44 46/46/46 126/126/126
f 46/46/46 44/44/44 43/43/43
f 43/43/43 44/44/44 45/45/45
f 43/43/43 45/45/45 168/168/168
f 168/168/168 127/127/127 43/43/43
f 47/47/47 43/43/43 127/127/127
f 43/43/43 47/47/47 46/46/46
f 127/127/127 168/168/168 169/169/169
f 128/128/128 127/127/127 169/169/169
f 127/127/127 128/128/128 47/47/47
f 395/395/395 330/330/330 47/47/47
f 47/47/47 128/128/128 395/395/395
f 46/46/46 47/47/47 330/330/330
f 126/126/126 46/46/46 332/332/332
f 330/330/330 332/332/332 46/46/46
f 330/330/330 395/395/395 436/436/436
f 436/436/436 331/331/331 330/330/330
f 330/330/330 331/331/331 332/332/332
f 435/435/435 395/395/395 128/128/128
f 395/395/395 435/435/435 436/436/436
f 128/128/128 282/282/282 435/435/435
f 169/169/169 282/282/282 128/128/128
f 379/379/379 331/331/331 436/436/436
