# dodo_ad_b reconstructed from live game memory
v -11.48671 67.96661 4.01468
v -0.00000 72.07374 5.51322
v -0.00000 67.05590 17.12401
v -11.14798 63.86671 16.36727
v -21.48389 24.91201 6.81516
v -22.06299 36.44807 8.86384
v -15.62921 32.65594 23.38629
v -16.20876 23.85652 15.19095
v -3.82895 89.01976 -75.60159
v -3.79800 91.25350 -69.15404
v -3.31508 87.62961 -68.47861
v -3.49130 85.72633 -73.43596
v -2.48649 86.36297 -76.23041
v 0.00000 85.09898 -77.05891
v 0.00000 87.90954 -78.66725
v -2.63704 88.33881 -76.95886
v -4.05940 93.37370 -79.88713
v -3.48625 96.35360 -78.37325
v -5.47001 94.23914 -74.89552
v -2.88567 97.85767 -75.04329
v 0.00000 98.98919 -75.03931
v 0.00000 98.91780 -70.66698
v -2.70686 97.81356 -70.44533
v -7.73209 106.74774 -44.23986
v -7.14216 109.89603 -48.52183
v 0.00000 111.60547 -47.40297
v -0.00000 108.31645 -41.65901
v -9.16852 101.59971 -52.89183
v -9.97690 97.24496 -52.38791
v -7.59666 96.89081 -57.79982
v -7.68437 101.32785 -55.46125
v -9.48411 103.80565 -52.43503
v -8.34697 105.16541 -54.48396
v -9.80544 105.07168 -48.01249
v -8.01441 103.16179 -54.09795
v -4.05304 104.95892 -61.44975
v 0.00000 106.03806 -62.27690
v 0.00000 110.89086 -56.22807
v -5.93532 109.00703 -55.97640
v -7.26948 103.52547 -56.05899
v -6.92008 100.64473 -41.26666
v -0.00000 101.87038 -38.29303
v -0.00000 95.11068 -38.47602
v -5.87332 94.14748 -40.82357
v 0.00000 87.32076 -34.37440
v -5.30319 85.75631 -36.63340
v -10.11362 26.27621 18.22853
v -9.41532 24.14821 6.09050
v -18.81690 38.87840 -3.34595
v -19.42222 50.22427 14.05083
v -10.47108 98.76802 -46.46718
v -4.46574 88.81940 -79.63490
v 0.00000 88.10156 -81.53085
v 0.00000 93.52438 -81.48509
v -2.87768 100.41187 -64.00203
v -4.39432 97.41242 -63.41920
v -4.40148 95.30047 -69.94753
v -4.96372 94.55725 -62.89074
v -3.13642 85.48276 -77.31253
v -5.87712 89.98770 -74.69749
v -4.70755 87.95439 -74.30042
v -4.45441 91.83487 -69.28203
v -7.48975 95.91926 -57.67322
v -5.39796 90.90869 -48.37767
v -5.96664 92.27008 -56.65837
v -7.00706 92.69186 -44.81060
v -4.81017 93.96390 -62.73029
v -4.22266 91.53170 -62.26817
v -16.10893 14.71116 13.07088
v -12.50752 14.76164 7.25801
v -4.78917 60.69398 35.50430
v -0.00000 61.55161 36.02690
v -0.00000 58.71789 39.33701
v -5.98192 57.88404 37.51559
v 0.00000 97.59493 -79.42088
v 0.00000 101.95314 -64.34839
v -11.28660 43.25047 27.01933
v -0.00000 39.97324 29.84880
v -0.00000 30.37002 25.41549
v -0.00000 24.15716 18.00812
v -6.56505 83.54087 -39.90092
v -16.89635 26.52147 -2.85405
v -19.91270 14.84670 7.74908
v -16.18334 14.85625 3.09469
v -13.09401 0.04366 6.18345
v -13.62578 5.19929 5.97704
v -12.36516 2.87938 3.50179
v -16.38245 4.71621 1.91423
v -13.72514 4.08726 1.84095
v -16.24480 6.49218 3.71952
v -23.08852 0.04354 1.20983
v -24.24427 0.09923 -4.02061
v -23.51498 1.25823 -4.87070
v -21.68727 2.77319 0.23194
v -24.24427 0.09923 -4.02061
v -23.08852 0.04354 1.20983
v -19.15807 0.04590 -0.27950
v -22.09744 0.04083 -4.59448
v -19.15807 0.04590 -0.27950
v -22.09744 0.04083 -4.59448
v -17.03238 1.21962 -7.91914
v -16.51984 2.76202 -0.40590
v -18.02708 0.04084 -7.41640
v -13.97168 0.04588 -0.74776
v -15.88864 0.04080 -7.68531
v -18.02708 0.04084 -7.41640
v -13.97168 0.04588 -0.74776
v -15.88864 0.04080 -7.68531
v -11.85354 2.34917 -0.21335
v -10.22055 0.03966 -7.81439
v -10.88017 1.81334 -4.83111
v -11.98500 0.04506 -4.95004
v -10.22055 0.03966 -7.81439
v -11.98500 0.04506 -4.95004
v -9.81704 0.04090 -4.73337
v -9.95010 0.04354 0.71816
v -9.81704 0.04090 -4.73337
v -24.30902 -0.05737 -7.07030
v -24.30902 -0.05737 -7.07030
v -17.18930 -0.09718 -10.26116
v -17.18930 -0.09718 -10.26116
v -9.95010 0.04354 0.71816
v -20.02761 2.08029 4.33816
v -19.26884 4.03601 2.33650
v -19.22573 0.03581 6.56302
v -13.09401 0.04366 6.18345
v -19.22573 0.03581 6.56302
v -18.49165 5.20234 6.44097
v -13.36582 13.29420 7.37057
v -16.22083 13.60762 4.80940
v -15.20396 1.54195 11.96050
v -15.17375 2.91089 9.51490
v -13.09401 0.04366 6.18345
v -14.86307 0.04105 11.82022
v -16.95877 2.93145 9.54255
v -16.96551 1.54555 11.96992
v -17.29702 0.03625 11.70162
v -17.29702 0.03625 11.70162
v -14.86307 0.04105 11.82022
v -15.99946 0.03395 13.05438
v -15.99946 0.03395 13.05438
v -13.62578 5.19929 5.97704
v -16.04190 4.72591 8.22477
v -18.96195 13.41714 7.73895
v -16.16047 13.26262 11.11390
v -13.36582 13.29420 7.37057
v -16.16047 13.26262 11.11390
v -18.96195 13.41714 7.73895
v -16.22083 13.60762 4.80940
v -12.50752 14.76164 7.25801
v -9.41532 24.14821 6.09050
v -5.98594 74.68081 -26.47392
v -8.27002 70.16441 -30.35255
v 0.00000 86.14709 -68.13303
v 0.00000 83.76614 -73.34755
v -0.00000 22.41764 6.13215
v -11.07073 27.72159 -4.76784
v -6.60069 54.46727 27.93738
v -4.63179 50.84945 29.16173
v -0.00000 59.67537 26.54901
v -0.00000 62.44806 31.03344
v -6.03018 61.09795 30.95972
v -5.07801 58.09993 26.68322
v -6.60069 54.46727 27.93738
v -7.76306 56.26555 32.64903
v -5.49618 50.92319 34.15726
v -4.63179 50.84945 29.16173
v -4.55609 52.93335 37.72128
v -0.00000 52.74677 39.38448
v -0.00000 49.51286 34.62058
v -19.18527 53.49265 7.06454
v -16.57636 39.25742 -3.42639
v -16.40298 57.23705 -11.53822
v -10.98934 38.25355 -18.67900
v -8.62633 49.90345 -28.52695
v -12.70998 61.75657 -21.23828
v -9.94358 69.81748 -6.92726
v -8.45319 70.21765 -16.72653
v -0.00000 73.73752 -15.05104
v -0.00000 73.46416 -5.66896
v -0.00000 22.41764 6.13215
v -0.00000 24.58799 -5.12001
v -3.82895 89.01976 -75.60159
v -2.63704 88.33881 -76.95886
v 0.00000 86.33626 -75.49808
v -7.59666 96.89081 -57.79982
v -9.97690 97.24496 -52.38791
v 0.00000 101.41991 -51.52959
v -4.96372 94.55725 -62.89074
v 0.00000 96.21562 -66.17372
v -4.45441 91.83487 -69.28203
v 0.00000 90.10174 -79.64824
v -4.70755 87.95439 -74.30042
v -9.97690 97.24496 -52.38791
v -7.48975 95.91926 -57.67322
v 0.00000 93.45952 -49.42265
v -4.81017 93.96390 -62.73029
v -3.79800 91.25350 -69.15404
v 0.00000 91.36343 -66.81842
v -3.13642 85.48276 -77.31253
v 0.00000 82.36648 -78.34708
v -0.00000 77.34641 -24.47088
v -22.81193 49.45487 2.55549
v -26.50565 43.30011 -2.13518
v -26.88135 44.62174 -2.81992
v -23.43250 51.70854 1.78920
v -19.69650 56.09547 5.93122
v -19.18527 53.49265 7.06454
v -19.19862 52.93441 -10.44971
v -19.19862 52.93441 -10.44971
v -21.48046 53.56762 -8.66850
v -26.02910 46.28439 -11.48606
v -24.18011 45.04158 -12.83165
v -27.74770 40.20967 -8.28245
v -28.89893 42.39292 -8.20774
v -27.57437 45.77615 -7.42708
v -23.00257 52.85823 -4.11830
v -16.40298 57.23705 -11.53822
v -18.49236 58.12457 -9.04381
v -19.34761 58.56281 -1.36443
v -18.49236 58.12457 -9.04381
v -19.34761 58.56281 -1.36443
v -19.69650 56.09547 5.93122
v -13.36582 13.29420 7.37057
v -13.36582 13.29420 7.37057
v -8.45319 70.21765 -16.72653
v -12.70998 61.75657 -21.23828
v -8.62633 49.90345 -28.52695
v 0.00000 46.91404 -30.37779
v 0.00000 62.10229 -37.60191
v -6.24325 64.06579 -35.57999
v -16.40298 57.23705 -11.53822
v -24.18011 45.04158 -12.83165
v -4.99079 80.92692 -43.28498
v -7.66849 101.60580 -55.22483
v -8.58372 103.13509 -54.47250
v -8.92218 101.83548 -53.05440
v -9.18876 103.69888 -52.66852
v -8.22820 104.84750 -54.39929
v -7.31802 103.46220 -55.72974
v -23.67854 46.96384 -0.52078
v -23.18917 48.90339 0.17461
v -24.49200 48.46071 4.65358
v -24.52834 46.78462 -1.55957
v -26.15550 45.18850 2.66616
v -27.32076 43.39317 2.24588
v -26.27851 44.22415 -3.20320
v -28.21605 43.77418 10.63207
v -27.72855 39.52390 -1.71162
v -26.25878 41.50047 -0.13053
v -26.82431 38.38281 7.27086
v -27.12743 42.36341 -7.82054
v -25.20363 45.96514 -3.84659
v -26.62336 43.54330 -5.10583
v -29.38958 39.26997 0.14229
v -29.97285 37.45089 -1.32796
v -27.74770 40.20967 -8.28245
v -29.00968 37.32874 5.81033
v -29.31125 40.53558 0.18848
v -27.81902 43.07114 1.28319
v -28.48112 41.43060 9.95617
v -27.02728 43.69601 -6.03094
v -25.34501 46.75899 -3.00125
v -26.57894 44.92201 1.76361
v -26.54808 46.69939 2.74360
v -26.66592 45.39286 8.37578
v -25.24011 46.84261 -3.18266
v -22.99531 47.82100 -0.96740
v -3.93192 56.86141 35.66035
v -1.10720 60.66375 36.53639
v -4.46578 58.40512 41.52427
v -5.98579 55.91694 40.21024
v -7.61061 51.64071 46.74270
v -5.58933 54.58507 33.55792
v -4.76390 57.34457 36.85902
v -8.62487 51.87670 41.58290
v -8.91205 50.09416 39.76543
v -9.51732 47.52008 42.55782
v -7.36257 48.08233 35.82709
v -8.65621 38.30480 38.82637
v -6.34220 46.33067 32.52828
v -3.13809 52.70604 26.05251
v -3.21857 58.45966 27.85468
v -10.25150 52.24290 36.34817
v -12.34305 41.68996 41.32408
v -9.21751 48.32952 34.83545
v -3.33832 51.58673 26.17559
v -3.56173 57.92743 26.49839
v -7.06568 51.78178 38.67796
v -8.27965 43.33305 43.36807
v -5.13810 49.33384 37.28581
v -2.24668 52.64871 32.53063
v -4.44100 56.93972 33.54126
v -9.02153 54.83428 37.58373
v -5.62123 56.70095 31.47713
v -4.37463 59.23855 34.94061
v -6.44248 56.90573 39.34143
v -12.49852 52.18280 44.15205
v -7.24670 48.30074 28.63547
v -0.00000 51.03180 24.17601
v -0.00000 51.22912 24.27667
v -8.49908 50.03023 30.93643
v -0.87811 56.29542 27.49195
v -9.72388 41.71085 33.24941
v 0.00000 46.91404 -30.37779
v 0.00000 34.86849 -20.45596
v 0.00000 82.36648 -78.34708
v 0.00000 91.23031 -56.61694
v 0.00000 90.32494 -62.05692
v -0.00000 79.22419 -45.20175
v 0.00000 89.10495 -50.95337
v -0.00000 73.73752 -15.05104
v -0.00000 49.45361 30.40671
v -0.00000 49.45361 30.40671
v 0.00000 87.90954 -78.66725
v 0.00000 101.41991 -51.52959
v -9.97690 97.24496 -52.38791
v 0.00000 93.45952 -49.42265
v -0.00000 59.67537 26.54901
v -5.07801 58.09993 26.68322
v 11.48671 67.96661 4.01468
v 11.14798 63.86671 16.36727
v 21.48389 24.91201 6.81516
v 16.20876 23.85652 15.19095
v 15.62921 32.65594 23.38629
v 22.06300 36.44807 8.86383
v 3.82895 89.01976 -75.60159
v 3.49130 85.72633 -73.43596
v 3.31508 87.62961 -68.47861
v 3.79800 91.25350 -69.15404
v 2.48649 86.36297 -76.23041
v 2.63704 88.33881 -76.95886
v 4.05941 93.37370 -79.88713
v 5.47001 94.23914 -74.89552
v 3.48625 96.35360 -78.37325
v 2.88567 97.85767 -75.04329
v 2.70686 97.81356 -70.44533
v 7.73209 106.74774 -44.23986
v 7.14216 109.89603 -48.52183
v 9.16852 101.59971 -52.89183
v 7.68437 101.32785 -55.46125
v 7.59667 96.89081 -57.79982
v 9.97690 97.24496 -52.38791
v 9.48411 103.80565 -52.43503
v 9.80544 105.07168 -48.01249
v 8.34697 105.16541 -54.48396
v 8.01441 103.16179 -54.09795
v 4.05304 104.95892 -61.44975
v 5.93532 109.00703 -55.97640
v 7.26948 103.52547 -56.05899
v 6.92008 100.64473 -41.26666
v 5.87332 94.14748 -40.82357
v 5.30319 85.75631 -36.63340
v 9.41532 24.14821 6.09050
v 10.11362 26.27620 18.22853
v 18.81690 38.87840 -3.34595
v 19.42222 50.22427 14.05083
v 10.47108 98.76802 -46.46718
v 4.46574 88.81940 -79.63490
v 2.87768 100.41187 -64.00203
v 4.40148 95.30047 -69.94753
v 4.39432 97.41242 -63.41920
v 4.96372 94.55725 -62.89074
v 3.13642 85.48276 -77.31253
v 4.70756 87.95439 -74.30042
v 5.87712 89.98770 -74.69749
v 4.45441 91.83487 -69.28203
v 7.48975 95.91926 -57.67322
v 5.96664 92.27008 -56.65837
v 5.39796 90.90869 -48.37767
v 7.00706 92.69186 -44.81060
v 4.22266 91.53170 -62.26817
v 4.81017 93.96390 -62.73029
v 16.10893 14.71116 13.07088
v 12.50752 14.76164 7.25801
v 4.78917 60.69398 35.50430
v 5.98192 57.88404 37.51559
v 11.28660 43.25047 27.01933
v 6.56505 83.54087 -39.90092
v 16.89635 26.52147 -2.85405
v 16.18334 14.85625 3.09469
v 19.91270 14.84670 7.74908
v 13.09401 0.04366 6.18345
v 12.36516 2.87938 3.50179
v 13.62578 5.19929 5.97704
v 16.38244 4.71621 1.91423
v 16.24480 6.49218 3.71952
v 13.72514 4.08727 1.84095
v 23.08852 0.04354 1.20983
v 21.68727 2.77319 0.23194
v 23.51498 1.25823 -4.87070
v 24.24427 0.09923 -4.02061
v 24.24427 0.09923 -4.02061
v 22.09744 0.04083 -4.59448
v 19.15806 0.04590 -0.27950
v 23.08852 0.04354 1.20983
v 19.15806 0.04590 -0.27950
v 22.09744 0.04083 -4.59448
v 17.03238 1.21962 -7.91914
v 18.02708 0.04084 -7.41640
v 16.51984 2.76203 -0.40590
v 13.97168 0.04588 -0.74776
v 15.88864 0.04080 -7.68531
v 18.02708 0.04084 -7.41640
v 15.88864 0.04080 -7.68531
v 13.97168 0.04588 -0.74776
v 11.85354 2.34917 -0.21335
v 10.22055 0.03966 -7.81439
v 11.98500 0.04506 -4.95004
v 10.88017 1.81334 -4.83111
v 10.22055 0.03966 -7.81439
v 9.81704 0.04090 -4.73337
v 11.98500 0.04506 -4.95004
v 9.95010 0.04354 0.71816
v 9.81704 0.04090 -4.73337
v 24.30902 -0.05737 -7.07030
v 24.30902 -0.05737 -7.07030
v 17.18930 -0.09718 -10.26116
v 17.18930 -0.09718 -10.26116
v 9.95010 0.04354 0.71816
v 20.02761 2.08029 4.33816
v 19.26884 4.03601 2.33650
v 13.09401 0.04366 6.18345
v 19.22573 0.03581 6.56302
v 19.22573 0.03581 6.56302
v 18.49165 5.20234 6.44097
v 13.36582 13.29420 7.37057
v 16.22083 13.60762 4.80940
v 15.20396 1.54195 11.96050
v 14.86307 0.04105 11.82022
v 13.09401 0.04366 6.18345
v 15.17375 2.91089 9.51490
v 17.29702 0.03625 11.70162
v 16.96551 1.54555 11.96992
v 16.95877 2.93145 9.54255
v 14.86307 0.04105 11.82022
v 17.29702 0.03625 11.70162
v 15.99946 0.03396 13.05438
v 15.99946 0.03396 13.05438
v 13.62578 5.19929 5.97704
v 16.04190 4.72591 8.22477
v 16.16047 13.26262 11.11390
v 18.96195 13.41714 7.73895
v 16.16047 13.26262 11.11390
v 13.36582 13.29420 7.37057
v 16.22083 13.60762 4.80940
v 18.96195 13.41714 7.73895
v 12.50752 14.76164 7.25801
v 9.41532 24.14821 6.09050
v 5.98594 74.68081 -26.47392
v 8.27002 70.16441 -30.35255
v 11.07073 27.72159 -4.76784
v 4.63179 50.84945 29.16173
v 6.60069 54.46727 27.93738
v 5.07801 58.09993 26.68322
v 6.03018 61.09795 30.95972
v 6.60069 54.46727 27.93738
v 4.63179 50.84945 29.16173
v 5.49618 50.92319 34.15726
v 7.76306 56.26555 32.64903
v 4.55609 52.93335 37.72128
v 19.18527 53.49265 7.06454
v 16.40298 57.23705 -11.53822
v 16.57636 39.25742 -3.42639
v 10.98934 38.25355 -18.67900
v 12.70998 61.75657 -21.23828
v 8.62633 49.90345 -28.52695
v 9.94358 69.81748 -6.92726
v 8.45319 70.21765 -16.72653
v 3.82895 89.01976 -75.60159
v 2.63704 88.33881 -76.95886
v 7.59667 96.89081 -57.79982
v 9.97690 97.24496 -52.38791
v 4.96372 94.55725 -62.89074
v 4.45441 91.83487 -69.28203
v 4.70756 87.95439 -74.30042
v 9.97690 97.24496 -52.38791
v 7.48975 95.91926 -57.67322
v 4.81017 93.96390 -62.73029
v 3.79800 91.25350 -69.15404
v 3.13642 85.48276 -77.31253
v 22.81193 49.45486 2.55549
v 23.43250 51.70854 1.78920
v 26.88135 44.62173 -2.81992
v 26.50565 43.30011 -2.13518
v 19.18527 53.49265 7.06454
v 19.69650 56.09547 5.93122
v 19.19862 52.93440 -10.44971
v 19.19862 52.93440 -10.44971
v 24.18011 45.04157 -12.83166
v 26.02910 46.28438 -11.48606
v 21.48045 53.56761 -8.66850
v 28.89893 42.39291 -8.20774
v 27.74770 40.20967 -8.28245
v 23.00257 52.85823 -4.11830
v 27.57436 45.77614 -7.42708
v 16.40298 57.23705 -11.53822
v 18.49236 58.12457 -9.04381
v 18.49236 58.12457 -9.04381
v 19.34760 58.56281 -1.36443
v 19.34760 58.56281 -1.36443
v 19.69650 56.09547 5.93122
v 13.36582 13.29420 7.37057
v 13.36582 13.29420 7.37057
v 8.45319 70.21765 -16.72653
v 12.70998 61.75657 -21.23828
v 8.62633 49.90345 -28.52695
v 6.24325 64.06579 -35.57999
v 16.40298 57.23705 -11.53822
v 24.18011 45.04157 -12.83166
v 4.99079 80.92692 -43.28498
v 7.66849 101.60580 -55.22483
v 8.92218 101.83548 -53.05440
v 8.58372 103.13509 -54.47250
v 9.18876 103.69888 -52.66852
v 8.22820 104.84750 -54.39929
v 7.31802 103.46220 -55.72974
v 23.67854 46.96384 -0.52078
v 24.49200 48.46071 4.65358
v 23.18917 48.90339 0.17461
v 24.52833 46.78461 -1.55957
v 26.27851 44.22414 -3.20320
v 27.32076 43.39317 2.24588
v 26.15550 45.18850 2.66616
v 28.21605 43.77417 10.63207
v 27.72855 39.52389 -1.71162
v 26.82431 38.38280 7.27086
v 26.25878 41.50046 -0.13053
v 25.20363 45.96513 -3.84659
v 27.12742 42.36340 -7.82054
v 26.62336 43.54329 -5.10583
v 27.74770 40.20967 -8.28245
v 29.97285 37.45088 -1.32796
v 29.38957 39.26997 0.14229
v 29.00967 37.32874 5.81033
v 29.31125 40.53557 0.18848
v 28.48112 41.43059 9.95617
v 27.81902 43.07113 1.28319
v 25.34501 46.75898 -3.00125
v 27.02728 43.69600 -6.03094
v 26.57893 44.92200 1.76361
v 26.66592 45.39285 8.37578
v 26.54808 46.69939 2.74360
v 22.99531 47.82100 -0.96740
v 25.24011 46.84260 -3.18266
v 3.93192 56.86141 35.66035
v 5.98579 55.91694 40.21024
v 4.46578 58.40512 41.52427
v 1.10720 60.66375 36.53639
v 7.61061 51.64071 46.74270
v 5.58933 54.58507 33.55792
v 8.91205 50.09416 39.76543
v 8.62487 51.87670 41.58290
v 4.76390 57.34457 36.85902
v 9.51732 47.52008 42.55782
v 7.36257 48.08233 35.82709
v 6.34220 46.33067 32.52828
v 8.65621 38.30480 38.82637
v 3.21857 58.45966 27.85468
v 3.13809 52.70604 26.05251
v 10.25150 52.24290 36.34817
v 9.21751 48.32952 34.83545
v 12.34305 41.68996 41.32408
v 3.56173 57.92743 26.49839
v 3.33832 51.58673 26.17559
v 7.06568 51.78178 38.67796
v 5.13810 49.33384 37.28581
v 8.27965 43.33305 43.36807
v 4.44100 56.93972 33.54126
v 2.24668 52.64871 32.53063
v 9.02153 54.83428 37.58373
v 6.44248 56.90573 39.34143
v 4.37463 59.23855 34.94061
v 5.62123 56.70095 31.47713
v 12.49852 52.18280 44.15205
v 7.24670 48.30074 28.63547
v 8.49908 50.03023 30.93643
v 0.87811 56.29542 27.49195
v 9.72388 41.71085 33.24941
v 9.97690 97.24496 -52.38791
v 5.07801 58.09993 26.68322
vt 0.812804 0.440963
vt 0.863961 0.529765
vt 0.795834 0.582295
vt 0.737576 0.497602
vt 0.511892 0.253265
vt 0.585338 0.315290
vt 0.467926 0.443690
vt 0.445859 0.322313
vt 0.512858 0.735883
vt 0.443621 0.754711
vt 0.447198 0.714701
vt 0.495791 0.700639
vt 0.526108 0.696318
vt 0.535656 0.666790
vt 0.564232 0.685456
vt 0.539869 0.711787
vt 0.548785 0.843385
vt 0.534774 0.874215
vt 0.492551 0.851104
vt 0.498230 0.893400
vt 0.507223 0.923284
vt 0.449841 0.925965
vt 0.440894 0.892931
vt 0.131102 0.866613
vt 0.162526 0.906510
vt 0.122464 0.966918
vt 0.059174 0.915351
vt 0.230769 0.835802
vt 0.238610 0.786341
vt 0.299293 0.807523
vt 0.260524 0.847049
vt 0.217390 0.854603
vt 0.232338 0.876857
vt 0.172440 0.852561
vt 0.238693 0.857985
vt 0.309726 0.917601
vt 0.327260 0.959455
vt 0.235158 0.986940
vt 0.233838 0.925242
vt 0.258230 0.871543
vt 0.105605 0.804230
vt 0.024679 0.832791
vt 0.027737 0.737503
vt 0.106541 0.728783
vt 0.037735 0.674230
vt 0.106356 0.664243
vt 0.385582 0.416529
vt 0.325223 0.317222
vt 0.635655 0.253379
vt 0.647151 0.392017
vt 0.179472 0.788002
vt 0.548139 0.799336
vt 0.592432 0.782550
vt 0.593664 0.848178
vt 0.365152 0.901170
vt 0.364095 0.862558
vt 0.435702 0.855085
vt 0.366848 0.827136
vt 0.532125 0.756742
vt 0.495442 0.809255
vt 0.495491 0.785749
vt 0.436254 0.815294
vt 0.304519 0.775074
vt 0.217376 0.698723
vt 0.315707 0.719248
vt 0.162107 0.713713
vt 0.370959 0.773405
vt 0.371105 0.744083
vt 0.398399 0.249732
vt 0.351372 0.248133
vt 0.347965 0.162119
vt 0.389563 0.186213
vt 0.412069 0.125021
vt 0.357359 0.122869
vt 0.566478 0.899070
vt 0.373720 0.940714
vt 0.538311 0.507412
vt 0.470913 0.590121
vt 0.398033 0.534927
vt 0.329205 0.458830
vt 0.157334 0.649182
vt 0.558611 0.167060
vt 0.438080 0.213651
vt 0.458722 0.170104
vt 0.993115 0.878037
vt 0.941505 0.898269
vt 0.958325 0.863647
vt 0.902380 0.851841
vt 0.933138 0.852357
vt 0.893199 0.886500
vt 0.833721 0.807085
vt 0.833460 0.764005
vt 0.847283 0.761869
vt 0.860952 0.803394
vt 0.731058 0.805353
vt 0.713994 0.859863
vt 0.682236 0.835520
vt 0.706877 0.793193
vt 0.886123 0.800336
vt 0.860068 0.759757
vt 0.918914 0.748066
vt 0.913896 0.806947
vt 0.905628 0.745941
vt 0.939678 0.806626
vt 0.932521 0.745620
vt 0.676981 0.768208
vt 0.640231 0.835920
vt 0.650745 0.768031
vt 0.965443 0.817174
vt 0.988202 0.739032
vt 0.982939 0.777297
vt 0.972330 0.767022
vt 0.608119 0.765766
vt 0.624701 0.789914
vt 0.600113 0.798740
vt 0.995080 0.830784
vt 0.997195 0.776316
vt 0.847655 0.716584
vt 0.728978 0.770461
vt 0.921776 0.694506
vt 0.663271 0.737739
vt 0.608796 0.852058
vt 0.836973 0.836828
vt 0.870921 0.840311
vt 0.684288 0.892768
vt 0.637980 0.893173
vt 0.815820 0.824790
vt 0.836848 0.880832
vt 0.922279 0.983572
vt 0.886980 0.983572
vt 0.754662 0.816037
vt 0.762521 0.857004
vt 0.725359 0.866496
vt 0.736511 0.808487
vt 0.790152 0.848594
vt 0.774378 0.806491
vt 0.780211 0.789331
vt 0.675351 0.939126
vt 0.645777 0.939383
vt 0.753965 0.765946
vt 0.661784 0.971257
vt 0.772416 0.912020
vt 0.804360 0.899341
vt 0.846963 0.983572
vt 0.810036 0.983572
vt 0.360690 0.234630
vt 0.393249 0.233454
vt 0.426834 0.206131
vt 0.439876 0.172784
vt 0.446112 0.119969
vt 0.482201 0.076956
vt 0.097741 0.553370
vt 0.151949 0.528011
vt 0.445033 0.680030
vt 0.494922 0.661592
vt 0.279688 0.374005
vt 0.629437 0.113088
vt 0.609031 0.577844
vt 0.560198 0.584768
vt 0.269241 0.232209
vt 0.332981 0.225005
vt 0.307369 0.170279
vt 0.255126 0.172942
vt 0.250035 0.117883
vt 0.300263 0.121970
vt 0.309098 0.067175
vt 0.259707 0.061913
vt 0.348134 0.077142
vt 0.389915 0.052838
vt 0.330271 0.015641
vt 0.685974 0.309756
vt 0.654968 0.243344
vt 0.802459 0.251574
vt 0.756588 0.103176
vt 0.941662 0.112160
vt 0.949300 0.218334
vt 0.878465 0.388897
vt 0.964881 0.323592
vt 0.982277 0.405080
vt 0.924270 0.469797
vt 0.499801 0.008723
vt 0.634252 0.008726
vt 0.755234 0.644962
vt 0.788644 0.644962
vt 0.766820 0.700095
vt 0.653307 0.643733
vt 0.607525 0.643733
vt 0.607525 0.700087
vt 0.692097 0.643733
vt 0.705957 0.700078
vt 0.719816 0.643733
vt 0.770805 0.700074
vt 0.752961 0.643733
vt 0.610801 0.644962
vt 0.645253 0.644962
vt 0.645253 0.700109
vt 0.680246 0.644962
vt 0.714120 0.644962
vt 0.697183 0.700101
vt 0.771134 0.643733
vt 0.788649 0.643733
vt 0.041879 0.570578
vt 0.093011 0.154498
vt 0.155294 0.167141
vt 0.134918 0.186419
vt 0.060931 0.167063
vt 0.008601 0.144054
vt 0.008601 0.117811
vt 0.107614 0.023236
vt 0.083914 0.296607
vt 0.080600 0.268595
vt 0.162970 0.262284
vt 0.178947 0.274375
vt 0.212405 0.183105
vt 0.191118 0.207824
vt 0.148855 0.221912
vt 0.070050 0.222761
vt 0.008601 0.314178
vt 0.008601 0.289310
vt 0.762878 0.349834
vt 0.813558 0.309911
vt 0.008601 0.209264
vt 0.721527 0.379942
vt 0.434161 0.134702
vt 0.778062 0.983572
vt 0.053334 0.450279
vt 0.114025 0.389595
vt 0.167258 0.336367
vt 0.249457 0.281088
vt 0.282408 0.473254
vt 0.198707 0.506495
vt 0.010050 0.017235
vt 0.205136 0.083390
vt 0.203172 0.635641
vt 0.312829 0.631997
vt 0.373166 0.612022
vt 0.370870 0.672263
vt 0.430788 0.630354
vt 0.408448 0.556591
vt 0.334040 0.557559
vt 0.477180 0.939590
vt 0.476511 0.984570
vt 0.386290 0.959522
vt 0.515956 0.989404
vt 0.437067 0.979736
vt 0.438404 0.944425
vt 0.515956 0.934756
vt 0.386290 0.959522
vt 0.477180 0.939590
vt 0.476511 0.984570
vt 0.386290 0.959522
vt 0.596302 0.936303
vt 0.596302 0.987858
vt 0.515956 0.989404
vt 0.437067 0.979736
vt 0.438404 0.944425
vt 0.515956 0.934756
vt 0.386290 0.959522
vt 0.477180 0.939590
vt 0.476511 0.984570
vt 0.386290 0.959522
vt 0.596302 0.936303
vt 0.596302 0.987858
vt 0.477180 0.939590
vt 0.476511 0.984570
vt 0.386290 0.959522
vt 0.596302 0.936303
vt 0.596302 0.987858
vt 0.056032 0.344399
vt 0.079389 0.380364
vt 0.126295 0.340857
vt 0.112083 0.317046
vt 0.154140 0.308648
vt 0.863139 0.596065
vt 0.912779 0.632796
vt 0.956123 0.555853
vt 0.924946 0.530904
vt 0.977438 0.498367
vt 0.934451 0.594325
vt 0.977438 0.498367
vt 0.894043 0.563484
vt 0.810539 0.670088
vt 0.857370 0.704740
vt 0.102842 0.360611
vt 0.154140 0.308648
vt 0.084058 0.330722
vt 0.006817 0.378556
vt 0.028851 0.412485
vt 0.934451 0.594325
vt 0.977438 0.498367
vt 0.894043 0.563484
vt 0.810539 0.670088
vt 0.857370 0.704740
vt 0.112083 0.317046
vt 0.056032 0.344399
vt 0.084571 0.354283
vt 0.102842 0.360611
vt 0.154140 0.308648
vt 0.112083 0.317046
vt 0.056280 0.344279
vt 0.056856 0.345668
vt 0.126295 0.340857
vt 0.079389 0.380364
vt 0.154140 0.308648
vt 0.942284 0.008645
vt 0.751513 0.008725
vt 0.556454 0.715009
vt 0.335815 0.676276
vt 0.376325 0.697430
vt 0.285004 0.607787
vt 0.299569 0.655195
vt 0.004902 0.491398
vt 0.522683 0.617020
vt 0.282073 0.008970
vt 0.788361 0.700090
vt 0.607525 0.700087
vt 0.607525 0.643733
vt 0.578967 0.668257
vt 0.686949 0.630957
vt 0.654995 0.590551
vt 0.812804 0.440963
vt 0.737576 0.497602
vt 0.511892 0.253265
vt 0.445859 0.322313
vt 0.467926 0.443690
vt 0.585338 0.315290
vt 0.512858 0.735883
vt 0.495791 0.700639
vt 0.447198 0.714701
vt 0.443621 0.754711
vt 0.526108 0.696318
vt 0.539869 0.711787
vt 0.548785 0.843385
vt 0.492551 0.851104
vt 0.534774 0.874215
vt 0.498230 0.893400
vt 0.440894 0.892931
vt 0.131102 0.866613
vt 0.162526 0.906510
vt 0.230769 0.835802
vt 0.260524 0.847049
vt 0.299293 0.807523
vt 0.238610 0.786341
vt 0.217390 0.854603
vt 0.172440 0.852561
vt 0.232338 0.876857
vt 0.238693 0.857985
vt 0.309726 0.917601
vt 0.233838 0.925242
vt 0.258230 0.871543
vt 0.105605 0.804230
vt 0.106541 0.728783
vt 0.106356 0.664243
vt 0.325223 0.317222
vt 0.385582 0.416529
vt 0.635655 0.253379
vt 0.647151 0.392017
vt 0.179472 0.788002
vt 0.548139 0.799336
vt 0.365152 0.901170
vt 0.435702 0.855085
vt 0.364095 0.862558
vt 0.366848 0.827136
vt 0.532125 0.756742
vt 0.495491 0.785749
vt 0.495442 0.809255
vt 0.436254 0.815294
vt 0.304519 0.775074
vt 0.315707 0.719248
vt 0.217376 0.698723
vt 0.162107 0.713713
vt 0.371105 0.744083
vt 0.370959 0.773405
vt 0.398399 0.249732
vt 0.351372 0.248133
vt 0.347965 0.162119
vt 0.357359 0.122869
vt 0.538311 0.507412
vt 0.157334 0.649182
vt 0.558611 0.167060
vt 0.458722 0.170104
vt 0.438080 0.213651
vt 0.993115 0.878037
vt 0.958325 0.863647
vt 0.941505 0.898269
vt 0.902380 0.851841
vt 0.893199 0.886500
vt 0.933138 0.852357
vt 0.833721 0.807085
vt 0.860952 0.803394
vt 0.847283 0.761869
vt 0.833460 0.764005
vt 0.731058 0.805353
vt 0.706877 0.793193
vt 0.682236 0.835520
vt 0.713994 0.859863
vt 0.886123 0.800336
vt 0.860068 0.759757
vt 0.918914 0.748066
vt 0.905628 0.745941
vt 0.913896 0.806947
vt 0.939678 0.806626
vt 0.932521 0.745620
vt 0.676981 0.768208
vt 0.650745 0.768031
vt 0.640231 0.835920
vt 0.965443 0.817174
vt 0.988202 0.739032
vt 0.972330 0.767022
vt 0.982939 0.777297
vt 0.608119 0.765766
vt 0.600113 0.798740
vt 0.624701 0.789914
vt 0.995080 0.830784
vt 0.997195 0.776316
vt 0.847655 0.716584
vt 0.728978 0.770461
vt 0.921776 0.694506
vt 0.663271 0.737739
vt 0.608796 0.852058
vt 0.836973 0.836828
vt 0.870921 0.840311
vt 0.637980 0.893173
vt 0.684288 0.892768
vt 0.815820 0.824790
vt 0.836848 0.880832
vt 0.922279 0.983572
vt 0.886980 0.983572
vt 0.754662 0.816037
vt 0.736511 0.808487
vt 0.725359 0.866496
vt 0.762521 0.857004
vt 0.780211 0.789331
vt 0.774378 0.806491
vt 0.790152 0.848594
vt 0.645777 0.939383
vt 0.675351 0.939126
vt 0.753965 0.765946
vt 0.661784 0.971257
vt 0.772416 0.912020
vt 0.804360 0.899341
vt 0.810036 0.983572
vt 0.846963 0.983572
vt 0.393249 0.233454
vt 0.360690 0.234630
vt 0.439876 0.172784
vt 0.426834 0.206131
vt 0.446112 0.119969
vt 0.482201 0.076956
vt 0.097741 0.553370
vt 0.151949 0.528011
vt 0.629437 0.113088
vt 0.560198 0.584768
vt 0.609031 0.577844
vt 0.255126 0.172942
vt 0.307369 0.170279
vt 0.250035 0.117883
vt 0.259707 0.061913
vt 0.309098 0.067175
vt 0.300263 0.121970
vt 0.348134 0.077142
vt 0.685974 0.309756
vt 0.802459 0.251574
vt 0.654968 0.243344
vt 0.756588 0.103176
vt 0.949300 0.218334
vt 0.941662 0.112160
vt 0.878465 0.388897
vt 0.964881 0.323592
vt 0.755234 0.644962
vt 0.788644 0.644962
vt 0.653307 0.643733
vt 0.607525 0.643733
vt 0.692097 0.643733
vt 0.719816 0.643733
vt 0.752961 0.643733
vt 0.610801 0.644962
vt 0.645253 0.644962
vt 0.680246 0.644962
vt 0.714120 0.644962
vt 0.771134 0.643733
vt 0.093011 0.154498
vt 0.060931 0.167063
vt 0.134918 0.186419
vt 0.155294 0.167141
vt 0.008601 0.117811
vt 0.008601 0.144054
vt 0.107614 0.023236
vt 0.083914 0.296607
vt 0.178947 0.274375
vt 0.162970 0.262284
vt 0.080600 0.268595
vt 0.191118 0.207824
vt 0.212405 0.183105
vt 0.070050 0.222761
vt 0.148855 0.221912
vt 0.008601 0.314178
vt 0.008601 0.289310
vt 0.813558 0.309911
vt 0.762878 0.349834
vt 0.008601 0.209264
vt 0.721527 0.379942
vt 0.434161 0.134702
vt 0.778062 0.983572
vt 0.053334 0.450279
vt 0.114025 0.389595
vt 0.167258 0.336367
vt 0.198707 0.506495
vt 0.010050 0.017235
vt 0.205136 0.083390
vt 0.203172 0.635641
vt 0.312829 0.631997
vt 0.370870 0.672263
vt 0.373166 0.612022
vt 0.430788 0.630354
vt 0.408448 0.556591
vt 0.334040 0.557559
vt 0.477180 0.939590
vt 0.386290 0.959522
vt 0.476511 0.984570
vt 0.515956 0.989404
vt 0.515956 0.934756
vt 0.438404 0.944425
vt 0.437067 0.979736
vt 0.386290 0.959522
vt 0.477180 0.939590
vt 0.386290 0.959522
vt 0.476511 0.984570
vt 0.596302 0.987858
vt 0.596302 0.936303
vt 0.515956 0.989404
vt 0.515956 0.934756
vt 0.438404 0.944425
vt 0.437067 0.979736
vt 0.386290 0.959522
vt 0.477180 0.939590
vt 0.386290 0.959522
vt 0.476511 0.984570
vt 0.596302 0.987858
vt 0.596302 0.936303
vt 0.477180 0.939590
vt 0.386290 0.959522
vt 0.476511 0.984570
vt 0.596302 0.987858
vt 0.596302 0.936303
vt 0.056032 0.344399
vt 0.112083 0.317046
vt 0.126295 0.340857
vt 0.079389 0.380364
vt 0.154140 0.308648
vt 0.863139 0.596065
vt 0.924946 0.530904
vt 0.956123 0.555853
vt 0.912779 0.632796
vt 0.977438 0.498367
vt 0.934451 0.594325
vt 0.894043 0.563484
vt 0.977438 0.498367
vt 0.857370 0.704740
vt 0.810539 0.670088
vt 0.102842 0.360611
vt 0.084058 0.330722
vt 0.154140 0.308648
vt 0.028851 0.412485
vt 0.006817 0.378556
vt 0.934451 0.594325
vt 0.894043 0.563484
vt 0.977438 0.498367
vt 0.857370 0.704740
vt 0.810539 0.670088
vt 0.112083 0.317046
vt 0.102842 0.360611
vt 0.084571 0.354283
vt 0.056032 0.344399
vt 0.154140 0.308648
vt 0.112083 0.317046
vt 0.126295 0.340857
vt 0.079389 0.380364
vt 0.154140 0.308648
vt 0.607525 0.643733
vt 0.654995 0.590551
vn -0.50703 0.83998 0.19327
vn -0.00000 0.96493 0.26249
vn -0.00000 0.87091 0.49143
vn -0.69130 0.57380 0.43916
vn -0.98485 -0.16880 0.03961
vn -0.99523 0.04290 0.08757
vn -0.60187 -0.33468 0.72509
vn -0.35762 -0.56812 0.74118
vn -0.95311 -0.20825 -0.21957
vn -0.98526 -0.17000 -0.01927
vn -0.79390 -0.54266 0.27429
vn -0.74159 -0.67082 0.00737
vn -0.64300 -0.53122 -0.55168
vn 0.00000 -0.76368 -0.64560
vn 0.00000 -0.44543 -0.89532
vn -0.67755 -0.29931 -0.67182
vn -0.78292 0.20868 -0.58608
vn -0.62313 0.58358 -0.52071
vn -0.95234 0.30221 -0.04148
vn -0.59207 0.80105 -0.08817
vn -0.00000 0.98930 -0.14587
vn -0.00000 0.98077 -0.19519
vn -0.63789 0.75757 -0.13851
vn -0.64900 0.51593 0.55913
vn -0.56414 0.82184 0.07953
vn -0.00000 0.94028 0.34042
vn -0.00000 0.60290 0.79782
vn -0.92765 0.10702 -0.35779
vn -0.95136 -0.25216 -0.17697
vn -0.86721 0.17115 -0.46760
vn -0.87797 0.17089 -0.44718
vn -0.91553 0.02722 -0.40132
vn -0.88882 0.13657 -0.43742
vn -0.95394 0.29935 -0.01973
vn -0.85939 -0.02504 -0.51070
vn -0.52893 0.46859 -0.70757
vn 0.00000 0.62954 -0.77697
vn 0.00000 0.91775 -0.39715
vn -0.71485 0.55397 -0.42675
vn -0.87018 0.09788 -0.48292
vn -0.56272 0.14465 0.81389
vn -0.00000 0.22335 0.97474
vn -0.00000 0.21984 0.97554
vn -0.75118 -0.00360 0.66008
vn -0.00000 0.59186 0.80604
vn -0.72833 0.38386 0.56761
vn -0.07406 -0.85977 0.50528
vn 0.28071 -0.95950 0.02349
vn -0.68421 0.19303 -0.70327
vn -0.91590 0.32973 0.22894
vn -0.96791 -0.13417 0.21248
vn -0.68902 -0.23577 -0.68532
vn -0.00000 -0.40093 -0.91611
vn -0.00000 0.24541 -0.96942
vn -0.71061 0.52245 -0.47125
vn -0.90697 0.21819 -0.36028
vn -0.93808 0.34494 -0.03204
vn -0.97259 0.09150 -0.21375
vn -0.73845 -0.52931 -0.41775
vn -0.97928 -0.20009 -0.03133
vn -0.86852 -0.46733 0.16515
vn -0.98114 -0.06610 0.18166
vn -0.85232 -0.49836 -0.15873
vn -0.79541 -0.56339 -0.22341
vn -0.64521 -0.74321 -0.17706
vn -0.97903 -0.20066 0.03524
vn -0.92646 -0.32034 -0.19763
vn -0.72281 -0.68723 0.07256
vn 0.26758 -0.52648 0.80698
vn 0.84410 -0.50596 -0.17746
vn -0.49198 0.77900 0.38873
vn 0.00000 0.90367 0.42822
vn 0.00000 0.38325 0.92364
vn -0.70119 0.25047 0.66753
vn -0.00000 0.83661 -0.54780
vn -0.00000 0.61360 -0.78961
vn -0.48754 0.03410 0.87243
vn 0.00000 -0.23326 0.97241
vn -0.00000 -0.64932 0.76052
vn 0.00000 -0.94473 0.32785
vn -0.99760 0.06631 0.02017
vn -0.26821 -0.47486 -0.83819
vn -0.89788 -0.44021 -0.00602
vn -0.02646 -0.66492 -0.74645
vn 0.78942 -0.52267 0.32191
vn 0.89717 0.40188 0.18327
vn 0.85239 0.50280 0.14358
vn -0.05944 0.67131 -0.73879
vn 0.37182 0.75923 -0.53415
vn -0.05252 0.59952 -0.79863
vn -0.92688 -0.01746 0.37495
vn -0.66339 -0.74280 0.09033
vn -0.16472 0.94231 -0.29141
vn -0.40199 0.91205 -0.08108
vn -0.66339 -0.74280 0.09033
vn -0.92688 -0.01746 0.37495
vn -0.22999 -0.23068 -0.94546
vn 0.70300 -0.46080 -0.54172
vn -0.22999 -0.23068 -0.94546
vn 0.70300 -0.46080 -0.54172
vn -0.04086 0.94912 -0.31227
vn -0.02787 0.89346 -0.44828
vn -0.64343 -0.75324 -0.13649
vn 0.07427 -0.49534 -0.86552
vn 0.84368 -0.43421 -0.31571
vn -0.64343 -0.75324 -0.13649
vn 0.07427 -0.49534 -0.86552
vn 0.84368 -0.43421 -0.31571
vn 0.31952 0.91196 -0.25736
vn 0.19440 -0.00032 -0.98092
vn 0.07220 0.95145 -0.29921
vn -0.57612 -0.75560 -0.31169
vn 0.19440 -0.00032 -0.98092
vn -0.57612 -0.75560 -0.31169
vn 0.86680 -0.49654 -0.04588
vn 0.94398 -0.27874 0.17666
vn 0.86680 -0.49654 -0.04588
vn -0.44631 0.17232 -0.87813
vn -0.44631 0.17232 -0.87813
vn -0.13550 0.25609 -0.95711
vn -0.13550 0.25609 -0.95711
vn 0.94398 -0.27874 0.17666
vn -0.82537 0.41878 0.37868
vn -0.48848 0.76895 -0.41243
vn -0.77126 -0.51235 0.37770
vn 0.78942 -0.52267 0.32191
vn -0.77126 -0.51235 0.37770
vn -0.88122 0.36057 0.30568
vn 0.97423 -0.21270 -0.07508
vn -0.04278 -0.46181 -0.88594
vn 0.52182 0.60417 0.60224
vn 0.52344 0.60303 0.60197
vn 0.78942 -0.52267 0.32191
vn 0.64835 -0.66322 0.37388
vn -0.38950 0.68309 0.61781
vn -0.60386 0.49639 0.62367
vn -0.47942 -0.82389 0.30228
vn -0.47942 -0.82389 0.30228
vn 0.64835 -0.66322 0.37388
vn 0.00818 -0.12609 0.99199
vn 0.00818 -0.12609 0.99199
vn 0.89717 0.40188 0.18327
vn 0.04725 0.24123 0.96932
vn -0.96701 -0.25468 0.00561
vn 0.02625 -0.60944 0.79240
vn 0.97423 -0.21270 -0.07508
vn 0.02625 -0.60944 0.79240
vn -0.96701 -0.25468 0.00561
vn -0.04278 -0.46181 -0.88594
vn 0.84410 -0.50596 -0.17746
vn 0.28071 -0.95950 0.02349
vn -0.74854 0.59241 0.29790
vn -0.97141 0.18537 -0.14836
vn -0.00000 -0.89089 0.45422
vn 0.00000 -0.99383 -0.11095
vn 0.00000 -0.99974 -0.02259
vn -0.33911 -0.65325 -0.67695
vn -0.95116 0.11465 0.28662
vn -0.63073 -0.49568 0.59706
vn -0.00000 0.97772 -0.20990
vn -0.00000 0.99744 -0.07154
vn -0.66944 0.68989 -0.27551
vn -0.58171 0.78320 0.21958
vn -0.95116 0.11465 0.28662
vn -0.98732 0.03663 0.15446
vn -0.65236 -0.74680 0.12925
vn -0.63073 -0.49568 0.59706
vn -0.55400 -0.41473 0.72186
vn 0.00000 -0.47284 0.88115
vn 0.00000 -0.92211 0.38692
vn -0.88201 -0.17392 0.43796
vn -0.85490 0.04546 -0.51680
vn -0.84919 0.18266 -0.49548
vn -0.72987 -0.41888 -0.54022
vn -0.63371 -0.32431 -0.70231
vn -0.94737 0.12533 -0.29460
vn -0.62296 0.77331 -0.11796
vn -0.76048 0.64934 0.00498
vn -0.00000 0.98545 0.16998
vn 0.00000 0.99602 0.08910
vn 0.00000 -0.99974 -0.02259
vn 0.00000 -0.93881 -0.34443
vn 0.57311 0.81414 -0.09335
vn 0.49204 0.83285 0.25349
vn 0.00000 0.99688 -0.07897
vn 0.25067 -0.90311 0.34864
vn 0.74401 -0.18725 -0.64139
vn 0.00000 -0.99994 0.01137
vn 0.37727 -0.84207 0.38547
vn 0.00000 -0.91955 0.39297
vn 0.58653 -0.71535 0.37982
vn 0.00000 -0.53805 0.84291
vn 0.76069 -0.40569 0.50672
vn 0.74401 -0.18725 -0.64139
vn 0.39854 0.91276 -0.08967
vn 0.00000 0.89483 -0.44640
vn 0.34349 0.91813 -0.19760
vn 0.34659 0.85878 -0.37732
vn 0.00000 0.94192 -0.33584
vn 0.63487 -0.04094 0.77154
vn 0.00000 0.16588 0.98615
vn 0.00000 0.79368 0.60833
vn 0.25059 -0.71253 0.65537
vn -0.64214 -0.43325 0.63242
vn -0.92529 0.10315 0.36497
vn -0.88476 0.28755 0.36676
vn -0.84179 0.36374 0.39886
vn -0.88201 -0.17392 0.43796
vn 0.42759 -0.23686 -0.87239
vn 0.42759 -0.23686 -0.87239
vn -0.73623 0.51389 -0.44032
vn -0.67746 0.28585 -0.67775
vn 0.39373 -0.47270 -0.78837
vn -0.76359 -0.59806 -0.24344
vn -0.99224 0.00941 -0.12396
vn -0.87516 0.48168 -0.04559
vn -0.85208 0.52334 -0.00919
vn -0.84919 0.18266 -0.49548
vn -0.74064 0.53171 -0.41078
vn -0.81175 0.58370 0.01885
vn -0.74064 0.53171 -0.41078
vn -0.81175 0.58370 0.01885
vn -0.84179 0.36374 0.39886
vn 0.97423 -0.21270 -0.07508
vn 0.97423 -0.21270 -0.07508
vn -0.76048 0.64934 0.00498
vn -0.94737 0.12533 -0.29460
vn -0.63371 -0.32431 -0.70231
vn -0.00000 -0.55812 -0.82976
vn 0.00000 -0.40807 -0.91295
vn -0.72242 -0.20906 -0.65909
vn -0.84919 0.18266 -0.49548
vn 0.39373 -0.47270 -0.78837
vn -0.78756 -0.27438 -0.55177
vn -0.78282 -0.17468 -0.59723
vn -0.85340 -0.00761 -0.52120
vn -0.90717 -0.17917 -0.38072
vn -0.93975 0.06526 -0.33558
vn -0.82536 0.19402 -0.53022
vn -0.71100 0.05742 -0.70084
vn -0.91880 0.31643 -0.23598
vn -0.91880 0.31643 -0.23598
vn -0.91880 0.31643 -0.23598
vn -0.81380 0.57493 -0.08478
vn -0.82188 0.55905 -0.10941
vn -0.81634 0.56983 -0.09423
vn -0.80435 0.59073 -0.06376
vn -0.82113 0.55943 -0.11308
vn -0.84736 0.50898 0.15140
vn -0.87838 0.45408 0.14922
vn -0.84707 0.50986 0.15004
vn -0.89274 0.42537 0.14858
vn -0.92990 0.33884 0.14306
vn -0.90103 0.41280 -0.13315
vn -0.95099 0.30919 -0.00528
vn -0.93667 0.34737 -0.04458
vn -0.76359 -0.59806 -0.24344
vn -0.97003 0.20245 0.13435
vn -0.85993 0.51032 -0.00980
vn -0.85828 0.51268 -0.02265
vn -0.86673 0.49799 0.02803
vn -0.85314 0.51948 -0.04797
vn -0.85454 0.51713 -0.04832
vn -0.99033 0.07976 -0.11348
vn -0.89936 0.42344 -0.10881
vn -0.99956 0.02561 -0.01497
vn -0.76859 0.62077 -0.15463
vn -0.35262 0.93413 -0.05525
vn -0.76433 0.60305 -0.22834
vn -0.75499 0.61395 -0.23036
vn -0.81211 0.57074 -0.12140
vn -0.83585 0.54507 -0.06524
vn -0.87143 0.48065 0.09789
vn -0.88770 0.41707 -0.19502
vn -0.86851 0.46504 -0.17157
vn -0.92745 0.34561 -0.14281
vn -0.95065 0.28294 -0.12729
vn -0.98056 0.19315 -0.03450
vn -0.94216 0.06889 -0.32801
vn -0.95020 0.03058 -0.31015
vn -0.93747 0.07927 -0.33892
vn -0.92740 0.09994 -0.36047
vn -0.92992 0.10351 -0.35288
vn -0.85447 -0.02519 -0.51890
vn -0.87924 -0.04916 -0.47383
vn -0.84569 -0.01697 -0.53341
vn -0.82725 -0.00055 -0.56183
vn -0.82709 -0.00084 -0.56206
vn -0.74818 -0.23661 -0.61988
vn -0.74818 -0.23661 -0.61988
vn -0.74818 -0.23661 -0.61988
vn -0.74818 -0.23661 -0.61988
vn -0.74818 -0.23661 -0.61988
vn -0.67802 0.73361 -0.04590
vn -0.73288 0.64705 -0.21029
vn -0.70512 0.70630 -0.06276
vn -0.64101 0.76663 0.03708
vn -0.62102 0.78370 -0.01238
vn -0.70878 0.28587 -0.64491
vn 0.00000 0.45440 -0.89080
vn 0.00000 0.48856 -0.87253
vn -0.71589 0.27798 -0.64049
vn -0.60823 0.34749 -0.71366
vn -0.87926 -0.00298 -0.47633
vn -0.00000 -0.55812 -0.82976
vn -0.00000 -0.76061 -0.64921
vn -0.00000 -0.48537 -0.87431
vn -0.00000 -0.99921 -0.03967
vn -0.00000 -0.90899 0.41681
vn 0.00000 -0.43178 -0.90198
vn 0.00000 -0.80295 -0.59605
vn -0.00000 0.98545 0.16998
vn 0.00000 -0.72728 0.68634
vn 0.00000 -0.72728 0.68634
vn 0.00000 0.89570 0.44466
vn 0.00000 -0.99994 0.01137
vn 0.74401 -0.18725 -0.64139
vn 0.00000 0.89483 -0.44640
vn -0.00000 0.97772 -0.20990
vn -0.58171 0.78320 0.21958
vn 0.50703 0.83998 0.19327
vn 0.69130 0.57380 0.43916
vn 0.98485 -0.16880 0.03961
vn 0.35762 -0.56812 0.74118
vn 0.60187 -0.33468 0.72509
vn 0.99523 0.04290 0.08757
vn 0.95311 -0.20825 -0.21957
vn 0.74159 -0.67082 0.00737
vn 0.79390 -0.54266 0.27429
vn 0.98526 -0.17000 -0.01927
vn 0.64300 -0.53122 -0.55168
vn 0.67755 -0.29931 -0.67182
vn 0.78292 0.20868 -0.58608
vn 0.95234 0.30221 -0.04148
vn 0.62313 0.58358 -0.52071
vn 0.59207 0.80105 -0.08817
vn 0.63789 0.75757 -0.13851
vn 0.64900 0.51593 0.55913
vn 0.56414 0.82184 0.07953
vn 0.92765 0.10702 -0.35779
vn 0.87797 0.17089 -0.44718
vn 0.86721 0.17115 -0.46760
vn 0.95136 -0.25216 -0.17697
vn 0.91553 0.02722 -0.40132
vn 0.95394 0.29935 -0.01973
vn 0.88882 0.13657 -0.43742
vn 0.85939 -0.02504 -0.51070
vn 0.52893 0.46859 -0.70757
vn 0.71485 0.55397 -0.42675
vn 0.87018 0.09788 -0.48292
vn 0.56272 0.14465 0.81389
vn 0.75118 -0.00360 0.66008
vn 0.72833 0.38386 0.56761
vn -0.28071 -0.95950 0.02349
vn 0.07406 -0.85977 0.50528
vn 0.68421 0.19303 -0.70327
vn 0.91590 0.32973 0.22894
vn 0.96791 -0.13417 0.21248
vn 0.68902 -0.23577 -0.68532
vn 0.71061 0.52245 -0.47125
vn 0.93808 0.34494 -0.03204
vn 0.90697 0.21819 -0.36028
vn 0.97259 0.09150 -0.21375
vn 0.73845 -0.52931 -0.41775
vn 0.86852 -0.46733 0.16515
vn 0.97928 -0.20009 -0.03133
vn 0.98114 -0.06610 0.18166
vn 0.85232 -0.49836 -0.15873
vn 0.64521 -0.74321 -0.17706
vn 0.79541 -0.56339 -0.22341
vn 0.97903 -0.20066 0.03524
vn 0.72281 -0.68723 0.07256
vn 0.92646 -0.32034 -0.19763
vn -0.26758 -0.52648 0.80698
vn -0.84410 -0.50596 -0.17746
vn 0.49198 0.77900 0.38873
vn 0.70119 0.25047 0.66753
vn 0.48754 0.03410 0.87243
vn 0.99760 0.06631 0.02017
vn 0.26821 -0.47486 -0.83819
vn 0.02646 -0.66492 -0.74645
vn 0.89788 -0.44021 -0.00602
vn -0.78942 -0.52267 0.32191
vn -0.85239 0.50280 0.14358
vn -0.89717 0.40188 0.18327
vn 0.05944 0.67131 -0.73879
vn 0.05252 0.59952 -0.79863
vn -0.37182 0.75923 -0.53415
vn 0.92688 -0.01746 0.37495
vn 0.40199 0.91205 -0.08108
vn 0.16472 0.94231 -0.29141
vn 0.66339 -0.74280 0.09033
vn 0.66339 -0.74280 0.09033
vn -0.70300 -0.46080 -0.54172
vn 0.22999 -0.23068 -0.94546
vn 0.92688 -0.01746 0.37495
vn 0.22999 -0.23068 -0.94546
vn -0.70300 -0.46080 -0.54172
vn 0.04086 0.94912 -0.31227
vn 0.64343 -0.75324 -0.13649
vn 0.02786 0.89346 -0.44828
vn -0.07427 -0.49534 -0.86552
vn -0.84368 -0.43421 -0.31571
vn 0.64343 -0.75324 -0.13649
vn -0.84368 -0.43421 -0.31571
vn -0.07427 -0.49534 -0.86552
vn -0.31952 0.91196 -0.25736
vn -0.19440 -0.00032 -0.98092
vn 0.57612 -0.75560 -0.31169
vn -0.07220 0.95145 -0.29921
vn -0.19440 -0.00032 -0.98092
vn -0.86680 -0.49654 -0.04588
vn 0.57612 -0.75560 -0.31169
vn -0.94398 -0.27874 0.17666
vn -0.86680 -0.49654 -0.04588
vn 0.44631 0.17232 -0.87813
vn 0.44631 0.17232 -0.87813
vn 0.13550 0.25609 -0.95711
vn 0.13550 0.25609 -0.95711
vn -0.94398 -0.27874 0.17666
vn 0.82537 0.41878 0.37868
vn 0.48848 0.76895 -0.41243
vn -0.78942 -0.52267 0.32191
vn 0.77126 -0.51235 0.37770
vn 0.77126 -0.51235 0.37770
vn 0.88122 0.36056 0.30568
vn -0.97423 -0.21270 -0.07508
vn 0.04278 -0.46181 -0.88594
vn -0.52182 0.60417 0.60224
vn -0.64835 -0.66322 0.37388
vn -0.78942 -0.52267 0.32191
vn -0.52344 0.60303 0.60197
vn 0.47942 -0.82389 0.30228
vn 0.60386 0.49639 0.62367
vn 0.38950 0.68309 0.61781
vn -0.64835 -0.66322 0.37388
vn 0.47942 -0.82389 0.30228
vn -0.00818 -0.12609 0.99199
vn -0.00818 -0.12609 0.99199
vn -0.89717 0.40188 0.18327
vn -0.04725 0.24123 0.96932
vn -0.02625 -0.60944 0.79240
vn 0.96701 -0.25468 0.00561
vn -0.02625 -0.60944 0.79240
vn -0.97423 -0.21270 -0.07508
vn 0.04278 -0.46181 -0.88594
vn 0.96701 -0.25468 0.00561
vn -0.84410 -0.50596 -0.17746
vn -0.28071 -0.95950 0.02349
vn 0.74854 0.59241 0.29790
vn 0.97141 0.18537 -0.14836
vn 0.33911 -0.65325 -0.67695
vn 0.63073 -0.49568 0.59706
vn 0.95116 0.11465 0.28662
vn 0.58171 0.78320 0.21958
vn 0.66944 0.68989 -0.27551
vn 0.95116 0.11465 0.28662
vn 0.63073 -0.49568 0.59706
vn 0.65236 -0.74680 0.12925
vn 0.98732 0.03663 0.15446
vn 0.55400 -0.41473 0.72186
vn 0.88201 -0.17392 0.43796
vn 0.84919 0.18266 -0.49548
vn 0.85490 0.04546 -0.51680
vn 0.72987 -0.41888 -0.54022
vn 0.94737 0.12533 -0.29460
vn 0.63371 -0.32431 -0.70231
vn 0.62296 0.77331 -0.11796
vn 0.76048 0.64934 0.00498
vn -0.57311 0.81414 -0.09335
vn -0.49204 0.83285 0.25349
vn -0.25067 -0.90311 0.34864
vn -0.74401 -0.18725 -0.64139
vn -0.37727 -0.84207 0.38547
vn -0.58653 -0.71535 0.37982
vn -0.76069 -0.40569 0.50672
vn -0.74401 -0.18725 -0.64139
vn -0.39854 0.91276 -0.08967
vn -0.34349 0.91813 -0.19760
vn -0.34659 0.85878 -0.37732
vn -0.63487 -0.04094 0.77154
vn -0.25059 -0.71253 0.65537
vn 0.88476 0.28755 0.36676
vn 0.92529 0.10315 0.36497
vn 0.64214 -0.43325 0.63242
vn 0.88201 -0.17392 0.43796
vn 0.84179 0.36374 0.39886
vn -0.42759 -0.23686 -0.87239
vn -0.42759 -0.23686 -0.87239
vn -0.39373 -0.47270 -0.78837
vn 0.67746 0.28585 -0.67775
vn 0.73623 0.51389 -0.44032
vn 0.99224 0.00941 -0.12396
vn 0.76359 -0.59805 -0.24344
vn 0.85208 0.52334 -0.00919
vn 0.87516 0.48168 -0.04559
vn 0.84919 0.18266 -0.49548
vn 0.74064 0.53171 -0.41078
vn 0.74064 0.53171 -0.41078
vn 0.81175 0.58370 0.01885
vn 0.81175 0.58370 0.01885
vn 0.84179 0.36374 0.39886
vn -0.97423 -0.21270 -0.07508
vn -0.97423 -0.21270 -0.07508
vn 0.76048 0.64934 0.00498
vn 0.94737 0.12533 -0.29460
vn 0.63371 -0.32431 -0.70231
vn 0.72242 -0.20906 -0.65909
vn 0.84919 0.18266 -0.49548
vn -0.39373 -0.47270 -0.78837
vn 0.78756 -0.27438 -0.55177
vn 0.78282 -0.17468 -0.59723
vn 0.90717 -0.17917 -0.38071
vn 0.85340 -0.00761 -0.52120
vn 0.93975 0.06526 -0.33558
vn 0.82536 0.19402 -0.53022
vn 0.71100 0.05742 -0.70084
vn 0.91880 0.31643 -0.23598
vn 0.91880 0.31643 -0.23598
vn 0.91880 0.31643 -0.23598
vn 0.81380 0.57493 -0.08478
vn 0.80435 0.59073 -0.06376
vn 0.81634 0.56983 -0.09423
vn 0.82188 0.55905 -0.10941
vn 0.82113 0.55943 -0.11308
vn 0.84736 0.50898 0.15140
vn 0.84707 0.50986 0.15004
vn 0.87838 0.45408 0.14922
vn 0.92990 0.33884 0.14306
vn 0.89274 0.42536 0.14857
vn 0.90103 0.41280 -0.13315
vn 0.76359 -0.59805 -0.24344
vn 0.93667 0.34737 -0.04458
vn 0.95099 0.30919 -0.00527
vn 0.97003 0.20245 0.13435
vn 0.85993 0.51032 -0.00980
vn 0.86673 0.49799 0.02803
vn 0.85828 0.51268 -0.02265
vn 0.85454 0.51713 -0.04832
vn 0.85314 0.51948 -0.04797
vn 0.99033 0.07976 -0.11348
vn 0.99956 0.02561 -0.01497
vn 0.89936 0.42344 -0.10881
vn 0.35262 0.93413 -0.05525
vn 0.76859 0.62077 -0.15463
vn 0.76433 0.60305 -0.22834
vn 0.83585 0.54507 -0.06524
vn 0.81211 0.57074 -0.12140
vn 0.75499 0.61395 -0.23036
vn 0.87143 0.48065 0.09789
vn 0.88770 0.41707 -0.19502
vn 0.95065 0.28294 -0.12729
vn 0.92745 0.34561 -0.14281
vn 0.86851 0.46504 -0.17157
vn 0.98056 0.19315 -0.03450
vn 0.94216 0.06889 -0.32801
vn 0.93747 0.07927 -0.33892
vn 0.95020 0.03058 -0.31015
vn 0.92992 0.10351 -0.35288
vn 0.92740 0.09994 -0.36047
vn 0.85447 -0.02519 -0.51890
vn 0.84569 -0.01697 -0.53341
vn 0.87924 -0.04916 -0.47383
vn 0.82709 -0.00084 -0.56206
vn 0.82725 -0.00055 -0.56183
vn 0.74818 -0.23661 -0.61988
vn 0.74818 -0.23661 -0.61988
vn 0.74818 -0.23661 -0.61988
vn 0.74818 -0.23661 -0.61988
vn 0.74818 -0.23661 -0.61988
vn 0.67802 0.73361 -0.04590
vn 0.64101 0.76663 0.03708
vn 0.70512 0.70630 -0.06276
vn 0.73288 0.64705 -0.21029
vn 0.62102 0.78370 -0.01238
vn 0.70878 0.28587 -0.64491
vn 0.71589 0.27798 -0.64049
vn 0.60823 0.34749 -0.71366
vn 0.87926 -0.00298 -0.47633
vn -0.74401 -0.18725 -0.64139
vn 0.58171 0.78320 0.21958
f 192/192/192 193/193/193 191/191/191
f 481/481/481 192/192/192 476/476/476
f 481/481/481 201/201/201 192/192/192
f 475/475/475 476/476/476 192/192/192
f 200/200/200 193/193/193 192/192/192
f 200/200/200 192/192/192 201/201/201
f 189/189/189 186/186/186 188/188/188
f 186/186/186 187/187/187 188/188/188
f 191/191/191 189/189/189 190/190/190
f 188/188/188 190/190/190 189/189/189
f 188/188/188 472/472/472 474/474/474
f 474/474/474 190/190/190 188/188/188
f 472/472/472 188/188/188 473/473/473
f 475/475/475 190/190/190 474/474/474
f 192/192/192 190/190/190 475/475/475
f 191/191/191 190/190/190 192/192/192
f 402/402/402 388/388/388 407/407/407
f 386/386/386 387/387/387 388/388/388
f 402/402/402 407/407/407 410/410/410
f 386/386/386 402/402/402 401/401/401
f 410/410/410 409/409/409 402/402/402
f 399/399/399 401/401/401 402/402/402
f 402/402/402 403/403/403 399/399/399
f 415/415/415 408/408/408 410/410/410
f 408/408/408 409/409/409 410/410/410
f 403/403/403 418/418/418 399/399/399
f 399/399/399 418/418/418 400/400/400
f 397/397/397 401/401/401 399/399/399
f 399/399/399 400/400/400 397/397/397
f 397/397/397 386/386/386 401/401/401
f 397/397/397 422/422/422 386/386/386
f 422/422/422 397/397/397 390/390/390
f 391/391/391 390/390/390 397/397/397
f 397/397/397 398/398/398 391/391/391
f 422/422/422 387/387/387 386/386/386
f 422/422/422 421/421/421 426/426/426
f 426/426/426 387/387/387 422/422/422
f 421/421/421 422/422/422 390/390/390
f 390/390/390 389/389/389 421/421/421
f 389/389/389 390/390/390 391/391/391
f 104/104/104 109/109/109 89/89/89
f 88/88/88 89/89/89 90/90/90
f 111/111/111 109/109/109 104/104/104
f 88/88/88 102/102/102 104/104/104
f 104/104/104 112/112/112 111/111/111
f 101/101/101 105/105/105 104/104/104
f 104/104/104 102/102/102 101/101/101
f 117/117/117 111/111/111 110/110/110
f 110/110/110 111/111/111 112/112/112
f 105/105/105 101/101/101 120/120/120
f 101/101/101 103/103/103 120/120/120
f 99/99/99 103/103/103 101/101/101
f 101/101/101 102/102/102 99/99/99
f 99/99/99 102/102/102 88/88/88
f 99/99/99 88/88/88 124/124/124
f 124/124/124 94/94/94 99/99/99
f 93/93/93 100/100/100 99/99/99
f 99/99/99 94/94/94 93/93/93
f 124/124/124 88/88/88 90/90/90
f 124/124/124 90/90/90 128/128/128
f 128/128/128 123/123/123 124/124/124
f 94/94/94 124/124/124 123/123/123
f 123/123/123 91/91/91 94/94/94
f 93/93/93 94/94/94 91/91/91
f 414/414/414 384/384/384 383/383/383
f 383/383/383 384/384/384 385/385/385
f 384/384/384 414/414/414 407/407/407
f 410/410/410 407/407/407 414/414/414
f 414/414/414 415/415/415 410/410/410
f 385/385/385 384/384/384 388/388/388
f 407/407/407 388/388/388 384/384/384
f 427/427/427 385/385/385 387/387/387
f 388/388/388 387/387/387 385/385/385
f 388/388/388 402/402/402 386/386/386
f 116/116/116 85/85/85 87/87/87
f 85/85/85 86/86/86 87/87/87
f 109/109/109 116/116/116 87/87/87
f 111/111/111 117/117/117 116/116/116
f 116/116/116 109/109/109 111/111/111
f 89/89/89 87/87/87 86/86/86
f 87/87/87 89/89/89 109/109/109
f 90/90/90 86/86/86 129/129/129
f 86/86/86 90/90/90 89/89/89
f 89/89/89 88/88/88 104/104/104
f 302/302/302 304/304/304 299/299/299
f 302/302/302 299/299/299 301/301/301
f 299/299/299 300/300/300 301/301/301
f 303/303/303 302/302/302 301/301/301
f 578/578/578 301/301/301 577/577/577
f 301/301/301 576/576/576 577/577/577
f 301/301/301 300/300/300 576/576/576
f 577/577/577 576/576/576 579/579/579
f 155/155/155 328/328/328 331/331/331
f 331/331/331 14/14/14 155/155/155
f 328/328/328 155/155/155 154/154/154
f 329/329/329 154/154/154 309/309/309
f 154/154/154 329/329/329 328/328/328
f 309/309/309 154/154/154 11/11/11
f 11/11/11 68/68/68 309/309/309
f 68/68/68 11/11/11 10/10/10
f 10/10/10 67/67/67 68/68/68
f 308/308/308 309/309/309 68/68/68
f 68/68/68 65/65/65 308/308/308
f 65/65/65 68/68/68 67/67/67
f 309/309/309 372/372/372 329/329/329
f 372/372/372 309/309/309 308/308/308
f 330/330/330 329/329/329 372/372/372
f 329/329/329 330/330/330 327/327/327
f 327/327/327 328/328/328 329/329/329
f 331/331/331 328/328/328 327/327/327
f 327/327/327 332/332/332 331/331/331
f 331/331/331 332/332/332 15/15/15
f 15/15/15 14/14/14 331/331/331
f 372/372/372 373/373/373 330/330/330
f 308/308/308 369/369/369 372/372/372
f 373/373/373 372/372/372 369/369/369
f 293/293/293 289/289/289 291/291/291
f 289/289/289 290/290/290 291/291/291
f 291/291/291 292/292/292 293/293/293
f 567/567/567 566/566/566 569/569/569
f 566/566/566 567/567/567 568/568/568
f 569/569/569 570/570/570 567/567/567
f 164/164/164 165/165/165 166/166/166
f 162/162/162 165/165/165 164/164/164
f 164/164/164 163/163/163 162/162/162
f 162/162/162 163/163/163 160/160/160
f 160/160/160 455/455/455 456/456/456
f 456/456/456 455/455/455 457/457/457
f 288/288/288 284/284/284 286/286/286
f 284/284/284 285/285/285 286/286/286
f 286/286/286 287/287/287 288/288/288
f 562/562/562 561/561/561 564/564/564
f 561/561/561 562/562/562 563/563/563
f 564/564/564 565/565/565 562/562/562
f 369/369/369 368/368/368 373/373/373
f 311/311/311 370/370/370 369/369/369
f 369/369/369 308/308/308 311/311/311
f 368/368/368 369/369/369 370/370/370
f 370/370/370 343/343/343 368/368/368
f 511/511/511 370/370/370 311/311/311
f 371/371/371 370/370/370 511/511/511
f 370/370/370 371/371/371 358/358/358
f 358/358/358 343/343/343 370/370/370
f 340/340/340 343/343/343 358/358/358
f 342/342/342 343/343/343 340/340/340
f 358/358/358 351/351/351 338/338/338
f 338/338/338 345/345/345 358/358/358
f 352/352/352 351/351/351 358/358/358
f 358/358/358 371/371/371 352/352/352
f 358/358/358 345/345/345 340/340/340
f 511/511/511 379/379/379 371/371/371
f 353/353/353 352/352/352 371/371/371
f 371/371/371 379/379/379 353/353/353
f 43/43/43 352/352/352 353/353/353
f 351/351/351 352/352/352 43/43/43
f 27/27/27 338/338/338 351/351/351
f 351/351/351 42/42/42 27/27/27
f 43/43/43 42/42/42 351/351/351
f 345/345/345 338/338/338 339/339/339
f 26/26/26 339/339/339 338/338/338
f 338/338/338 27/27/27 26/26/26
f 27/27/27 42/42/42 41/41/41
f 41/41/41 24/24/24 27/27/27
f 26/26/26 27/27/27 24/24/24
f 41/41/41 42/42/42 43/43/43
f 24/24/24 41/41/41 51/51/51
f 51/51/51 41/41/41 44/44/44
f 43/43/43 44/44/44 41/41/41
f 34/34/34 25/25/25 24/24/24
f 100/100/100 93/93/93 118/118/118
f 93/93/93 92/92/92 118/118/118
f 91/91/91 92/92/92 93/93/93
f 127/127/127 91/91/91 123/123/123
f 128/128/128 127/127/127 123/123/123
f 128/128/128 135/135/135 127/127/127
f 136/136/136 137/137/137 127/127/127
f 127/127/127 135/135/135 136/136/136
f 144/144/144 128/128/128 90/90/90
f 128/128/128 143/143/143 135/135/135
f 143/143/143 128/128/128 144/144/144
f 143/143/143 132/132/132 135/135/135
f 135/135/135 132/132/132 131/131/131
f 131/131/131 136/136/136 135/135/135
f 131/131/131 140/140/140 136/136/136
f 137/137/137 136/136/136 140/140/140
f 131/131/131 134/134/134 140/140/140
f 133/133/133 134/134/134 131/131/131
f 131/131/131 132/132/132 133/133/133
f 132/132/132 143/143/143 142/142/142
f 133/133/133 132/132/132 142/142/142
f 143/143/143 145/145/145 225/225/225
f 225/225/225 142/142/142 143/143/143
f 144/144/144 145/145/145 143/143/143
f 90/90/90 130/130/130 144/144/144
f 129/129/129 130/130/130 90/90/90
f 398/398/398 416/416/416 391/391/391
f 391/391/391 416/416/416 392/392/392
f 391/391/391 392/392/392 389/389/389
f 425/425/425 421/421/421 389/389/389
f 426/426/426 421/421/421 425/425/425
f 426/426/426 425/425/425 435/435/435
f 434/434/434 435/435/435 425/425/425
f 425/425/425 433/433/433 434/434/434
f 387/387/387 426/426/426 443/443/443
f 426/426/426 435/435/435 441/441/441
f 443/443/443 426/426/426 441/441/441
f 441/441/441 435/435/435 432/432/432
f 435/435/435 434/434/434 429/429/429
f 429/429/429 432/432/432 435/435/435
f 429/429/429 434/434/434 438/438/438
f 433/433/433 438/438/438 434/434/434
f 429/429/429 438/438/438 430/430/430
f 431/431/431 432/432/432 429/429/429
f 429/429/429 430/430/430 431/431/431
f 432/432/432 440/440/440 441/441/441
f 431/431/431 440/440/440 432/432/432
f 441/441/441 440/440/440 504/504/504
f 504/504/504 442/442/442 441/441/441
f 441/441/441 442/442/442 443/443/443
f 443/443/443 428/428/428 387/387/387
f 387/387/387 428/428/428 427/427/427
f 283/283/283 279/279/279 281/281/281
f 279/279/279 280/280/280 281/281/281
f 281/281/281 282/282/282 283/283/283
f 557/557/557 556/556/556 559/559/559
f 556/556/556 557/557/557 558/558/558
f 559/559/559 560/560/560 557/557/557
f 271/271/271 272/272/272 269/269/269
f 269/269/269 270/270/270 271/271/271
f 271/271/271 273/273/273 272/272/272
f 548/548/548 549/549/549 546/546/546
f 546/546/546 547/547/547 548/548/548
f 548/548/548 547/547/547 550/550/550
f 276/276/276 277/277/277 274/274/274
f 274/274/274 275/275/275 276/276/276
f 276/276/276 278/278/278 277/277/277
f 553/553/553 554/554/554 551/551/551
f 551/551/551 552/552/552 553/553/553
f 553/553/553 552/552/552 555/555/555
f 9/9/9 12/12/12 13/13/13
f 13/13/13 16/16/16 9/9/9
f 11/11/11 12/12/12 9/9/9
f 9/9/9 10/10/10 11/11/11
f 13/13/13 12/12/12 155/155/155
f 154/154/154 155/155/155 12/12/12
f 12/12/12 11/11/11 154/154/154
f 155/155/155 14/14/14 13/13/13
f 15/15/15 16/16/16 13/13/13
f 13/13/13 14/14/14 15/15/15
f 297/297/297 298/298/298 294/294/294
f 296/296/296 297/297/297 294/294/294
f 294/294/294 295/295/295 296/296/296
f 572/572/572 571/571/571 575/575/575
f 573/573/573 574/574/574 571/571/571
f 571/571/571 572/572/572 573/573/573
f 46/46/46 81/81/81 66/66/66
f 46/46/46 45/45/45 202/202/202
f 66/66/66 44/44/44 46/46/46
f 46/46/46 44/44/44 43/43/43
f 43/43/43 45/45/45 46/46/46
f 312/312/312 202/202/202 450/450/450
f 202/202/202 45/45/45 353/353/353
f 353/353/353 450/450/450 202/202/202
f 450/450/450 505/505/505 312/312/312
f 505/505/505 450/450/450 451/451/451
f 379/379/379 451/451/451 450/450/450
f 450/450/450 353/353/353 379/379/379
f 353/353/353 45/45/45 43/43/43
f 451/451/451 506/506/506 505/505/505
f 28/28/28 32/32/32 34/34/34
f 51/51/51 29/29/29 28/28/28
f 28/28/28 34/34/34 51/51/51
f 28/28/28 35/35/35 32/32/32
f 64/64/64 29/29/29 51/51/51
f 63/63/63 29/29/29 64/64/64
f 51/51/51 66/66/66 64/64/64
f 44/44/44 66/66/66 51/51/51
f 311/311/311 64/64/64 234/234/234
f 65/65/65 64/64/64 311/311/311
f 234/234/234 64/64/64 66/66/66
f 64/64/64 65/65/65 63/63/63
f 67/67/67 63/63/63 65/65/65
f 311/311/311 308/308/308 65/65/65
f 311/311/311 310/310/310 511/511/511
f 234/234/234 310/310/310 311/311/311
f 310/310/310 234/234/234 231/231/231
f 66/66/66 81/81/81 234/234/234
f 234/234/234 81/81/81 153/153/153
f 153/153/153 231/231/231 234/234/234
f 508/508/508 511/511/511 310/310/310
f 310/310/310 230/230/230 508/508/508
f 231/231/231 230/230/230 310/310/310
f 511/511/511 508/508/508 451/451/451
f 451/451/451 379/379/379 511/511/511
f 508/508/508 507/507/507 506/506/506
f 506/506/506 451/451/451 508/508/508
f 356/356/356 464/464/464 452/452/452
f 452/452/452 465/465/465 306/306/306
f 465/465/465 467/467/467 305/305/305
f 305/305/305 306/306/306 465/465/465
f 466/466/466 467/467/467 465/465/465
f 306/306/306 182/182/182 452/452/452
f 452/452/452 380/380/380 356/356/356
f 449/449/449 452/452/452 182/182/182
f 449/449/449 380/380/380 452/452/452
f 356/356/356 380/380/380 323/323/323
f 323/323/323 326/326/326 356/356/356
f 356/356/356 326/326/326 357/357/357
f 380/380/380 449/449/449 448/448/448
f 448/448/448 381/381/381 380/380/380
f 382/382/382 323/323/323 380/380/380
f 380/380/380 381/381/381 382/382/382
f 182/182/182 181/181/181 449/449/449
f 157/157/157 182/182/182 306/306/306
f 182/182/182 157/157/157 151/151/151
f 151/151/151 181/181/181 182/182/182
f 306/306/306 174/174/174 157/157/157
f 172/172/172 157/157/157 174/174/174
f 49/49/49 82/82/82 157/157/157
f 157/157/157 172/172/172 49/49/49
f 151/151/151 157/157/157 82/82/82
f 174/174/174 306/306/306 305/305/305
f 305/305/305 175/175/175 174/174/174
f 174/174/174 173/173/173 172/172/172
f 176/176/176 173/173/173 174/174/174
f 174/174/174 175/175/175 176/176/176
f 50/50/50 49/49/49 172/172/172
f 171/171/171 50/50/50 172/172/172
f 171/171/171 172/172/172 173/173/173
f 49/49/49 6/6/6 5/5/5
f 5/5/5 82/82/82 49/49/49
f 3/3/3 2/2/2 321/321/321
f 322/322/322 321/321/321 500/500/500
f 500/500/500 321/321/321 468/468/468
f 321/321/321 322/322/322 3/3/3
f 581/581/581 319/319/319 3/3/3
f 3/3/3 322/322/322 581/581/581
f 320/320/320 4/4/4 3/3/3
f 3/3/3 319/319/319 320/320/320
f 454/454/454 581/581/581 322/322/322
f 322/322/322 357/357/357 454/454/454
f 357/357/357 322/322/322 462/462/462
f 500/500/500 502/502/502 322/322/322
f 322/322/322 502/502/502 462/462/462
f 468/468/468 499/499/499 500/500/500
f 499/499/499 468/468/468 463/463/463
f 463/463/463 468/468/468 469/469/469
f 179/179/179 469/469/469 468/468/468
f 464/464/464 463/463/463 465/465/465
f 469/469/469 466/466/466 463/463/463
f 465/465/465 463/463/463 466/466/466
f 462/462/462 463/463/463 464/464/464
f 462/462/462 464/464/464 357/357/357
f 357/357/357 464/464/464 356/356/356
f 465/465/465 452/452/452 464/464/464
f 161/161/161 72/72/72 71/71/71
f 71/71/71 162/162/162 161/161/161
f 165/165/165 162/162/162 71/71/71
f 71/71/71 74/74/74 165/165/165
f 73/73/73 74/74/74 71/71/71
f 71/71/71 72/72/72 73/73/73
f 161/161/161 456/456/456 376/376/376
f 376/376/376 72/72/72 161/161/161
f 456/456/456 161/161/161 160/160/160
f 160/160/160 161/161/161 162/162/162
f 507/507/507 508/508/508 230/230/230
f 230/230/230 229/229/229 507/507/507
f 230/230/230 231/231/231 228/228/228
f 228/228/228 229/229/229 230/230/230
f 227/227/227 228/228/228 231/231/231
f 231/231/231 153/153/153 227/227/227
f 226/226/226 227/227/227 153/153/153
f 153/153/153 152/152/152 226/226/226
f 152/152/152 153/153/153 81/81/81
f 312/312/312 226/226/226 152/152/152
f 152/152/152 202/202/202 312/312/312
f 202/202/202 152/152/152 46/46/46
f 81/81/81 46/46/46 152/152/152
f 523/523/523 524/524/524 521/521/521
f 521/521/521 522/522/522 523/523/523
f 523/523/523 525/525/525 524/524/524
f 246/246/246 247/247/247 244/244/244
f 244/244/244 245/245/245 246/246/246
f 246/246/246 245/245/245 248/248/248
f 220/220/220 221/221/221 177/177/177
f 221/221/221 173/173/173 177/177/177
f 178/178/178 177/177/177 173/173/173
f 177/177/177 178/178/178 179/179/179
f 173/173/173 176/176/176 178/178/178
f 180/180/180 2/2/2 1/1/1
f 1/1/1 177/177/177 180/180/180
f 220/220/220 1/1/1 4/4/4
f 177/177/177 1/1/1 220/220/220
f 3/3/3 4/4/4 1/1/1
f 1/1/1 2/2/2 3/3/3
f 180/180/180 468/468/468 321/321/321
f 321/321/321 2/2/2 180/180/180
f 468/468/468 180/180/180 179/179/179
f 179/179/179 180/180/180 177/177/177
f 214/214/214 204/204/204 203/203/203
f 203/203/203 233/233/233 214/214/214
f 209/209/209 233/233/233 203/203/203
f 208/208/208 209/209/209 203/203/203
f 208/208/208 203/203/203 206/206/206
f 205/205/205 206/206/206 203/203/203
f 203/203/203 204/204/204 205/205/205
f 212/212/212 215/215/215 214/214/214
f 214/214/214 213/213/213 212/212/212
f 214/214/214 215/215/215 205/205/205
f 205/205/205 204/204/204 214/214/214
f 205/205/205 215/215/215 216/216/216
f 217/217/217 206/206/206 205/205/205
f 205/205/205 216/216/216 217/217/217
f 222/222/222 207/207/207 206/206/206
f 206/206/206 217/217/217 222/222/222
f 206/206/206 207/207/207 208/208/208
f 208/208/208 232/232/232 209/209/209
f 222/222/222 217/217/217 211/211/211
f 211/211/211 219/219/219 222/222/222
f 211/211/211 217/217/217 216/216/216
f 215/215/215 212/212/212 216/216/216
f 216/216/216 212/212/212 211/211/211
f 211/211/211 210/210/210 218/218/218
f 218/218/218 219/219/219 211/211/211
f 210/210/210 211/211/211 212/212/212
f 212/212/212 213/213/213 210/210/210
f 518/518/518 519/519/519 520/520/520
f 241/241/241 242/242/242 243/243/243
f 484/484/484 493/493/493 494/494/494
f 484/484/484 496/496/496 493/493/493
f 495/495/495 496/496/496 484/484/484
f 484/484/484 483/483/483 495/495/495
f 501/501/501 495/495/495 483/483/483
f 483/483/483 487/487/487 501/501/501
f 486/486/486 487/487/487 483/483/483
f 486/486/486 488/488/488 509/509/509
f 501/501/501 498/498/498 492/492/492
f 492/492/492 495/495/495 501/501/501
f 496/496/496 495/495/495 492/492/492
f 493/493/493 496/496/496 491/491/491
f 492/492/492 491/491/491 496/496/496
f 492/492/492 498/498/498 497/497/497
f 497/497/497 489/489/489 492/492/492
f 491/491/491 492/492/492 489/489/489
f 489/489/489 490/490/490 491/491/491
f 540/540/540 536/536/536 538/538/538
f 536/536/536 537/537/537 538/538/538
f 538/538/538 539/539/539 540/540/540
f 260/260/260 259/259/259 262/262/262
f 259/259/259 260/260/260 261/261/261
f 262/262/262 263/263/263 260/260/260
f 494/494/494 510/510/510 482/482/482
f 482/482/482 485/485/485 494/494/494
f 488/488/488 482/482/482 510/510/510
f 486/486/486 482/482/482 488/488/488
f 483/483/483 482/482/482 486/486/486
f 484/484/484 485/485/485 482/482/482
f 482/482/482 483/483/483 484/484/484
f 491/491/491 490/490/490 494/494/494
f 494/494/494 493/493/493 491/491/491
f 494/494/494 485/485/485 484/484/484
f 265/265/265 264/264/264 267/267/267
f 264/264/264 265/265/265 266/266/266
f 267/267/267 268/268/268 265/265/265
f 545/545/545 541/541/541 543/543/543
f 541/541/541 542/542/542 543/543/543
f 543/543/543 544/544/544 545/545/545
f 530/530/530 526/526/526 528/528/528
f 526/526/526 527/527/527 528/528/528
f 528/528/528 529/529/529 530/530/530
f 250/250/250 249/249/249 252/252/252
f 249/249/249 250/250/250 251/251/251
f 252/252/252 253/253/253 250/250/250
f 256/256/256 257/257/257 254/254/254
f 254/254/254 255/255/255 256/256/256
f 256/256/256 255/255/255 258/258/258
f 533/533/533 534/534/534 531/531/531
f 531/531/531 532/532/532 533/533/533
f 533/533/533 535/535/535 534/534/534
f 32/32/32 33/33/33 34/34/34
f 32/32/32 35/35/35 33/33/33
f 33/33/33 35/35/35 40/40/40
f 316/316/316 318/318/318 580/580/580
f 316/316/316 317/317/317 318/318/318
f 517/517/517 512/512/512 514/514/514
f 512/512/512 513/513/513 514/514/514
f 516/516/516 517/517/517 514/514/514
f 513/513/513 515/515/515 514/514/514
f 515/515/515 516/516/516 514/514/514
f 240/240/240 236/236/236 235/235/235
f 235/235/235 236/236/236 237/237/237
f 239/239/239 236/236/236 240/240/240
f 237/237/237 236/236/236 238/238/238
f 238/238/238 236/236/236 239/239/239
f 49/49/49 50/50/50 6/6/6
f 158/158/158 50/50/50 4/4/4
f 50/50/50 171/171/171 4/4/4
f 50/50/50 77/77/77 7/7/7
f 77/77/77 50/50/50 158/158/158
f 6/6/6 50/50/50 7/7/7
f 4/4/4 171/171/171 223/223/223
f 4/4/4 320/320/320 158/158/158
f 4/4/4 223/223/223 220/220/220
f 77/77/77 158/158/158 159/159/159
f 313/313/313 78/78/78 77/77/77
f 77/77/77 159/159/159 313/313/313
f 7/7/7 77/77/77 78/78/78
f 313/313/313 453/453/453 378/378/378
f 378/378/378 78/78/78 313/313/313
f 78/78/78 378/378/378 325/325/325
f 325/325/325 79/79/79 78/78/78
f 78/78/78 79/79/79 7/7/7
f 357/357/357 325/325/325 378/378/378
f 378/378/378 454/454/454 357/357/357
f 69/69/69 8/8/8 48/48/48
f 48/48/48 70/70/70 69/69/69
f 83/83/83 69/69/69 147/147/147
f 147/147/147 69/69/69 70/70/70
f 147/147/147 148/148/148 83/83/83
f 149/149/149 84/84/84 83/83/83
f 83/83/83 148/148/148 149/149/149
f 83/83/83 84/84/84 82/82/82
f 82/82/82 5/5/5 83/83/83
f 70/70/70 146/146/146 147/147/147
f 82/82/82 84/84/84 150/150/150
f 150/150/150 151/151/151 82/82/82
f 150/150/150 84/84/84 149/149/149
f 149/149/149 224/224/224 150/150/150
f 444/444/444 445/445/445 375/375/375
f 375/375/375 374/374/374 444/444/444
f 444/444/444 374/374/374 382/382/382
f 382/382/382 447/447/447 444/444/444
f 446/446/446 447/447/447 382/382/382
f 382/382/382 381/381/381 446/446/446
f 446/446/446 381/381/381 448/448/448
f 448/448/448 503/503/503 446/446/446
f 73/73/73 72/72/72 376/376/376
f 460/460/460 377/377/377 376/376/376
f 376/376/376 456/456/456 460/460/460
f 376/376/376 377/377/377 73/73/73
f 73/73/73 377/377/377 461/461/461
f 461/461/461 169/169/169 73/73/73
f 73/73/73 169/169/169 168/168/168
f 168/168/168 74/74/74 73/73/73
f 165/165/165 74/74/74 168/168/168
f 168/168/168 166/166/166 165/165/165
f 170/170/170 166/166/166 168/168/168
f 168/168/168 169/169/169 170/170/170
f 170/170/170 169/169/169 461/461/461
f 461/461/461 377/377/377 460/460/460
f 460/460/460 459/459/459 461/461/461
f 461/461/461 459/459/459 170/170/170
f 457/457/457 460/460/460 456/456/456
f 459/459/459 460/460/460 457/457/457
f 459/459/459 458/458/458 314/314/314
f 314/314/314 170/170/170 459/459/459
f 457/457/457 458/458/458 459/459/459
f 166/166/166 170/170/170 314/314/314
f 314/314/314 167/167/167 166/166/166
f 166/166/166 167/167/167 164/164/164
f 378/378/378 453/453/453 454/454/454
f 79/79/79 325/325/325 355/355/355
f 326/326/326 325/325/325 357/357/357
f 355/355/355 325/325/325 324/324/324
f 325/325/325 326/326/326 323/323/323
f 323/323/323 324/324/324 325/325/325
f 355/355/355 80/80/80 79/79/79
f 47/47/47 7/7/7 79/79/79
f 79/79/79 80/80/80 47/47/47
f 80/80/80 355/355/355 354/354/354
f 324/324/324 354/354/354 355/355/355
f 324/324/324 323/323/323 382/382/382
f 382/382/382 374/374/374 324/324/324
f 354/354/354 324/324/324 374/374/374
f 354/354/354 156/156/156 80/80/80
f 374/374/374 375/375/375 354/354/354
f 80/80/80 156/156/156 48/48/48
f 48/48/48 47/47/47 80/80/80
f 47/47/47 48/48/48 8/8/8
f 8/8/8 7/7/7 47/47/47
f 7/7/7 8/8/8 5/5/5
f 5/5/5 6/6/6 7/7/7
f 8/8/8 69/69/69 83/83/83
f 83/83/83 5/5/5 8/8/8
f 360/360/360 76/76/76 22/22/22
f 22/22/22 76/76/76 55/55/55
f 350/350/350 348/348/348 360/360/360
f 349/349/349 348/348/348 350/350/350
f 360/360/360 362/362/362 350/350/350
f 22/22/22 337/337/337 360/360/360
f 361/361/361 362/362/362 360/360/360
f 360/360/360 337/337/337 361/361/361
f 362/362/362 341/341/341 350/350/350
f 346/346/346 350/350/350 347/347/347
f 350/350/350 341/341/341 347/347/347
f 350/350/350 346/346/346 349/349/349
f 349/349/349 346/346/346 345/345/345
f 344/344/344 346/346/346 347/347/347
f 344/344/344 345/345/345 346/346/346
f 340/340/340 344/344/344 347/347/347
f 341/341/341 340/340/340 347/347/347
f 342/342/342 341/341/341 362/362/362
f 340/340/340 341/341/341 342/342/342
f 340/340/340 345/345/345 344/344/344
f 362/362/362 363/363/363 342/342/342
f 363/363/363 362/362/362 361/361/361
f 361/361/361 367/367/367 363/363/363
f 361/361/361 337/337/337 336/336/336
f 198/198/198 183/183/183 185/185/185
f 183/183/183 184/184/184 185/185/185
f 185/185/185 199/199/199 198/198/198
f 197/197/197 198/198/198 199/199/199
f 185/185/185 315/315/315 471/471/471
f 185/185/185 470/470/470 480/480/480
f 480/480/480 199/199/199 185/185/185
f 470/470/470 185/185/185 471/471/471
f 185/185/185 184/184/184 315/315/315
f 196/196/196 199/199/199 479/479/479
f 479/479/479 199/199/199 480/480/480
f 197/197/197 199/199/199 196/196/196
f 196/196/196 195/195/195 197/197/197
f 479/479/479 478/478/478 196/196/196
f 477/477/477 196/196/196 478/478/478
f 194/194/194 195/195/195 196/196/196
f 107/107/107 108/108/108 106/106/106
f 106/106/106 108/108/108 121/121/121
f 122/122/122 115/115/115 114/114/114
f 113/113/113 114/114/114 115/115/115
f 139/139/139 138/138/138 141/141/141
f 138/138/138 139/139/139 126/126/126
f 404/404/404 405/405/405 406/406/406
f 404/404/404 419/419/419 405/405/405
f 413/413/413 412/412/412 420/420/420
f 411/411/411 412/412/412 413/413/413
f 423/423/423 436/436/436 437/437/437
f 436/436/436 439/439/439 437/437/437
f 393/393/393 417/417/417 394/394/394
f 395/395/395 396/396/396 393/393/393
f 393/393/393 394/394/394 395/395/395
f 395/395/395 424/424/424 396/396/396
f 424/424/424 395/395/395 406/406/406
f 406/406/406 395/395/395 404/404/404
f 437/437/437 424/424/424 423/423/423
f 406/406/406 423/423/423 424/424/424
f 420/420/420 423/423/423 406/406/406
f 420/420/420 406/406/406 413/413/413
f 95/95/95 98/98/98 119/119/119
f 97/97/97 98/98/98 95/95/95
f 95/95/95 96/96/96 97/97/97
f 97/97/97 96/96/96 125/125/125
f 107/107/107 97/97/97 125/125/125
f 106/106/106 97/97/97 107/107/107
f 126/126/126 125/125/125 138/138/138
f 125/125/125 126/126/126 107/107/107
f 122/122/122 107/107/107 126/126/126
f 114/114/114 107/107/107 122/122/122
f 336/336/336 334/334/334 361/361/361
f 367/367/367 361/361/361 334/334/334
f 366/366/366 365/365/365 367/367/367
f 334/334/334 366/366/366 367/367/367
f 335/335/335 334/334/334 336/336/336
f 366/366/366 334/334/334 333/333/333
f 333/333/333 334/334/334 335/335/335
f 75/75/75 335/335/335 336/336/336
f 336/336/336 21/21/21 75/75/75
f 22/22/22 21/21/21 336/336/336
f 336/336/336 337/337/337 22/22/22
f 54/54/54 333/333/333 335/335/335
f 335/335/335 75/75/75 54/54/54
f 333/333/333 359/359/359 366/366/366
f 359/359/359 333/333/333 54/54/54
f 54/54/54 53/53/53 359/359/359
f 54/54/54 75/75/75 18/18/18
f 18/18/18 17/17/17 54/54/54
f 54/54/54 17/17/17 52/52/52
f 52/52/52 53/53/53 54/54/54
f 75/75/75 21/21/21 20/20/20
f 20/20/20 18/18/18 75/75/75
f 20/20/20 21/21/21 22/22/22
f 57/57/57 19/19/19 20/20/20
f 20/20/20 23/23/23 57/57/57
f 18/18/18 20/20/20 19/19/19
f 22/22/22 23/23/23 20/20/20
f 55/55/55 23/23/23 22/22/22
f 57/57/57 23/23/23 55/55/55
f 40/40/40 56/56/56 55/55/55
f 55/55/55 56/56/56 57/57/57
f 57/57/57 56/56/56 58/58/58
f 58/58/58 62/62/62 57/57/57
f 19/19/19 57/57/57 62/62/62
f 17/17/17 19/19/19 60/60/60
f 62/62/62 60/60/60 19/19/19
f 17/17/17 18/18/18 19/19/19
f 60/60/60 62/62/62 61/61/61
f 60/60/60 52/52/52 17/17/17
f 60/60/60 61/61/61 59/59/59
f 59/59/59 52/52/52 60/60/60
f 53/53/53 52/52/52 59/59/59
f 59/59/59 307/307/307 53/53/53
f 364/364/364 359/359/359 53/53/53
f 53/53/53 307/307/307 364/364/364
f 366/366/366 359/359/359 364/364/364
f 364/364/364 365/365/365 366/366/366
f 30/30/30 58/58/58 56/56/56
f 56/56/56 31/31/31 30/30/30
f 30/30/30 31/31/31 28/28/28
f 28/28/28 29/29/29 30/30/30
f 56/56/56 40/40/40 31/31/31
f 40/40/40 35/35/35 31/31/31
f 31/31/31 35/35/35 28/28/28
f 51/51/51 34/34/34 24/24/24
f 24/24/24 25/25/25 26/26/26
f 339/339/339 26/26/26 38/38/38
f 38/38/38 26/26/26 25/25/25
f 38/38/38 349/349/349 339/339/339
f 345/345/345 339/339/339 349/349/349
f 38/38/38 37/37/37 348/348/348
f 348/348/348 349/349/349 38/38/38
f 25/25/25 39/39/39 38/38/38
f 38/38/38 39/39/39 36/36/36
f 36/36/36 37/37/37 38/38/38
f 39/39/39 25/25/25 34/34/34
f 34/34/34 33/33/33 39/39/39
f 39/39/39 33/33/33 40/40/40
f 40/40/40 36/36/36 39/39/39
f 55/55/55 36/36/36 40/40/40
f 76/76/76 37/37/37 36/36/36
f 36/36/36 55/55/55 76/76/76
f 348/348/348 37/37/37 76/76/76
f 76/76/76 360/360/360 348/348/348
