# parasau_adult reconstructed from live game memory
v -1.97097 21.90916 41.13995
v -0.00000 23.95450 41.14113
v -0.00000 22.25275 47.68881
v -1.03607 21.39025 47.67892
v -8.42447 -0.00029 -1.75784
v -7.59099 0.00024 -6.80525
v -8.53189 2.96242 -1.72264
v -6.19148 2.91365 -2.11727
v -6.35707 -0.00024 -1.83975
v -7.16780 7.11925 -0.41192
v -8.59655 7.16504 1.50213
v -9.49608 2.65854 -1.10193
v -4.60435 2.09265 0.11969
v -5.45583 7.15044 1.46143
v -5.69633 7.11634 -0.32214
v -5.22634 2.55494 -1.44510
v -9.98175 -0.00032 -1.13822
v -11.26215 -0.00001 -5.50897
v -4.75339 0.00025 -5.72687
v -4.67991 -0.00020 -1.48251
v -8.27327 2.11513 2.33094
v -7.15944 7.19167 3.73675
v -7.01934 2.70344 3.14229
v -0.00000 21.30353 48.41252
v -10.69180 16.37001 -3.48332
v -8.33493 16.35210 -9.40522
v -8.60507 24.61230 -8.97774
v -10.75989 24.95365 -0.88304
v -2.34769 37.76652 -26.89140
v -2.75343 35.94451 -29.51346
v -2.89148 39.16465 -29.89685
v -2.52019 40.62168 -27.08120
v -6.65599 26.81006 -18.97433
v -4.98270 34.17833 -11.55074
v -7.31479 25.74767 -12.82820
v -4.90761 25.00956 -24.63250
v -3.02341 29.46766 -25.72659
v -4.56310 28.45514 -22.94048
v -2.56241 32.54037 -23.39389
v -2.61539 32.72436 -27.63607
v -2.17519 34.91135 -25.32607
v -2.75924 32.24497 -20.77182
v -3.87672 32.88214 -17.12473
v -5.95389 33.33139 3.40328
v -0.00018 37.19594 4.49399
v -0.00000 34.18697 10.12359
v -6.10734 27.77014 9.84557
v 0.00000 35.78763 -24.28254
v 0.00000 34.29661 -22.66837
v 0.00000 38.59404 -25.83263
v -7.16241 17.58062 1.95487
v -3.39796 17.10484 -2.12224
v -7.04465 16.36360 -0.21197
v -7.98670 11.21168 -4.10182
v -9.70381 12.45664 -0.84494
v -5.02978 11.50966 -2.99450
v -4.97226 12.60189 -0.30920
v -5.27396 22.15827 9.61411
v -5.59985 34.30109 -2.86515
v -7.50669 30.01329 -5.85719
v -5.38712 2.11563 2.34451
v -7.15944 7.19167 3.73675
v -7.16040 13.52245 1.92495
v -3.74684 17.41623 -6.19955
v 0.00000 16.60277 -6.49798
v 0.00000 19.38668 -13.80697
v -4.52378 20.56580 -13.80694
v -7.73218 23.16511 -18.38507
v -7.71002 22.31944 -21.18102
v -7.00238 26.05390 -22.63169
v -6.15053 21.14057 -22.18265
v -5.60588 23.29364 -17.80292
v -5.06095 16.83753 -19.18118
v -6.07363 16.81906 -17.95002
v -7.43228 16.82535 -18.46964
v -7.55985 16.84425 -20.02018
v -6.20788 17.99992 -21.55466
v -4.94509 16.85225 -20.77647
v -4.61462 20.88305 -20.61376
v -4.94509 16.85225 -20.77647
v -4.61462 20.88305 -20.61376
v -5.11571 11.16889 -20.94935
v -5.90541 11.04507 -20.52325
v -6.61480 10.98222 -20.79995
v -7.14256 12.56207 -21.48284
v -6.05702 13.45587 -22.20060
v -6.22870 16.85987 -21.32671
v -5.10526 12.56875 -21.76519
v -5.10526 12.56875 -21.76519
v -7.16040 13.52245 1.92495
v -7.17467 24.51471 -8.02850
v -5.15724 11.17873 -22.08603
v -5.94564 11.24746 -22.76756
v -5.14526 8.67606 -21.87772
v -4.30812 9.10952 -21.26266
v -5.38679 9.44845 -20.81680
v -4.84770 7.29703 -20.58017
v -5.38679 9.44845 -20.81680
v -4.30812 9.10952 -21.26266
v -4.84770 7.29703 -20.58017
v -5.15724 11.17873 -22.08603
v -7.00714 11.17248 -21.95747
v -7.62972 9.20061 -21.30257
v -6.79011 8.70347 -22.22814
v -6.69163 9.37259 -21.26352
v -7.24279 7.26056 -20.97290
v -6.69163 9.37259 -21.26352
v -5.93817 6.95919 -21.13374
v -5.85320 8.44088 -22.32477
v -5.93817 6.95919 -21.13374
v 0.00000 23.48129 -24.89646
v 0.00000 27.63705 -26.96658
v 0.00000 30.89491 -29.13423
v -3.39796 17.10484 -2.12224
v 0.00000 16.92515 -2.04303
v 0.00000 34.39294 -20.18287
v -0.00000 37.72083 -16.69776
v 0.00000 40.15618 -11.02993
v 0.00038 39.51920 -2.04903
v -7.04465 16.36360 -0.21197
v -0.00000 30.05303 21.69344
v -4.59870 24.94651 21.71675
v -6.10734 27.77014 9.84557
v -0.00000 34.18697 10.12359
v -0.00000 20.45240 47.66499
v -3.26982 23.35424 31.48238
v -0.00000 26.92221 31.47132
v 0.00000 37.81054 -32.08497
v 0.00000 34.35272 -30.94890
v -1.99705 40.86332 -41.49490
v -1.83908 42.24755 -41.52081
v -2.67261 41.43323 -38.73324
v -1.14262 39.65451 -40.41357
v -1.60596 40.51320 -41.41235
v -1.61782 39.85686 -38.51208
v -0.00000 40.38651 -42.30898
v -0.00000 38.85944 -40.59345
v -3.61497 45.34428 -29.08196
v -3.79706 44.64753 -32.08439
v -3.08091 46.08214 -30.73918
v -0.00000 39.26801 -38.39316
v -1.28864 44.94714 -38.79720
v -2.00541 47.23484 -35.55214
v -2.66905 45.97449 -34.62906
v -2.65807 43.45037 -37.54966
v -3.31726 44.78792 -33.74695
v -3.45120 42.00763 -34.97534
v -2.03115 49.14074 -32.49054
v -2.78140 47.47469 -32.55063
v -1.92395 38.91727 -33.03807
v 0.00000 39.33048 -35.67319
v -3.04935 40.17793 -35.55801
v -4.09162 41.68777 -31.70945
v -4.01142 42.94354 -28.73113
v -2.05339 48.55308 -29.55943
v -2.27261 46.06224 -27.67657
v -0.00000 46.77222 -26.79674
v -0.00000 49.07114 -28.27707
v -2.73048 43.90253 -26.74962
v -0.00000 44.49107 -25.70773
v -0.00000 50.48790 -32.43407
v -0.00000 48.21331 -35.94725
v -1.01245 43.62014 -41.04512
v 0.00000 41.40045 -26.00718
v 0.00000 38.34814 -33.28647
v -0.00000 44.26962 -41.36707
v -0.00000 45.59858 -39.21893
v 0.00000 42.37682 -42.38544
v 0.00000 40.68777 -42.53071
v -1.70705 49.86491 -27.98008
v -0.00000 49.39682 -27.87547
v -0.00000 52.37573 -28.95435
v -1.62213 51.12431 -28.49582
v -0.00000 50.42669 -24.92214
v -1.27546 50.84004 -24.96582
v -1.23111 50.45040 -21.57471
v -0.00000 50.18996 -21.74884
v -1.38639 52.04740 -24.96503
v -0.00000 53.38240 -25.09650
v -0.00000 52.98796 -21.05857
v -1.32415 51.86435 -21.28642
v -0.00000 51.59605 -17.79259
v -1.08496 50.52671 -18.14820
v -1.03627 49.44173 -18.54099
v -0.78231 50.00907 -17.30488
v -0.00000 49.79489 -17.07976
v -1.99705 40.86332 -41.49490
v -2.67261 41.43323 -38.73324
v -0.00000 41.45751 -38.74525
v 0.00000 41.17031 -41.56217
v 0.00000 40.68777 -42.53071
v -0.00000 40.92061 -38.95744
v -1.60596 40.51320 -41.41235
v -0.00000 40.90419 -39.08601
v -0.00000 40.38651 -42.30898
v -7.01934 2.70344 3.14229
v 0.00000 19.04418 -20.67367
v -3.08263 45.66787 -32.75005
v -0.00000 20.57835 41.13880
v -0.00000 20.48208 21.79118
v -0.00000 20.58135 31.51902
v -5.27396 22.15827 9.61411
v 0.00000 20.07557 9.53833
v 0.00000 20.07557 9.53833
v 0.00000 16.92515 -2.04303
v -3.18098 45.30256 -33.23420
v -2.83643 45.72034 -33.82042
v -3.33385 45.96710 -32.66628
v -2.85599 46.63675 -32.75477
v -2.97252 46.12877 -31.52673
v -3.36216 45.34192 -32.24626
v 0.00000 19.04418 -20.67367
v -0.00000 49.25053 -19.60418
v -4.67991 -0.00020 -1.48251
v -9.98175 -0.00032 -1.13822
v -8.27327 2.11513 2.33094
v -5.38712 2.11563 2.34451
v -8.27327 2.11513 2.33094
v -7.01934 2.70344 3.14229
v -5.38712 2.11563 2.34451
v 1.97097 21.90916 41.13995
v 1.03607 21.39025 47.67892
v 8.42753 -0.00180 -1.75800
v 8.53183 2.96102 -1.72343
v 7.59111 -0.00020 -6.80681
v 6.19150 2.90970 -2.11825
v 6.36014 -0.00395 -1.84009
v 7.16181 7.11822 -0.41663
v 9.49628 2.65830 -1.10258
v 8.58925 7.16520 1.49837
v 4.60429 2.08774 0.11731
v 5.22668 2.55012 -1.44609
v 5.69028 7.11463 -0.32784
v 5.44857 7.14909 1.45555
v 9.98476 -0.00006 -1.13825
v 11.26285 0.00219 -5.51218
v 4.75400 -0.00297 -5.72717
v 4.68295 -0.00560 -1.48299
v 8.27181 2.11659 2.33081
v 7.01664 2.70394 3.14092
v 7.15063 7.19173 3.73201
v 10.69099 16.36969 -3.48322
v 10.75983 24.95267 -0.88079
v 8.60849 24.61329 -8.97738
v 8.33840 16.35395 -9.40683
v 2.89148 39.16465 -29.89685
v 2.75344 35.94451 -29.51346
v 2.34769 37.76652 -26.89140
v 2.52019 40.62168 -27.08120
v 6.65599 26.81006 -18.97433
v 7.31479 25.74767 -12.82820
v 4.98271 34.17833 -11.55074
v 4.90761 25.00956 -24.63250
v 4.56310 28.45514 -22.94048
v 3.02341 29.46766 -25.72659
v 2.56242 32.54037 -23.39389
v 2.17519 34.91135 -25.32607
v 2.61539 32.72436 -27.63607
v 3.87672 32.88215 -17.12473
v 2.75924 32.24497 -20.77182
v 5.95378 33.33130 3.40343
v 6.10525 27.76949 9.84544
v 7.15802 17.58006 1.95270
v 7.04146 16.36360 -0.21452
v 3.39718 17.10563 -2.12474
v 9.69988 12.45598 -0.84651
v 7.98475 11.21234 -4.10494
v 5.02712 11.51096 -2.99969
v 4.96798 12.60256 -0.31417
v 5.27140 22.15771 9.61338
v 5.60112 34.30141 -2.86491
v 7.50873 30.01379 -5.85674
v 5.38566 2.11344 2.34260
v 7.15063 7.19173 3.73201
v 7.15479 13.52190 1.92179
v 3.74759 17.41747 -6.20189
v 4.52379 20.56579 -13.80694
v 7.00238 26.05391 -22.63169
v 7.71002 22.31944 -21.18102
v 7.73218 23.16511 -18.38507
v 6.15053 21.14057 -22.18265
v 5.60588 23.29364 -17.80292
v 6.07364 16.81907 -17.95001
v 5.06096 16.83754 -19.18118
v 7.55985 16.84425 -20.02017
v 7.43228 16.82535 -18.46963
v 6.20788 17.99995 -21.55467
v 4.94509 16.85225 -20.77647
v 4.61462 20.88305 -20.61376
v 4.94509 16.85225 -20.77647
v 4.61462 20.88305 -20.61376
v 5.90542 11.04507 -20.52325
v 5.11571 11.16890 -20.94935
v 6.61480 10.98223 -20.79994
v 7.14256 12.56207 -21.48283
v 6.22870 16.85987 -21.32671
v 6.05702 13.45587 -22.20060
v 5.10527 12.56875 -21.76519
v 5.10527 12.56875 -21.76519
v 7.15479 13.52190 1.92179
v 7.17617 24.51527 -8.02864
v 5.15725 11.17873 -22.08603
v 4.30812 9.10952 -21.26266
v 5.14526 8.67606 -21.87772
v 5.94565 11.24746 -22.76756
v 5.38680 9.44846 -20.81680
v 4.84770 7.29703 -20.58016
v 5.38680 9.44846 -20.81680
v 4.84770 7.29703 -20.58016
v 4.30812 9.10952 -21.26266
v 5.15725 11.17873 -22.08603
v 7.00715 11.17248 -21.95747
v 6.79012 8.70347 -22.22813
v 7.62972 9.20061 -21.30257
v 6.69164 9.37259 -21.26352
v 7.24280 7.26056 -20.97289
v 6.69164 9.37259 -21.26352
v 5.85320 8.44088 -22.32477
v 5.93818 6.95919 -21.13374
v 5.93818 6.95919 -21.13374
v 3.39718 17.10563 -2.12474
v 7.04146 16.36360 -0.21452
v 6.10525 27.76949 9.84544
v 4.59870 24.94651 21.71675
v 3.26982 23.35424 31.48238
v 1.99705 40.86332 -41.49490
v 2.67261 41.43323 -38.73324
v 1.83908 42.24755 -41.52081
v 1.14262 39.65451 -40.41357
v 1.61781 39.85686 -38.51208
v 1.60596 40.51320 -41.41235
v 3.61497 45.34428 -29.08196
v 3.08091 46.08215 -30.73918
v 3.79706 44.64754 -32.08440
v 1.28864 44.94714 -38.79720
v 2.65807 43.45037 -37.54966
v 2.66904 45.97449 -34.62906
v 2.00541 47.23485 -35.55214
v 3.45120 42.00763 -34.97534
v 3.31725 44.78792 -33.74695
v 2.78140 47.47469 -32.55064
v 2.03115 49.14075 -32.49054
v 1.92395 38.91728 -33.03807
v 4.09162 41.68777 -31.70945
v 3.04935 40.17793 -35.55801
v 4.01142 42.94354 -28.73113
v 2.05339 48.55308 -29.55943
v 2.27261 46.06224 -27.67657
v 2.73048 43.90254 -26.74962
v 1.01245 43.62014 -41.04512
v 1.70705 49.86491 -27.98008
v 1.62212 51.12431 -28.49582
v 1.23110 50.45040 -21.57471
v 1.27545 50.84004 -24.96582
v 1.38638 52.04740 -24.96503
v 1.32414 51.86435 -21.28642
v 1.08496 50.52671 -18.14820
v 1.03627 49.44173 -18.54099
v 0.78231 50.00907 -17.30488
v 1.99705 40.86332 -41.49490
v 2.67261 41.43323 -38.73324
v 1.60596 40.51320 -41.41235
v 7.01664 2.70394 3.14092
v 3.08263 45.66788 -32.75005
v 5.27140 22.15771 9.61338
v 3.18098 45.30257 -33.23420
v 3.33384 45.96711 -32.66628
v 2.83643 45.72034 -33.82043
v 2.85599 46.63675 -32.75477
v 2.97252 46.12878 -31.52673
v 3.36216 45.34192 -32.24627
v 4.68295 -0.00560 -1.48299
v 5.38566 2.11344 2.34260
v 8.27181 2.11659 2.33081
v 9.98476 -0.00006 -1.13825
v 8.27181 2.11659 2.33081
v 5.38566 2.11344 2.34260
v 7.01664 2.70394 3.14092
vt 0.889336 0.469804
vt 0.793095 0.469677
vt 0.827717 0.682214
vt 0.901111 0.681816
vt 0.133494 0.069004
vt 0.184625 0.011514
vt 0.166072 0.133869
vt 0.235249 0.122769
vt 0.260943 0.062481
vt 0.212309 0.224523
vt 0.144605 0.243569
vt 0.115027 0.156145
vt 0.321226 0.132625
vt 0.348761 0.200833
vt 0.292523 0.206016
vt 0.280046 0.128888
vt 0.050744 0.137806
vt 0.057435 0.055604
vt 0.324140 0.031143
vt 0.351336 0.085616
vt 0.082186 0.185149
vt 0.083379 0.271530
vt 0.060002 0.196183
vt 0.904270 0.746790
vt 0.190058 0.366519
vt 0.272061 0.354048
vt 0.285364 0.452083
vt 0.184370 0.479780
vt 0.655679 0.705327
vt 0.711361 0.687271
vt 0.716651 0.724291
vt 0.661054 0.735862
vt 0.505353 0.487275
vt 0.395737 0.605944
vt 0.401123 0.479846
vt 0.665125 0.477813
vt 0.688504 0.580880
vt 0.607506 0.546238
vt 0.617697 0.629052
vt 0.706071 0.650251
vt 0.650304 0.674793
vt 0.558120 0.603572
vt 0.489073 0.595340
vt 0.152693 0.611827
vt 0.113409 0.707597
vt 0.014448 0.682896
vt 0.014450 0.569836
vt 0.601718 0.710552
vt 0.575409 0.686155
vt 0.605338 0.725479
vt 0.113685 0.400554
vt 0.102284 0.354244
vt 0.128048 0.371180
vt 0.242815 0.279946
vt 0.177436 0.303141
vt 0.305454 0.264111
vt 0.358144 0.259093
vt 0.014417 0.499970
vt 0.263970 0.610532
vt 0.297706 0.522341
vt 0.353744 0.148065
vt 0.391356 0.190237
vt 0.398146 0.252898
vt 0.347793 0.326920
vt 0.418207 0.332897
vt 0.424375 0.341922
vt 0.406589 0.400758
vt 0.535956 0.428666
vt 0.594019 0.424802
vt 0.591699 0.500248
vt 0.659875 0.421602
vt 0.488706 0.423951
vt 0.481156 0.331991
vt 0.524339 0.336147
vt 0.568165 0.338257
vt 0.616302 0.339023
vt 0.666859 0.380762
vt 0.741993 0.342543
vt 0.729800 0.405834
vt 0.451177 0.327519
vt 0.467889 0.365440
vt 0.475203 0.254437
vt 0.528288 0.259344
vt 0.567088 0.260808
vt 0.617575 0.263484
vt 0.671483 0.264014
vt 0.673842 0.339921
vt 0.735091 0.268240
vt 0.444931 0.252083
vt 0.115883 0.320310
vt 0.323643 0.454590
vt 0.732851 0.244129
vt 0.670718 0.239382
vt 0.719959 0.135952
vt 0.749609 0.153306
vt 0.689538 0.122552
vt 0.723917 0.025458
vt 0.471543 0.133754
vt 0.432940 0.125884
vt 0.439948 0.050084
vt 0.442905 0.227603
vt 0.617989 0.238972
vt 0.559576 0.132996
vt 0.590096 0.128819
vt 0.620290 0.125093
vt 0.551133 0.027228
vt 0.526046 0.135697
vt 0.648902 0.019061
vt 0.657303 0.117045
vt 0.486596 0.027985
vt 0.741216 0.500121
vt 0.754343 0.569276
vt 0.768370 0.641015
vt 0.380651 0.303776
vt 0.408957 0.299206
vt 0.543502 0.678237
vt 0.482072 0.698662
vt 0.390895 0.727117
vt 0.207797 0.722326
vt 0.417881 0.280639
vt 0.772695 0.244876
vt 0.879986 0.244960
vt 0.876263 0.016616
vt 0.746069 0.016714
vt 0.983122 0.682477
vt 0.884661 0.357382
vt 0.782895 0.357277
vt 0.778897 0.688859
vt 0.773634 0.664937
vt 0.948240 0.872278
vt 0.932501 0.895764
vt 0.886219 0.848761
vt 0.941748 0.826120
vt 0.948838 0.856039
vt 0.903157 0.810252
vt 0.986985 0.849291
vt 0.963092 0.805498
vt 0.666110 0.826516
vt 0.731561 0.827942
vt 0.686869 0.843241
vt 0.922174 0.778197
vt 0.857800 0.925740
vt 0.770567 0.925942
vt 0.777703 0.891890
vt 0.846528 0.875962
vt 0.768822 0.854407
vt 0.808898 0.820976
vt 0.690971 0.926897
vt 0.711065 0.895326
vt 0.793414 0.741764
vt 0.863016 0.746191
vt 0.836373 0.793746
vt 0.750870 0.789058
vt 0.682757 0.787359
vt 0.634421 0.884136
vt 0.631049 0.828096
vt 0.579862 0.814213
vt 0.554385 0.844771
vt 0.639254 0.787110
vt 0.592204 0.781839
vt 0.680796 0.980023
vt 0.772611 0.973950
vt 0.913956 0.923893
vt 0.608958 0.740407
vt 0.818216 0.714990
vt 0.919664 0.950261
vt 0.863977 0.958332
vt 0.961933 0.926485
vt 0.989068 0.898501
vt 0.570655 0.897319
vt 0.521942 0.866257
vt 0.602504 0.982783
vt 0.598903 0.939166
vt 0.491131 0.871365
vt 0.499771 0.905950
vt 0.425628 0.902646
vt 0.416410 0.875345
vt 0.501709 0.945974
vt 0.520975 0.982846
vt 0.422998 0.975791
vt 0.424929 0.945554
vt 0.355364 0.960479
vt 0.361112 0.937917
vt 0.361932 0.907699
vt 0.345412 0.924733
vt 0.322988 0.924397
vt 0.290254 0.836394
vt 0.174678 0.847985
vt 0.215592 0.741163
vt 0.302163 0.755207
vt 0.345306 0.763228
vt 0.165047 0.737039
vt 0.061130 0.797509
vt 0.125937 0.731898
vt 0.027443 0.733145
vt 0.382762 0.140982
vt 0.771625 0.419412
vt 0.738301 0.860583
vt 0.983149 0.469740
vt 0.983777 0.245029
vt 0.983463 0.357385
vt 0.934076 0.016280
vt 0.983520 0.016497
vt 0.014450 0.444088
vt 0.059728 0.330629
vt 0.494733 0.741194
vt 0.538307 0.780961
vt 0.456562 0.788955
vt 0.466634 0.849758
vt 0.382925 0.809320
vt 0.428355 0.740084
vt 0.451882 0.337095
vt 0.360412 0.882430
vt 0.074960 0.879229
vt 0.077734 0.968512
vt 0.177655 0.987778
vt 0.173980 0.859998
vt 0.177655 0.987778
vt 0.274305 0.915642
vt 0.173980 0.859998
vt 0.889336 0.469804
vt 0.901111 0.681816
vt 0.133494 0.069004
vt 0.166072 0.133869
vt 0.184625 0.011514
vt 0.235249 0.122769
vt 0.260943 0.062481
vt 0.212309 0.224523
vt 0.115027 0.156145
vt 0.144605 0.243569
vt 0.321226 0.132625
vt 0.280046 0.128888
vt 0.292523 0.206016
vt 0.348761 0.200833
vt 0.050744 0.137806
vt 0.057435 0.055604
vt 0.324140 0.031143
vt 0.351336 0.085616
vt 0.082186 0.185149
vt 0.060002 0.196183
vt 0.083379 0.271530
vt 0.190058 0.366519
vt 0.184370 0.479780
vt 0.285364 0.452083
vt 0.272061 0.354048
vt 0.716651 0.724291
vt 0.711361 0.687271
vt 0.655679 0.705327
vt 0.661054 0.735862
vt 0.505353 0.487275
vt 0.401123 0.479846
vt 0.395737 0.605944
vt 0.665125 0.477813
vt 0.607506 0.546238
vt 0.688504 0.580880
vt 0.617697 0.629052
vt 0.650304 0.674793
vt 0.706071 0.650251
vt 0.489073 0.595340
vt 0.558120 0.603572
vt 0.152693 0.611827
vt 0.014450 0.569836
vt 0.113685 0.400554
vt 0.128048 0.371180
vt 0.102284 0.354244
vt 0.177436 0.303141
vt 0.242815 0.279946
vt 0.305454 0.264111
vt 0.358144 0.259093
vt 0.014417 0.499970
vt 0.263970 0.610532
vt 0.297706 0.522341
vt 0.353744 0.148065
vt 0.391356 0.190237
vt 0.398146 0.252898
vt 0.347793 0.326920
vt 0.406589 0.400758
vt 0.591699 0.500248
vt 0.594019 0.424802
vt 0.535956 0.428666
vt 0.659875 0.421602
vt 0.488706 0.423951
vt 0.524339 0.336147
vt 0.481156 0.331991
vt 0.616302 0.339023
vt 0.568165 0.338257
vt 0.666859 0.380762
vt 0.741993 0.342543
vt 0.729800 0.405834
vt 0.451177 0.327519
vt 0.467889 0.365440
vt 0.528288 0.259344
vt 0.475203 0.254437
vt 0.567088 0.260808
vt 0.617575 0.263484
vt 0.673842 0.339921
vt 0.671483 0.264014
vt 0.735091 0.268240
vt 0.444931 0.252083
vt 0.115883 0.320310
vt 0.323643 0.454590
vt 0.732851 0.244129
vt 0.749609 0.153306
vt 0.719959 0.135952
vt 0.670718 0.239382
vt 0.689538 0.122552
vt 0.723917 0.025458
vt 0.471543 0.133754
vt 0.439948 0.050084
vt 0.432940 0.125884
vt 0.442905 0.227603
vt 0.617989 0.238972
vt 0.590096 0.128819
vt 0.559576 0.132996
vt 0.620290 0.125093
vt 0.551133 0.027228
vt 0.526046 0.135697
vt 0.657303 0.117045
vt 0.648902 0.019061
vt 0.486596 0.027985
vt 0.380651 0.303776
vt 0.417881 0.280639
vt 0.876263 0.016616
vt 0.879986 0.244960
vt 0.884661 0.357382
vt 0.948240 0.872278
vt 0.886219 0.848761
vt 0.932501 0.895764
vt 0.941748 0.826120
vt 0.903157 0.810252
vt 0.948838 0.856039
vt 0.666110 0.826516
vt 0.686869 0.843241
vt 0.731561 0.827942
vt 0.857800 0.925740
vt 0.846528 0.875962
vt 0.777703 0.891890
vt 0.770567 0.925942
vt 0.808898 0.820976
vt 0.768822 0.854407
vt 0.711065 0.895326
vt 0.690971 0.926897
vt 0.793414 0.741764
vt 0.750870 0.789058
vt 0.836373 0.793746
vt 0.682757 0.787359
vt 0.634421 0.884136
vt 0.631049 0.828096
vt 0.639254 0.787110
vt 0.913956 0.923893
vt 0.570655 0.897319
vt 0.598903 0.939166
vt 0.425628 0.902646
vt 0.499771 0.905950
vt 0.501709 0.945974
vt 0.424929 0.945554
vt 0.361112 0.937917
vt 0.361932 0.907699
vt 0.345412 0.924733
vt 0.290254 0.836394
vt 0.174678 0.847985
vt 0.061130 0.797509
vt 0.382762 0.140982
vt 0.738301 0.860583
vt 0.934076 0.016280
vt 0.494733 0.741194
vt 0.456562 0.788955
vt 0.538307 0.780961
vt 0.466634 0.849758
vt 0.382925 0.809320
vt 0.428355 0.740084
vt 0.074960 0.879229
vt 0.173980 0.859998
vt 0.177655 0.987778
vt 0.077734 0.968512
vt 0.177655 0.987778
vt 0.173980 0.859998
vt 0.274305 0.915642
vn -0.98816 -0.07718 0.13262
vn -0.00000 0.96168 0.27419
vn -0.00000 0.88618 0.46334
vn -0.85359 -0.25378 0.45495
vn -0.23972 0.00284 -0.97084
vn -0.07354 0.62950 -0.77351
vn -0.33806 0.56839 -0.75010
vn 0.21097 0.50980 -0.83403
vn 0.06903 -0.09847 -0.99274
vn -0.41967 0.07554 -0.90453
vn -0.97134 -0.02739 0.23610
vn -0.90799 0.40221 -0.11740
vn 0.99662 0.07861 -0.02365
vn 0.94061 0.02976 0.33819
vn 0.71916 -0.07415 -0.69088
vn 0.85930 0.33967 -0.38241
vn -0.93415 0.16632 0.31576
vn -0.44979 0.75937 -0.47015
vn 0.43249 0.70192 -0.56593
vn 0.99887 0.04756 -0.00172
vn -0.84765 0.08875 0.52307
vn 0.22139 0.10261 0.96977
vn -0.04648 0.03653 0.99825
vn 0.00000 -0.02171 0.99976
vn -0.95486 -0.22573 0.19308
vn -0.27451 -0.38666 -0.88042
vn -0.31801 0.23425 -0.91869
vn -0.97168 0.22032 0.08540
vn -0.82601 0.14801 0.54388
vn -0.92649 -0.14814 -0.34593
vn -0.88920 -0.45104 -0.07676
vn -0.71185 -0.09931 0.69528
vn -0.93234 0.36044 -0.02866
vn -0.85309 0.49020 -0.17871
vn -0.98604 -0.13264 -0.10065
vn -0.44680 -0.27976 -0.84976
vn -0.86935 0.04749 -0.49190
vn -0.78121 0.51394 -0.35438
vn -0.85739 0.46384 0.22301
vn -0.92254 -0.14418 -0.35795
vn -0.88852 0.26790 0.37252
vn -0.77113 0.61325 -0.17114
vn -0.72675 0.58950 -0.35259
vn -0.73131 0.62586 0.27107
vn -0.00002 0.95065 0.31025
vn 0.00005 0.87065 0.49190
vn -0.87678 0.35605 0.32325
vn -0.00000 0.59539 0.80344
vn -0.00000 0.96781 0.25169
vn -0.00000 0.19479 0.98085
vn -0.06290 -0.85647 0.51235
vn 0.43772 -0.78949 0.43024
vn -0.11496 -0.21994 0.96872
vn -0.31553 -0.64088 -0.69980
vn -0.97498 -0.12007 0.18707
vn 0.87420 -0.36275 -0.32279
vn 0.89903 -0.00893 0.43779
vn -0.65750 -0.65976 0.36389
vn -0.77907 0.62636 0.02672
vn -0.87288 0.38618 -0.29826
vn 0.83767 -0.01796 0.54588
vn 0.22139 0.10261 0.96977
vn -0.23373 0.35618 0.90471
vn 0.22896 -0.72616 -0.64828
vn 0.00010 -0.99348 -0.11403
vn 0.00001 -0.98300 -0.18359
vn -0.74152 -0.65997 -0.12077
vn -0.87451 0.10003 0.47458
vn -0.88408 -0.03902 -0.46570
vn -0.83803 0.34590 -0.42198
vn 0.09657 -0.29977 -0.94911
vn -0.24047 -0.26481 0.93384
vn 0.86809 -0.11907 0.48192
vn 0.25794 -0.21954 0.94089
vn -0.63608 -0.20057 0.74510
vn -0.95858 -0.09015 -0.27020
vn -0.28175 -0.19205 -0.94007
vn 0.89260 -0.04564 -0.44853
vn 0.08423 -0.91194 -0.40159
vn 0.89260 -0.04564 -0.44853
vn 0.08423 -0.91194 -0.40159
vn 0.89683 0.00314 0.44236
vn 0.06495 -0.28752 0.95557
vn -0.83601 -0.11653 0.53620
vn -0.92076 0.03477 -0.38858
vn -0.02617 0.24020 -0.97037
vn -0.13903 0.09166 -0.98604
vn 0.79789 0.12255 -0.59021
vn 0.79789 0.12255 -0.59021
vn -0.23373 0.35618 0.90471
vn -0.66681 -0.23264 -0.70799
vn 0.80486 0.11181 -0.58284
vn 0.05580 -0.09334 -0.99407
vn 0.00293 -0.44633 -0.89486
vn 0.99189 0.03046 0.12337
vn 0.16000 -0.20475 0.96565
vn 0.23758 -0.87164 0.42872
vn 0.16000 -0.20475 0.96565
vn 0.99189 0.03046 0.12337
vn 0.23758 -0.87164 0.42872
vn 0.80486 0.11181 -0.58284
vn -0.87560 0.11935 -0.46807
vn -0.81821 -0.05411 0.57236
vn -0.10332 -0.36959 -0.92343
vn -0.12409 -0.45418 0.88223
vn 0.19549 -0.56647 0.80056
vn -0.12409 -0.45418 0.88223
vn -0.31617 -0.79099 0.52381
vn 0.15234 -0.38783 -0.90905
vn -0.31617 -0.79099 0.52381
vn 0.00000 -0.57316 -0.81945
vn 0.00000 -0.35730 -0.93399
vn 0.00000 -0.48469 -0.87469
vn 0.43772 -0.78949 0.43024
vn 0.00018 -0.98577 0.16811
vn -0.00000 0.92640 -0.37654
vn -0.00000 0.85526 -0.51820
vn -0.00002 0.99016 -0.13997
vn -0.00004 0.97877 0.20497
vn -0.11496 -0.21994 0.96872
vn 0.00004 0.94327 0.33202
vn -0.97607 0.08545 0.19999
vn -0.87678 0.35605 0.32325
vn 0.00005 0.87065 0.49190
vn 0.00000 -0.90027 0.43534
vn -0.98921 -0.05714 0.13488
vn -0.00000 0.95440 0.29854
vn 0.00000 -0.50893 -0.86081
vn 0.00000 -0.43513 -0.90037
vn -0.46104 -0.79539 -0.39345
vn -0.77777 0.33672 -0.53075
vn -0.91348 -0.16915 -0.37006
vn -0.60337 -0.76949 -0.20935
vn -0.47619 0.70158 -0.53012
vn -0.53668 -0.83852 -0.09409
vn -0.00000 -0.32928 -0.94423
vn -0.00000 -0.96234 -0.27185
vn -0.89880 0.37071 0.23395
vn -0.94471 0.30894 -0.10994
vn -0.91845 0.39351 -0.04014
vn -0.00000 -0.99757 0.06964
vn -0.71278 0.55086 -0.43416
vn -0.69476 0.56514 -0.44488
vn -0.91406 0.30683 -0.26524
vn -0.91948 0.27882 -0.27714
vn -0.94326 0.25234 -0.21582
vn -0.97920 0.02039 -0.20185
vn -0.78525 0.57137 -0.23858
vn -0.94806 0.30377 -0.09438
vn -0.52195 -0.83197 -0.18812
vn 0.00000 -0.98241 -0.18675
vn -0.75348 -0.62912 -0.19099
vn -0.97330 -0.20506 -0.10318
vn -0.96271 -0.05607 0.26465
vn -0.88538 0.28713 0.36559
vn -0.57222 0.45299 0.68364
vn -0.00000 0.53645 0.84393
vn 0.00000 -0.46343 0.88614
vn -0.63530 0.12785 0.76160
vn -0.00000 0.27412 0.96170
vn -0.00000 0.85543 -0.51791
vn -0.00000 0.81123 -0.58473
vn -0.55890 0.55166 -0.61912
vn 0.00000 -0.05420 0.99853
vn 0.00000 -0.96461 -0.26366
vn -0.00000 0.73295 -0.68028
vn -0.00000 0.79580 -0.60555
vn 0.00000 0.29422 -0.95574
vn -0.00000 -0.87514 -0.48387
vn -0.62831 -0.63748 0.44592
vn 0.00000 -0.87321 0.48735
vn -0.00000 0.94232 -0.33471
vn -0.94703 0.32056 -0.01948
vn 0.00000 -0.99207 0.12572
vn -0.91424 -0.39549 0.08808
vn -0.72724 -0.67441 -0.12763
vn -0.00000 -0.97060 -0.24072
vn -0.85996 0.50989 -0.02175
vn -0.00000 0.99691 -0.07857
vn -0.00000 0.98210 0.18834
vn -0.92951 0.34306 0.13535
vn -0.00000 0.72376 0.69006
vn -0.94637 0.18502 0.26485
vn -0.67548 -0.71610 0.17585
vn -0.70234 -0.03103 0.71117
vn 0.00000 -0.67283 0.73980
vn -0.46104 -0.79539 -0.39345
vn -0.91348 -0.16915 -0.37006
vn 0.00000 -0.93094 -0.36518
vn 0.00000 -0.96051 0.27824
vn -0.00000 -0.87514 -0.48387
vn 0.00000 0.86829 -0.49606
vn -0.47619 0.70158 -0.53012
vn 0.00000 0.98977 -0.14267
vn -0.00000 -0.32928 -0.94423
vn -0.04648 0.03653 0.99825
vn 0.00000 -0.86283 -0.50550
vn -0.92627 0.35164 -0.13552
vn 0.00000 -1.00000 -0.00014
vn 0.00001 -0.99760 0.06928
vn 0.00000 -0.99997 -0.00835
vn -0.65750 -0.65976 0.36389
vn 0.00011 -0.97612 0.21723
vn 0.00011 -0.97612 0.21723
vn 0.00018 -0.98577 0.16811
vn -0.95246 0.03911 -0.30213
vn -0.84172 0.32384 -0.43201
vn -0.94618 0.29705 -0.12848
vn -0.81472 0.56309 -0.13843
vn -0.88344 0.41285 0.22155
vn -0.99602 0.07617 0.04622
vn 0.00000 -0.86283 -0.50550
vn 0.00000 -0.98733 -0.15870
vn 0.01546 -0.86812 0.49612
vn 0.03304 -0.86047 0.50843
vn 0.01546 -0.86812 0.49612
vn -0.00212 -0.87532 0.48354
vn -0.00263 -0.80763 0.58968
vn -0.00263 -0.80763 0.58968
vn -0.00263 -0.80763 0.58968
vn 0.98816 -0.07718 0.13262
vn 0.85359 -0.25378 0.45495
vn 0.23907 0.00291 -0.97100
vn 0.33742 0.56855 -0.75027
vn 0.07265 0.62979 -0.77336
vn -0.21136 0.50918 -0.83431
vn -0.06948 -0.09879 -0.99268
vn 0.41988 0.07538 -0.90445
vn 0.90760 0.40312 -0.11729
vn 0.97120 -0.02677 0.23678
vn -0.99670 0.07740 -0.02438
vn -0.85960 0.33854 -0.38272
vn -0.71864 -0.07494 -0.69133
vn -0.94087 0.02945 0.33749
vn 0.93400 0.16739 0.31563
vn 0.44878 0.75994 -0.47019
vn -0.43325 0.70170 -0.56561
vn -0.99891 0.04655 -0.00189
vn 0.84726 0.09008 0.52349
vn 0.04579 0.03734 0.99825
vn -0.22197 0.10283 0.96962
vn 0.95467 -0.22611 0.19361
vn 0.97168 0.22019 0.08574
vn 0.31861 0.23429 -0.91848
vn 0.27493 -0.38653 -0.88034
vn 0.88920 -0.45103 -0.07676
vn 0.92649 -0.14814 -0.34593
vn 0.82601 0.14801 0.54388
vn 0.71185 -0.09931 0.69528
vn 0.93234 0.36044 -0.02866
vn 0.98603 -0.13263 -0.10079
vn 0.85306 0.49023 -0.17879
vn 0.44680 -0.27976 -0.84976
vn 0.78121 0.51394 -0.35438
vn 0.86935 0.04749 -0.49190
vn 0.85739 0.46384 0.22301
vn 0.88852 0.26790 0.37252
vn 0.92254 -0.14418 -0.35795
vn 0.72675 0.58950 -0.35259
vn 0.77113 0.61325 -0.17114
vn 0.73133 0.62578 0.27121
vn 0.87681 0.35594 0.32329
vn 0.06222 -0.85665 0.51213
vn 0.11446 -0.22023 0.96871
vn -0.43786 -0.78956 0.42998
vn 0.97480 -0.12043 0.18776
vn 0.31597 -0.64073 -0.69974
vn -0.87414 -0.36229 -0.32347
vn -0.89935 -0.00880 0.43713
vn 0.65728 -0.65998 0.36389
vn 0.77906 0.62638 0.02681
vn 0.87287 0.38620 -0.29824
vn -0.83799 -0.01855 0.54537
vn -0.22197 0.10283 0.96962
vn 0.23325 0.35586 0.90496
vn -0.22866 -0.72596 -0.64861
vn 0.74151 -0.65997 -0.12083
vn 0.83803 0.34590 -0.42198
vn 0.88408 -0.03902 -0.46570
vn 0.87451 0.10003 0.47458
vn -0.09657 -0.29977 -0.94911
vn 0.24047 -0.26481 0.93384
vn -0.25794 -0.21954 0.94089
vn -0.86809 -0.11907 0.48192
vn 0.95858 -0.09015 -0.27020
vn 0.63608 -0.20057 0.74510
vn 0.28175 -0.19205 -0.94007
vn -0.89260 -0.04564 -0.44853
vn -0.08423 -0.91194 -0.40159
vn -0.89260 -0.04564 -0.44853
vn -0.08423 -0.91194 -0.40159
vn -0.06495 -0.28752 0.95557
vn -0.89683 0.00314 0.44236
vn 0.83601 -0.11653 0.53620
vn 0.92076 0.03477 -0.38858
vn 0.13903 0.09166 -0.98604
vn 0.02617 0.24020 -0.97037
vn -0.79789 0.12255 -0.59021
vn -0.79789 0.12255 -0.59021
vn 0.23325 0.35586 0.90496
vn 0.66683 -0.23245 -0.70803
vn -0.80486 0.11181 -0.58284
vn -0.99189 0.03046 0.12337
vn -0.00293 -0.44633 -0.89486
vn -0.05580 -0.09334 -0.99407
vn -0.16000 -0.20475 0.96565
vn -0.23758 -0.87164 0.42872
vn -0.16000 -0.20475 0.96565
vn -0.23758 -0.87164 0.42872
vn -0.99189 0.03046 0.12337
vn -0.80486 0.11181 -0.58284
vn 0.87560 0.11935 -0.46807
vn 0.10332 -0.36959 -0.92343
vn 0.81821 -0.05411 0.57236
vn 0.12409 -0.45418 0.88223
vn -0.19549 -0.56647 0.80056
vn 0.12409 -0.45418 0.88223
vn -0.15234 -0.38783 -0.90905
vn 0.31617 -0.79099 0.52381
vn 0.31617 -0.79099 0.52381
vn -0.43786 -0.78956 0.42998
vn 0.11446 -0.22023 0.96871
vn 0.87681 0.35594 0.32329
vn 0.97609 0.08544 0.19989
vn 0.98921 -0.05714 0.13488
vn 0.46104 -0.79539 -0.39345
vn 0.91348 -0.16915 -0.37006
vn 0.77777 0.33672 -0.53075
vn 0.60337 -0.76949 -0.20935
vn 0.53668 -0.83852 -0.09409
vn 0.47619 0.70158 -0.53012
vn 0.89880 0.37071 0.23395
vn 0.91845 0.39351 -0.04014
vn 0.94471 0.30894 -0.10994
vn 0.71278 0.55086 -0.43416
vn 0.91948 0.27882 -0.27714
vn 0.91406 0.30683 -0.26524
vn 0.69476 0.56514 -0.44488
vn 0.97920 0.02039 -0.20185
vn 0.94326 0.25234 -0.21583
vn 0.94806 0.30377 -0.09438
vn 0.78525 0.57137 -0.23858
vn 0.52196 -0.83197 -0.18812
vn 0.97330 -0.20506 -0.10318
vn 0.75348 -0.62912 -0.19099
vn 0.96271 -0.05607 0.26465
vn 0.88538 0.28714 0.36559
vn 0.57222 0.45299 0.68364
vn 0.63530 0.12785 0.76160
vn 0.55890 0.55166 -0.61912
vn 0.62831 -0.63748 0.44592
vn 0.94703 0.32056 -0.01948
vn 0.72724 -0.67441 -0.12763
vn 0.91424 -0.39549 0.08808
vn 0.85996 0.50989 -0.02175
vn 0.92951 0.34306 0.13535
vn 0.94637 0.18502 0.26485
vn 0.67548 -0.71610 0.17585
vn 0.70234 -0.03103 0.71117
vn 0.46104 -0.79539 -0.39345
vn 0.91348 -0.16915 -0.37006
vn 0.47619 0.70158 -0.53012
vn 0.04579 0.03734 0.99825
vn 0.92627 0.35164 -0.13552
vn 0.65728 -0.65998 0.36389
vn 0.95246 0.03911 -0.30213
vn 0.94618 0.29705 -0.12848
vn 0.84172 0.32384 -0.43201
vn 0.81472 0.56309 -0.13843
vn 0.88344 0.41285 0.22155
vn 0.99602 0.07617 0.04622
vn -0.01464 -0.86782 0.49667
vn 0.00293 -0.87499 0.48413
vn -0.01464 -0.86782 0.49667
vn -0.03219 -0.86019 0.50895
vn 0.00329 -0.80717 0.59031
vn 0.00329 -0.80717 0.59031
vn 0.00329 -0.80717 0.59031
f 170/170/170 171/171/171 158/158/158
f 181/181/181 176/176/176 175/175/175
f 175/175/175 178/178/178 181/181/181
f 174/174/174 175/175/175 176/176/176
f 172/172/172 179/179/179 178/178/178
f 180/180/180 181/181/181 178/178/178
f 178/178/178 179/179/179 180/180/180
f 176/176/176 181/181/181 183/183/183
f 182/182/182 183/183/183 181/181/181
f 181/181/181 180/180/180 182/182/182
f 213/213/213 177/177/177 176/176/176
f 176/176/176 184/184/184 213/213/213
f 183/183/183 184/184/184 176/176/176
f 176/176/176 177/177/177 174/174/174
f 184/184/184 183/183/183 185/185/185
f 185/185/185 183/183/183 182/182/182
f 186/186/186 213/213/213 184/184/184
f 184/184/184 185/185/185 186/186/186
f 358/358/358 213/213/213 186/186/186
f 213/213/213 358/358/358 353/353/353
f 353/353/353 177/177/177 213/213/213
f 174/174/174 177/177/177 353/353/353
f 174/174/174 354/354/354 351/351/351
f 351/351/351 171/171/171 174/174/174
f 353/353/353 354/354/354 174/174/174
f 357/357/357 356/356/356 353/353/353
f 353/353/353 358/358/358 357/357/357
f 354/354/354 353/353/353 356/356/356
f 186/186/186 359/359/359 358/358/358
f 358/358/358 359/359/359 357/357/357
f 359/359/359 186/186/186 182/182/182
f 182/182/182 186/186/186 185/185/185
f 182/182/182 357/357/357 359/359/359
f 356/356/356 357/357/357 182/182/182
f 182/182/182 180/180/180 356/356/356
f 356/356/356 355/355/355 354/354/354
f 355/355/355 356/356/356 180/180/180
f 354/354/354 355/355/355 352/352/352
f 352/352/352 351/351/351 354/354/354
f 158/158/158 171/171/171 351/351/351
f 172/172/172 352/352/352 355/355/355
f 355/355/355 179/179/179 172/172/172
f 180/180/180 179/179/179 355/355/355
f 246/246/246 343/343/343 165/165/165
f 346/346/346 246/246/246 249/249/249
f 246/246/246 346/346/346 344/344/344
f 344/344/344 343/343/343 246/246/246
f 248/248/248 249/249/249 246/246/246
f 249/249/249 248/248/248 50/50/50
f 248/248/248 257/257/257 48/48/48
f 48/48/48 50/50/50 248/248/248
f 50/50/50 164/164/164 249/249/249
f 249/249/249 349/349/349 346/346/346
f 349/349/349 249/249/249 164/164/164
f 334/334/334 344/344/344 346/346/346
f 346/346/346 332/332/332 334/334/334
f 332/332/332 346/346/346 349/349/349
f 164/164/164 160/160/160 349/349/349
f 348/348/348 349/349/349 160/160/160
f 349/349/349 348/348/348 332/332/332
f 32/32/32 164/164/164 50/50/50
f 159/159/159 160/160/160 164/164/164
f 164/164/164 32/32/32 159/159/159
f 50/50/50 29/29/29 32/32/32
f 29/29/29 50/50/50 48/48/48
f 154/154/154 159/159/159 32/32/32
f 32/32/32 31/31/31 154/154/154
f 31/31/31 32/32/32 29/29/29
f 160/160/160 159/159/159 156/156/156
f 138/138/138 156/156/156 159/159/159
f 159/159/159 154/154/154 138/138/138
f 160/160/160 157/157/157 348/348/348
f 329/329/329 137/137/137 141/141/141
f 133/133/133 135/135/135 141/141/141
f 141/141/141 137/137/137 133/133/133
f 152/152/152 135/135/135 132/132/132
f 132/132/132 135/135/135 133/133/133
f 133/133/133 137/137/137 136/136/136
f 136/136/136 134/134/134 133/133/133
f 133/133/133 134/134/134 132/132/132
f 136/136/136 137/137/137 329/329/329
f 329/329/329 331/331/331 136/136/136
f 327/327/327 331/331/331 329/329/329
f 165/165/165 150/150/150 31/31/31
f 333/333/333 364/364/364 334/334/334
f 332/332/332 333/333/333 334/334/334
f 341/341/341 364/364/364 333/333/333
f 332/332/332 347/347/347 333/333/333
f 341/341/341 333/333/333 347/347/347
f 33/33/33 72/72/72 68/68/68
f 33/33/33 70/70/70 38/38/38
f 72/72/72 33/33/33 35/35/35
f 67/67/67 81/81/81 72/72/72
f 35/35/35 67/67/67 72/72/72
f 72/72/72 81/81/81 80/80/80
f 80/80/80 73/73/73 72/72/72
f 72/72/72 73/73/73 74/74/74
f 83/83/83 74/74/74 73/73/73
f 82/82/82 73/73/73 80/80/80
f 73/73/73 82/82/82 83/83/83
f 80/80/80 89/89/89 82/82/82
f 89/89/89 101/101/101 82/82/82
f 82/82/82 101/101/101 99/99/99
f 82/82/82 99/99/99 98/98/98
f 98/98/98 83/83/83 82/82/82
f 83/83/83 107/107/107 103/103/103
f 83/83/83 98/98/98 107/107/107
f 98/98/98 110/110/110 107/107/107
f 98/98/98 99/99/99 100/100/100
f 107/107/107 106/106/106 103/103/103
f 103/103/103 106/106/106 104/104/104
f 104/104/104 106/106/106 105/105/105
f 93/93/93 104/104/104 105/105/105
f 93/93/93 105/105/105 109/109/109
f 105/105/105 108/108/108 109/109/109
f 93/93/93 109/109/109 96/96/96
f 93/93/93 96/96/96 94/94/94
f 92/92/92 93/93/93 94/94/94
f 109/109/109 108/108/108 96/96/96
f 94/94/94 96/96/96 97/97/97
f 95/95/95 94/94/94 97/97/97
f 94/94/94 95/95/95 92/92/92
f 66/66/66 212/212/212 81/81/81
f 81/81/81 67/67/67 66/66/66
f 291/291/291 212/212/212 66/66/66
f 66/66/66 67/67/67 64/64/64
f 91/91/91 64/64/64 67/67/67
f 35/35/35 91/91/91 67/67/67
f 114/114/114 64/64/64 56/56/56
f 56/56/56 57/57/57 114/114/114
f 63/63/63 120/120/120 114/114/114
f 114/114/114 57/57/57 63/63/63
f 56/56/56 15/15/15 14/14/14
f 14/14/14 57/57/57 56/56/56
f 57/57/57 14/14/14 62/62/62
f 62/62/62 63/63/63 57/57/57
f 196/196/196 62/62/62 14/14/14
f 14/14/14 61/61/61 196/196/196
f 13/13/13 61/61/61 14/14/14
f 13/13/13 14/14/14 15/15/15
f 8/8/8 16/16/16 15/15/15
f 15/15/15 16/16/16 13/13/13
f 20/20/20 61/61/61 13/13/13
f 13/13/13 16/16/16 20/20/20
f 19/19/19 16/16/16 8/8/8
f 19/19/19 20/20/20 16/16/16
f 9/9/9 19/19/19 8/8/8
f 8/8/8 6/6/6 9/9/9
f 60/60/60 91/91/91 35/35/35
f 290/290/290 291/291/291 282/282/282
f 293/293/293 299/299/299 290/290/290
f 290/290/290 284/284/284 293/293/293
f 282/282/282 284/284/284 290/290/290
f 286/286/286 283/283/283 282/282/282
f 282/282/282 280/280/280 286/286/286
f 282/282/282 283/283/283 284/284/284
f 250/250/250 280/280/280 282/282/282
f 292/292/292 293/293/293 284/284/284
f 284/284/284 283/283/283 292/292/292
f 292/292/292 283/283/283 286/286/286
f 286/286/286 294/294/294 292/292/292
f 294/294/294 286/286/286 285/285/285
f 285/285/285 286/286/286 280/280/280
f 280/280/280 279/279/279 285/285/285
f 279/279/279 280/280/280 250/250/250
f 250/250/250 278/278/278 279/279/279
f 287/287/287 285/285/285 279/279/279
f 279/279/279 281/281/281 287/287/287
f 287/287/287 296/296/296 285/285/285
f 295/295/295 285/285/285 296/296/296
f 285/285/285 295/295/295 294/294/294
f 294/294/294 295/295/295 312/312/312
f 294/294/294 312/312/312 314/314/314
f 7/7/7 18/18/18 5/5/5
f 5/5/5 6/6/6 7/7/7
f 10/10/10 7/7/7 8/8/8
f 12/12/12 18/18/18 7/7/7
f 12/12/12 7/7/7 10/10/10
f 7/7/7 6/6/6 8/8/8
f 17/17/17 18/18/18 12/12/12
f 11/11/11 21/21/21 12/12/12
f 12/12/12 21/21/21 17/17/17
f 10/10/10 11/11/11 12/12/12
f 54/54/54 10/10/10 15/15/15
f 11/11/11 10/10/10 54/54/54
f 336/336/336 339/339/339 340/340/340
f 337/337/337 364/364/364 341/341/341
f 340/340/340 364/364/364 337/337/337
f 338/338/338 337/337/337 341/341/341
f 334/334/334 364/364/364 340/340/340
f 340/340/340 339/339/339 344/344/344
f 344/344/344 334/334/334 340/340/340
f 344/344/344 339/339/339 345/345/345
f 345/345/345 339/339/339 327/327/327
f 343/343/343 344/344/344 345/345/345
f 151/151/151 345/345/345 330/330/330
f 327/327/327 330/330/330 345/345/345
f 345/345/345 151/151/151 343/343/343
f 165/165/165 343/343/343 151/151/151
f 330/330/330 141/141/141 151/151/151
f 151/151/151 141/141/141 135/135/135
f 135/135/135 152/152/152 151/151/151
f 165/165/165 151/151/151 150/150/150
f 150/150/150 151/151/151 152/152/152
f 141/141/141 330/330/330 329/329/329
f 329/329/329 330/330/330 327/327/327
f 228/228/228 224/224/224 229/229/229
f 234/234/234 233/233/233 268/268/268
f 233/233/233 232/232/232 226/226/226
f 233/233/233 234/234/234 231/231/231
f 231/231/231 232/232/232 233/233/233
f 321/321/321 269/269/269 268/268/268
f 268/268/268 276/276/276 321/321/321
f 268/268/268 269/269/269 234/234/234
f 363/363/363 273/273/273 234/234/234
f 234/234/234 274/274/274 363/363/363
f 274/274/274 234/234/234 269/269/269
f 231/231/231 234/234/234 273/273/273
f 238/238/238 231/231/231 273/273/273
f 231/231/231 238/238/238 232/232/232
f 237/237/237 226/226/226 232/232/232
f 237/237/237 232/232/232 238/238/238
f 227/227/227 226/226/226 237/237/237
f 226/226/226 227/227/227 225/225/225
f 224/224/224 226/226/226 225/225/225
f 223/223/223 224/224/224 225/225/225
f 224/224/224 223/223/223 236/236/236
f 229/229/229 224/224/224 236/236/236
f 235/235/235 229/229/229 236/236/236
f 229/229/229 235/235/235 239/239/239
f 269/269/269 275/275/275 274/274/274
f 275/275/275 269/269/269 321/321/321
f 321/321/321 322/322/322 275/275/275
f 65/65/65 115/115/115 321/321/321
f 321/321/321 276/276/276 65/65/65
f 66/66/66 65/65/65 276/276/276
f 65/65/65 64/64/64 114/114/114
f 114/114/114 115/115/115 65/65/65
f 64/64/64 65/65/65 66/66/66
f 301/301/301 277/277/277 276/276/276
f 276/276/276 245/245/245 244/244/244
f 244/244/244 301/301/301 276/276/276
f 276/276/276 277/277/277 66/66/66
f 251/251/251 301/301/301 272/272/272
f 272/272/272 301/301/301 244/244/244
f 251/251/251 277/277/277 301/301/301
f 66/66/66 277/277/277 291/291/291
f 277/277/277 282/282/282 291/291/291
f 282/282/282 277/277/277 251/251/251
f 272/272/272 252/252/252 251/251/251
f 251/251/251 250/250/250 282/282/282
f 156/156/156 157/157/157 160/160/160
f 347/347/347 348/348/348 157/157/157
f 348/348/348 347/347/347 332/332/332
f 157/157/157 158/158/158 347/347/347
f 155/155/155 158/158/158 157/157/157
f 157/157/157 156/156/156 155/155/155
f 156/156/156 138/138/138 155/155/155
f 138/138/138 140/140/140 155/155/155
f 139/139/139 138/138/138 154/154/154
f 138/138/138 139/139/139 140/140/140
f 154/154/154 153/153/153 139/139/139
f 153/153/153 154/154/154 31/31/31
f 139/139/139 146/146/146 198/198/198
f 140/140/140 139/139/139 198/198/198
f 146/146/146 139/139/139 153/153/153
f 149/149/149 140/140/140 198/198/198
f 155/155/155 140/140/140 149/149/149
f 144/144/144 149/149/149 198/198/198
f 146/146/146 144/144/144 198/198/198
f 25/25/25 26/26/26 27/27/27
f 27/27/27 26/26/26 64/64/64
f 60/60/60 27/27/27 91/91/91
f 28/28/28 27/27/27 60/60/60
f 64/64/64 91/91/91 27/27/27
f 28/28/28 60/60/60 59/59/59
f 59/59/59 44/44/44 28/28/28
f 44/44/44 47/47/47 28/28/28
f 58/58/58 28/28/28 47/47/47
f 52/52/52 58/58/58 204/204/204
f 52/52/52 51/51/51 58/58/58
f 51/51/51 52/52/52 53/53/53
f 204/204/204 205/205/205 52/52/52
f 204/204/204 270/270/270 265/265/265
f 265/265/265 205/205/205 204/204/204
f 242/242/242 263/263/263 270/270/270
f 270/270/270 243/243/243 242/242/242
f 265/265/265 270/270/270 263/263/263
f 270/270/270 262/262/262 243/243/243
f 263/263/263 264/264/264 265/265/265
f 242/242/242 264/264/264 263/263/263
f 300/300/300 264/264/264 242/242/242
f 300/300/300 266/266/266 230/230/230
f 230/230/230 241/241/241 300/300/300
f 242/242/242 266/266/266 300/300/300
f 267/267/267 266/266/266 242/242/242
f 230/230/230 266/266/266 267/267/267
f 267/267/267 228/228/228 230/230/230
f 230/230/230 229/229/229 239/239/239
f 240/240/240 241/241/241 230/230/230
f 230/230/230 239/239/239 240/240/240
f 229/229/229 230/230/230 228/228/228
f 276/276/276 268/268/268 267/267/267
f 267/267/267 245/245/245 276/276/276
f 242/242/242 245/245/245 267/267/267
f 267/267/267 268/268/268 233/233/233
f 233/233/233 228/228/228 267/267/267
f 226/226/226 228/228/228 233/233/233
f 228/228/228 226/226/226 224/224/224
f 85/85/85 86/86/86 87/87/87
f 92/92/92 88/88/88 86/86/86
f 86/86/86 93/93/93 92/92/92
f 86/86/86 85/85/85 102/102/102
f 102/102/102 93/93/93 86/86/86
f 84/84/84 102/102/102 85/85/85
f 84/84/84 85/85/85 76/76/76
f 84/84/84 103/103/103 102/102/102
f 104/104/104 93/93/93 102/102/102
f 102/102/102 103/103/103 104/104/104
f 103/103/103 84/84/84 83/83/83
f 83/83/83 84/84/84 75/75/75
f 76/76/76 75/75/75 84/84/84
f 68/68/68 75/75/75 76/76/76
f 75/75/75 74/74/74 83/83/83
f 75/75/75 68/68/68 72/72/72
f 72/72/72 74/74/74 75/75/75
f 250/250/250 251/251/251 252/252/252
f 243/243/243 272/272/272 244/244/244
f 252/252/252 272/272/272 271/271/271
f 271/271/271 272/272/272 243/243/243
f 244/244/244 245/245/245 242/242/242
f 242/242/242 243/243/243 244/244/244
f 243/243/243 261/261/261 271/271/271
f 261/261/261 243/243/243 262/262/262
f 45/45/45 119/119/119 271/271/271
f 271/271/271 261/261/261 45/45/45
f 271/271/271 119/119/119 118/118/118
f 118/118/118 252/252/252 271/271/271
f 46/46/46 45/45/45 261/261/261
f 261/261/261 262/262/262 46/46/46
f 45/45/45 44/44/44 59/59/59
f 59/59/59 119/119/119 45/45/45
f 44/44/44 45/45/45 46/46/46
f 118/118/118 119/119/119 59/59/59
f 252/252/252 118/118/118 117/117/117
f 59/59/59 34/34/34 118/118/118
f 117/117/117 118/118/118 34/34/34
f 34/34/34 59/59/59 60/60/60
f 35/35/35 34/34/34 60/60/60
f 34/34/34 43/43/43 117/117/117
f 34/34/34 33/33/33 43/43/43
f 33/33/33 34/34/34 35/35/35
f 117/117/117 259/259/259 252/252/252
f 259/259/259 117/117/117 116/116/116
f 116/116/116 117/117/117 43/43/43
f 252/252/252 259/259/259 250/250/250
f 116/116/116 260/260/260 259/259/259
f 250/250/250 259/259/259 260/260/260
f 260/260/260 116/116/116 49/49/49
f 43/43/43 42/42/42 116/116/116
f 49/49/49 116/116/116 42/42/42
f 42/42/42 43/43/43 33/33/33
f 42/42/42 39/39/39 49/49/49
f 37/37/37 39/39/39 42/42/42
f 42/42/42 38/38/38 37/37/37
f 33/33/33 38/38/38 42/42/42
f 49/49/49 256/256/256 260/260/260
f 256/256/256 49/49/49 48/48/48
f 48/48/48 49/49/49 39/39/39
f 255/255/255 254/254/254 260/260/260
f 260/260/260 256/256/256 255/255/255
f 260/260/260 254/254/254 250/250/250
f 48/48/48 257/257/257 256/256/256
f 258/258/258 255/255/255 256/256/256
f 256/256/256 257/257/257 258/258/258
f 113/113/113 112/112/112 255/255/255
f 255/255/255 258/258/258 113/113/113
f 1/1/1 199/199/199 201/201/201
f 201/201/201 126/126/126 1/1/1
f 199/199/199 1/1/1 4/4/4
f 2/2/2 1/1/1 126/126/126
f 3/3/3 4/4/4 1/1/1
f 1/1/1 2/2/2 3/3/3
f 201/201/201 199/199/199 221/221/221
f 222/222/222 221/221/221 199/199/199
f 199/199/199 125/125/125 222/222/222
f 4/4/4 125/125/125 199/199/199
f 221/221/221 325/325/325 201/201/201
f 200/200/200 201/201/201 325/325/325
f 15/15/15 10/10/10 8/8/8
f 90/90/90 22/22/22 11/11/11
f 11/11/11 55/55/55 90/90/90
f 54/54/54 55/55/55 11/11/11
f 23/23/23 21/21/21 11/11/11
f 11/11/11 22/22/22 23/23/23
f 64/64/64 26/26/26 54/54/54
f 54/54/54 56/56/56 64/64/64
f 54/54/54 26/26/26 25/25/25
f 25/25/25 55/55/55 54/54/54
f 15/15/15 56/56/56 54/54/54
f 90/90/90 55/55/55 25/25/25
f 25/25/25 53/53/53 90/90/90
f 25/25/25 51/51/51 53/53/53
f 25/25/25 28/28/28 58/58/58
f 58/58/58 51/51/51 25/25/25
f 27/27/27 28/28/28 25/25/25
f 208/208/208 211/211/211 206/206/206
f 206/206/206 207/207/207 208/208/208
f 208/208/208 210/210/210 211/211/211
f 209/209/209 210/210/210 208/208/208
f 207/207/207 209/209/209 208/208/208
f 367/367/367 366/366/366 371/371/371
f 366/366/366 367/367/367 368/368/368
f 367/367/367 371/371/371 370/370/370
f 369/369/369 367/367/367 370/370/370
f 368/368/368 367/367/367 369/369/369
f 46/46/46 47/47/47 44/44/44
f 292/292/292 294/294/294 314/314/314
f 312/312/312 295/295/295 297/297/297
f 296/296/296 297/297/297 295/295/295
f 288/288/288 296/296/296 287/287/287
f 298/298/298 297/297/297 296/296/296
f 296/296/296 288/288/288 298/298/298
f 288/288/288 287/287/287 281/281/281
f 281/281/281 289/289/289 288/288/288
f 297/297/297 298/298/298 302/302/302
f 302/302/302 305/305/305 297/297/297
f 297/297/297 305/305/305 312/312/312
f 313/313/313 314/314/314 312/312/312
f 312/312/312 305/305/305 313/313/313
f 305/305/305 306/306/306 318/318/318
f 305/305/305 318/318/318 315/315/315
f 305/305/305 315/315/315 313/313/313
f 305/305/305 304/304/304 306/306/306
f 304/304/304 305/305/305 302/302/302
f 302/302/302 303/303/303 304/304/304
f 304/304/304 307/307/307 306/306/306
f 303/303/303 307/307/307 304/304/304
f 318/318/318 306/306/306 319/319/319
f 315/315/315 318/318/318 319/319/319
f 313/313/313 315/315/315 316/316/316
f 314/314/314 313/313/313 316/316/316
f 317/317/317 314/314/314 316/316/316
f 314/314/314 317/317/317 292/292/292
f 292/292/292 317/317/317 308/308/308
f 308/308/308 317/317/317 320/320/320
f 293/293/293 292/292/292 308/308/308
f 308/308/308 310/310/310 293/293/293
f 308/308/308 309/309/309 310/310/310
f 299/299/299 293/293/293 311/311/311
f 293/293/293 310/310/310 311/311/311
f 129/129/129 113/113/113 258/258/258
f 40/40/40 113/113/113 129/129/129
f 129/129/129 30/30/30 40/40/40
f 41/41/41 40/40/40 30/30/30
f 40/40/40 41/41/41 39/39/39
f 39/39/39 41/41/41 48/48/48
f 30/30/30 29/29/29 41/41/41
f 48/48/48 41/41/41 29/29/29
f 30/30/30 129/129/129 128/128/128
f 128/128/128 31/31/31 30/30/30
f 29/29/29 30/30/30 31/31/31
f 258/258/258 247/247/247 129/129/129
f 128/128/128 129/129/129 247/247/247
f 247/247/247 258/258/258 257/257/257
f 257/257/257 248/248/248 247/247/247
f 247/247/247 246/246/246 128/128/128
f 246/246/246 247/247/247 248/248/248
f 165/165/165 128/128/128 246/246/246
f 31/31/31 128/128/128 165/165/165
f 190/190/190 191/191/191 187/187/187
f 189/189/189 190/190/190 187/187/187
f 187/187/187 188/188/188 189/189/189
f 190/190/190 360/360/360 191/191/191
f 360/360/360 190/190/190 189/189/189
f 361/361/361 189/189/189 192/192/192
f 189/189/189 361/361/361 360/360/360
f 188/188/188 192/192/192 189/189/189
f 192/192/192 188/188/188 193/193/193
f 362/362/362 361/361/361 192/192/192
f 192/192/192 194/194/194 362/362/362
f 193/193/193 194/194/194 192/192/192
f 126/126/126 201/201/201 200/200/200
f 325/325/325 221/221/221 2/2/2
f 3/3/3 2/2/2 221/221/221
f 221/221/221 222/222/222 3/3/3
f 2/2/2 127/127/127 325/325/325
f 126/126/126 127/127/127 2/2/2
f 324/324/324 325/325/325 127/127/127
f 325/325/325 324/324/324 200/200/200
f 203/203/203 200/200/200 365/365/365
f 365/365/365 200/200/200 324/324/324
f 203/203/203 202/202/202 200/200/200
f 122/122/122 200/200/200 202/202/202
f 200/200/200 122/122/122 126/126/126
f 127/127/127 121/121/121 324/324/324
f 324/324/324 323/323/323 365/365/365
f 323/323/323 324/324/324 121/121/121
f 122/122/122 121/121/121 127/127/127
f 77/77/77 71/71/71 69/69/69
f 69/69/69 76/76/76 77/77/77
f 76/76/76 69/69/69 68/68/68
f 69/69/69 70/70/70 33/33/33
f 33/33/33 68/68/68 69/69/69
f 77/77/77 87/87/87 78/78/78
f 76/76/76 87/87/87 77/77/77
f 71/71/71 77/77/77 78/78/78
f 78/78/78 79/79/79 71/71/71
f 88/88/88 78/78/78 87/87/87
f 87/87/87 86/86/86 88/88/88
f 87/87/87 76/76/76 85/85/85
f 253/253/253 255/255/255 112/112/112
f 253/253/253 254/254/254 255/255/255
f 254/254/254 253/253/253 278/278/278
f 250/250/250 254/254/254 278/278/278
f 111/111/111 197/197/197 253/253/253
f 253/253/253 197/197/197 289/289/289
f 112/112/112 111/111/111 253/253/253
f 253/253/253 289/289/289 281/281/281
f 279/279/279 278/278/278 253/253/253
f 253/253/253 281/281/281 279/279/279
f 37/37/37 112/112/112 113/113/113
f 112/112/112 37/37/37 36/36/36
f 36/36/36 111/111/111 112/112/112
f 111/111/111 36/36/36 197/197/197
f 36/36/36 79/79/79 197/197/197
f 38/38/38 70/70/70 36/36/36
f 36/36/36 71/71/71 79/79/79
f 69/69/69 71/71/71 36/36/36
f 36/36/36 70/70/70 69/69/69
f 36/36/36 37/37/37 38/38/38
f 113/113/113 40/40/40 37/37/37
f 39/39/39 37/37/37 40/40/40
f 153/153/153 147/147/147 146/146/146
f 146/146/146 147/147/147 145/145/145
f 145/145/145 144/144/144 146/146/146
f 153/153/153 152/152/152 147/147/147
f 31/31/31 150/150/150 153/153/153
f 152/152/152 153/153/153 150/150/150
f 132/132/132 147/147/147 152/152/152
f 132/132/132 145/145/145 147/147/147
f 132/132/132 131/131/131 145/145/145
f 131/131/131 142/142/142 145/145/145
f 144/144/144 145/145/145 142/142/142
f 149/149/149 144/144/144 143/143/143
f 142/142/142 143/143/143 144/144/144
f 143/143/143 142/142/142 167/167/167
f 142/142/142 163/163/163 166/166/166
f 166/166/166 167/167/167 142/142/142
f 131/131/131 163/163/163 142/142/142
f 168/168/168 131/131/131 130/130/130
f 163/163/163 131/131/131 168/168/168
f 127/127/127 126/126/126 122/122/122
f 202/202/202 123/123/123 122/122/122
f 121/121/121 122/122/122 123/123/123
f 121/121/121 124/124/124 323/323/323
f 123/123/123 124/124/124 121/121/121
f 125/125/125 24/24/24 222/222/222
f 125/125/125 4/4/4 24/24/24
f 222/222/222 24/24/24 3/3/3
f 4/4/4 3/3/3 24/24/24
f 193/193/193 195/195/195 194/194/194
f 362/362/362 194/194/194 195/195/195
f 376/376/376 377/377/377 378/378/378
f 218/218/218 219/219/219 220/220/220
f 216/216/216 217/217/217 214/214/214
f 214/214/214 215/215/215 216/216/216
f 374/374/374 375/375/375 372/372/372
f 372/372/372 373/373/373 374/374/374
f 347/347/347 342/342/342 341/341/341
f 341/341/341 342/342/342 338/338/338
f 352/352/352 342/342/342 347/347/347
f 347/347/347 351/351/351 352/352/352
f 351/351/351 347/347/347 158/158/158
f 172/172/172 161/161/161 342/342/342
f 342/342/342 352/352/352 172/172/172
f 338/338/338 342/342/342 161/161/161
f 161/161/161 162/162/162 338/338/338
f 148/148/148 161/161/161 172/172/172
f 143/143/143 162/162/162 161/161/161
f 161/161/161 148/148/148 143/143/143
f 155/155/155 148/148/148 173/173/173
f 172/172/172 173/173/173 148/148/148
f 149/149/149 148/148/148 155/155/155
f 143/143/143 148/148/148 149/149/149
f 173/173/173 170/170/170 155/155/155
f 158/158/158 155/155/155 170/170/170
f 175/175/175 170/170/170 173/173/173
f 173/173/173 178/178/178 175/175/175
f 178/178/178 173/173/173 172/172/172
f 174/174/174 171/171/171 170/170/170
f 170/170/170 175/175/175 174/174/174
f 130/130/130 131/131/131 132/132/132
f 168/168/168 166/166/166 163/163/163
f 350/350/350 166/166/166 168/168/168
f 335/335/335 167/167/167 166/166/166
f 166/166/166 350/350/350 335/335/335
f 338/338/338 162/162/162 167/167/167
f 167/167/167 335/335/335 338/338/338
f 167/167/167 162/162/162 143/143/143
f 328/328/328 335/335/335 350/350/350
f 328/328/328 336/336/336 335/335/335
f 337/337/337 338/338/338 335/335/335
f 335/335/335 336/336/336 337/337/337
f 168/168/168 328/328/328 350/350/350
f 327/327/327 336/336/336 328/328/328
f 326/326/326 328/328/328 168/168/168
f 326/326/326 327/327/327 328/328/328
f 327/327/327 339/339/339 336/336/336
f 340/340/340 337/337/337 336/336/336
f 168/168/168 169/169/169 326/326/326
f 130/130/130 169/169/169 168/168/168
