# trinacr reconstructed from live game memory
v -5.03823 29.74471 -41.79028
v -5.23104 27.77326 -41.90284
v -5.50171 28.27709 -44.22093
v -7.82709 25.64603 -39.67749
v -6.53576 25.67971 -44.07569
v -5.95835 28.44406 -39.63467
v -3.13716 17.88103 -53.12539
v -1.95168 18.60630 -59.18357
v -1.97558 20.09437 -59.41838
v -4.16681 20.39763 -53.20338
v -5.51109 20.68130 -47.39400
v -4.25792 17.55631 -47.36306
v 0.00000 16.34258 -41.05058
v 0.00000 16.82369 -47.28342
v -5.21127 17.09858 -41.06420
v -2.03632 24.36147 -60.13122
v 0.00000 24.39984 -61.26891
v 0.00000 26.89037 -60.01628
v -1.67195 26.51185 -59.13829
v -8.15394 25.42442 -29.01153
v -8.81148 25.76412 -35.51093
v -6.32361 32.10786 -35.28781
v -5.87862 32.35275 -32.14158
v -5.43363 32.00782 -28.99535
v -2.47256 27.58317 -53.65401
v -3.29733 28.87255 -48.62719
v -5.60461 24.04887 -48.49177
v -4.12958 24.21035 -53.67110
v -5.67473 31.92827 -11.54059
v -5.34776 31.66416 -15.55892
v 0.00000 34.17912 -15.55721
v 0.00000 35.15090 -11.53254
v 0.00000 34.58697 29.58757
v 0.00000 32.79443 37.49899
v -5.75510 30.94442 37.50016
v -7.31440 31.72343 29.58247
v -13.01834 22.77891 14.52323
v -12.55802 13.77279 14.52322
v -12.93233 18.70837 -0.77423
v -11.94929 22.80837 -0.05206
v -10.89885 23.21900 -11.58533
v -5.67473 31.92827 -11.54059
v -4.85471 29.27662 -41.81578
v -6.44134 27.74611 -41.87526
v -5.13643 28.30034 -44.11175
v -6.12209 26.08625 -43.70269
v -6.91085 26.10876 -40.06769
v -5.73670 28.30424 -39.96825
v -11.64880 19.99009 -11.60202
v -12.47514 21.20766 -5.52072
v -17.81594 20.68792 -5.41780
v -17.81620 19.49357 -9.03171
v -13.16159 19.67111 -1.60569
v -17.80789 19.29706 -1.50248
v -26.21583 20.32561 -4.51293
v -26.53503 19.36298 -7.62589
v -31.75458 19.29179 -5.46895
v -31.53666 19.97829 -3.18994
v -35.00029 19.30819 -2.38566
v -31.30505 19.30420 -0.79720
v -17.68275 18.03729 -4.88856
v -17.79428 18.72223 -0.48210
v -12.93233 18.70837 -0.77423
v -10.88043 15.10655 -6.26511
v -31.25391 18.72230 0.09854
v -31.56894 18.32010 -3.33927
v -36.14059 18.72270 -2.12029
v -12.93233 18.70837 -0.77423
v -17.79428 18.72223 -0.48210
v -17.82731 18.72274 -9.97713
v -10.52689 18.69367 -11.60511
v -26.64740 18.72259 -8.85313
v -25.84426 19.30096 -1.14615
v -25.78489 18.72228 -0.22749
v -31.25391 18.72230 0.09854
v -36.14059 18.72270 -2.12029
v -9.63810 23.41677 -15.55664
v -11.64880 19.99009 -11.60202
v -10.52689 18.69367 -11.60511
v -31.84962 18.72263 -6.52929
v -26.20006 18.11550 -4.08348
v -25.78489 18.72228 -0.22749
v -12.47514 21.20766 -5.52072
v -13.16159 19.67111 -1.60569
v -10.89885 23.21900 -11.58533
v -8.02072 22.30471 41.61793
v -9.77893 19.97028 39.61289
v -9.08564 23.13439 37.46375
v -7.03715 14.75255 41.62154
v -8.92618 17.55811 39.97773
v -12.94568 17.55821 29.58585
v -11.77057 23.06505 29.57325
v -12.69002 19.94522 31.28562
v -7.17951 20.63246 -40.92160
v 0.00000 17.19322 -53.10917
v -5.80710 9.04946 -6.28375
v 0.00000 7.36362 -6.26306
v 0.00000 9.81559 -11.60724
v -5.38974 11.43944 -11.55983
v -6.03157 7.53049 0.11190
v 0.00000 5.71612 0.04157
v -6.87767 6.49706 14.51595
v 0.00000 5.00365 14.51596
v -5.72260 8.26526 29.56532
v 0.00000 6.75211 29.56509
v 0.00000 32.79443 37.49899
v 0.00000 31.80308 41.58810
v -4.28682 30.13833 41.59743
v -5.75510 30.94442 37.50016
v -11.90732 13.69601 29.56820
v -9.22402 14.10268 35.72516
v -5.23769 9.56809 35.74413
v -4.86475 16.88488 -29.04899
v -8.16160 23.50722 -29.04966
v -8.50176 23.43776 -20.59694
v -7.43223 23.46810 -41.75443
v -9.08564 23.13439 37.46375
v -11.23748 21.27778 35.09102
v -5.51109 20.68130 -47.39400
v 0.00000 18.52069 -47.87471
v 0.00000 18.83783 -41.40343
v -7.17951 20.63246 -40.92160
v 0.00000 26.52120 -41.63013
v 0.00000 26.59560 -47.25210
v -5.60461 24.04887 -48.49177
v -7.43223 23.46810 -41.75443
v -3.50281 11.58201 41.59371
v -5.23769 9.56809 35.74413
v -9.22402 14.10268 35.72516
v 0.00000 10.76126 41.58408
v 0.00000 8.33737 35.74483
v -6.23310 32.33830 -0.10046
v -7.63586 32.83105 14.51639
v 0.00000 30.06538 -48.62402
v 0.00000 31.43936 -44.38943
v -3.65157 30.23258 -44.30602
v -5.14307 31.39441 -20.59275
v 0.00000 33.22721 -20.57077
v -3.92842 31.01124 -42.00515
v -4.41684 31.09494 -39.71491
v 0.00000 14.67684 -20.62914
v 0.00000 15.65604 -29.05832
v -5.09176 15.98373 -20.60467
v 0.00000 31.80308 41.58810
v 0.00000 29.69199 51.40360
v -3.05010 28.54604 51.40261
v -4.28682 30.13833 41.59743
v -6.42129 22.27439 51.40261
v -8.02072 22.30471 41.61793
v -11.39384 13.52418 0.15017
v -10.88043 15.10655 -6.26511
v -4.12958 24.21035 -53.67110
v 0.00000 26.17920 -53.14575
v 0.00000 25.28507 -59.65557
v -2.03632 24.36147 -60.13122
v -4.16681 20.39763 -53.20338
v 0.00000 18.61493 -53.64952
v -1.97558 20.09437 -59.41838
v 0.00000 18.61553 -53.65521
v -12.69002 19.94522 31.28562
v -11.23748 21.27778 35.09102
v -16.38132 20.02331 36.17342
v -18.12542 18.53785 32.22808
v -9.77893 19.97028 39.61289
v -14.99612 18.50601 40.54395
v -24.43200 19.43800 38.21719
v -26.60017 18.57429 33.89874
v -32.59775 18.55198 36.62320
v -31.33831 19.08551 39.59889
v -36.33035 18.55428 40.75509
v -30.88583 18.55372 42.38575
v -16.62529 16.77867 33.89021
v -14.65057 17.79042 41.54127
v -8.92618 17.55811 39.97773
v -9.85255 16.56076 34.06991
v -30.94665 17.76707 43.26529
v -31.78446 16.97788 39.54092
v -38.48002 17.76766 41.31146
v -8.92618 17.55811 39.97773
v -14.65057 17.79042 41.54127
v -18.38729 17.79112 31.11730
v -12.94568 17.55821 29.58585
v -26.88265 17.76748 33.08250
v -23.23212 18.55326 42.55482
v -23.11063 17.76703 43.37258
v -30.94665 17.76707 43.26529
v -38.48002 17.76766 41.31146
v -33.16705 17.76755 35.80891
v -24.47444 16.79851 38.07767
v -23.11063 17.76703 43.37258
v -9.85255 16.56076 34.06991
v -9.85255 16.56076 34.06991
v 0.00000 28.58455 -53.64717
v 0.00000 34.46804 -32.11969
v 0.00000 34.22614 -29.00293
v 0.00000 26.35533 -37.33539
v -8.93358 23.12323 -35.47411
v 0.00000 26.35538 -37.33387
v -1.76695 17.77715 60.71712
v 0.00000 17.09090 60.71712
v 0.00000 14.59762 51.40300
v -2.75669 15.40669 51.40253
v -8.61369 24.94183 -35.55355
v -7.96863 25.02467 -29.06304
v -4.99449 20.55526 -29.05914
v -6.55694 20.13469 -34.99443
v -3.27955 24.62789 -55.18727
v -2.43421 22.64285 -56.54882
v -2.29768 24.83980 -57.35235
v -2.43264 24.79482 -57.35357
v -1.79519 22.85800 -58.66610
v -1.51850 25.01584 -59.44275
v -1.93263 24.59714 -59.56314
v -0.97854 22.84395 -60.06632
v -0.06742 24.69869 -60.47440
v -3.61970 24.58100 -52.84996
v -2.95210 22.59888 -54.44540
v -3.19314 24.76560 -55.04180
v -4.18092 24.76591 -50.27836
v -3.51837 22.63261 -51.73264
v -3.66689 24.88080 -52.83786
v -4.75833 24.52014 -48.24810
v -4.30050 22.61826 -49.33999
v -4.18093 24.76591 -50.27836
v -5.65981 24.28039 -45.83067
v -4.96640 22.42692 -46.91039
v -5.02138 24.43535 -48.03788
v -6.43840 24.16231 -43.17377
v -5.61264 22.17561 -44.22783
v -5.78288 24.22136 -45.30361
v -7.19182 24.22451 -40.50191
v -6.44954 22.17871 -41.82563
v -6.67966 24.20879 -42.77666
v -5.82956 19.95502 -43.95863
v -6.35214 21.78675 -42.79445
v -6.50296 20.25472 -42.31391
v -6.52859 20.35355 -41.31542
v -6.98046 21.99413 -40.29758
v -6.09259 20.17831 -39.66022
v -5.16148 20.04168 -46.41301
v -5.51654 22.14869 -45.41083
v -5.57931 20.53336 -44.73805
v -4.37726 19.90925 -48.93080
v -4.88691 21.91970 -47.89224
v -4.76015 20.10221 -46.85394
v -3.73324 19.95433 -51.31990
v -4.58394 21.79375 -50.21762
v -4.22298 20.10874 -49.06495
v -3.44331 19.95776 -54.06771
v -3.50199 21.88037 -52.78457
v -3.88019 20.04005 -51.54193
v -2.52918 19.74367 -56.64226
v -2.83813 21.60533 -55.44054
v -3.18058 19.75651 -54.59440
v -1.31423 19.71667 -58.81804
v -1.88073 21.35552 -57.66594
v -2.23358 19.74367 -56.64226
v -1.77701 19.74872 -59.07194
v -0.28868 19.59903 -59.79927
v -1.00441 21.20570 -59.52086
v -7.80158 23.99800 -37.88421
v -6.96186 21.90177 -39.07564
v -7.23898 24.13702 -40.08836
v -6.30733 20.23005 -38.63387
v -7.87689 21.98314 -37.70052
v -6.62694 20.27545 -36.91639
v -8.62474 23.76513 -35.34204
v -7.87938 21.80708 -36.53347
v -8.20465 23.97578 -37.46715
v -0.92405 22.28246 77.96809
v 0.00000 22.28245 80.04971
v 0.00000 19.17435 77.51289
v -0.65673 20.92393 76.48558
v -0.74104 19.52254 69.01093
v 0.00000 17.09455 60.73432
v 0.00000 17.97446 69.01453
v -0.90645 25.31051 69.01115
v 0.00000 27.67520 60.73118
v 0.00000 26.43701 69.00957
v 0.00000 25.49298 77.46812
v -0.72147 23.62198 76.47883
v -2.83431 22.28250 69.01045
v -1.27348 22.28247 76.47940
v -8.70665 17.21757 -15.49281
v -5.39699 16.75050 -35.16176
v -8.21793 21.01757 -35.50510
v -8.21793 21.01757 -35.50510
v 0.00000 19.31567 -34.98740
v 0.00000 20.92588 -28.31260
v -8.16160 23.50722 -29.04966
v -8.93358 23.12323 -35.47411
v 0.00000 15.64233 -35.10018
v -1.82861 26.89113 60.71711
v -4.39174 22.28249 60.71711
v 0.00000 27.67854 60.71711
v 0.00000 10.76126 41.58408
v -3.50281 11.58201 41.59371
v 0.00000 36.17135 14.51059
v 0.00000 36.33247 -0.21434
v 0.00000 18.11651 -59.51139
v 0.00000 20.03673 -60.57758
v 0.00000 20.03673 -60.57758
v 0.00000 35.15090 -11.53254
v 0.00000 8.33737 35.74483
v 0.00000 24.39984 -61.26891
v -5.38974 11.43944 -11.55983
v 0.00000 9.81559 -11.60724
v 0.00000 32.11740 -42.00307
v 0.00000 32.30302 -39.74921
v 0.00000 24.44750 -28.29740
v 0.00000 34.12181 -35.63419
v -8.16160 23.50722 -29.04966
v 0.00000 24.44750 -28.29740
v -11.64880 19.99009 -11.60202
v -7.03715 14.75255 41.62154
v -9.77893 19.97028 39.61289
v -10.52689 18.69367 -11.60511
v 5.03823 29.74471 -41.79028
v 5.50171 28.27709 -44.22093
v 5.23104 27.77326 -41.90284
v 7.82709 25.64603 -39.67749
v 6.53576 25.67971 -44.07569
v 5.95835 28.44406 -39.63467
v 3.13716 17.88103 -53.12539
v 4.16681 20.39763 -53.20338
v 1.97558 20.09437 -59.41838
v 1.95168 18.60630 -59.18357
v 4.25792 17.55631 -47.36306
v 5.51110 20.68130 -47.39400
v 5.21127 17.09858 -41.06420
v 2.03632 24.36147 -60.13122
v 1.67195 26.51185 -59.13829
v 8.15394 25.42442 -29.01153
v 5.43364 32.00782 -28.99535
v 5.87862 32.35275 -32.14158
v 6.32361 32.10786 -35.28781
v 8.81148 25.76412 -35.51093
v 2.47256 27.58317 -53.65401
v 4.12958 24.21035 -53.67110
v 5.60461 24.04887 -48.49177
v 3.29733 28.87255 -48.62719
v 5.67473 31.92827 -11.54059
v 5.34777 31.66416 -15.55892
v 7.31440 31.72343 29.58247
v 5.75510 30.94442 37.50016
v 13.01834 22.77891 14.52323
v 11.94929 22.80837 -0.05206
v 12.93233 18.70837 -0.77423
v 12.55802 13.77279 14.52322
v 5.67473 31.92827 -11.54059
v 10.89886 23.21900 -11.58533
v 4.85471 29.27662 -41.81578
v 5.13643 28.30034 -44.11175
v 6.44134 27.74611 -41.87526
v 6.12209 26.08625 -43.70269
v 6.91085 26.10876 -40.06769
v 5.73670 28.30424 -39.96825
v 11.64880 19.99009 -11.60202
v 17.81620 19.49357 -9.03171
v 17.81594 20.68792 -5.41780
v 12.47514 21.20766 -5.52072
v 13.16159 19.67111 -1.60569
v 17.80789 19.29706 -1.50248
v 26.53503 19.36298 -7.62588
v 26.21583 20.32561 -4.51292
v 31.75457 19.29179 -5.46894
v 35.00029 19.30819 -2.38565
v 31.53665 19.97829 -3.18993
v 31.30504 19.30420 -0.79720
v 17.68275 18.03729 -4.88856
v 10.88044 15.10655 -6.26511
v 12.93233 18.70837 -0.77423
v 17.79428 18.72223 -0.48210
v 31.25391 18.72231 0.09854
v 36.14058 18.72270 -2.12029
v 31.56893 18.32010 -3.33927
v 17.79428 18.72223 -0.48210
v 12.93233 18.70837 -0.77423
v 10.52689 18.69367 -11.60511
v 17.82731 18.72274 -9.97713
v 26.64740 18.72259 -8.85313
v 25.84426 19.30096 -1.14614
v 31.25391 18.72231 0.09854
v 25.78489 18.72228 -0.22748
v 36.14058 18.72270 -2.12029
v 9.63810 23.41677 -15.55664
v 10.52689 18.69367 -11.60511
v 11.64880 19.99009 -11.60202
v 31.84962 18.72263 -6.52929
v 26.20006 18.11550 -4.08347
v 25.78489 18.72228 -0.22748
v 12.47514 21.20766 -5.52072
v 13.16159 19.67111 -1.60569
v 10.89886 23.21900 -11.58533
v 8.02073 22.30471 41.61793
v 9.08564 23.13439 37.46375
v 9.77893 19.97028 39.61290
v 7.03715 14.75255 41.62154
v 8.92618 17.55811 39.97773
v 12.94568 17.55821 29.58586
v 12.69002 19.94522 31.28562
v 11.77057 23.06505 29.57325
v 7.17951 20.63246 -40.92160
v 5.80710 9.04946 -6.28375
v 5.38974 11.43944 -11.55983
v 6.03158 7.53049 0.11190
v 6.87767 6.49706 14.51595
v 5.72260 8.26526 29.56532
v 5.75510 30.94442 37.50016
v 4.28682 30.13833 41.59743
v 11.90732 13.69601 29.56820
v 5.23769 9.56809 35.74413
v 9.22402 14.10268 35.72516
v 4.86475 16.88488 -29.04899
v 8.50177 23.43776 -20.59694
v 8.16160 23.50722 -29.04966
v 7.43223 23.46810 -41.75443
v 11.23748 21.27778 35.09103
v 9.08564 23.13439 37.46375
v 5.51110 20.68130 -47.39400
v 7.17951 20.63246 -40.92160
v 7.43223 23.46810 -41.75443
v 5.60461 24.04887 -48.49177
v 9.22402 14.10268 35.72516
v 5.23769 9.56809 35.74413
v 3.50281 11.58201 41.59371
v 7.63586 32.83105 14.51639
v 6.23311 32.33830 -0.10046
v 3.65157 30.23258 -44.30602
v 5.14307 31.39441 -20.59275
v 4.41684 31.09494 -39.71491
v 3.92842 31.01124 -42.00515
v 5.09176 15.98373 -20.60467
v 4.28682 30.13833 41.59743
v 3.05010 28.54604 51.40261
v 8.02073 22.30471 41.61793
v 6.42130 22.27439 51.40261
v 10.88044 15.10655 -6.26511
v 11.39384 13.52418 0.15017
v 4.12958 24.21035 -53.67110
v 2.03632 24.36147 -60.13122
v 4.16681 20.39763 -53.20338
v 1.97558 20.09437 -59.41838
v 12.69002 19.94522 31.28562
v 18.12541 18.53785 32.22808
v 16.38131 20.02331 36.17343
v 11.23748 21.27778 35.09103
v 9.77893 19.97028 39.61290
v 14.99612 18.50601 40.54396
v 26.60016 18.57428 33.89875
v 24.43200 19.43800 38.21719
v 32.59774 18.55198 36.62321
v 36.33034 18.55428 40.75510
v 31.33830 19.08550 39.59890
v 30.88582 18.55372 42.38576
v 16.62528 16.77867 33.89022
v 9.85255 16.56075 34.06991
v 8.92618 17.55811 39.97773
v 14.65057 17.79042 41.54128
v 30.94664 17.76706 43.26529
v 38.48001 17.76766 41.31147
v 31.78445 16.97787 39.54092
v 14.65057 17.79042 41.54128
v 8.92618 17.55811 39.97773
v 12.94568 17.55821 29.58586
v 18.38729 17.79111 31.11731
v 26.88264 17.76748 33.08250
v 23.23212 18.55326 42.55483
v 30.94664 17.76706 43.26529
v 23.11062 17.76703 43.37259
v 38.48001 17.76766 41.31147
v 33.16704 17.76754 35.80892
v 24.47444 16.79851 38.07768
v 23.11062 17.76703 43.37259
v 9.85255 16.56075 34.06991
v 9.85255 16.56075 34.06991
v 8.93358 23.12323 -35.47411
v 1.76695 17.77715 60.71712
v 2.75670 15.40669 51.40253
v 8.61369 24.94183 -35.55355
v 6.55694 20.13469 -34.99443
v 4.99449 20.55526 -29.05914
v 7.96863 25.02467 -29.06304
v 3.27955 24.62789 -55.18727
v 2.29768 24.83980 -57.35235
v 2.43422 22.64285 -56.54882
v 2.43264 24.79482 -57.35357
v 1.51850 25.01584 -59.44275
v 1.79519 22.85800 -58.66610
v 1.93263 24.59714 -59.56314
v 0.06742 24.69869 -60.47440
v 0.97854 22.84395 -60.06632
v 3.61970 24.58100 -52.84996
v 3.19314 24.76560 -55.04180
v 2.95210 22.59888 -54.44540
v 4.18093 24.76591 -50.27836
v 3.66689 24.88080 -52.83786
v 3.51837 22.63261 -51.73264
v 4.75833 24.52014 -48.24810
v 4.18093 24.76591 -50.27836
v 4.30050 22.61826 -49.33999
v 5.65981 24.28039 -45.83067
v 5.02138 24.43535 -48.03788
v 4.96640 22.42692 -46.91039
v 6.43840 24.16231 -43.17377
v 5.78288 24.22136 -45.30361
v 5.61264 22.17561 -44.22783
v 7.19182 24.22451 -40.50191
v 6.67966 24.20879 -42.77666
v 6.44954 22.17871 -41.82563
v 5.82956 19.95502 -43.95863
v 6.50296 20.25472 -42.31391
v 6.35214 21.78675 -42.79445
v 6.52859 20.35355 -41.31542
v 6.09259 20.17831 -39.66022
v 6.98047 21.99413 -40.29758
v 5.16148 20.04168 -46.41301
v 5.57931 20.53336 -44.73805
v 5.51654 22.14869 -45.41083
v 4.37726 19.90925 -48.93080
v 4.76015 20.10221 -46.85394
v 4.88692 21.91970 -47.89224
v 3.73324 19.95433 -51.31990
v 4.22299 20.10874 -49.06495
v 4.58394 21.79375 -50.21762
v 3.44331 19.95776 -54.06771
v 3.88019 20.04005 -51.54193
v 3.50199 21.88037 -52.78457
v 2.52918 19.74367 -56.64226
v 3.18058 19.75651 -54.59440
v 2.83813 21.60533 -55.44054
v 1.31423 19.71667 -58.81804
v 2.23358 19.74367 -56.64226
v 1.88073 21.35552 -57.66594
v 1.77701 19.74872 -59.07194
v 1.00441 21.20570 -59.52086
v 0.28868 19.59903 -59.79927
v 7.80158 23.99800 -37.88421
v 7.23898 24.13702 -40.08836
v 6.96186 21.90177 -39.07564
v 6.30733 20.23005 -38.63387
v 6.62694 20.27545 -36.91639
v 7.87689 21.98314 -37.70052
v 8.62474 23.76513 -35.34204
v 8.20466 23.97578 -37.46715
v 7.87938 21.80708 -36.53347
v 0.92405 22.28246 77.96809
v 0.65673 20.92393 76.48558
v 0.74104 19.52254 69.01093
v 0.90645 25.31051 69.01115
v 0.72147 23.62198 76.47883
v 2.83431 22.28250 69.01045
v 1.27348 22.28247 76.47940
v 8.70665 17.21757 -15.49281
v 8.21794 21.01757 -35.50510
v 5.39699 16.75050 -35.16176
v 8.21794 21.01757 -35.50510
v 8.16160 23.50722 -29.04966
v 8.93358 23.12323 -35.47411
v 4.39174 22.28249 60.71711
v 1.82861 26.89113 60.71711
v 3.50281 11.58201 41.59371
v 5.38974 11.43944 -11.55983
v 8.16160 23.50722 -29.04966
v 11.64880 19.99009 -11.60202
v 7.03715 14.75255 41.62154
v 9.77893 19.97028 39.61290
v 10.52689 18.69367 -11.60511
vt 0.515404 0.943309
vt 0.513869 0.917789
vt 0.482253 0.924311
vt 0.564659 0.886955
vt 0.484234 0.890688
vt 0.565244 0.923175
vt 0.425758 0.729073
vt 0.331264 0.741099
vt 0.328062 0.760362
vt 0.424694 0.761650
vt 0.503266 0.769278
vt 0.503688 0.728826
vt 0.588464 0.709158
vt 0.504116 0.700220
vt 0.588072 0.744930
vt 0.268689 0.945627
vt 0.245458 0.958125
vt 0.262542 0.990364
vt 0.282231 0.973464
vt 0.751748 0.879840
vt 0.652555 0.885556
vt 0.653481 0.946074
vt 0.706942 0.947925
vt 0.774249 0.929613
vt 0.349314 0.958188
vt 0.417015 0.955163
vt 0.418862 0.892721
vt 0.349080 0.914527
vt 0.992385 0.926012
vt 0.940880 0.927868
vt 0.938135 0.964776
vt 0.992385 0.964431
vt 0.812375 0.473320
vt 0.991496 0.420801
vt 0.991496 0.358521
vt 0.812375 0.394972
vt 0.624561 0.273499
vt 0.625198 0.181193
vt 0.512247 0.209799
vt 0.511866 0.282515
vt 0.357745 0.282640
vt 0.357613 0.372697
vt 0.921755 0.588164
vt 0.916710 0.544255
vt 0.959755 0.553618
vt 0.948174 0.501266
vt 0.885419 0.507810
vt 0.875105 0.558737
vt 0.195201 0.407439
vt 0.260337 0.379528
vt 0.249030 0.279973
vt 0.193128 0.291055
vt 0.323868 0.358008
vt 0.321295 0.256882
vt 0.239314 0.180615
vt 0.193187 0.192709
vt 0.199001 0.104510
vt 0.230914 0.094600
vt 0.221898 0.044475
vt 0.259111 0.083697
vt 0.100931 0.272818
vt 0.019848 0.238404
vt 0.016943 0.343602
vt 0.093084 0.383260
vt 0.104184 0.059216
vt 0.143182 0.082131
vt 0.172780 0.027512
vt 0.346045 0.355564
vt 0.338675 0.251932
vt 0.174450 0.290409
vt 0.169924 0.407557
vt 0.181644 0.194754
vt 0.294399 0.160064
vt 0.310175 0.153775
vt 0.274680 0.075088
vt 0.235505 0.016296
vt 0.937482 0.858823
vt 0.992385 0.803849
vt 0.992385 0.767946
vt 0.186631 0.106998
vt 0.116445 0.166681
vt 0.055384 0.135818
vt 0.437758 0.226647
vt 0.496314 0.217356
vt 0.992385 0.850329
vt 0.080201 0.556851
vt 0.042746 0.528723
vt 0.008522 0.562032
vt 0.080201 0.489317
vt 0.055589 0.496120
vt 0.838451 0.207118
vt 0.813824 0.256874
vt 0.863023 0.230712
vt 0.588902 0.802933
vt 0.424002 0.700388
vt 0.419679 0.100142
vt 0.419679 0.037285
vt 0.357904 0.064639
vt 0.357904 0.124044
vt 0.524635 0.090490
vt 0.524635 0.023508
vt 0.624048 0.084229
vt 0.621262 0.014275
vt 0.812375 0.088498
vt 0.812375 0.025006
vt 0.008522 0.679403
vt 0.078752 0.682914
vt 0.078752 0.642786
vt 0.008522 0.628655
vt 0.796440 0.170226
vt 0.956075 0.152539
vt 0.976357 0.119117
vt 0.752352 0.760382
vt 0.751228 0.855022
vt 0.868739 0.859095
vt 0.515893 0.858630
vt 0.991496 0.274370
vt 0.958907 0.231995
vt 0.761070 0.693534
vt 0.755782 0.648673
vt 0.799631 0.627104
vt 0.799626 0.693379
vt 0.796907 0.692787
vt 0.758793 0.693170
vt 0.754086 0.648655
vt 0.800531 0.626577
vt 0.080201 0.453419
vt 0.037217 0.424822
vt 0.037217 0.454838
vt 0.080201 0.405222
vt 0.037217 0.370384
vt 0.502607 0.403188
vt 0.625924 0.416866
vt 0.415345 0.989462
vt 0.478942 0.990099
vt 0.481093 0.949624
vt 0.867478 0.930245
vt 0.867779 0.961684
vt 0.512474 0.959704
vt 0.564150 0.957491
vt 0.868302 0.713970
vt 0.753340 0.726646
vt 0.868635 0.750946
vt 0.078753 0.682914
vt 0.268531 0.670252
vt 0.268531 0.624741
vt 0.078753 0.642787
vt 0.268531 0.559585
vt 0.080201 0.556851
vt 0.524635 0.171484
vt 0.419679 0.179938
vt 0.705486 0.656190
vt 0.716576 0.698385
vt 0.664528 0.691226
vt 0.662481 0.669989
vt 0.715099 0.697524
vt 0.704359 0.656565
vt 0.664331 0.691697
vt 0.704317 0.656582
vt 0.019405 0.855696
vt 0.023627 0.918629
vt 0.108622 0.909161
vt 0.102371 0.848349
vt 0.021665 0.972554
vt 0.124278 0.968197
vt 0.199210 0.897201
vt 0.185603 0.850028
vt 0.263587 0.857004
vt 0.272230 0.886569
vt 0.326305 0.873393
vt 0.282769 0.911421
vt 0.116533 0.770680
vt 0.134165 0.707968
vt 0.038268 0.711116
vt 0.033729 0.759132
vt 0.283512 0.772027
vt 0.267910 0.808971
vt 0.334959 0.836100
vt 0.025722 0.991098
vt 0.129780 0.982581
vt 0.105358 0.831473
vt 0.029465 0.823435
vt 0.184204 0.836203
vt 0.217783 0.939796
vt 0.223632 0.953484
vt 0.289971 0.924305
vt 0.355063 0.883389
vt 0.255922 0.839371
vt 0.199541 0.786640
vt 0.219444 0.736089
vt 0.018935 0.473310
vt 0.938353 0.187639
vt 0.349408 0.988294
vt 0.711587 0.983022
vt 0.778492 0.962088
vt 0.841242 0.686883
vt 0.830986 0.618414
vt 0.841249 0.686885
vt 0.403639 0.509457
vt 0.403639 0.476259
vt 0.267082 0.446652
vt 0.267082 0.490563
vt 0.391958 0.855879
vt 0.514367 0.840214
vt 0.514488 0.808110
vt 0.391589 0.788708
vt 0.828039 0.602900
vt 0.774273 0.511070
vt 0.761765 0.617967
vt 0.828039 0.602900
vt 0.774273 0.511070
vt 0.761765 0.617967
vt 0.828039 0.602900
vt 0.774273 0.511070
vt 0.761735 0.617970
vt 0.828039 0.602900
vt 0.774273 0.511070
vt 0.761765 0.617967
vt 0.828039 0.602900
vt 0.774273 0.511070
vt 0.761765 0.617967
vt 0.828039 0.602900
vt 0.774273 0.511070
vt 0.761765 0.617967
vt 0.828039 0.602900
vt 0.774273 0.511070
vt 0.761765 0.617967
vt 0.828039 0.602900
vt 0.774273 0.511070
vt 0.761765 0.617967
vt 0.828039 0.602900
vt 0.774273 0.511070
vt 0.761765 0.617967
vt 0.828039 0.602900
vt 0.774273 0.511070
vt 0.761765 0.617967
vt 0.828039 0.602900
vt 0.774273 0.511070
vt 0.761765 0.617967
vt 0.828039 0.602900
vt 0.774273 0.511070
vt 0.761765 0.617967
vt 0.828039 0.602900
vt 0.774273 0.511070
vt 0.761765 0.617967
vt 0.828039 0.602900
vt 0.774273 0.511070
vt 0.761765 0.617967
vt 0.828039 0.602900
vt 0.774273 0.511070
vt 0.761765 0.617967
vt 0.828039 0.602900
vt 0.774273 0.511070
vt 0.761765 0.617967
vt 0.828039 0.602900
vt 0.774273 0.511070
vt 0.761765 0.617967
vt 0.774338 0.511151
vt 0.828049 0.602845
vt 0.761609 0.618024
vt 0.828039 0.602900
vt 0.774273 0.511070
vt 0.761765 0.617967
vt 0.828039 0.602900
vt 0.774273 0.511070
vt 0.761765 0.617967
vt 0.828039 0.602900
vt 0.774273 0.511070
vt 0.761765 0.617967
vt 0.674813 0.589733
vt 0.720449 0.589179
vt 0.659001 0.544881
vt 0.650999 0.570050
vt 0.526106 0.541482
vt 0.403639 0.476344
vt 0.526106 0.511593
vt 0.524992 0.611903
vt 0.401076 0.657652
vt 0.524992 0.651316
vt 0.656284 0.640153
vt 0.648583 0.605646
vt 0.526106 0.577843
vt 0.645925 0.588210
vt 0.938353 0.746859
vt 0.668982 0.758643
vt 0.663185 0.830707
vt 0.841394 0.687567
vt 0.828980 0.619319
vt 0.876732 0.616375
vt 0.900889 0.672037
vt 0.651343 0.841941
vt 0.670937 0.726468
vt 0.401076 0.620238
vt 0.402190 0.572185
vt 0.401076 0.657680
vt 0.080201 0.405222
vt 0.080201 0.453419
vt 0.622753 0.487150
vt 0.497694 0.466437
vt 0.318881 0.720912
vt 0.312252 0.759616
vt 0.646671 0.688050
vt 0.355367 0.431665
vt 0.985048 0.079364
vt 0.648094 0.687836
vt 0.992385 0.672062
vt 0.992385 0.651042
vt 0.511996 0.991775
vt 0.563683 0.987331
vt 0.896167 0.619053
vt 0.653104 0.979859
vt 0.896328 0.618454
vt 0.901464 0.673219
vt 0.357453 0.225527
vt 0.080201 0.489318
vt 0.992947 0.215944
vt 0.357904 0.200435
vt 0.515406 0.943309
vt 0.482256 0.924311
vt 0.513871 0.917789
vt 0.564663 0.886955
vt 0.484237 0.890688
vt 0.565246 0.923175
vt 0.425759 0.729073
vt 0.424696 0.761650
vt 0.328063 0.760362
vt 0.331265 0.741099
vt 0.503690 0.728826
vt 0.503268 0.769278
vt 0.588075 0.744930
vt 0.268690 0.945627
vt 0.282232 0.973464
vt 0.751751 0.879840
vt 0.774251 0.929613
vt 0.706944 0.947925
vt 0.653484 0.946074
vt 0.652559 0.885556
vt 0.349315 0.958188
vt 0.349082 0.914527
vt 0.418864 0.892721
vt 0.417017 0.955163
vt 0.992385 0.926012
vt 0.940883 0.927868
vt 0.812375 0.394972
vt 0.991496 0.358521
vt 0.624561 0.273499
vt 0.511866 0.282515
vt 0.512247 0.209799
vt 0.625198 0.181193
vt 0.357613 0.372697
vt 0.357745 0.282640
vt 0.921755 0.588164
vt 0.959755 0.553618
vt 0.916710 0.544255
vt 0.948174 0.501266
vt 0.885419 0.507810
vt 0.875105 0.558737
vt 0.195201 0.407439
vt 0.193128 0.291055
vt 0.249030 0.279973
vt 0.260337 0.379528
vt 0.323868 0.358008
vt 0.321295 0.256882
vt 0.193187 0.192709
vt 0.239314 0.180615
vt 0.199001 0.104510
vt 0.221898 0.044475
vt 0.230914 0.094600
vt 0.259111 0.083697
vt 0.100931 0.272818
vt 0.093084 0.383260
vt 0.016943 0.343602
vt 0.019848 0.238404
vt 0.104184 0.059216
vt 0.172780 0.027512
vt 0.143182 0.082131
vt 0.338675 0.251932
vt 0.346045 0.355564
vt 0.169924 0.407557
vt 0.174450 0.290409
vt 0.181644 0.194754
vt 0.294399 0.160064
vt 0.274680 0.075088
vt 0.310175 0.153775
vt 0.235505 0.016296
vt 0.937486 0.858823
vt 0.992385 0.767946
vt 0.992385 0.803849
vt 0.186631 0.106998
vt 0.116445 0.166681
vt 0.055384 0.135818
vt 0.437758 0.226647
vt 0.496314 0.217356
vt 0.992385 0.850329
vt 0.080201 0.556851
vt 0.008522 0.562030
vt 0.042746 0.528721
vt 0.080201 0.489317
vt 0.055588 0.496119
vt 0.838451 0.207118
vt 0.863023 0.230712
vt 0.813824 0.256874
vt 0.588906 0.802933
vt 0.419679 0.100142
vt 0.357904 0.124044
vt 0.524635 0.090490
vt 0.624048 0.084229
vt 0.812375 0.088498
vt 0.008522 0.628654
vt 0.078752 0.642786
vt 0.796440 0.170226
vt 0.976357 0.119117
vt 0.956075 0.152539
vt 0.752354 0.760382
vt 0.868743 0.859095
vt 0.751231 0.855022
vt 0.515896 0.858630
vt 0.958907 0.231995
vt 0.991496 0.274370
vt 0.761070 0.693534
vt 0.799626 0.693379
vt 0.800531 0.626577
vt 0.754086 0.648655
vt 0.037217 0.454837
vt 0.037217 0.424821
vt 0.080201 0.453419
vt 0.625924 0.416866
vt 0.502607 0.403188
vt 0.481095 0.949624
vt 0.867481 0.930245
vt 0.564152 0.957491
vt 0.512475 0.959704
vt 0.868637 0.750946
vt 0.078753 0.642787
vt 0.268531 0.624741
vt 0.080201 0.556851
vt 0.268531 0.559585
vt 0.419679 0.179938
vt 0.524635 0.171484
vt 0.705486 0.656190
vt 0.662481 0.669989
vt 0.715099 0.697524
vt 0.664331 0.691697
vt 0.019405 0.855696
vt 0.102371 0.848349
vt 0.108622 0.909161
vt 0.023627 0.918629
vt 0.021665 0.972554
vt 0.124278 0.968197
vt 0.185603 0.850028
vt 0.199210 0.897201
vt 0.263587 0.857004
vt 0.326305 0.873393
vt 0.272230 0.886569
vt 0.282769 0.911421
vt 0.116533 0.770680
vt 0.033729 0.759132
vt 0.038268 0.711116
vt 0.134165 0.707968
vt 0.283512 0.772027
vt 0.334959 0.836100
vt 0.267910 0.808971
vt 0.129780 0.982581
vt 0.025722 0.991098
vt 0.029465 0.823435
vt 0.105358 0.831473
vt 0.184204 0.836203
vt 0.217783 0.939796
vt 0.289971 0.924305
vt 0.223632 0.953484
vt 0.355063 0.883389
vt 0.255922 0.839371
vt 0.199541 0.786640
vt 0.219444 0.736089
vt 0.018935 0.473309
vt 0.938353 0.187639
vt 0.830986 0.618414
vt 0.403639 0.509457
vt 0.267082 0.490563
vt 0.391958 0.855879
vt 0.391589 0.788708
vt 0.514488 0.808110
vt 0.514367 0.840214
vt 0.828039 0.602900
vt 0.761765 0.617967
vt 0.774273 0.511070
vt 0.828039 0.602900
vt 0.761765 0.617967
vt 0.774273 0.511070
vt 0.828039 0.602900
vt 0.761735 0.617970
vt 0.774273 0.511070
vt 0.828039 0.602900
vt 0.761765 0.617967
vt 0.774273 0.511070
vt 0.828039 0.602900
vt 0.761765 0.617967
vt 0.774273 0.511070
vt 0.828039 0.602900
vt 0.761765 0.617967
vt 0.774273 0.511070
vt 0.828039 0.602900
vt 0.761765 0.617967
vt 0.774273 0.511070
vt 0.828039 0.602900
vt 0.761765 0.617967
vt 0.774273 0.511070
vt 0.828039 0.602900
vt 0.761765 0.617967
vt 0.774273 0.511070
vt 0.828039 0.602900
vt 0.761765 0.617967
vt 0.774273 0.511070
vt 0.828039 0.602900
vt 0.761765 0.617967
vt 0.774273 0.511070
vt 0.828039 0.602900
vt 0.761765 0.617967
vt 0.774273 0.511070
vt 0.828039 0.602900
vt 0.761765 0.617967
vt 0.774273 0.511070
vt 0.828039 0.602900
vt 0.761765 0.617967
vt 0.774273 0.511070
vt 0.828039 0.602900
vt 0.761765 0.617967
vt 0.774273 0.511070
vt 0.828039 0.602900
vt 0.761765 0.617967
vt 0.774273 0.511070
vt 0.828039 0.602900
vt 0.761765 0.617967
vt 0.774273 0.511070
vt 0.774338 0.511151
vt 0.761609 0.618024
vt 0.828049 0.602845
vt 0.828039 0.602900
vt 0.761765 0.617967
vt 0.774273 0.511070
vt 0.828039 0.602900
vt 0.761765 0.617967
vt 0.774273 0.511070
vt 0.828039 0.602900
vt 0.761765 0.617967
vt 0.774273 0.511070
vt 0.674813 0.589733
vt 0.650999 0.570050
vt 0.526106 0.541482
vt 0.524992 0.611903
vt 0.648583 0.605646
vt 0.526106 0.577843
vt 0.645925 0.588210
vt 0.938356 0.746859
vt 0.663188 0.830707
vt 0.668984 0.758643
vt 0.841394 0.687567
vt 0.900889 0.672037
vt 0.651347 0.841941
vt 0.402190 0.572185
vt 0.401076 0.620238
vt 0.080201 0.453419
vt 0.992385 0.672062
vt 0.896328 0.618454
vt 0.357453 0.225527
vt 0.080201 0.489318
vt 0.992947 0.215944
vt 0.357904 0.200435
vn -0.87391 0.45317 -0.17584
vn -0.91877 0.37251 -0.13072
vn -0.88468 0.43955 -0.15536
vn -0.90419 0.33101 -0.26996
vn -0.92582 0.33256 -0.17962
vn -0.85401 0.41928 -0.30801
vn -0.65770 -0.72769 -0.19467
vn -0.54044 -0.69342 -0.47655
vn -0.71890 -0.28483 -0.63408
vn -0.90005 -0.37148 -0.22786
vn -0.90593 -0.36541 -0.21393
vn -0.65746 -0.73414 -0.16965
vn 0.00000 -0.99614 -0.08781
vn -0.00000 -0.99707 -0.07651
vn -0.56485 -0.81845 -0.10533
vn -0.73993 0.40358 -0.53817
vn 0.00000 0.44932 -0.89337
vn 0.00000 0.69712 -0.71696
vn -0.59886 0.69666 -0.39499
vn -0.97098 0.22148 0.09026
vn -0.95195 0.28039 -0.12315
vn -0.76279 0.62185 -0.17735
vn -0.62061 0.78132 0.06613
vn -0.64810 0.75394 0.10743
vn -0.76464 0.58966 -0.26004
vn -0.60656 0.73293 -0.30805
vn -0.89524 0.34243 -0.28512
vn -0.86795 0.42769 -0.25246
vn -0.69695 0.70737 -0.11785
vn -0.69026 0.71856 -0.08496
vn 0.00000 0.98879 -0.14930
vn 0.00000 0.98547 -0.16983
vn -0.00000 0.98931 0.14585
vn -0.00000 0.96780 0.25173
vn -0.68225 0.67318 0.28524
vn -0.71634 0.68706 0.12167
vn -0.96416 0.26499 0.01302
vn -0.93981 -0.34163 -0.00679
vn -0.92328 -0.26748 0.27569
vn -0.90900 0.41679 -0.00249
vn -0.90299 0.39602 -0.16665
vn -0.69695 0.70737 -0.11785
vn -0.68999 0.71864 -0.08645
vn -0.86926 0.47631 -0.13234
vn -0.78757 0.51999 -0.33066
vn -0.92980 0.17666 -0.32289
vn -0.96482 0.26258 -0.01275
vn -0.79394 0.59627 0.11885
vn -0.71736 0.36540 -0.59320
vn -0.70040 0.71325 -0.02666
vn -0.08955 0.99588 -0.01451
vn -0.17570 0.76752 -0.61648
vn -0.40131 0.78773 0.46736
vn -0.01325 0.90998 0.41444
vn -0.05473 0.99842 0.01248
vn -0.10975 0.92766 -0.35693
vn -0.26009 0.88763 -0.38009
vn -0.09667 0.99326 0.06393
vn -0.30164 0.94292 0.14111
vn -0.07561 0.90664 0.41507
vn -0.11503 -0.99309 -0.02316
vn 0.00897 -0.24903 0.96845
vn -0.92328 -0.26748 0.27569
vn -0.71274 -0.66923 -0.21007
vn -0.17025 0.46062 0.87111
vn -0.04755 -0.99835 0.03212
vn -0.94494 0.22857 -0.23418
vn -0.92328 -0.26748 0.27569
vn 0.00897 -0.24903 0.96845
vn -0.16637 -0.27421 -0.94717
vn -0.63389 -0.47664 -0.60910
vn -0.26350 0.17461 -0.94873
vn 0.02216 0.91034 0.41326
vn 0.03325 -0.19979 0.97927
vn -0.17025 0.46062 0.87111
vn -0.94494 0.22857 -0.23418
vn -0.93923 0.17201 -0.29709
vn -0.71736 0.36540 -0.59320
vn -0.63389 -0.47664 -0.60910
vn -0.43051 -0.65701 -0.61887
vn -0.02270 -0.99960 0.01685
vn 0.03325 -0.19979 0.97927
vn -0.70040 0.71325 -0.02666
vn -0.40131 0.78773 0.46736
vn -0.90299 0.39602 -0.16665
vn -0.90358 0.27670 0.32708
vn -0.52582 0.53533 0.66101
vn -0.84645 0.43257 0.31048
vn -0.82582 -0.38943 0.40788
vn -0.41468 -0.69295 0.58979
vn -0.69043 -0.15824 -0.70588
vn -0.94989 0.31255 0.00378
vn -0.64081 0.71777 -0.27234
vn -0.86995 -0.47151 -0.14445
vn 0.00000 -0.99251 -0.12216
vn -0.47362 -0.81848 -0.32523
vn 0.00000 -0.95243 -0.30476
vn 0.00000 -0.89759 -0.44082
vn -0.55702 -0.73731 -0.38224
vn -0.57467 -0.80197 -0.16307
vn 0.00000 -0.99146 -0.13041
vn -0.47978 -0.87692 0.02856
vn 0.00000 -0.99945 0.03324
vn -0.46277 -0.86838 0.17820
vn -0.00000 -0.98334 0.18178
vn -0.00000 0.96780 0.25173
vn 0.00000 0.97605 0.21756
vn -0.58513 0.76466 0.27004
vn -0.68225 0.67318 0.28524
vn -0.88171 -0.45917 0.10844
vn -0.86785 -0.32189 0.37845
vn -0.49695 -0.80798 0.31655
vn -0.61456 -0.78886 -0.00371
vn -0.97241 -0.22649 0.05581
vn -0.99151 -0.02950 -0.12663
vn -0.96337 0.08809 -0.25331
vn -0.84645 0.43257 0.31048
vn -0.65208 0.72743 0.21364
vn 0.32603 0.94511 0.02169
vn -0.00000 0.99999 0.00326
vn -0.00000 0.99987 -0.01639
vn 0.22986 0.97317 -0.01059
vn -0.00000 -0.99996 -0.00888
vn -0.00000 -0.99959 0.02880
vn 0.40424 -0.91370 0.04178
vn 0.36874 -0.92951 0.00624
vn -0.38410 -0.84111 0.38079
vn -0.49695 -0.80798 0.31655
vn -0.86785 -0.32189 0.37845
vn -0.00000 -0.92703 0.37500
vn -0.00000 -0.94080 0.33895
vn -0.65979 0.74928 -0.05706
vn -0.66783 0.74431 -0.00117
vn 0.00000 0.95212 -0.30573
vn -0.00000 0.95001 -0.31221
vn -0.53068 0.79179 -0.30241
vn -0.68703 0.72364 -0.06587
vn 0.00000 0.99999 0.00468
vn -0.45166 0.86529 -0.21741
vn -0.57529 0.77216 -0.26984
vn 0.00000 -0.95567 -0.29445
vn -0.00000 -0.99839 -0.05667
vn -0.62978 -0.71000 -0.31509
vn 0.00000 0.97605 0.21756
vn 0.00000 0.97676 0.21432
vn -0.65287 0.73080 0.19922
vn -0.58513 0.76466 0.27004
vn -0.96993 0.07131 0.23272
vn -0.90358 0.27670 0.32708
vn -0.86203 -0.49107 -0.12553
vn -0.71274 -0.66923 -0.21007
vn 0.40793 -0.90675 0.10673
vn 0.00000 -0.99475 0.10230
vn -0.00000 -0.96782 0.25165
vn 0.33858 -0.89540 0.28917
vn 0.38781 0.92036 0.05049
vn 0.00000 0.99714 0.07559
vn 0.31836 0.93877 0.13176
vn 0.00000 0.98790 0.15508
vn -0.64081 0.71777 -0.27234
vn -0.65208 0.72743 0.21364
vn -0.15878 0.98720 0.01499
vn -0.17064 0.83311 -0.52612
vn -0.52582 0.53533 0.66101
vn 0.00827 0.88562 0.46434
vn -0.03535 0.99834 0.04557
vn -0.13681 0.90641 -0.39964
vn -0.24789 0.90022 -0.35799
vn -0.05759 0.99619 0.06553
vn -0.20562 0.95700 0.20462
vn -0.07041 0.89482 0.44083
vn -0.02854 -0.99864 -0.04368
vn 0.12415 -0.05658 0.99065
vn -0.41468 -0.69295 0.58979
vn -0.76956 -0.55862 0.30939
vn -0.13238 0.32966 0.93477
vn -0.05384 -0.99703 0.05500
vn -0.92374 0.36354 -0.12059
vn -0.41468 -0.69295 0.58979
vn 0.12415 -0.05658 0.99065
vn -0.24828 -0.13482 -0.95926
vn -0.69043 -0.15824 -0.70588
vn -0.31694 0.04758 -0.94725
vn 0.03144 0.89114 0.45264
vn 0.12758 -0.53832 0.83303
vn -0.13238 0.32966 0.93477
vn -0.92374 0.36354 -0.12059
vn -0.43414 -0.61032 -0.66260
vn -0.02421 -0.99919 -0.03211
vn 0.12758 -0.53832 0.83303
vn -0.76956 -0.55862 0.30939
vn -0.76956 -0.55862 0.30939
vn -0.00000 0.96188 -0.27347
vn 0.00000 0.99894 0.04609
vn 0.00000 0.99523 0.09754
vn -0.00000 -0.99996 0.00934
vn 0.27747 -0.96047 -0.02256
vn -0.00000 -0.99607 -0.08862
vn -0.56425 -0.78796 0.24648
vn -0.00001 -0.97049 0.24113
vn -0.00000 -0.95399 0.29984
vn -0.59579 -0.73655 0.32021
vn -0.87167 -0.45698 0.17710
vn -0.82922 -0.55172 0.08945
vn -0.87167 -0.45698 0.17710
vn -0.89803 -0.35381 0.26147
vn -0.90281 -0.09712 -0.41893
vn -0.90281 -0.09712 -0.41893
vn -0.90281 -0.09712 -0.41893
vn -0.91470 -0.02783 -0.40318
vn -0.91470 -0.02783 -0.40318
vn -0.91470 -0.02783 -0.40318
vn -0.43971 0.01843 -0.89795
vn -0.43971 0.01843 -0.89795
vn -0.43971 0.01843 -0.89795
vn -0.96580 -0.16296 -0.20168
vn -0.96580 -0.16296 -0.20168
vn -0.96580 -0.16296 -0.20168
vn -0.96591 -0.16277 -0.20129
vn -0.96591 -0.16277 -0.20129
vn -0.96591 -0.16277 -0.20129
vn -0.95730 -0.06932 -0.28065
vn -0.95730 -0.06932 -0.28065
vn -0.95730 -0.06932 -0.28065
vn -0.94035 -0.18576 -0.28504
vn -0.94035 -0.18576 -0.28504
vn -0.94035 -0.18576 -0.28504
vn -0.92813 -0.23082 -0.29206
vn -0.92813 -0.23082 -0.29206
vn -0.92813 -0.23082 -0.29206
vn -0.95451 -0.20820 -0.21347
vn -0.95451 -0.20820 -0.21347
vn -0.95451 -0.20820 -0.21347
vn -0.92679 -0.02629 -0.37467
vn -0.92679 -0.02629 -0.37467
vn -0.92679 -0.02629 -0.37467
vn -0.90614 -0.37316 0.19918
vn -0.90614 -0.37316 0.19918
vn -0.90614 -0.37316 0.19918
vn -0.97248 -0.05636 -0.22605
vn -0.97248 -0.05636 -0.22605
vn -0.97248 -0.05636 -0.22605
vn -0.97305 -0.16176 -0.16436
vn -0.97305 -0.16176 -0.16436
vn -0.97305 -0.16176 -0.16436
vn -0.92947 -0.32211 -0.17981
vn -0.92947 -0.32211 -0.17981
vn -0.92947 -0.32211 -0.17981
vn -0.98132 0.08518 -0.17251
vn -0.98132 0.08518 -0.17251
vn -0.98132 0.08518 -0.17251
vn -0.95221 0.03765 -0.30312
vn -0.95221 0.03765 -0.30312
vn -0.95221 0.03765 -0.30312
vn -0.92041 -0.04515 -0.38835
vn -0.92041 -0.04515 -0.38835
vn -0.92041 -0.04515 -0.38835
vn -0.44206 -0.04166 -0.89602
vn -0.44206 -0.04166 -0.89602
vn -0.44206 -0.04166 -0.89602
vn -0.93899 -0.23162 -0.25428
vn -0.93899 -0.23162 -0.25428
vn -0.93899 -0.23162 -0.25428
vn -0.77166 -0.62320 -0.12713
vn -0.77166 -0.62320 -0.12713
vn -0.77166 -0.62320 -0.12713
vn -0.94933 -0.23313 -0.21077
vn -0.94933 -0.23313 -0.21077
vn -0.94933 -0.23313 -0.21077
vn -0.96704 -0.00693 0.25452
vn -0.00000 -0.00545 0.99999
vn -0.00000 -0.86982 0.49337
vn -0.90157 -0.41361 0.12687
vn -0.77237 -0.61769 0.14800
vn -0.00002 -0.98536 0.17046
vn 0.00000 -0.98838 0.15200
vn -0.68674 0.70565 0.17451
vn -0.00003 0.98029 0.19758
vn -0.00000 0.98361 0.18029
vn 0.00000 0.86077 0.50899
vn -0.89245 0.42640 0.14733
vn -0.98054 0.05140 0.18947
vn -0.97613 -0.01689 0.21653
vn -0.86446 -0.38377 -0.32470
vn -0.56169 -0.82630 -0.04169
vn -0.85441 -0.51736 0.04809
vn 0.24488 0.94797 -0.20342
vn 0.00000 0.99351 -0.11375
vn 0.00000 0.76089 -0.64889
vn 0.24273 0.53670 -0.80810
vn -0.99759 0.03396 -0.06058
vn -0.00000 -0.99969 -0.02508
vn -0.68231 0.70208 0.20380
vn -0.95608 -0.20517 0.20931
vn -0.00002 0.97439 0.22487
vn -0.00000 -0.92703 0.37500
vn -0.38410 -0.84111 0.38079
vn -0.00000 0.99991 0.01344
vn -0.00000 0.99854 -0.05394
vn 0.00000 -0.63412 -0.77323
vn 0.00000 -0.48544 -0.87427
vn 0.00000 0.97957 0.20111
vn 0.00000 0.98547 -0.16983
vn -0.00000 -0.94080 0.33895
vn 0.00000 -0.87670 0.48104
vn -0.55702 -0.73731 -0.38224
vn 0.00000 -0.89759 -0.44082
vn -0.00000 0.98391 -0.17866
vn -0.00000 0.98052 -0.19641
vn 0.00000 0.00432 -0.99999
vn 0.00000 0.97420 -0.22567
vn 0.11013 -0.99285 0.04611
vn -0.00000 -0.99694 -0.07819
vn -0.71736 0.36540 -0.59320
vn -0.82582 -0.38943 0.40788
vn -0.52582 0.53533 0.66101
vn -0.63389 -0.47664 -0.60910
vn 0.87391 0.45317 -0.17584
vn 0.88468 0.43955 -0.15536
vn 0.91877 0.37251 -0.13072
vn 0.90419 0.33101 -0.26996
vn 0.92582 0.33256 -0.17962
vn 0.85401 0.41928 -0.30801
vn 0.65770 -0.72769 -0.19467
vn 0.90005 -0.37148 -0.22786
vn 0.71890 -0.28483 -0.63408
vn 0.54044 -0.69342 -0.47655
vn 0.65746 -0.73414 -0.16965
vn 0.90593 -0.36541 -0.21393
vn 0.56485 -0.81845 -0.10533
vn 0.73993 0.40358 -0.53817
vn 0.59886 0.69666 -0.39499
vn 0.97098 0.22148 0.09026
vn 0.64810 0.75394 0.10743
vn 0.62061 0.78132 0.06613
vn 0.76279 0.62185 -0.17735
vn 0.95195 0.28039 -0.12315
vn 0.76464 0.58966 -0.26004
vn 0.86795 0.42769 -0.25246
vn 0.89524 0.34243 -0.28512
vn 0.60656 0.73293 -0.30805
vn 0.69695 0.70737 -0.11785
vn 0.69026 0.71856 -0.08496
vn 0.71634 0.68706 0.12167
vn 0.68225 0.67318 0.28524
vn 0.96416 0.26499 0.01302
vn 0.90900 0.41679 -0.00249
vn 0.92328 -0.26748 0.27569
vn 0.93981 -0.34163 -0.00679
vn 0.69695 0.70737 -0.11785
vn 0.90299 0.39602 -0.16665
vn 0.68999 0.71864 -0.08645
vn 0.78757 0.51999 -0.33066
vn 0.86926 0.47631 -0.13234
vn 0.92980 0.17666 -0.32289
vn 0.96482 0.26258 -0.01275
vn 0.79394 0.59627 0.11885
vn 0.71736 0.36540 -0.59320
vn 0.17570 0.76752 -0.61648
vn 0.08955 0.99588 -0.01451
vn 0.70040 0.71325 -0.02666
vn 0.40131 0.78773 0.46736
vn 0.01325 0.90998 0.41445
vn 0.10975 0.92766 -0.35693
vn 0.05473 0.99842 0.01248
vn 0.26009 0.88763 -0.38009
vn 0.30164 0.94292 0.14111
vn 0.09667 0.99326 0.06393
vn 0.07561 0.90664 0.41507
vn 0.11503 -0.99309 -0.02316
vn 0.71274 -0.66923 -0.21007
vn 0.92328 -0.26748 0.27569
vn -0.00897 -0.24903 0.96845
vn 0.17025 0.46062 0.87111
vn 0.94494 0.22857 -0.23418
vn 0.04755 -0.99835 0.03212
vn -0.00897 -0.24903 0.96845
vn 0.92328 -0.26748 0.27569
vn 0.63389 -0.47664 -0.60910
vn 0.16637 -0.27421 -0.94717
vn 0.26350 0.17461 -0.94873
vn -0.02216 0.91034 0.41326
vn 0.17025 0.46062 0.87111
vn -0.03325 -0.19979 0.97927
vn 0.94494 0.22857 -0.23418
vn 0.93923 0.17201 -0.29709
vn 0.63389 -0.47664 -0.60910
vn 0.71736 0.36540 -0.59320
vn 0.43051 -0.65701 -0.61887
vn 0.02270 -0.99960 0.01685
vn -0.03325 -0.19979 0.97927
vn 0.70040 0.71325 -0.02666
vn 0.40131 0.78773 0.46736
vn 0.90299 0.39602 -0.16665
vn 0.90358 0.27670 0.32708
vn 0.84645 0.43257 0.31048
vn 0.52582 0.53533 0.66101
vn 0.82582 -0.38943 0.40788
vn 0.41468 -0.69295 0.58979
vn 0.69043 -0.15824 -0.70588
vn 0.64081 0.71777 -0.27234
vn 0.94990 0.31255 0.00378
vn 0.86995 -0.47151 -0.14445
vn 0.47362 -0.81848 -0.32523
vn 0.55702 -0.73731 -0.38224
vn 0.57467 -0.80197 -0.16307
vn 0.47978 -0.87692 0.02856
vn 0.46277 -0.86838 0.17820
vn 0.68225 0.67318 0.28524
vn 0.58513 0.76466 0.27004
vn 0.88171 -0.45917 0.10844
vn 0.49695 -0.80798 0.31655
vn 0.86785 -0.32189 0.37845
vn 0.61456 -0.78886 -0.00371
vn 0.99151 -0.02950 -0.12663
vn 0.97241 -0.22649 0.05581
vn 0.96337 0.08809 -0.25331
vn 0.65208 0.72743 0.21364
vn 0.84645 0.43257 0.31048
vn -0.32603 0.94511 0.02169
vn -0.22986 0.97317 -0.01059
vn -0.36874 -0.92951 0.00624
vn -0.40424 -0.91370 0.04178
vn 0.86785 -0.32189 0.37845
vn 0.49695 -0.80798 0.31655
vn 0.38410 -0.84111 0.38079
vn 0.66783 0.74431 -0.00117
vn 0.65979 0.74928 -0.05706
vn 0.53068 0.79179 -0.30241
vn 0.68703 0.72364 -0.06587
vn 0.57529 0.77216 -0.26984
vn 0.45166 0.86529 -0.21741
vn 0.62978 -0.71000 -0.31509
vn 0.58513 0.76466 0.27004
vn 0.65287 0.73080 0.19922
vn 0.90358 0.27670 0.32708
vn 0.96993 0.07131 0.23272
vn 0.71274 -0.66923 -0.21007
vn 0.86203 -0.49107 -0.12553
vn -0.40793 -0.90675 0.10673
vn -0.33858 -0.89540 0.28917
vn -0.38781 0.92036 0.05049
vn -0.31835 0.93877 0.13176
vn 0.64081 0.71777 -0.27234
vn 0.17064 0.83311 -0.52612
vn 0.15878 0.98720 0.01499
vn 0.65208 0.72743 0.21364
vn 0.52582 0.53533 0.66101
vn -0.00827 0.88562 0.46434
vn 0.13681 0.90641 -0.39964
vn 0.03535 0.99834 0.04557
vn 0.24789 0.90022 -0.35799
vn 0.20562 0.95700 0.20462
vn 0.05759 0.99619 0.06553
vn 0.07041 0.89482 0.44083
vn 0.02854 -0.99864 -0.04368
vn 0.76956 -0.55862 0.30939
vn 0.41468 -0.69295 0.58979
vn -0.12415 -0.05658 0.99065
vn 0.13238 0.32966 0.93477
vn 0.92374 0.36354 -0.12059
vn 0.05384 -0.99703 0.05500
vn -0.12415 -0.05658 0.99065
vn 0.41468 -0.69295 0.58979
vn 0.69043 -0.15824 -0.70588
vn 0.24828 -0.13482 -0.95926
vn 0.31694 0.04759 -0.94725
vn -0.03144 0.89114 0.45264
vn 0.13238 0.32966 0.93477
vn -0.12758 -0.53832 0.83303
vn 0.92374 0.36354 -0.12059
vn 0.43414 -0.61032 -0.66260
vn 0.02421 -0.99919 -0.03211
vn -0.12758 -0.53832 0.83303
vn 0.76956 -0.55862 0.30939
vn 0.76956 -0.55862 0.30939
vn -0.27747 -0.96047 -0.02255
vn 0.56425 -0.78796 0.24648
vn 0.59579 -0.73655 0.32021
vn 0.87167 -0.45698 0.17710
vn 0.89803 -0.35381 0.26147
vn 0.87167 -0.45698 0.17710
vn 0.82922 -0.55172 0.08945
vn 0.90281 -0.09712 -0.41893
vn 0.90281 -0.09712 -0.41893
vn 0.90281 -0.09712 -0.41893
vn 0.91470 -0.02783 -0.40318
vn 0.91470 -0.02783 -0.40318
vn 0.91470 -0.02783 -0.40318
vn 0.43971 0.01843 -0.89795
vn 0.43971 0.01843 -0.89795
vn 0.43971 0.01843 -0.89795
vn 0.96580 -0.16296 -0.20168
vn 0.96580 -0.16296 -0.20168
vn 0.96580 -0.16296 -0.20168
vn 0.96591 -0.16277 -0.20129
vn 0.96591 -0.16277 -0.20129
vn 0.96591 -0.16277 -0.20129
vn 0.95730 -0.06932 -0.28065
vn 0.95730 -0.06932 -0.28065
vn 0.95730 -0.06932 -0.28065
vn 0.94035 -0.18576 -0.28504
vn 0.94035 -0.18576 -0.28504
vn 0.94035 -0.18576 -0.28504
vn 0.92813 -0.23082 -0.29206
vn 0.92813 -0.23082 -0.29206
vn 0.92813 -0.23082 -0.29206
vn 0.95451 -0.20820 -0.21347
vn 0.95451 -0.20820 -0.21347
vn 0.95451 -0.20820 -0.21347
vn 0.92679 -0.02629 -0.37467
vn 0.92679 -0.02629 -0.37467
vn 0.92679 -0.02629 -0.37467
vn 0.90614 -0.37316 0.19918
vn 0.90614 -0.37316 0.19918
vn 0.90614 -0.37316 0.19918
vn 0.97248 -0.05636 -0.22605
vn 0.97248 -0.05636 -0.22605
vn 0.97248 -0.05636 -0.22605
vn 0.97305 -0.16176 -0.16436
vn 0.97305 -0.16176 -0.16436
vn 0.97305 -0.16176 -0.16436
vn 0.92947 -0.32211 -0.17981
vn 0.92947 -0.32211 -0.17981
vn 0.92947 -0.32211 -0.17981
vn 0.98132 0.08518 -0.17251
vn 0.98132 0.08518 -0.17251
vn 0.98132 0.08518 -0.17251
vn 0.95221 0.03765 -0.30312
vn 0.95221 0.03765 -0.30312
vn 0.95221 0.03765 -0.30312
vn 0.92041 -0.04515 -0.38835
vn 0.92041 -0.04515 -0.38835
vn 0.92041 -0.04515 -0.38835
vn 0.44206 -0.04166 -0.89602
vn 0.44206 -0.04166 -0.89602
vn 0.44206 -0.04166 -0.89602
vn 0.93899 -0.23162 -0.25428
vn 0.93899 -0.23162 -0.25428
vn 0.93899 -0.23162 -0.25428
vn 0.77166 -0.62320 -0.12713
vn 0.77166 -0.62320 -0.12713
vn 0.77166 -0.62320 -0.12713
vn 0.94933 -0.23313 -0.21077
vn 0.94933 -0.23313 -0.21077
vn 0.94933 -0.23313 -0.21077
vn 0.96704 -0.00693 0.25452
vn 0.90157 -0.41361 0.12687
vn 0.77237 -0.61769 0.14800
vn 0.68672 0.70566 0.17452
vn 0.89245 0.42640 0.14733
vn 0.98054 0.05140 0.18947
vn 0.97613 -0.01689 0.21653
vn 0.86446 -0.38377 -0.32470
vn 0.85441 -0.51736 0.04809
vn 0.56169 -0.82630 -0.04169
vn -0.24488 0.94797 -0.20342
vn -0.24273 0.53670 -0.80810
vn 0.99759 0.03396 -0.06058
vn 0.95608 -0.20517 0.20931
vn 0.68231 0.70208 0.20380
vn 0.38410 -0.84111 0.38079
vn 0.55702 -0.73731 -0.38224
vn -0.11013 -0.99285 0.04611
vn 0.71736 0.36540 -0.59320
vn 0.82582 -0.38943 0.40788
vn 0.52582 0.53533 0.66101
vn 0.63389 -0.47664 -0.60910
f 182/182/182 160/160/160 163/163/163
f 162/162/162 163/163/163 160/160/160
f 160/160/160 161/161/161 162/162/162
f 172/172/172 175/175/175 182/182/182
f 182/182/182 181/181/181 172/172/172
f 163/163/163 181/181/181 182/182/182
f 163/163/163 167/167/167 183/183/183
f 183/183/183 181/181/181 163/163/163
f 167/167/167 163/163/163 162/162/162
f 172/172/172 181/181/181 183/183/183
f 183/183/183 189/189/189 172/172/172
f 189/189/189 183/183/183 188/188/188
f 445/445/445 444/444/444 465/465/465
f 446/446/446 447/447/447 444/444/444
f 444/444/444 445/445/445 446/446/446
f 445/445/445 466/466/466 467/467/467
f 467/467/467 450/450/450 445/445/445
f 465/465/465 466/466/466 445/445/445
f 446/446/446 445/445/445 450/450/450
f 456/456/456 466/466/466 465/465/465
f 465/465/465 457/457/457 456/456/456
f 467/467/467 466/466/466 456/456/456
f 456/456/456 473/473/473 467/467/467
f 472/472/472 467/467/467 473/473/473
f 313/313/313 198/198/198 197/197/197
f 197/197/197 312/312/312 313/313/313
f 153/153/153 152/152/152 125/125/125
f 125/125/125 124/124/124 153/153/153
f 153/153/153 124/124/124 423/423/423
f 423/423/423 440/440/440 153/153/153
f 154/154/154 153/153/153 440/440/440
f 152/152/152 153/153/153 154/154/154
f 154/154/154 155/155/155 152/152/152
f 305/305/305 154/154/154 441/441/441
f 440/440/440 441/441/441 154/154/154
f 305/305/305 155/155/155 154/154/154
f 120/120/120 119/119/119 156/156/156
f 121/121/121 122/122/122 119/119/119
f 119/119/119 120/120/120 121/121/121
f 120/120/120 157/157/157 442/442/442
f 442/442/442 420/420/420 120/120/120
f 121/121/121 120/120/120 420/420/420
f 156/156/156 157/157/157 120/120/120
f 157/157/157 156/156/156 158/158/158
f 157/157/157 159/159/159 443/443/443
f 443/443/443 442/442/442 157/157/157
f 158/158/158 159/159/159 157/157/157
f 159/159/159 158/158/158 302/302/302
f 368/368/368 369/369/369 382/382/382
f 382/382/382 365/365/365 368/368/368
f 368/368/368 367/367/367 369/369/369
f 383/383/383 369/369/369 367/367/367
f 382/382/382 369/369/369 383/383/383
f 365/365/365 382/382/382 363/363/363
f 363/363/363 382/382/382 384/384/384
f 383/383/383 384/384/384 382/382/382
f 363/363/363 360/360/360 365/365/365
f 384/384/384 377/377/377 363/363/363
f 362/362/362 363/363/363 377/377/377
f 360/360/360 363/363/363 362/362/362
f 362/362/362 361/361/361 360/360/360
f 377/377/377 378/378/378 362/362/362
f 367/367/367 385/385/385 383/383/383
f 58/58/58 55/55/55 73/73/73
f 73/73/73 60/60/60 58/58/58
f 58/58/58 60/60/60 59/59/59
f 59/59/59 60/60/60 75/75/75
f 75/75/75 76/76/76 59/59/59
f 75/75/75 60/60/60 73/73/73
f 54/54/54 73/73/73 55/55/55
f 74/74/74 73/73/73 54/54/54
f 73/73/73 74/74/74 75/75/75
f 55/55/55 51/51/51 54/54/54
f 54/54/54 69/69/69 74/74/74
f 69/69/69 54/54/54 53/53/53
f 53/53/53 54/54/54 51/51/51
f 51/51/51 50/50/50 53/53/53
f 53/53/53 68/68/68 69/69/69
f 123/123/123 196/196/196 422/422/422
f 423/423/423 124/124/124 123/123/123
f 123/123/123 422/422/422 423/423/423
f 123/123/123 126/126/126 196/196/196
f 125/125/125 126/126/126 123/123/123
f 123/123/123 124/124/124 125/125/125
f 477/477/477 422/422/422 196/196/196
f 196/196/196 198/198/198 477/477/477
f 197/197/197 198/198/198 196/196/196
f 196/196/196 126/126/126 197/197/197
f 313/313/313 564/564/564 477/477/477
f 477/477/477 198/198/198 313/313/313
f 237/237/237 238/238/238 239/239/239
f 514/514/514 515/515/515 516/516/516
f 205/205/205 206/206/206 203/203/203
f 203/203/203 204/204/204 205/205/205
f 482/482/482 483/483/483 480/480/480
f 480/480/480 481/481/481 482/482/482
f 183/183/183 167/167/167 168/168/168
f 168/168/168 188/188/188 183/183/183
f 168/168/168 167/167/167 166/166/166
f 162/162/162 166/166/166 167/167/167
f 178/178/178 188/188/188 168/168/168
f 168/168/168 170/170/170 178/178/178
f 166/166/166 169/169/169 168/168/168
f 168/168/168 169/169/169 170/170/170
f 178/178/178 177/177/177 188/188/188
f 188/188/188 177/177/177 189/189/189
f 190/190/190 189/189/189 177/177/177
f 172/172/172 189/189/189 190/190/190
f 177/177/177 176/176/176 190/190/190
f 176/176/176 177/177/177 178/178/178
f 190/190/190 173/173/173 172/172/172
f 174/174/174 175/175/175 172/172/172
f 172/172/172 173/173/173 174/174/174
f 467/467/467 472/472/472 452/452/452
f 452/452/452 450/450/450 467/467/467
f 451/451/451 450/450/450 452/452/452
f 450/450/450 451/451/451 446/446/446
f 461/461/461 453/453/453 452/452/452
f 452/452/452 472/472/472 461/461/461
f 452/452/452 454/454/454 451/451/451
f 452/452/452 453/453/453 454/454/454
f 461/461/461 472/472/472 462/462/462
f 473/473/473 462/462/462 472/472/472
f 462/462/462 473/473/473 474/474/474
f 474/474/474 473/473/473 456/456/456
f 474/474/474 460/460/460 462/462/462
f 460/460/460 461/461/461 462/462/462
f 456/456/456 459/459/459 474/474/474
f 458/458/458 459/459/459 456/456/456
f 456/456/456 457/457/457 458/458/458
f 333/333/333 336/336/336 337/337/337
f 311/311/311 336/336/336 335/335/335
f 333/333/333 335/335/335 336/336/336
f 559/559/559 416/416/416 333/333/333
f 415/415/415 333/333/333 416/416/416
f 334/334/334 333/333/333 415/415/415
f 333/333/333 334/334/334 335/335/335
f 335/335/335 194/194/194 311/311/311
f 194/194/194 335/335/335 334/334/334
f 23/23/23 22/22/22 311/311/311
f 311/311/311 194/194/194 23/23/23
f 334/334/334 195/195/195 194/194/194
f 194/194/194 195/195/195 24/24/24
f 24/24/24 23/23/23 194/194/194
f 334/334/334 430/430/430 138/138/138
f 138/138/138 195/195/195 334/334/334
f 37/37/37 133/133/133 36/36/36
f 133/133/133 37/37/37 40/40/40
f 40/40/40 84/84/84 83/83/83
f 42/42/42 132/132/132 40/40/40
f 40/40/40 132/132/132 133/133/133
f 40/40/40 83/83/83 41/41/41
f 40/40/40 41/41/41 42/42/42
f 298/298/298 133/133/133 132/132/132
f 299/299/299 132/132/132 42/42/42
f 132/132/132 299/299/299 298/298/298
f 42/42/42 303/303/303 299/299/299
f 350/350/350 428/428/428 299/299/299
f 299/299/299 303/303/303 350/350/350
f 298/298/298 299/299/299 428/428/428
f 350/350/350 347/347/347 428/428/428
f 347/347/347 350/350/350 351/351/351
f 347/347/347 392/392/392 393/393/393
f 347/347/347 351/351/351 392/392/392
f 351/351/351 565/565/565 392/392/392
f 41/41/41 83/83/83 314/314/314
f 36/36/36 35/35/35 92/92/92
f 92/92/92 35/35/35 117/117/117
f 91/91/91 110/110/110 92/92/92
f 118/118/118 93/93/93 92/92/92
f 92/92/92 117/117/117 118/118/118
f 91/91/91 92/92/92 93/93/93
f 316/316/316 118/118/118 117/117/117
f 110/110/110 91/91/91 192/192/192
f 387/387/387 386/386/386 554/554/554
f 386/386/386 387/387/387 388/388/388
f 430/430/430 415/415/415 386/386/386
f 386/386/386 343/343/343 430/430/430
f 386/386/386 388/388/388 394/394/394
f 343/343/343 386/386/386 342/342/342
f 386/386/386 394/394/394 342/342/342
f 414/414/414 415/415/415 416/416/416
f 414/414/414 556/556/556 292/292/292
f 292/292/292 142/142/142 414/414/414
f 555/555/555 556/556/556 414/414/414
f 414/414/414 416/416/416 555/555/555
f 13/13/13 292/292/292 556/556/556
f 556/556/556 330/330/330 13/13/13
f 556/556/556 555/555/555 403/403/403
f 403/403/403 330/330/330 556/556/556
f 285/285/285 292/292/292 13/13/13
f 13/13/13 15/15/15 285/285/285
f 285/285/285 15/15/15 94/94/94
f 328/328/328 14/14/14 13/13/13
f 13/13/13 330/330/330 328/328/328
f 12/12/12 15/15/15 13/13/13
f 13/13/13 14/14/14 12/12/12
f 328/328/328 330/330/330 403/403/403
f 403/403/403 329/329/329 328/328/328
f 14/14/14 328/328/328 324/324/324
f 328/328/328 329/329/329 325/325/325
f 344/344/344 402/402/402 345/345/345
f 346/346/346 402/402/402 344/344/344
f 402/402/402 419/419/419 345/345/345
f 400/400/400 402/402/402 411/411/411
f 349/349/349 411/411/411 402/402/402
f 402/402/402 346/346/346 349/349/349
f 418/418/418 419/419/419 402/402/402
f 402/402/402 401/401/401 418/418/418
f 400/400/400 401/401/401 402/402/402
f 348/348/348 349/349/349 346/346/346
f 346/346/346 347/347/347 348/348/348
f 349/349/349 439/439/439 406/406/406
f 406/406/406 407/407/407 349/349/349
f 411/411/411 349/349/349 407/407/407
f 348/348/348 439/439/439 349/349/349
f 348/348/348 438/438/438 439/439/439
f 393/393/393 348/348/348 347/347/347
f 264/264/264 265/265/265 266/266/266
f 541/541/541 542/542/542 543/543/543
f 151/151/151 150/150/150 100/100/100
f 100/100/100 96/96/96 151/151/151
f 38/38/38 102/102/102 100/100/100
f 100/100/100 150/150/150 38/38/38
f 151/151/151 96/96/96 99/99/99
f 98/98/98 99/99/99 96/96/96
f 99/99/99 317/317/317 151/151/151
f 39/39/39 150/150/150 151/151/151
f 39/39/39 38/38/38 150/150/150
f 102/102/102 38/38/38 110/110/110
f 38/38/38 37/37/37 92/92/92
f 92/92/92 110/110/110 38/38/38
f 37/37/37 38/38/38 39/39/39
f 84/84/84 40/40/40 39/39/39
f 39/39/39 40/40/40 37/37/37
f 36/36/36 92/92/92 37/37/37
f 159/159/159 302/302/302 443/443/443
f 420/420/420 421/421/421 121/121/121
f 421/421/421 557/557/557 288/288/288
f 288/288/288 121/121/121 421/421/421
f 122/122/122 121/121/121 288/288/288
f 289/289/289 288/288/288 557/557/557
f 288/288/288 287/287/287 122/122/122
f 287/287/287 288/288/288 289/289/289
f 557/557/557 558/558/558 289/289/289
f 310/310/310 289/289/289 558/558/558
f 310/310/310 290/290/290 289/289/289
f 289/289/289 290/290/290 287/287/287
f 415/415/415 430/430/430 334/334/334
f 24/24/24 195/195/195 138/138/138
f 138/138/138 137/137/137 24/24/24
f 115/115/115 20/20/20 24/24/24
f 24/24/24 137/137/137 115/115/115
f 20/20/20 23/23/23 24/24/24
f 20/20/20 22/22/22 23/23/23
f 6/6/6 22/22/22 21/21/21
f 20/20/20 21/21/21 22/22/22
f 20/20/20 114/114/114 291/291/291
f 291/291/291 21/21/21 20/20/20
f 115/115/115 114/114/114 20/20/20
f 4/4/4 21/21/21 291/291/291
f 21/21/21 4/4/4 6/6/6
f 6/6/6 4/4/4 2/2/2
f 291/291/291 116/116/116 4/4/4
f 5/5/5 4/4/4 116/116/116
f 4/4/4 5/5/5 2/2/2
f 2/2/2 5/5/5 3/3/3
f 27/27/27 5/5/5 116/116/116
f 3/3/3 5/5/5 27/27/27
f 27/27/27 26/26/26 3/3/3
f 27/27/27 28/28/28 25/25/25
f 25/25/25 26/26/26 27/27/27
f 193/193/193 134/134/134 26/26/26
f 26/26/26 25/25/25 193/193/193
f 16/16/16 19/19/19 25/25/25
f 25/25/25 28/28/28 16/16/16
f 427/427/427 344/344/344 33/33/33
f 33/33/33 298/298/298 427/427/427
f 345/345/345 34/34/34 33/33/33
f 33/33/33 344/344/344 345/345/345
f 133/133/133 298/298/298 33/33/33
f 33/33/33 36/36/36 133/133/133
f 35/35/35 36/36/36 33/33/33
f 33/33/33 34/34/34 35/35/35
f 428/428/428 427/427/427 298/298/298
f 344/344/344 427/427/427 346/346/346
f 427/427/427 428/428/428 347/347/347
f 347/347/347 346/346/346 427/427/427
f 338/338/338 339/339/339 340/340/340
f 286/286/286 114/114/114 113/113/113
f 113/113/113 114/114/114 115/115/115
f 94/94/94 286/286/286 285/285/285
f 113/113/113 285/285/285 286/286/286
f 113/113/113 142/142/142 292/292/292
f 292/292/292 285/285/285 113/113/113
f 113/113/113 115/115/115 143/143/143
f 113/113/113 143/143/143 141/141/141
f 141/141/141 142/142/142 113/113/113
f 115/115/115 77/77/77 284/284/284
f 284/284/284 143/143/143 115/115/115
f 77/77/77 115/115/115 137/137/137
f 306/306/306 143/143/143 284/284/284
f 141/141/141 143/143/143 306/306/306
f 79/79/79 306/306/306 284/284/284
f 79/79/79 284/284/284 77/77/77
f 306/306/306 307/307/307 141/141/141
f 141/141/141 307/307/307 563/563/563
f 563/563/563 433/433/433 141/141/141
f 414/414/414 142/142/142 141/141/141
f 141/141/141 433/433/433 414/414/414
f 387/387/387 554/554/554 563/563/563
f 563/563/563 554/554/554 433/433/433
f 415/415/415 433/433/433 554/554/554
f 414/414/414 433/433/433 415/415/415
f 554/554/554 386/386/386 415/415/415
f 243/243/243 244/244/244 245/245/245
f 520/520/520 521/521/521 522/522/522
f 249/249/249 250/250/250 251/251/251
f 526/526/526 527/527/527 528/528/528
f 31/31/31 343/343/343 342/342/342
f 342/342/342 32/32/32 31/31/31
f 31/31/31 138/138/138 430/430/430
f 430/430/430 343/343/343 31/31/31
f 31/31/31 30/30/30 137/137/137
f 137/137/137 138/138/138 31/31/31
f 31/31/31 32/32/32 29/29/29
f 29/29/29 30/30/30 31/31/31
f 30/30/30 29/29/29 77/77/77
f 77/77/77 29/29/29 85/85/85
f 137/137/137 30/30/30 77/77/77
f 77/77/77 85/85/85 78/78/78
f 406/406/406 439/439/439 438/438/438
f 405/405/405 404/404/404 438/438/438
f 438/438/438 568/568/568 405/405/405
f 438/438/438 404/404/404 406/406/406
f 407/407/407 406/406/406 101/101/101
f 97/97/97 101/101/101 406/406/406
f 406/406/406 404/404/404 97/97/97
f 98/98/98 97/97/97 404/404/404
f 404/404/404 405/405/405 98/98/98
f 97/97/97 96/96/96 100/100/100
f 100/100/100 101/101/101 97/97/97
f 96/96/96 97/97/97 98/98/98
f 101/101/101 103/103/103 407/407/407
f 101/101/101 100/100/100 102/102/102
f 102/102/102 103/103/103 101/101/101
f 246/246/246 247/247/247 248/248/248
f 523/523/523 524/524/524 525/525/525
f 547/547/547 548/548/548 272/272/272
f 548/548/548 549/549/549 276/276/276
f 549/549/549 275/275/275 276/276/276
f 200/200/200 275/275/275 549/549/549
f 560/560/560 478/478/478 549/549/549
f 549/549/549 552/552/552 560/560/560
f 552/552/552 549/549/549 548/548/548
f 549/549/549 478/478/478 200/200/200
f 548/548/548 547/547/547 553/553/553
f 548/548/548 553/553/553 552/552/552
f 553/553/553 547/547/547 551/551/551
f 547/547/547 271/271/271 280/280/280
f 280/280/280 551/551/551 547/547/547
f 552/552/552 553/553/553 551/551/551
f 552/552/552 550/550/550 561/561/561
f 561/561/561 560/560/560 552/552/552
f 48/48/48 44/44/44 43/43/43
f 43/43/43 44/44/44 45/45/45
f 47/47/47 44/44/44 48/48/48
f 44/44/44 46/46/46 45/45/45
f 46/46/46 44/44/44 47/47/47
f 357/357/357 352/352/352 354/354/354
f 352/352/352 353/353/353 354/354/354
f 356/356/356 357/357/357 354/354/354
f 354/354/354 353/353/353 355/355/355
f 355/355/355 356/356/356 354/354/354
f 219/219/219 220/220/220 221/221/221
f 496/496/496 497/497/497 498/498/498
f 216/216/216 217/217/217 218/218/218
f 493/493/493 494/494/494 495/495/495
f 231/231/231 232/232/232 233/233/233
f 508/508/508 509/509/509 510/510/510
f 267/267/267 268/268/268 269/269/269
f 544/544/544 545/545/545 546/546/546
f 169/169/169 166/166/166 184/184/184
f 184/184/184 171/171/171 169/169/169
f 169/169/169 171/171/171 170/170/170
f 165/165/165 184/184/184 166/166/166
f 166/166/166 162/162/162 165/165/165
f 185/185/185 184/184/184 165/165/165
f 186/186/186 171/171/171 184/184/184
f 184/184/184 185/185/185 186/186/186
f 170/170/170 171/171/171 186/186/186
f 186/186/186 187/187/187 170/170/170
f 165/165/165 180/180/180 185/185/185
f 180/180/180 165/165/165 164/164/164
f 164/164/164 165/165/165 162/162/162
f 162/162/162 161/161/161 164/164/164
f 164/164/164 179/179/179 180/180/180
f 454/454/454 455/455/455 468/468/468
f 468/468/468 451/451/451 454/454/454
f 454/454/454 453/453/453 455/455/455
f 469/469/469 455/455/455 453/453/453
f 468/468/468 455/455/455 469/469/469
f 451/451/451 468/468/468 449/449/449
f 449/449/449 468/468/468 470/470/470
f 469/469/469 470/470/470 468/468/468
f 449/449/449 446/446/446 451/451/451
f 470/470/470 463/463/463 449/449/449
f 448/448/448 449/449/449 463/463/463
f 446/446/446 449/449/449 448/448/448
f 448/448/448 447/447/447 446/446/446
f 463/463/463 464/464/464 448/448/448
f 453/453/453 471/471/471 469/469/469
f 149/149/149 147/147/147 146/146/146
f 146/146/146 148/148/148 149/149/149
f 277/277/277 293/293/293 295/295/295
f 282/282/282 294/294/294 293/293/293
f 293/293/293 277/277/277 282/282/282
f 293/293/293 294/294/294 148/148/148
f 550/550/550 278/278/278 295/295/295
f 295/295/295 561/561/561 550/550/550
f 295/295/295 278/278/278 277/277/277
f 282/282/282 277/277/277 281/281/281
f 281/281/281 277/277/277 279/279/279
f 277/277/277 278/278/278 279/279/279
f 294/294/294 282/282/282 274/274/274
f 281/281/281 283/283/283 282/282/282
f 273/273/273 274/274/274 282/282/282
f 282/282/282 283/283/283 273/273/273
f 294/294/294 199/199/199 202/202/202
f 240/240/240 241/241/241 242/242/242
f 517/517/517 518/518/518 519/519/519
f 435/435/435 145/145/145 144/144/144
f 144/144/144 434/434/434 435/435/435
f 146/146/146 147/147/147 144/144/144
f 144/144/144 145/145/145 146/146/146
f 145/145/145 435/435/435 561/561/561
f 561/561/561 435/435/435 437/437/437
f 436/436/436 437/437/437 435/435/435
f 435/435/435 434/434/434 436/436/436
f 561/561/561 295/295/295 145/145/145
f 145/145/145 295/295/295 293/293/293
f 293/293/293 146/146/146 145/145/145
f 148/148/148 146/146/146 293/293/293
f 71/71/71 49/49/49 52/52/52
f 51/51/51 52/52/52 49/49/49
f 49/49/49 50/50/50 51/51/51
f 71/71/71 70/70/70 61/61/61
f 61/61/61 64/64/64 71/71/71
f 52/52/52 70/70/70 71/71/71
f 52/52/52 56/56/56 72/72/72
f 72/72/72 70/70/70 52/52/52
f 56/56/56 52/52/52 51/51/51
f 61/61/61 70/70/70 72/72/72
f 72/72/72 81/81/81 61/61/61
f 62/62/62 61/61/61 81/81/81
f 261/261/261 262/262/262 263/263/263
f 538/538/538 539/539/539 540/540/540
f 359/359/359 358/358/358 379/379/379
f 360/360/360 361/361/361 358/358/358
f 358/358/358 359/359/359 360/360/360
f 359/359/359 380/380/380 381/381/381
f 381/381/381 364/364/364 359/359/359
f 379/379/379 380/380/380 359/359/359
f 360/360/360 359/359/359 364/364/364
f 379/379/379 371/371/371 370/370/370
f 370/370/370 380/380/380 379/379/379
f 381/381/381 380/380/380 370/370/370
f 370/370/370 390/390/390 381/381/381
f 389/389/389 381/381/381 390/390/390
f 192/192/192 111/111/111 110/110/110
f 110/110/110 104/104/104 102/102/102
f 112/112/112 104/104/104 110/110/110
f 110/110/110 111/111/111 112/112/112
f 112/112/112 304/304/304 105/105/105
f 105/105/105 104/104/104 112/112/112
f 102/102/102 104/104/104 105/105/105
f 105/105/105 103/103/103 102/102/102
f 412/412/412 408/408/408 105/105/105
f 105/105/105 304/304/304 412/412/412
f 105/105/105 408/408/408 407/407/407
f 407/407/407 103/103/103 105/105/105
f 412/412/412 413/413/413 411/411/411
f 318/318/318 319/319/319 320/320/320
f 431/431/431 336/336/336 311/311/311
f 336/336/336 431/431/431 323/323/323
f 337/337/337 336/336/336 323/323/323
f 323/323/323 321/321/321 337/337/337
f 323/323/323 320/320/320 321/321/321
f 320/320/320 319/319/319 322/322/322
f 321/321/321 320/320/320 322/322/322
f 319/319/319 341/341/341 340/340/340
f 340/340/340 322/322/322 319/319/319
f 340/340/340 417/417/417 322/322/322
f 322/322/322 417/417/417 321/321/321
f 559/559/559 337/337/337 321/321/321
f 321/321/321 417/417/417 559/559/559
f 333/333/333 337/337/337 559/559/559
f 77/77/77 78/78/78 79/79/79
f 202/202/202 148/148/148 294/294/294
f 274/274/274 199/199/199 294/294/294
f 276/276/276 274/274/274 273/273/273
f 274/274/274 276/276/276 275/275/275
f 274/274/274 275/275/275 200/200/200
f 200/200/200 199/199/199 274/274/274
f 273/273/273 283/283/283 270/270/270
f 273/273/273 272/272/272 276/276/276
f 272/272/272 273/273/273 270/270/270
f 283/283/283 281/281/281 270/270/270
f 270/270/270 281/281/281 280/280/280
f 280/280/280 271/271/271 270/270/270
f 270/270/270 271/271/271 272/272/272
f 276/276/276 272/272/272 548/548/548
f 272/272/272 271/271/271 547/547/547
f 136/136/136 139/139/139 1/1/1
f 1/1/1 3/3/3 136/136/136
f 140/140/140 6/6/6 1/1/1
f 1/1/1 139/139/139 140/140/140
f 6/6/6 2/2/2 1/1/1
f 1/1/1 2/2/2 3/3/3
f 139/139/139 136/136/136 135/135/135
f 3/3/3 26/26/26 136/136/136
f 136/136/136 26/26/26 134/134/134
f 134/134/134 135/135/135 136/136/136
f 139/139/139 308/308/308 309/309/309
f 309/309/309 140/140/140 139/139/139
f 225/225/225 226/226/226 227/227/227
f 502/502/502 503/503/503 504/504/504
f 222/222/222 223/223/223 224/224/224
f 499/499/499 500/500/500 501/501/501
f 228/228/228 229/229/229 230/230/230
f 505/505/505 506/506/506 507/507/507
f 411/411/411 408/408/408 412/412/412
f 407/407/407 408/408/408 411/411/411
f 411/411/411 413/413/413 476/476/476
f 476/476/476 400/400/400 411/411/411
f 567/567/567 419/419/419 418/418/418
f 252/252/252 253/253/253 254/254/254
f 529/529/529 530/530/530 531/531/531
f 381/381/381 389/389/389 366/366/366
f 366/366/366 364/364/364 381/381/381
f 365/365/365 364/364/364 366/366/366
f 364/364/364 365/365/365 360/360/360
f 375/375/375 367/367/367 366/366/366
f 366/366/366 389/389/389 375/375/375
f 366/366/366 368/368/368 365/365/365
f 366/366/366 367/367/367 368/368/368
f 375/375/375 389/389/389 376/376/376
f 390/390/390 376/376/376 389/389/389
f 374/374/374 375/375/375 376/376/376
f 376/376/376 390/390/390 391/391/391
f 391/391/391 374/374/374 376/376/376
f 390/390/390 370/370/370 373/373/373
f 373/373/373 391/391/391 390/390/390
f 372/372/372 373/373/373 370/370/370
f 370/370/370 371/371/371 372/372/372
f 63/63/63 64/64/64 61/61/61
f 61/61/61 62/62/62 63/63/63
f 81/81/81 72/72/72 80/80/80
f 72/72/72 56/56/56 57/57/57
f 57/57/57 80/80/80 72/72/72
f 57/57/57 56/56/56 55/55/55
f 51/51/51 55/55/55 56/56/56
f 67/67/67 80/80/80 57/57/57
f 57/57/57 59/59/59 67/67/67
f 55/55/55 58/58/58 57/57/57
f 57/57/57 58/58/58 59/59/59
f 67/67/67 66/66/66 80/80/80
f 80/80/80 66/66/66 81/81/81
f 65/65/65 66/66/66 67/67/67
f 66/66/66 65/65/65 82/82/82
f 82/82/82 81/81/81 66/66/66
f 81/81/81 82/82/82 62/62/62
f 135/135/135 308/308/308 139/139/139
f 140/140/140 309/309/309 311/311/311
f 311/311/311 22/22/22 140/140/140
f 22/22/22 6/6/6 140/140/140
f 311/311/311 309/309/309 431/431/431
f 432/432/432 431/431/431 309/309/309
f 309/309/309 308/308/308 432/432/432
f 432/432/432 308/308/308 135/135/135
f 135/135/135 429/429/429 432/432/432
f 318/318/318 432/432/432 429/429/429
f 431/431/431 432/432/432 318/318/318
f 429/429/429 135/135/135 134/134/134
f 429/429/429 319/319/319 318/318/318
f 319/319/319 429/429/429 341/341/341
f 134/134/134 341/341/341 429/429/429
f 318/318/318 323/323/323 431/431/431
f 323/323/323 318/318/318 320/320/320
f 234/234/234 235/235/235 236/236/236
f 511/511/511 512/512/512 513/513/513
f 109/109/109 86/86/86 88/88/88
f 109/109/109 108/108/108 86/86/86
f 87/87/87 86/86/86 89/89/89
f 86/86/86 87/87/87 88/88/88
f 108/108/108 109/109/109 106/106/106
f 106/106/106 107/107/107 108/108/108
f 410/410/410 107/107/107 106/106/106
f 106/106/106 409/409/409 410/410/410
f 409/409/409 395/395/395 410/410/410
f 409/409/409 396/396/396 395/395/395
f 398/398/398 395/395/395 397/397/397
f 395/395/395 396/396/396 397/397/397
f 551/551/551 550/550/550 552/552/552
f 560/560/560 437/437/437 479/479/479
f 479/479/479 478/478/478 560/560/560
f 437/437/437 560/560/560 561/561/561
f 201/201/201 200/200/200 478/478/478
f 478/478/478 479/479/479 201/201/201
f 566/566/566 562/562/562 479/479/479
f 566/566/566 479/479/479 437/437/437
f 479/479/479 562/562/562 296/296/296
f 296/296/296 201/201/201 479/479/479
f 437/437/437 436/436/436 566/566/566
f 202/202/202 201/201/201 296/296/296
f 296/296/296 297/297/297 202/202/202
f 201/201/201 202/202/202 199/199/199
f 199/199/199 200/200/200 201/201/201
f 315/315/315 202/202/202 297/297/297
f 148/148/148 202/202/202 315/315/315
f 315/315/315 149/149/149 148/148/148
f 279/279/279 550/550/550 551/551/551
f 550/550/550 279/279/279 278/278/278
f 551/551/551 280/280/280 279/279/279
f 279/279/279 280/280/280 281/281/281
f 255/255/255 256/256/256 257/257/257
f 532/532/532 533/533/533 534/534/534
f 475/475/475 424/424/424 398/398/398
f 398/398/398 399/399/399 475/475/475
f 425/425/425 426/426/426 398/398/398
f 398/398/398 424/424/424 425/425/425
f 397/397/397 399/399/399 398/398/398
f 131/131/131 130/130/130 426/426/426
f 426/426/426 425/425/425 131/131/131
f 131/131/131 128/128/128 127/127/127
f 127/127/127 130/130/130 131/131/131
f 128/128/128 129/129/129 89/89/89
f 89/89/89 127/127/127 128/128/128
f 89/89/89 129/129/129 191/191/191
f 191/191/191 90/90/90 89/89/89
f 89/89/89 90/90/90 87/87/87
f 210/210/210 211/211/211 212/212/212
f 487/487/487 488/488/488 489/489/489
f 325/325/325 324/324/324 328/328/328
f 324/324/324 95/95/95 14/14/14
f 7/7/7 12/12/12 14/14/14
f 14/14/14 95/95/95 7/7/7
f 94/94/94 15/15/15 12/12/12
f 12/12/12 11/11/11 94/94/94
f 12/12/12 7/7/7 10/10/10
f 10/10/10 11/11/11 12/12/12
f 9/9/9 10/10/10 7/7/7
f 8/8/8 7/7/7 95/95/95
f 7/7/7 8/8/8 9/9/9
f 95/95/95 324/324/324 327/327/327
f 327/327/327 300/300/300 95/95/95
f 95/95/95 300/300/300 8/8/8
f 326/326/326 327/327/327 324/324/324
f 324/324/324 325/325/325 326/326/326
f 300/300/300 327/327/327 326/326/326
f 326/326/326 301/301/301 300/300/300
f 300/300/300 301/301/301 9/9/9
f 207/207/207 208/208/208 209/209/209
f 484/484/484 485/485/485 486/486/486
f 193/193/193 25/25/25 19/19/19
f 193/193/193 338/338/338 341/341/341
f 341/341/341 134/134/134 193/193/193
f 193/193/193 18/18/18 332/332/332
f 332/332/332 338/338/338 193/193/193
f 19/19/19 18/18/18 193/193/193
f 18/18/18 19/19/19 16/16/16
f 16/16/16 17/17/17 18/18/18
f 18/18/18 17/17/17 331/331/331
f 331/331/331 332/332/332 18/18/18
f 338/338/338 332/332/332 331/331/331
f 331/331/331 339/339/339 338/338/338
f 340/340/340 341/341/341 338/338/338
f 535/535/535 536/536/536 537/537/537
f 258/258/258 259/259/259 260/260/260
f 213/213/213 214/214/214 215/215/215
f 490/490/490 491/491/491 492/492/492
f 9/9/9 8/8/8 300/300/300
