# cama_adult reconstructed from live game memory
v 0.58146 83.61067 -119.73203
v 0.12399 83.60104 -119.73621
v 0.12399 82.04840 -119.53271
v 0.44994 82.04840 -119.53271
v 3.60109 91.45920 -106.92366
v 2.72074 90.05185 -108.57399
v 2.91117 90.25799 -106.44754
v 4.31433 88.55162 -107.72735
v 4.76638 88.82877 -105.88689
v 4.33165 90.62509 -104.96452
v 1.90621 79.79839 -119.26637
v 1.73016 78.81125 -118.48351
v 3.03979 78.99518 -117.80349
v 3.08399 80.14065 -118.00186
v 6.44534 83.33410 -106.82433
v 6.82707 84.54002 -104.08817
v 5.75608 85.46304 -109.97517
v 5.77378 83.90625 -110.60907
v 4.64047 81.41940 -113.14949
v 4.10467 80.19637 -112.79563
v 5.14511 81.08327 -109.83598
v 5.77378 82.05373 -110.08801
v 1.47725 78.09713 -117.66260
v 0.00000 77.78682 -117.63605
v 0.00000 77.49045 -116.55927
v 2.22857 77.84375 -116.65914
v 3.22936 79.04108 -112.56166
v 0.00000 78.36975 -112.43358
v 0.00000 78.15012 -108.84966
v 3.92035 79.03912 -109.18061
v 2.56112 90.07346 -110.04527
v 3.08642 87.23101 -112.52831
v 1.82733 86.10301 -119.50930
v 3.68471 84.81466 -116.97341
v 1.79691 86.80038 -116.08954
v 5.22607 88.24853 -102.46135
v 3.79791 91.47655 -100.36198
v 3.67395 93.00468 -103.66276
v 2.81664 92.95568 -107.17296
v 1.81496 91.95777 -109.68956
v 2.79252 91.38744 -108.56121
v 2.62735 82.14716 -120.18722
v 3.55166 82.86545 -116.63924
v 2.32061 84.47055 -120.08543
v 4.90691 85.49340 -114.21886
v 14.97851 57.23249 27.84903
v 13.71054 62.05247 16.57361
v 16.97175 54.13686 16.04992
v -0.00001 65.71500 28.45843
v -0.00000 67.66249 16.83670
v -0.00000 37.90454 142.00696
v -0.00000 38.23887 154.22960
v 2.16768 40.17624 154.23212
v 3.63373 40.92099 142.01753
v -0.00000 44.20910 142.02631
v -0.00001 46.18772 119.97926
v 4.82718 41.66647 119.99568
v 5.19084 37.21812 64.53529
v 8.43351 43.16028 64.53885
v 9.12142 43.24149 51.36250
v 5.99046 36.58851 51.36034
v -0.00000 55.70284 51.27076
v -0.00000 61.44660 39.04131
v 11.39073 52.83150 38.58173
v 13.36443 40.20538 37.90871
v 12.27900 61.21082 0.12541
v 10.78213 59.24776 -7.82264
v 14.63800 48.49885 -8.03918
v 17.62356 51.54428 0.66637
v 9.78778 24.03412 2.28173
v 0.00000 17.57438 2.79027
v 0.00001 18.04108 14.58131
v 12.80818 26.06714 15.62199
v 19.66243 38.58855 1.72733
v 19.79255 39.94055 15.96646
v 9.49527 56.22005 -15.78834
v 15.92548 49.24006 -15.43671
v -0.00000 64.21864 -7.66259
v -0.00000 61.02745 -15.78525
v 11.44831 47.23964 -29.56829
v 8.55723 55.69729 -26.83619
v -0.00000 59.29874 -26.36972
v 5.82427 64.28186 -54.39523
v 4.85803 71.61134 -68.18973
v 6.33969 67.63940 -70.19122
v 7.59672 59.61347 -55.94239
v 4.99587 55.71088 -58.16101
v 4.06701 63.87544 -72.12926
v 0.00000 62.11239 -73.71269
v 0.00000 52.17699 -59.51428
v 6.94296 57.61080 -39.71202
v 9.46190 51.98896 -41.74361
v 0.00000 42.80659 -45.94421
v 7.60460 47.02529 -43.74060
v -0.00000 39.92859 161.56561
v -0.00000 42.10077 154.23824
v 20.98956 27.40114 31.44852
v 17.11430 29.10149 35.83117
v 13.36443 40.20538 37.90871
v 22.48680 40.45707 27.62261
v 12.16728 31.14187 37.18722
v 10.51435 25.26948 25.19132
v 8.81955 24.59781 25.54513
v 22.63049 27.45365 23.98315
v 19.83165 27.84765 17.09678
v 11.39073 52.83150 38.58173
v 8.81955 24.59781 25.54513
v 8.77653 31.60603 37.96268
v 12.16728 31.14187 37.18722
v 0.00001 20.18369 25.86164
v -0.00000 61.44660 39.04131
v 0.00000 42.80659 -45.94421
v 0.00000 31.43981 -33.93546
v 8.93213 35.88873 -32.32686
v 7.60460 47.02529 -43.74060
v 16.73677 39.69238 -8.34995
v 9.40030 24.90298 -10.91814
v 12.63444 0.00760 -15.11317
v 12.40444 3.07976 -15.00189
v 16.96175 3.13794 -16.68015
v 17.13721 0.00760 -16.79316
v 6.81273 0.00760 -17.93104
v 7.20793 3.06673 -17.04755
v 6.81273 0.00760 -17.93104
v 6.54676 0.00760 -23.49860
v 7.05748 3.14612 -23.19653
v 7.20793 3.06673 -17.04755
v 10.16361 0.00760 -27.67193
v 10.46663 3.17158 -27.42129
v 18.21572 3.15657 -22.12945
v 18.61938 0.00760 -22.78170
v 15.97816 5.83764 -16.87485
v 12.19262 5.71564 -15.05257
v 12.18290 7.94939 -15.22938
v 16.95152 8.48819 -17.01557
v 7.96102 5.68832 -16.58538
v 7.64608 8.46207 -16.90783
v 7.90364 5.85478 -23.06621
v 8.11922 9.54174 -22.48832
v 7.64608 8.46207 -16.90783
v 7.96102 5.68832 -16.58538
v 10.56393 5.90816 -25.79049
v 11.16136 9.84985 -24.63917
v 17.70539 9.37419 -20.67928
v 17.13557 5.87671 -21.59261
v 19.93619 28.20215 -14.96977
v 12.74309 26.25067 -11.04650
v 6.60845 23.74999 -16.63998
v 7.44631 27.49411 -26.07344
v 13.92334 30.08902 -26.92640
v 21.25236 41.31493 -18.40964
v 20.30298 29.03311 -21.11051
v 17.92487 15.98134 -14.97923
v 12.17317 15.02574 -13.22914
v 7.33113 15.65941 -15.97853
v 8.33479 17.69848 -21.91043
v 6.60845 23.74999 -16.63998
v 7.33113 15.65941 -15.97853
v 11.75879 18.26133 -23.48785
v 18.27520 17.34146 -19.76594
v 0.00001 19.25102 -16.40718
v 0.00001 24.32940 -26.71319
v 16.76381 9.24848 30.69951
v 19.55659 9.30285 29.31593
v 19.56076 5.56051 30.38872
v 15.29299 5.24921 32.51373
v 10.51451 5.36809 30.81123
v 10.72595 9.37170 29.66646
v 10.45493 6.14494 24.14374
v 10.39752 9.35890 23.16206
v 13.44103 6.46358 21.19681
v 11.73123 9.36988 21.66086
v 10.39752 9.35890 23.16206
v 10.45493 6.14494 24.14374
v 21.06378 9.38305 23.88780
v 19.61448 9.39318 21.89002
v 18.14610 6.49382 21.33051
v 21.10419 6.12330 25.16701
v 4.68178 81.40692 -110.04295
v 5.03920 82.51057 -107.04031
v 5.75169 84.74381 -108.36265
v 4.56021 84.88787 -110.88438
v 3.27950 80.18491 -115.02625
v 3.15824 81.08717 -115.50410
v 2.96553 80.91453 -116.14703
v 2.96767 79.83685 -116.40169
v 2.95659 79.89252 -116.20648
v 2.84679 80.83229 -116.49687
v 2.64669 80.71481 -116.93246
v 2.63032 79.73032 -116.85437
v 2.56792 79.67654 -116.92938
v 2.43368 80.63171 -117.19886
v 2.21712 80.52769 -117.58202
v 2.19997 79.59808 -117.60454
v 2.18427 79.45849 -117.55025
v 2.01612 80.43837 -117.86275
v 1.75958 80.34261 -118.18624
v 1.74077 79.47740 -118.25587
v 1.64532 79.40823 -118.21157
v 1.43073 80.26214 -118.42696
v 1.12743 80.21549 -118.62416
v 1.09758 79.24828 -118.56214
v 1.09758 79.24828 -118.56214
v 0.93079 80.18150 -118.70685
v 0.54658 80.16790 -118.75759
v 0.43834 79.21062 -118.69459
v 3.47622 84.11077 -116.02377
v 3.14650 83.96600 -116.76182
v 3.16226 82.63493 -116.37514
v 3.35496 82.72523 -115.86134
v 3.26874 83.85192 -116.53246
v 2.92454 83.88534 -117.59053
v 2.94091 82.49825 -117.15443
v 3.14101 82.59763 -116.58931
v 2.99690 83.80372 -117.32291
v 2.59682 83.66310 -118.17209
v 2.69957 82.37225 -117.86736
v 2.91369 82.45650 -117.39112
v 2.59682 83.66310 -118.17209
v 2.15860 83.70940 -118.77504
v 2.26659 82.23066 -118.64854
v 2.50019 82.30721 -118.20823
v 2.17770 83.48297 -118.88166
v 1.69732 83.56770 -119.42641
v 1.72713 82.12582 -119.17671
v 2.00901 82.17446 -118.86644
v 1.62171 83.23229 -119.33809
v 1.13777 83.59759 -119.83225
v 1.21650 82.05545 -119.49298
v 1.48413 82.09384 -119.27042
v 1.28033 83.27741 -119.52679
v 0.58146 83.61067 -119.73203
v 0.60657 82.05073 -119.52133
v 1.03394 82.06099 -119.46297
v 7.26159 83.55846 -99.95824
v 4.84834 88.04916 -97.39647
v 4.90030 79.90216 -106.41766
v 0.00000 78.60483 -105.96786
v -0.00000 77.92358 -101.23169
v 5.67766 79.74336 -101.20721
v 2.95670 91.55254 -106.92764
v 2.71159 89.98624 -108.45442
v 3.67153 90.28793 -106.71539
v 3.20286 88.36436 -107.82227
v 4.05509 88.76088 -105.72804
v 3.89085 90.47423 -105.02718
v 0.00001 19.25102 -16.40718
v 0.00001 18.27887 -10.83390
v 8.77653 31.60603 37.96268
v 14.87020 5.91604 -25.69272
v 15.02890 3.15224 -27.36630
v 14.53079 18.30060 -23.38554
v 15.70411 38.98494 -29.23490
v 0.40043 80.16822 -118.75034
v 0.05409 80.16822 -118.75034
v 0.05409 79.20564 -118.68958
v 0.43834 79.21062 -118.69459
v 6.94296 57.61080 -39.71202
v -0.00000 60.86488 -38.63707
v -0.00000 66.92107 -53.44495
v 2.01233 37.98815 119.98625
v -0.00000 37.35796 119.94242
v 0.00000 27.87336 37.76366
v 0.00001 20.18369 25.86164
v -0.00000 66.66032 -0.26267
v 3.88192 80.84588 -115.33987
v 3.52755 79.64751 -115.17005
v 4.59807 83.33559 -113.79518
v 14.70050 9.87342 -24.53913
v -0.00000 89.02486 -115.40113
v 1.21448 87.79678 -113.77007
v 1.32201 90.07764 -111.50103
v -0.00000 90.86526 -114.54843
v -0.00000 92.67374 -113.03248
v 0.00000 79.74773 -119.39782
v 0.00000 78.67937 -118.62053
v -0.00000 93.05905 -99.68735
v -0.00000 94.55826 -103.30515
v 19.53558 18.94825 27.63267
v 15.86025 18.91235 29.36741
v 11.44023 19.24132 27.78074
v 10.18600 19.02263 21.91202
v 11.44023 19.24132 27.78074
v 18.06658 19.00946 16.80243
v 20.91139 19.00307 21.54809
v -0.00000 90.13953 -95.97991
v 4.63343 84.00732 -90.92950
v 6.24574 80.66065 -92.93957
v 6.09741 74.24482 -81.78813
v 4.56000 77.54932 -79.70178
v 4.29634 71.19455 -84.05647
v 4.83473 77.43510 -94.96869
v -0.00000 76.02156 -95.83868
v -0.00000 69.39038 -85.20380
v 0.00000 73.86028 -67.22658
v -0.00000 79.51951 -78.41103
v -0.00000 94.84618 -107.17900
v -0.00000 94.25953 -110.40530
v 2.75036 78.06147 -114.81702
v 0.00000 34.31302 51.17418
v 0.00000 27.87336 37.76366
v 0.00000 84.62878 -120.93639
v 0.00000 82.11597 -120.94579
v -0.00000 87.63882 -116.43533
v -0.00000 86.47482 -119.98158
v 0.00000 77.64516 -114.70728
v 3.59278 80.24555 -113.81689
v 3.45158 81.38663 -114.48883
v 3.22717 81.20314 -115.16617
v 3.22966 79.92934 -115.29287
v 3.96211 80.55759 -112.73602
v 3.82090 81.71251 -113.35636
v 3.59650 81.51517 -114.08533
v 3.59899 80.26842 -114.11121
v 4.24232 80.97035 -111.12781
v 4.10112 82.06104 -111.98794
v 3.87671 81.79850 -112.96020
v 3.87920 80.50910 -113.14522
v 3.77096 84.02325 -114.81789
v 3.44124 84.10804 -116.17534
v 3.45700 82.76482 -115.63605
v 3.64970 82.90786 -114.82159
v 4.17263 84.19918 -113.82016
v 3.84291 84.27496 -115.22863
v 3.85867 82.95808 -114.54003
v 4.05137 83.10332 -113.71306
v 4.52011 84.69118 -112.20374
v 4.19039 84.39291 -114.03041
v 4.20614 83.14380 -113.48679
v 4.39885 83.31960 -112.48663
v -0.00000 60.86488 -38.63707
v 9.46190 51.98896 -41.74361
v 4.64432 81.36962 -109.55949
v 4.50312 82.38470 -110.70170
v 4.27871 82.17057 -111.49340
v 4.28120 80.86238 -111.74841
v 4.92211 84.77658 -110.54552
v 4.59239 84.67201 -112.97684
v 4.60814 83.37519 -112.17447
v 4.80085 83.55309 -111.16232
v 5.77378 83.90625 -110.60907
v -0.00000 84.34595 -110.68661
v -0.00000 83.33405 -106.82327
v 6.44534 83.33410 -106.82433
v 4.64047 81.41940 -113.14949
v 5.77378 82.05373 -110.08801
v -0.00000 81.77689 -110.01384
v -0.00000 81.18414 -113.08645
v 2.62735 82.14716 -120.18722
v 0.00000 82.11597 -120.94579
v 0.00000 83.13589 -116.68692
v 3.55166 82.86545 -116.63924
v 3.88192 80.84588 -115.33987
v -0.00000 80.65977 -115.29001
v -0.00000 83.68573 -113.85692
v 4.59807 83.33559 -113.79518
v 0.00000 79.74773 -119.39782
v 3.08399 80.14065 -118.00186
v 6.44534 83.33410 -106.82433
v -0.00000 83.33405 -106.82327
v 1.90621 79.79839 -119.26637
v -0.00000 85.78651 -89.75327
v -0.00000 47.88481 98.86978
v 0.54727 50.23806 80.61514
v 7.41342 43.25256 80.67700
v 6.00792 42.08191 98.91136
v 3.16330 37.63358 98.90430
v 4.39121 37.90936 80.67227
v -0.00001 36.55939 80.53355
v -0.00000 36.65261 98.81303
v 15.45248 0.00757 -27.65740
v 15.09813 26.81631 15.95952
v 13.94073 19.01415 16.23024
v 15.83334 0.00294 32.72326
v 15.56753 3.08130 32.87206
v 20.85692 3.14679 30.92204
v 21.05941 0.00091 30.77125
v 9.07437 0.00516 29.45476
v 9.53459 3.06820 30.49967
v 8.76329 0.00483 22.99210
v 9.35739 3.15993 23.34231
v 8.76329 0.00483 22.99210
v 12.95993 0.00297 18.14621
v 13.31294 3.18771 18.43679
v 9.35739 3.15993 23.34231
v 22.31023 3.16746 24.57626
v 22.77737 -0.00019 23.81917
v 18.60879 3.16335 18.49871
v 19.09921 0.00072 18.16084
v -0.00000 52.13826 64.59560
v -0.00000 35.53181 64.37285
v -0.00001 49.75782 80.61939
v -0.00000 52.13826 64.59560
v 10.18600 19.02263 21.91202
v -0.58146 83.61067 -119.73203
v -0.44994 82.04840 -119.53271
v -0.12399 82.04840 -119.53271
v -0.12399 83.60104 -119.73621
v -3.60109 91.45920 -106.92366
v -2.91118 90.25799 -106.44754
v -2.72074 90.05185 -108.57399
v -4.31433 88.55162 -107.72735
v -4.76638 88.82877 -105.88689
v -4.33165 90.62509 -104.96452
v -1.90621 79.79838 -119.26637
v -3.08399 80.14064 -118.00186
v -3.03979 78.99517 -117.80349
v -1.73016 78.81124 -118.48351
v -6.44534 83.33409 -106.82433
v -5.77378 83.90625 -110.60907
v -5.75608 85.46304 -109.97517
v -6.82707 84.54002 -104.08817
v -4.64047 81.41939 -113.14949
v -5.77378 82.05372 -110.08801
v -5.14511 81.08327 -109.83598
v -4.10467 80.19637 -112.79563
v -1.47725 78.09712 -117.66260
v -2.22856 77.84374 -116.65914
v -3.22936 79.04108 -112.56166
v -3.92035 79.03912 -109.18061
v -3.08642 87.23101 -112.52831
v -2.56112 90.07346 -110.04527
v -1.82733 86.10301 -119.50930
v -1.79691 86.80038 -116.08954
v -3.68471 84.81466 -116.97341
v -5.22607 88.24853 -102.46135
v -3.67395 93.00468 -103.66276
v -3.79791 91.47655 -100.36198
v -2.81664 92.95568 -107.17296
v -2.79252 91.38744 -108.56121
v -1.81496 91.95777 -109.68956
v -2.62735 82.14716 -120.18722
v -2.32061 84.47055 -120.08543
v -3.55166 82.86545 -116.63924
v -4.90691 85.49340 -114.21886
v -14.98017 57.23229 27.84996
v -16.97504 54.13703 16.05103
v -13.71054 62.05247 16.57361
v -3.63374 40.92099 142.01753
v -2.16768 40.17624 154.23212
v -4.82719 41.66647 119.99568
v -5.19084 37.21812 64.53529
v -5.99047 36.58851 51.36034
v -9.12142 43.24149 51.36250
v -8.43351 43.16028 64.53885
v -11.38995 52.83120 38.58180
v -13.35980 40.20435 37.90820
v -12.27900 61.21082 0.12541
v -17.62356 51.54427 0.66637
v -14.63746 48.49882 -8.03903
v -10.78214 59.24776 -7.82264
v -9.78777 24.03412 2.28173
v -12.80758 26.06861 15.61979
v -19.66243 38.58854 1.72733
v -19.79546 39.94016 15.96815
v -15.92537 49.24003 -15.43648
v -9.49527 56.22004 -15.78834
v -11.44900 47.23964 -29.56832
v -8.55723 55.69728 -26.83619
v -5.82427 64.28186 -54.39523
v -7.59672 59.61347 -55.94239
v -6.33969 67.63940 -70.19122
v -4.85803 71.61134 -68.18973
v -4.99587 55.71088 -58.16101
v -4.06701 63.87544 -72.12926
v -9.46189 51.98895 -41.74361
v -6.94296 57.61079 -39.71202
v -7.60460 47.02529 -43.74060
v -20.97809 27.39647 31.45008
v -22.48480 40.45243 27.62797
v -13.35980 40.20435 37.90820
v -17.10069 29.09791 35.83040
v -12.16053 31.14123 37.18533
v -8.81954 24.59781 25.54513
v -10.51023 25.27054 25.18824
v -22.62423 27.44970 23.98586
v -19.83038 27.84662 17.09763
v -11.38995 52.83120 38.58180
v -8.81954 24.59781 25.54513
v -12.16053 31.14123 37.18533
v -8.77653 31.60602 37.96268
v -7.60460 47.02529 -43.74060
v -8.93412 35.88876 -32.32729
v -16.73536 39.69230 -8.34927
v -9.39907 24.90300 -10.91851
v -12.63443 0.00759 -15.11316
v -17.13721 0.00759 -16.79315
v -16.96174 3.13793 -16.68014
v -12.40443 3.07974 -15.00188
v -7.20792 3.06672 -17.04754
v -6.81273 0.00759 -17.93103
v -6.81273 0.00759 -17.93103
v -7.20792 3.06672 -17.04754
v -7.05747 3.14611 -23.19652
v -6.54676 0.00759 -23.49859
v -10.46663 3.17157 -27.42129
v -10.16360 0.00759 -27.67192
v -18.61937 0.00759 -22.78170
v -18.21572 3.15656 -22.12944
v -15.97816 5.83763 -16.87484
v -16.95094 8.48812 -17.01470
v -12.18200 7.94938 -15.22934
v -12.19261 5.71563 -15.05256
v -7.96102 5.68831 -16.58537
v -7.64548 8.46211 -16.90856
v -7.90363 5.85477 -23.06620
v -7.96102 5.68831 -16.58537
v -7.64548 8.46211 -16.90856
v -8.11959 9.54177 -22.48897
v -10.56392 5.90815 -25.79048
v -11.16210 9.84985 -24.63930
v -17.13557 5.87670 -21.59260
v -17.70545 9.37411 -20.67828
v -19.93500 28.20194 -14.96747
v -12.74072 26.25064 -11.04627
v -6.60844 23.74998 -16.63998
v -7.44730 27.49416 -26.07409
v -13.92563 30.08896 -26.92584
v -20.30358 29.03290 -21.10810
v -21.25248 41.31469 -18.40696
v -12.17102 15.02573 -13.22906
v -17.92329 15.98119 -14.97734
v -7.32986 15.65951 -15.97998
v -8.33544 17.69856 -21.91156
v -7.32986 15.65951 -15.97998
v -6.60844 23.74998 -16.63998
v -11.75995 18.26133 -23.48791
v -18.27516 17.34129 -19.76394
v -16.74279 9.24958 30.69484
v -15.27331 5.25318 32.51000
v -19.54303 5.56757 30.38936
v -19.53678 9.30437 29.31370
v -10.49653 5.36663 30.80240
v -10.70581 9.37132 29.65649
v -10.44325 6.14020 24.13447
v -10.38308 9.35756 23.15181
v -13.43216 6.46029 21.19055
v -10.44325 6.14020 24.13447
v -10.38308 9.35756 23.15181
v -11.71810 9.36863 21.65177
v -21.04869 9.38418 23.88688
v -21.09144 6.12932 25.16901
v -18.13706 6.49513 21.32921
v -19.60114 9.39371 21.88784
v -4.68179 81.40691 -110.04295
v -4.56021 84.88787 -110.88438
v -5.75169 84.74381 -108.36265
v -5.03920 82.51056 -107.04031
v -3.27950 80.18490 -115.02625
v -2.96767 79.83684 -116.40169
v -2.96553 80.91452 -116.14703
v -3.15824 81.08716 -115.50410
v -2.95659 79.89252 -116.20648
v -2.63032 79.73031 -116.85437
v -2.64669 80.71480 -116.93246
v -2.84679 80.83228 -116.49687
v -2.56792 79.67653 -116.92938
v -2.19997 79.59807 -117.60454
v -2.21712 80.52769 -117.58202
v -2.43368 80.63171 -117.19886
v -2.18427 79.45848 -117.55025
v -1.74077 79.47739 -118.25587
v -1.75958 80.34260 -118.18624
v -2.01612 80.43836 -117.86275
v -1.64532 79.40822 -118.21157
v -1.09758 79.24828 -118.56214
v -1.12743 80.21548 -118.62416
v -1.43073 80.26213 -118.42696
v -1.09758 79.24828 -118.56214
v -0.43834 79.21062 -118.69459
v -0.54658 80.16790 -118.75759
v -0.93079 80.18150 -118.70685
v -3.47622 84.11077 -116.02377
v -3.35496 82.72523 -115.86134
v -3.16226 82.63493 -116.37514
v -3.14650 83.96600 -116.76182
v -3.26874 83.85192 -116.53246
v -3.14101 82.59763 -116.58931
v -2.94091 82.49825 -117.15443
v -2.92454 83.88534 -117.59053
v -2.99690 83.80372 -117.32291
v -2.91369 82.45650 -117.39112
v -2.69957 82.37225 -117.86736
v -2.59682 83.66310 -118.17209
v -2.59682 83.66310 -118.17209
v -2.50019 82.30721 -118.20823
v -2.26659 82.23066 -118.64854
v -2.15860 83.70940 -118.77504
v -2.17770 83.48297 -118.88166
v -2.00901 82.17446 -118.86644
v -1.72713 82.12582 -119.17671
v -1.69732 83.56770 -119.42641
v -1.62171 83.23229 -119.33809
v -1.48413 82.09384 -119.27042
v -1.21650 82.05545 -119.49298
v -1.13777 83.59759 -119.83225
v -1.28033 83.27741 -119.52679
v -1.03394 82.06099 -119.46297
v -0.60657 82.05073 -119.52133
v -0.58146 83.61067 -119.73203
v -7.26159 83.55846 -99.95824
v -4.84834 88.04916 -97.39647
v -4.90030 79.90216 -106.41766
v -5.67766 79.74336 -101.20721
v -2.95671 91.55254 -106.92764
v -3.67153 90.28793 -106.71539
v -2.71160 89.98624 -108.45442
v -3.20286 88.36436 -107.82227
v -4.05510 88.76088 -105.72804
v -3.89086 90.47423 -105.02718
v -8.77653 31.60602 37.96268
v -14.87020 5.91603 -25.69272
v -15.02889 3.15223 -27.36629
v -14.53192 18.30053 -23.38473
v -15.70729 38.98484 -29.23382
v -0.40043 80.16822 -118.75034
v -0.43834 79.21062 -118.69459
v -0.05409 79.20564 -118.68958
v -0.05409 80.16822 -118.75034
v -6.94296 57.61079 -39.71202
v -2.01234 37.98815 119.98625
v -3.52755 79.64751 -115.17005
v -3.88192 80.84587 -115.33987
v -4.59807 83.33559 -113.79518
v -14.70123 9.87338 -24.53866
v -1.32202 90.07764 -111.50103
v -1.21448 87.79678 -113.77007
v -19.52235 18.94514 27.63142
v -15.84580 18.91079 29.36361
v -11.42705 19.24241 27.77395
v -10.17677 19.02562 21.90431
v -11.42705 19.24241 27.77395
v -20.90241 19.00053 21.54782
v -18.06089 19.00941 16.80018
v -4.63344 84.00732 -90.92950
v -4.56000 77.54932 -79.70178
v -6.09741 74.24482 -81.78813
v -6.24575 80.66065 -92.93957
v -4.29634 71.19455 -84.05647
v -4.83473 77.43510 -94.96869
v -2.75035 78.06146 -114.81702
v -3.59278 80.24554 -113.81689
v -3.22966 79.92934 -115.29287
v -3.22717 81.20313 -115.16617
v -3.45158 81.38663 -114.48883
v -3.96211 80.55759 -112.73602
v -3.59899 80.26842 -114.11121
v -3.59650 81.51516 -114.08533
v -3.82091 81.71250 -113.35636
v -4.24232 80.97034 -111.12781
v -3.87920 80.50909 -113.14522
v -3.87671 81.79849 -112.96020
v -4.10112 82.06104 -111.98794
v -3.77096 84.02325 -114.81789
v -3.64970 82.90786 -114.82159
v -3.45700 82.76482 -115.63605
v -3.44124 84.10804 -116.17534
v -4.17263 84.19918 -113.82016
v -4.05137 83.10332 -113.71306
v -3.85867 82.95808 -114.54003
v -3.84291 84.27496 -115.22863
v -4.52011 84.69118 -112.20374
v -4.39885 83.31960 -112.48663
v -4.20614 83.14380 -113.48679
v -4.19039 84.39291 -114.03041
v -9.46189 51.98895 -41.74361
v -4.64432 81.36961 -109.55949
v -4.28120 80.86237 -111.74841
v -4.27871 82.17056 -111.49340
v -4.50312 82.38470 -110.70170
v -4.92211 84.77658 -110.54552
v -4.80085 83.55309 -111.16232
v -4.60814 83.37519 -112.17447
v -4.59239 84.67201 -112.97684
v -5.77378 83.90625 -110.60907
v -6.44534 83.33409 -106.82433
v -4.64047 81.41939 -113.14949
v -5.77378 82.05372 -110.08801
v -2.62735 82.14716 -120.18722
v -3.55166 82.86545 -116.63924
v -3.88192 80.84587 -115.33987
v -4.59807 83.33559 -113.79518
v -3.08399 80.14064 -118.00186
v -6.44534 83.33409 -106.82433
v -1.90621 79.79838 -119.26637
v -6.00793 42.08191 98.91136
v -7.41343 43.25256 80.67700
v -0.54729 50.23806 80.61514
v -3.16330 37.63358 98.90430
v -4.39122 37.90936 80.67227
v -15.45248 0.00756 -27.65740
v -15.09710 26.81799 15.95687
v -13.93544 19.01638 16.22513
v -15.81850 0.00754 32.72265
v -21.04663 0.00961 30.77617
v -20.84095 3.15536 30.92521
v -15.54956 3.08571 32.86968
v -9.51916 3.06564 30.49092
v -9.06299 0.00166 29.44700
v -9.34943 3.15373 23.33333
v -8.75875 -0.00211 22.98402
v -8.75875 -0.00211 22.98402
v -9.34943 3.15373 23.33333
v -13.31014 3.18295 18.43199
v -12.96052 -0.00226 18.14257
v -22.77195 0.00680 23.82591
v -22.30095 3.17436 24.58097
v -18.60595 3.16373 18.49952
v -19.09978 0.00142 18.16369
v -10.17677 19.02562 21.90431
vt 0.609976 0.283731
vt 0.562183 0.275304
vt 0.581138 0.190123
vt 0.628931 0.198550
vt 0.796137 0.908837
vt 0.813637 0.888647
vt 0.789947 0.897692
vt 0.793367 0.873694
vt 0.763322 0.879500
vt 0.763858 0.902910
vt 0.930113 0.706563
vt 0.915641 0.693501
vt 0.898606 0.712361
vt 0.910081 0.723341
vt 0.721061 0.808949
vt 0.703567 0.854432
vt 0.795689 0.819216
vt 0.783501 0.787281
vt 0.830226 0.771339
vt 0.818405 0.752921
vt 0.773235 0.769523
vt 0.783501 0.787281
vt 0.900320 0.685929
vt 0.901743 0.663643
vt 0.877508 0.664679
vt 0.879682 0.690812
vt 0.804321 0.724461
vt 0.788375 0.678836
vt 0.737241 0.696553
vt 0.760276 0.747398
vt 0.843182 0.883848
vt 0.861046 0.859988
vt 0.956077 0.798987
vt 0.899230 0.784935
vt 0.925988 0.831797
vt 0.713470 0.900720
vt 0.740892 0.942680
vt 0.769586 0.939386
vt 0.815313 0.934792
vt 0.851931 0.921726
vt 0.827346 0.906266
vt 0.939996 0.747296
vt 0.886705 0.759449
vt 0.951481 0.777006
vt 0.839931 0.804110
vt 0.605864 0.643269
vt 0.525158 0.646582
vt 0.534424 0.576597
vt 0.567723 0.731880
vt 0.511872 0.726497
vt 0.208573 0.017992
vt 0.084401 0.010660
vt 0.080366 0.046774
vt 0.204074 0.067779
vt 0.203912 0.096685
vt 0.345742 0.125854
vt 0.351237 0.086024
vt 0.780725 0.053257
vt 0.755034 0.114405
vt 0.869612 0.120098
vt 0.897902 0.050306
vt 0.841218 0.229160
vt 0.937512 0.249752
vt 0.951107 0.175660
vt 0.957241 0.105239
vt 0.423692 0.635883
vt 0.313794 0.619140
vt 0.325631 0.548937
vt 0.438095 0.559307
vt 0.481822 0.375294
vt 0.496703 0.278911
vt 0.594566 0.304941
vt 0.569382 0.391727
vt 0.454065 0.484599
vt 0.559051 0.516472
vt 0.234736 0.611547
vt 0.235808 0.537481
vt 0.307113 0.707468
vt 0.224327 0.697408
vt 0.157558 0.523249
vt 0.172144 0.593571
vt 0.160956 0.661781
vt 0.181015 0.923939
vt 0.353734 0.927361
vt 0.340168 0.865979
vt 0.172880 0.861216
vt 0.170902 0.786768
vt 0.328449 0.805749
vt 0.328822 0.762274
vt 0.179027 0.727363
vt 0.089419 0.597495
vt 0.091114 0.552413
vt 0.031426 0.701493
vt 0.056079 0.777762
vt 0.016854 0.036736
vt 0.075060 0.072672
vt 0.755628 0.509102
vt 0.787925 0.525358
vt 0.764337 0.634271
vt 0.684842 0.578544
vt 0.634010 0.377921
vt 0.615273 0.437969
vt 0.619972 0.380963
vt 0.721446 0.491895
vt 0.675037 0.472494
vt 0.689076 0.672948
vt 0.900349 0.529380
vt 0.832732 0.633138
vt 0.838270 0.525557
vt 0.645976 0.323119
vt 0.643443 0.732485
vt 0.015465 0.468441
vt 0.019190 0.421103
vt 0.107613 0.443733
vt 0.068266 0.505764
vt 0.334868 0.467842
vt 0.403958 0.364865
vt 0.359528 0.132151
vt 0.352737 0.158788
vt 0.311894 0.154348
vt 0.322018 0.126877
vt 0.414113 0.144180
vt 0.401476 0.168539
vt 0.100484 0.107163
vt 0.147519 0.103538
vt 0.149007 0.135347
vt 0.103227 0.134610
vt 0.191697 0.106766
vt 0.191891 0.138096
vt 0.272001 0.150442
vt 0.274590 0.119415
vt 0.310123 0.183814
vt 0.347760 0.183314
vt 0.343581 0.242322
vt 0.304451 0.246241
vt 0.387720 0.184888
vt 0.381998 0.237571
vt 0.151216 0.166652
vt 0.144156 0.230938
vt 0.093371 0.216717
vt 0.099249 0.158486
vt 0.185523 0.172547
vt 0.179120 0.237261
vt 0.258866 0.245239
vt 0.267854 0.182322
vt 0.294411 0.379582
vt 0.344208 0.382652
vt 0.376417 0.313344
vt 0.105650 0.365693
vt 0.176057 0.389228
vt 0.239498 0.471283
vt 0.244592 0.383484
vt 0.298779 0.308668
vt 0.339403 0.301330
vt 0.376275 0.290254
vt 0.137096 0.295223
vt 0.077517 0.298005
vt 0.087492 0.274949
vt 0.172717 0.301976
vt 0.249877 0.308157
vt 0.018662 0.297900
vt 0.020929 0.358924
vt 0.821771 0.406224
vt 0.791790 0.397416
vt 0.803225 0.355384
vt 0.836357 0.364560
vt 0.878305 0.366520
vt 0.856941 0.412654
vt 0.922002 0.386387
vt 0.904974 0.421212
vt 0.701336 0.324308
vt 0.686092 0.361063
vt 0.656148 0.348190
vt 0.669470 0.312926
vt 0.752999 0.385936
vt 0.716827 0.373566
vt 0.732629 0.334643
vt 0.765683 0.345577
vt 0.935835 0.405777
vt 0.977596 0.412946
vt 0.986645 0.467380
vt 0.913669 0.464048
vt 0.622426 0.289791
vt 0.625945 0.203745
vt 0.579302 0.192370
vt 0.541520 0.269540
vt 0.622232 0.290815
vt 0.625987 0.203816
vt 0.579895 0.193396
vt 0.541037 0.269945
vt 0.622436 0.290754
vt 0.625824 0.204000
vt 0.579696 0.193621
vt 0.541391 0.269964
vt 0.622247 0.290873
vt 0.625719 0.203779
vt 0.579729 0.193070
vt 0.540376 0.269805
vt 0.622590 0.290537
vt 0.625997 0.204011
vt 0.579742 0.193408
vt 0.541476 0.269840
vt 0.622107 0.290390
vt 0.625788 0.203827
vt 0.579743 0.193471
vt 0.541685 0.269630
vt 0.541533 0.269888
vt 0.622272 0.290678
vt 0.625799 0.204047
vt 0.579780 0.193632
vt 0.541301 0.269913
vt 0.622027 0.290888
vt 0.625791 0.204011
vt 0.579761 0.193656
vt 0.541171 0.270069
vt 0.622487 0.290997
vt 0.625962 0.203788
vt 0.579808 0.193426
vt 0.541376 0.269943
vt 0.622185 0.290898
vt 0.625857 0.203626
vt 0.579858 0.193218
vt 0.541586 0.269887
vt 0.622584 0.290867
vt 0.625985 0.203542
vt 0.579828 0.193237
vt 0.541435 0.269720
vt 0.622293 0.290773
vt 0.625984 0.203610
vt 0.579827 0.193336
vt 0.541649 0.269804
vt 0.622055 0.290875
vt 0.625930 0.203696
vt 0.579812 0.193423
vt 0.663164 0.865211
vt 0.665111 0.934120
vt 0.702039 0.779582
vt 0.671312 0.725067
vt 0.622800 0.750269
vt 0.652730 0.801027
vt 0.456006 0.259374
vt 0.526979 0.233965
vt 0.466260 0.217643
vt 0.521489 0.181146
vt 0.452032 0.170345
vt 0.416581 0.201813
vt 0.390210 0.274374
vt 0.415518 0.270263
vt 0.979213 0.051230
vt 0.224446 0.178137
vt 0.224932 0.142227
vt 0.204189 0.305818
vt 0.169531 0.452702
vt 0.581861 0.192806
vt 0.626900 0.204047
vt 0.621407 0.289811
vt 0.540384 0.270150
vt 0.036102 0.950782
vt 0.057517 0.990211
vt 0.225638 0.976480
vt 0.359588 0.039915
vt 0.364112 0.010442
vt 0.937762 0.632458
vt 0.955194 0.524897
vt 0.402631 0.720146
vt 0.871977 0.744832
vt 0.861794 0.731409
vt 0.830226 0.771339
vt 0.214317 0.241978
vt 0.948029 0.891808
vt 0.898830 0.872129
vt 0.871188 0.893423
vt 0.934438 0.917101
vt 0.907528 0.945998
vt 0.943884 0.682613
vt 0.925628 0.671965
vt 0.747770 0.987070
vt 0.789856 0.985497
vt 0.780355 0.439448
vt 0.807185 0.447889
vt 0.835576 0.458789
vt 0.642826 0.383454
vt 0.644246 0.366779
vt 0.701024 0.412488
vt 0.740314 0.426295
vt 0.667196 0.990129
vt 0.587597 0.931426
vt 0.587526 0.867136
vt 0.471599 0.867621
vt 0.469793 0.927294
vt 0.459301 0.812026
vt 0.576160 0.807246
vt 0.555349 0.756100
vt 0.447608 0.760491
vt 0.366563 0.977179
vt 0.472942 0.979916
vt 0.839152 0.975611
vt 0.878571 0.965543
vt 0.847492 0.707939
vt 0.913837 0.010868
vt 0.975842 0.013081
vt 0.995925 0.783557
vt 0.984598 0.751194
vt 0.944671 0.862516
vt 0.987315 0.811393
vt 0.838963 0.669427
vt 0.622305 0.291046
vt 0.625705 0.203981
vt 0.579687 0.193242
vt 0.540420 0.269903
vt 0.622305 0.291046
vt 0.625705 0.203981
vt 0.579687 0.193242
vt 0.540420 0.269903
vt 0.622305 0.291046
vt 0.625705 0.203981
vt 0.579687 0.193242
vt 0.540420 0.269903
vt 0.541533 0.269888
vt 0.622272 0.290678
vt 0.625799 0.204047
vt 0.579780 0.193632
vt 0.541533 0.269888
vt 0.622272 0.290678
vt 0.625799 0.204047
vt 0.579780 0.193632
vt 0.541533 0.269888
vt 0.622272 0.290678
vt 0.625799 0.204047
vt 0.579780 0.193632
vt 0.080587 0.649403
vt 0.029572 0.880436
vt 0.622305 0.291046
vt 0.625705 0.203981
vt 0.579687 0.193242
vt 0.540420 0.269903
vt 0.541533 0.269888
vt 0.622272 0.290678
vt 0.625799 0.204047
vt 0.579780 0.193632
vt 0.059570 0.614712
vt 0.016847 0.612872
vt 0.016773 0.661689
vt 0.062808 0.666419
vt 0.054789 0.583861
vt 0.059730 0.614603
vt 0.016816 0.613197
vt 0.016839 0.582669
vt 0.046722 0.517902
vt 0.016873 0.496963
vt 0.016860 0.550310
vt 0.051024 0.550515
vt 0.051517 0.552550
vt 0.016860 0.551610
vt 0.016854 0.586276
vt 0.054780 0.586538
vt 0.016889 0.498650
vt 0.047447 0.525502
vt 0.062526 0.664788
vt 0.016760 0.662000
vt 0.046606 0.516812
vt 0.590213 0.985742
vt 0.466882 0.147717
vt 0.601475 0.170062
vt 0.614999 0.107605
vt 0.481032 0.096960
vt 0.496711 0.048422
vt 0.632557 0.047353
vt 0.639522 0.008654
vt 0.510204 0.009199
vt 0.231478 0.111797
vt 0.616551 0.459309
vt 0.670849 0.397818
vt 0.888076 0.267750
vt 0.872363 0.301829
vt 0.832270 0.285335
vt 0.848649 0.250323
vt 0.941890 0.297298
vt 0.920639 0.322377
vt 0.988468 0.325443
vt 0.965159 0.349565
vt 0.637686 0.259406
vt 0.691359 0.226809
vt 0.695414 0.260790
vt 0.660036 0.282835
vt 0.790179 0.273121
vt 0.802600 0.231244
vt 0.741508 0.262977
vt 0.739744 0.220851
vt 0.725774 0.195184
vt 0.796603 0.016402
vt 0.602405 0.165769
vt 0.725782 0.195162
vt 0.887945 0.456036
vt 0.609976 0.283731
vt 0.628931 0.198550
vt 0.581138 0.190123
vt 0.562183 0.275304
vt 0.796137 0.908837
vt 0.789947 0.897692
vt 0.813637 0.888647
vt 0.793367 0.873694
vt 0.763322 0.879500
vt 0.763858 0.902910
vt 0.930113 0.706563
vt 0.910081 0.723341
vt 0.898606 0.712361
vt 0.915641 0.693501
vt 0.721061 0.808949
vt 0.783501 0.787281
vt 0.795689 0.819216
vt 0.703567 0.854432
vt 0.830226 0.771339
vt 0.783501 0.787281
vt 0.773235 0.769523
vt 0.818405 0.752921
vt 0.900320 0.685929
vt 0.879682 0.690812
vt 0.804321 0.724461
vt 0.760276 0.747398
vt 0.861046 0.859988
vt 0.843182 0.883848
vt 0.956077 0.798987
vt 0.925988 0.831797
vt 0.899230 0.784935
vt 0.713470 0.900720
vt 0.769586 0.939386
vt 0.740892 0.942680
vt 0.815313 0.934792
vt 0.827346 0.906266
vt 0.851931 0.921726
vt 0.939996 0.747296
vt 0.951481 0.777006
vt 0.886705 0.759449
vt 0.839931 0.804110
vt 0.605864 0.643269
vt 0.534424 0.576597
vt 0.525158 0.646582
vt 0.204074 0.067779
vt 0.080366 0.046774
vt 0.351237 0.086024
vt 0.780725 0.053257
vt 0.897902 0.050306
vt 0.869612 0.120098
vt 0.755034 0.114405
vt 0.951107 0.175660
vt 0.957241 0.105239
vt 0.423692 0.635883
vt 0.438095 0.559307
vt 0.325631 0.548937
vt 0.313794 0.619140
vt 0.481822 0.375294
vt 0.569382 0.391727
vt 0.454065 0.484599
vt 0.559051 0.516472
vt 0.235808 0.537481
vt 0.234736 0.611547
vt 0.157558 0.523249
vt 0.172144 0.593571
vt 0.181015 0.923939
vt 0.172880 0.861216
vt 0.340168 0.865979
vt 0.353734 0.927361
vt 0.170902 0.786768
vt 0.328449 0.805749
vt 0.091114 0.552413
vt 0.089419 0.597495
vt 0.056079 0.777762
vt 0.755628 0.509102
vt 0.684842 0.578544
vt 0.764337 0.634271
vt 0.787925 0.525358
vt 0.634010 0.377921
vt 0.619972 0.380963
vt 0.615273 0.437969
vt 0.721446 0.491895
vt 0.675037 0.472494
vt 0.689076 0.672948
vt 0.900349 0.529380
vt 0.838270 0.525557
vt 0.832732 0.633138
vt 0.068266 0.505764
vt 0.107613 0.443733
vt 0.334868 0.467842
vt 0.403958 0.364865
vt 0.359528 0.132151
vt 0.322018 0.126877
vt 0.311894 0.154348
vt 0.352737 0.158788
vt 0.401476 0.168539
vt 0.414113 0.144180
vt 0.100484 0.107163
vt 0.103227 0.134610
vt 0.149007 0.135347
vt 0.147519 0.103538
vt 0.191891 0.138096
vt 0.191697 0.106766
vt 0.274590 0.119415
vt 0.272001 0.150442
vt 0.310123 0.183814
vt 0.304451 0.246241
vt 0.343581 0.242322
vt 0.347760 0.183314
vt 0.387720 0.184888
vt 0.381998 0.237571
vt 0.151216 0.166652
vt 0.099249 0.158486
vt 0.093371 0.216717
vt 0.144156 0.230938
vt 0.185523 0.172547
vt 0.179120 0.237261
vt 0.267854 0.182322
vt 0.258866 0.245239
vt 0.294411 0.379582
vt 0.344208 0.382652
vt 0.376417 0.313344
vt 0.105650 0.365693
vt 0.176057 0.389228
vt 0.244592 0.383484
vt 0.239498 0.471283
vt 0.339403 0.301330
vt 0.298779 0.308668
vt 0.376275 0.290254
vt 0.137096 0.295223
vt 0.087492 0.274949
vt 0.077517 0.298005
vt 0.172717 0.301976
vt 0.249877 0.308157
vt 0.821771 0.406224
vt 0.836357 0.364560
vt 0.803225 0.355384
vt 0.791790 0.397416
vt 0.878305 0.366520
vt 0.856941 0.412654
vt 0.922002 0.386387
vt 0.904974 0.421212
vt 0.701336 0.324308
vt 0.669470 0.312926
vt 0.656148 0.348190
vt 0.686092 0.361063
vt 0.752999 0.385936
vt 0.765683 0.345577
vt 0.732629 0.334643
vt 0.716827 0.373566
vt 0.935835 0.405777
vt 0.913669 0.464048
vt 0.986645 0.467380
vt 0.977596 0.412946
vt 0.622426 0.289791
vt 0.541520 0.269540
vt 0.579302 0.192370
vt 0.625945 0.203745
vt 0.622232 0.290815
vt 0.541037 0.269945
vt 0.579895 0.193396
vt 0.625987 0.203816
vt 0.622436 0.290754
vt 0.541391 0.269964
vt 0.579696 0.193621
vt 0.625824 0.204000
vt 0.622247 0.290873
vt 0.540376 0.269805
vt 0.579729 0.193070
vt 0.625719 0.203779
vt 0.622590 0.290537
vt 0.541476 0.269840
vt 0.579742 0.193408
vt 0.625997 0.204011
vt 0.622107 0.290390
vt 0.541685 0.269630
vt 0.579743 0.193471
vt 0.625788 0.203827
vt 0.541533 0.269888
vt 0.579780 0.193632
vt 0.625799 0.204047
vt 0.622272 0.290678
vt 0.541301 0.269913
vt 0.579761 0.193656
vt 0.625791 0.204011
vt 0.622027 0.290888
vt 0.541171 0.270069
vt 0.579808 0.193426
vt 0.625962 0.203788
vt 0.622487 0.290997
vt 0.541376 0.269943
vt 0.579858 0.193218
vt 0.625857 0.203626
vt 0.622185 0.290898
vt 0.541586 0.269887
vt 0.579828 0.193237
vt 0.625985 0.203542
vt 0.622584 0.290867
vt 0.541435 0.269720
vt 0.579827 0.193336
vt 0.625984 0.203610
vt 0.622293 0.290773
vt 0.541649 0.269804
vt 0.579812 0.193423
vt 0.625930 0.203696
vt 0.622055 0.290875
vt 0.663164 0.865211
vt 0.665111 0.934120
vt 0.702039 0.779582
vt 0.652730 0.801027
vt 0.456006 0.259374
vt 0.466260 0.217643
vt 0.526979 0.233965
vt 0.521489 0.181146
vt 0.452032 0.170345
vt 0.416581 0.201813
vt 0.979213 0.051230
vt 0.224446 0.178137
vt 0.224932 0.142227
vt 0.204189 0.305818
vt 0.169531 0.452702
vt 0.581861 0.192806
vt 0.540384 0.270150
vt 0.621407 0.289811
vt 0.626900 0.204047
vt 0.036102 0.950782
vt 0.359588 0.039915
vt 0.861794 0.731409
vt 0.871977 0.744832
vt 0.830226 0.771339
vt 0.214317 0.241978
vt 0.871188 0.893423
vt 0.898830 0.872129
vt 0.780355 0.439448
vt 0.807185 0.447889
vt 0.835576 0.458789
vt 0.642826 0.383454
vt 0.644246 0.366779
vt 0.740314 0.426295
vt 0.701024 0.412488
vt 0.587597 0.931426
vt 0.469793 0.927294
vt 0.471599 0.867621
vt 0.587526 0.867136
vt 0.459301 0.812026
vt 0.576160 0.807246
vt 0.847492 0.707939
vt 0.622305 0.291046
vt 0.540420 0.269903
vt 0.579687 0.193242
vt 0.625705 0.203981
vt 0.622305 0.291046
vt 0.540420 0.269903
vt 0.579687 0.193242
vt 0.625705 0.203981
vt 0.622305 0.291046
vt 0.540420 0.269903
vt 0.579687 0.193242
vt 0.625705 0.203981
vt 0.541533 0.269888
vt 0.579780 0.193632
vt 0.625799 0.204047
vt 0.622272 0.290678
vt 0.541533 0.269888
vt 0.579780 0.193632
vt 0.625799 0.204047
vt 0.622272 0.290678
vt 0.541533 0.269888
vt 0.579780 0.193632
vt 0.625799 0.204047
vt 0.622272 0.290678
vt 0.029572 0.880436
vt 0.622305 0.291046
vt 0.540420 0.269903
vt 0.579687 0.193242
vt 0.625705 0.203981
vt 0.541533 0.269888
vt 0.579780 0.193632
vt 0.625799 0.204047
vt 0.622272 0.290678
vt 0.059570 0.614712
vt 0.062808 0.666419
vt 0.054789 0.583861
vt 0.059730 0.614603
vt 0.046722 0.517902
vt 0.051024 0.550515
vt 0.051517 0.552550
vt 0.054780 0.586538
vt 0.047447 0.525502
vt 0.062526 0.664788
vt 0.046606 0.516812
vt 0.481032 0.096960
vt 0.614999 0.107605
vt 0.601475 0.170062
vt 0.496711 0.048422
vt 0.632557 0.047353
vt 0.231478 0.111797
vt 0.616551 0.459309
vt 0.670849 0.397818
vt 0.888076 0.267750
vt 0.848649 0.250323
vt 0.832270 0.285335
vt 0.872363 0.301829
vt 0.920639 0.322377
vt 0.941890 0.297298
vt 0.965159 0.349565
vt 0.988468 0.325443
vt 0.637686 0.259406
vt 0.660036 0.282835
vt 0.695414 0.260790
vt 0.691359 0.226809
vt 0.802600 0.231244
vt 0.790179 0.273121
vt 0.741508 0.262977
vt 0.739744 0.220851
vt 0.887945 0.456036
vn 0.07878 -0.12850 -0.98858
vn 0.01178 -0.12994 -0.99145
vn 0.00589 -0.12825 -0.99172
vn 0.00000 -0.12656 -0.99196
vn 0.94843 -0.07158 -0.30880
vn 0.97626 0.13844 -0.16656
vn 0.88887 0.20941 -0.40751
vn 0.70641 0.65874 -0.25894
vn 0.83049 0.49685 -0.25185
vn 0.91951 0.24090 -0.31061
vn 0.44470 -0.49137 -0.74887
vn 0.22498 -0.68089 -0.69698
vn 0.69745 -0.54215 -0.46865
vn 0.91909 -0.17708 -0.35202
vn 0.96252 -0.25436 -0.09408
vn 0.98803 0.12328 -0.09275
vn 0.93836 0.29297 -0.18344
vn 0.97441 -0.00877 -0.22460
vn 0.88106 -0.43732 -0.18025
vn 0.83883 -0.52908 -0.12820
vn 0.85377 -0.50885 -0.11021
vn 0.82848 -0.55538 -0.07191
vn 0.23189 -0.83549 -0.49818
vn 0.00000 -0.87585 -0.48258
vn 0.00000 -0.98431 -0.17647
vn 0.46516 -0.87056 -0.16047
vn 0.56238 -0.82685 0.00719
vn 0.00000 -0.97875 0.20506
vn 0.00000 -0.99987 0.01604
vn 0.56717 -0.82336 -0.01964
vn 0.83803 0.32280 -0.43989
vn 0.64146 0.69061 -0.33404
vn 0.53592 0.64665 -0.54280
vn 0.87915 0.31285 -0.35948
vn 0.48231 0.83477 -0.26560
vn 0.93283 0.36008 0.01321
vn 0.63468 0.67500 0.37624
vn 0.78962 0.61316 0.02319
vn 0.73592 0.61936 -0.27352
vn 0.79036 0.45035 -0.41534
vn 0.80895 0.37697 -0.45110
vn 0.70095 0.03425 -0.71239
vn 0.94114 -0.14265 -0.30645
vn 0.65416 0.27605 -0.70418
vn 0.87313 0.34681 -0.34257
vn 0.69120 0.66851 0.27448
vn 0.70939 0.70246 0.05751
vn 0.93818 0.34336 -0.04377
vn 0.00003 0.96235 0.27181
vn 0.00000 0.99543 0.09548
vn 0.00000 -0.99921 0.03985
vn 0.00000 -0.99189 0.12708
vn 0.95959 -0.22837 0.16441
vn 0.99454 0.01764 0.10281
vn -0.00000 0.99344 0.11435
vn 0.00000 0.99675 0.08050
vn 0.99298 0.09887 0.06492
vn 0.64206 -0.76388 0.06520
vn 0.98978 0.12803 0.06279
vn 0.96551 0.02489 0.25918
vn 0.59437 -0.77773 0.20459
vn -0.00001 0.87599 0.48232
vn 0.00000 0.89150 0.45303
vn 0.76215 0.44417 0.47100
vn 0.70246 -0.02864 0.71115
vn 0.72116 0.66583 -0.19128
vn 0.64212 0.69722 -0.31868
vn 0.92310 0.37184 -0.09810
vn 0.94364 0.28199 -0.17328
vn 0.71148 -0.69798 -0.08131
vn -0.00001 -0.99948 -0.03228
vn -0.00003 -0.99629 0.08603
vn 0.60641 -0.77904 -0.15929
vn 0.96564 -0.18996 -0.17736
vn 0.91156 -0.00239 -0.41117
vn 0.69043 0.69639 -0.19583
vn 0.77805 0.62506 -0.06268
vn -0.00000 0.93122 -0.36446
vn -0.00000 0.97829 -0.20724
vn 0.88322 0.28628 -0.37144
vn 0.68420 0.72861 -0.03166
vn -0.00000 0.99984 -0.01792
vn 0.74607 0.61918 0.24494
vn 0.74769 0.59937 0.28587
vn 0.99617 -0.04410 -0.07548
vn 0.99256 -0.02596 -0.11895
vn 0.71916 -0.55676 -0.41574
vn 0.70558 -0.59575 -0.38373
vn 0.00000 -0.83741 -0.54657
vn 0.00000 -0.82111 -0.57077
vn 0.78078 0.61419 0.11467
vn 0.98659 0.04869 -0.15578
vn 0.00002 -0.75960 -0.65039
vn 0.81720 -0.40174 -0.41327
vn 0.00000 -0.01336 0.99991
vn 0.00000 0.97828 0.20728
vn 0.87863 -0.12728 0.46022
vn 0.29895 -0.37763 0.87637
vn 0.70246 -0.02864 0.71115
vn 0.95290 0.18323 0.24169
vn -0.23859 -0.54609 0.80303
vn -0.55926 -0.81453 -0.15413
vn 0.36627 -0.87889 0.30561
vn 0.97873 -0.07959 -0.18908
vn 0.55585 -0.07994 -0.82743
vn 0.76215 0.44417 0.47100
vn 0.36627 -0.87889 0.30561
vn 0.46312 -0.69746 0.54687
vn -0.23859 -0.54609 0.80303
vn 0.00000 -0.92760 0.37357
vn 0.00000 0.89150 0.45303
vn 0.00002 -0.75960 -0.65039
vn 0.00005 -0.69663 -0.71743
vn 0.52038 -0.43079 -0.73731
vn 0.81720 -0.40174 -0.41327
vn 0.91195 -0.19471 0.36116
vn 0.59664 -0.79741 0.09034
vn -0.02629 -0.07650 0.99672
vn 0.00775 0.01874 0.99979
vn 0.73194 0.16885 0.66011
vn 0.85252 0.03971 0.52118
vn -0.92904 0.02980 0.36877
vn -0.82053 0.07502 0.56665
vn -0.92904 0.02980 0.36877
vn -0.88673 0.16417 -0.43216
vn -0.91572 0.24682 -0.31707
vn -0.82053 0.07502 0.56665
vn -0.26640 0.10645 -0.95797
vn -0.40910 0.33301 -0.84956
vn 0.95755 0.25359 -0.13707
vn 0.94368 0.16071 -0.28921
vn 0.71779 0.00461 0.69624
vn 0.04932 0.05113 0.99747
vn 0.02046 -0.06759 0.99750
vn 0.67754 -0.25913 0.68832
vn -0.66284 0.04695 0.74729
vn -0.85275 -0.07957 0.51622
vn -0.95408 0.16653 -0.24901
vn -0.87718 0.10982 -0.46744
vn -0.85275 -0.07957 0.51622
vn -0.66284 0.04695 0.74729
vn -0.47697 0.33544 -0.81239
vn -0.26448 0.21457 -0.94022
vn 0.97071 -0.10092 -0.21803
vn 0.96750 0.19740 -0.15803
vn 0.90331 -0.14694 0.40304
vn 0.11881 -0.34243 0.93200
vn -0.38185 -0.92420 0.00665
vn 0.07713 -0.66846 -0.73973
vn 0.39008 -0.32790 -0.86042
vn 0.96438 0.26297 -0.02870
vn 0.90100 -0.15937 -0.40349
vn 0.79764 -0.19023 0.57235
vn -0.06633 -0.23003 0.97092
vn -0.91566 -0.07321 0.39523
vn -0.81175 -0.07326 -0.57939
vn -0.38185 -0.92420 0.00665
vn -0.91566 -0.07321 0.39523
vn -0.11891 -0.09355 -0.98849
vn 0.91397 -0.13914 -0.38119
vn 0.00000 -0.96207 -0.27280
vn 0.00004 -0.81431 -0.58042
vn 0.11953 0.27213 0.95481
vn 0.75836 0.14961 0.63443
vn 0.60564 0.29677 0.73833
vn 0.06206 0.28163 0.95751
vn -0.61205 0.26938 0.74352
vn -0.76483 0.15481 0.62535
vn -0.95940 0.17787 -0.21890
vn -0.94411 -0.10380 -0.31285
vn -0.51849 0.22693 -0.82442
vn -0.34457 -0.19198 -0.91892
vn -0.94411 -0.10380 -0.31285
vn -0.95940 0.17787 -0.21890
vn 0.97937 -0.07631 -0.18710
vn 0.56530 -0.18991 -0.80273
vn 0.45942 0.29972 -0.83612
vn 0.97310 0.22994 -0.01441
vn 0.95542 -0.19445 -0.22219
vn 0.95245 -0.30469 -0.00138
vn 0.95542 -0.19445 -0.22219
vn 0.90018 -0.07237 -0.42945
vn 0.96582 0.01847 -0.25854
vn 0.95919 -0.02045 -0.28202
vn 0.96582 0.01847 -0.25854
vn 0.97042 0.05735 -0.23452
vn 0.90401 -0.03544 -0.42605
vn 0.91064 -0.02111 -0.41265
vn 0.90401 -0.03544 -0.42605
vn 0.89698 -0.04975 -0.43926
vn 0.87530 -0.00997 -0.48349
vn 0.87224 -0.01533 -0.48883
vn 0.87530 -0.00997 -0.48349
vn 0.87829 -0.00461 -0.47811
vn 0.82029 -0.01722 -0.57169
vn 0.79056 -0.05874 -0.60956
vn 0.82029 -0.01722 -0.57169
vn 0.84670 0.02437 -0.53152
vn 0.55181 -0.07070 -0.83097
vn 0.55139 -0.07109 -0.83121
vn 0.55181 -0.07070 -0.83097
vn 0.30180 -0.09712 -0.94841
vn 0.30180 -0.09712 -0.94841
vn 0.13432 -0.12836 -0.98259
vn 0.16779 -0.10773 -0.97992
vn 0.09493 -0.07320 -0.99279
vn 0.92640 -0.11145 -0.35966
vn 0.91556 -0.10216 -0.38898
vn 0.92640 -0.11145 -0.35966
vn 0.93626 -0.12062 -0.32995
vn 0.94527 -0.08406 -0.31527
vn 0.94658 -0.08650 -0.31065
vn 0.94527 -0.08406 -0.31527
vn 0.94394 -0.08162 -0.31988
vn 0.90998 -0.03177 -0.41343
vn 0.87023 -0.02328 -0.49210
vn 0.90998 -0.03177 -0.41343
vn 0.91383 -0.03596 -0.40451
vn 0.87023 -0.02328 -0.49210
vn 0.80921 0.00884 -0.58745
vn 0.85024 -0.02107 -0.52597
vn 0.88587 -0.05084 -0.46114
vn 0.74135 -0.10191 -0.66334
vn 0.73847 -0.10021 -0.66679
vn 0.74135 -0.10191 -0.66334
vn 0.74421 -0.10362 -0.65986
vn 0.65198 -0.12608 -0.74768
vn 0.65897 -0.12937 -0.74096
vn 0.65198 -0.12608 -0.74768
vn 0.64492 -0.12278 -0.75432
vn 0.18025 -0.10336 -0.97818
vn 0.07878 -0.12850 -0.98858
vn 0.18025 -0.10336 -0.97818
vn 0.13676 -0.07951 -0.98741
vn 0.99963 0.01279 0.02419
vn 0.80869 0.50151 0.30741
vn 0.63039 -0.77340 -0.06684
vn 0.00000 -0.99725 0.07414
vn 0.00000 -0.97621 -0.21681
vn 0.79288 -0.59424 -0.13496
vn 0.84285 0.41994 -0.33652
vn 0.83762 0.21915 -0.50038
vn 0.91377 0.21454 -0.34497
vn 0.90006 0.03084 -0.43468
vn 0.96229 0.07211 -0.26231
vn 0.93689 0.31276 -0.15623
vn 0.00000 -0.96207 -0.27280
vn -0.00003 -0.99370 -0.11209
vn 0.46312 -0.69746 0.54687
vn 0.41199 0.40646 -0.81551
vn 0.47629 0.26834 -0.83734
vn 0.48561 -0.04462 -0.87304
vn 0.67911 -0.01244 -0.73393
vn -0.00612 -0.06079 -0.99813
vn 0.00000 -0.06299 -0.99801
vn -0.00612 -0.06079 -0.99813
vn 0.09493 -0.07320 -0.99279
vn 0.78078 0.61419 0.11467
vn -0.00000 0.96940 0.24551
vn -0.00000 0.90571 0.42391
vn 0.58650 -0.80901 0.03894
vn 0.00000 -0.99953 0.03066
vn 0.00000 -0.87196 0.48957
vn 0.00000 -0.92760 0.37357
vn -0.00000 0.97292 -0.23115
vn 0.92682 -0.30509 -0.21892
vn 0.90472 -0.40768 -0.12362
vn 0.93087 -0.19402 -0.30959
vn 0.47355 0.16003 -0.86611
vn 0.00000 0.57680 -0.81688
vn 0.66768 0.61050 -0.42602
vn 0.82958 0.31322 -0.46226
vn 0.00000 0.47845 -0.87812
vn -0.00000 0.76891 -0.63935
vn 0.00000 -0.60892 -0.79323
vn 0.00000 -0.70416 -0.71004
vn -0.00000 0.86263 0.50584
vn -0.00000 0.98095 0.19428
vn 0.80113 -0.17409 0.57262
vn 0.07760 -0.06948 0.99456
vn -0.75692 -0.19090 0.62501
vn -0.97678 -0.00598 -0.21418
vn -0.75692 -0.19090 0.62501
vn 0.55634 -0.24836 -0.79297
vn 0.97547 -0.13226 -0.17595
vn -0.00000 0.79788 0.60282
vn 0.72854 0.57672 0.36962
vn 0.99807 -0.02176 0.05823
vn 0.99471 0.09278 0.04403
vn 0.64499 0.67484 0.35859
vn 0.73839 -0.58487 -0.33571
vn 0.68788 -0.68805 -0.23112
vn -0.00000 -0.89361 -0.44884
vn 0.00000 -0.85007 -0.52668
vn -0.00000 0.89315 0.44977
vn 0.00000 0.88393 0.46763
vn -0.00000 0.97102 -0.23901
vn -0.00000 0.93493 -0.35484
vn 0.51487 -0.84858 0.12172
vn 0.00000 -0.94883 0.31578
vn 0.00000 -0.87196 0.48957
vn -0.00000 0.25085 -0.96803
vn 0.00000 0.00374 -0.99999
vn -0.00000 0.90529 -0.42479
vn -0.00000 0.86197 -0.50696
vn 0.00000 -0.98797 0.15463
vn 0.96210 -0.01623 -0.27222
vn 0.95226 -0.05860 -0.29962
vn 0.96210 -0.01623 -0.27222
vn 0.96940 0.02618 -0.24410
vn 0.96247 -0.01439 -0.27101
vn 0.95782 -0.03603 -0.28510
vn 0.96247 -0.01439 -0.27101
vn 0.96646 0.00726 -0.25672
vn 0.98003 -0.00705 -0.19873
vn 0.97595 -0.04229 -0.21384
vn 0.98003 -0.00705 -0.19873
vn 0.98265 0.02820 -0.18332
vn 0.96951 -0.09503 -0.22587
vn 0.96699 -0.08509 -0.24019
vn 0.96951 -0.09503 -0.22587
vn 0.97173 -0.10494 -0.21149
vn 0.96871 -0.11860 -0.21802
vn 0.96646 -0.10983 -0.23216
vn 0.96871 -0.11860 -0.21802
vn 0.97069 -0.12733 -0.20383
vn 0.98318 -0.05510 -0.17414
vn 0.98397 -0.06058 -0.16772
vn 0.98318 -0.05510 -0.17414
vn 0.98231 -0.04961 -0.18055
vn -0.00000 0.96940 0.24551
vn 0.98659 0.04869 -0.15578
vn 0.97753 -0.04890 -0.20506
vn 0.96243 -0.13270 -0.23691
vn 0.97753 -0.04890 -0.20506
vn 0.98455 0.03531 -0.17151
vn 0.98662 -0.03628 -0.15895
vn 0.98895 -0.06912 -0.13114
vn 0.98662 -0.03628 -0.15895
vn 0.98246 -0.00337 -0.18646
vn -0.05005 -0.99645 -0.06767
vn 0.00000 -0.99861 0.05264
vn -0.00000 -0.10331 -0.99465
vn -0.00016 -0.11167 -0.99375
vn -0.05139 0.97774 -0.20344
vn -0.03294 0.94284 -0.33161
vn -0.00000 0.96194 -0.27325
vn -0.00000 0.97570 -0.21911
vn -0.06632 -0.97214 0.22482
vn -0.00000 -0.97250 0.23290
vn -0.00000 -0.97687 0.21382
vn -0.07706 -0.97694 0.19914
vn -0.03998 0.97132 -0.23440
vn -0.00000 0.97456 -0.22413
vn 0.00000 -0.98078 0.19511
vn -0.07707 -0.97699 0.19890
vn -0.00000 0.97038 -0.24160
vn -0.00828 0.96718 -0.25394
vn -0.00016 -0.11167 -0.99375
vn -0.00000 -0.10331 -0.99465
vn -0.00818 0.96713 -0.25415
vn 0.00000 0.85420 0.51994
vn 0.00000 0.99291 0.11890
vn 0.22626 0.96815 0.10722
vn 0.95600 0.28062 0.08555
vn 0.98934 0.12734 0.07069
vn 0.59448 -0.80327 0.03678
vn 0.66488 -0.74580 0.04159
vn 0.00000 -0.99911 0.04213
vn 0.00000 -0.99989 0.01474
vn 0.47125 0.14403 -0.87016
vn 0.02198 -0.29932 -0.95390
vn -0.42304 -0.05377 -0.90451
vn -0.02493 -0.09447 0.99522
vn 0.00500 0.11130 0.99377
vn 0.71047 0.23166 0.66450
vn 0.85267 0.04285 0.52068
vn -0.92926 0.03282 0.36797
vn -0.81006 0.11772 0.57440
vn -0.88289 0.18890 -0.42990
vn -0.89917 0.31683 -0.30185
vn -0.88289 0.18890 -0.42990
vn -0.26594 0.12257 -0.95617
vn -0.40402 0.41779 -0.81377
vn -0.89917 0.31683 -0.30185
vn 0.94411 0.29399 -0.14909
vn 0.93991 0.18417 -0.28750
vn 0.46638 0.33909 -0.81701
vn 0.46871 0.16538 -0.86773
vn -0.00000 0.99094 0.13429
vn 0.00000 -0.99725 0.07412
vn -0.00000 0.99221 0.12458
vn -0.00000 0.99094 0.13429
vn -0.97678 -0.00598 -0.21418
vn -0.07878 -0.12850 -0.98858
vn 0.00000 -0.12656 -0.99196
vn -0.00589 -0.12825 -0.99172
vn -0.01178 -0.12994 -0.99145
vn -0.94843 -0.07158 -0.30880
vn -0.88887 0.20940 -0.40751
vn -0.97626 0.13844 -0.16656
vn -0.70641 0.65874 -0.25894
vn -0.83049 0.49685 -0.25185
vn -0.91951 0.24090 -0.31061
vn -0.44470 -0.49137 -0.74887
vn -0.91909 -0.17708 -0.35202
vn -0.69745 -0.54215 -0.46865
vn -0.22497 -0.68089 -0.69698
vn -0.96252 -0.25436 -0.09408
vn -0.97441 -0.00877 -0.22460
vn -0.93836 0.29297 -0.18344
vn -0.98803 0.12328 -0.09275
vn -0.88106 -0.43732 -0.18025
vn -0.82848 -0.55538 -0.07191
vn -0.85377 -0.50885 -0.11021
vn -0.83883 -0.52908 -0.12820
vn -0.23189 -0.83549 -0.49818
vn -0.46516 -0.87056 -0.16047
vn -0.56238 -0.82685 0.00720
vn -0.56717 -0.82336 -0.01964
vn -0.64146 0.69061 -0.33404
vn -0.83803 0.32280 -0.43989
vn -0.53592 0.64665 -0.54280
vn -0.48231 0.83477 -0.26560
vn -0.87915 0.31285 -0.35948
vn -0.93283 0.36008 0.01321
vn -0.78962 0.61316 0.02319
vn -0.63468 0.67500 0.37624
vn -0.73592 0.61936 -0.27352
vn -0.80895 0.37697 -0.45110
vn -0.79036 0.45035 -0.41534
vn -0.70095 0.03425 -0.71239
vn -0.65416 0.27605 -0.70418
vn -0.94114 -0.14265 -0.30645
vn -0.87313 0.34681 -0.34257
vn -0.69118 0.66850 0.27455
vn -0.93816 0.34342 -0.04371
vn -0.70927 0.70259 0.05749
vn -0.99454 0.01764 0.10281
vn -0.95959 -0.22837 0.16441
vn -0.99298 0.09887 0.06492
vn -0.64206 -0.76388 0.06520
vn -0.59437 -0.77773 0.20459
vn -0.96553 0.02489 0.25910
vn -0.98978 0.12803 0.06279
vn -0.76218 0.44404 0.47108
vn -0.70242 -0.02901 0.71117
vn -0.72113 0.66586 -0.19131
vn -0.94362 0.28197 -0.17342
vn -0.92311 0.37181 -0.09809
vn -0.64214 0.69721 -0.31868
vn -0.71150 -0.69797 -0.08133
vn -0.60662 -0.77889 -0.15922
vn -0.96561 -0.19002 -0.17747
vn -0.91164 -0.00248 -0.41098
vn -0.77807 0.62505 -0.06264
vn -0.69043 0.69639 -0.19582
vn -0.88322 0.28634 -0.37139
vn -0.68419 0.72862 -0.03166
vn -0.74607 0.61918 0.24494
vn -0.99256 -0.02596 -0.11895
vn -0.99617 -0.04410 -0.07548
vn -0.74769 0.59937 0.28587
vn -0.71916 -0.55676 -0.41574
vn -0.70558 -0.59575 -0.38373
vn -0.98659 0.04871 -0.15579
vn -0.78078 0.61419 0.11467
vn -0.81720 -0.40169 -0.41331
vn -0.87825 -0.12792 0.46077
vn -0.95286 0.18287 0.24211
vn -0.70242 -0.02901 0.71117
vn -0.29827 -0.37801 0.87644
vn 0.23844 -0.54606 0.80309
vn -0.36677 -0.87870 0.30557
vn 0.55892 -0.81463 -0.15488
vn -0.97882 -0.08002 -0.18845
vn -0.55639 -0.08003 -0.82706
vn -0.76218 0.44404 0.47108
vn -0.36677 -0.87870 0.30557
vn 0.23844 -0.54606 0.80309
vn -0.46329 -0.69742 0.54677
vn -0.81720 -0.40169 -0.41331
vn -0.52039 -0.43077 -0.73732
vn -0.91191 -0.19477 0.36122
vn -0.59666 -0.79739 0.09034
vn 0.02629 -0.07650 0.99672
vn -0.85252 0.03971 0.52118
vn -0.73194 0.16885 0.66011
vn -0.00775 0.01874 0.99979
vn 0.82053 0.07502 0.56665
vn 0.92904 0.02980 0.36877
vn 0.92904 0.02980 0.36877
vn 0.82053 0.07502 0.56665
vn 0.91572 0.24682 -0.31707
vn 0.88673 0.16417 -0.43216
vn 0.40910 0.33300 -0.84956
vn 0.26640 0.10645 -0.95797
vn -0.94368 0.16071 -0.28921
vn -0.95755 0.25359 -0.13707
vn -0.71776 0.00462 0.69627
vn -0.67741 -0.25912 0.68846
vn -0.02034 -0.06759 0.99751
vn -0.04932 0.05114 0.99747
vn 0.66286 0.04691 0.74727
vn 0.85283 -0.07957 0.51608
vn 0.95407 0.16650 -0.24904
vn 0.66286 0.04691 0.74727
vn 0.85283 -0.07957 0.51608
vn 0.87710 0.10983 -0.46758
vn 0.47695 0.33543 -0.81241
vn 0.26432 0.21459 -0.94026
vn -0.96751 0.19738 -0.15800
vn -0.97076 -0.10089 -0.21783
vn -0.90319 -0.14697 0.40329
vn -0.11859 -0.34244 0.93203
vn 0.38186 -0.92420 0.00656
vn -0.07718 -0.66845 -0.73974
vn -0.39027 -0.32791 -0.86033
vn -0.90111 -0.15940 -0.40323
vn -0.96438 0.26297 -0.02850
vn 0.06660 -0.23004 0.97090
vn -0.79747 -0.19025 0.57258
vn 0.91577 -0.07318 0.39499
vn 0.81162 -0.07322 -0.57958
vn 0.91577 -0.07318 0.39499
vn 0.38186 -0.92420 0.00656
vn 0.11865 -0.09353 -0.98852
vn -0.91408 -0.13915 -0.38091
vn -0.11848 0.27262 0.95480
vn -0.06079 0.28235 0.95738
vn -0.60459 0.29786 0.73875
vn -0.75775 0.15012 0.63504
vn 0.61304 0.26923 0.74277
vn 0.76542 0.15452 0.62471
vn 0.95934 0.17688 -0.21996
vn 0.94382 -0.10405 -0.31366
vn 0.51788 0.22608 -0.82504
vn 0.95934 0.17688 -0.21996
vn 0.94382 -0.10405 -0.31366
vn 0.34379 -0.19206 -0.91919
vn -0.97955 -0.07619 -0.18622
vn -0.97289 0.23088 -0.01351
vn -0.45997 0.29967 -0.83584
vn -0.56596 -0.19006 -0.80223
vn -0.95542 -0.19445 -0.22219
vn -0.90018 -0.07237 -0.42945
vn -0.95542 -0.19445 -0.22219
vn -0.95245 -0.30468 -0.00139
vn -0.96582 0.01846 -0.25854
vn -0.97042 0.05734 -0.23452
vn -0.96582 0.01846 -0.25854
vn -0.95919 -0.02045 -0.28202
vn -0.90401 -0.03544 -0.42605
vn -0.89698 -0.04975 -0.43926
vn -0.90401 -0.03544 -0.42605
vn -0.91064 -0.02111 -0.41265
vn -0.87530 -0.00997 -0.48349
vn -0.87829 -0.00462 -0.47811
vn -0.87530 -0.00997 -0.48349
vn -0.87224 -0.01533 -0.48883
vn -0.82029 -0.01722 -0.57169
vn -0.84670 0.02437 -0.53152
vn -0.82029 -0.01722 -0.57169
vn -0.79056 -0.05874 -0.60956
vn -0.55181 -0.07070 -0.83097
vn -0.30180 -0.09712 -0.94841
vn -0.55181 -0.07070 -0.83097
vn -0.55139 -0.07109 -0.83121
vn -0.30180 -0.09712 -0.94841
vn -0.09493 -0.07320 -0.99279
vn -0.16779 -0.10773 -0.97992
vn -0.13431 -0.12836 -0.98259
vn -0.92640 -0.11145 -0.35966
vn -0.93626 -0.12062 -0.32995
vn -0.92640 -0.11145 -0.35966
vn -0.91556 -0.10216 -0.38898
vn -0.94527 -0.08406 -0.31527
vn -0.94394 -0.08162 -0.31988
vn -0.94527 -0.08406 -0.31527
vn -0.94658 -0.08650 -0.31065
vn -0.90998 -0.03177 -0.41343
vn -0.91383 -0.03596 -0.40451
vn -0.90998 -0.03177 -0.41343
vn -0.87023 -0.02328 -0.49210
vn -0.87023 -0.02328 -0.49210
vn -0.88587 -0.05084 -0.46115
vn -0.85024 -0.02107 -0.52597
vn -0.80921 0.00884 -0.58745
vn -0.74135 -0.10191 -0.66334
vn -0.74421 -0.10362 -0.65986
vn -0.74135 -0.10191 -0.66334
vn -0.73847 -0.10021 -0.66680
vn -0.65198 -0.12608 -0.74768
vn -0.64492 -0.12278 -0.75432
vn -0.65198 -0.12608 -0.74768
vn -0.65897 -0.12937 -0.74096
vn -0.18025 -0.10336 -0.97818
vn -0.13676 -0.07951 -0.98741
vn -0.18025 -0.10336 -0.97818
vn -0.07878 -0.12850 -0.98858
vn -0.99963 0.01279 0.02419
vn -0.80869 0.50151 0.30741
vn -0.63039 -0.77340 -0.06684
vn -0.79288 -0.59424 -0.13496
vn -0.84285 0.41994 -0.33652
vn -0.91377 0.21454 -0.34497
vn -0.83762 0.21915 -0.50038
vn -0.90006 0.03084 -0.43468
vn -0.96229 0.07211 -0.26231
vn -0.93689 0.31276 -0.15623
vn -0.46329 -0.69742 0.54677
vn -0.41201 0.40645 -0.81550
vn -0.47629 0.26834 -0.83734
vn -0.48586 -0.04461 -0.87290
vn -0.67926 -0.01239 -0.73379
vn 0.00612 -0.06079 -0.99813
vn -0.09493 -0.07320 -0.99279
vn 0.00612 -0.06079 -0.99813
vn 0.00000 -0.06299 -0.99801
vn -0.78078 0.61419 0.11467
vn -0.58650 -0.80901 0.03894
vn -0.90472 -0.40768 -0.12362
vn -0.92682 -0.30509 -0.21892
vn -0.93087 -0.19402 -0.30959
vn -0.47370 0.16005 -0.86602
vn -0.82958 0.31322 -0.46226
vn -0.66768 0.61050 -0.42602
vn -0.80063 -0.17457 0.57316
vn -0.07678 -0.06969 0.99461
vn 0.75748 -0.19058 0.62443
vn 0.97663 -0.00510 -0.21488
vn 0.75748 -0.19058 0.62443
vn -0.97554 -0.13272 -0.17526
vn -0.55683 -0.24845 -0.79260
vn -0.72854 0.57672 0.36962
vn -0.64499 0.67484 0.35859
vn -0.99471 0.09278 0.04403
vn -0.99807 -0.02176 0.05823
vn -0.73839 -0.58487 -0.33571
vn -0.68788 -0.68805 -0.23112
vn -0.51487 -0.84858 0.12172
vn -0.96210 -0.01623 -0.27222
vn -0.96940 0.02617 -0.24410
vn -0.96210 -0.01623 -0.27222
vn -0.95226 -0.05860 -0.29962
vn -0.96247 -0.01439 -0.27101
vn -0.96646 0.00726 -0.25672
vn -0.96247 -0.01439 -0.27101
vn -0.95782 -0.03603 -0.28510
vn -0.98003 -0.00705 -0.19873
vn -0.98265 0.02820 -0.18332
vn -0.98003 -0.00705 -0.19873
vn -0.97595 -0.04229 -0.21384
vn -0.96951 -0.09503 -0.22587
vn -0.97173 -0.10494 -0.21149
vn -0.96951 -0.09503 -0.22587
vn -0.96699 -0.08509 -0.24019
vn -0.96871 -0.11860 -0.21802
vn -0.97069 -0.12733 -0.20383
vn -0.96871 -0.11860 -0.21802
vn -0.96646 -0.10983 -0.23215
vn -0.98318 -0.05510 -0.17414
vn -0.98231 -0.04961 -0.18055
vn -0.98318 -0.05510 -0.17414
vn -0.98397 -0.06058 -0.16772
vn -0.98659 0.04871 -0.15579
vn -0.97753 -0.04890 -0.20506
vn -0.98455 0.03531 -0.17151
vn -0.97753 -0.04890 -0.20506
vn -0.96243 -0.13270 -0.23691
vn -0.98662 -0.03628 -0.15895
vn -0.98246 -0.00337 -0.18646
vn -0.98662 -0.03628 -0.15895
vn -0.98895 -0.06912 -0.13114
vn 0.05005 -0.99645 -0.06767
vn 0.00016 -0.11167 -0.99375
vn 0.05139 0.97774 -0.20344
vn 0.03294 0.94284 -0.33161
vn 0.06632 -0.97214 0.22482
vn 0.07706 -0.97694 0.19914
vn 0.03997 0.97132 -0.23440
vn 0.07707 -0.97699 0.19890
vn 0.00828 0.96718 -0.25395
vn 0.00016 -0.11167 -0.99375
vn 0.00817 0.96713 -0.25416
vn -0.98934 0.12734 0.07069
vn -0.95600 0.28062 0.08555
vn -0.22626 0.96815 0.10722
vn -0.59448 -0.80327 0.03678
vn -0.66488 -0.74580 0.04159
vn -0.47125 0.14403 -0.87016
vn -0.02235 -0.29906 -0.95397
vn 0.42248 -0.05317 -0.90481
vn 0.02589 -0.09402 0.99523
vn -0.85208 0.04392 0.52156
vn -0.70955 0.23267 0.66514
vn -0.00385 0.11178 0.99373
vn 0.81078 0.11722 0.57349
vn 0.92968 0.03210 0.36697
vn 0.89915 0.31582 -0.30296
vn 0.88262 0.18784 -0.43093
vn 0.88262 0.18784 -0.43093
vn 0.89915 0.31582 -0.30296
vn 0.40356 0.41700 -0.81440
vn 0.26504 0.12185 -0.95651
vn -0.94003 0.18494 -0.28659
vn -0.94398 0.29483 -0.14823
vn -0.46692 0.33914 -0.81668
vn -0.46947 0.16542 -0.86732
vn 0.97663 -0.00510 -0.21488
f 342/342/342 341/341/341 356/356/356
f 343/343/343 344/344/344 341/341/341
f 341/341/341 342/342/342 343/343/343
f 342/342/342 355/355/355 682/682/682
f 682/682/682 675/675/675 342/342/342
f 343/343/343 342/342/342 675/675/675
f 356/356/356 355/355/355 342/342/342
f 355/355/355 356/356/356 352/352/352
f 355/355/355 351/351/351 680/680/680
f 680/680/680 682/682/682 355/355/355
f 352/352/352 351/351/351 355/355/355
f 351/351/351 352/352/352 349/349/349
f 351/351/351 350/350/350 679/679/679
f 679/679/679 680/680/680 351/351/351
f 349/349/349 350/350/350 351/351/351
f 675/675/675 676/676/676 343/343/343
f 135/135/135 134/134/134 154/154/154
f 154/154/154 134/134/134 137/137/137
f 134/134/134 133/133/133 136/136/136
f 136/136/136 137/137/137 134/134/134
f 136/136/136 133/133/133 119/119/119
f 119/119/119 123/123/123 136/136/136
f 123/123/123 119/119/119 118/118/118
f 118/118/118 119/119/119 120/120/120
f 121/121/121 120/120/120 130/130/130
f 120/120/120 121/121/121 118/118/118
f 118/118/118 122/122/122 123/123/123
f 130/130/130 131/131/131 121/121/121
f 131/131/131 130/130/130 251/251/251
f 250/250/250 251/251/251 130/130/130
f 251/251/251 371/371/371 131/131/131
f 129/129/129 251/251/251 250/250/250
f 251/251/251 129/129/129 128/128/128
f 128/128/128 371/371/371 251/251/251
f 250/250/250 142/142/142 129/129/129
f 143/143/143 142/142/142 250/250/250
f 126/126/126 129/129/129 142/142/142
f 129/129/129 126/126/126 125/125/125
f 125/125/125 128/128/128 129/129/129
f 142/142/142 138/138/138 126/126/126
f 502/502/502 505/505/505 504/504/504
f 504/504/504 503/503/503 502/502/502
f 489/489/489 503/503/503 504/504/504
f 504/504/504 490/490/490 489/489/489
f 486/486/486 489/489/489 490/490/490
f 488/488/488 489/489/489 486/486/486
f 499/499/499 488/488/488 487/487/487
f 486/486/486 487/487/487 488/488/488
f 490/490/490 491/491/491 486/486/486
f 487/487/487 498/498/498 499/499/499
f 498/498/498 691/691/691 613/613/613
f 613/613/613 499/499/499 498/498/498
f 613/613/613 691/691/691 497/497/497
f 612/612/612 613/613/613 496/496/496
f 497/497/497 496/496/496 613/613/613
f 499/499/499 613/613/613 612/612/612
f 496/496/496 497/497/497 495/495/495
f 496/496/496 510/510/510 612/612/612
f 510/510/510 496/496/496 494/494/494
f 495/495/495 494/494/494 496/496/496
f 285/285/285 284/284/284 176/176/176
f 284/284/284 285/285/285 104/104/104
f 164/164/164 175/175/175 178/178/178
f 177/177/177 178/178/178 175/175/175
f 175/175/175 176/176/176 177/177/177
f 178/178/178 165/165/165 164/164/164
f 163/163/163 164/164/164 165/165/165
f 178/178/178 386/386/386 376/376/376
f 376/376/376 165/165/165 178/178/178
f 386/386/386 178/178/178 177/177/177
f 384/384/384 388/388/388 177/177/177
f 177/177/177 171/171/171 384/384/384
f 177/177/177 388/388/388 386/386/386
f 172/172/172 171/171/171 177/177/177
f 177/177/177 176/176/176 172/172/172
f 172/172/172 176/176/176 284/284/284
f 284/284/284 373/373/373 172/172/172
f 282/282/282 173/173/173 172/172/172
f 172/172/172 373/373/373 282/282/282
f 171/171/171 172/172/172 173/173/173
f 385/385/385 384/384/384 171/171/171
f 171/171/171 174/174/174 385/385/385
f 173/173/173 174/174/174 171/171/171
f 384/384/384 385/385/385 382/382/382
f 137/137/137 155/155/155 154/154/154
f 537/537/537 704/704/704 703/703/703
f 537/537/537 538/538/538 539/539/539
f 705/705/705 704/704/704 708/708/708
f 704/704/704 705/705/705 702/702/702
f 702/702/702 703/703/703 704/704/704
f 706/706/706 709/709/709 708/708/708
f 708/708/708 707/707/707 706/706/706
f 708/708/708 709/709/709 705/705/705
f 696/696/696 707/707/707 542/542/542
f 707/707/707 696/696/696 695/695/695
f 695/695/695 706/706/706 707/707/707
f 542/542/542 531/531/531 696/696/696
f 697/697/697 696/696/696 531/531/531
f 696/696/696 697/697/697 694/694/694
f 694/694/694 695/695/695 696/696/696
f 700/700/700 701/701/701 699/699/699
f 477/477/477 634/634/634 693/693/693
f 634/634/634 477/477/477 476/476/476
f 633/633/633 476/476/476 469/469/469
f 470/470/470 469/469/469 476/476/476
f 476/476/476 633/633/633 634/634/634
f 540/540/540 693/693/693 634/634/634
f 634/634/634 544/544/544 540/540/540
f 544/544/544 634/634/634 633/633/633
f 631/631/631 693/693/693 540/540/540
f 693/693/693 631/631/631 475/475/475
f 540/540/540 539/539/539 631/631/631
f 540/540/540 544/544/544 543/543/543
f 543/543/543 537/537/537 540/540/540
f 539/539/539 540/540/540 537/537/537
f 633/633/633 541/541/541 544/544/544
f 543/543/543 544/544/544 541/541/541
f 541/541/541 633/633/633 628/628/628
f 469/469/469 628/628/628 633/633/633
f 542/542/542 541/541/541 532/532/532
f 628/628/628 532/532/532 541/541/541
f 541/541/541 542/542/542 543/543/543
f 704/704/704 537/537/537 543/543/543
f 543/543/543 708/708/708 704/704/704
f 707/707/707 708/708/708 543/543/543
f 543/543/543 542/542/542 707/707/707
f 703/703/703 538/538/538 537/537/537
f 402/402/402 400/400/400 403/403/403
f 411/411/411 435/435/435 402/402/402
f 435/435/435 411/411/411 410/410/410
f 409/409/409 410/410/410 411/411/411
f 415/415/415 409/409/409 603/603/603
f 414/414/414 409/409/409 415/415/415
f 603/603/603 420/420/420 415/415/415
f 416/416/416 415/415/415 420/420/420
f 415/415/415 416/416/416 413/413/413
f 413/413/413 414/414/414 415/415/415
f 420/420/420 603/603/603 238/238/238
f 239/239/239 238/238/238 603/603/603
f 238/238/238 29/29/29 420/420/420
f 420/420/420 419/419/419 416/416/416
f 419/419/419 420/420/420 29/29/29
f 622/622/622 416/416/416 419/419/419
f 413/413/413 416/416/416 622/622/622
f 622/622/622 623/623/623 413/413/413
f 622/622/622 407/407/407 406/406/406
f 406/406/406 623/623/623 622/622/622
f 622/622/622 641/641/641 418/418/418
f 418/418/418 407/407/407 622/622/622
f 419/419/419 641/641/641 622/622/622
f 641/641/641 419/419/419 28/28/28
f 612/612/612 510/510/510 511/511/511
f 494/494/494 506/506/506 510/510/510
f 509/509/509 511/511/511 510/510/510
f 510/510/510 506/506/506 509/509/509
f 506/506/506 494/494/494 493/493/493
f 494/494/494 495/495/495 492/492/492
f 492/492/492 493/493/493 494/494/494
f 493/493/493 507/507/507 506/506/506
f 508/508/508 509/509/509 506/506/506
f 506/506/506 507/507/507 508/508/508
f 511/511/511 509/509/509 524/524/524
f 525/525/525 524/524/524 509/509/509
f 509/509/509 508/508/508 525/525/525
f 524/524/524 525/525/525 526/526/526
f 295/295/295 296/296/296 290/290/290
f 463/463/463 462/462/462 637/637/637
f 637/637/637 636/636/636 463/463/463
f 462/462/462 463/463/463 460/460/460
f 461/461/461 460/460/460 620/620/620
f 460/460/460 461/461/461 462/462/462
f 620/620/620 666/666/666 461/461/461
f 639/639/639 637/637/637 462/462/462
f 638/638/638 637/637/637 639/639/639
f 637/637/637 638/638/638 635/635/635
f 635/635/635 636/636/636 637/637/637
f 636/636/636 635/635/635 362/362/362
f 362/362/362 296/296/296 636/636/636
f 290/290/290 296/296/296 362/362/362
f 286/286/286 362/362/362 635/635/635
f 635/635/635 602/602/602 286/286/286
f 602/602/602 635/635/635 638/638/638
f 601/601/601 638/638/638 640/640/640
f 638/638/638 601/601/601 602/602/602
f 639/639/639 640/640/640 638/638/638
f 426/426/426 428/428/428 602/602/602
f 286/286/286 602/602/602 428/428/428
f 426/426/426 602/602/602 601/601/601
f 428/428/428 277/277/277 286/286/286
f 278/278/278 277/277/277 428/428/428
f 428/428/428 427/427/427 278/278/278
f 388/388/388 384/384/384 383/383/383
f 382/382/382 383/383/383 384/384/384
f 387/387/387 386/386/386 388/388/388
f 388/388/388 389/389/389 387/387/387
f 383/383/383 389/389/389 388/388/388
f 386/386/386 387/387/387 377/377/377
f 377/377/377 376/376/376 386/386/386
f 376/376/376 377/377/377 374/374/374
f 165/165/165 376/376/376 375/375/375
f 374/374/374 375/375/375 376/376/376
f 379/379/379 375/375/375 374/374/374
f 374/374/374 378/378/378 379/379/379
f 375/375/375 379/379/379 167/167/167
f 167/167/167 166/166/166 375/375/375
f 375/375/375 166/166/166 165/165/165
f 165/165/165 166/166/166 163/163/163
f 163/163/163 166/166/166 167/167/167
f 169/169/169 167/167/167 379/379/379
f 168/168/168 167/167/167 169/169/169
f 167/167/167 168/168/168 163/163/163
f 379/379/379 381/381/381 169/169/169
f 381/381/381 379/379/379 378/378/378
f 378/378/378 380/380/380 381/381/381
f 169/169/169 170/170/170 168/168/168
f 29/29/29 28/28/28 419/419/419
f 418/418/418 641/641/641 306/306/306
f 28/28/28 306/306/306 641/641/641
f 306/306/306 25/25/25 418/418/418
f 407/407/407 418/418/418 417/417/417
f 417/417/417 418/418/418 25/25/25
f 408/408/408 407/407/407 417/417/417
f 407/407/407 408/408/408 405/405/405
f 405/405/405 406/406/406 407/407/407
f 276/276/276 408/408/408 417/417/417
f 417/417/417 24/24/24 276/276/276
f 25/25/25 24/24/24 417/417/417
f 26/26/26 25/25/25 306/306/306
f 25/25/25 26/26/26 23/23/23
f 23/23/23 24/24/24 25/25/25
f 306/306/306 299/299/299 26/26/26
f 299/299/299 306/306/306 28/28/28
f 267/267/267 13/13/13 26/26/26
f 26/26/26 299/299/299 267/267/267
f 13/13/13 23/23/23 26/26/26
f 16/16/16 36/36/36 9/9/9
f 36/36/36 236/236/236 37/37/37
f 36/36/36 16/16/16 235/235/235
f 235/235/235 236/236/236 36/36/36
f 36/36/36 37/37/37 38/38/38
f 278/278/278 38/38/38 37/37/37
f 286/286/286 277/277/277 37/37/37
f 37/37/37 236/236/236 286/286/286
f 37/37/37 277/277/277 278/278/278
f 286/286/286 236/236/236 287/287/287
f 288/288/288 287/287/287 236/236/236
f 236/236/236 235/235/235 288/288/288
f 292/292/292 288/288/288 235/235/235
f 235/235/235 240/240/240 292/292/292
f 240/240/240 235/235/235 16/16/16
f 291/291/291 289/289/289 288/288/288
f 288/288/288 292/292/292 291/291/291
f 521/521/521 523/523/523 505/505/505
f 523/523/523 521/521/521 515/515/515
f 515/515/515 521/521/521 522/522/522
f 515/515/515 516/516/516 523/523/523
f 522/522/522 514/514/514 515/515/515
f 515/515/515 485/485/485 516/516/516
f 247/247/247 516/516/516 485/485/485
f 485/485/485 248/248/248 247/247/247
f 461/461/461 464/464/464 465/465/465
f 666/666/666 468/468/468 464/464/464
f 464/464/464 461/461/461 666/666/666
f 93/93/93 90/90/90 464/464/464
f 464/464/464 468/468/468 93/93/93
f 87/87/87 90/90/90 93/93/93
f 93/93/93 94/94/94 87/87/87
f 87/87/87 94/94/94 332/332/332
f 332/332/332 86/86/86 87/87/87
f 86/86/86 332/332/332 258/258/258
f 258/258/258 83/83/83 86/86/86
f 85/85/85 86/86/86 83/83/83
f 83/83/83 258/258/258 259/259/259
f 84/84/84 83/83/83 260/260/260
f 259/259/259 260/260/260 83/83/83
f 83/83/83 84/84/84 85/85/85
f 259/259/259 620/620/620 460/460/460
f 460/460/460 260/260/260 259/259/259
f 463/463/463 295/295/295 260/260/260
f 260/260/260 460/460/460 463/463/463
f 260/260/260 295/295/295 84/84/84
f 290/290/290 84/84/84 295/295/295
f 295/295/295 463/463/463 636/636/636
f 636/636/636 296/296/296 295/295/295
f 473/473/473 474/474/474 475/475/475
f 473/473/473 475/475/475 631/631/631
f 631/631/631 632/632/632 473/473/473
f 102/102/102 282/282/282 373/373/373
f 101/101/101 283/283/283 282/282/282
f 282/282/282 102/102/102 101/101/101
f 73/73/73 103/103/103 102/102/102
f 102/102/102 372/372/372 73/73/73
f 373/373/373 372/372/372 102/102/102
f 101/101/101 102/102/102 103/103/103
f 105/105/105 372/372/372 373/373/373
f 373/373/373 284/284/284 105/105/105
f 372/372/372 75/75/75 73/73/73
f 372/372/372 105/105/105 75/75/75
f 104/104/104 105/105/105 284/284/284
f 75/75/75 105/105/105 104/104/104
f 73/73/73 75/75/75 74/74/74
f 103/103/103 73/73/73 72/72/72
f 74/74/74 70/70/70 73/73/73
f 72/72/72 73/73/73 70/70/70
f 72/72/72 110/110/110 103/103/103
f 474/474/474 110/110/110 72/72/72
f 72/72/72 71/71/71 452/452/452
f 70/70/70 71/71/71 72/72/72
f 71/71/71 70/70/70 117/117/117
f 70/70/70 74/74/74 116/116/116
f 116/116/116 117/117/117 70/70/70
f 71/71/71 248/248/248 485/485/485
f 485/485/485 452/452/452 71/71/71
f 117/117/117 248/248/248 71/71/71
f 247/247/247 248/248/248 117/117/117
f 117/117/117 148/148/148 247/247/247
f 117/117/117 116/116/116 147/147/147
f 147/147/147 148/148/148 117/117/117
f 146/146/146 116/116/116 151/151/151
f 146/146/146 147/147/147 116/116/116
f 147/147/147 154/154/154 155/155/155
f 155/155/155 148/148/148 147/147/147
f 153/153/153 154/154/154 147/147/147
f 147/147/147 146/146/146 153/153/153
f 527/527/527 614/614/614 625/625/625
f 625/625/625 511/511/511 527/527/527
f 524/524/524 527/527/527 511/511/511
f 513/513/513 625/625/625 614/614/614
f 614/614/614 528/528/528 513/513/513
f 513/513/513 528/528/528 522/522/522
f 528/528/528 519/519/519 514/514/514
f 514/514/514 522/522/522 528/528/528
f 625/625/625 513/513/513 512/512/512
f 522/522/522 501/501/501 513/513/513
f 513/513/513 501/501/501 500/500/500
f 500/500/500 512/512/512 513/513/513
f 512/512/512 612/612/612 625/625/625
f 511/511/511 625/625/625 612/612/612
f 512/512/512 500/500/500 488/488/488
f 488/488/488 499/499/499 512/512/512
f 612/612/612 512/512/512 499/499/499
f 500/500/500 503/503/503 489/489/489
f 489/489/489 488/488/488 500/500/500
f 502/502/502 503/503/503 500/500/500
f 500/500/500 501/501/501 502/502/502
f 501/501/501 522/522/522 521/521/521
f 521/521/521 502/502/502 501/501/501
f 505/505/505 502/502/502 521/521/521
f 532/532/532 531/531/531 542/542/542
f 531/531/531 530/530/530 697/697/697
f 531/531/531 532/532/532 529/529/529
f 529/529/529 530/530/530 531/531/531
f 697/697/697 530/530/530 533/533/533
f 533/533/533 698/698/698 697/697/697
f 694/694/694 697/697/697 698/698/698
f 698/698/698 699/699/699 694/694/694
f 698/698/698 533/533/533 535/535/535
f 535/535/535 700/700/700 698/698/698
f 699/699/699 698/698/698 700/700/700
f 535/535/535 533/533/533 534/534/534
f 529/529/529 534/534/534 533/533/533
f 533/533/533 530/530/530 529/529/529
f 534/534/534 529/529/529 629/629/629
f 629/629/629 529/529/529 532/532/532
f 532/532/532 628/628/628 629/629/629
f 629/629/629 630/630/630 534/534/534
f 630/630/630 629/629/629 472/472/472
f 472/472/472 629/629/629 628/628/628
f 536/536/536 534/534/534 630/630/630
f 534/534/534 536/536/536 535/535/535
f 630/630/630 710/710/710 536/536/536
f 472/472/472 480/480/480 630/630/630
f 287/287/287 288/288/288 289/289/289
f 287/287/287 362/362/362 286/286/286
f 362/362/362 287/287/287 290/290/290
f 289/289/289 290/290/290 287/287/287
f 85/85/85 289/289/289 291/291/291
f 84/84/84 290/290/290 289/289/289
f 289/289/289 85/85/85 84/84/84
f 291/291/291 88/88/88 85/85/85
f 88/88/88 291/291/291 294/294/294
f 293/293/293 294/294/294 291/291/291
f 291/291/291 292/292/292 293/293/293
f 239/239/239 293/293/293 292/292/292
f 292/292/292 240/240/240 239/239/239
f 640/640/640 293/293/293 239/239/239
f 293/293/293 640/640/640 639/639/639
f 639/639/639 294/294/294 293/293/293
f 465/465/465 89/89/89 294/294/294
f 294/294/294 639/639/639 465/465/465
f 294/294/294 89/89/89 88/88/88
f 88/88/88 87/87/87 86/86/86
f 86/86/86 85/85/85 88/88/88
f 87/87/87 88/88/88 89/89/89
f 89/89/89 465/465/465 464/464/464
f 464/464/464 90/90/90 89/89/89
f 89/89/89 90/90/90 87/87/87
f 462/462/462 465/465/465 639/639/639
f 465/465/465 462/462/462 461/461/461
f 514/514/514 520/520/520 484/484/484
f 520/520/520 615/615/615 458/458/458
f 615/615/615 520/520/520 519/519/519
f 514/514/514 519/519/519 520/520/520
f 485/485/485 515/515/515 484/484/484
f 514/514/514 484/484/484 515/515/515
f 452/452/452 485/485/485 484/484/484
f 484/484/484 454/454/454 452/452/452
f 455/455/455 454/454/454 449/449/449
f 453/453/453 452/452/452 454/454/454
f 454/454/454 455/455/455 453/453/453
f 449/449/449 437/437/437 455/455/455
f 437/437/437 449/449/449 448/448/448
f 692/692/692 453/453/453 455/455/455
f 692/692/692 455/455/455 477/477/477
f 470/470/470 455/455/455 437/437/437
f 455/455/455 470/470/470 476/476/476
f 476/476/476 477/477/477 455/455/455
f 453/453/453 692/692/692 475/475/475
f 475/475/475 474/474/474 453/453/453
f 72/72/72 453/453/453 474/474/474
f 452/452/452 453/453/453 72/72/72
f 475/475/475 692/692/692 693/693/693
f 693/693/693 692/692/692 477/477/477
f 80/80/80 92/92/92 115/115/115
f 92/92/92 80/80/80 81/81/81
f 331/331/331 91/91/91 81/81/81
f 81/81/81 82/82/82 331/331/331
f 81/81/81 91/91/91 92/92/92
f 79/79/79 82/82/82 81/81/81
f 459/459/459 82/82/82 79/79/79
f 79/79/79 457/457/457 459/459/459
f 457/457/457 79/79/79 78/78/78
f 331/331/331 82/82/82 459/459/459
f 459/459/459 467/467/467 331/331/331
f 466/466/466 467/467/467 459/459/459
f 459/459/459 458/458/458 466/466/466
f 458/458/458 459/459/459 457/457/457
f 457/457/457 456/456/456 458/458/458
f 78/78/78 451/451/451 457/457/457
f 457/457/457 451/451/451 450/450/450
f 450/450/450 456/456/456 457/457/457
f 451/451/451 78/78/78 265/265/265
f 265/265/265 448/448/448 451/451/451
f 450/450/450 451/451/451 448/448/448
f 520/520/520 456/456/456 450/450/450
f 450/450/450 484/484/484 520/520/520
f 450/450/450 449/449/449 454/454/454
f 454/454/454 484/484/484 450/450/450
f 448/448/448 449/449/449 450/450/450
f 458/458/458 456/456/456 520/520/520
f 59/59/59 58/58/58 368/368/368
f 368/368/368 365/365/365 59/59/59
f 369/369/369 368/368/368 58/58/58
f 368/368/368 369/369/369 370/370/370
f 59/59/59 365/365/365 364/364/364
f 363/363/363 364/364/364 365/365/365
f 60/60/60 59/59/59 390/390/390
f 364/364/364 390/390/390 59/59/59
f 58/58/58 59/59/59 60/60/60
f 391/391/391 58/58/58 61/61/61
f 58/58/58 391/391/391 369/369/369
f 60/60/60 61/61/61 58/58/58
f 369/369/369 391/391/391 442/442/442
f 442/442/442 690/690/690 369/369/369
f 370/370/370 369/369/369 690/690/690
f 391/391/391 300/300/300 443/443/443
f 443/443/443 442/442/442 391/391/391
f 61/61/61 300/300/300 391/391/391
f 60/60/60 249/249/249 61/61/61
f 300/300/300 61/61/61 249/249/249
f 611/611/611 443/443/443 300/300/300
f 300/300/300 301/301/301 611/611/611
f 249/249/249 301/301/301 300/300/300
f 444/444/444 443/443/443 611/611/611
f 442/442/442 443/443/443 444/444/444
f 690/690/690 442/442/442 445/445/445
f 444/444/444 445/445/445 442/442/442
f 482/482/482 466/466/466 458/458/458
f 74/74/74 69/69/69 68/68/68
f 69/69/69 74/74/74 75/75/75
f 151/151/151 116/116/116 68/68/68
f 68/68/68 77/77/77 151/151/151
f 68/68/68 116/116/116 74/74/74
f 76/76/76 77/77/77 68/68/68
f 68/68/68 67/67/67 76/76/76
f 265/265/265 78/78/78 67/67/67
f 76/76/76 67/67/67 78/78/78
f 81/81/81 76/76/76 79/79/79
f 76/76/76 81/81/81 80/80/80
f 80/80/80 77/77/77 76/76/76
f 78/78/78 79/79/79 76/76/76
f 151/151/151 77/77/77 80/80/80
f 80/80/80 114/114/114 253/253/253
f 80/80/80 253/253/253 151/151/151
f 115/115/115 114/114/114 80/80/80
f 46/46/46 106/106/106 111/111/111
f 111/111/111 49/49/49 46/46/46
f 100/100/100 46/46/46 48/48/48
f 106/106/106 46/46/46 100/100/100
f 50/50/50 47/47/47 46/46/46
f 46/46/46 49/49/49 50/50/50
f 46/46/46 47/47/47 48/48/48
f 100/100/100 99/99/99 106/106/106
f 100/100/100 104/104/104 97/97/97
f 48/48/48 75/75/75 100/100/100
f 104/104/104 100/100/100 75/75/75
f 99/99/99 100/100/100 97/97/97
f 75/75/75 48/48/48 69/69/69
f 48/48/48 47/47/47 66/66/66
f 66/66/66 69/69/69 48/48/48
f 66/66/66 47/47/47 50/50/50
f 50/50/50 265/265/265 66/66/66
f 67/67/67 66/66/66 265/265/265
f 68/68/68 69/69/69 66/66/66
f 66/66/66 67/67/67 68/68/68
f 339/339/339 340/340/340 337/337/337
f 337/337/337 338/338/338 339/339/339
f 673/673/673 674/674/674 671/671/671
f 671/671/671 672/672/672 673/673/673
f 181/181/181 182/182/182 179/179/179
f 179/179/179 180/180/180 181/181/181
f 547/547/547 548/548/548 545/545/545
f 545/545/545 546/546/546 547/547/547
f 160/160/160 153/153/153 146/146/146
f 146/146/146 152/152/152 160/160/160
f 146/146/146 151/151/151 152/152/152
f 152/152/152 151/151/151 253/253/253
f 253/253/253 150/150/150 152/152/152
f 160/160/160 152/152/152 150/150/150
f 153/153/153 160/160/160 144/144/144
f 144/144/144 160/160/160 252/252/252
f 150/150/150 252/252/252 160/160/160
f 144/144/144 135/135/135 153/153/153
f 154/154/154 153/153/153 135/135/135
f 145/145/145 144/144/144 269/269/269
f 252/252/252 269/269/269 144/144/144
f 144/144/144 145/145/145 132/132/132
f 132/132/132 135/135/135 144/144/144
f 269/269/269 252/252/252 159/159/159
f 159/159/159 252/252/252 150/150/150
f 159/159/159 143/143/143 269/269/269
f 269/269/269 250/250/250 145/145/145
f 250/250/250 269/269/269 143/143/143
f 145/145/145 130/130/130 120/120/120
f 120/120/120 132/132/132 145/145/145
f 130/130/130 145/145/145 250/250/250
f 132/132/132 120/120/120 119/119/119
f 119/119/119 133/133/133 132/132/132
f 134/134/134 135/135/135 132/132/132
f 132/132/132 133/133/133 134/134/134
f 329/329/329 330/330/330 327/327/327
f 327/327/327 328/328/328 329/329/329
f 664/664/664 665/665/665 662/662/662
f 662/662/662 663/663/663 664/664/664
f 426/426/426 427/427/427 428/428/428
f 427/427/427 426/426/426 404/404/404
f 601/601/601 412/412/412 426/426/426
f 426/426/426 403/403/403 404/404/404
f 403/403/403 426/426/426 412/412/412
f 640/640/640 604/604/604 601/601/601
f 412/412/412 601/601/601 604/604/604
f 239/239/239 604/604/604 640/640/640
f 604/604/604 603/603/603 409/409/409
f 604/604/604 409/409/409 412/412/412
f 603/603/603 604/604/604 239/239/239
f 412/412/412 411/411/411 403/403/403
f 411/411/411 412/412/412 409/409/409
f 411/411/411 402/402/402 403/403/403
f 403/403/403 400/400/400 404/404/404
f 54/54/54 57/57/57 261/261/261
f 54/54/54 53/53/53 96/96/96
f 95/95/95 53/53/53 52/52/52
f 53/53/53 95/95/95 96/96/96
f 440/440/440 96/96/96 95/95/95
f 95/95/95 52/52/52 440/440/440
f 366/366/366 57/57/57 56/56/56
f 57/57/57 366/366/366 367/367/367
f 367/367/367 261/261/261 57/57/57
f 686/686/686 363/363/363 56/56/56
f 56/56/56 363/363/363 366/366/366
f 366/366/366 365/365/365 368/368/368
f 368/368/368 367/367/367 366/366/366
f 365/365/365 366/366/366 363/363/363
f 262/262/262 261/261/261 367/367/367
f 367/367/367 370/370/370 262/262/262
f 370/370/370 367/367/367 368/368/368
f 471/471/471 480/480/480 472/472/472
f 628/628/628 469/469/469 472/472/472
f 471/471/471 472/472/472 469/469/469
f 471/471/471 481/481/481 480/480/480
f 479/479/479 480/480/480 481/481/481
f 478/478/478 471/471/471 470/470/470
f 469/469/469 470/470/470 471/471/471
f 111/111/111 478/478/478 436/436/436
f 470/470/470 436/436/436 478/478/478
f 437/437/437 436/436/436 470/470/470
f 436/436/436 49/49/49 111/111/111
f 50/50/50 49/49/49 436/436/436
f 436/436/436 438/438/438 50/50/50
f 436/436/436 437/437/437 438/438/438
f 448/448/448 438/438/438 437/437/437
f 50/50/50 438/438/438 448/448/448
f 448/448/448 265/265/265 50/50/50
f 479/479/479 481/481/481 263/263/263
f 263/263/263 264/264/264 479/479/479
f 107/107/107 264/264/264 263/263/263
f 325/325/325 326/326/326 323/323/323
f 323/323/323 324/324/324 325/325/325
f 660/660/660 661/661/661 658/658/658
f 658/658/658 659/659/659 660/660/660
f 139/139/139 138/138/138 142/142/142
f 142/142/142 143/143/143 139/139/139
f 156/156/156 139/139/139 143/143/143
f 143/143/143 159/159/159 156/156/156
f 158/158/158 140/140/140 139/139/139
f 139/139/139 156/156/156 158/158/158
f 138/138/138 139/139/139 140/140/140
f 127/127/127 126/126/126 138/138/138
f 138/138/138 141/141/141 127/127/127
f 140/140/140 141/141/141 138/138/138
f 126/126/126 127/127/127 124/124/124
f 124/124/124 125/125/125 126/126/126
f 157/157/157 158/158/158 156/156/156
f 149/149/149 156/156/156 159/159/159
f 156/156/156 149/149/149 157/157/157
f 159/159/159 150/150/150 149/149/149
f 113/113/113 162/162/162 149/149/149
f 149/149/149 114/114/114 113/113/113
f 149/149/149 162/162/162 161/161/161
f 161/161/161 157/157/157 149/149/149
f 149/149/149 150/150/150 114/114/114
f 114/114/114 150/150/150 253/253/253
f 114/114/114 115/115/115 112/112/112
f 112/112/112 113/113/113 114/114/114
f 113/113/113 483/483/483 517/517/517
f 517/517/517 162/162/162 113/113/113
f 335/335/335 336/336/336 333/333/333
f 333/333/333 334/334/334 335/335/335
f 669/669/669 670/670/670 667/667/667
f 667/667/667 668/668/668 669/669/669
f 276/276/276 24/24/24 23/23/23
f 23/23/23 12/12/12 276/276/276
f 12/12/12 23/23/23 13/13/13
f 408/408/408 276/276/276 275/275/275
f 275/275/275 276/276/276 12/12/12
f 275/275/275 405/405/405 408/408/408
f 12/12/12 11/11/11 275/275/275
f 11/11/11 12/12/12 13/13/13
f 14/14/14 13/13/13 267/267/267
f 13/13/13 14/14/14 11/11/11
f 267/267/267 266/266/266 14/14/14
f 267/267/267 299/299/299 27/27/27
f 27/27/27 20/20/20 267/267/267
f 267/267/267 20/20/20 19/19/19
f 19/19/19 266/266/266 267/267/267
f 28/28/28 27/27/27 299/299/299
f 20/20/20 27/27/27 30/30/30
f 29/29/29 30/30/30 27/27/27
f 27/27/27 28/28/28 29/29/29
f 30/30/30 21/21/21 20/20/20
f 321/321/321 322/322/322 319/319/319
f 319/319/319 320/320/320 321/321/321
f 656/656/656 657/657/657 654/654/654
f 654/654/654 655/655/655 656/656/656
f 317/317/317 318/318/318 315/315/315
f 315/315/315 316/316/316 317/317/317
f 652/652/652 653/653/653 650/650/650
f 650/650/650 651/651/651 652/652/652
f 19/19/19 20/20/20 21/21/21
f 21/21/21 22/22/22 19/19/19
f 237/237/237 15/15/15 21/21/21
f 21/21/21 30/30/30 237/237/237
f 22/22/22 21/21/21 15/15/15
f 30/30/30 29/29/29 238/238/238
f 238/238/238 237/237/237 30/30/30
f 240/240/240 15/15/15 237/237/237
f 239/239/239 240/240/240 237/237/237
f 237/237/237 238/238/238 239/239/239
f 16/16/16 15/15/15 240/240/240
f 17/17/17 18/18/18 15/15/15
f 15/15/15 16/16/16 17/17/17
f 45/45/45 268/268/268 18/18/18
f 18/18/18 17/17/17 45/45/45
f 17/17/17 8/8/8 45/45/45
f 45/45/45 8/8/8 32/32/32
f 45/45/45 32/32/32 35/35/35
f 45/45/45 34/34/34 43/43/43
f 43/43/43 268/268/268 45/45/45
f 34/34/34 45/45/45 35/35/35
f 8/8/8 6/6/6 32/32/32
f 32/32/32 271/271/271 35/35/35
f 271/271/271 32/32/32 31/31/31
f 439/439/439 51/51/51 621/621/621
f 51/51/51 262/262/262 621/621/621
f 440/440/440 52/52/52 51/51/51
f 51/51/51 439/439/439 440/440/440
f 261/261/261 51/51/51 54/54/54
f 51/51/51 261/261/261 262/262/262
f 53/53/53 54/54/54 51/51/51
f 51/51/51 52/52/52 53/53/53
f 621/621/621 441/441/441 439/439/439
f 96/96/96 440/440/440 439/439/439
f 439/439/439 55/55/55 96/96/96
f 55/55/55 439/439/439 441/441/441
f 689/689/689 621/621/621 262/262/262
f 441/441/441 621/621/621 689/689/689
f 56/56/56 441/441/441 686/686/686
f 689/689/689 686/686/686 441/441/441
f 441/441/441 56/56/56 55/55/55
f 96/96/96 55/55/55 54/54/54
f 57/57/57 54/54/54 55/55/55
f 55/55/55 56/56/56 57/57/57
f 444/444/444 62/62/62 390/390/390
f 390/390/390 445/445/445 444/444/444
f 444/444/444 611/611/611 447/447/447
f 446/446/446 444/444/444 447/447/447
f 62/62/62 444/444/444 446/446/446
f 445/445/445 687/687/687 690/690/690
f 445/445/445 390/390/390 688/688/688
f 688/688/688 687/687/687 445/445/445
f 390/390/390 62/62/62 60/60/60
f 446/446/446 63/63/63 62/62/62
f 64/64/64 60/60/60 62/62/62
f 62/62/62 63/63/63 64/64/64
f 60/60/60 65/65/65 249/249/249
f 64/64/64 65/65/65 60/60/60
f 688/688/688 393/393/393 392/392/392
f 363/363/363 688/688/688 392/392/392
f 687/687/687 688/688/688 363/363/363
f 690/690/690 687/687/687 686/686/686
f 363/363/363 686/686/686 687/687/687
f 363/363/363 392/392/392 364/364/364
f 364/364/364 392/392/392 393/393/393
f 686/686/686 689/689/689 690/690/690
f 262/262/262 370/370/370 689/689/689
f 690/690/690 689/689/689 370/370/370
f 185/185/185 186/186/186 183/183/183
f 183/183/183 184/184/184 185/185/185
f 551/551/551 552/552/552 549/549/549
f 549/549/549 550/550/550 551/551/551
f 483/483/483 113/113/113 112/112/112
f 161/161/161 162/162/162 517/517/517
f 517/517/517 526/526/526 161/161/161
f 517/517/517 518/518/518 527/527/527
f 527/527/527 524/524/524 517/517/517
f 526/526/526 517/517/517 524/524/524
f 517/517/517 483/483/483 518/518/518
f 458/458/458 615/615/615 483/483/483
f 483/483/483 615/615/615 518/518/518
f 458/458/458 483/483/483 482/482/482
f 112/112/112 482/482/482 483/483/483
f 527/527/527 518/518/518 614/614/614
f 519/519/519 518/518/518 615/615/615
f 528/528/528 614/614/614 518/518/518
f 518/518/518 519/519/519 528/528/528
f 313/313/313 314/314/314 311/311/311
f 311/311/311 312/312/312 313/313/313
f 648/648/648 649/649/649 646/646/646
f 646/646/646 647/647/647 648/648/648
f 309/309/309 310/310/310 307/307/307
f 307/307/307 308/308/308 309/309/309
f 644/644/644 645/645/645 642/642/642
f 642/642/642 643/643/643 644/644/644
f 263/263/263 108/108/108 107/107/107
f 107/107/107 108/108/108 109/109/109
f 99/99/99 109/109/109 108/108/108
f 99/99/99 98/98/98 109/109/109
f 281/281/281 109/109/109 98/98/98
f 97/97/97 98/98/98 99/99/99
f 98/98/98 280/280/280 281/281/281
f 98/98/98 97/97/97 279/279/279
f 279/279/279 280/280/280 98/98/98
f 281/281/281 168/168/168 170/170/170
f 170/170/170 394/394/394 281/281/281
f 168/168/168 281/281/281 280/280/280
f 280/280/280 163/163/163 168/168/168
f 164/164/164 163/163/163 280/280/280
f 280/280/280 279/279/279 164/164/164
f 175/175/175 164/164/164 279/279/279
f 279/279/279 285/285/285 175/175/175
f 285/285/285 279/279/279 97/97/97
f 97/97/97 104/104/104 285/285/285
f 176/176/176 175/175/175 285/285/285
f 213/213/213 214/214/214 211/211/211
f 211/211/211 212/212/212 213/213/213
f 579/579/579 580/580/580 577/577/577
f 577/577/577 578/578/578 579/579/579
f 209/209/209 210/210/210 207/207/207
f 207/207/207 208/208/208 209/209/209
f 575/575/575 576/576/576 573/573/573
f 573/573/573 574/574/574 575/575/575
f 217/217/217 218/218/218 215/215/215
f 215/215/215 216/216/216 217/217/217
f 583/583/583 584/584/584 581/581/581
f 581/581/581 582/582/582 583/583/583
f 246/246/246 241/241/241 243/243/243
f 241/241/241 242/242/242 243/243/243
f 245/245/245 246/246/246 243/243/243
f 243/243/243 242/242/242 244/244/244
f 244/244/244 245/245/245 243/243/243
f 610/610/610 606/606/606 605/605/605
f 605/605/605 606/606/606 607/607/607
f 609/609/609 606/606/606 610/610/610
f 606/606/606 608/608/608 607/607/607
f 608/608/608 606/606/606 609/609/609
f 189/189/189 190/190/190 187/187/187
f 187/187/187 188/188/188 189/189/189
f 555/555/555 556/556/556 553/553/553
f 553/553/553 554/554/554 555/555/555
f 193/193/193 194/194/194 191/191/191
f 191/191/191 192/192/192 193/193/193
f 559/559/559 560/560/560 557/557/557
f 557/557/557 558/558/558 559/559/559
f 298/298/298 431/431/431 274/274/274
f 431/431/431 298/298/298 297/297/297
f 429/429/429 297/297/297 278/278/278
f 297/297/297 429/429/429 431/431/431
f 429/429/429 427/427/427 404/404/404
f 404/404/404 399/399/399 429/429/429
f 278/278/278 427/427/427 429/429/429
f 430/430/430 431/431/431 429/429/429
f 429/429/429 399/399/399 430/430/430
f 404/404/404 400/400/400 399/399/399
f 3/3/3 4/4/4 1/1/1
f 1/1/1 2/2/2 3/3/3
f 39/39/39 5/5/5 10/10/10
f 31/31/31 6/6/6 5/5/5
f 5/5/5 41/41/41 31/31/31
f 41/41/41 5/5/5 39/39/39
f 10/10/10 5/5/5 7/7/7
f 5/5/5 6/6/6 7/7/7
f 10/10/10 38/38/38 39/39/39
f 278/278/278 297/297/297 39/39/39
f 39/39/39 38/38/38 278/278/278
f 40/40/40 39/39/39 297/297/297
f 39/39/39 40/40/40 41/41/41
f 38/38/38 10/10/10 36/36/36
f 36/36/36 10/10/10 9/9/9
f 9/9/9 10/10/10 7/7/7
f 7/7/7 6/6/6 8/8/8
f 8/8/8 9/9/9 7/7/7
f 17/17/17 9/9/9 8/8/8
f 9/9/9 17/17/17 16/16/16
f 221/221/221 222/222/222 219/219/219
f 219/219/219 220/220/220 221/221/221
f 587/587/587 588/588/588 585/585/585
f 585/585/585 586/586/586 587/587/587
f 353/353/353 345/345/345 348/348/348
f 347/347/347 348/348/348 345/345/345
f 345/345/345 346/346/346 347/347/347
f 357/357/357 358/358/358 353/353/353
f 353/353/353 354/354/354 357/357/357
f 348/348/348 354/354/354 353/353/353
f 348/348/348 677/677/677 681/681/681
f 681/681/681 354/354/354 348/348/348
f 677/677/677 348/348/348 347/347/347
f 678/678/678 347/347/347 360/360/360
f 347/347/347 678/678/678 677/677/677
f 360/360/360 347/347/347 346/346/346
f 346/346/346 359/359/359 360/360/360
f 360/360/360 684/684/684 678/678/678
f 357/357/357 354/354/354 681/681/681
f 681/681/681 683/683/683 357/357/357
f 357/357/357 683/683/683 685/685/685
f 357/357/357 361/361/361 358/358/358
f 197/197/197 198/198/198 195/195/195
f 195/195/195 196/196/196 197/197/197
f 563/563/563 564/564/564 561/561/561
f 561/561/561 562/562/562 563/563/563
f 225/225/225 226/226/226 223/223/223
f 223/223/223 224/224/224 225/225/225
f 591/591/591 592/592/592 589/589/589
f 589/589/589 590/590/590 591/591/591
f 229/229/229 230/230/230 227/227/227
f 227/227/227 228/228/228 229/229/229
f 595/595/595 596/596/596 593/593/593
f 593/593/593 594/594/594 595/595/595
f 201/201/201 202/202/202 199/199/199
f 199/199/199 200/200/200 201/201/201
f 567/567/567 568/568/568 565/565/565
f 565/565/565 566/566/566 567/567/567
f 432/432/432 433/433/433 425/425/425
f 410/410/410 624/624/624 435/435/435
f 435/435/435 421/421/421 402/402/402
f 435/435/435 624/624/624 434/434/434
f 402/402/402 421/421/421 401/401/401
f 422/422/422 421/421/421 627/627/627
f 401/401/401 421/421/421 422/422/422
f 400/400/400 402/402/402 401/401/401
f 399/399/399 401/401/401 422/422/422
f 399/399/399 400/400/400 401/401/401
f 627/627/627 626/626/626 422/422/422
f 422/422/422 626/626/626 431/431/431
f 431/431/431 430/430/430 422/422/422
f 422/422/422 430/430/430 399/399/399
f 626/626/626 627/627/627 270/270/270
f 431/431/431 626/626/626 273/273/273
f 270/270/270 273/273/273 626/626/626
f 272/272/272 273/273/273 270/270/270
f 270/270/270 271/271/271 272/272/272
f 273/273/273 274/274/274 431/431/431
f 40/40/40 274/274/274 273/273/273
f 273/273/273 272/272/272 40/40/40
f 31/31/31 272/272/272 271/271/271
f 40/40/40 272/272/272 31/31/31
f 298/298/298 274/274/274 40/40/40
f 297/297/297 298/298/298 40/40/40
f 31/31/31 41/41/41 40/40/40
f 6/6/6 31/31/31 32/32/32
f 35/35/35 304/304/304 305/305/305
f 305/305/305 33/33/33 35/35/35
f 304/304/304 35/35/35 271/271/271
f 33/33/33 34/34/34 35/35/35
f 33/33/33 44/44/44 34/34/34
f 34/34/34 44/44/44 42/42/42
f 42/42/42 43/43/43 34/34/34
f 33/33/33 305/305/305 302/302/302
f 302/302/302 44/44/44 33/33/33
f 424/424/424 423/423/423 305/305/305
f 305/305/305 304/304/304 424/424/424
f 302/302/302 305/305/305 423/423/423
f 627/627/627 424/424/424 304/304/304
f 304/304/304 270/270/270 627/627/627
f 271/271/271 270/270/270 304/304/304
f 421/421/421 424/424/424 627/627/627
f 435/435/435 424/424/424 421/421/421
f 425/425/425 424/424/424 435/435/435
f 423/423/423 424/424/424 425/425/425
f 423/423/423 433/433/433 302/302/302
f 423/423/423 425/425/425 433/433/433
f 434/434/434 425/425/425 435/435/435
f 425/425/425 434/434/434 432/432/432
f 205/205/205 206/206/206 203/203/203
f 203/203/203 204/204/204 205/205/205
f 571/571/571 572/572/572 569/569/569
f 569/569/569 570/570/570 571/571/571
f 233/233/233 234/234/234 231/231/231
f 231/231/231 232/232/232 233/233/233
f 599/599/599 600/600/600 597/597/597
f 597/597/597 598/598/598 599/599/599
f 397/397/397 398/398/398 395/395/395
f 395/395/395 396/396/396 397/397/397
f 618/618/618 619/619/619 616/616/616
f 616/616/616 617/617/617 618/618/618
f 256/256/256 257/257/257 254/254/254
f 254/254/254 255/255/255 256/256/256
f 302/302/302 433/433/433 432/432/432
f 432/432/432 303/303/303 302/302/302
f 302/302/302 303/303/303 42/42/42
f 42/42/42 44/44/44 302/302/302
