# styxosaurus reconstructed from live game memory
v -0.00003 48.24602 56.21362
v -13.68266 37.88580 56.19309
v -17.79114 41.33869 37.49825
v -0.00002 50.41079 37.53342
v -6.70348 29.63910 94.20444
v -9.49974 29.69467 79.96396
v -0.00004 41.59164 79.96594
v -0.00004 37.66482 94.20465
v -5.82121 21.81145 79.95528
v -3.19154 23.83639 94.20234
v -19.05334 42.64442 -0.19212
v -17.00667 41.97467 -13.77912
v 0.00001 49.04956 -13.59754
v 0.00000 50.18965 0.14241
v -6.59277 27.67525 -57.66508
v -12.00739 25.18125 -33.15345
v 0.00002 21.67595 -33.15333
v 0.00003 24.28385 -57.66511
v -8.38516 40.47780 -57.66504
v -11.94274 41.31342 -33.15787
v -14.86244 21.49445 -13.80722
v 0.00001 18.97905 -13.65765
v -2.71603 29.63742 125.11642
v -3.59057 29.63744 116.30242
v -0.00005 33.52489 116.29931
v -0.00006 31.91585 125.07211
v -0.00006 29.63742 127.48206
v -12.23348 35.29237 64.83382
v -0.00003 46.27623 64.83392
v -4.73310 29.63824 106.17754
v -0.00005 35.05627 106.17732
v -0.00005 25.20107 106.17720
v 0.00005 27.58348 -117.35298
v 0.00006 27.55758 -132.73372
v -4.30720 30.26535 -132.73369
v -4.04570 30.24427 -117.35289
v -5.34874 40.69563 -117.35265
v -5.69382 40.72412 -132.73341
v -0.00004 20.57644 79.96050
v -0.00004 23.37881 94.20341
v -0.00001 51.03061 18.18853
v -19.57206 42.79551 18.23124
v -24.06104 22.94583 18.18355
v -21.67007 22.61413 37.20039
v -13.61163 18.10834 37.21104
v -15.65426 18.55755 18.18804
v -12.23348 35.29237 64.83382
v -0.00003 46.27623 64.83392
v -0.00005 25.98386 116.30131
v 0.00003 45.90474 -57.66502
v 0.00002 47.34681 -33.15332
v -0.00006 26.89565 125.07436
v -4.38928 45.27903 -154.45784
v 0.00007 48.10115 -154.43233
v 0.00007 46.69955 -146.46832
v -6.03891 40.75259 -146.46860
v 0.00005 45.80819 -99.57361
v -5.69002 40.57866 -99.57593
v 0.00005 46.28423 -117.35225
v 0.00004 25.97710 -79.75702
v 0.00005 27.08725 -99.57660
v -4.13483 29.75553 -99.57652
v -4.22396 28.65288 -79.75695
v -6.03130 40.46170 -79.75599
v 0.00004 45.33215 -79.75175
v 0.00003 45.90474 -57.66502
v -8.38516 40.47780 -57.66504
v -6.59277 27.67525 -57.66508
v 0.00003 24.28385 -57.66511
v -31.93020 26.36218 -14.27084
v -21.79606 27.03137 -15.29650
v -22.94379 28.63255 -9.35579
v -31.72322 28.04945 -9.38603
v -23.89635 26.54015 -0.12773
v -31.69054 26.50610 -5.85161
v -49.99914 27.63110 -9.14794
v -58.91649 27.11520 -6.15418
v -60.01210 26.15135 -8.95356
v -50.49065 26.32195 -12.97231
v -67.76783 25.96451 -5.02181
v -67.10290 26.55144 -3.19755
v -71.99097 25.95708 -1.32991
v -66.35619 25.97976 -1.51776
v -66.02285 24.59058 -0.69180
v -67.25611 24.28443 -3.29127
v -73.82754 24.57668 -0.76189
v -50.64516 24.55335 -14.24157
v -31.97260 24.57949 -15.32625
v -66.02285 24.59058 -0.69180
v -73.82754 24.57668 -0.76189
v -68.19558 24.58837 -6.12235
v -60.52267 24.62985 -10.16273
v -59.15965 24.21662 -6.57898
v -57.94382 26.10431 -3.65234
v -49.51042 25.93521 -5.90897
v -49.35817 24.57673 -4.67612
v -57.56373 24.62691 -2.67288
v -49.35817 24.57673 -4.67612
v -50.01788 24.07663 -9.32449
v -57.56373 24.62691 -2.67288
v -23.89635 26.54015 -0.12773
v -22.94379 28.63255 -9.35579
v -23.55092 23.07782 -0.34965
v -25.00579 24.83268 0.46041
v -15.88145 20.06596 -0.34604
v -22.50489 23.49994 -9.70157
v -0.00000 17.43058 -0.37038
v -31.67799 24.55893 -4.85685
v -25.00579 24.83268 0.46041
v -23.55092 23.07782 -0.34965
v -23.55092 23.07782 -0.34965
v -22.50489 23.49994 -9.70157
v -31.71877 24.02982 -9.78103
v -31.67799 24.55893 -4.85685
v -0.00001 15.96797 18.18852
v -22.19906 23.91795 -16.72442
v -0.00002 15.64917 37.21225
v -7.24253 41.09339 -154.49698
v -5.78290 30.68247 -154.52359
v -4.56870 30.45800 -146.46887
v 0.00007 27.70325 -146.46887
v 0.00007 27.91014 -154.51855
v 0.00006 46.49190 -132.73308
v -26.02846 22.67500 51.08293
v -35.29260 21.94316 53.12747
v -35.98354 21.13470 49.82388
v -26.63871 21.64418 47.23780
v -44.68848 20.76897 52.95742
v -44.34657 21.33808 55.09661
v -49.41264 20.73262 56.63493
v -43.86829 20.81263 56.98098
v -43.73437 19.51259 57.91381
v -44.31914 19.20517 55.74761
v -50.54243 19.33456 56.94699
v -18.69936 20.35895 55.60960
v -25.19243 19.90085 55.31422
v -25.33164 21.68644 54.49955
v -18.23584 23.21229 54.72880
v -34.67231 21.07273 55.53630
v -34.51003 19.72978 56.45654
v -43.73437 19.51259 57.91381
v -50.54243 19.33456 56.94699
v -45.04838 19.43899 51.70535
v -36.19023 19.62277 48.52846
v -35.24264 19.23954 52.64439
v -34.51003 19.72978 56.45654
v -25.19243 19.90085 55.31422
v -26.55573 19.42252 50.61605
v -26.71409 19.84093 45.95667
v -8.22212 19.95704 64.83383
v -9.11152 18.88908 55.05744
v -18.69936 20.35895 55.60960
v -21.79606 27.03137 -15.29650
v -18.23584 23.21229 54.72880
v -14.35538 24.58710 64.83382
v -0.00003 18.15445 64.83383
v -8.22212 19.95704 64.83383
v -22.19906 23.91795 -16.72442
v -18.69936 20.35895 55.60960
v -18.43024 20.60051 49.79713
v -19.08238 25.12689 50.05704
v -20.06601 23.92058 44.95083
v -0.00003 17.06953 55.05676
v -0.00003 18.15445 64.83383
v -18.43024 20.60051 49.79713
v -14.35538 24.58710 64.83382
v -20.06601 23.92058 44.95083
v -19.08238 25.12689 50.05704
v -20.41578 20.85396 43.55090
v -20.41578 20.85396 43.55090
v -5.53053 42.85892 -171.61137
v -5.20971 40.43880 -171.64490
v -5.76198 40.92747 -173.92271
v -7.66518 37.78090 -173.36035
v -7.95730 37.96184 -169.97331
v -6.50920 41.12350 -169.27074
v -3.83353 29.57565 -177.19705
v -1.49477 30.93913 -182.50760
v -1.76021 33.50661 -183.36925
v -4.58351 33.51133 -177.19928
v -6.38930 28.00399 -161.31868
v -6.08251 27.19404 -166.13591
v -7.62979 34.46688 -166.09216
v -7.85805 33.91592 -161.32480
v -7.04834 33.39502 -171.79756
v -5.40450 27.96593 -171.79825
v -1.53334 37.79219 -183.41951
v -1.83023 40.16486 -177.49237
v -4.48976 38.24333 -177.33286
v 0.00008 38.08565 -184.10831
v -1.56461 35.17470 -183.71541
v 0.00008 35.17584 -184.90439
v -2.37840 41.91224 -173.80997
v 0.00007 26.09388 -161.28201
v -4.55273 35.18068 -177.19176
v -6.78344 34.52257 -171.86966
v -5.01384 42.16652 -171.53731
v -7.16543 40.18008 -171.62358
v -5.16987 40.52252 -173.97194
v -7.22217 37.72963 -173.42059
v -7.70234 37.77279 -169.78101
v -5.91525 40.89592 -168.92036
v 0.00008 26.99035 -171.79834
v 0.00008 28.80404 -177.19531
v -7.38245 39.89433 -166.09015
v -7.49777 35.43195 -166.14951
v -3.81542 44.70744 -166.07526
v -4.27354 45.78214 -161.35237
v -8.13305 40.80775 -161.34146
v 0.00007 25.70309 -166.05119
v -4.58351 33.51133 -177.19928
v -1.76021 33.50661 -183.36925
v 0.00008 33.50954 -184.53683
v 0.00008 29.19366 -171.86089
v 0.00008 29.19146 -171.85876
v -7.04834 33.39502 -171.79756
v -7.62979 34.46688 -166.09216
v 0.00008 29.19366 -171.86089
v 0.00007 32.68257 -159.76678
v -7.85805 33.91592 -161.32480
v -1.56461 35.17470 -183.71541
v -4.55273 35.18068 -177.19176
v 0.00008 35.45192 -177.18106
v 0.00008 35.17584 -184.90439
v -7.49777 35.43195 -166.14951
v 0.00008 36.11995 -165.60242
v 0.00008 36.11827 -165.61081
v -6.78344 34.52257 -171.86966
v 0.00008 35.45247 -177.17329
v -7.85805 33.91592 -161.32480
v 0.00007 37.16128 -160.11923
v 0.00008 45.95365 -166.06473
v -3.18606 43.70707 -169.37274
v 0.00008 44.17805 -169.35431
v -2.70176 43.18977 -171.59743
v -6.90965 36.03679 -167.11980
v -8.33546 33.09701 -168.26408
v -6.59267 35.78153 -169.25287
v -6.98729 33.82037 -167.44955
v -8.54487 36.24938 -166.42023
v -7.22400 33.95998 -165.49173
v -7.03628 35.70966 -163.69778
v -8.82074 33.06216 -164.75890
v -6.90721 35.99084 -165.75108
v -6.65278 33.38831 -170.66563
v -8.19399 35.81732 -169.60712
v -6.88789 33.52793 -168.84958
v -6.42601 35.79479 -170.03828
v -7.85182 32.85501 -171.46935
v -6.10903 35.53953 -172.17136
v -5.66822 35.49204 -173.23880
v -6.78712 32.55225 -174.37718
v -4.84375 35.23678 -175.23912
v -5.64566 33.03167 -173.69023
v -7.60541 35.46069 -172.80785
v -6.43751 33.03125 -171.79095
v -4.19172 35.87325 -176.32126
v -5.31063 32.93347 -177.45964
v -3.36725 35.61799 -178.32161
v -4.16916 33.03167 -176.63857
v -5.94321 35.46066 -175.86111
v -4.96102 33.03125 -174.97835
v -2.93450 35.87325 -179.37436
v -3.68864 32.93347 -180.51274
v -2.11004 35.61799 -181.37471
v -2.91194 33.03167 -179.87086
v -4.68600 35.46066 -178.95309
v -3.70380 33.17128 -178.03145
v -1.84119 35.81535 -182.33690
v -1.52640 33.07730 -184.65926
v -0.33203 35.79515 -184.29675
v -1.37257 33.03167 -182.80766
v -3.22191 35.46066 -182.14986
v -2.32332 33.17128 -181.02608
v 0.00008 42.30088 -173.94362
v 0.00008 43.65487 -171.59631
v 0.00008 40.67263 -177.51448
v 0.00008 30.12829 -182.91835
v 0.00008 33.50954 -184.53683
v 0.00007 32.68257 -159.76678
v 0.00007 47.69399 -161.33932
v 17.79110 41.33869 37.49827
v 13.68260 37.88580 56.19310
v 6.70339 29.63910 94.20444
v 9.49966 29.69467 79.96397
v 5.82114 21.81145 79.95528
v 3.19145 23.83639 94.20234
v 19.05334 42.64441 -0.19210
v 17.00668 41.97467 -13.77911
v 6.59283 27.67525 -57.66508
v 12.00742 25.18125 -33.15343
v 11.94277 41.31342 -33.15786
v 8.38522 40.47780 -57.66503
v 14.86245 21.49445 -13.80721
v 2.71591 29.63742 125.11642
v 3.59046 29.63744 116.30242
v 12.23342 35.29237 64.83383
v 4.73300 29.63824 106.17754
v 4.04580 30.24427 -117.35289
v 4.30732 30.26535 -132.73369
v 5.34885 40.69563 -117.35265
v 5.69394 40.72412 -132.73341
v 19.57204 42.79551 18.23125
v 24.06102 22.94583 18.18357
v 15.65424 18.55754 18.18806
v 13.61160 18.10834 37.21106
v 21.67003 22.61413 37.20042
v 12.23342 35.29237 64.83383
v 4.38942 45.27903 -154.45784
v 6.03904 40.75259 -146.46860
v 5.69011 40.57866 -99.57593
v 4.22403 28.65288 -79.75695
v 4.13492 29.75553 -99.57652
v 6.03137 40.46170 -79.75599
v 8.38522 40.47780 -57.66503
v 6.59283 27.67525 -57.66508
v 31.93022 26.36218 -14.27081
v 31.72324 28.04945 -9.38600
v 22.94379 28.63255 -9.35577
v 21.79608 27.03137 -15.29647
v 31.69055 26.50610 -5.85158
v 23.89635 26.54015 -0.12770
v 49.99915 27.63110 -9.14789
v 50.49068 26.32195 -12.97226
v 60.01212 26.15135 -8.95350
v 58.91651 27.11520 -6.15412
v 67.76784 25.96451 -5.02175
v 71.99098 25.95708 -1.32984
v 67.10291 26.55144 -3.19749
v 66.35620 25.97976 -1.51770
v 66.02286 24.59058 -0.69173
v 73.82755 24.57668 -0.76182
v 67.25612 24.28443 -3.29121
v 50.64519 24.55335 -14.24152
v 31.97262 24.57949 -15.32622
v 66.02286 24.59058 -0.69173
v 73.82755 24.57668 -0.76182
v 60.52269 24.62985 -10.16267
v 68.19559 24.58837 -6.12229
v 59.15966 24.21662 -6.57893
v 57.94382 26.10431 -3.65229
v 57.56374 24.62690 -2.67283
v 49.35818 24.57673 -4.67607
v 49.51044 25.93521 -5.90892
v 49.35818 24.57673 -4.67607
v 57.56374 24.62690 -2.67283
v 50.01790 24.07663 -9.32444
v 22.94379 28.63255 -9.35577
v 23.89635 26.54015 -0.12770
v 23.55092 23.07782 -0.34963
v 25.00579 24.83268 0.46043
v 22.50490 23.49994 -9.70155
v 15.88145 20.06596 -0.34603
v 31.67800 24.55893 -4.85682
v 23.55092 23.07782 -0.34963
v 25.00579 24.83268 0.46043
v 23.55092 23.07782 -0.34963
v 31.67800 24.55893 -4.85682
v 31.71878 24.02982 -9.78100
v 22.50490 23.49994 -9.70155
v 22.19908 23.91795 -16.72440
v 7.24267 41.09339 -154.49698
v 5.78304 30.68247 -154.52359
v 4.56883 30.45800 -146.46887
v 26.02841 22.67500 51.08296
v 26.63867 21.64418 47.23783
v 35.98349 21.13470 49.82391
v 35.29256 21.94316 53.12751
v 44.68844 20.76897 52.95746
v 49.41259 20.73262 56.63499
v 44.34652 21.33808 55.09665
v 43.86825 20.81263 56.98102
v 43.73432 19.51259 57.91385
v 50.54238 19.33456 56.94704
v 44.31908 19.20517 55.74765
v 18.69931 20.35895 55.60962
v 18.23579 23.21229 54.72881
v 25.33159 21.68644 54.49957
v 25.19238 19.90085 55.31425
v 34.67226 21.07273 55.53634
v 43.73432 19.51259 57.91385
v 34.50997 19.72978 56.45658
v 50.54238 19.33456 56.94704
v 36.19019 19.62277 48.52850
v 45.04833 19.43899 51.70540
v 35.24259 19.23954 52.64443
v 26.55568 19.42252 50.61608
v 25.19238 19.90085 55.31425
v 34.50997 19.72978 56.45658
v 26.71405 19.84093 45.95670
v 8.22206 19.95705 64.83385
v 18.69931 20.35895 55.60962
v 9.11146 18.88908 55.05745
v 21.79608 27.03137 -15.29647
v 18.23579 23.21229 54.72881
v 14.35532 24.58710 64.83383
v 8.22206 19.95705 64.83385
v 22.19908 23.91795 -16.72440
v 18.69931 20.35895 55.60962
v 18.43019 20.60051 49.79715
v 20.06597 23.92058 44.95086
v 19.08233 25.12689 50.05706
v 18.43019 20.60051 49.79715
v 14.35532 24.58710 64.83383
v 20.06597 23.92058 44.95086
v 19.08233 25.12689 50.05706
v 20.41574 20.85396 43.55092
v 20.41574 20.85396 43.55092
v 5.53068 42.85892 -171.61137
v 5.76214 40.92747 -173.92271
v 5.20986 40.43880 -171.64490
v 7.66534 37.78090 -173.36035
v 7.95746 37.96184 -169.97331
v 6.50935 41.12350 -169.27074
v 3.83368 29.57565 -177.19705
v 4.58366 33.51133 -177.19928
v 1.76037 33.50661 -183.36925
v 1.49493 30.93913 -182.50760
v 6.38944 28.00399 -161.31868
v 7.85820 33.91592 -161.32480
v 7.62994 34.46688 -166.09216
v 6.08266 27.19404 -166.13591
v 5.40466 27.96593 -171.79825
v 7.04849 33.39502 -171.79756
v 1.53351 37.79219 -183.41951
v 4.48992 38.24333 -177.33286
v 1.83039 40.16486 -177.49237
v 1.56478 35.17470 -183.71541
v 2.37856 41.91224 -173.80997
v 4.55289 35.18068 -177.19176
v 6.78359 34.52257 -171.86966
v 5.01399 42.16652 -171.53731
v 5.17003 40.52252 -173.97194
v 7.16558 40.18008 -171.62358
v 7.22233 37.72963 -173.42059
v 7.70249 37.77279 -169.78101
v 5.91540 40.89592 -168.92036
v 7.49792 35.43195 -166.14951
v 7.38260 39.89433 -166.09015
v 8.13320 40.80775 -161.34146
v 4.27368 45.78214 -161.35237
v 3.81557 44.70744 -166.07526
v 4.58366 33.51133 -177.19928
v 1.76037 33.50661 -183.36925
v 7.04849 33.39502 -171.79756
v 0.00007 29.19146 -171.85876
v 7.62994 34.46688 -166.09216
v 7.85820 33.91592 -161.32480
v 1.56478 35.17470 -183.71541
v 4.55289 35.18068 -177.19176
v 7.49792 35.43195 -166.14951
v 6.78359 34.52257 -171.86966
v 7.85820 33.91592 -161.32480
v 3.18621 43.70707 -169.37274
v 2.70192 43.18977 -171.59743
v 6.90980 36.03679 -167.11980
v 6.59282 35.78153 -169.25287
v 8.33561 33.09701 -168.26408
v 6.98744 33.82037 -167.44955
v 7.22415 33.95998 -165.49173
v 8.54502 36.24938 -166.42023
v 7.03643 35.70966 -163.69778
v 6.90736 35.99084 -165.75108
v 8.82089 33.06216 -164.75890
v 6.65294 33.38831 -170.66563
v 6.88804 33.52793 -168.84958
v 8.19414 35.81732 -169.60712
v 6.42616 35.79479 -170.03828
v 6.10918 35.53953 -172.17136
v 7.85198 32.85501 -171.46935
v 5.66838 35.49204 -173.23880
v 4.84391 35.23678 -175.23912
v 6.78728 32.55225 -174.37718
v 5.64581 33.03167 -173.69023
v 6.43767 33.03125 -171.79095
v 7.60557 35.46069 -172.80785
v 4.19188 35.87325 -176.32126
v 3.36742 35.61799 -178.32161
v 5.31079 32.93347 -177.45964
v 4.16932 33.03167 -176.63857
v 4.96117 33.03125 -174.97835
v 5.94337 35.46066 -175.86111
v 2.93467 35.87325 -179.37436
v 2.11020 35.61799 -181.37471
v 3.68881 32.93347 -180.51274
v 2.91210 33.03167 -179.87086
v 3.70396 33.17128 -178.03145
v 4.68616 35.46066 -178.95309
v 1.84135 35.81535 -182.33690
v 0.33220 35.79515 -184.29675
v 1.52657 33.07730 -184.65926
v 1.37273 33.03167 -182.80766
v 2.32348 33.17128 -181.02608
v 3.22208 35.46066 -182.14986
vt 0.942098 0.717251
vt 0.933475 0.607545
vt 0.818443 0.631376
vt 0.825239 0.746572
vt 0.108491 0.497475
vt 0.108545 0.362774
vt 0.016828 0.370738
vt 0.043555 0.499256
vt 0.187495 0.363616
vt 0.174771 0.499396
vt 0.595015 0.663488
vt 0.485115 0.664117
vt 0.472034 0.754813
vt 0.582164 0.767754
vt 0.220126 0.539284
vt 0.380662 0.532462
vt 0.348501 0.410812
vt 0.215683 0.466970
vt 0.219790 0.618837
vt 0.374994 0.633254
vt 0.480305 0.444892
vt 0.459922 0.364689
vt 0.122368 0.711320
vt 0.121089 0.662896
vt 0.087086 0.664149
vt 0.096089 0.712778
vt 0.125690 0.750180
vt 0.988548 0.593874
vt 0.987841 0.700085
vt 0.115988 0.604953
vt 0.072695 0.607394
vt 0.169867 0.608714
vt 0.550747 0.790451
vt 0.467273 0.791076
vt 0.468827 0.833747
vt 0.553855 0.836594
vt 0.554793 0.910345
vt 0.470238 0.908936
vt 0.222346 0.368177
vt 0.191623 0.498865
vt 0.703016 0.758526
vt 0.704914 0.657347
vt 0.708231 0.487091
vt 0.804162 0.490544
vt 0.818619 0.401815
vt 0.707224 0.398563
vt 0.070519 0.268658
vt 0.001713 0.265608
vt 0.162632 0.665371
vt 0.218579 0.702003
vt 0.357857 0.745331
vt 0.158515 0.712357
vt 0.288865 0.947666
vt 0.289615 0.986459
vt 0.383799 0.974253
vt 0.385682 0.907527
vt 0.658989 0.982097
vt 0.660363 0.916077
vt 0.554623 0.979972
vt 0.761070 0.776178
vt 0.655909 0.783314
vt 0.659406 0.836840
vt 0.764956 0.837086
vt 0.765934 0.921810
vt 0.763356 0.984221
vt 0.981025 0.991760
vt 0.981025 0.920455
vt 0.981025 0.836069
vt 0.981025 0.748792
vt 0.620217 0.170453
vt 0.543398 0.173323
vt 0.543398 0.225686
vt 0.625062 0.223473
vt 0.543398 0.273661
vt 0.631877 0.278642
vt 0.736802 0.220357
vt 0.829401 0.209149
vt 0.825347 0.169915
vt 0.730346 0.167622
vt 0.910804 0.169230
vt 0.911738 0.197577
vt 0.966253 0.194133
vt 0.915455 0.218457
vt 0.921460 0.080239
vt 0.915373 0.114050
vt 0.980762 0.118906
vt 0.728619 0.153432
vt 0.620964 0.155040
vt 0.918457 0.237328
vt 0.989021 0.192515
vt 0.910126 0.152187
vt 0.822948 0.151875
vt 0.827208 0.107743
vt 0.834812 0.244558
vt 0.742404 0.264028
vt 0.745847 0.284622
vt 0.838714 0.263845
vt 0.743241 0.031856
vt 0.732284 0.102159
vt 0.836208 0.051130
vt 0.596435 0.514029
vt 0.545612 0.524975
vt 0.600998 0.490735
vt 0.606948 0.503224
vt 0.589462 0.412724
vt 0.542446 0.493297
vt 0.577167 0.326018
vt 0.634427 0.301062
vt 0.543398 0.293939
vt 0.543398 0.309760
vt 0.543398 0.025957
vt 0.543398 0.083230
vt 0.623568 0.094413
vt 0.628669 0.020190
vt 0.706722 0.317464
vt 0.500229 0.497419
vt 0.824142 0.322028
vt 0.290968 0.910289
vt 0.295151 0.832107
vt 0.383799 0.830901
vt 0.383799 0.791701
vt 0.299812 0.783342
vt 0.469211 0.977112
vt 0.455106 0.114340
vt 0.366152 0.122979
vt 0.372186 0.160175
vt 0.464340 0.162529
vt 0.219114 0.157438
vt 0.219603 0.142631
vt 0.169406 0.144432
vt 0.216760 0.126105
vt 0.212995 0.212407
vt 0.216475 0.188085
vt 0.150568 0.178699
vt 0.518529 0.027587
vt 0.440279 0.054854
vt 0.444477 0.066657
vt 0.518529 0.049751
vt 0.361199 0.091252
vt 0.356719 0.077110
vt 0.214652 0.117338
vt 0.149464 0.145965
vt 0.219906 0.166220
vt 0.372768 0.172612
vt 0.366959 0.213536
vt 0.356594 0.255137
vt 0.445802 0.281232
vt 0.459283 0.229021
vt 0.463370 0.176101
vt 0.986320 0.440465
vt 0.926976 0.420349
vt 0.919557 0.484285
vt 0.499328 0.516218
vt 0.921134 0.501019
vt 0.986320 0.497848
vt 0.254600 0.267801
vt 0.197392 0.268658
vt 0.543398 0.155665
vt 0.518529 0.305238
vt 0.518529 0.241959
vt 0.879803 0.507097
vt 0.838707 0.496511
vt 0.934304 0.354782
vt 0.990777 0.367762
vt 0.872507 0.483990
vt 0.150681 0.266086
vt 0.518529 0.163269
vt 0.518529 0.110240
vt 0.518529 0.180567
vt 0.838188 0.484996
vt 0.145825 0.927964
vt 0.144450 0.915938
vt 0.127620 0.917017
vt 0.132336 0.893484
vt 0.158827 0.893130
vt 0.164167 0.916122
vt 0.096418 0.808388
vt 0.043539 0.800030
vt 0.031128 0.815250
vt 0.090134 0.836128
vt 0.240758 0.821269
vt 0.199013 0.814937
vt 0.193270 0.868972
vt 0.239646 0.861453
vt 0.143081 0.852014
vt 0.147829 0.811783
vt 0.030021 0.913068
vt 0.084420 0.929802
vt 0.090773 0.902835
vt 0.019107 0.922867
vt 0.022584 0.896806
vt 0.005835 0.904676
vt 0.119605 0.939645
vt 0.248142 0.764632
vt 0.087742 0.881431
vt 0.140360 0.868312
vt 0.339140 0.392585
vt 0.340750 0.338684
vt 0.287882 0.356771
vt 0.304208 0.295618
vt 0.382584 0.294833
vt 0.391568 0.357815
vt 0.142443 0.763204
vt 0.090171 0.773987
vt 0.197313 0.902809
vt 0.196250 0.870950
vt 0.195918 0.947852
vt 0.240663 0.952648
vt 0.241028 0.905892
vt 0.200394 0.759960
vt 0.035226 0.178358
vt 0.049526 0.227134
vt 0.079374 0.234875
vt 0.079374 0.139291
vt 0.079374 0.139200
vt 0.017776 0.134804
vt 0.016218 0.090349
vt 0.079374 0.139143
vt 0.079374 0.054502
vt 0.010054 0.055762
vt 0.106179 0.240203
vt 0.124804 0.187936
vt 0.086833 0.188539
vt 0.086833 0.248432
vt 0.147336 0.077255
vt 0.086833 0.075132
vt 0.086833 0.075196
vt 0.147351 0.121543
vt 0.086833 0.163996
vt 0.156153 0.015563
vt 0.086833 0.031576
vt 0.191711 0.983196
vt 0.163889 0.945405
vt 0.158178 0.973051
vt 0.142143 0.944811
vt 0.016659 0.736166
vt 0.050403 0.632590
vt 0.078419 0.737097
vt 0.017717 0.736431
vt 0.049649 0.632329
vt 0.079484 0.736285
vt 0.017717 0.736431
vt 0.049649 0.632329
vt 0.079484 0.736285
vt 0.017717 0.736431
vt 0.049649 0.632329
vt 0.079484 0.736285
vt 0.017717 0.736431
vt 0.049649 0.632329
vt 0.079484 0.736285
vt 0.017717 0.736431
vt 0.049649 0.632329
vt 0.079484 0.736285
vt 0.017717 0.736431
vt 0.049649 0.632329
vt 0.079484 0.736285
vt 0.017717 0.736431
vt 0.049649 0.632329
vt 0.079484 0.736285
vt 0.017717 0.736431
vt 0.049649 0.632329
vt 0.079484 0.736285
vt 0.017717 0.736431
vt 0.049649 0.632329
vt 0.079484 0.736285
vt 0.017717 0.736431
vt 0.049649 0.632329
vt 0.079484 0.736285
vt 0.017717 0.736431
vt 0.049649 0.632329
vt 0.079484 0.736285
vt 0.017717 0.736431
vt 0.049649 0.632329
vt 0.079484 0.736285
vt 0.112611 0.959071
vt 0.136303 0.967413
vt 0.079363 0.945939
vt 0.037146 0.786744
vt 0.015108 0.804534
vt 0.086833 0.016823
vt 0.239828 0.991032
vt 0.818443 0.631376
vt 0.933475 0.607545
vt 0.108491 0.497475
vt 0.108545 0.362774
vt 0.187495 0.363616
vt 0.174771 0.499396
vt 0.595015 0.663488
vt 0.485115 0.664117
vt 0.220126 0.539284
vt 0.380662 0.532462
vt 0.374994 0.633254
vt 0.219790 0.618837
vt 0.480305 0.444892
vt 0.122368 0.711320
vt 0.121089 0.662896
vt 0.988548 0.593874
vt 0.115988 0.604953
vt 0.553855 0.836594
vt 0.468827 0.833747
vt 0.554793 0.910345
vt 0.470238 0.908936
vt 0.704914 0.657347
vt 0.708231 0.487091
vt 0.707224 0.398563
vt 0.818619 0.401815
vt 0.804162 0.490544
vt 0.070519 0.268658
vt 0.288865 0.947666
vt 0.385682 0.907527
vt 0.660363 0.916077
vt 0.764956 0.837086
vt 0.659406 0.836840
vt 0.765934 0.921810
vt 0.981025 0.920455
vt 0.981025 0.836069
vt 0.620217 0.170453
vt 0.625062 0.223473
vt 0.543398 0.225686
vt 0.543398 0.173323
vt 0.631877 0.278642
vt 0.543398 0.273661
vt 0.736802 0.220357
vt 0.730346 0.167622
vt 0.825347 0.169915
vt 0.829401 0.209149
vt 0.910804 0.169230
vt 0.966253 0.194133
vt 0.911738 0.197577
vt 0.915455 0.218457
vt 0.921460 0.080239
vt 0.980762 0.118906
vt 0.915373 0.114050
vt 0.728619 0.153432
vt 0.620964 0.155040
vt 0.918457 0.237328
vt 0.989021 0.192515
vt 0.822948 0.151875
vt 0.910126 0.152187
vt 0.827208 0.107743
vt 0.834812 0.244558
vt 0.838714 0.263845
vt 0.745847 0.284622
vt 0.742404 0.264028
vt 0.743241 0.031856
vt 0.836208 0.051130
vt 0.732284 0.102159
vt 0.545612 0.524975
vt 0.596435 0.514029
vt 0.600998 0.490735
vt 0.606948 0.503224
vt 0.542446 0.493297
vt 0.589462 0.412724
vt 0.634427 0.301062
vt 0.543398 0.309760
vt 0.543398 0.293939
vt 0.543398 0.025957
vt 0.628669 0.020190
vt 0.623568 0.094413
vt 0.543398 0.083230
vt 0.500229 0.497419
vt 0.290968 0.910289
vt 0.295151 0.832107
vt 0.383799 0.830901
vt 0.455106 0.114340
vt 0.464340 0.162529
vt 0.372186 0.160175
vt 0.366152 0.122979
vt 0.219114 0.157438
vt 0.169406 0.144432
vt 0.219603 0.142631
vt 0.216760 0.126105
vt 0.212995 0.212407
vt 0.150568 0.178699
vt 0.216475 0.188085
vt 0.518529 0.027587
vt 0.518529 0.049751
vt 0.444477 0.066657
vt 0.440279 0.054854
vt 0.361199 0.091252
vt 0.214652 0.117338
vt 0.356719 0.077110
vt 0.149464 0.145965
vt 0.372768 0.172612
vt 0.219906 0.166220
vt 0.366959 0.213536
vt 0.459283 0.229021
vt 0.445802 0.281232
vt 0.356594 0.255137
vt 0.463370 0.176101
vt 0.986320 0.440465
vt 0.919557 0.484285
vt 0.926976 0.420349
vt 0.499328 0.516218
vt 0.921134 0.501019
vt 0.986320 0.497848
vt 0.197392 0.268658
vt 0.543398 0.155665
vt 0.518529 0.305238
vt 0.518529 0.241959
vt 0.838707 0.496511
vt 0.879803 0.507097
vt 0.872507 0.483990
vt 0.150681 0.266086
vt 0.518529 0.163269
vt 0.518529 0.110240
vt 0.518529 0.180567
vt 0.838188 0.484996
vt 0.145825 0.927964
vt 0.127620 0.917017
vt 0.144450 0.915938
vt 0.132336 0.893484
vt 0.158827 0.893130
vt 0.164167 0.916122
vt 0.096418 0.808388
vt 0.090134 0.836128
vt 0.031128 0.815250
vt 0.043539 0.800030
vt 0.240758 0.821269
vt 0.239646 0.861453
vt 0.193270 0.868972
vt 0.199013 0.814937
vt 0.147829 0.811783
vt 0.143081 0.852014
vt 0.030021 0.913068
vt 0.090773 0.902835
vt 0.084420 0.929802
vt 0.022584 0.896806
vt 0.119605 0.939645
vt 0.087742 0.881431
vt 0.140360 0.868312
vt 0.339140 0.392585
vt 0.287882 0.356771
vt 0.340750 0.338684
vt 0.304208 0.295618
vt 0.382584 0.294833
vt 0.391568 0.357815
vt 0.196250 0.870950
vt 0.197313 0.902809
vt 0.241028 0.905892
vt 0.240663 0.952648
vt 0.195918 0.947852
vt 0.035226 0.178358
vt 0.049526 0.227134
vt 0.017776 0.134804
vt 0.079374 0.139200
vt 0.016218 0.090349
vt 0.010054 0.055762
vt 0.106179 0.240203
vt 0.124804 0.187936
vt 0.147336 0.077255
vt 0.147351 0.121543
vt 0.156153 0.015563
vt 0.163889 0.945405
vt 0.142143 0.944811
vt 0.016659 0.736166
vt 0.078419 0.737097
vt 0.050403 0.632590
vt 0.017717 0.736431
vt 0.079484 0.736285
vt 0.049649 0.632329
vt 0.017717 0.736431
vt 0.079484 0.736285
vt 0.049649 0.632329
vt 0.017717 0.736431
vt 0.079484 0.736285
vt 0.049649 0.632329
vt 0.017717 0.736431
vt 0.079484 0.736285
vt 0.049649 0.632329
vt 0.017717 0.736431
vt 0.079484 0.736285
vt 0.049649 0.632329
vt 0.017717 0.736431
vt 0.079484 0.736285
vt 0.049649 0.632329
vt 0.017717 0.736431
vt 0.079484 0.736285
vt 0.049649 0.632329
vt 0.017717 0.736431
vt 0.079484 0.736285
vt 0.049649 0.632329
vt 0.017717 0.736431
vt 0.079484 0.736285
vt 0.049649 0.632329
vt 0.017717 0.736431
vt 0.079484 0.736285
vt 0.049649 0.632329
vt 0.017717 0.736431
vt 0.079484 0.736285
vt 0.049649 0.632329
vt 0.017717 0.736431
vt 0.079484 0.736285
vt 0.049649 0.632329
vn -0.00000 0.96434 0.26466
vn -0.82632 0.48610 0.28443
vn -0.82958 0.52890 0.17907
vn -0.00000 0.99602 0.08911
vn -0.97462 -0.04594 0.21910
vn -0.94546 0.13233 0.29765
vn -0.00000 0.94315 0.33235
vn -0.00000 0.97455 0.22419
vn -0.58698 -0.77665 0.22863
vn -0.46758 -0.85561 0.22204
vn -0.72682 0.68254 -0.07670
vn -0.76314 0.61576 -0.19611
vn 0.00000 0.99442 -0.10554
vn 0.00000 0.99877 -0.04956
vn -0.78616 -0.59967 -0.14951
vn -0.80476 -0.47958 -0.34980
vn 0.00000 -0.98718 -0.15960
vn 0.00000 -0.99557 -0.09402
vn -0.88164 0.45257 -0.13376
vn -0.78137 0.58140 -0.22677
vn -0.23942 -0.95975 -0.14684
vn 0.00000 -0.99233 -0.12360
vn -0.92528 0.02556 0.37842
vn -0.99397 -0.02744 0.10612
vn -0.00000 0.98911 0.14717
vn -0.00000 0.88471 0.46615
vn -0.00000 0.05854 0.99829
vn -0.81106 0.51368 0.27984
vn -0.00000 0.96572 0.25959
vn -0.98026 0.13284 0.14645
vn -0.00000 0.98652 0.16365
vn -0.00000 -0.98349 0.18095
vn -0.00000 -0.99993 -0.01178
vn 0.00000 -0.99999 -0.00446
vn -0.80426 -0.59422 0.00854
vn -0.89231 -0.45139 -0.00647
vn -0.94633 0.32309 0.00867
vn -0.92403 0.38183 0.01910
vn -0.00000 -0.98428 0.17660
vn 0.00000 -0.98513 0.17180
vn 0.00000 0.99997 -0.00727
vn -0.76562 0.64180 0.04384
vn -0.90763 -0.41631 0.05390
vn -0.97051 -0.21951 0.09961
vn -0.33927 -0.94033 0.02599
vn -0.30220 -0.95286 -0.02698
vn -0.81106 0.51368 0.27984
vn -0.00000 0.96572 0.25959
vn -0.00000 -0.99560 0.09367
vn -0.00000 0.99865 -0.05204
vn 0.00000 0.99641 -0.08463
vn -0.00000 -0.87275 0.48816
vn -0.65172 0.75192 0.09938
vn -0.00000 0.99833 0.05782
vn -0.00000 0.98961 0.14379
vn -0.92006 0.37016 0.12834
vn 0.00000 0.99992 0.01296
vn -0.93724 0.34860 -0.00819
vn -0.00000 0.99976 0.02181
vn 0.00000 -0.99798 -0.06359
vn -0.00000 -0.99912 -0.04192
vn -0.80397 -0.59397 -0.02898
vn -0.77035 -0.63353 -0.07205
vn -0.95221 0.30042 -0.05510
vn 0.00000 0.99999 -0.00380
vn -0.00000 0.99865 -0.05204
vn -0.88164 0.45257 -0.13376
vn -0.78616 -0.59967 -0.14951
vn 0.00000 -0.99557 -0.09402
vn -0.07193 0.78864 -0.61063
vn -0.64636 0.48237 -0.59121
vn -0.55211 0.83009 -0.07826
vn -0.03940 0.99781 0.05317
vn -0.80289 0.53157 0.26982
vn -0.14645 0.77761 0.61145
vn -0.05009 0.99873 0.00436
vn -0.03347 0.99749 0.06244
vn -0.25346 0.82973 -0.49729
vn -0.15179 0.81298 -0.56217
vn -0.34996 0.81325 -0.46493
vn -0.04804 0.99361 0.10210
vn -0.20954 0.91795 0.33684
vn 0.10141 0.74829 0.65557
vn 0.08230 -0.18945 0.97843
vn -0.01260 -0.99953 0.02805
vn -0.90870 -0.36547 -0.20173
vn -0.17461 -0.12075 -0.97721
vn -0.10905 -0.46609 -0.87799
vn 0.08230 -0.18945 0.97843
vn -0.90870 -0.36547 -0.20173
vn -0.50559 -0.37764 -0.77574
vn -0.38493 -0.38527 -0.83869
vn -0.01220 -0.99992 0.00134
vn 0.14390 0.80786 0.57153
vn 0.05862 0.84629 0.52949
vn 0.11942 -0.17344 0.97758
vn 0.21372 -0.42250 0.88081
vn 0.11942 -0.17344 0.97758
vn -0.01184 -0.99989 -0.00923
vn 0.21372 -0.42250 0.88081
vn -0.80289 0.53157 0.26982
vn -0.55211 0.83009 -0.07826
vn -0.41143 -0.90877 0.06969
vn -0.88911 -0.05408 0.45450
vn -0.24342 -0.96523 -0.09525
vn -0.21794 -0.97280 -0.07851
vn -0.00000 -0.99527 -0.09718
vn -0.41199 -0.51922 0.74878
vn -0.88911 -0.05408 0.45450
vn -0.41143 -0.90877 0.06969
vn -0.41143 -0.90877 0.06969
vn -0.21794 -0.97280 -0.07851
vn -0.07285 -0.99722 -0.01571
vn -0.41199 -0.51922 0.74878
vn -0.00000 -0.99831 -0.05817
vn -0.39642 -0.79442 -0.46016
vn -0.00000 -0.99932 0.03681
vn -0.97108 0.19552 0.13701
vn -0.79447 -0.58077 0.17752
vn -0.90808 -0.41306 0.06906
vn 0.00000 -0.99998 0.00565
vn -0.00000 -0.97622 0.21680
vn -0.00000 0.99990 0.01431
vn -0.21557 0.97598 0.03161
vn -0.06655 0.99642 0.05218
vn -0.18370 0.87964 -0.43873
vn -0.29661 0.77010 -0.56478
vn -0.31743 0.79726 -0.51343
vn -0.06339 0.99426 0.08620
vn -0.29042 0.90706 0.30479
vn 0.00892 0.81990 0.57244
vn 0.02030 0.02142 0.99956
vn 0.00973 -0.99837 0.05615
vn -0.86141 -0.47457 -0.18099
vn -0.34091 -0.74275 0.57628
vn 0.05768 -0.71396 0.69780
vn -0.04017 0.70776 0.70531
vn -0.71439 0.51518 0.47354
vn 0.04912 0.80275 0.59429
vn 0.12067 -0.43486 0.89238
vn 0.02030 0.02142 0.99956
vn -0.86141 -0.47457 -0.18099
vn -0.36255 -0.70730 -0.60686
vn -0.30843 0.17476 -0.93506
vn 0.01301 -0.99992 0.00038
vn 0.12067 -0.43486 0.89238
vn 0.05768 -0.71396 0.69780
vn 0.08479 -0.99617 -0.02155
vn -0.29539 -0.46537 -0.83437
vn -0.32096 -0.92263 0.21386
vn -0.18360 -0.97995 0.07735
vn -0.34091 -0.74275 0.57628
vn -0.64636 0.48237 -0.59121
vn -0.71439 0.51518 0.47354
vn -0.89421 -0.23149 0.38315
vn -0.00000 -0.98996 0.14135
vn -0.32096 -0.92263 0.21386
vn -0.39642 -0.79442 -0.46016
vn -0.34091 -0.74275 0.57628
vn -0.08904 -0.99603 -0.00006
vn -0.78679 0.57945 0.21258
vn -0.78909 0.56420 -0.24292
vn -0.00000 -0.99443 0.10535
vn -0.00000 -0.98996 0.14135
vn -0.08904 -0.99603 -0.00006
vn -0.89421 -0.23149 0.38315
vn -0.78909 0.56420 -0.24292
vn -0.78679 0.57945 0.21258
vn -0.48315 -0.84669 -0.22288
vn -0.48315 -0.84669 -0.22288
vn -0.64639 0.70329 -0.29591
vn -0.93423 0.33237 -0.12940
vn -0.70312 0.61269 -0.36088
vn -0.94313 0.17471 -0.28280
vn -0.97227 0.19288 -0.13222
vn -0.82638 0.52748 -0.19715
vn -0.62906 -0.65701 -0.41549
vn -0.55552 -0.65739 -0.50916
vn -0.70352 -0.29008 -0.64878
vn -0.90197 -0.20480 -0.38015
vn -0.74124 -0.65191 0.15994
vn -0.63455 -0.77245 -0.02566
vn -0.96904 -0.23613 -0.07222
vn -0.98715 -0.14028 0.07652
vn -0.93189 -0.28213 -0.22801
vn -0.72252 -0.63593 -0.27123
vn -0.65575 0.52349 -0.54401
vn -0.33105 0.82982 -0.44922
vn -0.74528 0.36410 -0.55856
vn 0.00000 0.51034 -0.85997
vn -0.67075 0.13162 -0.72992
vn 0.00000 0.26389 -0.96455
vn -0.17004 0.84662 -0.50430
vn -0.00000 -0.98663 0.16297
vn -0.87283 -0.09227 -0.47923
vn -0.92590 -0.33126 -0.18162
vn -0.66685 0.72900 -0.15452
vn -0.84316 0.51599 -0.15110
vn -0.67207 0.55503 -0.49016
vn -0.89072 0.28204 -0.35647
vn -0.95755 0.27635 0.08202
vn -0.78555 0.58242 0.20907
vn 0.00000 -0.95711 -0.28973
vn 0.00000 -0.95604 -0.29323
vn -0.91425 0.39391 -0.09476
vn -0.99645 -0.06947 -0.04751
vn -0.54776 0.79871 -0.24903
vn -0.68852 0.71956 -0.09034
vn -0.96728 0.24675 -0.05907
vn 0.00000 -0.99484 -0.10148
vn 0.33035 0.92588 0.18336
vn -0.00311 0.99999 -0.00219
vn 0.00000 0.98830 0.15255
vn -0.00000 0.98700 0.16075
vn 0.17585 0.98310 0.05096
vn 0.49303 0.82270 0.28301
vn 0.14223 0.93890 -0.31342
vn -0.00000 0.98700 0.16075
vn 0.00000 0.84821 -0.52966
vn 0.49165 -0.61149 -0.61997
vn 0.04363 -0.99854 0.03192
vn 0.05952 -0.99761 -0.03498
vn 0.00000 -0.99996 0.00886
vn 0.00000 -0.99936 0.03572
vn 0.08960 -0.99569 0.02397
vn 0.00000 -0.99962 0.02761
vn 0.00000 -0.99010 0.14038
vn 0.12699 -0.99070 0.04879
vn 0.00000 -0.99795 0.06402
vn 0.49165 -0.61149 -0.61997
vn 0.00000 -0.77761 -0.62875
vn -0.00000 0.92084 -0.38993
vn -0.32386 0.91690 -0.23327
vn 0.00000 0.94682 -0.32177
vn -0.13336 0.92626 -0.35249
vn -0.85400 0.48624 -0.18509
vn -0.85400 0.48624 -0.18509
vn -0.85400 0.48624 -0.18509
vn -0.85245 -0.51862 -0.06608
vn -0.85245 -0.51862 -0.06608
vn -0.85245 -0.51862 -0.06608
vn -0.83330 0.55234 0.02326
vn -0.83330 0.55234 0.02326
vn -0.83330 0.55234 0.02326
vn -0.85601 -0.51200 -0.07146
vn -0.85601 -0.51200 -0.07146
vn -0.85601 -0.51200 -0.07146
vn -0.84564 0.50047 -0.18555
vn -0.84564 0.50047 -0.18555
vn -0.84564 0.50047 -0.18555
vn -0.80119 0.45531 -0.38832
vn -0.80119 0.45531 -0.38832
vn -0.80119 0.45531 -0.38832
vn -0.78974 -0.51752 -0.32938
vn -0.78974 -0.51752 -0.32938
vn -0.78974 -0.51752 -0.32938
vn -0.80119 0.45531 -0.38832
vn -0.80119 0.45531 -0.38832
vn -0.80119 0.45531 -0.38832
vn -0.80030 -0.46230 -0.38183
vn -0.80030 -0.46230 -0.38183
vn -0.80030 -0.46230 -0.38183
vn -0.84195 0.36857 -0.39405
vn -0.84195 0.36857 -0.39405
vn -0.84195 0.36857 -0.39405
vn -0.81904 -0.47870 -0.31626
vn -0.81904 -0.47870 -0.31626
vn -0.81904 -0.47870 -0.31626
vn -0.72618 0.39424 -0.56324
vn -0.72618 0.39424 -0.56324
vn -0.72618 0.39424 -0.56324
vn -0.78286 -0.49337 -0.37911
vn -0.78286 -0.49337 -0.37911
vn -0.78286 -0.49337 -0.37911
vn 0.00000 0.89037 -0.45523
vn -0.00000 0.90812 -0.41871
vn 0.00000 0.92169 -0.38793
vn 0.00000 -0.64559 -0.76369
vn 0.00000 -0.43175 -0.90199
vn 0.00000 0.84821 -0.52966
vn 0.00000 0.98766 -0.15659
vn 0.82958 0.52890 0.17907
vn 0.82632 0.48610 0.28443
vn 0.97462 -0.04594 0.21910
vn 0.94546 0.13233 0.29765
vn 0.58698 -0.77665 0.22863
vn 0.46758 -0.85561 0.22204
vn 0.72682 0.68254 -0.07670
vn 0.76314 0.61576 -0.19611
vn 0.78616 -0.59967 -0.14951
vn 0.80476 -0.47958 -0.34980
vn 0.78137 0.58140 -0.22677
vn 0.88164 0.45257 -0.13376
vn 0.23942 -0.95975 -0.14684
vn 0.92528 0.02556 0.37842
vn 0.99397 -0.02744 0.10612
vn 0.81106 0.51368 0.27984
vn 0.98026 0.13284 0.14645
vn 0.89231 -0.45139 -0.00647
vn 0.80426 -0.59422 0.00854
vn 0.94633 0.32309 0.00867
vn 0.92403 0.38183 0.01910
vn 0.76562 0.64180 0.04385
vn 0.90763 -0.41631 0.05390
vn 0.30220 -0.95286 -0.02698
vn 0.33927 -0.94033 0.02599
vn 0.97051 -0.21951 0.09961
vn 0.81106 0.51368 0.27984
vn 0.65172 0.75192 0.09938
vn 0.92006 0.37016 0.12834
vn 0.93724 0.34860 -0.00819
vn 0.77035 -0.63353 -0.07205
vn 0.80397 -0.59397 -0.02898
vn 0.95221 0.30042 -0.05510
vn 0.88164 0.45257 -0.13376
vn 0.78616 -0.59967 -0.14951
vn 0.07193 0.78864 -0.61063
vn 0.03940 0.99781 0.05317
vn 0.55211 0.83009 -0.07826
vn 0.64637 0.48237 -0.59121
vn 0.14645 0.77761 0.61145
vn 0.80289 0.53157 0.26982
vn 0.05009 0.99874 0.00437
vn 0.15179 0.81298 -0.56217
vn 0.25346 0.82973 -0.49729
vn 0.03347 0.99749 0.06244
vn 0.34996 0.81325 -0.46493
vn 0.20954 0.91795 0.33684
vn 0.04804 0.99361 0.10210
vn -0.10141 0.74829 0.65557
vn -0.08230 -0.18945 0.97843
vn 0.90870 -0.36547 -0.20173
vn 0.01260 -0.99953 0.02805
vn 0.17461 -0.12075 -0.97721
vn 0.10905 -0.46609 -0.87799
vn -0.08230 -0.18945 0.97843
vn 0.90870 -0.36547 -0.20173
vn 0.38493 -0.38527 -0.83869
vn 0.50559 -0.37764 -0.77574
vn 0.01220 -0.99992 0.00134
vn -0.14391 0.80786 0.57153
vn -0.21372 -0.42250 0.88081
vn -0.11942 -0.17344 0.97758
vn -0.05862 0.84629 0.52949
vn -0.11942 -0.17344 0.97758
vn -0.21372 -0.42250 0.88081
vn 0.01184 -0.99989 -0.00923
vn 0.55211 0.83009 -0.07826
vn 0.80289 0.53157 0.26982
vn 0.41143 -0.90877 0.06969
vn 0.88911 -0.05408 0.45450
vn 0.21794 -0.97280 -0.07851
vn 0.24342 -0.96523 -0.09525
vn 0.41199 -0.51922 0.74878
vn 0.41143 -0.90877 0.06969
vn 0.88911 -0.05408 0.45450
vn 0.41143 -0.90877 0.06969
vn 0.41199 -0.51922 0.74878
vn 0.07284 -0.99722 -0.01571
vn 0.21794 -0.97280 -0.07851
vn 0.39642 -0.79442 -0.46016
vn 0.97108 0.19552 0.13701
vn 0.79447 -0.58077 0.17752
vn 0.90808 -0.41306 0.06906
vn 0.21557 0.97598 0.03161
vn 0.29661 0.77010 -0.56478
vn 0.18370 0.87964 -0.43873
vn 0.06655 0.99642 0.05218
vn 0.31743 0.79726 -0.51343
vn 0.29042 0.90706 0.30479
vn 0.06339 0.99426 0.08620
vn -0.00892 0.81990 0.57244
vn -0.02030 0.02142 0.99956
vn 0.86141 -0.47457 -0.18099
vn -0.00973 -0.99837 0.05615
vn 0.34091 -0.74275 0.57628
vn 0.71439 0.51518 0.47354
vn 0.04016 0.70776 0.70531
vn -0.05768 -0.71396 0.69780
vn -0.04912 0.80275 0.59429
vn -0.02030 0.02142 0.99956
vn -0.12067 -0.43486 0.89238
vn 0.86141 -0.47457 -0.18099
vn 0.30843 0.17476 -0.93506
vn 0.36255 -0.70730 -0.60686
vn -0.01301 -0.99992 0.00038
vn -0.08479 -0.99617 -0.02155
vn -0.05768 -0.71396 0.69780
vn -0.12067 -0.43486 0.89238
vn 0.29539 -0.46537 -0.83437
vn 0.32096 -0.92263 0.21386
vn 0.34091 -0.74275 0.57628
vn 0.18360 -0.97995 0.07735
vn 0.64637 0.48237 -0.59121
vn 0.71439 0.51518 0.47354
vn 0.89421 -0.23149 0.38315
vn 0.32096 -0.92263 0.21386
vn 0.39642 -0.79442 -0.46016
vn 0.34091 -0.74275 0.57628
vn 0.08904 -0.99603 -0.00006
vn 0.78909 0.56420 -0.24292
vn 0.78679 0.57945 0.21258
vn 0.08904 -0.99603 -0.00006
vn 0.89421 -0.23149 0.38315
vn 0.78909 0.56420 -0.24292
vn 0.78679 0.57945 0.21258
vn 0.48315 -0.84669 -0.22288
vn 0.48315 -0.84669 -0.22288
vn 0.64639 0.70329 -0.29591
vn 0.70312 0.61269 -0.36088
vn 0.93423 0.33237 -0.12940
vn 0.94313 0.17471 -0.28280
vn 0.97227 0.19288 -0.13222
vn 0.82638 0.52748 -0.19715
vn 0.62906 -0.65701 -0.41549
vn 0.90197 -0.20480 -0.38015
vn 0.70352 -0.29008 -0.64878
vn 0.55552 -0.65739 -0.50916
vn 0.74124 -0.65191 0.15994
vn 0.98715 -0.14028 0.07652
vn 0.96904 -0.23613 -0.07221
vn 0.63455 -0.77245 -0.02566
vn 0.72252 -0.63593 -0.27123
vn 0.93189 -0.28213 -0.22801
vn 0.65575 0.52349 -0.54401
vn 0.74528 0.36410 -0.55856
vn 0.33105 0.82982 -0.44922
vn 0.67075 0.13162 -0.72992
vn 0.17004 0.84662 -0.50430
vn 0.87283 -0.09227 -0.47923
vn 0.92590 -0.33126 -0.18162
vn 0.66685 0.72900 -0.15452
vn 0.67207 0.55503 -0.49016
vn 0.84316 0.51599 -0.15110
vn 0.89072 0.28204 -0.35647
vn 0.95755 0.27635 0.08202
vn 0.78554 0.58242 0.20907
vn 0.99645 -0.06947 -0.04751
vn 0.91425 0.39391 -0.09476
vn 0.96728 0.24675 -0.05907
vn 0.68852 0.71956 -0.09034
vn 0.54776 0.79871 -0.24903
vn -0.33035 0.92588 0.18336
vn 0.00311 0.99999 -0.00219
vn -0.49303 0.82269 0.28301
vn -0.17587 0.98310 0.05090
vn -0.14224 0.93890 -0.31344
vn -0.49165 -0.61149 -0.61997
vn -0.04363 -0.99854 0.03192
vn -0.05952 -0.99761 -0.03498
vn -0.08960 -0.99569 0.02397
vn -0.12698 -0.99070 0.04879
vn -0.49165 -0.61149 -0.61997
vn 0.32386 0.91690 -0.23327
vn 0.13336 0.92626 -0.35249
vn 0.85400 0.48624 -0.18509
vn 0.85400 0.48624 -0.18509
vn 0.85400 0.48624 -0.18509
vn 0.85245 -0.51862 -0.06608
vn 0.85245 -0.51862 -0.06608
vn 0.85245 -0.51862 -0.06608
vn 0.83330 0.55234 0.02326
vn 0.83330 0.55234 0.02326
vn 0.83330 0.55234 0.02326
vn 0.85601 -0.51200 -0.07146
vn 0.85601 -0.51200 -0.07146
vn 0.85601 -0.51200 -0.07146
vn 0.84564 0.50047 -0.18555
vn 0.84564 0.50047 -0.18555
vn 0.84564 0.50047 -0.18555
vn 0.80119 0.45531 -0.38832
vn 0.80119 0.45531 -0.38832
vn 0.80119 0.45531 -0.38832
vn 0.78974 -0.51752 -0.32938
vn 0.78974 -0.51752 -0.32938
vn 0.78974 -0.51752 -0.32938
vn 0.80119 0.45531 -0.38832
vn 0.80119 0.45531 -0.38832
vn 0.80119 0.45531 -0.38832
vn 0.80030 -0.46230 -0.38183
vn 0.80030 -0.46230 -0.38183
vn 0.80030 -0.46230 -0.38183
vn 0.84195 0.36857 -0.39405
vn 0.84195 0.36857 -0.39405
vn 0.84195 0.36857 -0.39405
vn 0.81904 -0.47870 -0.31626
vn 0.81904 -0.47870 -0.31626
vn 0.81904 -0.47870 -0.31626
vn 0.72618 0.39424 -0.56324
vn 0.72618 0.39424 -0.56324
vn 0.72618 0.39424 -0.56324
vn 0.78286 -0.49337 -0.37911
vn 0.78286 -0.49337 -0.37911
vn 0.78286 -0.49337 -0.37911
f 216/216/216 211/211/211 214/214/214
f 213/213/213 214/214/214 211/211/211
f 211/211/211 212/212/212 213/213/213
f 217/217/217 216/216/216 215/215/215
f 214/214/214 215/215/215 216/216/216
f 445/445/445 446/446/446 214/214/214
f 214/214/214 443/443/443 445/445/445
f 443/443/443 214/214/214 213/213/213
f 213/213/213 444/444/444 443/443/443
f 447/447/447 218/218/218 446/446/446
f 446/446/446 445/445/445 447/447/447
f 219/219/219 218/218/218 447/447/447
f 447/447/447 448/448/448 219/219/219
f 215/215/215 218/218/218 217/217/217
f 217/217/217 218/218/218 219/219/219
f 219/219/219 220/220/220 217/217/217
f 138/138/138 137/137/137 124/124/124
f 124/124/124 168/168/168 138/138/138
f 124/124/124 127/127/127 167/167/167
f 167/167/167 168/168/168 124/124/124
f 125/125/125 124/124/124 137/137/137
f 126/126/126 127/127/127 124/124/124
f 124/124/124 125/125/125 126/126/126
f 137/137/137 138/138/138 135/135/135
f 137/137/137 139/139/139 125/125/125
f 140/140/140 139/139/139 137/137/137
f 137/137/137 136/136/136 140/140/140
f 135/135/135 136/136/136 137/137/137
f 128/128/128 126/126/126 125/125/125
f 125/125/125 129/129/129 128/128/128
f 129/129/129 125/125/125 139/139/139
f 127/127/127 126/126/126 144/144/144
f 144/144/144 126/126/126 128/128/128
f 142/142/142 143/143/143 128/128/128
f 128/128/128 130/130/130 142/142/142
f 128/128/128 143/143/143 144/144/144
f 377/377/377 406/406/406 365/365/365
f 365/365/365 378/378/378 377/377/377
f 365/365/365 406/406/406 405/405/405
f 405/405/405 366/366/366 365/365/365
f 378/378/378 365/365/365 368/368/368
f 367/367/367 368/368/368 365/365/365
f 365/365/365 366/366/366 367/367/367
f 376/376/376 377/377/377 378/378/378
f 378/378/378 379/379/379 376/376/376
f 368/368/368 380/380/380 378/378/378
f 382/382/382 379/379/379 378/378/378
f 378/378/378 380/380/380 382/382/382
f 369/369/369 371/371/371 368/368/368
f 368/368/368 367/367/367 369/369/369
f 380/380/380 368/368/368 371/371/371
f 384/384/384 367/367/367 366/366/366
f 369/369/369 367/367/367 384/384/384
f 383/383/383 370/370/370 369/369/369
f 369/369/369 385/385/385 383/383/383
f 384/384/384 385/385/385 369/369/369
f 301/301/301 302/302/302 300/300/300
f 58/58/58 57/57/57 65/65/65
f 37/37/37 59/59/59 57/57/57
f 57/57/57 58/58/58 37/37/37
f 66/66/66 65/65/65 314/314/314
f 65/65/65 64/64/64 58/58/58
f 64/64/64 65/65/65 66/66/66
f 58/58/58 62/62/62 36/36/36
f 36/36/36 37/37/37 58/58/58
f 62/62/62 58/58/58 64/64/64
f 59/59/59 37/37/37 38/38/38
f 35/35/35 38/38/38 37/37/37
f 37/37/37 36/36/36 35/35/35
f 59/59/59 123/123/123 302/302/302
f 38/38/38 123/123/123 59/59/59
f 38/38/38 35/35/35 120/120/120
f 120/120/120 56/56/56 38/38/38
f 38/38/38 56/56/56 55/55/55
f 55/55/55 123/123/123 38/38/38
f 35/35/35 34/34/34 121/121/121
f 121/121/121 120/120/120 35/35/35
f 120/120/120 119/119/119 118/118/118
f 118/118/118 56/56/56 120/120/120
f 119/119/119 120/120/120 121/121/121
f 56/56/56 118/118/118 53/53/53
f 55/55/55 56/56/56 53/53/53
f 184/184/184 118/118/118 119/119/119
f 208/208/208 53/53/53 118/118/118
f 118/118/118 209/209/209 208/208/208
f 184/184/184 209/209/209 118/118/118
f 184/184/184 119/119/119 181/181/181
f 181/181/181 119/119/119 122/122/122
f 121/121/121 122/122/122 119/119/119
f 209/209/209 184/184/184 206/206/206
f 183/183/183 184/184/184 181/181/181
f 206/206/206 205/205/205 209/209/209
f 208/208/208 209/209/209 205/205/205
f 53/53/53 208/208/208 281/281/281
f 281/281/281 208/208/208 207/207/207
f 205/205/205 207/207/207 208/208/208
f 207/207/207 205/205/205 176/176/176
f 335/335/335 317/317/317 320/320/320
f 318/318/318 317/317/317 324/324/324
f 317/317/317 335/335/335 334/334/334
f 334/334/334 324/324/324 317/317/317
f 319/319/319 320/320/320 317/317/317
f 317/317/317 318/318/318 319/319/319
f 359/359/359 335/335/335 398/398/398
f 320/320/320 398/398/398 335/335/335
f 335/335/335 359/359/359 347/347/347
f 347/347/347 334/334/334 335/335/335
f 338/338/338 334/334/334 347/347/347
f 324/324/324 334/334/334 338/338/338
f 338/338/338 325/325/325 324/324/324
f 324/324/324 323/323/323 318/318/318
f 323/323/323 324/324/324 325/325/325
f 347/347/347 340/340/340 338/338/338
f 339/339/339 338/338/338 340/340/340
f 325/325/325 338/338/338 339/339/339
f 358/358/358 345/345/345 347/347/347
f 347/347/347 359/359/359 358/358/358
f 313/313/313 299/299/299 33/33/33
f 33/33/33 61/61/61 313/313/313
f 300/300/300 34/34/34 33/33/33
f 33/33/33 299/299/299 300/300/300
f 62/62/62 61/61/61 33/33/33
f 33/33/33 36/36/36 62/62/62
f 35/35/35 36/36/36 33/33/33
f 33/33/33 34/34/34 35/35/35
f 299/299/299 313/313/313 311/311/311
f 313/313/313 312/312/312 314/314/314
f 314/314/314 311/311/311 313/313/313
f 313/313/313 61/61/61 60/60/60
f 60/60/60 312/312/312 313/313/313
f 311/311/311 301/301/301 299/299/299
f 300/300/300 299/299/299 301/301/301
f 311/311/311 314/314/314 65/65/65
f 65/65/65 57/57/57 311/311/311
f 301/301/301 311/311/311 57/57/57
f 302/302/302 301/301/301 59/59/59
f 57/57/57 59/59/59 301/301/301
f 462/462/462 463/463/463 464/464/464
f 242/242/242 243/243/243 244/244/244
f 71/71/71 70/70/70 88/88/88
f 79/79/79 70/70/70 73/73/73
f 70/70/70 79/79/79 87/87/87
f 87/87/87 88/88/88 70/70/70
f 72/72/72 73/73/73 70/70/70
f 70/70/70 71/71/71 72/72/72
f 88/88/88 158/158/158 71/71/71
f 158/158/158 88/88/88 113/113/113
f 88/88/88 87/87/87 99/99/99
f 99/99/99 113/113/113 88/88/88
f 99/99/99 87/87/87 92/92/92
f 92/92/92 87/87/87 79/79/79
f 92/92/92 93/93/93 99/99/99
f 114/114/114 113/113/113 99/99/99
f 99/99/99 98/98/98 114/114/114
f 98/98/98 99/99/99 93/93/93
f 113/113/113 112/112/112 158/158/158
f 113/113/113 114/114/114 111/111/111
f 111/111/111 112/112/112 113/113/113
f 93/93/93 100/100/100 98/98/98
f 223/223/223 224/224/224 221/221/221
f 221/221/221 222/222/222 223/223/223
f 223/223/223 229/229/229 452/452/452
f 452/452/452 450/450/450 223/223/223
f 223/223/223 450/450/450 449/449/449
f 449/449/449 224/224/224 223/223/223
f 223/223/223 222/222/222 228/228/228
f 228/228/228 229/229/229 223/223/223
f 452/452/452 229/229/229 227/227/227
f 228/228/228 227/227/227 229/229/229
f 451/451/451 452/452/452 227/227/227
f 227/227/227 226/226/226 451/451/451
f 227/227/227 228/228/228 225/225/225
f 225/225/225 226/226/226 227/227/227
f 453/453/453 451/451/451 226/226/226
f 226/226/226 231/231/231 453/453/453
f 226/226/226 225/225/225 230/230/230
f 230/230/230 231/231/231 226/226/226
f 280/280/280 453/453/453 231/231/231
f 280/280/280 231/231/231 230/230/230
f 117/117/117 163/163/163 393/393/393
f 403/403/403 408/408/408 306/306/306
f 408/408/408 307/307/307 306/306/306
f 117/117/117 306/306/306 305/305/305
f 306/306/306 307/307/307 304/304/304
f 304/304/304 305/305/305 306/306/306
f 305/305/305 115/115/115 117/117/117
f 151/151/151 163/163/163 117/117/117
f 117/117/117 45/45/45 151/151/151
f 46/46/46 45/45/45 117/117/117
f 117/117/117 115/115/115 46/46/46
f 150/150/150 164/164/164 163/163/163
f 163/163/163 151/151/151 150/150/150
f 165/165/165 151/151/151 45/45/45
f 152/152/152 151/151/151 165/165/165
f 150/150/150 151/151/151 152/152/152
f 165/165/165 45/45/45 170/170/170
f 170/170/170 45/45/45 44/44/44
f 45/45/45 46/46/46 43/43/43
f 43/43/43 44/44/44 45/45/45
f 105/105/105 46/46/46 115/115/115
f 46/46/46 105/105/105 103/103/103
f 103/103/103 43/43/43 46/46/46
f 43/43/43 104/104/104 101/101/101
f 42/42/42 43/43/43 101/101/101
f 103/103/103 104/104/104 43/43/43
f 44/44/44 43/43/43 42/42/42
f 170/170/170 44/44/44 162/162/162
f 3/3/3 162/162/162 44/44/44
f 42/42/42 3/3/3 44/44/44
f 101/101/101 11/11/11 42/42/42
f 42/42/42 41/41/41 4/4/4
f 4/4/4 3/3/3 42/42/42
f 42/42/42 11/11/11 14/14/14
f 14/14/14 41/41/41 42/42/42
f 11/11/11 101/101/101 102/102/102
f 11/11/11 102/102/102 12/12/12
f 13/13/13 14/14/14 11/11/11
f 11/11/11 12/12/12 13/13/13
f 303/303/303 41/41/41 14/14/14
f 14/14/14 288/288/288 303/303/303
f 21/21/21 22/22/22 17/17/17
f 352/352/352 361/361/361 294/294/294
f 291/291/291 294/294/294 361/361/361
f 294/294/294 291/291/291 17/17/17
f 17/17/17 291/291/291 290/290/290
f 290/290/290 18/18/18 17/17/17
f 17/17/17 16/16/16 21/21/21
f 17/17/17 18/18/18 15/15/15
f 15/15/15 16/16/16 17/17/17
f 106/106/106 21/21/21 116/116/116
f 106/106/106 105/105/105 21/21/21
f 16/16/16 116/116/116 21/21/21
f 103/103/103 105/105/105 106/106/106
f 16/16/16 153/153/153 116/116/116
f 20/20/20 153/153/153 16/16/16
f 19/19/19 20/20/20 16/16/16
f 16/16/16 15/15/15 19/19/19
f 20/20/20 12/12/12 153/153/153
f 12/12/12 102/102/102 153/153/153
f 13/13/13 12/12/12 20/20/20
f 20/20/20 51/51/51 13/13/13
f 51/51/51 20/20/20 19/19/19
f 19/19/19 50/50/50 51/51/51
f 13/13/13 51/51/51 292/292/292
f 51/51/51 50/50/50 293/293/293
f 293/293/293 292/292/292 51/51/51
f 292/292/292 289/289/289 13/13/13
f 292/292/292 291/291/291 394/394/394
f 292/292/292 394/394/394 289/289/289
f 288/288/288 14/14/14 13/13/13
f 4/4/4 41/41/41 303/303/303
f 303/303/303 282/282/282 4/4/4
f 303/303/303 288/288/288 349/349/349
f 349/349/349 304/304/304 303/303/303
f 303/303/303 304/304/304 307/307/307
f 307/307/307 282/282/282 303/303/303
f 288/288/288 289/289/289 348/348/348
f 288/288/288 348/348/348 349/349/349
f 13/13/13 289/289/289 288/288/288
f 304/304/304 349/349/349 351/351/351
f 305/305/305 304/304/304 350/350/350
f 350/350/350 304/304/304 351/351/351
f 115/115/115 305/305/305 353/353/353
f 350/350/350 353/353/353 305/305/305
f 350/350/350 352/352/352 353/353/353
f 352/352/352 294/294/294 353/353/353
f 353/353/353 107/107/107 115/115/115
f 353/353/353 294/294/294 22/22/22
f 22/22/22 107/107/107 353/353/353
f 115/115/115 107/107/107 105/105/105
f 105/105/105 107/107/107 22/22/22
f 17/17/17 22/22/22 294/294/294
f 22/22/22 21/21/21 105/105/105
f 64/64/64 63/63/63 62/62/62
f 62/62/62 63/63/63 60/60/60
f 60/60/60 61/61/61 62/62/62
f 68/68/68 63/63/63 64/64/64
f 64/64/64 67/67/67 68/68/68
f 66/66/66 67/67/67 64/64/64
f 69/69/69 60/60/60 63/63/63
f 63/63/63 68/68/68 69/69/69
f 312/312/312 60/60/60 69/69/69
f 69/69/69 316/316/316 312/312/312
f 314/314/314 312/312/312 316/316/316
f 316/316/316 315/315/315 314/314/314
f 314/314/314 315/315/315 66/66/66
f 100/100/100 93/93/93 85/85/85
f 93/93/93 92/92/92 91/91/91
f 91/91/91 85/85/85 93/93/93
f 79/79/79 78/78/78 92/92/92
f 91/91/91 92/92/92 78/78/78
f 85/85/85 91/91/91 86/86/86
f 90/90/90 91/91/91 80/80/80
f 78/78/78 80/80/80 91/91/91
f 85/85/85 84/84/84 100/100/100
f 84/84/84 85/85/85 86/86/86
f 77/77/77 81/81/81 80/80/80
f 80/80/80 78/78/78 77/77/77
f 80/80/80 82/82/82 90/90/90
f 80/80/80 81/81/81 82/82/82
f 78/78/78 79/79/79 76/76/76
f 76/76/76 77/77/77 78/78/78
f 73/73/73 76/76/76 79/79/79
f 95/95/95 76/76/76 73/73/73
f 77/77/77 76/76/76 95/95/95
f 81/81/81 77/77/77 94/94/94
f 95/95/95 94/94/94 77/77/77
f 94/94/94 83/83/83 81/81/81
f 81/81/81 83/83/83 82/82/82
f 82/82/82 83/83/83 89/89/89
f 89/89/89 90/90/90 82/82/82
f 97/97/97 89/89/89 83/83/83
f 83/83/83 94/94/94 97/97/97
f 96/96/96 97/97/97 94/94/94
f 94/94/94 95/95/95 96/96/96
f 96/96/96 95/95/95 75/75/75
f 73/73/73 75/75/75 95/95/95
f 75/75/75 73/73/73 72/72/72
f 108/108/108 75/75/75 74/74/74
f 75/75/75 108/108/108 96/96/96
f 72/72/72 74/74/74 75/75/75
f 74/74/74 109/109/109 108/108/108
f 108/108/108 109/109/109 110/110/110
f 357/357/357 358/358/358 359/359/359
f 359/359/359 360/360/360 357/357/357
f 398/398/398 360/360/360 359/359/359
f 340/340/340 347/347/347 345/345/345
f 333/333/333 340/340/340 346/346/346
f 345/345/345 346/346/346 340/340/340
f 340/340/340 333/333/333 339/339/339
f 333/333/333 332/332/332 339/339/339
f 327/327/327 339/339/339 337/337/337
f 339/339/339 327/327/327 325/325/325
f 326/326/326 325/325/325 327/327/327
f 325/325/325 326/326/326 323/323/323
f 327/327/327 329/329/329 326/326/326
f 337/337/337 328/328/328 327/327/327
f 327/327/327 328/328/328 329/329/329
f 328/328/328 337/337/337 336/336/336
f 336/336/336 330/330/330 328/328/328
f 329/329/329 328/328/328 330/330/330
f 341/341/341 326/326/326 329/329/329
f 329/329/329 330/330/330 341/341/341
f 344/344/344 323/323/323 326/326/326
f 326/326/326 341/341/341 344/344/344
f 342/342/342 341/341/341 330/330/330
f 343/343/343 344/344/344 341/341/341
f 341/341/341 342/342/342 343/343/343
f 330/330/330 336/336/336 342/342/342
f 343/343/343 354/354/354 321/321/321
f 321/321/321 344/344/344 343/343/343
f 344/344/344 321/321/321 318/318/318
f 318/318/318 323/323/323 344/344/344
f 322/322/322 321/321/321 354/354/354
f 321/321/321 322/322/322 319/319/319
f 319/319/319 318/318/318 321/321/321
f 354/354/354 356/356/356 322/322/322
f 354/354/354 355/355/355 356/356/356
f 331/331/331 332/332/332 333/333/333
f 346/346/346 331/331/331 333/333/333
f 459/459/459 460/460/460 461/461/461
f 239/239/239 240/240/240 241/241/241
f 245/245/245 246/246/246 247/247/247
f 465/465/465 466/466/466 467/467/467
f 291/291/291 292/292/292 293/293/293
f 293/293/293 290/290/290 291/291/291
f 291/291/291 361/361/361 394/394/394
f 289/289/289 394/394/394 348/348/348
f 128/128/128 129/129/129 130/130/130
f 139/139/139 131/131/131 129/129/129
f 129/129/129 131/131/131 130/130/130
f 130/130/130 131/131/131 141/141/141
f 141/141/141 142/142/142 130/130/130
f 141/141/141 131/131/131 139/139/139
f 139/139/139 140/140/140 141/141/141
f 133/133/133 143/143/143 134/134/134
f 145/145/145 144/144/144 143/143/143
f 143/143/143 133/133/133 145/145/145
f 149/149/149 144/144/144 145/145/145
f 144/144/144 149/149/149 127/127/127
f 145/145/145 148/148/148 149/149/149
f 146/146/146 145/145/145 133/133/133
f 147/147/147 148/148/148 145/145/145
f 145/145/145 146/146/146 147/147/147
f 133/133/133 132/132/132 146/146/146
f 132/132/132 133/133/133 134/134/134
f 148/148/148 147/147/147 159/159/159
f 169/169/169 149/149/149 148/148/148
f 148/148/148 160/160/160 169/169/169
f 159/159/159 160/160/160 148/148/148
f 167/167/167 127/127/127 149/149/149
f 149/149/149 169/169/169 167/167/167
f 369/369/369 370/370/370 371/371/371
f 371/371/371 372/372/372 380/380/380
f 371/371/371 370/370/370 372/372/372
f 381/381/381 382/382/382 380/380/380
f 380/380/380 372/372/372 381/381/381
f 381/381/381 372/372/372 370/370/370
f 370/370/370 383/383/383 381/381/381
f 375/375/375 374/374/374 385/385/385
f 386/386/386 375/375/375 385/385/385
f 385/385/385 384/384/384 386/386/386
f 386/386/386 384/384/384 390/390/390
f 366/366/366 390/390/390 384/384/384
f 390/390/390 387/387/387 386/386/386
f 375/375/375 386/386/386 389/389/389
f 388/388/388 389/389/389 386/386/386
f 386/386/386 387/387/387 388/388/388
f 389/389/389 373/373/373 375/375/375
f 373/373/373 374/374/374 375/375/375
f 399/399/399 388/388/388 387/387/387
f 407/407/407 400/400/400 387/387/387
f 387/387/387 390/390/390 407/407/407
f 387/387/387 400/400/400 399/399/399
f 405/405/405 407/407/407 390/390/390
f 390/390/390 366/366/366 405/405/405
f 408/408/408 401/401/401 307/307/307
f 282/282/282 307/307/307 401/401/401
f 282/282/282 401/401/401 402/402/402
f 5/5/5 30/30/30 32/32/32
f 32/32/32 10/10/10 5/5/5
f 30/30/30 5/5/5 8/8/8
f 5/5/5 10/10/10 9/9/9
f 9/9/9 6/6/6 5/5/5
f 7/7/7 8/8/8 5/5/5
f 5/5/5 6/6/6 7/7/7
f 32/32/32 287/287/287 40/40/40
f 32/32/32 49/49/49 296/296/296
f 296/296/296 298/298/298 32/32/32
f 284/284/284 287/287/287 32/32/32
f 32/32/32 298/298/298 284/284/284
f 32/32/32 40/40/40 10/10/10
f 32/32/32 30/30/30 24/24/24
f 24/24/24 49/49/49 32/32/32
f 10/10/10 40/40/40 39/39/39
f 39/39/39 9/9/9 10/10/10
f 39/39/39 40/40/40 287/287/287
f 156/156/156 39/39/39 286/286/286
f 287/287/287 286/286/286 39/39/39
f 202/202/202 198/198/198 197/197/197
f 197/197/197 198/198/198 199/199/199
f 201/201/201 198/198/198 202/202/202
f 198/198/198 200/200/200 199/199/199
f 200/200/200 198/198/198 201/201/201
f 437/437/437 432/432/432 434/434/434
f 432/432/432 433/433/433 434/434/434
f 436/436/436 437/437/437 434/434/434
f 434/434/434 433/433/433 435/435/435
f 435/435/435 436/436/436 434/434/434
f 236/236/236 237/237/237 238/238/238
f 456/456/456 457/457/457 458/458/458
f 248/248/248 249/249/249 250/250/250
f 468/468/468 469/469/469 470/470/470
f 161/161/161 3/3/3 2/2/2
f 3/3/3 161/161/161 162/162/162
f 161/161/161 2/2/2 154/154/154
f 154/154/154 2/2/2 28/28/28
f 154/154/154 155/155/155 152/152/152
f 28/28/28 155/155/155 154/154/154
f 150/150/150 152/152/152 155/155/155
f 1/1/1 283/283/283 297/297/297
f 297/297/297 29/29/29 1/1/1
f 282/282/282 283/283/283 1/1/1
f 1/1/1 4/4/4 282/282/282
f 1/1/1 29/29/29 28/28/28
f 28/28/28 2/2/2 1/1/1
f 3/3/3 4/4/4 1/1/1
f 1/1/1 2/2/2 3/3/3
f 402/402/402 395/395/395 283/283/283
f 402/402/402 283/283/283 282/282/282
f 297/297/297 283/283/283 395/395/395
f 395/395/395 396/396/396 297/297/297
f 395/395/395 392/392/392 396/396/396
f 391/391/391 396/396/396 392/392/392
f 392/392/392 403/403/403 393/393/393
f 391/391/391 392/392/392 393/393/393
f 391/391/391 393/393/393 163/163/163
f 163/163/163 164/164/164 391/391/391
f 403/403/403 306/306/306 393/393/393
f 393/393/393 306/306/306 117/117/117
f 266/266/266 267/267/267 268/268/268
f 486/486/486 487/487/487 488/488/488
f 254/254/254 255/255/255 256/256/256
f 474/474/474 475/475/475 476/476/476
f 176/176/176 205/205/205 175/175/175
f 175/175/175 205/205/205 206/206/206
f 206/206/206 196/196/196 175/175/175
f 174/174/174 175/175/175 196/196/196
f 175/175/175 172/172/172 176/176/176
f 174/174/174 172/172/172 175/175/175
f 233/233/233 176/176/176 171/171/171
f 176/176/176 233/233/233 207/207/207
f 176/176/176 172/172/172 171/171/171
f 207/207/207 232/232/232 281/281/281
f 232/232/232 207/207/207 233/233/233
f 234/234/234 233/233/233 235/235/235
f 171/171/171 235/235/235 233/233/233
f 233/233/233 234/234/234 232/232/232
f 193/193/193 235/235/235 171/171/171
f 171/171/171 173/173/173 193/193/193
f 171/171/171 172/172/172 173/173/173
f 172/172/172 174/174/174 173/173/173
f 189/189/189 173/173/173 174/174/174
f 173/173/173 189/189/189 188/188/188
f 188/188/188 193/193/193 173/173/173
f 275/275/275 193/193/193 188/188/188
f 276/276/276 235/235/235 193/193/193
f 193/193/193 275/275/275 276/276/276
f 272/272/272 273/273/273 274/274/274
f 492/492/492 493/493/493 494/494/494
f 260/260/260 261/261/261 262/262/262
f 480/480/480 481/481/481 482/482/482
f 251/251/251 252/252/252 253/253/253
f 471/471/471 472/472/472 473/473/473
f 477/477/477 478/478/478 479/479/479
f 257/257/257 258/258/258 259/259/259
f 263/263/263 264/264/264 265/265/265
f 483/483/483 484/484/484 485/485/485
f 235/235/235 276/276/276 234/234/234
f 234/234/234 276/276/276 455/455/455
f 276/276/276 275/275/275 429/429/429
f 429/429/429 455/455/455 276/276/276
f 455/455/455 454/454/454 234/234/234
f 232/232/232 234/234/234 454/454/454
f 454/454/454 455/455/455 409/409/409
f 409/409/409 455/455/455 429/429/429
f 427/427/427 429/429/429 275/275/275
f 429/429/429 410/410/410 409/409/409
f 410/410/410 429/429/429 427/427/427
f 275/275/275 277/277/277 427/427/427
f 188/188/188 277/277/277 275/275/275
f 425/425/425 427/427/427 277/277/277
f 427/427/427 426/426/426 410/410/410
f 425/425/425 426/426/426 427/427/427
f 426/426/426 412/412/412 410/410/410
f 411/411/411 410/410/410 412/412/412
f 409/409/409 410/410/410 411/411/411
f 409/409/409 414/414/414 454/454/454
f 414/414/414 409/409/409 411/411/411
f 413/413/413 414/414/414 411/411/411
f 412/412/412 413/413/413 411/411/411
f 412/412/412 431/431/431 413/413/413
f 412/412/412 426/426/426 430/430/430
f 430/430/430 431/431/431 412/412/412
f 430/430/430 426/426/426 425/425/425
f 425/425/425 428/428/428 430/430/430
f 277/277/277 190/190/190 425/425/425
f 428/428/428 425/425/425 190/190/190
f 190/190/190 192/192/192 428/428/428
f 187/187/187 190/190/190 277/277/277
f 191/191/191 192/192/192 190/190/190
f 190/190/190 187/187/187 191/191/191
f 277/277/277 188/188/188 187/187/187
f 195/195/195 191/191/191 187/187/187
f 187/187/187 189/189/189 195/195/195
f 187/187/187 188/188/188 189/189/189
f 195/195/195 189/189/189 174/174/174
f 174/174/174 196/196/196 195/195/195
f 413/413/413 431/431/431 438/438/438
f 414/414/414 413/413/413 439/439/439
f 438/438/438 439/439/439 413/413/413
f 440/440/440 439/439/439 438/438/438
f 438/438/438 420/420/420 440/440/440
f 414/414/414 439/439/439 442/442/442
f 441/441/441 442/442/442 439/439/439
f 439/439/439 440/440/440 441/441/441
f 442/442/442 454/454/454 414/414/414
f 281/281/281 232/232/232 442/442/442
f 442/442/442 441/441/441 281/281/281
f 454/454/454 442/442/442 232/232/232
f 281/281/281 441/441/441 309/309/309
f 441/441/441 440/440/440 362/362/362
f 362/362/362 309/309/309 441/441/441
f 420/420/420 362/362/362 440/440/440
f 420/420/420 363/363/363 362/362/362
f 364/364/364 310/310/310 362/362/362
f 362/362/362 363/363/363 364/364/364
f 310/310/310 309/309/309 362/362/362
f 420/420/420 419/419/419 363/363/363
f 419/419/419 420/420/420 421/421/421
f 122/122/122 363/363/363 419/419/419
f 121/121/121 364/364/364 363/363/363
f 363/363/363 122/122/122 121/121/121
f 302/302/302 310/310/310 364/364/364
f 364/364/364 300/300/300 302/302/302
f 300/300/300 364/364/364 121/121/121
f 55/55/55 310/310/310 302/302/302
f 309/309/309 310/310/310 55/55/55
f 302/302/302 123/123/123 55/55/55
f 55/55/55 54/54/54 309/309/309
f 53/53/53 54/54/54 55/55/55
f 309/309/309 54/54/54 281/281/281
f 281/281/281 54/54/54 53/53/53
f 121/121/121 34/34/34 300/300/300
f 419/419/419 194/194/194 122/122/122
f 122/122/122 194/194/194 181/181/181
f 194/194/194 419/419/419 422/422/422
f 421/421/421 422/422/422 419/419/419
f 422/422/422 210/210/210 194/194/194
f 182/182/182 181/181/181 194/194/194
f 194/194/194 210/210/210 182/182/182
f 181/181/181 182/182/182 183/183/183
f 186/186/186 182/182/182 210/210/210
f 183/183/183 182/182/182 186/186/186
f 210/210/210 422/422/422 423/423/423
f 423/423/423 203/203/203 210/210/210
f 210/210/210 203/203/203 186/186/186
f 423/423/423 422/422/422 421/421/421
f 421/421/421 424/424/424 423/423/423
f 203/203/203 423/423/423 415/415/415
f 423/423/423 424/424/424 416/416/416
f 416/416/416 415/415/415 423/423/423
f 415/415/415 204/204/204 203/203/203
f 203/203/203 204/204/204 177/177/177
f 177/177/177 186/186/186 203/203/203
f 186/186/186 185/185/185 183/183/183
f 186/186/186 177/177/177 180/180/180
f 180/180/180 185/185/185 186/186/186
f 178/178/178 177/177/177 204/204/204
f 179/179/179 180/180/180 177/177/177
f 177/177/177 178/178/178 179/179/179
f 418/418/418 278/278/278 204/204/204
f 204/204/204 415/415/415 418/418/418
f 204/204/204 278/278/278 178/178/178
f 417/417/417 418/418/418 415/415/415
f 415/415/415 416/416/416 417/417/417
f 278/278/278 418/418/418 417/417/417
f 417/417/417 279/279/279 278/278/278
f 179/179/179 178/178/178 278/278/278
f 278/278/278 279/279/279 179/179/179
f 9/9/9 39/39/39 156/156/156
f 9/9/9 157/157/157 166/166/166
f 166/166/166 6/6/6 9/9/9
f 156/156/156 157/157/157 9/9/9
f 286/286/286 397/397/397 156/156/156
f 286/286/286 285/285/285 404/404/404
f 404/404/404 397/397/397 286/286/286
f 284/284/284 285/285/285 286/286/286
f 286/286/286 287/287/287 284/284/284
f 308/308/308 404/404/404 285/285/285
f 308/308/308 285/285/285 7/7/7
f 7/7/7 285/285/285 284/284/284
f 8/8/8 284/284/284 298/298/298
f 284/284/284 8/8/8 7/7/7
f 7/7/7 48/48/48 308/308/308
f 7/7/7 6/6/6 47/47/47
f 47/47/47 48/48/48 7/7/7
f 47/47/47 6/6/6 166/166/166
f 31/31/31 298/298/298 296/296/296
f 298/298/298 31/31/31 8/8/8
f 8/8/8 31/31/31 30/30/30
f 296/296/296 25/25/25 31/31/31
f 24/24/24 30/30/30 31/31/31
f 31/31/31 25/25/25 24/24/24
f 295/295/295 296/296/296 49/49/49
f 25/25/25 296/296/296 295/295/295
f 295/295/295 26/26/26 25/25/25
f 25/25/25 26/26/26 23/23/23
f 23/23/23 24/24/24 25/25/25
f 49/49/49 24/24/24 23/23/23
f 49/49/49 52/52/52 295/295/295
f 23/23/23 52/52/52 49/49/49
f 27/27/27 295/295/295 52/52/52
f 295/295/295 27/27/27 26/26/26
f 23/23/23 26/26/26 27/27/27
f 27/27/27 52/52/52 23/23/23
f 269/269/269 270/270/270 271/271/271
f 489/489/489 490/490/490 491/491/491
