# dolichorhynchops_ad reconstructed from live game memory
v 0.00001 26.13605 -56.44370
v 0.00001 26.47310 -61.78714
v 0.71751 26.31721 -61.78595
v 1.36117 25.09479 -56.44888
v 1.42309 25.33800 -61.78754
v 1.89670 23.82659 -61.82644
v 1.73598 23.87082 -56.50476
v 2.56190 26.22912 -44.87698
v 3.23887 26.55658 -42.05569
v 3.45556 26.83234 -41.34078
v 3.84186 27.21066 -41.50180
v 4.69026 26.84074 -39.76284
v 3.90695 26.53512 -40.36444
v 5.11516 25.10274 -39.94631
v 1.52762 21.85331 -62.97824
v 0.76228 20.85443 -63.27470
v 1.16792 20.56493 -61.75817
v 1.89644 21.86585 -61.74832
v 0.68423 21.80831 -63.71138
v 3.75553 20.46291 -39.45028
v 3.69646 20.58798 -34.97259
v 5.78243 22.96176 -37.64299
v 1.63663 20.44570 -49.93319
v 2.46326 21.86804 -49.80700
v 1.89464 21.92582 -56.53176
v 1.09897 20.55205 -56.63379
v 0.00001 20.80787 -63.51647
v 0.00001 20.14612 -61.75666
v 3.36012 20.59146 -43.84378
v 0.00001 19.67812 -43.92295
v 0.00000 18.74927 -39.54092
v 1.01570 25.44191 -63.24641
v 0.00001 25.87241 -63.30382
v 0.00001 24.74273 -64.19151
v 0.66670 24.74913 -63.83594
v 0.00001 23.77934 -64.08880
v 0.69903 23.75333 -63.97858
v 1.57002 23.77769 -63.29177
v 3.04142 25.90573 -42.67926
v 4.18747 24.58408 -42.07059
v 0.00000 25.74214 60.66393
v 0.00000 27.02038 51.75984
v 2.32551 24.02383 51.73147
v 1.39611 22.41010 60.62379
v 2.30609 21.23777 51.60735
v 7.24628 29.02928 -5.75986
v 2.17839 31.29440 -5.80470
v 2.05977 29.73838 -11.27117
v 6.51652 27.89943 -11.27108
v -0.00000 32.88435 -5.80470
v -0.00000 31.20024 -11.27117
v 1.86513 30.83186 28.67314
v 5.18052 28.41888 28.66692
v 4.11770 27.44976 34.93272
v 1.72873 30.04024 34.79592
v -0.00000 31.14472 34.78564
v -0.00000 32.24483 28.67314
v 12.71213 18.50648 -1.45075
v 11.75479 19.06757 0.18707
v 12.61565 20.63123 -1.66829
v 11.46484 24.00104 0.21589
v 0.00000 24.19109 69.27089
v 0.76422 22.39752 69.36169
v 3.50283 27.03015 -41.44368
v 3.19975 26.55650 -42.50229
v 4.04953 25.92445 -41.63995
v 3.99219 24.75253 -42.00815
v 4.66032 25.26255 -40.33296
v 4.09754 26.59995 -40.43917
v 3.34677 25.50585 -43.00177
v 14.87613 20.56052 -5.97860
v 13.27321 21.76882 -6.02685
v 11.23722 20.67797 -11.24409
v 14.38321 19.47133 -10.13640
v 25.29853 19.21723 -9.97040
v 24.67585 20.19492 -5.45150
v 15.03203 19.21033 -2.23862
v 12.61565 20.63123 -1.66829
v 18.22081 19.03573 -0.38390
v 33.06691 19.71247 -4.80518
v 33.61611 18.95450 -8.12708
v 24.52331 18.95068 -0.10169
v 43.09224 18.86623 -5.34496
v 43.26461 19.18026 -3.52008
v 44.68367 18.88813 -4.28432
v 43.00132 18.87273 -1.97828
v 32.50994 18.93577 -1.15879
v 45.35670 18.88333 -2.83542
v 12.71213 18.50648 -1.45075
v 14.57390 18.33922 -1.20953
v 13.65647 17.53302 -5.51710
v 11.28112 16.80503 -5.31590
v 17.82463 18.34523 0.62265
v 23.99023 17.58583 -4.89890
v 24.33908 18.34900 0.88980
v 32.41543 18.35446 -0.34833
v 43.45774 18.38358 -1.51005
v 44.29978 18.04213 -3.50332
v 32.99461 17.74088 -4.59173
v 46.28928 18.38853 -2.69354
v 12.71213 18.50648 -1.45075
v 14.57390 18.33922 -1.20953
v 17.82463 18.34523 0.62265
v 24.99655 18.44072 -10.71920
v 14.22569 18.51003 -10.81325
v 11.48902 18.76728 -11.27105
v 24.33908 18.34900 0.88980
v 33.73231 18.37401 -8.78255
v 45.51621 18.38488 -4.53330
v 46.28928 18.38853 -2.69354
v 32.41543 18.35446 -0.34833
v 43.45774 18.38358 -1.51005
v 11.48902 18.76728 -11.27105
v 4.74506 13.71900 -5.67799
v 11.28112 16.80503 -5.31590
v 5.10346 19.70798 41.78630
v 3.43922 20.21689 46.02322
v 3.39518 24.87134 46.04874
v 4.41950 25.51657 41.80942
v 3.43922 20.21689 46.02322
v 3.39518 24.87134 46.04874
v 11.59802 24.10990 -5.89430
v 43.57870 18.38623 -5.74763
v 6.89081 22.60392 36.05528
v 7.81976 20.21564 36.77892
v 4.21074 15.19151 -11.27117
v 0.00000 14.07343 -11.27117
v -0.00000 12.30804 -5.30033
v 4.83519 12.76945 0.21609
v 5.20208 12.84416 7.13550
v -0.00000 10.91391 7.13500
v -0.00000 11.85315 14.61952
v 4.74702 13.55150 14.61952
v 1.36057 28.43325 41.80889
v 0.00000 29.72583 41.80685
v 9.39612 20.11367 21.79199
v 9.13704 24.39490 21.78860
v 10.57017 24.27387 14.61952
v 10.54403 19.56699 14.61952
v 2.32161 31.67890 21.79000
v 6.57572 28.97471 21.69004
v -0.00000 33.22221 21.79010
v 3.77603 22.94481 -30.69687
v 3.97804 22.58123 -32.15765
v 2.22752 19.87192 -32.80013
v 2.19297 20.42646 -30.89257
v 8.47940 22.33879 28.69471
v 9.71629 20.30424 30.19399
v 8.83910 21.50132 34.51169
v 6.50675 17.77530 28.69494
v 3.72570 14.41060 21.79305
v -0.00000 14.75941 29.10292
v 5.59569 17.83152 34.21803
v -0.00000 15.74360 34.27261
v -0.00000 17.15501 41.82293
v 7.50372 29.42903 0.23582
v 11.12900 24.09724 7.14039
v 7.47440 29.67187 7.26419
v 7.18956 29.31100 14.55897
v 5.77984 25.43180 35.28025
v 7.62396 24.92181 28.68264
v 0.00000 27.58475 -45.67732
v 0.00000 26.51249 -48.84968
v 0.00000 28.92538 -42.65086
v 0.00000 24.10551 -48.07403
v 2.83744 23.80539 -48.34236
v 1.73598 23.87082 -56.50476
v 0.00000 24.16724 -54.06692
v 0.00000 18.72611 -35.45456
v 4.06103 23.43692 -43.89851
v 10.30465 23.54485 -11.27117
v 11.23722 20.67797 -11.24409
v 1.98790 29.05536 -15.72494
v 5.34812 26.82307 -15.58981
v 0.00000 30.36716 -16.01816
v 0.00000 29.71228 -21.25479
v 1.64651 28.55431 -21.20583
v 1.98790 29.05536 -15.72494
v 0.00000 30.36716 -16.01816
v 3.74891 26.52649 -21.15937
v 5.34812 26.82307 -15.58981
v 3.22594 26.50592 -28.61302
v 3.79450 23.35312 -28.61320
v 4.84811 23.36997 -21.11484
v 11.24695 19.07573 7.13800
v 2.47370 32.38617 14.61952
v -0.00000 33.99609 14.61952
v 1.30551 29.42709 -39.58081
v 2.01944 20.92353 -28.61728
v 2.88635 19.76194 -21.03561
v 0.00000 19.13546 -33.16933
v 0.00000 19.80055 -31.01613
v 0.00000 20.28759 -28.62163
v 3.19661 26.47835 -30.80794
v 3.69836 26.69862 -32.73588
v 7.16311 19.61090 -15.23813
v 3.76420 17.18880 -15.45006
v 7.69877 23.30489 -15.48180
v 7.69877 23.30489 -15.48180
v 0.00000 18.63613 -21.25295
v 0.97944 27.82244 46.06333
v 0.00000 28.57517 46.06924
v 0.97944 27.82244 46.06333
v 0.00000 28.57517 46.06924
v 9.71184 19.47718 30.26689
v 1.52762 21.85331 -62.97824
v 1.89644 21.86585 -61.74832
v 0.00001 21.06180 -61.90198
v 0.68423 21.80831 -63.71138
v 12.35848 20.66199 34.95398
v 8.83910 21.50132 34.51169
v 9.71629 20.30424 30.19399
v 13.54671 19.75111 30.88717
v 9.25165 19.88151 37.41808
v 10.67572 19.65333 39.38440
v 18.96618 20.32363 36.65432
v 20.17231 19.06651 32.63178
v 29.93446 18.91531 36.36403
v 34.79592 18.88032 38.67854
v 33.94173 19.48289 40.37175
v 28.75151 19.89824 39.24197
v 36.76762 18.88858 40.03513
v 33.63807 18.88130 42.03114
v 27.39838 18.55711 41.91766
v 36.64545 18.88530 41.47725
v 8.15864 19.16656 34.13000
v 7.81976 20.21564 36.77892
v 9.25165 19.88151 37.41808
v 12.00201 18.58169 34.81664
v 10.67572 19.65333 39.38440
v 13.16014 19.35649 40.22738
v 27.39838 18.55711 41.91766
v 33.86717 18.20531 42.29487
v 34.92089 17.86125 40.37207
v 29.13765 17.63804 39.25269
v 37.15491 18.19966 41.59589
v 9.71184 19.47718 30.26689
v 13.51602 18.98429 30.81684
v 20.20958 18.36795 32.54841
v 37.22988 18.19369 40.00977
v 37.15491 18.19966 41.59589
v 33.86717 18.20531 42.29487
v 18.35529 19.04911 40.81136
v 30.12311 18.17447 36.20558
v 18.79268 17.76710 36.63400
v 13.16014 19.35649 40.22738
v 18.35529 19.04911 40.81136
v 35.20766 18.20546 38.53046
v 8.15864 19.16656 34.13000
v 0.00000 21.08013 69.25891
v 0.00000 19.96790 60.56403
v 2.70809 20.74969 -44.15709
v 4.21769 22.09904 -39.27132
v 4.43464 23.57889 -40.35028
v 2.65460 23.80468 -44.62112
v 1.40523 21.60502 -60.28177
v 1.81789 22.90597 -59.97474
v 1.74435 22.91852 -60.77329
v 1.16498 21.78352 -62.03495
v 1.59877 22.98142 -61.70604
v 1.50730 23.03542 -62.52187
v 0.26449 24.07012 -63.71845
v 0.80638 22.92202 -63.76663
v 1.19635 22.88722 -63.17345
v 1.13489 24.00052 -62.86418
v 1.37478 22.00487 -58.41619
v 1.73765 23.11754 -58.14062
v 1.80968 23.12619 -58.94262
v 0.96944 22.69800 -56.82244
v 1.31794 24.12091 -56.22059
v 1.33478 24.20771 -57.57237
v 1.15425 24.06265 -54.71991
v 1.00189 24.11844 -56.08532
v 0.92301 22.77527 -55.60154
v 1.94237 22.48718 -54.11840
v 1.61399 23.94634 -53.56334
v 1.37121 24.06865 -54.65340
v 1.46145 22.32924 -52.47606
v 1.68034 24.31824 -51.72108
v 1.50752 24.23991 -53.04344
v 1.95745 24.09733 -50.10619
v 1.59941 24.27717 -51.38892
v 1.68832 21.94739 -50.99227
v 1.49212 23.62793 -51.71601
v 1.49678 21.51745 -52.20647
v 1.50580 21.60869 -51.00435
v 2.08184 23.54211 -49.93944
v 2.07652 21.47988 -50.65653
v 2.07063 21.51919 -49.46605
v 1.68971 23.39948 -53.25210
v 1.48087 21.28930 -53.87372
v 1.60394 21.34445 -52.74943
v 1.66811 23.41220 -54.78463
v 1.36870 21.50935 -55.64430
v 1.37310 21.58900 -54.51811
v 1.71777 23.25972 -56.24698
v 1.34164 21.70013 -56.77324
v 1.47142 21.75951 -55.97023
v 1.19616 23.29739 -57.57795
v 1.13266 21.68012 -58.28509
v 1.60614 21.72281 -57.12667
v 1.08245 23.56016 -59.37767
v 1.42741 22.59849 -59.80075
v 1.43921 22.59839 -59.02327
v 1.22914 23.39886 -61.19167
v 1.47741 22.51335 -61.58416
v 1.58038 22.51785 -60.80388
v 1.01045 21.46479 -62.38437
v 1.15494 22.36036 -62.60480
v 0.93577 22.35996 -63.11639
v 0.45252 21.46399 -63.17120
v 2.02752 22.41333 -48.95462
v 2.27536 24.06076 -47.98682
v 1.94402 24.13815 -49.42353
v 2.28012 23.37310 -47.77232
v 2.12577 21.51007 -48.60895
v 2.31003 21.55071 -47.43134
v 3.08072 23.82724 -45.80763
v 2.88725 23.88253 -46.98097
v 2.92085 21.84613 -46.64732
v -0.00000 18.73786 51.65150
v 0.00000 22.84369 74.21445
v -0.00000 17.88285 46.07314
v -0.00000 17.88285 46.07314
v -0.00000 34.50638 7.13950
v -0.00000 34.12915 0.21611
v 2.36418 32.48238 0.21611
v 2.45396 32.88667 7.13970
v 0.00001 21.76577 -63.88760
v 0.00001 21.76577 -63.88760
v 0.69903 23.75333 -63.97858
v 0.00001 23.77934 -64.08880
v 0.00001 24.07822 -61.69360
v 1.57002 23.77769 -63.29177
v 0.00000 15.89054 -16.01822
v 0.00000 15.89054 -16.01822
v 3.76420 17.18880 -15.45006
v 0.00000 29.81659 -39.62079
v -0.00000 13.19662 21.79159
v 0.00000 29.78812 -35.22031
v 1.70211 29.02569 -34.96188
v 1.65900 28.44739 -31.02536
v 0.00000 29.12816 -31.20561
v 1.59976 28.13568 -28.61821
v 0.00000 29.04740 -28.62664
v 7.16311 19.61090 -15.23813
v 4.36085 26.81587 -35.42510
v 5.75023 23.68069 -34.58089
v 5.24690 22.94838 -41.35308
v 13.27321 21.76882 -6.02685
v 0.00001 19.91473 -56.72976
v 1.89464 21.92582 -56.53176
v 0.00001 21.01079 -56.48465
v 0.00001 20.85610 -49.76594
v 2.46326 21.86804 -49.80700
v 0.00001 19.72496 -44.80084
v 2.04173 25.09972 -48.70807
v 0.00001 19.76713 -50.50812
v 0.00001 24.15198 -58.42914
v 1.89670 23.82659 -61.82644
v 2.83744 23.80539 -48.34236
v 3.58321 22.28115 -43.76566
v 0.00000 23.48717 -43.51413
v 4.06103 23.43692 -43.89851
v 0.00000 22.88276 -41.19839
v 5.24690 22.94838 -41.35308
v 0.00000 22.88276 -41.19839
v 0.00000 22.21051 -43.35378
v 3.58321 22.28115 -43.76566
v 5.24690 22.94838 -41.35308
v 1.56061 24.20692 -59.54895
v 1.23055 24.23202 -60.64812
v 1.41941 24.17932 -61.36287
v 1.10175 24.28732 -62.45519
v 0.61644 21.77391 -63.36483
v 1.44990 24.23022 -57.71326
v 1.44138 24.24752 -58.75699
v 1.02037 21.63683 -59.92832
v 1.18778 21.63663 -58.90133
v 0.97572 21.47828 -61.68860
v 1.32138 21.48728 -60.64103
v 0.67914 22.90914 -62.90863
v 3.22021 26.01673 -41.35568
v 7.81976 20.21564 36.77892
v -0.00000 11.29643 0.21611
v -0.71750 26.31721 -61.78595
v -1.36116 25.09479 -56.44888
v -1.42308 25.33800 -61.78754
v -1.89669 23.82659 -61.82644
v -1.73597 23.87082 -56.50476
v -2.56190 26.22912 -44.87698
v -3.84186 27.21067 -41.50180
v -3.45556 26.83234 -41.34078
v -3.23886 26.55658 -42.05569
v -4.69025 26.84074 -39.76284
v -5.11515 25.10274 -39.94631
v -3.90695 26.53512 -40.36444
v -1.52760 21.85331 -62.97824
v -1.89642 21.86585 -61.74832
v -1.16790 20.56493 -61.75817
v -0.76225 20.85443 -63.27470
v -0.68421 21.80831 -63.71138
v -3.75552 20.46291 -39.45028
v -5.78243 22.96176 -37.64299
v -3.69645 20.58798 -34.97259
v -1.63662 20.44570 -49.93319
v -1.09895 20.55205 -56.63379
v -1.89462 21.92582 -56.53176
v -2.46325 21.86804 -49.80700
v -3.36011 20.59146 -43.84378
v -1.01569 25.44191 -63.24641
v -0.66669 24.74913 -63.83594
v -0.69902 23.75333 -63.97858
v -1.57001 23.77769 -63.29177
v -3.04141 25.90573 -42.67926
v -4.18746 24.58408 -42.07059
v -1.39611 22.41010 60.62379
v -2.32551 24.02383 51.73147
v -2.30609 21.23777 51.60735
v -7.24628 29.02928 -5.75986
v -6.51652 27.89943 -11.27108
v -2.05977 29.73838 -11.27117
v -2.17839 31.29440 -5.80470
v -1.86513 30.83186 28.67314
v -1.72873 30.04024 34.79592
v -4.11770 27.44976 34.93272
v -5.18052 28.41888 28.66692
v -12.71213 18.50648 -1.45075
v -12.61565 20.63123 -1.66829
v -11.75479 19.06757 0.18706
v -11.46485 24.00104 0.21589
v -0.76421 22.39752 69.36169
v -3.50282 27.03015 -41.44368
v -4.04953 25.92445 -41.63995
v -3.19974 26.55650 -42.50229
v -3.99218 24.75253 -42.00815
v -4.66032 25.26255 -40.33296
v -4.09753 26.59996 -40.43917
v -3.34676 25.50585 -43.00177
v -14.87613 20.56052 -5.97860
v -14.38321 19.47133 -10.13640
v -11.23722 20.67797 -11.24409
v -13.27321 21.76882 -6.02685
v -24.67585 20.19493 -5.45150
v -25.29853 19.21723 -9.97040
v -15.03203 19.21033 -2.23863
v -12.61565 20.63123 -1.66829
v -18.22081 19.03573 -0.38390
v -33.06692 19.71248 -4.80518
v -33.61611 18.95450 -8.12708
v -24.52331 18.95068 -0.10169
v -43.26462 19.18026 -3.52008
v -43.09225 18.86623 -5.34496
v -44.68367 18.88813 -4.28432
v -32.50994 18.93578 -1.15880
v -43.00133 18.87273 -1.97828
v -45.35670 18.88333 -2.83543
v -12.71213 18.50648 -1.45075
v -11.28112 16.80503 -5.31590
v -13.65647 17.53302 -5.51710
v -14.57389 18.33922 -1.20953
v -23.99022 17.58583 -4.89890
v -17.82463 18.34523 0.62265
v -24.33908 18.34901 0.88979
v -32.41543 18.35446 -0.34833
v -32.99461 17.74088 -4.59173
v -44.29978 18.04213 -3.50332
v -43.45774 18.38358 -1.51005
v -46.28928 18.38853 -2.69354
v -12.71213 18.50648 -1.45075
v -14.57389 18.33922 -1.20953
v -17.82463 18.34523 0.62265
v -24.99656 18.44073 -10.71920
v -14.22569 18.51003 -10.81325
v -11.48902 18.76727 -11.27106
v -24.33908 18.34901 0.88979
v -33.73231 18.37402 -8.78256
v -46.28928 18.38853 -2.69354
v -45.51621 18.38488 -4.53330
v -32.41543 18.35446 -0.34833
v -43.45774 18.38358 -1.51005
v -11.48902 18.76727 -11.27106
v -11.28112 16.80503 -5.31590
v -4.74507 13.71900 -5.67799
v -5.10346 19.70798 41.78630
v -4.41950 25.51657 41.80942
v -3.39518 24.87134 46.04874
v -3.43922 20.21689 46.02322
v -3.43922 20.21689 46.02322
v -3.39518 24.87134 46.04874
v -11.59802 24.10990 -5.89430
v -43.57870 18.38623 -5.74763
v -6.89081 22.60392 36.05528
v -7.81976 20.21564 36.77892
v -4.21074 15.19151 -11.27117
v -4.83520 12.76945 0.21609
v -5.20208 12.84416 7.13550
v -4.74702 13.55150 14.61952
v -1.36057 28.43325 41.80889
v -9.39612 20.11367 21.79199
v -10.54403 19.56699 14.61952
v -10.57017 24.27387 14.61952
v -9.13704 24.39490 21.78860
v -2.32161 31.67890 21.79000
v -6.57572 28.97471 21.69004
v -3.77602 22.94481 -30.69687
v -2.19296 20.42646 -30.89257
v -2.22752 19.87192 -32.80013
v -3.97804 22.58123 -32.15765
v -8.83910 21.50132 34.51169
v -9.71629 20.30424 30.19399
v -8.47940 22.33879 28.69471
v -6.50675 17.77530 28.69494
v -3.72570 14.41060 21.79305
v -5.59569 17.83152 34.21803
v -7.50372 29.42903 0.23582
v -7.47440 29.67187 7.26419
v -11.12900 24.09724 7.14039
v -7.18957 29.31100 14.55897
v -5.77984 25.43180 35.28025
v -7.62396 24.92181 28.68264
v -1.73597 23.87082 -56.50476
v -2.83743 23.80539 -48.34236
v -4.06103 23.43692 -43.89851
v -11.23722 20.67797 -11.24409
v -10.30465 23.54485 -11.27117
v -5.34812 26.82307 -15.58981
v -1.98790 29.05536 -15.72494
v -1.98790 29.05536 -15.72494
v -1.64650 28.55431 -21.20583
v -5.34812 26.82307 -15.58981
v -3.74890 26.52649 -21.15937
v -3.22593 26.50592 -28.61302
v -4.84811 23.36997 -21.11484
v -3.79450 23.35312 -28.61320
v -11.24695 19.07573 7.13800
v -2.47370 32.38617 14.61952
v -1.30551 29.42709 -39.58081
v -2.01943 20.92353 -28.61728
v -2.88635 19.76194 -21.03561
v -3.19661 26.47835 -30.80794
v -3.69836 26.69862 -32.73588
v -3.76420 17.18880 -15.45006
v -7.16311 19.61090 -15.23813
v -7.69877 23.30489 -15.48180
v -7.69877 23.30489 -15.48180
v -0.97944 27.82244 46.06333
v -0.97944 27.82244 46.06333
v -9.71184 19.47718 30.26689
v -1.52760 21.85331 -62.97824
v -1.89642 21.86585 -61.74832
v -0.68421 21.80831 -63.71138
v -12.35848 20.66199 34.95398
v -13.54671 19.75112 30.88717
v -9.71629 20.30424 30.19399
v -8.83910 21.50132 34.51169
v -9.25165 19.88151 37.41808
v -10.67572 19.65333 39.38440
v -18.96619 20.32363 36.65432
v -20.17231 19.06651 32.63178
v -29.93446 18.91531 36.36403
v -28.75151 19.89824 39.24197
v -33.94173 19.48290 40.37175
v -34.79592 18.88032 38.67854
v -36.76762 18.88858 40.03513
v -27.39838 18.55711 41.91766
v -33.63807 18.88130 42.03114
v -36.64545 18.88531 41.47725
v -8.15864 19.16656 34.13000
v -12.00201 18.58169 34.81664
v -9.25165 19.88151 37.41808
v -7.81976 20.21564 36.77892
v -10.67572 19.65333 39.38440
v -13.16014 19.35650 40.22738
v -27.39838 18.55711 41.91766
v -29.13765 17.63804 39.25269
v -34.92089 17.86125 40.37207
v -33.86717 18.20531 42.29487
v -37.15491 18.19966 41.59589
v -13.51602 18.98429 30.81684
v -9.71184 19.47718 30.26689
v -20.20958 18.36796 32.54841
v -37.15491 18.19966 41.59589
v -37.22988 18.19369 40.00977
v -33.86717 18.20531 42.29487
v -18.35529 19.04911 40.81136
v -30.12311 18.17447 36.20558
v -18.79268 17.76710 36.63400
v -13.16014 19.35650 40.22738
v -18.35529 19.04911 40.81136
v -35.20766 18.20546 38.53046
v -8.15864 19.16656 34.13000
v -2.70808 20.74969 -44.15709
v -2.65459 23.80468 -44.62112
v -4.43463 23.57889 -40.35028
v -4.21768 22.09904 -39.27132
v -1.40522 21.60502 -60.28177
v -1.74434 22.91852 -60.77329
v -1.81788 22.90597 -59.97474
v -1.16497 21.78352 -62.03495
v -1.50729 23.03542 -62.52187
v -1.59876 22.98142 -61.70604
v -0.26448 24.07012 -63.71845
v -1.13488 24.00052 -62.86418
v -1.19634 22.88722 -63.17345
v -0.80637 22.92202 -63.76663
v -1.37477 22.00487 -58.41619
v -1.80967 23.12619 -58.94262
v -1.73764 23.11754 -58.14062
v -0.96943 22.69800 -56.82244
v -1.33477 24.20771 -57.57237
v -1.31793 24.12091 -56.22059
v -1.15424 24.06265 -54.71991
v -0.92300 22.77527 -55.60154
v -1.00188 24.11844 -56.08532
v -1.94236 22.48718 -54.11840
v -1.37121 24.06865 -54.65340
v -1.61399 23.94634 -53.56334
v -1.46144 22.32925 -52.47606
v -1.50751 24.23991 -53.04344
v -1.68033 24.31824 -51.72108
v -1.95744 24.09733 -50.10619
v -1.68831 21.94739 -50.99227
v -1.59940 24.27717 -51.38892
v -1.49210 23.62793 -51.71601
v -1.50579 21.60869 -51.00435
v -1.49677 21.51745 -52.20647
v -2.08183 23.54211 -49.93944
v -2.07062 21.51919 -49.46605
v -2.07651 21.47988 -50.65653
v -1.68970 23.39948 -53.25210
v -1.60392 21.34445 -52.74943
v -1.48085 21.28930 -53.87372
v -1.66809 23.41220 -54.78463
v -1.37309 21.58900 -54.51811
v -1.36868 21.50935 -55.64430
v -1.71776 23.25972 -56.24698
v -1.47140 21.75951 -55.97023
v -1.34163 21.70013 -56.77324
v -1.19614 23.29739 -57.57795
v -1.60612 21.72281 -57.12667
v -1.13264 21.68012 -58.28509
v -1.08243 23.56016 -59.37767
v -1.43919 22.59839 -59.02327
v -1.42739 22.59849 -59.80075
v -1.22912 23.39886 -61.19167
v -1.58036 22.51785 -60.80388
v -1.47739 22.51335 -61.58416
v -1.01043 21.46479 -62.38437
v -0.45250 21.46399 -63.17120
v -0.93575 22.35996 -63.11639
v -1.15492 22.36036 -62.60480
v -2.02751 22.41333 -48.95462
v -1.94401 24.13815 -49.42353
v -2.27535 24.06076 -47.98682
v -2.28011 23.37310 -47.77232
v -2.31002 21.55071 -47.43134
v -2.12576 21.51007 -48.60895
v -3.08071 23.82724 -45.80763
v -2.92084 21.84613 -46.64732
v -2.88724 23.88253 -46.98097
v -2.45396 32.88667 7.13970
v -2.36419 32.48238 0.21611
v -0.69902 23.75333 -63.97858
v -1.57001 23.77769 -63.29177
v -3.76420 17.18880 -15.45006
v -1.65900 28.44739 -31.02536
v -1.70210 29.02569 -34.96188
v -1.59976 28.13568 -28.61821
v -7.16311 19.61090 -15.23813
v -4.36085 26.81587 -35.42510
v -5.75023 23.68069 -34.58089
v -5.24689 22.94838 -41.35308
v -13.27321 21.76882 -6.02685
v -1.89462 21.92582 -56.53176
v -2.46325 21.86804 -49.80700
v -2.04172 25.09972 -48.70807
v -1.89669 23.82659 -61.82644
v -2.83743 23.80539 -48.34236
v -3.58320 22.28115 -43.76566
v -4.06103 23.43692 -43.89851
v -5.24689 22.94838 -41.35308
v -5.24689 22.94838 -41.35308
v -3.58320 22.28115 -43.76566
v -1.56060 24.20692 -59.54895
v -1.23054 24.23202 -60.64812
v -1.41940 24.17932 -61.36287
v -1.10174 24.28732 -62.45519
v -0.61643 21.77392 -63.36483
v -1.44989 24.23022 -57.71326
v -1.44137 24.24752 -58.75699
v -1.02036 21.63683 -59.92832
v -1.18776 21.63663 -58.90133
v -0.97570 21.47828 -61.68860
v -1.32136 21.48728 -60.64103
v -0.67912 22.90914 -62.90863
v -3.22020 26.01673 -41.35568
v -7.81976 20.21564 36.77892
vt 0.256207 0.872522
vt 0.166870 0.868847
vt 0.169202 0.860029
vt 0.259793 0.844646
vt 0.172388 0.838326
vt 0.173792 0.813504
vt 0.260929 0.822150
vt 0.454423 0.869474
vt 0.502559 0.868222
vt 0.516009 0.871454
vt 0.517494 0.879852
vt 0.548422 0.868330
vt 0.532509 0.864032
vt 0.542712 0.841928
vt 0.153173 0.790782
vt 0.149599 0.772243
vt 0.175326 0.773036
vt 0.174258 0.794409
vt 0.136479 0.781884
vt 0.536421 0.772544
vt 0.616697 0.778824
vt 0.571275 0.814923
vt 0.366423 0.763709
vt 0.370774 0.792559
vt 0.260215 0.793678
vt 0.258589 0.765795
vt 0.142393 0.764470
vt 0.173957 0.756575
vt 0.470930 0.775715
vt 0.466856 0.736400
vt 0.533086 0.728029
vt 0.144327 0.843614
vt 0.139302 0.856856
vt 0.122552 0.836564
vt 0.127889 0.833890
vt 0.119296 0.820699
vt 0.124150 0.818828
vt 0.145518 0.813791
vt 0.490341 0.858554
vt 0.502497 0.838533
vt 0.738278 0.186834
vt 0.865754 0.206418
vt 0.863891 0.143204
vt 0.734592 0.128965
vt 0.859276 0.089279
vt 0.827626 0.501675
vt 0.833384 0.560489
vt 0.892466 0.545091
vt 0.886587 0.491509
vt 0.834922 0.588540
vt 0.894485 0.571484
vt 0.450985 0.539918
vt 0.459178 0.490962
vt 0.387299 0.482948
vt 0.383893 0.523146
vt 0.380110 0.544661
vt 0.447374 0.564552
vt 0.778414 0.379470
vt 0.762660 0.382469
vt 0.780351 0.398660
vt 0.761366 0.435454
vt 0.616575 0.172894
vt 0.612257 0.143465
vt 0.151619 0.466595
vt 0.209908 0.435740
vt 0.146163 0.398046
vt 0.174575 0.331660
vt 0.067229 0.367491
vt 0.087387 0.444691
vt 0.228267 0.373635
vt 0.173163 0.123816
vt 0.160490 0.126295
vt 0.158617 0.177262
vt 0.176550 0.180222
vt 0.285349 0.159200
vt 0.275233 0.110815
vt 0.170638 0.076888
vt 0.152794 0.086140
vt 0.203686 0.056886
vt 0.365202 0.101689
vt 0.371614 0.139328
vt 0.272556 0.051240
vt 0.472291 0.114941
vt 0.474907 0.094339
vt 0.490717 0.106164
vt 0.473857 0.075173
vt 0.359790 0.059703
vt 0.498449 0.089349
vt 0.184003 0.304426
vt 0.206906 0.295889
vt 0.183945 0.256071
vt 0.159408 0.265228
vt 0.248714 0.303910
vt 0.294180 0.228825
vt 0.317972 0.283881
vt 0.400107 0.233775
vt 0.502109 0.158135
vt 0.497434 0.135350
vt 0.385896 0.191366
vt 0.518870 0.129866
vt 0.143352 0.065861
vt 0.162281 0.058853
vt 0.197693 0.040611
vt 0.283560 0.170549
vt 0.171881 0.200052
vt 0.140826 0.199389
vt 0.270828 0.035810
vt 0.373748 0.149586
vt 0.501177 0.114323
vt 0.510878 0.088340
vt 0.359682 0.045994
vt 0.480435 0.068059
vt 0.871477 0.375891
vt 0.827221 0.290933
vt 0.817853 0.367485
vt 0.328074 0.381141
vt 0.266742 0.382660
vt 0.267942 0.445777
vt 0.314217 0.453237
vt 0.938175 0.068200
vt 0.947020 0.145770
vt 0.825061 0.433192
vt 0.477711 0.121225
vt 0.381677 0.418790
vt 0.383281 0.398625
vt 0.887622 0.301099
vt 0.893805 0.255438
vt 0.827703 0.239224
vt 0.761760 0.282924
vt 0.686302 0.288508
vt 0.683524 0.229920
vt 0.598708 0.242530
vt 0.605084 0.295796
vt 0.308587 0.498203
vt 0.306205 0.520425
vt 0.534908 0.390925
vt 0.535414 0.438494
vt 0.611095 0.437602
vt 0.611088 0.386826
vt 0.524946 0.553447
vt 0.532238 0.498592
vt 0.521523 0.582603
vt 0.705844 0.813988
vt 0.666981 0.810025
vt 0.652383 0.762309
vt 0.693916 0.768331
vt 0.459440 0.416460
vt 0.442279 0.402551
vt 0.402536 0.404181
vt 0.453543 0.354962
vt 0.526204 0.302228
vt 0.439177 0.285540
vt 0.394678 0.353541
vt 0.383354 0.300907
vt 0.296835 0.330867
vt 0.760725 0.506350
vt 0.689492 0.436248
vt 0.687147 0.508231
vt 0.608950 0.503428
vt 0.386878 0.454095
vt 0.459195 0.447794
vt 0.434055 0.906369
vt 0.379348 0.888374
vt 0.489012 0.927969
vt 0.140084 0.965835
vt 0.144727 0.926589
vt 0.259756 0.943702
vt 0.225029 0.967119
vt 0.607475 0.732179
vt 0.473386 0.821326
vt 0.881856 0.426972
vt 0.877354 0.392994
vt 0.942175 0.534712
vt 0.938367 0.485930
vt 0.947609 0.559653
vt 0.842547 0.961079
vt 0.847764 0.929726
vt 0.920806 0.952969
vt 0.922433 0.983468
vt 0.857974 0.880228
vt 0.954536 0.887170
vt 0.751295 0.875700
vt 0.749746 0.818174
vt 0.864974 0.812490
vt 0.689183 0.382169
vt 0.604050 0.564999
vt 0.601846 0.596041
vt 0.545922 0.930943
vt 0.744930 0.768245
vt 0.859506 0.742895
vt 0.643428 0.730192
vt 0.687406 0.738305
vt 0.735823 0.738492
vt 0.701320 0.875186
vt 0.644073 0.875440
vt 0.934474 0.363386
vt 0.938512 0.313763
vt 0.968243 0.806520
vt 0.937933 0.414398
vt 0.832719 0.701729
vt 0.264262 0.483305
vt 0.262483 0.495840
vt 0.947250 0.193891
vt 0.946804 0.210218
vt 0.442580 0.401576
vt 0.045093 0.371404
vt 0.049860 0.352304
vt 0.018026 0.354677
vt 0.033172 0.383450
vt 0.086594 0.671295
vt 0.048548 0.674371
vt 0.049422 0.620328
vt 0.090159 0.621667
vt 0.061153 0.711937
vt 0.080270 0.725984
vt 0.158445 0.671899
vt 0.159960 0.623808
vt 0.266159 0.631466
vt 0.320739 0.636796
vt 0.317838 0.659173
vt 0.263444 0.667769
vt 0.345255 0.641726
vt 0.322530 0.679778
vt 0.261659 0.705768
vt 0.353818 0.657804
vt 0.047498 0.566483
vt 0.048579 0.538089
vt 0.066409 0.535513
vt 0.088814 0.569799
vt 0.085876 0.518818
vt 0.116655 0.517884
vt 0.271206 0.559059
vt 0.333174 0.592746
vt 0.332038 0.615243
vt 0.273619 0.592764
vt 0.362599 0.620423
vt 0.051347 0.607370
vt 0.091073 0.610994
vt 0.161257 0.614285
vt 0.351596 0.631943
vt 0.363873 0.658092
vt 0.329086 0.686830
vt 0.166447 0.723383
vt 0.268188 0.622841
vt 0.163268 0.572657
vt 0.111017 0.728622
vt 0.173253 0.530055
vt 0.324816 0.630324
vt 0.403197 0.393411
vt 0.610782 0.123285
vt 0.728014 0.085506
vt 0.469373 0.611056
vt 0.582173 0.633219
vt 0.575723 0.668234
vt 0.467064 0.681508
vt 0.836479 0.670638
vt 0.784994 0.687635
vt 0.783916 0.656049
vt 0.836859 0.670857
vt 0.786062 0.688288
vt 0.784997 0.656350
vt 0.734069 0.637507
vt 0.786112 0.654337
vt 0.786977 0.689216
vt 0.736425 0.703232
vt 0.837493 0.668917
vt 0.787185 0.687039
vt 0.785329 0.658609
vt 0.845325 0.669504
vt 0.743868 0.704829
vt 0.743836 0.636914
vt 0.743521 0.710323
vt 0.747845 0.636389
vt 0.850438 0.673884
vt 0.845243 0.669812
vt 0.743918 0.704184
vt 0.742417 0.638241
vt 0.843124 0.672530
vt 0.738759 0.706799
vt 0.738558 0.634582
vt 0.737149 0.707520
vt 0.735732 0.638405
vt 0.839948 0.673561
vt 0.802700 0.671990
vt 0.700170 0.706480
vt 0.699421 0.637937
vt 0.802305 0.669482
vt 0.700053 0.703905
vt 0.699085 0.637017
vt 0.802611 0.669919
vt 0.700264 0.704482
vt 0.699551 0.637415
vt 0.800679 0.667127
vt 0.699397 0.701277
vt 0.697577 0.637955
vt 0.796063 0.667136
vt 0.694341 0.701703
vt 0.693375 0.638720
vt 0.798299 0.670430
vt 0.696385 0.704102
vt 0.694117 0.637074
vt 0.804559 0.670693
vt 0.753241 0.687761
vt 0.751569 0.651958
vt 0.803586 0.672100
vt 0.753155 0.688240
vt 0.751319 0.652146
vt 0.826264 0.684819
vt 0.784075 0.662745
vt 0.738956 0.679570
vt 0.745368 0.717869
vt 0.845225 0.673879
vt 0.739901 0.709067
vt 0.741561 0.636634
vt 0.800186 0.667746
vt 0.698861 0.701824
vt 0.696935 0.637070
vt 0.738846 0.708281
vt 0.737885 0.636778
vt 0.842425 0.674259
vt 0.849235 0.043962
vt 0.567839 0.156918
vt 0.924943 0.015947
vt 0.259665 0.342072
vt 0.686659 0.603682
vt 0.765727 0.600651
vt 0.764953 0.570538
vt 0.687251 0.572869
vt 0.128655 0.773173
vt 0.023344 0.387111
vt 0.369010 0.962631
vt 0.367093 0.969143
vt 0.332796 0.968813
vt 0.355847 0.950957
vt 0.948930 0.271015
vt 0.908328 0.647599
vt 0.944768 0.700532
vt 0.541892 0.951258
vt 0.518946 0.261400
vt 0.611070 0.953828
vt 0.616758 0.924355
vt 0.689550 0.918554
vt 0.681553 0.948249
vt 0.742984 0.916560
vt 0.733872 0.946691
vt 0.972668 0.754636
vt 0.610001 0.875690
vt 0.613593 0.825500
vt 0.517509 0.812646
vt 0.822886 0.404174
vt 0.255961 0.747274
vt 0.046486 0.269230
vt 0.015832 0.269132
vt 0.013089 0.162249
vt 0.049764 0.161866
vt 0.451992 0.737584
vt 0.387007 0.852340
vt 0.358567 0.736146
vt 0.286487 0.967993
vt 0.334916 0.942599
vt 0.396171 0.826986
vt 0.471696 0.799975
vt 0.074670 0.963783
vt 0.081948 0.907722
vt 0.040687 0.962581
vt 0.045670 0.892817
vt 0.019668 0.023268
vt 0.018196 0.058897
vt 0.073924 0.066567
vt 0.098961 0.027813
vt 0.734031 0.706370
vt 0.731620 0.636901
vt 0.735610 0.705401
vt 0.732902 0.638401
vt 0.838385 0.673255
vt 0.736489 0.708901
vt 0.734412 0.636493
vt 0.700740 0.707597
vt 0.699701 0.636759
vt 0.702337 0.706544
vt 0.701131 0.637054
vt 0.744907 0.655955
vt 0.512931 0.859133
vt 0.045482 0.702241
vt 0.763134 0.230113
vt 0.169202 0.860029
vt 0.259793 0.844646
vt 0.172388 0.838326
vt 0.173792 0.813504
vt 0.260929 0.822150
vt 0.454423 0.869474
vt 0.517494 0.879852
vt 0.516009 0.871454
vt 0.502559 0.868222
vt 0.548422 0.868330
vt 0.542712 0.841928
vt 0.532509 0.864032
vt 0.153173 0.790782
vt 0.174258 0.794409
vt 0.175326 0.773036
vt 0.149599 0.772243
vt 0.136479 0.781884
vt 0.536421 0.772544
vt 0.571275 0.814923
vt 0.616697 0.778824
vt 0.366423 0.763709
vt 0.258589 0.765795
vt 0.260215 0.793678
vt 0.370774 0.792559
vt 0.470930 0.775715
vt 0.144327 0.843614
vt 0.127889 0.833890
vt 0.124150 0.818828
vt 0.145518 0.813791
vt 0.490341 0.858554
vt 0.502497 0.838533
vt 0.734592 0.128965
vt 0.863891 0.143204
vt 0.859276 0.089279
vt 0.827626 0.501675
vt 0.886587 0.491509
vt 0.892466 0.545091
vt 0.833384 0.560489
vt 0.450985 0.539918
vt 0.383893 0.523146
vt 0.387299 0.482948
vt 0.459178 0.490962
vt 0.778414 0.379470
vt 0.780351 0.398660
vt 0.762660 0.382469
vt 0.761366 0.435454
vt 0.612257 0.143465
vt 0.151619 0.466595
vt 0.146163 0.398046
vt 0.209908 0.435740
vt 0.174575 0.331660
vt 0.067229 0.367491
vt 0.087387 0.444691
vt 0.228267 0.373635
vt 0.173163 0.123816
vt 0.176550 0.180222
vt 0.158617 0.177262
vt 0.160490 0.126295
vt 0.275233 0.110815
vt 0.285349 0.159200
vt 0.170638 0.076888
vt 0.152794 0.086140
vt 0.203686 0.056886
vt 0.365202 0.101689
vt 0.371614 0.139328
vt 0.272556 0.051240
vt 0.474907 0.094339
vt 0.472291 0.114941
vt 0.490717 0.106164
vt 0.359790 0.059703
vt 0.473857 0.075173
vt 0.498449 0.089349
vt 0.184003 0.304426
vt 0.159408 0.265228
vt 0.183945 0.256071
vt 0.206906 0.295889
vt 0.294180 0.228825
vt 0.248714 0.303910
vt 0.317972 0.283881
vt 0.400107 0.233775
vt 0.385896 0.191366
vt 0.497434 0.135350
vt 0.502109 0.158135
vt 0.518870 0.129866
vt 0.143352 0.065861
vt 0.162281 0.058853
vt 0.197693 0.040611
vt 0.283560 0.170549
vt 0.171881 0.200052
vt 0.140826 0.199389
vt 0.270828 0.035810
vt 0.373748 0.149586
vt 0.510878 0.088340
vt 0.501177 0.114323
vt 0.359682 0.045994
vt 0.480435 0.068059
vt 0.871477 0.375891
vt 0.817853 0.367485
vt 0.827221 0.290933
vt 0.328074 0.381141
vt 0.314217 0.453237
vt 0.267942 0.445777
vt 0.266742 0.382660
vt 0.938175 0.068200
vt 0.947020 0.145770
vt 0.825061 0.433192
vt 0.477711 0.121225
vt 0.381677 0.418790
vt 0.383281 0.398625
vt 0.887622 0.301099
vt 0.761760 0.282924
vt 0.686302 0.288508
vt 0.605084 0.295796
vt 0.308587 0.498203
vt 0.534908 0.390925
vt 0.611088 0.386826
vt 0.611095 0.437602
vt 0.535414 0.438494
vt 0.524946 0.553447
vt 0.532238 0.498592
vt 0.705844 0.813988
vt 0.693916 0.768331
vt 0.652383 0.762309
vt 0.666981 0.810025
vt 0.402536 0.404181
vt 0.442279 0.402551
vt 0.459440 0.416460
vt 0.453543 0.354962
vt 0.526204 0.302228
vt 0.394678 0.353541
vt 0.760725 0.506350
vt 0.687147 0.508231
vt 0.689492 0.436248
vt 0.608950 0.503428
vt 0.386878 0.454095
vt 0.459195 0.447794
vt 0.259756 0.943702
vt 0.144727 0.926589
vt 0.473386 0.821326
vt 0.877354 0.392994
vt 0.881856 0.426972
vt 0.938367 0.485930
vt 0.942175 0.534712
vt 0.920806 0.952969
vt 0.847764 0.929726
vt 0.954536 0.887170
vt 0.857974 0.880228
vt 0.751295 0.875700
vt 0.864974 0.812490
vt 0.749746 0.818174
vt 0.689183 0.382169
vt 0.604050 0.564999
vt 0.545922 0.930943
vt 0.744930 0.768245
vt 0.859506 0.742895
vt 0.701320 0.875186
vt 0.644073 0.875440
vt 0.938512 0.313763
vt 0.934474 0.363386
vt 0.968243 0.806520
vt 0.937933 0.414398
vt 0.264262 0.483305
vt 0.947250 0.193891
vt 0.442580 0.401576
vt 0.045093 0.371404
vt 0.049860 0.352304
vt 0.033172 0.383450
vt 0.086594 0.671295
vt 0.090159 0.621667
vt 0.049422 0.620328
vt 0.048548 0.674371
vt 0.061153 0.711937
vt 0.080270 0.725984
vt 0.158445 0.671899
vt 0.159960 0.623808
vt 0.266159 0.631466
vt 0.263444 0.667769
vt 0.317838 0.659173
vt 0.320739 0.636796
vt 0.345255 0.641726
vt 0.261659 0.705768
vt 0.322530 0.679778
vt 0.353818 0.657804
vt 0.047498 0.566483
vt 0.088814 0.569799
vt 0.066409 0.535513
vt 0.048579 0.538089
vt 0.085876 0.518818
vt 0.116655 0.517884
vt 0.271206 0.559059
vt 0.273619 0.592764
vt 0.332038 0.615243
vt 0.333174 0.592746
vt 0.362599 0.620423
vt 0.091073 0.610994
vt 0.051347 0.607370
vt 0.161257 0.614285
vt 0.363873 0.658092
vt 0.351596 0.631943
vt 0.329086 0.686830
vt 0.166447 0.723383
vt 0.268188 0.622841
vt 0.163268 0.572657
vt 0.111017 0.728622
vt 0.173253 0.530055
vt 0.324816 0.630324
vt 0.403197 0.393411
vt 0.469373 0.611056
vt 0.467064 0.681508
vt 0.575723 0.668234
vt 0.582173 0.633219
vt 0.836479 0.670638
vt 0.783916 0.656049
vt 0.784994 0.687635
vt 0.836859 0.670857
vt 0.784997 0.656350
vt 0.786062 0.688288
vt 0.734069 0.637507
vt 0.736425 0.703232
vt 0.786977 0.689216
vt 0.786112 0.654337
vt 0.837493 0.668917
vt 0.785329 0.658609
vt 0.787185 0.687039
vt 0.845325 0.669504
vt 0.743836 0.636914
vt 0.743868 0.704829
vt 0.743521 0.710323
vt 0.850438 0.673884
vt 0.747845 0.636389
vt 0.845243 0.669812
vt 0.742417 0.638241
vt 0.743918 0.704184
vt 0.843124 0.672530
vt 0.738558 0.634582
vt 0.738759 0.706799
vt 0.737149 0.707520
vt 0.839948 0.673561
vt 0.735732 0.638405
vt 0.802700 0.671990
vt 0.699421 0.637937
vt 0.700170 0.706480
vt 0.802305 0.669482
vt 0.699085 0.637017
vt 0.700053 0.703905
vt 0.802611 0.669919
vt 0.699551 0.637415
vt 0.700264 0.704482
vt 0.800679 0.667127
vt 0.697577 0.637955
vt 0.699397 0.701277
vt 0.796063 0.667136
vt 0.693375 0.638720
vt 0.694341 0.701703
vt 0.798299 0.670430
vt 0.694117 0.637074
vt 0.696385 0.704102
vt 0.804559 0.670693
vt 0.751569 0.651958
vt 0.753241 0.687761
vt 0.803586 0.672100
vt 0.751319 0.652146
vt 0.753155 0.688240
vt 0.826264 0.684819
vt 0.745368 0.717869
vt 0.738956 0.679570
vt 0.784075 0.662745
vt 0.845225 0.673879
vt 0.741561 0.636634
vt 0.739901 0.709067
vt 0.800186 0.667746
vt 0.696935 0.637070
vt 0.698861 0.701824
vt 0.738846 0.708281
vt 0.842425 0.674259
vt 0.737885 0.636778
vt 0.687251 0.572869
vt 0.764953 0.570538
vt 0.369010 0.962631
vt 0.355847 0.950957
vt 0.944768 0.700532
vt 0.689550 0.918554
vt 0.616758 0.924355
vt 0.742984 0.916560
vt 0.972668 0.754636
vt 0.610001 0.875690
vt 0.613593 0.825500
vt 0.517509 0.812646
vt 0.822886 0.404174
vt 0.046486 0.269230
vt 0.049764 0.161866
vt 0.387007 0.852340
vt 0.334916 0.942599
vt 0.396171 0.826986
vt 0.471696 0.799975
vt 0.081948 0.907722
vt 0.045670 0.892817
vt 0.098961 0.027813
vt 0.073924 0.066567
vt 0.734031 0.706370
vt 0.731620 0.636901
vt 0.735610 0.705401
vt 0.732902 0.638401
vt 0.838385 0.673255
vt 0.736489 0.708901
vt 0.734412 0.636493
vt 0.700740 0.707597
vt 0.699701 0.636759
vt 0.702337 0.706544
vt 0.701131 0.637054
vt 0.744907 0.655955
vt 0.512931 0.859133
vt 0.045482 0.702241
vn 0.00000 0.99871 0.05079
vn -0.00000 0.98764 -0.15672
vn 0.53582 0.83343 -0.13523
vn 0.81543 0.57884 0.00316
vn 0.89934 0.42136 -0.11679
vn 0.92011 -0.39002 -0.03580
vn 0.46087 -0.88685 -0.03304
vn 0.86081 0.41978 -0.28772
vn 0.96475 -0.19006 -0.18200
vn 0.83881 -0.46163 -0.28861
vn 0.87716 0.07204 -0.47476
vn 0.87404 0.35789 -0.32859
vn 0.72460 -0.23973 -0.64613
vn 0.86009 0.35324 -0.36807
vn 0.83353 0.29430 -0.46756
vn 0.49459 -0.66641 -0.55792
vn 0.65204 -0.74309 -0.15057
vn 0.97680 0.20146 -0.07262
vn 0.34602 0.38408 -0.85601
vn 0.63305 -0.77322 -0.03712
vn 0.69076 -0.70818 0.14604
vn 0.98493 -0.17104 -0.02573
vn 0.59446 -0.79988 -0.08256
vn 0.71440 0.64981 -0.25959
vn 0.40596 0.91309 -0.03821
vn 0.69571 -0.71800 -0.02138
vn 0.00000 -0.61301 -0.79007
vn -0.00000 -0.97352 -0.22859
vn 0.71863 -0.65943 -0.22074
vn -0.00000 -0.99448 -0.10494
vn 0.00000 -0.99528 -0.09705
vn 0.62944 0.54463 -0.55424
vn 0.00000 0.83546 -0.54954
vn 0.00000 0.36827 -0.92972
vn 0.48532 0.18459 -0.85463
vn 0.00000 -0.47694 -0.87894
vn 0.27326 -0.71946 -0.63852
vn 0.82685 -0.27873 -0.48849
vn 0.95169 0.26486 -0.15538
vn 0.80776 0.51162 -0.29286
vn -0.00000 0.97380 0.22740
vn 0.00000 0.96773 0.25198
vn 0.92768 0.32774 0.17889
vn 0.99283 -0.05453 0.10638
vn 0.90442 -0.39066 0.17151
vn 0.57796 0.79336 -0.19115
vn 0.51485 0.83539 -0.19252
vn 0.47636 0.85770 -0.19345
vn 0.59706 0.74456 -0.29856
vn 0.00000 0.96853 -0.24891
vn 0.00000 0.96770 -0.25209
vn 0.60486 0.78325 0.14375
vn 0.70527 0.68412 0.18592
vn 0.71750 0.67437 0.17440
vn 0.64144 0.75085 0.15744
vn 0.00000 0.98503 0.17241
vn 0.00000 0.98670 0.16254
vn 0.53312 -0.60029 0.59619
vn 0.89628 -0.26054 0.35888
vn 0.81184 0.35719 0.46188
vn 0.95216 0.28297 0.11543
vn 0.00000 0.97910 0.20338
vn 0.99128 -0.06174 0.11644
vn 0.80817 0.46398 -0.36275
vn 0.78186 0.40775 -0.47162
vn 0.86321 0.30999 -0.39847
vn 0.89485 0.09336 -0.43650
vn 0.92165 0.22186 -0.31835
vn 0.87020 0.41373 -0.26754
vn 0.83314 0.23304 -0.50157
vn 0.29993 0.94938 -0.09336
vn 0.68522 0.72831 0.00684
vn 0.67517 0.45926 -0.57725
vn 0.20212 0.76517 -0.61128
vn 0.08707 0.89204 -0.44350
vn 0.02275 0.99523 0.09485
vn 0.17592 0.83731 0.51765
vn 0.81184 0.35719 0.46188
vn -0.12253 0.90596 0.40524
vn 0.05010 0.99818 0.03369
vn 0.11813 0.91556 -0.38443
vn 0.02838 0.90920 0.41539
vn 0.18494 0.87614 -0.44516
vn 0.08530 0.99560 -0.03879
vn 0.32215 0.90014 -0.29321
vn 0.07812 0.90041 0.42798
vn 0.04656 0.91174 0.40813
vn 0.26196 0.93112 0.25376
vn 0.53312 -0.60029 0.59619
vn -0.31116 -0.23776 0.92014
vn 0.05749 -0.99817 -0.01888
vn 0.36152 -0.93231 -0.00975
vn -0.18836 0.28602 0.93953
vn 0.00159 -0.99841 0.05635
vn 0.05572 -0.21018 0.97607
vn 0.11183 -0.24854 0.96214
vn 0.27421 0.09868 0.95659
vn 0.07747 -0.99696 -0.00798
vn 0.02244 -0.99935 -0.02820
vn 0.93231 0.28613 0.22120
vn 0.53312 -0.60029 0.59619
vn -0.31116 -0.23776 0.92014
vn -0.18836 0.28602 0.93953
vn 0.07393 -0.57419 -0.81538
vn 0.17978 -0.28482 -0.94157
vn 0.46626 -0.66543 -0.58292
vn 0.05572 -0.21018 0.97607
vn 0.26128 -0.02158 -0.96502
vn 0.73349 -0.19488 -0.65116
vn 0.93231 0.28613 0.22120
vn 0.11183 -0.24854 0.96214
vn 0.27421 0.09868 0.95659
vn 0.46626 -0.66543 -0.58292
vn 0.39912 -0.90495 -0.14753
vn 0.36152 -0.93231 -0.00975
vn 0.78692 -0.51174 0.34480
vn 0.86854 -0.41726 0.26746
vn 0.89445 0.36520 0.25804
vn 0.85191 0.46674 0.23747
vn 0.86854 -0.41726 0.26746
vn 0.89445 0.36520 0.25804
vn 0.84012 0.53368 -0.09687
vn 0.44545 0.15327 -0.88209
vn 0.82224 0.50541 0.26170
vn 0.64537 0.09265 0.75823
vn 0.31342 -0.88710 -0.33887
vn 0.00000 -0.93082 -0.36547
vn 0.00000 -0.97393 -0.22687
vn 0.48756 -0.87308 0.00419
vn 0.54380 -0.83630 0.06988
vn 0.00000 -0.99981 0.01973
vn -0.00000 -0.98994 0.14148
vn 0.49223 -0.85746 0.14990
vn 0.68437 0.70329 0.19243
vn -0.00000 0.97065 0.24050
vn 0.93976 -0.29861 0.16640
vn 0.91593 0.36863 0.15870
vn 0.94747 0.29635 0.12031
vn 0.89562 -0.42299 0.13761
vn 0.55866 0.81987 0.12534
vn 0.68605 0.71479 0.13571
vn 0.00000 0.99278 0.11997
vn 0.95143 -0.28217 0.12311
vn 0.91156 -0.23217 0.33935
vn 0.59127 -0.77855 0.21038
vn 0.57321 -0.78924 0.22030
vn 0.98392 0.17135 0.05049
vn 0.50097 0.52573 -0.68749
vn 0.32852 0.90956 0.25449
vn 0.64365 -0.75582 -0.12023
vn 0.53782 -0.82496 0.17377
vn 0.00000 -0.97418 0.22578
vn 0.41061 -0.89919 0.15121
vn 0.00000 -0.98428 0.17664
vn -0.00000 -0.98434 0.17628
vn 0.67749 0.73403 -0.04702
vn 0.95255 0.30047 0.04872
vn 0.69801 0.71598 0.01245
vn 0.70746 0.70125 0.08800
vn 0.85456 0.48607 0.18293
vn 0.85446 0.48399 0.18883
vn 0.00000 0.93183 -0.36290
vn 0.00000 0.97888 -0.20443
vn 0.00000 0.92525 -0.37936
vn 0.00000 -0.99885 -0.04800
vn 0.81300 -0.54970 -0.19199
vn 0.46087 -0.88685 -0.03304
vn -0.00000 -0.99999 -0.00339
vn 0.00000 -0.99844 0.05588
vn 0.86464 -0.34334 -0.36678
vn 0.79405 0.49875 -0.34747
vn 0.67517 0.45926 -0.57725
vn 0.52888 0.83389 -0.15785
vn 0.72616 0.62385 -0.28897
vn 0.00000 0.98823 -0.15301
vn 0.00000 0.99324 -0.11612
vn 0.59856 0.79425 -0.10436
vn 0.52888 0.83389 -0.15785
vn 0.00000 0.98823 -0.15301
vn 0.81033 0.56931 -0.13873
vn 0.72616 0.62385 -0.28897
vn 0.88322 0.46790 -0.03140
vn 0.97650 -0.21550 -0.00360
vn 0.95372 -0.04237 -0.29770
vn 0.92762 -0.36820 0.06278
vn 0.54436 0.83514 0.07885
vn 0.00000 0.99678 0.08018
vn 0.48028 0.87252 -0.08961
vn 0.59572 -0.80278 0.02561
vn 0.52816 -0.76906 -0.36000
vn -0.00000 -0.96765 0.25231
vn 0.00000 -0.97008 0.24277
vn -0.00000 -0.99767 -0.06829
vn 0.94369 0.31697 0.09470
vn 0.82405 0.48267 0.29659
vn 0.68714 -0.42777 -0.58724
vn 0.39662 -0.79626 -0.45679
vn 0.81209 0.25339 -0.52564
vn 0.81209 0.25339 -0.52564
vn 0.00000 -0.93864 -0.34490
vn 0.70245 0.68345 0.19864
vn 0.00000 0.96985 0.24371
vn 0.70245 0.68345 0.19864
vn 0.00000 0.96985 0.24371
vn 0.27907 -0.86039 -0.42645
vn 0.83353 0.29430 -0.46756
vn 0.97680 0.20146 -0.07262
vn -0.00000 0.98825 0.15285
vn 0.34602 0.38408 -0.85601
vn 0.08846 0.99262 0.08299
vn 0.32852 0.90956 0.25449
vn 0.50097 0.52573 -0.68749
vn 0.23463 0.65446 -0.71877
vn -0.40830 -0.02274 0.91257
vn -0.61356 0.04681 0.78826
vn 0.04925 0.99545 0.08155
vn 0.24023 0.73759 -0.63108
vn 0.28719 0.68231 -0.67229
vn 0.35106 0.67580 -0.64812
vn 0.12392 0.99219 -0.01436
vn 0.04306 0.99688 0.06609
vn 0.58296 0.75285 -0.30558
vn 0.03022 0.76761 0.64021
vn -0.11197 0.07842 0.99061
vn 0.34059 0.76947 0.54030
vn 0.18239 -0.96021 0.21149
vn 0.64537 0.09265 0.75823
vn -0.40830 -0.02274 0.91257
vn -0.16157 -0.98392 0.07609
vn -0.61356 0.04681 0.78826
vn -0.13930 0.64230 0.75369
vn -0.11197 0.07842 0.99061
vn 0.09432 -0.27713 0.95619
vn 0.05317 -0.99826 0.02553
vn -0.01985 -0.99328 0.11399
vn 0.83153 -0.20907 0.51463
vn 0.27907 -0.86039 -0.42645
vn 0.07587 -0.64938 -0.75667
vn 0.27005 -0.30752 -0.91242
vn 0.77405 -0.48546 -0.40641
vn 0.83153 -0.20907 0.51463
vn 0.09432 -0.27713 0.95619
vn -0.15530 -0.76513 0.62487
vn 0.29269 -0.64831 -0.70288
vn -0.05839 -0.99827 -0.00637
vn -0.13930 0.64230 0.75369
vn -0.15530 -0.76513 0.62487
vn 0.51103 -0.21878 -0.83126
vn 0.18239 -0.96021 0.21149
vn -0.00000 -0.98014 0.19828
vn -0.00000 -0.98339 0.18152
vn 0.93873 -0.16781 -0.30103
vn 0.93423 -0.28919 -0.20879
vn 0.93873 -0.16781 -0.30103
vn 0.92140 -0.04254 -0.38628
vn 0.95520 -0.28118 -0.09238
vn 0.99525 -0.03144 -0.09215
vn 0.98229 0.10887 -0.15248
vn 0.94333 -0.30698 -0.12609
vn 0.99096 -0.06810 -0.11561
vn 0.98520 0.06190 -0.15984
vn 0.74235 0.31151 -0.59319
vn 0.83601 0.03859 -0.54736
vn 0.79244 0.10570 -0.60072
vn 0.69116 0.22861 -0.68559
vn 0.94150 -0.32712 0.08104
vn 0.99441 -0.05725 0.08870
vn 0.99581 0.07034 0.05846
vn 0.97159 -0.23665 -0.00309
vn 0.97159 -0.23665 -0.00309
vn 0.97159 -0.23665 -0.00309
vn 0.98847 -0.09924 -0.11435
vn 0.98847 -0.09924 -0.11435
vn 0.98847 -0.09924 -0.11435
vn 0.94317 0.28021 -0.17863
vn 0.94317 0.28021 -0.17863
vn 0.94317 0.28021 -0.17863
vn 0.99017 -0.06123 -0.12578
vn 0.99017 -0.06123 -0.12578
vn 0.99017 -0.06123 -0.12578
vn 0.96280 -0.00923 -0.27004
vn 0.96280 -0.00923 -0.27004
vn 0.96280 -0.00923 -0.27004
vn 0.99996 0.00403 -0.00781
vn 0.99996 0.00403 -0.00781
vn 0.99996 0.00403 -0.00781
vn 0.99998 -0.00435 0.00509
vn 0.99998 -0.00435 0.00509
vn 0.99998 -0.00435 0.00509
vn 0.99217 -0.06717 -0.10531
vn 0.99217 -0.06717 -0.10531
vn 0.99217 -0.06717 -0.10531
vn 0.98730 -0.15868 0.00736
vn 0.98730 -0.15868 0.00736
vn 0.98730 -0.15868 0.00736
vn 0.97203 -0.18606 -0.14333
vn 0.97203 -0.18606 -0.14333
vn 0.97203 -0.18606 -0.14333
vn 0.91614 0.12985 -0.37924
vn 0.91614 0.12985 -0.37924
vn 0.91614 0.12985 -0.37924
vn 0.93918 0.34314 -0.01421
vn 0.99959 -0.02419 -0.01517
vn 0.99177 -0.11050 -0.06465
vn 0.93933 0.31912 -0.12580
vn 0.98987 -0.05633 -0.13030
vn 0.97226 -0.13478 -0.19116
vn 0.83094 -0.30902 -0.46266
vn 0.90990 0.14156 -0.38992
vn 0.88822 -0.04087 -0.45759
vn 0.75633 -0.37516 -0.53593
vn 0.97416 -0.01412 -0.22543
vn 0.97416 -0.01412 -0.22543
vn 0.97416 -0.01412 -0.22543
vn 0.98797 -0.01263 -0.15415
vn 0.98797 -0.01263 -0.15415
vn 0.98797 -0.01263 -0.15415
vn 0.98654 -0.01046 -0.16317
vn 0.98654 -0.01046 -0.16317
vn 0.98654 -0.01046 -0.16317
vn -0.00000 -0.97567 0.21925
vn 0.00000 -0.35735 0.93397
vn 0.00000 -0.97369 0.22787
vn 0.00000 -0.97369 0.22787
vn 0.00000 0.99985 -0.01754
vn 0.00000 0.98755 -0.15729
vn 0.54073 0.83629 -0.09073
vn 0.54529 0.83802 0.01947
vn 0.00000 0.71455 -0.69959
vn 0.00000 0.71455 -0.69959
vn 0.27326 -0.71946 -0.63852
vn 0.00000 -0.47694 -0.87894
vn -0.00000 -0.99776 0.06693
vn 0.82685 -0.27873 -0.48849
vn 0.00000 -0.90276 -0.43015
vn 0.00000 -0.90276 -0.43015
vn 0.39662 -0.79626 -0.45679
vn 0.00000 0.99024 -0.13940
vn -0.00000 -0.98260 0.18572
vn 0.00000 0.99580 0.09153
vn 0.56365 0.81981 0.10105
vn 0.59579 0.79257 0.12991
vn 0.00000 0.99365 0.11247
vn 0.58573 0.81027 0.01952
vn 0.00000 0.99926 -0.03855
vn 0.68714 -0.42777 -0.58724
vn 0.83239 0.54890 0.07639
vn 0.95804 -0.03270 0.28478
vn 0.88457 -0.22624 -0.40786
vn 0.68522 0.72831 0.00684
vn -0.00000 -0.99975 -0.02218
vn 0.40596 0.91309 -0.03821
vn 0.00000 0.99987 0.01622
vn -0.00000 0.99886 -0.04782
vn 0.71440 0.64981 -0.25959
vn -0.00000 -0.99952 -0.03085
vn 0.80960 0.56181 -0.17005
vn -0.00000 -0.99963 -0.02724
vn -0.00000 -0.99992 0.01303
vn 0.92011 -0.39002 -0.03580
vn 0.81300 -0.54970 -0.19199
vn 0.49198 0.78088 -0.38494
vn 0.00000 -0.98222 -0.18772
vn 0.86464 -0.34334 -0.36678
vn 0.00000 0.76432 -0.64483
vn 0.88457 -0.22624 -0.40786
vn 0.00000 0.76432 -0.64483
vn 0.00000 0.98185 -0.18968
vn 0.49198 0.78088 -0.38494
vn 0.88457 -0.22624 -0.40786
vn 0.93830 0.29898 -0.17381
vn 0.89088 0.37316 -0.25899
vn 0.95501 0.24408 -0.16848
vn 0.92046 0.31080 -0.23696
vn 0.78398 -0.31658 -0.53399
vn 0.96318 0.26529 0.04364
vn 0.94993 0.31244 -0.00258
vn 0.94028 -0.32965 -0.08491
vn 0.95080 -0.26822 -0.15503
vn 0.91211 -0.35267 -0.20898
vn 0.91325 -0.27676 -0.29896
vn 0.79548 0.50081 -0.34118
vn 0.91000 0.17358 -0.37652
vn 0.64537 0.09265 0.75823
vn 0.00000 -0.99301 -0.11806
vn -0.53582 0.83343 -0.13523
vn -0.81543 0.57884 0.00316
vn -0.89934 0.42136 -0.11679
vn -0.92011 -0.39002 -0.03580
vn -0.46087 -0.88685 -0.03304
vn -0.86081 0.41978 -0.28772
vn -0.87716 0.07204 -0.47476
vn -0.83881 -0.46163 -0.28861
vn -0.96475 -0.19006 -0.18200
vn -0.87404 0.35789 -0.32859
vn -0.86009 0.35324 -0.36807
vn -0.72460 -0.23973 -0.64613
vn -0.83353 0.29430 -0.46756
vn -0.97680 0.20146 -0.07262
vn -0.65204 -0.74309 -0.15057
vn -0.49459 -0.66641 -0.55792
vn -0.34602 0.38408 -0.85601
vn -0.63305 -0.77322 -0.03712
vn -0.98493 -0.17104 -0.02573
vn -0.69076 -0.70818 0.14604
vn -0.59446 -0.79988 -0.08256
vn -0.69571 -0.71800 -0.02138
vn -0.40596 0.91309 -0.03821
vn -0.71440 0.64981 -0.25959
vn -0.71863 -0.65943 -0.22074
vn -0.62944 0.54463 -0.55424
vn -0.48532 0.18459 -0.85463
vn -0.27326 -0.71946 -0.63852
vn -0.82685 -0.27873 -0.48849
vn -0.95169 0.26486 -0.15538
vn -0.80776 0.51162 -0.29286
vn -0.99283 -0.05453 0.10638
vn -0.92768 0.32774 0.17889
vn -0.90442 -0.39066 0.17151
vn -0.57796 0.79336 -0.19115
vn -0.59706 0.74456 -0.29856
vn -0.47636 0.85770 -0.19345
vn -0.51485 0.83539 -0.19252
vn -0.60486 0.78325 0.14375
vn -0.64144 0.75085 0.15744
vn -0.71750 0.67437 0.17440
vn -0.70527 0.68412 0.18592
vn -0.53312 -0.60029 0.59619
vn -0.81184 0.35719 0.46188
vn -0.89628 -0.26054 0.35888
vn -0.95216 0.28297 0.11543
vn -0.99128 -0.06174 0.11644
vn -0.80817 0.46398 -0.36275
vn -0.86321 0.30999 -0.39847
vn -0.78186 0.40775 -0.47162
vn -0.89485 0.09336 -0.43650
vn -0.92165 0.22186 -0.31835
vn -0.87020 0.41373 -0.26754
vn -0.83314 0.23304 -0.50157
vn -0.29993 0.94938 -0.09336
vn -0.20212 0.76517 -0.61128
vn -0.67517 0.45926 -0.57725
vn -0.68522 0.72831 0.00684
vn -0.02275 0.99523 0.09485
vn -0.08707 0.89204 -0.44350
vn -0.17592 0.83731 0.51765
vn -0.81184 0.35719 0.46188
vn 0.12253 0.90596 0.40524
vn -0.05010 0.99818 0.03369
vn -0.11813 0.91556 -0.38443
vn -0.02838 0.90920 0.41539
vn -0.08530 0.99560 -0.03879
vn -0.18494 0.87614 -0.44516
vn -0.32215 0.90014 -0.29321
vn -0.04656 0.91174 0.40813
vn -0.07812 0.90041 0.42798
vn -0.26196 0.93112 0.25376
vn -0.53312 -0.60029 0.59619
vn -0.36152 -0.93231 -0.00975
vn -0.05749 -0.99817 -0.01888
vn 0.31116 -0.23776 0.92014
vn -0.00159 -0.99841 0.05635
vn 0.18836 0.28602 0.93953
vn -0.05572 -0.21017 0.97607
vn -0.11183 -0.24854 0.96214
vn -0.02244 -0.99935 -0.02820
vn -0.07747 -0.99696 -0.00798
vn -0.27421 0.09868 0.95659
vn -0.93231 0.28613 0.22120
vn -0.53312 -0.60029 0.59619
vn 0.31116 -0.23776 0.92014
vn 0.18836 0.28602 0.93953
vn -0.07393 -0.57419 -0.81538
vn -0.17978 -0.28482 -0.94157
vn -0.46626 -0.66543 -0.58292
vn -0.05572 -0.21017 0.97607
vn -0.26128 -0.02158 -0.96502
vn -0.93231 0.28613 0.22120
vn -0.73349 -0.19488 -0.65116
vn -0.11183 -0.24854 0.96214
vn -0.27421 0.09868 0.95659
vn -0.46626 -0.66543 -0.58292
vn -0.36152 -0.93231 -0.00975
vn -0.39912 -0.90495 -0.14753
vn -0.78692 -0.51174 0.34480
vn -0.85191 0.46674 0.23747
vn -0.89445 0.36520 0.25804
vn -0.86854 -0.41726 0.26746
vn -0.86854 -0.41726 0.26746
vn -0.89445 0.36520 0.25804
vn -0.84012 0.53368 -0.09687
vn -0.44545 0.15327 -0.88209
vn -0.82224 0.50541 0.26170
vn -0.64537 0.09265 0.75823
vn -0.31342 -0.88710 -0.33887
vn -0.48756 -0.87308 0.00419
vn -0.54380 -0.83630 0.06988
vn -0.49223 -0.85746 0.14990
vn -0.68437 0.70329 0.19243
vn -0.93976 -0.29861 0.16640
vn -0.89562 -0.42299 0.13761
vn -0.94747 0.29635 0.12031
vn -0.91593 0.36863 0.15870
vn -0.55866 0.81987 0.12534
vn -0.68605 0.71479 0.13571
vn -0.95143 -0.28217 0.12311
vn -0.57321 -0.78924 0.22030
vn -0.59127 -0.77855 0.21038
vn -0.91156 -0.23217 0.33935
vn -0.32852 0.90956 0.25449
vn -0.50097 0.52573 -0.68749
vn -0.98392 0.17135 0.05049
vn -0.64365 -0.75582 -0.12023
vn -0.53782 -0.82496 0.17377
vn -0.41061 -0.89919 0.15121
vn -0.67749 0.73403 -0.04702
vn -0.69801 0.71598 0.01245
vn -0.95255 0.30047 0.04872
vn -0.70746 0.70125 0.08800
vn -0.85456 0.48607 0.18293
vn -0.85446 0.48399 0.18883
vn -0.46087 -0.88685 -0.03304
vn -0.81300 -0.54970 -0.19199
vn -0.86464 -0.34334 -0.36678
vn -0.67517 0.45926 -0.57725
vn -0.79405 0.49875 -0.34747
vn -0.72616 0.62385 -0.28897
vn -0.52888 0.83389 -0.15785
vn -0.52888 0.83389 -0.15785
vn -0.59856 0.79425 -0.10436
vn -0.72616 0.62385 -0.28897
vn -0.81033 0.56931 -0.13873
vn -0.88322 0.46790 -0.03140
vn -0.95372 -0.04237 -0.29770
vn -0.97650 -0.21550 -0.00360
vn -0.92762 -0.36820 0.06278
vn -0.54436 0.83514 0.07885
vn -0.48028 0.87252 -0.08961
vn -0.59572 -0.80278 0.02561
vn -0.52816 -0.76906 -0.36000
vn -0.94369 0.31697 0.09470
vn -0.82405 0.48267 0.29659
vn -0.39662 -0.79626 -0.45679
vn -0.68714 -0.42777 -0.58724
vn -0.81209 0.25339 -0.52564
vn -0.81209 0.25339 -0.52564
vn -0.70245 0.68345 0.19864
vn -0.70245 0.68345 0.19864
vn -0.27907 -0.86039 -0.42645
vn -0.83353 0.29430 -0.46756
vn -0.97680 0.20146 -0.07262
vn -0.34602 0.38408 -0.85601
vn -0.08846 0.99262 0.08299
vn -0.23463 0.65446 -0.71877
vn -0.50097 0.52573 -0.68749
vn -0.32852 0.90956 0.25449
vn 0.40830 -0.02274 0.91257
vn 0.61356 0.04681 0.78826
vn -0.04925 0.99545 0.08155
vn -0.24023 0.73759 -0.63108
vn -0.28719 0.68231 -0.67229
vn -0.04306 0.99688 0.06609
vn -0.12392 0.99219 -0.01436
vn -0.35106 0.67580 -0.64812
vn -0.58296 0.75285 -0.30558
vn 0.11197 0.07842 0.99061
vn -0.03022 0.76761 0.64021
vn -0.34059 0.76947 0.54030
vn -0.18239 -0.96021 0.21149
vn 0.16157 -0.98392 0.07609
vn 0.40830 -0.02274 0.91257
vn -0.64537 0.09265 0.75823
vn 0.61356 0.04681 0.78826
vn 0.13930 0.64230 0.75369
vn 0.11197 0.07842 0.99061
vn 0.01985 -0.99328 0.11399
vn -0.05317 -0.99826 0.02553
vn -0.09432 -0.27713 0.95619
vn -0.83153 -0.20907 0.51463
vn -0.07587 -0.64938 -0.75667
vn -0.27907 -0.86039 -0.42645
vn -0.27005 -0.30752 -0.91242
vn -0.83153 -0.20907 0.51463
vn -0.77405 -0.48546 -0.40641
vn -0.09432 -0.27713 0.95619
vn 0.15530 -0.76513 0.62487
vn -0.29269 -0.64831 -0.70288
vn 0.05839 -0.99827 -0.00637
vn 0.13930 0.64230 0.75369
vn 0.15530 -0.76513 0.62487
vn -0.51103 -0.21878 -0.83126
vn -0.18239 -0.96021 0.21149
vn -0.93873 -0.16781 -0.30103
vn -0.92140 -0.04254 -0.38628
vn -0.93873 -0.16781 -0.30103
vn -0.93423 -0.28919 -0.20879
vn -0.95520 -0.28118 -0.09238
vn -0.98229 0.10887 -0.15248
vn -0.99525 -0.03144 -0.09215
vn -0.94333 -0.30698 -0.12609
vn -0.98520 0.06190 -0.15984
vn -0.99096 -0.06810 -0.11561
vn -0.74235 0.31151 -0.59319
vn -0.69116 0.22861 -0.68559
vn -0.79244 0.10570 -0.60072
vn -0.83601 0.03859 -0.54736
vn -0.94150 -0.32712 0.08104
vn -0.99581 0.07034 0.05846
vn -0.99441 -0.05725 0.08870
vn -0.97159 -0.23665 -0.00309
vn -0.97159 -0.23665 -0.00309
vn -0.97159 -0.23665 -0.00309
vn -0.98847 -0.09924 -0.11435
vn -0.98847 -0.09924 -0.11435
vn -0.98847 -0.09924 -0.11435
vn -0.94317 0.28021 -0.17863
vn -0.94317 0.28021 -0.17863
vn -0.94317 0.28021 -0.17863
vn -0.99017 -0.06123 -0.12578
vn -0.99017 -0.06123 -0.12578
vn -0.99017 -0.06123 -0.12578
vn -0.96280 -0.00923 -0.27004
vn -0.96280 -0.00923 -0.27004
vn -0.96280 -0.00923 -0.27004
vn -0.99996 0.00403 -0.00781
vn -0.99996 0.00403 -0.00781
vn -0.99996 0.00403 -0.00781
vn -0.99998 -0.00435 0.00509
vn -0.99998 -0.00435 0.00509
vn -0.99998 -0.00435 0.00509
vn -0.99217 -0.06717 -0.10531
vn -0.99217 -0.06717 -0.10531
vn -0.99217 -0.06717 -0.10531
vn -0.98730 -0.15868 0.00736
vn -0.98730 -0.15868 0.00736
vn -0.98730 -0.15868 0.00736
vn -0.97203 -0.18606 -0.14333
vn -0.97203 -0.18606 -0.14333
vn -0.97203 -0.18606 -0.14333
vn -0.91614 0.12985 -0.37924
vn -0.91614 0.12985 -0.37924
vn -0.91614 0.12985 -0.37924
vn -0.93918 0.34314 -0.01421
vn -0.99177 -0.11050 -0.06465
vn -0.99959 -0.02419 -0.01517
vn -0.93933 0.31912 -0.12580
vn -0.97226 -0.13478 -0.19116
vn -0.98987 -0.05633 -0.13030
vn -0.83094 -0.30902 -0.46266
vn -0.75633 -0.37516 -0.53593
vn -0.88822 -0.04087 -0.45759
vn -0.90990 0.14156 -0.38992
vn -0.97416 -0.01412 -0.22543
vn -0.97416 -0.01412 -0.22543
vn -0.97416 -0.01412 -0.22543
vn -0.98797 -0.01263 -0.15415
vn -0.98797 -0.01263 -0.15415
vn -0.98797 -0.01263 -0.15415
vn -0.98654 -0.01046 -0.16317
vn -0.98654 -0.01046 -0.16317
vn -0.98654 -0.01046 -0.16317
vn -0.54529 0.83802 0.01947
vn -0.54073 0.83629 -0.09073
vn -0.27326 -0.71946 -0.63852
vn -0.82685 -0.27873 -0.48849
vn -0.39662 -0.79626 -0.45679
vn -0.59579 0.79257 0.12991
vn -0.56365 0.81981 0.10105
vn -0.58573 0.81027 0.01952
vn -0.68714 -0.42777 -0.58724
vn -0.83239 0.54890 0.07638
vn -0.95804 -0.03270 0.28478
vn -0.88457 -0.22624 -0.40786
vn -0.68522 0.72831 0.00684
vn -0.40596 0.91309 -0.03821
vn -0.71440 0.64981 -0.25959
vn -0.80960 0.56181 -0.17005
vn -0.92011 -0.39002 -0.03580
vn -0.81300 -0.54970 -0.19199
vn -0.49198 0.78088 -0.38494
vn -0.86464 -0.34334 -0.36678
vn -0.88457 -0.22624 -0.40786
vn -0.88457 -0.22624 -0.40786
vn -0.49198 0.78088 -0.38494
vn -0.93830 0.29898 -0.17381
vn -0.89088 0.37316 -0.25899
vn -0.95501 0.24408 -0.16848
vn -0.92046 0.31080 -0.23696
vn -0.78398 -0.31658 -0.53399
vn -0.96318 0.26530 0.04364
vn -0.94993 0.31244 -0.00258
vn -0.94028 -0.32965 -0.08491
vn -0.95080 -0.26823 -0.15504
vn -0.91211 -0.35267 -0.20898
vn -0.91325 -0.27676 -0.29896
vn -0.79548 0.50081 -0.34118
vn -0.91000 0.17358 -0.37652
vn -0.64537 0.09265 0.75823
f 195/195/195 348/348/348 144/144/144
f 348/348/348 195/195/195 347/347/347
f 22/22/22 21/21/21 348/348/348
f 347/347/347 22/22/22 348/348/348
f 21/21/21 169/169/169 145/145/145
f 169/169/169 21/21/21 20/20/20
f 20/20/20 21/21/21 22/22/22
f 169/169/169 191/191/191 145/145/145
f 146/146/146 145/145/145 191/191/191
f 169/169/169 508/508/508 191/191/191
f 405/405/405 508/508/508 169/169/169
f 507/507/507 192/192/192 191/191/191
f 191/191/191 508/508/508 507/507/507
f 191/191/191 192/192/192 146/146/146
f 405/405/405 509/509/509 508/508/508
f 508/508/508 509/509/509 506/506/506
f 506/506/506 507/507/507 508/508/508
f 672/672/672 509/509/509 405/405/405
f 542/542/542 509/509/509 672/672/672
f 509/509/509 542/542/542 541/541/541
f 209/209/209 206/206/206 208/208/208
f 206/206/206 207/207/207 208/208/208
f 330/330/330 209/209/209 208/208/208
f 330/330/330 208/208/208 552/552/552
f 208/208/208 353/353/353 675/675/675
f 675/675/675 551/551/551 208/208/208
f 552/552/552 208/208/208 550/550/550
f 550/550/550 208/208/208 551/551/551
f 208/208/208 207/207/207 352/352/352
f 352/352/352 353/353/353 208/208/208
f 451/451/451 476/476/476 480/480/480
f 451/451/451 448/448/448 472/472/472
f 472/472/472 476/476/476 451/451/451
f 471/471/471 472/472/472 448/448/448
f 448/448/448 446/446/446 471/471/471
f 470/470/470 471/471/471 446/446/446
f 446/446/446 447/447/447 470/470/470
f 443/443/443 447/447/447 446/446/446
f 557/557/557 553/553/553 556/556/556
f 589/589/589 553/553/553 558/558/558
f 559/559/559 553/553/553 589/589/589
f 554/554/554 553/553/553 559/559/559
f 557/557/557 558/558/558 553/553/553
f 555/555/555 556/556/556 553/553/553
f 553/553/553 554/554/554 555/555/555
f 556/556/556 698/698/698 557/557/557
f 580/580/580 581/581/581 555/555/555
f 555/555/555 554/554/554 580/580/580
f 211/211/211 210/210/210 214/214/214
f 246/246/246 215/215/215 210/210/210
f 246/246/246 210/210/210 216/216/216
f 216/216/216 210/210/210 213/213/213
f 214/214/214 210/210/210 215/215/215
f 212/212/212 213/213/213 210/210/210
f 210/210/210 211/211/211 212/212/212
f 214/214/214 384/384/384 211/211/211
f 238/238/238 213/213/213 212/212/212
f 212/212/212 237/237/237 238/238/238
f 366/366/366 364/364/364 363/363/363
f 363/363/363 365/365/365 366/366/366
f 167/167/167 359/359/359 168/168/168
f 167/167/167 360/360/360 333/333/333
f 333/333/333 359/359/359 167/167/167
f 522/522/522 168/168/168 359/359/359
f 522/522/522 359/359/359 333/333/333
f 333/333/333 678/678/678 522/522/522
f 333/333/333 665/665/665 678/678/678
f 333/333/333 332/332/332 664/664/664
f 664/664/664 665/665/665 333/333/333
f 333/333/333 360/360/360 334/334/334
f 333/333/333 334/334/334 331/331/331
f 331/331/331 332/332/332 333/333/333
f 77/77/77 78/78/78 72/72/72
f 82/82/82 76/76/76 80/80/80
f 82/82/82 79/79/79 76/76/76
f 80/80/80 76/76/76 75/75/75
f 103/103/103 79/79/79 82/82/82
f 79/79/79 103/103/103 102/102/102
f 80/80/80 87/87/87 82/82/82
f 111/111/111 107/107/107 82/82/82
f 82/82/82 87/87/87 111/111/111
f 82/82/82 107/107/107 103/103/103
f 86/86/86 87/87/87 80/80/80
f 80/80/80 84/84/84 86/86/86
f 84/84/84 80/80/80 81/81/81
f 75/75/75 81/81/81 80/80/80
f 111/111/111 87/87/87 86/86/86
f 86/86/86 112/112/112 111/111/111
f 112/112/112 86/86/86 88/88/88
f 84/84/84 88/88/88 86/86/86
f 266/266/266 267/267/267 268/268/268
f 268/268/268 267/267/267 376/376/376
f 376/376/376 377/377/377 268/268/268
f 607/607/607 608/608/608 609/609/609
f 608/608/608 691/691/691 690/690/690
f 690/690/690 609/609/609 608/608/608
f 239/239/239 217/217/217 213/213/213
f 213/213/213 238/238/238 239/239/239
f 213/213/213 217/217/217 216/216/216
f 238/238/238 229/229/229 245/245/245
f 245/245/245 239/239/239 238/238/238
f 229/229/229 238/238/238 237/237/237
f 237/237/237 226/226/226 229/229/229
f 247/247/247 245/245/245 229/229/229
f 229/229/229 231/231/231 247/247/247
f 231/231/231 229/229/229 230/230/230
f 228/228/228 230/230/230 229/229/229
f 228/228/228 229/229/229 226/226/226
f 235/235/235 245/245/245 247/247/247
f 245/245/245 235/235/235 244/244/244
f 244/244/244 239/239/239 245/245/245
f 247/247/247 232/232/232 235/235/235
f 244/244/244 235/235/235 234/234/234
f 234/234/234 235/235/235 232/232/232
f 582/582/582 580/580/580 554/554/554
f 554/554/554 560/560/560 582/582/582
f 559/559/559 560/560/560 554/554/554
f 580/580/580 582/582/582 588/588/588
f 588/588/588 570/570/570 580/580/580
f 581/581/581 580/580/580 570/570/570
f 570/570/570 569/569/569 581/581/581
f 590/590/590 574/574/574 570/570/570
f 570/570/570 588/588/588 590/590/590
f 574/574/574 573/573/573 570/570/570
f 571/571/571 570/570/570 573/573/573
f 569/569/569 570/570/570 571/571/571
f 590/590/590 588/588/588 576/576/576
f 588/588/588 582/582/582 587/587/587
f 587/587/587 576/576/576 588/588/588
f 576/576/576 575/575/575 590/590/590
f 577/577/577 576/576/576 587/587/587
f 575/575/575 576/576/576 577/577/577
f 77/77/77 71/71/71 76/76/76
f 72/72/72 71/71/71 77/77/77
f 75/75/75 76/76/76 71/71/71
f 71/71/71 74/74/74 75/75/75
f 73/73/73 74/74/74 71/71/71
f 71/71/71 72/72/72 73/73/73
f 102/102/102 77/77/77 79/79/79
f 77/77/77 102/102/102 101/101/101
f 101/101/101 78/78/78 77/77/77
f 76/76/76 79/79/79 77/77/77
f 344/344/344 345/345/345 343/343/343
f 180/180/180 177/177/177 344/344/344
f 344/344/344 182/182/182 180/180/180
f 345/345/345 344/344/344 177/177/177
f 183/183/183 182/182/182 194/194/194
f 184/184/184 180/180/180 182/182/182
f 182/182/182 183/183/183 184/184/184
f 194/194/194 143/143/143 183/183/183
f 144/144/144 143/143/143 194/194/194
f 194/194/194 195/195/195 144/144/144
f 183/183/183 143/143/143 146/146/146
f 146/146/146 189/189/189 183/183/183
f 184/184/184 183/183/183 189/189/189
f 145/145/145 146/146/146 143/143/143
f 143/143/143 144/144/144 145/145/145
f 21/21/21 145/145/145 144/144/144
f 348/348/348 21/21/21 144/144/144
f 269/269/269 270/270/270 271/271/271
f 610/610/610 611/611/611 612/612/612
f 293/293/293 294/294/294 295/295/295
f 634/634/634 635/635/635 636/636/636
f 287/287/287 288/288/288 289/289/289
f 628/628/628 629/629/629 630/630/630
f 284/284/284 285/285/285 286/286/286
f 625/625/625 626/626/626 627/627/627
f 444/444/444 440/440/440 446/446/446
f 446/446/446 440/440/440 443/443/443
f 445/445/445 441/441/441 440/440/440
f 440/440/440 444/444/444 445/445/445
f 442/442/442 443/443/443 440/440/440
f 440/440/440 441/441/441 442/442/442
f 449/449/449 444/444/444 451/451/451
f 451/451/451 444/444/444 448/448/448
f 445/445/445 444/444/444 449/449/449
f 446/446/446 448/448/448 444/444/444
f 681/681/681 363/363/363 165/165/165
f 165/165/165 523/523/523 681/681/681
f 522/522/522 523/523/523 165/165/165
f 165/165/165 168/168/168 522/522/522
f 364/364/364 166/166/166 165/165/165
f 165/165/165 363/363/363 364/364/364
f 167/167/167 168/168/168 165/165/165
f 165/165/165 166/166/166 167/167/167
f 363/363/363 681/681/681 682/682/682
f 682/682/682 365/365/365 363/363/363
f 541/541/541 506/506/506 509/509/509
f 507/507/507 506/506/506 535/535/535
f 535/535/535 506/506/506 541/541/541
f 535/535/535 539/539/539 507/507/507
f 192/192/192 507/507/507 539/539/539
f 541/541/541 533/533/533 535/535/535
f 539/539/539 535/535/535 534/534/534
f 534/534/534 535/535/535 533/533/533
f 533/533/533 541/541/541 667/667/667
f 667/667/667 541/541/541 542/542/542
f 672/672/672 671/671/671 542/542/542
f 542/542/542 671/671/671 668/668/668
f 542/542/542 668/668/668 667/667/667
f 667/667/667 669/669/669 533/533/533
f 532/532/532 533/533/533 669/669/669
f 533/533/533 532/532/532 534/534/534
f 669/669/669 530/530/530 532/532/532
f 530/530/530 669/669/669 345/345/345
f 534/534/534 532/532/532 531/531/531
f 338/338/338 164/164/164 188/188/188
f 392/392/392 164/164/164 538/538/538
f 338/338/338 538/538/538 164/164/164
f 538/538/538 338/338/338 340/340/340
f 668/668/668 671/671/671 538/538/538
f 538/538/538 671/671/671 395/395/395
f 340/340/340 668/668/668 538/538/538
f 538/538/538 395/395/395 392/392/392
f 667/667/667 668/668/668 340/340/340
f 340/340/340 343/343/343 667/667/667
f 342/342/342 343/343/343 340/340/340
f 340/340/340 341/341/341 342/342/342
f 195/195/195 341/341/341 347/347/347
f 342/342/342 341/341/341 195/195/195
f 343/343/343 342/342/342 344/344/344
f 342/342/342 194/194/194 182/182/182
f 182/182/182 344/344/344 342/342/342
f 195/195/195 194/194/194 342/342/342
f 343/343/343 345/345/345 669/669/669
f 669/669/669 667/667/667 343/343/343
f 302/302/302 303/303/303 304/304/304
f 304/304/304 303/303/303 378/378/378
f 378/378/378 379/379/379 304/304/304
f 643/643/643 644/644/644 645/645/645
f 644/644/644 693/693/693 692/692/692
f 692/692/692 645/645/645 644/644/644
f 234/234/234 248/248/248 244/244/244
f 219/219/219 218/218/218 244/244/244
f 244/244/244 248/248/248 219/219/219
f 239/239/239 244/244/244 218/218/218
f 240/240/240 248/248/248 234/234/234
f 240/240/240 234/234/234 236/236/236
f 233/233/233 236/236/236 234/234/234
f 232/232/232 233/233/233 234/234/234
f 222/222/222 219/219/219 248/248/248
f 248/248/248 240/240/240 222/222/222
f 219/219/219 222/222/222 220/220/220
f 218/218/218 219/219/219 220/220/220
f 217/217/217 218/218/218 221/221/221
f 218/218/218 217/217/217 239/239/239
f 220/220/220 221/221/221 218/218/218
f 222/222/222 225/225/225 220/220/220
f 220/220/220 225/225/225 223/223/223
f 221/221/221 220/220/220 223/223/223
f 241/241/241 225/225/225 222/222/222
f 222/222/222 240/240/240 241/241/241
f 242/242/242 223/223/223 225/225/225
f 225/225/225 241/241/241 242/242/242
f 224/224/224 223/223/223 242/242/242
f 223/223/223 224/224/224 221/221/221
f 221/221/221 216/216/216 217/217/217
f 216/216/216 221/221/221 224/224/224
f 224/224/224 243/243/243 216/216/216
f 216/216/216 243/243/243 246/246/246
f 587/587/587 591/591/591 577/577/577
f 564/564/564 591/591/591 587/587/587
f 587/587/587 561/561/561 564/564/564
f 561/561/561 587/587/587 582/582/582
f 584/584/584 577/577/577 591/591/591
f 584/584/584 579/579/579 577/577/577
f 578/578/578 577/577/577 579/579/579
f 577/577/577 578/578/578 575/575/575
f 565/565/565 584/584/584 591/591/591
f 591/591/591 564/564/564 565/565/565
f 564/564/564 563/563/563 565/565/565
f 563/563/563 564/564/564 561/561/561
f 562/562/562 561/561/561 560/560/560
f 582/582/582 560/560/560 561/561/561
f 561/561/561 562/562/562 563/563/563
f 565/565/565 563/563/563 568/568/568
f 563/563/563 567/567/567 568/568/568
f 567/567/567 563/563/563 562/562/562
f 583/583/583 584/584/584 565/565/565
f 565/565/565 568/568/568 583/583/583
f 585/585/585 583/583/583 568/568/568
f 568/568/568 567/567/567 585/585/585
f 566/566/566 585/585/585 567/567/567
f 562/562/562 566/566/566 567/567/567
f 560/560/560 559/559/559 562/562/562
f 566/566/566 562/562/562 559/559/559
f 559/559/559 586/586/586 566/566/566
f 589/589/589 586/586/586 559/559/559
f 675/675/675 353/353/353 354/354/354
f 354/354/354 353/353/353 352/352/352
f 354/354/354 676/676/676 675/675/675
f 676/676/676 354/354/354 368/368/368
f 368/368/368 354/354/354 355/355/355
f 352/352/352 355/355/355 354/354/354
f 368/368/368 684/684/684 676/676/676
f 684/684/684 368/368/368 367/367/367
f 355/355/355 369/369/369 368/368/368
f 367/367/367 368/368/368 369/369/369
f 367/367/367 683/683/683 684/684/684
f 369/369/369 370/370/370 367/367/367
f 290/290/290 291/291/291 292/292/292
f 631/631/631 632/632/632 633/633/633
f 272/272/272 273/273/273 274/274/274
f 613/613/613 614/614/614 615/615/615
f 26/26/26 25/25/25 18/18/18
f 26/26/26 351/351/351 358/358/358
f 351/351/351 26/26/26 17/17/17
f 18/18/18 17/17/17 26/26/26
f 17/17/17 18/18/18 15/15/15
f 17/17/17 28/28/28 351/351/351
f 28/28/28 17/17/17 16/16/16
f 15/15/15 16/16/16 17/17/17
f 358/358/358 351/351/351 407/407/407
f 351/351/351 28/28/28 400/400/400
f 431/431/431 518/518/518 536/536/536
f 518/518/518 431/431/431 516/516/516
f 516/516/516 517/517/517 518/518/518
f 496/496/496 430/430/430 536/536/536
f 536/536/536 497/497/497 496/496/496
f 536/536/536 430/430/430 431/431/431
f 496/496/496 497/497/497 131/131/131
f 132/132/132 131/131/131 497/497/497
f 497/497/497 498/498/498 132/132/132
f 131/131/131 385/385/385 496/496/496
f 496/496/496 385/385/385 128/128/128
f 484/484/484 428/428/428 496/496/496
f 496/496/496 428/428/428 430/430/430
f 484/484/484 496/496/496 128/128/128
f 430/430/430 429/429/429 431/431/431
f 428/428/428 429/429/429 430/430/430
f 484/484/484 483/483/483 428/428/428
f 495/495/495 482/482/482 484/484/484
f 495/495/495 484/484/484 128/128/128
f 482/482/482 483/483/483 484/484/484
f 139/139/139 138/138/138 157/157/157
f 158/158/158 157/157/157 138/138/138
f 139/139/139 133/133/133 151/151/151
f 151/151/151 136/136/136 139/139/139
f 130/130/130 133/133/133 139/139/139
f 138/138/138 139/139/139 136/136/136
f 131/131/131 130/130/130 129/129/129
f 132/132/132 133/133/133 130/130/130
f 130/130/130 131/131/131 132/132/132
f 129/129/129 385/385/385 131/131/131
f 339/339/339 132/132/132 498/498/498
f 133/133/133 132/132/132 339/339/339
f 339/339/339 151/151/151 133/133/133
f 136/136/136 151/151/151 150/150/150
f 136/136/136 150/150/150 147/147/147
f 137/137/137 136/136/136 147/147/147
f 136/136/136 137/137/137 138/138/138
f 148/148/148 147/147/147 150/150/150
f 205/205/205 150/150/150 153/153/153
f 571/571/571 572/572/572 569/569/569
f 226/226/226 227/227/227 228/228/228
f 619/619/619 620/620/620 621/621/621
f 278/278/278 279/279/279 280/280/280
f 386/386/386 1/1/1 387/387/387
f 387/387/387 1/1/1 163/163/163
f 1/1/1 386/386/386 2/2/2
f 3/3/3 4/4/4 1/1/1
f 163/163/163 1/1/1 4/4/4
f 1/1/1 2/2/2 3/3/3
f 33/33/33 2/2/2 386/386/386
f 388/388/388 411/411/411 386/386/386
f 386/386/386 411/411/411 33/33/33
f 387/387/387 388/388/388 386/386/386
f 7/7/7 361/361/361 357/357/357
f 152/152/152 151/151/151 339/339/339
f 150/150/150 151/151/151 152/152/152
f 498/498/498 514/514/514 339/339/339
f 501/501/501 500/500/500 514/514/514
f 514/514/514 498/498/498 501/501/501
f 512/512/512 500/500/500 503/503/503
f 502/502/502 503/503/503 500/500/500
f 500/500/500 501/501/501 502/502/502
f 511/511/511 512/512/512 493/493/493
f 493/493/493 510/510/510 511/511/511
f 494/494/494 510/510/510 493/493/493
f 503/503/503 502/502/502 519/519/519
f 518/518/518 502/502/502 501/501/501
f 502/502/502 518/518/518 517/517/517
f 517/517/517 519/519/519 502/502/502
f 497/497/497 536/536/536 501/501/501
f 501/501/501 498/498/498 497/497/497
f 501/501/501 536/536/536 518/518/518
f 296/296/296 297/297/297 298/298/298
f 637/637/637 638/638/638 639/639/639
f 114/114/114 58/58/58 115/115/115
f 113/113/113 114/114/114 115/115/115
f 199/199/199 196/196/196 113/113/113
f 113/113/113 172/172/172 199/199/199
f 172/172/172 171/171/171 199/199/199
f 49/49/49 174/174/174 199/199/199
f 199/199/199 171/171/171 49/49/49
f 122/122/122 172/172/172 350/350/350
f 122/122/122 171/171/171 172/172/172
f 60/60/60 122/122/122 350/350/350
f 60/60/60 61/61/61 122/122/122
f 59/59/59 61/61/61 60/60/60
f 58/58/58 59/59/59 60/60/60
f 61/61/61 59/59/59 185/185/185
f 185/185/185 157/157/157 61/61/61
f 185/185/185 59/59/59 129/129/129
f 129/129/129 59/59/59 58/58/58
f 129/129/129 130/130/130 185/185/185
f 139/139/139 185/185/185 130/130/130
f 157/157/157 185/185/185 139/139/139
f 315/315/315 316/316/316 317/317/317
f 656/656/656 657/657/657 658/658/658
f 156/156/156 61/61/61 157/157/157
f 47/47/47 327/327/327 326/326/326
f 326/326/326 50/50/50 47/47/47
f 51/51/51 48/48/48 47/47/47
f 47/47/47 50/50/50 51/51/51
f 175/175/175 173/173/173 48/48/48
f 48/48/48 51/51/51 175/175/175
f 49/49/49 48/48/48 173/173/173
f 175/175/175 51/51/51 422/422/422
f 51/51/51 50/50/50 423/423/423
f 423/423/423 422/422/422 51/51/51
f 423/423/423 50/50/50 326/326/326
f 516/516/516 420/420/420 423/423/423
f 423/423/423 663/663/663 516/516/516
f 326/326/326 663/663/663 423/423/423
f 422/422/422 423/423/423 420/420/420
f 663/663/663 326/326/326 325/325/325
f 325/325/325 326/326/326 327/327/327
f 156/156/156 46/46/46 122/122/122
f 46/46/46 49/49/49 171/171/171
f 171/171/171 122/122/122 46/46/46
f 47/47/47 46/46/46 156/156/156
f 48/48/48 49/49/49 46/46/46
f 46/46/46 47/47/47 48/48/48
f 122/122/122 61/61/61 156/156/156
f 156/156/156 327/327/327 47/47/47
f 327/327/327 156/156/156 158/158/158
f 157/157/157 158/158/158 156/156/156
f 517/517/517 516/516/516 663/663/663
f 663/663/663 662/662/662 517/517/517
f 325/325/325 662/662/662 663/663/663
f 662/662/662 325/325/325 187/187/187
f 187/187/187 325/325/325 328/328/328
f 327/327/327 328/328/328 325/325/325
f 158/158/158 328/328/328 327/327/327
f 159/159/159 186/186/186 328/328/328
f 328/328/328 158/158/158 159/159/159
f 328/328/328 186/186/186 187/187/187
f 187/187/187 537/537/537 662/662/662
f 537/537/537 187/187/187 142/142/142
f 142/142/142 187/187/187 186/186/186
f 519/519/519 517/517/517 662/662/662
f 662/662/662 537/537/537 519/519/519
f 142/142/142 504/504/504 537/537/537
f 505/505/505 519/519/519 537/537/537
f 537/537/537 504/504/504 505/505/505
f 504/504/504 142/142/142 57/57/57
f 186/186/186 140/140/140 142/142/142
f 57/57/57 142/142/142 140/140/140
f 141/141/141 140/140/140 186/186/186
f 186/186/186 159/159/159 141/141/141
f 140/140/140 52/52/52 57/57/57
f 53/53/53 52/52/52 140/140/140
f 140/140/140 141/141/141 53/53/53
f 57/57/57 424/424/424 504/504/504
f 424/424/424 57/57/57 56/56/56
f 487/487/487 486/486/486 499/499/499
f 486/486/486 485/485/485 493/493/493
f 485/485/485 486/486/486 487/487/487
f 499/499/499 547/547/547 487/487/487
f 202/202/202 547/547/547 499/499/499
f 499/499/499 135/135/135 202/202/202
f 487/487/487 488/488/488 485/485/485
f 485/485/485 488/488/488 324/324/324
f 324/324/324 155/155/155 485/485/485
f 592/592/592 494/494/494 485/485/485
f 485/485/485 515/515/515 592/592/592
f 154/154/154 515/515/515 485/485/485
f 485/485/485 155/155/155 154/154/154
f 485/485/485 494/494/494 493/493/493
f 324/324/324 117/117/117 116/116/116
f 116/116/116 155/155/155 324/324/324
f 154/154/154 155/155/155 116/116/116
f 513/513/513 515/515/515 154/154/154
f 154/154/154 152/152/152 513/513/513
f 150/150/150 152/152/152 154/154/154
f 154/154/154 153/153/153 150/150/150
f 116/116/116 153/153/153 154/154/154
f 549/549/549 592/592/592 515/515/515
f 515/515/515 513/513/513 549/549/549
f 549/549/549 513/513/513 511/511/511
f 511/511/511 513/513/513 512/512/512
f 500/500/500 512/512/512 513/513/513
f 500/500/500 513/513/513 514/514/514
f 513/513/513 152/152/152 514/514/514
f 152/152/152 339/339/339 514/514/514
f 659/659/659 660/660/660 661/661/661
f 318/318/318 319/319/319 320/320/320
f 205/205/205 148/148/148 150/150/150
f 147/147/147 161/161/161 137/137/137
f 147/147/147 124/124/124 160/160/160
f 160/160/160 161/161/161 147/147/147
f 124/124/124 147/147/147 148/148/148
f 148/148/148 149/149/149 124/124/124
f 125/125/125 124/124/124 149/149/149
f 119/119/119 160/160/160 124/124/124
f 116/116/116 124/124/124 125/125/125
f 119/119/119 124/124/124 116/116/116
f 160/160/160 119/119/119 54/54/54
f 161/161/161 160/160/160 54/54/54
f 54/54/54 53/53/53 161/161/161
f 137/137/137 161/161/161 53/53/53
f 134/134/134 54/54/54 119/119/119
f 134/134/134 55/55/55 54/54/54
f 54/54/54 55/55/55 52/52/52
f 52/52/52 53/53/53 54/54/54
f 134/134/134 119/119/119 118/118/118
f 118/118/118 119/119/119 116/116/116
f 118/118/118 201/201/201 134/134/134
f 202/202/202 135/135/135 134/134/134
f 134/134/134 201/201/201 202/202/202
f 55/55/55 134/134/134 135/135/135
f 597/597/597 598/598/598 599/599/599
f 598/598/598 686/686/686 685/685/685
f 685/685/685 599/599/599 598/598/598
f 256/256/256 257/257/257 258/258/258
f 258/258/258 257/257/257 371/371/371
f 371/371/371 372/372/372 258/258/258
f 462/462/462 464/464/464 463/463/463
f 462/462/462 463/463/463 461/461/461
f 467/467/467 466/466/466 477/477/477
f 465/465/465 466/466/466 467/467/467
f 467/467/467 468/468/468 465/465/465
f 477/477/477 492/492/492 467/467/467
f 479/479/479 467/467/467 492/492/492
f 479/479/479 469/469/469 467/467/467
f 468/468/468 467/467/467 469/469/469
f 477/477/477 450/450/450 453/453/453
f 453/453/453 492/492/492 477/477/477
f 492/492/492 453/453/453 454/454/454
f 454/454/454 479/479/479 492/492/492
f 478/478/478 479/479/479 454/454/454
f 454/454/454 452/452/452 457/457/457
f 454/454/454 457/457/457 478/478/478
f 453/453/453 452/452/452 454/454/454
f 452/452/452 453/453/453 450/450/450
f 450/450/450 449/449/449 452/452/452
f 452/452/452 456/456/456 457/457/457
f 456/456/456 452/452/452 449/449/449
f 481/481/481 478/478/478 457/457/457
f 457/457/457 456/456/456 481/481/481
f 456/456/456 455/455/455 480/480/480
f 480/480/480 481/481/481 456/456/456
f 449/449/449 455/455/455 456/456/456
f 451/451/451 455/455/455 449/449/449
f 480/480/480 455/455/455 451/451/451
f 543/543/543 495/495/495 127/127/127
f 482/482/482 495/495/495 543/543/543
f 128/128/128 127/127/127 495/495/495
f 546/546/546 525/525/525 482/482/482
f 482/482/482 544/544/544 546/546/546
f 543/543/543 544/544/544 482/482/482
f 127/127/127 335/335/335 543/543/543
f 197/197/197 335/335/335 127/127/127
f 127/127/127 126/126/126 197/197/197
f 126/126/126 127/127/127 128/128/128
f 197/197/197 126/126/126 113/113/113
f 113/113/113 196/196/196 197/197/197
f 126/126/126 114/114/114 113/113/113
f 128/128/128 114/114/114 126/126/126
f 129/129/129 128/128/128 385/385/385
f 114/114/114 128/128/128 129/129/129
f 114/114/114 129/129/129 58/58/58
f 546/546/546 527/527/527 421/421/421
f 528/528/528 422/422/422 421/421/421
f 421/421/421 527/527/527 528/528/528
f 420/420/420 421/421/421 422/422/422
f 422/422/422 528/528/528 175/175/175
f 116/116/116 117/117/117 118/118/118
f 249/249/249 153/153/153 116/116/116
f 116/116/116 125/125/125 249/249/249
f 153/153/153 249/249/249 205/205/205
f 53/53/53 141/141/141 137/137/137
f 137/137/137 141/141/141 159/159/159
f 159/159/159 138/138/138 137/137/137
f 138/138/138 159/159/159 158/158/158
f 491/491/491 674/674/674 525/525/525
f 525/525/525 546/546/546 526/526/526
f 491/491/491 525/525/525 526/526/526
f 429/429/429 674/674/674 491/491/491
f 491/491/491 420/420/420 516/516/516
f 516/516/516 431/431/431 491/491/491
f 420/420/420 491/491/491 526/526/526
f 429/429/429 491/491/491 431/431/431
f 526/526/526 421/421/421 420/420/420
f 421/421/421 526/526/526 546/546/546
f 600/600/600 601/601/601 602/602/602
f 601/601/601 688/688/688 687/687/687
f 687/687/687 602/602/602 601/601/601
f 259/259/259 260/260/260 261/261/261
f 261/261/261 260/260/260 373/373/373
f 373/373/373 374/374/374 261/261/261
f 56/56/56 57/57/57 52/52/52
f 427/427/427 505/505/505 504/504/504
f 504/504/504 424/424/424 427/427/427
f 503/503/503 505/505/505 427/427/427
f 519/519/519 505/505/505 503/503/503
f 521/521/521 427/427/427 426/426/426
f 427/427/427 521/521/521 503/503/503
f 426/426/426 427/427/427 424/424/424
f 56/56/56 425/425/425 424/424/424
f 424/424/424 425/425/425 426/426/426
f 425/425/425 56/56/56 135/135/135
f 135/135/135 56/56/56 55/55/55
f 52/52/52 55/55/55 56/56/56
f 135/135/135 499/499/499 425/425/425
f 499/499/499 426/426/426 425/425/425
f 499/499/499 486/486/486 426/426/426
f 520/520/520 426/426/426 486/486/486
f 426/426/426 520/520/520 521/521/521
f 503/503/503 521/521/521 512/512/512
f 512/512/512 521/521/521 520/520/520
f 486/486/486 493/493/493 520/520/520
f 520/520/520 493/493/493 512/512/512
f 275/275/275 276/276/276 277/277/277
f 616/616/616 617/617/617 618/618/618
f 539/539/539 193/193/193 192/192/192
f 336/336/336 200/200/200 540/540/540
f 540/540/540 666/666/666 336/336/336
f 670/670/670 540/540/540 534/534/534
f 540/540/540 670/670/670 666/666/666
f 534/534/534 540/540/540 539/539/539
f 534/534/534 545/545/545 670/670/670
f 531/531/531 545/545/545 534/534/534
f 477/477/477 473/473/473 445/445/445
f 445/445/445 450/450/450 477/477/477
f 441/441/441 445/445/445 473/473/473
f 449/449/449 450/450/450 445/445/445
f 442/442/442 441/441/441 474/474/474
f 473/473/473 474/474/474 441/441/441
f 474/474/474 475/475/475 442/442/442
f 475/475/475 474/474/474 460/460/460
f 460/460/460 474/474/474 473/473/473
f 473/473/473 477/477/477 466/466/466
f 466/466/466 462/462/462 473/473/473
f 473/473/473 462/462/462 460/460/460
f 460/460/460 459/459/459 475/475/475
f 461/461/461 460/460/460 462/462/462
f 460/460/460 461/461/461 458/458/458
f 458/458/458 459/459/459 460/460/460
f 465/465/465 464/464/464 462/462/462
f 462/462/462 466/466/466 465/465/465
f 106/106/106 92/92/92 91/91/91
f 91/91/91 105/105/105 106/106/106
f 104/104/104 105/105/105 91/91/91
f 91/91/91 92/92/92 89/89/89
f 89/89/89 90/90/90 91/91/91
f 74/74/74 105/105/105 104/104/104
f 105/105/105 74/74/74 73/73/73
f 73/73/73 106/106/106 105/105/105
f 173/173/173 174/174/174 49/49/49
f 305/305/305 306/306/306 307/307/307
f 307/307/307 306/306/306 380/380/380
f 380/380/380 381/381/381 307/307/307
f 646/646/646 647/647/647 648/648/648
f 647/647/647 695/695/695 694/694/694
f 694/694/694 648/648/648 647/647/647
f 416/416/416 697/697/697 396/396/396
f 394/394/394 697/697/697 415/415/415
f 393/393/393 697/697/697 394/394/394
f 397/397/397 697/697/697 393/393/393
f 397/397/397 393/393/393 392/392/392
f 396/396/396 697/697/697 397/397/397
f 404/404/404 396/396/396 671/671/671
f 404/404/404 673/673/673 396/396/396
f 671/671/671 396/396/396 395/395/395
f 395/395/395 396/396/396 397/397/397
f 673/673/673 403/403/403 410/410/410
f 673/673/673 410/410/410 680/680/680
f 404/404/404 403/403/403 673/673/673
f 404/404/404 672/672/672 405/405/405
f 671/671/671 672/672/672 404/404/404
f 403/403/403 404/404/404 405/405/405
f 403/403/403 405/405/405 169/169/169
f 169/169/169 31/31/31 403/403/403
f 410/410/410 403/403/403 31/31/31
f 409/409/409 680/680/680 410/410/410
f 410/410/410 406/406/406 409/409/409
f 406/406/406 410/410/410 30/30/30
f 653/653/653 654/654/654 655/655/655
f 312/312/312 313/313/313 314/314/314
f 417/417/417 41/41/41 62/62/62
f 418/418/418 42/42/42 41/41/41
f 41/41/41 417/417/417 418/418/418
f 62/62/62 41/41/41 44/44/44
f 43/43/43 44/44/44 41/41/41
f 41/41/41 42/42/42 43/43/43
f 419/419/419 417/417/417 251/251/251
f 417/417/417 432/432/432 250/250/250
f 250/250/250 251/251/251 417/417/417
f 62/62/62 432/432/432 417/417/417
f 8/8/8 40/40/40 39/39/39
f 170/170/170 8/8/8 357/357/357
f 357/357/357 361/361/361 170/170/170
f 8/8/8 11/11/11 164/164/164
f 39/39/39 9/9/9 8/8/8
f 10/10/10 11/11/11 8/8/8
f 8/8/8 9/9/9 10/10/10
f 9/9/9 39/39/39 383/383/383
f 10/10/10 9/9/9 383/383/383
f 13/13/13 10/10/10 383/383/383
f 11/11/11 10/10/10 13/13/13
f 11/11/11 188/188/188 164/164/164
f 188/188/188 11/11/11 12/12/12
f 13/13/13 12/12/12 11/11/11
f 188/188/188 12/12/12 347/347/347
f 341/341/341 188/188/188 347/347/347
f 188/188/188 341/341/341 340/340/340
f 340/340/340 338/338/338 188/188/188
f 31/31/31 30/30/30 410/410/410
f 20/20/20 31/31/31 169/169/169
f 31/31/31 20/20/20 29/29/29
f 29/29/29 30/30/30 31/31/31
f 30/30/30 356/356/356 406/406/406
f 23/23/23 356/356/356 30/30/30
f 30/30/30 29/29/29 23/23/23
f 358/358/358 406/406/406 356/356/356
f 407/407/407 406/406/406 358/358/358
f 408/408/408 409/409/409 406/406/406
f 406/406/406 407/407/407 408/408/408
f 358/358/358 356/356/356 23/23/23
f 24/24/24 23/23/23 29/29/29
f 358/358/358 23/23/23 26/26/26
f 25/25/25 26/26/26 23/23/23
f 23/23/23 24/24/24 25/25/25
f 349/349/349 29/29/29 20/20/20
f 29/29/29 362/362/362 24/24/24
f 349/349/349 362/362/362 29/29/29
f 349/349/349 14/14/14 40/40/40
f 40/40/40 170/170/170 349/349/349
f 22/22/22 349/349/349 20/20/20
f 22/22/22 14/14/14 349/349/349
f 22/22/22 347/347/347 14/14/14
f 14/14/14 13/13/13 383/383/383
f 40/40/40 14/14/14 383/383/383
f 347/347/347 12/12/12 14/14/14
f 12/12/12 13/13/13 14/14/14
f 39/39/39 40/40/40 383/383/383
f 40/40/40 8/8/8 170/170/170
f 281/281/281 282/282/282 283/283/283
f 622/622/622 623/623/623 624/624/624
f 531/531/531 532/532/532 530/530/530
f 345/345/345 176/176/176 530/530/530
f 530/530/530 529/529/529 531/531/531
f 529/529/529 530/530/530 176/176/176
f 177/177/177 176/176/176 345/345/345
f 176/176/176 179/179/179 529/529/529
f 178/178/178 179/179/179 176/176/176
f 176/176/176 177/177/177 178/178/178
f 181/181/181 178/178/178 177/177/177
f 177/177/177 180/180/180 181/181/181
f 181/181/181 180/180/180 184/184/184
f 184/184/184 198/198/198 181/181/181
f 346/346/346 184/184/184 190/190/190
f 184/184/184 346/346/346 198/198/198
f 189/189/189 190/190/190 184/184/184
f 190/190/190 337/337/337 346/346/346
f 336/336/336 337/337/337 190/190/190
f 190/190/190 200/200/200 336/336/336
f 190/190/190 189/189/189 193/193/193
f 193/193/193 200/200/200 190/190/190
f 189/189/189 146/146/146 192/192/192
f 192/192/192 193/193/193 189/189/189
f 540/540/540 200/200/200 193/193/193
f 193/193/193 539/539/539 540/540/540
f 254/254/254 255/255/255 252/252/252
f 252/252/252 253/253/253 254/254/254
f 595/595/595 596/596/596 593/593/593
f 593/593/593 594/594/594 595/595/595
f 392/392/392 395/395/395 397/397/397
f 419/419/419 418/418/418 417/417/417
f 322/322/322 432/432/432 62/62/62
f 322/322/322 62/62/62 63/63/63
f 44/44/44 63/63/63 62/62/62
f 250/250/250 432/432/432 322/322/322
f 250/250/250 322/322/322 63/63/63
f 44/44/44 251/251/251 250/250/250
f 250/250/250 63/63/63 44/44/44
f 251/251/251 44/44/44 45/45/45
f 45/45/45 44/44/44 43/43/43
f 251/251/251 321/321/321 419/419/419
f 45/45/45 321/321/321 251/251/251
f 489/489/489 419/419/419 321/321/321
f 418/418/418 419/419/419 489/489/489
f 321/321/321 323/323/323 489/489/489
f 120/120/120 323/323/323 321/321/321
f 321/321/321 45/45/45 120/120/120
f 120/120/120 45/45/45 43/43/43
f 43/43/43 121/121/121 120/120/120
f 203/203/203 121/121/121 43/43/43
f 43/43/43 42/42/42 203/203/203
f 203/203/203 42/42/42 204/204/204
f 548/548/548 42/42/42 418/418/418
f 548/548/548 204/204/204 42/42/42
f 418/418/418 490/490/490 548/548/548
f 489/489/489 490/490/490 418/418/418
f 85/85/85 88/88/88 84/84/84
f 83/83/83 85/85/85 84/84/84
f 81/81/81 83/83/83 84/84/84
f 83/83/83 81/81/81 108/108/108
f 108/108/108 81/81/81 75/75/75
f 75/75/75 104/104/104 108/108/108
f 104/104/104 75/75/75 74/74/74
f 108/108/108 99/99/99 98/98/98
f 98/98/98 123/123/123 108/108/108
f 99/99/99 108/108/108 104/104/104
f 108/108/108 123/123/123 83/83/83
f 85/85/85 83/83/83 123/123/123
f 109/109/109 123/123/123 98/98/98
f 123/123/123 109/109/109 85/85/85
f 110/110/110 88/88/88 85/85/85
f 85/85/85 109/109/109 110/110/110
f 88/88/88 110/110/110 112/112/112
f 109/109/109 98/98/98 100/100/100
f 97/97/97 100/100/100 98/98/98
f 98/98/98 99/99/99 96/96/96
f 96/96/96 97/97/97 98/98/98
f 104/104/104 94/94/94 99/99/99
f 96/96/96 99/99/99 94/94/94
f 94/94/94 95/95/95 96/96/96
f 91/91/91 94/94/94 104/104/104
f 94/94/94 93/93/93 95/95/95
f 94/94/94 91/91/91 90/90/90
f 90/90/90 93/93/93 94/94/94
f 69/69/69 64/64/64 66/66/66
f 64/64/64 65/65/65 66/66/66
f 68/68/68 69/69/69 66/66/66
f 67/67/67 66/66/66 70/70/70
f 66/66/66 65/65/65 70/70/70
f 67/67/67 68/68/68 66/66/66
f 438/438/438 434/434/434 433/433/433
f 433/433/433 434/434/434 435/435/435
f 437/437/437 434/434/434 438/438/438
f 436/436/436 439/439/439 434/434/434
f 434/434/434 439/439/439 435/435/435
f 436/436/436 434/434/434 437/437/437
f 36/36/36 37/37/37 35/35/35
f 412/412/412 413/413/413 36/36/36
f 414/414/414 413/413/413 412/412/412
f 412/412/412 411/411/411 414/414/414
f 414/414/414 411/411/411 388/388/388
f 389/389/389 414/414/414 388/388/388
f 389/389/389 388/388/388 387/387/387
f 387/387/387 390/390/390 389/389/389
f 390/390/390 387/387/387 677/677/677
f 163/163/163 677/677/677 387/387/387
f 677/677/677 679/679/679 390/390/390
f 391/391/391 677/677/677 163/163/163
f 524/524/524 679/679/679 677/677/677
f 677/677/677 391/391/391 524/524/524
f 162/162/162 391/391/391 163/163/163
f 8/8/8 163/163/163 357/357/357
f 162/162/162 163/163/163 8/8/8
f 391/391/391 162/162/162 164/164/164
f 8/8/8 164/164/164 162/162/162
f 391/391/391 164/164/164 392/392/392
f 416/416/416 524/524/524 391/391/391
f 391/391/391 415/415/415 416/416/416
f 415/415/415 391/391/391 394/394/394
f 393/393/393 394/394/394 391/391/391
f 391/391/391 392/392/392 393/393/393
f 416/416/416 673/673/673 524/524/524
f 673/673/673 416/416/416 396/396/396
f 415/415/415 697/697/697 416/416/416
f 299/299/299 300/300/300 301/301/301
f 640/640/640 641/641/641 642/642/642
f 310/310/310 311/311/311 308/308/308
f 308/308/308 309/309/309 310/310/310
f 310/310/310 309/309/309 382/382/382
f 651/651/651 652/652/652 649/649/649
f 649/649/649 650/650/650 651/651/651
f 651/651/651 696/696/696 652/652/652
f 33/33/33 3/3/3 2/2/2
f 5/5/5 3/3/3 32/32/32
f 3/3/3 33/33/33 32/32/32
f 4/4/4 3/3/3 5/5/5
f 357/357/357 4/4/4 7/7/7
f 4/4/4 357/357/357 163/163/163
f 4/4/4 5/5/5 6/6/6
f 6/6/6 7/7/7 4/4/4
f 38/38/38 5/5/5 32/32/32
f 6/6/6 5/5/5 38/38/38
f 35/35/35 38/38/38 32/32/32
f 34/34/34 35/35/35 32/32/32
f 32/32/32 33/33/33 34/34/34
f 34/34/34 33/33/33 411/411/411
f 36/36/36 34/34/34 412/412/412
f 411/411/411 412/412/412 34/34/34
f 35/35/35 34/34/34 36/36/36
f 38/38/38 35/35/35 37/37/37
f 400/400/400 407/407/407 351/351/351
f 28/28/28 27/27/27 401/401/401
f 401/401/401 400/400/400 28/28/28
f 16/16/16 27/27/27 28/28/28
f 27/27/27 16/16/16 19/19/19
f 15/15/15 19/19/19 16/16/16
f 27/27/27 329/329/329 402/402/402
f 402/402/402 401/401/401 27/27/27
f 19/19/19 329/329/329 27/27/27
f 398/398/398 401/401/401 402/402/402
f 400/400/400 401/401/401 398/398/398
f 407/407/407 400/400/400 399/399/399
f 398/398/398 399/399/399 400/400/400
f 399/399/399 408/408/408 407/407/407
f 264/264/264 265/265/265 262/262/262
f 262/262/262 263/263/263 264/264/264
f 264/264/264 263/263/263 375/375/375
f 605/605/605 606/606/606 603/603/603
f 603/603/603 604/604/604 605/605/605
f 605/605/605 689/689/689 606/606/606
