# leedsic reconstructed from live game memory
v -13.46928 179.15475 -215.20399
v -9.64582 167.43596 -229.69339
v 0.00000 170.88506 -229.79070
v 0.00000 184.18335 -215.48082
v -4.73184 140.30545 -245.71727
v -0.00000 135.13844 -241.58833
v -0.00000 126.90782 -204.94086
v -18.74457 138.00349 -230.52116
v -30.72459 171.32750 -194.34418
v -27.13064 159.62189 -194.19249
v -27.42870 163.30080 -202.74525
v -33.90698 153.47191 -186.85876
v -30.62230 153.37411 -200.87230
v -35.04327 164.63969 -185.00981
v -13.62905 127.85365 -231.24135
v -4.83973 132.92648 -243.74925
v -5.93257 136.43105 -247.20938
v -18.98276 133.05280 -231.34409
v -46.06335 129.98062 -163.85211
v -36.85275 115.42392 -164.06140
v -29.44077 115.02148 -193.05968
v -37.09427 128.64641 -192.96317
v -21.80071 123.18909 -215.01646
v -0.00000 119.73838 -214.96948
v -0.00000 125.82285 -231.69040
v -0.00000 110.31123 -193.04483
v -6.62871 156.02965 -237.86252
v 0.00000 157.30232 -240.13716
v -6.77043 147.14716 -240.63225
v 0.00000 148.13968 -244.60661
v -15.62732 159.36992 -229.81419
v -17.79391 148.57306 -230.46039
v -22.07185 176.08508 54.19431
v -0.00000 189.22733 53.01277
v -0.00000 165.55211 102.09077
v -14.02651 159.85858 102.09876
v -19.99072 123.10394 97.73788
v -0.00000 114.79475 96.25004
v -0.00000 114.83401 47.65914
v -29.86842 128.56662 50.49210
v -0.00000 217.01564 -136.30795
v -32.16081 205.05391 -136.00085
v -25.78140 201.72372 -163.32004
v 0.00000 211.91754 -163.20041
v -28.59508 189.23883 -2.26498
v 0.00000 205.94005 -1.80316
v -8.88112 197.74466 27.00201
v -25.20189 182.77097 26.32666
v -44.84215 136.51859 -4.40094
v -28.47260 115.41329 -5.37701
v -36.69415 115.33422 -63.15331
v -48.00563 139.33691 -62.56220
v -31.27594 200.64972 -115.23783
v -40.01875 182.56010 -116.19335
v -39.10865 182.00989 -129.94412
v -30.49666 200.79689 -127.07137
v -30.33858 170.52443 -194.33936
v -33.48609 160.95985 -194.07486
v -27.09513 162.73541 -201.87331
v -29.20215 153.43202 -200.63202
v -32.70042 153.85298 -188.06877
v -33.90866 164.04506 -185.77524
v -17.90785 193.39778 -194.49156
v 0.00000 199.65627 -194.47066
v -34.86198 126.66941 28.25049
v -40.33722 138.30415 24.51978
v -29.86842 128.56662 50.49210
v -18.74457 138.00349 -230.52116
v -28.01732 136.10297 -215.01503
v -28.75431 130.37277 -215.08136
v -41.48263 181.69472 -136.76642
v -35.84733 181.23735 -163.13167
v -41.66000 129.97919 19.77603
v -42.97192 133.76782 15.12881
v -92.37708 127.47153 16.53899
v -91.08746 127.79946 24.99017
v -103.59648 126.64602 28.06834
v -90.07854 126.45934 30.85729
v -38.67243 121.53843 13.12810
v -40.83508 125.09088 21.07056
v -89.72641 124.16267 32.81273
v -90.18013 121.98825 30.03438
v -102.86966 122.62005 27.67498
v -103.55632 124.33378 31.20190
v -39.83128 126.82088 4.37940
v -43.36797 130.81404 6.40720
v -93.00285 125.63371 14.05083
v -71.03191 126.28833 6.55179
v -70.85915 128.12842 9.04134
v -89.72641 124.16267 32.81273
v -103.55632 124.33378 31.20190
v -68.44810 126.64384 29.72196
v -68.14815 124.28539 32.04774
v -68.14815 124.28539 32.04774
v -68.33336 122.55809 28.43699
v -104.77303 124.79257 24.75708
v -38.73932 116.17139 -135.43036
v -0.00000 103.68466 -127.70395
v -0.00000 105.71498 -164.21466
v -90.23824 123.02084 20.86119
v -69.13930 123.03193 16.56695
v -0.00000 114.83401 47.65914
v -12.51914 116.24396 27.68874
v -37.63411 118.44612 -118.56386
v -37.63411 118.44612 -118.56386
v -0.00000 104.39323 -63.11879
v -0.00000 103.68466 -127.70395
v -21.89734 116.22067 12.86191
v -107.35332 124.55430 29.10034
v -69.23152 129.10040 19.86338
v -52.43088 130.71671 15.88249
v -53.73683 129.43042 6.97361
v -43.36797 130.81404 6.40720
v -42.97192 133.76782 15.12881
v -41.66000 129.97919 19.77603
v -51.07874 128.12357 21.15535
v -40.83508 125.09088 21.07056
v -50.86266 125.32803 22.49706
v -54.00218 126.63736 4.75743
v -52.89429 122.55090 14.73450
v -38.67243 121.53843 13.12810
v -39.83128 126.82088 4.37940
v -50.86266 125.32803 22.49706
v -107.35332 124.55430 29.10034
v -28.01732 136.10297 -215.01503
v 0.00000 112.89095 27.49470
v 0.00000 109.19218 -5.08919
v -31.27594 200.64972 -115.23783
v -32.13871 197.82405 -61.88083
v -41.13625 180.83499 -62.24072
v -40.01875 182.56010 -116.19335
v -38.45061 171.98682 -2.60644
v -34.92676 167.09732 25.78590
v -16.24191 140.43102 -230.18062
v 0.00000 144.18654 -233.22328
v -5.50570 141.37593 -240.92537
v -28.65409 161.90636 54.37123
v -18.66561 150.03012 101.68206
v -25.14432 177.87834 -194.40366
v -17.95249 167.25749 -214.99809
v -21.57560 154.42921 -215.15366
v -10.35013 117.11507 136.06119
v -0.00000 111.94337 134.11807
v -0.00000 215.42201 -114.99725
v -0.00000 214.57721 -61.41502
v -0.00000 214.33977 -127.76454
v -0.00000 215.42201 -114.99725
v -44.58437 130.60031 -117.11710
v -49.22879 123.97720 -120.69543
v -49.42422 130.71439 -121.96880
v -48.08244 137.00400 -117.11300
v -48.22714 123.71100 -134.10707
v -47.17014 125.89305 -145.89001
v -49.40090 133.77150 -135.36572
v -47.14244 142.31895 -135.48355
v -47.64072 131.30899 -146.29915
v -44.59435 139.67871 -163.58270
v -44.58437 130.60031 -117.11710
v -48.08244 137.00400 -117.11300
v -3.12686 212.54393 39.73859
v 0.00000 204.46120 53.01038
v -0.00000 189.22733 53.01277
v -22.07185 176.08508 54.19431
v -28.65409 161.90636 54.37123
v -40.83508 125.09088 21.07056
v -0.00000 151.52475 140.34163
v -7.95539 148.17392 140.27322
v -35.06266 135.95601 -192.95886
v -0.00000 138.12860 -164.60873
v -44.59435 139.67871 -163.58270
v -26.91229 148.27707 -215.12436
v -0.00000 133.37369 -246.46317
v -4.73184 140.30545 -245.71727
v -35.06266 135.95601 -192.95886
v -0.00000 136.92186 -248.44998
v -0.00000 140.13785 -247.27611
v -11.29011 139.90662 139.73331
v -0.00000 94.45711 144.26469
v -7.59645 99.62308 150.34096
v -5.51280 70.49728 163.38818
v -0.00000 67.07122 158.54306
v -2.57056 45.12708 178.81409
v 0.00000 42.01878 175.01746
v -3.26705 98.43774 176.72693
v -0.90193 78.72134 180.33003
v -0.98916 52.71617 187.55432
v 0.00000 24.63222 199.29137
v 0.00000 55.78603 190.50555
v -0.00000 98.83984 183.50439
v -0.00000 82.05373 186.08328
v -3.25478 120.30887 175.75128
v -0.00000 110.96039 183.05681
v -13.67913 128.62875 139.16762
v -11.08313 124.92348 155.36494
v 0.00000 217.85735 31.56632
v -42.01984 160.30138 -163.71599
v -42.43443 149.00470 -172.73438
v -46.38353 158.31763 -135.09039
v -47.96721 158.97134 -116.88769
v -47.96721 158.97134 -116.88769
v -48.63730 158.55333 -62.54458
v -44.66129 153.63669 -3.64652
v -40.03616 150.81917 24.93462
v -33.52420 145.59779 52.44635
v -22.43813 136.21318 99.76524
v -33.52420 145.59779 52.44635
v -5.16352 169.34525 182.52948
v -7.56645 150.26601 157.42047
v -0.00000 156.71004 154.88597
v -0.00000 174.25412 177.33417
v -0.00000 185.52856 208.41740
v -4.06816 180.81451 210.68546
v 0.00000 197.18738 244.98322
v -0.98127 175.49756 213.82893
v -1.95736 156.46156 193.00281
v -0.00000 171.40994 216.50807
v -0.00000 148.89017 198.80791
v -3.42115 133.82040 178.55461
v -0.00000 130.17984 186.20287
v -0.00000 118.86160 185.69655
v -10.15632 137.12445 156.73885
v -16.24191 140.43102 -230.18062
v -5.50570 141.37593 -240.92537
v -32.05049 148.34230 -203.63025
v -37.94767 148.41475 -188.45679
v 0.00000 224.81534 63.40430
v 0.00000 146.50122 -202.38817
v -27.55710 139.74664 -215.03365
v -34.28215 138.42871 -193.00233
v -0.00000 140.13785 -247.27611
v 0.00000 142.05296 -245.33224
v 0.00000 142.05296 -245.33224
v -0.00000 138.12860 -164.60873
v -44.59435 139.67871 -163.58270
v -27.55710 139.74664 -215.03365
v -34.28215 138.42871 -193.00233
v -49.42422 130.71439 -121.96880
v -63.46252 127.51515 -113.87080
v -69.45000 130.62524 -129.02284
v -49.40090 133.77150 -135.36572
v -72.42935 127.86884 -140.03903
v -47.64072 131.30899 -146.29915
v -68.66587 122.96519 -126.77139
v -62.26376 124.86234 -112.39169
v -49.22879 123.97720 -120.69543
v -48.22714 123.71100 -134.10707
v -47.17014 125.89305 -145.89001
v -72.77302 125.45587 -141.88615
v -49.22879 123.97720 -120.69543
v -62.26376 124.86234 -112.39169
v -144.05106 126.54356 -76.82772
v -141.33829 125.22960 -72.80460
v -144.58853 125.05505 -73.32195
v -146.98834 125.17660 -74.78506
v -147.86011 125.34705 -77.93610
v -147.04758 125.81394 -81.59076
v -143.11728 122.26543 -77.60397
v -147.50281 123.63905 -82.53386
v -148.65646 124.25909 -77.72314
v -147.71692 124.88068 -74.24027
v -144.83258 124.10132 -72.58868
v -140.99146 123.32281 -72.06250
v -147.86011 125.34705 -77.93610
v -95.42496 129.75571 -115.12247
v -85.65983 126.63297 -90.02876
v -100.06230 127.36813 -132.43178
v -95.52969 122.64749 -112.82634
v -84.91554 123.88780 -88.32861
v -100.78670 125.08235 -134.52017
v -84.91554 123.88780 -88.32861
v -116.71936 125.52023 -82.75756
v -121.11192 127.94559 -95.97026
v -125.36150 126.62910 -107.91036
v -116.14709 123.47812 -80.89807
v -120.87979 122.65973 -95.25242
v -126.04526 124.40449 -109.63718
v -116.14709 123.47812 -80.89807
v -140.99146 123.32281 -72.06250
v -144.83258 124.10132 -72.58868
v -146.98834 125.17660 -74.78506
v -147.71692 124.88068 -74.24027
v 13.46928 179.15477 -215.20399
v 9.64582 167.43596 -229.69339
v 4.73184 140.30545 -245.71727
v 18.74457 138.00349 -230.52116
v 30.72459 171.32750 -194.34418
v 27.42870 163.30080 -202.74525
v 27.13064 159.62189 -194.19249
v 33.90698 153.47191 -186.85876
v 30.62230 153.37411 -200.87230
v 35.04327 164.63971 -185.00981
v 13.62905 127.85365 -231.24135
v 18.98276 133.05280 -231.34409
v 5.93257 136.43105 -247.20938
v 4.83973 132.92648 -243.74925
v 46.06335 129.98059 -163.85211
v 37.09427 128.64641 -192.96317
v 29.44077 115.02148 -193.05968
v 36.85275 115.42390 -164.06140
v 21.80071 123.18909 -215.01646
v 6.62871 156.02965 -237.86252
v 6.77043 147.14716 -240.63225
v 15.62732 159.36992 -229.81419
v 17.79391 148.57306 -230.46039
v 22.07185 176.08508 54.19431
v 14.02651 159.85858 102.09876
v 19.99072 123.10394 97.73788
v 29.86842 128.56662 50.49210
v 25.78140 201.72372 -163.32005
v 32.16081 205.05391 -136.00085
v 28.59508 189.23883 -2.26498
v 25.20189 182.77097 26.32666
v 8.88112 197.74466 27.00201
v 44.84215 136.51859 -4.40094
v 48.00563 139.33691 -62.56220
v 36.69415 115.33422 -63.15331
v 28.47260 115.41329 -5.37701
v 31.27594 200.64972 -115.23783
v 30.49666 200.79689 -127.07137
v 39.10865 182.00989 -129.94412
v 40.01875 182.56010 -116.19335
v 30.33858 170.52441 -194.33936
v 27.09513 162.73541 -201.87331
v 33.48609 160.95985 -194.07486
v 29.20215 153.43202 -200.63202
v 32.70042 153.85298 -188.06877
v 33.90866 164.04504 -185.77524
v 17.90785 193.39778 -194.49156
v 34.86198 126.66941 28.25049
v 29.86842 128.56662 50.49210
v 40.33722 138.30415 24.51978
v 18.74457 138.00349 -230.52116
v 28.75431 130.37277 -215.08136
v 28.01732 136.10297 -215.01503
v 41.48263 181.69472 -136.76642
v 35.84733 181.23735 -163.13167
v 41.65999 129.97919 19.77603
v 42.97192 133.76782 15.12881
v 92.37708 127.47155 16.53899
v 103.59647 126.64603 28.06835
v 91.08746 127.79947 24.99017
v 90.07854 126.45934 30.85729
v 40.83508 125.09089 21.07056
v 38.67243 121.53843 13.12810
v 89.72640 124.16267 32.81273
v 103.55631 124.33379 31.20191
v 102.86965 122.62006 27.67498
v 90.18012 121.98825 30.03438
v 39.83127 126.82088 4.37940
v 43.36797 130.81404 6.40720
v 93.00285 125.63372 14.05083
v 70.85915 128.12845 9.04134
v 71.03190 126.28833 6.55179
v 89.72640 124.16267 32.81273
v 103.55631 124.33379 31.20191
v 68.44810 126.64385 29.72196
v 68.14815 124.28540 32.04774
v 68.14815 124.28540 32.04774
v 68.33336 122.55810 28.43699
v 104.77303 124.79258 24.75708
v 38.73932 116.17139 -135.43036
v 90.23824 123.02085 20.86119
v 69.13929 123.03194 16.56695
v 12.51914 116.24397 27.68874
v 37.63411 118.44612 -118.56386
v 37.63411 118.44612 -118.56386
v 21.89734 116.22067 12.86191
v 107.35331 124.55431 29.10034
v 69.23151 129.10043 19.86338
v 52.43088 130.71671 15.88249
v 42.97192 133.76782 15.12881
v 43.36797 130.81404 6.40720
v 53.73683 129.43042 6.97361
v 51.07874 128.12357 21.15535
v 41.65999 129.97919 19.77603
v 50.86266 125.32803 22.49706
v 40.83508 125.09089 21.07056
v 54.00218 126.63737 4.75743
v 52.89429 122.55091 14.73450
v 39.83127 126.82088 4.37940
v 38.67243 121.53843 13.12810
v 50.86266 125.32803 22.49706
v 107.35331 124.55431 29.10034
v 28.01732 136.10297 -215.01503
v 31.27594 200.64972 -115.23783
v 40.01875 182.56010 -116.19335
v 41.13625 180.83499 -62.24072
v 32.13871 197.82405 -61.88083
v 38.45061 171.98682 -2.60644
v 34.92676 167.09732 25.78590
v 16.24191 140.43102 -230.18062
v 5.50570 141.37593 -240.92537
v 28.65409 161.90636 54.37123
v 18.66561 150.03011 101.68206
v 25.14432 177.87834 -194.40366
v 17.95249 167.25749 -214.99809
v 21.57560 154.42921 -215.15366
v 10.35013 117.11507 136.06119
v 44.58437 130.60031 -117.11710
v 48.08244 137.00400 -117.11300
v 49.42377 130.71597 -121.96902
v 49.22931 123.97885 -120.69517
v 48.22770 123.71155 -134.10678
v 47.17040 125.89261 -145.88989
v 47.14244 142.31895 -135.48355
v 49.40003 133.77213 -135.36615
v 47.64021 131.30859 -146.29941
v 44.59435 139.67871 -163.58270
v 44.58437 130.60031 -117.11710
v 48.08244 137.00400 -117.11300
v 3.12686 212.54393 39.73859
v 28.65409 161.90636 54.37123
v 22.07185 176.08508 54.19431
v 40.83508 125.09089 21.07056
v 7.95539 148.17392 140.27322
v 35.06266 135.95601 -192.95886
v 44.59435 139.67871 -163.58270
v 26.91229 148.27707 -215.12436
v 4.73184 140.30545 -245.71727
v 35.06266 135.95601 -192.95886
v 11.29011 139.90662 139.73331
v 5.51280 70.49728 163.38818
v 7.59645 99.62308 150.34096
v 2.57056 45.12708 178.81409
v 0.90193 78.72134 180.33003
v 3.26705 98.43774 176.72693
v 0.98916 52.71617 187.55432
v 3.25478 120.30887 175.75128
v 13.67913 128.62875 139.16762
v 11.08313 124.92348 155.36494
v 42.43443 149.00470 -172.73438
v 42.01984 160.30138 -163.71599
v 46.38353 158.31763 -135.09039
v 47.96721 158.97134 -116.88769
v 47.96721 158.97134 -116.88769
v 48.63730 158.55333 -62.54458
v 44.66129 153.63669 -3.64652
v 40.03616 150.81917 24.93462
v 33.52420 145.59779 52.44635
v 22.43813 136.21318 99.76524
v 33.52420 145.59779 52.44635
v 5.16352 169.34526 182.52948
v 7.56645 150.26601 157.42047
v 4.06816 180.81451 210.68546
v 1.95736 156.46156 193.00281
v 0.98127 175.49756 213.82893
v 3.42115 133.82040 178.55461
v 10.15632 137.12445 156.73885
v 5.50570 141.37593 -240.92537
v 16.24191 140.43102 -230.18062
v 32.05049 148.34230 -203.63025
v 37.94767 148.41475 -188.45679
v 34.28215 138.42871 -193.00233
v 27.55710 139.74664 -215.03365
v 44.59435 139.67871 -163.58270
v 27.55710 139.74664 -215.03365
v 34.28215 138.42871 -193.00233
v 49.42377 130.71597 -121.96902
v 49.40003 133.77213 -135.36615
v 69.44897 130.63470 -129.02333
v 63.46254 127.52518 -113.87076
v 47.64021 131.30859 -146.29941
v 72.42929 127.87743 -140.03903
v 68.66747 122.97478 -126.77055
v 48.22770 123.71155 -134.10678
v 49.22931 123.97885 -120.69517
v 62.26468 124.87221 -112.39119
v 72.77379 125.46426 -141.88574
v 47.17040 125.89261 -145.88989
v 49.22931 123.97885 -120.69517
v 62.26468 124.87221 -112.39119
v 144.05151 126.61687 -76.82713
v 146.98958 125.25215 -74.78406
v 144.58983 125.12967 -73.32093
v 141.33949 125.30251 -72.80363
v 147.04846 125.88759 -81.58995
v 147.86124 125.42220 -77.93514
v 143.12019 122.33798 -77.60214
v 147.71832 124.95682 -74.23918
v 148.65823 124.33475 -77.72187
v 147.50493 123.71268 -82.53241
v 140.99374 123.39574 -72.06099
v 144.83443 124.17628 -72.58738
v 147.86124 125.42220 -77.93514
v 95.42404 129.78096 -115.12280
v 85.66016 126.65939 -90.02847
v 100.06242 127.39169 -132.43161
v 84.91702 123.91428 -88.32775
v 95.53173 122.67326 -112.82520
v 100.78777 125.10577 -134.51953
v 84.91702 123.91428 -88.32775
v 121.11169 127.99211 -95.97014
v 116.72028 125.56785 -82.75687
v 125.36192 126.67476 -107.90993
v 116.14899 123.52590 -80.89689
v 120.88212 122.70631 -95.25102
v 126.04678 124.45007 -109.63620
v 116.14899 123.52590 -80.89689
v 140.99374 123.39574 -72.06099
v 144.83443 124.17628 -72.58738
v 146.98958 125.25215 -74.78406
v 147.71832 124.95682 -74.23918
vt 0.604982 0.401877
vt 0.547401 0.377008
vt 0.530246 0.405442
vt 0.583995 0.443216
vt 0.087490 0.392923
vt 0.059962 0.393321
vt 0.019999 0.266711
vt 0.097535 0.345305
vt 0.685376 0.337030
vt 0.680350 0.323244
vt 0.658303 0.324371
vt 0.692798 0.304059
vt 0.670566 0.309823
vt 0.705551 0.314710
vt 0.563161 0.075469
vt 0.511356 0.059808
vt 0.503855 0.068197
vt 0.558629 0.098212
vt 0.802212 0.197817
vt 0.810476 0.139552
vt 0.715503 0.111284
vt 0.698717 0.159464
vt 0.632834 0.093762
vt 0.628655 0.025008
vt 0.554296 0.033718
vt 0.715636 0.018707
vt 0.508551 0.360827
vt 0.488574 0.374616
vt 0.492657 0.336744
vt 0.467370 0.348473
vt 0.554380 0.354877
vt 0.546496 0.321981
vt 0.161177 0.015716
vt 0.087856 0.020561
vt 0.153558 0.165876
vt 0.196037 0.155865
vt 0.301294 0.155579
vt 0.363445 0.165462
vt 0.394208 0.045486
vt 0.304052 0.025881
vt 0.886233 0.560487
vt 0.898155 0.456944
vt 0.800778 0.453068
vt 0.780200 0.537594
vt 0.745580 0.845001
vt 0.769222 0.926800
vt 0.858502 0.879756
vt 0.838668 0.825363
vt 0.730083 0.696559
vt 0.731476 0.637723
vt 0.502688 0.644515
vt 0.505240 0.699981
vt 0.975212 0.452093
vt 0.973291 0.385881
vt 0.928614 0.385175
vt 0.935284 0.453564
vt 0.504938 0.248006
vt 0.489381 0.207457
vt 0.539581 0.191477
vt 0.498190 0.154191
vt 0.447814 0.174382
vt 0.440036 0.221975
vt 0.688632 0.429088
vt 0.666741 0.486670
vt 0.850289 0.670743
vt 0.819743 0.703764
vt 0.932193 0.667167
vt 0.549148 0.111589
vt 0.614710 0.141440
vt 0.625220 0.125533
vt 0.900656 0.380634
vt 0.803196 0.380806
vt 0.802030 0.684784
vt 0.790064 0.694057
vt 0.102188 0.844977
vt 0.093295 0.810234
vt 0.033930 0.827122
vt 0.086760 0.784895
vt 0.783644 0.664596
vt 0.804378 0.674280
vt 0.073427 0.936853
vt 0.080429 0.921499
vt 0.033903 0.876716
vt 0.020061 0.889668
vt 0.759396 0.670879
vt 0.767317 0.683833
vt 0.103754 0.855247
vt 0.205041 0.861768
vt 0.203760 0.849834
vt 0.081810 0.771307
vt 0.024165 0.811377
vt 0.186982 0.757828
vt 0.184024 0.742041
vt 0.175336 0.975899
vt 0.180817 0.957703
vt 0.031449 0.851674
vt 0.909304 0.148631
vt 0.950611 0.033114
vt 0.818543 0.022356
vt 0.099291 0.886538
vt 0.197810 0.907732
vt 0.947749 0.583563
vt 0.861903 0.611228
vt 0.969826 0.156599
vt 0.371844 0.634219
vt 0.515241 0.547938
vt 0.384274 0.536108
vt 0.791676 0.624162
vt 0.013059 0.831343
vt 0.198012 0.802023
vt 0.280557 0.804511
vt 0.281983 0.848742
vt 0.330843 0.845420
vt 0.328866 0.801595
vt 0.325617 0.772465
vt 0.278447 0.774689
vt 0.323326 0.748196
vt 0.276998 0.759915
vt 0.280982 0.867948
vt 0.275052 0.919337
vt 0.343933 0.925612
vt 0.347346 0.872512
vt 0.272621 0.960217
vt 0.010538 0.868995
vt 0.101147 0.294337
vt 0.868928 0.578796
vt 0.741878 0.563256
vt 0.376638 0.877494
vt 0.511296 0.870069
vt 0.508135 0.817750
vt 0.374928 0.822983
vt 0.737774 0.793075
vt 0.828930 0.778521
vt 0.096683 0.344440
vt 0.052206 0.374090
vt 0.086333 0.393142
vt 0.204813 0.018197
vt 0.231325 0.156413
vt 0.682248 0.385155
vt 0.606005 0.369045
vt 0.600760 0.328358
vt 0.311577 0.269493
vt 0.343599 0.263932
vt 0.374898 0.966338
vt 0.518717 0.963135
vt 0.926749 0.558426
vt 0.973257 0.560007
vt 0.976913 0.204227
vt 0.950220 0.194961
vt 0.953631 0.214772
vt 0.973443 0.233436
vt 0.909811 0.186497
vt 0.869693 0.189956
vt 0.905738 0.223725
vt 0.904742 0.252162
vt 0.865594 0.210654
vt 0.795606 0.236180
vt 0.378152 0.673430
vt 0.375064 0.697478
vt 0.907113 0.938363
vt 0.960147 0.923317
vt 0.960343 0.856842
vt 0.941607 0.796899
vt 0.939927 0.759483
vt 0.322659 0.964763
vt 0.190001 0.272907
vt 0.214061 0.272154
vt 0.103507 0.224359
vt 0.032536 0.126959
vt 0.123823 0.183056
vt 0.601764 0.303155
vt 0.496181 0.047962
vt 0.492402 0.076872
vt 0.687739 0.182858
vt 0.487601 0.056189
vt 0.479592 0.065030
vt 0.240730 0.271481
vt 0.376295 0.303586
vt 0.351697 0.321335
vt 0.424350 0.373570
vt 0.442225 0.357180
vt 0.494686 0.438857
vt 0.512189 0.424691
vt 0.340560 0.393040
vt 0.391064 0.418862
vt 0.462048 0.462881
vt 0.526519 0.502443
vt 0.444757 0.473582
vt 0.335907 0.413250
vt 0.373527 0.434770
vt 0.281791 0.382969
vt 0.304228 0.408514
vt 0.275241 0.272263
vt 0.279191 0.320786
vt 0.870120 0.969256
vt 0.799994 0.310365
vt 0.766313 0.270373
vt 0.908121 0.305975
vt 0.969531 0.305800
vt 0.371581 0.757054
vt 0.505437 0.755481
vt 0.731173 0.742437
vt 0.822837 0.735308
vt 0.935182 0.714018
vt 0.262002 0.155572
vt 0.254564 0.020000
vt 0.137686 0.390852
vt 0.205124 0.321744
vt 0.178807 0.310837
vt 0.125578 0.365880
vt 0.053344 0.480586
vt 0.073980 0.491378
vt 0.043517 0.539651
vt 0.093085 0.508036
vt 0.169695 0.415264
vt 0.105063 0.516430
vt 0.191093 0.443052
vt 0.243047 0.384788
vt 0.251146 0.409393
vt 0.281164 0.417614
vt 0.243670 0.320518
vt 0.533216 0.298905
vt 0.480760 0.321302
vt 0.645602 0.292893
vt 0.704577 0.278513
vt 0.991416 0.987625
vt 0.020808 0.267973
vt 0.101590 0.294457
vt 0.102718 0.225196
vt 0.078802 0.410649
vt 0.079490 0.409484
vt 0.458056 0.331269
vt 0.025788 0.150293
vt 0.124796 0.183409
vt 0.594493 0.277023
vt 0.675884 0.252389
vt 0.306565 0.506518
vt 0.262888 0.519165
vt 0.282215 0.552088
vt 0.334120 0.527728
vt 0.296434 0.576358
vt 0.358566 0.546928
vt 0.310129 0.621366
vt 0.326164 0.654669
vt 0.361268 0.628272
vt 0.363177 0.595084
vt 0.364351 0.562814
vt 0.299622 0.585269
vt 0.294525 0.495324
vt 0.260668 0.511566
vt 0.058958 0.645272
vt 0.053497 0.634842
vt 0.049565 0.641914
vt 0.049150 0.648796
vt 0.054754 0.654820
vt 0.064596 0.658426
vt 0.070053 0.679474
vt 0.069639 0.663530
vt 0.059021 0.669853
vt 0.053427 0.677583
vt 0.056369 0.685594
vt 0.063326 0.692993
vt 0.056765 0.667652
vt 0.207731 0.570987
vt 0.174530 0.530087
vt 0.232282 0.602774
vt 0.239786 0.659688
vt 0.245684 0.719359
vt 0.235933 0.614016
vt 0.170446 0.523781
vt 0.107542 0.588149
vt 0.129619 0.611751
vt 0.149714 0.633424
vt 0.139647 0.711930
vt 0.147752 0.676485
vt 0.154075 0.640641
vt 0.102489 0.583407
vt 0.049446 0.631815
vt 0.046404 0.641312
vt 0.051967 0.675387
vt 0.046675 0.649461
vt 0.604982 0.401877
vt 0.547401 0.377008
vt 0.087490 0.392923
vt 0.097535 0.345305
vt 0.685376 0.337030
vt 0.658303 0.324371
vt 0.680350 0.323244
vt 0.692798 0.304059
vt 0.670566 0.309823
vt 0.705551 0.314710
vt 0.563161 0.075469
vt 0.558629 0.098212
vt 0.503855 0.068197
vt 0.511356 0.059808
vt 0.802212 0.197817
vt 0.698717 0.159464
vt 0.715503 0.111284
vt 0.810476 0.139552
vt 0.632834 0.093762
vt 0.508551 0.360827
vt 0.492657 0.336744
vt 0.554380 0.354877
vt 0.546496 0.321981
vt 0.161177 0.015716
vt 0.196037 0.155865
vt 0.301294 0.155579
vt 0.304052 0.025881
vt 0.800778 0.453068
vt 0.898155 0.456944
vt 0.745580 0.845001
vt 0.838668 0.825363
vt 0.858502 0.879756
vt 0.730083 0.696559
vt 0.505240 0.699981
vt 0.502688 0.644515
vt 0.731476 0.637723
vt 0.975212 0.452093
vt 0.935284 0.453564
vt 0.928614 0.385175
vt 0.973291 0.385881
vt 0.504938 0.248006
vt 0.539581 0.191477
vt 0.489381 0.207457
vt 0.498190 0.154191
vt 0.447814 0.174382
vt 0.440036 0.221975
vt 0.688632 0.429088
vt 0.850289 0.670743
vt 0.932193 0.667167
vt 0.819743 0.703764
vt 0.549148 0.111589
vt 0.625220 0.125533
vt 0.614710 0.141440
vt 0.900656 0.380634
vt 0.803196 0.380806
vt 0.802030 0.684784
vt 0.790064 0.694057
vt 0.102188 0.844977
vt 0.033930 0.827122
vt 0.093295 0.810234
vt 0.086760 0.784895
vt 0.804378 0.674280
vt 0.783644 0.664596
vt 0.073427 0.936853
vt 0.020061 0.889668
vt 0.033903 0.876716
vt 0.080429 0.921499
vt 0.759396 0.670879
vt 0.767317 0.683833
vt 0.103754 0.855247
vt 0.203760 0.849834
vt 0.205041 0.861768
vt 0.081810 0.771307
vt 0.024165 0.811377
vt 0.186982 0.757828
vt 0.184024 0.742041
vt 0.175336 0.975899
vt 0.180817 0.957703
vt 0.031449 0.851674
vt 0.909304 0.148631
vt 0.099291 0.886538
vt 0.197810 0.907732
vt 0.861903 0.611228
vt 0.969826 0.156599
vt 0.371844 0.634219
vt 0.791676 0.624162
vt 0.013059 0.831343
vt 0.198012 0.802023
vt 0.280557 0.804511
vt 0.328866 0.801595
vt 0.330843 0.845420
vt 0.281983 0.848742
vt 0.278447 0.774689
vt 0.325617 0.772465
vt 0.276998 0.759915
vt 0.323326 0.748196
vt 0.280982 0.867948
vt 0.275052 0.919337
vt 0.347346 0.872512
vt 0.343933 0.925612
vt 0.272621 0.960217
vt 0.010538 0.868995
vt 0.101147 0.294337
vt 0.376638 0.877494
vt 0.374928 0.822983
vt 0.508135 0.817750
vt 0.511296 0.870069
vt 0.737774 0.793075
vt 0.828930 0.778521
vt 0.096683 0.344440
vt 0.086333 0.393142
vt 0.204813 0.018197
vt 0.231325 0.156413
vt 0.682248 0.385155
vt 0.606005 0.369045
vt 0.600760 0.328358
vt 0.311577 0.269493
vt 0.976913 0.204227
vt 0.973443 0.233436
vt 0.953631 0.214772
vt 0.950220 0.194961
vt 0.909811 0.186497
vt 0.869693 0.189956
vt 0.904742 0.252162
vt 0.905738 0.223725
vt 0.865594 0.210654
vt 0.795606 0.236180
vt 0.378152 0.673430
vt 0.375064 0.697478
vt 0.907113 0.938363
vt 0.939927 0.759483
vt 0.941607 0.796899
vt 0.322659 0.964763
vt 0.214061 0.272154
vt 0.103507 0.224359
vt 0.123823 0.183056
vt 0.601764 0.303155
vt 0.492402 0.076872
vt 0.687739 0.182858
vt 0.240730 0.271481
vt 0.424350 0.373570
vt 0.351697 0.321335
vt 0.494686 0.438857
vt 0.391064 0.418862
vt 0.340560 0.393040
vt 0.462048 0.462881
vt 0.281791 0.382969
vt 0.275241 0.272263
vt 0.279191 0.320786
vt 0.766313 0.270373
vt 0.799994 0.310365
vt 0.908121 0.305975
vt 0.969531 0.305800
vt 0.371581 0.757054
vt 0.505437 0.755481
vt 0.731173 0.742437
vt 0.822837 0.735308
vt 0.935182 0.714018
vt 0.262002 0.155572
vt 0.254564 0.020000
vt 0.137686 0.390852
vt 0.205124 0.321744
vt 0.073980 0.491378
vt 0.169695 0.415264
vt 0.093085 0.508036
vt 0.243047 0.384788
vt 0.243670 0.320518
vt 0.480760 0.321302
vt 0.533216 0.298905
vt 0.645602 0.292893
vt 0.704577 0.278513
vt 0.102718 0.225196
vt 0.101590 0.294457
vt 0.124796 0.183409
vt 0.594493 0.277023
vt 0.675884 0.252389
vt 0.306565 0.506518
vt 0.334120 0.527728
vt 0.282215 0.552088
vt 0.262888 0.519165
vt 0.358566 0.546928
vt 0.296434 0.576358
vt 0.310129 0.621366
vt 0.363177 0.595084
vt 0.361268 0.628272
vt 0.326164 0.654669
vt 0.299622 0.585269
vt 0.364351 0.562814
vt 0.294525 0.495324
vt 0.260668 0.511566
vt 0.058958 0.645272
vt 0.049150 0.648796
vt 0.049565 0.641914
vt 0.053497 0.634842
vt 0.064596 0.658426
vt 0.054754 0.654820
vt 0.070053 0.679474
vt 0.053427 0.677583
vt 0.059021 0.669853
vt 0.069639 0.663530
vt 0.063326 0.692993
vt 0.056369 0.685594
vt 0.056765 0.667652
vt 0.207731 0.570987
vt 0.174530 0.530087
vt 0.232282 0.602774
vt 0.245684 0.719359
vt 0.239786 0.659688
vt 0.235933 0.614016
vt 0.170446 0.523781
vt 0.129619 0.611751
vt 0.107542 0.588149
vt 0.149714 0.633424
vt 0.139647 0.711930
vt 0.147752 0.676485
vt 0.154075 0.640641
vt 0.102489 0.583407
vt 0.049446 0.631815
vt 0.046404 0.641312
vt 0.051967 0.675387
vt 0.046675 0.649461
vn -0.61319 0.56059 -0.55654
vn -0.41482 0.54798 -0.72639
vn -0.00000 0.69532 -0.71870
vn -0.00000 0.77749 -0.62890
vn 0.37075 0.84505 0.38527
vn 0.00000 0.87596 0.48238
vn 0.00000 0.99311 0.11722
vn 0.19086 0.94388 0.26956
vn -0.89610 0.21474 -0.38844
vn -0.94935 0.10006 -0.29785
vn -0.93265 0.14733 -0.32933
vn -0.82367 0.41992 -0.38111
vn -0.83579 0.47960 -0.26728
vn -0.88401 0.05519 -0.46421
vn -0.34939 -0.80400 -0.48116
vn -0.25918 -0.80312 -0.53650
vn -0.45715 -0.22659 -0.86004
vn -0.77058 -0.21163 -0.60118
vn -0.95394 -0.23027 -0.19229
vn -0.59800 -0.79503 -0.10158
vn -0.55422 -0.78696 -0.27118
vn -0.93003 -0.12221 -0.34657
vn -0.47381 -0.76975 -0.42777
vn 0.00000 -0.93273 -0.36058
vn 0.00000 -0.90717 -0.42076
vn -0.00000 -0.94828 -0.31744
vn -0.46557 0.35562 -0.81042
vn -0.00000 0.47065 -0.88232
vn -0.59331 0.10511 -0.79808
vn 0.00000 0.28265 -0.95922
vn -0.76931 0.31505 -0.55579
vn -0.81110 0.13801 -0.56840
vn -0.66933 0.66954 0.32203
vn -0.00000 0.81751 0.57591
vn 0.00000 0.92303 0.38472
vn -0.65696 0.68003 0.32551
vn -0.75463 -0.65024 0.08784
vn -0.00000 -0.99913 -0.04181
vn 0.00000 -0.99754 0.07006
vn -0.78656 -0.58702 0.19162
vn -0.00000 0.99953 -0.03071
vn -0.63642 0.75849 0.14024
vn -0.65961 0.70429 -0.26248
vn -0.00000 0.95392 -0.30005
vn -0.69724 0.69996 0.15464
vn 0.00000 0.99979 -0.02044
vn -0.78897 0.57023 0.22882
vn -0.77595 0.59029 0.22240
vn -0.96199 -0.27240 0.01937
vn -0.51206 -0.85891 0.00758
vn -0.72066 -0.69289 0.02364
vn -0.97888 -0.20290 0.02486
vn -0.77904 0.62672 -0.01778
vn -0.93285 0.35744 -0.04491
vn -0.93085 0.35629 0.08109
vn -0.70596 0.68770 0.16937
vn -0.88108 0.27939 -0.38163
vn -0.93806 0.04538 -0.34349
vn -0.78088 0.16740 -0.60183
vn -0.88587 -0.11196 -0.45022
vn -0.96813 -0.21525 -0.12806
vn -0.99155 0.09670 -0.08643
vn -0.57284 0.68702 -0.44705
vn 0.00000 0.87516 -0.48384
vn -0.61388 -0.66683 0.42248
vn -0.96332 -0.05930 0.26171
vn -0.78656 -0.58702 0.19162
vn -0.82255 0.12894 -0.55388
vn -0.90976 0.16649 -0.38028
vn -0.86361 -0.19887 -0.46327
vn -0.94551 0.32491 0.02090
vn -0.87171 0.40740 -0.27231
vn -0.57081 0.35969 0.73811
vn -0.86216 0.45960 0.21319
vn -0.22651 0.94046 -0.25344
vn -0.03934 0.99085 0.12907
vn -0.24748 0.93696 0.24669
vn -0.03831 0.85257 0.52120
vn -0.31203 -0.94483 0.09965
vn -0.17510 -0.48597 0.85625
vn -0.07564 0.07253 0.99449
vn -0.01800 -0.95096 0.30878
vn -0.22215 -0.97018 0.09695
vn -0.31313 -0.10244 0.94417
vn -0.53235 -0.52166 -0.66669
vn -0.73547 0.49676 -0.46077
vn -0.46484 0.19323 -0.86405
vn -0.15732 -0.65435 -0.73965
vn -0.13892 0.87716 -0.45967
vn -0.07564 0.07253 0.99449
vn -0.31313 -0.10244 0.94417
vn 0.11969 0.82150 0.55751
vn 0.22331 -0.37601 0.89930
vn 0.22331 -0.37601 0.89930
vn 0.09430 -0.98299 0.15763
vn -0.72840 -0.06108 -0.68243
vn -0.47428 -0.87756 0.07035
vn -0.00000 -0.99959 0.02868
vn -0.00000 -0.99600 -0.08939
vn -0.08479 -0.96718 -0.23953
vn -0.04121 -0.98461 -0.16986
vn 0.00000 -0.99754 0.07006
vn -0.32334 -0.93299 0.15806
vn -0.50698 -0.84264 0.18144
vn -0.50698 -0.84264 0.18144
vn 0.00000 -0.99976 0.02192
vn -0.00000 -0.99959 0.02868
vn -0.28079 -0.93721 0.20687
vn -0.96811 -0.08618 0.23522
vn -0.04121 0.99518 0.08898
vn -0.15338 0.97115 0.18261
vn -0.11409 0.84846 -0.51682
vn -0.73547 0.49676 -0.46077
vn -0.86216 0.45960 0.21319
vn -0.57081 0.35969 0.73811
vn 0.09907 0.71004 0.69716
vn -0.17510 -0.48597 0.85625
vn 0.35686 -0.31318 0.88010
vn -0.09147 0.06845 -0.99345
vn 0.00173 -0.99690 -0.07869
vn -0.31203 -0.94483 0.09965
vn -0.53235 -0.52166 -0.66669
vn 0.35686 -0.31318 0.88010
vn -0.96811 -0.08618 0.23522
vn 0.25075 0.95262 0.17213
vn 0.00000 -0.99454 0.10436
vn 0.00000 -0.99361 0.11285
vn -0.77904 0.62672 -0.01778
vn -0.65253 0.75444 0.07083
vn -0.90718 0.41740 0.05299
vn -0.93285 0.35744 -0.04491
vn -0.90202 0.40671 0.14471
vn -0.89719 0.38617 0.21428
vn 0.22781 -0.96704 0.11372
vn 0.00000 -0.99006 0.14066
vn 0.25172 -0.95313 0.16787
vn -0.90375 0.33226 0.26990
vn -0.91409 0.30772 0.26410
vn -0.78744 0.45570 -0.41507
vn -0.83144 0.32637 -0.44965
vn -0.83525 0.35498 -0.41993
vn -0.71794 -0.67715 -0.16136
vn 0.00000 -0.81081 -0.58531
vn -0.00000 0.99994 -0.01086
vn 0.00000 0.99387 0.11059
vn -0.00000 0.96987 0.24363
vn -0.00000 0.99994 -0.01086
vn -0.82169 -0.36772 0.43543
vn -0.11125 -0.57041 0.81379
vn -0.51714 0.51464 0.68390
vn -0.99410 -0.05329 0.09449
vn -0.38300 -0.92189 -0.05851
vn -0.71961 -0.56354 -0.40569
vn -0.77640 0.62888 -0.04149
vn -0.98503 0.15035 -0.08428
vn -0.77044 0.46807 -0.43282
vn -0.97646 0.08490 -0.19830
vn -0.82169 -0.36772 0.43543
vn -0.99410 -0.05329 0.09449
vn -0.96586 0.25792 0.02442
vn 0.00000 0.03264 0.99947
vn -0.00000 0.81751 0.57591
vn -0.66933 0.66954 0.32203
vn -0.90375 0.33226 0.26990
vn -0.17510 -0.48597 0.85625
vn 0.00000 0.99614 0.08776
vn -0.75532 0.63587 0.15865
vn 0.15798 0.98272 -0.09648
vn 0.00000 0.98141 -0.19192
vn 0.03185 0.99280 -0.11548
vn -0.83787 0.27712 -0.47030
vn -0.00000 -0.72974 -0.68372
vn -0.61017 0.34590 -0.71277
vn -0.91595 0.25476 -0.31007
vn 0.00000 -0.08350 -0.99651
vn 0.00000 0.38868 -0.92137
vn -0.96047 0.22836 0.15924
vn -0.00000 -0.47790 -0.87841
vn -0.94537 -0.26768 -0.18605
vn -0.95216 -0.19499 -0.23529
vn 0.00000 -0.50643 -0.86228
vn -0.98129 -0.17711 -0.07547
vn 0.00000 -0.66969 -0.74264
vn -0.94893 -0.04970 0.31156
vn -0.97421 0.00872 0.22546
vn -0.97807 0.04169 0.20406
vn 0.00000 -0.91628 0.40054
vn -0.00000 0.21729 0.97611
vn 0.00000 0.02020 0.99980
vn 0.00000 0.19323 0.98115
vn -0.93108 -0.03315 0.36330
vn -0.00000 -0.11507 0.99336
vn -0.98586 -0.09410 0.13868
vn -0.97437 -0.01305 0.22457
vn -0.00000 0.96213 -0.27258
vn -0.95776 0.21331 -0.19286
vn -0.93517 0.20264 -0.29051
vn -0.98601 0.16062 -0.04467
vn -0.99126 0.12548 -0.04079
vn -0.99126 0.12548 -0.04079
vn -0.97834 0.20382 0.03603
vn -0.98327 0.13105 0.12653
vn -0.96023 0.17036 0.22120
vn -0.96604 0.04635 0.25422
vn -0.97566 -0.00120 0.21930
vn -0.96604 0.04635 0.25422
vn -0.95792 0.26574 -0.10847
vn -0.91797 0.39661 -0.00565
vn -0.00000 0.86788 -0.49678
vn -0.00000 0.87729 -0.47996
vn -0.00000 0.94522 -0.32644
vn -0.99230 0.12159 0.02378
vn 0.00000 0.35896 0.93335
vn -0.95447 -0.23256 0.18681
vn -0.97508 -0.11363 0.19056
vn -0.00000 -0.66009 0.75118
vn -0.00000 -0.58843 0.80855
vn -0.95124 -0.02707 0.30726
vn 0.00000 -0.30098 0.95363
vn 0.00000 -0.18322 0.98307
vn -0.97319 0.11624 0.19847
vn -0.76375 -0.09987 -0.63773
vn -0.65722 -0.10613 -0.74619
vn -0.92151 0.13318 -0.36481
vn -0.92317 0.23523 -0.30402
vn 0.00000 0.96202 0.27299
vn 0.00000 -0.99997 -0.00710
vn 0.21311 -0.97539 0.05659
vn 0.12382 -0.99064 -0.05739
vn 0.00000 0.75110 0.66019
vn 0.00000 -0.98483 0.17353
vn -0.00000 0.00398 -0.99999
vn 0.00000 -0.99569 -0.09278
vn -0.03402 -0.99896 0.03052
vn -0.89858 0.00510 -0.43877
vn -0.93291 -0.15849 -0.32335
vn -0.51714 0.51464 0.68390
vn 0.29558 0.81573 0.49722
vn -0.10066 0.99470 -0.02086
vn -0.77640 0.62888 -0.04149
vn -0.19989 0.83745 -0.50864
vn -0.77044 0.46807 -0.43282
vn 0.00554 -0.99961 -0.02744
vn 0.59308 -0.42482 0.68395
vn -0.11125 -0.57041 0.81379
vn -0.38300 -0.92189 -0.05851
vn -0.71961 -0.56354 -0.40569
vn -0.22700 -0.28595 -0.93097
vn -0.11125 -0.57041 0.81379
vn 0.59308 -0.42482 0.68395
vn -0.15778 0.96993 0.18530
vn 0.06828 0.77463 0.62871
vn -0.17232 0.83236 0.52676
vn -0.23724 0.94138 0.23986
vn -0.53438 0.84248 0.06830
vn -0.58687 0.77157 -0.24548
vn -0.18544 -0.97563 0.11727
vn -0.66526 -0.67528 -0.31849
vn -0.99329 -0.11519 0.00992
vn -0.70612 0.42263 0.56814
vn -0.33970 -0.07594 0.93746
vn 0.03468 -0.46600 0.88410
vn -0.53438 0.84248 0.06830
vn -0.02396 0.99887 0.04102
vn 0.28948 0.79521 0.53277
vn -0.22191 0.87460 -0.43109
vn 0.00144 -0.99993 -0.01177
vn 0.45439 -0.47046 0.75644
vn -0.51689 -0.36810 -0.77287
vn 0.45439 -0.47046 0.75644
vn 0.10702 0.91545 0.38794
vn -0.02088 0.99808 0.05834
vn -0.37751 0.86564 -0.32887
vn 0.27415 -0.42563 0.86237
vn -0.03674 -0.99785 -0.05428
vn -0.67163 -0.43611 -0.59894
vn 0.27415 -0.42563 0.86237
vn 0.03468 -0.46600 0.88410
vn -0.33970 -0.07594 0.93746
vn -0.23724 0.94138 0.23986
vn -0.70612 0.42263 0.56814
vn 0.61319 0.56059 -0.55654
vn 0.41482 0.54798 -0.72639
vn -0.37075 0.84505 0.38527
vn -0.19086 0.94388 0.26956
vn 0.89610 0.21474 -0.38844
vn 0.93265 0.14733 -0.32933
vn 0.94935 0.10006 -0.29785
vn 0.82367 0.41992 -0.38111
vn 0.83579 0.47960 -0.26728
vn 0.88401 0.05519 -0.46421
vn 0.34939 -0.80400 -0.48116
vn 0.77058 -0.21163 -0.60118
vn 0.45715 -0.22659 -0.86004
vn 0.25918 -0.80312 -0.53650
vn 0.95395 -0.23025 -0.19228
vn 0.93003 -0.12221 -0.34657
vn 0.55422 -0.78696 -0.27118
vn 0.59800 -0.79504 -0.10158
vn 0.47381 -0.76975 -0.42777
vn 0.46557 0.35562 -0.81042
vn 0.59331 0.10511 -0.79808
vn 0.76931 0.31505 -0.55579
vn 0.81110 0.13801 -0.56840
vn 0.66933 0.66954 0.32203
vn 0.65696 0.68003 0.32551
vn 0.75463 -0.65024 0.08784
vn 0.78656 -0.58703 0.19162
vn 0.65961 0.70429 -0.26248
vn 0.63642 0.75849 0.14024
vn 0.69724 0.69996 0.15464
vn 0.77595 0.59029 0.22240
vn 0.78897 0.57023 0.22882
vn 0.96199 -0.27240 0.01937
vn 0.97888 -0.20290 0.02486
vn 0.72066 -0.69289 0.02364
vn 0.51207 -0.85891 0.00758
vn 0.77904 0.62672 -0.01778
vn 0.70596 0.68770 0.16937
vn 0.93085 0.35629 0.08109
vn 0.93285 0.35744 -0.04491
vn 0.88108 0.27939 -0.38163
vn 0.78088 0.16740 -0.60183
vn 0.93806 0.04538 -0.34349
vn 0.88587 -0.11196 -0.45022
vn 0.96813 -0.21525 -0.12806
vn 0.99155 0.09670 -0.08643
vn 0.57284 0.68702 -0.44705
vn 0.61388 -0.66683 0.42248
vn 0.78656 -0.58703 0.19162
vn 0.96332 -0.05930 0.26171
vn 0.82255 0.12894 -0.55388
vn 0.86361 -0.19887 -0.46327
vn 0.90976 0.16649 -0.38028
vn 0.94551 0.32491 0.02090
vn 0.87171 0.40740 -0.27231
vn 0.57081 0.35969 0.73811
vn 0.86216 0.45960 0.21319
vn 0.22651 0.94046 -0.25344
vn 0.24748 0.93696 0.24669
vn 0.03934 0.99085 0.12908
vn 0.03831 0.85257 0.52120
vn 0.17510 -0.48597 0.85625
vn 0.31203 -0.94483 0.09965
vn 0.07564 0.07253 0.99449
vn 0.31313 -0.10244 0.94417
vn 0.22215 -0.97018 0.09695
vn 0.01800 -0.95096 0.30878
vn 0.53235 -0.52166 -0.66669
vn 0.73547 0.49676 -0.46077
vn 0.46484 0.19323 -0.86405
vn 0.13892 0.87716 -0.45967
vn 0.15732 -0.65435 -0.73965
vn 0.07564 0.07253 0.99449
vn 0.31313 -0.10244 0.94417
vn -0.11969 0.82150 0.55751
vn -0.22331 -0.37601 0.89930
vn -0.22331 -0.37601 0.89930
vn -0.09430 -0.98299 0.15763
vn 0.72840 -0.06108 -0.68243
vn 0.47428 -0.87756 0.07035
vn 0.08479 -0.96718 -0.23953
vn 0.04121 -0.98461 -0.16986
vn 0.32334 -0.93299 0.15806
vn 0.50700 -0.84263 0.18145
vn 0.50700 -0.84263 0.18145
vn 0.28079 -0.93721 0.20687
vn 0.96811 -0.08618 0.23523
vn 0.04121 0.99518 0.08898
vn 0.15338 0.97115 0.18261
vn 0.86216 0.45960 0.21319
vn 0.73547 0.49676 -0.46077
vn 0.11409 0.84846 -0.51682
vn -0.09908 0.71004 0.69716
vn 0.57081 0.35969 0.73811
vn -0.35686 -0.31318 0.88010
vn 0.17510 -0.48597 0.85625
vn 0.09147 0.06845 -0.99345
vn -0.00173 -0.99690 -0.07869
vn 0.53235 -0.52166 -0.66669
vn 0.31203 -0.94483 0.09965
vn -0.35686 -0.31318 0.88010
vn 0.96811 -0.08618 0.23523
vn -0.25075 0.95262 0.17213
vn 0.77904 0.62672 -0.01778
vn 0.93285 0.35744 -0.04491
vn 0.90718 0.41740 0.05299
vn 0.65253 0.75444 0.07083
vn 0.90202 0.40671 0.14471
vn 0.89719 0.38617 0.21428
vn -0.22781 -0.96704 0.11372
vn -0.25172 -0.95313 0.16787
vn 0.90375 0.33226 0.26990
vn 0.91409 0.30772 0.26410
vn 0.78744 0.45570 -0.41507
vn 0.83144 0.32637 -0.44965
vn 0.83525 0.35498 -0.41993
vn 0.71794 -0.67715 -0.16136
vn 0.82171 -0.36771 0.43540
vn 0.99410 -0.05331 0.09446
vn 0.51702 0.51479 0.68388
vn 0.11142 -0.57036 0.81380
vn 0.38316 -0.92183 -0.05845
vn 0.71966 -0.56350 -0.40565
vn 0.98504 0.15031 -0.08428
vn 0.77632 0.62897 -0.04153
vn 0.77037 0.46811 -0.43290
vn 0.97646 0.08489 -0.19830
vn 0.82171 -0.36771 0.43540
vn 0.99410 -0.05331 0.09446
vn 0.96586 0.25792 0.02442
vn 0.90375 0.33226 0.26990
vn 0.66933 0.66954 0.32203
vn 0.17510 -0.48597 0.85625
vn 0.75532 0.63587 0.15865
vn -0.15798 0.98272 -0.09648
vn -0.03185 0.99280 -0.11548
vn 0.83787 0.27712 -0.47030
vn 0.61017 0.34590 -0.71277
vn 0.91595 0.25476 -0.31007
vn 0.96047 0.22836 0.15924
vn 0.95216 -0.19499 -0.23529
vn 0.94537 -0.26768 -0.18605
vn 0.98129 -0.17711 -0.07547
vn 0.97421 0.00872 0.22546
vn 0.94893 -0.04970 0.31156
vn 0.97807 0.04169 0.20406
vn 0.93108 -0.03315 0.36330
vn 0.98586 -0.09410 0.13868
vn 0.97437 -0.01305 0.22457
vn 0.93517 0.20264 -0.29051
vn 0.95776 0.21331 -0.19286
vn 0.98601 0.16062 -0.04467
vn 0.99126 0.12548 -0.04079
vn 0.99126 0.12548 -0.04079
vn 0.97834 0.20382 0.03603
vn 0.98327 0.13105 0.12653
vn 0.96023 0.17036 0.22120
vn 0.96604 0.04635 0.25422
vn 0.97566 -0.00120 0.21930
vn 0.96604 0.04635 0.25422
vn 0.95792 0.26574 -0.10847
vn 0.91797 0.39661 -0.00565
vn 0.99230 0.12159 0.02378
vn 0.97508 -0.11363 0.19056
vn 0.95447 -0.23256 0.18681
vn 0.95124 -0.02707 0.30726
vn 0.97319 0.11624 0.19847
vn 0.65722 -0.10613 -0.74619
vn 0.76375 -0.09987 -0.63773
vn 0.92151 0.13318 -0.36481
vn 0.92317 0.23523 -0.30402
vn -0.12382 -0.99064 -0.05739
vn -0.21311 -0.97539 0.05659
vn 0.03402 -0.99896 0.03052
vn 0.89858 0.00510 -0.43877
vn 0.93291 -0.15849 -0.32335
vn 0.51702 0.51479 0.68388
vn 0.77632 0.62897 -0.04153
vn 0.10022 0.99474 -0.02102
vn -0.29596 0.81571 0.49702
vn 0.77037 0.46811 -0.43290
vn 0.19956 0.83743 -0.50880
vn -0.00508 -0.99962 -0.02725
vn 0.38316 -0.92183 -0.05845
vn 0.11142 -0.57036 0.81380
vn -0.59288 -0.42493 0.68405
vn 0.22709 -0.28600 -0.93093
vn 0.71966 -0.56350 -0.40565
vn 0.11142 -0.57036 0.81380
vn -0.59288 -0.42493 0.68405
vn 0.15716 0.97010 0.18498
vn 0.23670 0.94158 0.23958
vn 0.17184 0.83261 0.52652
vn -0.06886 0.77479 0.62845
vn 0.58635 0.77187 -0.24577
vn 0.53389 0.84281 0.06806
vn 0.18611 -0.97547 0.11760
vn 0.70587 0.42320 0.56802
vn 0.99336 -0.11461 0.00995
vn 0.66573 -0.67494 -0.31821
vn -0.03434 -0.46576 0.88424
vn 0.33974 -0.07548 0.93749
vn 0.53389 0.84281 0.06806
vn 0.02340 0.99889 0.04076
vn -0.28991 0.79520 0.53255
vn 0.22145 0.87461 -0.43130
vn -0.45413 -0.47049 0.75657
vn -0.00088 -0.99993 -0.01150
vn 0.51706 -0.36801 -0.77280
vn -0.45413 -0.47049 0.75657
vn 0.02012 0.99812 0.05797
vn -0.10768 0.91550 0.38765
vn 0.37694 0.86578 -0.32916
vn -0.27383 -0.42555 0.86251
vn 0.03748 -0.99784 -0.05392
vn 0.67190 -0.43586 -0.59881
vn -0.27383 -0.42555 0.86251
vn -0.03434 -0.46576 0.88424
vn 0.33974 -0.07548 0.93749
vn 0.23670 0.94158 0.23958
vn 0.70587 0.42320 0.56802
f 180/180/180 182/182/182 183/183/183
f 180/180/180 181/181/181 178/178/178
f 186/186/186 182/182/182 180/180/180
f 230/230/230 6/6/6 5/5/5
f 7/7/7 8/8/8 5/5/5
f 5/5/5 6/6/6 7/7/7
f 230/230/230 284/284/284 6/6/6
f 7/7/7 6/6/6 284/284/284
f 284/284/284 285/285/285 7/7/7
f 285/285/285 384/384/384 7/7/7
f 384/384/384 416/416/416 7/7/7
f 169/169/169 7/7/7 416/416/416
f 416/416/416 417/417/417 169/169/169
f 168/168/168 7/7/7 169/169/169
f 125/125/125 7/7/7 168/168/168
f 8/8/8 7/7/7 125/125/125
f 169/169/169 170/170/170 168/168/168
f 238/238/238 237/237/237 249/249/249
f 239/239/239 240/240/240 237/237/237
f 237/237/237 238/238/238 239/239/239
f 265/265/265 238/238/238 250/250/250
f 238/238/238 265/265/265 264/264/264
f 264/264/264 239/239/239 238/238/238
f 249/249/249 250/250/250 238/238/238
f 239/239/239 264/264/264 266/266/266
f 266/266/266 241/241/241 239/239/239
f 242/242/242 240/240/240 239/239/239
f 239/239/239 241/241/241 242/242/242
f 264/264/264 272/272/272 273/273/273
f 273/273/273 266/266/266 264/264/264
f 271/271/271 272/272/272 264/264/264
f 470/470/470 458/458/458 461/461/461
f 460/460/460 461/461/461 458/458/458
f 458/458/458 459/459/459 460/460/460
f 461/461/461 471/471/471 470/470/470
f 471/471/471 461/461/461 486/486/486
f 461/461/461 460/460/460 485/485/485
f 485/485/485 486/486/486 461/461/461
f 460/460/460 463/463/463 487/487/487
f 487/487/487 485/485/485 460/460/460
f 462/462/462 463/463/463 460/460/460
f 460/460/460 459/459/459 462/462/462
f 485/485/485 487/487/487 494/494/494
f 494/494/494 492/492/492 485/485/485
f 493/493/493 486/486/486 485/485/485
f 369/369/369 352/352/352 339/339/339
f 339/339/339 341/341/341 369/369/369
f 360/360/360 340/340/340 339/339/339
f 339/339/339 351/351/351 360/360/360
f 351/351/351 339/339/339 352/352/352
f 339/339/339 340/340/340 341/341/341
f 374/374/374 370/370/370 369/369/369
f 369/369/369 356/356/356 374/374/374
f 369/369/369 370/370/370 373/373/373
f 373/373/373 352/352/352 369/369/369
f 356/356/356 369/369/369 341/341/341
f 378/378/378 353/353/353 352/352/352
f 352/352/352 373/373/373 378/378/378
f 352/352/352 353/353/353 351/351/351
f 208/208/208 167/167/167 166/166/166
f 166/166/166 209/209/209 208/208/208
f 177/177/177 167/167/167 208/208/208
f 167/167/167 177/177/177 138/138/138
f 208/208/208 221/221/221 177/177/177
f 218/218/218 221/221/221 208/208/208
f 208/208/208 207/207/207 215/215/215
f 215/215/215 218/218/218 208/208/208
f 207/207/207 208/208/208 209/209/209
f 209/209/209 443/443/443 442/442/442
f 442/442/442 210/210/210 209/209/209
f 209/209/209 210/210/210 207/207/207
f 214/214/214 215/215/215 207/207/207
f 110/110/110 76/76/76 75/75/75
f 75/75/75 89/89/89 110/110/110
f 96/96/96 87/87/87 75/75/75
f 75/75/75 77/77/77 96/96/96
f 89/89/89 75/75/75 87/87/87
f 75/75/75 76/76/76 77/77/77
f 116/116/116 92/92/92 110/110/110
f 110/110/110 111/111/111 116/116/116
f 110/110/110 89/89/89 112/112/112
f 112/112/112 111/111/111 110/110/110
f 76/76/76 110/110/110 92/92/92
f 92/92/92 78/78/78 76/76/76
f 76/76/76 78/78/78 77/77/77
f 118/118/118 93/93/93 92/92/92
f 485/485/485 492/492/492 493/493/493
f 498/498/498 491/491/491 486/486/486
f 486/486/486 493/493/493 498/498/498
f 486/486/486 491/491/491 471/471/471
f 498/498/498 493/493/493 475/475/475
f 475/475/475 493/493/493 492/492/492
f 492/492/492 494/494/494 476/476/476
f 476/476/476 472/472/472 492/492/492
f 492/492/492 472/472/472 475/475/475
f 476/476/476 494/494/494 497/497/497
f 494/494/494 487/487/487 490/490/490
f 490/490/490 497/497/497 494/494/494
f 497/497/497 481/481/481 476/476/476
f 264/264/264 265/265/265 271/271/271
f 277/277/277 271/271/271 265/265/265
f 265/265/265 270/270/270 277/277/277
f 250/250/250 270/270/270 265/265/265
f 252/252/252 271/271/271 277/277/277
f 272/272/272 271/271/271 252/252/252
f 272/272/272 251/251/251 256/256/256
f 256/256/256 273/273/273 272/272/272
f 252/252/252 251/251/251 272/272/272
f 276/276/276 273/273/273 256/256/256
f 273/273/273 276/276/276 269/269/269
f 269/269/269 266/266/266 273/273/273
f 256/256/256 258/258/258 276/276/276
f 119/119/119 112/112/112 89/89/89
f 120/120/120 119/119/119 88/88/88
f 89/89/89 88/88/88 119/119/119
f 87/87/87 88/88/88 89/89/89
f 88/88/88 101/101/101 120/120/120
f 88/88/88 87/87/87 100/100/100
f 100/100/100 101/101/101 88/88/88
f 100/100/100 87/87/87 96/96/96
f 96/96/96 83/83/83 100/100/100
f 95/95/95 101/101/101 100/100/100
f 100/100/100 82/82/82 95/95/95
f 83/83/83 82/82/82 100/100/100
f 120/120/120 101/101/101 95/95/95
f 362/362/362 351/351/351 353/353/353
f 360/360/360 351/351/351 362/362/362
f 353/353/353 378/378/378 379/379/379
f 379/379/379 363/363/363 353/353/353
f 353/353/353 363/363/363 362/362/362
f 380/380/380 378/378/378 373/373/373
f 379/379/379 378/378/378 380/380/380
f 373/373/373 372/372/372 380/380/380
f 372/372/372 373/373/373 370/370/370
f 380/380/380 381/381/381 379/379/379
f 414/414/414 382/382/382 379/379/379
f 379/379/379 381/381/381 414/414/414
f 359/359/359 363/363/363 379/379/379
f 134/134/134 228/228/228 227/227/227
f 227/227/227 135/135/135 134/134/134
f 134/134/134 135/135/135 136/136/136
f 227/227/227 228/228/228 229/229/229
f 453/453/453 227/227/227 233/233/233
f 391/391/391 135/135/135 227/227/227
f 227/227/227 454/454/454 391/391/391
f 227/227/227 453/453/453 454/454/454
f 233/233/233 227/227/227 229/229/229
f 135/135/135 392/392/392 231/231/231
f 391/391/391 392/392/392 135/135/135
f 135/135/135 231/231/231 136/136/136
f 233/233/233 455/455/455 453/453/453
f 229/229/229 234/234/234 233/233/233
f 92/92/92 116/116/116 118/118/118
f 90/90/90 78/78/78 92/92/92
f 92/92/92 93/93/93 90/90/90
f 117/117/117 118/118/118 116/116/116
f 116/116/116 115/115/115 117/117/117
f 115/115/115 116/116/116 111/111/111
f 111/111/111 114/114/114 115/115/115
f 113/113/113 114/114/114 111/111/111
f 111/111/111 112/112/112 113/113/113
f 122/122/122 113/113/113 112/112/112
f 112/112/112 119/119/119 122/122/122
f 122/122/122 119/119/119 120/120/120
f 120/120/120 121/121/121 122/122/122
f 207/207/207 212/212/212 214/214/214
f 211/211/211 212/212/212 207/207/207
f 207/207/207 210/210/210 211/211/211
f 219/219/219 218/218/218 215/215/215
f 215/215/215 217/217/217 219/219/219
f 215/215/215 214/214/214 216/216/216
f 216/216/216 217/217/217 215/215/215
f 213/213/213 216/216/216 214/214/214
f 214/214/214 212/212/212 213/213/213
f 212/212/212 211/211/211 213/213/213
f 444/444/444 213/213/213 211/211/211
f 211/211/211 210/210/210 442/442/442
f 442/442/442 444/444/444 211/211/211
f 147/147/147 146/146/146 319/319/319
f 319/319/319 318/318/318 147/147/147
f 335/335/335 320/320/320 319/319/319
f 319/319/319 310/310/310 335/335/335
f 318/318/318 319/319/319 320/320/320
f 335/335/335 310/310/310 309/309/309
f 309/309/309 310/310/310 41/41/41
f 41/41/41 44/44/44 309/309/309
f 43/43/43 44/44/44 41/41/41
f 328/328/328 309/309/309 44/44/44
f 44/44/44 64/64/64 328/328/328
f 320/320/320 335/335/335 433/433/433
f 321/321/321 320/320/320 433/433/433
f 320/320/320 321/321/321 318/318/318
f 433/433/433 434/434/434 321/321/321
f 400/400/400 434/434/434 433/433/433
f 433/433/433 405/405/405 400/400/400
f 408/408/408 405/405/405 433/433/433
f 297/297/297 296/296/296 408/408/408
f 408/408/408 420/420/420 297/297/297
f 407/407/407 408/408/408 296/296/296
f 405/405/405 408/408/408 407/407/407
f 407/407/407 406/406/406 405/405/405
f 400/400/400 405/405/405 406/406/406
f 406/406/406 401/401/401 400/400/400
f 399/399/399 400/400/400 401/401/401
f 401/401/401 402/402/402 399/399/399
f 402/402/402 365/365/365 399/399/399
f 365/365/365 402/402/402 403/403/403
f 403/403/403 361/361/361 365/365/365
f 361/361/361 98/98/98 365/365/365
f 299/299/299 361/361/361 403/403/403
f 403/403/403 404/404/404 299/299/299
f 98/98/98 361/361/361 299/299/299
f 299/299/299 99/99/99 98/98/98
f 97/97/97 104/104/104 98/98/98
f 98/98/98 99/99/99 20/20/20
f 20/20/20 97/97/97 98/98/98
f 296/296/296 299/299/299 404/404/404
f 99/99/99 299/299/299 298/298/298
f 298/298/298 299/299/299 296/296/296
f 404/404/404 407/407/407 296/296/296
f 296/296/296 297/297/297 298/298/298
f 298/298/298 26/26/26 99/99/99
f 300/300/300 298/298/298 297/297/297
f 426/426/426 428/428/428 430/430/430
f 423/423/423 426/426/426 430/430/430
f 423/423/423 430/430/430 429/429/429
f 429/429/429 440/440/440 307/307/307
f 307/307/307 398/398/398 429/429/429
f 429/429/429 398/398/398 423/423/423
f 441/441/441 440/440/440 394/394/394
f 308/308/308 307/307/307 440/440/440
f 440/440/440 441/441/441 308/308/308
f 398/398/398 307/307/307 38/38/38
f 39/39/39 38/38/38 307/307/307
f 307/307/307 308/308/308 39/39/39
f 423/423/423 398/398/398 143/143/143
f 38/38/38 143/143/143 398/398/398
f 38/38/38 37/37/37 142/142/142
f 142/142/142 143/143/143 38/38/38
f 37/37/37 38/38/38 39/39/39
f 39/39/39 40/40/40 37/37/37
f 193/193/193 142/142/142 37/37/37
f 37/37/37 205/205/205 193/193/193
f 205/205/205 37/37/37 40/40/40
f 179/179/179 142/142/142 193/193/193
f 143/143/143 142/142/142 179/179/179
f 143/143/143 178/178/178 423/423/423
f 179/179/179 178/178/178 143/143/143
f 179/179/179 194/194/194 184/184/184
f 193/193/193 194/194/194 179/179/179
f 185/185/185 180/180/180 179/179/179
f 179/179/179 184/184/184 185/185/185
f 480/480/480 484/484/484 476/476/476
f 476/476/476 481/481/481 480/480/480
f 472/472/472 476/476/476 477/477/477
f 477/477/477 473/473/473 472/472/472
f 474/474/474 475/475/475 472/472/472
f 472/472/472 473/473/473 474/474/474
f 474/474/474 473/473/473 502/502/502
f 502/502/502 500/500/500 474/474/474
f 475/475/475 474/474/474 500/500/500
f 500/500/500 499/499/499 475/475/475
f 475/475/475 499/499/499 498/498/498
f 479/479/479 501/501/501 484/484/484
f 484/484/484 480/480/480 479/479/479
f 259/259/259 258/258/258 256/256/256
f 256/256/256 263/263/263 259/259/259
f 255/255/255 256/256/256 251/251/251
f 251/251/251 254/254/254 255/255/255
f 253/253/253 254/254/254 251/251/251
f 251/251/251 252/252/252 253/253/253
f 281/281/281 254/254/254 253/253/253
f 253/253/253 279/279/279 281/281/281
f 279/279/279 253/253/253 252/252/252
f 252/252/252 278/278/278 279/279/279
f 277/277/277 278/278/278 252/252/252
f 260/260/260 259/259/259 263/263/263
f 263/263/263 280/280/280 260/260/260
f 314/314/314 315/315/315 316/316/316
f 317/317/317 316/316/316 106/106/106
f 409/409/409 366/366/366 316/316/316
f 106/106/106 316/316/316 366/366/366
f 316/316/316 317/317/317 314/314/314
f 106/106/106 127/127/127 317/317/317
f 127/127/127 367/367/367 317/317/317
f 349/349/349 314/314/314 317/317/317
f 344/344/344 349/349/349 317/317/317
f 317/317/317 367/367/367 344/344/344
f 366/366/366 107/107/107 106/106/106
f 50/50/50 127/127/127 106/106/106
f 106/106/106 51/51/51 50/50/50
f 106/106/106 107/107/107 105/105/105
f 105/105/105 51/51/51 106/106/106
f 158/158/158 51/51/51 105/105/105
f 52/52/52 51/51/51 158/158/158
f 51/51/51 52/52/52 49/49/49
f 49/49/49 50/50/50 51/51/51
f 127/127/127 50/50/50 108/108/108
f 85/85/85 50/50/50 49/49/49
f 257/257/257 260/260/260 261/261/261
f 259/259/259 260/260/260 257/257/257
f 258/258/258 257/257/257 275/275/275
f 257/257/257 262/262/262 274/274/274
f 274/274/274 275/275/275 257/257/257
f 261/261/261 262/262/262 257/257/257
f 257/257/257 258/258/258 259/259/259
f 275/275/275 276/276/276 258/258/258
f 276/276/276 275/275/275 267/267/267
f 267/267/267 275/275/275 274/274/274
f 274/274/274 268/268/268 267/267/267
f 267/267/267 269/269/269 276/276/276
f 269/269/269 267/267/267 243/243/243
f 267/267/267 268/268/268 244/244/244
f 244/244/244 243/243/243 267/267/267
f 266/266/266 269/269/269 248/248/248
f 243/243/243 248/248/248 269/269/269
f 248/248/248 243/243/243 246/246/246
f 245/245/245 246/246/246 243/243/243
f 243/243/243 244/244/244 245/245/245
f 248/248/248 241/241/241 266/266/266
f 483/483/483 479/479/479 478/478/478
f 478/478/478 479/479/479 480/480/480
f 478/478/478 482/482/482 483/483/483
f 496/496/496 478/478/478 481/481/481
f 478/478/478 496/496/496 495/495/495
f 495/495/495 482/482/482 478/478/478
f 480/480/480 481/481/481 478/478/478
f 481/481/481 497/497/497 496/496/496
f 489/489/489 496/496/496 497/497/497
f 495/495/495 496/496/496 489/489/489
f 489/489/489 488/488/488 495/495/495
f 497/497/497 490/490/490 489/489/489
f 464/464/464 489/489/489 490/490/490
f 489/489/489 464/464/464 467/467/467
f 467/467/467 488/488/488 489/489/489
f 468/468/468 490/490/490 487/487/487
f 490/490/490 468/468/468 464/464/464
f 465/465/465 464/464/464 468/468/468
f 466/466/466 467/467/467 464/464/464
f 464/464/464 465/465/465 466/466/466
f 487/487/487 463/463/463 468/468/468
f 355/355/355 340/340/340 368/368/368
f 340/340/340 355/355/355 354/354/354
f 354/354/354 342/342/342 340/340/340
f 341/341/341 340/340/340 342/342/342
f 354/354/354 357/357/357 356/356/356
f 356/356/356 342/342/342 354/354/354
f 341/341/341 342/342/342 356/356/356
f 376/376/376 374/374/374 356/356/356
f 356/356/356 357/357/357 376/376/376
f 374/374/374 376/376/376 377/377/377
f 377/377/377 375/375/375 374/374/374
f 370/370/370 374/374/374 375/375/375
f 375/375/375 371/371/371 370/370/370
f 370/370/370 371/371/371 372/372/372
f 314/314/314 350/350/350 338/338/338
f 349/349/349 350/350/350 314/314/314
f 413/413/413 312/312/312 390/390/390
f 412/412/412 390/390/390 438/438/438
f 437/437/437 438/438/438 390/390/390
f 390/390/390 412/412/412 413/413/413
f 331/331/331 438/438/438 437/437/437
f 437/437/437 314/314/314 331/331/331
f 437/437/437 436/436/436 315/315/315
f 315/315/315 314/314/314 437/437/437
f 386/386/386 435/435/435 436/436/436
f 315/315/315 436/436/436 435/435/435
f 435/435/435 410/410/410 315/315/315
f 409/409/409 316/316/316 315/315/315
f 315/315/315 410/410/410 409/409/409
f 79/79/79 108/108/108 50/50/50
f 50/50/50 85/85/85 79/79/79
f 66/66/66 49/49/49 202/202/202
f 202/202/202 49/49/49 52/52/52
f 49/49/49 66/66/66 74/74/74
f 74/74/74 86/86/86 49/49/49
f 85/85/85 49/49/49 86/86/86
f 66/66/66 203/203/203 204/204/204
f 204/204/204 67/67/67 66/66/66
f 202/202/202 203/203/203 66/66/66
f 73/73/73 66/66/66 65/65/65
f 73/73/73 74/74/74 66/66/66
f 65/65/65 66/66/66 67/67/67
f 133/133/133 203/203/203 202/202/202
f 202/202/202 132/132/132 133/133/133
f 132/132/132 202/202/202 201/201/201
f 52/52/52 201/201/201 202/202/202
f 164/164/164 204/204/204 203/203/203
f 203/203/203 133/133/133 164/164/164
f 163/163/163 164/164/164 133/133/133
f 133/133/133 48/48/48 163/163/163
f 48/48/48 133/133/133 132/132/132
f 201/201/201 130/130/130 132/132/132
f 201/201/201 200/200/200 131/131/131
f 131/131/131 130/130/130 201/201/201
f 200/200/200 201/201/201 52/52/52
f 52/52/52 159/159/159 200/200/200
f 158/158/158 159/159/159 52/52/52
f 130/130/130 131/131/131 128/128/128
f 196/196/196 157/157/157 197/197/197
f 14/14/14 196/196/196 197/197/197
f 196/196/196 72/72/72 71/71/71
f 71/71/71 198/198/198 196/196/196
f 157/157/157 196/196/196 198/198/198
f 71/71/71 72/72/72 43/43/43
f 55/55/55 198/198/198 71/71/71
f 71/71/71 42/42/42 56/56/56
f 56/56/56 55/55/55 71/71/71
f 43/43/43 42/42/42 71/71/71
f 54/54/54 199/199/199 198/198/198
f 198/198/198 55/55/55 54/54/54
f 151/151/151 155/155/155 198/198/198
f 198/198/198 199/199/199 151/151/151
f 198/198/198 155/155/155 157/157/157
f 55/55/55 56/56/56 53/53/53
f 53/53/53 54/54/54 55/55/55
f 146/146/146 56/56/56 42/42/42
f 147/147/147 53/53/53 56/56/56
f 56/56/56 146/146/146 147/147/147
f 42/42/42 41/41/41 146/146/146
f 41/41/41 42/42/42 43/43/43
f 310/310/310 319/319/319 146/146/146
f 146/146/146 41/41/41 310/310/310
f 379/379/379 382/382/382 359/359/359
f 362/362/362 363/363/363 359/359/359
f 382/382/382 358/358/358 359/359/359
f 359/359/359 348/348/348 362/362/362
f 348/348/348 359/359/359 358/358/358
f 358/358/358 345/345/345 348/348/348
f 347/347/347 362/362/362 348/348/348
f 347/347/347 348/348/348 345/345/345
f 345/345/345 346/346/346 347/347/347
f 383/383/383 360/360/360 347/347/347
f 347/347/347 346/346/346 383/383/383
f 362/362/362 347/347/347 360/360/360
f 368/368/368 340/340/340 360/360/360
f 152/152/152 97/97/97 20/20/20
f 311/311/311 388/388/388 387/387/387
f 387/387/387 388/388/388 385/385/385
f 387/387/387 389/389/389 311/311/311
f 312/312/312 311/311/311 389/389/389
f 313/313/313 46/46/46 311/311/311
f 311/311/311 312/312/312 313/313/313
f 389/389/389 387/387/387 436/436/436
f 436/436/436 387/387/387 386/386/386
f 385/385/385 386/386/386 387/387/387
f 390/390/390 389/389/389 437/437/437
f 436/436/436 437/437/437 389/389/389
f 389/389/389 390/390/390 312/312/312
f 313/313/313 312/312/312 413/413/413
f 145/145/145 46/46/46 45/45/45
f 45/45/45 129/129/129 145/145/145
f 130/130/130 129/129/129 45/45/45
f 45/45/45 132/132/132 130/130/130
f 132/132/132 45/45/45 48/48/48
f 47/47/47 48/48/48 45/45/45
f 45/45/45 46/46/46 47/47/47
f 145/145/145 388/388/388 311/311/311
f 311/311/311 46/46/46 145/145/145
f 388/388/388 145/145/145 144/144/144
f 144/144/144 145/145/145 129/129/129
f 129/129/129 128/128/128 144/144/144
f 128/128/128 129/129/129 130/130/130
f 144/144/144 385/385/385 388/388/388
f 65/65/65 103/103/103 108/108/108
f 103/103/103 65/65/65 67/67/67
f 65/65/65 80/80/80 73/73/73
f 65/65/65 79/79/79 80/80/80
f 127/127/127 108/108/108 103/103/103
f 103/103/103 102/102/102 126/126/126
f 103/103/103 126/126/126 127/127/127
f 67/67/67 102/102/102 103/103/103
f 127/127/127 126/126/126 364/364/364
f 364/364/364 367/367/367 127/127/127
f 364/364/364 126/126/126 102/102/102
f 364/364/364 102/102/102 330/330/330
f 367/367/367 364/364/364 329/329/329
f 330/330/330 329/329/329 364/364/364
f 329/329/329 344/344/344 367/367/367
f 337/337/337 343/343/343 329/329/329
f 329/329/329 331/331/331 337/337/337
f 329/329/329 343/343/343 344/344/344
f 329/329/329 330/330/330 331/331/331
f 331/331/331 330/330/330 439/439/439
f 439/439/439 438/438/438 331/331/331
f 338/338/338 331/331/331 314/314/314
f 337/337/337 331/331/331 338/338/338
f 438/438/438 439/439/439 412/412/412
f 213/213/213 446/446/446 216/216/216
f 446/446/446 213/213/213 444/444/444
f 445/445/445 217/217/217 216/216/216
f 216/216/216 446/446/446 445/445/445
f 219/219/219 217/217/217 445/445/445
f 443/443/443 447/447/447 445/445/445
f 445/445/445 442/442/442 443/443/443
f 445/445/445 447/447/447 219/219/219
f 442/442/442 445/445/445 446/446/446
f 446/446/446 444/444/444 442/442/442
f 447/447/447 443/443/443 448/448/448
f 430/430/430 428/428/428 447/447/447
f 447/447/447 448/448/448 430/430/430
f 219/219/219 447/447/447 428/428/428
f 421/421/421 448/448/448 443/443/443
f 443/443/443 415/415/415 421/421/421
f 430/430/430 448/448/448 421/421/421
f 421/421/421 394/394/394 440/440/440
f 440/440/440 429/429/429 421/421/421
f 421/421/421 429/429/429 430/430/430
f 394/394/394 421/421/421 415/415/415
f 205/205/205 138/138/138 177/177/177
f 138/138/138 205/205/205 206/206/206
f 40/40/40 206/206/206 205/205/205
f 15/15/15 23/23/23 24/24/24
f 18/18/18 70/70/70 23/23/23
f 173/173/173 68/68/68 18/18/18
f 70/70/70 18/18/18 68/68/68
f 22/22/22 21/21/21 23/23/23
f 23/23/23 70/70/70 22/22/22
f 22/22/22 70/70/70 69/69/69
f 68/68/68 69/69/69 70/70/70
f 69/69/69 174/174/174 22/22/22
f 22/22/22 174/174/174 157/157/157
f 157/157/157 19/19/19 22/22/22
f 21/21/21 22/22/22 19/19/19
f 19/19/19 20/20/20 21/21/21
f 153/153/153 20/20/20 19/19/19
f 19/19/19 156/156/156 153/153/153
f 156/156/156 19/19/19 157/157/157
f 156/156/156 157/157/157 155/155/155
f 155/155/155 154/154/154 156/156/156
f 154/154/154 155/155/155 151/151/151
f 151/151/151 150/150/150 154/154/154
f 150/150/150 151/151/151 148/148/148
f 148/148/148 149/149/149 150/150/150
f 149/149/149 148/148/148 104/104/104
f 152/152/152 149/149/149 104/104/104
f 104/104/104 97/97/97 152/152/152
f 20/20/20 153/153/153 152/152/152
f 394/394/394 393/393/393 441/441/441
f 415/415/415 306/306/306 394/394/394
f 393/393/393 394/394/394 306/306/306
f 306/306/306 305/305/305 393/393/393
f 137/137/137 33/33/33 36/36/36
f 35/35/35 36/36/36 33/33/33
f 33/33/33 34/34/34 35/35/35
f 206/206/206 137/137/137 138/138/138
f 36/36/36 138/138/138 137/137/137
f 138/138/138 36/36/36 167/167/167
f 166/166/166 167/167/167 36/36/36
f 36/36/36 35/35/35 166/166/166
f 166/166/166 35/35/35 306/306/306
f 35/35/35 34/34/34 305/305/305
f 305/305/305 306/306/306 35/35/35
f 443/443/443 209/209/209 166/166/166
f 166/166/166 415/415/415 443/443/443
f 306/306/306 415/415/415 166/166/166
f 191/191/191 192/192/192 189/189/189
f 192/192/192 191/191/191 220/220/220
f 219/219/219 220/220/220 191/191/191
f 191/191/191 218/218/218 219/219/219
f 192/192/192 220/220/220 428/428/428
f 428/428/428 220/220/220 219/219/219
f 190/190/190 425/425/425 427/427/427
f 427/427/427 425/425/425 422/422/422
f 425/425/425 426/426/426 423/423/423
f 423/423/423 422/422/422 425/425/425
f 427/427/427 188/188/188 190/190/190
f 190/190/190 188/188/188 186/186/186
f 424/424/424 187/187/187 427/427/427
f 187/187/187 188/188/188 427/427/427
f 422/422/422 424/424/424 427/427/427
f 183/183/183 424/424/424 422/422/422
f 422/422/422 181/181/181 183/183/183
f 422/422/422 423/423/423 178/178/178
f 178/178/178 181/181/181 422/422/422
f 183/183/183 187/187/187 424/424/424
f 182/182/182 186/186/186 187/187/187
f 183/183/183 182/182/182 187/187/187
f 187/187/187 186/186/186 188/188/188
f 183/183/183 181/181/181 180/180/180
f 282/282/282 396/396/396 395/395/395
f 288/288/288 287/287/287 290/290/290
f 286/286/286 287/287/287 288/288/288
f 432/432/432 336/336/336 286/286/286
f 286/286/286 291/291/291 432/432/432
f 395/395/395 286/286/286 336/336/336
f 291/291/291 286/286/286 288/288/288
f 395/395/395 328/328/328 282/282/282
f 328/328/328 395/395/395 336/336/336
f 335/335/335 336/336/336 432/432/432
f 336/336/336 309/309/309 328/328/328
f 309/309/309 336/336/336 335/335/335
f 432/432/432 433/433/433 335/335/335
f 433/433/433 432/432/432 408/408/408
f 432/432/432 431/431/431 408/408/408
f 431/431/431 432/432/432 291/291/291
f 291/291/291 289/289/289 431/431/431
f 291/291/291 288/288/288 289/289/289
f 289/289/289 288/288/288 290/290/290
f 431/431/431 289/289/289 452/452/452
f 452/452/452 289/289/289 290/290/290
f 327/327/327 322/322/322 324/324/324
f 322/322/322 323/323/323 324/324/324
f 326/326/326 327/327/327 324/324/324
f 324/324/324 323/323/323 325/325/325
f 325/325/325 326/326/326 324/324/324
f 62/62/62 58/58/58 57/57/57
f 57/57/57 58/58/58 59/59/59
f 61/61/61 58/58/58 62/62/62
f 58/58/58 60/60/60 59/59/59
f 60/60/60 58/58/58 61/61/61
f 225/225/225 224/224/224 13/13/13
f 13/13/13 12/12/12 225/225/225
f 10/10/10 13/13/13 11/11/11
f 12/12/12 13/13/13 10/10/10
f 9/9/9 11/11/11 140/140/140
f 9/9/9 10/10/10 11/11/11
f 140/140/140 139/139/139 9/9/9
f 196/196/196 14/14/14 9/9/9
f 9/9/9 72/72/72 196/196/196
f 139/139/139 72/72/72 9/9/9
f 14/14/14 10/10/10 9/9/9
f 14/14/14 12/12/12 10/10/10
f 197/197/197 225/225/225 12/12/12
f 197/197/197 12/12/12 14/14/14
f 225/225/225 197/197/197 157/157/157
f 225/225/225 157/157/157 236/236/236
f 123/123/123 95/95/95 94/94/94
f 95/95/95 123/123/123 120/120/120
f 94/94/94 95/95/95 82/82/82
f 82/82/82 81/81/81 94/94/94
f 81/81/81 82/82/82 83/83/83
f 124/124/124 83/83/83 96/96/96
f 83/83/83 124/124/124 84/84/84
f 83/83/83 84/84/84 81/81/81
f 109/109/109 96/96/96 77/77/77
f 91/91/91 109/109/109 77/77/77
f 77/77/77 78/78/78 90/90/90
f 90/90/90 91/91/91 77/77/77
f 165/165/165 121/121/121 120/120/120
f 120/120/120 123/123/123 165/165/165
f 163/163/163 48/48/48 47/47/47
f 47/47/47 162/162/162 163/163/163
f 160/160/160 47/47/47 46/46/46
f 161/161/161 162/162/162 47/47/47
f 47/47/47 160/160/160 161/161/161
f 413/413/413 162/162/162 313/313/313
f 313/313/313 162/162/162 161/161/161
f 161/161/161 226/226/226 411/411/411
f 161/161/161 411/411/411 313/313/313
f 161/161/161 160/160/160 226/226/226
f 160/160/160 195/195/195 226/226/226
f 46/46/46 195/195/195 160/160/160
f 411/411/411 195/195/195 46/46/46
f 46/46/46 313/313/313 411/411/411
f 411/411/411 226/226/226 195/195/195
f 108/108/108 79/79/79 65/65/65
f 178/178/178 179/179/179 180/180/180
f 177/177/177 193/193/193 205/205/205
f 194/194/194 193/193/193 177/177/177
f 184/184/184 194/194/194 191/191/191
f 194/194/194 221/221/221 218/218/218
f 218/218/218 191/191/191 194/194/194
f 177/177/177 221/221/221 194/194/194
f 189/189/189 184/184/184 191/191/191
f 185/185/185 184/184/184 189/189/189
f 186/186/186 185/185/185 190/190/190
f 189/189/189 190/190/190 185/185/185
f 180/180/180 185/185/185 186/186/186
f 428/428/428 426/426/426 189/189/189
f 189/189/189 192/192/192 428/428/428
f 189/189/189 426/426/426 425/425/425
f 425/425/425 190/190/190 189/189/189
f 242/242/242 241/241/241 248/248/248
f 248/248/248 247/247/247 242/242/242
f 246/246/246 247/247/247 248/248/248
f 462/462/462 469/469/469 468/468/468
f 468/468/468 463/463/463 462/462/462
f 468/468/468 469/469/469 465/465/465
f 301/301/301 302/302/302 303/303/303
f 303/303/303 304/304/304 397/397/397
f 397/397/397 396/396/396 303/303/303
f 303/303/303 396/396/396 282/282/282
f 303/303/303 302/302/302 304/304/304
f 418/418/418 304/304/304 450/450/450
f 450/450/450 304/304/304 302/302/302
f 418/418/418 397/397/397 304/304/304
f 397/397/397 290/290/290 287/287/287
f 290/290/290 397/397/397 418/418/418
f 396/396/396 397/397/397 287/287/287
f 286/286/286 395/395/395 396/396/396
f 396/396/396 287/287/287 286/286/286
f 26/26/26 298/298/298 300/300/300
f 99/99/99 26/26/26 21/21/21
f 21/21/21 20/20/20 99/99/99
f 300/300/300 24/24/24 26/26/26
f 26/26/26 24/24/24 23/23/23
f 23/23/23 21/21/21 26/26/26
f 300/300/300 333/333/333 293/293/293
f 293/293/293 292/292/292 300/300/300
f 297/297/297 333/333/333 300/300/300
f 24/24/24 300/300/300 292/292/292
f 334/334/334 333/333/333 297/297/297
f 297/297/297 420/420/420 334/334/334
f 333/333/333 334/334/334 332/332/332
f 332/332/332 293/293/293 333/333/333
f 419/419/419 294/294/294 293/293/293
f 293/293/293 332/332/332 419/419/419
f 292/292/292 293/293/293 294/294/294
f 25/25/25 292/292/292 295/295/295
f 292/292/292 25/25/25 24/24/24
f 294/294/294 295/295/295 292/292/292
f 294/294/294 175/175/175 172/172/172
f 172/172/172 295/295/295 294/294/294
f 176/176/176 175/175/175 294/294/294
f 294/294/294 419/419/419 176/176/176
f 63/63/63 1/1/1 4/4/4
f 139/139/139 140/140/140 1/1/1
f 1/1/1 63/63/63 139/139/139
f 1/1/1 140/140/140 31/31/31
f 31/31/31 2/2/2 1/1/1
f 3/3/3 4/4/4 1/1/1
f 1/1/1 2/2/2 3/3/3
f 4/4/4 64/64/64 63/63/63
f 63/63/63 43/43/43 72/72/72
f 72/72/72 139/139/139 63/63/63
f 44/44/44 43/43/43 63/63/63
f 63/63/63 64/64/64 44/44/44
f 328/328/328 64/64/64 4/4/4
f 4/4/4 282/282/282 328/328/328
f 295/295/295 172/172/172 25/25/25
f 25/25/25 172/172/172 16/16/16
f 16/16/16 15/15/15 25/25/25
f 24/24/24 25/25/25 15/15/15
f 17/17/17 16/16/16 172/172/172
f 172/172/172 175/175/175 17/17/17
f 17/17/17 175/175/175 176/176/176
f 176/176/176 173/173/173 17/17/17
f 18/18/18 17/17/17 173/173/173
f 17/17/17 18/18/18 15/15/15
f 15/15/15 16/16/16 17/17/17
f 23/23/23 15/15/15 18/18/18
f 452/452/452 408/408/408 431/431/431
f 452/452/452 457/457/457 408/408/408
f 457/457/457 452/452/452 451/451/451
f 290/290/290 451/451/451 452/452/452
f 418/418/418 451/451/451 290/290/290
f 451/451/451 456/456/456 457/457/457
f 418/418/418 456/456/456 451/451/451
f 450/450/450 456/456/456 418/418/418
f 302/302/302 449/449/449 450/450/450
f 302/302/302 30/30/30 232/232/232
f 232/232/232 449/449/449 302/302/302
f 232/232/232 30/30/30 29/29/29
f 29/29/29 223/223/223 232/232/232
f 222/222/222 223/223/223 29/29/29
f 29/29/29 32/32/32 222/222/222
f 31/31/31 29/29/29 27/27/27
f 31/31/31 32/32/32 29/29/29
f 171/171/171 235/235/235 222/222/222
f 222/222/222 32/32/32 171/171/171
f 141/141/141 32/32/32 31/31/31
f 171/171/171 32/32/32 141/141/141
f 31/31/31 140/140/140 141/141/141
f 141/141/141 11/11/11 13/13/13
f 171/171/171 141/141/141 13/13/13
f 140/140/140 11/11/11 141/141/141
f 171/171/171 224/224/224 235/235/235
f 13/13/13 224/224/224 171/171/171
f 236/236/236 235/235/235 224/224/224
f 224/224/224 225/225/225 236/236/236
f 282/282/282 4/4/4 3/3/3
f 283/283/283 3/3/3 28/28/28
f 3/3/3 283/283/283 282/282/282
f 28/28/28 3/3/3 2/2/2
f 27/27/27 2/2/2 31/31/31
f 2/2/2 27/27/27 28/28/28
f 302/302/302 301/301/301 28/28/28
f 28/28/28 30/30/30 302/302/302
f 28/28/28 301/301/301 283/283/283
f 29/29/29 30/30/30 28/28/28
f 28/28/28 27/27/27 29/29/29
f 282/282/282 283/283/283 303/303/303
f 303/303/303 283/283/283 301/301/301
