# kronosa_ad reconstructed from live game memory
v 0.00004 50.65477 -109.66119
v 0.00005 50.52325 -121.96265
v 5.20125 48.23715 -121.90260
v 7.98317 48.09527 -109.41354
v 7.04063 36.59426 -122.31256
v 0.00004 34.37149 -122.03831
v 0.00004 34.40627 -122.49771
v 4.54296 36.35066 -130.13516
v 7.63654 43.57946 -121.73376
v 10.40610 43.28138 -109.38081
v 9.23746 53.73537 -84.08616
v 9.76501 52.65934 -87.30824
v 9.63929 49.45763 -84.67059
v 11.34087 50.31464 -89.34216
v 12.80587 47.39666 -83.07578
v 12.34426 47.55129 -87.04891
v 11.76473 49.30760 -80.60547
v 10.13964 52.52253 -81.44955
v 6.71558 33.93016 -121.63728
v 7.04063 36.59426 -122.31256
v 4.54296 36.35066 -130.13516
v 4.60078 34.51093 -128.49353
v 17.14043 41.68371 -77.80479
v 16.23711 41.48702 -89.06397
v 10.75895 32.22957 -87.81370
v 10.39913 32.73516 -76.14794
v 10.57407 37.93356 -110.01777
v 8.42880 32.93090 -109.14094
v 10.30872 33.42278 -98.06075
v 13.69248 39.12089 -99.00612
v 0.00004 32.22773 -121.63055
v 0.00003 31.20918 -108.81973
v 0.00003 30.63892 -97.40853
v 0.00002 29.03346 -87.25509
v 3.48964 48.16544 -129.99719
v 0.00005 49.91838 -130.26321
v 13.94402 42.85849 -98.37885
v 10.40610 43.28138 -109.38081
v 0.00004 45.83125 -110.20206
v 0.00005 45.55345 -134.08759
v 4.76949 45.01583 -131.42316
v 9.71901 33.93311 -65.68962
v 16.91852 44.98715 -65.13757
v 13.94402 42.85849 -98.37885
v 10.08082 49.82833 -99.31445
v 15.75893 44.62430 -76.09664
v 0.67212 36.43069 122.45094
v -0.00006 36.23702 126.48837
v -0.00006 36.75912 122.44981
v 5.85817 34.14442 106.61599
v 2.83246 37.36911 106.61604
v 5.44661 39.39830 88.54384
v 8.24221 34.01434 88.54971
v -0.00005 38.80586 106.61983
v -0.00004 41.73795 88.51073
v 1.53659 30.78695 106.61599
v 4.19752 29.37146 88.54895
v 5.44661 39.39830 88.54384
v -0.00004 41.73795 88.51073
v -0.00003 47.62783 65.58493
v 10.09138 41.31588 64.42667
v 4.19752 29.37146 88.54895
v 8.24221 34.01434 88.54971
v 13.19252 33.68911 65.71780
v 7.43431 26.62366 65.69255
v 14.76532 52.84485 -36.92830
v 0.00000 59.15703 -36.72132
v 0.00001 58.70960 -46.54847
v 13.55504 52.57365 -47.49363
v 2.49354 33.67306 132.26257
v -0.00006 35.38749 132.25244
v 3.57371 34.14900 126.55359
v -0.00006 33.67305 135.10315
v 12.15196 45.90458 49.06275
v -0.00003 51.95440 50.65889
v -0.00002 56.02923 34.06895
v 13.64481 48.26961 33.97534
v 25.15708 30.72025 -5.34862
v 25.67284 31.37305 -23.85483
v 14.91733 15.16809 -24.06747
v 14.08603 14.37494 -5.44786
v 23.63095 36.81324 -36.51874
v 4.08519 34.14680 122.44470
v -0.00006 31.53995 122.07996
v 9.01038 51.99479 -84.36513
v 9.30440 51.24542 -86.05594
v 10.81516 50.41182 -84.55553
v 10.08656 49.45252 -87.11768
v 11.09436 48.12220 -85.89499
v 11.24676 48.21569 -84.03787
v 10.27689 49.47768 -82.18056
v 9.63558 51.18600 -82.71826
v 4.94636 56.49791 -80.06224
v 7.24498 56.18763 -73.12211
v 0.00002 58.65762 -74.64374
v 0.00002 57.54359 -79.79298
v 25.46677 27.95697 -40.74512
v 39.59529 26.64214 -42.14921
v 39.26448 30.17170 -35.64182
v 26.45707 32.11411 -35.45209
v 26.91000 29.28150 -29.39161
v 34.66014 28.00153 -25.38177
v 49.10991 26.94807 -40.07376
v 48.56050 29.50870 -34.10829
v 41.85524 27.72480 -25.09075
v 59.75702 28.94203 -31.73199
v 60.23556 27.28370 -35.25129
v 65.62626 27.67656 -32.73683
v 66.76617 28.06943 -29.62567
v 59.68013 27.95095 -28.40727
v 38.07340 24.06461 -34.15686
v 38.73869 24.28255 -38.94324
v 26.35477 24.75381 -38.69192
v 26.70805 24.54066 -35.53056
v 34.89019 26.79693 -24.08394
v 37.72900 24.54811 -27.59602
v 26.88013 25.08032 -30.99366
v 27.48353 26.97409 -28.26200
v 48.37640 24.41454 -32.52466
v 48.74315 24.63920 -36.64694
v 41.97138 26.14273 -23.82815
v 59.55482 24.72848 -30.57723
v 64.41810 25.25602 -29.71624
v 64.02550 25.09819 -32.11067
v 60.14359 24.94036 -33.48848
v 60.31686 27.12170 -26.49418
v 69.28136 26.62464 -28.85525
v 60.14056 25.78903 -29.05992
v 34.89019 26.79693 -24.08394
v 27.48353 26.97409 -28.26200
v 25.10447 26.36260 -42.10374
v 39.76890 25.38940 -43.73059
v 41.97138 26.14273 -23.82815
v 49.10991 25.70495 -41.43555
v 48.19250 27.91043 -26.71261
v 60.31686 27.12170 -26.49418
v 48.19250 26.19175 -25.48511
v 67.54295 26.30898 -33.26493
v 69.28136 26.62464 -28.85525
v 48.28445 24.67597 -28.88964
v 18.76280 26.77240 -46.78688
v 21.27067 38.09156 -48.69400
v 24.03130 22.95143 -37.29461
v 60.73236 25.99333 -36.39973
v 17.42274 26.02642 56.01937
v 16.93401 32.80283 55.22269
v 26.88013 25.08032 -30.99366
v 27.48353 26.97409 -28.26200
v 12.46208 53.13953 -55.59325
v 0.00001 58.02983 -54.66970
v 0.00001 58.27474 -62.62043
v 12.50872 54.02092 -63.42308
v 48.19250 26.19175 -25.48511
v 23.63095 36.81324 -36.51874
v 25.67284 31.37305 -23.85483
v 21.27067 38.09156 -48.69400
v 16.93401 32.80283 55.22269
v 18.93892 34.42407 45.73570
v 21.90445 31.54028 45.39036
v 21.14980 29.81179 49.84190
v 28.55903 31.94609 46.20066
v 37.71143 28.35298 39.88300
v 36.51919 31.72793 47.06670
v 27.09226 29.90934 53.24947
v 34.58411 30.10634 55.58318
v 57.73778 28.84307 46.33021
v 63.65529 29.34398 52.11032
v 56.92556 30.51047 50.86909
v 56.10342 28.69190 55.08996
v 17.42274 26.02642 56.01937
v 20.83867 27.78614 51.27031
v 19.99623 23.44749 44.35341
v 47.15063 25.88418 43.13694
v 36.32716 26.27449 40.21616
v 31.70275 25.51033 45.96514
v 46.06858 25.46185 48.89680
v 26.75140 27.79094 54.78735
v 34.28033 28.58474 57.38874
v 31.76011 26.09138 52.58199
v 56.85303 25.79505 50.86465
v 63.27764 26.25339 50.86477
v 57.39364 26.12023 47.71198
v 55.83862 27.74804 56.71814
v 63.66699 27.57210 54.76358
v 62.80858 26.33492 53.07224
v 56.46774 26.25848 54.83150
v 17.42274 26.02642 56.01937
v 20.83867 27.78614 51.27031
v 23.12279 27.63819 38.42855
v 22.58562 29.66982 40.06087
v 22.26710 27.03160 32.04304
v 26.75140 27.79094 54.78735
v 34.28033 28.58474 57.38874
v 47.68046 27.15439 40.33437
v 47.33319 28.33684 42.28027
v 38.09116 27.02820 37.63318
v 44.88585 29.38776 56.11105
v 55.83862 27.74804 56.71814
v 44.59019 27.90424 57.94113
v 63.66699 27.57210 54.76358
v 44.73790 25.74734 55.19815
v 46.07574 30.94308 48.90387
v 58.02146 27.47153 44.78474
v 44.59019 27.90424 57.94113
v 64.58560 27.37414 49.51228
v 9.96537 26.02435 -50.81950
v 18.76280 26.77240 -46.78688
v 21.27067 38.09156 -48.69400
v 0.00001 22.29330 -51.72153
v 0.00001 16.40197 -39.64894
v 13.00347 18.70063 -38.33820
v 65.97406 27.54107 52.46717
v 8.76533 24.04778 56.60984
v 0.00000 11.46222 -24.18209
v -0.00000 10.13622 -5.40591
v -0.00001 10.82327 12.25496
v 12.62490 15.17879 12.23665
v 10.28122 20.48506 45.76482
v 24.03130 22.95143 -37.29461
v -0.00005 30.36858 106.61599
v 11.04479 19.45908 34.18058
v 29.71279 29.38063 39.02330
v 30.07895 27.07107 37.33573
v 65.97406 27.54107 52.46717
v 23.84532 31.72834 12.24488
v -0.00001 57.25423 12.23801
v 14.92581 48.51222 12.20928
v 9.27772 32.82817 -58.19689
v 18.74188 44.10526 -56.84572
v 15.94121 45.68108 -88.41776
v 15.99241 42.55785 -88.41631
v 20.85033 33.32258 33.76040
v 10.57407 37.93356 -110.01777
v 0.00003 37.99266 -104.47189
v 13.69248 39.12089 -99.00612
v 16.23711 41.48702 -89.06397
v 0.00002 38.36287 -85.75618
v 17.14043 41.68371 -77.80479
v 0.00002 41.97401 -73.56895
v 0.00003 43.39014 -84.08566
v 15.99241 42.55785 -88.41631
v -0.00001 13.97504 33.51520
v 11.04479 19.45908 34.18058
v 22.26710 27.03160 32.04304
v 10.28122 20.48506 45.76482
v -0.00002 17.65149 45.84954
v -0.00003 20.87982 56.54448
v 20.85033 33.32258 33.76040
v 15.49364 50.45971 -5.36106
v 14.76731 52.45360 -23.17992
v 18.93892 34.42407 45.73570
v 11.48413 49.99483 -93.23694
v 0.00003 55.82336 -92.02419
v 0.00003 52.78730 -99.19913
v 7.63654 43.57946 -121.73376
v 0.00004 45.79647 -110.72028
v 4.76949 45.01583 -131.42316
v 0.00005 45.91586 -123.41177
v 0.00002 28.84624 -75.65944
v 12.05149 50.54266 -74.77013
v 13.55504 52.57365 -47.49363
v 0.00001 58.70960 -46.54847
v 9.96537 26.02435 -50.81950
v 21.27067 38.09156 -48.69400
v 0.00003 57.43956 -85.82597
v 0.00002 59.11477 -68.68059
v -0.00003 24.55402 65.69237
v 17.14043 41.68371 -77.80479
v 0.00002 41.97401 -73.56895
v -0.00006 31.69129 126.57413
v -0.00001 58.54047 -5.38751
v -0.00000 59.47855 -23.34389
v 0.00002 29.14003 -65.49800
v 0.00004 32.60460 -130.28079
v 0.00004 35.60513 -133.61005
v 0.00004 35.60513 -133.61005
v -0.00006 31.88614 132.20831
v 0.00001 27.68240 -58.84623
v 0.00005 45.55345 -134.08759
v 0.00001 22.29330 -51.72153
v -0.00004 28.44679 88.54752
v -0.00004 28.44679 88.54752
v 5.77655 45.03653 -124.48833
v 4.83111 45.32911 -127.88271
v 4.53640 41.48880 -126.53160
v 4.83111 45.32911 -127.88271
v 3.49442 45.64814 -131.15900
v 3.40093 41.83218 -129.85059
v 3.49442 45.64814 -131.15900
v 0.42420 45.81374 -133.38449
v 1.49711 42.04624 -132.19971
v 6.27555 44.59048 -120.83176
v 5.64977 44.82909 -124.26670
v 5.29616 41.07616 -123.24183
v 7.09889 44.05365 -116.81059
v 6.34479 44.88390 -120.83517
v 6.12691 40.66606 -119.00282
v 7.94597 43.94519 -113.58707
v 7.09889 44.05365 -116.81059
v 7.27431 40.77323 -115.26219
v 9.26849 43.40671 -109.70612
v 8.33188 43.87257 -113.12626
v 8.25121 40.24767 -111.60664
v 10.41070 43.65073 -105.68560
v 9.44903 43.66073 -109.01800
v 9.19928 40.31855 -107.25312
v 11.67516 43.94365 -101.56340
v 10.61608 44.14167 -105.04809
v 10.41643 40.85924 -103.45641
v 12.60239 43.86276 -97.40321
v 11.85520 43.91538 -100.85288
v 11.44865 40.66410 -99.18893
v 9.35255 37.38006 -107.37482
v 10.21557 38.20236 -104.81886
v 9.47958 40.57407 -106.12638
v 10.91013 38.39738 -103.01529
v 11.64973 38.52406 -100.41527
v 10.45798 40.92726 -101.45934
v 12.12077 38.74987 -98.61502
v 12.50329 39.06475 -95.93156
v 12.01788 41.48503 -97.03889
v 8.59151 36.85561 -110.96915
v 9.20448 37.76256 -108.36599
v 9.11240 40.42172 -110.02873
v 7.44104 36.49465 -114.90064
v 8.00275 36.93342 -111.66026
v 8.18871 39.94396 -113.55125
v 6.27667 35.84027 -119.11876
v 7.26706 36.69944 -115.96729
v 6.99793 39.51541 -117.87141
v 5.24085 35.79685 -123.64350
v 6.17185 36.04799 -120.35590
v 5.49689 38.77758 -121.70467
v 3.99167 35.66228 -126.94877
v 4.94730 35.80433 -123.74831
v 4.44491 38.58030 -125.12158
v 2.64295 35.48588 -130.34866
v 3.99167 35.66228 -126.94877
v 3.47403 38.47533 -128.60303
v 13.71873 43.42689 -92.65453
v 12.90610 43.42188 -95.97913
v 12.56498 40.22823 -94.44028
v 13.27719 38.92085 -92.90369
v 13.94407 39.46981 -90.07471
v 13.88032 42.26678 -91.84979
v 15.50426 43.42605 -86.94147
v 14.47590 43.42629 -90.32369
v 14.67534 40.23265 -88.78484
v 2.51426 35.88246 -130.34717
v 1.38083 38.46552 -131.09814
v 0.03639 35.43304 -131.97894
v -7.98309 48.09527 -109.41355
v -5.20116 48.23715 -121.90260
v -7.04055 36.59426 -122.31256
v -4.54288 36.35067 -130.13516
v -10.40602 43.28138 -109.38082
v -7.63646 43.57946 -121.73378
v -9.23741 53.73537 -84.08617
v -9.63924 49.45763 -84.67061
v -9.76496 52.65934 -87.30825
v -11.34081 50.31464 -89.34218
v -12.80582 47.39666 -83.07579
v -12.34421 47.55129 -87.04893
v -11.76468 49.30760 -80.60548
v -10.13960 52.52253 -81.44956
v -6.71551 33.93016 -121.63728
v -4.60070 34.51094 -128.49353
v -4.54288 36.35067 -130.13516
v -7.04055 36.59426 -122.31256
v -17.14039 41.68371 -77.80481
v -10.39910 32.73517 -76.14794
v -10.75891 32.22957 -87.81371
v -16.23706 41.48703 -89.06399
v -10.57400 37.93356 -110.01778
v -13.69243 39.12089 -99.00613
v -10.30867 33.42278 -98.06075
v -8.42874 32.93090 -109.14094
v -3.48954 48.16544 -129.99719
v -13.94396 42.85849 -98.37886
v -10.40602 43.28138 -109.38082
v -4.76939 45.01583 -131.42316
v -16.91848 44.98715 -65.13759
v -9.71898 33.93311 -65.68962
v -10.08075 49.82833 -99.31446
v -13.94396 42.85849 -98.37886
v -15.75889 44.62430 -76.09666
v -0.67224 36.43069 122.45094
v -5.85828 34.14442 106.61599
v -8.24230 34.01434 88.54971
v -5.44669 39.39830 88.54385
v -2.83256 37.36911 106.61604
v -1.53669 30.78695 106.61599
v -4.19761 29.37147 88.54895
v -5.44669 39.39830 88.54385
v -10.09145 41.31588 64.42665
v -4.19761 29.37147 88.54895
v -7.43438 26.62366 65.69255
v -13.19258 33.68911 65.71779
v -8.24230 34.01434 88.54971
v -14.76531 52.84485 -36.92831
v -13.55502 52.57365 -47.49364
v -2.49366 33.67306 132.26257
v -3.57383 34.14900 126.55359
v -12.15201 45.90458 49.06274
v -13.64485 48.26961 33.97533
v -25.15709 30.72026 -5.34863
v -14.08604 14.37494 -5.44787
v -14.91733 15.16810 -24.06748
v -25.67284 31.37306 -23.85485
v -23.63094 36.81324 -36.51876
v -4.08530 34.14680 122.44470
v -9.01033 51.99479 -84.36514
v -10.81511 50.41182 -84.55555
v -9.30435 51.24542 -86.05595
v -10.08651 49.45252 -87.11769
v -11.09431 48.12220 -85.89500
v -11.24671 48.21569 -84.03789
v -10.27684 49.47768 -82.18057
v -9.63553 51.18600 -82.71828
v -4.94632 56.49791 -80.06224
v -7.24495 56.18763 -73.12212
v -25.46676 27.95697 -40.74515
v -26.45706 32.11412 -35.45211
v -39.26448 30.17170 -35.64184
v -39.59528 26.64215 -42.14924
v -26.91000 29.28150 -29.39163
v -34.66014 28.00154 -25.38180
v -48.56050 29.50870 -34.10833
v -49.10992 26.94807 -40.07380
v -41.85525 27.72480 -25.09079
v -59.75703 28.94204 -31.73204
v -66.76619 28.06944 -29.62572
v -65.62627 27.67657 -32.73688
v -60.23557 27.28371 -35.25134
v -59.68015 27.95096 -28.40732
v -38.07340 24.06462 -34.15689
v -26.70804 24.54066 -35.53058
v -26.35476 24.75381 -38.69194
v -38.73869 24.28256 -38.94327
v -34.89020 26.79694 -24.08396
v -27.48353 26.97409 -28.26202
v -26.88013 25.08032 -30.99368
v -37.72902 24.54811 -27.59604
v -48.37640 24.41455 -32.52470
v -48.74316 24.63920 -36.64698
v -41.97139 26.14274 -23.82818
v -59.55483 24.72849 -30.57728
v -60.14360 24.94037 -33.48853
v -64.02551 25.09820 -32.11072
v -64.41811 25.25603 -29.71629
v -60.31688 27.12170 -26.49423
v -60.14058 25.78904 -29.05997
v -69.28137 26.62465 -28.85531
v -27.48353 26.97409 -28.26202
v -34.89020 26.79694 -24.08396
v -39.76889 25.38941 -43.73062
v -25.10445 26.36260 -42.10376
v -41.97139 26.14274 -23.82818
v -49.10991 25.70495 -41.43560
v -48.19252 27.91043 -26.71265
v -48.19252 26.19176 -25.48515
v -60.31688 27.12170 -26.49423
v -69.28137 26.62465 -28.85531
v -67.54295 26.30899 -33.26499
v -48.28447 24.67597 -28.88969
v -18.76278 26.77240 -46.78689
v -21.27064 38.09157 -48.69402
v -24.03129 22.95143 -37.29463
v -60.73237 25.99334 -36.39978
v -17.42279 26.02642 56.01936
v -16.93407 32.80283 55.22267
v -26.88013 25.08032 -30.99368
v -27.48353 26.97409 -28.26202
v -12.46205 53.13953 -55.59326
v -12.50869 54.02093 -63.42310
v -48.19252 26.19176 -25.48515
v -23.63094 36.81324 -36.51876
v -25.67284 31.37306 -23.85485
v -21.27064 38.09157 -48.69402
v -16.93407 32.80283 55.22267
v -21.14985 29.81180 49.84188
v -21.90449 31.54028 45.39034
v -18.93896 34.42408 45.73569
v -28.55907 31.94610 46.20063
v -36.51923 31.72794 47.06667
v -37.71146 28.35299 39.88297
v -27.09231 29.90934 53.24944
v -34.58416 30.10635 55.58315
v -57.73781 28.84309 46.33015
v -56.92559 30.51048 50.86903
v -63.65533 29.34399 52.11025
v -56.10346 28.69191 55.08990
v -17.42279 26.02642 56.01936
v -19.99627 23.44749 44.35340
v -20.83871 27.78614 51.27029
v -47.15065 25.88419 43.13688
v -46.06861 25.46186 48.89674
v -31.70278 25.51033 45.96511
v -36.32720 26.27450 40.21613
v -26.75145 27.79095 54.78733
v -31.76016 26.09139 52.58196
v -34.28038 28.58474 57.38871
v -56.85305 25.79506 50.86459
v -57.39367 26.12024 47.71191
v -63.27767 26.25340 50.86469
v -55.83865 27.74805 56.71807
v -56.46777 26.25849 54.83144
v -62.80861 26.33493 53.07216
v -63.66702 27.57211 54.76351
v -17.42279 26.02642 56.01936
v -20.83871 27.78614 51.27029
v -23.12283 27.63820 38.42854
v -22.26714 27.03160 32.04302
v -22.58566 29.66982 40.06085
v -26.75145 27.79095 54.78733
v -34.28038 28.58474 57.38871
v -47.68049 27.15440 40.33432
v -38.09119 27.02821 37.63315
v -47.33322 28.33685 42.28021
v -44.88589 29.38777 56.11100
v -44.59023 27.90425 57.94108
v -55.83865 27.74805 56.71807
v -63.66702 27.57211 54.76351
v -44.73794 25.74735 55.19810
v -46.07577 30.94309 48.90381
v -58.02148 27.47154 44.78468
v -44.59023 27.90425 57.94108
v -64.58562 27.37415 49.51220
v -9.96535 26.02436 -50.81951
v -21.27064 38.09157 -48.69402
v -18.76278 26.77240 -46.78689
v -13.00346 18.70064 -38.33820
v -65.97408 27.54108 52.46710
v -8.76539 24.04779 56.60983
v -12.62491 15.17879 12.23664
v -10.28126 20.48506 45.76481
v -24.03129 22.95143 -37.29463
v -11.04482 19.45908 34.18058
v -29.71283 29.38064 39.02327
v -30.07898 27.07108 37.33570
v -65.97408 27.54108 52.46710
v -23.84534 31.72834 12.24486
v -14.92584 48.51222 12.20927
v -18.74185 44.10526 -56.84573
v -9.27769 32.82817 -58.19690
v -15.99235 42.55785 -88.41633
v -15.94116 45.68108 -88.41777
v -20.85036 33.32258 33.76038
v -10.57400 37.93356 -110.01778
v -13.69243 39.12089 -99.00613
v -16.23706 41.48703 -89.06399
v -17.14039 41.68371 -77.80481
v -15.99235 42.55785 -88.41633
v -11.04482 19.45908 34.18058
v -22.26714 27.03160 32.04302
v -10.28126 20.48506 45.76481
v -20.85036 33.32258 33.76038
v -14.76731 52.45360 -23.17993
v -15.49365 50.45971 -5.36107
v -18.93896 34.42408 45.73569
v -11.48407 49.99483 -93.23695
v -7.63646 43.57946 -121.73378
v -4.76939 45.01583 -131.42316
v -12.05145 50.54266 -74.77015
v -13.55502 52.57365 -47.49364
v -21.27064 38.09157 -48.69402
v -9.96535 26.02436 -50.81951
v -17.14039 41.68371 -77.80481
v -5.77646 45.03653 -124.48833
v -4.53630 41.48880 -126.53160
v -4.83101 45.32911 -127.88271
v -4.83101 45.32911 -127.88271
v -3.40083 41.83218 -129.85059
v -3.49432 45.64814 -131.15900
v -3.49432 45.64814 -131.15900
v -1.49701 42.04624 -132.19971
v -0.42410 45.81374 -133.38449
v -6.27546 44.59048 -120.83176
v -5.29607 41.07616 -123.24183
v -5.64968 44.82909 -124.26670
v -7.09881 44.05365 -116.81059
v -6.12682 40.66606 -119.00282
v -6.34470 44.88390 -120.83517
v -7.94589 43.94519 -113.58709
v -7.27423 40.77323 -115.26221
v -7.09881 44.05365 -116.81059
v -9.26841 43.40671 -109.70614
v -8.25113 40.24767 -111.60666
v -8.33180 43.87257 -113.12627
v -10.41062 43.65073 -105.68562
v -9.19921 40.31855 -107.25314
v -9.44895 43.66073 -109.01801
v -11.67509 43.94365 -101.56342
v -10.41636 40.85924 -103.45642
v -10.61600 44.14167 -105.04810
v -12.60233 43.86276 -97.40323
v -11.44858 40.66410 -99.18894
v -11.85513 43.91538 -100.85290
v -9.35249 37.38006 -107.37482
v -9.47952 40.57407 -106.12638
v -10.21551 38.20236 -104.81886
v -10.91007 38.39738 -103.01530
v -10.45792 40.92726 -101.45936
v -11.64967 38.52406 -100.41528
v -12.12071 38.74987 -98.61504
v -12.01783 41.48503 -97.03891
v -12.50323 39.06475 -95.93157
v -8.59145 36.85561 -110.96915
v -9.11234 40.42172 -110.02873
v -9.20442 37.76256 -108.36599
v -7.44097 36.49465 -114.90064
v -8.18865 39.94396 -113.55125
v -8.00268 36.93342 -111.66026
v -6.27660 35.84027 -119.11876
v -6.99786 39.51541 -117.87141
v -7.26699 36.69944 -115.96729
v -5.24077 35.79685 -123.64350
v -5.49682 38.77758 -121.70467
v -6.17178 36.04799 -120.35590
v -3.99160 35.66228 -126.94877
v -4.44483 38.58030 -125.12158
v -4.94722 35.80433 -123.74831
v -2.64287 35.48588 -130.34866
v -3.47396 38.47533 -128.60303
v -3.99160 35.66228 -126.94877
v -13.71867 43.42689 -92.65455
v -12.56492 40.22823 -94.44029
v -12.90603 43.42188 -95.97914
v -13.27713 38.92085 -92.90372
v -13.88027 42.26678 -91.84980
v -13.94402 39.46981 -90.07474
v -15.50420 43.42605 -86.94149
v -14.67529 40.23265 -88.78486
v -14.47584 43.42629 -90.32371
v -2.51418 35.88246 -130.34717
v -1.38075 38.46552 -131.09814
vt 0.170663 0.946321
vt 0.105512 0.957753
vt 0.100094 0.930572
vt 0.165852 0.904828
vt 0.740636 0.019818
vt 0.732833 0.056694
vt 0.730808 0.055880
vt 0.702721 0.019758
vt 0.090936 0.906286
vt 0.155358 0.878150
vt 0.319204 0.899957
vt 0.295284 0.896528
vt 0.295903 0.878674
vt 0.276655 0.883811
vt 0.301300 0.857453
vt 0.280704 0.865369
vt 0.336097 0.865688
vt 0.337243 0.889234
vt 0.100319 0.815834
vt 0.100108 0.831257
vt 0.051200 0.842426
vt 0.059096 0.830000
vt 0.373986 0.817163
vt 0.303345 0.807909
vt 0.303787 0.754401
vt 0.390229 0.755452
vt 0.178520 0.820264
vt 0.173881 0.789117
vt 0.240318 0.771473
vt 0.242014 0.809686
vt 0.078154 0.784221
vt 0.152089 0.743802
vt 0.226278 0.713515
vt 0.294076 0.691131
vt 0.059100 0.948468
vt 0.061675 0.967019
vt 0.854732 0.018242
vt 0.799028 0.014495
vt 0.786916 0.076213
vt 0.031691 0.965631
vt 0.045863 0.938966
vt 0.467675 0.751006
vt 0.480389 0.832725
vt 0.215690 0.852053
vt 0.223840 0.892458
vt 0.378802 0.831407
vt 0.048849 0.460312
vt 0.009284 0.612132
vt 0.008768 0.459144
vt 0.119936 0.225629
vt 0.059531 0.220324
vt 0.077038 0.022046
vt 0.148991 0.027793
vt 0.009169 0.224299
vt 0.004066 0.021455
vt 0.173558 0.232063
vt 0.211498 0.043771
vt 0.982461 0.413082
vt 0.980098 0.467029
vt 0.873502 0.460775
vt 0.878550 0.399192
vt 0.986468 0.319448
vt 0.982871 0.362190
vt 0.891506 0.339493
vt 0.912778 0.277731
vt 0.308996 0.358052
vt 0.298996 0.448230
vt 0.239808 0.421683
vt 0.257731 0.341073
vt 0.049162 0.693334
vt 0.007773 0.693797
vt 0.067513 0.609804
vt 0.034485 0.756582
vt 0.768023 0.391539
vt 0.775770 0.471714
vt 0.689378 0.478955
vt 0.696594 0.389613
vt 0.513677 0.240191
vt 0.419616 0.222561
vt 0.455697 0.115298
vt 0.540085 0.129169
vt 0.338328 0.232516
vt 0.099843 0.460444
vt 0.149943 0.462659
vt 0.557035 0.619223
vt 0.593728 0.604281
vt 0.551640 0.566094
vt 0.614048 0.571065
vt 0.595933 0.519276
vt 0.518128 0.518126
vt 0.486930 0.554330
vt 0.510489 0.600547
vt 0.354829 0.927255
vt 0.405361 0.915538
vt 0.390975 0.963781
vt 0.355942 0.959382
vt 0.786684 0.606056
vt 0.785683 0.716052
vt 0.729273 0.717462
vt 0.719490 0.610902
vt 0.656446 0.629563
vt 0.647416 0.707228
vt 0.788327 0.804431
vt 0.741371 0.806675
vt 0.663948 0.770150
vt 0.764284 0.900183
vt 0.795219 0.897272
vt 0.796138 0.939943
vt 0.779190 0.955016
vt 0.740225 0.910759
vt 0.896443 0.726492
vt 0.859674 0.720982
vt 0.879423 0.633505
vt 0.914250 0.648475
vt 0.991368 0.727445
vt 0.947573 0.737539
vt 0.939658 0.656190
vt 0.989278 0.663397
vt 0.885932 0.820144
vt 0.850293 0.808825
vt 0.973469 0.774887
vt 0.875372 0.905430
vt 0.875690 0.945934
vt 0.850101 0.931823
vt 0.845700 0.900151
vt 0.927553 0.926176
vt 0.877768 0.977529
vt 0.905098 0.916424
vt 0.622514 0.716172
vt 0.618199 0.639044
vt 0.837739 0.612335
vt 0.820668 0.718302
vt 0.639267 0.773593
vt 0.820866 0.803740
vt 0.685191 0.826786
vt 0.719740 0.933874
vt 0.661674 0.847876
vt 0.824797 0.962442
vt 0.775208 0.987160
vt 0.913832 0.827269
vt 0.854720 0.554235
vt 0.792087 0.499617
vt 0.912154 0.566934
vt 0.822247 0.896806
vt 0.816563 0.282390
vt 0.814142 0.317275
vt 0.393871 0.191209
vt 0.401960 0.202201
vt 0.555339 0.894176
vt 0.546045 0.978580
vt 0.476506 0.971380
vt 0.483499 0.888627
vt 0.943244 0.834302
vt 0.722994 0.539062
vt 0.628605 0.567290
vt 0.257951 0.241986
vt 0.153731 0.666887
vt 0.164425 0.621927
vt 0.183915 0.617221
vt 0.186677 0.657548
vt 0.219400 0.617097
vt 0.259297 0.574784
vt 0.261916 0.615028
vt 0.222932 0.660377
vt 0.270599 0.663810
vt 0.388300 0.586178
vt 0.435894 0.597607
vt 0.391956 0.604421
vt 0.402103 0.628603
vt 0.215926 0.420440
vt 0.254827 0.444481
vt 0.219755 0.492250
vt 0.325424 0.556982
vt 0.261136 0.547578
vt 0.245780 0.514791
vt 0.337348 0.533669
vt 0.273790 0.461681
vt 0.304668 0.474531
vt 0.279570 0.490157
vt 0.401730 0.551396
vt 0.435582 0.571100
vt 0.391422 0.564675
vt 0.419602 0.523043
vt 0.457708 0.550586
vt 0.443231 0.557196
vt 0.413685 0.534285
vt 0.171772 0.687830
vt 0.197672 0.676176
vt 0.195082 0.541828
vt 0.181137 0.570065
vt 0.162952 0.546627
vt 0.225578 0.670898
vt 0.272469 0.676307
vt 0.320521 0.570203
vt 0.319492 0.582737
vt 0.258639 0.563427
vt 0.337143 0.653896
vt 0.413070 0.643610
vt 0.341533 0.665919
vt 0.449213 0.607159
vt 0.352191 0.511553
vt 0.324075 0.614152
vt 0.388442 0.575765
vt 0.362200 0.496917
vt 0.436742 0.582206
vt 0.329172 0.057173
vt 0.329688 0.137165
vt 0.278240 0.123082
vt 0.337580 0.007257
vt 0.413855 0.013756
vt 0.393732 0.090745
vt 0.459566 0.567393
vt 0.858045 0.236488
vt 0.481456 0.027551
vt 0.565884 0.043754
vt 0.648667 0.071337
vt 0.628389 0.149456
vt 0.180627 0.462195
vt 0.375168 0.168214
vt 0.222146 0.250599
vt 0.157983 0.506571
vt 0.221040 0.575174
vt 0.224197 0.553986
vt 0.456839 0.592945
vt 0.602598 0.261030
vt 0.572769 0.478265
vt 0.584045 0.371881
vt 0.533705 0.743745
vt 0.556728 0.819956
vt 0.277630 0.847403
vt 0.266615 0.826887
vt 0.156206 0.564789
vt 0.799132 0.016203
vt 0.813775 0.086813
vt 0.865912 0.022420
vt 0.922851 0.027457
vt 0.903689 0.122728
vt 0.981606 0.028615
vt 0.971176 0.157239
vt 0.897796 0.126606
vt 0.902273 0.025906
vt 0.764529 0.110957
vt 0.741771 0.187632
vt 0.708515 0.260974
vt 0.798865 0.206456
vt 0.831590 0.144900
vt 0.889534 0.181890
vt 0.708285 0.296149
vt 0.489675 0.370103
vt 0.396914 0.363631
vt 0.764203 0.313138
vt 0.259172 0.884287
vt 0.270499 0.952933
vt 0.227197 0.944639
vt 0.741282 0.017968
vt 0.784551 0.075571
vt 0.699393 0.019016
vt 0.726816 0.051842
vt 0.389060 0.681333
vt 0.400631 0.866595
vt 0.631103 0.902231
vt 0.616770 0.981802
vt 0.598503 0.718361
vt 0.626568 0.810163
vt 0.314555 0.955655
vt 0.432543 0.968365
vt 0.937446 0.227171
vt 0.981257 0.025822
vt 0.970827 0.154446
vt 0.106568 0.611345
vt 0.479163 0.493165
vt 0.376136 0.475857
vt 0.456053 0.690834
vt 0.031812 0.815431
vt 0.015679 0.838623
vt 0.682235 0.035796
vt 0.075282 0.710240
vt 0.515881 0.682899
vt 0.682856 0.038100
vt 0.578121 0.659564
vt 0.989072 0.260236
vt 0.284438 0.061086
vt 0.038585 0.924965
vt 0.017640 0.858058
vt 0.138262 0.859698
vt 0.038585 0.924965
vt 0.017640 0.858058
vt 0.138262 0.859698
vt 0.038585 0.924965
vt 0.017640 0.858058
vt 0.138262 0.859698
vt 0.038585 0.924965
vt 0.017640 0.858058
vt 0.138262 0.859698
vt 0.038585 0.924965
vt 0.017640 0.858058
vt 0.138262 0.859698
vt 0.038585 0.924965
vt 0.017640 0.858058
vt 0.138262 0.859698
vt 0.038585 0.924965
vt 0.017640 0.858058
vt 0.138262 0.859698
vt 0.038585 0.924965
vt 0.017640 0.858058
vt 0.138262 0.859698
vt 0.038585 0.924965
vt 0.017640 0.858058
vt 0.138262 0.859698
vt 0.038585 0.924965
vt 0.017640 0.858058
vt 0.138262 0.859698
vt 0.038585 0.924965
vt 0.017640 0.858058
vt 0.138262 0.859698
vt 0.038585 0.924965
vt 0.017640 0.858058
vt 0.138262 0.859698
vt 0.038585 0.924965
vt 0.017640 0.858058
vt 0.138262 0.859698
vt 0.038585 0.924965
vt 0.017640 0.858058
vt 0.138262 0.859698
vt 0.038585 0.924965
vt 0.017640 0.858058
vt 0.138262 0.859698
vt 0.038585 0.924965
vt 0.017640 0.858058
vt 0.138262 0.859698
vt 0.038585 0.924965
vt 0.017640 0.858058
vt 0.138262 0.859698
vt 0.038585 0.924965
vt 0.017640 0.858058
vt 0.138262 0.859698
vt 0.038585 0.924965
vt 0.017640 0.858058
vt 0.138262 0.859698
vt 0.038585 0.924965
vt 0.017640 0.858058
vt 0.138262 0.859698
vt 0.038585 0.924965
vt 0.017640 0.858058
vt 0.138262 0.859698
vt 0.038585 0.924965
vt 0.017640 0.858058
vt 0.138262 0.859698
vt 0.017640 0.858058
vt 0.138262 0.859698
vt 0.042030 0.921628
vt 0.165852 0.904828
vt 0.100094 0.930572
vt 0.740636 0.019818
vt 0.702721 0.019758
vt 0.155358 0.878150
vt 0.090936 0.906286
vt 0.319204 0.899957
vt 0.295903 0.878674
vt 0.295284 0.896528
vt 0.276655 0.883811
vt 0.301300 0.857453
vt 0.280704 0.865369
vt 0.336097 0.865688
vt 0.337243 0.889234
vt 0.100319 0.815834
vt 0.059096 0.830000
vt 0.051200 0.842426
vt 0.100108 0.831257
vt 0.373986 0.817163
vt 0.390229 0.755452
vt 0.303787 0.754401
vt 0.303345 0.807909
vt 0.178520 0.820264
vt 0.242014 0.809686
vt 0.240318 0.771473
vt 0.173881 0.789117
vt 0.059100 0.948468
vt 0.854732 0.018242
vt 0.799028 0.014495
vt 0.045863 0.938966
vt 0.480389 0.832725
vt 0.467675 0.751006
vt 0.223840 0.892458
vt 0.215690 0.852053
vt 0.378802 0.831407
vt 0.048849 0.460312
vt 0.119936 0.225629
vt 0.148991 0.027793
vt 0.077038 0.022046
vt 0.059531 0.220324
vt 0.173558 0.232063
vt 0.211498 0.043771
vt 0.982461 0.413082
vt 0.878550 0.399192
vt 0.986468 0.319448
vt 0.912778 0.277731
vt 0.891506 0.339493
vt 0.982871 0.362190
vt 0.308996 0.358052
vt 0.257731 0.341073
vt 0.049162 0.693334
vt 0.067513 0.609804
vt 0.768023 0.391539
vt 0.696594 0.389613
vt 0.513677 0.240191
vt 0.540085 0.129169
vt 0.455697 0.115298
vt 0.419616 0.222561
vt 0.338328 0.232516
vt 0.099843 0.460444
vt 0.557035 0.619223
vt 0.551640 0.566094
vt 0.593728 0.604281
vt 0.614048 0.571065
vt 0.595933 0.519276
vt 0.518128 0.518126
vt 0.486930 0.554330
vt 0.510489 0.600547
vt 0.354829 0.927255
vt 0.405361 0.915538
vt 0.786684 0.606056
vt 0.719490 0.610902
vt 0.729273 0.717462
vt 0.785683 0.716052
vt 0.656446 0.629563
vt 0.647416 0.707228
vt 0.741371 0.806675
vt 0.788327 0.804431
vt 0.663948 0.770150
vt 0.764284 0.900183
vt 0.779190 0.955016
vt 0.796138 0.939943
vt 0.795219 0.897272
vt 0.740225 0.910759
vt 0.896443 0.726492
vt 0.914250 0.648475
vt 0.879423 0.633505
vt 0.859674 0.720982
vt 0.991368 0.727445
vt 0.989278 0.663397
vt 0.939658 0.656190
vt 0.947573 0.737539
vt 0.885932 0.820144
vt 0.850293 0.808825
vt 0.973469 0.774887
vt 0.875372 0.905430
vt 0.845700 0.900151
vt 0.850101 0.931823
vt 0.875690 0.945934
vt 0.927553 0.926176
vt 0.905098 0.916424
vt 0.877768 0.977529
vt 0.618199 0.639044
vt 0.622514 0.716172
vt 0.820668 0.718302
vt 0.837739 0.612335
vt 0.639267 0.773593
vt 0.820866 0.803740
vt 0.685191 0.826786
vt 0.661674 0.847876
vt 0.719740 0.933874
vt 0.775208 0.987160
vt 0.824797 0.962442
vt 0.913832 0.827269
vt 0.854720 0.554235
vt 0.792087 0.499617
vt 0.912154 0.566934
vt 0.822247 0.896806
vt 0.816563 0.282390
vt 0.814142 0.317275
vt 0.393871 0.191209
vt 0.401960 0.202201
vt 0.555339 0.894176
vt 0.483499 0.888627
vt 0.943244 0.834302
vt 0.722994 0.539062
vt 0.628605 0.567290
vt 0.257951 0.241986
vt 0.153731 0.666887
vt 0.186677 0.657548
vt 0.183915 0.617221
vt 0.164425 0.621927
vt 0.219400 0.617097
vt 0.261916 0.615028
vt 0.259297 0.574784
vt 0.222932 0.660377
vt 0.270599 0.663810
vt 0.388300 0.586178
vt 0.391956 0.604421
vt 0.435894 0.597607
vt 0.402103 0.628603
vt 0.215926 0.420440
vt 0.219755 0.492250
vt 0.254827 0.444481
vt 0.325424 0.556982
vt 0.337348 0.533669
vt 0.245780 0.514791
vt 0.261136 0.547578
vt 0.273790 0.461681
vt 0.279570 0.490157
vt 0.304668 0.474531
vt 0.401730 0.551396
vt 0.391422 0.564675
vt 0.435582 0.571100
vt 0.419602 0.523043
vt 0.413685 0.534285
vt 0.443231 0.557196
vt 0.457708 0.550586
vt 0.171772 0.687830
vt 0.197672 0.676176
vt 0.195082 0.541828
vt 0.162952 0.546627
vt 0.181137 0.570065
vt 0.225578 0.670898
vt 0.272469 0.676307
vt 0.320521 0.570203
vt 0.258639 0.563427
vt 0.319492 0.582737
vt 0.337143 0.653896
vt 0.341533 0.665919
vt 0.413070 0.643610
vt 0.449213 0.607159
vt 0.352191 0.511553
vt 0.324075 0.614152
vt 0.388442 0.575765
vt 0.362200 0.496917
vt 0.436742 0.582206
vt 0.329172 0.057173
vt 0.278240 0.123082
vt 0.329688 0.137165
vt 0.393732 0.090745
vt 0.459566 0.567393
vt 0.858045 0.236488
vt 0.628389 0.149456
vt 0.180627 0.462195
vt 0.375168 0.168214
vt 0.157983 0.506571
vt 0.221040 0.575174
vt 0.224197 0.553986
vt 0.456839 0.592945
vt 0.602598 0.261030
vt 0.584045 0.371881
vt 0.556728 0.819956
vt 0.533705 0.743745
vt 0.266615 0.826887
vt 0.277630 0.847403
vt 0.156206 0.564789
vt 0.799132 0.016203
vt 0.865912 0.022420
vt 0.922851 0.027457
vt 0.981606 0.028615
vt 0.902273 0.025906
vt 0.741771 0.187632
vt 0.708515 0.260974
vt 0.798865 0.206456
vt 0.708285 0.296149
vt 0.396914 0.363631
vt 0.489675 0.370103
vt 0.764203 0.313138
vt 0.259172 0.884287
vt 0.741282 0.017968
vt 0.699393 0.019016
vt 0.400631 0.866595
vt 0.631103 0.902231
vt 0.626568 0.810163
vt 0.598503 0.718361
vt 0.981257 0.025822
vt 0.038585 0.924965
vt 0.138262 0.859698
vt 0.017640 0.858058
vt 0.038585 0.924965
vt 0.138262 0.859698
vt 0.017640 0.858058
vt 0.038585 0.924965
vt 0.138262 0.859698
vt 0.017640 0.858058
vt 0.038585 0.924965
vt 0.138262 0.859698
vt 0.017640 0.858058
vt 0.038585 0.924965
vt 0.138262 0.859698
vt 0.017640 0.858058
vt 0.038585 0.924965
vt 0.138262 0.859698
vt 0.017640 0.858058
vt 0.038585 0.924965
vt 0.138262 0.859698
vt 0.017640 0.858058
vt 0.038585 0.924965
vt 0.138262 0.859698
vt 0.017640 0.858058
vt 0.038585 0.924965
vt 0.138262 0.859698
vt 0.017640 0.858058
vt 0.038585 0.924965
vt 0.138262 0.859698
vt 0.017640 0.858058
vt 0.038585 0.924965
vt 0.138262 0.859698
vt 0.017640 0.858058
vt 0.038585 0.924965
vt 0.138262 0.859698
vt 0.017640 0.858058
vt 0.038585 0.924965
vt 0.138262 0.859698
vt 0.017640 0.858058
vt 0.038585 0.924965
vt 0.138262 0.859698
vt 0.017640 0.858058
vt 0.038585 0.924965
vt 0.138262 0.859698
vt 0.017640 0.858058
vt 0.038585 0.924965
vt 0.138262 0.859698
vt 0.017640 0.858058
vt 0.038585 0.924965
vt 0.138262 0.859698
vt 0.017640 0.858058
vt 0.038585 0.924965
vt 0.138262 0.859698
vt 0.017640 0.858058
vt 0.038585 0.924965
vt 0.138262 0.859698
vt 0.017640 0.858058
vt 0.038585 0.924965
vt 0.138262 0.859698
vt 0.017640 0.858058
vt 0.038585 0.924965
vt 0.138262 0.859698
vt 0.017640 0.858058
vt 0.038585 0.924965
vt 0.138262 0.859698
vt 0.017640 0.858058
vt 0.017640 0.858058
vt 0.138262 0.859698
vn 0.00000 0.99580 -0.09160
vn -0.00000 0.99810 -0.06159
vn 0.66592 0.73456 -0.13032
vn 0.67358 0.70878 -0.20960
vn -0.29926 0.95333 0.04013
vn 0.00000 0.99872 -0.05063
vn 0.00000 0.99647 0.08390
vn -0.26810 0.95965 0.08484
vn 0.87457 0.44653 -0.18906
vn 0.87120 0.43697 -0.22373
vn 0.80280 0.58627 -0.10867
vn 0.68910 0.72093 -0.07348
vn 0.88623 0.46265 -0.02360
vn 0.87098 0.45342 0.18922
vn 0.61622 0.78373 -0.07776
vn 0.67449 0.72821 0.12157
vn 0.81642 0.52935 -0.23076
vn 0.88092 0.43946 -0.17565
vn 0.72682 -0.64971 -0.22275
vn 0.94401 -0.18450 -0.27350
vn 0.76311 -0.43107 -0.48150
vn 0.57381 -0.75222 -0.32389
vn 0.96772 -0.25130 0.01901
vn 0.85191 -0.51697 -0.08362
vn 0.59343 -0.80273 -0.05886
vn 0.54303 -0.83680 0.06987
vn 0.90444 -0.38551 -0.18268
vn 0.54558 -0.83217 -0.09915
vn 0.70706 -0.69810 -0.11277
vn 0.84165 -0.52247 -0.13657
vn -0.00000 -0.99542 -0.09555
vn 0.00000 -0.99690 -0.07868
vn 0.00000 -0.99650 -0.08359
vn -0.00000 -0.99918 -0.04041
vn 0.55694 0.73532 -0.38616
vn 0.00000 0.89110 -0.45381
vn -0.14394 -0.98931 -0.02361
vn -0.24056 -0.96959 0.04506
vn -0.00000 -0.99999 0.00440
vn 0.00000 0.62136 -0.78352
vn 0.77770 0.49453 -0.38810
vn 0.64357 -0.76514 -0.01913
vn 0.97900 0.16635 -0.11785
vn 0.89230 0.37514 -0.25113
vn 0.61873 0.75688 -0.21050
vn 0.85887 0.50793 -0.06597
vn 0.48878 0.86538 0.11048
vn -0.00000 0.98843 0.15167
vn -0.00000 0.99175 0.12822
vn 0.97830 -0.14464 0.14835
vn 0.55490 0.82086 0.13519
vn 0.65633 0.73196 0.18296
vn 0.96925 -0.15841 0.18833
vn 0.00000 0.99036 0.13850
vn 0.00000 0.98100 0.19399
vn 0.46458 -0.87892 0.10797
vn 0.56280 -0.81069 0.16136
vn 0.65633 0.73196 0.18296
vn 0.00000 0.98100 0.19399
vn 0.00000 0.96213 0.27258
vn 0.78737 0.56806 0.23949
vn 0.56280 -0.81069 0.16136
vn 0.96925 -0.15841 0.18833
vn 0.92473 -0.16335 0.34378
vn 0.39590 -0.86287 0.31421
vn 0.67821 0.73407 -0.03424
vn -0.00000 0.99940 -0.03476
vn 0.00000 0.99765 -0.06848
vn 0.65967 0.75033 -0.04285
vn 0.93262 0.01270 0.36064
vn -0.00000 0.94003 0.34109
vn 0.98844 0.01510 0.15087
vn -0.00000 0.00984 0.99995
vn 0.67409 0.69873 0.23953
vn -0.00000 0.96600 0.25852
vn -0.00000 0.98565 0.16882
vn 0.72360 0.68250 0.10296
vn 0.99668 -0.06293 0.05161
vn 0.97116 0.11851 0.20689
vn 0.59678 -0.80239 -0.00535
vn 0.58517 -0.81035 0.03007
vn 0.89393 0.44215 -0.07346
vn 0.96717 0.21613 0.13366
vn -0.00000 -0.99708 0.07635
vn 0.65514 0.75352 -0.05469
vn 0.68128 0.65825 -0.32027
vn 0.86672 0.49641 -0.04880
vn 0.80376 0.44481 -0.39511
vn 0.93990 0.25041 -0.23214
vn 0.96982 0.21687 0.11145
vn 0.87933 0.34030 0.33314
vn 0.76550 0.59703 0.23990
vn 0.32813 0.93368 -0.14341
vn 0.53588 0.84312 -0.04444
vn 0.00000 0.99255 -0.12185
vn -0.00000 0.99336 -0.11504
vn 0.52792 0.53824 -0.65696
vn 0.05433 0.79272 -0.60716
vn 0.08090 0.98946 -0.12009
vn 0.58034 0.80089 -0.14757
vn 0.40975 0.78052 0.47211
vn -0.04336 0.88046 0.47213
vn 0.14669 0.84271 -0.51800
vn 0.08087 0.99243 -0.09238
vn 0.07614 0.82842 0.55490
vn 0.08962 0.99523 -0.03854
vn 0.21474 0.79775 -0.56345
vn 0.28064 0.86772 -0.41025
vn 0.27930 0.95418 0.10742
vn 0.04397 0.94123 0.33488
vn -0.02299 -0.99957 0.01841
vn 0.01172 -0.98443 -0.17538
vn 0.16303 -0.95657 -0.24165
vn 0.24672 -0.96906 0.00673
vn -0.27832 -0.03245 0.95994
vn -0.04244 -0.96776 0.24828
vn 0.11429 -0.93214 0.34360
vn -0.09248 -0.38433 0.91855
vn 0.03227 -0.99948 0.00194
vn 0.07997 -0.98248 -0.16834
vn 0.09449 -0.46825 0.87853
vn 0.05011 -0.97953 0.19497
vn 0.13472 -0.94701 0.29159
vn 0.17092 -0.97612 -0.13411
vn 0.08125 -0.98343 -0.16206
vn 0.13591 0.15328 0.97879
vn 0.76072 -0.15254 0.63091
vn 0.04620 -0.86961 0.49157
vn -0.27832 -0.03245 0.95994
vn -0.09248 -0.38433 0.91855
vn 0.24400 -0.37864 -0.89280
vn 0.05721 -0.21648 -0.97461
vn 0.09449 -0.46825 0.87853
vn 0.31221 0.00184 -0.95001
vn 0.05865 0.87746 0.47606
vn 0.13591 0.15328 0.97879
vn 0.18844 -0.24280 0.95160
vn 0.72177 0.04412 -0.69073
vn 0.76072 -0.15254 0.63091
vn 0.06482 -0.94749 0.31314
vn 0.50200 -0.46253 -0.73079
vn 0.89425 0.02569 -0.44683
vn 0.44702 -0.85241 -0.27123
vn 0.30850 -0.65398 -0.69075
vn 0.69619 -0.50155 0.51358
vn 0.85629 0.39500 0.33279
vn 0.11429 -0.93214 0.34360
vn -0.09248 -0.38433 0.91855
vn 0.56485 0.82459 0.03151
vn 0.00000 0.99993 -0.01154
vn 0.00000 0.99684 0.07945
vn 0.69664 0.71485 -0.06070
vn 0.18844 -0.24280 0.95160
vn 0.89393 0.44215 -0.07346
vn 0.97116 0.11851 0.20689
vn 0.89425 0.02569 -0.44683
vn 0.85629 0.39500 0.33279
vn 0.82232 0.55643 0.11906
vn 0.30763 0.94978 0.05729
vn 0.27332 0.65537 0.70412
vn 0.00334 0.99799 -0.06325
vn 0.12392 0.89200 -0.43473
vn 0.07611 0.98375 -0.16261
vn -0.22359 0.84535 0.48518
vn -0.06518 0.88737 0.45642
vn 0.23254 0.86049 -0.45331
vn 0.33559 0.93173 0.13875
vn 0.10419 0.99095 0.08460
vn 0.10133 0.88151 0.46117
vn 0.69619 -0.50155 0.51358
vn 0.32809 -0.51799 0.78996
vn 0.41223 -0.90675 0.08873
vn 0.08657 -0.96654 -0.24145
vn -0.00195 -0.97782 -0.20945
vn -0.03108 -0.99940 -0.01501
vn 0.01283 -0.99988 -0.00891
vn -0.46222 -0.07607 0.88350
vn -0.18131 -0.32179 0.92929
vn -0.11215 -0.96188 0.24942
vn 0.05086 -0.99836 0.02640
vn 0.26839 -0.95593 -0.11906
vn 0.14760 -0.95830 -0.24469
vn 0.19595 0.22488 0.95448
vn 0.50299 -0.04669 0.86303
vn 0.20642 -0.92203 0.32749
vn 0.08164 -0.89173 0.44513
vn 0.69619 -0.50155 0.51358
vn 0.32809 -0.51799 0.78996
vn 0.53082 -0.49158 -0.69035
vn 0.66116 0.68887 -0.29721
vn 0.96128 -0.27553 -0.00459
vn -0.46222 -0.07607 0.88350
vn -0.18131 -0.32179 0.92929
vn 0.28354 0.44619 -0.84883
vn 0.12276 0.89951 -0.41930
vn 0.17327 -0.18636 -0.96708
vn 0.05983 0.89349 0.44509
vn 0.19595 0.22488 0.95448
vn 0.03806 -0.00977 0.99923
vn 0.50299 -0.04669 0.86303
vn -0.02113 -0.94066 0.33870
vn 0.07450 0.99492 -0.06764
vn 0.44117 -0.42889 -0.78830
vn 0.03806 -0.00977 0.99923
vn 0.71397 -0.10321 -0.69253
vn 0.39850 -0.68543 -0.60942
vn 0.50200 -0.46253 -0.73079
vn 0.89425 0.02569 -0.44683
vn 0.00000 -0.85192 -0.52367
vn 0.00000 -0.90246 -0.43076
vn 0.28027 -0.86953 -0.40666
vn 0.88804 -0.42367 0.17857
vn 0.27625 -0.90727 0.31710
vn -0.00000 -0.98524 -0.17119
vn -0.00000 -0.99992 0.01277
vn -0.00000 -0.99567 0.09292
vn 0.53447 -0.83930 0.09960
vn 0.28366 -0.92871 0.23881
vn 0.44702 -0.85241 -0.27123
vn -0.00000 -0.99588 0.09066
vn 0.45917 -0.88339 0.09376
vn 0.02285 0.81628 -0.57721
vn -0.06854 -0.61872 -0.78262
vn 0.88804 -0.42367 0.17857
vn 0.99194 -0.10555 0.07016
vn -0.00000 0.99712 0.07578
vn 0.78923 0.60994 0.07134
vn 0.62857 -0.66735 -0.39942
vn 0.98425 0.07143 -0.16170
vn 0.81794 0.57431 -0.03363
vn 0.98259 0.16600 -0.08347
vn 0.91929 0.38951 0.05643
vn -0.14992 0.98308 -0.10522
vn 0.00000 0.99440 -0.10572
vn -0.11332 0.98890 -0.09605
vn -0.20537 0.97477 -0.08744
vn 0.00000 0.99257 -0.12166
vn -0.12313 0.98180 -0.14461
vn 0.00000 0.95880 -0.28410
vn 0.00000 -0.99680 -0.07988
vn -0.06442 -0.99685 -0.04631
vn 0.00000 -0.97592 0.21814
vn 0.45917 -0.88339 0.09376
vn 0.96128 -0.27553 -0.00459
vn 0.28366 -0.92871 0.23881
vn -0.00000 -0.97396 0.22671
vn -0.00000 -0.94264 0.33381
vn 0.91929 0.38951 0.05643
vn 0.71784 0.69287 0.06804
vn 0.65074 0.75834 0.03805
vn 0.82232 0.55643 0.11906
vn 0.67955 0.72123 -0.13430
vn 0.00000 0.94945 -0.31392
vn 0.00000 0.97386 -0.22717
vn -0.27004 -0.96276 -0.01271
vn -0.00000 -0.99956 0.02969
vn -0.20614 -0.97844 -0.01280
vn 0.00000 -0.99993 -0.01187
vn -0.00000 -0.99872 0.05062
vn 0.82114 0.55349 -0.13922
vn 0.65967 0.75033 -0.04285
vn 0.00000 0.99765 -0.06848
vn 0.39850 -0.68543 -0.60942
vn 0.89425 0.02569 -0.44683
vn 0.00000 0.98690 -0.16132
vn -0.00000 0.99960 0.02815
vn 0.00000 -0.96228 0.27206
vn -0.06081 -0.99274 -0.10378
vn 0.00000 -0.99106 -0.13345
vn 0.00000 -0.99926 0.03834
vn -0.00000 0.99743 0.07163
vn 0.00000 0.99983 0.01859
vn -0.00000 -0.99560 -0.09366
vn -0.00000 -0.85872 -0.51244
vn -0.00000 -0.74283 -0.66948
vn 0.00000 0.99423 0.10726
vn 0.00000 -0.95507 0.29639
vn 0.00000 -0.90295 -0.42975
vn 0.00000 -0.99942 0.03393
vn 0.00000 -0.85192 -0.52367
vn -0.00000 -0.99106 0.13339
vn -0.00000 -0.99106 0.13339
vn 0.94536 -0.17035 -0.27799
vn 0.92892 -0.16278 -0.33259
vn 0.94536 -0.17035 -0.27799
vn 0.92892 -0.16278 -0.33259
vn 0.77406 -0.12638 -0.62037
vn 0.90940 -0.15466 -0.38609
vn 0.77406 -0.12638 -0.62037
vn 0.58144 -0.08875 -0.80874
vn 0.58144 -0.08875 -0.80874
vn 0.97195 -0.14264 -0.18698
vn 0.97195 -0.14264 -0.18698
vn 0.97195 -0.14264 -0.18698
vn 0.96668 -0.10536 -0.23328
vn 0.96733 -0.14138 -0.21042
vn 0.96733 -0.14138 -0.21042
vn 0.96428 -0.06914 -0.25572
vn 0.96668 -0.10536 -0.23328
vn 0.96428 -0.06914 -0.25572
vn 0.95029 -0.13813 -0.27905
vn 0.95029 -0.13813 -0.27905
vn 0.95029 -0.13813 -0.27905
vn 0.93847 -0.21348 -0.27147
vn 0.93847 -0.21348 -0.27147
vn 0.93847 -0.21348 -0.27147
vn 0.93423 -0.20002 -0.29530
vn 0.93423 -0.20002 -0.29530
vn 0.93423 -0.20002 -0.29530
vn 0.95129 -0.22617 -0.20950
vn 0.95129 -0.22617 -0.20950
vn 0.95129 -0.22617 -0.20950
vn 0.93283 0.09839 -0.34662
vn 0.93283 0.09839 -0.34662
vn 0.93283 0.09839 -0.34662
vn 0.90378 0.32952 -0.27314
vn 0.90378 0.32952 -0.27314
vn 0.90378 0.32952 -0.27314
vn 0.97995 0.12587 -0.15446
vn 0.97995 0.12587 -0.15446
vn 0.97995 0.12587 -0.15446
vn 0.97596 -0.09024 -0.19837
vn 0.97596 -0.09024 -0.19837
vn 0.97596 -0.09024 -0.19837
vn 0.97690 -0.15364 -0.14854
vn 0.97690 -0.15364 -0.14854
vn 0.97690 -0.15364 -0.14854
vn 0.95681 -0.09446 -0.27494
vn 0.95681 -0.09446 -0.27494
vn 0.95681 -0.09446 -0.27494
vn 0.95545 0.09883 -0.27812
vn 0.95545 0.09883 -0.27812
vn 0.95545 0.09883 -0.27812
vn 0.94489 -0.00665 -0.32733
vn 0.95735 0.03116 -0.28724
vn 0.95735 0.03116 -0.28724
vn 0.92940 -0.04444 -0.36638
vn 0.94489 -0.00665 -0.32733
vn 0.92940 -0.04444 -0.36638
vn 0.94918 -0.21302 -0.23169
vn 0.94918 -0.21302 -0.23169
vn 0.94918 -0.21302 -0.23169
vn 0.97199 -0.10975 -0.20783
vn 0.97199 -0.10975 -0.20783
vn 0.97199 -0.10975 -0.20783
vn 0.95367 -0.08016 -0.28997
vn 0.95367 -0.08016 -0.28997
vn 0.95367 -0.08016 -0.28997
vn 0.55016 -0.00137 -0.83506
vn 0.55016 -0.00137 -0.83506
vn 0.00614 -0.00548 -0.99997
vn -0.67357 0.70878 -0.20960
vn -0.66592 0.73456 -0.13032
vn 0.29926 0.95333 0.04013
vn 0.26810 0.95965 0.08484
vn -0.87120 0.43697 -0.22373
vn -0.87457 0.44653 -0.18906
vn -0.80280 0.58627 -0.10867
vn -0.88623 0.46265 -0.02360
vn -0.68910 0.72093 -0.07348
vn -0.87098 0.45342 0.18922
vn -0.61622 0.78373 -0.07776
vn -0.67449 0.72821 0.12157
vn -0.81642 0.52935 -0.23076
vn -0.88092 0.43946 -0.17566
vn -0.72682 -0.64971 -0.22275
vn -0.57381 -0.75222 -0.32389
vn -0.76311 -0.43107 -0.48150
vn -0.94401 -0.18450 -0.27350
vn -0.96772 -0.25130 0.01901
vn -0.54303 -0.83680 0.06987
vn -0.59343 -0.80273 -0.05886
vn -0.85191 -0.51697 -0.08362
vn -0.90444 -0.38551 -0.18268
vn -0.84165 -0.52247 -0.13657
vn -0.70706 -0.69810 -0.11277
vn -0.54558 -0.83217 -0.09915
vn -0.55694 0.73532 -0.38616
vn 0.14394 -0.98931 -0.02361
vn 0.24056 -0.96959 0.04506
vn -0.77770 0.49453 -0.38810
vn -0.97900 0.16635 -0.11785
vn -0.64357 -0.76514 -0.01913
vn -0.61873 0.75688 -0.21050
vn -0.89230 0.37514 -0.25114
vn -0.85887 0.50793 -0.06597
vn -0.48878 0.86538 0.11048
vn -0.97830 -0.14464 0.14835
vn -0.96925 -0.15841 0.18833
vn -0.65633 0.73196 0.18296
vn -0.55490 0.82086 0.13519
vn -0.46458 -0.87892 0.10797
vn -0.56280 -0.81069 0.16136
vn -0.65633 0.73196 0.18296
vn -0.78737 0.56806 0.23949
vn -0.56280 -0.81069 0.16136
vn -0.39590 -0.86287 0.31421
vn -0.92473 -0.16335 0.34378
vn -0.96925 -0.15841 0.18833
vn -0.67821 0.73407 -0.03424
vn -0.65967 0.75033 -0.04285
vn -0.93262 0.01270 0.36064
vn -0.98844 0.01510 0.15087
vn -0.67409 0.69873 0.23953
vn -0.72360 0.68250 0.10296
vn -0.99668 -0.06293 0.05161
vn -0.58517 -0.81035 0.03007
vn -0.59678 -0.80239 -0.00535
vn -0.97116 0.11851 0.20689
vn -0.89393 0.44215 -0.07346
vn -0.96717 0.21613 0.13366
vn -0.65514 0.75352 -0.05469
vn -0.86672 0.49641 -0.04880
vn -0.68128 0.65825 -0.32027
vn -0.80376 0.44481 -0.39511
vn -0.93990 0.25041 -0.23214
vn -0.96982 0.21687 0.11145
vn -0.87933 0.34030 0.33314
vn -0.76551 0.59703 0.23990
vn -0.32813 0.93368 -0.14341
vn -0.53588 0.84312 -0.04444
vn -0.52792 0.53824 -0.65696
vn -0.58034 0.80089 -0.14757
vn -0.08090 0.98946 -0.12009
vn -0.05433 0.79272 -0.60716
vn -0.40975 0.78052 0.47211
vn 0.04336 0.88046 0.47213
vn -0.08087 0.99243 -0.09238
vn -0.14669 0.84271 -0.51800
vn -0.07614 0.82842 0.55490
vn -0.08961 0.99523 -0.03854
vn -0.27930 0.95418 0.10742
vn -0.28063 0.86772 -0.41025
vn -0.21474 0.79775 -0.56345
vn -0.04397 0.94123 0.33488
vn 0.02299 -0.99957 0.01841
vn -0.24672 -0.96906 0.00673
vn -0.16303 -0.95657 -0.24165
vn -0.01172 -0.98443 -0.17538
vn 0.27832 -0.03245 0.95994
vn 0.09248 -0.38433 0.91855
vn -0.11429 -0.93214 0.34359
vn 0.04244 -0.96776 0.24828
vn -0.03227 -0.99948 0.00194
vn -0.07997 -0.98248 -0.16834
vn -0.09449 -0.46825 0.87853
vn -0.05011 -0.97953 0.19497
vn -0.08125 -0.98343 -0.16206
vn -0.17092 -0.97612 -0.13411
vn -0.13472 -0.94701 0.29159
vn -0.13591 0.15328 0.97879
vn -0.04620 -0.86961 0.49157
vn -0.76072 -0.15254 0.63090
vn 0.09248 -0.38433 0.91855
vn 0.27832 -0.03245 0.95994
vn -0.05721 -0.21648 -0.97461
vn -0.24400 -0.37864 -0.89280
vn -0.09449 -0.46825 0.87853
vn -0.31221 0.00183 -0.95001
vn -0.05865 0.87746 0.47606
vn -0.18844 -0.24280 0.95160
vn -0.13591 0.15328 0.97879
vn -0.76072 -0.15254 0.63090
vn -0.72177 0.04412 -0.69073
vn -0.06482 -0.94749 0.31314
vn -0.50200 -0.46253 -0.73079
vn -0.89425 0.02569 -0.44683
vn -0.44702 -0.85241 -0.27123
vn -0.30850 -0.65398 -0.69075
vn -0.69619 -0.50155 0.51358
vn -0.85629 0.39500 0.33279
vn -0.11429 -0.93214 0.34359
vn 0.09248 -0.38433 0.91855
vn -0.56485 0.82459 0.03151
vn -0.69664 0.71485 -0.06071
vn -0.18844 -0.24280 0.95160
vn -0.89393 0.44215 -0.07346
vn -0.97116 0.11851 0.20689
vn -0.89425 0.02569 -0.44683
vn -0.85629 0.39500 0.33279
vn -0.27332 0.65537 0.70412
vn -0.30763 0.94978 0.05729
vn -0.82232 0.55643 0.11906
vn -0.00333 0.99799 -0.06325
vn -0.07611 0.98375 -0.16261
vn -0.12392 0.89200 -0.43473
vn 0.22359 0.84535 0.48518
vn 0.06518 0.88737 0.45642
vn -0.23253 0.86049 -0.45331
vn -0.10419 0.99095 0.08460
vn -0.33559 0.93173 0.13875
vn -0.10133 0.88151 0.46117
vn -0.69619 -0.50155 0.51358
vn -0.41223 -0.90675 0.08873
vn -0.32809 -0.51799 0.78996
vn -0.08657 -0.96654 -0.24145
vn -0.01283 -0.99988 -0.00891
vn 0.03108 -0.99940 -0.01501
vn 0.00195 -0.97782 -0.20945
vn 0.46222 -0.07607 0.88350
vn 0.11215 -0.96188 0.24942
vn 0.18130 -0.32179 0.92929
vn -0.05086 -0.99836 0.02640
vn -0.14760 -0.95830 -0.24469
vn -0.26839 -0.95593 -0.11906
vn -0.19596 0.22488 0.95448
vn -0.08164 -0.89173 0.44513
vn -0.20642 -0.92203 0.32749
vn -0.50299 -0.04669 0.86303
vn -0.69619 -0.50155 0.51358
vn -0.32809 -0.51799 0.78996
vn -0.53082 -0.49158 -0.69035
vn -0.96128 -0.27553 -0.00459
vn -0.66116 0.68887 -0.29721
vn 0.46222 -0.07607 0.88350
vn 0.18130 -0.32179 0.92929
vn -0.28354 0.44619 -0.84883
vn -0.17326 -0.18637 -0.96708
vn -0.12276 0.89951 -0.41930
vn -0.05983 0.89349 0.44509
vn -0.03806 -0.00977 0.99923
vn -0.19596 0.22488 0.95448
vn -0.50299 -0.04669 0.86303
vn 0.02113 -0.94066 0.33870
vn -0.07450 0.99492 -0.06764
vn -0.44117 -0.42889 -0.78830
vn -0.03806 -0.00977 0.99923
vn -0.71397 -0.10321 -0.69253
vn -0.39850 -0.68543 -0.60942
vn -0.89425 0.02569 -0.44683
vn -0.50200 -0.46253 -0.73079
vn -0.28027 -0.86953 -0.40666
vn -0.88804 -0.42367 0.17857
vn -0.27625 -0.90727 0.31710
vn -0.53447 -0.83930 0.09959
vn -0.28366 -0.92871 0.23881
vn -0.44702 -0.85241 -0.27123
vn -0.45917 -0.88339 0.09376
vn -0.02285 0.81628 -0.57721
vn 0.06854 -0.61872 -0.78262
vn -0.88804 -0.42367 0.17857
vn -0.99194 -0.10555 0.07016
vn -0.78923 0.60994 0.07134
vn -0.98425 0.07143 -0.16170
vn -0.62857 -0.66735 -0.39942
vn -0.98259 0.16600 -0.08347
vn -0.81794 0.57431 -0.03363
vn -0.91929 0.38951 0.05643
vn 0.14993 0.98308 -0.10522
vn 0.11332 0.98890 -0.09605
vn 0.20537 0.97477 -0.08744
vn 0.12313 0.98180 -0.14461
vn 0.06442 -0.99685 -0.04631
vn -0.45917 -0.88339 0.09376
vn -0.96128 -0.27553 -0.00459
vn -0.28366 -0.92871 0.23881
vn -0.91929 0.38951 0.05643
vn -0.65074 0.75834 0.03805
vn -0.71784 0.69287 0.06804
vn -0.82232 0.55643 0.11906
vn -0.67955 0.72123 -0.13430
vn 0.27004 -0.96276 -0.01271
vn 0.20614 -0.97844 -0.01280
vn -0.82114 0.55349 -0.13922
vn -0.65967 0.75033 -0.04285
vn -0.89425 0.02569 -0.44683
vn -0.39850 -0.68543 -0.60942
vn 0.06081 -0.99274 -0.10378
vn -0.94536 -0.17035 -0.27800
vn -0.94536 -0.17035 -0.27800
vn -0.92892 -0.16278 -0.33259
vn -0.92892 -0.16278 -0.33259
vn -0.90940 -0.15466 -0.38609
vn -0.77406 -0.12638 -0.62037
vn -0.77406 -0.12638 -0.62037
vn -0.58144 -0.08875 -0.80874
vn -0.58144 -0.08875 -0.80874
vn -0.97195 -0.14264 -0.18698
vn -0.97195 -0.14264 -0.18698
vn -0.97195 -0.14264 -0.18698
vn -0.96668 -0.10536 -0.23328
vn -0.96733 -0.14138 -0.21042
vn -0.96733 -0.14138 -0.21042
vn -0.96427 -0.06914 -0.25572
vn -0.96427 -0.06914 -0.25572
vn -0.96668 -0.10536 -0.23328
vn -0.95029 -0.13813 -0.27905
vn -0.95029 -0.13813 -0.27905
vn -0.95029 -0.13813 -0.27905
vn -0.93847 -0.21348 -0.27147
vn -0.93847 -0.21348 -0.27147
vn -0.93847 -0.21348 -0.27147
vn -0.93423 -0.20002 -0.29530
vn -0.93423 -0.20002 -0.29530
vn -0.93423 -0.20002 -0.29530
vn -0.95129 -0.22617 -0.20950
vn -0.95129 -0.22617 -0.20950
vn -0.95129 -0.22617 -0.20950
vn -0.93283 0.09838 -0.34662
vn -0.93283 0.09838 -0.34662
vn -0.93283 0.09838 -0.34662
vn -0.90378 0.32952 -0.27314
vn -0.90378 0.32952 -0.27314
vn -0.90378 0.32952 -0.27314
vn -0.97995 0.12587 -0.15446
vn -0.97995 0.12587 -0.15446
vn -0.97995 0.12587 -0.15446
vn -0.97596 -0.09024 -0.19837
vn -0.97596 -0.09024 -0.19837
vn -0.97596 -0.09024 -0.19837
vn -0.97690 -0.15364 -0.14854
vn -0.97690 -0.15364 -0.14854
vn -0.97690 -0.15364 -0.14854
vn -0.95681 -0.09446 -0.27494
vn -0.95681 -0.09446 -0.27494
vn -0.95681 -0.09446 -0.27494
vn -0.95545 0.09883 -0.27812
vn -0.95545 0.09883 -0.27812
vn -0.95545 0.09883 -0.27812
vn -0.94489 -0.00665 -0.32733
vn -0.95735 0.03116 -0.28724
vn -0.95735 0.03116 -0.28724
vn -0.92940 -0.04444 -0.36638
vn -0.92940 -0.04444 -0.36638
vn -0.94489 -0.00665 -0.32733
vn -0.94918 -0.21302 -0.23169
vn -0.94918 -0.21302 -0.23169
vn -0.94918 -0.21302 -0.23169
vn -0.97199 -0.10974 -0.20784
vn -0.97199 -0.10974 -0.20784
vn -0.97199 -0.10974 -0.20784
vn -0.95367 -0.08016 -0.28997
vn -0.95367 -0.08016 -0.28997
vn -0.95367 -0.08016 -0.28997
vn -0.53988 -0.00782 -0.84171
vn -0.53988 -0.00782 -0.84171
f 512/512/512 514/514/514 539/539/539
f 512/512/512 513/513/513 514/514/514
f 539/539/539 540/540/540 512/512/512
f 484/484/484 486/486/486 539/539/539
f 518/518/518 540/540/540 539/539/539
f 539/539/539 486/486/486 518/518/518
f 484/484/484 488/488/488 485/485/485
f 487/487/487 488/488/488 484/484/484
f 484/484/484 485/485/485 486/486/486
f 519/519/519 486/486/486 485/485/485
f 486/486/486 519/519/519 517/517/517
f 517/517/517 518/518/518 486/486/486
f 499/499/499 540/540/540 518/518/518
f 518/518/518 517/517/517 496/496/496
f 496/496/496 499/499/499 518/518/518
f 512/512/512 540/540/540 498/498/498
f 540/540/540 499/499/499 498/498/498
f 498/498/498 499/499/499 496/496/496
f 497/497/497 496/496/496 504/504/504
f 496/496/496 517/517/517 526/526/526
f 526/526/526 504/504/504 496/496/496
f 496/496/496 497/497/497 498/498/498
f 517/517/517 519/519/519 489/489/489
f 489/489/489 526/526/526 517/517/517
f 485/485/485 525/525/525 519/519/519
f 489/489/489 519/519/519 525/525/525
f 528/528/528 526/526/526 489/489/489
f 489/489/489 491/491/491 528/528/528
f 525/525/525 490/490/490 489/489/489
f 489/489/489 490/490/490 491/491/491
f 504/504/504 526/526/526 528/528/528
f 533/533/533 505/505/505 528/528/528
f 541/541/541 528/528/528 491/491/491
f 528/528/528 505/505/505 504/504/504
f 504/504/504 503/503/503 497/497/497
f 503/503/503 504/504/504 505/505/505
f 462/462/462 435/435/435 460/460/460
f 460/460/460 461/461/461 462/462/462
f 136/136/136 137/137/137 135/135/135
f 135/135/135 110/110/110 136/136/136
f 202/202/202 195/195/195 166/166/166
f 197/197/197 202/202/202 168/168/168
f 168/168/168 169/169/169 197/197/197
f 198/198/198 199/199/199 197/197/197
f 197/197/197 169/169/169 198/198/198
f 168/168/168 167/167/167 169/169/169
f 166/166/166 167/167/167 168/168/168
f 205/205/205 167/167/167 166/166/166
f 166/166/166 203/203/203 205/205/205
f 194/194/194 203/203/203 166/166/166
f 166/166/166 195/195/195 194/194/194
f 194/194/194 195/195/195 162/162/162
f 173/173/173 194/194/194 196/196/196
f 203/203/203 194/194/194 173/173/173
f 162/162/162 196/196/196 194/194/194
f 205/205/205 203/203/203 182/182/182
f 173/173/173 182/182/182 203/203/203
f 212/212/212 205/205/205 181/181/181
f 562/562/562 256/256/256 258/258/258
f 256/256/256 562/562/562 380/380/380
f 258/258/258 256/256/256 255/255/255
f 255/255/255 257/257/257 258/258/258
f 258/258/258 279/279/279 563/563/563
f 258/258/258 563/563/563 562/562/562
f 258/258/258 257/257/257 279/279/279
f 222/222/222 190/190/190 189/189/189
f 189/189/189 190/190/190 191/191/191
f 189/189/189 223/223/223 222/222/222
f 161/161/161 222/222/222 162/162/162
f 196/196/196 162/162/162 222/222/222
f 222/222/222 223/223/223 196/196/196
f 161/161/161 163/163/163 165/165/165
f 164/164/164 161/161/161 165/165/165
f 161/161/161 162/162/162 163/163/163
f 192/192/192 164/164/164 165/165/165
f 165/165/165 163/163/163 202/202/202
f 202/202/202 197/197/197 165/165/165
f 199/199/199 193/193/193 165/165/165
f 165/165/165 197/197/197 199/199/199
f 165/165/165 193/193/193 192/192/192
f 163/163/163 162/162/162 195/195/195
f 195/195/195 202/202/202 163/163/163
f 166/166/166 168/168/168 202/202/202
f 240/240/240 241/241/241 37/37/37
f 37/37/37 39/39/39 240/240/240
f 37/37/37 38/38/38 39/39/39
f 240/240/240 553/553/553 568/568/568
f 568/568/568 269/269/269 240/240/240
f 240/240/240 39/39/39 379/379/379
f 379/379/379 553/553/553 240/240/240
f 240/240/240 269/269/269 268/268/268
f 268/268/268 241/241/241 240/240/240
f 380/380/380 39/39/39 256/256/256
f 379/379/379 39/39/39 380/380/380
f 256/256/256 39/39/39 38/38/38
f 38/38/38 255/255/255 256/256/256
f 99/99/99 102/102/102 101/101/101
f 105/105/105 99/99/99 104/104/104
f 102/102/102 99/99/99 105/105/105
f 103/103/103 104/104/104 99/99/99
f 99/99/99 98/98/98 103/103/103
f 129/129/129 102/102/102 105/105/105
f 105/105/105 133/133/133 129/129/129
f 104/104/104 135/135/135 105/105/105
f 137/137/137 133/133/133 105/105/105
f 105/105/105 135/135/135 137/137/137
f 107/107/107 106/106/106 104/104/104
f 104/104/104 103/103/103 107/107/107
f 135/135/135 104/104/104 106/106/106
f 107/107/107 103/103/103 134/134/134
f 134/134/134 103/103/103 98/98/98
f 138/138/138 108/108/108 107/107/107
f 107/107/107 144/144/144 138/138/138
f 134/134/134 144/144/144 107/107/107
f 426/426/426 427/427/427 424/424/424
f 428/428/428 424/424/424 430/430/430
f 427/427/427 430/430/430 424/424/424
f 429/429/429 425/425/425 424/424/424
f 424/424/424 428/428/428 429/429/429
f 430/430/430 427/427/427 455/455/455
f 455/455/455 458/458/458 430/430/430
f 430/430/430 460/460/460 428/428/428
f 461/461/461 460/460/460 430/430/430
f 430/430/430 458/458/458 461/461/461
f 434/434/434 429/429/429 428/428/428
f 428/428/428 431/431/431 434/434/434
f 431/431/431 428/428/428 460/460/460
f 459/459/459 429/429/429 434/434/434
f 425/425/425 429/429/429 459/459/459
f 464/464/464 469/469/469 434/434/434
f 434/434/434 433/433/433 464/464/464
f 434/434/434 469/469/469 459/459/459
f 552/552/552 551/551/551 237/237/237
f 237/237/237 551/551/551 550/550/550
f 237/237/237 236/236/236 238/238/238
f 238/238/238 239/239/239 237/237/237
f 354/354/354 355/355/355 7/7/7
f 276/276/276 7/7/7 355/355/355
f 276/276/276 8/8/8 7/7/7
f 468/468/468 466/466/466 457/457/457
f 425/425/425 456/456/456 457/457/457
f 442/442/442 468/468/468 437/437/437
f 442/442/442 443/443/443 440/440/440
f 440/440/440 441/441/441 442/442/442
f 446/446/446 443/443/443 465/465/465
f 440/440/440 443/443/443 446/446/446
f 465/465/465 476/476/476 446/446/446
f 476/476/476 465/465/465 452/452/452
f 452/452/452 451/451/451 476/476/476
f 131/131/131 141/141/141 143/143/143
f 131/131/131 132/132/132 98/98/98
f 117/117/117 114/114/114 143/143/143
f 117/117/117 118/118/118 115/115/115
f 115/115/115 116/116/116 117/117/117
f 140/140/140 116/116/116 121/121/121
f 115/115/115 121/121/121 116/116/116
f 128/128/128 140/140/140 153/153/153
f 121/121/121 153/153/153 140/140/140
f 153/153/153 126/126/126 128/128/128
f 224/224/224 167/167/167 205/205/205
f 182/182/182 181/181/181 205/205/205
f 182/182/182 173/173/173 176/176/176
f 176/176/176 180/180/180 182/182/182
f 180/180/180 181/181/181 182/182/182
f 196/196/196 174/174/174 173/173/173
f 175/175/175 176/176/176 173/173/173
f 173/173/173 174/174/174 175/175/175
f 174/174/174 196/196/196 223/223/223
f 223/223/223 175/175/175 174/174/174
f 175/175/175 223/223/223 189/189/189
f 171/171/171 177/177/177 175/175/175
f 175/175/175 172/172/172 171/171/171
f 177/177/177 179/179/179 175/175/175
f 189/189/189 172/172/172 175/175/175
f 176/176/176 175/175/175 179/179/179
f 179/179/179 201/201/201 176/176/176
f 180/180/180 176/176/176 201/201/201
f 201/201/201 179/179/179 178/178/178
f 177/177/177 178/178/178 179/179/179
f 6/6/6 5/5/5 233/233/233
f 7/7/7 8/8/8 5/5/5
f 5/5/5 6/6/6 7/7/7
f 6/6/6 234/234/234 549/549/549
f 549/549/549 354/354/354 6/6/6
f 7/7/7 6/6/6 354/354/354
f 233/233/233 234/234/234 6/6/6
f 233/233/233 235/235/235 234/234/234
f 550/550/550 234/234/234 237/237/237
f 549/549/549 234/234/234 550/550/550
f 237/237/237 234/234/234 235/235/235
f 235/235/235 236/236/236 237/237/237
f 237/237/237 239/239/239 552/552/552
f 383/383/383 545/545/545 278/278/278
f 278/278/278 273/273/273 383/383/383
f 259/259/259 371/371/371 383/383/383
f 383/383/383 273/273/273 259/259/259
f 383/383/383 371/371/371 370/370/370
f 370/370/370 382/382/382 383/383/383
f 382/382/382 386/386/386 564/564/564
f 564/564/564 475/475/475 382/382/382
f 386/386/386 382/382/382 370/370/370
f 386/386/386 370/370/370 546/546/546
f 372/372/372 373/373/373 370/370/370
f 370/370/370 371/371/371 372/372/372
f 34/34/34 372/372/372 371/371/371
f 371/371/371 259/259/259 34/34/34
f 373/373/373 372/372/372 376/376/376
f 33/33/33 376/376/376 372/372/372
f 372/372/372 34/34/34 33/33/33
f 376/376/376 375/375/375 373/373/373
f 377/377/377 376/376/376 33/33/33
f 376/376/376 377/377/377 374/374/374
f 406/406/406 559/559/559 543/543/543
f 542/542/542 557/557/557 555/555/555
f 407/407/407 406/406/406 542/542/542
f 559/559/559 406/406/406 409/409/409
f 408/408/408 409/409/409 406/406/406
f 406/406/406 407/407/407 408/408/408
f 559/559/559 271/271/271 226/226/226
f 271/271/271 559/559/559 558/558/558
f 409/409/409 558/558/558 559/559/559
f 226/226/226 271/271/271 249/249/249
f 558/558/558 272/272/272 271/271/271
f 271/271/271 272/272/272 250/250/250
f 250/250/250 249/249/249 271/271/271
f 272/272/272 558/558/558 400/400/400
f 400/400/400 558/558/558 409/409/409
f 400/400/400 67/67/67 272/272/272
f 272/272/272 67/67/67 66/66/66
f 66/66/66 250/250/250 272/272/272
f 66/66/66 79/79/79 250/250/250
f 249/249/249 250/250/250 79/79/79
f 451/451/451 452/452/452 450/450/450
f 448/448/448 447/447/447 444/444/444
f 465/465/465 444/444/444 447/447/447
f 447/447/447 452/452/452 465/465/465
f 444/444/444 445/445/445 448/448/448
f 459/459/459 445/445/445 439/439/439
f 439/439/439 445/445/445 444/444/444
f 439/439/439 456/456/456 459/459/459
f 459/459/459 456/456/456 425/425/425
f 457/457/457 456/456/456 439/439/439
f 439/439/439 438/438/438 457/457/457
f 444/444/444 436/436/436 439/439/439
f 438/438/438 439/439/439 436/436/436
f 443/443/443 436/436/436 444/444/444
f 444/444/444 465/465/465 443/443/443
f 442/442/442 437/437/437 436/436/436
f 436/436/436 443/443/443 442/442/442
f 436/436/436 437/437/437 438/438/438
f 468/468/468 438/438/438 437/437/437
f 457/457/457 438/438/438 468/468/468
f 126/126/126 127/127/127 123/123/123
f 119/119/119 122/122/122 125/125/125
f 140/140/140 128/128/128 122/122/122
f 122/122/122 119/119/119 140/140/140
f 125/125/125 120/120/120 119/119/119
f 112/112/112 120/120/120 134/134/134
f 119/119/119 120/120/120 112/112/112
f 134/134/134 132/132/132 112/112/112
f 98/98/98 132/132/132 134/134/134
f 131/131/131 113/113/113 112/112/112
f 112/112/112 132/132/132 131/131/131
f 112/112/112 111/111/111 119/119/119
f 111/111/111 112/112/112 113/113/113
f 116/116/116 140/140/140 119/119/119
f 119/119/119 111/111/111 116/116/116
f 117/117/117 116/116/116 111/111/111
f 111/111/111 114/114/114 117/117/117
f 113/113/113 114/114/114 111/111/111
f 143/143/143 114/114/114 113/113/113
f 143/143/143 113/113/113 131/131/131
f 374/374/374 375/375/375 376/376/376
f 33/33/33 32/32/32 377/377/377
f 33/33/33 29/29/29 28/28/28
f 28/28/28 32/32/32 33/33/33
f 33/33/33 34/34/34 25/25/25
f 25/25/25 29/29/29 33/33/33
f 34/34/34 259/259/259 26/26/26
f 26/26/26 25/25/25 34/34/34
f 29/29/29 25/25/25 24/24/24
f 25/25/25 26/26/26 23/23/23
f 23/23/23 24/24/24 25/25/25
f 24/24/24 30/30/30 29/29/29
f 29/29/29 30/30/30 27/27/27
f 27/27/27 28/28/28 29/29/29
f 19/19/19 28/28/28 27/27/27
f 32/32/32 28/28/28 19/19/19
f 27/27/27 20/20/20 19/19/19
f 31/31/31 19/19/19 22/22/22
f 19/19/19 31/31/31 32/32/32
f 21/21/21 22/22/22 19/19/19
f 19/19/19 20/20/20 21/21/21
f 367/367/367 366/366/366 31/31/31
f 31/31/31 274/274/274 367/367/367
f 32/32/32 31/31/31 366/366/366
f 22/22/22 274/274/274 31/31/31
f 69/69/69 156/156/156 66/66/66
f 156/156/156 82/82/82 66/66/66
f 79/79/79 66/66/66 82/82/82
f 68/68/68 69/69/69 66/66/66
f 66/66/66 67/67/67 68/68/68
f 68/68/68 67/67/67 400/400/400
f 400/400/400 401/401/401 68/68/68
f 401/401/401 400/400/400 479/479/479
f 479/479/479 400/400/400 410/410/410
f 409/409/409 410/410/410 400/400/400
f 409/409/409 408/408/408 472/472/472
f 472/472/472 473/473/473 409/409/409
f 408/408/408 532/532/532 537/537/537
f 537/537/537 472/472/472 408/408/408
f 214/214/214 408/408/408 407/407/407
f 532/532/532 408/408/408 214/214/214
f 532/532/532 529/529/529 531/531/531
f 531/531/531 537/537/537 532/532/532
f 214/214/214 210/210/210 532/532/532
f 529/529/529 532/532/532 210/210/210
f 214/214/214 80/80/80 211/211/211
f 211/211/211 210/210/210 214/214/214
f 210/210/210 209/209/209 529/529/529
f 210/210/210 211/211/211 206/206/206
f 206/206/206 209/209/209 210/210/210
f 225/225/225 244/244/244 248/248/248
f 227/227/227 225/225/225 248/248/248
f 78/78/78 225/225/225 227/227/227
f 225/225/225 78/78/78 81/81/81
f 81/81/81 80/80/80 214/214/214
f 80/80/80 81/81/81 78/78/78
f 227/227/227 249/249/249 78/78/78
f 79/79/79 78/78/78 249/249/249
f 78/78/78 79/79/79 80/80/80
f 249/249/249 227/227/227 226/226/226
f 248/248/248 77/77/77 227/227/227
f 226/226/226 227/227/227 77/77/77
f 77/77/77 248/248/248 251/251/251
f 251/251/251 74/74/74 77/77/77
f 77/77/77 76/76/76 226/226/226
f 76/76/76 77/77/77 74/74/74
f 74/74/74 251/251/251 146/146/146
f 60/60/60 75/75/75 74/74/74
f 74/74/74 75/75/75 76/76/76
f 226/226/226 76/76/76 405/405/405
f 154/154/154 142/142/142 97/97/97
f 97/97/97 100/100/100 154/154/154
f 97/97/97 142/142/142 141/141/141
f 141/141/141 131/131/131 97/97/97
f 98/98/98 97/97/97 131/131/131
f 99/99/99 100/100/100 97/97/97
f 97/97/97 98/98/98 99/99/99
f 101/101/101 155/155/155 154/154/154
f 154/154/154 100/100/100 101/101/101
f 101/101/101 100/100/100 99/99/99
f 101/101/101 130/130/130 155/155/155
f 129/129/129 130/130/130 101/101/101
f 101/101/101 102/102/102 129/129/129
f 477/477/477 423/423/423 422/422/422
f 422/422/422 467/467/467 477/477/477
f 422/422/422 457/457/457 466/466/466
f 466/466/466 467/467/467 422/422/422
f 457/457/457 422/422/422 425/425/425
f 424/424/424 425/425/425 422/422/422
f 422/422/422 423/423/423 424/424/424
f 426/426/426 423/423/423 477/477/477
f 477/477/477 478/478/478 426/426/426
f 424/424/424 423/423/423 426/426/426
f 426/426/426 478/478/478 454/454/454
f 455/455/455 427/427/427 426/426/426
f 426/426/426 454/454/454 455/455/455
f 13/13/13 14/14/14 16/16/16
f 12/12/12 14/14/14 13/13/13
f 18/18/18 11/11/11 13/13/13
f 17/17/17 18/18/18 13/13/13
f 11/11/11 12/12/12 13/13/13
f 18/18/18 17/17/17 260/260/260
f 94/94/94 260/260/260 152/152/152
f 43/43/43 152/152/152 260/260/260
f 260/260/260 94/94/94 18/18/18
f 152/152/152 43/43/43 229/229/229
f 229/229/229 43/43/43 42/42/42
f 42/42/42 43/43/43 23/23/23
f 94/94/94 152/152/152 151/151/151
f 229/229/229 149/149/149 152/152/152
f 151/151/151 152/152/152 149/149/149
f 261/261/261 149/149/149 229/229/229
f 229/229/229 264/264/264 261/261/261
f 264/264/264 229/229/229 228/228/228
f 42/42/42 228/228/228 229/229/229
f 150/150/150 149/149/149 261/261/261
f 92/92/92 85/85/85 87/87/87
f 85/85/85 86/86/86 87/87/87
f 91/91/91 92/92/92 87/87/87
f 87/87/87 88/88/88 89/89/89
f 90/90/90 91/91/91 87/87/87
f 89/89/89 90/90/90 87/87/87
f 86/86/86 88/88/88 87/87/87
f 419/419/419 413/413/413 412/412/412
f 412/412/412 413/413/413 414/414/414
f 418/418/418 413/413/413 419/419/419
f 413/413/413 416/416/416 415/415/415
f 417/417/417 413/413/413 418/418/418
f 416/416/416 413/413/413 417/417/417
f 414/414/414 413/413/413 415/415/415
f 246/246/246 242/242/242 554/554/554
f 243/243/243 242/242/242 246/246/246
f 217/217/217 243/243/243 244/244/244
f 242/242/242 243/243/243 217/217/217
f 242/242/242 216/216/216 535/535/535
f 535/535/535 554/554/554 242/242/242
f 217/217/217 216/216/216 242/242/242
f 555/555/555 554/554/554 535/535/535
f 535/535/535 542/542/542 555/555/555
f 542/542/542 535/535/535 407/407/407
f 535/535/535 216/216/216 215/215/215
f 215/215/215 407/407/407 535/535/535
f 215/215/215 216/216/216 217/217/217
f 407/407/407 215/215/215 214/214/214
f 217/217/217 81/81/81 215/215/215
f 214/214/214 215/215/215 81/81/81
f 244/244/244 225/225/225 217/217/217
f 81/81/81 217/217/217 225/225/225
f 385/385/385 547/547/547 546/546/546
f 546/546/546 547/547/547 386/386/386
f 561/561/561 547/547/547 385/385/385
f 385/385/385 384/384/384 561/561/561
f 363/363/363 547/547/547 561/561/561
f 362/362/362 386/386/386 547/547/547
f 547/547/547 363/363/363 362/362/362
f 386/386/386 362/362/362 364/364/364
f 364/364/364 564/564/564 386/386/386
f 364/364/364 362/362/362 359/359/359
f 362/362/362 363/363/363 359/359/359
f 561/561/561 361/361/361 363/363/363
f 359/359/359 363/363/363 361/361/361
f 325/325/325 326/326/326 327/327/327
f 611/611/611 612/612/612 613/613/613
f 51/51/51 54/54/54 55/55/55
f 50/50/50 51/51/51 52/52/52
f 50/50/50 56/56/56 84/84/84
f 56/56/56 50/50/50 53/53/53
f 52/52/52 53/53/53 50/50/50
f 56/56/56 57/57/57 282/282/282
f 282/282/282 220/220/220 56/56/56
f 56/56/56 220/220/220 84/84/84
f 53/53/53 57/57/57 56/56/56
f 392/392/392 220/220/220 282/282/282
f 392/392/392 84/84/84 220/220/220
f 282/282/282 393/393/393 392/392/392
f 84/84/84 392/392/392 388/388/388
f 389/389/389 388/388/388 392/392/392
f 392/392/392 393/393/393 389/389/389
f 84/84/84 411/411/411 403/403/403
f 403/403/403 270/270/270 84/84/84
f 388/388/388 411/411/411 84/84/84
f 72/72/72 48/48/48 47/47/47
f 47/47/47 83/83/83 72/72/72
f 54/54/54 51/51/51 47/47/47
f 47/47/47 49/49/49 54/54/54
f 83/83/83 47/47/47 51/51/51
f 47/47/47 48/48/48 49/49/49
f 70/70/70 72/72/72 270/270/270
f 84/84/84 270/270/270 72/72/72
f 72/72/72 83/83/83 84/84/84
f 48/48/48 72/72/72 70/70/70
f 84/84/84 83/83/83 50/50/50
f 51/51/51 50/50/50 83/83/83
f 55/55/55 52/52/52 51/51/51
f 529/529/529 530/530/530 531/531/531
f 207/207/207 206/206/206 211/211/211
f 206/206/206 207/207/207 208/208/208
f 219/219/219 211/211/211 80/80/80
f 211/211/211 219/219/219 207/207/207
f 80/80/80 147/147/147 219/219/219
f 147/147/147 80/80/80 79/79/79
f 79/79/79 148/148/148 147/147/147
f 76/76/76 75/75/75 404/404/404
f 404/404/404 405/405/405 76/76/76
f 404/404/404 75/75/75 60/60/60
f 60/60/60 395/395/395 404/404/404
f 60/60/60 59/59/59 394/394/394
f 394/394/394 395/395/395 60/60/60
f 404/404/404 395/395/395 471/471/471
f 471/471/471 560/560/560 404/404/404
f 405/405/405 404/404/404 560/560/560
f 543/543/543 405/405/405 557/557/557
f 560/560/560 557/557/557 405/405/405
f 405/405/405 543/543/543 226/226/226
f 226/226/226 543/543/543 559/559/559
f 557/557/557 542/542/542 543/543/543
f 543/543/543 542/542/542 406/406/406
f 149/149/149 150/150/150 151/151/151
f 261/261/261 262/262/262 150/150/150
f 150/150/150 262/262/262 565/565/565
f 565/565/565 474/474/474 150/150/150
f 151/151/151 150/150/150 474/474/474
f 565/565/565 566/566/566 544/544/544
f 544/544/544 474/474/474 565/565/565
f 475/475/475 474/474/474 544/544/544
f 474/474/474 475/475/475 151/151/151
f 545/545/545 544/544/544 566/566/566
f 544/544/544 382/382/382 475/475/475
f 544/544/544 545/545/545 383/383/383
f 383/383/383 382/382/382 544/544/544
f 566/566/566 567/567/567 545/545/545
f 278/278/278 545/545/545 567/567/567
f 254/254/254 45/45/45 252/252/252
f 254/254/254 253/253/253 561/561/561
f 561/561/561 384/384/384 254/254/254
f 252/252/252 253/253/253 254/254/254
f 12/12/12 253/253/253 252/252/252
f 252/252/252 14/14/14 12/12/12
f 16/16/16 14/14/14 252/252/252
f 252/252/252 230/230/230 16/16/16
f 15/15/15 16/16/16 230/230/230
f 230/230/230 46/46/46 15/15/15
f 46/46/46 230/230/230 231/231/231
f 231/231/231 23/23/23 46/46/46
f 260/260/260 46/46/46 43/43/43
f 46/46/46 260/260/260 17/17/17
f 17/17/17 15/15/15 46/46/46
f 46/46/46 23/23/23 43/43/43
f 17/17/17 13/13/13 15/15/15
f 15/15/15 13/13/13 16/16/16
f 481/481/481 480/480/480 510/510/510
f 482/482/482 483/483/483 480/480/480
f 480/480/480 481/481/481 482/482/482
f 515/515/515 487/487/487 481/481/481
f 481/481/481 511/511/511 515/515/515
f 482/482/482 481/481/481 487/487/487
f 510/510/510 511/511/511 481/481/481
f 483/483/483 482/482/482 514/514/514
f 487/487/487 484/484/484 482/482/482
f 539/539/539 514/514/514 482/482/482
f 482/482/482 484/484/484 539/539/539
f 514/514/514 548/548/548 483/483/483
f 514/514/514 513/513/513 548/548/548
f 187/187/187 157/157/157 160/160/160
f 159/159/159 160/160/160 157/157/157
f 157/157/157 158/158/158 159/159/159
f 160/160/160 188/188/188 187/187/187
f 192/192/192 188/188/188 160/160/160
f 160/160/160 164/164/164 192/192/192
f 164/164/164 160/160/160 159/159/159
f 190/190/190 159/159/159 158/158/158
f 159/159/159 161/161/161 164/164/164
f 222/222/222 161/161/161 159/159/159
f 159/159/159 190/190/190 222/222/222
f 158/158/158 232/232/232 190/190/190
f 190/190/190 232/232/232 191/191/191
f 578/578/578 579/579/579 580/580/580
f 292/292/292 293/293/293 294/294/294
f 605/605/605 606/606/606 607/607/607
f 319/319/319 320/320/320 321/321/321
f 95/95/95 421/421/421 420/420/420
f 420/420/420 96/96/96 95/95/95
f 95/95/95 96/96/96 93/93/93
f 12/12/12 11/11/11 93/93/93
f 94/94/94 93/93/93 11/11/11
f 93/93/93 94/94/94 95/95/95
f 95/95/95 266/266/266 421/421/421
f 95/95/95 94/94/94 266/266/266
f 151/151/151 266/266/266 94/94/94
f 11/11/11 18/18/18 94/94/94
f 421/421/421 266/266/266 151/151/151
f 151/151/151 475/475/475 421/421/421
f 525/525/525 485/485/485 488/488/488
f 488/488/488 487/487/487 515/515/515
f 515/515/515 516/516/516 488/488/488
f 581/581/581 582/582/582 583/583/583
f 295/295/295 296/296/296 297/297/297
f 322/322/322 323/323/323 324/324/324
f 608/608/608 609/609/609 610/610/610
f 310/310/310 311/311/311 312/312/312
f 596/596/596 597/597/597 598/598/598
f 360/360/360 361/361/361 561/561/561
f 561/561/561 253/253/253 360/360/360
f 360/360/360 359/359/359 361/361/361
f 365/365/365 359/359/359 358/358/358
f 364/364/364 359/359/359 365/365/365
f 358/358/358 359/359/359 360/360/360
f 564/564/564 364/364/364 365/365/365
f 421/421/421 475/475/475 564/564/564
f 365/365/365 421/421/421 564/564/564
f 421/421/421 365/365/365 358/358/358
f 420/420/420 358/358/358 360/360/360
f 358/358/358 420/420/420 421/421/421
f 253/253/253 265/265/265 360/360/360
f 360/360/360 265/265/265 420/420/420
f 253/253/253 12/12/12 265/265/265
f 265/265/265 96/96/96 420/420/420
f 265/265/265 93/93/93 96/96/96
f 93/93/93 265/265/265 12/12/12
f 343/343/343 344/344/344 345/345/345
f 629/629/629 630/630/630 631/631/631
f 340/340/340 341/341/341 342/342/342
f 626/626/626 627/627/627 628/628/628
f 352/352/352 1/1/1 254/254/254
f 353/353/353 2/2/2 1/1/1
f 1/1/1 352/352/352 353/353/353
f 254/254/254 1/1/1 4/4/4
f 3/3/3 4/4/4 1/1/1
f 1/1/1 2/2/2 3/3/3
f 254/254/254 384/384/384 352/352/352
f 385/385/385 356/356/356 352/352/352
f 352/352/352 384/384/384 385/385/385
f 357/357/357 353/353/353 352/352/352
f 352/352/352 356/356/356 357/357/357
f 381/381/381 378/378/378 353/353/353
f 353/353/353 357/357/357 381/381/381
f 411/411/411 388/388/388 391/391/391
f 390/390/390 391/391/391 388/388/388
f 388/388/388 389/389/389 390/390/390
f 403/403/403 411/411/411 387/387/387
f 391/391/391 387/387/387 411/411/411
f 270/270/270 403/403/403 402/402/402
f 387/387/387 48/48/48 403/403/403
f 402/402/402 403/403/403 48/48/48
f 402/402/402 277/277/277 270/270/270
f 270/270/270 277/277/277 70/70/70
f 73/73/73 277/277/277 402/402/402
f 402/402/402 71/71/71 73/73/73
f 48/48/48 71/71/71 402/402/402
f 387/387/387 49/49/49 48/48/48
f 70/70/70 71/71/71 48/48/48
f 54/54/54 49/49/49 387/387/387
f 387/387/387 391/391/391 54/54/54
f 55/55/55 54/54/54 391/391/391
f 503/503/503 505/505/505 508/508/508
f 508/508/508 505/505/505 533/533/533
f 508/508/508 533/533/533 509/509/509
f 508/508/508 507/507/507 503/503/503
f 508/508/508 509/509/509 506/506/506
f 506/506/506 507/507/507 508/508/508
f 524/524/524 497/497/497 503/503/503
f 503/503/503 507/507/507 524/524/524
f 507/507/507 506/506/506 527/527/527
f 527/527/527 524/524/524 507/507/507
f 497/497/497 524/524/524 501/501/501
f 524/524/524 527/527/527 502/502/502
f 502/502/502 501/501/501 524/524/524
f 501/501/501 498/498/498 497/497/497
f 500/500/500 498/498/498 501/501/501
f 500/500/500 501/501/501 502/502/502
f 495/495/495 494/494/494 498/498/498
f 498/498/498 500/500/500 495/495/495
f 498/498/498 494/494/494 512/512/512
f 493/493/493 494/494/494 495/495/495
f 274/274/274 22/22/22 21/21/21
f 21/21/21 275/275/275 274/274/274
f 368/368/368 367/367/367 274/274/274
f 274/274/274 275/275/275 368/368/368
f 366/366/366 367/367/367 368/368/368
f 366/366/366 369/369/369 374/374/374
f 374/374/374 377/377/377 366/366/366
f 366/366/366 377/377/377 32/32/32
f 368/368/368 369/369/369 366/366/366
f 23/23/23 26/26/26 42/42/42
f 42/42/42 26/26/26 259/259/259
f 42/42/42 273/273/273 278/278/278
f 278/278/278 228/228/228 42/42/42
f 259/259/259 273/273/273 42/42/42
f 263/263/263 228/228/228 278/278/278
f 228/228/228 263/263/263 264/264/264
f 567/567/567 280/280/280 278/278/278
f 278/278/278 280/280/280 263/263/263
f 298/298/298 299/299/299 300/300/300
f 584/584/584 585/585/585 586/586/586
f 395/395/395 398/398/398 471/471/471
f 470/470/470 471/471/471 398/398/398
f 399/399/399 398/398/398 395/395/395
f 395/395/395 394/394/394 399/399/399
f 398/398/398 399/399/399 396/396/396
f 590/590/590 591/591/591 592/592/592
f 304/304/304 305/305/305 306/306/306
f 247/247/247 267/267/267 65/65/65
f 65/65/65 213/213/213 247/247/247
f 145/145/145 213/213/213 65/65/65
f 145/145/145 245/245/245 213/213/213
f 247/247/247 213/213/213 245/245/245
f 246/246/246 245/245/245 243/243/243
f 245/245/245 246/246/246 247/247/247
f 247/247/247 534/534/534 397/397/397
f 397/397/397 267/267/267 247/247/247
f 247/247/247 246/246/246 556/556/556
f 556/556/556 534/534/534 247/247/247
f 281/281/281 267/267/267 397/397/397
f 397/397/397 396/396/396 281/281/281
f 470/470/470 398/398/398 397/397/397
f 397/397/397 534/534/534 470/470/470
f 396/396/396 397/397/397 398/398/398
f 470/470/470 534/534/534 556/556/556
f 554/554/554 556/556/556 246/246/246
f 301/301/301 302/302/302 303/303/303
f 587/587/587 588/588/588 589/589/589
f 283/283/283 284/284/284 285/285/285
f 569/569/569 570/570/570 571/571/571
f 614/614/614 615/615/615 616/616/616
f 328/328/328 329/329/329 330/330/330
f 307/307/307 308/308/308 309/309/309
f 593/593/593 594/594/594 595/595/595
f 602/602/602 603/603/603 604/604/604
f 316/316/316 317/317/317 318/318/318
f 346/346/346 347/347/347 348/348/348
f 632/632/632 633/633/633 634/634/634
f 617/617/617 618/618/618 619/619/619
f 331/331/331 332/332/332 333/333/333
f 620/620/620 621/621/621 622/622/622
f 334/334/334 335/335/335 336/336/336
f 186/186/186 201/201/201 204/204/204
f 178/178/178 204/204/204 201/201/201
f 201/201/201 186/186/186 180/180/180
f 204/204/204 183/183/183 186/186/186
f 185/185/185 180/180/180 186/186/186
f 185/185/185 186/186/186 183/183/183
f 180/180/180 185/185/185 181/181/181
f 185/185/185 184/184/184 212/212/212
f 185/185/185 212/212/212 181/181/181
f 183/183/183 184/184/184 185/185/185
f 172/172/172 189/189/189 221/221/221
f 221/221/221 218/218/218 172/172/172
f 170/170/170 172/172/172 218/218/218
f 170/170/170 171/171/171 172/172/172
f 189/189/189 191/191/191 221/221/221
f 63/63/63 58/58/58 61/61/61
f 60/60/60 61/61/61 58/58/58
f 58/58/58 59/59/59 60/60/60
f 61/61/61 64/64/64 63/63/63
f 62/62/62 63/63/63 64/64/64
f 61/61/61 146/146/146 64/64/64
f 146/146/146 61/61/61 74/74/74
f 74/74/74 61/61/61 60/60/60
f 65/65/65 64/64/64 145/145/145
f 145/145/145 64/64/64 146/146/146
f 64/64/64 65/65/65 62/62/62
f 281/281/281 62/62/62 65/65/65
f 65/65/65 267/267/267 281/281/281
f 599/599/599 600/600/600 601/601/601
f 313/313/313 314/314/314 315/315/315
f 494/494/494 536/536/536 538/538/538
f 538/538/538 512/512/512 494/494/494
f 493/493/493 536/536/536 494/494/494
f 512/512/512 538/538/538 513/513/513
f 523/523/523 541/541/541 491/491/491
f 522/522/522 523/523/523 491/491/491
f 491/491/491 492/492/492 522/522/522
f 490/490/490 492/492/492 491/491/491
f 522/522/522 492/492/492 520/520/520
f 520/520/520 521/521/521 522/522/522
f 520/520/520 492/492/492 490/490/490
f 490/490/490 525/525/525 520/520/520
f 488/488/488 520/520/520 525/525/525
f 521/521/521 520/520/520 488/488/488
f 488/488/488 516/516/516 521/521/521
f 623/623/623 624/624/624 625/625/625
f 337/337/337 338/338/338 339/339/339
f 200/200/200 167/167/167 224/224/224
f 167/167/167 200/200/200 198/198/198
f 198/198/198 169/169/169 167/167/167
f 572/572/572 573/573/573 574/574/574
f 286/286/286 287/287/287 288/288/288
f 2/2/2 353/353/353 378/378/378
f 378/378/378 381/381/381 40/40/40
f 40/40/40 36/36/36 378/378/378
f 378/378/378 36/36/36 2/2/2
f 40/40/40 41/41/41 35/35/35
f 35/35/35 36/36/36 40/40/40
f 2/2/2 36/36/36 35/35/35
f 3/3/3 35/35/35 41/41/41
f 35/35/35 3/3/3 2/2/2
f 41/41/41 9/9/9 3/3/3
f 9/9/9 10/10/10 4/4/4
f 4/4/4 3/3/3 9/9/9
f 4/4/4 10/10/10 44/44/44
f 4/4/4 45/45/45 254/254/254
f 44/44/44 45/45/45 4/4/4
f 44/44/44 231/231/231 230/230/230
f 252/252/252 45/45/45 44/44/44
f 44/44/44 230/230/230 252/252/252
f 106/106/106 107/107/107 108/108/108
f 106/106/106 110/110/110 135/135/135
f 106/106/106 109/109/109 110/110/110
f 108/108/108 109/109/109 106/106/106
f 109/109/109 108/108/108 138/138/138
f 109/109/109 139/139/139 136/136/136
f 136/136/136 110/110/110 109/109/109
f 138/138/138 139/139/139 109/109/109
f 124/124/124 138/138/138 144/144/144
f 138/138/138 124/124/124 123/123/123
f 123/123/123 127/127/127 138/138/138
f 144/144/144 125/125/125 124/124/124
f 120/120/120 125/125/125 144/144/144
f 144/144/144 134/134/134 120/120/120
f 124/124/124 125/125/125 122/122/122
f 122/122/122 123/123/123 124/124/124
f 123/123/123 122/122/122 128/128/128
f 123/123/123 128/128/128 126/126/126
f 433/433/433 434/434/434 431/431/431
f 460/460/460 435/435/435 431/431/431
f 431/431/431 435/435/435 432/432/432
f 431/431/431 432/432/432 433/433/433
f 464/464/464 433/433/433 432/432/432
f 432/432/432 435/435/435 462/462/462
f 462/462/462 463/463/463 432/432/432
f 432/432/432 463/463/463 464/464/464
f 469/469/469 464/464/464 449/449/449
f 464/464/464 453/453/453 450/450/450
f 450/450/450 449/449/449 464/464/464
f 449/449/449 448/448/448 469/469/469
f 445/445/445 459/459/459 469/469/469
f 469/469/469 448/448/448 445/445/445
f 449/449/449 450/450/450 447/447/447
f 447/447/447 448/448/448 449/449/449
f 450/450/450 452/452/452 447/447/447
f 450/450/450 453/453/453 451/451/451
f 391/391/391 390/390/390 55/55/55
f 70/70/70 73/73/73 71/71/71
f 73/73/73 70/70/70 277/277/277
f 575/575/575 576/576/576 577/577/577
f 289/289/289 290/290/290 291/291/291
f 349/349/349 350/350/350 351/351/351
f 635/635/635 351/351/351 636/636/636
