# megalod reconstructed from live game memory
v -87.72270 65.28598 -60.93333
v -87.83059 57.71347 -59.97573
v -91.30238 59.44271 -65.51598
v -88.84581 53.58107 -53.75220
v -94.02447 53.52279 -60.64995
v -86.11208 59.47504 -53.16074
v 29.29195 54.83603 48.73841
v 15.56728 55.79930 38.15232
v 26.93759 66.09836 26.93759
v 39.17352 62.66776 39.17353
v 11.45805 42.76045 41.61727
v -7.97071 40.64986 29.05991
v -3.80836 58.10064 25.10140
v 78.26583 43.97910 85.89185
v 73.37517 43.98808 81.78621
v 74.19830 48.86816 80.94485
v 78.58454 48.72410 84.63080
v 77.43916 51.52628 77.43917
v -87.62823 63.51241 -60.68930
v -90.69476 59.35032 -58.91108
v -90.79400 59.20305 -65.29981
v -92.82048 53.81498 -61.92176
v -88.50645 54.42785 -55.94616
v -86.01281 59.23400 -54.94747
v -53.49287 64.09471 -17.59090
v -62.11214 35.09541 -10.29738
v -74.76877 37.01590 -23.64051
v -66.63904 63.91441 -32.08393
v -22.12213 8.20661 -22.12213
v -37.20274 16.95381 -6.77897
v -20.84262 18.11074 6.98589
v -6.90867 8.93073 -6.90868
v -20.84262 18.11074 6.98589
v -1.88238 21.73606 22.95413
v 10.62661 13.59232 10.62661
v -6.90867 8.93073 -6.90868
v 43.44180 53.09316 59.29096
v 51.46270 59.65208 51.46271
v -39.53396 62.81829 -2.98997
v -45.65598 36.95757 2.06805
v 26.98071 44.14923 51.30287
v 43.19393 33.17580 59.50322
v 54.34110 35.07508 67.17503
v 60.75570 30.58516 60.75571
v 51.06756 27.55194 51.06757
v 41.68008 44.13971 61.04765
v -98.23538 54.72033 -81.36361
v -90.81597 61.55876 -71.81813
v -100.52758 47.72109 -75.81249
v 74.18391 38.96767 80.96904
v 78.16492 39.26003 84.23499
v 77.43346 36.46233 77.43347
v -95.00259 33.36739 -76.80960
v -91.87888 29.06435 -77.64632
v -87.86697 29.36928 -87.86699
v -89.79369 32.01300 -89.79370
v -86.04951 68.01552 -61.75017
v -82.08053 67.62288 -64.65128
v -80.86630 67.91856 -80.86632
v -90.32118 62.23920 -90.32120
v -89.73798 38.44460 -50.33871
v -86.96570 38.78257 -41.01612
v -78.13463 22.75135 -45.92288
v -84.44909 25.79746 -54.66238
v -62.04084 14.19221 -62.04085
v -69.39669 17.59840 -69.39671
v -23.87920 59.97565 10.25103
v -28.43440 38.82426 14.64661
v -76.90812 63.52244 -49.15460
v -62.47108 75.94603 -62.47110
v -48.22578 79.06517 -48.22578
v -52.06519 16.73450 -20.65842
v -36.39378 8.25614 -36.39379
v -53.18078 10.38318 -53.18079
v -69.77818 19.45680 -36.06779
v -102.25447 50.85594 -94.50040
v -101.63733 50.21613 -101.63735
v -98.05853 56.59829 -98.05855
v 57.57330 57.52588 63.90708
v 67.57219 55.36650 67.57220
v 64.87428 50.82629 73.55531
v 54.61367 51.67341 66.89677
v 63.73370 44.24886 74.70927
v -42.26031 75.96675 -29.68182
v -30.78698 73.87098 -10.93124
v -92.86099 50.01761 -51.22300
v -96.11798 44.06016 -59.66891
v -96.50954 49.70139 -59.19255
v -28.43440 38.82426 14.64661
v -23.87920 59.97565 10.25103
v 10.83322 70.17207 10.83322
v -85.16627 50.90992 -42.59141
v -89.99541 28.26809 -64.72527
v -93.80998 36.28362 -63.46714
v -76.61034 21.88545 -76.61036
v -102.38154 44.42781 -90.87673
v -99.82796 44.35009 -99.82798
v 29.85491 30.60330 48.52142
v 53.27198 44.19965 68.24698
v 64.71969 37.05180 73.71765
v 78.26583 43.97910 85.89185
v 78.58454 48.72410 84.63080
v 84.43517 43.97572 90.76966
v 78.16492 39.26003 84.23499
v -98.50465 42.12300 -73.31035
v -35.84546 80.94874 -35.84547
v -27.91572 78.19188 -13.21316
v -14.59216 71.21463 1.15311
v -20.92425 85.99674 -15.34273
v -25.61346 88.40352 -25.61346
v -10.26693 102.10815 -10.26693
v -14.59216 71.21463 1.15311
v 94.48226 21.09577 96.98930
v 88.42651 31.83173 91.61580
v 99.86035 32.84238 99.86037
v 102.24405 22.82284 102.24407
v 98.56271 55.24361 98.56272
v 98.58414 43.96855 98.58415
v 102.25901 70.81332 102.25903
v 92.45073 70.91544 97.01604
v 101.17388 85.67591 103.95281
v 106.87656 84.23093 106.87658
v 107.60506 96.22116 108.73250
v 104.75283 96.21829 104.75285
v 112.62291 102.22154 112.62292
v 101.20449 10.88534 103.02927
v 106.53037 12.18306 106.53039
v 110.04075 0.93485 110.04077
v 88.69308 58.59002 93.23556
v 82.66523 62.07477 82.66525
v 86.62460 71.01298 86.62461
v -60.47574 27.70193 -12.14717
v 16.33980 26.76989 37.68784
v -83.55498 26.40236 -83.55499
v -74.55585 30.41249 -1.40838
v -82.76425 30.12052 8.19339
v -88.69656 31.59431 2.42248
v -81.35624 32.02901 -8.41878
v -74.90044 27.80189 -2.87630
v -87.79097 27.52950 -16.52754
v -93.18442 27.49263 -5.22394
v -81.16698 27.91163 7.06676
v -94.94582 30.48523 -3.67154
v -88.59088 30.98826 -16.42900
v -74.90044 27.80189 -2.87630
v -81.16698 27.91163 7.06676
v -96.61456 29.04956 -4.59665
v -90.16554 29.09733 -17.94657
v -99.94477 39.55902 -86.33212
v -95.38662 38.75420 -95.38663
v -95.96558 38.76271 -71.88994
v -95.98832 36.65610 -82.20010
v -94.90806 40.10511 -59.85448
v -93.86486 31.18558 14.76358
v -89.77315 30.58693 19.26444
v -98.70039 31.05348 10.37316
v -88.49461 28.20974 17.96791
v -100.28343 29.86351 9.80268
v -74.76877 37.01590 -23.64051
v -62.11214 35.09541 -10.29738
v -75.38246 26.44761 -28.92752
v -79.07045 28.50156 -32.05614
v -90.16554 29.09733 -17.94657
v -79.04472 32.98421 -31.60986
v -60.47574 27.70193 -12.14717
v -79.07045 28.50156 -32.05614
v -9.05710 84.13438 -9.05710
v -91.84718 31.30018 24.18075
v -91.01253 30.40127 27.74258
v -98.60303 30.43186 21.40727
v -96.86856 31.01147 19.20861
v -88.49461 28.20974 17.96791
v -90.80755 28.66324 23.07682
v -91.01253 30.40127 27.74258
v -91.84718 31.30018 24.18075
v -89.77315 30.58693 19.26444
v 58.73530 64.34067 58.73531
v 59.03961 62.05145 63.44375
v -100.28343 29.86351 9.80268
v -98.60303 30.43186 21.40727
v -95.70467 28.86950 18.03991
v -95.74731 28.34227 8.22828
v -79.04472 32.98421 -31.60986
v -90.80755 28.66324 23.07682
v -91.01253 30.40127 27.74258
v -88.49461 28.20974 17.96791
v -96.61456 29.04956 -4.59665
v 36.91820 22.93481 42.74736
v 48.83070 19.35077 48.83072
v 39.70733 17.45486 42.66185
v 28.34263 19.77774 28.34263
v -69.77818 19.45680 -36.06779
v -60.47574 27.70193 -12.14717
v -52.06519 16.73450 -20.65842
v -73.05578 72.04417 -73.05579
v 33.50736 15.93509 33.50737
v 62.27908 67.17232 62.27908
v 44.26638 9.89232 44.26639
v 69.07554 33.08159 69.07555
v -95.96558 38.76271 -71.88994
v -80.39713 42.10189 -80.39714
v -91.32721 35.76118 -91.32722
v -95.98832 36.65610 -82.20010
v -94.90806 40.10511 -59.85448
v -89.73798 38.44460 -50.33871
v -68.41174 38.44460 -68.41174
v -93.80998 36.28362 -63.46714
v -77.91555 33.34411 -77.91557
v -84.64094 31.90703 -84.64095
v -95.00259 33.36739 -76.80960
v -89.79369 32.01300 -89.79370
v -6.67245 75.83446 -6.67246
v -96.26431 38.39007 -79.22952
v -95.04194 33.66342 -81.06779
v -95.58511 37.85489 -83.27437
v -95.15764 38.24979 -82.84689
v -93.47781 33.42520 -85.07585
v -93.29275 37.67481 -87.31844
v -93.29275 37.67481 -87.31844
v -90.21509 33.12635 -90.21510
v -91.00758 36.28570 -91.00759
v -96.01241 39.22660 -75.40804
v -95.05776 34.64223 -77.50469
v -96.26431 38.39007 -79.22952
v -95.56917 40.36636 -70.97758
v -95.04568 35.32646 -72.71671
v -96.01241 39.22660 -75.40804
v -95.34137 40.93439 -67.29971
v -94.99061 36.66921 -69.11761
v -95.56917 40.36636 -70.97758
v -94.25787 41.75186 -64.35725
v -93.91888 37.43713 -65.55457
v -94.31116 41.47412 -67.84930
v -93.60092 42.71553 -60.76232
v -93.51203 37.52682 -62.43013
v -94.25787 41.75186 -64.35725
v -93.39964 41.98019 -57.02671
v -93.62753 37.76464 -59.00427
v -94.89973 41.82427 -60.48135
v -91.46272 41.55369 -55.11638
v -92.20971 37.83619 -55.96772
v -93.39964 41.98019 -57.02671
v -92.77963 35.60376 -62.95612
v -92.48492 39.19196 -61.68418
v -92.42410 36.27837 -59.79745
v -92.42410 36.27837 -59.79745
v -92.87680 39.44339 -57.85475
v -91.37897 36.46564 -57.13462
v -93.23421 34.93419 -65.91827
v -93.29562 38.77469 -64.66660
v -92.77963 35.60376 -62.95612
v -93.70722 34.38799 -69.31863
v -93.14529 37.49336 -67.95250
v -93.12121 34.36108 -65.41080
v -93.92273 33.24083 -73.59241
v -93.93401 37.36523 -71.60751
v -93.70722 34.38799 -69.31863
v -93.58905 33.16634 -77.27524
v -93.64753 36.11514 -76.09135
v -93.92273 33.24083 -73.59241
v -91.98772 31.99789 -81.42285
v -93.27614 36.19855 -79.53166
v -93.58905 33.16634 -77.27524
v -90.62533 31.52363 -85.40804
v -92.19514 35.28084 -83.50337
v -91.98772 31.99789 -81.42285
v -90.62533 31.52363 -85.40804
v -88.74505 31.12145 -88.74506
v -89.12456 34.47089 -89.12457
v -78.13463 22.75135 -45.92288
v -6.67245 75.83446 -6.67246
v -91.32721 35.76118 -91.32722
v 97.30522 10.44079 97.30524
v 87.08723 21.59336 87.08725
v 96.37344 86.68620 96.37345
v 81.48321 31.32910 81.48322
v 110.53555 94.01593 110.53557
v 77.43916 51.52628 77.43917
v 64.22683 60.40172 64.22684
v 77.43346 36.46233 77.43347
v -78.13463 22.75135 -45.92288
v -60.93331 65.28598 -87.72271
v -65.51596 59.44271 -91.30238
v -59.97572 57.71347 -87.83060
v -53.75218 53.58107 -88.84581
v -60.64994 53.52279 -94.02448
v -53.16073 59.47504 -86.11209
v 48.73840 54.83603 29.29196
v 38.15232 55.79930 15.56729
v 25.10140 58.10064 -3.80835
v 29.05991 40.64986 -7.97071
v 41.61727 42.76045 11.45806
v 85.89184 43.97910 78.26585
v 84.63079 48.72410 78.58455
v 80.94484 48.86816 74.19831
v 81.78619 43.98808 73.37518
v -60.68929 63.51241 -87.62825
v -65.29980 59.20305 -90.79401
v -58.91106 59.35032 -90.69478
v -61.92175 53.81498 -92.82049
v -55.94614 54.42785 -88.50646
v -54.94746 59.23400 -86.01281
v -17.59089 64.09471 -53.49287
v -32.08392 63.91441 -66.63904
v -23.64049 37.01591 -74.76877
v -10.29737 35.09541 -62.11214
v 6.98590 18.11074 -20.84262
v -6.77897 16.95381 -37.20274
v 6.98590 18.11074 -20.84262
v 22.95413 21.73606 -1.88238
v 59.29095 53.09316 43.44181
v -2.98996 62.81829 -39.53396
v 2.06806 36.95757 -45.65598
v 51.30286 44.14923 26.98072
v 59.50322 33.17580 43.19394
v 67.17503 35.07508 54.34111
v 61.04765 44.13971 41.68010
v -81.36359 54.72033 -98.23539
v -71.81811 61.55876 -90.81598
v -75.81248 47.72109 -100.52760
v 80.96903 38.96767 74.18391
v 84.23498 39.26003 78.16494
v -76.80959 33.36739 -95.00261
v -77.64631 29.06435 -91.87890
v -61.75016 68.01552 -86.04951
v -64.65127 67.62288 -82.08054
v -50.33869 38.44460 -89.73799
v -54.66237 25.79746 -84.44910
v -45.92287 22.75135 -78.13464
v -41.01611 38.78257 -86.96571
v 10.25103 59.97565 -23.87920
v 14.64661 38.82426 -28.43440
v -49.15459 63.52244 -76.90813
v -20.65841 16.73450 -52.06519
v -36.06778 19.45680 -69.77819
v -94.50038 50.85594 -102.25449
v 63.90707 57.52588 57.57331
v 66.89675 51.67341 54.61368
v 73.55530 50.82629 64.87430
v 74.70927 44.24886 63.73370
v -10.93124 73.87098 -30.78699
v -29.68182 75.96675 -42.26031
v -51.22298 50.01761 -92.86100
v -59.19253 49.70139 -96.50955
v -59.66890 44.06016 -96.11799
v 10.25103 59.97565 -23.87920
v 14.64661 38.82426 -28.43440
v -42.59139 50.90992 -85.16628
v -63.46712 36.28362 -93.80999
v -64.72525 28.26809 -89.99542
v -90.87672 44.42781 -102.38155
v 48.52142 30.60330 29.85492
v 68.24696 44.19965 53.27199
v 73.71764 37.05180 64.71970
v 85.89184 43.97910 78.26585
v 90.76965 43.97572 84.43519
v 84.63079 48.72410 78.58455
v 84.23498 39.26003 78.16494
v -73.31033 42.12300 -98.50467
v -13.21315 78.19188 -27.91572
v 1.15311 71.21463 -14.59216
v -15.34272 85.99674 -20.92426
v 1.15311 71.21463 -14.59216
v 96.98928 21.09577 94.48228
v 91.61578 31.83173 88.42653
v 103.95280 85.67591 101.17390
v 97.01604 70.91544 92.45075
v 108.73248 96.22116 107.60507
v 103.02926 10.88534 101.20451
v 93.23554 58.59002 88.69309
v -12.14716 27.70193 -60.47574
v 37.68783 26.76989 16.33981
v -1.40836 30.41249 -74.55583
v -8.41875 32.02901 -81.35623
v 2.42252 31.59431 -88.69656
v 8.19342 30.12052 -82.76425
v -2.87628 27.80190 -74.90042
v 7.06680 27.91163 -81.16698
v -5.22391 27.49264 -93.18441
v -16.52752 27.52950 -87.79096
v -16.42897 30.98826 -88.59088
v -3.67151 30.48523 -94.94581
v 7.06680 27.91163 -81.16698
v -2.87628 27.80190 -74.90042
v -17.94654 29.09733 -90.16554
v -4.59662 29.04956 -96.61456
v -86.33210 39.55902 -99.94478
v -82.20008 36.65610 -95.98833
v -71.88992 38.76271 -95.96559
v -59.85447 40.10511 -94.90807
v 14.76361 31.18558 -93.86485
v 19.26447 30.58693 -89.77314
v 10.37319 31.05348 -98.70038
v 17.96795 28.20974 -88.49461
v 9.80272 29.86352 -100.28342
v -23.64049 37.01591 -74.76877
v -10.29737 35.09541 -62.11214
v -17.94654 29.09733 -90.16554
v -32.05612 28.50156 -79.07045
v -28.92750 26.44762 -75.38246
v -31.60984 32.98421 -79.04472
v -12.14716 27.70193 -60.47574
v -32.05612 28.50156 -79.07045
v 24.18078 31.30018 -91.84717
v 19.20864 31.01147 -96.86856
v 21.40730 30.43186 -98.60301
v 27.74262 30.40127 -91.01251
v 17.96795 28.20974 -88.49461
v 19.26447 30.58693 -89.77314
v 24.18078 31.30018 -91.84717
v 27.74262 30.40127 -91.01251
v 23.07685 28.66324 -90.80754
v 63.44374 62.05145 59.03962
v 9.80272 29.86352 -100.28342
v 8.22831 28.34227 -95.74731
v 18.03995 28.86950 -95.70467
v 21.40730 30.43186 -98.60301
v -31.60984 32.98421 -79.04472
v 23.07685 28.66324 -90.80754
v 27.74262 30.40127 -91.01251
v 17.96795 28.20974 -88.49461
v -4.59662 29.04956 -96.61456
v 42.74736 22.93481 36.91821
v 42.66184 17.45486 39.70734
v -36.06778 19.45680 -69.77819
v -20.65841 16.73450 -52.06519
v -12.14716 27.70193 -60.47574
v -71.88992 38.76271 -95.96559
v -82.20008 36.65610 -95.98833
v -59.85447 40.10511 -94.90807
v -50.33869 38.44460 -89.73799
v -63.46712 36.28362 -93.80999
v -76.80959 33.36739 -95.00261
v -79.22949 38.39007 -96.26432
v -83.27435 37.85489 -95.58513
v -81.06779 33.66342 -95.04195
v -82.84688 38.24979 -95.15765
v -87.31843 37.67481 -93.29276
v -85.07584 33.42520 -93.47783
v -87.31843 37.67481 -93.29276
v -75.40801 39.22660 -96.01242
v -79.22949 38.39007 -96.26432
v -77.50468 34.64223 -95.05778
v -70.97755 40.36636 -95.56918
v -75.40801 39.22660 -96.01242
v -72.71669 35.32646 -95.04570
v -67.29970 40.93439 -95.34137
v -70.97755 40.36636 -95.56918
v -69.11759 36.66921 -94.99062
v -64.35723 41.75186 -94.25788
v -67.84928 41.47412 -94.31117
v -65.55455 37.43713 -93.91890
v -60.76231 42.71553 -93.60093
v -64.35723 41.75186 -94.25788
v -62.43012 37.52682 -93.51204
v -57.02669 41.98019 -93.39965
v -60.48133 41.82427 -94.89975
v -59.00425 37.76464 -93.62753
v -55.11637 41.55369 -91.46272
v -57.02669 41.98019 -93.39965
v -55.96770 37.83619 -92.20972
v -62.95610 35.60376 -92.77965
v -59.79743 36.27837 -92.42411
v -61.68417 39.19196 -92.48493
v -59.79743 36.27837 -92.42411
v -57.13461 36.46564 -91.37898
v -57.85474 39.44339 -92.87680
v -65.91825 34.93419 -93.23421
v -62.95610 35.60376 -92.77965
v -64.66658 38.77469 -93.29562
v -69.31861 34.38799 -93.70723
v -65.41079 34.36108 -93.12122
v -67.95248 37.49336 -93.14531
v -73.59239 33.24083 -93.92274
v -69.31861 34.38799 -93.70723
v -71.60750 37.36523 -93.93401
v -77.27522 33.16634 -93.58907
v -73.59239 33.24083 -93.92274
v -76.09133 36.11514 -93.64754
v -81.42284 31.99789 -91.98773
v -77.27522 33.16634 -93.58907
v -79.53165 36.19855 -93.27615
v -85.40803 31.52363 -90.62534
v -81.42284 31.99789 -91.98773
v -83.50336 35.28084 -92.19516
v -85.40803 31.52363 -90.62534
v -45.92287 22.75135 -78.13464
v -45.92287 22.75135 -78.13464
vt 0.359428 0.743326
vt 0.351363 0.717633
vt 0.313631 0.712309
vt 0.375060 0.695290
vt 0.331688 0.688946
vt 0.386064 0.719524
vt 0.595971 0.312861
vt 0.691400 0.312558
vt 0.690789 0.359637
vt 0.594728 0.336793
vt 0.693929 0.256129
vt 0.819486 0.240239
vt 0.818686 0.323544
vt 0.257890 0.257605
vt 0.293204 0.257655
vt 0.293276 0.284745
vt 0.261589 0.283946
vt 0.294315 0.299501
vt 0.377681 0.056669
vt 0.365934 0.096113
vt 0.409598 0.103971
vt 0.392089 0.146241
vt 0.321832 0.130485
vt 0.319504 0.086364
vt 0.713876 0.717556
vt 0.705152 0.629323
vt 0.587352 0.629923
vt 0.595986 0.733709
vt 0.823201 0.413140
vt 0.806920 0.509190
vt 0.922473 0.519163
vt 0.936777 0.430012
vt 0.948954 0.124226
vt 0.819555 0.140228
vt 0.818842 0.101352
vt 0.948299 0.078218
vt 0.499005 0.299639
vt 0.498249 0.330950
vt 0.804283 0.711677
vt 0.797505 0.622361
vt 0.594977 0.256944
vt 0.499145 0.204561
vt 0.425274 0.213627
vt 0.425292 0.192194
vt 0.501351 0.177714
vt 0.499025 0.256899
vt 0.165832 0.690299
vt 0.273761 0.733090
vt 0.186512 0.645881
vt 0.293237 0.229785
vt 0.264790 0.231408
vt 0.294360 0.215877
vt 0.231983 0.554585
vt 0.238766 0.526049
vt 0.185508 0.503891
vt 0.166930 0.519903
vt 0.366793 0.766328
vt 0.366585 0.783043
vt 0.253769 0.809337
vt 0.139061 0.759622
vt 0.407938 0.594268
vt 0.477060 0.603791
vt 0.494917 0.523987
vt 0.423651 0.519013
vt 0.491044 0.405660
vt 0.410115 0.415866
vt 0.909124 0.708277
vt 0.908172 0.622355
vt 0.475940 0.744832
vt 0.477620 0.849374
vt 0.615969 0.848396
vt 0.682738 0.502992
vt 0.680468 0.400274
vt 0.568265 0.402398
vt 0.573188 0.526293
vt 0.056477 0.666398
vt 0.009208 0.664919
vt 0.035292 0.701729
vt 0.425414 0.320800
vt 0.371778 0.310492
vt 0.358882 0.288818
vt 0.425296 0.292862
vt 0.358830 0.257420
vt 0.733259 0.798040
vt 0.818209 0.779581
vt 0.384682 0.655046
vt 0.316276 0.620656
vt 0.319714 0.653970
vt 0.947808 0.233726
vt 0.945155 0.337619
vt 0.817224 0.381169
vt 0.470582 0.656795
vt 0.327197 0.530650
vt 0.316258 0.578811
vt 0.307288 0.441556
vt 0.073466 0.617772
vt 0.033271 0.617247
vt 0.594613 0.192280
vt 0.425263 0.257185
vt 0.358852 0.223063
vt 0.257890 0.257605
vt 0.261589 0.283946
vt 0.214526 0.257586
vt 0.264790 0.231408
vt 0.212919 0.606076
vt 0.739824 0.847119
vt 0.828414 0.811000
vt 0.920832 0.765303
vt 0.867323 0.888128
vt 0.818786 0.906698
vt 0.908187 0.984632
vt 0.942011 0.393185
vt 0.150673 0.130573
vt 0.195537 0.190171
vt 0.118292 0.195782
vt 0.099578 0.140160
vt 0.127952 0.320254
vt 0.128311 0.257546
vt 0.099123 0.406566
vt 0.158543 0.407137
vt 0.097072 0.489076
vt 0.062930 0.480986
vt 0.053065 0.547616
vt 0.080474 0.547597
vt 0.017272 0.581712
vt 0.100577 0.073891
vt 0.065928 0.081095
vt 0.038369 0.018653
vt 0.188133 0.338714
vt 0.253287 0.358059
vt 0.222203 0.407678
vt 0.718719 0.564524
vt 0.690191 0.173981
vt 0.223226 0.474606
vt 0.183393 0.824931
vt 0.124960 0.800392
vt 0.106186 0.843772
vt 0.157862 0.873027
vt 0.449405 0.889504
vt 0.427777 0.973049
vt 0.484068 0.973584
vt 0.488460 0.886644
vt 0.084478 0.889553
vt 0.138727 0.928574
vt 0.187706 0.813589
vt 0.129363 0.788914
vt 0.075962 0.905804
vt 0.133490 0.946171
vt 0.117328 0.584843
vt 0.089078 0.579400
vt 0.233064 0.579458
vt 0.168145 0.565210
vt 0.315323 0.588537
vt 0.062550 0.799643
vt 0.068642 0.768217
vt 0.042648 0.830711
vt 0.073317 0.756777
vt 0.022526 0.836632
vt 0.217329 0.916853
vt 0.260349 0.860746
vt 0.364268 0.956208
vt 0.352739 0.982260
vt 0.419157 0.991617
vt 0.207656 0.950437
vt 0.264720 0.833801
vt 0.184484 0.977390
vt 0.933301 0.841011
vt 0.046221 0.752784
vt 0.038660 0.739272
vt 0.012091 0.781666
vt 0.039271 0.788576
vt 0.073317 0.756777
vt 0.054655 0.748253
vt 0.038660 0.739272
vt 0.046221 0.752784
vt 0.068642 0.768217
vt 0.441154 0.371081
vt 0.421477 0.352973
vt 0.571541 0.946610
vt 0.609886 0.900745
vt 0.573610 0.906483
vt 0.540541 0.941660
vt 0.552774 0.590295
vt 0.574398 0.879247
vt 0.577995 0.863458
vt 0.535762 0.886433
vt 0.477988 0.989808
vt 0.589553 0.155673
vt 0.541548 0.128304
vt 0.575362 0.119253
vt 0.679759 0.140603
vt 0.327054 0.939436
vt 0.389060 0.870963
vt 0.337965 0.873251
vt 0.356551 0.835840
vt 0.609421 0.111998
vt 0.413333 0.384598
vt 0.551168 0.083152
vt 0.359976 0.204111
vt 0.604851 0.067583
vt 0.622298 0.023403
vt 0.546074 0.023403
vt 0.562291 0.048632
vt 0.657134 0.087441
vt 0.713055 0.092073
vt 0.712724 0.023403
vt 0.780062 0.080500
vt 0.785290 0.023403
vt 0.832418 0.023403
vt 0.839274 0.060077
vt 0.861256 0.023403
vt 0.936847 0.806539
vt 0.654028 0.968358
vt 0.789689 0.931458
vt 0.654920 0.885634
vt 0.654028 0.968358
vt 0.789689 0.931458
vt 0.654920 0.885634
vt 0.654028 0.968358
vt 0.785478 0.932604
vt 0.655366 0.887948
vt 0.654028 0.968358
vt 0.789689 0.931458
vt 0.654920 0.885634
vt 0.654028 0.968358
vt 0.789689 0.931458
vt 0.654920 0.885634
vt 0.654028 0.968358
vt 0.789689 0.931458
vt 0.654920 0.885634
vt 0.654028 0.968358
vt 0.789689 0.931458
vt 0.654920 0.885634
vt 0.654028 0.968358
vt 0.789689 0.931458
vt 0.654920 0.885634
vt 0.654028 0.968358
vt 0.789689 0.931458
vt 0.654920 0.885634
vt 0.654028 0.968358
vt 0.789689 0.931458
vt 0.654920 0.885634
vt 0.654028 0.968358
vt 0.789689 0.931458
vt 0.654920 0.885634
vt 0.654028 0.968358
vt 0.789689 0.931458
vt 0.654920 0.885634
vt 0.654028 0.968358
vt 0.789689 0.931458
vt 0.654920 0.885634
vt 0.654028 0.968358
vt 0.789689 0.931458
vt 0.654920 0.885634
vt 0.654028 0.968358
vt 0.789689 0.931458
vt 0.654920 0.885634
vt 0.654028 0.968358
vt 0.789689 0.931458
vt 0.654920 0.885634
vt 0.654028 0.968358
vt 0.789689 0.931458
vt 0.654920 0.885634
vt 0.654028 0.968358
vt 0.789689 0.931458
vt 0.654920 0.885634
vt 0.654920 0.885634
vt 0.659403 0.963598
vt 0.785303 0.929967
vt 0.299457 0.970981
vt 0.940252 0.411643
vt 0.140087 0.559158
vt 0.138352 0.071424
vt 0.218571 0.133335
vt 0.146050 0.494727
vt 0.262566 0.187381
vt 0.034070 0.535096
vt 0.294315 0.299501
vt 0.398042 0.352278
vt 0.294360 0.215877
vt 0.210759 0.984619
vt 0.359428 0.743326
vt 0.313631 0.712309
vt 0.351363 0.717633
vt 0.375060 0.695290
vt 0.331688 0.688946
vt 0.386064 0.719524
vt 0.595971 0.312861
vt 0.691400 0.312558
vt 0.818686 0.323544
vt 0.819486 0.240239
vt 0.693929 0.256129
vt 0.257890 0.257605
vt 0.261589 0.283946
vt 0.293276 0.284745
vt 0.293204 0.257655
vt 0.377681 0.056669
vt 0.409598 0.103971
vt 0.365934 0.096113
vt 0.392089 0.146241
vt 0.321832 0.130485
vt 0.319504 0.086364
vt 0.713876 0.717556
vt 0.595986 0.733709
vt 0.587352 0.629923
vt 0.705152 0.629323
vt 0.922473 0.519163
vt 0.806920 0.509190
vt 0.948954 0.124226
vt 0.819555 0.140228
vt 0.499005 0.299639
vt 0.804283 0.711677
vt 0.797505 0.622361
vt 0.594977 0.256944
vt 0.499145 0.204561
vt 0.425274 0.213627
vt 0.499025 0.256899
vt 0.165832 0.690299
vt 0.273761 0.733090
vt 0.186512 0.645881
vt 0.293237 0.229785
vt 0.264790 0.231408
vt 0.231983 0.554585
vt 0.238766 0.526049
vt 0.366793 0.766328
vt 0.366585 0.783043
vt 0.407938 0.594268
vt 0.423651 0.519013
vt 0.494917 0.523987
vt 0.477060 0.603791
vt 0.909124 0.708277
vt 0.908172 0.622355
vt 0.475940 0.744832
vt 0.682738 0.502992
vt 0.573188 0.526293
vt 0.056477 0.666398
vt 0.425414 0.320800
vt 0.425296 0.292862
vt 0.358882 0.288818
vt 0.358830 0.257420
vt 0.818209 0.779581
vt 0.733259 0.798040
vt 0.384682 0.655046
vt 0.319714 0.653970
vt 0.316276 0.620656
vt 0.945155 0.337619
vt 0.947808 0.233726
vt 0.470582 0.656795
vt 0.316258 0.578811
vt 0.327197 0.530650
vt 0.073466 0.617772
vt 0.594613 0.192280
vt 0.425263 0.257185
vt 0.358852 0.223063
vt 0.257890 0.257605
vt 0.214526 0.257586
vt 0.261589 0.283946
vt 0.264790 0.231408
vt 0.212919 0.606076
vt 0.828414 0.811000
vt 0.920832 0.765303
vt 0.867323 0.888128
vt 0.942011 0.393185
vt 0.150673 0.130573
vt 0.195537 0.190171
vt 0.097072 0.489076
vt 0.158543 0.407137
vt 0.053065 0.547616
vt 0.100577 0.073891
vt 0.188133 0.338714
vt 0.718719 0.564524
vt 0.690191 0.173981
vt 0.183393 0.824931
vt 0.157862 0.873027
vt 0.106186 0.843772
vt 0.124960 0.800392
vt 0.449405 0.889504
vt 0.488460 0.886644
vt 0.484068 0.973584
vt 0.427777 0.973049
vt 0.138727 0.928574
vt 0.084478 0.889553
vt 0.129363 0.788914
vt 0.187706 0.813589
vt 0.133490 0.946171
vt 0.075962 0.905804
vt 0.117328 0.584843
vt 0.168145 0.565210
vt 0.233064 0.579458
vt 0.315323 0.588537
vt 0.062550 0.799643
vt 0.068642 0.768217
vt 0.042648 0.830711
vt 0.073317 0.756777
vt 0.022526 0.836632
vt 0.217329 0.916853
vt 0.260349 0.860746
vt 0.419157 0.991617
vt 0.352739 0.982260
vt 0.364268 0.956208
vt 0.207656 0.950437
vt 0.264720 0.833801
vt 0.184484 0.977390
vt 0.046221 0.752784
vt 0.039271 0.788576
vt 0.012091 0.781666
vt 0.038660 0.739272
vt 0.073317 0.756777
vt 0.068642 0.768217
vt 0.046221 0.752784
vt 0.038660 0.739272
vt 0.054655 0.748253
vt 0.421477 0.352973
vt 0.571541 0.946610
vt 0.540541 0.941660
vt 0.573610 0.906483
vt 0.609886 0.900745
vt 0.552774 0.590295
vt 0.574398 0.879247
vt 0.577995 0.863458
vt 0.535762 0.886433
vt 0.477988 0.989808
vt 0.589553 0.155673
vt 0.575362 0.119253
vt 0.327054 0.939436
vt 0.337965 0.873251
vt 0.389060 0.870963
vt 0.604851 0.067583
vt 0.562291 0.048632
vt 0.657134 0.087441
vt 0.713055 0.092073
vt 0.780062 0.080500
vt 0.839274 0.060077
vt 0.654028 0.968358
vt 0.654920 0.885634
vt 0.789689 0.931458
vt 0.654028 0.968358
vt 0.654920 0.885634
vt 0.789689 0.931458
vt 0.654028 0.968358
vt 0.654028 0.968358
vt 0.654920 0.885634
vt 0.789689 0.931458
vt 0.654028 0.968358
vt 0.654920 0.885634
vt 0.789689 0.931458
vt 0.654028 0.968358
vt 0.654920 0.885634
vt 0.789689 0.931458
vt 0.654028 0.968358
vt 0.654920 0.885634
vt 0.789689 0.931458
vt 0.654028 0.968358
vt 0.654920 0.885634
vt 0.789689 0.931458
vt 0.654028 0.968358
vt 0.654920 0.885634
vt 0.789689 0.931458
vt 0.654028 0.968358
vt 0.654920 0.885634
vt 0.789689 0.931458
vt 0.654028 0.968358
vt 0.654920 0.885634
vt 0.789689 0.931458
vt 0.654028 0.968358
vt 0.654920 0.885634
vt 0.789689 0.931458
vt 0.654028 0.968358
vt 0.654920 0.885634
vt 0.789689 0.931458
vt 0.654028 0.968358
vt 0.654920 0.885634
vt 0.789689 0.931458
vt 0.654028 0.968358
vt 0.654920 0.885634
vt 0.789689 0.931458
vt 0.654028 0.968358
vt 0.654920 0.885634
vt 0.789689 0.931458
vt 0.654028 0.968358
vt 0.654920 0.885634
vt 0.789689 0.931458
vt 0.654028 0.968358
vt 0.654920 0.885634
vt 0.789689 0.931458
vt 0.654920 0.885634
vt 0.299457 0.970981
vt 0.210759 0.984619
vn -0.82953 0.41021 0.37897
vn -0.81534 0.42070 0.39779
vn -0.81683 0.49339 0.29893
vn -0.64928 0.62424 0.43446
vn -0.68715 0.63729 0.34884
vn -0.79349 0.33241 0.50978
vn -0.44355 0.57647 0.68625
vn -0.44801 0.56807 0.69036
vn 0.12909 0.98319 0.12909
vn 0.12862 0.98332 0.12862
vn -0.54995 0.01357 0.83509
vn -0.55249 -0.03187 0.83291
vn -0.39884 0.62712 0.66906
vn -0.63686 -0.00037 0.77098
vn -0.61124 0.05323 0.78965
vn -0.50247 0.53062 0.68262
vn -0.49967 0.60664 0.61831
vn 0.13248 0.98229 0.13248
vn -0.69196 0.64682 0.32066
vn -0.81563 0.38490 0.43196
vn -0.87805 0.47856 0.00261
vn -0.93051 0.18561 0.31575
vn -0.73061 0.08339 0.67769
vn -0.58315 0.41072 0.70089
vn -0.58521 0.57066 0.57608
vn -0.42812 0.33558 0.83911
vn -0.60625 0.63740 0.47559
vn -0.57947 0.68152 0.44692
vn 0.02837 -0.99919 0.02837
vn -0.36698 -0.79340 0.48564
vn -0.35780 -0.76005 0.54251
vn 0.07751 -0.99397 0.07751
vn -0.35780 -0.76005 0.54251
vn -0.34918 -0.69255 0.63122
vn 0.14335 -0.97923 0.14335
vn 0.07751 -0.99397 0.07751
vn -0.43855 0.59813 0.67076
vn -0.03219 0.99896 -0.03219
vn -0.51490 0.58582 0.62585
vn -0.57749 -0.14484 0.80345
vn -0.55354 -0.02821 0.83235
vn -0.39725 -0.60953 0.68605
vn -0.38327 -0.57015 0.72666
vn 0.15360 -0.97612 0.15360
vn 0.25877 -0.93063 0.25877
vn -0.54618 0.04967 0.83620
vn -0.80729 0.58090 0.10406
vn -0.68548 0.72648 -0.04844
vn -0.97435 0.13288 0.18159
vn -0.51063 -0.47926 0.71383
vn -0.46917 -0.62137 0.62752
vn 0.14282 -0.97939 0.14282
vn -0.78136 -0.61303 -0.11690
vn -0.65725 -0.75064 -0.06753
vn -0.47462 -0.74127 -0.47462
vn -0.49239 -0.71770 -0.49239
vn -0.44070 0.88899 0.12445
vn -0.32351 0.94604 0.01893
vn -0.30434 0.90264 -0.30434
vn -0.33403 0.88139 -0.33403
vn -0.85237 -0.37681 0.36260
vn -0.86160 -0.19833 0.46724
vn -0.72066 -0.67044 0.17653
vn -0.63115 -0.75897 0.16004
vn -0.20690 -0.95623 -0.20690
vn -0.24234 -0.93944 -0.24234
vn -0.50312 0.48745 0.71363
vn -0.57702 -0.07989 0.81281
vn -0.48458 0.73385 0.47607
vn -0.10706 0.98847 -0.10706
vn -0.09940 0.99007 -0.09940
vn -0.37026 -0.86969 0.32642
vn -0.01606 -0.99974 -0.01606
vn -0.11128 -0.98754 -0.11128
vn -0.48599 -0.83809 0.24782
vn -0.95208 0.30580 0.00528
vn -0.69785 0.16128 -0.69785
vn -0.45758 0.76239 -0.45758
vn -0.45315 0.57946 0.67741
vn 0.32665 0.88691 0.32665
vn -0.38614 0.57646 0.72014
vn -0.48297 0.37786 0.78991
vn -0.55831 0.01988 0.82939
vn -0.47116 0.80450 0.36164
vn -0.48195 0.68613 0.54493
vn -0.85635 0.24120 0.45661
vn -0.92172 -0.20424 0.32971
vn -0.85796 0.39402 0.32962
vn -0.57702 -0.07989 0.81281
vn -0.50312 0.48745 0.71363
vn 0.16373 0.97282 0.16373
vn -0.69689 0.49649 0.51754
vn -0.72145 -0.67174 0.16816
vn -0.83912 -0.50038 0.21332
vn -0.25223 -0.93422 -0.25223
vn -0.96979 -0.23766 -0.05502
vn -0.62745 -0.46111 -0.62745
vn -0.38983 -0.62832 0.67324
vn -0.52604 0.04080 0.84948
vn -0.39113 -0.55860 0.73143
vn -0.62021 -0.00562 0.78442
vn -0.76733 0.24680 0.59185
vn -0.57911 -0.02897 0.81474
vn -0.72727 -0.34731 0.59199
vn -0.87865 -0.44442 0.17454
vn -0.15261 0.97643 -0.15261
vn -0.46403 0.66631 0.58370
vn -0.25722 0.78974 0.55691
vn -0.59093 0.42619 0.68495
vn -0.26741 0.92573 -0.26741
vn 0.09058 0.99176 0.09058
vn -0.25722 0.78974 0.55691
vn -0.70188 -0.05255 0.71036
vn -0.68069 -0.13784 0.71949
vn 0.67325 0.30574 0.67325
vn 0.63140 0.45019 0.63140
vn 0.69393 -0.19217 0.69393
vn 0.70360 -0.09945 0.70360
vn 0.64988 -0.39409 0.64988
vn -0.69302 0.03980 0.71982
vn -0.66708 0.05368 0.74305
vn 0.64376 -0.41371 0.64376
vn -0.65643 0.05152 0.75263
vn -0.39412 0.83026 -0.39412
vn 0.10301 0.98933 0.10301
vn -0.67571 -0.04298 0.73592
vn 0.63126 0.45059 0.63126
vn 0.08576 -0.99262 0.08576
vn -0.71564 0.09167 0.69243
vn -0.51915 0.67895 -0.51915
vn -0.59457 0.54128 -0.59457
vn -0.18962 -0.70329 0.68515
vn -0.37969 -0.60482 0.70002
vn -0.30243 -0.90392 -0.30243
vn 0.48380 0.58697 0.64915
vn 0.55475 0.73408 0.39164
vn 0.01743 0.99902 0.04072
vn -0.10600 0.98913 0.10188
vn 0.24500 -0.93338 0.26226
vn -0.27735 -0.94864 -0.15217
vn -0.19997 -0.97929 -0.03160
vn 0.56127 -0.70658 0.43094
vn -0.35062 0.92750 -0.12964
vn -0.46273 0.87406 -0.14800
vn 0.24500 -0.93338 0.26226
vn 0.56127 -0.70658 0.43094
vn -0.92455 -0.09695 -0.36853
vn -0.85792 -0.05871 -0.51042
vn -0.76249 -0.64688 -0.01249
vn -0.44604 -0.77595 -0.44604
vn -0.81637 -0.56362 0.12595
vn -0.68781 -0.72348 0.05907
vn -0.88581 -0.38624 0.25720
vn 0.04865 0.99772 0.04672
vn 0.31796 0.93575 0.15255
vn -0.28562 0.95817 -0.01822
vn 0.45620 -0.80859 0.37157
vn -0.99273 -0.11324 -0.04071
vn -0.60625 0.63740 0.47559
vn -0.42812 0.33558 0.83911
vn -0.29216 -0.94913 0.11749
vn -0.75135 -0.64481 -0.14032
vn -0.85792 -0.05871 -0.51042
vn -0.97699 0.20384 -0.06273
vn -0.18962 -0.70329 0.68515
vn -0.75135 -0.64481 -0.14032
vn 0.58609 0.55946 0.58609
vn -0.12030 0.98776 0.09931
vn -0.64046 0.02764 0.76749
vn -0.84252 0.04414 0.53685
vn -0.17961 0.98296 0.03910
vn 0.94910 0.10555 0.29676
vn 0.54131 -0.77988 0.31429
vn 0.96460 -0.04817 0.25928
vn 0.82812 0.52971 0.18338
vn 0.89403 0.29878 0.33382
vn -0.42878 0.79517 -0.42878
vn -0.55381 0.37951 0.74113
vn -0.99273 -0.11324 -0.04071
vn -0.84252 0.04414 0.53685
vn -0.22631 -0.96948 0.09432
vn -0.15410 -0.98745 0.03467
vn -0.97699 0.20384 -0.06273
vn -0.21056 -0.95743 0.19745
vn -0.64046 0.02764 0.76749
vn 0.45620 -0.80859 0.37157
vn -0.92455 -0.09695 -0.36853
vn -0.55700 -0.45095 0.69742
vn 0.57287 -0.58621 0.57287
vn -0.64308 -0.28793 0.70961
vn 0.09547 -0.99084 0.09547
vn -0.48599 -0.83809 0.24782
vn -0.18962 -0.70329 0.68515
vn -0.37026 -0.86969 0.32642
vn -0.21324 0.95345 -0.21324
vn -0.26800 -0.92539 -0.26800
vn 0.25938 0.93029 0.25938
vn 0.11556 -0.98656 0.11556
vn 0.18200 -0.96631 0.18200
vn 0.25725 -0.95182 0.16691
vn 0.09956 -0.99004 0.09956
vn 0.23315 -0.94408 0.23315
vn 0.19897 -0.96025 0.19576
vn 0.01165 -0.99733 -0.07214
vn -0.64650 -0.00693 -0.76288
vn -0.70581 -0.06053 -0.70581
vn -0.07104 0.97183 -0.22473
vn -0.17926 0.96733 -0.17926
vn -0.07125 0.99491 -0.07125
vn 0.03332 0.98953 -0.14044
vn 0.01028 0.99989 0.01028
vn 0.31487 0.89539 0.31487
vn -0.97362 -0.22800 -0.00902
vn -0.97065 -0.19781 -0.13682
vn -0.97065 -0.19781 -0.13682
vn -0.91902 -0.15193 -0.36375
vn -0.91902 -0.15193 -0.36375
vn -0.89078 -0.23564 -0.38858
vn -0.89078 -0.23564 -0.38858
vn -0.66642 -0.33433 -0.66642
vn -0.66642 -0.33433 -0.66642
vn -0.97106 -0.20180 0.12778
vn -0.95980 -0.25426 0.11892
vn -0.97362 -0.22800 -0.00902
vn -0.98537 -0.13203 0.10775
vn -0.97944 -0.14875 0.13626
vn -0.97106 -0.20180 0.12778
vn -0.99019 -0.11515 0.07912
vn -0.99019 -0.11515 0.07912
vn -0.98537 -0.13203 0.10775
vn -0.99029 -0.08304 0.11149
vn -0.99620 -0.08435 0.02191
vn -0.99620 -0.08435 0.02191
vn -0.97640 -0.08106 0.20016
vn -0.97640 -0.08106 0.20016
vn -0.99029 -0.08304 0.11149
vn -0.82084 -0.08128 0.56535
vn -0.90611 -0.13853 0.39971
vn -0.90611 -0.13853 0.39971
vn -0.70438 -0.02095 0.70951
vn -0.70438 -0.02095 0.70951
vn -0.82084 -0.08128 0.56535
vn -0.99080 -0.01236 0.13476
vn -0.99373 0.04541 0.10216
vn -0.95819 -0.15546 0.24022
vn -0.95819 -0.15546 0.24022
vn -0.86451 -0.34690 0.36370
vn -0.86451 -0.34690 0.36370
vn -0.98350 -0.07008 0.16677
vn -0.98350 -0.07008 0.16677
vn -0.99080 -0.01236 0.13476
vn -0.99376 0.04100 0.10374
vn -0.98254 0.11263 0.14812
vn -0.98254 0.11263 0.14812
vn -0.99985 -0.00719 -0.01602
vn -0.99780 -0.03094 0.05862
vn -0.99376 0.04100 0.10374
vn -0.97604 -0.06360 -0.20808
vn -0.99575 0.01661 -0.09056
vn -0.99985 -0.00719 -0.01602
vn -0.93274 -0.19208 -0.30513
vn -0.93619 -0.14249 -0.32131
vn -0.97604 -0.06360 -0.20808
vn -0.90286 -0.19760 -0.38183
vn -0.92673 -0.24114 -0.28812
vn -0.93274 -0.19208 -0.30513
vn -0.90286 -0.19760 -0.38183
vn -0.69820 -0.15822 -0.69820
vn -0.69820 -0.15822 -0.69820
vn -0.72066 -0.67044 0.17653
vn 0.31487 0.89539 0.31487
vn -0.32486 -0.88822 -0.32486
vn -0.40268 -0.82201 -0.40268
vn -0.49030 -0.72056 -0.49030
vn -0.48130 0.73260 -0.48130
vn -0.39542 -0.82903 -0.39542
vn 0.64706 -0.40326 0.64706
vn -0.57911 0.57382 -0.57911
vn 0.63746 0.43277 0.63746
vn -0.47195 -0.74467 -0.47195
vn -0.72066 -0.67044 0.17653
vn 0.37897 0.41021 -0.82953
vn 0.29893 0.49339 -0.81683
vn 0.39779 0.42070 -0.81534
vn 0.43446 0.62424 -0.64928
vn 0.34884 0.63729 -0.68715
vn 0.50978 0.33241 -0.79349
vn 0.68625 0.57647 -0.44355
vn 0.69036 0.56807 -0.44801
vn 0.66906 0.62712 -0.39884
vn 0.83291 -0.03187 -0.55249
vn 0.83509 0.01357 -0.54995
vn 0.77098 -0.00037 -0.63686
vn 0.61831 0.60664 -0.49967
vn 0.68262 0.53062 -0.50247
vn 0.78965 0.05323 -0.61124
vn 0.32066 0.64682 -0.69195
vn 0.00261 0.47856 -0.87805
vn 0.43196 0.38490 -0.81563
vn 0.31575 0.18560 -0.93051
vn 0.67769 0.08339 -0.73061
vn 0.70089 0.41072 -0.58315
vn 0.57608 0.57066 -0.58521
vn 0.44692 0.68152 -0.57947
vn 0.47559 0.63740 -0.60625
vn 0.83911 0.33558 -0.42812
vn 0.54251 -0.76005 -0.35780
vn 0.48564 -0.79340 -0.36698
vn 0.54251 -0.76005 -0.35780
vn 0.63122 -0.69255 -0.34918
vn 0.67076 0.59813 -0.43855
vn 0.62585 0.58582 -0.51490
vn 0.80345 -0.14484 -0.57749
vn 0.83235 -0.02821 -0.55354
vn 0.68605 -0.60953 -0.39725
vn 0.72666 -0.57015 -0.38327
vn 0.83620 0.04967 -0.54618
vn 0.10406 0.58090 -0.80729
vn -0.04844 0.72648 -0.68548
vn 0.18159 0.13288 -0.97435
vn 0.71384 -0.47926 -0.51063
vn 0.62752 -0.62137 -0.46917
vn -0.11689 -0.61303 -0.78136
vn -0.06753 -0.75064 -0.65725
vn 0.12445 0.88899 -0.44070
vn 0.01893 0.94604 -0.32351
vn 0.36260 -0.37681 -0.85237
vn 0.16004 -0.75897 -0.63115
vn 0.17653 -0.67044 -0.72066
vn 0.46724 -0.19833 -0.86160
vn 0.71363 0.48745 -0.50312
vn 0.81281 -0.07989 -0.57702
vn 0.47607 0.73385 -0.48458
vn 0.32642 -0.86969 -0.37026
vn 0.24782 -0.83809 -0.48599
vn 0.00528 0.30580 -0.95208
vn 0.67741 0.57946 -0.45315
vn 0.78991 0.37786 -0.48297
vn 0.72014 0.57646 -0.38614
vn 0.82939 0.01989 -0.55831
vn 0.54493 0.68613 -0.48195
vn 0.36164 0.80450 -0.47116
vn 0.45661 0.24120 -0.85635
vn 0.32962 0.39402 -0.85796
vn 0.32971 -0.20424 -0.92172
vn 0.71363 0.48745 -0.50312
vn 0.81281 -0.07989 -0.57702
vn 0.51754 0.49649 -0.69689
vn 0.21332 -0.50038 -0.83912
vn 0.16816 -0.67174 -0.72145
vn -0.05502 -0.23766 -0.96979
vn 0.67324 -0.62832 -0.38983
vn 0.84948 0.04080 -0.52604
vn 0.73143 -0.55860 -0.39113
vn 0.78442 -0.00562 -0.62021
vn 0.81474 -0.02897 -0.57911
vn 0.59185 0.24680 -0.76733
vn 0.59199 -0.34731 -0.72727
vn 0.17454 -0.44442 -0.87865
vn 0.58370 0.66632 -0.46403
vn 0.55691 0.78974 -0.25722
vn 0.68495 0.42619 -0.59093
vn 0.55691 0.78974 -0.25722
vn 0.71036 -0.05255 -0.70188
vn 0.71949 -0.13784 -0.68069
vn 0.74305 0.05368 -0.66708
vn 0.71982 0.03980 -0.69302
vn 0.75263 0.05152 -0.65643
vn 0.73592 -0.04298 -0.67571
vn 0.69243 0.09167 -0.71564
vn 0.68515 -0.70329 -0.18962
vn 0.70002 -0.60482 -0.37969
vn 0.64915 0.58697 0.48380
vn 0.10188 0.98913 -0.10600
vn 0.04072 0.99902 0.01743
vn 0.39164 0.73408 0.55475
vn 0.26226 -0.93338 0.24500
vn 0.43094 -0.70658 0.56127
vn -0.03160 -0.97929 -0.19997
vn -0.15217 -0.94864 -0.27735
vn -0.14800 0.87406 -0.46273
vn -0.12964 0.92750 -0.35062
vn 0.43094 -0.70658 0.56127
vn 0.26226 -0.93338 0.24500
vn -0.51042 -0.05871 -0.85792
vn -0.36852 -0.09695 -0.92455
vn -0.01249 -0.64688 -0.76249
vn 0.05907 -0.72348 -0.68781
vn 0.12595 -0.56362 -0.81637
vn 0.25720 -0.38624 -0.88581
vn 0.04672 0.99772 0.04865
vn 0.15255 0.93575 0.31796
vn -0.01822 0.95817 -0.28562
vn 0.37157 -0.80859 0.45620
vn -0.04071 -0.11324 -0.99273
vn 0.47559 0.63740 -0.60625
vn 0.83911 0.33558 -0.42812
vn -0.51042 -0.05871 -0.85792
vn -0.14031 -0.64481 -0.75135
vn 0.11749 -0.94913 -0.29216
vn -0.06273 0.20384 -0.97699
vn 0.68515 -0.70329 -0.18962
vn -0.14031 -0.64481 -0.75135
vn 0.09931 0.98776 -0.12030
vn 0.03910 0.98296 -0.17961
vn 0.53685 0.04414 -0.84252
vn 0.76749 0.02764 -0.64046
vn 0.29676 0.10555 0.94910
vn 0.33382 0.29878 0.89403
vn 0.18337 0.52971 0.82812
vn 0.25928 -0.04817 0.96460
vn 0.31429 -0.77988 0.54130
vn 0.74113 0.37951 -0.55381
vn -0.04071 -0.11324 -0.99273
vn 0.03467 -0.98745 -0.15410
vn 0.09432 -0.96948 -0.22631
vn 0.53685 0.04414 -0.84252
vn -0.06273 0.20384 -0.97699
vn 0.19745 -0.95743 -0.21056
vn 0.76749 0.02764 -0.64046
vn 0.37157 -0.80859 0.45620
vn -0.36852 -0.09695 -0.92455
vn 0.69742 -0.45095 -0.55700
vn 0.70961 -0.28793 -0.64308
vn 0.24782 -0.83809 -0.48599
vn 0.32642 -0.86969 -0.37026
vn 0.68515 -0.70329 -0.18962
vn 0.16691 -0.95182 0.25725
vn 0.19576 -0.96025 0.19897
vn -0.07214 -0.99733 0.01165
vn -0.76288 -0.00693 -0.64651
vn -0.22473 0.97183 -0.07104
vn -0.14044 0.98953 0.03332
vn -0.00902 -0.22800 -0.97362
vn -0.13681 -0.19781 -0.97065
vn -0.13681 -0.19781 -0.97065
vn -0.36375 -0.15193 -0.91902
vn -0.38858 -0.23564 -0.89078
vn -0.36375 -0.15193 -0.91902
vn -0.38858 -0.23564 -0.89078
vn 0.12778 -0.20180 -0.97106
vn -0.00902 -0.22800 -0.97362
vn 0.11892 -0.25426 -0.95980
vn 0.10775 -0.13202 -0.98537
vn 0.12778 -0.20180 -0.97106
vn 0.13625 -0.14875 -0.97944
vn 0.07912 -0.11515 -0.99019
vn 0.10775 -0.13202 -0.98537
vn 0.07912 -0.11515 -0.99019
vn 0.11149 -0.08304 -0.99029
vn 0.02191 -0.08435 -0.99620
vn 0.02191 -0.08435 -0.99620
vn 0.20016 -0.08107 -0.97640
vn 0.11149 -0.08304 -0.99029
vn 0.20016 -0.08107 -0.97640
vn 0.56535 -0.08128 -0.82084
vn 0.39971 -0.13853 -0.90611
vn 0.39971 -0.13853 -0.90611
vn 0.70951 -0.02094 -0.70438
vn 0.56535 -0.08128 -0.82084
vn 0.70951 -0.02094 -0.70438
vn 0.13476 -0.01236 -0.99080
vn 0.24022 -0.15546 -0.95819
vn 0.10216 0.04541 -0.99373
vn 0.24022 -0.15546 -0.95819
vn 0.36371 -0.34689 -0.86451
vn 0.36371 -0.34689 -0.86451
vn 0.16677 -0.07008 -0.98350
vn 0.13476 -0.01236 -0.99080
vn 0.16677 -0.07008 -0.98350
vn 0.10374 0.04100 -0.99376
vn 0.14811 0.11263 -0.98254
vn 0.14811 0.11263 -0.98254
vn -0.01602 -0.00719 -0.99985
vn 0.10374 0.04100 -0.99376
vn 0.05862 -0.03094 -0.99780
vn -0.20808 -0.06360 -0.97604
vn -0.01602 -0.00719 -0.99985
vn -0.09056 0.01661 -0.99575
vn -0.30513 -0.19208 -0.93274
vn -0.20808 -0.06360 -0.97604
vn -0.32131 -0.14249 -0.93619
vn -0.38183 -0.19760 -0.90286
vn -0.30513 -0.19208 -0.93274
vn -0.28812 -0.24114 -0.92673
vn -0.38183 -0.19760 -0.90286
vn 0.17653 -0.67044 -0.72066
vn 0.17653 -0.67044 -0.72066
f 172/172/172 175/175/175 176/176/176
f 172/172/172 174/174/174 175/175/175
f 172/172/172 173/173/173 174/174/174
f 408/408/408 411/411/411 412/412/412
f 408/408/408 410/410/410 411/411/411
f 408/408/408 409/409/409 410/410/410
f 129/129/129 130/130/130 131/131/131
f 278/278/278 357/357/357 130/130/130
f 370/370/370 130/130/130 357/357/357
f 131/131/131 130/130/130 370/370/370
f 275/275/275 131/131/131 367/367/367
f 370/370/370 367/367/367 131/131/131
f 120/120/120 131/131/131 275/275/275
f 120/120/120 119/119/119 117/117/117
f 275/275/275 121/121/121 120/120/120
f 119/119/119 120/120/120 121/121/121
f 124/124/124 275/275/275 366/366/366
f 367/367/367 366/366/366 275/275/275
f 121/121/121 275/275/275 124/124/124
f 117/117/117 119/119/119 367/367/367
f 367/367/367 370/370/370 117/117/117
f 366/366/366 367/367/367 119/119/119
f 357/357/357 356/356/356 370/370/370
f 402/402/402 397/397/397 373/373/373
f 373/373/373 384/384/384 402/402/402
f 373/373/373 397/397/397 396/396/396
f 396/396/396 374/374/374 373/373/373
f 383/383/383 384/384/384 373/373/373
f 373/373/373 376/376/376 383/383/383
f 375/375/375 376/376/376 373/373/373
f 373/373/373 374/374/374 375/375/375
f 375/375/375 382/382/382 393/393/393
f 393/393/393 391/391/391 375/375/375
f 376/376/376 375/375/375 391/391/391
f 382/382/382 375/375/375 374/374/374
f 381/381/381 374/374/374 396/396/396
f 165/165/165 145/145/145 135/135/135
f 135/135/135 160/160/160 165/165/165
f 135/135/135 138/138/138 159/159/159
f 159/159/159 160/160/160 135/135/135
f 146/146/146 136/136/136 135/135/135
f 135/135/135 145/145/145 146/146/146
f 137/137/137 138/138/138 135/135/135
f 135/135/135 136/136/136 137/137/137
f 137/137/137 154/154/154 156/156/156
f 156/156/156 143/143/143 137/137/137
f 154/154/154 137/137/137 136/136/136
f 138/138/138 137/137/137 143/143/143
f 159/159/159 138/138/138 144/144/144
f 204/204/204 201/201/201 200/200/200
f 202/202/202 203/203/203 200/200/200
f 200/200/200 201/201/201 202/202/202
f 206/206/206 201/201/201 204/204/204
f 204/204/204 205/205/205 206/206/206
f 430/430/430 428/428/428 201/201/201
f 430/430/430 201/201/201 206/206/206
f 202/202/202 201/201/201 428/428/428
f 428/428/428 429/429/429 202/202/202
f 206/206/206 431/431/431 430/430/430
f 206/206/206 208/208/208 432/432/432
f 432/432/432 431/431/431 206/206/206
f 206/206/206 205/205/205 207/207/207
f 104/104/104 101/101/101 103/103/103
f 101/101/101 102/102/102 103/103/103
f 276/276/276 280/280/280 104/104/104
f 276/276/276 104/104/104 114/114/114
f 114/114/114 104/104/104 103/103/103
f 129/129/129 103/103/103 102/102/102
f 129/129/129 117/117/117 103/103/103
f 114/114/114 103/103/103 118/118/118
f 103/103/103 117/117/117 118/118/118
f 278/278/278 130/130/130 102/102/102
f 102/102/102 130/130/130 129/129/129
f 117/117/117 129/129/129 120/120/120
f 131/131/131 120/120/120 129/129/129
f 207/207/207 208/208/208 206/206/206
f 432/432/432 208/208/208 209/209/209
f 209/209/209 208/208/208 207/207/207
f 209/209/209 433/433/433 432/432/432
f 209/209/209 211/211/211 433/433/433
f 207/207/207 210/210/210 209/209/209
f 210/210/210 211/211/211 209/209/209
f 374/374/374 381/381/381 382/382/382
f 396/396/396 401/401/401 381/381/381
f 385/385/385 381/381/381 401/401/401
f 386/386/386 382/382/382 381/381/381
f 381/381/381 385/385/385 386/386/386
f 382/382/382 386/386/386 395/395/395
f 395/395/395 393/393/393 382/382/382
f 393/393/393 405/405/405 391/391/391
f 405/405/405 393/393/393 395/395/395
f 391/391/391 405/405/405 392/392/392
f 391/391/391 392/392/392 376/376/376
f 395/395/395 406/406/406 405/405/405
f 405/405/405 404/404/404 392/392/392
f 404/404/404 405/405/405 406/406/406
f 376/376/376 392/392/392 394/394/394
f 394/394/394 383/383/383 376/376/376
f 406/406/406 407/407/407 404/404/404
f 143/143/143 144/144/144 138/138/138
f 144/144/144 164/164/164 159/159/159
f 164/164/164 144/144/144 148/148/148
f 147/147/147 148/148/148 144/144/144
f 144/144/144 143/143/143 147/147/147
f 143/143/143 156/156/156 158/158/158
f 158/158/158 147/147/147 143/143/143
f 156/156/156 154/154/154 171/171/171
f 158/158/158 156/156/156 171/171/171
f 154/154/154 155/155/155 171/171/171
f 136/136/136 155/155/155 154/154/154
f 171/171/171 170/170/170 158/158/158
f 171/171/171 155/155/155 168/168/168
f 170/170/170 171/171/171 168/168/168
f 157/157/157 155/155/155 136/136/136
f 136/136/136 146/146/146 157/157/157
f 168/168/168 169/169/169 170/170/170
f 370/370/370 356/356/356 117/117/117
f 355/355/355 356/356/356 357/357/357
f 365/365/365 356/356/356 358/358/358
f 118/118/118 356/356/356 365/365/365
f 356/356/356 118/118/118 117/117/117
f 358/358/358 356/356/356 355/355/355
f 365/365/365 276/276/276 274/274/274
f 274/274/274 364/364/364 365/365/365
f 276/276/276 365/365/365 358/358/358
f 365/365/365 115/115/115 118/118/118
f 115/115/115 365/365/365 364/364/364
f 276/276/276 358/358/358 280/280/280
f 274/274/274 276/276/276 114/114/114
f 364/364/364 274/274/274 273/273/273
f 12/12/12 13/13/13 8/8/8
f 34/34/34 33/33/33 89/89/89
f 33/33/33 34/34/34 35/35/35
f 89/89/89 90/90/90 13/13/13
f 13/13/13 90/90/90 112/112/112
f 112/112/112 91/91/91 13/13/13
f 9/9/9 8/8/8 13/13/13
f 13/13/13 91/91/91 9/9/9
f 271/271/271 91/91/91 112/112/112
f 271/271/271 363/363/363 91/91/91
f 290/290/290 91/91/91 363/363/363
f 9/9/9 91/91/91 290/290/290
f 363/363/363 346/346/346 290/290/290
f 290/290/290 346/346/346 347/347/347
f 347/347/347 309/309/309 310/310/310
f 35/35/35 310/310/310 309/309/309
f 313/313/313 306/306/306 371/371/371
f 307/307/307 332/332/332 313/313/313
f 313/313/313 308/308/308 307/307/307
f 371/371/371 334/334/334 308/308/308
f 73/73/73 29/29/29 308/308/308
f 308/308/308 334/334/334 73/73/73
f 307/307/307 308/308/308 29/29/29
f 29/29/29 32/32/32 307/307/307
f 30/30/30 29/29/29 73/73/73
f 31/31/31 32/32/32 29/29/29
f 29/29/29 30/30/30 31/31/31
f 74/74/74 73/73/73 334/334/334
f 73/73/73 72/72/72 30/30/30
f 72/72/72 73/73/73 74/74/74
f 40/40/40 30/30/30 132/132/132
f 31/31/31 30/30/30 40/40/40
f 132/132/132 30/30/30 72/72/72
f 40/40/40 68/68/68 31/31/31
f 67/67/67 68/68/68 40/40/40
f 74/74/74 75/75/75 72/72/72
f 177/177/177 178/178/178 79/79/79
f 79/79/79 38/38/38 177/177/177
f 10/10/10 38/38/38 37/37/37
f 337/337/337 38/38/38 311/311/311
f 177/177/177 38/38/38 337/337/337
f 311/311/311 38/38/38 10/10/10
f 413/413/413 197/197/197 177/177/177
f 337/337/337 413/413/413 177/177/177
f 178/178/178 177/177/177 197/197/197
f 197/197/197 279/279/279 178/178/178
f 197/197/197 413/413/413 279/279/279
f 279/279/279 413/413/413 337/337/337
f 317/317/317 311/311/311 288/288/288
f 10/10/10 288/288/288 311/311/311
f 288/288/288 10/10/10 9/9/9
f 288/288/288 314/314/314 317/317/317
f 292/292/292 314/314/314 288/288/288
f 288/288/288 289/289/289 292/292/292
f 9/9/9 289/289/289 288/288/288
f 315/315/315 317/317/317 314/314/314
f 360/360/360 212/212/212 167/167/167
f 362/362/362 360/360/360 167/167/167
f 360/360/360 341/341/341 361/361/361
f 361/361/361 212/212/212 360/360/360
f 342/342/342 341/341/341 360/360/360
f 342/342/342 303/303/303 312/312/312
f 312/312/312 341/341/341 342/342/342
f 361/361/361 341/341/341 312/312/312
f 312/312/312 331/331/331 361/361/361
f 331/331/331 312/312/312 313/313/313
f 306/306/306 313/313/313 312/312/312
f 312/312/312 303/303/303 306/306/306
f 313/313/313 332/332/332 331/331/331
f 371/371/371 308/308/308 313/313/313
f 459/459/459 460/460/460 461/461/461
f 240/240/240 241/241/241 242/242/242
f 352/352/352 314/314/314 292/292/292
f 314/314/314 352/352/352 315/315/315
f 292/292/292 372/372/372 352/352/352
f 372/372/372 292/292/292 291/291/291
f 291/291/291 292/292/292 289/289/289
f 290/290/290 289/289/289 9/9/9
f 289/289/289 290/290/290 291/291/291
f 291/291/291 310/310/310 372/372/372
f 310/310/310 291/291/291 347/347/347
f 347/347/347 291/291/291 290/290/290
f 191/191/191 372/372/372 310/310/310
f 352/352/352 372/372/372 191/191/191
f 352/352/352 423/423/423 45/45/45
f 45/45/45 315/315/315 352/352/352
f 191/191/191 423/423/423 352/352/352
f 196/196/196 424/424/424 423/423/423
f 423/423/423 191/191/191 196/196/196
f 189/189/189 45/45/45 423/423/423
f 28/28/28 27/27/27 92/92/92
f 27/27/27 28/28/28 25/25/25
f 25/25/25 26/26/26 27/27/27
f 84/84/84 25/25/25 28/28/28
f 28/28/28 71/71/71 84/84/84
f 39/39/39 25/25/25 84/84/84
f 26/26/26 25/25/25 39/39/39
f 132/132/132 26/26/26 40/40/40
f 39/39/39 40/40/40 26/26/26
f 108/108/108 67/67/67 39/39/39
f 39/39/39 85/85/85 108/108/108
f 84/84/84 85/85/85 39/39/39
f 40/40/40 39/39/39 67/67/67
f 46/46/46 41/41/41 7/7/7
f 7/7/7 37/37/37 46/46/46
f 11/11/11 8/8/8 7/7/7
f 7/7/7 41/41/41 11/11/11
f 37/37/37 7/7/7 10/10/10
f 9/9/9 10/10/10 7/7/7
f 7/7/7 8/8/8 9/9/9
f 46/46/46 99/99/99 43/43/43
f 43/43/43 42/42/42 46/46/46
f 99/99/99 46/46/46 37/37/37
f 41/41/41 46/46/46 42/42/42
f 11/11/11 41/41/41 98/98/98
f 42/42/42 98/98/98 41/41/41
f 423/423/423 424/424/424 189/189/189
f 45/45/45 188/188/188 98/98/98
f 188/188/188 45/45/45 189/189/189
f 424/424/424 198/198/198 189/189/189
f 190/190/190 189/189/189 198/198/198
f 189/189/189 190/190/190 188/188/188
f 198/198/198 424/424/424 196/196/196
f 198/198/198 196/196/196 190/190/190
f 196/196/196 191/191/191 188/188/188
f 188/188/188 190/190/190 196/196/196
f 98/98/98 188/188/188 191/191/191
f 191/191/191 133/133/133 98/98/98
f 98/98/98 133/133/133 11/11/11
f 310/310/310 35/35/35 191/191/191
f 34/34/34 133/133/133 191/191/191
f 191/191/191 35/35/35 34/34/34
f 133/133/133 34/34/34 12/12/12
f 12/12/12 11/11/11 133/133/133
f 8/8/8 11/11/11 12/12/12
f 89/89/89 12/12/12 34/34/34
f 13/13/13 12/12/12 89/89/89
f 317/317/317 315/315/315 316/316/316
f 316/316/316 353/353/353 317/317/317
f 353/353/353 316/316/316 354/354/354
f 52/52/52 321/321/321 354/354/354
f 340/340/340 354/354/354 321/321/321
f 354/354/354 340/340/340 353/353/353
f 321/321/321 52/52/52 322/322/322
f 50/50/50 51/51/51 52/52/52
f 321/321/321 296/296/296 340/340/340
f 293/293/293 296/296/296 321/321/321
f 321/321/321 322/322/322 293/293/293
f 340/340/340 339/339/339 338/338/338
f 338/338/338 353/353/353 340/340/340
f 339/339/339 340/340/340 296/296/296
f 309/309/309 36/36/36 35/35/35
f 35/35/35 36/36/36 33/33/33
f 414/414/414 422/422/422 379/379/379
f 415/415/415 379/379/379 378/378/378
f 378/378/378 421/421/421 415/415/415
f 416/416/416 415/415/415 421/421/421
f 414/414/414 415/415/415 416/416/416
f 416/416/416 417/417/417 414/414/414
f 421/421/421 419/419/419 416/416/416
f 417/417/417 416/416/416 419/419/419
f 419/419/419 420/420/420 417/417/417
f 161/161/161 140/140/140 139/139/139
f 139/139/139 193/193/193 161/161/161
f 141/141/141 142/142/142 139/139/139
f 139/139/139 140/140/140 141/141/141
f 162/162/162 161/161/161 192/192/192
f 192/192/192 161/161/161 193/193/193
f 140/140/140 161/161/161 162/162/162
f 140/140/140 163/163/163 187/187/187
f 187/187/187 141/141/141 140/140/140
f 162/162/162 163/163/163 140/140/140
f 141/141/141 187/187/187 179/179/179
f 179/179/179 182/182/182 141/141/141
f 142/142/142 141/141/141 182/182/182
f 400/400/400 427/427/427 377/377/377
f 377/377/377 380/380/380 400/400/400
f 379/379/379 380/380/380 377/377/377
f 377/377/377 378/378/378 379/379/379
f 425/425/425 400/400/400 399/399/399
f 427/427/427 400/400/400 425/425/425
f 399/399/399 400/400/400 380/380/380
f 425/425/425 426/426/426 427/427/427
f 399/399/399 487/487/487 425/425/425
f 380/380/380 398/398/398 399/399/399
f 380/380/380 379/379/379 422/422/422
f 422/422/422 398/398/398 380/380/380
f 379/379/379 415/415/415 414/414/414
f 182/182/182 186/186/186 142/142/142
f 186/186/186 182/182/182 181/181/181
f 181/181/181 182/182/182 179/179/179
f 179/179/179 180/180/180 181/181/181
f 181/181/181 184/184/184 186/186/186
f 184/184/184 181/181/181 180/180/180
f 180/180/180 185/185/185 184/184/184
f 192/192/192 270/270/270 162/162/162
f 193/193/193 194/194/194 192/192/192
f 1/1/1 57/57/57 69/69/69
f 6/6/6 1/1/1 69/69/69
f 1/1/1 48/48/48 57/57/57
f 3/3/3 48/48/48 1/1/1
f 6/6/6 2/2/2 1/1/1
f 1/1/1 2/2/2 3/3/3
f 69/69/69 57/57/57 58/58/58
f 70/70/70 69/69/69 58/58/58
f 92/92/92 69/69/69 28/28/28
f 4/4/4 6/6/6 69/69/69
f 69/69/69 92/92/92 4/4/4
f 71/71/71 28/28/28 69/69/69
f 69/69/69 70/70/70 71/71/71
f 71/71/71 106/106/106 84/84/84
f 107/107/107 85/85/85 84/84/84
f 84/84/84 106/106/106 107/107/107
f 71/71/71 342/342/342 106/106/106
f 110/110/110 106/106/106 360/360/360
f 360/360/360 106/106/106 342/342/342
f 107/107/107 106/106/106 110/110/110
f 107/107/107 212/212/212 108/108/108
f 108/108/108 85/85/85 107/107/107
f 107/107/107 167/167/167 212/212/212
f 109/109/109 167/167/167 107/107/107
f 110/110/110 109/109/109 107/107/107
f 111/111/111 167/167/167 109/109/109
f 109/109/109 110/110/110 111/111/111
f 360/360/360 362/362/362 110/110/110
f 362/362/362 111/111/111 110/110/110
f 111/111/111 362/362/362 167/167/167
f 285/285/285 348/348/348 333/333/333
f 344/344/344 286/286/286 320/320/320
f 345/345/345 344/344/344 320/320/320
f 343/343/343 344/344/344 345/345/345
f 330/330/330 348/348/348 343/343/343
f 343/343/343 327/327/327 330/330/330
f 345/345/345 327/327/327 343/343/343
f 348/348/348 330/330/330 305/305/305
f 348/348/348 305/305/305 304/304/304
f 304/304/304 333/333/333 348/348/348
f 333/333/333 304/304/304 71/71/71
f 342/342/342 71/71/71 304/304/304
f 304/304/304 303/303/303 342/342/342
f 303/303/303 304/304/304 305/305/305
f 330/330/330 418/418/418 305/305/305
f 305/305/305 306/306/306 303/303/303
f 418/418/418 330/330/330 329/329/329
f 329/329/329 330/330/330 327/327/327
f 335/335/335 329/329/329 65/65/65
f 66/66/66 65/65/65 329/329/329
f 329/329/329 328/328/328 66/66/66
f 327/327/327 328/328/328 329/329/329
f 65/65/65 74/74/74 335/335/335
f 334/334/334 335/335/335 74/74/74
f 75/75/75 74/74/74 65/65/65
f 65/65/65 63/63/63 75/75/75
f 63/63/63 65/65/65 66/66/66
f 95/95/95 66/66/66 328/328/328
f 64/64/64 66/66/66 95/95/95
f 98/98/98 42/42/42 45/45/45
f 44/44/44 45/45/45 42/42/42
f 42/42/42 43/43/43 44/44/44
f 199/199/199 44/44/44 43/43/43
f 43/43/43 100/100/100 199/199/199
f 100/100/100 43/43/43 99/99/99
f 83/83/83 99/99/99 82/82/82
f 37/37/37 82/82/82 99/99/99
f 99/99/99 83/83/83 100/100/100
f 100/100/100 50/50/50 52/52/52
f 52/52/52 199/199/199 100/100/100
f 50/50/50 100/100/100 83/83/83
f 354/354/354 199/199/199 52/52/52
f 199/199/199 354/354/354 316/316/316
f 316/316/316 44/44/44 199/199/199
f 44/44/44 316/316/316 315/315/315
f 315/315/315 45/45/45 44/44/44
f 318/318/318 283/283/283 319/319/319
f 282/282/282 333/333/333 325/325/325
f 287/287/287 333/333/333 282/282/282
f 287/287/287 282/282/282 284/284/284
f 282/282/282 283/283/283 284/284/284
f 283/283/283 318/318/318 320/320/320
f 320/320/320 286/286/286 283/283/283
f 284/284/284 283/283/283 286/286/286
f 287/287/287 284/284/284 285/285/285
f 285/285/285 284/284/284 286/286/286
f 333/333/333 287/287/287 285/285/285
f 344/344/344 343/343/343 285/285/285
f 285/285/285 286/286/286 344/344/344
f 348/348/348 285/285/285 343/343/343
f 302/302/302 297/297/297 299/299/299
f 297/297/297 298/298/298 299/299/299
f 301/301/301 302/302/302 299/299/299
f 299/299/299 298/298/298 300/300/300
f 300/300/300 301/301/301 299/299/299
f 24/24/24 20/20/20 19/19/19
f 19/19/19 20/20/20 21/21/21
f 23/23/23 20/20/20 24/24/24
f 20/20/20 22/22/22 21/21/21
f 22/22/22 20/20/20 23/23/23
f 94/94/94 93/93/93 54/54/54
f 93/93/93 94/94/94 61/61/61
f 95/95/95 93/93/93 64/64/64
f 61/61/61 64/64/64 93/93/93
f 62/62/62 61/61/61 86/86/86
f 87/87/87 61/61/61 153/153/153
f 86/86/86 61/61/61 87/87/87
f 63/63/63 64/64/64 61/61/61
f 61/61/61 62/62/62 63/63/63
f 183/183/183 63/63/63 62/62/62
f 92/92/92 27/27/27 62/62/62
f 86/86/86 92/92/92 62/62/62
f 62/62/62 27/27/27 183/183/183
f 4/4/4 86/86/86 88/88/88
f 92/92/92 86/86/86 4/4/4
f 87/87/87 88/88/88 86/86/86
f 105/105/105 87/87/87 153/153/153
f 87/87/87 105/105/105 49/49/49
f 465/465/465 466/466/466 467/467/467
f 246/246/246 247/247/247 248/248/248
f 311/311/311 317/317/317 353/353/353
f 353/353/353 338/338/338 311/311/311
f 311/311/311 338/338/338 337/337/337
f 337/337/337 338/338/338 339/339/339
f 18/18/18 80/80/80 339/339/339
f 339/339/339 295/295/295 18/18/18
f 296/296/296 295/295/295 339/339/339
f 339/339/339 80/80/80 337/337/337
f 295/295/295 296/296/296 293/293/293
f 293/293/293 294/294/294 295/295/295
f 295/295/295 294/294/294 18/18/18
f 18/18/18 16/16/16 81/81/81
f 81/81/81 80/80/80 18/18/18
f 16/16/16 18/18/18 17/17/17
f 337/337/337 80/80/80 279/279/279
f 279/279/279 80/80/80 79/79/79
f 79/79/79 80/80/80 81/81/81
f 82/82/82 81/81/81 83/83/83
f 81/81/81 16/16/16 15/15/15
f 15/15/15 83/83/83 81/81/81
f 81/81/81 82/82/82 79/79/79
f 16/16/16 17/17/17 14/14/14
f 14/14/14 15/15/15 16/16/16
f 83/83/83 15/15/15 50/50/50
f 50/50/50 15/15/15 14/14/14
f 14/14/14 51/51/51 50/50/50
f 79/79/79 82/82/82 37/37/37
f 79/79/79 178/178/178 279/279/279
f 37/37/37 38/38/38 79/79/79
f 57/57/57 48/48/48 58/58/58
f 59/59/59 195/195/195 58/58/58
f 58/58/58 48/48/48 59/59/59
f 58/58/58 195/195/195 70/70/70
f 326/326/326 333/333/333 70/70/70
f 70/70/70 195/195/195 326/326/326
f 71/71/71 70/70/70 333/333/333
f 326/326/326 195/195/195 59/59/59
f 333/333/333 326/326/326 325/325/325
f 59/59/59 319/319/319 326/326/326
f 325/325/325 326/326/326 319/319/319
f 318/318/318 319/319/319 59/59/59
f 59/59/59 60/60/60 318/318/318
f 47/47/47 60/60/60 59/59/59
f 59/59/59 48/48/48 47/47/47
f 282/282/282 325/325/325 319/319/319
f 283/283/283 282/282/282 319/319/319
f 456/456/456 457/457/457 458/458/458
f 237/237/237 238/238/238 239/239/239
f 66/66/66 64/64/64 63/63/63
f 328/328/328 350/350/350 95/95/95
f 350/350/350 328/328/328 327/327/327
f 345/345/345 390/390/390 327/327/327
f 327/327/327 349/349/349 350/350/350
f 95/95/95 350/350/350 324/324/324
f 349/349/349 324/324/324 350/350/350
f 349/349/349 323/323/323 324/324/324
f 134/134/134 324/324/324 55/55/55
f 324/324/324 134/134/134 95/95/95
f 55/55/55 324/324/324 323/323/323
f 323/323/323 56/56/56 55/55/55
f 134/134/134 55/55/55 54/54/54
f 55/55/55 56/56/56 53/53/53
f 53/53/53 54/54/54 55/55/55
f 95/95/95 134/134/134 54/54/54
f 54/54/54 93/93/93 95/95/95
f 94/94/94 54/54/54 53/53/53
f 148/148/148 166/166/166 164/164/164
f 164/164/164 166/166/166 281/281/281
f 401/401/401 403/403/403 385/385/385
f 401/401/401 488/488/488 403/403/403
f 453/453/453 454/454/454 455/455/455
f 234/234/234 235/235/235 236/236/236
f 252/252/252 253/253/253 254/254/254
f 471/471/471 472/472/472 473/473/473
f 249/249/249 250/250/250 251/251/251
f 468/468/468 469/469/469 470/470/470
f 359/359/359 387/387/387 388/388/388
f 149/149/149 152/152/152 272/272/272
f 388/388/388 389/389/389 359/359/359
f 390/390/390 345/345/345 359/359/359
f 359/359/359 389/389/389 390/390/390
f 6/6/6 4/4/4 2/2/2
f 49/49/49 88/88/88 87/87/87
f 153/153/153 151/151/151 105/105/105
f 152/152/152 149/149/149 105/105/105
f 105/105/105 151/151/151 152/152/152
f 49/49/49 105/105/105 149/149/149
f 88/88/88 49/49/49 5/5/5
f 149/149/149 96/96/96 49/49/49
f 47/47/47 49/49/49 96/96/96
f 3/3/3 5/5/5 49/49/49
f 49/49/49 47/47/47 3/3/3
f 88/88/88 5/5/5 4/4/4
f 2/2/2 5/5/5 3/3/3
f 4/4/4 5/5/5 2/2/2
f 47/47/47 48/48/48 3/3/3
f 60/60/60 47/47/47 76/76/76
f 96/96/96 76/76/76 47/47/47
f 150/150/150 97/97/97 96/96/96
f 96/96/96 149/149/149 150/150/150
f 76/76/76 96/96/96 97/97/97
f 76/76/76 78/78/78 60/60/60
f 97/97/97 77/77/77 76/76/76
f 222/222/222 223/223/223 224/224/224
f 441/441/441 442/442/442 443/443/443
f 225/225/225 226/226/226 227/227/227
f 444/444/444 445/445/445 446/446/446
f 462/462/462 463/463/463 464/464/464
f 243/243/243 244/244/244 245/245/245
f 114/114/114 113/113/113 274/274/274
f 273/273/273 274/274/274 113/113/113
f 116/116/116 364/364/364 369/369/369
f 273/273/273 369/369/369 364/364/364
f 364/364/364 116/116/116 115/115/115
f 118/118/118 115/115/115 114/114/114
f 115/115/115 116/116/116 113/113/113
f 113/113/113 114/114/114 115/115/115
f 369/369/369 127/127/127 116/116/116
f 128/128/128 369/369/369 273/273/273
f 369/369/369 128/128/128 127/127/127
f 128/128/128 273/273/273 126/126/126
f 113/113/113 126/126/126 273/273/273
f 126/126/126 113/113/113 116/116/116
f 116/116/116 127/127/127 126/126/126
f 126/126/126 127/127/127 128/128/128
f 368/368/368 366/366/366 122/122/122
f 366/366/366 368/368/368 124/124/124
f 119/119/119 122/122/122 366/366/366
f 125/125/125 368/368/368 277/277/277
f 122/122/122 277/277/277 368/368/368
f 368/368/368 125/125/125 124/124/124
f 122/122/122 121/121/121 123/123/123
f 123/123/123 277/277/277 122/122/122
f 121/121/121 122/122/122 119/119/119
f 125/125/125 277/277/277 123/123/123
f 123/123/123 124/124/124 125/125/125
f 124/124/124 123/123/123 121/121/121
f 474/474/474 475/475/475 476/476/476
f 255/255/255 256/256/256 257/257/257
f 447/447/447 448/448/448 449/449/449
f 228/228/228 229/229/229 230/230/230
f 231/231/231 232/232/232 233/233/233
f 450/450/450 451/451/451 452/452/452
f 258/258/258 259/259/259 260/260/260
f 477/477/477 478/478/478 479/479/479
f 434/434/434 435/435/435 436/436/436
f 213/213/213 214/214/214 215/215/215
f 76/76/76 77/77/77 78/78/78
f 60/60/60 78/78/78 336/336/336
f 336/336/336 318/318/318 60/60/60
f 336/336/336 78/78/78 77/77/77
f 336/336/336 77/77/77 97/97/97
f 351/351/351 97/97/97 150/150/150
f 97/97/97 351/351/351 336/336/336
f 387/387/387 150/150/150 272/272/272
f 150/150/150 387/387/387 351/351/351
f 272/272/272 150/150/150 149/149/149
f 320/320/320 351/351/351 387/387/387
f 351/351/351 320/320/320 318/318/318
f 318/318/318 336/336/336 351/351/351
f 387/387/387 359/359/359 320/320/320
f 320/320/320 359/359/359 345/345/345
f 272/272/272 388/388/388 387/387/387
f 264/264/264 265/265/265 266/266/266
f 483/483/483 484/484/484 485/485/485
f 261/261/261 262/262/262 263/263/263
f 480/480/480 481/481/481 482/482/482
f 216/216/216 217/217/217 218/218/218
f 437/437/437 438/438/438 439/439/439
f 219/219/219 220/220/220 221/221/221
f 440/440/440 221/221/221 220/220/220
f 267/267/267 268/268/268 269/269/269
f 486/486/486 269/269/269 268/268/268
