# leptocleidus reconstructed from live game memory
v -3.44045 29.64728 -44.94194
v -3.69167 27.76559 -44.98853
v -4.00241 28.33791 -47.19818
v -5.15185 25.95057 -46.45163
v -5.62191 26.08944 -43.00296
v -4.30586 28.47383 -42.58251
v -4.01881 18.86404 -28.96538
v -4.64193 18.69441 -34.63101
v -6.20987 22.98654 -28.83626
v -6.44665 22.06789 -47.27700
v -4.12670 18.16058 -47.22134
v -2.66848 19.07570 -53.66069
v -4.15785 21.73003 -53.68980
v 0.00000 16.77812 -34.62526
v -0.18135 16.23546 -41.27369
v -4.84284 18.21697 -41.28417
v -7.38093 22.44071 -34.65319
v -4.40897 27.51308 -49.61128
v 0.00000 29.40472 -49.76684
v 0.00000 30.05293 -47.42539
v -6.43564 23.73987 -47.44580
v 0.00000 25.41509 -53.64675
v -4.19001 24.30218 -53.64332
v -3.23855 27.33120 -53.62503
v 0.00000 26.02560 -58.89960
v 0.00000 28.40402 -53.63065
v -4.19001 24.30218 -53.64332
v -6.43564 23.73987 -47.44580
v 0.00000 24.83702 -59.76825
v -11.77402 21.07360 28.60078
v -13.36291 21.98044 14.28109
v -10.53081 27.61219 14.29650
v -9.17091 27.13758 28.60337
v -6.24117 33.16087 14.29666
v -5.83300 32.62808 28.58509
v 0.00000 35.65084 14.29935
v 0.00000 34.67558 28.58210
v -4.97538 22.44777 60.76057
v -6.19057 22.48409 51.77012
v -3.18904 28.28959 51.76385
v -1.86632 27.12873 60.76215
v 0.00000 29.60230 51.76385
v 0.00000 27.60835 60.76281
v -2.19667 18.02045 60.76074
v -3.49846 17.09974 51.78563
v -8.38070 20.36913 41.65734
v -7.16121 24.26745 41.62597
v -4.46533 30.15153 41.51042
v 0.00000 31.94695 41.51109
v -5.16504 15.71202 41.56984
v -9.83957 27.83896 -0.22827
v -12.01834 21.79107 -0.35607
v -11.80271 22.43927 -6.09794
v -8.49102 27.74887 -6.31103
v -5.27944 33.17300 -0.24705
v -7.13071 13.76089 28.58076
v -8.93158 12.49369 14.28191
v -13.79238 17.00361 14.27744
v -12.23869 17.40612 28.58313
v -9.90344 20.13847 -11.84957
v -7.21095 27.52373 -11.79692
v -2.95536 32.70805 -11.80669
v -4.36454 32.91010 -6.32955
v 0.00000 34.85791 -6.28450
v 0.00000 33.99405 -11.79683
v -7.10127 22.14205 -20.17639
v -5.50781 28.12004 -20.16550
v 0.00000 32.36457 -20.10265
v -7.10127 22.14205 -20.17639
v -4.67410 28.32980 -28.80805
v -5.50781 28.12004 -20.16550
v 0.00000 15.67259 -20.16634
v 0.00000 17.05574 -28.99794
v -5.10562 17.18083 -20.16663
v -2.60536 22.45554 82.63866
v 0.00000 24.36753 82.63579
v 0.00000 23.62133 88.02525
v -2.17511 22.45453 88.01953
v 0.00000 22.45072 89.20244
v -8.15303 25.95394 34.72486
v -10.11072 20.79955 34.71603
v -5.08540 31.68908 34.71650
v 0.00000 33.68449 34.71061
v -8.09651 12.38513 -0.14252
v -12.61718 16.82885 -0.32166
v 0.00000 26.23408 69.51771
v -3.79249 22.43278 69.52571
v 0.00000 18.67175 69.51284
v -3.45416 29.24922 -44.95321
v -4.43042 27.96903 -44.93128
v -3.94574 28.20736 -46.86500
v -4.90262 26.09239 -46.20016
v -5.27659 26.18399 -43.34850
v -4.13648 28.24866 -42.90871
v -14.55112 21.95469 -6.21346
v -23.35293 20.92530 -5.60615
v -23.40236 18.70877 -11.42265
v -14.35349 19.31422 -10.80294
v -15.30446 19.56986 -1.52748
v -20.26886 19.21049 1.02620
v -31.14753 20.31858 -4.90559
v -31.38148 18.64127 -10.05733
v -24.90019 19.08440 1.15351
v -38.63848 19.87103 -3.56266
v -43.41589 19.20864 -2.71964
v -42.63894 18.99691 -4.90605
v -38.96466 18.77111 -6.67497
v -38.58607 18.66466 -1.39832
v -15.37716 17.34528 -3.85895
v -14.62293 17.28430 -8.44944
v -22.85304 17.01532 -9.30985
v -22.23004 16.97666 -2.85467
v -15.35593 18.03070 -0.93880
v -20.41740 18.14713 1.89993
v -30.81884 16.72399 -2.14887
v -31.13148 16.90231 -8.23212
v -24.97446 17.96965 2.00063
v -37.91581 17.13018 -2.47242
v -37.91787 17.03755 -5.75299
v -41.54785 17.11103 -4.53101
v -41.81544 17.16909 -2.85183
v -38.58234 18.02232 -0.21546
v -45.13023 18.14200 -2.21594
v -15.35593 18.03070 -0.93880
v -20.41740 18.14713 1.89993
v -23.50769 17.88741 -12.55729
v -14.12857 18.15659 -11.88602
v -24.97446 17.96965 2.00063
v -31.38148 17.77126 -11.04055
v -30.75618 18.99134 0.30026
v -30.75618 17.71516 1.11708
v -38.58234 18.02232 -0.21546
v -45.13023 18.14200 -2.21594
v -43.94534 18.01692 -5.30900
v -9.94930 17.87305 -11.95571
v -9.90344 20.13847 -11.84957
v -10.44360 16.73583 -5.84271
v -39.30328 17.86178 -7.51006
v -9.91285 18.64162 38.33211
v -9.40144 19.78894 37.58867
v -8.38070 20.36913 41.65734
v -30.75618 17.71516 1.11708
v -12.01834 21.79107 -0.35607
v -11.80271 22.43927 -6.09794
v -10.11072 20.79955 34.71603
v -15.82762 20.77131 35.20304
v -11.77402 21.07360 28.60078
v -9.40144 19.78894 37.58867
v -13.19919 19.85881 38.29027
v -22.19672 20.69624 37.79299
v -23.33053 19.79608 32.97195
v -16.77445 19.79697 29.79708
v -16.80950 19.89956 41.49535
v -27.24793 20.49207 40.16476
v -31.19268 19.85750 42.85512
v -31.83966 19.81937 41.54555
v -29.03159 19.81004 36.97363
v -26.73692 19.82246 43.23080
v -10.46246 17.47613 34.31656
v -16.30782 18.27952 33.29875
v -15.88321 18.40644 37.86324
v -13.07419 18.65988 39.19812
v -9.91285 18.64162 38.33211
v -21.88128 18.24406 39.78572
v -22.88480 18.22512 34.93209
v -16.86499 18.66573 42.26999
v -26.94154 18.48530 41.98359
v -28.52896 18.42005 37.73917
v -31.89668 18.48290 40.97894
v -31.14188 18.52137 42.03587
v -26.60436 18.66586 43.91364
v -32.15380 18.66819 43.56938
v -9.91285 18.64162 38.33211
v -13.07419 18.65988 39.19812
v -16.94285 18.65561 29.40663
v -12.23869 17.40612 28.58313
v -16.86499 18.66573 42.26999
v -23.63943 18.65411 32.02291
v -21.31378 19.84916 42.81689
v -21.24816 18.65534 43.56691
v -26.60436 18.66586 43.91364
v -32.15380 18.66819 43.56938
v -32.91476 18.66516 41.46085
v -29.59547 18.66163 36.36362
v -21.24816 18.65534 43.56691
v 0.00000 14.07370 41.57231
v 0.00000 15.88789 51.78467
v 0.00000 17.33687 60.76094
v -4.33047 29.95880 -39.19864
v -4.46997 29.58508 -34.65379
v -6.83098 25.60252 -34.63836
v -6.80462 26.63605 -40.30025
v -7.41645 23.23022 -41.29107
v 0.00000 16.92596 -47.21898
v 0.00000 18.40212 -53.65806
v -6.44665 22.06789 -47.27700
v 0.00000 19.98099 -47.25584
v 0.00000 20.56668 -41.28721
v -7.41645 23.23022 -41.29107
v -7.16121 24.26745 41.62597
v -43.94534 18.01692 -5.30900
v -6.50327 14.77178 -11.98634
v -7.65623 13.20681 -5.91890
v 0.00000 11.64443 -5.97230
v 0.00000 13.13296 -11.98409
v -10.44360 16.73583 -5.84271
v -9.94930 17.87305 -11.95571
v -5.10562 17.18083 -20.16663
v 0.00000 15.67259 -20.16634
v -32.91476 18.66516 41.46085
v 0.00000 10.18485 14.28211
v 0.00000 10.55964 -0.08791
v 0.00000 11.72365 28.57593
v -4.46533 30.15153 41.51042
v 0.00000 31.94695 41.51109
v -10.46246 17.47613 34.31656
v -5.16504 15.71202 41.56984
v -6.42671 14.68408 34.33893
v 0.00000 14.07370 41.57231
v 0.00000 12.75594 34.39970
v 0.00000 31.62592 -38.97220
v 0.00000 31.85792 -34.64704
v -7.54451 24.22433 -41.27624
v -7.54451 24.22433 -41.27624
v 0.00000 25.99018 -41.64192
v -7.38093 22.44071 -34.65319
v 0.00000 22.63119 -34.53328
v 0.00000 30.83937 -45.00288
v 0.00000 24.83702 -59.76825
v -3.03512 24.63621 -54.41171
v -2.22698 22.90109 -55.32499
v -1.97316 24.75484 -56.04725
v -1.97316 24.75484 -56.04725
v -1.26087 22.96659 -57.00514
v -0.80189 24.84908 -57.62405
v -0.80342 24.84908 -57.62405
v -0.30983 23.17353 -58.27648
v -0.12207 24.91511 -58.45556
v -3.68293 24.80754 -52.60685
v -3.18542 22.99060 -53.73472
v -3.10114 24.81817 -54.40207
v -4.26574 24.39939 -50.89338
v -3.72827 22.48637 -51.90963
v -3.46912 24.64398 -52.83626
v -4.63700 24.19367 -49.61570
v -4.49561 22.82527 -50.47924
v -4.26574 24.39939 -50.89338
v -5.11850 24.20719 -48.35292
v -4.81829 22.78160 -49.21292
v -4.68811 24.46692 -49.82326
v -5.56974 24.14469 -47.15860
v -5.26132 22.69786 -47.98318
v -5.12784 24.31048 -48.58903
v -5.86320 24.12386 -45.94650
v -5.48548 22.71642 -46.71704
v -5.40998 24.24541 -47.36280
v -6.28492 24.11127 -44.57195
v -5.81019 22.62427 -45.35450
v -5.86320 24.12386 -45.94650
v -4.65352 21.58554 -49.60540
v -5.07524 22.72980 -48.82740
v -5.23233 21.62707 -48.42583
v -5.38428 21.66169 -48.18667
v -5.50926 22.80290 -47.48327
v -5.67422 21.68509 -47.06282
v -5.80068 21.82917 -46.82870
v -5.65398 22.72572 -46.14289
v -5.97645 21.82702 -45.66956
v -4.38732 21.55115 -50.80458
v -4.73972 22.90446 -50.10109
v -4.65352 21.58554 -49.60540
v -4.05970 21.51273 -52.21869
v -4.55502 22.87248 -51.47515
v -4.38732 21.55115 -50.80458
v -3.54954 21.43415 -53.62902
v -4.08253 22.78610 -52.85942
v -4.05970 21.51273 -52.21869
v -3.08424 21.38899 -55.12172
v -3.29054 22.78356 -54.37545
v -3.68828 21.57044 -53.76378
v -2.00347 21.32730 -56.36218
v -2.55742 22.68426 -55.72778
v -3.08424 21.38899 -55.12172
v -0.81849 21.20580 -57.65142
v -1.58150 22.59719 -56.94676
v -2.00347 21.32730 -56.36218
v -6.41105 24.33211 -43.14210
v -6.35365 22.73384 -43.84343
v -6.28492 24.11127 -44.57195
v -0.81849 21.20580 -57.65142
v 0.00000 21.26942 -58.81738
v -0.45454 22.58420 -58.42614
v -6.41105 24.39782 -41.38734
v -6.35366 22.84109 -42.16685
v -6.22949 24.30071 -42.85246
v -6.41105 24.72414 -39.80700
v -6.35366 23.12586 -40.50834
v -6.22949 24.54500 -41.26529
v -6.05033 21.86099 -45.33763
v -6.02824 23.03364 -44.59636
v -6.22090 21.99552 -43.92620
v -6.20852 22.10521 -43.63347
v -6.23074 23.27788 -42.89222
v -6.42340 22.23975 -42.22204
v -6.20852 22.38495 -41.96112
v -6.23074 23.55762 -41.21986
v -6.62497 22.51950 -40.54970
v 0.00000 21.48252 -60.08033
v 0.00000 20.27732 -53.72323
v -4.15785 21.73003 -53.68980
v 0.00000 20.19626 -59.63163
v 0.00000 21.48252 -60.08033
v 0.00000 25.29922 76.05576
v -3.19893 22.44416 76.06953
v 0.00000 20.37767 82.63845
v 0.00000 19.57247 76.04984
v 0.00000 35.58220 -0.30564
v 0.00000 32.36457 -20.10265
v 0.00000 31.54928 -28.75661
v 0.00000 22.63119 -34.53328
v -7.38093 22.44071 -34.65319
v 0.00000 21.00500 88.01073
v -12.61718 16.82885 -0.32166
v -12.61718 16.82885 -0.32166
v 3.44045 29.64728 -44.94194
v 4.00242 28.33791 -47.19818
v 3.69167 27.76559 -44.98853
v 5.15185 25.95057 -46.45163
v 5.62191 26.08944 -43.00296
v 4.30586 28.47383 -42.58251
v 4.01881 18.86404 -28.96538
v 6.20987 22.98654 -28.83626
v 4.64193 18.69441 -34.63101
v 6.44665 22.06789 -47.27700
v 4.15785 21.73003 -53.68980
v 2.66848 19.07570 -53.66069
v 4.12670 18.16058 -47.22134
v 4.84284 18.21697 -41.28417
v 0.18135 16.23546 -41.27369
v 7.38093 22.44071 -34.65319
v 4.40897 27.51308 -49.61128
v 6.43564 23.73987 -47.44580
v 4.19001 24.30218 -53.64332
v 3.23856 27.33120 -53.62503
v 4.19001 24.30218 -53.64332
v 6.43564 23.73987 -47.44580
v 11.77402 21.07360 28.60078
v 9.17092 27.13758 28.60337
v 10.53081 27.61219 14.29650
v 13.36291 21.98044 14.28109
v 5.83300 32.62808 28.58509
v 6.24117 33.16087 14.29666
v 4.97538 22.44777 60.76057
v 1.86632 27.12873 60.76215
v 3.18905 28.28959 51.76385
v 6.19057 22.48409 51.77012
v 2.19667 18.02045 60.76074
v 3.49846 17.09974 51.78563
v 8.38070 20.36913 41.65734
v 7.16122 24.26745 41.62597
v 4.46533 30.15153 41.51042
v 5.16504 15.71202 41.56984
v 9.83957 27.83896 -0.22827
v 8.49102 27.74887 -6.31103
v 11.80271 22.43927 -6.09794
v 12.01834 21.79107 -0.35607
v 5.27945 33.17300 -0.24705
v 7.13071 13.76089 28.58076
v 12.23869 17.40612 28.58313
v 13.79238 17.00361 14.27744
v 8.93158 12.49369 14.28191
v 7.21095 27.52373 -11.79692
v 9.90344 20.13847 -11.84957
v 4.36454 32.91010 -6.32955
v 2.95537 32.70805 -11.80669
v 5.50781 28.12004 -20.16550
v 7.10127 22.14205 -20.17639
v 7.10127 22.14205 -20.17639
v 5.50781 28.12004 -20.16550
v 4.67410 28.32980 -28.80805
v 5.10562 17.18083 -20.16663
v 2.60536 22.45554 82.63866
v 2.17511 22.45453 88.01953
v 10.11072 20.79955 34.71603
v 8.15303 25.95394 34.72486
v 5.08540 31.68908 34.71650
v 8.09652 12.38513 -0.14252
v 12.61718 16.82885 -0.32166
v 3.79249 22.43278 69.52571
v 3.45416 29.24922 -44.95321
v 3.94574 28.20736 -46.86500
v 4.43042 27.96903 -44.93128
v 4.90262 26.09239 -46.20016
v 5.27659 26.18399 -43.34850
v 4.13648 28.24866 -42.90871
v 14.55112 21.95469 -6.21346
v 14.35349 19.31422 -10.80294
v 23.40236 18.70877 -11.42265
v 23.35293 20.92530 -5.60615
v 15.30446 19.56986 -1.52748
v 20.26886 19.21049 1.02620
v 31.38147 18.64127 -10.05733
v 31.14753 20.31858 -4.90560
v 24.90019 19.08440 1.15351
v 38.63848 19.87103 -3.56267
v 38.96466 18.77111 -6.67497
v 42.63894 18.99691 -4.90605
v 43.41589 19.20864 -2.71964
v 38.58607 18.66467 -1.39832
v 15.37716 17.34528 -3.85895
v 22.23004 16.97666 -2.85467
v 22.85304 17.01532 -9.30985
v 14.62294 17.28430 -8.44944
v 15.35593 18.03070 -0.93880
v 20.41740 18.14713 1.89993
v 30.81884 16.72399 -2.14887
v 31.13148 16.90231 -8.23212
v 24.97446 17.96965 2.00063
v 37.91581 17.13018 -2.47242
v 41.81544 17.16910 -2.85183
v 41.54785 17.11103 -4.53101
v 37.91787 17.03756 -5.75299
v 38.58233 18.02232 -0.21546
v 45.13022 18.14201 -2.21594
v 15.35593 18.03070 -0.93880
v 20.41740 18.14713 1.89993
v 23.50769 17.88741 -12.55729
v 14.12857 18.15659 -11.88602
v 24.97446 17.96965 2.00063
v 31.38147 17.77126 -11.04055
v 30.75618 18.99134 0.30026
v 38.58233 18.02232 -0.21546
v 30.75618 17.71516 1.11708
v 43.94533 18.01692 -5.30900
v 45.13022 18.14201 -2.21594
v 9.94930 17.87305 -11.95571
v 9.90344 20.13847 -11.84957
v 10.44360 16.73583 -5.84271
v 39.30328 17.86178 -7.51006
v 9.91285 18.64162 38.33211
v 8.38070 20.36913 41.65734
v 9.40144 19.78894 37.58867
v 30.75618 17.71516 1.11708
v 12.01834 21.79107 -0.35607
v 11.80271 22.43927 -6.09794
v 10.11072 20.79955 34.71603
v 11.77402 21.07360 28.60078
v 15.82762 20.77131 35.20304
v 9.40144 19.78894 37.58867
v 13.19919 19.85881 38.29027
v 16.77445 19.79697 29.79708
v 23.33053 19.79608 32.97195
v 22.19672 20.69624 37.79299
v 16.80950 19.89956 41.49535
v 27.24793 20.49207 40.16476
v 29.03159 19.81004 36.97363
v 31.83966 19.81937 41.54555
v 31.19268 19.85750 42.85512
v 26.73692 19.82246 43.23080
v 10.46246 17.47613 34.31656
v 15.88321 18.40644 37.86324
v 16.30782 18.27952 33.29875
v 13.07419 18.65988 39.19812
v 9.91285 18.64162 38.33211
v 21.88128 18.24406 39.78572
v 22.88480 18.22512 34.93209
v 16.86498 18.66573 42.26999
v 26.94153 18.48530 41.98359
v 31.14188 18.52137 42.03587
v 31.89668 18.48290 40.97894
v 28.52896 18.42005 37.73917
v 26.60436 18.66586 43.91364
v 32.15380 18.66819 43.56938
v 9.91285 18.64162 38.33211
v 13.07419 18.65988 39.19812
v 16.94285 18.65561 29.40663
v 12.23869 17.40612 28.58313
v 16.86498 18.66573 42.26999
v 23.63942 18.65411 32.02291
v 21.31377 19.84916 42.81689
v 26.60436 18.66586 43.91364
v 21.24816 18.65534 43.56691
v 32.91476 18.66516 41.46085
v 32.15380 18.66819 43.56938
v 29.59546 18.66163 36.36362
v 21.24816 18.65534 43.56691
v 4.33047 29.95880 -39.19864
v 6.80463 26.63605 -40.30025
v 6.83098 25.60252 -34.63836
v 4.46997 29.58508 -34.65379
v 7.41645 23.23022 -41.29107
v 6.44665 22.06789 -47.27700
v 7.41645 23.23022 -41.29107
v 7.16122 24.26745 41.62597
v 43.94533 18.01692 -5.30900
v 6.50328 14.77178 -11.98634
v 7.65623 13.20681 -5.91890
v 10.44360 16.73583 -5.84271
v 9.94930 17.87305 -11.95571
v 5.10562 17.18083 -20.16663
v 32.91476 18.66516 41.46085
v 4.46533 30.15153 41.51042
v 10.46246 17.47613 34.31656
v 6.42671 14.68408 34.33893
v 5.16504 15.71202 41.56984
v 7.54451 24.22433 -41.27624
v 7.54451 24.22433 -41.27624
v 7.38093 22.44071 -34.65319
v 3.03512 24.63621 -54.41171
v 1.97316 24.75484 -56.04725
v 2.22698 22.90109 -55.32499
v 1.97316 24.75484 -56.04725
v 0.80189 24.84908 -57.62405
v 1.26087 22.96659 -57.00514
v 0.80343 24.84908 -57.62405
v 0.12207 24.91511 -58.45556
v 0.30984 23.17353 -58.27648
v 3.68293 24.80754 -52.60685
v 3.10114 24.81817 -54.40207
v 3.18542 22.99060 -53.73472
v 4.26574 24.39939 -50.89338
v 3.46913 24.64398 -52.83626
v 3.72828 22.48637 -51.90963
v 4.63700 24.19367 -49.61570
v 4.26574 24.39939 -50.89338
v 4.49561 22.82527 -50.47924
v 5.11850 24.20719 -48.35292
v 4.68812 24.46692 -49.82326
v 4.81829 22.78160 -49.21292
v 5.56975 24.14469 -47.15860
v 5.12784 24.31048 -48.58903
v 5.26132 22.69786 -47.98318
v 5.86320 24.12386 -45.94650
v 5.40998 24.24541 -47.36280
v 5.48548 22.71642 -46.71704
v 6.28492 24.11127 -44.57195
v 5.86320 24.12386 -45.94650
v 5.81019 22.62427 -45.35450
v 4.65352 21.58554 -49.60540
v 5.23234 21.62707 -48.42583
v 5.07524 22.72980 -48.82740
v 5.38428 21.66169 -48.18667
v 5.67422 21.68509 -47.06282
v 5.50926 22.80290 -47.48327
v 5.80068 21.82917 -46.82870
v 5.97646 21.82702 -45.66956
v 5.65398 22.72572 -46.14289
v 4.38732 21.55115 -50.80458
v 4.65352 21.58554 -49.60540
v 4.73972 22.90446 -50.10109
v 4.05970 21.51273 -52.21869
v 4.38732 21.55115 -50.80458
v 4.55502 22.87248 -51.47515
v 3.54954 21.43415 -53.62902
v 4.05970 21.51273 -52.21869
v 4.08253 22.78610 -52.85942
v 3.08424 21.38899 -55.12172
v 3.68828 21.57044 -53.76378
v 3.29055 22.78356 -54.37545
v 2.00347 21.32730 -56.36218
v 3.08424 21.38899 -55.12172
v 2.55742 22.68426 -55.72778
v 0.81849 21.20580 -57.65142
v 2.00347 21.32730 -56.36218
v 1.58151 22.59719 -56.94676
v 6.41105 24.33211 -43.14210
v 6.28492 24.11127 -44.57195
v 6.35366 22.73384 -43.84343
v 0.81849 21.20580 -57.65142
v 0.45454 22.58420 -58.42614
v 6.41106 24.39782 -41.38734
v 6.22949 24.30071 -42.85246
v 6.35366 22.84109 -42.16685
v 6.41106 24.72414 -39.80700
v 6.22949 24.54500 -41.26529
v 6.35366 23.12586 -40.50834
v 6.05033 21.86099 -45.33763
v 6.22091 21.99552 -43.92620
v 6.02824 23.03364 -44.59636
v 6.20852 22.10521 -43.63347
v 6.42340 22.23975 -42.22204
v 6.23074 23.27788 -42.89222
v 6.20852 22.38495 -41.96112
v 6.62497 22.51950 -40.54970
v 6.23074 23.55762 -41.21986
v 4.15785 21.73003 -53.68980
v 3.19893 22.44416 76.06953
v 7.38093 22.44071 -34.65319
v 12.61718 16.82885 -0.32166
v 12.61718 16.82885 -0.32166
vt 0.586840 0.937673
vt 0.580444 0.919874
vt 0.555379 0.924627
vt 0.564811 0.891682
vt 0.592329 0.884111
vt 0.606125 0.912143
vt 0.816181 0.773357
vt 0.730341 0.770869
vt 0.814164 0.837953
vt 0.538214 0.786742
vt 0.554988 0.736569
vt 0.458777 0.710372
vt 0.446605 0.742277
vt 0.739616 0.710081
vt 0.647644 0.691300
vt 0.634620 0.754365
vt 0.719099 0.825693
vt 0.522301 0.914566
vt 0.523380 0.978622
vt 0.553084 0.975810
vt 0.152445 0.435876
vt 0.222408 0.522017
vt 0.232178 0.461194
vt 0.446627 0.935647
vt 0.367857 0.979262
vt 0.451718 0.982105
vt 0.434105 0.904110
vt 0.534686 0.861435
vt 0.348212 0.970463
vt 0.809767 0.460615
vt 0.656635 0.464455
vt 0.655447 0.539791
vt 0.808818 0.529739
vt 0.654435 0.604038
vt 0.809722 0.586205
vt 0.654031 0.672967
vt 0.818228 0.650151
vt 0.741506 0.123170
vt 0.856523 0.125818
vt 0.851177 0.064146
vt 0.737895 0.062218
vt 0.842509 0.024208
vt 0.733578 0.038748
vt 0.734450 0.187288
vt 0.845942 0.206474
vt 0.982393 0.173451
vt 0.982548 0.113456
vt 0.977340 0.057685
vt 0.969898 0.010150
vt 0.971623 0.238292
vt 0.501190 0.533573
vt 0.503388 0.456743
vt 0.445494 0.457326
vt 0.435632 0.529322
vt 0.494503 0.595983
vt 0.821963 0.356586
vt 0.663521 0.335440
vt 0.658004 0.404214
vt 0.810106 0.427478
vt 0.381797 0.449216
vt 0.374820 0.525350
vt 0.365513 0.587212
vt 0.427206 0.589900
vt 0.417241 0.640637
vt 0.357628 0.621533
vt 0.307646 0.450601
vt 0.307646 0.524538
vt 0.307646 0.599614
vt 0.991213 0.833741
vt 0.814911 0.906224
vt 0.991213 0.907278
vt 0.991213 0.702815
vt 0.816215 0.718981
vt 0.991213 0.768746
vt 0.454406 0.114454
vt 0.452091 0.070380
vt 0.381062 0.086025
vt 0.392315 0.114562
vt 0.365455 0.114170
vt 0.875049 0.520682
vt 0.873987 0.462666
vt 0.878091 0.577282
vt 0.887319 0.632198
vt 0.507094 0.333147
vt 0.506037 0.400476
vt 0.616655 0.055096
vt 0.619323 0.116093
vt 0.610588 0.178508
vt 0.398850 0.234921
vt 0.398412 0.205240
vt 0.362763 0.207568
vt 0.383671 0.179920
vt 0.419198 0.180743
vt 0.434728 0.208739
vt 0.109602 0.084620
vt 0.106830 0.178456
vt 0.169235 0.176872
vt 0.169784 0.083055
vt 0.052443 0.097542
vt 0.034094 0.155355
vt 0.108972 0.262229
vt 0.162798 0.259264
vt 0.037694 0.205089
vt 0.111541 0.341375
vt 0.109808 0.391255
vt 0.131908 0.382415
vt 0.148543 0.343258
vt 0.085159 0.344809
vt 0.282372 0.113571
vt 0.233842 0.096086
vt 0.214980 0.179822
vt 0.281442 0.189729
vt 0.314686 0.118892
vt 0.336673 0.180105
vt 0.262397 0.281480
vt 0.202085 0.265747
vt 0.326018 0.231598
vt 0.230713 0.351473
vt 0.195656 0.340765
vt 0.195907 0.381030
vt 0.211955 0.389089
vt 0.252957 0.367938
vt 0.207671 0.427262
vt 0.034663 0.100679
vt 0.019378 0.158891
vt 0.181452 0.178714
vt 0.192783 0.083517
vt 0.022646 0.208064
vt 0.174272 0.258717
vt 0.054106 0.266293
vt 0.037947 0.269574
vt 0.071045 0.348166
vt 0.105280 0.413763
vt 0.139742 0.399356
vt 0.202447 0.039575
vt 0.167497 0.023618
vt 0.268702 0.056141
vt 0.166530 0.349206
vt 0.909958 0.438583
vt 0.904236 0.453326
vt 0.974283 0.457626
vt 0.297807 0.292170
vt 0.050210 0.042170
vt 0.108696 0.045435
vt 0.027889 0.922985
vt 0.113621 0.893980
vt 0.008736 0.834409
vt 0.038859 0.967058
vt 0.101144 0.950724
vt 0.217598 0.884619
vt 0.201915 0.821376
vt 0.096047 0.821660
vt 0.172466 0.961486
vt 0.299153 0.877570
vt 0.367446 0.882202
vt 0.367275 0.862706
vt 0.302071 0.825767
vt 0.314618 0.917900
vt 0.023240 0.719081
vt 0.106239 0.751883
vt 0.128229 0.693057
vt 0.103553 0.654441
vt 0.033989 0.645593
vt 0.228769 0.700282
vt 0.210691 0.764199
vt 0.176891 0.637995
vt 0.310711 0.708935
vt 0.303303 0.771674
vt 0.368214 0.752273
vt 0.365878 0.734283
vt 0.320199 0.682059
vt 0.394983 0.725789
vt 0.053370 0.982644
vt 0.106329 0.971628
vt 0.095550 0.803743
vt 0.019480 0.789067
vt 0.179701 0.980832
vt 0.200679 0.802482
vt 0.241106 0.948917
vt 0.248856 0.967580
vt 0.323619 0.935148
vt 0.392461 0.886840
vt 0.388445 0.852130
vt 0.309196 0.801399
vt 0.246685 0.649261
vt 0.952667 0.307752
vt 0.833563 0.250679
vt 0.725936 0.207427
vt 0.663099 0.926312
vt 0.726762 0.920162
vt 0.724639 0.862587
vt 0.642317 0.876711
vt 0.617531 0.821729
vt 0.562556 0.683678
vt 0.463100 0.676570
vt 0.145632 0.613928
vt 0.146130 0.529202
vt 0.078391 0.532336
vt 0.078120 0.630121
vt 0.974283 0.505322
vt 0.178906 0.404977
vt 0.382291 0.359314
vt 0.444482 0.344361
vt 0.429783 0.262506
vt 0.358458 0.291308
vt 0.451065 0.392154
vt 0.388822 0.410257
vt 0.307646 0.387363
vt 0.292322 0.337195
vt 0.390195 0.765826
vt 0.673304 0.238192
vt 0.502018 0.243748
vt 0.840445 0.285430
vt 0.974283 0.564825
vt 0.974283 0.613082
vt 0.870878 0.419186
vt 0.974283 0.398293
vt 0.882754 0.374045
vt 0.974283 0.343565
vt 0.903708 0.309972
vt 0.669566 0.984444
vt 0.731203 0.985524
vt 0.623877 0.845606
vt 0.080014 0.433528
vt 0.092757 0.522925
vt 0.018100 0.629291
vt 0.008284 0.538274
vt 0.587228 0.978987
vt 0.290375 0.525950
vt 0.423021 0.868713
vt 0.556209 0.830881
vt 0.422505 0.778831
vt 0.423021 0.868713
vt 0.556209 0.830881
vt 0.422505 0.778831
vt 0.423021 0.868713
vt 0.556209 0.830881
vt 0.422204 0.779575
vt 0.423021 0.868713
vt 0.556209 0.830881
vt 0.422505 0.778831
vt 0.423021 0.868713
vt 0.556209 0.830881
vt 0.422505 0.778831
vt 0.423021 0.868713
vt 0.556209 0.830881
vt 0.422505 0.778831
vt 0.423021 0.868713
vt 0.556209 0.830881
vt 0.422505 0.778831
vt 0.423021 0.868713
vt 0.556209 0.830881
vt 0.422505 0.778831
vt 0.423021 0.868713
vt 0.556209 0.830881
vt 0.422505 0.778831
vt 0.423021 0.868713
vt 0.556209 0.830881
vt 0.422505 0.778831
vt 0.423021 0.868713
vt 0.556209 0.830881
vt 0.422505 0.778831
vt 0.423021 0.868713
vt 0.556209 0.830881
vt 0.422505 0.778831
vt 0.423021 0.868713
vt 0.556209 0.830881
vt 0.422505 0.778831
vt 0.423021 0.868713
vt 0.556209 0.830881
vt 0.422505 0.778831
vt 0.423021 0.868713
vt 0.556209 0.830881
vt 0.422505 0.778831
vt 0.423021 0.868713
vt 0.556209 0.830881
vt 0.422505 0.778831
vt 0.423021 0.868713
vt 0.556209 0.830881
vt 0.422505 0.778831
vt 0.423021 0.868713
vt 0.556209 0.830881
vt 0.422505 0.778831
vt 0.423021 0.868713
vt 0.556209 0.830881
vt 0.422505 0.778831
vt 0.423021 0.868713
vt 0.556209 0.830881
vt 0.422505 0.778831
vt 0.422505 0.778831
vt 0.423121 0.868419
vt 0.556209 0.830881
vt 0.423021 0.868713
vt 0.556209 0.830881
vt 0.422505 0.778831
vt 0.423021 0.868713
vt 0.556209 0.830881
vt 0.422505 0.778831
vt 0.423021 0.868713
vt 0.556209 0.830881
vt 0.422505 0.778831
vt 0.423021 0.868713
vt 0.556209 0.830881
vt 0.422505 0.778831
vt 0.423021 0.868713
vt 0.556209 0.830881
vt 0.422505 0.778831
vt 0.291711 0.535615
vt 0.228353 0.530352
vt 0.223646 0.585424
vt 0.383587 0.673515
vt 0.368294 0.683162
vt 0.534899 0.062936
vt 0.535810 0.115265
vt 0.448071 0.156061
vt 0.530095 0.163354
vt 0.484514 0.657612
vt 0.991213 0.983258
vt 0.816353 0.977827
vt 0.009637 0.526595
vt 0.017633 0.439801
vt 0.378608 0.133954
vt 0.019229 0.047922
vt 0.326092 0.079354
vt 0.586840 0.937673
vt 0.555379 0.924627
vt 0.580444 0.919874
vt 0.564811 0.891682
vt 0.592329 0.884111
vt 0.606125 0.912143
vt 0.816181 0.773357
vt 0.814164 0.837953
vt 0.730341 0.770869
vt 0.538214 0.786742
vt 0.446605 0.742277
vt 0.458777 0.710372
vt 0.554988 0.736569
vt 0.634620 0.754365
vt 0.647644 0.691300
vt 0.719099 0.825693
vt 0.522301 0.914566
vt 0.152445 0.435876
vt 0.232178 0.461194
vt 0.446627 0.935647
vt 0.434105 0.904110
vt 0.534686 0.861435
vt 0.809767 0.460615
vt 0.808818 0.529739
vt 0.655447 0.539791
vt 0.656635 0.464455
vt 0.809722 0.586205
vt 0.654435 0.604038
vt 0.741506 0.123170
vt 0.737895 0.062218
vt 0.851177 0.064146
vt 0.856523 0.125818
vt 0.734450 0.187288
vt 0.845942 0.206474
vt 0.982393 0.173451
vt 0.982548 0.113456
vt 0.977340 0.057685
vt 0.971623 0.238292
vt 0.501190 0.533573
vt 0.435632 0.529322
vt 0.445494 0.457326
vt 0.503388 0.456743
vt 0.494503 0.595983
vt 0.821963 0.356586
vt 0.810106 0.427478
vt 0.658004 0.404214
vt 0.663521 0.335440
vt 0.374820 0.525350
vt 0.381797 0.449216
vt 0.427206 0.589900
vt 0.365513 0.587212
vt 0.307646 0.524538
vt 0.307646 0.450601
vt 0.991213 0.833741
vt 0.991213 0.907278
vt 0.814911 0.906224
vt 0.991213 0.768746
vt 0.454406 0.114454
vt 0.392315 0.114562
vt 0.873987 0.462666
vt 0.875049 0.520682
vt 0.878091 0.577282
vt 0.507094 0.333147
vt 0.506037 0.400476
vt 0.619323 0.116093
vt 0.398850 0.234921
vt 0.362763 0.207568
vt 0.398412 0.205240
vt 0.383671 0.179920
vt 0.419198 0.180743
vt 0.434728 0.208739
vt 0.109602 0.084620
vt 0.169784 0.083055
vt 0.169235 0.176872
vt 0.106830 0.178456
vt 0.052443 0.097542
vt 0.034094 0.155355
vt 0.162798 0.259264
vt 0.108972 0.262229
vt 0.037694 0.205089
vt 0.111541 0.341375
vt 0.148543 0.343258
vt 0.131908 0.382415
vt 0.109808 0.391255
vt 0.085159 0.344809
vt 0.282372 0.113571
vt 0.281442 0.189729
vt 0.214980 0.179822
vt 0.233842 0.096086
vt 0.314686 0.118892
vt 0.336673 0.180105
vt 0.262397 0.281480
vt 0.202085 0.265747
vt 0.326018 0.231598
vt 0.230713 0.351473
vt 0.211955 0.389089
vt 0.195907 0.381030
vt 0.195656 0.340765
vt 0.252957 0.367938
vt 0.207671 0.427262
vt 0.034663 0.100679
vt 0.019378 0.158891
vt 0.181452 0.178714
vt 0.192783 0.083517
vt 0.022646 0.208064
vt 0.174272 0.258717
vt 0.054106 0.266293
vt 0.071045 0.348166
vt 0.037947 0.269574
vt 0.139742 0.399356
vt 0.105280 0.413763
vt 0.202447 0.039575
vt 0.167497 0.023618
vt 0.268702 0.056141
vt 0.166530 0.349206
vt 0.909958 0.438583
vt 0.974283 0.457626
vt 0.904236 0.453326
vt 0.297807 0.292170
vt 0.050210 0.042170
vt 0.108696 0.045435
vt 0.027889 0.922985
vt 0.008736 0.834409
vt 0.113621 0.893980
vt 0.038859 0.967058
vt 0.101144 0.950724
vt 0.096047 0.821660
vt 0.201915 0.821376
vt 0.217598 0.884619
vt 0.172466 0.961486
vt 0.299153 0.877570
vt 0.302071 0.825767
vt 0.367275 0.862706
vt 0.367446 0.882202
vt 0.314618 0.917900
vt 0.023240 0.719081
vt 0.128229 0.693057
vt 0.106239 0.751883
vt 0.103553 0.654441
vt 0.033989 0.645593
vt 0.228769 0.700282
vt 0.210691 0.764199
vt 0.176891 0.637995
vt 0.310711 0.708935
vt 0.365878 0.734283
vt 0.368214 0.752273
vt 0.303303 0.771674
vt 0.320199 0.682059
vt 0.394983 0.725789
vt 0.053370 0.982644
vt 0.106329 0.971628
vt 0.095550 0.803743
vt 0.019480 0.789067
vt 0.179701 0.980832
vt 0.200679 0.802482
vt 0.241106 0.948917
vt 0.323619 0.935148
vt 0.248856 0.967580
vt 0.388445 0.852130
vt 0.392461 0.886840
vt 0.309196 0.801399
vt 0.246685 0.649261
vt 0.663099 0.926312
vt 0.642317 0.876711
vt 0.724639 0.862587
vt 0.726762 0.920162
vt 0.617531 0.821729
vt 0.145632 0.613928
vt 0.078120 0.630121
vt 0.974283 0.505322
vt 0.178906 0.404977
vt 0.382291 0.359314
vt 0.444482 0.344361
vt 0.451065 0.392154
vt 0.388822 0.410257
vt 0.307646 0.387363
vt 0.390195 0.765826
vt 0.974283 0.564825
vt 0.870878 0.419186
vt 0.882754 0.374045
vt 0.974283 0.398293
vt 0.623877 0.845606
vt 0.080014 0.433528
vt 0.018100 0.629291
vt 0.423021 0.868713
vt 0.422505 0.778831
vt 0.556209 0.830881
vt 0.423021 0.868713
vt 0.422505 0.778831
vt 0.556209 0.830881
vt 0.423021 0.868713
vt 0.422204 0.779575
vt 0.556209 0.830881
vt 0.423021 0.868713
vt 0.422505 0.778831
vt 0.556209 0.830881
vt 0.423021 0.868713
vt 0.422505 0.778831
vt 0.556209 0.830881
vt 0.423021 0.868713
vt 0.422505 0.778831
vt 0.556209 0.830881
vt 0.423021 0.868713
vt 0.422505 0.778831
vt 0.556209 0.830881
vt 0.423021 0.868713
vt 0.422505 0.778831
vt 0.556209 0.830881
vt 0.423021 0.868713
vt 0.422505 0.778831
vt 0.556209 0.830881
vt 0.423021 0.868713
vt 0.422505 0.778831
vt 0.556209 0.830881
vt 0.423021 0.868713
vt 0.422505 0.778831
vt 0.556209 0.830881
vt 0.423021 0.868713
vt 0.422505 0.778831
vt 0.556209 0.830881
vt 0.423021 0.868713
vt 0.422505 0.778831
vt 0.556209 0.830881
vt 0.423021 0.868713
vt 0.422505 0.778831
vt 0.556209 0.830881
vt 0.423021 0.868713
vt 0.422505 0.778831
vt 0.556209 0.830881
vt 0.423021 0.868713
vt 0.422505 0.778831
vt 0.556209 0.830881
vt 0.423021 0.868713
vt 0.422505 0.778831
vt 0.556209 0.830881
vt 0.423021 0.868713
vt 0.422505 0.778831
vt 0.556209 0.830881
vt 0.423021 0.868713
vt 0.422505 0.778831
vt 0.556209 0.830881
vt 0.423021 0.868713
vt 0.422505 0.778831
vt 0.556209 0.830881
vt 0.422505 0.778831
vt 0.556209 0.830881
vt 0.423021 0.868713
vt 0.422505 0.778831
vt 0.556209 0.830881
vt 0.423021 0.868713
vt 0.422505 0.778831
vt 0.556209 0.830881
vt 0.423021 0.868713
vt 0.422505 0.778831
vt 0.556209 0.830881
vt 0.423021 0.868713
vt 0.422505 0.778831
vt 0.556209 0.830881
vt 0.423021 0.868713
vt 0.422505 0.778831
vt 0.556209 0.830881
vt 0.223646 0.585424
vt 0.535810 0.115265
vt 0.017633 0.439801
vt 0.019229 0.047922
vt 0.326092 0.079354
vn -0.69411 0.69307 -0.19460
vn -0.90991 0.40833 -0.07302
vn -0.72560 0.68277 -0.08561
vn -0.84558 0.53383 0.00463
vn -0.78719 0.54930 -0.28037
vn -0.84758 0.43201 -0.30817
vn -0.63838 -0.76661 -0.06910
vn -0.63233 -0.76704 0.10868
vn -0.98497 -0.14476 0.09418
vn -0.71593 0.61378 -0.33276
vn -0.63114 -0.76382 -0.13508
vn -0.64256 -0.68858 -0.33613
vn -0.30736 0.92365 -0.22890
vn 0.00000 -0.99737 0.07242
vn -0.36317 -0.93172 0.00141
vn -0.70957 -0.70457 -0.00974
vn -0.99967 -0.01932 0.01696
vn -0.78511 0.59630 -0.16738
vn 0.00000 0.97155 -0.23683
vn 0.00000 0.94270 -0.33365
vn -0.93098 -0.33336 -0.14882
vn 0.00000 -0.99879 0.04917
vn -0.86257 -0.21126 -0.45972
vn -0.59746 0.71739 -0.35833
vn -0.00000 0.71793 -0.69611
vn 0.00000 0.94311 -0.33249
vn -0.86257 -0.21126 -0.45972
vn -0.93098 -0.33336 -0.14882
vn 0.00000 -0.82201 -0.56948
vn -0.74859 0.62224 -0.22896
vn -0.96543 0.25973 0.02222
vn -0.86127 0.50548 0.05201
vn -0.87127 0.46317 0.16236
vn -0.63478 0.77239 0.02163
vn -0.57388 0.80890 0.12783
vn 0.00000 0.99992 0.01276
vn 0.00000 0.99576 0.09194
vn -0.98361 -0.04062 0.17565
vn -0.98236 -0.03564 0.18357
vn -0.69374 0.69487 0.18940
vn -0.56150 0.80658 0.18479
vn 0.00000 0.97799 0.20864
vn 0.00000 0.98259 0.18580
vn -0.61636 -0.76828 0.17273
vn -0.62268 -0.75554 0.20353
vn -0.95515 -0.07392 0.28676
vn -0.91431 0.35949 0.18657
vn -0.71811 0.65939 0.22254
vn -0.00000 0.97134 0.23768
vn -0.53169 -0.80283 0.26976
vn -0.85472 0.51251 -0.08238
vn -0.83537 0.46237 0.29728
vn -0.71218 0.66974 -0.21038
vn -0.78686 0.58661 -0.19169
vn -0.59715 0.79757 -0.08535
vn -0.46192 -0.87433 0.14891
vn -0.42850 -0.90258 0.04159
vn -0.90128 -0.43302 0.01366
vn -0.82973 -0.55002 -0.09502
vn -0.72884 0.45936 -0.50773
vn -0.84175 0.49118 -0.22404
vn -0.59563 0.78278 -0.18022
vn -0.56667 0.81091 -0.14596
vn 0.00000 0.98992 -0.14160
vn 0.00000 0.98480 -0.17371
vn -0.97240 -0.05234 -0.22736
vn -0.83423 0.52875 -0.15646
vn 0.00000 0.98694 -0.16110
vn -0.97240 -0.05234 -0.22736
vn -0.78695 0.61618 0.03215
vn -0.83423 0.52875 -0.15646
vn -0.00000 -0.97412 -0.22602
vn 0.00000 -0.99859 -0.05307
vn -0.57048 -0.75654 -0.31970
vn -0.94769 0.30285 0.10082
vn 0.00000 0.99355 0.11338
vn -0.00000 0.94547 0.32570
vn -0.81739 -0.22305 0.53116
vn -0.00000 0.05544 0.99846
vn -0.89301 0.38426 0.23426
vn -0.63559 0.71829 0.28300
vn -0.64271 0.73372 0.22041
vn 0.00000 0.97951 0.20139
vn -0.56779 -0.81562 -0.11128
vn -0.69816 -0.69527 0.17078
vn 0.00000 0.98070 0.19552
vn -0.98347 0.10522 0.14733
vn 0.00000 -0.98028 0.19760
vn -0.79470 0.60524 -0.04634
vn -0.87514 0.47868 -0.07073
vn -0.86154 0.48299 -0.15641
vn -0.92644 0.34097 -0.15953
vn -0.91491 0.40209 -0.03564
vn -0.83964 0.54109 0.04722
vn -0.22322 0.96403 -0.14427
vn -0.06051 0.99783 0.02589
vn -0.08093 0.85684 -0.50919
vn -0.08485 0.69851 -0.71055
vn -0.16991 0.76818 0.61727
vn 0.19181 0.75515 0.62687
vn -0.07841 0.99644 -0.03080
vn -0.13880 0.87644 -0.46108
vn -0.06090 0.79935 0.59777
vn -0.10036 0.99206 0.07578
vn -0.28646 0.93891 0.19077
vn -0.28007 0.88505 -0.37182
vn -0.21388 0.82459 -0.52374
vn -0.08679 0.87233 0.48115
vn -0.08980 -0.99364 0.06797
vn -0.01246 -0.98740 -0.15775
vn 0.01750 -0.99235 -0.12223
vn 0.05848 -0.98779 0.14441
vn -0.02942 -0.37393 0.92699
vn 0.19894 -0.06046 0.97814
vn -0.01054 -0.99376 0.11106
vn -0.06485 -0.97875 -0.19451
vn -0.02245 -0.58976 0.80726
vn -0.04876 -0.98212 0.18183
vn -0.07508 -0.98881 -0.12895
vn -0.14697 -0.97913 -0.14034
vn -0.17809 -0.97102 0.15940
vn -0.21190 0.05843 0.97554
vn -0.79274 -0.23264 0.56342
vn -0.02942 -0.37393 0.92699
vn 0.19894 -0.06046 0.97814
vn -0.01260 -0.21795 -0.97588
vn 0.02075 -0.27706 -0.96063
vn -0.02245 -0.58976 0.80726
vn -0.28382 0.03005 -0.95841
vn -0.10455 0.83006 0.54778
vn -0.15553 -0.32388 0.93323
vn -0.21190 0.05843 0.97554
vn -0.79274 -0.23264 0.56342
vn -0.73234 0.05262 -0.67890
vn -0.59739 -0.52391 -0.60716
vn -0.72884 0.45936 -0.50773
vn -0.48250 -0.85905 -0.17094
vn -0.32117 -0.62390 -0.71246
vn -0.50497 -0.16989 0.84625
vn -0.60451 0.68097 0.41333
vn -0.95515 -0.07392 0.28676
vn -0.15553 -0.32388 0.93323
vn -0.83537 0.46237 0.29728
vn -0.71218 0.66974 -0.21038
vn -0.63559 0.71829 0.28300
vn -0.01905 0.99811 0.05850
vn -0.74859 0.62224 -0.22896
vn -0.60451 0.68097 0.41333
vn 0.25240 0.77671 0.57708
vn -0.03018 0.99954 -0.00122
vn -0.21926 0.89858 -0.38011
vn -0.29603 0.73515 -0.60986
vn 0.29369 0.78418 0.54664
vn -0.06487 0.99599 0.06167
vn -0.31155 0.82125 0.47800
vn -0.45751 0.88828 -0.04047
vn -0.40685 0.82533 -0.39155
vn -0.00138 0.81044 0.58582
vn -0.32403 -0.93116 0.16719
vn -0.04748 -0.99808 -0.03979
vn -0.00446 -0.99621 0.08683
vn 0.43630 -0.41196 0.79996
vn -0.50497 -0.16989 0.84625
vn 0.00866 -0.99874 0.04944
vn -0.04505 -0.99643 -0.07135
vn 0.33090 -0.71500 0.61586
vn -0.00832 -0.99793 0.06374
vn -0.09782 -0.99259 -0.07213
vn -0.11054 -0.99342 -0.03004
vn -0.04661 -0.99595 0.07682
vn -0.00301 -0.23645 0.97164
vn -0.50288 -0.45740 0.73341
vn -0.50497 -0.16989 0.84625
vn 0.43630 -0.41196 0.79996
vn -0.31812 -0.58707 -0.74441
vn -0.82973 -0.55002 -0.09502
vn 0.33090 -0.71500 0.61586
vn -0.46905 -0.20088 -0.86002
vn 0.07950 0.82651 0.55728
vn 0.17895 -0.44522 0.87736
vn -0.00301 -0.23645 0.97164
vn -0.50288 -0.45740 0.73341
vn -0.92028 -0.36662 -0.13664
vn -0.53757 -0.66503 -0.51841
vn 0.17895 -0.44522 0.87736
vn -0.00000 -0.98366 0.18001
vn 0.00000 -0.98683 0.16178
vn -0.00000 -0.98790 0.15507
vn -0.67928 0.73106 -0.06428
vn -0.68208 0.72629 0.08524
vn -0.92154 0.37356 0.10586
vn -0.88066 0.44520 -0.16198
vn -0.96966 0.22145 -0.10354
vn 0.00000 -0.98279 -0.18472
vn 0.00000 -0.96675 -0.25571
vn -0.71593 0.61378 -0.33276
vn -0.00000 0.99999 0.00348
vn 0.00000 0.99435 -0.10614
vn -0.96966 0.22145 -0.10354
vn -0.91431 0.35949 0.18657
vn -0.73234 0.05262 -0.67890
vn -0.46989 -0.83665 -0.28146
vn -0.45365 -0.86281 -0.22308
vn 0.00000 -0.97183 -0.23570
vn 0.00000 -0.95832 -0.28568
vn -0.48250 -0.85905 -0.17094
vn -0.59739 -0.52391 -0.60716
vn -0.57048 -0.75654 -0.31970
vn -0.00000 -0.97412 -0.22602
vn -0.92028 -0.36662 -0.13664
vn 0.00000 -0.99774 0.06716
vn -0.00000 -0.99566 -0.09309
vn 0.00000 -0.98747 0.15783
vn -0.71811 0.65939 0.22254
vn -0.00000 0.97134 0.23768
vn -0.32403 -0.93116 0.16719
vn -0.53169 -0.80283 0.26976
vn -0.39548 -0.89838 0.19105
vn -0.00000 -0.98366 0.18001
vn 0.00000 -0.98327 0.18216
vn 0.00000 0.99513 -0.09857
vn 0.00000 0.99796 0.06380
vn -0.74224 -0.54526 -0.38957
vn -0.74224 -0.54526 -0.38957
vn -0.00000 -0.99586 -0.09091
vn -0.99967 -0.01932 0.01696
vn 0.00000 -0.67798 -0.73508
vn 0.00000 0.97547 -0.22013
vn 0.00000 -0.82201 -0.56948
vn -0.83126 -0.09928 -0.54694
vn -0.83126 -0.09928 -0.54694
vn -0.83126 -0.09928 -0.54694
vn -0.80275 -0.00033 -0.59631
vn -0.80275 -0.00033 -0.59631
vn -0.80275 -0.00033 -0.59631
vn -0.77407 0.01838 -0.63283
vn -0.77407 0.01838 -0.63283
vn -0.77407 0.01838 -0.63283
vn -0.94892 -0.06868 -0.30794
vn -0.94892 -0.06868 -0.30794
vn -0.94892 -0.06868 -0.30794
vn -0.92144 -0.05453 -0.38467
vn -0.92144 -0.05453 -0.38467
vn -0.92144 -0.05453 -0.38467
vn -0.96089 0.06982 -0.26797
vn -0.96089 0.06982 -0.26797
vn -0.96089 0.06982 -0.26797
vn -0.95790 -0.02944 -0.28559
vn -0.95790 -0.02944 -0.28559
vn -0.95790 -0.02944 -0.28559
vn -0.95383 -0.03320 -0.29851
vn -0.95383 -0.03320 -0.29851
vn -0.95383 -0.03320 -0.29851
vn -0.94651 -0.11641 -0.30095
vn -0.94691 -0.08427 -0.31025
vn -0.94691 -0.08427 -0.31025
vn -0.94505 -0.14841 -0.29130
vn -0.94505 -0.14841 -0.29130
vn -0.94651 -0.11641 -0.30095
vn -0.89772 -0.03211 -0.43938
vn -0.89772 -0.03211 -0.43938
vn -0.89772 -0.03211 -0.43938
vn -0.96691 0.04848 -0.25046
vn -0.96691 0.04848 -0.25046
vn -0.96691 0.04848 -0.25046
vn -0.95311 0.26614 -0.14404
vn -0.95311 0.26614 -0.14404
vn -0.95311 0.26614 -0.14404
vn -0.96715 -0.14236 -0.21061
vn -0.96715 -0.14236 -0.21061
vn -0.96715 -0.14236 -0.21061
vn -0.94068 -0.20516 -0.27025
vn -0.94965 -0.22902 -0.21380
vn -0.94965 -0.22902 -0.21380
vn -0.92809 -0.18051 -0.32566
vn -0.92809 -0.18051 -0.32566
vn -0.94068 -0.20516 -0.27025
vn -0.90573 0.08789 -0.41463
vn -0.90573 0.08789 -0.41463
vn -0.90573 0.08789 -0.41463
vn -0.74628 -0.03247 -0.66483
vn -0.75399 -0.00069 -0.65689
vn -0.75399 -0.00069 -0.65689
vn -0.73774 -0.06422 -0.67202
vn -0.73774 -0.06422 -0.67202
vn -0.74628 -0.03247 -0.66483
vn -0.99609 0.00299 -0.08833
vn -0.99609 0.00299 -0.08833
vn -0.99609 0.00299 -0.08833
vn -0.81076 -0.10916 -0.57510
vn 0.00000 -0.18648 -0.98246
vn -0.81076 -0.10916 -0.57510
vn -0.99187 0.02584 -0.12463
vn -0.99187 0.02584 -0.12463
vn -0.99187 0.02584 -0.12463
vn -0.99185 0.01963 -0.12590
vn -0.99185 0.01963 -0.12590
vn -0.99185 0.01963 -0.12590
vn -0.98662 0.09998 -0.12877
vn -0.98662 0.09998 -0.12877
vn -0.98662 0.09998 -0.12877
vn -0.98419 0.08094 -0.15755
vn -0.98419 0.08094 -0.15755
vn -0.98419 0.08094 -0.15755
vn -0.94107 0.16780 -0.29367
vn -0.94107 0.16780 -0.29367
vn -0.94107 0.16780 -0.29367
vn -0.00000 0.42888 -0.90336
vn 0.00000 0.99321 0.11636
vn -0.30736 0.92365 -0.22890
vn 0.00000 -0.83689 -0.54736
vn -0.00000 0.42888 -0.90336
vn 0.00000 0.99278 0.11994
vn -0.99397 0.00704 0.10938
vn -0.00000 -0.99560 0.09367
vn 0.00000 -0.99357 0.11325
vn -0.00000 0.99688 -0.07896
vn 0.00000 0.98694 -0.16110
vn -0.00000 0.99978 -0.02085
vn 0.00000 -0.67798 -0.73508
vn -0.99967 -0.01932 0.01696
vn -0.00000 -0.86836 0.49594
vn -0.69816 -0.69527 0.17078
vn -0.69816 -0.69527 0.17078
vn 0.69411 0.69307 -0.19460
vn 0.72560 0.68277 -0.08561
vn 0.90991 0.40833 -0.07302
vn 0.84558 0.53383 0.00463
vn 0.78719 0.54930 -0.28037
vn 0.84758 0.43201 -0.30817
vn 0.63838 -0.76661 -0.06910
vn 0.98497 -0.14476 0.09418
vn 0.63233 -0.76704 0.10868
vn 0.71593 0.61378 -0.33276
vn 0.30736 0.92365 -0.22890
vn 0.64256 -0.68858 -0.33613
vn 0.63114 -0.76382 -0.13508
vn 0.70957 -0.70457 -0.00974
vn 0.36317 -0.93172 0.00141
vn 0.99967 -0.01932 0.01696
vn 0.78511 0.59630 -0.16738
vn 0.93098 -0.33336 -0.14882
vn 0.86257 -0.21126 -0.45972
vn 0.59746 0.71739 -0.35833
vn 0.86257 -0.21126 -0.45972
vn 0.93098 -0.33336 -0.14882
vn 0.74859 0.62224 -0.22896
vn 0.87127 0.46317 0.16236
vn 0.86127 0.50548 0.05201
vn 0.96543 0.25973 0.02222
vn 0.57388 0.80890 0.12783
vn 0.63478 0.77239 0.02163
vn 0.98361 -0.04062 0.17565
vn 0.56150 0.80658 0.18479
vn 0.69374 0.69487 0.18940
vn 0.98236 -0.03564 0.18357
vn 0.61636 -0.76828 0.17273
vn 0.62268 -0.75554 0.20353
vn 0.95515 -0.07392 0.28676
vn 0.91431 0.35949 0.18657
vn 0.71811 0.65939 0.22254
vn 0.53169 -0.80283 0.26976
vn 0.85472 0.51251 -0.08238
vn 0.78686 0.58661 -0.19169
vn 0.71218 0.66974 -0.21038
vn 0.83537 0.46237 0.29728
vn 0.59715 0.79757 -0.08535
vn 0.46192 -0.87433 0.14891
vn 0.82973 -0.55002 -0.09502
vn 0.90128 -0.43302 0.01366
vn 0.42850 -0.90258 0.04159
vn 0.84175 0.49118 -0.22404
vn 0.72884 0.45936 -0.50773
vn 0.56667 0.81091 -0.14596
vn 0.59563 0.78278 -0.18022
vn 0.83423 0.52875 -0.15646
vn 0.97240 -0.05234 -0.22736
vn 0.97240 -0.05234 -0.22736
vn 0.83423 0.52875 -0.15646
vn 0.78695 0.61618 0.03215
vn 0.57048 -0.75654 -0.31970
vn 0.94769 0.30285 0.10081
vn 0.81739 -0.22305 0.53116
vn 0.63559 0.71829 0.28300
vn 0.89301 0.38426 0.23426
vn 0.64271 0.73372 0.22041
vn 0.56779 -0.81562 -0.11128
vn 0.69816 -0.69527 0.17078
vn 0.98347 0.10522 0.14733
vn 0.79470 0.60524 -0.04634
vn 0.86154 0.48299 -0.15641
vn 0.87514 0.47868 -0.07073
vn 0.92644 0.34097 -0.15953
vn 0.91491 0.40209 -0.03564
vn 0.83964 0.54109 0.04722
vn 0.22322 0.96403 -0.14427
vn 0.08485 0.69851 -0.71055
vn 0.08093 0.85684 -0.50919
vn 0.06051 0.99783 0.02589
vn 0.16991 0.76818 0.61727
vn -0.19181 0.75514 0.62687
vn 0.13880 0.87644 -0.46108
vn 0.07841 0.99644 -0.03080
vn 0.06090 0.79935 0.59777
vn 0.10036 0.99206 0.07578
vn 0.21388 0.82459 -0.52374
vn 0.28007 0.88505 -0.37182
vn 0.28646 0.93891 0.19077
vn 0.08679 0.87233 0.48115
vn 0.08980 -0.99364 0.06797
vn -0.05848 -0.98779 0.14441
vn -0.01750 -0.99235 -0.12223
vn 0.01246 -0.98740 -0.15775
vn 0.02942 -0.37393 0.92699
vn -0.19894 -0.06046 0.97814
vn 0.01054 -0.99376 0.11106
vn 0.06485 -0.97875 -0.19451
vn 0.02245 -0.58976 0.80726
vn 0.04876 -0.98212 0.18183
vn 0.17809 -0.97102 0.15940
vn 0.14697 -0.97913 -0.14034
vn 0.07508 -0.98881 -0.12895
vn 0.21190 0.05843 0.97554
vn 0.79274 -0.23264 0.56342
vn 0.02942 -0.37393 0.92699
vn -0.19894 -0.06046 0.97814
vn 0.01260 -0.21795 -0.97588
vn -0.02075 -0.27706 -0.96063
vn 0.02245 -0.58976 0.80726
vn 0.28382 0.03005 -0.95841
vn 0.10455 0.83006 0.54778
vn 0.21190 0.05843 0.97554
vn 0.15553 -0.32388 0.93323
vn 0.73234 0.05262 -0.67890
vn 0.79274 -0.23264 0.56342
vn 0.59739 -0.52391 -0.60716
vn 0.72884 0.45936 -0.50773
vn 0.48250 -0.85905 -0.17094
vn 0.32117 -0.62390 -0.71246
vn 0.50497 -0.16989 0.84625
vn 0.95515 -0.07392 0.28676
vn 0.60451 0.68097 0.41333
vn 0.15553 -0.32388 0.93323
vn 0.83537 0.46237 0.29728
vn 0.71218 0.66974 -0.21038
vn 0.63559 0.71829 0.28300
vn 0.74859 0.62224 -0.22896
vn 0.01905 0.99811 0.05850
vn 0.60451 0.68097 0.41333
vn -0.25240 0.77671 0.57708
vn 0.29603 0.73515 -0.60986
vn 0.21926 0.89858 -0.38011
vn 0.03018 0.99954 -0.00122
vn -0.29369 0.78418 0.54664
vn 0.06487 0.99599 0.06167
vn 0.40685 0.82533 -0.39155
vn 0.45751 0.88828 -0.04047
vn 0.31155 0.82125 0.47800
vn 0.00138 0.81044 0.58582
vn 0.32403 -0.93116 0.16719
vn 0.00446 -0.99621 0.08683
vn 0.04748 -0.99808 -0.03979
vn -0.43630 -0.41196 0.79996
vn 0.50497 -0.16989 0.84625
vn -0.00866 -0.99874 0.04944
vn 0.04505 -0.99643 -0.07135
vn -0.33090 -0.71500 0.61586
vn 0.00832 -0.99793 0.06374
vn 0.04661 -0.99595 0.07682
vn 0.11054 -0.99342 -0.03004
vn 0.09781 -0.99259 -0.07213
vn 0.00301 -0.23645 0.97164
vn 0.50288 -0.45740 0.73341
vn 0.50497 -0.16989 0.84625
vn -0.43630 -0.41196 0.79996
vn 0.31812 -0.58707 -0.74441
vn 0.82973 -0.55002 -0.09502
vn -0.33090 -0.71500 0.61586
vn 0.46905 -0.20088 -0.86002
vn -0.07950 0.82651 0.55728
vn 0.00301 -0.23645 0.97164
vn -0.17895 -0.44522 0.87736
vn 0.92028 -0.36662 -0.13664
vn 0.50288 -0.45740 0.73341
vn 0.53757 -0.66503 -0.51841
vn -0.17895 -0.44522 0.87736
vn 0.67928 0.73106 -0.06428
vn 0.88066 0.44520 -0.16198
vn 0.92154 0.37356 0.10586
vn 0.68208 0.72629 0.08524
vn 0.96966 0.22145 -0.10354
vn 0.71593 0.61378 -0.33276
vn 0.96966 0.22145 -0.10354
vn 0.91431 0.35949 0.18657
vn 0.73234 0.05262 -0.67890
vn 0.46989 -0.83665 -0.28146
vn 0.45365 -0.86281 -0.22308
vn 0.48250 -0.85905 -0.17094
vn 0.59739 -0.52391 -0.60716
vn 0.57048 -0.75654 -0.31970
vn 0.92028 -0.36662 -0.13664
vn 0.71811 0.65939 0.22254
vn 0.32403 -0.93116 0.16719
vn 0.39548 -0.89838 0.19105
vn 0.53169 -0.80283 0.26976
vn 0.74224 -0.54526 -0.38957
vn 0.74224 -0.54526 -0.38957
vn 0.99967 -0.01932 0.01696
vn 0.83126 -0.09928 -0.54694
vn 0.83126 -0.09928 -0.54694
vn 0.83126 -0.09928 -0.54694
vn 0.80275 -0.00033 -0.59631
vn 0.80275 -0.00033 -0.59631
vn 0.80275 -0.00033 -0.59631
vn 0.77407 0.01838 -0.63283
vn 0.77407 0.01838 -0.63283
vn 0.77407 0.01838 -0.63283
vn 0.94892 -0.06868 -0.30794
vn 0.94892 -0.06868 -0.30794
vn 0.94892 -0.06868 -0.30794
vn 0.92144 -0.05453 -0.38467
vn 0.92144 -0.05453 -0.38467
vn 0.92144 -0.05453 -0.38467
vn 0.96089 0.06982 -0.26797
vn 0.96089 0.06982 -0.26797
vn 0.96089 0.06982 -0.26797
vn 0.95790 -0.02944 -0.28559
vn 0.95790 -0.02944 -0.28559
vn 0.95790 -0.02944 -0.28559
vn 0.95383 -0.03320 -0.29851
vn 0.95383 -0.03320 -0.29851
vn 0.95383 -0.03320 -0.29851
vn 0.94651 -0.11641 -0.30095
vn 0.94691 -0.08427 -0.31025
vn 0.94691 -0.08427 -0.31025
vn 0.94505 -0.14841 -0.29130
vn 0.94651 -0.11641 -0.30095
vn 0.94505 -0.14841 -0.29130
vn 0.89772 -0.03211 -0.43938
vn 0.89772 -0.03211 -0.43938
vn 0.89772 -0.03211 -0.43938
vn 0.96691 0.04848 -0.25046
vn 0.96691 0.04848 -0.25046
vn 0.96691 0.04848 -0.25046
vn 0.95311 0.26614 -0.14404
vn 0.95311 0.26614 -0.14404
vn 0.95311 0.26614 -0.14404
vn 0.96715 -0.14236 -0.21061
vn 0.96715 -0.14236 -0.21061
vn 0.96715 -0.14236 -0.21061
vn 0.94068 -0.20516 -0.27025
vn 0.94965 -0.22902 -0.21380
vn 0.94965 -0.22902 -0.21380
vn 0.92809 -0.18051 -0.32566
vn 0.94068 -0.20516 -0.27025
vn 0.92809 -0.18051 -0.32566
vn 0.90573 0.08789 -0.41463
vn 0.90573 0.08789 -0.41463
vn 0.90573 0.08789 -0.41463
vn 0.74628 -0.03247 -0.66483
vn 0.75399 -0.00069 -0.65689
vn 0.75399 -0.00069 -0.65689
vn 0.73774 -0.06422 -0.67202
vn 0.74628 -0.03247 -0.66483
vn 0.73774 -0.06422 -0.67202
vn 0.99609 0.00299 -0.08833
vn 0.99609 0.00299 -0.08833
vn 0.99609 0.00299 -0.08833
vn 0.81076 -0.10916 -0.57510
vn 0.81076 -0.10916 -0.57510
vn 0.99187 0.02584 -0.12463
vn 0.99187 0.02584 -0.12463
vn 0.99187 0.02584 -0.12463
vn 0.99185 0.01963 -0.12590
vn 0.99185 0.01963 -0.12590
vn 0.99185 0.01963 -0.12590
vn 0.98662 0.09998 -0.12877
vn 0.98662 0.09998 -0.12877
vn 0.98662 0.09998 -0.12877
vn 0.98419 0.08094 -0.15755
vn 0.98419 0.08094 -0.15755
vn 0.98419 0.08094 -0.15755
vn 0.94107 0.16780 -0.29367
vn 0.94107 0.16780 -0.29367
vn 0.94107 0.16780 -0.29367
vn 0.30736 0.92365 -0.22890
vn 0.99397 0.00704 0.10938
vn 0.99967 -0.01932 0.01696
vn 0.69816 -0.69527 0.17078
vn 0.69816 -0.69527 0.17078
f 100/100/100 99/99/99 124/124/124
f 124/124/124 125/125/125 100/100/100
f 124/124/124 99/99/99 143/143/143
f 143/143/143 323/323/323 124/124/124
f 451/451/451 476/476/476 479/479/479
f 479/479/479 452/452/452 451/451/451
f 453/453/453 452/452/452 456/456/456
f 456/456/456 452/452/452 479/479/479
f 453/453/453 480/480/480 454/454/454
f 456/456/456 455/455/455 453/453/453
f 480/480/480 453/453/453 455/455/455
f 483/483/483 457/457/457 456/456/456
f 456/456/456 485/485/485 483/483/483
f 479/479/479 485/485/485 456/456/456
f 455/455/455 456/456/456 457/457/457
f 462/462/462 466/466/466 479/479/479
f 479/479/479 476/476/476 462/462/462
f 485/485/485 479/479/479 466/466/466
f 460/460/460 462/462/462 476/476/476
f 476/476/476 477/477/477 460/460/460
f 462/462/462 461/461/461 465/465/465
f 413/413/413 428/428/428 436/436/436
f 436/436/436 438/438/438 413/413/413
f 405/405/405 409/409/409 431/431/431
f 431/431/431 403/403/403 405/405/405
f 405/405/405 408/408/408 409/409/409
f 407/407/407 408/408/408 405/405/405
f 432/432/432 409/409/409 408/408/408
f 431/431/431 409/409/409 432/432/432
f 403/403/403 431/431/431 404/404/404
f 404/404/404 431/431/431 433/433/433
f 432/432/432 433/433/433 431/431/431
f 404/404/404 399/399/399 403/403/403
f 433/433/433 429/429/429 404/404/404
f 404/404/404 429/429/429 426/426/426
f 426/426/426 401/401/401 404/404/404
f 401/401/401 399/399/399 404/404/404
f 399/399/399 401/401/401 400/400/400
f 401/401/401 426/426/426 425/425/425
f 425/425/425 400/400/400 401/401/401
f 444/444/444 400/400/400 425/425/425
f 107/107/107 102/102/102 101/101/101
f 101/101/101 104/104/104 107/107/107
f 106/106/106 107/107/107 104/104/104
f 104/104/104 105/105/105 106/106/106
f 105/105/105 108/108/108 132/132/132
f 132/132/132 133/133/133 105/105/105
f 104/104/104 108/108/108 105/105/105
f 104/104/104 101/101/101 130/130/130
f 130/130/130 108/108/108 104/104/104
f 103/103/103 130/130/130 101/101/101
f 101/101/101 96/96/96 103/103/103
f 96/96/96 101/101/101 102/102/102
f 131/131/131 130/130/130 103/103/103
f 132/132/132 108/108/108 130/130/130
f 130/130/130 131/131/131 132/132/132
f 103/103/103 128/128/128 131/131/131
f 103/103/103 100/100/100 125/125/125
f 125/125/125 128/128/128 103/103/103
f 100/100/100 103/103/103 96/96/96
f 99/99/99 100/100/100 96/96/96
f 175/175/175 160/160/160 159/159/159
f 159/159/159 160/160/160 161/161/161
f 162/162/162 161/161/161 166/166/166
f 159/159/159 161/161/161 162/162/162
f 159/159/159 176/176/176 175/175/175
f 162/162/162 163/163/163 159/159/159
f 178/178/178 175/175/175 152/152/152
f 147/147/147 152/152/152 175/175/175
f 175/175/175 176/176/176 147/147/147
f 170/170/170 172/172/172 171/171/171
f 449/449/449 446/446/446 448/448/448
f 446/446/446 447/447/447 448/448/448
f 474/474/474 449/449/449 450/450/450
f 448/448/448 450/450/450 449/449/449
f 447/447/447 451/451/451 448/448/448
f 454/454/454 448/448/448 453/453/453
f 450/450/450 448/448/448 454/454/454
f 452/452/452 453/453/453 448/448/448
f 448/448/448 451/451/451 452/452/452
f 447/447/447 477/477/477 476/476/476
f 476/476/476 451/451/451 447/447/447
f 197/197/197 196/196/196 310/310/310
f 198/198/198 199/199/199 196/196/196
f 196/196/196 197/197/197 198/198/198
f 197/197/197 309/309/309 586/586/586
f 586/586/586 492/492/492 197/197/197
f 198/198/198 197/197/197 492/492/492
f 310/310/310 309/309/309 197/197/197
f 308/308/308 309/309/309 310/310/310
f 308/308/308 586/586/586 309/309/309
f 492/492/492 493/493/493 198/198/198
f 198/198/198 493/493/493 508/508/508
f 225/225/225 22/22/22 21/21/21
f 21/21/21 224/224/224 225/225/225
f 21/21/21 22/22/22 23/23/23
f 507/507/507 225/225/225 320/320/320
f 225/225/225 507/507/507 342/342/342
f 342/342/342 22/22/22 225/225/225
f 320/320/320 225/225/225 224/224/224
f 343/343/343 229/229/229 22/22/22
f 342/342/342 343/343/343 22/22/22
f 23/23/23 22/22/22 229/229/229
f 320/320/320 588/588/588 507/507/507
f 153/153/153 179/179/179 150/150/150
f 180/180/180 179/179/179 153/153/153
f 153/153/153 177/177/177 180/180/180
f 174/174/174 177/177/177 153/153/153
f 157/157/157 151/151/151 150/150/150
f 150/150/150 154/154/154 157/157/157
f 154/154/154 150/150/150 179/179/179
f 178/178/178 151/151/151 157/157/157
f 152/152/152 151/151/151 178/178/178
f 183/183/183 184/184/184 157/157/157
f 157/157/157 156/156/156 183/183/183
f 157/157/157 184/184/184 178/178/178
f 156/156/156 157/157/157 154/154/154
f 179/179/179 158/158/158 154/154/154
f 154/154/154 158/158/158 155/155/155
f 154/154/154 155/155/155 156/156/156
f 183/183/183 156/156/156 155/155/155
f 419/419/419 416/416/416 443/443/443
f 443/443/443 423/423/423 419/419/419
f 416/416/416 411/411/411 418/418/418
f 418/418/418 443/443/443 416/416/416
f 412/412/412 411/411/411 416/416/416
f 412/412/412 413/413/413 410/410/410
f 410/410/410 411/411/411 412/412/412
f 415/415/415 418/418/418 411/411/411
f 411/411/411 410/410/410 414/414/414
f 414/414/414 415/415/415 411/411/411
f 590/590/590 414/414/414 410/410/410
f 410/410/410 438/438/438 590/590/590
f 438/438/438 410/410/410 413/413/413
f 465/465/465 466/466/466 462/462/462
f 460/460/460 461/461/461 462/462/462
f 471/471/471 466/466/466 465/465/465
f 466/466/466 471/471/471 485/485/485
f 501/501/501 485/485/485 471/471/471
f 471/471/471 470/470/470 501/501/501
f 465/465/465 468/468/468 471/471/471
f 470/470/470 471/471/471 468/468/468
f 468/468/468 465/465/465 486/486/486
f 465/465/465 461/461/461 467/467/467
f 467/467/467 486/486/486 465/465/465
f 167/167/167 168/168/168 169/169/169
f 210/210/210 172/172/172 170/170/170
f 170/170/170 169/169/169 210/210/210
f 169/169/169 170/170/170 167/167/167
f 167/167/167 171/171/171 185/185/185
f 185/185/185 164/164/164 167/167/167
f 171/171/171 167/167/167 170/170/170
f 164/164/164 185/185/185 166/166/166
f 166/166/166 161/161/161 164/164/164
f 160/160/160 165/165/165 164/164/164
f 164/164/164 161/161/161 160/160/160
f 178/178/178 165/165/165 160/160/160
f 160/160/160 175/175/175 178/178/178
f 115/115/115 116/116/116 119/119/119
f 138/138/138 119/119/119 116/116/116
f 119/119/119 118/118/118 115/115/115
f 142/142/142 115/115/115 118/118/118
f 115/115/115 142/142/142 117/117/117
f 117/117/117 112/112/112 115/115/115
f 114/114/114 112/112/112 117/117/117
f 112/112/112 114/114/114 113/113/113
f 113/113/113 109/109/109 112/112/112
f 109/109/109 113/113/113 324/324/324
f 324/324/324 137/137/137 109/109/109
f 146/146/146 145/145/145 148/148/148
f 145/145/145 146/146/146 147/147/147
f 147/147/147 146/146/146 152/152/152
f 150/150/150 146/146/146 153/153/153
f 149/149/149 153/153/153 146/146/146
f 151/151/151 152/152/152 146/146/146
f 146/146/146 150/150/150 151/151/151
f 148/148/148 149/149/149 146/146/146
f 149/149/149 148/148/148 173/173/173
f 153/153/153 149/149/149 174/174/174
f 173/173/173 174/174/174 149/149/149
f 5/5/5 2/2/2 6/6/6
f 17/17/17 223/223/223 192/192/192
f 189/189/189 192/192/192 6/6/6
f 192/192/192 191/191/191 17/17/17
f 191/191/191 192/192/192 189/189/189
f 17/17/17 8/8/8 16/16/16
f 16/16/16 193/193/193 17/17/17
f 17/17/17 191/191/191 9/9/9
f 8/8/8 17/17/17 9/9/9
f 191/191/191 190/190/190 70/70/70
f 70/70/70 9/9/9 191/191/191
f 189/189/189 190/190/190 191/191/191
f 222/222/222 190/190/190 189/189/189
f 70/70/70 190/190/190 222/222/222
f 222/222/222 319/319/319 70/70/70
f 70/70/70 319/319/319 318/318/318
f 318/318/318 71/71/71 70/70/70
f 70/70/70 71/71/71 69/69/69
f 69/69/69 9/9/9 70/70/70
f 7/7/7 9/9/9 69/69/69
f 396/396/396 445/445/445 437/437/437
f 437/437/437 397/397/397 396/396/396
f 396/396/396 400/400/400 444/444/444
f 444/444/444 445/445/445 396/396/396
f 400/400/400 396/396/396 399/399/399
f 398/398/398 399/399/399 396/396/396
f 396/396/396 397/397/397 398/398/398
f 398/398/398 427/427/427 430/430/430
f 430/430/430 402/402/402 398/398/398
f 427/427/427 398/398/398 397/397/397
f 399/399/399 398/398/398 402/402/402
f 508/508/508 227/227/227 198/198/198
f 198/198/198 227/227/227 226/226/226
f 226/226/226 199/199/199 198/198/198
f 7/7/7 8/8/8 9/9/9
f 69/69/69 74/74/74 7/7/7
f 14/14/14 8/8/8 7/7/7
f 7/7/7 73/73/73 14/14/14
f 7/7/7 74/74/74 72/72/72
f 72/72/72 73/73/73 7/7/7
f 14/14/14 73/73/73 331/331/331
f 331/331/331 333/333/333 14/14/14
f 339/339/339 14/14/14 333/333/333
f 8/8/8 14/14/14 15/15/15
f 15/15/15 16/16/16 8/8/8
f 15/15/15 194/194/194 11/11/11
f 11/11/11 16/16/16 15/15/15
f 193/193/193 16/16/16 11/11/11
f 12/12/12 11/11/11 194/194/194
f 11/11/11 10/10/10 193/193/193
f 10/10/10 11/11/11 12/12/12
f 337/337/337 194/194/194 339/339/339
f 194/194/194 337/337/337 336/336/336
f 336/336/336 195/195/195 194/194/194
f 194/194/194 195/195/195 12/12/12
f 339/339/339 338/338/338 337/337/337
f 333/333/333 338/338/338 339/339/339
f 491/491/491 334/334/334 337/337/337
f 337/337/337 338/338/338 491/491/491
f 336/336/336 337/337/337 334/334/334
f 340/340/340 491/491/491 338/338/338
f 95/95/95 98/98/98 136/136/136
f 136/136/136 144/144/144 95/95/95
f 95/95/95 144/144/144 143/143/143
f 143/143/143 99/99/99 95/95/95
f 96/96/96 95/95/95 99/99/99
f 97/97/97 98/98/98 95/95/95
f 95/95/95 96/96/96 97/97/97
f 98/98/98 127/127/127 135/135/135
f 135/135/135 136/136/136 98/98/98
f 98/98/98 97/97/97 126/126/126
f 126/126/126 127/127/127 98/98/98
f 439/439/439 422/422/422 421/421/421
f 417/417/417 422/422/422 439/439/439
f 422/422/422 417/417/417 416/416/416
f 416/416/416 417/417/417 412/412/412
f 416/416/416 419/419/419 422/422/422
f 421/421/421 422/422/422 419/419/419
f 495/495/495 421/421/421 420/420/420
f 419/419/419 420/420/420 421/421/421
f 420/420/420 424/424/424 495/495/495
f 420/420/420 419/419/419 423/423/423
f 423/423/423 424/424/424 420/420/420
f 425/425/425 589/589/589 444/444/444
f 408/408/408 435/435/435 432/432/432
f 434/434/434 435/435/435 408/408/408
f 408/408/408 407/407/407 434/434/434
f 338/338/338 333/333/333 340/340/340
f 333/333/333 332/332/332 340/340/340
f 331/331/331 332/332/332 333/333/333
f 340/340/340 489/489/489 488/488/488
f 488/488/488 506/506/506 340/340/340
f 340/340/340 332/332/332 489/489/489
f 489/489/489 332/332/332 380/380/380
f 378/378/378 332/332/332 331/331/331
f 380/380/380 332/332/332 378/378/378
f 331/331/331 381/381/381 378/378/378
f 331/331/331 73/73/73 72/72/72
f 72/72/72 381/381/381 331/331/331
f 378/378/378 379/379/379 380/380/380
f 380/380/380 379/379/379 318/318/318
f 380/380/380 319/319/319 222/222/222
f 222/222/222 490/490/490 380/380/380
f 318/318/318 319/319/319 380/380/380
f 380/380/380 490/490/490 489/489/489
f 489/489/489 490/490/490 487/487/487
f 487/487/487 488/488/488 489/489/489
f 487/487/487 490/490/490 222/222/222
f 334/334/334 335/335/335 336/336/336
f 336/336/336 335/335/335 312/312/312
f 195/195/195 336/336/336 311/311/311
f 312/312/312 311/311/311 336/336/336
f 312/312/312 13/13/13 12/12/12
f 12/12/12 311/311/311 312/312/312
f 195/195/195 311/311/311 12/12/12
f 12/12/12 13/13/13 10/10/10
f 224/224/224 321/321/321 320/320/320
f 395/395/395 390/390/390 392/392/392
f 390/390/390 391/391/391 392/392/392
f 394/394/394 395/395/395 392/392/392
f 392/392/392 391/391/391 393/393/393
f 393/393/393 394/394/394 392/392/392
f 94/94/94 90/90/90 89/89/89
f 89/89/89 90/90/90 91/91/91
f 93/93/93 90/90/90 94/94/94
f 90/90/90 92/92/92 91/91/91
f 92/92/92 90/90/90 93/93/93
f 371/371/371 387/387/387 212/212/212
f 370/370/370 388/388/388 387/387/387
f 387/387/387 371/371/371 370/370/370
f 366/366/366 388/388/388 370/370/370
f 370/370/370 350/350/350 366/366/366
f 350/350/350 370/370/370 369/369/369
f 370/370/370 371/371/371 368/368/368
f 368/368/368 369/369/369 370/370/370
f 368/368/368 371/371/371 211/211/211
f 212/212/212 211/211/211 371/371/371
f 504/504/504 368/368/368 213/213/213
f 368/368/368 504/504/504 503/503/503
f 503/503/503 369/369/369 368/368/368
f 211/211/211 213/213/213 368/368/368
f 369/369/369 347/347/347 350/350/350
f 348/348/348 347/347/347 384/384/384
f 349/349/349 350/350/350 347/347/347
f 347/347/347 348/348/348 349/349/349
f 386/386/386 351/351/351 348/348/348
f 348/348/348 385/385/385 386/386/386
f 384/384/384 385/385/385 348/348/348
f 352/352/352 349/349/349 348/348/348
f 348/348/348 351/351/351 352/352/352
f 385/385/385 384/384/384 442/442/442
f 502/502/502 386/386/386 385/385/385
f 385/385/385 494/494/494 502/502/502
f 442/442/442 494/494/494 385/385/385
f 566/566/566 567/567/567 568/568/568
f 287/287/287 288/288/288 289/289/289
f 363/363/363 349/349/349 352/352/352
f 350/350/350 349/349/349 363/363/363
f 363/363/363 366/366/366 350/350/350
f 365/365/365 366/366/366 363/363/363
f 363/363/363 364/364/364 365/365/365
f 375/375/375 372/372/372 364/364/364
f 365/365/365 364/364/364 372/372/372
f 372/372/372 373/373/373 365/365/365
f 376/376/376 372/372/372 375/375/375
f 373/373/373 372/372/372 376/376/376
f 375/375/375 65/65/65 68/68/68
f 34/34/34 32/32/32 51/51/51
f 36/36/36 34/34/34 55/55/55
f 51/51/51 55/55/55 34/34/34
f 37/37/37 35/35/35 34/34/34
f 34/34/34 36/36/36 37/37/37
f 83/83/83 82/82/82 35/35/35
f 35/35/35 37/37/37 83/83/83
f 83/83/83 37/37/37 351/351/351
f 37/37/37 36/36/36 352/352/352
f 352/352/352 351/351/351 37/37/37
f 367/367/367 352/352/352 36/36/36
f 36/36/36 317/317/317 367/367/367
f 55/55/55 317/317/317 36/36/36
f 317/317/317 55/55/55 63/63/63
f 54/54/54 63/63/63 55/55/55
f 55/55/55 51/51/51 54/54/54
f 317/317/317 64/64/64 374/374/374
f 205/205/205 209/209/209 208/208/208
f 208/208/208 202/202/202 205/205/205
f 206/206/206 203/203/203 202/202/202
f 204/204/204 205/205/205 202/202/202
f 202/202/202 203/203/203 204/204/204
f 84/84/84 203/203/203 206/206/206
f 206/206/206 85/85/85 84/84/84
f 212/212/212 204/204/204 203/203/203
f 203/203/203 84/84/84 212/212/212
f 497/497/497 204/204/204 212/212/212
f 204/204/204 497/497/497 496/496/496
f 496/496/496 205/205/205 204/204/204
f 205/205/205 496/496/496 500/500/500
f 500/500/500 209/209/209 205/205/205
f 500/500/500 496/496/496 499/499/499
f 496/496/496 497/497/497 498/498/498
f 498/498/498 499/499/499 496/496/496
f 212/212/212 387/387/387 497/497/497
f 498/498/498 497/497/497 387/387/387
f 387/387/387 388/388/388 498/498/498
f 574/574/574 575/575/575 576/576/576
f 296/296/296 297/297/297 298/298/298
f 215/215/215 83/83/83 386/386/386
f 386/386/386 502/502/502 215/215/215
f 351/351/351 386/386/386 83/83/83
f 215/215/215 214/214/214 82/82/82
f 82/82/82 83/83/83 215/215/215
f 214/214/214 200/200/200 80/80/80
f 80/80/80 82/82/82 214/214/214
f 80/80/80 200/200/200 140/140/140
f 140/140/140 200/200/200 141/141/141
f 139/139/139 140/140/140 141/141/141
f 139/139/139 141/141/141 217/217/217
f 216/216/216 139/139/139 217/217/217
f 220/220/220 218/218/218 217/217/217
f 217/217/217 219/219/219 220/220/220
f 217/217/217 218/218/218 216/216/216
f 56/56/56 59/59/59 216/216/216
f 216/216/216 218/218/218 56/56/56
f 213/213/213 56/56/56 218/218/218
f 218/218/218 220/220/220 213/213/213
f 213/213/213 220/220/220 504/504/504
f 220/220/220 219/219/219 505/505/505
f 505/505/505 504/504/504 220/220/220
f 56/56/56 213/213/213 211/211/211
f 211/211/211 57/57/57 56/56/56
f 58/58/58 59/59/59 56/56/56
f 56/56/56 57/57/57 58/58/58
f 59/59/59 58/58/58 31/31/31
f 58/58/58 85/85/85 52/52/52
f 52/52/52 31/31/31 58/58/58
f 58/58/58 57/57/57 84/84/84
f 84/84/84 85/85/85 58/58/58
f 212/212/212 84/84/84 57/57/57
f 57/57/57 211/211/211 212/212/212
f 31/31/31 52/52/52 51/51/51
f 51/51/51 52/52/52 53/53/53
f 440/440/440 505/505/505 441/441/441
f 505/505/505 440/440/440 503/503/503
f 503/503/503 504/504/504 505/505/505
f 440/440/440 441/441/441 442/442/442
f 442/442/442 441/441/441 494/494/494
f 374/374/374 367/367/367 317/317/317
f 63/63/63 64/64/64 317/317/317
f 364/364/364 363/363/363 367/367/367
f 367/367/367 374/374/374 364/364/364
f 352/352/352 367/367/367 363/363/363
f 375/375/375 374/374/374 64/64/64
f 364/364/364 374/374/374 375/375/375
f 64/64/64 65/65/65 375/375/375
f 62/62/62 65/65/65 64/64/64
f 64/64/64 63/63/63 62/62/62
f 62/62/62 63/63/63 54/54/54
f 571/571/571 572/572/572 573/573/573
f 293/293/293 294/294/294 295/295/295
f 577/577/577 578/578/578 579/579/579
f 299/299/299 300/300/300 301/301/301
f 81/81/81 30/30/30 33/33/33
f 31/31/31 30/30/30 59/59/59
f 32/32/32 33/33/33 30/30/30
f 30/30/30 31/31/31 32/32/32
f 140/140/140 81/81/81 80/80/80
f 33/33/33 80/80/80 81/81/81
f 82/82/82 80/80/80 33/33/33
f 33/33/33 35/35/35 82/82/82
f 34/34/34 35/35/35 33/33/33
f 33/33/33 32/32/32 34/34/34
f 51/51/51 32/32/32 31/31/31
f 62/62/62 68/68/68 65/65/65
f 62/62/62 61/61/61 67/67/67
f 67/67/67 68/68/68 62/62/62
f 54/54/54 61/61/61 62/62/62
f 61/61/61 54/54/54 53/53/53
f 53/53/53 54/54/54 51/51/51
f 67/67/67 61/61/61 60/60/60
f 53/53/53 60/60/60 61/61/61
f 60/60/60 66/66/66 67/67/67
f 66/66/66 60/60/60 207/207/207
f 207/207/207 208/208/208 66/66/66
f 208/208/208 207/207/207 202/202/202
f 202/202/202 207/207/207 206/206/206
f 545/545/545 546/546/546 547/547/547
f 266/266/266 267/267/267 268/268/268
f 97/97/97 102/102/102 129/129/129
f 129/129/129 126/126/126 97/97/97
f 102/102/102 97/97/97 96/96/96
f 111/111/111 126/126/126 129/129/129
f 110/110/110 127/127/127 126/126/126
f 126/126/126 111/111/111 110/110/110
f 135/135/135 127/127/127 110/110/110
f 110/110/110 137/137/137 135/135/135
f 137/137/137 110/110/110 109/109/109
f 109/109/109 110/110/110 111/111/111
f 129/129/129 116/116/116 111/111/111
f 111/111/111 116/116/116 115/115/115
f 115/115/115 112/112/112 111/111/111
f 111/111/111 112/112/112 109/109/109
f 116/116/116 129/129/129 138/138/138
f 129/129/129 102/102/102 107/107/107
f 107/107/107 138/138/138 129/129/129
f 580/580/580 581/581/581 582/582/582
f 302/302/302 303/303/303 304/304/304
f 375/375/375 68/68/68 376/376/376
f 376/376/376 377/377/377 373/373/373
f 499/499/499 373/373/373 377/377/377
f 377/377/377 500/500/500 499/499/499
f 88/88/88 188/188/188 44/44/44
f 44/44/44 188/188/188 187/187/187
f 187/187/187 45/45/45 44/44/44
f 44/44/44 45/45/45 39/39/39
f 187/187/187 188/188/188 357/357/357
f 357/357/357 358/358/358 187/187/187
f 356/356/356 358/358/358 357/357/357
f 357/357/357 353/353/353 356/356/356
f 354/354/354 353/353/353 389/389/389
f 355/355/355 356/356/356 353/353/353
f 353/353/353 354/354/354 355/355/355
f 358/358/358 356/356/356 359/359/359
f 360/360/360 356/356/356 355/355/355
f 359/359/359 356/356/356 360/360/360
f 358/358/358 362/362/362 186/186/186
f 186/186/186 187/187/187 358/358/358
f 359/359/359 362/362/362 358/358/358
f 355/355/355 42/42/42 49/49/49
f 42/42/42 355/355/355 354/354/354
f 354/354/354 43/43/43 42/42/42
f 42/42/42 43/43/43 41/41/41
f 41/41/41 43/43/43 86/86/86
f 41/41/41 86/86/86 87/87/87
f 354/354/354 86/86/86 43/43/43
f 389/389/389 86/86/86 354/354/354
f 313/313/313 86/86/86 389/389/389
f 87/87/87 86/86/86 313/313/313
f 87/87/87 314/314/314 316/316/316
f 313/313/313 314/314/314 87/87/87
f 76/76/76 313/313/313 587/587/587
f 24/24/24 26/26/26 19/19/19
f 19/19/19 18/18/18 24/24/24
f 27/27/27 24/24/24 18/18/18
f 18/18/18 28/28/28 27/27/27
f 28/28/28 18/18/18 4/4/4
f 18/18/18 3/3/3 4/4/4
f 3/3/3 18/18/18 19/19/19
f 28/28/28 4/4/4 5/5/5
f 5/5/5 223/223/223 28/28/28
f 2/2/2 4/4/4 3/3/3
f 4/4/4 2/2/2 5/5/5
f 5/5/5 6/6/6 192/192/192
f 192/192/192 223/223/223 5/5/5
f 269/269/269 270/270/270 271/271/271
f 548/548/548 549/549/549 550/550/550
f 551/551/551 552/552/552 553/553/553
f 272/272/272 273/273/273 274/274/274
f 45/45/45 187/187/187 186/186/186
f 186/186/186 50/50/50 45/45/45
f 45/45/45 50/50/50 46/46/46
f 46/46/46 39/39/39 45/45/45
f 46/46/46 47/47/47 39/39/39
f 40/40/40 39/39/39 47/47/47
f 47/47/47 48/48/48 40/40/40
f 49/49/49 42/42/42 40/40/40
f 40/40/40 48/48/48 49/49/49
f 41/41/41 40/40/40 42/42/42
f 49/49/49 361/361/361 355/355/355
f 189/189/189 221/221/221 222/222/222
f 20/20/20 326/326/326 325/325/325
f 325/325/325 330/330/330 487/487/487
f 330/330/330 325/325/325 327/327/327
f 325/325/325 326/326/326 327/327/327
f 326/326/326 20/20/20 19/19/19
f 19/19/19 20/20/20 3/3/3
f 341/341/341 328/328/328 326/326/326
f 327/327/327 326/326/326 328/328/328
f 19/19/19 341/341/341 326/326/326
f 329/329/329 330/330/330 327/327/327
f 328/328/328 329/329/329 327/327/327
f 488/488/488 330/330/330 329/329/329
f 487/487/487 330/330/330 488/488/488
f 346/346/346 506/506/506 329/329/329
f 329/329/329 328/328/328 346/346/346
f 329/329/329 506/506/506 488/488/488
f 1/1/1 228/228/228 221/221/221
f 221/221/221 189/189/189 1/1/1
f 1/1/1 3/3/3 20/20/20
f 20/20/20 228/228/228 1/1/1
f 1/1/1 189/189/189 6/6/6
f 6/6/6 2/2/2 1/1/1
f 1/1/1 2/2/2 3/3/3
f 221/221/221 228/228/228 325/325/325
f 325/325/325 228/228/228 20/20/20
f 325/325/325 487/487/487 221/221/221
f 222/222/222 221/221/221 487/487/487
f 88/88/88 44/44/44 38/38/38
f 38/38/38 87/87/87 88/88/88
f 87/87/87 38/38/38 41/41/41
f 39/39/39 38/38/38 44/44/44
f 40/40/40 41/41/41 38/38/38
f 38/38/38 39/39/39 40/40/40
f 389/389/389 88/88/88 316/316/316
f 88/88/88 357/357/357 188/188/188
f 88/88/88 389/389/389 353/353/353
f 353/353/353 357/357/357 88/88/88
f 316/316/316 88/88/88 87/87/87
f 542/542/542 543/543/543 544/544/544
f 263/263/263 264/264/264 265/265/265
f 483/483/483 484/484/484 458/458/458
f 455/455/455 458/458/458 459/459/459
f 455/455/455 459/459/459 480/480/480
f 480/480/480 459/459/459 481/481/481
f 481/481/481 482/482/482 480/480/480
f 454/454/454 480/480/480 482/482/482
f 482/482/482 478/478/478 454/454/454
f 454/454/454 478/478/478 475/475/475
f 475/475/475 450/450/450 454/454/454
f 450/450/450 475/475/475 474/474/474
f 524/524/524 525/525/525 526/526/526
f 245/245/245 246/246/246 247/247/247
f 397/397/397 437/437/437 436/436/436
f 436/436/436 428/428/428 397/397/397
f 397/397/397 428/428/428 427/427/427
f 430/430/430 427/427/427 412/412/412
f 413/413/413 412/412/412 427/427/427
f 427/427/427 428/428/428 413/413/413
f 412/412/412 417/417/417 430/430/430
f 439/439/439 430/430/430 417/417/417
f 430/430/430 439/439/439 406/406/406
f 406/406/406 402/402/402 430/430/430
f 403/403/403 402/402/402 406/406/406
f 402/402/402 403/403/403 399/399/399
f 434/434/434 407/407/407 406/406/406
f 406/406/406 439/439/439 434/434/434
f 406/406/406 405/405/405 403/403/403
f 405/405/405 406/406/406 407/407/407
f 421/421/421 495/495/495 439/439/439
f 583/583/583 584/584/584 585/585/585
f 305/305/305 306/306/306 307/307/307
f 536/536/536 537/537/537 538/538/538
f 257/257/257 258/258/258 259/259/259
f 527/527/527 528/528/528 529/529/529
f 248/248/248 249/249/249 250/250/250
f 463/463/463 467/467/467 461/461/461
f 463/463/463 461/461/461 460/460/460
f 460/460/460 464/464/464 463/463/463
f 486/486/486 472/472/472 468/468/468
f 469/469/469 468/468/468 472/472/472
f 468/468/468 469/469/469 470/470/470
f 501/501/501 470/470/470 469/469/469
f 469/469/469 473/473/473 501/501/501
f 472/472/472 473/473/473 469/469/469
f 458/458/458 457/457/457 483/483/483
f 457/457/457 458/458/458 455/455/455
f 458/458/458 484/484/484 481/481/481
f 481/481/481 459/459/459 458/458/458
f 530/530/530 531/531/531 532/532/532
f 251/251/251 252/252/252 253/253/253
f 518/518/518 519/519/519 520/520/520
f 239/239/239 240/240/240 241/241/241
f 533/533/533 534/534/534 535/535/535
f 254/254/254 255/255/255 256/256/256
f 554/554/554 555/555/555 556/556/556
f 275/275/275 276/276/276 277/277/277
f 118/118/118 122/122/122 142/142/142
f 122/122/122 118/118/118 121/121/121
f 120/120/120 121/121/121 118/118/118
f 118/118/118 119/119/119 120/120/120
f 120/120/120 119/119/119 138/138/138
f 138/138/138 201/201/201 120/120/120
f 121/121/121 120/120/120 201/201/201
f 201/201/201 123/123/123 121/121/121
f 121/121/121 123/123/123 122/122/122
f 134/134/134 138/138/138 107/107/107
f 107/107/107 106/106/106 134/134/134
f 134/134/134 106/106/106 105/105/105
f 105/105/105 133/133/133 134/134/134
f 521/521/521 522/522/522 523/523/523
f 242/242/242 243/243/243 244/244/244
f 557/557/557 558/558/558 559/559/559
f 278/278/278 279/279/279 280/280/280
f 539/539/539 540/540/540 541/541/541
f 260/260/260 261/261/261 262/262/262
f 155/155/155 182/182/182 183/183/183
f 155/155/155 158/158/158 181/181/181
f 181/181/181 182/182/182 155/155/155
f 181/181/181 158/158/158 179/179/179
f 179/179/179 180/180/180 181/181/181
f 168/168/168 184/184/184 210/210/210
f 165/165/165 178/178/178 184/184/184
f 184/184/184 168/168/168 165/165/165
f 210/210/210 169/169/169 168/168/168
f 168/168/168 167/167/167 164/164/164
f 164/164/164 165/165/165 168/168/168
f 346/346/346 328/328/328 341/341/341
f 344/344/344 341/341/341 19/19/19
f 341/341/341 344/344/344 345/345/345
f 345/345/345 346/346/346 341/341/341
f 19/19/19 26/26/26 344/344/344
f 345/345/345 344/344/344 25/25/25
f 344/344/344 26/26/26 25/25/25
f 25/25/25 29/29/29 345/345/345
f 27/27/27 29/29/29 25/25/25
f 25/25/25 24/24/24 27/27/27
f 24/24/24 25/25/25 26/26/26
f 230/230/230 231/231/231 232/232/232
f 509/509/509 510/510/510 511/511/511
f 79/79/79 322/322/322 78/78/78
f 355/355/355 361/361/361 360/360/360
f 512/512/512 513/513/513 514/514/514
f 233/233/233 234/234/234 235/235/235
f 515/515/515 516/516/516 517/517/517
f 236/236/236 237/237/237 238/238/238
f 281/281/281 282/282/282 283/283/283
f 560/560/560 561/561/561 562/562/562
f 563/563/563 564/564/564 565/565/565
f 284/284/284 285/285/285 286/286/286
f 290/290/290 291/291/291 292/292/292
f 569/569/569 570/570/570 291/291/291
f 389/389/389 587/587/587 313/313/313
f 314/314/314 313/313/313 76/76/76
f 316/316/316 587/587/587 389/389/389
f 587/587/587 316/316/316 315/315/315
f 315/315/315 316/316/316 314/314/314
f 76/76/76 75/75/75 314/314/314
f 314/314/314 75/75/75 315/315/315
f 587/587/587 382/382/382 76/76/76
f 77/77/77 76/76/76 382/382/382
f 75/75/75 76/76/76 77/77/77
f 315/315/315 382/382/382 587/587/587
f 315/315/315 322/322/322 383/383/383
f 383/383/383 382/382/382 315/315/315
f 315/315/315 75/75/75 78/78/78
f 78/78/78 322/322/322 315/315/315
f 77/77/77 78/78/78 75/75/75
f 383/383/383 79/79/79 77/77/77
f 382/382/382 383/383/383 77/77/77
f 78/78/78 77/77/77 79/79/79
f 79/79/79 383/383/383 322/322/322
