# leptocleidus_ad reconstructed from live game memory
v -0.00000 28.10718 -52.20332
v -0.00000 27.16466 -56.15866
v 2.79149 26.34443 -56.21149
v 3.68562 26.77898 -52.37395
v 3.46071 24.50684 -56.42754
v 4.91931 24.09752 -52.49530
v 3.27340 29.09280 -44.71244
v 3.80633 27.83450 -46.77668
v 3.69035 27.79582 -44.98687
v 5.45839 26.17842 -45.73315
v 5.87955 26.23570 -43.79918
v 4.07820 27.59950 -42.94803
v 4.01881 18.86404 -28.96538
v 6.20987 23.39259 -28.83626
v 4.64193 18.69441 -34.66495
v 6.44665 22.06789 -47.81384
v 4.83253 21.83067 -52.92906
v 2.90821 19.08771 -52.76128
v 4.12670 18.53371 -47.53944
v 0.00000 19.24141 -56.74118
v 0.00000 18.31220 -52.81881
v 2.42875 19.81305 -56.84733
v 4.84284 18.21697 -41.43526
v 0.00000 16.23546 -41.30727
v 0.00000 16.77812 -34.62032
v 7.38093 22.44071 -34.83701
v 0.00000 29.70122 -47.20100
v -0.00000 28.92037 -49.19170
v 4.40897 26.93279 -48.96174
v 6.43564 23.73987 -47.44580
v 4.91931 24.09752 -52.49530
v -0.00000 25.54492 -52.50068
v -0.00000 26.02560 -59.70285
v 6.43564 23.73987 -47.44580
v -0.00000 24.83702 -60.57151
v 10.05983 28.15694 21.68805
v 12.39904 21.75993 21.68547
v 11.13141 21.07360 28.69335
v 9.17092 27.13758 28.72010
v 5.83300 31.09808 28.53143
v 6.17034 32.12905 21.68543
v 0.00000 33.14558 28.50065
v 0.00000 34.41696 21.68570
v 4.97538 22.10650 60.42046
v 1.86633 26.17725 60.42204
v 3.18905 27.18677 51.42374
v 6.19057 22.13809 51.43000
v 0.00000 26.59434 60.42269
v 0.00000 27.89642 51.42374
v 2.19667 18.25635 60.42062
v 3.49846 17.68418 51.44551
v 8.38070 20.36913 41.65734
v 7.16122 24.26745 41.62597
v 4.46533 28.80592 41.51042
v 0.00000 30.20691 41.51109
v 5.16504 16.17226 41.56984
v 9.83957 28.50878 -0.22827
v 8.49102 28.41869 -6.31103
v 11.80271 22.43927 -6.09794
v 12.01834 21.79107 -0.35607
v 5.91658 32.75055 6.84159
v 10.51995 28.58347 6.84221
v 10.53081 28.67413 14.29650
v 6.24117 32.59621 14.29666
v 11.59608 18.21359 28.16338
v 12.78856 16.89038 21.68728
v 8.20384 12.56345 21.68559
v 7.21095 28.19355 -11.79691
v 9.90344 20.13847 -11.84957
v 4.36454 32.34543 -6.32954
v 2.95537 32.14338 -11.80668
v 0.00000 34.29324 -6.28450
v 0.00000 33.42938 -11.79682
v 5.50781 28.12004 -20.16551
v 7.10127 22.54810 -20.17639
v 0.00000 31.98864 -20.10265
v 4.67410 28.32980 -28.80805
v 7.10127 22.54810 -20.17639
v 5.50781 28.12004 -20.16551
v 0.00000 17.05574 -28.99794
v -0.00000 15.67259 -20.16635
v 5.10562 17.18083 -20.16663
v 3.46071 24.50684 -56.42754
v 2.60536 22.11327 82.29855
v 2.17511 22.11239 87.67941
v 0.00000 23.12708 87.68513
v 0.00000 23.77600 82.29567
v 0.00000 22.10908 88.86232
v 9.76147 20.79955 34.71603
v 8.15303 25.95394 34.75916
v 5.08540 30.19130 34.71275
v 0.00000 31.79208 34.68006
v 13.79238 16.16011 14.27744
v 13.60468 16.17108 6.83744
v 8.60319 11.46615 6.83844
v 8.93158 11.65019 14.28191
v 12.61718 16.82885 -0.32166
v 13.20075 22.01471 6.84052
v 3.79250 22.09348 69.18559
v 0.00000 25.39923 69.17760
v 0.00000 18.82274 69.17273
v 3.41872 28.46144 -44.85126
v 3.69070 27.79621 -46.06580
v 4.29343 27.77424 -44.94326
v 4.61184 26.86836 -45.42349
v 4.76556 26.95043 -44.28005
v 3.86159 27.83321 -43.75327
v 14.55112 21.95469 -6.21346
v 14.35349 19.31422 -10.80294
v 23.40236 18.70877 -11.42265
v 23.35293 20.92530 -5.60615
v 15.30446 19.56986 -1.52748
v 20.26886 19.21049 1.02620
v 31.38147 18.64127 -10.05732
v 31.14753 20.31858 -4.90559
v 24.90019 19.08440 1.15351
v 38.63847 19.87103 -3.56266
v 38.96466 18.77111 -6.67496
v 42.63894 18.99691 -4.90605
v 43.41589 19.20864 -2.71964
v 38.58607 18.66466 -1.39832
v 15.37716 17.34528 -3.85895
v 22.23004 16.97666 -2.85467
v 22.85304 17.01532 -9.30985
v 14.62294 17.28430 -8.44944
v 15.35593 18.03070 -0.93880
v 20.41740 18.14713 1.89993
v 30.81884 16.72399 -2.14886
v 31.13148 16.90231 -8.23212
v 24.97446 17.96965 2.00063
v 37.91581 17.13018 -2.47242
v 41.81544 17.16909 -2.85182
v 41.54785 17.11103 -4.53101
v 37.91787 17.03755 -5.75299
v 38.58233 18.02232 -0.21546
v 45.13022 18.14200 -2.21594
v 15.35593 18.03070 -0.93880
v 20.41740 18.14713 1.89993
v 23.50769 17.88741 -12.55729
v 14.12857 18.15659 -11.88602
v 24.97446 17.96965 2.00063
v 31.38147 17.77125 -11.04055
v 30.75617 18.99134 0.30027
v 38.58233 18.02232 -0.21546
v 30.75617 17.71516 1.11708
v 43.94533 18.01692 -5.30900
v 45.13022 18.14200 -2.21594
v 9.94930 17.87305 -11.95571
v 9.90344 20.13847 -11.84957
v 10.44360 16.73583 -5.84271
v 39.30328 17.86177 -7.51006
v 9.56326 18.64163 38.33210
v 8.38070 20.36913 41.65734
v 9.05185 19.78895 37.58867
v 3.48317 21.62938 -56.85120
v 30.75617 17.71516 1.11708
v 12.01834 21.79107 -0.35607
v 11.80271 22.43927 -6.09794
v 8.09652 12.38513 -0.14252
v 9.76147 20.79955 34.71603
v 11.13141 21.07360 28.69335
v 15.82762 20.77131 35.20304
v 9.05185 19.78895 37.58867
v 13.19919 19.85882 38.29027
v 16.77445 19.79697 29.79707
v 23.33053 19.79608 32.97194
v 22.19672 20.69625 37.79298
v 16.80950 19.89956 41.49534
v 27.24793 20.49207 40.16476
v 29.03159 19.81004 36.97363
v 31.83966 19.81937 41.54555
v 31.19268 19.85750 42.85511
v 26.73692 19.82247 43.23080
v 10.46246 17.47613 34.31656
v 15.88321 18.40644 37.86323
v 16.30782 18.27952 33.29875
v 13.07420 18.65988 39.19811
v 9.56326 18.64163 38.33210
v 21.88128 18.24407 39.78572
v 22.88480 18.22512 34.93209
v 16.86499 18.66574 42.26999
v 26.94154 18.48530 41.98359
v 31.14188 18.52138 42.03587
v 31.89668 18.48290 40.97894
v 28.52896 18.42006 37.73917
v 26.60436 18.66586 43.91363
v 32.15380 18.66819 43.56938
v 9.56326 18.64163 38.33210
v 13.07420 18.65988 39.19811
v 16.94285 18.65561 28.85763
v 11.59608 18.21359 28.16338
v 16.86499 18.66574 42.26999
v 23.63943 18.65412 32.02291
v 21.31378 19.84916 42.81689
v 26.60436 18.66586 43.91363
v 21.24816 18.65535 43.56691
v 32.91476 18.66517 41.46084
v 32.15380 18.66819 43.56938
v 29.59547 18.66164 36.36362
v 21.24816 18.65535 43.56691
v 0.00000 14.53395 41.57231
v 0.00000 16.63031 51.44455
v 0.00000 17.66188 60.42083
v 5.27945 32.60833 -0.24705
v 4.33047 29.75247 -39.19864
v 6.80463 26.63605 -40.30025
v 6.83098 25.60252 -34.72194
v 4.46997 29.58508 -34.84172
v 7.41645 23.23022 -41.70829
v 0.00000 17.29909 -47.52779
v 6.44665 22.06789 -47.81384
v 7.41645 23.23022 -41.70829
v 0.00000 20.56668 -41.55562
v 0.00000 19.98099 -47.70949
v 13.36291 21.98044 14.28109
v 7.16122 24.26745 41.62597
v 43.94533 18.01692 -5.30900
v 6.50328 14.77178 -11.51457
v 0.00000 13.13296 -11.51232
v 0.00000 11.64443 -5.97230
v 7.65623 13.20681 -5.91890
v 10.44360 16.73583 -5.84271
v 9.94930 17.87305 -11.95571
v 5.10562 17.18083 -20.16663
v -0.00000 15.67259 -20.16635
v 32.91476 18.66517 41.46084
v 0.00000 9.43758 6.83941
v 0.00000 10.55964 -0.08791
v 0.00000 9.34135 14.28211
v 0.00000 10.31112 21.68680
v 0.00000 11.82100 28.61549
v 7.13071 13.85822 28.66542
v 4.46533 28.80592 41.51042
v 0.00000 30.20691 41.51109
v 5.16504 16.17226 41.56984
v 10.46246 17.47613 34.31656
v 6.42671 14.94326 34.33893
v 0.00000 13.01512 34.39970
v 0.00000 14.53395 41.57231
v 0.00000 32.27400 -34.78933
v 0.00000 31.07733 -38.97220
v 7.54451 24.22433 -41.25689
v 0.00000 25.99018 -41.64192
v 7.54451 24.22433 -41.25689
v 7.38093 22.44071 -34.83701
v 0.00000 22.63120 -33.90668
v 0.00000 30.39013 -44.81034
v -0.00000 24.83702 -60.57151
v -0.00000 25.28525 -56.48545
v 3.03512 24.63621 -56.13498
v 1.97316 24.75484 -57.77052
v 2.22698 22.90109 -57.04826
v 1.97316 24.75484 -57.77052
v 0.80189 24.84908 -59.34732
v 1.26087 22.96659 -58.72841
v 0.80342 24.84908 -59.34732
v 0.12207 24.91511 -60.17883
v 0.30983 23.17353 -59.99974
v 3.68293 24.80754 -54.33012
v 3.10114 24.81817 -56.12533
v 3.18542 22.99060 -55.45798
v 4.26574 24.39939 -52.61665
v 3.46912 24.64398 -54.55953
v 3.72827 22.48637 -53.63290
v 4.63700 24.19367 -51.33897
v 4.26574 24.39939 -52.61665
v 4.49561 22.82527 -52.20251
v 5.11850 24.20719 -50.07619
v 4.68811 24.46692 -51.54653
v 4.81829 22.78160 -50.93618
v 5.56975 24.14469 -48.88186
v 5.12784 24.31048 -50.31230
v 5.26132 22.69786 -49.70645
v 5.86320 24.12386 -47.66977
v 5.40998 24.24541 -49.08607
v 5.48548 22.71642 -48.44031
v 6.28492 24.11127 -46.29522
v 5.86320 24.12386 -47.66977
v 5.81019 22.62427 -47.07777
v 4.65352 21.58553 -51.32867
v 5.23234 21.62706 -50.14910
v 5.07524 22.72980 -50.55067
v 5.38428 21.66169 -49.90994
v 5.67422 21.68509 -48.78609
v 5.50926 22.80290 -49.20655
v 5.80069 21.82917 -48.55197
v 5.97646 21.82701 -47.39283
v 5.65398 22.72572 -47.86617
v 4.38732 21.55114 -52.52785
v 4.65352 21.58553 -51.32867
v 4.73972 22.90445 -51.82435
v 4.05970 21.51272 -53.94196
v 4.38732 21.55114 -52.52785
v 4.55502 22.87248 -53.19842
v 3.54954 21.43415 -55.35229
v 4.05970 21.51272 -53.94196
v 4.08253 22.78610 -54.58268
v 3.08424 21.38898 -56.84499
v 3.68828 21.57044 -55.48705
v 3.29055 22.78356 -56.09872
v 2.00347 21.32730 -58.08545
v 3.08424 21.38898 -56.84499
v 2.55742 22.68426 -57.45105
v 0.81849 21.20580 -59.37469
v 2.00347 21.32730 -58.08545
v 1.58151 22.59718 -58.67003
v 6.41105 24.33211 -44.86537
v 6.28492 24.11127 -46.29522
v 6.35366 22.73384 -45.56670
v 0.81849 21.20580 -59.37469
v 0.45454 22.58419 -60.14941
v 0.00000 21.26941 -60.54065
v 6.41106 24.39782 -43.11060
v 6.22949 24.30071 -44.57573
v 6.35366 22.84109 -43.89012
v 6.41106 24.72414 -41.53027
v 6.22949 24.54500 -42.98855
v 6.35366 23.12586 -42.23161
v 6.05033 21.86098 -47.06090
v 6.22091 21.99552 -45.64947
v 6.02824 23.03364 -46.31963
v 6.20852 22.10521 -45.35674
v 6.42340 22.23975 -43.94532
v 6.23074 23.27788 -44.61549
v 6.20852 22.38495 -43.68438
v 6.62497 22.51950 -42.27297
v 6.23074 23.55762 -42.94313
v 0.00000 21.48251 -60.88359
v 3.48317 21.62938 -56.85120
v 0.00000 20.53754 -57.38756
v 0.00000 21.48251 -60.88359
v 0.00000 20.19625 -60.43489
v 3.19893 22.10337 75.72942
v 0.00000 24.58624 75.71564
v 0.00000 20.30628 82.29833
v 0.00000 19.60604 75.70972
v 0.00000 35.08617 14.29935
v 0.00000 35.25430 6.84319
v 0.00000 31.98864 -20.10265
v 0.00000 31.54928 -28.75661
v 0.00000 22.63120 -33.90668
v 7.38093 22.44071 -34.83701
v 4.83253 21.83067 -52.92906
v 0.00000 20.01709 -53.00958
v 0.00000 20.85182 87.67061
v 0.00000 35.01752 -0.30564
v 12.61718 16.82885 -0.32166
v 12.61718 16.82885 -0.32166
v -3.68563 26.77898 -52.37395
v -2.79149 26.34443 -56.21149
v -4.91931 24.09752 -52.49530
v -3.46071 24.50684 -56.42754
v -3.27340 29.09280 -44.71244
v -3.69035 27.79582 -44.98687
v -3.80633 27.83450 -46.77668
v -5.45839 26.17842 -45.73315
v -5.87955 26.23570 -43.79918
v -4.07820 27.59950 -42.94803
v -4.01881 18.86404 -28.96538
v -4.64193 18.69441 -34.66495
v -6.20987 23.39259 -28.83626
v -6.44665 22.06789 -47.81384
v -4.12670 18.53371 -47.53944
v -2.90820 19.08771 -52.76128
v -4.83253 21.83067 -52.92906
v -2.42875 19.81305 -56.84733
v 0.00000 16.77812 -34.62032
v -4.84283 18.21697 -41.43526
v -7.38093 22.44071 -34.83701
v -4.40897 26.93279 -48.96174
v -6.43564 23.73987 -47.44580
v -4.91931 24.09752 -52.49530
v -6.43564 23.73987 -47.44580
v -10.05983 28.15694 21.68805
v -9.17091 27.13758 28.72010
v -11.13140 21.07360 28.69336
v -12.39903 21.75993 21.68547
v -6.17034 32.12905 21.68543
v -5.83300 31.09808 28.53143
v -4.97537 22.10650 60.42046
v -6.19057 22.13809 51.43000
v -3.18904 27.18677 51.42374
v -1.86632 26.17725 60.42204
v -2.19666 18.25635 60.42062
v -3.49846 17.68418 51.44551
v -8.38070 20.36913 41.65734
v -7.16121 24.26745 41.62597
v -4.46533 28.80592 41.51042
v -5.16504 16.17226 41.56984
v -9.83957 28.50878 -0.22827
v -12.01834 21.79107 -0.35607
v -11.80271 22.43927 -6.09794
v -8.49102 28.41869 -6.31103
v -5.91658 32.75055 6.84159
v -6.24117 32.59621 14.29666
v -10.53081 28.67413 14.29650
v -10.51995 28.58347 6.84221
v -11.59608 18.21358 28.16338
v -8.20384 12.56345 21.68559
v -12.78856 16.89038 21.68728
v -9.90344 20.13847 -11.84956
v -7.21095 28.19355 -11.79691
v -2.95537 32.14338 -11.80668
v -4.36454 32.34543 -6.32954
v -7.10127 22.54810 -20.17639
v -5.50781 28.12004 -20.16551
v 0.00000 31.98864 -20.10265
v -7.10127 22.54810 -20.17639
v -4.67410 28.32980 -28.80805
v -5.50781 28.12004 -20.16551
v -0.00000 15.67259 -20.16635
v 0.00000 17.05574 -28.99794
v -5.10562 17.18083 -20.16663
v -3.46071 24.50684 -56.42754
v -2.60536 22.11327 82.29855
v -2.17511 22.11239 87.67941
v -8.15303 25.95394 34.75916
v -9.76147 20.79955 34.71603
v -5.08540 30.19130 34.71275
v -13.79238 16.16011 14.27745
v -8.93158 11.65019 14.28191
v -8.60319 11.46615 6.83844
v -13.60468 16.17108 6.83744
v -13.20074 22.01471 6.84053
v -12.61718 16.82885 -0.32166
v -3.79249 22.09348 69.18559
v -3.41872 28.46144 -44.85126
v -4.29343 27.77424 -44.94326
v -3.69070 27.79621 -46.06580
v -4.61184 26.86836 -45.42349
v -4.76556 26.95043 -44.28005
v -3.86159 27.83321 -43.75327
v -14.55112 21.95469 -6.21346
v -23.35293 20.92530 -5.60615
v -23.40236 18.70877 -11.42265
v -14.35349 19.31422 -10.80294
v -15.30446 19.56986 -1.52748
v -20.26886 19.21049 1.02619
v -31.14753 20.31857 -4.90560
v -31.38147 18.64126 -10.05733
v -24.90019 19.08439 1.15350
v -38.63848 19.87102 -3.56267
v -43.41589 19.20864 -2.71965
v -42.63894 18.99691 -4.90606
v -38.96466 18.77111 -6.67497
v -38.58607 18.66466 -1.39832
v -15.37716 17.34528 -3.85895
v -14.62293 17.28430 -8.44944
v -22.85304 17.01532 -9.30985
v -22.23004 16.97666 -2.85467
v -15.35593 18.03070 -0.93880
v -20.41740 18.14713 1.89993
v -30.81884 16.72398 -2.14887
v -31.13148 16.90230 -8.23212
v -24.97446 17.96964 2.00063
v -37.91581 17.13018 -2.47243
v -37.91787 17.03755 -5.75299
v -41.54785 17.11102 -4.53102
v -41.81544 17.16909 -2.85183
v -38.58234 18.02232 -0.21547
v -45.13022 18.14200 -2.21595
v -15.35593 18.03070 -0.93880
v -20.41740 18.14713 1.89993
v -23.50768 17.88741 -12.55729
v -14.12857 18.15658 -11.88602
v -24.97446 17.96964 2.00063
v -31.38147 17.77125 -11.04055
v -30.75618 18.99134 0.30026
v -30.75618 17.71516 1.11707
v -38.58234 18.02232 -0.21547
v -45.13022 18.14200 -2.21595
v -43.94533 18.01691 -5.30901
v -9.94930 17.87305 -11.95571
v -9.90344 20.13847 -11.84956
v -10.44360 16.73583 -5.84271
v -39.30328 17.86177 -7.51006
v -9.56325 18.64163 38.33211
v -9.05184 19.78895 37.58867
v -8.38070 20.36913 41.65734
v -3.48316 21.62938 -56.85120
v -30.75618 17.71516 1.11707
v -12.01834 21.79107 -0.35607
v -11.80271 22.43927 -6.09794
v -8.09651 12.38513 -0.14252
v -9.76147 20.79955 34.71603
v -15.82762 20.77131 35.20304
v -11.13140 21.07360 28.69336
v -9.05184 19.78895 37.58867
v -13.19919 19.85881 38.29027
v -22.19672 20.69624 37.79299
v -23.33053 19.79608 32.97195
v -16.77445 19.79697 29.79708
v -16.80950 19.89956 41.49535
v -27.24793 20.49207 40.16476
v -31.19268 19.85750 42.85512
v -31.83966 19.81937 41.54555
v -29.03159 19.81004 36.97363
v -26.73692 19.82246 43.23080
v -10.46246 17.47613 34.31656
v -16.30782 18.27952 33.29875
v -15.88321 18.40644 37.86324
v -13.07419 18.65988 39.19812
v -9.56325 18.64163 38.33211
v -21.88128 18.24406 39.78572
v -22.88480 18.22512 34.93209
v -16.86498 18.66573 42.26999
v -26.94153 18.48530 41.98359
v -28.52896 18.42005 37.73917
v -31.89668 18.48290 40.97894
v -31.14188 18.52137 42.03587
v -26.60436 18.66586 43.91364
v -32.15380 18.66819 43.56938
v -9.56325 18.64163 38.33211
v -13.07419 18.65988 39.19812
v -16.94285 18.65561 28.85764
v -11.59608 18.21358 28.16338
v -16.86498 18.66573 42.26999
v -23.63942 18.65411 32.02291
v -21.31377 19.84916 42.81689
v -21.24816 18.65534 43.56691
v -26.60436 18.66586 43.91364
v -32.15380 18.66819 43.56938
v -32.91476 18.66516 41.46085
v -29.59546 18.66163 36.36362
v -21.24816 18.65534 43.56691
v -5.27944 32.60833 -0.24705
v -4.33047 29.75247 -39.19864
v -4.46997 29.58508 -34.84172
v -6.83098 25.60252 -34.72194
v -6.80462 26.63605 -40.30025
v -7.41645 23.23022 -41.70829
v -6.44665 22.06789 -47.81384
v -7.41645 23.23022 -41.70829
v -13.36291 21.98044 14.28109
v -7.16121 24.26745 41.62597
v -43.94533 18.01691 -5.30901
v -6.50327 14.77178 -11.51457
v -7.65623 13.20681 -5.91890
v -10.44360 16.73583 -5.84271
v -9.94930 17.87305 -11.95571
v -5.10562 17.18083 -20.16663
v -0.00000 15.67259 -20.16635
v -32.91476 18.66516 41.46085
v -7.13071 13.85823 28.66542
v -4.46533 28.80592 41.51042
v -10.46246 17.47613 34.31656
v -5.16504 16.17226 41.56984
v -6.42671 14.94326 34.33893
v -7.54451 24.22433 -41.25689
v -7.54451 24.22433 -41.25689
v -7.38093 22.44071 -34.83701
v 0.00000 22.63120 -33.90668
v -3.03512 24.63621 -56.13498
v -2.22698 22.90109 -57.04826
v -1.97316 24.75484 -57.77052
v -1.97316 24.75484 -57.77052
v -1.26087 22.96659 -58.72841
v -0.80189 24.84908 -59.34732
v -0.80343 24.84908 -59.34732
v -0.30984 23.17353 -59.99974
v -0.12207 24.91511 -60.17883
v -3.68293 24.80754 -54.33012
v -3.18542 22.99060 -55.45798
v -3.10114 24.81817 -56.12533
v -4.26574 24.39939 -52.61665
v -3.72828 22.48637 -53.63290
v -3.46913 24.64398 -54.55953
v -4.63700 24.19367 -51.33897
v -4.49561 22.82527 -52.20251
v -4.26574 24.39939 -52.61665
v -5.11850 24.20719 -50.07619
v -4.81829 22.78160 -50.93618
v -4.68811 24.46692 -51.54653
v -5.56975 24.14469 -48.88186
v -5.26132 22.69786 -49.70645
v -5.12784 24.31048 -50.31230
v -5.86320 24.12386 -47.66977
v -5.48548 22.71642 -48.44031
v -5.40998 24.24541 -49.08607
v -6.28492 24.11127 -46.29522
v -5.81019 22.62427 -47.07777
v -5.86320 24.12386 -47.66977
v -4.65351 21.58553 -51.32867
v -5.07524 22.72980 -50.55067
v -5.23233 21.62706 -50.14910
v -5.38428 21.66169 -49.90994
v -5.50926 22.80290 -49.20655
v -5.67421 21.68509 -48.78609
v -5.80068 21.82917 -48.55197
v -5.65398 22.72572 -47.86617
v -5.97645 21.82701 -47.39283
v -4.38732 21.55114 -52.52785
v -4.73972 22.90445 -51.82435
v -4.65351 21.58553 -51.32867
v -4.05970 21.51272 -53.94196
v -4.55501 22.87248 -53.19842
v -4.38732 21.55114 -52.52785
v -3.54954 21.43415 -55.35229
v -4.08253 22.78610 -54.58268
v -4.05970 21.51272 -53.94196
v -3.08424 21.38898 -56.84499
v -3.29054 22.78356 -56.09872
v -3.68828 21.57044 -55.48705
v -2.00347 21.32730 -58.08545
v -2.55742 22.68426 -57.45105
v -3.08424 21.38898 -56.84499
v -0.81849 21.20580 -59.37469
v -1.58150 22.59718 -58.67003
v -2.00347 21.32730 -58.08545
v -6.41105 24.33211 -44.86537
v -6.35366 22.73384 -45.56670
v -6.28492 24.11127 -46.29522
v -0.81849 21.20580 -59.37469
v -0.45454 22.58419 -60.14941
v -6.41105 24.39782 -43.11060
v -6.35366 22.84109 -43.89012
v -6.22949 24.30071 -44.57573
v -6.41105 24.72414 -41.53027
v -6.35366 23.12586 -42.23161
v -6.22949 24.54500 -42.98855
v -6.05032 21.86098 -47.06090
v -6.02824 23.03364 -46.31963
v -6.22090 21.99552 -45.64947
v -6.20852 22.10521 -45.35674
v -6.23073 23.27788 -44.61549
v -6.42340 22.23975 -43.94532
v -6.20852 22.38495 -43.68438
v -6.23074 23.55762 -42.94313
v -6.62497 22.51950 -42.27297
v -3.48316 21.62938 -56.85120
v -3.19892 22.10338 75.72942
v 0.00000 31.98864 -20.10265
v 0.00000 31.54928 -28.75661
v 0.00000 22.63120 -33.90668
v -7.38093 22.44071 -34.83701
v -4.83253 21.83067 -52.92906
v -12.61718 16.82885 -0.32166
v -12.61718 16.82885 -0.32166
vt 0.481079 0.981177
vt 0.422357 0.983034
vt 0.419638 0.943619
vt 0.473616 0.927675
vt 0.406754 0.919369
vt 0.461456 0.888851
vt 0.586840 0.937673
vt 0.555379 0.924627
vt 0.580444 0.919874
vt 0.564811 0.891682
vt 0.592329 0.884111
vt 0.606125 0.912143
vt 0.816183 0.773470
vt 0.814145 0.837895
vt 0.730222 0.770939
vt 0.538214 0.786742
vt 0.471513 0.755709
vt 0.486097 0.716280
vt 0.554988 0.736569
vt 0.435896 0.674352
vt 0.490303 0.678787
vt 0.431457 0.704465
vt 0.634620 0.754365
vt 0.647644 0.691300
vt 0.739602 0.709738
vt 0.719208 0.825088
vt 0.552839 0.981272
vt 0.523380 0.978622
vt 0.522301 0.914566
vt 0.152445 0.435876
vt 0.212045 0.447142
vt 0.200197 0.520869
vt 0.367857 0.979262
vt 0.534686 0.861435
vt 0.348212 0.970463
vt 0.733518 0.537061
vt 0.734505 0.465017
vt 0.809767 0.460615
vt 0.808818 0.529739
vt 0.809722 0.586205
vt 0.734689 0.596663
vt 0.818228 0.650151
vt 0.739784 0.667008
vt 0.741506 0.123170
vt 0.737895 0.062218
vt 0.851177 0.064146
vt 0.856523 0.125818
vt 0.733578 0.038748
vt 0.842509 0.024208
vt 0.734450 0.187288
vt 0.845942 0.206474
vt 0.982393 0.173451
vt 0.982548 0.113456
vt 0.977340 0.057685
vt 0.969898 0.010150
vt 0.971623 0.238292
vt 0.501190 0.533573
vt 0.435632 0.529322
vt 0.445494 0.457326
vt 0.503388 0.456743
vt 0.572182 0.604195
vt 0.576921 0.535708
vt 0.655447 0.539791
vt 0.654435 0.604038
vt 0.810106 0.427478
vt 0.735976 0.412309
vt 0.744597 0.347519
vt 0.374820 0.525350
vt 0.381797 0.449216
vt 0.427206 0.589900
vt 0.365513 0.587212
vt 0.417241 0.640637
vt 0.357628 0.621533
vt 0.307620 0.524554
vt 0.307620 0.450691
vt 0.307620 0.599709
vt 0.814903 0.906264
vt 0.991128 0.833753
vt 0.991128 0.907269
vt 0.816277 0.719493
vt 0.991128 0.702554
vt 0.991128 0.768745
vt 0.252312 0.475246
vt 0.454406 0.114454
vt 0.392315 0.114562
vt 0.381062 0.086025
vt 0.452091 0.070380
vt 0.365455 0.114170
vt 0.873987 0.462666
vt 0.875049 0.520682
vt 0.878091 0.577282
vt 0.887319 0.632198
vt 0.658004 0.404214
vt 0.582022 0.400441
vt 0.584852 0.329914
vt 0.663521 0.335440
vt 0.506037 0.400476
vt 0.579957 0.461795
vt 0.619323 0.116093
vt 0.616655 0.055096
vt 0.610588 0.178508
vt 0.400531 0.260674
vt 0.347846 0.213948
vt 0.399893 0.209972
vt 0.378371 0.166721
vt 0.430240 0.168127
vt 0.452913 0.215950
vt 0.109602 0.084620
vt 0.169784 0.083055
vt 0.169235 0.176872
vt 0.106830 0.178456
vt 0.052443 0.097542
vt 0.034094 0.155355
vt 0.162798 0.259264
vt 0.108972 0.262229
vt 0.037694 0.205089
vt 0.111541 0.341375
vt 0.148543 0.343258
vt 0.131908 0.382415
vt 0.109808 0.391255
vt 0.085159 0.344809
vt 0.282372 0.113571
vt 0.281442 0.189729
vt 0.214980 0.179822
vt 0.233842 0.096086
vt 0.314686 0.118892
vt 0.336673 0.180105
vt 0.262397 0.281480
vt 0.202085 0.265747
vt 0.326018 0.231598
vt 0.230713 0.351473
vt 0.211955 0.389089
vt 0.195907 0.381030
vt 0.195656 0.340765
vt 0.252957 0.367938
vt 0.207671 0.427262
vt 0.034663 0.100679
vt 0.019378 0.158891
vt 0.181452 0.178714
vt 0.192783 0.083517
vt 0.022646 0.208064
vt 0.174272 0.258717
vt 0.054106 0.266293
vt 0.071045 0.348166
vt 0.037947 0.269574
vt 0.139742 0.399356
vt 0.105280 0.413763
vt 0.202447 0.039575
vt 0.167497 0.023618
vt 0.268702 0.056141
vt 0.166530 0.349206
vt 0.909958 0.438583
vt 0.974283 0.457626
vt 0.904236 0.453326
vt 0.421697 0.728844
vt 0.297807 0.292170
vt 0.050210 0.042170
vt 0.108696 0.045435
vt 0.507094 0.333147
vt 0.027889 0.922985
vt 0.008736 0.834409
vt 0.113621 0.893980
vt 0.038859 0.967058
vt 0.101144 0.950724
vt 0.096047 0.821660
vt 0.201915 0.821376
vt 0.217598 0.884619
vt 0.172466 0.961486
vt 0.299153 0.877570
vt 0.302071 0.825767
vt 0.367275 0.862706
vt 0.367446 0.882202
vt 0.314618 0.917900
vt 0.023240 0.719081
vt 0.128229 0.693057
vt 0.106239 0.751883
vt 0.103553 0.654441
vt 0.033989 0.645593
vt 0.228769 0.700282
vt 0.210691 0.764199
vt 0.176891 0.637995
vt 0.310711 0.708935
vt 0.365878 0.734283
vt 0.368214 0.752273
vt 0.303303 0.771674
vt 0.320199 0.682059
vt 0.394983 0.725789
vt 0.053370 0.982644
vt 0.106329 0.971628
vt 0.095550 0.803743
vt 0.019480 0.789067
vt 0.179701 0.980832
vt 0.200679 0.802482
vt 0.241106 0.948917
vt 0.323619 0.935148
vt 0.248856 0.967580
vt 0.388445 0.852130
vt 0.392461 0.886840
vt 0.309196 0.801399
vt 0.246685 0.649261
vt 0.952667 0.307752
vt 0.833563 0.250679
vt 0.725936 0.207427
vt 0.494503 0.595983
vt 0.663099 0.926312
vt 0.642317 0.876711
vt 0.724512 0.862428
vt 0.726806 0.920194
vt 0.617531 0.821729
vt 0.562556 0.683678
vt 0.145632 0.613928
vt 0.078120 0.630121
vt 0.078391 0.532336
vt 0.146130 0.529202
vt 0.656635 0.464455
vt 0.974283 0.505322
vt 0.178906 0.404977
vt 0.382291 0.359314
vt 0.358458 0.291308
vt 0.429783 0.262506
vt 0.444482 0.344361
vt 0.451065 0.392154
vt 0.388822 0.410257
vt 0.307620 0.387261
vt 0.292313 0.336624
vt 0.390195 0.765826
vt 0.580947 0.234015
vt 0.502018 0.243748
vt 0.673304 0.238192
vt 0.762219 0.257467
vt 0.840445 0.285430
vt 0.821963 0.356586
vt 0.974283 0.564825
vt 0.974283 0.613082
vt 0.974283 0.398293
vt 0.870878 0.419186
vt 0.882754 0.374045
vt 0.903708 0.309972
vt 0.974283 0.343565
vt 0.731203 0.985524
vt 0.669566 0.984444
vt 0.623877 0.845606
vt 0.092757 0.522925
vt 0.080014 0.433528
vt 0.018028 0.628687
vt 0.008336 0.539011
vt 0.587276 0.984116
vt 0.290375 0.525950
vt 0.244618 0.523166
vt 0.423021 0.868713
vt 0.422505 0.778831
vt 0.556209 0.830881
vt 0.423021 0.868713
vt 0.422505 0.778831
vt 0.556209 0.830881
vt 0.423021 0.868713
vt 0.422204 0.779575
vt 0.556209 0.830881
vt 0.423021 0.868713
vt 0.422505 0.778831
vt 0.556209 0.830881
vt 0.423021 0.868713
vt 0.422505 0.778831
vt 0.556209 0.830881
vt 0.423021 0.868713
vt 0.422505 0.778831
vt 0.556209 0.830881
vt 0.423021 0.868713
vt 0.422505 0.778831
vt 0.556209 0.830881
vt 0.423021 0.868713
vt 0.422505 0.778831
vt 0.556209 0.830881
vt 0.423021 0.868713
vt 0.422505 0.778831
vt 0.556209 0.830881
vt 0.423021 0.868713
vt 0.422505 0.778831
vt 0.556209 0.830881
vt 0.423021 0.868713
vt 0.422505 0.778831
vt 0.556209 0.830881
vt 0.423021 0.868713
vt 0.422505 0.778831
vt 0.556209 0.830881
vt 0.423021 0.868713
vt 0.422505 0.778831
vt 0.556209 0.830881
vt 0.423021 0.868713
vt 0.422505 0.778831
vt 0.556209 0.830881
vt 0.423021 0.868713
vt 0.422505 0.778831
vt 0.556209 0.830881
vt 0.423021 0.868713
vt 0.422505 0.778831
vt 0.556209 0.830881
vt 0.423021 0.868713
vt 0.422505 0.778831
vt 0.556209 0.830881
vt 0.423021 0.868713
vt 0.422505 0.778831
vt 0.556209 0.830881
vt 0.423021 0.868713
vt 0.422505 0.778831
vt 0.556209 0.830881
vt 0.423021 0.868713
vt 0.422505 0.778831
vt 0.556209 0.830881
vt 0.422505 0.778831
vt 0.556209 0.830881
vt 0.423121 0.868419
vt 0.423021 0.868713
vt 0.422505 0.778831
vt 0.556209 0.830881
vt 0.423021 0.868713
vt 0.422505 0.778831
vt 0.556209 0.830881
vt 0.423021 0.868713
vt 0.422505 0.778831
vt 0.556209 0.830881
vt 0.423021 0.868713
vt 0.422505 0.778831
vt 0.556209 0.830881
vt 0.423021 0.868713
vt 0.422505 0.778831
vt 0.556209 0.830881
vt 0.291711 0.535615
vt 0.245317 0.577131
vt 0.252449 0.531528
vt 0.368294 0.683162
vt 0.383587 0.673515
vt 0.535810 0.115265
vt 0.534899 0.062936
vt 0.448071 0.156061
vt 0.530095 0.163354
vt 0.654031 0.672967
vt 0.567119 0.669387
vt 0.991128 0.982672
vt 0.816454 0.977484
vt 0.009639 0.526462
vt 0.017623 0.439933
vt 0.201975 0.593717
vt 0.204257 0.529177
vt 0.378608 0.133954
vt 0.484514 0.657612
vt 0.019229 0.047922
vt 0.326092 0.079354
vt 0.473616 0.927675
vt 0.419638 0.943619
vt 0.461456 0.888851
vt 0.406754 0.919369
vt 0.586840 0.937673
vt 0.580444 0.919874
vt 0.555379 0.924627
vt 0.564811 0.891682
vt 0.592329 0.884111
vt 0.606125 0.912143
vt 0.816181 0.773357
vt 0.730341 0.770869
vt 0.814164 0.837953
vt 0.538214 0.786742
vt 0.554988 0.736569
vt 0.486097 0.716280
vt 0.471513 0.755709
vt 0.431457 0.704465
vt 0.739616 0.710081
vt 0.634620 0.754365
vt 0.719099 0.825693
vt 0.522301 0.914566
vt 0.152445 0.435876
vt 0.212045 0.447142
vt 0.534686 0.861435
vt 0.733518 0.537061
vt 0.808818 0.529739
vt 0.809767 0.460615
vt 0.734505 0.465017
vt 0.734689 0.596663
vt 0.809722 0.586205
vt 0.741506 0.123170
vt 0.856523 0.125818
vt 0.851177 0.064146
vt 0.737895 0.062218
vt 0.734450 0.187288
vt 0.845942 0.206474
vt 0.982393 0.173451
vt 0.982548 0.113456
vt 0.977340 0.057685
vt 0.971623 0.238292
vt 0.501190 0.533573
vt 0.503388 0.456743
vt 0.445494 0.457326
vt 0.435632 0.529322
vt 0.572182 0.604195
vt 0.654435 0.604038
vt 0.655447 0.539791
vt 0.576921 0.535708
vt 0.810106 0.427478
vt 0.744597 0.347519
vt 0.735976 0.412309
vt 0.381797 0.449216
vt 0.374820 0.525350
vt 0.365513 0.587212
vt 0.427206 0.589900
vt 0.307646 0.450601
vt 0.307646 0.524538
vt 0.307646 0.599614
vt 0.991213 0.833741
vt 0.814911 0.906224
vt 0.991213 0.907278
vt 0.991213 0.702815
vt 0.816215 0.718981
vt 0.991213 0.768746
vt 0.252312 0.475246
vt 0.454406 0.114454
vt 0.392315 0.114562
vt 0.875049 0.520682
vt 0.873987 0.462666
vt 0.878091 0.577282
vt 0.658004 0.404214
vt 0.663521 0.335440
vt 0.584852 0.329914
vt 0.582022 0.400441
vt 0.579957 0.461795
vt 0.506037 0.400476
vt 0.619323 0.116093
vt 0.400531 0.260674
vt 0.399893 0.209972
vt 0.347846 0.213948
vt 0.378371 0.166721
vt 0.430240 0.168127
vt 0.452913 0.215950
vt 0.109602 0.084620
vt 0.106830 0.178456
vt 0.169235 0.176872
vt 0.169784 0.083055
vt 0.052443 0.097542
vt 0.034094 0.155355
vt 0.108972 0.262229
vt 0.162798 0.259264
vt 0.037694 0.205089
vt 0.111541 0.341375
vt 0.109808 0.391255
vt 0.131908 0.382415
vt 0.148543 0.343258
vt 0.085159 0.344809
vt 0.282372 0.113571
vt 0.233842 0.096086
vt 0.214980 0.179822
vt 0.281442 0.189729
vt 0.314686 0.118892
vt 0.336673 0.180105
vt 0.262397 0.281480
vt 0.202085 0.265747
vt 0.326018 0.231598
vt 0.230713 0.351473
vt 0.195656 0.340765
vt 0.195907 0.381030
vt 0.211955 0.389089
vt 0.252957 0.367938
vt 0.207671 0.427262
vt 0.034663 0.100679
vt 0.019378 0.158891
vt 0.181452 0.178714
vt 0.192783 0.083517
vt 0.022646 0.208064
vt 0.174272 0.258717
vt 0.054106 0.266293
vt 0.037947 0.269574
vt 0.071045 0.348166
vt 0.105280 0.413763
vt 0.139742 0.399356
vt 0.202447 0.039575
vt 0.167497 0.023618
vt 0.268702 0.056141
vt 0.166530 0.349206
vt 0.909958 0.438583
vt 0.904236 0.453326
vt 0.974283 0.457626
vt 0.421697 0.728844
vt 0.297807 0.292170
vt 0.050210 0.042170
vt 0.108696 0.045435
vt 0.507094 0.333147
vt 0.027889 0.922985
vt 0.113621 0.893980
vt 0.008736 0.834409
vt 0.038859 0.967058
vt 0.101144 0.950724
vt 0.217598 0.884619
vt 0.201915 0.821376
vt 0.096047 0.821660
vt 0.172466 0.961486
vt 0.299153 0.877570
vt 0.367446 0.882202
vt 0.367275 0.862706
vt 0.302071 0.825767
vt 0.314618 0.917900
vt 0.023240 0.719081
vt 0.106239 0.751883
vt 0.128229 0.693057
vt 0.103553 0.654441
vt 0.033989 0.645593
vt 0.228769 0.700282
vt 0.210691 0.764199
vt 0.176891 0.637995
vt 0.310711 0.708935
vt 0.303303 0.771674
vt 0.368214 0.752273
vt 0.365878 0.734283
vt 0.320199 0.682059
vt 0.394983 0.725789
vt 0.053370 0.982644
vt 0.106329 0.971628
vt 0.095550 0.803743
vt 0.019480 0.789067
vt 0.179701 0.980832
vt 0.200679 0.802482
vt 0.241106 0.948917
vt 0.248856 0.967580
vt 0.323619 0.935148
vt 0.392461 0.886840
vt 0.388445 0.852130
vt 0.309196 0.801399
vt 0.246685 0.649261
vt 0.494503 0.595983
vt 0.663099 0.926312
vt 0.726762 0.920162
vt 0.724639 0.862587
vt 0.642317 0.876711
vt 0.617531 0.821729
vt 0.145632 0.613928
vt 0.078120 0.630121
vt 0.656635 0.464455
vt 0.974283 0.505322
vt 0.178906 0.404977
vt 0.382291 0.359314
vt 0.444482 0.344361
vt 0.451065 0.392154
vt 0.388822 0.410257
vt 0.307646 0.387363
vt 0.292322 0.337195
vt 0.390195 0.765826
vt 0.821963 0.356586
vt 0.974283 0.564825
vt 0.870878 0.419186
vt 0.974283 0.398293
vt 0.882754 0.374045
vt 0.623877 0.845606
vt 0.080014 0.433528
vt 0.018100 0.629291
vt 0.008284 0.538274
vt 0.423021 0.868713
vt 0.556209 0.830881
vt 0.422505 0.778831
vt 0.423021 0.868713
vt 0.556209 0.830881
vt 0.422505 0.778831
vt 0.423021 0.868713
vt 0.556209 0.830881
vt 0.422204 0.779575
vt 0.423021 0.868713
vt 0.556209 0.830881
vt 0.422505 0.778831
vt 0.423021 0.868713
vt 0.556209 0.830881
vt 0.422505 0.778831
vt 0.423021 0.868713
vt 0.556209 0.830881
vt 0.422505 0.778831
vt 0.423021 0.868713
vt 0.556209 0.830881
vt 0.422505 0.778831
vt 0.423021 0.868713
vt 0.556209 0.830881
vt 0.422505 0.778831
vt 0.423021 0.868713
vt 0.556209 0.830881
vt 0.422505 0.778831
vt 0.423021 0.868713
vt 0.556209 0.830881
vt 0.422505 0.778831
vt 0.423021 0.868713
vt 0.556209 0.830881
vt 0.422505 0.778831
vt 0.423021 0.868713
vt 0.556209 0.830881
vt 0.422505 0.778831
vt 0.423021 0.868713
vt 0.556209 0.830881
vt 0.422505 0.778831
vt 0.423021 0.868713
vt 0.556209 0.830881
vt 0.422505 0.778831
vt 0.423021 0.868713
vt 0.556209 0.830881
vt 0.422505 0.778831
vt 0.423021 0.868713
vt 0.556209 0.830881
vt 0.422505 0.778831
vt 0.423021 0.868713
vt 0.556209 0.830881
vt 0.422505 0.778831
vt 0.423021 0.868713
vt 0.556209 0.830881
vt 0.422505 0.778831
vt 0.423021 0.868713
vt 0.556209 0.830881
vt 0.422505 0.778831
vt 0.423021 0.868713
vt 0.556209 0.830881
vt 0.422505 0.778831
vt 0.422505 0.778831
vt 0.556209 0.830881
vt 0.423021 0.868713
vt 0.556209 0.830881
vt 0.422505 0.778831
vt 0.423021 0.868713
vt 0.556209 0.830881
vt 0.422505 0.778831
vt 0.423021 0.868713
vt 0.556209 0.830881
vt 0.422505 0.778831
vt 0.423021 0.868713
vt 0.556209 0.830881
vt 0.422505 0.778831
vt 0.423021 0.868713
vt 0.556209 0.830881
vt 0.422505 0.778831
vt 0.245317 0.577131
vt 0.535810 0.115265
vt 0.991213 0.983258
vt 0.816353 0.977827
vt 0.009637 0.526595
vt 0.017633 0.439801
vt 0.201975 0.593717
vt 0.019229 0.047922
vt 0.326092 0.079354
vn -0.00000 0.97363 -0.22814
vn 0.00000 0.96311 -0.26912
vn 0.54623 0.76441 -0.34251
vn 0.66766 0.70724 -0.23247
vn 0.76911 -0.42992 -0.47290
vn 0.90793 -0.28635 -0.30603
vn 0.73659 0.64483 -0.20406
vn 0.64749 0.74500 -0.16041
vn 0.79257 0.60817 -0.04427
vn 0.76582 0.63325 -0.11191
vn 0.74484 0.64022 -0.18795
vn 0.76436 0.60622 -0.21965
vn 0.64937 -0.75735 -0.06881
vn 0.98779 -0.12352 0.09496
vn 0.63644 -0.76314 0.11213
vn 0.74054 0.58538 -0.33005
vn 0.73224 0.61897 -0.28409
vn 0.51506 -0.82938 -0.21643
vn 0.61394 -0.77581 -0.14558
vn 0.00000 -0.97390 -0.22697
vn 0.00000 -0.97784 -0.20934
vn 0.65482 -0.65511 -0.37690
vn 0.70475 -0.70896 -0.02653
vn -0.00000 -0.99962 -0.02760
vn -0.00000 -0.99766 0.06841
vn 0.99957 -0.01584 0.02482
vn -0.00000 0.93470 -0.35543
vn -0.00000 0.96548 -0.26047
vn 0.72770 0.66029 -0.18568
vn 0.91150 -0.35107 -0.21427
vn 0.90793 -0.28635 -0.30603
vn 0.00000 -0.99948 0.03228
vn -0.00000 0.75035 -0.66104
vn 0.91150 -0.35107 -0.21427
vn -0.00000 -0.77257 -0.63493
vn 0.87138 0.46820 0.14657
vn 0.97063 0.18315 0.15597
vn 0.80050 0.58576 -0.12683
vn 0.84343 0.49983 0.19695
vn 0.50646 0.84410 0.17606
vn 0.56582 0.81481 0.12624
vn -0.00000 0.98223 0.18769
vn -0.00000 0.99352 0.11368
vn 0.98355 -0.04158 0.17580
vn 0.50265 0.84979 0.15876
vn 0.61976 0.76159 0.18941
vn 0.97983 -0.05440 0.19230
vn -0.00000 0.99026 0.13923
vn -0.00000 0.98521 0.17136
vn 0.57593 -0.80392 0.14841
vn 0.58582 -0.78461 0.20300
vn 0.95954 -0.10976 0.25929
vn 0.90165 0.39157 0.18359
vn 0.64677 0.73075 0.21839
vn -0.00000 0.97554 0.21982
vn 0.51669 -0.80791 0.28340
vn 0.83372 0.54078 -0.11168
vn 0.74283 0.64359 -0.18438
vn 0.73097 0.64821 -0.21332
vn 0.84748 0.45635 0.27114
vn 0.55565 0.83091 -0.02911
vn 0.84206 0.53784 -0.04087
vn 0.77750 0.62794 0.03447
vn 0.49550 0.86776 0.03833
vn 0.75830 -0.64582 -0.08889
vn 0.94792 -0.25002 0.19731
vn 0.51175 -0.83755 0.19137
vn 0.82243 0.51791 -0.23532
vn 0.73157 0.45421 -0.50843
vn 0.52336 0.84080 -0.13839
vn 0.54516 0.82077 -0.17067
vn 0.00000 0.98992 -0.14160
vn 0.00000 0.98665 -0.16287
vn 0.81231 0.56104 -0.15932
vn 0.97415 -0.03163 -0.22366
vn 0.00000 0.99113 -0.13288
vn 0.78397 0.61945 0.04097
vn 0.97415 -0.03163 -0.22366
vn 0.81231 0.56104 -0.15932
vn -0.00000 -0.99859 -0.05304
vn -0.00000 -0.97530 -0.22089
vn 0.57276 -0.75737 -0.31359
vn 0.76911 -0.42992 -0.47290
vn 0.93655 0.33607 0.09967
vn 0.80451 -0.25822 0.53487
vn 0.00000 0.95629 0.29243
vn 0.00000 0.99510 0.09886
vn 0.00000 0.05662 0.99840
vn 0.67113 0.68760 0.27709
vn 0.87910 0.41314 0.23771
vn 0.55932 0.80094 0.21368
vn 0.00000 0.97830 0.20721
vn 0.90173 -0.42439 0.08236
vn 0.97432 -0.20468 -0.09387
vn 0.54960 -0.83162 -0.07969
vn 0.43000 -0.90087 0.05944
vn 0.70089 -0.70802 0.08639
vn 0.96561 0.24275 -0.09317
vn 0.98126 0.12447 0.14712
vn 0.00000 0.98515 0.17170
vn -0.00000 -0.98461 0.17475
vn 0.61335 0.78795 -0.05416
vn 0.68395 0.63747 -0.35476
vn 0.76285 0.64044 -0.08885
vn 0.84894 0.44747 -0.28120
vn 0.85018 0.52447 0.04623
vn 0.68597 0.69530 0.21448
vn 0.22322 0.96403 -0.14427
vn 0.08485 0.69851 -0.71055
vn 0.08093 0.85684 -0.50919
vn 0.06051 0.99783 0.02589
vn 0.16991 0.76818 0.61727
vn -0.19181 0.75514 0.62687
vn 0.13880 0.87644 -0.46108
vn 0.07841 0.99644 -0.03080
vn 0.06090 0.79935 0.59777
vn 0.10036 0.99206 0.07578
vn 0.21388 0.82459 -0.52374
vn 0.28007 0.88505 -0.37182
vn 0.28646 0.93891 0.19077
vn 0.08679 0.87233 0.48115
vn 0.08980 -0.99364 0.06797
vn -0.05848 -0.98779 0.14441
vn -0.01750 -0.99235 -0.12223
vn 0.01246 -0.98740 -0.15775
vn 0.02942 -0.37393 0.92699
vn -0.19894 -0.06046 0.97814
vn 0.01054 -0.99376 0.11106
vn 0.06485 -0.97875 -0.19451
vn 0.02245 -0.58976 0.80726
vn 0.04876 -0.98212 0.18183
vn 0.17809 -0.97102 0.15940
vn 0.14697 -0.97913 -0.14034
vn 0.07508 -0.98881 -0.12895
vn 0.21190 0.05843 0.97554
vn 0.79274 -0.23264 0.56342
vn 0.02942 -0.37393 0.92699
vn -0.19894 -0.06046 0.97814
vn 0.01260 -0.21795 -0.97588
vn -0.02075 -0.27706 -0.96063
vn 0.02245 -0.58976 0.80726
vn 0.28382 0.03005 -0.95841
vn 0.10455 0.83006 0.54778
vn 0.21190 0.05843 0.97554
vn 0.15553 -0.32387 0.93323
vn 0.73234 0.05262 -0.67890
vn 0.79274 -0.23264 0.56342
vn 0.59394 -0.52772 -0.60724
vn 0.73157 0.45421 -0.50843
vn 0.47933 -0.86011 -0.17453
vn 0.32117 -0.62390 -0.71246
vn 0.52551 -0.18604 0.83020
vn 0.95954 -0.10976 0.25929
vn 0.63304 0.66843 0.39046
vn 0.26966 0.94033 -0.20749
vn 0.15553 -0.32387 0.93323
vn 0.84748 0.45635 0.27114
vn 0.73097 0.64821 -0.21332
vn 0.48835 -0.85520 -0.17362
vn 0.67113 0.68760 0.27709
vn 0.80050 0.58576 -0.12683
vn 0.01590 0.99818 0.05820
vn 0.63304 0.66843 0.39046
vn -0.24395 0.77817 0.57873
vn 0.26885 0.81830 -0.50803
vn 0.21926 0.89858 -0.38011
vn 0.03018 0.99954 -0.00122
vn -0.29369 0.78418 0.54663
vn 0.06487 0.99599 0.06167
vn 0.40685 0.82533 -0.39155
vn 0.45751 0.88828 -0.04047
vn 0.31155 0.82125 0.47800
vn 0.00138 0.81044 0.58582
vn 0.31791 -0.93744 0.14190
vn 0.00446 -0.99621 0.08683
vn 0.04810 -0.99818 -0.03628
vn -0.42939 -0.41348 0.80290
vn 0.52551 -0.18604 0.83020
vn -0.00866 -0.99874 0.04944
vn 0.04505 -0.99643 -0.07135
vn -0.33090 -0.71500 0.61586
vn 0.00832 -0.99793 0.06374
vn 0.04661 -0.99595 0.07682
vn 0.11054 -0.99342 -0.03004
vn 0.09782 -0.99259 -0.07213
vn 0.00301 -0.23645 0.97164
vn 0.50288 -0.45740 0.73341
vn 0.52551 -0.18604 0.83020
vn -0.42939 -0.41348 0.80290
vn 0.30719 -0.47353 -0.82547
vn 0.75830 -0.64582 -0.08889
vn -0.33090 -0.71500 0.61586
vn 0.49469 -0.13324 -0.85880
vn -0.07950 0.82651 0.55728
vn 0.00301 -0.23645 0.97164
vn -0.17895 -0.44522 0.87736
vn 0.92028 -0.36662 -0.13664
vn 0.50288 -0.45740 0.73341
vn 0.53757 -0.66503 -0.51841
vn -0.17895 -0.44522 0.87736
vn -0.00000 -0.97860 0.20575
vn 0.00000 -0.98972 0.14301
vn 0.00000 -0.99243 0.12284
vn 0.54582 0.83271 -0.09311
vn 0.62985 0.76321 -0.14422
vn 0.84987 0.51228 -0.12364
vn 0.91955 0.38066 0.09761
vn 0.70839 0.70300 0.06307
vn 0.97281 0.20306 -0.11141
vn 0.00000 -0.98428 -0.17661
vn 0.74054 0.58538 -0.33005
vn 0.97281 0.20306 -0.11141
vn -0.00000 0.99528 -0.09706
vn 0.00000 0.99994 -0.01095
vn 0.96792 0.24803 0.04013
vn 0.90165 0.39157 0.18359
vn 0.73234 0.05262 -0.67890
vn 0.46178 -0.83933 -0.28684
vn 0.00000 -0.95949 -0.28175
vn -0.00000 -0.96838 -0.24949
vn 0.45251 -0.86091 -0.23252
vn 0.47933 -0.86011 -0.17453
vn 0.59394 -0.52772 -0.60724
vn 0.57276 -0.75737 -0.31359
vn -0.00000 -0.97530 -0.22089
vn 0.92028 -0.36662 -0.13664
vn -0.00000 -0.99705 -0.07680
vn -0.00000 -0.98609 -0.16622
vn -0.00000 -0.99610 0.08822
vn -0.00000 -0.98208 0.18844
vn -0.00000 -0.97726 0.21202
vn 0.46359 -0.86456 0.19393
vn 0.64677 0.73075 0.21839
vn -0.00000 0.97554 0.21982
vn 0.51669 -0.80791 0.28340
vn 0.31791 -0.93744 0.14190
vn 0.37744 -0.90062 0.21544
vn 0.00000 -0.97794 0.20891
vn -0.00000 -0.97860 0.20575
vn -0.00000 1.00000 0.00247
vn 0.00000 0.98044 -0.19681
vn 0.75236 -0.58156 -0.30943
vn 0.00000 -0.99655 -0.08296
vn 0.75236 -0.58156 -0.30943
vn 0.99957 -0.01584 0.02482
vn 0.00000 -0.69781 -0.71629
vn 0.00000 0.98074 -0.19531
vn -0.00000 -0.77257 -0.63493
vn -0.00000 -0.99620 0.08706
vn 0.83126 -0.09928 -0.54694
vn 0.81834 -0.04989 -0.57256
vn 0.83126 -0.09928 -0.54694
vn 0.81834 -0.04989 -0.57256
vn 0.80275 -0.00033 -0.59631
vn 0.80275 -0.00033 -0.59631
vn 0.77407 0.01838 -0.63283
vn 0.77407 0.01838 -0.63283
vn 0.77407 0.01838 -0.63283
vn 0.94892 -0.06868 -0.30794
vn 0.94892 -0.06868 -0.30794
vn 0.94892 -0.06868 -0.30794
vn 0.94479 0.00767 -0.32758
vn 0.92144 -0.05453 -0.38467
vn 0.92144 -0.05453 -0.38467
vn 0.96089 0.06982 -0.26797
vn 0.94479 0.00767 -0.32758
vn 0.96089 0.06982 -0.26797
vn 0.95790 -0.02944 -0.28559
vn 0.95790 -0.02944 -0.28559
vn 0.95790 -0.02944 -0.28559
vn 0.95383 -0.03320 -0.29851
vn 0.95383 -0.03320 -0.29851
vn 0.95383 -0.03320 -0.29851
vn 0.94651 -0.11641 -0.30095
vn 0.94691 -0.08427 -0.31025
vn 0.94691 -0.08427 -0.31025
vn 0.97877 -0.07332 -0.19142
vn 0.94651 -0.11641 -0.30095
vn 0.94505 -0.14841 -0.29130
vn 0.94062 -0.08800 -0.32785
vn 0.89772 -0.03211 -0.43938
vn 0.89772 -0.03211 -0.43938
vn 0.96691 0.04848 -0.25046
vn 0.96691 0.04848 -0.25046
vn 0.96691 0.04848 -0.25046
vn 0.95311 0.26614 -0.14404
vn 0.95311 0.26614 -0.14404
vn 0.95311 0.26614 -0.14404
vn 0.95934 -0.18587 -0.21241
vn 0.94062 -0.08800 -0.32785
vn 0.96715 -0.14236 -0.21061
vn 0.94068 -0.20516 -0.27025
vn 0.95934 -0.18587 -0.21241
vn 0.94965 -0.22902 -0.21380
vn 0.92810 -0.18051 -0.32566
vn 0.94068 -0.20516 -0.27025
vn 0.92810 -0.18051 -0.32566
vn 0.83931 0.04410 -0.54186
vn 0.90573 0.08789 -0.41463
vn 0.90573 0.08789 -0.41463
vn 0.74628 -0.03247 -0.66483
vn 0.83931 0.04410 -0.54186
vn 0.75399 -0.00069 -0.65689
vn 0.77588 -0.08687 -0.62487
vn 0.74628 -0.03247 -0.66483
vn 0.73774 -0.06422 -0.67202
vn 0.99609 0.00299 -0.08833
vn 0.97877 -0.07332 -0.19142
vn 0.99609 0.00299 -0.08833
vn 0.77588 -0.08687 -0.62487
vn 0.81077 -0.10916 -0.57510
vn 0.00000 -0.18648 -0.98246
vn 0.99187 0.02584 -0.12463
vn 0.99187 0.02584 -0.12463
vn 0.99187 0.02584 -0.12463
vn 0.99185 0.01963 -0.12590
vn 0.99185 0.01963 -0.12590
vn 0.99185 0.01963 -0.12590
vn 0.98662 0.09998 -0.12877
vn 0.98662 0.09998 -0.12877
vn 0.98662 0.09998 -0.12877
vn 0.98419 0.08094 -0.15755
vn 0.98419 0.08094 -0.15755
vn 0.98419 0.08094 -0.15755
vn 0.94107 0.16780 -0.29367
vn 0.94107 0.16780 -0.29367
vn 0.94107 0.16780 -0.29367
vn 0.00000 0.32350 -0.94623
vn 0.26966 0.94033 -0.20749
vn -0.00000 0.98181 0.18985
vn 0.00000 0.32350 -0.94623
vn 0.00000 -0.81636 -0.57755
vn 0.99397 0.00670 0.10945
vn 0.00000 0.99452 0.10454
vn -0.00000 -0.99667 0.08154
vn -0.00000 -0.99512 0.09869
vn -0.00000 0.99925 0.03878
vn -0.00000 0.99974 -0.02283
vn 0.00000 0.99113 -0.13288
vn 0.00000 0.99941 0.03445
vn 0.00000 -0.69781 -0.71629
vn 0.99957 -0.01584 0.02482
vn 0.73224 0.61897 -0.28409
vn -0.00000 0.99769 0.06793
vn -0.00000 -0.89167 0.45268
vn -0.00000 0.99609 -0.08837
vn 0.70089 -0.70802 0.08639
vn 0.70089 -0.70802 0.08639
vn -0.66766 0.70724 -0.23247
vn -0.54623 0.76441 -0.34251
vn -0.90793 -0.28635 -0.30603
vn -0.76911 -0.42992 -0.47290
vn -0.73659 0.64483 -0.20406
vn -0.79257 0.60817 -0.04427
vn -0.64749 0.74500 -0.16041
vn -0.76582 0.63325 -0.11191
vn -0.74484 0.64022 -0.18795
vn -0.76436 0.60622 -0.21965
vn -0.64937 -0.75735 -0.06881
vn -0.63644 -0.76314 0.11213
vn -0.98779 -0.12352 0.09496
vn -0.74054 0.58538 -0.33005
vn -0.61394 -0.77581 -0.14558
vn -0.51506 -0.82938 -0.21643
vn -0.73224 0.61897 -0.28409
vn -0.65482 -0.65511 -0.37690
vn -0.00000 -0.99766 0.06841
vn -0.70475 -0.70896 -0.02653
vn -0.99957 -0.01584 0.02482
vn -0.72770 0.66029 -0.18568
vn -0.91150 -0.35107 -0.21427
vn -0.90793 -0.28635 -0.30603
vn -0.91150 -0.35107 -0.21427
vn -0.87138 0.46820 0.14657
vn -0.84343 0.49983 0.19695
vn -0.80050 0.58576 -0.12683
vn -0.97063 0.18315 0.15597
vn -0.56582 0.81481 0.12624
vn -0.50646 0.84410 0.17606
vn -0.98355 -0.04158 0.17580
vn -0.97983 -0.05440 0.19230
vn -0.61976 0.76159 0.18941
vn -0.50265 0.84979 0.15876
vn -0.57593 -0.80392 0.14841
vn -0.58582 -0.78461 0.20300
vn -0.95954 -0.10976 0.25929
vn -0.90165 0.39157 0.18359
vn -0.64677 0.73075 0.21839
vn -0.51669 -0.80791 0.28340
vn -0.83372 0.54078 -0.11168
vn -0.84748 0.45635 0.27114
vn -0.73097 0.64821 -0.21332
vn -0.74283 0.64359 -0.18438
vn -0.55565 0.83091 -0.02911
vn -0.49550 0.86776 0.03833
vn -0.77750 0.62794 0.03447
vn -0.84206 0.53784 -0.04087
vn -0.75830 -0.64582 -0.08889
vn -0.51175 -0.83755 0.19137
vn -0.94793 -0.25002 0.19731
vn -0.73157 0.45421 -0.50843
vn -0.82243 0.51791 -0.23532
vn -0.54516 0.82077 -0.17067
vn -0.52336 0.84080 -0.13839
vn -0.97415 -0.03163 -0.22366
vn -0.81231 0.56104 -0.15932
vn 0.00000 0.99113 -0.13288
vn -0.97415 -0.03163 -0.22366
vn -0.78397 0.61945 0.04097
vn -0.81231 0.56104 -0.15932
vn -0.00000 -0.97530 -0.22089
vn -0.00000 -0.99859 -0.05304
vn -0.57276 -0.75737 -0.31359
vn -0.76911 -0.42992 -0.47290
vn -0.93655 0.33607 0.09967
vn -0.80451 -0.25822 0.53487
vn -0.87910 0.41314 0.23771
vn -0.67113 0.68760 0.27709
vn -0.55932 0.80094 0.21368
vn -0.90173 -0.42439 0.08236
vn -0.43000 -0.90087 0.05944
vn -0.54960 -0.83162 -0.07969
vn -0.97432 -0.20468 -0.09387
vn -0.96561 0.24275 -0.09317
vn -0.70089 -0.70802 0.08639
vn -0.98126 0.12447 0.14712
vn -0.61335 0.78795 -0.05416
vn -0.76285 0.64044 -0.08885
vn -0.68395 0.63747 -0.35476
vn -0.84894 0.44747 -0.28120
vn -0.85018 0.52447 0.04623
vn -0.68597 0.69530 0.21448
vn -0.22322 0.96403 -0.14427
vn -0.06051 0.99783 0.02589
vn -0.08093 0.85684 -0.50919
vn -0.08485 0.69851 -0.71055
vn -0.16991 0.76818 0.61727
vn 0.19181 0.75515 0.62687
vn -0.07841 0.99644 -0.03080
vn -0.13880 0.87644 -0.46108
vn -0.06090 0.79935 0.59777
vn -0.10036 0.99206 0.07578
vn -0.28646 0.93891 0.19077
vn -0.28007 0.88505 -0.37182
vn -0.21388 0.82459 -0.52374
vn -0.08679 0.87233 0.48115
vn -0.08980 -0.99364 0.06797
vn -0.01246 -0.98740 -0.15775
vn 0.01750 -0.99235 -0.12223
vn 0.05848 -0.98779 0.14441
vn -0.02942 -0.37393 0.92699
vn 0.19894 -0.06046 0.97814
vn -0.01054 -0.99376 0.11106
vn -0.06485 -0.97875 -0.19451
vn -0.02245 -0.58976 0.80726
vn -0.04876 -0.98212 0.18183
vn -0.07508 -0.98881 -0.12895
vn -0.14697 -0.97913 -0.14034
vn -0.17809 -0.97102 0.15940
vn -0.21191 0.05842 0.97554
vn -0.79274 -0.23264 0.56342
vn -0.02942 -0.37393 0.92699
vn 0.19894 -0.06046 0.97814
vn -0.01260 -0.21795 -0.97588
vn 0.02075 -0.27706 -0.96063
vn -0.02245 -0.58976 0.80726
vn -0.28382 0.03005 -0.95841
vn -0.10455 0.83006 0.54778
vn -0.15553 -0.32388 0.93323
vn -0.21191 0.05842 0.97554
vn -0.79274 -0.23264 0.56342
vn -0.73234 0.05262 -0.67890
vn -0.59394 -0.52772 -0.60724
vn -0.73157 0.45421 -0.50843
vn -0.47933 -0.86011 -0.17453
vn -0.32117 -0.62390 -0.71246
vn -0.52551 -0.18604 0.83020
vn -0.63304 0.66843 0.39046
vn -0.95954 -0.10976 0.25929
vn -0.26966 0.94033 -0.20749
vn -0.15553 -0.32388 0.93323
vn -0.84748 0.45635 0.27114
vn -0.73097 0.64821 -0.21332
vn -0.48835 -0.85520 -0.17362
vn -0.67113 0.68760 0.27709
vn -0.01590 0.99818 0.05820
vn -0.80050 0.58576 -0.12683
vn -0.63304 0.66843 0.39046
vn 0.24395 0.77817 0.57873
vn -0.03018 0.99954 -0.00122
vn -0.21926 0.89858 -0.38011
vn -0.26885 0.81830 -0.50803
vn 0.29369 0.78418 0.54664
vn -0.06487 0.99599 0.06167
vn -0.31155 0.82125 0.47800
vn -0.45751 0.88828 -0.04047
vn -0.40685 0.82533 -0.39155
vn -0.00138 0.81044 0.58582
vn -0.31791 -0.93744 0.14190
vn -0.04810 -0.99818 -0.03628
vn -0.00446 -0.99621 0.08683
vn 0.42939 -0.41348 0.80290
vn -0.52551 -0.18604 0.83020
vn 0.00866 -0.99874 0.04944
vn -0.04505 -0.99643 -0.07135
vn 0.33090 -0.71500 0.61586
vn -0.00832 -0.99793 0.06374
vn -0.09781 -0.99259 -0.07213
vn -0.11054 -0.99342 -0.03004
vn -0.04661 -0.99595 0.07682
vn -0.00301 -0.23645 0.97164
vn -0.50288 -0.45740 0.73341
vn -0.52551 -0.18604 0.83020
vn 0.42939 -0.41348 0.80290
vn -0.30719 -0.47353 -0.82547
vn -0.75830 -0.64582 -0.08889
vn 0.33090 -0.71500 0.61586
vn -0.49469 -0.13324 -0.85880
vn 0.07950 0.82651 0.55728
vn 0.17895 -0.44522 0.87736
vn -0.00301 -0.23645 0.97164
vn -0.50288 -0.45740 0.73341
vn -0.92028 -0.36662 -0.13664
vn -0.53757 -0.66503 -0.51841
vn 0.17895 -0.44522 0.87736
vn -0.54582 0.83271 -0.09311
vn -0.62985 0.76321 -0.14422
vn -0.70839 0.70300 0.06307
vn -0.91955 0.38066 0.09761
vn -0.84987 0.51228 -0.12364
vn -0.97281 0.20306 -0.11141
vn -0.74054 0.58538 -0.33005
vn -0.97281 0.20306 -0.11141
vn -0.96792 0.24803 0.04013
vn -0.90165 0.39157 0.18359
vn -0.73234 0.05262 -0.67890
vn -0.46178 -0.83933 -0.28684
vn -0.45251 -0.86091 -0.23252
vn -0.47933 -0.86011 -0.17453
vn -0.59394 -0.52772 -0.60724
vn -0.57276 -0.75737 -0.31359
vn -0.00000 -0.97530 -0.22089
vn -0.92028 -0.36662 -0.13664
vn -0.46359 -0.86456 0.19393
vn -0.64677 0.73075 0.21839
vn -0.31791 -0.93744 0.14190
vn -0.51669 -0.80791 0.28340
vn -0.37744 -0.90062 0.21544
vn -0.75236 -0.58156 -0.30943
vn -0.75236 -0.58156 -0.30943
vn -0.99957 -0.01584 0.02482
vn 0.00000 -0.69781 -0.71629
vn -0.83126 -0.09928 -0.54694
vn -0.83126 -0.09928 -0.54694
vn -0.81834 -0.04989 -0.57256
vn -0.81834 -0.04989 -0.57256
vn -0.80275 -0.00033 -0.59631
vn -0.80275 -0.00033 -0.59631
vn -0.77407 0.01838 -0.63283
vn -0.77407 0.01838 -0.63283
vn -0.77407 0.01838 -0.63283
vn -0.94892 -0.06868 -0.30794
vn -0.94892 -0.06868 -0.30794
vn -0.94892 -0.06868 -0.30794
vn -0.94479 0.00767 -0.32758
vn -0.92144 -0.05453 -0.38467
vn -0.92144 -0.05453 -0.38467
vn -0.96089 0.06982 -0.26797
vn -0.96089 0.06982 -0.26797
vn -0.94479 0.00767 -0.32758
vn -0.95790 -0.02944 -0.28559
vn -0.95790 -0.02944 -0.28559
vn -0.95790 -0.02944 -0.28559
vn -0.95383 -0.03320 -0.29851
vn -0.95383 -0.03320 -0.29851
vn -0.95383 -0.03320 -0.29851
vn -0.94651 -0.11641 -0.30095
vn -0.94691 -0.08427 -0.31025
vn -0.94691 -0.08427 -0.31025
vn -0.97877 -0.07332 -0.19142
vn -0.94505 -0.14841 -0.29130
vn -0.94651 -0.11641 -0.30095
vn -0.94062 -0.08800 -0.32785
vn -0.89772 -0.03211 -0.43938
vn -0.89772 -0.03211 -0.43938
vn -0.96691 0.04848 -0.25046
vn -0.96691 0.04848 -0.25046
vn -0.96691 0.04848 -0.25046
vn -0.95311 0.26613 -0.14404
vn -0.95311 0.26613 -0.14404
vn -0.95311 0.26613 -0.14404
vn -0.95934 -0.18587 -0.21241
vn -0.96715 -0.14236 -0.21061
vn -0.94062 -0.08800 -0.32785
vn -0.94068 -0.20516 -0.27025
vn -0.94965 -0.22902 -0.21380
vn -0.95934 -0.18587 -0.21241
vn -0.92810 -0.18051 -0.32566
vn -0.92810 -0.18051 -0.32566
vn -0.94068 -0.20516 -0.27025
vn -0.83931 0.04410 -0.54186
vn -0.90573 0.08789 -0.41463
vn -0.90573 0.08789 -0.41463
vn -0.74628 -0.03247 -0.66483
vn -0.75399 -0.00069 -0.65689
vn -0.83931 0.04410 -0.54186
vn -0.77588 -0.08687 -0.62487
vn -0.73774 -0.06422 -0.67202
vn -0.74628 -0.03247 -0.66483
vn -0.99609 0.00299 -0.08833
vn -0.99609 0.00299 -0.08833
vn -0.97877 -0.07332 -0.19142
vn -0.77588 -0.08687 -0.62487
vn -0.81077 -0.10916 -0.57510
vn -0.99187 0.02584 -0.12463
vn -0.99187 0.02584 -0.12463
vn -0.99187 0.02584 -0.12463
vn -0.99185 0.01963 -0.12590
vn -0.99185 0.01963 -0.12590
vn -0.99185 0.01963 -0.12590
vn -0.98662 0.09998 -0.12877
vn -0.98662 0.09998 -0.12877
vn -0.98662 0.09998 -0.12877
vn -0.98419 0.08094 -0.15755
vn -0.98419 0.08094 -0.15755
vn -0.98419 0.08094 -0.15755
vn -0.94107 0.16780 -0.29367
vn -0.94107 0.16780 -0.29367
vn -0.94107 0.16780 -0.29367
vn -0.26966 0.94033 -0.20749
vn -0.99397 0.00670 0.10945
vn 0.00000 0.99113 -0.13288
vn 0.00000 0.99941 0.03445
vn 0.00000 -0.69781 -0.71629
vn -0.99957 -0.01584 0.02482
vn -0.73224 0.61897 -0.28409
vn -0.70089 -0.70802 0.08639
vn -0.70089 -0.70802 0.08639
f 165/165/165 190/190/190 193/193/193
f 193/193/193 166/166/166 165/165/165
f 167/167/167 166/166/166 170/170/170
f 170/170/170 166/166/166 193/193/193
f 167/167/167 194/194/194 168/168/168
f 170/170/170 169/169/169 167/167/167
f 194/194/194 167/167/167 169/169/169
f 197/197/197 171/171/171 170/170/170
f 170/170/170 199/199/199 197/197/197
f 193/193/193 199/199/199 170/170/170
f 169/169/169 170/170/170 171/171/171
f 176/176/176 180/180/180 193/193/193
f 193/193/193 190/190/190 176/176/176
f 199/199/199 193/193/193 180/180/180
f 174/174/174 176/176/176 190/190/190
f 190/190/190 191/191/191 174/174/174
f 176/176/176 175/175/175 179/179/179
f 179/179/179 180/180/180 176/176/176
f 174/174/174 175/175/175 176/176/176
f 348/348/348 126/126/126 122/122/122
f 122/122/122 150/150/150 348/348/348
f 150/150/150 122/122/122 125/125/125
f 125/125/125 140/140/140 148/148/148
f 148/148/148 150/150/150 125/125/125
f 117/117/117 121/121/121 143/143/143
f 143/143/143 115/115/115 117/117/117
f 117/117/117 120/120/120 121/121/121
f 119/119/119 120/120/120 117/117/117
f 144/144/144 121/121/121 120/120/120
f 143/143/143 121/121/121 144/144/144
f 115/115/115 143/143/143 116/116/116
f 116/116/116 143/143/143 145/145/145
f 144/144/144 145/145/145 143/143/143
f 116/116/116 111/111/111 115/115/115
f 145/145/145 141/141/141 116/116/116
f 116/116/116 141/141/141 138/138/138
f 138/138/138 113/113/113 116/116/116
f 113/113/113 111/111/111 116/116/116
f 111/111/111 113/113/113 112/112/112
f 113/113/113 138/138/138 137/137/137
f 137/137/137 112/112/112 113/113/113
f 157/157/157 112/112/112 137/137/137
f 137/137/137 347/347/347 157/157/157
f 120/120/120 147/147/147 144/144/144
f 146/146/146 147/147/147 120/120/120
f 120/120/120 119/119/119 146/146/146
f 32/32/32 83/83/83 249/249/249
f 31/31/31 83/83/83 32/32/32
f 414/414/414 249/249/249 248/248/248
f 83/83/83 248/248/248 249/249/249
f 550/550/550 635/635/635 634/634/634
f 163/163/163 160/160/160 162/162/162
f 160/160/160 161/161/161 162/162/162
f 188/188/188 163/163/163 164/164/164
f 162/162/162 164/164/164 163/163/163
f 161/161/161 165/165/165 162/162/162
f 168/168/168 162/162/162 167/167/167
f 164/164/164 162/162/162 168/168/168
f 166/166/166 167/167/167 162/162/162
f 162/162/162 165/165/165 166/166/166
f 161/161/161 191/191/191 190/190/190
f 190/190/190 165/165/165 161/161/161
f 504/504/504 501/501/501 500/500/500
f 518/518/518 505/505/505 500/500/500
f 500/500/500 515/515/515 518/518/518
f 515/515/515 500/500/500 499/499/499
f 499/499/499 500/500/500 501/501/501
f 502/502/502 501/501/501 506/506/506
f 499/499/499 501/501/501 502/502/502
f 499/499/499 516/516/516 515/515/515
f 502/502/502 503/503/503 499/499/499
f 518/518/518 515/515/515 492/492/492
f 487/487/487 492/492/492 515/515/515
f 515/515/515 516/516/516 487/487/487
f 510/510/510 512/512/512 511/511/511
f 445/445/445 444/444/444 472/472/472
f 472/472/472 444/444/444 443/443/443
f 443/443/443 471/471/471 472/472/472
f 445/445/445 440/440/440 439/439/439
f 439/439/439 442/442/442 445/445/445
f 444/444/444 445/445/445 442/442/442
f 442/442/442 443/443/443 444/444/444
f 443/443/443 446/446/446 470/470/470
f 470/470/470 471/471/471 443/443/443
f 442/442/442 446/446/446 443/443/443
f 442/442/442 439/439/439 468/468/468
f 468/468/468 446/446/446 442/442/442
f 441/441/441 468/468/468 439/439/439
f 439/439/439 434/434/434 441/441/441
f 434/434/434 439/439/439 440/440/440
f 469/469/469 468/468/468 441/441/441
f 470/470/470 446/446/446 468/468/468
f 468/468/468 469/469/469 470/470/470
f 441/441/441 466/466/466 469/469/469
f 441/441/441 438/438/438 463/463/463
f 463/463/463 466/466/466 441/441/441
f 438/438/438 441/441/441 434/434/434
f 437/437/437 438/438/438 434/434/434
f 438/438/438 437/437/437 462/462/462
f 462/462/462 463/463/463 438/438/438
f 462/462/462 437/437/437 482/482/482
f 482/482/482 637/637/637 462/462/462
f 343/343/343 211/211/211 214/214/214
f 213/213/213 214/214/214 211/211/211
f 211/211/211 212/212/212 213/213/213
f 329/329/329 343/343/343 344/344/344
f 214/214/214 344/344/344 343/343/343
f 214/214/214 532/532/532 636/636/636
f 636/636/636 344/344/344 214/214/214
f 532/532/532 214/214/214 213/213/213
f 344/344/344 636/636/636 630/630/630
f 630/630/630 330/330/330 344/344/344
f 344/344/344 330/330/330 329/329/329
f 328/328/328 329/329/329 330/330/330
f 328/328/328 330/330/330 630/630/630
f 213/213/213 533/533/533 532/532/532
f 213/213/213 552/552/552 551/551/551
f 551/551/551 533/533/533 213/213/213
f 213/213/213 212/212/212 245/245/245
f 245/245/245 246/246/246 213/213/213
f 243/243/243 244/244/244 30/30/30
f 30/30/30 32/32/32 243/243/243
f 30/30/30 31/31/31 32/32/32
f 634/634/634 243/243/243 550/550/550
f 243/243/243 32/32/32 371/371/371
f 371/371/371 550/550/550 243/243/243
f 244/244/244 243/243/243 341/341/341
f 341/341/341 342/342/342 244/244/244
f 371/371/371 32/32/32 372/372/372
f 32/32/32 249/249/249 414/414/414
f 372/372/372 32/32/32 414/414/414
f 134/134/134 129/129/129 128/128/128
f 128/128/128 129/129/129 124/124/124
f 128/128/128 131/131/131 134/134/134
f 133/133/133 134/134/134 131/131/131
f 217/217/217 133/133/133 132/132/132
f 131/131/131 132/132/132 133/133/133
f 132/132/132 136/136/136 217/217/217
f 132/132/132 131/131/131 135/135/135
f 135/135/135 136/136/136 132/132/132
f 131/131/131 128/128/128 156/156/156
f 156/156/156 135/135/135 131/131/131
f 128/128/128 123/123/123 130/130/130
f 130/130/130 156/156/156 128/128/128
f 124/124/124 123/123/123 128/128/128
f 124/124/124 125/125/125 122/122/122
f 122/122/122 123/123/123 124/124/124
f 127/127/127 130/130/130 123/123/123
f 123/123/123 122/122/122 126/126/126
f 126/126/126 127/127/127 123/123/123
f 207/207/207 208/208/208 205/205/205
f 527/527/527 353/353/353 247/247/247
f 247/247/247 241/241/241 527/527/527
f 527/527/527 241/241/241 240/240/240
f 527/527/527 530/530/530 358/358/358
f 353/353/353 527/527/527 358/358/358
f 240/240/240 528/528/528 527/527/527
f 529/529/529 530/530/530 527/527/527
f 527/527/527 528/528/528 529/529/529
f 409/409/409 528/528/528 240/240/240
f 240/240/240 633/633/633 409/409/409
f 77/77/77 340/340/340 240/240/240
f 240/240/240 208/208/208 77/77/77
f 77/77/77 208/208/208 207/207/207
f 339/339/339 340/340/340 77/77/77
f 77/77/77 79/79/79 339/339/339
f 207/207/207 14/14/14 77/77/77
f 78/78/78 79/79/79 77/77/77
f 77/77/77 14/14/14 78/78/78
f 26/26/26 14/14/14 207/207/207
f 78/78/78 14/14/14 13/13/13
f 15/15/15 14/14/14 26/26/26
f 13/13/13 14/14/14 15/15/15
f 13/13/13 82/82/82 78/78/78
f 25/25/25 80/80/80 13/13/13
f 13/13/13 15/15/15 25/25/25
f 81/81/81 82/82/82 13/13/13
f 13/13/13 80/80/80 81/81/81
f 23/23/23 15/15/15 26/26/26
f 24/24/24 25/25/25 15/15/15
f 15/15/15 23/23/23 24/24/24
f 26/26/26 209/209/209 23/23/23
f 24/24/24 23/23/23 19/19/19
f 486/486/486 485/485/485 488/488/488
f 485/485/485 486/486/486 487/487/487
f 487/487/487 486/486/486 492/492/492
f 490/490/490 486/486/486 493/493/493
f 489/489/489 493/493/493 486/486/486
f 491/491/491 492/492/492 486/486/486
f 486/486/486 490/490/490 491/491/491
f 488/488/488 489/489/489 486/486/486
f 489/489/489 488/488/488 513/513/513
f 493/493/493 489/489/489 514/514/514
f 513/513/513 514/514/514 489/489/489
f 108/108/108 158/158/158 149/149/149
f 149/149/149 109/109/109 108/108/108
f 108/108/108 112/112/112 157/157/157
f 157/157/157 158/158/158 108/108/108
f 112/112/112 108/108/108 111/111/111
f 110/110/110 111/111/111 108/108/108
f 108/108/108 109/109/109 110/110/110
f 110/110/110 139/139/139 142/142/142
f 142/142/142 114/114/114 110/110/110
f 139/139/139 110/110/110 109/109/109
f 111/111/111 110/110/110 114/114/114
f 457/457/457 456/456/456 453/453/453
f 481/481/481 453/453/453 456/456/456
f 453/453/453 481/481/481 455/455/455
f 455/455/455 450/450/450 453/453/453
f 452/452/452 450/450/450 455/455/455
f 450/450/450 452/452/452 451/451/451
f 451/451/451 447/447/447 450/450/450
f 447/447/447 451/451/451 638/638/638
f 638/638/638 475/475/475 447/447/447
f 456/456/456 460/460/460 481/481/481
f 460/460/460 456/456/456 459/459/459
f 458/458/458 459/459/459 456/456/456
f 456/456/456 457/457/457 458/458/458
f 458/458/458 457/457/457 476/476/476
f 476/476/476 536/536/536 458/458/458
f 459/459/459 458/458/458 536/536/536
f 536/536/536 461/461/461 459/459/459
f 459/459/459 461/461/461 460/460/460
f 472/472/472 476/476/476 445/445/445
f 185/185/185 180/180/180 179/179/179
f 180/180/180 185/185/185 199/199/199
f 226/226/226 199/199/199 185/185/185
f 185/185/185 184/184/184 226/226/226
f 179/179/179 182/182/182 185/185/185
f 184/184/184 185/185/185 182/182/182
f 182/182/182 179/179/179 200/200/200
f 179/179/179 175/175/175 181/181/181
f 181/181/181 200/200/200 179/179/179
f 177/177/177 181/181/181 175/175/175
f 177/177/177 175/175/175 174/174/174
f 174/174/174 178/178/178 177/177/177
f 200/200/200 186/186/186 182/182/182
f 183/183/183 182/182/182 186/186/186
f 182/182/182 183/183/183 184/184/184
f 226/226/226 184/184/184 183/183/183
f 183/183/183 187/187/187 226/226/226
f 186/186/186 187/187/187 183/183/183
f 172/172/172 171/171/171 197/197/197
f 368/368/368 531/531/531 369/369/369
f 369/369/369 549/549/549 530/530/530
f 530/530/530 529/529/529 369/369/369
f 369/369/369 529/529/529 361/361/361
f 360/360/360 369/369/369 361/361/361
f 357/357/357 549/549/549 373/373/373
f 530/530/530 549/549/549 357/357/357
f 357/357/357 358/358/358 530/530/530
f 373/373/373 356/356/356 357/357/357
f 357/357/357 354/354/354 358/358/358
f 356/356/356 354/354/354 357/357/357
f 373/373/373 370/370/370 356/356/356
f 370/370/370 373/373/373 351/351/351
f 370/370/370 355/355/355 356/356/356
f 354/354/354 356/356/356 355/355/355
f 358/358/358 354/354/354 353/353/353
f 353/353/353 354/354/354 355/355/355
f 367/367/367 360/360/360 359/359/359
f 359/359/359 360/360/360 361/361/361
f 359/359/359 412/412/412 367/367/367
f 359/359/359 361/361/361 408/408/408
f 408/408/408 413/413/413 359/359/359
f 359/359/359 413/413/413 411/411/411
f 411/411/411 412/412/412 359/359/359
f 409/409/409 361/361/361 529/529/529
f 408/408/408 361/361/361 409/409/409
f 409/409/409 410/410/410 408/408/408
f 409/409/409 633/633/633 632/632/632
f 632/632/632 410/410/410 409/409/409
f 529/529/529 528/528/528 409/409/409
f 493/493/493 519/519/519 490/490/490
f 520/520/520 519/519/519 493/493/493
f 493/493/493 517/517/517 520/520/520
f 514/514/514 517/517/517 493/493/493
f 497/497/497 491/491/491 490/490/490
f 490/490/490 494/494/494 497/497/497
f 494/494/494 490/490/490 519/519/519
f 518/518/518 491/491/491 497/497/497
f 492/492/492 491/491/491 518/518/518
f 523/523/523 524/524/524 497/497/497
f 497/497/497 496/496/496 523/523/523
f 497/497/497 524/524/524 518/518/518
f 496/496/496 497/497/497 494/494/494
f 519/519/519 498/498/498 494/494/494
f 494/494/494 498/498/498 495/495/495
f 494/494/494 495/495/495 496/496/496
f 523/523/523 496/496/496 495/495/495
f 495/495/495 522/522/522 523/523/523
f 495/495/495 498/498/498 521/521/521
f 433/433/433 436/436/436 474/474/474
f 474/474/474 483/483/483 433/433/433
f 433/433/433 483/483/483 482/482/482
f 482/482/482 437/437/437 433/433/433
f 434/434/434 433/433/433 437/437/437
f 435/435/435 436/436/436 433/433/433
f 433/433/433 434/434/434 435/435/435
f 436/436/436 465/465/465 473/473/473
f 473/473/473 474/474/474 436/436/436
f 436/436/436 435/435/435 464/464/464
f 464/464/464 465/465/465 436/436/436
f 57/57/57 60/60/60 98/98/98
f 98/98/98 62/62/62 57/57/57
f 59/59/59 60/60/60 57/57/57
f 68/68/68 69/69/69 59/59/59
f 69/69/69 68/68/68 74/74/74
f 74/74/74 75/75/75 69/69/69
f 223/223/223 69/69/69 75/75/75
f 75/75/75 224/224/224 223/223/223
f 337/337/337 338/338/338 61/61/61
f 61/61/61 64/64/64 337/337/337
f 395/395/395 337/337/337 43/43/43
f 337/337/337 395/395/395 394/394/394
f 394/394/394 338/338/338 337/337/337
f 43/43/43 337/337/337 64/64/64
f 64/64/64 41/41/41 43/43/43
f 43/43/43 378/378/378 395/395/395
f 378/378/378 43/43/43 42/42/42
f 42/42/42 43/43/43 41/41/41
f 396/396/396 395/395/395 378/378/378
f 394/394/394 395/395/395 396/396/396
f 394/394/394 397/397/397 390/390/390
f 396/396/396 397/397/397 394/394/394
f 397/397/397 396/396/396 534/534/534
f 378/378/378 374/374/374 396/396/396
f 534/534/534 396/396/396 374/374/374
f 42/42/42 379/379/379 378/378/378
f 378/378/378 379/379/379 375/375/375
f 375/375/375 374/374/374 378/378/378
f 379/379/379 42/42/42 92/92/92
f 92/92/92 42/42/42 40/40/40
f 41/41/41 40/40/40 42/42/42
f 39/39/39 40/40/40 41/41/41
f 40/40/40 91/91/91 92/92/92
f 91/91/91 40/40/40 39/39/39
f 419/419/419 92/92/92 234/234/234
f 92/92/92 419/419/419 379/379/379
f 234/234/234 92/92/92 91/91/91
f 375/375/375 379/379/379 419/419/419
f 234/234/234 545/545/545 419/419/419
f 417/417/417 419/419/419 545/545/545
f 419/419/419 417/417/417 375/375/375
f 19/19/19 23/23/23 209/209/209
f 24/24/24 210/210/210 363/363/363
f 363/363/363 368/368/368 24/24/24
f 24/24/24 368/368/368 360/360/360
f 360/360/360 367/367/367 24/24/24
f 19/19/19 210/210/210 24/24/24
f 210/210/210 19/19/19 18/18/18
f 209/209/209 16/16/16 19/19/19
f 18/18/18 19/19/19 16/16/16
f 210/210/210 21/21/21 364/364/364
f 364/364/364 363/363/363 210/210/210
f 18/18/18 21/21/21 210/210/210
f 531/531/531 368/368/368 363/363/363
f 363/363/363 362/362/362 531/531/531
f 362/362/362 363/363/363 364/364/364
f 369/369/369 360/360/360 368/368/368
f 391/391/391 424/424/424 423/423/423
f 390/390/390 397/397/397 424/424/424
f 424/424/424 391/391/391 390/390/390
f 229/229/229 421/421/421 399/399/399
f 227/227/227 229/229/229 96/96/96
f 421/421/421 229/229/229 227/227/227
f 227/227/227 422/422/422 421/421/421
f 484/484/484 422/422/422 227/227/227
f 227/227/227 228/228/228 484/484/484
f 159/159/159 228/228/228 227/227/227
f 228/228/228 159/159/159 221/221/221
f 159/159/159 97/97/97 222/222/222
f 222/222/222 221/221/221 159/159/159
f 228/228/228 220/220/220 538/538/538
f 538/538/538 484/484/484 228/228/228
f 221/221/221 220/220/220 228/228/228
f 484/484/484 538/538/538 539/539/539
f 539/539/539 425/425/425 484/484/484
f 422/422/422 484/484/484 425/425/425
f 539/539/539 538/538/538 537/537/537
f 537/537/537 538/538/538 220/220/220
f 220/220/220 219/219/219 537/537/537
f 220/220/220 221/221/221 218/218/218
f 521/521/521 522/522/522 495/495/495
f 521/521/521 498/498/498 519/519/519
f 519/519/519 520/520/520 521/521/521
f 508/508/508 524/524/524 543/543/543
f 505/505/505 518/518/518 524/524/524
f 524/524/524 508/508/508 505/505/505
f 543/543/543 509/509/509 508/508/508
f 508/508/508 507/507/507 504/504/504
f 504/504/504 505/505/505 508/508/508
f 507/507/507 508/508/508 509/509/509
f 543/543/543 512/512/512 510/510/510
f 510/510/510 509/509/509 543/543/543
f 509/509/509 510/510/510 507/507/507
f 507/507/507 511/511/511 525/525/525
f 525/525/525 504/504/504 507/507/507
f 511/511/511 507/507/507 510/510/510
f 504/504/504 525/525/525 506/506/506
f 506/506/506 501/501/501 504/504/504
f 500/500/500 505/505/505 504/504/504
f 218/218/218 219/219/219 220/220/220
f 218/218/218 221/221/221 222/222/222
f 222/222/222 223/223/223 218/218/218
f 224/224/224 218/218/218 223/223/223
f 219/219/219 218/218/218 224/224/224
f 219/219/219 542/542/542 541/541/541
f 541/541/541 537/537/537 219/219/219
f 224/224/224 225/225/225 219/219/219
f 541/541/541 540/540/540 537/537/537
f 537/537/537 540/540/540 539/539/539
f 540/540/540 541/541/541 405/405/405
f 405/405/405 401/401/401 540/540/540
f 401/401/401 405/405/405 406/406/406
f 406/406/406 402/402/402 401/401/401
f 392/392/392 401/401/401 402/402/402
f 403/403/403 402/402/402 406/406/406
f 406/406/406 407/407/407 403/403/403
f 393/393/393 402/402/402 403/403/403
f 402/402/402 393/393/393 392/392/392
f 392/392/392 393/393/393 390/390/390
f 390/390/390 391/391/391 392/392/392
f 393/393/393 404/404/404 526/526/526
f 526/526/526 390/390/390 393/393/393
f 403/403/403 404/404/404 393/393/393
f 403/403/403 407/407/407 73/73/73
f 403/403/403 73/73/73 72/72/72
f 72/72/72 404/404/404 403/403/403
f 346/346/346 526/526/526 404/404/404
f 404/404/404 72/72/72 346/346/346
f 338/338/338 394/394/394 526/526/526
f 526/526/526 346/346/346 338/338/338
f 390/390/390 526/526/526 394/394/394
f 338/338/338 346/346/346 204/204/204
f 307/307/307 308/308/308 309/309/309
f 610/610/610 611/611/611 612/612/612
f 432/432/432 428/428/428 427/427/427
f 427/427/427 428/428/428 429/429/429
f 431/431/431 428/428/428 432/432/432
f 428/428/428 430/430/430 429/429/429
f 430/430/430 428/428/428 431/431/431
f 107/107/107 102/102/102 104/104/104
f 102/102/102 103/103/103 104/104/104
f 106/106/106 107/107/107 104/104/104
f 104/104/104 103/103/103 105/105/105
f 105/105/105 106/106/106 104/104/104
f 346/346/346 72/72/72 70/70/70
f 70/70/70 204/204/204 346/346/346
f 71/71/71 70/70/70 72/72/72
f 72/72/72 73/73/73 71/71/71
f 71/71/71 73/73/73 76/76/76
f 71/71/71 76/76/76 74/74/74
f 74/74/74 68/68/68 71/71/71
f 71/71/71 68/68/68 58/58/58
f 58/58/58 70/70/70 71/71/71
f 204/204/204 70/70/70 58/58/58
f 58/58/58 57/57/57 204/204/204
f 59/59/59 58/58/58 68/68/68
f 57/57/57 58/58/58 59/59/59
f 204/204/204 61/61/61 338/338/338
f 61/61/61 204/204/204 57/57/57
f 57/57/57 62/62/62 61/61/61
f 94/94/94 93/93/93 215/215/215
f 215/215/215 98/98/98 94/94/94
f 37/37/37 215/215/215 93/93/93
f 93/93/93 66/66/66 37/37/37
f 38/38/38 37/37/37 66/66/66
f 39/39/39 38/38/38 89/89/89
f 66/66/66 65/65/65 38/38/38
f 67/67/67 66/66/66 93/93/93
f 65/65/65 66/66/66 67/67/67
f 93/93/93 96/96/96 67/67/67
f 95/95/95 96/96/96 93/93/93
f 93/93/93 94/94/94 95/95/95
f 95/95/95 94/94/94 97/97/97
f 94/94/94 98/98/98 60/60/60
f 60/60/60 97/97/97 94/94/94
f 96/96/96 95/95/95 227/227/227
f 227/227/227 95/95/95 159/159/159
f 97/97/97 159/159/159 95/95/95
f 67/67/67 96/96/96 229/229/229
f 316/316/316 317/317/317 318/318/318
f 618/618/618 619/619/619 620/620/620
f 63/63/63 36/36/36 41/41/41
f 215/215/215 37/37/37 36/36/36
f 36/36/36 63/63/63 215/215/215
f 41/41/41 36/36/36 39/39/39
f 38/38/38 39/39/39 36/36/36
f 36/36/36 37/37/37 38/38/38
f 215/215/215 63/63/63 62/62/62
f 41/41/41 64/64/64 63/63/63
f 63/63/63 64/64/64 61/61/61
f 61/61/61 62/62/62 63/63/63
f 62/62/62 98/98/98 215/215/215
f 435/435/435 440/440/440 467/467/467
f 467/467/467 464/464/464 435/435/435
f 440/440/440 435/435/435 434/434/434
f 449/449/449 464/464/464 467/467/467
f 448/448/448 465/465/465 464/464/464
f 464/464/464 449/449/449 448/448/448
f 473/473/473 465/465/465 448/448/448
f 448/448/448 475/475/475 473/473/473
f 475/475/475 448/448/448 447/447/447
f 447/447/447 448/448/448 449/449/449
f 467/467/467 454/454/454 449/449/449
f 449/449/449 454/454/454 453/453/453
f 453/453/453 450/450/450 449/449/449
f 449/449/449 450/450/450 447/447/447
f 454/454/454 467/467/467 476/476/476
f 467/467/467 440/440/440 445/445/445
f 445/445/445 476/476/476 467/467/467
f 453/453/453 454/454/454 457/457/457
f 476/476/476 457/457/457 454/454/454
f 615/615/615 616/616/616 617/617/617
f 313/313/313 314/314/314 315/315/315
f 319/319/319 320/320/320 321/321/321
f 621/621/621 622/622/622 623/623/623
f 375/375/375 417/417/417 418/418/418
f 418/418/418 376/376/376 375/375/375
f 374/374/374 375/375/375 376/376/376
f 400/400/400 377/377/377 376/376/376
f 376/376/376 398/398/398 400/400/400
f 376/376/376 377/377/377 374/374/374
f 374/374/374 377/377/377 534/534/534
f 420/420/420 534/534/534 377/377/377
f 377/377/377 400/400/400 420/420/420
f 420/420/420 400/400/400 399/399/399
f 398/398/398 399/399/399 400/400/400
f 534/534/534 420/420/420 423/423/423
f 399/399/399 421/421/421 420/420/420
f 422/422/422 423/423/423 420/420/420
f 420/420/420 421/421/421 422/422/422
f 534/534/534 424/424/424 397/397/397
f 423/423/423 424/424/424 534/534/534
f 425/425/425 423/423/423 422/422/422
f 423/423/423 425/425/425 391/391/391
f 286/286/286 287/287/287 288/288/288
f 589/589/589 590/590/590 591/591/591
f 624/624/624 625/625/625 626/626/626
f 322/322/322 323/323/323 324/324/324
f 101/101/101 50/50/50 203/203/203
f 50/50/50 51/51/51 202/202/202
f 202/202/202 203/203/203 50/50/50
f 47/47/47 51/51/51 50/50/50
f 384/384/384 203/203/203 202/202/202
f 202/202/202 385/385/385 384/384/384
f 381/381/381 380/380/380 384/384/384
f 384/384/384 385/385/385 381/381/381
f 426/426/426 380/380/380 383/383/383
f 382/382/382 383/383/383 380/380/380
f 380/380/380 381/381/381 382/382/382
f 386/386/386 381/381/381 385/385/385
f 382/382/382 381/381/381 387/387/387
f 386/386/386 387/387/387 381/381/381
f 385/385/385 202/202/202 201/201/201
f 201/201/201 389/389/389 385/385/385
f 385/385/385 389/389/389 386/386/386
f 201/201/201 202/202/202 51/51/51
f 51/51/51 56/56/56 201/201/201
f 52/52/52 56/56/56 51/51/51
f 51/51/51 47/47/47 52/52/52
f 52/52/52 47/47/47 53/53/53
f 53/53/53 47/47/47 46/46/46
f 46/46/46 54/54/54 53/53/53
f 55/55/55 54/54/54 46/46/46
f 46/46/46 49/49/49 55/55/55
f 49/49/49 46/46/46 45/45/45
f 55/55/55 49/49/49 382/382/382
f 382/382/382 388/388/388 55/55/55
f 49/49/49 48/48/48 383/383/383
f 383/383/383 382/382/382 49/49/49
f 45/45/45 48/48/48 49/49/49
f 45/45/45 100/100/100 48/48/48
f 99/99/99 100/100/100 45/45/45
f 383/383/383 48/48/48 100/100/100
f 383/383/383 100/100/100 426/426/426
f 426/426/426 100/100/100 334/334/334
f 334/334/334 100/100/100 99/99/99
f 592/592/592 593/593/593 594/594/594
f 289/289/289 290/290/290 291/291/291
f 7/7/7 8/8/8 9/9/9
f 28/28/28 27/27/27 355/355/355
f 355/355/355 370/370/370 28/28/28
f 27/27/27 247/247/247 353/353/353
f 353/353/353 355/355/355 27/27/27
f 7/7/7 247/247/247 27/27/27
f 247/247/247 7/7/7 205/205/205
f 7/7/7 12/12/12 205/205/205
f 12/12/12 7/7/7 9/9/9
f 11/11/11 12/12/12 9/9/9
f 206/206/206 12/12/12 11/11/11
f 205/205/205 12/12/12 206/206/206
f 11/11/11 242/242/242 206/206/206
f 26/26/26 207/207/207 206/206/206
f 206/206/206 242/242/242 26/26/26
f 205/205/205 206/206/206 207/207/207
f 205/205/205 241/241/241 247/247/247
f 240/240/240 241/241/241 205/205/205
f 205/205/205 208/208/208 240/240/240
f 91/91/91 233/233/233 234/234/234
f 233/233/233 91/91/91 90/90/90
f 39/39/39 90/90/90 91/91/91
f 89/89/89 90/90/90 39/39/39
f 90/90/90 216/216/216 233/233/233
f 90/90/90 89/89/89 154/154/154
f 154/154/154 216/216/216 90/90/90
f 154/154/154 153/153/153 216/216/216
f 152/152/152 153/153/153 154/154/154
f 152/152/152 235/235/235 153/153/153
f 235/235/235 152/152/152 236/236/236
f 238/238/238 239/239/239 235/235/235
f 235/235/235 237/237/237 238/238/238
f 236/236/236 237/237/237 235/235/235
f 232/232/232 237/237/237 236/236/236
f 236/236/236 65/65/65 232/232/232
f 231/231/231 238/238/238 237/237/237
f 237/237/237 232/232/232 231/231/231
f 548/548/548 238/238/238 231/231/231
f 238/238/238 548/548/548 547/547/547
f 547/547/547 239/239/239 238/238/238
f 231/231/231 544/544/544 548/548/548
f 544/544/544 231/231/231 230/230/230
f 230/230/230 231/231/231 232/232/232
f 65/65/65 67/67/67 232/232/232
f 232/232/232 67/67/67 230/230/230
f 230/230/230 399/399/399 544/544/544
f 399/399/399 230/230/230 229/229/229
f 229/229/229 230/230/230 67/67/67
f 544/544/544 398/398/398 546/546/546
f 546/546/546 548/548/548 544/544/544
f 398/398/398 544/544/544 399/399/399
f 547/547/547 548/548/548 546/546/546
f 477/477/477 479/479/479 547/547/547
f 546/546/546 477/477/477 547/547/547
f 477/477/477 478/478/478 479/479/479
f 478/478/478 535/535/535 479/479/479
f 417/417/417 535/535/535 478/478/478
f 478/478/478 418/418/418 417/417/417
f 545/545/545 535/535/535 417/417/417
f 292/292/292 293/293/293 294/294/294
f 595/595/595 596/596/596 597/597/597
f 101/101/101 99/99/99 44/44/44
f 44/44/44 50/50/50 101/101/101
f 45/45/45 44/44/44 99/99/99
f 50/50/50 44/44/44 47/47/47
f 46/46/46 47/47/47 44/44/44
f 44/44/44 45/45/45 46/46/46
f 336/336/336 101/101/101 426/426/426
f 101/101/101 203/203/203 384/384/384
f 101/101/101 384/384/384 380/380/380
f 380/380/380 426/426/426 101/101/101
f 99/99/99 101/101/101 336/336/336
f 586/586/586 587/587/587 588/588/588
f 283/283/283 284/284/284 285/285/285
f 265/265/265 266/266/266 267/267/267
f 568/568/568 569/569/569 570/570/570
f 325/325/325 326/326/326 327/327/327
f 627/627/627 628/628/628 629/629/629
f 580/580/580 581/581/581 582/582/582
f 277/277/277 278/278/278 279/279/279
f 268/268/268 269/269/269 270/270/270
f 571/571/571 572/572/572 573/573/573
f 109/109/109 149/149/149 148/148/148
f 148/148/148 140/140/140 109/109/109
f 109/109/109 140/140/140 139/139/139
f 142/142/142 139/139/139 124/124/124
f 125/125/125 124/124/124 139/139/139
f 139/139/139 140/140/140 125/125/125
f 124/124/124 129/129/129 142/142/142
f 151/151/151 142/142/142 129/129/129
f 142/142/142 151/151/151 118/118/118
f 118/118/118 114/114/114 142/142/142
f 115/115/115 114/114/114 118/118/118
f 114/114/114 115/115/115 111/111/111
f 146/146/146 119/119/119 118/118/118
f 118/118/118 151/151/151 146/146/146
f 118/118/118 117/117/117 115/115/115
f 117/117/117 118/118/118 119/119/119
f 133/133/133 217/217/217 151/151/151
f 151/151/151 134/134/134 133/133/133
f 129/129/129 134/134/134 151/151/151
f 171/171/171 172/172/172 169/169/169
f 172/172/172 198/198/198 195/195/195
f 195/195/195 173/173/173 172/172/172
f 197/197/197 198/198/198 172/172/172
f 169/169/169 172/172/172 173/173/173
f 169/169/169 173/173/173 194/194/194
f 194/194/194 173/173/173 195/195/195
f 195/195/195 196/196/196 194/194/194
f 168/168/168 194/194/194 196/196/196
f 196/196/196 192/192/192 168/168/168
f 168/168/168 192/192/192 189/189/189
f 189/189/189 164/164/164 168/168/168
f 164/164/164 189/189/189 188/188/188
f 271/271/271 272/272/272 273/273/273
f 574/574/574 575/575/575 576/576/576
f 562/562/562 563/563/563 564/564/564
f 259/259/259 260/260/260 261/261/261
f 577/577/577 578/578/578 579/579/579
f 274/274/274 275/275/275 276/276/276
f 364/364/364 365/365/365 362/362/362
f 365/365/365 364/364/364 366/366/366
f 364/364/364 21/21/21 20/20/20
f 20/20/20 366/366/366 364/364/364
f 366/366/366 480/480/480 365/365/365
f 20/20/20 332/332/332 366/366/366
f 331/331/331 480/480/480 366/366/366
f 366/366/366 332/332/332 331/331/331
f 20/20/20 22/22/22 332/332/332
f 18/18/18 22/22/22 20/20/20
f 20/20/20 21/21/21 18/18/18
f 349/349/349 1/1/1 28/28/28
f 350/350/350 2/2/2 1/1/1
f 1/1/1 349/349/349 350/350/350
f 28/28/28 1/1/1 4/4/4
f 3/3/3 4/4/4 1/1/1
f 1/1/1 2/2/2 3/3/3
f 28/28/28 370/370/370 349/349/349
f 351/351/351 349/349/349 370/370/370
f 352/352/352 350/350/350 349/349/349
f 349/349/349 351/351/351 352/352/352
f 33/33/33 350/350/350 352/352/352
f 350/350/350 33/33/33 2/2/2
f 3/3/3 2/2/2 33/33/33
f 5/5/5 3/3/3 33/33/33
f 4/4/4 3/3/3 5/5/5
f 4/4/4 29/29/29 28/28/28
f 29/29/29 4/4/4 6/6/6
f 5/5/5 6/6/6 4/4/4
f 33/33/33 35/35/35 5/5/5
f 352/352/352 35/35/35 33/33/33
f 6/6/6 34/34/34 29/29/29
f 34/34/34 10/10/10 29/29/29
f 29/29/29 10/10/10 8/8/8
f 28/28/28 29/29/29 8/8/8
f 34/34/34 242/242/242 11/11/11
f 11/11/11 10/10/10 34/34/34
f 9/9/9 8/8/8 10/10/10
f 10/10/10 11/11/11 9/9/9
f 27/27/27 8/8/8 7/7/7
f 8/8/8 27/27/27 28/28/28
f 598/598/598 599/599/599 600/600/600
f 295/295/295 296/296/296 297/297/297
f 331/331/331 332/332/332 22/22/22
f 22/22/22 155/155/155 331/331/331
f 22/22/22 18/18/18 17/17/17
f 17/17/17 155/155/155 22/22/22
f 16/16/16 17/17/17 18/18/18
f 565/565/565 566/566/566 567/567/567
f 262/262/262 263/263/263 264/264/264
f 298/298/298 299/299/299 300/300/300
f 601/601/601 602/602/602 603/603/603
f 280/280/280 281/281/281 282/282/282
f 583/583/583 584/584/584 585/585/585
f 553/553/553 554/554/554 555/555/555
f 250/250/250 251/251/251 252/252/252
f 556/556/556 557/557/557 558/558/558
f 253/253/253 254/254/254 255/255/255
f 256/256/256 257/257/257 258/258/258
f 559/559/559 560/560/560 561/561/561
f 301/301/301 302/302/302 303/303/303
f 604/604/604 605/605/605 606/606/606
f 607/607/607 608/608/608 609/609/609
f 304/304/304 305/305/305 306/306/306
f 310/310/310 311/311/311 312/312/312
f 613/613/613 312/312/312 614/614/614
f 336/336/336 333/333/333 99/99/99
f 99/99/99 333/333/333 334/334/334
f 631/631/631 334/334/334 87/87/87
f 334/334/334 631/631/631 426/426/426
f 87/87/87 334/334/334 333/333/333
f 426/426/426 631/631/631 336/336/336
f 335/335/335 336/336/336 631/631/631
f 333/333/333 336/336/336 335/335/335
f 333/333/333 84/84/84 87/87/87
f 335/335/335 84/84/84 333/333/333
f 87/87/87 415/415/415 631/631/631
f 415/415/415 87/87/87 86/86/86
f 86/86/86 87/87/87 84/84/84
f 631/631/631 415/415/415 335/335/335
f 335/335/335 415/415/415 416/416/416
f 416/416/416 345/345/345 335/335/335
f 335/335/335 345/345/345 85/85/85
f 85/85/85 84/84/84 335/335/335
f 84/84/84 85/85/85 86/86/86
f 416/416/416 86/86/86 88/88/88
f 86/86/86 416/416/416 415/415/415
f 85/85/85 88/88/88 86/86/86
f 88/88/88 345/345/345 416/416/416
f 88/88/88 85/85/85 345/345/345
f 387/387/387 388/388/388 382/382/382
