# shastasaurus_ad reconstructed from live game memory
v 11.72770 75.33218 -75.95813
v 11.70520 67.28378 -75.99389
v 17.96630 69.66689 -66.03130
v 18.14600 71.91439 -65.74541
v 11.61750 86.73668 -76.95989
v 5.36660 90.04478 -77.16833
v 5.25890 83.91888 -88.20073
v 11.65210 84.22587 -79.89684
v -0.00000 90.87488 -77.29353
v -0.00000 84.91689 -88.49984
v 13.18210 83.92388 -75.80663
v 13.72944 84.17561 -74.55848
v 12.30622 85.25955 -77.04285
v 11.99110 84.14008 -78.50704
v 12.26920 83.37907 -78.72432
v 12.67944 82.05594 -79.46277
v 13.99536 81.97691 -75.82877
v 13.10090 83.24298 -76.38892
v 8.10345 73.56578 -96.48253
v 3.82225 78.46494 -97.12389
v -0.00000 79.62753 -97.29659
v 29.13290 83.72571 34.58028
v 16.51360 94.41730 34.63638
v 15.45460 98.49031 -1.70542
v 28.03621 87.77190 -1.70471
v 0.00000 99.81431 34.58030
v 0.00000 103.22949 -1.70572
v 4.73300 68.72189 -98.47569
v 3.76002 66.68893 -98.47916
v 18.30520 65.51798 -66.10450
v 18.89600 70.82800 -66.17261
v 11.80815 58.94788 -66.03086
v -0.00000 56.72439 -66.03131
v -0.00000 50.59180 -52.81911
v 14.47810 53.32919 -52.81145
v 20.05860 73.46850 -66.16341
v 15.23470 74.31358 -81.97151
v 13.53870 71.62309 -81.92731
v 37.07170 55.26010 34.57970
v 35.89530 66.86790 34.57969
v 34.87220 72.05998 -1.70331
v 37.29950 58.15370 -1.69201
v 0.00000 34.31012 75.60801
v 17.45570 37.70641 75.60565
v 18.65835 31.04565 34.57920
v 0.00000 26.40531 34.57920
v 16.75860 69.21631 135.15227
v 9.83520 76.07291 135.15239
v 11.95140 81.07641 108.07898
v 21.14860 73.18861 108.07910
v -0.00000 79.13900 135.15248
v 0.00000 84.14561 108.07890
v 29.96310 45.80782 75.61090
v 33.53000 54.94133 75.60261
v 32.82840 43.40320 34.57919
v 2.83189 68.76598 -102.01571
v 2.31529 67.66358 -102.00776
v 1.70710 68.79573 -102.58430
v 1.77782 68.08253 -102.44681
v 15.15335 86.57349 -66.21114
v 25.12240 66.76379 -52.85962
v 19.75340 86.61538 -53.46661
v 19.30755 33.21014 -1.69545
v 0.00000 28.06899 -1.69790
v 23.53810 59.48419 -52.77951
v -0.00000 65.69988 -98.49171
v 31.65970 63.59550 -38.30981
v 28.92230 75.95090 -38.26431
v 24.21260 76.52368 -53.17241
v 23.04070 88.26419 -38.25182
v 35.45620 61.29339 -19.14511
v 32.13170 74.58460 -19.12541
v 25.77910 87.89690 -19.02232
v -0.00000 67.13208 -102.01260
v 26.04880 78.35603 75.60719
v 14.96050 86.94813 75.60710
v 0.00000 91.67884 75.60741
v 35.26530 52.35869 -1.70551
v 33.23100 46.54469 -1.71901
v 31.84360 65.26553 75.60711
v 28.52210 65.65531 94.02100
v 23.50740 75.74322 93.82568
v 30.29550 57.47812 95.17260
v 24.83730 64.17461 108.64819
v 21.14860 73.18861 108.07910
v 25.76010 55.11402 109.89069
v 24.83730 64.17461 108.64819
v 17.85810 61.49471 135.15239
v 11.34390 52.51841 135.15059
v 25.76010 55.11402 109.89069
v -0.00000 68.77737 -102.75100
v -0.00000 67.94368 -102.57635
v 3.79399 71.48518 -104.97693
v 3.89739 72.62344 -104.97783
v 2.64349 72.48088 -105.82893
v 2.48819 71.44808 -105.94433
v 7.21490 71.58009 -96.47388
v 10.70219 71.69338 -88.11691
v 25.88520 48.84942 107.90209
v 28.64850 47.10182 106.57199
v 29.98350 44.27751 96.65299
v 25.84740 43.46172 95.52090
v 15.69285 40.99342 93.89469
v 33.08940 46.18111 87.86150
v 30.65310 46.43382 82.35860
v 27.59280 50.81532 106.75080
v 29.50590 48.07542 105.83549
v 14.74705 45.98456 108.94035
v 23.41450 50.06142 110.17781
v 30.97780 52.40781 96.06440
v 32.41070 49.13202 97.11699
v 32.67689 50.49002 83.93059
v 33.74319 47.80571 88.96829
v 0.00000 39.12832 93.26139
v 0.00000 44.00592 108.07890
v -0.00000 50.13500 135.15239
v 14.74705 45.98456 108.94035
v 0.00000 44.00592 108.07890
v 23.41450 50.06142 110.17781
v 7.21490 71.58009 -96.47388
v 3.79399 71.48518 -104.97693
v -0.00000 76.02629 -85.72810
v 2.48819 71.44808 -105.94433
v -0.00000 66.88898 -85.41441
v 4.73300 68.72189 -98.47569
v 18.89600 70.82800 -66.17261
v 1.70710 68.79573 -102.58430
v 2.83189 68.76598 -102.01571
v 13.53870 71.62309 -81.92731
v 10.70219 71.69338 -88.11691
v -0.00000 68.77737 -102.75100
v 28.36690 53.76020 -38.31271
v 17.45600 43.92319 -38.36151
v 11.42530 62.58102 178.97237
v 6.68325 57.10312 178.97243
v 5.60800 56.87731 193.64095
v 9.60270 62.24601 193.64049
v 11.29900 68.15501 178.97237
v 9.59080 67.81001 193.63988
v -0.00000 54.28411 160.16759
v 8.25935 56.06092 160.16759
v 13.45220 67.77493 160.16759
v 13.80770 61.97662 160.16759
v 4.18380 53.10102 214.06621
v 7.31830 58.47582 216.10587
v -0.00000 51.55282 213.55417
v -0.00000 55.26372 193.64101
v 6.28700 63.82423 217.92827
v 3.72610 67.30474 218.76207
v 4.29780 73.73531 193.90208
v 4.86940 47.04693 232.05902
v 3.50385 52.56773 233.41560
v -0.00000 57.42193 232.76529
v 2.78245 43.26248 230.06958
v 0.00000 42.16438 229.52943
v 1.00110 30.84704 249.00769
v 1.35420 31.16154 250.81349
v 0.00000 29.37474 249.79207
v 0.00000 32.75014 251.64978
v 1.08340 33.50714 250.49458
v 0.00000 29.02214 252.79869
v 0.70370 79.57433 221.43788
v -0.00000 81.14744 222.72287
v -0.00000 77.54021 195.28029
v 0.65080 83.38833 214.39957
v -0.00000 85.18224 214.03868
v 6.34090 72.75581 178.97249
v 8.00020 72.69662 160.16759
v -0.00000 75.65752 178.97249
v -0.00000 75.42242 160.16759
v 7.18510 92.45269 -65.70982
v 10.46850 95.12159 -53.20992
v 0.00000 98.54650 -52.75701
v 0.00000 93.76618 -65.71852
v 13.10150 84.21651 93.82359
v 11.95140 81.07641 108.07898
v 0.00000 84.14561 108.07890
v 0.00000 87.77431 93.81748
v 12.64810 98.05711 -38.24272
v 14.19690 98.63261 -18.92212
v -0.00000 103.35630 -18.87232
v 0.00000 102.32999 -38.24691
v 2.02179 73.92668 -104.97853
v -0.00000 74.44908 -104.97734
v -0.00000 72.73924 -106.24684
v 1.37574 72.67033 -106.18273
v -0.00000 71.43079 -106.57613
v 1.27929 71.42568 -106.52193
v 1.27929 71.42568 -106.52193
v -0.00000 71.43079 -106.57613
v -0.00000 39.47668 -38.38131
v -0.00000 32.10059 -21.12111
v 18.60820 37.13569 -20.97916
v 30.78090 44.13159 -19.19191
v 32.25359 43.36949 -4.57851
v 36.89270 47.35850 -6.29911
v 35.37650 47.27710 -17.72331
v 37.07840 51.23700 -24.77451
v 38.83199 52.14140 -17.76451
v 37.10680 55.63220 -18.39451
v 35.17060 55.08690 -27.55371
v 45.94290 44.64479 -24.64050
v 57.07859 37.90539 -24.21020
v 58.34499 39.24300 -14.03400
v 47.35399 46.19080 -16.21651
v 57.48979 38.13380 -0.79530
v 46.49380 44.98009 -3.96530
v 68.58830 31.39260 -22.09650
v 80.55160 24.55910 -18.51020
v 81.63460 25.69730 -9.30690
v 69.78769 32.63691 -11.90990
v 107.52963 10.15940 1.59720
v 107.01752 9.29760 -2.03900
v 111.76372 6.66360 3.75090
v 107.16862 9.40030 5.14560
v 56.94229 37.52549 -1.63030
v 55.87579 36.55709 -13.57510
v 44.90979 43.54550 -15.64570
v 46.02670 44.36130 -4.58630
v 106.22922 8.36890 1.51570
v 106.82892 8.98180 4.98850
v 111.41371 6.33870 3.65700
v 56.58279 37.31440 -23.42230
v 68.12660 30.85140 -21.37020
v 111.41371 6.33870 3.65700
v 38.83199 52.14140 -17.76451
v 45.45200 44.13359 -24.08530
v 37.07840 51.23700 -24.77451
v 34.94480 49.62309 -25.61921
v 35.37650 47.27710 -17.72331
v 45.45200 44.13359 -24.08530
v 34.94480 49.62309 -25.61921
v 95.15401 17.62750 -3.88020
v 94.23752 16.66410 -11.19910
v 93.79922 16.14510 -11.00800
v 106.67743 8.87730 -2.16880
v 36.89270 47.35850 -6.29911
v 80.80020 24.57740 1.33360
v 68.95260 31.42031 0.63070
v 80.34700 24.05980 0.83250
v 68.43250 30.83390 -0.13250
v 79.52000 23.23730 -8.36780
v 67.44110 29.91220 -11.19800
v 37.93909 49.07900 -6.03831
v 56.58279 37.31440 -23.42230
v 68.12660 30.85140 -21.37020
v 93.79922 16.14510 -11.00800
v 93.23961 15.40870 -3.55960
v 106.67743 8.87730 -2.16880
v 80.09960 24.02850 -17.82110
v 94.37360 16.66810 3.39060
v 93.98030 16.20530 3.02910
v 80.09960 24.02850 -17.82110
v 37.93909 49.07900 -6.03831
v 37.39660 53.29660 -5.37801
v 34.94480 49.62309 -25.61921
v 29.53300 47.86009 -31.44041
v 30.74760 52.15950 -33.75282
v -0.00000 55.48151 178.97237
v 40.87199 39.40611 100.02979
v 43.58979 41.31171 91.74889
v 33.08940 46.18111 87.86150
v 29.98350 44.27751 96.65299
v 43.72069 42.05962 92.52109
v 42.20259 42.79691 100.48549
v 32.41070 49.13202 97.11699
v 33.74319 47.80571 88.96829
v 40.54019 41.03212 108.97699
v 29.50590 48.07542 105.83549
v 55.48160 35.66321 95.77159
v 52.94440 33.90291 102.21729
v 55.59470 36.38251 96.50939
v 54.16820 37.09241 102.87259
v 74.77749 25.68281 104.69949
v 66.58038 30.18401 99.99889
v 64.31839 28.53351 105.02869
v 73.15379 24.32361 107.41999
v 63.30619 29.97751 110.31279
v 72.82188 25.59631 110.76959
v 74.98569 26.36831 104.87749
v 74.32659 26.98661 107.90540
v 65.50539 31.59271 105.61478
v 66.73549 30.87601 100.55099
v 73.10658 26.28481 110.76569
v 63.69909 30.70061 110.15679
v 40.54019 41.03212 108.97699
v 40.17490 40.29232 109.92970
v 28.64850 47.10182 106.57199
v 29.50590 48.07542 105.83549
v 52.69959 35.72861 109.13390
v 52.26630 34.97071 109.49469
v 73.10658 26.28481 110.76569
v 63.69909 30.70061 110.15679
v 78.15939 23.43501 109.15089
v 78.09589 24.25321 109.10049
v 78.09589 24.25321 109.10049
v 52.69959 35.72861 109.13390
v -0.00000 71.39520 -66.84811
v 14.58356 82.78651 -77.62993
v 11.75912 86.08125 -77.10508
v 11.80577 82.69592 -81.06496
v 13.19093 79.77020 -80.47971
v 14.96519 79.66364 -75.57999
v 14.60665 82.62814 -73.86726
v -11.72770 75.33218 -75.95813
v -18.14600 71.91439 -65.74541
v -17.96630 69.66689 -66.03131
v -11.70520 67.28378 -75.99390
v -11.61750 86.73668 -76.95989
v -11.65210 84.22587 -79.89684
v -5.25890 83.91888 -88.20073
v -5.36660 90.04478 -77.16833
v -13.18210 83.92388 -75.80663
v -12.30623 85.25955 -77.04285
v -13.72944 84.17561 -74.55848
v -11.99110 84.14008 -78.50704
v -12.26920 83.37907 -78.72432
v -12.67944 82.05594 -79.46277
v -13.10090 83.24298 -76.38892
v -13.99537 81.97691 -75.82877
v -8.10345 73.56578 -96.48253
v -3.82225 78.46494 -97.12389
v -29.13290 83.72571 34.58028
v -28.03621 87.77190 -1.70471
v -15.45460 98.49031 -1.70542
v -16.51360 94.41730 34.63638
v -4.73300 68.72189 -98.47570
v -18.89600 70.82800 -66.17261
v -18.30520 65.51798 -66.10451
v -3.76003 66.68893 -98.47917
v -11.80815 58.94788 -66.03087
v -14.47810 53.32919 -52.81145
v -13.53870 71.62309 -81.92732
v -15.23470 74.31358 -81.97152
v -20.05860 73.46850 -66.16341
v -37.07170 55.26010 34.57970
v -37.29950 58.15370 -1.69201
v -34.87220 72.05998 -1.70331
v -35.89530 66.86790 34.57969
v -18.65835 31.04565 34.57920
v -17.45570 37.70641 75.60565
v -16.75860 69.21631 135.15227
v -21.14860 73.18861 108.07910
v -11.95140 81.07641 108.07898
v -9.83520 76.07291 135.15239
v -29.96310 45.80782 75.61090
v -32.82840 43.40320 34.57919
v -33.53000 54.94133 75.60261
v -2.31530 67.66358 -102.00776
v -2.83190 68.76598 -102.01571
v -1.77782 68.08253 -102.44681
v -1.70710 68.79573 -102.58430
v -15.15335 86.57349 -66.21114
v -25.12240 66.76379 -52.85962
v -19.75340 86.61538 -53.46661
v -19.30755 33.21014 -1.69545
v -23.53810 59.48419 -52.77951
v -31.65970 63.59550 -38.30981
v -24.21260 76.52368 -53.17241
v -28.92230 75.95090 -38.26431
v -23.04070 88.26419 -38.25182
v -35.45620 61.29339 -19.14511
v -32.13170 74.58460 -19.12541
v -25.77910 87.89690 -19.02232
v -14.96050 86.94813 75.60710
v -26.04880 78.35603 75.60719
v -35.26530 52.35870 -1.70551
v -33.23100 46.54469 -1.71901
v -31.84360 65.26553 75.60711
v -28.52210 65.65531 94.02100
v -23.50740 75.74322 93.82568
v -30.29550 57.47812 95.17260
v -24.83730 64.17461 108.64819
v -21.14860 73.18861 108.07910
v -25.76010 55.11402 109.89069
v -24.83730 64.17461 108.64819
v -17.85810 61.49471 135.15239
v -11.34390 52.51841 135.15059
v -25.76010 55.11402 109.89069
v -3.79400 71.48518 -104.97693
v -2.48820 71.44808 -105.94433
v -2.64350 72.48088 -105.82893
v -3.89740 72.62344 -104.97783
v -7.21490 71.58009 -96.47388
v -10.70220 71.69338 -88.11692
v -25.88520 48.84941 107.90209
v -25.84740 43.46172 95.52090
v -29.98350 44.27751 96.65299
v -28.64850 47.10182 106.57199
v -15.69285 40.99342 93.89469
v -30.65310 46.43382 82.35860
v -33.08940 46.18111 87.86150
v -29.50590 48.07542 105.83549
v -27.59280 50.81532 106.75080
v -23.41450 50.06142 110.17781
v -14.74705 45.98456 108.94035
v -30.97780 52.40781 96.06440
v -32.41070 49.13202 97.11699
v -32.67689 50.49002 83.93059
v -33.74319 47.80571 88.96829
v -14.74705 45.98456 108.94035
v -23.41450 50.06142 110.17781
v -7.21490 71.58009 -96.47388
v -3.79400 71.48518 -104.97693
v -2.48820 71.44808 -105.94433
v -18.89600 70.82800 -66.17261
v -4.73300 68.72189 -98.47570
v -1.70710 68.79573 -102.58430
v -2.83190 68.76598 -102.01571
v -13.53870 71.62309 -81.92732
v -10.70220 71.69338 -88.11692
v -28.36690 53.76020 -38.31271
v -17.45600 43.92319 -38.36151
v -11.42530 62.58102 178.97237
v -9.60270 62.24601 193.64049
v -5.60800 56.87731 193.64095
v -6.68325 57.10312 178.97243
v -11.29900 68.15501 178.97237
v -9.59080 67.81001 193.63988
v -8.25935 56.06092 160.16759
v -13.45220 67.77493 160.16759
v -13.80770 61.97662 160.16759
v -4.18380 53.10102 214.06621
v -7.31830 58.47582 216.10587
v -6.28700 63.82423 217.92827
v -4.29780 73.73531 193.90208
v -3.72610 67.30474 218.76207
v -4.86940 47.04693 232.05902
v -3.50385 52.56773 233.41560
v -2.78245 43.26248 230.06958
v -1.00110 30.84704 249.00769
v -1.35420 31.16154 250.81349
v -1.08340 33.50714 250.49458
v -0.70370 79.57433 221.43788
v -0.65080 83.38833 214.39957
v -8.00020 72.69662 160.16759
v -6.34090 72.75581 178.97249
v -7.18510 92.45269 -65.70982
v -10.46850 95.12159 -53.20992
v -13.10150 84.21651 93.82359
v -11.95140 81.07641 108.07898
v -12.64810 98.05711 -38.24272
v -14.19690 98.63261 -18.92212
v -2.02180 73.92668 -104.97853
v -1.37575 72.67033 -106.18273
v -1.27930 71.42568 -106.52193
v -1.27930 71.42568 -106.52193
v -18.60820 37.13569 -20.97916
v -30.78090 44.13159 -19.19191
v -32.25360 43.36949 -4.57851
v -35.37650 47.27710 -17.72331
v -36.89270 47.35850 -6.29911
v -37.07840 51.23700 -24.77451
v -35.17060 55.08690 -27.55371
v -37.10680 55.63221 -18.39451
v -38.83200 52.14140 -17.76451
v -45.94290 44.64480 -24.64051
v -47.35400 46.19080 -16.21651
v -58.34500 39.24300 -14.03401
v -57.07859 37.90539 -24.21020
v -57.48979 38.13380 -0.79530
v -46.49380 44.98010 -3.96531
v -68.58830 31.39260 -22.09651
v -69.78769 32.63691 -11.90990
v -81.63460 25.69730 -9.30690
v -80.55159 24.55910 -18.51021
v -107.52962 10.15941 1.59719
v -111.76371 6.66361 3.75089
v -107.01751 9.29761 -2.03901
v -107.16861 9.40031 5.14559
v -56.94230 37.52550 -1.63030
v -46.02670 44.36130 -4.58631
v -44.90979 43.54550 -15.64571
v -55.87579 36.55710 -13.57510
v -106.22921 8.36891 1.51569
v -111.41370 6.33871 3.65699
v -106.82891 8.98181 4.98849
v -68.12660 30.85140 -21.37021
v -56.58280 37.31440 -23.42230
v -111.41370 6.33871 3.65699
v -38.83200 52.14140 -17.76451
v -45.45200 44.13359 -24.08531
v -34.94480 49.62309 -25.61921
v -37.07840 51.23700 -24.77451
v -35.37650 47.27710 -17.72331
v -34.94480 49.62309 -25.61921
v -45.45200 44.13359 -24.08531
v -94.23751 16.66411 -11.19911
v -95.15401 17.62751 -3.88021
v -93.79921 16.14511 -11.00801
v -106.67742 8.87731 -2.16881
v -36.89270 47.35850 -6.29911
v -68.95260 31.42031 0.63070
v -80.80020 24.57740 1.33359
v -80.34700 24.05980 0.83249
v -68.43250 30.83391 -0.13250
v -67.44110 29.91221 -11.19800
v -79.52000 23.23730 -8.36781
v -37.93910 49.07900 -6.03831
v -56.58280 37.31440 -23.42230
v -68.12660 30.85140 -21.37021
v -93.79921 16.14511 -11.00801
v -106.67742 8.87731 -2.16881
v -93.23961 15.40871 -3.55961
v -80.09960 24.02850 -17.82111
v -94.37360 16.66811 3.39059
v -93.98030 16.20531 3.02909
v -80.09960 24.02850 -17.82111
v -37.93910 49.07900 -6.03831
v -37.39660 53.29660 -5.37801
v -34.94480 49.62309 -25.61921
v -29.53300 47.86009 -31.44041
v -30.74760 52.15950 -33.75282
v -40.87199 39.40611 100.02979
v -29.98350 44.27751 96.65299
v -33.08940 46.18111 87.86150
v -43.58980 41.31171 91.74889
v -43.72070 42.05962 92.52109
v -33.74319 47.80571 88.96829
v -32.41070 49.13202 97.11699
v -42.20259 42.79691 100.48549
v -29.50590 48.07542 105.83549
v -40.54019 41.03212 108.97698
v -55.48160 35.66321 95.77159
v -52.94440 33.90291 102.21729
v -55.59470 36.38251 96.50938
v -54.16820 37.09241 102.87258
v -74.77749 25.68281 104.69949
v -73.15379 24.32361 107.41998
v -64.31839 28.53351 105.02869
v -66.58038 30.18401 99.99889
v -63.30618 29.97751 110.31278
v -72.82188 25.59631 110.76958
v -74.98569 26.36831 104.87749
v -66.73549 30.87601 100.55099
v -65.50539 31.59271 105.61478
v -74.32659 26.98661 107.90539
v -63.69909 30.70061 110.15678
v -73.10658 26.28481 110.76569
v -40.54019 41.03212 108.97698
v -29.50590 48.07542 105.83549
v -28.64850 47.10182 106.57199
v -40.17490 40.29232 109.92969
v -52.69959 35.72861 109.13389
v -52.26630 34.97071 109.49468
v -73.10658 26.28481 110.76569
v -63.69909 30.70061 110.15678
v -78.15939 23.43501 109.15089
v -78.09589 24.25321 109.10049
v -78.09589 24.25321 109.10049
v -52.69959 35.72861 109.13389
v -14.58356 82.78651 -77.62993
v -11.80577 82.69592 -81.06496
v -11.75912 86.08125 -77.10508
v -13.19093 79.77020 -80.47971
v -14.96519 79.66364 -75.57999
v -14.60665 82.62814 -73.86726
vt 0.765000 0.471500
vt 0.678100 0.499700
vt 0.660200 0.354100
vt 0.683200 0.342400
vt 0.213650 0.860660
vt 0.206100 0.888400
vt 0.156100 0.860300
vt 0.186300 0.843850
vt 0.196700 0.911400
vt 0.143600 0.881800
vt 0.221200 0.844000
vt 0.235650 0.841450
vt 0.214300 0.850400
vt 0.208400 0.846300
vt 0.207600 0.842800
vt 0.197060 0.831860
vt 0.231000 0.831250
vt 0.218400 0.841300
vt 0.121820 0.815740
vt 0.112100 0.838650
vt 0.103750 0.855000
vt 0.667100 0.850700
vt 0.668000 0.912900
vt 0.527600 0.922900
vt 0.531900 0.860200
vt 0.672600 0.980700
vt 0.524500 0.987500
vt 0.103000 0.745200
vt 0.102930 0.735100
vt 0.269700 0.748700
vt 0.268200 0.775100
vt 0.262560 0.705060
vt 0.239500 0.647400
vt 0.301700 0.617600
vt 0.325000 0.680600
vt 0.274643 0.799814
vt 0.195300 0.807650
vt 0.188700 0.785600
vt 0.670200 0.741800
vt 0.668700 0.784100
vt 0.539300 0.802100
vt 0.547700 0.751400
vt 0.846900 0.583500
vt 0.832600 0.651350
vt 0.676800 0.625400
vt 0.683600 0.550600
vt 0.463800 0.391000
vt 0.442200 0.354800
vt 0.541300 0.291700
vt 0.568400 0.332000
vt 0.418100 0.317800
vt 0.510600 0.249300
vt 0.824400 0.709400
vt 0.821400 0.746400
vt 0.649120 0.695120
vt 0.084400 0.740400
vt 0.085300 0.735500
vt 0.079450 0.737050
vt 0.081233 0.734733
vt 0.265700 0.854500
vt 0.336400 0.762000
vt 0.325000 0.851400
vt 0.545060 0.628200
vt 0.534900 0.549300
vt 0.334600 0.729600
vt 0.095400 0.716500
vt 0.396300 0.759700
vt 0.395700 0.805000
vt 0.331700 0.804400
vt 0.389700 0.858000
vt 0.475900 0.761400
vt 0.470500 0.810700
vt 0.465900 0.860000
vt 0.080300 0.725900
vt 0.820400 0.835500
vt 0.825800 0.888000
vt 0.836200 0.948400
vt 0.549200 0.726000
vt 0.549800 0.700400
vt 0.820200 0.784700
vt 0.889500 0.786300
vt 0.890900 0.825700
vt 0.893200 0.758200
vt 0.947900 0.781900
vt 0.947800 0.817700
vt 0.951600 0.748800
vt 0.585300 0.365500
vt 0.478200 0.421400
vt 0.491133 0.467033
vt 0.596600 0.398200
vt 0.074100 0.731400
vt 0.076900 0.728850
vt 0.074700 0.807700
vt 0.076800 0.812700
vt 0.070433 0.814367
vt 0.067700 0.811100
vt 0.116150 0.799450
vt 0.157000 0.791700
vt 0.940100 0.720380
vt 0.931800 0.724000
vt 0.897700 0.716700
vt 0.898300 0.701600
vt 0.901633 0.668700
vt 0.867600 0.720500
vt 0.852040 0.709440
vt 0.936200 0.734300
vt 0.929500 0.725300
vt 0.961200 0.680950
vt 0.956800 0.724400
vt 0.896000 0.741300
vt 0.898300 0.728800
vt 0.853200 0.732400
vt 0.870900 0.724400
vt 0.916400 0.603300
vt 0.975300 0.623100
vt 0.496300 0.523900
vt 0.610200 0.460150
vt 0.614600 0.523200
vt 0.601500 0.419100
vt 0.824550 0.374200
vt 0.785700 0.358100
vt 0.902917 0.370383
vt 0.780900 0.352300
vt 0.818900 0.440000
vt 0.791700 0.373800
vt 0.961333 0.433567
vt 0.766450 0.368350
vt 0.772700 0.366900
vt 0.891500 0.403600
vt 0.862700 0.390500
vt 0.759200 0.373100
vt 0.393400 0.715800
vt 0.391740 0.657300
vt 0.294100 0.489500
vt 0.303400 0.521950
vt 0.230950 0.548800
vt 0.220450 0.519850
vt 0.284900 0.465200
vt 0.210400 0.496300
vt 0.389400 0.536200
vt 0.382600 0.499550
vt 0.361700 0.436300
vt 0.372200 0.462300
vt 0.167300 0.587750
vt 0.147200 0.558100
vt 0.178200 0.603900
vt 0.239150 0.571900
vt 0.132200 0.538200
vt 0.122100 0.524200
vt 0.189333 0.466233
vt 0.094900 0.622300
vt 0.081650 0.601350
vt 0.083089 0.569989
vt 0.112200 0.642625
vt 0.120350 0.653050
vt 0.041400 0.705900
vt 0.033800 0.705600
vt 0.039900 0.714000
vt 0.026100 0.699900
vt 0.032500 0.696100
vt 0.026800 0.717200
vt 0.092000 0.478100
vt 0.084200 0.473500
vt 0.177450 0.437950
vt 0.113700 0.452500
vt 0.112100 0.444500
vt 0.271200 0.435400
vt 0.345600 0.404500
vt 0.257800 0.406900
vt 0.328400 0.372600
vt 0.258600 0.900000
vt 0.317300 0.905300
vt 0.308300 0.953300
vt 0.248200 0.931800
vt 0.897700 0.875100
vt 0.954300 0.863100
vt 0.965000 0.911100
vt 0.908800 0.927400
vt 0.381600 0.915300
vt 0.459700 0.921600
vt 0.453300 0.982300
vt 0.372600 0.970400
vt 0.073700 0.822000
vt 0.068700 0.829900
vt 0.061850 0.822550
vt 0.066300 0.818500
vt 0.058100 0.817900
vt 0.062500 0.814300
vt 0.777900 0.347000
vt 0.777100 0.341200
vt 0.377800 0.584100
vt 0.453900 0.561600
vt 0.466300 0.638533
vt 0.477800 0.682200
vt 0.536300 0.686500
vt 0.527200 0.708500
vt 0.484800 0.702400
vt 0.461700 0.721200
vt 0.485800 0.728900
vt 0.481800 0.742300
vt 0.445700 0.733200
vt 0.911700 0.291500
vt 0.835600 0.299600
vt 0.825800 0.237100
vt 0.903800 0.239000
vt 0.816100 0.159700
vt 0.892412 0.160929
vt 0.755500 0.295100
vt 0.674000 0.276100
vt 0.670300 0.221400
vt 0.748800 0.232500
vt 0.501700 0.177600
vt 0.505300 0.198600
vt 0.470100 0.174700
vt 0.496700 0.155200
vt 0.817800 0.153400
vt 0.831200 0.085400
vt 0.909100 0.087100
vt 0.894291 0.155000
vt 0.502900 0.129600
vt 0.496600 0.151500
vt 0.467900 0.129400
vt 0.836200 0.306100
vt 0.754700 0.301100
vt 0.467800 0.175600
vt 0.969300 0.241800
vt 0.913300 0.296400
vt 0.976100 0.286900
vt 0.979700 0.302700
vt 0.972800 0.083100
vt 0.916100 0.037000
vt 0.984100 0.036900
vt 0.582400 0.197200
vt 0.587000 0.237500
vt 0.585400 0.241000
vt 0.504800 0.201700
vt 0.958251 0.155642
vt 0.667000 0.157900
vt 0.744000 0.158700
vt 0.668000 0.152900
vt 0.745200 0.152600
vt 0.674000 0.099400
vt 0.753200 0.089100
vt 0.954964 0.169364
vt 0.839100 0.026600
vt 0.757900 0.028500
vt 0.590000 0.077200
vt 0.586100 0.116600
vt 0.507200 0.109000
vt 0.671600 0.281200
vt 0.578700 0.156300
vt 0.579700 0.152400
vt 0.676200 0.045200
vt 0.525267 0.719633
vt 0.532400 0.733200
vt 0.456300 0.712100
vt 0.427800 0.695800
vt 0.417000 0.714200
vt 0.310500 0.551200
vt 0.116800 0.174800
vt 0.115500 0.241300
vt 0.017200 0.247900
vt 0.022600 0.175600
vt 0.116000 0.249200
vt 0.126600 0.309100
vt 0.035500 0.320600
vt 0.021000 0.261000
vt 0.145700 0.366500
vt 0.049500 0.388500
vt 0.215500 0.233200
vt 0.215300 0.180400
vt 0.216400 0.240700
vt 0.223800 0.288000
vt 0.394500 0.217200
vt 0.312200 0.224900
vt 0.312800 0.181400
vt 0.391900 0.187100
vt 0.311600 0.136800
vt 0.395500 0.157300
vt 0.395800 0.223500
vt 0.399100 0.251900
vt 0.319100 0.270100
vt 0.312900 0.231400
vt 0.402700 0.278000
vt 0.324700 0.308000
vt 0.127600 0.098000
vt 0.126600 0.107300
vt 0.026200 0.094800
vt 0.028500 0.083500
vt 0.220600 0.118500
vt 0.219200 0.125400
vt 0.397700 0.151600
vt 0.313100 0.130200
vt 0.430500 0.185900
vt 0.437900 0.250500
vt 0.435400 0.186000
vt 0.236700 0.334700
vt 0.924950 0.415300
vt 0.070290 0.927310
vt 0.073525 0.959762
vt 0.041392 0.934492
vt 0.045400 0.908021
vt 0.090404 0.906900
vt 0.104996 0.935967
vt 0.765000 0.471500
vt 0.683200 0.342400
vt 0.660200 0.354100
vt 0.678100 0.499700
vt 0.213650 0.860660
vt 0.186300 0.843850
vt 0.156100 0.860300
vt 0.206100 0.888400
vt 0.221200 0.844000
vt 0.214300 0.850400
vt 0.235650 0.841450
vt 0.208400 0.846300
vt 0.207600 0.842800
vt 0.197060 0.831860
vt 0.218400 0.841300
vt 0.231000 0.831250
vt 0.121820 0.815740
vt 0.112100 0.838650
vt 0.667100 0.850700
vt 0.531900 0.860200
vt 0.527600 0.922900
vt 0.668000 0.912900
vt 0.103000 0.745200
vt 0.268200 0.775100
vt 0.269700 0.748700
vt 0.102930 0.735100
vt 0.262560 0.705060
vt 0.325000 0.680600
vt 0.188700 0.785600
vt 0.195300 0.807650
vt 0.274643 0.799814
vt 0.670200 0.741800
vt 0.547700 0.751400
vt 0.539300 0.802100
vt 0.668700 0.784100
vt 0.676800 0.625400
vt 0.832600 0.651350
vt 0.463800 0.391000
vt 0.568400 0.332000
vt 0.541300 0.291700
vt 0.442200 0.354800
vt 0.824400 0.709400
vt 0.649120 0.695120
vt 0.821400 0.746400
vt 0.085300 0.735500
vt 0.084400 0.740400
vt 0.081233 0.734733
vt 0.079450 0.737050
vt 0.265700 0.854500
vt 0.336400 0.762000
vt 0.325000 0.851400
vt 0.545060 0.628200
vt 0.334600 0.729600
vt 0.396300 0.759700
vt 0.331700 0.804400
vt 0.395700 0.805000
vt 0.389700 0.858000
vt 0.475900 0.761400
vt 0.470500 0.810700
vt 0.465900 0.860000
vt 0.825800 0.888000
vt 0.820400 0.835500
vt 0.549200 0.726000
vt 0.549800 0.700400
vt 0.820200 0.784700
vt 0.889500 0.786300
vt 0.890900 0.825700
vt 0.893200 0.758200
vt 0.947900 0.781900
vt 0.947800 0.817700
vt 0.951600 0.748800
vt 0.585300 0.365500
vt 0.478200 0.421400
vt 0.491133 0.467033
vt 0.596600 0.398200
vt 0.074700 0.807700
vt 0.067700 0.811100
vt 0.070433 0.814367
vt 0.076800 0.812700
vt 0.116150 0.799450
vt 0.157000 0.791700
vt 0.940100 0.720380
vt 0.898300 0.701600
vt 0.897700 0.716700
vt 0.931800 0.724000
vt 0.901633 0.668700
vt 0.852040 0.709440
vt 0.867600 0.720500
vt 0.929500 0.725300
vt 0.936200 0.734300
vt 0.956800 0.724400
vt 0.961200 0.680950
vt 0.896000 0.741300
vt 0.898300 0.728800
vt 0.853200 0.732400
vt 0.870900 0.724400
vt 0.610200 0.460150
vt 0.601500 0.419100
vt 0.824550 0.374200
vt 0.785700 0.358100
vt 0.780900 0.352300
vt 0.961333 0.433567
vt 0.791700 0.373800
vt 0.766450 0.368350
vt 0.772700 0.366900
vt 0.891500 0.403600
vt 0.862700 0.390500
vt 0.393400 0.715800
vt 0.391740 0.657300
vt 0.294100 0.489500
vt 0.220450 0.519850
vt 0.230950 0.548800
vt 0.303400 0.521950
vt 0.284900 0.465200
vt 0.210400 0.496300
vt 0.382600 0.499550
vt 0.361700 0.436300
vt 0.372200 0.462300
vt 0.167300 0.587750
vt 0.147200 0.558100
vt 0.132200 0.538200
vt 0.189333 0.466233
vt 0.122100 0.524200
vt 0.094900 0.622300
vt 0.081650 0.601350
vt 0.112200 0.642625
vt 0.041400 0.705900
vt 0.033800 0.705600
vt 0.032500 0.696100
vt 0.092000 0.478100
vt 0.113700 0.452500
vt 0.345600 0.404500
vt 0.271200 0.435400
vt 0.258600 0.900000
vt 0.317300 0.905300
vt 0.897700 0.875100
vt 0.954300 0.863100
vt 0.381600 0.915300
vt 0.459700 0.921600
vt 0.073700 0.822000
vt 0.066300 0.818500
vt 0.062500 0.814300
vt 0.777900 0.347000
vt 0.466300 0.638533
vt 0.477800 0.682200
vt 0.536300 0.686500
vt 0.484800 0.702400
vt 0.527200 0.708500
vt 0.461700 0.721200
vt 0.445700 0.733200
vt 0.481800 0.742300
vt 0.485800 0.728900
vt 0.911700 0.291500
vt 0.903800 0.239000
vt 0.825800 0.237100
vt 0.835600 0.299600
vt 0.816100 0.159700
vt 0.892412 0.160929
vt 0.755500 0.295100
vt 0.748800 0.232500
vt 0.670300 0.221400
vt 0.674000 0.276100
vt 0.501700 0.177600
vt 0.470100 0.174700
vt 0.505300 0.198600
vt 0.496700 0.155200
vt 0.817800 0.153400
vt 0.894291 0.155000
vt 0.909100 0.087100
vt 0.831200 0.085400
vt 0.502900 0.129600
vt 0.467900 0.129400
vt 0.496600 0.151500
vt 0.754700 0.301100
vt 0.836200 0.306100
vt 0.467800 0.175600
vt 0.969300 0.241800
vt 0.913300 0.296400
vt 0.979700 0.302700
vt 0.976100 0.286900
vt 0.972800 0.083100
vt 0.984100 0.036900
vt 0.916100 0.037000
vt 0.587000 0.237500
vt 0.582400 0.197200
vt 0.585400 0.241000
vt 0.504800 0.201700
vt 0.958251 0.155642
vt 0.744000 0.158700
vt 0.667000 0.157900
vt 0.668000 0.152900
vt 0.745200 0.152600
vt 0.753200 0.089100
vt 0.674000 0.099400
vt 0.954964 0.169364
vt 0.839100 0.026600
vt 0.757900 0.028500
vt 0.590000 0.077200
vt 0.507200 0.109000
vt 0.586100 0.116600
vt 0.671600 0.281200
vt 0.578700 0.156300
vt 0.579700 0.152400
vt 0.676200 0.045200
vt 0.525267 0.719633
vt 0.532400 0.733200
vt 0.456300 0.712100
vt 0.427800 0.695800
vt 0.417000 0.714200
vt 0.116800 0.174800
vt 0.022600 0.175600
vt 0.017200 0.247900
vt 0.115500 0.241300
vt 0.116000 0.249200
vt 0.021000 0.261000
vt 0.035500 0.320600
vt 0.126600 0.309100
vt 0.049500 0.388500
vt 0.145700 0.366500
vt 0.215500 0.233200
vt 0.215300 0.180400
vt 0.216400 0.240700
vt 0.223800 0.288000
vt 0.394500 0.217200
vt 0.391900 0.187100
vt 0.312800 0.181400
vt 0.312200 0.224900
vt 0.311600 0.136800
vt 0.395500 0.157300
vt 0.395800 0.223500
vt 0.312900 0.231400
vt 0.319100 0.270100
vt 0.399100 0.251900
vt 0.324700 0.308000
vt 0.402700 0.278000
vt 0.127600 0.098000
vt 0.028500 0.083500
vt 0.026200 0.094800
vt 0.126600 0.107300
vt 0.220600 0.118500
vt 0.219200 0.125400
vt 0.397700 0.151600
vt 0.313100 0.130200
vt 0.430500 0.185900
vt 0.437900 0.250500
vt 0.435400 0.186000
vt 0.236700 0.334700
vt 0.070290 0.927310
vt 0.041392 0.934492
vt 0.073525 0.959762
vt 0.045400 0.908021
vt 0.090404 0.906900
vt 0.104996 0.935967
vn 0.84668 -0.00001 -0.53211
vn 0.84668 -0.00000 -0.53210
vn 0.84668 -0.00001 -0.53211
vn 0.84668 -0.00001 -0.53211
vn 0.74235 0.57427 -0.34514
vn 0.36140 0.87689 -0.31693
vn 0.35809 0.78916 -0.49899
vn 0.82550 0.42855 -0.36728
vn -0.00000 0.93298 -0.35992
vn -0.00000 0.87028 -0.49255
vn 0.84933 0.35575 -0.38997
vn 0.87330 0.34615 -0.34282
vn 0.92041 0.29632 -0.25504
vn 0.95215 0.21311 -0.21910
vn 0.88883 0.39959 -0.22430
vn 0.86009 0.40027 -0.31628
vn 0.86121 0.36519 -0.35349
vn 0.83656 0.41068 -0.36265
vn 0.88170 0.10092 -0.46088
vn 0.51715 0.68297 -0.51586
vn -0.00000 0.83913 -0.54393
vn 0.77892 0.62143 0.08437
vn 0.50945 0.85003 0.13381
vn 0.48269 0.87464 0.04492
vn 0.82498 0.56428 -0.03138
vn 0.00000 0.98936 0.14549
vn -0.00000 0.99958 0.02908
vn 0.81846 0.40149 -0.41102
vn 0.58783 -0.70482 -0.39708
vn 0.82951 -0.40622 -0.38327
vn 0.81088 -0.31227 -0.49494
vn 0.49006 -0.77177 -0.40523
vn 0.00000 -0.92887 -0.37041
vn -0.00000 -0.84469 -0.53526
vn 0.30037 -0.82380 -0.48076
vn 0.93052 0.13401 -0.34084
vn 0.93301 -0.04753 -0.35670
vn 0.43369 -0.87688 -0.20735
vn 0.99270 -0.11372 0.04023
vn 0.95929 0.27506 0.06409
vn 0.96745 0.25050 -0.03589
vn 0.99883 -0.04458 0.01854
vn 0.00000 -0.97905 0.20360
vn 0.43916 -0.88794 0.13676
vn 0.43289 -0.90035 0.04456
vn 0.00000 -0.99739 0.07225
vn 0.88122 0.43123 0.19363
vn 0.50576 0.84725 0.16240
vn 0.46948 0.85834 0.20699
vn 0.75622 0.61547 0.22209
vn 0.00000 0.98404 0.17793
vn -0.00000 0.97528 0.22098
vn 0.83361 -0.55196 0.02105
vn 0.99620 -0.03635 0.07911
vn 0.83679 -0.54673 0.02935
vn 0.71473 0.37727 -0.58891
vn 0.48678 -0.49646 -0.71873
vn 0.34883 0.49016 -0.79879
vn 0.21304 -0.35038 -0.91206
vn 0.74090 0.62215 -0.25299
vn 0.87065 -0.20026 -0.44930
vn 0.77239 0.56740 -0.28544
vn 0.46693 -0.88377 -0.03053
vn 0.00000 -0.99483 -0.10152
vn 0.71159 -0.48214 -0.51107
vn 0.00000 -0.95021 -0.31161
vn 0.92830 -0.04331 -0.36929
vn 0.92760 0.32518 -0.18390
vn 0.91379 0.25828 -0.31349
vn 0.79349 0.57614 -0.19606
vn 0.96959 0.21525 -0.11642
vn 0.94112 0.31994 -0.10918
vn 0.80167 0.58917 -0.10098
vn 0.00000 -0.79511 -0.60647
vn 0.80197 0.57629 0.15727
vn 0.46124 0.86835 0.18230
vn -0.00000 0.98089 0.19455
vn 0.92331 -0.32406 0.20611
vn 0.78628 -0.52192 0.33071
vn 0.95255 0.27264 0.13533
vn 0.92119 0.31655 0.22630
vn 0.76487 0.60631 0.21763
vn 0.95943 0.17663 0.21979
vn 0.94636 0.15812 0.28179
vn 0.75622 0.61547 0.22209
vn 0.89510 0.01485 0.44563
vn 0.94636 0.15812 0.28179
vn 0.95183 -0.23888 0.19223
vn 0.62482 -0.72721 0.28421
vn 0.89510 0.01485 0.44563
vn -0.00000 0.31405 -0.94941
vn -0.00000 -0.39553 -0.91845
vn 0.52532 -0.66168 -0.53500
vn 0.69980 0.31766 -0.63982
vn 0.46341 0.21948 -0.85853
vn 0.33496 -0.78058 -0.52772
vn 0.56664 -0.79053 -0.23234
vn 0.31726 -0.93826 -0.13787
vn 0.30443 -0.65665 0.69002
vn -0.05124 -0.09560 0.99410
vn -0.18858 -0.98145 0.03440
vn 0.18423 -0.97310 0.13836
vn 0.22325 -0.94787 0.22739
vn 0.41905 -0.54230 -0.72822
vn 0.62384 -0.76900 -0.13950
vn 0.80063 0.09111 0.59219
vn 0.59122 0.54497 0.59452
vn 0.20494 -0.91740 0.34115
vn 0.59683 -0.50980 0.61960
vn 0.90955 0.34236 0.23560
vn 0.72047 0.68311 0.11952
vn 0.99984 0.00585 -0.01694
vn 0.87710 0.30695 -0.36942
vn -0.00000 -0.95427 0.29893
vn 0.00000 -0.96368 0.26706
vn 0.00000 -0.97612 0.21723
vn 0.20494 -0.91740 0.34115
vn 0.00000 -0.96368 0.26706
vn 0.59683 -0.50980 0.61960
vn 0.56664 -0.79053 -0.23234
vn 0.52532 -0.66168 -0.53500
vn -0.00000 -0.99300 0.11814
vn 0.33496 -0.78058 -0.52772
vn -0.00000 0.99973 0.02310
vn 0.81846 0.40149 -0.41102
vn 0.81088 -0.31227 -0.49494
vn 0.34883 0.49016 -0.79879
vn 0.71473 0.37727 -0.58891
vn 0.43369 -0.87688 -0.20735
vn 0.31726 -0.93826 -0.13787
vn -0.00000 0.31405 -0.94941
vn 0.73112 -0.47587 -0.48888
vn 0.41544 -0.74478 -0.52221
vn 0.91928 -0.37855 0.10780
vn 0.45942 -0.88627 0.05881
vn 0.52644 -0.84933 -0.03866
vn 0.95402 -0.29244 0.06581
vn 0.90722 0.40786 0.10299
vn 0.91230 0.38817 0.13054
vn 0.00000 -0.99316 0.11680
vn 0.54730 -0.82645 0.13209
vn 0.89946 0.41776 0.12824
vn 0.94059 -0.30259 0.15404
vn 0.65067 -0.72237 -0.23414
vn 0.98056 -0.19477 0.02400
vn -0.00000 -0.95850 -0.28508
vn -0.00000 -0.99504 -0.09943
vn 0.89763 0.35622 0.25955
vn 0.88146 0.36713 0.29705
vn 0.78366 0.61911 0.05070
vn 0.98936 -0.13021 0.06492
vn 0.77775 0.38614 0.49599
vn 0.00000 0.57517 0.81803
vn 0.73747 -0.60039 -0.30932
vn -0.00000 -0.85840 -0.51299
vn 0.78079 -0.58141 -0.22874
vn 0.93582 -0.04239 0.34991
vn 0.00000 -0.93228 -0.36175
vn -0.00000 0.46965 0.88285
vn 0.70091 0.33321 0.63063
vn 0.00000 -0.85633 0.51642
vn 0.94947 0.20270 0.23960
vn -0.00000 0.77342 0.63390
vn -0.00000 0.98701 -0.16068
vn 0.92656 0.37549 0.02201
vn 0.00000 0.99814 0.06104
vn 0.60964 0.79206 0.03125
vn 0.52167 0.84988 0.07459
vn 0.00000 0.99955 -0.02985
vn 0.00000 0.99519 0.09795
vn 0.37517 0.88597 -0.27258
vn 0.48589 0.83514 -0.25780
vn 0.00000 0.95554 -0.29485
vn 0.00000 0.95561 -0.29464
vn 0.42622 0.87887 0.21430
vn 0.46948 0.85834 0.20699
vn -0.00000 0.97528 0.22098
vn -0.00000 0.97362 0.22816
vn 0.50867 0.85198 -0.12407
vn 0.49899 0.86547 -0.04435
vn 0.00000 0.99942 -0.03396
vn -0.00000 0.98326 -0.18220
vn 0.34202 0.70342 -0.62307
vn 0.00000 0.72236 -0.69152
vn -0.00000 0.51581 -0.85670
vn 0.19275 0.48065 -0.85547
vn -0.00000 -0.26556 -0.96409
vn 0.23556 -0.50088 -0.83285
vn 0.23556 -0.50088 -0.83285
vn -0.00000 -0.26556 -0.96409
vn 0.00000 -0.88581 -0.46405
vn -0.00000 -0.96298 -0.26959
vn 0.40551 -0.87262 -0.27219
vn 0.56789 -0.80146 -0.18753
vn 0.62987 -0.76823 0.11440
vn 0.33100 -0.80637 0.49011
vn -0.05536 -0.99400 -0.09432
vn 0.64020 0.19413 -0.74328
vn 0.68092 0.73159 -0.03338
vn 0.94777 0.30823 -0.08203
vn 0.90610 -0.00581 -0.42303
vn 0.43342 0.59050 -0.68077
vn -0.04635 -0.26479 -0.96319
vn 0.52052 0.84895 -0.09135
vn 0.55023 0.83457 -0.02734
vn 0.19859 0.56532 0.80061
vn -0.03251 0.28668 0.95747
vn 0.49660 0.60447 -0.62290
vn 0.23652 -0.21802 -0.94685
vn 0.51884 0.85411 -0.03607
vn 0.50226 0.86441 0.02331
vn 0.57295 0.81949 -0.01283
vn 0.68755 0.10747 -0.71814
vn 0.97495 0.14030 -0.17258
vn 0.25792 0.21769 0.94132
vn -0.53904 -0.74008 0.40213
vn -0.51890 -0.85481 0.00675
vn -0.48212 -0.87605 0.00952
vn -0.44843 -0.79941 0.39980
vn -0.43951 -0.89781 0.02774
vn -0.33317 -0.59961 0.72765
vn -0.00678 -0.92304 0.38465
vn -0.45465 -0.83428 -0.31189
vn -0.32754 -0.79450 -0.51136
vn -0.00678 -0.92304 0.38465
vn 0.68092 0.73159 -0.03338
vn -0.34994 -0.70650 -0.61514
vn 0.64020 0.19413 -0.74328
vn 0.54051 -0.56466 -0.62371
vn -0.05536 -0.99400 -0.09432
vn -0.34994 -0.70650 -0.61514
vn 0.54051 -0.56466 -0.62371
vn 0.51654 0.85624 -0.00627
vn 0.61187 0.33039 -0.71865
vn -0.14178 -0.83039 -0.53884
vn 0.27211 -0.70591 -0.65395
vn 0.33100 -0.80637 0.49011
vn 0.12389 0.40845 0.90433
vn -0.06266 0.03726 0.99734
vn -0.47180 -0.73659 0.48459
vn -0.47411 -0.72537 0.49905
vn -0.49109 -0.87101 0.01317
vn -0.49106 -0.87111 0.00514
vn 0.77100 0.21552 0.59926
vn -0.45465 -0.83428 -0.31189
vn -0.32754 -0.79450 -0.51136
vn -0.14178 -0.83039 -0.53884
vn -0.49153 -0.87064 0.01964
vn 0.27211 -0.70591 -0.65395
vn -0.27905 -0.84165 -0.46233
vn 0.21529 0.58955 0.77851
vn -0.49142 -0.71240 0.50100
vn -0.27905 -0.84165 -0.46233
vn 0.77100 0.21552 0.59926
vn 0.96195 -0.02344 0.27223
vn 0.54051 -0.56466 -0.62371
vn 0.57385 -0.69412 -0.43461
vn 0.73602 -0.40239 -0.54439
vn 0.00000 -0.99985 0.01716
vn -0.35715 -0.91209 -0.20133
vn 0.32275 -0.02117 -0.94625
vn 0.41905 -0.54230 -0.72822
vn -0.18858 -0.98145 0.03440
vn 0.54021 0.74762 -0.38631
vn 0.44374 0.88248 0.15595
vn 0.72047 0.68311 0.11952
vn 0.87710 0.30695 -0.36942
vn 0.31016 0.77044 0.55697
vn 0.59122 0.54497 0.59452
vn 0.06836 -0.47759 -0.87592
vn -0.40054 -0.91446 -0.05771
vn 0.50205 0.79280 -0.34556
vn 0.41350 0.90409 0.10785
vn 0.20391 -0.65565 -0.72701
vn 0.32476 -0.23911 -0.91508
vn -0.34823 -0.90431 -0.24689
vn -0.30245 -0.95178 -0.05138
vn -0.33980 -0.60983 0.71599
vn -0.03222 -0.45200 0.89143
vn 0.71627 0.50362 -0.48304
vn 0.46656 0.86187 0.19874
vn 0.42431 0.89494 0.13798
vn 0.54151 0.75065 -0.37855
vn 0.25887 0.41530 0.87208
vn 0.23682 0.63750 0.73315
vn 0.31016 0.77044 0.55697
vn -0.31981 -0.53976 0.77870
vn -0.05124 -0.09560 0.99410
vn 0.59122 0.54497 0.59452
vn 0.31671 0.76490 0.56091
vn -0.16437 -0.28059 0.94565
vn 0.25887 0.41530 0.87208
vn 0.23682 0.63750 0.73315
vn 0.66988 -0.72438 -0.16291
vn 0.72736 0.47540 0.49493
vn 0.72736 0.47540 0.49493
vn 0.31671 0.76490 0.56091
vn 0.00000 0.00021 -1.00000
vn 0.88951 0.32899 -0.31708
vn 0.71402 0.65252 -0.25374
vn 0.69701 0.42850 -0.57495
vn 0.86830 0.06386 -0.49191
vn 0.98463 0.00574 -0.17456
vn 0.91570 0.40171 0.01129
vn -0.84668 -0.00001 -0.53211
vn -0.84668 -0.00001 -0.53211
vn -0.84668 -0.00001 -0.53211
vn -0.84668 -0.00000 -0.53210
vn -0.74235 0.57427 -0.34514
vn -0.82550 0.42855 -0.36728
vn -0.35809 0.78916 -0.49899
vn -0.36140 0.87689 -0.31693
vn -0.84933 0.35575 -0.38997
vn -0.92041 0.29632 -0.25504
vn -0.87330 0.34615 -0.34282
vn -0.95215 0.21311 -0.21910
vn -0.88883 0.39959 -0.22430
vn -0.86009 0.40027 -0.31628
vn -0.83656 0.41068 -0.36265
vn -0.86121 0.36519 -0.35349
vn -0.88170 0.10092 -0.46088
vn -0.51715 0.68297 -0.51586
vn -0.77892 0.62143 0.08437
vn -0.82498 0.56428 -0.03138
vn -0.48269 0.87464 0.04492
vn -0.50945 0.85003 0.13381
vn -0.81846 0.40149 -0.41102
vn -0.81088 -0.31227 -0.49494
vn -0.82951 -0.40622 -0.38327
vn -0.58783 -0.70482 -0.39708
vn -0.49006 -0.77177 -0.40523
vn -0.30037 -0.82380 -0.48076
vn -0.43369 -0.87688 -0.20735
vn -0.93301 -0.04753 -0.35670
vn -0.93052 0.13401 -0.34084
vn -0.99270 -0.11372 0.04023
vn -0.99883 -0.04458 0.01854
vn -0.96745 0.25050 -0.03589
vn -0.95929 0.27506 0.06409
vn -0.43289 -0.90035 0.04456
vn -0.43916 -0.88794 0.13676
vn -0.88122 0.43123 0.19363
vn -0.75622 0.61547 0.22209
vn -0.46948 0.85834 0.20699
vn -0.50576 0.84725 0.16240
vn -0.83361 -0.55196 0.02105
vn -0.83679 -0.54673 0.02935
vn -0.99620 -0.03635 0.07911
vn -0.48678 -0.49646 -0.71873
vn -0.71473 0.37727 -0.58891
vn -0.21304 -0.35038 -0.91206
vn -0.34883 0.49016 -0.79879
vn -0.74090 0.62215 -0.25299
vn -0.87065 -0.20026 -0.44930
vn -0.77239 0.56740 -0.28544
vn -0.46693 -0.88377 -0.03053
vn -0.71159 -0.48214 -0.51107
vn -0.92830 -0.04331 -0.36929
vn -0.91379 0.25828 -0.31349
vn -0.92760 0.32518 -0.18390
vn -0.79349 0.57614 -0.19606
vn -0.96959 0.21525 -0.11642
vn -0.94112 0.31994 -0.10918
vn -0.80167 0.58917 -0.10098
vn -0.46124 0.86835 0.18230
vn -0.80197 0.57629 0.15727
vn -0.92331 -0.32406 0.20611
vn -0.78628 -0.52192 0.33071
vn -0.95255 0.27264 0.13533
vn -0.92119 0.31655 0.22630
vn -0.76487 0.60631 0.21763
vn -0.95943 0.17663 0.21979
vn -0.94636 0.15812 0.28179
vn -0.75622 0.61547 0.22209
vn -0.89510 0.01485 0.44563
vn -0.94636 0.15812 0.28179
vn -0.95183 -0.23888 0.19223
vn -0.62482 -0.72721 0.28421
vn -0.89510 0.01485 0.44563
vn -0.52532 -0.66168 -0.53500
vn -0.33496 -0.78058 -0.52772
vn -0.46341 0.21948 -0.85853
vn -0.69980 0.31766 -0.63982
vn -0.56664 -0.79053 -0.23234
vn -0.31726 -0.93826 -0.13787
vn -0.30443 -0.65665 0.69002
vn -0.18423 -0.97310 0.13836
vn 0.18858 -0.98145 0.03440
vn 0.05124 -0.09560 0.99410
vn -0.22325 -0.94787 0.22739
vn -0.62384 -0.76900 -0.13950
vn -0.41905 -0.54230 -0.72822
vn -0.59122 0.54497 0.59452
vn -0.80063 0.09111 0.59219
vn -0.59683 -0.50980 0.61960
vn -0.20494 -0.91740 0.34115
vn -0.90955 0.34236 0.23560
vn -0.72047 0.68311 0.11952
vn -0.99984 0.00585 -0.01694
vn -0.87710 0.30695 -0.36942
vn -0.20494 -0.91740 0.34115
vn -0.59683 -0.50980 0.61960
vn -0.56664 -0.79053 -0.23234
vn -0.52532 -0.66168 -0.53500
vn -0.33496 -0.78058 -0.52772
vn -0.81088 -0.31227 -0.49494
vn -0.81846 0.40149 -0.41102
vn -0.34883 0.49016 -0.79879
vn -0.71473 0.37727 -0.58891
vn -0.43369 -0.87688 -0.20735
vn -0.31726 -0.93826 -0.13787
vn -0.73112 -0.47587 -0.48888
vn -0.41544 -0.74478 -0.52221
vn -0.91928 -0.37855 0.10780
vn -0.95402 -0.29244 0.06581
vn -0.52644 -0.84933 -0.03866
vn -0.45942 -0.88627 0.05881
vn -0.90722 0.40786 0.10299
vn -0.91230 0.38817 0.13054
vn -0.54730 -0.82645 0.13209
vn -0.89946 0.41776 0.12824
vn -0.94059 -0.30259 0.15404
vn -0.65067 -0.72237 -0.23414
vn -0.98056 -0.19477 0.02400
vn -0.89763 0.35622 0.25955
vn -0.78366 0.61911 0.05070
vn -0.88146 0.36713 0.29705
vn -0.98936 -0.13021 0.06492
vn -0.77775 0.38614 0.49599
vn -0.73747 -0.60039 -0.30932
vn -0.78079 -0.58141 -0.22874
vn -0.93582 -0.04239 0.34991
vn -0.70091 0.33321 0.63063
vn -0.94947 0.20270 0.23960
vn -0.92656 0.37549 0.02201
vn -0.52167 0.84988 0.07459
vn -0.60964 0.79206 0.03125
vn -0.37517 0.88597 -0.27258
vn -0.48589 0.83514 -0.25780
vn -0.42622 0.87887 0.21430
vn -0.46948 0.85834 0.20699
vn -0.50867 0.85198 -0.12407
vn -0.49899 0.86547 -0.04435
vn -0.34202 0.70342 -0.62307
vn -0.19275 0.48065 -0.85547
vn -0.23556 -0.50088 -0.83285
vn -0.23556 -0.50088 -0.83285
vn -0.40551 -0.87262 -0.27219
vn -0.56789 -0.80146 -0.18753
vn -0.62987 -0.76823 0.11440
vn 0.05536 -0.99400 -0.09432
vn -0.33100 -0.80637 0.49011
vn -0.64020 0.19413 -0.74328
vn -0.90610 -0.00581 -0.42303
vn -0.94777 0.30823 -0.08203
vn -0.68092 0.73159 -0.03338
vn -0.43342 0.59050 -0.68077
vn -0.55023 0.83457 -0.02734
vn -0.52052 0.84895 -0.09135
vn 0.04635 -0.26479 -0.96319
vn -0.19859 0.56532 0.80061
vn 0.03251 0.28668 0.95747
vn -0.49660 0.60447 -0.62290
vn -0.50226 0.86441 0.02331
vn -0.51884 0.85411 -0.03607
vn -0.23652 -0.21802 -0.94685
vn -0.57295 0.81949 -0.01283
vn -0.97495 0.14030 -0.17258
vn -0.68755 0.10747 -0.71814
vn -0.25792 0.21768 0.94132
vn 0.53904 -0.74008 0.40213
vn 0.44843 -0.79941 0.39980
vn 0.48212 -0.87605 0.00952
vn 0.51890 -0.85481 0.00675
vn 0.43951 -0.89781 0.02774
vn 0.00678 -0.92304 0.38465
vn 0.33317 -0.59961 0.72765
vn 0.32754 -0.79450 -0.51136
vn 0.45465 -0.83428 -0.31189
vn 0.00678 -0.92304 0.38465
vn -0.68092 0.73159 -0.03338
vn 0.34994 -0.70650 -0.61514
vn -0.54051 -0.56466 -0.62371
vn -0.64020 0.19413 -0.74328
vn 0.05536 -0.99400 -0.09432
vn -0.54051 -0.56466 -0.62371
vn 0.34994 -0.70650 -0.61514
vn -0.61187 0.33039 -0.71865
vn -0.51654 0.85624 -0.00627
vn 0.14178 -0.83039 -0.53884
vn -0.27211 -0.70591 -0.65395
vn -0.33100 -0.80637 0.49011
vn 0.06266 0.03726 0.99734
vn -0.12389 0.40845 0.90433
vn 0.47180 -0.73659 0.48459
vn 0.47411 -0.72537 0.49905
vn 0.49106 -0.87111 0.00514
vn 0.49109 -0.87101 0.01317
vn -0.77100 0.21552 0.59926
vn 0.45465 -0.83428 -0.31189
vn 0.32754 -0.79450 -0.51136
vn 0.14178 -0.83039 -0.53884
vn -0.27211 -0.70591 -0.65395
vn 0.49153 -0.87064 0.01964
vn 0.27905 -0.84165 -0.46233
vn -0.21529 0.58955 0.77851
vn 0.49142 -0.71240 0.50100
vn 0.27905 -0.84165 -0.46233
vn -0.77100 0.21552 0.59926
vn -0.96195 -0.02344 0.27223
vn -0.54051 -0.56466 -0.62371
vn -0.57385 -0.69412 -0.43461
vn -0.73602 -0.40239 -0.54439
vn 0.35715 -0.91209 -0.20133
vn 0.18858 -0.98145 0.03440
vn -0.41905 -0.54230 -0.72822
vn -0.32275 -0.02117 -0.94625
vn -0.54021 0.74762 -0.38631
vn -0.87710 0.30695 -0.36942
vn -0.72047 0.68311 0.11952
vn -0.44374 0.88248 0.15595
vn -0.59122 0.54497 0.59452
vn -0.31016 0.77044 0.55697
vn -0.06836 -0.47759 -0.87592
vn 0.40054 -0.91446 -0.05771
vn -0.50205 0.79280 -0.34556
vn -0.41350 0.90409 0.10785
vn -0.20391 -0.65565 -0.72701
vn 0.30245 -0.95178 -0.05138
vn 0.34823 -0.90431 -0.24689
vn -0.32476 -0.23910 -0.91508
vn 0.33980 -0.60983 0.71599
vn 0.03222 -0.45200 0.89143
vn -0.71627 0.50362 -0.48304
vn -0.54151 0.75065 -0.37855
vn -0.42431 0.89494 0.13798
vn -0.46656 0.86187 0.19874
vn -0.23682 0.63750 0.73315
vn -0.25887 0.41530 0.87208
vn -0.31016 0.77044 0.55697
vn -0.59122 0.54497 0.59452
vn 0.05124 -0.09560 0.99410
vn 0.31981 -0.53976 0.77870
vn -0.31671 0.76490 0.56091
vn 0.16437 -0.28059 0.94565
vn -0.25887 0.41530 0.87208
vn -0.23682 0.63750 0.73315
vn -0.66988 -0.72438 -0.16291
vn -0.72736 0.47540 0.49493
vn -0.72736 0.47540 0.49493
vn -0.31671 0.76490 0.56091
vn -0.88951 0.32899 -0.31708
vn -0.69701 0.42850 -0.57495
vn -0.71402 0.65252 -0.25374
vn -0.86830 0.06386 -0.49191
vn -0.98463 0.00574 -0.17456
vn -0.91570 0.40171 0.01129
f 492/492/492 472/472/472 462/462/462
f 472/472/472 492/492/492 485/485/485
f 499/499/499 462/462/462 481/481/481
f 462/462/462 499/499/499 492/492/492
f 485/485/485 486/486/486 487/487/487
f 231/231/231 232/232/232 230/230/230
f 230/230/230 237/237/237 219/219/219
f 207/207/207 219/219/219 237/237/237
f 244/244/244 226/226/226 207/207/207
f 237/237/237 244/244/244 207/207/207
f 122/122/122 130/130/130 120/120/120
f 120/120/120 121/121/121 122/122/122
f 406/406/406 298/298/298 122/122/122
f 190/190/190 447/447/447 122/122/122
f 405/405/405 122/122/122 447/447/447
f 122/122/122 403/403/403 411/411/411
f 122/122/122 411/411/411 410/410/410
f 122/122/122 410/410/410 406/406/406
f 404/404/404 122/122/122 405/405/405
f 403/403/403 122/122/122 404/404/404
f 126/126/126 122/122/122 298/298/298
f 190/190/190 122/122/122 189/189/189
f 123/123/123 189/189/189 122/122/122
f 122/122/122 129/129/129 130/130/130
f 122/122/122 126/126/126 129/129/129
f 121/121/121 123/123/123 122/122/122
f 124/124/124 298/298/298 406/406/406
f 124/124/124 406/406/406 407/407/407
f 124/124/124 408/408/408 131/131/131
f 124/124/124 407/407/407 409/409/409
f 408/408/408 124/124/124 409/409/409
f 124/124/124 126/126/126 298/298/298
f 124/124/124 131/131/131 127/127/127
f 124/124/124 128/128/128 125/125/125
f 271/271/271 260/260/260 287/287/287
f 287/287/287 260/260/260 263/263/263
f 260/260/260 271/271/271 270/270/270
f 270/270/270 261/261/261 260/260/260
f 262/262/262 263/263/263 260/260/260
f 260/260/260 261/261/261 262/262/262
f 278/278/278 276/276/276 271/271/271
f 271/271/271 291/291/291 278/278/278
f 270/270/270 271/271/271 276/276/276
f 287/287/287 291/291/291 271/271/271
f 270/270/270 275/275/275 283/283/283
f 283/283/283 272/272/272 270/270/270
f 276/276/276 275/275/275 270/270/270
f 261/261/261 270/270/270 272/272/272
f 272/272/272 264/264/264 261/261/261
f 262/262/262 261/261/261 264/264/264
f 264/264/264 267/267/267 262/262/262
f 265/265/265 264/264/264 272/272/272
f 266/266/266 267/267/267 264/264/264
f 264/264/264 265/265/265 266/266/266
f 273/273/273 272/272/272 283/283/283
f 272/272/272 273/273/273 265/265/265
f 283/283/283 282/282/282 273/273/273
f 280/280/280 283/283/283 275/275/275
f 495/495/495 494/494/494 493/493/493
f 497/497/497 496/496/496 471/471/471
f 495/495/495 496/496/496 497/497/497
f 507/507/507 495/495/495 498/498/498
f 494/494/494 495/495/495 507/507/507
f 497/497/497 498/498/498 495/495/495
f 507/507/507 506/506/506 494/494/494
f 465/465/465 494/494/494 506/506/506
f 475/475/475 477/477/477 507/507/507
f 507/507/507 504/504/504 475/475/475
f 506/506/506 507/507/507 477/477/477
f 498/498/498 504/504/504 507/507/507
f 498/498/498 508/508/508 502/502/502
f 502/502/502 504/504/504 498/498/498
f 508/508/508 498/498/498 497/497/497
f 475/475/475 504/504/504 502/502/502
f 475/475/475 503/503/503 476/476/476
f 502/502/502 503/503/503 475/475/475
f 475/475/475 476/476/476 477/477/477
f 477/477/477 470/470/470 506/506/506
f 470/470/470 477/477/477 480/480/480
f 506/506/506 470/470/470 467/467/467
f 480/480/480 468/468/468 470/470/470
f 467/467/467 470/470/470 468/468/468
f 468/468/468 480/480/480 491/491/491
f 208/208/208 209/209/209 210/210/210
f 224/224/224 250/250/250 209/209/209
f 234/234/234 209/209/209 250/250/250
f 210/210/210 209/209/209 234/234/234
f 251/251/251 238/238/238 210/210/210
f 210/210/210 233/233/233 251/251/251
f 234/234/234 233/233/233 210/210/210
f 238/238/238 251/251/251 252/252/252
f 252/252/252 240/240/240 238/238/238
f 239/239/239 238/238/238 240/240/240
f 240/240/240 241/241/241 239/239/239
f 242/242/242 240/240/240 252/252/252
f 243/243/243 241/241/241 240/240/240
f 240/240/240 242/242/242 243/243/243
f 220/220/220 248/248/248 252/252/252
f 252/252/252 221/221/221 220/220/220
f 221/221/221 252/252/252 251/251/251
f 252/252/252 248/248/248 242/242/242
f 242/242/242 248/248/248 247/247/247
f 247/247/247 253/253/253 242/242/242
f 243/243/243 242/242/242 253/253/253
f 247/247/247 248/248/248 220/220/220
f 220/220/220 222/222/222 249/249/249
f 220/220/220 249/249/249 247/247/247
f 220/220/220 221/221/221 222/222/222
f 430/430/430 423/423/423 424/424/424
f 428/428/428 424/424/424 425/425/425
f 423/423/423 430/430/430 155/155/155
f 155/155/155 146/146/146 423/423/423
f 416/416/416 423/423/423 146/146/146
f 259/259/259 417/417/417 416/416/416
f 416/416/416 147/147/147 259/259/259
f 146/146/146 147/147/147 416/416/416
f 144/144/144 146/146/146 155/155/155
f 136/136/136 147/147/147 146/146/146
f 146/146/146 144/144/144 136/136/136
f 259/259/259 147/147/147 136/136/136
f 417/417/417 259/259/259 140/140/140
f 140/140/140 259/259/259 135/135/135
f 136/136/136 135/135/135 259/259/259
f 137/137/137 136/136/136 144/144/144
f 136/136/136 137/137/137 134/134/134
f 134/134/134 135/135/135 136/136/136
f 155/155/155 154/154/154 144/144/144
f 145/145/145 144/144/144 154/154/154
f 144/144/144 145/145/145 137/137/137
f 139/139/139 137/137/137 145/145/145
f 137/137/137 139/139/139 138/138/138
f 138/138/138 134/134/134 137/137/137
f 134/134/134 143/143/143 141/141/141
f 141/141/141 135/135/135 134/134/134
f 127/127/127 128/128/128 124/124/124
f 124/124/124 125/125/125 126/126/126
f 522/522/522 523/523/523 521/521/521
f 521/521/521 520/520/520 522/522/522
f 520/520/520 521/521/521 518/518/518
f 518/518/518 517/517/517 516/516/516
f 516/516/516 519/519/519 518/518/518
f 518/518/518 519/519/519 520/520/520
f 528/528/528 548/548/548 529/529/529
f 533/533/533 548/548/548 550/550/550
f 550/550/550 546/546/546 533/533/533
f 548/548/548 528/528/528 534/534/534
f 534/534/534 550/550/550 548/548/548
f 534/534/534 528/528/528 531/531/531
f 535/535/535 531/531/531 524/524/524
f 531/531/531 535/535/535 534/534/534
f 549/549/549 534/534/534 537/537/537
f 536/536/536 537/537/537 534/534/534
f 534/534/534 535/535/535 536/536/536
f 524/524/524 526/526/526 535/535/535
f 527/527/527 536/536/536 535/535/535
f 535/535/535 526/526/526 527/527/527
f 526/526/526 524/524/524 517/517/517
f 517/517/517 518/518/518 526/526/526
f 521/521/521 527/527/527 526/526/526
f 526/526/526 518/518/518 521/521/521
f 551/551/551 527/527/527 521/521/521
f 536/536/536 527/527/527 551/551/551
f 551/551/551 538/538/538 536/536/536
f 537/537/537 536/536/536 538/538/538
f 539/539/539 549/549/549 537/537/537
f 538/538/538 539/539/539 537/537/537
f 521/521/521 523/523/523 551/551/551
f 543/543/543 514/514/514 525/525/525
f 515/515/515 514/514/514 543/543/543
f 514/514/514 517/517/517 524/524/524
f 524/524/524 525/525/525 514/514/514
f 516/516/516 517/517/517 514/514/514
f 514/514/514 515/515/515 516/516/516
f 525/525/525 545/545/545 543/543/543
f 543/543/543 545/545/545 544/544/544
f 544/544/544 540/540/540 543/543/543
f 543/543/543 542/542/542 515/515/515
f 542/542/542 543/543/543 540/540/540
f 532/532/532 545/545/545 525/525/525
f 525/525/525 530/530/530 532/532/532
f 530/530/530 525/525/525 524/524/524
f 545/545/545 532/532/532 547/547/547
f 547/547/547 544/544/544 545/545/545
f 532/532/532 533/533/533 546/546/546
f 546/546/546 547/547/547 532/532/532
f 529/529/529 533/533/533 532/532/532
f 532/532/532 530/530/530 529/529/529
f 524/524/524 531/531/531 530/530/530
f 530/530/530 531/531/531 528/528/528
f 528/528/528 529/529/529 530/530/530
f 529/529/529 548/548/548 533/533/533
f 421/421/421 342/342/342 345/345/345
f 344/344/344 345/345/345 342/342/342
f 169/169/169 437/437/437 436/436/436
f 436/436/436 437/437/437 418/418/418
f 418/418/418 421/421/421 436/436/436
f 437/437/437 169/169/169 164/164/164
f 164/164/164 169/169/169 167/167/167
f 437/437/437 426/426/426 419/419/419
f 419/419/419 418/418/418 437/437/437
f 164/164/164 426/426/426 437/437/437
f 421/421/421 418/418/418 414/414/414
f 415/415/415 414/414/414 418/418/418
f 418/418/418 419/419/419 415/415/415
f 342/342/342 421/421/421 422/422/422
f 414/414/414 422/422/422 421/421/421
f 414/414/414 417/417/417 420/420/420
f 420/420/420 422/422/422 414/414/414
f 416/416/416 417/417/417 414/414/414
f 414/414/414 415/415/415 416/416/416
f 419/419/419 424/424/424 415/415/415
f 415/415/415 424/424/424 423/423/423
f 423/423/423 416/416/416 415/415/415
f 419/419/419 425/425/425 424/424/424
f 419/419/419 426/426/426 425/425/425
f 424/424/424 428/428/428 430/430/430
f 45/45/45 63/63/63 64/64/64
f 356/356/356 64/64/64 192/192/192
f 192/192/192 448/448/448 356/356/356
f 64/64/64 356/356/356 340/340/340
f 340/340/340 46/46/46 64/64/64
f 64/64/64 46/46/46 45/45/45
f 45/45/45 55/55/55 79/79/79
f 55/55/55 45/45/45 44/44/44
f 45/45/45 46/46/46 43/43/43
f 43/43/43 44/44/44 45/45/45
f 43/43/43 46/46/46 340/340/340
f 340/340/340 341/341/341 43/43/43
f 390/390/390 114/114/114 43/43/43
f 43/43/43 341/341/341 390/390/390
f 103/103/103 44/44/44 43/43/43
f 43/43/43 114/114/114 103/103/103
f 105/105/105 53/53/53 44/44/44
f 44/44/44 103/103/103 105/105/105
f 251/251/251 215/215/215 221/221/221
f 225/225/225 221/221/221 215/215/215
f 212/212/212 215/215/215 251/251/251
f 251/251/251 233/233/233 212/212/212
f 215/215/215 214/214/214 225/225/225
f 212/212/212 214/214/214 215/215/215
f 236/236/236 225/225/225 214/214/214
f 214/214/214 213/213/213 236/236/236
f 212/212/212 213/213/213 214/214/214
f 234/234/234 213/213/213 212/212/212
f 212/212/212 233/233/233 234/234/234
f 213/213/213 234/234/234 235/235/235
f 235/235/235 236/236/236 213/213/213
f 250/250/250 235/235/235 234/234/234
f 253/253/253 246/246/246 243/243/243
f 243/243/243 246/246/246 245/245/245
f 243/243/243 217/217/217 216/216/216
f 216/216/216 241/241/241 243/243/243
f 245/245/245 217/217/217 243/243/243
f 218/218/218 217/217/217 245/245/245
f 245/245/245 231/231/231 218/218/218
f 216/216/216 217/217/217 218/218/218
f 216/216/216 219/219/219 207/207/207
f 218/218/218 219/219/219 216/216/216
f 219/219/219 218/218/218 230/230/230
f 230/230/230 218/218/218 231/231/231
f 484/484/484 481/481/481 457/457/457
f 482/482/482 457/457/457 460/460/460
f 484/484/484 457/457/457 482/482/482
f 481/481/481 458/458/458 457/457/457
f 459/459/459 460/460/460 457/457/457
f 457/457/457 458/458/458 459/459/459
f 482/482/482 483/483/483 484/484/484
f 460/460/460 479/479/479 482/482/482
f 463/463/463 460/460/460 459/459/459
f 478/478/478 479/479/479 460/460/460
f 460/460/460 463/463/463 478/478/478
f 464/464/464 459/459/459 461/461/461
f 459/459/459 464/464/464 463/463/463
f 461/461/461 459/459/459 458/458/458
f 462/462/462 458/458/458 481/481/481
f 458/458/458 462/462/462 461/461/461
f 461/461/461 471/471/471 496/496/496
f 496/496/496 493/493/493 461/461/461
f 461/461/461 493/493/493 464/464/464
f 471/471/471 461/461/461 462/462/462
f 494/494/494 465/465/465 464/464/464
f 464/464/464 493/493/493 494/494/494
f 463/463/463 464/464/464 465/465/465
f 493/493/493 496/496/496 495/495/495
f 39/39/39 40/40/40 41/41/41
f 24/24/24 25/25/25 22/22/22
f 22/22/22 23/23/23 24/24/24
f 26/26/26 23/23/23 76/76/76
f 24/24/24 23/23/23 26/26/26
f 180/180/180 24/24/24 27/27/27
f 25/25/25 24/24/24 180/180/180
f 26/26/26 27/27/27 24/24/24
f 180/180/180 73/73/73 25/25/25
f 72/72/72 41/41/41 25/25/25
f 25/25/25 73/73/73 72/72/72
f 42/42/42 41/41/41 72/72/72
f 41/41/41 42/42/42 39/39/39
f 72/72/72 71/71/71 42/42/42
f 68/68/68 72/72/72 73/73/73
f 71/71/71 72/72/72 68/68/68
f 78/78/78 42/42/42 255/255/255
f 71/71/71 255/255/255 42/42/42
f 55/55/55 39/39/39 42/42/42
f 42/42/42 78/78/78 55/55/55
f 200/200/200 255/255/255 71/71/71
f 200/200/200 71/71/71 201/201/201
f 201/201/201 71/71/71 67/67/67
f 68/68/68 67/67/67 71/71/71
f 79/79/79 78/78/78 255/255/255
f 79/79/79 255/255/255 254/254/254
f 325/325/325 27/27/27 26/26/26
f 26/26/26 326/326/326 325/325/325
f 325/325/325 326/326/326 323/323/323
f 365/365/365 326/326/326 26/26/26
f 26/26/26 77/77/77 365/365/365
f 76/76/76 77/77/77 26/26/26
f 366/366/366 323/323/323 326/326/326
f 326/326/326 365/365/365 366/366/366
f 339/339/339 323/323/323 366/366/366
f 371/371/371 366/366/366 365/365/365
f 366/366/366 371/371/371 370/370/370
f 370/370/370 369/369/369 366/366/366
f 366/366/366 369/369/369 339/339/339
f 440/440/440 365/365/365 77/77/77
f 365/365/365 440/440/440 371/371/371
f 374/374/374 371/371/371 440/440/440
f 371/371/371 374/374/374 373/373/373
f 373/373/373 370/370/370 371/371/371
f 370/370/370 373/373/373 375/375/375
f 375/375/375 372/372/372 370/370/370
f 369/369/369 370/370/370 372/372/372
f 372/372/372 348/348/348 369/369/369
f 339/339/339 369/369/369 348/348/348
f 394/394/394 397/397/397 372/372/372
f 48/48/48 47/47/47 142/142/142
f 143/143/143 142/142/142 47/47/47
f 47/47/47 88/88/88 143/143/143
f 47/47/47 50/50/50 87/87/87
f 87/87/87 88/88/88 47/47/47
f 49/49/49 50/50/50 47/47/47
f 47/47/47 48/48/48 49/49/49
f 142/142/142 168/168/168 48/48/48
f 170/170/170 51/51/51 48/48/48
f 48/48/48 168/168/168 170/170/170
f 49/49/49 48/48/48 51/51/51
f 168/168/168 142/142/142 138/138/138
f 134/134/134 138/138/138 142/142/142
f 142/142/142 143/143/143 134/134/134
f 168/168/168 167/167/167 169/169/169
f 169/169/169 170/170/170 168/168/168
f 138/138/138 167/167/167 168/168/168
f 170/170/170 436/436/436 345/345/345
f 345/345/345 51/51/51 170/170/170
f 436/436/436 170/170/170 169/169/169
f 344/344/344 52/52/52 51/51/51
f 51/51/51 345/345/345 344/344/344
f 51/51/51 52/52/52 49/49/49
f 345/345/345 436/436/436 421/421/421
f 44/44/44 53/53/53 55/55/55
f 108/108/108 103/103/103 114/114/114
f 99/99/99 103/103/103 108/108/108
f 102/102/102 105/105/105 103/103/103
f 99/99/99 102/102/102 103/103/103
f 396/396/396 115/115/115 114/114/114
f 114/114/114 390/390/390 396/396/396
f 114/114/114 115/115/115 108/108/108
f 108/108/108 109/109/109 99/99/99
f 109/109/109 86/86/86 106/106/106
f 106/106/106 99/99/99 109/109/109
f 106/106/106 86/86/86 83/83/83
f 81/81/81 83/83/83 86/86/86
f 86/86/86 84/84/84 81/81/81
f 106/106/106 83/83/83 110/110/110
f 107/107/107 106/106/106 110/110/110
f 99/99/99 106/106/106 107/107/107
f 83/83/83 112/112/112 110/110/110
f 83/83/83 54/54/54 112/112/112
f 80/80/80 54/54/54 83/83/83
f 83/83/83 81/81/81 80/80/80
f 82/82/82 81/81/81 84/84/84
f 75/75/75 80/80/80 81/81/81
f 81/81/81 82/82/82 75/75/75
f 84/84/84 85/85/85 82/82/82
f 76/76/76 75/75/75 82/82/82
f 82/82/82 175/175/175 76/76/76
f 175/175/175 82/82/82 85/85/85
f 75/75/75 22/22/22 40/40/40
f 40/40/40 80/80/80 75/75/75
f 75/75/75 76/76/76 23/23/23
f 23/23/23 22/22/22 75/75/75
f 54/54/54 80/80/80 40/40/40
f 40/40/40 39/39/39 54/54/54
f 25/25/25 41/41/41 40/40/40
f 40/40/40 22/22/22 25/25/25
f 254/254/254 255/255/255 200/200/200
f 55/55/55 78/78/78 79/79/79
f 39/39/39 55/55/55 53/53/53
f 53/53/53 54/54/54 39/39/39
f 112/112/112 54/54/54 53/53/53
f 53/53/53 105/105/105 112/112/112
f 113/113/113 112/112/112 105/105/105
f 112/112/112 113/113/113 111/111/111
f 111/111/111 110/110/110 112/112/112
f 105/105/105 104/104/104 113/113/113
f 105/105/105 102/102/102 101/101/101
f 101/101/101 104/104/104 105/105/105
f 101/101/101 102/102/102 99/99/99
f 99/99/99 100/100/100 101/101/101
f 107/107/107 100/100/100 99/99/99
f 110/110/110 111/111/111 107/107/107
f 254/254/254 196/196/196 79/79/79
f 200/200/200 199/199/199 254/254/254
f 200/200/200 201/201/201 198/198/198
f 198/198/198 199/199/199 200/200/200
f 201/201/201 67/67/67 258/258/258
f 256/256/256 201/201/201 258/258/258
f 256/256/256 198/198/198 201/201/201
f 258/258/258 67/67/67 132/132/132
f 454/454/454 358/358/358 362/362/362
f 367/367/367 510/510/510 337/337/337
f 347/347/347 367/367/367 337/337/337
f 337/337/337 336/336/336 347/347/347
f 336/336/336 337/337/337 338/338/338
f 338/338/338 339/339/339 336/336/336
f 348/348/348 336/336/336 339/339/339
f 336/336/336 348/348/348 346/346/346
f 346/346/346 347/347/347 336/336/336
f 347/347/347 368/368/368 367/367/367
f 368/368/368 347/347/347 340/340/340
f 347/347/347 346/346/346 341/341/341
f 341/341/341 340/340/340 347/347/347
f 368/368/368 510/510/510 367/367/367
f 368/368/368 509/509/509 510/510/510
f 356/356/356 450/450/450 368/368/368
f 368/368/368 450/450/450 452/452/452
f 509/509/509 368/368/368 452/452/452
f 340/340/340 356/356/356 368/368/368
f 455/455/455 510/510/510 509/509/509
f 509/509/509 456/456/456 455/455/455
f 455/455/455 456/456/456 453/453/453
f 453/453/453 454/454/454 455/455/455
f 511/511/511 454/454/454 453/453/453
f 454/454/454 513/513/513 358/358/358
f 511/511/511 513/513/513 454/454/454
f 511/511/511 449/449/449 512/512/512
f 511/511/511 512/512/512 513/513/513
f 511/511/511 451/451/451 449/449/449
f 413/413/413 412/412/412 513/513/513
f 513/513/513 512/512/512 413/413/413
f 513/513/513 412/412/412 358/358/358
f 358/358/358 412/412/412 357/357/357
f 357/357/357 354/354/354 358/358/358
f 358/358/358 354/354/354 359/359/359
f 357/357/357 412/412/412 413/413/413
f 413/413/413 332/332/332 357/357/357
f 354/354/354 357/357/357 331/331/331
f 191/191/191 192/192/192 193/193/193
f 195/195/195 193/193/193 63/63/63
f 63/63/63 193/193/193 192/192/192
f 257/257/257 193/193/193 194/194/194
f 194/194/194 193/193/193 195/195/195
f 256/256/256 257/257/257 194/194/194
f 256/256/256 258/258/258 257/257/257
f 194/194/194 195/195/195 196/196/196
f 256/256/256 194/194/194 197/197/197
f 194/194/194 196/196/196 197/197/197
f 63/63/63 79/79/79 195/195/195
f 79/79/79 196/196/196 195/195/195
f 192/192/192 64/64/64 63/63/63
f 79/79/79 63/63/63 45/45/45
f 228/228/228 202/202/202 226/226/226
f 203/203/203 202/202/202 227/227/227
f 227/227/227 202/202/202 228/228/228
f 226/226/226 202/202/202 205/205/205
f 204/204/204 205/205/205 202/202/202
f 202/202/202 203/203/203 204/204/204
f 228/228/228 229/229/229 227/227/227
f 227/227/227 223/223/223 203/203/203
f 204/204/204 203/203/203 208/208/208
f 224/224/224 208/208/208 203/203/203
f 203/203/203 223/223/223 224/224/224
f 206/206/206 204/204/204 211/211/211
f 208/208/208 211/211/211 204/204/204
f 205/205/205 204/204/204 206/206/206
f 207/207/207 226/226/226 205/205/205
f 206/206/206 207/207/207 205/205/205
f 206/206/206 239/239/239 241/241/241
f 241/241/241 216/216/216 206/206/206
f 211/211/211 239/239/239 206/206/206
f 207/207/207 206/206/206 216/216/216
f 238/238/238 239/239/239 211/211/211
f 211/211/211 210/210/210 238/238/238
f 210/210/210 211/211/211 208/208/208
f 209/209/209 208/208/208 224/224/224
f 440/440/440 441/441/441 374/374/374
f 77/77/77 178/178/178 440/440/440
f 177/177/177 441/441/441 440/440/440
f 440/440/440 178/178/178 177/177/177
f 77/77/77 76/76/76 175/175/175
f 175/175/175 178/178/178 77/77/77
f 177/177/177 178/178/178 175/175/175
f 175/175/175 176/176/176 177/177/177
f 85/85/85 176/176/176 175/175/175
f 27/27/27 181/181/181 180/180/180
f 439/439/439 442/442/442 361/361/361
f 442/442/442 443/443/443 364/364/364
f 364/364/364 361/361/361 442/442/442
f 361/361/361 355/355/355 439/439/439
f 438/438/438 439/439/439 355/355/355
f 360/360/360 361/361/361 364/364/364
f 359/359/359 355/355/355 361/361/361
f 361/361/361 360/360/360 359/359/359
f 324/324/324 364/364/364 443/443/443
f 363/363/363 364/364/364 324/324/324
f 364/364/364 363/363/363 360/360/360
f 27/27/27 325/325/325 443/443/443
f 443/443/443 325/325/325 324/324/324
f 324/324/324 338/338/338 363/363/363
f 324/324/324 323/323/323 339/339/339
f 339/339/339 338/338/338 324/324/324
f 323/323/323 324/324/324 325/325/325
f 363/363/363 338/338/338 337/337/337
f 337/337/337 362/362/362 363/363/363
f 360/360/360 363/363/363 362/362/362
f 362/362/362 358/358/358 360/360/360
f 359/359/359 360/360/360 358/358/358
f 455/455/455 362/362/362 510/510/510
f 455/455/455 454/454/454 362/362/362
f 362/362/362 337/337/337 510/510/510
f 450/450/450 356/356/356 448/448/448
f 449/449/449 452/452/452 450/450/450
f 449/449/449 450/450/450 448/448/448
f 512/512/512 448/448/448 413/413/413
f 512/512/512 449/449/449 448/448/448
f 449/449/449 451/451/451 452/452/452
f 372/372/372 397/397/397 399/399/399
f 372/372/372 399/399/399 348/348/348
f 394/394/394 372/372/372 375/375/375
f 394/394/394 375/375/375 395/395/395
f 397/397/397 394/394/394 393/393/393
f 395/395/395 386/386/386 394/394/394
f 393/393/393 394/394/394 386/386/386
f 399/399/399 397/397/397 398/398/398
f 393/393/393 398/398/398 397/397/397
f 399/399/399 391/391/391 346/346/346
f 346/346/346 348/348/348 399/399/399
f 391/391/391 399/399/399 400/400/400
f 398/398/398 400/400/400 399/399/399
f 391/391/391 390/390/390 341/341/341
f 341/341/341 346/346/346 391/391/391
f 400/400/400 392/392/392 391/391/391
f 387/387/387 390/390/390 391/391/391
f 391/391/391 392/392/392 388/388/388
f 388/388/388 387/387/387 391/391/391
f 396/396/396 390/390/390 386/386/386
f 386/386/386 390/390/390 387/387/387
f 386/386/386 387/387/387 388/388/388
f 388/388/388 389/389/389 386/386/386
f 386/386/386 389/389/389 393/393/393
f 386/386/386 395/395/395 396/396/396
f 540/540/540 541/541/541 542/542/542
f 31/31/31 36/36/36 37/37/37
f 172/172/172 62/62/62 70/70/70
f 62/62/62 172/172/172 171/171/171
f 70/70/70 62/62/62 69/69/69
f 69/69/69 68/68/68 70/70/70
f 69/69/69 61/61/61 67/67/67
f 67/67/67 68/68/68 69/69/69
f 70/70/70 179/179/179 172/172/172
f 179/179/179 70/70/70 73/73/73
f 73/73/73 70/70/70 68/68/68
f 182/182/182 173/173/173 172/172/172
f 172/172/172 179/179/179 182/182/182
f 171/171/171 172/172/172 173/173/173
f 171/171/171 174/174/174 9/9/9
f 173/173/173 174/174/174 171/171/171
f 439/439/439 173/173/173 182/182/182
f 173/173/173 439/439/439 438/438/438
f 438/438/438 174/174/174 173/173/173
f 182/182/182 442/442/442 439/439/439
f 442/442/442 182/182/182 181/181/181
f 181/181/181 182/182/182 179/179/179
f 73/73/73 180/180/180 179/179/179
f 179/179/179 180/180/180 181/181/181
f 443/443/443 181/181/181 27/27/27
f 181/181/181 443/443/443 442/442/442
f 282/282/282 283/283/283 280/280/280
f 275/275/275 274/274/274 280/280/280
f 274/274/274 275/275/275 276/276/276
f 294/294/294 296/296/296 280/280/280
f 280/280/280 274/274/274 294/294/294
f 295/295/295 281/281/281 280/280/280
f 280/280/280 281/281/281 282/282/282
f 297/297/297 273/273/273 282/282/282
f 282/282/282 285/285/285 297/297/297
f 285/285/285 282/282/282 281/281/281
f 265/265/265 273/273/273 297/297/297
f 297/297/297 268/268/268 265/265/265
f 269/269/269 266/266/266 265/265/265
f 265/265/265 268/268/268 269/269/269
f 281/281/281 284/284/284 285/285/285
f 284/284/284 281/281/281 295/295/295
f 279/279/279 292/292/292 296/296/296
f 296/296/296 294/294/294 279/279/279
f 277/277/277 279/279/279 294/294/294
f 292/292/292 279/279/279 278/278/278
f 278/278/278 279/279/279 277/277/277
f 278/278/278 293/293/293 292/292/292
f 293/293/293 278/278/278 291/291/291
f 277/277/277 276/276/276 278/278/278
f 274/274/274 277/277/277 294/294/294
f 35/35/35 32/32/32 33/33/33
f 331/331/331 33/33/33 66/66/66
f 332/332/332 34/34/34 33/33/33
f 33/33/33 331/331/331 332/332/332
f 33/33/33 34/34/34 35/35/35
f 133/133/133 35/35/35 34/34/34
f 65/65/65 35/35/35 133/133/133
f 133/133/133 132/132/132 65/65/65
f 67/67/67 61/61/61 65/65/65
f 65/65/65 132/132/132 67/67/67
f 257/257/257 133/133/133 193/193/193
f 133/133/133 257/257/257 258/258/258
f 258/258/258 132/132/132 133/133/133
f 193/193/193 133/133/133 191/191/191
f 34/34/34 191/191/191 133/133/133
f 413/413/413 191/191/191 34/34/34
f 34/34/34 332/332/332 413/413/413
f 448/448/448 192/192/192 191/191/191
f 191/191/191 413/413/413 448/448/448
f 299/299/299 301/301/301 302/302/302
f 299/299/299 304/304/304 300/300/300
f 303/303/303 304/304/304 299/299/299
f 302/302/302 303/303/303 299/299/299
f 299/299/299 300/300/300 301/301/301
f 552/552/552 555/555/555 553/553/553
f 552/552/552 554/554/554 557/557/557
f 556/556/556 552/552/552 557/557/557
f 555/555/555 552/552/552 556/556/556
f 552/552/552 553/553/553 554/554/554
f 491/491/491 469/469/469 468/468/468
f 467/467/467 468/468/468 469/469/469
f 467/467/467 489/489/489 506/506/506
f 488/488/488 489/489/489 467/467/467
f 467/467/467 469/469/469 488/488/488
f 469/469/469 491/491/491 490/490/490
f 490/490/490 488/488/488 469/469/469
f 488/488/488 490/490/490 505/505/505
f 505/505/505 466/466/466 488/488/488
f 488/488/488 466/466/466 465/465/465
f 465/465/465 489/489/489 488/488/488
f 506/506/506 489/489/489 465/465/465
f 465/465/465 466/466/466 463/463/463
f 466/466/466 505/505/505 478/478/478
f 478/478/478 463/463/463 466/466/466
f 497/497/497 501/501/501 508/508/508
f 471/471/471 474/474/474 497/497/497
f 497/497/497 474/474/474 500/500/500
f 500/500/500 501/501/501 497/497/497
f 462/462/462 472/472/472 471/471/471
f 473/473/473 474/474/474 471/471/471
f 471/471/471 472/472/472 473/473/473
f 500/500/500 474/474/474 473/473/473
f 473/473/473 487/487/487 500/500/500
f 485/485/485 473/473/473 472/472/472
f 487/487/487 473/473/473 485/485/485
f 276/276/276 277/277/277 274/274/274
f 291/291/291 290/290/290 293/293/293
f 290/290/290 291/291/291 287/287/287
f 287/287/287 286/286/286 290/290/290
f 263/263/263 288/288/288 287/287/287
f 286/286/286 287/287/287 288/288/288
f 288/288/288 289/289/289 286/286/286
f 135/135/135 141/141/141 140/140/140
f 89/89/89 141/141/141 143/143/143
f 140/140/140 141/141/141 89/89/89
f 143/143/143 88/88/88 89/89/89
f 89/89/89 88/88/88 87/87/87
f 89/89/89 116/116/116 140/140/140
f 119/119/119 117/117/117 89/89/89
f 89/89/89 90/90/90 119/119/119
f 116/116/116 89/89/89 117/117/117
f 87/87/87 90/90/90 89/89/89
f 140/140/140 116/116/116 378/378/378
f 401/401/401 378/378/378 116/116/116
f 116/116/116 118/118/118 401/401/401
f 117/117/117 118/118/118 116/116/116
f 140/140/140 420/420/420 417/417/417
f 378/378/378 420/420/420 140/140/140
f 422/422/422 420/420/420 378/378/378
f 378/378/378 377/377/377 422/422/422
f 422/422/422 377/377/377 342/342/342
f 402/402/402 378/378/378 401/401/401
f 378/378/378 402/402/402 379/379/379
f 376/376/376 377/377/377 378/378/378
f 378/378/378 379/379/379 376/376/376
f 342/342/342 377/377/377 376/376/376
f 376/376/376 343/343/343 342/342/342
f 342/342/342 343/343/343 344/344/344
f 167/167/167 138/138/138 139/139/139
f 139/139/139 150/150/150 167/167/167
f 167/167/167 150/150/150 164/164/164
f 139/139/139 145/145/145 148/148/148
f 139/139/139 148/148/148 150/150/150
f 165/165/165 150/150/150 149/149/149
f 164/164/164 150/150/150 165/165/165
f 148/148/148 149/149/149 150/150/150
f 435/435/435 426/426/426 164/164/164
f 164/164/164 166/166/166 435/435/435
f 165/165/165 166/166/166 164/164/164
f 149/149/149 162/162/162 165/165/165
f 58/58/58 59/59/59 57/57/57
f 57/57/57 56/56/56 58/58/58
f 29/29/29 57/57/57 74/74/74
f 56/56/56 57/57/57 29/29/29
f 29/29/29 28/28/28 56/56/56
f 74/74/74 66/66/66 29/29/29
f 32/32/32 29/29/29 66/66/66
f 32/32/32 30/30/30 29/29/29
f 28/28/28 29/29/29 30/30/30
f 30/30/30 31/31/31 28/28/28
f 61/61/61 31/31/31 30/30/30
f 61/61/61 30/30/30 32/32/32
f 66/66/66 33/33/33 32/32/32
f 32/32/32 65/65/65 61/61/61
f 32/32/32 35/35/35 65/65/65
f 3/3/3 4/4/4 1/1/1
f 1/1/1 2/2/2 3/3/3
f 6/6/6 5/5/5 60/60/60
f 60/60/60 5/5/5 12/12/12
f 13/13/13 5/5/5 8/8/8
f 5/5/5 13/13/13 11/11/11
f 11/11/11 12/12/12 5/5/5
f 7/7/7 8/8/8 5/5/5
f 5/5/5 6/6/6 7/7/7
f 60/60/60 171/171/171 6/6/6
f 9/9/9 6/6/6 171/171/171
f 7/7/7 6/6/6 9/9/9
f 171/171/171 60/60/60 62/62/62
f 36/36/36 60/60/60 12/12/12
f 62/62/62 60/60/60 36/36/36
f 12/12/12 17/17/17 36/36/36
f 17/17/17 12/12/12 11/11/11
f 11/11/11 18/18/18 17/17/17
f 17/17/17 16/16/16 37/37/37
f 37/37/37 36/36/36 17/17/17
f 16/16/16 17/17/17 18/18/18
f 69/69/69 62/62/62 36/36/36
f 36/36/36 61/61/61 69/69/69
f 36/36/36 31/31/31 61/61/61
f 429/429/429 433/433/433 432/432/432
f 432/432/432 428/428/428 429/429/429
f 425/425/425 429/429/429 428/428/428
f 427/427/427 153/153/153 429/429/429
f 429/429/429 425/425/425 427/427/427
f 425/425/425 426/426/426 427/427/427
f 427/427/427 426/426/426 435/435/435
f 435/435/435 434/434/434 427/427/427
f 427/427/427 434/434/434 153/153/153
f 153/153/153 434/434/434 163/163/163
f 153/153/153 163/163/163 162/162/162
f 163/163/163 434/434/434 435/435/435
f 435/435/435 166/166/166 163/163/163
f 311/311/311 10/10/10 9/9/9
f 9/9/9 174/174/174 438/438/438
f 438/438/438 312/312/312 9/9/9
f 9/9/9 312/312/312 311/311/311
f 310/310/310 322/322/322 311/311/311
f 311/311/311 312/312/312 309/309/309
f 309/309/309 310/310/310 311/311/311
f 444/444/444 322/322/322 321/321/321
f 321/321/321 322/322/322 310/310/310
f 310/310/310 318/318/318 321/321/321
f 310/310/310 316/316/316 317/317/317
f 317/317/317 318/318/318 310/310/310
f 314/314/314 316/316/316 310/310/310
f 310/310/310 309/309/309 314/314/314
f 353/353/353 309/309/309 312/312/312
f 353/353/353 315/315/315 309/309/309
f 309/309/309 315/315/315 313/313/313
f 313/313/313 314/314/314 309/309/309
f 312/312/312 438/438/438 353/353/353
f 355/355/355 353/353/353 438/438/438
f 320/320/320 319/319/319 313/313/313
f 313/313/313 315/315/315 320/320/320
f 334/334/334 318/318/318 320/320/320
f 319/319/319 320/320/320 318/318/318
f 318/318/318 317/317/317 319/319/319
f 307/307/307 308/308/308 305/305/305
f 305/305/305 306/306/306 307/307/307
f 331/331/331 357/357/357 332/332/332
f 354/354/354 329/329/329 328/328/328
f 335/335/335 359/359/359 354/354/354
f 331/331/331 329/329/329 354/354/354
f 335/335/335 354/354/354 328/328/328
f 359/359/359 335/335/335 355/355/355
f 320/320/320 335/335/335 334/334/334
f 335/335/335 320/320/320 315/315/315
f 315/315/315 353/353/353 335/335/335
f 355/355/355 335/335/335 353/353/353
f 334/334/334 335/335/335 328/328/328
f 328/328/328 333/333/333 334/334/334
f 327/327/327 328/328/328 329/329/329
f 331/331/331 330/330/330 329/329/329
f 329/329/329 330/330/330 327/327/327
f 350/350/350 327/327/327 330/330/330
f 74/74/74 349/349/349 330/330/330
f 330/330/330 66/66/66 74/74/74
f 66/66/66 330/330/330 331/331/331
f 330/330/330 349/349/349 350/350/350
f 352/352/352 350/350/350 349/349/349
f 351/351/351 349/349/349 74/74/74
f 349/349/349 351/351/351 352/352/352
f 91/91/91 352/352/352 351/351/351
f 74/74/74 92/92/92 351/351/351
f 351/351/351 92/92/92 91/91/91
f 91/91/91 92/92/92 59/59/59
f 59/59/59 58/58/58 91/91/91
f 59/59/59 92/92/92 74/74/74
f 74/74/74 57/57/57 59/59/59
f 37/37/37 38/38/38 31/31/31
f 19/19/19 38/38/38 37/37/37
f 37/37/37 16/16/16 19/19/19
f 19/19/19 98/98/98 38/38/38
f 183/183/183 94/94/94 19/19/19
f 19/19/19 20/20/20 183/183/183
f 19/19/19 97/97/97 98/98/98
f 97/97/97 19/19/19 94/94/94
f 8/8/8 20/20/20 19/19/19
f 19/19/19 16/16/16 8/8/8
f 18/18/18 15/15/15 16/16/16
f 8/8/8 16/16/16 15/15/15
f 8/8/8 7/7/7 20/20/20
f 15/15/15 14/14/14 8/8/8
f 8/8/8 14/14/14 13/13/13
f 183/183/183 20/20/20 21/21/21
f 21/21/21 20/20/20 7/7/7
f 7/7/7 10/10/10 21/21/21
f 9/9/9 10/10/10 7/7/7
f 21/21/21 322/322/322 444/444/444
f 444/444/444 184/184/184 21/21/21
f 311/311/311 322/322/322 21/21/21
f 21/21/21 10/10/10 311/311/311
f 21/21/21 184/184/184 183/183/183
f 93/93/93 94/94/94 95/95/95
f 94/94/94 93/93/93 97/97/97
f 163/163/163 166/166/166 165/165/165
f 165/165/165 162/162/162 163/163/163
f 149/149/149 153/153/153 162/162/162
f 149/149/149 148/148/148 152/152/152
f 152/152/152 153/153/153 149/149/149
f 148/148/148 145/145/145 151/151/151
f 151/151/151 152/152/152 148/148/148
f 152/152/152 151/151/151 157/157/157
f 157/157/157 160/160/160 152/152/152
f 159/159/159 153/153/153 152/152/152
f 152/152/152 160/160/160 159/159/159
f 151/151/151 154/154/154 156/156/156
f 156/156/156 157/157/157 151/151/151
f 154/154/154 151/151/151 145/145/145
f 161/161/161 157/157/157 156/156/156
f 157/157/157 161/161/161 159/159/159
f 159/159/159 160/160/160 157/157/157
f 159/159/159 433/433/433 429/429/429
f 429/429/429 153/153/153 159/159/159
f 432/432/432 433/433/433 159/159/159
f 159/159/159 161/161/161 432/432/432
f 161/161/161 158/158/158 431/431/431
f 431/431/431 432/432/432 161/161/161
f 156/156/156 158/158/158 161/161/161
f 155/155/155 158/158/158 156/156/156
f 156/156/156 154/154/154 155/155/155
f 431/431/431 158/158/158 155/155/155
f 155/155/155 430/430/430 431/431/431
f 428/428/428 432/432/432 431/431/431
f 431/431/431 430/430/430 428/428/428
f 334/334/334 321/321/321 318/318/318
f 321/321/321 334/334/334 333/333/333
f 321/321/321 383/383/383 444/444/444
f 321/321/321 385/385/385 384/384/384
f 321/321/321 333/333/333 385/385/385
f 383/383/383 321/321/321 384/384/384
f 445/445/445 444/444/444 383/383/383
f 383/383/383 382/382/382 445/445/445
f 384/384/384 380/380/380 383/383/383
f 382/382/382 383/383/383 380/380/380
f 185/185/185 184/184/184 444/444/444
f 444/444/444 445/445/445 185/185/185
f 446/446/446 445/445/445 382/382/382
f 187/187/187 185/185/185 445/445/445
f 445/445/445 446/446/446 187/187/187
f 382/382/382 381/381/381 446/446/446
f 380/380/380 381/381/381 382/382/382
f 187/187/187 188/188/188 186/186/186
f 186/186/186 185/185/185 187/187/187
f 185/185/185 186/186/186 183/183/183
f 183/183/183 184/184/184 185/185/185
f 95/95/95 186/186/186 188/188/188
f 186/186/186 95/95/95 94/94/94
f 94/94/94 183/183/183 186/186/186
f 188/188/188 96/96/96 95/95/95
f 95/95/95 96/96/96 93/93/93
