# hainosaurus_ad reconstructed from live game memory
v 0.10475 45.44303 -87.96954
v 0.10475 43.08398 -95.39460
v 5.16901 41.51726 -95.18083
v 8.34113 43.76862 -87.81503
v 7.06143 29.46978 -93.54958
v 0.10475 27.27315 -93.46177
v 0.10475 27.28797 -93.67060
v 2.26743 28.51845 -101.32918
v 13.89227 44.99868 -66.21187
v 15.24895 41.43460 -71.14844
v 13.61115 41.25600 -65.90826
v 16.48032 38.40619 -62.75970
v 16.09233 37.93134 -68.93686
v 15.60521 42.15166 -61.57874
v 6.79352 25.79634 -93.09156
v 7.06143 29.46978 -93.54958
v 2.26743 28.51845 -101.32918
v 2.18205 26.35364 -100.11745
v 10.63835 30.39653 -86.54807
v 9.91170 25.66947 -85.97554
v 11.40208 25.95776 -78.44366
v 13.00465 31.29959 -79.10574
v 0.10475 24.13920 -92.89157
v 0.10475 23.79981 -85.74564
v 0.10475 23.41086 -78.15234
v 0.10475 21.40488 -68.54280
v 13.38889 24.58702 -69.00785
v 2.08112 39.24099 -101.30591
v 0.10475 40.11561 -102.30826
v 0.10475 36.43879 -103.83689
v 2.50810 36.54646 -102.45854
v 13.63880 44.03217 -64.37511
v 13.68270 43.46550 -67.84763
v 15.18560 41.38427 -66.30225
v 14.52798 40.97361 -69.15663
v 15.24601 38.21379 -68.05836
v 15.28801 38.88434 -63.83051
v 14.81598 41.57096 -62.78648
v 16.62206 32.47744 -69.61308
v 10.63835 30.39653 -86.54807
v 0.10475 27.25913 -79.24590
v 13.00465 31.29959 -79.10574
v 16.62206 32.47744 -69.61308
v 0.10475 26.43423 -69.55378
v 13.52010 37.00057 -79.49534
v 0.10475 42.12196 -80.13357
v 0.10475 40.39558 -69.21684
v 16.93644 34.99643 -70.03033
v 10.73114 37.02418 -87.35667
v 0.10475 42.17825 -87.65839
v 2.50810 36.54646 -102.45854
v 0.10475 39.00101 -101.44611
v 0.10475 40.77705 -95.24722
v 7.22273 36.86788 -95.00467
v 13.07104 21.97019 -43.18418
v 12.57954 23.89375 -49.85829
v 0.10475 19.65982 -49.49007
v 0.10475 17.87966 -43.18742
v 15.48162 42.93343 -57.09599
v 12.04926 50.32019 -57.06429
v 12.80022 50.79711 -33.07543
v 0.10475 54.27816 -32.91537
v 0.10475 53.11499 -45.26488
v 12.96438 49.94371 -45.28069
v 14.98606 22.67651 -33.19777
v 21.64972 31.23616 -33.26576
v 20.69209 31.90869 -45.33841
v 18.97886 43.22544 -33.07345
v 17.24988 42.98252 -45.27360
v 16.93644 34.99643 -70.03033
v 19.08040 34.57489 -57.50749
v 11.12856 49.26701 -66.42024
v 10.99232 46.93541 -73.49310
v 10.16106 45.33048 -79.87569
v 0.10475 48.71715 -73.95409
v 0.10475 47.25462 -80.62994
v 0.10475 52.67835 -56.89295
v 12.91551 23.09748 -57.78908
v 19.08040 34.57489 -57.50749
v 16.93644 34.99643 -70.03033
v 0.10475 40.39558 -69.21684
v 0.10475 38.11901 -51.99110
v 19.08040 34.57489 -57.50749
v 0.10475 30.72174 -51.29595
v 7.22273 36.86788 -95.00467
v 10.73114 37.02418 -87.35667
v 13.52010 37.00057 -79.49534
v 0.10475 19.21687 -57.68208
v 16.25021 36.19737 -69.66434
v 15.34501 31.02783 -69.02402
v 17.76016 33.04852 -56.00800
v 17.48856 35.27821 -57.51703
v 15.62080 37.78233 -69.82870
v 13.78443 37.57362 -75.83669
v 15.11300 32.85405 -72.59872
v 8.61978 45.79952 73.29461
v 5.45351 44.05304 106.04620
v 0.10475 48.38035 106.05499
v 0.10475 50.86634 73.30953
v 14.12326 33.91003 73.63071
v 10.27497 21.44216 73.20143
v 6.43276 24.76683 106.03124
v 11.19019 34.08002 106.03491
v 4.62311 34.06381 225.49257
v 2.31607 39.53850 225.49728
v 2.80640 44.65934 211.90942
v 5.87425 34.07642 211.92789
v 0.10475 34.05551 234.71808
v 12.43767 52.06795 27.40572
v 10.85094 49.72059 49.13720
v 0.10475 54.78194 49.13892
v 0.10475 57.55180 27.41123
v 27.86170 33.11256 -10.62743
v 28.50013 31.26203 -3.88323
v 25.64999 44.01348 -0.57925
v 3.02573 45.23268 199.19675
v 6.54711 34.08210 199.16501
v 0.10475 48.47297 211.89386
v 0.10475 49.42885 199.21448
v 2.55071 22.30447 199.15088
v 2.12550 22.64152 211.95403
v 32.49932 30.24562 -10.66802
v 32.48000 29.50770 -17.21119
v 41.03910 28.28387 -18.77450
v 40.64245 29.07489 -10.27092
v 50.85704 28.28851 -18.94133
v 50.11267 28.81080 -8.82841
v 41.14340 26.40792 -21.37909
v 32.39005 26.45337 -19.39677
v 51.27911 26.37819 -21.32352
v 31.24701 24.51964 -17.58233
v 26.30051 27.50578 -21.93953
v 25.50389 24.86558 -17.03797
v 40.22261 28.20463 -3.10535
v 49.55822 28.45507 0.16570
v 49.35413 26.40096 2.47828
v 40.03433 26.36143 -0.65778
v 40.03433 26.36143 -0.65778
v 49.35413 26.40096 2.47828
v 48.00716 24.49223 -0.08363
v 40.33671 24.48504 -3.18892
v 27.86170 33.11256 -10.62743
v 32.84337 28.45588 -4.44054
v 28.50013 31.26203 -3.88323
v 28.87214 26.76342 -0.49021
v 26.61400 24.87204 -3.73267
v 20.31103 15.52107 -0.26724
v 27.01107 32.92786 -19.61477
v 23.67777 43.87814 -20.79167
v 18.97886 43.22544 -33.07345
v 21.64972 31.23616 -33.26576
v 14.12326 33.91003 73.63071
v 15.37210 36.03135 64.66493
v 16.71091 26.79119 65.56011
v 16.21956 23.90406 67.25498
v 41.07813 24.50455 -18.54251
v 50.96928 24.48654 -18.24275
v 19.12090 16.95346 -16.81710
v 0.10475 12.07915 -16.75927
v 0.10475 10.18448 -0.37216
v 0.10475 11.32194 27.00369
v 18.34865 15.90138 27.07328
v 18.91149 22.62347 53.27792
v 20.89320 23.87981 50.33379
v 14.60642 17.33217 50.40643
v 24.29868 23.64663 54.72635
v 23.82992 25.69878 56.13216
v 20.20763 26.77812 53.31454
v 20.89320 23.87981 50.33379
v 22.47616 27.01202 61.34935
v 20.64353 25.72263 67.10825
v 16.71091 26.79119 65.56011
v 18.54436 28.91947 59.28131
v 18.91149 22.62347 53.27792
v 23.00301 22.54239 55.62663
v 16.78841 22.62793 65.56375
v 20.36425 22.64977 66.32828
v 18.36664 38.56307 49.52750
v 20.20763 26.77812 53.31454
v 18.54436 28.91947 59.28131
v 10.27497 21.44216 73.20143
v 11.79237 19.71225 65.32750
v 0.10475 16.21568 65.06171
v 0.10475 17.91609 73.22858
v 22.54805 40.63644 27.30764
v 24.95604 25.68788 27.17491
v 2.38652 28.06946 225.52209
v 0.10475 17.91609 73.22858
v 0.10475 21.14476 106.02592
v 57.95339 28.10935 -0.10301
v 58.93947 26.38123 2.45337
v 0.10475 43.25643 225.51999
v 0.10475 18.64837 211.85974
v 0.10475 23.58292 225.50694
v 31.18884 25.22402 58.40790
v 28.96237 26.09332 64.88182
v 19.96987 23.23944 68.17375
v 26.57607 25.24318 71.03813
v 25.88108 23.20210 72.84027
v 37.09025 24.88434 61.98284
v 35.13822 25.42365 67.79994
v 42.83196 23.63413 66.39294
v 40.97696 24.89787 66.97398
v 38.17076 23.60902 60.32755
v 39.23432 24.90256 71.71872
v 33.57227 24.90585 72.97318
v 25.98291 22.08122 70.63002
v 30.04592 22.14394 57.48702
v 32.60871 22.11417 72.75763
v 36.09486 22.06722 60.97606
v 38.44241 22.12134 71.15530
v 39.83739 22.13957 66.65681
v 40.93317 23.64285 72.70674
v 33.02393 23.64894 74.95473
v 25.88108 23.20210 72.84027
v 32.07935 23.61801 56.41058
v 0.10475 18.07610 198.90869
v 3.29425 44.43168 185.04218
v 0.10475 48.90339 185.05499
v 2.99534 23.70759 185.04803
v 7.10053 34.05165 185.04608
v 40.93317 23.64285 72.70674
v 12.70431 52.15778 -20.85149
v 13.27273 53.53148 -0.28454
v 12.80022 50.79711 -33.07543
v 16.78841 22.62793 65.56375
v 25.50389 24.86558 -17.03797
v 27.01107 32.92786 -19.61477
v 0.10475 54.27816 -32.91537
v 0.10475 56.36752 -20.75074
v 0.10475 58.70193 -0.25542
v 0.10475 13.51470 50.46793
v 0.10475 19.46198 185.03635
v 26.30051 27.50578 -21.93953
v 0.10475 47.10134 137.00909
v 3.89789 43.10480 136.97958
v 3.80927 42.99386 165.03207
v 0.10475 47.01208 165.05649
v 4.38436 26.21698 136.94791
v 3.67204 26.09163 165.06256
v 7.91355 34.00624 165.03766
v 8.80312 34.06520 136.95294
v 0.10475 22.70164 136.92938
v 0.10475 22.76612 165.04550
v 63.29158 28.02433 -1.86319
v 64.93936 26.38687 -0.04782
v 32.92605 26.39208 -2.70554
v 31.96374 24.49180 -5.37621
v 32.92605 26.39208 -2.70554
v 58.93947 26.38123 2.45337
v 58.70161 24.46973 -0.73450
v 64.93936 26.38687 -0.04782
v 63.44237 24.47447 -1.94046
v 59.22701 24.48160 -15.48519
v 66.20195 24.47921 -5.41601
v 64.62410 24.48040 -11.69567
v 58.46733 28.26793 -7.16499
v 66.70081 27.93931 -5.82533
v 26.61400 24.87204 -3.73267
v 28.87214 26.76342 -0.49021
v 60.61860 26.37857 -18.43807
v 59.78853 28.25767 -16.23852
v 65.18607 28.09849 -12.25109
v 67.25452 26.38554 -12.99841
v 69.23682 26.39251 -5.47268
v 69.23682 26.39251 -5.47268
v 67.25452 26.38554 -12.99841
v 14.98606 22.67651 -33.19777
v 17.75757 19.29760 -25.99510
v 16.21956 23.90406 67.25498
v 19.96987 23.23944 68.17375
v 0.10475 18.60813 -33.32240
v 0.10475 14.82524 -26.59259
v 14.06213 37.53542 -75.53582
v 12.11470 37.60077 -82.03510
v 13.38274 33.59729 -79.00566
v 11.93116 37.62660 -81.98340
v 10.17581 37.72960 -87.41245
v 11.74602 33.38789 -84.45277
v 10.11558 37.82493 -87.39554
v 7.36232 37.77514 -93.09854
v 9.60301 32.95122 -89.82002
v 7.45270 37.82310 -93.10931
v 3.99559 37.65971 -98.72011
v 5.73411 33.05608 -96.58829
v 3.05718 32.67345 -101.23009
v 4.06377 37.64301 -98.72951
v 0.10475 37.69237 -102.39430
v 0.10475 37.48517 -102.45953
v 28.87214 26.76342 -0.49021
v 9.28705 47.25180 64.24004
v 0.10475 52.10646 64.29461
v 8.61978 45.79952 73.29461
v 0.10475 50.86634 73.30953
v 16.21956 23.90406 67.25498
v 33.02393 23.64894 74.95473
v 12.18754 30.29384 -78.99936
v 14.63065 31.00357 -72.68144
v 13.92276 34.76312 -76.32213
v 10.00638 29.58022 -84.80699
v 12.05912 30.23183 -78.27180
v 11.54364 34.06796 -81.97909
v 7.70840 28.94145 -90.02097
v 10.15151 29.56444 -84.41116
v 9.44362 33.41073 -87.34378
v 5.15550 28.33459 -94.97451
v 8.04725 28.99023 -89.78992
v 7.11458 32.77894 -92.50080
v 2.58478 27.74378 -99.79699
v 5.82814 28.41274 -94.84955
v 4.71620 32.16545 -97.50839
v 0.10475 51.14566 -66.68694
v 0.10475 18.60813 -33.32240
v 0.10475 25.56892 -100.41063
v 0.10475 28.35294 -102.72809
v 0.10475 28.35294 -102.72809
v 0.10475 36.43879 -103.83689
v 0.10475 30.72174 -51.29595
v -8.13163 43.76862 -87.81503
v -4.95951 41.51726 -95.18083
v -6.85193 29.46978 -93.54958
v -2.05793 28.51845 -101.32918
v -13.68277 44.99868 -66.21187
v -13.40165 41.25600 -65.90826
v -15.03945 41.43460 -71.14844
v -16.27083 38.40619 -62.75970
v -15.88283 37.93134 -68.93686
v -15.39572 42.15166 -61.57874
v -6.58402 25.79634 -93.09156
v -1.97255 26.35364 -100.11745
v -2.05793 28.51845 -101.32918
v -6.85193 29.46978 -93.54958
v -10.42885 30.39653 -86.54807
v -12.79515 31.29959 -79.10574
v -11.19258 25.95776 -78.44366
v -9.70221 25.66947 -85.97554
v -13.17939 24.58702 -69.00785
v -1.87163 39.24099 -101.30591
v -2.29861 36.54646 -102.45854
v -13.42931 44.03217 -64.37511
v -14.97610 41.38427 -66.30225
v -13.47321 43.46550 -67.84763
v -14.31849 40.97361 -69.15663
v -15.03651 38.21379 -68.05836
v -15.07852 38.88434 -63.83051
v -14.60649 41.57096 -62.78648
v -16.41256 32.47744 -69.61308
v -10.42885 30.39653 -86.54807
v -12.79515 31.29959 -79.10574
v -16.41256 32.47744 -69.61308
v -13.31061 37.00057 -79.49534
v -16.72695 34.99643 -70.03033
v -10.52164 37.02418 -87.35667
v -2.29861 36.54646 -102.45854
v -7.01324 36.86788 -95.00467
v -12.86154 21.97019 -43.18418
v -12.37005 23.89375 -49.85829
v -11.83977 50.32019 -57.06429
v -15.27213 42.93343 -57.09599
v -12.59072 50.79711 -33.07543
v -12.75489 49.94371 -45.28069
v -20.48260 31.90869 -45.33841
v -21.44022 31.23616 -33.26576
v -14.77657 22.67651 -33.19777
v -17.04038 42.98252 -45.27360
v -18.76937 43.22544 -33.07345
v -18.87091 34.57489 -57.50749
v -16.72695 34.99643 -70.03033
v -10.78282 46.93541 -73.49310
v -10.91907 49.26701 -66.42024
v -9.95157 45.33048 -79.87569
v -12.70602 23.09748 -57.78908
v -18.87091 34.57489 -57.50749
v -16.72695 34.99643 -70.03033
v -18.87091 34.57489 -57.50749
v -7.01324 36.86788 -95.00467
v -10.52164 37.02418 -87.35667
v -13.31061 37.00057 -79.49534
v -16.04071 36.19737 -69.66434
v -17.27906 35.27821 -57.51703
v -17.55066 33.04852 -56.00800
v -15.13552 31.02783 -69.02402
v -15.41130 37.78233 -69.82870
v -14.90350 32.85405 -72.59872
v -13.57494 37.57362 -75.83669
v -8.41029 45.79952 73.29461
v -5.24401 44.05304 106.04620
v -13.91377 33.91003 73.63071
v -10.98070 34.08002 106.03491
v -6.22326 24.76683 106.03124
v -10.06548 21.44216 73.20143
v -4.41361 34.06381 225.49257
v -5.66476 34.07642 211.92789
v -2.59690 44.65934 211.90942
v -2.10657 39.53850 225.49728
v -12.22817 52.06795 27.40572
v -10.64144 49.72059 49.13720
v -27.65220 33.11256 -10.62743
v -25.44050 44.01348 -0.57925
v -28.29064 31.26203 -3.88323
v -6.33762 34.08210 199.16501
v -2.81624 45.23268 199.19675
v -2.34121 22.30447 199.15088
v -1.91600 22.64152 211.95403
v -32.28983 30.24562 -10.66802
v -40.43295 29.07489 -10.27092
v -40.82960 28.28387 -18.77450
v -32.27051 29.50770 -17.21119
v -49.90318 28.81080 -8.82842
v -50.64755 28.28851 -18.94134
v -40.93390 26.40791 -21.37909
v -32.18056 26.45337 -19.39677
v -51.06961 26.37818 -21.32353
v -31.03751 24.51964 -17.58233
v -25.29440 24.86558 -17.03797
v -26.09101 27.50578 -21.93953
v -40.01311 28.20463 -3.10535
v -39.82484 26.36143 -0.65778
v -49.14463 26.40096 2.47828
v -49.34873 28.45506 0.16570
v -39.82484 26.36143 -0.65778
v -40.12721 24.48504 -3.18892
v -47.79767 24.49223 -0.08363
v -49.14463 26.40096 2.47828
v -27.65220 33.11256 -10.62743
v -28.29064 31.26203 -3.88323
v -32.63387 28.45588 -4.44054
v -28.66264 26.76342 -0.49021
v -20.10154 15.52107 -0.26724
v -26.40451 24.87204 -3.73267
v -26.80157 32.92786 -19.61477
v -21.44022 31.23616 -33.26576
v -18.76937 43.22544 -33.07345
v -23.46827 43.87814 -20.79167
v -13.91377 33.91003 73.63071
v -16.01007 23.90406 67.25498
v -16.50141 26.79119 65.56011
v -15.16261 36.03135 64.66493
v -40.86864 24.50454 -18.54252
v -50.75979 24.48654 -18.24275
v -18.91140 16.95346 -16.81710
v -18.13915 15.90138 27.07328
v -18.70200 22.62347 53.27792
v -14.39693 17.33217 50.40643
v -20.68371 23.87981 50.33379
v -24.08919 23.64663 54.72635
v -20.68371 23.87981 50.33379
v -19.99813 26.77812 53.31454
v -23.62043 25.69878 56.13216
v -22.26667 27.01202 61.34935
v -18.33486 28.91947 59.28131
v -16.50141 26.79119 65.56011
v -20.43403 25.72263 67.10825
v -18.70200 22.62347 53.27792
v -22.79352 22.54239 55.62664
v -20.15475 22.64977 66.32828
v -16.57891 22.62793 65.56375
v -18.15714 38.56307 49.52750
v -18.33486 28.91947 59.28131
v -19.99813 26.77812 53.31454
v -10.06548 21.44216 73.20143
v -11.58287 19.71225 65.32750
v -24.74654 25.68788 27.17491
v -22.33856 40.63644 27.30764
v -2.17702 28.06946 225.52209
v -58.72997 26.38123 2.45337
v -57.74390 28.10934 -0.10301
v -28.75287 26.09332 64.88182
v -30.97935 25.22402 58.40791
v -19.76038 23.23944 68.17375
v -25.67159 23.20210 72.84027
v -26.36658 25.24318 71.03813
v -34.92873 25.42365 67.79994
v -36.88076 24.88434 61.98285
v -42.62246 23.63413 66.39294
v -37.96127 23.60902 60.32755
v -40.76746 24.89787 66.97398
v -33.36278 24.90585 72.97318
v -39.02483 24.90256 71.71872
v -25.77342 22.08122 70.63002
v -29.83642 22.14394 57.48702
v -32.39921 22.11417 72.75763
v -35.88537 22.06722 60.97607
v -39.62790 22.13956 66.65681
v -38.23291 22.12134 71.15530
v -40.72367 23.64285 72.70674
v -32.81444 23.64894 74.95473
v -25.67159 23.20210 72.84027
v -31.86985 23.61800 56.41059
v -3.08475 44.43168 185.04218
v -2.78584 23.70759 185.04803
v -6.89103 34.05165 185.04608
v -40.72367 23.64285 72.70674
v -12.49481 52.15778 -20.85149
v -13.06323 53.53148 -0.28454
v -12.59072 50.79711 -33.07543
v -16.57891 22.62793 65.56375
v -25.29440 24.86558 -17.03797
v -26.80157 32.92786 -19.61477
v 0.10475 56.36752 -20.75074
v 0.10475 58.70193 -0.25542
v -26.09101 27.50578 -21.93953
v -3.59977 42.99386 165.03207
v -3.68839 43.10480 136.97958
v -4.17486 26.21698 136.94791
v -8.59362 34.06520 136.95294
v -7.70405 34.00624 165.03766
v -3.46254 26.09163 165.06256
v -64.72987 26.38687 -0.04782
v -63.08209 28.02433 -1.86319
v -32.71655 26.39208 -2.70554
v -32.71655 26.39208 -2.70554
v -31.75425 24.49180 -5.37621
v -58.49212 24.46973 -0.73450
v -58.72997 26.38123 2.45337
v -63.23288 24.47447 -1.94046
v -64.72987 26.38687 -0.04782
v -64.41461 24.48039 -11.69567
v -65.99246 24.47920 -5.41601
v -59.01751 24.48159 -15.48519
v -66.49133 27.93930 -5.82533
v -58.25784 28.26793 -7.16499
v -26.40451 24.87204 -3.73267
v -28.66264 26.76342 -0.49021
v -59.57904 28.25767 -16.23853
v -60.40911 26.37857 -18.43808
v -69.02734 26.39251 -5.47268
v -67.04504 26.38553 -12.99841
v -64.97658 28.09849 -12.25109
v -67.04504 26.38553 -12.99841
v -69.02734 26.39251 -5.47268
v -14.77657 22.67651 -33.19777
v -17.54807 19.29760 -25.99510
v -16.01007 23.90406 67.25498
v -19.76038 23.23944 68.17375
v 0.10475 14.82524 -26.59259
v -13.85264 37.53542 -75.53582
v -13.17324 33.59729 -79.00566
v -11.90520 37.60077 -82.03510
v -11.72167 37.62660 -81.98340
v -11.53652 33.38789 -84.45277
v -9.96631 37.72960 -87.41245
v -9.90608 37.82493 -87.39554
v -9.39351 32.95122 -89.82002
v -7.15282 37.77514 -93.09854
v -7.24320 37.82310 -93.10931
v -5.52462 33.05608 -96.58829
v -3.78609 37.65971 -98.72011
v -2.84769 32.67345 -101.23009
v -3.85428 37.64301 -98.72951
v -28.66264 26.76342 -0.49021
v -9.07755 47.25180 64.24004
v -8.41029 45.79952 73.29461
v -16.01007 23.90406 67.25498
v -32.81444 23.64894 74.95473
v -11.97804 30.29384 -78.99936
v -13.71326 34.76312 -76.32213
v -14.42115 31.00357 -72.68144
v -9.79689 29.58022 -84.80699
v -11.33415 34.06796 -81.97909
v -11.84962 30.23183 -78.27180
v -7.49891 28.94145 -90.02097
v -9.23413 33.41073 -87.34378
v -9.94202 29.56444 -84.41116
v -4.94601 28.33459 -94.97451
v -6.90508 32.77894 -92.50080
v -7.83776 28.99023 -89.78992
v -2.37528 27.74378 -99.79699
v -4.50671 32.16545 -97.50839
v -5.61864 28.41274 -94.84955
vt 0.634987 0.822621
vt 0.586343 0.805649
vt 0.595869 0.773718
vt 0.649405 0.774472
vt 0.769113 0.877688
vt 0.755093 0.902315
vt 0.755018 0.902258
vt 0.745396 0.883844
vt 0.786264 0.751715
vt 0.751966 0.732653
vt 0.785826 0.728749
vt 0.805216 0.702065
vt 0.764082 0.706697
vt 0.815376 0.726990
vt 0.607306 0.582909
vt 0.605184 0.606111
vt 0.560075 0.595902
vt 0.568963 0.583412
vt 0.656350 0.615922
vt 0.657388 0.585748
vt 0.708354 0.584239
vt 0.707128 0.629898
vt 0.605777 0.536236
vt 0.654824 0.526530
vt 0.707152 0.515723
vt 0.766471 0.504251
vt 0.764711 0.586027
vt 0.552742 0.773913
vt 0.543896 0.786050
vt 0.527301 0.766756
vt 0.542548 0.758452
vt 0.617324 0.861110
vt 0.687047 0.867148
vt 0.651520 0.923459
vt 0.716193 0.919608
vt 0.694135 0.980963
vt 0.614395 0.975043
vt 0.589614 0.920572
vt 0.762173 0.648417
vt 0.809490 0.882901
vt 0.815179 0.943836
vt 0.836343 0.888519
vt 0.874822 0.897559
vt 0.855767 0.966873
vt 0.909986 0.986859
vt 0.927805 0.905177
vt 0.988018 0.894971
vt 0.989502 0.983865
vt 0.855788 0.966641
vt 0.874480 0.897462
vt 0.755192 0.902209
vt 0.768281 0.877841
vt 0.825675 0.886023
vt 0.815235 0.943785
vt 0.927713 0.568018
vt 0.884469 0.577228
vt 0.879890 0.490911
vt 0.918420 0.481417
vt 0.843482 0.728784
vt 0.844997 0.782332
vt 0.996396 0.784551
vt 0.993221 0.868936
vt 0.915035 0.863760
vt 0.919028 0.777865
vt 0.992117 0.573063
vt 0.995754 0.642613
vt 0.918600 0.649151
vt 0.998105 0.721482
vt 0.919719 0.724145
vt 0.756618 0.687159
vt 0.838454 0.667221
vt 0.785255 0.784307
vt 0.738705 0.780435
vt 0.697230 0.776385
vt 0.725909 0.845092
vt 0.680691 0.835535
vt 0.840713 0.860561
vt 0.835225 0.580669
vt 0.927392 0.906023
vt 0.988061 0.894935
vt 0.988326 0.983862
vt 0.911277 0.987089
vt 0.927392 0.906023
vt 0.910380 0.986826
vt 0.593498 0.742053
vt 0.645749 0.728304
vt 0.695530 0.715313
vt 0.831770 0.494334
vt 0.988665 0.010770
vt 0.987046 0.094982
vt 0.859860 0.053725
vt 0.861686 0.012943
vt 0.573980 0.728816
vt 0.573455 0.618114
vt 0.709265 0.674966
vt 0.225350 0.987888
vt 0.212232 0.791532
vt 0.249437 0.787984
vt 0.281827 0.987176
vt 0.150525 0.988093
vt 0.076581 0.988400
vt 0.080208 0.793949
vt 0.143188 0.795214
vt 0.136555 0.079382
vt 0.170589 0.075003
vt 0.204147 0.156518
vt 0.138830 0.159849
vt 0.133949 0.019260
vt 0.653534 0.407417
vt 0.795359 0.393063
vt 0.804888 0.468200
vt 0.659441 0.493021
vt 0.413108 0.247847
vt 0.458419 0.241943
vt 0.473649 0.323051
vt 0.209609 0.233832
vt 0.139836 0.236303
vt 0.231710 0.154102
vt 0.240109 0.232553
vt 0.065620 0.235662
vt 0.067273 0.158882
vt 0.294120 0.715200
vt 0.289583 0.666413
vt 0.346915 0.661434
vt 0.347103 0.717085
vt 0.409586 0.660933
vt 0.411909 0.719248
vt 0.349185 0.647729
vt 0.290530 0.641564
vt 0.411310 0.653843
vt 0.288634 0.621405
vt 0.248100 0.635338
vt 0.255426 0.606794
vt 0.351130 0.765674
vt 0.418196 0.773194
vt 0.420796 0.791880
vt 0.354565 0.786427
vt 0.362643 0.516983
vt 0.418205 0.510148
vt 0.414960 0.529558
vt 0.361014 0.538785
vt 0.253984 0.716255
vt 0.298939 0.761849
vt 0.266162 0.760725
vt 0.479568 0.216718
vt 0.461135 0.209018
vt 0.486851 0.136394
vt 0.358556 0.245334
vt 0.345630 0.316041
vt 0.260334 0.316754
vt 0.260725 0.227075
vt 0.960316 0.282406
vt 0.893819 0.296764
vt 0.899776 0.237618
vt 0.907559 0.220044
vt 0.349682 0.632365
vt 0.412410 0.638335
vt 0.385452 0.137704
vt 0.363385 0.011815
vt 0.482905 0.005827
vt 0.677634 0.025902
vt 0.658707 0.143225
vt 0.819965 0.203017
vt 0.800712 0.213110
vt 0.809445 0.157347
vt 0.437604 0.838427
vt 0.417791 0.840025
vt 0.417482 0.807423
vt 0.438678 0.805072
vt 0.376633 0.845674
vt 0.340780 0.854513
vt 0.333324 0.821554
vt 0.373953 0.813547
vt 0.464374 0.807182
vt 0.461016 0.840678
vt 0.539931 0.833169
vt 0.530699 0.855959
vt 0.794053 0.307709
vt 0.820346 0.232246
vt 0.858672 0.248085
vt 0.960587 0.193875
vt 0.906425 0.177882
vt 0.929637 0.104905
vt 0.962564 0.126822
vt 0.649903 0.311644
vt 0.652690 0.216719
vt 0.099530 0.077324
vt 0.015541 0.987665
vt 0.032861 0.790612
vt 0.475478 0.760443
vt 0.484988 0.778069
vt 0.195807 0.070809
vt 0.040732 0.158646
vt 0.069812 0.075227
vt 0.420647 0.887083
vt 0.381731 0.894618
vt 0.321993 0.860815
vt 0.341384 0.904956
vt 0.323488 0.910156
vt 0.421512 0.933149
vt 0.388228 0.939830
vt 0.438396 0.982492
vt 0.417779 0.969842
vt 0.436682 0.931280
vt 0.383203 0.978256
vt 0.356571 0.950300
vt 0.536497 0.903104
vt 0.455199 0.885324
vt 0.525074 0.949870
vt 0.455038 0.929159
vt 0.491073 0.976267
vt 0.463137 0.967639
vt 0.498425 0.997360
vt 0.537986 0.962709
vt 0.551593 0.910980
vt 0.438081 0.885291
vt 0.036509 0.236592
vt 0.205660 0.319680
vt 0.238502 0.319026
vt 0.073015 0.320101
vt 0.139525 0.321090
vt 0.378299 0.992875
vt 0.337693 0.399973
vt 0.472932 0.413357
vt 0.260015 0.385671
vt 0.897336 0.212763
vt 0.369530 0.201553
vt 0.244846 0.663312
vt 0.259223 0.471622
vt 0.334649 0.483526
vt 0.472211 0.502178
vt 0.834409 0.066373
vt 0.042411 0.319635
vt 0.345014 0.212570
vt 0.230913 0.605645
vt 0.198025 0.607223
vt 0.196854 0.439831
vt 0.229537 0.439181
vt 0.082085 0.608371
vt 0.084177 0.440004
vt 0.137813 0.441038
vt 0.136328 0.609482
vt 0.048880 0.607059
vt 0.055066 0.439600
vt 0.507262 0.744565
vt 0.522223 0.753981
vt 0.306575 0.783599
vt 0.307738 0.543800
vt 0.316956 0.522109
vt 0.481264 0.520969
vt 0.475798 0.543704
vt 0.517306 0.542179
vt 0.505144 0.554663
vt 0.467164 0.633366
vt 0.518322 0.578157
vt 0.505504 0.615370
vt 0.469669 0.719459
vt 0.522256 0.716361
vt 0.278382 0.529355
vt 0.294270 0.507370
vt 0.472612 0.652233
vt 0.468408 0.664715
vt 0.505724 0.680320
vt 0.519458 0.666642
vt 0.540896 0.712204
vt 0.537508 0.580261
vt 0.521039 0.627013
vt 0.260624 0.148993
vt 0.322700 0.142924
vt 0.551993 0.839629
vt 0.543118 0.860414
vt 0.258874 0.049933
vt 0.296896 0.026567
vt 0.573980 0.728816
vt 0.573455 0.618114
vt 0.709265 0.674966
vt 0.573980 0.728816
vt 0.573455 0.618114
vt 0.709265 0.674966
vt 0.573980 0.728816
vt 0.573455 0.618114
vt 0.709265 0.674966
vt 0.573980 0.728816
vt 0.573455 0.618114
vt 0.709265 0.674966
vt 0.709265 0.674966
vt 0.573980 0.728816
vt 0.573542 0.618079
vt 0.580060 0.620849
vt 0.282470 0.800835
vt 0.894612 0.378194
vt 0.904381 0.444095
vt 0.960379 0.368142
vt 0.961090 0.431247
vt 0.313673 0.830228
vt 0.342005 0.956856
vt 0.573980 0.728816
vt 0.573455 0.618114
vt 0.709265 0.674966
vt 0.573980 0.728816
vt 0.573455 0.618114
vt 0.709265 0.674966
vt 0.573980 0.728816
vt 0.573455 0.618114
vt 0.709265 0.674966
vt 0.573980 0.728816
vt 0.573455 0.618114
vt 0.709265 0.674966
vt 0.573980 0.728816
vt 0.573455 0.618114
vt 0.709265 0.674966
vt 0.776149 0.853325
vt 0.981113 0.474720
vt 0.558161 0.570468
vt 0.541609 0.586966
vt 0.729748 0.887476
vt 0.729418 0.887543
vt 0.910380 0.986826
vt 0.649405 0.774472
vt 0.595869 0.773718
vt 0.769113 0.877688
vt 0.745396 0.883844
vt 0.786264 0.751715
vt 0.785826 0.728749
vt 0.751966 0.732653
vt 0.805216 0.702065
vt 0.764082 0.706697
vt 0.815376 0.726990
vt 0.607306 0.582909
vt 0.568963 0.583412
vt 0.560075 0.595902
vt 0.605184 0.606111
vt 0.656350 0.615922
vt 0.707128 0.629898
vt 0.708354 0.584239
vt 0.657388 0.585748
vt 0.764711 0.586027
vt 0.552742 0.773913
vt 0.542548 0.758452
vt 0.617324 0.861110
vt 0.651520 0.923459
vt 0.687047 0.867148
vt 0.716193 0.919608
vt 0.694135 0.980963
vt 0.614395 0.975043
vt 0.589614 0.920572
vt 0.762173 0.648417
vt 0.809490 0.882901
vt 0.836343 0.888519
vt 0.874822 0.897559
vt 0.909986 0.986859
vt 0.989502 0.983865
vt 0.855788 0.966641
vt 0.755192 0.902209
vt 0.815235 0.943785
vt 0.927713 0.568018
vt 0.884469 0.577228
vt 0.844997 0.782332
vt 0.843482 0.728784
vt 0.996396 0.784551
vt 0.919028 0.777865
vt 0.918600 0.649151
vt 0.995754 0.642613
vt 0.992117 0.573063
vt 0.919719 0.724145
vt 0.998105 0.721482
vt 0.838454 0.667221
vt 0.756618 0.687159
vt 0.738705 0.780435
vt 0.785255 0.784307
vt 0.697230 0.776385
vt 0.835225 0.580669
vt 0.927392 0.906023
vt 0.988061 0.894935
vt 0.927392 0.906023
vt 0.593498 0.742053
vt 0.645749 0.728304
vt 0.695530 0.715313
vt 0.988665 0.010770
vt 0.861686 0.012943
vt 0.859860 0.053725
vt 0.987046 0.094982
vt 0.573980 0.728816
vt 0.709265 0.674966
vt 0.573455 0.618114
vt 0.225350 0.987888
vt 0.212232 0.791532
vt 0.150525 0.988093
vt 0.143188 0.795214
vt 0.080208 0.793949
vt 0.076581 0.988400
vt 0.136555 0.079382
vt 0.138830 0.159849
vt 0.204147 0.156518
vt 0.170589 0.075003
vt 0.653534 0.407417
vt 0.795359 0.393063
vt 0.413108 0.247847
vt 0.472721 0.322719
vt 0.458419 0.241943
vt 0.139836 0.236303
vt 0.209609 0.233832
vt 0.065620 0.235662
vt 0.067273 0.158882
vt 0.291125 0.714697
vt 0.347787 0.717429
vt 0.346905 0.661391
vt 0.289132 0.666914
vt 0.411910 0.719254
vt 0.409788 0.660948
vt 0.349315 0.647794
vt 0.291252 0.642263
vt 0.411598 0.653668
vt 0.288463 0.621306
vt 0.255099 0.606675
vt 0.247505 0.635065
vt 0.351369 0.765477
vt 0.354874 0.786454
vt 0.420828 0.791931
vt 0.418458 0.773159
vt 0.362647 0.517031
vt 0.361101 0.538759
vt 0.414844 0.529412
vt 0.418711 0.510302
vt 0.258459 0.717351
vt 0.264369 0.763255
vt 0.298485 0.763364
vt 0.479568 0.216718
vt 0.486030 0.136534
vt 0.461135 0.209018
vt 0.358556 0.245334
vt 0.260725 0.227075
vt 0.260334 0.316754
vt 0.345793 0.316063
vt 0.960316 0.282406
vt 0.907559 0.220044
vt 0.899776 0.237618
vt 0.893819 0.296764
vt 0.349613 0.632331
vt 0.412257 0.638317
vt 0.385258 0.135391
vt 0.658707 0.143225
vt 0.819965 0.203017
vt 0.809445 0.157347
vt 0.800712 0.213110
vt 0.437604 0.838427
vt 0.438678 0.805072
vt 0.417482 0.807423
vt 0.417791 0.840025
vt 0.376633 0.845674
vt 0.373953 0.813547
vt 0.333324 0.821554
vt 0.340780 0.854513
vt 0.464374 0.807182
vt 0.461016 0.840678
vt 0.530699 0.855959
vt 0.539931 0.833169
vt 0.794053 0.307709
vt 0.858672 0.248085
vt 0.820346 0.232246
vt 0.960587 0.193875
vt 0.906425 0.177882
vt 0.652690 0.216719
vt 0.649903 0.311644
vt 0.099530 0.077324
vt 0.484975 0.778019
vt 0.475491 0.760382
vt 0.381731 0.894618
vt 0.420647 0.887083
vt 0.321993 0.860815
vt 0.323488 0.910156
vt 0.341384 0.904956
vt 0.388228 0.939830
vt 0.421512 0.933149
vt 0.438396 0.982492
vt 0.436682 0.931280
vt 0.417779 0.969842
vt 0.356571 0.950300
vt 0.383203 0.978256
vt 0.536497 0.903104
vt 0.455199 0.885324
vt 0.525074 0.949870
vt 0.455038 0.929159
vt 0.463137 0.967639
vt 0.491073 0.976267
vt 0.498425 0.997360
vt 0.537986 0.962709
vt 0.551593 0.910980
vt 0.438081 0.885291
vt 0.205660 0.319680
vt 0.073015 0.320101
vt 0.139525 0.321090
vt 0.378299 0.992875
vt 0.337904 0.401589
vt 0.473095 0.415318
vt 0.260015 0.385671
vt 0.897336 0.212763
vt 0.369530 0.201553
vt 0.246046 0.663102
vt 0.334623 0.482902
vt 0.472018 0.501803
vt 0.345014 0.212570
vt 0.196854 0.439831
vt 0.198025 0.607223
vt 0.082085 0.608371
vt 0.136328 0.609482
vt 0.137813 0.441038
vt 0.084177 0.440004
vt 0.521557 0.753745
vt 0.507495 0.744914
vt 0.303861 0.781282
vt 0.316992 0.522041
vt 0.307902 0.543842
vt 0.475713 0.543683
vt 0.481386 0.520973
vt 0.504987 0.554842
vt 0.517717 0.541958
vt 0.505250 0.614818
vt 0.517839 0.578041
vt 0.467023 0.633459
vt 0.522617 0.716120
vt 0.469647 0.719468
vt 0.277884 0.529311
vt 0.294164 0.507376
vt 0.468617 0.664803
vt 0.472729 0.652311
vt 0.540267 0.712767
vt 0.518856 0.666939
vt 0.505932 0.680085
vt 0.521588 0.627549
vt 0.538132 0.580285
vt 0.260624 0.148993
vt 0.323116 0.141404
vt 0.551993 0.839629
vt 0.543118 0.860414
vt 0.290548 0.028067
vt 0.573980 0.728816
vt 0.709265 0.674966
vt 0.573455 0.618114
vt 0.573980 0.728816
vt 0.709265 0.674966
vt 0.573455 0.618114
vt 0.573980 0.728816
vt 0.709265 0.674966
vt 0.573455 0.618114
vt 0.573980 0.728816
vt 0.709265 0.674966
vt 0.573455 0.618114
vt 0.709265 0.674966
vt 0.573980 0.728816
vt 0.280826 0.794492
vt 0.894612 0.378194
vt 0.960379 0.368142
vt 0.313673 0.830228
vt 0.342005 0.956856
vt 0.573980 0.728816
vt 0.709265 0.674966
vt 0.573455 0.618114
vt 0.573980 0.728816
vt 0.709265 0.674966
vt 0.573455 0.618114
vt 0.573980 0.728816
vt 0.709265 0.674966
vt 0.573455 0.618114
vt 0.573980 0.728816
vt 0.709265 0.674966
vt 0.573455 0.618114
vt 0.573980 0.728816
vt 0.709265 0.674966
vt 0.573455 0.618114
vn -0.00000 0.95263 -0.30415
vn -0.00000 0.92006 -0.39177
vn 0.51641 0.72656 -0.45324
vn 0.60250 0.70703 -0.37027
vn -0.30004 0.95237 0.05442
vn -0.00000 0.99944 0.03347
vn -0.00000 0.99623 0.08676
vn -0.22546 0.96988 0.09216
vn 0.93346 0.33764 -0.12101
vn 0.94171 0.32748 -0.07709
vn 0.95870 0.27275 -0.08068
vn 0.88865 0.42743 -0.16616
vn 0.91544 0.39136 -0.09387
vn 0.93986 0.27400 -0.20391
vn 0.68774 -0.61829 -0.38044
vn 0.87162 -0.12274 -0.47456
vn 0.63126 -0.39209 -0.66916
vn 0.46320 -0.73929 -0.48876
vn 0.92607 -0.19756 -0.32151
vn 0.58859 -0.78892 -0.17651
vn 0.71060 -0.66617 -0.22642
vn 0.90945 -0.30753 -0.27987
vn -0.00000 -0.98789 -0.15513
vn 0.00000 -0.99780 -0.06624
vn -0.00000 -0.99616 -0.08758
vn -0.00000 -0.98391 -0.17868
vn 0.69574 -0.70166 -0.15365
vn 0.59224 0.53670 -0.60100
vn -0.00000 0.70505 -0.70916
vn -0.00000 0.42239 -0.90641
vn 0.62969 0.38774 -0.67317
vn 0.86181 0.50721 -0.00518
vn 0.85462 0.49040 -0.17068
vn 0.95038 0.30210 -0.07427
vn 0.92107 0.29465 -0.25459
vn 0.98742 0.09058 -0.12957
vn 0.99581 0.08158 0.04125
vn 0.94854 0.30545 0.08350
vn 0.90579 -0.36003 -0.22342
vn -0.29478 0.95556 0.00251
vn 0.00000 0.99977 0.02131
vn -0.31398 0.94911 0.02486
vn -0.34346 0.93835 -0.03909
vn 0.00000 0.99833 -0.05774
vn -0.34038 -0.93954 -0.03735
vn 0.00000 -0.99995 -0.01041
vn -0.00000 -0.99217 -0.12489
vn -0.30813 -0.94714 -0.08933
vn -0.41084 -0.90483 0.11173
vn 0.00000 -0.99040 0.13821
vn -0.50911 -0.75182 0.41901
vn -0.00000 -0.83733 0.54670
vn 0.00000 -0.96082 0.27718
vn -0.45925 -0.85661 0.23519
vn 0.52135 -0.84266 -0.13462
vn 0.53447 -0.84130 -0.08093
vn 0.00000 -0.99471 -0.10270
vn 0.00000 -0.99490 -0.10088
vn 0.92183 0.37471 -0.09913
vn 0.68815 0.72091 -0.08202
vn 0.50092 0.85707 -0.12041
vn 0.00000 0.99232 -0.12369
vn 0.00000 0.99893 -0.04618
vn 0.63093 0.77376 -0.05677
vn 0.52347 -0.77133 -0.36198
vn 0.93123 -0.24169 -0.27276
vn 0.95805 -0.26270 -0.11460
vn 0.89334 0.39798 -0.20870
vn 0.90514 0.41074 -0.10962
vn 0.91925 0.33897 -0.20018
vn 0.98836 0.07798 -0.13064
vn 0.42395 0.87791 -0.22256
vn 0.60310 0.75593 -0.25463
vn 0.64801 0.69947 -0.30137
vn -0.00000 0.96051 -0.27824
vn 0.00000 0.97308 -0.23049
vn 0.00000 0.99417 -0.10782
vn 0.54245 -0.83894 -0.04393
vn -0.33799 -0.83249 -0.43901
vn -0.30450 -0.95230 0.02008
vn 0.00000 -0.99843 -0.05606
vn 0.00000 -0.69957 -0.71457
vn -0.30354 0.93980 -0.15696
vn 0.00000 0.97352 -0.22861
vn 0.81785 0.32514 -0.47476
vn 0.89157 0.31032 -0.32986
vn 0.91401 0.27989 -0.29369
vn -0.00000 -0.99737 -0.07246
vn 0.98989 -0.06717 -0.12494
vn 0.97041 -0.18860 -0.15078
vn 0.98989 -0.06717 -0.12494
vn 0.99373 0.05532 -0.09712
vn 0.95353 0.06687 -0.29377
vn 0.95353 0.06687 -0.29377
vn 0.95353 0.06687 -0.29377
vn 0.74231 0.65522 0.14021
vn 0.78165 0.61934 0.07380
vn 0.00000 0.99660 0.08234
vn 0.00000 0.99048 0.13763
vn 0.96963 0.06825 0.23486
vn 0.58762 -0.74602 0.31331
vn 0.77576 -0.62383 0.09506
vn 0.98868 0.12707 0.07973
vn 0.97245 0.00727 0.23301
vn 0.83900 0.45526 0.29803
vn 0.89923 0.42163 0.11665
vn 0.99807 -0.01501 0.06019
vn 0.00000 0.05004 0.99875
vn 0.52616 0.84568 0.08930
vn 0.62960 0.75856 0.16793
vn 0.00000 0.98913 0.14707
vn 0.00000 0.99646 0.08410
vn 0.80598 0.59170 0.01691
vn 0.82331 0.49864 0.27115
vn 0.89023 0.45361 0.04148
vn 0.89824 0.43880 0.02479
vn 0.99947 -0.01148 0.03038
vn 0.00000 0.97391 0.22692
vn 0.00000 1.00000 0.00274
vn 0.91496 -0.40298 0.02153
vn 0.92258 -0.37501 0.09063
vn 0.34359 0.93889 0.02070
vn 0.27233 0.75661 -0.59446
vn 0.04654 0.93122 -0.36146
vn 0.05467 0.99736 0.04776
vn 0.07141 0.93332 -0.35186
vn 0.02700 0.99945 0.01945
vn -0.10206 -0.01949 -0.99459
vn 0.06816 -0.07936 -0.99451
vn 0.10239 -0.04648 -0.99366
vn -0.03630 -0.92411 -0.38040
vn 0.66171 -0.41769 -0.62264
vn 0.29848 -0.93889 -0.17145
vn -0.11168 0.89658 0.42856
vn -0.03880 0.91291 0.40632
vn -0.19917 0.22767 0.95315
vn -0.30525 -0.23045 0.92397
vn -0.30525 -0.23045 0.92397
vn -0.19917 0.22767 0.95315
vn -0.06298 -0.93404 0.35156
vn -0.08425 -0.96120 0.26269
vn 0.80598 0.59170 0.01691
vn 0.30555 0.83759 0.45286
vn 0.82331 0.49864 0.27115
vn 0.91119 -0.11572 0.39540
vn 0.48702 -0.86560 0.11635
vn 0.60249 -0.79767 -0.02695
vn 0.83635 0.42796 -0.34258
vn 0.83292 0.52426 -0.17718
vn 0.89334 0.39798 -0.20870
vn 0.93123 -0.24169 -0.27276
vn 0.96963 0.06825 0.23486
vn 0.91814 0.32590 0.22539
vn 0.65570 0.57876 0.48486
vn 0.37548 -0.31473 0.87175
vn -0.00922 -0.93984 -0.34148
vn 0.05685 -0.96364 -0.26107
vn 0.57408 -0.80066 -0.17141
vn 0.00000 -0.97494 -0.22248
vn 0.00000 -0.99822 -0.05964
vn 0.00000 -0.99846 0.05553
vn 0.54865 -0.83047 0.09642
vn 0.43730 -0.89800 -0.04868
vn 0.93715 -0.34893 -0.00181
vn 0.49916 -0.84691 0.18324
vn 0.52980 -0.17810 -0.82921
vn 0.36054 0.82678 -0.43180
vn 0.80890 0.54443 -0.22200
vn 0.93715 -0.34893 -0.00181
vn 0.20554 0.97512 0.08307
vn -0.11842 0.80575 0.58030
vn 0.65570 0.57876 0.48486
vn 0.76060 0.62972 0.15795
vn 0.43730 -0.89800 -0.04868
vn 0.06535 -0.95253 -0.29736
vn 0.29132 -0.91524 0.27833
vn -0.14639 -0.96472 0.21882
vn 0.92747 0.32285 0.18862
vn 0.80890 0.54443 -0.22200
vn 0.76060 0.62972 0.15795
vn 0.58762 -0.74602 0.31331
vn 0.44989 -0.86663 0.21577
vn -0.00000 -0.97647 0.21566
vn -0.00000 -0.98851 0.15116
vn 0.84373 0.51488 0.15174
vn 0.97679 -0.16181 0.14035
vn 0.87761 -0.39763 0.26773
vn -0.00000 -0.98851 0.15116
vn 0.00000 -0.99450 0.10472
vn 0.10013 0.95117 0.29197
vn 0.14810 -0.02283 0.98871
vn 0.00000 0.82836 0.56019
vn -0.00000 -0.97869 0.20534
vn 0.00000 -0.80796 0.58924
vn 0.21899 0.92197 -0.31940
vn 0.07835 0.99569 0.04963
vn -0.49389 -0.30381 0.81472
vn -0.19029 0.87411 0.44690
vn -0.39927 -0.09322 0.91208
vn 0.26317 0.93672 -0.23086
vn 0.06426 0.99681 0.04732
vn 0.97875 -0.06686 -0.19385
vn 0.36294 0.93180 -0.00409
vn 0.64891 -0.17670 -0.74007
vn 0.20674 0.94193 0.26462
vn -0.00157 0.88676 0.46223
vn -0.15166 -0.97154 0.18194
vn 0.13378 -0.93558 -0.32680
vn 0.00656 -0.96032 0.27881
vn 0.22416 -0.94291 -0.24632
vn 0.27680 -0.93638 0.21582
vn 0.28563 -0.95293 -0.10172
vn 0.59902 0.17716 0.78089
vn -0.00246 0.01777 0.99984
vn -0.39927 -0.09322 0.91208
vn 0.33626 -0.01018 -0.94171
vn -0.00000 -0.99935 -0.03604
vn 0.87047 0.49206 -0.01251
vn 0.00000 0.99784 -0.06568
vn 0.89288 -0.45000 -0.01595
vn 0.99953 -0.01916 0.02406
vn 0.59902 0.17716 0.78089
vn 0.45672 0.88464 -0.09395
vn 0.51228 0.85880 0.00551
vn 0.50092 0.85707 -0.12041
vn 0.29132 -0.91524 0.27833
vn 0.29848 -0.93889 -0.17145
vn 0.83635 0.42796 -0.34258
vn 0.00000 0.99232 -0.12369
vn -0.00000 0.99283 -0.11956
vn -0.00000 1.00000 -0.00266
vn -0.00000 -0.99202 0.12611
vn -0.00000 -0.99330 -0.11555
vn 0.66171 -0.41769 -0.62264
vn 0.00000 0.99942 0.03417
vn 0.83757 0.54505 0.03743
vn 0.83850 0.54490 0.00293
vn 0.00000 0.99909 -0.04257
vn 0.77446 -0.63151 0.03747
vn 0.82550 -0.56414 -0.01701
vn 0.99930 -0.02388 0.02868
vn 0.99215 -0.10887 0.06160
vn 0.00000 -0.99869 0.05117
vn 0.00000 -0.99891 -0.04667
vn 0.18063 0.95205 0.24692
vn 0.58400 0.03347 0.81107
vn 0.01710 -0.29233 0.95617
vn -0.03773 -0.96872 0.24528
vn 0.01710 -0.29233 0.95617
vn 0.14810 -0.02283 0.98871
vn 0.08310 -0.93547 0.34351
vn 0.58400 0.03347 0.81107
vn 0.14054 -0.96567 0.21848
vn 0.12291 -0.97139 -0.20321
vn 0.43503 -0.89390 0.10811
vn 0.23179 -0.95882 -0.16412
vn 0.04156 0.99903 0.01485
vn 0.36804 0.92605 0.08355
vn 0.48702 -0.86560 0.11635
vn 0.91119 -0.11572 0.39540
vn 0.41781 -0.07131 -0.90573
vn 0.19788 0.93454 -0.29576
vn 0.29072 0.94144 -0.17082
vn 0.83187 -0.04766 -0.55292
vn 0.97323 0.02007 0.22897
vn 0.97323 0.02007 0.22897
vn 0.83187 -0.04766 -0.55292
vn 0.52347 -0.77133 -0.36198
vn 0.45426 -0.80690 -0.37757
vn 0.37548 -0.31473 0.87175
vn -0.49389 -0.30381 0.81472
vn -0.00000 -0.99027 -0.13916
vn -0.00000 -0.90664 -0.42190
vn 0.95456 0.08657 -0.28515
vn 0.95456 0.08657 -0.28515
vn 0.95456 0.08657 -0.28515
vn 0.94353 0.13502 -0.30251
vn 0.94353 0.13502 -0.30251
vn 0.94353 0.13502 -0.30251
vn 0.89350 0.12114 -0.43242
vn 0.89350 0.12114 -0.43242
vn 0.89350 0.12114 -0.43242
vn 0.84782 0.07723 -0.52463
vn 0.84782 0.07723 -0.52463
vn 0.84782 0.07723 -0.52463
vn 0.66343 0.22471 -0.71370
vn 0.66344 0.22473 -0.71368
vn -0.00000 0.30032 -0.95384
vn -0.00000 0.30029 -0.95385
vn 0.91119 -0.11572 0.39540
vn 0.68394 0.70686 0.18047
vn 0.00000 0.98464 0.17460
vn 0.74231 0.65522 0.14021
vn 0.00000 0.99048 0.13763
vn 0.37548 -0.31473 0.87175
vn -0.00246 0.01777 0.99984
vn 0.92708 -0.15567 -0.34101
vn 0.92708 -0.15567 -0.34101
vn 0.92708 -0.15567 -0.34101
vn 0.94786 -0.14627 -0.28314
vn 0.94786 -0.14627 -0.28314
vn 0.94786 -0.14627 -0.28314
vn 0.91466 -0.12481 -0.38448
vn 0.91466 -0.12481 -0.38448
vn 0.91466 -0.12481 -0.38448
vn 0.87327 -0.12246 -0.47159
vn 0.87327 -0.12246 -0.47159
vn 0.87327 -0.12246 -0.47159
vn 0.83726 -0.12849 -0.53150
vn 0.83726 -0.12849 -0.53150
vn 0.83726 -0.12849 -0.53150
vn 0.00000 0.97160 -0.23663
vn -0.00000 -0.99027 -0.13916
vn 0.00000 -0.75825 -0.65196
vn 0.00000 -0.63977 -0.76857
vn 0.00000 0.99316 0.11677
vn 0.00000 -0.68222 0.73114
vn 0.00000 -0.09356 -0.99561
vn -0.60250 0.70703 -0.37027
vn -0.51641 0.72656 -0.45324
vn 0.30004 0.95237 0.05442
vn 0.22546 0.96988 0.09216
vn -0.93346 0.33764 -0.12101
vn -0.95870 0.27275 -0.08068
vn -0.94171 0.32748 -0.07709
vn -0.88865 0.42743 -0.16616
vn -0.91544 0.39136 -0.09387
vn -0.93986 0.27400 -0.20391
vn -0.68774 -0.61829 -0.38044
vn -0.46320 -0.73929 -0.48876
vn -0.63126 -0.39209 -0.66916
vn -0.87162 -0.12274 -0.47456
vn -0.92607 -0.19756 -0.32151
vn -0.90945 -0.30753 -0.27987
vn -0.71060 -0.66617 -0.22642
vn -0.58859 -0.78892 -0.17651
vn -0.69574 -0.70166 -0.15365
vn -0.59224 0.53670 -0.60100
vn -0.62969 0.38774 -0.67317
vn -0.86181 0.50721 -0.00518
vn -0.95038 0.30210 -0.07427
vn -0.85462 0.49040 -0.17068
vn -0.92107 0.29465 -0.25459
vn -0.98742 0.09058 -0.12957
vn -0.99581 0.08158 0.04125
vn -0.94854 0.30545 0.08350
vn -0.90579 -0.36003 -0.22342
vn 0.29478 0.95556 0.00251
vn 0.31398 0.94911 0.02486
vn 0.34346 0.93835 -0.03909
vn 0.34038 -0.93954 -0.03735
vn 0.30813 -0.94714 -0.08933
vn 0.41084 -0.90483 0.11173
vn 0.50911 -0.75182 0.41901
vn 0.45925 -0.85661 0.23519
vn -0.52135 -0.84266 -0.13462
vn -0.53447 -0.84130 -0.08093
vn -0.68815 0.72091 -0.08202
vn -0.92183 0.37471 -0.09913
vn -0.50092 0.85707 -0.12041
vn -0.63093 0.77376 -0.05677
vn -0.95805 -0.26270 -0.11460
vn -0.93123 -0.24169 -0.27276
vn -0.52347 -0.77133 -0.36199
vn -0.90514 0.41074 -0.10962
vn -0.89334 0.39798 -0.20870
vn -0.98836 0.07798 -0.13064
vn -0.91926 0.33897 -0.20018
vn -0.60310 0.75593 -0.25463
vn -0.42395 0.87791 -0.22256
vn -0.64801 0.69947 -0.30137
vn -0.54245 -0.83894 -0.04393
vn 0.33799 -0.83249 -0.43901
vn 0.30450 -0.95230 0.02008
vn 0.30354 0.93980 -0.15696
vn -0.81786 0.32514 -0.47476
vn -0.89157 0.31032 -0.32986
vn -0.91401 0.27989 -0.29369
vn -0.98989 -0.06717 -0.12494
vn -0.99373 0.05532 -0.09712
vn -0.98989 -0.06717 -0.12494
vn -0.97041 -0.18860 -0.15078
vn -0.95353 0.06687 -0.29377
vn -0.95353 0.06687 -0.29377
vn -0.95353 0.06687 -0.29377
vn -0.74231 0.65522 0.14021
vn -0.78165 0.61934 0.07380
vn -0.96963 0.06825 0.23486
vn -0.98868 0.12707 0.07973
vn -0.77576 -0.62383 0.09506
vn -0.58762 -0.74602 0.31331
vn -0.97245 0.00727 0.23301
vn -0.99807 -0.01501 0.06019
vn -0.89923 0.42163 0.11665
vn -0.83900 0.45526 0.29803
vn -0.52616 0.84568 0.08930
vn -0.62960 0.75856 0.16793
vn -0.80598 0.59170 0.01691
vn -0.89023 0.45361 0.04148
vn -0.82331 0.49864 0.27115
vn -0.99947 -0.01148 0.03038
vn -0.89824 0.43880 0.02479
vn -0.91496 -0.40298 0.02153
vn -0.92258 -0.37501 0.09063
vn -0.34359 0.93889 0.02070
vn -0.05467 0.99736 0.04776
vn -0.04654 0.93122 -0.36146
vn -0.27233 0.75661 -0.59446
vn -0.02700 0.99945 0.01945
vn -0.07141 0.93332 -0.35186
vn 0.10206 -0.01949 -0.99459
vn -0.06816 -0.07936 -0.99451
vn -0.10239 -0.04648 -0.99366
vn 0.03630 -0.92411 -0.38040
vn -0.29848 -0.93889 -0.17145
vn -0.66171 -0.41769 -0.62264
vn 0.11168 0.89658 0.42856
vn 0.30525 -0.23045 0.92397
vn 0.19917 0.22767 0.95315
vn 0.03880 0.91291 0.40632
vn 0.30525 -0.23045 0.92397
vn 0.08425 -0.96119 0.26269
vn 0.06298 -0.93404 0.35156
vn 0.19917 0.22767 0.95315
vn -0.80598 0.59170 0.01691
vn -0.82331 0.49864 0.27115
vn -0.30555 0.83759 0.45286
vn -0.91119 -0.11572 0.39540
vn -0.60249 -0.79767 -0.02695
vn -0.48702 -0.86560 0.11635
vn -0.83635 0.42796 -0.34258
vn -0.93123 -0.24169 -0.27276
vn -0.89334 0.39798 -0.20870
vn -0.83292 0.52426 -0.17718
vn -0.96963 0.06825 0.23486
vn -0.37548 -0.31473 0.87175
vn -0.65570 0.57876 0.48486
vn -0.91814 0.32590 0.22539
vn 0.00922 -0.93984 -0.34148
vn -0.05685 -0.96364 -0.26107
vn -0.57408 -0.80066 -0.17141
vn -0.54865 -0.83047 0.09642
vn -0.43730 -0.89800 -0.04868
vn -0.49916 -0.84691 0.18324
vn -0.93715 -0.34893 -0.00181
vn -0.52980 -0.17810 -0.82921
vn -0.93715 -0.34893 -0.00181
vn -0.80890 0.54443 -0.22200
vn -0.36054 0.82678 -0.43179
vn -0.20554 0.97512 0.08307
vn -0.76060 0.62972 0.15795
vn -0.65570 0.57876 0.48486
vn 0.11842 0.80575 0.58030
vn -0.43730 -0.89800 -0.04868
vn -0.06535 -0.95253 -0.29736
vn 0.14639 -0.96472 0.21882
vn -0.29132 -0.91524 0.27833
vn -0.92747 0.32285 0.18862
vn -0.76060 0.62972 0.15795
vn -0.80890 0.54443 -0.22200
vn -0.58762 -0.74602 0.31331
vn -0.44989 -0.86663 0.21577
vn -0.97679 -0.16181 0.14035
vn -0.84373 0.51488 0.15174
vn -0.87761 -0.39764 0.26773
vn -0.14810 -0.02283 0.98871
vn -0.10013 0.95117 0.29197
vn -0.07835 0.99569 0.04963
vn -0.21899 0.92197 -0.31940
vn 0.49389 -0.30381 0.81472
vn 0.39927 -0.09322 0.91208
vn 0.19029 0.87411 0.44690
vn -0.06426 0.99681 0.04732
vn -0.26317 0.93672 -0.23086
vn -0.97875 -0.06686 -0.19385
vn -0.64891 -0.17670 -0.74006
vn -0.36294 0.93180 -0.00409
vn 0.00157 0.88676 0.46223
vn -0.20674 0.94193 0.26462
vn 0.15166 -0.97154 0.18194
vn -0.13378 -0.93558 -0.32680
vn -0.00656 -0.96032 0.27881
vn -0.22416 -0.94291 -0.24632
vn -0.28563 -0.95293 -0.10172
vn -0.27680 -0.93638 0.21582
vn -0.59902 0.17716 0.78089
vn 0.00246 0.01777 0.99984
vn 0.39927 -0.09322 0.91208
vn -0.33626 -0.01018 -0.94171
vn -0.87047 0.49206 -0.01251
vn -0.89288 -0.45000 -0.01595
vn -0.99953 -0.01916 0.02406
vn -0.59902 0.17716 0.78089
vn -0.45672 0.88464 -0.09395
vn -0.51228 0.85880 0.00551
vn -0.50092 0.85707 -0.12041
vn -0.29132 -0.91524 0.27833
vn -0.29848 -0.93889 -0.17145
vn -0.83635 0.42796 -0.34258
vn -0.00000 0.99283 -0.11956
vn -0.00000 1.00000 -0.00266
vn -0.66171 -0.41769 -0.62264
vn -0.83850 0.54490 0.00293
vn -0.83757 0.54505 0.03743
vn -0.77446 -0.63151 0.03747
vn -0.99215 -0.10887 0.06160
vn -0.99930 -0.02388 0.02868
vn -0.82550 -0.56414 -0.01701
vn -0.58400 0.03347 0.81107
vn -0.18063 0.95205 0.24692
vn -0.01710 -0.29233 0.95617
vn -0.01710 -0.29233 0.95617
vn 0.03773 -0.96872 0.24528
vn -0.08310 -0.93547 0.34351
vn -0.14810 -0.02283 0.98871
vn -0.14054 -0.96567 0.21848
vn -0.58400 0.03347 0.81107
vn -0.23179 -0.95882 -0.16412
vn -0.43503 -0.89390 0.10811
vn -0.12291 -0.97139 -0.20321
vn -0.36804 0.92605 0.08355
vn -0.04156 0.99903 0.01485
vn -0.48702 -0.86560 0.11635
vn -0.91119 -0.11572 0.39540
vn -0.19788 0.93454 -0.29576
vn -0.41781 -0.07131 -0.90573
vn -0.97323 0.02007 0.22897
vn -0.83187 -0.04766 -0.55292
vn -0.29072 0.94144 -0.17082
vn -0.83187 -0.04766 -0.55292
vn -0.97323 0.02007 0.22897
vn -0.52347 -0.77133 -0.36199
vn -0.45426 -0.80690 -0.37757
vn -0.37548 -0.31473 0.87175
vn 0.49389 -0.30381 0.81472
vn -0.00000 -0.90664 -0.42190
vn -0.95456 0.08657 -0.28515
vn -0.95456 0.08657 -0.28515
vn -0.95456 0.08657 -0.28515
vn -0.94353 0.13502 -0.30251
vn -0.94353 0.13502 -0.30251
vn -0.94353 0.13502 -0.30251
vn -0.89350 0.12114 -0.43242
vn -0.89350 0.12114 -0.43242
vn -0.89350 0.12114 -0.43242
vn -0.84782 0.07723 -0.52463
vn -0.84782 0.07723 -0.52463
vn -0.84782 0.07723 -0.52463
vn -0.66343 0.22471 -0.71370
vn -0.66344 0.22473 -0.71368
vn -0.91119 -0.11572 0.39540
vn -0.68394 0.70686 0.18047
vn -0.74231 0.65522 0.14021
vn -0.37548 -0.31473 0.87175
vn 0.00246 0.01777 0.99984
vn -0.92708 -0.15567 -0.34101
vn -0.92708 -0.15567 -0.34101
vn -0.92708 -0.15567 -0.34101
vn -0.94786 -0.14627 -0.28314
vn -0.94786 -0.14627 -0.28314
vn -0.94786 -0.14627 -0.28314
vn -0.91466 -0.12481 -0.38448
vn -0.91466 -0.12481 -0.38448
vn -0.91466 -0.12481 -0.38448
vn -0.87327 -0.12246 -0.47159
vn -0.87327 -0.12246 -0.47159
vn -0.87327 -0.12246 -0.47159
vn -0.83726 -0.12849 -0.53150
vn -0.83726 -0.12849 -0.53150
vn -0.83726 -0.12849 -0.53150
f 53/53/53 52/52/52 354/354/354
f 354/354/354 355/355/355 53/53/53
f 51/51/51 52/52/52 53/53/53
f 52/52/52 51/51/51 317/317/317
f 52/52/52 317/317/317 354/354/354
f 351/351/351 352/352/352 47/47/47
f 136/136/136 137/137/137 134/134/134
f 134/134/134 137/137/137 247/247/247
f 417/417/417 418/418/418 419/419/419
f 511/511/511 418/418/418 417/417/417
f 417/417/417 427/427/427 511/511/511
f 551/551/551 511/511/511 427/427/427
f 427/427/427 426/426/426 551/551/551
f 425/425/425 426/426/426 427/427/427
f 46/46/46 45/45/45 49/49/49
f 47/47/47 48/48/48 45/45/45
f 45/45/45 46/46/46 47/47/47
f 46/46/46 50/50/50 353/353/353
f 353/353/353 351/351/351 46/46/46
f 47/47/47 46/46/46 351/351/351
f 49/49/49 50/50/50 46/46/46
f 50/50/50 49/49/49 54/54/54
f 50/50/50 53/53/53 355/355/355
f 355/355/355 353/353/353 50/50/50
f 54/54/54 53/53/53 50/50/50
f 53/53/53 54/54/54 51/51/51
f 6/6/6 5/5/5 40/40/40
f 7/7/7 8/8/8 5/5/5
f 5/5/5 6/6/6 7/7/7
f 6/6/6 41/41/41 348/348/348
f 348/348/348 321/321/321 6/6/6
f 7/7/7 6/6/6 321/321/321
f 40/40/40 41/41/41 6/6/6
f 40/40/40 42/42/42 41/41/41
f 349/349/349 41/41/41 44/44/44
f 348/348/348 41/41/41 349/349/349
f 44/44/44 41/41/41 42/42/42
f 42/42/42 43/43/43 44/44/44
f 167/167/167 166/166/166 216/216/216
f 216/216/216 166/166/166 175/175/175
f 166/166/166 169/169/169 174/174/174
f 174/174/174 175/175/175 166/166/166
f 168/168/168 169/169/169 166/166/166
f 166/166/166 167/167/167 168/168/168
f 216/216/216 195/195/195 167/167/167
f 173/173/173 168/168/168 167/167/167
f 167/167/167 170/170/170 173/173/173
f 170/170/170 167/167/167 195/195/195
f 195/195/195 216/216/216 204/204/204
f 204/204/204 216/216/216 208/208/208
f 489/489/489 446/446/446 449/449/449
f 455/455/455 446/446/446 489/489/489
f 446/446/446 455/455/455 454/454/454
f 454/454/454 447/447/447 446/446/446
f 448/448/448 449/449/449 446/446/446
f 446/446/446 447/447/447 448/448/448
f 476/476/476 489/489/489 469/469/469
f 449/449/449 469/469/469 489/489/489
f 481/481/481 489/489/489 476/476/476
f 489/489/489 481/481/481 455/455/455
f 451/451/451 450/450/450 449/449/449
f 449/449/449 448/448/448 451/451/451
f 263/263/263 258/258/258 257/257/257
f 258/258/258 263/263/263 264/264/264
f 258/258/258 265/265/265 246/246/246
f 246/246/246 245/245/245 258/258/258
f 264/264/264 265/265/265 258/258/258
f 257/257/257 258/258/258 245/245/245
f 245/245/245 190/190/190 257/257/257
f 190/190/190 245/245/245 246/246/246
f 246/246/246 191/191/191 190/190/190
f 135/135/135 190/190/190 191/191/191
f 191/191/191 136/136/136 135/135/135
f 134/134/134 135/135/135 136/136/136
f 528/528/528 529/529/529 521/521/521
f 521/521/521 527/527/527 528/528/528
f 522/522/522 521/521/521 529/529/529
f 521/521/521 510/510/510 509/509/509
f 509/509/509 527/527/527 521/521/521
f 510/510/510 521/521/521 522/522/522
f 522/522/522 467/467/467 510/510/510
f 509/509/509 510/510/510 467/467/467
f 467/467/467 466/466/466 509/509/509
f 466/466/466 467/467/467 420/420/420
f 420/420/420 419/419/419 466/466/466
f 419/419/419 420/420/420 417/417/417
f 143/143/143 122/122/122 125/125/125
f 122/122/122 142/142/142 228/228/228
f 228/228/228 123/123/123 122/122/122
f 142/142/142 122/122/122 143/143/143
f 124/124/124 125/125/125 122/122/122
f 122/122/122 123/123/123 124/124/124
f 290/290/290 144/144/144 143/143/143
f 143/143/143 247/247/247 290/290/290
f 125/125/125 134/134/134 143/143/143
f 247/247/247 143/143/143 134/134/134
f 143/143/143 144/144/144 142/142/142
f 134/134/134 125/125/125 127/127/127
f 267/267/267 256/256/256 255/255/255
f 255/255/255 266/266/266 267/267/267
f 253/253/253 255/255/255 256/256/256
f 255/255/255 253/253/253 252/252/252
f 252/252/252 253/253/253 251/251/251
f 251/251/251 250/250/250 252/252/252
f 250/250/250 251/251/251 140/140/140
f 252/252/252 266/266/266 255/255/255
f 140/140/140 139/139/139 250/250/250
f 140/140/140 141/141/141 138/138/138
f 138/138/138 139/139/139 140/140/140
f 131/131/131 248/248/248 141/141/141
f 141/141/141 156/156/156 131/131/131
f 249/249/249 138/138/138 141/141/141
f 141/141/141 248/248/248 249/249/249
f 248/248/248 131/131/131 133/133/133
f 131/131/131 156/156/156 128/128/128
f 44/44/44 84/84/84 375/375/375
f 375/375/375 350/350/350 44/44/44
f 44/44/44 350/350/350 349/349/349
f 44/44/44 43/43/43 83/83/83
f 83/83/83 84/84/84 44/44/44
f 321/321/321 322/322/322 7/7/7
f 316/316/316 7/7/7 322/322/322
f 316/316/316 8/8/8 7/7/7
f 515/515/515 424/424/424 423/423/423
f 423/423/423 424/424/424 421/421/421
f 440/440/440 423/423/423 422/422/422
f 421/421/421 422/422/422 423/423/423
f 422/422/422 421/421/421 512/512/512
f 414/414/414 439/439/439 422/422/422
f 422/422/422 513/513/513 414/414/414
f 422/422/422 439/439/439 440/440/440
f 512/512/512 513/513/513 422/422/422
f 512/512/512 524/524/524 523/523/523
f 523/523/523 513/513/513 512/512/512
f 513/513/513 523/523/523 415/415/415
f 415/415/415 414/414/414 513/513/513
f 414/414/414 415/415/415 416/416/416
f 414/414/414 412/412/412 411/411/411
f 411/411/411 439/439/439 414/414/414
f 416/416/416 412/412/412 414/414/414
f 175/175/175 208/208/208 216/216/216
f 204/204/204 200/200/200 195/195/195
f 196/196/196 195/195/195 200/200/200
f 195/195/195 196/196/196 170/170/170
f 171/171/171 170/170/170 196/196/196
f 172/172/172 173/173/173 170/170/170
f 170/170/170 171/171/171 172/172/172
f 196/196/196 198/198/198 171/171/171
f 198/198/198 196/196/196 201/201/201
f 200/200/200 201/201/201 196/196/196
f 203/203/203 201/201/201 200/200/200
f 200/200/200 204/204/204 202/202/202
f 202/202/202 203/203/203 200/200/200
f 205/205/205 201/201/201 203/203/203
f 201/201/201 206/206/206 198/198/198
f 201/201/201 205/205/205 206/206/206
f 199/199/199 198/198/198 206/206/206
f 198/198/198 199/199/199 197/197/197
f 197/197/197 171/171/171 198/198/198
f 295/295/295 172/172/172 171/171/171
f 171/171/171 197/197/197 295/295/295
f 206/206/206 296/296/296 199/199/199
f 206/206/206 205/205/205 222/222/222
f 222/222/222 296/296/296 206/206/206
f 222/222/222 205/205/205 203/203/203
f 203/203/203 202/202/202 222/222/222
f 202/202/202 212/212/212 211/211/211
f 469/469/469 449/449/449 450/450/450
f 469/469/469 474/474/474 476/476/476
f 474/474/474 469/469/469 468/468/468
f 450/450/450 468/468/468 469/469/469
f 468/468/468 450/450/450 453/453/453
f 452/452/452 453/453/453 450/450/450
f 450/450/450 451/451/451 452/452/452
f 453/453/453 472/472/472 468/468/468
f 473/473/473 468/468/468 472/472/472
f 468/468/468 473/473/473 474/474/474
f 477/477/477 474/474/474 473/473/473
f 474/474/474 477/477/477 475/475/475
f 475/475/475 476/476/476 474/474/474
f 479/479/479 477/477/477 473/473/473
f 472/472/472 478/478/478 473/473/473
f 473/473/473 478/478/478 479/479/479
f 478/478/478 472/472/472 471/471/471
f 472/472/472 453/453/453 470/470/470
f 470/470/470 471/471/471 472/472/472
f 471/471/471 555/555/555 478/478/478
f 478/478/478 555/555/555 493/493/493
f 493/493/493 479/479/479 478/478/478
f 477/477/477 479/479/479 493/493/493
f 493/493/493 475/475/475 477/477/477
f 475/475/475 486/486/486 485/485/485
f 485/485/485 484/484/484 475/475/475
f 476/476/476 475/475/475 484/484/484
f 406/406/406 405/405/405 427/427/427
f 405/405/405 408/408/408 499/499/499
f 499/499/499 425/425/425 405/405/405
f 427/427/427 405/405/405 425/425/425
f 407/407/407 408/408/408 405/405/405
f 405/405/405 406/406/406 407/407/407
f 427/427/427 417/417/417 406/406/406
f 409/409/409 406/406/406 417/417/417
f 410/410/410 407/407/407 406/406/406
f 406/406/406 409/409/409 410/410/410
f 407/407/407 410/410/410 413/413/413
f 413/413/413 411/411/411 407/407/407
f 117/117/117 116/116/116 218/218/218
f 218/218/218 116/116/116 119/119/119
f 218/218/218 221/221/221 117/117/117
f 221/221/221 218/218/218 237/237/237
f 218/218/218 219/219/219 238/238/238
f 238/238/238 237/237/237 218/218/218
f 119/119/119 219/219/219 218/218/218
f 119/119/119 402/402/402 490/490/490
f 490/490/490 219/219/219 119/119/119
f 490/490/490 402/402/402 401/401/401
f 393/393/393 401/401/401 402/402/402
f 503/503/503 490/490/490 492/492/492
f 490/490/490 503/503/503 238/238/238
f 238/238/238 219/219/219 490/490/490
f 401/401/401 492/492/492 490/490/490
f 235/235/235 238/238/238 503/503/503
f 237/237/237 238/238/238 235/235/235
f 237/237/237 241/241/241 221/221/221
f 387/387/387 98/98/98 235/235/235
f 235/235/235 504/504/504 387/387/387
f 236/236/236 242/242/242 241/241/241
f 235/235/235 236/236/236 237/237/237
f 102/102/102 239/239/239 242/242/242
f 241/241/241 242/242/242 239/239/239
f 243/243/243 239/239/239 102/102/102
f 102/102/102 189/189/189 243/243/243
f 189/189/189 102/102/102 101/101/101
f 101/101/101 188/188/188 189/189/189
f 243/243/243 189/189/189 390/390/390
f 189/189/189 188/188/188 391/391/391
f 391/391/391 390/390/390 189/189/189
f 390/390/390 505/505/505 243/243/243
f 244/244/244 243/243/243 505/505/505
f 239/239/239 243/243/243 244/244/244
f 244/244/244 240/240/240 239/239/239
f 239/239/239 240/240/240 241/241/241
f 233/233/233 244/244/244 508/508/508
f 505/505/505 508/508/508 244/244/244
f 240/240/240 244/244/244 233/233/233
f 506/506/506 505/505/505 390/390/390
f 507/507/507 508/508/508 505/505/505
f 505/505/505 506/506/506 507/507/507
f 508/508/508 491/491/491 233/233/233
f 508/508/508 507/507/507 492/492/492
f 492/492/492 491/491/491 508/508/508
f 217/217/217 233/233/233 491/491/491
f 233/233/233 220/220/220 240/240/240
f 503/503/503 504/504/504 235/235/235
f 492/492/492 507/507/507 503/503/503
f 504/504/504 503/503/503 507/507/507
f 389/389/389 387/387/387 504/504/504
f 504/504/504 506/506/506 389/389/389
f 507/507/507 506/506/506 504/504/504
f 388/388/388 386/386/386 387/387/387
f 387/387/387 389/389/389 388/388/388
f 98/98/98 387/387/387 386/386/386
f 386/386/386 99/99/99 98/98/98
f 390/390/390 391/391/391 388/388/388
f 388/388/388 389/389/389 390/390/390
f 390/390/390 389/389/389 506/506/506
f 97/97/97 96/96/96 100/100/100
f 98/98/98 99/99/99 96/96/96
f 96/96/96 97/97/97 98/98/98
f 236/236/236 97/97/97 103/103/103
f 97/97/97 236/236/236 235/235/235
f 235/235/235 98/98/98 97/97/97
f 100/100/100 103/103/103 97/97/97
f 102/102/102 103/103/103 100/100/100
f 100/100/100 101/101/101 102/102/102
f 103/103/103 242/242/242 236/236/236
f 242/242/242 103/103/103 102/102/102
f 241/241/241 237/237/237 236/236/236
f 484/484/484 483/483/483 476/476/476
f 476/476/476 483/483/483 481/481/481
f 484/484/484 485/485/485 482/482/482
f 482/482/482 483/483/483 484/484/484
f 482/482/482 485/485/485 486/486/486
f 486/486/486 487/487/487 482/482/482
f 482/482/482 487/487/487 488/488/488
f 488/488/488 480/480/480 482/482/482
f 481/481/481 483/483/483 482/482/482
f 482/482/482 480/480/480 481/481/481
f 455/455/455 481/481/481 480/480/480
f 480/480/480 488/488/488 535/535/535
f 535/535/535 456/456/456 480/480/480
f 480/480/480 456/456/456 455/455/455
f 457/457/457 454/454/454 455/455/455
f 455/455/455 456/456/456 457/457/457
f 456/456/456 535/535/535 534/534/534
f 175/175/175 174/174/174 176/176/176
f 177/177/177 176/176/176 270/270/270
f 270/270/270 271/271/271 177/177/177
f 211/211/211 213/213/213 202/202/202
f 212/212/212 202/202/202 204/204/204
f 204/204/204 210/210/210 212/212/212
f 212/212/212 210/210/210 209/209/209
f 209/209/209 211/211/211 212/212/212
f 213/213/213 211/211/211 209/209/209
f 209/209/209 214/214/214 213/213/213
f 209/209/209 207/207/207 215/215/215
f 215/215/215 214/214/214 209/209/209
f 208/208/208 207/207/207 209/209/209
f 209/209/209 210/210/210 208/208/208
f 208/208/208 210/210/210 204/204/204
f 207/207/207 208/208/208 175/175/175
f 207/207/207 177/177/177 271/271/271
f 271/271/271 215/215/215 207/207/207
f 175/175/175 177/177/177 207/207/207
f 176/176/176 177/177/177 175/175/175
f 57/57/57 56/56/56 78/78/78
f 57/57/57 88/88/88 372/372/372
f 372/372/372 357/357/357 57/57/57
f 57/57/57 357/357/357 356/356/356
f 356/356/356 58/58/58 57/57/57
f 78/78/78 88/88/88 57/57/57
f 313/313/313 58/58/58 356/356/356
f 356/356/356 364/364/364 313/313/313
f 356/356/356 357/357/357 362/362/362
f 363/363/363 364/364/364 356/356/356
f 356/356/356 362/362/362 363/363/363
f 362/362/362 357/357/357 372/372/372
f 372/372/372 367/367/367 362/362/362
f 365/365/365 362/362/362 367/367/367
f 366/366/366 363/363/363 362/362/362
f 115/115/115 224/224/224 223/223/223
f 223/223/223 230/230/230 229/229/229
f 229/229/229 225/225/225 223/223/223
f 149/149/149 223/223/223 225/225/225
f 223/223/223 149/149/149 115/115/115
f 494/494/494 496/496/496 229/229/229
f 229/229/229 500/500/500 494/494/494
f 495/495/495 494/494/494 500/500/500
f 496/496/496 494/494/494 434/434/434
f 399/399/399 434/434/434 494/494/494
f 494/494/494 495/495/495 399/399/399
f 434/434/434 433/433/433 496/496/496
f 399/399/399 398/398/398 434/434/434
f 431/431/431 434/434/434 398/398/398
f 433/433/433 434/434/434 431/431/431
f 400/400/400 399/399/399 428/428/428
f 464/464/464 399/399/399 495/495/495
f 463/463/463 428/428/428 399/399/399
f 399/399/399 464/464/464 463/463/463
f 398/398/398 399/399/399 400/400/400
f 495/495/495 396/396/396 464/464/464
f 500/500/500 501/501/501 495/495/495
f 396/396/396 495/495/495 501/501/501
f 397/397/397 458/458/458 464/464/464
f 464/464/464 396/396/396 397/397/397
f 463/463/463 464/464/464 458/458/458
f 442/442/442 463/463/463 445/445/445
f 220/220/220 233/233/233 217/217/217
f 240/240/240 220/220/220 221/221/221
f 221/221/221 241/241/241 240/240/240
f 217/217/217 120/120/120 220/220/220
f 117/117/117 221/221/221 220/220/220
f 220/220/220 120/120/120 117/117/117
f 491/491/491 403/403/403 217/217/217
f 193/193/193 217/217/217 403/403/403
f 120/120/120 217/217/217 193/193/193
f 401/401/401 403/403/403 491/491/491
f 491/491/491 492/492/492 401/401/401
f 403/403/403 404/404/404 193/193/193
f 393/393/393 404/404/404 403/403/403
f 403/403/403 401/401/401 393/393/393
f 465/465/465 194/194/194 193/193/193
f 193/193/193 404/404/404 465/465/465
f 193/193/193 121/121/121 120/120/120
f 552/552/552 292/292/292 294/294/294
f 292/292/292 552/552/552 397/397/397
f 397/397/397 111/111/111 292/292/292
f 294/294/294 553/553/553 552/552/552
f 438/438/438 552/552/552 553/553/553
f 552/552/552 438/438/438 458/458/458
f 458/458/458 397/397/397 552/552/552
f 111/111/111 397/397/397 396/396/396
f 396/396/396 112/112/112 111/111/111
f 501/501/501 112/112/112 396/396/396
f 438/438/438 459/459/459 458/458/458
f 458/458/458 459/459/459 460/460/460
f 553/553/553 435/435/435 438/438/438
f 438/438/438 437/437/437 459/459/459
f 437/437/437 438/438/438 435/435/435
f 435/435/435 461/461/461 436/436/436
f 435/435/435 436/436/436 437/437/437
f 497/497/497 436/436/436 461/461/461
f 461/461/461 462/462/462 497/497/497
f 183/183/183 462/462/462 461/461/461
f 461/461/461 184/184/184 183/183/183
f 443/443/443 497/497/497 462/462/462
f 183/183/183 184/184/184 181/181/181
f 181/181/181 182/182/182 183/183/183
f 226/226/226 182/182/182 181/181/181
f 181/181/181 155/155/155 226/226/226
f 152/152/152 155/155/155 181/181/181
f 185/185/185 109/109/109 224/224/224
f 109/109/109 112/112/112 231/231/231
f 231/231/231 224/224/224 109/109/109
f 110/110/110 109/109/109 185/185/185
f 111/111/111 112/112/112 109/109/109
f 109/109/109 110/110/110 111/111/111
f 224/224/224 115/115/115 185/185/185
f 185/185/185 178/178/178 110/110/110
f 186/186/186 185/185/185 115/115/115
f 178/178/178 185/185/185 186/186/186
f 224/224/224 231/231/231 230/230/230
f 230/230/230 223/223/223 224/224/224
f 463/463/463 442/442/442 429/429/429
f 463/463/463 429/429/429 428/428/428
f 458/458/458 445/445/445 463/463/463
f 428/428/428 429/429/429 430/430/430
f 430/430/430 429/429/429 441/441/441
f 161/161/161 160/160/160 429/429/429
f 429/429/429 442/442/442 161/161/161
f 441/441/441 429/429/429 160/160/160
f 445/445/445 444/444/444 442/442/442
f 442/442/442 444/444/444 232/232/232
f 232/232/232 161/161/161 442/442/442
f 445/445/445 458/458/458 460/460/460
f 443/443/443 444/444/444 445/445/445
f 183/183/183 232/232/232 444/444/444
f 444/444/444 462/462/462 183/183/183
f 462/462/462 444/444/444 443/443/443
f 165/165/165 232/232/232 183/183/183
f 162/162/162 161/161/161 232/232/232
f 232/232/232 165/165/165 162/162/162
f 161/161/161 162/162/162 147/147/147
f 147/147/147 160/160/160 161/161/161
f 162/162/162 165/165/165 164/164/164
f 164/164/164 186/186/186 162/162/162
f 186/186/186 147/147/147 162/162/162
f 183/183/183 182/182/182 165/165/165
f 163/163/163 165/165/165 182/182/182
f 163/163/163 164/164/164 165/165/165
f 164/164/164 179/179/179 178/178/178
f 186/186/186 164/164/164 178/178/178
f 186/186/186 145/145/145 147/147/147
f 115/115/115 145/145/145 186/186/186
f 114/114/114 145/145/145 115/115/115
f 145/145/145 146/146/146 147/147/147
f 153/153/153 178/178/178 180/180/180
f 291/291/291 110/110/110 178/178/178
f 178/178/178 153/153/153 291/291/291
f 178/178/178 179/179/179 180/180/180
f 293/293/293 291/291/291 153/153/153
f 153/153/153 152/152/152 293/293/293
f 153/153/153 180/180/180 154/154/154
f 152/152/152 153/153/153 154/154/154
f 294/294/294 292/292/292 291/291/291
f 291/291/291 293/293/293 294/294/294
f 110/110/110 291/291/291 292/292/292
f 292/292/292 111/111/111 110/110/110
f 346/346/346 341/341/341 340/340/340
f 340/340/340 341/341/341 342/342/342
f 345/345/345 341/341/341 346/346/346
f 341/341/341 344/344/344 343/343/343
f 344/344/344 341/341/341 345/345/345
f 342/342/342 341/341/341 343/343/343
f 38/38/38 32/32/32 34/34/34
f 32/32/32 33/33/33 34/34/34
f 37/37/37 38/38/38 34/34/34
f 34/34/34 35/35/35 36/36/36
f 36/36/36 37/37/37 34/34/34
f 33/33/33 35/35/35 34/34/34
f 69/69/69 59/59/59 71/71/71
f 64/64/64 69/69/69 68/68/68
f 71/71/71 67/67/67 69/69/69
f 68/68/68 69/69/69 67/67/67
f 68/68/68 61/61/61 64/64/64
f 63/63/63 64/64/64 61/61/61
f 67/67/67 66/66/66 68/68/68
f 78/78/78 56/56/56 67/67/67
f 67/67/67 71/71/71 78/78/78
f 55/55/55 67/67/67 56/56/56
f 66/66/66 67/67/67 55/55/55
f 55/55/55 65/65/65 66/66/66
f 55/55/55 58/58/58 313/313/313
f 313/313/313 65/65/65 55/55/55
f 57/57/57 58/58/58 55/55/55
f 55/55/55 56/56/56 57/57/57
f 182/182/182 226/226/226 163/163/163
f 154/154/154 155/155/155 152/152/152
f 366/366/366 365/365/365 361/361/361
f 361/361/361 360/360/360 366/366/366
f 359/359/359 358/358/358 365/365/365
f 367/367/367 359/359/359 365/365/365
f 365/365/365 358/358/358 361/361/361
f 63/63/63 361/361/361 358/358/358
f 360/360/360 361/361/361 63/63/63
f 63/63/63 62/62/62 360/360/360
f 358/358/358 77/77/77 63/63/63
f 61/61/61 62/62/62 63/63/63
f 77/77/77 358/358/358 370/370/370
f 358/358/358 323/323/323 370/370/370
f 91/91/91 92/92/92 89/89/89
f 89/89/89 90/90/90 91/91/91
f 381/381/381 382/382/382 379/379/379
f 379/379/379 380/380/380 381/381/381
f 362/362/362 365/365/365 366/366/366
f 26/26/26 337/337/337 372/372/372
f 372/372/372 88/88/88 26/26/26
f 367/367/367 372/372/372 337/337/337
f 26/26/26 88/88/88 78/78/78
f 26/26/26 25/25/25 335/335/335
f 335/335/335 337/337/337 26/26/26
f 78/78/78 27/27/27 26/26/26
f 26/26/26 27/27/27 21/21/21
f 21/21/21 25/25/25 26/26/26
f 337/337/337 347/347/347 367/367/367
f 347/347/347 337/337/337 335/335/335
f 336/336/336 335/335/335 25/25/25
f 335/335/335 334/334/334 347/347/347
f 335/335/335 336/336/336 333/333/333
f 333/333/333 334/334/334 335/335/335
f 25/25/25 24/24/24 336/336/336
f 25/25/25 21/21/21 20/20/20
f 20/20/20 24/24/24 25/25/25
f 333/333/333 336/336/336 329/329/329
f 534/534/534 457/457/457 456/456/456
f 554/554/554 470/470/470 453/453/453
f 453/453/453 452/452/452 554/554/554
f 146/146/146 227/227/227 158/158/158
f 160/160/160 147/147/147 158/158/158
f 158/158/158 159/159/159 160/160/160
f 533/533/533 441/441/441 159/159/159
f 159/159/159 536/536/536 533/533/533
f 160/160/160 159/159/159 441/441/441
f 441/441/441 533/533/533 502/502/502
f 532/532/532 533/533/533 536/536/536
f 502/502/502 533/533/533 532/532/532
f 502/502/502 498/498/498 441/441/441
f 441/441/441 498/498/498 430/430/430
f 532/532/532 432/432/432 502/502/502
f 502/502/502 432/432/432 431/431/431
f 536/536/536 272/272/272 532/532/532
f 268/268/268 272/272/272 273/273/273
f 431/431/431 432/432/432 433/433/433
f 12/12/12 11/11/11 13/13/13
f 14/14/14 9/9/9 11/11/11
f 14/14/14 11/11/11 12/12/12
f 60/60/60 72/72/72 9/9/9
f 9/9/9 72/72/72 73/73/73
f 60/60/60 9/9/9 14/14/14
f 75/75/75 73/73/73 72/72/72
f 72/72/72 312/312/312 75/75/75
f 77/77/77 312/312/312 72/72/72
f 72/72/72 60/60/60 77/77/77
f 59/59/59 69/69/69 60/60/60
f 69/69/69 64/64/64 60/60/60
f 60/60/60 64/64/64 63/63/63
f 63/63/63 77/77/77 60/60/60
f 14/14/14 59/59/59 60/60/60
f 59/59/59 14/14/14 12/12/12
f 12/12/12 71/71/71 59/59/59
f 358/358/358 359/359/359 328/328/328
f 328/328/328 323/323/323 358/358/358
f 359/359/359 367/367/367 326/326/326
f 326/326/326 328/328/328 359/359/359
f 367/367/367 368/368/368 327/327/327
f 327/327/327 326/326/326 367/367/367
f 328/328/328 326/326/326 324/324/324
f 326/326/326 327/327/327 324/324/324
f 328/328/328 324/324/324 323/323/323
f 369/369/369 370/370/370 323/323/323
f 323/323/323 325/325/325 369/369/369
f 323/323/323 324/324/324 325/325/325
f 324/324/324 327/327/327 325/325/325
f 378/378/378 327/327/327 368/368/368
f 325/325/325 327/327/327 378/378/378
f 378/378/378 371/371/371 325/325/325
f 325/325/325 371/371/371 369/369/369
f 370/370/370 369/369/369 75/75/75
f 75/75/75 369/369/369 371/371/371
f 371/371/371 378/378/378 377/377/377
f 75/75/75 312/312/312 370/370/370
f 370/370/370 312/312/312 77/77/77
f 115/115/115 149/149/149 113/113/113
f 113/113/113 114/114/114 115/115/115
f 148/148/148 113/113/113 149/149/149
f 225/225/225 150/150/150 149/149/149
f 148/148/148 149/149/149 150/150/150
f 234/234/234 148/148/148 151/151/151
f 150/150/150 151/151/151 148/148/148
f 234/234/234 269/269/269 158/158/158
f 158/158/158 227/227/227 234/234/234
f 234/234/234 151/151/151 268/268/268
f 268/268/268 269/269/269 234/234/234
f 269/269/269 273/273/273 159/159/159
f 159/159/159 158/158/158 269/269/269
f 273/273/273 269/269/269 268/268/268
f 158/158/158 147/147/147 146/146/146
f 318/318/318 79/79/79 82/82/82
f 81/81/81 82/82/82 79/79/79
f 79/79/79 80/80/80 81/81/81
f 318/318/318 82/82/82 373/373/373
f 373/373/373 82/82/82 81/81/81
f 81/81/81 374/374/374 373/373/373
f 128/128/128 129/129/129 131/131/131
f 132/132/132 133/133/133 131/131/131
f 131/131/131 129/129/129 132/132/132
f 133/133/133 259/259/259 248/248/248
f 249/249/249 248/248/248 259/259/259
f 259/259/259 260/260/260 249/249/249
f 123/123/123 228/228/228 132/132/132
f 132/132/132 129/129/129 123/123/123
f 123/123/123 129/129/129 128/128/128
f 559/559/559 560/560/560 561/561/561
f 300/300/300 301/301/301 302/302/302
f 537/537/537 538/538/538 539/539/539
f 274/274/274 275/275/275 276/276/276
f 93/93/93 94/94/94 95/95/95
f 383/383/383 384/384/384 385/385/385
f 277/277/277 278/278/278 279/279/279
f 540/540/540 541/541/541 542/542/542
f 556/556/556 557/557/557 558/558/558
f 297/297/297 298/298/298 299/299/299
f 319/319/319 1/1/1 76/76/76
f 320/320/320 2/2/2 1/1/1
f 1/1/1 319/319/319 320/320/320
f 76/76/76 1/1/1 4/4/4
f 3/3/3 4/4/4 1/1/1
f 1/1/1 2/2/2 3/3/3
f 76/76/76 371/371/371 319/319/319
f 377/377/377 319/319/319 371/371/371
f 319/319/319 377/377/377 376/376/376
f 376/376/376 320/320/320 319/319/319
f 371/371/371 76/76/76 75/75/75
f 4/4/4 74/74/74 76/76/76
f 126/126/126 127/127/127 125/125/125
f 125/125/125 124/124/124 126/126/126
f 124/124/124 128/128/128 130/130/130
f 130/130/130 126/126/126 124/124/124
f 128/128/128 124/124/124 123/123/123
f 127/127/127 126/126/126 262/262/262
f 261/261/261 262/262/262 126/126/126
f 126/126/126 130/130/130 261/261/261
f 127/127/127 257/257/257 190/190/190
f 190/190/190 135/135/135 127/127/127
f 262/262/262 257/257/257 127/127/127
f 127/127/127 135/135/135 134/134/134
f 262/262/262 261/261/261 264/264/264
f 264/264/264 263/263/263 262/262/262
f 257/257/257 262/262/262 263/263/263
f 267/267/267 261/261/261 254/254/254
f 157/157/157 254/254/254 261/261/261
f 261/261/261 130/130/130 157/157/157
f 156/156/156 157/157/157 130/130/130
f 130/130/130 128/128/128 156/156/156
f 254/254/254 157/157/157 140/140/140
f 141/141/141 140/140/140 157/157/157
f 157/157/157 156/156/156 141/141/141
f 254/254/254 256/256/256 267/267/267
f 140/140/140 251/251/251 254/254/254
f 254/254/254 253/253/253 256/256/256
f 254/254/254 251/251/251 253/253/253
f 303/303/303 304/304/304 305/305/305
f 562/562/562 563/563/563 564/564/564
f 192/192/192 105/105/105 108/108/108
f 104/104/104 108/108/108 105/105/105
f 106/106/106 107/107/107 104/104/104
f 104/104/104 105/105/105 106/106/106
f 116/116/116 117/117/117 107/107/107
f 107/107/107 106/106/106 116/116/116
f 118/118/118 106/106/106 105/105/105
f 116/116/116 106/106/106 118/118/118
f 105/105/105 192/192/192 118/118/118
f 118/118/118 192/192/192 395/395/395
f 395/395/395 394/394/394 118/118/118
f 118/118/118 394/394/394 402/402/402
f 402/402/402 394/394/394 393/393/393
f 402/402/402 119/119/119 118/118/118
f 118/118/118 119/119/119 116/116/116
f 439/439/439 411/411/411 413/413/413
f 413/413/413 440/440/440 439/439/439
f 411/411/411 412/412/412 408/408/408
f 408/408/408 412/412/412 416/416/416
f 416/416/416 499/499/499 408/408/408
f 408/408/408 407/407/407 411/411/411
f 525/525/525 410/410/410 409/409/409
f 526/526/526 413/413/413 410/410/410
f 410/410/410 525/525/525 526/526/526
f 467/467/467 522/522/522 409/409/409
f 409/409/409 420/420/420 467/467/467
f 409/409/409 522/522/522 525/525/525
f 417/417/417 420/420/420 409/409/409
f 525/525/525 529/529/529 528/528/528
f 528/528/528 526/526/526 525/525/525
f 529/529/529 525/525/525 522/522/522
f 520/520/520 526/526/526 530/530/530
f 440/440/440 413/413/413 526/526/526
f 526/526/526 520/520/520 440/440/440
f 530/530/530 518/518/518 520/520/520
f 423/423/423 440/440/440 520/520/520
f 520/520/520 514/514/514 423/423/423
f 520/520/520 516/516/516 514/514/514
f 520/520/520 518/518/518 516/516/516
f 530/530/530 531/531/531 519/519/519
f 519/519/519 518/518/518 530/530/530
f 518/518/518 519/519/519 516/516/516
f 517/517/517 516/516/516 519/519/519
f 514/514/514 516/516/516 517/517/517
f 517/517/517 515/515/515 514/514/514
f 423/423/423 514/514/514 515/515/515
f 519/519/519 531/531/531 517/517/517
f 280/280/280 281/281/281 282/282/282
f 543/543/543 544/544/544 545/545/545
f 329/329/329 336/336/336 24/24/24
f 329/329/329 332/332/332 333/333/333
f 330/330/330 329/329/329 23/23/23
f 24/24/24 23/23/23 329/329/329
f 331/331/331 332/332/332 329/329/329
f 329/329/329 330/330/330 331/331/331
f 24/24/24 20/20/20 15/15/15
f 15/15/15 23/23/23 24/24/24
f 15/15/15 20/20/20 19/19/19
f 19/19/19 20/20/20 21/21/21
f 23/23/23 15/15/15 18/18/18
f 19/19/19 16/16/16 15/15/15
f 17/17/17 18/18/18 15/15/15
f 15/15/15 16/16/16 17/17/17
f 23/23/23 314/314/314 330/330/330
f 18/18/18 314/314/314 23/23/23
f 306/306/306 307/307/307 308/308/308
f 565/565/565 566/566/566 567/567/567
f 75/75/75 76/76/76 74/74/74
f 74/74/74 4/4/4 86/86/86
f 4/4/4 3/3/3 85/85/85
f 85/85/85 86/86/86 4/4/4
f 85/85/85 3/3/3 28/28/28
f 28/28/28 3/3/3 2/2/2
f 28/28/28 31/31/31 85/85/85
f 30/30/30 31/31/31 28/28/28
f 28/28/28 29/29/29 30/30/30
f 2/2/2 29/29/29 28/28/28
f 30/30/30 29/29/29 338/338/338
f 338/338/338 339/339/339 30/30/30
f 338/338/338 29/29/29 2/2/2
f 2/2/2 320/320/320 338/338/338
f 376/376/376 339/339/339 338/338/338
f 338/338/338 320/320/320 376/376/376
f 86/86/86 87/87/87 74/74/74
f 87/87/87 70/70/70 13/13/13
f 87/87/87 13/13/13 10/10/10
f 10/10/10 74/74/74 87/87/87
f 10/10/10 73/73/73 74/74/74
f 74/74/74 73/73/73 75/75/75
f 73/73/73 10/10/10 9/9/9
f 11/11/11 10/10/10 13/13/13
f 9/9/9 10/10/10 11/11/11
f 71/71/71 12/12/12 13/13/13
f 13/13/13 70/70/70 71/71/71
f 331/331/331 330/330/330 314/314/314
f 314/314/314 315/315/315 331/331/331
f 17/17/17 315/315/315 314/314/314
f 314/314/314 18/18/18 17/17/17
f 39/39/39 22/22/22 21/21/21
f 21/21/21 27/27/27 39/39/39
f 21/21/21 22/22/22 19/19/19
f 71/71/71 39/39/39 27/27/27
f 27/27/27 78/78/78 71/71/71
f 283/283/283 284/284/284 285/285/285
f 546/546/546 547/547/547 548/548/548
f 309/309/309 310/310/310 311/311/311
f 568/568/568 569/569/569 570/570/570
f 288/288/288 289/289/289 286/286/286
f 286/286/286 287/287/287 288/288/288
f 288/288/288 550/550/550 549/549/549
f 549/549/549 289/289/289 288/288/288
f 187/187/187 121/121/121 193/193/193
f 193/193/193 194/194/194 187/187/187
f 107/107/107 117/117/117 120/120/120
f 120/120/120 121/121/121 107/107/107
f 121/121/121 187/187/187 104/104/104
f 104/104/104 107/107/107 121/121/121
f 187/187/187 194/194/194 108/108/108
f 104/104/104 187/187/187 108/108/108
f 465/465/465 108/108/108 194/194/194
f 392/392/392 108/108/108 465/465/465
f 392/392/392 465/465/465 404/404/404
f 404/404/404 393/393/393 392/392/392
f 392/392/392 395/395/395 108/108/108
f 394/394/394 395/395/395 392/392/392
f 392/392/392 393/393/393 394/394/394
f 192/192/192 108/108/108 395/395/395
