# dunkleo466_A reconstructed from live game memory
v -9.49621 67.85003 -25.95981
v -7.75199 68.54368 -10.26301
v -17.66168 52.42648 -10.30382
v -17.02791 51.37818 -23.28466
v -0.00000 69.52357 41.60750
v -0.00000 80.24265 51.42646
v -1.07008 76.47813 56.22878
v -1.44247 68.12368 55.43840
v -0.00000 28.92718 -52.95288
v -0.00000 34.94135 -66.44965
v -6.99371 37.57966 -65.85651
v -9.52308 31.60643 -53.17526
v -13.11436 58.32508 13.26493
v -7.33495 53.58282 -64.49046
v -7.71941 55.25229 -64.62021
v -10.35259 52.42019 -60.99450
v -9.46990 50.68970 -61.13952
v -10.28938 27.17095 -38.23459
v -21.17252 32.57711 -31.18650
v -20.92731 29.68170 -22.13393
v -9.45467 23.61111 -19.01418
v -20.69979 33.65814 -10.26031
v -9.62177 25.84156 -6.37916
v -39.34029 17.82169 -16.23715
v -38.08636 19.55071 -12.52253
v -29.97853 25.25238 -13.40649
v -30.21565 24.35240 -19.41621
v -29.97853 25.25238 -13.40649
v -38.08636 19.55071 -12.52253
v -40.75375 20.04136 -17.14539
v -31.56751 27.54340 -21.36960
v -41.30865 17.49775 -19.50992
v -31.02360 25.40018 -25.83654
v -24.54666 29.91443 -29.72387
v -24.76302 32.49702 -22.99456
v -21.17252 32.57711 -31.18650
v -20.56564 37.46448 -24.47084
v -21.17252 32.57711 -31.18650
v -24.54666 29.91443 -29.72387
v -23.20883 28.35905 -21.36911
v -20.92731 29.68170 -22.13393
v -31.02360 25.40018 -25.83654
v -48.05672 12.04078 -11.59735
v -23.69583 30.07955 -12.39673
v -20.69979 33.65814 -10.26031
v -41.30865 17.49775 -19.50992
v -41.30865 17.49775 -19.50992
v -48.05672 12.04078 -11.59735
v -15.25134 36.48001 13.23837
v -8.60052 28.42258 13.31634
v -11.54562 34.50583 26.42430
v -13.47695 49.59190 -51.94584
v -15.01337 37.89362 -52.47655
v -13.42694 42.55459 -53.26194
v -15.14948 49.32033 -43.90380
v -0.00000 74.94491 -10.26706
v -0.00000 72.41536 13.31300
v -11.83755 39.22534 29.54329
v -10.84868 40.74514 -63.08934
v -5.57886 42.69926 -71.28206
v -5.76552 44.82553 -72.28497
v -11.33275 43.35476 -63.55083
v -11.34789 40.41862 -61.05162
v -12.03362 48.42200 -54.47762
v -14.56989 40.72921 -48.80768
v -13.79396 37.01463 -49.72031
v -11.63157 47.40323 -57.84863
v -11.94434 50.90161 -57.47254
v -4.69533 67.14056 -56.37657
v -6.76562 64.38130 -56.42655
v -8.02315 59.40160 -61.21846
v -3.59922 64.19642 -61.24162
v -15.01337 37.89362 -52.47655
v -13.21818 40.37965 -56.91591
v -13.42694 42.55459 -53.26194
v -17.09617 50.96690 -31.89775
v -12.45867 64.06557 -35.67631
v -23.69583 30.07955 -12.39673
v -20.69979 33.65814 -10.26031
v -23.69583 30.07955 -12.39673
v -24.76302 32.49702 -22.99456
v -20.56564 37.46448 -24.47084
v -8.03363 33.86848 32.67057
v -9.66605 40.39161 40.76519
v -0.00000 23.59734 53.48982
v -0.00000 32.94969 43.22966
v -2.14245 35.57975 55.45740
v -1.63587 26.86752 60.10638
v -1.55076 51.74724 124.17177
v -2.89230 56.73395 120.41370
v -2.30827 56.97889 126.97119
v -0.88616 79.56398 131.53154
v -0.92554 67.40781 126.84036
v -0.00000 68.90199 123.50096
v -0.00000 83.30870 130.25124
v -0.00000 30.36316 67.94487
v -0.00000 22.30385 71.03053
v -1.12242 20.04909 66.40961
v -0.60364 84.60120 61.52764
v -0.00000 87.62068 58.76481
v -0.00000 89.34232 65.15673
v -0.00000 12.48160 79.05934
v -0.00000 16.62579 63.36158
v -3.62996 56.86811 -68.74742
v -4.01986 58.38366 -68.66913
v -0.00000 42.08703 -74.95644
v -0.00000 44.57364 -75.84927
v -0.00000 59.95204 -70.45029
v -0.00000 62.83522 -69.19139
v -3.66792 61.50190 -67.74399
v -17.76536 36.81799 -40.36836
v -18.59705 42.35260 -37.59188
v -6.38714 71.30421 -42.67052
v -5.59550 68.93179 -48.07366
v -0.00000 73.53628 -50.43551
v -0.00000 75.23477 -43.73801
v -12.45867 64.06557 -35.67631
v -17.09617 50.96690 -31.89775
v -17.38451 51.41924 -36.12668
v -13.50431 61.35552 -38.78145
v -11.04180 58.29026 -45.64000
v -6.38714 71.30421 -42.67052
v -6.38714 71.30421 -42.67052
v -18.57172 40.89655 -34.93083
v -20.56564 37.46448 -24.47084
v -18.57172 40.89655 -34.93083
v -17.76536 36.81799 -40.36836
v -8.29008 62.09131 -53.02247
v -0.00000 70.39539 -56.50364
v -11.31920 54.65207 -57.57983
v -10.94640 56.45606 -53.05337
v -8.29008 62.09131 -53.02247
v -10.94640 56.45606 -53.05337
v -10.02796 59.91780 -56.38881
v -11.31920 54.65207 -57.57983
v -8.02315 59.40160 -61.21846
v -6.76562 64.38130 -56.42655
v -6.76562 64.38130 -56.42655
v -8.29008 62.09131 -53.02247
v -10.02796 59.91780 -56.38881
v -11.83755 39.22534 29.54329
v -17.62485 28.08369 32.97607
v -18.15225 27.08647 28.59158
v -8.03363 33.86848 32.67057
v -13.18442 27.53518 38.20925
v -18.15225 27.08647 28.59158
v -13.18442 27.53518 38.20925
v -8.03363 33.86848 32.67057
v -11.54562 34.50583 26.42430
v -18.11098 21.15271 38.76262
v -18.11098 21.15271 38.76262
v -11.33275 43.35476 -63.55083
v -0.00000 36.38602 -60.36702
v -10.96155 39.59322 -54.49685
v -13.21818 40.37965 -56.91591
v -9.46990 50.68970 -61.13952
v -0.00000 53.51515 -49.46749
v -7.33495 53.58282 -64.49046
v -5.76552 44.82553 -72.28497
v -13.21818 40.37965 -56.91591
v -10.96155 39.59322 -54.49685
v -10.24311 42.28675 -51.02602
v -13.42694 42.55459 -53.26194
v -3.62996 56.86811 -68.74742
v -0.00000 58.40592 -70.57228
v -0.00000 40.72197 -42.79813
v -10.24311 42.28675 -51.02602
v -0.00000 40.72197 -42.79813
v -0.00000 53.51515 -49.46749
v -2.30827 56.97889 126.97119
v -2.89230 56.73395 120.41370
v -1.55401 62.53162 124.01895
v -0.83578 42.67924 129.32033
v -0.00000 39.23028 126.22908
v -0.00000 50.67558 119.33795
v -11.63157 47.40323 -57.84863
v -0.00000 66.40450 -63.08581
v -10.24311 42.28675 -51.02602
v -13.42694 42.55459 -53.26194
v -0.00000 75.03304 136.59450
v -0.00000 66.36300 134.85690
v -0.00000 57.18259 129.51529
v -0.00000 52.14591 131.95610
v -0.00000 62.56827 133.53821
v -0.51912 91.43327 138.26488
v -0.06360 97.62511 145.25832
v -0.00000 86.77251 140.42444
v -0.59560 26.73481 136.74121
v -0.06092 17.43608 143.71530
v -0.00000 22.52747 135.63606
v -0.00000 94.78618 137.85141
v -0.00000 45.09843 136.68210
v -0.00000 30.13618 140.49986
v -16.22687 35.51683 -45.31279
v -9.86126 29.79731 -45.36226
v -4.08006 54.11906 93.29571
v -3.20918 56.07206 110.23886
v -0.00000 50.66667 110.23984
v -0.00000 46.69329 93.28766
v -16.22687 35.51683 -45.31279
v -0.00000 24.91931 -38.11605
v -0.00000 22.27213 -17.57329
v -0.00000 27.02474 -44.57828
v -0.00000 74.68146 65.02379
v -0.00000 66.10245 67.43597
v -8.25817 46.15160 55.36765
v -2.14245 35.57975 55.45740
v -0.00000 32.94969 43.22966
v -3.69632 57.48363 67.45904
v -0.00000 62.68216 93.32887
v -0.00000 23.32647 -5.48058
v -0.00000 26.21212 13.33602
v -0.00000 30.24921 32.02413
v -0.00000 69.52357 41.60750
v -7.65957 58.50158 41.56239
v -9.56997 58.70119 30.34585
v -0.00000 70.72203 29.77089
v -0.00000 38.01691 67.43863
v -0.00000 82.40600 64.31231
v -2.89230 56.73395 120.41370
v -0.00000 50.67558 119.33795
v -0.00000 62.82554 119.46523
v -1.55401 62.53162 124.01895
v -0.00000 62.82554 119.46523
v -0.00000 57.18259 129.51529
v -1.55076 51.74724 124.17177
v -0.00000 61.39110 110.24284
v -0.00000 75.54333 -28.94588
v -0.00000 75.23477 -43.73801
v -0.00000 58.40592 -70.57228
v -0.00000 44.57364 -75.84927
v -2.29262 58.15485 -67.15346
v -2.39487 53.67433 -68.98409
v -3.15526 57.78755 -66.49893
v -3.15526 57.78755 -66.49893
v -2.39487 53.67433 -68.98409
v -3.55210 57.92511 -67.37340
v -3.55210 57.92511 -67.37340
v -2.39487 53.67433 -68.98409
v -2.67533 58.32727 -68.13805
v -2.67533 58.32727 -68.13805
v -2.39487 53.67433 -68.98409
v -2.29262 58.15485 -67.15346
v -6.32239 54.11600 -60.59232
v -6.68692 47.87915 -61.88362
v -7.30085 54.29948 -60.84745
v -7.30085 54.29948 -60.84745
v -6.68692 47.87915 -61.88362
v -6.61187 54.96103 -61.83636
v -5.26679 41.14110 -67.28850
v -4.62329 48.09211 -69.37465
v -4.18435 41.10317 -66.83865
v -4.68480 41.86092 -68.41780
v -4.62329 48.09211 -69.37465
v -5.26679 41.14110 -67.28850
v -10.96155 39.59322 -54.49685
v -6.98287 49.40549 67.47955
v -0.00000 38.01691 67.43863
v -11.54562 34.50583 26.42430
v -17.76536 36.81799 -40.36836
v -10.28938 27.17095 -38.23459
v -0.00000 24.91931 -38.11605
v -1.44247 68.12368 55.43840
v -5.22176 57.72046 55.39917
v -0.00000 66.10245 67.43597
v 9.49620 67.85003 -25.95981
v 17.02791 51.37818 -23.28466
v 17.66168 52.42648 -10.30382
v 7.75199 68.54368 -10.26301
v 1.44247 68.12368 55.43840
v 1.07008 76.47813 56.22878
v 9.52307 31.60643 -53.17526
v 6.99370 37.57966 -65.85651
v 13.11436 58.32508 13.26493
v 7.33494 53.58282 -64.49046
v 9.46990 50.68970 -61.13952
v 10.35259 52.42019 -60.99450
v 7.71941 55.25229 -64.62021
v 10.28937 27.17095 -38.23459
v 9.45467 23.61111 -19.01418
v 20.92731 29.68169 -22.13392
v 21.17251 32.57711 -31.18650
v 9.62177 25.84156 -6.37916
v 20.69979 33.65813 -10.26031
v 39.34028 17.82168 -16.23714
v 30.21565 24.35239 -19.41620
v 29.97852 25.25238 -13.40648
v 38.08636 19.55070 -12.52253
v 29.97852 25.25238 -13.40648
v 31.56750 27.54340 -21.36959
v 40.75375 20.04136 -17.14538
v 38.08636 19.55070 -12.52253
v 41.30865 17.49775 -19.50991
v 31.02360 25.40018 -25.83653
v 24.76301 32.49701 -22.99456
v 24.54666 29.91443 -29.72387
v 20.56563 37.46448 -24.47083
v 21.17251 32.57711 -31.18650
v 21.17251 32.57711 -31.18650
v 20.92731 29.68169 -22.13392
v 23.20883 28.35904 -21.36911
v 24.54666 29.91443 -29.72387
v 31.02360 25.40018 -25.83653
v 48.05672 12.04077 -11.59735
v 23.69583 30.07955 -12.39672
v 20.69979 33.65813 -10.26031
v 41.30865 17.49775 -19.50991
v 41.30865 17.49775 -19.50991
v 48.05672 12.04077 -11.59735
v 8.60051 28.42258 13.31634
v 15.25134 36.48001 13.23837
v 11.54561 34.50583 26.42430
v 13.47694 49.59190 -51.94584
v 13.42694 42.55459 -53.26194
v 15.01337 37.89362 -52.47656
v 15.14947 49.32033 -43.90380
v -0.00000 72.41536 13.31300
v 11.83754 39.22534 29.54329
v 10.84869 40.74514 -63.08934
v 11.33276 43.35477 -63.55083
v 5.76551 44.82553 -72.28497
v 5.57885 42.69926 -71.28206
v 11.34789 40.41863 -61.05162
v 13.79395 37.01463 -49.72031
v 14.56989 40.72921 -48.80768
v 12.03362 48.42200 -54.47762
v 11.63157 47.40323 -57.84863
v 11.94434 50.90161 -57.47254
v 4.69533 67.14056 -56.37657
v 3.59922 64.19642 -61.24162
v 8.02314 59.40160 -61.21846
v 6.76561 64.38130 -56.42655
v 15.01337 37.89362 -52.47656
v 13.42694 42.55459 -53.26194
v 13.21816 40.37965 -56.91592
v 12.45867 64.06557 -35.67631
v 17.09617 50.96690 -31.89775
v 23.69583 30.07955 -12.39672
v 20.69979 33.65813 -10.26031
v 20.56563 37.46448 -24.47083
v 24.76301 32.49701 -22.99456
v 23.69583 30.07955 -12.39672
v 8.03362 33.86848 32.67057
v 9.66604 40.39161 40.76519
v 1.63587 26.86752 60.10638
v 2.14245 35.57975 55.45740
v 1.55075 51.74724 124.17177
v 2.30827 56.97889 126.97119
v 2.89229 56.73395 120.41370
v 0.88616 79.56398 131.53154
v 0.92554 67.40781 126.84036
v 1.12242 20.04909 66.40961
v 0.60364 84.60120 61.52764
v 3.62996 56.86811 -68.74742
v 4.01986 58.38366 -68.66913
v 3.66792 61.50190 -67.74399
v 17.76536 36.81799 -40.36836
v 18.59704 42.35260 -37.59188
v 6.38714 71.30421 -42.67052
v 5.59550 68.93179 -48.07366
v 12.45867 64.06557 -35.67631
v 13.50431 61.35552 -38.78145
v 17.38451 51.41924 -36.12668
v 17.09617 50.96690 -31.89775
v 11.04180 58.29026 -45.64000
v 6.38714 71.30421 -42.67052
v 6.38714 71.30421 -42.67052
v 18.57172 40.89655 -34.93083
v 18.57172 40.89655 -34.93083
v 20.56563 37.46448 -24.47083
v 17.76536 36.81799 -40.36836
v 8.29008 62.09131 -53.02247
v 11.31920 54.65207 -57.57983
v 10.94640 56.45606 -53.05337
v 8.29008 62.09131 -53.02247
v 10.02795 59.91780 -56.38881
v 10.94640 56.45606 -53.05337
v 11.31920 54.65207 -57.57983
v 8.02314 59.40160 -61.21846
v 6.76561 64.38130 -56.42655
v 6.76561 64.38130 -56.42655
v 10.02795 59.91780 -56.38881
v 8.29008 62.09131 -53.02247
v 11.83754 39.22534 29.54329
v 18.15225 27.08647 28.59158
v 17.62485 28.08369 32.97607
v 13.18442 27.53518 38.20925
v 8.03362 33.86848 32.67057
v 18.15225 27.08647 28.59158
v 11.54561 34.50583 26.42430
v 8.03362 33.86848 32.67057
v 13.18442 27.53518 38.20925
v 18.11098 21.15271 38.76262
v 18.11098 21.15271 38.76262
v 11.33276 43.35477 -63.55083
v 13.21816 40.37965 -56.91592
v 10.96154 39.59323 -54.49686
v 9.46990 50.68970 -61.13952
v 7.33494 53.58282 -64.49046
v 5.76551 44.82553 -72.28497
v 13.21816 40.37965 -56.91592
v 13.42694 42.55459 -53.26194
v 10.24311 42.28675 -51.02602
v 10.96154 39.59323 -54.49686
v 3.62996 56.86811 -68.74742
v 10.24311 42.28675 -51.02602
v 2.30827 56.97889 126.97119
v 1.55400 62.53162 124.01895
v 2.89229 56.73395 120.41370
v 0.83578 42.67924 129.32033
v 11.63157 47.40323 -57.84863
v 10.24311 42.28675 -51.02602
v 13.42694 42.55459 -53.26194
v 0.51912 91.43327 138.26488
v 0.06359 97.62511 145.25832
v 0.59560 26.73481 136.74121
v 0.06091 17.43608 143.71530
v 9.86126 29.79731 -45.36226
v 16.22687 35.51683 -45.31279
v 4.08006 54.11906 93.29571
v -0.00000 46.69329 93.28766
v 3.20918 56.07206 110.23886
v 16.22687 35.51683 -45.31279
v -0.00000 22.27213 -17.57329
v 2.14245 35.57975 55.45740
v 8.25816 46.15160 55.36765
v -0.00000 62.68216 93.32887
v 3.69631 57.48363 67.45904
v -0.00000 23.32647 -5.48058
v -0.00000 26.21212 13.33602
v 9.56996 58.70119 30.34585
v 7.65957 58.50158 41.56239
v 2.89229 56.73395 120.41370
v 1.55400 62.53162 124.01895
v 1.55075 51.74724 124.17177
v 2.29262 58.15485 -67.15346
v 3.15525 57.78755 -66.49893
v 2.39486 53.67433 -68.98409
v 3.15525 57.78755 -66.49893
v 3.55210 57.92511 -67.37340
v 2.39486 53.67433 -68.98409
v 3.55210 57.92511 -67.37340
v 2.67532 58.32727 -68.13805
v 2.39486 53.67433 -68.98409
v 2.67532 58.32727 -68.13805
v 2.29262 58.15485 -67.15346
v 2.39486 53.67433 -68.98409
v 6.32239 54.11600 -60.59232
v 7.30084 54.29948 -60.84745
v 6.68692 47.87915 -61.88362
v 7.30084 54.29948 -60.84745
v 6.61187 54.96103 -61.83636
v 6.68692 47.87915 -61.88362
v 5.61554 41.14109 -67.28851
v 4.53310 41.10317 -66.83865
v 4.97204 48.09211 -69.37465
v 5.03355 41.86092 -68.41780
v 5.61554 41.14109 -67.28851
v 4.97204 48.09211 -69.37465
v 10.96154 39.59323 -54.49686
v 6.98287 49.40549 67.47955
v 11.54561 34.50583 26.42430
v 17.76536 36.81799 -40.36836
v 10.28937 27.17095 -38.23459
v 1.44247 68.12368 55.43840
v 5.22176 57.72046 55.39917
vt 0.907467 0.911319
vt 0.810962 0.923868
vt 0.811406 0.840027
vt 0.889902 0.838043
vt 0.350061 0.738681
vt 0.250948 0.775502
vt 0.223504 0.711290
vt 0.287806 0.671946
vt 0.107739 0.033174
vt 0.226190 0.023837
vt 0.232611 0.091211
vt 0.120766 0.122667
vt 0.667222 0.879472
vt 0.613110 0.395629
vt 0.606779 0.410438
vt 0.565690 0.368556
vt 0.576507 0.352993
vt 0.954269 0.717756
vt 0.925757 0.748480
vt 0.877279 0.730959
vt 0.879074 0.689393
vt 0.816222 0.758672
vt 0.805538 0.690828
vt 0.699133 0.145033
vt 0.713288 0.178632
vt 0.642711 0.237176
vt 0.605452 0.203293
vt 0.564589 0.030556
vt 0.645817 0.022215
vt 0.667030 0.069371
vt 0.558384 0.104305
vt 0.676566 0.099509
vt 0.546532 0.154790
vt 0.477225 0.177526
vt 0.486107 0.113289
vt 0.447288 0.183724
vt 0.458078 0.113911
vt 0.447288 0.183724
vt 0.477225 0.177526
vt 0.532638 0.237343
vt 0.512522 0.250552
vt 0.546532 0.154790
vt 0.754104 0.021219
vt 0.562657 0.282454
vt 0.534127 0.298293
vt 0.676566 0.099509
vt 0.709136 0.093574
vt 0.786520 0.095967
vt 0.669199 0.774475
vt 0.662142 0.693419
vt 0.567527 0.759627
vt 0.466200 0.317033
vt 0.428428 0.212422
vt 0.484280 0.259697
vt 0.386952 0.285875
vt 0.810483 0.975559
vt 0.665689 0.975588
vt 0.558344 0.783871
vt 0.232292 0.142308
vt 0.290880 0.079425
vt 0.308563 0.080842
vt 0.249447 0.156628
vt 0.968308 0.323359
vt 0.967471 0.244458
vt 0.871676 0.265925
vt 0.870709 0.326482
vt 0.536941 0.310145
vt 0.525883 0.343081
vt 0.494697 0.505904
vt 0.503162 0.446024
vt 0.548335 0.436661
vt 0.556756 0.497583
vt 0.135261 0.188875
vt 0.196791 0.196540
vt 0.204602 0.211841
vt 0.946635 0.832102
vt 0.958523 0.889844
vt 0.501704 0.028258
vt 0.476333 0.026418
vt 0.501704 0.028258
vt 0.486107 0.113289
vt 0.458078 0.113911
vt 0.544767 0.745207
vt 0.487067 0.789837
vt 0.069868 0.360468
vt 0.010480 0.297340
vt 0.096071 0.262697
vt 0.143393 0.340234
vt 0.946072 0.107258
vt 0.977689 0.081133
vt 0.929794 0.049553
vt 0.774368 0.556107
vt 0.887512 0.484876
vt 0.920239 0.527225
vt 0.772039 0.599271
vt 0.190791 0.314428
vt 0.200379 0.395168
vt 0.169002 0.401851
vt 0.173636 0.752740
vt 0.189780 0.795244
vt 0.102462 0.790583
vt 0.214719 0.475168
vt 0.115437 0.417854
vt 0.664323 0.453185
vt 0.654237 0.464106
vt 0.306502 0.018299
vt 0.339505 0.021618
vt 0.690939 0.505038
vt 0.663227 0.527893
vt 0.634719 0.489572
vt 0.329489 0.160667
vt 0.313030 0.209115
vt 0.299327 0.471527
vt 0.381503 0.491880
vt 0.403086 0.571749
vt 0.277684 0.558960
vt 0.257665 0.363011
vt 0.235888 0.235925
vt 0.300011 0.263170
vt 0.303630 0.346730
vt 0.394488 0.404984
vt 0.309782 0.440697
vt 0.984210 0.936008
vt 0.263395 0.172248
vt 0.889609 0.771545
vt 0.954972 0.800113
vt 0.964882 0.775823
vt 0.484537 0.438063
vt 0.499825 0.570496
vt 0.506891 0.411304
vt 0.484656 0.418170
vt 0.720259 0.359530
vt 0.763213 0.332879
vt 0.760599 0.368101
vt 0.807717 0.347306
vt 0.764493 0.402562
vt 0.720669 0.385702
vt 0.720669 0.385702
vt 0.720259 0.359530
vt 0.760599 0.368101
vt 0.331286 0.643327
vt 0.428621 0.628609
vt 0.426098 0.669181
vt 0.332944 0.605722
vt 0.413207 0.593325
vt 0.426854 0.668408
vt 0.420259 0.611567
vt 0.330201 0.625709
vt 0.334554 0.671991
vt 0.522037 0.585951
vt 0.521984 0.584513
vt 0.045485 0.640825
vt 0.078199 0.682572
vt 0.041741 0.707267
vt 0.036324 0.698651
vt 0.121161 0.470134
vt 0.033334 0.506340
vt 0.110854 0.443000
vt 0.137344 0.590264
vt 0.036324 0.698651
vt 0.041741 0.707267
vt 0.034545 0.714723
vt 0.029743 0.704982
vt 0.054780 0.390018
vt 0.018490 0.370272
vt 0.097942 0.736828
vt 0.034545 0.714723
vt 0.097942 0.736828
vt 0.097074 0.752419
vt 0.945645 0.396042
vt 0.989538 0.441085
vt 0.945600 0.463931
vt 0.861241 0.163174
vt 0.886263 0.205914
vt 0.985805 0.142090
vt 0.128195 0.488619
vt 0.575453 0.541088
vt 0.125968 0.531423
vt 0.149241 0.552783
vt 0.751527 0.492302
vt 0.814715 0.428558
vt 0.890940 0.040595
vt 0.870923 0.079910
vt 0.849390 0.404350
vt 0.641620 0.617710
vt 0.531508 0.631337
vt 0.652538 0.571337
vt 0.729373 0.260420
vt 0.623516 0.307523
vt 0.729055 0.299125
vt 0.631480 0.650174
vt 0.801156 0.121119
vt 0.712782 0.223332
vt 0.099482 0.206647
vt 0.081529 0.129456
vt 0.205628 0.872965
vt 0.132022 0.888900
vt 0.128562 0.845020
vt 0.200457 0.827508
vt 0.384800 0.189600
vt 0.966878 0.654341
vt 0.873965 0.642387
vt 0.060164 0.042035
vt 0.201272 0.666065
vt 0.234287 0.601738
vt 0.402592 0.826025
vt 0.392185 0.756004
vt 0.427905 0.733203
vt 0.355383 0.894384
vt 0.204586 0.931595
vt 0.801097 0.643379
vt 0.656893 0.667751
vt 0.534641 0.694797
vt 0.486874 0.969531
vt 0.489621 0.885862
vt 0.560286 0.885292
vt 0.561945 0.972059
vt 0.191084 0.225124
vt 0.158992 0.715981
vt 0.050895 0.896169
vt 0.058946 0.844912
vt 0.062394 0.945048
vt 0.033547 0.942459
vt 0.978705 0.506524
vt 0.906223 0.373970
vt 0.027040 0.854914
vt 0.131940 0.928230
vt 0.916689 0.975431
vt 0.982171 0.975803
vt 0.700247 0.492158
vt 0.207170 0.591073
vt 0.354559 0.063931
vt 0.387059 0.096431
vt 0.419559 0.063931
vt 0.354559 0.063931
vt 0.391121 0.104556
vt 0.419559 0.063931
vt 0.354559 0.063931
vt 0.387059 0.107265
vt 0.419559 0.063931
vt 0.354559 0.063931
vt 0.382996 0.104556
vt 0.419559 0.063931
vt 0.360628 0.054018
vt 0.387059 0.107265
vt 0.424343 0.052355
vt 0.368048 0.054061
vt 0.387059 0.107265
vt 0.426934 0.054047
vt 0.357456 0.057406
vt 0.393505 0.107364
vt 0.417936 0.054489
vt 0.354559 0.063931
vt 0.395642 0.106462
vt 0.416024 0.053527
vt 0.041741 0.707267
vt 0.356612 0.841513
vt 0.346720 0.767238
vt 0.333549 0.668550
vt 0.054122 0.229178
vt 0.031858 0.138049
vt 0.014007 0.050633
vt 0.399556 0.955901
vt 0.401628 0.889341
vt 0.353797 0.951799
vt 0.907467 0.911319
vt 0.889902 0.838043
vt 0.811406 0.840027
vt 0.810962 0.923868
vt 0.287806 0.671946
vt 0.223504 0.711290
vt 0.120766 0.122667
vt 0.232611 0.091211
vt 0.667246 0.880221
vt 0.613110 0.395629
vt 0.576507 0.352993
vt 0.565690 0.368556
vt 0.606779 0.410438
vt 0.954269 0.717756
vt 0.879074 0.689393
vt 0.877279 0.730959
vt 0.925757 0.748480
vt 0.805538 0.690828
vt 0.816222 0.758672
vt 0.699133 0.145033
vt 0.605452 0.203293
vt 0.642711 0.237176
vt 0.713288 0.178632
vt 0.564589 0.030556
vt 0.558384 0.104305
vt 0.667030 0.069371
vt 0.645817 0.022215
vt 0.676566 0.099509
vt 0.546532 0.154790
vt 0.486107 0.113289
vt 0.477225 0.177526
vt 0.458078 0.113911
vt 0.447288 0.183724
vt 0.447288 0.183724
vt 0.512522 0.250552
vt 0.532638 0.237343
vt 0.477225 0.177526
vt 0.546532 0.154790
vt 0.754104 0.021219
vt 0.562657 0.282454
vt 0.534127 0.298293
vt 0.676566 0.099509
vt 0.709136 0.093574
vt 0.786520 0.095967
vt 0.661810 0.695231
vt 0.669754 0.774781
vt 0.567527 0.759627
vt 0.466200 0.317033
vt 0.484280 0.259697
vt 0.428428 0.212422
vt 0.386952 0.285875
vt 0.665746 0.975287
vt 0.558344 0.783871
vt 0.232292 0.142308
vt 0.249447 0.156628
vt 0.308563 0.080842
vt 0.290880 0.079425
vt 0.968308 0.323359
vt 0.870709 0.326482
vt 0.871676 0.265925
vt 0.967471 0.244458
vt 0.536941 0.310145
vt 0.525883 0.343081
vt 0.494697 0.505904
vt 0.556756 0.497583
vt 0.548335 0.436661
vt 0.503162 0.446024
vt 0.135261 0.188875
vt 0.204602 0.211841
vt 0.196791 0.196540
vt 0.958523 0.889844
vt 0.946635 0.832102
vt 0.501704 0.028258
vt 0.476333 0.026418
vt 0.458078 0.113911
vt 0.486107 0.113289
vt 0.501704 0.028258
vt 0.544767 0.745207
vt 0.487067 0.789837
vt 0.143393 0.340234
vt 0.096071 0.262697
vt 0.946072 0.107258
vt 0.929794 0.049553
vt 0.977689 0.081133
vt 0.774368 0.556107
vt 0.887512 0.484876
vt 0.169002 0.401851
vt 0.173636 0.752740
vt 0.664323 0.453185
vt 0.654237 0.464106
vt 0.634719 0.489572
vt 0.329489 0.160667
vt 0.313030 0.209115
vt 0.299327 0.471527
vt 0.381503 0.491880
vt 0.257665 0.363011
vt 0.303630 0.346730
vt 0.300011 0.263170
vt 0.235888 0.235925
vt 0.394488 0.404984
vt 0.309782 0.440697
vt 0.984210 0.936008
vt 0.263395 0.172248
vt 0.954972 0.800113
vt 0.889609 0.771545
vt 0.964882 0.775823
vt 0.484537 0.438063
vt 0.506891 0.411304
vt 0.484656 0.418170
vt 0.720259 0.359530
vt 0.760599 0.368101
vt 0.763213 0.332879
vt 0.807717 0.347306
vt 0.764493 0.402562
vt 0.720669 0.385702
vt 0.720669 0.385702
vt 0.760599 0.368101
vt 0.720259 0.359530
vt 0.331286 0.643327
vt 0.426098 0.669181
vt 0.428621 0.628609
vt 0.413207 0.593325
vt 0.332944 0.605722
vt 0.426854 0.668408
vt 0.334554 0.671991
vt 0.330201 0.625709
vt 0.420259 0.611567
vt 0.522037 0.585951
vt 0.521984 0.584513
vt 0.045485 0.640825
vt 0.036324 0.698651
vt 0.041741 0.707267
vt 0.121161 0.470134
vt 0.110854 0.443000
vt 0.137344 0.590264
vt 0.036324 0.698651
vt 0.029743 0.704982
vt 0.034545 0.714723
vt 0.041741 0.707267
vt 0.054780 0.390018
vt 0.034545 0.714723
vt 0.945645 0.396042
vt 0.945600 0.463931
vt 0.989538 0.441085
vt 0.861241 0.163174
vt 0.128195 0.488619
vt 0.125968 0.531423
vt 0.149241 0.552783
vt 0.641620 0.617710
vt 0.531508 0.631337
vt 0.729373 0.260420
vt 0.623516 0.307523
vt 0.081529 0.129456
vt 0.099482 0.206647
vt 0.205866 0.873799
vt 0.200364 0.825700
vt 0.132022 0.888900
vt 0.384800 0.189600
vt 0.873664 0.642350
vt 0.392185 0.756004
vt 0.402592 0.826025
vt 0.204713 0.930774
vt 0.355383 0.894384
vt 0.800708 0.643406
vt 0.656719 0.666774
vt 0.560286 0.885292
vt 0.489621 0.885862
vt 0.050895 0.896169
vt 0.033547 0.942459
vt 0.027040 0.854914
vt 0.354559 0.063931
vt 0.419559 0.063931
vt 0.387059 0.096431
vt 0.354559 0.063931
vt 0.419559 0.063931
vt 0.391121 0.104556
vt 0.354559 0.063931
vt 0.419559 0.063931
vt 0.387059 0.107265
vt 0.354559 0.063931
vt 0.419559 0.063931
vt 0.382996 0.104556
vt 0.360628 0.054018
vt 0.424343 0.052355
vt 0.387059 0.107265
vt 0.368048 0.054061
vt 0.426934 0.054047
vt 0.387059 0.107265
vt 0.357456 0.057406
vt 0.417936 0.054489
vt 0.393505 0.107364
vt 0.354559 0.063931
vt 0.416024 0.053527
vt 0.395642 0.106462
vt 0.041741 0.707267
vt 0.356612 0.841513
vt 0.333549 0.668550
vt 0.054122 0.229178
vt 0.031858 0.138049
vt 0.399556 0.955901
vt 0.401628 0.889341
vn -0.77516 0.63111 0.02879
vn -0.74823 0.65962 0.07113
vn -0.94982 0.30827 0.05310
vn -0.94248 0.33412 -0.01005
vn 0.00000 0.60256 -0.79808
vn -0.00000 0.71212 -0.70206
vn -0.99871 0.04910 0.01326
vn -0.99784 0.04054 0.05166
vn 0.00000 -0.94253 -0.33412
vn -0.00000 -0.84740 -0.53095
vn -0.49846 -0.68420 -0.53236
vn -0.56361 -0.74556 -0.35563
vn -0.89796 0.41752 0.13908
vn -0.67802 -0.23671 -0.69588
vn -0.77494 0.01106 -0.63194
vn -0.84382 -0.02893 -0.53585
vn -0.77502 -0.22316 -0.59122
vn -0.44114 -0.84756 -0.29503
vn -0.89430 -0.13238 -0.42744
vn -0.53673 -0.84374 0.00491
vn -0.29038 -0.95655 -0.02624
vn -0.88794 -0.41438 0.19964
vn -0.40830 -0.89893 0.15878
vn 0.55617 -0.83046 -0.03184
vn 0.59126 -0.78887 0.16760
vn 0.56993 -0.80960 0.14044
vn 0.51711 -0.85146 -0.08724
vn -0.53943 0.76801 0.34522
vn -0.51881 0.76550 0.38060
vn -0.66279 0.74608 0.06391
vn -0.65114 0.75648 -0.06131
vn -0.72871 0.56026 -0.39381
vn -0.65395 0.66674 -0.35749
vn -0.70363 0.63814 -0.31253
vn -0.66700 0.72238 -0.18241
vn -0.89430 -0.13238 -0.42744
vn -0.93677 0.31608 -0.15016
vn 0.47267 -0.84099 -0.26329
vn 0.48293 -0.84680 -0.22296
vn 0.51430 -0.85628 -0.04770
vn 0.56157 -0.82639 0.04149
vn 0.50170 -0.83983 -0.20734
vn -0.72990 0.68312 0.02432
vn 0.60111 -0.77426 0.19796
vn 0.67855 -0.70035 0.22154
vn 0.48641 -0.84847 -0.20856
vn 0.48641 -0.84847 -0.20856
vn 0.54585 -0.83769 -0.01827
vn -0.95822 -0.19779 0.20664
vn -0.50852 -0.83938 0.19197
vn -0.79553 -0.56945 0.20703
vn -0.94607 0.18848 -0.26348
vn -0.92611 0.12227 -0.35690
vn -0.85056 0.09083 -0.51797
vn -0.93566 0.19360 -0.29506
vn 0.00000 0.99808 0.06200
vn 0.00000 0.99141 0.13082
vn -0.97461 -0.07948 0.20931
vn -0.81526 -0.33395 -0.47311
vn -0.63674 -0.42771 -0.64158
vn -0.66071 -0.32190 -0.67812
vn -0.85599 -0.23978 -0.45803
vn -0.96710 -0.00576 -0.25435
vn -0.95836 0.12770 -0.25543
vn -0.96710 -0.00576 -0.25435
vn -0.95853 -0.13912 -0.24871
vn -0.92142 -0.00589 -0.38852
vn -0.91719 -0.02667 -0.39755
vn -0.69595 0.63984 -0.32598
vn -0.77788 0.57973 -0.24251
vn -0.80106 0.42632 -0.42019
vn -0.65013 0.64947 -0.39436
vn -0.87413 -0.34987 -0.33688
vn -0.94688 0.02998 -0.32018
vn -0.93410 0.28078 -0.22050
vn -0.96608 0.25403 -0.04650
vn -0.88177 0.47078 0.02918
vn -0.57235 0.76898 0.28476
vn -0.76914 0.61025 0.18977
vn -0.80748 0.55228 0.20729
vn -0.76914 0.61025 0.18977
vn -0.72686 0.66508 0.17128
vn -0.52790 -0.80618 0.26721
vn -0.92033 -0.32824 0.21273
vn 0.00000 -0.74356 -0.66867
vn 0.00000 -0.73905 -0.67366
vn -0.99796 -0.06240 0.01338
vn -0.99821 -0.05704 0.01785
vn -0.98203 -0.18811 -0.01543
vn -0.99613 0.07257 -0.04966
vn -0.93327 0.09798 0.34555
vn -0.99909 0.03147 -0.02872
vn -0.99850 0.05472 -0.00311
vn 0.00000 0.55021 -0.83503
vn 0.00000 0.51272 -0.85855
vn 0.00000 0.22017 0.97546
vn 0.00000 0.49805 0.86715
vn -0.99768 -0.05518 0.03978
vn -0.99774 0.06384 0.02071
vn 0.00000 0.87266 -0.48833
vn 0.00000 0.66453 0.74726
vn 0.00000 -0.75565 0.65498
vn 0.00000 -0.88510 -0.46540
vn -0.55643 -0.08300 -0.82674
vn -0.64020 0.18154 -0.74645
vn -0.00000 -0.57345 -0.81924
vn 0.00000 -0.33793 -0.94117
vn -0.00000 0.13949 -0.99022
vn -0.00000 0.56082 -0.82794
vn -0.65003 0.57400 -0.49799
vn -0.96296 0.01962 -0.26894
vn -0.98865 0.07580 -0.12972
vn -0.73268 0.62161 -0.27710
vn -0.77897 0.55288 -0.29584
vn 0.00000 0.91579 -0.40166
vn 0.00000 0.96932 -0.24582
vn -0.90712 0.42001 -0.02693
vn -0.97573 0.20114 0.08659
vn -0.96018 0.26239 -0.09594
vn -0.87746 0.38061 -0.29191
vn -0.89878 0.37116 -0.23332
vn -0.73268 0.62161 -0.27710
vn -0.64553 0.76371 0.00559
vn -0.99995 0.00075 0.00993
vn -0.93677 0.31608 -0.15016
vn -0.98236 0.11013 -0.15112
vn -0.89610 -0.35876 -0.26135
vn -0.87836 0.47646 -0.03836
vn 0.00000 0.90682 -0.42152
vn -0.93644 0.24613 -0.25002
vn -0.93527 0.35341 -0.01914
vn -0.87836 0.47646 -0.03836
vn -0.93527 0.35341 -0.01914
vn -0.90664 0.39284 -0.15390
vn -0.93644 0.24613 -0.25002
vn -0.80106 0.42632 -0.42019
vn -0.77788 0.57973 -0.24251
vn -0.80669 0.58990 0.03558
vn -0.80669 0.58990 0.03558
vn -0.80669 0.58990 0.03558
vn -0.69699 0.66976 0.25618
vn -0.83402 0.43786 0.33567
vn -0.91126 0.35827 -0.20308
vn 0.15311 0.57705 0.80223
vn -0.39524 0.58194 0.71073
vn 0.65422 -0.67074 -0.34942
vn 0.67200 -0.66981 -0.31586
vn 0.61474 -0.70752 -0.34858
vn 0.61605 -0.66970 -0.41471
vn -0.86169 0.35946 0.35816
vn 0.72727 -0.59155 -0.34806
vn 0.25091 0.88950 0.38189
vn -0.00000 0.96565 0.25983
vn 0.17308 0.96986 0.17153
vn -0.09302 0.91811 0.38525
vn 0.59649 -0.74276 -0.30416
vn 0.00000 -0.92201 -0.38717
vn 0.53078 -0.80574 -0.26278
vn 0.35550 0.83525 0.41949
vn 0.56739 0.65522 -0.49875
vn 0.71596 0.47195 -0.51445
vn 0.56739 0.65522 -0.49875
vn 0.38711 0.80185 -0.45517
vn 0.38434 -0.89461 -0.22794
vn 0.00000 -0.97418 -0.22576
vn -0.00000 0.97087 -0.23961
vn 0.63280 0.12011 -0.76494
vn 0.00000 0.15512 -0.98790
vn 0.00000 -0.46228 -0.88674
vn -0.93327 0.09798 0.34555
vn -0.99613 0.07257 -0.04966
vn -0.97937 0.19850 0.03775
vn -0.99951 -0.02103 0.02318
vn -0.00000 -0.56571 -0.82460
vn -0.00000 -0.96434 -0.26468
vn 0.55690 -0.66656 -0.49554
vn -0.00000 0.85839 -0.51300
vn 0.52144 -0.62833 -0.57732
vn 0.36531 -0.70753 -0.60494
vn 0.00000 -0.25209 0.96770
vn 0.00000 -0.27962 0.96011
vn -0.00000 0.39493 0.91871
vn 0.00000 0.13624 0.99068
vn 0.00000 -0.27629 0.96107
vn -0.99684 0.06533 -0.04514
vn -0.99868 0.04434 0.02579
vn -0.00000 -0.35759 0.93388
vn -0.99936 -0.03420 -0.01014
vn -0.99891 -0.04148 0.02127
vn -0.00000 -0.64844 -0.76126
vn -0.00000 0.72837 -0.68518
vn 0.00000 0.36701 0.93022
vn 0.00000 0.26342 0.96468
vn -0.65846 -0.73130 -0.17786
vn -0.52323 -0.81835 -0.23775
vn -0.99520 -0.04182 0.08845
vn -0.99935 0.00121 0.03608
vn 0.00000 -0.98983 0.14228
vn 0.00000 -0.95263 0.30412
vn -0.96816 0.09903 -0.22989
vn 0.00000 -0.97899 -0.20390
vn 0.00000 -0.99906 0.04327
vn 0.00000 -0.95483 -0.29714
vn 0.00000 0.20513 0.97873
vn 0.00000 0.27068 0.96267
vn -0.97114 -0.15484 0.18139
vn -0.77975 -0.59437 0.19679
vn 0.00000 -0.95949 0.28173
vn -0.91863 0.38421 0.09222
vn -0.00000 0.99728 0.07370
vn 0.00000 -0.99184 0.12749
vn 0.00000 -0.97687 0.21381
vn -0.00000 -0.97488 0.22275
vn -0.00000 0.99459 0.10391
vn -0.93649 0.32929 0.12061
vn -0.91685 0.36721 0.15663
vn -0.00000 0.98962 0.14369
vn 0.00000 0.06600 0.99782
vn 0.00000 -0.13591 0.99072
vn -0.99613 0.07257 -0.04966
vn -0.00000 -0.96434 -0.26468
vn 0.00000 0.83914 -0.54392
vn -0.97937 0.19850 0.03775
vn 0.00000 0.83914 -0.54392
vn -0.00000 0.39493 0.91871
vn -0.98203 -0.18811 -0.01543
vn -0.00000 0.99974 -0.02259
vn 0.00000 0.99975 0.02230
vn 0.00000 0.99978 -0.02085
vn -0.00000 0.07866 -0.99690
vn 0.00000 0.88400 0.46749
vn 0.65432 -0.29877 0.69470
vn 0.65432 -0.29877 0.69470
vn 0.65432 -0.29877 0.69470
vn -0.86836 -0.36403 0.33681
vn -0.86836 -0.36403 0.33681
vn -0.86836 -0.36403 0.33681
vn -0.67807 0.09173 -0.72925
vn -0.67807 0.09173 -0.72925
vn -0.67807 0.09173 -0.72925
vn 0.93234 0.11832 -0.34167
vn 0.93234 0.11832 -0.34167
vn 0.93234 0.11832 -0.34167
vn -0.27952 -0.17897 0.94331
vn -0.27952 -0.17897 0.94331
vn -0.27952 -0.17897 0.94331
vn -0.82434 0.01251 -0.56595
vn -0.82434 0.01251 -0.56595
vn -0.82434 0.01251 -0.56595
vn -0.35730 0.29867 0.88495
vn -0.35730 0.29867 0.88495
vn -0.35730 0.29867 0.88495
vn -0.86897 -0.06672 -0.49036
vn -0.86897 -0.06672 -0.49036
vn -0.86897 -0.06672 -0.49036
vn 0.55583 0.59708 -0.57841
vn -0.98557 -0.09117 0.14265
vn -0.00000 -0.91931 0.39353
vn -0.65138 0.38988 -0.65092
vn -0.89610 -0.35876 -0.26135
vn -0.44114 -0.84756 -0.29503
vn 0.00000 -0.97899 -0.20390
vn -0.90402 0.41193 0.11425
vn -0.94155 0.31101 0.12944
vn 0.00000 0.96063 0.27784
vn 0.77516 0.63111 0.02879
vn 0.94248 0.33412 -0.01005
vn 0.94982 0.30827 0.05310
vn 0.74823 0.65962 0.07113
vn 0.99784 0.04054 0.05166
vn 0.99871 0.04910 0.01326
vn 0.56361 -0.74556 -0.35563
vn 0.49846 -0.68420 -0.53236
vn 0.89796 0.41752 0.13908
vn 0.67802 -0.23671 -0.69588
vn 0.77502 -0.22316 -0.59122
vn 0.84382 -0.02893 -0.53585
vn 0.77494 0.01106 -0.63194
vn 0.44114 -0.84756 -0.29503
vn 0.29038 -0.95655 -0.02624
vn 0.53673 -0.84374 0.00491
vn 0.89430 -0.13238 -0.42744
vn 0.40830 -0.89893 0.15878
vn 0.88794 -0.41438 0.19964
vn -0.55617 -0.83046 -0.03184
vn -0.51711 -0.85146 -0.08724
vn -0.56994 -0.80960 0.14044
vn -0.59126 -0.78887 0.16760
vn 0.53943 0.76801 0.34523
vn 0.65114 0.75648 -0.06131
vn 0.66279 0.74608 0.06391
vn 0.51881 0.76550 0.38060
vn 0.72871 0.56026 -0.39381
vn 0.65395 0.66674 -0.35749
vn 0.66700 0.72238 -0.18241
vn 0.70363 0.63814 -0.31253
vn 0.93677 0.31608 -0.15016
vn 0.89430 -0.13238 -0.42744
vn -0.47267 -0.84099 -0.26329
vn -0.56157 -0.82639 0.04149
vn -0.51430 -0.85628 -0.04770
vn -0.48293 -0.84680 -0.22296
vn -0.50170 -0.83983 -0.20734
vn 0.72990 0.68312 0.02432
vn -0.60111 -0.77426 0.19796
vn -0.67855 -0.70035 0.22154
vn -0.48641 -0.84847 -0.20856
vn -0.48641 -0.84847 -0.20856
vn -0.54585 -0.83769 -0.01827
vn 0.50852 -0.83938 0.19197
vn 0.95822 -0.19779 0.20664
vn 0.79553 -0.56945 0.20703
vn 0.94607 0.18848 -0.26348
vn 0.85056 0.09083 -0.51797
vn 0.92611 0.12227 -0.35690
vn 0.93566 0.19360 -0.29506
vn 0.00000 0.99141 0.13082
vn 0.97461 -0.07948 0.20931
vn 0.81526 -0.33395 -0.47311
vn 0.85599 -0.23978 -0.45803
vn 0.66071 -0.32190 -0.67812
vn 0.63674 -0.42771 -0.64158
vn 0.96710 -0.00576 -0.25435
vn 0.95853 -0.13912 -0.24871
vn 0.96710 -0.00576 -0.25435
vn 0.95836 0.12770 -0.25543
vn 0.92142 -0.00589 -0.38852
vn 0.91719 -0.02667 -0.39755
vn 0.69595 0.63984 -0.32598
vn 0.65013 0.64947 -0.39436
vn 0.80106 0.42632 -0.42019
vn 0.77788 0.57973 -0.24251
vn 0.87413 -0.34987 -0.33688
vn 0.93410 0.28078 -0.22050
vn 0.94688 0.02998 -0.32018
vn 0.88177 0.47078 0.02918
vn 0.96608 0.25403 -0.04650
vn 0.57235 0.76898 0.28476
vn 0.76914 0.61025 0.18977
vn 0.72686 0.66508 0.17128
vn 0.76914 0.61025 0.18977
vn 0.80748 0.55228 0.20729
vn 0.52790 -0.80618 0.26721
vn 0.92033 -0.32824 0.21273
vn 0.99821 -0.05704 0.01785
vn 0.99796 -0.06240 0.01338
vn 0.98203 -0.18811 -0.01543
vn 0.93327 0.09798 0.34555
vn 0.99613 0.07257 -0.04966
vn 0.99909 0.03147 -0.02872
vn 0.99850 0.05472 -0.00311
vn 0.99768 -0.05518 0.03978
vn 0.99774 0.06384 0.02071
vn 0.55643 -0.08300 -0.82674
vn 0.64020 0.18154 -0.74645
vn 0.65003 0.57400 -0.49799
vn 0.96296 0.01962 -0.26894
vn 0.98865 0.07580 -0.12972
vn 0.73268 0.62161 -0.27710
vn 0.77897 0.55288 -0.29584
vn 0.90712 0.42001 -0.02693
vn 0.87746 0.38061 -0.29191
vn 0.96018 0.26239 -0.09594
vn 0.97573 0.20114 0.08659
vn 0.89878 0.37116 -0.23332
vn 0.73268 0.62161 -0.27710
vn 0.64553 0.76371 0.00559
vn 0.99995 0.00075 0.00993
vn 0.98236 0.11013 -0.15112
vn 0.93677 0.31608 -0.15016
vn 0.89610 -0.35876 -0.26135
vn 0.87836 0.47646 -0.03836
vn 0.93644 0.24613 -0.25002
vn 0.93527 0.35341 -0.01914
vn 0.87836 0.47646 -0.03836
vn 0.90664 0.39284 -0.15390
vn 0.93527 0.35341 -0.01914
vn 0.93644 0.24613 -0.25002
vn 0.80106 0.42632 -0.42019
vn 0.77788 0.57973 -0.24251
vn 0.80669 0.58990 0.03558
vn 0.80669 0.58990 0.03558
vn 0.80669 0.58990 0.03558
vn 0.69699 0.66976 0.25618
vn 0.91126 0.35827 -0.20308
vn 0.83402 0.43786 0.33567
vn 0.39524 0.58194 0.71073
vn -0.15311 0.57705 0.80223
vn -0.65422 -0.67074 -0.34942
vn -0.61605 -0.66970 -0.41471
vn -0.61474 -0.70752 -0.34858
vn -0.67200 -0.66981 -0.31586
vn 0.86169 0.35946 0.35816
vn -0.72727 -0.59155 -0.34806
vn -0.25091 0.88950 0.38189
vn 0.09303 0.91811 0.38525
vn -0.17308 0.96986 0.17153
vn -0.59649 -0.74276 -0.30416
vn -0.53078 -0.80574 -0.26278
vn -0.35550 0.83525 0.41949
vn -0.56739 0.65522 -0.49875
vn -0.38711 0.80185 -0.45517
vn -0.56739 0.65522 -0.49875
vn -0.71596 0.47196 -0.51445
vn -0.38434 -0.89461 -0.22794
vn -0.63280 0.12011 -0.76494
vn 0.93327 0.09798 0.34555
vn 0.97937 0.19850 0.03775
vn 0.99613 0.07257 -0.04966
vn 0.99951 -0.02103 0.02318
vn -0.55690 -0.66656 -0.49554
vn -0.52144 -0.62833 -0.57732
vn -0.36531 -0.70753 -0.60494
vn 0.99684 0.06533 -0.04514
vn 0.99868 0.04434 0.02579
vn 0.99936 -0.03420 -0.01014
vn 0.99891 -0.04148 0.02127
vn 0.52323 -0.81835 -0.23775
vn 0.65846 -0.73130 -0.17786
vn 0.99520 -0.04182 0.08845
vn 0.00000 -0.95263 0.30412
vn 0.99935 0.00121 0.03608
vn 0.96816 0.09903 -0.22989
vn 0.00000 -0.99906 0.04327
vn 0.77975 -0.59437 0.19679
vn 0.97114 -0.15484 0.18139
vn -0.00000 0.99728 0.07370
vn 0.91863 0.38421 0.09222
vn 0.00000 -0.99184 0.12749
vn 0.00000 -0.97687 0.21381
vn 0.91685 0.36721 0.15663
vn 0.93649 0.32929 0.12061
vn 0.99613 0.07257 -0.04966
vn 0.97937 0.19850 0.03775
vn 0.98203 -0.18811 -0.01543
vn -0.65432 -0.29877 0.69470
vn -0.65432 -0.29877 0.69470
vn -0.65432 -0.29877 0.69470
vn 0.86836 -0.36403 0.33681
vn 0.86836 -0.36403 0.33681
vn 0.86836 -0.36403 0.33681
vn 0.67807 0.09173 -0.72925
vn 0.67807 0.09173 -0.72925
vn 0.67807 0.09173 -0.72925
vn -0.93234 0.11832 -0.34167
vn -0.93234 0.11832 -0.34167
vn -0.93234 0.11832 -0.34167
vn 0.27952 -0.17897 0.94331
vn 0.27952 -0.17897 0.94331
vn 0.27952 -0.17897 0.94331
vn 0.82434 0.01251 -0.56595
vn 0.82434 0.01251 -0.56595
vn 0.82434 0.01251 -0.56595
vn 0.35731 0.29867 0.88494
vn 0.35731 0.29867 0.88494
vn 0.35731 0.29867 0.88494
vn 0.86896 -0.06672 -0.49036
vn 0.86896 -0.06672 -0.49036
vn 0.86896 -0.06672 -0.49036
vn -0.55582 0.59708 -0.57841
vn 0.98557 -0.09117 0.14265
vn 0.65138 0.38988 -0.65092
vn 0.89610 -0.35876 -0.26135
vn 0.44114 -0.84756 -0.29503
vn 0.90402 0.41193 0.11425
vn 0.94155 0.31101 0.12944
f 250/250/250 251/251/251 252/252/252
f 454/454/454 455/455/455 456/456/456
f 448/448/448 449/449/449 450/450/450
f 244/244/244 245/245/245 246/246/246
f 232/232/232 233/233/233 234/234/234
f 436/436/436 437/437/437 438/438/438
f 439/439/439 440/440/440 441/441/441
f 235/235/235 236/236/236 237/237/237
f 159/159/159 153/153/153 152/152/152
f 154/154/154 155/155/155 152/152/152
f 152/152/152 153/153/153 154/154/154
f 153/153/153 159/159/159 231/231/231
f 153/153/153 231/231/231 400/400/400
f 397/397/397 166/166/166 153/153/153
f 400/400/400 395/395/395 153/153/153
f 397/397/397 153/153/153 395/395/395
f 154/154/154 153/153/153 166/166/166
f 395/395/395 396/396/396 397/397/397
f 222/222/222 223/223/223 220/220/220
f 422/422/422 198/198/198 221/221/221
f 198/198/198 422/422/422 420/420/420
f 420/420/420 421/421/421 198/198/198
f 221/221/221 198/198/198 197/197/197
f 427/427/427 420/420/420 422/422/422
f 422/422/422 227/227/227 427/427/427
f 227/227/227 422/422/422 433/433/433
f 221/221/221 433/433/433 422/422/422
f 221/221/221 435/435/435 433/433/433
f 221/221/221 220/220/220 226/226/226
f 197/197/197 220/220/220 221/221/221
f 220/220/220 197/197/197 227/227/227
f 433/433/433 222/222/222 227/227/227
f 227/227/227 222/222/222 220/220/220
f 222/222/222 433/433/433 434/434/434
f 173/173/173 89/89/89 183/183/183
f 183/183/183 89/89/89 91/91/91
f 174/174/174 175/175/175 89/89/89
f 89/89/89 173/173/173 174/174/174
f 89/89/89 90/90/90 91/91/91
f 174/174/174 173/173/173 188/188/188
f 183/183/183 192/192/192 173/173/173
f 188/188/188 173/173/173 192/192/192
f 416/416/416 410/410/410 174/174/174
f 174/174/174 190/190/190 416/416/416
f 174/174/174 410/410/410 347/347/347
f 347/347/347 175/175/175 174/174/174
f 188/188/188 190/190/190 174/174/174
f 189/189/189 188/188/188 193/193/193
f 192/192/192 193/193/193 188/188/188
f 146/146/146 151/151/151 147/147/147
f 148/148/148 149/149/149 146/146/146
f 146/146/146 147/147/147 148/148/148
f 389/389/389 392/392/392 394/394/394
f 391/391/391 392/392/392 389/389/389
f 389/389/389 390/390/390 391/391/391
f 341/341/341 342/342/342 339/339/339
f 339/339/339 340/340/340 341/341/341
f 81/81/81 82/82/82 79/79/79
f 79/79/79 80/80/80 81/81/81
f 48/48/48 25/25/25 24/24/24
f 47/47/47 48/48/48 24/24/24
f 24/24/24 27/27/27 42/42/42
f 42/42/42 46/46/46 24/24/24
f 26/26/26 27/27/27 24/24/24
f 24/24/24 25/25/25 26/26/26
f 40/40/40 27/27/27 26/26/26
f 26/26/26 44/44/44 40/40/40
f 27/27/27 40/40/40 39/39/39
f 39/39/39 42/42/42 27/27/27
f 41/41/41 40/40/40 44/44/44
f 40/40/40 41/41/41 38/38/38
f 38/38/38 39/39/39 40/40/40
f 44/44/44 45/45/45 41/41/41
f 309/309/309 285/285/285 288/288/288
f 308/308/308 285/285/285 309/309/309
f 285/285/285 307/307/307 303/303/303
f 303/303/303 286/286/286 285/285/285
f 287/287/287 288/288/288 285/285/285
f 285/285/285 286/286/286 287/287/287
f 301/301/301 305/305/305 287/287/287
f 287/287/287 286/286/286 301/301/301
f 286/286/286 303/303/303 302/302/302
f 302/302/302 301/301/301 286/286/286
f 305/305/305 301/301/301 300/300/300
f 301/301/301 302/302/302 299/299/299
f 299/299/299 300/300/300 301/301/301
f 300/300/300 306/306/306 305/305/305
f 345/345/345 85/85/85 103/103/103
f 346/346/346 86/86/86 85/85/85
f 85/85/85 345/345/345 346/346/346
f 103/103/103 85/85/85 88/88/88
f 87/87/87 88/88/88 85/85/85
f 85/85/85 86/86/86 87/87/87
f 103/103/103 352/352/352 345/345/345
f 346/346/346 345/345/345 96/96/96
f 97/97/97 96/96/96 345/345/345
f 345/345/345 352/352/352 97/97/97
f 352/352/352 103/103/103 102/102/102
f 88/88/88 98/98/98 103/103/103
f 98/98/98 102/102/102 103/103/103
f 96/96/96 88/88/88 87/87/87
f 97/97/97 98/98/98 88/88/88
f 385/385/385 384/384/384 462/462/462
f 387/387/387 384/384/384 386/386/386
f 384/384/384 387/387/387 388/388/388
f 384/384/384 385/385/385 386/386/386
f 386/386/386 385/385/385 393/393/393
f 387/387/387 386/386/386 393/393/393
f 143/143/143 259/259/259 141/141/141
f 145/145/145 142/142/142 141/141/141
f 141/141/141 144/144/144 145/145/145
f 141/141/141 142/142/142 143/143/143
f 142/142/142 150/150/150 143/143/143
f 145/145/145 150/150/150 142/142/142
f 290/290/290 289/289/289 338/338/338
f 291/291/291 292/292/292 289/289/289
f 289/289/289 290/290/290 291/291/291
f 338/338/338 295/295/295 290/290/290
f 294/294/294 290/290/290 295/295/295
f 290/290/290 294/294/294 293/293/293
f 293/293/293 291/291/291 290/290/290
f 292/292/292 291/291/291 304/304/304
f 291/291/291 293/293/293 304/304/304
f 295/295/295 296/296/296 294/294/294
f 296/296/296 295/295/295 297/297/297
f 297/297/297 298/298/298 296/296/296
f 78/78/78 28/28/28 31/31/31
f 30/30/30 31/31/31 28/28/28
f 28/28/28 29/29/29 30/30/30
f 31/31/31 35/35/35 78/78/78
f 35/35/35 31/31/31 33/33/33
f 31/31/31 30/30/30 32/32/32
f 32/32/32 33/33/33 31/31/31
f 29/29/29 43/43/43 30/30/30
f 30/30/30 43/43/43 32/32/32
f 33/33/33 34/34/34 35/35/35
f 37/37/37 35/35/35 34/34/34
f 34/34/34 36/36/36 37/37/37
f 3/3/3 2/2/2 13/13/13
f 13/13/13 57/57/57 217/217/217
f 3/3/3 13/13/13 49/49/49
f 13/13/13 216/216/216 58/58/58
f 58/58/58 49/49/49 13/13/13
f 217/217/217 216/216/216 13/13/13
f 217/217/217 317/317/317 274/274/274
f 274/274/274 431/431/431 217/217/217
f 214/214/214 217/217/217 431/431/431
f 216/216/216 217/217/217 214/214/214
f 269/269/269 274/274/274 317/317/317
f 274/274/274 311/311/311 318/318/318
f 318/318/318 431/431/431 274/274/274
f 274/274/274 268/268/268 311/311/311
f 268/268/268 274/274/274 269/269/269
f 431/431/431 318/318/318 344/344/344
f 344/344/344 432/432/432 431/431/431
f 431/431/431 432/432/432 214/214/214
f 465/465/465 214/214/214 432/432/432
f 215/215/215 214/214/214 263/263/263
f 214/214/214 215/215/215 216/216/216
f 432/432/432 344/344/344 426/426/426
f 426/426/426 466/466/466 432/432/432
f 432/432/432 466/466/466 465/465/465
f 428/428/428 265/265/265 465/465/465
f 465/465/465 466/466/466 428/428/428
f 466/466/466 426/426/426 461/461/461
f 344/344/344 208/208/208 425/425/425
f 381/381/381 382/382/382 383/383/383
f 138/138/138 139/139/139 140/140/140
f 263/263/263 264/264/264 215/215/215
f 206/206/206 84/84/84 215/215/215
f 258/258/258 207/207/207 206/206/206
f 84/84/84 206/206/206 207/207/207
f 216/216/216 215/215/215 84/84/84
f 84/84/84 58/58/58 216/216/216
f 83/83/83 84/84/84 208/208/208
f 207/207/207 208/208/208 84/84/84
f 83/83/83 58/58/58 84/84/84
f 49/49/49 58/58/58 51/51/51
f 49/49/49 22/22/22 3/3/3
f 51/51/51 50/50/50 49/49/49
f 22/22/22 49/49/49 50/50/50
f 51/51/51 83/83/83 50/50/50
f 212/212/212 50/50/50 83/83/83
f 50/50/50 212/212/212 211/211/211
f 211/211/211 23/23/23 50/50/50
f 50/50/50 23/23/23 22/22/22
f 83/83/83 213/213/213 212/212/212
f 208/208/208 213/213/213 83/83/83
f 430/430/430 213/213/213 343/343/343
f 343/343/343 213/213/213 208/208/208
f 343/343/343 310/310/310 430/430/430
f 429/429/429 430/430/430 310/310/310
f 312/312/312 310/310/310 343/343/343
f 208/208/208 344/344/344 343/343/343
f 343/343/343 344/344/344 318/318/318
f 310/310/310 283/283/283 429/429/429
f 312/312/312 311/311/311 310/310/310
f 310/310/310 311/311/311 284/284/284
f 284/284/284 283/283/283 310/310/310
f 424/424/424 429/429/429 283/283/283
f 283/283/283 280/280/280 424/424/424
f 283/283/283 284/284/284 281/281/281
f 281/281/281 280/280/280 283/283/283
f 268/268/268 284/284/284 311/311/311
f 370/370/370 284/284/284 268/268/268
f 311/311/311 312/312/312 318/318/318
f 370/370/370 369/369/369 371/371/371
f 370/370/370 371/371/371 282/282/282
f 268/268/268 267/267/267 370/370/370
f 370/370/370 267/267/267 337/337/337
f 337/337/337 369/369/369 370/370/370
f 268/268/268 269/269/269 266/266/266
f 266/266/266 267/267/267 268/268/268
f 336/336/336 337/337/337 267/267/267
f 267/267/267 266/266/266 336/336/336
f 336/336/336 266/266/266 367/367/367
f 282/282/282 371/371/371 279/279/279
f 281/281/281 282/282/282 279/279/279
f 280/280/280 279/279/279 201/201/201
f 279/279/279 280/280/280 281/281/281
f 201/201/201 424/424/424 280/280/280
f 21/21/21 202/202/202 201/201/201
f 201/201/201 18/18/18 21/21/21
f 202/202/202 21/21/21 23/23/23
f 23/23/23 21/21/21 20/20/20
f 20/20/20 21/21/21 18/18/18
f 23/23/23 211/211/211 202/202/202
f 20/20/20 22/22/22 23/23/23
f 18/18/18 19/19/19 20/20/20
f 19/19/19 18/18/18 127/127/127
f 125/125/125 19/19/19 127/127/127
f 125/125/125 127/127/127 126/126/126
f 3/3/3 22/22/22 125/125/125
f 125/125/125 4/4/4 3/3/3
f 125/125/125 126/126/126 76/76/76
f 76/76/76 4/4/4 125/125/125
f 4/4/4 76/76/76 77/77/77
f 228/228/228 1/1/1 123/123/123
f 1/1/1 228/228/228 56/56/56
f 56/56/56 2/2/2 1/1/1
f 77/77/77 123/123/123 1/1/1
f 77/77/77 1/1/1 4/4/4
f 3/3/3 4/4/4 1/1/1
f 1/1/1 2/2/2 3/3/3
f 367/367/367 266/266/266 228/228/228
f 228/228/228 229/229/229 367/367/367
f 56/56/56 228/228/228 266/266/266
f 123/123/123 229/229/229 228/228/228
f 266/266/266 269/269/269 56/56/56
f 269/269/269 317/317/317 56/56/56
f 2/2/2 56/56/56 57/57/57
f 2/2/2 57/57/57 13/13/13
f 187/187/187 180/180/180 92/92/92
f 92/92/92 185/185/185 187/187/187
f 185/185/185 92/92/92 95/95/95
f 181/181/181 93/93/93 92/92/92
f 92/92/92 180/180/180 181/181/181
f 94/94/94 95/95/95 92/92/92
f 92/92/92 93/93/93 94/94/94
f 187/187/187 414/414/414 350/350/350
f 350/350/350 180/180/180 187/187/187
f 414/414/414 187/187/187 415/415/415
f 185/185/185 186/186/186 187/187/187
f 181/181/181 180/180/180 350/350/350
f 95/95/95 350/350/350 414/414/414
f 350/350/350 351/351/351 181/181/181
f 94/94/94 351/351/351 350/350/350
f 271/271/271 6/6/6 5/5/5
f 5/5/5 270/270/270 271/271/271
f 7/7/7 8/8/8 5/5/5
f 5/5/5 6/6/6 7/7/7
f 219/219/219 353/353/353 271/271/271
f 271/271/271 204/204/204 219/219/219
f 204/204/204 271/271/271 270/270/270
f 6/6/6 271/271/271 353/353/353
f 353/353/353 100/100/100 6/6/6
f 6/6/6 100/100/100 99/99/99
f 99/99/99 7/7/7 6/6/6
f 219/219/219 204/204/204 7/7/7
f 7/7/7 99/99/99 219/219/219
f 8/8/8 7/7/7 204/204/204
f 204/204/204 205/205/205 8/8/8
f 162/162/162 163/163/163 160/160/160
f 160/160/160 161/161/161 162/162/162
f 403/403/403 404/404/404 401/401/401
f 401/401/401 402/402/402 403/403/403
f 375/375/375 376/376/376 377/377/377
f 379/379/379 376/376/376 380/380/380
f 378/378/378 376/376/376 379/379/379
f 377/377/377 376/376/376 378/378/378
f 132/132/132 133/133/133 134/134/134
f 133/133/133 135/135/135 134/134/134
f 136/136/136 137/137/137 134/134/134
f 135/135/135 136/136/136 134/134/134
f 241/241/241 242/242/242 243/243/243
f 445/445/445 446/446/446 447/447/447
f 156/156/156 176/176/176 157/157/157
f 156/156/156 157/157/157 158/158/158
f 411/411/411 157/157/157 412/412/412
f 398/398/398 157/157/157 411/411/411
f 405/405/405 165/165/165 157/157/157
f 399/399/399 405/405/405 157/157/157
f 398/398/398 399/399/399 157/157/157
f 178/178/178 157/157/157 176/176/176
f 164/164/164 157/157/157 165/165/165
f 158/158/158 157/157/157 164/164/164
f 176/176/176 179/179/179 178/178/178
f 412/412/412 413/413/413 411/411/411
f 418/418/418 464/464/464 463/463/463
f 463/463/463 419/419/419 418/418/418
f 270/270/270 205/205/205 204/204/204
f 219/219/219 99/99/99 101/101/101
f 99/99/99 100/100/100 101/101/101
f 219/219/219 101/101/101 353/353/353
f 353/353/353 101/101/101 100/100/100
f 325/325/325 326/326/326 323/323/323
f 323/323/323 324/324/324 325/325/325
f 65/65/65 66/66/66 63/63/63
f 63/63/63 64/64/64 65/65/65
f 88/88/88 96/96/96 97/97/97
f 87/87/87 218/218/218 96/96/96
f 96/96/96 218/218/218 346/346/346
f 102/102/102 98/98/98 97/97/97
f 102/102/102 97/97/97 352/352/352
f 16/16/16 130/130/130 68/68/68
f 17/17/17 16/16/16 68/68/68
f 52/52/52 68/68/68 130/130/130
f 130/130/130 131/131/131 52/52/52
f 68/68/68 67/67/67 17/17/17
f 67/67/67 68/68/68 52/52/52
f 121/121/121 52/52/52 131/131/131
f 121/121/121 55/55/55 52/52/52
f 52/52/52 54/54/54 67/67/67
f 53/53/53 52/52/52 55/55/55
f 52/52/52 53/53/53 54/54/54
f 121/121/121 131/131/131 128/128/128
f 120/120/120 55/55/55 121/121/121
f 121/121/121 128/128/128 114/114/114
f 120/120/120 121/121/121 114/114/114
f 69/69/69 114/114/114 128/128/128
f 128/128/128 70/70/70 69/69/69
f 129/129/129 115/115/115 114/114/114
f 114/114/114 69/69/69 129/129/129
f 114/114/114 113/113/113 120/120/120
f 113/113/113 114/114/114 115/115/115
f 55/55/55 120/120/120 119/119/119
f 120/120/120 122/122/122 117/117/117
f 119/119/119 120/120/120 117/117/117
f 55/55/55 111/111/111 200/200/200
f 119/119/119 112/112/112 55/55/55
f 55/55/55 200/200/200 53/53/53
f 461/461/461 428/428/428 466/466/466
f 258/258/258 461/461/461 426/426/426
f 426/426/426 425/425/425 258/258/258
f 425/425/425 426/426/426 344/344/344
f 420/420/420 428/428/428 461/461/461
f 421/421/421 420/420/420 461/461/461
f 461/461/461 258/258/258 421/421/421
f 428/428/428 427/427/427 265/265/265
f 427/427/427 428/428/428 420/420/420
f 209/209/209 265/265/265 210/210/210
f 263/263/263 265/265/265 209/209/209
f 264/264/264 209/209/209 257/257/257
f 196/196/196 257/257/257 209/209/209
f 209/209/209 264/264/264 263/263/263
f 196/196/196 209/209/209 210/210/210
f 210/210/210 227/227/227 197/197/197
f 197/197/197 196/196/196 210/210/210
f 257/257/257 196/196/196 199/199/199
f 198/198/198 199/199/199 196/196/196
f 196/196/196 197/197/197 198/198/198
f 257/257/257 206/206/206 264/264/264
f 199/199/199 258/258/258 257/257/257
f 206/206/206 257/257/257 258/258/258
f 215/215/215 264/264/264 206/206/206
f 188/188/188 189/189/189 190/190/190
f 410/410/410 192/192/192 183/183/183
f 416/416/416 193/193/193 192/192/192
f 192/192/192 410/410/410 416/416/416
f 417/417/417 193/193/193 416/416/416
f 416/416/416 190/190/190 417/417/417
f 183/183/183 347/347/347 410/410/410
f 183/183/183 182/182/182 348/348/348
f 348/348/348 347/347/347 183/183/183
f 91/91/91 182/182/182 183/183/183
f 347/347/347 348/348/348 349/349/349
f 9/9/9 203/203/203 418/418/418
f 418/418/418 272/272/272 9/9/9
f 273/273/273 10/10/10 9/9/9
f 9/9/9 272/272/272 273/273/273
f 9/9/9 12/12/12 195/195/195
f 195/195/195 203/203/203 9/9/9
f 11/11/11 12/12/12 9/9/9
f 9/9/9 10/10/10 11/11/11
f 203/203/203 262/262/262 464/464/464
f 464/464/464 418/418/418 203/203/203
f 203/203/203 195/195/195 261/261/261
f 261/261/261 262/262/262 203/203/203
f 195/195/195 194/194/194 260/260/260
f 260/260/260 261/261/261 195/195/195
f 195/195/195 12/12/12 73/73/73
f 111/111/111 55/55/55 112/112/112
f 118/118/118 112/112/112 119/119/119
f 117/117/117 118/118/118 119/119/119
f 111/111/111 112/112/112 124/124/124
f 112/112/112 118/118/118 124/124/124
f 115/115/115 116/116/116 113/113/113
f 360/360/360 115/115/115 129/129/129
f 115/115/115 360/360/360 359/359/359
f 359/359/359 116/116/116 115/115/115
f 129/129/129 329/329/329 360/360/360
f 372/372/372 360/360/360 329/329/329
f 365/365/365 360/360/360 372/372/372
f 362/362/362 359/359/359 360/360/360
f 360/360/360 365/365/365 362/362/362
f 329/329/329 129/129/129 177/177/177
f 177/177/177 129/129/129 69/69/69
f 177/177/177 330/330/330 329/329/329
f 329/329/329 332/332/332 372/372/372
f 331/331/331 332/332/332 329/329/329
f 329/329/329 330/330/330 331/331/331
f 365/365/365 372/372/372 374/374/374
f 365/365/365 374/374/374 313/313/313
f 365/365/365 313/313/313 316/316/316
f 362/362/362 365/365/365 316/316/316
f 313/313/313 374/374/374 373/373/373
f 373/373/373 328/328/328 313/313/313
f 313/313/313 328/328/328 327/327/327
f 327/327/327 314/314/314 313/313/313
f 315/315/315 316/316/316 313/313/313
f 313/313/313 314/314/314 315/315/315
f 316/316/316 423/423/423 357/357/357
f 363/363/363 316/316/316 358/358/358
f 316/316/316 315/315/315 423/423/423
f 316/316/316 363/363/363 362/362/362
f 357/357/357 358/358/358 316/316/316
f 362/362/362 361/361/361 366/366/366
f 361/361/361 362/362/362 363/363/363
f 364/364/364 363/363/363 358/358/358
f 363/363/363 364/364/364 361/361/361
f 357/357/357 368/368/368 358/358/358
f 358/358/358 368/368/368 364/364/364
f 276/276/276 327/327/327 328/328/328
f 328/328/328 277/277/277 276/276/276
f 275/275/275 276/276/276 277/277/277
f 277/277/277 328/328/328 373/373/373
f 373/373/373 331/331/331 277/277/277
f 331/331/331 278/278/278 277/277/277
f 277/277/277 278/278/278 275/275/275
f 354/354/354 275/275/275 278/278/278
f 355/355/355 278/278/278 331/331/331
f 278/278/278 355/355/355 354/354/354
f 356/356/356 331/331/331 330/330/330
f 331/331/331 356/356/356 355/355/355
f 354/354/354 355/355/355 108/108/108
f 109/109/109 108/108/108 355/355/355
f 355/355/355 356/356/356 109/109/109
f 108/108/108 230/230/230 354/354/354
f 177/177/177 109/109/109 356/356/356
f 350/350/350 95/95/95 94/94/94
f 414/414/414 191/191/191 95/95/95
f 95/95/95 191/191/191 185/185/185
f 186/186/186 185/185/185 191/191/191
f 415/415/415 191/191/191 414/414/414
f 408/408/408 351/351/351 94/94/94
f 184/184/184 181/181/181 351/351/351
f 351/351/351 408/408/408 184/184/184
f 93/93/93 181/181/181 184/184/184
f 225/225/225 184/184/184 408/408/408
f 172/172/172 184/184/184 225/225/225
f 184/184/184 172/172/172 93/93/93
f 94/94/94 93/93/93 172/172/172
f 225/225/225 170/170/170 172/172/172
f 172/172/172 224/224/224 94/94/94
f 170/170/170 171/171/171 172/172/172
f 408/408/408 407/407/407 225/225/225
f 94/94/94 224/224/224 408/408/408
f 407/407/407 408/408/408 409/409/409
f 253/253/253 254/254/254 255/255/255
f 457/457/457 458/458/458 459/459/459
f 451/451/451 452/452/452 453/453/453
f 247/247/247 248/248/248 249/249/249
f 177/177/177 110/110/110 109/109/109
f 177/177/177 356/356/356 330/330/330
f 69/69/69 72/72/72 177/177/177
f 177/177/177 72/72/72 110/110/110
f 15/15/15 14/14/14 104/104/104
f 16/16/16 17/17/17 14/14/14
f 14/14/14 15/15/15 16/16/16
f 71/71/71 15/15/15 105/105/105
f 71/71/71 16/16/16 15/15/15
f 104/104/104 105/105/105 15/15/15
f 104/104/104 230/230/230 108/108/108
f 108/108/108 105/105/105 104/104/104
f 105/105/105 110/110/110 71/71/71
f 109/109/109 110/110/110 105/105/105
f 105/105/105 108/108/108 109/109/109
f 110/110/110 72/72/72 71/71/71
f 130/130/130 16/16/16 71/71/71
f 71/71/71 72/72/72 69/69/69
f 69/69/69 70/70/70 71/71/71
f 168/168/168 167/167/167 256/256/256
f 167/167/167 168/168/168 169/169/169
f 168/168/168 460/460/460 406/406/406
f 406/406/406 169/169/169 168/168/168
f 442/442/442 443/443/443 444/444/444
f 238/238/238 239/239/239 240/240/240
f 73/73/73 194/194/194 195/195/195
f 59/59/59 73/73/73 12/12/12
f 12/12/12 11/11/11 59/59/59
f 74/74/74 73/73/73 59/59/59
f 73/73/73 74/74/74 75/75/75
f 59/59/59 62/62/62 74/74/74
f 60/60/60 59/59/59 11/11/11
f 61/61/61 62/62/62 59/59/59
f 59/59/59 60/60/60 61/61/61
f 61/61/61 60/60/60 106/106/106
f 106/106/106 107/107/107 61/61/61
f 106/106/106 60/60/60 11/11/11
f 106/106/106 10/10/10 273/273/273
f 273/273/273 322/322/322 106/106/106
f 321/321/321 107/107/107 106/106/106
f 106/106/106 322/322/322 321/321/321
f 11/11/11 10/10/10 106/106/106
f 321/321/321 322/322/322 319/319/319
f 319/319/319 320/320/320 321/321/321
f 322/322/322 273/273/273 319/319/319
f 319/319/319 273/273/273 272/272/272
f 335/335/335 320/320/320 319/319/319
f 319/319/319 333/333/333 335/335/335
f 272/272/272 333/333/333 319/319/319
f 333/333/333 272/272/272 418/418/418
f 418/418/418 419/419/419 333/333/333
f 333/333/333 334/334/334 335/335/335
