# tylosaurus_ad reconstructed from live game memory
v -0.00000 42.02612 -90.52621
v -0.00000 38.98329 -98.81788
v 4.36261 37.72960 -98.79910
v 7.83748 40.44102 -90.49491
v 6.27796 31.79331 -98.82351
v -0.00001 30.73385 -98.99133
v -0.00001 30.73452 -98.99555
v 1.42586 31.79903 -104.20226
v 13.15906 42.94250 -67.98779
v 13.22411 42.79872 -72.18880
v 12.90705 39.39837 -70.23066
v 14.56469 40.15217 -75.02425
v 15.81100 36.42614 -67.65900
v 15.41830 36.68514 -72.97559
v 14.92529 39.73388 -66.15267
v 6.00680 29.35245 -98.81617
v 6.27796 31.79331 -98.82351
v 1.42586 31.79903 -104.20226
v 1.33945 30.65508 -103.33274
v 9.89822 31.76496 -90.45368
v 9.16277 27.33878 -90.48519
v 10.67121 26.09115 -83.46748
v 12.29320 31.73664 -83.47456
v -0.00001 27.79430 -98.81890
v -0.00001 25.58511 -90.48119
v -0.00001 23.70659 -83.48658
v -0.00001 21.40749 -74.11721
v 12.68210 24.39596 -74.18656
v 1.23731 35.65324 -102.50278
v -0.00000 36.43502 -103.50001
v -0.00000 34.00956 -105.64516
v 1.66946 34.01142 -104.33617
v 9.00493 34.99030 164.97958
v 7.25487 34.89194 185.23737
v 1.90684 41.95784 185.23541
v 2.05862 43.69674 164.97957
v 2.44788 46.73694 135.00743
v 3.08659 50.36266 105.96901
v 12.43019 39.94962 105.98209
v 11.27040 36.12756 135.00940
v 6.31183 22.27205 105.99897
v 2.02526 24.50282 135.01605
v 13.96619 36.15103 106.14657
v 13.80311 49.96415 -15.28081
v 3.21742 56.35325 -15.31005
v 2.77017 53.64940 -33.09888
v 12.71584 49.01099 -33.09216
v 5.84998 34.82488 201.78661
v 1.70169 40.37423 201.80371
v 12.51985 48.94371 60.88977
v 3.32378 55.95040 60.89484
v 3.17939 56.43332 44.92821
v 13.16669 49.69005 44.92474
v 25.72430 21.18394 26.68087
v 26.70031 21.90889 2.19948
v 15.87074 11.79124 2.25735
v 15.02607 12.73414 26.70019
v 1.78863 25.88037 164.97852
v 13.00164 42.04262 -68.40006
v 13.04607 41.91287 -71.65371
v 14.56718 39.82712 -70.46835
v 13.90159 39.77112 -73.13667
v 14.62832 37.11231 -72.43833
v 14.67084 37.25249 -68.47916
v 14.19308 39.60295 -67.21769
v 25.27938 30.71324 -15.28258
v 23.60678 28.84641 -22.88229
v 34.59105 27.31142 -21.93886
v 34.13382 30.26907 -14.47697
v 26.21745 28.64178 -8.67189
v 33.90582 28.09360 -7.69775
v 27.81771 25.77466 -6.61871
v 33.78233 25.72207 -4.98380
v 33.96309 23.11586 -9.15352
v 26.00819 21.83653 -9.34148
v 27.81771 25.77466 -6.61871
v 33.78233 25.72207 -4.98380
v 44.95009 27.08946 -20.65784
v 34.81210 25.60586 -24.35789
v 45.66387 25.58952 -23.52485
v 41.30833 27.67585 -3.10600
v 49.60211 27.15117 -0.32162
v 49.28461 25.53909 3.21795
v 40.68163 25.58279 0.24956
v 57.22916 27.13614 -0.59731
v 59.28503 25.54614 2.69684
v 54.64983 23.74457 -17.67925
v 45.89270 23.13761 -20.03047
v 41.32975 23.76971 -2.64056
v 50.16146 23.68383 0.47187
v 21.60670 29.08739 -33.09078
v 24.35369 25.64275 -25.76258
v 23.60678 28.84641 -22.88229
v 42.73055 29.62737 -11.85499
v 51.35608 28.75575 -8.79298
v 53.50366 27.11015 -17.81976
v 55.57006 25.55872 -20.52451
v 2.77017 53.64940 -33.09888
v 2.15515 51.14524 -46.50790
v 11.93021 48.01156 -46.42903
v 12.71584 49.01099 -33.09216
v 19.96057 39.52518 -15.31895
v 25.27938 30.71324 -15.28258
v 26.21745 28.64178 -8.67189
v 21.46862 39.16312 1.46205
v 27.81771 25.77466 -6.61871
v 16.94058 38.59696 77.88184
v 18.55135 38.80529 60.86741
v 22.19287 27.66732 61.27708
v 20.85957 25.45869 67.15203
v 28.12263 26.80550 63.86073
v 30.97322 24.69322 55.99164
v 38.85521 24.61731 60.96517
v 35.48872 25.94396 67.99637
v 31.97135 24.27262 75.69331
v 26.14923 24.76187 68.58418
v 45.01408 24.72021 67.29634
v 47.51093 24.47323 73.50398
v 42.09267 25.28855 72.83038
v 45.23182 24.37652 78.00625
v 40.02402 24.26008 78.07088
v 39.28028 23.26851 80.11395
v 46.32083 23.25802 79.36168
v 45.33371 21.38388 77.40795
v 39.30285 21.37135 77.42056
v 19.94354 23.44533 69.96400
v 10.60911 18.93336 78.31210
v 15.80766 23.01865 77.94991
v 25.65306 23.29593 52.08492
v 23.66938 24.64863 54.00392
v 25.19835 23.16786 44.96921
v 24.62289 23.26061 70.38808
v 31.24251 23.15982 77.68396
v 39.28028 23.26851 80.11395
v 46.32083 23.25802 79.36168
v 43.99761 21.35350 67.48877
v 37.35846 21.40219 60.86653
v 32.02525 21.38596 75.02766
v 39.23964 23.25233 58.31621
v 46.38086 23.26648 65.72693
v 49.60330 23.25665 73.57220
v 15.95444 31.78509 -74.62185
v 13.82637 14.13811 -33.05563
v 34.60140 23.00065 -21.80086
v 58.97635 23.99790 -0.16702
v 60.40047 23.92301 -10.83749
v 40.68163 25.58279 0.24956
v 49.28461 25.53909 3.21795
v 0.00000 9.70101 -33.13284
v -0.00000 6.93821 -15.56472
v 14.76663 11.42646 -15.64709
v 46.96158 21.37974 73.76121
v 31.24251 23.15982 77.68396
v 0.00000 6.95246 2.46707
v 0.00000 8.14973 26.70244
v 12.02029 46.70948 77.99520
v 3.42474 54.71371 77.90457
v 24.40469 21.85867 -21.97124
v 31.09734 23.25209 53.89712
v 22.19287 27.66732 61.27708
v 23.66938 24.64863 54.00392
v 20.85957 25.45869 67.15203
v 19.94354 23.44533 69.96400
v 25.65306 23.29593 52.08492
v 24.62289 23.26061 70.38808
v 25.39008 21.47599 68.63752
v 12.14943 17.81165 -46.54639
v 13.82637 14.13811 -33.05563
v 21.60670 29.08739 -33.09078
v 19.68871 30.16294 -46.53574
v 20.03547 38.99519 45.06800
v 9.89822 31.76496 -90.45368
v -0.00001 27.35846 -84.04218
v 12.29320 31.73664 -83.47456
v -0.00001 27.35836 -84.04140
v 15.95444 31.78509 -74.62185
v -0.00000 26.13479 -74.48238
v 12.81490 34.09085 -83.37856
v -0.00000 39.32582 -83.31194
v -0.00000 39.39548 -73.31329
v 16.27265 34.11214 -74.72167
v 0.00001 10.01150 44.92867
v 13.10852 14.12062 44.93389
v 20.12373 22.05825 67.59342
v 11.83521 16.02975 61.43863
v 9.99214 34.06377 -90.43751
v -0.00000 38.98024 -90.41427
v 1.66946 34.01142 -104.33617
v -0.00000 35.48042 -102.60094
v -0.00000 37.07156 -98.82769
v 6.44122 34.03637 -98.80010
v 17.85879 39.34104 -33.07546
v 16.05390 39.62556 -46.40453
v 17.85879 39.34104 -33.07546
v 12.20298 22.11582 -63.07919
v -0.00000 18.46188 -62.92150
v 0.00000 13.51709 -46.57883
v 14.80020 39.87742 -61.37446
v 11.32624 46.72953 -61.08636
v 16.27265 34.11214 -74.72167
v 18.44258 32.22623 -63.26548
v 10.31717 46.58519 -67.36881
v 10.47159 46.16280 -73.12319
v 10.25649 45.04232 -77.44691
v 13.72789 50.00985 1.23695
v 13.51192 49.81245 26.68821
v 3.31401 57.16933 26.69018
v 3.42144 56.95592 1.26459
v 0.00001 17.01740 105.99618
v 6.92863 35.56173 -95.30450
v 4.78132 35.42712 -99.26679
v 5.49124 31.98865 -97.58723
v 4.52313 35.15604 -98.85069
v 2.12222 34.95805 -101.93783
v 2.84197 32.21840 -100.39184
v 7.75478 35.77288 -91.92330
v 6.37438 35.72494 -95.79288
v 7.50824 32.07886 -94.04790
v 9.83133 35.67110 -88.84475
v 7.96643 35.64203 -92.93746
v 8.44395 32.14089 -90.88863
v 11.00669 35.52811 -85.29813
v 9.67232 35.51057 -89.34126
v 9.83442 32.23635 -87.57618
v 12.70064 35.78111 -80.56547
v 10.90413 35.58035 -85.68996
v 11.09496 32.20886 -83.28493
v 13.72661 35.73733 -77.09739
v 12.15699 35.62425 -81.95071
v 12.82090 32.24389 -79.71436
v 12.33665 30.07209 -79.63876
v 14.23914 30.10131 -75.69830
v 14.34723 33.60838 -77.74819
v 10.90023 30.41504 -83.37923
v 12.62449 30.26114 -79.73353
v 12.17262 33.63358 -81.46981
v 9.83758 30.27295 -87.48341
v 11.22388 30.30779 -83.53049
v 10.94334 33.78048 -85.55389
v 8.89390 30.01021 -91.43816
v 9.66105 30.04870 -87.18636
v 9.63989 33.70190 -89.30811
v 7.58376 30.60158 -94.06857
v 8.95524 30.02750 -90.00623
v 8.47053 33.56318 -92.41189
v 6.11725 30.66003 -97.68043
v 8.02502 30.60557 -94.22877
v 6.68250 33.65328 -95.75779
v 2.97672 30.66063 -100.74970
v 6.32370 30.89289 -97.81939
v 4.49700 33.40070 -99.00558
v 2.60445 31.25985 -101.35120
v 1.12674 33.42951 -102.38625
v 0.69616 31.53307 -103.60043
v 12.43019 39.94962 105.98209
v 3.08659 50.36266 105.96901
v 19.94354 23.44533 69.96400
v 20.12373 22.05825 67.59342
v 29.45899 21.39417 56.77448
v 22.44949 21.69578 55.04002
v 22.44949 21.69578 55.04002
v 0.00001 12.53407 61.49493
v 0.00001 15.44653 78.40052
v 9.14594 42.77834 -83.47120
v -0.00000 46.25148 -77.67400
v -0.00000 44.45073 -83.50045
v 1.34442 48.57310 -61.08248
v 16.33344 26.96593 -63.13686
v 24.35369 25.64275 -25.76258
v 24.40469 21.85867 -21.97124
v 58.63601 27.16876 -11.73198
v 61.18365 25.53763 -12.90565
v 61.10172 27.15376 -5.85692
v 64.07570 25.53796 -4.91212
v 2.02526 24.50282 135.01605
v 0.00001 19.33906 135.03172
v 0.00001 21.25341 164.97644
v 1.78863 25.88037 164.97852
v 3.08659 50.36266 105.96901
v 2.44788 46.73694 135.00743
v 0.00000 52.87243 135.02266
v 0.00001 58.07106 105.98938
v 0.00001 17.01740 105.99618
v 2.05862 43.69674 164.97957
v 1.90684 41.95784 185.23541
v 0.00001 46.34397 185.23953
v 0.00001 48.78267 164.97661
v 1.70169 40.37423 201.80371
v 0.00001 44.04679 201.80070
v 3.42474 54.71371 77.90457
v 3.08659 50.36266 105.96901
v 0.00001 58.07106 105.98938
v 0.00000 63.30955 78.08266
v 1.45496 34.72633 217.04504
v 1.03400 32.22909 213.10452
v 0.00001 30.43472 215.84357
v 0.00001 34.72752 221.82861
v 3.31401 57.16933 26.69018
v 3.17939 56.43332 44.92821
v -0.00000 66.73860 44.93383
v -0.00000 67.20595 26.69019
v -0.00000 65.97353 1.26459
v 3.42144 56.95592 1.26459
v 3.32378 55.95040 60.89484
v 0.00000 66.02958 60.92173
v -0.00000 63.80709 -15.31005
v 3.21742 56.35325 -15.31005
v -0.00000 59.80639 -33.09595
v 2.77017 53.64940 -33.09888
v 1.24344 36.93115 213.45651
v 0.00001 38.92209 215.66269
v 59.28503 25.54614 2.69684
v 1.75806 27.46590 185.23846
v 1.62280 28.90222 201.78209
v 1.75806 27.46590 185.23846
v 0.00001 23.49987 185.22214
v 0.00001 25.58102 201.74956
v 1.62280 28.90222 201.78209
v 61.18365 25.53763 -12.90565
v 18.44258 32.22623 -63.26548
v 16.27265 34.11214 -74.72167
v -0.00000 39.39548 -73.31329
v -0.00000 35.35699 -57.73368
v 64.07570 25.53796 -4.91212
v 62.04794 23.96045 -5.32127
v 21.06638 38.96960 26.68671
v 26.00819 21.83653 -9.34148
v 18.44258 32.22623 -63.26548
v -0.00000 28.93864 -58.36954
v 1.09126 47.96094 -67.15940
v 0.85650 47.38222 -73.24441
v 6.44122 34.03637 -98.80010
v 9.99214 34.06377 -90.43751
v 12.81490 34.09085 -83.37856
v 14.62659 35.34198 -74.64381
v 14.20557 29.39148 -74.63592
v 16.76428 30.87840 -62.10534
v 16.37977 33.61620 -62.01488
v 6.31183 22.27205 105.99897
v 13.96619 36.15103 106.14657
v 2.77017 53.64940 -33.09888
v -0.00000 59.80639 -33.09595
v -0.00000 55.82725 -46.50789
v 2.15515 51.14524 -46.50790
v -0.00000 51.66850 -60.85958
v 1.34442 48.57310 -61.08248
v 1.03400 32.22909 213.10452
v 1.45496 34.72633 217.04504
v 1.24344 36.93115 213.45651
v 1.09126 47.96094 -67.15940
v -0.00000 50.02153 -66.74674
v -0.00000 48.07974 -73.16698
v 0.85650 47.38222 -73.24441
v -0.00000 46.25315 -77.66808
v 0.00001 17.01740 105.99618
v 0.00000 9.70101 -33.13284
v 12.81225 35.53009 -73.39310
v 13.61808 35.56798 -78.00997
v 14.28199 32.28284 -75.92670
v 1.92646 34.70367 -102.35056
v 0.25926 34.57667 -104.37005
v 1.06448 32.31289 -104.20222
v -0.00001 29.94807 -103.70028
v -0.00001 31.81867 -105.54072
v -0.00001 31.81867 -105.54072
v -0.00000 34.00956 -105.64516
v -0.00000 46.25315 -77.66808
v -0.00000 28.93864 -58.36954
v 1.34442 48.57310 -61.08248
v -0.00000 51.66850 -60.85958
v -7.83748 40.44102 -90.49491
v -4.36261 37.72960 -98.79910
v -6.27798 31.79331 -98.82351
v -1.42588 31.79903 -104.20226
v -13.15906 42.94250 -67.98779
v -12.90705 39.39837 -70.23066
v -13.22411 42.79872 -72.18880
v -14.56469 40.15217 -75.02425
v -15.81100 36.42614 -67.65900
v -15.41830 36.68514 -72.97559
v -14.92529 39.73388 -66.15267
v -6.00682 29.35245 -98.81617
v -1.33947 30.65509 -103.33274
v -1.42588 31.79903 -104.20226
v -6.27798 31.79331 -98.82351
v -9.89823 31.76496 -90.45368
v -12.29321 31.73664 -83.47456
v -10.67122 26.09116 -83.46748
v -9.16278 27.33878 -90.48519
v -12.68211 24.39596 -74.18656
v -1.23731 35.65324 -102.50278
v -1.66947 34.01142 -104.33617
v -9.00491 34.99030 164.97958
v -2.05860 43.69674 164.97957
v -1.90682 41.95784 185.23541
v -7.25485 34.89194 185.23737
v -2.44787 46.73694 135.00745
v -11.27039 36.12756 135.00943
v -12.43018 39.94963 105.98209
v -3.08658 50.36266 105.96901
v -6.31182 22.27204 105.99897
v -13.96618 36.15103 106.14657
v -2.02525 24.50282 135.01607
v -13.80311 49.96414 -15.28081
v -12.71585 49.01099 -33.09216
v -2.77017 53.64940 -33.09888
v -3.21742 56.35325 -15.31005
v -1.70166 40.37423 201.80371
v -5.84996 34.82488 201.78661
v -12.51985 48.94370 60.88977
v -13.16669 49.69005 44.92475
v -3.17939 56.43332 44.92821
v -3.32378 55.95040 60.89484
v -25.72430 21.18394 26.68088
v -15.02607 12.73414 26.70019
v -15.87074 11.79124 2.25735
v -26.70032 21.90889 2.19948
v -1.78861 25.88037 164.97852
v -13.00164 42.04262 -68.40006
v -14.56718 39.82712 -70.46835
v -13.04607 41.91287 -71.65371
v -13.90159 39.77112 -73.13667
v -14.62832 37.11231 -72.43833
v -14.67084 37.25249 -68.47916
v -14.19308 39.60295 -67.21769
v -25.27938 30.71324 -15.28258
v -34.13382 30.26906 -14.47697
v -34.59104 27.31142 -21.93887
v -23.60678 28.84641 -22.88230
v -26.21745 28.64178 -8.67189
v -33.90581 28.09360 -7.69777
v -27.81771 25.77466 -6.61872
v -26.00819 21.83652 -9.34148
v -33.96309 23.11585 -9.15352
v -33.78232 25.72207 -4.98381
v -27.81771 25.77466 -6.61872
v -33.78232 25.72207 -4.98381
v -44.95008 27.08945 -20.65784
v -45.66386 25.58951 -23.52484
v -34.81210 25.60586 -24.35790
v -41.30832 27.67585 -3.10600
v -40.68161 25.58278 0.24956
v -49.28460 25.53909 3.21795
v -49.60210 27.15116 -0.32162
v -59.28502 25.54613 2.69684
v -57.22915 27.13614 -0.59731
v -54.64982 23.74456 -17.67925
v -50.16145 23.68383 0.47187
v -41.32973 23.76971 -2.64056
v -45.89269 23.13761 -20.03047
v -21.60670 29.08739 -33.09078
v -23.60678 28.84641 -22.88230
v -24.35370 25.64275 -25.76259
v -51.35607 28.75574 -8.79298
v -42.73054 29.62737 -11.85499
v -53.50365 27.11014 -17.81976
v -55.57005 25.55872 -20.52451
v -11.93021 48.01155 -46.42903
v -2.15515 51.14524 -46.50790
v -2.77017 53.64940 -33.09888
v -12.71585 49.01099 -33.09216
v -19.96057 39.52517 -15.31895
v -21.46862 39.16311 1.46205
v -26.21745 28.64178 -8.67189
v -25.27938 30.71324 -15.28258
v -27.81771 25.77466 -6.61872
v -16.94057 38.59695 77.88184
v -20.85956 25.45868 67.15204
v -22.19286 27.66731 61.27708
v -18.55134 38.80528 60.86742
v -28.12263 26.80549 63.86074
v -35.48871 25.94396 67.99638
v -38.85519 24.61730 60.96518
v -30.97321 24.69322 55.99165
v -26.14922 24.76186 68.58419
v -31.97134 24.27261 75.69331
v -45.01405 24.72021 67.29635
v -42.09265 25.28855 72.83039
v -47.51090 24.47323 73.50399
v -40.02400 24.26007 78.07088
v -45.23180 24.37652 78.00626
v -39.28026 23.26850 80.11396
v -39.30283 21.37135 77.42056
v -45.33368 21.38388 77.40796
v -46.32080 23.25801 79.36169
v -19.94353 23.44532 69.96400
v -15.80765 23.01865 77.94991
v -10.60910 18.93336 78.31210
v -25.65305 23.29593 52.08492
v -25.19834 23.16786 44.96921
v -23.66937 24.64862 54.00392
v -24.62288 23.26060 70.38809
v -31.24250 23.15982 77.68396
v -39.28026 23.26850 80.11396
v -46.32080 23.25801 79.36169
v -43.99758 21.35349 67.48878
v -32.02524 21.38595 75.02766
v -37.35844 21.40218 60.86654
v -46.38084 23.26648 65.72694
v -39.23962 23.25232 58.31622
v -49.60327 23.25665 73.57222
v -15.95445 31.78510 -74.62185
v -13.82637 14.13810 -33.05562
v -34.60140 23.00064 -21.80087
v -60.40046 23.92300 -10.83749
v -58.97634 23.99789 -0.16702
v -40.68161 25.58278 0.24956
v -49.28460 25.53909 3.21795
v 0.00000 9.70101 -33.13284
v -14.76663 11.42645 -15.64709
v -0.00000 6.93821 -15.56472
v -46.96156 21.37974 73.76122
v -31.24250 23.15982 77.68396
v 0.00000 8.14973 26.70244
v 0.00000 6.95246 2.46707
v -3.42473 54.71371 77.90457
v -12.02028 46.70948 77.99520
v -24.40470 21.85866 -21.97124
v -31.09733 23.25209 53.89713
v -22.19286 27.66731 61.27708
v -23.66937 24.64862 54.00392
v -20.85956 25.45868 67.15204
v -19.94353 23.44532 69.96400
v -25.65305 23.29593 52.08492
v -24.62288 23.26060 70.38809
v -25.39007 21.47598 68.63753
v -12.14942 17.81165 -46.54639
v -19.68872 30.16294 -46.53573
v -21.60670 29.08739 -33.09078
v -13.82637 14.13810 -33.05562
v -20.03547 38.99518 45.06800
v -9.89823 31.76496 -90.45368
v -12.29321 31.73664 -83.47456
v -15.95445 31.78510 -74.62185
v -12.81490 34.09085 -83.37856
v -16.27265 34.11214 -74.72167
v -13.10851 14.12061 44.93389
v -11.83520 16.02974 61.43863
v -20.12372 22.05824 67.59343
v -9.99214 34.06377 -90.43751
v -1.66947 34.01142 -104.33617
v -6.44123 34.03637 -98.80010
v -16.05390 39.62556 -46.40453
v -17.85879 39.34104 -33.07545
v -17.85879 39.34104 -33.07545
v 0.00000 13.51709 -46.57883
v -12.20299 22.11583 -63.07919
v -11.32624 46.72953 -61.08636
v -14.80020 39.87742 -61.37446
v -18.44258 32.22623 -63.26548
v -16.27265 34.11214 -74.72167
v -10.47159 46.16280 -73.12319
v -10.31717 46.58519 -67.36881
v -10.25649 45.04232 -77.44691
v -13.72789 50.00985 1.23695
v -3.42144 56.95592 1.26459
v -3.31401 57.16933 26.69018
v -13.51192 49.81245 26.68821
v 0.00001 17.01740 105.99618
v -6.92864 35.56173 -95.30450
v -5.49125 31.98865 -97.58723
v -4.78132 35.42712 -99.26679
v -4.52313 35.15604 -98.85069
v -2.84197 32.21840 -100.39184
v -2.12222 34.95805 -101.93783
v -7.75478 35.77288 -91.92330
v -7.50824 32.07886 -94.04790
v -6.37438 35.72494 -95.79288
v -9.83133 35.67110 -88.84475
v -8.44396 32.14089 -90.88863
v -7.96643 35.64203 -92.93746
v -11.00669 35.52811 -85.29813
v -9.83442 32.23635 -87.57618
v -9.67233 35.51057 -89.34126
v -12.70064 35.78111 -80.56547
v -11.09496 32.20887 -83.28493
v -10.90413 35.58035 -85.68996
v -13.72661 35.73733 -77.09739
v -12.82090 32.24389 -79.71436
v -12.15700 35.62425 -81.95071
v -12.33666 30.07210 -79.63876
v -14.34724 33.60838 -77.74819
v -14.23914 30.10132 -75.69830
v -10.90024 30.41505 -83.37923
v -12.17263 33.63358 -81.46981
v -12.62449 30.26115 -79.73353
v -9.83759 30.27295 -87.48341
v -10.94335 33.78049 -85.55389
v -11.22389 30.30779 -83.53049
v -8.89391 30.01021 -91.43816
v -9.63990 33.70190 -89.30811
v -9.66106 30.04870 -87.18636
v -7.58378 30.60158 -94.06857
v -8.47054 33.56318 -92.41189
v -8.95525 30.02750 -90.00623
v -6.11726 30.66003 -97.68043
v -6.68251 33.65328 -95.75779
v -8.02503 30.60558 -94.22877
v -2.97674 30.66063 -100.74970
v -4.49701 33.40070 -99.00558
v -6.32371 30.89289 -97.81939
v -2.60447 31.25985 -101.35120
v -0.69618 31.53307 -103.60043
v -1.12675 33.42952 -102.38625
v -3.08658 50.36266 105.96901
v -12.43018 39.94963 105.98209
v -19.94353 23.44532 69.96400
v -20.12372 22.05824 67.59343
v -29.45898 21.39417 56.77448
v -22.44948 21.69577 55.04003
v -22.44948 21.69577 55.04003
v -9.14594 42.77834 -83.47120
v -1.34442 48.57310 -61.08248
v -16.33344 26.96593 -63.13686
v -24.35370 25.64275 -25.76259
v -24.40470 21.85866 -21.97124
v -58.63601 27.16875 -11.73198
v -61.18364 25.53763 -12.90565
v -64.07568 25.53795 -4.91212
v -61.10171 27.15375 -5.85692
v -2.02525 24.50282 135.01607
v -1.78861 25.88037 164.97852
v 0.00001 21.25341 164.97644
v 0.00001 19.33906 135.03172
v -3.08658 50.36266 105.96901
v 0.00001 58.07106 105.98938
v 0.00000 52.87243 135.02266
v -2.44787 46.73694 135.00745
v 0.00001 17.01740 105.99618
v -2.05860 43.69674 164.97957
v 0.00001 48.78267 164.97661
v 0.00001 46.34397 185.23953
v -1.90682 41.95784 185.23541
v 0.00001 44.04679 201.80070
v -1.70166 40.37423 201.80371
v -3.42473 54.71371 77.90457
v 0.00000 63.30955 78.08266
v 0.00001 58.07106 105.98938
v -3.08658 50.36266 105.96901
v -1.45494 34.72633 217.04504
v 0.00001 34.72752 221.82861
v 0.00001 30.43472 215.84357
v -1.03398 32.22909 213.10452
v -3.31401 57.16933 26.69018
v -0.00000 67.20595 26.69019
v -3.17939 56.43332 44.92821
v -3.42144 56.95592 1.26459
v -0.00000 65.97353 1.26459
v -3.32378 55.95040 60.89484
v -3.21742 56.35325 -15.31005
v -0.00000 63.80709 -15.31005
v -2.77017 53.64940 -33.09888
v -0.00000 59.80639 -33.09595
v -1.24342 36.93115 213.45651
v 0.00001 38.92209 215.66269
v -59.28502 25.54613 2.69684
v -1.62278 28.90222 201.78209
v -1.75804 27.46590 185.23846
v -1.75804 27.46590 185.23846
v -1.62278 28.90222 201.78209
v 0.00001 25.58102 201.74956
v 0.00001 23.49987 185.22214
v -61.18364 25.53763 -12.90565
v -18.44258 32.22623 -63.26548
v -16.27265 34.11214 -74.72167
v -64.07568 25.53795 -4.91212
v -62.04792 23.96044 -5.32127
v -21.06637 38.96960 26.68671
v -26.00819 21.83652 -9.34148
v -18.44258 32.22623 -63.26548
v -0.85650 47.38222 -73.24441
v -1.09126 47.96094 -67.15940
v -6.44123 34.03637 -98.80010
v -9.99214 34.06377 -90.43751
v -12.81490 34.09085 -83.37856
v -14.62659 35.34198 -74.64381
v -16.37977 33.61620 -62.01488
v -16.76429 30.87841 -62.10534
v -14.20558 29.39149 -74.63592
v -13.96618 36.15103 106.14657
v -6.31182 22.27204 105.99897
v -2.77017 53.64940 -33.09888
v -2.15515 51.14524 -46.50790
v -0.00000 55.82725 -46.50789
v -0.00000 59.80639 -33.09595
v -1.34442 48.57310 -61.08248
v -1.03398 32.22909 213.10452
v -1.45494 34.72633 217.04504
v -1.24342 36.93115 213.45651
v -1.09126 47.96094 -67.15940
v -0.85650 47.38222 -73.24441
v 0.00001 17.01740 105.99618
v 0.00000 9.70101 -33.13284
v -12.81225 35.53009 -73.39310
v -14.28199 32.28284 -75.92670
v -13.61809 35.56798 -78.00997
v -1.92646 34.70367 -102.35056
v -1.06449 32.31289 -104.20222
v -0.25926 34.57667 -104.37005
v -1.34442 48.57310 -61.08248
vt 0.582786 0.550572
vt 0.527156 0.524893
vt 0.541167 0.501446
vt 0.603930 0.510167
vt 0.915631 0.792712
vt 0.894097 0.782414
vt 0.894107 0.782404
vt 0.911498 0.771981
vt 0.755850 0.516413
vt 0.731508 0.511600
vt 0.744809 0.493598
vt 0.717673 0.491766
vt 0.761837 0.471547
vt 0.731562 0.470276
vt 0.769303 0.494096
vt 0.595330 0.402393
vt 0.594654 0.417064
vt 0.553996 0.411188
vt 0.559032 0.403774
vt 0.640099 0.417422
vt 0.639672 0.393365
vt 0.684397 0.387136
vt 0.685020 0.418497
vt 0.575216 0.373195
vt 0.621050 0.342801
vt 0.664358 0.323499
vt 0.722380 0.305039
vt 0.739165 0.380030
vt 0.505738 0.500090
vt 0.496716 0.506806
vt 0.480097 0.494452
vt 0.493414 0.489678
vt 0.464591 0.109759
vt 0.352970 0.097709
vt 0.356442 0.053362
vt 0.467145 0.054115
vt 0.630057 0.054370
vt 0.777977 0.044281
vt 0.788738 0.099707
vt 0.619200 0.118774
vt 0.769515 0.222270
vt 0.615497 0.200584
vt 0.786133 0.120364
vt 0.099810 0.864112
vt 0.101312 0.933374
vt 0.027531 0.931534
vt 0.026622 0.866302
vt 0.266115 0.088949
vt 0.266127 0.056486
vt 0.523050 0.848563
vt 0.529234 0.913230
vt 0.442096 0.921931
vt 0.437178 0.854313
vt 0.330298 0.683280
vt 0.196635 0.691408
vt 0.193307 0.607540
vt 0.331537 0.604801
vt 0.453944 0.165566
vt 0.857910 0.084829
vt 0.939487 0.081909
vt 0.906361 0.152150
vt 0.980686 0.138499
vt 0.963871 0.212666
vt 0.870715 0.217147
vt 0.834282 0.157608
vt 0.210725 0.168786
vt 0.167877 0.147637
vt 0.161365 0.231327
vt 0.205775 0.237337
vt 0.248621 0.187735
vt 0.245075 0.247923
vt 0.024971 0.211951
vt 0.029650 0.255526
vt 0.061125 0.247882
vt 0.052302 0.187977
vt 0.266704 0.204096
vt 0.266345 0.252211
vt 0.160205 0.310572
vt 0.152803 0.230935
vt 0.152554 0.312662
vt 0.259211 0.312263
vt 0.263045 0.380240
vt 0.285455 0.385213
vt 0.282318 0.314282
vt 0.249933 0.434243
vt 0.266733 0.458695
vt 0.141448 0.387363
vt 0.139000 0.319080
vt 0.036700 0.316612
vt 0.033620 0.390454
vt 0.021773 0.730241
vt 0.045341 0.715339
vt 0.057121 0.732016
vt 0.209985 0.306578
vt 0.214343 0.377178
vt 0.162794 0.377488
vt 0.154284 0.388301
vt 0.963056 0.640670
vt 0.874643 0.623650
vt 0.881626 0.559925
vt 0.968541 0.572396
vt 0.097456 0.795218
vt 0.099838 0.737635
vt 0.135485 0.725598
vt 0.192257 0.789452
vt 0.146501 0.711966
vt 0.613061 0.781101
vt 0.517933 0.783053
vt 0.515169 0.719425
vt 0.546594 0.707687
vt 0.474043 0.430147
vt 0.434337 0.444702
vt 0.436114 0.373810
vt 0.468490 0.360252
vt 0.513163 0.343840
vt 0.508145 0.421227
vt 0.439661 0.307312
vt 0.450632 0.259752
vt 0.469351 0.293345
vt 0.477960 0.250086
vt 0.497970 0.278712
vt 0.329486 0.242000
vt 0.380865 0.197292
vt 0.381237 0.223500
vt 0.347698 0.260214
vt 0.566031 0.701554
vt 0.619286 0.655043
vt 0.609126 0.693496
vt 0.469281 0.687478
vt 0.480777 0.706358
vt 0.429144 0.689379
vt 0.521457 0.412634
vt 0.525817 0.336074
vt 0.510320 0.271361
vt 0.479693 0.232117
vt 0.413660 0.303827
vt 0.408900 0.376699
vt 0.322183 0.320508
vt 0.421204 0.379660
vt 0.429452 0.305988
vt 0.433362 0.245039
vt 0.736862 0.427458
vt 0.023966 0.631228
vt 0.137630 0.232976
vt 0.052128 0.454868
vt 0.114934 0.445333
vt 0.015183 0.318514
vt 0.012536 0.392005
vt 0.012653 0.540482
vt 0.086610 0.524936
vt 0.093541 0.612425
vt 0.412098 0.247738
vt 0.303927 0.305242
vt 0.191025 0.512914
vt 0.335648 0.515430
vt 0.618467 0.835702
vt 0.624421 0.896616
vt 0.066612 0.696497
vt 0.415363 0.449904
vt 0.480616 0.479926
vt 0.437880 0.499677
vt 0.517726 0.464322
vt 0.536609 0.458287
vt 0.412568 0.498910
vt 0.303549 0.389858
vt 0.318622 0.397955
vt 0.891677 0.350097
vt 0.974019 0.339838
vt 0.975109 0.436155
vt 0.890023 0.439239
vt 0.433251 0.783159
vt 0.915262 0.826903
vt 0.866579 0.830634
vt 0.913018 0.854553
vt 0.866577 0.830637
vt 0.908232 0.887922
vt 0.848110 0.871283
vt 0.920157 0.901586
vt 0.987843 0.888951
vt 0.994800 0.942964
vt 0.922050 0.951874
vt 0.444840 0.525673
vt 0.435862 0.603312
vt 0.543635 0.686584
vt 0.525555 0.620426
vt 0.928013 0.860517
vt 0.982512 0.850611
vt 0.955280 0.775530
vt 0.966944 0.783535
vt 0.972918 0.804801
vt 0.938102 0.811503
vt 0.972528 0.506322
vt 0.884533 0.501481
vt 0.024413 0.796888
vt 0.793584 0.362733
vt 0.788559 0.285305
vt 0.885292 0.270673
vt 0.795783 0.498092
vt 0.794007 0.548527
vt 0.713508 0.455913
vt 0.791400 0.442018
vt 0.756094 0.543842
vt 0.726134 0.537120
vt 0.697723 0.528467
vt 0.193568 0.863843
vt 0.335557 0.859464
vt 0.339671 0.931145
vt 0.196317 0.933323
vt 0.759029 0.263758
vt 0.557605 0.334770
vt 0.553363 0.243035
vt 0.678034 0.279962
vt 0.557605 0.334770
vt 0.553363 0.243035
vt 0.678034 0.279962
vt 0.557605 0.334770
vt 0.553363 0.243035
vt 0.678034 0.279962
vt 0.557605 0.334770
vt 0.553363 0.243035
vt 0.678034 0.279962
vt 0.557605 0.334770
vt 0.553363 0.243035
vt 0.678034 0.279962
vt 0.557605 0.334770
vt 0.553363 0.243035
vt 0.678034 0.279962
vt 0.557605 0.334770
vt 0.553363 0.243035
vt 0.678034 0.279962
vt 0.557605 0.334770
vt 0.553363 0.243035
vt 0.678034 0.279962
vt 0.557605 0.334770
vt 0.553363 0.243035
vt 0.678034 0.279962
vt 0.557605 0.334770
vt 0.553363 0.243035
vt 0.678034 0.279962
vt 0.557605 0.334770
vt 0.553363 0.243035
vt 0.678034 0.279962
vt 0.557605 0.334770
vt 0.553363 0.243035
vt 0.678034 0.279962
vt 0.557605 0.334770
vt 0.553363 0.243035
vt 0.678034 0.279962
vt 0.557605 0.334770
vt 0.553363 0.243035
vt 0.678034 0.279962
vt 0.553363 0.243035
vt 0.678034 0.279962
vt 0.557598 0.334985
vt 0.766840 0.800960
vt 0.760424 0.876230
vt 0.291507 0.437404
vt 0.308590 0.447456
vt 0.395702 0.445446
vt 0.374272 0.493591
vt 0.479115 0.674595
vt 0.542511 0.552729
vt 0.638493 0.593612
vt 0.654571 0.517907
vt 0.674740 0.584901
vt 0.632185 0.569505
vt 0.782096 0.606973
vt 0.796221 0.402740
vt 0.147198 0.165093
vt 0.130515 0.152993
vt 0.188158 0.426207
vt 0.176888 0.445765
vt 0.217695 0.452372
vt 0.217858 0.479213
vt 0.615497 0.200584
vt 0.608860 0.227506
vt 0.447942 0.190056
vt 0.453944 0.165566
vt 0.777977 0.044281
vt 0.630057 0.054370
vt 0.632138 0.011626
vt 0.776839 0.002362
vt 0.759029 0.263758
vt 0.467145 0.054115
vt 0.356442 0.053362
vt 0.357911 0.018776
vt 0.468812 0.017131
vt 0.266127 0.056486
vt 0.268394 0.021833
vt 0.624421 0.896616
vt 0.760424 0.876230
vt 0.775760 0.919648
vt 0.629951 0.947439
vt 0.183637 0.076720
vt 0.200126 0.094939
vt 0.182101 0.099871
vt 0.155580 0.073818
vt 0.339671 0.931145
vt 0.442096 0.921931
vt 0.447061 0.982814
vt 0.342585 0.992196
vt 0.197678 0.988233
vt 0.196317 0.933323
vt 0.529234 0.913230
vt 0.534575 0.973015
vt 0.104004 0.979937
vt 0.101312 0.933374
vt 0.030614 0.975222
vt 0.027531 0.931534
vt 0.202107 0.064875
vt 0.190906 0.037922
vt 0.032908 0.467253
vt 0.345784 0.141277
vt 0.258347 0.122020
vt 0.345784 0.141277
vt 0.341910 0.162542
vt 0.254221 0.139920
vt 0.258347 0.122020
vt 0.136184 0.455125
vt 0.902897 0.927630
vt 0.917401 0.980104
vt 0.842861 0.983138
vt 0.835610 0.939892
vt 0.087144 0.490716
vt 0.084989 0.469735
vt 0.331672 0.785950
vt 0.135022 0.692311
vt 0.902897 0.927630
vt 0.835165 0.915714
vt 0.744551 0.598366
vt 0.711457 0.589376
vt 0.541525 0.476881
vt 0.603699 0.468874
vt 0.655813 0.462784
vt 0.851905 0.752044
vt 0.849849 0.667842
vt 0.978714 0.703513
vt 0.978667 0.744335
vt 0.771519 0.686320
vt 0.765965 0.776839
vt 0.963056 0.640670
vt 0.959832 0.680818
vt 0.870427 0.658313
vt 0.874643 0.623650
vt 0.778836 0.626874
vt 0.782096 0.606973
vt 0.200126 0.094939
vt 0.183637 0.076720
vt 0.202107 0.064875
vt 0.744551 0.598366
vt 0.742159 0.612666
vt 0.709157 0.599460
vt 0.711457 0.589376
vt 0.674787 0.584914
vt 0.779712 0.647535
vt 0.962777 0.253727
vt 0.557605 0.334770
vt 0.553363 0.243035
vt 0.678034 0.279962
vt 0.557605 0.334770
vt 0.553363 0.243035
vt 0.678034 0.279962
vt 0.552470 0.397309
vt 0.543154 0.409560
vt 0.904834 0.759928
vt 0.961726 0.766095
vt 0.674787 0.584914
vt 0.835165 0.915714
vt 0.782096 0.606973
vt 0.778836 0.626874
vt 0.603930 0.510167
vt 0.541167 0.501446
vt 0.915631 0.792712
vt 0.911498 0.771981
vt 0.755850 0.516413
vt 0.744809 0.493598
vt 0.731508 0.511600
vt 0.717673 0.491766
vt 0.761837 0.471547
vt 0.731562 0.470276
vt 0.769303 0.494096
vt 0.595330 0.402393
vt 0.559032 0.403774
vt 0.553996 0.411188
vt 0.594654 0.417064
vt 0.640099 0.417422
vt 0.685020 0.418497
vt 0.684397 0.387136
vt 0.639672 0.393365
vt 0.739165 0.380030
vt 0.505738 0.500090
vt 0.493414 0.489678
vt 0.464229 0.109433
vt 0.467424 0.054696
vt 0.356565 0.053227
vt 0.352913 0.097901
vt 0.629384 0.054952
vt 0.618835 0.119385
vt 0.788804 0.099905
vt 0.777578 0.044476
vt 0.769515 0.222108
vt 0.786414 0.121555
vt 0.615633 0.200590
vt 0.099812 0.864027
vt 0.026604 0.865699
vt 0.027604 0.932328
vt 0.101326 0.933483
vt 0.266194 0.056982
vt 0.265881 0.088828
vt 0.523050 0.848563
vt 0.437178 0.854313
vt 0.442096 0.921931
vt 0.529234 0.913230
vt 0.330318 0.683396
vt 0.331536 0.604889
vt 0.193312 0.607501
vt 0.196688 0.691304
vt 0.453613 0.165528
vt 0.857910 0.084829
vt 0.906361 0.152150
vt 0.939487 0.081909
vt 0.980686 0.138499
vt 0.963871 0.212666
vt 0.870715 0.217147
vt 0.834282 0.157608
vt 0.210702 0.168563
vt 0.205761 0.237492
vt 0.161540 0.231324
vt 0.168396 0.145431
vt 0.248292 0.187505
vt 0.245144 0.247499
vt 0.025166 0.211213
vt 0.052396 0.187425
vt 0.061144 0.248739
vt 0.029409 0.255802
vt 0.266167 0.205174
vt 0.265211 0.251863
vt 0.160193 0.310613
vt 0.152682 0.312256
vt 0.151624 0.231299
vt 0.259226 0.312352
vt 0.282588 0.314908
vt 0.285439 0.386160
vt 0.263091 0.380282
vt 0.266696 0.457615
vt 0.249901 0.434594
vt 0.141636 0.387164
vt 0.033427 0.389987
vt 0.036923 0.316371
vt 0.138908 0.318892
vt 0.022185 0.728864
vt 0.056669 0.731778
vt 0.044935 0.714858
vt 0.214347 0.377164
vt 0.209994 0.306611
vt 0.162929 0.377601
vt 0.154630 0.387925
vt 0.881648 0.559897
vt 0.874661 0.623564
vt 0.963122 0.639128
vt 0.968485 0.572974
vt 0.097460 0.795300
vt 0.192206 0.789512
vt 0.125381 0.736539
vt 0.100271 0.737658
vt 0.146585 0.711464
vt 0.613061 0.781101
vt 0.545567 0.707697
vt 0.514796 0.719448
vt 0.517933 0.783053
vt 0.473943 0.429948
vt 0.468494 0.360089
vt 0.436167 0.373435
vt 0.433087 0.444687
vt 0.506914 0.421299
vt 0.513113 0.343973
vt 0.439759 0.306957
vt 0.469443 0.293158
vt 0.449334 0.260016
vt 0.498312 0.278580
vt 0.476495 0.249971
vt 0.329904 0.242314
vt 0.347431 0.260044
vt 0.381963 0.223731
vt 0.378015 0.197519
vt 0.565258 0.701739
vt 0.609126 0.693496
vt 0.619286 0.655043
vt 0.469116 0.687867
vt 0.429448 0.689310
vt 0.480101 0.706426
vt 0.524597 0.414511
vt 0.525189 0.335406
vt 0.509289 0.271420
vt 0.482970 0.233122
vt 0.413806 0.303297
vt 0.321530 0.320334
vt 0.409585 0.376342
vt 0.429456 0.307572
vt 0.421204 0.380859
vt 0.433066 0.244325
vt 0.736862 0.427458
vt 0.023515 0.630137
vt 0.137974 0.233083
vt 0.115407 0.445200
vt 0.051276 0.454859
vt 0.016335 0.318368
vt 0.012406 0.391413
vt 0.012565 0.539619
vt 0.093534 0.612342
vt 0.086615 0.525185
vt 0.411754 0.247345
vt 0.305315 0.305146
vt 0.335670 0.514942
vt 0.191038 0.513361
vt 0.624325 0.896626
vt 0.618446 0.835705
vt 0.066799 0.696398
vt 0.415099 0.450451
vt 0.480596 0.480367
vt 0.438759 0.499880
vt 0.517825 0.464443
vt 0.535341 0.455739
vt 0.413174 0.494787
vt 0.302738 0.392411
vt 0.319577 0.397097
vt 0.891644 0.349566
vt 0.889964 0.438367
vt 0.975067 0.436992
vt 0.974131 0.341471
vt 0.433251 0.783159
vt 0.915262 0.826903
vt 0.913018 0.854553
vt 0.908232 0.887922
vt 0.920157 0.901586
vt 0.922050 0.951874
vt 0.435862 0.603312
vt 0.525555 0.620426
vt 0.544808 0.684753
vt 0.928013 0.860517
vt 0.955280 0.775530
vt 0.938102 0.811503
vt 0.884414 0.501333
vt 0.972505 0.506461
vt 0.024384 0.796194
vt 0.885373 0.271885
vt 0.793584 0.362733
vt 0.794007 0.548527
vt 0.795783 0.498092
vt 0.791400 0.442018
vt 0.713508 0.455913
vt 0.726134 0.537120
vt 0.756094 0.543842
vt 0.697723 0.528467
vt 0.193567 0.863838
vt 0.196321 0.933428
vt 0.339630 0.931194
vt 0.335557 0.859471
vt 0.759005 0.263606
vt 0.557605 0.334770
vt 0.678034 0.279962
vt 0.553363 0.243035
vt 0.557605 0.334770
vt 0.678034 0.279962
vt 0.553363 0.243035
vt 0.557605 0.334770
vt 0.678034 0.279962
vt 0.553363 0.243035
vt 0.557605 0.334770
vt 0.678034 0.279962
vt 0.553363 0.243035
vt 0.557605 0.334770
vt 0.678034 0.279962
vt 0.553363 0.243035
vt 0.557605 0.334770
vt 0.678034 0.279962
vt 0.553363 0.243035
vt 0.557605 0.334770
vt 0.678034 0.279962
vt 0.553363 0.243035
vt 0.557605 0.334770
vt 0.678034 0.279962
vt 0.553363 0.243035
vt 0.557605 0.334770
vt 0.678034 0.279962
vt 0.553363 0.243035
vt 0.557605 0.334770
vt 0.678034 0.279962
vt 0.553363 0.243035
vt 0.557605 0.334770
vt 0.678034 0.279962
vt 0.553363 0.243035
vt 0.557605 0.334770
vt 0.678034 0.279962
vt 0.553363 0.243035
vt 0.557605 0.334770
vt 0.678034 0.279962
vt 0.553363 0.243035
vt 0.557605 0.334770
vt 0.678034 0.279962
vt 0.553363 0.243035
vt 0.553363 0.243035
vt 0.557598 0.334985
vt 0.678034 0.279962
vt 0.760360 0.876387
vt 0.766903 0.801063
vt 0.291783 0.432732
vt 0.308304 0.449475
vt 0.396754 0.445865
vt 0.373562 0.494339
vt 0.478132 0.674610
vt 0.654571 0.517907
vt 0.782096 0.606973
vt 0.796221 0.402740
vt 0.146726 0.163321
vt 0.130469 0.155749
vt 0.188377 0.426203
vt 0.176642 0.445095
vt 0.218888 0.479161
vt 0.217395 0.452614
vt 0.615633 0.200590
vt 0.453613 0.165528
vt 0.447892 0.190350
vt 0.608728 0.227431
vt 0.777578 0.044476
vt 0.776942 0.002031
vt 0.631548 0.010943
vt 0.629384 0.054952
vt 0.759005 0.263606
vt 0.467424 0.054696
vt 0.468460 0.016449
vt 0.357864 0.018585
vt 0.356565 0.053227
vt 0.268599 0.021690
vt 0.266194 0.056982
vt 0.624325 0.896626
vt 0.630058 0.947436
vt 0.774567 0.920844
vt 0.760360 0.876387
vt 0.183480 0.076762
vt 0.155632 0.073530
vt 0.182003 0.099822
vt 0.199865 0.094830
vt 0.339630 0.931194
vt 0.342697 0.991856
vt 0.442096 0.921931
vt 0.196321 0.933428
vt 0.197674 0.988156
vt 0.529234 0.913230
vt 0.101326 0.933483
vt 0.103964 0.979716
vt 0.027604 0.932328
vt 0.030379 0.972267
vt 0.202361 0.064831
vt 0.190966 0.038349
vt 0.033124 0.468329
vt 0.258395 0.121732
vt 0.346050 0.141300
vt 0.346050 0.141300
vt 0.258395 0.121732
vt 0.254020 0.140203
vt 0.341844 0.162621
vt 0.136103 0.458239
vt 0.902897 0.927630
vt 0.917401 0.980104
vt 0.086635 0.492777
vt 0.085722 0.468912
vt 0.331676 0.785987
vt 0.134696 0.692134
vt 0.902897 0.927630
vt 0.711457 0.589376
vt 0.744551 0.598366
vt 0.541525 0.476881
vt 0.603699 0.468874
vt 0.655813 0.462784
vt 0.851905 0.752044
vt 0.978667 0.744335
vt 0.978714 0.703513
vt 0.849849 0.667842
vt 0.765763 0.773839
vt 0.771029 0.686335
vt 0.963122 0.639128
vt 0.874661 0.623564
vt 0.870513 0.657953
vt 0.959794 0.683379
vt 0.782096 0.606973
vt 0.199865 0.094830
vt 0.183480 0.076762
vt 0.202361 0.064831
vt 0.744551 0.598366
vt 0.711457 0.589376
vt 0.778652 0.647245
vt 0.962742 0.253314
vt 0.557605 0.334770
vt 0.678034 0.279962
vt 0.553363 0.243035
vt 0.557605 0.334770
vt 0.678034 0.279962
vt 0.553363 0.243035
vt 0.782096 0.606973
vn 0.00000 0.93650 -0.35066
vn 0.00000 0.87220 -0.48914
vn 0.44080 0.72024 -0.53567
vn 0.58046 0.70893 -0.40060
vn -0.16836 0.97741 0.12779
vn -0.00000 0.98855 0.15090
vn 0.00000 0.98738 0.15836
vn -0.15346 0.97553 0.15742
vn 0.91120 0.39186 -0.12712
vn 0.89964 0.43653 -0.00964
vn 0.94567 0.32337 -0.03388
vn 0.92042 0.38166 -0.08470
vn 0.87306 0.47302 -0.11843
vn 0.88407 0.46455 0.05119
vn 0.91016 0.37283 -0.18060
vn 0.61257 -0.59703 -0.51798
vn 0.83735 -0.09464 -0.53841
vn 0.58297 -0.45569 -0.67267
vn 0.43873 -0.70398 -0.55850
vn 0.92787 -0.16860 -0.33261
vn 0.57979 -0.74612 -0.32734
vn 0.70250 -0.64399 -0.30294
vn 0.90330 -0.25995 -0.34128
vn -0.00000 -0.92353 -0.38352
vn -0.00000 -0.96233 -0.27187
vn -0.00000 -0.97092 -0.23942
vn -0.00000 -0.97369 -0.22789
vn 0.64726 -0.73229 -0.21168
vn 0.57317 0.62912 -0.52505
vn 0.00000 0.79767 -0.60310
vn 0.00000 0.66250 -0.74906
vn 0.59028 0.62728 -0.50802
vn 0.99716 0.00435 0.07514
vn 0.99652 0.00704 0.08302
vn 0.79045 0.60894 0.06611
vn 0.77998 0.62229 0.06626
vn 0.76283 0.63999 0.09222
vn 0.71822 0.68484 0.12310
vn 0.82825 0.55011 0.10665
vn 0.99337 -0.01408 0.11414
vn 0.73849 -0.65073 0.17658
vn 0.74690 -0.65791 0.09640
vn 0.98951 0.04494 0.13730
vn 0.66887 0.74108 -0.05844
vn 0.51484 0.85259 -0.08969
vn 0.41565 0.90094 -0.12468
vn 0.72587 0.68155 -0.09270
vn 0.97829 0.00103 0.20725
vn 0.79466 0.59624 0.11410
vn 0.72913 0.68070 0.07083
vn 0.60566 0.79489 0.03637
vn 0.57486 0.81731 0.03916
vn 0.72175 0.69053 0.04745
vn 0.90595 -0.42061 0.04844
vn 0.98385 -0.16513 0.06904
vn 0.48802 -0.87257 0.02144
vn 0.45919 -0.88388 0.08890
vn 0.78317 -0.62038 0.04222
vn 0.84097 0.53768 0.06060
vn 0.83293 0.54081 -0.11724
vn 0.94234 0.33228 -0.03986
vn 0.90812 0.34735 -0.23381
vn 0.98511 0.11495 -0.12784
vn 0.99501 0.08293 0.05550
vn 0.93992 0.31570 0.12994
vn 0.44440 0.88528 -0.13707
vn 0.65129 0.65826 -0.37750
vn 0.12040 0.90845 -0.40028
vn 0.03163 0.99698 0.07092
vn 0.57378 0.75082 0.32718
vn -0.14101 0.81619 0.56031
vn 0.38252 0.03673 0.92322
vn -0.44010 0.21160 0.87266
vn -0.08644 -0.92972 0.35798
vn 0.51483 -0.84874 0.12084
vn 0.38252 0.03673 0.92322
vn -0.44010 0.21160 0.87266
vn 0.08101 0.91333 -0.39908
vn 0.14374 0.22007 -0.96484
vn 0.19111 0.38995 -0.90079
vn -0.13054 0.91951 0.37075
vn -0.00656 0.94496 0.32713
vn -0.14320 0.38233 0.91286
vn -0.42576 -0.44671 0.78688
vn 0.18253 0.95110 0.24920
vn 0.38874 0.09852 0.91606
vn 0.21963 -0.95266 -0.21023
vn 0.09624 -0.93615 -0.33817
vn -0.08571 -0.97274 0.21550
vn -0.03145 -0.95186 0.30492
vn 0.96805 -0.05946 -0.24359
vn 0.62421 -0.27187 -0.73242
vn 0.65129 0.65826 -0.37750
vn 0.08386 0.99153 -0.09919
vn 0.09415 0.99436 0.04878
vn 0.16448 0.94565 -0.28051
vn 0.57515 0.07063 -0.81500
vn 0.41565 0.90094 -0.12468
vn 0.26215 0.95246 -0.15524
vn 0.66199 0.74041 -0.11649
vn 0.72587 0.68155 -0.09270
vn 0.87121 0.48061 -0.10002
vn 0.44440 0.88528 -0.13707
vn 0.57378 0.75082 0.32718
vn 0.88883 0.45819 0.00687
vn 0.38252 0.03673 0.92322
vn 0.94782 0.26745 0.17352
vn 0.90553 0.41656 0.08058
vn 0.57568 0.81024 0.11002
vn 0.68572 0.51143 0.51790
vn 0.03872 0.99694 0.06796
vn 0.19161 0.89861 -0.39470
vn 0.21805 0.94338 -0.24999
vn 0.07427 0.99686 0.02741
vn -0.17598 0.93502 0.30786
vn -0.12546 0.88800 0.44240
vn 0.33139 0.92180 -0.20116
vn 0.32664 0.94422 0.04185
vn 0.05045 0.99388 0.09823
vn 0.19858 0.92571 0.32192
vn -0.05057 0.95259 0.30004
vn -0.07701 0.29158 0.95344
vn 0.54759 0.07960 0.83295
vn 0.23112 -0.91239 0.33782
vn -0.06867 -0.93523 0.34733
vn 0.43426 -0.26666 0.86041
vn 0.52893 -0.82062 0.21637
vn 0.88577 -0.34332 0.31233
vn 0.60150 -0.05753 -0.79680
vn 0.70499 0.69834 -0.12377
vn 0.96198 -0.26558 0.06372
vn -0.52454 0.07556 0.84802
vn -0.47980 -0.25863 0.83839
vn -0.07701 0.29158 0.95344
vn 0.54759 0.07960 0.83295
vn 0.15253 -0.98246 -0.10726
vn 0.17852 -0.95394 -0.24108
vn -0.20081 -0.94729 0.24962
vn 0.54722 0.45060 -0.70534
vn 0.74148 -0.45978 -0.48869
vn 0.95722 0.25757 0.13187
vn 0.89698 -0.36086 -0.25536
vn 0.61346 -0.72754 -0.30718
vn 0.10523 -0.91894 -0.38011
vn 0.25292 -0.93551 0.24668
vn 0.33969 -0.92905 -0.14656
vn -0.42576 -0.44671 0.78688
vn -0.14320 0.38233 0.91286
vn 0.00000 -0.97981 -0.19992
vn 0.00000 -0.99699 -0.07757
vn 0.50551 -0.85921 -0.07882
vn 0.42943 -0.90153 -0.05318
vn -0.47980 -0.25863 0.83839
vn 0.00000 -0.99985 0.01724
vn 0.00000 -0.99777 0.06670
vn 0.79569 0.59446 0.11614
vn 0.65343 0.75078 0.09675
vn 0.52671 -0.79066 -0.31213
vn 0.38501 -0.34758 -0.85496
vn 0.57568 0.81024 0.11002
vn 0.70499 0.69834 -0.12377
vn 0.68572 0.51143 0.51790
vn 0.43426 -0.26666 0.86041
vn 0.60150 -0.05753 -0.79680
vn -0.52454 0.07556 0.84802
vn -0.15941 -0.94200 0.29534
vn 0.64007 -0.73717 -0.21653
vn 0.61346 -0.72754 -0.30718
vn 0.96805 -0.05946 -0.24359
vn 0.99194 -0.06383 -0.10946
vn 0.89933 0.43193 0.06818
vn -0.26308 0.95509 0.13632
vn -0.00000 0.98723 0.15929
vn -0.33598 0.93382 0.12289
vn -0.00000 0.99180 0.12782
vn -0.33200 0.93953 0.08398
vn 0.00000 0.99950 0.03176
vn -0.35038 -0.93192 0.09363
vn 0.00000 -0.99727 0.07387
vn 0.00000 -0.99769 0.06788
vn -0.29705 -0.94717 0.12098
vn 0.00000 -0.99275 0.12019
vn 0.43874 -0.89111 0.11587
vn 0.24434 -0.94481 0.21823
vn 0.40473 -0.90131 0.15440
vn -0.41681 -0.89993 0.12805
vn -0.00000 -0.98714 0.15989
vn -0.36686 -0.85179 0.37399
vn -0.00000 -0.91110 0.41219
vn -0.00000 -0.94331 0.33190
vn -0.41866 -0.87408 0.24640
vn 0.90862 0.40096 -0.11682
vn 0.90623 0.41564 -0.07746
vn 0.90862 0.40096 -0.11682
vn 0.47665 -0.85703 -0.19570
vn -0.00000 -0.96426 -0.26496
vn 0.00000 -0.95761 -0.28806
vn 0.91050 0.41135 -0.04221
vn 0.68059 0.72773 -0.08488
vn 0.94305 0.30261 -0.13818
vn 0.97195 0.21322 -0.09927
vn 0.50166 0.86214 -0.07107
vn 0.42273 0.89570 -0.13789
vn 0.43760 0.85097 -0.29045
vn 0.70266 0.71149 0.00640
vn 0.74122 0.67093 0.02109
vn 0.57215 0.82001 0.01518
vn 0.54496 0.83835 -0.01394
vn 0.00000 -0.98742 0.15810
vn 0.87879 -0.05035 -0.47454
vn 0.87879 -0.05035 -0.47454
vn 0.87879 -0.05035 -0.47454
vn 0.78643 -0.13369 -0.60304
vn 0.78643 -0.13369 -0.60304
vn 0.78643 -0.13369 -0.60304
vn 0.93335 0.13013 -0.33456
vn 0.93335 0.13013 -0.33456
vn 0.93335 0.13013 -0.33456
vn 0.90402 -0.11727 -0.41110
vn 0.90402 -0.11727 -0.41110
vn 0.90402 -0.11727 -0.41110
vn 0.94282 -0.12078 -0.31064
vn 0.94282 -0.12078 -0.31064
vn 0.94282 -0.12078 -0.31064
vn 0.93120 -0.17527 -0.31959
vn 0.93120 -0.17527 -0.31959
vn 0.93120 -0.17527 -0.31959
vn 0.95146 -0.01645 -0.30733
vn 0.95146 -0.01645 -0.30733
vn 0.95146 -0.01645 -0.30733
vn 0.86776 -0.27046 -0.41695
vn 0.86776 -0.27046 -0.41695
vn 0.86776 -0.27046 -0.41695
vn 0.89777 -0.10050 -0.42885
vn 0.89777 -0.10050 -0.42885
vn 0.89777 -0.10050 -0.42885
vn 0.93768 -0.11526 -0.32783
vn 0.93768 -0.11526 -0.32783
vn 0.93768 -0.11526 -0.32783
vn 0.97967 -0.09648 -0.17589
vn 0.97967 -0.09648 -0.17589
vn 0.97967 -0.09648 -0.17589
vn 0.93887 -0.09620 -0.33056
vn 0.93887 -0.09620 -0.33056
vn 0.93887 -0.09620 -0.33056
vn 0.86721 0.14267 -0.47707
vn 0.86721 0.14267 -0.47707
vn 0.86721 0.14267 -0.47707
vn 0.64950 0.11779 -0.75119
vn 0.64950 0.11779 -0.75119
vn 0.64950 0.11779 -0.75119
vn 0.75665 0.22195 -0.61500
vn 0.75665 0.22195 -0.61500
vn 0.75665 0.22195 -0.61500
vn 0.82825 0.55011 0.10665
vn 0.71822 0.68484 0.12310
vn 0.43426 -0.26666 0.86041
vn 0.24434 -0.94481 0.21823
vn 0.04956 -0.97204 -0.22953
vn 0.37033 -0.92871 -0.01868
vn 0.37033 -0.92871 -0.01868
vn 0.00000 -0.98830 0.15252
vn 0.00000 -0.99014 0.14005
vn 0.61530 0.69029 -0.38067
vn 0.00000 0.94991 -0.31252
vn 0.00000 0.94670 -0.32210
vn 0.16835 0.97927 -0.11266
vn 0.85589 -0.49763 -0.14080
vn 0.62421 -0.27187 -0.73242
vn 0.52671 -0.79066 -0.31213
vn 0.34864 0.91575 -0.19962
vn 0.85349 -0.16801 -0.49328
vn 0.31503 0.94875 0.02513
vn 0.98852 0.12436 0.08575
vn 0.93127 -0.36344 0.02548
vn 0.00000 -0.99742 0.07176
vn 0.00000 -0.99679 0.08010
vn 0.92630 -0.37541 0.03234
vn 0.92646 0.37035 0.06718
vn 0.92678 0.37146 0.05570
vn 0.00000 0.98663 0.16300
vn -0.00000 0.98350 0.18093
vn 0.00000 -0.99682 0.07970
vn 0.92277 0.38267 0.04541
vn 0.91279 0.40545 0.04921
vn -0.00000 0.99279 0.11985
vn 0.00000 0.99164 0.12902
vn 0.90231 0.41817 0.10479
vn 0.00000 0.96956 0.24485
vn 0.92770 0.36954 0.05304
vn 0.92646 0.37035 0.06718
vn -0.00000 0.98350 0.18093
vn -0.00000 0.99123 0.13212
vn 0.97415 0.01128 0.22562
vn 0.91517 -0.37836 0.13892
vn 0.00000 -0.90281 0.43005
vn 0.00000 0.03187 0.99949
vn 0.94767 0.31924 0.00319
vn 0.95359 0.30092 0.01097
vn -0.00000 0.99902 0.04431
vn -0.00000 0.99993 -0.01143
vn 0.00000 0.99825 -0.05910
vn 0.92930 0.36858 -0.02369
vn 0.94296 0.33204 0.02395
vn -0.00000 0.99763 0.06883
vn -0.00000 0.99029 -0.13905
vn 0.91405 0.40010 -0.06652
vn -0.00000 0.97165 -0.23641
vn 0.90540 0.41052 -0.10826
vn 0.90380 0.39663 0.16070
vn 0.00000 0.89204 0.45195
vn 0.38874 0.09852 0.91606
vn 0.79588 -0.60266 0.05809
vn 0.80549 -0.58207 0.11131
vn 0.90816 -0.41639 0.04318
vn 0.00000 -0.99443 0.10540
vn 0.00000 -0.97241 0.23329
vn 0.89264 -0.43723 0.10966
vn 0.85349 -0.16801 -0.49328
vn -0.34731 -0.75934 -0.55025
vn -0.31488 -0.94428 -0.09581
vn 0.00000 -0.98415 -0.17736
vn -0.00000 -0.57582 -0.81757
vn 0.98852 0.12436 0.08575
vn 0.41679 -0.90738 0.05425
vn 0.91167 0.40999 0.02762
vn 0.51483 -0.84874 0.12084
vn -0.27656 0.95873 -0.06594
vn -0.00000 0.98519 -0.17144
vn 0.13882 0.98614 -0.09082
vn 0.12368 0.97039 -0.20747
vn 0.72414 0.45103 -0.52172
vn 0.88711 0.32094 -0.33170
vn 0.86946 0.31633 -0.37944
vn 0.98719 0.03643 -0.15534
vn 0.97900 -0.06952 -0.19166
vn 0.98719 0.03643 -0.15534
vn 0.98293 0.14192 -0.11706
vn 0.73849 -0.65073 0.17658
vn 0.98951 0.04494 0.13730
vn 0.90540 0.41052 -0.10826
vn -0.00000 0.97165 -0.23641
vn 0.00000 0.96019 -0.27934
vn 0.90366 0.41102 -0.12025
vn 0.00000 0.96032 -0.27890
vn 0.89716 0.42870 -0.10639
vn 0.81216 -0.53962 0.22183
vn 0.96082 -0.01713 0.27664
vn 0.81480 0.53420 0.22522
vn 0.79943 0.59028 -0.11168
vn 0.00000 0.96976 -0.24405
vn -0.00000 0.96468 -0.26342
vn 0.60730 0.76821 -0.20260
vn 0.00000 0.92661 -0.37603
vn 0.00000 -0.98742 0.15810
vn 0.00000 -0.97981 -0.19992
vn 0.94063 0.29575 0.16661
vn 0.94063 0.29575 0.16661
vn 0.94063 0.29575 0.16661
vn 0.74572 0.21859 -0.62938
vn 0.74572 0.21859 -0.62938
vn 0.74572 0.21859 -0.62938
vn -0.00000 -0.76466 -0.64443
vn -0.00000 -0.70134 -0.71283
vn 0.00000 0.98656 0.16342
vn -0.00000 -0.90041 0.43505
vn 0.00000 0.96294 -0.26971
vn -0.00000 0.09859 -0.99513
vn 0.89716 0.42870 -0.10639
vn 0.00000 0.96032 -0.27890
vn -0.58046 0.70893 -0.40060
vn -0.44080 0.72024 -0.53567
vn 0.16836 0.97741 0.12780
vn 0.15346 0.97553 0.15742
vn -0.91120 0.39186 -0.12712
vn -0.94567 0.32337 -0.03388
vn -0.89964 0.43653 -0.00964
vn -0.92042 0.38166 -0.08470
vn -0.87306 0.47302 -0.11843
vn -0.88407 0.46455 0.05119
vn -0.91016 0.37283 -0.18060
vn -0.61257 -0.59703 -0.51798
vn -0.43873 -0.70398 -0.55850
vn -0.58298 -0.45569 -0.67267
vn -0.83735 -0.09464 -0.53841
vn -0.92787 -0.16860 -0.33261
vn -0.90330 -0.25995 -0.34128
vn -0.70250 -0.64399 -0.30294
vn -0.57979 -0.74612 -0.32734
vn -0.64726 -0.73229 -0.21168
vn -0.57317 0.62912 -0.52505
vn -0.59028 0.62728 -0.50802
vn -0.99716 0.00435 0.07514
vn -0.77998 0.62229 0.06626
vn -0.79045 0.60894 0.06611
vn -0.99652 0.00704 0.08302
vn -0.76283 0.63999 0.09222
vn -0.99337 -0.01408 0.11414
vn -0.82825 0.55011 0.10665
vn -0.71822 0.68484 0.12310
vn -0.73849 -0.65073 0.17658
vn -0.98951 0.04494 0.13729
vn -0.74690 -0.65791 0.09640
vn -0.66887 0.74108 -0.05844
vn -0.72587 0.68155 -0.09269
vn -0.41565 0.90094 -0.12468
vn -0.51484 0.85258 -0.08969
vn -0.79466 0.59624 0.11410
vn -0.97829 0.00103 0.20725
vn -0.72913 0.68070 0.07083
vn -0.72175 0.69053 0.04745
vn -0.57486 0.81731 0.03916
vn -0.60566 0.79489 0.03637
vn -0.90595 -0.42061 0.04844
vn -0.45919 -0.88388 0.08890
vn -0.48802 -0.87257 0.02144
vn -0.98385 -0.16513 0.06904
vn -0.78317 -0.62038 0.04222
vn -0.84097 0.53768 0.06060
vn -0.94234 0.33228 -0.03986
vn -0.83293 0.54081 -0.11724
vn -0.90812 0.34735 -0.23381
vn -0.98511 0.11495 -0.12784
vn -0.99501 0.08293 0.05550
vn -0.93992 0.31570 0.12994
vn -0.44440 0.88528 -0.13707
vn -0.03163 0.99698 0.07092
vn -0.12040 0.90845 -0.40028
vn -0.65129 0.65826 -0.37750
vn -0.57378 0.75082 0.32718
vn 0.14101 0.81619 0.56031
vn -0.38252 0.03673 0.92322
vn -0.51483 -0.84874 0.12084
vn 0.08644 -0.92972 0.35798
vn 0.44010 0.21160 0.87266
vn -0.38252 0.03673 0.92322
vn 0.44010 0.21160 0.87266
vn -0.08101 0.91333 -0.39908
vn -0.19111 0.38995 -0.90079
vn -0.14374 0.22007 -0.96484
vn 0.13054 0.91951 0.37075
vn 0.42576 -0.44671 0.78688
vn 0.14320 0.38233 0.91286
vn 0.00656 0.94496 0.32713
vn -0.38874 0.09852 0.91606
vn -0.18253 0.95110 0.24920
vn -0.21963 -0.95266 -0.21023
vn 0.03145 -0.95186 0.30492
vn 0.08571 -0.97274 0.21550
vn -0.09624 -0.93615 -0.33817
vn -0.96805 -0.05946 -0.24359
vn -0.65129 0.65826 -0.37750
vn -0.62421 -0.27187 -0.73242
vn -0.09415 0.99436 0.04878
vn -0.08386 0.99153 -0.09919
vn -0.16448 0.94565 -0.28051
vn -0.57515 0.07063 -0.81500
vn -0.66199 0.74041 -0.11649
vn -0.26215 0.95246 -0.15524
vn -0.41565 0.90094 -0.12468
vn -0.72587 0.68155 -0.09269
vn -0.87121 0.48061 -0.10002
vn -0.88883 0.45819 0.00687
vn -0.57378 0.75082 0.32718
vn -0.44440 0.88528 -0.13707
vn -0.38252 0.03673 0.92322
vn -0.94782 0.26745 0.17352
vn -0.68572 0.51143 0.51790
vn -0.57568 0.81024 0.11002
vn -0.90553 0.41656 0.08058
vn -0.03872 0.99694 0.06796
vn -0.07427 0.99686 0.02741
vn -0.21805 0.94338 -0.24999
vn -0.19161 0.89861 -0.39470
vn 0.12546 0.88800 0.44240
vn 0.17598 0.93502 0.30786
vn -0.33139 0.92180 -0.20116
vn -0.05044 0.99388 0.09823
vn -0.32664 0.94422 0.04185
vn 0.05058 0.95259 0.30004
vn -0.19858 0.92571 0.32192
vn 0.07701 0.29158 0.95344
vn 0.06867 -0.93523 0.34733
vn -0.23112 -0.91239 0.33782
vn -0.54759 0.07960 0.83295
vn -0.43426 -0.26666 0.86041
vn -0.88577 -0.34331 0.31233
vn -0.52893 -0.82062 0.21637
vn -0.60150 -0.05753 -0.79680
vn -0.96198 -0.26558 0.06372
vn -0.70499 0.69834 -0.12377
vn 0.52454 0.07556 0.84802
vn 0.47980 -0.25863 0.83839
vn 0.07701 0.29158 0.95344
vn -0.54759 0.07960 0.83295
vn -0.15253 -0.98246 -0.10726
vn 0.20081 -0.94729 0.24962
vn -0.17852 -0.95394 -0.24108
vn -0.74148 -0.45978 -0.48869
vn -0.54722 0.45060 -0.70534
vn -0.95722 0.25757 0.13187
vn -0.89698 -0.36086 -0.25536
vn -0.61346 -0.72754 -0.30718
vn -0.10523 -0.91894 -0.38011
vn -0.33969 -0.92905 -0.14656
vn -0.25292 -0.93551 0.24668
vn 0.42576 -0.44671 0.78688
vn 0.14320 0.38233 0.91286
vn 0.00000 -0.97981 -0.19992
vn -0.50551 -0.85921 -0.07882
vn 0.00000 -0.99699 -0.07757
vn -0.42943 -0.90153 -0.05318
vn 0.47980 -0.25863 0.83839
vn 0.00000 -0.99777 0.06670
vn 0.00000 -0.99985 0.01724
vn -0.65343 0.75078 0.09675
vn -0.79569 0.59446 0.11614
vn -0.52671 -0.79066 -0.31213
vn -0.38501 -0.34758 -0.85496
vn -0.57568 0.81024 0.11002
vn -0.70499 0.69834 -0.12377
vn -0.68572 0.51143 0.51790
vn -0.43426 -0.26666 0.86041
vn -0.60150 -0.05753 -0.79680
vn 0.52454 0.07556 0.84802
vn 0.15941 -0.94200 0.29534
vn -0.64007 -0.73717 -0.21653
vn -0.99194 -0.06383 -0.10946
vn -0.96805 -0.05946 -0.24359
vn -0.61346 -0.72754 -0.30718
vn -0.89933 0.43193 0.06818
vn 0.26308 0.95509 0.13632
vn 0.33598 0.93381 0.12296
vn 0.33200 0.93953 0.08398
vn 0.35038 -0.93192 0.09363
vn 0.29705 -0.94717 0.12098
vn -0.43874 -0.89111 0.11587
vn -0.40473 -0.90131 0.15440
vn -0.24434 -0.94481 0.21823
vn 0.41681 -0.89993 0.12805
vn 0.36686 -0.85179 0.37399
vn 0.41866 -0.87408 0.24640
vn -0.90623 0.41564 -0.07746
vn -0.90862 0.40096 -0.11682
vn -0.90862 0.40096 -0.11682
vn 0.00000 -0.95761 -0.28806
vn -0.47665 -0.85703 -0.19570
vn -0.68059 0.72773 -0.08488
vn -0.91050 0.41135 -0.04221
vn -0.97195 0.21322 -0.09927
vn -0.94305 0.30261 -0.13818
vn -0.42273 0.89570 -0.13789
vn -0.50166 0.86214 -0.07107
vn -0.43760 0.85097 -0.29045
vn -0.70266 0.71149 0.00640
vn -0.54496 0.83835 -0.01394
vn -0.57215 0.82001 0.01518
vn -0.74122 0.67093 0.02109
vn 0.00000 -0.98742 0.15810
vn -0.87879 -0.05035 -0.47454
vn -0.87879 -0.05035 -0.47454
vn -0.87879 -0.05035 -0.47454
vn -0.78643 -0.13369 -0.60304
vn -0.78643 -0.13369 -0.60304
vn -0.78643 -0.13369 -0.60304
vn -0.93335 0.13013 -0.33456
vn -0.93335 0.13013 -0.33456
vn -0.93335 0.13013 -0.33456
vn -0.90402 -0.11727 -0.41110
vn -0.90402 -0.11727 -0.41110
vn -0.90402 -0.11727 -0.41110
vn -0.94282 -0.12078 -0.31064
vn -0.94282 -0.12078 -0.31064
vn -0.94282 -0.12078 -0.31064
vn -0.93121 -0.17527 -0.31959
vn -0.93121 -0.17527 -0.31959
vn -0.93121 -0.17527 -0.31959
vn -0.95146 -0.01645 -0.30733
vn -0.95146 -0.01645 -0.30733
vn -0.95146 -0.01645 -0.30733
vn -0.86776 -0.27046 -0.41695
vn -0.86776 -0.27046 -0.41695
vn -0.86776 -0.27046 -0.41695
vn -0.89777 -0.10050 -0.42885
vn -0.89777 -0.10050 -0.42885
vn -0.89777 -0.10050 -0.42885
vn -0.93768 -0.11526 -0.32783
vn -0.93768 -0.11526 -0.32783
vn -0.93768 -0.11526 -0.32783
vn -0.97967 -0.09648 -0.17589
vn -0.97967 -0.09648 -0.17589
vn -0.97967 -0.09648 -0.17589
vn -0.93887 -0.09620 -0.33056
vn -0.93887 -0.09620 -0.33056
vn -0.93887 -0.09620 -0.33056
vn -0.86721 0.14267 -0.47707
vn -0.86721 0.14267 -0.47707
vn -0.86721 0.14267 -0.47707
vn -0.64950 0.11779 -0.75119
vn -0.64950 0.11779 -0.75119
vn -0.64950 0.11779 -0.75119
vn -0.75665 0.22195 -0.61500
vn -0.75665 0.22195 -0.61500
vn -0.75665 0.22195 -0.61500
vn -0.71822 0.68484 0.12310
vn -0.82825 0.55011 0.10665
vn -0.43426 -0.26666 0.86041
vn -0.24434 -0.94481 0.21823
vn -0.04956 -0.97204 -0.22953
vn -0.37033 -0.92871 -0.01868
vn -0.37033 -0.92871 -0.01868
vn -0.61530 0.69029 -0.38067
vn -0.16835 0.97927 -0.11266
vn -0.85589 -0.49763 -0.14080
vn -0.62421 -0.27187 -0.73242
vn -0.52671 -0.79066 -0.31213
vn -0.34864 0.91575 -0.19962
vn -0.85349 -0.16801 -0.49328
vn -0.98852 0.12436 0.08575
vn -0.31503 0.94875 0.02513
vn -0.93127 -0.36344 0.02548
vn -0.92630 -0.37541 0.03234
vn 0.00000 -0.99679 0.08010
vn 0.00000 -0.99742 0.07176
vn -0.92646 0.37035 0.06718
vn -0.00000 0.98350 0.18093
vn 0.00000 0.98663 0.16300
vn -0.92678 0.37146 0.05570
vn 0.00000 -0.99682 0.07970
vn -0.92277 0.38267 0.04541
vn 0.00000 0.99164 0.12902
vn -0.00000 0.99279 0.11985
vn -0.91279 0.40545 0.04921
vn 0.00000 0.96956 0.24485
vn -0.90231 0.41817 0.10479
vn -0.92770 0.36954 0.05304
vn -0.00000 0.99123 0.13212
vn -0.00000 0.98350 0.18093
vn -0.92646 0.37035 0.06718
vn -0.97415 0.01128 0.22562
vn 0.00000 0.03187 0.99949
vn 0.00000 -0.90281 0.43005
vn -0.91517 -0.37836 0.13892
vn -0.94767 0.31924 0.00319
vn -0.00000 0.99993 -0.01143
vn -0.95359 0.30092 0.01097
vn -0.92930 0.36858 -0.02369
vn 0.00000 0.99825 -0.05910
vn -0.94296 0.33204 0.02395
vn -0.91405 0.40010 -0.06652
vn -0.00000 0.99029 -0.13905
vn -0.90540 0.41052 -0.10826
vn -0.00000 0.97165 -0.23641
vn -0.90380 0.39663 0.16070
vn 0.00000 0.89204 0.45195
vn -0.38874 0.09852 0.91606
vn -0.80549 -0.58207 0.11131
vn -0.79588 -0.60266 0.05809
vn -0.90816 -0.41639 0.04318
vn -0.89264 -0.43723 0.10966
vn 0.00000 -0.97241 0.23329
vn 0.00000 -0.99443 0.10540
vn -0.85349 -0.16801 -0.49328
vn 0.34731 -0.75934 -0.55025
vn 0.31488 -0.94428 -0.09581
vn -0.98852 0.12436 0.08575
vn -0.41679 -0.90738 0.05425
vn -0.91167 0.40999 0.02762
vn -0.51483 -0.84874 0.12084
vn 0.27656 0.95873 -0.06594
vn -0.12368 0.97039 -0.20747
vn -0.13882 0.98614 -0.09082
vn -0.72414 0.45103 -0.52172
vn -0.88711 0.32094 -0.33170
vn -0.86946 0.31633 -0.37944
vn -0.98719 0.03643 -0.15534
vn -0.98293 0.14192 -0.11706
vn -0.98719 0.03643 -0.15534
vn -0.97900 -0.06952 -0.19166
vn -0.98951 0.04494 0.13729
vn -0.73849 -0.65073 0.17658
vn -0.90540 0.41052 -0.10826
vn -0.90366 0.41102 -0.12025
vn 0.00000 0.96019 -0.27934
vn -0.00000 0.97165 -0.23641
vn -0.89716 0.42870 -0.10639
vn -0.81216 -0.53962 0.22183
vn -0.96082 -0.01713 0.27664
vn -0.81480 0.53420 0.22522
vn -0.79943 0.59028 -0.11168
vn -0.60730 0.76821 -0.20260
vn 0.00000 -0.98742 0.15810
vn 0.00000 -0.97981 -0.19992
vn -0.94063 0.29575 0.16661
vn -0.94063 0.29575 0.16661
vn -0.94063 0.29575 0.16661
vn -0.74572 0.21859 -0.62938
vn -0.74572 0.21859 -0.62938
vn -0.74572 0.21859 -0.62938
vn -0.89716 0.42870 -0.10639
f 190/190/190 189/189/189 541/541/541
f 541/541/541 542/542/542 190/190/190
f 188/188/188 189/189/189 190/190/190
f 189/189/189 188/188/188 366/366/366
f 189/189/189 366/366/366 541/541/541
f 535/535/535 536/536/536 180/180/180
f 179/179/179 178/178/178 186/186/186
f 180/180/180 181/181/181 178/178/178
f 178/178/178 179/179/179 180/180/180
f 179/179/179 187/187/187 540/540/540
f 540/540/540 535/535/535 179/179/179
f 180/180/180 179/179/179 535/535/535
f 186/186/186 187/187/187 179/179/179
f 187/187/187 186/186/186 191/191/191
f 187/187/187 190/190/190 542/542/542
f 542/542/542 540/540/540 187/187/187
f 191/191/191 190/190/190 187/187/187
f 190/190/190 191/191/191 188/188/188
f 6/6/6 5/5/5 172/172/172
f 7/7/7 8/8/8 5/5/5
f 5/5/5 6/6/6 7/7/7
f 6/6/6 173/173/173 532/532/532
f 532/532/532 373/373/373 6/6/6
f 7/7/7 6/6/6 373/373/373
f 172/172/172 173/173/173 6/6/6
f 173/173/173 172/172/172 174/174/174
f 533/533/533 532/532/532 173/173/173
f 173/173/173 175/175/175 533/533/533
f 174/174/174 175/175/175 173/173/173
f 177/177/177 175/175/175 174/174/174
f 427/427/427 426/426/426 430/430/430
f 428/428/428 429/429/429 426/426/426
f 426/426/426 427/427/427 428/428/428
f 441/441/441 455/455/455 427/427/427
f 427/427/427 431/431/431 441/441/441
f 428/428/428 427/427/427 455/455/455
f 430/430/430 431/431/431 427/427/427
f 431/431/431 430/430/430 436/436/436
f 441/441/441 431/431/431 437/437/437
f 436/436/436 437/437/437 431/431/431
f 437/437/437 442/442/442 441/441/441
f 454/454/454 455/455/455 441/441/441
f 274/274/274 273/273/273 271/271/271
f 274/274/274 86/86/86 85/85/85
f 85/85/85 273/273/273 274/274/274
f 95/95/95 273/273/273 85/85/85
f 95/95/95 85/85/85 82/82/82
f 95/95/95 82/82/82 81/81/81
f 82/82/82 85/85/85 86/86/86
f 86/86/86 83/83/83 82/82/82
f 81/81/81 82/82/82 83/83/83
f 77/77/77 71/71/71 81/81/81
f 81/81/81 84/84/84 77/77/77
f 83/83/83 84/84/84 81/81/81
f 71/71/71 77/77/77 76/76/76
f 174/174/174 176/176/176 177/177/177
f 533/533/533 175/175/175 177/177/177
f 177/177/177 534/534/534 533/533/533
f 177/177/177 329/329/329 670/670/670
f 670/670/670 534/534/534 177/177/177
f 177/177/177 176/176/176 328/328/328
f 328/328/328 329/329/329 177/177/177
f 373/373/373 374/374/374 7/7/7
f 365/365/365 7/7/7 374/374/374
f 365/365/365 8/8/8 7/7/7
f 694/694/694 695/695/695 696/696/696
f 357/357/357 358/358/358 359/359/359
f 475/475/475 471/471/471 520/520/520
f 520/520/520 471/471/471 474/474/474
f 476/476/476 472/472/472 471/471/471
f 471/471/471 475/475/475 476/476/476
f 473/473/473 474/474/474 471/471/471
f 471/471/471 472/472/472 473/473/473
f 475/475/475 522/522/522 523/523/523
f 523/523/523 492/492/492 475/475/475
f 520/520/520 522/522/522 475/475/475
f 476/476/476 475/475/475 492/492/492
f 474/474/474 521/521/521 520/520/520
f 524/524/524 521/521/521 474/474/474
f 90/90/90 89/89/89 147/147/147
f 147/147/147 148/148/148 90/90/90
f 147/147/147 89/89/89 74/74/74
f 74/74/74 73/73/73 147/147/147
f 75/75/75 74/74/74 144/144/144
f 74/74/74 75/75/75 72/72/72
f 72/72/72 73/73/73 74/74/74
f 144/144/144 270/270/270 75/75/75
f 269/269/269 270/270/270 144/144/144
f 145/145/145 312/312/312 324/324/324
f 324/324/324 325/325/325 145/145/145
f 271/271/271 272/272/272 274/274/274
f 95/95/95 271/271/271 273/273/273
f 160/160/160 111/111/111 116/116/116
f 112/112/112 111/111/111 160/160/160
f 115/115/115 116/116/116 111/111/111
f 111/111/111 114/114/114 115/115/115
f 113/113/113 114/114/114 111/111/111
f 111/111/111 112/112/112 113/113/113
f 116/116/116 162/162/162 160/160/160
f 160/160/160 161/161/161 112/112/112
f 116/116/116 132/132/132 163/163/163
f 163/163/163 162/162/162 116/116/116
f 132/132/132 116/116/116 115/115/115
f 115/115/115 133/133/133 132/132/132
f 477/477/477 478/478/478 479/479/479
f 472/472/472 478/478/478 477/477/477
f 478/478/478 472/472/472 476/476/476
f 476/476/476 480/480/480 478/478/478
f 494/494/494 480/480/480 476/476/476
f 476/476/476 493/493/493 494/494/494
f 492/492/492 493/493/493 476/476/476
f 70/70/70 66/66/66 69/69/69
f 68/68/68 69/69/69 66/66/66
f 66/66/66 67/67/67 68/68/68
f 76/76/76 70/70/70 71/71/71
f 69/69/69 71/71/71 70/70/70
f 81/81/81 71/71/71 69/69/69
f 69/69/69 94/94/94 81/81/81
f 94/94/94 69/69/69 68/68/68
f 79/79/79 68/68/68 67/67/67
f 68/68/68 78/78/78 94/94/94
f 78/78/78 68/68/68 79/79/79
f 67/67/67 269/269/269 79/79/79
f 474/474/474 519/519/519 524/524/524
f 500/500/500 519/519/519 474/474/474
f 474/474/474 473/473/473 500/500/500
f 477/477/477 473/473/473 472/472/472
f 500/500/500 473/473/473 477/477/477
f 519/519/519 500/500/500 498/498/498
f 498/498/498 500/500/500 499/499/499
f 477/477/477 499/499/499 500/500/500
f 524/524/524 519/519/519 609/609/609
f 498/498/498 609/609/609 519/519/519
f 609/609/609 610/610/610 524/524/524
f 608/608/608 610/610/610 609/609/609
f 609/609/609 526/526/526 608/608/608
f 526/526/526 609/609/609 498/498/498
f 498/498/498 497/497/497 526/526/526
f 499/499/499 496/496/496 498/498/498
f 497/497/497 498/498/498 496/496/496
f 499/499/499 501/501/501 512/512/512
f 512/512/512 496/496/496 499/499/499
f 501/501/501 499/499/499 477/477/477
f 496/496/496 512/512/512 484/484/484
f 484/484/484 483/483/483 496/496/496
f 496/496/496 483/483/483 497/497/497
f 497/497/497 513/513/513 525/525/525
f 525/525/525 526/526/526 497/497/497
f 513/513/513 497/497/497 483/483/483
f 526/526/526 525/525/525 607/607/607
f 119/119/119 121/121/121 115/115/115
f 115/115/115 114/114/114 119/119/119
f 134/134/134 133/133/133 115/115/115
f 115/115/115 121/121/121 134/134/134
f 117/117/117 119/119/119 114/114/114
f 114/114/114 113/113/113 117/117/117
f 118/118/118 120/120/120 119/119/119
f 119/119/119 120/120/120 121/121/121
f 117/117/117 118/118/118 119/119/119
f 134/134/134 121/121/121 120/120/120
f 120/120/120 135/135/135 134/134/134
f 120/120/120 118/118/118 141/141/141
f 141/141/141 135/135/135 120/120/120
f 141/141/141 118/118/118 117/117/117
f 117/117/117 140/140/140 141/141/141
f 139/139/139 140/140/140 117/117/117
f 117/117/117 113/113/113 139/139/139
f 152/152/152 141/141/141 140/140/140
f 141/141/141 152/152/152 124/124/124
f 124/124/124 123/123/123 141/141/141
f 140/140/140 136/136/136 152/152/152
f 137/137/137 136/136/136 140/140/140
f 140/140/140 139/139/139 137/137/137
f 137/137/137 139/139/139 159/159/159
f 139/139/139 113/113/113 112/112/112
f 112/112/112 159/159/159 139/139/139
f 166/166/166 138/138/138 137/137/137
f 441/441/441 444/444/444 454/454/454
f 443/443/443 444/444/444 441/441/441
f 441/441/441 442/442/442 443/443/443
f 455/455/455 438/438/438 428/428/428
f 456/456/456 438/438/438 455/455/455
f 455/455/455 454/454/454 456/456/456
f 454/454/454 620/620/620 617/617/617
f 454/454/454 446/446/446 620/620/620
f 454/454/454 444/444/444 446/446/446
f 456/456/456 454/454/454 617/617/617
f 445/445/445 446/446/446 444/444/444
f 444/444/444 443/443/443 445/445/445
f 619/619/619 620/620/620 446/446/446
f 446/446/446 445/445/445 619/619/619
f 617/617/617 620/620/620 619/619/619
f 619/619/619 618/618/618 617/617/617
f 457/457/457 456/456/456 617/617/617
f 617/617/617 618/618/618 457/457/457
f 439/439/439 438/438/438 456/456/456
f 456/456/456 457/457/457 439/439/439
f 447/447/447 457/457/457 663/663/663
f 450/450/450 439/439/439 457/457/457
f 457/457/457 447/447/447 450/450/450
f 440/440/440 439/439/439 450/450/450
f 438/438/438 439/439/439 440/440/440
f 434/434/434 504/504/504 450/450/450
f 450/450/450 449/449/449 434/434/434
f 137/137/137 259/259/259 166/166/166
f 159/159/159 259/259/259 137/137/137
f 136/136/136 137/137/137 138/138/138
f 136/136/136 125/125/125 124/124/124
f 124/124/124 152/152/152 136/136/136
f 138/138/138 125/125/125 136/136/136
f 138/138/138 166/166/166 165/165/165
f 165/165/165 153/153/153 138/138/138
f 125/125/125 138/138/138 153/153/153
f 258/258/258 166/166/166 259/259/259
f 166/166/166 258/258/258 257/257/257
f 257/257/257 165/165/165 166/166/166
f 259/259/259 260/260/260 258/258/258
f 164/164/164 260/260/260 259/259/259
f 259/259/259 159/159/159 164/164/164
f 164/164/164 159/159/159 112/112/112
f 112/112/112 161/161/161 164/164/164
f 153/153/153 122/122/122 125/125/125
f 124/124/124 125/125/125 122/122/122
f 122/122/122 123/123/123 124/124/124
f 450/450/450 504/504/504 440/440/440
f 449/449/449 450/450/450 447/447/447
f 663/663/663 505/505/505 447/447/447
f 448/448/448 447/447/447 505/505/505
f 447/447/447 448/448/448 449/449/449
f 505/505/505 663/663/663 666/666/666
f 506/506/506 505/505/505 667/667/667
f 666/666/666 667/667/667 505/505/505
f 505/505/505 506/506/506 448/448/448
f 656/656/656 508/508/508 448/448/448
f 448/448/448 506/506/506 656/656/656
f 448/448/448 508/508/508 507/507/507
f 507/507/507 449/449/449 448/448/448
f 313/313/313 34/34/34 33/33/33
f 33/33/33 58/58/58 313/313/313
f 33/33/33 40/40/40 42/42/42
f 42/42/42 58/58/58 33/33/33
f 37/37/37 40/40/40 33/33/33
f 33/33/33 36/36/36 37/37/37
f 35/35/35 36/36/36 33/33/33
f 33/33/33 34/34/34 35/35/35
f 34/34/34 313/313/313 314/314/314
f 314/314/314 48/48/48 34/34/34
f 49/49/49 35/35/35 34/34/34
f 34/34/34 48/48/48 49/49/49
f 658/658/658 418/418/418 393/393/393
f 393/393/393 396/396/396 658/658/658
f 393/393/393 418/418/418 403/403/403
f 403/403/403 398/398/398 393/393/393
f 397/397/397 394/394/394 393/393/393
f 393/393/393 398/398/398 397/397/397
f 395/395/395 396/396/396 393/393/393
f 393/393/393 394/394/394 395/395/395
f 657/657/657 658/658/658 396/396/396
f 396/396/396 409/409/409 657/657/657
f 408/408/408 409/409/409 396/396/396
f 396/396/396 395/395/395 408/408/408
f 311/311/311 310/310/310 294/294/294
f 310/310/310 311/311/311 289/289/289
f 289/289/289 288/288/288 310/310/310
f 289/289/289 286/286/286 285/285/285
f 285/285/285 288/288/288 289/289/289
f 286/286/286 287/287/287 284/284/284
f 284/284/284 285/285/285 286/286/286
f 287/287/287 281/281/281 280/280/280
f 280/280/280 284/284/284 287/287/287
f 281/281/281 282/282/282 279/279/279
f 279/279/279 280/280/280 281/281/281
f 640/640/640 654/654/654 655/655/655
f 634/634/634 655/655/655 654/654/654
f 654/654/654 635/635/635 634/634/634
f 634/634/634 635/635/635 633/633/633
f 633/633/633 632/632/632 634/634/634
f 632/632/632 633/633/633 630/630/630
f 630/630/630 631/631/631 632/632/632
f 631/631/631 630/630/630 628/628/628
f 628/628/628 627/627/627 631/631/631
f 627/627/627 628/628/628 625/625/625
f 625/625/625 626/626/626 627/627/627
f 275/275/275 283/283/283 276/276/276
f 277/277/277 278/278/278 275/275/275
f 275/275/275 276/276/276 277/277/277
f 316/316/316 315/315/315 278/278/278
f 278/278/278 277/277/277 316/316/316
f 315/315/315 316/316/316 317/317/317
f 317/317/317 318/318/318 315/315/315
f 317/317/317 296/296/296 295/295/295
f 295/295/295 318/318/318 317/317/317
f 296/296/296 297/297/297 294/294/294
f 294/294/294 295/295/295 296/296/296
f 294/294/294 297/297/297 311/311/311
f 621/621/621 624/624/624 629/629/629
f 623/623/623 624/624/624 621/621/621
f 621/621/621 622/622/622 623/623/623
f 662/662/662 623/623/623 622/622/622
f 622/622/622 659/659/659 662/662/662
f 661/661/661 662/662/662 659/659/659
f 659/659/659 660/660/660 661/661/661
f 661/661/661 660/660/660 643/643/643
f 643/643/643 642/642/642 661/661/661
f 642/642/642 643/643/643 640/640/640
f 640/640/640 641/641/641 642/642/642
f 655/655/655 641/641/641 640/640/640
f 434/434/434 449/449/449 507/507/507
f 507/507/507 435/435/435 434/434/434
f 434/434/434 435/435/435 432/432/432
f 504/504/504 434/434/434 433/433/433
f 432/432/432 433/433/433 434/434/434
f 433/433/433 616/616/616 504/504/504
f 504/504/504 616/616/616 615/615/615
f 615/615/615 440/440/440 504/504/504
f 440/440/440 615/615/615 429/429/429
f 429/429/429 428/428/428 440/440/440
f 440/440/440 428/428/428 438/438/438
f 666/666/666 656/656/656 506/506/506
f 506/506/506 667/667/667 666/666/666
f 491/491/491 490/490/490 531/531/531
f 489/489/489 490/490/490 491/491/491
f 531/531/531 668/668/668 558/558/558
f 555/555/555 558/558/558 668/668/668
f 668/668/668 463/463/463 555/555/555
f 417/417/417 463/463/463 668/668/668
f 558/558/558 411/411/411 531/531/531
f 470/470/470 531/531/531 411/411/411
f 491/491/491 531/531/531 470/470/470
f 470/470/470 469/469/469 491/491/491
f 467/467/467 470/470/470 410/410/410
f 411/411/411 410/410/410 470/470/470
f 469/469/469 470/470/470 467/467/467
f 557/557/557 412/412/412 411/411/411
f 411/411/411 558/558/558 557/557/557
f 410/410/410 411/411/411 412/412/412
f 557/557/557 558/558/558 555/555/555
f 555/555/555 556/556/556 557/557/557
f 404/404/404 555/555/555 463/463/463
f 556/556/556 555/555/555 404/404/404
f 404/404/404 407/407/407 556/556/556
f 463/463/463 462/462/462 404/404/404
f 405/405/405 404/404/404 462/462/462
f 406/406/406 407/407/407 404/404/404
f 404/404/404 405/405/405 406/406/406
f 464/464/464 463/463/463 417/417/417
f 462/462/462 463/463/463 464/464/464
f 207/207/207 208/208/208 205/205/205
f 205/205/205 206/206/206 207/207/207
f 206/206/206 326/326/326 171/171/171
f 326/326/326 54/54/54 131/131/131
f 131/131/131 171/171/171 326/326/326
f 55/55/55 54/54/54 326/326/326
f 171/171/171 53/53/53 206/206/206
f 207/207/207 206/206/206 53/53/53
f 53/53/53 52/52/52 207/207/207
f 108/108/108 50/50/50 53/53/53
f 53/53/53 171/171/171 108/108/108
f 52/52/52 53/53/53 50/50/50
f 130/130/130 171/171/171 131/131/131
f 108/108/108 171/171/171 130/130/130
f 50/50/50 108/108/108 107/107/107
f 130/130/130 109/109/109 108/108/108
f 107/107/107 108/108/108 109/109/109
f 107/107/107 156/156/156 50/50/50
f 157/157/157 51/51/51 50/50/50
f 50/50/50 156/156/156 157/157/157
f 50/50/50 51/51/51 52/52/52
f 156/156/156 107/107/107 340/340/340
f 128/128/128 107/107/107 110/110/110
f 340/340/340 107/107/107 128/128/128
f 109/109/109 110/110/110 107/107/107
f 340/340/340 255/255/255 156/156/156
f 256/256/256 157/157/157 156/156/156
f 65/65/65 59/59/59 61/61/61
f 59/59/59 60/60/60 61/61/61
f 64/64/64 65/65/65 61/61/61
f 61/61/61 62/62/62 63/63/63
f 63/63/63 64/64/64 61/61/61
f 60/60/60 62/62/62 61/61/61
f 425/425/425 420/420/420 419/419/419
f 419/419/419 420/420/420 421/421/421
f 424/424/424 420/420/420 425/425/425
f 420/420/420 423/423/423 422/422/422
f 423/423/423 420/420/420 424/424/424
f 421/421/421 420/420/420 422/422/422
f 185/185/185 262/262/262 263/263/263
f 262/262/262 185/185/185 183/183/183
f 184/184/184 261/261/261 185/185/185
f 183/183/183 185/185/185 261/261/261
f 537/537/537 538/538/538 262/262/262
f 262/262/262 182/182/182 537/537/537
f 183/183/183 182/182/182 262/262/262
f 539/539/539 538/538/538 611/611/611
f 611/611/611 538/538/538 537/537/537
f 488/488/488 538/538/538 539/539/539
f 537/537/537 490/490/490 611/611/611
f 490/490/490 537/537/537 415/415/415
f 415/415/415 537/537/537 182/182/182
f 182/182/182 514/514/514 415/415/415
f 182/182/182 183/183/183 57/57/57
f 57/57/57 155/155/155 182/182/182
f 261/261/261 131/131/131 183/183/183
f 57/57/57 183/183/183 131/131/131
f 261/261/261 129/129/129 131/131/131
f 131/131/131 54/54/54 57/57/57
f 129/129/129 130/130/130 131/131/131
f 155/155/155 57/57/57 56/56/56
f 56/56/56 57/57/57 54/54/54
f 56/56/56 154/154/154 155/155/155
f 154/154/154 56/56/56 151/151/151
f 151/151/151 56/56/56 55/55/55
f 54/54/54 55/55/55 56/56/56
f 151/151/151 150/150/150 154/154/154
f 105/105/105 205/205/205 44/44/44
f 44/44/44 102/102/102 105/105/105
f 102/102/102 44/44/44 47/47/47
f 208/208/208 45/45/45 44/44/44
f 44/44/44 205/205/205 208/208/208
f 46/46/46 47/47/47 44/44/44
f 44/44/44 45/45/45 46/46/46
f 205/205/205 105/105/105 326/326/326
f 326/326/326 105/105/105 55/55/55
f 55/55/55 105/105/105 104/104/104
f 104/104/104 105/105/105 102/102/102
f 326/326/326 206/206/206 205/205/205
f 451/451/451 452/452/452 453/453/453
f 452/452/452 451/451/451 545/545/545
f 412/412/412 413/413/413 410/410/410
f 410/410/410 413/413/413 516/516/516
f 410/410/410 517/517/517 467/467/467
f 516/516/516 517/517/517 410/410/410
f 517/517/517 516/516/516 605/605/605
f 517/517/517 606/606/606 680/680/680
f 680/680/680 467/467/467 517/517/517
f 605/605/605 606/606/606 517/517/517
f 487/487/487 468/468/468 467/467/467
f 487/487/487 467/467/467 680/680/680
f 467/467/467 468/468/468 469/469/469
f 680/680/680 681/681/681 487/487/487
f 487/487/487 681/681/681 488/488/488
f 487/487/487 488/488/488 486/486/486
f 486/486/486 468/468/468 487/487/487
f 488/488/488 681/681/681 692/692/692
f 539/539/539 486/486/486 488/488/488
f 514/514/514 515/515/515 416/416/416
f 416/416/416 415/415/415 514/514/514
f 510/510/510 416/416/416 515/515/515
f 515/515/515 511/511/511 510/510/510
f 417/417/417 416/416/416 510/510/510
f 416/416/416 417/417/417 414/414/414
f 414/414/414 415/415/415 416/416/416
f 415/415/415 414/414/414 490/490/490
f 490/490/490 414/414/414 668/668/668
f 668/668/668 414/414/414 417/417/417
f 611/611/611 490/490/490 489/489/489
f 668/668/668 531/531/531 490/490/490
f 300/300/300 301/301/301 298/298/298
f 302/302/302 303/303/303 298/298/298
f 298/298/298 301/301/301 302/302/302
f 303/303/303 302/302/302 306/306/306
f 306/306/306 307/307/307 303/303/303
f 307/307/307 306/306/306 308/308/308
f 308/308/308 309/309/309 307/307/307
f 648/648/648 645/645/645 644/644/644
f 644/644/644 647/647/647 648/648/648
f 651/651/651 648/648/648 647/647/647
f 647/647/647 650/650/650 651/651/651
f 653/653/653 651/651/651 650/650/650
f 650/650/650 652/652/652 653/653/653
f 637/637/637 636/636/636 649/649/649
f 636/636/636 637/637/637 638/638/638
f 638/638/638 639/639/639 636/636/636
f 13/13/13 11/11/11 14/14/14
f 15/15/15 9/9/9 11/11/11
f 15/15/15 11/11/11 13/13/13
f 9/9/9 10/10/10 11/11/11
f 10/10/10 203/203/203 204/204/204
f 202/202/202 203/203/203 10/10/10
f 10/10/10 9/9/9 202/202/202
f 199/199/199 202/202/202 9/9/9
f 199/199/199 9/9/9 15/15/15
f 198/198/198 15/15/15 13/13/13
f 15/15/15 198/198/198 199/199/199
f 13/13/13 201/201/201 198/198/198
f 198/198/198 193/193/193 199/199/199
f 687/687/687 657/657/657 409/409/409
f 689/689/689 688/688/688 409/409/409
f 409/409/409 408/408/408 689/689/689
f 409/409/409 688/688/688 687/687/687
f 399/399/399 400/400/400 397/397/397
f 397/397/397 398/398/398 399/399/399
f 402/402/402 399/399/399 398/398/398
f 401/401/401 402/402/402 398/398/398
f 398/398/398 403/403/403 401/401/401
f 401/401/401 403/403/403 559/559/559
f 48/48/48 314/314/314 347/347/347
f 349/349/349 49/49/49 48/48/48
f 48/48/48 348/348/348 349/349/349
f 347/347/347 348/348/348 48/48/48
f 39/39/39 40/40/40 37/37/37
f 37/37/37 38/38/38 39/39/39
f 43/43/43 40/40/40 39/39/39
f 40/40/40 43/43/43 41/41/41
f 41/41/41 42/42/42 40/40/40
f 41/41/41 209/209/209 42/42/42
f 156/156/156 255/255/255 256/256/256
f 128/128/128 339/339/339 340/340/340
f 128/128/128 127/127/127 339/339/339
f 128/128/128 110/110/110 126/126/126
f 126/126/126 127/127/127 128/128/128
f 355/355/355 339/339/339 127/127/127
f 127/127/127 263/263/263 355/355/355
f 263/263/263 127/127/127 185/185/185
f 184/184/184 185/185/185 127/127/127
f 127/127/127 126/126/126 184/184/184
f 692/692/692 263/263/263 488/488/488
f 263/263/263 262/262/262 538/538/538
f 538/538/538 488/488/488 263/263/263
f 552/552/552 671/671/671 672/672/672
f 548/548/548 375/375/375 553/553/553
f 553/553/553 672/672/672 613/613/613
f 613/613/613 548/548/548 553/553/553
f 381/381/381 375/375/375 548/548/548
f 381/381/381 376/376/376 375/375/375
f 381/381/381 379/379/379 376/376/376
f 379/379/379 380/380/380 376/376/376
f 379/379/379 381/381/381 549/549/549
f 548/548/548 549/549/549 381/381/381
f 549/549/549 548/548/548 543/543/543
f 543/543/543 548/548/548 458/458/458
f 548/548/548 613/613/613 459/459/459
f 459/459/459 458/458/458 548/548/548
f 550/550/550 549/549/549 543/543/543
f 549/549/549 550/550/550 379/379/379
f 304/304/304 290/290/290 293/293/293
f 292/292/292 293/293/293 290/290/290
f 290/290/290 291/291/291 292/292/292
f 293/293/293 305/305/305 304/304/304
f 299/299/299 304/304/304 305/305/305
f 649/649/649 305/305/305 637/637/637
f 305/305/305 649/649/649 646/646/646
f 646/646/646 300/300/300 305/305/305
f 305/305/305 300/300/300 299/299/299
f 298/298/298 299/299/299 300/300/300
f 300/300/300 646/646/646 644/644/644
f 644/644/644 645/645/645 300/300/300
f 458/458/458 461/461/461 544/544/544
f 460/460/460 461/461/461 458/458/458
f 458/458/458 459/459/459 460/460/460
f 193/193/193 198/198/198 201/201/201
f 202/202/202 199/199/199 267/267/267
f 193/193/193 100/100/100 199/199/199
f 199/199/199 100/100/100 99/99/99
f 99/99/99 267/267/267 199/199/199
f 267/267/267 330/330/330 202/202/202
f 203/203/203 202/202/202 330/330/330
f 204/204/204 203/203/203 331/331/331
f 330/330/330 331/331/331 203/203/203
f 265/265/265 204/204/204 367/367/367
f 204/204/204 331/331/331 367/367/367
f 265/265/265 367/367/367 554/554/554
f 265/265/265 554/554/554 612/612/612
f 367/367/367 671/671/671 554/554/554
f 671/671/671 552/552/552 554/554/554
f 378/378/378 612/612/612 554/554/554
f 554/554/554 552/552/552 377/377/377
f 377/377/377 378/378/378 554/554/554
f 675/675/675 612/612/612 378/378/378
f 612/612/612 675/675/675 674/674/674
f 378/378/378 380/380/380 551/551/551
f 378/378/378 551/551/551 675/675/675
f 376/376/376 380/380/380 378/378/378
f 377/377/377 376/376/376 378/378/378
f 553/553/553 375/375/375 377/377/377
f 377/377/377 552/552/552 553/553/553
f 375/375/375 376/376/376 377/377/377
f 672/672/672 553/553/553 552/552/552
f 55/55/55 327/327/327 151/151/151
f 327/327/327 158/158/158 151/151/151
f 143/143/143 151/151/151 158/158/158
f 151/151/151 143/143/143 149/149/149
f 149/149/149 150/150/150 151/151/151
f 106/106/106 327/327/327 55/55/55
f 104/104/104 106/106/106 55/55/55
f 102/102/102 103/103/103 104/104/104
f 47/47/47 194/194/194 102/102/102
f 93/93/93 103/103/103 102/102/102
f 93/93/93 102/102/102 194/194/194
f 194/194/194 91/91/91 93/93/93
f 91/91/91 92/92/92 93/93/93
f 143/143/143 92/92/92 91/91/91
f 158/158/158 92/92/92 143/143/143
f 462/462/462 545/545/545 405/405/405
f 452/452/452 462/462/462 465/465/465
f 545/545/545 462/462/462 452/452/452
f 464/464/464 465/465/465 462/462/462
f 417/417/417 466/466/466 464/464/464
f 510/510/510 669/669/669 417/417/417
f 466/466/466 417/417/417 669/669/669
f 669/669/669 510/510/510 518/518/518
f 518/518/518 510/510/510 503/503/503
f 510/510/510 511/511/511 509/509/509
f 509/509/509 503/503/503 510/510/510
f 503/503/503 453/453/453 518/518/518
f 503/503/503 451/451/451 453/453/453
f 590/590/590 591/591/591 592/592/592
f 240/240/240 241/241/241 242/242/242
f 678/678/678 679/679/679 676/676/676
f 676/676/676 677/677/677 678/678/678
f 337/337/337 338/338/338 335/335/335
f 335/335/335 336/336/336 337/337/337
f 380/380/380 379/379/379 550/550/550
f 543/543/543 528/528/528 550/550/550
f 528/528/528 614/614/614 550/550/550
f 502/502/502 550/550/550 614/614/614
f 550/550/550 551/551/551 380/380/380
f 544/544/544 543/543/543 458/458/458
f 528/528/528 543/543/543 544/544/544
f 614/614/614 528/528/528 527/527/527
f 544/544/544 529/529/529 528/528/528
f 527/527/527 528/528/528 529/529/529
f 614/614/614 390/390/390 502/502/502
f 527/527/527 547/547/547 614/614/614
f 390/390/390 614/614/614 547/547/547
f 502/502/502 390/390/390 388/388/388
f 388/388/388 387/387/387 502/502/502
f 27/27/27 390/390/390 547/547/547
f 388/388/388 390/390/390 27/27/27
f 547/547/547 196/196/196 27/27/27
f 196/196/196 547/547/547 527/527/527
f 27/27/27 26/26/26 388/388/388
f 27/27/27 196/196/196 195/195/195
f 195/195/195 28/28/28 27/27/27
f 27/27/27 28/28/28 22/22/22
f 22/22/22 26/26/26 27/27/27
f 389/389/389 388/388/388 26/26/26
f 388/388/388 389/389/389 386/386/386
f 386/386/386 387/387/387 388/388/388
f 26/26/26 25/25/25 389/389/389
f 26/26/26 22/22/22 21/21/21
f 21/21/21 25/25/25 26/26/26
f 142/142/142 23/23/23 22/22/22
f 22/22/22 28/28/28 142/142/142
f 22/22/22 23/23/23 20/20/20
f 20/20/20 21/21/21 22/22/22
f 142/142/142 28/28/28 268/268/268
f 28/28/28 195/195/195 268/268/268
f 268/268/268 201/201/201 142/142/142
f 170/170/170 201/201/201 268/268/268
f 167/167/167 170/170/170 268/268/268
f 268/268/268 195/195/195 167/167/167
f 201/201/201 170/170/170 193/193/193
f 192/192/192 193/193/193 170/170/170
f 170/170/170 169/169/169 192/192/192
f 351/351/351 350/350/350 369/369/369
f 352/352/352 353/353/353 350/350/350
f 350/350/350 351/351/351 352/352/352
f 700/700/700 690/690/690 351/351/351
f 351/351/351 370/370/370 700/700/700
f 352/352/352 351/351/351 690/690/690
f 369/369/369 370/370/370 351/351/351
f 691/691/691 354/354/354 352/352/352
f 690/690/690 691/691/691 352/352/352
f 353/353/353 352/352/352 354/354/354
f 343/343/343 344/344/344 341/341/341
f 341/341/341 342/342/342 343/343/343
f 344/344/344 343/343/343 345/345/345
f 345/345/345 346/346/346 344/344/344
f 345/345/345 684/684/684 683/683/683
f 683/683/683 686/686/686 345/345/345
f 684/684/684 685/685/685 682/682/682
f 682/682/682 683/683/683 684/684/684
f 572/572/572 573/573/573 574/574/574
f 222/222/222 223/223/223 224/224/224
f 228/228/228 229/229/229 230/230/230
f 578/578/578 579/579/579 580/580/580
f 575/575/575 576/576/576 577/577/577
f 225/225/225 226/226/226 227/227/227
f 587/587/587 588/588/588 589/589/589
f 237/237/237 238/238/238 239/239/239
f 566/566/566 567/567/567 568/568/568
f 216/216/216 217/217/217 218/218/218
f 593/593/593 594/594/594 595/595/595
f 243/243/243 244/244/244 245/245/245
f 144/144/144 79/79/79 269/269/269
f 79/79/79 144/144/144 88/88/88
f 88/88/88 80/80/80 79/79/79
f 79/79/79 80/80/80 78/78/78
f 94/94/94 78/78/78 96/96/96
f 96/96/96 78/78/78 80/80/80
f 96/96/96 95/95/95 94/94/94
f 81/81/81 94/94/94 95/95/95
f 96/96/96 271/271/271 95/95/95
f 271/271/271 96/96/96 97/97/97
f 80/80/80 97/97/97 96/96/96
f 97/97/97 80/80/80 88/88/88
f 319/319/319 97/97/97 87/87/87
f 97/97/97 272/272/272 271/271/271
f 88/88/88 87/87/87 97/97/97
f 74/74/74 89/89/89 88/88/88
f 88/88/88 144/144/144 74/74/74
f 87/87/87 88/88/88 89/89/89
f 87/87/87 146/146/146 319/319/319
f 146/146/146 87/87/87 90/90/90
f 89/89/89 90/90/90 87/87/87
f 324/324/324 319/319/319 146/146/146
f 145/145/145 325/325/325 146/146/146
f 146/146/146 325/325/325 324/324/324
f 90/90/90 145/145/145 146/146/146
f 312/312/312 145/145/145 90/90/90
f 90/90/90 148/148/148 312/312/312
f 371/371/371 1/1/1 266/266/266
f 372/372/372 2/2/2 1/1/1
f 1/1/1 371/371/371 372/372/372
f 266/266/266 1/1/1 4/4/4
f 3/3/3 4/4/4 1/1/1
f 1/1/1 2/2/2 3/3/3
f 266/266/266 612/612/612 371/371/371
f 674/674/674 371/371/371 612/612/612
f 371/371/371 674/674/674 673/673/673
f 673/673/673 372/372/372 371/371/371
f 612/612/612 266/266/266 265/265/265
f 4/4/4 264/264/264 266/266/266
f 368/368/368 320/320/320 323/323/323
f 322/322/322 323/323/323 320/320/320
f 320/320/320 321/321/321 322/322/322
f 368/368/368 323/323/323 664/664/664
f 664/664/664 323/323/323 322/322/322
f 322/322/322 665/665/665 664/664/664
f 607/607/607 608/608/608 526/526/526
f 483/483/483 482/482/482 513/513/513
f 482/482/482 483/483/483 484/484/484
f 501/501/501 485/485/485 484/484/484
f 484/484/484 512/512/512 501/501/501
f 484/484/484 485/485/485 482/482/482
f 481/481/481 495/495/495 501/501/501
f 501/501/501 479/479/479 481/481/481
f 477/477/477 479/479/479 501/501/501
f 479/479/479 478/478/478 481/481/481
f 481/481/481 480/480/480 494/494/494
f 494/494/494 495/495/495 481/481/481
f 478/478/478 480/480/480 481/481/481
f 169/169/169 170/170/170 167/167/167
f 168/168/168 167/167/167 197/197/197
f 196/196/196 197/197/197 167/167/167
f 167/167/167 195/195/195 196/196/196
f 167/167/167 168/168/168 169/169/169
f 197/197/197 356/356/356 168/168/168
f 527/527/527 546/546/546 196/196/196
f 546/546/546 527/527/527 530/530/530
f 529/529/529 530/530/530 527/527/527
f 530/530/530 693/693/693 546/546/546
f 100/100/100 193/193/193 192/192/192
f 192/192/192 101/101/101 100/100/100
f 100/100/100 101/101/101 98/98/98
f 98/98/98 99/99/99 100/100/100
f 16/16/16 21/21/21 20/20/20
f 20/20/20 17/17/17 16/16/16
f 24/24/24 16/16/16 19/19/19
f 25/25/25 21/21/21 16/16/16
f 16/16/16 24/24/24 25/25/25
f 18/18/18 19/19/19 16/16/16
f 16/16/16 17/17/17 18/18/18
f 383/383/383 382/382/382 24/24/24
f 24/24/24 363/363/363 383/383/383
f 25/25/25 24/24/24 382/382/382
f 19/19/19 363/363/363 24/24/24
f 363/363/363 19/19/19 18/18/18
f 18/18/18 364/364/364 363/363/363
f 384/384/384 383/383/383 363/363/363
f 363/363/363 364/364/364 384/384/384
f 382/382/382 383/383/383 384/384/384
f 382/382/382 385/385/385 386/386/386
f 386/386/386 389/389/389 382/382/382
f 382/382/382 389/389/389 25/25/25
f 384/384/384 385/385/385 382/382/382
f 581/581/581 582/582/582 583/583/583
f 231/231/231 232/232/232 233/233/233
f 219/219/219 220/220/220 221/221/221
f 569/569/569 570/570/570 571/571/571
f 584/584/584 585/585/585 586/586/586
f 234/234/234 235/235/235 236/236/236
f 265/265/265 266/266/266 264/264/264
f 264/264/264 4/4/4 333/333/333
f 4/4/4 3/3/3 332/332/332
f 332/332/332 333/333/333 4/4/4
f 332/332/332 3/3/3 29/29/29
f 29/29/29 3/3/3 2/2/2
f 29/29/29 32/32/32 332/332/332
f 32/32/32 29/29/29 30/30/30
f 2/2/2 30/30/30 29/29/29
f 30/30/30 31/31/31 32/32/32
f 392/392/392 31/31/31 30/30/30
f 30/30/30 391/391/391 392/392/392
f 391/391/391 30/30/30 2/2/2
f 2/2/2 372/372/372 391/391/391
f 673/673/673 392/392/392 391/391/391
f 391/391/391 372/372/372 673/673/673
f 333/333/333 334/334/334 264/264/264
f 12/12/12 264/264/264 334/334/334
f 334/334/334 200/200/200 12/12/12
f 12/12/12 204/204/204 264/264/264
f 264/264/264 204/204/204 265/265/265
f 12/12/12 200/200/200 14/14/14
f 204/204/204 12/12/12 10/10/10
f 11/11/11 12/12/12 14/14/14
f 10/10/10 12/12/12 11/11/11
f 14/14/14 200/200/200 201/201/201
f 201/201/201 13/13/13 14/14/14
f 210/210/210 211/211/211 212/212/212
f 560/560/560 561/561/561 562/562/562
f 596/596/596 597/597/597 598/598/598
f 246/246/246 247/247/247 248/248/248
f 213/213/213 214/214/214 215/215/215
f 563/563/563 564/564/564 565/565/565
f 252/252/252 253/253/253 254/254/254
f 602/602/602 603/603/603 604/604/604
f 360/360/360 361/361/361 362/362/362
f 697/697/697 698/698/698 699/699/699
f 599/599/599 600/600/600 601/601/601
f 249/249/249 250/250/250 251/251/251
