# shonisa reconstructed from live game memory
v -8.57806 89.71381 -83.96701
v -11.03934 83.20094 -90.10087
v 0.00000 88.55634 -92.25613
v 0.00000 92.83839 -85.16252
v -17.02955 87.44716 -68.48009
v -13.37993 84.64901 -74.94154
v -14.20958 90.78163 -75.59573
v -11.82206 85.54084 -82.62717
v -15.10241 79.24634 -80.03229
v -17.41092 79.83954 -70.27691
v -8.28807 75.90314 -97.60043
v 0.00000 85.02998 -99.79650
v -13.63143 90.42378 -75.17442
v -16.01951 85.08222 -75.50866
v -12.20104 85.45409 -81.31833
v -14.46492 79.78344 -78.82695
v -16.84711 79.81304 -70.29797
v -16.22315 87.64906 -67.95889
v -11.79975 61.55997 -81.15680
v -15.84730 71.22620 -80.98785
v -20.47618 72.35445 -65.33492
v -15.84133 56.79937 -65.55318
v -19.29828 51.13683 -53.18313
v 0.00000 44.43778 -53.22786
v 0.00000 52.02811 -66.81253
v -9.48345 93.62364 -75.58465
v 0.00000 96.75674 -75.71407
v -15.88862 72.83371 -80.92064
v -15.19918 75.76397 -80.92795
v -19.72785 75.86147 -64.57896
v -23.48915 36.30130 76.16895
v 0.00000 29.42019 76.20030
v -0.00000 23.52700 35.30809
v -27.07342 31.59351 35.32507
v -21.89796 78.71750 135.55768
v -25.73178 83.68465 108.43878
v 0.00000 98.62775 108.74942
v -0.00000 93.02885 135.73932
v -36.32999 55.31997 76.33563
v -40.31375 57.16436 35.37413
v -5.60868 68.02585 -110.95602
v -2.55482 69.53386 -122.62498
v -2.96256 71.27988 -123.52269
v -6.07864 71.21465 -110.93119
v -8.06460 65.16500 -97.58667
v -9.00554 71.18823 -97.56539
v -15.53821 91.00748 -64.01495
v -26.41866 68.00204 -53.15437
v -21.36670 87.68292 -53.18631
v -0.00000 57.88031 -81.54037
v -26.41866 68.00204 -53.15437
v -21.36670 87.68292 -53.18631
v -25.42867 89.82068 -39.00370
v -33.02844 63.59736 -38.95923
v -28.86264 91.27767 -21.03447
v -36.78137 60.51568 -21.32454
v -0.00000 62.54736 -97.55213
v -0.00000 65.62108 -111.05547
v -9.82129 108.68186 56.32489
v 0.00000 106.15979 75.98530
v -29.87336 90.13979 76.26863
v -25.96130 32.70593 -1.75670
v -39.13543 58.98309 -1.77341
v -31.13830 92.98178 -1.73809
v -33.30716 94.54097 35.37726
v -32.27594 55.85709 94.19695
v -25.73178 83.68465 108.43878
v -28.19272 54.02426 108.71545
v -28.19272 54.02426 108.71545
v -17.03713 50.54244 135.66779
v -0.00000 68.49361 -123.85213
v -0.00000 71.26073 -125.02763
v -2.40874 75.55119 -122.98689
v -5.67828 75.64643 -110.98625
v -5.91806 72.82060 -110.89223
v -2.85148 72.84036 -123.61993
v -8.73605 72.81864 -97.40717
v -29.48620 44.88175 101.43794
v -21.81911 44.68666 108.82538
v -23.70334 39.23090 93.38642
v -31.14622 43.59263 93.69984
v -33.61295 45.08277 87.67345
v -30.69671 47.58550 103.28955
v -34.04215 50.12193 94.59370
v -35.30313 47.88652 87.52943
v 0.00000 39.55228 108.82053
v 0.00000 34.63398 93.55494
v 0.00000 39.55228 108.82053
v -21.81911 44.68666 108.82538
v -0.00000 46.86966 135.57544
v -5.91806 72.82060 -110.89223
v 0.00000 75.51812 -110.87031
v 0.00000 75.50750 -122.24770
v -2.85148 72.84036 -123.61993
v -9.00554 71.18823 -97.56539
v -0.00000 65.87128 -97.56892
v -0.00000 61.82911 -80.68416
v -15.84730 71.22620 -80.98785
v -2.96256 71.27988 -123.52269
v -0.00000 69.87167 -123.31288
v -0.00000 68.05310 -110.93032
v -6.07864 71.21465 -110.93119
v -15.88862 72.83371 -80.92064
v -20.47618 72.35445 -65.33492
v 0.00000 73.20626 -61.95469
v 0.00000 75.98122 -79.17635
v 0.00000 73.20626 -61.95469
v -20.47618 72.35445 -65.33492
v -8.73605 72.81864 -97.40717
v 0.00000 75.44827 -97.82782
v -0.00000 71.26073 -125.02763
v -23.71334 44.43026 -38.96024
v -19.29828 51.13683 -53.18313
v -7.81225 54.70246 193.46835
v -9.24785 55.30775 179.03577
v -13.48181 71.78120 179.04373
v -11.34640 70.20932 193.49545
v -12.06941 53.99969 160.35732
v -0.00000 51.44424 160.23415
v -16.75062 73.84513 160.23564
v -9.39668 67.27059 209.63120
v -6.56573 53.64047 206.64091
v 0.00000 52.35702 193.57309
v -0.00000 50.88275 206.10408
v -5.38159 76.72031 213.54895
v -3.59544 67.10287 226.63907
v -7.30158 54.80037 224.30164
v -5.15252 46.36591 220.58186
v -0.00000 44.72336 219.73656
v -5.42709 44.62720 236.12517
v -0.00000 52.03330 239.53223
v -3.54738 38.37969 232.61040
v -0.00000 36.80984 231.97142
v -3.25015 35.06264 245.87384
v -0.00000 30.61553 243.27406
v -0.00000 38.71664 247.73257
v -0.00000 22.32501 257.87732
v -0.00000 76.19303 232.77516
v -3.96619 97.42155 226.10382
v -0.00000 103.21188 219.01140
v -0.00000 110.84366 231.87369
v -1.49523 108.15884 233.98373
v -0.00000 115.33087 240.08138
v -5.18337 87.27223 219.15012
v -0.00000 88.04111 160.23764
v 0.00000 85.90005 179.04462
v -0.00000 95.17618 206.86433
v 0.00000 97.92823 -64.08889
v 0.00000 102.39285 -53.18795
v -0.00000 23.59624 -1.76529
v -0.00000 106.96649 -39.04403
v -0.00000 110.42717 -20.72821
v 0.00000 75.60979 -124.27731
v 0.00000 80.44262 -111.41203
v 0.00000 102.39285 -53.18795
v 0.00000 72.86058 -125.06590
v -0.00000 112.09872 -1.73292
v -0.00000 112.39812 35.41729
v 0.00000 72.86058 -125.06590
v 0.00000 35.41583 -38.90147
v 0.00000 44.43778 -53.22786
v -3.21772 120.53989 62.04858
v 0.00000 129.03964 68.04757
v 0.00000 119.10249 69.21783
v -25.29452 36.85401 -23.55348
v 0.00000 28.49055 -24.00502
v 0.00000 85.13031 193.62460
v -37.10303 46.21682 -17.50903
v -38.68641 47.19562 -9.36797
v -40.34175 52.31757 -17.55853
v -38.96057 51.17123 -23.20366
v -46.90802 46.25754 -6.02384
v -64.31419 36.55421 -0.82552
v -57.54892 42.38562 -13.80780
v -81.07910 23.19205 -8.84451
v -81.67296 22.23526 -15.94415
v -57.88663 41.17448 -22.71503
v -109.36066 10.04624 -0.49894
v -109.27010 10.66708 2.56255
v -113.61009 8.27497 5.16654
v -108.73029 9.86841 6.37424
v -45.10138 43.51295 -3.72275
v -53.22259 36.41882 -12.52776
v -62.35542 33.90649 2.49114
v -107.62703 7.20800 7.85681
v -107.13631 5.49703 2.04365
v -115.00653 5.31470 6.26828
v -115.00653 5.31470 6.26828
v -38.48064 47.71461 -25.39261
v -38.96057 51.17123 -23.20366
v -57.17746 38.56366 -25.15618
v -38.48064 47.71461 -25.39261
v -57.17746 38.56366 -25.15618
v -37.10303 46.21682 -17.50903
v -108.78562 7.66373 -2.97356
v -81.47348 19.54613 -18.46873
v -38.68641 47.19562 -9.36797
v -79.99045 22.37745 -0.75781
v -79.23610 19.97934 1.55989
v -79.83281 17.85008 -8.01348
v -40.34175 52.31757 -17.55853
v -40.20271 51.01035 -12.95897
v -108.78562 7.66373 -2.97356
v -81.47348 19.54613 -18.46873
v -40.20271 51.01035 -12.95897
v -38.48064 47.71461 -25.39261
v 0.00000 98.62775 108.74942
v 0.00000 123.52864 53.23467
v 0.00000 53.04940 179.03476
v -0.00000 94.58620 235.30804
v -0.00000 86.89335 233.70525
v -0.00000 104.88577 237.60783
v -33.61295 45.08277 87.67345
v -52.24046 35.23347 90.54427
v -49.57937 33.74593 98.39890
v -31.14622 43.59263 93.69984
v -39.13237 38.46257 108.06369
v -29.48620 44.88175 101.43794
v -34.04215 50.12193 94.59370
v -52.26517 40.16216 99.43493
v -53.99964 38.47520 89.76643
v -35.30313 47.88652 87.52943
v -30.69671 47.58550 103.28955
v -40.33868 41.52840 110.03769
v -56.83228 30.56837 107.59872
v -74.97903 23.46436 101.44379
v -73.21120 22.34503 105.12145
v -72.59085 23.39403 109.87133
v -75.77669 28.21272 106.28793
v -76.79092 26.43879 100.27318
v -57.98200 33.69342 110.09742
v -73.65675 26.33953 112.17233
v -40.33868 41.52840 110.03769
v -30.69671 47.58550 103.28955
v -73.65675 26.33953 112.17233
v -57.98200 33.69342 110.09742
v -79.59938 20.83733 108.24624
v -81.33029 23.45297 108.73410
v -81.33029 23.45297 108.73410
v 8.57806 89.71381 -83.96701
v 11.03934 83.20094 -90.10087
v 17.02955 87.44716 -68.48009
v 14.20958 90.78163 -75.59573
v 13.37993 84.64901 -74.94154
v 11.82206 85.54084 -82.62717
v 15.10241 79.24634 -80.03229
v 17.41092 79.83954 -70.27691
v 8.28807 75.90314 -97.60043
v 13.63143 90.42378 -75.17442
v 12.20104 85.45409 -81.31833
v 16.01951 85.08222 -75.50866
v 14.46492 79.78344 -78.82695
v 16.84711 79.81304 -70.29797
v 16.22315 87.64906 -67.95889
v 11.79975 61.55997 -81.15680
v 15.84133 56.79937 -65.55318
v 20.47618 72.35445 -65.33492
v 15.84730 71.22620 -80.98785
v 19.29828 51.13683 -53.18313
v 9.48345 93.62364 -75.58465
v 19.72785 75.86147 -64.57896
v 15.19918 75.76397 -80.92795
v 15.88862 72.83371 -80.92064
v 23.48915 36.30130 76.16895
v 27.07342 31.59351 35.32507
v 21.89796 78.71750 135.55768
v 25.73178 83.68465 108.43878
v 36.32999 55.31997 76.33563
v 40.31375 57.16436 35.37413
v 5.60868 68.02585 -110.95602
v 6.07864 71.21465 -110.93119
v 2.96256 71.27988 -123.52269
v 2.55482 69.53386 -122.62498
v 8.06460 65.16500 -97.58667
v 9.00554 71.18823 -97.56539
v 15.53821 91.00748 -64.01495
v 26.41866 68.00204 -53.15437
v 21.36670 87.68292 -53.18631
v 26.41866 68.00204 -53.15437
v 33.02844 63.59736 -38.95923
v 25.42867 89.82068 -39.00370
v 21.36670 87.68292 -53.18631
v 36.78137 60.51568 -21.32454
v 28.86264 91.27767 -21.03447
v 9.82129 108.68186 56.32489
v 29.87336 90.13979 76.26863
v 39.13543 58.98309 -1.77341
v 25.96130 32.70593 -1.75670
v 33.30716 94.54097 35.37726
v 31.13830 92.98178 -1.73809
v 32.27594 55.85709 94.19695
v 25.73178 83.68465 108.43878
v 28.19272 54.02426 108.71545
v 28.19272 54.02426 108.71545
v 17.03713 50.54244 135.66779
v 2.40874 75.55119 -122.98689
v 2.85148 72.84036 -123.61993
v 5.91806 72.82060 -110.89223
v 5.67828 75.64643 -110.98625
v 8.73605 72.81864 -97.40717
v 29.48619 44.88175 101.43795
v 31.14621 43.59263 93.69984
v 23.70334 39.23090 93.38642
v 21.81911 44.68666 108.82538
v 33.61295 45.08277 87.67346
v 30.69671 47.58550 103.28956
v 34.04215 50.12193 94.59370
v 35.30313 47.88652 87.52943
v 21.81911 44.68666 108.82538
v 5.91806 72.82060 -110.89223
v 2.85148 72.84036 -123.61993
v 9.00554 71.18823 -97.56539
v 15.84730 71.22620 -80.98785
v 2.96256 71.27988 -123.52269
v 6.07864 71.21465 -110.93119
v 15.88862 72.83371 -80.92064
v 20.47618 72.35445 -65.33492
v 20.47618 72.35445 -65.33492
v 8.73605 72.81864 -97.40717
v 19.29828 51.13683 -53.18313
v 23.71334 44.43026 -38.96024
v 7.81225 54.70246 193.46835
v 11.34640 70.20932 193.49545
v 13.48181 71.78120 179.04373
v 9.24785 55.30775 179.03577
v 12.06941 53.99969 160.35732
v 16.75062 73.84513 160.23564
v 6.56573 53.64047 206.64091
v 9.39668 67.27059 209.63120
v 5.38159 76.72031 213.54895
v 7.30158 54.80037 224.30164
v 3.59544 67.10287 226.63907
v 5.15252 46.36591 220.58186
v 5.42709 44.62720 236.12517
v 3.54738 38.37969 232.61040
v 3.25015 35.06264 245.87384
v 3.96619 97.42155 226.10382
v 1.49523 108.15884 233.98373
v 5.18337 87.27223 219.15012
v 3.21772 120.53989 62.04858
v 25.29452 36.85401 -23.55348
v 38.68641 47.19562 -9.36797
v 37.10303 46.21682 -17.50903
v 40.34175 52.31757 -17.55853
v 38.96057 51.17123 -23.20366
v 46.90802 46.25754 -6.02384
v 57.54892 42.38562 -13.80780
v 64.31419 36.55421 -0.82552
v 57.88663 41.17448 -22.71503
v 81.67296 22.23527 -15.94415
v 81.07910 23.19205 -8.84451
v 109.36066 10.04624 -0.49894
v 113.61009 8.27497 5.16654
v 109.27010 10.66709 2.56255
v 108.73029 9.86842 6.37424
v 45.10138 43.51295 -3.72275
v 62.35542 33.90649 2.49114
v 53.22259 36.41882 -12.52776
v 107.62703 7.20801 7.85681
v 115.00653 5.31470 6.26828
v 107.13631 5.49703 2.04365
v 115.00653 5.31470 6.26828
v 38.48064 47.71461 -25.39261
v 57.17746 38.56367 -25.15618
v 38.96057 51.17123 -23.20366
v 38.48064 47.71461 -25.39261
v 37.10303 46.21682 -17.50903
v 57.17746 38.56367 -25.15618
v 81.47348 19.54614 -18.46872
v 108.78562 7.66373 -2.97356
v 38.68641 47.19562 -9.36797
v 79.99045 22.37745 -0.75781
v 79.23610 19.97934 1.55989
v 79.83281 17.85008 -8.01347
v 40.20271 51.01035 -12.95897
v 40.34175 52.31757 -17.55853
v 108.78562 7.66373 -2.97356
v 81.47348 19.54614 -18.46872
v 40.20271 51.01035 -12.95897
v 38.48064 47.71461 -25.39261
v 33.61295 45.08277 87.67346
v 31.14621 43.59263 93.69984
v 49.57936 33.74592 98.39891
v 52.24045 35.23346 90.54427
v 29.48619 44.88175 101.43795
v 39.13237 38.46256 108.06371
v 34.04215 50.12193 94.59370
v 35.30313 47.88652 87.52943
v 53.99964 38.47519 89.76644
v 52.26517 40.16215 99.43494
v 40.33868 41.52840 110.03770
v 30.69671 47.58550 103.28956
v 56.83228 30.56837 107.59873
v 73.21119 22.34502 105.12147
v 74.97903 23.46435 101.44380
v 72.59084 23.39402 109.87135
v 76.79092 26.43879 100.27319
v 75.77668 28.21271 106.28794
v 57.98199 33.69341 110.09743
v 73.65674 26.33953 112.17234
v 40.33868 41.52840 110.03770
v 30.69671 47.58550 103.28956
v 57.98199 33.69341 110.09743
v 73.65674 26.33953 112.17234
v 79.59937 20.83732 108.24625
v 81.33028 23.45296 108.73412
v 81.33028 23.45296 108.73412
vt 0.233621 0.792939
vt 0.212204 0.775870
vt 0.192486 0.817536
vt 0.219525 0.831400
vt 0.275741 0.779115
vt 0.259014 0.774294
vt 0.259152 0.789883
vt 0.241740 0.779097
vt 0.248598 0.760169
vt 0.270813 0.759099
vt 0.169074 0.750990
vt 0.150798 0.799225
vt 0.123773 0.939949
vt 0.121885 0.904565
vt 0.157557 0.906940
vt 0.141050 0.873440
vt 0.102623 0.872277
vt 0.086968 0.910782
vt 0.248860 0.655395
vt 0.246803 0.703359
vt 0.299416 0.710749
vt 0.303329 0.645782
vt 0.352008 0.629019
vt 0.337227 0.553494
vt 0.300471 0.602775
vt 0.256175 0.800194
vt 0.242095 0.841513
vt 0.242717 0.729580
vt 0.243918 0.746139
vt 0.305647 0.743309
vt 0.835905 0.584081
vt 0.861251 0.483678
vt 0.691913 0.435032
vt 0.683829 0.544353
vt 0.141620 0.434094
vt 0.027635 0.459880
vt 0.026756 0.365941
vt 0.137943 0.351735
vt 0.830801 0.677390
vt 0.685344 0.675347
vt 0.094570 0.670191
vt 0.033572 0.665247
vt 0.026933 0.670570
vt 0.093989 0.681858
vt 0.170996 0.670213
vt 0.171648 0.692265
vt 0.302884 0.806283
vt 0.361690 0.693408
vt 0.355109 0.786893
vt 0.247128 0.617242
vt 0.361719 0.693265
vt 0.355045 0.786957
vt 0.408410 0.793214
vt 0.418284 0.680628
vt 0.467858 0.798351
vt 0.480095 0.679195
vt 0.167981 0.637530
vt 0.092229 0.645585
vt 0.758489 0.890732
vt 0.843249 0.905784
vt 0.829344 0.773400
vt 0.553371 0.550122
vt 0.553873 0.677463
vt 0.545766 0.796647
vt 0.682699 0.784595
vt 0.892700 0.684696
vt 0.950106 0.763863
vt 0.952793 0.677348
vt 0.045152 0.534811
vt 0.165519 0.516268
vt 0.024320 0.655052
vt 0.015742 0.662326
vt 0.033131 0.735569
vt 0.094420 0.742592
vt 0.096305 0.729906
vt 0.029137 0.723013
vt 0.170294 0.736416
vt 0.918610 0.644136
vt 0.959616 0.624871
vt 0.899654 0.599717
vt 0.890476 0.630789
vt 0.864253 0.636981
vt 0.914140 0.653238
vt 0.893459 0.657969
vt 0.866774 0.645834
vt 0.985310 0.540738
vt 0.928972 0.513617
vt 0.112715 0.632262
vt 0.067595 0.581579
vt 0.211121 0.572229
vt 0.814950 0.436756
vt 0.820891 0.405910
vt 0.768271 0.399437
vt 0.763546 0.418186
vt 0.879420 0.396720
vt 0.878243 0.351457
vt 0.933678 0.342560
vt 0.933406 0.399061
vt 0.763146 0.392263
vt 0.762145 0.370579
vt 0.810704 0.362630
vt 0.815045 0.392738
vt 0.936482 0.462485
vt 0.990241 0.475385
vt 0.991187 0.410316
vt 0.939285 0.410383
vt 0.997460 0.336620
vt 0.990077 0.400577
vt 0.870258 0.450625
vt 0.869947 0.405583
vt 0.739338 0.382412
vt 0.415053 0.601116
vt 0.352028 0.629128
vt 0.400874 0.401440
vt 0.347192 0.433280
vt 0.326070 0.380569
vt 0.382986 0.359124
vt 0.264415 0.473900
vt 0.297278 0.513600
vt 0.240990 0.411449
vt 0.445748 0.342237
vt 0.450706 0.380419
vt 0.421406 0.434489
vt 0.460774 0.411674
vt 0.447092 0.303413
vt 0.512090 0.315455
vt 0.509820 0.350422
vt 0.513082 0.381846
vt 0.518936 0.408047
vt 0.566833 0.358943
vt 0.569939 0.325321
vt 0.566403 0.390731
vt 0.568026 0.406093
vt 0.625830 0.370702
vt 0.624968 0.400176
vt 0.628859 0.352598
vt 0.695737 0.381320
vt 0.515407 0.280799
vt 0.464976 0.203075
vt 0.432150 0.186499
vt 0.470547 0.146431
vt 0.483875 0.150991
vt 0.500421 0.123428
vt 0.447265 0.263937
vt 0.228246 0.336361
vt 0.309679 0.315235
vt 0.389973 0.247047
vt 0.283656 0.862026
vt 0.332554 0.897558
vt 0.542099 0.441332
vt 0.380971 0.922010
vt 0.447096 0.943114
vt 0.021984 0.740557
vt 0.085287 0.771861
vt 0.332357 0.897618
vt 0.016354 0.727127
vt 0.532724 0.950579
vt 0.679281 0.928319
vt 0.743274 0.398441
vt 0.383253 0.507158
vt 0.337308 0.553337
vt 0.777984 0.951676
vt 0.805561 0.988074
vt 0.805969 0.949759
vt 0.475769 0.569848
vt 0.452028 0.467037
vt 0.367765 0.296446
vt 0.490578 0.613483
vt 0.523307 0.627479
vt 0.491972 0.655052
vt 0.466984 0.645257
vt 0.911149 0.182350
vt 0.815007 0.180006
vt 0.867491 0.240513
vt 0.685127 0.226278
vt 0.687977 0.268857
vt 0.876162 0.296612
vt 0.575090 0.214956
vt 0.572548 0.197427
vt 0.545063 0.191531
vt 0.570344 0.174737
vt 0.909982 0.165698
vt 0.861996 0.102153
vt 0.814961 0.164105
vt 0.566884 0.155567
vt 0.568689 0.125784
vt 0.536201 0.131730
vt 0.530540 0.190763
vt 0.974826 0.296897
vt 0.974826 0.269459
vt 0.879628 0.319663
vt 0.974826 0.079381
vt 0.868981 0.035339
vt 0.974826 0.127219
vt 0.574808 0.229915
vt 0.687446 0.284951
vt 0.974826 0.167667
vt 0.682474 0.177829
vt 0.680603 0.160327
vt 0.681245 0.107747
vt 0.974826 0.230116
vt 0.974826 0.186044
vt 0.566977 0.097512
vt 0.678639 0.048840
vt 0.510240 0.647276
vt 0.462606 0.627176
vt 0.907022 0.893912
vt 0.746042 0.970898
vt 0.367270 0.465423
vt 0.502906 0.203781
vt 0.508793 0.247381
vt 0.498674 0.155823
vt 0.023904 0.190057
vt 0.159130 0.183597
vt 0.160099 0.231366
vt 0.026139 0.241127
vt 0.122342 0.297516
vt 0.028671 0.288607
vt 0.022033 0.087710
vt 0.157410 0.090913
vt 0.160541 0.152961
vt 0.026779 0.146509
vt 0.023831 0.045723
vt 0.127338 0.021661
vt 0.202566 0.290509
vt 0.343886 0.179726
vt 0.345711 0.212888
vt 0.345281 0.243682
vt 0.337993 0.115216
vt 0.342105 0.155184
vt 0.198507 0.025813
vt 0.339392 0.080768
vt 0.119582 0.312674
vt 0.025194 0.302722
vt 0.350393 0.258119
vt 0.203238 0.306674
vt 0.370360 0.210038
vt 0.372419 0.122012
vt 0.382222 0.209569
vt 0.233621 0.792939
vt 0.212204 0.775870
vt 0.275741 0.779115
vt 0.259152 0.789883
vt 0.259014 0.774294
vt 0.241740 0.779097
vt 0.248598 0.760169
vt 0.270813 0.759099
vt 0.169074 0.750990
vt 0.123773 0.939949
vt 0.157557 0.906940
vt 0.121885 0.904565
vt 0.141050 0.873440
vt 0.102623 0.872277
vt 0.086968 0.910782
vt 0.248860 0.655395
vt 0.303329 0.645782
vt 0.299416 0.710749
vt 0.246803 0.703359
vt 0.352008 0.629019
vt 0.256175 0.800194
vt 0.305647 0.743309
vt 0.243918 0.746139
vt 0.242717 0.729580
vt 0.835905 0.584081
vt 0.683829 0.544353
vt 0.141620 0.434094
vt 0.027635 0.459880
vt 0.830801 0.677390
vt 0.685344 0.675347
vt 0.094570 0.670191
vt 0.093989 0.681858
vt 0.026933 0.670570
vt 0.033572 0.665247
vt 0.170996 0.670213
vt 0.171648 0.692265
vt 0.302884 0.806283
vt 0.361690 0.693408
vt 0.355109 0.786893
vt 0.361719 0.693265
vt 0.418284 0.680628
vt 0.408410 0.793214
vt 0.355045 0.786957
vt 0.480095 0.679195
vt 0.467858 0.798351
vt 0.758489 0.890732
vt 0.829344 0.773400
vt 0.553873 0.677463
vt 0.553371 0.550122
vt 0.682699 0.784595
vt 0.545766 0.796647
vt 0.892700 0.684696
vt 0.950106 0.763863
vt 0.952793 0.677348
vt 0.045152 0.534811
vt 0.165519 0.516268
vt 0.033131 0.735569
vt 0.029137 0.723013
vt 0.096305 0.729906
vt 0.094420 0.742592
vt 0.170294 0.736416
vt 0.918610 0.644136
vt 0.890476 0.630789
vt 0.899654 0.599717
vt 0.959616 0.624871
vt 0.864253 0.636981
vt 0.914140 0.653238
vt 0.893459 0.657969
vt 0.866774 0.645834
vt 0.067595 0.581579
vt 0.814950 0.436756
vt 0.763546 0.418186
vt 0.879420 0.396720
vt 0.933406 0.399061
vt 0.763146 0.392263
vt 0.815045 0.392738
vt 0.936482 0.462485
vt 0.990241 0.475385
vt 0.990077 0.400577
vt 0.870258 0.450625
vt 0.352028 0.629128
vt 0.415053 0.601116
vt 0.400874 0.401440
vt 0.382986 0.359124
vt 0.326070 0.380569
vt 0.347192 0.433280
vt 0.264415 0.473900
vt 0.240990 0.411449
vt 0.450706 0.380419
vt 0.445748 0.342237
vt 0.447092 0.303413
vt 0.509820 0.350422
vt 0.512090 0.315455
vt 0.513082 0.381846
vt 0.566833 0.358943
vt 0.566403 0.390731
vt 0.625830 0.370702
vt 0.464976 0.203075
vt 0.483875 0.150991
vt 0.447265 0.263937
vt 0.777984 0.951676
vt 0.475769 0.569848
vt 0.523307 0.627479
vt 0.490578 0.613483
vt 0.491972 0.655052
vt 0.466984 0.645257
vt 0.911149 0.182350
vt 0.867491 0.240513
vt 0.815007 0.180006
vt 0.876162 0.296612
vt 0.687977 0.268857
vt 0.685127 0.226278
vt 0.575090 0.214956
vt 0.545063 0.191531
vt 0.572548 0.197427
vt 0.570344 0.174737
vt 0.909982 0.165698
vt 0.814961 0.164105
vt 0.861996 0.102153
vt 0.566884 0.155567
vt 0.536201 0.131730
vt 0.568689 0.125784
vt 0.530540 0.190763
vt 0.974826 0.296897
vt 0.879628 0.319663
vt 0.974826 0.269459
vt 0.974826 0.079381
vt 0.974826 0.127219
vt 0.868981 0.035339
vt 0.687446 0.284951
vt 0.574808 0.229915
vt 0.974826 0.167667
vt 0.682474 0.177829
vt 0.680603 0.160327
vt 0.681245 0.107747
vt 0.974826 0.186044
vt 0.974826 0.230116
vt 0.566977 0.097512
vt 0.678639 0.048840
vt 0.510240 0.647276
vt 0.462606 0.627176
vt 0.023904 0.190057
vt 0.026139 0.241127
vt 0.160099 0.231366
vt 0.159130 0.183597
vt 0.028671 0.288607
vt 0.122342 0.297516
vt 0.022033 0.087710
vt 0.026779 0.146509
vt 0.160541 0.152961
vt 0.157410 0.090913
vt 0.127338 0.021661
vt 0.023831 0.045723
vt 0.202566 0.290509
vt 0.345711 0.212888
vt 0.343886 0.179726
vt 0.345281 0.243682
vt 0.342105 0.155184
vt 0.337993 0.115216
vt 0.198507 0.025813
vt 0.339392 0.080768
vt 0.119582 0.312674
vt 0.025194 0.302722
vt 0.203238 0.306674
vt 0.350393 0.258119
vt 0.370360 0.210038
vt 0.372419 0.122012
vt 0.382222 0.209569
vn -0.54728 0.69744 -0.46267
vn -0.79334 0.42102 -0.43972
vn 0.00000 0.79579 -0.60557
vn 0.00000 0.89174 -0.45255
vn -0.91063 0.34530 -0.22698
vn -0.93217 0.15775 -0.32584
vn -0.85003 0.40529 -0.33645
vn -0.89986 0.33049 -0.28467
vn -0.92485 0.30069 -0.23290
vn -0.92377 0.21082 -0.31969
vn -0.84604 0.37692 -0.37702
vn 0.00000 0.93818 -0.34614
vn -0.85310 0.40220 -0.33235
vn -0.93071 0.18141 -0.31760
vn -0.81811 0.24059 -0.52231
vn -0.91128 -0.00954 -0.41169
vn -0.98623 -0.00844 -0.16517
vn -0.95947 0.25791 -0.11357
vn -0.65531 -0.67875 -0.33146
vn -0.64157 0.62287 -0.44768
vn -0.93623 -0.02459 -0.35053
vn -0.63333 -0.62609 -0.45487
vn -0.54837 -0.67904 -0.48806
vn -0.00000 -0.86476 -0.50219
vn -0.00000 -0.91300 -0.40795
vn -0.46024 0.86437 -0.20260
vn 0.00000 0.96960 -0.24469
vn -0.46990 -0.84583 -0.25253
vn -0.93666 0.15227 -0.31540
vn -0.93749 0.22679 -0.26397
vn -0.49574 -0.86274 0.09957
vn 0.00000 -0.97642 0.21587
vn 0.00000 -0.99559 0.09386
vn -0.62772 -0.77709 0.04590
vn -0.90480 0.33686 0.26050
vn -0.86582 0.44332 0.23200
vn -0.00000 0.97132 0.23778
vn 0.00000 0.97035 0.24171
vn -0.97144 -0.23568 0.02749
vn -0.99592 -0.08910 0.01443
vn -0.73184 -0.62877 -0.26281
vn -0.60841 -0.70011 -0.37374
vn -0.69331 0.50784 -0.51129
vn -0.55638 0.82395 -0.10740
vn -0.75518 -0.58037 -0.30477
vn -0.16684 0.98548 -0.03149
vn -0.71518 0.67779 -0.17065
vn -0.90919 -0.04421 -0.41402
vn -0.77555 0.55903 -0.29327
vn -0.00000 -0.95064 -0.31029
vn -0.90919 -0.04421 -0.41402
vn -0.77555 0.55903 -0.29327
vn -0.78126 0.56939 -0.25579
vn -0.93204 0.04512 -0.35953
vn -0.79742 0.58280 -0.15640
vn -0.94240 0.28105 -0.18136
vn 0.00000 -0.96677 -0.25564
vn 0.00000 -0.97421 -0.22564
vn -0.72797 0.68121 0.07754
vn 0.00000 0.83753 0.54639
vn -0.80866 0.55262 0.20168
vn -0.66000 -0.75097 -0.02083
vn -0.99470 -0.05099 0.08926
vn -0.83859 0.53860 -0.08169
vn -0.76799 0.64039 0.00931
vn -0.95780 0.20044 0.20600
vn -0.86582 0.44332 0.23200
vn -0.92432 -0.08690 0.37160
vn -0.92432 -0.08690 0.37160
vn -0.63641 -0.71407 0.29169
vn 0.00000 -0.70350 -0.71070
vn 0.00000 0.85438 -0.51966
vn -0.74400 0.51145 -0.42998
vn -0.87649 0.42404 -0.22796
vn -0.53318 -0.82860 -0.17069
vn -0.54823 -0.44479 -0.70824
vn -0.60380 -0.76397 -0.22755
vn 0.16711 -0.85853 0.48476
vn -0.44139 -0.79180 0.42216
vn -0.34657 -0.90349 0.25217
vn -0.17493 -0.98416 0.02860
vn -0.34356 -0.80955 -0.47602
vn -0.52387 -0.09027 0.84700
vn -0.71734 0.67000 0.19112
vn -0.83234 0.12745 -0.53942
vn 0.00000 -0.96169 0.27413
vn 0.00000 -0.96033 0.27888
vn 0.00000 -0.96169 0.27413
vn -0.44139 -0.79180 0.42216
vn 0.00000 -0.97792 0.20898
vn -0.53318 -0.82860 -0.17069
vn 0.00000 -0.99956 0.02950
vn -0.00000 -0.94704 0.32112
vn -0.54823 -0.44479 -0.70824
vn -0.16684 0.98548 -0.03149
vn 0.00000 0.98460 0.17483
vn 0.00000 0.99973 -0.02302
vn -0.64157 0.62287 -0.44768
vn -0.69331 0.50784 -0.51129
vn 0.00000 0.91325 0.40741
vn 0.00000 0.98923 0.14640
vn -0.55638 0.82395 -0.10740
vn -0.46990 -0.84583 -0.25253
vn -0.93623 -0.02459 -0.35053
vn -0.00000 -0.28044 -0.95987
vn 0.00000 -0.99987 -0.01621
vn -0.00000 -0.28044 -0.95987
vn -0.93623 -0.02459 -0.35053
vn -0.60380 -0.76397 -0.22755
vn 0.00000 -0.99993 0.01160
vn 0.00000 0.85438 -0.51966
vn -0.60950 -0.60606 -0.51108
vn -0.54837 -0.67904 -0.48806
vn -0.77673 -0.62854 0.04033
vn -0.69615 -0.70979 0.10761
vn -0.95110 0.26872 0.15229
vn -0.94012 0.32176 0.11246
vn -0.69176 -0.69521 0.19533
vn 0.00000 -0.99239 0.12315
vn -0.92431 0.31767 0.21150
vn -0.99320 -0.05147 0.10443
vn -0.68993 -0.71529 -0.11118
vn 0.00000 -0.99743 -0.07164
vn 0.00000 -0.94614 -0.32376
vn -0.96258 0.24280 0.12037
vn -0.90453 0.20970 0.37129
vn -0.98977 -0.00520 0.14255
vn -0.75668 -0.60061 -0.25827
vn -0.00000 -0.87068 -0.49184
vn -0.93232 0.12885 0.33789
vn -0.00000 0.44533 0.89537
vn -0.77500 -0.57481 -0.26261
vn 0.00000 -0.85885 -0.51222
vn -0.97822 -0.12491 0.16578
vn -0.00000 -0.91087 -0.41270
vn -0.00000 0.54334 0.83952
vn 0.00000 -0.31949 0.94759
vn -0.00000 0.11641 0.99320
vn -0.98779 0.10614 0.11400
vn 0.00000 0.81356 -0.58149
vn -0.00000 0.87068 -0.49185
vn -0.98471 0.15767 0.07408
vn 0.00000 0.91167 0.41093
vn -0.99559 0.08881 0.03033
vn 0.00000 0.98176 0.19012
vn 0.00000 0.98941 0.14512
vn 0.00000 0.72663 -0.68703
vn -0.00000 0.98642 -0.16424
vn 0.00000 0.96621 -0.25775
vn 0.00000 -0.99631 -0.08581
vn 0.00000 0.96182 -0.27368
vn 0.00000 0.98726 -0.15910
vn -0.00000 0.57322 -0.81940
vn 0.00000 0.94676 -0.32193
vn 0.00000 0.96621 -0.25775
vn 0.00000 -0.89624 -0.44357
vn -0.00000 0.99638 -0.08503
vn 0.00000 0.99015 -0.14004
vn 0.00000 -0.89624 -0.44357
vn -0.00000 -0.87547 -0.48328
vn -0.00000 -0.86476 -0.50219
vn -0.92237 0.32038 0.21585
vn 0.00000 0.89446 0.44716
vn -0.00000 0.30899 0.95107
vn -0.50538 -0.82711 -0.24594
vn 0.00000 -0.96009 -0.27970
vn -0.00000 0.99782 -0.06602
vn -0.08061 -0.99624 -0.03186
vn -0.43306 -0.63261 0.64208
vn -0.69112 0.72267 0.00966
vn -0.64436 0.60344 -0.46974
vn -0.17550 0.84565 0.50406
vn -0.44713 0.76924 0.45645
vn -0.55116 0.83415 -0.02060
vn -0.53854 0.84259 0.00452
vn -0.60929 0.70464 -0.36366
vn -0.50775 0.66969 -0.54195
vn -0.66239 0.64928 -0.37373
vn -0.41776 0.90644 0.06204
vn -0.61726 0.71435 0.32969
vn -0.25139 0.72189 0.64473
vn 0.38625 0.14370 0.91113
vn 0.53193 -0.84670 -0.01222
vn 0.22712 -0.21697 0.94939
vn -0.00818 -0.15697 0.98757
vn 0.24862 -0.96854 -0.01052
vn -0.89323 -0.43468 -0.11483
vn -0.89323 -0.43468 -0.11483
vn -0.59031 -0.36007 -0.72241
vn -0.64436 0.60344 -0.46974
vn 0.23497 -0.51666 -0.82332
vn -0.59031 -0.36007 -0.72241
vn 0.23497 -0.51666 -0.82332
vn -0.08061 -0.99624 -0.03186
vn -0.47159 -0.39839 -0.78669
vn -0.35319 -0.07719 -0.93236
vn -0.43306 -0.63261 0.64208
vn -0.43028 0.76603 0.47755
vn 0.29266 -0.25714 0.92099
vn 0.48639 -0.86853 -0.09528
vn -0.69112 0.72267 0.00966
vn -0.76882 0.55608 0.31574
vn -0.47159 -0.39839 -0.78669
vn -0.35319 -0.07719 -0.93236
vn -0.76882 0.55608 0.31574
vn -0.59031 -0.36007 -0.72241
vn -0.00000 0.97132 0.23778
vn 0.00000 0.92599 -0.37755
vn 0.00000 -0.99998 0.00688
vn -0.00000 -0.21095 0.97750
vn 0.00000 -0.20817 0.97809
vn 0.00000 -0.18845 0.98208
vn -0.34356 -0.80955 -0.47602
vn 0.13229 -0.64818 -0.74991
vn 0.42992 -0.89609 -0.11044
vn -0.17493 -0.98416 0.02860
vn 0.46512 -0.70621 0.53379
vn 0.16711 -0.85853 0.48476
vn -0.71734 0.67000 0.19112
vn -0.44125 0.88957 0.11816
vn -0.47389 0.40123 -0.78386
vn -0.83234 0.12745 -0.53942
vn -0.52387 -0.09027 0.84700
vn 0.11651 0.45380 0.88345
vn 0.38541 -0.75192 0.53486
vn -0.26560 -0.67366 -0.68966
vn 0.30064 -0.94252 -0.14581
vn 0.25019 -0.79777 0.54860
vn -0.48617 0.85402 0.18519
vn -0.73210 0.43082 -0.52766
vn -0.07960 0.28782 0.95437
vn -0.07686 -0.00554 0.99703
vn 0.11651 0.45380 0.88345
vn -0.52387 -0.09027 0.84700
vn -0.07686 -0.00554 0.99703
vn -0.07960 0.28782 0.95437
vn -0.18129 -0.98061 0.07440
vn -0.94362 -0.11453 0.31059
vn -0.94362 -0.11453 0.31059
vn 0.54728 0.69744 -0.46267
vn 0.79334 0.42102 -0.43972
vn 0.91063 0.34530 -0.22698
vn 0.85003 0.40529 -0.33645
vn 0.93217 0.15775 -0.32584
vn 0.89986 0.33049 -0.28467
vn 0.92485 0.30069 -0.23290
vn 0.92377 0.21082 -0.31969
vn 0.84604 0.37692 -0.37702
vn 0.85310 0.40220 -0.33235
vn 0.81811 0.24059 -0.52231
vn 0.93071 0.18141 -0.31760
vn 0.91128 -0.00954 -0.41169
vn 0.98623 -0.00844 -0.16517
vn 0.95947 0.25791 -0.11357
vn 0.65531 -0.67875 -0.33146
vn 0.63333 -0.62609 -0.45487
vn 0.93623 -0.02459 -0.35053
vn 0.64157 0.62287 -0.44768
vn 0.54837 -0.67904 -0.48806
vn 0.46024 0.86437 -0.20260
vn 0.93749 0.22679 -0.26397
vn 0.93666 0.15227 -0.31540
vn 0.46990 -0.84583 -0.25253
vn 0.49574 -0.86274 0.09957
vn 0.62772 -0.77709 0.04590
vn 0.90480 0.33686 0.26050
vn 0.86582 0.44332 0.23200
vn 0.97144 -0.23568 0.02749
vn 0.99592 -0.08910 0.01443
vn 0.73184 -0.62877 -0.26281
vn 0.55638 0.82395 -0.10740
vn 0.69331 0.50783 -0.51129
vn 0.60841 -0.70011 -0.37374
vn 0.75518 -0.58037 -0.30477
vn 0.16684 0.98548 -0.03149
vn 0.71518 0.67779 -0.17065
vn 0.90919 -0.04421 -0.41402
vn 0.77555 0.55903 -0.29327
vn 0.90919 -0.04421 -0.41402
vn 0.93204 0.04512 -0.35953
vn 0.78126 0.56939 -0.25579
vn 0.77555 0.55903 -0.29327
vn 0.94240 0.28105 -0.18136
vn 0.79742 0.58280 -0.15640
vn 0.72797 0.68121 0.07754
vn 0.80866 0.55262 0.20168
vn 0.99470 -0.05099 0.08926
vn 0.66000 -0.75097 -0.02083
vn 0.76799 0.64039 0.00931
vn 0.83859 0.53860 -0.08169
vn 0.95780 0.20044 0.20600
vn 0.86582 0.44332 0.23200
vn 0.92432 -0.08690 0.37160
vn 0.92432 -0.08690 0.37160
vn 0.63641 -0.71407 0.29169
vn 0.74400 0.51145 -0.42998
vn 0.54823 -0.44479 -0.70824
vn 0.53318 -0.82860 -0.17069
vn 0.87649 0.42404 -0.22796
vn 0.60380 -0.76397 -0.22755
vn -0.16711 -0.85853 0.48476
vn 0.17493 -0.98416 0.02860
vn 0.34657 -0.90349 0.25217
vn 0.44139 -0.79180 0.42216
vn 0.34356 -0.80955 -0.47602
vn 0.52387 -0.09027 0.84700
vn 0.71734 0.67000 0.19112
vn 0.83234 0.12745 -0.53942
vn 0.44139 -0.79180 0.42216
vn 0.53318 -0.82860 -0.17069
vn 0.54823 -0.44479 -0.70824
vn 0.16684 0.98548 -0.03149
vn 0.64157 0.62287 -0.44768
vn 0.69331 0.50783 -0.51129
vn 0.55638 0.82395 -0.10740
vn 0.46990 -0.84583 -0.25253
vn 0.93623 -0.02459 -0.35053
vn 0.93623 -0.02459 -0.35053
vn 0.60380 -0.76397 -0.22755
vn 0.54837 -0.67904 -0.48806
vn 0.60950 -0.60606 -0.51108
vn 0.77673 -0.62854 0.04033
vn 0.94012 0.32176 0.11246
vn 0.95110 0.26872 0.15229
vn 0.69615 -0.70979 0.10761
vn 0.69176 -0.69521 0.19533
vn 0.92431 0.31767 0.21150
vn 0.68993 -0.71529 -0.11118
vn 0.99320 -0.05147 0.10443
vn 0.96258 0.24280 0.12037
vn 0.98977 -0.00520 0.14255
vn 0.90453 0.20970 0.37129
vn 0.75668 -0.60061 -0.25827
vn 0.93232 0.12885 0.33789
vn 0.77500 -0.57481 -0.26261
vn 0.97822 -0.12491 0.16578
vn 0.98779 0.10614 0.11400
vn 0.98471 0.15767 0.07408
vn 0.99559 0.08881 0.03033
vn 0.92237 0.32038 0.21585
vn 0.50538 -0.82711 -0.24594
vn 0.43306 -0.63261 0.64208
vn 0.08061 -0.99624 -0.03186
vn 0.69112 0.72267 0.00966
vn 0.64436 0.60344 -0.46974
vn 0.17550 0.84565 0.50406
vn 0.55116 0.83415 -0.02060
vn 0.44713 0.76924 0.45645
vn 0.50775 0.66969 -0.54195
vn 0.60929 0.70464 -0.36366
vn 0.53854 0.84259 0.00452
vn 0.66239 0.64928 -0.37373
vn 0.61726 0.71435 0.32969
vn 0.41776 0.90644 0.06204
vn 0.25139 0.72189 0.64473
vn -0.38625 0.14370 0.91113
vn -0.22712 -0.21697 0.94939
vn -0.53193 -0.84670 -0.01222
vn 0.00818 -0.15697 0.98757
vn 0.89323 -0.43468 -0.11483
vn -0.24862 -0.96854 -0.01052
vn 0.89323 -0.43468 -0.11483
vn 0.59031 -0.36007 -0.72241
vn -0.23497 -0.51666 -0.82332
vn 0.64436 0.60344 -0.46974
vn 0.59031 -0.36007 -0.72241
vn 0.08061 -0.99624 -0.03186
vn -0.23497 -0.51666 -0.82332
vn 0.35319 -0.07719 -0.93236
vn 0.47159 -0.39839 -0.78669
vn 0.43306 -0.63261 0.64208
vn 0.43028 0.76603 0.47755
vn -0.29266 -0.25714 0.92099
vn -0.48639 -0.86853 -0.09528
vn 0.76882 0.55608 0.31574
vn 0.69112 0.72267 0.00966
vn 0.47159 -0.39839 -0.78669
vn 0.35319 -0.07719 -0.93236
vn 0.76882 0.55608 0.31574
vn 0.59031 -0.36007 -0.72241
vn 0.34356 -0.80955 -0.47602
vn 0.17493 -0.98416 0.02860
vn -0.42992 -0.89609 -0.11044
vn -0.13229 -0.64818 -0.74991
vn -0.16711 -0.85853 0.48476
vn -0.46512 -0.70621 0.53379
vn 0.71734 0.67000 0.19112
vn 0.83234 0.12745 -0.53942
vn 0.47389 0.40123 -0.78386
vn 0.44125 0.88957 0.11816
vn -0.11651 0.45380 0.88345
vn 0.52387 -0.09027 0.84700
vn -0.38541 -0.75192 0.53486
vn -0.30064 -0.94252 -0.14581
vn 0.26560 -0.67367 -0.68966
vn -0.25019 -0.79777 0.54860
vn 0.73210 0.43082 -0.52766
vn 0.48617 0.85402 0.18519
vn 0.07960 0.28782 0.95437
vn 0.07686 -0.00554 0.99703
vn -0.11651 0.45380 0.88345
vn 0.52387 -0.09027 0.84700
vn 0.07960 0.28782 0.95437
vn 0.07686 -0.00554 0.99703
vn 0.18129 -0.98061 0.07440
vn 0.94362 -0.11453 0.31059
vn 0.94362 -0.11453 0.31059
f 346/346/346 356/356/356 371/371/371
f 371/371/371 375/375/375 346/346/346
f 376/376/376 347/347/347 346/346/346
f 346/346/346 375/375/375 376/376/376
f 356/356/356 346/346/346 348/348/348
f 346/346/346 347/347/347 348/348/348
f 371/371/371 356/356/356 358/358/358
f 348/348/348 357/357/357 356/356/356
f 356/356/356 357/357/357 358/358/358
f 358/358/358 367/367/367 371/371/371
f 336/336/336 334/334/334 335/335/335
f 335/335/335 135/135/135 336/336/336
f 335/335/335 334/334/334 331/331/331
f 332/332/332 331/331/331 334/334/334
f 335/335/335 133/133/133 135/135/135
f 335/335/335 333/333/333 129/129/129
f 129/129/129 133/133/133 335/335/335
f 331/331/331 333/333/333 335/335/335
f 132/132/132 135/135/135 133/133/133
f 132/132/132 133/133/133 129/129/129
f 124/124/124 129/129/129 333/333/333
f 129/129/129 128/128/128 132/132/132
f 128/128/128 129/129/129 124/124/124
f 333/333/333 328/328/328 124/124/124
f 333/333/333 331/331/331 329/329/329
f 329/329/329 328/328/328 333/333/333
f 322/322/322 328/328/328 329/329/329
f 106/106/106 316/316/316 319/319/319
f 316/316/316 106/106/106 105/105/105
f 105/105/105 106/106/106 103/103/103
f 103/103/103 104/104/104 105/105/105
f 105/105/105 317/317/317 316/316/316
f 310/310/310 311/311/311 93/93/93
f 93/93/93 311/311/311 159/159/159
f 93/93/93 159/159/159 94/94/94
f 214/214/214 213/213/213 222/222/222
f 215/215/215 216/216/216 213/213/213
f 213/213/213 214/214/214 215/215/215
f 226/226/226 214/214/214 221/221/221
f 222/222/222 221/221/221 214/214/214
f 227/227/227 215/215/215 214/214/214
f 214/214/214 226/226/226 227/227/227
f 221/221/221 222/222/222 219/219/219
f 221/221/221 230/230/230 226/226/226
f 230/230/230 221/221/221 220/220/220
f 388/388/388 381/381/381 384/384/384
f 383/383/383 384/384/384 381/381/381
f 381/381/381 382/382/382 383/383/383
f 384/384/384 389/389/389 388/388/388
f 387/387/387 388/388/388 389/389/389
f 389/389/389 384/384/384 395/395/395
f 394/394/394 395/395/395 384/384/384
f 384/384/384 383/383/383 394/394/394
f 395/395/395 397/397/397 389/389/389
f 390/390/390 389/389/389 397/397/397
f 172/172/172 202/202/202 197/197/197
f 197/197/197 182/182/182 172/172/172
f 201/201/201 202/202/202 172/172/172
f 172/172/172 174/174/174 201/201/201
f 173/173/173 172/172/172 182/182/182
f 172/172/172 173/173/173 174/174/174
f 173/173/173 198/198/198 175/175/175
f 175/175/175 174/174/174 173/173/173
f 198/198/198 173/173/173 184/184/184
f 182/182/182 184/184/184 173/173/173
f 337/337/337 338/338/338 141/141/141
f 338/338/338 143/143/143 141/141/141
f 96/96/96 95/95/95 102/102/102
f 97/97/97 98/98/98 95/95/95
f 95/95/95 96/96/96 97/97/97
f 96/96/96 101/101/101 315/315/315
f 315/315/315 312/312/312 96/96/96
f 97/97/97 96/96/96 312/312/312
f 102/102/102 101/101/101 96/96/96
f 101/101/101 102/102/102 99/99/99
f 101/101/101 100/100/100 314/314/314
f 314/314/314 315/315/315 101/101/101
f 92/92/92 91/91/91 109/109/109
f 93/93/93 94/94/94 91/91/91
f 91/91/91 92/92/92 93/93/93
f 92/92/92 110/110/110 319/319/319
f 319/319/319 310/310/310 92/92/92
f 93/93/93 92/92/92 310/310/310
f 109/109/109 110/110/110 92/92/92
f 106/106/106 110/110/110 109/109/109
f 109/109/109 103/103/103 106/106/106
f 319/319/319 110/110/110 106/106/106
f 183/183/183 182/182/182 197/197/197
f 182/182/182 183/183/183 184/184/184
f 197/197/197 194/194/194 183/183/183
f 200/200/200 183/183/183 193/193/193
f 184/184/184 183/183/183 200/200/200
f 183/183/183 194/194/194 192/192/192
f 192/192/192 193/193/193 183/183/183
f 200/200/200 199/199/199 184/184/184
f 184/184/184 199/199/199 198/198/198
f 199/199/199 200/200/200 186/186/186
f 193/193/193 204/204/204 200/200/200
f 200/200/200 204/204/204 203/203/203
f 203/203/203 186/186/186 200/200/200
f 186/186/186 185/185/185 199/199/199
f 199/199/199 185/185/185 181/181/181
f 181/181/181 198/198/198 199/199/199
f 187/187/187 186/186/186 203/203/203
f 185/185/185 186/186/186 187/187/187
f 185/185/185 188/188/188 180/180/180
f 180/180/180 181/181/181 185/185/185
f 198/198/198 181/181/181 179/179/179
f 179/179/179 181/181/181 180/180/180
f 179/179/179 175/175/175 198/198/198
f 175/175/175 179/179/179 178/178/178
f 178/178/178 179/179/179 180/180/180
f 178/178/178 180/180/180 188/188/188
f 188/188/188 195/195/195 178/178/178
f 99/99/99 100/100/100 101/101/101
f 99/99/99 111/111/111 100/100/100
f 314/314/314 100/100/100 111/111/111
f 312/312/312 313/313/313 97/97/97
f 107/107/107 97/97/97 313/313/313
f 313/313/313 318/318/318 107/107/107
f 98/98/98 97/97/97 107/107/107
f 107/107/107 108/108/108 98/98/98
f 368/368/368 358/358/358 374/374/374
f 374/374/374 358/358/358 357/357/357
f 358/358/358 368/368/368 366/366/366
f 366/366/366 367/367/367 358/358/358
f 357/357/357 373/373/373 374/374/374
f 357/357/357 348/348/348 372/372/372
f 372/372/372 373/373/373 357/357/357
f 348/348/348 347/347/347 351/351/351
f 351/351/351 372/372/372 348/348/348
f 372/372/372 351/351/351 354/354/354
f 354/354/354 355/355/355 372/372/372
f 373/373/373 372/372/372 355/355/355
f 361/361/361 374/374/374 373/373/373
f 373/373/373 359/359/359 361/361/361
f 355/355/355 359/359/359 373/373/373
f 359/359/359 355/355/355 353/353/353
f 354/354/354 353/353/353 355/355/355
f 352/352/352 354/354/354 351/351/351
f 352/352/352 353/353/353 354/354/354
f 351/351/351 350/350/350 352/352/352
f 350/350/350 351/351/351 347/347/347
f 362/362/362 353/353/353 352/352/352
f 352/352/352 370/370/370 362/362/362
f 370/370/370 352/352/352 350/350/350
f 353/353/353 362/362/362 359/359/359
f 359/359/359 360/360/360 361/361/361
f 360/360/360 377/377/377 361/361/361
f 209/209/209 115/115/115 114/114/114
f 114/114/114 123/123/123 209/209/209
f 114/114/114 115/115/115 116/116/116
f 123/123/123 114/114/114 122/122/122
f 121/121/121 122/122/122 114/114/114
f 114/114/114 117/117/117 121/121/121
f 116/116/116 117/117/117 114/114/114
f 328/328/328 322/322/322 123/123/123
f 123/123/123 124/124/124 328/328/328
f 122/122/122 124/124/124 123/123/123
f 124/124/124 122/122/122 128/128/128
f 128/128/128 122/122/122 121/121/121
f 125/125/125 121/121/121 117/117/117
f 121/121/121 127/127/127 128/128/128
f 127/127/127 121/121/121 125/125/125
f 117/117/117 116/116/116 146/146/146
f 146/146/146 167/167/167 117/117/117
f 117/117/117 167/167/167 125/125/125
f 145/145/145 146/146/146 116/116/116
f 323/323/323 167/167/167 146/146/146
f 146/146/146 324/324/324 323/323/323
f 324/324/324 146/146/146 145/145/145
f 147/147/147 167/167/167 330/330/330
f 330/330/330 167/167/167 323/323/323
f 125/125/125 167/167/167 147/147/147
f 323/323/323 329/329/329 330/330/330
f 329/329/329 323/323/323 322/322/322
f 322/322/322 323/323/323 324/324/324
f 87/87/87 86/86/86 304/304/304
f 304/304/304 303/303/303 87/87/87
f 87/87/87 80/80/80 79/79/79
f 79/79/79 86/86/86 87/87/87
f 33/33/33 32/32/32 264/264/264
f 150/150/150 33/33/33 265/265/265
f 264/264/264 265/265/265 33/33/33
f 34/34/34 33/33/33 150/150/150
f 166/166/166 150/150/150 288/288/288
f 265/265/265 288/288/288 150/150/150
f 62/62/62 150/150/150 166/166/166
f 150/150/150 62/62/62 34/34/34
f 288/288/288 265/265/265 269/269/269
f 265/265/265 264/264/264 268/268/268
f 268/268/268 269/269/269 265/265/265
f 288/288/288 341/341/341 166/166/166
f 342/342/342 288/288/288 287/287/287
f 341/341/341 288/288/288 342/342/342
f 269/269/269 287/287/287 288/288/288
f 269/269/269 268/268/268 286/286/286
f 286/286/286 289/289/289 269/269/269
f 290/290/290 287/287/287 269/269/269
f 269/269/269 289/289/289 290/290/290
f 305/305/305 308/308/308 268/268/268
f 268/268/268 264/264/264 305/305/305
f 291/291/291 268/268/268 308/308/308
f 286/286/286 268/268/268 291/291/291
f 83/83/83 68/68/68 79/79/79
f 79/79/79 78/78/78 83/83/83
f 78/78/78 79/79/79 80/80/80
f 80/80/80 81/81/81 78/78/78
f 39/39/39 85/85/85 82/82/82
f 34/34/34 40/40/40 39/39/39
f 40/40/40 34/34/34 62/62/62
f 64/64/64 65/65/65 40/40/40
f 40/40/40 63/63/63 64/64/64
f 62/62/62 63/63/63 40/40/40
f 166/166/166 165/165/165 62/62/62
f 63/63/63 62/62/62 169/169/169
f 169/169/169 62/62/62 165/165/165
f 169/169/169 205/205/205 63/63/63
f 56/56/56 63/63/63 205/205/205
f 64/64/64 63/63/63 56/56/56
f 165/165/165 168/168/168 169/169/169
f 341/341/341 343/343/343 380/380/380
f 341/341/341 380/380/380 321/321/321
f 279/279/279 320/320/320 321/321/321
f 281/281/281 282/282/282 279/279/279
f 282/282/282 281/281/281 151/151/151
f 151/151/151 155/155/155 282/282/282
f 52/52/52 155/155/155 151/151/151
f 342/342/342 343/343/343 341/341/341
f 287/287/287 379/379/379 342/342/342
f 289/289/289 285/285/285 158/158/158
f 208/208/208 158/158/158 285/285/285
f 285/285/285 340/340/340 208/208/208
f 285/285/285 60/60/60 340/340/340
f 65/65/65 158/158/158 59/59/59
f 59/59/59 158/158/158 208/208/208
f 208/208/208 340/340/340 163/163/163
f 208/208/208 163/163/163 162/162/162
f 208/208/208 162/162/162 59/59/59
f 340/340/340 60/60/60 164/164/164
f 340/340/340 164/164/164 163/163/163
f 162/162/162 164/164/164 60/60/60
f 59/59/59 162/162/162 60/60/60
f 162/162/162 163/163/163 164/164/164
f 87/87/87 32/32/32 31/31/31
f 31/31/31 80/80/80 87/87/87
f 82/82/82 31/31/31 39/39/39
f 31/31/31 82/82/82 81/81/81
f 81/81/81 80/80/80 31/31/31
f 39/39/39 31/31/31 34/34/34
f 33/33/33 34/34/34 31/31/31
f 31/31/31 32/32/32 33/33/33
f 87/87/87 303/303/303 264/264/264
f 264/264/264 32/32/32 87/87/87
f 120/120/120 116/116/116 115/115/115
f 327/327/327 145/145/145 38/38/38
f 38/38/38 266/266/266 327/327/327
f 266/266/266 38/38/38 37/37/37
f 37/37/37 267/267/267 266/266/266
f 326/326/326 327/327/327 266/266/266
f 266/266/266 295/295/295 326/326/326
f 266/266/266 267/267/267 294/294/294
f 294/294/294 295/295/295 266/266/266
f 145/145/145 327/327/327 324/324/324
f 325/325/325 324/324/324 327/327/327
f 327/327/327 326/326/326 325/325/325
f 325/325/325 326/326/326 119/119/119
f 326/326/326 295/295/295 90/90/90
f 90/90/90 119/119/119 326/326/326
f 294/294/294 309/309/309 295/295/295
f 295/295/295 309/309/309 88/88/88
f 88/88/88 90/90/90 295/295/295
f 118/118/118 119/119/119 90/90/90
f 90/90/90 70/70/70 118/118/118
f 70/70/70 90/90/90 88/88/88
f 119/119/119 209/209/209 325/325/325
f 119/119/119 118/118/118 115/115/115
f 115/115/115 209/209/209 119/119/119
f 322/322/322 325/325/325 209/209/209
f 324/324/324 325/325/325 322/322/322
f 209/209/209 123/123/123 322/322/322
f 264/264/264 303/303/303 302/302/302
f 302/302/302 305/305/305 264/264/264
f 303/303/303 304/304/304 301/301/301
f 301/301/301 302/302/302 303/303/303
f 304/304/304 293/293/293 306/306/306
f 306/306/306 301/301/301 304/304/304
f 307/307/307 306/306/306 293/293/293
f 293/293/293 291/291/291 307/307/307
f 292/292/292 291/291/291 293/293/293
f 286/286/286 291/291/291 292/292/292
f 308/308/308 307/307/307 291/291/291
f 286/286/286 292/292/292 207/207/207
f 207/207/207 60/60/60 286/286/286
f 289/289/289 286/286/286 285/285/285
f 285/285/285 286/286/286 60/60/60
f 207/207/207 67/67/67 61/61/61
f 61/61/61 60/60/60 207/207/207
f 61/61/61 67/67/67 66/66/66
f 67/67/67 68/68/68 66/66/66
f 65/65/65 59/59/59 61/61/61
f 61/61/61 66/66/66 39/39/39
f 40/40/40 65/65/65 61/61/61
f 61/61/61 39/39/39 40/40/40
f 59/59/59 60/60/60 61/61/61
f 66/66/66 84/84/84 85/85/85
f 85/85/85 39/39/39 66/66/66
f 84/84/84 66/66/66 68/68/68
f 68/68/68 83/83/83 84/84/84
f 120/120/120 35/35/35 38/38/38
f 118/118/118 70/70/70 35/35/35
f 35/35/35 120/120/120 118/118/118
f 35/35/35 70/70/70 69/69/69
f 69/69/69 36/36/36 35/35/35
f 37/37/37 38/38/38 35/35/35
f 35/35/35 36/36/36 37/37/37
f 38/38/38 145/145/145 120/120/120
f 116/116/116 120/120/120 145/145/145
f 115/115/115 118/118/118 120/120/120
f 69/69/69 70/70/70 89/89/89
f 88/88/88 89/89/89 70/70/70
f 151/151/151 53/53/53 52/52/52
f 152/152/152 55/55/55 53/53/53
f 53/53/53 151/151/151 152/152/152
f 157/157/157 64/64/64 55/55/55
f 55/55/55 152/152/152 157/157/157
f 56/56/56 55/55/55 64/64/64
f 205/205/205 170/170/170 56/56/56
f 170/170/170 171/171/171 56/56/56
f 158/158/158 65/65/65 64/64/64
f 64/64/64 157/157/157 158/158/158
f 157/157/157 152/152/152 284/284/284
f 284/284/284 290/290/290 157/157/157
f 158/158/158 157/157/157 290/290/290
f 152/152/152 151/151/151 281/281/281
f 281/281/281 284/284/284 152/152/152
f 290/290/290 284/284/284 283/283/283
f 284/284/284 281/281/281 280/280/280
f 280/280/280 283/283/283 284/284/284
f 283/283/283 287/287/287 290/290/290
f 290/290/290 289/289/289 158/158/158
f 283/283/283 280/280/280 380/380/380
f 380/380/380 345/345/345 283/283/283
f 283/283/283 344/344/344 379/379/379
f 379/379/379 287/287/287 283/283/283
f 344/344/344 283/283/283 345/345/345
f 380/380/380 280/280/280 321/321/321
f 321/321/321 280/280/280 279/279/279
f 279/279/279 280/280/280 281/281/281
f 258/258/258 275/275/275 274/274/274
f 274/274/274 275/275/275 271/271/271
f 57/57/57 274/274/274 270/270/270
f 271/271/271 270/270/270 274/274/274
f 270/270/270 271/271/271 272/272/272
f 58/58/58 270/270/270 273/273/273
f 270/270/270 58/58/58 57/57/57
f 272/272/272 273/273/273 270/270/270
f 57/57/57 58/58/58 41/41/41
f 273/273/273 71/71/71 58/58/58
f 178/178/178 176/176/176 175/175/175
f 176/176/176 178/178/178 195/195/195
f 174/174/174 175/175/175 176/176/176
f 177/177/177 176/176/176 196/196/196
f 195/195/195 196/196/196 176/176/176
f 176/176/176 177/177/177 174/174/174
f 174/174/174 177/177/177 190/190/190
f 190/190/190 201/201/201 174/174/174
f 196/196/196 191/191/191 177/177/177
f 177/177/177 191/191/191 189/189/189
f 189/189/189 190/190/190 177/177/177
f 330/330/330 339/339/339 147/147/147
f 138/138/138 339/339/339 330/330/330
f 330/330/330 332/332/332 138/138/138
f 331/331/331 332/332/332 330/330/330
f 330/330/330 329/329/329 331/331/331
f 140/140/140 147/147/147 339/339/339
f 147/147/147 144/144/144 125/125/125
f 144/144/144 147/147/147 140/140/140
f 339/339/339 138/138/138 211/211/211
f 211/211/211 337/337/337 339/339/339
f 339/339/339 337/337/337 140/140/140
f 141/141/141 140/140/140 337/337/337
f 140/140/140 139/139/139 144/144/144
f 139/139/139 140/140/140 141/141/141
f 144/144/144 139/139/139 211/211/211
f 211/211/211 138/138/138 144/144/144
f 125/125/125 144/144/144 138/138/138
f 18/18/18 14/14/14 13/13/13
f 13/13/13 14/14/14 15/15/15
f 17/17/17 14/14/14 18/18/18
f 14/14/14 16/16/16 15/15/15
f 16/16/16 14/14/14 17/17/17
f 254/254/254 249/249/249 251/251/251
f 249/249/249 250/250/250 251/251/251
f 253/253/253 254/254/254 251/251/251
f 251/251/251 250/250/250 252/252/252
f 252/252/252 253/253/253 251/251/251
f 8/8/8 6/6/6 9/9/9
f 9/9/9 29/29/29 2/2/2
f 29/29/29 11/11/11 2/2/2
f 3/3/3 2/2/2 11/11/11
f 29/29/29 9/9/9 10/10/10
f 9/9/9 6/6/6 10/10/10
f 10/10/10 6/6/6 5/5/5
f 30/30/30 10/10/10 5/5/5
f 5/5/5 47/47/47 30/30/30
f 26/26/26 47/47/47 5/5/5
f 10/10/10 30/30/30 29/29/29
f 48/48/48 30/30/30 49/49/49
f 49/49/49 30/30/30 47/47/47
f 21/21/21 30/30/30 48/48/48
f 29/29/29 30/30/30 21/21/21
f 29/29/29 28/28/28 77/77/77
f 77/77/77 11/11/11 29/29/29
f 21/21/21 28/28/28 29/29/29
f 48/48/48 22/22/22 21/21/21
f 21/21/21 22/22/22 19/19/19
f 19/19/19 20/20/20 21/21/21
f 22/22/22 48/48/48 23/23/23
f 19/19/19 22/22/22 25/25/25
f 24/24/24 25/25/25 22/22/22
f 22/22/22 23/23/23 24/24/24
f 45/45/45 19/19/19 50/50/50
f 20/20/20 19/19/19 45/45/45
f 165/165/165 206/206/206 168/168/168
f 165/165/165 112/112/112 206/206/206
f 160/160/160 112/112/112 165/165/165
f 165/165/165 166/166/166 160/160/160
f 160/160/160 166/166/166 341/341/341
f 341/341/341 321/321/321 160/160/160
f 160/160/160 321/321/321 320/320/320
f 320/320/320 161/161/161 160/160/160
f 160/160/160 161/161/161 113/113/113
f 113/113/113 112/112/112 160/160/160
f 206/206/206 112/112/112 54/54/54
f 112/112/112 113/113/113 51/51/51
f 51/51/51 54/54/54 112/112/112
f 56/56/56 171/171/171 206/206/206
f 206/206/206 54/54/54 56/56/56
f 55/55/55 56/56/56 54/54/54
f 54/54/54 53/53/53 55/55/55
f 53/53/53 54/54/54 51/51/51
f 51/51/51 52/52/52 53/53/53
f 242/242/242 276/276/276 260/260/260
f 260/260/260 243/243/243 242/242/242
f 247/247/247 242/242/242 244/244/244
f 242/242/242 243/243/243 244/244/244
f 247/247/247 246/246/246 262/262/262
f 246/246/246 247/247/247 244/244/244
f 245/245/245 246/246/246 244/244/244
f 243/243/243 245/245/245 244/244/244
f 243/243/243 260/260/260 240/240/240
f 240/240/240 245/245/245 243/243/243
f 148/148/148 27/27/27 260/260/260
f 4/4/4 240/240/240 260/260/260
f 260/260/260 27/27/27 4/4/4
f 148/148/148 47/47/47 26/26/26
f 26/26/26 27/27/27 148/148/148
f 47/47/47 148/148/148 149/149/149
f 149/149/149 49/49/49 47/47/47
f 219/219/219 220/220/220 221/221/221
f 226/226/226 230/230/230 239/239/239
f 239/239/239 237/237/237 226/226/226
f 227/227/227 226/226/226 237/237/237
f 227/227/227 237/237/237 228/228/228
f 215/215/215 227/227/227 228/228/228
f 228/228/228 237/237/237 239/239/239
f 239/239/239 235/235/235 228/228/228
f 225/225/225 228/228/228 235/235/235
f 228/228/228 225/225/225 215/215/215
f 235/235/235 236/236/236 225/225/225
f 217/217/217 225/225/225 236/236/236
f 215/215/215 225/225/225 217/217/217
f 218/218/218 216/216/216 215/215/215
f 215/215/215 217/217/217 218/218/218
f 236/236/236 233/233/233 217/217/217
f 218/218/218 217/217/217 233/233/233
f 233/233/233 234/234/234 218/218/218
f 224/224/224 231/231/231 220/220/220
f 229/229/229 220/220/220 231/231/231
f 220/220/220 229/229/229 230/230/230
f 224/224/224 220/220/220 219/219/219
f 219/219/219 223/223/223 224/224/224
f 238/238/238 230/230/230 229/229/229
f 232/232/232 238/238/238 229/229/229
f 231/231/231 232/232/232 229/229/229
f 389/389/389 390/390/390 387/387/387
f 391/391/391 392/392/392 387/387/387
f 387/387/387 390/390/390 391/391/391
f 391/391/391 390/390/390 399/399/399
f 399/399/399 390/390/390 398/398/398
f 397/397/397 398/398/398 390/390/390
f 407/407/407 397/397/397 395/395/395
f 406/406/406 398/398/398 397/397/397
f 395/395/395 405/405/405 407/407/407
f 394/394/394 405/405/405 395/395/395
f 407/407/407 405/405/405 396/396/396
f 396/396/396 404/404/404 407/407/407
f 394/394/394 396/396/396 405/405/405
f 404/404/404 396/396/396 393/393/393
f 396/396/396 394/394/394 383/383/383
f 383/383/383 393/393/393 396/396/396
f 393/393/393 403/403/403 404/404/404
f 403/403/403 393/393/393 386/386/386
f 383/383/383 386/386/386 393/393/393
f 385/385/385 386/386/386 383/383/383
f 383/383/383 382/382/382 385/385/385
f 386/386/386 401/401/401 403/403/403
f 401/401/401 386/386/386 385/385/385
f 385/385/385 402/402/402 401/401/401
f 400/400/400 398/398/398 406/406/406
f 398/398/398 400/400/400 399/399/399
f 374/374/374 361/361/361 377/377/377
f 377/377/377 378/378/378 374/374/374
f 374/374/374 378/378/378 368/368/368
f 350/350/350 369/369/369 370/370/370
f 369/369/369 350/350/350 349/349/349
f 347/347/347 349/349/349 350/350/350
f 349/349/349 364/364/364 369/369/369
f 365/365/365 349/349/349 347/347/347
f 349/349/349 365/365/365 363/363/363
f 363/363/363 364/364/364 349/349/349
f 347/347/347 376/376/376 365/365/365
f 25/25/25 50/50/50 19/19/19
f 45/45/45 46/46/46 20/20/20
f 50/50/50 57/57/57 45/45/45
f 41/41/41 45/45/45 57/57/57
f 44/44/44 46/46/46 45/45/45
f 45/45/45 41/41/41 44/44/44
f 274/274/274 57/57/57 50/50/50
f 50/50/50 255/255/255 274/274/274
f 255/255/255 50/50/50 25/25/25
f 25/25/25 256/256/256 255/255/255
f 256/256/256 25/25/25 24/24/24
f 24/24/24 259/259/259 256/256/256
f 277/277/277 257/257/257 256/256/256
f 256/256/256 259/259/259 277/277/277
f 255/255/255 256/256/256 257/257/257
f 274/274/274 255/255/255 258/258/258
f 257/257/257 258/258/258 255/255/255
f 257/257/257 277/277/277 261/261/261
f 262/262/262 263/263/263 257/257/257
f 257/257/257 261/261/261 262/262/262
f 277/277/277 278/278/278 261/261/261
f 262/262/262 261/261/261 247/247/247
f 261/261/261 276/276/276 242/242/242
f 242/242/242 247/247/247 261/261/261
f 278/278/278 276/276/276 261/261/261
f 276/276/276 278/278/278 149/149/149
f 260/260/260 276/276/276 148/148/148
f 149/149/149 148/148/148 276/276/276
f 7/7/7 8/8/8 1/1/1
f 1/1/1 26/26/26 7/7/7
f 2/2/2 1/1/1 8/8/8
f 26/26/26 1/1/1 4/4/4
f 3/3/3 4/4/4 1/1/1
f 1/1/1 2/2/2 3/3/3
f 5/5/5 7/7/7 26/26/26
f 7/7/7 6/6/6 8/8/8
f 5/5/5 6/6/6 7/7/7
f 2/2/2 8/8/8 9/9/9
f 4/4/4 27/27/27 26/26/26
f 240/240/240 4/4/4 3/3/3
f 241/241/241 245/245/245 240/240/240
f 3/3/3 241/241/241 240/240/240
f 246/246/246 245/245/245 241/241/241
f 241/241/241 262/262/262 246/246/246
f 262/262/262 241/241/241 248/248/248
f 248/248/248 241/241/241 3/3/3
f 3/3/3 12/12/12 248/248/248
f 11/11/11 12/12/12 3/3/3
f 299/299/299 248/248/248 12/12/12
f 262/262/262 248/248/248 300/300/300
f 300/300/300 248/248/248 299/299/299
f 300/300/300 263/263/263 262/262/262
f 299/299/299 298/298/298 300/300/300
f 12/12/12 154/154/154 299/299/299
f 296/296/296 299/299/299 154/154/154
f 298/298/298 299/299/299 296/296/296
f 12/12/12 11/11/11 74/74/74
f 42/42/42 41/41/41 58/58/58
f 58/58/58 71/71/71 42/42/42
f 71/71/71 273/273/273 272/272/272
f 272/272/272 72/72/72 71/71/71
f 71/71/71 72/72/72 43/43/43
f 43/43/43 42/42/42 71/71/71
f 41/41/41 42/42/42 43/43/43
f 43/43/43 44/44/44 41/41/41
f 74/74/74 154/154/154 12/12/12
f 74/74/74 11/11/11 77/77/77
f 154/154/154 74/74/74 73/73/73
f 77/77/77 75/75/75 74/74/74
f 73/73/73 74/74/74 75/75/75
f 154/154/154 153/153/153 296/296/296
f 73/73/73 153/153/153 154/154/154
f 297/297/297 296/296/296 153/153/153
f 296/296/296 297/297/297 298/298/298
f 153/153/153 156/156/156 297/297/297
f 153/153/153 73/73/73 76/76/76
f 76/76/76 156/156/156 153/153/153
f 75/75/75 76/76/76 73/73/73
f 138/138/138 126/126/126 125/125/125
f 125/125/125 126/126/126 127/127/127
f 332/332/332 131/131/131 138/138/138
f 126/126/126 138/138/138 131/131/131
f 126/126/126 131/131/131 130/130/130
f 130/130/130 127/127/127 126/126/126
f 132/132/132 128/128/128 127/127/127
f 127/127/127 130/130/130 132/132/132
f 136/136/136 134/134/134 130/130/130
f 130/130/130 131/131/131 136/136/136
f 132/132/132 130/130/130 134/134/134
f 136/136/136 131/131/131 334/334/334
f 334/334/334 131/131/131 332/332/332
f 334/334/334 336/336/336 136/136/136
f 336/336/336 137/137/137 136/136/136
f 134/134/134 136/136/136 137/137/137
f 134/134/134 137/137/137 135/135/135
f 134/134/134 135/135/135 132/132/132
f 336/336/336 135/135/135 137/137/137
f 139/139/139 142/142/142 212/212/212
f 212/212/212 210/210/210 139/139/139
f 210/210/210 211/211/211 139/139/139
f 141/141/141 142/142/142 139/139/139
f 143/143/143 212/212/212 142/142/142
f 142/142/142 141/141/141 143/143/143
f 337/337/337 210/210/210 212/212/212
f 212/212/212 338/338/338 337/337/337
f 143/143/143 338/338/338 212/212/212
f 210/210/210 337/337/337 211/211/211
