# geosaurus_a reconstructed from live game memory
v -2.62436 29.20717 -20.54804
v -3.08217 27.10842 -20.36880
v -3.45696 27.81352 -22.36446
v -4.62834 25.43087 -18.96654
v -4.14451 25.48515 -22.32520
v -4.30452 27.84539 -18.64492
v -1.03107 22.67369 -28.49059
v -1.00984 23.50462 -28.90470
v -2.29859 23.54991 -26.59420
v -2.15128 22.29131 -26.64382
v -5.61606 23.61383 -18.44923
v -3.61659 20.67590 -18.55078
v -3.07342 21.46431 -22.73384
v -3.80926 23.51928 -22.85148
v -0.50083 25.39845 -29.20579
v -0.00000 26.01081 -29.66401
v -0.00000 26.81720 -28.59410
v -0.96703 25.98993 -28.22443
v -0.77550 24.25658 -29.43581
v -0.00000 24.45910 -30.18415
v -1.39759 26.48700 -26.60564
v -2.20465 27.64141 -23.35931
v -3.70867 24.41704 -23.37735
v -2.39366 24.30960 -26.59045
v -4.63516 26.13525 -17.22401
v -5.40852 24.69613 -14.99783
v -1.58528 24.20885 -28.08562
v -0.00000 19.87309 -22.65569
v -0.00000 21.49270 -26.74645
v -3.34481 29.70468 -14.96252
v -3.55275 28.92471 -11.44958
v -5.71691 24.15014 -11.46454
v -0.00000 18.82712 -18.59101
v -2.76961 29.50624 -17.31479
v -3.98656 29.36045 -7.37223
v -0.00000 30.54474 -11.43352
v 0.00000 31.23404 -7.27232
v -6.39315 24.51782 -7.38631
v -0.00000 30.32909 -17.31287
v -0.00000 30.78669 -14.93445
v -4.46527 20.43661 -15.08571
v -3.69950 20.15779 -11.47087
v -4.40822 19.73396 -7.43437
v -0.00000 29.53103 -20.34827
v -0.00000 27.18011 -26.75684
v -0.00000 22.22357 -28.94037
v -5.61606 23.61383 -18.44923
v -0.00000 23.53994 -17.86375
v -0.00000 25.78717 -23.94539
v -3.70867 24.41704 -23.37735
v -2.39366 24.30960 -26.59045
v -0.77550 24.25658 -29.43581
v -1.58528 24.20885 -28.08562
v -0.00000 24.45910 -30.18415
v -2.29859 23.54991 -26.59420
v -0.00000 22.59040 -24.45859
v -3.80926 23.51928 -22.85148
v -0.00000 23.53994 -17.86375
v -5.61606 23.61383 -18.44923
v -1.00984 23.50462 -28.90470
v -0.00000 23.25018 -29.61679
v -0.00000 18.90535 -15.13314
v -0.00000 23.25018 -29.61679
v 0.00000 18.14096 -7.49644
v -0.00000 18.60668 -11.47729
v -0.00000 28.31562 -23.34081
v -2.74500 28.62171 -20.50395
v -4.09498 27.45184 -20.48727
v -3.27460 27.73699 -22.09437
v -3.97252 25.62888 -21.92542
v -4.24670 25.55259 -19.13726
v -3.83614 27.85392 -18.66094
v -1.48407 24.38440 -26.91786
v -1.12255 23.52195 -27.27441
v -1.06104 24.38366 -27.75589
v -1.00625 24.31057 -27.83240
v -0.62680 23.49804 -28.27917
v -0.57948 24.38470 -28.64835
v -0.66633 24.33675 -28.80623
v -0.26077 23.49983 -29.10305
v -0.00000 24.37523 -29.44094
v -1.58543 24.37310 -25.91199
v -1.36867 23.48672 -26.45362
v -1.43234 24.31725 -26.89162
v -1.80075 24.32942 -25.01980
v -1.57681 23.50623 -25.57063
v -1.60580 24.45150 -26.18217
v -2.24564 24.25906 -24.11679
v -2.07999 23.52204 -24.59454
v -2.02658 24.28426 -25.03612
v -2.66342 24.32615 -23.22549
v -2.59793 23.53802 -23.69797
v -2.38495 24.34632 -24.19941
v -2.99903 24.30630 -22.19845
v -2.77290 23.53206 -22.64552
v -2.73236 24.30862 -23.14886
v -3.24021 24.33500 -21.12008
v -3.00676 23.59286 -21.60536
v -2.98481 24.33159 -22.11553
v -3.62144 24.34150 -20.15354
v -3.40720 23.59828 -20.66283
v -3.38286 24.35373 -21.13740
v -2.54763 23.18224 -22.60069
v -2.59956 23.89136 -22.15462
v -2.67387 23.31246 -21.85178
v -3.03074 23.33643 -21.51228
v -3.12620 23.95872 -21.13243
v -3.28640 23.37686 -20.78485
v -3.58145 23.24789 -20.58229
v -3.64481 23.90890 -20.19186
v -3.84239 23.36721 -19.85209
v -2.21576 23.16113 -23.63845
v -2.40312 23.91982 -23.17083
v -2.46474 23.23114 -22.88288
v -1.89539 23.14559 -24.66303
v -2.07486 23.88000 -24.11233
v -2.04551 23.11451 -23.73123
v -1.60493 23.09666 -25.47297
v -1.83349 23.90886 -25.03586
v -1.97470 23.20476 -24.62127
v -1.40905 23.18829 -26.48320
v -1.46875 23.91040 -25.99041
v -1.61766 23.29937 -25.55279
v -0.98708 23.11288 -27.35393
v -1.11879 23.79089 -26.84689
v -1.25232 23.14588 -26.47008
v -0.49447 23.14216 -28.33788
v -0.66278 23.83678 -27.84003
v -0.76816 23.18314 -27.36824
v -0.46830 23.23431 -28.33747
v -0.00000 23.13989 -28.75821
v -0.00000 23.25208 -28.75927
v -0.23676 23.83449 -28.55162
v -4.44415 29.79548 -3.67056
v -3.98656 29.36045 -7.37223
v 0.00000 31.23404 -7.27232
v 0.00000 31.78593 -3.61270
v -4.63478 30.32607 24.35341
v -4.70457 30.42811 20.31737
v -0.00000 32.73235 20.32328
v 0.00000 32.76225 24.34408
v -8.65439 24.27952 3.91598
v -6.40859 19.21634 3.90698
v -8.39447 21.75053 -0.76337
v -7.79689 24.58336 -0.37586
v -8.13463 25.20515 -3.75777
v -10.01926 21.69769 -3.73178
v -6.39315 24.51782 -7.38631
v -4.40822 19.73396 -7.43437
v -7.88917 20.75784 -6.50820
v -4.36142 18.10048 -4.19954
v 0.00000 17.37578 -4.43734
v 0.00000 18.14096 -7.49644
v -4.44527 17.72524 -0.26130
v -0.00000 16.97292 -0.32594
v -0.00000 16.91823 3.90725
v -6.77271 18.62101 8.05505
v -0.00000 16.53251 8.05738
v -8.73954 23.73140 14.18836
v -6.27013 18.68828 14.17563
v -8.95428 24.02448 8.07828
v -6.12832 19.18796 20.40784
v -0.00000 17.55355 20.41080
v -0.00000 16.87016 14.17393
v -8.22947 24.23126 20.33195
v -4.77630 29.93013 -0.37358
v -5.63873 30.23454 3.92788
v -5.90583 30.33362 8.09457
v -3.85084 29.22609 28.77267
v -6.13599 25.00716 28.77428
v -5.54923 30.38872 14.17876
v -0.00000 32.55128 14.17992
v -0.47055 29.50861 38.74306
v 0.00000 30.70289 38.74252
v 0.00000 29.73682 47.11475
v -0.40848 28.47805 47.11282
v -1.55369 23.04423 53.07954
v -1.81379 22.62815 47.10136
v -2.70605 25.61691 47.10667
v -2.23787 25.59445 53.07789
v 0.00000 32.28487 28.78592
v -2.53532 21.64232 38.74609
v -5.25485 19.88710 26.35817
v -6.13599 25.00716 28.77428
v -3.84382 25.70346 38.74496
v -3.85084 29.22609 28.77267
v 0.00000 20.56257 38.72987
v -0.00000 18.69790 26.46719
v 0.00000 21.94046 47.09996
v 0.00000 29.24824 53.08420
v -0.35313 28.00816 53.08258
v -0.00000 29.10866 57.87898
v -0.28072 28.09582 57.86933
v -2.05583 25.18618 57.81187
v -0.00000 22.55992 57.85190
v 0.00000 22.53805 53.08204
v -1.06651 25.74402 62.43956
v -0.66088 22.74983 66.13489
v -1.67485 20.24034 64.94778
v -1.84096 22.76796 61.58127
v -0.00000 18.40672 63.97646
v -0.00000 20.71724 60.89176
v -0.00000 19.93053 69.49667
v -1.42917 17.88705 68.00000
v -0.00000 16.39553 67.32361
v -0.91229 14.72910 71.99483
v -0.00000 14.19729 70.88799
v -0.00000 15.87110 72.75880
v -0.00000 11.66202 76.08418
v -1.06651 25.74402 62.43956
v -0.00000 31.10782 61.90121
v -0.00000 25.07893 67.96886
v -0.66088 22.74983 66.13489
v -0.00000 32.55610 8.12057
v -0.00000 32.22227 -0.36911
v -0.00000 32.47780 3.92881
v -7.11553 19.21687 -3.61989
v -6.69572 19.53582 -1.63867
v -8.39447 21.75053 -0.76337
v -10.99819 19.79710 -0.13952
v -12.93109 19.04251 -2.02325
v -10.01926 21.69769 -3.73178
v -7.88917 20.75784 -6.50820
v -12.38153 16.90501 -3.89745
v -12.38153 16.90501 -3.89745
v -15.55283 14.21247 -0.08724
v -13.42365 15.54870 1.83571
v -11.73546 16.42010 -0.50884
v -13.57087 18.80079 3.57231
v -15.65677 16.88410 1.30906
v -15.55283 14.21247 -0.08724
v -6.69572 19.53582 -1.63867
v -9.17824 25.17820 24.68914
v -0.00000 19.93053 69.49667
v -0.00000 34.26852 66.74605
v -0.48104 33.20370 67.48453
v -0.00000 35.54361 69.90298
v -11.21664 21.47104 25.59332
v -9.50627 22.22985 28.29637
v -10.33984 20.62675 22.10730
v -5.25485 19.88710 26.35817
v -0.00000 18.69790 26.46719
v -14.19034 17.87111 27.87131
v -11.21664 21.47104 25.59332
v -9.50627 22.22985 28.29637
v -11.55114 19.46162 29.55573
v -10.94337 17.31017 28.38893
v -13.30894 14.39329 32.67013
v -13.28852 18.41743 33.00111
v -17.07326 12.28143 30.61322
v -14.22702 15.58097 25.82467
v -16.65068 16.11713 32.10994
v -5.25485 19.88710 26.35817
v -6.12832 19.18796 20.40784
v -14.22702 15.58097 25.82467
v -17.07326 12.28143 30.61322
v -0.00000 32.04340 68.67152
v 0.00000 32.28487 28.78592
v 0.00000 32.28487 28.78592
v -0.47055 29.50861 38.74306
v -0.40848 28.47805 47.11282
v -0.35313 28.00816 53.08258
v -0.28072 28.09582 57.86933
v -14.32653 14.78517 36.87845
v -16.78671 13.04187 40.82108
v -15.74163 16.26667 36.46876
v -17.67436 13.69511 37.48994
v -16.28551 11.87759 38.51029
v -13.92226 17.19598 36.30509
v -14.71044 16.07090 38.37926
v -18.37736 10.46640 40.02229
v -18.25163 10.46064 37.15929
v -16.28551 11.87759 38.51029
v -18.25163 10.46064 37.15929
v -18.37736 10.46640 40.02229
v -14.32653 14.78517 36.87845
v -14.71044 16.07090 38.37926
v -13.27789 18.33901 34.55085
v -16.78671 13.04187 40.82108
v -14.34146 15.92364 5.12523
v -16.40289 14.17728 7.48537
v -15.50330 16.96125 4.90169
v -16.69392 15.01933 5.07014
v -15.61041 13.69772 5.78432
v -14.30038 17.67297 5.14251
v -14.98636 16.61683 6.37952
v -17.11896 12.47684 6.40890
v -16.70820 12.63581 3.87417
v -15.61041 13.69772 5.78432
v -16.70820 12.63581 3.87417
v -17.11896 12.47684 6.40890
v -14.34146 15.92364 5.12523
v -16.40289 14.17728 7.48537
v -7.11553 19.21687 -3.61989
v -7.88917 20.75784 -6.50820
v -10.33984 20.62675 22.10730
v -10.33984 20.62675 22.10730
v 2.62436 29.20717 -20.54804
v 3.45696 27.81352 -22.36446
v 3.08217 27.10842 -20.36880
v 4.62834 25.43087 -18.96654
v 4.14451 25.48515 -22.32520
v 4.30452 27.84539 -18.64492
v 1.03107 22.67369 -28.49059
v 2.15128 22.29131 -26.64382
v 2.29859 23.54991 -26.59420
v 1.00984 23.50462 -28.90470
v 5.61606 23.61383 -18.44923
v 3.80926 23.51928 -22.85148
v 3.07342 21.46431 -22.73384
v 3.61659 20.67590 -18.55078
v 0.50083 25.39845 -29.20579
v 0.96703 25.98993 -28.22443
v 0.77550 24.25658 -29.43581
v 1.39759 26.48700 -26.60564
v 2.39366 24.30960 -26.59045
v 3.70867 24.41704 -23.37735
v 2.20465 27.64141 -23.35931
v 4.63516 26.13525 -17.22401
v 5.40852 24.69613 -14.99783
v 1.58528 24.20885 -28.08562
v 5.71691 24.15014 -11.46454
v 3.55275 28.92471 -11.44958
v 3.34481 29.70468 -14.96252
v 2.76961 29.50624 -17.31479
v 3.98656 29.36045 -7.37223
v 6.39315 24.51782 -7.38631
v 4.46527 20.43661 -15.08571
v 3.69950 20.15779 -11.47087
v 4.40822 19.73396 -7.43437
v 5.61606 23.61383 -18.44923
v 3.70867 24.41704 -23.37735
v 2.39366 24.30960 -26.59045
v 0.77550 24.25658 -29.43581
v 1.58528 24.20885 -28.08562
v 2.29859 23.54991 -26.59420
v 3.80926 23.51928 -22.85148
v 5.61606 23.61383 -18.44923
v 1.00984 23.50462 -28.90470
v 2.74500 28.62171 -20.50395
v 3.27460 27.73699 -22.09437
v 4.09498 27.45184 -20.48727
v 3.97252 25.62888 -21.92542
v 4.24670 25.55259 -19.13726
v 3.83614 27.85392 -18.66094
v 1.48407 24.38440 -26.91786
v 1.06104 24.38366 -27.75589
v 1.12255 23.52195 -27.27441
v 1.00625 24.31057 -27.83240
v 0.57948 24.38470 -28.64835
v 0.62680 23.49804 -28.27917
v 0.66633 24.33675 -28.80623
v 0.26077 23.49983 -29.10305
v 1.58543 24.37310 -25.91199
v 1.43234 24.31725 -26.89162
v 1.36867 23.48672 -26.45362
v 1.80075 24.32942 -25.01980
v 1.60580 24.45150 -26.18217
v 1.57681 23.50623 -25.57063
v 2.24564 24.25906 -24.11679
v 2.02658 24.28426 -25.03612
v 2.07999 23.52204 -24.59454
v 2.66342 24.32615 -23.22549
v 2.38495 24.34632 -24.19941
v 2.59793 23.53802 -23.69797
v 2.99903 24.30630 -22.19845
v 2.73236 24.30862 -23.14886
v 2.77290 23.53206 -22.64552
v 3.24021 24.33500 -21.12008
v 2.98481 24.33159 -22.11553
v 3.00676 23.59286 -21.60536
v 3.62144 24.34150 -20.15354
v 3.38286 24.35373 -21.13740
v 3.40720 23.59828 -20.66283
v 2.54763 23.18224 -22.60069
v 2.67387 23.31246 -21.85178
v 2.59956 23.89136 -22.15462
v 3.03074 23.33643 -21.51228
v 3.28640 23.37686 -20.78485
v 3.12620 23.95872 -21.13243
v 3.58145 23.24789 -20.58229
v 3.84239 23.36721 -19.85209
v 3.64481 23.90890 -20.19186
v 2.21576 23.16113 -23.63845
v 2.46474 23.23114 -22.88288
v 2.40312 23.91982 -23.17083
v 1.89539 23.14559 -24.66303
v 2.04551 23.11451 -23.73123
v 2.07486 23.88000 -24.11233
v 1.60493 23.09666 -25.47297
v 1.97470 23.20476 -24.62127
v 1.83349 23.90886 -25.03586
v 1.40905 23.18829 -26.48320
v 1.61766 23.29937 -25.55279
v 1.46875 23.91040 -25.99041
v 0.98708 23.11288 -27.35393
v 1.25232 23.14588 -26.47008
v 1.11879 23.79089 -26.84689
v 0.49447 23.14216 -28.33788
v 0.76816 23.18314 -27.36824
v 0.66278 23.83678 -27.84003
v 0.46830 23.23431 -28.33747
v 0.23676 23.83449 -28.55162
v 4.44415 29.79548 -3.67056
v 3.98656 29.36045 -7.37223
v 4.63478 30.32607 24.35341
v 4.70457 30.42811 20.31737
v 8.65439 24.27952 3.91598
v 7.79689 24.58336 -0.37586
v 8.39447 21.75053 -0.76337
v 6.40859 19.21634 3.90698
v 8.13463 25.20515 -3.75777
v 10.01926 21.69769 -3.73178
v 6.39315 24.51782 -7.38631
v 4.40822 19.73396 -7.43437
v 7.88917 20.75784 -6.50820
v 4.36142 18.10048 -4.19954
v 4.44527 17.72524 -0.26130
v 6.77271 18.62101 8.05505
v 8.73954 23.73140 14.18836
v 8.95428 24.02448 8.07828
v 6.27013 18.68828 14.17563
v 6.12832 19.18796 20.40784
v 8.22947 24.23126 20.33195
v 5.63873 30.23454 3.92788
v 4.77630 29.93013 -0.37358
v 5.90583 30.33362 8.09457
v 6.13599 25.00716 28.77428
v 3.85084 29.22609 28.77267
v 5.54923 30.38872 14.17876
v 0.47055 29.50861 38.74306
v 0.40848 28.47805 47.11282
v 1.55369 23.04423 53.07954
v 2.23787 25.59445 53.07789
v 2.70605 25.61691 47.10667
v 1.81379 22.62815 47.10136
v 2.53532 21.64232 38.74609
v 3.84382 25.70346 38.74496
v 6.13599 25.00716 28.77428
v 5.25485 19.88710 26.35817
v 3.85084 29.22609 28.77267
v 0.35313 28.00816 53.08258
v 0.28072 28.09582 57.86933
v 2.05583 25.18618 57.81187
v 1.06651 25.74402 62.43956
v 1.84096 22.76796 61.58127
v 1.67485 20.24034 64.94778
v 0.66088 22.74983 66.13489
v 1.42917 17.88705 68.00000
v 0.91229 14.72910 71.99483
v 1.06651 25.74402 62.43956
v 0.66088 22.74983 66.13489
v 7.11553 19.21686 -3.61989
v 6.69572 19.53582 -1.63867
v 8.39447 21.75053 -0.76337
v 10.01926 21.69769 -3.73178
v 12.93109 19.04251 -2.02325
v 10.99819 19.79709 -0.13952
v 7.88917 20.75784 -6.50820
v 12.38153 16.90501 -3.89745
v 12.38153 16.90501 -3.89745
v 11.73546 16.42010 -0.50884
v 13.42365 15.54869 1.83571
v 15.55283 14.21247 -0.08724
v 13.57087 18.80078 3.57232
v 15.55283 14.21247 -0.08724
v 15.65677 16.88410 1.30906
v 6.69572 19.53582 -1.63867
v 9.17824 25.17820 24.68914
v 0.48104 33.20370 67.48453
v 11.21664 21.47104 25.59332
v 9.50627 22.22985 28.29637
v 10.33984 20.62675 22.10730
v 5.25485 19.88710 26.35817
v 14.19034 17.87111 27.87131
v 11.55114 19.46162 29.55573
v 9.50627 22.22985 28.29637
v 11.21664 21.47104 25.59332
v 13.28852 18.41743 33.00112
v 13.30893 14.39329 32.67013
v 10.94337 17.31017 28.38893
v 17.07326 12.28143 30.61322
v 16.65068 16.11713 32.10994
v 14.22702 15.58097 25.82467
v 5.25485 19.88710 26.35817
v 14.22702 15.58097 25.82467
v 6.12832 19.18796 20.40784
v 17.07326 12.28143 30.61322
v 0.47055 29.50861 38.74306
v 0.40848 28.47805 47.11282
v 0.35313 28.00816 53.08258
v 0.28072 28.09582 57.86933
v 14.32653 14.78517 36.87846
v 15.74163 16.26667 36.46877
v 16.78671 13.04187 40.82109
v 17.67436 13.69511 37.48995
v 16.28551 11.87759 38.51030
v 13.92225 17.19597 36.30510
v 14.71044 16.07090 38.37926
v 18.37736 10.46640 40.02229
v 18.25163 10.46063 37.15930
v 16.28551 11.87759 38.51030
v 18.37736 10.46640 40.02229
v 18.25163 10.46063 37.15930
v 14.71044 16.07090 38.37926
v 14.32653 14.78517 36.87846
v 13.27789 18.33901 34.55085
v 16.78671 13.04187 40.82109
v 14.34146 15.92364 5.12523
v 15.50330 16.96124 4.90169
v 16.40289 14.17727 7.48537
v 16.69392 15.01933 5.07014
v 15.61041 13.69772 5.78432
v 14.30037 17.67297 5.14251
v 14.98636 16.61683 6.37952
v 17.11896 12.47683 6.40890
v 16.70820 12.63581 3.87418
v 15.61041 13.69772 5.78432
v 17.11896 12.47683 6.40890
v 16.70820 12.63581 3.87418
v 14.34146 15.92364 5.12523
v 16.40289 14.17727 7.48537
v 7.88917 20.75784 -6.50820
v 7.11553 19.21686 -3.61989
v 10.33984 20.62675 22.10730
v 10.33984 20.62675 22.10730
vt 0.711891 0.939834
vt 0.708463 0.907874
vt 0.682554 0.912435
vt 0.716818 0.887349
vt 0.690281 0.894848
vt 0.734959 0.897554
vt 0.482523 0.712769
vt 0.466354 0.719941
vt 0.534930 0.749701
vt 0.539407 0.730712
vt 0.743552 0.820061
vt 0.756266 0.755374
vt 0.643387 0.748567
vt 0.633891 0.783385
vt 0.482376 0.958520
vt 0.472075 0.972793
vt 0.500681 0.978546
vt 0.509378 0.956563
vt 0.471370 0.943108
vt 0.450827 0.956298
vt 0.556089 0.949962
vt 0.636693 0.939520
vt 0.635832 0.886128
vt 0.554523 0.914776
vt 0.764706 0.873642
vt 0.830913 0.845156
vt 0.505518 0.927970
vt 0.647382 0.690413
vt 0.540361 0.690250
vt 0.842284 0.926392
vt 0.909670 0.915715
vt 0.900450 0.827791
vt 0.767345 0.684513
vt 0.789804 0.936320
vt 0.984174 0.913004
vt 0.914377 0.987404
vt 0.984516 0.991540
vt 0.984253 0.829370
vt 0.803885 0.989698
vt 0.847423 0.989082
vt 0.829444 0.770486
vt 0.907510 0.757360
vt 0.985891 0.754431
vt 0.712920 0.992759
vt 0.548666 0.979830
vt 0.469642 0.692937
vt 0.010726 0.178968
vt 0.016185 0.264487
vt 0.124731 0.235725
vt 0.092118 0.185454
vt 0.156240 0.189677
vt 0.220728 0.197870
vt 0.193564 0.192275
vt 0.236878 0.206038
vt 0.172311 0.177562
vt 0.141345 0.131244
vt 0.093567 0.176270
vt 0.027189 0.088966
vt 0.013747 0.172047
vt 0.213218 0.177046
vt 0.230611 0.167231
vt 0.830355 0.686384
vt 0.447034 0.701118
vt 0.985407 0.674682
vt 0.905749 0.682115
vt 0.630995 0.987312
vt 0.157221 0.269262
vt 0.175647 0.297935
vt 0.215151 0.293226
vt 0.201176 0.322496
vt 0.162305 0.322032
vt 0.135056 0.291445
vt 0.476065 0.913356
vt 0.631276 0.826690
vt 0.476068 0.763393
vt 0.476095 0.913409
vt 0.631298 0.826704
vt 0.476062 0.763426
vt 0.476088 0.913341
vt 0.631317 0.826713
vt 0.476066 0.763437
vt 0.476061 0.913439
vt 0.631334 0.826684
vt 0.476080 0.763401
vt 0.476056 0.913441
vt 0.631169 0.826671
vt 0.476040 0.763354
vt 0.476105 0.913399
vt 0.631164 0.826657
vt 0.476079 0.763395
vt 0.476084 0.913428
vt 0.631204 0.826710
vt 0.476073 0.763395
vt 0.476094 0.913392
vt 0.631205 0.826671
vt 0.476080 0.763382
vt 0.476099 0.913394
vt 0.631152 0.826640
vt 0.476084 0.763372
vt 0.476090 0.913406
vt 0.631120 0.826639
vt 0.476077 0.763382
vt 0.476087 0.763418
vt 0.631066 0.826693
vt 0.476145 0.913390
vt 0.476087 0.763418
vt 0.631066 0.826693
vt 0.476145 0.913390
vt 0.476087 0.763418
vt 0.631066 0.826693
vt 0.476145 0.913390
vt 0.476087 0.763418
vt 0.631067 0.826693
vt 0.476145 0.913390
vt 0.476087 0.763418
vt 0.631067 0.826693
vt 0.476145 0.913390
vt 0.476087 0.763418
vt 0.631067 0.826693
vt 0.476145 0.913390
vt 0.476087 0.763418
vt 0.631066 0.826693
vt 0.476145 0.913390
vt 0.476087 0.763418
vt 0.631066 0.826693
vt 0.476145 0.913390
vt 0.476087 0.763418
vt 0.631066 0.826693
vt 0.476145 0.913390
vt 0.476145 0.913390
vt 0.476092 0.777802
vt 0.502966 0.774392
vt 0.631067 0.826693
vt 0.905384 0.564190
vt 0.971614 0.555215
vt 0.975563 0.630341
vt 0.911410 0.642757
vt 0.398219 0.570030
vt 0.472624 0.575888
vt 0.463803 0.654882
vt 0.389292 0.645557
vt 0.766519 0.474335
vt 0.769194 0.382791
vt 0.843162 0.428054
vt 0.839076 0.480323
vt 0.898360 0.480593
vt 0.888427 0.431678
vt 0.970610 0.469586
vt 0.974919 0.385792
vt 0.934029 0.428815
vt 0.907558 0.365501
vt 0.924289 0.300250
vt 0.980311 0.306655
vt 0.843161 0.362722
vt 0.850822 0.290151
vt 0.777193 0.284004
vt 0.698291 0.376122
vt 0.705954 0.274153
vt 0.587759 0.465741
vt 0.593121 0.372173
vt 0.694364 0.469839
vt 0.482092 0.365308
vt 0.484874 0.266243
vt 0.598396 0.267574
vt 0.484706 0.469399
vt 0.843044 0.567504
vt 0.771006 0.570259
vt 0.694302 0.577529
vt 0.339951 0.554495
vt 0.300941 0.500854
vt 0.583252 0.576852
vt 0.578195 0.662873
vt 0.789077 0.211795
vt 0.774560 0.251762
vt 0.642648 0.221143
vt 0.645936 0.188302
vt 0.526766 0.085593
vt 0.650407 0.086336
vt 0.651628 0.139152
vt 0.526801 0.128485
vt 0.962250 0.271723
vt 0.789718 0.084153
vt 0.989485 0.079400
vt 0.991111 0.143040
vt 0.800058 0.146153
vt 0.984228 0.205533
vt 0.782399 0.039734
vt 0.964754 0.014507
vt 0.647632 0.050337
vt 0.525032 0.207421
vt 0.526749 0.179638
vt 0.426755 0.201428
vt 0.427629 0.170212
vt 0.427130 0.115287
vt 0.428765 0.055883
vt 0.527461 0.052768
vt 0.343150 0.133753
vt 0.255899 0.116058
vt 0.269647 0.075326
vt 0.346322 0.087254
vt 0.279113 0.026990
vt 0.351546 0.033473
vt 0.186635 0.103745
vt 0.204888 0.063948
vt 0.205327 0.024319
vt 0.113327 0.047969
vt 0.122657 0.026507
vt 0.105755 0.074958
vt 0.020611 0.036853
vt 0.343150 0.133753
vt 0.371787 0.209500
vt 0.245410 0.157842
vt 0.255899 0.116058
vt 0.696771 0.662903
vt 0.849441 0.649263
vt 0.775861 0.656039
vt 0.895224 0.407742
vt 0.865014 0.402760
vt 0.161013 0.368519
vt 0.158398 0.439462
vt 0.090527 0.443401
vt 0.096972 0.356671
vt 0.035284 0.312727
vt 0.019894 0.430605
vt 0.293464 0.441217
vt 0.302047 0.531544
vt 0.232876 0.529766
vt 0.226262 0.466276
vt 0.157749 0.527554
vt 0.082665 0.532239
vt 0.017351 0.532861
vt 0.210887 0.358375
vt 0.401141 0.470962
vt 0.186635 0.103745
vt 0.321597 0.241260
vt 0.302522 0.226817
vt 0.270319 0.276164
vt 0.450897 0.430819
vt 0.382269 0.432420
vt 0.477867 0.444844
vt 0.370236 0.362846
vt 0.365642 0.275964
vt 0.152922 0.745242
vt 0.054903 0.749449
vt 0.055853 0.820730
vt 0.137266 0.827033
vt 0.136917 0.898661
vt 0.249813 0.906032
vt 0.230601 0.826561
vt 0.254724 0.678680
vt 0.142436 0.682368
vt 0.257293 0.747936
vt 0.032835 0.894309
vt 0.022854 0.931003
vt 0.145725 0.976201
vt 0.271124 0.985651
vt 0.274220 0.215900
vt 0.341909 0.630067
vt 0.962250 0.271723
vt 0.789077 0.211795
vt 0.645936 0.188302
vt 0.526749 0.179638
vt 0.427629 0.170212
vt 0.386922 0.799669
vt 0.442187 0.763240
vt 0.352749 0.781294
vt 0.366780 0.716454
vt 0.417768 0.715666
vt 0.316578 0.834642
vt 0.379317 0.830042
vt 0.421995 0.671263
vt 0.364132 0.672083
vt 0.366427 0.919968
vt 0.384732 0.961642
vt 0.429540 0.936708
vt 0.329032 0.870040
vt 0.363906 0.849011
vt 0.261816 0.824346
vt 0.418148 0.884366
vt 0.150713 0.611564
vt 0.115032 0.661164
vt 0.134732 0.585906
vt 0.074475 0.614248
vt 0.078812 0.646463
vt 0.159829 0.565552
vt 0.175609 0.609792
vt 0.043227 0.653436
vt 0.030501 0.612377
vt 0.226901 0.620777
vt 0.281414 0.612122
vt 0.249413 0.653497
vt 0.193242 0.580511
vt 0.198943 0.647523
vt 0.239664 0.364623
vt 0.300430 0.332287
vt 0.014410 0.965302
vt 0.031278 0.676571
vt 0.711891 0.939834
vt 0.682554 0.912435
vt 0.708463 0.907874
vt 0.716818 0.887349
vt 0.690281 0.894848
vt 0.734959 0.897554
vt 0.482523 0.712769
vt 0.539407 0.730712
vt 0.534930 0.749701
vt 0.466354 0.719941
vt 0.743552 0.820061
vt 0.633891 0.783385
vt 0.643387 0.748567
vt 0.756266 0.755374
vt 0.482376 0.958520
vt 0.509378 0.956563
vt 0.471370 0.943108
vt 0.556089 0.949962
vt 0.554523 0.914776
vt 0.635832 0.886128
vt 0.636693 0.939520
vt 0.764706 0.873642
vt 0.830913 0.845156
vt 0.505518 0.927970
vt 0.900450 0.827791
vt 0.909670 0.915715
vt 0.842284 0.926392
vt 0.789804 0.936320
vt 0.984174 0.913004
vt 0.984253 0.829370
vt 0.829444 0.770486
vt 0.907510 0.757360
vt 0.985891 0.754431
vt 0.010726 0.178968
vt 0.092118 0.185454
vt 0.156240 0.189677
vt 0.220728 0.197870
vt 0.193564 0.192275
vt 0.172311 0.177562
vt 0.093567 0.176270
vt 0.013747 0.172047
vt 0.213218 0.177046
vt 0.157221 0.269262
vt 0.215151 0.293226
vt 0.175647 0.297935
vt 0.201176 0.322496
vt 0.162305 0.322032
vt 0.135056 0.291445
vt 0.476065 0.913356
vt 0.476068 0.763393
vt 0.631276 0.826690
vt 0.476095 0.913409
vt 0.476062 0.763426
vt 0.631298 0.826704
vt 0.476088 0.913341
vt 0.631317 0.826713
vt 0.476061 0.913439
vt 0.476080 0.763401
vt 0.631334 0.826684
vt 0.476056 0.913441
vt 0.476040 0.763354
vt 0.631169 0.826671
vt 0.476105 0.913399
vt 0.476079 0.763395
vt 0.631164 0.826657
vt 0.476084 0.913428
vt 0.476073 0.763395
vt 0.631204 0.826710
vt 0.476094 0.913392
vt 0.476080 0.763382
vt 0.631205 0.826671
vt 0.476099 0.913394
vt 0.476084 0.763372
vt 0.631152 0.826640
vt 0.476090 0.913406
vt 0.476077 0.763382
vt 0.631120 0.826639
vt 0.476087 0.763418
vt 0.476145 0.913390
vt 0.631066 0.826693
vt 0.476087 0.763418
vt 0.476145 0.913390
vt 0.631066 0.826693
vt 0.476087 0.763418
vt 0.476145 0.913390
vt 0.631066 0.826693
vt 0.476087 0.763418
vt 0.476145 0.913390
vt 0.631067 0.826693
vt 0.476087 0.763418
vt 0.476145 0.913390
vt 0.631067 0.826693
vt 0.476087 0.763418
vt 0.476145 0.913390
vt 0.631067 0.826693
vt 0.476087 0.763418
vt 0.476145 0.913390
vt 0.631066 0.826693
vt 0.476087 0.763418
vt 0.476145 0.913390
vt 0.631066 0.826693
vt 0.476087 0.763418
vt 0.476145 0.913390
vt 0.631066 0.826693
vt 0.476145 0.913390
vt 0.631067 0.826693
vt 0.905384 0.564190
vt 0.971614 0.555215
vt 0.398219 0.570030
vt 0.472624 0.575888
vt 0.766519 0.474335
vt 0.839076 0.480323
vt 0.843162 0.428054
vt 0.769194 0.382791
vt 0.898360 0.480593
vt 0.888427 0.431678
vt 0.970610 0.469586
vt 0.974919 0.385792
vt 0.934029 0.428815
vt 0.907558 0.365501
vt 0.843161 0.362722
vt 0.698291 0.376122
vt 0.587759 0.465741
vt 0.694364 0.469839
vt 0.593121 0.372173
vt 0.482092 0.365308
vt 0.484706 0.469399
vt 0.771006 0.570259
vt 0.843044 0.567504
vt 0.694302 0.577529
vt 0.300941 0.500854
vt 0.339951 0.554495
vt 0.583252 0.576852
vt 0.789077 0.211795
vt 0.645936 0.188302
vt 0.526766 0.085593
vt 0.526801 0.128485
vt 0.651628 0.139152
vt 0.650407 0.086336
vt 0.789718 0.084153
vt 0.800058 0.146153
vt 0.991111 0.143040
vt 0.989485 0.079400
vt 0.984228 0.205533
vt 0.526749 0.179638
vt 0.427629 0.170212
vt 0.427130 0.115287
vt 0.343150 0.133753
vt 0.346322 0.087254
vt 0.269647 0.075326
vt 0.255899 0.116058
vt 0.204888 0.063948
vt 0.113327 0.047969
vt 0.343150 0.133753
vt 0.255899 0.116058
vt 0.895224 0.407742
vt 0.865014 0.402760
vt 0.161013 0.368519
vt 0.096972 0.356671
vt 0.090527 0.443401
vt 0.158398 0.439462
vt 0.035284 0.312727
vt 0.019894 0.430605
vt 0.293464 0.441217
vt 0.226262 0.466276
vt 0.232876 0.529766
vt 0.302047 0.531544
vt 0.157749 0.527554
vt 0.017351 0.532861
vt 0.082665 0.532239
vt 0.210887 0.358375
vt 0.401141 0.470962
vt 0.302522 0.226817
vt 0.450897 0.430819
vt 0.382269 0.432420
vt 0.477867 0.444844
vt 0.370236 0.362846
vt 0.152922 0.745242
vt 0.137266 0.827033
vt 0.055853 0.820730
vt 0.054903 0.749449
vt 0.230601 0.826561
vt 0.249813 0.906032
vt 0.136917 0.898661
vt 0.254724 0.678680
vt 0.257293 0.747936
vt 0.142436 0.682368
vt 0.032835 0.894309
vt 0.145725 0.976201
vt 0.022854 0.931003
vt 0.271124 0.985651
vt 0.789077 0.211795
vt 0.645936 0.188302
vt 0.526749 0.179638
vt 0.427629 0.170212
vt 0.386922 0.799669
vt 0.352749 0.781294
vt 0.442187 0.763240
vt 0.366780 0.716454
vt 0.417768 0.715666
vt 0.316578 0.834642
vt 0.379317 0.830042
vt 0.421995 0.671263
vt 0.364132 0.672083
vt 0.366427 0.919968
vt 0.429540 0.936708
vt 0.384732 0.961642
vt 0.363906 0.849011
vt 0.329032 0.870040
vt 0.261816 0.824346
vt 0.418148 0.884366
vt 0.150713 0.611564
vt 0.134732 0.585906
vt 0.115032 0.661164
vt 0.074475 0.614248
vt 0.078812 0.646463
vt 0.159829 0.565552
vt 0.175609 0.609792
vt 0.043227 0.653436
vt 0.030501 0.612377
vt 0.226901 0.620777
vt 0.249413 0.653497
vt 0.281414 0.612122
vt 0.193242 0.580511
vt 0.198943 0.647523
vt 0.300430 0.332287
vt 0.239664 0.364623
vt 0.014410 0.965302
vt 0.031278 0.676571
vn -0.53246 0.78185 -0.32434
vn -0.93069 0.31942 -0.17830
vn -0.85469 0.46297 -0.23489
vn -0.89625 0.38207 -0.22531
vn -0.88657 0.33615 -0.31782
vn -0.90350 0.36245 -0.22875
vn -0.66544 -0.51873 -0.53676
vn -0.66498 -0.35315 -0.65810
vn -0.89497 -0.18418 -0.40633
vn -0.71877 -0.55924 -0.41306
vn -0.97964 -0.05404 -0.19333
vn -0.60966 -0.76207 -0.21810
vn -0.73309 -0.60652 -0.30776
vn -0.87405 -0.33322 -0.35355
vn -0.77662 0.33002 -0.53661
vn -0.00000 0.56819 -0.82289
vn -0.00000 0.83858 -0.54477
vn -0.73317 0.53863 -0.41513
vn -0.76685 0.29888 -0.56799
vn -0.00000 0.37282 -0.92790
vn -0.74816 0.53304 -0.39512
vn -0.52695 0.65957 -0.53599
vn -0.85451 0.28047 -0.43722
vn -0.82984 0.37674 -0.41161
vn -0.92064 0.38779 -0.04513
vn -0.97998 0.19803 -0.02069
vn -0.83996 0.29876 -0.45300
vn 0.00000 -0.95737 -0.28887
vn 0.00000 -0.93830 -0.34584
vn -0.62674 0.77694 -0.05966
vn -0.76426 0.64461 -0.01953
vn -0.99674 0.02810 -0.07569
vn -0.00000 -0.99055 -0.13718
vn -0.55531 0.82714 -0.08648
vn -0.69128 0.70358 -0.16463
vn -0.00000 0.99991 -0.01324
vn 0.00000 0.98685 -0.16164
vn -0.87787 0.15677 -0.45251
vn -0.00000 0.97987 -0.19966
vn 0.00000 0.99816 -0.06064
vn -0.70711 -0.70597 -0.04005
vn -0.68222 -0.72747 -0.07317
vn -0.45339 -0.76679 -0.45439
vn -0.00000 0.96969 -0.24433
vn 0.00000 0.93730 -0.34852
vn -0.00000 -0.69022 -0.72360
vn 0.37121 -0.85131 -0.37077
vn -0.00000 0.89986 -0.43618
vn -0.00000 -0.99694 0.07821
vn 0.35624 -0.93093 0.08040
vn 0.33925 -0.91792 0.20576
vn 0.39894 -0.89632 0.19352
vn 0.34809 -0.91257 0.21460
vn 0.00000 -0.97808 0.20821
vn 0.27842 0.95189 0.12800
vn 0.00000 0.99810 0.06169
vn 0.16081 0.98692 -0.01128
vn -0.00000 0.89986 -0.43618
vn 0.37121 -0.85131 -0.37077
vn 0.29746 0.94625 0.12701
vn 0.00000 0.99192 0.12688
vn -0.00000 -0.99957 -0.02944
vn 0.00000 -0.55020 -0.83503
vn 0.00000 -0.98443 -0.17578
vn 0.00000 -0.99806 -0.06225
vn 0.00000 0.91469 -0.40415
vn -0.64981 0.74792 -0.13547
vn -0.89866 0.41438 -0.14389
vn -0.79415 0.52095 -0.31295
vn -0.95704 0.13723 -0.25544
vn -0.99659 0.08244 0.00397
vn -0.87455 0.48464 0.01725
vn -0.87741 -0.18475 -0.44274
vn -0.87741 -0.18475 -0.44274
vn -0.87741 -0.18475 -0.44274
vn -0.87064 -0.14877 -0.46889
vn -0.87064 -0.14877 -0.46889
vn -0.87064 -0.14877 -0.46889
vn -0.68547 -0.07534 -0.72419
vn -0.68547 -0.07534 -0.72419
vn 0.00000 -0.10348 -0.99463
vn -0.97795 -0.15103 -0.14422
vn -0.97795 -0.15103 -0.14422
vn -0.97795 -0.15103 -0.14422
vn -0.97315 -0.14531 -0.17848
vn -0.97315 -0.14531 -0.17848
vn -0.97315 -0.14531 -0.17848
vn -0.97016 -0.06700 -0.23302
vn -0.97016 -0.06700 -0.23302
vn -0.97016 -0.06700 -0.23302
vn -0.95856 0.08361 -0.27235
vn -0.95856 0.08361 -0.27235
vn -0.95856 0.08361 -0.27235
vn -0.95530 -0.12407 -0.26835
vn -0.95530 -0.12407 -0.26835
vn -0.95530 -0.12407 -0.26835
vn -0.95905 -0.14110 -0.24558
vn -0.95905 -0.14110 -0.24558
vn -0.95905 -0.14110 -0.24558
vn -0.96485 -0.11680 -0.23541
vn -0.96485 -0.11680 -0.23541
vn -0.96485 -0.11680 -0.23541
vn -0.98439 0.03627 -0.17224
vn -0.98439 0.03627 -0.17224
vn -0.98439 0.03627 -0.17224
vn -0.94071 0.05953 -0.33394
vn -0.94071 0.05953 -0.33394
vn -0.94071 0.05953 -0.33394
vn -0.92876 0.11846 -0.35125
vn -0.92876 0.11846 -0.35125
vn -0.92876 0.11846 -0.35125
vn -0.95004 -0.04417 -0.30898
vn -0.95004 -0.04417 -0.30898
vn -0.95004 -0.04417 -0.30898
vn -0.97973 -0.11811 -0.16178
vn -0.97973 -0.11811 -0.16178
vn -0.97973 -0.11811 -0.16178
vn -0.91843 -0.04708 -0.39277
vn -0.91843 -0.04708 -0.39277
vn -0.91843 -0.04708 -0.39277
vn -0.97114 0.07437 -0.22662
vn -0.97114 0.07437 -0.22662
vn -0.97114 0.07437 -0.22662
vn -0.95707 0.02970 -0.28833
vn -0.95707 0.02970 -0.28833
vn -0.95707 0.02970 -0.28833
vn -0.96208 -0.03969 -0.26987
vn -0.96208 -0.03969 -0.26987
vn -0.96208 -0.03969 -0.26987
vn -0.66910 -0.00704 -0.74314
vn -0.00000 -0.00945 -0.99996
vn -0.00000 -0.00947 -0.99996
vn -0.66910 -0.00705 -0.74314
vn -0.64259 0.75439 -0.13403
vn -0.69128 0.70358 -0.16463
vn 0.00000 0.98685 -0.16164
vn 0.00000 0.98998 -0.14123
vn -0.66551 0.73673 0.11968
vn -0.62480 0.77975 0.04011
vn 0.00000 1.00000 -0.00102
vn 0.00000 0.99876 0.04983
vn -0.99562 0.07037 -0.06154
vn -0.67210 -0.74042 -0.00751
vn -0.91699 0.00988 0.39879
vn -0.90501 0.42428 0.03055
vn -0.82489 0.54721 -0.14183
vn -0.88153 0.44569 -0.15575
vn -0.87787 0.15677 -0.45251
vn -0.45339 -0.76679 -0.45439
vn -0.53414 -0.32192 -0.78171
vn -0.32567 -0.92670 -0.18753
vn -0.00000 -0.96388 -0.26633
vn 0.00000 -0.98443 -0.17578
vn -0.49300 -0.86788 0.06106
vn -0.00000 -0.99988 0.01579
vn -0.00000 -0.99568 -0.09285
vn -0.67281 -0.73830 -0.04725
vn 0.00000 -1.00000 -0.00029
vn -0.99795 0.00877 0.06332
vn -0.65102 -0.75534 0.07505
vn -0.99835 0.03144 -0.04796
vn -0.38272 -0.90561 -0.18272
vn 0.00000 -0.98907 0.14742
vn -0.00000 -0.99650 0.08357
vn -0.95446 0.23414 -0.18488
vn -0.61936 0.77545 -0.12280
vn -0.70456 0.70256 -0.10002
vn -0.73150 0.68184 0.00017
vn -0.74232 0.62886 0.23129
vn -0.83408 0.28222 0.47399
vn -0.66874 0.74203 0.04664
vn -0.00000 0.99998 0.00660
vn -0.93661 0.34700 0.04849
vn 0.00000 0.99073 0.13586
vn 0.00000 0.99351 0.11372
vn -0.95432 0.29690 0.03358
vn -0.73539 -0.67258 0.08271
vn -0.78762 -0.60508 0.11632
vn -0.99075 0.09383 0.09804
vn -0.95262 0.29716 0.06488
vn 0.00000 0.98761 0.15692
vn -0.72029 -0.66385 0.20118
vn -0.05469 -0.89457 0.44356
vn -0.83408 0.28222 0.47399
vn -0.95458 0.24308 0.17228
vn -0.74232 0.62886 0.23129
vn 0.00000 -0.98366 0.18004
vn 0.00000 -0.98683 0.16178
vn -0.00000 -0.99228 0.12399
vn 0.00000 0.99789 0.06488
vn -0.96158 0.27380 0.02000
vn -0.00000 0.98801 -0.15436
vn -0.96302 0.26941 -0.00360
vn -0.99677 0.06734 0.04381
vn -0.00000 -0.98468 -0.17436
vn 0.00000 -0.99864 0.05206
vn -0.93622 0.28943 0.19929
vn -0.90833 0.26118 0.32670
vn -0.98230 -0.17892 -0.05544
vn -0.92075 -0.33735 -0.19600
vn 0.00000 -0.82864 -0.55978
vn 0.00000 -0.82855 -0.55992
vn 0.00000 0.62315 0.78210
vn -0.99495 -0.05681 0.08281
vn -0.00000 -0.84825 -0.52959
vn -0.98767 -0.14585 0.05686
vn 0.00000 -0.87646 -0.48147
vn 0.00000 0.62316 0.78209
vn -0.00000 -0.87240 0.48880
vn -0.98670 0.16148 -0.01844
vn 0.00000 0.86726 -0.49785
vn 0.00000 0.11111 0.99381
vn -0.96910 0.09608 0.22719
vn -0.00000 0.99991 -0.01319
vn 0.00000 0.99557 -0.09406
vn 0.00000 0.99711 -0.07594
vn 0.12723 -0.97437 -0.18553
vn -0.10738 -0.83065 0.54634
vn -0.91699 0.00988 0.39879
vn -0.04063 0.59639 0.80167
vn -0.72594 0.65421 -0.21217
vn -0.88153 0.44569 -0.15575
vn -0.53414 -0.32192 -0.78171
vn -0.19542 -0.68467 -0.70217
vn -0.19542 -0.68467 -0.70217
vn -0.68663 -0.50358 -0.52435
vn 0.80375 -0.57696 0.14524
vn 0.64774 -0.68769 0.32789
vn 0.33469 0.70666 0.62339
vn -0.81509 0.54602 -0.19361
vn -0.68663 -0.50358 -0.52435
vn -0.10738 -0.83065 0.54634
vn -0.80098 0.58546 0.12514
vn 0.00000 0.28449 0.95868
vn 0.00000 0.83117 -0.55602
vn -0.99257 0.08215 0.08975
vn 0.00000 0.82952 0.55847
vn -0.81914 0.57353 0.00842
vn -0.19088 0.38609 0.90250
vn -0.76696 0.16290 -0.62067
vn -0.05469 -0.89457 0.44356
vn 0.00000 -0.98683 0.16178
vn -0.82104 0.55793 -0.12082
vn -0.81914 0.57353 0.00842
vn -0.19088 0.38609 0.90250
vn 0.24144 0.69738 0.67481
vn 0.72784 -0.48823 0.48153
vn 0.88675 -0.44621 0.12069
vn 0.41820 0.87486 0.24441
vn -0.86753 -0.24111 -0.43504
vn -0.05018 -0.84520 -0.53210
vn -0.74804 0.66270 -0.03569
vn -0.05469 -0.89457 0.44356
vn -0.38272 -0.90561 -0.18272
vn -0.05018 -0.84520 -0.53210
vn -0.86753 -0.24111 -0.43504
vn 0.00000 -0.20995 0.97771
vn 0.00000 0.97271 0.23202
vn 0.00000 0.97271 0.23202
vn -0.69867 0.69547 0.16788
vn -0.77181 0.63087 0.07949
vn -0.81038 0.58398 0.04747
vn -0.85260 0.51894 0.06144
vn 0.82703 -0.23432 0.51099
vn -0.11503 0.24509 0.96265
vn -0.57626 0.70906 0.40640
vn -0.92274 0.33235 0.19520
vn 0.62084 -0.66434 0.41618
vn 0.70979 0.46961 0.52504
vn -0.19348 0.17350 0.96564
vn -0.28404 -0.07058 0.95621
vn -0.11529 -0.98238 -0.14710
vn 0.62084 -0.66434 0.41618
vn -0.11529 -0.98238 -0.14710
vn -0.28404 -0.07058 0.95621
vn 0.82703 -0.23432 0.51099
vn -0.19348 0.17350 0.96564
vn 0.16119 0.93283 0.32224
vn -0.11503 0.24509 0.96265
vn 0.79101 -0.23473 0.56499
vn -0.25127 0.06256 0.96589
vn -0.71413 0.60800 0.34691
vn -0.97536 0.20633 0.07809
vn 0.61354 -0.66339 0.42836
vn 0.61172 0.48582 0.62432
vn -0.33258 0.00462 0.94306
vn -0.39951 -0.24070 0.88456
vn -0.01180 -0.97842 -0.20629
vn 0.61354 -0.66339 0.42836
vn -0.01180 -0.97842 -0.20629
vn -0.39951 -0.24070 0.88456
vn 0.79101 -0.23473 0.56499
vn -0.25127 0.06256 0.96589
vn 0.12723 -0.97437 -0.18553
vn -0.53414 -0.32192 -0.78171
vn -0.76696 0.16290 -0.62067
vn -0.76696 0.16290 -0.62067
vn 0.53246 0.78185 -0.32434
vn 0.85469 0.46297 -0.23489
vn 0.93069 0.31942 -0.17830
vn 0.89625 0.38207 -0.22531
vn 0.88657 0.33615 -0.31782
vn 0.90350 0.36245 -0.22875
vn 0.66544 -0.51873 -0.53676
vn 0.71877 -0.55924 -0.41306
vn 0.89497 -0.18418 -0.40633
vn 0.66498 -0.35315 -0.65810
vn 0.97964 -0.05404 -0.19333
vn 0.87405 -0.33322 -0.35355
vn 0.73309 -0.60652 -0.30776
vn 0.60966 -0.76207 -0.21810
vn 0.77662 0.33002 -0.53661
vn 0.73317 0.53863 -0.41513
vn 0.76685 0.29888 -0.56799
vn 0.74816 0.53304 -0.39512
vn 0.82984 0.37674 -0.41161
vn 0.85451 0.28047 -0.43722
vn 0.52695 0.65957 -0.53599
vn 0.92064 0.38779 -0.04513
vn 0.97998 0.19803 -0.02069
vn 0.83996 0.29876 -0.45300
vn 0.99674 0.02810 -0.07569
vn 0.76426 0.64461 -0.01953
vn 0.62674 0.77694 -0.05966
vn 0.55531 0.82714 -0.08648
vn 0.69128 0.70358 -0.16463
vn 0.87787 0.15677 -0.45251
vn 0.70711 -0.70597 -0.04005
vn 0.68222 -0.72747 -0.07317
vn 0.45339 -0.76679 -0.45439
vn -0.37121 -0.85131 -0.37077
vn -0.35624 -0.93093 0.08040
vn -0.33925 -0.91792 0.20576
vn -0.39894 -0.89632 0.19352
vn -0.34809 -0.91257 0.21460
vn -0.27842 0.95189 0.12800
vn -0.16081 0.98692 -0.01128
vn -0.37121 -0.85131 -0.37077
vn -0.29746 0.94625 0.12701
vn 0.64981 0.74792 -0.13547
vn 0.79415 0.52095 -0.31295
vn 0.89866 0.41438 -0.14389
vn 0.95704 0.13723 -0.25544
vn 0.99659 0.08244 0.00397
vn 0.87455 0.48464 0.01725
vn 0.87741 -0.18475 -0.44274
vn 0.87741 -0.18475 -0.44274
vn 0.87741 -0.18475 -0.44274
vn 0.87064 -0.14877 -0.46889
vn 0.87064 -0.14877 -0.46889
vn 0.87064 -0.14877 -0.46889
vn 0.68547 -0.07534 -0.72419
vn 0.68547 -0.07534 -0.72419
vn 0.97795 -0.15103 -0.14422
vn 0.97795 -0.15103 -0.14422
vn 0.97795 -0.15103 -0.14422
vn 0.97315 -0.14531 -0.17848
vn 0.97315 -0.14531 -0.17848
vn 0.97315 -0.14531 -0.17848
vn 0.97016 -0.06700 -0.23302
vn 0.97016 -0.06700 -0.23302
vn 0.97016 -0.06700 -0.23302
vn 0.95856 0.08361 -0.27235
vn 0.95856 0.08361 -0.27235
vn 0.95856 0.08361 -0.27235
vn 0.95530 -0.12407 -0.26835
vn 0.95530 -0.12407 -0.26835
vn 0.95530 -0.12407 -0.26835
vn 0.95905 -0.14110 -0.24558
vn 0.95905 -0.14110 -0.24558
vn 0.95905 -0.14110 -0.24558
vn 0.96485 -0.11680 -0.23541
vn 0.96485 -0.11680 -0.23541
vn 0.96485 -0.11680 -0.23541
vn 0.98439 0.03627 -0.17224
vn 0.98439 0.03627 -0.17224
vn 0.98439 0.03627 -0.17224
vn 0.94071 0.05953 -0.33394
vn 0.94071 0.05953 -0.33394
vn 0.94071 0.05953 -0.33394
vn 0.92876 0.11846 -0.35125
vn 0.92876 0.11846 -0.35125
vn 0.92876 0.11846 -0.35125
vn 0.95004 -0.04417 -0.30898
vn 0.95004 -0.04417 -0.30898
vn 0.95004 -0.04417 -0.30898
vn 0.97973 -0.11811 -0.16178
vn 0.97973 -0.11811 -0.16178
vn 0.97973 -0.11811 -0.16178
vn 0.91843 -0.04708 -0.39277
vn 0.91843 -0.04708 -0.39277
vn 0.91843 -0.04708 -0.39277
vn 0.97114 0.07437 -0.22662
vn 0.97114 0.07437 -0.22662
vn 0.97114 0.07437 -0.22662
vn 0.95707 0.02970 -0.28833
vn 0.95707 0.02970 -0.28833
vn 0.95707 0.02970 -0.28833
vn 0.96208 -0.03969 -0.26987
vn 0.96208 -0.03969 -0.26987
vn 0.96208 -0.03969 -0.26987
vn 0.66910 -0.00704 -0.74314
vn 0.66910 -0.00705 -0.74314
vn 0.64259 0.75439 -0.13403
vn 0.69128 0.70358 -0.16463
vn 0.66551 0.73673 0.11968
vn 0.62480 0.77975 0.04011
vn 0.99562 0.07037 -0.06154
vn 0.90501 0.42428 0.03055
vn 0.91699 0.00988 0.39879
vn 0.67210 -0.74042 -0.00751
vn 0.82489 0.54721 -0.14183
vn 0.88153 0.44569 -0.15575
vn 0.87787 0.15677 -0.45251
vn 0.45339 -0.76679 -0.45439
vn 0.53414 -0.32192 -0.78171
vn 0.32567 -0.92670 -0.18753
vn 0.49300 -0.86788 0.06106
vn 0.67281 -0.73830 -0.04725
vn 0.99795 0.00877 0.06332
vn 0.99835 0.03144 -0.04796
vn 0.65102 -0.75534 0.07505
vn 0.38272 -0.90561 -0.18272
vn 0.95446 0.23414 -0.18488
vn 0.70456 0.70256 -0.10002
vn 0.61936 0.77545 -0.12280
vn 0.73150 0.68184 0.00017
vn 0.83408 0.28222 0.47399
vn 0.74232 0.62886 0.23129
vn 0.66874 0.74203 0.04664
vn 0.93661 0.34700 0.04849
vn 0.95432 0.29690 0.03358
vn 0.73539 -0.67258 0.08271
vn 0.95262 0.29716 0.06488
vn 0.99075 0.09383 0.09804
vn 0.78762 -0.60508 0.11632
vn 0.72029 -0.66385 0.20118
vn 0.95458 0.24308 0.17228
vn 0.83408 0.28222 0.47399
vn 0.05469 -0.89457 0.44356
vn 0.74232 0.62886 0.23129
vn 0.96158 0.27380 0.02000
vn 0.96302 0.26941 -0.00360
vn 0.99677 0.06734 0.04381
vn 0.93622 0.28943 0.19929
vn 0.92075 -0.33735 -0.19600
vn 0.98230 -0.17892 -0.05544
vn 0.90833 0.26118 0.32670
vn 0.99495 -0.05681 0.08281
vn 0.98767 -0.14585 0.05686
vn 0.98670 0.16148 -0.01844
vn 0.96910 0.09608 0.22719
vn -0.12723 -0.97437 -0.18553
vn 0.10738 -0.83065 0.54634
vn 0.91699 0.00988 0.39879
vn 0.88153 0.44569 -0.15575
vn 0.72594 0.65421 -0.21217
vn 0.04063 0.59639 0.80167
vn 0.53414 -0.32192 -0.78171
vn 0.19542 -0.68467 -0.70217
vn 0.19542 -0.68467 -0.70217
vn -0.64774 -0.68769 0.32789
vn -0.80375 -0.57696 0.14524
vn 0.68663 -0.50358 -0.52435
vn -0.33470 0.70666 0.62339
vn 0.68663 -0.50358 -0.52435
vn 0.81509 0.54602 -0.19361
vn 0.10738 -0.83065 0.54634
vn 0.80098 0.58546 0.12514
vn 0.99257 0.08215 0.08975
vn 0.81914 0.57353 0.00842
vn 0.19088 0.38609 0.90250
vn 0.76696 0.16290 -0.62067
vn 0.05469 -0.89457 0.44356
vn 0.82104 0.55793 -0.12082
vn -0.24144 0.69738 0.67481
vn 0.19088 0.38609 0.90250
vn 0.81914 0.57353 0.00842
vn -0.41820 0.87486 0.24441
vn -0.88675 -0.44621 0.12069
vn -0.72784 -0.48823 0.48153
vn 0.86753 -0.24111 -0.43504
vn 0.74804 0.66270 -0.03569
vn 0.05018 -0.84520 -0.53210
vn 0.05469 -0.89457 0.44356
vn 0.05018 -0.84520 -0.53210
vn 0.38272 -0.90561 -0.18272
vn 0.86753 -0.24111 -0.43504
vn 0.69867 0.69547 0.16788
vn 0.77181 0.63087 0.07949
vn 0.81038 0.58398 0.04747
vn 0.85260 0.51894 0.06144
vn -0.82703 -0.23432 0.51099
vn 0.57626 0.70906 0.40640
vn 0.11503 0.24509 0.96265
vn 0.92274 0.33235 0.19520
vn -0.62084 -0.66434 0.41618
vn -0.70979 0.46961 0.52504
vn 0.19348 0.17350 0.96564
vn 0.28404 -0.07058 0.95621
vn 0.11529 -0.98238 -0.14710
vn -0.62084 -0.66434 0.41618
vn 0.28404 -0.07058 0.95621
vn 0.11529 -0.98238 -0.14710
vn 0.19348 0.17350 0.96564
vn -0.82703 -0.23432 0.51099
vn -0.16119 0.93283 0.32224
vn 0.11503 0.24509 0.96265
vn -0.79101 -0.23473 0.56499
vn 0.71413 0.60800 0.34691
vn 0.25127 0.06256 0.96589
vn 0.97536 0.20633 0.07809
vn -0.61354 -0.66339 0.42836
vn -0.61172 0.48582 0.62432
vn 0.33258 0.00462 0.94306
vn 0.39951 -0.24070 0.88456
vn 0.01180 -0.97842 -0.20629
vn -0.61354 -0.66339 0.42836
vn 0.39951 -0.24070 0.88456
vn 0.01180 -0.97842 -0.20629
vn -0.79101 -0.23473 0.56499
vn 0.25127 0.06256 0.96589
vn 0.53414 -0.32192 -0.78171
vn -0.12723 -0.97437 -0.18553
vn 0.76696 0.16290 -0.62067
vn 0.76696 0.16290 -0.62067
f 230/230/230 231/231/231 224/224/224
f 229/229/229 285/285/285 282/282/282
f 285/285/285 229/229/229 227/227/227
f 227/227/227 229/229/229 228/228/228
f 225/225/225 228/228/228 294/294/294
f 227/227/227 228/228/228 225/225/225
f 227/227/227 290/290/290 289/289/289
f 227/227/227 289/289/289 292/292/292
f 227/227/227 292/292/292 285/285/285
f 227/227/227 226/226/226 290/290/290
f 225/225/225 226/226/226 227/227/227
f 285/285/285 292/292/292 286/286/286
f 285/285/285 286/286/286 282/282/282
f 292/292/292 289/289/289 293/293/293
f 289/289/289 290/290/290 291/291/291
f 282/282/282 286/286/286 280/280/280
f 282/282/282 281/281/281 283/283/283
f 280/280/280 281/281/281 282/282/282
f 283/283/283 281/281/281 284/284/284
f 283/283/283 288/288/288 231/231/231
f 284/284/284 287/287/287 283/283/283
f 287/287/287 288/288/288 283/283/283
f 294/294/294 295/295/295 225/225/225
f 460/460/460 466/466/466 467/467/467
f 510/510/510 514/514/514 465/465/465
f 463/463/463 465/465/465 514/514/514
f 463/463/463 462/462/462 465/465/465
f 510/510/510 509/509/509 515/515/515
f 514/514/514 510/510/510 515/515/515
f 510/510/510 512/512/512 511/511/511
f 509/509/509 510/510/510 511/511/511
f 466/466/466 517/517/517 512/512/512
f 513/513/513 512/512/512 516/516/516
f 516/516/516 512/512/512 517/517/517
f 512/512/512 513/513/513 511/511/511
f 514/514/514 515/515/515 521/521/521
f 514/514/514 521/521/521 463/463/463
f 463/463/463 521/521/521 518/518/518
f 521/521/521 522/522/522 518/518/518
f 463/463/463 518/518/518 520/520/520
f 463/463/463 520/520/520 464/464/464
f 463/463/463 464/464/464 461/461/461
f 461/461/461 462/462/462 463/463/463
f 518/518/518 519/519/519 520/520/520
f 524/524/524 462/462/462 461/461/461
f 461/461/461 523/523/523 524/524/524
f 49/49/49 50/50/50 47/47/47
f 47/47/47 48/48/48 49/49/49
f 333/333/333 335/335/335 49/49/49
f 49/49/49 335/335/335 334/334/334
f 334/334/334 54/54/54 49/49/49
f 332/332/332 333/333/333 49/49/49
f 49/49/49 48/48/48 331/331/331
f 331/331/331 332/332/332 49/49/49
f 51/51/51 49/49/49 53/53/53
f 49/49/49 54/54/54 52/52/52
f 52/52/52 53/53/53 49/49/49
f 50/50/50 49/49/49 51/51/51
f 444/444/444 434/434/434 433/433/433
f 433/433/433 196/196/196 195/195/195
f 433/433/433 195/195/195 444/444/444
f 445/445/445 492/492/492 444/444/444
f 444/444/444 446/446/446 445/445/445
f 444/444/444 492/492/492 491/491/491
f 446/446/446 444/444/444 195/195/195
f 195/195/195 202/202/202 446/446/446
f 200/200/200 202/202/202 195/195/195
f 195/195/195 194/194/194 200/200/200
f 201/201/201 447/447/447 446/446/446
f 446/446/446 202/202/202 201/201/201
f 445/445/445 446/446/446 447/447/447
f 447/447/447 448/448/448 445/445/445
f 205/205/205 449/449/449 447/447/447
f 447/447/447 201/201/201 205/205/205
f 448/448/448 447/447/447 449/449/449
f 205/205/205 201/201/201 199/199/199
f 201/201/201 202/202/202 200/200/200
f 200/200/200 199/199/199 201/201/201
f 197/197/197 200/200/200 194/194/194
f 199/199/199 200/200/200 197/197/197
f 199/199/199 204/204/204 205/205/205
f 204/204/204 199/199/199 198/198/198
f 197/197/197 198/198/198 199/199/199
f 450/450/450 449/449/449 205/205/205
f 205/205/205 207/207/207 450/450/450
f 206/206/206 207/207/207 205/205/205
f 205/205/205 204/204/204 206/206/206
f 203/203/203 449/449/449 450/450/450
f 449/449/449 203/203/203 448/448/448
f 450/450/450 208/208/208 203/203/203
f 450/450/450 207/207/207 209/209/209
f 450/450/450 209/209/209 208/208/208
f 206/206/206 209/209/209 207/207/207
f 206/206/206 204/204/204 203/203/203
f 203/203/203 208/208/208 206/206/206
f 206/206/206 208/208/208 209/209/209
f 198/198/198 203/203/203 204/204/204
f 194/194/194 263/263/263 197/197/197
f 56/56/56 55/55/55 60/60/60
f 55/55/55 56/56/56 57/57/57
f 56/56/56 61/61/61 339/339/339
f 339/339/339 336/336/336 56/56/56
f 58/58/58 56/56/56 337/337/337
f 336/336/336 337/337/337 56/56/56
f 60/60/60 61/61/61 56/56/56
f 57/57/57 56/56/56 58/58/58
f 58/58/58 59/59/59 57/57/57
f 337/337/337 338/338/338 58/58/58
f 156/156/156 158/158/158 419/419/419
f 158/158/158 164/164/164 422/422/422
f 422/422/422 423/423/423 424/424/424
f 423/423/423 422/422/422 164/164/164
f 158/158/158 157/157/157 160/160/160
f 160/160/160 164/164/164 158/158/158
f 157/157/157 158/158/158 156/156/156
f 155/155/155 156/156/156 411/411/411
f 156/156/156 143/143/143 157/157/157
f 143/143/143 156/156/156 155/155/155
f 161/161/161 157/157/157 143/143/143
f 157/157/157 161/161/161 159/159/159
f 159/159/159 160/160/160 157/157/157
f 165/165/165 162/162/162 160/160/160
f 160/160/160 159/159/159 165/165/165
f 164/164/164 160/160/160 162/162/162
f 168/168/168 171/171/171 159/159/159
f 159/159/159 161/161/161 168/168/168
f 165/165/165 159/159/159 171/171/171
f 143/143/143 142/142/142 161/161/161
f 161/161/161 142/142/142 167/167/167
f 167/167/167 168/168/168 161/161/161
f 214/214/214 168/168/168 167/167/167
f 171/171/171 168/168/168 214/214/214
f 214/214/214 172/172/172 171/171/171
f 171/171/171 139/139/139 165/165/165
f 139/139/139 171/171/171 172/172/172
f 430/430/430 172/172/172 214/214/214
f 172/172/172 430/430/430 407/407/407
f 407/407/407 140/140/140 172/172/172
f 172/172/172 140/140/140 139/139/139
f 139/139/139 138/138/138 165/165/165
f 138/138/138 139/139/139 140/140/140
f 140/140/140 407/407/407 406/406/406
f 406/406/406 141/141/141 140/140/140
f 140/140/140 141/141/141 138/138/138
f 424/424/424 407/407/407 430/430/430
f 407/407/407 424/424/424 406/406/406
f 258/258/258 141/141/141 406/406/406
f 406/406/406 429/429/429 258/258/258
f 406/406/406 469/469/469 428/428/428
f 424/424/424 469/469/469 406/406/406
f 406/406/406 428/428/428 429/429/429
f 138/138/138 141/141/141 258/258/258
f 258/258/258 169/169/169 138/138/138
f 138/138/138 169/169/169 170/170/170
f 138/138/138 170/170/170 233/233/233
f 165/165/165 138/138/138 233/233/233
f 170/170/170 241/241/241 239/239/239
f 170/170/170 239/239/239 238/238/238
f 238/238/238 233/233/233 170/170/170
f 165/165/165 233/233/233 238/238/238
f 238/238/238 240/240/240 165/165/165
f 240/240/240 162/162/162 165/165/165
f 242/242/242 163/163/163 162/162/162
f 162/162/162 241/241/241 242/242/242
f 162/162/162 163/163/163 164/164/164
f 242/242/242 474/474/474 423/423/423
f 423/423/423 163/163/163 242/242/242
f 164/164/164 163/163/163 423/423/423
f 473/473/473 424/424/424 423/423/423
f 424/424/424 473/473/473 471/471/471
f 471/471/471 469/469/469 424/424/424
f 232/232/232 220/220/220 219/219/219
f 221/221/221 222/222/222 219/219/219
f 219/219/219 220/220/220 221/221/221
f 232/232/232 294/294/294 228/228/228
f 228/228/228 220/220/220 232/232/232
f 220/220/220 229/229/229 230/230/230
f 230/230/230 221/221/221 220/220/220
f 220/220/220 228/228/228 229/229/229
f 224/224/224 221/221/221 230/230/230
f 221/221/221 224/224/224 223/223/223
f 223/223/223 222/222/222 221/221/221
f 282/282/282 230/230/230 229/229/229
f 230/230/230 282/282/282 283/283/283
f 231/231/231 230/230/230 283/283/283
f 468/468/468 455/455/455 458/458/458
f 457/457/457 458/458/458 455/455/455
f 455/455/455 456/456/456 457/457/457
f 468/468/468 458/458/458 462/462/462
f 462/462/462 524/524/524 468/468/468
f 458/458/458 457/457/457 467/467/467
f 467/467/467 465/465/465 458/458/458
f 458/458/458 465/465/465 462/462/462
f 467/467/467 457/457/457 460/460/460
f 457/457/457 456/456/456 459/459/459
f 459/459/459 460/460/460 457/457/457
f 465/465/465 467/467/467 510/510/510
f 467/467/467 512/512/512 510/510/510
f 512/512/512 467/467/467 466/466/466
f 189/189/189 178/178/178 177/177/177
f 177/177/177 196/196/196 189/189/189
f 177/177/177 195/195/195 196/196/196
f 194/194/194 195/195/195 177/177/177
f 177/177/177 180/180/180 194/194/194
f 179/179/179 180/180/180 177/177/177
f 177/177/177 178/178/178 179/179/179
f 189/189/189 196/196/196 433/433/433
f 433/433/433 436/436/436 189/189/189
f 189/189/189 436/436/436 437/437/437
f 437/437/437 187/187/187 189/189/189
f 189/189/189 187/187/187 182/182/182
f 182/182/182 178/178/178 189/189/189
f 185/185/185 179/179/179 178/178/178
f 194/194/194 180/180/180 262/262/262
f 262/262/262 263/263/263 194/194/194
f 261/261/261 262/262/262 180/180/180
f 167/167/167 142/142/142 145/145/145
f 144/144/144 145/145/145 142/142/142
f 142/142/142 143/143/143 144/144/144
f 147/147/147 146/146/146 145/145/145
f 145/145/145 144/144/144 147/147/147
f 154/154/154 218/218/218 144/144/144
f 144/144/144 143/143/143 154/154/154
f 155/155/155 154/154/154 143/143/143
f 218/218/218 154/154/154 151/151/151
f 151/151/151 154/154/154 155/155/155
f 151/151/151 217/217/217 218/218/218
f 151/151/151 149/149/149 150/150/150
f 150/150/150 217/217/217 151/151/151
f 155/155/155 152/152/152 151/151/151
f 214/214/214 216/216/216 425/425/425
f 426/426/426 425/425/425 216/216/216
f 167/167/167 216/216/216 214/214/214
f 404/404/404 409/409/409 426/426/426
f 425/425/425 426/426/426 409/409/409
f 425/425/425 427/427/427 214/214/214
f 421/421/421 427/427/427 425/425/425
f 425/425/425 408/408/408 421/421/421
f 409/409/409 408/408/408 425/425/425
f 413/413/413 410/410/410 409/409/409
f 409/409/409 412/412/412 413/413/413
f 409/409/409 404/404/404 412/412/412
f 408/408/408 409/409/409 410/410/410
f 421/421/421 408/408/408 411/411/411
f 410/410/410 411/411/411 408/408/408
f 427/427/427 421/421/421 420/420/420
f 411/411/411 419/419/419 421/421/421
f 420/420/420 421/421/421 419/419/419
f 214/214/214 427/427/427 430/430/430
f 420/420/420 430/430/430 427/427/427
f 430/430/430 420/420/420 424/424/424
f 424/424/424 420/420/420 422/422/422
f 419/419/419 422/422/422 420/420/420
f 422/422/422 419/419/419 158/158/158
f 419/419/419 411/411/411 156/156/156
f 35/35/35 31/31/31 36/36/36
f 324/324/324 325/325/325 319/319/319
f 319/319/319 320/320/320 324/324/324
f 323/323/323 324/324/324 320/320/320
f 303/303/303 319/319/319 325/325/325
f 301/301/301 308/308/308 319/319/319
f 303/303/303 301/301/301 319/319/319
f 319/319/319 308/308/308 320/320/320
f 320/320/320 328/328/328 322/322/322
f 328/328/328 320/320/320 308/308/308
f 320/320/320 322/322/322 323/323/323
f 326/326/326 323/323/323 322/322/322
f 328/328/328 329/329/329 322/322/322
f 327/327/327 322/322/322 329/329/329
f 322/322/322 327/327/327 326/326/326
f 65/65/65 329/329/329 328/328/328
f 328/328/328 62/62/62 65/65/65
f 33/33/33 62/62/62 328/328/328
f 328/328/328 311/311/311 33/33/33
f 308/308/308 311/311/311 328/328/328
f 310/310/310 311/311/311 308/308/308
f 308/308/308 309/309/309 310/310/310
f 28/28/28 33/33/33 311/311/311
f 354/354/354 355/355/355 356/356/356
f 82/82/82 83/83/83 84/84/84
f 387/387/387 388/388/388 389/389/389
f 115/115/115 116/116/116 117/117/117
f 357/357/357 358/358/358 359/359/359
f 85/85/85 86/86/86 87/87/87
f 526/526/526 484/484/484 475/475/475
f 475/475/475 478/478/478 526/526/526
f 476/476/476 475/475/475 483/483/483
f 475/475/475 484/484/484 482/482/482
f 482/482/482 483/483/483 475/475/475
f 477/477/477 478/478/478 475/475/475
f 475/475/475 476/476/476 477/477/477
f 477/477/477 476/476/476 481/481/481
f 481/481/481 485/485/485 477/477/477
f 483/483/483 479/479/479 476/476/476
f 480/480/480 481/481/481 476/476/476
f 476/476/476 479/479/479 480/480/480
f 486/486/486 481/481/481 480/480/480
f 485/485/485 481/481/481 486/486/486
f 297/297/297 244/244/244 243/243/243
f 243/243/243 251/251/251 297/297/297
f 252/252/252 243/243/243 246/246/246
f 243/243/243 252/252/252 250/250/250
f 250/250/250 251/251/251 243/243/243
f 245/245/245 246/246/246 243/243/243
f 243/243/243 244/244/244 245/245/245
f 245/245/245 253/253/253 247/247/247
f 247/247/247 246/246/246 245/245/245
f 246/246/246 249/249/249 252/252/252
f 248/248/248 249/249/249 246/246/246
f 246/246/246 247/247/247 248/248/248
f 248/248/248 247/247/247 255/255/255
f 255/255/255 247/247/247 253/253/253
f 375/375/375 376/376/376 377/377/377
f 103/103/103 104/104/104 105/105/105
f 173/173/173 181/181/181 174/174/174
f 175/175/175 176/176/176 173/173/173
f 173/173/173 174/174/174 175/175/175
f 431/431/431 174/174/174 181/181/181
f 175/175/175 174/174/174 431/431/431
f 190/190/190 175/175/175 432/432/432
f 431/431/431 432/432/432 175/175/175
f 176/176/176 175/175/175 190/190/190
f 190/190/190 191/191/191 176/176/176
f 443/443/443 192/192/192 190/190/190
f 190/190/190 442/442/442 443/443/443
f 432/432/432 442/442/442 190/190/190
f 193/193/193 191/191/191 190/190/190
f 190/190/190 192/192/192 193/193/193
f 215/215/215 166/166/166 134/134/134
f 134/134/134 137/137/137 215/215/215
f 135/135/135 134/134/134 148/148/148
f 134/134/134 166/166/166 145/145/145
f 148/148/148 134/134/134 146/146/146
f 145/145/145 146/146/146 134/134/134
f 136/136/136 137/137/137 134/134/134
f 134/134/134 135/135/135 136/136/136
f 215/215/215 137/137/137 404/404/404
f 404/404/404 426/426/426 215/215/215
f 216/216/216 215/215/215 426/426/426
f 166/166/166 215/215/215 216/216/216
f 216/216/216 167/167/167 166/166/166
f 145/145/145 166/166/166 167/167/167
f 72/72/72 68/68/68 67/67/67
f 67/67/67 68/68/68 69/69/69
f 71/71/71 68/68/68 72/72/72
f 68/68/68 70/70/70 69/69/69
f 70/70/70 68/68/68 71/71/71
f 345/345/345 340/340/340 342/342/342
f 340/340/340 341/341/341 342/342/342
f 344/344/344 345/345/345 342/342/342
f 342/342/342 341/341/341 343/343/343
f 343/343/343 344/344/344 342/342/342
f 489/489/489 259/259/259 441/441/441
f 186/186/186 259/259/259 260/260/260
f 393/393/393 394/394/394 395/395/395
f 121/121/121 122/122/122 123/123/123
f 360/360/360 361/361/361 362/362/362
f 88/88/88 89/89/89 90/90/90
f 372/372/372 373/373/373 374/374/374
f 100/100/100 101/101/101 102/102/102
f 369/369/369 370/370/370 371/371/371
f 97/97/97 98/98/98 99/99/99
f 399/399/399 400/400/400 401/401/401
f 127/127/127 128/128/128 129/129/129
f 428/428/428 469/469/469 471/471/471
f 471/471/471 472/472/472 428/428/428
f 428/428/428 472/472/472 474/474/474
f 366/366/366 367/367/367 368/368/368
f 94/94/94 95/95/95 96/96/96
f 363/363/363 364/364/364 365/365/365
f 91/91/91 92/92/92 93/93/93
f 396/396/396 397/397/397 398/398/398
f 124/124/124 125/125/125 126/126/126
f 178/178/178 182/182/182 185/185/185
f 180/180/180 179/179/179 261/261/261
f 261/261/261 179/179/179 185/185/185
f 185/185/185 260/260/260 261/261/261
f 260/260/260 185/185/185 186/186/186
f 186/186/186 185/185/185 184/184/184
f 184/184/184 185/185/185 182/182/182
f 183/183/183 182/182/182 187/187/187
f 182/182/182 183/183/183 184/184/184
f 187/187/187 188/188/188 183/183/183
f 187/187/187 437/437/437 440/440/440
f 440/440/440 188/188/188 187/187/187
f 438/438/438 437/437/437 436/436/436
f 439/439/439 440/440/440 437/437/437
f 437/437/437 438/438/438 439/439/439
f 438/438/438 435/435/435 490/490/490
f 490/490/490 489/489/489 438/438/438
f 441/441/441 438/438/438 489/489/489
f 436/436/436 435/435/435 438/438/438
f 441/441/441 439/439/439 438/438/438
f 435/435/435 436/436/436 433/433/433
f 490/490/490 435/435/435 434/434/434
f 433/433/433 434/434/434 435/435/435
f 434/434/434 491/491/491 490/490/490
f 491/491/491 434/434/434 444/444/444
f 149/149/149 151/151/151 152/152/152
f 411/411/411 418/418/418 155/155/155
f 155/155/155 418/418/418 417/417/417
f 417/417/417 152/152/152 155/155/155
f 152/152/152 417/417/417 415/415/415
f 415/415/415 153/153/153 152/152/152
f 152/152/152 153/153/153 149/149/149
f 149/149/149 148/148/148 150/150/150
f 147/147/147 150/150/150 148/148/148
f 148/148/148 146/146/146 147/147/147
f 416/416/416 415/415/415 417/417/417
f 415/415/415 416/416/416 414/414/414
f 417/417/417 418/418/418 454/454/454
f 454/454/454 453/453/453 417/417/417
f 417/417/417 453/453/453 416/416/416
f 414/414/414 416/416/416 413/413/413
f 413/413/413 412/412/412 414/414/414
f 405/405/405 414/414/414 404/404/404
f 414/414/414 412/412/412 404/404/404
f 136/136/136 405/405/405 404/404/404
f 404/404/404 137/137/137 136/136/136
f 418/418/418 410/410/410 454/454/454
f 410/410/410 418/418/418 411/411/411
f 486/486/486 487/487/487 485/485/485
f 487/487/487 486/486/486 525/525/525
f 480/480/480 488/488/488 486/486/486
f 480/480/480 506/506/506 502/502/502
f 498/498/498 506/506/506 480/480/480
f 480/480/480 507/507/507 498/498/498
f 480/480/480 502/502/502 504/504/504
f 504/504/504 488/488/488 480/480/480
f 480/480/480 479/479/479 507/507/507
f 483/483/483 507/507/507 479/479/479
f 507/507/507 483/483/483 494/494/494
f 494/494/494 498/498/498 507/507/507
f 498/498/498 505/505/505 506/506/506
f 498/498/498 494/494/494 499/499/499
f 506/506/506 508/508/508 502/502/502
f 502/502/502 503/503/503 504/504/504
f 494/494/494 493/493/493 499/499/499
f 483/483/483 496/496/496 494/494/494
f 494/494/494 496/496/496 495/495/495
f 493/493/493 494/494/494 495/495/495
f 496/496/496 483/483/483 482/482/482
f 482/482/482 501/501/501 496/496/496
f 497/497/497 496/496/496 500/500/500
f 500/500/500 496/496/496 501/501/501
f 496/496/496 497/497/497 495/495/495
f 253/253/253 254/254/254 255/255/255
f 254/254/254 296/296/296 255/255/255
f 255/255/255 256/256/256 248/248/248
f 248/248/248 273/273/273 276/276/276
f 269/269/269 278/278/278 248/248/248
f 248/248/248 276/276/276 269/269/269
f 248/248/248 256/256/256 274/274/274
f 274/274/274 273/273/273 248/248/248
f 248/248/248 278/278/278 249/249/249
f 252/252/252 249/249/249 278/278/278
f 278/278/278 269/269/269 266/266/266
f 266/266/266 252/252/252 278/278/278
f 269/269/269 276/276/276 277/277/277
f 269/269/269 270/270/270 266/266/266
f 276/276/276 273/273/273 279/279/279
f 273/273/273 274/274/274 275/275/275
f 266/266/266 270/270/270 264/264/264
f 252/252/252 266/266/266 267/267/267
f 266/266/266 265/265/265 267/267/267
f 264/264/264 265/265/265 266/266/266
f 250/250/250 252/252/252 267/267/267
f 267/267/267 272/272/272 250/250/250
f 268/268/268 271/271/271 267/267/267
f 271/271/271 272/272/272 267/267/267
f 267/267/267 265/265/265 268/268/268
f 384/384/384 385/385/385 386/386/386
f 112/112/112 113/113/113 114/114/114
f 311/311/311 310/310/310 28/28/28
f 33/33/33 12/12/12 41/41/41
f 41/41/41 62/62/62 33/33/33
f 12/12/12 33/33/33 28/28/28
f 65/65/65 62/62/62 41/41/41
f 41/41/41 42/42/42 65/65/65
f 41/41/41 32/32/32 42/42/42
f 26/26/26 32/32/32 41/41/41
f 42/42/42 43/43/43 64/64/64
f 64/64/64 65/65/65 42/42/42
f 38/38/38 43/43/43 42/42/42
f 42/42/42 32/32/32 38/38/38
f 35/35/35 38/38/38 32/32/32
f 32/32/32 31/31/31 35/35/35
f 31/31/31 32/32/32 26/26/26
f 329/329/329 65/65/65 64/64/64
f 64/64/64 330/330/330 329/329/329
f 329/329/329 330/330/330 327/327/327
f 28/28/28 13/13/13 12/12/12
f 29/29/29 28/28/28 310/310/310
f 13/13/13 28/28/28 29/29/29
f 29/29/29 10/10/10 13/13/13
f 13/13/13 10/10/10 9/9/9
f 9/9/9 14/14/14 13/13/13
f 29/29/29 305/305/305 304/304/304
f 304/304/304 46/46/46 29/29/29
f 310/310/310 305/305/305 29/29/29
f 29/29/29 46/46/46 7/7/7
f 7/7/7 10/10/10 29/29/29
f 310/310/310 309/309/309 306/306/306
f 306/306/306 305/305/305 310/310/310
f 304/304/304 305/305/305 306/306/306
f 46/46/46 304/304/304 307/307/307
f 306/306/306 307/307/307 304/304/304
f 307/307/307 63/63/63 46/46/46
f 8/8/8 7/7/7 46/46/46
f 15/15/15 16/16/16 17/17/17
f 312/312/312 314/314/314 321/321/321
f 20/20/20 314/314/314 312/312/312
f 312/312/312 16/16/16 20/20/20
f 20/20/20 16/16/16 15/15/15
f 27/27/27 19/19/19 15/15/15
f 15/15/15 18/18/18 27/27/27
f 15/15/15 19/19/19 20/20/20
f 27/27/27 18/18/18 21/21/21
f 21/21/21 24/24/24 27/27/27
f 23/23/23 24/24/24 21/21/21
f 11/11/11 23/23/23 5/5/5
f 4/4/4 25/25/25 11/11/11
f 41/41/41 12/12/12 11/11/11
f 11/11/11 26/26/26 41/41/41
f 5/5/5 4/4/4 11/11/11
f 25/25/25 26/26/26 11/11/11
f 13/13/13 14/14/14 11/11/11
f 11/11/11 12/12/12 13/13/13
f 2/2/2 5/5/5 3/3/3
f 4/4/4 5/5/5 2/2/2
f 6/6/6 25/25/25 4/4/4
f 6/6/6 4/4/4 2/2/2
f 6/6/6 34/34/34 25/25/25
f 44/44/44 39/39/39 34/34/34
f 30/30/30 34/34/34 39/39/39
f 25/25/25 34/34/34 30/30/30
f 325/325/325 39/39/39 44/44/44
f 39/39/39 325/325/325 324/324/324
f 324/324/324 40/40/40 39/39/39
f 39/39/39 40/40/40 30/30/30
f 30/30/30 40/40/40 36/36/36
f 36/36/36 31/31/31 30/30/30
f 30/30/30 26/26/26 25/25/25
f 26/26/26 30/30/30 31/31/31
f 36/36/36 40/40/40 324/324/324
f 324/324/324 323/323/323 36/36/36
f 36/36/36 323/323/323 326/326/326
f 326/326/326 37/37/37 36/36/36
f 36/36/36 37/37/37 35/35/35
f 378/378/378 379/379/379 380/380/380
f 106/106/106 107/107/107 108/108/108
f 381/381/381 382/382/382 383/383/383
f 109/109/109 110/110/110 111/111/111
f 390/390/390 391/391/391 392/392/392
f 118/118/118 119/119/119 120/120/120
f 346/346/346 347/347/347 348/348/348
f 73/73/73 74/74/74 75/75/75
f 66/66/66 318/318/318 298/298/298
f 45/45/45 315/315/315 318/318/318
f 298/298/298 318/318/318 299/299/299
f 302/302/302 299/299/299 318/318/318
f 318/318/318 317/317/317 302/302/302
f 317/317/317 318/318/318 315/315/315
f 44/44/44 298/298/298 325/325/325
f 303/303/303 325/325/325 298/298/298
f 303/303/303 298/298/298 300/300/300
f 298/298/298 299/299/299 300/300/300
f 300/300/300 299/299/299 302/302/302
f 308/308/308 301/301/301 302/302/302
f 302/302/302 317/317/317 308/308/308
f 301/301/301 300/300/300 302/302/302
f 315/315/315 316/316/316 317/317/317
f 313/313/313 315/315/315 45/45/45
f 321/321/321 316/316/316 315/315/315
f 315/315/315 313/313/313 321/321/321
f 321/321/321 313/313/313 312/312/312
f 45/45/45 17/17/17 313/313/313
f 312/312/312 313/313/313 17/17/17
f 45/45/45 21/21/21 18/18/18
f 18/18/18 17/17/17 45/45/45
f 17/17/17 16/16/16 312/312/312
f 17/17/17 18/18/18 15/15/15
f 1/1/1 22/22/22 66/66/66
f 66/66/66 44/44/44 1/1/1
f 34/34/34 1/1/1 44/44/44
f 1/1/1 3/3/3 22/22/22
f 6/6/6 1/1/1 34/34/34
f 6/6/6 2/2/2 1/1/1
f 1/1/1 2/2/2 3/3/3
f 22/22/22 21/21/21 45/45/45
f 45/45/45 66/66/66 22/22/22
f 5/5/5 23/23/23 22/22/22
f 22/22/22 3/3/3 5/5/5
f 21/21/21 22/22/22 23/23/23
f 318/318/318 66/66/66 45/45/45
f 298/298/298 44/44/44 66/66/66
f 76/76/76 77/77/77 78/78/78
f 349/349/349 350/350/350 351/351/351
f 303/303/303 300/300/300 301/301/301
f 46/46/46 63/63/63 8/8/8
f 9/9/9 10/10/10 7/7/7
f 7/7/7 8/8/8 9/9/9
f 192/192/192 443/443/443 451/451/451
f 451/451/451 211/211/211 192/192/192
f 192/192/192 211/211/211 210/210/210
f 210/210/210 193/193/193 192/192/192
f 470/470/470 451/451/451 212/212/212
f 235/235/235 211/211/211 451/451/451
f 451/451/451 470/470/470 235/235/235
f 451/451/451 452/452/452 212/212/212
f 210/210/210 211/211/211 235/235/235
f 212/212/212 210/210/210 236/236/236
f 235/235/235 236/236/236 210/210/210
f 210/210/210 212/212/212 213/213/213
f 212/212/212 257/257/257 470/470/470
f 452/452/452 234/234/234 212/212/212
f 236/236/236 257/257/257 212/212/212
f 213/213/213 212/212/212 234/234/234
f 237/237/237 470/470/470 257/257/257
f 470/470/470 237/237/237 235/235/235
f 236/236/236 235/235/235 237/237/237
f 237/237/237 257/257/257 236/236/236
f 132/132/132 133/133/133 130/130/130
f 130/130/130 131/131/131 132/132/132
f 132/132/132 131/131/131 402/402/402
f 402/402/402 403/403/403 132/132/132
f 79/79/79 80/80/80 81/81/81
f 352/352/352 81/81/81 353/353/353
