# dakosaurus_ad reconstructed from live game memory
v -4.81071 29.89097 -3.93378
v -4.31538 29.45119 -7.93571
v -0.00000 31.52071 -7.82756
v -0.00000 32.07209 -3.87116
v -5.28781 30.13864 24.79870
v -5.20427 30.26266 20.31653
v 0.00000 33.06212 20.35494
v 0.00000 33.09839 24.78860
v -8.44000 24.17959 -0.36733
v -8.80561 25.33962 -4.02819
v -8.43134 20.37478 -0.32257
v -10.58542 21.03963 -3.07964
v -7.12314 24.10978 -7.52925
v -5.81728 19.33493 -6.90810
v -8.53990 20.00773 -6.10443
v -5.35383 17.81969 -3.42374
v 0.00000 16.86448 -3.86276
v 0.00000 17.64602 -8.13583
v -5.66847 17.66755 0.13350
v 0.00000 16.42303 0.58777
v 0.00000 15.64218 5.37992
v -5.23204 16.75198 5.37342
v 0.00000 32.60487 29.59923
v -5.61850 28.64989 28.74931
v -9.90068 23.42559 9.49883
v -8.16434 18.50415 9.49402
v -8.55091 19.44898 5.02168
v -9.39876 23.73285 4.50149
v -5.72448 29.91647 15.03035
v -5.87739 29.62686 9.49798
v 0.00000 32.17518 9.49954
v 0.00000 32.59724 15.03132
v -4.78116 17.36166 20.38111
v -0.00000 16.45176 20.37633
v -0.00000 15.51227 15.02325
v -5.22692 16.77616 15.03010
v -7.85608 18.62341 15.02537
v -9.64458 23.57248 15.05031
v -9.17182 23.73685 20.35838
v -7.81570 18.81549 21.62042
v -5.17026 29.28072 -0.08772
v -5.70856 29.29698 4.51912
v -8.41857 24.35114 29.48825
v 0.00000 15.13866 9.49463
v -5.40801 16.47665 9.49363
v 0.00000 31.20450 38.73576
v 0.00000 30.11876 47.17063
v -4.04015 26.29364 47.13319
v -5.14780 26.32035 38.74182
v -2.24270 22.90122 53.43005
v -2.69413 22.24618 47.10864
v -3.29132 26.26308 53.42133
v -5.61850 28.64989 28.74931
v 0.00000 32.60487 29.59923
v -3.48557 21.39578 38.74462
v -4.60678 19.65037 28.60551
v -8.41857 24.35114 29.48825
v 0.00000 20.07318 38.70421
v 0.00000 18.31606 29.41858
v 0.00000 21.42055 47.10214
v 0.00000 29.70544 53.45473
v 0.00000 29.47757 58.05999
v -2.84077 26.04424 57.60886
v -2.00400 23.18760 57.17796
v 0.00000 22.30558 53.44330
v 0.00000 22.58750 57.09628
v -1.29047 26.44192 63.11436
v -0.71539 22.55204 66.64764
v -1.98364 20.10116 65.24738
v -2.32886 23.08796 61.73776
v -1.41736 18.31347 64.28737
v -1.76368 20.82794 60.80266
v 0.00000 20.30570 60.64050
v 0.00000 17.87700 64.01306
v 0.00000 19.47733 69.62685
v -1.54706 17.74495 68.55398
v -1.04903 16.12218 67.77795
v 0.00000 15.67300 67.58068
v -1.16281 15.81761 71.89333
v -0.55791 14.47264 71.39472
v -0.81227 14.80112 74.41991
v 0.00000 15.27346 74.72894
v 0.00000 14.39462 76.32269
v 0.00000 30.40683 60.61821
v 0.00000 31.37414 63.73489
v -1.01849 29.94539 66.09578
v 0.00000 29.47757 58.05999
v -1.29047 26.44192 63.11436
v 0.00000 23.75521 67.99696
v -0.71539 22.55204 66.64764
v -0.00000 31.76036 4.54728
v -4.43692 18.47182 24.84750
v -4.60678 19.65037 28.60551
v 0.00000 18.31606 29.41858
v -0.00000 17.47997 24.83962
v 0.00000 14.12687 74.25047
v -0.00000 31.79243 -0.08289
v -7.06607 18.25570 -2.93226
v -7.24801 18.44233 -0.83325
v -13.25908 16.43431 5.53735
v -15.64577 14.74847 6.55944
v -16.33596 15.30030 2.58302
v -18.53143 11.64502 5.81363
v -17.54876 12.66234 0.39547
v -12.79649 14.49084 0.20080
v -10.58542 21.03963 -3.07964
v -8.43134 20.37478 -0.32257
v -10.63561 18.68577 0.34713
v -13.03836 18.84560 -1.81244
v -8.53990 20.00773 -6.10443
v -12.14948 16.34430 -4.00671
v -10.13078 16.48175 -1.48997
v -7.06607 18.25570 -2.93226
v -8.53990 20.00773 -6.10443
v -12.14948 16.34430 -4.00671
v -17.54876 12.66234 0.39547
v -7.24801 18.44233 -0.83325
v -9.93529 25.16462 24.76766
v 0.00000 14.26320 71.33372
v 0.00000 19.47733 69.62685
v -18.53143 11.64502 5.81363
v 0.00000 16.74115 72.40978
v 0.00000 33.33179 67.62995
v -0.57670 32.25652 68.80594
v -0.46473 34.21194 71.70980
v 0.00000 35.21066 71.41172
v 0.00000 35.49573 74.29960
v 0.00000 33.34747 72.30549
v 0.00000 30.89416 69.95982
v -10.29039 21.74139 29.06688
v -12.14183 20.76936 25.82636
v -11.63564 19.68782 22.36732
v -8.32718 18.51324 25.44083
v -14.23364 16.53853 38.40995
v -15.16651 13.11669 42.16180
v -16.99936 12.71115 36.91057
v -16.57432 9.26646 43.65104
v -17.36954 9.47622 36.22250
v -13.28436 11.37430 36.91673
v -15.36082 16.15786 28.60677
v -15.61214 13.44699 27.07141
v -11.63564 19.68782 22.36732
v -12.14183 20.76936 25.82636
v -12.50392 18.58542 30.22056
v -10.29039 21.74139 29.06688
v -12.23911 13.27167 32.89970
v -16.68869 10.94455 31.46464
v -17.36954 9.47622 36.22250
v -11.66686 15.43930 29.16709
v -13.47298 17.91685 34.09783
v -16.68869 10.94455 31.46464
v -16.34628 14.34896 32.53239
v -16.57432 9.26646 43.65104
v -11.63564 19.68782 22.36732
v -15.61214 13.44699 27.07141
v -8.32718 18.51324 25.44083
v -3.85437 28.56989 -22.39408
v -4.15877 26.88272 -22.58813
v -3.82123 28.10645 -23.47850
v -4.28800 27.22424 -24.24509
v -5.42774 26.27962 -22.29007
v -4.94074 26.23234 -23.55381
v -5.19673 27.02942 -21.41806
v -4.42835 28.19480 -21.59282
v -1.49652 22.30570 -32.13479
v -1.47425 23.28049 -32.61371
v -2.77853 23.31590 -30.28592
v -2.61281 21.97360 -30.43577
v -6.61947 23.40863 -20.52204
v -4.39269 19.96206 -20.91710
v -4.28560 20.56002 -24.12310
v -5.81727 23.23329 -24.13581
v -3.50200 23.35132 -28.73391
v -4.33036 23.36206 -26.72057
v -3.80283 21.38591 -26.65894
v -3.29034 21.74065 -28.78253
v 0.00000 19.27732 -23.96028
v 0.00001 19.84952 -26.64097
v -1.13212 25.50218 -32.86877
v 0.00001 26.22057 -33.49183
v 0.00001 27.16658 -32.25450
v -1.22696 26.59990 -31.94081
v -1.54267 24.16264 -33.13479
v 0.00001 24.40021 -34.09337
v -3.29063 25.91440 -29.47206
v -3.56642 26.42519 -27.36873
v -4.60732 24.26121 -26.90742
v -3.77602 24.22482 -29.10461
v -6.22190 25.46546 -20.10328
v -6.84403 23.70998 -16.95370
v -2.80838 24.10664 -31.66644
v -2.36052 25.79225 -31.71311
v -3.01282 30.51959 -21.07101
v -2.88519 30.63886 -22.61801
v 0.00000 30.18677 -22.31263
v 0.00000 30.67039 -20.63361
v -0.00000 31.40135 -12.43680
v -3.69937 29.19113 -12.56445
v -3.73959 30.33961 -16.43046
v 0.00000 31.82330 -16.19409
v 0.00001 20.63455 -28.73476
v -5.41014 24.06695 -24.22201
v -5.34328 24.81413 -24.19999
v -2.08206 28.93920 -25.39463
v -1.53964 28.11645 -27.48676
v 0.00000 28.97810 -27.35992
v 0.00000 29.35585 -24.93792
v -5.66649 26.80606 -16.76292
v 0.00000 18.63330 -20.75361
v -3.25753 30.32118 -19.21007
v -3.86225 27.02813 -25.63112
v -4.31538 29.45119 -7.93571
v -0.00000 31.52071 -7.82756
v -6.20283 23.82104 -12.47925
v -7.12314 24.10978 -7.52925
v -5.42273 27.26768 -19.57081
v -2.76328 30.06443 -24.14862
v 0.00000 29.76899 -23.81497
v 0.00000 31.40369 -18.72179
v -6.02713 21.12403 -17.11455
v -3.93920 18.94463 -12.94322
v -5.81728 19.33493 -6.90810
v -1.33404 27.29052 -29.25219
v -4.03053 18.72488 -17.33970
v 0.00001 27.30000 -30.79807
v -1.27992 26.71981 -30.53856
v 0.00001 21.20594 -30.63722
v 0.00001 21.77765 -32.65495
v 0.00001 27.88461 -29.46136
v -6.61947 23.40863 -20.52204
v 0.00000 24.24067 -19.47483
v 0.00000 24.77530 -23.84342
v -5.41014 24.06695 -24.22201
v -3.77602 24.22482 -29.10461
v -4.60732 24.26121 -26.90742
v 0.00001 24.88008 -26.74860
v 0.00001 24.85863 -29.10463
v -1.54267 24.16264 -33.13479
v -2.80838 24.10664 -31.66644
v 0.00001 24.59761 -31.66645
v 0.00001 24.40021 -34.09337
v -2.77853 23.31590 -30.28592
v 0.00001 22.12144 -30.28593
v 0.00001 22.15671 -28.79125
v -3.50200 23.35132 -28.73391
v 0.00001 22.16735 -26.66327
v -4.33036 23.36206 -26.72057
v 0.00000 22.38644 -24.14680
v -5.81727 23.23329 -24.13581
v 0.00000 22.40323 -20.21504
v -1.47425 23.28049 -32.61371
v 0.00001 22.98199 -33.43723
v 0.00000 17.06607 -17.14215
v 0.00001 22.98199 -33.43723
v 0.00000 17.64602 -8.13583
v 0.00000 17.21875 -13.00006
v -3.84730 27.86007 -22.45744
v -4.50245 27.33152 -22.64391
v -3.84497 27.54455 -23.02662
v -4.10571 26.85583 -23.42023
v -4.60108 26.41094 -23.08770
v -4.79865 26.49520 -22.49333
v -4.57047 26.97881 -21.82271
v -4.22802 27.60900 -21.96122
v -2.53198 24.71151 -31.48206
v -2.02593 23.42049 -31.80119
v -1.94916 24.71040 -32.23213
v -1.87082 24.60100 -32.30061
v -1.31986 23.38470 -32.70049
v -1.25396 24.71197 -33.03092
v -1.04608 24.64020 -33.17222
v -0.44962 23.38739 -33.43787
v -0.12787 24.69780 -33.74030
v -2.87927 24.69460 -30.58179
v -2.60466 23.36776 -31.06656
v -2.71282 24.61101 -31.45859
v -3.11930 24.62922 -29.78326
v -2.84935 23.39696 -30.27627
v -2.92115 24.81196 -30.82361
v -3.34562 24.52389 -28.97503
v -3.16196 23.42061 -29.40263
v -3.11931 24.56162 -29.79786
v -3.66631 24.62434 -28.17728
v -3.53298 23.44455 -28.60017
v -3.37721 24.65451 -29.04897
v -4.00066 24.59461 -27.25805
v -3.66811 23.43562 -27.65820
v -3.74814 24.59810 -28.10870
v -4.35020 24.63758 -26.29289
v -4.00863 23.52663 -26.72721
v -4.07334 24.63247 -27.18384
v -4.71579 24.64730 -25.42780
v -4.40470 23.53474 -25.88363
v -4.52689 24.66560 -26.30838
v -3.38457 22.91195 -27.61807
v -3.41380 23.97347 -27.21883
v -3.61367 23.10690 -26.94778
v -4.02973 23.14277 -26.64392
v -4.11153 24.07430 -26.30394
v -4.27226 23.20328 -25.99284
v -4.60258 23.01025 -25.81154
v -4.63744 23.99972 -25.46209
v -4.83110 23.18886 -25.15799
v -3.03749 22.88036 -28.54692
v -3.24548 24.01606 -28.12837
v -3.30213 22.98517 -27.87065
v -2.67701 22.85711 -29.46393
v -2.88384 23.95647 -28.97104
v -2.82100 22.81058 -28.62995
v -2.32032 22.78386 -30.18886
v -2.61347 23.99966 -29.79764
v -2.78135 22.94567 -29.42657
v -2.08494 22.92101 -31.09304
v -2.15143 24.00197 -30.65198
v -2.34163 23.08730 -30.26029
v -1.49919 22.80813 -31.87237
v -1.67895 23.82308 -31.41855
v -1.86046 22.85754 -31.08129
v -0.78919 22.85197 -32.75304
v -1.03186 23.89177 -32.30745
v -1.17981 22.91332 -31.88518
v -4.99151 24.57491 -24.60700
v -4.68980 23.41467 -24.99803
v -4.80132 24.47728 -25.45552
v -5.11177 24.39630 -22.79852
v -5.27290 23.28365 -23.16604
v -5.28201 24.32229 -23.53211
v -5.14194 24.47646 -23.72075
v -4.92285 23.32394 -24.13365
v -4.87529 24.39497 -24.58203
v -0.75076 22.98991 -32.75267
v 0.00001 22.83358 -33.16920
v -0.41327 23.88834 -32.94435
v -4.93673 22.96782 -24.94298
v -5.13407 23.95731 -24.59351
v -5.32773 23.14644 -24.28943
v -5.37671 22.85238 -23.97532
v -5.41157 23.84187 -23.62587
v -5.60523 23.03099 -23.32178
v -5.58179 22.79663 -23.04279
v -5.61665 23.78610 -22.69333
v -5.45011 22.97524 -22.38924
v 0.00000 28.01900 68.21683
v 4.81071 29.89098 -3.93378
v -0.00000 32.07209 -3.87116
v -0.00000 31.52071 -7.82756
v 4.31538 29.45120 -7.93571
v 5.28781 30.13864 24.79870
v 0.00000 33.09839 24.78860
v 0.00000 33.06212 20.35494
v 5.20427 30.26266 20.31653
v 8.44000 24.17959 -0.36733
v 8.80561 25.33962 -4.02819
v 10.58542 21.03963 -3.07964
v 8.43135 20.37479 -0.32257
v 7.12314 24.10978 -7.52925
v 5.81728 19.33493 -6.90810
v 8.53990 20.00773 -6.10443
v 0.00000 17.64602 -8.13583
v 0.00000 16.86448 -3.86276
v 5.35383 17.81970 -3.42374
v 0.00000 16.42303 0.58777
v 5.66847 17.66755 0.13350
v 0.00000 15.64218 5.37992
v 5.23204 16.75198 5.37342
v 5.01580 29.32320 29.58248
v 0.00000 32.60487 29.59923
v 9.90068 23.42559 9.49883
v 9.39876 23.73285 4.50149
v 8.55091 19.44898 5.02168
v 8.16434 18.50415 9.49402
v 5.72448 29.91647 15.03035
v 0.00000 32.59724 15.03132
v 0.00000 32.17518 9.49954
v 5.87739 29.62686 9.49798
v 4.78116 17.36166 20.38111
v 5.22692 16.77616 15.03010
v -0.00000 15.51227 15.02325
v -0.00000 16.45176 20.37633
v 7.85608 18.62341 15.02537
v 7.81570 18.81549 21.62042
v 9.17182 23.73685 20.35838
v 9.64458 23.57248 15.05031
v 5.70856 29.29698 4.51912
v 5.17026 29.28072 -0.08772
v 8.41857 24.35114 29.48825
v 5.40801 16.47665 9.49363
v 0.00000 15.13866 9.49463
v 0.00000 31.20450 38.73576
v 5.14780 26.32035 38.74182
v 4.04015 26.29364 47.13319
v 0.00000 30.11876 47.17063
v 2.24270 22.90122 53.43005
v 3.29132 26.26308 53.42133
v 2.69413 22.24618 47.10864
v 5.01580 29.32320 29.58248
v 0.00000 32.60487 29.59923
v 3.48557 21.39578 38.74462
v 8.41857 24.35114 29.48825
v 5.15389 19.85166 28.64993
v 0.00000 18.31606 29.41858
v 0.00000 20.07318 38.70421
v 0.00000 21.42055 47.10214
v 0.00000 29.70544 53.45473
v 2.84077 26.04424 57.60886
v 0.00000 29.47757 58.05999
v 2.00401 23.18760 57.17796
v 0.00000 22.30558 53.44330
v 0.00000 22.58750 57.09628
v 1.29047 26.44192 63.11436
v 2.32886 23.08796 61.73776
v 1.98364 20.10116 65.24738
v 0.71539 22.55204 66.64764
v 1.76368 20.82794 60.80266
v 1.41736 18.31347 64.28737
v 0.00000 20.30570 60.64050
v 0.00000 17.87700 64.01306
v 1.54706 17.74495 68.55398
v 0.00000 19.47733 69.62685
v 1.04904 16.12218 67.77795
v 0.00000 15.67300 67.58068
v 0.55791 14.47264 71.39472
v 1.16281 15.81761 71.89333
v 0.81227 14.80112 74.41991
v 0.00000 14.39462 76.32269
v 0.00000 15.27346 74.72894
v 1.01850 29.94539 66.09578
v 0.00000 31.37414 63.73489
v 0.00000 30.40683 60.61821
v 0.00000 29.47757 58.05999
v 1.29047 26.44192 63.11436
v 0.71539 22.55204 66.64764
v 0.00000 23.75521 67.99696
v -0.00000 31.76036 4.54728
v 4.43692 18.47182 24.84750
v -0.00000 17.47997 24.83962
v 0.00000 18.31606 29.41858
v 5.15389 19.85166 28.64993
v 0.00000 14.12687 74.25047
v -0.00000 31.79243 -0.08289
v 7.06607 18.25570 -2.93226
v 7.24801 18.44233 -0.83325
v 13.25908 16.43431 5.53735
v 16.33596 15.30030 2.58302
v 15.64577 14.74847 6.55944
v 18.53143 11.64502 5.81363
v 17.54876 12.66234 0.39547
v 12.79649 14.49083 0.20080
v 10.58542 21.03963 -3.07964
v 13.03836 18.84560 -1.81244
v 10.63561 18.68577 0.34713
v 8.43135 20.37479 -0.32257
v 8.53990 20.00773 -6.10443
v 12.14948 16.34430 -4.00671
v 10.13078 16.48175 -1.48997
v 7.06607 18.25570 -2.93226
v 12.14948 16.34430 -4.00671
v 8.53990 20.00773 -6.10443
v 17.54876 12.66234 0.39547
v 7.24801 18.44233 -0.83325
v 9.93529 25.16462 24.76766
v 0.00000 14.26320 71.33372
v 0.00000 19.47733 69.62685
v 18.53143 11.64502 5.81363
v 0.00000 16.74115 72.40978
v 0.57670 32.25652 68.80594
v 0.00000 33.33179 67.62995
v 0.46473 34.21194 71.70980
v 0.00000 35.49573 74.29960
v 0.00000 35.21066 71.41172
v 0.00000 30.89416 69.95982
v 0.00000 33.34747 72.30549
v 10.29039 21.74139 29.06688
v 12.14183 20.76936 25.82636
v 11.63564 19.68782 22.36732
v 8.32718 18.51324 25.44083
v 14.23364 16.53853 38.40996
v 16.99937 12.71115 36.91058
v 15.16651 13.11669 42.16181
v 16.57432 9.26645 43.65104
v 17.36954 9.47622 36.22250
v 13.28436 11.37430 36.91673
v 15.36082 16.15787 28.60677
v 12.14183 20.76936 25.82636
v 11.63564 19.68782 22.36732
v 15.61214 13.44699 27.07141
v 12.50392 18.58542 30.22056
v 10.29039 21.74139 29.06688
v 17.36954 9.47622 36.22250
v 16.68869 10.94455 31.46465
v 12.23911 13.27167 32.89971
v 13.47298 17.91685 34.09783
v 11.66686 15.43930 29.16709
v 16.68869 10.94455 31.46465
v 16.34628 14.34896 32.53240
v 16.57432 9.26645 43.65104
v 11.63564 19.68782 22.36732
v 8.32718 18.51324 25.44083
v 15.61214 13.44699 27.07141
v 3.85438 28.56989 -22.39407
v 3.82124 28.10645 -23.47850
v 4.15878 26.88272 -22.58812
v 4.28801 27.22424 -24.24509
v 5.42775 26.27962 -22.29006
v 4.94075 26.23234 -23.55381
v 5.19674 27.02942 -21.41806
v 4.42835 28.19480 -21.59282
v 1.49654 22.30570 -32.13479
v 2.61283 21.97360 -30.43577
v 2.77855 23.31590 -30.28592
v 1.47426 23.28049 -32.61371
v 6.61948 23.40863 -20.52203
v 5.81728 23.23329 -24.13581
v 4.28561 20.56002 -24.12310
v 4.39270 19.96206 -20.91709
v 3.50201 23.35132 -28.73391
v 3.29035 21.74065 -28.78253
v 3.80284 21.38591 -26.65894
v 4.33037 23.36206 -26.72056
v 0.00001 19.84952 -26.64097
v 0.00000 19.27732 -23.96028
v 1.13213 25.50219 -32.86877
v 1.22698 26.59991 -31.94081
v 0.00001 27.16658 -32.25450
v 0.00001 26.22057 -33.49183
v 0.00001 24.40021 -34.09337
v 1.54269 24.16264 -33.13479
v 3.29064 25.91440 -29.47205
v 3.77603 24.22482 -29.10460
v 4.60733 24.26121 -26.90742
v 3.56643 26.42519 -27.36873
v 6.22190 25.46546 -20.10328
v 6.84404 23.70998 -16.95370
v 2.36053 25.79225 -31.71311
v 2.80839 24.10665 -31.66644
v 3.01283 30.51959 -21.07101
v 0.00000 30.67039 -20.63361
v 0.00000 30.18677 -22.31263
v 2.88520 30.63887 -22.61801
v -0.00000 31.40135 -12.43680
v 0.00000 31.82330 -16.19409
v 3.73960 30.33961 -16.43046
v 3.69937 29.19113 -12.56445
v 0.00001 20.63455 -28.73476
v 5.34329 24.81414 -24.19998
v 5.41014 24.06695 -24.22201
v 2.08207 28.93920 -25.39463
v 0.00000 29.35585 -24.93792
v 0.00000 28.97810 -27.35992
v 1.53965 28.11645 -27.48676
v 5.66650 26.80606 -16.76292
v 0.00000 18.63330 -20.75361
v 3.25753 30.32118 -19.21007
v 3.86226 27.02813 -25.63112
v 4.31538 29.45120 -7.93571
v -0.00000 31.52071 -7.82756
v 6.20283 23.82105 -12.47925
v 7.12314 24.10978 -7.52925
v 5.42274 27.26768 -19.57081
v 0.00000 29.76899 -23.81497
v 2.76329 30.06443 -24.14862
v 0.00000 31.40369 -18.72179
v 6.02713 21.12403 -17.11455
v 3.93920 18.94463 -12.94322
v 5.81728 19.33493 -6.90810
v 1.33405 27.29052 -29.25219
v 4.03053 18.72488 -17.33970
v 1.27993 26.71981 -30.53856
v 0.00001 27.30000 -30.79807
v 0.00001 21.77765 -32.65495
v 0.00001 21.20594 -30.63722
v 0.00001 27.88461 -29.46136
v 6.61948 23.40863 -20.52203
v 5.41014 24.06695 -24.22201
v 3.77603 24.22482 -29.10460
v 4.60733 24.26121 -26.90742
v 1.54269 24.16264 -33.13479
v 2.80839 24.10665 -31.66644
v 2.77855 23.31590 -30.28592
v 3.50201 23.35132 -28.73391
v 4.33037 23.36206 -26.72056
v 5.81728 23.23329 -24.13581
v 1.47426 23.28049 -32.61371
v 0.00000 17.06607 -17.14215
v 0.00001 22.98199 -33.43723
v 0.00000 17.64602 -8.13583
v 0.00000 17.21875 -13.00006
v 3.84731 27.86007 -22.45743
v 3.84497 27.54455 -23.02662
v 4.50246 27.33152 -22.64390
v 4.10572 26.85584 -23.42023
v 4.60109 26.41094 -23.08770
v 4.79865 26.49521 -22.49333
v 4.57048 26.97881 -21.82271
v 4.22803 27.60900 -21.96121
v 2.53200 24.71151 -31.48206
v 1.94917 24.71040 -32.23213
v 2.02594 23.42050 -31.80119
v 1.87083 24.60101 -32.30061
v 1.25398 24.71198 -33.03092
v 1.31987 23.38470 -32.70049
v 1.04610 24.64020 -33.17222
v 0.12788 24.69780 -33.74030
v 0.44964 23.38739 -33.43787
v 2.87928 24.69461 -30.58179
v 2.71284 24.61101 -31.45859
v 2.60468 23.36776 -31.06656
v 3.11932 24.62922 -29.78326
v 2.92116 24.81196 -30.82361
v 2.84936 23.39696 -30.27627
v 3.34564 24.52389 -28.97503
v 3.11932 24.56162 -29.79786
v 3.16197 23.42061 -29.40263
v 3.66632 24.62434 -28.17728
v 3.37722 24.65451 -29.04897
v 3.53300 23.44455 -28.60016
v 4.00067 24.59461 -27.25805
v 3.74815 24.59810 -28.10870
v 3.66813 23.43562 -27.65819
v 4.35021 24.63758 -26.29288
v 4.07335 24.63247 -27.18383
v 4.00864 23.52663 -26.72721
v 4.71580 24.64731 -25.42780
v 4.52690 24.66560 -26.30838
v 4.40471 23.53474 -25.88363
v 3.38458 22.91195 -27.61807
v 3.61368 23.10690 -26.94778
v 3.41381 23.97347 -27.21883
v 4.02974 23.14277 -26.64392
v 4.27227 23.20328 -25.99284
v 4.11154 24.07430 -26.30394
v 4.60259 23.01025 -25.81154
v 4.83111 23.18886 -25.15799
v 4.63745 23.99972 -25.46208
v 3.03750 22.88036 -28.54691
v 3.30215 22.98517 -27.87065
v 3.24550 24.01606 -28.12837
v 2.67702 22.85711 -29.46393
v 2.82102 22.81058 -28.62994
v 2.88386 23.95647 -28.97103
v 2.32034 22.78386 -30.18886
v 2.78136 22.94567 -29.42656
v 2.61348 23.99966 -29.79764
v 2.08496 22.92101 -31.09304
v 2.34165 23.08730 -30.26029
v 2.15144 24.00197 -30.65198
v 1.49921 22.80813 -31.87237
v 1.86047 22.85754 -31.08129
v 1.67896 23.82308 -31.41855
v 0.78921 22.85197 -32.75304
v 1.17983 22.91332 -31.88518
v 1.03188 23.89177 -32.30745
v 4.99152 24.57491 -24.60699
v 4.80133 24.47728 -25.45552
v 4.68981 23.41467 -24.99803
v 5.11178 24.39630 -22.79852
v 5.28202 24.32229 -23.53210
v 5.27290 23.28365 -23.16603
v 5.14195 24.47646 -23.72075
v 4.87530 24.39498 -24.58202
v 4.92286 23.32394 -24.13364
v 0.75078 22.98991 -32.75267
v 0.41329 23.88834 -32.94435
v 4.93674 22.96782 -24.94298
v 5.32774 23.14644 -24.28942
v 5.13408 23.95731 -24.59351
v 5.37672 22.85238 -23.97532
v 5.60523 23.03099 -23.32178
v 5.41158 23.84187 -23.62587
v 5.58180 22.79663 -23.04278
v 5.45012 22.97524 -22.38924
v 5.61666 23.78610 -22.69333
v 0.00000 28.01900 68.21683
vt 0.435115 0.369431
vt 0.352366 0.364331
vt 0.344527 0.448669
vt 0.425265 0.466188
vt 0.909197 0.381474
vt 0.828088 0.387305
vt 0.828202 0.489769
vt 0.907515 0.481663
vt 0.508381 0.271458
vt 0.446817 0.276873
vt 0.510841 0.198271
vt 0.451804 0.211664
vt 0.363019 0.262024
vt 0.370935 0.168131
vt 0.415719 0.199946
vt 0.441309 0.139856
vt 0.435008 0.038081
vt 0.354322 0.050402
vt 0.506714 0.133712
vt 0.504065 0.032786
vt 0.578488 0.029048
vt 0.584363 0.123379
vt 0.980659 0.467694
vt 0.976987 0.369191
vt 0.656642 0.262352
vt 0.656342 0.178698
vt 0.584876 0.186751
vt 0.580072 0.267450
vt 0.743480 0.383525
vt 0.654783 0.380238
vt 0.649751 0.490868
vt 0.745000 0.492470
vt 0.821441 0.112229
vt 0.821444 0.036446
vt 0.740118 0.029024
vt 0.740183 0.117558
vt 0.741952 0.172597
vt 0.741137 0.261918
vt 0.825579 0.263086
vt 0.821830 0.171035
vt 0.498844 0.371837
vt 0.574062 0.374735
vt 0.975162 0.263006
vt 0.650519 0.023417
vt 0.653796 0.121177
vt 0.273377 0.192081
vt 0.232558 0.317828
vt 0.146668 0.298858
vt 0.167197 0.165921
vt 0.075056 0.385882
vt 0.081875 0.293360
vt 0.129987 0.390699
vt 0.269323 0.039191
vt 0.333223 0.068651
vt 0.088412 0.163517
vt 0.098228 0.020040
vt 0.181196 0.025109
vt 0.029121 0.171177
vt 0.017320 0.032289
vt 0.038529 0.297748
vt 0.205042 0.405523
vt 0.188263 0.484387
vt 0.117333 0.475737
vt 0.071086 0.469511
vt 0.040431 0.388054
vt 0.038935 0.467213
vt 0.161805 0.567710
vt 0.121253 0.631465
vt 0.078610 0.610832
vt 0.100272 0.545207
vt 0.048632 0.602154
vt 0.063897 0.536012
vt 0.035946 0.530161
vt 0.027482 0.595730
vt 0.094409 0.687026
vt 0.061014 0.670433
vt 0.035724 0.663736
vt 0.016511 0.660520
vt 0.047627 0.729125
vt 0.026404 0.724828
vt 0.038170 0.767200
vt 0.050883 0.775565
vt 0.034373 0.799056
vt 0.230618 0.527257
vt 0.255824 0.571754
vt 0.221542 0.613464
vt 0.188263 0.484387
vt 0.161805 0.567710
vt 0.148201 0.643927
vt 0.121253 0.631465
vt 0.568133 0.485019
vt 0.904718 0.107591
vt 0.974846 0.132483
vt 0.976509 0.060031
vt 0.902032 0.046478
vt 0.020282 0.768237
vt 0.490312 0.475327
vt 0.452091 0.166736
vt 0.484631 0.172237
vt 0.178061 0.793700
vt 0.179050 0.749094
vt 0.121369 0.782982
vt 0.131252 0.701054
vt 0.067823 0.764743
vt 0.235635 0.799198
vt 0.116067 0.979609
vt 0.161686 0.977913
vt 0.176163 0.906614
vt 0.111863 0.900195
vt 0.057730 0.976669
vt 0.058272 0.903418
vt 0.238590 0.916048
vt 0.237034 0.981835
vt 0.277220 0.982595
vt 0.278922 0.917615
vt 0.286729 0.774634
vt 0.199590 0.980337
vt 0.909702 0.280332
vt 0.013316 0.725309
vt 0.094409 0.687026
vt 0.236396 0.711585
vt 0.070892 0.738224
vt 0.283678 0.634247
vt 0.253106 0.656865
vt 0.278780 0.703143
vt 0.295158 0.700843
vt 0.294772 0.745375
vt 0.263897 0.712584
vt 0.231145 0.672853
vt 0.954576 0.221941
vt 0.910047 0.226019
vt 0.870143 0.205955
vt 0.907038 0.157564
vt 0.523212 0.767928
vt 0.590316 0.775082
vt 0.544062 0.711221
vt 0.640964 0.736939
vt 0.559604 0.671002
vt 0.533638 0.830928
vt 0.417942 0.701746
vt 0.421044 0.661418
vt 0.313655 0.666436
vt 0.326914 0.718835
vt 0.401400 0.762614
vt 0.335528 0.763315
vt 0.474874 0.825849
vt 0.479354 0.887453
vt 0.550977 0.887138
vt 0.400014 0.818762
vt 0.468141 0.766502
vt 0.487466 0.658636
vt 0.479886 0.702150
vt 0.636245 0.822701
vt 0.307010 0.885507
vt 0.410305 0.885238
vt 0.323148 0.819740
vt 0.744563 0.907969
vt 0.735798 0.882975
vt 0.725629 0.906132
vt 0.711781 0.891456
vt 0.742332 0.861165
vt 0.720242 0.869063
vt 0.757763 0.872951
vt 0.757793 0.897378
vt 0.577596 0.635041
vt 0.560932 0.641108
vt 0.590469 0.674140
vt 0.603598 0.652845
vt 0.756592 0.791126
vt 0.763813 0.710270
vt 0.709565 0.703584
vt 0.692905 0.752958
vt 0.620219 0.693222
vt 0.655251 0.718516
vt 0.670604 0.688764
vt 0.634801 0.671659
vt 0.723689 0.631971
vt 0.683609 0.620637
vt 0.562385 0.925156
vt 0.552786 0.948151
vt 0.577545 0.958003
vt 0.583860 0.935366
vt 0.551234 0.907135
vt 0.529099 0.928212
vt 0.622718 0.900305
vt 0.658833 0.897439
vt 0.656832 0.856439
vt 0.620395 0.871373
vt 0.770372 0.832032
vt 0.819102 0.797158
vt 0.577566 0.888379
vt 0.586691 0.913116
vt 0.772760 0.938846
vt 0.747909 0.945035
vt 0.749807 0.990148
vt 0.781822 0.987739
vt 0.914028 0.968025
vt 0.905501 0.896236
vt 0.844402 0.916485
vt 0.856222 0.979657
vt 0.647313 0.616324
vt 0.699530 0.835949
vt 0.703421 0.848829
vt 0.696558 0.941024
vt 0.661430 0.941053
vt 0.662123 0.970121
vt 0.700080 0.977616
vt 0.831047 0.851693
vt 0.771924 0.634211
vt 0.801126 0.926616
vt 0.689125 0.897501
vt 0.981119 0.889688
vt 0.988641 0.966062
vt 0.896608 0.796062
vt 0.984467 0.799574
vt 0.786904 0.865680
vt 0.725128 0.941623
vt 0.721232 0.987479
vt 0.813252 0.983900
vt 0.823862 0.753491
vt 0.896244 0.705941
vt 0.984771 0.709363
vt 0.628588 0.938848
vt 0.824982 0.701877
vt 0.602459 0.958610
vt 0.606283 0.935693
vt 0.609049 0.611608
vt 0.573436 0.609189
vt 0.624119 0.962081
vt 0.775364 0.509921
vt 0.785421 0.602644
vt 0.827810 0.598073
vt 0.829827 0.512761
vt 0.907869 0.532572
vt 0.873554 0.523389
vt 0.873336 0.591216
vt 0.907513 0.588397
vt 0.967986 0.562452
vt 0.946213 0.544546
vt 0.945042 0.586185
vt 0.982130 0.584892
vt 0.618667 0.545241
vt 0.616408 0.588718
vt 0.641714 0.589819
vt 0.642409 0.536351
vt 0.671620 0.592340
vt 0.673836 0.527266
vt 0.714655 0.596574
vt 0.715885 0.511461
vt 0.753074 0.599527
vt 0.584101 0.561785
vt 0.570979 0.582841
vt 0.830838 0.634580
vt 0.550220 0.615629
vt 0.970552 0.627328
vt 0.893469 0.630458
vt 0.432960 0.492166
vt 0.457657 0.562420
vt 0.500765 0.503303
vt 0.543817 0.560543
vt 0.512703 0.623423
vt 0.449719 0.637118
vt 0.390719 0.603384
vt 0.384403 0.538032
vt 0.240609 0.478611
vt 0.312608 0.610809
vt 0.382078 0.478979
vt 0.240559 0.478619
vt 0.312605 0.610815
vt 0.382047 0.478977
vt 0.240623 0.478617
vt 0.312604 0.610820
vt 0.382037 0.478979
vt 0.240530 0.478609
vt 0.312611 0.610827
vt 0.382070 0.478983
vt 0.240528 0.478608
vt 0.312608 0.610777
vt 0.382115 0.478971
vt 0.240567 0.478622
vt 0.312611 0.610776
vt 0.382076 0.478982
vt 0.240541 0.478616
vt 0.312600 0.610786
vt 0.382076 0.478980
vt 0.240575 0.478619
vt 0.312609 0.610788
vt 0.382088 0.478982
vt 0.240573 0.478620
vt 0.312614 0.610773
vt 0.382098 0.478984
vt 0.240561 0.478618
vt 0.312613 0.610763
vt 0.382089 0.478982
vt 0.382054 0.478984
vt 0.312599 0.610744
vt 0.240576 0.478633
vt 0.382054 0.478984
vt 0.312599 0.610744
vt 0.240576 0.478633
vt 0.382054 0.478984
vt 0.312599 0.610744
vt 0.240576 0.478633
vt 0.382054 0.478984
vt 0.312599 0.610745
vt 0.240576 0.478633
vt 0.382054 0.478984
vt 0.312599 0.610745
vt 0.240576 0.478633
vt 0.382054 0.478984
vt 0.312599 0.610745
vt 0.240576 0.478633
vt 0.382054 0.478984
vt 0.312599 0.610744
vt 0.240576 0.478633
vt 0.382054 0.478984
vt 0.312599 0.610744
vt 0.240576 0.478633
vt 0.382054 0.478984
vt 0.312599 0.610744
vt 0.240576 0.478633
vt 0.240574 0.478614
vt 0.312604 0.610765
vt 0.382085 0.478985
vt 0.240584 0.478616
vt 0.312603 0.610755
vt 0.382060 0.478984
vt 0.240540 0.478612
vt 0.312594 0.610753
vt 0.382071 0.478983
vt 0.240576 0.478633
vt 0.382054 0.478984
vt 0.312599 0.610745
vt 0.382054 0.478984
vt 0.312599 0.610744
vt 0.240578 0.478633
vt 0.382054 0.478984
vt 0.312599 0.610744
vt 0.240576 0.478633
vt 0.382054 0.478984
vt 0.312599 0.610744
vt 0.240576 0.478633
vt 0.194058 0.655403
vt 0.434627 0.369474
vt 0.425742 0.466842
vt 0.344788 0.448287
vt 0.352654 0.364185
vt 0.908552 0.380851
vt 0.907524 0.480372
vt 0.827719 0.490089
vt 0.827915 0.387550
vt 0.508794 0.272123
vt 0.446461 0.276488
vt 0.451520 0.211653
vt 0.511229 0.198845
vt 0.362785 0.261923
vt 0.371021 0.167307
vt 0.415978 0.199459
vt 0.354990 0.048894
vt 0.435198 0.036557
vt 0.441256 0.139965
vt 0.504032 0.033059
vt 0.506833 0.132982
vt 0.580126 0.029784
vt 0.584900 0.123578
vt 0.976653 0.368775
vt 0.981873 0.468486
vt 0.656684 0.262283
vt 0.580032 0.266837
vt 0.584268 0.186121
vt 0.656661 0.179260
vt 0.743072 0.383130
vt 0.744483 0.492278
vt 0.650516 0.489882
vt 0.654491 0.379936
vt 0.821095 0.112861
vt 0.738850 0.117395
vt 0.739388 0.030604
vt 0.820961 0.035931
vt 0.739847 0.173554
vt 0.822941 0.170147
vt 0.826166 0.262470
vt 0.742145 0.262671
vt 0.573846 0.374289
vt 0.498781 0.371205
vt 0.975248 0.264384
vt 0.653542 0.121085
vt 0.650227 0.030177
vt 0.275929 0.191734
vt 0.168324 0.165656
vt 0.146730 0.298824
vt 0.233107 0.317238
vt 0.075980 0.387520
vt 0.129755 0.391116
vt 0.081894 0.294578
vt 0.269461 0.040076
vt 0.333401 0.066535
vt 0.086744 0.163850
vt 0.181153 0.024324
vt 0.098100 0.018843
vt 0.016877 0.031542
vt 0.029032 0.170945
vt 0.038546 0.297877
vt 0.205073 0.405391
vt 0.116392 0.474354
vt 0.187895 0.483436
vt 0.070766 0.468956
vt 0.040531 0.387740
vt 0.039872 0.467355
vt 0.162190 0.567799
vt 0.100728 0.544825
vt 0.077979 0.611034
vt 0.120798 0.631804
vt 0.062710 0.536376
vt 0.048498 0.602104
vt 0.035006 0.529885
vt 0.026456 0.595389
vt 0.061530 0.670318
vt 0.094514 0.686642
vt 0.035220 0.663517
vt 0.017752 0.660511
vt 0.026272 0.724239
vt 0.048654 0.728236
vt 0.038227 0.767474
vt 0.034436 0.799399
vt 0.050774 0.775560
vt 0.220753 0.611965
vt 0.256361 0.571042
vt 0.229081 0.526761
vt 0.187895 0.483436
vt 0.162190 0.567799
vt 0.120798 0.631804
vt 0.148241 0.643604
vt 0.568413 0.485046
vt 0.904483 0.106326
vt 0.901754 0.045493
vt 0.976020 0.058524
vt 0.974720 0.134431
vt 0.020102 0.768583
vt 0.490735 0.474461
vt 0.451988 0.166536
vt 0.484521 0.171409
vt 0.177548 0.794001
vt 0.121674 0.782968
vt 0.178974 0.749358
vt 0.130633 0.700130
vt 0.068971 0.765617
vt 0.236472 0.799476
vt 0.116778 0.980209
vt 0.113292 0.899487
vt 0.177364 0.906789
vt 0.160979 0.978806
vt 0.057779 0.977185
vt 0.058334 0.904693
vt 0.237804 0.915778
vt 0.236937 0.981249
vt 0.280201 0.916058
vt 0.278772 0.981986
vt 0.287449 0.775433
vt 0.198920 0.979844
vt 0.909698 0.279055
vt 0.013697 0.724464
vt 0.094514 0.686642
vt 0.236591 0.710532
vt 0.070316 0.737936
vt 0.253254 0.656467
vt 0.282914 0.634671
vt 0.278029 0.703591
vt 0.294894 0.745507
vt 0.295341 0.700617
vt 0.230675 0.674050
vt 0.263406 0.713171
vt 0.954796 0.220681
vt 0.909705 0.225581
vt 0.869823 0.205841
vt 0.906171 0.158619
vt 0.523441 0.767125
vt 0.543455 0.710924
vt 0.591164 0.774282
vt 0.641782 0.737420
vt 0.559734 0.670353
vt 0.533924 0.830987
vt 0.417312 0.702665
vt 0.327323 0.717969
vt 0.311927 0.666486
vt 0.420534 0.660999
vt 0.400509 0.763392
vt 0.335566 0.763445
vt 0.551415 0.886282
vt 0.480173 0.888990
vt 0.474609 0.826073
vt 0.468886 0.766731
vt 0.398817 0.818325
vt 0.487866 0.657190
vt 0.480638 0.702344
vt 0.635913 0.822331
vt 0.305407 0.884893
vt 0.323781 0.820007
vt 0.410286 0.886137
vt 0.745243 0.908382
vt 0.725762 0.905861
vt 0.736016 0.883456
vt 0.711458 0.891100
vt 0.740964 0.861304
vt 0.719981 0.869248
vt 0.757528 0.872059
vt 0.757797 0.896478
vt 0.577572 0.635611
vt 0.603852 0.653372
vt 0.590803 0.674228
vt 0.560661 0.641712
vt 0.755652 0.790066
vt 0.692451 0.750640
vt 0.711148 0.703126
vt 0.762378 0.710703
vt 0.621106 0.695047
vt 0.635854 0.672527
vt 0.671416 0.689152
vt 0.653228 0.718216
vt 0.684339 0.622135
vt 0.724185 0.629431
vt 0.562640 0.925739
vt 0.583613 0.935526
vt 0.577480 0.957333
vt 0.553420 0.948328
vt 0.529707 0.927494
vt 0.550466 0.905489
vt 0.622948 0.900710
vt 0.620403 0.870963
vt 0.656953 0.856842
vt 0.658520 0.897492
vt 0.770348 0.832079
vt 0.819730 0.797283
vt 0.586682 0.913245
vt 0.577202 0.886743
vt 0.772050 0.938599
vt 0.781404 0.987150
vt 0.749570 0.989851
vt 0.748748 0.943822
vt 0.914332 0.968185
vt 0.855994 0.979916
vt 0.843722 0.915996
vt 0.905197 0.896075
vt 0.647973 0.615082
vt 0.703941 0.848616
vt 0.699288 0.835769
vt 0.697728 0.940193
vt 0.699620 0.977621
vt 0.661924 0.970203
vt 0.660583 0.940937
vt 0.832022 0.851787
vt 0.771767 0.635529
vt 0.800585 0.927133
vt 0.688954 0.896721
vt 0.981781 0.889616
vt 0.987987 0.965820
vt 0.897829 0.796505
vt 0.983203 0.798156
vt 0.787095 0.865624
vt 0.719230 0.986259
vt 0.725120 0.941776
vt 0.814871 0.983574
vt 0.822336 0.752654
vt 0.896083 0.705274
vt 0.986625 0.709045
vt 0.628968 0.938543
vt 0.825184 0.702195
vt 0.606220 0.935782
vt 0.601731 0.958767
vt 0.573358 0.608595
vt 0.609205 0.611394
vt 0.625111 0.962533
vt 0.775364 0.509921
vt 0.829827 0.512761
vt 0.907869 0.532572
vt 0.873554 0.523389
vt 0.967986 0.562452
vt 0.946213 0.544546
vt 0.618667 0.545241
vt 0.642409 0.536351
vt 0.673836 0.527266
vt 0.715885 0.511461
vt 0.584101 0.561785
vt 0.831590 0.631693
vt 0.550107 0.615149
vt 0.971380 0.629291
vt 0.894181 0.633249
vt 0.432960 0.492166
vt 0.500765 0.503303
vt 0.457657 0.562420
vt 0.543817 0.560543
vt 0.512703 0.623423
vt 0.449719 0.637118
vt 0.390719 0.603384
vt 0.384403 0.538032
vt 0.240609 0.478611
vt 0.382078 0.478979
vt 0.312608 0.610809
vt 0.240559 0.478619
vt 0.382047 0.478977
vt 0.312605 0.610815
vt 0.240623 0.478617
vt 0.382037 0.478979
vt 0.312604 0.610820
vt 0.240530 0.478609
vt 0.382070 0.478983
vt 0.312611 0.610827
vt 0.240528 0.478608
vt 0.382115 0.478971
vt 0.312608 0.610777
vt 0.240567 0.478622
vt 0.382076 0.478982
vt 0.312611 0.610776
vt 0.240541 0.478616
vt 0.382076 0.478980
vt 0.312600 0.610786
vt 0.240575 0.478619
vt 0.382088 0.478982
vt 0.312609 0.610788
vt 0.240573 0.478620
vt 0.382098 0.478984
vt 0.312614 0.610773
vt 0.240561 0.478618
vt 0.382089 0.478982
vt 0.312613 0.610763
vt 0.382054 0.478984
vt 0.240576 0.478633
vt 0.312599 0.610744
vt 0.382054 0.478984
vt 0.240576 0.478633
vt 0.312599 0.610744
vt 0.382054 0.478984
vt 0.240576 0.478633
vt 0.312599 0.610744
vt 0.382054 0.478984
vt 0.240576 0.478633
vt 0.312599 0.610745
vt 0.382054 0.478984
vt 0.240576 0.478633
vt 0.312599 0.610745
vt 0.382054 0.478984
vt 0.240576 0.478633
vt 0.312599 0.610745
vt 0.382054 0.478984
vt 0.240576 0.478633
vt 0.312599 0.610744
vt 0.382054 0.478984
vt 0.240576 0.478633
vt 0.312599 0.610744
vt 0.382054 0.478984
vt 0.240576 0.478633
vt 0.312599 0.610744
vt 0.240574 0.478614
vt 0.382085 0.478985
vt 0.312604 0.610765
vt 0.240584 0.478616
vt 0.382060 0.478984
vt 0.312603 0.610755
vt 0.240540 0.478612
vt 0.382071 0.478983
vt 0.312594 0.610753
vt 0.240576 0.478633
vt 0.312599 0.610745
vt 0.382054 0.478984
vt 0.240578 0.478633
vt 0.312599 0.610744
vt 0.382054 0.478984
vt 0.240576 0.478633
vt 0.312599 0.610744
vt 0.382054 0.478984
vt 0.240576 0.478633
vt 0.312599 0.610744
vt 0.193147 0.652792
vn -0.63404 0.77048 -0.06604
vn -0.70516 0.69571 -0.13687
vn -0.00000 0.99388 -0.11049
vn -0.00000 0.99947 -0.03250
vn -0.66016 0.74848 0.06299
vn -0.63915 0.76905 -0.00630
vn -0.00000 0.99966 -0.02595
vn -0.00000 0.99889 0.04704
vn -0.91189 0.38372 0.14567
vn -0.84860 0.51050 -0.13877
vn -0.86668 -0.15679 0.47358
vn -0.87571 0.48160 0.03448
vn -0.87810 0.12601 -0.46158
vn -0.44836 -0.79884 -0.40104
vn -0.53003 -0.36052 -0.76753
vn -0.26971 -0.94661 -0.17659
vn 0.00000 -0.97541 -0.22039
vn 0.00000 -0.99913 -0.04173
vn -0.44859 -0.89364 -0.01323
vn 0.00000 -0.99424 -0.10717
vn -0.00000 -0.99172 -0.12838
vn -0.46040 -0.88179 -0.10240
vn -0.01648 0.98578 0.16722
vn -0.70268 0.68916 0.17690
vn -0.98958 0.14176 -0.02519
vn -0.80665 -0.59102 -0.00280
vn -0.84474 -0.52823 -0.08593
vn -0.96911 0.22004 -0.11136
vn -0.66237 0.74917 -0.00317
vn -0.64805 0.76052 -0.04043
vn 0.00000 0.99778 -0.06660
vn -0.00000 0.99816 -0.06062
vn -0.30908 -0.93548 0.17133
vn 0.00000 -0.98005 0.19875
vn -0.00000 -0.99238 0.12322
vn -0.37659 -0.92185 0.09153
vn -0.75790 -0.64886 0.06756
vn -0.99271 0.10826 0.05291
vn -0.93954 0.27411 -0.20524
vn -0.45116 -0.87710 -0.16478
vn -0.65564 0.75464 -0.02579
vn -0.68535 0.72483 -0.07009
vn -0.86077 0.21203 0.46273
vn -0.00000 -1.00000 0.00270
vn -0.41621 -0.90912 -0.01660
vn -0.00728 0.98495 0.17268
vn 0.00000 0.99457 0.10409
vn -0.96222 0.24481 0.11919
vn -0.95599 0.20621 0.20871
vn -0.74387 -0.65798 0.11711
vn -0.76105 -0.63527 0.13126
vn -0.90996 0.40466 0.09072
vn -0.70268 0.68916 0.17690
vn -0.01648 0.98578 0.16722
vn -0.64484 -0.73489 0.21002
vn -0.30310 -0.85018 0.43050
vn -0.86077 0.21203 0.46273
vn 0.00045 -0.98278 0.18477
vn 0.00049 -0.97617 0.21701
vn 0.00000 -0.99049 0.13758
vn 0.00000 0.99834 0.05753
vn -0.00000 0.96761 0.25246
vn -0.98591 0.06647 0.15348
vn -0.72241 -0.68667 -0.08127
vn -0.00000 -0.99470 0.10282
vn -0.00000 -0.93730 -0.34851
vn -0.94644 0.25009 0.20422
vn -0.85813 0.28957 0.42398
vn -0.99155 -0.01304 0.12909
vn -0.99850 0.01320 0.05314
vn -0.73318 -0.58740 -0.34266
vn -0.64273 -0.65659 -0.39470
vn 0.00000 -0.82593 -0.56377
vn 0.00000 -0.84260 -0.53854
vn -0.00000 0.68825 0.72548
vn -0.96100 0.12583 0.24626
vn -0.78553 -0.57137 -0.23763
vn 0.00000 -0.91023 -0.41411
vn -0.96841 0.11832 0.21951
vn -0.64460 -0.75250 -0.13508
vn -0.95124 0.02752 0.30722
vn 0.00000 0.86074 0.50904
vn 0.00000 -0.11189 0.99372
vn -0.00000 0.94809 -0.31800
vn 0.00000 0.92899 -0.37011
vn -0.98743 0.15686 0.01938
vn -0.00000 0.90224 -0.43124
vn -0.98041 0.04432 0.19190
vn -0.00000 0.29755 0.95471
vn -0.92330 0.15477 0.35151
vn 0.00000 0.99859 -0.05309
vn -0.17948 -0.96356 0.19835
vn -0.30310 -0.85018 0.43050
vn 0.00049 -0.97617 0.21701
vn 0.00000 -0.97540 0.22045
vn 0.00000 -0.99938 0.03507
vn -0.00000 0.99792 0.06448
vn 0.17187 -0.95981 -0.22188
vn -0.03386 -0.84951 0.52649
vn 0.12639 0.73030 0.67133
vn 0.03996 0.07767 0.99618
vn -0.72563 0.68279 0.08520
vn -0.70273 -0.58498 0.40493
vn -0.77242 -0.22749 -0.59297
vn 0.62457 -0.77186 0.11891
vn -0.87571 0.48160 0.03448
vn -0.86668 -0.15679 0.47358
vn 0.25296 0.23313 0.93897
vn -0.69794 0.69519 -0.17201
vn -0.53003 -0.36052 -0.76753
vn 0.03350 -0.70083 -0.71254
vn 0.52777 -0.81964 0.22283
vn 0.17187 -0.95981 -0.22188
vn -0.53003 -0.36052 -0.76753
vn 0.03350 -0.70083 -0.71254
vn -0.77242 -0.22749 -0.59297
vn -0.03386 -0.84951 0.52649
vn -0.82078 0.56523 0.08270
vn 0.00000 -0.97951 -0.20137
vn 0.00000 0.35604 0.93447
vn -0.70273 -0.58498 0.40493
vn -0.00000 0.81814 0.57502
vn -0.00000 0.90489 -0.42564
vn -0.99716 0.06061 0.04477
vn -0.99543 0.04709 0.08309
vn 0.00000 0.93678 -0.34993
vn -0.00000 0.44586 0.89510
vn 0.00000 -0.72356 0.69026
vn 0.00000 -0.56314 0.82636
vn -0.29638 0.09262 0.95057
vn -0.85392 0.52036 0.00631
vn -0.57839 -0.40913 -0.70575
vn 0.10732 -0.98220 0.15418
vn 0.17655 0.83099 0.52752
vn 0.10595 0.55724 0.82357
vn -0.92823 0.36217 0.08501
vn -0.50232 -0.55012 0.66712
vn -0.57491 -0.80614 -0.14006
vn 0.89869 -0.42144 0.12140
vn -0.89947 0.42707 -0.09254
vn -0.08315 -0.73805 -0.66960
vn -0.57839 -0.40913 -0.70575
vn -0.85392 0.52036 0.00631
vn -0.12193 0.82643 0.54969
vn -0.29638 0.09262 0.95057
vn 0.92303 -0.38425 -0.01932
vn -0.72901 -0.56494 -0.38650
vn -0.57491 -0.80614 -0.14006
vn 0.83584 -0.54376 0.07550
vn 0.19173 0.91802 0.34710
vn -0.72901 -0.56494 -0.38650
vn -0.88301 0.46895 -0.01959
vn -0.50232 -0.55012 0.66712
vn -0.57839 -0.40913 -0.70575
vn -0.08315 -0.73805 -0.66960
vn 0.10732 -0.98220 0.15418
vn -0.90270 0.29020 -0.31768
vn -0.80832 0.52830 -0.25987
vn -0.87074 0.42811 -0.24195
vn -0.85179 0.51827 -0.07645
vn -0.76054 0.57199 -0.30725
vn -0.80520 0.55511 -0.20859
vn -0.78892 0.53772 -0.29742
vn -0.84873 0.43379 -0.30246
vn -0.62969 -0.54434 -0.55425
vn -0.61341 -0.37189 -0.69672
vn -0.86761 -0.10701 -0.48560
vn -0.69056 -0.57333 -0.44093
vn -0.95656 -0.24726 -0.15444
vn -0.57715 -0.79173 -0.20017
vn -0.60895 -0.75646 -0.23862
vn -0.85205 -0.40746 -0.32861
vn -0.92333 -0.13625 -0.35902
vn -0.86828 -0.24523 -0.43122
vn -0.71580 -0.59319 -0.36845
vn -0.72619 -0.60403 -0.32831
vn 0.00000 -0.97991 -0.19942
vn 0.00000 -0.95041 -0.31100
vn -0.59735 0.40373 -0.69295
vn -0.00000 0.57276 -0.81972
vn -0.00000 0.85485 -0.51887
vn -0.51137 0.78447 -0.35087
vn -0.63198 0.33270 -0.69993
vn -0.00000 0.34675 -0.93796
vn -0.76211 0.54836 -0.34424
vn -0.79681 0.52947 -0.29113
vn -0.92117 0.25853 -0.29089
vn -0.91699 0.18677 -0.35249
vn -0.94060 0.30091 -0.15723
vn -0.99203 0.12239 0.02990
vn -0.81431 0.23203 -0.53204
vn -0.68385 0.56105 -0.46644
vn -0.37661 0.92547 -0.04083
vn -0.53500 0.80729 -0.24913
vn -0.00000 0.98800 -0.15445
vn -0.00000 0.98348 -0.18103
vn -0.00000 0.99811 0.06143
vn -0.77483 0.62857 0.06732
vn -0.62200 0.78269 0.02259
vn -0.00000 0.99964 -0.02681
vn 0.00000 -0.95810 -0.28643
vn -0.95635 0.14094 -0.25598
vn -0.91399 0.28671 -0.28709
vn -0.48409 0.73637 -0.47267
vn -0.52187 0.75830 -0.39068
vn -0.00000 0.93320 -0.35935
vn -0.00000 0.91528 -0.40283
vn -0.90591 0.41451 0.08665
vn 0.00000 -0.95415 -0.29933
vn -0.60424 0.78826 -0.11636
vn -0.76301 0.55243 -0.33561
vn -0.70516 0.69571 -0.13687
vn -0.00000 0.99388 -0.11049
vn -0.99661 0.07677 0.02949
vn -0.87810 0.12601 -0.46158
vn -0.87539 0.47717 -0.07744
vn -0.33401 0.78000 -0.52919
vn -0.00000 0.94791 -0.31854
vn 0.00000 0.98030 -0.19754
vn -0.87695 -0.48054 0.00547
vn -0.70715 -0.70704 -0.00627
vn -0.44836 -0.79884 -0.40104
vn -0.46234 0.79257 -0.39759
vn -0.50921 -0.85271 -0.11655
vn -0.00000 0.97980 -0.19997
vn -0.48190 0.83736 -0.25807
vn -0.00000 -0.94943 -0.31397
vn 0.00000 -0.69759 -0.71650
vn -0.00000 0.89879 -0.43838
vn 0.36979 -0.42132 -0.82810
vn 0.00000 -0.50517 -0.86302
vn 0.00000 -0.99677 -0.08031
vn 0.13497 -0.98753 -0.08107
vn 0.15372 -0.98624 0.06078
vn 0.13243 -0.99119 -0.00071
vn 0.00000 -0.99991 0.01317
vn 0.00000 -0.99732 0.07318
vn 0.18550 -0.97806 0.09484
vn 0.16903 -0.97991 0.10582
vn 0.00000 -0.99517 0.09813
vn 0.00000 -0.99671 0.08107
vn 0.36973 0.92331 0.10387
vn -0.00000 0.98780 0.15574
vn -0.00000 0.99933 0.03648
vn 0.30334 0.94986 0.07589
vn -0.00000 0.99999 0.00518
vn 0.22554 0.97292 0.05057
vn -0.00000 0.99989 0.01478
vn 0.14629 0.98853 0.03757
vn 0.00000 0.92824 -0.37199
vn 0.35564 0.90682 0.22629
vn 0.00000 0.96468 0.26343
vn 0.00000 -0.98231 -0.18728
vn 0.00000 -0.54473 -0.83861
vn 0.00000 -0.99913 -0.04173
vn 0.00000 -0.99813 0.06105
vn -0.56298 0.78693 -0.25258
vn -0.78396 0.55221 -0.28366
vn -0.52402 0.66794 -0.52844
vn -0.63876 0.46620 -0.61209
vn -0.82429 0.31508 -0.47039
vn -0.94127 0.30877 -0.13664
vn -0.90016 0.42225 0.10680
vn -0.75292 0.65715 0.03556
vn -0.78009 -0.15600 -0.60591
vn -0.78009 -0.15600 -0.60591
vn -0.78009 -0.15600 -0.60591
vn -0.74852 -0.12496 -0.65123
vn -0.74852 -0.12496 -0.65123
vn -0.74852 -0.12496 -0.65123
vn -0.52181 -0.06812 -0.85034
vn -0.52181 -0.06812 -0.85034
vn -0.52181 -0.06812 -0.85034
vn -0.97526 -0.13904 -0.17188
vn -0.97526 -0.13904 -0.17188
vn -0.97526 -0.13904 -0.17188
vn -0.96965 -0.12944 -0.20742
vn -0.96965 -0.12944 -0.20742
vn -0.96965 -0.12944 -0.20742
vn -0.96198 -0.05659 -0.26719
vn -0.96198 -0.05659 -0.26719
vn -0.96198 -0.05659 -0.26719
vn -0.94920 0.00550 -0.31462
vn -0.94920 0.00550 -0.31462
vn -0.94920 0.00550 -0.31462
vn -0.94386 -0.17384 -0.28091
vn -0.94386 -0.17384 -0.28091
vn -0.94386 -0.17384 -0.28091
vn -0.94045 -0.17529 -0.29124
vn -0.94045 -0.17529 -0.29124
vn -0.94045 -0.17529 -0.29124
vn -0.96053 -0.18260 -0.20984
vn -0.96053 -0.18260 -0.20984
vn -0.96053 -0.18260 -0.20984
vn -0.93116 0.10561 -0.34898
vn -0.93116 0.10561 -0.34898
vn -0.93116 0.10561 -0.34898
vn -0.93465 0.04657 -0.35250
vn -0.93465 0.04657 -0.35250
vn -0.93465 0.04657 -0.35250
vn -0.93203 0.09105 -0.35077
vn -0.93203 0.09105 -0.35077
vn -0.93203 0.09105 -0.35077
vn -0.93255 -0.03850 -0.35898
vn -0.93255 -0.03850 -0.35898
vn -0.93255 -0.03850 -0.35898
vn -0.97889 -0.10575 -0.17491
vn -0.97889 -0.10575 -0.17491
vn -0.97889 -0.10575 -0.17491
vn -0.85890 -0.04287 -0.51035
vn -0.85890 -0.04287 -0.51035
vn -0.85890 -0.04287 -0.51035
vn -0.94971 0.06645 -0.30601
vn -0.94971 0.06645 -0.30601
vn -0.94971 0.06645 -0.30601
vn -0.90874 0.02532 -0.41658
vn -0.90874 0.02532 -0.41658
vn -0.90874 0.02532 -0.41658
vn -0.91223 -0.03810 -0.40790
vn -0.91223 -0.03810 -0.40790
vn -0.91223 -0.03810 -0.40790
vn -0.96329 -0.18489 -0.19463
vn -0.96329 -0.18489 -0.19463
vn -0.96329 -0.18489 -0.19463
vn -0.97332 0.06863 0.21894
vn -0.97332 0.06863 0.21894
vn -0.97332 0.06863 0.21894
vn -0.95441 -0.07822 -0.28808
vn -0.95441 -0.07822 -0.28808
vn -0.95441 -0.07822 -0.28808
vn -0.48577 -0.00401 -0.87408
vn 0.00000 -0.00458 -0.99999
vn -0.48577 -0.00401 -0.87408
vn -0.85674 0.01124 -0.51563
vn -0.85674 0.01124 -0.51563
vn -0.85674 0.01124 -0.51563
vn -0.93202 0.09104 -0.35078
vn -0.93202 0.09104 -0.35078
vn -0.93202 0.09104 -0.35078
vn -0.96743 -0.11392 0.22605
vn -0.96743 -0.11392 0.22605
vn -0.96743 -0.11392 0.22605
vn 0.00000 -0.40159 0.91582
vn 0.63404 0.77048 -0.06604
vn -0.00000 0.99947 -0.03250
vn -0.00000 0.99388 -0.11049
vn 0.70516 0.69571 -0.13687
vn 0.65423 0.75439 0.05357
vn -0.00000 0.99889 0.04704
vn -0.00000 0.99966 -0.02595
vn 0.63915 0.76905 -0.00630
vn 0.91189 0.38372 0.14567
vn 0.84860 0.51050 -0.13877
vn 0.87571 0.48160 0.03448
vn 0.86668 -0.15679 0.47358
vn 0.87810 0.12601 -0.46158
vn 0.44836 -0.79884 -0.40104
vn 0.53003 -0.36052 -0.76753
vn 0.00000 -0.99913 -0.04173
vn 0.00000 -0.97541 -0.22039
vn 0.26971 -0.94661 -0.17659
vn 0.00000 -0.99424 -0.10717
vn 0.44859 -0.89364 -0.01323
vn -0.00000 -0.99172 -0.12838
vn 0.46040 -0.88179 -0.10240
vn 0.68813 0.70561 0.16907
vn -0.01648 0.98578 0.16722
vn 0.98958 0.14176 -0.02519
vn 0.96911 0.22004 -0.11136
vn 0.84474 -0.52823 -0.08593
vn 0.80665 -0.59102 -0.00280
vn 0.66237 0.74917 -0.00317
vn -0.00000 0.99816 -0.06062
vn 0.00000 0.99778 -0.06660
vn 0.64805 0.76052 -0.04043
vn 0.30908 -0.93548 0.17133
vn 0.37659 -0.92185 0.09153
vn -0.00000 -0.99238 0.12322
vn 0.00000 -0.98005 0.19875
vn 0.75790 -0.64886 0.06756
vn 0.45116 -0.87710 -0.16478
vn 0.93954 0.27411 -0.20524
vn 0.99271 0.10826 0.05291
vn 0.68535 0.72483 -0.07009
vn 0.65564 0.75464 -0.02579
vn 0.85884 0.21690 0.46406
vn 0.41621 -0.90912 -0.01660
vn -0.00000 -1.00000 0.00270
vn -0.00728 0.98495 0.17268
vn 0.95523 0.20463 0.21369
vn 0.96222 0.24481 0.11919
vn 0.00000 0.99457 0.10409
vn 0.74387 -0.65798 0.11711
vn 0.90996 0.40466 0.09072
vn 0.76105 -0.63527 0.13126
vn 0.68813 0.70561 0.16907
vn -0.01648 0.98578 0.16722
vn 0.65033 -0.72849 0.21535
vn 0.85884 0.21690 0.46406
vn 0.30693 -0.84223 0.44322
vn 0.00049 -0.97617 0.21701
vn 0.00045 -0.98278 0.18477
vn 0.00000 -0.99049 0.13758
vn 0.00000 0.99834 0.05753
vn 0.98591 0.06647 0.15348
vn -0.00000 0.96761 0.25246
vn 0.72241 -0.68667 -0.08127
vn -0.00000 -0.99470 0.10282
vn -0.00000 -0.93730 -0.34851
vn 0.94644 0.25009 0.20422
vn 0.99850 0.01320 0.05314
vn 0.99155 -0.01304 0.12909
vn 0.85813 0.28957 0.42398
vn 0.64273 -0.65659 -0.39470
vn 0.73318 -0.58740 -0.34266
vn 0.00000 -0.82593 -0.56377
vn 0.00000 -0.84260 -0.53854
vn 0.96100 0.12583 0.24626
vn -0.00000 0.68825 0.72548
vn 0.78553 -0.57137 -0.23763
vn 0.00000 -0.91023 -0.41411
vn 0.64460 -0.75250 -0.13508
vn 0.96841 0.11832 0.21951
vn 0.95124 0.02752 0.30722
vn 0.00000 -0.11189 0.99372
vn 0.00000 0.86074 0.50904
vn 0.98743 0.15686 0.01938
vn 0.00000 0.92899 -0.37011
vn -0.00000 0.94809 -0.31800
vn -0.00000 0.90224 -0.43124
vn 0.98041 0.04432 0.19190
vn 0.92330 0.15477 0.35151
vn -0.00000 0.29755 0.95471
vn 0.00000 0.99859 -0.05309
vn 0.17848 -0.96199 0.20671
vn 0.00000 -0.97540 0.22045
vn 0.00049 -0.97617 0.21701
vn 0.30693 -0.84223 0.44322
vn 0.00000 -0.99938 0.03507
vn -0.00000 0.99792 0.06448
vn -0.17187 -0.95981 -0.22188
vn 0.03386 -0.84951 0.52649
vn -0.12639 0.73030 0.67133
vn 0.72563 0.68279 0.08520
vn -0.03996 0.07767 0.99618
vn 0.70273 -0.58498 0.40493
vn 0.77242 -0.22749 -0.59297
vn -0.62457 -0.77186 0.11891
vn 0.87571 0.48160 0.03448
vn 0.69794 0.69519 -0.17201
vn -0.25296 0.23313 0.93897
vn 0.86668 -0.15679 0.47358
vn 0.53003 -0.36052 -0.76753
vn -0.03350 -0.70083 -0.71254
vn -0.52777 -0.81964 0.22283
vn -0.17187 -0.95981 -0.22188
vn -0.03350 -0.70083 -0.71254
vn 0.53003 -0.36052 -0.76753
vn 0.77242 -0.22749 -0.59297
vn 0.03386 -0.84951 0.52649
vn 0.82078 0.56523 0.08270
vn 0.00000 -0.97951 -0.20137
vn 0.00000 0.35604 0.93447
vn 0.70273 -0.58498 0.40493
vn -0.00000 0.81814 0.57502
vn 0.99716 0.06061 0.04477
vn -0.00000 0.90489 -0.42564
vn 0.99543 0.04709 0.08309
vn -0.00000 0.44586 0.89510
vn 0.00000 0.93678 -0.34993
vn 0.00000 -0.56314 0.82636
vn 0.00000 -0.72356 0.69026
vn 0.29638 0.09262 0.95057
vn 0.85392 0.52036 0.00631
vn 0.57839 -0.40913 -0.70575
vn -0.10905 -0.98035 0.16437
vn -0.17655 0.83099 0.52752
vn 0.92823 0.36217 0.08501
vn -0.10595 0.55724 0.82357
vn 0.50232 -0.55012 0.66712
vn 0.57491 -0.80614 -0.14006
vn -0.89869 -0.42144 0.12140
vn 0.89947 0.42707 -0.09254
vn 0.85392 0.52036 0.00631
vn 0.57839 -0.40913 -0.70575
vn 0.08315 -0.73805 -0.66960
vn 0.12193 0.82643 0.54969
vn 0.29638 0.09262 0.95057
vn 0.57491 -0.80614 -0.14006
vn 0.72901 -0.56494 -0.38650
vn -0.92303 -0.38425 -0.01932
vn -0.19173 0.91802 0.34710
vn -0.83584 -0.54376 0.07550
vn 0.72901 -0.56494 -0.38650
vn 0.88301 0.46895 -0.01959
vn 0.50232 -0.55012 0.66712
vn 0.57839 -0.40913 -0.70575
vn -0.10905 -0.98035 0.16437
vn 0.08315 -0.73805 -0.66960
vn 0.90270 0.29020 -0.31768
vn 0.87074 0.42811 -0.24195
vn 0.80832 0.52830 -0.25987
vn 0.85179 0.51827 -0.07645
vn 0.76054 0.57199 -0.30725
vn 0.80520 0.55511 -0.20859
vn 0.78892 0.53772 -0.29742
vn 0.84873 0.43380 -0.30246
vn 0.62969 -0.54433 -0.55425
vn 0.69056 -0.57333 -0.44093
vn 0.86761 -0.10701 -0.48560
vn 0.61341 -0.37189 -0.69672
vn 0.95656 -0.24726 -0.15444
vn 0.85205 -0.40746 -0.32861
vn 0.60895 -0.75646 -0.23862
vn 0.57715 -0.79173 -0.20017
vn 0.92333 -0.13625 -0.35902
vn 0.72619 -0.60403 -0.32830
vn 0.71580 -0.59319 -0.36845
vn 0.86828 -0.24523 -0.43122
vn 0.00000 -0.95041 -0.31100
vn 0.00000 -0.97991 -0.19942
vn 0.59735 0.40373 -0.69295
vn 0.51136 0.78447 -0.35087
vn -0.00000 0.85485 -0.51887
vn -0.00000 0.57276 -0.81972
vn -0.00000 0.34675 -0.93796
vn 0.63198 0.33270 -0.69993
vn 0.76211 0.54836 -0.34424
vn 0.91699 0.18677 -0.35249
vn 0.92117 0.25853 -0.29089
vn 0.79681 0.52947 -0.29113
vn 0.94060 0.30091 -0.15723
vn 0.99203 0.12239 0.02990
vn 0.68385 0.56105 -0.46644
vn 0.81431 0.23203 -0.53204
vn 0.37661 0.92547 -0.04083
vn -0.00000 0.98348 -0.18103
vn -0.00000 0.98800 -0.15445
vn 0.53500 0.80729 -0.24913
vn -0.00000 0.99811 0.06143
vn -0.00000 0.99964 -0.02681
vn 0.62200 0.78269 0.02259
vn 0.77483 0.62857 0.06732
vn 0.00000 -0.95810 -0.28643
vn 0.91399 0.28671 -0.28709
vn 0.95635 0.14094 -0.25598
vn 0.48409 0.73637 -0.47266
vn -0.00000 0.91528 -0.40283
vn -0.00000 0.93320 -0.35935
vn 0.52187 0.75830 -0.39068
vn 0.90591 0.41451 0.08665
vn 0.00000 -0.95415 -0.29933
vn 0.60424 0.78826 -0.11636
vn 0.76301 0.55243 -0.33561
vn 0.70516 0.69571 -0.13687
vn -0.00000 0.99388 -0.11049
vn 0.99661 0.07677 0.02949
vn 0.87810 0.12601 -0.46158
vn 0.87539 0.47718 -0.07744
vn -0.00000 0.94791 -0.31854
vn 0.33400 0.78000 -0.52919
vn 0.00000 0.98030 -0.19754
vn 0.87695 -0.48054 0.00547
vn 0.70715 -0.70704 -0.00627
vn 0.44836 -0.79884 -0.40104
vn 0.46234 0.79257 -0.39759
vn 0.50921 -0.85271 -0.11655
vn 0.48190 0.83736 -0.25807
vn -0.00000 0.97980 -0.19997
vn 0.00000 -0.69759 -0.71650
vn -0.00000 -0.94943 -0.31397
vn -0.00000 0.89879 -0.43838
vn -0.36979 -0.42132 -0.82810
vn -0.13497 -0.98753 -0.08107
vn -0.15372 -0.98624 0.06078
vn -0.13242 -0.99119 -0.00071
vn -0.18550 -0.97806 0.09484
vn -0.16903 -0.97991 0.10582
vn -0.36973 0.92331 0.10387
vn -0.30334 0.94986 0.07589
vn -0.22554 0.97292 0.05057
vn -0.14629 0.98853 0.03757
vn -0.35564 0.90682 0.22629
vn 0.00000 -0.98231 -0.18728
vn 0.00000 -0.54473 -0.83861
vn 0.00000 -0.99913 -0.04173
vn 0.00000 -0.99813 0.06105
vn 0.56298 0.78693 -0.25258
vn 0.52402 0.66794 -0.52845
vn 0.78396 0.55221 -0.28366
vn 0.63876 0.46620 -0.61209
vn 0.82429 0.31508 -0.47039
vn 0.94127 0.30877 -0.13664
vn 0.90016 0.42225 0.10680
vn 0.75292 0.65715 0.03556
vn 0.78009 -0.15600 -0.60591
vn 0.78009 -0.15600 -0.60591
vn 0.78009 -0.15600 -0.60591
vn 0.74852 -0.12496 -0.65123
vn 0.74852 -0.12496 -0.65123
vn 0.74852 -0.12496 -0.65123
vn 0.52181 -0.06812 -0.85033
vn 0.52181 -0.06812 -0.85033
vn 0.52181 -0.06812 -0.85033
vn 0.97526 -0.13904 -0.17188
vn 0.97526 -0.13904 -0.17188
vn 0.97526 -0.13904 -0.17188
vn 0.96965 -0.12944 -0.20742
vn 0.96965 -0.12944 -0.20742
vn 0.96965 -0.12944 -0.20742
vn 0.96198 -0.05659 -0.26718
vn 0.96198 -0.05659 -0.26718
vn 0.96198 -0.05659 -0.26718
vn 0.94920 0.00550 -0.31461
vn 0.94920 0.00550 -0.31461
vn 0.94920 0.00550 -0.31461
vn 0.94386 -0.17384 -0.28091
vn 0.94386 -0.17384 -0.28091
vn 0.94386 -0.17384 -0.28091
vn 0.94045 -0.17529 -0.29124
vn 0.94045 -0.17529 -0.29124
vn 0.94045 -0.17529 -0.29124
vn 0.96053 -0.18260 -0.20984
vn 0.96053 -0.18260 -0.20984
vn 0.96053 -0.18260 -0.20984
vn 0.93116 0.10561 -0.34898
vn 0.93116 0.10561 -0.34898
vn 0.93116 0.10561 -0.34898
vn 0.93465 0.04657 -0.35250
vn 0.93465 0.04657 -0.35250
vn 0.93465 0.04657 -0.35250
vn 0.93203 0.09105 -0.35077
vn 0.93203 0.09105 -0.35077
vn 0.93203 0.09105 -0.35077
vn 0.93255 -0.03850 -0.35898
vn 0.93255 -0.03850 -0.35898
vn 0.93255 -0.03850 -0.35898
vn 0.97889 -0.10575 -0.17491
vn 0.97889 -0.10575 -0.17491
vn 0.97889 -0.10575 -0.17491
vn 0.85890 -0.04287 -0.51035
vn 0.85890 -0.04287 -0.51035
vn 0.85890 -0.04287 -0.51035
vn 0.94971 0.06645 -0.30601
vn 0.94971 0.06645 -0.30601
vn 0.94971 0.06645 -0.30601
vn 0.90875 0.02532 -0.41658
vn 0.90875 0.02532 -0.41658
vn 0.90875 0.02532 -0.41658
vn 0.91223 -0.03810 -0.40790
vn 0.91223 -0.03810 -0.40790
vn 0.91223 -0.03810 -0.40790
vn 0.96329 -0.18489 -0.19463
vn 0.96329 -0.18489 -0.19463
vn 0.96329 -0.18489 -0.19463
vn 0.97332 0.06863 0.21894
vn 0.97332 0.06863 0.21894
vn 0.97332 0.06863 0.21894
vn 0.95441 -0.07822 -0.28808
vn 0.95441 -0.07822 -0.28808
vn 0.95441 -0.07822 -0.28808
vn 0.48577 -0.00401 -0.87408
vn 0.48577 -0.00401 -0.87408
vn 0.85674 0.01124 -0.51563
vn 0.85674 0.01124 -0.51563
vn 0.85674 0.01124 -0.51563
vn 0.93202 0.09104 -0.35078
vn 0.93202 0.09104 -0.35078
vn 0.93202 0.09104 -0.35078
vn 0.96743 -0.11392 0.22605
vn 0.96743 -0.11392 0.22605
vn 0.96743 -0.11392 0.22605
vn 0.00000 -0.40159 0.91582
f 246/246/246 244/244/244 580/580/580
f 580/580/580 581/581/581 246/246/246
f 245/245/245 244/244/244 246/246/246
f 244/244/244 245/245/245 242/242/242
f 244/244/244 243/243/243 579/579/579
f 579/579/579 580/580/580 244/244/244
f 242/242/242 243/243/243 244/244/244
f 243/243/243 242/242/242 251/251/251
f 243/243/243 252/252/252 583/583/583
f 583/583/583 579/579/579 243/243/243
f 251/251/251 252/252/252 243/243/243
f 573/573/573 574/574/574 232/232/232
f 232/232/232 574/574/574 576/576/576
f 576/576/576 236/236/236 232/232/232
f 232/232/232 236/236/236 235/235/235
f 235/235/235 233/233/233 232/232/232
f 236/236/236 576/576/576 575/575/575
f 575/575/575 237/237/237 236/236/236
f 236/236/236 237/237/237 234/234/234
f 234/234/234 235/235/235 236/236/236
f 237/237/237 575/575/575 578/578/578
f 578/578/578 240/240/240 237/237/237
f 237/237/237 240/240/240 239/239/239
f 239/239/239 234/234/234 237/237/237
f 240/240/240 578/578/578 577/577/577
f 577/577/577 241/241/241 240/240/240
f 240/240/240 241/241/241 238/238/238
f 238/238/238 239/239/239 240/240/240
f 457/457/457 455/455/455 448/448/448
f 448/448/448 459/459/459 457/457/457
f 455/455/455 451/451/451 448/448/448
f 457/457/457 458/458/458 456/456/456
f 456/456/456 455/455/455 457/457/457
f 455/455/455 456/456/456 460/460/460
f 460/460/460 451/451/451 455/455/455
f 460/460/460 452/452/452 451/451/451
f 451/451/451 452/452/452 449/449/449
f 105/105/105 116/116/116 121/121/121
f 105/105/105 115/115/115 116/116/116
f 112/112/112 105/105/105 108/108/108
f 115/115/115 112/112/112 113/113/113
f 113/113/113 114/114/114 115/115/115
f 112/112/112 108/108/108 117/117/117
f 117/117/117 113/113/113 112/112/112
f 117/117/117 108/108/108 107/107/107
f 106/106/106 107/107/107 108/108/108
f 670/670/670 671/671/671 672/672/672
f 340/340/340 341/341/341 342/342/342
f 656/656/656 657/657/657 658/658/658
f 325/325/325 326/326/326 327/327/327
f 483/483/483 486/486/486 494/494/494
f 484/484/484 483/483/483 487/487/487
f 485/485/485 486/486/486 483/483/483
f 483/483/483 484/484/484 485/485/485
f 488/488/488 487/487/487 493/493/493
f 491/491/491 493/493/493 487/487/487
f 487/487/487 488/488/488 484/484/484
f 491/491/491 490/490/490 499/499/499
f 499/499/499 493/493/493 491/491/491
f 490/490/490 491/491/491 482/482/482
f 493/493/493 498/498/498 488/488/488
f 493/493/493 499/499/499 497/497/497
f 497/497/497 498/498/498 493/493/493
f 482/482/482 496/496/496 489/489/489
f 479/479/479 496/496/496 482/482/482
f 482/482/482 489/489/489 490/490/490
f 52/52/52 61/61/61 62/62/62
f 60/60/60 51/51/51 50/50/50
f 50/50/50 65/65/65 60/60/60
f 65/65/65 50/50/50 64/64/64
f 63/63/63 64/64/64 50/50/50
f 55/55/55 51/51/51 60/60/60
f 60/60/60 58/58/58 55/55/55
f 58/58/58 59/59/59 56/56/56
f 56/56/56 55/55/55 58/58/58
f 55/55/55 56/56/56 57/57/57
f 66/66/66 64/64/64 72/72/72
f 70/70/70 72/72/72 64/64/64
f 64/64/64 63/63/63 70/70/70
f 64/64/64 66/66/66 65/65/65
f 72/72/72 73/73/73 66/66/66
f 73/73/73 72/72/72 71/71/71
f 71/71/71 72/72/72 70/70/70
f 62/62/62 67/67/67 70/70/70
f 70/70/70 63/63/63 62/62/62
f 70/70/70 69/69/69 71/71/71
f 69/69/69 70/70/70 67/67/67
f 74/74/74 71/71/71 77/77/77
f 394/394/394 405/405/405 406/406/406
f 403/403/403 408/408/408 393/393/393
f 393/393/393 395/395/395 403/403/403
f 407/407/407 393/393/393 408/408/408
f 393/393/393 407/407/407 405/405/405
f 403/403/403 395/395/395 398/398/398
f 398/398/398 402/402/402 403/403/403
f 402/402/402 398/398/398 400/400/400
f 399/399/399 400/400/400 398/398/398
f 400/400/400 401/401/401 402/402/402
f 414/414/414 407/407/407 409/409/409
f 411/411/411 405/405/405 407/407/407
f 407/407/407 414/414/414 411/411/411
f 408/408/408 409/409/409 407/407/407
f 409/409/409 416/416/416 414/414/414
f 415/415/415 414/414/414 416/416/416
f 411/411/411 414/414/414 415/415/415
f 406/406/406 405/405/405 411/411/411
f 411/411/411 410/410/410 406/406/406
f 415/415/415 412/412/412 411/411/411
f 410/410/410 411/411/411 412/412/412
f 420/420/420 415/415/415 417/417/417
f 427/427/427 673/673/673 471/471/471
f 471/471/471 466/466/466 427/427/427
f 673/673/673 427/427/427 431/431/431
f 467/467/467 428/428/428 427/427/427
f 427/427/427 466/466/466 467/467/467
f 431/431/431 427/427/427 430/430/430
f 427/427/427 429/429/429 430/430/430
f 427/427/427 428/428/428 429/429/429
f 431/431/431 433/433/433 673/673/673
f 431/431/431 432/432/432 433/433/433
f 432/432/432 463/463/463 433/433/433
f 470/470/470 467/467/467 466/466/466
f 466/466/466 468/468/468 470/470/470
f 468/468/468 469/469/469 470/470/470
f 87/87/87 84/84/84 86/86/86
f 84/84/84 85/85/85 86/86/86
f 88/88/88 87/87/87 86/86/86
f 86/86/86 124/124/124 129/129/129
f 129/129/129 343/343/343 86/86/86
f 88/88/88 86/86/86 343/343/343
f 123/123/123 124/124/124 86/86/86
f 86/86/86 85/85/85 123/123/123
f 343/343/343 89/89/89 88/88/88
f 88/88/88 89/89/89 90/90/90
f 90/90/90 89/89/89 120/120/120
f 124/124/124 123/123/123 126/126/126
f 126/126/126 125/125/125 124/124/124
f 128/128/128 129/129/129 124/124/124
f 147/147/147 148/148/148 139/139/139
f 139/139/139 146/146/146 147/147/147
f 146/146/146 149/149/149 155/155/155
f 155/155/155 147/147/147 146/146/146
f 144/144/144 149/149/149 146/146/146
f 145/145/145 156/156/156 149/149/149
f 149/149/149 144/144/144 145/145/145
f 149/149/149 156/156/156 154/154/154
f 154/154/154 155/155/155 149/149/149
f 143/143/143 145/145/145 144/144/144
f 144/144/144 140/140/140 143/143/143
f 142/142/142 143/143/143 140/140/140
f 152/152/152 140/140/140 144/144/144
f 140/140/140 152/152/152 151/151/151
f 151/151/151 141/141/141 140/140/140
f 140/140/140 141/141/141 142/142/142
f 365/365/365 387/387/387 371/371/371
f 364/364/364 388/388/388 387/387/387
f 380/380/380 371/371/371 387/387/387
f 387/387/387 377/377/377 380/380/380
f 377/377/377 387/387/387 388/388/388
f 371/371/371 380/380/380 383/383/383
f 383/383/383 368/368/368 371/371/371
f 384/384/384 369/369/369 368/368/368
f 368/368/368 375/375/375 384/384/384
f 375/375/375 368/368/368 383/383/383
f 372/372/372 383/383/383 382/382/382
f 383/383/383 372/372/372 375/375/375
f 382/382/382 383/383/383 380/380/380
f 376/376/376 381/381/381 380/380/380
f 380/380/380 377/377/377 376/376/376
f 380/380/380 381/381/381 382/382/382
f 388/388/388 378/378/378 377/377/377
f 376/376/376 377/377/377 378/378/378
f 436/436/436 435/435/435 376/376/376
f 376/376/376 379/379/379 436/436/436
f 381/381/381 376/376/376 435/435/435
f 26/26/26 45/45/45 22/22/22
f 45/45/45 44/44/44 21/21/21
f 37/37/37 36/36/36 45/45/45
f 45/45/45 26/26/26 37/37/37
f 44/44/44 45/45/45 36/36/36
f 26/26/26 25/25/25 38/38/38
f 38/38/38 37/37/37 26/26/26
f 42/42/42 30/30/30 25/25/25
f 25/25/25 28/28/28 42/42/42
f 38/38/38 25/25/25 30/30/30
f 39/39/39 38/38/38 29/29/29
f 30/30/30 29/29/29 38/38/38
f 37/37/37 38/38/38 39/39/39
f 33/33/33 36/36/36 37/37/37
f 37/37/37 40/40/40 33/33/33
f 39/39/39 40/40/40 37/37/37
f 36/36/36 35/35/35 44/44/44
f 35/35/35 36/36/36 33/33/33
f 95/95/95 34/34/34 33/33/33
f 33/33/33 92/92/92 95/95/95
f 92/92/92 33/33/33 40/40/40
f 450/450/450 444/444/444 443/443/443
f 443/443/443 451/451/451 450/450/450
f 451/451/451 443/443/443 448/448/448
f 443/443/443 445/445/445 448/448/448
f 443/443/443 444/444/444 445/445/445
f 450/450/450 454/454/454 447/447/447
f 447/447/447 444/444/444 450/450/450
f 450/450/450 449/449/449 453/453/453
f 453/453/453 454/454/454 450/450/450
f 449/449/449 450/450/450 451/451/451
f 444/444/444 446/446/446 445/445/445
f 446/446/446 444/444/444 447/447/447
f 445/445/445 464/464/464 448/448/448
f 448/448/448 464/464/464 459/459/459
f 109/109/109 108/108/108 100/100/100
f 100/100/100 102/102/102 109/109/109
f 108/108/108 105/105/105 100/100/100
f 100/100/100 105/105/105 101/101/101
f 100/100/100 101/101/101 102/102/102
f 109/109/109 102/102/102 104/104/104
f 104/104/104 111/111/111 109/109/109
f 109/109/109 111/111/111 110/110/110
f 110/110/110 106/106/106 109/109/109
f 108/108/108 109/109/109 106/106/106
f 102/102/102 101/101/101 103/103/103
f 103/103/103 104/104/104 102/102/102
f 101/101/101 105/105/105 121/121/121
f 115/115/115 105/105/105 112/112/112
f 33/33/33 34/34/34 35/35/35
f 40/40/40 133/133/133 92/92/92
f 40/40/40 39/39/39 132/132/132
f 132/132/132 133/133/133 40/40/40
f 133/133/133 93/93/93 92/92/92
f 94/94/94 95/95/95 92/92/92
f 92/92/92 93/93/93 94/94/94
f 130/130/130 93/93/93 133/133/133
f 43/43/43 93/93/93 130/130/130
f 118/118/118 43/43/43 130/130/130
f 130/130/130 131/131/131 118/118/118
f 5/5/5 43/43/43 118/118/118
f 5/5/5 24/24/24 43/43/43
f 39/39/39 118/118/118 131/131/131
f 39/39/39 5/5/5 118/118/118
f 131/131/131 132/132/132 39/39/39
f 29/29/29 6/6/6 39/39/39
f 6/6/6 5/5/5 39/39/39
f 23/23/23 24/24/24 5/5/5
f 5/5/5 8/8/8 23/23/23
f 7/7/7 8/8/8 5/5/5
f 5/5/5 6/6/6 7/7/7
f 32/32/32 7/7/7 6/6/6
f 6/6/6 29/29/29 32/32/32
f 31/31/31 32/32/32 29/29/29
f 29/29/29 30/30/30 31/31/31
f 91/91/91 31/31/31 30/30/30
f 30/30/30 42/42/42 91/91/91
f 378/378/378 379/379/379 376/376/376
f 435/435/435 476/476/476 381/381/381
f 381/381/381 476/476/476 475/475/475
f 475/475/475 382/382/382 381/381/381
f 476/476/476 435/435/435 438/438/438
f 437/437/437 438/438/438 435/435/435
f 435/435/435 436/436/436 437/437/437
f 473/473/473 476/476/476 438/438/438
f 386/386/386 473/473/473 438/438/438
f 461/461/461 474/474/474 473/473/473
f 473/473/473 386/386/386 461/461/461
f 348/348/348 461/461/461 386/386/386
f 348/348/348 386/386/386 366/366/366
f 474/474/474 461/461/461 382/382/382
f 382/382/382 461/461/461 348/348/348
f 382/382/382 475/475/475 474/474/474
f 382/382/382 351/351/351 372/372/372
f 351/351/351 382/382/382 348/348/348
f 367/367/367 349/349/349 348/348/348
f 348/348/348 366/366/366 367/367/367
f 350/350/350 351/351/351 348/348/348
f 348/348/348 349/349/349 350/350/350
f 373/373/373 372/372/372 351/351/351
f 351/351/351 350/350/350 373/373/373
f 374/374/374 375/375/375 372/372/372
f 372/372/372 373/373/373 374/374/374
f 375/375/375 374/374/374 434/434/434
f 434/434/434 384/384/384 375/375/375
f 412/412/412 415/415/415 420/420/420
f 416/416/416 417/417/417 415/415/415
f 420/420/420 418/418/418 412/412/412
f 413/413/413 412/412/412 418/418/418
f 412/412/412 413/413/413 410/410/410
f 422/422/422 420/420/420 421/421/421
f 423/423/423 418/418/418 420/420/420
f 420/420/420 422/422/422 423/423/423
f 417/417/417 421/421/421 420/420/420
f 419/419/419 418/418/418 423/423/423
f 418/418/418 419/419/419 413/413/413
f 423/423/423 465/465/465 419/419/419
f 424/424/424 423/423/423 422/422/422
f 465/465/465 423/423/423 424/424/424
f 439/439/439 422/422/422 462/462/462
f 422/422/422 439/439/439 424/424/424
f 421/421/421 462/462/462 422/422/422
f 424/424/424 426/426/426 465/465/465
f 424/424/424 439/439/439 425/425/425
f 424/424/424 425/425/425 426/426/426
f 77/77/77 71/71/71 69/69/69
f 71/71/71 74/74/74 73/73/73
f 69/69/69 76/76/76 77/77/77
f 76/76/76 69/69/69 68/68/68
f 67/67/67 68/68/68 69/69/69
f 78/78/78 77/77/77 80/80/80
f 79/79/79 80/80/80 77/77/77
f 77/77/77 76/76/76 79/79/79
f 77/77/77 78/78/78 74/74/74
f 79/79/79 76/76/76 75/75/75
f 68/68/68 75/75/75 76/76/76
f 75/75/75 122/122/122 79/79/79
f 80/80/80 79/79/79 81/81/81
f 81/81/81 79/79/79 122/122/122
f 96/96/96 119/119/119 80/80/80
f 81/81/81 96/96/96 80/80/80
f 80/80/80 119/119/119 78/78/78
f 122/122/122 82/82/82 81/81/81
f 81/81/81 83/83/83 96/96/96
f 81/81/81 82/82/82 83/83/83
f 532/532/532 512/512/512 533/533/533
f 564/564/564 557/557/557 563/563/563
f 558/558/558 557/557/557 564/564/564
f 555/555/555 543/543/543 557/557/557
f 557/557/557 558/558/558 555/555/555
f 540/540/540 543/543/543 555/555/555
f 555/555/555 556/556/556 540/540/540
f 564/564/564 565/565/565 558/558/558
f 587/587/587 564/564/564 567/567/567
f 564/564/564 587/587/587 586/586/586
f 586/586/586 565/565/565 564/564/564
f 563/563/563 567/567/567 564/564/564
f 515/515/515 567/567/567 563/563/563
f 512/512/512 515/515/515 563/563/563
f 567/567/567 584/584/584 587/587/587
f 552/552/552 584/584/584 567/567/567
f 567/567/567 515/515/515 552/552/552
f 521/521/521 552/552/552 515/515/515
f 515/515/515 514/514/514 521/521/521
f 514/514/514 515/515/515 512/512/512
f 520/520/520 521/521/521 514/514/514
f 440/440/440 345/345/345 344/344/344
f 344/344/344 385/385/385 440/440/440
f 347/347/347 356/356/356 344/344/344
f 344/344/344 352/352/352 385/385/385
f 356/356/356 353/353/353 344/344/344
f 352/352/352 344/344/344 353/353/353
f 346/346/346 347/347/347 344/344/344
f 344/344/344 345/345/345 346/346/346
f 434/434/434 440/440/440 385/385/385
f 385/385/385 384/384/384 434/434/434
f 385/385/385 352/352/352 369/369/369
f 369/369/369 384/384/384 385/385/385
f 369/369/369 352/352/352 355/355/355
f 354/354/354 355/355/355 352/352/352
f 389/389/389 397/397/397 396/396/396
f 396/396/396 390/390/390 389/389/389
f 391/391/391 392/392/392 389/389/389
f 389/389/389 390/390/390 391/391/391
f 396/396/396 399/399/399 390/390/390
f 390/390/390 398/398/398 395/395/395
f 395/395/395 391/391/391 390/390/390
f 398/398/398 390/390/390 399/399/399
f 392/392/392 391/391/391 394/394/394
f 391/391/391 395/395/395 393/393/393
f 393/393/393 394/394/394 391/391/391
f 394/394/394 404/404/404 392/392/392
f 405/405/405 394/394/394 393/393/393
f 406/406/406 404/404/404 394/394/394
f 46/46/46 49/49/49 53/53/53
f 53/53/53 54/54/54 46/46/46
f 48/48/48 49/49/49 46/46/46
f 46/46/46 47/47/47 48/48/48
f 49/49/49 48/48/48 51/51/51
f 51/51/51 55/55/55 49/49/49
f 53/53/53 49/49/49 57/57/57
f 57/57/57 49/49/49 55/55/55
f 52/52/52 48/48/48 47/47/47
f 48/48/48 52/52/52 50/50/50
f 50/50/50 51/51/51 48/48/48
f 47/47/47 61/61/61 52/52/52
f 50/50/50 52/52/52 63/63/63
f 62/62/62 63/63/63 52/52/52
f 97/97/97 41/41/41 1/1/1
f 1/1/1 4/4/4 97/97/97
f 2/2/2 1/1/1 13/13/13
f 1/1/1 41/41/41 9/9/9
f 13/13/13 1/1/1 10/10/10
f 9/9/9 10/10/10 1/1/1
f 3/3/3 4/4/4 1/1/1
f 1/1/1 2/2/2 3/3/3
f 41/41/41 97/97/97 91/91/91
f 91/91/91 42/42/42 41/41/41
f 41/41/41 42/42/42 28/28/28
f 28/28/28 9/9/9 41/41/41
f 11/11/11 9/9/9 28/28/28
f 12/12/12 10/10/10 9/9/9
f 9/9/9 11/11/11 12/12/12
f 13/13/13 10/10/10 12/12/12
f 12/12/12 15/15/15 13/13/13
f 14/14/14 13/13/13 15/15/15
f 16/16/16 14/14/14 15/15/15
f 15/15/15 98/98/98 16/16/16
f 17/17/17 18/18/18 14/14/14
f 14/14/14 16/16/16 17/17/17
f 16/16/16 98/98/98 99/99/99
f 99/99/99 19/19/19 16/16/16
f 20/20/20 17/17/17 16/16/16
f 16/16/16 19/19/19 20/20/20
f 19/19/19 99/99/99 11/11/11
f 19/19/19 11/11/11 27/27/27
f 27/27/27 22/22/22 19/19/19
f 19/19/19 22/22/22 21/21/21
f 21/21/21 20/20/20 19/19/19
f 28/28/28 27/27/27 11/11/11
f 22/22/22 27/27/27 26/26/26
f 27/27/27 28/28/28 25/25/25
f 25/25/25 26/26/26 27/27/27
f 21/21/21 22/22/22 45/45/45
f 352/352/352 353/353/353 354/354/354
f 354/354/354 353/353/353 356/356/356
f 356/356/356 358/358/358 354/354/354
f 357/357/357 358/358/358 356/356/356
f 361/361/361 441/441/441 358/358/358
f 358/358/358 357/357/357 361/361/361
f 360/360/360 361/361/361 357/357/357
f 357/357/357 359/359/359 360/360/360
f 361/361/361 363/363/363 442/442/442
f 442/442/442 441/441/441 361/361/361
f 362/362/362 363/363/363 361/361/361
f 361/361/361 360/360/360 362/362/362
f 363/363/363 355/355/355 442/442/442
f 363/363/363 365/365/365 370/370/370
f 370/370/370 355/355/355 363/363/363
f 363/363/363 362/362/362 364/364/364
f 364/364/364 365/365/365 363/363/363
f 355/355/355 370/370/370 369/369/369
f 371/371/371 370/370/370 365/365/365
f 370/370/370 371/371/371 368/368/368
f 368/368/368 369/369/369 370/370/370
f 387/387/387 365/365/365 364/364/364
f 506/506/506 553/553/553 507/507/507
f 506/506/506 507/507/507 502/502/502
f 537/537/537 536/536/536 553/553/553
f 536/536/536 537/537/537 538/538/538
f 553/553/553 562/562/562 537/537/537
f 506/506/506 559/559/559 553/553/553
f 562/562/562 553/553/553 542/542/542
f 542/542/542 553/553/553 559/559/559
f 532/532/532 559/559/559 506/506/506
f 506/506/506 504/504/504 532/532/532
f 506/506/506 502/502/502 504/504/504
f 533/533/533 551/551/551 559/559/559
f 559/559/559 532/532/532 533/533/533
f 559/559/559 551/551/551 542/542/542
f 542/542/542 541/541/541 562/562/562
f 542/542/542 551/551/551 543/543/543
f 542/542/542 543/543/543 540/540/540
f 540/540/540 541/541/541 542/542/542
f 551/551/551 557/557/557 543/543/543
f 551/551/551 533/533/533 557/557/557
f 533/533/533 563/563/563 557/557/557
f 563/563/563 533/533/533 512/512/512
f 124/124/124 125/125/125 128/128/128
f 125/125/125 126/126/126 127/127/127
f 127/127/127 128/128/128 125/125/125
f 478/478/478 477/477/477 492/492/492
f 492/492/492 477/477/477 482/482/482
f 477/477/477 479/479/479 482/482/482
f 477/477/477 478/478/478 479/479/479
f 492/492/492 495/495/495 478/478/478
f 478/478/478 495/495/495 494/494/494
f 494/494/494 481/481/481 478/478/478
f 478/478/478 480/480/480 479/479/479
f 480/480/480 478/478/478 481/481/481
f 482/482/482 491/491/491 492/492/492
f 495/495/495 492/492/492 487/487/487
f 487/487/487 492/492/492 491/491/491
f 487/487/487 483/483/483 495/495/495
f 494/494/494 495/495/495 483/483/483
f 605/605/605 606/606/606 607/607/607
f 274/274/274 275/275/275 276/276/276
f 638/638/638 639/639/639 640/640/640
f 307/307/307 308/308/308 309/309/309
f 169/169/169 190/190/190 220/220/220
f 171/171/171 172/172/172 169/169/169
f 169/169/169 170/170/170 171/171/171
f 216/216/216 208/208/208 190/190/190
f 208/208/208 214/214/214 190/190/190
f 190/190/190 214/214/214 220/220/220
f 170/170/170 220/220/220 224/224/224
f 221/221/221 224/224/224 220/220/220
f 220/220/220 214/214/214 221/221/221
f 209/209/209 170/170/170 224/224/224
f 177/177/177 171/171/171 170/170/170
f 170/170/170 209/209/209 177/177/177
f 172/172/172 171/171/171 175/175/175
f 178/178/178 175/175/175 171/171/171
f 171/171/171 177/177/177 178/178/178
f 175/175/175 174/174/174 172/172/172
f 201/201/201 176/176/176 175/175/175
f 175/175/175 178/178/178 201/201/201
f 175/175/175 176/176/176 173/173/173
f 173/173/173 174/174/174 175/175/175
f 168/168/168 176/176/176 201/201/201
f 201/201/201 227/227/227 168/168/168
f 173/173/173 176/176/176 168/168/168
f 168/168/168 167/167/167 173/173/173
f 165/165/165 168/168/168 227/227/227
f 167/167/167 168/168/168 165/165/165
f 227/227/227 228/228/228 165/165/165
f 166/166/166 165/165/165 228/228/228
f 165/165/165 166/166/166 167/167/167
f 228/228/228 254/254/254 166/166/166
f 224/224/224 253/253/253 209/209/209
f 256/256/256 253/253/253 224/224/224
f 224/224/224 221/221/221 256/256/256
f 255/255/255 256/256/256 221/221/221
f 221/221/221 222/222/222 255/255/255
f 215/215/215 222/222/222 221/221/221
f 221/221/221 214/214/214 215/215/215
f 208/208/208 198/198/198 214/214/214
f 212/212/212 215/215/215 214/214/214
f 214/214/214 198/198/198 212/212/212
f 199/199/199 208/208/208 216/216/216
f 199/199/199 198/198/198 208/208/208
f 472/472/472 468/468/468 466/466/466
f 466/466/466 471/471/471 472/472/472
f 469/469/469 468/468/468 472/472/472
f 231/231/231 230/230/230 250/250/250
f 250/250/250 230/230/230 249/249/249
f 232/232/232 233/233/233 230/230/230
f 230/230/230 231/231/231 232/232/232
f 231/231/231 250/250/250 573/573/573
f 232/232/232 231/231/231 573/573/573
f 250/250/250 248/248/248 582/582/582
f 582/582/582 573/573/573 250/250/250
f 249/249/249 248/248/248 250/250/250
f 248/248/248 249/249/249 247/247/247
f 248/248/248 246/246/246 581/581/581
f 581/581/581 582/582/582 248/248/248
f 247/247/247 246/246/246 248/248/248
f 246/246/246 247/247/247 245/245/245
f 608/608/608 609/609/609 610/610/610
f 277/277/277 278/278/278 279/279/279
f 653/653/653 654/654/654 655/655/655
f 322/322/322 323/323/323 324/324/324
f 212/212/212 198/198/198 197/197/197
f 197/197/197 198/198/198 199/199/199
f 197/197/197 213/213/213 212/212/212
f 199/199/199 200/200/200 197/197/197
f 219/219/219 200/200/200 199/199/199
f 199/199/199 210/210/210 219/219/219
f 216/216/216 210/210/210 199/199/199
f 163/163/163 210/210/210 216/216/216
f 196/196/196 219/219/219 210/210/210
f 210/210/210 193/193/193 196/196/196
f 164/164/164 193/193/193 210/210/210
f 163/163/163 164/164/164 210/210/210
f 163/163/163 158/158/158 164/164/164
f 163/163/163 161/161/161 158/158/158
f 195/195/195 196/196/196 193/193/193
f 623/623/623 624/624/624 625/625/625
f 292/292/292 293/293/293 294/294/294
f 150/150/150 134/134/134 136/136/136
f 139/139/139 134/134/134 150/150/150
f 134/134/134 139/139/139 135/135/135
f 134/134/134 135/135/135 136/136/136
f 136/136/136 152/152/152 150/150/150
f 150/150/150 146/146/146 139/139/139
f 144/144/144 150/150/150 152/152/152
f 146/146/146 150/150/150 144/144/144
f 136/136/136 138/138/138 151/151/151
f 151/151/151 152/152/152 136/136/136
f 136/136/136 135/135/135 137/137/137
f 137/137/137 138/138/138 136/136/136
f 135/135/135 139/139/139 153/153/153
f 139/139/139 148/148/148 153/153/153
f 611/611/611 612/612/612 613/613/613
f 280/280/280 281/281/281 282/282/282
f 617/617/617 618/618/618 619/619/619
f 286/286/286 287/287/287 288/288/288
f 620/620/620 621/621/621 622/622/622
f 289/289/289 290/290/290 291/291/291
f 659/659/659 660/660/660 661/661/661
f 328/328/328 329/329/329 330/330/330
f 644/644/644 645/645/645 646/646/646
f 313/313/313 314/314/314 315/315/315
f 501/501/501 500/500/500 539/539/539
f 539/539/539 500/500/500 507/507/507
f 507/507/507 500/500/500 502/502/502
f 500/500/500 501/501/501 502/502/502
f 539/539/539 561/561/561 501/501/501
f 547/547/547 501/501/501 561/561/561
f 501/501/501 547/547/547 554/554/554
f 554/554/554 503/503/503 501/501/501
f 501/501/501 503/503/503 502/502/502
f 560/560/560 539/539/539 538/538/538
f 539/539/539 560/560/560 561/561/561
f 507/507/507 536/536/536 539/539/539
f 538/538/538 539/539/539 536/536/536
f 507/507/507 553/553/553 536/536/536
f 595/595/595 588/588/588 590/590/590
f 588/588/588 589/589/589 590/590/590
f 594/594/594 595/595/595 590/590/590
f 590/590/590 591/591/591 592/592/592
f 593/593/593 594/594/594 590/590/590
f 592/592/592 593/593/593 590/590/590
f 589/589/589 591/591/591 590/590/590
f 264/264/264 258/258/258 257/257/257
f 257/257/257 258/258/258 259/259/259
f 263/263/263 258/258/258 264/264/264
f 258/258/258 261/261/261 260/260/260
f 262/262/262 258/258/258 263/263/263
f 261/261/261 258/258/258 262/262/262
f 259/259/259 258/258/258 260/260/260
f 614/614/614 615/615/615 616/616/616
f 283/283/283 284/284/284 285/285/285
f 207/207/207 218/218/218 217/217/217
f 205/205/205 204/204/204 211/211/211
f 206/206/206 207/207/207 204/204/204
f 204/204/204 205/205/205 206/206/206
f 211/211/211 186/186/186 205/205/205
f 162/162/162 203/203/203 211/211/211
f 211/211/211 160/160/160 162/162/162
f 186/186/186 211/211/211 203/203/203
f 158/158/158 162/162/162 160/160/160
f 203/203/203 162/162/162 161/161/161
f 161/161/161 162/162/162 158/158/158
f 161/161/161 189/189/189 203/203/203
f 187/187/187 203/203/203 202/202/202
f 203/203/203 187/187/187 186/186/186
f 202/202/202 203/203/203 189/189/189
f 205/205/205 186/186/186 185/185/185
f 185/185/185 186/186/186 187/187/187
f 187/187/187 188/188/188 185/185/185
f 185/185/185 226/226/226 223/223/223
f 226/226/226 185/185/185 192/192/192
f 185/185/185 223/223/223 205/205/205
f 191/191/191 192/192/192 185/185/185
f 626/626/626 627/627/627 628/628/628
f 295/295/295 296/296/296 297/297/297
f 635/635/635 636/636/636 637/637/637
f 304/304/304 305/305/305 306/306/306
f 629/629/629 630/630/630 631/631/631
f 298/298/298 299/299/299 300/300/300
f 632/632/632 633/633/633 634/634/634
f 301/301/301 302/302/302 303/303/303
f 667/667/667 668/668/668 669/669/669
f 337/337/337 338/338/338 339/339/339
f 194/194/194 157/157/157 159/159/159
f 164/164/164 157/157/157 194/194/194
f 164/164/164 158/158/158 157/157/157
f 157/157/157 158/158/158 159/159/159
f 218/218/218 195/195/195 194/194/194
f 159/159/159 217/217/217 194/194/194
f 194/194/194 217/217/217 218/218/218
f 194/194/194 193/193/193 164/164/164
f 193/193/193 194/194/194 195/195/195
f 204/204/204 217/217/217 159/159/159
f 159/159/159 160/160/160 211/211/211
f 211/211/211 204/204/204 159/159/159
f 159/159/159 158/158/158 160/160/160
f 217/217/217 204/204/204 207/207/207
f 650/650/650 651/651/651 652/652/652
f 319/319/319 320/320/320 321/321/321
f 647/647/647 648/648/648 649/649/649
f 316/316/316 317/317/317 318/318/318
f 185/185/185 188/188/188 191/191/191
f 229/229/229 223/223/223 226/226/226
f 226/226/226 225/225/225 229/229/229
f 192/192/192 182/182/182 226/226/226
f 225/225/225 226/226/226 182/182/182
f 205/205/205 223/223/223 229/229/229
f 229/229/229 206/206/206 205/205/205
f 182/182/182 181/181/181 225/225/225
f 179/179/179 182/182/182 192/192/192
f 181/181/181 182/182/182 179/179/179
f 179/179/179 192/192/192 191/191/191
f 191/191/191 183/183/183 179/179/179
f 184/184/184 180/180/180 179/179/179
f 179/179/179 183/183/183 184/184/184
f 179/179/179 180/180/180 181/181/181
f 189/189/189 169/169/169 202/202/202
f 190/190/190 189/189/189 216/216/216
f 189/189/189 161/161/161 163/163/163
f 163/163/163 216/216/216 189/189/189
f 189/189/189 190/190/190 169/169/169
f 220/220/220 170/170/170 169/169/169
f 518/518/518 514/514/514 513/513/513
f 514/514/514 518/518/518 520/520/520
f 512/512/512 513/513/513 514/514/514
f 546/546/546 512/512/512 532/532/532
f 530/530/530 546/546/546 545/545/545
f 532/532/532 545/545/545 546/546/546
f 545/545/545 532/532/532 504/504/504
f 554/554/554 545/545/545 505/505/505
f 504/504/504 505/505/505 545/545/545
f 545/545/545 554/554/554 531/531/531
f 531/531/531 530/530/530 545/545/545
f 530/530/530 531/531/531 528/528/528
f 528/528/528 529/529/529 530/530/530
f 550/550/550 531/531/531 554/554/554
f 528/528/528 531/531/531 550/550/550
f 554/554/554 547/547/547 550/550/550
f 505/505/505 503/503/503 554/554/554
f 502/502/502 503/503/503 505/505/505
f 504/504/504 502/502/502 505/505/505
f 548/548/548 547/547/547 561/561/561
f 549/549/549 550/550/550 547/547/547
f 547/547/547 548/548/548 549/549/549
f 550/550/550 549/549/549 572/572/572
f 572/572/572 566/566/566 550/550/550
f 550/550/550 566/566/566 528/528/528
f 572/572/572 569/569/569 568/568/568
f 568/568/568 566/566/566 572/572/572
f 528/528/528 566/566/566 568/568/568
f 568/568/568 523/523/523 534/534/534
f 534/534/534 528/528/528 568/568/568
f 523/523/523 568/568/568 569/569/569
f 569/569/569 524/524/524 523/523/523
f 522/522/522 534/534/534 523/523/523
f 522/522/522 523/523/523 524/524/524
f 535/535/535 534/534/534 522/522/522
f 528/528/528 534/534/534 535/535/535
f 535/535/535 529/529/529 528/528/528
f 522/522/522 527/527/527 535/535/535
f 526/526/526 527/527/527 522/522/522
f 522/522/522 525/525/525 526/526/526
f 524/524/524 525/525/525 522/522/522
f 561/561/561 560/560/560 548/548/548
f 513/513/513 519/519/519 518/518/518
f 518/518/518 519/519/519 516/516/516
f 544/544/544 520/520/520 518/518/518
f 518/518/518 517/517/517 544/544/544
f 516/516/516 517/517/517 518/518/518
f 516/516/516 510/510/510 509/509/509
f 509/509/509 517/517/517 516/516/516
f 544/544/544 517/517/517 509/509/509
f 509/509/509 571/571/571 544/544/544
f 571/571/571 509/509/509 508/508/508
f 508/508/508 509/509/509 510/510/510
f 510/510/510 511/511/511 508/508/508
f 570/570/570 508/508/508 511/511/511
f 508/508/508 570/570/570 571/571/571
f 664/664/664 665/665/665 666/666/666
f 334/334/334 335/335/335 336/336/336
f 641/641/641 642/642/642 643/643/643
f 310/310/310 311/311/311 312/312/312
f 596/596/596 597/597/597 598/598/598
f 265/265/265 266/266/266 267/267/267
f 599/599/599 600/600/600 601/601/601
f 268/268/268 269/269/269 270/270/270
f 511/511/511 585/585/585 570/570/570
f 602/602/602 603/603/603 604/604/604
f 271/271/271 272/272/272 273/273/273
f 331/331/331 332/332/332 333/333/333
f 662/662/662 663/663/663 332/332/332
