# enchodus_ad_a reconstructed from live game memory
v 9.80103 35.25817 -4.49463
v 9.30933 37.47712 0.18924
v 8.96907 38.68327 -5.40862
v 9.19727 35.49184 -7.95584
v 8.40649 39.67246 9.58321
v 8.75014 41.78307 0.51466
v 4.45223 47.54768 9.29447
v 4.28143 48.23794 0.54652
v 2.95142 34.18189 -27.67175
v 4.31126 31.29019 -18.23113
v 6.28727 35.42010 -16.85144
v 4.35400 35.80115 -27.67224
v 6.27052 36.82056 -16.81136
v 3.88183 36.09949 -27.54961
v 2.40969 38.75288 42.71512
v 1.52677 41.60082 42.70700
v 1.98335 42.56293 37.42070
v 3.40370 38.80248 37.36233
v 3.43042 45.09180 26.45251
v 5.61338 39.27116 26.50929
v 3.12622 35.85132 -30.15857
v 2.65179 36.12401 -30.15187
v 0.00000 30.29457 -18.37591
v -0.00000 33.24829 -27.47429
v 8.25750 35.24915 -13.22793
v 5.59558 30.20482 -11.20856
v 0.00000 28.69987 -11.46423
v 0.00000 46.28648 30.55445
v 0.90283 46.09668 29.56335
v 0.00000 43.82263 37.54857
v 0.33783 53.80951 22.82671
v 2.32837 48.54441 19.16943
v 0.44360 53.45273 23.57412
v 0.51127 52.24871 25.77855
v 3.12328 35.75189 37.58340
v 2.07654 33.62460 37.85761
v 1.37448 34.36344 42.66106
v 2.31055 35.99910 42.63390
v 7.21875 39.36756 18.83904
v 4.07480 46.36209 18.98475
v -0.00000 26.60914 9.67543
v 1.25708 27.13000 19.22359
v 4.99464 29.85564 19.20916
v 5.81055 28.75903 9.81612
v 6.99106 33.77685 18.99326
v 8.42575 33.38376 9.77257
v 0.21913 57.88115 14.25489
v 0.00000 60.59919 15.43179
v 0.13875 58.44930 13.63731
v 1.42878 47.04593 26.51173
v 1.72290 50.12646 10.89428
v 1.25073 50.59546 5.32300
v 0.48956 50.52362 29.01645
v 0.40430 51.78186 26.59039
v 0.27085 56.67086 16.24675
v 0.45113 56.41884 17.17828
v 0.35474 54.90353 20.98919
v 0.27432 55.20241 20.03176
v 3.46251 30.85497 26.41326
v 5.33165 34.46936 26.46644
v 0.87712 28.27145 26.13993
v 10.20044 34.65918 -2.72272
v 10.01709 33.11792 -1.43060
v 10.53735 33.67720 -2.69800
v 9.77081 33.74328 -7.95117
v 9.89954 34.46790 -7.44385
v 7.08081 39.71582 -17.56409
v 8.49222 42.23664 -4.78500
v 6.31250 44.19089 -18.34036
v 6.67944 42.81826 -19.65762
v 8.96907 38.68327 -5.40862
v 9.19727 35.49184 -7.95584
v 1.62432 38.75676 50.35545
v 1.63746 36.06153 50.23270
v 1.23218 35.16243 50.32396
v 5.59116 37.22298 -18.78052
v 2.90585 36.33536 -27.55052
v 2.90585 36.33536 -27.55052
v 5.59116 37.22298 -18.78052
v 0.00000 37.22298 -18.78052
v -0.00000 35.80567 -30.21119
v 2.00219 36.21955 -29.24817
v -0.00000 35.80567 -30.21119
v -0.00000 36.02725 -31.25247
v -0.00000 35.81799 -31.54565
v 10.53735 33.67720 -2.69800
v 10.20044 34.65918 -2.72272
v 11.44104 34.23901 -3.51221
v 11.44550 33.64136 -3.48535
v 9.80103 35.25817 -4.49463
v 11.18669 34.78784 -6.06989
v 10.77081 33.52663 -7.10374
v 10.73364 34.18506 -7.19482
v 9.89954 34.46790 -7.44385
v 9.77081 33.74328 -7.95117
v 9.99048 32.54492 -5.76500
v 11.03387 32.80473 -5.73251
v 8.30298 34.11543 -9.90723
v 9.24243 31.99512 -5.99036
v 9.99048 32.54492 -5.76500
v 4.11277 42.78284 -25.94701
v 5.77584 41.68374 -23.56418
v 5.88243 42.73147 -23.07269
v 4.45288 44.00870 -24.34328
v 6.66675 40.53259 -19.35132
v 6.59174 38.52456 -19.39574
v 6.74384 46.46852 -5.52655
v 4.82282 45.91824 -18.25783
v 0.00000 47.68710 -19.85599
v 3.35889 47.07616 -19.89315
v 4.38219 48.49008 -6.60251
v 0.00000 49.29830 -7.00261
v 4.15583 44.56254 -21.50703
v 4.43774 41.59118 -28.03442
v 5.94662 40.14081 -24.21290
v 8.30298 34.11543 -9.90723
v 12.49469 33.64505 -3.22168
v 12.46658 34.11434 -3.24951
v 10.53735 33.67720 -2.69800
v 12.48086 34.57369 -5.92000
v 12.47850 34.32990 -7.65110
v 12.47297 33.52686 -7.52696
v 12.47014 33.16235 -5.68779
v 11.44550 33.64136 -3.48535
v 12.49469 33.64505 -3.22168
v 19.25329 33.24561 -3.72931
v 20.46021 33.61768 -6.06390
v 20.51937 34.36719 -5.78491
v 19.17828 34.42787 -3.19898
v 17.41933 34.22021 -0.34598
v 17.45422 33.83960 -0.39429
v 17.45422 33.83960 -0.39429
v 2.92525 46.27421 -23.09554
v -0.00000 50.92363 4.79648
v 0.00000 49.87453 -0.00306
v 0.00000 58.78405 13.42166
v 0.46631 48.51387 30.07564
v 0.21032 49.40680 30.34977
v 0.00000 48.58442 30.87851
v 2.00219 36.21955 -29.24817
v 6.12898 29.00694 -0.13959
v 5.35889 29.36047 -6.41005
v 1.30269 32.22600 37.98911
v 0.00000 33.23933 42.71592
v 0.95337 41.06201 50.27667
v 0.00000 42.48963 42.70856
v -0.00000 41.55414 50.23969
v -0.00000 34.25270 50.25962
v 0.79343 30.84387 38.91260
v 0.49185 26.27250 28.36529
v 0.00000 31.19188 41.13031
v 0.00000 46.46412 -23.32541
v 5.50887 38.17049 -19.80660
v 0.00000 43.29540 -28.59404
v 0.00000 42.05999 -30.81982
v 0.28041 25.85806 12.94353
v 0.00000 28.69987 -11.46423
v 0.00000 27.87630 -6.66563
v 5.59558 30.20482 -11.20856
v 0.00000 27.03718 -0.15364
v 0.00000 28.23069 25.24757
v 0.00000 26.06909 27.22363
v 0.23209 22.50797 32.14902
v 0.45812 27.68238 41.27093
v -0.00000 27.40158 20.31631
v -0.00000 27.03375 19.93262
v 0.44360 21.08400 18.00498
v 0.39392 21.84762 23.02104
v -0.00000 21.60851 23.58730
v -0.00000 20.69146 17.70464
v 0.00000 21.65383 32.14874
v 0.00000 28.84011 41.97319
v 3.85254 41.08288 -28.12793
v 5.16141 39.64326 -24.27880
v 0.00000 41.49200 -30.68945
v 0.00000 41.08288 -28.12793
v 3.85254 41.08288 -28.12793
v 0.00000 41.49200 -30.68945
v 0.00000 27.14108 41.63108
v 0.72555 35.20717 52.19251
v -0.00000 34.49805 51.85776
v 1.39904 38.58080 52.95540
v 0.71264 41.16584 52.27665
v -0.00000 41.69528 52.08942
v 0.71264 41.16584 52.27665
v 0.63464 46.23775 58.69508
v -0.00000 47.13881 58.22207
v -0.00000 41.69528 52.08942
v 1.39904 38.58080 52.95540
v 0.86938 38.41645 58.60667
v 0.72555 35.20717 52.19251
v 0.90718 31.43374 58.38099
v -0.00000 34.49805 51.85776
v -0.00000 30.40455 57.67662
v -0.00000 49.84570 64.18806
v -0.00000 51.47660 63.74907
v 0.51933 49.69206 62.98758
v -0.00000 38.26553 61.68515
v 0.44280 38.25918 60.76106
v 0.46752 28.10699 63.15757
v -0.00000 27.59338 64.37875
v 0.60876 27.03704 63.11279
v -0.00000 26.61686 64.52123
v 0.00000 57.19911 16.21279
v 0.00000 57.96075 14.74132
v 4.38219 48.49008 -6.60251
v 0.00000 49.29830 -7.00261
v 0.00000 59.07172 18.16658
v 0.00000 56.55697 17.70639
v 0.00000 55.51064 20.00181
v 0.00000 57.24923 21.55172
v 0.00000 54.16906 22.80168
v 0.00000 55.10156 21.32522
v 24.44539 34.07446 -3.79601
v 21.29982 34.04126 -1.62820
v 24.87878 33.70971 -4.33349
v 23.53982 33.66746 -4.88967
v 24.72852 33.91504 -3.75073
v 21.48853 33.77063 -1.41235
v 21.48853 33.77063 -1.41235
v 22.63202 33.49878 -3.34787
v 24.72852 33.91504 -3.75073
v 24.39783 33.76123 -4.00915
v 0.00000 55.53650 24.39453
v 0.00000 52.58296 25.78595
v 0.00000 53.53679 24.04314
v 0.00000 53.86777 27.42466
v 0.34609 50.28672 29.48314
v 0.00000 49.86586 32.21090
v 0.00000 50.26612 29.76747
v 0.00000 49.57625 30.43794
v 0.00000 51.72790 27.10966
v 0.00000 50.87482 28.93369
v 0.00000 38.17049 -19.80660
v 5.16141 39.64326 -24.27880
v 5.50887 38.17049 -19.80660
v -0.00000 50.84599 62.65709
v -0.00000 25.69391 64.31091
v -0.00000 26.19013 62.83506
v 2.95414 36.12237 -28.68331
v 2.48723 37.67261 -29.49614
v 2.64306 35.93506 -29.08469
v 0.64390 32.90432 -35.21901
v 0.45281 37.15058 -33.99084
v 0.45281 36.84229 -33.49018
v 0.95888 41.98695 -29.81070
v 0.31889 42.28431 -29.81070
v 0.38853 40.36130 -31.82174
v 0.88924 40.22224 -31.85390
v 0.88924 39.79830 -31.26607
v 0.95888 41.73647 -28.96087
v 0.70960 39.53479 -31.05001
v 0.72927 41.41661 -28.53077
v 0.31889 41.73647 -28.96087
v 0.38853 39.79830 -31.26607
v 0.82496 37.15058 -33.99084
v 0.69144 36.73747 -33.36818
v 0.82496 36.84229 -33.49018
v 0.72927 41.41661 -28.53077
v 0.70960 39.53479 -31.05001
v 0.69144 36.73747 -33.36818
v 1.12020 35.13020 -29.33165
v 1.77023 35.13020 -29.33165
v 1.69683 36.56357 -31.01213
v 1.19360 36.56357 -31.01213
v 1.12020 35.54066 -28.85242
v 1.19360 36.93330 -30.69290
v 1.35341 35.77474 -28.61348
v 1.37414 37.08573 -30.55001
v 1.77023 35.54066 -28.85242
v 1.69683 36.93330 -30.69290
v 1.44012 41.20448 -33.89693
v 1.37414 37.08573 -30.55001
v 1.35341 35.77474 -28.61348
v 3.28073 36.19596 -27.74574
v 2.96746 37.93148 -28.66750
v 2.97101 35.97285 -28.38848
v 3.60826 36.15653 -26.48799
v 2.96867 37.96738 -27.64632
v 3.20416 35.93689 -27.22917
v 3.85531 36.18813 -25.24617
v 3.47408 38.14769 -26.62707
v 3.58237 36.17903 -26.23491
v 2.51484 36.06781 -29.64643
v 1.89618 37.51751 -30.09914
v 2.13267 35.94276 -30.00874
v 3.25352 41.10196 -27.63976
v 3.35608 39.33531 -26.97130
v 3.79607 40.98895 -26.73544
v 2.49008 41.28228 -28.74439
v 2.82550 39.54211 -28.11495
v 3.18585 41.18031 -27.95040
v 1.30959 41.35127 -29.53713
v 1.86792 39.46737 -29.03010
v 2.10287 41.23134 -28.84340
v 8.49222 42.23664 -4.78500
v 6.74384 46.46852 -5.52655
v -0.00000 25.54448 12.49386
v 5.23652 45.36184 -21.21998
v 4.85924 45.37754 -19.08374
v 4.02504 46.09513 -19.88022
v 3.47313 46.34275 -21.12460
v 6.04972 43.15048 -21.42476
v 6.30632 43.55177 -19.88672
v 5.33218 43.47419 -22.92415
v 3.77575 45.04130 -23.42661
v 4.48795 44.04514 -23.58666
v 5.76595 44.41197 -19.09574
v 3.22550 45.83134 -22.45630
v 0.00000 51.96656 30.36018
v -9.80103 35.25817 -4.49463
v -8.96907 38.68327 -5.40862
v -9.30933 37.47712 0.18924
v -9.19727 35.49184 -7.95584
v -8.75014 41.78307 0.51466
v -8.40649 39.67246 9.58321
v -4.45223 47.54768 9.29447
v -4.28143 48.23794 0.54652
v -2.95142 34.18189 -27.67175
v -4.35400 35.80115 -27.67224
v -6.28727 35.42010 -16.85144
v -4.31126 31.29019 -18.23113
v -3.88183 36.09949 -27.54961
v -6.27052 36.82056 -16.81136
v -2.40969 38.75288 42.71512
v -3.40369 38.80248 37.36233
v -1.98334 42.56293 37.42070
v -1.52677 41.60082 42.70700
v -5.61337 39.27116 26.50929
v -3.43042 45.09180 26.45251
v -3.12622 35.85132 -30.15857
v -2.65179 36.12401 -30.15187
v -8.25750 35.24915 -13.22793
v -5.59558 30.20482 -11.20856
v -0.90283 46.09668 29.56335
v -0.33783 53.80951 22.82671
v -0.44360 53.45273 23.57412
v -2.32837 48.54441 19.16943
v -0.51127 52.24871 25.77855
v -3.12328 35.75189 37.58340
v -2.31054 35.99910 42.63390
v -1.37447 34.36344 42.66106
v -2.07654 33.62461 37.85761
v -4.07480 46.36209 18.98475
v -7.21875 39.36756 18.83904
v -5.81055 28.75903 9.81612
v -4.99464 29.85564 19.20916
v -1.25708 27.13000 19.22359
v -8.42575 33.38376 9.77257
v -6.99106 33.77685 18.99326
v -0.21913 57.88115 14.25489
v -0.13875 58.44930 13.63731
v -1.42878 47.04593 26.51173
v -1.72290 50.12646 10.89428
v -1.25073 50.59546 5.32300
v -0.48956 50.52362 29.01645
v -0.40430 51.78186 26.59039
v -0.27085 56.67086 16.24675
v -0.45113 56.41884 17.17828
v -0.27432 55.20241 20.03176
v -0.35473 54.90353 20.98919
v -5.33165 34.46936 26.46644
v -3.46251 30.85497 26.41326
v -0.87711 28.27145 26.13993
v -10.01709 33.11792 -1.43060
v -10.20044 34.65918 -2.72272
v -10.53735 33.67720 -2.69800
v -9.77081 33.74328 -7.95117
v -9.89954 34.46790 -7.44385
v -7.08081 39.71582 -17.56409
v -6.67944 42.81826 -19.65762
v -6.31250 44.19089 -18.34036
v -8.49222 42.23664 -4.78500
v -8.96907 38.68327 -5.40862
v -9.19727 35.49184 -7.95584
v -1.62433 38.75676 50.35545
v -1.63746 36.06153 50.23270
v -1.23218 35.16243 50.32396
v -2.90585 36.33536 -27.55052
v -5.59116 37.22298 -18.78052
v -2.90585 36.33536 -27.55052
v -5.59116 37.22298 -18.78052
v -2.00219 36.21955 -29.24817
v -10.53735 33.67720 -2.69800
v -11.44549 33.64136 -3.48535
v -11.44104 34.23902 -3.51221
v -10.20044 34.65918 -2.72272
v -11.18668 34.78785 -6.06989
v -9.80103 35.25817 -4.49463
v -10.77081 33.52664 -7.10374
v -9.77081 33.74328 -7.95117
v -9.89954 34.46790 -7.44385
v -10.73364 34.18506 -7.19482
v -11.03387 32.80473 -5.73251
v -9.99048 32.54492 -5.76500
v -8.30298 34.11543 -9.90723
v -9.99048 32.54492 -5.76500
v -9.24243 31.99512 -5.99036
v -4.11277 42.78284 -25.94701
v -4.45288 44.00870 -24.34328
v -5.88243 42.73147 -23.07269
v -5.77584 41.68374 -23.56418
v -6.59174 38.52456 -19.39574
v -6.66675 40.53259 -19.35132
v -6.74384 46.46852 -5.52655
v -4.82282 45.91824 -18.25783
v -4.38219 48.49008 -6.60251
v -3.35889 47.07616 -19.89315
v -4.15583 44.56254 -21.50703
v -5.94662 40.14081 -24.21290
v -4.43774 41.59118 -28.03442
v -8.30298 34.11543 -9.90723
v -12.49469 33.64505 -3.22168
v -12.46658 34.11434 -3.24951
v -10.53735 33.67720 -2.69800
v -12.48086 34.57369 -5.92000
v -12.47850 34.32990 -7.65110
v -12.47297 33.52686 -7.52696
v -12.47014 33.16235 -5.68779
v -11.44549 33.64136 -3.48535
v -12.49469 33.64505 -3.22168
v -20.46021 33.61768 -6.06390
v -19.25329 33.24561 -3.72931
v -20.51937 34.36719 -5.78491
v -19.17828 34.42787 -3.19898
v -17.41933 34.22021 -0.34598
v -17.45422 33.83960 -0.39428
v -17.45422 33.83960 -0.39428
v -2.92525 46.27421 -23.09554
v -0.46631 48.51387 30.07564
v -0.21031 49.40680 30.34977
v -2.00219 36.21955 -29.24817
v -6.12898 29.00694 -0.13959
v -5.35889 29.36047 -6.41005
v -1.30268 32.22600 37.98911
v -0.95337 41.06201 50.27667
v -0.79342 30.84387 38.91260
v -0.49185 26.27250 28.36529
v -5.50887 38.17049 -19.80660
v -0.28041 25.85806 12.94353
v -5.59558 30.20482 -11.20856
v -0.23209 22.50797 32.14902
v -0.45811 27.68238 41.27093
v -0.44360 21.08400 18.00498
v -0.39392 21.84762 23.02104
v -5.16141 39.64326 -24.27880
v -3.85254 41.08288 -28.12793
v -3.85254 41.08288 -28.12793
v -0.72556 35.20717 52.19251
v -1.39905 38.58080 52.95540
v -0.71264 41.16584 52.27665
v -0.71264 41.16584 52.27665
v -0.63464 46.23775 58.69508
v -1.39905 38.58080 52.95540
v -0.86939 38.41645 58.60667
v -0.72556 35.20717 52.19251
v -0.90718 31.43374 58.38099
v -0.51934 49.69206 62.98758
v -0.44281 38.25918 60.76106
v -0.46752 28.10699 63.15757
v -0.60876 27.03704 63.11279
v -4.38219 48.49008 -6.60251
v -21.29982 34.04126 -1.62820
v -24.44540 34.07446 -3.79601
v -24.87879 33.70972 -4.33349
v -23.53982 33.66746 -4.88967
v -21.48853 33.77063 -1.41235
v -24.72852 33.91504 -3.75073
v -22.63202 33.49878 -3.34787
v -21.48853 33.77063 -1.41235
v -24.72852 33.91504 -3.75073
v -24.39783 33.76123 -4.00915
v -0.34609 50.28672 29.48314
v -5.16141 39.64326 -24.27880
v -5.50887 38.17049 -19.80660
v -2.95414 36.12237 -28.68331
v -2.64306 35.93506 -29.08469
v -2.48723 37.67261 -29.49614
v -0.64390 32.90432 -35.21901
v -0.45281 36.84229 -33.49018
v -0.45281 37.15058 -33.99084
v -0.95888 41.98695 -29.81070
v -0.88924 40.22224 -31.85390
v -0.38853 40.36130 -31.82174
v -0.31889 42.28431 -29.81070
v -0.95888 41.73647 -28.96087
v -0.88924 39.79830 -31.26607
v -0.72927 41.41661 -28.53077
v -0.70960 39.53479 -31.05001
v -0.38853 39.79830 -31.26607
v -0.31889 41.73647 -28.96087
v -0.82496 37.15058 -33.99084
v -0.69144 36.73747 -33.36818
v -0.82496 36.84229 -33.49018
v -0.70960 39.53479 -31.05001
v -0.72927 41.41661 -28.53077
v -0.69144 36.73747 -33.36818
v -1.12020 35.13020 -29.33165
v -1.19360 36.56357 -31.01213
v -1.69683 36.56357 -31.01213
v -1.77023 35.13020 -29.33165
v -1.12020 35.54066 -28.85242
v -1.19360 36.93330 -30.69290
v -1.35341 35.77474 -28.61348
v -1.37414 37.08573 -30.55001
v -1.69683 36.93330 -30.69290
v -1.77023 35.54066 -28.85242
v -1.44012 41.20448 -33.89693
v -1.37414 37.08573 -30.55001
v -1.35341 35.77474 -28.61348
v -3.28073 36.19596 -27.74574
v -2.97101 35.97285 -28.38848
v -2.96746 37.93148 -28.66750
v -3.60826 36.15653 -26.48799
v -3.20416 35.93689 -27.22917
v -2.96867 37.96738 -27.64632
v -3.85531 36.18813 -25.24617
v -3.58237 36.17903 -26.23491
v -3.47408 38.14769 -26.62707
v -2.51484 36.06781 -29.64643
v -2.13267 35.94276 -30.00874
v -1.89618 37.51751 -30.09914
v -3.25352 41.10196 -27.63976
v -3.79607 40.98895 -26.73544
v -3.35608 39.33531 -26.97130
v -2.49008 41.28228 -28.74439
v -3.18585 41.18031 -27.95040
v -2.82550 39.54211 -28.11495
v -1.30959 41.35127 -29.53713
v -2.10287 41.23134 -28.84340
v -1.86792 39.46737 -29.03010
v -8.49222 42.23664 -4.78500
v -6.74384 46.46852 -5.52655
v -5.23652 45.36184 -21.21998
v -3.47313 46.34275 -21.12460
v -4.02504 46.09513 -19.88022
v -4.85924 45.37754 -19.08374
v -6.04972 43.15048 -21.42476
v -5.33218 43.47419 -22.92415
v -6.30632 43.55177 -19.88672
v -4.48795 44.04514 -23.58666
v -3.77575 45.04130 -23.42661
v -5.76595 44.41197 -19.09574
v -3.22550 45.83134 -22.45630
vt 0.661046 0.592461
vt 0.598806 0.614470
vt 0.686050 0.624138
vt 0.689280 0.605629
vt 0.481230 0.650775
vt 0.585709 0.673677
vt 0.479268 0.788780
vt 0.593610 0.761383
vt 0.946441 0.265945
vt 0.891801 0.153123
vt 0.816692 0.169611
vt 0.918787 0.280366
vt 0.780530 0.183353
vt 0.906635 0.303385
vt 0.130071 0.611011
vt 0.119454 0.661940
vt 0.162239 0.705070
vt 0.184005 0.619358
vt 0.268731 0.768312
vt 0.293524 0.628055
vt 0.961273 0.301130
vt 0.944519 0.317897
vt 0.941764 0.159614
vt 0.958679 0.256629
vt 0.803147 0.117962
vt 0.876871 0.043404
vt 0.943768 0.041313
vt 0.188990 0.801153
vt 0.217906 0.786208
vt 0.145481 0.722333
vt 0.313008 0.928355
vt 0.353821 0.825611
vt 0.298565 0.919668
vt 0.261407 0.897628
vt 0.184441 0.556845
vt 0.174215 0.501823
vt 0.127854 0.528271
vt 0.131298 0.570743
vt 0.377119 0.639130
vt 0.359492 0.787112
vt 0.531492 0.381955
vt 0.416717 0.374149
vt 0.397668 0.448451
vt 0.500955 0.463327
vt 0.385896 0.526721
vt 0.489129 0.534640
vt 0.454620 0.961611
vt 0.449457 0.982376
vt 0.462940 0.965415
vt 0.250498 0.809777
vt 0.487700 0.847574
vt 0.535711 0.842860
vt 0.211386 0.862119
vt 0.248008 0.889396
vt 0.421109 0.950982
vt 0.412262 0.949384
vt 0.347357 0.943583
vt 0.368176 0.943151
vt 0.308623 0.457486
vt 0.302036 0.537989
vt 0.305117 0.397621
vt 0.621890 0.592463
vt 0.626925 0.538587
vt 0.630590 0.561483
vt 0.679240 0.543543
vt 0.677465 0.571284
vt 0.731146 0.178098
vt 0.696976 0.008645
vt 0.642450 0.170910
vt 0.660757 0.206480
vt 0.732628 0.024014
vt 0.767629 0.045634
vt 0.040738 0.605245
vt 0.043171 0.578635
vt 0.043716 0.557944
vt 0.772775 0.214991
vt 0.904643 0.317309
vt 0.945943 0.634900
vt 0.899335 0.782209
vt 0.992261 0.718915
vt 0.996509 0.591000
vt 0.937783 0.329825
vt 0.976183 0.340138
vt 0.981143 0.329647
vt 0.982815 0.319037
vt 0.024645 0.246194
vt 0.034151 0.260202
vt 0.049365 0.236854
vt 0.037450 0.232856
vt 0.064381 0.270717
vt 0.081824 0.253093
vt 0.146531 0.262871
vt 0.121509 0.262904
vt 0.118771 0.277481
vt 0.151277 0.281145
vt 0.178820 0.273449
vt 0.189081 0.251209
vt 0.685537 0.537888
vt 0.666052 0.532571
vt 0.663093 0.541023
vt 0.597030 0.294158
vt 0.644506 0.262840
vt 0.634905 0.246995
vt 0.596587 0.254714
vt 0.701195 0.209701
vt 0.732293 0.218017
vt 0.634471 0.004739
vt 0.619596 0.168614
vt 0.516122 0.179121
vt 0.575861 0.175294
vt 0.585684 0.001691
vt 0.516238 0.009373
vt 0.608806 0.208694
vt 0.603886 0.321065
vt 0.664617 0.272328
vt 0.794422 0.043769
vt 0.039441 0.218299
vt 0.050136 0.218435
vt 0.234517 0.252185
vt 0.089180 0.225899
vt 0.125454 0.234645
vt 0.142553 0.235325
vt 0.190009 0.226040
vt 0.219293 0.239289
vt 0.219131 0.222538
vt 0.195794 0.120320
vt 0.137869 0.109938
vt 0.121756 0.108472
vt 0.082014 0.116823
vt 0.031219 0.120386
vt 0.013296 0.120656
vt 0.250001 0.130973
vt 0.554991 0.216836
vt 0.555439 0.845407
vt 0.606264 0.824314
vt 0.465806 0.967627
vt 0.199379 0.828274
vt 0.193600 0.841079
vt 0.177846 0.827765
vt 0.962108 0.606936
vt 0.605826 0.483408
vt 0.679164 0.491285
vt 0.165177 0.474751
vt 0.117231 0.504658
vt 0.036264 0.635995
vt 0.108497 0.682142
vt 0.033205 0.650540
vt 0.040758 0.545634
vt 0.154061 0.452166
vt 0.272977 0.375094
vt 0.127082 0.466332
vt 0.519301 0.242347
vt 0.745283 0.233421
vt 0.530571 0.320513
vt 0.533624 0.358524
vt 0.515598 0.369557
vt 0.744873 0.474042
vt 0.689018 0.457649
vt 0.732646 0.509149
vt 0.617795 0.443477
vt 0.318737 0.385746
vt 0.284599 0.367907
vt 0.222558 0.330352
vt 0.119719 0.405525
vt 0.393219 0.346818
vt 0.407250 0.329732
vt 0.503224 0.282947
vt 0.406356 0.261166
vt 0.397531 0.253641
vt 0.509190 0.279067
vt 0.223388 0.318466
vt 0.097013 0.411946
vt 0.605420 0.332176
vt 0.674556 0.283361
vt 0.538433 0.365771
vt 0.994441 0.951497
vt 0.939693 0.951558
vt 0.995120 0.994559
vt 0.111099 0.393597
vt 0.021281 0.563853
vt 0.022900 0.550918
vt 0.012600 0.596414
vt 0.012794 0.635125
vt 0.012118 0.646376
vt 0.417995 0.176497
vt 0.344840 0.273984
vt 0.353116 0.291817
vt 0.426081 0.185888
vt 0.397118 0.136923
vt 0.321037 0.157872
vt 0.399458 0.097328
vt 0.306505 0.068583
vt 0.402378 0.083163
vt 0.302359 0.041922
vt 0.291092 0.335692
vt 0.304281 0.355061
vt 0.305413 0.327635
vt 0.272390 0.172894
vt 0.285095 0.169890
vt 0.229138 0.038079
vt 0.261363 0.135990
vt 0.225730 0.024394
vt 0.204758 0.024172
vt 0.421697 0.957711
vt 0.449583 0.965212
vt 0.694956 0.747927
vt 0.709122 0.806506
vt 0.398760 0.976375
vt 0.403185 0.954699
vt 0.367902 0.948086
vt 0.337775 0.965453
vt 0.312883 0.931931
vt 0.341030 0.946882
vt 0.120382 0.037401
vt 0.070203 0.068480
vt 0.142682 0.034672
vt 0.141341 0.063730
vt 0.122409 0.032497
vt 0.060056 0.065863
vt 0.211173 0.072447
vt 0.196769 0.068744
vt 0.153812 0.035963
vt 0.151952 0.039980
vt 0.289602 0.934144
vt 0.261830 0.907043
vt 0.288230 0.921703
vt 0.231868 0.911595
vt 0.204325 0.857449
vt 0.165147 0.845801
vt 0.197664 0.856094
vt 0.190612 0.845093
vt 0.237847 0.888346
vt 0.212340 0.871302
vt 0.992386 0.805026
vt 0.909454 0.881001
vt 0.900948 0.806019
vt 0.316407 0.342754
vt 0.202787 0.012756
vt 0.224412 0.010454
vt 0.718133 0.622877
vt 0.752692 0.897887
vt 0.792046 0.623522
vt 0.846608 0.827319
vt 0.845689 0.731275
vt 0.834936 0.731527
vt 0.870845 0.601313
vt 0.848796 0.600056
vt 0.847180 0.668291
vt 0.865042 0.669332
vt 0.879775 0.669993
vt 0.889980 0.601060
vt 0.888101 0.671227
vt 0.902166 0.602129
vt 0.829774 0.597703
vt 0.832459 0.667293
vt 0.859686 0.732117
vt 0.831456 0.733958
vt 0.870355 0.733622
vt 0.813719 0.597808
vt 0.822942 0.668607
vt 0.875118 0.735009
vt 0.870845 0.601313
vt 0.848796 0.600056
vt 0.847388 0.665928
vt 0.865231 0.666966
vt 0.889980 0.601060
vt 0.879383 0.669741
vt 0.902166 0.602129
vt 0.887464 0.671173
vt 0.829774 0.597703
vt 0.833013 0.667112
vt 0.846608 0.827319
vt 0.821588 0.667913
vt 0.813719 0.597808
vt 0.718133 0.622877
vt 0.752692 0.897887
vt 0.792046 0.623522
vt 0.718133 0.622877
vt 0.752692 0.897887
vt 0.792046 0.623522
vt 0.718133 0.622877
vt 0.752692 0.897887
vt 0.792046 0.623522
vt 0.718133 0.622877
vt 0.752692 0.897887
vt 0.792046 0.623522
vt 0.718133 0.622877
vt 0.752692 0.897887
vt 0.792046 0.623522
vt 0.718133 0.622877
vt 0.752692 0.897887
vt 0.792046 0.623522
vt 0.718133 0.622877
vt 0.752692 0.897887
vt 0.792046 0.623522
vt 0.681999 0.657783
vt 0.689276 0.708410
vt 0.521905 0.368464
vt 0.880386 0.476798
vt 0.978924 0.507553
vt 0.979662 0.440386
vt 0.936396 0.389341
vt 0.807912 0.552293
vt 0.876127 0.575903
vt 0.770870 0.503245
vt 0.809010 0.390029
vt 0.775410 0.432790
vt 0.945224 0.556816
vt 0.877546 0.374212
vt 0.195366 0.874497
vt 0.661046 0.592461
vt 0.686050 0.624138
vt 0.598806 0.614470
vt 0.689280 0.605629
vt 0.585709 0.673677
vt 0.481230 0.650775
vt 0.479268 0.788780
vt 0.593610 0.761383
vt 0.946441 0.265945
vt 0.918787 0.280366
vt 0.816692 0.169611
vt 0.891801 0.153123
vt 0.906635 0.303385
vt 0.780530 0.183353
vt 0.130071 0.611011
vt 0.184005 0.619358
vt 0.162239 0.705070
vt 0.119454 0.661940
vt 0.293524 0.628055
vt 0.268731 0.768312
vt 0.961273 0.301130
vt 0.944519 0.317897
vt 0.803147 0.117962
vt 0.876871 0.043404
vt 0.217906 0.786208
vt 0.313008 0.928355
vt 0.298565 0.919668
vt 0.353821 0.825611
vt 0.261407 0.897628
vt 0.184441 0.556845
vt 0.131298 0.570743
vt 0.127854 0.528271
vt 0.174215 0.501823
vt 0.359492 0.787112
vt 0.377119 0.639130
vt 0.500955 0.463327
vt 0.397668 0.448451
vt 0.416717 0.374149
vt 0.489129 0.534640
vt 0.385896 0.526721
vt 0.454620 0.961611
vt 0.462940 0.965415
vt 0.250498 0.809777
vt 0.487590 0.846606
vt 0.535711 0.842860
vt 0.211386 0.862119
vt 0.248008 0.889396
vt 0.421109 0.950982
vt 0.412262 0.949384
vt 0.368176 0.943151
vt 0.347357 0.943583
vt 0.302036 0.537989
vt 0.308623 0.457486
vt 0.305117 0.397621
vt 0.626925 0.538587
vt 0.621890 0.592463
vt 0.630590 0.561483
vt 0.679240 0.543543
vt 0.677465 0.571284
vt 0.731146 0.178098
vt 0.660757 0.206480
vt 0.642450 0.170910
vt 0.696976 0.008645
vt 0.732628 0.024014
vt 0.767629 0.045634
vt 0.040738 0.605245
vt 0.043171 0.578635
vt 0.043716 0.557944
vt 0.904643 0.317309
vt 0.772775 0.214991
vt 0.945943 0.634900
vt 0.899335 0.782209
vt 0.937783 0.329825
vt 0.024645 0.246194
vt 0.037450 0.232856
vt 0.049365 0.236854
vt 0.034151 0.260202
vt 0.081824 0.253093
vt 0.064381 0.270717
vt 0.146531 0.262871
vt 0.151277 0.281145
vt 0.118771 0.277481
vt 0.121509 0.262904
vt 0.189081 0.251209
vt 0.178820 0.273449
vt 0.685537 0.537888
vt 0.663093 0.541023
vt 0.666052 0.532571
vt 0.597030 0.294158
vt 0.596587 0.254714
vt 0.634905 0.246995
vt 0.644506 0.262840
vt 0.732293 0.218017
vt 0.701195 0.209701
vt 0.634471 0.004739
vt 0.619596 0.168614
vt 0.585684 0.001691
vt 0.575861 0.175294
vt 0.608806 0.208694
vt 0.664617 0.272328
vt 0.603886 0.321065
vt 0.794422 0.043769
vt 0.039441 0.218299
vt 0.050136 0.218435
vt 0.234517 0.252185
vt 0.089180 0.225899
vt 0.125454 0.234645
vt 0.142553 0.235325
vt 0.190009 0.226040
vt 0.219293 0.239289
vt 0.219131 0.222538
vt 0.137869 0.109938
vt 0.195794 0.120320
vt 0.121756 0.108472
vt 0.082014 0.116823
vt 0.031219 0.120386
vt 0.013296 0.120656
vt 0.250001 0.130973
vt 0.554991 0.216836
vt 0.199379 0.828274
vt 0.193600 0.841079
vt 0.962108 0.606936
vt 0.605826 0.483408
vt 0.679164 0.491285
vt 0.165177 0.474751
vt 0.036264 0.635995
vt 0.154061 0.452166
vt 0.272977 0.375094
vt 0.745283 0.233421
vt 0.515598 0.369557
vt 0.732646 0.509149
vt 0.222558 0.330352
vt 0.119719 0.405525
vt 0.503224 0.282947
vt 0.406356 0.261166
vt 0.674556 0.283361
vt 0.605420 0.332176
vt 0.939693 0.951558
vt 0.021281 0.563853
vt 0.012600 0.596414
vt 0.012794 0.635125
vt 0.417995 0.176497
vt 0.344840 0.273984
vt 0.397118 0.136923
vt 0.321037 0.157872
vt 0.399458 0.097328
vt 0.306505 0.068583
vt 0.305413 0.327635
vt 0.285095 0.169890
vt 0.229138 0.038079
vt 0.225730 0.024394
vt 0.694956 0.747927
vt 0.070203 0.068480
vt 0.120382 0.037401
vt 0.142682 0.034672
vt 0.141341 0.063730
vt 0.060056 0.065863
vt 0.122409 0.032497
vt 0.196769 0.068744
vt 0.211173 0.072447
vt 0.153812 0.035963
vt 0.151952 0.039980
vt 0.204325 0.857449
vt 0.909454 0.881001
vt 0.900948 0.806019
vt 0.718133 0.622877
vt 0.792046 0.623522
vt 0.752692 0.897887
vt 0.846608 0.827319
vt 0.834936 0.731527
vt 0.845689 0.731275
vt 0.870845 0.601313
vt 0.865042 0.669332
vt 0.847180 0.668291
vt 0.848796 0.600056
vt 0.889980 0.601060
vt 0.879775 0.669993
vt 0.902166 0.602129
vt 0.888101 0.671227
vt 0.832459 0.667293
vt 0.829774 0.597703
vt 0.859686 0.732117
vt 0.831456 0.733958
vt 0.870355 0.733622
vt 0.822942 0.668607
vt 0.813719 0.597808
vt 0.875118 0.735009
vt 0.870845 0.601313
vt 0.865231 0.666966
vt 0.847388 0.665928
vt 0.848796 0.600056
vt 0.889980 0.601060
vt 0.879383 0.669741
vt 0.902166 0.602129
vt 0.887464 0.671173
vt 0.833013 0.667112
vt 0.829774 0.597703
vt 0.846608 0.827319
vt 0.821588 0.667913
vt 0.813719 0.597808
vt 0.718133 0.622877
vt 0.792046 0.623522
vt 0.752692 0.897887
vt 0.718133 0.622877
vt 0.792046 0.623522
vt 0.752692 0.897887
vt 0.718133 0.622877
vt 0.792046 0.623522
vt 0.752692 0.897887
vt 0.718133 0.622877
vt 0.792046 0.623522
vt 0.752692 0.897887
vt 0.718133 0.622877
vt 0.792046 0.623522
vt 0.752692 0.897887
vt 0.718133 0.622877
vt 0.792046 0.623522
vt 0.752692 0.897887
vt 0.718133 0.622877
vt 0.792046 0.623522
vt 0.752692 0.897887
vt 0.681999 0.657783
vt 0.689276 0.708410
vt 0.880386 0.476798
vt 0.936396 0.389341
vt 0.979662 0.440386
vt 0.978924 0.507553
vt 0.807912 0.552293
vt 0.770870 0.503245
vt 0.876127 0.575903
vt 0.775410 0.432790
vt 0.809010 0.390029
vt 0.945224 0.556816
vt 0.877546 0.374212
vn 0.73566 0.66331 -0.13717
vn 0.98416 0.17498 0.02854
vn 0.97818 0.17636 -0.10984
vn 0.93438 0.18789 -0.30272
vn 0.97346 0.19919 0.11273
vn 0.92492 0.37783 0.04200
vn 0.80657 0.58590 0.07856
vn 0.67996 0.73271 0.02801
vn 0.50777 -0.77816 -0.36964
vn 0.67159 -0.66764 -0.32129
vn 0.94643 -0.06877 -0.31550
vn 0.93704 0.16926 -0.30547
vn 0.93843 -0.04076 -0.34304
vn 0.47594 0.86340 -0.16742
vn 0.97850 0.15395 0.13728
vn 0.68814 0.70987 0.15017
vn 0.74439 0.62645 0.23119
vn 0.97026 0.14038 0.19721
vn 0.81036 0.54208 0.22241
vn 0.96105 0.19960 0.19116
vn 0.61864 0.40532 -0.67305
vn 0.14426 0.96353 -0.22540
vn -0.00000 -0.96477 -0.26308
vn 0.00000 -0.90510 -0.42521
vn 0.92210 -0.22109 -0.31758
vn 0.57863 -0.79429 -0.18518
vn 0.00000 -0.98277 -0.18483
vn 0.00000 0.65725 0.75367
vn 0.76394 0.51743 0.38557
vn 0.00000 0.96243 0.27154
vn 0.87638 0.47520 0.07834
vn 0.92702 0.36316 0.09353
vn 0.86348 0.40706 0.29784
vn 0.90165 0.41961 0.10464
vn 0.93880 -0.28471 0.19388
vn 0.81215 -0.53957 0.22198
vn 0.76013 -0.63425 0.14118
vn 0.96135 -0.25069 0.11387
vn 0.97244 0.16637 0.16333
vn 0.82553 0.54592 0.14304
vn -0.00000 -0.99735 -0.07280
vn 0.81232 -0.52858 0.24644
vn 0.71403 -0.68279 0.15481
vn 0.60887 -0.79078 0.06280
vn 0.93631 -0.28420 0.20630
vn 0.95814 -0.24676 0.14518
vn 0.97779 0.17407 0.11676
vn 0.00000 0.82474 0.56551
vn 0.97503 0.19605 -0.10431
vn 0.92188 0.31829 0.22097
vn 0.91491 0.40307 0.02203
vn 0.74836 0.64249 -0.16480
vn 0.84858 0.49457 0.18794
vn 0.90173 0.27405 0.33432
vn 0.93625 0.35130 -0.00452
vn 0.94472 0.26473 0.19345
vn 0.92397 0.26874 0.27213
vn 0.90650 0.42172 0.02018
vn 0.81493 -0.52933 0.23602
vn 0.95714 -0.19142 0.21737
vn 0.70121 -0.71179 0.04075
vn 0.79273 0.51374 0.32809
vn 0.92546 -0.35501 0.13223
vn 0.69233 -0.50169 0.51864
vn 0.71613 -0.27092 -0.64324
vn 0.67328 0.44520 -0.59033
vn 0.97423 -0.01894 -0.22474
vn 0.94365 0.32902 -0.03568
vn 0.86812 0.45952 -0.18765
vn 0.92652 0.31256 -0.20943
vn 0.97818 0.17636 -0.10984
vn 0.93438 0.18789 -0.30272
vn 0.98967 0.10621 0.09634
vn 0.96290 -0.21075 0.16852
vn 0.79265 -0.59360 0.13908
vn 0.53659 -0.43713 -0.72180
vn 0.21526 0.96501 -0.14972
vn 0.21526 0.96501 -0.14972
vn 0.53659 -0.43713 -0.72180
vn -0.00000 0.81103 -0.58500
vn 0.00000 0.99993 -0.01177
vn -0.00341 0.99590 -0.09043
vn 0.00000 0.99993 -0.01177
vn -0.00000 0.89708 -0.44187
vn 0.00000 -0.46510 -0.88526
vn 0.69233 -0.50169 0.51864
vn 0.79273 0.51374 0.32809
vn 0.25704 0.60346 0.75483
vn 0.21313 -0.72015 0.66027
vn 0.73566 0.66331 -0.13717
vn 0.15485 0.98490 -0.07747
vn 0.13385 -0.46339 -0.87599
vn 0.00901 0.63234 -0.77464
vn 0.67328 0.44520 -0.59033
vn 0.71613 -0.27092 -0.64324
vn 0.40013 -0.89555 -0.19464
vn 0.18449 -0.98210 -0.03802
vn 0.80377 -0.47706 -0.35549
vn 0.61273 -0.76696 -0.19062
vn 0.40013 -0.89555 -0.19464
vn 0.67049 0.56791 -0.47740
vn 0.92692 0.15639 -0.34113
vn 0.88490 0.35737 -0.29874
vn 0.59709 0.66147 -0.45380
vn 0.98264 -0.04533 -0.17990
vn 0.79948 -0.51164 -0.31474
vn 0.81146 0.58440 -0.00333
vn 0.77247 0.60096 -0.20527
vn 0.00000 0.97734 -0.21165
vn 0.59134 0.77023 -0.23888
vn 0.43379 0.89785 -0.07537
vn 0.00000 0.99466 -0.10323
vn 0.76091 0.60227 -0.24141
vn 0.72040 0.03464 -0.69270
vn 0.89862 -0.25528 -0.35680
vn 0.80377 -0.47706 -0.35549
vn -0.24696 -0.62779 0.73817
vn -0.33816 0.49485 0.80048
vn 0.69233 -0.50169 0.51864
vn 0.05819 0.99680 0.05480
vn -0.00176 0.63736 -0.77057
vn 0.02875 -0.74839 -0.66264
vn 0.08105 -0.99626 0.03000
vn 0.21313 -0.72015 0.66027
vn -0.24696 -0.62779 0.73817
vn 0.02237 -0.99673 0.07760
vn 0.29396 -0.36859 -0.88189
vn 0.20849 0.88679 -0.41248
vn 0.06078 0.99801 0.01668
vn -0.06522 0.78092 0.62122
vn -0.12675 -0.37243 0.91936
vn -0.12675 -0.37243 0.91936
vn 0.47580 0.78881 -0.38910
vn 0.00000 0.89114 -0.45373
vn -0.00000 0.99271 -0.12054
vn -0.00000 0.77584 -0.63092
vn 0.90364 0.07620 0.42146
vn 0.87670 0.34253 0.33776
vn 0.00000 -0.11203 0.99370
vn -0.00341 0.99590 -0.09043
vn 0.47653 -0.87631 -0.07069
vn 0.51162 -0.84661 -0.14659
vn 0.91821 -0.31625 0.23850
vn -0.00000 -0.91906 0.39411
vn 0.81786 0.57120 0.06954
vn 0.00000 0.98231 0.18728
vn 0.00000 0.99865 0.05185
vn -0.00000 -0.98792 0.15496
vn 0.98587 -0.09913 0.13506
vn 0.95187 -0.26563 -0.15290
vn -0.00000 -0.05573 0.99845
vn 0.00000 0.79748 -0.60335
vn 0.28959 -0.83171 -0.47371
vn 0.00000 0.87561 -0.48302
vn 0.00000 0.43276 -0.90151
vn 0.94168 -0.27387 -0.19552
vn 0.00000 -0.98277 -0.18483
vn 0.00000 -0.99161 -0.12924
vn 0.57863 -0.79429 -0.18518
vn -0.00000 -0.99807 -0.06216
vn -0.00000 -0.96397 -0.26602
vn -0.00000 -0.75539 -0.65527
vn 0.96857 -0.24320 0.05232
vn 0.92917 -0.09928 0.35606
vn 0.00000 -0.93964 0.34217
vn 0.00000 0.12517 0.99214
vn 0.90419 -0.39458 -0.16356
vn 0.87122 -0.20452 0.44625
vn 0.00000 -0.41143 0.91144
vn 0.00000 -0.99463 -0.10353
vn -0.00000 -0.92493 -0.38013
vn -0.00000 -0.00428 0.99999
vn 0.23587 -0.85973 -0.45302
vn 0.34225 -0.85205 -0.39607
vn -0.00000 -0.66528 -0.74660
vn 0.00000 -0.96952 -0.24500
vn 0.23587 -0.85973 -0.45302
vn -0.00000 -0.66528 -0.74660
vn -0.00000 -0.63335 0.77387
vn 0.88725 -0.45361 0.08376
vn 0.00000 -0.94876 -0.31600
vn 0.99451 0.04979 0.09201
vn 0.84532 0.49911 -0.19061
vn 0.00000 0.97009 -0.24275
vn 0.84532 0.49911 -0.19061
vn 0.97782 0.19245 -0.08260
vn 0.00000 0.77456 -0.63250
vn 0.00000 0.97009 -0.24275
vn 0.99451 0.04979 0.09201
vn 0.99350 -0.03068 0.10961
vn 0.88725 -0.45361 0.08376
vn 0.95285 -0.27514 -0.12795
vn 0.00000 -0.94876 -0.31600
vn 0.00000 -0.79000 -0.61310
vn 0.00000 0.02000 0.99980
vn -0.00000 0.93010 0.36730
vn 0.98502 0.15724 0.07076
vn -0.00000 0.01506 0.99989
vn 0.97156 0.00920 0.23660
vn 0.98357 -0.00876 0.18032
vn -0.00000 0.21469 0.97668
vn 0.98368 -0.14308 0.10911
vn 0.00000 -0.03209 0.99948
vn -0.00000 0.98520 -0.17140
vn 0.00000 0.66849 0.74372
vn 0.43379 0.89785 -0.07537
vn 0.00000 0.99466 -0.10323
vn -0.00000 0.95761 0.28806
vn -0.00000 0.68994 0.72386
vn -0.00000 0.97261 -0.23242
vn -0.00000 0.97420 0.22567
vn 0.00000 0.99727 -0.07379
vn -0.00000 0.61160 0.79117
vn 0.36277 0.90736 -0.21234
vn 0.24687 0.83462 0.49241
vn 0.72036 0.54851 -0.42452
vn 0.14225 -0.97278 -0.18294
vn 0.70414 -0.16846 0.68979
vn 0.34691 -0.57602 0.74017
vn 0.34691 -0.57602 0.74017
vn 0.13517 -0.98753 0.08070
vn 0.70414 -0.16846 0.68979
vn 0.12608 -0.97517 0.18206
vn -0.00000 0.97113 0.23856
vn 0.00000 0.99361 0.11287
vn 0.00000 0.48514 0.87444
vn 0.00000 0.94607 0.32395
vn 0.86568 0.10226 0.49004
vn 0.00000 0.99961 0.02810
vn 0.00000 0.39656 0.91801
vn 0.00000 0.95480 0.29724
vn 0.00000 0.73779 0.67503
vn -0.00000 0.99549 -0.09491
vn -0.00000 -0.87832 -0.47806
vn 0.34225 -0.85205 -0.39607
vn 0.28959 -0.83171 -0.47371
vn 0.00000 0.81844 -0.57458
vn -0.00000 -0.95433 0.29877
vn 0.00000 -0.87328 -0.48721
vn 0.80368 -0.06791 -0.59118
vn 0.80368 -0.06791 -0.59118
vn 0.80368 -0.06791 -0.59118
vn 0.35991 -0.74745 0.55838
vn -0.53890 0.38497 -0.74926
vn -0.92730 -0.21027 0.30968
vn 0.79225 0.44180 -0.42088
vn -0.87208 0.33881 -0.35310
vn -0.63837 0.51563 -0.57150
vn 0.74148 0.41378 -0.52820
vn 0.96120 -0.19657 0.19353
vn 0.95262 -0.24800 0.17610
vn 0.13308 -0.73714 0.66251
vn 0.12519 -0.79533 0.59311
vn -0.88544 -0.37131 0.27950
vn -0.91558 -0.28011 0.28853
vn 0.71034 0.28362 -0.64419
vn 0.14145 -0.55431 0.82020
vn 0.96202 -0.15938 0.22161
vn 0.12519 -0.79533 0.59311
vn 0.13308 -0.73714 0.66251
vn 0.14145 -0.55431 0.82020
vn -0.44790 -0.67049 -0.59146
vn 0.89489 -0.31983 -0.31126
vn 0.55726 -0.55657 -0.61619
vn -0.83302 -0.33666 -0.43903
vn -0.97839 0.18195 0.09819
vn -0.91683 0.31825 0.24113
vn -0.14103 0.81509 0.56191
vn -0.14264 0.73085 0.66747
vn 0.89816 0.36711 0.24196
vn 0.88629 0.36542 0.28453
vn -0.37073 0.83210 0.41250
vn -0.14264 0.73085 0.66747
vn -0.14103 0.81509 0.56191
vn 0.90706 -0.05776 -0.41703
vn 0.90706 -0.05776 -0.41703
vn 0.90706 -0.05776 -0.41703
vn 0.87757 0.00328 -0.47944
vn 0.87757 0.00328 -0.47944
vn 0.87757 0.00328 -0.47944
vn 0.96395 0.00002 -0.26609
vn 0.96395 0.00002 -0.26609
vn 0.96395 0.00002 -0.26609
vn 0.67648 0.05945 -0.73406
vn 0.67648 0.05945 -0.73406
vn 0.67648 0.05945 -0.73406
vn 0.83963 -0.14890 -0.52235
vn 0.83963 -0.14890 -0.52235
vn 0.83963 -0.14890 -0.52235
vn 0.74238 -0.09670 -0.66296
vn 0.74238 -0.09670 -0.66296
vn 0.74238 -0.09670 -0.66296
vn 0.65760 -0.00786 -0.75333
vn 0.65760 -0.00786 -0.75333
vn 0.65760 -0.00786 -0.75333
vn 0.94365 0.32902 -0.03568
vn 0.81146 0.58440 -0.00333
vn 0.00000 -0.80123 -0.59836
vn 0.70876 0.67580 -0.20237
vn 0.66129 0.74182 0.11134
vn 0.54103 0.84050 0.02920
vn 0.46508 0.85747 -0.22009
vn 0.88841 0.35379 -0.29250
vn 0.88967 0.44230 -0.11338
vn 0.76254 0.48322 -0.43016
vn 0.62007 0.63919 -0.45491
vn 0.70945 0.57311 -0.41014
vn 0.79464 0.60286 0.07152
vn 0.43391 0.80776 -0.39905
vn 0.00000 0.62490 0.78070
vn -0.73566 0.66331 -0.13716
vn -0.97818 0.17636 -0.10984
vn -0.98416 0.17498 0.02854
vn -0.93438 0.18789 -0.30272
vn -0.92492 0.37783 0.04200
vn -0.97346 0.19919 0.11273
vn -0.80657 0.58590 0.07856
vn -0.67996 0.73271 0.02801
vn -0.50777 -0.77816 -0.36964
vn -0.93704 0.16926 -0.30547
vn -0.94643 -0.06877 -0.31550
vn -0.67159 -0.66764 -0.32129
vn -0.47594 0.86340 -0.16742
vn -0.93843 -0.04076 -0.34304
vn -0.97850 0.15395 0.13728
vn -0.97026 0.14038 0.19721
vn -0.74439 0.62645 0.23119
vn -0.68814 0.70987 0.15017
vn -0.96105 0.19960 0.19116
vn -0.81036 0.54208 0.22241
vn -0.61864 0.40532 -0.67305
vn -0.14426 0.96353 -0.22540
vn -0.92210 -0.22109 -0.31758
vn -0.57863 -0.79429 -0.18518
vn -0.76394 0.51743 0.38557
vn -0.87638 0.47520 0.07834
vn -0.86348 0.40706 0.29784
vn -0.92702 0.36316 0.09353
vn -0.90165 0.41961 0.10464
vn -0.93880 -0.28471 0.19389
vn -0.96135 -0.25069 0.11387
vn -0.76013 -0.63425 0.14118
vn -0.81215 -0.53957 0.22198
vn -0.82553 0.54592 0.14304
vn -0.97244 0.16637 0.16333
vn -0.60887 -0.79078 0.06280
vn -0.71403 -0.68279 0.15481
vn -0.81232 -0.52858 0.24644
vn -0.95814 -0.24676 0.14518
vn -0.93631 -0.28420 0.20630
vn -0.97779 0.17407 0.11676
vn -0.97503 0.19605 -0.10431
vn -0.92188 0.31829 0.22097
vn -0.91491 0.40307 0.02203
vn -0.74836 0.64249 -0.16480
vn -0.84858 0.49457 0.18794
vn -0.90173 0.27405 0.33432
vn -0.93625 0.35130 -0.00452
vn -0.94472 0.26473 0.19345
vn -0.90650 0.42172 0.02018
vn -0.92397 0.26874 0.27213
vn -0.95714 -0.19142 0.21737
vn -0.81493 -0.52933 0.23602
vn -0.70121 -0.71179 0.04075
vn -0.92546 -0.35501 0.13223
vn -0.79273 0.51374 0.32809
vn -0.69233 -0.50169 0.51864
vn -0.71613 -0.27092 -0.64324
vn -0.67328 0.44520 -0.59033
vn -0.97423 -0.01894 -0.22474
vn -0.92652 0.31256 -0.20943
vn -0.86812 0.45952 -0.18765
vn -0.94365 0.32902 -0.03568
vn -0.97818 0.17636 -0.10984
vn -0.93438 0.18789 -0.30272
vn -0.98967 0.10621 0.09633
vn -0.96290 -0.21075 0.16852
vn -0.79265 -0.59360 0.13908
vn -0.21526 0.96501 -0.14972
vn -0.53659 -0.43713 -0.72180
vn -0.21526 0.96501 -0.14972
vn -0.53659 -0.43713 -0.72180
vn 0.00341 0.99590 -0.09043
vn -0.69233 -0.50169 0.51864
vn -0.21313 -0.72015 0.66027
vn -0.25704 0.60346 0.75483
vn -0.79273 0.51374 0.32809
vn -0.15485 0.98490 -0.07747
vn -0.73566 0.66331 -0.13716
vn -0.13385 -0.46339 -0.87599
vn -0.71613 -0.27092 -0.64324
vn -0.67328 0.44520 -0.59033
vn -0.00901 0.63234 -0.77464
vn -0.18449 -0.98210 -0.03803
vn -0.40013 -0.89555 -0.19464
vn -0.80377 -0.47706 -0.35549
vn -0.40013 -0.89555 -0.19464
vn -0.61273 -0.76696 -0.19062
vn -0.67049 0.56791 -0.47740
vn -0.59709 0.66147 -0.45380
vn -0.88490 0.35737 -0.29874
vn -0.92692 0.15639 -0.34113
vn -0.79948 -0.51164 -0.31474
vn -0.98264 -0.04533 -0.17990
vn -0.81146 0.58440 -0.00333
vn -0.77247 0.60096 -0.20528
vn -0.43379 0.89785 -0.07537
vn -0.59134 0.77023 -0.23888
vn -0.76091 0.60227 -0.24141
vn -0.89862 -0.25528 -0.35680
vn -0.72040 0.03464 -0.69270
vn -0.80377 -0.47706 -0.35549
vn 0.24697 -0.62779 0.73817
vn 0.33816 0.49485 0.80048
vn -0.69233 -0.50169 0.51864
vn -0.05819 0.99680 0.05480
vn 0.00176 0.63736 -0.77057
vn -0.02875 -0.74839 -0.66264
vn -0.08105 -0.99626 0.02999
vn -0.21313 -0.72015 0.66027
vn 0.24697 -0.62779 0.73817
vn -0.29396 -0.36859 -0.88189
vn -0.02237 -0.99673 0.07760
vn -0.20849 0.88679 -0.41248
vn -0.06078 0.99801 0.01668
vn 0.06522 0.78092 0.62122
vn 0.12675 -0.37243 0.91936
vn 0.12675 -0.37243 0.91936
vn -0.47580 0.78881 -0.38910
vn -0.90364 0.07620 0.42146
vn -0.87670 0.34253 0.33776
vn 0.00341 0.99590 -0.09043
vn -0.47653 -0.87631 -0.07068
vn -0.51162 -0.84661 -0.14659
vn -0.91821 -0.31625 0.23850
vn -0.81786 0.57120 0.06954
vn -0.98587 -0.09913 0.13506
vn -0.95187 -0.26563 -0.15289
vn -0.28959 -0.83171 -0.47371
vn -0.94168 -0.27387 -0.19552
vn -0.57863 -0.79429 -0.18518
vn -0.96857 -0.24320 0.05232
vn -0.92917 -0.09928 0.35606
vn -0.90419 -0.39458 -0.16356
vn -0.87122 -0.20452 0.44625
vn -0.34225 -0.85205 -0.39607
vn -0.23587 -0.85973 -0.45302
vn -0.23587 -0.85973 -0.45302
vn -0.88725 -0.45361 0.08376
vn -0.99451 0.04979 0.09201
vn -0.84532 0.49911 -0.19061
vn -0.84532 0.49911 -0.19061
vn -0.97782 0.19245 -0.08260
vn -0.99451 0.04979 0.09201
vn -0.99350 -0.03068 0.10961
vn -0.88725 -0.45361 0.08376
vn -0.95285 -0.27514 -0.12795
vn -0.98502 0.15724 0.07076
vn -0.97156 0.00920 0.23660
vn -0.98357 -0.00876 0.18032
vn -0.98368 -0.14308 0.10911
vn -0.43379 0.89785 -0.07537
vn -0.24687 0.83462 0.49241
vn -0.36277 0.90737 -0.21234
vn -0.72036 0.54853 -0.42450
vn -0.14225 -0.97278 -0.18293
vn -0.34691 -0.57602 0.74017
vn -0.70414 -0.16846 0.68979
vn -0.13517 -0.98753 0.08070
vn -0.34691 -0.57602 0.74017
vn -0.70414 -0.16846 0.68979
vn -0.12609 -0.97517 0.18206
vn -0.86568 0.10226 0.49004
vn -0.34225 -0.85205 -0.39607
vn -0.28959 -0.83171 -0.47371
vn -0.80368 -0.06791 -0.59118
vn -0.80368 -0.06791 -0.59118
vn -0.80368 -0.06791 -0.59118
vn -0.35991 -0.74745 0.55838
vn 0.92730 -0.21027 0.30968
vn 0.53890 0.38497 -0.74926
vn -0.79225 0.44180 -0.42088
vn -0.74148 0.41378 -0.52820
vn 0.63837 0.51563 -0.57150
vn 0.87208 0.33881 -0.35310
vn -0.95262 -0.24800 0.17610
vn -0.96120 -0.19657 0.19353
vn -0.12519 -0.79533 0.59311
vn -0.13308 -0.73714 0.66251
vn 0.91558 -0.28011 0.28853
vn 0.88544 -0.37131 0.27950
vn -0.71034 0.28362 -0.64419
vn -0.14145 -0.55431 0.82020
vn -0.96202 -0.15938 0.22161
vn -0.13308 -0.73714 0.66251
vn -0.12519 -0.79533 0.59311
vn -0.14145 -0.55431 0.82020
vn 0.44790 -0.67049 -0.59146
vn 0.83302 -0.33666 -0.43903
vn -0.55726 -0.55657 -0.61619
vn -0.89489 -0.31983 -0.31126
vn 0.97839 0.18195 0.09819
vn 0.91683 0.31825 0.24113
vn 0.14103 0.81509 0.56191
vn 0.14264 0.73085 0.66747
vn -0.88629 0.36542 0.28453
vn -0.89816 0.36711 0.24196
vn 0.37073 0.83210 0.41250
vn 0.14264 0.73085 0.66747
vn 0.14103 0.81509 0.56191
vn -0.90706 -0.05776 -0.41703
vn -0.90706 -0.05776 -0.41703
vn -0.90706 -0.05776 -0.41703
vn -0.87757 0.00328 -0.47944
vn -0.87757 0.00328 -0.47944
vn -0.87757 0.00328 -0.47944
vn -0.96395 0.00002 -0.26609
vn -0.96395 0.00002 -0.26609
vn -0.96395 0.00002 -0.26609
vn -0.67648 0.05945 -0.73406
vn -0.67648 0.05945 -0.73406
vn -0.67648 0.05945 -0.73406
vn -0.83963 -0.14890 -0.52235
vn -0.83963 -0.14890 -0.52235
vn -0.83963 -0.14890 -0.52235
vn -0.74238 -0.09670 -0.66296
vn -0.74238 -0.09670 -0.66296
vn -0.74238 -0.09670 -0.66296
vn -0.65760 -0.00786 -0.75333
vn -0.65760 -0.00786 -0.75333
vn -0.65760 -0.00786 -0.75333
vn -0.94365 0.32902 -0.03568
vn -0.81146 0.58440 -0.00333
vn -0.70876 0.67580 -0.20237
vn -0.46508 0.85747 -0.22009
vn -0.54103 0.84050 0.02920
vn -0.66129 0.74182 0.11134
vn -0.88841 0.35379 -0.29250
vn -0.76254 0.48322 -0.43016
vn -0.88967 0.44230 -0.11338
vn -0.70945 0.57311 -0.41014
vn -0.62007 0.63920 -0.45491
vn -0.79464 0.60286 0.07152
vn -0.43391 0.80776 -0.39905
f 484/484/484 485/485/485 482/482/482
f 490/490/490 480/480/480 493/493/493
f 493/493/493 495/495/495 490/490/490
f 491/491/491 490/490/490 495/495/495
f 490/490/490 491/491/491 485/485/485
f 495/495/495 496/496/496 491/491/491
f 486/486/486 488/488/488 489/489/489
f 246/246/246 247/247/247 248/248/248
f 257/257/257 245/245/245 255/255/255
f 255/255/255 260/260/260 257/257/257
f 260/260/260 255/255/255 254/254/254
f 247/247/247 254/254/254 255/255/255
f 254/254/254 259/259/259 260/260/260
f 252/252/252 253/253/253 251/251/251
f 266/266/266 262/262/262 265/265/265
f 264/264/264 265/265/265 262/262/262
f 262/262/262 263/263/263 264/264/264
f 268/268/268 266/266/266 267/267/267
f 265/265/265 267/267/267 266/266/266
f 267/267/267 265/265/265 272/272/272
f 265/265/265 264/264/264 272/272/272
f 264/264/264 271/271/271 272/272/272
f 271/271/271 264/264/264 263/263/263
f 263/263/263 270/270/270 271/271/271
f 271/271/271 270/270/270 274/274/274
f 274/274/274 273/273/273 271/271/271
f 271/271/271 273/273/273 272/272/272
f 272/272/272 269/269/269 267/267/267
f 267/267/267 269/269/269 268/268/268
f 499/499/499 498/498/498 502/502/502
f 500/500/500 501/501/501 498/498/498
f 498/498/498 499/499/499 500/500/500
f 503/503/503 508/508/508 499/499/499
f 499/499/499 508/508/508 500/500/500
f 502/502/502 503/503/503 499/499/499
f 503/503/503 502/502/502 504/504/504
f 508/508/508 503/503/503 505/505/505
f 504/504/504 505/505/505 503/503/503
f 500/500/500 508/508/508 506/506/506
f 506/506/506 508/508/508 509/509/509
f 501/501/501 500/500/500 506/506/506
f 506/506/506 507/507/507 501/501/501
f 506/506/506 509/509/509 510/510/510
f 510/510/510 507/507/507 506/506/506
f 88/88/88 89/89/89 86/86/86
f 86/86/86 87/87/87 88/88/88
f 120/120/120 118/118/118 88/88/88
f 88/88/88 91/91/91 120/120/120
f 88/88/88 118/118/118 117/117/117
f 117/117/117 89/89/89 88/88/88
f 91/91/91 88/88/88 87/87/87
f 87/87/87 90/90/90 91/91/91
f 121/121/121 120/120/120 91/91/91
f 91/91/91 93/93/93 121/121/121
f 93/93/93 91/91/91 90/90/90
f 130/130/130 118/118/118 120/120/120
f 120/120/120 129/129/129 130/130/130
f 129/129/129 120/120/120 121/121/121
f 131/131/131 117/117/117 118/118/118
f 118/118/118 130/130/130 131/131/131
f 131/131/131 130/130/130 215/215/215
f 215/215/215 130/130/130 129/129/129
f 386/386/386 387/387/387 384/384/384
f 384/384/384 385/385/385 386/386/386
f 416/416/416 388/388/388 386/386/386
f 386/386/386 414/414/414 416/416/416
f 386/386/386 385/385/385 413/413/413
f 413/413/413 414/414/414 386/386/386
f 387/387/387 386/386/386 388/388/388
f 388/388/388 389/389/389 387/387/387
f 417/417/417 393/393/393 388/388/388
f 388/388/388 416/416/416 417/417/417
f 389/389/389 388/388/388 393/393/393
f 426/426/426 425/425/425 416/416/416
f 416/416/416 414/414/414 426/426/426
f 417/417/417 416/416/416 425/425/425
f 427/427/427 426/426/426 414/414/414
f 414/414/414 413/413/413 427/427/427
f 463/463/463 426/426/426 427/427/427
f 463/463/463 425/425/425 426/426/426
f 453/453/453 458/458/458 459/459/459
f 458/458/458 453/453/453 187/187/187
f 454/454/454 452/452/452 453/453/453
f 187/187/187 453/453/453 452/452/452
f 458/458/458 237/237/237 196/196/196
f 187/187/187 237/237/237 458/458/458
f 195/195/195 458/458/458 196/196/196
f 452/452/452 188/188/188 187/187/187
f 186/186/186 185/185/185 189/189/189
f 187/187/187 188/188/188 185/185/185
f 185/185/185 186/186/186 187/187/187
f 186/186/186 190/190/190 199/199/199
f 199/199/199 197/197/197 186/186/186
f 187/187/187 186/186/186 197/197/197
f 189/189/189 190/190/190 186/186/186
f 190/190/190 189/189/189 191/191/191
f 199/199/199 190/190/190 192/192/192
f 191/191/191 192/192/192 190/190/190
f 192/192/192 200/200/200 199/199/199
f 198/198/198 199/199/199 200/200/200
f 197/197/197 199/199/199 198/198/198
f 197/197/197 196/196/196 237/237/237
f 197/197/197 237/237/237 187/187/187
f 198/198/198 195/195/195 197/197/197
f 195/195/195 196/196/196 197/197/197
f 460/460/460 459/459/459 198/198/198
f 353/353/353 339/339/339 357/357/357
f 357/357/357 227/227/227 232/232/232
f 54/54/54 232/232/232 227/227/227
f 227/227/227 34/34/34 54/54/54
f 50/50/50 54/54/54 34/34/34
f 50/50/50 34/34/34 32/32/32
f 40/40/40 32/32/32 51/51/51
f 50/50/50 32/32/32 40/40/40
f 51/51/51 7/7/7 40/40/40
f 20/20/20 19/19/19 40/40/40
f 40/40/40 39/39/39 20/20/20
f 40/40/40 19/19/19 50/50/50
f 39/39/39 40/40/40 7/7/7
f 51/51/51 52/52/52 7/7/7
f 7/7/7 52/52/52 8/8/8
f 7/7/7 8/8/8 6/6/6
f 297/297/297 8/8/8 206/206/206
f 8/8/8 297/297/297 296/296/296
f 296/296/296 6/6/6 8/8/8
f 60/60/60 20/20/20 39/39/39
f 39/39/39 45/45/45 60/60/60
f 35/35/35 60/60/60 59/59/59
f 18/18/18 20/20/20 60/60/60
f 60/60/60 35/35/35 18/18/18
f 59/59/59 60/60/60 45/45/45
f 45/45/45 43/43/43 59/59/59
f 36/36/36 59/59/59 61/61/61
f 59/59/59 36/36/36 35/35/35
f 61/61/61 59/59/59 43/43/43
f 43/43/43 42/42/42 61/61/61
f 41/41/41 42/42/42 43/43/43
f 166/166/166 42/42/42 168/168/168
f 42/42/42 156/156/156 167/167/167
f 167/167/167 168/168/168 42/42/42
f 165/165/165 42/42/42 166/166/166
f 61/61/61 42/42/42 165/165/165
f 156/156/156 42/42/42 41/41/41
f 440/440/440 298/298/298 41/41/41
f 440/440/440 41/41/41 348/348/348
f 347/347/347 348/348/348 41/41/41
f 156/156/156 41/41/41 298/298/298
f 167/167/167 156/156/156 298/298/298
f 298/298/298 170/170/170 167/167/167
f 168/168/168 167/167/167 170/170/170
f 170/170/170 169/169/169 168/168/168
f 6/6/6 5/5/5 7/7/7
f 46/46/46 45/45/45 39/39/39
f 46/46/46 44/44/44 43/43/43
f 43/43/43 45/45/45 46/46/46
f 44/44/44 141/141/141 160/160/160
f 160/160/160 41/41/41 44/44/44
f 43/43/43 44/44/44 41/41/41
f 141/141/141 142/142/142 158/158/158
f 158/158/158 160/160/160 141/141/141
f 346/346/346 41/41/41 160/160/160
f 160/160/160 433/433/433 346/346/346
f 433/433/433 160/160/160 158/158/158
f 158/158/158 434/434/434 433/433/433
f 434/434/434 158/158/158 157/157/157
f 157/157/157 158/158/158 142/142/142
f 365/365/365 433/433/433 434/434/434
f 346/346/346 433/433/433 365/365/365
f 365/365/365 349/349/349 346/346/346
f 347/347/347 346/346/346 349/349/349
f 41/41/41 346/346/346 347/347/347
f 434/434/434 398/398/398 365/365/365
f 365/365/365 313/313/313 316/316/316
f 316/316/316 349/349/349 365/365/365
f 367/367/367 365/365/365 398/398/398
f 365/365/365 367/367/367 366/366/366
f 313/313/313 365/365/365 366/366/366
f 396/396/396 398/398/398 434/434/434
f 434/434/434 441/441/441 396/396/396
f 437/437/437 443/443/443 442/442/442
f 437/437/437 435/435/435 151/151/151
f 37/37/37 38/38/38 35/35/35
f 35/35/35 36/36/36 37/37/37
f 148/148/148 75/75/75 37/37/37
f 37/37/37 144/144/144 148/148/148
f 144/144/144 37/37/37 36/36/36
f 180/180/180 75/75/75 148/148/148
f 148/148/148 181/181/181 180/180/180
f 449/449/449 181/181/181 148/148/148
f 435/435/435 144/144/144 151/151/151
f 143/143/143 151/151/151 144/144/144
f 36/36/36 143/143/143 144/144/144
f 61/61/61 143/143/143 36/36/36
f 149/149/149 151/151/151 143/143/143
f 149/149/149 143/143/143 61/61/61
f 165/165/165 161/161/161 61/61/61
f 162/162/162 150/150/150 61/61/61
f 61/61/61 161/161/161 162/162/162
f 61/61/61 150/150/150 149/149/149
f 151/151/151 149/149/149 164/164/164
f 149/149/149 150/150/150 163/163/163
f 163/163/163 164/164/164 149/149/149
f 150/150/150 162/162/162 171/171/171
f 171/171/171 163/163/163 150/150/150
f 171/171/171 162/162/162 438/438/438
f 162/162/162 161/161/161 364/364/364
f 157/157/157 441/441/441 434/434/434
f 142/142/142 159/159/159 157/157/157
f 98/98/98 159/159/159 142/142/142
f 142/142/142 99/99/99 98/98/98
f 65/65/65 98/98/98 99/99/99
f 65/65/65 4/4/4 98/98/98
f 64/64/64 100/100/100 99/99/99
f 99/99/99 100/100/100 65/65/65
f 65/65/65 66/66/66 4/4/4
f 398/398/398 396/396/396 368/368/368
f 368/368/368 396/396/396 314/314/314
f 398/398/398 397/397/397 367/367/367
f 368/368/368 397/397/397 398/398/398
f 368/368/368 314/314/314 369/369/369
f 369/369/369 314/314/314 311/311/311
f 311/311/311 314/314/314 312/312/312
f 313/313/313 366/366/366 311/311/311
f 311/311/311 312/312/312 313/313/313
f 313/313/313 312/312/312 532/532/532
f 532/532/532 315/315/315 313/313/313
f 313/313/313 315/315/315 316/316/316
f 318/318/318 315/315/315 532/532/532
f 532/532/532 533/533/533 318/318/318
f 315/315/315 318/318/318 317/317/317
f 317/317/317 316/316/316 315/315/315
f 349/349/349 316/316/316 345/345/345
f 345/345/345 316/316/316 317/317/317
f 317/317/317 318/318/318 355/355/355
f 354/354/354 317/317/317 355/355/355
f 344/344/344 317/317/317 354/354/354
f 317/317/317 344/344/344 345/345/345
f 533/533/533 462/462/462 318/318/318
f 318/318/318 135/135/135 355/355/355
f 135/135/135 318/318/318 462/462/462
f 462/462/462 207/207/207 135/135/135
f 355/355/355 135/135/135 134/134/134
f 8/8/8 52/52/52 135/135/135
f 135/135/135 207/207/207 206/206/206
f 206/206/206 8/8/8 135/135/135
f 52/52/52 134/134/134 135/135/135
f 355/355/355 352/352/352 351/351/351
f 351/351/351 354/354/354 355/355/355
f 136/136/136 352/352/352 355/355/355
f 355/355/355 134/134/134 136/136/136
f 136/136/136 134/134/134 52/52/52
f 48/48/48 352/352/352 136/136/136
f 48/48/48 136/136/136 49/49/49
f 52/52/52 49/49/49 136/136/136
f 351/351/351 352/352/352 48/48/48
f 351/351/351 48/48/48 205/205/205
f 358/358/358 351/351/351 205/205/205
f 354/354/354 351/351/351 358/358/358
f 47/47/47 205/205/205 48/48/48
f 2/2/2 1/1/1 62/62/62
f 66/66/66 1/1/1 4/4/4
f 1/1/1 3/3/3 4/4/4
f 1/1/1 2/2/2 3/3/3
f 2/2/2 6/6/6 296/296/296
f 296/296/296 3/3/3 2/2/2
f 5/5/5 2/2/2 63/63/63
f 2/2/2 62/62/62 63/63/63
f 2/2/2 5/5/5 6/6/6
f 63/63/63 62/62/62 64/64/64
f 142/142/142 141/141/141 63/63/63
f 63/63/63 99/99/99 142/142/142
f 44/44/44 46/46/46 63/63/63
f 63/63/63 141/141/141 44/44/44
f 63/63/63 46/46/46 5/5/5
f 99/99/99 63/63/63 64/64/64
f 39/39/39 5/5/5 46/46/46
f 7/7/7 5/5/5 39/39/39
f 350/350/350 362/362/362 363/363/363
f 362/362/362 350/350/350 345/345/345
f 345/345/345 350/350/350 349/349/349
f 326/326/326 340/340/340 362/362/362
f 362/362/362 329/329/329 326/326/326
f 345/345/345 329/329/329 362/362/362
f 325/325/325 341/341/341 340/340/340
f 340/340/340 326/326/326 325/325/325
f 342/342/342 343/343/343 340/340/340
f 340/340/340 341/341/341 342/342/342
f 343/343/343 435/435/435 364/364/364
f 144/144/144 435/435/435 343/343/343
f 343/343/343 342/342/342 144/144/144
f 148/148/148 144/144/144 342/342/342
f 342/342/342 378/378/378 148/148/148
f 378/378/378 342/342/342 341/341/341
f 341/341/341 377/377/377 378/378/378
f 341/341/341 325/325/325 376/376/376
f 376/376/376 377/377/377 341/341/341
f 378/378/378 377/377/377 449/449/449
f 148/148/148 378/378/378 449/449/449
f 377/377/377 376/376/376 450/450/450
f 450/450/450 449/449/449 377/377/377
f 450/450/450 376/376/376 436/436/436
f 436/436/436 376/376/376 325/325/325
f 436/436/436 451/451/451 450/450/450
f 436/436/436 147/147/147 184/184/184
f 184/184/184 451/451/451 436/436/436
f 147/147/147 436/436/436 328/328/328
f 325/325/325 328/328/328 436/436/436
f 327/327/327 328/328/328 325/325/325
f 325/325/325 326/326/326 327/327/327
f 328/328/328 146/146/146 147/147/147
f 328/328/328 327/327/327 30/30/30
f 30/30/30 146/146/146 328/328/328
f 184/184/184 147/147/147 145/145/145
f 16/16/16 145/145/145 147/147/147
f 147/147/147 146/146/146 16/16/16
f 145/145/145 183/183/183 184/184/184
f 182/182/182 183/183/183 145/145/145
f 145/145/145 73/73/73 182/182/182
f 15/15/15 73/73/73 145/145/145
f 145/145/145 16/16/16 15/15/15
f 16/16/16 146/146/146 30/30/30
f 30/30/30 17/17/17 16/16/16
f 15/15/15 16/16/16 17/17/17
f 28/28/28 30/30/30 327/327/327
f 17/17/17 30/30/30 28/28/28
f 17/17/17 29/29/29 19/19/19
f 28/28/28 29/29/29 17/17/17
f 18/18/18 17/17/17 19/19/19
f 17/17/17 18/18/18 15/15/15
f 73/73/73 15/15/15 38/38/38
f 15/15/15 18/18/18 35/35/35
f 35/35/35 38/38/38 15/15/15
f 182/182/182 73/73/73 74/74/74
f 38/38/38 74/74/74 73/73/73
f 74/74/74 180/180/180 182/182/182
f 75/75/75 180/180/180 74/74/74
f 75/75/75 74/74/74 38/38/38
f 38/38/38 37/37/37 75/75/75
f 258/258/258 243/243/243 261/261/261
f 243/243/243 258/258/258 256/256/256
f 245/245/245 257/257/257 243/243/243
f 243/243/243 256/256/256 244/244/244
f 243/243/243 244/244/244 245/245/245
f 250/250/250 258/258/258 261/261/261
f 249/249/249 256/256/256 258/258/258
f 258/258/258 250/250/250 249/249/249
f 261/261/261 252/252/252 250/250/250
f 251/251/251 250/250/250 252/252/252
f 250/250/250 251/251/251 246/246/246
f 246/246/246 249/249/249 250/250/250
f 244/244/244 256/256/256 249/249/249
f 249/249/249 248/248/248 244/244/244
f 248/248/248 249/249/249 246/246/246
f 245/245/245 244/244/244 248/248/248
f 248/248/248 255/255/255 245/245/245
f 255/255/255 248/248/248 247/247/247
f 494/494/494 497/497/497 479/479/479
f 479/479/479 492/492/492 494/494/494
f 480/480/480 479/479/479 493/493/493
f 479/479/479 481/481/481 492/492/492
f 479/479/479 480/480/480 481/481/481
f 497/497/497 494/494/494 487/487/487
f 483/483/483 487/487/487 494/494/494
f 494/494/494 492/492/492 483/483/483
f 487/487/487 489/489/489 497/497/497
f 489/489/489 487/487/487 486/486/486
f 487/487/487 483/483/483 482/482/482
f 482/482/482 486/486/486 487/487/487
f 481/481/481 484/484/484 483/483/483
f 483/483/483 492/492/492 481/481/481
f 482/482/482 483/483/483 484/484/484
f 484/484/484 481/481/481 480/480/480
f 480/480/480 490/490/490 484/484/484
f 485/485/485 484/484/484 490/490/490
f 198/198/198 201/201/201 460/460/460
f 458/458/458 195/195/195 198/198/198
f 198/198/198 459/459/459 458/458/458
f 200/200/200 201/201/201 198/198/198
f 194/194/194 202/202/202 200/200/200
f 200/200/200 192/192/192 194/194/194
f 201/201/201 200/200/200 202/202/202
f 201/201/201 203/203/203 461/461/461
f 461/461/461 460/460/460 201/201/201
f 202/202/202 203/203/203 201/201/201
f 194/194/194 457/457/457 460/460/460
f 460/460/460 461/461/461 194/194/194
f 459/459/459 460/460/460 457/457/457
f 461/461/461 239/239/239 194/194/194
f 457/457/457 194/194/194 193/193/193
f 202/202/202 194/194/194 239/239/239
f 193/193/193 194/194/194 192/192/192
f 238/238/238 202/202/202 239/239/239
f 203/203/203 202/202/202 238/238/238
f 203/203/203 238/238/238 461/461/461
f 238/238/238 239/239/239 461/461/461
f 192/192/192 191/191/191 193/193/193
f 193/193/193 456/456/456 457/457/457
f 457/457/457 455/455/455 459/459/459
f 455/455/455 457/457/457 456/456/456
f 456/456/456 454/454/454 455/455/455
f 459/459/459 455/455/455 453/453/453
f 453/453/453 455/455/455 454/454/454
f 168/168/168 169/169/169 166/166/166
f 444/444/444 170/170/170 298/298/298
f 170/170/170 444/444/444 445/445/445
f 445/445/445 169/169/169 170/170/170
f 298/298/298 440/440/440 444/444/444
f 444/444/444 440/440/440 348/348/348
f 348/348/348 445/445/445 444/444/444
f 166/166/166 169/169/169 445/445/445
f 445/445/445 348/348/348 166/166/166
f 165/165/165 166/166/166 348/348/348
f 165/165/165 348/348/348 364/364/364
f 364/364/364 348/348/348 347/347/347
f 347/347/347 363/363/363 364/364/364
f 363/363/363 347/347/347 350/350/350
f 349/349/349 350/350/350 347/347/347
f 364/364/364 363/363/363 343/343/343
f 340/340/340 343/343/343 363/363/363
f 363/363/363 362/362/362 340/340/340
f 208/208/208 55/55/55 56/56/56
f 55/55/55 51/51/51 56/56/56
f 209/209/209 56/56/56 58/58/58
f 58/58/58 56/56/56 51/51/51
f 209/209/209 210/210/210 360/360/360
f 58/58/58 210/210/210 209/209/209
f 360/360/360 210/210/210 211/211/211
f 360/360/360 211/211/211 361/361/361
f 338/338/338 360/360/360 361/361/361
f 58/58/58 211/211/211 210/210/210
f 58/58/58 57/57/57 211/211/211
f 51/51/51 32/32/32 58/58/58
f 32/32/32 57/57/57 58/58/58
f 211/211/211 213/213/213 361/361/361
f 105/105/105 102/102/102 115/115/115
f 115/115/115 106/106/106 105/105/105
f 67/67/67 70/70/70 105/105/105
f 105/105/105 106/106/106 13/13/13
f 13/13/13 67/67/67 105/105/105
f 113/113/113 70/70/70 69/69/69
f 69/69/69 70/70/70 67/67/67
f 110/110/110 133/133/133 113/113/113
f 110/110/110 113/113/113 108/108/108
f 69/69/69 108/108/108 113/113/113
f 133/133/133 110/110/110 109/109/109
f 111/111/111 110/110/110 108/108/108
f 109/109/109 110/110/110 111/111/111
f 108/108/108 107/107/107 111/111/111
f 68/68/68 108/108/108 69/69/69
f 107/107/107 108/108/108 68/68/68
f 67/67/67 68/68/68 69/69/69
f 319/319/319 320/320/320 321/321/321
f 84/84/84 332/332/332 331/331/331
f 323/323/323 320/320/320 331/331/331
f 331/331/331 332/332/332 323/323/323
f 332/332/332 84/84/84 83/83/83
f 83/83/83 84/84/84 22/22/22
f 323/323/323 332/332/332 383/383/383
f 83/83/83 383/383/383 332/332/332
f 383/383/383 379/379/379 323/323/323
f 324/324/324 323/323/323 379/379/379
f 323/323/323 324/324/324 321/321/321
f 321/321/321 320/320/320 323/323/323
f 321/321/321 324/324/324 333/333/333
f 322/322/322 321/321/321 333/333/333
f 324/324/324 370/370/370 333/333/333
f 403/403/403 324/324/324 380/380/380
f 404/404/404 370/370/370 324/324/324
f 324/324/324 403/403/403 404/404/404
f 379/379/379 380/380/380 324/324/324
f 333/333/333 412/412/412 334/334/334
f 412/412/412 333/333/333 375/375/375
f 333/333/333 370/370/370 374/374/374
f 374/374/374 375/375/375 333/333/333
f 333/333/333 334/334/334 322/322/322
f 370/370/370 373/373/373 374/374/374
f 370/370/370 404/404/404 371/371/371
f 372/372/372 373/373/373 370/370/370
f 370/370/370 371/371/371 372/372/372
f 230/230/230 228/228/228 138/138/138
f 229/229/229 431/431/431 231/231/231
f 431/431/431 473/473/473 230/230/230
f 230/230/230 231/231/231 431/431/431
f 431/431/431 430/430/430 353/353/353
f 353/353/353 473/473/473 431/431/431
f 430/430/430 335/335/335 353/353/353
f 327/327/327 330/330/330 335/335/335
f 330/330/330 353/353/353 335/335/335
f 330/330/330 327/327/327 326/326/326
f 344/344/344 330/330/330 329/329/329
f 353/353/353 330/330/330 344/344/344
f 326/326/326 329/329/329 330/330/330
f 353/353/353 356/356/356 473/473/473
f 356/356/356 353/353/353 357/357/357
f 310/310/310 230/230/230 473/473/473
f 310/310/310 473/473/473 356/356/356
f 310/310/310 228/228/228 230/230/230
f 233/233/233 310/310/310 356/356/356
f 233/233/233 53/53/53 310/310/310
f 310/310/310 53/53/53 228/228/228
f 356/356/356 357/357/357 232/232/232
f 232/232/232 233/233/233 356/356/356
f 53/53/53 233/233/233 232/232/232
f 232/232/232 54/54/54 53/53/53
f 329/329/329 345/345/345 344/344/344
f 111/111/111 112/112/112 109/109/109
f 109/109/109 112/112/112 407/407/407
f 281/281/281 282/282/282 283/283/283
f 517/517/517 518/518/518 519/519/519
f 67/67/67 71/71/71 68/68/68
f 13/13/13 25/25/25 67/67/67
f 71/71/71 67/67/67 25/25/25
f 25/25/25 72/72/72 71/71/71
f 25/25/25 26/26/26 116/116/116
f 116/116/116 72/72/72 25/25/25
f 11/11/11 25/25/25 13/13/13
f 10/10/10 26/26/26 25/25/25
f 25/25/25 11/11/11 10/10/10
f 23/23/23 27/27/27 26/26/26
f 26/26/26 10/10/10 23/23/23
f 23/23/23 322/322/322 334/334/334
f 334/334/334 27/27/27 23/23/23
f 76/76/76 13/13/13 106/106/106
f 424/424/424 425/425/425 463/463/463
f 425/425/425 424/424/424 417/417/417
f 427/427/427 467/467/467 463/463/463
f 468/468/468 464/464/464 463/463/463
f 463/463/463 467/467/467 468/468/468
f 463/463/463 464/464/464 424/424/424
f 422/422/422 424/424/424 464/464/464
f 417/417/417 424/424/424 422/422/422
f 464/464/464 468/468/468 465/465/465
f 465/465/465 422/422/422 464/464/464
f 472/472/472 465/465/465 471/471/471
f 466/466/466 465/465/465 472/472/472
f 465/465/465 466/466/466 422/422/422
f 422/422/422 466/466/466 469/469/469
f 469/469/469 423/423/423 422/422/422
f 422/422/422 418/418/418 417/417/417
f 422/422/422 423/423/423 419/419/419
f 419/419/419 418/418/418 422/422/422
f 472/472/472 469/469/469 466/466/466
f 469/469/469 472/472/472 471/471/471
f 471/471/471 470/470/470 469/469/469
f 423/423/423 469/469/469 470/470/470
f 470/470/470 428/428/428 423/423/423
f 423/423/423 428/428/428 421/421/421
f 421/421/421 419/419/419 423/423/423
f 419/419/419 421/421/421 420/420/420
f 420/420/420 394/394/394 419/419/419
f 418/418/418 419/419/419 394/394/394
f 215/215/215 129/129/129 128/128/128
f 121/121/121 128/128/128 129/129/129
f 215/215/215 219/219/219 131/131/131
f 218/218/218 219/219/219 215/215/215
f 215/215/215 214/214/214 218/218/218
f 128/128/128 214/214/214 215/215/215
f 214/214/214 128/128/128 127/127/127
f 127/127/127 128/128/128 121/121/121
f 214/214/214 216/216/216 218/218/218
f 216/216/216 214/214/214 127/127/127
f 223/223/223 222/222/222 216/216/216
f 223/223/223 216/216/216 217/217/217
f 216/216/216 127/127/127 217/217/217
f 127/127/127 126/126/126 221/221/221
f 221/221/221 217/217/217 127/127/127
f 121/121/121 122/122/122 127/127/127
f 127/127/127 122/122/122 123/123/123
f 123/123/123 126/126/126 127/127/127
f 217/217/217 221/221/221 223/223/223
f 222/222/222 223/223/223 221/221/221
f 221/221/221 220/220/220 222/222/222
f 220/220/220 221/221/221 126/126/126
f 126/126/126 132/132/132 220/220/220
f 126/126/126 123/123/123 125/125/125
f 125/125/125 132/132/132 126/126/126
f 123/123/123 97/97/97 124/124/124
f 124/124/124 125/125/125 123/123/123
f 97/97/97 123/123/123 122/122/122
f 336/336/336 337/337/337 338/338/338
f 353/353/353 338/338/338 339/339/339
f 344/344/344 338/338/338 353/353/353
f 339/339/339 338/338/338 337/337/337
f 224/224/224 226/226/226 337/337/337
f 337/337/337 226/226/226 225/225/225
f 225/225/225 339/339/339 337/337/337
f 224/224/224 33/33/33 226/226/226
f 225/225/225 226/226/226 33/33/33
f 33/33/33 34/34/34 225/225/225
f 34/34/34 33/33/33 32/32/32
f 339/339/339 225/225/225 227/227/227
f 34/34/34 227/227/227 225/225/225
f 227/227/227 357/357/357 339/339/339
f 544/544/544 535/535/535 534/534/534
f 534/534/534 542/542/542 544/544/544
f 543/543/543 540/540/540 534/534/534
f 534/534/534 537/537/537 543/543/543
f 542/542/542 534/534/534 539/539/539
f 534/534/534 540/540/540 538/538/538
f 538/538/538 539/539/539 534/534/534
f 536/536/536 537/537/537 534/534/534
f 534/534/534 535/535/535 536/536/536
f 539/539/539 541/541/541 542/542/542
f 309/309/309 306/306/306 299/299/299
f 299/299/299 302/302/302 309/309/309
f 308/308/308 300/300/300 299/299/299
f 299/299/299 304/304/304 308/308/308
f 305/305/305 299/299/299 306/306/306
f 299/299/299 305/305/305 303/303/303
f 303/303/303 304/304/304 299/299/299
f 301/301/301 302/302/302 299/299/299
f 299/299/299 300/300/300 301/301/301
f 306/306/306 307/307/307 305/305/305
f 47/47/47 48/48/48 49/49/49
f 47/47/47 49/49/49 52/52/52
f 52/52/52 51/51/51 47/47/47
f 205/205/205 47/47/47 55/55/55
f 51/51/51 55/55/55 47/47/47
f 205/205/205 204/204/204 358/358/358
f 55/55/55 204/204/204 205/205/205
f 358/358/358 204/204/204 208/208/208
f 208/208/208 359/359/359 358/358/358
f 358/358/358 359/359/359 354/354/354
f 360/360/360 338/338/338 354/354/354
f 354/354/354 359/359/359 360/360/360
f 354/354/354 338/338/338 344/344/344
f 360/360/360 359/359/359 209/209/209
f 359/359/359 208/208/208 209/209/209
f 55/55/55 208/208/208 204/204/204
f 56/56/56 209/209/209 208/208/208
f 19/19/19 20/20/20 18/18/18
f 19/19/19 29/29/29 50/50/50
f 137/137/137 29/29/29 28/28/28
f 137/137/137 50/50/50 29/29/29
f 50/50/50 228/228/228 53/53/53
f 138/138/138 228/228/228 50/50/50
f 50/50/50 137/137/137 138/138/138
f 53/53/53 54/54/54 50/50/50
f 28/28/28 139/139/139 137/137/137
f 138/138/138 137/137/137 139/139/139
f 430/430/430 139/139/139 28/28/28
f 28/28/28 335/335/335 430/430/430
f 327/327/327 335/335/335 28/28/28
f 229/229/229 139/139/139 431/431/431
f 431/431/431 139/139/139 430/430/430
f 229/229/229 138/138/138 139/139/139
f 229/229/229 231/231/231 138/138/138
f 138/138/138 231/231/231 230/230/230
f 364/364/364 438/438/438 162/162/162
f 364/364/364 161/161/161 165/165/165
f 364/364/364 435/435/435 437/437/437
f 437/437/437 438/438/438 364/364/364
f 438/438/438 442/442/442 171/171/171
f 442/442/442 438/438/438 437/437/437
f 179/179/179 171/171/171 442/442/442
f 163/163/163 171/171/171 179/179/179
f 179/179/179 164/164/164 163/163/163
f 443/443/443 172/172/172 179/179/179
f 442/442/442 443/443/443 179/179/179
f 164/164/164 179/179/179 172/172/172
f 164/164/164 172/172/172 151/151/151
f 151/151/151 172/172/172 443/443/443
f 443/443/443 437/437/437 151/151/151
f 211/211/211 57/57/57 213/213/213
f 336/336/336 361/361/361 213/213/213
f 338/338/338 361/361/361 336/336/336
f 213/213/213 212/212/212 336/336/336
f 213/213/213 57/57/57 31/31/31
f 31/31/31 212/212/212 213/213/213
f 32/32/32 31/31/31 57/57/57
f 31/31/31 33/33/33 224/224/224
f 212/212/212 31/31/31 224/224/224
f 31/31/31 32/32/32 33/33/33
f 212/212/212 224/224/224 336/336/336
f 336/336/336 224/224/224 337/337/337
f 77/77/77 14/14/14 13/13/13
f 13/13/13 76/76/76 77/77/77
f 11/11/11 13/13/13 14/14/14
f 14/14/14 12/12/12 11/11/11
f 14/14/14 77/77/77 82/82/82
f 82/82/82 22/22/22 14/14/14
f 22/22/22 82/82/82 83/83/83
f 153/153/153 106/106/106 115/115/115
f 106/106/106 153/153/153 76/76/76
f 115/115/115 174/174/174 153/153/153
f 122/122/122 92/92/92 97/97/97
f 92/92/92 122/122/122 121/121/121
f 121/121/121 93/93/93 92/92/92
f 96/96/96 97/97/97 92/92/92
f 92/92/92 95/95/95 96/96/96
f 94/94/94 95/95/95 92/92/92
f 92/92/92 93/93/93 94/94/94
f 119/119/119 124/124/124 97/97/97
f 97/97/97 96/96/96 119/119/119
f 90/90/90 94/94/94 93/93/93
f 394/394/394 390/390/390 418/418/418
f 417/417/417 418/418/418 390/390/390
f 390/390/390 393/393/393 417/417/417
f 395/395/395 391/391/391 390/390/390
f 390/390/390 394/394/394 395/395/395
f 392/392/392 393/393/393 390/390/390
f 390/390/390 391/391/391 392/392/392
f 415/415/415 394/394/394 420/420/420
f 394/394/394 415/415/415 395/395/395
f 393/393/393 392/392/392 389/389/389
f 275/275/275 276/276/276 277/277/277
f 511/511/511 512/512/512 513/513/513
f 278/278/278 279/279/279 280/280/280
f 514/514/514 515/515/515 516/516/516
f 287/287/287 288/288/288 289/289/289
f 523/523/523 524/524/524 525/525/525
f 81/81/81 140/140/140 78/78/78
f 80/80/80 81/81/81 78/78/78
f 78/78/78 79/79/79 80/80/80
f 81/81/81 381/381/381 432/432/432
f 381/381/381 81/81/81 80/80/80
f 382/382/382 80/80/80 234/234/234
f 80/80/80 382/382/382 381/381/381
f 234/234/234 80/80/80 79/79/79
f 79/79/79 236/236/236 234/234/234
f 235/235/235 234/234/234 236/236/236
f 234/234/234 235/235/235 177/177/177
f 474/474/474 475/475/475 234/234/234
f 234/234/234 475/475/475 382/382/382
f 448/448/448 474/474/474 234/234/234
f 234/234/234 176/176/176 448/448/448
f 177/177/177 176/176/176 234/234/234
f 176/176/176 177/177/177 178/178/178
f 176/176/176 178/178/178 448/448/448
f 476/476/476 477/477/477 478/478/478
f 240/240/240 241/241/241 242/242/242
f 373/373/373 372/372/372 406/406/406
f 405/405/405 373/373/373 406/406/406
f 372/372/372 409/409/409 406/406/406
f 409/409/409 372/372/372 371/371/371
f 401/401/401 371/371/371 404/404/404
f 401/401/401 409/409/409 371/371/371
f 400/400/400 429/429/429 409/409/409
f 401/401/401 400/400/400 409/409/409
f 408/408/408 409/409/409 429/429/429
f 408/408/408 406/406/406 409/409/409
f 407/407/407 405/405/405 406/406/406
f 406/406/406 408/408/408 407/407/407
f 109/109/109 408/408/408 429/429/429
f 407/407/407 408/408/408 109/109/109
f 152/152/152 429/429/429 400/400/400
f 429/429/429 152/152/152 109/109/109
f 400/400/400 399/399/399 152/152/152
f 399/399/399 400/400/400 401/401/401
f 404/404/404 402/402/402 401/401/401
f 401/401/401 402/402/402 399/399/399
f 410/410/410 402/402/402 404/404/404
f 404/404/404 403/403/403 410/410/410
f 399/399/399 402/402/402 410/410/410
f 154/154/154 399/399/399 411/411/411
f 152/152/152 399/399/399 154/154/154
f 410/410/410 411/411/411 399/399/399
f 439/439/439 446/446/446 410/410/410
f 410/410/410 403/403/403 439/439/439
f 411/411/411 410/410/410 446/446/446
f 380/380/380 439/439/439 403/403/403
f 446/446/446 447/447/447 411/411/411
f 411/411/411 447/447/447 175/175/175
f 175/175/175 155/155/155 411/411/411
f 411/411/411 155/155/155 154/154/154
f 154/154/154 155/155/155 114/114/114
f 114/114/114 101/101/101 154/154/154
f 152/152/152 154/154/154 101/101/101
f 114/114/114 155/155/155 175/175/175
f 175/175/175 173/173/173 114/114/114
f 174/174/174 115/115/115 114/114/114
f 114/114/114 173/173/173 174/174/174
f 101/101/101 114/114/114 115/115/115
f 152/152/152 101/101/101 104/104/104
f 115/115/115 102/102/102 101/101/101
f 103/103/103 104/104/104 101/101/101
f 101/101/101 102/102/102 103/103/103
f 104/104/104 133/133/133 152/152/152
f 109/109/109 152/152/152 133/133/133
f 104/104/104 113/113/113 133/133/133
f 103/103/103 113/113/113 104/104/104
f 105/105/105 70/70/70 103/103/103
f 103/103/103 102/102/102 105/105/105
f 103/103/103 70/70/70 113/113/113
f 290/290/290 291/291/291 292/292/292
f 526/526/526 527/527/527 528/528/528
f 9/9/9 21/21/21 85/85/85
f 85/85/85 24/24/24 9/9/9
f 9/9/9 24/24/24 23/23/23
f 23/23/23 10/10/10 9/9/9
f 21/21/21 9/9/9 12/12/12
f 11/11/11 12/12/12 9/9/9
f 9/9/9 10/10/10 11/11/11
f 84/84/84 85/85/85 21/21/21
f 21/21/21 22/22/22 84/84/84
f 14/14/14 22/22/22 21/21/21
f 21/21/21 12/12/12 14/14/14
f 319/319/319 24/24/24 85/85/85
f 85/85/85 331/331/331 319/319/319
f 331/331/331 85/85/85 84/84/84
f 23/23/23 24/24/24 319/319/319
f 319/319/319 322/322/322 23/23/23
f 331/331/331 320/320/320 319/319/319
f 321/321/321 322/322/322 319/319/319
f 293/293/293 294/294/294 295/295/295
f 529/529/529 530/530/530 531/531/531
f 284/284/284 285/285/285 286/286/286
f 520/520/520 521/521/521 522/522/522
