# dodo_a reconstructed from live game memory
v -11.85965 69.80266 3.12220
v -0.06851 73.16586 4.82672
v -0.06851 67.73316 17.34741
v -11.96117 65.04417 16.95453
v -21.23459 24.75451 6.17768
v -22.41712 36.37393 9.28170
v -15.98334 32.89869 23.21218
v -16.06670 24.10619 13.99521
v -4.97551 89.51404 -78.24008
v -5.39183 92.40255 -72.00764
v -4.29616 87.51714 -70.61384
v -3.96966 85.16965 -77.08630
v -2.28287 85.93609 -81.31985
v -0.06851 83.53891 -82.00275
v -0.06851 87.14614 -85.13852
v -2.48679 87.72237 -82.84525
v -5.01840 94.26877 -86.31023
v -4.24206 99.72276 -84.04005
v -7.19834 96.74432 -79.68890
v -3.68409 102.13184 -74.16534
v -0.06851 103.75470 -74.91988
v -0.06851 105.74699 -69.15975
v -3.82754 104.06763 -68.61639
v -0.06851 118.37155 -49.42560
v -0.06851 114.49302 -40.69232
v -6.16810 112.59443 -42.74903
v -7.39553 116.57298 -49.95966
v -11.66241 103.80618 -54.14896
v -12.06289 97.52760 -52.73392
v -10.45762 96.98695 -59.81810
v -10.42034 102.25337 -60.88200
v -11.86802 108.77788 -53.73448
v -10.06182 111.06172 -59.19277
v -11.66652 109.95344 -49.32202
v -9.44372 106.66435 -57.77760
v -4.76318 110.75414 -65.94972
v -0.06851 112.16090 -67.06475
v -0.06851 118.08607 -59.91591
v -6.52825 115.76482 -59.53714
v -8.68951 106.86288 -63.13581
v -8.23080 104.14542 -38.70934
v -0.06851 105.54968 -35.87189
v -0.06851 96.60317 -36.19003
v -6.76830 95.33224 -38.56779
v -0.06851 87.80273 -33.49717
v -5.62829 86.47124 -35.83114
v -10.46775 26.64738 16.01924
v -10.22328 24.30697 6.11467
v -19.17103 39.02974 -3.34595
v -19.78109 50.53949 13.97015
v -12.73227 100.92403 -46.05368
v -5.06220 89.25235 -85.59456
v -0.06851 87.59177 -87.62659
v -0.06851 93.43444 -88.76777
v -5.84866 95.94607 -65.97376
v -6.81902 100.59596 -67.44247
v -3.76822 86.09157 -82.86681
v -7.63017 91.70092 -79.16193
v -6.01577 89.43339 -78.74120
v -6.94993 93.82349 -72.48890
v -6.43371 98.67014 -73.56570
v -10.31280 96.39577 -59.40574
v -7.58612 90.04347 -49.55418
v -6.47943 91.91245 -58.55518
v -9.54454 92.62701 -44.31523
v -12.97999 14.47814 7.20745
v -16.38374 14.37353 12.35636
v -5.71298 62.24325 36.14703
v -0.06851 63.27831 36.77775
v -0.06851 59.84390 40.78565
v -7.15901 58.83663 38.58541
v -0.06851 100.69669 -85.44019
v -0.06851 103.08316 -80.27930
v -3.69783 101.35187 -79.75919
v -11.64547 43.40182 27.01933
v -0.06851 40.13066 29.84356
v -0.06851 30.86962 24.97491
v -0.06851 24.30758 16.73435
v -7.37966 83.44721 -39.88188
v -16.66212 26.12001 -1.63087
v -19.74218 14.40826 7.63639
v -16.44874 14.41071 3.95226
v -12.94765 0.00669 6.05163
v -13.98684 5.35246 5.95452
v -11.88702 3.13491 3.42381
v -16.29124 5.16215 1.42786
v -13.27903 4.46801 1.61706
v -16.32472 6.55781 3.81561
v -23.81463 0.00703 0.05502
v -24.66121 0.00772 -5.32546
v -23.76141 1.34571 -6.10917
v -22.14350 3.01771 -0.79086
v -24.66121 0.00772 -5.32546
v -23.81463 0.00703 0.05502
v -19.23759 0.00708 -1.05550
v -22.18232 0.00702 -5.69079
v -19.23759 0.00708 -1.05550
v -22.18232 0.00702 -5.69079
v -16.16023 1.30310 -8.53688
v -16.24228 3.00539 -0.92168
v -17.32964 0.00666 -8.12915
v -13.32987 0.00708 -1.01370
v -14.88710 0.00666 -8.18827
v -17.32964 0.00666 -8.12915
v -13.32987 0.00708 -1.01370
v -14.88710 0.00666 -8.18827
v -10.98106 2.54974 -0.26604
v -8.46440 0.00082 -7.75731
v -9.47330 1.95836 -4.81896
v -10.71252 0.00708 -5.04804
v -8.46440 0.00082 -7.75731
v -10.71252 0.00708 -5.04804
v -8.27936 0.00703 -4.61535
v -8.91007 0.00703 0.86019
v -8.27936 0.00703 -4.61535
v -24.46582 -0.10626 -8.40235
v -24.46582 -0.10626 -8.40235
v -16.13143 -0.15020 -10.91040
v -16.13143 -0.15020 -10.91040
v -8.91007 0.00703 0.86019
v -20.62791 2.25299 3.50759
v -19.59332 4.41144 1.56738
v -19.91685 0.00661 5.82697
v -12.94765 0.00669 6.05163
v -19.91685 0.00661 5.82697
v -18.67063 5.35531 5.94232
v -13.72969 12.98759 7.30577
v -16.48148 13.14294 5.37314
v -15.86857 1.65885 11.94979
v -15.62893 2.94335 9.60428
v -12.94765 0.00669 6.05163
v -15.47063 0.00666 11.84229
v -17.65045 2.96604 9.45547
v -17.86194 1.66282 11.78496
v -18.21329 0.00661 11.48201
v -18.21329 0.00661 11.48201
v -15.47063 0.00666 11.84229
v -16.86474 0.00631 12.97241
v -16.86474 0.00631 12.97241
v -13.98684 5.35246 5.95452
v -16.48773 4.75598 8.11028
v -18.91172 13.00330 7.62754
v -16.42876 12.94801 10.64698
v -13.72969 12.98759 7.30577
v -16.42876 12.94801 10.64698
v -18.91172 13.00330 7.62754
v -16.48148 13.14294 5.37314
v -12.97999 14.47814 7.20745
v -10.22328 24.30697 6.11467
v -6.16956 74.86440 -26.02151
v -8.72987 69.84590 -30.37414
v -0.06851 85.29946 -70.19975
v -0.06851 82.50462 -76.60285
v -5.35288 95.09337 -65.68926
v -4.35928 91.34367 -64.76164
v -0.06851 22.08359 6.14269
v -11.42486 29.48306 -6.45165
v -6.33602 92.68973 -72.23899
v -7.90917 54.22774 27.06210
v -5.52219 50.30825 28.45762
v -0.06851 61.74392 24.97866
v -0.06851 64.36396 30.72648
v -7.21752 62.73301 30.63742
v -6.06316 59.84203 25.14068
v -7.90917 54.22774 27.06210
v -9.31838 56.87444 32.68545
v -6.57012 50.39764 34.51394
v -5.52219 50.30825 28.45762
v -5.43040 52.83466 38.83479
v -0.06851 52.60953 40.84162
v -0.06851 48.69454 35.07345
v -19.60324 52.68602 7.06454
v -16.68658 39.40877 -3.42639
v -16.76186 56.86019 -11.55856
v -10.67926 38.98347 -18.44782
v -8.54126 50.32125 -28.26488
v -12.87093 61.47225 -21.63766
v -11.02028 70.69919 -7.00143
v -8.59818 70.75842 -16.90616
v -0.06851 73.96149 -15.38147
v -0.06851 74.33832 -5.74573
v -0.06851 22.08359 6.14269
v -0.06851 26.44886 -7.43089
v -4.97551 89.51404 -78.24008
v -2.48679 87.72237 -82.84525
v -0.06851 86.65907 -77.62680
v -10.45762 96.98695 -59.81810
v -12.06289 97.52760 -52.73392
v -0.06851 100.54811 -52.87019
v -5.84866 95.94607 -65.97376
v -0.06851 97.97708 -71.69247
v -6.01577 89.43339 -78.74120
v -6.33602 92.68973 -72.23899
v -0.06851 92.10034 -83.69939
v -12.06289 97.52760 -52.73392
v -10.31280 96.39577 -59.40574
v -0.06851 93.55580 -50.20097
v -5.35288 95.09337 -65.68926
v -0.06851 90.97183 -67.40135
v -3.76822 86.09157 -82.86681
v -0.06851 82.50922 -84.87949
v -5.39183 92.40255 -72.00764
v -0.06850 77.31302 -24.13877
v -22.34736 48.69031 2.70988
v -26.39791 42.76064 -1.07951
v -27.73306 44.64708 -1.68861
v -23.46829 50.66184 1.94358
v -20.05538 55.79372 6.00842
v -19.60324 52.68602 7.06454
v -19.61660 52.12777 -10.58319
v -21.89843 52.76098 -8.80198
v -25.43505 46.78346 -11.46057
v -23.67251 45.84545 -13.35887
v -19.61660 52.12777 -10.58319
v -28.68854 39.65899 -6.00546
v -29.14619 41.86465 -6.06936
v -27.62890 45.83009 -7.08377
v -23.53951 52.23684 -4.22785
v -16.76186 56.86019 -11.55856
v -18.85123 58.70986 -8.85381
v -19.70648 58.71416 -1.00880
v -18.85123 58.70986 -8.85381
v -19.70648 58.71416 -1.00880
v -25.93206 41.34601 -11.89936
v -27.74809 42.69941 -10.68947
v -20.05538 55.79372 6.00842
v -13.72969 12.98759 7.30577
v -13.72969 12.98759 7.30577
v -8.59818 70.75842 -16.90616
v -12.87093 61.47225 -21.63766
v -8.54126 50.32125 -28.26488
v -0.06851 47.10293 -30.50484
v -0.06851 61.07055 -37.83411
v -6.81003 63.37057 -35.74041
v -16.76186 56.86019 -11.55856
v -23.67251 45.84545 -13.35887
v -25.93206 41.34601 -11.89936
v -5.32155 80.38412 -44.18418
v -10.24708 102.90100 -60.42628
v -10.83714 106.65429 -58.36863
v -11.15340 104.25336 -54.64279
v -11.33518 108.44894 -54.33636
v -9.82002 110.35142 -58.99363
v -8.67381 106.78505 -62.38816
v -23.46390 48.26815 -2.72773
v -25.68929 46.08522 3.05158
v -27.28295 43.62984 2.47679
v -25.85753 44.76633 -4.97565
v -28.50740 44.15092 13.94616
v -28.46287 39.24931 0.26392
v -26.45273 41.95256 2.42629
v -28.68830 37.09085 11.19846
v -27.42918 41.49719 -9.29076
v -24.79811 46.42310 -3.85578
v -26.12305 44.78662 -4.88643
v -29.91910 39.38847 2.36399
v -30.15038 36.90059 -0.88969
v -27.09038 42.18245 -9.61794
v -30.14289 36.10469 10.04305
v -29.82142 40.61453 1.27815
v -27.78057 44.08230 2.77533
v -28.68610 40.57947 14.63692
v -26.69774 43.67776 -7.22785
v -24.39699 47.86684 -3.08429
v -26.97548 45.39415 3.12540
v -25.63775 48.11539 4.69412
v -26.73199 45.80475 12.23245
v -24.78198 47.78750 -3.57545
v -22.85982 50.51809 -0.74817
v -4.43122 56.31507 35.01772
v -0.21149 61.99522 36.32639
v -5.22873 58.62116 43.77757
v -7.49940 54.90415 41.81460
v -9.92665 48.51609 51.57316
v -6.04688 55.58932 32.14793
v -4.81380 59.71162 37.07929
v -10.58153 51.54340 44.13609
v -11.01054 48.88055 41.42104
v -11.91473 45.03524 45.59248
v -10.45955 46.04670 37.12115
v -15.00925 31.34608 37.66859
v -9.17584 44.54891 31.68385
v -4.45112 55.24310 24.80458
v -1.05660 60.75726 32.97832
v -11.21588 51.00807 38.26362
v -17.74111 33.65187 40.79902
v -12.40304 46.28750 34.49696
v -4.42016 53.92111 23.52868
v -2.73264 57.79901 32.53201
v -11.42332 51.78580 40.73554
v -18.72791 39.42702 44.40110
v -12.49186 48.72758 36.68803
v -7.47470 54.13036 29.83581
v -6.10721 59.76271 34.27535
v -11.23530 54.26408 39.79223
v -6.15575 60.11520 30.02376
v -4.29351 62.43772 36.00253
v -7.38256 56.57350 43.12940
v -16.42941 45.01163 47.37772
v -3.16695 59.94061 24.84637
v -10.80349 50.85297 33.20348
v -10.34858 48.14928 29.39908
v -4.33795 50.18001 21.82203
v -14.64328 38.91119 33.88184
v -6.06316 59.84203 25.14068
v -0.06851 89.57407 -64.42253
v -0.06851 47.10293 -30.50484
v -0.06851 34.97796 -20.50690
v -0.06851 82.50922 -84.87949
v -0.06851 90.07050 -58.49931
v -0.06851 79.11801 -46.32603
v -0.06851 87.18954 -52.01226
v -0.06851 73.96149 -15.38147
v -0.06851 48.62388 29.95994
v -0.06851 48.62388 29.95994
v -0.06851 87.14614 -85.13852
v -0.06851 100.54811 -52.87019
v -12.06289 97.52760 -52.73392
v -0.06851 93.55580 -50.20097
v -0.06851 61.74392 24.97866
v 11.72263 69.80266 3.12220
v 11.82415 65.04417 16.95453
v 21.09758 24.75451 6.17768
v 15.92969 24.10619 13.99521
v 15.84633 32.89869 23.21218
v 22.28012 36.37393 9.28170
v 4.83850 89.51404 -78.24008
v 3.83264 85.16965 -77.08630
v 4.15915 87.51714 -70.61384
v 5.25481 92.40255 -72.00764
v 2.14586 85.93609 -81.31985
v 2.34978 87.72237 -82.84525
v 4.88139 94.26877 -86.31023
v 7.06133 96.74432 -79.68890
v 4.10505 99.72276 -84.04005
v 3.54708 102.13184 -74.16534
v 3.69053 104.06763 -68.61639
v 7.25852 116.57298 -49.95966
v 6.03109 112.59443 -42.74903
v 11.52539 103.80618 -54.14896
v 10.28333 102.25337 -60.88200
v 10.32061 96.98696 -59.81810
v 11.92588 97.52760 -52.73392
v 11.73101 108.77788 -53.73448
v 11.52951 109.95344 -49.32202
v 9.92481 111.06172 -59.19277
v 9.30671 106.66435 -57.77760
v 4.62617 110.75414 -65.94972
v 6.39124 115.76482 -59.53714
v 8.55250 106.86288 -63.13581
v 8.09378 104.14542 -38.70934
v 6.63129 95.33224 -38.56779
v 5.49128 86.47124 -35.83114
v 10.08627 24.30697 6.11467
v 10.33074 26.64738 16.01924
v 19.03402 39.02974 -3.34595
v 19.64408 50.53949 13.97016
v 12.59525 100.92403 -46.05368
v 4.92519 89.25235 -85.59456
v 6.68201 100.59596 -67.44247
v 5.71165 95.94607 -65.97376
v 3.63121 86.09157 -82.86681
v 5.87875 89.43339 -78.74120
v 7.49315 91.70092 -79.16193
v 6.29670 98.67014 -73.56570
v 6.81292 93.82349 -72.48890
v 10.17579 96.39577 -59.40574
v 6.34242 91.91245 -58.55518
v 7.44911 90.04347 -49.55418
v 9.40753 92.62701 -44.31523
v 16.24673 14.37353 12.35636
v 12.84298 14.47814 7.20746
v 5.57597 62.24325 36.14703
v 7.02200 58.83663 38.58541
v 3.56082 101.35187 -79.75919
v 11.50846 43.40182 27.01933
v 7.24264 83.44721 -39.88188
v 16.52511 26.12001 -1.63087
v 16.31173 14.41071 3.95226
v 19.60517 14.40826 7.63640
v 12.81064 0.00669 6.05163
v 11.75000 3.13492 3.42380
v 13.84983 5.35247 5.95452
v 16.15423 5.16216 1.42786
v 16.18771 6.55781 3.81561
v 13.14202 4.46801 1.61706
v 23.67762 0.00703 0.05502
v 22.00648 3.01772 -0.79086
v 23.62440 1.34572 -6.10918
v 24.52419 0.00773 -5.32546
v 24.52419 0.00773 -5.32546
v 22.04531 0.00703 -5.69079
v 19.10058 0.00709 -1.05550
v 23.67762 0.00703 0.05502
v 19.10058 0.00709 -1.05550
v 22.04531 0.00703 -5.69079
v 16.02321 1.30311 -8.53688
v 17.19263 0.00667 -8.12915
v 16.10526 3.00539 -0.92168
v 13.19285 0.00709 -1.01370
v 14.75009 0.00667 -8.18827
v 17.19263 0.00667 -8.12915
v 14.75009 0.00667 -8.18827
v 13.19285 0.00709 -1.01370
v 10.84404 2.54975 -0.26604
v 8.32738 0.00083 -7.75731
v 10.57551 0.00708 -5.04804
v 9.33628 1.95837 -4.81896
v 8.32738 0.00083 -7.75731
v 8.14235 0.00703 -4.61535
v 10.57551 0.00708 -5.04804
v 8.77306 0.00703 0.86019
v 8.14235 0.00703 -4.61535
v 24.32881 -0.10625 -8.40235
v 24.32881 -0.10625 -8.40235
v 15.99442 -0.15019 -10.91040
v 15.99442 -0.15019 -10.91040
v 8.77306 0.00703 0.86019
v 20.49090 2.25299 3.50759
v 19.45631 4.41144 1.56737
v 12.81064 0.00669 6.05163
v 19.77984 0.00661 5.82697
v 19.77984 0.00661 5.82697
v 18.53362 5.35531 5.94232
v 13.59268 12.98759 7.30578
v 16.34447 13.14295 5.37315
v 15.73155 1.65885 11.94979
v 15.33362 0.00666 11.84229
v 12.81064 0.00669 6.05163
v 15.49192 2.94335 9.60428
v 18.07628 0.00661 11.48201
v 17.72493 1.66282 11.78496
v 17.51344 2.96604 9.45547
v 15.33362 0.00666 11.84229
v 18.07628 0.00661 11.48201
v 16.72773 0.00631 12.97241
v 16.72773 0.00631 12.97241
v 13.84983 5.35247 5.95452
v 16.35072 4.75599 8.11028
v 16.29175 12.94801 10.64699
v 18.77471 13.00330 7.62754
v 16.29175 12.94801 10.64699
v 13.59268 12.98759 7.30578
v 16.34447 13.14295 5.37315
v 18.77471 13.00330 7.62754
v 12.84298 14.47814 7.20746
v 10.08627 24.30697 6.11467
v 6.03255 74.86440 -26.02151
v 8.59286 69.84590 -30.37413
v 5.21587 95.09337 -65.68926
v 4.22227 91.34367 -64.76164
v 11.28785 29.48306 -6.45165
v 6.19901 92.68973 -72.23899
v 5.38518 50.30825 28.45762
v 7.77216 54.22774 27.06210
v 5.92615 59.84203 25.14068
v 7.08051 62.73301 30.63742
v 7.77216 54.22774 27.06210
v 5.38518 50.30825 28.45762
v 6.43311 50.39764 34.51394
v 9.18137 56.87444 32.68545
v 5.29339 52.83466 38.83479
v 19.46623 52.68602 7.06454
v 16.62484 56.48597 -11.73811
v 16.54957 39.40877 -3.42639
v 12.73392 61.47225 -21.63766
v 8.40424 50.32125 -28.26488
v 10.54225 38.98347 -18.44782
v 10.88326 70.69919 -7.00143
v 8.46117 70.75842 -16.90616
v 4.83850 89.51404 -78.24008
v 2.34978 87.72237 -82.84525
v 10.32061 96.98696 -59.81810
v 11.92588 97.52760 -52.73392
v 5.71165 95.94607 -65.97376
v 5.87875 89.43339 -78.74120
v 6.19901 92.68973 -72.23899
v 11.92588 97.52760 -52.73392
v 10.17579 96.39577 -59.40574
v 5.21587 95.09337 -65.68926
v 3.63121 86.09157 -82.86681
v 5.25481 92.40255 -72.00764
v 22.21035 48.69031 2.70987
v 23.33128 50.66184 1.94357
v 27.59605 44.64708 -1.68862
v 26.26090 42.76064 -1.07952
v 19.46623 52.68602 7.06454
v 19.91836 55.79372 6.00842
v 19.47959 52.12777 -10.58319
v 21.76142 52.76098 -8.80198
v 19.47959 52.12777 -10.58319
v 23.53549 45.84545 -13.35888
v 25.29804 46.78346 -11.46058
v 29.00918 41.86465 -6.06937
v 28.55153 39.65899 -6.00547
v 23.40250 52.23684 -4.22786
v 27.49189 45.83009 -7.08377
v 16.62484 56.48597 -11.73811
v 18.71422 58.70986 -8.85382
v 18.71422 58.70986 -8.85382
v 19.56947 58.71416 -1.00881
v 19.56947 58.71416 -1.00881
v 27.61108 42.69941 -10.68948
v 25.79504 41.34601 -11.89937
v 19.91836 55.79372 6.00842
v 13.59268 12.98759 7.30578
v 13.59268 12.98759 7.30578
v 8.46117 70.75842 -16.90616
v 12.73392 61.47225 -21.63766
v 8.40424 50.32125 -28.26488
v 6.67302 63.37057 -35.74041
v 16.62484 56.48597 -11.73811
v 23.53549 45.84545 -13.35888
v 25.79504 41.34601 -11.89937
v 5.18454 80.38412 -44.18417
v 10.11007 102.90100 -60.42628
v 11.01639 104.25336 -54.64279
v 10.70013 106.65430 -58.36863
v 11.19817 108.44894 -54.33636
v 9.68301 110.35143 -58.99363
v 8.53679 106.78505 -62.38816
v 23.32689 48.26815 -2.72774
v 25.72051 44.76633 -4.97566
v 27.14594 43.62984 2.47678
v 25.55227 46.08522 3.05157
v 28.37039 44.15093 13.94615
v 28.32586 39.24931 0.26391
v 28.55129 37.09085 11.19845
v 26.31572 41.95257 2.42628
v 24.66109 46.42310 -3.85579
v 27.29217 41.49719 -9.29076
v 25.98604 44.78662 -4.88643
v 26.95337 42.18245 -9.61794
v 30.01337 36.90060 -0.88970
v 29.78209 39.38847 2.36399
v 30.00587 36.10469 10.04305
v 29.68441 40.61453 1.27814
v 28.54908 40.57948 14.63692
v 27.64356 44.08230 2.77532
v 24.25997 47.86684 -3.08430
v 26.56073 43.67776 -7.22786
v 26.83847 45.39415 3.12539
v 26.59498 45.80475 12.23244
v 25.50073 48.11539 4.69412
v 22.72281 50.51809 -0.74818
v 24.64497 47.78750 -3.57546
v 4.29421 56.31507 35.01772
v 7.36239 54.90415 41.81460
v 5.09172 58.62116 43.77757
v 0.07448 61.99522 36.32639
v 9.78964 48.51609 51.57316
v 5.90986 55.58932 32.14793
v 10.87353 48.88055 41.42104
v 10.44452 51.54340 44.13609
v 4.67679 59.71162 37.07929
v 11.77772 45.03524 45.59248
v 10.32254 46.04670 37.12115
v 9.03883 44.54891 31.68385
v 14.87223 31.34608 37.66859
v 0.91959 60.75726 32.97832
v 4.31411 55.24310 24.80458
v 11.07886 51.00807 38.26362
v 12.26602 46.28750 34.49696
v 17.60410 33.65187 40.79902
v 2.59563 57.79901 32.53201
v 4.28314 53.92111 23.52868
v 11.28630 51.78580 40.73554
v 12.35485 48.72758 36.68803
v 18.59089 39.42702 44.40110
v 5.97020 59.76271 34.27535
v 7.33768 54.13036 29.83581
v 11.09829 54.26408 39.79223
v 7.24555 56.57350 43.12940
v 4.15650 62.43772 36.00253
v 6.01874 60.11520 30.02376
v 16.29240 45.01163 47.37772
v 3.02993 59.94061 24.84637
v 4.20094 50.18001 21.82203
v 10.21157 48.14928 29.39908
v 10.66648 50.85297 33.20348
v 14.50626 38.91119 33.88184
v 5.92615 59.84203 25.14068
v 11.92588 97.52760 -52.73392
vt 0.812804 0.440963
vt 0.863868 0.529603
vt 0.795726 0.582137
vt 0.737576 0.497602
vt 0.511892 0.253265
vt 0.585338 0.315290
vt 0.467926 0.443690
vt 0.445859 0.322313
vt 0.512858 0.735883
vt 0.460074 0.749971
vt 0.452471 0.715015
vt 0.495791 0.700639
vt 0.526108 0.696318
vt 0.535564 0.667074
vt 0.564013 0.685693
vt 0.539869 0.711787
vt 0.548785 0.843385
vt 0.534774 0.874215
vt 0.492551 0.851104
vt 0.450627 0.895225
vt 0.459439 0.928080
vt 0.411718 0.933080
vt 0.403023 0.897050
vt 0.122592 0.966726
vt 0.059339 0.915252
vt 0.096515 0.892863
vt 0.162526 0.906510
vt 0.230769 0.835802
vt 0.238610 0.786341
vt 0.299293 0.807523
vt 0.260524 0.847049
vt 0.217390 0.854603
vt 0.232338 0.876857
vt 0.151771 0.859587
vt 0.238693 0.857985
vt 0.309726 0.917601
vt 0.327176 0.959255
vt 0.235153 0.986710
vt 0.233838 0.925242
vt 0.258230 0.871543
vt 0.105605 0.804230
vt 0.024942 0.832698
vt 0.028074 0.737466
vt 0.106541 0.728783
vt 0.038013 0.674190
vt 0.106356 0.664243
vt 0.385582 0.416529
vt 0.325223 0.317222
vt 0.635655 0.253379
vt 0.647151 0.392017
vt 0.179472 0.788002
vt 0.548139 0.799336
vt 0.592215 0.782632
vt 0.593429 0.848153
vt 0.401551 0.821215
vt 0.399899 0.858822
vt 0.532125 0.756742
vt 0.495442 0.809255
vt 0.495491 0.785749
vt 0.448497 0.815235
vt 0.446225 0.854963
vt 0.304519 0.775074
vt 0.217376 0.698723
vt 0.315707 0.719248
vt 0.162107 0.713713
vt 0.351372 0.248133
vt 0.398399 0.249732
vt 0.347965 0.162119
vt 0.389376 0.186105
vt 0.411872 0.125013
vt 0.357359 0.122869
vt 0.566284 0.898918
vt 0.507157 0.923067
vt 0.498230 0.893400
vt 0.538311 0.507412
vt 0.471038 0.589968
vt 0.398127 0.534805
vt 0.329321 0.458742
vt 0.157334 0.649182
vt 0.558611 0.167060
vt 0.438080 0.213651
vt 0.458722 0.170104
vt 0.993115 0.878037
vt 0.941505 0.898269
vt 0.958325 0.863647
vt 0.902380 0.851841
vt 0.933138 0.852357
vt 0.893199 0.886500
vt 0.833721 0.807085
vt 0.833460 0.764005
vt 0.847283 0.761869
vt 0.860952 0.803394
vt 0.731058 0.805353
vt 0.713994 0.859863
vt 0.682236 0.835520
vt 0.706877 0.793193
vt 0.886123 0.800336
vt 0.860068 0.759757
vt 0.918914 0.748066
vt 0.913896 0.806947
vt 0.905628 0.745941
vt 0.939678 0.806626
vt 0.932521 0.745620
vt 0.676981 0.768208
vt 0.640231 0.835920
vt 0.650745 0.768031
vt 0.965443 0.817174
vt 0.988202 0.739032
vt 0.982939 0.777297
vt 0.972330 0.767022
vt 0.608119 0.765766
vt 0.624701 0.789914
vt 0.600113 0.798740
vt 0.995080 0.830784
vt 0.997195 0.776316
vt 0.847655 0.716584
vt 0.728978 0.770461
vt 0.921776 0.694506
vt 0.663271 0.737739
vt 0.608796 0.852058
vt 0.836973 0.836828
vt 0.870921 0.840311
vt 0.684288 0.892768
vt 0.637980 0.893173
vt 0.815820 0.824790
vt 0.836848 0.880832
vt 0.922279 0.983572
vt 0.886980 0.983572
vt 0.754662 0.816037
vt 0.762521 0.857004
vt 0.725359 0.866496
vt 0.736511 0.808487
vt 0.790152 0.848594
vt 0.774378 0.806491
vt 0.780211 0.789331
vt 0.675351 0.939126
vt 0.645777 0.939383
vt 0.753965 0.765946
vt 0.661784 0.971257
vt 0.772416 0.912020
vt 0.804360 0.899341
vt 0.846963 0.983572
vt 0.810036 0.983572
vt 0.360690 0.234630
vt 0.393249 0.233454
vt 0.426834 0.206131
vt 0.439876 0.172784
vt 0.446112 0.119969
vt 0.482201 0.076956
vt 0.097741 0.553370
vt 0.151949 0.528011
vt 0.452799 0.675378
vt 0.494928 0.661829
vt 0.407290 0.764058
vt 0.409151 0.729392
vt 0.279784 0.373885
vt 0.629437 0.113088
vt 0.448521 0.803482
vt 0.609031 0.577844
vt 0.560198 0.584768
vt 0.269181 0.231958
vt 0.332890 0.224809
vt 0.307369 0.170279
vt 0.255126 0.172942
vt 0.250035 0.117883
vt 0.300263 0.121970
vt 0.309098 0.067175
vt 0.259707 0.061913
vt 0.348134 0.077142
vt 0.389717 0.052953
vt 0.330188 0.015843
vt 0.685974 0.309756
vt 0.654968 0.243344
vt 0.802459 0.251574
vt 0.756588 0.103176
vt 0.941662 0.112160
vt 0.949300 0.218334
vt 0.878465 0.388897
vt 0.964881 0.323592
vt 0.982243 0.404920
vt 0.924175 0.469629
vt 0.499763 0.008868
vt 0.634243 0.008923
vt 0.755234 0.644962
vt 0.788644 0.644962
vt 0.766887 0.699697
vt 0.653307 0.643733
vt 0.607525 0.643733
vt 0.607583 0.699954
vt 0.705957 0.643733
vt 0.722158 0.699834
vt 0.752961 0.643733
vt 0.729459 0.643733
vt 0.770766 0.699756
vt 0.610801 0.644962
vt 0.645253 0.644962
vt 0.645211 0.699963
vt 0.697183 0.644962
vt 0.714602 0.699829
vt 0.771134 0.643733
vt 0.788529 0.643733
vt 0.726209 0.644962
vt 0.042034 0.570530
vt 0.093011 0.154498
vt 0.155294 0.167141
vt 0.134918 0.186419
vt 0.060931 0.167063
vt 0.008601 0.144054
vt 0.008601 0.117811
vt 0.107614 0.023236
vt 0.080600 0.268595
vt 0.121785 0.265440
vt 0.131431 0.285491
vt 0.083914 0.296607
vt 0.212405 0.183105
vt 0.191118 0.207824
vt 0.148855 0.221912
vt 0.070050 0.222761
vt 0.008601 0.314178
vt 0.008601 0.289310
vt 0.762878 0.349834
vt 0.813558 0.309911
vt 0.008601 0.209264
vt 0.178947 0.274375
vt 0.162970 0.262284
vt 0.721527 0.379942
vt 0.434161 0.134702
vt 0.778062 0.983572
vt 0.053334 0.450279
vt 0.114025 0.389595
vt 0.167258 0.336367
vt 0.249314 0.281184
vt 0.282219 0.473328
vt 0.198707 0.506495
vt 0.010050 0.017235
vt 0.156375 0.053313
vt 0.205136 0.083390
vt 0.203172 0.635641
vt 0.312829 0.631997
vt 0.373166 0.612022
vt 0.370870 0.672263
vt 0.430788 0.630354
vt 0.408448 0.556591
vt 0.334040 0.557559
vt 0.515956 0.989404
vt 0.437067 0.979736
vt 0.438404 0.944425
vt 0.515956 0.934756
vt 0.386290 0.959522
vt 0.477180 0.939590
vt 0.476511 0.984570
vt 0.386290 0.959522
vt 0.596302 0.936303
vt 0.596302 0.987858
vt 0.515956 0.989404
vt 0.437067 0.979736
vt 0.438404 0.944425
vt 0.515956 0.934756
vt 0.386290 0.959522
vt 0.477180 0.939590
vt 0.476511 0.984570
vt 0.386290 0.959522
vt 0.596302 0.936303
vt 0.596302 0.987858
vt 0.477180 0.939590
vt 0.476511 0.984570
vt 0.386290 0.959522
vt 0.596302 0.936303
vt 0.596302 0.987858
vt 0.056032 0.344399
vt 0.079389 0.380364
vt 0.126295 0.340857
vt 0.112083 0.317046
vt 0.154140 0.308648
vt 0.863139 0.596065
vt 0.912779 0.632796
vt 0.956123 0.555853
vt 0.924946 0.530904
vt 0.977438 0.498367
vt 0.934451 0.594325
vt 0.977438 0.498367
vt 0.894043 0.563484
vt 0.810539 0.670088
vt 0.857370 0.704740
vt 0.102842 0.360611
vt 0.154140 0.308648
vt 0.084058 0.330722
vt 0.006817 0.378556
vt 0.028851 0.412485
vt 0.934451 0.594325
vt 0.977438 0.498367
vt 0.894043 0.563484
vt 0.810539 0.670088
vt 0.857370 0.704740
vt 0.112083 0.317046
vt 0.056032 0.344399
vt 0.084571 0.354283
vt 0.102842 0.360611
vt 0.154140 0.308648
vt 0.079389 0.380364
vt 0.126295 0.340857
vt 0.112083 0.317046
vt 0.056392 0.344223
vt 0.154140 0.308648
vt 0.654995 0.590551
vt 0.410672 0.688933
vt 0.942283 0.008824
vt 0.751523 0.008916
vt 0.556287 0.715294
vt 0.335728 0.676461
vt 0.284650 0.607908
vt 0.299229 0.655375
vt 0.004997 0.491318
vt 0.522858 0.616870
vt 0.281969 0.009217
vt 0.788363 0.699596
vt 0.607583 0.699954
vt 0.607525 0.643733
vt 0.579035 0.668198
vt 0.686813 0.630786
vt 0.812804 0.440963
vt 0.737576 0.497602
vt 0.511892 0.253265
vt 0.445859 0.322313
vt 0.467926 0.443690
vt 0.585338 0.315290
vt 0.512858 0.735883
vt 0.495791 0.700639
vt 0.452471 0.715015
vt 0.460074 0.749971
vt 0.526108 0.696318
vt 0.539869 0.711787
vt 0.548785 0.843385
vt 0.492551 0.851104
vt 0.534774 0.874215
vt 0.450627 0.895225
vt 0.403023 0.897050
vt 0.162526 0.906510
vt 0.096515 0.892863
vt 0.230769 0.835802
vt 0.260524 0.847049
vt 0.299293 0.807523
vt 0.238610 0.786341
vt 0.217390 0.854603
vt 0.151771 0.859587
vt 0.232338 0.876857
vt 0.238693 0.857985
vt 0.309726 0.917601
vt 0.233838 0.925242
vt 0.258230 0.871543
vt 0.105605 0.804230
vt 0.106541 0.728783
vt 0.106356 0.664243
vt 0.325223 0.317222
vt 0.385582 0.416529
vt 0.635655 0.253379
vt 0.647151 0.392017
vt 0.179472 0.788002
vt 0.548139 0.799336
vt 0.399899 0.858822
vt 0.401551 0.821215
vt 0.532125 0.756742
vt 0.495491 0.785749
vt 0.495442 0.809255
vt 0.446225 0.854963
vt 0.448497 0.815235
vt 0.304519 0.775074
vt 0.315707 0.719248
vt 0.217376 0.698723
vt 0.162107 0.713713
vt 0.398399 0.249732
vt 0.351372 0.248133
vt 0.347965 0.162119
vt 0.357359 0.122869
vt 0.498230 0.893400
vt 0.538311 0.507412
vt 0.157334 0.649182
vt 0.558611 0.167060
vt 0.458722 0.170104
vt 0.438080 0.213651
vt 0.993115 0.878037
vt 0.958325 0.863647
vt 0.941505 0.898269
vt 0.902380 0.851841
vt 0.893199 0.886500
vt 0.933138 0.852357
vt 0.833721 0.807085
vt 0.860952 0.803394
vt 0.847283 0.761869
vt 0.833460 0.764005
vt 0.731058 0.805353
vt 0.706877 0.793193
vt 0.682236 0.835520
vt 0.713994 0.859863
vt 0.886123 0.800336
vt 0.860068 0.759757
vt 0.918914 0.748066
vt 0.905628 0.745941
vt 0.913896 0.806947
vt 0.939678 0.806626
vt 0.932521 0.745620
vt 0.676981 0.768208
vt 0.650745 0.768031
vt 0.640231 0.835920
vt 0.965443 0.817174
vt 0.988202 0.739032
vt 0.972330 0.767022
vt 0.982939 0.777297
vt 0.608119 0.765766
vt 0.600113 0.798740
vt 0.624701 0.789914
vt 0.995080 0.830784
vt 0.997195 0.776316
vt 0.847655 0.716584
vt 0.728978 0.770461
vt 0.921776 0.694506
vt 0.663271 0.737739
vt 0.608796 0.852058
vt 0.836973 0.836828
vt 0.870921 0.840311
vt 0.637980 0.893173
vt 0.684288 0.892768
vt 0.815820 0.824790
vt 0.836848 0.880832
vt 0.922279 0.983572
vt 0.886980 0.983572
vt 0.754662 0.816037
vt 0.736511 0.808487
vt 0.725359 0.866496
vt 0.762521 0.857004
vt 0.780211 0.789331
vt 0.774378 0.806491
vt 0.790152 0.848594
vt 0.645777 0.939383
vt 0.675351 0.939126
vt 0.753965 0.765946
vt 0.661784 0.971257
vt 0.772416 0.912020
vt 0.804360 0.899341
vt 0.810036 0.983572
vt 0.846963 0.983572
vt 0.393249 0.233454
vt 0.360690 0.234630
vt 0.439876 0.172784
vt 0.426834 0.206131
vt 0.446112 0.119969
vt 0.482201 0.076956
vt 0.097741 0.553370
vt 0.151949 0.528011
vt 0.407290 0.764058
vt 0.409151 0.729392
vt 0.629437 0.113088
vt 0.448521 0.803482
vt 0.560198 0.584768
vt 0.609031 0.577844
vt 0.255126 0.172942
vt 0.307369 0.170279
vt 0.250035 0.117883
vt 0.259707 0.061913
vt 0.309098 0.067175
vt 0.300263 0.121970
vt 0.348134 0.077142
vt 0.685974 0.309756
vt 0.802459 0.251574
vt 0.654968 0.243344
vt 0.949300 0.218334
vt 0.941662 0.112160
vt 0.756588 0.103176
vt 0.878465 0.388897
vt 0.964881 0.323592
vt 0.755234 0.644962
vt 0.788644 0.644962
vt 0.653307 0.643733
vt 0.607525 0.643733
vt 0.705957 0.643733
vt 0.752961 0.643733
vt 0.729459 0.643733
vt 0.610801 0.644962
vt 0.645253 0.644962
vt 0.697183 0.644962
vt 0.771134 0.643733
vt 0.726209 0.644962
vt 0.093011 0.154498
vt 0.060931 0.167063
vt 0.134918 0.186419
vt 0.155294 0.167141
vt 0.008601 0.117811
vt 0.008601 0.144054
vt 0.107614 0.023236
vt 0.080600 0.268595
vt 0.083914 0.296607
vt 0.131431 0.285491
vt 0.121785 0.265440
vt 0.191118 0.207824
vt 0.212405 0.183105
vt 0.070050 0.222761
vt 0.148855 0.221912
vt 0.008601 0.314178
vt 0.008601 0.289310
vt 0.813558 0.309911
vt 0.762878 0.349834
vt 0.008601 0.209264
vt 0.162970 0.262284
vt 0.178947 0.274375
vt 0.721527 0.379942
vt 0.434161 0.134702
vt 0.778062 0.983572
vt 0.053334 0.450279
vt 0.114025 0.389595
vt 0.167258 0.336367
vt 0.198707 0.506495
vt 0.010050 0.017235
vt 0.156375 0.053313
vt 0.205136 0.083390
vt 0.203172 0.635641
vt 0.312829 0.631997
vt 0.370870 0.672263
vt 0.373166 0.612022
vt 0.430788 0.630354
vt 0.408448 0.556591
vt 0.334040 0.557559
vt 0.515956 0.989404
vt 0.515956 0.934756
vt 0.438404 0.944425
vt 0.437067 0.979736
vt 0.386290 0.959522
vt 0.477180 0.939590
vt 0.386290 0.959522
vt 0.476511 0.984570
vt 0.596302 0.987858
vt 0.596302 0.936303
vt 0.515956 0.989404
vt 0.515956 0.934756
vt 0.438404 0.944425
vt 0.437067 0.979736
vt 0.386290 0.959522
vt 0.477180 0.939590
vt 0.386290 0.959522
vt 0.476511 0.984570
vt 0.596302 0.987858
vt 0.596302 0.936303
vt 0.477180 0.939590
vt 0.386290 0.959522
vt 0.476511 0.984570
vt 0.596302 0.987858
vt 0.596302 0.936303
vt 0.056032 0.344399
vt 0.112083 0.317046
vt 0.126295 0.340857
vt 0.079389 0.380364
vt 0.154140 0.308648
vt 0.863139 0.596065
vt 0.924946 0.530904
vt 0.956123 0.555853
vt 0.912779 0.632796
vt 0.977438 0.498367
vt 0.934451 0.594325
vt 0.894043 0.563484
vt 0.977438 0.498367
vt 0.857370 0.704740
vt 0.810539 0.670088
vt 0.102842 0.360611
vt 0.084058 0.330722
vt 0.154140 0.308648
vt 0.028851 0.412485
vt 0.006817 0.378556
vt 0.934451 0.594325
vt 0.894043 0.563484
vt 0.977438 0.498367
vt 0.857370 0.704740
vt 0.810539 0.670088
vt 0.112083 0.317046
vt 0.102842 0.360611
vt 0.084571 0.354283
vt 0.056032 0.344399
vt 0.154140 0.308648
vt 0.079389 0.380364
vt 0.056392 0.344223
vt 0.112083 0.317046
vt 0.126295 0.340857
vt 0.154140 0.308648
vt 0.654995 0.590551
vt 0.607525 0.643733
vn -0.49256 0.85141 0.18024
vn -0.00000 0.96652 0.25659
vn -0.00000 0.86611 0.49986
vn -0.70711 0.54635 0.44888
vn -0.97510 -0.22123 0.01551
vn -0.99560 0.01250 0.09285
vn -0.61205 -0.39434 0.68549
vn -0.08205 -0.56562 0.82057
vn -0.94372 -0.28411 -0.16932
vn -0.97433 -0.20937 0.08272
vn -0.78411 -0.55376 0.28020
vn -0.75565 -0.65459 -0.02270
vn -0.74252 -0.54195 -0.39364
vn 0.00000 -0.85894 -0.51208
vn 0.00000 -0.68059 -0.73267
vn -0.76847 -0.46400 -0.44063
vn -0.72224 0.17634 -0.66879
vn -0.61424 0.65421 -0.44127
vn -0.94188 0.30663 -0.13725
vn -0.62388 0.75074 -0.21717
vn -0.00000 0.98045 -0.19679
vn 0.00000 0.69278 -0.72114
vn -0.60889 0.49099 -0.62304
vn 0.00000 0.97900 0.20386
vn 0.00000 0.73458 0.67852
vn -0.51303 0.61944 0.59422
vn -0.57396 0.79582 0.19299
vn -0.97885 0.06385 -0.19433
vn -0.96408 -0.25217 -0.08336
vn -0.92800 -0.11107 -0.35565
vn -0.94156 0.13122 -0.31024
vn -0.96614 0.05079 -0.25297
vn -0.92379 0.23603 -0.30149
vn -0.91663 0.37706 0.13276
vn -0.95267 0.05088 -0.29971
vn -0.47122 0.46271 -0.75090
vn 0.00000 0.55997 -0.82851
vn 0.00000 0.88327 -0.46887
vn -0.61110 0.71725 -0.33482
vn -0.83072 0.22632 -0.50860
vn -0.63214 0.17200 0.75552
vn 0.00000 0.32324 0.94632
vn -0.00000 0.07153 0.99744
vn -0.65789 0.02226 0.75279
vn 0.00000 0.40779 0.91308
vn -0.74004 0.30053 0.60168
vn -0.04096 -0.87314 0.48574
vn 0.18718 -0.97947 -0.07478
vn -0.72319 0.17246 -0.66877
vn -0.92472 0.30673 0.22541
vn -0.97282 -0.12573 0.19445
vn -0.69590 -0.33502 -0.63521
vn -0.00000 -0.49600 -0.86833
vn -0.00000 0.03571 -0.99936
vn -0.97521 -0.21874 -0.03339
vn -0.89635 0.14716 -0.41820
vn -0.74970 -0.55638 -0.35832
vn -0.95433 -0.29534 -0.04503
vn -0.81903 -0.55969 0.12627
vn -0.98138 -0.10107 0.16334
vn -0.94408 0.32789 -0.03463
vn -0.74329 -0.62102 -0.24871
vn -0.78298 -0.57707 -0.23224
vn -0.57455 -0.77185 -0.27229
vn -0.96501 -0.22138 0.14052
vn 0.89326 -0.44181 -0.08302
vn 0.01331 -0.53618 0.84400
vn -0.49477 0.77764 0.38791
vn -0.00000 0.90360 0.42837
vn 0.00000 0.38340 0.92358
vn -0.70332 0.24985 0.66552
vn 0.00000 0.62041 -0.78428
vn -0.00000 0.95828 -0.28584
vn -0.63171 0.76285 -0.13786
vn -0.47299 -0.03946 0.88018
vn 0.00000 -0.15909 0.98726
vn -0.00000 -0.61184 0.79098
vn 0.00000 -0.93321 0.35933
vn -0.99749 0.00377 0.07075
vn -0.27134 -0.48401 -0.83193
vn -0.91497 -0.40219 -0.03278
vn -0.04053 -0.60875 -0.79232
vn 0.75431 -0.50557 0.41884
vn 0.84157 0.45991 0.28328
vn 0.79884 0.54036 0.26431
vn 0.01036 0.71536 -0.69868
vn 0.39375 0.80827 -0.43779
vn -0.01518 0.69889 -0.71507
vn -0.94340 -0.01875 0.33113
vn -0.65673 -0.75329 0.03553
vn -0.15522 0.93353 -0.32315
vn -0.39693 0.91130 -0.10941
vn -0.65673 -0.75329 0.03553
vn -0.94340 -0.01875 0.33113
vn -0.12884 -0.23178 -0.96420
vn 0.72269 -0.45288 -0.52213
vn -0.12884 -0.23178 -0.96420
vn 0.72269 -0.45288 -0.52213
vn -0.01332 0.94064 -0.33913
vn 0.01270 0.87838 -0.47779
vn -0.62381 -0.75343 -0.20787
vn 0.14604 -0.48375 -0.86294
vn 0.85845 -0.43301 -0.27490
vn -0.62381 -0.75343 -0.20787
vn 0.14604 -0.48375 -0.86294
vn 0.85845 -0.43301 -0.27490
vn 0.34270 0.90863 -0.23862
vn 0.29029 0.01289 -0.95685
vn 0.10715 0.94372 -0.31290
vn -0.52691 -0.75651 -0.38737
vn 0.29029 0.01289 -0.95685
vn -0.52691 -0.75651 -0.38737
vn 0.87118 -0.49035 0.02459
vn 0.92131 -0.27288 0.27700
vn 0.87118 -0.49035 0.02459
vn -0.35068 0.14168 -0.92572
vn -0.35068 0.14168 -0.92572
vn -0.04952 0.24586 -0.96804
vn -0.04952 0.24586 -0.96804
vn 0.92131 -0.27288 0.27700
vn -0.81802 0.44289 0.36701
vn -0.42748 0.82137 -0.37763
vn -0.80094 -0.49463 0.33739
vn 0.75431 -0.50557 0.41884
vn -0.80094 -0.49463 0.33739
vn -0.87175 0.42180 0.24928
vn 0.98129 -0.17181 -0.08690
vn -0.06036 -0.35435 -0.93316
vn 0.45258 0.60348 0.65649
vn 0.46069 0.63657 0.61850
vn 0.75431 -0.50557 0.41884
vn 0.59396 -0.66468 0.45321
vn -0.43414 0.71025 0.55414
vn -0.64014 0.49569 0.58695
vn -0.49353 -0.82363 0.27940
vn -0.49353 -0.82363 0.27940
vn 0.59396 -0.66468 0.45321
vn -0.07909 -0.13502 0.98768
vn -0.07909 -0.13502 0.98768
vn 0.84157 0.45991 0.28328
vn -0.02537 0.27085 0.96229
vn -0.97811 -0.20008 -0.05710
vn 0.01263 -0.55981 0.82852
vn 0.98129 -0.17181 -0.08690
vn 0.01263 -0.55981 0.82852
vn -0.97811 -0.20008 -0.05710
vn -0.06036 -0.35435 -0.93316
vn 0.89326 -0.44181 -0.08302
vn 0.18718 -0.97947 -0.07478
vn -0.73479 0.59917 0.31792
vn -0.97376 0.17789 -0.14194
vn 0.00000 -0.89643 0.44318
vn -0.00000 -0.99808 -0.06194
vn -0.88854 -0.41352 -0.19872
vn -0.74893 -0.65521 0.09901
vn -0.00000 -0.99863 -0.05226
vn -0.38296 -0.62676 -0.67861
vn -0.85468 -0.45775 0.24493
vn -0.94455 0.08611 0.31686
vn -0.54361 -0.38639 0.74511
vn -0.00000 0.99291 -0.11888
vn 0.00000 0.99952 -0.03087
vn -0.68056 0.69843 -0.22141
vn -0.56964 0.76947 0.28884
vn -0.94455 0.08611 0.31686
vn -0.98704 0.03627 0.15629
vn -0.64859 -0.74910 0.13483
vn -0.54361 -0.38639 0.74511
vn -0.55744 -0.41382 0.71973
vn 0.00000 -0.47335 0.88088
vn 0.00000 -0.92200 0.38720
vn -0.88134 -0.22544 0.41524
vn -0.84827 0.06572 -0.52548
vn -0.82961 0.05011 -0.55608
vn -0.69035 -0.45813 -0.55993
vn -0.70017 -0.32047 -0.63802
vn -0.93975 0.20346 -0.27471
vn -0.66489 0.72763 -0.16875
vn -0.72290 0.69092 -0.00671
vn 0.00000 0.99050 0.13754
vn -0.00000 0.99903 0.04407
vn -0.00000 -0.99863 -0.05226
vn 0.00000 -0.91401 -0.40569
vn 0.51129 0.83592 -0.19955
vn 0.40077 0.91618 0.00096
vn 0.00000 0.98128 -0.19261
vn 0.19534 -0.96012 0.20003
vn 0.24355 -0.96133 0.12855
vn 0.00000 -0.98322 0.18240
vn 0.40021 -0.88198 0.24889
vn -0.00000 -0.93144 0.36390
vn 0.64056 -0.60470 0.47330
vn 0.58226 -0.72768 0.36256
vn 0.00000 -0.51896 0.85480
vn 0.32752 0.94195 -0.07388
vn 0.46966 0.88115 0.05468
vn -0.00000 0.99358 -0.11310
vn 0.61797 0.78605 0.01510
vn 0.00000 0.99032 -0.13884
vn 0.55277 -0.22934 0.80116
vn 0.00000 -0.12212 0.99252
vn 0.50543 0.79435 -0.33698
vn 0.00000 0.77262 0.63487
vn 0.37178 -0.67432 0.63802
vn 0.06970 -0.74201 0.66675
vn -0.87944 0.11152 0.46277
vn -0.86670 0.23491 0.44005
vn -0.87543 0.29616 0.38199
vn -0.88134 -0.22544 0.41524
vn 0.66933 -0.38804 -0.63357
vn -0.70341 0.51156 -0.49349
vn -0.70985 0.46912 -0.52539
vn -0.10671 0.12944 -0.98583
vn 0.66933 -0.38804 -0.63357
vn -0.79496 -0.59992 0.09022
vn -0.99665 0.07885 -0.02149
vn -0.87033 0.46926 -0.14939
vn -0.84339 0.53713 -0.01349
vn -0.82961 0.05011 -0.55608
vn -0.76726 0.47547 -0.43039
vn -0.85221 0.52255 0.02604
vn -0.76726 0.47547 -0.43039
vn -0.85221 0.52255 0.02604
vn 0.40542 -0.82707 -0.38934
vn -0.84473 0.04234 -0.53351
vn -0.87543 0.29616 0.38199
vn 0.98129 -0.17181 -0.08690
vn 0.98129 -0.17181 -0.08690
vn -0.72290 0.69092 -0.00671
vn -0.93975 0.20346 -0.27471
vn -0.70017 -0.32047 -0.63802
vn -0.00000 -0.57121 -0.82080
vn 0.00000 -0.44803 -0.89402
vn -0.72719 -0.23560 -0.64474
vn -0.82961 0.05011 -0.55608
vn -0.10671 0.12944 -0.98583
vn 0.40542 -0.82707 -0.38934
vn -0.78166 -0.34956 -0.51655
vn -0.95118 0.01933 -0.30803
vn -0.95548 0.07936 -0.28419
vn -0.99090 -0.05802 -0.12150
vn -0.98184 0.09566 -0.16385
vn -0.91874 0.19468 -0.34353
vn -0.87379 0.14000 -0.46572
vn -0.81380 0.57493 -0.08478
vn -0.82188 0.55905 -0.10941
vn -0.81634 0.56983 -0.09423
vn -0.80435 0.59073 -0.06376
vn -0.82113 0.55943 -0.11308
vn -0.82600 0.55951 0.06838
vn -0.85525 0.51406 0.06553
vn -0.83253 0.54650 0.09071
vn -0.86594 0.49734 0.05284
vn -0.90621 0.41866 0.05925
vn -0.90831 0.39688 -0.13217
vn -0.96895 0.22479 -0.10301
vn -0.95110 0.29640 -0.08696
vn -0.90010 0.43234 -0.05393
vn -0.99646 0.08377 0.00678
vn -0.85818 0.51301 -0.01843
vn -0.84671 0.52974 -0.04962
vn -0.87327 0.48135 0.07548
vn -0.82749 0.55023 -0.11183
vn -0.82038 0.56085 -0.11149
vn -0.88388 0.46476 -0.05248
vn -0.84701 0.52693 -0.07008
vn -0.89838 0.43920 0.00422
vn -0.81616 0.56784 -0.10697
vn -0.75937 0.64228 -0.10405
vn -0.76433 0.60305 -0.22834
vn -0.75499 0.61395 -0.23036
vn -0.81211 0.57073 -0.12140
vn -0.83585 0.54506 -0.06524
vn -0.87143 0.48065 0.09789
vn -0.88770 0.41707 -0.19502
vn -0.86851 0.46504 -0.17157
vn -0.92745 0.34562 -0.14281
vn -0.95065 0.28294 -0.12729
vn -0.98056 0.19315 -0.03449
vn -0.88075 0.36041 -0.30722
vn -0.91679 0.27288 -0.29162
vn -0.90050 0.39440 -0.18317
vn -0.89403 0.44201 0.07310
vn -0.88291 0.45233 -0.12596
vn -0.84879 0.44334 -0.28810
vn -0.93469 0.33340 -0.12325
vn -0.82828 0.50881 -0.23465
vn -0.77008 0.62556 -0.12510
vn -0.75714 0.58719 -0.28626
vn -0.87014 0.47548 -0.12955
vn -0.86998 0.47571 -0.12976
vn -0.86774 0.46251 -0.18198
vn -0.85532 0.43250 -0.28525
vn -0.86566 0.45538 -0.20798
vn -0.71132 0.67260 0.20404
vn -0.76488 0.64406 -0.01195
vn -0.72251 0.67749 0.13776
vn -0.67114 0.67420 0.30825
vn -0.67972 0.65393 0.33220
vn -0.82467 0.32299 -0.46433
vn -0.88291 0.32641 -0.33754
vn -0.85711 0.30840 -0.41261
vn -0.78862 0.26633 -0.55421
vn -0.91155 0.27578 -0.30499
vn -0.56964 0.76947 0.28884
vn 0.00000 -0.90784 0.41932
vn -0.00000 -0.57121 -0.82080
vn 0.00000 -0.75527 -0.65542
vn -0.00000 -0.47549 -0.87972
vn -0.00000 -0.99329 -0.11569
vn 0.00000 -0.47243 -0.88137
vn 0.00000 -0.79935 -0.60086
vn 0.00000 0.99050 0.13754
vn 0.00000 -0.89955 0.43682
vn 0.00000 -0.89955 0.43682
vn 0.00000 0.99790 0.06471
vn 0.00000 -0.35663 -0.93424
vn 0.07895 -0.35552 -0.93133
vn 0.00000 -0.35663 -0.93424
vn -0.00000 0.99291 -0.11888
vn 0.49256 0.85141 0.18024
vn 0.70711 0.54635 0.44888
vn 0.97510 -0.22123 0.01551
vn 0.08205 -0.56562 0.82057
vn 0.61205 -0.39434 0.68549
vn 0.99560 0.01250 0.09285
vn 0.94372 -0.28411 -0.16932
vn 0.75565 -0.65459 -0.02270
vn 0.78411 -0.55376 0.28020
vn 0.97433 -0.20937 0.08272
vn 0.74252 -0.54195 -0.39364
vn 0.76847 -0.46400 -0.44063
vn 0.72224 0.17634 -0.66879
vn 0.94188 0.30663 -0.13725
vn 0.61424 0.65421 -0.44127
vn 0.62388 0.75074 -0.21717
vn 0.60889 0.49099 -0.62304
vn 0.57396 0.79582 0.19299
vn 0.51303 0.61944 0.59422
vn 0.97885 0.06385 -0.19433
vn 0.94156 0.13121 -0.31024
vn 0.92800 -0.11107 -0.35565
vn 0.96408 -0.25217 -0.08336
vn 0.96614 0.05079 -0.25297
vn 0.91663 0.37706 0.13276
vn 0.92379 0.23603 -0.30149
vn 0.95267 0.05088 -0.29971
vn 0.47122 0.46271 -0.75090
vn 0.61110 0.71725 -0.33482
vn 0.83073 0.22632 -0.50860
vn 0.63214 0.17200 0.75552
vn 0.65789 0.02226 0.75279
vn 0.74004 0.30053 0.60168
vn -0.18718 -0.97947 -0.07478
vn 0.04096 -0.87314 0.48574
vn 0.72319 0.17246 -0.66877
vn 0.92472 0.30673 0.22541
vn 0.97282 -0.12573 0.19445
vn 0.69590 -0.33502 -0.63521
vn 0.89635 0.14716 -0.41820
vn 0.97521 -0.21874 -0.03339
vn 0.74970 -0.55638 -0.35832
vn 0.81903 -0.55969 0.12627
vn 0.95433 -0.29534 -0.04503
vn 0.94408 0.32789 -0.03463
vn 0.98138 -0.10107 0.16334
vn 0.74329 -0.62102 -0.24871
vn 0.57455 -0.77185 -0.27229
vn 0.78298 -0.57707 -0.23224
vn 0.96501 -0.22138 0.14052
vn -0.01331 -0.53618 0.84400
vn -0.89326 -0.44181 -0.08302
vn 0.49477 0.77764 0.38791
vn 0.70332 0.24985 0.66552
vn 0.63171 0.76285 -0.13786
vn 0.47299 -0.03946 0.88018
vn 0.99749 0.00377 0.07075
vn 0.27134 -0.48401 -0.83193
vn 0.04053 -0.60875 -0.79232
vn 0.91497 -0.40219 -0.03278
vn -0.75431 -0.50557 0.41884
vn -0.79884 0.54036 0.26431
vn -0.84157 0.45991 0.28328
vn -0.01036 0.71536 -0.69868
vn 0.01518 0.69889 -0.71507
vn -0.39375 0.80827 -0.43779
vn 0.94340 -0.01875 0.33113
vn 0.39693 0.91130 -0.10942
vn 0.15522 0.93353 -0.32315
vn 0.65673 -0.75329 0.03553
vn 0.65673 -0.75329 0.03553
vn -0.72269 -0.45288 -0.52213
vn 0.12884 -0.23178 -0.96420
vn 0.94340 -0.01875 0.33113
vn 0.12884 -0.23178 -0.96420
vn -0.72269 -0.45288 -0.52213
vn 0.01332 0.94064 -0.33913
vn 0.62381 -0.75343 -0.20787
vn -0.01270 0.87838 -0.47779
vn -0.14604 -0.48375 -0.86294
vn -0.85845 -0.43301 -0.27490
vn 0.62381 -0.75343 -0.20787
vn -0.85845 -0.43301 -0.27490
vn -0.14604 -0.48375 -0.86294
vn -0.34270 0.90863 -0.23862
vn -0.29029 0.01289 -0.95685
vn 0.52691 -0.75651 -0.38737
vn -0.10715 0.94372 -0.31290
vn -0.29029 0.01289 -0.95685
vn -0.87118 -0.49035 0.02459
vn 0.52691 -0.75651 -0.38737
vn -0.92131 -0.27288 0.27700
vn -0.87118 -0.49035 0.02459
vn 0.35068 0.14168 -0.92572
vn 0.35068 0.14168 -0.92572
vn 0.04952 0.24586 -0.96804
vn 0.04952 0.24586 -0.96804
vn -0.92131 -0.27288 0.27700
vn 0.81802 0.44289 0.36701
vn 0.42748 0.82137 -0.37763
vn -0.75431 -0.50557 0.41884
vn 0.80094 -0.49463 0.33739
vn 0.80094 -0.49463 0.33739
vn 0.87175 0.42180 0.24928
vn -0.98129 -0.17181 -0.08690
vn 0.06036 -0.35435 -0.93316
vn -0.45258 0.60348 0.65649
vn -0.59396 -0.66468 0.45321
vn -0.75431 -0.50557 0.41884
vn -0.46069 0.63657 0.61850
vn 0.49353 -0.82363 0.27940
vn 0.64014 0.49569 0.58695
vn 0.43414 0.71025 0.55414
vn -0.59396 -0.66468 0.45321
vn 0.49353 -0.82363 0.27940
vn 0.07909 -0.13502 0.98768
vn 0.07909 -0.13502 0.98768
vn -0.84157 0.45991 0.28328
vn 0.02537 0.27085 0.96229
vn -0.01263 -0.55981 0.82852
vn 0.97811 -0.20008 -0.05710
vn -0.01263 -0.55981 0.82852
vn -0.98129 -0.17181 -0.08690
vn 0.06036 -0.35435 -0.93316
vn 0.97811 -0.20008 -0.05710
vn -0.89326 -0.44181 -0.08302
vn -0.18718 -0.97947 -0.07478
vn 0.73479 0.59917 0.31792
vn 0.97376 0.17789 -0.14194
vn 0.88854 -0.41352 -0.19872
vn 0.74893 -0.65521 0.09901
vn 0.38296 -0.62676 -0.67861
vn 0.85468 -0.45775 0.24493
vn 0.54361 -0.38639 0.74511
vn 0.94455 0.08611 0.31686
vn 0.56964 0.76947 0.28884
vn 0.68056 0.69843 -0.22141
vn 0.94455 0.08611 0.31686
vn 0.54361 -0.38639 0.74511
vn 0.64859 -0.74910 0.13483
vn 0.98704 0.03627 0.15629
vn 0.55744 -0.41382 0.71973
vn 0.88044 -0.23207 0.41349
vn 0.83027 0.04009 -0.55592
vn 0.84865 0.06373 -0.52510
vn 0.93987 0.20278 -0.27483
vn 0.69871 -0.32007 -0.63981
vn 0.68903 -0.45985 -0.56016
vn 0.66560 0.72691 -0.16904
vn 0.72290 0.69092 -0.00671
vn -0.51129 0.83592 -0.19955
vn -0.40077 0.91618 0.00096
vn -0.19534 -0.96012 0.20003
vn -0.24355 -0.96133 0.12855
vn -0.40021 -0.88198 0.24889
vn -0.64056 -0.60470 0.47330
vn -0.58226 -0.72768 0.36256
vn -0.32752 0.94195 -0.07388
vn -0.46966 0.88115 0.05468
vn -0.61797 0.78605 0.01510
vn -0.55277 -0.22934 0.80116
vn -0.50543 0.79435 -0.33698
vn -0.37178 -0.67432 0.63802
vn 0.86670 0.23491 0.44005
vn 0.87944 0.11152 0.46277
vn -0.06970 -0.74201 0.66675
vn 0.88044 -0.23207 0.41349
vn 0.87543 0.29616 0.38199
vn -0.65856 -0.40747 -0.63266
vn 0.70450 0.50996 -0.49359
vn -0.65856 -0.40747 -0.63266
vn 0.10671 0.12944 -0.98583
vn 0.70985 0.46912 -0.52539
vn 0.99665 0.07885 -0.02149
vn 0.79496 -0.59992 0.09022
vn 0.84339 0.53713 -0.01349
vn 0.87033 0.46926 -0.14939
vn 0.83027 0.04009 -0.55592
vn 0.76643 0.47515 -0.43223
vn 0.76643 0.47515 -0.43223
vn 0.85221 0.52255 0.02604
vn 0.85221 0.52255 0.02604
vn 0.84473 0.04234 -0.53351
vn -0.40542 -0.82707 -0.38934
vn 0.87543 0.29616 0.38199
vn -0.98129 -0.17181 -0.08690
vn -0.98129 -0.17181 -0.08690
vn 0.72290 0.69092 -0.00671
vn 0.93987 0.20278 -0.27483
vn 0.69871 -0.32007 -0.63981
vn 0.72719 -0.23560 -0.64474
vn 0.83027 0.04009 -0.55592
vn 0.10671 0.12944 -0.98583
vn -0.40542 -0.82707 -0.38934
vn 0.78166 -0.34956 -0.51655
vn 0.95118 0.01933 -0.30803
vn 0.99090 -0.05801 -0.12150
vn 0.95548 0.07936 -0.28419
vn 0.98184 0.09566 -0.16385
vn 0.91874 0.19468 -0.34353
vn 0.87379 0.14000 -0.46572
vn 0.81380 0.57493 -0.08478
vn 0.80435 0.59073 -0.06376
vn 0.81634 0.56983 -0.09423
vn 0.82188 0.55905 -0.10941
vn 0.82113 0.55943 -0.11308
vn 0.82600 0.55951 0.06838
vn 0.83253 0.54650 0.09071
vn 0.85525 0.51406 0.06553
vn 0.90621 0.41866 0.05925
vn 0.86594 0.49734 0.05284
vn 0.90831 0.39688 -0.13217
vn 0.90010 0.43234 -0.05393
vn 0.95110 0.29640 -0.08696
vn 0.96895 0.22479 -0.10301
vn 0.99646 0.08377 0.00678
vn 0.85818 0.51301 -0.01843
vn 0.87327 0.48135 0.07548
vn 0.84671 0.52974 -0.04962
vn 0.82038 0.56085 -0.11149
vn 0.82749 0.55023 -0.11183
vn 0.88388 0.46476 -0.05248
vn 0.89838 0.43920 0.00422
vn 0.84701 0.52693 -0.07008
vn 0.75937 0.64228 -0.10405
vn 0.81616 0.56784 -0.10697
vn 0.76433 0.60305 -0.22834
vn 0.83585 0.54506 -0.06524
vn 0.81211 0.57073 -0.12140
vn 0.75499 0.61395 -0.23036
vn 0.87143 0.48065 0.09789
vn 0.88770 0.41707 -0.19502
vn 0.95065 0.28294 -0.12729
vn 0.92745 0.34562 -0.14281
vn 0.86851 0.46504 -0.17157
vn 0.98056 0.19315 -0.03449
vn 0.88075 0.36041 -0.30722
vn 0.90050 0.39440 -0.18317
vn 0.91679 0.27288 -0.29162
vn 0.88291 0.45233 -0.12596
vn 0.89403 0.44201 0.07310
vn 0.84879 0.44334 -0.28810
vn 0.82828 0.50881 -0.23465
vn 0.93469 0.33340 -0.12325
vn 0.75714 0.58719 -0.28626
vn 0.77008 0.62556 -0.12510
vn 0.87014 0.47548 -0.12955
vn 0.86774 0.46251 -0.18198
vn 0.86998 0.47571 -0.12976
vn 0.86566 0.45538 -0.20798
vn 0.85532 0.43250 -0.28525
vn 0.71132 0.67260 0.20404
vn 0.67114 0.67420 0.30825
vn 0.72251 0.67749 0.13776
vn 0.76488 0.64406 -0.01195
vn 0.67972 0.65393 0.33220
vn 0.82467 0.32299 -0.46433
vn 0.78862 0.26633 -0.55421
vn 0.85711 0.30840 -0.41261
vn 0.88291 0.32641 -0.33754
vn 0.91155 0.27578 -0.30499
vn 0.56964 0.76947 0.28884
vn -0.07895 -0.35552 -0.93133
f 191/191/191 194/194/194 192/192/192
f 192/192/192 193/193/193 191/191/191
f 200/200/200 192/192/192 194/194/194
f 481/481/481 194/194/194 476/476/476
f 481/481/481 201/201/201 194/194/194
f 200/200/200 194/194/194 201/201/201
f 102/102/102 107/107/107 87/87/87
f 86/86/86 87/87/87 88/88/88
f 109/109/109 107/107/107 102/102/102
f 86/86/86 100/100/100 102/102/102
f 102/102/102 110/110/110 109/109/109
f 99/99/99 103/103/103 102/102/102
f 102/102/102 100/100/100 99/99/99
f 115/115/115 109/109/109 108/108/108
f 108/108/108 109/109/109 110/110/110
f 103/103/103 99/99/99 118/118/118
f 99/99/99 101/101/101 118/118/118
f 97/97/97 101/101/101 99/99/99
f 99/99/99 100/100/100 97/97/97
f 97/97/97 100/100/100 86/86/86
f 97/97/97 86/86/86 122/122/122
f 122/122/122 92/92/92 97/97/97
f 91/91/91 98/98/98 97/97/97
f 97/97/97 92/92/92 91/91/91
f 122/122/122 86/86/86 88/88/88
f 122/122/122 88/88/88 126/126/126
f 126/126/126 121/121/121 122/122/122
f 92/92/92 122/122/122 121/121/121
f 121/121/121 89/89/89 92/92/92
f 91/91/91 92/92/92 89/89/89
f 98/98/98 91/91/91 116/116/116
f 400/400/400 386/386/386 405/405/405
f 384/384/384 385/385/385 386/386/386
f 400/400/400 405/405/405 408/408/408
f 384/384/384 400/400/400 399/399/399
f 408/408/408 407/407/407 400/400/400
f 397/397/397 399/399/399 400/400/400
f 400/400/400 401/401/401 397/397/397
f 413/413/413 406/406/406 408/408/408
f 406/406/406 407/407/407 408/408/408
f 401/401/401 416/416/416 397/397/397
f 397/397/397 416/416/416 398/398/398
f 395/395/395 399/399/399 397/397/397
f 397/397/397 398/398/398 395/395/395
f 395/395/395 384/384/384 399/399/399
f 395/395/395 420/420/420 384/384/384
f 420/420/420 395/395/395 388/388/388
f 389/389/389 388/388/388 395/395/395
f 395/395/395 396/396/396 389/389/389
f 420/420/420 385/385/385 384/384/384
f 420/420/420 419/419/419 424/424/424
f 424/424/424 385/385/385 420/420/420
f 419/419/419 420/420/420 388/388/388
f 388/388/388 387/387/387 419/419/419
f 387/387/387 388/388/388 389/389/389
f 396/396/396 414/414/414 389/389/389
f 190/190/190 187/187/187 189/189/189
f 187/187/187 188/188/188 189/189/189
f 193/193/193 190/190/190 191/191/191
f 189/189/189 191/191/191 190/190/190
f 189/189/189 473/473/473 475/475/475
f 475/475/475 191/191/191 189/189/189
f 473/473/473 189/189/189 474/474/474
f 477/477/477 191/191/191 475/475/475
f 191/191/191 477/477/477 476/476/476
f 476/476/476 194/194/194 191/191/191
f 412/412/412 382/382/382 381/381/381
f 381/381/381 382/382/382 383/383/383
f 382/382/382 412/412/412 405/405/405
f 408/408/408 405/405/405 412/412/412
f 412/412/412 413/413/413 408/408/408
f 383/383/383 382/382/382 386/386/386
f 405/405/405 386/386/386 382/382/382
f 425/425/425 383/383/383 385/385/385
f 386/386/386 385/385/385 383/383/383
f 386/386/386 400/400/400 384/384/384
f 114/114/114 83/83/83 85/85/85
f 83/83/83 84/84/84 85/85/85
f 107/107/107 114/114/114 85/85/85
f 109/109/109 115/115/115 114/114/114
f 114/114/114 107/107/107 109/109/109
f 87/87/87 85/85/85 84/84/84
f 85/85/85 87/87/87 107/107/107
f 88/88/88 84/84/84 127/127/127
f 84/84/84 88/88/88 87/87/87
f 87/87/87 86/86/86 102/102/102
f 153/153/153 328/328/328 331/331/331
f 331/331/331 14/14/14 153/153/153
f 328/328/328 153/153/153 152/152/152
f 329/329/329 152/152/152 306/306/306
f 152/152/152 329/329/329 328/328/328
f 306/306/306 152/152/152 11/11/11
f 11/11/11 155/155/155 306/306/306
f 155/155/155 11/11/11 10/10/10
f 10/10/10 154/154/154 155/155/155
f 310/310/310 306/306/306 155/155/155
f 155/155/155 64/64/64 310/310/310
f 64/64/64 155/155/155 154/154/154
f 451/451/451 306/306/306 310/310/310
f 306/306/306 451/451/451 329/329/329
f 330/330/330 329/329/329 451/451/451
f 329/329/329 330/330/330 327/327/327
f 327/327/327 328/328/328 329/329/329
f 331/331/331 328/328/328 327/327/327
f 327/327/327 332/332/332 331/331/331
f 331/331/331 332/332/332 15/15/15
f 15/15/15 14/14/14 331/331/331
f 451/451/451 450/450/450 330/330/330
f 310/310/310 368/368/368 451/451/451
f 450/450/450 451/451/451 368/368/368
f 368/368/368 367/367/367 450/450/450
f 163/163/163 166/166/166 165/165/165
f 165/165/165 164/164/164 163/163/163
f 163/163/163 164/164/164 161/161/161
f 161/161/161 456/456/456 457/457/457
f 457/457/457 456/456/456 458/458/458
f 312/312/312 369/369/369 368/368/368
f 368/368/368 310/310/310 312/312/312
f 367/367/367 368/368/368 369/369/369
f 369/369/369 343/343/343 367/367/367
f 515/515/515 369/369/369 312/312/312
f 370/370/370 369/369/369 515/515/515
f 369/369/369 370/370/370 358/358/358
f 358/358/358 343/343/343 369/369/369
f 340/340/340 343/343/343 358/358/358
f 342/342/342 343/343/343 340/340/340
f 345/345/345 358/358/358 351/351/351
f 352/352/352 351/351/351 358/358/358
f 358/358/358 370/370/370 352/352/352
f 358/358/358 345/345/345 340/340/340
f 515/515/515 377/377/377 370/370/370
f 353/353/353 352/352/352 370/370/370
f 370/370/370 377/377/377 353/353/353
f 45/45/45 43/43/43 352/352/352
f 352/352/352 353/353/353 45/45/45
f 351/351/351 352/352/352 43/43/43
f 351/351/351 339/339/339 345/345/345
f 339/339/339 351/351/351 42/42/42
f 43/43/43 42/42/42 351/351/351
f 44/44/44 43/43/43 45/45/45
f 43/43/43 44/44/44 41/41/41
f 41/41/41 42/42/42 43/43/43
f 203/203/203 45/45/45 353/353/353
f 46/46/46 45/45/45 203/203/203
f 45/45/45 46/46/46 44/44/44
f 353/353/353 448/448/448 203/203/203
f 302/302/302 303/303/303 300/300/300
f 300/300/300 301/301/301 302/302/302
f 301/301/301 304/304/304 302/302/302
f 579/579/579 580/580/580 577/577/577
f 577/577/577 578/578/578 579/579/579
f 580/580/580 579/579/579 581/581/581
f 91/91/91 90/90/90 116/116/116
f 89/89/89 90/90/90 91/91/91
f 125/125/125 89/89/89 121/121/121
f 126/126/126 125/125/125 121/121/121
f 126/126/126 133/133/133 125/125/125
f 134/134/134 135/135/135 125/125/125
f 125/125/125 133/133/133 134/134/134
f 142/142/142 126/126/126 88/88/88
f 126/126/126 141/141/141 133/133/133
f 141/141/141 126/126/126 142/142/142
f 141/141/141 130/130/130 133/133/133
f 133/133/133 130/130/130 129/129/129
f 129/129/129 134/134/134 133/133/133
f 129/129/129 138/138/138 134/134/134
f 135/135/135 134/134/134 138/138/138
f 129/129/129 132/132/132 138/138/138
f 131/131/131 132/132/132 129/129/129
f 129/129/129 130/130/130 131/131/131
f 130/130/130 141/141/141 140/140/140
f 131/131/131 130/130/130 140/140/140
f 141/141/141 143/143/143 228/228/228
f 228/228/228 140/140/140 141/141/141
f 142/142/142 143/143/143 141/141/141
f 88/88/88 128/128/128 142/142/142
f 127/127/127 128/128/128 88/88/88
f 389/389/389 414/414/414 390/390/390
f 389/389/389 390/390/390 387/387/387
f 423/423/423 419/419/419 387/387/387
f 424/424/424 419/419/419 423/423/423
f 424/424/424 423/423/423 433/433/433
f 432/432/432 433/433/433 423/423/423
f 423/423/423 431/431/431 432/432/432
f 385/385/385 424/424/424 441/441/441
f 424/424/424 433/433/433 439/439/439
f 441/441/441 424/424/424 439/439/439
f 439/439/439 433/433/433 430/430/430
f 433/433/433 432/432/432 427/427/427
f 427/427/427 430/430/430 433/433/433
f 427/427/427 432/432/432 436/436/436
f 431/431/431 436/436/436 432/432/432
f 427/427/427 436/436/436 428/428/428
f 429/429/429 430/430/430 427/427/427
f 427/427/427 428/428/428 429/429/429
f 430/430/430 438/438/438 439/439/439
f 429/429/429 438/438/438 430/430/430
f 439/439/439 438/438/438 507/507/507
f 507/507/507 440/440/440 439/439/439
f 439/439/439 440/440/440 441/441/441
f 441/441/441 426/426/426 385/385/385
f 385/385/385 426/426/426 425/425/425
f 289/289/289 285/285/285 287/287/287
f 285/285/285 286/286/286 287/287/287
f 287/287/287 288/288/288 289/289/289
f 563/563/563 562/562/562 565/565/565
f 562/562/562 563/563/563 564/564/564
f 565/565/565 566/566/566 563/563/563
f 284/284/284 280/280/280 282/282/282
f 280/280/280 281/281/281 282/282/282
f 282/282/282 283/283/283 284/284/284
f 558/558/558 557/557/557 560/560/560
f 557/557/557 558/558/558 559/559/559
f 560/560/560 561/561/561 558/558/558
f 272/272/272 273/273/273 270/270/270
f 270/270/270 271/271/271 272/272/272
f 272/272/272 274/274/274 273/273/273
f 549/549/549 550/550/550 547/547/547
f 547/547/547 548/548/548 549/549/549
f 549/549/549 548/548/548 551/551/551
f 294/294/294 290/290/290 292/292/292
f 290/290/290 291/291/291 292/292/292
f 292/292/292 293/293/293 294/294/294
f 568/568/568 567/567/567 570/570/570
f 567/567/567 568/568/568 569/569/569
f 570/570/570 571/571/571 568/568/568
f 9/9/9 12/12/12 13/13/13
f 13/13/13 16/16/16 9/9/9
f 11/11/11 12/12/12 9/9/9
f 9/9/9 10/10/10 11/11/11
f 13/13/13 12/12/12 153/153/153
f 152/152/152 153/153/153 12/12/12
f 12/12/12 11/11/11 152/152/152
f 153/153/153 14/14/14 13/13/13
f 15/15/15 16/16/16 13/13/13
f 13/13/13 14/14/14 15/15/15
f 277/277/277 278/278/278 275/275/275
f 275/275/275 276/276/276 277/277/277
f 277/277/277 279/279/279 278/278/278
f 554/554/554 555/555/555 552/552/552
f 552/552/552 553/553/553 554/554/554
f 554/554/554 553/553/553 556/556/556
f 3/3/3 2/2/2 321/321/321
f 322/322/322 321/321/321 501/501/501
f 501/501/501 321/321/321 469/469/469
f 321/321/321 322/322/322 3/3/3
f 3/3/3 322/322/322 582/582/582
f 582/582/582 320/320/320 3/3/3
f 3/3/3 320/320/320 305/305/305
f 305/305/305 4/4/4 3/3/3
f 455/455/455 582/582/582 322/322/322
f 322/322/322 357/357/357 455/455/455
f 357/357/357 322/322/322 463/463/463
f 501/501/501 505/505/505 322/322/322
f 322/322/322 505/505/505 463/463/463
f 469/469/469 500/500/500 501/501/501
f 500/500/500 469/469/469 464/464/464
f 469/469/469 470/470/470 466/466/466
f 466/466/466 464/464/464 469/469/469
f 180/180/180 470/470/470 469/469/469
f 465/465/465 464/464/464 468/468/468
f 467/467/467 468/468/468 464/464/464
f 464/464/464 466/466/466 467/467/467
f 463/463/463 464/464/464 465/465/465
f 463/463/463 465/465/465 357/357/357
f 357/357/357 465/465/465 356/356/356
f 468/468/468 452/452/452 465/465/465
f 356/356/356 465/465/465 452/452/452
f 452/452/452 468/468/468 308/308/308
f 468/468/468 467/467/467 307/307/307
f 307/307/307 308/308/308 468/468/468
f 308/308/308 183/183/183 452/452/452
f 452/452/452 378/378/378 356/356/356
f 447/447/447 452/452/452 183/183/183
f 447/447/447 378/378/378 452/452/452
f 356/356/356 378/378/378 323/323/323
f 323/323/323 326/326/326 356/356/356
f 356/356/356 326/326/326 357/357/357
f 378/378/378 447/447/447 446/446/446
f 446/446/446 379/379/379 378/378/378
f 380/380/380 323/323/323 378/378/378
f 378/378/378 379/379/379 380/380/380
f 183/183/183 182/182/182 447/447/447
f 157/157/157 183/183/183 308/308/308
f 183/183/183 157/157/157 149/149/149
f 149/149/149 182/182/182 183/183/183
f 308/308/308 175/175/175 157/157/157
f 173/173/173 157/157/157 175/175/175
f 49/49/49 80/80/80 157/157/157
f 157/157/157 173/173/173 49/49/49
f 149/149/149 157/157/157 80/80/80
f 175/175/175 308/308/308 307/307/307
f 307/307/307 176/176/176 175/175/175
f 175/175/175 174/174/174 173/173/173
f 174/174/174 175/175/175 176/176/176
f 50/50/50 49/49/49 173/173/173
f 172/172/172 50/50/50 173/173/173
f 247/247/247 248/248/248 245/245/245
f 245/245/245 246/246/246 247/247/247
f 247/247/247 246/246/246 249/249/249
f 524/524/524 525/525/525 522/522/522
f 522/522/522 523/523/523 524/524/524
f 524/524/524 526/526/526 525/525/525
f 162/162/162 69/69/69 68/68/68
f 68/68/68 163/163/163 162/162/162
f 166/166/166 163/163/163 68/68/68
f 68/68/68 71/71/71 166/166/166
f 70/70/70 71/71/71 68/68/68
f 68/68/68 69/69/69 70/70/70
f 162/162/162 457/457/457 373/373/373
f 373/373/373 69/69/69 162/162/162
f 457/457/457 162/162/162 161/161/161
f 161/161/161 162/162/162 163/163/163
f 221/221/221 222/222/222 178/178/178
f 222/222/222 174/174/174 178/178/178
f 178/178/178 174/174/174 177/177/177
f 177/177/177 179/179/179 178/178/178
f 178/178/178 179/179/179 180/180/180
f 176/176/176 177/177/177 174/174/174
f 233/233/233 232/232/232 510/510/510
f 233/233/233 234/234/234 231/231/231
f 231/231/231 232/232/232 233/233/233
f 151/151/151 234/234/234 238/238/238
f 234/234/234 151/151/151 230/230/230
f 230/230/230 231/231/231 234/234/234
f 312/312/312 63/63/63 238/238/238
f 312/312/312 310/310/310 64/64/64
f 64/64/64 63/63/63 312/312/312
f 63/63/63 29/29/29 51/51/51
f 63/63/63 64/64/64 62/62/62
f 62/62/62 29/29/29 63/63/63
f 154/154/154 62/62/62 64/64/64
f 41/41/41 51/51/51 34/34/34
f 51/51/51 29/29/29 28/28/28
f 28/28/28 34/34/34 51/51/51
f 28/28/28 29/29/29 30/30/30
f 28/28/28 32/32/32 34/34/34
f 28/28/28 35/35/35 32/32/32
f 31/31/31 35/35/35 28/28/28
f 30/30/30 31/31/31 28/28/28
f 56/56/56 31/31/31 30/30/30
f 30/30/30 55/55/55 56/56/56
f 56/56/56 40/40/40 31/31/31
f 229/229/229 230/230/230 151/151/151
f 181/181/181 2/2/2 1/1/1
f 1/1/1 178/178/178 181/181/181
f 221/221/221 1/1/1 4/4/4
f 178/178/178 1/1/1 221/221/221
f 3/3/3 4/4/4 1/1/1
f 1/1/1 2/2/2 3/3/3
f 181/181/181 469/469/469 321/321/321
f 321/321/321 2/2/2 181/181/181
f 469/469/469 181/181/181 180/180/180
f 180/180/180 181/181/181 178/178/178
f 58/58/58 59/59/59 57/57/57
f 60/60/60 58/58/58 19/19/19
f 158/158/158 59/59/59 58/58/58
f 58/58/58 60/60/60 158/158/158
f 17/17/17 19/19/19 58/58/58
f 72/72/72 18/18/18 17/17/17
f 17/17/17 18/18/18 19/19/19
f 261/261/261 260/260/260 263/263/263
f 260/260/260 261/261/261 262/262/262
f 263/263/263 264/264/264 261/261/261
f 541/541/541 537/537/537 539/539/539
f 537/537/537 538/538/538 539/539/539
f 539/539/539 540/540/540 541/541/541
f 266/266/266 265/265/265 268/268/268
f 265/265/265 266/266/266 267/267/267
f 268/268/268 269/269/269 266/266/266
f 546/546/546 542/542/542 544/544/544
f 542/542/542 543/543/543 544/544/544
f 544/544/544 545/545/545 546/546/546
f 251/251/251 250/250/250 253/253/253
f 250/250/250 251/251/251 252/252/252
f 253/253/253 254/254/254 251/251/251
f 531/531/531 527/527/527 529/529/529
f 527/527/527 528/528/528 529/529/529
f 529/529/529 530/530/530 531/531/531
f 298/298/298 299/299/299 295/295/295
f 297/297/297 298/298/298 295/295/295
f 295/295/295 296/296/296 297/297/297
f 573/573/573 572/572/572 576/576/576
f 574/574/574 575/575/575 572/572/572
f 572/572/572 573/573/573 574/574/574
f 215/215/215 216/216/216 206/206/206
f 206/206/206 205/205/205 215/215/215
f 237/237/237 215/215/215 205/205/205
f 225/225/225 216/216/216 215/215/215
f 215/215/215 224/224/224 225/225/225
f 216/216/216 225/225/225 217/217/217
f 217/217/217 225/225/225 212/212/212
f 211/211/211 218/218/218 217/217/217
f 217/217/217 212/212/212 211/211/211
f 223/223/223 218/218/218 211/211/211
f 207/207/207 218/218/218 223/223/223
f 211/211/211 220/220/220 223/223/223
f 211/211/211 214/214/214 219/219/219
f 219/219/219 220/220/220 211/211/211
f 213/213/213 214/214/214 211/211/211
f 211/211/211 212/212/212 213/213/213
f 213/213/213 212/212/212 225/225/225
f 225/225/225 224/224/224 213/213/213
f 223/223/223 208/208/208 207/207/207
f 207/207/207 208/208/208 209/209/209
f 209/209/209 235/235/235 210/210/210
f 495/495/495 486/486/486 485/485/485
f 485/485/485 494/494/494 495/495/495
f 514/514/514 486/486/486 495/495/495
f 503/503/503 504/504/504 495/495/495
f 495/495/495 494/494/494 503/503/503
f 494/494/494 497/497/497 503/503/503
f 497/497/497 493/493/493 503/503/503
f 490/490/490 493/493/493 497/497/497
f 497/497/497 496/496/496 490/490/490
f 490/490/490 496/496/496 502/502/502
f 502/502/502 496/496/496 484/484/484
f 502/502/502 499/499/499 490/490/490
f 490/490/490 499/499/499 498/498/498
f 498/498/498 491/491/491 490/490/490
f 492/492/492 493/493/493 490/490/490
f 490/490/490 491/491/491 492/492/492
f 503/503/503 493/493/493 492/492/492
f 492/492/492 504/504/504 503/503/503
f 484/484/484 488/488/488 502/502/502
f 487/487/487 488/488/488 484/484/484
f 487/487/487 489/489/489 512/512/512
f 80/80/80 5/5/5 81/81/81
f 5/5/5 6/6/6 7/7/7
f 80/80/80 82/82/82 148/148/148
f 148/148/148 149/149/149 80/80/80
f 148/148/148 82/82/82 147/147/147
f 147/147/147 227/227/227 148/148/148
f 442/442/442 443/443/443 372/372/372
f 372/372/372 371/371/371 442/442/442
f 442/442/442 371/371/371 380/380/380
f 380/380/380 445/445/445 442/442/442
f 444/444/444 445/445/445 380/380/380
f 380/380/380 379/379/379 444/444/444
f 444/444/444 379/379/379 446/446/446
f 446/446/446 506/506/506 444/444/444
f 257/257/257 258/258/258 255/255/255
f 255/255/255 256/256/256 257/257/257
f 257/257/257 256/256/256 259/259/259
f 534/534/534 535/535/535 532/532/532
f 532/532/532 533/533/533 534/534/534
f 534/534/534 536/536/536 535/535/535
f 448/448/448 353/353/353 377/377/377
f 313/313/313 203/203/203 448/448/448
f 150/150/150 203/203/203 313/313/313
f 203/203/203 150/150/150 46/46/46
f 79/79/79 46/46/46 150/150/150
f 46/46/46 79/79/79 65/65/65
f 65/65/65 44/44/44 46/46/46
f 44/44/44 65/65/65 51/51/51
f 51/51/51 41/41/41 44/44/44
f 65/65/65 79/79/79 238/238/238
f 238/238/238 63/63/63 65/65/65
f 51/51/51 65/65/65 63/63/63
f 238/238/238 79/79/79 151/151/151
f 150/150/150 151/151/151 79/79/79
f 313/313/313 229/229/229 150/150/150
f 151/151/151 150/150/150 229/229/229
f 448/448/448 508/508/508 313/313/313
f 508/508/508 448/448/448 449/449/449
f 377/377/377 449/449/449 448/448/448
f 449/449/449 509/509/509 508/508/508
f 515/515/515 511/511/511 449/449/449
f 449/449/449 377/377/377 515/515/515
f 509/509/509 449/449/449 511/511/511
f 511/511/511 510/510/510 509/509/509
f 511/511/511 515/515/515 311/311/311
f 311/311/311 233/233/233 511/511/511
f 510/510/510 511/511/511 233/233/233
f 312/312/312 311/311/311 515/515/515
f 238/238/238 311/311/311 312/312/312
f 234/234/234 233/233/233 311/311/311
f 311/311/311 238/238/238 234/234/234
f 236/236/236 237/237/237 204/204/204
f 237/237/237 205/205/205 204/204/204
f 210/210/210 236/236/236 204/204/204
f 209/209/209 210/210/210 204/204/204
f 209/209/209 204/204/204 207/207/207
f 206/206/206 207/207/207 204/204/204
f 204/204/204 205/205/205 206/206/206
f 206/206/206 216/216/216 217/217/217
f 218/218/218 207/207/207 206/206/206
f 206/206/206 217/217/217 218/218/218
f 513/513/513 483/483/483 514/514/514
f 514/514/514 483/483/483 486/486/486
f 489/489/489 483/483/483 513/513/513
f 487/487/487 483/483/483 489/489/489
f 484/484/484 483/483/483 487/487/487
f 485/485/485 486/486/486 483/483/483
f 483/483/483 484/484/484 485/485/485
f 485/485/485 497/497/497 494/494/494
f 496/496/496 497/497/497 485/485/485
f 485/485/485 484/484/484 496/496/496
f 317/317/317 319/319/319 583/583/583
f 317/317/317 318/318/318 319/319/319
f 244/244/244 240/240/240 239/239/239
f 239/239/239 240/240/240 241/241/241
f 243/243/243 240/240/240 244/244/244
f 241/241/241 240/240/240 242/242/242
f 242/242/242 240/240/240 243/243/243
f 521/521/521 516/516/516 518/518/518
f 516/516/516 517/517/517 518/518/518
f 520/520/520 521/521/521 518/518/518
f 517/517/517 519/519/519 518/518/518
f 519/519/519 520/520/520 518/518/518
f 172/172/172 173/173/173 174/174/174
f 49/49/49 6/6/6 5/5/5
f 5/5/5 80/80/80 49/49/49
f 49/49/49 50/50/50 6/6/6
f 159/159/159 50/50/50 4/4/4
f 50/50/50 172/172/172 4/4/4
f 50/50/50 75/75/75 7/7/7
f 75/75/75 50/50/50 159/159/159
f 6/6/6 50/50/50 7/7/7
f 4/4/4 172/172/172 226/226/226
f 4/4/4 305/305/305 159/159/159
f 4/4/4 226/226/226 221/221/221
f 75/75/75 159/159/159 160/160/160
f 76/76/76 75/75/75 160/160/160
f 77/77/77 7/7/7 75/75/75
f 75/75/75 76/76/76 77/77/77
f 160/160/160 314/314/314 76/76/76
f 454/454/454 376/376/376 76/76/76
f 76/76/76 314/314/314 454/454/454
f 77/77/77 76/76/76 376/376/376
f 355/355/355 78/78/78 77/77/77
f 77/77/77 325/325/325 355/355/355
f 376/376/376 325/325/325 77/77/77
f 47/47/47 7/7/7 77/77/77
f 77/77/77 78/78/78 47/47/47
f 357/357/357 325/325/325 376/376/376
f 376/376/376 455/455/455 357/357/357
f 376/376/376 454/454/454 455/455/455
f 326/326/326 325/325/325 357/357/357
f 355/355/355 325/325/325 324/324/324
f 325/325/325 326/326/326 323/323/323
f 199/199/199 480/480/480 479/479/479
f 479/479/479 197/197/197 199/199/199
f 199/199/199 197/197/197 196/196/196
f 196/196/196 198/198/198 199/199/199
f 195/195/195 196/196/196 197/197/197
f 478/478/478 197/197/197 479/479/479
f 70/70/70 69/69/69 373/373/373
f 461/461/461 374/374/374 373/373/373
f 373/373/373 457/457/457 461/461/461
f 373/373/373 374/374/374 70/70/70
f 70/70/70 374/374/374 462/462/462
f 462/462/462 170/170/170 70/70/70
f 70/70/70 170/170/170 169/169/169
f 169/169/169 71/71/71 70/70/70
f 166/166/166 71/71/71 169/169/169
f 169/169/169 167/167/167 166/166/166
f 171/171/171 167/167/167 169/169/169
f 169/169/169 170/170/170 171/171/171
f 171/171/171 170/170/170 462/462/462
f 462/462/462 374/374/374 461/461/461
f 461/461/461 460/460/460 462/462/462
f 462/462/462 460/460/460 171/171/171
f 458/458/458 461/461/461 457/457/457
f 460/460/460 461/461/461 458/458/458
f 460/460/460 459/459/459 315/315/315
f 315/315/315 171/171/171 460/460/460
f 458/458/458 459/459/459 460/460/460
f 167/167/167 171/171/171 315/315/315
f 315/315/315 168/168/168 167/167/167
f 167/167/167 168/168/168 165/165/165
f 165/165/165 166/166/166 167/167/167
f 323/323/323 324/324/324 325/325/325
f 78/78/78 355/355/355 354/354/354
f 324/324/324 354/354/354 355/355/355
f 324/324/324 323/323/323 380/380/380
f 380/380/380 371/371/371 324/324/324
f 372/372/372 354/354/354 324/324/324
f 324/324/324 371/371/371 372/372/372
f 354/354/354 156/156/156 78/78/78
f 78/78/78 156/156/156 48/48/48
f 48/48/48 47/47/47 78/78/78
f 8/8/8 48/48/48 66/66/66
f 47/47/47 48/48/48 8/8/8
f 8/8/8 7/7/7 47/47/47
f 8/8/8 67/67/67 81/81/81
f 81/81/81 5/5/5 8/8/8
f 66/66/66 67/67/67 8/8/8
f 7/7/7 8/8/8 5/5/5
f 145/145/145 67/67/67 66/66/66
f 66/66/66 144/144/144 145/145/145
f 81/81/81 67/67/67 145/145/145
f 145/145/145 146/146/146 81/81/81
f 147/147/147 82/82/82 81/81/81
f 81/81/81 146/146/146 147/147/147
f 81/81/81 82/82/82 80/80/80
f 202/202/202 184/184/184 186/186/186
f 184/184/184 185/185/185 186/186/186
f 186/186/186 199/199/199 202/202/202
f 198/198/198 202/202/202 199/199/199
f 186/186/186 316/316/316 472/472/472
f 186/186/186 471/471/471 482/482/482
f 482/482/482 199/199/199 186/186/186
f 471/471/471 186/186/186 472/472/472
f 186/186/186 185/185/185 316/316/316
f 480/480/480 199/199/199 482/482/482
f 24/24/24 38/38/38 349/349/349
f 345/345/345 338/338/338 349/349/349
f 348/348/348 349/349/349 38/38/38
f 38/38/38 37/37/37 348/348/348
f 39/39/39 38/38/38 24/24/24
f 38/38/38 39/39/39 36/36/36
f 36/36/36 37/37/37 38/38/38
f 24/24/24 27/27/27 39/39/39
f 39/39/39 27/27/27 34/34/34
f 339/339/339 25/25/25 24/24/24
f 24/24/24 338/338/338 339/339/339
f 26/26/26 27/27/27 24/24/24
f 24/24/24 25/25/25 26/26/26
f 339/339/339 338/338/338 345/345/345
f 42/42/42 25/25/25 339/339/339
f 26/26/26 25/25/25 42/42/42
f 26/26/26 34/34/34 27/27/27
f 34/34/34 26/26/26 41/41/41
f 42/42/42 41/41/41 26/26/26
f 362/362/362 359/359/359 53/53/53
f 53/53/53 309/309/309 362/362/362
f 54/54/54 53/53/53 359/359/359
f 57/57/57 309/309/309 53/53/53
f 53/53/53 52/52/52 57/57/57
f 52/52/52 53/53/53 54/54/54
f 17/17/17 54/54/54 72/72/72
f 54/54/54 17/17/17 52/52/52
f 58/58/58 52/52/52 17/17/17
f 57/57/57 52/52/52 58/58/58
f 391/391/391 415/415/415 392/392/392
f 393/393/393 394/394/394 391/391/391
f 391/391/391 392/392/392 393/393/393
f 393/393/393 422/422/422 394/394/394
f 422/422/422 393/393/393 404/404/404
f 404/404/404 393/393/393 402/402/402
f 435/435/435 422/422/422 421/421/421
f 404/404/404 421/421/421 422/422/422
f 418/418/418 421/421/421 404/404/404
f 418/418/418 404/404/404 411/411/411
f 93/93/93 96/96/96 117/117/117
f 95/95/95 96/96/96 93/93/93
f 93/93/93 94/94/94 95/95/95
f 95/95/95 94/94/94 123/123/123
f 105/105/105 95/95/95 123/123/123
f 104/104/104 95/95/95 105/105/105
f 124/124/124 123/123/123 136/136/136
f 123/123/123 124/124/124 105/105/105
f 120/120/120 105/105/105 124/124/124
f 112/112/112 105/105/105 120/120/120
f 402/402/402 403/403/403 404/404/404
f 402/402/402 417/417/417 403/403/403
f 411/411/411 410/410/410 418/418/418
f 409/409/409 410/410/410 411/411/411
f 421/421/421 434/434/434 435/435/435
f 434/434/434 437/437/437 435/435/435
f 105/105/105 106/106/106 104/104/104
f 104/104/104 106/106/106 119/119/119
f 120/120/120 113/113/113 112/112/112
f 111/111/111 112/112/112 113/113/113
f 137/137/137 136/136/136 139/139/139
f 136/136/136 137/137/137 124/124/124
f 40/40/40 35/35/35 31/31/31
f 33/33/33 35/35/35 40/40/40
f 32/32/32 35/35/35 33/33/33
f 32/32/32 33/33/33 34/34/34
f 34/34/34 33/33/33 39/39/39
f 39/39/39 33/33/33 40/40/40
f 23/23/23 36/36/36 40/40/40
f 40/40/40 56/56/56 23/23/23
f 40/40/40 36/36/36 39/39/39
f 56/56/56 61/61/61 20/20/20
f 20/20/20 23/23/23 56/56/56
f 61/61/61 56/56/56 55/55/55
f 60/60/60 55/55/55 158/158/158
f 55/55/55 60/60/60 61/61/61
f 19/19/19 61/61/61 60/60/60
f 61/61/61 19/19/19 74/74/74
f 74/74/74 20/20/20 61/61/61
f 21/21/21 20/20/20 74/74/74
f 22/22/22 23/23/23 20/20/20
f 20/20/20 21/21/21 22/22/22
f 36/36/36 23/23/23 22/22/22
f 22/22/22 337/337/337 348/348/348
f 348/348/348 37/37/37 22/22/22
f 22/22/22 21/21/21 336/336/336
f 336/336/336 337/337/337 22/22/22
f 22/22/22 37/37/37 36/36/36
f 21/21/21 73/73/73 375/375/375
f 375/375/375 336/336/336 21/21/21
f 74/74/74 73/73/73 21/21/21
f 18/18/18 74/74/74 19/19/19
f 73/73/73 74/74/74 18/18/18
f 73/73/73 72/72/72 335/335/335
f 335/335/335 375/375/375 73/73/73
f 18/18/18 72/72/72 73/73/73
f 365/365/365 336/336/336 375/375/375
f 375/375/375 334/334/334 365/365/365
f 335/335/335 334/334/334 375/375/375
f 360/360/360 337/337/337 336/336/336
f 336/336/336 365/365/365 360/360/360
f 366/366/366 365/365/365 334/334/334
f 365/365/365 366/366/366 361/361/361
f 361/361/361 360/360/360 365/365/365
f 334/334/334 364/364/364 366/366/366
f 364/364/364 334/334/334 333/333/333
f 333/333/333 334/334/334 335/335/335
f 333/333/333 335/335/335 72/72/72
f 333/333/333 359/359/359 364/364/364
f 72/72/72 54/54/54 333/333/333
f 359/359/359 333/333/333 54/54/54
f 453/453/453 366/366/366 364/364/364
f 364/364/364 363/363/363 453/453/453
f 364/364/364 359/359/359 362/362/362
f 362/362/362 363/363/363 364/364/364
f 366/366/366 453/453/453 361/361/361
f 360/360/360 361/361/361 342/342/342
f 337/337/337 360/360/360 350/350/350
f 360/360/360 341/341/341 350/350/350
f 342/342/342 341/341/341 360/360/360
f 340/340/340 341/341/341 342/342/342
f 350/350/350 341/341/341 347/347/347
f 341/341/341 340/340/340 347/347/347
f 350/350/350 348/348/348 337/337/337
f 346/346/346 350/350/350 347/347/347
f 349/349/349 348/348/348 350/350/350
f 350/350/350 346/346/346 349/349/349
f 340/340/340 344/344/344 347/347/347
f 344/344/344 346/346/346 347/347/347
f 340/340/340 345/345/345 344/344/344
f 344/344/344 345/345/345 346/346/346
f 349/349/349 346/346/346 345/345/345
f 349/349/349 338/338/338 24/24/24
