# mosasaurus reconstructed from live game memory
v -0.00001 21.95220 -96.30667
v -0.00001 25.77415 -88.40218
v -10.00775 28.07714 -88.42380
v -4.27039 24.68476 -107.30228
v -11.64081 48.12134 -64.65263
v -12.90501 40.73544 -64.80644
v -14.39237 42.76478 -71.69365
v -17.04365 36.60169 -59.10779
v -16.20826 36.26337 -70.24570
v -15.15949 43.87956 -58.38532
v -2.88050 21.29985 -106.64026
v -4.27039 24.68476 -107.30228
v -10.00775 28.07714 -88.42380
v -8.13936 22.71686 -88.41721
v -16.13079 22.73653 -44.75703
v -17.47478 23.52844 -52.55256
v -19.63791 33.25519 -52.58976
v -19.38031 34.65016 -44.73930
v -13.49393 23.22172 -74.25702
v -0.00001 17.31936 -74.22932
v -0.00001 17.85803 -88.40273
v -20.60586 33.73495 -33.06796
v -14.97909 20.00779 -33.10270
v -10.20943 34.02986 -88.43428
v -4.87484 33.95193 -108.65666
v -3.48382 38.04245 -106.87294
v -6.61414 40.87577 -88.43770
v -5.86099 48.03692 73.19821
v 0.00001 53.76401 73.20744
v 0.00002 49.81170 106.82980
v -3.89592 43.16545 106.79308
v -12.44514 33.53238 73.21547
v -9.22851 33.70815 106.74593
v -4.80618 25.25719 106.73058
v -6.99059 20.96855 73.24683
v -3.50239 33.65835 211.83345
v -4.44785 33.74534 199.42598
v -1.81213 41.48925 199.38191
v -0.97943 36.63891 211.85811
v 0.00003 33.60109 219.85786
v -9.72878 50.81329 42.56008
v 0.00000 57.05283 42.56693
v 0.00001 55.74904 58.05109
v -8.48488 49.74474 58.05782
v -22.66982 43.03801 0.06973
v -25.66498 29.34962 0.03745
v -24.72573 33.46130 -12.69944
v -20.83652 44.01682 -16.76220
v -4.69775 33.84856 185.45284
v -1.66614 40.98381 185.48235
v 0.00003 49.64996 185.68803
v 0.00003 50.00244 198.68225
v -1.26232 25.72226 185.43970
v -1.17919 26.00069 199.48820
v -11.37089 46.03492 -64.67979
v -15.32174 42.00211 -65.02321
v -13.71571 41.96628 -70.33864
v -15.40479 37.22893 -68.87929
v -16.00093 37.44055 -60.41092
v -14.56452 43.28252 -59.78054
v -28.24049 31.59495 -12.77724
v -37.79623 29.64292 -13.08954
v -37.46731 28.42978 -19.32358
v -27.84852 30.90900 -17.70602
v -48.45163 28.99545 -7.86688
v -46.34537 28.32428 -18.68838
v -37.52735 26.72796 -21.74873
v -27.49001 28.19023 -19.98736
v -47.11626 26.10203 -20.80099
v -27.52458 26.00196 -18.30074
v -22.53401 25.70173 -17.80864
v -23.27451 29.17084 -20.70775
v -35.40136 28.98132 -5.25001
v -34.48333 26.59346 -3.02989
v -41.02945 26.49757 0.54356
v -41.97322 28.63825 -1.39717
v -34.48333 26.59346 -3.02989
v -35.61787 25.53338 -4.72652
v -42.77968 25.27376 -1.58451
v -41.02945 26.49757 0.54356
v -24.72573 33.46130 -12.69944
v -25.66498 29.34962 0.03745
v -29.00850 29.45495 -7.14770
v -19.95395 20.17844 0.02107
v -23.56591 24.49835 -5.42663
v -23.93502 33.22449 -18.46381
v -18.10037 43.82909 -33.05677
v -12.44514 33.53238 73.21547
v -15.61595 25.68503 65.47871
v -16.98606 31.00867 58.85722
v -15.39257 37.09043 58.05151
v -15.69158 31.72258 -74.29939
v -23.27451 29.17084 -20.70775
v -19.38441 22.09021 -20.15525
v -37.81718 25.11596 -18.42249
v -46.23279 24.31293 -17.55385
v -15.50730 17.63909 -20.61466
v -15.45988 15.95942 0.03173
v 0.00000 10.45351 0.02419
v 0.00000 12.71126 -21.07784
v -14.59412 16.84969 27.57327
v 0.00001 11.08907 27.53573
v 0.00001 53.76401 73.20744
v -5.86099 48.03692 73.19821
v -22.53401 25.70173 -17.80864
v -16.70593 22.76441 58.59438
v -9.58274 18.04590 59.00609
v -14.57002 16.97110 42.37350
v -16.98606 31.00867 58.85722
v -19.14776 27.58215 60.74482
v -20.05599 25.29975 55.38788
v -18.99746 27.84189 52.76321
v -18.09090 24.92126 67.18521
v -15.61595 25.68503 65.47871
v -16.70593 22.76441 58.59438
v -19.91543 23.30012 59.53036
v -18.09090 24.92126 67.18521
v -15.61595 25.68503 65.47871
v -10.36567 52.17962 27.72433
v 0.00000 58.54522 27.76061
v -18.99746 27.84189 52.76321
v -18.79529 39.66896 42.51993
v -15.69158 31.72258 -74.29939
v -0.00001 29.45613 -65.56213
v -16.56099 32.54908 -63.16804
v -0.00001 38.54671 -77.94598
v -15.08602 34.01295 -74.32761
v 0.00001 11.76020 42.27804
v -22.64667 26.23297 27.61376
v -20.73678 26.41103 42.44616
v -6.99059 20.96855 73.24683
v 0.00001 13.37731 58.85796
v 0.00001 15.63278 73.26920
v -20.35611 40.81916 27.68807
v -0.00000 15.49641 -44.74423
v -0.00000 15.68237 -52.52147
v -8.97759 52.27254 -52.36703
v -7.52211 51.04943 -64.79906
v -9.67386 42.02605 -75.58598
v -15.08602 34.01295 -74.32761
v -19.63791 33.25519 -52.58976
v -16.56099 32.54908 -63.16804
v -16.32407 43.04482 -52.46582
v -16.47059 44.02256 -44.73313
v -8.90548 53.18759 -44.73099
v -9.56216 53.42952 -33.02761
v -0.00001 58.47616 -44.74651
v -0.00001 60.29647 -33.01274
v -1.04492 30.22706 211.98860
v 0.00002 18.35077 106.70813
v 0.00001 15.63278 73.26920
v -52.17772 26.15495 1.29533
v -52.00964 27.98655 -1.20541
v 0.00003 43.69984 211.97777
v 0.00003 17.55016 198.60088
v 0.00003 22.04360 211.90871
v -10.20943 34.02986 -88.43428
v -0.00001 38.14917 -88.44073
v -0.00001 37.20696 -97.98019
v -4.87484 33.95193 -108.65666
v -25.06923 26.61998 64.01593
v -26.73145 24.57414 57.37313
v -22.12428 25.27472 71.20587
v -31.24430 26.79283 66.89787
v -32.87115 24.44192 61.29743
v -36.53107 25.06676 67.36447
v -27.47950 25.34997 73.70157
v -36.16956 25.28568 73.82680
v -25.55798 21.61568 59.15678
v -22.94426 22.46247 68.56548
v -28.33213 22.29816 71.74657
v -30.47643 21.84958 63.06823
v -34.85717 22.19329 67.49095
v -34.31557 22.28123 71.62894
v -37.60640 23.71855 74.73418
v -27.37683 23.93020 75.06642
v -21.49499 24.21506 71.99002
v -27.33572 23.30507 54.70390
v -33.97081 23.03019 59.59489
v -27.37683 23.93020 75.06642
v -37.60640 23.71855 74.73418
v -21.49499 24.21506 71.99002
v -38.03645 23.54266 67.13365
v 0.00003 18.32254 185.21461
v -2.23089 40.00597 165.04468
v 0.00002 47.95166 165.20726
v -2.08691 26.43977 165.18036
v -5.63558 33.15245 165.08823
v -10.63603 53.61145 -16.37348
v -11.16440 53.58110 0.09525
v -0.00001 21.48161 -108.86304
v -0.00001 24.43680 -109.54491
v -0.00002 33.94333 -111.57260
v -0.00001 53.38387 -64.79996
v -0.00001 56.93396 -52.29930
v -0.00001 49.11386 -76.02409
v -0.00001 45.59972 -88.43961
v -17.07352 31.43561 -63.09228
v -16.48492 23.61544 -62.73873
v -0.00001 16.54483 -62.45925
v -19.63791 33.25519 -52.58976
v -0.00001 34.09418 -47.72497
v -17.07352 31.43561 -63.09228
v -0.00000 14.58314 -33.15368
v -0.00002 40.83554 -105.57611
v -0.00002 36.70217 -109.96036
v -23.93502 33.22449 -18.46381
v -0.00000 61.09064 -15.97387
v -0.00000 61.03427 0.11482
v 0.00003 18.93358 165.04831
v -0.00001 18.78349 -98.70088
v -0.00002 33.94333 -111.57260
v 0.00002 46.80687 135.50298
v -2.44986 40.51468 135.45618
v -3.18955 25.30191 135.40599
v -7.11074 33.58871 135.41399
v 0.00002 19.83204 135.37662
v -19.63791 33.25519 -52.58976
v -0.00001 29.45613 -65.56213
v -0.00001 34.09418 -47.72497
v -19.63791 33.25519 -52.58976
v -61.15831 26.35078 -3.81326
v -59.04762 27.66602 -4.73160
v -29.08534 27.12580 -4.47184
v -29.08534 27.12580 -4.47184
v -28.19083 25.65527 -8.02696
v -52.79558 24.65541 -1.65168
v -52.17772 26.15495 1.29533
v -0.00001 24.43680 -109.54491
v -54.47050 24.46285 -11.90881
v -58.39506 25.09055 -4.59759
v -61.15831 26.35078 -3.81326
v -23.56591 24.49835 -5.42663
v -25.66498 29.34962 0.03745
v -55.10689 28.26615 -12.51623
v -56.22182 26.10864 -14.39579
v -5.75837 35.07008 -99.90984
v -4.27552 30.68838 -102.04106
v -4.61647 34.91745 -104.09599
v -4.87206 35.07064 -103.48788
v -3.15055 30.69070 -105.48062
v -3.19164 34.91909 -107.58916
v -3.75098 35.02724 -106.93121
v -1.29209 30.66054 -107.87256
v -0.00002 34.89167 -109.76427
v -5.40254 34.99260 -96.07005
v -4.38449 30.60512 -98.65953
v -4.75206 34.83877 -100.35136
v -6.09384 35.53925 -91.41563
v -5.11219 30.63160 -93.60483
v -5.33869 35.37712 -96.35614
v -6.83900 34.77945 -88.26018
v -6.14083 30.65078 -90.57378
v -5.98719 35.11271 -92.18279
v -8.00864 35.48294 -84.58910
v -6.95122 30.98602 -86.53069
v -7.03507 35.63579 -88.88158
v -9.00825 35.19511 -80.45111
v -7.74904 30.84208 -82.64290
v -8.00864 35.48294 -84.58910
v -10.10914 35.41021 -76.11349
v -8.80073 31.01438 -78.05551
v -9.00825 35.19511 -80.45111
v -10.88581 35.81539 -71.83818
v -9.68653 31.28120 -73.63254
v -10.10914 35.41021 -76.11348
v -7.90902 27.19010 -82.02669
v -8.04106 30.87272 -80.43666
v -8.80610 27.83120 -78.89200
v -9.29577 28.15760 -77.59169
v -8.82578 31.76356 -75.99480
v -10.06456 28.68595 -74.39093
v -10.37548 29.09412 -73.13531
v -9.67619 32.88990 -71.51175
v -10.77310 29.79813 -69.82739
v -7.24312 26.83239 -86.30487
v -7.78457 30.81005 -84.73712
v -7.88028 27.21572 -83.06462
v -6.23892 26.02714 -90.38245
v -7.01609 30.06592 -88.70061
v -6.82279 26.24848 -86.35104
v -5.20944 25.81965 -94.31085
v -5.95917 29.88708 -92.26546
v -6.23892 26.02714 -90.38243
v -4.34525 24.47279 -98.62892
v -4.61141 28.73594 -96.61682
v -5.31300 25.26283 -94.59354
v -3.78528 23.89476 -101.91118
v -4.28138 28.12602 -100.12430
v -4.88208 24.59410 -98.06470
v -3.26875 23.32928 -105.75285
v -3.29144 27.60962 -103.69244
v -3.86455 24.13432 -101.37553
v -11.85408 35.87740 -66.91664
v -10.65481 31.34324 -68.71106
v -11.00939 35.41221 -71.02975
v -11.84647 30.38705 -67.74054
v -11.40709 34.24606 -65.99541
v -12.73134 30.85384 -64.56747
v -3.45801 24.50576 -105.35797
v -0.00001 23.97455 -107.43842
v -1.18046 28.05423 -105.88976
v 4.27036 24.68476 -107.30228
v 10.00773 28.07714 -88.42380
v 11.64079 48.12134 -64.65263
v 14.39235 42.76479 -71.69365
v 12.90499 40.73545 -64.80644
v 17.04363 36.60170 -59.10780
v 16.20824 36.26338 -70.24568
v 15.15947 43.87957 -58.38533
v 2.88047 21.29985 -106.64026
v 8.13934 22.71687 -88.41721
v 10.00773 28.07714 -88.42380
v 4.27036 24.68476 -107.30228
v 16.13078 22.73654 -44.75703
v 19.38030 34.65017 -44.73930
v 19.63790 33.25520 -52.58977
v 17.47477 23.52845 -52.55256
v 13.49391 23.22172 -74.25702
v 20.60585 33.73496 -33.06796
v 14.97909 20.00780 -33.10270
v 10.20941 34.02986 -88.43427
v 6.61411 40.87577 -88.43770
v 3.48379 38.04245 -106.87294
v 4.87481 33.95193 -108.65666
v 5.86101 48.03692 73.19821
v 3.89595 43.16545 106.79309
v 12.44517 33.53238 73.21548
v 6.99061 20.96856 73.24683
v 4.80622 25.25719 106.73058
v 9.22854 33.70815 106.74594
v 3.50246 33.65835 211.83345
v 0.97949 36.63891 211.85811
v 1.81219 41.48925 199.38191
v 4.44791 33.74534 199.42598
v 9.72879 50.81329 42.56008
v 8.48489 49.74474 58.05782
v 22.66982 43.03801 0.06973
v 20.83652 44.01682 -16.76220
v 24.72573 33.46131 -12.69944
v 25.66499 29.34963 0.03745
v 1.66619 40.98381 185.48235
v 4.69781 33.84856 185.45284
v 1.26238 25.72226 185.43970
v 1.17925 26.00069 199.48820
v 11.37087 46.03492 -64.67978
v 13.71568 41.96629 -70.33864
v 15.32172 42.00211 -65.02319
v 15.40478 37.22894 -68.87927
v 16.00091 37.44056 -60.41092
v 14.56450 43.28253 -59.78055
v 28.24049 31.59496 -12.77724
v 27.84851 30.90902 -17.70602
v 37.46732 28.42980 -19.32358
v 37.79623 29.64293 -13.08955
v 46.34538 28.32430 -18.68839
v 48.45165 28.99547 -7.86688
v 37.52735 26.72798 -21.74873
v 27.49001 28.19024 -19.98736
v 47.11627 26.10205 -20.80099
v 27.52458 26.00197 -18.30074
v 23.27451 29.17085 -20.70775
v 22.53401 25.70174 -17.80865
v 35.40137 28.98133 -5.25002
v 41.97324 28.63827 -1.39718
v 41.02947 26.49759 0.54356
v 34.48333 26.59348 -3.02989
v 34.48333 26.59348 -3.02989
v 41.02947 26.49759 0.54356
v 42.77970 25.27378 -1.58451
v 35.61788 25.53340 -4.72652
v 24.72573 33.46131 -12.69944
v 29.00850 29.45496 -7.14771
v 25.66499 29.34963 0.03745
v 23.56592 24.49837 -5.42664
v 19.95396 20.17845 0.02106
v 23.93501 33.22449 -18.46381
v 18.10036 43.82910 -33.05678
v 12.44517 33.53238 73.21548
v 15.39259 37.09044 58.05150
v 16.98608 31.00868 58.85722
v 15.61598 25.68503 65.47871
v 15.69156 31.72258 -74.29939
v 19.38440 22.09023 -20.15525
v 23.27451 29.17085 -20.70775
v 37.81718 25.11598 -18.42249
v 46.23280 24.31295 -17.55385
v 15.50730 17.63910 -20.61466
v 15.45988 15.95943 0.03173
v 14.59414 16.84969 27.57327
v 5.86101 48.03692 73.19821
v 22.53401 25.70174 -17.80865
v 16.70595 22.76442 58.59437
v 14.57004 16.97110 42.37350
v 9.58276 18.04590 59.00609
v 16.98608 31.00868 58.85722
v 18.99748 27.84190 52.76321
v 20.05601 25.29976 55.38788
v 19.14779 27.58216 60.74481
v 18.09093 24.92127 67.18523
v 15.61598 25.68503 65.47871
v 16.70595 22.76442 58.59437
v 19.91545 23.30013 59.53036
v 15.61598 25.68503 65.47871
v 18.09093 24.92127 67.18523
v 10.36567 52.17962 27.72433
v 18.79531 39.66897 42.51993
v 18.99748 27.84190 52.76321
v 15.69156 31.72258 -74.29939
v 16.56097 32.54909 -63.16805
v 15.08600 34.01296 -74.32759
v 20.73680 26.41105 42.44615
v 22.64668 26.23298 27.61376
v 6.99061 20.96856 73.24683
v 20.35612 40.81917 27.68807
v 8.97758 52.27254 -52.36703
v 7.52209 51.04943 -64.79906
v 15.08600 34.01296 -74.32759
v 9.67384 42.02605 -75.58597
v 19.63790 33.25520 -52.58977
v 16.56097 32.54909 -63.16805
v 16.47058 44.02257 -44.73313
v 16.32405 43.04482 -52.46583
v 9.56215 53.42952 -33.02760
v 8.90547 53.18759 -44.73098
v 1.04498 30.22706 211.98860
v 52.00966 27.98657 -1.20542
v 52.17774 26.15497 1.29532
v 10.20941 34.02986 -88.43427
v 4.87481 33.95193 -108.65666
v 26.73146 24.57416 57.37313
v 25.06924 26.61999 64.01591
v 22.12431 25.27473 71.20589
v 32.87117 24.44193 61.29742
v 31.24433 26.79285 66.89786
v 36.53109 25.06678 67.36447
v 36.16957 25.28569 73.82680
v 27.47952 25.34999 73.70157
v 22.94429 22.46249 68.56549
v 25.55799 21.61570 59.15678
v 28.33215 22.29818 71.74657
v 30.47645 21.84960 63.06823
v 34.31559 22.28125 71.62894
v 34.85719 22.19331 67.49094
v 37.60642 23.71857 74.73418
v 27.37685 23.93021 75.06642
v 21.49501 24.21507 71.99002
v 27.33574 23.30508 54.70389
v 33.97083 23.03020 59.59489
v 27.37685 23.93021 75.06642
v 37.60642 23.71857 74.73418
v 21.49501 24.21507 71.99002
v 38.03646 23.54268 67.13365
v 2.23094 40.00597 165.04468
v 2.08696 26.43977 165.18036
v 5.63564 33.15245 165.08823
v 10.63603 53.61145 -16.37349
v 11.16440 53.58110 0.09525
v 17.07351 31.43561 -63.09229
v 16.48491 23.61545 -62.73873
v 19.63790 33.25520 -52.58977
v 17.07351 31.43561 -63.09229
v 23.93501 33.22449 -18.46381
v 2.44990 40.51468 135.45618
v 3.18960 25.30191 135.40599
v 7.11078 33.58871 135.41399
v 19.63790 33.25520 -52.58977
v 19.63790 33.25520 -52.58977
v 59.04765 27.66605 -4.73161
v 61.15833 26.35081 -3.81327
v 29.08535 27.12581 -4.47184
v 28.19083 25.65528 -8.02696
v 29.08535 27.12581 -4.47184
v 52.17774 26.15497 1.29532
v 52.79560 24.65544 -1.65168
v 58.39508 25.09058 -4.59760
v 54.47051 24.46288 -11.90881
v 61.15833 26.35081 -3.81327
v 23.56592 24.49837 -5.42664
v 25.66499 29.34963 0.03745
v 56.22184 26.10866 -14.39579
v 55.10691 28.26618 -12.51624
v 5.75834 35.07008 -99.90982
v 4.61644 34.91745 -104.09598
v 4.27549 30.68838 -102.04106
v 4.87203 35.07064 -103.48787
v 3.19161 34.91909 -107.58916
v 3.15053 30.69070 -105.48062
v 3.75095 35.02724 -106.93121
v 1.29206 30.66054 -107.87256
v 5.40251 34.99260 -96.07004
v 4.75204 34.83877 -100.35135
v 4.38447 30.60512 -98.65953
v 6.09381 35.53925 -91.41562
v 5.33866 35.37712 -96.35612
v 5.11217 30.63160 -93.60483
v 6.83897 34.77945 -88.26016
v 5.98716 35.11271 -92.18277
v 6.14081 30.65078 -90.57378
v 8.00862 35.48294 -84.58908
v 7.03504 35.63579 -88.88156
v 6.95120 30.98603 -86.53069
v 9.00823 35.19511 -80.45110
v 8.00862 35.48294 -84.58908
v 7.74902 30.84208 -82.64290
v 10.10912 35.41021 -76.11348
v 9.00823 35.19511 -80.45110
v 8.80071 31.01439 -78.05550
v 10.88579 35.81539 -71.83817
v 10.10912 35.41021 -76.11346
v 9.68652 31.28121 -73.63252
v 7.90900 27.19010 -82.02669
v 8.80608 27.83120 -78.89200
v 8.04104 30.87272 -80.43665
v 9.29575 28.15760 -77.59169
v 10.06454 28.68595 -74.39091
v 8.82576 31.76357 -75.99478
v 10.37546 29.09413 -73.13530
v 10.77308 29.79814 -69.82738
v 9.67617 32.88990 -71.51173
v 7.24310 26.83239 -86.30487
v 7.88026 27.21573 -83.06462
v 7.78454 30.81005 -84.73712
v 6.23889 26.02715 -90.38245
v 6.82277 26.24848 -86.35104
v 7.01607 30.06592 -88.70061
v 5.20942 25.81965 -94.31085
v 6.23889 26.02715 -90.38243
v 5.95914 29.88709 -92.26546
v 4.34523 24.47279 -98.62892
v 5.31297 25.26283 -94.59354
v 4.61138 28.73594 -96.61682
v 3.78525 23.89476 -101.91118
v 4.88206 24.59410 -98.06470
v 4.28135 28.12602 -100.12430
v 3.26872 23.32928 -105.75285
v 3.86452 24.13432 -101.37553
v 3.29142 27.60962 -103.69244
v 11.85406 35.87741 -66.91663
v 11.00937 35.41221 -71.02974
v 10.65479 31.34325 -68.71104
v 11.84646 30.38706 -67.74052
v 12.73132 30.85384 -64.56746
v 11.40708 34.24606 -65.99539
v 3.45798 24.50576 -105.35797
v 1.18044 28.05423 -105.88976
vt 0.973938 0.076824
vt 0.976099 0.177297
vt 0.927694 0.170752
vt 0.947986 0.038795
vt 0.274590 0.898875
vt 0.266616 0.873478
vt 0.237226 0.883145
vt 0.279840 0.851484
vt 0.248835 0.860068
vt 0.295081 0.870516
vt 0.044771 0.643618
vt 0.036628 0.660812
vt 0.173989 0.700949
vt 0.179890 0.677262
vt 0.377059 0.739832
vt 0.332328 0.731032
vt 0.330224 0.781264
vt 0.375905 0.796409
vt 0.245618 0.700379
vt 0.251237 0.629866
vt 0.193309 0.627576
vt 0.439136 0.793370
vt 0.435967 0.733053
vt 0.155534 0.888473
vt 0.023097 0.950770
vt 0.042483 0.967674
vt 0.166477 0.930511
vt 0.068977 0.547723
vt 0.073870 0.582453
vt 0.275356 0.557663
vt 0.271541 0.519843
vt 0.063588 0.461031
vt 0.266093 0.466402
vt 0.267810 0.418494
vt 0.068378 0.384198
vt 0.921314 0.466319
vt 0.847087 0.463549
vt 0.847396 0.504828
vt 0.925256 0.489346
vt 0.972792 0.464670
vt 0.819573 0.903486
vt 0.823953 0.962757
vt 0.899188 0.946588
vt 0.895172 0.897810
vt 0.605865 0.850400
vt 0.602625 0.785534
vt 0.543490 0.797315
vt 0.520269 0.851959
vt 0.754690 0.462981
vt 0.758991 0.503964
vt 0.756949 0.558757
vt 0.846331 0.563938
vt 0.755370 0.424575
vt 0.850805 0.424293
vt 0.909297 0.628578
vt 0.924161 0.612380
vt 0.906643 0.593569
vt 0.927751 0.585888
vt 0.949459 0.604381
vt 0.945977 0.629165
vt 0.284487 0.239377
vt 0.217167 0.235129
vt 0.221268 0.185356
vt 0.294490 0.199143
vt 0.133507 0.240787
vt 0.155751 0.178615
vt 0.221494 0.167592
vt 0.296583 0.168058
vt 0.153682 0.165497
vt 0.294239 0.142688
vt 0.336971 0.136108
vt 0.330817 0.169888
vt 0.213495 0.284798
vt 0.215522 0.308614
vt 0.157462 0.318570
vt 0.154942 0.297053
vt 0.224943 0.034917
vt 0.218292 0.050153
vt 0.155650 0.039175
vt 0.167252 0.019178
vt 0.314914 0.243560
vt 0.294961 0.330468
vt 0.267057 0.282577
vt 0.601276 0.735001
vt 0.580779 0.761276
vt 0.515324 0.794598
vt 0.439892 0.842781
vt 0.968309 0.825490
vt 0.927441 0.791936
vt 0.895600 0.814315
vt 0.890094 0.846522
vt 0.229114 0.743805
vt 0.504847 0.777327
vt 0.513205 0.738533
vt 0.217195 0.144913
vt 0.153949 0.147324
vt 0.511395 0.713614
vt 0.604954 0.703352
vt 0.607302 0.621509
vt 0.504951 0.633869
vt 0.701698 0.713293
vt 0.706879 0.636744
vt 0.974679 0.929123
vt 0.969458 0.896530
vt 0.520236 0.763239
vt 0.895787 0.775960
vt 0.904364 0.737241
vt 0.820721 0.733328
vt 0.759699 0.277591
vt 0.690859 0.278847
vt 0.712982 0.215404
vt 0.765164 0.229319
vt 0.640242 0.335211
vt 0.694487 0.345155
vt 0.737648 0.137251
vt 0.696141 0.144108
vt 0.673610 0.043263
vt 0.715237 0.048066
vt 0.709107 0.912958
vt 0.715193 0.974625
vt 0.867304 0.797787
vt 0.816025 0.842606
vt 0.901420 0.230949
vt 0.978184 0.263950
vt 0.853586 0.274464
vt 0.786273 0.206178
vt 0.851827 0.232415
vt 0.834647 0.659512
vt 0.700952 0.775700
vt 0.814162 0.784016
vt 0.982085 0.759200
vt 0.913745 0.685844
vt 0.994618 0.724811
vt 0.704350 0.849311
vt 0.383881 0.653128
vt 0.347382 0.639565
vt 0.345350 0.902812
vt 0.279334 0.928602
vt 0.215044 0.909493
vt 0.220783 0.856632
vt 0.322168 0.811605
vt 0.269780 0.830892
vt 0.339847 0.853066
vt 0.379856 0.848988
vt 0.382383 0.897081
vt 0.439184 0.897212
vt 0.379424 0.948353
vt 0.439967 0.953739
vt 0.925418 0.443693
vt 0.270138 0.378984
vt 0.075980 0.344680
vt 0.070882 0.297497
vt 0.081008 0.277148
vt 0.930173 0.529249
vt 0.845462 0.366495
vt 0.928113 0.398240
vt 0.837426 0.173028
vt 0.791150 0.165325
vt 0.802730 0.082174
vt 0.831409 0.051554
vt 0.585137 0.273111
vt 0.612466 0.216568
vt 0.561022 0.330935
vt 0.492087 0.255568
vt 0.514675 0.210563
vt 0.432647 0.224293
vt 0.476507 0.318575
vt 0.392462 0.264178
vt 0.619046 0.155295
vt 0.592138 0.055264
vt 0.494056 0.058099
vt 0.527184 0.147699
vt 0.440813 0.149429
vt 0.418148 0.103366
vt 0.350866 0.095670
vt 0.478300 0.015083
vt 0.555076 0.342132
vt 0.619055 0.189124
vt 0.519369 0.188368
vt 0.467442 0.327844
vt 0.368171 0.261873
vt 0.579296 0.010101
vt 0.409447 0.192817
vt 0.755759 0.368381
vt 0.607964 0.497822
vt 0.608897 0.539954
vt 0.607962 0.431332
vt 0.606573 0.464718
vt 0.519712 0.908773
vt 0.611667 0.914457
vt 0.031310 0.633165
vt 0.019547 0.643870
vt 0.814465 0.037094
vt 0.284416 0.968027
vt 0.353497 0.952032
vt 0.224491 0.967341
vt 0.174591 0.969451
vt 0.276826 0.756242
vt 0.291032 0.717848
vt 0.299938 0.632545
vt 0.859753 0.321388
vt 0.772672 0.333368
vt 0.896850 0.275693
vt 0.430056 0.651550
vt 0.049811 0.989195
vt 0.020817 0.980254
vt 0.329513 0.202928
vt 0.520680 0.973808
vt 0.614432 0.982564
vt 0.608622 0.388893
vt 0.083387 0.624647
vt 0.005461 0.972274
vt 0.456323 0.539224
vt 0.451905 0.503177
vt 0.449618 0.426545
vt 0.447208 0.464618
vt 0.450890 0.390165
vt 0.886686 0.327125
vt 0.978184 0.263950
vt 0.980548 0.349869
vt 0.886686 0.327125
vt 0.016419 0.237704
vt 0.039106 0.236521
vt 0.258288 0.306723
vt 0.269615 0.040316
vt 0.280216 0.067416
vt 0.081291 0.057090
vt 0.078843 0.032632
vt 0.970231 0.020254
vt 0.083504 0.131611
vt 0.045011 0.087928
vt 0.019563 0.087173
vt 0.329433 0.053344
vt 0.304111 0.016393
vt 0.079675 0.190956
vt 0.071576 0.162558
vt 0.037306 0.854751
vt 0.232870 0.804059
vt 0.040919 0.713958
vt 0.037306 0.854751
vt 0.232870 0.804059
vt 0.040919 0.713958
vt 0.037306 0.854751
vt 0.232870 0.804059
vt 0.040919 0.713958
vt 0.037306 0.854751
vt 0.232870 0.804059
vt 0.040919 0.713958
vt 0.037306 0.854751
vt 0.232870 0.804059
vt 0.040919 0.713958
vt 0.037306 0.854751
vt 0.232870 0.804059
vt 0.040919 0.713958
vt 0.037306 0.854751
vt 0.232870 0.804059
vt 0.040919 0.713958
vt 0.037306 0.854751
vt 0.232870 0.804059
vt 0.040919 0.713958
vt 0.037306 0.854751
vt 0.232870 0.804059
vt 0.040919 0.713958
vt 0.037306 0.854751
vt 0.232870 0.804059
vt 0.040919 0.713958
vt 0.037306 0.854751
vt 0.232870 0.804059
vt 0.040919 0.713958
vt 0.037306 0.854751
vt 0.232870 0.804059
vt 0.040919 0.713958
vt 0.037306 0.854751
vt 0.232870 0.804059
vt 0.040919 0.713958
vt 0.037306 0.854751
vt 0.232870 0.804059
vt 0.040919 0.713958
vt 0.037306 0.854751
vt 0.232870 0.804059
vt 0.040919 0.713958
vt 0.037306 0.854751
vt 0.232870 0.804059
vt 0.040919 0.713958
vt 0.037306 0.854751
vt 0.232870 0.804059
vt 0.040919 0.713958
vt 0.037306 0.854751
vt 0.232870 0.804059
vt 0.040919 0.713958
vt 0.037306 0.854751
vt 0.232870 0.804059
vt 0.040919 0.713958
vt 0.037306 0.854751
vt 0.232870 0.804059
vt 0.040919 0.713958
vt 0.037306 0.854751
vt 0.232870 0.804059
vt 0.040919 0.713958
vt 0.040919 0.713958
vt 0.037306 0.854751
vt 0.232870 0.804059
vt 0.947986 0.038795
vt 0.927694 0.170752
vt 0.274590 0.898875
vt 0.237226 0.883145
vt 0.266616 0.873478
vt 0.279840 0.851484
vt 0.248835 0.860068
vt 0.295081 0.870516
vt 0.044771 0.643618
vt 0.179890 0.677262
vt 0.173989 0.700949
vt 0.036628 0.660812
vt 0.377059 0.739832
vt 0.375905 0.796409
vt 0.330224 0.781264
vt 0.332328 0.731032
vt 0.245618 0.700379
vt 0.439136 0.793370
vt 0.435967 0.733053
vt 0.155534 0.888473
vt 0.166477 0.930511
vt 0.042483 0.967674
vt 0.023097 0.950770
vt 0.068977 0.547723
vt 0.271541 0.519843
vt 0.063588 0.461031
vt 0.068378 0.384198
vt 0.267810 0.418494
vt 0.266093 0.466402
vt 0.921314 0.466319
vt 0.925256 0.489346
vt 0.847396 0.504828
vt 0.847087 0.463549
vt 0.819573 0.903486
vt 0.895172 0.897810
vt 0.605865 0.850400
vt 0.520269 0.851959
vt 0.543490 0.797315
vt 0.602625 0.785534
vt 0.758991 0.503964
vt 0.754690 0.462981
vt 0.755370 0.424575
vt 0.850805 0.424293
vt 0.909297 0.628578
vt 0.906643 0.593569
vt 0.924161 0.612380
vt 0.927751 0.585888
vt 0.949459 0.604381
vt 0.945977 0.629165
vt 0.284487 0.239377
vt 0.294490 0.199143
vt 0.221268 0.185356
vt 0.217167 0.235129
vt 0.155751 0.178615
vt 0.133507 0.240787
vt 0.221494 0.167592
vt 0.296583 0.168058
vt 0.153682 0.165497
vt 0.294239 0.142688
vt 0.330817 0.169888
vt 0.336971 0.136108
vt 0.213495 0.284798
vt 0.154942 0.297053
vt 0.157462 0.318570
vt 0.215522 0.308614
vt 0.224943 0.034917
vt 0.167252 0.019178
vt 0.155650 0.039175
vt 0.218292 0.050153
vt 0.314914 0.243560
vt 0.267057 0.282577
vt 0.294961 0.330468
vt 0.580779 0.761276
vt 0.601276 0.735001
vt 0.515324 0.794598
vt 0.439892 0.842781
vt 0.968309 0.825490
vt 0.890094 0.846522
vt 0.895600 0.814315
vt 0.927441 0.791936
vt 0.229114 0.743805
vt 0.513205 0.738533
vt 0.504847 0.777327
vt 0.217195 0.144913
vt 0.153949 0.147324
vt 0.511395 0.713614
vt 0.604954 0.703352
vt 0.701698 0.713293
vt 0.969458 0.896530
vt 0.520236 0.763239
vt 0.895787 0.775960
vt 0.820721 0.733328
vt 0.904364 0.737241
vt 0.759699 0.277591
vt 0.765164 0.229319
vt 0.712982 0.215404
vt 0.690859 0.278847
vt 0.640242 0.335211
vt 0.694487 0.345155
vt 0.737648 0.137251
vt 0.696141 0.144108
vt 0.715237 0.048066
vt 0.673610 0.043263
vt 0.709107 0.912958
vt 0.816025 0.842606
vt 0.867304 0.797787
vt 0.901420 0.230949
vt 0.853586 0.274464
vt 0.851827 0.232415
vt 0.814162 0.784016
vt 0.700952 0.775700
vt 0.982085 0.759200
vt 0.704350 0.849311
vt 0.345350 0.902812
vt 0.279334 0.928602
vt 0.220783 0.856632
vt 0.215044 0.909493
vt 0.322168 0.811605
vt 0.269780 0.830892
vt 0.379856 0.848988
vt 0.339847 0.853066
vt 0.439184 0.897212
vt 0.382383 0.897081
vt 0.925418 0.443693
vt 0.081008 0.277148
vt 0.070882 0.297497
vt 0.837426 0.173028
vt 0.831409 0.051554
vt 0.612466 0.216568
vt 0.585137 0.273111
vt 0.561022 0.330935
vt 0.514675 0.210563
vt 0.492087 0.255568
vt 0.432647 0.224293
vt 0.392462 0.264178
vt 0.476507 0.318575
vt 0.592138 0.055264
vt 0.619046 0.155295
vt 0.494056 0.058099
vt 0.527184 0.147699
vt 0.418148 0.103366
vt 0.440813 0.149429
vt 0.350866 0.095670
vt 0.478300 0.015083
vt 0.555076 0.342132
vt 0.619055 0.189124
vt 0.519369 0.188368
vt 0.467442 0.327844
vt 0.368171 0.261873
vt 0.579296 0.010101
vt 0.409447 0.192817
vt 0.607964 0.497822
vt 0.607962 0.431332
vt 0.606573 0.464718
vt 0.519712 0.908773
vt 0.611667 0.914457
vt 0.276826 0.756242
vt 0.291032 0.717848
vt 0.859753 0.321388
vt 0.896850 0.275693
vt 0.329513 0.202928
vt 0.451905 0.503177
vt 0.449618 0.426545
vt 0.447208 0.464618
vt 0.886686 0.327125
vt 0.886686 0.327125
vt 0.039106 0.236521
vt 0.016419 0.237704
vt 0.258288 0.306723
vt 0.280216 0.067416
vt 0.269615 0.040316
vt 0.078843 0.032632
vt 0.081291 0.057090
vt 0.045011 0.087928
vt 0.083504 0.131611
vt 0.019563 0.087173
vt 0.329433 0.053344
vt 0.304111 0.016393
vt 0.071576 0.162558
vt 0.079675 0.190956
vt 0.037306 0.854751
vt 0.040919 0.713958
vt 0.232870 0.804059
vt 0.037306 0.854751
vt 0.040919 0.713958
vt 0.232870 0.804059
vt 0.037306 0.854751
vt 0.232870 0.804059
vt 0.037306 0.854751
vt 0.040919 0.713958
vt 0.232870 0.804059
vt 0.037306 0.854751
vt 0.040919 0.713958
vt 0.232870 0.804059
vt 0.037306 0.854751
vt 0.040919 0.713958
vt 0.232870 0.804059
vt 0.037306 0.854751
vt 0.040919 0.713958
vt 0.232870 0.804059
vt 0.037306 0.854751
vt 0.040919 0.713958
vt 0.232870 0.804059
vt 0.037306 0.854751
vt 0.040919 0.713958
vt 0.232870 0.804059
vt 0.037306 0.854751
vt 0.040919 0.713958
vt 0.232870 0.804059
vt 0.037306 0.854751
vt 0.040919 0.713958
vt 0.232870 0.804059
vt 0.037306 0.854751
vt 0.040919 0.713958
vt 0.232870 0.804059
vt 0.037306 0.854751
vt 0.040919 0.713958
vt 0.232870 0.804059
vt 0.037306 0.854751
vt 0.040919 0.713958
vt 0.232870 0.804059
vt 0.037306 0.854751
vt 0.040919 0.713958
vt 0.232870 0.804059
vt 0.037306 0.854751
vt 0.040919 0.713958
vt 0.232870 0.804059
vt 0.037306 0.854751
vt 0.040919 0.713958
vt 0.232870 0.804059
vt 0.037306 0.854751
vt 0.040919 0.713958
vt 0.232870 0.804059
vt 0.037306 0.854751
vt 0.040919 0.713958
vt 0.232870 0.804059
vt 0.037306 0.854751
vt 0.040919 0.713958
vt 0.232870 0.804059
vt 0.037306 0.854751
vt 0.040919 0.713958
vt 0.232870 0.804059
vt 0.040919 0.713958
vt 0.232870 0.804059
vn -0.00000 0.99619 -0.08727
vn -0.00000 0.96690 -0.25516
vn 0.32643 0.92417 -0.19836
vn 0.34722 0.93276 0.09695
vn -0.75483 0.60801 -0.24608
vn -0.93947 0.33356 -0.07829
vn -0.87221 0.41599 -0.25730
vn -0.93425 0.27280 -0.22970
vn -0.97792 0.19349 -0.07899
vn -0.89512 0.38543 -0.22406
vn -0.67061 -0.58558 -0.45538
vn -0.72761 -0.40679 -0.55237
vn -0.90625 -0.34754 -0.24067
vn -0.71986 -0.67033 -0.18016
vn -0.79489 -0.60651 -0.01736
vn -0.84729 -0.52881 -0.04960
vn -0.99162 0.08944 -0.09323
vn -0.99632 0.06393 -0.05706
vn -0.75966 -0.62474 -0.18061
vn 0.00000 -0.99693 -0.07832
vn 0.00000 -0.99796 -0.06378
vn -0.97056 -0.15554 -0.18390
vn -0.65378 -0.74194 -0.14863
vn -0.85670 0.45411 -0.24464
vn -0.63693 0.46873 -0.61206
vn -0.64918 0.64356 -0.40546
vn -0.70512 0.67137 -0.22816
vn -0.81932 0.55453 0.14563
vn -0.00000 0.98514 0.17172
vn -0.00000 0.98880 0.14927
vn -0.88319 0.46033 0.08989
vn -0.96245 0.11898 0.24399
vn -0.98643 0.13898 0.08739
vn -0.87103 -0.48562 0.07406
vn -0.70675 -0.66779 0.23358
vn -0.96720 0.01154 0.25377
vn -0.99928 -0.02348 0.02976
vn -0.93373 0.34469 0.09664
vn -0.91139 0.35613 0.20627
vn 0.00000 0.07707 0.99703
vn -0.68808 0.71487 0.12451
vn -0.00000 0.99489 0.10101
vn -0.00000 0.99364 0.11258
vn -0.76032 0.62746 0.16798
vn -0.88544 0.46380 0.02994
vn -0.96048 -0.01662 0.27784
vn -0.78234 0.62208 0.03082
vn -0.84849 0.51895 -0.10373
vn -0.99964 -0.00327 0.02672
vn -0.95923 0.28262 -0.00006
vn -0.00000 0.99989 -0.01458
vn -0.00000 0.96916 0.24644
vn -0.96107 -0.27593 0.01402
vn -0.94103 -0.33081 0.07087
vn -0.70114 0.69891 -0.14114
vn -0.90479 0.40968 -0.11627
vn -0.83638 0.48470 -0.25598
vn -0.97061 0.16123 -0.17868
vn -0.98816 0.15331 0.00611
vn -0.87468 0.48463 0.00797
vn -0.35549 0.93467 -0.00377
vn -0.09806 0.99516 0.00691
vn -0.12435 0.90244 -0.41248
vn -0.26804 0.76750 -0.58232
vn -0.06655 0.99721 0.03367
vn -0.18835 0.89996 -0.39318
vn 0.03860 -0.03462 -0.99865
vn 0.00019 0.01158 -0.99993
vn -0.24521 -0.12934 -0.96080
vn 0.05933 -0.89608 -0.43990
vn -0.41406 -0.85095 -0.32317
vn -0.60165 -0.23092 -0.76465
vn 0.12830 0.89107 0.43536
vn 0.35438 -0.42313 0.83389
vn 0.32072 0.10046 0.94183
vn 0.05131 0.88996 0.45315
vn 0.35438 -0.42313 0.83389
vn 0.12493 -0.97388 0.18959
vn 0.09773 -0.96048 0.26065
vn 0.32072 0.10046 0.94183
vn -0.78234 0.62208 0.03082
vn -0.96048 -0.01662 0.27784
vn -0.33458 0.87349 0.35364
vn -0.76054 -0.64926 0.00689
vn -0.57330 -0.81015 0.12243
vn -0.83480 0.46620 -0.29286
vn -0.90287 0.40739 -0.13732
vn -0.96245 0.11898 0.24399
vn -0.52221 -0.61174 0.59420
vn -0.82825 0.49054 0.27087
vn -0.89323 0.39210 0.21999
vn -0.93042 -0.26874 -0.24918
vn -0.60165 -0.23092 -0.76465
vn -0.79917 -0.56586 -0.20279
vn 0.06445 -0.96011 -0.27208
vn -0.06222 -0.97746 -0.20173
vn -0.51168 -0.85091 -0.11888
vn -0.54072 -0.84113 0.01157
vn 0.00000 -0.99850 -0.05480
vn 0.00000 -0.99154 -0.12982
vn -0.59226 -0.80460 0.04291
vn 0.00000 -0.99929 0.03769
vn -0.00000 0.98514 0.17172
vn -0.81932 0.55453 0.14563
vn -0.41406 -0.85095 -0.32317
vn -0.53577 -0.84361 0.03555
vn -0.51468 -0.81480 0.26684
vn -0.57662 -0.81050 0.10297
vn -0.82825 0.49054 0.27087
vn -0.32882 0.94331 0.04529
vn -0.67430 0.09508 -0.73231
vn -0.99908 0.02932 0.03123
vn 0.62023 0.11788 0.77551
vn -0.52221 -0.61174 0.59420
vn -0.53577 -0.84361 0.03555
vn 0.21242 -0.97137 -0.10644
vn 0.62023 0.11788 0.77551
vn -0.52221 -0.61174 0.59420
vn -0.63601 0.76687 0.08606
vn -0.00000 0.99548 0.09498
vn -0.99908 0.02932 0.03123
vn -0.91069 0.37870 0.16502
vn 0.19034 0.97742 -0.09179
vn -0.00000 0.99603 -0.08905
vn 0.17288 -0.98348 -0.05357
vn 0.00000 -0.99971 -0.02418
vn 0.28948 -0.95715 0.00764
vn 0.00000 -0.99872 0.05051
vn -0.95997 -0.26084 0.10213
vn -0.94811 -0.29582 0.11652
vn -0.70675 -0.66779 0.23358
vn 0.00000 -0.98273 0.18505
vn 0.00000 -0.99302 0.11796
vn -0.86393 0.49223 0.10651
vn 0.00000 -0.99534 -0.09644
vn 0.00000 -0.99891 -0.04676
vn -0.62924 0.76890 -0.11335
vn -0.45153 0.83133 -0.32406
vn -0.62920 0.63651 -0.44606
vn -0.88551 0.20433 -0.41727
vn -0.99162 0.08944 -0.09323
vn -0.98444 -0.02487 -0.17395
vn -0.87372 0.47792 -0.09062
vn -0.86020 0.50435 -0.07547
vn -0.61250 0.78525 -0.09074
vn -0.66398 0.74353 -0.07938
vn 0.00000 0.99073 -0.13582
vn -0.00000 0.99632 -0.08574
vn -0.93553 -0.31007 0.16922
vn 0.00000 -0.99359 0.11304
vn 0.00000 -0.99302 0.11796
vn -0.19758 -0.30015 0.93321
vn -0.16241 0.90843 0.38520
vn 0.00000 0.75348 0.65747
vn 0.00000 -0.98504 0.17233
vn 0.00000 -0.74541 0.66661
vn 0.36019 -0.92906 0.08428
vn -0.00000 -0.99768 0.06811
vn -0.00000 -0.98860 0.15059
vn 0.26265 -0.94986 0.16967
vn -0.11212 0.98892 -0.09727
vn -0.24919 0.90667 -0.34036
vn 0.25526 0.88198 0.39618
vn -0.10235 0.99447 -0.02355
vn -0.35346 0.86278 -0.36150
vn -0.56080 0.81516 -0.14494
vn 0.10873 0.87833 0.46553
vn -0.24788 0.87829 0.40885
vn 0.05027 -0.99018 -0.13043
vn 0.31796 -0.93611 0.15032
vn 0.06704 -0.97122 0.22855
vn -0.10120 -0.99390 -0.04383
vn -0.20223 -0.97905 -0.02361
vn -0.19784 -0.96989 0.14200
vn -0.68451 -0.30636 0.66151
vn 0.21745 0.19837 0.95570
vn 0.59569 -0.41700 0.68649
vn -0.05878 -0.41838 -0.90637
vn -0.66929 -0.42467 -0.60968
vn 0.21745 0.19837 0.95570
vn -0.68451 -0.30636 0.66151
vn 0.59569 -0.41700 0.68649
vn -0.95016 -0.19264 -0.24512
vn 0.00000 -0.99964 0.02695
vn -0.94017 0.34063 0.00652
vn 0.00000 0.99816 -0.06063
vn -0.93973 -0.34023 0.03403
vn -0.99887 0.01654 0.04446
vn -0.63046 0.77546 -0.03441
vn -0.63391 0.77272 0.03253
vn 0.00000 -0.73885 -0.67387
vn -0.00000 -0.31188 -0.95012
vn 0.00000 -0.97236 0.23347
vn -0.00000 0.96694 -0.25501
vn 0.00000 0.98053 -0.19639
vn 0.00000 0.93012 -0.36726
vn -0.00000 0.96329 -0.26845
vn -0.97330 -0.15710 -0.16737
vn -0.72900 -0.67291 -0.12552
vn 0.00000 -0.99709 -0.07627
vn 0.84103 -0.08870 -0.53366
vn 0.00000 -0.99939 -0.03489
vn 0.10728 0.99276 -0.05407
vn 0.00000 -0.98951 -0.14445
vn -0.00000 0.86266 -0.50579
vn -0.00000 0.60072 -0.79946
vn -0.83480 0.46620 -0.29286
vn -0.00000 0.99978 -0.02112
vn -0.00000 0.99850 0.05468
vn 0.00000 -0.99977 0.02166
vn 0.00000 -0.98816 -0.15343
vn 0.00000 0.50455 -0.86338
vn -0.00000 0.99592 0.09027
vn -0.88425 0.46414 0.05183
vn -0.89994 -0.43444 0.03694
vn -0.99704 -0.04658 0.06111
vn -0.00000 -0.99919 0.04032
vn 0.84103 -0.08870 -0.53366
vn -0.00000 0.96782 -0.25165
vn -0.00000 0.96782 -0.25165
vn 0.02099 0.96760 -0.25160
vn -0.86746 0.43277 0.24539
vn -0.29021 0.95157 0.10148
vn -0.20497 -0.39687 0.89470
vn -0.20497 -0.39687 0.89470
vn -0.08603 -0.99063 0.10605
vn -0.07776 -0.96451 0.25236
vn -0.19758 -0.30015 0.93321
vn 0.00000 0.98284 0.18446
vn -0.16644 -0.98085 -0.10114
vn -0.34753 -0.93001 0.11961
vn -0.86746 0.43277 0.24539
vn -0.57330 -0.81015 0.12243
vn -0.96048 -0.01662 0.27784
vn -0.39736 0.88093 -0.25702
vn -0.70811 -0.32884 -0.62486
vn -0.94738 -0.19843 -0.25119
vn -0.94738 -0.19843 -0.25119
vn -0.94738 -0.19843 -0.25119
vn -0.91069 -0.19139 -0.36607
vn -0.91069 -0.19139 -0.36607
vn -0.91069 -0.19139 -0.36607
vn -0.59801 -0.16778 -0.78373
vn -0.59801 -0.16778 -0.78373
vn -0.00000 -0.20934 -0.97784
vn -0.97932 -0.14244 -0.14367
vn -0.97932 -0.14244 -0.14367
vn -0.97932 -0.14244 -0.14367
vn -0.98061 -0.13120 -0.14558
vn -0.98061 -0.13120 -0.14558
vn -0.98061 -0.13120 -0.14558
vn -0.97549 -0.04415 -0.21558
vn -0.97549 -0.04415 -0.21558
vn -0.97549 -0.04415 -0.21558
vn -0.96194 -0.14284 -0.23297
vn -0.96587 -0.13053 -0.22372
vn -0.96587 -0.13053 -0.22372
vn -0.95663 -0.16818 -0.23784
vn -0.95776 -0.15512 -0.24215
vn -0.96194 -0.14284 -0.23297
vn -0.95533 -0.18121 -0.23348
vn -0.95533 -0.18121 -0.23348
vn -0.95663 -0.16818 -0.23784
vn -0.96831 -0.19377 -0.15754
vn -0.96831 -0.19377 -0.15754
vn -0.96831 -0.19377 -0.15754
vn -0.95225 0.09161 -0.29125
vn -0.95225 0.09161 -0.29125
vn -0.95225 0.09161 -0.29125
vn -0.93457 0.23866 -0.26387
vn -0.93457 0.23866 -0.26387
vn -0.93457 0.23866 -0.26387
vn -0.95435 0.24741 -0.16737
vn -0.95435 0.24741 -0.16737
vn -0.95435 0.24741 -0.16737
vn -0.98075 -0.06030 -0.18572
vn -0.98075 -0.06030 -0.18572
vn -0.98075 -0.06030 -0.18572
vn -0.98192 -0.13276 -0.13492
vn -0.98192 -0.13276 -0.13492
vn -0.98192 -0.13276 -0.13492
vn -0.96669 -0.05218 -0.25057
vn -0.96669 -0.05218 -0.25057
vn -0.96669 -0.05218 -0.25057
vn -0.96854 0.05416 -0.24287
vn -0.96854 0.05416 -0.24287
vn -0.96854 0.05416 -0.24287
vn -0.96150 0.00330 -0.27477
vn -0.96150 0.00330 -0.27477
vn -0.96150 0.00330 -0.27477
vn -0.98708 0.06521 -0.14635
vn -0.98708 0.06521 -0.14635
vn -0.98708 0.06521 -0.14635
vn -0.96650 -0.18538 -0.17752
vn -0.96650 -0.18538 -0.17752
vn -0.96650 -0.18538 -0.17752
vn -0.92594 0.23803 -0.29323
vn -0.92594 0.23803 -0.29323
vn -0.92594 0.23803 -0.29323
vn -0.48586 0.18379 -0.85450
vn -0.00000 0.21027 -0.97764
vn -0.48586 0.18379 -0.85450
vn -0.34722 0.93276 0.09695
vn -0.32643 0.92417 -0.19836
vn 0.75483 0.60801 -0.24608
vn 0.87221 0.41599 -0.25730
vn 0.93947 0.33356 -0.07829
vn 0.93425 0.27280 -0.22970
vn 0.97792 0.19349 -0.07899
vn 0.89512 0.38543 -0.22406
vn 0.67061 -0.58558 -0.45538
vn 0.71986 -0.67033 -0.18016
vn 0.90625 -0.34754 -0.24067
vn 0.72761 -0.40679 -0.55237
vn 0.79489 -0.60651 -0.01736
vn 0.99632 0.06393 -0.05706
vn 0.99162 0.08944 -0.09323
vn 0.84729 -0.52881 -0.04960
vn 0.75966 -0.62474 -0.18061
vn 0.97056 -0.15554 -0.18390
vn 0.65378 -0.74194 -0.14863
vn 0.85670 0.45411 -0.24464
vn 0.70512 0.67137 -0.22816
vn 0.64918 0.64356 -0.40546
vn 0.63693 0.46873 -0.61206
vn 0.81932 0.55453 0.14563
vn 0.88319 0.46033 0.08989
vn 0.96245 0.11898 0.24399
vn 0.70675 -0.66779 0.23358
vn 0.87103 -0.48562 0.07406
vn 0.98643 0.13898 0.08739
vn 0.96720 0.01154 0.25377
vn 0.91139 0.35613 0.20627
vn 0.93373 0.34469 0.09664
vn 0.99928 -0.02348 0.02976
vn 0.68808 0.71487 0.12451
vn 0.76032 0.62746 0.16798
vn 0.88544 0.46380 0.02994
vn 0.84849 0.51895 -0.10373
vn 0.78234 0.62208 0.03082
vn 0.96048 -0.01662 0.27784
vn 0.95923 0.28262 -0.00006
vn 0.99964 -0.00327 0.02672
vn 0.96107 -0.27593 0.01402
vn 0.94103 -0.33081 0.07087
vn 0.70114 0.69891 -0.14114
vn 0.83638 0.48470 -0.25598
vn 0.90479 0.40968 -0.11627
vn 0.97061 0.16123 -0.17868
vn 0.98816 0.15331 0.00611
vn 0.87468 0.48463 0.00797
vn 0.35549 0.93467 -0.00377
vn 0.26804 0.76750 -0.58232
vn 0.12435 0.90244 -0.41248
vn 0.09806 0.99516 0.00691
vn 0.18835 0.89996 -0.39318
vn 0.06655 0.99721 0.03367
vn -0.03860 -0.03462 -0.99865
vn -0.00018 0.01158 -0.99993
vn 0.24521 -0.12934 -0.96080
vn -0.05933 -0.89608 -0.43990
vn 0.60165 -0.23092 -0.76465
vn 0.41406 -0.85095 -0.32317
vn -0.12830 0.89107 0.43536
vn -0.05131 0.88996 0.45315
vn -0.32072 0.10046 0.94183
vn -0.35438 -0.42313 0.83389
vn -0.35438 -0.42313 0.83389
vn -0.32072 0.10046 0.94183
vn -0.09773 -0.96048 0.26065
vn -0.12493 -0.97388 0.18959
vn 0.78234 0.62208 0.03082
vn 0.33458 0.87349 0.35364
vn 0.96048 -0.01662 0.27784
vn 0.57330 -0.81015 0.12243
vn 0.76054 -0.64926 0.00689
vn 0.83480 0.46620 -0.29286
vn 0.90287 0.40739 -0.13732
vn 0.96245 0.11898 0.24399
vn 0.89323 0.39210 0.21999
vn 0.82825 0.49054 0.27087
vn 0.52221 -0.61174 0.59420
vn 0.93042 -0.26874 -0.24918
vn 0.79917 -0.56586 -0.20279
vn 0.60165 -0.23092 -0.76465
vn -0.06445 -0.96011 -0.27208
vn 0.06222 -0.97746 -0.20173
vn 0.51168 -0.85091 -0.11888
vn 0.54072 -0.84113 0.01157
vn 0.59226 -0.80460 0.04291
vn 0.81932 0.55453 0.14563
vn 0.41406 -0.85095 -0.32317
vn 0.53577 -0.84361 0.03555
vn 0.57662 -0.81050 0.10297
vn 0.51468 -0.81480 0.26684
vn 0.82825 0.49054 0.27087
vn 0.99908 0.02932 0.03123
vn 0.67430 0.09508 -0.73231
vn 0.32882 0.94331 0.04528
vn -0.62023 0.11787 0.77551
vn 0.52221 -0.61174 0.59420
vn 0.53577 -0.84361 0.03555
vn -0.21242 -0.97137 -0.10644
vn 0.52221 -0.61174 0.59420
vn -0.62023 0.11787 0.77551
vn 0.63601 0.76687 0.08606
vn 0.91069 0.37870 0.16502
vn 0.99908 0.02932 0.03123
vn -0.19034 0.97742 -0.09179
vn -0.17288 -0.98348 -0.05357
vn -0.28948 -0.95715 0.00764
vn 0.94811 -0.29582 0.11652
vn 0.95997 -0.26084 0.10213
vn 0.70675 -0.66779 0.23358
vn 0.86392 0.49223 0.10651
vn 0.62924 0.76890 -0.11335
vn 0.45153 0.83133 -0.32406
vn 0.88551 0.20433 -0.41727
vn 0.62920 0.63651 -0.44606
vn 0.99162 0.08944 -0.09323
vn 0.98444 -0.02487 -0.17395
vn 0.86020 0.50435 -0.07547
vn 0.87372 0.47792 -0.09062
vn 0.66398 0.74353 -0.07938
vn 0.61250 0.78525 -0.09074
vn 0.93553 -0.31007 0.16922
vn 0.16241 0.90843 0.38520
vn 0.19758 -0.30015 0.93321
vn -0.36019 -0.92906 0.08428
vn -0.26265 -0.94986 0.16967
vn 0.24919 0.90667 -0.34037
vn 0.11212 0.98892 -0.09727
vn -0.25526 0.88198 0.39618
vn 0.35346 0.86278 -0.36150
vn 0.10235 0.99447 -0.02355
vn 0.56081 0.81516 -0.14494
vn 0.24788 0.87829 0.40885
vn -0.10873 0.87833 0.46553
vn -0.31796 -0.93611 0.15032
vn -0.05027 -0.99018 -0.13043
vn -0.06704 -0.97122 0.22855
vn 0.10120 -0.99390 -0.04383
vn 0.19784 -0.96989 0.14200
vn 0.20223 -0.97905 -0.02361
vn 0.68451 -0.30636 0.66150
vn -0.21745 0.19837 0.95570
vn -0.59569 -0.41700 0.68649
vn 0.05878 -0.41838 -0.90637
vn 0.66929 -0.42467 -0.60968
vn -0.21745 0.19837 0.95570
vn 0.68451 -0.30636 0.66150
vn -0.59569 -0.41700 0.68649
vn 0.95016 -0.19264 -0.24512
vn 0.94017 0.34063 0.00652
vn 0.93973 -0.34023 0.03403
vn 0.99887 0.01654 0.04446
vn 0.63046 0.77546 -0.03441
vn 0.63391 0.77272 0.03253
vn 0.97330 -0.15709 -0.16737
vn 0.72900 -0.67291 -0.12552
vn -0.84103 -0.08870 -0.53366
vn -0.10728 0.99276 -0.05407
vn 0.83480 0.46620 -0.29286
vn 0.88425 0.46414 0.05183
vn 0.89994 -0.43444 0.03694
vn 0.99704 -0.04658 0.06111
vn -0.84103 -0.08870 -0.53366
vn -0.02099 0.96760 -0.25160
vn 0.29021 0.95157 0.10148
vn 0.86746 0.43277 0.24539
vn 0.20497 -0.39687 0.89470
vn 0.08603 -0.99063 0.10605
vn 0.20497 -0.39687 0.89470
vn 0.19758 -0.30015 0.93321
vn 0.07776 -0.96451 0.25236
vn 0.34753 -0.93001 0.11961
vn 0.16644 -0.98085 -0.10114
vn 0.86746 0.43277 0.24539
vn 0.57330 -0.81015 0.12243
vn 0.96048 -0.01662 0.27784
vn 0.70811 -0.32884 -0.62486
vn 0.39736 0.88093 -0.25702
vn 0.94738 -0.19843 -0.25119
vn 0.94738 -0.19843 -0.25119
vn 0.94738 -0.19843 -0.25119
vn 0.91069 -0.19139 -0.36607
vn 0.91069 -0.19139 -0.36607
vn 0.91069 -0.19139 -0.36607
vn 0.59801 -0.16778 -0.78373
vn 0.59801 -0.16778 -0.78373
vn 0.97932 -0.14244 -0.14367
vn 0.97932 -0.14244 -0.14367
vn 0.97932 -0.14244 -0.14367
vn 0.98061 -0.13120 -0.14558
vn 0.98061 -0.13120 -0.14558
vn 0.98061 -0.13120 -0.14558
vn 0.97549 -0.04415 -0.21558
vn 0.97549 -0.04415 -0.21558
vn 0.97549 -0.04415 -0.21558
vn 0.96194 -0.14284 -0.23297
vn 0.96587 -0.13053 -0.22372
vn 0.96587 -0.13053 -0.22372
vn 0.95663 -0.16818 -0.23784
vn 0.96194 -0.14284 -0.23297
vn 0.95776 -0.15512 -0.24215
vn 0.95533 -0.18120 -0.23348
vn 0.95663 -0.16818 -0.23784
vn 0.95533 -0.18120 -0.23348
vn 0.96831 -0.19377 -0.15754
vn 0.96831 -0.19377 -0.15754
vn 0.96831 -0.19377 -0.15754
vn 0.95225 0.09161 -0.29125
vn 0.95225 0.09161 -0.29125
vn 0.95225 0.09161 -0.29125
vn 0.93457 0.23866 -0.26387
vn 0.93457 0.23866 -0.26387
vn 0.93457 0.23866 -0.26387
vn 0.95435 0.24741 -0.16737
vn 0.95435 0.24741 -0.16737
vn 0.95435 0.24741 -0.16737
vn 0.98075 -0.06030 -0.18572
vn 0.98075 -0.06030 -0.18572
vn 0.98075 -0.06030 -0.18572
vn 0.98192 -0.13276 -0.13492
vn 0.98192 -0.13276 -0.13492
vn 0.98192 -0.13276 -0.13492
vn 0.96669 -0.05218 -0.25057
vn 0.96669 -0.05218 -0.25057
vn 0.96669 -0.05218 -0.25057
vn 0.96854 0.05416 -0.24287
vn 0.96854 0.05416 -0.24287
vn 0.96854 0.05416 -0.24287
vn 0.96150 0.00330 -0.27477
vn 0.96150 0.00330 -0.27477
vn 0.96150 0.00330 -0.27477
vn 0.98708 0.06521 -0.14635
vn 0.98708 0.06521 -0.14635
vn 0.98708 0.06521 -0.14635
vn 0.96650 -0.18538 -0.17752
vn 0.96650 -0.18538 -0.17752
vn 0.96650 -0.18538 -0.17752
vn 0.92594 0.23803 -0.29323
vn 0.92594 0.23803 -0.29323
vn 0.92594 0.23803 -0.29323
vn 0.48586 0.18379 -0.85450
vn 0.48586 0.18379 -0.85450
f 366/366/366 367/367/367 364/364/364
f 364/364/364 365/365/365 366/366/366
f 364/364/364 367/367/367 471/471/471
f 202/202/202 126/126/126 125/125/125
f 125/125/125 201/201/201 202/202/202
f 125/125/125 126/126/126 127/127/127
f 202/202/202 461/461/461 410/410/410
f 410/410/410 126/126/126 202/202/202
f 126/126/126 411/411/411 429/429/429
f 429/429/429 158/158/158 126/126/126
f 410/410/410 411/411/411 126/126/126
f 126/126/126 158/158/158 157/157/157
f 157/157/157 127/127/127 126/126/126
f 159/159/159 160/160/160 157/157/157
f 157/157/157 158/158/158 159/159/159
f 159/159/159 158/158/158 429/429/429
f 429/429/429 430/430/430 159/159/159
f 430/430/430 193/193/193 159/159/159
f 160/160/160 159/159/159 193/193/193
f 109/109/109 114/114/114 113/113/113
f 113/113/113 110/110/110 109/109/109
f 111/111/111 112/112/112 109/109/109
f 109/109/109 110/110/110 111/111/111
f 177/177/177 163/163/163 113/113/113
f 110/110/110 113/113/113 163/163/163
f 163/163/163 161/161/161 110/110/110
f 162/162/162 111/111/111 110/110/110
f 110/110/110 161/161/161 162/162/162
f 116/116/116 111/111/111 178/178/178
f 178/178/178 111/111/111 162/162/162
f 111/111/111 116/116/116 115/115/115
f 115/115/115 112/112/112 111/111/111
f 162/162/162 165/165/165 179/179/179
f 179/179/179 178/178/178 162/162/162
f 165/165/165 162/162/162 161/161/161
f 164/164/164 161/161/161 163/163/163
f 161/161/161 164/164/164 165/165/165
f 183/183/183 179/179/179 165/165/165
f 165/165/165 166/166/166 183/183/183
f 165/165/165 164/164/164 166/166/166
f 173/173/173 172/172/172 179/179/179
f 179/179/179 183/183/183 173/173/173
f 169/169/169 178/178/178 179/179/179
f 396/396/396 399/399/399 400/400/400
f 400/400/400 401/401/401 396/396/396
f 398/398/398 399/399/399 396/396/396
f 396/396/396 397/397/397 398/398/398
f 433/433/433 400/400/400 399/399/399
f 399/399/399 432/432/432 433/433/433
f 431/431/431 432/432/432 399/399/399
f 399/399/399 398/398/398 431/431/431
f 447/447/447 400/400/400 433/433/433
f 433/433/433 432/432/432 435/435/435
f 435/435/435 438/438/438 433/433/433
f 450/450/450 447/447/447 433/433/433
f 433/433/433 438/438/438 450/450/450
f 434/434/434 435/435/435 432/432/432
f 432/432/432 431/431/431 434/434/434
f 431/431/431 448/448/448 449/449/449
f 449/449/449 434/434/434 431/431/431
f 448/448/448 431/431/431 398/398/398
f 453/453/453 436/436/436 434/434/434
f 434/434/434 449/449/449 453/453/453
f 434/434/434 436/436/436 435/435/435
f 436/436/436 437/437/437 435/435/435
f 435/435/435 437/437/437 438/438/438
f 450/450/450 438/438/438 437/437/437
f 62/62/62 61/61/61 83/83/83
f 61/61/61 64/64/64 207/207/207
f 207/207/207 81/81/81 61/61/61
f 83/83/83 61/61/61 81/81/81
f 63/63/63 64/64/64 61/61/61
f 61/61/61 62/62/62 63/63/63
f 83/83/83 73/73/73 62/62/62
f 65/65/65 62/62/62 73/73/73
f 66/66/66 63/63/63 62/62/62
f 62/62/62 65/65/65 66/66/66
f 224/224/224 83/83/83 82/82/82
f 73/73/73 83/83/83 224/224/224
f 81/81/81 82/82/82 83/83/83
f 224/224/224 74/74/74 73/73/73
f 73/73/73 76/76/76 65/65/65
f 75/75/75 76/76/76 73/73/73
f 73/73/73 74/74/74 75/75/75
f 235/235/235 65/65/65 223/223/223
f 65/65/65 235/235/235 66/66/66
f 65/65/65 76/76/76 153/153/153
f 153/153/153 223/223/223 65/65/65
f 236/236/236 69/69/69 66/66/66
f 66/66/66 235/235/235 236/236/236
f 63/63/63 66/66/66 69/69/69
f 404/404/404 405/405/405 403/403/403
f 403/403/403 402/402/402 404/404/404
f 402/402/402 403/403/403 398/398/398
f 398/398/398 397/397/397 402/402/402
f 96/96/96 79/79/79 78/78/78
f 225/225/225 226/226/226 78/78/78
f 78/78/78 77/77/77 225/225/225
f 77/77/77 78/78/78 79/79/79
f 226/226/226 233/233/233 71/71/71
f 233/233/233 226/226/226 225/225/225
f 225/225/225 234/234/234 233/233/233
f 79/79/79 80/80/80 77/77/77
f 230/230/230 79/79/79 96/96/96
f 227/227/227 79/79/79 230/230/230
f 228/228/228 80/80/80 79/79/79
f 79/79/79 227/227/227 228/228/228
f 231/231/231 230/230/230 236/236/236
f 236/236/236 230/230/230 96/96/96
f 230/230/230 231/231/231 227/227/227
f 229/229/229 303/303/303 1/1/1
f 304/304/304 2/2/2 1/1/1
f 1/1/1 303/303/303 304/304/304
f 229/229/229 1/1/1 4/4/4
f 3/3/3 4/4/4 1/1/1
f 1/1/1 2/2/2 3/3/3
f 123/123/123 3/3/3 2/2/2
f 2/2/2 304/304/304 409/409/409
f 409/409/409 124/124/124 2/2/2
f 2/2/2 124/124/124 123/123/123
f 123/123/123 124/124/124 203/203/203
f 462/462/462 467/467/467 124/124/124
f 409/409/409 462/462/462 124/124/124
f 203/203/203 124/124/124 218/218/218
f 51/51/51 186/186/186 454/454/454
f 454/454/454 342/342/342 51/51/51
f 52/52/52 51/51/51 342/342/342
f 50/50/50 51/51/51 52/52/52
f 52/52/52 38/38/38 50/50/50
f 50/50/50 38/38/38 37/37/37
f 37/37/37 49/49/49 50/50/50
f 49/49/49 53/53/53 187/187/187
f 187/187/187 188/188/188 49/49/49
f 53/53/53 49/49/49 37/37/37
f 188/188/188 187/187/187 215/215/215
f 215/215/215 216/216/216 188/188/188
f 215/215/215 187/187/187 210/210/210
f 187/187/187 53/53/53 184/184/184
f 184/184/184 210/210/210 187/187/187
f 155/155/155 184/184/184 53/53/53
f 53/53/53 54/54/54 155/155/155
f 37/37/37 54/54/54 53/53/53
f 54/54/54 37/37/37 36/36/36
f 36/36/36 37/37/37 38/38/38
f 155/155/155 54/54/54 149/149/149
f 36/36/36 149/149/149 54/54/54
f 345/345/345 426/426/426 332/332/332
f 332/332/332 335/335/335 345/345/345
f 334/334/334 335/335/335 332/332/332
f 426/426/426 345/345/345 155/155/155
f 155/155/155 156/156/156 426/426/426
f 155/155/155 345/345/345 344/344/344
f 344/344/344 345/345/345 335/335/335
f 335/335/335 343/343/343 344/344/344
f 342/342/342 343/343/343 335/335/335
f 335/335/335 334/334/334 342/342/342
f 342/342/342 334/334/334 52/52/52
f 343/343/343 342/342/342 454/454/454
f 454/454/454 456/456/456 343/343/343
f 343/343/343 456/456/456 455/455/455
f 455/455/455 344/344/344 343/343/343
f 184/184/184 344/344/344 455/455/455
f 344/344/344 184/184/184 155/155/155
f 210/210/210 455/455/455 465/465/465
f 465/465/465 455/455/455 456/456/456
f 482/482/482 481/481/481 470/470/470
f 481/481/481 477/477/477 476/476/476
f 476/476/476 478/478/478 481/481/481
f 387/387/387 477/477/477 481/481/481
f 481/481/481 360/360/360 387/387/387
f 386/386/386 387/387/387 360/360/360
f 360/360/360 358/358/358 386/386/386
f 371/371/371 370/370/370 387/387/387
f 387/387/387 386/386/386 371/371/371
f 477/477/477 387/387/387 370/370/370
f 477/477/477 370/370/370 475/475/475
f 475/475/475 476/476/476 477/477/477
f 476/476/476 475/475/475 474/474/474
f 474/474/474 478/478/478 476/476/476
f 474/474/474 475/475/475 370/370/370
f 370/370/370 369/369/369 474/474/474
f 370/370/370 371/371/371 368/368/368
f 368/368/368 369/369/369 370/370/370
f 361/361/361 472/472/472 371/371/371
f 371/371/371 386/386/386 361/361/361
f 473/473/473 368/368/368 371/371/371
f 371/371/371 472/472/472 473/473/473
f 373/373/373 352/352/352 355/355/355
f 352/352/352 372/372/372 463/463/463
f 463/463/463 353/353/353 352/352/352
f 372/372/372 352/352/352 373/373/373
f 354/354/354 355/355/355 352/352/352
f 352/352/352 353/353/353 354/354/354
f 471/471/471 374/374/374 373/373/373
f 355/355/355 364/364/364 373/373/373
f 471/471/471 373/373/373 364/364/364
f 373/373/373 374/374/374 372/372/372
f 364/364/364 355/355/355 357/357/357
f 356/356/356 357/357/357 355/355/355
f 355/355/355 354/354/354 356/356/356
f 354/354/354 358/358/358 360/360/360
f 360/360/360 356/356/356 354/354/354
f 358/358/358 354/354/354 353/353/353
f 357/357/357 356/356/356 482/482/482
f 481/481/481 482/482/482 356/356/356
f 356/356/356 360/360/360 481/481/481
f 482/482/482 469/469/469 357/357/357
f 357/357/357 469/469/469 427/427/427
f 427/427/427 365/365/365 357/357/357
f 357/357/357 365/365/365 364/364/364
f 470/470/470 469/469/469 482/482/482
f 170/170/170 182/182/182 117/117/117
f 170/170/170 117/117/117 116/116/116
f 116/116/116 117/117/117 118/118/118
f 118/118/118 115/115/115 116/116/116
f 455/455/455 210/210/210 184/184/184
f 456/456/456 454/454/454 464/464/464
f 464/464/464 466/466/466 456/456/456
f 456/456/456 466/466/466 465/465/465
f 217/217/217 465/465/465 330/330/330
f 330/330/330 465/465/465 466/466/466
f 465/465/465 217/217/217 210/210/210
f 210/210/210 217/217/217 215/215/215
f 330/330/330 150/150/150 217/217/217
f 217/217/217 150/150/150 34/34/34
f 34/34/34 215/215/215 217/217/217
f 466/466/466 331/331/331 330/330/330
f 150/150/150 330/330/330 329/329/329
f 330/330/330 331/331/331 328/328/328
f 328/328/328 329/329/329 330/330/330
f 331/331/331 466/466/466 464/464/464
f 464/464/464 327/327/327 331/331/331
f 328/328/328 331/331/331 327/327/327
f 327/327/327 326/326/326 328/328/328
f 437/437/437 451/451/451 450/450/450
f 451/451/451 437/437/437 436/436/436
f 436/436/436 453/453/453 451/451/451
f 453/453/453 444/444/444 443/443/443
f 443/443/443 445/445/445 453/453/453
f 444/444/444 453/453/453 449/449/449
f 449/449/449 442/442/442 444/444/444
f 440/440/440 442/442/442 449/449/449
f 449/449/449 448/448/448 440/440/440
f 444/444/444 442/442/442 441/441/441
f 441/441/441 443/443/443 444/444/444
f 445/445/445 443/443/443 441/441/441
f 441/441/441 446/446/446 445/445/445
f 441/441/441 439/439/439 452/452/452
f 452/452/452 446/446/446 441/441/441
f 440/440/440 439/439/439 441/441/441
f 441/441/441 442/442/442 440/440/440
f 403/403/403 440/440/440 448/448/448
f 439/439/439 440/440/440 403/403/403
f 439/439/439 405/405/405 452/452/452
f 403/403/403 405/405/405 439/439/439
f 448/448/448 398/398/398 403/403/403
f 457/457/457 208/208/208 148/148/148
f 338/338/338 458/458/458 457/457/457
f 458/458/458 338/338/338 415/415/415
f 413/413/413 415/415/415 338/338/338
f 338/338/338 341/341/341 413/413/413
f 340/340/340 341/341/341 338/338/338
f 415/415/415 406/406/406 458/458/458
f 458/458/458 209/209/209 208/208/208
f 209/209/209 458/458/458 406/406/406
f 190/190/190 189/189/189 208/208/208
f 208/208/208 209/209/209 190/190/190
f 148/148/148 208/208/208 189/189/189
f 406/406/406 120/120/120 209/209/209
f 119/119/119 190/190/190 209/209/209
f 209/209/209 120/120/120 119/119/119
f 134/134/134 45/45/45 190/190/190
f 190/190/190 119/119/119 134/134/134
f 189/189/189 190/190/190 45/45/45
f 189/189/189 146/146/146 148/148/148
f 329/329/329 151/151/151 150/150/150
f 150/150/150 151/151/151 35/35/35
f 35/35/35 34/34/34 150/150/150
f 34/34/34 33/33/33 216/216/216
f 216/216/216 215/215/215 34/34/34
f 32/32/32 28/28/28 31/31/31
f 30/30/30 31/31/31 28/28/28
f 28/28/28 29/29/29 30/30/30
f 31/31/31 33/33/33 32/32/32
f 34/34/34 35/35/35 32/32/32
f 32/32/32 33/33/33 34/34/34
f 33/33/33 31/31/31 214/214/214
f 31/31/31 30/30/30 213/213/213
f 213/213/213 214/214/214 31/31/31
f 213/213/213 30/30/30 327/327/327
f 30/30/30 29/29/29 326/326/326
f 326/326/326 327/327/327 30/30/30
f 327/327/327 464/464/464 213/213/213
f 454/454/454 186/186/186 213/213/213
f 213/213/213 464/464/464 454/454/454
f 185/185/185 214/214/214 213/213/213
f 213/213/213 186/186/186 185/185/185
f 214/214/214 216/216/216 33/33/33
f 188/188/188 216/216/216 214/214/214
f 214/214/214 185/185/185 188/188/188
f 49/49/49 188/188/188 185/185/185
f 185/185/185 50/50/50 49/49/49
f 51/51/51 50/50/50 185/185/185
f 185/185/185 186/186/186 51/51/51
f 23/23/23 22/22/22 94/94/94
f 94/94/94 105/105/105 85/85/85
f 85/85/85 84/84/84 94/94/94
f 93/93/93 105/105/105 94/94/94
f 22/22/22 93/93/93 94/94/94
f 98/98/98 84/84/84 129/129/129
f 129/129/129 84/84/84 46/46/46
f 46/46/46 84/84/84 85/85/85
f 129/129/129 101/101/101 98/98/98
f 102/102/102 99/99/99 98/98/98
f 98/98/98 101/101/101 102/102/102
f 389/389/389 99/99/99 102/102/102
f 390/390/390 102/102/102 128/128/128
f 102/102/102 390/390/390 389/389/389
f 128/128/128 102/102/102 101/101/101
f 130/130/130 108/108/108 101/101/101
f 101/101/101 129/129/129 130/130/130
f 101/101/101 108/108/108 128/128/128
f 107/107/107 106/106/106 89/89/89
f 89/89/89 131/131/131 107/107/107
f 88/88/88 131/131/131 89/89/89
f 88/88/88 89/89/89 90/90/90
f 44/44/44 104/104/104 88/88/88
f 88/88/88 91/91/91 44/44/44
f 90/90/90 91/91/91 88/88/88
f 91/91/91 90/90/90 121/121/121
f 91/91/91 122/122/122 41/41/41
f 41/41/41 44/44/44 91/91/91
f 121/121/121 122/122/122 91/91/91
f 103/103/103 104/104/104 44/44/44
f 44/44/44 43/43/43 103/103/103
f 43/43/43 44/44/44 41/41/41
f 119/119/119 41/41/41 122/122/122
f 42/42/42 41/41/41 119/119/119
f 41/41/41 42/42/42 43/43/43
f 122/122/122 134/134/134 119/119/119
f 122/122/122 130/130/130 129/129/129
f 129/129/129 134/134/134 122/122/122
f 121/121/121 130/130/130 122/122/122
f 130/130/130 121/121/121 106/106/106
f 129/129/129 46/46/46 45/45/45
f 45/45/45 134/134/134 129/129/129
f 45/45/45 46/46/46 47/47/47
f 42/42/42 120/120/120 406/406/406
f 406/406/406 336/336/336 42/42/42
f 43/43/43 42/42/42 336/336/336
f 119/119/119 120/120/120 42/42/42
f 103/103/103 43/43/43 337/337/337
f 394/394/394 128/128/128 132/132/132
f 128/128/128 394/394/394 390/390/390
f 132/132/132 128/128/128 108/108/108
f 389/389/389 390/390/390 413/413/413
f 412/412/412 413/413/413 390/390/390
f 390/390/390 394/394/394 412/412/412
f 413/413/413 376/376/376 389/389/389
f 413/413/413 341/341/341 376/376/376
f 407/407/407 415/415/415 413/413/413
f 413/413/413 412/412/412 407/407/407
f 412/412/412 394/394/394 393/393/393
f 393/393/393 408/408/408 412/412/412
f 408/408/408 407/407/407 412/412/412
f 132/132/132 395/395/395 394/394/394
f 393/393/393 394/394/394 395/395/395
f 382/382/382 393/393/393 395/395/395
f 395/395/395 414/414/414 382/382/382
f 414/414/414 395/395/395 132/132/132
f 379/379/379 382/382/382 414/414/414
f 381/381/381 382/382/382 379/379/379
f 132/132/132 133/133/133 414/414/414
f 108/108/108 107/107/107 132/132/132
f 131/131/131 133/133/133 132/132/132
f 132/132/132 107/107/107 131/131/131
f 106/106/106 108/108/108 130/130/130
f 106/106/106 107/107/107 108/108/108
f 219/219/219 468/468/468 220/220/220
f 219/219/219 220/220/220 221/221/221
f 228/228/228 227/227/227 231/231/231
f 231/231/231 232/232/232 228/228/228
f 236/236/236 232/232/232 231/231/231
f 336/336/336 337/337/337 43/43/43
f 407/407/407 336/336/336 406/406/406
f 380/380/380 337/337/337 336/336/336
f 336/336/336 407/407/407 380/380/380
f 406/406/406 415/415/415 407/407/407
f 380/380/380 407/407/407 408/408/408
f 337/337/337 380/380/380 379/379/379
f 408/408/408 381/381/381 380/380/380
f 379/379/379 380/380/380 381/381/381
f 379/379/379 391/391/391 337/337/337
f 337/337/337 391/391/391 103/103/103
f 291/291/291 292/292/292 293/293/293
f 536/536/536 537/537/537 538/538/538
f 491/491/491 492/492/492 493/493/493
f 246/246/246 247/247/247 248/248/248
f 249/249/249 250/250/250 251/251/251
f 494/494/494 495/495/495 496/496/496
f 524/524/524 525/525/525 526/526/526
f 279/279/279 280/280/280 281/281/281
f 308/308/308 309/309/309 421/421/421
f 418/418/418 421/421/421 309/309/309
f 308/308/308 307/307/307 309/309/309
f 418/418/418 309/309/309 306/306/306
f 307/307/307 306/306/306 309/309/309
f 146/146/146 189/189/189 48/48/48
f 45/45/45 48/48/48 189/189/189
f 147/147/147 148/148/148 146/146/146
f 48/48/48 87/87/87 146/146/146
f 146/146/146 145/145/145 147/147/147
f 146/146/146 87/87/87 144/144/144
f 144/144/144 145/145/145 146/146/146
f 86/86/86 48/48/48 47/47/47
f 87/87/87 48/48/48 86/86/86
f 47/47/47 48/48/48 45/45/45
f 87/87/87 22/22/22 18/18/18
f 18/18/18 144/144/144 87/87/87
f 86/86/86 22/22/22 87/87/87
f 137/137/137 145/145/145 144/144/144
f 144/144/144 143/143/143 137/137/137
f 144/144/144 18/18/18 141/141/141
f 141/141/141 143/143/143 144/144/144
f 195/195/195 147/147/147 145/145/145
f 145/145/145 137/137/137 195/195/195
f 15/15/15 18/18/18 22/22/22
f 17/17/17 18/18/18 15/15/15
f 135/135/135 15/15/15 23/23/23
f 136/136/136 16/16/16 15/15/15
f 264/264/264 265/265/265 266/266/266
f 509/509/509 510/510/510 511/511/511
f 518/518/518 519/519/519 520/520/520
f 273/273/273 274/274/274 275/275/275
f 422/422/422 423/423/423 420/420/420
f 420/420/420 316/316/316 422/422/422
f 420/420/420 308/308/308 421/421/421
f 424/424/424 425/425/425 422/422/422
f 422/422/422 378/378/378 424/424/424
f 378/378/378 422/422/422 316/316/316
f 425/425/425 147/147/147 195/195/195
f 147/147/147 425/425/425 424/424/424
f 148/148/148 424/424/424 457/457/457
f 339/339/339 457/457/457 424/424/424
f 424/424/424 378/378/378 339/339/339
f 424/424/424 148/148/148 147/147/147
f 316/316/316 320/320/320 378/378/378
f 378/378/378 320/320/320 377/377/377
f 377/377/377 339/339/339 378/378/378
f 377/377/377 340/340/340 339/339/339
f 457/457/457 339/339/339 338/338/338
f 338/338/338 339/339/339 340/340/340
f 208/208/208 457/457/457 458/458/458
f 313/313/313 314/314/314 311/311/311
f 11/11/11 191/191/191 192/192/192
f 192/192/192 12/12/12 11/11/11
f 11/11/11 12/12/12 13/13/13
f 318/318/318 317/317/317 459/459/459
f 459/459/459 460/460/460 318/318/318
f 136/136/136 318/318/318 460/460/460
f 315/315/315 318/318/318 136/136/136
f 317/317/317 318/318/318 315/315/315
f 315/315/315 316/316/316 317/317/317
f 321/321/321 315/315/315 135/135/135
f 136/136/136 135/135/135 315/315/315
f 315/315/315 321/321/321 320/320/320
f 320/320/320 316/316/316 315/315/315
f 321/321/321 388/388/388 384/384/384
f 384/384/384 320/320/320 321/321/321
f 135/135/135 204/204/204 321/321/321
f 388/388/388 321/321/321 204/204/204
f 23/23/23 204/204/204 135/135/135
f 204/204/204 100/100/100 388/388/388
f 204/204/204 23/23/23 97/97/97
f 97/97/97 100/100/100 204/204/204
f 388/388/388 389/389/389 376/376/376
f 376/376/376 384/384/384 388/388/388
f 99/99/99 389/389/389 388/388/388
f 388/388/388 100/100/100 99/99/99
f 99/99/99 100/100/100 97/97/97
f 94/94/94 97/97/97 23/23/23
f 97/97/97 94/94/94 84/84/84
f 84/84/84 98/98/98 97/97/97
f 97/97/97 98/98/98 99/99/99
f 351/351/351 346/346/346 348/348/348
f 346/346/346 347/347/347 348/348/348
f 350/350/350 351/351/351 348/348/348
f 348/348/348 347/347/347 349/349/349
f 349/349/349 350/350/350 348/348/348
f 60/60/60 56/56/56 55/55/55
f 55/55/55 56/56/56 57/57/57
f 59/59/59 56/56/56 60/60/60
f 56/56/56 58/58/58 57/57/57
f 58/58/58 56/56/56 59/59/59
f 539/539/539 540/540/540 541/541/541
f 294/294/294 295/295/295 296/296/296
f 276/276/276 277/277/277 278/278/278
f 521/521/521 522/522/522 523/523/523
f 341/341/341 375/375/375 376/376/376
f 384/384/384 376/376/376 375/375/375
f 375/375/375 392/392/392 384/384/384
f 385/385/385 384/384/384 392/392/392
f 320/320/320 384/384/384 385/385/385
f 385/385/385 377/377/377 320/320/320
f 194/194/194 417/417/417 416/416/416
f 416/416/416 417/417/417 305/305/305
f 416/416/416 195/195/195 194/194/194
f 194/194/194 195/195/195 137/137/137
f 137/137/137 138/138/138 194/194/194
f 416/416/416 310/310/310 423/423/423
f 416/416/416 423/423/423 422/422/422
f 422/422/422 425/425/425 416/416/416
f 195/195/195 416/416/416 425/425/425
f 305/305/305 310/310/310 416/416/416
f 310/310/310 305/305/305 307/307/307
f 305/305/305 306/306/306 307/307/307
f 420/420/420 423/423/423 310/310/310
f 310/310/310 308/308/308 420/420/420
f 310/310/310 307/307/307 308/308/308
f 497/497/497 498/498/498 499/499/499
f 252/252/252 253/253/253 254/254/254
f 500/500/500 501/501/501 502/502/502
f 255/255/255 256/256/256 257/257/257
f 261/261/261 262/262/262 263/263/263
f 506/506/506 507/507/507 508/508/508
f 93/93/93 22/22/22 86/86/86
f 530/530/530 531/531/531 532/532/532
f 285/285/285 286/286/286 287/287/287
f 503/503/503 504/504/504 505/505/505
f 258/258/258 259/259/259 260/260/260
f 515/515/515 516/516/516 517/517/517
f 270/270/270 271/271/271 272/272/272
f 527/527/527 528/528/528 529/529/529
f 282/282/282 283/283/283 284/284/284
f 237/237/237 238/238/238 239/239/239
f 483/483/483 484/484/484 485/485/485
f 15/15/15 135/135/135 136/136/136
f 22/22/22 23/23/23 15/15/15
f 15/15/15 16/16/16 17/17/17
f 198/198/198 17/17/17 16/16/16
f 199/199/199 16/16/16 136/136/136
f 16/16/16 199/199/199 198/198/198
f 19/19/19 92/92/92 198/198/198
f 198/198/198 199/199/199 19/19/19
f 19/19/19 199/199/199 200/200/200
f 136/136/136 200/200/200 199/199/199
f 200/200/200 20/20/20 19/19/19
f 92/92/92 19/19/19 14/14/14
f 14/14/14 19/19/19 20/20/20
f 14/14/14 13/13/13 92/92/92
f 14/14/14 21/21/21 211/211/211
f 211/211/211 11/11/11 14/14/14
f 20/20/20 21/21/21 14/14/14
f 13/13/13 14/14/14 11/11/11
f 319/319/319 20/20/20 200/200/200
f 20/20/20 319/319/319 312/312/312
f 312/312/312 21/21/21 20/20/20
f 200/200/200 460/460/460 319/319/319
f 460/460/460 200/200/200 136/136/136
f 319/319/319 460/460/460 459/459/459
f 459/459/459 383/383/383 319/319/319
f 312/312/312 319/319/319 383/383/383
f 312/312/312 311/311/311 211/211/211
f 211/211/211 21/21/21 312/312/312
f 383/383/383 313/313/313 312/312/312
f 311/311/311 312/312/312 313/313/313
f 211/211/211 311/311/311 191/191/191
f 211/211/211 191/191/191 11/11/11
f 192/192/192 191/191/191 311/311/311
f 311/311/311 314/314/314 192/192/192
f 5/5/5 7/7/7 139/139/139
f 139/139/139 138/138/138 5/5/5
f 5/5/5 138/138/138 137/137/137
f 137/137/137 10/10/10 5/5/5
f 10/10/10 6/6/6 5/5/5
f 5/5/5 6/6/6 7/7/7
f 7/7/7 9/9/9 140/140/140
f 140/140/140 139/139/139 7/7/7
f 6/6/6 9/9/9 7/7/7
f 10/10/10 8/8/8 6/6/6
f 8/8/8 9/9/9 6/6/6
f 141/141/141 8/8/8 10/10/10
f 10/10/10 143/143/143 141/141/141
f 137/137/137 143/143/143 10/10/10
f 8/8/8 142/142/142 9/9/9
f 141/141/141 142/142/142 8/8/8
f 140/140/140 9/9/9 142/142/142
f 139/139/139 140/140/140 24/24/24
f 196/196/196 139/139/139 27/27/27
f 138/138/138 139/139/139 196/196/196
f 24/24/24 27/27/27 139/139/139
f 26/26/26 27/27/27 24/24/24
f 24/24/24 25/25/25 26/26/26
f 197/197/197 27/27/27 26/26/26
f 297/297/297 298/298/298 299/299/299
f 542/542/542 543/543/543 544/544/544
f 512/512/512 513/513/513 514/514/514
f 267/267/267 268/268/268 269/269/269
f 288/288/288 289/289/289 290/290/290
f 533/533/533 534/534/534 535/535/535
f 179/179/179 172/172/172 169/169/169
f 178/178/178 169/169/169 116/116/116
f 169/169/169 172/172/172 171/171/171
f 171/171/171 170/170/170 169/169/169
f 116/116/116 169/169/169 170/170/170
f 171/171/171 172/172/172 173/173/173
f 174/174/174 173/173/173 183/183/183
f 173/173/173 174/174/174 171/171/171
f 183/183/183 175/175/175 174/174/174
f 181/181/181 183/183/183 166/166/166
f 166/166/166 164/164/164 168/168/168
f 166/166/166 168/168/168 181/181/181
f 180/180/180 181/181/181 168/168/168
f 168/168/168 167/167/167 180/180/180
f 164/164/164 167/167/167 168/168/168
f 180/180/180 167/167/167 163/163/163
f 163/163/163 177/177/177 180/180/180
f 163/163/163 167/167/167 164/164/164
f 171/171/171 174/174/174 175/175/175
f 175/175/175 176/176/176 171/171/171
f 171/171/171 176/176/176 182/182/182
f 182/182/182 170/170/170 171/171/171
f 361/361/361 386/386/386 358/358/358
f 472/472/472 361/361/361 363/363/363
f 358/358/358 359/359/359 361/361/361
f 362/362/362 363/363/363 361/361/361
f 361/361/361 359/359/359 362/362/362
f 353/353/353 359/359/359 358/358/358
f 362/362/362 359/359/359 353/353/353
f 353/353/353 463/463/463 362/362/362
f 363/363/363 479/479/479 472/472/472
f 473/473/473 472/472/472 479/479/479
f 479/479/479 480/480/480 473/473/473
f 470/470/470 428/428/428 427/427/427
f 427/427/427 469/469/469 470/470/470
f 428/428/428 366/366/366 365/365/365
f 365/365/365 427/427/427 428/428/428
f 222/222/222 236/236/236 235/235/235
f 235/235/235 223/223/223 222/222/222
f 222/222/222 223/223/223 153/153/153
f 153/153/153 152/152/152 222/222/222
f 152/152/152 153/153/153 76/76/76
f 76/76/76 75/75/75 152/152/152
f 69/69/69 67/67/67 63/63/63
f 64/64/64 63/63/63 67/67/67
f 96/96/96 69/69/69 236/236/236
f 95/95/95 67/67/67 69/69/69
f 69/69/69 96/96/96 95/95/95
f 70/70/70 68/68/68 67/67/67
f 67/67/67 95/95/95 70/70/70
f 67/67/67 68/68/68 64/64/64
f 64/64/64 68/68/68 72/72/72
f 72/72/72 207/207/207 64/64/64
f 72/72/72 68/68/68 70/70/70
f 71/71/71 70/70/70 226/226/226
f 70/70/70 95/95/95 78/78/78
f 78/78/78 226/226/226 70/70/70
f 70/70/70 71/71/71 72/72/72
f 78/78/78 95/95/95 96/96/96
f 486/486/486 487/487/487 488/488/488
f 240/240/240 241/241/241 242/242/242
f 27/27/27 197/197/197 196/196/196
f 206/206/206 26/26/26 25/25/25
f 26/26/26 206/206/206 205/205/205
f 26/26/26 205/205/205 197/197/197
f 25/25/25 212/212/212 206/206/206
f 206/206/206 212/212/212 325/325/325
f 325/325/325 324/324/324 206/206/206
f 324/324/324 205/205/205 206/206/206
f 197/197/197 205/205/205 324/324/324
f 324/324/324 323/323/323 197/197/197
f 196/196/196 197/197/197 323/323/323
f 324/324/324 325/325/325 322/322/322
f 322/322/322 323/323/323 324/324/324
f 323/323/323 419/419/419 196/196/196
f 419/419/419 323/323/323 322/322/322
f 417/417/417 194/194/194 196/196/196
f 196/196/196 419/419/419 417/417/417
f 196/196/196 194/194/194 138/138/138
f 306/306/306 419/419/419 418/418/418
f 305/305/305 417/417/417 419/419/419
f 419/419/419 306/306/306 305/305/305
f 322/322/322 418/418/418 419/419/419
f 300/300/300 301/301/301 302/302/302
f 545/545/545 546/546/546 301/301/301
f 243/243/243 244/244/244 245/245/245
f 489/489/489 245/245/245 490/490/490
f 36/36/36 40/40/40 149/149/149
f 36/36/36 39/39/39 40/40/40
f 38/38/38 39/39/39 36/36/36
f 149/149/149 40/40/40 156/156/156
f 149/149/149 156/156/156 155/155/155
f 154/154/154 333/333/333 40/40/40
f 426/426/426 156/156/156 40/40/40
f 332/332/332 426/426/426 40/40/40
f 332/332/332 40/40/40 333/333/333
f 154/154/154 40/40/40 39/39/39
f 52/52/52 154/154/154 39/39/39
f 39/39/39 38/38/38 52/52/52
f 333/333/333 154/154/154 52/52/52
f 52/52/52 334/334/334 333/333/333
f 332/332/332 333/333/333 334/334/334
