# shastasaurus reconstructed from live game memory
v 27.79444 57.29365 -61.31085
v 33.27273 65.59817 -59.40911
v 19.98701 70.78244 -82.05791
v 19.91161 56.92954 -82.17345
v 8.99630 82.35672 -100.63433
v 18.16288 83.11141 -94.61295
v 18.35226 93.17976 -84.74483
v 9.41365 94.44411 -84.89463
v -0.00755 95.90427 -84.87923
v -0.00755 84.06044 -100.81966
v 20.83964 87.57170 -85.09312
v 24.10449 82.83543 -80.92073
v 25.76988 84.18199 -77.41350
v 19.50688 83.00866 -89.81284
v 21.91353 76.40186 -93.27209
v 20.49819 80.60241 -90.70839
v 23.77994 80.56252 -82.93052
v 27.11673 76.59401 -81.22974
v 6.43358 74.25017 -109.05733
v 13.66518 67.27070 -107.47739
v -0.00756 76.17122 -109.17620
v 21.93789 105.96533 -1.53646
v 39.79755 94.38494 -1.53555
v 41.93021 89.93042 34.26057
v 23.76759 102.78164 34.27142
v -0.00755 109.87379 34.26057
v -0.00755 112.12179 -1.54768
v 23.46151 84.11985 -84.79670
v 16.64239 92.82668 -83.40978
v 16.75505 83.88043 -93.87431
v 20.09915 77.45589 -92.32768
v 24.38291 77.22859 -79.37944
v 23.51722 83.70133 -74.85330
v 30.88605 56.05753 -69.50478
v 33.13059 63.16466 -71.58463
v 7.93984 59.51395 -103.00057
v 6.30345 55.97128 -102.84770
v 18.82420 48.74861 -70.30104
v 19.05218 48.31693 -61.88794
v -0.00755 44.17558 -69.75853
v -0.00755 43.44056 -62.29099
v 23.79917 67.99961 -91.49231
v 23.43577 63.93830 -90.60964
v 33.90230 70.95793 -69.18192
v 49.49450 74.65514 -1.52729
v 52.95903 56.62529 -1.52990
v 53.35631 52.97458 34.26046
v 51.66316 68.05013 34.26046
v 26.85447 23.71260 34.26036
v -0.00755 17.61247 34.26036
v -0.00755 24.27029 75.13123
v 23.70117 29.14755 75.13974
v 15.55304 84.71215 121.31037
v 24.65568 75.21935 121.31282
v 21.81953 70.81517 135.11929
v 14.08111 79.87302 135.11942
v -0.00755 83.91100 135.04398
v -0.00755 88.39016 121.30717
v 47.24905 38.29478 34.26036
v 40.76646 39.50373 75.19283
v 45.62796 51.95528 75.18089
v 4.72928 59.54683 -107.67783
v 3.86647 57.63649 -107.76334
v 2.84850 59.59084 -109.02981
v 2.96652 58.35591 -108.72649
v 25.80811 88.05797 -70.38159
v 36.45968 63.60057 -62.69004
v 28.20465 86.30132 -62.72636
v -0.00755 18.60795 -1.54778
v 27.41348 24.83360 -1.53438
v 29.40687 52.78720 -62.13660
v -0.00756 54.24552 -102.56802
v 35.87888 73.20354 -62.31491
v 41.45854 62.92548 -55.03745
v 38.72206 75.38075 -55.05820
v 30.51086 88.39269 -55.03902
v 47.65033 61.50613 -38.28058
v 43.17051 76.21802 -38.25813
v 34.39624 90.11845 -38.23929
v -0.00756 56.71014 -109.15295
v 35.41616 84.39818 75.16205
v 20.30298 96.26213 75.14182
v -0.00755 103.05148 75.12568
v 50.07080 49.11016 -1.54741
v 47.18244 41.57843 -1.56492
v 43.32947 66.07505 75.18736
v 35.14242 66.20157 108.17681
v 28.98328 78.27824 108.17496
v 37.22276 56.28750 108.18621
v 28.89233 64.35687 121.34071
v 24.65568 75.21935 121.31282
v 29.84713 53.49461 121.39967
v 28.89233 64.35687 121.34071
v 23.31147 60.61687 134.98453
v 29.84713 53.49461 121.39967
v 16.12934 48.78939 134.81619
v -0.00756 59.54991 -110.20974
v -0.00756 58.10961 -109.96301
v 4.40546 65.77927 -118.75300
v 4.14528 64.15991 -118.62467
v 6.32856 64.16726 -116.73714
v 6.50388 65.86611 -117.16385
v 12.15268 64.36364 -106.46136
v 18.28290 64.82197 -97.87024
v 39.03208 39.36831 106.06095
v 32.91256 38.16106 104.58486
v 31.62134 46.97155 117.84358
v 35.86354 44.15465 118.83796
v 17.97619 36.89581 106.58225
v 41.57942 42.55122 85.77585
v 44.72342 42.21566 91.30400
v 37.20902 45.62186 117.90755
v 34.28179 49.93613 116.50328
v 17.15384 42.52697 121.23754
v 27.01624 47.51092 122.16197
v 40.61045 51.91532 107.61414
v 42.64418 46.74156 107.42480
v 44.58774 48.91872 88.12467
v 45.61982 44.77280 92.91548
v -0.00755 34.63375 105.84862
v -0.00755 40.11465 120.37581
v 17.15384 42.52697 121.23754
v -0.00755 40.11465 120.37581
v -0.00755 45.64819 134.81848
v 27.01624 47.51092 122.16197
v 12.15268 64.36364 -106.46136
v 6.32856 64.16726 -116.73714
v -0.00756 72.46587 -90.68076
v 4.14528 64.15991 -118.62467
v -0.00755 56.39757 -87.99914
v 7.93984 59.51395 -103.00057
v 33.13059 63.16466 -71.58463
v 2.84850 59.59084 -109.02981
v 4.72928 59.54683 -107.67783
v 23.43577 63.93830 -90.60964
v 18.28290 64.82197 -97.87024
v -0.00756 59.54991 -110.20974
v 35.12220 50.67314 -55.08940
v 22.94657 43.07106 -54.65068
v 7.77616 55.73743 192.38361
v 12.98186 61.58670 192.40720
v 14.86008 62.13875 178.82776
v 8.97811 55.75695 178.79843
v 13.07637 67.26775 192.43323
v 14.69341 68.57230 178.79990
v -0.00755 50.11892 160.99466
v 11.20300 52.58971 160.98479
v 16.86414 68.99435 161.02377
v 17.30190 60.85209 161.00592
v 5.23606 52.64132 213.03708
v 8.70848 56.65627 214.47795
v -0.00755 53.92854 192.37219
v -0.00755 51.83956 212.90977
v 7.56600 60.88282 215.63652
v 4.72902 63.44981 215.75858
v 6.06772 72.11775 192.53098
v 5.99557 52.85587 222.74709
v 4.48281 56.43537 224.73317
v -0.00755 58.66248 225.67148
v 3.68364 50.32011 220.88852
v -0.00755 49.87465 220.61830
v 1.71025 45.95106 231.96761
v 2.10265 46.20034 233.72260
v -0.00755 44.67869 232.90773
v -0.00755 45.25283 234.95683
v -0.00755 47.64077 234.44344
v 1.80143 48.26426 233.18420
v 1.38079 74.42168 217.42325
v -0.00755 75.96227 218.68291
v 1.32219 78.20318 210.35960
v -0.00755 79.99708 209.99870
v -0.00755 76.02486 192.51791
v 10.88826 75.89233 161.03577
v 8.54932 73.60740 178.61108
v -0.00755 76.74399 178.47495
v -0.00755 79.69854 161.07655
v -0.00755 103.98606 -62.38662
v -0.00755 102.16730 -67.76231
v 12.94726 99.43784 -68.23521
v 14.51835 100.08414 -62.29124
v -0.00755 88.39016 121.30717
v -0.00755 92.75841 108.17431
v 16.19464 88.44248 108.17466
v 15.55304 84.71215 121.31037
v -0.00755 110.40799 -38.25843
v -0.00755 107.51936 -55.12226
v 16.62577 102.82187 -55.08268
v 19.01011 105.75877 -38.24734
v -0.00756 66.37774 -120.79841
v 2.29104 66.22154 -120.22859
v 3.37134 67.96095 -118.29198
v -0.00756 68.95681 -119.48646
v -0.00756 64.11109 -120.81845
v 2.12923 64.10889 -120.35466
v 2.12923 64.10889 -120.35466
v -0.00756 64.11109 -120.81845
v -0.00755 37.74101 -55.04690
v 24.78836 34.62374 -39.35301
v -0.00755 30.44891 -40.52112
v 41.52792 39.77098 -30.61096
v 44.80121 38.06536 -8.18039
v 51.17686 41.82208 -8.32272
v 49.17341 41.71342 -25.32085
v 50.11906 53.88499 -29.38147
v 46.43896 53.48476 -42.23525
v 48.90934 46.91941 -35.12498
v 50.64663 48.21523 -25.35454
v 68.80589 39.38575 -21.07786
v 59.30573 45.13603 -25.30266
v 56.69962 40.80350 -38.72256
v 66.42122 35.63525 -36.41656
v 68.90799 35.73327 -0.65442
v 60.11470 41.09906 -5.33097
v 85.42959 28.66159 -12.12379
v 77.27533 33.61037 -16.87537
v 75.67888 30.89375 -33.22870
v 84.33995 26.24109 -28.42470
v 98.69682 19.22104 0.73487
v 98.54459 18.27103 -6.25211
v 101.53295 16.74505 5.02255
v 98.59894 18.40953 7.57003
v 57.44014 36.83055 -25.18046
v 59.69231 39.22896 -6.45505
v 68.38992 33.83327 -2.03358
v 66.44215 31.70742 -20.76748
v 98.27463 17.18473 0.53640
v 98.48817 17.92276 7.25127
v 101.39033 16.35669 4.92193
v 75.45483 29.58476 -32.17319
v 66.16521 33.76560 -35.39793
v 101.39033 16.35669 4.92193
v 50.64663 48.21523 -25.35454
v 48.90934 46.91941 -35.12498
v 47.55472 44.61369 -36.23032
v 56.34114 39.20155 -38.00492
v 56.34114 39.20155 -38.00492
v 47.55472 44.61369 -36.23032
v 49.17341 41.71342 -25.32085
v 93.54185 21.22170 -16.47207
v 94.30582 23.06476 -4.15948
v 93.35858 20.17331 -16.22298
v 98.43998 17.77952 -6.52757
v 51.17686 41.82208 -8.32272
v 85.31580 26.03672 6.77528
v 77.27812 30.63622 3.49526
v 85.05508 24.85649 5.83945
v 76.91320 29.23450 2.18638
v 75.78607 27.10256 -16.04249
v 84.35846 23.02106 -10.71380
v 51.56756 44.13950 -7.89068
v 75.45483 29.58476 -32.17319
v 66.16521 33.76560 -35.39793
v 98.43998 17.77952 -6.52757
v 93.35858 20.17331 -16.22298
v 93.21998 18.67654 -3.75147
v 84.15968 25.00872 -27.29926
v 93.90040 21.17834 8.07022
v 93.67435 20.26725 7.43875
v 84.15968 25.00872 -27.29926
v 51.56756 44.13950 -7.89068
v 51.81704 50.69050 -9.38357
v 47.55472 44.61369 -36.23032
v 37.66172 44.69767 -44.18997
v 41.20270 50.87037 -46.85280
v -0.00755 53.86768 178.79840
v 44.72342 42.21566 91.30400
v 39.03208 39.36831 106.06095
v 44.98053 35.99155 107.29700
v 47.11929 40.46180 93.11221
v 42.64418 46.74156 107.42480
v 45.61982 44.77280 92.91548
v 47.04967 41.91016 94.52724
v 45.27312 42.66675 108.09167
v 37.20902 45.62186 117.90755
v 43.54812 39.55072 120.80506
v 54.35690 29.75725 110.89113
v 56.19299 33.44266 99.98283
v 56.12394 34.80519 101.30054
v 54.62315 35.93898 112.07927
v 62.45697 24.22914 115.46362
v 68.37029 20.13461 119.35942
v 69.35494 22.81659 114.94454
v 63.98218 27.58084 107.16247
v 61.18510 26.73422 124.04810
v 67.73636 22.37451 124.69591
v 62.72469 29.95641 116.51321
v 63.94745 28.86063 108.10282
v 69.37840 24.04977 115.26468
v 68.68299 25.03702 120.17203
v 61.35662 28.09006 123.84982
v 67.83047 23.61421 124.74567
v 35.86354 44.15465 118.83796
v 37.20902 45.62186 117.90755
v 43.54812 39.55072 120.80506
v 43.30579 38.18511 122.07954
v 53.32323 33.42542 121.92454
v 53.14066 31.94462 122.52440
v 61.35662 28.09006 123.84982
v 67.83047 23.61421 124.74567
v 71.38199 20.39692 120.65990
v 71.24728 21.72883 120.72378
v 71.24728 21.72883 120.72378
v 53.32323 33.42542 121.92454
v -0.00755 64.88678 -62.50612
v -27.80955 57.29365 -61.31085
v -19.92673 56.92953 -82.17345
v -20.00213 70.78242 -82.05791
v -33.28785 65.59816 -59.40911
v -9.01141 82.35672 -100.63433
v -9.42875 94.44410 -84.89462
v -18.36737 93.17976 -84.74483
v -18.17799 83.11142 -94.61295
v -25.78498 84.18198 -77.41350
v -24.11960 82.83543 -80.92074
v -20.85475 87.57171 -85.09311
v -19.52198 83.00866 -89.81284
v -20.51330 80.60242 -90.70840
v -21.92864 76.40186 -93.27210
v -23.79504 80.56252 -82.93053
v -27.13184 76.59401 -81.22975
v -13.68029 67.27071 -107.47739
v -6.44869 74.25018 -109.05736
v -21.95300 105.96533 -1.53646
v -23.78269 102.78164 34.27142
v -41.94532 89.93042 34.26057
v -39.81266 94.38494 -1.53555
v -23.47662 84.11984 -84.79671
v -16.77016 83.88042 -93.87431
v -16.65750 92.82667 -83.40977
v -20.11427 77.45589 -92.32770
v -24.39802 77.22859 -79.37945
v -23.53232 83.70132 -74.85330
v -30.90115 56.05752 -69.50478
v -6.31856 55.97129 -102.84771
v -7.95495 59.51395 -103.00058
v -33.14569 63.16465 -71.58463
v -18.83930 48.74861 -70.30105
v -19.06728 48.31693 -61.88794
v -23.81429 67.99961 -91.49232
v -33.91740 70.95793 -69.18192
v -23.45089 63.91764 -90.60966
v -49.50962 74.65514 -1.52729
v -51.67827 68.05013 34.26046
v -53.37142 52.97458 34.26046
v -52.97414 56.62529 -1.52990
v -26.86957 23.71260 34.26036
v -23.71628 29.14755 75.13975
v -15.56815 84.71215 121.31036
v -14.09621 79.87302 135.11942
v -21.83464 70.81516 135.11928
v -24.67079 75.21935 121.31281
v -45.64307 51.95528 75.18089
v -40.78156 39.50373 75.19283
v -47.26414 38.29478 34.26036
v -4.74439 59.54683 -107.67783
v -3.88159 57.63649 -107.76335
v -2.86361 59.59084 -109.02981
v -2.98163 58.35591 -108.72649
v -25.82321 88.05796 -70.38159
v -36.47478 63.60057 -62.69003
v -28.21975 86.30132 -62.72636
v -27.42859 24.83360 -1.53438
v -29.42197 52.86044 -62.13659
v -35.89398 73.20354 -62.31491
v -38.73717 75.38075 -55.05819
v -41.47365 62.92547 -55.03745
v -30.52596 88.39269 -55.03901
v -43.18562 76.21802 -38.25813
v -47.66544 61.50613 -38.28058
v -34.41135 90.11845 -38.23928
v -35.43126 84.39818 75.16205
v -20.31808 96.26215 75.14182
v -50.08591 49.11016 -1.54741
v -47.19754 41.57843 -1.56492
v -43.34457 66.07505 75.18736
v -28.99838 78.27824 108.17496
v -35.15753 66.20157 108.17681
v -37.23786 56.28750 108.18620
v -24.67079 75.21935 121.31281
v -28.90744 64.35687 121.34071
v -29.86224 53.49461 121.39967
v -23.32657 60.61686 134.98453
v -28.90744 64.35687 121.34071
v -16.14444 48.78939 134.81619
v -29.86224 53.49461 121.39967
v -4.42058 65.77927 -118.75302
v -6.51900 65.86611 -117.16386
v -6.34367 64.16726 -116.73714
v -4.16039 64.15992 -118.62469
v -12.16779 64.25340 -106.46136
v -18.29801 63.90269 -97.87025
v -39.04719 39.25165 106.06096
v -35.87865 44.15464 118.83795
v -31.63645 46.97155 117.84357
v -32.92766 38.16106 104.58486
v -17.99129 36.89581 106.58225
v -41.59453 42.55122 85.77585
v -44.73853 42.17823 91.30400
v -37.22413 45.62185 117.90755
v -34.29690 49.93613 116.50327
v -17.16894 42.52696 121.23753
v -27.03135 47.51092 122.16197
v -42.65929 46.74156 107.42479
v -40.62555 51.91532 107.61414
v -44.60284 48.91872 88.12467
v -45.63492 44.76445 92.91548
v -17.16894 42.52696 121.23753
v -27.03135 47.51092 122.16197
v -12.16779 64.25340 -106.46136
v -6.34367 64.16726 -116.73714
v -4.16039 64.15992 -118.62469
v -33.14569 63.16465 -71.58463
v -7.95495 59.51395 -103.00058
v -2.86361 59.59084 -109.02981
v -4.74439 59.54683 -107.67783
v -23.45089 63.91764 -90.60966
v -18.29801 63.90269 -97.87025
v -35.13730 50.69154 -55.08939
v -22.96168 43.07106 -54.65068
v -7.79126 55.73744 192.38361
v -8.99321 55.75695 178.79843
v -14.87519 62.13876 178.82776
v -12.99696 61.58670 192.40723
v -14.70851 68.57230 178.79990
v -13.09147 67.26775 192.43320
v -11.21810 52.58972 160.98480
v -17.31701 60.85209 161.00592
v -16.87924 68.99435 161.02377
v -8.72358 56.65627 214.47795
v -5.25117 52.64131 213.03708
v -7.58110 60.88282 215.63652
v -6.08282 72.11774 192.53098
v -4.74412 63.44981 215.75858
v -4.49792 56.43537 224.73317
v -6.01068 52.85587 222.74709
v -3.69875 50.32011 220.88849
v -2.11775 46.20034 233.72255
v -1.72536 45.95105 231.96756
v -1.81653 48.26425 233.18420
v -1.39590 74.42168 217.42325
v -1.33729 78.20317 210.35959
v -10.90337 75.89233 161.03575
v -8.56442 73.60740 178.61108
v -14.53346 100.08414 -62.29124
v -12.96237 99.43784 -68.23521
v -15.56815 84.71215 121.31036
v -16.20974 88.44248 108.17466
v -19.02521 105.75876 -38.24734
v -16.64087 102.82188 -55.08268
v -0.00755 107.51936 -55.12226
v -3.38645 67.96096 -118.29198
v -2.30616 66.22153 -120.22858
v -2.14434 64.10889 -120.35467
v -2.14434 64.10889 -120.35467
v -0.00755 37.74101 -55.04690
v -24.80346 34.62374 -39.35301
v -41.54303 39.77098 -30.61096
v -44.81631 38.06535 -8.18039
v -49.18852 41.71342 -25.32085
v -51.19197 41.82208 -8.32272
v -50.13417 53.88499 -29.38147
v -50.66174 48.21523 -25.35454
v -48.92445 46.91941 -35.12498
v -46.45407 53.48476 -42.23525
v -68.82101 39.38575 -21.07786
v -66.43633 35.63526 -36.41656
v -56.71474 40.80350 -38.72256
v -59.32085 45.13603 -25.30266
v -60.12981 41.09906 -5.33097
v -68.92310 35.73327 -0.65443
v -85.44469 28.66159 -12.12379
v -84.35506 26.24109 -28.42470
v -75.69399 30.89375 -33.22869
v -77.29044 33.61037 -16.87538
v -98.71191 19.22105 0.73487
v -101.54805 16.74506 5.02254
v -98.55969 18.27104 -6.25212
v -98.61402 18.40954 7.57002
v -57.45525 36.83055 -25.18046
v -66.45726 31.70742 -20.76748
v -68.40504 33.83326 -2.03358
v -59.70742 39.22896 -6.45505
v -98.28972 17.18473 0.53639
v -101.40543 16.35670 4.92192
v -98.50327 17.92277 7.25127
v -75.46992 29.58476 -32.17319
v -66.18031 33.76559 -35.39792
v -101.40543 16.35670 4.92192
v -50.66174 48.21523 -25.35454
v -48.92445 46.91941 -35.12498
v -56.35625 39.20155 -38.00492
v -47.56982 44.61369 -36.23032
v -56.35625 39.20155 -38.00492
v -49.18852 41.71342 -25.32085
v -47.56982 44.61369 -36.23032
v -93.55695 21.22171 -16.47207
v -94.32092 23.06477 -4.15949
v -98.45507 17.77952 -6.52758
v -93.37369 20.17331 -16.22299
v -51.19197 41.82208 -8.32272
v -85.33090 26.03672 6.77527
v -77.29324 30.63622 3.49525
v -76.92831 29.23450 2.18638
v -85.07019 24.85649 5.83945
v -75.80119 27.10255 -16.04250
v -84.37357 23.02107 -10.71380
v -51.58267 44.13950 -7.89068
v -66.18031 33.76559 -35.39792
v -75.46992 29.58476 -32.17319
v -93.23508 18.67654 -3.75148
v -93.37369 20.17331 -16.22299
v -98.45507 17.77952 -6.52758
v -84.17479 25.00873 -27.29926
v -93.91550 21.17835 8.07021
v -93.68945 20.26726 7.43875
v -84.17479 25.00873 -27.29926
v -51.83214 50.69050 -9.38358
v -51.58267 44.13950 -7.89068
v -47.56982 44.61369 -36.23032
v -37.67683 44.69767 -44.18996
v -41.21782 50.87036 -46.85280
v -44.73853 42.17823 91.30400
v -47.13440 40.42385 93.11221
v -44.99564 35.85537 107.29699
v -39.04719 39.25165 106.06096
v -42.65929 46.74156 107.42479
v -45.28822 42.66675 108.09166
v -47.06478 41.87273 94.52724
v -45.63492 44.76445 92.91548
v -37.22413 45.62185 117.90755
v -43.56322 39.55071 120.80505
v -56.20808 33.44265 99.98283
v -54.37200 29.75725 110.89111
v -54.63826 35.93898 112.07927
v -56.13904 34.80519 101.30053
v -62.47207 24.22913 115.46362
v -63.99728 27.58084 107.16248
v -69.37005 22.81659 114.94453
v -68.38540 20.13461 119.35941
v -67.75146 22.37451 124.69591
v -61.20021 26.73421 124.04810
v -62.73979 29.95642 116.51320
v -68.69809 25.03701 120.17202
v -69.39351 24.04977 115.26466
v -63.96255 28.86063 108.10281
v -61.37173 28.09006 123.84982
v -67.84557 23.61420 124.74566
v -35.87865 44.15464 118.83795
v -43.32090 38.18511 122.07953
v -43.56322 39.55071 120.80505
v -37.22413 45.62185 117.90755
v -53.15576 31.94461 122.52439
v -53.33833 33.42541 121.92453
v -67.84557 23.61420 124.74566
v -61.37173 28.09006 123.84982
v -71.39709 20.39692 120.65989
v -71.26237 21.72882 120.72377
v -71.26237 21.72882 120.72377
v -53.33833 33.42541 121.92453
vt 0.660200 0.354100
vt 0.683200 0.342400
vt 0.765000 0.471500
vt 0.678100 0.499700
vt 0.161088 0.865288
vt 0.186300 0.843850
vt 0.213650 0.860660
vt 0.205546 0.886959
vt 0.194539 0.909239
vt 0.143600 0.881800
vt 0.214300 0.850400
vt 0.221200 0.844000
vt 0.235650 0.841450
vt 0.208400 0.846300
vt 0.197060 0.831860
vt 0.207600 0.842800
vt 0.218400 0.841300
vt 0.231000 0.831250
vt 0.112100 0.838650
vt 0.121820 0.815740
vt 0.103750 0.855000
vt 0.527600 0.922900
vt 0.531900 0.860200
vt 0.667100 0.850700
vt 0.672323 0.913620
vt 0.672600 0.980700
vt 0.521762 0.982025
vt 0.070290 0.927310
vt 0.070200 0.971400
vt 0.029200 0.935600
vt 0.032100 0.911900
vt 0.096500 0.893600
vt 0.112200 0.913800
vt 0.269700 0.748700
vt 0.268200 0.775100
vt 0.103000 0.745200
vt 0.102930 0.735100
vt 0.262560 0.705060
vt 0.288979 0.682761
vt 0.239500 0.647400
vt 0.280808 0.626966
vt 0.195300 0.807650
vt 0.188700 0.785600
vt 0.272938 0.806635
vt 0.539300 0.802100
vt 0.537254 0.758892
vt 0.651469 0.744610
vt 0.660271 0.791520
vt 0.676800 0.625400
vt 0.683600 0.550600
vt 0.846900 0.583500
vt 0.832600 0.651350
vt 0.541300 0.291700
vt 0.568400 0.332000
vt 0.463800 0.391000
vt 0.442200 0.354800
vt 0.418100 0.317800
vt 0.510600 0.249300
vt 0.649120 0.695120
vt 0.824400 0.709400
vt 0.821400 0.746400
vt 0.084400 0.740400
vt 0.085300 0.735500
vt 0.079450 0.737050
vt 0.081233 0.734733
vt 0.256334 0.852339
vt 0.290293 0.764882
vt 0.288881 0.853267
vt 0.534900 0.549300
vt 0.545060 0.628200
vt 0.295697 0.729600
vt 0.095400 0.716500
vt 0.292767 0.807972
vt 0.350628 0.759183
vt 0.342843 0.806423
vt 0.335188 0.853993
vt 0.430009 0.766083
vt 0.424609 0.815383
vt 0.421450 0.861081
vt 0.080300 0.725900
vt 0.820400 0.835500
vt 0.825800 0.888000
vt 0.836200 0.948400
vt 0.549200 0.726000
vt 0.549800 0.700400
vt 0.820200 0.784700
vt 0.889500 0.786300
vt 0.890900 0.825700
vt 0.893200 0.758200
vt 0.947900 0.781900
vt 0.947800 0.817700
vt 0.951600 0.748800
vt 0.585300 0.365500
vt 0.478200 0.421400
vt 0.596600 0.398200
vt 0.491133 0.467033
vt 0.074100 0.731400
vt 0.076900 0.728850
vt 0.070433 0.814367
vt 0.067700 0.811100
vt 0.074700 0.807700
vt 0.076800 0.812700
vt 0.116150 0.799450
vt 0.157000 0.791700
vt 0.897700 0.716700
vt 0.898300 0.701600
vt 0.940100 0.720380
vt 0.931800 0.724000
vt 0.901633 0.668700
vt 0.852040 0.709440
vt 0.867600 0.720500
vt 0.929500 0.725300
vt 0.936200 0.734300
vt 0.961200 0.680950
vt 0.956800 0.724400
vt 0.896000 0.741300
vt 0.898300 0.728800
vt 0.853200 0.732400
vt 0.870900 0.724400
vt 0.916400 0.603300
vt 0.975300 0.623100
vt 0.610200 0.460150
vt 0.614600 0.523200
vt 0.496300 0.523900
vt 0.601500 0.419100
vt 0.824550 0.374200
vt 0.785700 0.358100
vt 0.902917 0.370383
vt 0.780900 0.352300
vt 0.818900 0.440000
vt 0.791700 0.373800
vt 0.961333 0.433567
vt 0.766450 0.368350
vt 0.772700 0.366900
vt 0.891500 0.403600
vt 0.862700 0.390500
vt 0.759200 0.373100
vt 0.381542 0.715199
vt 0.378099 0.658076
vt 0.230950 0.548800
vt 0.220450 0.519850
vt 0.294100 0.489500
vt 0.303400 0.521950
vt 0.210400 0.496300
vt 0.284900 0.465200
vt 0.389400 0.536200
vt 0.382600 0.499550
vt 0.361700 0.436300
vt 0.372200 0.462300
vt 0.167300 0.587750
vt 0.147200 0.558100
vt 0.239150 0.571900
vt 0.178200 0.603900
vt 0.132200 0.538200
vt 0.122100 0.524200
vt 0.189333 0.466233
vt 0.094900 0.622300
vt 0.081650 0.601350
vt 0.083089 0.569989
vt 0.112200 0.642625
vt 0.120350 0.653050
vt 0.041400 0.705900
vt 0.033800 0.705600
vt 0.039900 0.714000
vt 0.026800 0.717200
vt 0.026100 0.699900
vt 0.032500 0.696100
vt 0.092000 0.478100
vt 0.084200 0.473500
vt 0.113700 0.452500
vt 0.112100 0.444500
vt 0.177450 0.437950
vt 0.345600 0.404500
vt 0.271200 0.435400
vt 0.257800 0.406900
vt 0.328400 0.372600
vt 0.267125 0.942494
vt 0.240275 0.929639
vt 0.248514 0.901441
vt 0.276329 0.908020
vt 0.965000 0.911100
vt 0.908800 0.927400
vt 0.897700 0.875100
vt 0.954300 0.863100
vt 0.401861 0.966739
vt 0.322556 0.955629
vt 0.328670 0.915653
vt 0.413809 0.924410
vt 0.061850 0.822550
vt 0.066300 0.818500
vt 0.073700 0.822000
vt 0.068700 0.829900
vt 0.058100 0.817900
vt 0.062500 0.814300
vt 0.777900 0.347000
vt 0.777100 0.341200
vt 0.361578 0.588187
vt 0.466300 0.638533
vt 0.453900 0.561600
vt 0.477800 0.682200
vt 0.536300 0.686500
vt 0.527200 0.708500
vt 0.484800 0.702400
vt 0.481800 0.742300
vt 0.445700 0.733200
vt 0.461700 0.721200
vt 0.485800 0.728900
vt 0.825800 0.237100
vt 0.903800 0.239000
vt 0.911700 0.291500
vt 0.835600 0.299600
vt 0.816100 0.159700
vt 0.892412 0.160929
vt 0.670300 0.221400
vt 0.748800 0.232500
vt 0.755500 0.295100
vt 0.674000 0.276100
vt 0.501700 0.177600
vt 0.505300 0.198600
vt 0.470100 0.174700
vt 0.496700 0.155200
vt 0.909100 0.087100
vt 0.894291 0.155000
vt 0.817800 0.153400
vt 0.831200 0.085400
vt 0.502900 0.129600
vt 0.496600 0.151500
vt 0.467900 0.129400
vt 0.754700 0.301100
vt 0.836200 0.306100
vt 0.467800 0.175600
vt 0.969300 0.241800
vt 0.976100 0.286900
vt 0.979700 0.302700
vt 0.913300 0.296400
vt 0.916100 0.037000
vt 0.984100 0.036900
vt 0.972800 0.083100
vt 0.587000 0.237500
vt 0.582400 0.197200
vt 0.585400 0.241000
vt 0.504800 0.201700
vt 0.958251 0.155642
vt 0.667000 0.157900
vt 0.744000 0.158700
vt 0.668000 0.152900
vt 0.745200 0.152600
vt 0.753200 0.089100
vt 0.674000 0.099400
vt 0.954964 0.169364
vt 0.757900 0.028500
vt 0.839100 0.026600
vt 0.507200 0.109000
vt 0.590000 0.077200
vt 0.586100 0.116600
vt 0.671600 0.281200
vt 0.578700 0.156300
vt 0.579700 0.152400
vt 0.676200 0.045200
vt 0.525267 0.719633
vt 0.532400 0.733200
vt 0.456300 0.712100
vt 0.427800 0.695800
vt 0.417000 0.714200
vt 0.310500 0.551200
vt 0.017200 0.247900
vt 0.022600 0.175600
vt 0.116800 0.174800
vt 0.115500 0.241300
vt 0.035500 0.320600
vt 0.021000 0.261000
vt 0.116000 0.249200
vt 0.126600 0.309100
vt 0.049500 0.388500
vt 0.145700 0.366500
vt 0.215300 0.180400
vt 0.215500 0.233200
vt 0.216400 0.240700
vt 0.223800 0.288000
vt 0.312800 0.181400
vt 0.391900 0.187100
vt 0.394500 0.217200
vt 0.312200 0.224900
vt 0.311600 0.136800
vt 0.395500 0.157300
vt 0.319100 0.270100
vt 0.312900 0.231400
vt 0.395800 0.223500
vt 0.399100 0.251900
vt 0.324700 0.308000
vt 0.402700 0.278000
vt 0.026200 0.094800
vt 0.028500 0.083500
vt 0.127600 0.098000
vt 0.126600 0.107300
vt 0.220600 0.118500
vt 0.219200 0.125400
vt 0.313100 0.130200
vt 0.397700 0.151600
vt 0.430500 0.185900
vt 0.437900 0.250500
vt 0.435400 0.186000
vt 0.236700 0.334700
vt 0.924950 0.415300
vt 0.660200 0.354100
vt 0.678100 0.499700
vt 0.765000 0.471500
vt 0.683200 0.342400
vt 0.161088 0.865288
vt 0.205546 0.886959
vt 0.213650 0.860660
vt 0.186300 0.843850
vt 0.235650 0.841450
vt 0.221200 0.844000
vt 0.214300 0.850400
vt 0.208400 0.846300
vt 0.207600 0.842800
vt 0.197060 0.831860
vt 0.218400 0.841300
vt 0.231000 0.831250
vt 0.121820 0.815740
vt 0.112100 0.838650
vt 0.527600 0.922900
vt 0.672323 0.913620
vt 0.667100 0.850700
vt 0.531900 0.860200
vt 0.070290 0.927310
vt 0.029200 0.935600
vt 0.070200 0.971400
vt 0.032100 0.911900
vt 0.096500 0.893600
vt 0.112200 0.913800
vt 0.269700 0.748700
vt 0.102930 0.735100
vt 0.103000 0.745200
vt 0.268200 0.775100
vt 0.262560 0.705060
vt 0.288979 0.682761
vt 0.195300 0.807650
vt 0.272938 0.806635
vt 0.188700 0.785600
vt 0.539300 0.802100
vt 0.660271 0.791520
vt 0.651469 0.744610
vt 0.537254 0.758892
vt 0.676800 0.625400
vt 0.832600 0.651350
vt 0.541300 0.291700
vt 0.442200 0.354800
vt 0.463800 0.391000
vt 0.568400 0.332000
vt 0.821400 0.746400
vt 0.824400 0.709400
vt 0.649120 0.695120
vt 0.084400 0.740400
vt 0.085300 0.735500
vt 0.079450 0.737050
vt 0.081233 0.734733
vt 0.256334 0.852339
vt 0.290293 0.764882
vt 0.288881 0.853267
vt 0.545060 0.628200
vt 0.295697 0.729600
vt 0.292767 0.807972
vt 0.342800 0.806383
vt 0.350458 0.759361
vt 0.335193 0.853971
vt 0.424609 0.815383
vt 0.430009 0.766083
vt 0.421450 0.861081
vt 0.820400 0.835500
vt 0.825800 0.888000
vt 0.549200 0.726000
vt 0.549800 0.700400
vt 0.820200 0.784700
vt 0.890900 0.825700
vt 0.889500 0.786300
vt 0.893200 0.758200
vt 0.947800 0.817700
vt 0.947900 0.781900
vt 0.951600 0.748800
vt 0.478200 0.421400
vt 0.585300 0.365500
vt 0.491133 0.467033
vt 0.596600 0.398200
vt 0.070433 0.814367
vt 0.076800 0.812700
vt 0.074700 0.807700
vt 0.067700 0.811100
vt 0.116150 0.799450
vt 0.157000 0.791700
vt 0.897700 0.716700
vt 0.931800 0.724000
vt 0.940100 0.720380
vt 0.898300 0.701600
vt 0.901633 0.668700
vt 0.852040 0.709440
vt 0.867600 0.720500
vt 0.929500 0.725300
vt 0.936200 0.734300
vt 0.961200 0.680950
vt 0.956800 0.724400
vt 0.898300 0.728800
vt 0.896000 0.741300
vt 0.853200 0.732400
vt 0.870900 0.724400
vt 0.610200 0.460150
vt 0.601500 0.419100
vt 0.824550 0.374200
vt 0.785700 0.358100
vt 0.780900 0.352300
vt 0.961333 0.433567
vt 0.791700 0.373800
vt 0.766450 0.368350
vt 0.772700 0.366900
vt 0.891500 0.403600
vt 0.862700 0.390500
vt 0.381536 0.715148
vt 0.378498 0.658414
vt 0.230950 0.548800
vt 0.303400 0.521950
vt 0.294100 0.489500
vt 0.220450 0.519850
vt 0.284900 0.465200
vt 0.210400 0.496300
vt 0.382600 0.499550
vt 0.372200 0.462300
vt 0.361700 0.436300
vt 0.147200 0.558100
vt 0.167300 0.587750
vt 0.132200 0.538200
vt 0.189333 0.466233
vt 0.122100 0.524200
vt 0.081650 0.601350
vt 0.094900 0.622300
vt 0.112200 0.642625
vt 0.033800 0.705600
vt 0.041400 0.705900
vt 0.032500 0.696100
vt 0.092000 0.478100
vt 0.113700 0.452500
vt 0.345600 0.404500
vt 0.271200 0.435400
vt 0.276329 0.908020
vt 0.248514 0.901441
vt 0.954300 0.863100
vt 0.897700 0.875100
vt 0.413809 0.924410
vt 0.328723 0.915559
vt 0.322427 0.956353
vt 0.073700 0.822000
vt 0.066300 0.818500
vt 0.062500 0.814300
vt 0.777900 0.347000
vt 0.361863 0.589688
vt 0.466300 0.638533
vt 0.477800 0.682200
vt 0.536300 0.686500
vt 0.484800 0.702400
vt 0.527200 0.708500
vt 0.481800 0.742300
vt 0.485800 0.728900
vt 0.461700 0.721200
vt 0.445700 0.733200
vt 0.825800 0.237100
vt 0.835600 0.299600
vt 0.911700 0.291500
vt 0.903800 0.239000
vt 0.892412 0.160929
vt 0.816100 0.159700
vt 0.670300 0.221400
vt 0.674000 0.276100
vt 0.755500 0.295100
vt 0.748800 0.232500
vt 0.501700 0.177600
vt 0.470100 0.174700
vt 0.505300 0.198600
vt 0.496700 0.155200
vt 0.909100 0.087100
vt 0.831200 0.085400
vt 0.817800 0.153400
vt 0.894291 0.155000
vt 0.502900 0.129600
vt 0.467900 0.129400
vt 0.496600 0.151500
vt 0.754700 0.301100
vt 0.836200 0.306100
vt 0.467800 0.175600
vt 0.969300 0.241800
vt 0.976100 0.286900
vt 0.913300 0.296400
vt 0.979700 0.302700
vt 0.916100 0.037000
vt 0.972800 0.083100
vt 0.984100 0.036900
vt 0.587000 0.237500
vt 0.582400 0.197200
vt 0.504800 0.201700
vt 0.585400 0.241000
vt 0.958251 0.155642
vt 0.667000 0.157900
vt 0.744000 0.158700
vt 0.745200 0.152600
vt 0.668000 0.152900
vt 0.753200 0.089100
vt 0.674000 0.099400
vt 0.954964 0.169364
vt 0.839100 0.026600
vt 0.757900 0.028500
vt 0.586100 0.116600
vt 0.590000 0.077200
vt 0.507200 0.109000
vt 0.671600 0.281200
vt 0.578700 0.156300
vt 0.579700 0.152400
vt 0.676200 0.045200
vt 0.532400 0.733200
vt 0.525267 0.719633
vt 0.456300 0.712100
vt 0.427800 0.695800
vt 0.417000 0.714200
vt 0.017200 0.247900
vt 0.115500 0.241300
vt 0.116800 0.174800
vt 0.022600 0.175600
vt 0.035500 0.320600
vt 0.126600 0.309100
vt 0.116000 0.249200
vt 0.021000 0.261000
vt 0.049500 0.388500
vt 0.145700 0.366500
vt 0.215500 0.233200
vt 0.215300 0.180400
vt 0.223800 0.288000
vt 0.216400 0.240700
vt 0.312800 0.181400
vt 0.312200 0.224900
vt 0.394500 0.217200
vt 0.391900 0.187100
vt 0.395500 0.157300
vt 0.311600 0.136800
vt 0.319100 0.270100
vt 0.399100 0.251900
vt 0.395800 0.223500
vt 0.312900 0.231400
vt 0.324700 0.308000
vt 0.402700 0.278000
vt 0.026200 0.094800
vt 0.126600 0.107300
vt 0.127600 0.098000
vt 0.028500 0.083500
vt 0.219200 0.125400
vt 0.220600 0.118500
vt 0.397700 0.151600
vt 0.313100 0.130200
vt 0.430500 0.185900
vt 0.437900 0.250500
vt 0.435400 0.186000
vt 0.236700 0.334700
vn 0.86927 -0.19533 -0.45411
vn 0.75801 -0.37839 -0.53126
vn 0.86927 -0.19533 -0.45411
vn 0.93546 -0.00214 -0.35342
vn 0.22479 0.72005 -0.65651
vn 0.74586 0.42758 -0.51076
vn 0.65602 0.64369 -0.39408
vn 0.23940 0.90737 -0.34550
vn -0.00000 0.88124 -0.47268
vn 0.00000 0.76621 -0.64260
vn 0.91063 0.27106 -0.31189
vn 0.81140 0.36873 -0.45351
vn 0.84703 0.37879 -0.37289
vn 0.93919 0.22648 -0.25812
vn 0.84568 0.32688 -0.42186
vn 0.84889 0.45419 -0.27035
vn 0.78335 0.46159 -0.41629
vn 0.84051 0.32172 -0.43594
vn 0.42031 0.60888 -0.67276
vn 0.78301 -0.01525 -0.62182
vn 0.00000 0.75606 -0.65451
vn 0.42019 0.90698 0.02881
vn 0.78491 0.61598 -0.06704
vn 0.72751 0.67797 0.10530
vn 0.47102 0.87182 0.13440
vn 0.00000 0.99270 0.12065
vn -0.00000 0.99999 -0.00412
vn 0.89987 0.32023 -0.29611
vn 0.74416 0.62173 -0.24430
vn 0.72054 0.43038 -0.54368
vn 0.88483 0.07350 -0.46008
vn 0.98707 0.00606 -0.16018
vn 0.92205 0.38690 0.01112
vn 0.74282 -0.60358 -0.28968
vn 0.81239 -0.19315 -0.55020
vn 0.74813 0.32724 -0.57724
vn 0.55533 -0.68969 -0.46470
vn 0.41318 -0.89179 -0.18438
vn 0.28758 -0.90328 -0.31841
vn -0.00000 -0.98857 -0.15078
vn -0.00000 -0.87840 -0.47792
vn 0.88640 0.00567 -0.46288
vn 0.41922 -0.85008 -0.31876
vn 0.91117 0.24048 -0.33457
vn 0.95908 0.27662 -0.06036
vn 0.99659 -0.06480 -0.05115
vn 0.98958 -0.12349 0.07403
vn 0.94973 0.29224 0.11229
vn 0.39090 -0.91931 0.04537
vn -0.00000 -0.99776 0.06682
vn 0.00000 -0.97407 0.22625
vn 0.41476 -0.88837 0.19693
vn 0.48624 0.81685 0.31037
vn 0.76100 0.56101 0.32579
vn 0.87728 0.38324 0.28899
vn 0.53281 0.81298 0.23490
vn -0.00000 0.96101 0.27650
vn -0.00000 0.95298 0.30302
vn 0.80553 -0.59164 0.03294
vn 0.81691 -0.56449 0.11835
vn 0.98615 0.02180 0.16439
vn 0.70751 0.38909 -0.58994
vn 0.59222 -0.42417 -0.68510
vn 0.49521 0.48810 -0.71869
vn 0.45503 -0.29493 -0.84022
vn 0.72426 0.67470 -0.14220
vn 0.88312 -0.31348 -0.34903
vn 0.76546 0.58315 -0.27204
vn -0.00000 -0.99320 -0.11646
vn 0.41905 -0.90070 -0.11460
vn 0.55277 -0.63721 -0.53703
vn -0.00000 -0.94849 -0.31679
vn 0.86047 0.29567 -0.41492
vn 0.84609 -0.14827 -0.51201
vn 0.86982 0.37151 -0.32464
vn 0.73889 0.57515 -0.35106
vn 0.96448 0.15335 -0.21510
vn 0.90808 0.37733 -0.18167
vn 0.76586 0.60485 -0.21820
vn 0.00000 -0.75482 -0.65594
vn 0.78335 0.58110 0.22064
vn 0.45853 0.86215 0.21552
vn 0.00000 0.96973 0.24417
vn 0.93236 -0.35805 0.05008
vn 0.80743 -0.55111 0.21057
vn 0.94067 0.25944 0.21869
vn 0.89004 0.28721 0.35404
vn 0.73824 0.58850 0.32964
vn 0.87593 0.34171 0.34057
vn 0.89144 0.13000 0.43410
vn 0.76100 0.56101 0.32579
vn 0.78992 0.02617 0.61265
vn 0.89144 0.13000 0.43410
vn 0.94094 -0.20074 0.27265
vn 0.78992 0.02617 0.61265
vn 0.60714 -0.68603 0.40092
vn -0.00000 0.35963 -0.93310
vn -0.00000 -0.34092 -0.94009
vn 0.61657 -0.07850 -0.78338
vn 0.34226 -0.85798 -0.38306
vn 0.46579 -0.75332 -0.46428
vn 0.72245 0.04523 -0.68994
vn 0.45182 -0.85385 -0.25845
vn 0.16378 -0.97392 -0.15705
vn -0.27862 -0.95907 0.05065
vn 0.12151 -0.96967 0.21207
vn 0.19025 -0.59719 0.77921
vn -0.29450 0.01657 0.95551
vn 0.20832 -0.93471 0.28796
vn 0.59905 -0.79133 -0.12220
vn 0.48441 -0.58581 -0.64975
vn 0.47070 0.54856 0.69103
vn 0.63228 0.22421 0.74159
vn 0.22916 -0.88973 0.39480
vn 0.58523 -0.50069 0.63782
vn 0.79385 0.47918 0.37441
vn 0.86435 0.44722 0.22998
vn 0.99340 0.11236 0.02303
vn 0.94986 0.15424 -0.27200
vn 0.00000 -0.93841 0.34552
vn 0.00000 -0.93472 0.35539
vn 0.22916 -0.88973 0.39480
vn 0.00000 -0.93472 0.35539
vn 0.00000 -0.94708 0.32101
vn 0.58523 -0.50069 0.63782
vn 0.45182 -0.85385 -0.25845
vn 0.46579 -0.75332 -0.46428
vn 0.00427 -0.98598 0.16681
vn 0.34226 -0.85798 -0.38306
vn -0.00000 0.99947 0.03244
vn 0.74813 0.32724 -0.57724
vn 0.81239 -0.19315 -0.55020
vn 0.49521 0.48810 -0.71869
vn 0.70751 0.38909 -0.58994
vn 0.41922 -0.85008 -0.31876
vn 0.16378 -0.97392 -0.15705
vn -0.00000 0.35963 -0.93310
vn 0.60548 -0.58211 -0.54271
vn 0.34775 -0.75109 -0.56118
vn 0.45713 -0.88933 -0.01104
vn 0.93039 -0.35514 0.09085
vn 0.91445 -0.38098 0.13655
vn 0.43475 -0.88893 0.14420
vn 0.85741 0.45996 0.23086
vn 0.90330 0.40282 0.14762
vn -0.00000 -0.98183 0.18979
vn 0.57498 -0.79225 0.20432
vn 0.91702 0.36362 0.16389
vn 0.94661 -0.25354 0.19909
vn 0.48293 -0.86730 -0.12068
vn 0.94342 -0.30244 0.13595
vn -0.00000 -0.99883 -0.04843
vn 0.00000 -0.98714 -0.15988
vn 0.80176 0.45780 0.38419
vn 0.78640 0.48689 0.38015
vn 0.65513 0.73413 0.17850
vn 0.94807 -0.26707 0.17276
vn 0.66673 0.47238 0.57647
vn -0.00000 0.58277 0.81264
vn 0.55011 -0.81732 -0.17140
vn 0.00000 -0.95105 -0.30904
vn 0.56475 -0.81712 -0.11564
vn 0.82364 -0.13551 0.55068
vn 0.00000 -0.99554 -0.09429
vn -0.00000 -0.79025 0.61279
vn -0.00000 0.47406 0.88049
vn 0.55450 0.41701 0.72016
vn 0.87243 0.30843 0.37914
vn -0.00000 0.76850 0.63985
vn 0.83800 0.53641 0.10006
vn -0.00000 0.99183 0.12758
vn -0.00000 0.99992 -0.01279
vn 0.53154 0.83003 0.16885
vn 0.50828 0.84737 0.15369
vn -0.00000 0.99129 0.13173
vn -0.00000 0.98486 0.17333
vn -0.00000 0.94945 -0.31391
vn -0.00000 0.94325 -0.33208
vn 0.40072 0.87774 -0.26266
vn 0.47121 0.80706 -0.35582
vn -0.00000 0.95298 0.30302
vn 0.00000 0.95187 0.30651
vn 0.42527 0.85802 0.28802
vn 0.48624 0.81685 0.31037
vn -0.00000 0.99011 -0.14031
vn 0.00000 0.93849 -0.34532
vn 0.48549 0.82633 -0.28545
vn 0.46184 0.87823 -0.12416
vn -0.00000 0.39723 -0.91772
vn 0.42032 0.23699 -0.87588
vn 0.44798 0.61031 -0.65332
vn 0.00000 0.65609 -0.75468
vn -0.00000 -0.47681 -0.87901
vn 0.38048 -0.65438 -0.65347
vn 0.38048 -0.65438 -0.65347
vn -0.00000 -0.47681 -0.87901
vn -0.00000 -0.85111 -0.52499
vn 0.33578 -0.87141 -0.35763
vn -0.00000 -0.94214 -0.33521
vn 0.39062 -0.88982 -0.23588
vn 0.51428 -0.85749 -0.01533
vn 0.22516 -0.85401 0.46900
vn -0.21365 -0.97466 -0.06622
vn 0.98737 0.04975 -0.15044
vn 0.88036 -0.15466 -0.44838
vn 0.68820 0.18793 -0.70076
vn 0.68916 0.72060 -0.07607
vn 0.54463 0.82776 -0.13488
vn 0.44792 0.89302 -0.04338
vn 0.33931 0.62872 -0.69970
vn 0.24556 -0.08672 -0.96549
vn 0.03347 0.64652 0.76216
vn -0.18473 0.36496 0.91251
vn 0.54040 0.84059 -0.03710
vn 0.52263 0.85216 0.02625
vn 0.59868 0.50828 -0.61906
vn 0.58060 -0.11505 -0.80602
vn 0.63824 0.76984 -0.00111
vn 0.91364 0.25512 -0.31650
vn 0.97570 0.20795 0.06904
vn 0.53154 0.07184 0.84398
vn -0.51166 -0.85888 0.02288
vn -0.50578 -0.74322 0.43797
vn -0.59905 -0.67435 0.43172
vn -0.47450 -0.88012 0.01555
vn -0.30977 -0.95072 0.01307
vn -0.21605 -0.76921 0.60137
vn 0.32535 -0.87137 0.36723
vn -0.10875 -0.77424 -0.62348
vn -0.30100 -0.85565 -0.42103
vn 0.32535 -0.87137 0.36723
vn 0.68916 0.72060 -0.07607
vn 0.68820 0.18793 -0.70076
vn 0.43210 -0.61590 -0.65875
vn -0.36890 -0.60011 -0.70977
vn -0.36890 -0.60011 -0.70977
vn 0.43210 -0.61590 -0.65875
vn -0.21365 -0.97466 -0.06622
vn 0.84380 0.32060 -0.43036
vn 0.59810 0.80142 -0.00040
vn 0.24764 -0.87336 -0.41943
vn 0.68675 -0.64340 -0.33825
vn 0.22516 -0.85401 0.46900
vn 0.01723 0.41833 0.90813
vn -0.32024 0.15264 0.93496
vn -0.53530 -0.71673 0.44694
vn -0.58836 -0.63985 0.49438
vn -0.44835 -0.89385 0.00438
vn -0.43528 -0.90026 0.00774
vn 0.85082 0.16627 0.49846
vn -0.10875 -0.77424 -0.62348
vn -0.30100 -0.85565 -0.42103
vn 0.68675 -0.64340 -0.33825
vn 0.24764 -0.87336 -0.41943
vn -0.37225 -0.92804 0.01315
vn 0.01111 -0.87701 -0.48034
vn 0.30878 0.51923 0.79690
vn -0.44131 -0.77633 0.45006
vn 0.01111 -0.87701 -0.48034
vn 0.85082 0.16627 0.49846
vn 0.99202 -0.07090 0.10422
vn 0.43210 -0.61590 -0.65875
vn 0.45230 -0.72259 -0.52277
vn 0.62970 -0.52356 -0.57390
vn -0.00000 -0.99708 0.07638
vn 0.48441 -0.58581 -0.64975
vn -0.27862 -0.95907 0.05065
vn -0.45896 -0.86435 -0.20555
vn 0.55804 -0.09235 -0.82466
vn 0.86435 0.44722 0.22998
vn 0.94986 0.15424 -0.27200
vn 0.81978 0.52303 -0.23323
vn 0.63183 0.74931 0.19830
vn 0.47070 0.54856 0.69103
vn 0.35413 0.71017 0.60848
vn -0.52614 -0.84872 -0.05347
vn 0.21049 -0.56839 -0.79538
vn 0.69985 0.67390 -0.23679
vn 0.55435 0.82530 0.10759
vn -0.40839 -0.87755 -0.25122
vn -0.27627 -0.95973 -0.05089
vn 0.45216 -0.65161 -0.60906
vn 0.62942 -0.29455 -0.71907
vn -0.48715 -0.54752 0.68037
vn 0.20903 -0.50422 0.83789
vn 0.56921 0.81096 0.13543
vn 0.74332 0.62234 -0.24528
vn 0.87474 0.41859 -0.24415
vn 0.64976 0.73748 0.18419
vn 0.26806 0.60697 0.74815
vn 0.44782 0.35682 0.81984
vn -0.29450 0.01657 0.95551
vn 0.47070 0.54856 0.69103
vn 0.35413 0.71017 0.60848
vn -0.44279 -0.46447 0.76694
vn 0.37761 0.72652 0.57409
vn -0.29615 -0.24016 0.92446
vn 0.26806 0.60697 0.74815
vn 0.44782 0.35682 0.81984
vn 0.87743 -0.47970 -0.00309
vn 0.90346 0.29577 0.31031
vn 0.90346 0.29577 0.31031
vn 0.37761 0.72652 0.57409
vn 0.00000 -0.01833 -0.99983
vn -0.86927 -0.19533 -0.45411
vn -0.93546 -0.00214 -0.35342
vn -0.86927 -0.19533 -0.45411
vn -0.75801 -0.37839 -0.53126
vn -0.22479 0.72005 -0.65651
vn -0.23940 0.90737 -0.34550
vn -0.65602 0.64369 -0.39408
vn -0.74586 0.42758 -0.51076
vn -0.84703 0.37879 -0.37289
vn -0.81140 0.36873 -0.45351
vn -0.91064 0.27106 -0.31188
vn -0.93919 0.22648 -0.25812
vn -0.84889 0.45420 -0.27034
vn -0.84568 0.32688 -0.42186
vn -0.78335 0.46159 -0.41629
vn -0.84051 0.32172 -0.43593
vn -0.78679 0.02832 -0.61657
vn -0.42031 0.60888 -0.67276
vn -0.42019 0.90698 0.02881
vn -0.47102 0.87182 0.13440
vn -0.72751 0.67797 0.10530
vn -0.78491 0.61598 -0.06704
vn -0.89987 0.32023 -0.29611
vn -0.72054 0.43038 -0.54368
vn -0.74416 0.62173 -0.24430
vn -0.88483 0.07350 -0.46008
vn -0.98707 0.00606 -0.16018
vn -0.92205 0.38690 0.01112
vn -0.74282 -0.60358 -0.28968
vn -0.55533 -0.68969 -0.46470
vn -0.74813 0.32724 -0.57724
vn -0.81255 -0.19291 -0.55005
vn -0.41403 -0.89155 -0.18364
vn -0.28963 -0.90255 -0.31861
vn -0.88641 0.00598 -0.46286
vn -0.91117 0.24048 -0.33457
vn -0.51869 -0.78977 -0.32745
vn -0.95908 0.27662 -0.06036
vn -0.94973 0.29224 0.11229
vn -0.98958 -0.12349 0.07403
vn -0.99659 -0.06480 -0.05115
vn -0.39090 -0.91931 0.04537
vn -0.41476 -0.88837 0.19693
vn -0.48624 0.81685 0.31037
vn -0.53281 0.81298 0.23490
vn -0.87728 0.38324 0.28899
vn -0.76100 0.56101 0.32579
vn -0.98615 0.02180 0.16439
vn -0.81691 -0.56449 0.11835
vn -0.80553 -0.59164 0.03294
vn -0.70751 0.38909 -0.58994
vn -0.59222 -0.42417 -0.68510
vn -0.49521 0.48810 -0.71870
vn -0.45503 -0.29493 -0.84022
vn -0.72426 0.67470 -0.14220
vn -0.88309 -0.31448 -0.34822
vn -0.76546 0.58315 -0.27204
vn -0.41905 -0.90070 -0.11460
vn -0.55368 -0.63654 -0.53689
vn -0.86047 0.29567 -0.41492
vn -0.86982 0.37151 -0.32464
vn -0.84585 -0.14864 -0.51230
vn -0.73889 0.57515 -0.35106
vn -0.90808 0.37733 -0.18167
vn -0.96448 0.15335 -0.21510
vn -0.76586 0.60485 -0.21820
vn -0.78335 0.58110 0.22064
vn -0.45853 0.86215 0.21552
vn -0.93236 -0.35806 0.05008
vn -0.80743 -0.55111 0.21057
vn -0.94067 0.25944 0.21869
vn -0.73824 0.58850 0.32964
vn -0.89004 0.28721 0.35404
vn -0.87593 0.34171 0.34057
vn -0.76100 0.56101 0.32579
vn -0.89144 0.13000 0.43410
vn -0.78992 0.02617 0.61265
vn -0.94094 -0.20075 0.27265
vn -0.89144 0.13000 0.43410
vn -0.60714 -0.68603 0.40092
vn -0.78992 0.02617 0.61265
vn -0.61657 -0.07849 -0.78338
vn -0.72206 0.04771 -0.69019
vn -0.46292 -0.75363 -0.46664
vn -0.34226 -0.85798 -0.38306
vn -0.43495 -0.85320 -0.28786
vn -0.24614 -0.94964 -0.19390
vn 0.28442 -0.95736 0.05072
vn 0.29376 0.01771 0.95571
vn -0.18754 -0.59697 0.78004
vn -0.11307 -0.97118 0.20981
vn -0.20832 -0.93471 0.28796
vn -0.59707 -0.79248 -0.12442
vn -0.48359 -0.58368 -0.65227
vn -0.47070 0.54856 0.69103
vn -0.63228 0.22421 0.74159
vn -0.22916 -0.88973 0.39480
vn -0.58523 -0.50069 0.63782
vn -0.86478 0.44646 0.22983
vn -0.79385 0.47918 0.37441
vn -0.99341 0.11226 0.02297
vn -0.95008 0.15307 -0.27187
vn -0.22916 -0.88973 0.39480
vn -0.58523 -0.50069 0.63782
vn -0.43495 -0.85320 -0.28786
vn -0.46292 -0.75363 -0.46664
vn -0.34226 -0.85798 -0.38306
vn -0.81255 -0.19291 -0.55005
vn -0.74813 0.32724 -0.57724
vn -0.49521 0.48810 -0.71870
vn -0.70751 0.38909 -0.58994
vn -0.51869 -0.78977 -0.32745
vn -0.24614 -0.94964 -0.19390
vn -0.60476 -0.58100 -0.54471
vn -0.34818 -0.75028 -0.56201
vn -0.45713 -0.88933 -0.01104
vn -0.43475 -0.88893 0.14420
vn -0.91445 -0.38098 0.13655
vn -0.93039 -0.35514 0.09085
vn -0.90330 0.40282 0.14762
vn -0.85741 0.45996 0.23086
vn -0.57498 -0.79225 0.20432
vn -0.94661 -0.25354 0.19909
vn -0.91702 0.36362 0.16389
vn -0.94343 -0.30243 0.13595
vn -0.48293 -0.86730 -0.12068
vn -0.80176 0.45780 0.38419
vn -0.65513 0.73413 0.17850
vn -0.78640 0.48689 0.38015
vn -0.66674 0.47238 0.57647
vn -0.94807 -0.26707 0.17276
vn -0.55010 -0.81732 -0.17140
vn -0.82364 -0.13552 0.55068
vn -0.56474 -0.81712 -0.11564
vn -0.55451 0.41700 0.72016
vn -0.87243 0.30843 0.37914
vn -0.83800 0.53641 0.10006
vn -0.53154 0.83003 0.16885
vn -0.50828 0.84737 0.15369
vn -0.47121 0.80706 -0.35582
vn -0.40072 0.87774 -0.26266
vn -0.48624 0.81685 0.31037
vn -0.42527 0.85802 0.28802
vn -0.46184 0.87823 -0.12416
vn -0.48549 0.82633 -0.28545
vn 0.00000 0.93849 -0.34532
vn -0.44798 0.61031 -0.65333
vn -0.42031 0.23700 -0.87588
vn -0.38048 -0.65437 -0.65348
vn -0.38048 -0.65437 -0.65348
vn -0.00000 -0.85111 -0.52499
vn -0.33578 -0.87141 -0.35763
vn -0.39062 -0.88982 -0.23588
vn -0.51428 -0.85749 -0.01533
vn 0.21365 -0.97466 -0.06622
vn -0.22516 -0.85401 0.46900
vn -0.98737 0.04975 -0.15044
vn -0.68916 0.72060 -0.07607
vn -0.68820 0.18793 -0.70076
vn -0.88036 -0.15467 -0.44838
vn -0.54463 0.82776 -0.13488
vn -0.24556 -0.08672 -0.96549
vn -0.33931 0.62872 -0.69970
vn -0.44792 0.89302 -0.04338
vn 0.18473 0.36496 0.91251
vn -0.03347 0.64652 0.76216
vn -0.54040 0.84059 -0.03710
vn -0.58060 -0.11505 -0.80602
vn -0.59868 0.50828 -0.61906
vn -0.52263 0.85216 0.02625
vn -0.63824 0.76984 -0.00111
vn -0.97570 0.20795 0.06904
vn -0.91364 0.25512 -0.31650
vn -0.53154 0.07185 0.84398
vn 0.51166 -0.85888 0.02288
vn 0.47450 -0.88012 0.01555
vn 0.59905 -0.67435 0.43172
vn 0.50578 -0.74322 0.43797
vn 0.30977 -0.95072 0.01307
vn -0.32536 -0.87136 0.36724
vn 0.21605 -0.76921 0.60137
vn 0.10875 -0.77424 -0.62348
vn 0.30100 -0.85565 -0.42103
vn -0.32536 -0.87136 0.36724
vn -0.68916 0.72060 -0.07607
vn -0.68820 0.18793 -0.70076
vn 0.36890 -0.60011 -0.70977
vn -0.43210 -0.61590 -0.65875
vn 0.36890 -0.60011 -0.70977
vn 0.21365 -0.97466 -0.06622
vn -0.43210 -0.61590 -0.65875
vn -0.84380 0.32060 -0.43036
vn -0.59810 0.80142 -0.00040
vn -0.68675 -0.64340 -0.33825
vn -0.24764 -0.87335 -0.41944
vn -0.22516 -0.85401 0.46900
vn -0.01723 0.41833 0.90813
vn 0.32024 0.15264 0.93496
vn 0.58836 -0.63985 0.49438
vn 0.53530 -0.71673 0.44694
vn 0.44835 -0.89385 0.00438
vn 0.43528 -0.90026 0.00774
vn -0.85081 0.16627 0.49846
vn 0.30100 -0.85565 -0.42103
vn 0.10875 -0.77424 -0.62348
vn 0.37225 -0.92804 0.01315
vn -0.24764 -0.87335 -0.41944
vn -0.68675 -0.64340 -0.33825
vn -0.01111 -0.87701 -0.48034
vn -0.30878 0.51923 0.79690
vn 0.44131 -0.77633 0.45006
vn -0.01111 -0.87701 -0.48034
vn -0.99202 -0.07090 0.10422
vn -0.85081 0.16627 0.49846
vn -0.43210 -0.61590 -0.65875
vn -0.45230 -0.72259 -0.52277
vn -0.62957 -0.52333 -0.57425
vn -0.48359 -0.58368 -0.65227
vn -0.55824 -0.09169 -0.82460
vn 0.45566 -0.86608 -0.20559
vn 0.28442 -0.95736 0.05072
vn -0.86478 0.44646 0.22983
vn -0.63180 0.74949 0.19775
vn -0.81992 0.52247 -0.23401
vn -0.95008 0.15307 -0.27187
vn -0.47070 0.54856 0.69103
vn -0.35413 0.71017 0.60848
vn -0.21398 -0.56808 -0.79467
vn 0.52365 -0.85035 -0.05197
vn -0.55435 0.82530 0.10759
vn -0.69931 0.67422 -0.23747
vn 0.40839 -0.87755 -0.25122
vn -0.62942 -0.29455 -0.71907
vn -0.45216 -0.65161 -0.60906
vn 0.27627 -0.95973 -0.05089
vn -0.20903 -0.50422 0.83790
vn 0.48715 -0.54752 0.68037
vn -0.56921 0.81096 0.13543
vn -0.64977 0.73748 0.18419
vn -0.87474 0.41859 -0.24415
vn -0.74332 0.62234 -0.24528
vn -0.26806 0.60697 0.74815
vn -0.44782 0.35683 0.81984
vn 0.29376 0.01771 0.95571
vn 0.44025 -0.46226 0.76974
vn -0.35413 0.71017 0.60848
vn -0.47070 0.54856 0.69103
vn 0.29615 -0.24016 0.92446
vn -0.37761 0.72652 0.57409
vn -0.44782 0.35683 0.81984
vn -0.26806 0.60697 0.74815
vn -0.87743 -0.47969 -0.00309
vn -0.90345 0.29577 0.31031
vn -0.90345 0.29577 0.31031
vn -0.37761 0.72652 0.57409
f 128/128/128 136/136/136 126/126/126
f 126/126/126 127/127/127 128/128/128
f 412/412/412 304/304/304 128/128/128
f 196/196/196 454/454/454 128/128/128
f 411/411/411 128/128/128 454/454/454
f 128/128/128 409/409/409 417/417/417
f 128/128/128 417/417/417 416/416/416
f 128/128/128 416/416/416 412/412/412
f 410/410/410 128/128/128 411/411/411
f 409/409/409 128/128/128 410/410/410
f 132/132/132 128/128/128 304/304/304
f 196/196/196 128/128/128 195/195/195
f 129/129/129 195/195/195 128/128/128
f 128/128/128 135/135/135 136/136/136
f 128/128/128 132/132/132 135/135/135
f 127/127/127 129/129/129 128/128/128
f 130/130/130 304/304/304 412/412/412
f 130/130/130 412/412/412 413/413/413
f 130/130/130 414/414/414 137/137/137
f 130/130/130 413/413/413 415/415/415
f 414/414/414 130/130/130 415/415/415
f 130/130/130 132/132/132 304/304/304
f 130/130/130 137/137/137 133/133/133
f 130/130/130 134/134/134 131/131/131
f 133/133/133 134/134/134 130/130/130
f 130/130/130 131/131/131 132/132/132
f 212/212/212 208/208/208 215/215/215
f 216/216/216 215/215/215 208/208/208
f 208/208/208 211/211/211 216/216/216
f 209/209/209 208/208/208 212/212/212
f 210/210/210 211/211/211 208/208/208
f 208/208/208 209/209/209 210/210/210
f 247/247/247 224/224/224 212/212/212
f 212/212/212 245/245/245 247/247/247
f 215/215/215 245/245/245 212/212/212
f 213/213/213 212/212/212 224/224/224
f 212/212/212 213/213/213 209/209/209
f 215/215/215 214/214/214 244/244/244
f 244/244/244 245/245/245 215/215/215
f 214/214/214 215/215/215 216/216/216
f 246/246/246 247/247/247 245/245/245
f 245/245/245 244/244/244 246/246/246
f 224/224/224 247/247/247 248/248/248
f 248/248/248 247/247/247 246/246/246
f 249/249/249 246/246/246 258/258/258
f 258/258/258 246/246/246 244/244/244
f 246/246/246 249/249/249 248/248/248
f 244/244/244 257/257/257 258/258/258
f 257/257/257 244/244/244 214/214/214
f 258/258/258 227/227/227 226/226/226
f 226/226/226 255/255/255 258/258/258
f 227/227/227 258/258/258 257/257/257
f 258/258/258 255/255/255 249/249/249
f 254/254/254 259/259/259 249/249/249
f 249/249/249 255/255/255 254/254/254
f 248/248/248 249/249/249 259/259/259
f 254/254/254 255/255/255 226/226/226
f 226/226/226 228/228/228 253/253/253
f 226/226/226 253/253/253 254/254/254
f 226/226/226 227/227/227 228/228/228
f 257/257/257 221/221/221 227/227/227
f 231/231/231 227/227/227 221/221/221
f 257/257/257 240/240/240 218/218/218
f 218/218/218 221/221/221 257/257/257
f 214/214/214 240/240/240 257/257/257
f 474/474/474 465/465/465 470/470/470
f 473/473/473 466/466/466 465/465/465
f 465/465/465 474/474/474 473/473/473
f 470/470/470 465/465/465 468/468/468
f 467/467/467 468/468/468 465/465/465
f 465/465/465 466/466/466 467/467/467
f 470/470/470 502/502/502 474/474/474
f 474/474/474 502/502/502 501/501/501
f 501/501/501 471/471/471 474/474/474
f 473/473/473 474/474/474 471/471/471
f 486/486/486 473/473/473 472/472/472
f 466/466/466 473/473/473 486/486/486
f 471/471/471 472/472/472 473/473/473
f 491/491/491 467/467/467 466/466/466
f 466/466/466 487/487/487 491/491/491
f 486/486/486 487/487/487 466/466/466
f 490/490/490 489/489/489 467/467/467
f 490/490/490 467/467/467 491/491/491
f 489/489/489 468/468/468 467/467/467
f 491/491/491 492/492/492 490/490/490
f 507/507/507 469/469/469 489/489/489
f 469/469/469 468/468/468 489/489/489
f 469/469/469 507/507/507 500/500/500
f 500/500/500 482/482/482 469/469/469
f 469/469/469 482/482/482 481/481/481
f 481/481/481 470/470/470 469/469/469
f 468/468/468 469/469/469 470/470/470
f 482/482/482 500/500/500 494/494/494
f 494/494/494 479/479/479 482/482/482
f 481/481/481 482/482/482 479/479/479
f 470/470/470 481/481/481 503/503/503
f 481/481/481 480/480/480 505/505/505
f 505/505/505 503/503/503 481/481/481
f 479/479/479 480/480/480 481/481/481
f 503/503/503 502/502/502 470/470/470
f 504/504/504 503/503/503 505/505/505
f 502/502/502 503/503/503 504/504/504
f 516/516/516 506/506/506 505/505/505
f 505/505/505 509/509/509 516/516/516
f 211/211/211 210/210/210 235/235/235
f 235/235/235 210/210/210 233/233/233
f 233/233/233 234/234/234 235/235/235
f 233/233/233 210/210/210 232/232/232
f 232/232/232 210/210/210 209/209/209
f 250/250/250 232/232/232 213/213/213
f 213/213/213 232/232/232 209/209/209
f 243/243/243 250/250/250 213/213/213
f 213/213/213 223/223/223 243/243/243
f 224/224/224 223/223/223 213/213/213
f 238/238/238 243/243/243 223/223/223
f 223/223/223 222/222/222 238/238/238
f 222/222/222 223/223/223 224/224/224
f 248/248/248 225/225/225 224/224/224
f 224/224/224 225/225/225 222/222/222
f 252/252/252 236/236/236 222/222/222
f 222/222/222 225/225/225 252/252/252
f 238/238/238 222/222/222 236/236/236
f 236/236/236 237/237/237 238/238/238
f 252/252/252 225/225/225 248/248/248
f 248/248/248 251/251/251 252/252/252
f 259/259/259 251/251/251 248/248/248
f 508/508/508 509/509/509 505/505/505
f 505/505/505 480/480/480 508/508/508
f 505/505/505 506/506/506 504/504/504
f 508/508/508 480/480/480 479/479/479
f 479/479/479 493/493/493 508/508/508
f 493/493/493 479/479/479 494/494/494
f 494/494/494 495/495/495 493/493/493
f 511/511/511 510/510/510 506/506/506
f 506/506/506 516/516/516 511/511/511
f 515/515/515 504/504/504 506/506/506
f 506/506/506 510/510/510 515/515/515
f 501/501/501 504/504/504 515/515/515
f 504/504/504 501/501/501 502/502/502
f 515/515/515 510/510/510 483/483/483
f 483/483/483 485/485/485 515/515/515
f 514/514/514 515/515/515 485/485/485
f 515/515/515 514/514/514 501/501/501
f 483/483/483 510/510/510 511/511/511
f 511/511/511 512/512/512 483/483/483
f 532/532/532 535/535/535 545/545/545
f 545/545/545 535/535/535 534/534/534
f 534/534/534 542/542/542 545/545/545
f 544/544/544 545/545/545 542/542/542
f 557/557/557 544/544/544 543/543/543
f 542/542/542 543/543/543 544/544/544
f 542/542/542 534/534/534 559/559/559
f 559/559/559 546/546/546 542/542/542
f 543/543/543 542/542/542 546/546/546
f 559/559/559 534/534/534 527/527/527
f 527/527/527 534/534/534 535/535/535
f 527/527/527 531/531/531 559/559/559
f 527/527/527 526/526/526 530/530/530
f 530/530/530 531/531/531 527/527/527
f 546/546/546 547/547/547 543/543/543
f 547/547/547 557/557/557 543/543/543
f 392/392/392 395/395/395 397/397/397
f 397/397/397 398/398/398 392/392/392
f 51/51/51 347/347/347 396/396/396
f 396/396/396 120/120/120 51/51/51
f 51/51/51 120/120/120 109/109/109
f 49/49/49 50/50/50 51/51/51
f 120/120/120 396/396/396 401/401/401
f 401/401/401 121/121/121 120/120/120
f 120/120/120 121/121/121 114/114/114
f 114/114/114 109/109/109 120/120/120
f 107/107/107 109/109/109 114/114/114
f 107/107/107 106/106/106 109/109/109
f 114/114/114 115/115/115 107/107/107
f 112/112/112 108/108/108 107/107/107
f 107/107/107 108/108/108 105/105/105
f 105/105/105 106/106/106 107/107/107
f 69/69/69 50/50/50 49/49/49
f 199/199/199 69/69/69 70/70/70
f 49/49/49 70/70/70 69/69/69
f 85/85/85 70/70/70 49/49/49
f 70/70/70 85/85/85 201/201/201
f 201/201/201 198/198/198 70/70/70
f 70/70/70 198/198/198 199/199/199
f 197/197/197 199/199/199 198/198/198
f 263/263/263 139/139/139 198/198/198
f 263/263/263 198/198/198 200/200/200
f 200/200/200 198/198/198 201/201/201
f 198/198/198 139/139/139 197/197/197
f 200/200/200 201/201/201 202/202/202
f 85/85/85 202/202/202 201/201/201
f 260/260/260 202/202/202 85/85/85
f 200/200/200 202/202/202 203/203/203
f 262/262/262 263/263/263 200/200/200
f 262/262/262 200/200/200 203/203/203
f 262/262/262 264/264/264 263/263/263
f 139/139/139 263/263/263 264/264/264
f 262/262/262 205/205/205 264/264/264
f 262/262/262 206/206/206 205/205/205
f 264/264/264 138/138/138 139/139/139
f 139/139/139 138/138/138 71/71/71
f 41/41/41 197/197/197 139/139/139
f 139/139/139 39/39/39 41/41/41
f 71/71/71 39/39/39 139/139/139
f 38/38/38 71/71/71 67/67/67
f 38/38/38 39/39/39 71/71/71
f 40/40/40 41/41/41 39/39/39
f 39/39/39 38/38/38 40/40/40
f 41/41/41 338/338/338 419/419/419
f 419/419/419 455/455/455 41/41/41
f 338/338/338 41/41/41 40/40/40
f 337/337/337 40/40/40 72/72/72
f 40/40/40 337/337/337 338/338/338
f 72/72/72 40/40/40 38/38/38
f 38/38/38 37/37/37 72/72/72
f 67/67/67 34/34/34 38/38/38
f 38/38/38 34/34/34 37/37/37
f 67/67/67 35/35/35 34/34/34
f 44/44/44 35/35/35 67/67/67
f 36/36/36 37/37/37 34/34/34
f 283/283/283 282/282/282 288/288/288
f 282/282/282 283/283/283 280/280/280
f 301/301/301 289/289/289 288/288/288
f 288/288/288 287/287/287 283/283/283
f 288/288/288 289/289/289 286/286/286
f 286/286/286 287/287/287 288/288/288
f 291/291/291 289/289/289 301/301/301
f 289/289/289 291/291/291 290/290/290
f 290/290/290 286/286/286 289/289/289
f 286/286/286 290/290/290 303/303/303
f 303/303/303 279/279/279 286/286/286
f 287/287/287 286/286/286 279/279/279
f 303/303/303 275/275/275 273/273/273
f 273/273/273 279/279/279 303/303/303
f 273/273/273 275/275/275 274/274/274
f 274/274/274 270/270/270 273/273/273
f 292/292/292 293/293/293 294/294/294
f 429/429/429 435/435/435 436/436/436
f 435/435/435 429/429/429 431/431/431
f 431/431/431 434/434/434 435/435/435
f 430/430/430 436/436/436 161/161/161
f 436/436/436 430/430/430 429/429/429
f 161/161/161 153/153/153 430/430/430
f 161/161/161 160/160/160 150/150/150
f 150/150/150 153/153/153 161/161/161
f 420/420/420 430/430/430 153/153/153
f 430/430/430 420/420/420 423/423/423
f 423/423/423 429/429/429 430/430/430
f 425/425/425 431/431/431 429/429/429
f 425/425/425 429/429/429 423/423/423
f 434/434/434 431/431/431 433/433/433
f 425/425/425 432/432/432 431/431/431
f 431/431/431 432/432/432 433/433/433
f 443/443/443 432/432/432 425/425/425
f 172/172/172 432/432/432 443/443/443
f 433/433/433 432/432/432 441/441/441
f 441/441/441 432/432/432 172/172/172
f 441/441/441 440/440/440 433/433/433
f 433/433/433 440/440/440 159/159/159
f 433/433/433 159/159/159 434/434/434
f 107/107/107 113/113/113 112/112/112
f 92/92/92 90/90/90 87/87/87
f 88/88/88 87/87/87 90/90/90
f 87/87/87 88/88/88 81/81/81
f 81/81/81 86/86/86 87/87/87
f 61/61/61 86/86/86 48/48/48
f 48/48/48 86/86/86 81/81/81
f 82/82/82 81/81/81 88/88/88
f 81/81/81 24/24/24 48/48/48
f 25/25/25 24/24/24 81/81/81
f 81/81/81 82/82/82 25/25/25
f 88/88/88 183/183/183 82/82/82
f 183/183/183 88/88/88 91/91/91
f 90/90/90 91/91/91 88/88/88
f 83/83/83 82/82/82 183/183/183
f 26/26/26 25/25/25 82/82/82
f 82/82/82 83/83/83 26/26/26
f 22/22/22 25/25/25 26/26/26
f 24/24/24 25/25/25 22/22/22
f 48/48/48 24/24/24 23/23/23
f 22/22/22 23/23/23 24/24/24
f 23/23/23 45/45/45 48/48/48
f 23/23/23 22/22/22 188/188/188
f 26/26/26 83/83/83 372/372/372
f 372/372/372 324/324/324 26/26/26
f 447/447/447 372/372/372 83/83/83
f 83/83/83 182/182/182 447/447/447
f 369/369/369 366/366/366 365/365/365
f 419/419/419 338/338/338 363/363/363
f 363/363/363 418/418/418 419/419/419
f 337/337/337 363/363/363 338/338/338
f 419/419/419 418/418/418 521/521/521
f 519/519/519 520/520/520 521/521/521
f 521/521/521 520/520/520 419/419/419
f 519/519/519 521/521/521 464/464/464
f 461/461/461 464/464/464 369/369/369
f 519/519/519 464/464/464 463/463/463
f 463/463/463 464/464/464 461/461/461
f 519/519/519 457/457/457 520/520/520
f 519/519/519 459/459/459 457/457/457
f 520/520/520 456/456/456 419/419/419
f 520/520/520 457/457/457 456/456/456
f 457/457/457 460/460/460 458/458/458
f 457/457/457 459/459/459 460/460/460
f 457/457/457 458/458/458 456/456/456
f 458/458/458 362/362/362 456/456/456
f 199/199/199 456/456/456 362/362/362
f 455/455/455 419/419/419 456/456/456
f 456/456/456 199/199/199 455/455/455
f 362/362/362 458/458/458 374/374/374
f 374/374/374 458/458/458 460/460/460
f 518/518/518 374/374/374 460/460/460
f 374/374/374 517/517/517 373/373/373
f 354/354/354 374/374/374 373/373/373
f 374/374/374 518/518/518 517/517/517
f 374/374/374 354/354/354 346/346/346
f 346/346/346 362/362/362 374/374/374
f 362/362/362 69/69/69 199/199/199
f 69/69/69 362/362/362 346/346/346
f 346/346/346 50/50/50 69/69/69
f 347/347/347 346/346/346 354/354/354
f 51/51/51 50/50/50 346/346/346
f 346/346/346 347/347/347 51/51/51
f 345/345/345 344/344/344 354/354/354
f 354/354/354 373/373/373 345/345/345
f 354/354/354 353/353/353 347/347/347
f 353/353/353 354/354/354 344/344/344
f 373/373/373 517/517/517 345/345/345
f 369/369/369 345/345/345 517/517/517
f 345/345/345 369/369/369 368/368/368
f 368/368/368 342/342/342 345/345/345
f 344/344/344 345/345/345 342/342/342
f 352/352/352 344/344/344 343/343/343
f 344/344/344 352/352/352 353/353/353
f 342/342/342 343/343/343 344/344/344
f 347/347/347 353/353/353 397/397/397
f 353/353/353 352/352/352 405/405/405
f 405/405/405 397/397/397 353/353/353
f 378/378/378 405/405/405 352/352/352
f 378/378/378 352/352/352 375/375/375
f 343/343/343 375/375/375 352/352/352
f 343/343/343 325/325/325 371/371/371
f 371/371/371 375/375/375 343/343/343
f 343/343/343 342/342/342 326/326/326
f 326/326/326 325/325/325 343/343/343
f 326/326/326 342/342/342 368/368/368
f 326/326/326 370/370/370 448/448/448
f 448/448/448 323/323/323 326/326/326
f 368/368/368 370/370/370 326/326/326
f 325/325/325 326/326/326 323/323/323
f 371/371/371 325/325/325 324/324/324
f 323/323/323 324/324/324 325/325/325
f 27/27/27 323/323/323 448/448/448
f 323/323/323 27/27/27 26/26/26
f 26/26/26 324/324/324 323/323/323
f 448/448/448 185/185/185 27/27/27
f 449/449/449 448/448/448 370/370/370
f 185/185/185 448/448/448 449/449/449
f 27/27/27 185/185/185 188/188/188
f 188/188/188 22/22/22 27/27/27
f 260/260/260 261/261/261 204/204/204
f 59/59/59 84/84/84 85/85/85
f 49/49/49 59/59/59 85/85/85
f 52/52/52 60/60/60 59/59/59
f 59/59/59 49/49/49 52/52/52
f 47/47/47 59/59/59 60/60/60
f 48/48/48 47/47/47 61/61/61
f 60/60/60 61/61/61 47/47/47
f 47/47/47 48/48/48 45/45/45
f 110/110/110 60/60/60 52/52/52
f 60/60/60 110/110/110 118/118/118
f 118/118/118 61/61/61 60/60/60
f 109/109/109 52/52/52 51/51/51
f 52/52/52 109/109/109 110/110/110
f 51/51/51 52/52/52 49/49/49
f 110/110/110 111/111/111 119/119/119
f 119/119/119 118/118/118 110/110/110
f 106/106/106 110/110/110 109/109/109
f 105/105/105 111/111/111 110/110/110
f 110/110/110 106/106/106 105/105/105
f 89/89/89 118/118/118 116/116/116
f 117/117/117 116/116/116 118/118/118
f 118/118/118 119/119/119 117/117/117
f 89/89/89 61/61/61 118/118/118
f 113/113/113 89/89/89 116/116/116
f 113/113/113 92/92/92 89/89/89
f 87/87/87 89/89/89 92/92/92
f 89/89/89 87/87/87 86/86/86
f 86/86/86 61/61/61 89/89/89
f 116/116/116 117/117/117 112/112/112
f 112/112/112 113/113/113 116/116/116
f 113/113/113 107/107/107 115/115/115
f 115/115/115 92/92/92 113/113/113
f 93/93/93 95/95/95 96/96/96
f 147/147/147 143/143/143 142/142/142
f 142/142/142 149/149/149 147/147/147
f 55/55/55 94/94/94 149/149/149
f 149/149/149 148/148/148 55/55/55
f 148/148/148 149/149/149 142/142/142
f 93/93/93 94/94/94 55/55/55
f 55/55/55 54/54/54 93/93/93
f 173/173/173 148/148/148 145/145/145
f 142/142/142 145/145/145 148/148/148
f 145/145/145 142/142/142 141/141/141
f 142/142/142 143/143/143 140/140/140
f 140/140/140 141/141/141 142/142/142
f 174/174/174 145/145/145 144/144/144
f 145/145/145 174/174/174 173/173/173
f 141/141/141 144/144/144 145/145/145
f 173/173/173 174/174/174 175/175/175
f 144/144/144 156/156/156 174/174/174
f 174/174/174 156/156/156 172/172/172
f 172/172/172 175/175/175 174/174/174
f 144/144/144 151/151/151 154/154/154
f 144/144/144 154/154/154 156/156/156
f 144/144/144 141/141/141 151/151/151
f 150/150/150 151/151/151 141/141/141
f 141/141/141 140/140/140 150/150/150
f 384/384/384 426/426/426 146/146/146
f 408/408/408 384/384/384 407/407/407
f 384/384/384 408/408/408 385/385/385
f 407/407/407 384/384/384 124/124/124
f 146/146/146 426/426/426 421/421/421
f 421/421/421 265/265/265 146/146/146
f 265/265/265 421/421/421 420/420/420
f 143/143/143 147/147/147 146/146/146
f 146/146/146 265/265/265 143/143/143
f 146/146/146 147/147/147 96/96/96
f 96/96/96 124/124/124 146/146/146
f 124/124/124 123/123/123 407/407/407
f 124/124/124 96/96/96 122/122/122
f 122/122/122 123/123/123 124/124/124
f 125/125/125 122/122/122 96/96/96
f 96/96/96 95/95/95 125/125/125
f 96/96/96 147/147/147 149/149/149
f 149/149/149 94/94/94 96/96/96
f 96/96/96 94/94/94 93/93/93
f 26/26/26 27/27/27 22/22/22
f 449/449/449 450/450/450 185/185/185
f 187/187/187 188/188/188 185/185/185
f 185/185/185 186/186/186 187/187/187
f 444/444/444 449/449/449 367/367/367
f 450/450/450 449/449/449 444/444/444
f 370/370/370 367/367/367 449/449/449
f 444/444/444 177/177/177 450/450/450
f 367/367/367 361/361/361 444/444/444
f 445/445/445 444/444/444 361/361/361
f 177/177/177 444/444/444 445/445/445
f 365/365/365 367/367/367 370/370/370
f 370/370/370 368/368/368 365/365/365
f 365/365/365 368/368/368 369/369/369
f 461/461/461 369/369/369 517/517/517
f 518/518/518 462/462/462 461/461/461
f 461/461/461 517/517/517 518/518/518
f 461/461/461 462/462/462 463/463/463
f 310/310/310 445/445/445 359/359/359
f 445/445/445 310/310/310 9/9/9
f 9/9/9 178/178/178 445/445/445
f 361/361/361 359/359/359 445/445/445
f 445/445/445 178/178/178 177/177/177
f 359/359/359 311/311/311 310/310/310
f 9/9/9 310/310/310 309/309/309
f 309/309/309 310/310/310 311/311/311
f 359/359/359 313/313/313 311/311/311
f 314/314/314 315/315/315 311/311/311
f 311/311/311 313/313/313 314/314/314
f 309/309/309 10/10/10 9/9/9
f 179/179/179 178/178/178 9/9/9
f 9/9/9 8/8/8 179/179/179
f 177/177/177 178/178/178 179/179/179
f 66/66/66 179/179/179 8/8/8
f 68/68/68 180/180/180 179/179/179
f 179/179/179 66/66/66 68/68/68
f 179/179/179 180/180/180 177/177/177
f 186/186/186 177/177/177 180/180/180
f 76/76/76 187/187/187 180/180/180
f 180/180/180 68/68/68 76/76/76
f 180/180/180 187/187/187 186/186/186
f 73/73/73 68/68/68 44/44/44
f 76/76/76 68/68/68 73/73/73
f 68/68/68 66/66/66 44/44/44
f 187/187/187 76/76/76 79/79/79
f 79/79/79 76/76/76 75/75/75
f 73/73/73 75/75/75 76/76/76
f 79/79/79 188/188/188 187/187/187
f 188/188/188 79/79/79 23/23/23
f 23/23/23 79/79/79 78/78/78
f 75/75/75 78/78/78 79/79/79
f 77/77/77 78/78/78 75/75/75
f 75/75/75 74/74/74 77/77/77
f 74/74/74 75/75/75 73/73/73
f 44/44/44 67/67/67 73/73/73
f 73/73/73 67/67/67 74/74/74
f 205/205/205 74/74/74 264/264/264
f 264/264/264 74/74/74 138/138/138
f 205/205/205 77/77/77 74/74/74
f 71/71/71 138/138/138 74/74/74
f 74/74/74 67/67/67 71/71/71
f 204/204/204 261/261/261 77/77/77
f 204/204/204 77/77/77 205/205/205
f 77/77/77 261/261/261 46/46/46
f 78/78/78 77/77/77 46/46/46
f 78/78/78 45/45/45 23/23/23
f 46/46/46 45/45/45 78/78/78
f 84/84/84 46/46/46 261/261/261
f 46/46/46 84/84/84 59/59/59
f 59/59/59 47/47/47 46/46/46
f 45/45/45 46/46/46 47/47/47
f 85/85/85 84/84/84 261/261/261
f 85/85/85 261/261/261 260/260/260
f 57/57/57 58/58/58 53/53/53
f 53/53/53 56/56/56 57/57/57
f 55/55/55 56/56/56 53/53/53
f 53/53/53 54/54/54 55/55/55
f 349/349/349 57/57/57 176/176/176
f 57/57/57 349/349/349 348/348/348
f 348/348/348 58/58/58 57/57/57
f 176/176/176 57/57/57 56/56/56
f 148/148/148 173/173/173 56/56/56
f 56/56/56 55/55/55 148/148/148
f 56/56/56 173/173/173 176/176/176
f 176/176/176 442/442/442 349/349/349
f 442/442/442 176/176/176 175/175/175
f 175/175/175 176/176/176 173/173/173
f 428/428/428 350/350/350 349/349/349
f 349/349/349 442/442/442 428/428/428
f 348/348/348 349/349/349 350/350/350
f 350/350/350 351/351/351 348/348/348
f 350/350/350 428/428/428 427/427/427
f 427/427/427 382/382/382 350/350/350
f 383/383/383 351/351/351 350/350/350
f 350/350/350 382/382/382 383/383/383
f 424/424/424 428/428/428 442/442/442
f 428/428/428 424/424/424 422/422/422
f 422/422/422 427/427/427 428/428/428
f 175/175/175 443/443/443 442/442/442
f 442/442/442 443/443/443 424/424/424
f 425/425/425 424/424/424 443/443/443
f 424/424/424 425/425/425 423/423/423
f 423/423/423 422/422/422 424/424/424
f 426/426/426 427/427/427 422/422/422
f 422/422/422 421/421/421 426/426/426
f 422/422/422 423/423/423 420/420/420
f 420/420/420 421/421/421 422/422/422
f 384/384/384 382/382/382 427/427/427
f 427/427/427 426/426/426 384/384/384
f 383/383/383 382/382/382 384/384/384
f 384/384/384 385/385/385 383/383/383
f 146/146/146 124/124/124 384/384/384
f 206/206/206 207/207/207 204/204/204
f 204/204/204 205/205/205 206/206/206
f 204/204/204 207/207/207 260/260/260
f 183/183/183 182/182/182 83/83/83
f 376/376/376 371/371/371 372/372/372
f 372/372/372 447/447/447 376/376/376
f 324/324/324 372/372/372 371/371/371
f 379/379/379 376/376/376 447/447/447
f 447/447/447 446/446/446 379/379/379
f 447/447/447 182/182/182 181/181/181
f 181/181/181 446/446/446 447/447/447
f 181/181/181 182/182/182 183/183/183
f 183/183/183 184/184/184 181/181/181
f 91/91/91 184/184/184 183/183/183
f 376/376/376 379/379/379 380/380/380
f 380/380/380 377/377/377 376/376/376
f 371/371/371 376/376/376 377/377/377
f 377/377/377 375/375/375 371/371/371
f 381/381/381 378/378/378 377/377/377
f 377/377/377 380/380/380 381/381/381
f 375/375/375 377/377/377 378/378/378
f 400/400/400 378/378/378 381/381/381
f 400/400/400 381/381/381 402/402/402
f 400/400/400 404/404/404 378/378/378
f 378/378/378 404/404/404 405/405/405
f 404/404/404 400/400/400 399/399/399
f 402/402/402 394/394/394 400/400/400
f 399/399/399 400/400/400 394/394/394
f 394/394/394 402/402/402 401/401/401
f 401/401/401 396/396/396 394/394/394
f 394/394/394 393/393/393 399/399/399
f 394/394/394 396/396/396 395/395/395
f 394/394/394 395/395/395 392/392/392
f 392/392/392 393/393/393 394/394/394
f 399/399/399 403/403/403 404/404/404
f 405/405/405 404/404/404 403/403/403
f 403/403/403 406/406/406 405/405/405
f 397/397/397 405/405/405 406/406/406
f 406/406/406 398/398/398 397/397/397
f 397/397/397 396/396/396 347/347/347
f 395/395/395 396/396/396 397/397/397
f 327/327/327 330/330/330 328/328/328
f 327/327/327 329/329/329 332/332/332
f 331/331/331 327/327/327 332/332/332
f 330/330/330 327/327/327 331/331/331
f 327/327/327 328/328/328 329/329/329
f 28/28/28 30/30/30 31/31/31
f 28/28/28 33/33/33 29/29/29
f 32/32/32 33/33/33 28/28/28
f 31/31/31 32/32/32 28/28/28
f 28/28/28 29/29/29 30/30/30
f 522/522/522 529/529/529 528/528/528
f 528/528/528 523/523/523 522/522/522
f 524/524/524 525/525/525 522/522/522
f 522/522/522 523/523/523 524/524/524
f 528/528/528 529/529/529 526/526/526
f 523/523/523 528/528/528 535/535/535
f 535/535/535 528/528/528 527/527/527
f 526/526/526 527/527/527 528/528/528
f 535/535/535 532/532/532 523/523/523
f 524/524/524 523/523/523 532/532/532
f 549/549/549 524/524/524 533/533/533
f 525/525/525 524/524/524 549/549/549
f 532/532/532 533/533/533 524/524/524
f 549/549/549 548/548/548 525/525/525
f 533/533/533 552/552/552 549/549/549
f 553/553/553 550/550/550 549/549/549
f 549/549/549 552/552/552 553/553/553
f 548/548/548 549/549/549 550/550/550
f 533/533/533 536/536/536 541/541/541
f 541/541/541 552/552/552 533/533/533
f 536/536/536 533/533/533 532/532/532
f 555/555/555 553/553/553 552/552/552
f 552/552/552 541/541/541 555/555/555
f 554/554/554 555/555/555 541/541/541
f 541/541/541 540/540/540 554/554/554
f 541/541/541 536/536/536 539/539/539
f 539/539/539 540/540/540 541/541/541
f 532/532/532 537/537/537 536/536/536
f 538/538/538 539/539/539 536/536/536
f 536/536/536 537/537/537 538/538/538
f 539/539/539 556/556/556 540/540/540
f 538/538/538 556/556/556 539/539/539
f 558/558/558 554/554/554 540/540/540
f 540/540/540 556/556/556 558/558/558
f 544/544/544 558/558/558 556/556/556
f 556/556/556 538/538/538 544/544/544
f 544/544/544 538/538/538 537/537/537
f 545/545/545 537/537/537 532/532/532
f 537/537/537 545/545/545 544/544/544
f 307/307/307 308/308/308 305/305/305
f 305/305/305 306/306/306 307/307/307
f 319/319/319 320/320/320 318/318/318
f 320/320/320 340/340/340 339/339/339
f 336/336/336 341/341/341 339/339/339
f 339/339/339 340/340/340 336/336/336
f 340/340/340 320/320/320 313/313/313
f 314/314/314 313/313/313 320/320/320
f 320/320/320 319/319/319 314/314/314
f 364/364/364 340/340/340 361/361/361
f 340/340/340 364/364/364 360/360/360
f 313/313/313 359/359/359 340/340/340
f 361/361/361 340/340/340 359/359/359
f 340/340/340 360/360/360 336/336/336
f 360/360/360 333/333/333 336/336/336
f 335/335/335 336/336/336 333/333/333
f 363/363/363 360/360/360 366/366/366
f 366/366/366 360/360/360 364/364/364
f 360/360/360 363/363/363 337/337/337
f 337/337/337 333/333/333 360/360/360
f 367/367/367 365/365/365 364/364/364
f 364/364/364 361/361/361 367/367/367
f 364/364/364 365/365/365 366/366/366
f 464/464/464 521/521/521 366/366/366
f 521/521/521 418/418/418 366/366/366
f 464/464/464 366/366/366 369/369/369
f 366/366/366 418/418/418 363/363/363
f 550/550/550 551/551/551 548/548/548
f 266/266/266 269/269/269 272/272/272
f 272/272/272 271/271/271 266/266/266
f 268/268/268 269/269/269 266/266/266
f 266/266/266 267/267/267 268/268/268
f 269/269/269 277/277/277 278/278/278
f 278/278/278 272/272/272 269/269/269
f 277/277/277 269/269/269 268/268/268
f 273/273/273 272/272/272 278/278/278
f 272/272/272 273/273/273 270/270/270
f 270/270/270 271/271/271 272/272/272
f 287/287/287 278/278/278 277/277/277
f 279/279/279 278/278/278 287/287/287
f 278/278/278 279/279/279 273/273/273
f 277/277/277 283/283/283 287/287/287
f 280/280/280 283/283/283 277/277/277
f 277/277/277 276/276/276 280/280/280
f 268/268/268 276/276/276 277/277/277
f 276/276/276 268/268/268 295/295/295
f 295/295/295 268/268/268 267/267/267
f 267/267/267 292/292/292 295/295/295
f 295/295/295 297/297/297 276/276/276
f 296/296/296 297/297/297 295/295/295
f 295/295/295 294/294/294 296/296/296
f 294/294/294 295/295/295 292/292/292
f 276/276/276 297/297/297 284/284/284
f 284/284/284 280/280/280 276/276/276
f 298/298/298 284/284/284 297/297/297
f 297/297/297 296/296/296 298/298/298
f 299/299/299 285/285/285 284/284/284
f 284/284/284 298/298/298 299/299/299
f 284/284/284 285/285/285 281/281/281
f 281/281/281 280/280/280 284/284/284
f 285/285/285 299/299/299 302/302/302
f 302/302/302 300/300/300 285/285/285
f 281/281/281 285/285/285 300/300/300
f 282/282/282 281/281/281 300/300/300
f 280/280/280 281/281/281 282/282/282
f 288/288/288 282/282/282 300/300/300
f 300/300/300 302/302/302 288/288/288
f 483/483/483 512/512/512 484/484/484
f 483/483/483 484/484/484 485/485/485
f 485/485/485 478/478/478 514/514/514
f 478/478/478 485/485/485 488/488/488
f 514/514/514 478/478/478 475/475/475
f 475/475/475 497/497/497 514/514/514
f 471/471/471 501/501/501 514/514/514
f 514/514/514 497/497/497 471/471/471
f 488/488/488 476/476/476 478/478/478
f 475/475/475 478/478/478 476/476/476
f 476/476/476 488/488/488 498/498/498
f 498/498/498 477/477/477 476/476/476
f 475/475/475 476/476/476 477/477/477
f 475/475/475 477/477/477 496/496/496
f 496/496/496 497/497/497 475/475/475
f 471/471/471 497/497/497 496/496/496
f 496/496/496 472/472/472 471/471/471
f 513/513/513 472/472/472 496/496/496
f 496/496/496 499/499/499 513/513/513
f 499/499/499 496/496/496 477/477/477
f 477/477/477 498/498/498 499/499/499
f 472/472/472 513/513/513 486/486/486
f 356/356/356 358/358/358 357/357/357
f 357/357/357 355/355/355 356/356/356
f 42/42/42 44/44/44 18/18/18
f 13/13/13 18/18/18 44/44/44
f 44/44/44 66/66/66 13/13/13
f 35/35/35 44/44/44 42/42/42
f 18/18/18 15/15/15 42/42/42
f 20/20/20 43/43/43 42/42/42
f 42/42/42 15/15/15 20/20/20
f 42/42/42 43/43/43 35/35/35
f 12/12/12 17/17/17 18/18/18
f 18/18/18 13/13/13 12/12/12
f 15/15/15 18/18/18 17/17/17
f 66/66/66 7/7/7 13/13/13
f 12/12/12 13/13/13 7/7/7
f 8/8/8 7/7/7 66/66/66
f 7/7/7 11/11/11 12/12/12
f 17/17/17 16/16/16 15/15/15
f 20/20/20 104/104/104 43/43/43
f 20/20/20 103/103/103 104/104/104
f 103/103/103 20/20/20 102/102/102
f 102/102/102 101/101/101 103/103/103
f 101/101/101 102/102/102 99/99/99
f 99/99/99 100/100/100 101/101/101
f 194/194/194 100/100/100 99/99/99
f 386/386/386 387/387/387 388/388/388
f 321/321/321 387/387/387 451/451/451
f 390/390/390 388/388/388 387/387/387
f 387/387/387 321/321/321 390/390/390
f 451/451/451 322/322/322 321/321/321
f 321/321/321 391/391/391 390/390/390
f 321/321/321 341/341/341 391/391/391
f 321/321/321 339/339/339 341/341/341
f 339/339/339 321/321/321 318/318/318
f 321/321/321 322/322/322 312/312/312
f 312/312/312 318/318/318 321/321/321
f 312/312/312 322/322/322 309/309/309
f 317/317/317 318/318/318 312/312/312
f 312/312/312 316/316/316 317/317/317
f 312/312/312 311/311/311 315/315/315
f 315/315/315 316/316/316 312/312/312
f 311/311/311 312/312/312 309/309/309
f 339/339/339 318/318/318 320/320/320
f 318/318/318 317/317/317 319/319/319
f 34/34/34 35/35/35 36/36/36
f 37/37/37 63/63/63 80/80/80
f 80/80/80 72/72/72 37/37/37
f 37/37/37 36/36/36 62/62/62
f 62/62/62 63/63/63 37/37/37
f 334/334/334 72/72/72 80/80/80
f 72/72/72 334/334/334 337/337/337
f 337/337/337 334/334/334 333/333/333
f 80/80/80 356/356/356 334/334/334
f 334/334/334 356/356/356 355/355/355
f 355/355/355 335/335/335 334/334/334
f 333/333/333 334/334/334 335/335/335
f 80/80/80 98/98/98 358/358/358
f 358/358/358 356/356/356 80/80/80
f 80/80/80 63/63/63 65/65/65
f 65/65/65 98/98/98 80/80/80
f 63/63/63 62/62/62 64/64/64
f 64/64/64 65/65/65 63/63/63
f 65/65/65 64/64/64 97/97/97
f 97/97/97 98/98/98 65/65/65
f 358/358/358 98/98/98 97/97/97
f 97/97/97 357/357/357 358/358/358
f 221/221/221 220/220/220 231/231/231
f 218/218/218 220/220/220 221/221/221
f 242/242/242 231/231/231 220/220/220
f 220/220/220 219/219/219 242/242/242
f 218/218/218 219/219/219 220/220/220
f 218/218/218 240/240/240 239/239/239
f 239/239/239 219/219/219 218/218/218
f 239/239/239 240/240/240 214/214/214
f 214/214/214 217/217/217 239/239/239
f 216/216/216 217/217/217 214/214/214
f 256/256/256 241/241/241 239/239/239
f 239/239/239 217/217/217 256/256/256
f 219/219/219 239/239/239 241/241/241
f 241/241/241 242/242/242 219/219/219
f 229/229/229 256/256/256 217/217/217
f 217/217/217 216/216/216 229/229/229
f 229/229/229 216/216/216 211/211/211
f 211/211/211 230/230/230 229/229/229
f 235/235/235 230/230/230 211/211/211
f 3/3/3 4/4/4 1/1/1
f 1/1/1 2/2/2 3/3/3
f 6/6/6 5/5/5 19/19/19
f 21/21/21 19/19/19 5/5/5
f 5/5/5 10/10/10 21/21/21
f 5/5/5 8/8/8 9/9/9
f 9/9/9 10/10/10 5/5/5
f 7/7/7 8/8/8 5/5/5
f 5/5/5 6/6/6 7/7/7
f 20/20/20 15/15/15 6/6/6
f 6/6/6 19/19/19 20/20/20
f 16/16/16 14/14/14 6/6/6
f 6/6/6 15/15/15 16/16/16
f 6/6/6 14/14/14 11/11/11
f 11/11/11 7/7/7 6/6/6
f 191/191/191 19/19/19 21/21/21
f 20/20/20 19/19/19 191/191/191
f 21/21/21 192/192/192 191/191/191
f 191/191/191 102/102/102 20/20/20
f 102/102/102 191/191/191 190/190/190
f 191/191/191 192/192/192 189/189/189
f 189/189/189 190/190/190 191/191/191
f 451/451/451 192/192/192 21/21/21
f 21/21/21 322/322/322 451/451/451
f 21/21/21 10/10/10 309/309/309
f 309/309/309 322/322/322 21/21/21
f 189/189/189 192/192/192 451/451/451
f 193/193/193 189/189/189 452/452/452
f 451/451/451 452/452/452 189/189/189
f 190/190/190 189/189/189 193/193/193
f 99/99/99 190/190/190 194/194/194
f 193/193/193 194/194/194 190/190/190
f 190/190/190 99/99/99 102/102/102
f 452/452/452 453/453/453 193/193/193
f 453/453/453 452/452/452 386/386/386
f 387/387/387 386/386/386 452/452/452
f 452/452/452 451/451/451 387/387/387
f 386/386/386 389/389/389 453/453/453
f 388/388/388 389/389/389 386/386/386
f 160/160/160 157/157/157 151/151/151
f 151/151/151 150/150/150 160/160/160
f 154/154/154 151/151/151 157/157/157
f 155/155/155 154/154/154 158/158/158
f 157/157/157 158/158/158 154/154/154
f 154/154/154 155/155/155 156/156/156
f 170/170/170 156/156/156 155/155/155
f 172/172/172 156/156/156 170/170/170
f 155/155/155 168/168/168 170/170/170
f 155/155/155 159/159/159 168/168/168
f 158/158/158 159/159/159 155/155/155
f 163/163/163 167/167/167 158/158/158
f 158/158/158 157/157/157 163/163/163
f 158/158/158 167/167/167 166/166/166
f 166/166/166 159/159/159 158/158/158
f 162/162/162 163/163/163 157/157/157
f 157/157/157 160/160/160 162/162/162
f 165/165/165 163/163/163 162/162/162
f 166/166/166 167/167/167 163/163/163
f 163/163/163 165/165/165 166/166/166
f 434/434/434 159/159/159 166/166/166
f 166/166/166 439/439/439 434/434/434
f 166/166/166 165/165/165 437/437/437
f 437/437/437 439/439/439 166/166/166
f 438/438/438 437/437/437 165/165/165
f 165/165/165 164/164/164 438/438/438
f 162/162/162 164/164/164 165/165/165
f 162/162/162 160/160/160 161/161/161
f 161/161/161 164/164/164 162/162/162
f 438/438/438 164/164/164 161/161/161
f 161/161/161 436/436/436 438/438/438
f 438/438/438 436/436/436 435/435/435
f 435/435/435 437/437/437 438/438/438
f 437/437/437 435/435/435 434/434/434
f 434/434/434 439/439/439 437/437/437
f 441/441/441 171/171/171 169/169/169
f 169/169/169 440/440/440 441/441/441
f 172/172/172 171/171/171 441/441/441
f 443/443/443 175/175/175 172/172/172
f 170/170/170 171/171/171 172/172/172
f 169/169/169 171/171/171 170/170/170
f 159/159/159 440/440/440 169/169/169
f 170/170/170 168/168/168 169/169/169
f 159/159/159 169/169/169 168/168/168
f 420/420/420 152/152/152 265/265/265
f 153/153/153 152/152/152 420/420/420
f 265/265/265 152/152/152 140/140/140
f 140/140/140 152/152/152 153/153/153
f 140/140/140 143/143/143 265/265/265
f 153/153/153 150/150/150 140/140/140
