# hainosaurus reconstructed from live game memory
v -4.95951 42.42159 -85.99908
v -0.00000 44.18631 -86.16892
v -0.00000 46.91239 -80.14700
v -8.13163 45.01103 -80.02325
v -2.05793 27.47078 -90.98721
v 0.00000 26.12406 -85.07478
v 0.00000 26.07651 -84.60549
v -6.85193 28.56497 -84.67565
v -13.15536 48.48720 -62.44621
v -12.89839 43.16366 -62.06200
v -13.49406 43.41769 -67.66461
v -17.14334 39.16726 -59.82205
v -15.07581 39.08736 -66.46368
v -16.40466 44.43763 -58.61735
v -6.58402 24.33989 -84.30406
v -1.97255 24.98088 -90.00413
v -2.05793 27.47078 -90.98721
v -6.85193 28.56497 -84.67565
v -10.42885 29.63089 -78.99536
v -12.79515 30.66956 -72.95744
v -11.19258 24.52556 -72.42030
v -9.70221 24.19397 -78.53088
v 0.00000 22.06652 -78.34635
v 0.00000 22.46375 -84.14436
v -0.00000 19.31783 -64.39076
v 0.00000 21.62336 -72.18615
v -13.17939 22.94898 -64.76508
v -1.87163 39.80350 -90.96833
v -0.00000 40.75614 -91.73843
v -2.29860 36.70434 -91.90345
v -0.00000 36.58589 -92.97297
v -13.15669 47.51478 -62.34666
v -15.43916 43.45111 -62.63149
v -13.38156 43.52056 -66.51404
v -14.76246 38.77761 -65.50574
v -16.26213 39.65366 -60.15134
v -15.90842 44.27082 -58.74632
v -16.41256 32.02428 -65.25610
v 0.00000 26.05915 -73.10014
v -10.42885 29.63089 -78.99536
v -12.79515 30.66956 -72.95744
v 0.00000 25.11766 -65.20829
v -16.41256 32.02428 -65.25610
v -0.00000 40.78540 -60.99142
v -0.00000 43.07111 -73.78728
v -13.31061 37.22664 -73.27352
v -16.72695 34.92154 -65.59460
v -10.52164 37.25379 -79.65137
v -0.00000 43.12341 -79.89375
v -0.00000 41.50405 -86.05004
v -0.00000 39.40443 -91.11787
v -2.29860 36.70434 -91.90345
v -7.01324 37.07402 -85.85616
v -11.83977 52.54643 -54.16379
v -15.27213 44.05042 -54.18951
v -12.59072 52.50840 -33.07542
v -12.75489 52.11342 -45.51535
v 0.00000 55.73122 -45.50263
v 0.00000 56.38510 -32.91669
v -12.61580 21.04539 -45.49067
v -20.48260 31.37012 -45.56218
v -21.44022 30.54293 -33.26576
v -14.77657 20.93108 -33.19777
v -17.04038 44.10688 -45.50960
v -18.76937 44.00598 -33.07345
v -18.87091 34.43670 -55.43490
v -16.72695 34.92154 -65.59460
v -10.78282 49.26251 -68.56304
v -10.91907 51.33509 -62.66576
v -9.95157 46.80743 -73.58210
v -0.00000 48.99747 -74.18765
v -0.00000 51.29210 -68.93346
v -0.00000 55.23494 -54.02600
v -12.70602 21.23575 -55.66335
v -18.87091 34.43670 -55.43490
v -0.00000 38.49053 -50.98418
v -0.00000 40.78540 -60.99142
v -16.72695 34.92154 -65.59460
v 0.00000 30.02940 -50.42333
v -18.87091 34.43670 -55.43490
v -7.01324 37.07402 -85.85616
v -10.52164 37.25379 -79.65137
v -13.31061 37.22664 -73.27352
v 0.00000 16.80889 -55.57725
v -16.04071 36.30283 -65.29768
v -17.27907 35.24564 -55.44263
v -17.55066 32.68111 -54.21836
v -15.13552 30.35698 -64.77819
v -15.41130 37.53548 -65.43103
v -14.90351 32.45744 -67.67834
v -13.57494 37.88575 -70.30527
v 0.00000 16.29754 -45.34383
v -8.42743 47.22525 75.73817
v -0.00000 52.84808 75.75292
v 0.00000 50.04591 106.05485
v -6.34380 45.26302 106.04619
v -13.93091 33.91002 76.07426
v -10.98070 34.05803 106.03491
v -6.22326 23.59439 106.03124
v -10.08263 19.85903 75.64499
v -4.41361 34.03983 225.49257
v -5.66476 34.05400 211.92789
v -2.59690 45.94421 211.90942
v -2.10657 40.19080 225.49728
v -0.00000 34.32231 234.28130
v -0.00000 34.03072 234.50421
v -12.22817 54.52691 27.40572
v -0.00000 60.70977 27.41118
v -0.00000 56.46641 51.58247
v -10.64144 51.45439 51.58076
v -27.65220 33.11256 -10.62743
v -25.44050 44.01348 -0.57925
v -28.29064 31.26203 -3.88323
v -6.33761 34.06038 199.16501
v -2.81624 46.58838 199.19675
v -0.00000 51.13384 199.21384
v -0.00000 50.06281 211.89445
v -2.34121 20.82786 199.15088
v -1.91600 21.20654 211.95403
v -32.28983 30.24562 -10.66802
v -40.43295 29.07489 -10.27092
v -40.82960 28.28387 -18.77450
v -32.27051 29.50770 -17.21119
v -49.90318 28.81080 -8.82842
v -50.64755 28.28851 -18.94134
v -40.93390 26.40791 -21.37909
v -32.18056 26.45337 -19.39677
v -51.06961 26.37818 -21.32353
v -31.03751 24.51964 -17.58233
v -25.29440 24.86558 -17.03797
v -26.09101 27.50578 -21.93953
v -40.01311 28.20463 -3.10535
v -39.82484 26.36143 -0.65778
v -49.14463 26.40096 2.47828
v -49.34873 28.45506 0.16570
v -39.82484 26.36143 -0.65778
v -40.12721 24.48504 -3.18892
v -47.79767 24.49223 -0.08363
v -49.14463 26.40096 2.47828
v -27.65220 33.11256 -10.62743
v -28.29064 31.26203 -3.88323
v -32.63387 28.45588 -4.44054
v -28.66264 26.76342 -0.49021
v -20.10154 13.43269 -0.26724
v -26.40451 24.87204 -3.73267
v -26.80157 32.92786 -19.61477
v -21.44022 30.54293 -33.26576
v -18.76937 44.00598 -33.07345
v -23.46827 45.22860 -20.79167
v -13.93091 33.91002 76.07426
v -16.01007 23.90406 69.69853
v -16.50141 26.79119 68.00367
v -15.16261 36.03135 67.10850
v -40.86864 24.50454 -18.54252
v -50.75979 24.48654 -18.24275
v 0.00000 7.53955 -0.37162
v 0.00000 9.95552 -16.75958
v -18.91140 15.33711 -16.81710
v -18.13915 13.40107 27.07328
v -0.00000 8.22359 27.00409
v -18.70200 22.62347 55.72148
v -14.39693 15.79320 52.84999
v -20.68371 23.87981 52.77735
v -24.08919 23.64663 57.16991
v -20.68371 23.87981 52.77735
v -19.99813 26.77812 55.75811
v -23.62043 25.69878 58.57573
v -22.26667 27.01202 63.79292
v -18.33486 28.91947 61.72488
v -16.50141 26.79119 68.00367
v -20.43403 25.72263 69.55180
v -18.70200 22.62347 55.72148
v -22.79352 22.54239 58.07020
v -20.15475 22.64977 68.77185
v -16.57891 22.62793 68.00731
v -18.15714 38.56307 51.97106
v -18.33486 28.91947 61.72488
v -19.99813 26.77812 55.75811
v -10.08263 19.85903 75.64499
v -0.00000 15.93811 75.67185
v -0.00000 14.02213 66.59236
v -11.58287 17.91542 66.85576
v -26.10813 25.68788 27.17491
v -23.70014 40.63644 27.30764
v -2.17702 27.30499 225.52209
v -0.00000 33.72176 234.29593
v 0.00000 19.59225 106.02600
v -0.00000 15.93811 75.67185
v -58.72997 26.38123 2.45337
v -57.74390 28.10934 -0.10301
v -0.00000 44.17014 225.51891
v -0.00000 22.49564 225.50766
v -0.00000 16.95268 211.86462
v -28.75287 26.09332 67.32539
v -30.97935 25.22402 60.85147
v -19.76038 23.23944 70.61731
v -25.67159 23.20210 75.28383
v -26.36658 25.24318 73.48170
v -34.92873 25.42365 70.24350
v -36.88076 24.88434 64.42641
v -42.62246 23.63413 68.83652
v -37.96127 23.60902 62.77111
v -40.76746 24.89787 69.41756
v -33.36278 24.90585 75.41675
v -39.02483 24.90256 74.16228
v -25.77342 22.08122 73.07358
v -29.83642 22.14394 59.93058
v -32.39921 22.11417 75.20119
v -35.88537 22.06722 63.41963
v -39.62790 22.13956 69.10037
v -38.23291 22.12134 73.59886
v -40.72367 23.64285 75.15030
v -32.81444 23.64894 77.39830
v -25.67159 23.20210 75.28383
v -31.86986 23.61800 58.85415
v -0.00000 16.28061 198.91907
v -0.00000 50.54753 185.05457
v -3.08475 45.68843 185.04214
v -2.78584 22.40431 185.04802
v -6.89103 34.02616 185.04608
v -40.72367 23.64285 75.15030
v -12.49481 54.42056 -20.85150
v -13.06323 55.62596 -0.28454
v -12.59072 52.50840 -33.07542
v -16.57891 22.62793 68.00731
v -25.29440 24.86558 -17.03797
v -26.80157 32.92786 -19.61477
v -26.09101 27.50578 -21.93953
v 0.00000 48.59179 137.00847
v 0.00000 48.45993 165.05579
v -3.59977 44.07299 165.03206
v -4.79041 44.19764 136.97957
v -4.17486 25.22368 136.94791
v -8.59362 34.04139 136.95294
v -7.70405 33.97514 165.03764
v -3.46254 25.08285 165.06256
v -64.72987 26.38687 -0.04782
v -63.08209 28.02433 -1.86319
v -32.71655 26.39208 -2.70554
v -32.71655 26.39208 -2.70554
v -31.75425 24.49180 -5.37621
v -58.49212 24.46973 -0.73450
v -58.72997 26.38123 2.45337
v -63.23288 24.47447 -1.94046
v -64.72987 26.38687 -0.04782
v -64.41461 24.48039 -11.69567
v -65.99246 24.47920 -5.41601
v -59.01751 24.48159 -15.48519
v -66.49133 27.93930 -5.82533
v -58.25784 28.26793 -7.16499
v -26.40451 24.87204 -3.73267
v -28.66264 26.76342 -0.49021
v -59.57904 28.25767 -16.23853
v -60.40911 26.37857 -18.43808
v -69.02734 26.39251 -5.47268
v -67.04504 26.38553 -12.99841
v -64.97658 28.09849 -12.25109
v -67.04504 26.38553 -12.99841
v -69.02734 26.39251 -5.47268
v 0.00000 21.37076 136.92981
v -0.00000 17.80709 185.03676
v 0.00000 21.45625 165.04599
v -14.77657 20.93108 -33.19777
v -17.54807 17.93955 -25.99510
v -0.00000 12.00330 52.91105
v -16.01007 23.90406 69.69853
v -19.76038 23.23944 70.61731
v 0.00000 13.00385 -26.58905
v 0.00000 16.39475 -33.32152
v -13.85264 37.84181 -70.06119
v -13.17324 33.31229 -72.87624
v -11.90520 37.91697 -75.33401
v -11.72167 37.94667 -75.29207
v -11.53652 33.07145 -77.29546
v -9.96631 38.06514 -79.69662
v -9.90608 38.17479 -79.68291
v -9.39351 32.56921 -81.64988
v -7.15282 38.11752 -84.30973
v -7.24320 38.17269 -84.31846
v -5.52462 32.68981 -87.14094
v -3.78609 37.98476 -88.87048
v -3.85428 37.96555 -88.87811
v -2.84769 32.24973 -90.90681
v -0.00000 37.58766 -91.86887
v -0.00000 38.02082 -91.77267
v -28.66264 26.76342 -0.49021
v -0.00000 54.24905 66.73753
v -9.07755 48.85692 66.68359
v -0.00000 52.84808 75.75292
v -8.42743 47.22525 75.73817
v -16.01007 23.90406 69.69853
v -32.81444 23.64894 77.39830
v -11.97804 29.51278 -72.87113
v -13.71326 34.65319 -70.69911
v -14.42115 30.32909 -67.74545
v -9.79688 28.69199 -77.58284
v -11.33415 33.85365 -75.28857
v -11.84962 29.44146 -72.28087
v -7.49891 27.95730 -81.81290
v -9.23413 33.09772 -79.64092
v -9.94202 28.67384 -77.26170
v -4.94601 27.25930 -85.83169
v -6.90508 32.37105 -83.82479
v -7.83776 28.01340 -81.62547
v -2.37528 26.57978 -89.74415
v -4.50671 31.66544 -87.88741
v -5.61864 27.34920 -85.73031
v 0.00000 56.38510 -32.91669
v 0.00000 59.05532 -20.75158
v -0.00000 61.31973 -0.25565
v -0.00000 53.47533 -62.88008
v 0.00000 16.39475 -33.32152
v 0.00000 24.12384 -90.23000
v 0.00000 27.28963 -92.06717
v 0.00000 27.28963 -92.06717
v -0.00000 36.58589 -92.97297
v 0.00000 30.02940 -50.42333
v 4.95951 42.42159 -85.99908
v 8.13163 45.01103 -80.02325
v 2.05793 27.47078 -90.98721
v 6.85193 28.56497 -84.67565
v 13.15536 48.48720 -62.44621
v 13.49406 43.41769 -67.66461
v 12.89839 43.16366 -62.06200
v 17.14334 39.16726 -59.82205
v 15.07581 39.08736 -66.46368
v 16.40466 44.43763 -58.61735
v 6.58402 24.33989 -84.30406
v 6.85193 28.56497 -84.67565
v 2.05793 27.47078 -90.98721
v 1.97255 24.98088 -90.00413
v 10.42885 29.63089 -78.99536
v 9.70221 24.19397 -78.53088
v 11.19258 24.52556 -72.42030
v 12.79515 30.66956 -72.95744
v 13.17939 22.94898 -64.76508
v 1.87163 39.80350 -90.96833
v 2.29860 36.70434 -91.90345
v 13.15669 47.51478 -62.34666
v 13.38156 43.52056 -66.51404
v 15.43916 43.45111 -62.63149
v 14.76246 38.77761 -65.50574
v 16.26213 39.65366 -60.15134
v 15.90842 44.27082 -58.74632
v 16.41256 32.02428 -65.25610
v 10.42885 29.63089 -78.99536
v 12.79515 30.66956 -72.95744
v 16.41256 32.02428 -65.25610
v 16.72695 34.92154 -65.59460
v 13.31061 37.22664 -73.27352
v 10.52164 37.25379 -79.65137
v 7.01324 37.07402 -85.85616
v 2.29860 36.70434 -91.90345
v 15.27213 44.05042 -54.18951
v 11.83977 52.54643 -54.16379
v 12.59072 52.50840 -33.07542
v 12.75489 52.11342 -45.51535
v 12.61580 21.04539 -45.49067
v 14.77657 20.93108 -33.19777
v 21.44022 30.54293 -33.26576
v 20.48260 31.37012 -45.56218
v 18.76937 44.00598 -33.07345
v 17.04038 44.10688 -45.50960
v 16.72695 34.92154 -65.59460
v 18.87091 34.43670 -55.43490
v 10.91907 51.33509 -62.66576
v 10.78282 49.26251 -68.56304
v 9.95157 46.80743 -73.58210
v 12.70602 21.23575 -55.66335
v 18.87091 34.43670 -55.43490
v 16.72695 34.92154 -65.59460
v 18.87091 34.43670 -55.43490
v 7.01324 37.07402 -85.85616
v 10.52164 37.25379 -79.65137
v 13.31061 37.22664 -73.27352
v 16.04071 36.30283 -65.29768
v 15.13552 30.35698 -64.77819
v 17.55066 32.68111 -54.21836
v 17.27907 35.24564 -55.44263
v 15.41130 37.53548 -65.43103
v 13.57494 37.88575 -70.30527
v 14.90351 32.45744 -67.67834
v 8.42743 47.22525 75.73817
v 6.34380 45.26302 106.04619
v 13.93091 33.91002 76.07426
v 10.08263 19.85903 75.64499
v 6.22326 23.59439 106.03124
v 10.98070 34.05803 106.03491
v 4.41361 34.03983 225.49257
v 2.10657 40.19080 225.49728
v 2.59690 45.94421 211.90942
v 5.66476 34.05400 211.92789
v 12.22817 54.52691 27.40572
v 10.64144 51.45439 51.58076
v 27.65220 33.11256 -10.62743
v 28.29064 31.26203 -3.88323
v 25.44050 44.01348 -0.57925
v 2.81624 46.58838 199.19675
v 6.33761 34.06038 199.16501
v 2.34121 20.82786 199.15088
v 1.91600 21.20654 211.95403
v 32.28983 30.24562 -10.66802
v 32.27051 29.50770 -17.21119
v 40.82960 28.28387 -18.77450
v 40.43296 29.07489 -10.27092
v 50.64755 28.28851 -18.94133
v 49.90318 28.81080 -8.82841
v 40.93390 26.40792 -21.37909
v 32.18055 26.45337 -19.39677
v 51.06961 26.37819 -21.32352
v 31.03751 24.51964 -17.58233
v 26.09101 27.50578 -21.93953
v 25.29440 24.86558 -17.03797
v 40.01311 28.20463 -3.10535
v 49.34872 28.45507 0.16570
v 49.14463 26.40096 2.47828
v 39.82484 26.36143 -0.65778
v 39.82484 26.36143 -0.65778
v 49.14463 26.40096 2.47828
v 47.79767 24.49223 -0.08363
v 40.12722 24.48504 -3.18892
v 27.65220 33.11256 -10.62743
v 32.63388 28.45588 -4.44054
v 28.29064 31.26203 -3.88323
v 28.66264 26.76342 -0.49021
v 26.40451 24.87204 -3.73267
v 20.10154 13.43269 -0.26724
v 26.80157 32.92786 -19.61477
v 23.46827 45.22860 -20.79167
v 18.76937 44.00598 -33.07345
v 21.44022 30.54293 -33.26576
v 13.93091 33.91002 76.07426
v 15.16261 36.03135 67.10850
v 16.50141 26.79119 68.00367
v 16.01007 23.90406 69.69853
v 40.86864 24.50455 -18.54251
v 50.75979 24.48654 -18.24275
v 18.91140 15.33711 -16.81710
v 18.13915 13.40107 27.07328
v 18.70200 22.62347 55.72148
v 20.68371 23.87981 52.77735
v 14.39693 15.79320 52.84999
v 24.08919 23.64663 57.16991
v 23.62043 25.69878 58.57572
v 19.99813 26.77812 55.75811
v 20.68371 23.87981 52.77735
v 22.26667 27.01202 63.79292
v 20.43403 25.72263 69.55180
v 16.50141 26.79119 68.00367
v 18.33486 28.91947 61.72488
v 18.70200 22.62347 55.72148
v 22.79352 22.54239 58.07020
v 16.57891 22.62793 68.00731
v 20.15475 22.64977 68.77185
v 18.15714 38.56307 51.97106
v 19.99813 26.77812 55.75811
v 18.33486 28.91947 61.72488
v 10.08263 19.85903 75.64499
v 11.58287 17.91542 66.85576
v 23.70014 40.63644 27.30764
v 26.10813 25.68788 27.17491
v 2.17702 27.30499 225.52209
v 57.74390 28.10935 -0.10301
v 58.72997 26.38123 2.45337
v 30.97935 25.22402 60.85146
v 28.75287 26.09332 67.32539
v 19.76037 23.23944 70.61731
v 26.36658 25.24318 73.48170
v 25.67158 23.20210 75.28383
v 36.88075 24.88434 64.42641
v 34.92873 25.42365 70.24350
v 42.62246 23.63413 68.83652
v 40.76746 24.89787 69.41756
v 37.96127 23.60902 62.77111
v 39.02483 24.90256 74.16228
v 33.36278 24.90585 75.41675
v 25.77342 22.08122 73.07358
v 29.83642 22.14394 59.93058
v 32.39921 22.11417 75.20119
v 35.88536 22.06722 63.41962
v 38.23291 22.12134 73.59886
v 39.62790 22.13957 69.10037
v 40.72367 23.64285 75.15030
v 32.81444 23.64894 77.39830
v 25.67158 23.20210 75.28383
v 31.86985 23.61801 58.85414
v 3.08475 45.68843 185.04214
v 2.78584 22.40431 185.04802
v 6.89103 34.02616 185.04608
v 40.72367 23.64285 75.15030
v 12.49481 54.42056 -20.85150
v 13.06323 55.62596 -0.28454
v 12.59072 52.50840 -33.07542
v 16.57891 22.62793 68.00731
v 25.29440 24.86558 -17.03797
v 26.80157 32.92786 -19.61477
v 26.09101 27.50578 -21.93953
v 4.79041 44.19764 136.97957
v 3.59977 44.07299 165.03206
v 4.17486 25.22368 136.94791
v 3.46254 25.08285 165.06256
v 7.70405 33.97514 165.03764
v 8.59362 34.04139 136.95294
v 63.08209 28.02433 -1.86319
v 64.72987 26.38687 -0.04782
v 32.71656 26.39208 -2.70554
v 31.75425 24.49180 -5.37621
v 32.71656 26.39208 -2.70554
v 58.72997 26.38123 2.45337
v 58.49212 24.46973 -0.73450
v 64.72987 26.38687 -0.04782
v 63.23287 24.47447 -1.94046
v 59.01751 24.48160 -15.48519
v 65.99245 24.47921 -5.41601
v 64.41460 24.48040 -11.69567
v 58.25784 28.26793 -7.16499
v 66.49132 27.93931 -5.82533
v 26.40451 24.87204 -3.73267
v 28.66264 26.76342 -0.49021
v 60.40910 26.37857 -18.43807
v 59.57904 28.25767 -16.23852
v 64.97657 28.09849 -12.25109
v 67.04503 26.38554 -12.99841
v 69.02733 26.39251 -5.47268
v 69.02733 26.39251 -5.47268
v 67.04503 26.38554 -12.99841
v 14.77657 20.93108 -33.19777
v 17.54807 17.93955 -25.99510
v 16.01007 23.90406 69.69853
v 19.76037 23.23944 70.61731
v 13.85264 37.84181 -70.06119
v 11.90520 37.91697 -75.33401
v 13.17324 33.31229 -72.87624
v 11.72167 37.94667 -75.29207
v 9.96631 38.06514 -79.69662
v 11.53652 33.07145 -77.29546
v 9.90608 38.17479 -79.68291
v 7.15282 38.11752 -84.30973
v 9.39351 32.56921 -81.64988
v 7.24320 38.17269 -84.31846
v 3.78609 37.98476 -88.87048
v 5.52462 32.68981 -87.14094
v 3.85428 37.96555 -88.87811
v 2.84769 32.24973 -90.90681
v 28.66264 26.76342 -0.49021
v 9.07755 48.85692 66.68359
v 8.42743 47.22525 75.73817
v 16.01007 23.90406 69.69853
v 32.81444 23.64894 77.39830
v 11.97804 29.51278 -72.87113
v 14.42115 30.32909 -67.74545
v 13.71326 34.65319 -70.69911
v 9.79688 28.69199 -77.58284
v 11.84962 29.44146 -72.28087
v 11.33415 33.85365 -75.28857
v 7.49891 27.95730 -81.81290
v 9.94202 28.67384 -77.26170
v 9.23413 33.09772 -79.64092
v 4.94601 27.25930 -85.83169
v 7.83776 28.01340 -81.62547
v 6.90508 32.37105 -83.82479
v 2.37528 26.57978 -89.74415
v 5.61864 27.34920 -85.73031
v 4.50671 31.66544 -87.88741
vt 0.595869 0.773718
vt 0.586540 0.804988
vt 0.635170 0.822009
vt 0.649405 0.774472
vt 0.745396 0.883844
vt 0.754552 0.901366
vt 0.755304 0.901944
vt 0.769113 0.877688
vt 0.786264 0.751715
vt 0.785826 0.728749
vt 0.751966 0.732653
vt 0.805216 0.702065
vt 0.764082 0.706697
vt 0.815376 0.726990
vt 0.607306 0.582909
vt 0.568963 0.583412
vt 0.560075 0.595902
vt 0.605184 0.606111
vt 0.656350 0.615922
vt 0.707128 0.629898
vt 0.708354 0.584239
vt 0.657388 0.585748
vt 0.654851 0.527163
vt 0.605801 0.536967
vt 0.766457 0.504896
vt 0.707163 0.516358
vt 0.764711 0.586027
vt 0.552742 0.773913
vt 0.544365 0.785406
vt 0.542548 0.758452
vt 0.527965 0.766394
vt 0.649786 0.879484
vt 0.649312 0.912172
vt 0.695277 0.910050
vt 0.679601 0.943855
vt 0.622927 0.940593
vt 0.605314 0.910582
vt 0.762173 0.648417
vt 0.815236 0.943309
vt 0.809490 0.882901
vt 0.836343 0.888519
vt 0.855888 0.966433
vt 0.874822 0.897559
vt 0.988025 0.895396
vt 0.927666 0.905815
vt 0.909986 0.986859
vt 0.989502 0.983865
vt 0.855788 0.966641
vt 0.874296 0.898144
vt 0.825522 0.886873
vt 0.767711 0.878903
vt 0.755192 0.902209
vt 0.815235 0.943785
vt 0.844997 0.782332
vt 0.843482 0.728784
vt 0.992784 0.784551
vt 0.919028 0.782211
vt 0.915067 0.863096
vt 0.992784 0.868240
vt 0.906091 0.572623
vt 0.918600 0.649151
vt 0.992784 0.642613
vt 0.992784 0.573063
vt 0.919719 0.724145
vt 0.992784 0.721482
vt 0.838454 0.667221
vt 0.756618 0.687159
vt 0.741602 0.781884
vt 0.785255 0.784307
vt 0.697230 0.776385
vt 0.680864 0.834919
vt 0.728929 0.845918
vt 0.840750 0.859875
vt 0.835225 0.580669
vt 0.927392 0.906023
vt 0.911366 0.986642
vt 0.988325 0.983438
vt 0.988061 0.894935
vt 0.910474 0.986380
vt 0.927392 0.906023
vt 0.593498 0.742053
vt 0.645749 0.728304
vt 0.695530 0.715313
vt 0.831799 0.495040
vt 0.988665 0.010770
vt 0.861686 0.012943
vt 0.859860 0.053725
vt 0.987046 0.094982
vt 0.573980 0.728816
vt 0.709265 0.674966
vt 0.573455 0.618114
vt 0.899212 0.486876
vt 0.225350 0.987888
vt 0.281133 0.987185
vt 0.248832 0.788041
vt 0.212232 0.791532
vt 0.150525 0.988093
vt 0.143188 0.795214
vt 0.080208 0.793949
vt 0.076581 0.988400
vt 0.136555 0.079382
vt 0.138830 0.159849
vt 0.204147 0.156518
vt 0.170589 0.075003
vt 0.135684 0.021900
vt 0.134009 0.020654
vt 0.653534 0.407417
vt 0.659390 0.492294
vt 0.804796 0.467468
vt 0.795359 0.393063
vt 0.420822 0.247847
vt 0.472721 0.322719
vt 0.466134 0.241943
vt 0.139836 0.236303
vt 0.209609 0.233832
vt 0.239015 0.232599
vt 0.230641 0.154195
vt 0.065620 0.235662
vt 0.067273 0.158882
vt 0.291125 0.714697
vt 0.347787 0.717429
vt 0.347762 0.663105
vt 0.289132 0.666914
vt 0.411910 0.719254
vt 0.410646 0.662662
vt 0.349315 0.647794
vt 0.291252 0.642263
vt 0.411598 0.653668
vt 0.288463 0.621306
vt 0.254592 0.610226
vt 0.252577 0.636079
vt 0.351369 0.765477
vt 0.354874 0.786454
vt 0.420828 0.791931
vt 0.418458 0.773159
vt 0.362647 0.517031
vt 0.361101 0.538759
vt 0.414844 0.529412
vt 0.418711 0.510302
vt 0.266174 0.717351
vt 0.276648 0.763255
vt 0.298485 0.763364
vt 0.479568 0.216718
vt 0.486030 0.136534
vt 0.461135 0.209018
vt 0.358556 0.245334
vt 0.270865 0.227075
vt 0.270475 0.316754
vt 0.345793 0.316063
vt 0.960316 0.282406
vt 0.907559 0.220044
vt 0.899776 0.237618
vt 0.893819 0.296764
vt 0.349613 0.632331
vt 0.412257 0.638317
vt 0.482921 0.006504
vt 0.363506 0.012496
vt 0.385258 0.135391
vt 0.658707 0.143225
vt 0.677526 0.026576
vt 0.819965 0.203017
vt 0.809445 0.157347
vt 0.800712 0.213110
vt 0.437604 0.838427
vt 0.438678 0.806786
vt 0.417482 0.807423
vt 0.417791 0.840025
vt 0.376633 0.845674
vt 0.373953 0.813547
vt 0.333324 0.822411
vt 0.340780 0.854513
vt 0.464374 0.808896
vt 0.461016 0.840678
vt 0.530699 0.855959
vt 0.539931 0.833169
vt 0.794053 0.307709
vt 0.858672 0.248085
vt 0.820346 0.232246
vt 0.960587 0.193875
vt 0.962544 0.127511
vt 0.929429 0.105559
vt 0.906425 0.177882
vt 0.652690 0.216719
vt 0.649903 0.311644
vt 0.099530 0.077324
vt 0.132369 0.021925
vt 0.033645 0.790667
vt 0.016169 0.987673
vt 0.484975 0.778019
vt 0.475491 0.760382
vt 0.194613 0.071008
vt 0.071177 0.075323
vt 0.042107 0.158658
vt 0.381731 0.894618
vt 0.420647 0.887083
vt 0.321993 0.860815
vt 0.323488 0.910156
vt 0.341384 0.904956
vt 0.388228 0.939830
vt 0.421512 0.933149
vt 0.438396 0.982492
vt 0.436682 0.931280
vt 0.417779 0.969842
vt 0.356571 0.950300
vt 0.383203 0.978256
vt 0.536497 0.903104
vt 0.455199 0.885324
vt 0.525074 0.949870
vt 0.455038 0.929159
vt 0.463137 0.967639
vt 0.491073 0.976267
vt 0.497411 0.995331
vt 0.537986 0.962709
vt 0.551593 0.910980
vt 0.438081 0.885291
vt 0.037755 0.236553
vt 0.237424 0.319048
vt 0.205660 0.319680
vt 0.073015 0.320101
vt 0.139525 0.321090
vt 0.380328 0.993889
vt 0.337904 0.401589
vt 0.473095 0.415318
vt 0.270155 0.385671
vt 0.897336 0.212763
vt 0.369530 0.201553
vt 0.251118 0.664116
vt 0.345014 0.212570
vt 0.230209 0.605679
vt 0.228613 0.439199
vt 0.196854 0.439831
vt 0.198025 0.607223
vt 0.082085 0.608371
vt 0.136328 0.609482
vt 0.137813 0.441038
vt 0.084177 0.440004
vt 0.521557 0.753745
vt 0.507495 0.744914
vt 0.304875 0.783818
vt 0.316992 0.522041
vt 0.307902 0.543842
vt 0.475713 0.543683
vt 0.481386 0.520973
vt 0.504987 0.554842
vt 0.517717 0.541958
vt 0.505250 0.614818
vt 0.517839 0.578041
vt 0.467023 0.633459
vt 0.522617 0.716120
vt 0.469647 0.719468
vt 0.277884 0.529311
vt 0.294164 0.507376
vt 0.468617 0.665660
vt 0.472729 0.652311
vt 0.540267 0.712767
vt 0.518856 0.666939
vt 0.505932 0.680085
vt 0.521588 0.627549
vt 0.538132 0.580285
vt 0.049693 0.607091
vt 0.043520 0.319652
vt 0.055921 0.439612
vt 0.270765 0.148993
vt 0.323116 0.141404
vt 0.834229 0.067030
vt 0.551993 0.839629
vt 0.543118 0.860414
vt 0.290741 0.028740
vt 0.269027 0.050630
vt 0.573980 0.728816
vt 0.709265 0.674966
vt 0.573455 0.618114
vt 0.573980 0.728816
vt 0.709265 0.674966
vt 0.573455 0.618114
vt 0.573980 0.728816
vt 0.709265 0.674966
vt 0.573455 0.618114
vt 0.573980 0.728816
vt 0.709265 0.674966
vt 0.573455 0.618114
vt 0.573980 0.728816
vt 0.709265 0.674966
vt 0.584644 0.622769
vt 0.573553 0.621009
vt 0.280826 0.794492
vt 0.904269 0.443343
vt 0.894612 0.378194
vt 0.961081 0.430473
vt 0.960379 0.368142
vt 0.313673 0.831085
vt 0.342005 0.956856
vt 0.573980 0.728816
vt 0.709265 0.674966
vt 0.573455 0.618114
vt 0.573980 0.728816
vt 0.709265 0.674966
vt 0.573455 0.618114
vt 0.573980 0.728816
vt 0.709265 0.674966
vt 0.573455 0.618114
vt 0.573980 0.728816
vt 0.709265 0.674966
vt 0.573455 0.618114
vt 0.573980 0.728816
vt 0.709265 0.674966
vt 0.573455 0.618114
vt 0.269370 0.470913
vt 0.334650 0.482226
vt 0.472026 0.501115
vt 0.776235 0.852669
vt 0.992784 0.475413
vt 0.558706 0.571121
vt 0.542503 0.587399
vt 0.730506 0.887300
vt 0.730541 0.888182
vt 0.910474 0.986380
vt 0.595869 0.773718
vt 0.649405 0.774472
vt 0.745396 0.883844
vt 0.769113 0.877688
vt 0.786264 0.751715
vt 0.751966 0.732653
vt 0.785826 0.728749
vt 0.805216 0.702065
vt 0.764082 0.706697
vt 0.815376 0.726990
vt 0.607306 0.582909
vt 0.605184 0.606111
vt 0.560075 0.595902
vt 0.568963 0.583412
vt 0.656350 0.615922
vt 0.657388 0.585748
vt 0.708354 0.584239
vt 0.707128 0.629898
vt 0.764711 0.586027
vt 0.552742 0.773913
vt 0.542548 0.758452
vt 0.649786 0.879484
vt 0.695277 0.910050
vt 0.649312 0.912172
vt 0.679601 0.943855
vt 0.622927 0.940593
vt 0.605314 0.910582
vt 0.762173 0.648417
vt 0.809490 0.882901
vt 0.836343 0.888519
vt 0.874822 0.897559
vt 0.989502 0.983865
vt 0.909986 0.986859
vt 0.855788 0.966641
vt 0.815235 0.943785
vt 0.755192 0.902209
vt 0.843482 0.728784
vt 0.844997 0.782332
vt 0.992784 0.784551
vt 0.919028 0.782211
vt 0.906091 0.572623
vt 0.992784 0.573063
vt 0.992784 0.642613
vt 0.918600 0.649151
vt 0.992784 0.721482
vt 0.919719 0.724145
vt 0.756618 0.687159
vt 0.838454 0.667221
vt 0.785255 0.784307
vt 0.741602 0.781884
vt 0.697230 0.776385
vt 0.835225 0.580669
vt 0.927392 0.906023
vt 0.988061 0.894935
vt 0.927392 0.906023
vt 0.593498 0.742053
vt 0.645749 0.728304
vt 0.695530 0.715313
vt 0.988665 0.010770
vt 0.987046 0.094982
vt 0.859860 0.053725
vt 0.861686 0.012943
vt 0.573980 0.728816
vt 0.573455 0.618114
vt 0.709265 0.674966
vt 0.225350 0.987888
vt 0.212232 0.791532
vt 0.150525 0.988093
vt 0.076581 0.988400
vt 0.080208 0.793949
vt 0.143188 0.795214
vt 0.136555 0.079382
vt 0.170589 0.075003
vt 0.204147 0.156518
vt 0.138830 0.159849
vt 0.653534 0.407417
vt 0.795359 0.393063
vt 0.420822 0.247847
vt 0.466134 0.241943
vt 0.472721 0.322719
vt 0.209609 0.233832
vt 0.139836 0.236303
vt 0.065620 0.235662
vt 0.067273 0.158882
vt 0.291125 0.714697
vt 0.289132 0.666914
vt 0.347762 0.663105
vt 0.347787 0.717429
vt 0.410646 0.662662
vt 0.411910 0.719254
vt 0.349315 0.647794
vt 0.291252 0.642263
vt 0.411598 0.653668
vt 0.288463 0.621306
vt 0.252577 0.636079
vt 0.254592 0.610226
vt 0.351369 0.765477
vt 0.418458 0.773159
vt 0.420828 0.791931
vt 0.354874 0.786454
vt 0.362647 0.517031
vt 0.418711 0.510302
vt 0.414844 0.529412
vt 0.361101 0.538759
vt 0.266174 0.717351
vt 0.298485 0.763364
vt 0.276648 0.763255
vt 0.479568 0.216718
vt 0.461135 0.209018
vt 0.486030 0.136534
vt 0.358556 0.245334
vt 0.345793 0.316063
vt 0.270475 0.316754
vt 0.270865 0.227075
vt 0.960316 0.282406
vt 0.893819 0.296764
vt 0.899776 0.237618
vt 0.907559 0.220044
vt 0.349613 0.632331
vt 0.412257 0.638317
vt 0.385258 0.135391
vt 0.658707 0.143225
vt 0.819965 0.203017
vt 0.800712 0.213110
vt 0.809445 0.157347
vt 0.437604 0.838427
vt 0.417791 0.840025
vt 0.417482 0.807423
vt 0.438678 0.806786
vt 0.376633 0.845674
vt 0.340780 0.854513
vt 0.333324 0.822411
vt 0.373953 0.813547
vt 0.464374 0.808896
vt 0.461016 0.840678
vt 0.539931 0.833169
vt 0.530699 0.855959
vt 0.794053 0.307709
vt 0.820346 0.232246
vt 0.858672 0.248085
vt 0.960587 0.193875
vt 0.906425 0.177882
vt 0.649903 0.311644
vt 0.652690 0.216719
vt 0.099530 0.077324
vt 0.475491 0.760382
vt 0.484975 0.778019
vt 0.420647 0.887083
vt 0.381731 0.894618
vt 0.321993 0.860815
vt 0.341384 0.904956
vt 0.323488 0.910156
vt 0.421512 0.933149
vt 0.388228 0.939830
vt 0.438396 0.982492
vt 0.417779 0.969842
vt 0.436682 0.931280
vt 0.383203 0.978256
vt 0.356571 0.950300
vt 0.536497 0.903104
vt 0.455199 0.885324
vt 0.525074 0.949870
vt 0.455038 0.929159
vt 0.491073 0.976267
vt 0.463137 0.967639
vt 0.497411 0.995331
vt 0.537986 0.962709
vt 0.551593 0.910980
vt 0.438081 0.885291
vt 0.205660 0.319680
vt 0.073015 0.320101
vt 0.139525 0.321090
vt 0.380328 0.993889
vt 0.337904 0.401589
vt 0.473095 0.415318
vt 0.270155 0.385671
vt 0.897336 0.212763
vt 0.369530 0.201553
vt 0.251118 0.664116
vt 0.345014 0.212570
vt 0.198025 0.607223
vt 0.196854 0.439831
vt 0.082085 0.608371
vt 0.084177 0.440004
vt 0.137813 0.441038
vt 0.136328 0.609482
vt 0.507495 0.744914
vt 0.521557 0.753745
vt 0.304875 0.783818
vt 0.307902 0.543842
vt 0.316992 0.522041
vt 0.481386 0.520973
vt 0.475713 0.543683
vt 0.517717 0.541958
vt 0.504987 0.554842
vt 0.467023 0.633459
vt 0.517839 0.578041
vt 0.505250 0.614818
vt 0.469647 0.719468
vt 0.522617 0.716120
vt 0.277884 0.529311
vt 0.294164 0.507376
vt 0.472729 0.652311
vt 0.468617 0.665660
vt 0.505932 0.680085
vt 0.518856 0.666939
vt 0.540267 0.712767
vt 0.538132 0.580285
vt 0.521588 0.627549
vt 0.270765 0.148993
vt 0.323116 0.141404
vt 0.551993 0.839629
vt 0.543118 0.860414
vt 0.573980 0.728816
vt 0.573455 0.618114
vt 0.709265 0.674966
vt 0.573980 0.728816
vt 0.573455 0.618114
vt 0.709265 0.674966
vt 0.573980 0.728816
vt 0.573455 0.618114
vt 0.709265 0.674966
vt 0.573980 0.728816
vt 0.573455 0.618114
vt 0.709265 0.674966
vt 0.573980 0.728816
vt 0.709265 0.674966
vt 0.280826 0.794492
vt 0.894612 0.378194
vt 0.960379 0.368142
vt 0.313673 0.831085
vt 0.342005 0.956856
vt 0.573980 0.728816
vt 0.573455 0.618114
vt 0.709265 0.674966
vt 0.573980 0.728816
vt 0.573455 0.618114
vt 0.709265 0.674966
vt 0.573980 0.728816
vt 0.573455 0.618114
vt 0.709265 0.674966
vt 0.573980 0.728816
vt 0.573455 0.618114
vt 0.709265 0.674966
vt 0.573980 0.728816
vt 0.573455 0.618114
vt 0.709265 0.674966
vn -0.50730 0.65432 -0.56081
vn 0.00000 0.85602 -0.51694
vn -0.00000 0.91119 -0.41199
vn -0.59773 0.65328 -0.46470
vn 0.28424 0.95149 0.11778
vn -0.00000 0.99106 0.13342
vn -0.00000 0.99814 0.06103
vn 0.33999 0.93805 0.06677
vn -0.89882 0.35593 -0.25581
vn -0.90776 0.26009 -0.32913
vn -0.94373 0.27541 -0.18308
vn -0.92563 0.30726 -0.22090
vn -0.91848 0.33576 -0.20895
vn -0.93291 0.26609 -0.24262
vn -0.67066 -0.58449 -0.45672
vn -0.47202 -0.63092 -0.61573
vn -0.67905 -0.24303 -0.69270
vn -0.82628 -0.10113 -0.55411
vn -0.90702 -0.16888 -0.38574
vn -0.90159 -0.26506 -0.34187
vn -0.72079 -0.63076 -0.28739
vn -0.59935 -0.76987 -0.21927
vn 0.00000 -0.99559 -0.09384
vn 0.00000 -0.97607 -0.21747
vn 0.00000 -0.96854 -0.24884
vn -0.00000 -0.99249 -0.12235
vn -0.72029 -0.66375 -0.20154
vn -0.56041 0.45553 -0.69169
vn 0.00000 0.60045 -0.79967
vn -0.58222 0.30733 -0.75270
vn -0.00000 0.31346 -0.94960
vn -0.82008 0.48222 -0.30812
vn -0.91553 0.26012 -0.30684
vn -0.84034 0.31702 -0.43968
vn -0.92435 0.09364 -0.36989
vn -0.97496 0.07442 -0.20957
vn -0.93357 0.31087 -0.17835
vn -0.90857 -0.31427 -0.27519
vn 0.00000 0.99956 0.02969
vn 0.33434 0.94245 0.00354
vn 0.35547 0.93406 0.03420
vn 0.00000 0.99827 -0.05879
vn 0.34529 0.92676 -0.14794
vn -0.00000 -0.98846 -0.15151
vn 0.00000 -1.00000 0.00093
vn 0.38791 -0.92096 -0.03676
vn 0.35748 -0.92630 -0.11902
vn 0.45724 -0.87609 0.15295
vn -0.00000 -0.98104 0.19379
vn -0.00000 -0.92524 0.37939
vn -0.00000 -0.74462 0.66749
vn 0.52721 -0.67410 0.51733
vn 0.49826 -0.80837 0.31348
vn -0.68928 0.72124 -0.06856
vn -0.94934 0.31281 0.03004
vn -0.53678 0.83501 -0.12091
vn -0.66880 0.74216 -0.04367
vn -0.00000 0.99956 -0.02957
vn 0.00000 0.99023 -0.13942
vn -0.55688 -0.82876 -0.05515
vn -0.97936 -0.16421 -0.11786
vn -0.93397 -0.22923 -0.27413
vn -0.55474 -0.75052 -0.35914
vn -0.92104 0.36745 -0.12912
vn -0.90898 0.36093 -0.20856
vn -0.98706 0.02831 -0.15784
vn -0.91729 0.31192 -0.24756
vn -0.63693 0.68301 -0.35752
vn -0.41258 0.87626 -0.24887
vn -0.66622 0.62377 -0.40874
vn -0.00000 0.93562 -0.35301
vn 0.00000 0.92280 -0.38528
vn -0.00000 0.99021 -0.13957
vn -0.62840 -0.76616 -0.13462
vn 0.33978 -0.80841 -0.48066
vn 0.00000 -0.64777 -0.76183
vn -0.00000 -0.99483 -0.10155
vn 0.32498 -0.94543 0.02346
vn -0.00000 0.96993 -0.24339
vn 0.26600 0.94946 -0.16664
vn -0.78326 0.27051 -0.55975
vn -0.87747 0.26565 -0.39935
vn -0.89624 0.28431 -0.34048
vn 0.00000 -0.99345 -0.11431
vn -0.98644 -0.05822 -0.15347
vn -0.99168 0.04799 -0.11946
vn -0.98644 -0.05822 -0.15347
vn -0.96890 -0.16372 -0.18556
vn -0.93550 0.06050 -0.34810
vn -0.93550 0.06050 -0.34810
vn -0.93550 0.06050 -0.34810
vn 0.00000 -0.99978 -0.02092
vn -0.76481 0.62923 0.13837
vn 0.00000 0.98770 0.15635
vn 0.00000 0.99659 0.08256
vn -0.82021 0.56644 0.08000
vn -0.97228 0.05389 0.22754
vn -0.99463 0.06216 0.08269
vn -0.77168 -0.62614 0.11160
vn -0.69724 -0.61997 0.35985
vn -0.97243 0.00670 0.23310
vn -0.99809 -0.01361 0.06019
vn -0.90822 0.39681 0.13299
vn -0.86171 0.37356 0.34338
vn 0.00000 0.63887 0.76932
vn 0.00000 0.04141 0.99914
vn -0.55453 0.82700 0.09259
vn 0.00000 0.99520 0.09787
vn 0.00000 0.98746 0.15787
vn -0.65523 0.73530 0.17320
vn -0.81052 0.58537 0.02006
vn -0.90445 0.42523 0.03381
vn -0.82331 0.49864 0.27115
vn -0.99948 -0.01046 0.03039
vn -0.90707 0.42058 0.01840
vn 0.00000 0.99977 0.02149
vn 0.00000 0.98115 0.19323
vn -0.92162 -0.38794 0.01055
vn -0.93064 -0.35073 0.10439
vn -0.34359 0.93889 0.02070
vn -0.05467 0.99736 0.04776
vn -0.04654 0.93122 -0.36146
vn -0.27233 0.75661 -0.59446
vn -0.02700 0.99945 0.01945
vn -0.07141 0.93332 -0.35186
vn 0.10206 -0.01949 -0.99459
vn -0.06816 -0.07936 -0.99451
vn -0.10239 -0.04648 -0.99366
vn 0.03630 -0.92411 -0.38040
vn -0.33160 -0.92872 -0.16592
vn -0.68662 -0.39306 -0.61160
vn 0.11168 0.89658 0.42856
vn 0.30525 -0.23045 0.92397
vn 0.19917 0.22767 0.95315
vn 0.03880 0.91291 0.40632
vn 0.30525 -0.23045 0.92397
vn 0.08425 -0.96119 0.26269
vn 0.06298 -0.93404 0.35156
vn 0.19917 0.22767 0.95315
vn -0.81052 0.58537 0.02006
vn -0.82331 0.49864 0.27115
vn -0.30555 0.83759 0.45286
vn -0.92648 -0.08828 0.36585
vn -0.64056 -0.76387 -0.07861
vn -0.52542 -0.84451 0.10361
vn -0.84031 0.41699 -0.34639
vn -0.93397 -0.22923 -0.27413
vn -0.90898 0.36093 -0.20856
vn -0.85242 0.49157 -0.17814
vn -0.97228 0.05389 0.22754
vn -0.39537 -0.30091 0.86784
vn -0.65607 0.57876 0.48436
vn -0.92671 0.30267 0.22270
vn 0.00922 -0.93984 -0.34148
vn -0.05685 -0.96364 -0.26107
vn 0.00000 -0.99943 -0.03375
vn 0.00000 -0.97495 -0.22241
vn -0.67172 -0.71685 -0.18685
vn -0.58039 -0.80874 0.09529
vn 0.00000 -0.99488 0.10102
vn -0.50537 -0.86239 -0.02988
vn -0.54259 -0.81591 0.19969
vn -0.94983 -0.31161 0.02671
vn -0.52980 -0.17810 -0.82921
vn -0.94983 -0.31161 0.02671
vn -0.80890 0.54443 -0.22200
vn -0.36054 0.82678 -0.43179
vn -0.20554 0.97512 0.08307
vn -0.76060 0.62972 0.15795
vn -0.65607 0.57876 0.48436
vn 0.11842 0.80575 0.58030
vn -0.50537 -0.86239 -0.02988
vn -0.06535 -0.95253 -0.29736
vn 0.14639 -0.96472 0.21882
vn -0.36934 -0.88451 0.28499
vn -0.93260 0.30124 0.19877
vn -0.76060 0.62972 0.15795
vn -0.80890 0.54443 -0.22200
vn -0.69724 -0.61997 0.35985
vn 0.00000 -0.98073 0.19535
vn -0.00000 -0.98433 0.17633
vn -0.48396 -0.84990 0.20848
vn -0.98013 -0.14584 0.13444
vn -0.86346 0.48268 0.14649
vn -0.88485 -0.33498 0.32378
vn -0.00000 -0.59029 0.80719
vn 0.00000 -0.99575 0.09211
vn 0.00000 -0.98073 0.19535
vn -0.14810 -0.02283 0.98871
vn -0.10013 0.95117 0.29197
vn 0.00000 0.83559 0.54936
vn -0.00000 -0.82832 0.56026
vn -0.00000 -0.98392 0.17863
vn -0.07835 0.99569 0.04963
vn -0.21899 0.92197 -0.31940
vn 0.49389 -0.30381 0.81472
vn 0.39928 -0.09322 0.91208
vn 0.19029 0.87411 0.44690
vn -0.06426 0.99681 0.04732
vn -0.26317 0.93672 -0.23086
vn -0.97875 -0.06686 -0.19385
vn -0.64891 -0.17670 -0.74006
vn -0.36294 0.93180 -0.00409
vn 0.00157 0.88676 0.46223
vn -0.20674 0.94193 0.26462
vn 0.15166 -0.97154 0.18194
vn -0.13378 -0.93558 -0.32680
vn -0.00656 -0.96032 0.27881
vn -0.22416 -0.94291 -0.24632
vn -0.28563 -0.95293 -0.10172
vn -0.27680 -0.93638 0.21582
vn -0.59902 0.17716 0.78089
vn 0.00246 0.01776 0.99984
vn 0.39928 -0.09322 0.91208
vn -0.33626 -0.01018 -0.94171
vn -0.00000 -0.99959 -0.02871
vn -0.00000 0.99821 -0.05981
vn -0.89873 0.43835 -0.01153
vn -0.89118 -0.45274 -0.02876
vn -0.99955 -0.01769 0.02410
vn -0.59902 0.17716 0.78089
vn -0.49967 0.86010 -0.10273
vn -0.55973 0.82868 -0.00001
vn -0.53678 0.83501 -0.12091
vn -0.36934 -0.88451 0.28499
vn -0.33160 -0.92872 -0.16592
vn -0.84031 0.41699 -0.34639
vn -0.68662 -0.39306 -0.61160
vn -0.00000 0.99946 0.03298
vn -0.00000 0.99891 -0.04663
vn -0.85336 0.52114 0.01370
vn -0.83464 0.54869 0.04819
vn -0.77461 -0.63121 0.03939
vn -0.98940 -0.13167 0.06125
vn -0.99868 -0.03739 0.03528
vn -0.85228 -0.52308 -0.00148
vn -0.58400 0.03347 0.81107
vn -0.18063 0.95205 0.24692
vn -0.01710 -0.29233 0.95617
vn -0.01710 -0.29233 0.95617
vn 0.03773 -0.96872 0.24528
vn -0.08310 -0.93547 0.34351
vn -0.14810 -0.02283 0.98871
vn -0.14054 -0.96567 0.21848
vn -0.58400 0.03347 0.81107
vn -0.23179 -0.95882 -0.16412
vn -0.43503 -0.89390 0.10811
vn -0.12291 -0.97139 -0.20321
vn -0.36804 0.92605 0.08355
vn -0.04156 0.99903 0.01485
vn -0.52542 -0.84451 0.10361
vn -0.92648 -0.08828 0.36585
vn -0.19788 0.93454 -0.29576
vn -0.41781 -0.07131 -0.90573
vn -0.97323 0.02007 0.22897
vn -0.83187 -0.04766 -0.55292
vn -0.29072 0.94144 -0.17082
vn -0.83187 -0.04766 -0.55292
vn -0.97323 0.02007 0.22897
vn -0.00000 -0.99954 0.03027
vn 0.00000 -0.99315 -0.11683
vn 0.00000 -0.99849 -0.05502
vn -0.55474 -0.75052 -0.35914
vn -0.48633 -0.78736 -0.37887
vn -0.00000 -0.98650 0.16377
vn -0.39537 -0.30091 0.86784
vn 0.49389 -0.30381 0.81472
vn -0.00000 -0.91370 -0.40638
vn -0.00000 -0.98473 -0.17410
vn -0.93585 0.07379 -0.34459
vn -0.93585 0.07379 -0.34459
vn -0.93585 0.07379 -0.34459
vn -0.92385 0.11494 -0.36509
vn -0.92385 0.11494 -0.36509
vn -0.92385 0.11494 -0.36509
vn -0.85444 0.10072 -0.50969
vn -0.85444 0.10072 -0.50969
vn -0.85444 0.10072 -0.50969
vn -0.79354 0.06285 -0.60526
vn -0.79354 0.06285 -0.60526
vn -0.79354 0.06285 -0.60526
vn -0.59289 0.17459 -0.78613
vn -0.59289 0.17461 -0.78613
vn -0.00000 0.21681 -0.97621
vn -0.00000 0.21679 -0.97622
vn -0.92648 -0.08828 0.36585
vn 0.00000 0.98458 0.17495
vn -0.72078 0.66782 0.18574
vn 0.00000 0.98770 0.15635
vn -0.76481 0.62923 0.13837
vn -0.39537 -0.30091 0.86784
vn 0.00246 0.01776 0.99984
vn -0.90282 -0.13180 -0.40933
vn -0.90282 -0.13180 -0.40933
vn -0.90282 -0.13180 -0.40933
vn -0.93106 -0.12492 -0.34282
vn -0.93106 -0.12492 -0.34282
vn -0.93106 -0.12492 -0.34282
vn -0.88301 -0.10476 -0.45751
vn -0.88301 -0.10476 -0.45751
vn -0.88301 -0.10476 -0.45751
vn -0.82819 -0.10097 -0.55127
vn -0.82819 -0.10097 -0.55127
vn -0.82819 -0.10097 -0.55127
vn -0.78325 -0.10451 -0.61286
vn -0.78325 -0.10451 -0.61286
vn -0.78325 -0.10451 -0.61286
vn 0.00000 0.99023 -0.13942
vn 0.00000 0.99132 -0.13145
vn 0.00000 0.99993 -0.01203
vn -0.00000 0.96345 -0.26788
vn -0.00000 -0.98473 -0.17410
vn -0.00000 -0.78712 -0.61680
vn 0.00000 -0.44536 -0.89535
vn 0.00000 0.98639 0.16442
vn 0.00000 -0.54978 0.83531
vn 0.00000 -0.06614 -0.99781
vn 0.50730 0.65432 -0.56081
vn 0.59773 0.65328 -0.46470
vn -0.28424 0.95149 0.11778
vn -0.33999 0.93805 0.06677
vn 0.89882 0.35593 -0.25581
vn 0.94373 0.27541 -0.18308
vn 0.90776 0.26009 -0.32913
vn 0.92563 0.30726 -0.22090
vn 0.91848 0.33576 -0.20895
vn 0.93291 0.26609 -0.24262
vn 0.67066 -0.58449 -0.45672
vn 0.82628 -0.10113 -0.55411
vn 0.67905 -0.24303 -0.69270
vn 0.47202 -0.63092 -0.61573
vn 0.90702 -0.16888 -0.38574
vn 0.59935 -0.76987 -0.21927
vn 0.72079 -0.63076 -0.28739
vn 0.90159 -0.26506 -0.34187
vn 0.72029 -0.66375 -0.20154
vn 0.56041 0.45553 -0.69169
vn 0.58222 0.30733 -0.75270
vn 0.82008 0.48222 -0.30812
vn 0.84034 0.31702 -0.43968
vn 0.91553 0.26012 -0.30684
vn 0.92435 0.09364 -0.36989
vn 0.97496 0.07442 -0.20957
vn 0.93357 0.31087 -0.17835
vn 0.90857 -0.31427 -0.27519
vn -0.33434 0.94245 0.00354
vn -0.35547 0.93406 0.03420
vn -0.34529 0.92676 -0.14794
vn -0.35748 -0.92630 -0.11902
vn -0.38791 -0.92096 -0.03676
vn -0.45724 -0.87609 0.15295
vn -0.49826 -0.80837 0.31348
vn -0.52721 -0.67410 0.51733
vn 0.94934 0.31281 0.03004
vn 0.68928 0.72124 -0.06856
vn 0.53678 0.83501 -0.12091
vn 0.66880 0.74216 -0.04367
vn 0.55688 -0.82876 -0.05515
vn 0.55474 -0.75052 -0.35914
vn 0.93397 -0.22923 -0.27413
vn 0.97936 -0.16421 -0.11786
vn 0.90898 0.36093 -0.20856
vn 0.92104 0.36745 -0.12912
vn 0.91729 0.31192 -0.24756
vn 0.98706 0.02831 -0.15784
vn 0.41258 0.87626 -0.24887
vn 0.63693 0.68301 -0.35752
vn 0.66622 0.62377 -0.40874
vn 0.62840 -0.76616 -0.13462
vn -0.33978 -0.80841 -0.48066
vn -0.32498 -0.94543 0.02346
vn -0.26600 0.94946 -0.16664
vn 0.78326 0.27051 -0.55975
vn 0.87747 0.26565 -0.39935
vn 0.89624 0.28431 -0.34048
vn 0.98644 -0.05822 -0.15347
vn 0.96890 -0.16372 -0.18556
vn 0.98644 -0.05822 -0.15347
vn 0.99168 0.04799 -0.11946
vn 0.93550 0.06050 -0.34810
vn 0.93550 0.06050 -0.34810
vn 0.93550 0.06050 -0.34810
vn 0.76481 0.62923 0.13837
vn 0.82021 0.56644 0.08000
vn 0.97228 0.05389 0.22754
vn 0.69724 -0.61997 0.35985
vn 0.77168 -0.62614 0.11160
vn 0.99463 0.06216 0.08269
vn 0.97243 0.00670 0.23310
vn 0.86171 0.37356 0.34338
vn 0.90822 0.39681 0.13299
vn 0.99809 -0.01361 0.06019
vn 0.55453 0.82700 0.09259
vn 0.65523 0.73530 0.17320
vn 0.81052 0.58537 0.02006
vn 0.82331 0.49864 0.27115
vn 0.90445 0.42523 0.03381
vn 0.90707 0.42058 0.01840
vn 0.99948 -0.01046 0.03039
vn 0.92162 -0.38794 0.01055
vn 0.93064 -0.35073 0.10439
vn 0.34359 0.93889 0.02070
vn 0.27233 0.75661 -0.59446
vn 0.04654 0.93122 -0.36146
vn 0.05467 0.99736 0.04776
vn 0.07141 0.93332 -0.35186
vn 0.02700 0.99945 0.01945
vn -0.10206 -0.01949 -0.99459
vn 0.06816 -0.07936 -0.99451
vn 0.10239 -0.04648 -0.99366
vn -0.03630 -0.92411 -0.38040
vn 0.68662 -0.39306 -0.61160
vn 0.33160 -0.92872 -0.16592
vn -0.11168 0.89658 0.42856
vn -0.03880 0.91291 0.40632
vn -0.19917 0.22767 0.95315
vn -0.30525 -0.23045 0.92397
vn -0.30525 -0.23045 0.92397
vn -0.19917 0.22767 0.95315
vn -0.06298 -0.93404 0.35156
vn -0.08425 -0.96120 0.26269
vn 0.81052 0.58537 0.02006
vn 0.30555 0.83759 0.45286
vn 0.82331 0.49864 0.27115
vn 0.92648 -0.08828 0.36585
vn 0.52542 -0.84451 0.10361
vn 0.64056 -0.76387 -0.07861
vn 0.84031 0.41699 -0.34639
vn 0.85242 0.49157 -0.17814
vn 0.90898 0.36093 -0.20856
vn 0.93397 -0.22923 -0.27413
vn 0.97228 0.05389 0.22754
vn 0.92671 0.30267 0.22270
vn 0.65607 0.57876 0.48436
vn 0.39537 -0.30091 0.86784
vn -0.00922 -0.93984 -0.34148
vn 0.05685 -0.96364 -0.26107
vn 0.67172 -0.71685 -0.18685
vn 0.58039 -0.80874 0.09529
vn 0.50537 -0.86239 -0.02988
vn 0.94983 -0.31161 0.02671
vn 0.54259 -0.81591 0.19969
vn 0.52980 -0.17810 -0.82921
vn 0.36054 0.82678 -0.43179
vn 0.80890 0.54443 -0.22200
vn 0.94983 -0.31161 0.02671
vn 0.20554 0.97512 0.08307
vn -0.11842 0.80575 0.58030
vn 0.65607 0.57876 0.48436
vn 0.76060 0.62972 0.15795
vn 0.50537 -0.86239 -0.02988
vn 0.06535 -0.95253 -0.29736
vn 0.36934 -0.88451 0.28499
vn -0.14639 -0.96472 0.21882
vn 0.93260 0.30124 0.19877
vn 0.80890 0.54443 -0.22200
vn 0.76060 0.62972 0.15795
vn 0.69724 -0.61997 0.35985
vn 0.48396 -0.84990 0.20848
vn 0.86346 0.48268 0.14649
vn 0.98013 -0.14584 0.13444
vn 0.88485 -0.33498 0.32378
vn 0.10013 0.95117 0.29197
vn 0.14810 -0.02283 0.98871
vn 0.21899 0.92197 -0.31940
vn 0.07835 0.99569 0.04963
vn -0.49389 -0.30381 0.81472
vn -0.19029 0.87411 0.44690
vn -0.39928 -0.09322 0.91208
vn 0.26317 0.93672 -0.23086
vn 0.06426 0.99681 0.04732
vn 0.97875 -0.06686 -0.19385
vn 0.36294 0.93180 -0.00409
vn 0.64891 -0.17670 -0.74006
vn 0.20674 0.94193 0.26462
vn -0.00157 0.88676 0.46223
vn -0.15166 -0.97154 0.18194
vn 0.13378 -0.93558 -0.32680
vn 0.00656 -0.96032 0.27881
vn 0.22416 -0.94291 -0.24632
vn 0.27680 -0.93638 0.21582
vn 0.28563 -0.95293 -0.10172
vn 0.59902 0.17716 0.78089
vn -0.00246 0.01776 0.99984
vn -0.39928 -0.09322 0.91208
vn 0.33626 -0.01018 -0.94171
vn 0.89873 0.43835 -0.01153
vn 0.89118 -0.45274 -0.02876
vn 0.99955 -0.01769 0.02410
vn 0.59902 0.17716 0.78089
vn 0.49967 0.86010 -0.10273
vn 0.55973 0.82868 -0.00001
vn 0.53678 0.83501 -0.12091
vn 0.36934 -0.88451 0.28499
vn 0.33160 -0.92872 -0.16592
vn 0.84031 0.41699 -0.34639
vn 0.68662 -0.39306 -0.61160
vn 0.83464 0.54869 0.04819
vn 0.85336 0.52114 0.01370
vn 0.77461 -0.63121 0.03939
vn 0.85228 -0.52308 -0.00148
vn 0.99868 -0.03739 0.03528
vn 0.98940 -0.13167 0.06125
vn 0.18063 0.95205 0.24692
vn 0.58400 0.03347 0.81107
vn 0.01710 -0.29233 0.95617
vn -0.03773 -0.96872 0.24528
vn 0.01710 -0.29233 0.95617
vn 0.14810 -0.02283 0.98871
vn 0.08310 -0.93547 0.34351
vn 0.58400 0.03347 0.81107
vn 0.14054 -0.96567 0.21848
vn 0.12291 -0.97139 -0.20321
vn 0.43503 -0.89390 0.10811
vn 0.23179 -0.95882 -0.16412
vn 0.04156 0.99903 0.01485
vn 0.36804 0.92605 0.08355
vn 0.52542 -0.84451 0.10361
vn 0.92648 -0.08828 0.36585
vn 0.41781 -0.07131 -0.90573
vn 0.19788 0.93454 -0.29576
vn 0.29072 0.94144 -0.17082
vn 0.83187 -0.04766 -0.55292
vn 0.97323 0.02007 0.22897
vn 0.97323 0.02007 0.22897
vn 0.83187 -0.04766 -0.55292
vn 0.55474 -0.75052 -0.35914
vn 0.48633 -0.78736 -0.37887
vn 0.39537 -0.30091 0.86784
vn -0.49389 -0.30381 0.81472
vn 0.93585 0.07379 -0.34459
vn 0.93585 0.07379 -0.34459
vn 0.93585 0.07379 -0.34459
vn 0.92385 0.11494 -0.36509
vn 0.92385 0.11494 -0.36509
vn 0.92385 0.11494 -0.36509
vn 0.85444 0.10072 -0.50969
vn 0.85444 0.10072 -0.50969
vn 0.85444 0.10072 -0.50969
vn 0.79354 0.06285 -0.60526
vn 0.79354 0.06285 -0.60526
vn 0.79354 0.06285 -0.60526
vn 0.59289 0.17459 -0.78613
vn 0.59289 0.17461 -0.78613
vn 0.92648 -0.08828 0.36585
vn 0.72078 0.66782 0.18574
vn 0.76481 0.62923 0.13837
vn 0.39537 -0.30091 0.86784
vn -0.00246 0.01776 0.99984
vn 0.90282 -0.13180 -0.40933
vn 0.90282 -0.13180 -0.40933
vn 0.90282 -0.13180 -0.40933
vn 0.93106 -0.12492 -0.34282
vn 0.93106 -0.12492 -0.34282
vn 0.93106 -0.12492 -0.34282
vn 0.88301 -0.10476 -0.45751
vn 0.88301 -0.10476 -0.45751
vn 0.88301 -0.10476 -0.45751
vn 0.82819 -0.10097 -0.55127
vn 0.82819 -0.10097 -0.55127
vn 0.82819 -0.10097 -0.55127
vn 0.78325 -0.10451 -0.61286
vn 0.78325 -0.10451 -0.61286
vn 0.78325 -0.10451 -0.61286
f 50/50/50 352/352/352 353/353/353
f 353/353/353 51/51/51 50/50/50
f 52/52/52 53/53/53 50/50/50
f 50/50/50 51/51/51 52/52/52
f 316/316/316 51/51/51 353/353/353
f 316/316/316 52/52/52 51/51/51
f 416/416/416 417/417/417 414/414/414
f 414/414/414 417/417/417 506/506/506
f 132/132/132 133/133/133 134/134/134
f 239/239/239 133/133/133 132/132/132
f 132/132/132 142/142/142 239/239/239
f 286/286/286 239/239/239 142/142/142
f 142/142/142 141/141/141 286/286/286
f 140/140/140 141/141/141 142/142/142
f 350/350/350 45/45/45 44/44/44
f 44/44/44 349/349/349 350/350/350
f 46/46/46 47/47/47 44/44/44
f 44/44/44 45/45/45 46/46/46
f 45/45/45 350/350/350 351/351/351
f 351/351/351 49/49/49 45/45/45
f 45/45/45 49/49/49 48/48/48
f 48/48/48 46/46/46 45/45/45
f 49/49/49 351/351/351 352/352/352
f 352/352/352 50/50/50 49/49/49
f 53/53/53 48/48/48 49/49/49
f 49/49/49 50/50/50 53/53/53
f 6/6/6 5/5/5 315/315/315
f 7/7/7 8/8/8 5/5/5
f 5/5/5 6/6/6 7/7/7
f 6/6/6 315/315/315 320/320/320
f 7/7/7 6/6/6 320/320/320
f 346/346/346 39/39/39 7/7/7
f 7/7/7 321/321/321 346/346/346
f 320/320/320 321/321/321 7/7/7
f 40/40/40 8/8/8 7/7/7
f 7/7/7 39/39/39 40/40/40
f 346/346/346 347/347/347 39/39/39
f 42/42/42 39/39/39 347/347/347
f 444/444/444 443/443/443 486/486/486
f 486/486/486 443/443/443 452/452/452
f 443/443/443 446/446/446 451/451/451
f 451/451/451 452/452/452 443/443/443
f 445/445/445 446/446/446 443/443/443
f 443/443/443 444/444/444 445/445/445
f 486/486/486 465/465/465 444/444/444
f 450/450/450 445/445/445 444/444/444
f 444/444/444 447/447/447 450/450/450
f 447/447/447 444/444/444 465/465/465
f 465/465/465 486/486/486 474/474/474
f 474/474/474 486/486/486 478/478/478
f 215/215/215 164/164/164 167/167/167
f 173/173/173 164/164/164 215/215/215
f 164/164/164 173/173/173 172/172/172
f 172/172/172 165/165/165 164/164/164
f 166/166/166 167/167/167 164/164/164
f 164/164/164 165/165/165 166/166/166
f 202/202/202 215/215/215 195/195/195
f 167/167/167 195/195/195 215/215/215
f 207/207/207 215/215/215 202/202/202
f 215/215/215 207/207/207 173/173/173
f 169/169/169 168/168/168 167/167/167
f 167/167/167 166/166/166 169/169/169
f 522/522/522 517/517/517 516/516/516
f 517/517/517 522/522/522 523/523/523
f 517/517/517 524/524/524 505/505/505
f 505/505/505 504/504/504 517/517/517
f 523/523/523 524/524/524 517/517/517
f 516/516/516 517/517/517 504/504/504
f 504/504/504 463/463/463 516/516/516
f 463/463/463 504/504/504 505/505/505
f 505/505/505 464/464/464 463/463/463
f 415/415/415 463/463/463 464/464/464
f 464/464/464 416/416/416 415/415/415
f 414/414/414 415/415/415 416/416/416
f 256/256/256 257/257/257 249/249/249
f 249/249/249 255/255/255 256/256/256
f 250/250/250 249/249/249 257/257/257
f 249/249/249 238/238/238 237/237/237
f 237/237/237 255/255/255 249/249/249
f 238/238/238 249/249/249 250/250/250
f 250/250/250 190/190/190 238/238/238
f 237/237/237 238/238/238 190/190/190
f 190/190/190 189/189/189 237/237/237
f 189/189/189 190/190/190 135/135/135
f 135/135/135 134/134/134 189/189/189
f 134/134/134 135/135/135 132/132/132
f 423/423/423 402/402/402 405/405/405
f 402/402/402 422/422/422 496/496/496
f 496/496/496 403/403/403 402/402/402
f 422/422/422 402/402/402 423/423/423
f 404/404/404 405/405/405 402/402/402
f 402/402/402 403/403/403 404/404/404
f 545/545/545 424/424/424 423/423/423
f 423/423/423 506/506/506 545/545/545
f 405/405/405 414/414/414 423/423/423
f 506/506/506 423/423/423 414/414/414
f 423/423/423 424/424/424 422/422/422
f 414/414/414 405/405/405 407/407/407
f 513/513/513 510/510/510 512/512/512
f 526/526/526 515/515/515 514/514/514
f 514/514/514 525/525/525 526/526/526
f 512/512/512 514/514/514 515/515/515
f 514/514/514 512/512/512 511/511/511
f 511/511/511 512/512/512 510/510/510
f 510/510/510 509/509/509 511/511/511
f 509/509/509 510/510/510 420/420/420
f 511/511/511 525/525/525 514/514/514
f 420/420/420 419/419/419 509/509/509
f 420/420/420 421/421/421 418/418/418
f 418/418/418 419/419/419 420/420/420
f 411/411/411 507/507/507 421/421/421
f 421/421/421 436/436/436 411/411/411
f 508/508/508 418/418/418 421/421/421
f 421/421/421 507/507/507 508/508/508
f 507/507/507 411/411/411 413/413/413
f 411/411/411 436/436/436 408/408/408
f 247/247/247 259/259/259 245/245/245
f 243/243/243 139/139/139 138/138/138
f 138/138/138 139/139/139 136/136/136
f 155/155/155 138/138/138 137/137/137
f 136/136/136 137/137/137 138/138/138
f 137/137/137 136/136/136 240/240/240
f 129/129/129 154/154/154 137/137/137
f 137/137/137 241/241/241 129/129/129
f 137/137/137 154/154/154 155/155/155
f 240/240/240 241/241/241 137/137/137
f 240/240/240 252/252/252 251/251/251
f 251/251/251 241/241/241 240/240/240
f 241/241/241 251/251/251 130/130/130
f 130/130/130 129/129/129 241/241/241
f 129/129/129 130/130/130 131/131/131
f 129/129/129 127/127/127 126/126/126
f 126/126/126 154/154/154 129/129/129
f 131/131/131 127/127/127 129/129/129
f 452/452/452 478/478/478 486/486/486
f 474/474/474 470/470/470 465/465/465
f 466/466/466 465/465/465 470/470/470
f 465/465/465 466/466/466 447/447/447
f 448/448/448 447/447/447 466/466/466
f 449/449/449 450/450/450 447/447/447
f 447/447/447 448/448/448 449/449/449
f 466/466/466 468/468/468 448/448/448
f 468/468/468 466/466/466 471/471/471
f 470/470/470 471/471/471 466/466/466
f 473/473/473 471/471/471 470/470/470
f 470/470/470 474/474/474 472/472/472
f 472/472/472 473/473/473 470/470/470
f 475/475/475 471/471/471 473/473/473
f 471/471/471 476/476/476 468/468/468
f 471/471/471 475/475/475 476/476/476
f 469/469/469 468/468/468 476/476/476
f 468/468/468 469/469/469 467/467/467
f 467/467/467 448/448/448 468/468/468
f 548/548/548 449/449/449 448/448/448
f 448/448/448 467/467/467 548/548/548
f 476/476/476 549/549/549 469/469/469
f 476/476/476 475/475/475 490/490/490
f 490/490/490 549/549/549 476/476/476
f 490/490/490 475/475/475 473/473/473
f 473/473/473 472/472/472 490/490/490
f 195/195/195 167/167/167 168/168/168
f 195/195/195 200/200/200 202/202/202
f 200/200/200 195/195/195 194/194/194
f 168/168/168 194/194/194 195/195/195
f 194/194/194 168/168/168 171/171/171
f 170/170/170 171/171/171 168/168/168
f 168/168/168 169/169/169 170/170/170
f 171/171/171 198/198/198 194/194/194
f 199/199/199 194/194/194 198/198/198
f 194/194/194 199/199/199 200/200/200
f 203/203/203 200/200/200 199/199/199
f 200/200/200 203/203/203 201/201/201
f 201/201/201 202/202/202 200/200/200
f 205/205/205 203/203/203 199/199/199
f 198/198/198 204/204/204 199/199/199
f 199/199/199 204/204/204 205/205/205
f 204/204/204 198/198/198 197/197/197
f 198/198/198 171/171/171 196/196/196
f 196/196/196 197/197/197 198/198/198
f 197/197/197 292/292/292 204/204/204
f 204/204/204 292/292/292 221/221/221
f 221/221/221 205/205/205 204/204/204
f 203/203/203 205/205/205 221/221/221
f 221/221/221 201/201/201 203/203/203
f 201/201/201 212/212/212 211/211/211
f 211/211/211 210/210/210 201/201/201
f 392/392/392 399/399/399 400/400/400
f 400/400/400 401/401/401 392/392/392
f 262/262/262 261/261/261 488/488/488
f 488/488/488 501/501/501 262/262/262
f 501/501/501 488/488/488 489/489/489
f 399/399/399 489/489/489 488/488/488
f 399/399/399 398/398/398 487/487/487
f 487/487/487 489/489/489 399/399/399
f 398/398/398 399/399/399 392/392/392
f 389/389/389 392/392/392 401/401/401
f 392/392/392 391/391/391 398/398/398
f 391/391/391 392/392/392 389/389/389
f 398/398/398 116/116/116 217/217/217
f 217/217/217 487/487/487 398/398/398
f 117/117/117 116/116/116 398/398/398
f 398/398/398 391/391/391 117/117/117
f 230/230/230 499/499/499 487/487/487
f 487/487/487 217/217/217 230/230/230
f 41/41/41 39/39/39 42/42/42
f 40/40/40 39/39/39 41/41/41
f 347/347/347 348/348/348 42/42/42
f 79/79/79 42/42/42 348/348/348
f 43/43/43 42/42/42 79/79/79
f 42/42/42 43/43/43 41/41/41
f 348/348/348 372/372/372 79/79/79
f 79/79/79 80/80/80 43/43/43
f 188/188/188 100/100/100 99/99/99
f 99/99/99 187/187/187 188/188/188
f 235/235/235 234/234/234 232/232/232
f 233/233/233 234/234/234 235/235/235
f 95/95/95 229/229/229 232/232/232
f 232/232/232 231/231/231 235/235/235
f 231/231/231 232/232/232 229/229/229
f 220/220/220 235/235/235 231/231/231
f 236/236/236 235/235/235 220/220/220
f 235/235/235 236/236/236 233/233/233
f 262/262/262 260/260/260 233/233/233
f 233/233/233 236/236/236 262/262/262
f 233/233/233 260/260/260 187/187/187
f 262/262/262 236/236/236 219/219/219
f 220/220/220 219/219/219 236/236/236
f 231/231/231 218/218/218 220/220/220
f 114/114/114 220/220/220 218/218/218
f 219/219/219 220/220/220 114/114/114
f 218/218/218 231/231/231 230/230/230
f 229/229/229 230/230/230 231/231/231
f 230/230/230 217/217/217 218/218/218
f 218/218/218 115/115/115 114/114/114
f 115/115/115 218/218/218 217/217/217
f 114/114/114 118/118/118 219/219/219
f 118/118/118 114/114/114 102/102/102
f 102/102/102 114/114/114 115/115/115
f 121/121/121 120/120/120 142/142/142
f 120/120/120 123/123/123 227/227/227
f 227/227/227 140/140/140 120/120/120
f 142/142/142 120/120/120 140/140/140
f 122/122/122 123/123/123 120/120/120
f 120/120/120 121/121/121 122/122/122
f 142/142/142 132/132/132 121/121/121
f 124/124/124 121/121/121 132/132/132
f 125/125/125 122/122/122 121/121/121
f 121/121/121 124/124/124 125/125/125
f 122/122/122 125/125/125 128/128/128
f 128/128/128 126/126/126 122/122/122
f 489/489/489 487/487/487 499/499/499
f 499/499/499 502/502/502 489/489/489
f 489/489/489 502/502/502 501/501/501
f 502/502/502 499/499/499 498/498/498
f 499/499/499 230/230/230 229/229/229
f 229/229/229 498/498/498 499/499/499
f 498/498/498 503/503/503 502/502/502
f 502/502/502 503/503/503 500/500/500
f 500/500/500 501/501/501 502/502/502
f 95/95/95 384/384/384 498/498/498
f 498/498/498 229/229/229 95/95/95
f 388/388/388 503/503/503 498/498/498
f 498/498/498 384/384/384 388/388/388
f 387/387/387 500/500/500 503/503/503
f 503/503/503 388/388/388 387/387/387
f 385/385/385 388/388/388 384/384/384
f 387/387/387 388/388/388 385/385/385
f 384/384/384 383/383/383 385/385/385
f 383/383/383 384/384/384 95/95/95
f 95/95/95 94/94/94 383/383/383
f 385/385/385 386/386/386 387/387/387
f 500/500/500 387/387/387 187/187/187
f 202/202/202 201/201/201 210/210/210
f 210/210/210 209/209/209 202/202/202
f 202/202/202 209/209/209 207/207/207
f 210/210/210 211/211/211 208/208/208
f 208/208/208 209/209/209 210/210/210
f 208/208/208 211/211/211 212/212/212
f 212/212/212 213/213/213 208/208/208
f 208/208/208 213/213/213 214/214/214
f 214/214/214 206/206/206 208/208/208
f 207/207/207 209/209/209 208/208/208
f 208/208/208 206/206/206 207/207/207
f 173/173/173 207/207/207 206/206/206
f 206/206/206 214/214/214 267/267/267
f 267/267/267 174/174/174 206/206/206
f 206/206/206 174/174/174 173/173/173
f 175/175/175 172/172/172 173/173/173
f 173/173/173 174/174/174 175/175/175
f 174/174/174 267/267/267 266/266/266
f 452/452/452 451/451/451 453/453/453
f 454/454/454 453/453/453 529/529/529
f 529/529/529 530/530/530 454/454/454
f 97/97/97 93/93/93 96/96/96
f 95/95/95 96/96/96 93/93/93
f 93/93/93 94/94/94 95/95/95
f 96/96/96 98/98/98 97/97/97
f 99/99/99 100/100/100 97/97/97
f 97/97/97 98/98/98 99/99/99
f 232/232/232 96/96/96 95/95/95
f 98/98/98 96/96/96 232/232/232
f 232/232/232 234/234/234 98/98/98
f 99/99/99 98/98/98 234/234/234
f 187/187/187 99/99/99 233/233/233
f 234/234/234 233/233/233 99/99/99
f 162/162/162 265/265/265 160/160/160
f 160/160/160 159/159/159 162/162/162
f 163/163/163 162/162/162 159/159/159
f 161/161/161 162/162/162 163/163/163
f 442/442/442 439/439/439 160/160/160
f 156/156/156 160/160/160 439/439/439
f 159/159/159 160/160/160 156/156/156
f 439/439/439 442/442/442 441/441/441
f 440/440/440 442/442/442 459/459/459
f 440/440/440 441/441/441 442/442/442
f 494/494/494 459/459/459 458/458/458
f 459/459/459 494/494/494 440/440/440
f 458/458/458 435/435/435 494/494/494
f 432/432/432 435/435/435 458/458/458
f 434/434/434 435/435/435 432/432/432
f 433/433/433 432/432/432 547/547/547
f 432/432/432 433/433/433 434/434/434
f 433/433/433 457/457/457 434/434/434
f 393/393/393 394/394/394 109/109/109
f 110/110/110 109/109/109 287/287/287
f 176/176/176 110/110/110 288/288/288
f 287/287/287 288/288/288 110/110/110
f 110/110/110 176/176/176 184/184/184
f 289/289/289 287/287/287 546/546/546
f 394/394/394 546/546/546 287/287/287
f 288/288/288 287/287/287 289/289/289
f 546/546/546 394/394/394 455/455/455
f 394/394/394 393/393/393 460/460/460
f 460/460/460 455/455/455 394/394/394
f 460/460/460 393/393/393 492/492/492
f 492/492/492 397/397/397 460/460/460
f 461/461/461 460/460/460 397/397/397
f 455/455/455 460/460/460 461/461/461
f 441/441/441 456/456/456 455/455/455
f 433/433/433 455/455/455 457/457/457
f 455/455/455 433/433/433 546/546/546
f 461/461/461 441/441/441 455/455/455
f 455/455/455 456/456/456 457/457/457
f 547/547/547 546/546/546 433/433/433
f 546/546/546 547/547/547 289/289/289
f 289/289/289 290/290/290 288/288/288
f 290/290/290 150/150/150 153/153/153
f 153/153/153 288/288/288 290/290/290
f 288/288/288 153/153/153 176/176/176
f 472/472/472 482/482/482 481/481/481
f 481/481/481 483/483/483 472/472/472
f 482/482/482 472/472/472 474/474/474
f 474/474/474 480/480/480 482/482/482
f 482/482/482 480/480/480 479/479/479
f 479/479/479 481/481/481 482/482/482
f 483/483/483 481/481/481 479/479/479
f 479/479/479 484/484/484 483/483/483
f 479/479/479 477/477/477 485/485/485
f 485/485/485 484/484/484 479/479/479
f 478/478/478 477/477/477 479/479/479
f 479/479/479 480/480/480 478/478/478
f 478/478/478 480/480/480 474/474/474
f 477/477/477 478/478/478 452/452/452
f 477/477/477 454/454/454 530/530/530
f 530/530/530 485/485/485 477/477/477
f 452/452/452 454/454/454 477/477/477
f 453/453/453 454/454/454 452/452/452
f 441/441/441 461/461/461 439/439/439
f 461/461/461 427/427/427 439/439/439
f 461/461/461 425/425/425 427/427/427
f 397/397/397 425/425/425 461/461/461
f 438/438/438 427/427/427 426/426/426
f 439/439/439 427/427/427 156/156/156
f 157/157/157 156/156/156 427/427/427
f 427/427/427 438/438/438 157/157/157
f 425/425/425 426/426/426 427/427/427
f 396/396/396 425/425/425 397/397/397
f 395/395/395 396/396/396 397/397/397
f 397/397/397 429/429/429 395/395/395
f 397/397/397 492/492/492 491/491/491
f 491/491/491 429/429/429 397/397/397
f 428/428/428 395/395/395 429/429/429
f 429/429/429 491/491/491 493/493/493
f 493/493/493 430/430/430 429/429/429
f 428/428/428 429/429/429 430/430/430
f 309/309/309 491/491/491 492/492/492
f 308/308/308 493/493/493 491/491/491
f 491/491/491 309/309/309 308/308/308
f 223/223/223 222/222/222 309/309/309
f 261/261/261 219/219/219 118/118/118
f 219/219/219 261/261/261 262/262/262
f 118/118/118 216/216/216 261/261/261
f 118/118/118 119/119/119 193/193/193
f 193/193/193 216/216/216 118/118/118
f 102/102/102 119/119/119 118/118/118
f 119/119/119 102/102/102 101/101/101
f 115/115/115 103/103/103 102/102/102
f 101/101/101 102/102/102 103/103/103
f 192/192/192 193/193/193 119/119/119
f 119/119/119 185/185/185 192/192/192
f 101/101/101 185/185/185 119/119/119
f 400/400/400 216/216/216 193/193/193
f 193/193/193 401/401/401 400/400/400
f 401/401/401 193/193/193 192/192/192
f 261/261/261 216/216/216 400/400/400
f 400/400/400 488/488/488 261/261/261
f 488/488/488 400/400/400 399/399/399
f 153/153/153 177/177/177 176/176/176
f 153/153/153 152/152/152 177/177/177
f 152/152/152 153/153/153 150/150/150
f 150/150/150 179/179/179 151/151/151
f 150/150/150 151/151/151 152/152/152
f 225/225/225 151/151/151 179/179/179
f 179/179/179 182/182/182 225/225/225
f 182/182/182 179/179/179 180/180/180
f 161/161/161 225/225/225 182/182/182
f 265/265/265 162/162/162 182/182/182
f 182/182/182 181/181/181 265/265/265
f 182/182/182 162/162/162 161/161/161
f 180/180/180 181/181/181 182/182/182
f 459/459/459 181/181/181 180/180/180
f 180/180/180 458/458/458 459/459/459
f 265/265/265 181/181/181 459/459/459
f 160/160/160 265/265/265 442/442/442
f 459/459/459 442/442/442 265/265/265
f 310/310/310 108/108/108 107/107/107
f 107/107/107 223/223/223 310/310/310
f 223/223/223 107/107/107 184/184/184
f 184/184/184 107/107/107 110/110/110
f 109/109/109 110/110/110 107/107/107
f 107/107/107 108/108/108 109/109/109
f 492/492/492 310/310/310 309/309/309
f 310/310/310 492/492/492 393/393/393
f 393/393/393 108/108/108 310/310/310
f 309/309/309 310/310/310 223/223/223
f 109/109/109 108/108/108 393/393/393
f 287/287/287 109/109/109 394/394/394
f 60/60/60 61/61/61 62/62/62
f 57/57/57 56/56/56 65/65/65
f 58/58/58 57/57/57 54/54/54
f 56/56/56 57/57/57 58/58/58
f 54/54/54 73/73/73 58/58/58
f 58/58/58 73/73/73 355/355/355
f 355/355/355 357/357/357 58/58/58
f 58/58/58 357/357/357 356/356/356
f 356/356/356 59/59/59 58/58/58
f 58/58/58 59/59/59 56/56/56
f 354/354/354 363/363/363 355/355/355
f 363/363/363 357/357/357 355/355/355
f 355/355/355 322/322/322 327/327/327
f 327/327/327 354/354/354 355/355/355
f 362/362/362 356/356/356 357/357/357
f 357/357/357 363/363/363 362/362/362
f 363/363/363 354/354/354 365/365/365
f 365/365/365 361/361/361 363/363/363
f 362/362/362 363/363/363 361/361/361
f 354/354/354 327/327/327 325/325/325
f 325/325/325 365/365/365 354/354/354
f 327/327/327 322/322/322 324/324/324
f 183/183/183 144/144/144 143/143/143
f 143/143/143 144/144/144 145/145/145
f 159/159/159 183/183/183 163/163/163
f 183/183/183 184/184/184 176/176/176
f 176/176/176 163/163/163 183/183/183
f 163/163/163 176/176/176 178/178/178
f 176/176/176 177/177/177 178/178/178
f 12/12/12 13/13/13 10/10/10
f 83/83/83 13/13/13 67/67/67
f 66/66/66 67/67/67 13/13/13
f 13/13/13 12/12/12 66/66/66
f 55/55/55 66/66/66 12/12/12
f 12/12/12 14/14/14 55/55/55
f 54/54/54 55/55/55 14/14/14
f 55/55/55 54/54/54 64/64/64
f 66/66/66 55/55/55 64/64/64
f 74/74/74 66/66/66 61/61/61
f 64/64/64 61/61/61 66/66/66
f 27/27/27 38/38/38 66/66/66
f 66/66/66 74/74/74 27/27/27
f 65/65/65 64/64/64 57/57/57
f 64/64/64 54/54/54 57/57/57
f 61/61/61 64/64/64 65/65/65
f 61/61/61 60/60/60 74/74/74
f 65/65/65 62/62/62 61/61/61
f 266/266/266 175/175/175 174/174/174
f 291/291/291 196/196/196 171/171/171
f 171/171/171 170/170/170 291/291/291
f 308/308/308 309/309/309 222/222/222
f 222/222/222 224/224/224 308/308/308
f 224/224/224 222/222/222 149/149/149
f 112/112/112 149/149/149 222/222/222
f 222/222/222 223/223/223 112/112/112
f 184/184/184 112/112/112 223/223/223
f 113/113/113 112/112/112 143/143/143
f 112/112/112 111/111/111 149/149/149
f 183/183/183 143/143/143 112/112/112
f 112/112/112 184/184/184 183/183/183
f 111/111/111 112/112/112 113/113/113
f 146/146/146 149/149/149 111/111/111
f 149/149/149 148/148/148 224/224/224
f 148/148/148 149/149/149 146/146/146
f 228/228/228 147/147/147 146/146/146
f 146/146/146 147/147/147 148/148/148
f 228/228/228 226/226/226 158/158/158
f 158/158/158 264/264/264 228/228/228
f 228/228/228 264/264/264 263/263/263
f 263/263/263 147/147/147 228/228/228
f 158/158/158 226/226/226 145/145/145
f 264/264/264 158/158/158 157/157/157
f 145/145/145 144/144/144 158/158/158
f 87/87/87 88/88/88 85/85/85
f 85/85/85 86/86/86 87/87/87
f 378/378/378 379/379/379 376/376/376
f 376/376/376 377/377/377 378/378/378
f 157/157/157 158/158/158 144/144/144
f 157/157/157 268/268/268 264/264/264
f 263/263/263 264/264/264 268/268/268
f 268/268/268 269/269/269 263/263/263
f 528/528/528 268/268/268 157/157/157
f 268/268/268 528/528/528 527/527/527
f 527/527/527 269/269/269 268/268/268
f 157/157/157 438/438/438 528/528/528
f 144/144/144 156/156/156 157/157/157
f 497/497/497 528/528/528 438/438/438
f 527/527/527 528/528/528 497/497/497
f 497/497/497 431/431/431 527/527/527
f 438/438/438 495/495/495 497/497/497
f 497/497/497 428/428/428 431/431/431
f 426/426/426 495/495/495 438/438/438
f 430/430/430 431/431/431 428/428/428
f 156/156/156 144/144/144 159/159/159
f 183/183/183 159/159/159 144/144/144
f 327/327/327 324/324/324 325/325/325
f 322/322/322 323/323/323 324/324/324
f 324/324/324 323/323/323 326/326/326
f 325/325/325 324/324/324 326/326/326
f 365/365/365 325/325/325 326/326/326
f 375/375/375 364/364/364 326/326/326
f 375/375/375 326/326/326 323/323/323
f 326/326/326 364/364/364 365/365/365
f 361/361/361 365/365/365 369/369/369
f 336/336/336 369/369/369 365/365/365
f 365/365/365 345/345/345 336/336/336
f 369/369/369 358/358/358 361/361/361
f 361/361/361 360/360/360 362/362/362
f 360/360/360 361/361/361 358/358/358
f 358/358/358 369/369/369 84/84/84
f 25/25/25 84/84/84 369/369/369
f 369/369/369 336/336/336 25/25/25
f 334/334/334 336/336/336 345/345/345
f 25/25/25 336/336/336 334/334/334
f 345/345/345 335/335/335 334/334/334
f 26/26/26 334/334/334 333/333/333
f 334/334/334 26/26/26 25/25/25
f 334/334/334 335/335/335 332/332/332
f 408/408/408 409/409/409 411/411/411
f 412/412/412 413/413/413 411/411/411
f 411/411/411 409/409/409 412/412/412
f 413/413/413 518/518/518 507/507/507
f 508/508/508 507/507/507 518/518/518
f 518/518/518 519/519/519 508/508/508
f 403/403/403 496/496/496 412/412/412
f 412/412/412 409/409/409 403/403/403
f 403/403/403 409/409/409 408/408/408
f 76/76/76 75/75/75 317/317/317
f 77/77/77 78/78/78 75/75/75
f 75/75/75 76/76/76 77/77/77
f 76/76/76 317/317/317 370/370/370
f 77/77/77 76/76/76 370/370/370
f 370/370/370 371/371/371 77/77/77
f 344/344/344 339/339/339 341/341/341
f 339/339/339 340/340/340 341/341/341
f 343/343/343 344/344/344 341/341/341
f 341/341/341 340/340/340 342/342/342
f 342/342/342 343/343/343 341/341/341
f 37/37/37 33/33/33 32/32/32
f 32/32/32 33/33/33 34/34/34
f 36/36/36 33/33/33 37/37/37
f 33/33/33 35/35/35 34/34/34
f 35/35/35 33/33/33 36/36/36
f 332/332/332 333/333/333 334/334/334
f 25/25/25 27/27/27 74/74/74
f 74/74/74 84/84/84 25/25/25
f 21/21/21 27/27/27 25/25/25
f 25/25/25 26/26/26 21/21/21
f 333/333/333 23/23/23 26/26/26
f 22/22/22 21/21/21 26/26/26
f 26/26/26 23/23/23 22/22/22
f 328/328/328 333/333/333 332/332/332
f 23/23/23 333/333/333 328/328/328
f 332/332/332 329/329/329 328/328/328
f 24/24/24 328/328/328 331/331/331
f 328/328/328 24/24/24 23/23/23
f 330/330/330 331/331/331 328/328/328
f 328/328/328 329/329/329 330/330/330
f 23/23/23 24/24/24 15/15/15
f 15/15/15 22/22/22 23/23/23
f 19/19/19 22/22/22 15/15/15
f 322/322/322 366/366/366 367/367/367
f 366/366/366 355/355/355 73/73/73
f 73/73/73 311/311/311 366/366/366
f 355/355/355 366/366/366 322/322/322
f 69/69/69 311/311/311 73/73/73
f 73/73/73 54/54/54 69/69/69
f 54/54/54 9/9/9 69/69/69
f 68/68/68 69/69/69 9/9/9
f 11/11/11 70/70/70 68/68/68
f 9/9/9 11/11/11 68/68/68
f 83/83/83 70/70/70 11/11/11
f 70/70/70 83/83/83 82/82/82
f 11/11/11 13/13/13 83/83/83
f 10/10/10 13/13/13 11/11/11
f 9/9/9 10/10/10 11/11/11
f 14/14/14 9/9/9 54/54/54
f 14/14/14 10/10/10 9/9/9
f 14/14/14 12/12/12 10/10/10
f 296/296/296 297/297/297 298/298/298
f 553/553/553 554/554/554 555/555/555
f 21/21/21 22/22/22 19/19/19
f 16/16/16 15/15/15 24/24/24
f 15/15/15 18/18/18 19/19/19
f 17/17/17 18/18/18 15/15/15
f 15/15/15 16/16/16 17/17/17
f 331/331/331 313/313/313 24/24/24
f 24/24/24 313/313/313 16/16/16
f 331/331/331 330/330/330 314/314/314
f 314/314/314 313/313/313 331/331/331
f 16/16/16 313/313/313 314/314/314
f 314/314/314 17/17/17 16/16/16
f 19/19/19 20/20/20 21/21/21
f 21/21/21 20/20/20 38/38/38
f 38/38/38 27/27/27 21/21/21
f 84/84/84 74/74/74 60/60/60
f 84/84/84 92/92/92 358/358/358
f 60/60/60 92/92/92 84/84/84
f 312/312/312 92/92/92 60/60/60
f 60/60/60 63/63/63 312/312/312
f 62/62/62 63/63/63 60/60/60
f 358/358/358 92/92/92 312/312/312
f 312/312/312 359/359/359 358/358/358
f 358/358/358 359/359/359 360/360/360
f 270/270/270 271/271/271 272/272/272
f 531/531/531 532/532/532 533/533/533
f 89/89/89 90/90/90 91/91/91
f 380/380/380 381/381/381 382/382/382
f 273/273/273 274/274/274 275/275/275
f 534/534/534 535/535/535 536/536/536
f 406/406/406 407/407/407 405/405/405
f 405/405/405 404/404/404 406/406/406
f 404/404/404 408/408/408 410/410/410
f 410/410/410 406/406/406 404/404/404
f 408/408/408 404/404/404 403/403/403
f 407/407/407 406/406/406 521/521/521
f 520/520/520 521/521/521 406/406/406
f 406/406/406 410/410/410 520/520/520
f 463/463/463 415/415/415 407/407/407
f 407/407/407 516/516/516 463/463/463
f 521/521/521 516/516/516 407/407/407
f 407/407/407 415/415/415 414/414/414
f 521/521/521 520/520/520 523/523/523
f 523/523/523 522/522/522 521/521/521
f 516/516/516 521/521/521 522/522/522
f 526/526/526 520/520/520 513/513/513
f 437/437/437 513/513/513 520/520/520
f 520/520/520 410/410/410 437/437/437
f 436/436/436 437/437/437 410/410/410
f 410/410/410 408/408/408 436/436/436
f 513/513/513 437/437/437 420/420/420
f 421/421/421 420/420/420 437/437/437
f 437/437/437 436/436/436 421/421/421
f 513/513/513 515/515/515 526/526/526
f 420/420/420 510/510/510 513/513/513
f 513/513/513 512/512/512 515/515/515
f 293/293/293 294/294/294 295/295/295
f 550/550/550 551/551/551 552/552/552
f 299/299/299 300/300/300 301/301/301
f 556/556/556 557/557/557 558/558/558
f 154/154/154 126/126/126 128/128/128
f 128/128/128 155/155/155 154/154/154
f 126/126/126 127/127/127 123/123/123
f 123/123/123 127/127/127 131/131/131
f 131/131/131 227/227/227 123/123/123
f 123/123/123 122/122/122 126/126/126
f 253/253/253 125/125/125 124/124/124
f 254/254/254 128/128/128 125/125/125
f 125/125/125 253/253/253 254/254/254
f 190/190/190 250/250/250 124/124/124
f 124/124/124 135/135/135 190/190/190
f 124/124/124 250/250/250 253/253/253
f 132/132/132 135/135/135 124/124/124
f 253/253/253 257/257/257 256/256/256
f 256/256/256 254/254/254 253/253/253
f 257/257/257 253/253/253 250/250/250
f 248/248/248 254/254/254 258/258/258
f 155/155/155 128/128/128 254/254/254
f 254/254/254 248/248/248 155/155/155
f 258/258/258 246/246/246 248/248/248
f 138/138/138 155/155/155 248/248/248
f 248/248/248 242/242/242 138/138/138
f 248/248/248 244/244/244 242/242/242
f 248/248/248 246/246/246 244/244/244
f 258/258/258 259/259/259 247/247/247
f 247/247/247 246/246/246 258/258/258
f 246/246/246 247/247/247 244/244/244
f 245/245/245 244/244/244 247/247/247
f 242/242/242 244/244/244 245/245/245
f 245/245/245 243/243/243 242/242/242
f 138/138/138 242/242/242 243/243/243
f 276/276/276 277/277/277 278/278/278
f 537/537/537 538/538/538 539/539/539
f 82/82/82 4/4/4 70/70/70
f 71/71/71 3/3/3 319/319/319
f 3/3/3 2/2/2 318/318/318
f 318/318/318 319/319/319 3/3/3
f 2/2/2 29/29/29 337/337/337
f 337/337/337 318/318/318 2/2/2
f 337/337/337 29/29/29 31/31/31
f 31/31/31 338/338/338 337/337/337
f 373/373/373 318/318/318 337/337/337
f 337/337/337 338/338/338 373/373/373
f 319/319/319 318/318/318 373/373/373
f 319/319/319 368/368/368 71/71/71
f 368/368/368 319/319/319 374/374/374
f 373/373/373 374/374/374 319/319/319
f 72/72/72 71/71/71 368/368/368
f 70/70/70 71/71/71 72/72/72
f 323/323/323 368/368/368 375/375/375
f 374/374/374 375/375/375 368/368/368
f 323/323/323 367/367/367 368/368/368
f 368/368/368 367/367/367 72/72/72
f 72/72/72 367/367/367 366/366/366
f 366/366/366 311/311/311 72/72/72
f 72/72/72 311/311/311 69/69/69
f 69/69/69 68/68/68 72/72/72
f 72/72/72 68/68/68 70/70/70
f 367/367/367 323/323/323 322/322/322
f 302/302/302 303/303/303 304/304/304
f 559/559/559 560/560/560 561/561/561
f 28/28/28 1/1/1 81/81/81
f 81/81/81 1/1/1 4/4/4
f 2/2/2 1/1/1 28/28/28
f 3/3/3 4/4/4 1/1/1
f 1/1/1 2/2/2 3/3/3
f 81/81/81 30/30/30 28/28/28
f 31/31/31 29/29/29 28/28/28
f 28/28/28 30/30/30 31/31/31
f 28/28/28 29/29/29 2/2/2
f 4/4/4 82/82/82 81/81/81
f 4/4/4 3/3/3 71/71/71
f 71/71/71 70/70/70 4/4/4
f 279/279/279 280/280/280 281/281/281
f 540/540/540 541/541/541 542/542/542
f 305/305/305 306/306/306 307/307/307
f 562/562/562 563/563/563 564/564/564
f 401/401/401 462/462/462 389/389/389
f 462/462/462 192/192/192 186/186/186
f 192/192/192 462/462/462 401/401/401
f 185/185/185 186/186/186 192/192/192
f 217/217/217 116/116/116 115/115/115
f 188/188/188 187/187/187 387/387/387
f 387/387/387 386/386/386 188/188/188
f 262/262/262 501/501/501 500/500/500
f 500/500/500 260/260/260 262/262/262
f 187/187/187 260/260/260 500/500/500
f 191/191/191 117/117/117 391/391/391
f 103/103/103 117/117/117 191/191/191
f 117/117/117 103/103/103 115/115/115
f 115/115/115 116/116/116 117/117/117
f 105/105/105 191/191/191 390/390/390
f 391/391/391 390/390/390 191/191/191
f 105/105/105 104/104/104 191/191/191
f 191/191/191 104/104/104 103/103/103
f 389/389/389 390/390/390 391/391/391
f 106/106/106 105/105/105 390/390/390
f 390/390/390 389/389/389 106/106/106
f 104/104/104 105/105/105 106/106/106
f 106/106/106 101/101/101 104/104/104
f 103/103/103 104/104/104 101/101/101
f 462/462/462 186/186/186 106/106/106
f 106/106/106 389/389/389 462/462/462
f 185/185/185 101/101/101 106/106/106
f 106/106/106 186/186/186 185/185/185
f 284/284/284 285/285/285 282/282/282
f 282/282/282 283/283/283 284/284/284
f 284/284/284 544/544/544 543/543/543
f 543/543/543 285/285/285 284/284/284
