# odobenocetops_ad reconstructed from live game memory
v -12.14808 47.55883 126.32221
v -0.00009 53.09788 126.18346
v -0.00010 49.22869 143.99332
v -8.63623 45.11415 143.99330
v -11.44899 22.76363 126.20651
v -18.32279 35.56925 126.19537
v -14.58564 35.97964 143.99327
v -8.70118 25.47578 143.99368
v -10.89821 36.36815 159.38226
v -6.17098 43.63954 159.38681
v -37.25988 35.59245 -41.30307
v -36.90840 62.33531 -41.32104
v -42.80591 60.85595 -16.91022
v -45.71240 36.73057 -16.46012
v 0.00002 4.65694 -28.61740
v -24.63484 14.53467 -31.21090
v -24.91349 12.55493 -19.79649
v -16.40152 19.35697 99.09197
v -24.20588 33.97421 99.02719
v -26.61855 13.61865 -8.72772
v 0.00000 2.59424 -2.90496
v -30.45671 18.22583 -1.93713
v -27.06789 14.86531 35.19815
v -21.75164 16.52707 70.30038
v -0.00005 5.11235 70.30047
v -0.00002 1.84681 35.19815
v -31.03656 31.88629 70.29955
v -39.30728 31.88261 35.19800
v -23.33521 71.92067 35.23819
v -0.00002 77.52424 35.19817
v -0.00005 66.77981 70.30037
v -18.78922 59.01391 70.37383
v -0.00008 10.24737 99.14220
v -0.00009 16.12898 126.20818
v -42.26123 59.18580 0.24857
v -45.10642 34.60254 0.21030
v -26.85645 49.90181 70.26499
v -36.23584 53.96659 35.23820
v -17.15727 49.89781 98.99152
v 0.00001 90.82258 -17.02945
v -26.20440 85.52926 -16.91022
v -23.29843 82.05289 -41.31763
v 0.00003 86.23878 -41.31526
v -32.47557 49.17785 -63.34551
v -30.09270 35.42573 -63.34384
v -0.00000 87.60225 0.21107
v -26.61643 82.50317 0.23773
v -32.43193 19.69995 -26.71612
v -32.53783 16.20410 -18.71985
v -43.03246 27.68261 -9.00198
v -41.78880 32.95385 -23.33721
v -36.20508 26.14821 -30.58462
v -32.25040 25.69019 -41.32136
v -19.20140 14.25756 -41.33793
v 0.00003 6.81114 -41.35455
v 0.00004 11.67030 -63.34238
v -12.50831 16.60962 -63.34981
v -0.00008 59.74021 98.97716
v -39.43139 24.44287 -5.30471
v -36.13273 17.47412 -10.20110
v -6.67682 28.12839 159.37285
v -5.86847 42.72058 172.84277
v -9.18431 36.37236 172.84378
v -5.98334 30.32381 172.86632
v -24.99512 27.38000 -63.33235
v -0.00010 20.56393 143.99329
v -0.00011 24.20229 159.38525
v -0.00011 26.95115 172.84364
v -18.43628 77.13988 -63.39981
v -28.21371 62.99416 -63.34749
v 0.00004 81.46087 -63.41013
v -0.00011 46.82278 159.38512
v -0.00011 44.93071 172.84372
v -25.26368 34.82624 -75.02686
v -30.09270 35.42573 -63.34384
v -24.99512 27.38000 -63.33235
v -24.96224 27.99416 -75.00102
v -12.48486 18.12928 -75.41774
v -12.50831 16.60962 -63.34981
v 0.00004 11.67030 -63.34238
v 0.00005 14.43703 -75.08063
v -21.69648 62.91297 -81.35903
v -21.36474 65.43836 -80.89491
v -24.32563 63.78077 -74.99269
v -28.78881 53.29148 -75.81063
v -22.22851 60.37378 -85.15406
v -28.21371 62.99416 -63.34749
v -32.47557 49.17785 -63.34551
v -29.22694 47.26439 -75.82239
v -28.00580 45.07935 -85.99905
v -27.08979 39.57764 -80.49050
v -27.45485 40.69333 -85.39147
v -31.36371 44.43549 -86.75162
v -30.44379 39.91944 -86.09329
v -31.05219 46.77674 -88.03458
v -27.46429 47.24829 -87.77625
v -24.71242 37.74037 -87.08082
v -20.73950 59.11951 -88.75794
v -25.95038 51.13745 -90.77974
v -27.75946 48.21595 -91.66714
v -21.23553 51.57056 -100.43830
v -17.48608 58.90625 -93.40541
v -18.43628 77.13988 -63.39981
v -13.61487 77.50611 -75.93359
v -19.91284 69.84547 -83.23298
v -17.28459 56.17090 -106.12759
v -16.50537 61.38440 -95.97957
v -33.33416 45.31455 -94.16386
v -25.68725 46.85559 -104.95657
v -18.70922 48.61719 -114.44070
v -17.86011 71.53638 -86.58533
v -10.52881 75.51440 -90.16908
v -10.07910 68.70191 -101.41451
v -16.46746 66.79090 -96.62234
v -8.81469 63.59229 -112.03897
v -33.16034 38.59714 -93.35311
v -34.18499 42.18061 -94.24052
v -27.20556 42.32508 -105.86892
v -21.36240 41.96894 -117.10576
v -25.87866 38.75415 -105.17678
v -7.95947 52.85865 -122.60611
v -8.23767 42.10535 -128.05447
v -19.90673 38.36890 -116.51443
v -22.59834 37.06413 -91.65501
v 0.00005 79.90406 -76.62870
v 0.00004 81.46087 -63.41013
v 0.00006 77.06055 -89.67989
v -16.31128 70.37159 -92.80519
v 0.00007 70.94605 -102.41824
v 0.00008 65.51734 -112.84531
v 0.00009 53.08567 -123.86852
v 0.00009 42.12553 -129.32840
v -22.13471 35.98221 -80.66829
v -22.10981 36.32349 -85.06295
v -20.92659 36.32349 -91.67204
v -19.50530 36.32349 -102.99619
v -7.48718 37.89649 -127.08768
v 0.00009 37.63172 -128.49442
v -17.19804 36.32349 -115.32807
v -7.14831 36.49903 -124.61600
v 0.00009 36.32349 -125.50785
v -18.91229 62.60230 -88.71023
v -19.64862 62.99573 -86.40591
v -17.05072 62.55176 -90.56862
v -18.54242 67.32105 -88.77541
v -19.26264 67.10377 -86.13210
v -19.68256 64.18598 -84.15163
v -19.74433 65.66334 -84.28188
v -16.98334 66.01722 -90.97573
v -16.23480 63.01123 -91.86208
v -16.69086 64.70142 -91.66421
v -24.28223 28.65661 -81.76929
v -23.06067 34.23574 -81.69264
v -12.82739 19.06874 -81.88956
v 0.00005 15.25309 -81.89783
v -11.14380 21.88711 -94.52004
v 0.00006 19.27730 -94.38333
v -20.22739 29.60238 -94.19070
v -20.52409 34.23574 -94.12183
v -16.83105 34.23574 -113.85835
v -16.03149 31.45169 -113.87115
v -9.03174 25.95809 -113.93549
v 0.00007 23.29641 -113.82230
v -6.57669 34.23574 -123.20266
v -6.59229 33.27091 -123.02686
v -5.72754 31.46869 -122.53540
v 0.00008 30.03125 -122.55225
v -22.10981 36.32349 -85.06295
v -22.13471 35.98221 -80.66829
v 0.00005 35.98221 -80.66827
v 0.00006 36.32349 -85.06293
v -7.14831 36.49903 -124.61600
v -17.19804 36.32349 -115.32807
v -19.50530 36.32349 -102.99619
v -20.92659 36.32349 -91.67204
v -25.26368 34.82624 -75.02686
v 0.00005 34.82353 -75.08060
v 0.00009 36.32349 -125.50785
v -25.26368 34.82624 -75.02686
v -23.06067 34.23574 -81.69264
v 0.00005 34.23574 -81.69263
v 0.00005 34.82353 -75.08060
v -20.52409 34.23574 -94.12183
v -16.83105 34.23574 -113.85835
v -6.57669 34.23574 -123.20266
v 0.00008 34.23574 -123.97089
v 0.00008 34.23574 -123.97089
v 0.00008 32.96352 -123.82834
v -16.23480 63.01123 -91.86208
v -16.69086 64.70142 -91.66421
v -16.98334 66.01722 -90.97573
v -17.05072 62.55176 -90.56862
v -19.74433 65.66334 -84.28188
v -19.68256 64.18598 -84.15163
v -19.64862 62.99573 -86.40591
v -19.26264 67.10377 -86.13210
v -18.54242 67.32105 -88.77541
v -18.91229 62.60230 -88.71023
v -43.03246 27.68261 -9.00198
v -46.49096 26.45117 -10.52811
v -43.23485 30.35840 -22.13547
v -41.78880 32.95385 -23.33721
v -47.35762 25.33325 -26.86148
v -38.96019 26.63421 -25.16775
v -50.23119 29.20294 -21.58817
v -38.57589 16.70825 -18.61835
v -40.68622 17.05237 -9.34378
v -36.13273 17.47412 -10.20110
v -32.53783 16.20410 -18.71985
v -36.63886 21.31982 -24.58248
v -46.87632 18.94629 -26.74636
v -46.99032 16.21143 -19.65170
v -57.09325 27.30078 -20.31970
v -50.70190 25.00073 -11.27225
v -57.08612 23.14383 -10.27884
v -57.08101 24.36255 -28.39212
v -56.73333 15.76807 -20.53743
v -57.05994 17.41748 -9.47659
v -48.15000 17.91333 -9.78836
v -57.08719 18.41056 -28.40824
v -77.80913 20.25684 -5.48194
v -95.68237 17.18061 -0.72588
v -97.14754 17.47120 -2.75095
v -79.52319 23.34095 -13.50883
v -97.87499 16.92237 -5.90362
v -80.11644 20.81202 -22.62846
v -78.58131 14.90113 -14.63257
v -96.93414 14.50806 -2.54070
v -95.62732 15.33729 -0.06133
v -77.27502 15.73292 -4.31376
v -79.71744 15.64087 -23.79690
v -98.24405 14.95899 -5.48108
v -40.68622 17.05237 -9.34378
v -36.13273 17.47412 -10.20110
v -48.15000 17.91333 -9.78836
v -57.05994 17.41748 -9.47659
v -95.62732 15.33729 -0.06133
v -77.27502 15.73292 -4.31376
v -99.80566 15.56110 -0.75005
v -39.43139 24.44287 -5.30471
v -65.93699 21.56690 -7.97477
v -67.25597 26.15332 -17.58479
v -67.98778 23.01331 -27.66630
v -65.03356 16.47364 -6.91776
v -66.32872 15.20288 -19.20883
v -67.96449 17.45191 -28.31330
v -65.03356 16.47364 -6.91776
v -36.20508 26.14821 -30.58462
v -32.43193 19.69995 -26.71612
v -7.90349 32.81567 185.92899
v -5.98334 30.32381 172.86632
v -9.18431 36.37236 172.84378
v -10.97750 36.41106 185.90900
v -37.60610 37.42212 211.94231
v -37.64785 36.00319 210.65498
v -21.88294 36.62606 195.89854
v -14.98102 40.21882 196.14284
v -47.29092 34.32096 222.55305
v -46.29668 35.17255 223.45161
v -14.65518 39.82714 210.74460
v -32.35919 37.61841 219.67636
v -43.17331 36.06152 228.69997
v -28.66080 35.63257 227.80295
v -40.42588 34.84259 233.34641
v -12.75968 35.64331 222.69957
v -20.20339 33.88596 196.32530
v -36.10854 34.59872 212.23970
v -45.94471 33.50220 223.53854
v -31.83745 33.52484 220.09389
v -15.65790 33.35015 210.38618
v -42.38025 33.21997 228.02707
v -40.32597 33.41199 232.56027
v -28.88566 33.89734 227.20627
v -13.43497 34.06140 222.42210
v -5.86847 42.72058 172.84277
v -8.35375 41.27268 185.91351
v -48.91697 33.39942 230.02753
v -46.98942 33.47534 234.23763
v -44.49580 33.47705 234.86250
v -46.84550 34.23267 234.00035
v -47.83620 34.27622 231.25029
v -44.26835 34.31714 234.82954
v -40.42588 34.84259 233.34641
v -28.66080 35.63257 227.80295
v -28.88566 33.89734 227.20627
v -40.32597 33.41199 232.56027
v -12.75968 35.64331 222.69957
v -13.43497 34.06140 222.42210
v -44.26835 34.31714 234.82954
v -44.49580 33.47705 234.86250
v -0.00014 40.39306 209.13359
v -0.00015 35.31128 221.13776
v -0.00014 32.81633 209.26886
v -0.00013 32.78198 196.60745
v -0.00015 33.39209 220.09302
v -0.00011 44.93071 172.84372
v -0.00012 43.22007 185.91687
v -0.00012 30.39497 185.92215
v -0.00011 26.95115 172.84364
v -0.00013 42.02509 196.19904
v -0.00015 35.31128 221.13776
v -0.00015 33.39209 220.09302
v -48.81715 33.70893 229.81963
v -46.84550 34.23267 234.00035
v -46.98942 33.47534 234.23763
v -46.98942 33.47534 234.23763
v 12.14790 47.55883 126.32221
v 8.63603 45.11415 143.99330
v 11.44881 22.76363 126.20653
v 8.70099 25.47578 143.99368
v 14.58545 35.97964 143.99330
v 18.32262 35.56925 126.19540
v 10.89800 36.36815 159.38226
v 6.17077 43.63954 159.38681
v 37.25994 35.59245 -41.30302
v 45.71243 36.73057 -16.46006
v 42.80593 60.85595 -16.91016
v 36.90845 62.33531 -41.32100
v 24.91352 12.55493 -19.79645
v 24.63489 14.53466 -31.21087
v 24.20573 33.97421 99.02724
v 16.40137 19.35697 99.09199
v 26.61857 13.61865 -8.72768
v 30.45672 18.22583 -1.93709
v 21.75155 16.52707 70.30042
v 27.06785 14.86531 35.19818
v 31.03646 31.88629 70.29960
v 39.30723 31.88261 35.19805
v 23.33516 71.92067 35.23822
v 18.78913 59.01391 70.37386
v 45.10642 34.60254 0.21036
v 42.26123 59.18580 0.24862
v 26.85636 49.90181 70.26503
v 36.23579 53.96659 35.23824
v 17.15712 49.89781 98.99153
v 23.29848 82.05289 -41.31760
v 26.20442 85.52926 -16.91019
v 32.47566 49.17785 -63.34546
v 30.09279 35.42572 -63.34379
v 26.61643 82.50317 0.23776
v 32.53785 16.20410 -18.71981
v 32.43196 19.69995 -26.71608
v 43.03248 27.68261 -9.00193
v 41.78884 32.95385 -23.33716
v 36.20512 26.14821 -30.58457
v 32.25045 25.69019 -41.32132
v 19.20145 14.25756 -41.33791
v 12.50839 16.60962 -63.34979
v 39.43140 24.44287 -5.30466
v 36.13274 17.47412 -10.20105
v 6.67660 28.12839 159.37285
v 9.18408 36.37236 172.84378
v 5.86824 42.72058 172.84277
v 5.98311 30.32381 172.86632
v 24.99520 27.38000 -63.33231
v 18.43636 77.13988 -63.39979
v 28.21379 62.99416 -63.34745
v 25.26377 34.82624 -75.02682
v 24.96234 27.99416 -75.00099
v 24.99520 27.38000 -63.33231
v 30.09279 35.42572 -63.34379
v 12.48496 18.12928 -75.41772
v 12.50839 16.60962 -63.34979
v 21.69659 62.91297 -81.35900
v 24.32574 63.78077 -74.99266
v 21.36485 65.43836 -80.89487
v 28.78892 53.29148 -75.81060
v 22.22863 60.37378 -85.15403
v 28.21379 62.99416 -63.34745
v 32.47566 49.17785 -63.34546
v 29.22705 47.26439 -75.82236
v 28.00592 45.07935 -85.99902
v 27.45497 40.69333 -85.39144
v 27.08990 39.57764 -80.49047
v 31.36383 44.43549 -86.75157
v 30.44390 39.91944 -86.09325
v 27.46442 47.24829 -87.77621
v 31.05231 46.77674 -88.03453
v 24.71253 37.74037 -87.08079
v 20.73962 59.11951 -88.75791
v 25.95050 51.13745 -90.77971
v 27.75958 48.21595 -91.66711
v 17.48621 58.90625 -93.40540
v 21.23566 51.57056 -100.43827
v 18.43636 77.13988 -63.39979
v 13.61497 77.50611 -75.93358
v 19.91295 69.84547 -83.23295
v 16.50550 61.38440 -95.97955
v 17.28474 56.17090 -106.12758
v 25.68740 46.85559 -104.95654
v 33.33429 45.31455 -94.16380
v 18.70938 48.61719 -114.44067
v 17.86022 71.53638 -86.58530
v 10.52893 75.51440 -90.16906
v 16.46760 66.79090 -96.62232
v 10.07924 68.70191 -101.41450
v 8.81485 63.59229 -112.03896
v 33.16047 38.59714 -93.35305
v 34.18512 42.18061 -94.24046
v 27.20571 42.32508 -105.86889
v 21.36256 41.96894 -117.10573
v 25.87881 38.75415 -105.17675
v 7.95964 52.85865 -122.60609
v 8.23784 42.10535 -128.05447
v 19.90690 38.36890 -116.51440
v 22.59847 37.06413 -91.65498
v 16.31141 70.37159 -92.80518
v 22.13482 35.98221 -80.66826
v 22.10992 36.32349 -85.06292
v 20.92671 36.32349 -91.67201
v 19.50544 36.32349 -102.99616
v 7.48736 37.89649 -127.08767
v 17.19820 36.32349 -115.32806
v 7.14848 36.49903 -124.61599
v 18.91241 62.60230 -88.71020
v 19.64874 62.99573 -86.40588
v 17.05084 62.55176 -90.56860
v 18.54254 67.32105 -88.77538
v 19.26275 67.10377 -86.13207
v 19.68267 64.18598 -84.15160
v 19.74444 65.66334 -84.28185
v 16.98346 66.01722 -90.97572
v 16.23493 63.01123 -91.86207
v 16.69098 64.70142 -91.66419
v 23.06078 34.23574 -81.69261
v 24.28234 28.65661 -81.76926
v 12.82750 19.06874 -81.88954
v 11.14392 21.88711 -94.52003
v 20.22751 29.60238 -94.19067
v 20.52421 34.23574 -94.12180
v 16.83120 34.23574 -113.85833
v 16.03164 31.45169 -113.87114
v 9.03189 25.95809 -113.93547
v 6.57685 34.23574 -123.20264
v 6.59245 33.27091 -123.02685
v 5.72770 31.46869 -122.53540
v 22.10992 36.32349 -85.06292
v 22.13482 35.98221 -80.66826
v 7.14848 36.49903 -124.61599
v 17.19820 36.32349 -115.32806
v 19.50544 36.32349 -102.99616
v 20.92671 36.32349 -91.67201
v 25.26377 34.82624 -75.02682
v 25.26377 34.82624 -75.02682
v 23.06078 34.23574 -81.69261
v 20.52421 34.23574 -94.12180
v 16.83120 34.23574 -113.85833
v 6.57685 34.23574 -123.20264
v 16.23493 63.01123 -91.86207
v 17.05084 62.55176 -90.56860
v 16.98346 66.01722 -90.97572
v 16.69098 64.70142 -91.66419
v 19.74444 65.66334 -84.28185
v 19.26275 67.10377 -86.13207
v 19.64874 62.99573 -86.40588
v 19.68267 64.18598 -84.15160
v 18.54254 67.32105 -88.77538
v 18.91241 62.60230 -88.71020
v 43.03248 27.68261 -9.00193
v 41.78884 32.95385 -23.33716
v 43.23489 30.35840 -22.13541
v 46.49098 26.45117 -10.52805
v 47.35766 25.33325 -26.86142
v 50.23122 29.20294 -21.58811
v 38.96022 26.63422 -25.16770
v 38.57592 16.70825 -18.61831
v 32.53785 16.20410 -18.71981
v 36.13274 17.47412 -10.20105
v 40.68624 17.05236 -9.34372
v 36.63889 21.31982 -24.58243
v 46.99035 16.21142 -19.65164
v 46.87637 18.94629 -26.74631
v 57.09328 27.30078 -20.31963
v 57.08614 23.14383 -10.27877
v 50.70192 25.00073 -11.27218
v 57.08106 24.36255 -28.39205
v 56.73337 15.76806 -20.53736
v 48.15002 17.91333 -9.78830
v 57.05997 17.41748 -9.47652
v 57.08723 18.41056 -28.40817
v 77.80914 20.25684 -5.48184
v 79.52320 23.34094 -13.50874
v 97.14754 17.47119 -2.75084
v 95.68237 17.18060 -0.72577
v 80.11647 20.81202 -22.62837
v 97.87501 16.92237 -5.90350
v 78.58132 14.90112 -14.63247
v 77.27502 15.73291 -4.31367
v 95.62732 15.33728 -0.06122
v 96.93414 14.50806 -2.54059
v 98.24405 14.95899 -5.48096
v 79.71747 15.64087 -23.79680
v 40.68624 17.05236 -9.34372
v 36.13274 17.47412 -10.20105
v 57.05997 17.41748 -9.47652
v 48.15002 17.91333 -9.78830
v 95.62732 15.33728 -0.06122
v 77.27502 15.73291 -4.31367
v 99.80566 15.56110 -0.74994
v 39.43140 24.44287 -5.30466
v 65.93701 21.56689 -7.97469
v 67.25600 26.15332 -17.58471
v 67.98781 23.01331 -27.66622
v 66.32876 15.20288 -19.20875
v 65.03358 16.47363 -6.91768
v 67.96452 17.45191 -28.31322
v 65.03358 16.47363 -6.91768
v 36.20512 26.14821 -30.58457
v 32.43196 19.69995 -26.71608
v 7.90325 32.81567 185.92899
v 10.97726 36.41106 185.90900
v 9.18408 36.37236 172.84378
v 5.98311 30.32381 172.86632
v 37.60581 37.42212 211.94238
v 14.98076 40.21881 196.14287
v 21.88268 36.62606 195.89857
v 37.64756 36.00319 210.65506
v 47.29062 34.32095 222.55313
v 46.29638 35.17254 223.45169
v 14.65489 39.82714 210.74461
v 32.35889 37.61841 219.67641
v 43.17300 36.06152 228.70004
v 40.42556 34.84259 233.34647
v 28.66049 35.63257 227.80299
v 12.75937 35.64331 222.69960
v 20.20312 33.88596 196.32533
v 36.10825 34.59872 212.23978
v 45.94441 33.50220 223.53862
v 15.65762 33.35015 210.38622
v 31.83715 33.52484 220.09393
v 42.37994 33.21997 228.02715
v 28.88534 33.89734 227.20631
v 40.32564 33.41199 232.56033
v 13.43466 34.06140 222.42213
v 8.35351 41.27267 185.91351
v 5.86824 42.72058 172.84277
v 46.98909 33.47534 234.23770
v 48.91665 33.39941 230.02760
v 44.49547 33.47705 234.86258
v 46.84517 34.23267 234.00043
v 47.83587 34.27622 231.25037
v 44.26802 34.31714 234.82962
v 40.42556 34.84259 233.34647
v 40.32564 33.41199 232.56033
v 28.88534 33.89734 227.20631
v 28.66049 35.63257 227.80299
v 13.43466 34.06140 222.42213
v 12.75937 35.64331 222.69960
v 44.26802 34.31714 234.82962
v 44.49547 33.47705 234.86258
v 48.81683 33.70892 229.81970
v 46.84517 34.23267 234.00043
v 46.98909 33.47534 234.23770
v 46.98909 33.47534 234.23770
v -27.46369 45.66513 -91.61704
v -44.23038 45.05161 -74.25730
v -45.76664 44.99765 -75.57140
v -29.58090 45.71640 -93.62851
v -30.78718 43.92551 -94.82659
v -46.79309 43.64877 -76.51187
v -46.97200 41.45887 -76.54432
v -30.66583 41.36009 -94.83946
v -45.86805 40.10654 -75.64490
v -29.30007 39.40708 -93.47649
v -43.97687 40.20957 -74.09108
v -27.00631 39.54478 -91.32429
v -26.09511 41.52890 -90.12816
v -42.98705 41.82870 -73.35068
v -43.08634 43.65054 -73.36269
v -26.23903 43.84665 -90.30370
v -26.23903 43.84665 -90.30370
v -43.08634 43.65054 -73.36269
v -62.74561 44.59726 -51.47733
v -63.90846 44.71225 -52.25380
v -64.78054 43.61826 -53.01943
v -64.67802 42.04933 -52.96765
v -63.67206 41.16220 -52.28219
v -62.58095 41.36606 -51.55618
v -61.95285 42.18076 -51.15196
v -61.86957 43.32773 -51.04547
v -61.86957 43.32773 -51.04547
v -71.49512 43.71518 -39.00103
v -72.01455 43.81186 -39.31398
v -72.44273 43.33176 -39.64575
v -72.37156 42.71762 -39.72292
v -71.91763 42.31613 -39.42519
v -71.51323 42.39267 -39.13020
v -71.24178 42.75339 -38.90564
v -71.18241 43.26328 -38.86250
v -71.18241 43.26328 -38.86250
v -72.44273 43.33176 -39.64575
v -72.01455 43.81186 -39.31398
v -71.90672 43.54036 -38.95799
v -72.37563 43.06045 -39.27794
v -71.49512 43.71518 -39.00103
v -72.37156 42.71762 -39.72292
v -71.18241 43.26328 -38.86250
v -71.24178 42.75339 -38.90564
v -71.60294 43.09360 -38.76132
v -71.51323 42.39267 -39.13020
v -72.06061 42.67636 -39.05201
v -71.91763 42.31613 -39.42519
v 31.22497 40.05723 -90.88536
v 28.98750 40.63865 -89.05349
v 33.75835 40.78917 -84.96554
v 35.31060 40.51255 -86.18235
v 32.80042 42.01813 -92.21703
v 36.69505 42.15488 -87.20214
v 31.42965 45.77475 -91.08134
v 32.59265 44.40355 -92.07874
v 36.49287 44.12485 -87.02154
v 35.14559 45.43418 -85.99155
v 29.41177 45.88852 -89.69467
v 33.60217 45.23130 -84.92179
v 27.94638 44.45200 -88.74628
v 32.71548 44.01670 -84.18922
v 27.97159 42.59956 -88.38938
v 32.71553 42.40922 -84.11932
v 27.97159 42.59956 -88.38938
v 32.71553 42.40922 -84.11932
v 42.43995 41.64463 -73.70081
v 43.30891 41.56284 -74.20612
v 44.12138 42.47945 -74.77201
v 43.99092 43.80844 -74.71761
v 43.17244 44.44053 -74.13813
v 42.36903 44.24717 -73.66842
v 41.87175 43.53599 -73.30903
v 41.84976 42.44151 -73.29625
v 41.84976 42.44151 -73.29625
v 44.61870 42.15928 -70.37885
v 44.97585 42.18565 -70.77513
v 45.26670 42.78043 -71.03414
v 45.25890 43.21226 -71.13666
v 44.96223 43.74229 -70.83699
v 44.56670 43.71128 -70.37141
v 44.24790 43.22467 -70.13673
v 44.18001 42.62105 -70.08252
v 44.18001 42.62105 -70.08252
v 45.26670 42.78043 -71.03414
v 44.97585 42.18565 -70.77513
v 44.95684 42.52085 -70.24238
v 45.28047 43.05124 -70.58539
v 44.61870 42.15928 -70.37885
v 45.25890 43.21226 -71.13666
v 44.18001 42.62105 -70.08252
v 44.24790 43.22467 -70.13673
v 44.68281 42.82191 -69.98556
v 44.56670 43.71128 -70.37141
v 45.20836 43.31585 -70.35402
v 44.96223 43.74229 -70.83699
vt 0.402745 0.313982
vt 0.371248 0.416933
vt 0.329987 0.383561
vt 0.346756 0.306194
vt 0.404904 0.190661
vt 0.407321 0.254025
vt 0.352032 0.252129
vt 0.352192 0.203672
vt 0.303760 0.253641
vt 0.297002 0.296328
vt 0.906314 0.253932
vt 0.923511 0.389814
vt 0.845183 0.377474
vt 0.809585 0.262365
vt 0.844210 0.025565
vt 0.883614 0.117528
vt 0.850867 0.110904
vt 0.487292 0.178083
vt 0.491130 0.250738
vt 0.812160 0.091264
vt 0.781633 0.018853
vt 0.744847 0.118727
vt 0.680643 0.149380
vt 0.575383 0.165191
vt 0.560109 0.055643
vt 0.671768 0.026653
vt 0.578153 0.247719
vt 0.684749 0.234553
vt 0.679700 0.452630
vt 0.656023 0.567822
vt 0.530064 0.522581
vt 0.570597 0.417853
vt 0.478967 0.091557
vt 0.401509 0.130123
vt 0.788779 0.379204
vt 0.760195 0.240349
vt 0.576577 0.354657
vt 0.683446 0.368821
vt 0.478871 0.386103
vt 0.888234 0.572663
vt 0.872228 0.480193
vt 0.924934 0.474470
vt 0.933661 0.561687
vt 0.976551 0.311700
vt 0.973993 0.247296
vt 0.777849 0.587441
vt 0.789802 0.469597
vt 0.867669 0.147044
vt 0.848777 0.130786
vt 0.790038 0.211082
vt 0.832084 0.228285
vt 0.869060 0.208511
vt 0.931779 0.167986
vt 0.921655 0.138595
vt 0.919844 0.031607
vt 0.952329 0.040351
vt 0.958623 0.133993
vt 0.455848 0.475666
vt 0.768591 0.138750
vt 0.808869 0.112717
vt 0.307186 0.224190
vt 0.269523 0.290044
vt 0.275388 0.256651
vt 0.279188 0.236336
vt 0.976765 0.208016
vt 0.348812 0.159288
vt 0.302539 0.193383
vt 0.273676 0.212347
vt 0.981822 0.467741
vt 0.980504 0.385507
vt 0.987753 0.553706
vt 0.287959 0.345241
vt 0.257243 0.324374
vt 0.237437 0.642188
vt 0.163558 0.712933
vt 0.139520 0.665380
vt 0.148837 0.623378
vt 0.130063 0.617224
vt 0.090265 0.640106
vt 0.029684 0.606423
vt 0.059317 0.587587
vt 0.236533 0.854674
vt 0.232021 0.863992
vt 0.189278 0.862368
vt 0.199981 0.787078
vt 0.249233 0.839941
vt 0.142177 0.876554
vt 0.143489 0.774763
vt 0.206625 0.747729
vt 0.296921 0.740852
vt 0.272594 0.697481
vt 0.321674 0.710237
vt 0.313823 0.735552
vt 0.331285 0.716059
vt 0.313103 0.749062
vt 0.305111 0.756920
vt 0.350461 0.702046
vt 0.273975 0.833862
vt 0.297188 0.781373
vt 0.314778 0.769163
vt 0.342692 0.810780
vt 0.291349 0.846024
vt 0.156117 0.928774
vt 0.192267 0.923318
vt 0.236009 0.887115
vt 0.358723 0.844138
vt 0.292894 0.863632
vt 0.335706 0.753286
vt 0.380593 0.781026
vt 0.411295 0.817794
vt 0.247882 0.895891
vt 0.283473 0.924956
vt 0.313106 0.909035
vt 0.286100 0.884029
vt 0.369902 0.884329
vt 0.363781 0.724741
vt 0.348704 0.739514
vt 0.402011 0.762904
vt 0.438566 0.800666
vt 0.419060 0.748438
vt 0.433782 0.854928
vt 0.462042 0.841215
vt 0.459461 0.787829
vt 0.387011 0.701495
vt 0.195692 0.962259
vt 0.158951 0.970741
vt 0.293853 0.959512
vt 0.272375 0.893837
vt 0.321223 0.952081
vt 0.375128 0.932577
vt 0.434747 0.894514
vt 0.467029 0.873107
vt 0.308031 0.674047
vt 0.355338 0.684457
vt 0.402326 0.688954
vt 0.446067 0.724561
vt 0.481201 0.835501
vt 0.483807 0.863101
vt 0.475360 0.779715
vt 0.493232 0.827949
vt 0.494716 0.857295
vt 0.269375 0.846799
vt 0.256922 0.850983
vt 0.278866 0.854803
vt 0.254897 0.880202
vt 0.249590 0.876071
vt 0.248891 0.860181
vt 0.247032 0.864555
vt 0.269734 0.877713
vt 0.280488 0.864880
vt 0.275342 0.873261
vt 0.179506 0.591720
vt 0.246579 0.589479
vt 0.161338 0.589611
vt 0.085342 0.562153
vt 0.196433 0.529901
vt 0.127368 0.522393
vt 0.233256 0.526270
vt 0.271348 0.515677
vt 0.238262 0.435690
vt 0.214978 0.449993
vt 0.207460 0.452629
vt 0.170459 0.454552
vt 0.197391 0.412209
vt 0.195964 0.414980
vt 0.193849 0.418269
vt 0.178611 0.419172
vt 0.377522 0.543124
vt 0.377428 0.526513
vt 0.461095 0.526513
vt 0.461095 0.543124
vt 0.423993 0.687502
vt 0.396087 0.657524
vt 0.387366 0.610910
vt 0.381994 0.568106
vt 0.365683 0.505392
vt 0.461095 0.505392
vt 0.461094 0.696003
vt 0.368172 0.446284
vt 0.360747 0.467955
vt 0.277058 0.467956
vt 0.277058 0.446284
vt 0.351613 0.511654
vt 0.337627 0.586933
vt 0.300798 0.619987
vt 0.277059 0.622760
vt 0.179284 0.404670
vt 0.179272 0.412660
vt 0.615497 0.908149
vt 0.617975 0.932581
vt 0.632240 0.950217
vt 0.634168 0.893782
vt 0.690230 0.935321
vt 0.686843 0.906376
vt 0.673607 0.893145
vt 0.671777 0.952673
vt 0.653407 0.954650
vt 0.651654 0.890780
vt 0.532057 0.608329
vt 0.546206 0.613882
vt 0.520460 0.662283
vt 0.509172 0.661367
vt 0.538641 0.689750
vt 0.504762 0.689016
vt 0.549624 0.661264
vt 0.510383 0.756959
vt 0.527442 0.792625
vt 0.508949 0.791403
vt 0.489677 0.759101
vt 0.500011 0.723011
vt 0.542271 0.719718
vt 0.548119 0.753206
vt 0.579282 0.657863
vt 0.564935 0.617246
vt 0.594220 0.616075
vt 0.575746 0.691179
vt 0.591139 0.749499
vt 0.600500 0.786876
vt 0.558989 0.790019
vt 0.580488 0.712920
vt 0.685692 0.624742
vt 0.759919 0.654023
vt 0.761053 0.663680
vt 0.675283 0.655982
vt 0.757465 0.675156
vt 0.664583 0.688755
vt 0.683900 0.736645
vt 0.767639 0.690253
vt 0.774974 0.698301
vt 0.703390 0.765598
vt 0.664934 0.702205
vt 0.760252 0.682079
vt 0.544555 0.566631
vt 0.529259 0.556924
vt 0.568232 0.584238
vt 0.602885 0.592278
vt 0.765695 0.649407
vt 0.692286 0.605802
vt 0.776076 0.672342
vt 0.517570 0.590597
vt 0.634324 0.615242
vt 0.622335 0.654640
vt 0.615804 0.692752
vt 0.644027 0.785956
vt 0.631684 0.749845
vt 0.619324 0.706342
vt 0.638773 0.594677
vt 0.485228 0.689223
vt 0.480373 0.725785
vt 0.918008 0.809958
vt 0.958510 0.814775
vt 0.954044 0.837621
vt 0.913557 0.835521
vt 0.768037 0.849243
vt 0.774151 0.832050
vt 0.856038 0.836184
vt 0.871506 0.872329
vt 0.715466 0.830849
vt 0.714361 0.841406
vt 0.823122 0.906929
vt 0.754819 0.871428
vt 0.706538 0.853010
vt 0.740131 0.891069
vt 0.699339 0.864059
vt 0.801304 0.933420
vt 0.856367 0.809187
vt 0.772199 0.819545
vt 0.715981 0.823285
vt 0.752925 0.793237
vt 0.809221 0.751966
vt 0.711755 0.812716
vt 0.688674 0.796621
vt 0.732124 0.769551
vt 0.785990 0.736643
vt 0.964190 0.869401
vt 0.922457 0.873650
vt 0.681726 0.830079
vt 0.679215 0.819315
vt 0.681224 0.809617
vt 0.680262 0.848829
vt 0.688435 0.841753
vt 0.687437 0.856352
vt 0.699339 0.864059
vt 0.740131 0.891069
vt 0.732475 0.899798
vt 0.695113 0.873214
vt 0.801304 0.933420
vt 0.792387 0.946222
vt 0.687437 0.856352
vt 0.680978 0.858904
vt 0.878527 0.951006
vt 0.853036 0.976514
vt 0.850553 0.710966
vt 0.899338 0.745181
vt 0.833243 0.698396
vt 0.967896 0.880657
vt 0.935274 0.902140
vt 0.938655 0.777160
vt 0.966110 0.791195
vt 0.906328 0.925232
vt 0.853036 0.976514
vt 0.839884 0.987371
vt 0.691442 0.834297
vt 0.680262 0.848829
vt 0.679191 0.848337
vt 0.679191 0.848337
vt 0.402745 0.313982
vt 0.346756 0.306194
vt 0.404904 0.190661
vt 0.352192 0.203672
vt 0.352032 0.252129
vt 0.407321 0.254025
vt 0.303760 0.253641
vt 0.297002 0.296328
vt 0.906314 0.253932
vt 0.809585 0.262365
vt 0.845183 0.377474
vt 0.923511 0.389814
vt 0.850867 0.110904
vt 0.883614 0.117528
vt 0.491130 0.250738
vt 0.487292 0.178083
vt 0.812160 0.091264
vt 0.744847 0.118727
vt 0.575383 0.165191
vt 0.680643 0.149380
vt 0.578153 0.247719
vt 0.684749 0.234553
vt 0.679700 0.452630
vt 0.570597 0.417853
vt 0.760195 0.240349
vt 0.788779 0.379204
vt 0.576577 0.354657
vt 0.683446 0.368821
vt 0.478871 0.386103
vt 0.924934 0.474470
vt 0.872228 0.480193
vt 0.976551 0.311700
vt 0.973993 0.247296
vt 0.789802 0.469597
vt 0.848777 0.130786
vt 0.867669 0.147044
vt 0.790038 0.211082
vt 0.832084 0.228285
vt 0.869060 0.208511
vt 0.931779 0.167986
vt 0.921655 0.138595
vt 0.958623 0.133993
vt 0.768591 0.138750
vt 0.808869 0.112717
vt 0.307186 0.224190
vt 0.275388 0.256651
vt 0.269523 0.290044
vt 0.279188 0.236336
vt 0.976765 0.208016
vt 0.981822 0.467741
vt 0.980504 0.385507
vt 0.237437 0.642188
vt 0.148837 0.623378
vt 0.139520 0.665380
vt 0.163558 0.712933
vt 0.130063 0.617224
vt 0.090265 0.640106
vt 0.236533 0.854674
vt 0.189278 0.862368
vt 0.232021 0.863992
vt 0.199981 0.787078
vt 0.249233 0.839941
vt 0.142177 0.876554
vt 0.143489 0.774763
vt 0.206625 0.747729
vt 0.296921 0.740852
vt 0.321674 0.710237
vt 0.272594 0.697481
vt 0.313823 0.735552
vt 0.331285 0.716059
vt 0.305111 0.756920
vt 0.313103 0.749062
vt 0.350461 0.702046
vt 0.273975 0.833862
vt 0.297188 0.781373
vt 0.314778 0.769163
vt 0.291349 0.846024
vt 0.342692 0.810780
vt 0.156117 0.928774
vt 0.192267 0.923318
vt 0.236009 0.887115
vt 0.292894 0.863632
vt 0.358723 0.844138
vt 0.380593 0.781026
vt 0.335706 0.753286
vt 0.411295 0.817794
vt 0.247882 0.895891
vt 0.283473 0.924956
vt 0.286100 0.884029
vt 0.313106 0.909035
vt 0.369902 0.884329
vt 0.363781 0.724741
vt 0.348704 0.739514
vt 0.402011 0.762904
vt 0.438566 0.800666
vt 0.419060 0.748438
vt 0.433782 0.854928
vt 0.462042 0.841215
vt 0.459461 0.787829
vt 0.387011 0.701495
vt 0.272375 0.893837
vt 0.308031 0.674047
vt 0.355338 0.684457
vt 0.402326 0.688954
vt 0.446067 0.724561
vt 0.481201 0.835501
vt 0.475360 0.779715
vt 0.493232 0.827949
vt 0.269375 0.846799
vt 0.256922 0.850983
vt 0.278866 0.854803
vt 0.254897 0.880202
vt 0.249590 0.876071
vt 0.248891 0.860181
vt 0.247032 0.864555
vt 0.269734 0.877713
vt 0.280488 0.864880
vt 0.275342 0.873261
vt 0.246579 0.589479
vt 0.179506 0.591720
vt 0.161338 0.589611
vt 0.196433 0.529901
vt 0.233256 0.526270
vt 0.271348 0.515677
vt 0.238262 0.435690
vt 0.214978 0.449993
vt 0.207460 0.452629
vt 0.197391 0.412209
vt 0.195964 0.414980
vt 0.193849 0.418269
vt 0.377522 0.543124
vt 0.377428 0.526513
vt 0.423993 0.687502
vt 0.396087 0.657524
vt 0.387366 0.610910
vt 0.381994 0.568106
vt 0.365683 0.505392
vt 0.368172 0.446284
vt 0.360747 0.467955
vt 0.351613 0.511654
vt 0.337627 0.586933
vt 0.300798 0.619987
vt 0.615497 0.908149
vt 0.634168 0.893782
vt 0.632240 0.950217
vt 0.617975 0.932581
vt 0.690230 0.935321
vt 0.671777 0.952673
vt 0.673607 0.893145
vt 0.686843 0.906376
vt 0.653407 0.954650
vt 0.651654 0.890780
vt 0.532057 0.608329
vt 0.509172 0.661367
vt 0.520460 0.662283
vt 0.546206 0.613882
vt 0.538641 0.689750
vt 0.549624 0.661264
vt 0.504762 0.689016
vt 0.510383 0.756959
vt 0.489677 0.759101
vt 0.508949 0.791403
vt 0.527442 0.792625
vt 0.500011 0.723011
vt 0.548119 0.753206
vt 0.542271 0.719718
vt 0.579282 0.657863
vt 0.594220 0.616075
vt 0.564935 0.617246
vt 0.575746 0.691179
vt 0.591139 0.749499
vt 0.558989 0.790019
vt 0.600500 0.786876
vt 0.580488 0.712920
vt 0.685692 0.624742
vt 0.675283 0.655982
vt 0.761053 0.663680
vt 0.759919 0.654023
vt 0.664583 0.688755
vt 0.757465 0.675156
vt 0.683900 0.736645
vt 0.703390 0.765598
vt 0.774974 0.698301
vt 0.767639 0.690253
vt 0.760252 0.682079
vt 0.664934 0.702205
vt 0.544555 0.566631
vt 0.529259 0.556924
vt 0.602885 0.592278
vt 0.568232 0.584238
vt 0.765695 0.649407
vt 0.692286 0.605802
vt 0.776076 0.672342
vt 0.517570 0.590597
vt 0.634324 0.615242
vt 0.622335 0.654640
vt 0.615804 0.692752
vt 0.631684 0.749845
vt 0.644027 0.785956
vt 0.619324 0.706342
vt 0.638773 0.594677
vt 0.485228 0.689223
vt 0.480373 0.725785
vt 0.918008 0.809958
vt 0.913557 0.835521
vt 0.954044 0.837621
vt 0.958510 0.814775
vt 0.768037 0.849243
vt 0.871506 0.872329
vt 0.856038 0.836184
vt 0.774151 0.832050
vt 0.715466 0.830849
vt 0.714361 0.841406
vt 0.823122 0.906929
vt 0.754819 0.871428
vt 0.706538 0.853010
vt 0.699339 0.864059
vt 0.740131 0.891069
vt 0.801304 0.933420
vt 0.856367 0.809187
vt 0.772199 0.819545
vt 0.715981 0.823285
vt 0.809221 0.751966
vt 0.752925 0.793237
vt 0.711755 0.812716
vt 0.732124 0.769551
vt 0.688674 0.796621
vt 0.785990 0.736643
vt 0.922457 0.873650
vt 0.964190 0.869401
vt 0.679215 0.819315
vt 0.681726 0.830079
vt 0.681224 0.809617
vt 0.680262 0.848829
vt 0.688435 0.841753
vt 0.687437 0.856352
vt 0.699339 0.864059
vt 0.695113 0.873214
vt 0.732475 0.899798
vt 0.740131 0.891069
vt 0.792387 0.946222
vt 0.801304 0.933420
vt 0.687437 0.856352
vt 0.680978 0.858904
vt 0.691442 0.834297
vt 0.680262 0.848829
vt 0.679191 0.848337
vt 0.679191 0.848337
vt 0.020259 0.401272
vt 0.027855 0.285607
vt 0.037572 0.285948
vt 0.034401 0.401858
vt 0.046516 0.402224
vt 0.046941 0.286297
vt 0.057592 0.285851
vt 0.059151 0.402520
vt 0.067090 0.285815
vt 0.072578 0.401858
vt 0.078844 0.285449
vt 0.087806 0.401130
vt 0.099600 0.398925
vt 0.088568 0.284954
vt 0.097184 0.283633
vt 0.110696 0.397770
vt 0.008042 0.399998
vt 0.018193 0.285326
vt 0.034690 0.145212
vt 0.041411 0.145225
vt 0.049077 0.145857
vt 0.056725 0.145765
vt 0.063883 0.145396
vt 0.069945 0.144981
vt 0.074971 0.144474
vt 0.080287 0.143373
vt 0.027038 0.145607
vt 0.038978 0.072290
vt 0.042215 0.072523
vt 0.046103 0.072863
vt 0.049497 0.073320
vt 0.053087 0.073128
vt 0.055748 0.072747
vt 0.058257 0.072164
vt 0.060679 0.071471
vt 0.036185 0.071916
vt 0.023292 0.055059
vt 0.020492 0.031453
vt 0.034424 0.029096
vt 0.035460 0.050915
vt 0.034283 0.016260
vt 0.039806 0.067016
vt 0.053606 0.015553
vt 0.066252 0.027885
vt 0.051028 0.029081
vt 0.069062 0.044936
vt 0.050565 0.048903
vt 0.060979 0.059961
vt 0.136563 0.226321
vt 0.115471 0.224286
vt 0.126508 0.180840
vt 0.140573 0.182089
vt 0.157245 0.227108
vt 0.157442 0.182110
vt 0.189751 0.225179
vt 0.174828 0.226757
vt 0.171604 0.181500
vt 0.186876 0.180365
vt 0.207265 0.224267
vt 0.200321 0.179256
vt 0.223229 0.222430
vt 0.211992 0.176633
vt 0.235314 0.216636
vt 0.222860 0.173001
vt 0.099196 0.222166
vt 0.111779 0.178342
vt 0.141347 0.078776
vt 0.148309 0.079923
vt 0.157607 0.081285
vt 0.166898 0.081326
vt 0.174990 0.079892
vt 0.181490 0.078757
vt 0.187721 0.076716
vt 0.194949 0.073939
vt 0.134163 0.076433
vt 0.150053 0.051252
vt 0.153786 0.053044
vt 0.159561 0.053886
vt 0.163638 0.054603
vt 0.169154 0.053530
vt 0.173439 0.051357
vt 0.177909 0.049811
vt 0.181961 0.048090
vt 0.145307 0.049341
vt 0.147369 0.026511
vt 0.156719 0.014807
vt 0.164242 0.023644
vt 0.154801 0.032585
vt 0.168246 0.015198
vt 0.144683 0.036107
vt 0.179294 0.025132
vt 0.177072 0.038289
vt 0.170433 0.029337
vt 0.166845 0.047777
vt 0.158606 0.036918
vt 0.153179 0.047853
vn -0.66506 0.71869 0.20295
vn -0.00000 0.97877 0.20494
vn -0.00000 0.98019 0.19807
vn -0.64995 0.73563 0.19084
vn -0.66976 -0.71271 0.20850
vn -0.97602 -0.01667 0.21704
vn -0.97284 0.01852 0.23073
vn -0.69836 -0.68341 0.21270
vn -0.98045 0.04548 0.19146
vn -0.71746 0.68653 0.11805
vn -0.93409 -0.21912 -0.28187
vn -0.90365 0.33641 -0.26505
vn -0.93787 0.33664 -0.08409
vn -0.96748 -0.19053 -0.16636
vn 0.00000 -0.99393 -0.11001
vn -0.52340 -0.82240 -0.22295
vn -0.42422 -0.89873 -0.11102
vn -0.73602 -0.64408 0.20842
vn -0.96478 -0.13845 0.22366
vn -0.42221 -0.88244 0.20746
vn -0.00000 -0.99590 0.09047
vn -0.60445 -0.78136 0.15532
vn -0.65374 -0.75147 0.08897
vn -0.68266 -0.70847 0.17899
vn 0.07668 -0.98727 0.13938
vn -0.00000 -0.99996 0.00898
vn -0.96157 -0.13807 0.23734
vn -0.96563 -0.19096 0.17632
vn -0.55861 0.77258 0.30178
vn -0.00000 0.95618 0.29278
vn -0.07288 0.94826 0.30901
vn -0.60500 0.73564 0.30466
vn -0.07429 -0.97662 0.20171
vn -0.00000 -0.97385 0.22719
vn -0.92314 0.34867 0.16196
vn -0.94479 -0.28009 0.17004
vn -0.88342 0.38116 0.27254
vn -0.87044 0.41899 0.25843
vn -0.71580 0.65804 0.23370
vn 0.00000 0.99841 -0.05635
vn -0.48451 0.87458 0.01927
vn -0.48855 0.84394 -0.22154
vn 0.00000 0.98011 -0.19843
vn -0.96443 0.05445 -0.25867
vn -0.88701 -0.35257 -0.29817
vn -0.00000 0.97765 0.21022
vn -0.54957 0.80989 0.20505
vn -0.58734 -0.73669 -0.33513
vn -0.32270 -0.90678 -0.27133
vn -0.88268 -0.10160 0.45887
vn -0.91491 -0.19484 -0.35351
vn -0.80084 -0.46913 -0.37225
vn -0.73503 -0.61362 -0.28845
vn -0.45375 -0.86297 -0.22224
vn 0.00000 -0.98152 -0.19135
vn 0.00000 -0.98010 -0.19851
vn -0.53635 -0.82143 -0.19385
vn 0.08131 0.96332 0.25573
vn -0.64921 -0.65395 0.38842
vn -0.30859 -0.87835 0.36506
vn -0.71396 -0.67948 0.16904
vn -0.56082 0.82594 0.05742
vn -0.99990 -0.01393 0.00154
vn -0.63775 -0.75947 0.12837
vn -0.79133 -0.58466 -0.17878
vn -0.00000 -0.97199 0.23502
vn -0.00000 -0.97452 0.22429
vn -0.00000 -0.97672 0.21451
vn -0.63510 0.73082 -0.25010
vn -0.86959 0.41562 -0.26659
vn 0.00000 0.98647 -0.16397
vn -0.00000 0.99051 0.13744
vn -0.00000 0.99092 0.13448
vn -0.84155 -0.47567 -0.25599
vn -0.88701 -0.35257 -0.29817
vn -0.79133 -0.58466 -0.17878
vn -0.93773 -0.32248 -0.12913
vn -0.47495 -0.87201 -0.11843
vn -0.53635 -0.82143 -0.19385
vn 0.00000 -0.98010 -0.19851
vn 0.00000 -0.98466 -0.17448
vn -0.80294 0.45624 -0.38357
vn -0.91900 0.25127 -0.30380
vn -0.81849 0.49000 -0.29995
vn -0.91536 0.29417 -0.27491
vn -0.78914 0.48751 -0.37361
vn -0.86959 0.41562 -0.26659
vn -0.96443 0.05445 -0.25867
vn -0.97963 -0.09623 -0.17626
vn -0.73390 0.33511 0.59084
vn -0.87520 -0.46908 -0.11830
vn -0.64340 -0.52882 0.55352
vn -0.72914 0.14898 0.66795
vn -0.46963 -0.45904 0.75414
vn -0.44692 0.75729 0.47620
vn -0.38423 0.75787 0.52725
vn -0.34202 -0.88806 0.30721
vn -0.74762 0.48692 -0.45163
vn -0.86199 0.50354 -0.05859
vn -0.57473 0.81829 0.00890
vn -0.68289 0.69677 -0.21949
vn -0.83856 0.47210 -0.27191
vn -0.63510 0.73082 -0.25010
vn -0.57367 0.81017 -0.12051
vn -0.93934 0.28171 -0.19566
vn -0.80528 0.54854 -0.22499
vn -0.91745 0.30313 -0.25769
vn -0.79377 0.59519 -0.12522
vn -0.74024 0.57585 -0.34705
vn -0.70207 0.48272 -0.52352
vn -0.75348 0.60261 -0.26291
vn -0.35624 0.85682 -0.37275
vn -0.51740 0.68571 -0.51196
vn -0.91293 0.17695 -0.36776
vn -0.49159 0.70664 -0.50893
vn -0.71394 -0.70016 0.00822
vn -0.99584 -0.00796 -0.09081
vn -0.85875 0.04944 -0.51000
vn -0.80399 -0.03983 -0.59331
vn -0.59535 -0.74827 -0.29265
vn -0.33471 0.53757 -0.77394
vn -0.50579 0.07699 -0.85921
vn -0.60363 -0.65046 -0.46102
vn -0.31554 -0.94803 -0.04094
vn 0.00000 0.98557 -0.16927
vn 0.00000 0.98647 -0.16397
vn 0.00000 0.91970 -0.39263
vn -0.81789 0.40406 -0.40962
vn 0.00000 0.89278 -0.45050
vn 0.00000 0.75722 -0.65316
vn 0.00000 0.55965 -0.82873
vn 0.00000 0.12517 -0.99213
vn -0.31021 -0.92943 -0.19983
vn -0.31391 -0.94938 -0.01181
vn -0.20699 -0.97784 -0.03152
vn -0.27929 -0.95861 -0.05531
vn -0.34244 -0.58835 -0.73251
vn 0.00000 -0.72940 -0.68409
vn -0.28212 -0.93709 -0.20558
vn -0.11959 -0.95558 -0.26938
vn 0.00000 -0.97882 -0.20473
vn -0.80711 0.24349 -0.53786
vn -0.92233 0.29437 -0.25030
vn -0.81751 0.28821 -0.49860
vn -0.91729 0.11746 -0.38050
vn -0.97044 0.06919 -0.23120
vn -0.92884 0.17003 -0.32917
vn -0.96615 0.01579 -0.25751
vn -0.92530 -0.07086 -0.37255
vn -0.98644 0.02602 -0.16205
vn -0.97292 -0.22595 -0.04862
vn -0.88072 -0.43148 -0.19535
vn -0.97171 0.08108 -0.22182
vn -0.50211 -0.84260 -0.19472
vn 0.00000 -0.97913 -0.20321
vn -0.40568 -0.87799 -0.25409
vn 0.00000 -0.96916 -0.24645
vn -0.86601 -0.43273 -0.25053
vn -0.97964 -0.05988 -0.19160
vn -0.90047 -0.17970 -0.39607
vn -0.70456 -0.43375 -0.56165
vn -0.42621 -0.83380 -0.35087
vn 0.00000 -0.87547 -0.48327
vn -0.50667 -0.16853 -0.84551
vn -0.34062 -0.24946 -0.90650
vn -0.30034 -0.58638 -0.75230
vn 0.00000 -0.61330 -0.78985
vn -0.31391 -0.94938 -0.01181
vn -0.31021 -0.92943 -0.19983
vn 0.00000 -0.99283 -0.11951
vn 0.00000 -0.99990 -0.01400
vn -0.11959 -0.95558 -0.26938
vn -0.28212 -0.93709 -0.20558
vn -0.27929 -0.95861 -0.05531
vn -0.20699 -0.97784 -0.03152
vn -0.84155 -0.47567 -0.25599
vn 0.00000 -0.97938 -0.20203
vn 0.00000 -0.97882 -0.20473
vn -0.00004 0.99609 -0.08839
vn 0.00000 0.99902 -0.04416
vn -0.00000 0.99957 -0.02949
vn 0.00000 0.99607 -0.08855
vn -0.00000 1.00000 0.00000
vn -0.00000 1.00000 0.00000
vn 0.00000 1.00000 0.00000
vn -0.00000 1.00000 0.00000
vn 0.00000 -0.14450 -0.98950
vn 0.00000 -0.27934 -0.96019
vn -0.98644 0.02602 -0.16205
vn -0.97292 -0.22595 -0.04862
vn -0.92530 -0.07086 -0.37255
vn -0.81751 0.28821 -0.49860
vn -0.96615 0.01579 -0.25751
vn -0.92884 0.17003 -0.32917
vn -0.92233 0.29437 -0.25030
vn -0.97044 0.06919 -0.23120
vn -0.91729 0.11746 -0.38050
vn -0.80711 0.24349 -0.53786
vn -0.88268 -0.10160 0.45887
vn -0.35725 0.64830 0.67237
vn -0.45922 0.81697 -0.34881
vn -0.91491 -0.19484 -0.35351
vn 0.08325 0.40518 -0.91044
vn -0.52390 -0.01686 -0.85161
vn -0.21538 0.97063 -0.10720
vn 0.02551 -0.97714 -0.21104
vn -0.07228 -0.56825 0.81968
vn -0.30859 -0.87835 0.36506
vn -0.32270 -0.90678 -0.27133
vn -0.16945 -0.66117 -0.73085
vn 0.19831 -0.56131 -0.80349
vn 0.07631 -0.98429 -0.15919
vn -0.18192 0.98282 0.03128
vn -0.13783 0.53899 0.83096
vn 0.01995 0.69078 0.72279
vn -0.03499 0.46572 -0.88424
vn 0.06589 -0.99137 -0.11335
vn 0.18771 -0.45702 0.86943
vn -0.01334 -0.72281 0.69092
vn 0.10267 -0.57878 -0.80899
vn 0.06681 0.69902 0.71198
vn -0.29363 0.62513 0.72318
vn -0.37433 0.86698 0.32897
vn -0.21515 0.97013 0.11204
vn -0.72592 0.55623 -0.40452
vn -0.47545 0.60904 -0.63484
vn 0.03493 -0.99901 0.02769
vn -0.08795 -0.98834 0.12427
vn -0.08657 -0.32883 0.94041
vn 0.20744 -0.37136 0.90502
vn -0.41700 -0.63805 -0.64730
vn -0.55811 -0.76163 -0.32929
vn -0.07228 -0.56825 0.81968
vn -0.30859 -0.87835 0.36506
vn -0.01334 -0.72281 0.69092
vn 0.18771 -0.45702 0.86943
vn -0.08657 -0.32883 0.94041
vn 0.20744 -0.37136 0.90502
vn -0.94433 -0.08489 0.31785
vn -0.64921 -0.65395 0.38842
vn 0.11589 0.57789 0.80784
vn -0.15372 0.98455 0.08381
vn -0.25338 0.71022 -0.65680
vn 0.21925 -0.74133 0.63432
vn 0.06008 -0.99737 -0.04053
vn -0.13333 -0.46876 -0.87321
vn 0.21925 -0.74133 0.63432
vn -0.80084 -0.46913 -0.37225
vn -0.58734 -0.73669 -0.33513
vn -0.53433 -0.84201 -0.07421
vn -0.63775 -0.75947 0.12837
vn -0.99990 -0.01393 0.00154
vn -0.85485 0.01541 -0.51865
vn -0.39971 0.88146 -0.25150
vn -0.70166 -0.22776 -0.67513
vn -0.68304 0.08415 -0.72552
vn -0.34948 0.90825 -0.23008
vn -0.89135 -0.08037 -0.44614
vn -0.36729 0.92994 -0.01765
vn -0.03366 0.98259 0.18270
vn -0.04844 0.98922 0.13816
vn -0.10397 0.98060 0.16620
vn 0.05050 0.97442 0.21901
vn 0.00757 0.96833 0.24956
vn 0.05855 0.95685 0.28462
vn -0.38025 -0.85090 -0.36247
vn -0.26998 -0.91411 -0.30251
vn -0.15720 -0.97574 -0.15241
vn -0.00183 -0.99971 -0.02409
vn -0.03814 -0.99926 0.00579
vn 0.00474 -0.99995 0.00923
vn 0.02876 -0.99916 0.02929
vn 0.04234 -0.99863 0.03074
vn 0.00256 -0.99851 0.05447
vn -0.56082 0.82594 0.05742
vn -0.58432 0.80609 -0.09371
vn -0.86394 -0.49534 0.09076
vn -0.76693 -0.54920 0.33197
vn -0.00094 -0.99930 0.03729
vn -0.43545 0.87721 0.20218
vn -0.69362 0.67778 0.24394
vn -0.07046 0.96266 0.26137
vn 0.39844 -0.39679 0.82692
vn 0.35399 -0.34481 0.86937
vn 0.34933 -0.34903 0.86957
vn 0.42401 -0.31812 0.84795
vn 0.20741 -0.33718 0.91831
vn 0.22118 -0.25931 0.94013
vn 0.20119 -0.14730 0.96841
vn -0.02079 0.12887 0.99144
vn -0.00000 0.96561 0.25998
vn -0.00000 0.93455 0.35583
vn -0.00000 -0.99961 0.02793
vn -0.00000 -0.99831 0.05809
vn -0.00000 -0.99822 0.05957
vn -0.00000 0.99092 0.13448
vn 0.00000 0.99463 0.10353
vn 0.00000 -0.97887 0.20448
vn -0.00000 -0.97672 0.21451
vn 0.00000 0.99728 0.07372
vn -0.00000 -0.47811 0.87830
vn -0.00000 -0.36116 0.93250
vn -0.77709 0.62880 0.02732
vn -0.27036 0.22684 0.93565
vn -0.22963 0.33046 0.91546
vn -0.76693 -0.54920 0.33197
vn 0.66506 0.71869 0.20295
vn 0.64995 0.73563 0.19084
vn 0.66976 -0.71271 0.20850
vn 0.69836 -0.68341 0.21270
vn 0.97284 0.01852 0.23073
vn 0.97602 -0.01667 0.21704
vn 0.98045 0.04548 0.19146
vn 0.71746 0.68653 0.11805
vn 0.93410 -0.21912 -0.28187
vn 0.96748 -0.19053 -0.16636
vn 0.93787 0.33664 -0.08409
vn 0.90365 0.33641 -0.26505
vn 0.42422 -0.89873 -0.11102
vn 0.52340 -0.82240 -0.22295
vn 0.96693 -0.07589 0.24349
vn 0.69505 -0.69045 0.20046
vn 0.42221 -0.88244 0.20746
vn 0.60445 -0.78136 0.15532
vn 0.71923 -0.67056 0.18180
vn 0.65374 -0.75147 0.08897
vn 0.94423 -0.24716 0.21760
vn 0.96563 -0.19096 0.17633
vn 0.55861 0.77258 0.30178
vn 0.58585 0.75697 0.28944
vn 0.94479 -0.28009 0.17005
vn 0.92314 0.34867 0.16196
vn 0.88656 0.38334 0.25897
vn 0.87044 0.41899 0.25843
vn 0.70906 0.66544 0.23327
vn 0.48855 0.84394 -0.22154
vn 0.48451 0.87458 0.01927
vn 0.96443 0.05445 -0.25867
vn 0.88701 -0.35257 -0.29817
vn 0.54957 0.80989 0.20505
vn 0.32270 -0.90678 -0.27133
vn 0.58734 -0.73669 -0.33513
vn 0.88268 -0.10160 0.45887
vn 0.91491 -0.19484 -0.35351
vn 0.80084 -0.46913 -0.37225
vn 0.73503 -0.61362 -0.28845
vn 0.45375 -0.86297 -0.22224
vn 0.53635 -0.82143 -0.19385
vn 0.64921 -0.65395 0.38842
vn 0.30859 -0.87835 0.36506
vn 0.71396 -0.67948 0.16904
vn 0.99990 -0.01393 0.00154
vn 0.56082 0.82594 0.05742
vn 0.63775 -0.75947 0.12837
vn 0.79133 -0.58466 -0.17878
vn 0.63510 0.73082 -0.25010
vn 0.86959 0.41562 -0.26659
vn 0.84155 -0.47567 -0.25598
vn 0.93773 -0.32248 -0.12912
vn 0.79133 -0.58466 -0.17878
vn 0.88701 -0.35257 -0.29817
vn 0.47495 -0.87201 -0.11843
vn 0.53635 -0.82143 -0.19385
vn 0.80294 0.45624 -0.38357
vn 0.81849 0.49000 -0.29995
vn 0.91900 0.25127 -0.30380
vn 0.91536 0.29417 -0.27491
vn 0.78915 0.48751 -0.37361
vn 0.86959 0.41562 -0.26659
vn 0.96443 0.05445 -0.25867
vn 0.97963 -0.09623 -0.17626
vn 0.73390 0.33511 0.59084
vn 0.64340 -0.52882 0.55352
vn 0.87520 -0.46908 -0.11830
vn 0.72914 0.14898 0.66796
vn 0.46963 -0.45904 0.75415
vn 0.38423 0.75787 0.52725
vn 0.44692 0.75729 0.47620
vn 0.34202 -0.88806 0.30721
vn 0.74762 0.48692 -0.45163
vn 0.86199 0.50354 -0.05859
vn 0.57473 0.81829 0.00890
vn 0.83856 0.47210 -0.27191
vn 0.68289 0.69677 -0.21949
vn 0.63510 0.73082 -0.25010
vn 0.57367 0.81017 -0.12051
vn 0.93934 0.28171 -0.19566
vn 0.91745 0.30313 -0.25769
vn 0.80528 0.54854 -0.22499
vn 0.74024 0.57585 -0.34705
vn 0.79377 0.59519 -0.12522
vn 0.70208 0.48272 -0.52352
vn 0.75348 0.60261 -0.26291
vn 0.35624 0.85682 -0.37275
vn 0.91293 0.17695 -0.36775
vn 0.51740 0.68571 -0.51196
vn 0.49159 0.70664 -0.50893
vn 0.71394 -0.70016 0.00822
vn 0.99584 -0.00796 -0.09081
vn 0.85875 0.04944 -0.51000
vn 0.80399 -0.03983 -0.59331
vn 0.59535 -0.74828 -0.29265
vn 0.33471 0.53757 -0.77394
vn 0.50579 0.07699 -0.85921
vn 0.60363 -0.65046 -0.46101
vn 0.31554 -0.94803 -0.04094
vn 0.81790 0.40406 -0.40961
vn 0.31021 -0.92943 -0.19983
vn 0.31391 -0.94938 -0.01181
vn 0.20699 -0.97784 -0.03152
vn 0.27929 -0.95861 -0.05531
vn 0.34245 -0.58835 -0.73251
vn 0.28213 -0.93709 -0.20558
vn 0.11959 -0.95558 -0.26938
vn 0.80711 0.24349 -0.53785
vn 0.92233 0.29437 -0.25030
vn 0.81751 0.28821 -0.49860
vn 0.91729 0.11746 -0.38050
vn 0.97044 0.06919 -0.23120
vn 0.92884 0.17003 -0.32917
vn 0.96615 0.01579 -0.25751
vn 0.92530 -0.07086 -0.37255
vn 0.98644 0.02602 -0.16205
vn 0.97292 -0.22595 -0.04862
vn 0.97171 0.08108 -0.22182
vn 0.88072 -0.43148 -0.19535
vn 0.50211 -0.84260 -0.19472
vn 0.40568 -0.87799 -0.25408
vn 0.86601 -0.43273 -0.25053
vn 0.97964 -0.05988 -0.19160
vn 0.90047 -0.17970 -0.39606
vn 0.70456 -0.43375 -0.56165
vn 0.42621 -0.83380 -0.35087
vn 0.50667 -0.16853 -0.84551
vn 0.34062 -0.24946 -0.90650
vn 0.30034 -0.58638 -0.75230
vn 0.31391 -0.94938 -0.01181
vn 0.31021 -0.92943 -0.19983
vn 0.11959 -0.95558 -0.26938
vn 0.28213 -0.93709 -0.20558
vn 0.27929 -0.95861 -0.05531
vn 0.20699 -0.97784 -0.03152
vn 0.84155 -0.47567 -0.25598
vn 0.00004 0.99609 -0.08839
vn 0.00000 0.99902 -0.04416
vn -0.00000 1.00000 0.00000
vn -0.00000 1.00000 0.00000
vn -0.00000 1.00000 0.00000
vn 0.98644 0.02602 -0.16205
vn 0.81751 0.28821 -0.49860
vn 0.92530 -0.07086 -0.37255
vn 0.97292 -0.22595 -0.04862
vn 0.96615 0.01579 -0.25751
vn 0.97044 0.06919 -0.23120
vn 0.92233 0.29437 -0.25030
vn 0.92884 0.17003 -0.32917
vn 0.91729 0.11746 -0.38050
vn 0.80711 0.24349 -0.53785
vn 0.88268 -0.10160 0.45887
vn 0.91491 -0.19484 -0.35351
vn 0.45922 0.81697 -0.34881
vn 0.35725 0.64830 0.67237
vn -0.08325 0.40518 -0.91044
vn 0.21538 0.97063 -0.10720
vn 0.52390 -0.01686 -0.85161
vn -0.02551 -0.97714 -0.21104
vn 0.32270 -0.90678 -0.27133
vn 0.30859 -0.87835 0.36506
vn 0.07228 -0.56825 0.81968
vn 0.16945 -0.66117 -0.73085
vn -0.07631 -0.98429 -0.15919
vn -0.19831 -0.56131 -0.80349
vn 0.18192 0.98282 0.03128
vn -0.01996 0.69078 0.72279
vn 0.13783 0.53899 0.83096
vn 0.03500 0.46572 -0.88424
vn -0.06589 -0.99137 -0.11335
vn 0.01334 -0.72281 0.69092
vn -0.18771 -0.45702 0.86942
vn -0.10267 -0.57878 -0.80899
vn -0.06681 0.69902 0.71198
vn 0.21515 0.97013 0.11204
vn 0.37433 0.86698 0.32897
vn 0.29363 0.62513 0.72319
vn 0.47545 0.60904 -0.63484
vn 0.72593 0.55623 -0.40452
vn -0.03493 -0.99901 0.02769
vn -0.20744 -0.37136 0.90502
vn 0.08656 -0.32883 0.94041
vn 0.08795 -0.98834 0.12427
vn 0.55811 -0.76164 -0.32928
vn 0.41700 -0.63806 -0.64730
vn 0.07228 -0.56825 0.81968
vn 0.30859 -0.87835 0.36506
vn -0.18771 -0.45702 0.86942
vn 0.01334 -0.72281 0.69092
vn 0.08656 -0.32883 0.94041
vn -0.20744 -0.37136 0.90502
vn 0.94433 -0.08489 0.31785
vn 0.64921 -0.65395 0.38842
vn -0.11590 0.57789 0.80784
vn 0.15372 0.98455 0.08381
vn 0.25338 0.71022 -0.65680
vn -0.06008 -0.99737 -0.04053
vn -0.21925 -0.74133 0.63432
vn 0.13333 -0.46876 -0.87321
vn -0.21925 -0.74133 0.63432
vn 0.80084 -0.46913 -0.37225
vn 0.58734 -0.73669 -0.33513
vn 0.53433 -0.84201 -0.07421
vn 0.85485 0.01541 -0.51865
vn 0.99990 -0.01393 0.00154
vn 0.63775 -0.75947 0.12837
vn 0.39971 0.88146 -0.25150
vn 0.34948 0.90825 -0.23008
vn 0.68304 0.08415 -0.72552
vn 0.70166 -0.22776 -0.67513
vn 0.89135 -0.08037 -0.44614
vn 0.36729 0.92994 -0.01765
vn 0.03366 0.98259 0.18270
vn 0.04844 0.98922 0.13816
vn 0.10397 0.98060 0.16620
vn -0.00757 0.96833 0.24956
vn -0.05050 0.97442 0.21901
vn -0.05855 0.95685 0.28462
vn 0.38025 -0.85090 -0.36247
vn 0.26998 -0.91411 -0.30251
vn 0.15720 -0.97574 -0.15241
vn 0.03814 -0.99926 0.00579
vn 0.00183 -0.99971 -0.02409
vn -0.00474 -0.99995 0.00923
vn -0.04234 -0.99863 0.03074
vn -0.02876 -0.99916 0.02929
vn -0.00256 -0.99851 0.05447
vn 0.58432 0.80609 -0.09371
vn 0.56082 0.82594 0.05742
vn 0.76693 -0.54920 0.33197
vn 0.86394 -0.49534 0.09076
vn 0.00094 -0.99930 0.03729
vn 0.43546 0.87721 0.20218
vn 0.69362 0.67778 0.24394
vn 0.07046 0.96266 0.26137
vn -0.39844 -0.39679 0.82692
vn -0.42401 -0.31812 0.84795
vn -0.34933 -0.34903 0.86957
vn -0.35399 -0.34481 0.86936
vn -0.22118 -0.25932 0.94013
vn -0.20741 -0.33718 0.91831
vn -0.20120 -0.14730 0.96841
vn 0.02079 0.12887 0.99144
vn 0.77709 0.62880 0.02732
vn 0.27036 0.22684 0.93565
vn 0.22963 0.33046 0.91546
vn 0.76693 -0.54920 0.33197
vn 0.16338 0.96735 0.19376
vn 0.37354 0.85686 0.35534
vn -0.19683 0.97037 -0.14011
vn -0.39182 0.86316 -0.31850
vn -0.72729 0.25783 -0.63607
vn -0.65909 0.52927 -0.53430
vn -0.75070 -0.25390 -0.60991
vn -0.63995 -0.51935 -0.56633
vn -0.37065 -0.88606 -0.27842
vn -0.18408 -0.97390 -0.13282
vn 0.28910 -0.90703 0.30615
vn 0.31512 -0.88435 0.34443
vn 0.67394 -0.28384 0.68208
vn 0.67818 -0.38223 0.62768
vn 0.70714 0.27006 0.65346
vn 0.59622 0.53347 0.59994
vn 0.59622 0.53347 0.59994
vn 0.70714 0.27006 0.65346
vn 0.35996 0.88270 0.30210
vn -0.27861 0.94647 -0.16303
vn -0.76914 0.38827 -0.50762
vn -0.74985 -0.46073 -0.47482
vn -0.24218 -0.96538 -0.09691
vn 0.35479 -0.87213 0.33692
vn 0.70842 -0.39484 0.58501
vn 0.74853 0.28224 0.60004
vn 0.74853 0.28224 0.60004
vn 0.10780 0.77650 0.62083
vn -0.50969 0.84736 0.14898
vn -0.96473 0.25820 -0.05125
vn -0.84245 -0.53586 -0.05593
vn -0.31361 -0.92668 0.20715
vn 0.17940 -0.80071 0.57156
vn 0.41361 -0.38180 0.82653
vn 0.54753 0.29084 0.78462
vn 0.54753 0.29084 0.78462
vn -0.96473 0.25820 -0.05125
vn -0.50969 0.84736 0.14898
vn -0.53086 0.41373 0.73960
vn -0.82041 -0.02844 0.57107
vn 0.10780 0.77650 0.62083
vn -0.84245 -0.53586 -0.05593
vn 0.54753 0.29084 0.78462
vn 0.41361 -0.38180 0.82653
vn -0.16955 0.02519 0.98520
vn 0.17940 -0.80071 0.57156
vn -0.48791 -0.50587 0.71136
vn -0.31361 -0.92668 0.20715
vn 0.13936 -0.98965 -0.03423
vn -0.42489 -0.75653 0.49712
vn -0.29422 -0.89829 0.32635
vn 0.39728 -0.89048 -0.22185
vn 0.69376 -0.49239 -0.52560
vn 0.79866 -0.23876 -0.55239
vn 0.39719 0.88534 -0.24170
vn 0.74955 0.34744 -0.56344
vn 0.70598 0.54827 -0.44832
vn 0.16458 0.98597 -0.02798
vn -0.13559 0.96358 0.23048
vn -0.31980 0.86757 0.38086
vn -0.55630 0.55258 0.62064
vn -0.65368 0.39143 0.64767
vn -0.67304 -0.12295 0.72932
vn -0.68360 -0.30104 0.66488
vn -0.67304 -0.12295 0.72932
vn -0.68360 -0.30104 0.66488
vn -0.35783 -0.86567 0.35010
vn 0.23956 -0.97085 -0.00808
vn 0.84757 -0.36854 -0.38185
vn 0.85048 0.40555 -0.33499
vn 0.39073 0.91599 -0.09104
vn -0.28765 0.90040 0.32640
vn -0.71778 0.35472 0.59914
vn -0.74093 -0.32175 0.58949
vn -0.74093 -0.32175 0.58949
vn 0.09273 -0.83940 0.53554
vn 0.69557 -0.71348 0.08441
vn 0.97455 -0.21074 -0.07646
vn 0.91909 0.37265 -0.12812
vn 0.47419 0.87239 0.11867
vn -0.11050 0.80009 0.58962
vn -0.40353 0.33125 0.85290
vn -0.48896 -0.39487 0.77782
vn -0.48896 -0.39487 0.77782
vn 0.97455 -0.21074 -0.07646
vn 0.69557 -0.71348 0.08441
vn 0.72392 -0.42401 0.54420
vn 0.93774 -0.09870 0.33303
vn 0.09273 -0.83940 0.53554
vn 0.91909 0.37265 -0.12812
vn -0.48896 -0.39487 0.77782
vn -0.40353 0.33125 0.85290
vn 0.31171 -0.14097 0.93966
vn -0.11050 0.80009 0.58962
vn 0.69470 0.41060 0.59060
vn 0.47419 0.87239 0.11867
f 578/578/578 579/579/579 568/568/568
f 569/569/569 568/568/568 579/579/579
f 567/567/567 568/568/568 569/569/569
f 569/569/569 570/570/570 567/567/567
f 579/579/579 580/580/580 569/569/569
f 580/580/580 579/579/579 588/588/588
f 587/587/587 588/588/588 579/579/579
f 588/588/588 589/589/589 580/580/580
f 615/615/615 613/613/613 614/614/614
f 618/618/618 616/616/616 627/627/627
f 616/616/616 618/618/618 617/617/617
f 617/617/617 615/615/615 616/616/616
f 628/628/628 627/627/627 636/636/636
f 635/635/635 636/636/636 627/627/627
f 627/627/627 628/628/628 618/618/618
f 636/636/636 637/637/637 628/628/628
f 270/270/270 274/274/274 295/295/295
f 295/295/295 293/293/293 270/270/270
f 270/270/270 293/293/293 294/294/294
f 529/529/529 293/293/293 295/295/295
f 295/295/295 534/534/534 529/529/529
f 294/294/294 293/293/293 529/529/529
f 510/510/510 298/298/298 294/294/294
f 294/294/294 526/526/526 510/510/510
f 529/529/529 526/526/526 294/294/294
f 530/530/530 529/529/529 534/534/534
f 529/529/529 530/530/530 527/527/527
f 527/527/527 526/526/526 529/529/529
f 534/534/534 532/532/532 530/530/530
f 531/531/531 530/530/530 532/532/532
f 530/530/530 531/531/531 528/528/528
f 528/528/528 527/527/527 530/530/530
f 527/527/527 528/528/528 518/518/518
f 518/518/518 517/517/517 527/527/527
f 527/527/527 517/517/517 516/516/516
f 516/516/516 526/526/526 527/527/527
f 526/526/526 516/516/516 511/511/511
f 511/511/511 510/510/510 526/526/526
f 511/511/511 516/516/516 515/515/515
f 516/516/516 517/517/517 514/514/514
f 514/514/514 515/515/515 516/516/516
f 514/514/514 517/517/517 518/518/518
f 521/521/521 514/514/514 519/519/519
f 514/514/514 521/521/521 520/520/520
f 520/520/520 515/515/515 514/514/514
f 518/518/518 519/519/519 514/514/514
f 649/649/649 648/648/648 650/650/650
f 646/646/646 648/648/648 649/649/649
f 250/250/250 266/266/266 294/294/294
f 294/294/294 298/298/298 250/250/250
f 251/251/251 250/250/250 298/298/298
f 266/266/266 250/250/250 253/253/253
f 252/252/252 253/253/253 250/250/250
f 250/250/250 251/251/251 252/252/252
f 294/294/294 266/266/266 270/270/270
f 270/270/270 266/266/266 267/267/267
f 267/267/267 266/266/266 256/256/256
f 253/253/253 256/256/256 266/266/266
f 253/253/253 276/276/276 257/257/257
f 257/257/257 256/256/256 253/253/253
f 601/601/601 600/600/600 602/602/602
f 598/598/598 600/600/600 601/601/601
f 644/644/644 639/639/639 642/642/642
f 641/641/641 642/642/642 639/639/639
f 639/639/639 640/640/640 641/641/641
f 649/649/649 650/650/650 644/644/644
f 644/644/644 642/642/642 649/649/649
f 642/642/642 641/641/641 647/647/647
f 647/647/647 649/649/649 642/642/642
f 647/647/647 641/641/641 643/643/643
f 640/640/640 643/643/643 641/641/641
f 643/643/643 645/645/645 647/647/647
f 649/649/649 647/647/647 646/646/646
f 645/645/645 646/646/646 647/647/647
f 224/224/224 242/242/242 241/241/241
f 241/241/241 221/221/221 224/224/224
f 224/224/224 223/223/223 225/225/225
f 223/223/223 224/224/224 221/221/221
f 239/239/239 232/232/232 225/225/225
f 225/225/225 223/223/223 239/239/239
f 232/232/232 239/239/239 228/228/228
f 232/232/232 228/228/228 227/227/227
f 239/239/239 229/229/229 228/228/228
f 237/237/237 239/239/239 223/223/223
f 223/223/223 222/222/222 237/237/237
f 221/221/221 222/222/222 223/223/223
f 238/238/238 221/221/221 241/241/241
f 221/221/221 238/238/238 237/237/237
f 237/237/237 222/222/222 221/221/221
f 241/241/241 247/247/247 238/238/238
f 236/236/236 247/247/247 241/241/241
f 241/241/241 215/215/215 236/236/236
f 229/229/229 230/230/230 227/227/227
f 227/227/227 228/228/228 229/229/229
f 227/227/227 230/230/230 244/244/244
f 501/501/501 502/502/502 482/482/482
f 482/482/482 481/481/481 501/501/501
f 486/486/486 483/483/483 482/482/482
f 481/481/481 482/482/482 483/483/483
f 499/499/499 483/483/483 486/486/486
f 486/486/486 491/491/491 499/499/499
f 483/483/483 499/499/499 497/497/497
f 497/497/497 484/484/484 483/483/483
f 483/483/483 484/484/484 481/481/481
f 501/501/501 481/481/481 498/498/498
f 481/481/481 484/484/484 497/497/497
f 497/497/497 498/498/498 481/481/481
f 498/498/498 507/507/507 501/501/501
f 495/495/495 474/474/474 501/501/501
f 501/501/501 507/507/507 495/495/495
f 499/499/499 490/490/490 489/489/489
f 491/491/491 490/490/490 499/499/499
f 487/487/487 490/490/490 491/491/491
f 489/489/489 490/490/490 487/487/487
f 487/487/487 488/488/488 489/489/489
f 505/505/505 488/488/488 487/487/487
f 596/596/596 591/591/591 594/594/594
f 593/593/593 594/594/594 591/591/591
f 591/591/591 592/592/592 593/593/593
f 601/601/601 602/602/602 596/596/596
f 596/596/596 594/594/594 601/601/601
f 594/594/594 593/593/593 599/599/599
f 599/599/599 601/601/601 594/594/594
f 599/599/599 593/593/593 595/595/595
f 592/592/592 595/595/595 593/593/593
f 595/595/595 597/597/597 599/599/599
f 601/601/601 599/599/599 598/598/598
f 597/597/597 598/598/598 599/599/599
f 181/181/181 182/182/182 179/179/179
f 179/179/179 180/180/180 181/181/181
f 445/445/445 181/181/181 446/446/446
f 448/448/448 181/181/181 186/186/186
f 447/447/447 181/181/181 448/448/448
f 446/446/446 181/181/181 447/447/447
f 181/181/181 445/445/445 444/444/444
f 444/444/444 182/182/182 181/181/181
f 180/180/180 183/183/183 181/181/181
f 185/185/185 186/186/186 181/181/181
f 184/184/184 185/185/185 181/181/181
f 183/183/183 184/184/184 181/181/181
f 306/306/306 277/277/277 281/281/281
f 259/259/259 281/281/281 303/303/303
f 303/303/303 258/258/258 259/259/259
f 258/258/258 303/303/303 277/277/277
f 277/277/277 268/268/268 258/258/258
f 277/277/277 278/278/278 271/271/271
f 271/271/271 268/268/268 277/277/277
f 267/267/267 255/255/255 258/258/258
f 258/258/258 268/268/268 267/267/267
f 269/269/269 267/267/267 268/268/268
f 268/268/268 271/271/271 269/269/269
f 271/271/271 278/278/278 279/279/279
f 279/279/279 272/272/272 271/271/271
f 273/273/273 269/269/269 271/271/271
f 271/271/271 272/272/272 273/273/273
f 274/274/274 270/270/270 269/269/269
f 269/269/269 273/273/273 274/274/274
f 267/267/267 269/269/269 270/270/270
f 607/607/607 603/603/603 606/606/606
f 605/605/605 606/606/606 603/603/603
f 603/603/603 604/604/604 605/605/605
f 610/610/610 607/607/607 608/608/608
f 606/606/606 608/608/608 607/607/607
f 623/623/623 608/608/608 606/606/606
f 606/606/606 622/622/622 623/623/623
f 622/622/622 606/606/606 605/605/605
f 629/629/629 621/621/621 605/605/605
f 605/605/605 620/620/620 629/629/629
f 605/605/605 621/621/621 622/622/622
f 620/620/620 605/605/605 604/604/604
f 556/556/556 555/555/555 571/571/571
f 557/557/557 558/558/558 555/555/555
f 555/555/555 556/556/556 557/557/557
f 581/581/581 573/573/573 556/556/556
f 556/556/556 572/572/572 581/581/581
f 557/557/557 556/556/556 573/573/573
f 571/571/571 572/572/572 556/556/556
f 560/560/560 557/557/557 574/574/574
f 573/573/573 574/574/574 557/557/557
f 558/558/558 557/557/557 560/560/560
f 560/560/560 559/559/559 558/558/558
f 561/561/561 560/560/560 575/575/575
f 175/175/175 168/168/168 171/171/171
f 170/170/170 171/171/171 168/168/168
f 168/168/168 169/169/169 170/170/170
f 174/174/174 175/175/175 171/171/171
f 173/173/173 174/174/174 171/171/171
f 172/172/172 173/173/173 171/171/171
f 178/178/178 172/172/172 171/171/171
f 178/178/178 171/171/171 439/439/439
f 440/440/440 171/171/171 441/441/441
f 442/442/442 171/171/171 437/437/437
f 441/441/441 171/171/171 442/442/442
f 439/439/439 171/171/171 440/440/440
f 118/118/118 117/117/117 116/116/116
f 93/93/93 94/94/94 116/116/116
f 116/116/116 117/117/117 93/93/93
f 118/118/118 119/119/119 110/110/110
f 110/110/110 109/109/109 118/118/118
f 108/108/108 117/117/117 118/118/118
f 118/118/118 109/109/109 108/108/108
f 93/93/93 117/117/117 108/108/108
f 108/108/108 95/95/95 93/93/93
f 90/90/90 93/93/93 95/95/95
f 92/92/92 94/94/94 93/93/93
f 93/93/93 90/90/90 92/92/92
f 94/94/94 92/92/92 97/97/97
f 134/134/134 97/97/97 92/92/92
f 92/92/92 91/91/91 133/133/133
f 133/133/133 134/134/134 92/92/92
f 91/91/91 92/92/92 90/90/90
f 90/90/90 99/99/99 89/89/89
f 90/90/90 96/96/96 99/99/99
f 95/95/95 96/96/96 90/90/90
f 90/90/90 89/89/89 91/91/91
f 108/108/108 100/100/100 95/95/95
f 100/100/100 96/96/96 95/95/95
f 99/99/99 96/96/96 100/100/100
f 99/99/99 100/100/100 101/101/101
f 98/98/98 99/99/99 101/101/101
f 99/99/99 85/85/85 89/89/89
f 85/85/85 99/99/99 98/98/98
f 539/539/539 537/537/537 531/531/531
f 531/531/531 533/533/533 539/539/539
f 532/532/532 533/533/533 531/531/531
f 276/276/276 253/253/253 252/252/252
f 252/252/252 275/275/275 276/276/276
f 300/300/300 257/257/257 276/276/276
f 276/276/276 297/297/297 300/300/300
f 297/297/297 276/276/276 275/275/275
f 260/260/260 257/257/257 300/300/300
f 254/254/254 257/257/257 260/260/260
f 256/256/256 257/257/257 254/254/254
f 256/256/256 255/255/255 267/267/267
f 254/254/254 255/255/255 256/256/256
f 259/259/259 254/254/254 261/261/261
f 260/260/260 261/261/261 254/254/254
f 254/254/254 259/259/259 258/258/258
f 258/258/258 255/255/255 254/254/254
f 300/300/300 291/291/291 260/260/260
f 292/292/292 265/265/265 260/260/260
f 260/260/260 291/291/291 292/292/292
f 261/261/261 260/260/260 265/265/265
f 265/265/265 263/263/263 261/261/261
f 262/262/262 261/261/261 263/263/263
f 261/261/261 262/262/262 259/259/259
f 263/263/263 264/264/264 262/262/262
f 282/282/282 280/280/280 262/262/262
f 262/262/262 264/264/264 282/282/282
f 259/259/259 262/262/262 280/280/280
f 281/281/281 280/280/280 306/306/306
f 280/280/280 281/281/281 259/259/259
f 277/277/277 303/303/303 281/281/281
f 234/234/234 199/199/199 240/240/240
f 199/199/199 234/234/234 233/233/233
f 233/233/233 200/200/200 199/199/199
f 201/201/201 202/202/202 199/199/199
f 199/199/199 200/200/200 201/201/201
f 202/202/202 201/201/201 204/204/204
f 204/204/204 248/248/248 202/202/202
f 205/205/205 201/201/201 200/200/200
f 201/201/201 205/205/205 203/203/203
f 203/203/203 204/204/204 201/201/201
f 214/214/214 200/200/200 233/233/233
f 200/200/200 214/214/214 205/205/205
f 494/494/494 500/500/500 459/459/459
f 459/459/459 462/462/462 493/493/493
f 493/493/493 494/494/494 459/459/459
f 461/461/461 462/462/462 459/459/459
f 459/459/459 460/460/460 461/461/461
f 460/460/460 508/508/508 465/465/465
f 465/465/465 461/461/461 460/460/460
f 462/462/462 461/461/461 464/464/464
f 461/461/461 465/465/465 463/463/463
f 463/463/463 464/464/464 461/461/461
f 493/493/493 462/462/462 475/475/475
f 464/464/464 475/475/475 462/462/462
f 437/437/437 171/171/171 170/170/170
f 170/170/170 438/438/438 437/437/437
f 438/438/438 170/170/170 177/177/177
f 177/177/177 170/170/170 169/169/169
f 177/177/177 443/443/443 438/438/438
f 169/169/169 176/176/176 177/177/177
f 604/604/604 619/619/619 620/620/620
f 638/638/638 630/630/630 621/621/621
f 621/621/621 629/629/629 638/638/638
f 622/622/622 621/621/621 630/630/630
f 623/623/623 622/622/622 631/631/631
f 630/630/630 631/631/631 622/622/622
f 624/624/624 623/623/623 632/632/632
f 631/631/631 632/632/632 623/623/623
f 623/623/623 624/624/624 611/611/611
f 611/611/611 608/608/608 623/623/623
f 632/632/632 633/633/633 624/624/624
f 625/625/625 624/624/624 633/633/633
f 611/611/611 624/624/624 625/625/625
f 625/625/625 612/612/612 611/611/611
f 608/608/608 611/611/611 610/610/610
f 611/611/611 612/612/612 609/609/609
f 609/609/609 610/610/610 611/611/611
f 626/626/626 625/625/625 634/634/634
f 633/633/633 634/634/634 625/625/625
f 612/612/612 625/625/625 626/626/626
f 626/626/626 614/614/614 612/612/612
f 612/612/612 614/614/614 613/613/613
f 613/613/613 609/609/609 612/612/612
f 627/627/627 626/626/626 635/635/635
f 634/634/634 635/635/635 626/626/626
f 626/626/626 627/627/627 616/616/616
f 616/616/616 614/614/614 626/626/626
f 614/614/614 616/616/616 615/615/615
f 535/535/535 536/536/536 512/512/512
f 512/512/512 511/511/511 535/535/535
f 510/510/510 511/511/511 512/512/512
f 512/512/512 513/513/513 510/510/510
f 298/298/298 510/510/510 513/513/513
f 513/513/513 299/299/299 298/298/298
f 298/298/298 299/299/299 251/251/251
f 297/297/297 296/296/296 536/536/536
f 275/275/275 296/296/296 297/297/297
f 63/63/63 9/9/9 10/10/10
f 4/4/4 10/10/10 9/9/9
f 63/63/63 64/64/64 61/61/61
f 61/61/61 9/9/9 63/63/63
f 61/61/61 64/64/64 68/68/68
f 322/322/322 325/325/325 25/25/25
f 25/25/25 325/325/325 326/326/326
f 331/331/331 332/332/332 317/317/317
f 343/343/343 331/331/331 316/316/316
f 331/331/331 343/343/343 349/349/349
f 349/349/349 324/324/324 331/331/331
f 317/317/317 316/316/316 331/331/331
f 26/26/26 326/326/326 324/324/324
f 324/324/324 21/21/21 26/26/26
f 323/323/323 324/324/324 349/349/349
f 323/323/323 21/21/21 324/324/324
f 349/349/349 350/350/350 323/323/323
f 319/319/319 323/323/323 350/350/350
f 323/323/323 319/319/319 15/15/15
f 15/15/15 21/21/21 323/323/323
f 26/26/26 21/21/21 22/22/22
f 20/20/20 22/22/22 21/21/21
f 20/20/20 21/21/21 15/15/15
f 326/326/326 26/26/26 25/25/25
f 22/22/22 23/23/23 26/26/26
f 136/136/136 139/139/139 123/123/123
f 136/136/136 124/124/124 135/135/135
f 123/123/123 120/120/120 136/136/136
f 124/124/124 136/136/136 120/120/120
f 120/120/120 123/123/123 119/119/119
f 120/120/120 116/116/116 124/124/124
f 119/119/119 118/118/118 120/120/120
f 116/116/116 120/120/120 118/118/118
f 134/134/134 135/135/135 124/124/124
f 124/124/124 97/97/97 134/134/134
f 97/97/97 124/124/124 116/116/116
f 116/116/116 94/94/94 97/97/97
f 24/24/24 18/18/18 33/33/33
f 6/6/6 19/19/19 39/39/39
f 18/18/18 19/19/19 6/6/6
f 39/39/39 32/32/32 31/31/31
f 31/31/31 32/32/32 29/29/29
f 31/31/31 30/30/30 329/329/329
f 29/29/29 30/30/30 31/31/31
f 30/30/30 46/46/46 340/340/340
f 340/340/340 329/329/329 30/30/30
f 30/30/30 29/29/29 47/47/47
f 47/47/47 46/46/46 30/30/30
f 46/46/46 40/40/40 337/337/337
f 337/337/337 340/340/340 46/46/46
f 46/46/46 47/47/47 41/41/41
f 41/41/41 40/40/40 46/46/46
f 340/340/340 337/337/337 317/317/317
f 317/317/317 337/337/337 336/336/336
f 336/336/336 337/337/337 40/40/40
f 40/40/40 43/43/43 336/336/336
f 42/42/42 43/43/43 40/40/40
f 40/40/40 41/41/41 42/42/42
f 13/13/13 41/41/41 47/47/47
f 42/42/42 41/41/41 13/13/13
f 13/13/13 12/12/12 42/42/42
f 71/71/71 43/43/43 42/42/42
f 42/42/42 69/69/69 71/71/71
f 25/25/25 26/26/26 23/23/23
f 59/59/59 36/36/36 22/22/22
f 28/28/28 23/23/23 22/22/22
f 22/22/22 36/36/36 28/28/28
f 59/59/59 22/22/22 20/20/20
f 60/60/60 20/20/20 17/17/17
f 20/20/20 60/60/60 59/59/59
f 15/15/15 17/17/17 20/20/20
f 36/36/36 59/59/59 50/50/50
f 50/50/50 14/14/14 36/36/36
f 28/28/28 36/36/36 35/35/35
f 36/36/36 14/14/14 13/13/13
f 13/13/13 35/35/35 36/36/36
f 35/35/35 38/38/38 28/28/28
f 28/28/28 38/38/38 37/37/37
f 37/37/37 27/27/27 28/28/28
f 23/23/23 28/28/28 27/27/27
f 29/29/29 38/38/38 35/35/35
f 35/35/35 47/47/47 29/29/29
f 47/47/47 35/35/35 13/13/13
f 38/38/38 29/29/29 32/32/32
f 32/32/32 37/37/37 38/38/38
f 32/32/32 39/39/39 37/37/37
f 27/27/27 37/37/37 39/39/39
f 39/39/39 19/19/19 27/27/27
f 24/24/24 27/27/27 19/19/19
f 27/27/27 24/24/24 23/23/23
f 23/23/23 24/24/24 25/25/25
f 19/19/19 18/18/18 24/24/24
f 33/33/33 25/25/25 24/24/24
f 2/2/2 1/1/1 39/39/39
f 1/1/1 4/4/4 7/7/7
f 7/7/7 6/6/6 1/1/1
f 39/39/39 1/1/1 6/6/6
f 3/3/3 4/4/4 1/1/1
f 1/1/1 2/2/2 3/3/3
f 2/2/2 58/58/58 335/335/335
f 335/335/335 307/307/307 2/2/2
f 3/3/3 2/2/2 307/307/307
f 39/39/39 58/58/58 2/2/2
f 72/72/72 3/3/3 308/308/308
f 307/307/307 308/308/308 3/3/3
f 518/518/518 528/528/528 538/538/538
f 538/538/538 551/551/551 518/518/518
f 519/519/519 518/518/518 551/551/551
f 538/538/538 528/528/528 531/531/531
f 538/538/538 541/541/541 551/551/551
f 541/541/541 538/538/538 554/554/554
f 531/531/531 537/537/537 538/538/538
f 551/551/551 541/541/541 519/519/519
f 554/554/554 540/540/540 541/541/541
f 519/519/519 541/541/541 540/540/540
f 540/540/540 522/522/522 519/519/519
f 519/519/519 522/522/522 521/521/521
f 522/522/522 540/540/540 542/542/542
f 542/542/542 523/523/523 522/522/522
f 524/524/524 521/521/521 522/522/522
f 522/522/522 523/523/523 524/524/524
f 521/521/521 524/524/524 525/525/525
f 525/525/525 520/520/520 521/521/521
f 520/520/520 525/525/525 292/292/292
f 520/520/520 291/291/291 300/300/300
f 300/300/300 515/515/515 520/520/520
f 292/292/292 291/291/291 520/520/520
f 535/535/535 515/515/515 300/300/300
f 515/515/515 535/535/535 511/511/511
f 300/300/300 297/297/297 535/535/535
f 536/536/536 535/535/535 297/297/297
f 69/69/69 42/42/42 12/12/12
f 336/336/336 43/43/43 71/71/71
f 71/71/71 356/356/356 336/336/336
f 336/336/336 318/318/318 317/317/317
f 318/318/318 336/336/336 356/356/356
f 356/356/356 357/357/357 318/318/318
f 318/318/318 357/357/357 338/338/338
f 338/338/338 315/315/315 318/318/318
f 317/317/317 318/318/318 315/315/315
f 338/338/338 339/339/339 315/315/315
f 315/315/315 344/344/344 316/316/316
f 346/346/346 315/315/315 339/339/339
f 345/345/345 315/315/315 346/346/346
f 345/345/345 344/344/344 315/315/315
f 315/315/315 316/316/316 317/317/317
f 339/339/339 355/355/355 346/346/346
f 346/346/346 355/355/355 348/348/348
f 348/348/348 347/347/347 346/346/346
f 346/346/346 320/320/320 342/342/342
f 342/342/342 345/345/345 346/346/346
f 347/347/347 320/320/320 346/346/346
f 347/347/347 348/348/348 56/56/56
f 347/347/347 55/55/55 15/15/15
f 15/15/15 320/320/320 347/347/347
f 56/56/56 55/55/55 347/347/347
f 342/342/342 320/320/320 319/319/319
f 15/15/15 319/319/319 320/320/320
f 319/319/319 341/341/341 342/342/342
f 350/350/350 341/341/341 319/319/319
f 54/54/54 16/16/16 15/15/15
f 15/15/15 55/55/55 54/54/54
f 15/15/15 16/16/16 17/17/17
f 4/4/4 3/3/3 72/72/72
f 307/307/307 312/312/312 311/311/311
f 311/311/311 308/308/308 307/307/307
f 312/312/312 307/307/307 335/335/335
f 330/330/330 333/333/333 335/335/335
f 321/321/321 335/335/335 333/333/333
f 330/330/330 335/335/335 58/58/58
f 335/335/335 321/321/321 312/312/312
f 58/58/58 31/31/31 330/330/330
f 31/31/31 58/58/58 39/39/39
f 330/330/330 329/329/329 334/334/334
f 334/334/334 333/333/333 330/330/330
f 329/329/329 330/330/330 31/31/31
f 333/333/333 327/327/327 321/321/321
f 333/333/333 334/334/334 328/328/328
f 328/328/328 327/327/327 333/333/333
f 325/325/325 322/322/322 321/321/321
f 321/321/321 327/327/327 325/325/325
f 312/312/312 321/321/321 322/322/322
f 326/326/326 325/325/325 327/327/327
f 327/327/327 328/328/328 326/326/326
f 328/328/328 331/331/331 324/324/324
f 324/324/324 326/326/326 328/328/328
f 332/332/332 331/331/331 328/328/328
f 328/328/328 334/334/334 332/332/332
f 332/332/332 334/334/334 329/329/329
f 329/329/329 340/340/340 332/332/332
f 317/317/317 332/332/332 340/340/340
f 233/233/233 235/235/235 214/214/214
f 236/236/236 215/215/215 214/214/214
f 214/214/214 235/235/235 236/236/236
f 214/214/214 215/215/215 213/213/213
f 213/213/213 205/205/205 214/214/214
f 205/205/205 213/213/213 216/216/216
f 216/216/216 203/203/203 205/205/205
f 211/211/211 203/203/203 216/216/216
f 203/203/203 211/211/211 210/210/210
f 210/210/210 204/204/204 203/203/203
f 248/248/248 204/204/204 210/210/210
f 210/210/210 249/249/249 248/248/248
f 209/209/209 249/249/249 210/210/210
f 210/210/210 206/206/206 209/209/209
f 212/212/212 206/206/206 210/210/210
f 210/210/210 211/211/211 212/212/212
f 216/216/216 220/220/220 211/211/211
f 217/217/217 212/212/212 211/211/211
f 211/211/211 220/220/220 217/217/217
f 207/207/207 206/206/206 212/212/212
f 212/212/212 219/219/219 207/207/207
f 219/219/219 212/212/212 217/217/217
f 208/208/208 209/209/209 206/206/206
f 206/206/206 207/207/207 208/208/208
f 217/217/217 218/218/218 219/219/219
f 217/217/217 220/220/220 246/246/246
f 246/246/246 245/245/245 217/217/217
f 218/218/218 217/217/217 245/245/245
f 475/475/475 496/496/496 493/493/493
f 495/495/495 496/496/496 475/475/475
f 475/475/475 474/474/474 495/495/495
f 475/475/475 464/464/464 473/473/473
f 473/473/473 474/474/474 475/475/475
f 464/464/464 463/463/463 476/476/476
f 476/476/476 473/473/473 464/464/464
f 476/476/476 463/463/463 472/472/472
f 463/463/463 465/465/465 470/470/470
f 470/470/470 472/472/472 463/463/463
f 470/470/470 465/465/465 508/508/508
f 508/508/508 509/509/509 470/470/470
f 467/467/467 466/466/466 470/470/470
f 470/470/470 509/509/509 467/467/467
f 471/471/471 472/472/472 470/470/470
f 470/470/470 466/466/466 471/471/471
f 472/472/472 480/480/480 476/476/476
f 477/477/477 480/480/480 472/472/472
f 472/472/472 471/471/471 477/477/477
f 469/469/469 478/478/478 471/471/471
f 471/471/471 466/466/466 469/469/469
f 477/477/477 471/471/471 478/478/478
f 468/468/468 469/469/469 466/466/466
f 466/466/466 467/467/467 468/468/468
f 478/478/478 479/479/479 477/477/477
f 477/477/477 504/504/504 506/506/506
f 506/506/506 480/480/480 477/477/477
f 504/504/504 477/477/477 479/479/479
f 110/110/110 119/119/119 122/122/122
f 138/138/138 137/137/137 140/140/140
f 139/139/139 140/140/140 137/137/137
f 137/137/137 123/123/123 139/139/139
f 414/414/414 412/412/412 138/138/138
f 138/138/138 141/141/141 414/414/414
f 140/140/140 141/141/141 138/138/138
f 413/413/413 405/405/405 412/412/412
f 412/412/412 414/414/414 413/413/413
f 404/404/404 412/412/412 405/405/405
f 405/405/405 413/413/413 411/411/411
f 411/411/411 402/402/402 405/405/405
f 405/405/405 401/401/401 404/404/404
f 401/401/401 405/405/405 402/402/402
f 411/411/411 410/410/410 406/406/406
f 402/402/402 411/411/411 406/406/406
f 406/406/406 398/398/398 402/402/402
f 402/402/402 400/400/400 401/401/401
f 400/400/400 402/402/402 398/398/398
f 404/404/404 401/401/401 392/392/392
f 392/392/392 401/401/401 400/400/400
f 398/398/398 399/399/399 400/400/400
f 400/400/400 390/390/390 392/392/392
f 391/391/391 390/390/390 400/400/400
f 400/400/400 399/399/399 391/391/391
f 379/379/379 376/376/376 398/398/398
f 398/398/398 406/406/406 379/379/379
f 375/375/375 399/399/399 398/398/398
f 398/398/398 376/376/376 375/375/375
f 409/409/409 379/379/379 406/406/406
f 406/406/406 410/410/410 409/409/409
f 409/409/409 373/373/373 379/379/379
f 376/376/376 379/379/379 373/373/373
f 375/375/375 376/376/376 373/373/373
f 391/391/391 399/399/399 375/375/375
f 375/375/375 378/378/378 391/391/391
f 378/378/378 375/375/375 372/372/372
f 373/373/373 372/372/372 375/375/375
f 391/391/391 378/378/378 382/382/382
f 391/391/391 382/382/382 384/384/384
f 384/384/384 390/390/390 391/391/391
f 382/382/382 378/378/378 377/377/377
f 372/372/372 377/377/377 378/378/378
f 372/372/372 381/381/381 377/377/377
f 372/372/372 373/373/373 374/374/374
f 373/373/373 409/409/409 408/408/408
f 408/408/408 374/374/374 373/373/373
f 381/381/381 384/384/384 382/382/382
f 6/6/6 5/5/5 18/18/18
f 5/5/5 6/6/6 7/7/7
f 66/66/66 34/34/34 5/5/5
f 5/5/5 8/8/8 66/66/66
f 33/33/33 18/18/18 5/5/5
f 5/5/5 34/34/34 33/33/33
f 7/7/7 8/8/8 5/5/5
f 8/8/8 7/7/7 9/9/9
f 9/9/9 7/7/7 4/4/4
f 67/67/67 66/66/66 8/8/8
f 8/8/8 61/61/61 67/67/67
f 9/9/9 61/61/61 8/8/8
f 153/153/153 74/74/74 77/77/77
f 133/133/133 91/91/91 74/74/74
f 89/89/89 74/74/74 91/91/91
f 75/75/75 74/74/74 89/89/89
f 76/76/76 77/77/77 74/74/74
f 74/74/74 75/75/75 76/76/76
f 153/153/153 152/152/152 158/158/158
f 158/158/158 159/159/159 153/153/153
f 77/77/77 152/152/152 153/153/153
f 152/152/152 77/77/77 78/78/78
f 78/78/78 77/77/77 76/76/76
f 76/76/76 79/79/79 78/78/78
f 54/54/54 55/55/55 56/56/56
f 56/56/56 57/57/57 54/54/54
f 53/53/53 54/54/54 57/57/57
f 54/54/54 53/53/53 16/16/16
f 48/48/48 16/16/16 53/53/53
f 17/17/17 16/16/16 48/48/48
f 17/17/17 49/49/49 60/60/60
f 48/48/48 49/49/49 17/17/17
f 53/53/53 52/52/52 48/48/48
f 57/57/57 65/65/65 53/53/53
f 45/45/45 11/11/11 53/53/53
f 53/53/53 65/65/65 45/45/45
f 52/52/52 53/53/53 11/11/11
f 52/52/52 11/11/11 51/51/51
f 12/12/12 11/11/11 44/44/44
f 11/11/11 14/14/14 51/51/51
f 44/44/44 11/11/11 45/45/45
f 13/13/13 14/14/14 11/11/11
f 11/11/11 12/12/12 13/13/13
f 50/50/50 51/51/51 14/14/14
f 44/44/44 70/70/70 12/12/12
f 12/12/12 70/70/70 69/69/69
f 574/574/574 575/575/575 560/560/560
f 559/559/559 560/560/560 561/561/561
f 575/575/575 574/574/574 583/583/583
f 582/582/582 583/583/583 574/574/574
f 574/574/574 573/573/573 582/582/582
f 590/590/590 582/582/582 573/573/573
f 573/573/573 581/581/581 590/590/590
f 583/583/583 584/584/584 575/575/575
f 576/576/576 575/575/575 584/584/584
f 575/575/575 576/576/576 561/561/561
f 563/563/563 561/561/561 576/576/576
f 562/562/562 561/561/561 563/563/563
f 561/561/561 562/562/562 559/559/559
f 584/584/584 585/585/585 576/576/576
f 577/577/577 576/576/576 585/585/585
f 576/576/576 577/577/577 563/563/563
f 565/565/565 563/563/563 577/577/577
f 564/564/564 563/563/563 565/565/565
f 563/563/563 564/564/564 562/562/562
f 578/578/578 577/577/577 586/586/586
f 585/585/585 586/586/586 577/577/577
f 577/577/577 578/578/578 565/565/565
f 568/568/568 565/565/565 578/578/578
f 565/565/565 568/568/568 567/567/567
f 567/567/567 566/566/566 565/565/565
f 565/565/565 566/566/566 564/564/564
f 579/579/579 578/578/578 587/587/587
f 586/586/586 587/587/587 578/578/578
f 103/103/103 87/87/87 84/84/84
f 126/126/126 125/125/125 386/386/386
f 386/386/386 385/385/385 126/126/126
f 310/310/310 66/66/66 67/67/67
f 66/66/66 310/310/310 309/309/309
f 309/309/309 34/34/34 66/66/66
f 33/33/33 34/34/34 309/309/309
f 309/309/309 322/322/322 33/33/33
f 25/25/25 33/33/33 322/322/322
f 322/322/322 309/309/309 312/312/312
f 311/311/311 312/312/312 309/309/309
f 309/309/309 310/310/310 311/311/311
f 67/67/67 351/351/351 310/310/310
f 313/313/313 311/311/311 310/310/310
f 310/310/310 351/351/351 313/313/313
f 351/351/351 67/67/67 68/68/68
f 68/68/68 67/67/67 61/61/61
f 68/68/68 354/354/354 351/351/351
f 352/352/352 313/313/313 351/351/351
f 351/351/351 354/354/354 352/352/352
f 314/314/314 313/313/313 352/352/352
f 308/308/308 311/311/311 313/313/313
f 313/313/313 314/314/314 308/308/308
f 352/352/352 353/353/353 314/314/314
f 72/72/72 314/314/314 353/353/353
f 308/308/308 314/314/314 72/72/72
f 353/353/353 73/73/73 72/72/72
f 62/62/62 10/10/10 72/72/72
f 72/72/72 73/73/73 62/62/62
f 72/72/72 10/10/10 4/4/4
f 10/10/10 62/62/62 63/63/63
f 343/343/343 316/316/316 344/344/344
f 191/191/191 192/192/192 189/189/189
f 189/189/189 190/190/190 191/191/191
f 198/198/198 192/192/192 191/191/191
f 191/191/191 197/197/197 198/198/198
f 195/195/195 198/198/198 197/197/197
f 197/197/197 196/196/196 195/195/195
f 195/195/195 196/196/196 193/193/193
f 193/193/193 194/194/194 195/195/195
f 451/451/451 452/452/452 449/449/449
f 449/449/449 450/450/450 451/451/451
f 458/458/458 457/457/457 451/451/451
f 451/451/451 450/450/450 458/458/458
f 457/457/457 458/458/458 455/455/455
f 455/455/455 454/454/454 457/457/457
f 455/455/455 456/456/456 453/453/453
f 453/453/453 454/454/454 455/455/455
f 104/104/104 84/84/84 83/83/83
f 83/83/83 105/105/105 104/104/104
f 148/148/148 146/146/146 105/105/105
f 105/105/105 146/146/146 145/145/145
f 145/145/145 111/111/111 105/105/105
f 104/104/104 105/105/105 111/111/111
f 125/125/125 104/104/104 112/112/112
f 126/126/126 103/103/103 104/104/104
f 104/104/104 125/125/125 126/126/126
f 111/111/111 112/112/112 104/104/104
f 84/84/84 104/104/104 103/103/103
f 128/128/128 111/111/111 145/145/145
f 111/111/111 128/128/128 112/112/112
f 145/145/145 149/149/149 128/128/128
f 114/114/114 128/128/128 149/149/149
f 112/112/112 128/128/128 114/114/114
f 114/114/114 113/113/113 112/112/112
f 114/114/114 151/151/151 150/150/150
f 150/150/150 107/107/107 114/114/114
f 149/149/149 151/151/151 114/114/114
f 113/113/113 114/114/114 107/107/107
f 113/113/113 107/107/107 106/106/106
f 107/107/107 150/150/150 144/144/144
f 144/144/144 102/102/102 107/107/107
f 106/106/106 107/107/107 102/102/102
f 106/106/106 101/101/101 109/109/109
f 109/109/109 110/110/110 106/106/106
f 102/102/102 101/101/101 106/106/106
f 108/108/108 109/109/109 101/101/101
f 101/101/101 100/100/100 108/108/108
f 155/155/155 154/154/154 78/78/78
f 78/78/78 81/81/81 155/155/155
f 78/78/78 154/154/154 152/152/152
f 80/80/80 81/81/81 78/78/78
f 78/78/78 79/79/79 80/80/80
f 158/158/158 152/152/152 154/154/154
f 154/154/154 156/156/156 158/158/158
f 156/156/156 154/154/154 155/155/155
f 162/162/162 156/156/156 157/157/157
f 158/158/158 156/156/156 162/162/162
f 155/155/155 157/157/157 156/156/156
f 166/166/166 162/162/162 163/163/163
f 161/161/161 162/162/162 166/166/166
f 157/157/157 163/163/163 162/162/162
f 162/162/162 161/161/161 158/158/158
f 157/157/157 428/428/428 433/433/433
f 433/433/433 163/163/163 157/157/157
f 428/428/428 157/157/157 155/155/155
f 436/436/436 167/167/167 163/163/163
f 163/163/163 433/433/433 436/436/436
f 163/163/163 167/167/167 166/166/166
f 436/436/436 433/433/433 432/432/432
f 429/429/429 432/432/432 433/433/433
f 433/433/433 428/428/428 429/429/429
f 429/429/429 428/428/428 427/427/427
f 155/155/155 427/427/427 428/428/428
f 155/155/155 81/81/81 362/362/362
f 362/362/362 427/427/427 155/155/155
f 161/161/161 165/165/165 164/164/164
f 164/164/164 160/160/160 161/161/161
f 158/158/158 161/161/161 160/160/160
f 160/160/160 159/159/159 158/158/158
f 425/425/425 426/426/426 359/359/359
f 359/359/359 358/358/358 425/425/425
f 362/362/362 359/359/359 426/426/426
f 360/360/360 359/359/359 362/362/362
f 358/358/358 359/359/359 360/360/360
f 408/408/408 358/358/358 374/374/374
f 371/371/371 374/374/374 358/358/358
f 371/371/371 358/358/358 361/361/361
f 360/360/360 361/361/361 358/358/358
f 362/362/362 363/363/363 360/360/360
f 80/80/80 363/363/363 362/362/362
f 362/362/362 81/81/81 80/80/80
f 361/361/361 370/370/370 371/371/371
f 370/370/370 367/367/367 371/371/371
f 367/367/367 370/370/370 369/369/369
f 372/372/372 371/371/371 381/381/381
f 371/371/371 367/367/367 381/381/381
f 374/374/374 371/371/371 372/372/372
f 367/367/367 368/368/368 380/380/380
f 380/380/380 381/381/381 367/367/367
f 369/369/369 365/365/365 367/367/367
f 367/367/367 365/365/365 368/368/368
f 365/365/365 369/369/369 385/385/385
f 368/368/368 365/365/365 364/364/364
f 366/366/366 365/365/365 386/386/386
f 385/385/385 386/386/386 365/365/365
f 384/384/384 381/381/381 380/380/380
f 381/381/381 382/382/382 377/377/377
f 380/380/380 415/415/415 417/417/417
f 417/417/417 383/383/383 380/380/380
f 380/380/380 383/383/383 384/384/384
f 390/390/390 384/384/384 389/389/389
f 389/389/389 384/384/384 383/383/383
f 388/388/388 383/383/383 417/417/417
f 383/383/383 388/388/388 389/389/389
f 417/417/417 423/423/423 388/388/388
f 389/389/389 392/392/392 390/390/390
f 246/246/246 220/220/220 216/216/216
f 216/216/216 243/243/243 246/246/246
f 226/226/226 231/231/231 246/246/246
f 246/246/246 243/243/243 226/226/226
f 245/245/245 246/246/246 231/231/231
f 245/245/245 244/244/244 218/218/218
f 231/231/231 227/227/227 245/245/245
f 244/244/244 245/245/245 227/227/227
f 231/231/231 226/226/226 225/225/225
f 225/225/225 232/232/232 231/231/231
f 227/227/227 231/231/231 232/232/232
f 226/226/226 243/243/243 242/242/242
f 242/242/242 224/224/224 226/226/226
f 225/225/225 226/226/226 224/224/224
f 243/243/243 216/216/216 213/213/213
f 213/213/213 242/242/242 243/243/243
f 242/242/242 213/213/213 215/215/215
f 215/215/215 241/241/241 242/242/242
f 476/476/476 480/480/480 506/506/506
f 506/506/506 503/503/503 476/476/476
f 485/485/485 503/503/503 506/506/506
f 506/506/506 492/492/492 485/485/485
f 492/492/492 506/506/506 504/504/504
f 479/479/479 505/505/505 504/504/504
f 504/504/504 487/487/487 492/492/492
f 487/487/487 504/504/504 505/505/505
f 492/492/492 491/491/491 486/486/486
f 486/486/486 485/485/485 492/492/492
f 491/491/491 492/492/492 487/487/487
f 485/485/485 482/482/482 502/502/502
f 502/502/502 503/503/503 485/485/485
f 482/482/482 485/485/485 486/486/486
f 503/503/503 502/502/502 473/473/473
f 473/473/473 476/476/476 503/503/503
f 502/502/502 501/501/501 474/474/474
f 474/474/474 473/473/473 502/502/502
f 364/364/364 365/365/365 366/366/366
f 416/416/416 368/368/368 364/364/364
f 368/368/368 416/416/416 415/415/415
f 415/415/415 380/380/380 368/368/368
f 420/420/420 364/364/364 366/366/366
f 364/364/364 420/420/420 416/416/416
f 421/421/421 366/366/366 387/387/387
f 366/366/366 421/421/421 420/420/420
f 386/386/386 387/387/387 366/366/366
f 387/387/387 419/419/419 421/421/421
f 387/387/387 393/393/393 418/418/418
f 418/418/418 419/419/419 387/387/387
f 393/393/393 387/387/387 386/386/386
f 418/418/418 393/393/393 407/407/407
f 393/393/393 394/394/394 407/407/407
f 386/386/386 394/394/394 393/393/393
f 407/407/407 422/422/422 418/418/418
f 422/422/422 407/407/407 395/395/395
f 395/395/395 407/407/407 394/394/394
f 396/396/396 394/394/394 127/127/127
f 394/394/394 396/396/396 395/395/395
f 125/125/125 127/127/127 394/394/394
f 394/394/394 386/386/386 125/125/125
f 395/395/395 388/388/388 423/423/423
f 423/423/423 424/424/424 395/395/395
f 395/395/395 424/424/424 422/422/422
f 88/88/88 89/89/89 85/85/85
f 89/89/89 88/88/88 75/75/75
f 98/98/98 86/86/86 85/85/85
f 85/85/85 84/84/84 87/87/87
f 87/87/87 88/88/88 85/85/85
f 85/85/85 86/86/86 84/84/84
f 98/98/98 102/102/102 144/144/144
f 144/144/144 142/142/142 98/98/98
f 86/86/86 98/98/98 142/142/142
f 101/101/101 102/102/102 98/98/98
f 86/86/86 82/82/82 84/84/84
f 82/82/82 86/86/86 143/143/143
f 142/142/142 143/143/143 86/86/86
f 83/83/83 82/82/82 147/147/147
f 143/143/143 147/147/147 82/82/82
f 82/82/82 83/83/83 84/84/84
f 105/105/105 83/83/83 148/148/148
f 147/147/147 148/148/148 83/83/83
f 427/427/427 426/426/426 429/429/429
f 426/426/426 427/427/427 362/362/362
f 429/429/429 430/430/430 431/431/431
f 431/431/431 432/432/432 429/429/429
f 425/425/425 430/430/430 429/429/429
f 429/429/429 426/426/426 425/425/425
f 432/432/432 435/435/435 436/436/436
f 432/432/432 431/431/431 434/434/434
f 434/434/434 435/435/435 432/432/432
f 436/436/436 435/435/435 188/188/188
f 435/435/435 434/434/434 187/187/187
f 187/187/187 188/188/188 435/435/435
f 188/188/188 167/167/167 436/436/436
f 188/188/188 165/165/165 166/166/166
f 166/166/166 167/167/167 188/188/188
f 165/165/165 188/188/188 187/187/187
f 187/187/187 164/164/164 165/165/165
f 166/166/166 165/165/165 161/161/161
f 388/388/388 395/395/395 396/396/396
f 397/397/397 396/396/396 129/129/129
f 127/127/127 129/129/129 396/396/396
f 397/397/397 389/389/389 396/396/396
f 389/389/389 388/388/388 396/396/396
f 113/113/113 129/129/129 127/127/127
f 127/127/127 112/112/112 113/113/113
f 112/112/112 127/127/127 125/125/125
f 129/129/129 130/130/130 397/397/397
f 115/115/115 130/130/130 129/129/129
f 129/129/129 113/113/113 115/115/115
f 403/403/403 397/397/397 130/130/130
f 392/392/392 389/389/389 397/397/397
f 397/397/397 403/403/403 392/392/392
f 130/130/130 131/131/131 403/403/403
f 121/121/121 131/131/131 130/130/130
f 130/130/130 115/115/115 121/121/121
f 110/110/110 121/121/121 115/115/115
f 115/115/115 106/106/106 110/110/110
f 115/115/115 113/113/113 106/106/106
f 121/121/121 122/122/122 132/132/132
f 132/132/132 131/131/131 121/121/121
f 122/122/122 121/121/121 110/110/110
f 403/403/403 131/131/131 132/132/132
f 132/132/132 404/404/404 403/403/403
f 392/392/392 403/403/403 404/404/404
f 132/132/132 138/138/138 412/412/412
f 412/412/412 404/404/404 132/132/132
f 132/132/132 122/122/122 137/137/137
f 137/137/137 138/138/138 132/132/132
f 123/123/123 137/137/137 122/122/122
f 122/122/122 119/119/119 123/123/123
f 548/548/548 546/546/546 545/545/545
f 545/545/545 547/547/547 548/548/548
f 545/545/545 546/546/546 543/543/543
f 543/543/543 544/544/544 545/545/545
f 544/544/544 543/543/543 549/549/549
f 549/549/549 550/550/550 544/544/544
f 550/550/550 549/549/549 552/552/552
f 552/552/552 553/553/553 550/550/550
f 289/289/289 283/283/283 286/286/286
f 285/285/285 286/286/286 283/283/283
f 283/283/283 284/284/284 285/285/285
f 304/304/304 289/289/289 290/290/290
f 286/286/286 290/290/290 289/289/289
f 290/290/290 305/305/305 304/304/304
f 285/285/285 284/284/284 287/287/287
f 287/287/287 288/288/288 285/285/285
f 302/302/302 288/288/288 287/287/287
f 287/287/287 301/301/301 302/302/302
f 302/302/302 301/301/301 548/548/548
f 548/548/548 547/547/547 302/302/302
