# deinosuchus reconstructed from live game memory
v 26.84431 27.69016 56.27714
v 27.07054 32.90691 48.50223
v 39.75594 25.32402 46.92201
v 38.60679 23.36824 55.96663
v 35.46023 21.30459 61.98869
v 17.97462 23.44200 61.22526
v 25.48271 29.17456 7.74451
v 20.58613 29.13711 30.81436
v 25.90552 25.39683 29.36547
v 30.87701 26.43094 8.82611
v 21.03537 15.98770 33.39016
v 24.23468 21.32597 33.37893
v 16.70421 22.96488 38.10952
v 16.70421 22.96488 38.10952
v 19.48461 25.09328 36.34047
v 17.31335 30.30495 39.95494
v 14.59041 28.49510 45.78897
v 20.58613 29.13711 30.81436
v 18.25257 32.98919 31.79584
v 24.23468 21.32597 33.37893
v 19.48461 25.09328 36.34047
v 37.16116 29.07090 39.75388
v 26.91887 36.62728 40.30051
v 25.88526 39.01879 31.89181
v 35.11817 30.07561 31.99241
v 25.48271 29.17456 7.74451
v 24.17311 34.27225 7.34051
v 31.05721 40.75145 9.25991
v 37.17521 33.80145 10.18701
v -0.44395 17.73692 27.48651
v -0.81504 25.47615 37.17703
v 14.59041 28.49510 45.78897
v -0.78709 29.53842 54.42065
v -44.48757 26.69422 60.27344
v -41.15282 30.32699 53.21238
v -22.60586 30.83330 54.02545
v -41.97329 31.01837 42.96167
v 18.07781 18.00138 69.07735
v 35.25677 16.39174 69.13495
v 35.23626 8.74122 76.16629
v 18.08509 10.18255 77.17656
v 35.24796 -0.00001 77.54367
v 18.10983 -0.00001 78.27965
v 14.78530 26.92237 54.20708
v -44.72528 0.00000 76.60650
v -44.62444 10.90690 72.73344
v -22.44286 11.64850 75.45702
v -22.43801 0.00000 79.42787
v -44.55953 20.33394 66.37442
v -22.44056 21.85580 68.84209
v -0.19414 -0.00000 23.00430
v 21.75811 -0.00000 29.11753
v 17.97462 23.44200 61.22526
v 14.78530 26.92237 54.20708
v -62.86473 18.56933 62.70156
v -62.37816 11.01247 67.49411
v -62.24481 0.00001 73.02513
v -0.77878 20.60958 69.96168
v -0.76672 11.07673 76.95307
v -0.73353 -0.00000 79.42097
v 39.75594 25.32402 46.92201
v 38.56174 24.46778 40.95555
v 40.76971 20.83128 42.62913
v 35.99387 22.77872 35.41091
v 37.96646 15.34278 37.31604
v 38.56174 24.46778 40.95555
v 35.99387 22.77872 35.41091
v 30.12946 -0.00001 31.38590
v 36.99354 -0.00001 33.47058
v 30.32492 14.40023 33.99669
v 43.75177 -0.00001 35.52024
v 46.18162 15.44014 39.96857
v 45.76352 20.84962 49.92089
v 44.60084 20.12888 57.36197
v 38.60679 23.36824 55.96663
v 35.46023 21.30459 61.98869
v 31.18245 21.04545 32.80904
v 31.18245 21.04545 32.80904
v 37.09531 43.29494 0.26471
v 45.19041 46.00324 0.26531
v 35.78161 43.38424 4.13591
v 41.19161 39.42004 4.79811
v 44.01621 40.53244 0.25451
v 46.12941 22.19204 0.26521
v 33.81610 24.37164 0.26381
v 38.66700 23.75145 3.45481
v 41.80241 27.84024 4.68291
v 44.86931 26.85214 0.25511
v 46.12941 22.19204 0.26521
v 41.80241 27.84024 4.68291
v 27.60601 34.35305 0.26181
v 28.93011 28.89975 0.26231
v 28.93011 28.89975 0.26231
v 43.29720 33.83315 4.52921
v 50.82061 38.72635 0.24841
v 41.19161 39.42004 4.79811
v 44.01621 40.53244 0.25451
v 50.82061 38.72635 0.24841
v 43.29720 33.83315 4.52921
v 50.82061 38.72635 0.24841
v 45.82611 33.98624 0.24521
v 45.82611 33.98624 0.24521
v 50.80141 29.23564 0.24851
v 43.29720 33.83315 4.52921
v 50.80141 29.23564 0.24851
v 44.86931 26.85214 0.25511
v -22.32738 26.05529 36.92292
v -22.37374 18.28452 26.50013
v -22.30203 0.00000 22.70774
v -68.94010 26.96072 48.26500
v -63.90034 25.21672 56.61872
v -77.84039 21.71636 49.48730
v -54.83830 32.67677 53.85463
v -68.94010 26.96072 48.26500
v -66.47293 30.77559 42.46665
v -54.86172 38.12054 46.40586
v -77.37589 15.13546 60.44978
v -47.26846 25.26539 36.22797
v -52.04464 18.06363 30.23910
v -52.47783 0.00001 26.23013
v -41.15282 30.32699 53.21238
v -41.97329 31.01837 42.96167
v -44.48757 26.69422 60.27344
v -63.90034 25.21672 56.61872
v -62.25075 37.73307 24.47818
v -55.00909 29.22017 24.22051
v -55.69419 30.23017 10.88786
v -62.33129 38.32097 8.42063
v -47.29307 37.13210 25.28724
v -55.26041 44.72435 25.38539
v -55.83040 44.19913 10.45063
v -48.08369 37.79737 10.26313
v -55.00909 29.22017 24.22051
v -55.69419 30.23017 10.88786
v -55.08308 43.38156 31.63244
v -46.01067 36.32579 31.11234
v -63.77451 37.10706 31.32413
v -55.95667 27.61127 30.36793
v -55.95667 27.61127 30.36793
v -50.59379 47.21417 0.51053
v -39.15170 51.02706 0.51103
v -52.08308 47.27137 4.33073
v -43.27309 43.90598 4.96463
v -39.93990 45.19396 0.50043
v -37.82090 25.25176 0.51093
v -52.42640 28.47497 0.50963
v -52.89829 28.46678 3.91663
v -42.75420 31.32167 4.86763
v -37.82090 25.25176 0.51093
v -42.75420 31.32167 4.86763
v -39.00020 30.19266 0.50103
v -54.59579 45.72817 6.51723
v -55.99559 43.15488 0.50882
v -60.23839 38.30988 3.82583
v -58.72868 38.34089 0.50772
v -52.42640 28.47497 0.50963
v -57.39089 33.06148 0.50822
v -52.89829 28.46678 3.91663
v -46.16049 41.00718 7.77693
v -44.49579 37.81038 7.38052
v -40.76589 37.84767 4.69093
v -45.91099 34.39248 7.71693
v -53.93280 29.43051 6.68197
v -39.93990 45.19396 0.50043
v -32.44520 43.21346 0.49443
v -43.27309 43.90598 4.96463
v -32.44520 43.21346 0.49443
v -32.44520 43.21346 0.49443
v -37.94650 38.01556 0.49143
v -40.76589 37.84767 4.69093
v -37.94650 38.01556 0.49143
v -32.46640 32.80626 0.49453
v -40.76589 37.84767 4.69093
v -32.46640 32.80626 0.49453
v -39.00020 30.19266 0.50103
v -67.40428 25.40980 40.87749
v -60.39692 23.80737 34.01406
v -53.56236 23.78706 32.45373
v -60.39692 23.80737 34.01406
v -62.20267 17.18403 33.77581
v -61.29733 0.00001 29.65744
v -78.13679 15.59074 39.98550
v -70.12670 20.41693 39.28215
v -77.83167 0.00001 32.24276
v -77.70084 0.00001 69.36118
v -53.93280 29.43051 6.68197
v -47.26846 25.26539 36.22797
v -53.56236 23.78706 32.45373
v -67.40428 25.40980 40.87749
v -53.56236 23.78706 32.45373
v 51.64122 14.17304 70.30160
v 51.17561 7.49563 75.27670
v 55.81936 13.97781 40.92452
v 54.40048 19.13002 50.51562
v 53.74081 19.68034 58.29751
v 51.58218 -0.00001 78.20992
v 56.82137 -0.00001 35.13550
v 16.70421 22.96488 38.10952
v -129.16106 5.93213 46.22839
v -129.28314 5.74513 53.07699
v -147.67001 4.23555 49.03225
v -77.70084 0.00001 69.36118
v -92.86929 0.00001 66.94050
v -92.91555 11.12245 57.99152
v -77.37589 15.13546 60.44978
v -92.75663 13.00731 46.76343
v -77.84039 21.71636 49.48730
v -92.87258 7.33556 37.81195
v -78.13679 15.59074 39.98550
v -111.45741 8.60819 45.31583
v -111.49276 8.44490 55.68376
v -129.87933 0.00002 59.79663
v -148.30698 0.00002 56.89068
v -180.59119 0.00003 47.07716
v -178.86778 1.12764 47.16100
v -179.84366 0.00003 50.26693
v -111.63387 0.00002 62.84160
v -111.62417 0.00002 37.42542
v -129.58392 0.00002 39.34697
v -179.21826 0.00003 44.59361
v -147.45938 0.00002 39.79562
v -92.81442 0.00001 33.54944
v -77.83167 0.00001 32.24276
v 63.68768 6.97805 74.63732
v 51.17561 7.49563 75.27670
v 51.64122 14.17304 70.30160
v 64.62709 14.68931 70.88191
v 70.10786 12.42832 40.94692
v 65.00814 17.15929 51.13308
v 54.40048 19.13002 50.51562
v 55.81936 13.97781 40.92452
v 83.21460 10.43160 44.37532
v 81.75236 17.31970 52.53472
v 96.18359 8.42861 48.17761
v 95.26694 14.10425 54.35180
v 116.19995 4.46794 53.29625
v 115.85472 5.78884 56.89960
v 63.58522 18.68646 58.86869
v 75.02738 18.17295 59.82076
v 77.39445 17.05318 67.99249
v 71.53929 7.30258 74.53915
v 80.26338 13.24765 72.37579
v 79.09592 5.97984 77.26022
v 90.91451 15.58601 59.18023
v 95.38620 14.84550 58.74092
v 87.31027 15.84101 60.56176
v 115.56615 6.01500 59.76070
v 133.66066 4.48139 57.33202
v 133.64317 5.01041 59.62008
v 140.53999 2.51687 59.62008
v 140.49146 2.42508 57.97343
v 133.85526 2.76762 55.57151
v 139.73787 2.21001 56.73201
v 97.54788 -0.00002 45.37580
v 116.96775 -0.00002 51.38905
v 134.08966 -0.00002 54.30844
v 140.03177 -0.00003 56.67199
v 88.09606 15.90441 63.75356
v 91.44254 10.97744 70.96341
v 87.19424 10.81314 71.62731
v 85.33990 8.33654 75.24883
v 85.34566 6.10920 78.33923
v 88.01060 7.49680 74.82167
v 90.06696 8.50544 73.34756
v 92.83317 6.36337 77.98843
v 92.50505 7.78475 72.65955
v 102.50307 6.08432 72.93423
v 102.72108 9.84923 70.50903
v 118.01520 3.33421 71.18906
v 117.91853 6.23783 68.81884
v 102.78175 13.71079 65.52360
v 117.96091 6.90691 64.86001
v 141.53540 -0.00003 58.09734
v 141.94232 -0.00003 59.62008
v 103.03204 12.76440 63.31989
v 118.02007 5.51675 62.81445
v 128.19084 7.28825 65.66225
v 128.66429 6.48418 63.18468
v 127.85542 6.12977 69.50154
v 135.92012 6.52361 63.18661
v 135.72372 8.72937 66.32242
v 135.67271 8.53331 71.85418
v 139.66666 6.38641 63.13169
v 140.42696 7.79281 65.94551
v 140.55511 7.79869 71.22328
v 135.99167 5.86772 74.80038
v 127.69162 4.10772 71.23173
v 140.26611 5.77347 74.13253
v 118.03108 -0.00002 72.72591
v 102.94386 -0.00002 74.73445
v 139.79465 -0.00003 75.96388
v 135.86404 0.03688 76.69068
v 144.88440 -0.00003 69.88892
v 143.46303 -0.00003 73.17258
v 144.35542 -0.00003 65.35940
v 141.60757 3.47000 63.18476
v 142.03059 -0.00003 63.18454
v 53.74081 19.68034 58.29751
v 78.45118 -0.00002 78.85621
v 71.18213 -0.00001 76.16122
v 127.53194 -0.00002 73.04414
v 85.37590 -0.00002 80.26624
v 94.67779 -0.00002 79.68771
v 63.23898 -0.00001 77.80087
v 51.58218 -0.00001 78.20992
v 71.74672 -0.00001 36.30068
v 56.82137 -0.00001 35.13550
v 84.22111 -0.00002 39.32254
v 139.66666 6.38641 63.13169
v 138.01610 -0.00003 63.18621
v 141.60757 3.47000 63.18476
v 115.56615 6.01500 59.76070
v 115.56615 -0.00002 59.76070
v 95.38620 -0.00002 58.74092
v 95.38620 14.84550 58.74092
v 140.53999 2.51687 59.62008
v 141.94232 -0.00003 59.62008
v 133.64317 -0.00002 59.62008
v 133.64317 5.01041 59.62008
v 103.03204 -0.00002 63.31989
v 103.03204 12.76440 63.31989
v 87.31027 15.84101 60.56176
v 87.31028 -0.00002 60.56176
v 118.02007 -0.00002 62.81445
v 118.02007 5.51675 62.81445
v 128.66429 -0.00002 63.18468
v 128.66429 6.48418 63.18468
v 135.92012 -0.00002 63.18661
v 135.92012 6.52361 63.18661
v 142.03059 -0.00003 63.18454
v 90.91451 -0.00002 59.18023
v 90.91451 15.58601 59.18023
v 87.31028 -0.00002 60.56176
v 87.31027 15.84101 60.56176
v 33.81610 24.37164 0.26381
v 46.12941 22.19204 0.26521
v 44.86931 26.85214 0.25511
v -55.99559 43.15488 0.50882
v -58.72868 38.34089 0.50772
v -57.39089 33.06148 0.50822
v 92.01812 14.24002 61.04628
v 91.81837 14.03161 64.90894
v 85.57526 15.37791 64.57423
v 85.52120 15.30852 60.67689
v 86.70388 14.93323 57.95271
v 92.54997 13.83142 56.91676
v 92.01812 14.24002 61.04628
v 92.54997 13.83142 56.91676
v 99.30707 11.17054 56.52873
v 98.70287 11.98774 60.96900
v 98.41168 12.80064 64.97849
v 91.81837 14.03161 64.90894
v 27.60601 34.35305 0.26181
v 28.93011 28.89975 0.26231
v 37.09531 43.29494 0.26471
v 44.01621 40.53244 0.25451
v 45.19041 46.00324 0.26531
v 50.80141 29.23564 0.24851
v 45.82611 33.98624 0.24521
v 50.82061 38.72635 0.24841
v -52.42640 28.47497 0.50963
v -37.82090 25.25176 0.51093
v -39.00020 30.19266 0.50103
v -39.93990 45.19396 0.50043
v -39.15170 51.02706 0.51103
v -50.59379 47.21417 0.51053
v -32.46640 32.80626 0.49453
v -37.94650 38.01556 0.49143
v -32.44520 43.21346 0.49443
v 26.84431 -27.69017 56.27714
v 38.60678 -23.36825 55.96663
v 39.75594 -25.32403 46.92200
v 27.07053 -32.90693 48.50223
v 35.46022 -21.30461 61.98869
v 17.97461 -23.44201 61.22525
v 25.48270 -29.17458 7.74451
v 30.87700 -26.43096 8.82611
v 25.90551 -25.39684 29.36547
v 20.58613 -29.13713 30.81436
v 21.03536 -15.98771 33.39015
v 16.70420 -22.96488 38.10952
v 24.23468 -21.32598 33.37893
v 16.70420 -22.96488 38.10952
v 14.59040 -28.49511 45.78897
v 17.31334 -30.30496 39.95494
v 19.48460 -25.09330 36.34047
v 18.25256 -32.98920 31.79584
v 20.58613 -29.13713 30.81436
v 24.23468 -21.32598 33.37893
v 19.48460 -25.09330 36.34047
v 37.16116 -29.07092 39.75388
v 26.91886 -36.62729 40.30051
v 35.11816 -30.07562 31.99242
v 25.88524 -39.01880 31.89181
v 24.17310 -34.27226 7.34051
v 25.48270 -29.17458 7.74451
v 37.17520 -33.80146 10.18701
v 31.05720 -40.75145 9.25991
v -0.44396 -17.73693 27.48651
v -0.81504 -25.47615 37.17703
v -0.78710 -29.53842 54.42065
v 14.59040 -28.49511 45.78897
v -44.48758 -26.69421 60.27344
v -22.60587 -30.83330 54.02545
v -41.15282 -30.32698 53.21238
v -41.97329 -31.01836 42.96167
v 18.07780 -18.00139 69.07735
v 18.08509 -10.18256 77.17656
v 35.23626 -8.74124 76.16629
v 35.25677 -16.39176 69.13494
v 14.78529 -26.92238 54.20707
v -22.44286 -11.64850 75.45702
v -44.62444 -10.90689 72.73344
v -22.44057 -21.85580 68.84209
v -44.55954 -20.33393 66.37441
v 17.97461 -23.44201 61.22525
v 14.78529 -26.92238 54.20707
v -62.86474 -18.56931 62.70156
v -62.37816 -11.01246 67.49411
v -0.77879 -20.60959 69.96168
v -0.76673 -11.07674 76.95307
v 39.75594 -25.32403 46.92200
v 40.76970 -20.83130 42.62913
v 38.56173 -24.46779 40.95555
v 35.99387 -22.77874 35.41091
v 37.96645 -15.34280 37.31604
v 38.56173 -24.46779 40.95555
v 35.99387 -22.77874 35.41091
v 30.32491 -14.40024 33.99669
v 46.18161 -15.44016 39.96857
v 45.76351 -20.84964 49.92088
v 44.60083 -20.12889 57.36197
v 38.60678 -23.36825 55.96663
v 35.46022 -21.30461 61.98869
v 31.18244 -21.04547 32.80904
v 31.18244 -21.04547 32.80904
v 37.09529 -43.29496 0.26471
v 35.78159 -43.38426 4.13591
v 45.19039 -46.00326 0.26531
v 41.19159 -39.42006 4.79811
v 44.01619 -40.53246 0.25451
v 46.12939 -22.19206 0.26521
v 38.66700 -23.75146 3.45481
v 33.81609 -24.37166 0.26381
v 41.80239 -27.84026 4.68291
v 44.86930 -26.85216 0.25511
v 41.80239 -27.84026 4.68291
v 46.12939 -22.19206 0.26521
v 27.60600 -34.35306 0.26181
v 28.93010 -28.89976 0.26231
v 28.93010 -28.89976 0.26231
v 43.29718 -33.83316 4.52921
v 50.82059 -38.72636 0.24841
v 44.01619 -40.53246 0.25451
v 41.19159 -39.42006 4.79811
v 50.82059 -38.72636 0.24841
v 43.29718 -33.83316 4.52921
v 45.82610 -33.98626 0.24521
v 50.82059 -38.72636 0.24841
v 45.82610 -33.98626 0.24521
v 43.29718 -33.83316 4.52921
v 50.80140 -29.23566 0.24851
v 50.80140 -29.23566 0.24851
v 44.86930 -26.85216 0.25511
v -22.32738 -26.05528 36.92292
v -22.37375 -18.28452 26.50013
v -68.94012 -26.96070 48.26500
v -77.84039 -21.71633 49.48730
v -63.90035 -25.21671 56.61871
v -54.83831 -32.67677 53.85463
v -54.86173 -38.12053 46.40586
v -66.47295 -30.77557 42.46665
v -68.94012 -26.96070 48.26500
v -77.37589 -15.13544 60.44977
v -47.26847 -25.26538 36.22796
v -52.04465 -18.06362 30.23910
v -41.15282 -30.32698 53.21238
v -41.97329 -31.01836 42.96167
v -44.48758 -26.69421 60.27344
v -63.90035 -25.21671 56.61871
v -62.25077 -37.73306 24.47818
v -62.33131 -38.32095 8.42063
v -55.69419 -30.23015 10.88786
v -55.00909 -29.22016 24.22050
v -47.29308 -37.13210 25.28723
v -48.08370 -37.79736 10.26313
v -55.83041 -44.19911 10.45063
v -55.26043 -44.72434 25.38538
v -55.00909 -29.22016 24.22050
v -55.69419 -30.23015 10.88786
v -46.01068 -36.32578 31.11234
v -55.08310 -43.38155 31.63243
v -63.77452 -37.10704 31.32412
v -55.95668 -27.61126 30.36792
v -55.95668 -27.61126 30.36792
v -50.59380 -47.21415 0.51053
v -52.08310 -47.27135 4.33072
v -39.15171 -51.02705 0.51102
v -43.27310 -43.90595 4.96462
v -39.93991 -45.19395 0.50042
v -37.82090 -25.25175 0.51093
v -52.89830 -28.46675 3.91663
v -52.42640 -28.47495 0.50963
v -42.75420 -31.32165 4.86763
v -37.82090 -25.25175 0.51093
v -39.00020 -30.19265 0.50103
v -42.75420 -31.32165 4.86763
v -55.99560 -43.15486 0.50883
v -54.59580 -45.72815 6.51723
v -58.72869 -38.34085 0.50773
v -60.23840 -38.30985 3.82583
v -52.42640 -28.47495 0.50963
v -52.89830 -28.46675 3.91663
v -57.39089 -33.06146 0.50823
v -46.16050 -41.00716 7.77693
v -44.49580 -37.81036 7.38052
v -40.76591 -37.84765 4.69092
v -53.93280 -29.43049 6.68198
v -45.91100 -34.39246 7.71693
v -39.93991 -45.19395 0.50042
v -43.27310 -43.90595 4.96462
v -32.44521 -43.21345 0.49442
v -32.44521 -43.21345 0.49442
v -32.44521 -43.21345 0.49442
v -40.76591 -37.84765 4.69092
v -37.94651 -38.01555 0.49142
v -37.94651 -38.01555 0.49142
v -40.76591 -37.84765 4.69092
v -32.46640 -32.80625 0.49452
v -32.46640 -32.80625 0.49452
v -39.00020 -30.19265 0.50103
v -67.40430 -25.40978 40.87749
v -60.39693 -23.80736 34.01406
v -53.56236 -23.78705 32.45372
v -62.20268 -17.18402 33.77580
v -60.39693 -23.80736 34.01406
v -70.12670 -20.41691 39.28215
v -78.13679 -15.59072 39.98549
v -53.93280 -29.43049 6.68198
v -47.26847 -25.26538 36.22796
v -53.56236 -23.78705 32.45372
v -67.40430 -25.40978 40.87749
v -53.56236 -23.78705 32.45372
v 51.17561 -7.49565 75.27670
v 51.64121 -14.17307 70.30160
v 54.40047 -19.13004 50.51562
v 55.81936 -13.97783 40.92452
v 53.74080 -19.68036 58.29751
v 16.70420 -22.96488 38.10952
v -129.16106 -5.93209 46.22839
v -147.67001 -4.23550 49.03225
v -129.28314 -5.74509 53.07699
v -77.37589 -15.13544 60.44977
v -92.91555 -11.12243 57.99152
v -77.84039 -21.71633 49.48730
v -92.75663 -13.00728 46.76343
v -78.13679 -15.59072 39.98549
v -92.87258 -7.33553 37.81195
v -111.49276 -8.44487 55.68376
v -111.45741 -8.60815 45.31583
v -178.86778 -1.12759 47.16100
v 63.68768 -6.97808 74.63732
v 64.62709 -14.68933 70.88191
v 51.64121 -14.17307 70.30160
v 51.17561 -7.49565 75.27670
v 70.10786 -11.62867 40.94692
v 55.81936 -13.97783 40.92452
v 54.40047 -19.13004 50.51562
v 65.00814 -17.15932 51.13308
v 81.75236 -17.31973 52.53471
v 83.21460 -8.93601 44.37532
v 95.26694 -14.10428 54.35180
v 96.18359 -6.04761 48.17761
v 115.85472 -5.78888 56.89960
v 116.19995 -3.64474 53.29625
v 63.58521 -18.68649 58.86869
v 77.39445 -17.05321 67.99249
v 75.02738 -18.17297 59.82075
v 71.53929 -7.30261 74.53915
v 80.26338 -13.24768 72.37579
v 79.09592 -5.97987 77.26022
v 90.91451 -15.58605 59.18023
v 95.38620 -14.84554 58.74092
v 87.31027 -15.84104 60.56176
v 115.56615 -6.01504 59.76070
v 133.64317 -5.01046 59.62008
v 133.66066 -4.48144 57.33202
v 140.53999 -2.51692 59.62008
v 140.49146 -2.42513 57.97343
v 139.73787 -2.21006 56.73201
v 133.85526 -2.76767 55.57151
v 88.09606 -15.90445 63.75356
v 87.19424 -10.81317 71.62731
v 91.44254 -10.97748 70.96341
v 85.33990 -8.33657 75.24883
v 85.34566 -6.10924 78.33923
v 88.01060 -7.49683 74.82167
v 90.06696 -8.50548 73.34756
v 92.83317 -6.36341 77.98843
v 92.50505 -7.78478 72.65955
v 102.50307 -6.08436 72.93423
v 102.72108 -9.84927 70.50903
v 118.01520 -3.33426 71.18906
v 117.91853 -6.23787 68.81884
v 117.96091 -6.90695 64.86001
v 102.78175 -13.71083 65.52360
v 103.03204 -12.76444 63.31989
v 118.02007 -5.51680 62.81445
v 128.19084 -7.28830 65.66225
v 128.66429 -6.48422 63.18468
v 127.85542 -6.12982 69.50154
v 135.72372 -8.72942 66.32242
v 135.92012 -6.52366 63.18661
v 135.67271 -8.53336 71.85418
v 140.42696 -7.79287 65.94551
v 139.66666 -6.38646 63.13169
v 140.55511 -7.79874 71.22328
v 127.69162 -4.10777 71.23173
v 135.99167 -5.86777 74.80038
v 140.26611 -5.77352 74.13253
v 141.60757 -3.47005 63.18476
v 53.74080 -19.68036 58.29751
v 139.66666 -6.38646 63.13169
v 141.60757 -3.47005 63.18476
v 115.56615 -6.01504 59.76070
v 95.38620 -14.84554 58.74092
v 140.53999 -2.51692 59.62008
v 133.64317 -5.01046 59.62008
v 87.31027 -15.84104 60.56176
v 103.03204 -12.76444 63.31989
v 118.02007 -5.51680 62.81445
v 128.66429 -6.48422 63.18468
v 135.92012 -6.52366 63.18661
v 90.91451 -15.58605 59.18023
v 87.31027 -15.84104 60.56176
v 33.81609 -24.37166 0.26381
v 44.86930 -26.85216 0.25511
v 46.12939 -22.19206 0.26521
v -55.99560 -43.15486 0.50883
v -57.39089 -33.06146 0.50823
v -58.72869 -38.34085 0.50773
v 92.01812 -14.24005 61.04628
v 85.52120 -15.30855 60.67689
v 85.57526 -15.37795 64.57423
v 91.81837 -14.03165 64.90893
v 92.54997 -13.83145 56.91676
v 86.70388 -14.93326 57.95271
v 92.01812 -14.24005 61.04628
v 98.70287 -11.98778 60.96900
v 99.30707 -11.17058 56.52873
v 92.54997 -13.83145 56.91676
v 91.81837 -14.03165 64.90893
v 98.41168 -12.80068 64.97849
v 27.60600 -34.35306 0.26181
v 37.09529 -43.29496 0.26471
v 28.93010 -28.89976 0.26231
v 44.01619 -40.53246 0.25451
v 45.19039 -46.00326 0.26531
v 45.82610 -33.98626 0.24521
v 50.80140 -29.23566 0.24851
v 50.82059 -38.72636 0.24841
v -52.42640 -28.47495 0.50963
v -39.00020 -30.19265 0.50103
v -37.82090 -25.25175 0.51093
v -39.93991 -45.19395 0.50042
v -50.59380 -47.21415 0.51053
v -39.15171 -51.02705 0.51102
v -37.94651 -38.01555 0.49142
v -32.46640 -32.80625 0.49452
v -32.44521 -43.21345 0.49442
v 117.53473 5.30702 63.28645
v 114.50037 6.12112 63.66270
v 115.41740 5.81715 60.48511
v 113.71667 6.07544 63.41452
v 110.65906 6.88953 63.41241
v 111.96225 6.58557 60.37271
v 110.38377 7.47889 63.41454
v 107.32617 8.29298 63.41242
v 108.62936 7.98902 60.37272
v 107.20015 9.07470 63.45253
v 104.14254 9.88879 63.45042
v 105.44574 9.58482 60.41072
v 103.36799 9.50411 63.42888
v 99.83864 10.31820 63.42643
v 101.34290 10.01423 59.91775
v 136.43846 5.30702 63.49274
v 133.38086 6.12111 63.49062
v 134.68405 5.81714 60.45092
v 131.39816 5.11396 64.32831
v 128.64694 5.47898 64.32560
v 129.81245 5.36583 60.91605
v 126.43831 4.99110 63.62167
v 123.28517 4.92415 63.36718
v 124.85814 5.06391 60.44541
v 122.10555 4.31153 63.12800
v 118.94922 4.24459 63.33920
v 120.07617 4.38435 60.21816
v 140.66190 3.24737 63.76029
v 138.25209 5.29786 63.74591
v 139.30869 4.45749 60.71146
v 101.74139 9.51784 58.88463
v 104.34284 8.54245 58.62083
v 103.56372 9.01815 61.30367
v 105.86035 8.47060 59.37178
v 108.28883 8.05227 59.58734
v 107.09298 8.25356 61.78010
v 109.00896 7.17568 59.62476
v 111.44640 6.75735 59.67842
v 110.39894 6.95863 61.94582
v 112.50856 6.35685 59.62476
v 114.84509 5.54640 59.67841
v 113.84451 5.91590 61.94582
v 116.96582 5.28115 59.40014
v 119.71838 5.35022 59.46005
v 118.53168 5.34171 61.99145
v 120.54475 4.87299 59.68884
v 123.28890 5.09885 59.74875
v 122.10461 5.02271 62.28014
v 126.30059 4.84483 59.52386
v 128.45688 4.54248 59.58377
v 127.52952 4.69390 62.11517
v 130.73384 4.77636 59.27803
v 132.89999 4.55541 59.33794
v 131.96758 4.67181 61.86934
v 141.01503 0.90019 63.73001
v 140.88545 3.33062 63.61490
v 140.40990 2.34933 60.68064
v 132.37038 3.66692 59.37611
v 134.28400 2.63329 59.25621
v 133.70798 3.09789 61.85299
v 134.65131 2.73316 59.15883
v 135.79156 0.88111 59.03893
v 135.52509 1.57149 61.63571
v 117.53473 -5.30707 63.28645
v 115.41740 -5.81719 60.48511
v 114.50037 -6.12116 63.66270
v 113.71667 -6.07548 63.41452
v 111.96225 -6.58561 60.37271
v 110.65906 -6.88958 63.41240
v 110.38377 -7.47893 63.41452
v 108.62936 -7.98905 60.37271
v 107.32617 -8.29302 63.41241
v 107.20015 -9.07474 63.45253
v 105.44574 -9.58486 60.41072
v 104.14254 -9.88883 63.45042
v 103.36799 -9.50415 63.42888
v 101.34290 -10.01427 59.91775
v 99.83864 -10.31824 63.42643
v 136.43846 -5.30707 63.49274
v 134.68405 -5.81719 60.45092
v 133.38086 -6.12116 63.49062
v 131.39816 -5.11401 64.32831
v 129.81245 -5.36588 60.91605
v 128.64694 -5.47903 64.32560
v 126.43831 -4.99114 63.62167
v 124.85814 -5.06396 60.44541
v 123.28517 -4.92420 63.36718
v 122.10555 -4.31158 63.12800
v 120.07617 -4.38439 60.21816
v 118.94922 -4.24463 63.33920
v 140.66190 -3.24742 63.76029
v 139.30869 -4.45754 60.71146
v 138.25209 -5.29791 63.74591
v 101.74139 -9.51787 58.88463
v 103.56372 -9.01819 61.30367
v 104.34284 -8.54249 58.62083
v 105.86035 -8.47064 59.37178
v 107.09298 -8.25360 61.78010
v 108.28883 -8.05231 59.58734
v 109.00896 -7.17572 59.62476
v 110.39894 -6.95868 61.94581
v 111.44640 -6.75739 59.67841
v 112.50856 -6.35689 59.62476
v 113.84451 -5.91595 61.94581
v 114.84509 -5.54644 59.67841
v 116.96582 -5.28120 59.40014
v 118.53168 -5.34176 61.99145
v 119.71838 -5.35027 59.46005
v 120.54475 -4.87304 59.68884
v 122.10461 -5.02276 62.28014
v 123.28890 -5.09890 59.74875
v 126.30059 -4.84488 59.52386
v 127.52952 -4.69395 62.11517
v 128.45688 -4.54253 59.58377
v 130.73384 -4.77641 59.27803
v 131.96758 -4.67186 61.86934
v 132.89999 -4.55546 59.33794
v 141.01503 -0.90024 63.73001
v 140.40990 -2.34938 60.68064
v 140.88545 -3.33068 63.61490
v 132.37038 -3.66697 59.37611
v 133.70798 -3.09794 61.85299
v 134.28400 -2.63334 59.25621
v 134.65131 -2.73321 59.15883
v 135.52509 -1.57154 61.63571
v 135.79156 -0.88116 59.03893
v 95.56447 10.46399 70.06094
v 91.63130 9.41755 74.98482
v 87.88517 11.73890 70.92345
v 87.12090 7.74186 75.06630
v 91.83006 5.33612 77.06464
v 96.44656 7.08102 73.42287
v 95.56447 -10.46403 70.06093
v 87.88517 -11.73894 70.92345
v 91.63130 -9.41759 74.98482
v 87.12090 -7.74189 75.06630
v 91.83006 -5.33615 77.06464
v 96.44656 -7.08105 73.42286
vt 0.817424 0.191443
vt 0.836814 0.232710
vt 0.769765 0.251545
vt 0.760742 0.209460
vt 0.761571 0.175027
vt 0.835794 0.141423
vt 0.796584 0.417892
vt 0.754106 0.374910
vt 0.770205 0.357705
vt 0.821958 0.432496
vt 0.528979 0.731072
vt 0.545755 0.751641
vt 0.501257 0.770378
vt 0.936114 0.207782
vt 0.939188 0.227751
vt 0.905175 0.226202
vt 0.894920 0.196873
vt 0.948488 0.261515
vt 0.917604 0.265245
vt 0.754226 0.341022
vt 0.724524 0.360673
vt 0.799202 0.283790
vt 0.848680 0.262088
vt 0.870620 0.300964
vt 0.798620 0.341841
vt 0.982312 0.353843
vt 0.956108 0.374107
vt 0.914654 0.394356
vt 0.860886 0.420760
vt 0.415040 0.717747
vt 0.413990 0.763558
vt 0.487554 0.798363
vt 0.412317 0.822026
vt 0.193050 0.861084
vt 0.212835 0.826333
vt 0.306225 0.812616
vt 0.211419 0.790196
vt 0.513015 0.909931
vt 0.604284 0.914421
vt 0.606562 0.954872
vt 0.511963 0.950619
vt 0.611756 0.990397
vt 0.514442 0.994005
vt 0.870574 0.166572
vt 0.176832 0.985733
vt 0.183642 0.934887
vt 0.299645 0.945416
vt 0.299297 0.993615
vt 0.187559 0.893437
vt 0.302218 0.905079
vt 0.419968 0.660356
vt 0.540314 0.681603
vt 0.511796 0.870789
vt 0.489532 0.833597
vt 0.090800 0.875150
vt 0.091452 0.923130
vt 0.082978 0.965533
vt 0.415081 0.909244
vt 0.413568 0.950751
vt 0.413914 0.996778
vt 0.626485 0.807669
vt 0.615639 0.783868
vt 0.634126 0.779178
vt 0.595279 0.772199
vt 0.621223 0.744970
vt 0.776295 0.283836
vt 0.779129 0.309747
vt 0.583263 0.690584
vt 0.621322 0.700947
vt 0.576395 0.736322
vt 0.656740 0.709522
vt 0.661791 0.755605
vt 0.660190 0.797930
vt 0.659522 0.847838
vt 0.624457 0.844723
vt 0.602620 0.871932
vt 0.572170 0.760597
vt 0.771500 0.327821
vt 0.974820 0.445801
vt 0.942402 0.453893
vt 0.927725 0.425705
vt 0.914893 0.456653
vt 0.934761 0.493705
vt 0.829752 0.501660
vt 0.810423 0.472600
vt 0.827212 0.469379
vt 0.847386 0.471778
vt 0.851740 0.518910
vt 0.829752 0.501660
vt 0.847386 0.471778
vt 0.962703 0.424029
vt 0.785954 0.456512
vt 0.999938 0.399554
vt 0.885852 0.469580
vt 0.908021 0.493750
vt 0.914893 0.456653
vt 0.934761 0.493705
vt 0.908021 0.493750
vt 0.885852 0.469580
vt 0.908021 0.493750
vt 0.893092 0.506157
vt 0.893092 0.506157
vt 0.869756 0.491568
vt 0.885852 0.469580
vt 0.869756 0.491568
vt 0.851740 0.518910
vt 0.302997 0.757542
vt 0.298854 0.719539
vt 0.301815 0.684748
vt 0.062173 0.799639
vt 0.091301 0.840519
vt 0.021820 0.800538
vt 0.670268 0.316343
vt 0.585455 0.330212
vt 0.588553 0.300987
vt 0.653170 0.285733
vt 0.023782 0.857864
vt 0.199446 0.754947
vt 0.145503 0.722237
vt 0.143825 0.696767
vt 0.731973 0.296676
vt 0.723777 0.255756
vt 0.724743 0.342603
vt 0.631881 0.359598
vt 0.572673 0.204538
vt 0.516832 0.219491
vt 0.508528 0.161240
vt 0.549809 0.134517
vt 0.672097 0.172986
vt 0.616897 0.185317
vt 0.574069 0.127848
vt 0.646599 0.097061
vt 0.718685 0.143222
vt 0.696005 0.110142
vt 0.633621 0.223561
vt 0.689657 0.209139
vt 0.581985 0.236479
vt 0.516886 0.245081
vt 0.723290 0.200458
vt 0.583436 0.084671
vt 0.582681 0.025736
vt 0.599538 0.076733
vt 0.616193 0.060766
vt 0.606697 0.034386
vt 0.703892 0.020373
vt 0.714861 0.047563
vt 0.713032 0.064000
vt 0.695699 0.071322
vt 0.703892 0.020373
vt 0.695699 0.071322
vt 0.680916 0.036725
vt 0.565687 0.113787
vt 0.564431 0.103772
vt 0.543378 0.120310
vt 0.536994 0.106483
vt 0.482708 0.117318
vt 0.512997 0.111888
vt 0.487150 0.133009
vt 0.629826 0.080958
vt 0.645725 0.073110
vt 0.644422 0.037012
vt 0.686038 0.083751
vt 0.705627 0.100029
vt 0.606697 0.034386
vt 0.616029 0.020427
vt 0.616193 0.060766
vt 0.616029 0.020427
vt 0.616029 0.020427
vt 0.643665 0.026409
vt 0.644422 0.037012
vt 0.643665 0.026409
vt 0.655398 0.016468
vt 0.644422 0.037012
vt 0.655398 0.016468
vt 0.680916 0.036725
vt 0.562909 0.306819
vt 0.529477 0.278126
vt 0.138800 0.743730
vt 0.107670 0.754747
vt 0.097823 0.729994
vt 0.093913 0.705475
vt 0.010890 0.759905
vt 0.054033 0.760102
vt 0.012272 0.693461
vt 0.013043 0.943458
vt 0.500097 0.141129
vt 0.743951 0.206713
vt 0.752456 0.169639
vt 0.072197 0.775916
vt 0.504349 0.258183
vt 0.686114 0.910101
vt 0.682986 0.948038
vt 0.699424 0.764886
vt 0.698658 0.803153
vt 0.696396 0.853119
vt 0.679211 0.991961
vt 0.697749 0.714888
vt 0.703888 0.354914
vt 0.484787 0.546432
vt 0.484215 0.593181
vt 0.391774 0.572721
vt 0.779842 0.716087
vt 0.698096 0.703029
vt 0.706990 0.612568
vt 0.791647 0.619058
vt 0.706571 0.550546
vt 0.794114 0.559627
vt 0.701488 0.493028
vt 0.792317 0.499935
vt 0.603640 0.549582
vt 0.604062 0.601201
vt 0.477188 0.662027
vt 0.383834 0.638044
vt 0.214845 0.577116
vt 0.245802 0.579220
vt 0.247437 0.621348
vt 0.601146 0.685073
vt 0.611287 0.469746
vt 0.487777 0.483009
vt 0.235654 0.521884
vt 0.384799 0.496156
vt 0.689067 0.459686
vt 0.772413 0.443275
vt 0.083880 0.466119
vt 0.011162 0.471358
vt 0.016223 0.417574
vt 0.086310 0.423369
vt 0.102196 0.259165
vt 0.086556 0.299272
vt 0.023207 0.303343
vt 0.026247 0.258809
vt 0.171683 0.261645
vt 0.163031 0.292797
vt 0.242797 0.264776
vt 0.235289 0.313920
vt 0.367497 0.276010
vt 0.367492 0.291658
vt 0.074489 0.358529
vt 0.133940 0.358933
vt 0.149164 0.397938
vt 0.124207 0.462641
vt 0.165572 0.426103
vt 0.163876 0.469361
vt 0.217273 0.345478
vt 0.240236 0.336536
vt 0.200155 0.358551
vt 0.368381 0.306572
vt 0.458390 0.284161
vt 0.460380 0.295646
vt 0.497226 0.284945
vt 0.493837 0.277811
vt 0.459693 0.272242
vt 0.486231 0.266540
vt 0.251072 0.223391
vt 0.370412 0.244315
vt 0.461987 0.248106
vt 0.494730 0.253003
vt 0.204982 0.377112
vt 0.223703 0.424537
vt 0.202637 0.429391
vt 0.194109 0.453107
vt 0.193484 0.465930
vt 0.207552 0.452305
vt 0.217924 0.442888
vt 0.231199 0.460761
vt 0.231052 0.442025
vt 0.282354 0.446766
vt 0.281532 0.423979
vt 0.405777 0.441418
vt 0.405558 0.425928
vt 0.280521 0.391916
vt 0.406082 0.403778
vt 0.503360 0.267241
vt 0.509631 0.274660
vt 0.284596 0.380653
vt 0.407212 0.391111
vt 0.458675 0.405173
vt 0.459815 0.391314
vt 0.457164 0.428752
vt 0.501150 0.385881
vt 0.498359 0.404770
vt 0.497857 0.430641
vt 0.525126 0.389164
vt 0.523058 0.404502
vt 0.520354 0.424166
vt 0.503379 0.449574
vt 0.456439 0.443662
vt 0.522342 0.443720
vt 0.405461 0.463242
vt 0.284561 0.475073
vt 0.531723 0.458097
vt 0.502733 0.459760
vt 0.545912 0.432269
vt 0.547715 0.458347
vt 0.567978 0.408423
vt 0.547054 0.392387
vt 0.566305 0.392995
vt 0.024100 0.356041
vt 0.164180 0.491561
vt 0.127699 0.492232
vt 0.453621 0.465944
vt 0.196162 0.486484
vt 0.237185 0.481186
vt 0.085146 0.511291
vt 0.021097 0.511164
vt 0.117172 0.195724
vt 0.041040 0.183210
vt 0.183757 0.206089
vt 0.692822 0.952003
vt 0.700950 0.983455
vt 0.683263 0.966365
vt 0.825985 0.864514
vt 0.825985 0.895958
vt 0.952896 0.895958
vt 0.952896 0.818351
vt 0.695431 0.882801
vt 0.688100 0.895958
vt 0.730628 0.897779
vt 0.731485 0.869765
vt 0.914486 0.983455
vt 0.914486 0.920593
vt 0.991911 0.905442
vt 0.991911 0.983455
vt 0.799425 0.983455
vt 0.799425 0.956286
vt 0.747005 0.983455
vt 0.747005 0.951522
vt 0.711272 0.983455
vt 0.711272 0.951327
vt 0.681180 0.983455
vt 0.976272 0.895958
vt 0.976272 0.814480
vt 0.995114 0.895958
vt 0.995114 0.813147
vt 0.457593 0.069682
vt 0.486351 0.167917
vt 0.426131 0.128841
vt 0.364052 0.052866
vt 0.392394 0.026662
vt 0.427760 0.046879
vt 0.827386 0.774103
vt 0.828934 0.817696
vt 0.756565 0.819329
vt 0.752827 0.775386
vt 0.764450 0.743546
vt 0.830774 0.726928
vt 0.827386 0.774103
vt 0.830774 0.726928
vt 0.909814 0.716909
vt 0.906762 0.767132
vt 0.904554 0.813204
vt 0.828934 0.817696
vt 0.365726 0.054593
vt 0.429465 0.048614
vt 0.337818 0.080484
vt 0.358835 0.140306
vt 0.307501 0.159416
vt 0.432168 0.197373
vt 0.397318 0.137044
vt 0.360325 0.200284
vt 0.473893 0.117389
vt 0.486496 0.170714
vt 0.438852 0.134997
vt 0.354674 0.143559
vt 0.305827 0.157688
vt 0.336143 0.078757
vt 0.431927 0.201483
vt 0.395644 0.135316
vt 0.358669 0.199678
vt 0.817424 0.191443
vt 0.760742 0.209460
vt 0.769765 0.251545
vt 0.836814 0.232710
vt 0.761571 0.175027
vt 0.835794 0.141423
vt 0.796584 0.417892
vt 0.821958 0.432496
vt 0.770205 0.357705
vt 0.754106 0.374910
vt 0.528979 0.731072
vt 0.501257 0.770378
vt 0.545755 0.751641
vt 0.936114 0.207782
vt 0.894920 0.196873
vt 0.905175 0.226202
vt 0.939188 0.227751
vt 0.917604 0.265245
vt 0.948488 0.261515
vt 0.754226 0.341022
vt 0.724524 0.360673
vt 0.799202 0.283790
vt 0.848680 0.262088
vt 0.798620 0.341841
vt 0.870620 0.300964
vt 0.956108 0.374107
vt 0.982312 0.353843
vt 0.860886 0.420760
vt 0.914654 0.394356
vt 0.415040 0.717747
vt 0.413990 0.763558
vt 0.412317 0.822026
vt 0.487554 0.798363
vt 0.193050 0.861084
vt 0.306225 0.812616
vt 0.212835 0.826333
vt 0.211419 0.790196
vt 0.513015 0.909931
vt 0.511963 0.950619
vt 0.606562 0.954872
vt 0.604284 0.914421
vt 0.870574 0.166572
vt 0.299645 0.945416
vt 0.183642 0.934887
vt 0.302218 0.905079
vt 0.187559 0.893437
vt 0.511796 0.870789
vt 0.489532 0.833597
vt 0.090800 0.875150
vt 0.091452 0.923130
vt 0.415081 0.909244
vt 0.413568 0.950751
vt 0.626485 0.807669
vt 0.634126 0.779178
vt 0.615639 0.783868
vt 0.595279 0.772199
vt 0.621223 0.744970
vt 0.776295 0.283836
vt 0.779129 0.309747
vt 0.576395 0.736322
vt 0.661791 0.755605
vt 0.660190 0.797930
vt 0.659522 0.847838
vt 0.624457 0.844723
vt 0.602620 0.871932
vt 0.572170 0.760597
vt 0.771500 0.327821
vt 0.974820 0.445801
vt 0.927725 0.425705
vt 0.942402 0.453893
vt 0.914893 0.456653
vt 0.934761 0.493705
vt 0.829752 0.501660
vt 0.827212 0.469379
vt 0.810423 0.472600
vt 0.847386 0.471778
vt 0.851740 0.518910
vt 0.847386 0.471778
vt 0.829752 0.501660
vt 0.962703 0.424029
vt 0.785954 0.456512
vt 0.999938 0.399554
vt 0.885852 0.469580
vt 0.908021 0.493750
vt 0.934761 0.493705
vt 0.914893 0.456653
vt 0.908021 0.493750
vt 0.885852 0.469580
vt 0.893092 0.506157
vt 0.908021 0.493750
vt 0.893092 0.506157
vt 0.885852 0.469580
vt 0.869756 0.491568
vt 0.869756 0.491568
vt 0.851740 0.518910
vt 0.302997 0.757542
vt 0.298854 0.719539
vt 0.062173 0.799639
vt 0.021820 0.800538
vt 0.091301 0.840519
vt 0.670268 0.316343
vt 0.653170 0.285733
vt 0.588553 0.300987
vt 0.585455 0.330212
vt 0.023782 0.857864
vt 0.199446 0.754947
vt 0.145503 0.722237
vt 0.731973 0.296676
vt 0.723777 0.255756
vt 0.724743 0.342603
vt 0.631881 0.359598
vt 0.572673 0.204538
vt 0.549809 0.134517
vt 0.508528 0.161240
vt 0.516832 0.219491
vt 0.672097 0.172986
vt 0.646599 0.097061
vt 0.574069 0.127848
vt 0.616897 0.185317
vt 0.718685 0.143222
vt 0.696005 0.110142
vt 0.689657 0.209139
vt 0.633621 0.223561
vt 0.581985 0.236479
vt 0.516886 0.245081
vt 0.723290 0.200458
vt 0.583436 0.084671
vt 0.599538 0.076733
vt 0.582681 0.025736
vt 0.616193 0.060766
vt 0.606697 0.034386
vt 0.703892 0.020373
vt 0.713032 0.064000
vt 0.714861 0.047563
vt 0.695699 0.071322
vt 0.703892 0.020373
vt 0.680916 0.036725
vt 0.695699 0.071322
vt 0.564431 0.103772
vt 0.565687 0.113787
vt 0.536994 0.106483
vt 0.543378 0.120310
vt 0.482708 0.117318
vt 0.487150 0.133009
vt 0.512997 0.111888
vt 0.629826 0.080958
vt 0.645725 0.073110
vt 0.644422 0.037012
vt 0.705627 0.100029
vt 0.686038 0.083751
vt 0.606697 0.034386
vt 0.616193 0.060766
vt 0.616029 0.020427
vt 0.616029 0.020427
vt 0.616029 0.020427
vt 0.644422 0.037012
vt 0.643665 0.026409
vt 0.643665 0.026409
vt 0.644422 0.037012
vt 0.655398 0.016468
vt 0.655398 0.016468
vt 0.680916 0.036725
vt 0.562909 0.306819
vt 0.529477 0.278126
vt 0.138800 0.743730
vt 0.097823 0.729994
vt 0.107670 0.754747
vt 0.054033 0.760102
vt 0.010890 0.759905
vt 0.500097 0.141129
vt 0.743951 0.206713
vt 0.752456 0.169639
vt 0.072197 0.775916
vt 0.504349 0.258183
vt 0.682986 0.948038
vt 0.686114 0.910101
vt 0.698658 0.803153
vt 0.699424 0.764886
vt 0.696396 0.853119
vt 0.703888 0.354914
vt 0.484787 0.546432
vt 0.391774 0.572721
vt 0.484215 0.593181
vt 0.791647 0.619058
vt 0.706990 0.612568
vt 0.794114 0.559627
vt 0.706571 0.550546
vt 0.792317 0.499935
vt 0.701488 0.493028
vt 0.604062 0.601201
vt 0.603640 0.549582
vt 0.245802 0.579220
vt 0.083880 0.466119
vt 0.086310 0.423369
vt 0.016223 0.417574
vt 0.011162 0.471358
vt 0.102196 0.259165
vt 0.026247 0.258809
vt 0.023207 0.303343
vt 0.086556 0.299272
vt 0.163031 0.292797
vt 0.171683 0.261645
vt 0.235289 0.313920
vt 0.242797 0.264776
vt 0.367492 0.291658
vt 0.367497 0.276010
vt 0.074489 0.358529
vt 0.149164 0.397938
vt 0.133940 0.358933
vt 0.124207 0.462641
vt 0.165572 0.426103
vt 0.163876 0.469361
vt 0.217273 0.345478
vt 0.240236 0.336536
vt 0.200155 0.358551
vt 0.368381 0.306572
vt 0.460380 0.295646
vt 0.458390 0.284161
vt 0.497226 0.284945
vt 0.493837 0.277811
vt 0.486231 0.266540
vt 0.459693 0.272242
vt 0.204982 0.377112
vt 0.202637 0.429391
vt 0.223703 0.424537
vt 0.194109 0.453107
vt 0.193484 0.465930
vt 0.207552 0.452305
vt 0.217924 0.442888
vt 0.231199 0.460761
vt 0.231052 0.442025
vt 0.282354 0.446766
vt 0.281532 0.423979
vt 0.405777 0.441418
vt 0.405558 0.425928
vt 0.406082 0.403778
vt 0.280521 0.391916
vt 0.284596 0.380653
vt 0.407212 0.391111
vt 0.458675 0.405173
vt 0.459815 0.391314
vt 0.457164 0.428752
vt 0.498359 0.404770
vt 0.501150 0.385881
vt 0.497857 0.430641
vt 0.523058 0.404502
vt 0.525126 0.389164
vt 0.520354 0.424166
vt 0.456439 0.443662
vt 0.503379 0.449574
vt 0.522342 0.443720
vt 0.547054 0.392387
vt 0.024100 0.356041
vt 0.692822 0.952003
vt 0.683263 0.966365
vt 0.825985 0.864514
vt 0.952896 0.818351
vt 0.695431 0.882801
vt 0.731485 0.869765
vt 0.991911 0.905442
vt 0.914486 0.920593
vt 0.799425 0.956286
vt 0.747005 0.951522
vt 0.711272 0.951327
vt 0.976272 0.814480
vt 0.995114 0.813147
vt 0.457593 0.069682
vt 0.426131 0.128841
vt 0.486351 0.167917
vt 0.364052 0.052866
vt 0.427760 0.046879
vt 0.392394 0.026662
vt 0.827386 0.774103
vt 0.752827 0.775386
vt 0.756565 0.819329
vt 0.828934 0.817696
vt 0.830774 0.726928
vt 0.764450 0.743546
vt 0.827386 0.774103
vt 0.906762 0.767132
vt 0.909814 0.716909
vt 0.830774 0.726928
vt 0.828934 0.817696
vt 0.904554 0.813204
vt 0.365726 0.054593
vt 0.337818 0.080484
vt 0.429465 0.048614
vt 0.358835 0.140306
vt 0.307501 0.159416
vt 0.397318 0.137044
vt 0.432168 0.197373
vt 0.360325 0.200284
vt 0.473893 0.117389
vt 0.438852 0.134997
vt 0.486496 0.170714
vt 0.354674 0.143559
vt 0.336143 0.078757
vt 0.305827 0.157688
vt 0.395644 0.135316
vt 0.431927 0.201483
vt 0.358669 0.199678
vt 0.861398 0.533427
vt 0.985144 0.533427
vt 0.923344 0.709114
vt 0.861398 0.533427
vt 0.985144 0.533427
vt 0.923344 0.709114
vt 0.861398 0.533427
vt 0.985144 0.533427
vt 0.923344 0.709114
vt 0.861398 0.533427
vt 0.985144 0.533427
vt 0.923344 0.709114
vt 0.861398 0.533427
vt 0.985144 0.533427
vt 0.923344 0.709114
vt 0.861398 0.533427
vt 0.985144 0.533427
vt 0.923344 0.709114
vt 0.861398 0.533427
vt 0.985144 0.533427
vt 0.923344 0.709114
vt 0.861398 0.533427
vt 0.985144 0.533427
vt 0.923344 0.709114
vt 0.861398 0.533427
vt 0.985144 0.533427
vt 0.923344 0.709114
vt 0.861398 0.533427
vt 0.985144 0.533427
vt 0.923344 0.709114
vt 0.861398 0.533427
vt 0.985144 0.533427
vt 0.923344 0.709114
vt 0.861398 0.533427
vt 0.985144 0.533427
vt 0.923344 0.709114
vt 0.861398 0.533427
vt 0.985144 0.533427
vt 0.923344 0.709114
vt 0.861398 0.533427
vt 0.985144 0.533427
vt 0.923344 0.709114
vt 0.861398 0.533427
vt 0.985144 0.533427
vt 0.923344 0.709114
vt 0.861398 0.533427
vt 0.985144 0.533427
vt 0.923344 0.709114
vt 0.861398 0.533427
vt 0.985144 0.533427
vt 0.923344 0.709114
vt 0.861398 0.533427
vt 0.985144 0.533427
vt 0.923344 0.709114
vt 0.861398 0.533427
vt 0.985144 0.533427
vt 0.923344 0.709114
vt 0.861398 0.533427
vt 0.985144 0.533427
vt 0.923344 0.709114
vt 0.861398 0.533427
vt 0.985144 0.533427
vt 0.923344 0.709114
vt 0.861398 0.533427
vt 0.923344 0.709114
vt 0.985144 0.533427
vt 0.861398 0.533427
vt 0.923344 0.709114
vt 0.985144 0.533427
vt 0.861398 0.533427
vt 0.923344 0.709114
vt 0.985144 0.533427
vt 0.861398 0.533427
vt 0.923344 0.709114
vt 0.985144 0.533427
vt 0.861398 0.533427
vt 0.923344 0.709114
vt 0.985144 0.533427
vt 0.861398 0.533427
vt 0.923344 0.709114
vt 0.985144 0.533427
vt 0.861398 0.533427
vt 0.923344 0.709114
vt 0.985144 0.533427
vt 0.861398 0.533427
vt 0.923344 0.709114
vt 0.985144 0.533427
vt 0.861398 0.533427
vt 0.923344 0.709114
vt 0.985144 0.533427
vt 0.861398 0.533427
vt 0.923344 0.709114
vt 0.985144 0.533427
vt 0.861398 0.533427
vt 0.923344 0.709114
vt 0.985144 0.533427
vt 0.861398 0.533427
vt 0.923344 0.709114
vt 0.985144 0.533427
vt 0.861398 0.533427
vt 0.923344 0.709114
vt 0.985144 0.533427
vt 0.861398 0.533427
vt 0.923344 0.709114
vt 0.985144 0.533427
vt 0.861398 0.533427
vt 0.923344 0.709114
vt 0.985144 0.533427
vt 0.861398 0.533427
vt 0.923344 0.709114
vt 0.985144 0.533427
vt 0.861398 0.533427
vt 0.923344 0.709114
vt 0.985144 0.533427
vt 0.861398 0.533427
vt 0.923344 0.709114
vt 0.985144 0.533427
vt 0.861398 0.533427
vt 0.923344 0.709114
vt 0.985144 0.533427
vt 0.861398 0.533427
vt 0.923344 0.709114
vt 0.985144 0.533427
vt 0.861398 0.533427
vt 0.923344 0.709114
vt 0.985144 0.533427
vt 0.113271 0.074265
vt 0.158127 0.122387
vt 0.201681 0.074265
vt 0.228370 0.127526
vt 0.158127 0.167153
vt 0.088074 0.128229
vt 0.113271 0.074265
vt 0.201681 0.074265
vt 0.158127 0.122387
vt 0.228370 0.127526
vt 0.158127 0.167153
vt 0.088074 0.128229
vn 0.08954 0.87921 0.46795
vn 0.06211 0.91631 0.39563
vn 0.66295 0.74589 0.06438
vn 0.35582 0.86632 0.35055
vn 0.20794 0.80539 0.55507
vn 0.04278 0.83456 0.54925
vn -0.76334 -0.60203 -0.23424
vn -0.73055 -0.54716 -0.40854
vn -0.16989 -0.83158 -0.52879
vn 0.14675 -0.94267 0.29974
vn 0.08582 0.29145 -0.95273
vn -0.37440 -0.25246 -0.89224
vn -0.34327 0.49749 -0.79666
vn -0.34327 0.49749 -0.79666
vn -0.78665 -0.19565 -0.58558
vn -0.82078 0.55692 -0.12708
vn -0.25719 0.96596 -0.02779
vn -0.73055 -0.54716 -0.40854
vn -0.97610 0.17848 -0.12397
vn -0.37440 -0.25246 -0.89224
vn -0.78665 -0.19565 -0.58558
vn 0.78347 0.62121 0.01681
vn 0.04016 0.96437 0.26148
vn -0.13621 0.98462 0.10944
vn 0.95580 0.13578 -0.26078
vn -0.76334 -0.60203 -0.23424
vn -0.87082 0.40930 -0.27231
vn 0.05197 0.96584 0.25386
vn 0.74880 0.01791 0.66255
vn 0.16113 0.56395 -0.80994
vn 0.05777 0.88891 -0.45443
vn -0.25719 0.96596 -0.02779
vn 0.08597 0.96416 0.25102
vn -0.06777 0.76972 0.63478
vn 0.15675 0.92664 0.34172
vn 0.03043 0.98466 0.17180
vn 0.45561 0.81163 -0.36562
vn 0.09280 0.77963 0.61932
vn 0.13114 0.78819 0.60130
vn 0.07001 0.45956 0.88538
vn 0.06592 0.42938 0.90071
vn 0.02463 -0.00000 0.99970
vn 0.05711 -0.00000 0.99837
vn 0.02316 0.94903 0.31434
vn -0.15318 0.00000 0.98820
vn -0.19191 0.45426 0.86995
vn -0.09993 0.43926 0.89278
vn -0.06119 0.00000 0.99813
vn -0.16513 0.61137 0.77393
vn -0.05096 0.69275 0.71937
vn 0.15492 0.00000 -0.98793
vn 0.21457 0.00000 -0.97671
vn 0.04278 0.83456 0.54925
vn 0.02316 0.94903 0.31434
vn -0.28356 0.60589 0.74329
vn -0.24098 0.47639 0.84557
vn -0.23670 -0.00000 0.97158
vn 0.05918 0.76016 0.64704
vn -0.01532 0.42106 0.90690
vn 0.02009 -0.00000 0.99980
vn 0.66295 0.74589 0.06438
vn 0.92191 0.22336 -0.31655
vn 0.82922 0.31039 -0.46481
vn 0.76409 -0.02039 -0.64479
vn 0.48107 0.19443 -0.85485
vn 0.92191 0.22336 -0.31655
vn 0.76409 -0.02039 -0.64479
vn 0.31177 -0.00000 -0.95016
vn 0.29042 -0.00000 -0.95690
vn 0.19377 0.03056 -0.98057
vn 0.19207 0.00000 -0.98138
vn 0.15935 0.56873 -0.80694
vn 0.39304 0.86648 -0.30778
vn 0.26537 0.90294 0.33807
vn 0.35582 0.86632 0.35055
vn 0.20794 0.80539 0.55507
vn 0.29170 -0.29986 -0.90829
vn 0.29170 -0.29986 -0.90829
vn -0.50212 0.84370 -0.18986
vn 0.40787 0.64352 0.64770
vn -0.27912 0.92780 0.24756
vn 0.53032 0.30428 0.79131
vn 0.85432 -0.18432 0.48597
vn 0.05405 -0.84135 0.53779
vn -0.39352 -0.91931 0.00187
vn 0.06632 -0.84177 0.53574
vn 0.43185 -0.44181 0.78633
vn 0.82387 0.22390 0.52068
vn 0.82387 0.22390 0.52068
vn 0.82387 0.22390 0.52068
vn -0.84710 0.38382 -0.36756
vn -0.80349 -0.47967 -0.35259
vn -0.80349 -0.47967 -0.35259
vn 0.56613 0.02447 0.82395
vn 0.23881 0.89846 0.36843
vn 0.23881 0.89846 0.36843
vn 0.23881 0.89846 0.36843
vn 0.43117 0.11946 0.89433
vn 0.64330 -0.67807 0.35552
vn 0.64330 -0.67807 0.35552
vn 0.64330 -0.67807 0.35552
vn 0.63349 0.66373 0.39768
vn 0.63349 0.66373 0.39768
vn 0.63349 0.66373 0.39768
vn 0.44110 -0.51988 0.73155
vn 0.33840 -0.84104 0.42207
vn 0.02249 0.84250 -0.53823
vn -0.01174 0.53922 -0.84209
vn -0.07647 0.00000 -0.99707
vn -0.62875 0.76247 0.15269
vn -0.33788 0.67876 0.65202
vn -0.51163 0.85726 0.05780
vn -0.24782 0.78532 0.56733
vn -0.62875 0.76247 0.15269
vn -0.83016 0.55752 0.00312
vn 0.12000 0.92507 0.36034
vn -0.27157 0.64257 0.71648
vn 0.32943 0.44271 -0.83396
vn -0.09123 0.41800 -0.90385
vn -0.27655 0.00000 -0.96100
vn 0.15675 0.92664 0.34172
vn 0.45561 0.81163 -0.36562
vn -0.06777 0.76972 0.63478
vn -0.33788 0.67876 0.65202
vn -0.97893 0.20306 -0.02143
vn 0.10886 -0.97188 -0.20878
vn -0.29967 -0.94685 0.11694
vn -0.97620 0.07003 -0.20525
vn 0.96309 0.24237 -0.11709
vn 0.15659 0.98591 0.05889
vn -0.12208 0.97787 0.16988
vn 0.79774 -0.10211 0.59429
vn 0.10886 -0.97188 -0.20878
vn -0.29967 -0.94685 0.11694
vn -0.25188 0.94069 0.22728
vn 0.97084 0.23200 -0.06038
vn -0.97621 -0.05101 -0.21072
vn -0.11037 -0.42941 -0.89634
vn -0.11037 -0.42941 -0.89634
vn -0.45455 0.87017 -0.19023
vn 0.31676 0.66970 0.67169
vn -0.30246 0.91708 0.25978
vn 0.43970 0.32630 0.83677
vn 0.81141 -0.11068 0.57390
vn -0.08215 -0.88027 0.46731
vn -0.46162 -0.88461 -0.06607
vn -0.33341 -0.86582 0.37308
vn 0.31691 -0.47686 0.81986
vn 0.76835 0.18462 0.61282
vn 0.76835 0.18462 0.61282
vn 0.76835 0.18462 0.61282
vn -0.41649 0.86750 0.27199
vn -0.70740 0.69160 -0.14585
vn -0.96963 -0.10641 -0.22023
vn -0.90313 0.33614 -0.26713
vn -0.46162 -0.88461 -0.06607
vn -0.83290 -0.54598 -0.09048
vn -0.33341 -0.86582 0.37308
vn 0.45015 0.46825 0.76033
vn 0.60058 0.05770 0.79748
vn 0.51103 -0.01895 0.85936
vn 0.48959 -0.47250 0.73283
vn -0.22907 -0.95901 0.16681
vn 0.23154 0.87493 0.42531
vn 0.23154 0.87493 0.42531
vn 0.23154 0.87493 0.42531
vn 0.38537 0.11814 0.91517
vn 0.63037 -0.66739 0.39652
vn 0.63037 -0.66739 0.39652
vn 0.63037 -0.66739 0.39652
vn 0.61821 0.65061 0.44105
vn 0.61821 0.65061 0.44105
vn 0.61821 0.65061 0.44105
vn 0.39901 -0.49901 0.76927
vn 0.32451 -0.81003 0.48842
vn -0.68311 0.40487 -0.60782
vn -0.47694 -0.04117 -0.87797
vn 0.04106 0.02172 -0.99892
vn -0.47694 -0.04117 -0.87797
vn -0.36033 0.26594 -0.89411
vn -0.26012 0.00000 -0.96558
vn -0.34690 0.66092 -0.66547
vn -0.45583 0.52859 -0.71611
vn -0.23460 0.00000 -0.97209
vn -0.24714 -0.00000 0.96898
vn -0.22907 -0.95901 0.16681
vn 0.32943 0.44271 -0.83396
vn 0.04106 0.02172 -0.99892
vn -0.68311 0.40487 -0.60782
vn 0.04106 0.02172 -0.99892
vn 0.03305 0.78165 0.62285
vn 0.04764 0.41884 0.90681
vn 0.13137 0.66694 -0.73344
vn 0.16661 0.95256 -0.25470
vn 0.08403 0.98170 0.17087
vn -0.00287 0.00000 1.00000
vn 0.06889 0.00000 -0.99762
vn -0.34327 0.49749 -0.79666
vn -0.11592 0.92444 -0.36327
vn -0.15091 0.91602 0.37166
vn -0.12248 0.98954 0.07623
vn -0.24714 -0.00000 0.96898
vn -0.18563 0.00000 0.98262
vn -0.25982 0.80701 0.53030
vn -0.27157 0.64257 0.71648
vn -0.35168 0.89889 -0.26138
vn -0.51163 0.85726 0.05780
vn -0.19449 0.63795 -0.74511
vn -0.34690 0.66092 -0.66547
vn -0.19396 0.92617 -0.32340
vn -0.17392 0.90241 0.39421
vn -0.20941 -0.00000 0.97783
vn -0.23089 0.00000 0.97298
vn -0.98933 0.00000 -0.14571
vn -0.28023 0.94931 -0.14240
vn -0.64328 0.00000 0.76563
vn -0.20617 -0.00000 0.97852
vn -0.20831 0.00000 -0.97806
vn -0.06580 0.00000 -0.99783
vn -0.64587 0.00000 -0.76344
vn -0.15071 0.00000 -0.98858
vn -0.14473 -0.00000 -0.98947
vn -0.23460 0.00000 -0.97209
vn 0.04268 0.42030 0.90638
vn 0.04764 0.41884 0.90681
vn 0.03305 0.78165 0.62285
vn -0.04633 0.70020 0.71245
vn 0.18205 0.74978 -0.63615
vn 0.12085 0.94708 -0.29738
vn 0.16661 0.95256 -0.25470
vn 0.13137 0.66694 -0.73344
vn 0.23990 0.64638 -0.72432
vn 0.17186 0.94189 -0.28864
vn 0.31959 0.60723 -0.72741
vn 0.29009 0.89356 -0.34264
vn 0.21681 0.66923 -0.71072
vn 0.22733 0.92110 -0.31606
vn 0.04417 0.99216 0.11687
vn 0.09248 0.99569 -0.00749
vn 0.08730 0.95365 0.28797
vn -0.10960 0.37665 0.91985
vn 0.12647 0.69640 0.70643
vn -0.23174 0.38742 0.89230
vn 0.16674 0.98483 -0.04796
vn 0.31421 0.94141 -0.12254
vn 0.16207 0.98609 -0.03686
vn 0.23217 0.97121 -0.05335
vn 0.21937 0.89569 -0.38679
vn 0.15635 0.97280 -0.17094
vn 0.53234 0.83863 -0.11539
vn 0.65516 0.63421 -0.41054
vn 0.20407 0.65679 -0.72594
vn 0.48960 0.47292 -0.73255
vn 0.35467 -0.06067 -0.93302
vn 0.26235 -0.04749 -0.96380
vn 0.23455 -0.01343 -0.97201
vn 0.55475 0.00000 -0.83202
vn 0.17123 0.91790 0.35796
vn 0.08506 0.70593 0.70315
vn 0.23973 0.74211 0.62595
vn 0.31887 0.70560 0.63281
vn 0.04253 0.56441 0.82440
vn 0.22001 0.77852 0.58780
vn 0.32061 0.65106 0.68799
vn 0.15375 0.78597 0.59884
vn 0.18659 0.72119 0.66714
vn 0.26909 0.52559 0.80706
vn 0.19034 0.69496 0.69340
vn 0.06690 0.50295 0.86172
vn 0.11540 0.85880 0.49915
vn 0.23974 0.95342 0.18305
vn 0.20620 0.97788 -0.03517
vn 0.85634 0.00000 -0.51641
vn 0.98662 -0.00000 -0.16306
vn 0.32614 0.85410 -0.40514
vn 0.10155 0.87190 -0.47904
vn -0.10103 0.98471 -0.14189
vn -0.07687 0.90733 -0.41333
vn -0.16217 0.87683 0.45262
vn 0.00863 0.81814 -0.57495
vn -0.02059 0.97592 -0.21714
vn -0.16892 0.87636 0.45107
vn 0.49222 0.74048 -0.45762
vn 0.64786 0.72547 -0.23232
vn 0.44997 0.83978 0.30379
vn -0.09211 0.53473 0.83999
vn -0.27403 0.55683 0.78412
vn 0.56629 0.47045 0.67675
vn 0.04946 0.00000 0.99878
vn 0.27763 0.00000 0.96069
vn 0.32678 0.00054 0.94510
vn -0.11498 0.00168 0.99337
vn 0.98497 -0.00000 0.17272
vn 0.78167 -0.00000 0.62370
vn 0.91184 -0.00000 -0.41054
vn 0.80804 0.33709 -0.48315
vn 0.68316 0.00000 -0.73027
vn 0.08403 0.98170 0.17087
vn -0.24178 -0.00000 0.97033
vn -0.11820 -0.00000 0.99299
vn -0.24341 0.00043 0.96992
vn -0.06946 0.00000 0.99758
vn 0.27777 -0.00000 0.96065
vn 0.10228 0.00000 0.99476
vn -0.00287 0.00000 1.00000
vn 0.17280 -0.01400 -0.98486
vn 0.06889 0.00000 -0.99762
vn 0.34212 -0.04132 -0.93875
vn -0.00147 -0.00658 -0.99998
vn 0.00328 -0.00000 -0.99999
vn 0.00502 -0.00561 -0.99997
vn -0.03107 0.00000 0.99952
vn -0.01164 0.00000 0.99993
vn -0.00106 0.00000 1.00000
vn 0.04848 0.00000 0.99882
vn 0.00000 0.00000 1.00000
vn 0.00000 0.00000 1.00000
vn 0.00259 0.00000 1.00000
vn 0.00519 0.00000 0.99999
vn 0.10446 -0.00000 -0.99453
vn 0.03530 0.00000 -0.99938
vn 0.17280 0.00000 -0.98496
vn 0.17280 -0.00000 -0.98496
vn -0.01089 0.00000 -0.99994
vn 0.01195 0.00000 -0.99993
vn 0.02327 0.00000 -0.99973
vn 0.01177 0.00000 -0.99993
vn -0.00358 -0.00000 -0.99999
vn -0.00720 0.00000 -0.99997
vn -0.00042 0.00000 -1.00000
vn 0.22990 -0.00000 0.97321
vn 0.22990 0.00000 0.97321
vn 0.35792 -0.00000 0.93375
vn 0.35791 0.00000 0.93375
vn -0.00013 -0.00052 -1.00000
vn -0.00028 -0.00224 -1.00000
vn -0.00201 -0.00079 -1.00000
vn 0.00033 0.00001 -1.00000
vn 0.00039 0.00001 -1.00000
vn 0.00035 0.00001 -1.00000
vn 0.17724 0.98388 -0.02385
vn 0.20713 0.97626 0.06338
vn 0.18545 0.98241 0.02180
vn 0.16445 0.98550 -0.04179
vn 0.16866 0.98323 -0.06940
vn 0.17183 0.98226 -0.07506
vn 0.29554 0.95273 -0.07039
vn 0.36378 0.93039 -0.04521
vn 0.33991 0.93635 -0.08777
vn 0.31421 0.93767 -0.14849
vn 0.25006 0.96679 -0.05269
vn 0.18254 0.98122 0.06238
vn 0.00030 -0.00001 -1.00000
vn 0.00029 -0.00002 -1.00000
vn -0.00067 0.00054 -1.00000
vn -0.00239 0.00069 -1.00000
vn -0.00063 0.00211 -1.00000
vn -0.00059 -0.00131 -1.00000
vn -0.00266 -0.00017 -1.00000
vn -0.00056 0.00127 -1.00000
vn -0.00011 -0.00049 -1.00000
vn -0.00037 -0.00209 -1.00000
vn -0.00171 -0.00073 -1.00000
vn -0.00202 0.00062 -1.00000
vn -0.00059 0.00190 -1.00000
vn -0.00048 0.00048 -1.00000
vn -0.00053 -0.00116 -1.00000
vn -0.00235 -0.00015 -1.00000
vn -0.00051 0.00111 -1.00000
vn 0.08954 -0.87921 0.46795
vn 0.35582 -0.86632 0.35055
vn 0.66295 -0.74589 0.06438
vn 0.06211 -0.91631 0.39563
vn 0.20794 -0.80539 0.55507
vn 0.04278 -0.83456 0.54925
vn -0.76334 0.60203 -0.23424
vn 0.14675 0.94267 0.29974
vn -0.16989 0.83158 -0.52879
vn -0.73055 0.54716 -0.40854
vn 0.08582 -0.29145 -0.95273
vn -0.34327 -0.49749 -0.79666
vn -0.37440 0.25246 -0.89224
vn -0.34327 -0.49749 -0.79666
vn -0.25719 -0.96596 -0.02779
vn -0.82078 -0.55692 -0.12708
vn -0.78665 0.19565 -0.58559
vn -0.97610 -0.17848 -0.12397
vn -0.73055 0.54716 -0.40854
vn -0.37440 0.25246 -0.89224
vn -0.78665 0.19565 -0.58559
vn 0.78347 -0.62121 0.01681
vn 0.04016 -0.96437 0.26148
vn 0.95580 -0.13578 -0.26079
vn -0.13621 -0.98462 0.10944
vn -0.87082 -0.40929 -0.27231
vn -0.76334 0.60203 -0.23424
vn 0.74880 -0.01791 0.66255
vn 0.05197 -0.96584 0.25386
vn 0.16113 -0.56395 -0.80994
vn 0.05777 -0.88891 -0.45443
vn 0.08597 -0.96416 0.25102
vn -0.25719 -0.96596 -0.02779
vn -0.06777 -0.76972 0.63478
vn 0.03043 -0.98466 0.17180
vn 0.15675 -0.92664 0.34172
vn 0.45561 -0.81163 -0.36562
vn 0.09280 -0.77963 0.61932
vn 0.06592 -0.42938 0.90071
vn 0.07001 -0.45956 0.88538
vn 0.13114 -0.78819 0.60130
vn 0.02316 -0.94903 0.31434
vn -0.09993 -0.43926 0.89278
vn -0.19191 -0.45426 0.86995
vn -0.05096 -0.69275 0.71937
vn -0.16513 -0.61137 0.77393
vn 0.04278 -0.83456 0.54925
vn 0.02316 -0.94903 0.31434
vn -0.28356 -0.60589 0.74329
vn -0.24098 -0.47639 0.84557
vn 0.05918 -0.76016 0.64704
vn -0.01532 -0.42106 0.90690
vn 0.66295 -0.74589 0.06438
vn 0.82922 -0.31039 -0.46481
vn 0.92191 -0.22336 -0.31655
vn 0.76409 0.02039 -0.64479
vn 0.48107 -0.19443 -0.85485
vn 0.92191 -0.22336 -0.31655
vn 0.76409 0.02039 -0.64479
vn 0.19377 -0.03056 -0.98057
vn 0.15935 -0.56873 -0.80694
vn 0.39304 -0.86648 -0.30778
vn 0.26537 -0.90294 0.33807
vn 0.35582 -0.86632 0.35055
vn 0.20794 -0.80539 0.55507
vn 0.29170 0.29986 -0.90829
vn 0.29170 0.29986 -0.90829
vn -0.50212 -0.84370 -0.18986
vn -0.27912 -0.92780 0.24756
vn 0.40787 -0.64352 0.64770
vn 0.53032 -0.30429 0.79131
vn 0.85432 0.18432 0.48597
vn 0.05405 0.84135 0.53779
vn 0.06632 0.84177 0.53574
vn -0.39352 0.91931 0.00187
vn 0.43185 0.44181 0.78633
vn 0.82387 -0.22390 0.52068
vn 0.82387 -0.22390 0.52068
vn 0.82387 -0.22390 0.52068
vn -0.84710 -0.38382 -0.36756
vn -0.80349 0.47967 -0.35259
vn -0.80349 0.47967 -0.35259
vn 0.56613 -0.02447 0.82395
vn 0.23881 -0.89846 0.36843
vn 0.23881 -0.89846 0.36843
vn 0.23881 -0.89846 0.36843
vn 0.43117 -0.11946 0.89433
vn 0.64330 0.67807 0.35552
vn 0.64330 0.67807 0.35552
vn 0.64330 0.67807 0.35552
vn 0.63349 -0.66373 0.39768
vn 0.63349 -0.66373 0.39768
vn 0.63349 -0.66373 0.39768
vn 0.44110 0.51988 0.73155
vn 0.33840 0.84104 0.42207
vn 0.02249 -0.84250 -0.53823
vn -0.01174 -0.53922 -0.84209
vn -0.62875 -0.76247 0.15269
vn -0.51163 -0.85726 0.05780
vn -0.33788 -0.67876 0.65202
vn -0.24782 -0.78532 0.56733
vn 0.12000 -0.92507 0.36034
vn -0.83016 -0.55752 0.00312
vn -0.62875 -0.76247 0.15269
vn -0.27157 -0.64257 0.71648
vn 0.32943 -0.44271 -0.83396
vn -0.09123 -0.41800 -0.90385
vn 0.15675 -0.92664 0.34172
vn 0.45561 -0.81163 -0.36562
vn -0.06777 -0.76972 0.63478
vn -0.33788 -0.67876 0.65202
vn -0.97893 -0.20306 -0.02143
vn -0.97620 -0.07003 -0.20525
vn -0.29967 0.94685 0.11694
vn 0.10887 0.97188 -0.20878
vn 0.96309 -0.24237 -0.11709
vn 0.79774 0.10211 0.59429
vn -0.12208 -0.97787 0.16988
vn 0.15659 -0.98591 0.05889
vn 0.10887 0.97188 -0.20878
vn -0.29967 0.94685 0.11694
vn 0.97084 -0.23200 -0.06039
vn -0.25188 -0.94069 0.22728
vn -0.97621 0.05101 -0.21072
vn -0.11037 0.42941 -0.89634
vn -0.11037 0.42941 -0.89634
vn -0.45455 -0.87017 -0.19024
vn -0.30246 -0.91708 0.25978
vn 0.31676 -0.66970 0.67169
vn 0.43970 -0.32630 0.83677
vn 0.81141 0.11068 0.57390
vn -0.08215 0.88027 0.46731
vn -0.33341 0.86582 0.37308
vn -0.46162 0.88461 -0.06607
vn 0.31691 0.47686 0.81986
vn 0.76835 -0.18462 0.61282
vn 0.76835 -0.18462 0.61282
vn 0.76835 -0.18462 0.61282
vn -0.70740 -0.69160 -0.14585
vn -0.41649 -0.86750 0.27199
vn -0.90314 -0.33614 -0.26713
vn -0.96963 0.10641 -0.22023
vn -0.46162 0.88461 -0.06607
vn -0.33341 0.86582 0.37308
vn -0.83290 0.54598 -0.09048
vn 0.45015 -0.46825 0.76033
vn 0.60058 -0.05771 0.79748
vn 0.51103 0.01895 0.85936
vn -0.22907 0.95901 0.16681
vn 0.48959 0.47250 0.73283
vn 0.23154 -0.87493 0.42531
vn 0.23154 -0.87493 0.42531
vn 0.23154 -0.87493 0.42531
vn 0.38537 -0.11814 0.91517
vn 0.63037 0.66739 0.39652
vn 0.63037 0.66739 0.39652
vn 0.63037 0.66739 0.39652
vn 0.61821 -0.65061 0.44106
vn 0.61821 -0.65061 0.44106
vn 0.61821 -0.65061 0.44106
vn 0.39901 0.49901 0.76927
vn 0.32451 0.81003 0.48842
vn -0.68311 -0.40487 -0.60782
vn -0.47694 0.04117 -0.87797
vn 0.04106 -0.02172 -0.99892
vn -0.36033 -0.26594 -0.89411
vn -0.47694 0.04117 -0.87797
vn -0.45583 -0.52859 -0.71611
vn -0.34690 -0.66092 -0.66547
vn -0.22907 0.95901 0.16681
vn 0.32943 -0.44271 -0.83396
vn 0.04106 -0.02172 -0.99892
vn -0.68311 -0.40487 -0.60782
vn 0.04106 -0.02172 -0.99892
vn 0.04764 -0.41884 0.90681
vn 0.03305 -0.78165 0.62284
vn 0.17486 -0.94866 -0.26358
vn 0.14403 -0.66948 -0.72873
vn 0.08403 -0.98170 0.17087
vn -0.34327 -0.49749 -0.79666
vn -0.11592 -0.92444 -0.36327
vn -0.12248 -0.98954 0.07623
vn -0.15091 -0.91602 0.37166
vn -0.27157 -0.64257 0.71648
vn -0.25982 -0.80701 0.53030
vn -0.51163 -0.85726 0.05780
vn -0.35168 -0.89889 -0.26138
vn -0.34690 -0.66092 -0.66547
vn -0.19449 -0.63795 -0.74511
vn -0.17392 -0.90241 0.39421
vn -0.19396 -0.92617 -0.32340
vn -0.28023 -0.94931 -0.14240
vn 0.04268 -0.42030 0.90638
vn -0.04633 -0.70020 0.71245
vn 0.03305 -0.78165 0.62284
vn 0.04764 -0.41884 0.90681
vn 0.21053 -0.73873 -0.64028
vn 0.14403 -0.66948 -0.72873
vn 0.17486 -0.94866 -0.26358
vn 0.13182 -0.93539 -0.32812
vn 0.18327 -0.92429 -0.33482
vn 0.26342 -0.63295 -0.72800
vn 0.28878 -0.86708 -0.40592
vn 0.30359 -0.58818 -0.74958
vn 0.21804 -0.89804 -0.38207
vn 0.18426 -0.64423 -0.74230
vn 0.04417 -0.99216 0.11687
vn 0.08730 -0.95365 0.28797
vn 0.09248 -0.99569 -0.00749
vn -0.10960 -0.37665 0.91985
vn 0.12647 -0.69640 0.70643
vn -0.23174 -0.38742 0.89230
vn 0.16674 -0.98483 -0.04796
vn 0.31421 -0.94141 -0.12254
vn 0.16207 -0.98609 -0.03686
vn 0.23217 -0.97121 -0.05335
vn 0.15635 -0.97280 -0.17094
vn 0.21937 -0.89569 -0.38679
vn 0.53234 -0.83863 -0.11539
vn 0.65516 -0.63421 -0.41054
vn 0.48960 -0.47292 -0.73255
vn 0.19498 -0.63794 -0.74499
vn 0.17123 -0.91790 0.35796
vn 0.23973 -0.74211 0.62595
vn 0.08506 -0.70593 0.70315
vn 0.31887 -0.70560 0.63281
vn 0.04253 -0.56441 0.82440
vn 0.22001 -0.77852 0.58780
vn 0.32061 -0.65106 0.68799
vn 0.15375 -0.78597 0.59884
vn 0.18659 -0.72119 0.66714
vn 0.26909 -0.52559 0.80706
vn 0.19034 -0.69496 0.69340
vn 0.06690 -0.50295 0.86172
vn 0.11540 -0.85880 0.49915
vn 0.20620 -0.97788 -0.03517
vn 0.23974 -0.95342 0.18305
vn 0.32614 -0.85410 -0.40514
vn 0.10155 -0.87190 -0.47904
vn -0.10103 -0.98471 -0.14189
vn -0.07687 -0.90733 -0.41333
vn -0.16217 -0.87683 0.45262
vn -0.02059 -0.97592 -0.21714
vn 0.00863 -0.81814 -0.57495
vn -0.16892 -0.87636 0.45107
vn 0.64786 -0.72547 -0.23232
vn 0.49222 -0.74048 -0.45762
vn 0.44997 -0.83978 0.30379
vn -0.27403 -0.55683 0.78412
vn -0.09265 -0.53377 0.84054
vn 0.56629 -0.47045 0.67675
vn 0.80804 -0.33709 -0.48315
vn 0.08403 -0.98170 0.17087
vn -0.00147 0.00658 -0.99998
vn 0.00502 0.00561 -0.99997
vn -0.03107 0.00000 0.99952
vn 0.04848 0.00000 0.99882
vn 0.00000 0.00000 1.00000
vn 0.00519 0.00000 0.99999
vn 0.17280 -0.00000 -0.98496
vn 0.03530 0.00000 -0.99938
vn 0.01195 0.00000 -0.99993
vn 0.01177 0.00000 -0.99993
vn -0.00720 0.00000 -0.99997
vn 0.22990 0.00000 0.97321
vn 0.35791 -0.00000 0.93375
vn -0.00013 0.00052 -1.00000
vn -0.00201 0.00079 -1.00000
vn -0.00028 0.00224 -1.00000
vn 0.00033 -0.00001 -1.00000
vn 0.00035 -0.00001 -1.00000
vn 0.00039 -0.00000 -1.00000
vn 0.17724 -0.98388 -0.02385
vn 0.16445 -0.98550 -0.04179
vn 0.18545 -0.98241 0.02180
vn 0.20713 -0.97626 0.06338
vn 0.17182 -0.98226 -0.07506
vn 0.16866 -0.98323 -0.06940
vn 0.29554 -0.95273 -0.07039
vn 0.31421 -0.93767 -0.14849
vn 0.33991 -0.93635 -0.08777
vn 0.36378 -0.93039 -0.04521
vn 0.18254 -0.98122 0.06238
vn 0.25006 -0.96680 -0.05269
vn 0.00030 0.00001 -1.00000
vn -0.00067 -0.00054 -1.00000
vn 0.00029 0.00002 -1.00000
vn -0.00239 -0.00069 -1.00000
vn -0.00063 -0.00211 -1.00000
vn -0.00266 0.00017 -1.00000
vn -0.00059 0.00131 -1.00000
vn -0.00056 -0.00127 -1.00000
vn -0.00011 0.00049 -1.00000
vn -0.00171 0.00073 -1.00000
vn -0.00037 0.00209 -1.00000
vn -0.00202 -0.00062 -1.00000
vn -0.00048 -0.00048 -1.00000
vn -0.00059 -0.00190 -1.00000
vn -0.00235 0.00015 -1.00000
vn -0.00053 0.00116 -1.00000
vn -0.00051 -0.00111 -1.00000
vn 0.25697 0.96625 -0.01827
vn 0.25697 0.96625 -0.01827
vn 0.25697 0.96625 -0.01827
vn 0.25726 0.96625 0.01367
vn 0.25726 0.96625 0.01367
vn 0.25726 0.96625 0.01367
vn 0.25726 0.96625 0.01367
vn 0.25726 0.96625 0.01367
vn 0.25726 0.96625 0.01367
vn 0.25726 0.96625 0.01367
vn 0.25726 0.96625 0.01367
vn 0.25726 0.96625 0.01367
vn 0.22474 0.97435 0.01194
vn 0.22474 0.97435 0.01194
vn 0.22474 0.97435 0.01194
vn 0.25726 0.96625 0.01367
vn 0.25726 0.96625 0.01367
vn 0.25726 0.96625 0.01367
vn 0.13150 0.99124 0.01206
vn 0.13150 0.99124 0.01206
vn 0.13150 0.99124 0.01206
vn -0.02403 0.99910 0.03486
vn -0.02403 0.99910 0.03486
vn -0.02403 0.99910 0.03486
vn -0.01865 0.99910 0.03801
vn -0.01865 0.99910 0.03801
vn -0.01865 0.99910 0.03801
vn 0.64792 0.76156 0.01470
vn 0.64792 0.76156 0.01470
vn 0.64792 0.76156 0.01470
vn 0.34443 0.93649 -0.06602
vn 0.34443 0.93649 -0.06602
vn 0.34443 0.93649 -0.06602
vn 0.16959 0.98551 0.00202
vn 0.16959 0.98551 0.00202
vn 0.16959 0.98551 0.00202
vn 0.16935 0.98551 -0.00926
vn 0.16935 0.98551 -0.00926
vn 0.16935 0.98551 -0.00926
vn 0.32788 0.94467 -0.00926
vn 0.32788 0.94467 -0.00926
vn 0.32788 0.94467 -0.00926
vn -0.02490 0.99966 -0.00831
vn -0.02490 0.99966 -0.00831
vn -0.02490 0.99966 -0.00831
vn -0.08185 0.99661 -0.00831
vn -0.08185 0.99661 -0.00831
vn -0.08185 0.99661 -0.00831
vn 0.13908 0.99025 -0.00828
vn 0.13908 0.99025 -0.00828
vn 0.13908 0.99025 -0.00828
vn 0.10170 0.99478 -0.00828
vn 0.10170 0.99478 -0.00828
vn 0.10170 0.99478 -0.00828
vn 0.98372 0.04420 -0.17421
vn 0.98372 0.04420 -0.17421
vn 0.98372 0.04420 -0.17421
vn 0.47202 0.88001 -0.05274
vn 0.47202 0.88001 -0.05274
vn 0.47202 0.88001 -0.05274
vn 0.84884 0.52602 -0.05274
vn 0.84884 0.52602 -0.05274
vn 0.84884 0.52602 -0.05274
vn 0.25697 -0.96625 -0.01827
vn 0.25697 -0.96625 -0.01827
vn 0.25697 -0.96625 -0.01827
vn 0.25726 -0.96625 0.01367
vn 0.25726 -0.96625 0.01367
vn 0.25726 -0.96625 0.01367
vn 0.25726 -0.96625 0.01367
vn 0.25726 -0.96625 0.01367
vn 0.25726 -0.96625 0.01367
vn 0.25726 -0.96625 0.01367
vn 0.25726 -0.96625 0.01367
vn 0.25726 -0.96625 0.01367
vn 0.22474 -0.97435 0.01194
vn 0.22474 -0.97435 0.01194
vn 0.22474 -0.97435 0.01194
vn 0.25726 -0.96625 0.01367
vn 0.25726 -0.96625 0.01367
vn 0.25726 -0.96625 0.01367
vn 0.13150 -0.99124 0.01206
vn 0.13150 -0.99124 0.01206
vn 0.13150 -0.99124 0.01206
vn -0.02403 -0.99910 0.03486
vn -0.02403 -0.99910 0.03486
vn -0.02403 -0.99910 0.03486
vn -0.01865 -0.99910 0.03801
vn -0.01865 -0.99910 0.03801
vn -0.01865 -0.99910 0.03801
vn 0.64792 -0.76156 0.01470
vn 0.64792 -0.76156 0.01470
vn 0.64792 -0.76156 0.01470
vn 0.34443 -0.93649 -0.06602
vn 0.34443 -0.93649 -0.06602
vn 0.34443 -0.93649 -0.06602
vn 0.16959 -0.98551 0.00202
vn 0.16959 -0.98551 0.00202
vn 0.16959 -0.98551 0.00202
vn 0.16935 -0.98551 -0.00926
vn 0.16935 -0.98551 -0.00926
vn 0.16935 -0.98551 -0.00926
vn 0.32788 -0.94467 -0.00926
vn 0.32788 -0.94467 -0.00926
vn 0.32788 -0.94467 -0.00926
vn -0.02490 -0.99966 -0.00831
vn -0.02490 -0.99966 -0.00831
vn -0.02490 -0.99966 -0.00831
vn -0.08185 -0.99661 -0.00831
vn -0.08185 -0.99661 -0.00831
vn -0.08185 -0.99661 -0.00831
vn 0.13908 -0.99025 -0.00828
vn 0.13908 -0.99025 -0.00828
vn 0.13908 -0.99025 -0.00828
vn 0.10170 -0.99478 -0.00828
vn 0.10170 -0.99478 -0.00828
vn 0.10170 -0.99478 -0.00828
vn 0.98372 -0.04420 -0.17421
vn 0.98372 -0.04420 -0.17421
vn 0.98372 -0.04420 -0.17421
vn 0.47202 -0.88001 -0.05274
vn 0.47202 -0.88001 -0.05274
vn 0.47202 -0.88001 -0.05274
vn 0.84884 -0.52602 -0.05274
vn 0.84884 -0.52602 -0.05274
vn 0.84884 -0.52602 -0.05274
vn 0.35579 0.81498 0.45741
vn 0.16364 0.69402 0.70112
vn -0.03338 0.85413 0.51898
vn -0.20578 0.59180 0.77938
vn 0.16268 0.45426 0.87589
vn 0.48786 0.55500 0.67377
vn 0.35579 -0.81498 0.45741
vn -0.03338 -0.85413 0.51898
vn 0.16364 -0.69402 0.70112
vn -0.20578 -0.59180 0.77938
vn 0.16268 -0.45426 0.87589
vn 0.48786 -0.55500 0.67377
f 524/524/524 525/525/525 526/526/526
f 168/168/168 169/169/169 170/170/170
f 509/509/509 508/508/508 510/510/510
f 508/508/508 509/509/509 497/497/497
f 499/499/499 515/515/515 516/516/516
f 486/486/486 516/516/516 515/515/515
f 499/499/499 517/517/517 523/523/523
f 516/516/516 517/517/517 499/499/499
f 499/499/499 500/500/500 498/498/498
f 497/497/497 499/499/499 498/498/498
f 497/497/497 496/496/496 508/508/508
f 496/496/496 497/497/497 498/498/498
f 517/517/517 516/516/516 519/519/519
f 519/519/519 504/504/504 517/517/517
f 517/517/517 504/504/504 530/530/530
f 486/486/486 519/519/519 516/516/516
f 502/502/502 504/504/504 519/519/519
f 519/519/519 518/518/518 502/502/502
f 519/519/519 486/486/486 490/490/490
f 490/490/490 518/518/518 519/519/519
f 504/504/504 531/531/531 530/530/530
f 501/501/501 504/504/504 502/502/502
f 501/501/501 502/502/502 503/503/503
f 489/489/489 490/490/490 486/486/486
f 486/486/486 485/485/485 489/489/489
f 491/491/491 495/495/495 489/489/489
f 489/489/489 485/485/485 491/491/491
f 491/491/491 478/478/478 495/495/495
f 495/495/495 478/478/478 540/540/540
f 540/540/540 541/541/541 495/495/495
f 153/153/153 140/140/140 142/142/142
f 142/142/142 152/152/152 153/153/153
f 140/140/140 141/141/141 142/142/142
f 152/152/152 142/142/142 143/143/143
f 142/142/142 141/141/141 143/143/143
f 143/143/143 141/141/141 144/144/144
f 143/143/143 167/167/167 161/161/161
f 143/143/143 161/161/161 160/160/160
f 160/160/160 159/159/159 143/143/143
f 143/143/143 159/159/159 152/152/152
f 161/161/161 148/148/148 162/162/162
f 162/162/162 160/160/160 161/161/161
f 161/161/161 174/174/174 148/148/148
f 132/132/132 160/160/160 162/162/162
f 132/132/132 159/159/159 160/160/160
f 147/147/147 163/163/163 162/162/162
f 162/162/162 148/148/148 147/147/147
f 162/162/162 163/163/163 134/134/134
f 134/134/134 132/132/132 162/162/162
f 148/148/148 174/174/174 175/175/175
f 145/145/145 147/147/147 148/148/148
f 145/145/145 146/146/146 147/147/147
f 132/132/132 134/134/134 133/133/133
f 133/133/133 129/129/129 132/132/132
f 136/136/136 129/129/129 133/133/133
f 133/133/133 139/139/139 136/136/136
f 136/136/136 139/139/139 122/122/122
f 139/139/139 188/188/188 187/187/187
f 187/187/187 122/122/122 139/139/139
f 149/149/149 150/150/150 151/151/151
f 505/505/505 506/506/506 507/507/507
f 437/437/437 438/438/438 439/439/439
f 396/396/396 395/395/395 449/449/449
f 449/449/449 451/451/451 396/396/396
f 387/387/387 395/395/395 396/396/396
f 396/396/396 388/388/388 387/387/387
f 387/387/387 388/388/388 386/386/386
f 452/452/452 445/445/445 463/463/463
f 445/445/445 464/464/464 463/463/463
f 377/377/377 443/443/443 445/445/445
f 442/442/442 445/445/445 443/443/443
f 443/443/443 377/377/377 444/444/444
f 444/444/444 377/377/377 376/376/376
f 376/376/376 377/377/377 378/378/378
f 442/442/442 443/443/443 444/444/444
f 376/376/376 450/450/450 444/444/444
f 378/378/378 379/379/379 376/376/376
f 436/436/436 389/389/389 378/378/378
f 379/379/379 378/378/378 389/389/389
f 389/389/389 390/390/390 379/379/379
f 389/389/389 549/549/549 390/390/390
f 79/79/79 80/80/80 81/81/81
f 26/26/26 93/93/93 91/91/91
f 91/91/91 27/27/27 26/26/26
f 26/26/26 27/27/27 19/19/19
f 19/19/19 18/18/18 26/26/26
f 15/15/15 18/18/18 19/19/19
f 87/87/87 105/105/105 106/106/106
f 94/94/94 105/105/105 87/87/87
f 87/87/87 86/86/86 10/10/10
f 84/84/84 86/86/86 87/87/87
f 84/84/84 85/85/85 86/86/86
f 86/86/86 85/85/85 10/10/10
f 7/7/7 10/10/10 85/85/85
f 9/9/9 10/10/10 7/7/7
f 85/85/85 92/92/92 7/7/7
f 7/7/7 8/8/8 9/9/9
f 9/9/9 20/20/20 78/78/78
f 20/20/20 9/9/9 8/8/8
f 8/8/8 21/21/21 20/20/20
f 20/20/20 21/21/21 198/198/198
f 171/171/171 172/172/172 173/173/173
f 527/527/527 528/528/528 529/529/529
f 309/309/309 329/329/329 328/328/328
f 328/328/328 310/310/310 309/309/309
f 309/309/309 310/310/310 311/311/311
f 328/328/328 329/329/329 327/327/327
f 623/623/623 310/310/310 328/328/328
f 328/328/328 633/633/633 623/623/623
f 328/328/328 326/326/326 632/632/632
f 632/632/632 633/633/633 328/328/328
f 327/327/327 326/326/326 328/328/328
f 624/624/624 330/330/330 310/310/310
f 623/623/623 624/624/624 310/310/310
f 311/311/311 310/310/310 330/330/330
f 631/631/631 632/632/632 326/326/326
f 326/326/326 324/324/324 631/631/631
f 326/326/326 327/327/327 325/325/325
f 325/325/325 324/324/324 326/326/326
f 630/630/630 631/631/631 324/324/324
f 324/324/324 320/320/320 630/630/630
f 321/321/321 320/320/320 324/324/324
f 324/324/324 325/325/325 321/321/321
f 629/629/629 630/630/630 320/320/320
f 320/320/320 323/323/323 629/629/629
f 322/322/322 323/323/323 320/320/320
f 320/320/320 321/321/321 322/322/322
f 457/457/457 458/458/458 459/459/459
f 99/99/99 100/100/100 101/101/101
f 716/716/716 717/717/717 718/718/718
f 779/779/779 780/780/780 781/781/781
f 713/713/713 714/714/714 715/715/715
f 776/776/776 777/777/777 778/778/778
f 692/692/692 693/693/693 694/694/694
f 755/755/755 756/756/756 757/757/757
f 695/695/695 696/696/696 697/697/697
f 758/758/758 759/759/759 760/760/760
f 164/164/164 165/165/165 166/166/166
f 520/520/520 521/521/521 522/522/522
f 313/313/313 312/312/312 319/319/319
f 314/314/314 315/315/315 312/312/312
f 312/312/312 313/313/313 314/314/314
f 313/313/313 318/318/318 628/628/628
f 628/628/628 625/625/625 313/313/313
f 314/314/314 313/313/313 625/625/625
f 319/319/319 318/318/318 313/313/313
f 318/318/318 319/319/319 316/316/316
f 318/318/318 317/317/317 627/627/627
f 627/627/627 628/628/628 318/318/318
f 316/316/316 317/317/317 318/318/318
f 625/625/625 626/626/626 314/314/314
f 331/331/331 314/314/314 626/626/626
f 315/315/315 314/314/314 331/331/331
f 331/331/331 332/332/332 315/315/315
f 512/512/512 513/513/513 514/514/514
f 722/722/722 723/723/723 724/724/724
f 785/785/785 786/786/786 787/787/787
f 68/68/68 69/69/69 65/65/65
f 429/429/429 380/380/380 382/382/382
f 382/382/382 435/435/435 429/429/429
f 426/426/426 429/429/429 435/435/435
f 51/51/51 399/399/399 380/380/380
f 381/381/381 380/380/380 399/399/399
f 380/380/380 381/381/381 382/382/382
f 51/51/51 109/109/109 466/466/466
f 466/466/466 399/399/399 51/51/51
f 51/51/51 30/30/30 108/108/108
f 108/108/108 109/109/109 51/51/51
f 400/400/400 399/399/399 466/466/466
f 399/399/399 400/400/400 381/381/381
f 402/402/402 381/381/381 400/400/400
f 466/466/466 465/465/465 400/400/400
f 400/400/400 465/465/465 404/404/404
f 404/404/404 401/401/401 400/400/400
f 400/400/400 401/401/401 402/402/402
f 476/476/476 466/466/466 109/109/109
f 465/465/465 466/466/466 476/476/476
f 476/476/476 475/475/475 465/465/465
f 465/465/465 475/475/475 406/406/406
f 406/406/406 404/404/404 465/465/465
f 476/476/476 534/534/534 475/475/475
f 535/535/535 476/476/476 120/120/120
f 12/12/12 11/11/11 70/70/70
f 70/70/70 11/11/11 52/52/52
f 11/11/11 30/30/30 51/51/51
f 51/51/51 52/52/52 11/11/11
f 30/30/30 11/11/11 13/13/13
f 11/11/11 12/12/12 13/13/13
f 70/70/70 77/77/77 12/12/12
f 77/77/77 70/70/70 65/65/65
f 52/52/52 68/68/68 70/70/70
f 65/65/65 70/70/70 68/68/68
f 52/52/52 380/380/380 429/429/429
f 429/429/429 68/68/68 52/52/52
f 380/380/380 52/52/52 51/51/51
f 426/426/426 69/69/69 68/68/68
f 68/68/68 429/429/429 426/426/426
f 534/534/534 476/476/476 535/535/535
f 109/109/109 120/120/120 476/476/476
f 535/535/535 536/536/536 534/534/534
f 535/535/535 537/537/537 542/542/542
f 542/542/542 536/536/536 535/535/535
f 535/535/535 181/181/181 184/184/184
f 537/537/537 535/535/535 184/184/184
f 120/120/120 181/181/181 535/535/535
f 180/180/180 181/181/181 120/120/120
f 120/120/120 119/119/119 180/180/180
f 119/119/119 120/120/120 109/109/109
f 109/109/109 108/108/108 119/119/119
f 119/119/119 118/118/118 178/178/178
f 180/180/180 119/119/119 178/178/178
f 119/119/119 108/108/108 107/107/107
f 107/107/107 118/118/118 119/119/119
f 108/108/108 30/30/30 31/31/31
f 31/31/31 107/107/107 108/108/108
f 107/107/107 36/36/36 37/37/37
f 37/37/37 118/118/118 107/107/107
f 36/36/36 107/107/107 31/31/31
f 31/31/31 33/33/33 36/36/36
f 32/32/32 33/33/33 31/31/31
f 31/31/31 13/13/13 32/32/32
f 13/13/13 31/31/31 30/30/30
f 58/58/58 50/50/50 36/36/36
f 36/36/36 33/33/33 58/58/58
f 34/34/34 36/36/36 50/50/50
f 35/35/35 37/37/37 36/36/36
f 34/34/34 35/35/35 36/36/36
f 33/33/33 53/53/53 38/38/38
f 38/38/38 58/58/58 33/33/33
f 54/54/54 33/33/33 32/32/32
f 53/53/53 33/33/33 54/54/54
f 50/50/50 58/58/58 59/59/59
f 41/41/41 59/59/59 58/58/58
f 58/58/58 38/38/38 41/41/41
f 50/50/50 49/49/49 34/34/34
f 59/59/59 47/47/47 50/50/50
f 49/49/49 50/50/50 47/47/47
f 111/111/111 34/34/34 49/49/49
f 49/49/49 55/55/55 111/111/111
f 55/55/55 49/49/49 46/46/46
f 47/47/47 46/46/46 49/49/49
f 48/48/48 47/47/47 59/59/59
f 47/47/47 48/48/48 45/45/45
f 45/45/45 46/46/46 47/47/47
f 59/59/59 60/60/60 48/48/48
f 60/60/60 59/59/59 41/41/41
f 421/421/421 412/412/412 48/48/48
f 48/48/48 60/60/60 421/421/421
f 45/45/45 48/48/48 412/412/412
f 57/57/57 45/45/45 413/413/413
f 412/412/412 413/413/413 45/45/45
f 46/46/46 45/45/45 57/57/57
f 57/57/57 56/56/56 46/46/46
f 46/46/46 56/56/56 55/55/55
f 88/88/88 89/89/89 90/90/90
f 446/446/446 447/447/447 448/448/448
f 199/199/199 201/201/201 221/221/221
f 221/221/221 219/219/219 199/199/199
f 218/218/218 210/210/210 199/199/199
f 199/199/199 219/219/219 218/218/218
f 211/211/211 200/200/200 199/199/199
f 199/199/199 210/210/210 211/211/211
f 199/199/199 200/200/200 201/201/201
f 201/201/201 213/213/213 216/216/216
f 216/216/216 215/215/215 201/201/201
f 221/221/221 201/201/201 215/215/215
f 213/213/213 201/201/201 200/200/200
f 212/212/212 200/200/200 211/211/211
f 200/200/200 212/212/212 213/213/213
f 204/204/204 211/211/211 210/210/210
f 211/211/211 217/217/217 212/212/212
f 719/719/719 720/720/720 721/721/721
f 782/782/782 783/783/783 784/784/784
f 689/689/689 690/690/690 691/691/691
f 752/752/752 753/753/753 754/754/754
f 180/180/180 184/184/184 181/181/181
f 178/178/178 179/179/179 180/180/180
f 184/184/184 538/538/538 537/537/537
f 468/468/468 537/537/537 538/538/538
f 542/542/542 537/537/537 468/468/468
f 468/468/468 467/467/467 542/542/542
f 467/467/467 468/468/468 469/469/469
f 414/414/414 404/404/404 403/403/403
f 403/403/403 404/404/404 405/405/405
f 404/404/404 414/414/414 420/420/420
f 421/421/421 420/420/420 414/414/414
f 420/420/420 401/401/401 404/404/404
f 405/405/405 404/404/404 406/406/406
f 401/401/401 420/420/420 407/407/407
f 408/408/408 407/407/407 420/420/420
f 420/420/420 421/421/421 408/408/408
f 408/408/408 421/421/421 60/60/60
f 60/60/60 43/43/43 408/408/408
f 409/409/409 408/408/408 43/43/43
f 407/407/407 408/408/408 409/409/409
f 407/407/407 416/416/416 401/401/401
f 434/434/434 416/416/416 407/407/407
f 407/407/407 410/410/410 434/434/434
f 409/409/409 410/410/410 407/407/407
f 417/417/417 402/402/402 401/401/401
f 416/416/416 417/417/417 401/401/401
f 432/432/432 434/434/434 410/410/410
f 410/410/410 545/545/545 432/432/432
f 545/545/545 410/410/410 409/409/409
f 544/544/544 409/409/409 42/42/42
f 409/409/409 544/544/544 545/545/545
f 43/43/43 42/42/42 409/409/409
f 432/432/432 545/545/545 548/548/548
f 431/431/431 432/432/432 548/548/548
f 433/433/433 434/434/434 432/432/432
f 422/422/422 433/433/433 432/432/432
f 432/432/432 431/431/431 422/422/422
f 548/548/548 546/546/546 431/431/431
f 609/609/609 610/610/610 608/608/608
f 608/608/608 605/605/605 609/609/609
f 605/605/605 608/608/608 607/607/607
f 607/607/607 606/606/606 605/605/605
f 606/606/606 607/607/607 584/584/584
f 584/584/584 592/592/592 606/606/606
f 577/577/577 592/592/592 584/584/584
f 584/584/584 578/578/578 577/577/577
f 570/570/570 578/578/578 584/584/584
f 584/584/584 582/582/582 570/570/570
f 592/592/592 577/577/577 580/580/580
f 580/580/580 577/577/577 563/563/563
f 577/577/577 578/578/578 576/576/576
f 576/576/576 563/563/563 577/577/577
f 569/569/569 576/576/576 578/578/578
f 578/578/578 570/570/570 569/569/569
f 568/568/568 622/622/622 576/576/576
f 576/576/576 569/569/569 568/568/568
f 564/564/564 563/563/563 576/576/576
f 576/576/576 622/622/622 564/564/564
f 563/563/563 579/579/579 580/580/580
f 563/563/563 562/562/562 579/579/579
f 562/562/562 563/563/563 564/564/564
f 581/581/581 580/580/580 579/579/579
f 300/300/300 579/579/579 562/562/562
f 581/581/581 579/579/579 300/300/300
f 562/562/562 304/304/304 300/300/300
f 304/304/304 562/562/562 565/565/565
f 564/564/564 565/565/565 562/562/562
f 565/565/565 305/305/305 304/304/304
f 304/304/304 305/305/305 225/225/225
f 568/568/568 569/569/569 566/566/566
f 566/566/566 567/567/567 568/568/568
f 571/571/571 566/566/566 569/569/569
f 569/569/569 570/570/570 571/571/571
f 306/306/306 566/566/566 571/571/571
f 567/567/567 566/566/566 306/306/306
f 306/306/306 307/307/307 567/567/567
f 571/571/571 308/308/308 306/306/306
f 231/231/231 307/307/307 306/306/306
f 308/308/308 571/571/571 573/573/573
f 573/573/573 571/571/571 570/570/570
f 572/572/572 570/570/570 582/582/582
f 570/570/570 572/572/572 573/573/573
f 573/573/573 254/254/254 308/308/308
f 255/255/255 254/254/254 573/573/573
f 573/573/573 575/575/575 255/255/255
f 574/574/574 575/575/575 573/573/573
f 573/573/573 572/572/572 574/574/574
f 308/308/308 254/254/254 234/234/234
f 234/234/234 254/254/254 255/255/255
f 256/256/256 255/255/255 575/575/575
f 236/236/236 255/255/255 256/256/256
f 255/255/255 236/236/236 234/234/234
f 575/575/575 591/591/591 256/256/256
f 591/591/591 575/575/575 574/574/574
f 257/257/257 256/256/256 591/591/591
f 252/252/252 256/256/256 257/257/257
f 224/224/224 241/241/241 300/300/300
f 300/300/300 304/304/304 224/224/224
f 225/225/225 224/224/224 304/304/304
f 227/227/227 241/241/241 224/224/224
f 226/226/226 227/227/227 224/224/224
f 224/224/224 225/225/225 226/226/226
f 300/300/300 241/241/241 243/243/243
f 243/243/243 241/241/241 242/242/242
f 242/242/242 241/241/241 227/227/227
f 238/238/238 227/227/227 226/226/226
f 227/227/227 240/240/240 242/242/242
f 240/240/240 227/227/227 238/238/238
f 226/226/226 298/298/298 238/238/238
f 230/230/230 229/229/229 238/238/238
f 238/238/238 298/298/298 230/230/230
f 707/707/707 708/708/708 709/709/709
f 770/770/770 771/771/771 772/772/772
f 6/6/6 44/44/44 1/1/1
f 17/17/17 2/2/2 1/1/1
f 1/1/1 44/44/44 17/17/17
f 6/6/6 1/1/1 5/5/5
f 5/5/5 1/1/1 4/4/4
f 3/3/3 4/4/4 1/1/1
f 1/1/1 2/2/2 3/3/3
f 3/3/3 22/22/22 66/66/66
f 22/22/22 3/3/3 2/2/2
f 2/2/2 17/17/17 16/16/16
f 16/16/16 23/23/23 2/2/2
f 2/2/2 23/23/23 22/22/22
f 16/16/16 17/17/17 14/14/14
f 23/23/23 16/16/16 19/19/19
f 19/19/19 16/16/16 15/15/15
f 375/375/375 370/370/370 411/411/411
f 384/384/384 411/411/411 370/370/370
f 370/370/370 373/373/373 384/384/384
f 375/375/375 374/374/374 370/370/370
f 374/374/374 371/371/371 370/370/370
f 372/372/372 373/373/373 370/370/370
f 370/370/370 371/371/371 372/372/372
f 372/372/372 427/427/427 391/391/391
f 373/373/373 372/372/372 391/391/391
f 373/373/373 392/392/392 385/385/385
f 385/385/385 384/384/384 373/373/373
f 391/391/391 392/392/392 373/373/373
f 383/383/383 384/384/384 385/385/385
f 387/387/387 385/385/385 392/392/392
f 386/386/386 385/385/385 387/387/387
f 704/704/704 705/705/705 706/706/706
f 767/767/767 768/768/768 769/769/769
f 239/239/239 238/238/238 229/229/229
f 238/238/238 239/239/239 240/240/240
f 258/258/258 242/242/242 240/240/240
f 240/240/240 239/239/239 246/246/246
f 246/246/246 258/258/258 240/240/240
f 229/229/229 233/233/233 239/239/239
f 246/246/246 239/239/239 233/233/233
f 232/232/232 233/233/233 229/229/229
f 229/229/229 228/228/228 232/232/232
f 228/228/228 229/229/229 230/230/230
f 230/230/230 231/231/231 228/228/228
f 232/232/232 228/228/228 306/306/306
f 306/306/306 228/228/228 231/231/231
f 234/234/234 232/232/232 308/308/308
f 306/306/306 308/308/308 232/232/232
f 233/233/233 232/232/232 234/234/234
f 233/233/233 244/244/244 246/246/246
f 244/244/244 233/233/233 235/235/235
f 234/234/234 235/235/235 233/233/233
f 246/246/246 275/275/275 271/271/271
f 271/271/271 258/258/258 246/246/246
f 272/272/272 271/271/271 275/275/275
f 275/275/275 276/276/276 272/272/272
f 271/271/271 268/268/268 259/259/259
f 259/259/259 258/258/258 271/271/271
f 345/345/345 346/346/346 341/341/341
f 341/341/341 344/344/344 345/345/345
f 343/343/343 344/344/344 341/341/341
f 341/341/341 342/342/342 343/343/343
f 647/647/647 643/643/643 642/642/642
f 642/642/642 646/646/646 647/647/647
f 644/644/644 645/645/645 642/642/642
f 642/642/642 643/643/643 644/644/644
f 95/95/95 96/96/96 97/97/97
f 453/453/453 454/454/454 455/455/455
f 431/431/431 546/546/546 547/547/547
f 547/547/547 430/430/430 431/431/431
f 423/423/423 422/422/422 431/431/431
f 426/426/426 423/423/423 431/431/431
f 431/431/431 430/430/430 426/426/426
f 422/422/422 423/423/423 424/424/424
f 423/423/423 426/426/426 425/425/425
f 425/425/425 424/424/424 423/423/423
f 435/435/435 425/425/425 426/426/426
f 426/426/426 430/430/430 71/71/71
f 71/71/71 69/69/69 426/426/426
f 197/197/197 71/71/71 430/430/430
f 430/430/430 547/547/547 197/197/197
f 72/72/72 71/71/71 197/197/197
f 65/65/65 69/69/69 71/71/71
f 71/71/71 72/72/72 65/65/65
f 197/197/197 193/193/193 72/72/72
f 73/73/73 72/72/72 193/193/193
f 65/65/65 72/72/72 73/73/73
f 65/65/65 64/64/64 77/77/77
f 73/73/73 63/63/63 65/65/65
f 64/64/64 65/65/65 63/63/63
f 73/73/73 194/194/194 195/195/195
f 195/195/195 74/74/74 73/73/73
f 193/193/193 194/194/194 73/73/73
f 61/61/61 73/73/73 74/74/74
f 63/63/63 73/73/73 61/61/61
f 63/63/63 62/62/62 64/64/64
f 61/61/61 62/62/62 63/63/63
f 74/74/74 75/75/75 61/61/61
f 74/74/74 195/195/195 191/191/191
f 74/74/74 191/191/191 39/39/39
f 39/39/39 76/76/76 74/74/74
f 75/75/75 74/74/74 76/76/76
f 191/191/191 192/192/192 40/40/40
f 40/40/40 39/39/39 191/191/191
f 76/76/76 39/39/39 38/38/38
f 38/38/38 39/39/39 40/40/40
f 38/38/38 53/53/53 76/76/76
f 40/40/40 41/41/41 38/38/38
f 42/42/42 40/40/40 192/192/192
f 43/43/43 41/41/41 40/40/40
f 40/40/40 42/42/42 43/43/43
f 192/192/192 196/196/196 42/42/42
f 42/42/42 196/196/196 544/544/544
f 41/41/41 43/43/43 60/60/60
f 683/683/683 684/684/684 685/685/685
f 746/746/746 747/747/747 748/748/748
f 102/102/102 103/103/103 104/104/104
f 460/460/460 461/461/461 462/462/462
f 671/671/671 672/672/672 673/673/673
f 734/734/734 735/735/735 736/736/736
f 674/674/674 675/675/675 676/676/676
f 737/737/737 738/738/738 739/739/739
f 677/677/677 678/678/678 679/679/679
f 740/740/740 741/741/741 742/742/742
f 217/217/217 211/211/211 204/204/204
f 559/559/559 552/552/552 212/212/212
f 212/212/212 217/217/217 559/559/559
f 213/213/213 212/212/212 552/552/552
f 216/216/216 213/213/213 551/551/551
f 552/552/552 551/551/551 213/213/213
f 550/550/550 552/552/552 559/559/559
f 550/550/550 551/551/551 552/552/552
f 560/560/560 559/559/559 554/554/554
f 554/554/554 559/559/559 217/217/217
f 559/559/559 560/560/560 550/550/550
f 217/217/217 203/203/203 554/554/554
f 204/204/204 203/203/203 217/217/217
f 554/554/554 556/556/556 560/560/560
f 555/555/555 556/556/556 554/554/554
f 554/554/554 553/553/553 555/555/555
f 554/554/554 203/203/203 202/202/202
f 202/202/202 553/553/553 554/554/554
f 550/550/550 560/560/560 218/218/218
f 558/558/558 218/218/218 560/560/560
f 560/560/560 556/556/556 558/558/558
f 557/557/557 558/558/558 556/556/556
f 556/556/556 555/555/555 557/557/557
f 218/218/218 558/558/558 222/222/222
f 223/223/223 222/222/222 558/558/558
f 680/680/680 681/681/681 682/682/682
f 743/743/743 744/744/744 745/745/745
f 14/14/14 15/15/15 16/16/16
f 19/19/19 24/24/24 23/23/23
f 25/25/25 22/22/22 23/23/23
f 23/23/23 24/24/24 25/25/25
f 66/66/66 22/22/22 25/25/25
f 25/25/25 67/67/67 66/66/66
f 25/25/25 78/78/78 67/67/67
f 78/78/78 25/25/25 9/9/9
f 25/25/25 29/29/29 10/10/10
f 10/10/10 9/9/9 25/25/25
f 28/28/28 29/29/29 25/25/25
f 25/25/25 24/24/24 28/28/28
f 24/24/24 19/19/19 27/27/27
f 27/27/27 28/28/28 24/24/24
f 82/82/82 29/29/29 28/28/28
f 28/28/28 81/81/81 82/82/82
f 28/28/28 27/27/27 91/91/91
f 91/91/91 81/81/81 28/28/28
f 29/29/29 94/94/94 87/87/87
f 10/10/10 29/29/29 87/87/87
f 29/29/29 82/82/82 94/94/94
f 98/98/98 94/94/94 82/82/82
f 82/82/82 80/80/80 83/83/83
f 81/81/81 80/80/80 82/82/82
f 79/79/79 81/81/81 91/91/91
f 385/385/385 386/386/386 383/383/383
f 392/392/392 394/394/394 387/387/387
f 393/393/393 394/394/394 392/392/392
f 392/392/392 391/391/391 393/393/393
f 393/393/393 391/391/391 427/427/427
f 427/427/427 428/428/428 393/393/393
f 393/393/393 428/428/428 436/436/436
f 378/378/378 393/393/393 436/436/436
f 393/393/393 378/378/378 377/377/377
f 377/377/377 397/397/397 393/393/393
f 398/398/398 394/394/394 393/393/393
f 393/393/393 397/397/397 398/398/398
f 394/394/394 398/398/398 395/395/395
f 395/395/395 387/387/387 394/394/394
f 440/440/440 438/438/438 398/398/398
f 398/398/398 397/397/397 440/440/440
f 398/398/398 438/438/438 449/449/449
f 449/449/449 395/395/395 398/398/398
f 397/397/397 445/445/445 452/452/452
f 445/445/445 397/397/397 377/377/377
f 397/397/397 452/452/452 440/440/440
f 456/456/456 440/440/440 452/452/452
f 440/440/440 441/441/441 439/439/439
f 438/438/438 440/440/440 439/439/439
f 437/437/437 449/449/449 438/438/438
f 351/351/351 352/352/352 347/347/347
f 347/347/347 350/350/350 351/351/351
f 349/349/349 350/350/350 347/347/347
f 347/347/347 348/348/348 349/349/349
f 653/653/653 649/649/649 648/648/648
f 648/648/648 652/652/652 653/653/653
f 650/650/650 651/651/651 648/648/648
f 648/648/648 649/649/649 650/650/650
f 603/603/603 601/601/601 290/290/290
f 301/301/301 618/618/618 603/603/603
f 603/603/603 289/289/289 301/301/301
f 290/290/290 289/289/289 603/603/603
f 611/611/611 604/604/604 603/603/603
f 603/603/603 618/618/618 611/611/611
f 605/605/605 604/604/604 611/611/611
f 614/614/614 611/611/611 618/618/618
f 611/611/611 614/614/614 612/612/612
f 612/612/612 609/609/609 611/611/611
f 611/611/611 609/609/609 605/605/605
f 619/619/619 618/618/618 301/301/301
f 618/618/618 619/619/619 614/614/614
f 617/617/617 614/614/614 619/619/619
f 612/612/612 614/614/614 617/617/617
f 301/301/301 292/292/292 619/619/619
f 619/619/619 292/292/292 291/291/291
f 291/291/291 620/620/620 619/619/619
f 619/619/619 620/620/620 617/617/617
f 615/615/615 617/617/617 293/293/293
f 293/293/293 617/617/617 620/620/620
f 617/617/617 615/615/615 612/612/612
f 620/620/620 291/291/291 294/294/294
f 620/620/620 294/294/294 293/293/293
f 288/288/288 294/294/294 291/291/291
f 286/286/286 288/288/288 291/291/291
f 291/291/291 292/292/292 286/286/286
f 686/686/686 687/687/687 688/688/688
f 749/749/749 750/750/750 751/751/751
f 802/802/802 798/798/798 797/797/797
f 797/797/797 798/798/798 799/799/799
f 801/801/801 798/798/798 802/802/802
f 799/799/799 798/798/798 800/800/800
f 800/800/800 798/798/798 801/801/801
f 808/808/808 803/803/803 805/805/805
f 803/803/803 804/804/804 805/805/805
f 807/807/807 808/808/808 805/805/805
f 804/804/804 806/806/806 805/805/805
f 806/806/806 807/807/807 805/805/805
f 635/635/635 333/333/333 331/331/331
f 331/331/331 634/634/634 635/635/635
f 626/626/626 634/634/634 331/331/331
f 334/334/334 332/332/332 331/331/331
f 331/331/331 333/333/333 334/334/334
f 710/710/710 711/711/711 712/712/712
f 773/773/773 774/774/774 775/775/775
f 701/701/701 702/702/702 703/703/703
f 764/764/764 765/765/765 766/766/766
f 256/256/256 252/252/252 236/236/236
f 237/237/237 236/236/236 252/252/252
f 234/234/234 236/236/236 237/237/237
f 237/237/237 235/235/235 234/234/234
f 252/252/252 248/248/248 237/237/237
f 249/249/249 247/247/247 237/237/237
f 237/237/237 248/248/248 249/249/249
f 237/237/237 247/247/247 245/245/245
f 245/245/245 235/235/235 237/237/237
f 257/257/257 253/253/253 252/252/252
f 252/252/252 253/253/253 251/251/251
f 251/251/251 248/248/248 252/252/252
f 248/248/248 251/251/251 250/250/250
f 250/250/250 249/249/249 248/248/248
f 251/251/251 253/253/253 257/257/257
f 257/257/257 273/273/273 251/251/251
f 274/274/274 250/250/250 251/251/251
f 338/338/338 340/340/340 361/361/361
f 361/361/361 366/366/366 338/338/338
f 338/338/338 339/339/339 340/340/340
f 366/366/366 361/361/361 363/363/363
f 363/363/363 364/364/364 366/366/366
f 364/364/364 365/365/365 366/366/366
f 361/361/361 362/362/362 363/363/363
f 368/368/368 364/364/364 363/363/363
f 363/363/363 367/367/367 368/368/368
f 368/368/368 369/369/369 364/364/364
f 639/639/639 666/666/666 662/662/662
f 662/662/662 640/640/640 639/639/639
f 639/639/639 640/640/640 641/641/641
f 666/666/666 665/665/665 663/663/663
f 663/663/663 662/662/662 666/666/666
f 665/665/665 666/666/666 667/667/667
f 662/662/662 663/663/663 664/664/664
f 668/668/668 663/663/663 665/665/665
f 663/663/663 668/668/668 669/669/669
f 668/668/668 665/665/665 670/670/670
f 637/637/637 636/636/636 655/655/655
f 636/636/636 656/656/656 654/654/654
f 654/654/654 655/655/655 636/636/636
f 636/636/636 637/637/637 638/638/638
f 659/659/659 637/637/637 657/657/657
f 637/637/637 659/659/659 660/660/660
f 655/655/655 657/657/657 637/637/637
f 657/657/657 655/655/655 658/658/658
f 659/659/659 657/657/657 661/661/661
f 355/355/355 335/335/335 337/337/337
f 335/335/335 355/355/355 353/353/353
f 353/353/353 354/354/354 335/335/335
f 335/335/335 336/336/336 337/337/337
f 356/356/356 357/357/357 355/355/355
f 337/337/337 356/356/356 355/355/355
f 359/359/359 356/356/356 337/337/337
f 337/337/337 358/358/358 359/359/359
f 359/359/359 360/360/360 356/356/356
f 185/185/185 57/57/57 419/419/419
f 413/413/413 419/419/419 57/57/57
f 56/56/56 57/57/57 185/185/185
f 413/413/413 415/415/415 418/418/418
f 418/418/418 419/419/419 413/413/413
f 415/415/415 413/413/413 412/412/412
f 414/414/414 412/412/412 421/421/421
f 412/412/412 414/414/414 415/415/415
f 403/403/403 415/415/415 414/414/414
f 469/469/469 418/418/418 415/415/415
f 415/415/415 403/403/403 469/469/469
f 419/419/419 418/418/418 474/474/474
f 468/468/468 474/474/474 418/418/418
f 418/418/418 469/469/469 468/468/468
f 419/419/419 474/474/474 185/185/185
f 185/185/185 117/117/117 56/56/56
f 56/56/56 117/117/117 55/55/55
f 55/55/55 117/117/117 112/112/112
f 112/112/112 111/111/111 55/55/55
f 189/189/189 110/110/110 112/112/112
f 112/112/112 183/183/183 189/189/189
f 112/112/112 182/182/182 183/183/183
f 110/110/110 111/111/111 112/112/112
f 180/180/180 179/179/179 189/189/189
f 189/189/189 183/183/183 180/180/180
f 184/184/184 180/180/180 183/183/183
f 183/183/183 182/182/182 184/184/184
f 268/268/268 271/271/271 272/272/272
f 258/258/258 260/260/260 242/242/242
f 258/258/258 259/259/259 260/260/260
f 260/260/260 259/259/259 266/266/266
f 266/266/266 259/259/259 268/268/268
f 272/272/272 270/270/270 268/268/268
f 268/268/268 270/270/270 269/269/269
f 269/269/269 267/267/267 268/268/268
f 268/268/268 267/267/267 266/266/266
f 266/266/266 264/264/264 260/260/260
f 266/266/266 267/267/267 265/265/265
f 266/266/266 265/265/265 263/263/263
f 263/263/263 264/264/264 266/266/266
f 261/261/261 260/260/260 264/264/264
f 261/261/261 242/242/242 260/260/260
f 262/262/262 243/243/243 242/242/242
f 242/242/242 261/261/261 262/262/262
f 264/264/264 263/263/263 261/261/261
f 263/263/263 262/262/262 261/261/261
f 262/262/262 263/263/263 265/265/265
f 303/303/303 265/265/265 267/267/267
f 262/262/262 265/265/265 303/303/303
f 267/267/267 290/290/290 303/303/303
f 290/290/290 267/267/267 269/269/269
f 601/601/601 599/599/599 303/303/303
f 303/303/303 290/290/290 601/601/601
f 303/303/303 599/599/599 596/596/596
f 596/596/596 302/302/302 303/303/303
f 303/303/303 302/302/302 262/262/262
f 262/262/262 302/302/302 299/299/299
f 299/299/299 243/243/243 262/262/262
f 243/243/243 299/299/299 300/300/300
f 596/596/596 581/581/581 299/299/299
f 299/299/299 302/302/302 596/596/596
f 300/300/300 299/299/299 581/581/581
f 596/596/596 599/599/599 597/597/597
f 597/597/597 595/595/595 596/596/596
f 596/596/596 595/595/595 580/580/580
f 580/580/580 581/581/581 596/596/596
f 600/600/600 599/599/599 601/601/601
f 597/597/597 599/599/599 600/600/600
f 600/600/600 598/598/598 597/597/597
f 595/595/595 597/597/597 598/598/598
f 598/598/598 593/593/593 595/595/595
f 595/595/595 593/593/593 580/580/580
f 593/593/593 598/598/598 600/600/600
f 600/600/600 594/594/594 593/593/593
f 600/600/600 601/601/601 602/602/602
f 602/602/602 594/594/594 600/600/600
f 592/592/592 593/593/593 594/594/594
f 592/592/592 580/580/580 593/593/593
f 606/606/606 592/592/592 594/594/594
f 594/594/594 602/602/602 606/606/606
f 605/605/605 606/606/606 602/602/602
f 602/602/602 604/604/604 605/605/605
f 602/602/602 601/601/601 603/603/603
f 603/603/603 604/604/604 602/602/602
f 114/114/114 113/113/113 124/124/124
f 113/113/113 123/123/123 124/124/124
f 123/123/123 113/113/113 121/121/121
f 121/121/121 113/113/113 116/116/116
f 115/115/115 116/116/116 113/113/113
f 113/113/113 114/114/114 115/115/115
f 114/114/114 176/176/176 115/115/115
f 138/138/138 115/115/115 176/176/176
f 115/115/115 138/138/138 137/137/137
f 135/135/135 116/116/116 115/115/115
f 115/115/115 137/137/137 135/135/135
f 136/136/136 122/122/122 116/116/116
f 116/116/116 135/135/135 136/136/136
f 116/116/116 122/122/122 121/121/121
f 135/135/135 137/137/137 125/125/125
f 473/473/473 480/480/480 470/470/470
f 470/470/470 480/480/480 479/479/479
f 479/479/479 477/477/477 470/470/470
f 471/471/471 470/470/470 477/477/477
f 472/472/472 473/473/473 470/470/470
f 470/470/470 471/471/471 472/472/472
f 473/473/473 472/472/472 532/532/532
f 532/532/532 472/472/472 494/494/494
f 472/472/472 493/493/493 494/494/494
f 492/492/492 493/493/493 472/472/472
f 472/472/472 471/471/471 492/492/492
f 491/491/491 492/492/492 471/471/471
f 471/471/471 478/478/478 491/491/491
f 477/477/477 478/478/478 471/471/471
f 492/492/492 488/488/488 481/481/481
f 251/251/251 273/273/273 274/274/274
f 589/589/589 273/273/273 257/257/257
f 257/257/257 590/590/590 589/589/589
f 591/591/591 590/590/590 257/257/257
f 274/274/274 273/273/273 589/589/589
f 589/589/589 588/588/588 274/274/274
f 591/591/591 587/587/587 589/589/589
f 589/589/589 590/590/590 591/591/591
f 588/588/588 589/589/589 587/587/587
f 574/574/574 587/587/587 591/591/591
f 587/587/587 586/586/586 588/588/588
f 586/586/586 587/587/587 574/574/574
f 574/574/574 585/585/585 586/586/586
f 574/574/574 572/572/572 583/583/583
f 583/583/583 585/585/585 574/574/574
f 582/582/582 583/583/583 572/572/572
f 235/235/235 245/245/245 244/244/244
f 286/286/286 292/292/292 301/301/301
f 301/301/301 287/287/287 286/286/286
f 286/286/286 282/282/282 285/285/285
f 285/285/285 288/288/288 286/286/286
f 282/282/282 286/286/286 287/287/287
f 288/288/288 285/285/285 293/293/293
f 293/293/293 294/294/294 288/288/288
f 293/293/293 285/285/285 284/284/284
f 281/281/281 284/284/284 285/285/285
f 285/285/285 282/282/282 281/281/281
f 293/293/293 295/295/295 615/615/615
f 284/284/284 295/295/295 293/293/293
f 295/295/295 284/284/284 283/283/283
f 283/283/283 284/284/284 281/281/281
f 281/281/281 280/280/280 283/283/283
f 279/279/279 277/277/277 281/281/281
f 281/281/281 282/282/282 279/279/279
f 281/281/281 277/277/277 278/278/278
f 278/278/278 280/280/280 281/281/281
f 287/287/287 279/279/279 282/282/282
f 279/279/279 287/287/287 269/269/269
f 269/269/269 270/270/270 279/279/279
f 279/279/279 270/270/270 272/272/272
f 272/272/272 277/277/277 279/279/279
f 276/276/276 278/278/278 277/277/277
f 277/277/277 272/272/272 276/276/276
f 301/301/301 289/289/289 269/269/269
f 269/269/269 287/287/287 301/301/301
f 269/269/269 289/289/289 290/290/290
f 283/283/283 296/296/296 295/295/295
f 296/296/296 297/297/297 295/295/295
f 616/616/616 615/615/615 295/295/295
f 295/295/295 621/621/621 616/616/616
f 621/621/621 295/295/295 297/297/297
f 616/616/616 613/613/613 612/612/612
f 612/612/612 615/615/615 616/616/616
f 612/612/612 613/613/613 610/610/610
f 610/610/610 609/609/609 612/612/612
f 728/728/728 729/729/729 730/730/730
f 791/791/791 792/792/792 793/793/793
f 125/125/125 130/130/130 135/135/135
f 136/136/136 135/135/135 130/130/130
f 126/126/126 125/125/125 137/137/137
f 137/137/137 138/138/138 126/126/126
f 177/177/177 190/190/190 138/138/138
f 176/176/176 177/177/177 138/138/138
f 125/125/125 126/126/126 127/127/127
f 125/125/125 128/128/128 131/131/131
f 131/131/131 130/130/130 125/125/125
f 127/127/127 128/128/128 125/125/125
f 130/130/130 129/129/129 136/136/136
f 129/129/129 130/130/130 131/131/131
f 131/131/131 152/152/152 159/159/159
f 159/159/159 132/132/132 131/131/131
f 131/131/131 128/128/128 154/154/154
f 154/154/154 152/152/152 131/131/131
f 131/131/131 132/132/132 129/129/129
f 154/154/154 128/128/128 127/127/127
f 127/127/127 186/186/186 154/154/154
f 157/157/157 155/155/155 154/154/154
f 154/154/154 186/186/186 158/158/158
f 158/158/158 157/157/157 154/154/154
f 152/152/152 154/154/154 155/155/155
f 156/156/156 157/157/157 158/158/158
f 155/155/155 153/153/153 152/152/152
f 558/558/558 557/557/557 223/223/223
f 218/218/218 219/219/219 550/550/550
f 218/218/218 222/222/222 208/208/208
f 210/210/210 218/218/218 208/208/208
f 208/208/208 222/222/222 223/223/223
f 223/223/223 209/209/209 208/208/208
f 208/208/208 206/206/206 210/210/210
f 206/206/206 208/208/208 209/209/209
f 210/210/210 206/206/206 204/204/204
f 209/209/209 207/207/207 206/206/206
f 204/204/204 206/206/206 207/207/207
f 207/207/207 205/205/205 204/204/204
f 204/204/204 205/205/205 202/202/202
f 202/202/202 203/203/203 204/204/204
f 550/550/550 219/219/219 221/221/221
f 221/221/221 551/551/551 550/550/550
f 221/221/221 220/220/220 561/561/561
f 561/561/561 551/551/551 221/221/221
f 215/215/215 220/220/220 221/221/221
f 551/551/551 561/561/561 216/216/216
f 561/561/561 220/220/220 214/214/214
f 214/214/214 216/216/216 561/561/561
f 215/215/215 214/214/214 220/220/220
f 214/214/214 215/215/215 216/216/216
f 481/481/481 493/493/493 492/492/492
f 488/488/488 492/492/492 491/491/491
f 484/484/484 494/494/494 493/493/493
f 493/493/493 481/481/481 484/484/484
f 533/533/533 494/494/494 543/543/543
f 494/494/494 533/533/533 532/532/532
f 483/483/483 484/484/484 481/481/481
f 481/481/481 488/488/488 487/487/487
f 487/487/487 482/482/482 481/481/481
f 481/481/481 482/482/482 483/483/483
f 491/491/491 485/485/485 488/488/488
f 487/487/487 488/488/488 485/485/485
f 487/487/487 486/486/486 515/515/515
f 515/515/515 509/509/509 487/487/487
f 487/487/487 509/509/509 511/511/511
f 511/511/511 482/482/482 487/487/487
f 485/485/485 486/486/486 487/487/487
f 483/483/483 482/482/482 511/511/511
f 511/511/511 539/539/539 483/483/483
f 514/514/514 511/511/511 510/510/510
f 511/511/511 514/514/514 513/513/513
f 513/513/513 539/539/539 511/511/511
f 510/510/510 511/511/511 509/509/509
f 509/509/509 515/515/515 499/499/499
f 499/499/499 497/497/497 509/509/509
f 698/698/698 699/699/699 700/700/700
f 761/761/761 762/762/762 763/763/763
f 731/731/731 732/732/732 733/733/733
f 794/794/794 795/795/795 796/796/796
f 725/725/725 726/726/726 727/727/727
f 788/788/788 789/789/789 790/790/790
