# psephoderma_a reconstructed from live game memory
v -7.53033 29.85713 1.35316
v -7.04502 29.19499 7.33865
v -14.12771 25.53916 7.25638
v -14.87188 25.37609 1.35316
v -7.50476 29.82573 -2.76374
v -14.50594 25.33232 -2.75866
v -13.65656 25.38785 -5.96539
v -6.99124 29.15639 -5.91281
v -12.73911 26.08546 10.61300
v -21.46487 13.57414 -8.42295
v -21.92320 11.00430 -10.95084
v -19.48419 15.24319 -9.53890
v -17.82011 13.49348 -9.97611
v -19.04298 11.13045 -9.29336
v -17.78548 12.40604 -6.81449
v -14.48463 14.18964 -8.72187
v -15.92581 11.55727 -9.52716
v -20.75167 16.81028 -7.46359
v -23.43294 14.18790 -8.96766
v -18.48452 9.62218 -10.24044
v -15.92581 11.55727 -9.52716
v -18.48452 9.62218 -10.24044
v -19.67382 14.44975 -6.21368
v -18.16096 17.91370 -6.94355
v -16.32775 16.46803 -9.43896
v -14.48463 14.18964 -8.72187
v -17.25688 14.77798 -5.29539
v -6.26157 27.17807 -11.51230
v -9.19725 26.37229 -10.87036
v -9.46240 25.29845 -11.69710
v -6.29802 26.05655 -12.43980
v -12.04018 25.63208 -10.21399
v -13.55954 25.15070 10.77266
v -14.95627 24.59746 7.12004
v -15.66768 24.20987 1.35316
v -14.44988 24.16162 -6.00277
v -12.66021 24.38097 -10.66852
v -0.00000 26.72165 -12.44522
v -0.00000 27.71226 -11.33705
v 0.00000 29.86811 -5.90044
v -9.51737 26.66945 12.51384
v -9.66888 25.74234 13.32061
v -2.22729 25.33141 -20.93536
v -2.43166 23.18304 -20.86406
v -2.56201 23.69064 -22.27317
v -3.70429 22.32251 -21.49855
v -4.30599 22.31248 -19.91830
v -3.46730 24.01989 -19.53692
v -4.29738 19.73043 -19.83055
v -3.59111 20.94575 -21.98639
v -0.57184 22.21191 -26.27787
v -1.52547 23.19723 -23.87716
v -2.32204 21.13436 -23.79189
v -0.86866 21.40300 -26.23730
v -0.86866 21.40300 -26.23730
v -2.32204 21.13436 -23.79189
v 0.00000 21.16206 -22.29675
v 0.00000 21.60530 -25.98015
v 0.00000 24.40806 -23.88613
v 0.00000 25.14626 -22.38155
v -1.29894 24.56930 -22.34891
v 0.00000 21.16206 -22.29675
v -2.32204 21.13436 -23.79189
v -0.70244 21.03215 -26.06387
v 0.00000 20.96998 -26.13180
v 0.00000 26.04707 -20.93957
v -3.49892 24.10656 -16.81120
v -1.71302 25.56673 -19.65679
v -1.67909 25.57911 -16.81984
v -2.15920 24.81749 -20.93451
v -3.35392 23.77781 -20.89728
v -2.50780 23.59442 -22.03421
v 0.00000 26.34855 -19.61935
v -0.70244 21.03215 -26.06387
v -2.26156 20.04502 -23.70832
v -0.71576 20.39692 -25.94731
v -3.52028 22.38756 -21.49602
v -3.74246 22.45782 -20.21277
v -3.22532 23.84486 -19.78638
v -3.25361 19.88370 -21.99353
v -4.03753 19.70302 -16.80945
v -3.27391 20.24839 -14.28835
v 0.00000 19.05608 -14.28832
v 0.00000 18.33228 -16.80824
v -4.90782 22.21420 -16.80889
v -3.27391 20.24839 -14.28835
v -4.12391 22.19649 -14.28665
v -4.41711 22.13482 -11.99337
v -3.71601 20.01081 -11.97721
v -2.56921 24.22616 -14.28795
v 0.00000 25.53324 -14.28802
v -0.00000 25.55143 -11.97923
v -3.10130 24.15734 -11.98171
v -6.08804 25.25558 -11.81923
v -5.81342 24.18096 -11.00832
v -9.46240 25.29845 -11.69710
v -12.66021 24.38097 -10.66852
v -21.46487 13.57414 -8.42295
v -19.04298 11.13045 -9.29336
v -21.92320 11.00430 -10.95084
v -15.68978 15.72321 -4.55300
v -12.40209 16.29510 -8.02039
v -14.13630 18.17665 -8.95670
v -15.52788 19.79001 -6.48121
v -5.84327 26.84258 12.92871
v -5.82668 26.07019 13.81506
v -11.72521 20.00464 -8.69751
v -10.51909 20.98627 -8.69577
v -12.09103 22.77241 -5.98221
v -13.35400 21.34221 -6.14000
v -4.85942 17.31537 -8.19040
v -5.49135 22.18459 -10.27510
v -15.66768 24.20987 1.35316
v -14.95627 24.59746 7.12004
v -12.21082 23.20505 6.17220
v -12.87435 22.82621 1.34829
v -9.67879 20.47095 5.48255
v -6.38046 17.42660 5.47506
v -6.26981 17.01670 1.30582
v -9.72673 20.19148 1.34793
v -4.19233 20.21824 16.59268
v -3.58252 24.52016 16.59867
v -4.88040 24.07502 20.03591
v -3.46707 20.51439 20.03948
v 0.00000 19.07139 -23.68194
v 0.00000 20.31214 -26.35981
v 0.00000 22.45681 -26.59863
v 0.00000 26.23759 -16.82813
v 0.00000 25.53324 -14.28802
v 0.00000 20.96809 -26.56374
v -6.29802 26.05655 -12.43980
v -6.36911 19.02670 9.82596
v 0.00000 16.31607 10.19016
v 0.00000 15.59357 5.46675
v -0.00000 18.68042 -11.96212
v -0.00000 16.71449 -8.27058
v -0.00000 15.38148 -2.81021
v -6.13830 17.13730 -2.79668
v -0.00000 15.09602 1.30035
v -5.73132 20.01115 14.18999
v -4.19233 20.21824 16.59268
v 0.00000 17.80176 16.58897
v 0.00000 17.23063 14.15518
v 0.00000 30.55580 1.35316
v 0.00000 29.70482 7.33898
v 0.00000 26.82763 13.24219
v -0.00000 21.38391 52.04023
v -0.63381 22.13897 52.03237
v -0.50314 22.16176 52.99166
v -0.00000 21.56745 52.98926
v -0.00000 22.90133 52.01336
v -0.00000 22.69783 52.96264
v -0.00000 22.16153 53.14780
v -1.73776 21.98983 32.04578
v -1.32646 22.01953 39.14240
v 0.00000 20.42052 39.14272
v -0.00000 19.79389 32.04622
v -0.66500 22.13215 50.00378
v -0.00000 23.06197 50.00234
v -0.00000 23.43440 39.13906
v 0.00000 23.13217 44.65058
v -0.77903 22.11917 44.65211
v -4.88040 24.07502 20.03591
v -2.66302 23.96290 23.91117
v -2.74369 20.76579 23.92722
v 0.00000 18.76855 23.93356
v -2.74369 20.76579 23.92722
v -2.66302 23.96290 23.91117
v 0.00000 18.32872 20.03779
v 0.00000 17.80176 16.58897
v 0.00000 18.76855 23.93356
v -0.00000 21.18048 50.00381
v 0.00000 20.83011 44.65271
v 0.00000 24.37523 24.16822
v -0.00000 23.84928 32.04480
v -3.58252 24.52016 16.59867
v -5.73132 20.01115 14.18999
v -3.88705 24.84840 14.22409
v 0.00000 18.25380 -19.86202
v 0.00000 21.51618 -26.64376
v 0.00000 21.51618 -26.64376
v 0.00000 20.96809 -26.56374
v 0.00000 19.05608 -14.28832
v -4.12391 22.19649 -14.28665
v -2.56921 24.22616 -14.28795
v -7.49450 25.83393 17.34028
v -6.07448 26.41018 16.34561
v -4.80419 26.00902 20.03116
v -6.96242 25.25686 20.03150
v -8.16655 24.98861 16.75837
v -6.41437 25.61473 15.34707
v -6.05789 24.89285 22.96142
v -6.43778 24.15610 23.31410
v -7.70460 24.44104 20.03150
v -3.66523 24.99747 23.37431
v -2.66302 23.96290 23.91117
v 0.00000 26.11886 15.11181
v 0.00000 26.83950 16.19027
v -3.58252 24.52016 16.59867
v -7.70460 24.44104 20.03150
v -4.88040 24.07502 20.03591
v -6.43778 24.15610 23.31410
v -2.66302 23.96290 23.91117
v -6.41437 25.61473 15.34707
v -8.16655 24.98861 16.75837
v 0.00000 25.32474 23.75179
v 0.00000 24.37523 24.16822
v 0.00000 25.49172 15.39993
v 0.00000 25.57671 14.21374
v 0.00000 26.11886 15.11181
v -6.41437 25.61473 15.34707
v -3.58252 24.52016 16.59867
v 0.00000 25.49172 15.39993
v -7.25886 21.44677 13.58862
v -6.36911 19.02670 9.82596
v -8.82122 22.10544 12.22716
v -5.10099 25.43548 13.32039
v -8.25314 24.69315 12.51672
v 0.00000 26.07797 14.02006
v 0.00000 26.07797 14.02006
v 0.00000 25.66499 13.70111
v -5.10099 25.43548 13.32039
v -5.82668 26.07019 13.81506
v -7.94710 19.18285 -9.03610
v -4.85942 17.31537 -8.19040
v -14.44988 24.16162 -6.00277
v -12.09103 22.77241 -5.98221
v -9.11429 22.53430 -9.69370
v -15.47665 24.11027 -2.76895
v 0.00000 30.53378 -2.76267
v -15.47665 24.11027 -2.76895
v -12.48617 22.69315 -2.77289
v -10.18458 20.21642 -2.77878
v -10.18458 20.21642 -2.77878
v -11.86716 18.83498 -3.55110
v -9.28393 18.65214 -7.78100
v -12.18464 23.10262 9.28345
v -10.83098 23.96189 9.56289
v -8.25314 24.69315 12.51672
v -8.82122 22.10544 12.22716
v -20.10130 14.41210 10.37461
v -20.59920 11.97256 9.17511
v -18.34450 16.06973 8.63005
v -16.70829 14.40283 8.56464
v -17.74356 12.26981 9.97959
v -16.58478 13.82889 11.43317
v -13.49932 15.58444 10.10134
v -14.89893 12.83328 9.38386
v -19.53081 17.49481 10.66903
v -22.01992 15.08105 10.37118
v -17.44474 10.37157 9.08556
v -14.89893 12.83328 9.38386
v -17.44474 10.37157 9.08556
v -18.44379 15.83284 12.25141
v -16.70745 19.13122 10.24828
v -13.49932 15.58444 10.10134
v -15.07086 17.19592 8.25791
v -15.88232 16.55336 12.36016
v -20.10130 14.41210 10.37461
v -17.74356 12.26981 9.97959
v -20.59920 11.97256 9.17511
v -14.90483 20.76432 10.06518
v -13.45715 18.44454 12.15260
v -14.96039 17.30464 12.48083
v -11.25863 16.67795 9.81522
v -13.08012 18.65818 7.66539
v -11.25863 16.67795 9.81522
v -8.96237 18.47660 9.81580
v -6.36911 19.02670 9.82596
v -9.67879 20.47095 5.48255
v -11.04433 19.93919 6.45097
v -12.18464 23.10262 9.28345
v -13.26009 22.25114 9.81439
v -8.82122 22.10544 12.22716
v -11.05071 20.46076 12.41317
v -8.96237 18.47660 9.81580
v -6.36911 19.02670 9.82596
v -9.66888 25.74234 13.32061
v -13.55954 25.15070 10.77266
v -0.00000 26.72165 -12.44522
v 0.00000 26.51526 20.03037
v -12.71158 19.07342 12.15416
v -13.68389 17.55892 -4.20669
v -9.28393 18.65214 -7.78100
v -12.40209 16.29510 -8.02039
v -9.28393 18.65214 -7.78100
v -14.65343 16.62452 -4.08774
v -7.94710 19.18285 -9.03610
v -11.86716 18.83498 -3.55110
v -10.18458 20.21642 -2.77878
v -9.11429 22.53430 -9.69370
v -5.49135 22.18459 -10.27510
v 0.00000 18.64261 -22.00187
v 7.53033 29.85713 1.35316
v 14.87188 25.37609 1.35317
v 14.12771 25.53916 7.25638
v 7.04502 29.19499 7.33865
v 7.50476 29.82573 -2.76374
v 6.99124 29.15639 -5.91281
v 13.65656 25.38786 -5.96539
v 14.50594 25.33233 -2.75866
v 12.73911 26.08546 10.61300
v 21.46488 13.57414 -8.42295
v 19.48420 15.24319 -9.53890
v 21.92320 11.00430 -10.95084
v 17.82011 13.49347 -9.97611
v 19.04298 11.13045 -9.29336
v 17.78548 12.40604 -6.81450
v 15.92581 11.55727 -9.52716
v 14.48463 14.18964 -8.72187
v 20.75168 16.81027 -7.46359
v 23.43294 14.18790 -8.96767
v 18.48452 9.62218 -10.24044
v 15.92581 11.55727 -9.52716
v 18.48452 9.62218 -10.24044
v 19.67383 14.44975 -6.21368
v 18.16096 17.91370 -6.94355
v 16.32776 16.46803 -9.43896
v 14.48463 14.18964 -8.72187
v 17.25688 14.77798 -5.29539
v 6.26157 27.17808 -11.51230
v 6.29802 26.05655 -12.43980
v 9.46240 25.29845 -11.69710
v 9.19725 26.37229 -10.87036
v 12.04018 25.63208 -10.21399
v 14.95627 24.59746 7.12004
v 13.55954 25.15070 10.77266
v 15.66768 24.20987 1.35316
v 14.44988 24.16162 -6.00277
v 12.66021 24.38098 -10.66852
v 9.66888 25.74234 13.32061
v 9.51737 26.66946 12.51384
v 2.22729 25.33141 -20.93536
v 2.56201 23.69064 -22.27317
v 2.43166 23.18304 -20.86406
v 3.70429 22.32251 -21.49855
v 4.30599 22.31248 -19.91830
v 3.46730 24.01989 -19.53692
v 3.59111 20.94575 -21.98639
v 4.29738 19.73043 -19.83055
v 0.57184 22.21191 -26.27787
v 0.86866 21.40300 -26.23730
v 2.32204 21.13436 -23.79189
v 1.52547 23.19723 -23.87716
v 0.86866 21.40300 -26.23730
v 2.32204 21.13436 -23.79189
v 1.29894 24.56930 -22.34891
v 0.70244 21.03215 -26.06387
v 2.32204 21.13436 -23.79189
v 3.49892 24.10656 -16.81120
v 1.67909 25.57911 -16.81984
v 1.71302 25.56673 -19.65679
v 2.15920 24.81749 -20.93451
v 2.50780 23.59442 -22.03421
v 3.35392 23.77781 -20.89728
v 0.70244 21.03215 -26.06387
v 0.71576 20.39692 -25.94731
v 2.26156 20.04502 -23.70832
v 3.52028 22.38756 -21.49602
v 3.74246 22.45782 -20.21277
v 3.22532 23.84486 -19.78638
v 3.25361 19.88370 -21.99353
v 4.03753 19.70302 -16.80945
v 3.27391 20.24839 -14.28835
v 4.90782 22.21420 -16.80889
v 3.27391 20.24839 -14.28835
v 3.71601 20.01081 -11.97721
v 4.41711 22.13483 -11.99337
v 4.12391 22.19649 -14.28665
v 2.56921 24.22616 -14.28795
v 3.10130 24.15734 -11.98171
v 5.81342 24.18096 -11.00832
v 6.08804 25.25559 -11.81923
v 12.66021 24.38098 -10.66852
v 9.46240 25.29845 -11.69710
v 21.46488 13.57414 -8.42295
v 21.92320 11.00430 -10.95084
v 19.04298 11.13045 -9.29336
v 15.68978 15.72321 -4.55300
v 14.13630 18.17665 -8.95670
v 12.40209 16.29510 -8.02039
v 15.52788 19.79001 -6.48121
v 5.82668 26.07019 13.81506
v 5.84328 26.84259 12.92871
v 11.72521 20.00464 -8.69750
v 13.35400 21.34221 -6.14000
v 12.09103 22.77241 -5.98221
v 10.51909 20.98627 -8.69577
v 4.85942 17.31537 -8.19040
v 5.49135 22.18459 -10.27510
v 15.66768 24.20987 1.35316
v 12.87436 22.82621 1.34829
v 12.21082 23.20505 6.17221
v 14.95627 24.59746 7.12004
v 9.67879 20.47095 5.48256
v 9.72673 20.19148 1.34793
v 6.26981 17.01670 1.30582
v 6.38046 17.42660 5.47506
v 4.19233 20.21824 16.59268
v 3.46707 20.51439 20.03948
v 4.88040 24.07502 20.03591
v 3.58252 24.52016 16.59867
v 6.29802 26.05655 -12.43980
v 6.36911 19.02670 9.82596
v 6.13830 17.13730 -2.79668
v 5.73132 20.01115 14.18999
v 4.19233 20.21824 16.59268
v 0.50314 22.16176 52.99166
v 0.63381 22.13897 52.03237
v 1.73776 21.98983 32.04578
v 1.32646 22.01953 39.14240
v 0.66500 22.13215 50.00378
v 0.77903 22.11917 44.65211
v 2.74369 20.76579 23.92722
v 2.66302 23.96290 23.91117
v 4.88040 24.07502 20.03591
v 2.74369 20.76579 23.92722
v 2.66302 23.96290 23.91117
v 3.58252 24.52016 16.59867
v 3.88705 24.84840 14.22409
v 5.73132 20.01115 14.18999
v 4.12391 22.19649 -14.28665
v 2.56921 24.22616 -14.28795
v 7.49450 25.83393 17.34028
v 6.96242 25.25686 20.03150
v 4.80419 26.00902 20.03116
v 6.07448 26.41018 16.34561
v 6.41437 25.61473 15.34707
v 8.16655 24.98861 16.75837
v 6.05789 24.89285 22.96142
v 7.70460 24.44104 20.03150
v 6.43778 24.15610 23.31410
v 3.66523 24.99747 23.37431
v 2.66302 23.96290 23.91117
v 3.58252 24.52016 16.59867
v 4.88040 24.07502 20.03591
v 7.70460 24.44104 20.03150
v 2.66302 23.96290 23.91117
v 6.43778 24.15610 23.31410
v 8.16655 24.98861 16.75837
v 6.41437 25.61473 15.34707
v 3.58252 24.52016 16.59867
v 6.41437 25.61473 15.34707
v 7.25886 21.44677 13.58862
v 8.82122 22.10545 12.22716
v 6.36911 19.02670 9.82596
v 5.10100 25.43548 13.32039
v 8.25314 24.69315 12.51672
v 5.82668 26.07019 13.81506
v 5.10100 25.43548 13.32039
v 4.85942 17.31537 -8.19040
v 7.94710 19.18285 -9.03610
v 14.44988 24.16162 -6.00277
v 9.11429 22.53430 -9.69370
v 12.09103 22.77241 -5.98221
v 15.47665 24.11027 -2.76895
v 12.48617 22.69315 -2.77289
v 15.47665 24.11027 -2.76895
v 10.18458 20.21642 -2.77878
v 10.18458 20.21642 -2.77878
v 11.86716 18.83498 -3.55110
v 9.28393 18.65214 -7.78100
v 12.18464 23.10262 9.28346
v 8.82122 22.10545 12.22716
v 8.25314 24.69315 12.51672
v 10.83098 23.96190 9.56290
v 20.10130 14.41210 10.37461
v 18.34450 16.06974 8.63005
v 20.59921 11.97256 9.17511
v 16.70829 14.40283 8.56464
v 17.74356 12.26981 9.97959
v 16.58479 13.82889 11.43316
v 14.89893 12.83328 9.38386
v 13.49932 15.58444 10.10134
v 19.53081 17.49482 10.66903
v 22.01992 15.08105 10.37118
v 17.44474 10.37157 9.08556
v 14.89893 12.83328 9.38386
v 17.44474 10.37157 9.08556
v 18.44379 15.83285 12.25141
v 16.70745 19.13122 10.24828
v 15.07086 17.19593 8.25791
v 13.49932 15.58444 10.10134
v 15.88232 16.55337 12.36016
v 20.10130 14.41210 10.37461
v 20.59921 11.97256 9.17511
v 17.74356 12.26981 9.97959
v 14.96039 17.30464 12.48083
v 13.45715 18.44454 12.15261
v 14.90482 20.76432 10.06518
v 13.08012 18.65818 7.66539
v 11.25863 16.67795 9.81522
v 11.25863 16.67795 9.81522
v 8.96237 18.47661 9.81580
v 11.04433 19.93919 6.45097
v 9.67879 20.47095 5.48256
v 6.36911 19.02670 9.82596
v 13.26009 22.25115 9.81439
v 12.18464 23.10262 9.28346
v 11.05071 20.46076 12.41317
v 8.82122 22.10545 12.22716
v 8.96237 18.47661 9.81580
v 6.36911 19.02670 9.82596
v 9.66888 25.74234 13.32061
v 13.55954 25.15070 10.77266
v 12.71158 19.07342 12.15416
v 13.68389 17.55893 -4.20669
v 9.28393 18.65214 -7.78100
v 12.40209 16.29510 -8.02039
v 9.28393 18.65214 -7.78100
v 14.65343 16.62452 -4.08774
v 7.94710 19.18285 -9.03610
v 10.18458 20.21642 -2.77878
v 11.86716 18.83498 -3.55110
v 9.11429 22.53430 -9.69370
v 5.49135 22.18459 -10.27510
vt 0.392257 0.162141
vt 0.237016 0.160928
vt 0.240130 0.298959
vt 0.389559 0.321579
vt 0.497688 0.164331
vt 0.492631 0.317621
vt 0.610714 0.298631
vt 0.608286 0.166947
vt 0.154630 0.274813
vt 0.151745 0.459505
vt 0.085899 0.443924
vt 0.153986 0.533633
vt 0.100572 0.572350
vt 0.062630 0.518360
vt 0.329521 0.485328
vt 0.387575 0.560322
vt 0.386419 0.482749
vt 0.216221 0.542523
vt 0.196668 0.433748
vt 0.024207 0.548333
vt 0.051697 0.597995
vt 0.369954 0.402841
vt 0.253702 0.507920
vt 0.225819 0.596922
vt 0.141799 0.618301
vt 0.059156 0.647594
vt 0.295300 0.544538
vt 0.730231 0.168162
vt 0.709305 0.226643
vt 0.734751 0.241242
vt 0.760626 0.178196
vt 0.677619 0.269077
vt 0.148221 0.299028
vt 0.241956 0.323680
vt 0.389849 0.349607
vt 0.613742 0.327124
vt 0.693218 0.294009
vt 0.786937 0.010017
vt 0.753124 0.010017
vt 0.627756 0.010017
vt 0.106015 0.229787
vt 0.080580 0.238709
vt 0.759931 0.763940
vt 0.758998 0.730031
vt 0.716908 0.722377
vt 0.750787 0.689430
vt 0.809452 0.685198
vt 0.811928 0.731158
vt 0.789067 0.637470
vt 0.716094 0.654317
vt 0.535700 0.710152
vt 0.642439 0.717545
vt 0.643957 0.674221
vt 0.534352 0.693058
vt 0.600162 0.776539
vt 0.473484 0.761067
vt 0.476339 0.854210
vt 0.597915 0.838143
vt 0.630702 0.754954
vt 0.691208 0.788537
vt 0.704959 0.758433
vt 0.476215 0.854158
vt 0.473288 0.760988
vt 0.600166 0.776341
vt 0.597875 0.838146
vt 0.745278 0.815475
vt 0.897358 0.734815
vt 0.820912 0.786550
vt 0.890795 0.783087
vt 0.084552 0.425760
vt 0.088261 0.360037
vt 0.006832 0.360934
vt 0.815928 0.829571
vt 0.532740 0.666511
vt 0.643445 0.650590
vt 0.537810 0.654630
vt 0.062965 0.305430
vt 0.136812 0.312462
vt 0.165638 0.370432
vt 0.695874 0.618523
vt 0.896061 0.626595
vt 0.976792 0.628721
vt 0.981675 0.537222
vt 0.888724 0.526228
vt 0.903714 0.679133
vt 0.959748 0.077216
vt 0.943287 0.069044
vt 0.912420 0.086459
vt 0.944143 0.113157
vt 0.940364 0.054186
vt 0.946291 0.028626
vt 0.889557 0.020717
vt 0.904558 0.070980
vt 0.849697 0.083172
vt 0.868820 0.097101
vt 0.815138 0.109362
vt 0.804946 0.138779
vt 0.254423 0.451727
vt 0.324344 0.437455
vt 0.287507 0.376334
vt 0.301696 0.585211
vt 0.049496 0.702040
vt 0.153410 0.710906
vt 0.235294 0.689559
vt 0.086723 0.147192
vt 0.060424 0.150946
vt 0.157515 0.777952
vt 0.164062 0.824188
vt 0.253685 0.876436
vt 0.238252 0.754979
vt 0.929311 0.165600
vt 0.886337 0.113415
vt 0.777987 0.267188
vt 0.777526 0.324944
vt 0.806817 0.318475
vt 0.806877 0.267087
vt 0.844691 0.309614
vt 0.917117 0.308798
vt 0.924869 0.263449
vt 0.857167 0.266816
vt 0.975299 0.950054
vt 0.974389 0.895319
vt 0.908940 0.892988
vt 0.915129 0.949868
vt 0.617356 0.608116
vt 0.514823 0.648924
vt 0.519229 0.719964
vt 0.893104 0.824574
vt 0.985108 0.825018
vt 0.508192 0.661836
vt 0.833409 0.067993
vt 0.913743 0.371102
vt 0.984140 0.365318
vt 0.984140 0.307884
vt 0.985371 0.124411
vt 0.984140 0.163567
vt 0.984140 0.221020
vt 0.918810 0.228408
vt 0.984140 0.267335
vt 0.918467 0.414829
vt 0.931915 0.438932
vt 0.984140 0.433187
vt 0.984140 0.407799
vt 0.393759 0.010017
vt 0.227492 0.010017
vt 0.058589 0.010017
vt 0.038971 0.963054
vt 0.043938 0.937314
vt 0.028206 0.934447
vt 0.022941 0.953867
vt 0.040649 0.912283
vt 0.024367 0.920804
vt 0.019844 0.933424
vt 0.595924 0.928997
vt 0.318431 0.933478
vt 0.318263 0.982755
vt 0.596093 0.989478
vt 0.092226 0.938023
vt 0.091731 0.909898
vt 0.318028 0.893089
vt 0.164754 0.904391
vt 0.164872 0.936751
vt 0.908940 0.892988
vt 0.838514 0.894125
vt 0.840217 0.948360
vt 0.838514 0.992381
vt 0.840217 0.948360
vt 0.838514 0.894125
vt 0.915489 0.992865
vt 0.977825 0.993950
vt 0.838514 0.992381
vt 0.090424 0.968007
vt 0.164146 0.973783
vt 0.838514 0.854473
vt 0.595530 0.876852
vt 0.891153 0.470576
vt 0.918467 0.414829
vt 0.870653 0.450986
vt 0.758662 0.536868
vt 0.511288 0.703734
vt 0.635386 0.807466
vt 0.635586 0.807626
vt 0.984140 0.085053
vt 0.981557 0.690899
vt 0.985555 0.753482
vt 0.638897 0.541815
vt 0.671286 0.509002
vt 0.559272 0.482249
vt 0.553914 0.537884
vt 0.654606 0.575131
vt 0.706624 0.530850
vt 0.462979 0.515798
vt 0.452001 0.539693
vt 0.545036 0.571704
vt 0.440081 0.470083
vt 0.403027 0.452697
vt 0.734058 0.367678
vt 0.692187 0.367678
vt 0.427322 0.690075
vt 0.474904 0.638506
vt 0.425142 0.634943
vt 0.470581 0.565082
vt 0.420588 0.569047
vt 0.454256 0.716187
vt 0.479361 0.692263
vt 0.436810 0.367678
vt 0.407100 0.367678
vt 0.863499 0.492721
vt 0.847365 0.491328
vt 0.884109 0.509654
vt 0.917972 0.495025
vt 0.891153 0.470576
vt 0.863499 0.492721
vt 0.883530 0.402799
vt 0.913743 0.371102
vt 0.861707 0.390404
vt 0.837369 0.440478
vt 0.832474 0.404031
vt 0.035109 0.010017
vt 0.801122 0.487318
vt 0.819253 0.490910
vt 0.837369 0.440478
vt 0.811720 0.437090
vt 0.899578 0.144224
vt 0.929311 0.165600
vt 0.796904 0.170182
vt 0.831033 0.177172
vt 0.857864 0.136183
vt 0.493244 0.349307
vt 0.509759 0.010017
vt 0.780040 0.221516
vt 0.810950 0.221603
vt 0.867419 0.215156
vt 0.339496 0.863509
vt 0.330037 0.765483
vt 0.897456 0.146841
vt 0.837760 0.348098
vt 0.809932 0.359289
vt 0.832474 0.404031
vt 0.861707 0.390404
vt 0.152487 0.458375
vt 0.087027 0.443946
vt 0.154848 0.532777
vt 0.099482 0.572724
vt 0.062249 0.518231
vt 0.329384 0.485301
vt 0.387874 0.559412
vt 0.384594 0.482863
vt 0.215389 0.541577
vt 0.196466 0.432533
vt 0.024667 0.547851
vt 0.051855 0.598454
vt 0.370278 0.405641
vt 0.253385 0.507204
vt 0.224240 0.597708
vt 0.059611 0.646822
vt 0.140946 0.617638
vt 0.301842 0.560540
vt 0.255381 0.451886
vt 0.323761 0.436901
vt 0.288268 0.376086
vt 0.233969 0.687992
vt 0.315234 0.674116
vt 0.306391 0.599119
vt 0.049652 0.702119
vt 0.153915 0.711061
vt 0.400635 0.661191
vt 0.034133 0.760936
vt 0.016772 0.817607
vt 0.167761 0.871065
vt 0.151490 0.777972
vt 0.253805 0.874114
vt 0.234332 0.748812
vt 0.349929 0.867234
vt 0.325531 0.764349
vt 0.412386 0.738455
vt 0.429700 0.790051
vt 0.800630 0.406887
vt 0.783154 0.368930
vt 0.878490 0.011634
vt 0.565351 0.367678
vt 0.319524 0.711073
vt 0.320717 0.711002
vt 0.069952 0.812140
vt 0.400877 0.661002
vt 0.411826 0.748156
vt 0.315652 0.673955
vt 0.069158 0.815399
vt 0.881159 0.209169
vt 0.905108 0.205850
vt 0.165842 0.870371
vt 0.019755 0.836170
vt 0.672245 0.576695
vt 0.392257 0.162141
vt 0.389559 0.321579
vt 0.240130 0.298959
vt 0.237016 0.160928
vt 0.497688 0.164331
vt 0.608286 0.166947
vt 0.610714 0.298631
vt 0.492631 0.317621
vt 0.154630 0.274813
vt 0.151745 0.459505
vt 0.153986 0.533633
vt 0.085899 0.443924
vt 0.100572 0.572350
vt 0.062630 0.518360
vt 0.329521 0.485328
vt 0.386419 0.482749
vt 0.387575 0.560322
vt 0.216221 0.542523
vt 0.196668 0.433748
vt 0.024207 0.548333
vt 0.051697 0.597995
vt 0.369954 0.402841
vt 0.253702 0.507920
vt 0.225819 0.596922
vt 0.141799 0.618301
vt 0.059156 0.647594
vt 0.295300 0.544538
vt 0.730231 0.168162
vt 0.760626 0.178196
vt 0.734751 0.241242
vt 0.709305 0.226643
vt 0.677619 0.269077
vt 0.241956 0.323680
vt 0.148221 0.299028
vt 0.389849 0.349607
vt 0.613742 0.327124
vt 0.693218 0.294009
vt 0.080580 0.238709
vt 0.106015 0.229787
vt 0.759931 0.763940
vt 0.716908 0.722377
vt 0.758998 0.730031
vt 0.750787 0.689430
vt 0.809452 0.685198
vt 0.811928 0.731158
vt 0.716094 0.654317
vt 0.789067 0.637470
vt 0.535700 0.710152
vt 0.534352 0.693058
vt 0.643957 0.674221
vt 0.642439 0.717545
vt 0.600162 0.776539
vt 0.473484 0.761067
vt 0.704959 0.758433
vt 0.600166 0.776341
vt 0.473288 0.760988
vt 0.897358 0.734815
vt 0.890795 0.783087
vt 0.820912 0.786550
vt 0.084552 0.425760
vt 0.006832 0.360934
vt 0.088261 0.360037
vt 0.532740 0.666511
vt 0.537810 0.654630
vt 0.643445 0.650590
vt 0.062965 0.305430
vt 0.136812 0.312462
vt 0.165638 0.370432
vt 0.695874 0.618523
vt 0.896061 0.626595
vt 0.976792 0.628721
vt 0.903714 0.679133
vt 0.959748 0.077216
vt 0.944143 0.113157
vt 0.912420 0.086459
vt 0.943287 0.069044
vt 0.940364 0.054186
vt 0.904558 0.070980
vt 0.868820 0.097101
vt 0.849697 0.083172
vt 0.804946 0.138779
vt 0.815138 0.109362
vt 0.254423 0.451727
vt 0.287507 0.376334
vt 0.324344 0.437455
vt 0.301696 0.585211
vt 0.153410 0.710906
vt 0.049496 0.702040
vt 0.235294 0.689559
vt 0.060424 0.150946
vt 0.086723 0.147192
vt 0.157515 0.777952
vt 0.238252 0.754979
vt 0.253685 0.876436
vt 0.164062 0.824188
vt 0.929311 0.165600
vt 0.886337 0.113415
vt 0.777987 0.267188
vt 0.806877 0.267087
vt 0.806817 0.318475
vt 0.777526 0.324944
vt 0.844691 0.309614
vt 0.857167 0.266816
vt 0.924869 0.263449
vt 0.917117 0.308798
vt 0.975299 0.950054
vt 0.915129 0.949868
vt 0.908940 0.892988
vt 0.974389 0.895319
vt 0.833409 0.067993
vt 0.913743 0.371102
vt 0.918810 0.228408
vt 0.918467 0.414829
vt 0.931915 0.438932
vt 0.028206 0.934447
vt 0.043938 0.937314
vt 0.595924 0.928997
vt 0.318431 0.933478
vt 0.092226 0.938023
vt 0.164872 0.936751
vt 0.840217 0.948360
vt 0.838514 0.894125
vt 0.908940 0.892988
vt 0.840217 0.948360
vt 0.838514 0.894125
vt 0.891153 0.470576
vt 0.870653 0.450986
vt 0.918467 0.414829
vt 0.981557 0.690899
vt 0.985555 0.753482
vt 0.638897 0.541815
vt 0.553914 0.537884
vt 0.559272 0.482249
vt 0.671286 0.509002
vt 0.706624 0.530850
vt 0.654606 0.575131
vt 0.462979 0.515798
vt 0.545036 0.571704
vt 0.452001 0.539693
vt 0.440081 0.470083
vt 0.403027 0.452697
vt 0.427322 0.690075
vt 0.425142 0.634943
vt 0.474904 0.638506
vt 0.420588 0.569047
vt 0.470581 0.565082
vt 0.479361 0.692263
vt 0.454256 0.716187
vt 0.891153 0.470576
vt 0.917972 0.495025
vt 0.883530 0.402799
vt 0.861707 0.390404
vt 0.913743 0.371102
vt 0.837369 0.440478
vt 0.832474 0.404031
vt 0.811720 0.437090
vt 0.837369 0.440478
vt 0.929311 0.165600
vt 0.899578 0.144224
vt 0.796904 0.170182
vt 0.857864 0.136183
vt 0.831033 0.177172
vt 0.493244 0.349307
vt 0.810950 0.221603
vt 0.780040 0.221516
vt 0.867419 0.215156
vt 0.339496 0.863509
vt 0.330037 0.765483
vt 0.897456 0.146841
vt 0.837760 0.348098
vt 0.861707 0.390404
vt 0.832474 0.404031
vt 0.809932 0.359289
vt 0.152487 0.458375
vt 0.154848 0.532777
vt 0.087027 0.443946
vt 0.099482 0.572724
vt 0.062249 0.518231
vt 0.329384 0.485301
vt 0.384594 0.482863
vt 0.387874 0.559412
vt 0.215389 0.541577
vt 0.196466 0.432533
vt 0.024667 0.547851
vt 0.051855 0.598454
vt 0.370278 0.405641
vt 0.253385 0.507204
vt 0.224240 0.597708
vt 0.140946 0.617638
vt 0.059611 0.646822
vt 0.301842 0.560540
vt 0.255381 0.451886
vt 0.288268 0.376086
vt 0.323761 0.436901
vt 0.306391 0.599119
vt 0.315234 0.674116
vt 0.233969 0.687992
vt 0.153915 0.711061
vt 0.049652 0.702119
vt 0.400635 0.661191
vt 0.034133 0.760936
vt 0.151490 0.777972
vt 0.167761 0.871065
vt 0.016772 0.817607
vt 0.234332 0.748812
vt 0.253805 0.874114
vt 0.325531 0.764349
vt 0.349929 0.867234
vt 0.412386 0.738455
vt 0.429700 0.790051
vt 0.800630 0.406887
vt 0.783154 0.368930
vt 0.319524 0.711073
vt 0.320717 0.711002
vt 0.069952 0.812140
vt 0.400877 0.661002
vt 0.411826 0.748156
vt 0.315652 0.673955
vt 0.069158 0.815399
vt 0.905108 0.205850
vt 0.881159 0.209169
vt 0.165842 0.870371
vt 0.019755 0.836170
vn -0.33962 0.94004 0.03148
vn -0.22876 0.94767 0.22269
vn -0.62096 0.77531 0.11533
vn -0.71731 0.69675 -0.00005
vn -0.31529 0.93819 -0.14278
vn -0.67286 0.72990 -0.12044
vn -0.64036 0.73999 -0.20579
vn -0.26969 0.91653 -0.29538
vn -0.52745 0.78994 0.31272
vn -0.62830 -0.70321 0.33277
vn -0.36166 -0.14630 -0.92076
vn -0.23707 0.36277 -0.90122
vn 0.05192 0.04910 -0.99744
vn -0.60298 -0.78351 0.15009
vn -0.01665 -0.68984 0.72377
vn 0.70665 -0.69807 0.11550
vn 0.68876 -0.40174 -0.60351
vn -0.52969 0.84356 -0.08846
vn -0.92979 -0.35933 -0.07984
vn -0.43385 -0.81108 -0.39233
vn 0.68876 -0.40174 -0.60351
vn -0.43385 -0.81108 -0.39233
vn -0.45298 -0.18706 0.87167
vn -0.59304 0.69235 0.41104
vn 0.06807 0.31769 -0.94575
vn 0.70665 -0.69807 0.11550
vn -0.06014 -0.33401 0.94065
vn -0.19737 0.76453 -0.61363
vn -0.32874 0.77176 -0.54435
vn -0.34100 0.58704 -0.73423
vn -0.19386 0.62895 -0.75289
vn -0.55885 0.69329 -0.45501
vn -0.63787 0.63787 0.43156
vn -0.77859 0.61764 0.11102
vn -0.82600 0.56364 0.00604
vn -0.79990 0.54513 -0.25098
vn -0.63631 0.52178 -0.56820
vn -0.00000 0.69403 -0.71994
vn -0.00000 0.88483 -0.46592
vn 0.00000 0.96363 -0.26726
vn -0.28925 0.76026 0.58167
vn -0.32875 0.64997 0.68518
vn -0.68624 0.64774 -0.33092
vn -0.81977 0.51115 -0.25826
vn -0.77428 0.55520 -0.30371
vn -0.86068 0.38761 -0.33014
vn -0.85311 0.38371 -0.35350
vn -0.78897 0.55586 -0.26180
vn -0.83760 -0.50662 -0.20436
vn -0.85919 -0.02459 -0.51106
vn -0.66062 0.37308 -0.65146
vn -0.66748 0.50503 -0.54719
vn -0.82006 0.14248 -0.55425
vn -0.25520 -0.84326 -0.47305
vn -0.25520 -0.84326 -0.47305
vn -0.82006 0.14248 -0.55425
vn 0.00000 0.14251 -0.98979
vn 0.00000 -0.99997 0.00791
vn -0.00000 0.84159 -0.54012
vn 0.00000 0.83959 -0.54323
vn -0.38690 0.72185 -0.57380
vn 0.00000 0.14251 -0.98979
vn -0.82006 0.14248 -0.55425
vn -0.55803 0.53546 -0.63394
vn 0.00000 0.99963 -0.02721
vn -0.00000 0.93146 -0.36383
vn -0.71982 0.68577 0.10761
vn -0.49908 0.86637 -0.01781
vn -0.48765 0.85967 0.15219
vn -0.63877 0.72478 -0.25820
vn -0.83538 0.48680 -0.25526
vn -0.65647 0.49580 -0.56853
vn 0.00000 0.99570 -0.09267
vn -0.55803 0.53546 -0.63394
vn -0.68849 -0.50158 -0.52383
vn -0.61270 -0.42112 -0.66877
vn -0.87393 0.27668 -0.39963
vn -0.96438 0.26076 -0.04456
vn -0.82730 0.55832 0.06207
vn -0.55990 -0.75682 -0.33725
vn -0.61964 -0.75353 0.21965
vn -0.74195 -0.66919 0.04120
vn -0.00000 -0.98922 0.14646
vn 0.00000 -0.99411 0.10834
vn -0.99108 0.09824 0.09005
vn -0.74195 -0.66919 0.04120
vn -0.95284 0.29405 0.07506
vn -0.88161 -0.13802 -0.45134
vn -0.66204 -0.63317 -0.40100
vn -0.59883 0.79599 0.08838
vn 0.00000 0.97938 0.20201
vn 0.00000 0.59957 -0.80033
vn -0.61153 0.39560 -0.68522
vn -0.05514 -0.51269 -0.85680
vn -0.33865 -0.37436 -0.86323
vn -0.03565 -0.65441 -0.75530
vn -0.15621 -0.68928 -0.70745
vn -0.62830 -0.70321 0.33277
vn -0.60298 -0.78351 0.15009
vn -0.36166 -0.14630 -0.92076
vn -0.11053 -0.41830 0.90156
vn 0.63293 -0.65958 -0.40541
vn -0.18650 0.44885 -0.87393
vn -0.58114 0.70741 0.40231
vn -0.06434 0.85436 0.51568
vn -0.07989 0.72290 0.68632
vn -0.22352 0.11777 -0.96756
vn -0.44493 0.18282 -0.87671
vn -0.88459 -0.27638 -0.37565
vn -0.68923 0.72256 0.05360
vn -0.31356 -0.77658 -0.54644
vn -0.37023 -0.42783 -0.82456
vn -0.43351 -0.89928 0.05802
vn -0.34936 -0.90750 0.23322
vn -0.69467 -0.70072 0.16255
vn -0.60837 -0.79148 0.05868
vn -0.61122 -0.78031 -0.13237
vn -0.48246 -0.85491 0.19067
vn -0.49456 -0.86824 0.03962
vn -0.64823 -0.76036 0.04048
vn -0.87511 -0.42540 0.23070
vn -0.86937 0.46900 0.15569
vn -0.97113 -0.20185 0.12718
vn -0.77704 -0.58144 0.24109
vn -0.00000 -0.94366 -0.33092
vn 0.00000 -0.66606 -0.74590
vn -0.00000 0.46826 -0.88359
vn -0.00000 0.99458 0.10393
vn 0.00000 0.97938 0.20201
vn -0.00000 0.69293 -0.72101
vn 0.01327 -0.61023 -0.79211
vn -0.38805 -0.88146 0.26917
vn 0.00000 -0.98215 0.18812
vn 0.00000 -0.98404 0.17797
vn 0.00000 -0.92899 -0.37010
vn -0.00000 -0.93432 -0.35643
vn 0.00000 -0.99056 -0.13706
vn -0.38918 -0.92087 -0.02294
vn 0.00000 -0.99999 0.00327
vn -0.73075 -0.47447 0.49080
vn -0.87511 -0.42540 0.23070
vn -0.00000 -0.96782 0.25163
vn 0.00000 -0.96933 0.24577
vn -0.00000 0.99643 0.08445
vn -0.00000 0.94415 0.32952
vn -0.00000 0.79839 0.60214
vn 0.00000 -0.99217 0.12491
vn -0.97994 0.17594 0.09359
vn -0.78459 -0.14750 0.60222
vn 0.00000 -0.64610 0.76325
vn -0.00000 0.99468 0.10306
vn -0.00000 0.82332 0.56758
vn 0.00000 0.03610 0.99935
vn -0.98901 0.05634 0.13671
vn -0.99648 0.03080 0.07801
vn 0.00000 -0.99555 0.09419
vn -0.00000 -0.99429 0.10672
vn -0.99546 -0.08837 0.03522
vn -0.00000 0.99921 0.03965
vn -0.00000 0.99790 0.06484
vn 0.00000 0.99942 0.03395
vn -0.98856 0.14349 0.04638
vn -0.97113 -0.20185 0.12718
vn -0.92521 0.21088 0.31546
vn -0.82689 -0.53741 0.16566
vn 0.00000 -0.98705 0.16041
vn -0.82689 -0.53741 0.16566
vn -0.92521 0.21088 0.31546
vn -0.00000 -0.98898 0.14802
vn -0.00000 -0.96782 0.25163
vn 0.00000 -0.98705 0.16041
vn 0.00000 -0.99660 0.08240
vn -0.00000 -0.99824 0.05928
vn 0.00000 0.98398 0.17826
vn 0.00000 0.99804 0.06250
vn -0.86937 0.46900 0.15569
vn -0.73075 -0.47447 0.49080
vn -0.39837 0.76372 0.50797
vn 0.00000 -0.99168 -0.12876
vn 0.00000 -0.44912 -0.89347
vn 0.00000 -0.44912 -0.89347
vn -0.00000 0.69293 -0.72101
vn -0.00000 -0.98922 0.14646
vn -0.95284 0.29405 0.07506
vn -0.59883 0.79599 0.08838
vn -0.53950 0.83733 0.08843
vn -0.29315 0.90998 -0.29325
vn -0.18135 0.95888 0.21830
vn -0.60471 0.75269 0.26035
vn -0.71941 0.69003 -0.07945
vn -0.33939 0.78863 -0.51271
vn -0.44810 0.77711 0.44193
vn -0.38349 0.51056 0.76959
vn -0.73132 0.61990 0.28441
vn -0.13392 0.73595 0.66366
vn -0.13479 0.37021 0.91912
vn 0.00000 0.81413 -0.58069
vn 0.00000 0.99276 -0.12008
vn -0.11409 -0.95260 -0.28202
vn -0.12034 -0.98542 -0.12029
vn -0.10231 -0.99226 -0.07033
vn -0.08986 -0.99579 -0.01806
vn -0.05118 -0.99869 0.00039
vn -0.10503 -0.85414 -0.50933
vn -0.10733 -0.93586 -0.33563
vn 0.00000 0.62320 0.78206
vn 0.00000 0.40165 0.91579
vn -0.00000 0.99306 0.11757
vn -0.00000 0.99268 0.12075
vn 0.00000 -0.57844 -0.81572
vn 0.03079 -0.71683 -0.69656
vn -0.08016 -0.57658 -0.81310
vn 0.00000 -0.41746 -0.90869
vn -0.62879 -0.15453 0.76207
vn -0.38805 -0.88146 0.26917
vn -0.34047 -0.15220 0.92786
vn -0.24744 -0.08991 0.96472
vn -0.39932 -0.28515 0.87134
vn -0.00000 0.72004 0.69393
vn 0.00000 -0.62234 0.78275
vn -0.00000 0.58645 0.80999
vn -0.24744 -0.08991 0.96472
vn -0.03757 -0.64043 0.76710
vn -0.16077 -0.42874 -0.88901
vn -0.16075 -0.87458 -0.45747
vn -0.46327 -0.85463 -0.23447
vn -0.88459 -0.27638 -0.37565
vn -0.45189 -0.52369 -0.72218
vn -0.79174 0.59887 -0.12040
vn 0.00000 0.99726 -0.07404
vn -0.45292 -0.88778 -0.08185
vn -0.56170 -0.82591 -0.04867
vn -0.69459 -0.64412 0.32040
vn -0.69459 -0.64412 0.32040
vn -0.04088 -0.32987 0.94314
vn -0.02301 -0.96375 -0.26582
vn -0.80133 0.56580 0.19427
vn -0.64421 -0.54206 0.53959
vn -0.39932 -0.28515 0.87134
vn -0.34047 -0.15220 0.92786
vn -0.56736 -0.64105 0.51688
vn -0.50619 -0.41461 -0.75622
vn -0.40184 0.23069 -0.88618
vn -0.05714 -0.20264 -0.97759
vn -0.56345 -0.68380 0.46361
vn 0.09135 -0.52188 0.84811
vn 0.64407 -0.64583 0.40997
vn 0.73667 -0.53277 -0.41651
vn -0.60078 0.79607 0.07305
vn -0.98025 -0.19664 0.02087
vn -0.43186 -0.90156 0.02634
vn 0.73667 -0.53277 -0.41651
vn -0.43186 -0.90156 0.02634
vn -0.28706 -0.00266 0.95791
vn -0.51297 0.80423 0.30014
vn 0.64407 -0.64583 0.40997
vn -0.00174 -0.04827 -0.99883
vn 0.08382 -0.07318 0.99379
vn -0.56736 -0.64105 0.51688
vn -0.56345 -0.68380 0.46361
vn -0.50619 -0.41461 -0.75622
vn -0.68856 0.72487 0.02106
vn 0.05493 0.00507 0.99848
vn 0.05478 -0.01213 0.99842
vn 0.46862 -0.88219 0.04625
vn -0.35821 -0.03333 -0.93305
vn 0.46862 -0.88219 0.04625
vn 0.38374 -0.90302 0.19312
vn -0.38805 -0.88146 0.26917
vn -0.61122 -0.78031 -0.13237
vn -0.31823 -0.27468 -0.90735
vn -0.80133 0.56580 0.19427
vn -0.70512 0.70874 0.02223
vn -0.34047 -0.15220 0.92786
vn 0.01506 0.04550 0.99885
vn 0.38374 -0.90302 0.19312
vn -0.38805 -0.88146 0.26917
vn -0.18432 -0.79099 0.58341
vn -0.23345 -0.90296 0.36077
vn 0.00000 -0.49029 -0.87156
vn 0.00000 0.97129 0.23791
vn -0.12527 0.10268 0.98679
vn 0.06945 -0.23877 0.96859
vn -0.02301 -0.96375 -0.26582
vn 0.63293 -0.65958 -0.40541
vn -0.02301 -0.96375 -0.26582
vn 0.08727 -0.24880 0.96462
vn -0.16077 -0.42874 -0.88901
vn -0.04088 -0.32987 0.94314
vn -0.69459 -0.64412 0.32040
vn -0.45189 -0.52369 -0.72218
vn -0.37023 -0.42783 -0.82456
vn 0.00000 -0.97701 -0.21319
vn 0.33962 0.94004 0.03148
vn 0.71731 0.69675 -0.00005
vn 0.62096 0.77531 0.11533
vn 0.22876 0.94767 0.22269
vn 0.31529 0.93819 -0.14278
vn 0.26969 0.91653 -0.29538
vn 0.64036 0.74000 -0.20579
vn 0.67286 0.72990 -0.12044
vn 0.52745 0.78994 0.31272
vn 0.62830 -0.70321 0.33277
vn 0.23707 0.36277 -0.90122
vn 0.36166 -0.14630 -0.92076
vn -0.05192 0.04910 -0.99744
vn 0.60298 -0.78351 0.15009
vn 0.01665 -0.68984 0.72377
vn -0.68876 -0.40174 -0.60351
vn -0.70665 -0.69807 0.11550
vn 0.52969 0.84356 -0.08846
vn 0.92979 -0.35933 -0.07984
vn 0.43385 -0.81108 -0.39233
vn -0.68876 -0.40174 -0.60351
vn 0.43385 -0.81108 -0.39233
vn 0.45298 -0.18706 0.87167
vn 0.59304 0.69235 0.41104
vn -0.06807 0.31769 -0.94575
vn -0.70665 -0.69807 0.11550
vn 0.06014 -0.33401 0.94065
vn 0.19737 0.76453 -0.61363
vn 0.19386 0.62895 -0.75289
vn 0.34101 0.58704 -0.73423
vn 0.32875 0.77176 -0.54435
vn 0.55885 0.69329 -0.45501
vn 0.77859 0.61764 0.11102
vn 0.63787 0.63787 0.43156
vn 0.82600 0.56364 0.00604
vn 0.79990 0.54513 -0.25098
vn 0.63631 0.52178 -0.56820
vn 0.32875 0.64997 0.68518
vn 0.28925 0.76026 0.58167
vn 0.68624 0.64774 -0.33092
vn 0.77428 0.55520 -0.30371
vn 0.81977 0.51115 -0.25826
vn 0.86068 0.38761 -0.33014
vn 0.85311 0.38371 -0.35350
vn 0.78897 0.55586 -0.26180
vn 0.85919 -0.02459 -0.51106
vn 0.83760 -0.50662 -0.20436
vn 0.66062 0.37308 -0.65146
vn 0.25520 -0.84326 -0.47305
vn 0.82006 0.14248 -0.55425
vn 0.66748 0.50503 -0.54719
vn 0.25520 -0.84326 -0.47305
vn 0.82006 0.14248 -0.55425
vn 0.38690 0.72185 -0.57380
vn 0.55803 0.53546 -0.63394
vn 0.82006 0.14248 -0.55425
vn 0.71982 0.68577 0.10761
vn 0.48765 0.85967 0.15219
vn 0.49908 0.86637 -0.01781
vn 0.63877 0.72478 -0.25820
vn 0.65647 0.49580 -0.56853
vn 0.83538 0.48680 -0.25526
vn 0.55803 0.53546 -0.63394
vn 0.61270 -0.42112 -0.66877
vn 0.68849 -0.50158 -0.52383
vn 0.87393 0.27668 -0.39963
vn 0.96438 0.26076 -0.04456
vn 0.82730 0.55832 0.06207
vn 0.55990 -0.75682 -0.33725
vn 0.61964 -0.75353 0.21965
vn 0.74195 -0.66919 0.04120
vn 0.99108 0.09824 0.09005
vn 0.74195 -0.66919 0.04120
vn 0.66204 -0.63317 -0.40100
vn 0.88161 -0.13802 -0.45134
vn 0.95284 0.29405 0.07506
vn 0.59883 0.79599 0.08838
vn 0.61153 0.39560 -0.68522
vn 0.33865 -0.37436 -0.86323
vn 0.05514 -0.51269 -0.85680
vn 0.15621 -0.68928 -0.70745
vn 0.03565 -0.65441 -0.75530
vn 0.62830 -0.70321 0.33277
vn 0.36166 -0.14630 -0.92076
vn 0.60298 -0.78351 0.15009
vn 0.11053 -0.41830 0.90156
vn 0.18650 0.44885 -0.87393
vn -0.63293 -0.65958 -0.40541
vn 0.58114 0.70741 0.40231
vn 0.07989 0.72290 0.68632
vn 0.06434 0.85436 0.51568
vn 0.22352 0.11777 -0.96756
vn 0.68923 0.72256 0.05360
vn 0.88459 -0.27638 -0.37565
vn 0.44493 0.18282 -0.87671
vn 0.31430 -0.77388 -0.54984
vn 0.37023 -0.42783 -0.82456
vn 0.43351 -0.89928 0.05802
vn 0.60837 -0.79148 0.05868
vn 0.69467 -0.70072 0.16255
vn 0.34936 -0.90750 0.23322
vn 0.61122 -0.78031 -0.13237
vn 0.64823 -0.76036 0.04048
vn 0.49456 -0.86824 0.03962
vn 0.48246 -0.85491 0.19067
vn 0.87511 -0.42540 0.23070
vn 0.77704 -0.58144 0.24109
vn 0.97113 -0.20185 0.12718
vn 0.86937 0.46900 0.15569
vn -0.01327 -0.61023 -0.79211
vn 0.38805 -0.88146 0.26917
vn 0.38918 -0.92088 -0.02292
vn 0.73075 -0.47447 0.49080
vn 0.87511 -0.42540 0.23070
vn 0.78459 -0.14750 0.60222
vn 0.97994 0.17594 0.09359
vn 0.98901 0.05634 0.13671
vn 0.99648 0.03080 0.07801
vn 0.99546 -0.08837 0.03522
vn 0.98856 0.14349 0.04638
vn 0.82689 -0.53741 0.16566
vn 0.92521 0.21088 0.31546
vn 0.97113 -0.20185 0.12718
vn 0.82689 -0.53741 0.16566
vn 0.92521 0.21088 0.31546
vn 0.86937 0.46900 0.15569
vn 0.39837 0.76372 0.50798
vn 0.73075 -0.47447 0.49080
vn 0.95284 0.29405 0.07506
vn 0.59883 0.79599 0.08838
vn 0.53950 0.83733 0.08843
vn 0.60471 0.75269 0.26035
vn 0.18135 0.95888 0.21830
vn 0.29315 0.90998 -0.29325
vn 0.33939 0.78863 -0.51271
vn 0.71941 0.69003 -0.07945
vn 0.44810 0.77711 0.44193
vn 0.73132 0.61990 0.28441
vn 0.38349 0.51056 0.76959
vn 0.13392 0.73595 0.66366
vn 0.13479 0.37021 0.91912
vn 0.11409 -0.95260 -0.28202
vn 0.10231 -0.99226 -0.07033
vn 0.12034 -0.98542 -0.12029
vn 0.05118 -0.99869 0.00039
vn 0.08986 -0.99579 -0.01806
vn 0.10733 -0.93586 -0.33563
vn 0.10503 -0.85414 -0.50933
vn 0.08016 -0.57658 -0.81310
vn -0.03079 -0.71683 -0.69656
vn 0.62879 -0.15453 0.76207
vn 0.34047 -0.15220 0.92786
vn 0.38805 -0.88146 0.26917
vn 0.24744 -0.08991 0.96472
vn 0.39932 -0.28515 0.87134
vn 0.03757 -0.64043 0.76710
vn 0.24744 -0.08991 0.96472
vn 0.16178 -0.87042 -0.46497
vn 0.16077 -0.42347 -0.89153
vn 0.46327 -0.85463 -0.23447
vn 0.45189 -0.52369 -0.72218
vn 0.88459 -0.27638 -0.37565
vn 0.79174 0.59887 -0.12040
vn 0.56170 -0.82591 -0.04867
vn 0.45292 -0.88778 -0.08185
vn 0.69459 -0.64412 0.32040
vn 0.69459 -0.64412 0.32040
vn 0.04088 -0.32987 0.94314
vn 0.02301 -0.96375 -0.26582
vn 0.80133 0.56580 0.19427
vn 0.34047 -0.15220 0.92786
vn 0.39932 -0.28515 0.87134
vn 0.64421 -0.54206 0.53959
vn 0.56736 -0.64105 0.51688
vn 0.40184 0.23069 -0.88618
vn 0.50619 -0.41461 -0.75622
vn 0.05714 -0.20264 -0.97759
vn 0.56345 -0.68380 0.46361
vn -0.09135 -0.52188 0.84811
vn -0.73667 -0.53277 -0.41651
vn -0.64407 -0.64583 0.40997
vn 0.60078 0.79607 0.07305
vn 0.98025 -0.19664 0.02087
vn 0.43186 -0.90156 0.02634
vn -0.73667 -0.53277 -0.41651
vn 0.43186 -0.90156 0.02634
vn 0.28706 -0.00266 0.95791
vn 0.51297 0.80423 0.30014
vn 0.00174 -0.04827 -0.99883
vn -0.64407 -0.64583 0.40997
vn -0.08382 -0.07318 0.99379
vn 0.56736 -0.64105 0.51688
vn 0.50619 -0.41461 -0.75622
vn 0.56345 -0.68380 0.46361
vn -0.05478 -0.01213 0.99842
vn -0.05493 0.00506 0.99848
vn 0.68856 0.72487 0.02106
vn 0.35821 -0.03333 -0.93305
vn -0.46862 -0.88219 0.04625
vn -0.46862 -0.88219 0.04625
vn -0.38374 -0.90302 0.19312
vn 0.31823 -0.27468 -0.90735
vn 0.61122 -0.78031 -0.13237
vn 0.38805 -0.88146 0.26917
vn 0.70512 0.70874 0.02223
vn 0.80133 0.56580 0.19427
vn -0.01506 0.04550 0.99885
vn 0.34047 -0.15220 0.92786
vn -0.38374 -0.90302 0.19312
vn 0.38805 -0.88146 0.26917
vn 0.18432 -0.79099 0.58341
vn 0.23345 -0.90296 0.36077
vn 0.12527 0.10268 0.98679
vn -0.06945 -0.23877 0.96859
vn 0.02301 -0.96375 -0.26582
vn -0.63293 -0.65958 -0.40541
vn 0.02301 -0.96375 -0.26582
vn -0.08727 -0.24880 0.96462
vn 0.16077 -0.42347 -0.89153
vn 0.69459 -0.64412 0.32040
vn 0.04088 -0.32987 0.94314
vn 0.45189 -0.52369 -0.72218
vn 0.37023 -0.42783 -0.82456
f 442/442/442 443/443/443 210/210/210
f 210/210/210 213/213/213 442/442/442
f 212/212/212 213/213/213 210/210/210
f 210/210/210 211/211/211 212/212/212
f 376/376/376 378/378/378 308/308/308
f 376/376/376 377/377/377 378/378/378
f 315/315/315 308/308/308 378/378/378
f 308/308/308 310/310/310 320/320/320
f 308/308/308 315/315/315 309/309/309
f 308/308/308 309/309/309 310/310/310
f 320/320/320 310/310/310 379/379/379
f 317/317/317 320/320/320 379/379/379
f 511/511/511 379/379/379 310/310/310
f 310/310/310 509/509/509 511/511/511
f 317/317/317 379/379/379 511/511/511
f 511/511/511 382/382/382 317/317/317
f 509/509/509 507/507/507 511/511/511
f 511/511/511 507/507/507 382/382/382
f 461/461/461 507/507/507 509/509/509
f 509/509/509 510/510/510 461/461/461
f 382/382/382 507/507/507 461/461/461
f 380/380/380 382/382/382 386/386/386
f 15/15/15 99/99/99 98/98/98
f 98/98/98 99/99/99 100/100/100
f 22/22/22 99/99/99 15/15/15
f 15/15/15 27/27/27 16/16/16
f 15/15/15 17/17/17 22/22/22
f 15/15/15 16/16/16 17/17/17
f 27/27/27 101/101/101 16/16/16
f 24/24/24 101/101/101 27/27/27
f 287/287/287 285/285/285 16/16/16
f 16/16/16 101/101/101 287/287/287
f 287/287/287 101/101/101 24/24/24
f 24/24/24 104/104/104 287/287/287
f 285/285/285 287/287/287 283/283/283
f 287/287/287 104/104/104 283/283/283
f 235/235/235 286/286/286 285/285/285
f 285/285/285 283/283/283 235/235/235
f 235/235/235 283/283/283 104/104/104
f 110/110/110 104/104/104 103/103/103
f 199/199/199 205/205/205 200/200/200
f 199/199/199 204/204/204 205/205/205
f 199/199/199 200/200/200 201/201/201
f 201/201/201 200/200/200 202/202/202
f 201/201/201 202/202/202 203/203/203
f 435/435/435 437/437/437 440/440/440
f 435/435/435 440/440/440 441/441/441
f 435/435/435 436/436/436 437/437/437
f 436/436/436 439/439/439 437/437/437
f 436/436/436 438/438/438 439/439/439
f 282/282/282 262/262/262 273/273/273
f 273/273/273 262/262/262 266/266/266
f 257/257/257 266/266/266 262/262/262
f 266/266/266 271/271/271 273/273/273
f 275/275/275 273/273/273 272/272/272
f 272/272/272 273/273/273 271/271/271
f 276/276/276 275/275/275 274/274/274
f 272/272/272 274/274/274 275/275/275
f 274/274/274 277/277/277 276/276/276
f 271/271/271 270/270/270 272/272/272
f 265/265/265 268/268/268 271/271/271
f 271/271/271 266/266/266 265/265/265
f 270/270/270 271/271/271 268/268/268
f 265/265/265 266/266/266 257/257/257
f 257/257/257 256/256/256 265/265/265
f 257/257/257 244/244/244 252/252/252
f 252/252/252 256/256/256 257/257/257
f 245/245/245 251/251/251 244/244/244
f 251/251/251 252/252/252 244/244/244
f 244/244/244 242/242/242 245/245/245
f 268/268/268 269/269/269 270/270/270
f 506/506/506 500/500/500 498/498/498
f 491/491/491 490/490/490 498/498/498
f 490/490/490 491/491/491 482/482/482
f 498/498/498 495/495/495 491/491/491
f 499/499/499 498/498/498 500/500/500
f 495/495/495 498/498/498 499/499/499
f 501/501/501 500/500/500 502/502/502
f 500/500/500 501/501/501 499/499/499
f 502/502/502 503/503/503 501/501/501
f 499/499/499 496/496/496 495/495/495
f 492/492/492 491/491/491 495/495/495
f 495/495/495 494/494/494 492/492/492
f 494/494/494 495/495/495 496/496/496
f 482/482/482 491/491/491 492/492/492
f 492/492/492 483/483/483 482/482/482
f 482/482/482 483/483/483 478/478/478
f 478/478/478 470/470/470 482/482/482
f 477/477/477 470/470/470 478/478/478
f 471/471/471 470/470/470 477/477/477
f 470/470/470 471/471/471 469/469/469
f 496/496/496 497/497/497 494/494/494
f 348/348/348 349/349/349 62/62/62
f 62/62/62 65/65/65 348/348/348
f 64/64/64 65/65/65 62/62/62
f 62/62/62 63/63/63 64/64/64
f 182/182/182 348/348/348 65/65/65
f 182/182/182 65/65/65 64/64/64
f 58/58/58 181/181/181 55/55/55
f 57/57/57 58/58/58 55/55/55
f 55/55/55 56/56/56 57/57/57
f 58/58/58 345/345/345 181/181/181
f 345/345/345 58/58/58 57/57/57
f 57/57/57 346/346/346 345/345/345
f 400/400/400 414/414/414 415/415/415
f 399/399/399 400/400/400 401/401/401
f 401/401/401 402/402/402 399/399/399
f 48/48/48 67/67/67 85/85/85
f 85/85/85 47/47/47 48/48/48
f 67/67/67 48/48/48 68/68/68
f 49/49/49 47/47/47 85/85/85
f 46/46/46 47/47/47 49/49/49
f 46/46/46 50/50/50 52/52/52
f 49/49/49 50/50/50 46/46/46
f 80/80/80 49/49/49 179/179/179
f 49/49/49 81/81/81 84/84/84
f 84/84/84 179/179/179 49/49/49
f 85/85/85 81/81/81 49/49/49
f 50/50/50 49/49/49 80/80/80
f 85/85/85 184/184/184 82/82/82
f 82/82/82 81/81/81 85/85/85
f 184/184/184 85/85/85 67/67/67
f 83/83/83 84/84/84 81/81/81
f 81/81/81 82/82/82 83/83/83
f 340/340/340 179/179/179 84/84/84
f 393/393/393 394/394/394 391/391/391
f 391/391/391 458/458/458 457/457/457
f 458/458/458 453/453/453 455/455/455
f 455/455/455 457/457/457 458/458/458
f 454/454/454 455/455/455 453/453/453
f 451/451/451 389/389/389 405/405/405
f 405/405/405 462/462/462 451/451/451
f 405/405/405 397/397/397 396/396/396
f 396/396/396 459/459/459 405/405/405
f 139/139/139 397/397/397 405/405/405
f 397/397/397 139/139/139 134/134/134
f 134/134/134 139/139/139 119/119/119
f 138/138/138 119/119/119 139/139/139
f 134/134/134 398/398/398 397/397/397
f 397/397/397 398/398/398 395/395/395
f 395/395/395 396/396/396 397/397/397
f 392/392/392 396/396/396 395/395/395
f 459/459/459 396/396/396 392/392/392
f 84/84/84 363/363/363 340/340/340
f 363/363/363 84/84/84 83/83/83
f 362/362/362 293/293/293 179/179/179
f 179/179/179 340/340/340 362/362/362
f 179/179/179 293/293/293 80/80/80
f 365/365/365 337/337/337 340/340/340
f 340/340/340 363/363/363 365/365/365
f 339/339/339 362/362/362 340/340/340
f 340/340/340 337/337/337 336/336/336
f 336/336/336 339/339/339 340/340/340
f 365/365/365 363/363/363 364/364/364
f 83/83/83 364/364/364 363/363/363
f 364/364/364 422/422/422 365/365/365
f 338/338/338 337/337/337 365/365/365
f 365/365/365 350/350/350 338/338/338
f 350/350/350 365/365/365 422/422/422
f 337/337/337 338/338/338 335/335/335
f 336/336/336 337/337/337 335/335/335
f 336/336/336 334/334/334 344/344/344
f 344/344/344 339/339/339 336/336/336
f 335/335/335 334/334/334 336/336/336
f 338/338/338 333/333/333 335/335/335
f 333/333/333 334/334/334 335/335/335
f 333/333/333 338/338/338 352/352/352
f 352/352/352 338/338/338 350/350/350
f 351/351/351 350/350/350 423/423/423
f 422/422/422 423/423/423 350/350/350
f 350/350/350 351/351/351 352/352/352
f 170/170/170 121/121/121 124/124/124
f 123/123/123 124/124/124 121/121/121
f 121/121/121 122/122/122 123/123/123
f 170/170/170 169/169/169 400/400/400
f 400/400/400 399/399/399 170/170/170
f 124/124/124 169/169/169 170/170/170
f 169/169/169 124/124/124 165/165/165
f 164/164/164 165/165/165 124/124/124
f 124/124/124 163/163/163 164/164/164
f 169/169/169 171/171/171 414/414/414
f 414/414/414 400/400/400 169/169/169
f 165/165/165 171/171/171 169/169/169
f 415/415/415 416/416/416 400/400/400
f 412/412/412 172/172/172 147/147/147
f 147/147/147 409/409/409 412/412/412
f 408/408/408 409/409/409 147/147/147
f 147/147/147 150/150/150 408/408/408
f 158/158/158 148/148/148 147/147/147
f 147/147/147 172/172/172 158/158/158
f 149/149/149 150/150/150 147/147/147
f 147/147/147 148/148/148 149/149/149
f 413/413/413 412/412/412 159/159/159
f 412/412/412 413/413/413 173/173/173
f 173/173/173 172/172/172 412/412/412
f 151/151/151 159/159/159 412/412/412
f 412/412/412 409/409/409 151/151/151
f 225/225/225 236/236/236 138/138/138
f 224/224/224 236/236/236 225/225/225
f 236/236/236 289/289/289 290/290/290
f 227/227/227 226/226/226 231/231/231
f 226/226/226 227/227/227 228/228/228
f 452/452/452 451/451/451 462/462/462
f 389/389/389 451/451/451 452/452/452
f 462/462/462 513/513/513 514/514/514
f 116/116/116 115/115/115 117/117/117
f 115/115/115 116/116/116 113/113/113
f 113/113/113 114/114/114 115/115/115
f 117/117/117 120/120/120 116/116/116
f 132/132/132 118/118/118 117/117/117
f 119/119/119 120/120/120 117/117/117
f 117/117/117 118/118/118 119/119/119
f 116/116/116 120/120/120 233/233/233
f 233/233/233 232/232/232 116/116/116
f 113/113/113 116/116/116 232/232/232
f 232/232/232 231/231/231 113/113/113
f 227/227/227 232/232/232 233/233/233
f 231/231/231 232/232/232 227/227/227
f 138/138/138 233/233/233 120/120/120
f 120/120/120 119/119/119 138/138/138
f 119/119/119 118/118/118 134/134/134
f 134/134/134 118/118/118 132/132/132
f 236/236/236 290/290/290 138/138/138
f 190/190/190 186/186/186 189/189/189
f 187/187/187 186/186/186 190/190/190
f 188/188/188 189/189/189 186/186/186
f 186/186/186 187/187/187 188/188/188
f 189/189/189 194/194/194 190/190/190
f 190/190/190 191/191/191 187/187/187
f 192/192/192 189/189/189 188/188/188
f 194/194/194 189/189/189 192/192/192
f 198/198/198 281/281/281 188/188/188
f 188/188/188 187/187/187 198/198/198
f 195/195/195 188/188/188 281/281/281
f 188/188/188 195/195/195 192/192/192
f 197/197/197 198/198/198 187/187/187
f 392/392/392 457/457/457 459/459/459
f 455/455/455 459/459/459 457/457/457
f 395/395/395 393/393/393 392/392/392
f 457/457/457 392/392/392 391/391/391
f 391/391/391 392/392/392 393/393/393
f 463/463/463 393/393/393 395/395/395
f 404/404/404 395/395/395 398/398/398
f 404/404/404 398/398/398 134/134/134
f 404/404/404 133/133/133 143/143/143
f 143/143/143 406/406/406 404/404/404
f 134/134/134 133/133/133 404/404/404
f 143/143/143 133/133/133 132/132/132
f 132/132/132 133/133/133 134/134/134
f 406/406/406 143/143/143 142/142/142
f 132/132/132 140/140/140 143/143/143
f 142/142/142 143/143/143 140/140/140
f 142/142/142 407/407/407 406/406/406
f 140/140/140 141/141/141 142/142/142
f 176/176/176 141/141/141 177/177/177
f 208/208/208 176/176/176 178/178/178
f 177/177/177 178/178/178 176/176/176
f 178/178/178 177/177/177 214/214/214
f 215/215/215 214/214/214 177/177/177
f 214/214/214 217/217/217 178/178/178
f 221/221/221 209/209/209 178/178/178
f 178/178/178 222/222/222 221/221/221
f 178/178/178 209/209/209 208/208/208
f 420/420/420 419/419/419 208/208/208
f 208/208/208 209/209/209 420/420/420
f 420/420/420 209/209/209 221/221/221
f 221/221/221 450/450/450 420/420/420
f 450/450/450 221/221/221 220/220/220
f 220/220/220 221/221/221 222/222/222
f 222/222/222 223/223/223 220/220/220
f 220/220/220 449/449/449 450/450/450
f 448/448/448 447/447/447 449/449/449
f 449/449/449 504/504/504 448/448/448
f 447/447/447 448/448/448 445/445/445
f 420/420/420 447/447/447 444/444/444
f 431/431/431 432/432/432 430/430/430
f 430/430/430 425/425/425 431/431/431
f 426/426/426 427/427/427 424/424/424
f 424/424/424 425/425/425 426/426/426
f 429/429/429 431/431/431 425/425/425
f 425/425/425 424/424/424 429/429/429
f 429/429/429 424/424/424 427/427/427
f 197/197/197 428/428/428 427/427/427
f 427/427/427 428/428/428 429/429/429
f 485/485/485 487/487/487 472/472/472
f 485/485/485 486/486/486 487/487/487
f 479/479/479 472/472/472 487/487/487
f 472/472/472 474/474/474 484/484/484
f 472/472/472 479/479/479 473/473/473
f 472/472/472 473/473/473 474/474/474
f 488/488/488 484/484/484 474/474/474
f 481/481/481 484/484/484 488/488/488
f 489/489/489 488/488/488 474/474/474
f 474/474/474 493/493/493 489/489/489
f 481/481/481 488/488/488 489/489/489
f 482/482/482 481/481/481 490/490/490
f 489/489/489 490/490/490 481/481/481
f 493/493/493 506/506/506 489/489/489
f 489/489/489 506/506/506 490/490/490
f 500/500/500 506/506/506 493/493/493
f 493/493/493 502/502/502 500/500/500
f 498/498/498 490/490/490 506/506/506
f 246/246/246 260/260/260 259/259/259
f 259/259/259 260/260/260 261/261/261
f 253/253/253 260/260/260 246/246/246
f 246/246/246 258/258/258 247/247/247
f 246/246/246 248/248/248 253/253/253
f 246/246/246 247/247/247 248/248/248
f 264/264/264 247/247/247 258/258/258
f 255/255/255 264/264/264 258/258/258
f 263/263/263 267/267/267 247/247/247
f 247/247/247 264/264/264 263/263/263
f 263/263/263 264/264/264 255/255/255
f 262/262/262 255/255/255 257/257/257
f 255/255/255 262/262/262 263/263/263
f 267/267/267 263/263/263 282/282/282
f 263/263/263 262/262/262 282/282/282
f 275/275/275 276/276/276 267/267/267
f 267/267/267 282/282/282 275/275/275
f 273/273/273 275/275/275 282/282/282
f 158/158/158 172/172/172 173/173/173
f 156/156/156 173/173/173 413/413/413
f 162/162/162 173/173/173 156/156/156
f 173/173/173 162/162/162 158/158/158
f 413/413/413 411/411/411 156/156/156
f 156/156/156 411/411/411 410/410/410
f 410/410/410 157/157/157 156/156/156
f 156/156/156 155/155/155 162/162/162
f 156/156/156 157/157/157 154/154/154
f 154/154/154 155/155/155 156/156/156
f 162/162/162 161/161/161 159/159/159
f 159/159/159 158/158/158 162/162/162
f 162/162/162 155/155/155 160/160/160
f 160/160/160 161/161/161 162/162/162
f 160/160/160 155/155/155 154/154/154
f 160/160/160 175/175/175 410/410/410
f 410/410/410 411/411/411 160/160/160
f 413/413/413 161/161/161 160/160/160
f 230/230/230 144/144/144 1/1/1
f 1/1/1 5/5/5 230/230/230
f 1/1/1 4/4/4 6/6/6
f 6/6/6 5/5/5 1/1/1
f 2/2/2 1/1/1 144/144/144
f 3/3/3 4/4/4 1/1/1
f 1/1/1 2/2/2 3/3/3
f 230/230/230 298/298/298 294/294/294
f 294/294/294 144/144/144 230/230/230
f 298/298/298 230/230/230 40/40/40
f 40/40/40 230/230/230 5/5/5
f 5/5/5 8/8/8 40/40/40
f 7/7/7 8/8/8 5/5/5
f 296/296/296 302/302/302 297/297/297
f 145/145/145 297/297/297 384/384/384
f 297/297/297 145/145/145 144/144/144
f 297/297/297 332/332/332 384/384/384
f 302/302/302 332/332/332 297/297/297
f 144/144/144 145/145/145 2/2/2
f 384/384/384 146/146/146 145/145/145
f 105/105/105 2/2/2 145/145/145
f 145/145/145 146/146/146 105/105/105
f 146/146/146 384/384/384 383/383/383
f 383/383/383 384/384/384 332/332/332
f 332/332/332 331/331/331 383/383/383
f 332/332/332 302/302/302 327/327/327
f 373/373/373 372/372/372 374/374/374
f 371/371/371 372/372/372 373/373/373
f 369/369/369 368/368/368 371/371/371
f 371/371/371 370/370/370 369/369/369
f 372/372/372 371/371/371 368/368/368
f 390/390/390 374/374/374 372/372/372
f 368/368/368 390/390/390 372/372/372
f 374/374/374 390/390/390 454/454/454
f 453/453/453 374/374/374 454/454/454
f 452/452/452 390/390/390 389/389/389
f 389/389/389 390/390/390 368/368/368
f 368/368/368 367/367/367 389/389/389
f 368/368/368 369/369/369 366/366/366
f 366/366/366 367/367/367 368/368/368
f 135/135/135 367/367/367 366/366/366
f 389/389/389 367/367/367 135/135/135
f 366/366/366 183/183/183 135/135/135
f 135/135/135 136/136/136 389/389/389
f 111/111/111 136/136/136 135/135/135
f 389/389/389 136/136/136 137/137/137
f 137/137/137 136/136/136 111/111/111
f 138/138/138 111/111/111 225/225/225
f 224/224/224 225/225/225 111/111/111
f 111/111/111 138/138/138 137/137/137
f 405/405/405 137/137/137 139/139/139
f 137/137/137 405/405/405 389/389/389
f 139/139/139 137/137/137 138/138/138
f 462/462/462 405/405/405 513/513/513
f 128/128/128 73/73/73 352/352/352
f 352/352/352 351/351/351 128/128/128
f 66/66/66 333/333/333 352/352/352
f 352/352/352 73/73/73 66/66/66
f 347/347/347 334/334/334 333/333/333
f 347/347/347 333/333/333 66/66/66
f 344/344/344 334/334/334 347/347/347
f 66/66/66 60/60/60 347/347/347
f 344/344/344 347/347/347 60/60/60
f 66/66/66 73/73/73 68/68/68
f 68/68/68 73/73/73 128/128/128
f 351/351/351 129/129/129 128/128/128
f 128/128/128 69/69/69 68/68/68
f 71/71/71 70/70/70 79/79/79
f 70/70/70 71/71/71 72/72/72
f 71/71/71 78/78/78 77/77/77
f 78/78/78 71/71/71 79/79/79
f 72/72/72 71/71/71 77/77/77
f 355/355/355 361/361/361 353/353/353
f 353/353/353 354/354/354 355/355/355
f 355/355/355 359/359/359 360/360/360
f 360/360/360 361/361/361 355/355/355
f 354/354/354 359/359/359 355/355/355
f 218/218/218 278/278/278 223/223/223
f 223/223/223 217/217/217 218/218/218
f 216/216/216 218/218/218 217/217/217
f 217/217/217 214/214/214 216/216/216
f 214/214/214 215/215/215 216/216/216
f 238/238/238 279/279/279 278/278/278
f 278/278/278 239/239/239 238/238/238
f 237/237/237 115/115/115 238/238/238
f 238/238/238 115/115/115 114/114/114
f 114/114/114 279/279/279 238/238/238
f 237/237/237 238/238/238 239/239/239
f 239/239/239 240/240/240 237/237/237
f 237/237/237 117/117/117 115/115/115
f 327/327/327 331/331/331 332/332/332
f 383/383/383 219/219/219 146/146/146
f 106/106/106 105/105/105 146/146/146
f 146/146/146 219/219/219 106/106/106
f 2/2/2 105/105/105 41/41/41
f 41/41/41 105/105/105 106/106/106
f 9/9/9 2/2/2 41/41/41
f 3/3/3 2/2/2 9/9/9
f 106/106/106 42/42/42 41/41/41
f 41/41/41 42/42/42 33/33/33
f 33/33/33 9/9/9 41/41/41
f 3/3/3 9/9/9 33/33/33
f 4/4/4 3/3/3 34/34/34
f 33/33/33 34/34/34 3/3/3
f 4/4/4 35/35/35 229/229/229
f 34/34/34 35/35/35 4/4/4
f 30/30/30 29/29/29 32/32/32
f 32/32/32 37/37/37 30/30/30
f 36/36/36 37/37/37 32/32/32
f 38/38/38 322/322/322 321/321/321
f 299/299/299 321/321/321 324/324/324
f 323/323/323 324/324/324 321/321/321
f 321/321/321 322/322/322 323/323/323
f 299/299/299 324/324/324 325/325/325
f 300/300/300 299/299/299 325/325/325
f 298/298/298 299/299/299 300/300/300
f 325/325/325 324/324/324 323/323/323
f 323/323/323 330/330/330 325/325/325
f 325/325/325 330/330/330 329/329/329
f 329/329/329 300/300/300 325/325/325
f 301/301/301 300/300/300 329/329/329
f 300/300/300 301/301/301 298/298/298
f 294/294/294 298/298/298 301/301/301
f 301/301/301 295/295/295 294/294/294
f 295/295/295 301/301/301 456/456/456
f 329/329/329 456/456/456 301/301/301
f 144/144/144 294/294/294 297/297/297
f 296/296/296 297/297/297 294/294/294
f 294/294/294 295/295/295 296/296/296
f 456/456/456 328/328/328 295/295/295
f 295/295/295 328/328/328 326/326/326
f 326/326/326 296/296/296 295/295/295
f 327/327/327 302/302/302 296/296/296
f 296/296/296 326/326/326 327/327/327
f 5/5/5 6/6/6 7/7/7
f 229/229/229 6/6/6 4/4/4
f 6/6/6 229/229/229 36/36/36
f 36/36/36 7/7/7 6/6/6
f 32/32/32 7/7/7 36/36/36
f 7/7/7 32/32/32 8/8/8
f 8/8/8 29/29/29 28/28/28
f 8/8/8 32/32/32 29/29/29
f 8/8/8 28/28/28 39/39/39
f 39/39/39 40/40/40 8/8/8
f 40/40/40 299/299/299 298/298/298
f 299/299/299 40/40/40 39/39/39
f 39/39/39 321/321/321 299/299/299
f 321/321/321 39/39/39 38/38/38
f 38/38/38 39/39/39 28/28/28
f 28/28/28 31/31/31 38/38/38
f 30/30/30 31/31/31 28/28/28
f 28/28/28 29/29/29 30/30/30
f 86/86/86 89/89/89 135/135/135
f 135/135/135 183/183/183 86/86/86
f 88/88/88 89/89/89 86/86/86
f 86/86/86 87/87/87 88/88/88
f 135/135/135 89/89/89 111/111/111
f 111/111/111 89/89/89 88/88/88
f 93/93/93 88/88/88 87/87/87
f 95/95/95 112/112/112 88/88/88
f 88/88/88 93/93/93 95/95/95
f 88/88/88 112/112/112 111/111/111
f 87/87/87 90/90/90 93/93/93
f 94/94/94 95/95/95 93/93/93
f 93/93/93 92/92/92 94/94/94
f 445/445/445 444/444/444 447/447/447
f 444/444/444 445/445/445 446/446/446
f 444/444/444 421/421/421 420/420/420
f 446/446/446 421/421/421 444/444/444
f 421/421/421 407/407/407 419/419/419
f 419/419/419 420/420/420 421/421/421
f 466/466/466 465/465/465 504/504/504
f 504/504/504 505/505/505 466/466/466
f 463/463/463 466/466/466 393/393/393
f 466/466/466 505/505/505 394/394/394
f 394/394/394 393/393/393 466/466/466
f 465/465/465 466/466/466 463/463/463
f 463/463/463 464/464/464 465/465/465
f 61/61/61 43/43/43 45/45/45
f 43/43/43 68/68/68 48/48/48
f 68/68/68 43/43/43 66/66/66
f 66/66/66 43/43/43 61/61/61
f 48/48/48 44/44/44 43/43/43
f 43/43/43 44/44/44 45/45/45
f 52/52/52 61/61/61 45/45/45
f 61/61/61 60/60/60 66/66/66
f 60/60/60 61/61/61 52/52/52
f 52/52/52 45/45/45 46/46/46
f 44/44/44 46/46/46 45/45/45
f 47/47/47 44/44/44 48/48/48
f 46/46/46 44/44/44 47/47/47
f 187/187/187 191/191/191 197/197/197
f 198/198/198 427/427/427 426/426/426
f 426/426/426 281/281/281 198/198/198
f 427/427/427 198/198/198 197/197/197
f 433/433/433 206/206/206 281/281/281
f 281/281/281 426/426/426 433/433/433
f 281/281/281 206/206/206 195/195/195
f 196/196/196 195/195/195 206/206/206
f 193/193/193 192/192/192 195/195/195
f 195/195/195 196/196/196 193/193/193
f 192/192/192 193/193/193 194/194/194
f 206/206/206 207/207/207 196/196/196
f 434/434/434 207/207/207 206/206/206
f 206/206/206 433/433/433 434/434/434
f 430/430/430 433/433/433 426/426/426
f 432/432/432 434/434/434 433/433/433
f 433/433/433 430/430/430 432/432/432
f 426/426/426 425/425/425 430/430/430
f 92/92/92 93/93/93 90/90/90
f 112/112/112 95/95/95 97/97/97
f 97/97/97 95/95/95 94/94/94
f 97/97/97 228/228/228 112/112/112
f 111/111/111 112/112/112 224/224/224
f 228/228/228 97/97/97 226/226/226
f 94/94/94 96/96/96 97/97/97
f 94/94/94 92/92/92 280/280/280
f 280/280/280 131/131/131 94/94/94
f 96/96/96 94/94/94 131/131/131
f 280/280/280 92/92/92 373/373/373
f 373/373/373 92/92/92 371/371/371
f 92/92/92 91/91/91 370/370/370
f 370/370/370 371/371/371 92/92/92
f 90/90/90 91/91/91 92/92/92
f 373/373/373 403/403/403 280/280/280
f 375/375/375 403/403/403 373/373/373
f 374/374/374 375/375/375 373/373/373
f 104/104/104 110/110/110 235/235/235
f 103/103/103 104/104/104 24/24/24
f 234/234/234 235/235/235 110/110/110
f 103/103/103 107/107/107 110/110/110
f 110/110/110 109/109/109 234/234/234
f 109/109/109 110/110/110 107/107/107
f 107/107/107 103/103/103 102/102/102
f 24/24/24 25/25/25 103/103/103
f 102/102/102 103/103/103 25/25/25
f 107/107/107 284/284/284 288/288/288
f 288/288/288 108/108/108 107/107/107
f 102/102/102 284/284/284 107/107/107
f 107/107/107 108/108/108 109/109/109
f 108/108/108 291/291/291 109/109/109
f 291/291/291 108/108/108 288/288/288
f 288/288/288 292/292/292 291/291/291
f 25/25/25 26/26/26 102/102/102
f 21/21/21 26/26/26 25/25/25
f 25/25/25 13/13/13 21/21/21
f 14/14/14 20/20/20 13/13/13
f 20/20/20 21/21/21 13/13/13
f 13/13/13 11/11/11 14/14/14
f 461/461/461 386/386/386 382/382/382
f 317/317/317 382/382/382 380/380/380
f 386/386/386 461/461/461 460/460/460
f 386/386/386 385/385/385 380/380/380
f 460/460/460 387/387/387 386/386/386
f 385/385/385 386/386/386 387/387/387
f 381/381/381 380/380/380 385/385/385
f 380/380/380 318/318/318 317/317/317
f 318/318/318 380/380/380 381/381/381
f 385/385/385 388/388/388 512/512/512
f 512/512/512 508/508/508 385/385/385
f 385/385/385 508/508/508 381/381/381
f 387/387/387 388/388/388 385/385/385
f 388/388/388 387/387/387 515/515/515
f 512/512/512 388/388/388 515/515/515
f 515/515/515 516/516/516 512/512/512
f 381/381/381 319/319/319 318/318/318
f 314/314/314 306/306/306 318/318/318
f 318/318/318 319/319/319 314/314/314
f 307/307/307 306/306/306 313/313/313
f 313/313/313 306/306/306 314/314/314
f 306/306/306 307/307/307 305/305/305
f 468/468/468 467/467/467 476/476/476
f 467/467/467 468/468/468 469/469/469
f 468/468/468 475/475/475 481/481/481
f 481/481/481 482/482/482 468/468/468
f 482/482/482 470/470/470 468/468/468
f 475/475/475 468/468/468 476/476/476
f 468/468/468 470/470/470 469/469/469
f 485/485/485 480/480/480 476/476/476
f 475/475/475 476/476/476 480/480/480
f 480/480/480 481/481/481 475/475/475
f 472/472/472 480/480/480 485/485/485
f 480/480/480 484/484/484 481/481/481
f 484/484/484 480/480/480 472/472/472
f 243/243/243 250/250/250 241/241/241
f 241/241/241 242/242/242 243/243/243
f 243/243/243 257/257/257 255/255/255
f 255/255/255 249/249/249 243/243/243
f 257/257/257 243/243/243 244/244/244
f 249/249/249 250/250/250 243/243/243
f 243/243/243 242/242/242 244/244/244
f 259/259/259 250/250/250 254/254/254
f 249/249/249 254/254/254 250/250/250
f 254/254/254 249/249/249 255/255/255
f 259/259/259 254/254/254 246/246/246
f 254/254/254 255/255/255 258/258/258
f 258/258/258 246/246/246 254/254/254
f 304/304/304 303/303/303 312/312/312
f 303/303/303 304/304/304 305/305/305
f 318/318/318 304/304/304 311/311/311
f 318/318/318 306/306/306 304/304/304
f 311/311/311 304/304/304 312/312/312
f 304/304/304 306/306/306 305/305/305
f 376/376/376 316/316/316 312/312/312
f 311/311/311 312/312/312 316/316/316
f 311/311/311 317/317/317 318/318/318
f 316/316/316 317/317/317 311/311/311
f 308/308/308 316/316/316 376/376/376
f 316/316/316 320/320/320 317/317/317
f 320/320/320 316/316/316 308/308/308
f 12/12/12 19/19/19 10/10/10
f 10/10/10 11/11/11 12/12/12
f 18/18/18 12/12/12 25/25/25
f 25/25/25 12/12/12 13/13/13
f 18/18/18 19/19/19 12/12/12
f 12/12/12 11/11/11 13/13/13
f 98/98/98 19/19/19 23/23/23
f 18/18/18 23/23/23 19/19/19
f 25/25/25 24/24/24 18/18/18
f 23/23/23 18/18/18 24/24/24
f 98/98/98 23/23/23 15/15/15
f 23/23/23 24/24/24 27/27/27
f 27/27/27 15/15/15 23/23/23
f 339/339/339 343/343/343 358/358/358
f 358/358/358 343/343/343 356/356/356
f 356/356/356 357/357/357 358/358/358
f 160/160/160 411/411/411 413/413/413
f 154/154/154 175/175/175 160/160/160
f 159/159/159 161/161/161 413/413/413
f 158/158/158 159/159/159 151/151/151
f 151/151/151 148/148/148 158/158/158
f 152/152/152 151/151/151 409/409/409
f 148/148/148 151/151/151 152/152/152
f 152/152/152 149/149/149 148/148/148
f 152/152/152 408/408/408 153/153/153
f 409/409/409 408/408/408 152/152/152
f 152/152/152 153/153/153 149/149/149
f 149/149/149 153/153/153 150/150/150
f 408/408/408 150/150/150 153/153/153
f 410/410/410 175/175/175 174/174/174
f 174/174/174 175/175/175 154/154/154
f 174/174/174 418/418/418 410/410/410
f 410/410/410 418/418/418 417/417/417
f 166/166/166 157/157/157 410/410/410
f 410/410/410 417/417/417 166/166/166
f 154/154/154 168/168/168 174/174/174
f 154/154/154 167/167/167 168/168/168
f 166/166/166 167/167/167 154/154/154
f 154/154/154 157/157/157 166/166/166
f 69/69/69 128/128/128 129/129/129
f 423/423/423 129/129/129 351/351/351
f 69/69/69 129/129/129 185/185/185
f 185/185/185 67/67/67 69/69/69
f 68/68/68 69/69/69 67/67/67
f 67/67/67 185/185/185 184/184/184
f 60/60/60 59/59/59 344/344/344
f 52/52/52 59/59/59 60/60/60
f 59/59/59 127/127/127 341/341/341
f 341/341/341 344/344/344 59/59/59
f 59/59/59 52/52/52 51/51/51
f 51/51/51 127/127/127 59/59/59
f 344/344/344 343/343/343 339/339/339
f 343/343/343 344/344/344 341/341/341
f 341/341/341 127/127/127 180/180/180
f 180/180/180 342/342/342 341/341/341
f 341/341/341 342/342/342 343/343/343
f 180/180/180 127/127/127 51/51/51
f 51/51/51 54/54/54 180/180/180
f 53/53/53 54/54/54 51/51/51
f 51/51/51 52/52/52 53/53/53
f 52/52/52 50/50/50 53/53/53
f 50/50/50 75/75/75 53/53/53
f 74/74/74 53/53/53 75/75/75
f 75/75/75 50/50/50 80/80/80
f 125/125/125 75/75/75 80/80/80
f 126/126/126 76/76/76 75/75/75
f 75/75/75 125/125/125 126/126/126
f 75/75/75 76/76/76 74/74/74
f 126/126/126 130/130/130 74/74/74
f 74/74/74 76/76/76 126/126/126
f 126/126/126 357/357/357 356/356/356
f 356/356/356 130/130/130 126/126/126
f 126/126/126 125/125/125 358/358/358
f 358/358/358 357/357/357 126/126/126
f 125/125/125 293/293/293 362/362/362
f 362/362/362 358/358/358 125/125/125
f 80/80/80 293/293/293 125/125/125
f 358/358/358 362/362/362 339/339/339
