# dolichorhynchops reconstructed from live game memory
v 0.00001 28.42791 -56.44369
v 0.00001 29.12041 -61.78712
v 0.71751 28.68884 -61.78593
v 1.36117 26.92812 -56.44886
v 1.42309 27.27843 -61.78753
v 1.89670 25.10147 -61.82643
v 1.73598 25.16517 -56.50475
v 2.56190 28.56195 -44.87697
v 3.07478 30.20134 -42.47254
v 3.42986 30.85217 -41.30112
v 4.06282 31.74504 -41.56497
v 5.45297 30.87198 -38.71558
v 4.16948 30.15069 -39.70135
v 6.14919 26.77015 -39.01621
v 1.52762 22.25925 -62.97822
v 0.76228 20.82051 -63.27467
v 1.16792 20.40355 -61.75815
v 1.89644 22.27732 -61.74830
v 0.68423 22.19444 -63.71136
v 3.75553 20.25660 -39.45026
v 3.69646 20.43675 -34.97258
v 5.78243 23.85581 -37.64297
v 1.63663 20.23180 -49.93317
v 2.46326 22.28048 -49.80698
v 1.89464 22.36370 -56.53174
v 1.09897 20.38498 -56.63377
v 0.00001 20.75347 -63.51644
v 0.00001 19.80032 -61.75664
v 3.36012 20.44175 -43.84377
v 0.00001 18.43732 -44.36187
v 0.00000 17.78836 -39.54090
v 1.01570 27.42809 -63.24640
v 0.00001 28.41174 -63.66286
v 0.00001 26.42104 -64.19148
v 0.66670 26.43026 -63.83593
v 0.00001 25.03341 -64.08878
v 0.69903 24.99596 -63.97857
v 1.57002 25.03104 -63.29176
v 2.75125 28.66529 -43.49429
v 4.62911 25.54608 -42.49696
v 0.00000 26.07702 60.62701
v 0.00000 29.70163 51.75983
v 2.32551 25.38556 51.73147
v 1.08016 23.05217 60.65236
v 2.30609 21.37267 51.60734
v 7.24628 32.59515 -5.75986
v 2.17839 35.85772 -5.80470
v 2.05977 33.61652 -11.27117
v 6.51652 30.96778 -11.27108
v -0.00000 38.14779 -5.80470
v -0.00000 35.72209 -11.27117
v 1.86513 35.19150 28.49442
v 5.18052 31.71597 28.49400
v 4.11770 30.75180 34.93271
v 1.72873 34.05129 34.79591
v -0.00000 35.64213 34.78564
v -0.00000 37.22667 28.49442
v 12.71213 17.43865 -1.45076
v 11.75479 18.24681 0.18706
v 12.61564 20.49903 -1.66829
v 11.46484 25.35273 0.21822
v 3.50730 31.31900 -41.46973
v 3.01068 30.20115 -43.20432
v 4.40310 28.70946 -41.79133
v 4.30914 25.94363 -42.39465
v 5.40391 27.14734 -39.64976
v 4.48177 30.30371 -39.82380
v 2.83109 27.72155 -44.02274
v 14.87613 20.39719 -5.97860
v 13.27321 22.13757 -6.02685
v 11.23722 20.56636 -11.24408
v 14.38321 18.82838 -10.13640
v 25.29852 18.46238 -9.97040
v 24.67585 19.87061 -5.45150
v 15.03203 18.45244 -2.23863
v 12.61564 20.49903 -1.66829
v 18.22081 18.20095 -0.38390
v 33.06691 19.17571 -4.80517
v 33.61610 18.08396 -8.12708
v 24.52330 18.07846 -0.10168
v 38.77647 17.95682 -5.34495
v 38.93158 18.40914 -3.52008
v 40.20851 17.98836 -4.28432
v 38.69466 17.96618 -1.97827
v 32.50993 18.05699 -1.15879
v 40.81414 17.98144 -2.83542
v 12.71213 17.43865 -1.45076
v 14.57389 17.19775 -1.20953
v 13.65647 16.03653 -5.51710
v 11.28112 14.98797 -5.31590
v 17.82463 17.20640 0.62265
v 23.99023 16.11259 -4.89890
v 24.33908 17.21184 0.88980
v 32.41542 17.21970 -0.34833
v 39.10536 17.26163 -1.51005
v 39.86307 16.76982 -3.50331
v 32.99460 16.33593 -4.59173
v 41.65332 17.26876 -2.69353
v 12.71213 17.43865 -1.45076
v 14.57389 17.19775 -1.20953
v 17.82463 17.20640 0.62265
v 24.99655 17.34394 -10.71920
v 14.22569 17.44376 -10.81325
v 11.48902 17.81429 -11.27105
v 24.33908 17.21184 0.88980
v 33.73230 17.24786 -8.78255
v 40.95767 17.26351 -4.53329
v 41.65332 17.26876 -2.69353
v 32.41542 17.21970 -0.34833
v 39.10536 17.26163 -1.51005
v 11.48902 17.81429 -11.27105
v 4.74506 10.54303 -5.67798
v 11.28112 14.98797 -5.31590
v 5.10345 19.16924 41.78630
v 4.41950 27.53564 41.80941
v 11.59802 25.50953 -5.89430
v 39.21421 17.26545 -5.74763
v 4.41950 27.53564 41.80941
v 6.89081 23.34040 36.05527
v 5.10345 19.16924 41.78630
v 7.81976 19.90045 36.77892
v 4.21074 12.66394 -11.27117
v 0.00000 11.05352 -11.27117
v -0.00000 8.51074 -5.30032
v 4.83519 9.17533 0.21830
v 5.20208 9.28295 7.13550
v -0.00000 6.50272 7.13500
v -0.00000 7.85555 14.61128
v 4.74702 10.30177 14.61128
v 1.36057 31.73667 41.80888
v 0.00000 33.37000 41.80684
v 9.39612 19.75358 21.79200
v 9.13703 26.13694 21.78860
v 10.57017 25.74571 14.61128
v 10.54402 18.96617 14.61128
v 2.32161 36.41153 21.78999
v 6.57572 32.51656 21.69004
v -0.00000 38.63445 21.79009
v 3.77603 23.83140 -30.69686
v 3.97804 23.30771 -32.15764
v 2.22752 19.40537 -32.80011
v 2.19297 20.20411 -30.89256
v 8.47939 22.95854 28.49585
v 9.71629 20.02806 30.19399
v 8.83910 21.75227 34.51168
v 6.50674 16.38550 28.49586
v 3.72570 11.53916 21.79305
v -0.00000 12.04157 28.52294
v 5.59569 16.46648 34.21803
v -0.00000 13.45915 34.27261
v -0.00000 15.49207 41.82292
v 7.50371 33.17094 0.22687
v 11.12899 25.49129 7.14039
v 7.47440 33.52071 7.26419
v 7.18956 33.00094 14.60013
v 5.77984 27.41353 35.28024
v 7.62395 26.67898 28.49505
v 0.00000 30.51453 -45.67731
v 0.00000 28.97011 -48.84967
v 0.00000 32.44551 -42.65085
v 0.00000 25.50321 -48.07402
v 2.83744 25.07094 -48.34235
v 1.73598 25.16517 -56.50475
v 0.00000 25.59212 -54.06691
v 0.00000 17.75500 -35.45454
v 4.06103 24.54021 -43.89850
v 10.30465 24.69566 -11.27116
v 11.23722 20.56636 -11.24408
v 1.98790 32.63271 -16.01216
v 5.34812 29.41745 -15.87703
v 0.00000 34.52217 -16.30538
v 0.00000 33.57891 -21.25478
v 1.64651 31.91103 -21.20582
v 1.98790 32.63271 -16.01216
v 0.00000 34.52217 -16.30538
v 3.74891 28.99026 -21.15936
v 5.34812 29.41745 -15.87703
v 3.22594 28.96065 -28.61301
v 3.79450 24.41951 -28.61318
v 4.84811 24.44377 -21.11483
v 11.24694 18.25857 7.13800
v 2.47370 37.43025 14.61128
v -0.00000 39.74911 14.61128
v 1.30551 33.16814 -39.58081
v 2.01944 20.92005 -28.61726
v 2.88635 19.24697 -21.03560
v 0.00000 18.34461 -33.16931
v 0.00000 19.30257 -31.01612
v 0.00000 20.00407 -28.62161
v 3.19661 28.92093 -30.80793
v 3.69836 29.23820 -32.73587
v 7.16311 19.02941 -15.52535
v 3.76420 16.43222 -15.73728
v 7.69877 24.35004 -15.76902
v 7.69877 24.35004 -15.76902
v 0.00000 17.62540 -21.25294
v 1.36057 31.73667 41.80888
v 0.00000 33.37000 41.80684
v 9.71184 18.83680 30.26689
v 1.52762 22.25925 -62.97822
v 1.89644 22.27732 -61.74830
v 0.00001 21.11921 -61.90195
v 0.68423 22.19444 -63.71136
v 12.35848 20.54334 34.95398
v 8.83910 21.75227 34.51168
v 9.71629 20.02806 30.19399
v 13.54671 19.23137 30.88717
v 9.25165 19.41918 37.41808
v 10.67572 19.09052 39.38440
v 18.96618 20.05598 36.65432
v 20.17231 18.24529 32.63178
v 31.66530 18.00231 37.52128
v 35.28853 17.98901 40.03513
v 30.66392 19.14416 39.80686
v 35.17128 17.98430 41.47725
v 31.17319 17.37496 42.13463
v 8.15864 18.38940 34.13000
v 7.81976 19.90045 36.77892
v 9.25165 19.41918 37.41808
v 12.00201 17.54698 34.81664
v 10.67572 19.09052 39.38440
v 13.16014 18.66298 40.22738
v 31.17319 17.37496 42.13463
v 35.66025 16.99673 41.59589
v 31.32687 16.34855 39.81238
v 9.71184 18.83680 30.26689
v 13.51602 18.12687 30.81685
v 20.20958 17.23914 32.54841
v 35.73220 16.98812 40.00977
v 35.66025 16.99673 41.59589
v 18.35528 18.22023 40.81136
v 31.95722 16.98276 37.36802
v 18.79268 16.37369 36.63400
v 13.16014 18.66298 40.22738
v 18.35528 18.22023 40.81136
v 8.15864 18.38940 34.13000
v 2.70809 20.66966 -44.15707
v 4.21769 22.61320 -39.27130
v 4.43464 24.74470 -40.35027
v 2.65459 25.06991 -44.62111
v 1.16498 22.15874 -61.79812
v 1.59877 23.88413 -61.46921
v 1.50730 23.96191 -62.52186
v 0.26450 25.45224 -63.71844
v 0.80638 23.79857 -63.76662
v 1.19635 23.74846 -63.17344
v 1.13489 25.35199 -62.86417
v 1.37478 22.47756 -58.41618
v 1.73765 24.08020 -58.14061
v 1.80968 24.09266 -59.24890
v 1.15425 25.44148 -54.35529
v 1.00189 25.52184 -56.70467
v 0.92301 23.58721 -55.60152
v 1.46145 23.57005 -52.47604
v 1.68034 25.84513 -51.30489
v 1.50752 25.66129 -53.45959
v 2.08184 24.04486 -50.32851
v 2.07652 21.72139 -51.48170
v 2.07063 21.77801 -49.41902
v 1.68971 23.73599 -53.61285
v 1.48087 21.44688 -54.89629
v 1.60394 21.52633 -52.44836
v 1.71777 24.18416 -56.55509
v 1.34164 21.65620 -57.73332
v 1.47142 21.74172 -55.62636
v 1.08245 24.71772 -60.24778
v 1.42741 23.33258 -60.67087
v 1.43921 23.33245 -59.71243
v 1.01045 21.69966 -62.38435
v 1.15494 22.98958 -62.60478
v 0.93577 22.98901 -63.11637
v 0.45252 21.69850 -63.17118
v 2.02752 23.66509 -48.95461
v 2.27536 25.40593 -47.56354
v 1.94402 25.58307 -49.84679
v 0.00000 20.65984 60.57108
v 0.00000 18.09017 51.57834
v 0.00000 23.09615 66.64149
v -0.00000 15.49207 41.82292
v -0.00000 40.48409 7.13950
v 0.00000 39.94075 0.21831
v 2.36418 37.56882 0.21831
v 2.45396 38.15115 7.13970
v 0.00001 22.13317 -63.88758
v 0.00001 22.13317 -63.88758
v 0.69903 24.99596 -63.97857
v 0.00001 25.03341 -64.08878
v 0.00001 25.46391 -61.69359
v 1.57002 25.03104 -63.29176
v 0.00000 14.56226 -16.30544
v 0.00000 14.56226 -16.30544
v 3.76420 16.43222 -15.73728
v 0.00000 33.72915 -39.62079
v -0.00000 9.79061 21.79159
v 0.00000 33.68815 -35.22031
v 1.70211 32.58999 -34.96187
v 1.65900 31.75703 -31.02535
v 0.00000 32.73758 -31.20561
v 1.59976 31.30807 -28.61820
v 0.00000 32.62125 -28.62663
v 7.16311 19.02941 -15.52535
v 4.36085 29.40707 -35.42509
v 5.75023 24.89132 -34.52627
v 5.24690 23.83654 -41.35308
v 13.27321 22.13757 -6.02685
v 0.00001 19.46703 -56.72973
v 1.89464 22.36370 -56.53174
v 0.00001 21.04574 -56.48463
v 0.00001 20.82293 -49.76592
v 2.46326 22.28048 -49.80698
v 2.04173 26.93523 -48.70806
v 0.00001 19.25443 -50.50810
v 0.00001 25.57015 -58.42913
v 1.89670 25.10147 -61.82643
v 2.83744 25.07094 -48.34235
v 3.58321 22.87551 -43.76564
v 0.00000 24.61259 -43.51411
v 4.06103 24.54021 -43.89850
v 0.00000 23.74202 -41.19837
v 5.24690 23.83654 -41.35308
v 0.00000 23.74202 -41.19837
v 0.00000 22.77375 -43.35377
v 3.58321 22.87551 -43.76564
v 5.24690 23.83654 -41.35308
v 1.41941 25.60953 -61.12605
v 1.10175 25.76508 -62.45518
v 0.61644 22.14490 -63.36482
v 1.44990 25.68284 -57.71325
v 1.44138 25.70776 -59.23980
v 1.02037 21.66291 -60.95248
v 1.18778 21.66262 -59.10435
v 0.67914 23.78002 -62.90861
v 3.04421 28.92726 -41.32554
v 7.81976 19.90045 36.77892
v -0.00000 7.05368 0.21831
v -0.71750 28.68884 -61.78593
v -1.36116 26.92812 -56.44886
v -1.42308 27.27843 -61.78753
v -1.89669 25.10148 -61.82643
v -1.73597 25.16517 -56.50475
v -2.56189 28.56195 -44.87697
v -4.06282 31.74504 -41.56497
v -3.42985 30.85217 -41.30112
v -3.07477 30.20134 -42.47254
v -5.45296 30.87199 -38.71558
v -6.14918 26.77015 -39.01621
v -4.16947 30.15069 -39.70135
v -1.52760 22.25925 -62.97822
v -1.89642 22.27732 -61.74830
v -1.16790 20.40355 -61.75815
v -0.76225 20.82051 -63.27467
v -0.68421 22.19444 -63.71136
v -3.75552 20.25660 -39.45026
v -5.78243 23.85581 -37.64297
v -3.69645 20.43675 -34.97258
v -1.63662 20.23180 -49.93317
v -1.09895 20.38498 -56.63377
v -1.89462 22.36370 -56.53174
v -2.46325 22.28048 -49.80698
v -3.36011 20.44175 -43.84377
v -1.01569 27.42809 -63.24640
v -0.66669 26.43026 -63.83593
v -0.69902 24.99596 -63.97857
v -1.57001 25.03104 -63.29176
v -2.75124 28.66529 -43.49429
v -4.62910 25.54609 -42.49696
v -1.08016 23.05217 60.65236
v -2.32551 25.38556 51.73147
v -2.30609 21.37267 51.60734
v -7.24628 32.59515 -5.75986
v -6.51652 30.96778 -11.27108
v -2.05977 33.61651 -11.27117
v -2.17839 35.85772 -5.80470
v -1.86513 35.19150 28.49442
v -1.72873 34.05129 34.79591
v -4.11770 30.75180 34.93271
v -5.18052 31.71597 28.49400
v -12.71213 17.43865 -1.45076
v -12.61565 20.49903 -1.66829
v -11.75479 18.24681 0.18706
v -11.46484 25.35273 0.21822
v -3.50729 31.31900 -41.46973
v -4.40309 28.70946 -41.79133
v -3.01067 30.20115 -43.20432
v -4.30913 25.94363 -42.39465
v -5.40390 27.14734 -39.64976
v -4.48176 30.30371 -39.82380
v -2.83108 27.72155 -44.02274
v -14.87613 20.39720 -5.97860
v -14.38321 18.82838 -10.13640
v -11.23722 20.56636 -11.24409
v -13.27321 22.13757 -6.02685
v -24.67585 19.87061 -5.45150
v -25.29852 18.46239 -9.97040
v -15.03203 18.45244 -2.23863
v -12.61565 20.49903 -1.66829
v -18.22081 18.20096 -0.38390
v -33.06691 19.17571 -4.80518
v -33.61610 18.08396 -8.12708
v -24.52330 18.07846 -0.10169
v -38.93158 18.40915 -3.52008
v -38.77647 17.95683 -5.34496
v -40.20851 17.98836 -4.28432
v -32.50993 18.05699 -1.15880
v -38.69466 17.96618 -1.97828
v -40.81414 17.98145 -2.83542
v -12.71213 17.43865 -1.45076
v -11.28112 14.98797 -5.31590
v -13.65647 16.03654 -5.51710
v -14.57389 17.19775 -1.20953
v -23.99023 16.11260 -4.89890
v -17.82463 17.20640 0.62264
v -24.33907 17.21185 0.88980
v -32.41542 17.21970 -0.34833
v -32.99460 16.33593 -4.59173
v -39.86307 16.76982 -3.50332
v -39.10536 17.26164 -1.51005
v -41.65332 17.26877 -2.69354
v -12.71213 17.43865 -1.45076
v -14.57389 17.19775 -1.20953
v -17.82463 17.20640 0.62264
v -24.99655 17.34394 -10.71920
v -14.22569 17.44376 -10.81326
v -11.48902 17.81430 -11.27106
v -24.33907 17.21185 0.88980
v -33.73230 17.24786 -8.78255
v -41.65332 17.26877 -2.69354
v -40.95767 17.26351 -4.53330
v -32.41542 17.21970 -0.34833
v -39.10536 17.26164 -1.51005
v -11.48902 17.81430 -11.27106
v -11.28112 14.98797 -5.31590
v -4.74506 10.54303 -5.67799
v -5.10345 19.16924 41.78630
v -4.41950 27.53564 41.80941
v -11.59802 25.50953 -5.89430
v -39.21421 17.26545 -5.74763
v -4.41950 27.53564 41.80941
v -5.10345 19.16924 41.78630
v -6.89081 23.34040 36.05527
v -7.81976 19.90045 36.77892
v -4.21074 12.66394 -11.27117
v -4.83519 9.17533 0.21830
v -5.20208 9.28295 7.13550
v -4.74702 10.30177 14.61128
v -1.36057 31.73667 41.80888
v -9.39612 19.75358 21.79200
v -10.54402 18.96617 14.61128
v -10.57017 25.74571 14.61128
v -9.13703 26.13694 21.78860
v -2.32161 36.41153 21.78999
v -6.57572 32.51656 21.69004
v -3.77602 23.83141 -30.69686
v -2.19296 20.20411 -30.89256
v -2.22752 19.40537 -32.80011
v -3.97804 23.30771 -32.15764
v -8.83910 21.75227 34.51168
v -9.71629 20.02806 30.19399
v -8.47939 22.95854 28.49585
v -6.50675 16.38550 28.49586
v -3.72570 11.53916 21.79305
v -5.59569 16.46648 34.21803
v -7.50371 33.17094 0.22687
v -7.47440 33.52071 7.26419
v -11.12900 25.49129 7.14039
v -7.18956 33.00094 14.60013
v -5.77984 27.41353 35.28024
v -7.62395 26.67898 28.49505
v -1.73597 25.16517 -56.50475
v -2.83743 25.07094 -48.34235
v -4.06103 24.54021 -43.89850
v -11.23722 20.56636 -11.24409
v -10.30465 24.69566 -11.27117
v -5.34812 29.41745 -15.87703
v -1.98790 32.63271 -16.01216
v -1.98790 32.63271 -16.01216
v -1.64650 31.91103 -21.20582
v -5.34812 29.41745 -15.87703
v -3.74890 28.99026 -21.15936
v -3.22593 28.96065 -28.61301
v -4.84810 24.44377 -21.11483
v -3.79450 24.41951 -28.61318
v -11.24694 18.25857 7.13800
v -2.47370 37.43025 14.61128
v -1.30551 33.16814 -39.58081
v -2.01943 20.92005 -28.61726
v -2.88634 19.24697 -21.03560
v -3.19661 28.92093 -30.80793
v -3.69836 29.23820 -32.73587
v -3.76420 16.43222 -15.73728
v -7.16311 19.02941 -15.52535
v -7.69877 24.35004 -15.76902
v -7.69877 24.35004 -15.76902
v -1.36057 31.73667 41.80888
v -9.71184 18.83681 30.26689
v -1.52760 22.25925 -62.97822
v -1.89642 22.27732 -61.74830
v -0.68421 22.19444 -63.71136
v -12.35849 20.54334 34.95398
v -13.54671 19.23137 30.88717
v -9.71629 20.02806 30.19399
v -8.83910 21.75227 34.51168
v -9.25165 19.41918 37.41808
v -10.67572 19.09053 39.38440
v -18.96618 20.05599 36.65432
v -20.17231 18.24529 32.63178
v -31.66530 18.00232 37.52128
v -30.66392 19.14416 39.80686
v -35.28853 17.98901 40.03512
v -31.17319 17.37496 42.13463
v -35.17128 17.98430 41.47725
v -8.15864 18.38940 34.13000
v -12.00202 17.54698 34.81664
v -9.25165 19.41918 37.41808
v -7.81976 19.90045 36.77892
v -10.67572 19.09053 39.38440
v -13.16014 18.66298 40.22738
v -31.17319 17.37496 42.13463
v -31.32687 16.34855 39.81238
v -35.66025 16.99673 41.59588
v -13.51602 18.12687 30.81685
v -9.71184 18.83681 30.26689
v -20.20958 17.23914 32.54841
v -35.66025 16.99673 41.59588
v -35.73220 16.98812 40.00976
v -18.35528 18.22023 40.81136
v -31.95722 16.98277 37.36802
v -18.79268 16.37369 36.63400
v -13.16014 18.66298 40.22738
v -18.35528 18.22023 40.81136
v -8.15864 18.38940 34.13000
v -2.70808 20.66966 -44.15707
v -2.65459 25.06991 -44.62111
v -4.43463 24.74470 -40.35027
v -4.21768 22.61320 -39.27130
v -1.16497 22.15874 -61.79812
v -1.50729 23.96191 -62.52186
v -1.59876 23.88413 -61.46921
v -0.26448 25.45224 -63.71844
v -1.13488 25.35199 -62.86417
v -1.19634 23.74846 -63.17344
v -0.80637 23.79857 -63.76662
v -1.37477 22.47756 -58.41618
v -1.80967 24.09266 -59.24890
v -1.73764 24.08020 -58.14061
v -1.15424 25.44148 -54.35529
v -0.92300 23.58721 -55.60152
v -1.00188 25.52184 -56.70467
v -1.46144 23.57005 -52.47604
v -1.50751 25.66129 -53.45959
v -1.68033 25.84513 -51.30489
v -2.08183 24.04486 -50.32851
v -2.07062 21.77802 -49.41902
v -2.07650 21.72139 -51.48170
v -1.68970 23.73599 -53.61285
v -1.60392 21.52633 -52.44836
v -1.48085 21.44688 -54.89629
v -1.71776 24.18416 -56.55509
v -1.47140 21.74173 -55.62636
v -1.34162 21.65620 -57.73332
v -1.08243 24.71772 -60.24778
v -1.43919 23.33245 -59.71243
v -1.42739 23.33259 -60.67087
v -1.01043 21.69966 -62.38435
v -0.45250 21.69850 -63.17118
v -0.93575 22.98901 -63.11637
v -1.15492 22.98958 -62.60478
v -2.02751 23.66509 -48.95461
v -1.94401 25.58307 -49.84679
v -2.27535 25.40593 -47.56354
v -2.45396 38.15115 7.13970
v -2.36418 37.56882 0.21831
v -0.69902 24.99596 -63.97857
v -1.57001 25.03104 -63.29176
v -3.76420 16.43222 -15.73728
v -1.65900 31.75703 -31.02535
v -1.70210 32.58999 -34.96187
v -1.59976 31.30807 -28.61820
v -7.16311 19.02941 -15.52535
v -4.36085 29.40707 -35.42509
v -5.75022 24.89132 -34.52627
v -5.24689 23.83654 -41.35308
v -13.27321 22.13757 -6.02685
v -1.89462 22.36370 -56.53174
v -2.46325 22.28048 -49.80698
v -2.04172 26.93523 -48.70806
v -1.89669 25.10148 -61.82643
v -2.83743 25.07094 -48.34235
v -3.58320 22.87551 -43.76564
v -4.06103 24.54021 -43.89850
v -5.24689 23.83654 -41.35308
v -5.24689 23.83654 -41.35308
v -3.58320 22.87551 -43.76564
v -1.41940 25.60953 -61.12605
v -1.10174 25.76508 -62.45518
v -0.61643 22.14490 -63.36482
v -1.44989 25.68284 -57.71325
v -1.44137 25.70776 -59.23980
v -1.02036 21.66291 -60.95248
v -1.18776 21.66262 -59.10435
v -0.67912 23.78002 -62.90861
v -3.04420 28.92726 -41.32554
v -7.81976 19.90045 36.77892
vt 0.256207 0.872522
vt 0.166870 0.868847
vt 0.169202 0.860029
vt 0.259793 0.844646
vt 0.172388 0.838326
vt 0.173792 0.813504
vt 0.260929 0.822150
vt 0.454423 0.869474
vt 0.502559 0.868222
vt 0.516009 0.871454
vt 0.517494 0.879852
vt 0.548422 0.868330
vt 0.532509 0.864032
vt 0.542712 0.841928
vt 0.153173 0.790782
vt 0.149599 0.772243
vt 0.175326 0.773036
vt 0.174258 0.794409
vt 0.136479 0.781884
vt 0.536421 0.772544
vt 0.616697 0.778824
vt 0.571275 0.814923
vt 0.366423 0.763709
vt 0.370774 0.792559
vt 0.260215 0.793678
vt 0.258589 0.765795
vt 0.142393 0.764470
vt 0.173957 0.756575
vt 0.470930 0.775715
vt 0.461402 0.729739
vt 0.529789 0.720117
vt 0.144327 0.843614
vt 0.139302 0.856856
vt 0.122552 0.836564
vt 0.127889 0.833890
vt 0.119296 0.820699
vt 0.124150 0.818828
vt 0.145518 0.813791
vt 0.490341 0.858554
vt 0.502497 0.838533
vt 0.638374 0.175031
vt 0.777178 0.192822
vt 0.783653 0.147069
vt 0.640023 0.147023
vt 0.784633 0.112330
vt 0.827626 0.501675
vt 0.833384 0.560489
vt 0.892466 0.545091
vt 0.886587 0.491509
vt 0.834922 0.588540
vt 0.894485 0.571484
vt 0.450985 0.539918
vt 0.459178 0.490962
vt 0.387299 0.482948
vt 0.383893 0.523146
vt 0.380110 0.544661
vt 0.447374 0.564552
vt 0.778414 0.379470
vt 0.762660 0.382469
vt 0.780351 0.398660
vt 0.761366 0.435454
vt 0.148982 0.479782
vt 0.216400 0.448928
vt 0.143526 0.411233
vt 0.146070 0.347890
vt 0.062562 0.381186
vt 0.084749 0.457878
vt 0.225630 0.386823
vt 0.173163 0.123816
vt 0.160490 0.126295
vt 0.158617 0.177262
vt 0.176550 0.180222
vt 0.285349 0.159200
vt 0.275233 0.110815
vt 0.170638 0.076888
vt 0.152794 0.086140
vt 0.203686 0.056886
vt 0.365202 0.101689
vt 0.371614 0.139328
vt 0.272556 0.051240
vt 0.472291 0.114941
vt 0.474907 0.094339
vt 0.490717 0.106164
vt 0.473857 0.075173
vt 0.359790 0.059703
vt 0.498449 0.089349
vt 0.184003 0.304426
vt 0.206906 0.295889
vt 0.183945 0.256071
vt 0.159408 0.265228
vt 0.248714 0.303910
vt 0.294180 0.228825
vt 0.317972 0.283881
vt 0.400107 0.233775
vt 0.502109 0.158135
vt 0.497434 0.135350
vt 0.385896 0.191366
vt 0.518870 0.129866
vt 0.143352 0.065861
vt 0.162281 0.058853
vt 0.197693 0.040611
vt 0.283560 0.170549
vt 0.171881 0.200052
vt 0.140826 0.199389
vt 0.270828 0.035810
vt 0.373748 0.149586
vt 0.501177 0.114323
vt 0.510878 0.088340
vt 0.359682 0.045994
vt 0.480435 0.068059
vt 0.871477 0.375891
vt 0.827221 0.290933
vt 0.817853 0.367485
vt 0.948765 0.083760
vt 0.946536 0.153996
vt 0.825061 0.433192
vt 0.477711 0.121225
vt 0.314217 0.453237
vt 0.381677 0.418790
vt 0.328074 0.381141
vt 0.383281 0.398625
vt 0.887622 0.301099
vt 0.893805 0.255438
vt 0.827703 0.239224
vt 0.761760 0.282924
vt 0.686302 0.288508
vt 0.683524 0.229920
vt 0.598708 0.242530
vt 0.605084 0.295796
vt 0.308587 0.498203
vt 0.306205 0.520425
vt 0.534908 0.390925
vt 0.535414 0.438494
vt 0.611095 0.437602
vt 0.611088 0.386826
vt 0.524946 0.553447
vt 0.532238 0.498592
vt 0.521523 0.582603
vt 0.705844 0.813988
vt 0.666981 0.810025
vt 0.652383 0.762309
vt 0.693916 0.768331
vt 0.459440 0.416460
vt 0.442279 0.402551
vt 0.402536 0.404181
vt 0.453543 0.354962
vt 0.526204 0.302228
vt 0.439177 0.285540
vt 0.394678 0.353541
vt 0.383354 0.300907
vt 0.296835 0.330867
vt 0.760725 0.506350
vt 0.689492 0.436248
vt 0.687147 0.508231
vt 0.608950 0.503428
vt 0.386878 0.454095
vt 0.459195 0.447794
vt 0.434055 0.906369
vt 0.379348 0.888374
vt 0.489012 0.927969
vt 0.140084 0.965835
vt 0.144727 0.926589
vt 0.259756 0.943702
vt 0.225029 0.967119
vt 0.603519 0.721629
vt 0.473386 0.821326
vt 0.881856 0.426972
vt 0.877354 0.392994
vt 0.942175 0.534712
vt 0.938367 0.485930
vt 0.947609 0.559653
vt 0.842547 0.961079
vt 0.847764 0.929726
vt 0.920806 0.952969
vt 0.922433 0.983468
vt 0.857974 0.880228
vt 0.954536 0.887170
vt 0.751295 0.875700
vt 0.749746 0.818174
vt 0.864974 0.812490
vt 0.689183 0.382169
vt 0.604050 0.564999
vt 0.601846 0.596041
vt 0.545922 0.930943
vt 0.744930 0.768245
vt 0.859506 0.742895
vt 0.643428 0.730192
vt 0.687406 0.738305
vt 0.735823 0.738492
vt 0.701320 0.875186
vt 0.644073 0.875440
vt 0.934474 0.363386
vt 0.938512 0.313763
vt 0.968243 0.806520
vt 0.937933 0.414398
vt 0.832719 0.701729
vt 0.937527 0.203969
vt 0.933563 0.224975
vt 0.442580 0.401576
vt 0.045093 0.371404
vt 0.049860 0.352304
vt 0.018026 0.354677
vt 0.033172 0.383450
vt 0.086594 0.671295
vt 0.048548 0.674371
vt 0.049422 0.620328
vt 0.090159 0.621667
vt 0.061153 0.711937
vt 0.080270 0.725984
vt 0.158445 0.671899
vt 0.159960 0.623808
vt 0.293449 0.634131
vt 0.345255 0.641726
vt 0.290641 0.663471
vt 0.353818 0.657804
vt 0.310590 0.689801
vt 0.047498 0.566483
vt 0.048579 0.538089
vt 0.066409 0.535513
vt 0.088814 0.569799
vt 0.085876 0.518818
vt 0.116655 0.517884
vt 0.302190 0.575903
vt 0.362599 0.620423
vt 0.302829 0.604003
vt 0.051347 0.607370
vt 0.091073 0.610994
vt 0.161257 0.614285
vt 0.351596 0.631943
vt 0.363873 0.658092
vt 0.166447 0.723383
vt 0.296502 0.626583
vt 0.163268 0.572657
vt 0.111017 0.728622
vt 0.173253 0.530055
vt 0.403197 0.393411
vt 0.469373 0.611056
vt 0.582173 0.633219
vt 0.575723 0.668234
vt 0.467064 0.681508
vt 0.835594 0.668410
vt 0.785736 0.683868
vt 0.785207 0.657082
vt 0.710889 0.636860
vt 0.785239 0.657023
vt 0.785864 0.683997
vt 0.714983 0.705561
vt 0.835618 0.668335
vt 0.785892 0.683694
vt 0.785216 0.657148
vt 0.715285 0.705864
vt 0.712426 0.636736
vt 0.835066 0.668351
vt 0.835834 0.668474
vt 0.715082 0.705713
vt 0.711389 0.636534
vt 0.834273 0.668357
vt 0.715227 0.705720
vt 0.712079 0.636862
vt 0.834284 0.668374
vt 0.715236 0.705744
vt 0.712131 0.636907
vt 0.834034 0.668267
vt 0.714983 0.705626
vt 0.711441 0.637052
vt 0.834359 0.668403
vt 0.785898 0.684007
vt 0.785223 0.656998
vt 0.834141 0.668769
vt 0.785180 0.657269
vt 0.715117 0.668919
vt 0.715364 0.706186
vt 0.835914 0.668525
vt 0.715131 0.705810
vt 0.711724 0.636763
vt 0.637874 0.123678
vt 0.777043 0.073735
vt 0.562980 0.156239
vt 0.927870 0.018754
vt 0.686659 0.603682
vt 0.765727 0.600651
vt 0.764953 0.570538
vt 0.687251 0.572869
vt 0.128655 0.773173
vt 0.023344 0.387111
vt 0.369010 0.962631
vt 0.367093 0.969143
vt 0.332796 0.968813
vt 0.355847 0.950957
vt 0.948930 0.271015
vt 0.908328 0.647599
vt 0.944768 0.700532
vt 0.541892 0.951258
vt 0.518946 0.261400
vt 0.611070 0.953828
vt 0.616758 0.924355
vt 0.689550 0.918554
vt 0.681553 0.948249
vt 0.742984 0.916560
vt 0.733872 0.946691
vt 0.972668 0.754636
vt 0.610001 0.875690
vt 0.613593 0.825500
vt 0.517509 0.812646
vt 0.822886 0.404174
vt 0.255961 0.747274
vt 0.046486 0.269230
vt 0.015832 0.269132
vt 0.013089 0.162249
vt 0.049764 0.161866
vt 0.387007 0.852340
vt 0.358567 0.736146
vt 0.286487 0.967993
vt 0.334916 0.942599
vt 0.396171 0.826986
vt 0.471696 0.799975
vt 0.074670 0.963783
vt 0.081948 0.907722
vt 0.040687 0.962581
vt 0.045670 0.892817
vt 0.019668 0.023268
vt 0.018196 0.058897
vt 0.073924 0.066567
vt 0.098961 0.027813
vt 0.714948 0.705653
vt 0.710758 0.636960
vt 0.835652 0.668501
vt 0.714985 0.705803
vt 0.710927 0.636747
vt 0.715256 0.705877
vt 0.712147 0.636833
vt 0.711079 0.636315
vt 0.512931 0.859133
vt 0.045482 0.702241
vt 0.763134 0.230113
vt 0.169202 0.860029
vt 0.259793 0.844646
vt 0.172388 0.838326
vt 0.173792 0.813504
vt 0.260929 0.822150
vt 0.454423 0.869474
vt 0.517494 0.879852
vt 0.516009 0.871454
vt 0.502559 0.868222
vt 0.548422 0.868330
vt 0.542712 0.841928
vt 0.532509 0.864032
vt 0.153173 0.790782
vt 0.174258 0.794409
vt 0.175326 0.773036
vt 0.149599 0.772243
vt 0.136479 0.781884
vt 0.536421 0.772544
vt 0.571275 0.814923
vt 0.616697 0.778824
vt 0.366423 0.763709
vt 0.258589 0.765795
vt 0.260215 0.793678
vt 0.370774 0.792559
vt 0.470930 0.775715
vt 0.144327 0.843614
vt 0.127889 0.833890
vt 0.124150 0.818828
vt 0.145518 0.813791
vt 0.490341 0.858554
vt 0.502497 0.838533
vt 0.640023 0.147023
vt 0.783653 0.147069
vt 0.784633 0.112330
vt 0.827626 0.501675
vt 0.886587 0.491509
vt 0.892466 0.545091
vt 0.833384 0.560489
vt 0.450985 0.539918
vt 0.383893 0.523146
vt 0.387299 0.482948
vt 0.459178 0.490962
vt 0.778414 0.379470
vt 0.780351 0.398660
vt 0.762660 0.382469
vt 0.761366 0.435454
vt 0.148982 0.479782
vt 0.143526 0.411233
vt 0.216400 0.448928
vt 0.146070 0.347890
vt 0.062562 0.381186
vt 0.084749 0.457878
vt 0.225630 0.386823
vt 0.173163 0.123816
vt 0.176550 0.180222
vt 0.158617 0.177262
vt 0.160490 0.126295
vt 0.275233 0.110815
vt 0.285349 0.159200
vt 0.170638 0.076888
vt 0.152794 0.086140
vt 0.203686 0.056886
vt 0.365202 0.101689
vt 0.371614 0.139328
vt 0.272556 0.051240
vt 0.474907 0.094339
vt 0.472291 0.114941
vt 0.490717 0.106164
vt 0.359790 0.059703
vt 0.473857 0.075173
vt 0.498449 0.089349
vt 0.184003 0.304426
vt 0.159408 0.265228
vt 0.183945 0.256071
vt 0.206906 0.295889
vt 0.294180 0.228825
vt 0.248714 0.303910
vt 0.317972 0.283881
vt 0.400107 0.233775
vt 0.385896 0.191366
vt 0.497434 0.135350
vt 0.502109 0.158135
vt 0.518870 0.129866
vt 0.143352 0.065861
vt 0.162281 0.058853
vt 0.197693 0.040611
vt 0.283560 0.170549
vt 0.171881 0.200052
vt 0.140826 0.199389
vt 0.270828 0.035810
vt 0.373748 0.149586
vt 0.510878 0.088340
vt 0.501177 0.114323
vt 0.359682 0.045994
vt 0.480435 0.068059
vt 0.871477 0.375891
vt 0.817853 0.367485
vt 0.827221 0.290933
vt 0.948765 0.083760
vt 0.946536 0.153996
vt 0.825061 0.433192
vt 0.477711 0.121225
vt 0.314217 0.453237
vt 0.328074 0.381141
vt 0.381677 0.418790
vt 0.383281 0.398625
vt 0.887622 0.301099
vt 0.761760 0.282924
vt 0.686302 0.288508
vt 0.605084 0.295796
vt 0.308587 0.498203
vt 0.534908 0.390925
vt 0.611088 0.386826
vt 0.611095 0.437602
vt 0.535414 0.438494
vt 0.524946 0.553447
vt 0.532238 0.498592
vt 0.705844 0.813988
vt 0.693916 0.768331
vt 0.652383 0.762309
vt 0.666981 0.810025
vt 0.402536 0.404181
vt 0.442279 0.402551
vt 0.459440 0.416460
vt 0.453543 0.354962
vt 0.526204 0.302228
vt 0.394678 0.353541
vt 0.760725 0.506350
vt 0.687147 0.508231
vt 0.689492 0.436248
vt 0.608950 0.503428
vt 0.386878 0.454095
vt 0.459195 0.447794
vt 0.259756 0.943702
vt 0.144727 0.926589
vt 0.473386 0.821326
vt 0.877354 0.392994
vt 0.881856 0.426972
vt 0.938367 0.485930
vt 0.942175 0.534712
vt 0.920806 0.952969
vt 0.847764 0.929726
vt 0.954536 0.887170
vt 0.857974 0.880228
vt 0.751295 0.875700
vt 0.864974 0.812490
vt 0.749746 0.818174
vt 0.689183 0.382169
vt 0.604050 0.564999
vt 0.545922 0.930943
vt 0.744930 0.768245
vt 0.859506 0.742895
vt 0.701320 0.875186
vt 0.644073 0.875440
vt 0.938512 0.313763
vt 0.934474 0.363386
vt 0.968243 0.806520
vt 0.937933 0.414398
vt 0.937527 0.203969
vt 0.442580 0.401576
vt 0.045093 0.371404
vt 0.049860 0.352304
vt 0.033172 0.383450
vt 0.086594 0.671295
vt 0.090159 0.621667
vt 0.049422 0.620328
vt 0.048548 0.674371
vt 0.061153 0.711937
vt 0.080270 0.725984
vt 0.158445 0.671899
vt 0.159960 0.623808
vt 0.293449 0.634131
vt 0.290641 0.663471
vt 0.345255 0.641726
vt 0.310590 0.689801
vt 0.353818 0.657804
vt 0.047498 0.566483
vt 0.088814 0.569799
vt 0.066409 0.535513
vt 0.048579 0.538089
vt 0.085876 0.518818
vt 0.116655 0.517884
vt 0.302190 0.575903
vt 0.302829 0.604003
vt 0.362599 0.620423
vt 0.091073 0.610994
vt 0.051347 0.607370
vt 0.161257 0.614285
vt 0.363873 0.658092
vt 0.351596 0.631943
vt 0.166447 0.723383
vt 0.296502 0.626583
vt 0.163268 0.572657
vt 0.111017 0.728622
vt 0.173253 0.530055
vt 0.403197 0.393411
vt 0.469373 0.611056
vt 0.467064 0.681508
vt 0.575723 0.668234
vt 0.582173 0.633219
vt 0.835594 0.668410
vt 0.785207 0.657082
vt 0.785736 0.683868
vt 0.710889 0.636860
vt 0.714983 0.705561
vt 0.785864 0.683997
vt 0.785239 0.657023
vt 0.835618 0.668335
vt 0.785216 0.657148
vt 0.785892 0.683694
vt 0.715285 0.705864
vt 0.835066 0.668351
vt 0.712426 0.636736
vt 0.835834 0.668474
vt 0.711389 0.636534
vt 0.715082 0.705713
vt 0.834273 0.668357
vt 0.712079 0.636862
vt 0.715227 0.705720
vt 0.834284 0.668374
vt 0.712131 0.636907
vt 0.715236 0.705744
vt 0.834034 0.668267
vt 0.711441 0.637052
vt 0.714983 0.705626
vt 0.834359 0.668403
vt 0.785223 0.656998
vt 0.785898 0.684007
vt 0.834141 0.668769
vt 0.715364 0.706186
vt 0.715117 0.668919
vt 0.785180 0.657269
vt 0.835914 0.668525
vt 0.711724 0.636763
vt 0.715131 0.705810
vt 0.687251 0.572869
vt 0.764953 0.570538
vt 0.369010 0.962631
vt 0.355847 0.950957
vt 0.944768 0.700532
vt 0.689550 0.918554
vt 0.616758 0.924355
vt 0.742984 0.916560
vt 0.972668 0.754636
vt 0.610001 0.875690
vt 0.613593 0.825500
vt 0.517509 0.812646
vt 0.822886 0.404174
vt 0.046486 0.269230
vt 0.049764 0.161866
vt 0.387007 0.852340
vt 0.334916 0.942599
vt 0.396171 0.826986
vt 0.471696 0.799975
vt 0.081948 0.907722
vt 0.045670 0.892817
vt 0.098961 0.027813
vt 0.073924 0.066567
vt 0.714948 0.705653
vt 0.710758 0.636960
vt 0.835652 0.668501
vt 0.714985 0.705803
vt 0.710927 0.636747
vt 0.715256 0.705877
vt 0.712147 0.636833
vt 0.711079 0.636315
vt 0.512931 0.859133
vt 0.045482 0.702241
vn -0.00000 0.99611 0.08810
vn 0.00000 0.99305 -0.11770
vn 0.73900 0.66579 -0.10297
vn 0.88743 0.46093 0.00393
vn 0.94264 0.31096 -0.12140
vn 0.88522 -0.46440 -0.02668
vn 0.40016 -0.91589 -0.03180
vn 0.87753 0.35176 -0.32591
vn 0.91966 -0.39178 0.02707
vn 0.77695 -0.60645 -0.16901
vn 0.83837 0.19868 -0.50761
vn 0.87934 0.46796 -0.08820
vn 0.73423 -0.18903 -0.65205
vn 0.94115 0.16427 -0.29539
vn 0.80179 0.40420 -0.44017
vn 0.54839 -0.56395 -0.61744
vn 0.75004 -0.63769 -0.17546
vn 0.94039 0.33406 -0.06378
vn 0.30604 0.47147 -0.82708
vn 0.74732 -0.66312 -0.04214
vn 0.79301 -0.58736 0.16170
vn 0.97596 -0.21388 0.04179
vn 0.76292 -0.63467 -0.12310
vn 0.65481 0.69689 -0.29253
vn 0.26212 0.96440 -0.03498
vn 0.79659 -0.60398 -0.02548
vn 0.00000 -0.51330 -0.85821
vn 0.00000 -0.94778 -0.31892
vn 0.81460 -0.53814 -0.21642
vn -0.00000 -0.99087 -0.13479
vn -0.00000 -0.99669 -0.08134
vn 0.74965 0.35211 -0.56039
vn 0.00000 0.73792 -0.67489
vn 0.00000 0.19003 -0.98178
vn 0.48969 0.13178 -0.86188
vn 0.00000 -0.48898 -0.87229
vn 0.25526 -0.75439 -0.60476
vn 0.81117 -0.34978 -0.46868
vn 0.97216 0.18019 -0.14977
vn 0.88067 0.30078 -0.36600
vn 0.00000 0.89259 0.45086
vn 0.00000 0.92603 0.37745
vn 0.93397 0.27652 0.22637
vn 0.98189 -0.03514 0.18615
vn 0.91854 -0.32063 0.23126
vn 0.69226 0.68267 -0.23397
vn 0.64217 0.72799 -0.24008
vn 0.60296 0.76035 -0.24147
vn 0.69991 0.63050 -0.33555
vn -0.00000 0.93791 -0.34687
vn -0.00000 0.93795 -0.34677
vn 0.72535 0.66791 0.16662
vn 0.80428 0.55767 0.20527
vn 0.81956 0.53778 0.19776
vn 0.73514 0.64885 0.19638
vn -0.00000 0.96815 0.25037
vn 0.00000 0.97268 0.23216
vn 0.56888 -0.52220 0.63536
vn 0.90863 -0.20601 0.36325
vn 0.83848 0.27361 0.47126
vn 0.97113 0.20908 0.11489
vn 0.85740 0.34175 -0.38479
vn 0.80711 0.24425 -0.53751
vn 0.87047 0.21124 -0.44458
vn 0.86184 0.07997 -0.50083
vn 0.93375 0.15776 -0.32129
vn 0.91126 0.30140 -0.28065
vn 0.78410 0.12527 -0.60786
vn 0.38758 0.91297 -0.12756
vn 0.80018 0.59958 0.01501
vn 0.71850 0.35860 -0.59595
vn 0.24014 0.66117 -0.71077
vn 0.11051 0.82663 -0.55180
vn 0.03252 0.99048 0.13376
vn 0.20660 0.75583 0.62132
vn 0.83848 0.27361 0.47126
vn -0.15507 0.83836 0.52260
vn 0.09057 0.99455 0.05166
vn 0.21727 0.85166 -0.47694
vn 0.03719 0.84174 0.53861
vn 0.32024 0.79075 -0.52170
vn 0.16127 0.98549 -0.05299
vn 0.45010 0.81421 -0.36671
vn 0.13037 0.83239 0.53864
vn 0.07713 0.84642 0.52690
vn 0.37552 0.87132 0.31589
vn 0.56888 -0.52220 0.63536
vn -0.30922 -0.28899 0.90602
vn 0.07700 -0.99662 -0.02877
vn 0.48617 -0.87377 -0.01284
vn -0.19619 0.09946 0.97551
vn 0.00224 -0.99672 0.08091
vn 0.05471 -0.26717 0.96209
vn 0.14170 -0.29956 0.94350
vn 0.32168 -0.03825 0.94607
vn 0.13965 -0.99014 -0.01128
vn 0.04187 -0.99836 -0.03894
vn 0.97946 0.05488 0.19404
vn 0.56888 -0.52220 0.63536
vn -0.30922 -0.28899 0.90602
vn -0.19619 0.09946 0.97551
vn 0.07447 -0.57102 -0.81755
vn 0.16283 -0.32475 -0.93168
vn 0.50884 -0.58890 -0.62792
vn 0.05471 -0.26717 0.96209
vn 0.36160 -0.13884 -0.92194
vn 0.76023 -0.24168 -0.60303
vn 0.97946 0.05488 0.19404
vn 0.14170 -0.29956 0.94350
vn 0.32168 -0.03825 0.94607
vn 0.50884 -0.58890 -0.62792
vn 0.52184 -0.83042 -0.19515
vn 0.48617 -0.87377 -0.01284
vn 0.83773 -0.41939 0.34975
vn 0.90377 0.34855 0.24843
vn 0.90779 0.40604 -0.10510
vn 0.54350 0.01003 -0.83935
vn 0.90377 0.34855 0.24843
vn 0.87800 0.39863 0.26497
vn 0.83773 -0.41939 0.34975
vn 0.60493 0.05070 0.79466
vn 0.39773 -0.78839 -0.46931
vn 0.00000 -0.83724 -0.54683
vn 0.00000 -0.94827 -0.31747
vn 0.61146 -0.79121 -0.01014
vn 0.66629 -0.74042 0.08852
vn -0.00000 -0.99962 0.02758
vn -0.00000 -0.97948 0.20153
vn 0.60960 -0.76926 0.19139
vn 0.78484 0.57134 0.23998
vn 0.00000 0.94092 0.33863
vn 0.95790 -0.23029 0.17144
vn 0.94708 0.27324 0.16847
vn 0.96832 0.21916 0.11972
vn 0.93315 -0.32836 0.14635
vn 0.69138 0.70499 0.15804
vn 0.78667 0.59633 0.15978
vn 0.00000 0.98491 0.17304
vn 0.96912 -0.21017 0.12895
vn 0.92153 -0.17556 0.34635
vn 0.69149 -0.67709 0.25178
vn 0.66566 -0.69232 0.27855
vn 0.99069 0.12176 0.06083
vn 0.55583 0.47237 -0.68405
vn 0.41481 0.85612 0.30823
vn 0.74910 -0.65715 -0.08369
vn 0.65211 -0.72338 0.22689
vn -0.00000 -0.94665 0.32228
vn 0.53721 -0.82038 0.19593
vn -0.00000 -0.97021 0.24228
vn -0.00000 -0.96597 0.25867
vn 0.78769 0.61317 -0.05970
vn 0.97353 0.22326 0.04888
vn 0.80560 0.59232 0.01277
vn 0.81009 0.57791 0.09890
vn 0.91884 0.34331 0.19461
vn 0.91435 0.35201 0.20013
vn 0.00000 0.87243 -0.48874
vn 0.00000 0.95791 -0.28707
vn 0.00000 0.85717 -0.51504
vn 0.00000 -0.99761 -0.06908
vn 0.75773 -0.62240 -0.19613
vn 0.40016 -0.91589 -0.03180
vn 0.00000 -0.99999 -0.00487
vn -0.00000 -0.99663 0.08201
vn 0.77232 -0.46914 -0.42828
vn 0.85267 0.37912 -0.35947
vn 0.71850 0.35860 -0.59595
vn 0.65992 0.72619 -0.19275
vn 0.80556 0.49701 -0.32259
vn -0.00000 0.97727 -0.21199
vn 0.00000 0.98495 -0.17283
vn 0.72688 0.67421 -0.13070
vn 0.65992 0.72619 -0.19275
vn -0.00000 0.97727 -0.21199
vn 0.88275 0.44319 -0.15601
vn 0.80556 0.49701 -0.32259
vn 0.93350 0.35729 -0.03037
vn 0.98652 -0.16367 -0.00103
vn 0.95098 -0.03333 -0.30745
vn 0.95517 -0.28898 0.06440
vn 0.68095 0.72565 0.09871
vn -0.00000 0.99335 0.11510
vn 0.42596 0.90061 -0.08640
vn 0.70028 -0.71270 0.04087
vn 0.60495 -0.68593 -0.40440
vn -0.00000 -0.93635 0.35106
vn -0.00000 -0.94084 0.33886
vn -0.00000 -0.99534 -0.09641
vn 0.96707 0.23467 0.09856
vn 0.87455 0.37200 0.31108
vn 0.70158 -0.37163 -0.60801
vn 0.44869 -0.69546 -0.56126
vn 0.83374 0.18776 -0.51926
vn 0.83374 0.18776 -0.51926
vn 0.00000 -0.90715 -0.42081
vn 0.78484 0.57134 0.23998
vn 0.00000 0.94092 0.33863
vn 0.33549 -0.82866 -0.44807
vn 0.80179 0.40420 -0.44017
vn 0.94039 0.33406 -0.06378
vn -0.00000 0.97580 0.21867
vn 0.30604 0.47147 -0.82708
vn 0.12416 0.98578 0.11323
vn 0.41481 0.85612 0.30823
vn 0.55583 0.47237 -0.68405
vn 0.26396 0.60370 -0.75224
vn -0.41741 -0.02370 0.90841
vn -0.60796 0.06184 0.79156
vn 0.07214 0.98959 0.12453
vn 0.28429 0.67348 -0.68235
vn 0.38881 0.54282 -0.74443
vn 0.67273 0.64908 -0.35515
vn 0.13264 0.99069 0.03063
vn 0.39095 0.75381 0.52813
vn -0.03007 0.24032 0.97023
vn 0.21844 -0.93439 0.28144
vn 0.60493 0.05070 0.79466
vn -0.41741 -0.02370 0.90841
vn -0.22708 -0.96827 0.10430
vn -0.60796 0.06184 0.79156
vn -0.15923 0.49315 0.85524
vn -0.03007 0.24032 0.97023
vn 0.76349 -0.32327 0.55909
vn 0.02089 -0.99101 0.13215
vn 0.33549 -0.82866 -0.44807
vn 0.05205 -0.62720 -0.77711
vn 0.27755 -0.32159 -0.90529
vn 0.73988 -0.54094 -0.39995
vn 0.76349 -0.32327 0.55909
vn -0.17548 -0.63703 0.75060
vn 0.41827 -0.51365 -0.74915
vn -0.07496 -0.99709 -0.01379
vn -0.15923 0.49315 0.85524
vn -0.17548 -0.63703 0.75060
vn 0.21844 -0.93439 0.28144
vn 0.94584 -0.11833 -0.30231
vn 0.95514 -0.20527 -0.21346
vn 0.94584 -0.11833 -0.30231
vn 0.92183 -0.02955 -0.38646
vn 0.96925 -0.22447 -0.10081
vn 0.99445 -0.05390 -0.09040
vn 0.99083 0.03939 -0.12928
vn 0.76251 0.22274 -0.60743
vn 0.83636 0.02865 -0.54743
vn 0.79530 0.07421 -0.60165
vn 0.70071 0.16091 -0.69506
vn 0.97123 -0.23032 0.06054
vn 0.99727 -0.03620 0.06441
vn 0.99777 0.05151 0.04239
vn 0.99462 -0.07887 -0.06720
vn 0.99462 -0.07887 -0.06720
vn 0.99462 -0.07887 -0.06720
vn 0.99554 -0.05719 -0.07497
vn 0.99554 -0.05719 -0.07497
vn 0.99554 -0.05719 -0.07497
vn 0.99999 -0.00376 0.00296
vn 0.99999 -0.00376 0.00296
vn 0.99999 -0.00376 0.00296
vn 0.99679 -0.06401 -0.04804
vn 0.99679 -0.06401 -0.04804
vn 0.99679 -0.06401 -0.04804
vn 0.99103 -0.12130 -0.05612
vn 0.99103 -0.12130 -0.05612
vn 0.99103 -0.12130 -0.05612
vn 0.96943 0.24507 -0.01190
vn 0.99991 0.00523 -0.01231
vn 0.99758 -0.05795 -0.03848
vn 0.85159 -0.22065 -0.47552
vn 0.91393 0.10648 -0.39166
vn 0.88880 -0.02291 -0.45772
vn 0.78551 -0.27051 -0.55660
vn 0.98906 -0.02459 -0.14544
vn 0.98906 -0.02459 -0.14544
vn 0.98906 -0.02459 -0.14544
vn 0.00000 -0.93556 0.35316
vn -0.00000 -0.93630 0.35121
vn 0.00000 -0.22911 0.97340
vn -0.00000 -0.96597 0.25867
vn 0.00000 0.99969 -0.02508
vn 0.00000 0.97481 -0.22304
vn 0.67684 0.72736 -0.11328
vn 0.68356 0.72949 0.02438
vn 0.00000 0.78879 -0.61467
vn 0.00000 0.78879 -0.61467
vn 0.25526 -0.75439 -0.60476
vn 0.00000 -0.48898 -0.87229
vn -0.00000 -0.99536 0.09627
vn 0.81117 -0.34978 -0.46868
vn 0.00000 -0.83920 -0.54383
vn 0.00000 -0.83920 -0.54383
vn 0.44869 -0.69546 -0.56126
vn 0.00000 0.98075 -0.19524
vn 0.00000 -0.96279 0.27024
vn 0.00000 0.99150 0.13010
vn 0.65343 0.73138 0.19522
vn 0.71186 0.68380 0.16025
vn -0.00000 0.98672 0.16240
vn 0.71409 0.69957 0.02599
vn 0.00000 0.99851 -0.05460
vn 0.70158 -0.37163 -0.60801
vn 0.89850 0.33677 0.28158
vn 0.95809 -0.03117 0.28475
vn 0.84841 -0.31295 -0.42693
vn 0.80018 0.59958 0.01501
vn -0.00000 -0.99947 -0.03268
vn 0.26212 0.96440 -0.03498
vn -0.00000 0.99973 0.02336
vn 0.00000 0.99766 -0.06831
vn 0.65481 0.69689 -0.29253
vn 0.87797 0.44052 -0.18737
vn -0.00000 -0.99672 -0.08098
vn 0.00000 -0.99982 0.01874
vn 0.88522 -0.46440 -0.02668
vn 0.75773 -0.62240 -0.19613
vn 0.47249 0.76074 -0.44500
vn 0.00000 -0.96431 -0.26476
vn 0.77232 -0.46914 -0.42828
vn -0.00000 0.63203 -0.77495
vn 0.84841 -0.31295 -0.42693
vn -0.00000 0.63203 -0.77495
vn 0.00000 0.96421 -0.26515
vn 0.47249 0.76074 -0.44500
vn 0.84841 -0.31295 -0.42693
vn 0.97530 0.17074 -0.14013
vn 0.95389 0.22201 -0.20200
vn 0.80516 -0.22573 -0.54842
vn 0.98106 0.19103 0.03204
vn 0.97497 0.22234 -0.00181
vn 0.97691 -0.20761 -0.05044
vn 0.97968 -0.17984 -0.08877
vn 0.85280 0.37276 -0.36577
vn 0.91481 0.13470 -0.38077
vn 0.60493 0.05070 0.79466
vn -0.00000 -0.98575 -0.16822
vn -0.73900 0.66579 -0.10297
vn -0.88743 0.46093 0.00393
vn -0.94264 0.31096 -0.12140
vn -0.88523 -0.46440 -0.02668
vn -0.40016 -0.91589 -0.03180
vn -0.87753 0.35176 -0.32591
vn -0.83837 0.19868 -0.50761
vn -0.77695 -0.60645 -0.16901
vn -0.91966 -0.39178 0.02707
vn -0.87934 0.46796 -0.08820
vn -0.94115 0.16427 -0.29539
vn -0.73423 -0.18903 -0.65206
vn -0.80179 0.40420 -0.44017
vn -0.94039 0.33406 -0.06378
vn -0.75004 -0.63769 -0.17546
vn -0.54839 -0.56395 -0.61744
vn -0.30604 0.47147 -0.82708
vn -0.74732 -0.66312 -0.04214
vn -0.97596 -0.21388 0.04179
vn -0.79301 -0.58736 0.16170
vn -0.76292 -0.63467 -0.12310
vn -0.79659 -0.60398 -0.02548
vn -0.26212 0.96440 -0.03498
vn -0.65481 0.69689 -0.29253
vn -0.81460 -0.53814 -0.21642
vn -0.74965 0.35211 -0.56039
vn -0.48969 0.13178 -0.86188
vn -0.25526 -0.75439 -0.60476
vn -0.81117 -0.34978 -0.46868
vn -0.97216 0.18019 -0.14977
vn -0.88067 0.30078 -0.36601
vn -0.98189 -0.03514 0.18615
vn -0.93397 0.27652 0.22637
vn -0.91854 -0.32063 0.23126
vn -0.69226 0.68267 -0.23397
vn -0.69991 0.63050 -0.33555
vn -0.60296 0.76035 -0.24147
vn -0.64217 0.72799 -0.24008
vn -0.72535 0.66791 0.16662
vn -0.73514 0.64885 0.19638
vn -0.81956 0.53778 0.19776
vn -0.80428 0.55767 0.20527
vn -0.56888 -0.52220 0.63536
vn -0.83848 0.27361 0.47126
vn -0.90863 -0.20601 0.36325
vn -0.97113 0.20908 0.11489
vn -0.85740 0.34175 -0.38479
vn -0.87047 0.21124 -0.44458
vn -0.80711 0.24425 -0.53751
vn -0.86184 0.07997 -0.50084
vn -0.93375 0.15776 -0.32129
vn -0.91126 0.30140 -0.28065
vn -0.78410 0.12527 -0.60786
vn -0.38758 0.91297 -0.12756
vn -0.24014 0.66117 -0.71077
vn -0.71850 0.35860 -0.59595
vn -0.80018 0.59958 0.01501
vn -0.03252 0.99048 0.13376
vn -0.11051 0.82663 -0.55180
vn -0.20660 0.75583 0.62132
vn -0.83848 0.27361 0.47126
vn 0.15507 0.83836 0.52260
vn -0.09057 0.99455 0.05166
vn -0.21727 0.85166 -0.47694
vn -0.03719 0.84174 0.53861
vn -0.16127 0.98549 -0.05299
vn -0.32024 0.79075 -0.52170
vn -0.45010 0.81421 -0.36671
vn -0.07713 0.84642 0.52690
vn -0.13037 0.83239 0.53864
vn -0.37552 0.87132 0.31589
vn -0.56888 -0.52220 0.63536
vn -0.48617 -0.87377 -0.01284
vn -0.07700 -0.99662 -0.02877
vn 0.30922 -0.28899 0.90602
vn -0.00224 -0.99672 0.08091
vn 0.19619 0.09946 0.97551
vn -0.05471 -0.26717 0.96209
vn -0.14170 -0.29956 0.94350
vn -0.04187 -0.99836 -0.03894
vn -0.13965 -0.99014 -0.01128
vn -0.32168 -0.03825 0.94607
vn -0.97946 0.05488 0.19404
vn -0.56888 -0.52220 0.63536
vn 0.30922 -0.28899 0.90602
vn 0.19619 0.09946 0.97551
vn -0.07447 -0.57102 -0.81755
vn -0.16283 -0.32475 -0.93168
vn -0.50884 -0.58890 -0.62792
vn -0.05471 -0.26717 0.96209
vn -0.36160 -0.13884 -0.92194
vn -0.97946 0.05488 0.19404
vn -0.76023 -0.24168 -0.60303
vn -0.14170 -0.29956 0.94350
vn -0.32168 -0.03825 0.94607
vn -0.50884 -0.58890 -0.62792
vn -0.48617 -0.87377 -0.01284
vn -0.52184 -0.83042 -0.19515
vn -0.83773 -0.41939 0.34975
vn -0.90377 0.34855 0.24843
vn -0.90779 0.40604 -0.10510
vn -0.54350 0.01003 -0.83935
vn -0.90377 0.34855 0.24843
vn -0.83773 -0.41939 0.34975
vn -0.87800 0.39863 0.26497
vn -0.60493 0.05070 0.79466
vn -0.39773 -0.78839 -0.46931
vn -0.61146 -0.79121 -0.01014
vn -0.66629 -0.74042 0.08852
vn -0.60960 -0.76926 0.19139
vn -0.78484 0.57134 0.23998
vn -0.95790 -0.23029 0.17144
vn -0.93315 -0.32836 0.14635
vn -0.96832 0.21916 0.11972
vn -0.94708 0.27324 0.16847
vn -0.69138 0.70499 0.15804
vn -0.78667 0.59633 0.15978
vn -0.96912 -0.21017 0.12895
vn -0.66566 -0.69232 0.27855
vn -0.69149 -0.67709 0.25178
vn -0.92153 -0.17556 0.34635
vn -0.41481 0.85612 0.30823
vn -0.55583 0.47237 -0.68405
vn -0.99069 0.12176 0.06083
vn -0.74910 -0.65715 -0.08369
vn -0.65211 -0.72338 0.22689
vn -0.53721 -0.82038 0.19593
vn -0.78769 0.61317 -0.05970
vn -0.80560 0.59232 0.01277
vn -0.97353 0.22326 0.04888
vn -0.81009 0.57791 0.09890
vn -0.91884 0.34331 0.19461
vn -0.91435 0.35201 0.20013
vn -0.40016 -0.91589 -0.03180
vn -0.75773 -0.62240 -0.19613
vn -0.77232 -0.46914 -0.42828
vn -0.71850 0.35860 -0.59595
vn -0.85267 0.37912 -0.35947
vn -0.80556 0.49701 -0.32259
vn -0.65992 0.72619 -0.19275
vn -0.65992 0.72619 -0.19275
vn -0.72688 0.67421 -0.13070
vn -0.80556 0.49701 -0.32259
vn -0.88275 0.44319 -0.15601
vn -0.93350 0.35729 -0.03037
vn -0.95098 -0.03333 -0.30745
vn -0.98652 -0.16367 -0.00103
vn -0.95517 -0.28898 0.06440
vn -0.68095 0.72565 0.09871
vn -0.42596 0.90061 -0.08640
vn -0.70028 -0.71270 0.04087
vn -0.60495 -0.68593 -0.40440
vn -0.96707 0.23467 0.09856
vn -0.87455 0.37200 0.31108
vn -0.44869 -0.69546 -0.56126
vn -0.70158 -0.37163 -0.60801
vn -0.83374 0.18776 -0.51926
vn -0.83374 0.18776 -0.51926
vn -0.78484 0.57134 0.23998
vn -0.33549 -0.82866 -0.44807
vn -0.80179 0.40420 -0.44017
vn -0.94039 0.33406 -0.06378
vn -0.30604 0.47147 -0.82708
vn -0.12416 0.98578 0.11323
vn -0.26396 0.60370 -0.75224
vn -0.55583 0.47237 -0.68405
vn -0.41481 0.85612 0.30823
vn 0.41741 -0.02370 0.90841
vn 0.60796 0.06184 0.79156
vn -0.07214 0.98959 0.12453
vn -0.28429 0.67348 -0.68235
vn -0.38881 0.54282 -0.74443
vn -0.13264 0.99069 0.03063
vn -0.67273 0.64908 -0.35515
vn 0.03007 0.24032 0.97023
vn -0.39095 0.75381 0.52813
vn -0.21844 -0.93439 0.28144
vn 0.22708 -0.96827 0.10430
vn 0.41741 -0.02370 0.90841
vn -0.60493 0.05070 0.79466
vn 0.60796 0.06184 0.79156
vn 0.15923 0.49315 0.85525
vn 0.03007 0.24032 0.97023
vn -0.02089 -0.99101 0.13215
vn -0.76349 -0.32327 0.55909
vn -0.05205 -0.62720 -0.77711
vn -0.33549 -0.82866 -0.44807
vn -0.27755 -0.32159 -0.90529
vn -0.76349 -0.32327 0.55909
vn -0.73988 -0.54094 -0.39995
vn 0.17548 -0.63703 0.75060
vn -0.41827 -0.51365 -0.74915
vn 0.07496 -0.99709 -0.01379
vn 0.15923 0.49315 0.85525
vn 0.17548 -0.63703 0.75060
vn -0.21844 -0.93439 0.28144
vn -0.94584 -0.11833 -0.30231
vn -0.92183 -0.02955 -0.38646
vn -0.94584 -0.11833 -0.30231
vn -0.95514 -0.20527 -0.21346
vn -0.96925 -0.22447 -0.10081
vn -0.99083 0.03939 -0.12928
vn -0.99445 -0.05390 -0.09040
vn -0.76251 0.22274 -0.60743
vn -0.70071 0.16091 -0.69506
vn -0.79530 0.07421 -0.60165
vn -0.83636 0.02865 -0.54743
vn -0.97123 -0.23031 0.06054
vn -0.99777 0.05151 0.04239
vn -0.99727 -0.03620 0.06441
vn -0.99462 -0.07887 -0.06720
vn -0.99462 -0.07887 -0.06720
vn -0.99462 -0.07887 -0.06720
vn -0.99554 -0.05719 -0.07497
vn -0.99554 -0.05719 -0.07497
vn -0.99554 -0.05719 -0.07497
vn -0.99999 -0.00376 0.00296
vn -0.99999 -0.00376 0.00296
vn -0.99999 -0.00376 0.00296
vn -0.99679 -0.06401 -0.04804
vn -0.99679 -0.06401 -0.04804
vn -0.99679 -0.06401 -0.04804
vn -0.99103 -0.12130 -0.05612
vn -0.99103 -0.12130 -0.05612
vn -0.99103 -0.12130 -0.05612
vn -0.96943 0.24507 -0.01190
vn -0.99758 -0.05795 -0.03848
vn -0.99991 0.00523 -0.01231
vn -0.85159 -0.22065 -0.47552
vn -0.78551 -0.27051 -0.55660
vn -0.88880 -0.02291 -0.45772
vn -0.91393 0.10648 -0.39166
vn -0.98906 -0.02459 -0.14544
vn -0.98906 -0.02459 -0.14544
vn -0.98906 -0.02459 -0.14544
vn -0.68356 0.72949 0.02438
vn -0.67684 0.72736 -0.11328
vn -0.25526 -0.75439 -0.60476
vn -0.81117 -0.34978 -0.46868
vn -0.44869 -0.69546 -0.56126
vn -0.71186 0.68380 0.16025
vn -0.65343 0.73138 0.19522
vn -0.71409 0.69957 0.02599
vn -0.70158 -0.37163 -0.60801
vn -0.89850 0.33677 0.28158
vn -0.95809 -0.03117 0.28475
vn -0.84841 -0.31295 -0.42693
vn -0.80018 0.59958 0.01501
vn -0.26212 0.96440 -0.03498
vn -0.65481 0.69689 -0.29253
vn -0.87797 0.44052 -0.18737
vn -0.88523 -0.46440 -0.02668
vn -0.75773 -0.62240 -0.19613
vn -0.47249 0.76074 -0.44500
vn -0.77232 -0.46914 -0.42828
vn -0.84841 -0.31295 -0.42693
vn -0.84841 -0.31295 -0.42693
vn -0.47249 0.76074 -0.44500
vn -0.97530 0.17074 -0.14013
vn -0.95389 0.22201 -0.20200
vn -0.80516 -0.22573 -0.54841
vn -0.98106 0.19103 0.03204
vn -0.97497 0.22234 -0.00181
vn -0.97691 -0.20761 -0.05044
vn -0.97968 -0.17984 -0.08877
vn -0.85280 0.37276 -0.36577
vn -0.91481 0.13470 -0.38077
vn -0.60493 0.05070 0.79466
f 203/203/203 200/200/200 202/202/202
f 200/200/200 201/201/201 202/202/202
f 285/285/285 203/203/203 202/202/202
f 285/285/285 202/202/202 498/498/498
f 202/202/202 308/308/308 584/584/584
f 584/584/584 497/497/497 202/202/202
f 498/498/498 202/202/202 496/496/496
f 496/496/496 202/202/202 497/497/497
f 202/202/202 201/201/201 307/307/307
f 307/307/307 308/308/308 202/202/202
f 453/453/453 454/454/454 455/455/455
f 188/188/188 454/454/454 486/486/486
f 454/454/454 188/188/188 187/187/187
f 187/187/187 455/455/455 454/454/454
f 189/189/189 486/486/486 487/487/487
f 486/486/486 189/189/189 188/188/188
f 481/481/481 487/487/487 486/486/486
f 185/185/185 142/142/142 188/188/188
f 188/188/188 189/189/189 185/185/185
f 187/187/187 188/188/188 142/142/142
f 165/165/165 455/455/455 187/187/187
f 165/165/165 187/187/187 141/141/141
f 142/142/142 141/141/141 187/187/187
f 179/179/179 139/139/139 142/142/142
f 142/142/142 185/185/185 179/179/179
f 400/400/400 397/397/397 421/421/421
f 421/421/421 425/425/425 400/400/400
f 420/420/420 421/421/421 397/397/397
f 397/397/397 395/395/395 420/420/420
f 419/419/419 420/420/420 395/395/395
f 395/395/395 396/396/396 419/419/419
f 392/392/392 396/396/396 395/395/395
f 320/320/320 318/318/318 317/317/317
f 317/317/317 319/319/319 320/320/320
f 163/163/163 313/313/313 164/164/164
f 163/163/163 314/314/314 288/288/288
f 288/288/288 313/313/313 163/163/163
f 469/469/469 164/164/164 313/313/313
f 469/469/469 313/313/313 288/288/288
f 288/288/288 587/587/587 469/469/469
f 288/288/288 574/574/574 587/587/587
f 288/288/288 287/287/287 573/573/573
f 573/573/573 574/574/574 288/288/288
f 288/288/288 314/314/314 289/289/289
f 288/288/288 289/289/289 286/286/286
f 286/286/286 287/287/287 288/288/288
f 75/75/75 76/76/76 70/70/70
f 80/80/80 74/74/74 78/78/78
f 80/80/80 77/77/77 74/74/74
f 78/78/78 74/74/74 73/73/73
f 101/101/101 77/77/77 80/80/80
f 77/77/77 101/101/101 100/100/100
f 78/78/78 85/85/85 80/80/80
f 109/109/109 105/105/105 80/80/80
f 80/80/80 85/85/85 109/109/109
f 80/80/80 105/105/105 101/101/101
f 84/84/84 85/85/85 78/78/78
f 78/78/78 82/82/82 84/84/84
f 82/82/82 78/78/78 79/79/79
f 73/73/73 79/79/79 78/78/78
f 109/109/109 85/85/85 84/84/84
f 84/84/84 110/110/110 109/109/109
f 110/110/110 84/84/84 86/86/86
f 82/82/82 86/86/86 84/84/84
f 503/503/503 499/499/499 502/502/502
f 529/529/529 499/499/499 504/504/504
f 505/505/505 499/499/499 529/529/529
f 500/500/500 499/499/499 505/505/505
f 503/503/503 504/504/504 499/499/499
f 501/501/501 502/502/502 499/499/499
f 499/499/499 500/500/500 501/501/501
f 502/502/502 603/603/603 503/503/503
f 521/521/521 522/522/522 501/501/501
f 501/501/501 500/500/500 521/521/521
f 205/205/205 204/204/204 208/208/208
f 234/234/234 209/209/209 204/204/204
f 234/234/234 204/204/204 210/210/210
f 210/210/210 204/204/204 207/207/207
f 208/208/208 204/204/204 209/209/209
f 206/206/206 207/207/207 204/204/204
f 204/204/204 205/205/205 206/206/206
f 208/208/208 334/334/334 205/205/205
f 227/227/227 207/207/207 206/206/206
f 206/206/206 226/226/226 227/227/227
f 576/576/576 577/577/577 295/295/295
f 489/489/489 456/456/456 581/581/581
f 576/576/576 488/488/488 489/489/489
f 456/456/456 489/489/489 488/488/488
f 581/581/581 456/456/456 355/355/355
f 355/355/355 456/456/456 455/455/455
f 488/488/488 453/453/453 456/456/456
f 455/455/455 456/456/456 453/453/453
f 480/480/480 488/488/488 576/576/576
f 488/488/488 480/480/480 482/482/482
f 482/482/482 453/453/453 488/488/488
f 578/578/578 576/576/576 298/298/298
f 576/576/576 578/578/578 480/480/480
f 295/295/295 298/298/298 576/576/576
f 479/479/479 480/480/480 578/578/578
f 481/481/481 482/482/482 480/480/480
f 480/480/480 479/479/479 481/481/481
f 482/482/482 486/486/486 454/454/454
f 454/454/454 453/453/453 482/482/482
f 486/486/486 482/482/482 481/481/481
f 543/543/543 544/544/544 545/545/545
f 544/544/544 598/598/598 597/597/597
f 597/597/597 545/545/545 544/544/544
f 248/248/248 249/249/249 250/250/250
f 250/250/250 249/249/249 328/328/328
f 328/328/328 329/329/329 250/250/250
f 75/75/75 69/69/69 74/74/74
f 70/70/70 69/69/69 75/75/75
f 73/73/73 74/74/74 69/69/69
f 69/69/69 72/72/72 73/73/73
f 71/71/71 72/72/72 69/69/69
f 69/69/69 70/70/70 71/71/71
f 100/100/100 75/75/75 77/77/77
f 75/75/75 100/100/100 99/99/99
f 99/99/99 76/76/76 75/75/75
f 74/74/74 77/77/77 75/75/75
f 141/141/141 142/142/142 139/139/139
f 186/186/186 185/185/185 189/189/189
f 180/180/180 179/179/179 185/185/185
f 185/185/185 186/186/186 180/180/180
f 190/190/190 139/139/139 179/179/179
f 179/179/179 178/178/178 190/190/190
f 178/178/178 179/179/179 180/180/180
f 140/140/140 139/139/139 190/190/190
f 139/139/139 140/140/140 141/141/141
f 21/21/21 165/165/165 141/141/141
f 21/21/21 141/141/141 140/140/140
f 303/303/303 21/21/21 140/140/140
f 191/191/191 303/303/303 140/140/140
f 190/190/190 191/191/191 140/140/140
f 297/297/297 190/190/190 178/178/178
f 191/191/191 190/190/190 297/297/297
f 299/299/299 178/178/178 176/176/176
f 178/178/178 299/299/299 297/297/297
f 180/180/180 176/176/176 178/178/178
f 298/298/298 297/297/297 299/299/299
f 297/297/297 296/296/296 191/191/191
f 297/297/297 298/298/298 295/295/295
f 295/295/295 296/296/296 297/297/297
f 303/303/303 191/191/191 302/302/302
f 228/228/228 211/211/211 207/207/207
f 207/207/207 227/227/227 228/228/228
f 207/207/207 211/211/211 210/210/210
f 227/227/227 220/220/220 233/233/233
f 233/233/233 228/228/228 227/227/227
f 220/220/220 227/227/227 226/226/226
f 226/226/226 217/217/217 220/220/220
f 235/235/235 233/233/233 220/220/220
f 220/220/220 222/222/222 235/235/235
f 222/222/222 220/220/220 221/221/221
f 219/219/219 221/221/221 220/220/220
f 219/219/219 220/220/220 217/217/217
f 225/225/225 233/233/233 235/235/235
f 233/233/233 225/225/225 232/232/232
f 232/232/232 228/228/228 233/233/233
f 235/235/235 223/223/223 225/225/225
f 229/229/229 232/232/232 225/225/225
f 229/229/229 225/225/225 224/224/224
f 523/523/523 521/521/521 500/500/500
f 500/500/500 506/506/506 523/523/523
f 505/505/505 506/506/506 500/500/500
f 521/521/521 523/523/523 528/528/528
f 528/528/528 513/513/513 521/521/521
f 522/522/522 521/521/521 513/513/513
f 513/513/513 512/512/512 522/522/522
f 530/530/530 517/517/517 513/513/513
f 513/513/513 528/528/528 530/530/530
f 517/517/517 516/516/516 513/513/513
f 514/514/514 513/513/513 516/516/516
f 512/512/512 513/513/513 514/514/514
f 530/530/530 528/528/528 519/519/519
f 528/528/528 523/523/523 527/527/527
f 527/527/527 519/519/519 528/528/528
f 519/519/519 518/518/518 530/530/530
f 525/525/525 519/519/519 527/527/527
f 525/525/525 520/520/520 519/519/519
f 257/257/257 258/258/258 259/259/259
f 552/552/552 553/553/553 554/554/554
f 393/393/393 389/389/389 395/395/395
f 395/395/395 389/389/389 392/392/392
f 394/394/394 390/390/390 389/389/389
f 389/389/389 393/393/393 394/394/394
f 391/391/391 392/392/392 389/389/389
f 389/389/389 390/390/390 391/391/391
f 398/398/398 393/393/393 400/400/400
f 400/400/400 393/393/393 397/397/397
f 394/394/394 393/393/393 398/398/398
f 395/395/395 397/397/397 393/393/393
f 590/590/590 317/317/317 161/161/161
f 161/161/161 470/470/470 590/590/590
f 469/469/469 470/470/470 161/161/161
f 161/161/161 164/164/164 469/469/469
f 318/318/318 162/162/162 161/161/161
f 161/161/161 317/317/317 318/318/318
f 163/163/163 164/164/164 161/161/161
f 161/161/161 162/162/162 163/163/163
f 317/317/317 590/590/590 591/591/591
f 591/591/591 319/319/319 317/317/317
f 266/266/266 267/267/267 268/268/268
f 268/268/268 267/267/267 330/330/330
f 330/330/330 331/331/331 268/268/268
f 561/561/561 562/562/562 563/563/563
f 562/562/562 600/600/600 599/599/599
f 599/599/599 563/563/563 562/562/562
f 260/260/260 261/261/261 262/262/262
f 555/555/555 556/556/556 557/557/557
f 251/251/251 252/252/252 253/253/253
f 546/546/546 547/547/547 548/548/548
f 263/263/263 264/264/264 265/265/265
f 558/558/558 559/559/559 560/560/560
f 549/549/549 550/550/550 551/551/551
f 254/254/254 255/255/255 256/256/256
f 223/223/223 224/224/224 225/225/225
f 213/213/213 212/212/212 232/232/232
f 232/232/232 229/229/229 213/213/213
f 228/228/228 232/232/232 212/212/212
f 213/213/213 229/229/229 230/230/230
f 213/213/213 215/215/215 214/214/214
f 230/230/230 215/215/215 213/213/213
f 212/212/212 213/213/213 214/214/214
f 211/211/211 212/212/212 214/214/214
f 212/212/212 211/211/211 228/228/228
f 214/214/214 210/210/210 211/211/211
f 210/210/210 214/214/214 216/216/216
f 214/214/214 215/215/215 216/216/216
f 215/215/215 230/230/230 216/216/216
f 216/216/216 231/231/231 210/210/210
f 210/210/210 231/231/231 234/234/234
f 217/217/217 218/218/218 219/219/219
f 518/518/518 519/519/519 520/520/520
f 509/509/509 525/525/525 527/527/527
f 527/527/527 507/507/507 509/509/509
f 507/507/507 527/527/527 523/523/523
f 524/524/524 525/525/525 509/509/509
f 509/509/509 508/508/508 511/511/511
f 509/509/509 511/511/511 524/524/524
f 507/507/507 508/508/508 509/509/509
f 508/508/508 507/507/507 506/506/506
f 523/523/523 506/506/506 507/507/507
f 506/506/506 505/505/505 508/508/508
f 510/510/510 508/508/508 505/505/505
f 508/508/508 510/510/510 511/511/511
f 511/511/511 510/510/510 524/524/524
f 505/505/505 526/526/526 510/510/510
f 529/529/529 526/526/526 505/505/505
f 514/514/514 515/515/515 512/512/512
f 29/29/29 30/30/30 31/31/31
f 165/165/165 31/31/31 353/353/353
f 31/31/31 30/30/30 360/360/360
f 360/360/360 353/353/353 31/31/31
f 355/355/355 455/455/455 165/165/165
f 353/353/353 355/355/355 165/165/165
f 359/359/359 589/589/589 360/360/360
f 360/360/360 356/356/356 359/359/359
f 360/360/360 30/30/30 356/356/356
f 312/312/312 356/356/356 30/30/30
f 312/312/312 30/30/30 23/23/23
f 357/357/357 356/356/356 312/312/312
f 358/358/358 359/359/359 356/356/356
f 356/356/356 357/357/357 358/358/358
f 312/312/312 306/306/306 357/357/357
f 312/312/312 23/23/23 26/26/26
f 26/26/26 306/306/306 312/312/312
f 350/350/350 357/357/357 306/306/306
f 357/357/357 350/350/350 349/349/349
f 336/336/336 1/1/1 337/337/337
f 337/337/337 1/1/1 159/159/159
f 1/1/1 336/336/336 2/2/2
f 3/3/3 4/4/4 1/1/1
f 159/159/159 1/1/1 4/4/4
f 1/1/1 2/2/2 3/3/3
f 33/33/33 2/2/2 336/336/336
f 338/338/338 361/361/361 336/336/336
f 336/336/336 361/361/361 33/33/33
f 337/337/337 338/338/338 336/336/336
f 458/458/458 459/459/459 440/440/440
f 440/440/440 457/457/457 458/458/458
f 439/439/439 441/441/441 440/440/440
f 458/458/458 460/460/460 459/459/459
f 447/447/447 459/459/459 460/460/460
f 459/459/459 447/447/447 450/450/450
f 495/495/495 460/460/460 458/458/458
f 495/495/495 531/531/531 462/462/462
f 462/462/462 460/460/460 495/495/495
f 460/460/460 462/462/462 150/150/150
f 150/150/150 148/148/148 460/460/460
f 447/447/447 460/460/460 461/461/461
f 460/460/460 148/148/148 461/461/461
f 448/448/448 447/447/447 461/461/461
f 449/449/449 450/450/450 447/447/447
f 447/447/447 448/448/448 449/449/449
f 450/450/450 449/449/449 466/466/466
f 465/465/465 449/449/449 448/448/448
f 449/449/449 465/465/465 464/464/464
f 464/464/464 466/466/466 449/449/449
f 344/344/344 602/602/602 365/365/365
f 343/343/343 602/602/602 344/344/344
f 347/347/347 602/602/602 343/343/343
f 347/347/347 343/343/343 342/342/342
f 346/346/346 602/602/602 347/347/347
f 354/354/354 346/346/346 580/580/580
f 354/354/354 582/582/582 346/346/346
f 580/580/580 346/346/346 345/345/345
f 345/345/345 346/346/346 347/347/347
f 582/582/582 353/353/353 360/360/360
f 582/582/582 360/360/360 589/589/589
f 354/354/354 353/353/353 582/582/582
f 354/354/354 581/581/581 355/355/355
f 580/580/580 581/581/581 354/354/354
f 353/353/353 354/354/354 355/355/355
f 581/581/581 580/580/580 489/489/489
f 577/577/577 580/580/580 345/345/345
f 489/489/489 580/580/580 577/577/577
f 345/345/345 485/485/485 577/577/577
f 485/485/485 345/345/345 342/342/342
f 342/342/342 345/345/345 347/347/347
f 295/295/295 577/577/577 485/485/485
f 489/489/489 577/577/577 576/576/576
f 584/584/584 308/308/308 309/309/309
f 309/309/309 308/308/308 307/307/307
f 309/309/309 585/585/585 584/584/584
f 585/585/585 309/309/309 322/322/322
f 322/322/322 309/309/309 310/310/310
f 307/307/307 310/310/310 309/309/309
f 322/322/322 593/593/593 585/585/585
f 593/593/593 322/322/322 321/321/321
f 310/310/310 323/323/323 322/322/322
f 321/321/321 322/322/322 323/323/323
f 321/321/321 592/592/592 593/593/593
f 323/323/323 324/324/324 321/321/321
f 273/273/273 274/274/274 275/275/275
f 568/568/568 569/569/569 570/570/570
f 536/536/536 537/537/537 538/538/538
f 537/537/537 595/595/595 594/594/594
f 594/594/594 538/538/538 537/537/537
f 241/241/241 242/242/242 243/243/243
f 243/243/243 242/242/242 325/325/325
f 325/325/325 326/326/326 243/243/243
f 443/443/443 335/335/335 124/124/124
f 433/433/433 378/378/378 443/443/443
f 443/443/443 378/378/378 380/380/380
f 433/433/433 443/443/443 124/124/124
f 125/125/125 335/335/335 127/127/127
f 127/127/127 126/126/126 125/125/125
f 126/126/126 127/127/127 128/128/128
f 125/125/125 124/124/124 335/335/335
f 125/125/125 126/126/126 181/181/181
f 181/181/181 59/59/59 125/125/125
f 112/112/112 125/125/125 58/58/58
f 125/125/125 59/59/59 58/58/58
f 112/112/112 124/124/124 125/125/125
f 126/126/126 129/129/129 135/135/135
f 135/135/135 181/181/181 126/126/126
f 128/128/128 129/129/129 126/126/126
f 61/61/61 59/59/59 181/181/181
f 181/181/181 153/153/153 61/61/61
f 153/153/153 181/181/181 135/135/135
f 59/59/59 61/61/61 60/60/60
f 58/58/58 59/59/59 60/60/60
f 112/112/112 58/58/58 113/113/113
f 122/122/122 112/112/112 111/111/111
f 124/124/124 112/112/112 122/122/122
f 135/135/135 134/134/134 153/153/153
f 154/154/154 153/153/153 134/134/134
f 135/135/135 129/129/129 147/147/147
f 147/147/147 132/132/132 135/135/135
f 134/134/134 135/135/135 132/132/132
f 155/155/155 134/134/134 133/133/133
f 134/134/134 155/155/155 154/154/154
f 132/132/132 133/133/133 134/134/134
f 132/132/132 146/146/146 143/143/143
f 133/133/133 132/132/132 143/143/143
f 431/431/431 432/432/432 433/433/433
f 433/433/433 432/432/432 378/378/378
f 378/378/378 379/379/379 380/380/380
f 379/379/379 583/583/583 436/436/436
f 379/379/379 436/436/436 381/381/381
f 380/380/380 379/379/379 381/381/381
f 436/436/436 583/583/583 472/472/472
f 472/472/472 493/493/493 473/473/473
f 436/436/436 472/472/472 473/473/473
f 436/436/436 370/370/370 463/463/463
f 463/463/463 381/381/381 436/436/436
f 370/370/370 436/436/436 473/473/473
f 465/465/465 381/381/381 463/463/463
f 463/463/463 464/464/464 465/465/465
f 473/473/473 371/371/371 370/370/370
f 370/370/370 371/371/371 372/372/372
f 371/371/371 473/473/473 493/493/493
f 493/493/493 474/474/474 371/371/371
f 475/475/475 372/372/372 371/371/371
f 371/371/371 474/474/474 475/475/475
f 372/372/372 475/475/475 171/171/171
f 461/461/461 445/445/445 448/448/448
f 444/444/444 483/483/483 448/448/448
f 448/448/448 445/445/445 444/444/444
f 448/448/448 483/483/483 465/465/465
f 148/148/148 294/294/294 461/461/461
f 445/445/445 461/461/461 294/294/294
f 294/294/294 128/128/128 445/445/445
f 444/444/444 445/445/445 128/128/128
f 443/443/443 444/444/444 127/127/127
f 483/483/483 444/444/444 443/443/443
f 128/128/128 127/127/127 444/444/444
f 443/443/443 380/380/380 483/483/483
f 381/381/381 465/465/465 483/483/483
f 483/483/483 380/380/380 381/381/381
f 127/127/127 335/335/335 443/443/443
f 298/298/298 300/300/300 578/578/578
f 299/299/299 300/300/300 298/298/298
f 477/477/477 578/578/578 300/300/300
f 300/300/300 172/172/172 477/477/477
f 173/173/173 172/172/172 300/300/300
f 300/300/300 299/299/299 173/173/173
f 578/578/578 477/477/477 479/479/479
f 478/478/478 479/479/479 477/477/477
f 477/477/477 476/476/476 478/478/478
f 476/476/476 477/477/477 172/172/172
f 132/132/132 147/147/147 146/146/146
f 148/148/148 147/147/147 294/294/294
f 294/294/294 147/147/147 129/129/129
f 146/146/146 147/147/147 148/148/148
f 129/129/129 128/128/128 294/294/294
f 146/146/146 148/148/148 150/150/150
f 144/144/144 143/143/143 146/146/146
f 150/150/150 149/149/149 146/146/146
f 199/199/199 146/146/146 149/149/149
f 199/199/199 144/144/144 146/146/146
f 150/150/150 462/462/462 439/439/439
f 439/439/439 151/151/151 150/150/150
f 150/150/150 151/151/151 120/120/120
f 120/120/120 149/149/149 150/150/150
f 149/149/149 236/236/236 199/199/199
f 236/236/236 149/149/149 120/120/120
f 120/120/120 121/121/121 236/236/236
f 120/120/120 119/119/119 121/121/121
f 7/7/7 315/315/315 311/311/311
f 311/311/311 315/315/315 166/166/166
f 152/152/152 46/46/46 116/116/116
f 46/46/46 49/49/49 167/167/167
f 167/167/167 116/116/116 46/46/46
f 47/47/47 46/46/46 152/152/152
f 48/48/48 49/49/49 46/46/46
f 46/46/46 47/47/47 48/48/48
f 116/116/116 61/61/61 152/152/152
f 152/152/152 282/282/282 47/47/47
f 282/282/282 152/152/152 154/154/154
f 153/153/153 154/154/154 152/152/152
f 191/191/191 296/296/296 302/302/302
f 22/22/22 21/21/21 303/303/303
f 302/302/302 22/22/22 303/303/303
f 22/22/22 302/302/302 14/14/14
f 296/296/296 12/12/12 302/302/302
f 302/302/302 12/12/12 14/14/14
f 12/12/12 296/296/296 184/184/184
f 184/184/184 296/296/296 295/295/295
f 485/485/485 293/293/293 295/295/295
f 295/295/295 293/293/293 184/184/184
f 11/11/11 184/184/184 160/160/160
f 293/293/293 160/160/160 184/184/184
f 184/184/184 11/11/11 12/12/12
f 13/13/13 12/12/12 11/11/11
f 12/12/12 13/13/13 14/14/14
f 8/8/8 11/11/11 160/160/160
f 11/11/11 10/10/10 13/13/13
f 116/116/116 168/168/168 305/305/305
f 168/168/168 167/167/167 195/195/195
f 116/116/116 167/167/167 168/168/168
f 60/60/60 116/116/116 305/305/305
f 60/60/60 61/61/61 116/116/116
f 49/49/49 170/170/170 195/195/195
f 195/195/195 167/167/167 49/49/49
f 169/169/169 170/170/170 49/49/49
f 152/152/152 61/61/61 153/153/153
f 47/47/47 282/282/282 281/281/281
f 281/281/281 50/50/50 47/47/47
f 51/51/51 48/48/48 47/47/47
f 47/47/47 50/50/50 51/51/51
f 171/171/171 169/169/169 48/48/48
f 48/48/48 51/51/51 171/171/171
f 49/49/49 48/48/48 169/169/169
f 171/171/171 51/51/51 372/372/372
f 51/51/51 50/50/50 373/373/373
f 373/373/373 372/372/372 51/51/51
f 373/373/373 50/50/50 281/281/281
f 463/463/463 370/370/370 373/373/373
f 373/373/373 572/572/572 463/463/463
f 281/281/281 572/572/572 373/373/373
f 372/372/372 373/373/373 370/370/370
f 572/572/572 281/281/281 280/280/280
f 280/280/280 281/281/281 282/282/282
f 118/118/118 119/119/119 120/120/120
f 121/121/121 119/119/119 145/145/145
f 118/118/118 156/156/156 119/119/119
f 143/143/143 119/119/119 156/156/156
f 144/144/144 145/145/145 119/119/119
f 119/119/119 143/143/143 144/144/144
f 130/130/130 54/54/54 118/118/118
f 156/156/156 118/118/118 54/54/54
f 157/157/157 156/156/156 54/54/54
f 156/156/156 157/157/157 143/143/143
f 143/143/143 157/157/157 133/133/133
f 54/54/54 53/53/53 157/157/157
f 133/133/133 157/157/157 53/53/53
f 130/130/130 55/55/55 54/54/54
f 54/54/54 55/55/55 52/52/52
f 52/52/52 53/53/53 54/54/54
f 55/55/55 130/130/130 131/131/131
f 53/53/53 137/137/137 133/133/133
f 133/133/133 137/137/137 155/155/155
f 531/531/531 441/441/441 439/439/439
f 439/439/439 462/462/462 531/531/531
f 487/487/487 579/579/579 575/575/575
f 481/481/481 492/492/492 579/579/579
f 478/478/478 492/492/492 481/481/481
f 481/481/481 479/479/479 478/478/478
f 426/426/426 422/422/422 394/394/394
f 394/394/394 399/399/399 426/426/426
f 390/390/390 394/394/394 422/422/422
f 398/398/398 399/399/399 394/394/394
f 391/391/391 390/390/390 423/423/423
f 422/422/422 423/423/423 390/390/390
f 423/423/423 424/424/424 391/391/391
f 424/424/424 423/423/423 409/409/409
f 409/409/409 423/423/423 422/422/422
f 422/422/422 426/426/426 415/415/415
f 415/415/415 411/411/411 422/422/422
f 422/422/422 411/411/411 409/409/409
f 409/409/409 408/408/408 424/424/424
f 410/410/410 409/409/409 411/411/411
f 409/409/409 410/410/410 407/407/407
f 407/407/407 408/408/408 409/409/409
f 414/414/414 413/413/413 411/411/411
f 411/411/411 415/415/415 414/414/414
f 377/377/377 452/452/452 451/451/451
f 451/451/451 374/374/374 377/377/377
f 450/450/450 452/452/452 377/377/377
f 466/466/466 452/452/452 450/450/450
f 468/468/468 377/377/377 376/376/376
f 377/377/377 468/468/468 450/450/450
f 376/376/376 377/377/377 374/374/374
f 56/56/56 375/375/375 374/374/374
f 374/374/374 375/375/375 376/376/376
f 375/375/375 56/56/56 131/131/131
f 131/131/131 56/56/56 55/55/55
f 52/52/52 55/55/55 56/56/56
f 131/131/131 446/446/446 375/375/375
f 446/446/446 376/376/376 375/375/375
f 446/446/446 438/438/438 376/376/376
f 467/467/467 376/376/376 438/438/438
f 376/376/376 467/467/467 468/468/468
f 450/450/450 468/468/468 459/459/459
f 459/459/459 468/468/468 467/467/467
f 438/438/438 440/440/440 467/467/467
f 467/467/467 440/440/440 459/459/459
f 438/438/438 439/439/439 440/440/440
f 441/441/441 457/457/457 440/440/440
f 89/89/89 103/103/103 104/104/104
f 102/102/102 103/103/103 89/89/89
f 89/89/89 90/90/90 87/87/87
f 87/87/87 88/88/88 89/89/89
f 72/72/72 103/103/103 102/102/102
f 103/103/103 72/72/72 71/71/71
f 71/71/71 104/104/104 103/103/103
f 464/464/464 463/463/463 572/572/572
f 572/572/572 571/571/571 464/464/464
f 280/280/280 571/571/571 572/572/572
f 571/571/571 280/280/280 183/183/183
f 183/183/183 280/280/280 283/283/283
f 282/282/282 283/283/283 280/280/280
f 154/154/154 283/283/283 282/282/282
f 155/155/155 182/182/182 283/283/283
f 283/283/283 154/154/154 155/155/155
f 283/283/283 182/182/182 183/183/183
f 183/183/183 484/484/484 571/571/571
f 484/484/484 183/183/183 138/138/138
f 138/138/138 183/183/183 182/182/182
f 466/466/466 464/464/464 571/571/571
f 571/571/571 484/484/484 466/466/466
f 138/138/138 451/451/451 484/484/484
f 452/452/452 466/466/466 484/484/484
f 484/484/484 451/451/451 452/452/452
f 451/451/451 138/138/138 57/57/57
f 182/182/182 136/136/136 138/138/138
f 57/57/57 138/138/138 136/136/136
f 137/137/137 136/136/136 182/182/182
f 182/182/182 155/155/155 137/137/137
f 136/136/136 52/52/52 57/57/57
f 53/53/53 52/52/52 136/136/136
f 136/136/136 137/137/137 53/53/53
f 57/57/57 374/374/374 451/451/451
f 374/374/374 57/57/57 56/56/56
f 56/56/56 57/57/57 52/52/52
f 10/10/10 11/11/11 8/8/8
f 342/342/342 160/160/160 485/485/485
f 293/293/293 485/485/485 160/160/160
f 10/10/10 9/9/9 333/333/333
f 13/13/13 10/10/10 333/333/333
f 8/8/8 9/9/9 10/10/10
f 14/14/14 13/13/13 333/333/333
f 39/39/39 40/40/40 333/333/333
f 9/9/9 39/39/39 333/333/333
f 40/40/40 14/14/14 333/333/333
f 39/39/39 9/9/9 8/8/8
f 8/8/8 40/40/40 39/39/39
f 166/166/166 8/8/8 311/311/311
f 40/40/40 8/8/8 166/166/166
f 304/304/304 14/14/14 40/40/40
f 40/40/40 166/166/166 304/304/304
f 22/22/22 14/14/14 304/304/304
f 304/304/304 29/29/29 20/20/20
f 304/304/304 316/316/316 29/29/29
f 22/22/22 304/304/304 20/20/20
f 20/20/20 21/21/21 22/22/22
f 20/20/20 31/31/31 165/165/165
f 165/165/165 21/21/21 20/20/20
f 31/31/31 20/20/20 29/29/29
f 24/24/24 23/23/23 29/29/29
f 29/29/29 316/316/316 24/24/24
f 29/29/29 23/23/23 30/30/30
f 411/411/411 413/413/413 412/412/412
f 411/411/411 412/412/412 410/410/410
f 416/416/416 415/415/415 426/426/426
f 414/414/414 415/415/415 416/416/416
f 416/416/416 417/417/417 414/414/414
f 426/426/426 437/437/437 416/416/416
f 428/428/428 416/416/416 437/437/437
f 428/428/428 418/418/418 416/416/416
f 417/417/417 416/416/416 418/418/418
f 426/426/426 399/399/399 402/402/402
f 402/402/402 437/437/437 426/426/426
f 437/437/437 402/402/402 403/403/403
f 403/403/403 428/428/428 437/437/437
f 427/427/427 428/428/428 403/403/403
f 403/403/403 401/401/401 406/406/406
f 403/403/403 406/406/406 427/427/427
f 402/402/402 401/401/401 403/403/403
f 401/401/401 402/402/402 399/399/399
f 399/399/399 398/398/398 401/401/401
f 401/401/401 405/405/405 406/406/406
f 405/405/405 401/401/401 398/398/398
f 430/430/430 427/427/427 406/406/406
f 406/406/406 405/405/405 430/430/430
f 405/405/405 404/404/404 429/429/429
f 429/429/429 430/430/430 405/405/405
f 398/398/398 404/404/404 405/405/405
f 400/400/400 404/404/404 398/398/398
f 429/429/429 404/404/404 400/400/400
f 400/400/400 425/425/425 429/429/429
f 111/111/111 112/112/112 113/113/113
f 123/123/123 122/122/122 193/193/193
f 193/193/193 122/122/122 111/111/111
f 122/122/122 123/123/123 124/124/124
f 195/195/195 192/192/192 111/111/111
f 111/111/111 168/168/168 195/195/195
f 111/111/111 192/192/192 193/193/193
f 193/193/193 290/290/290 123/123/123
f 490/490/490 442/442/442 123/123/123
f 123/123/123 290/290/290 490/490/490
f 124/124/124 123/123/123 442/442/442
f 442/442/442 433/433/433 124/124/124
f 442/442/442 431/431/431 433/433/433
f 431/431/431 442/442/442 490/490/490
f 490/490/490 491/491/491 431/431/431
f 493/493/493 472/472/472 431/431/431
f 431/431/431 491/491/491 493/493/493
f 239/239/239 240/240/240 237/237/237
f 237/237/237 238/238/238 239/239/239
f 534/534/534 535/535/535 532/532/532
f 532/532/532 533/533/533 534/534/534
f 172/172/172 175/175/175 476/476/476
f 174/174/174 175/175/175 172/172/172
f 172/172/172 173/173/173 174/174/174
f 176/176/176 173/173/173 299/299/299
f 177/177/177 174/174/174 173/173/173
f 173/173/173 176/176/176 177/177/177
f 177/177/177 176/176/176 180/180/180
f 180/180/180 194/194/194 177/177/177
f 301/301/301 180/180/180 186/186/186
f 180/180/180 301/301/301 194/194/194
f 186/186/186 292/292/292 301/301/301
f 291/291/291 292/292/292 186/186/186
f 186/186/186 196/196/196 291/291/291
f 189/189/189 196/196/196 186/186/186
f 291/291/291 196/196/196 487/487/487
f 487/487/487 575/575/575 291/291/291
f 487/487/487 196/196/196 189/189/189
f 579/579/579 487/487/487 481/481/481
f 83/83/83 86/86/86 82/82/82
f 81/81/81 83/83/83 82/82/82
f 79/79/79 81/81/81 82/82/82
f 81/81/81 79/79/79 106/106/106
f 106/106/106 79/79/79 73/73/73
f 73/73/73 102/102/102 106/106/106
f 102/102/102 73/73/73 72/72/72
f 106/106/106 97/97/97 96/96/96
f 96/96/96 117/117/117 106/106/106
f 97/97/97 106/106/106 102/102/102
f 106/106/106 117/117/117 81/81/81
f 83/83/83 81/81/81 117/117/117
f 107/107/107 117/117/117 96/96/96
f 117/117/117 107/107/107 83/83/83
f 108/108/108 86/86/86 83/83/83
f 83/83/83 107/107/107 108/108/108
f 86/86/86 108/108/108 110/110/110
f 107/107/107 96/96/96 98/98/98
f 95/95/95 98/98/98 96/96/96
f 96/96/96 97/97/97 94/94/94
f 94/94/94 95/95/95 96/96/96
f 102/102/102 92/92/92 97/97/97
f 94/94/94 97/97/97 92/92/92
f 92/92/92 93/93/93 94/94/94
f 89/89/89 92/92/92 102/102/102
f 92/92/92 91/91/91 93/93/93
f 92/92/92 89/89/89 88/88/88
f 88/88/88 91/91/91 92/92/92
f 104/104/104 90/90/90 89/89/89
f 387/387/387 383/383/383 382/382/382
f 382/382/382 383/383/383 384/384/384
f 386/386/386 383/383/383 387/387/387
f 385/385/385 388/388/388 383/383/383
f 383/383/383 388/388/388 384/384/384
f 385/385/385 383/383/383 386/386/386
f 67/67/67 62/62/62 64/64/64
f 62/62/62 63/63/63 64/64/64
f 66/66/66 67/67/67 64/64/64
f 65/65/65 64/64/64 68/68/68
f 64/64/64 63/63/63 68/68/68
f 65/65/65 66/66/66 64/64/64
f 36/36/36 37/37/37 35/35/35
f 362/362/362 363/363/363 36/36/36
f 364/364/364 363/363/363 362/362/362
f 362/362/362 361/361/361 364/364/364
f 364/364/364 361/361/361 338/338/338
f 339/339/339 364/364/364 338/338/338
f 339/339/339 338/338/338 337/337/337
f 337/337/337 340/340/340 339/339/339
f 340/340/340 337/337/337 586/586/586
f 159/159/159 586/586/586 337/337/337
f 586/586/586 588/588/588 340/340/340
f 341/341/341 586/586/586 159/159/159
f 471/471/471 588/588/588 586/586/586
f 586/586/586 341/341/341 471/471/471
f 158/158/158 341/341/341 159/159/159
f 8/8/8 159/159/159 311/311/311
f 158/158/158 159/159/159 8/8/8
f 341/341/341 158/158/158 160/160/160
f 8/8/8 160/160/160 158/158/158
f 341/341/341 160/160/160 342/342/342
f 366/366/366 471/471/471 341/341/341
f 341/341/341 365/365/365 366/366/366
f 365/365/365 341/341/341 344/344/344
f 343/343/343 344/344/344 341/341/341
f 341/341/341 342/342/342 343/343/343
f 366/366/366 582/582/582 471/471/471
f 582/582/582 366/366/366 346/346/346
f 365/365/365 602/602/602 366/366/366
f 366/366/366 602/602/602 346/346/346
f 566/566/566 567/567/567 564/564/564
f 564/564/564 565/565/565 566/566/566
f 566/566/566 601/601/601 567/567/567
f 271/271/271 272/272/272 269/269/269
f 269/269/269 270/270/270 271/271/271
f 271/271/271 270/270/270 332/332/332
f 278/278/278 367/367/367 41/41/41
f 368/368/368 42/42/42 41/41/41
f 41/41/41 367/367/367 368/368/368
f 278/278/278 41/41/41 44/44/44
f 43/43/43 44/44/44 41/41/41
f 41/41/41 42/42/42 43/43/43
f 276/276/276 367/367/367 278/278/278
f 276/276/276 278/278/278 44/44/44
f 369/369/369 367/367/367 276/276/276
f 369/369/369 368/368/368 367/367/367
f 349/349/349 358/358/358 357/357/357
f 306/306/306 28/28/28 350/350/350
f 306/306/306 26/26/26 17/17/17
f 17/17/17 28/28/28 306/306/306
f 26/26/26 25/25/25 18/18/18
f 18/18/18 17/17/17 26/26/26
f 25/25/25 26/26/26 23/23/23
f 23/23/23 24/24/24 25/25/25
f 17/17/17 18/18/18 15/15/15
f 28/28/28 17/17/17 16/16/16
f 15/15/15 16/16/16 17/17/17
f 28/28/28 27/27/27 351/351/351
f 351/351/351 350/350/350 28/28/28
f 16/16/16 27/27/27 28/28/28
f 27/27/27 16/16/16 19/19/19
f 15/15/15 19/19/19 16/16/16
f 27/27/27 284/284/284 352/352/352
f 352/352/352 351/351/351 27/27/27
f 19/19/19 284/284/284 27/27/27
f 348/348/348 351/351/351 352/352/352
f 350/350/350 351/351/351 348/348/348
f 348/348/348 349/349/349 350/350/350
f 33/33/33 3/3/3 2/2/2
f 5/5/5 3/3/3 32/32/32
f 3/3/3 33/33/33 32/32/32
f 4/4/4 3/3/3 5/5/5
f 311/311/311 4/4/4 7/7/7
f 4/4/4 311/311/311 159/159/159
f 4/4/4 5/5/5 6/6/6
f 6/6/6 7/7/7 4/4/4
f 38/38/38 5/5/5 32/32/32
f 6/6/6 5/5/5 38/38/38
f 35/35/35 38/38/38 32/32/32
f 34/34/34 35/35/35 32/32/32
f 32/32/32 33/33/33 34/34/34
f 34/34/34 33/33/33 361/361/361
f 36/36/36 34/34/34 362/362/362
f 361/361/361 362/362/362 34/34/34
f 35/35/35 34/34/34 36/36/36
f 38/38/38 35/35/35 37/37/37
f 276/276/276 277/277/277 369/369/369
f 45/45/45 277/277/277 276/276/276
f 276/276/276 44/44/44 45/45/45
f 45/45/45 44/44/44 43/43/43
f 277/277/277 45/45/45 114/114/114
f 114/114/114 45/45/45 43/43/43
f 197/197/197 115/115/115 43/43/43
f 43/43/43 42/42/42 197/197/197
f 43/43/43 115/115/115 114/114/114
f 114/114/114 279/279/279 277/277/277
f 434/434/434 369/369/369 277/277/277
f 277/277/277 279/279/279 434/434/434
f 368/368/368 369/369/369 434/434/434
f 434/434/434 435/435/435 368/368/368
f 494/494/494 42/42/42 368/368/368
f 368/368/368 435/435/435 494/494/494
f 494/494/494 198/198/198 42/42/42
f 197/197/197 42/42/42 198/198/198
f 541/541/541 542/542/542 539/539/539
f 539/539/539 540/540/540 541/541/541
f 541/541/541 596/596/596 542/542/542
f 246/246/246 247/247/247 244/244/244
f 244/244/244 245/245/245 246/246/246
f 246/246/246 245/245/245 327/327/327
