# ophthalmosaurus_ad_b reconstructed from live game memory
v -26.62109 80.55592 -55.79529
v -18.01296 86.32706 -66.19662
v -23.39866 93.27166 -55.85230
v -18.85947 95.92013 -66.21528
v -16.33645 90.97752 -76.06918
v -20.77880 81.42019 -75.66022
v -23.93030 78.20890 -66.19240
v 0.00000 91.84971 -90.15591
v -14.88669 86.33685 -87.39032
v -9.89247 83.49331 -101.04340
v 0.00000 86.94524 -101.29559
v -20.97886 90.49921 -59.18575
v -23.41197 86.69280 -66.18505
v -17.54572 93.09608 -66.21037
v -16.19293 89.76667 -72.94968
v -21.62533 80.32360 -66.19875
v -23.35349 82.61089 -58.82146
v -19.42893 83.03489 -72.75295
v -19.99343 72.60035 -85.23181
v -23.70498 71.77102 -66.15392
v -16.48759 63.12298 -84.94998
v -20.15490 103.04713 -55.97036
v -15.39061 100.65102 -68.33420
v 0.00000 103.70267 -68.90274
v 0.00000 106.56547 -55.97008
v 0.00000 59.67356 -84.87785
v 0.00000 63.10345 -100.19971
v -10.46929 65.29922 -100.26811
v -27.46279 111.17599 -1.73887
v -39.07281 86.66907 -1.72590
v -32.25371 84.68908 -38.45205
v -22.93733 108.13652 -39.39660
v -19.82669 73.66740 -85.24343
v -22.22281 44.67327 -36.54884
v -32.44371 55.42650 -36.00543
v -34.69965 43.89797 -20.91572
v -26.24096 34.82399 -1.71513
v -36.89582 52.28764 -1.73087
v -35.79643 53.86869 -18.74974
v -39.88292 48.43380 -29.41222
v -50.95488 45.77671 -16.36534
v -61.72358 38.25681 -13.55047
v -60.41456 35.09985 -28.76116
v -49.46706 42.18424 -29.10519
v -49.25655 41.72902 -4.38437
v -60.43678 35.15511 3.36158
v -95.57127 16.67741 -1.99696
v -102.53405 9.06394 1.83335
v -101.35729 9.77171 -3.91640
v -94.83645 14.09643 -11.87291
v -94.99249 14.02271 5.28656
v -47.13437 37.16269 -18.51019
v -58.53248 30.54781 -13.74010
v -93.16113 10.53305 -3.29605
v -102.53405 9.06394 1.83335
v -39.88292 48.43380 -29.41222
v -49.46706 42.18424 -29.10519
v -34.69965 43.89797 -20.91572
v -39.88250 47.94709 -9.95018
v -35.79643 53.86869 -18.74974
v -39.88292 48.43380 -29.41222
v -94.83645 14.09643 -11.87291
v -76.76244 19.80814 -9.18627
v -78.52405 24.18828 -24.57171
v -101.35729 9.77171 -3.91640
v 0.00000 24.30388 75.84158
v 0.00000 24.61225 34.99741
v -28.26358 31.32163 34.99742
v -28.23553 32.15377 75.89841
v 0.00000 47.90503 160.76016
v -14.35756 53.37529 160.76004
v -11.77021 56.96731 179.28940
v 0.00000 52.42667 179.28915
v -22.37707 99.71150 108.82243
v 0.00000 110.05013 108.82246
v 0.00000 97.71481 135.50528
v -18.16667 91.14203 135.50354
v -38.00833 47.12415 34.99733
v -37.45366 48.77941 75.90598
v -40.41514 86.21266 35.00217
v -32.56012 43.75562 101.05414
v -44.15788 37.54822 106.99979
v -46.84362 39.72776 99.70236
v -35.62909 46.25195 95.92152
v -47.51521 37.52858 90.30534
v -36.67799 43.24094 89.22463
v -35.66106 39.92271 95.41483
v -46.03539 34.34013 99.21268
v -36.67799 43.24094 89.22463
v -47.51521 37.52858 90.30534
v -26.87157 110.06693 75.79577
v 0.00000 121.29723 88.49174
v -4.94917 72.06272 -133.41113
v -4.51629 75.58270 -134.66263
v -8.57834 73.07632 -118.10707
v -8.05297 68.01371 -117.86375
v -11.74994 73.01196 -100.37659
v 0.00000 66.22710 -117.68524
v 0.00000 70.75234 -135.07837
v -32.25371 84.68908 -38.45205
v 0.00000 113.23982 -40.26631
v -22.93733 108.13652 -39.39660
v 0.00000 29.17294 -1.71663
v 0.00000 39.40678 -36.60090
v 0.00000 39.40678 -36.60090
v 0.00000 51.25822 -55.65630
v -18.81536 55.89273 -55.65171
v -22.22281 44.67327 -36.54884
v -17.48580 59.89426 -66.13979
v 0.00000 55.29836 -66.13065
v 0.00000 83.96217 -118.49215
v -7.69348 80.55096 -118.35468
v -4.84722 81.03315 -134.26868
v 0.00000 82.85059 -137.44766
v -9.36739 73.85593 -118.05778
v -4.84202 76.39941 -135.45261
v -12.30945 73.84251 -100.41570
v -39.88250 47.94709 -9.95018
v -60.41456 35.09985 -28.76116
v -78.52405 24.18828 -24.57171
v -79.55550 26.64000 -8.53663
v -78.26808 24.28458 7.14200
v -55.68298 31.27416 106.25636
v -57.52833 32.02164 103.35061
v -57.27044 31.34863 98.23978
v -56.54939 29.06035 102.78607
v -57.27044 31.34863 98.23978
v -7.19994 125.88480 73.45793
v -36.26448 83.04405 75.82052
v -28.85423 113.61546 34.99842
v -29.21217 75.24338 108.08148
v -23.21982 70.66837 135.50351
v -17.81681 68.25466 160.75816
v -13.90921 84.48716 160.76651
v -10.54162 79.88232 179.29041
v -14.05297 68.21220 179.29034
v -58.57001 29.89125 103.56253
v -58.57001 29.89125 103.56253
v 0.00000 76.40212 -138.89755
v 0.00000 75.58147 -136.97797
v -32.56012 43.75562 101.05414
v -25.05659 39.73621 108.07892
v -26.02346 34.08727 92.88825
v -35.66106 39.92271 95.41483
v -36.67799 43.24094 89.22463
v -29.54416 50.75840 108.08275
v -35.62909 46.25195 95.92152
v -33.95672 51.59446 94.38698
v 0.00000 31.80410 108.07053
v 0.00000 27.32951 93.20674
v -19.89386 48.74452 135.49820
v 0.00000 41.50790 135.49463
v 0.00000 122.27028 -1.27317
v 0.00000 131.05305 19.93263
v -12.96484 129.76111 54.34008
v 0.00000 89.29454 160.76859
v 0.00000 83.67386 179.28986
v -9.36739 73.85593 -118.05778
v 0.00000 79.92353 -118.54642
v -4.84202 76.39941 -135.45261
v -11.74994 73.01196 -100.37659
v 0.00000 66.88291 -109.03636
v 0.00000 65.80759 -75.63847
v -19.99343 72.60035 -85.23181
v -4.51629 75.58270 -134.66263
v 0.00000 72.12530 -134.36823
v -8.57834 73.07632 -118.10707
v -26.36800 71.48526 -55.65945
v 0.00000 70.38614 -55.45775
v -23.62162 72.97187 -66.17398
v -23.70498 71.77102 -66.15392
v -19.82669 73.66740 -85.24343
v 0.00000 80.67460 -86.26815
v -12.30945 73.84251 -100.41570
v 0.00000 75.58147 -136.97797
v 0.00000 149.65570 33.25577
v 0.00000 170.49081 50.81662
v -3.48273 164.29327 62.40078
v -7.92700 149.55310 56.31374
v -7.29935 77.90628 194.85965
v 0.00000 82.27571 190.67068
v -6.11993 59.43364 194.01828
v 0.00000 54.80058 190.30008
v -9.80665 68.23549 196.54507
v 0.00000 76.40212 -138.89755
v -9.80665 68.23549 196.54507
v -7.29935 77.90628 194.85965
v -4.67536 68.20396 220.33635
v -6.11993 59.43364 194.01828
v -3.50143 45.79286 222.90935
v 0.00000 68.20389 236.04683
v 0.00000 48.58573 236.54521
v 0.00000 86.26266 237.66167
v -4.66065 90.06903 221.77434
v -1.63362 110.28423 230.59410
v 0.00000 106.85141 242.07799
v 0.00000 114.62096 220.08968
v 0.00000 96.26729 207.85170
v 0.00000 40.16024 207.90797
v 0.00000 54.80058 190.30008
v 0.00000 82.27571 190.67068
v -26.36800 71.48526 -55.65945
v -32.44371 55.42650 -36.00543
v 0.00000 160.28848 76.40243
v 0.00000 146.74561 73.14268
v 0.00000 113.23982 -40.26631
v 0.00000 131.98529 78.44397
v -26.36800 71.48526 -55.65945
v 0.00000 70.38614 -55.45775
v 0.00000 178.86990 76.41521
v 0.00000 176.68076 63.34121
v -1.33160 23.63887 232.54723
v 0.00000 17.47601 222.93477
v 0.00000 27.51242 240.67564
v -0.44351 4.85160 243.00237
v 0.00000 0.30451 237.30513
v 0.00000 7.78396 247.80779
v 0.00000 -7.50400 251.35768
v -1.63362 128.50256 240.00121
v 0.00000 125.06976 248.15965
v 0.00000 131.69678 233.91451
v 0.00000 145.17715 253.97749
v -23.62162 72.97187 -66.17398
v 26.62110 80.55592 -55.79529
v 23.39866 93.27166 -55.85230
v 18.01296 86.32706 -66.19662
v 18.85948 95.92013 -66.21528
v 16.33645 90.97752 -76.06918
v 20.77880 81.42019 -75.66022
v 23.93030 78.20890 -66.19240
v 9.89248 83.49331 -101.04340
v 14.88670 86.33685 -87.39032
v 20.97886 90.49921 -59.18575
v 17.54572 93.09608 -66.21037
v 23.41197 86.69280 -66.18505
v 16.19293 89.76667 -72.94968
v 21.62534 80.32360 -66.19875
v 23.35349 82.61089 -58.82146
v 19.42893 83.03489 -72.75295
v 19.99344 72.60035 -85.23181
v 16.48759 63.12298 -84.94998
v 23.70499 71.77102 -66.15392
v 20.15490 103.04713 -55.97036
v 15.39062 100.65102 -68.33420
v 10.46929 65.29922 -100.26811
v 27.46279 111.17599 -1.73887
v 22.93733 108.13652 -39.39660
v 32.25372 84.68907 -38.45205
v 39.07281 86.66907 -1.72590
v 19.82670 73.66740 -85.24343
v 22.22282 44.67327 -36.54884
v 34.69966 43.89797 -20.91572
v 32.44371 55.42650 -36.00543
v 26.24096 34.82399 -1.71513
v 36.89583 52.28764 -1.73087
v 35.79644 53.86869 -18.74974
v 39.88293 48.43380 -29.41222
v 50.95488 45.77671 -16.36534
v 49.46707 42.18424 -29.10519
v 60.41457 35.09985 -28.76116
v 61.72359 38.25681 -13.55047
v 49.25655 41.72902 -4.38437
v 60.43678 35.15511 3.36158
v 95.57127 16.67741 -1.99696
v 94.83645 14.09643 -11.87291
v 101.35729 9.77171 -3.91640
v 102.53405 9.06394 1.83335
v 94.99249 14.02271 5.28657
v 47.13437 37.16268 -18.51018
v 58.53249 30.54780 -13.74010
v 102.53405 9.06394 1.83335
v 93.16113 10.53305 -3.29605
v 39.88293 48.43380 -29.41222
v 34.69966 43.89797 -20.91572
v 49.46707 42.18424 -29.10519
v 39.88251 47.94709 -9.95018
v 35.79644 53.86869 -18.74974
v 39.88293 48.43380 -29.41222
v 94.83645 14.09643 -11.87291
v 78.52405 24.18827 -24.57171
v 76.76244 19.80814 -9.18627
v 101.35729 9.77171 -3.91640
v 28.23553 32.15377 75.89841
v 28.26358 31.32163 34.99742
v 11.77022 56.96731 179.28940
v 14.35757 53.37529 160.76004
v 22.37707 99.71150 108.82243
v 18.16667 91.14203 135.50354
v 37.45367 48.77941 75.90598
v 38.00834 47.12415 34.99733
v 40.41515 86.21266 35.00217
v 32.56013 43.75562 101.05414
v 35.62910 46.25195 95.92152
v 46.84362 39.72775 99.70238
v 44.15788 37.54821 106.99980
v 36.67800 43.24094 89.22463
v 47.51522 37.52858 90.30535
v 35.66106 39.92270 95.41483
v 46.03539 34.34013 99.21270
v 47.51522 37.52858 90.30535
v 36.67800 43.24094 89.22463
v 26.87158 110.06693 75.79577
v 4.94918 72.06272 -133.41113
v 8.05298 68.01371 -117.86375
v 8.57835 73.07632 -118.10707
v 4.51630 75.58270 -134.66263
v 11.74995 73.01196 -100.37659
v 32.25372 84.68907 -38.45205
v 22.93733 108.13652 -39.39660
v 22.22282 44.67327 -36.54884
v 18.81537 55.89273 -55.65171
v 17.48580 59.89426 -66.13979
v 4.84722 81.03315 -134.26868
v 7.69348 80.55096 -118.35468
v 4.84202 76.39941 -135.45261
v 9.36740 73.85593 -118.05778
v 12.30945 73.84251 -100.41570
v 39.88251 47.94709 -9.95018
v 60.41457 35.09985 -28.76116
v 79.55550 26.64000 -8.53662
v 78.52405 24.18827 -24.57171
v 78.26808 24.28457 7.14200
v 57.52833 32.02163 103.35062
v 55.68298 31.27415 106.25638
v 57.27044 31.34863 98.23979
v 56.54939 29.06034 102.78609
v 57.27044 31.34863 98.23979
v 7.19994 125.88480 73.45793
v 36.26449 83.04405 75.82052
v 28.85423 113.61546 34.99842
v 29.21217 75.24338 108.08148
v 23.21982 70.66837 135.50351
v 17.81681 68.25466 160.75816
v 14.05298 68.21220 179.29034
v 10.54162 79.88232 179.29041
v 13.90921 84.48716 160.76651
v 58.57001 29.89124 103.56255
v 58.57001 29.89124 103.56255
v 32.56013 43.75562 101.05414
v 35.66106 39.92270 95.41483
v 26.02346 34.08727 92.88825
v 25.05659 39.73621 108.07892
v 36.67800 43.24094 89.22463
v 29.54416 50.75840 108.08275
v 33.95673 51.59446 94.38698
v 35.62910 46.25195 95.92152
v 19.89387 48.74452 135.49820
v 12.96484 129.76111 54.34008
v 9.36740 73.85593 -118.05778
v 4.84202 76.39941 -135.45261
v 11.74995 73.01196 -100.37659
v 19.99344 72.60035 -85.23181
v 4.51630 75.58270 -134.66263
v 8.57835 73.07632 -118.10707
v 26.36800 71.48526 -55.65945
v 23.62162 72.97187 -66.17398
v 23.70499 71.77102 -66.15392
v 19.82670 73.66740 -85.24343
v 12.30945 73.84251 -100.41570
v 7.92701 149.55310 56.31374
v 3.48273 164.29327 62.40078
v 7.29935 77.90628 194.85965
v 6.11993 59.43364 194.01828
v 9.80665 68.23549 196.54507
v 9.80665 68.23549 196.54507
v 4.67536 68.20396 220.33635
v 7.29935 77.90628 194.85965
v 6.11993 59.43364 194.01828
v 3.50143 45.79286 222.90935
v 1.63362 110.28423 230.59410
v 4.66066 90.06903 221.77434
v 26.36800 71.48526 -55.65945
v 32.44371 55.42650 -36.00543
v 26.36800 71.48526 -55.65945
v 1.33160 23.63887 232.54723
v 0.44351 4.85160 243.00237
v 1.63362 128.50256 240.00121
v 23.62162 72.97187 -66.17398
vt 0.854866 0.778045
vt 0.803298 0.807980
vt 0.850194 0.833715
vt 0.801603 0.848356
vt 0.753108 0.832067
vt 0.760926 0.785594
vt 0.807554 0.765665
vt 0.666828 0.890143
vt 0.695722 0.822573
vt 0.625706 0.825361
vt 0.614073 0.872672
vt 0.330051 0.829750
vt 0.374279 0.831032
vt 0.350315 0.786909
vt 0.404333 0.785876
vt 0.401134 0.867910
vt 0.349255 0.866570
vt 0.418278 0.830645
vt 0.715979 0.755402
vt 0.806697 0.743174
vt 0.710246 0.708710
vt 0.847153 0.878364
vt 0.792264 0.874239
vt 0.763809 0.935801
vt 0.817154 0.961284
vt 0.681057 0.634891
vt 0.612867 0.668567
vt 0.632456 0.716452
vt 0.124063 0.413925
vt 0.128366 0.310244
vt 0.028110 0.303146
vt 0.018546 0.408896
vt 0.702684 0.760377
vt 0.011895 0.103695
vt 0.012733 0.170008
vt 0.064622 0.142986
vt 0.136164 0.096630
vt 0.131888 0.176014
vt 0.069010 0.179368
vt 0.044942 0.170994
vt 0.095673 0.912982
vt 0.091508 0.856003
vt 0.028450 0.863269
vt 0.037419 0.918748
vt 0.151967 0.897064
vt 0.154705 0.837019
vt 0.119730 0.682228
vt 0.135755 0.640474
vt 0.110376 0.646233
vt 0.077154 0.681242
vt 0.152886 0.678826
vt 0.227275 0.912750
vt 0.232361 0.852289
vt 0.203766 0.675426
vt 0.170442 0.634190
vt 0.262571 0.975792
vt 0.280263 0.929188
vt 0.220277 0.959892
vt 0.149400 0.949261
vt 0.095819 0.966634
vt 0.044248 0.966542
vt 0.248248 0.674093
vt 0.231823 0.758003
vt 0.301840 0.766731
vt 0.202057 0.639079
vt 0.429200 0.024589
vt 0.274188 0.018675
vt 0.272642 0.091833
vt 0.421910 0.104159
vt 0.792191 0.133219
vt 0.771050 0.191279
vt 0.860164 0.206361
vt 0.878310 0.155890
vt 0.545515 0.369900
vt 0.567594 0.458377
vt 0.674749 0.414323
vt 0.650140 0.343947
vt 0.267532 0.162820
vt 0.416363 0.174969
vt 0.264032 0.312165
vt 0.996436 0.085460
vt 0.893335 0.075324
vt 0.889539 0.101898
vt 0.986639 0.118556
vt 0.878318 0.143036
vt 0.968357 0.151347
vt 0.984033 0.042935
vt 0.894612 0.042017
vt 0.980964 0.012611
vt 0.895258 0.003585
vt 0.418534 0.410690
vt 0.490764 0.505750
vt 0.477790 0.758999
vt 0.469393 0.773489
vt 0.551395 0.763556
vt 0.551013 0.739880
vt 0.635311 0.754175
vt 0.537131 0.704030
vt 0.460575 0.741661
vt 0.935991 0.802553
vt 0.892368 0.970456
vt 0.916744 0.880679
vt 0.136326 0.027488
vt 0.010171 0.048201
vt 0.899696 0.564287
vt 0.834468 0.586074
vt 0.857189 0.665993
vt 0.929721 0.641652
vt 0.795910 0.680211
vt 0.766963 0.599168
vt 0.538177 0.858192
vt 0.543133 0.820176
vt 0.469997 0.828470
vt 0.451873 0.848588
vt 0.542895 0.788752
vt 0.460798 0.809775
vt 0.624893 0.779070
vt 0.099222 0.166462
vt 0.300306 0.871124
vt 0.032705 0.770251
vt 0.097425 0.763198
vt 0.155946 0.755285
vt 0.801740 0.067701
vt 0.794916 0.078450
vt 0.794737 0.101390
vt 0.793917 0.045510
vt 0.789061 0.014908
vt 0.423317 0.506648
vt 0.416433 0.302770
vt 0.259436 0.431584
vt 0.540037 0.273829
vt 0.646668 0.262910
vt 0.768277 0.252662
vt 0.770481 0.319933
vt 0.860992 0.307595
vt 0.858397 0.254778
vt 0.778785 0.075168
vt 0.775152 0.045076
vt 0.434999 0.822109
vt 0.446526 0.762870
vt 0.509460 0.158058
vt 0.542598 0.135586
vt 0.485422 0.112638
vt 0.486109 0.154670
vt 0.465855 0.158928
vt 0.540123 0.181052
vt 0.489808 0.165766
vt 0.486183 0.186052
vt 0.565039 0.060498
vt 0.500950 0.044832
vt 0.649307 0.177018
vt 0.678863 0.100364
vt 0.113444 0.526193
vt 0.193765 0.533478
vt 0.338584 0.514386
vt 0.790882 0.375965
vt 0.879818 0.353505
vt 0.674897 0.972437
vt 0.684349 0.944621
vt 0.724678 0.972266
vt 0.385563 0.955432
vt 0.365701 0.925184
vt 0.435579 0.921431
vt 0.420885 0.957490
vt 0.310380 0.940889
vt 0.311305 0.929449
vt 0.347042 0.945922
vt 0.490154 0.989977
vt 0.499515 0.916135
vt 0.530665 0.979482
vt 0.459531 0.968850
vt 0.581836 0.975900
vt 0.590762 0.914122
vt 0.630942 0.973132
vt 0.285043 0.933947
vt 0.258502 0.610374
vt 0.325072 0.676702
vt 0.368729 0.652212
vt 0.350393 0.590101
vt 0.953745 0.300873
vt 0.956559 0.334354
vt 0.956559 0.211762
vt 0.956559 0.175167
vt 0.957736 0.253526
vt 0.737795 0.962654
vt 0.669896 0.454633
vt 0.637940 0.459519
vt 0.695269 0.528299
vt 0.693356 0.437231
vt 0.774127 0.512220
vt 0.712889 0.579777
vt 0.780715 0.560988
vt 0.653101 0.603180
vt 0.624886 0.554542
vt 0.566961 0.601940
vt 0.589237 0.635948
vt 0.542084 0.572357
vt 0.588620 0.516562
vt 0.776541 0.455650
vt 0.708288 0.414128
vt 0.616345 0.451062
vt 0.857968 0.739238
vt 0.954342 0.683904
vt 0.423168 0.642923
vt 0.420407 0.590389
vt 0.011894 0.504290
vt 0.447200 0.539730
vt 0.490171 0.990080
vt 0.488096 0.918087
vt 0.417604 0.710942
vt 0.370168 0.700424
vt 0.854490 0.509763
vt 0.858464 0.470480
vt 0.855087 0.543372
vt 0.934259 0.516031
vt 0.943491 0.491325
vt 0.929610 0.535875
vt 0.992476 0.532704
vt 0.517255 0.649028
vt 0.535862 0.672294
vt 0.500691 0.632458
vt 0.476408 0.709249
vt 0.806793 0.743854
vt 0.854866 0.778045
vt 0.850194 0.833715
vt 0.803298 0.807980
vt 0.801603 0.848356
vt 0.753108 0.832067
vt 0.760926 0.785594
vt 0.807554 0.765665
vt 0.625706 0.825361
vt 0.695722 0.822573
vt 0.330051 0.829750
vt 0.350315 0.786909
vt 0.374279 0.831032
vt 0.404333 0.785876
vt 0.401134 0.867910
vt 0.349255 0.866570
vt 0.418278 0.830645
vt 0.715979 0.755402
vt 0.710246 0.708710
vt 0.806697 0.743174
vt 0.847153 0.878364
vt 0.792264 0.874239
vt 0.632456 0.716452
vt 0.124063 0.413925
vt 0.018546 0.408896
vt 0.028110 0.303146
vt 0.128366 0.310244
vt 0.702684 0.760377
vt 0.011895 0.103695
vt 0.064622 0.142986
vt 0.012733 0.170008
vt 0.136164 0.096630
vt 0.131888 0.176014
vt 0.069010 0.179368
vt 0.044942 0.170994
vt 0.095673 0.912982
vt 0.037419 0.918748
vt 0.028450 0.863269
vt 0.091508 0.856003
vt 0.151967 0.897064
vt 0.154705 0.837019
vt 0.119730 0.682228
vt 0.077154 0.681242
vt 0.110376 0.646233
vt 0.135755 0.640474
vt 0.152886 0.678826
vt 0.227275 0.912750
vt 0.232361 0.852289
vt 0.170442 0.634190
vt 0.203766 0.675426
vt 0.262571 0.975792
vt 0.220277 0.959892
vt 0.280263 0.929188
vt 0.149400 0.949261
vt 0.095819 0.966634
vt 0.044248 0.966542
vt 0.248248 0.674093
vt 0.301840 0.766731
vt 0.231823 0.758003
vt 0.202057 0.639079
vt 0.421910 0.104159
vt 0.272642 0.091833
vt 0.860164 0.206361
vt 0.771050 0.191279
vt 0.545515 0.369900
vt 0.650140 0.343947
vt 0.416363 0.174969
vt 0.267532 0.162820
vt 0.264032 0.312165
vt 0.996436 0.085460
vt 0.986639 0.118556
vt 0.889539 0.101898
vt 0.893335 0.075324
vt 0.968357 0.151347
vt 0.877784 0.143181
vt 0.984033 0.042935
vt 0.894612 0.042017
vt 0.895366 0.004702
vt 0.980964 0.012611
vt 0.418534 0.410690
vt 0.477790 0.758999
vt 0.551013 0.739880
vt 0.551395 0.763556
vt 0.469393 0.773489
vt 0.635311 0.754175
vt 0.935991 0.802553
vt 0.916744 0.880679
vt 0.929721 0.641652
vt 0.857189 0.665993
vt 0.795910 0.680211
vt 0.469997 0.828470
vt 0.543133 0.820176
vt 0.460798 0.809775
vt 0.542895 0.788752
vt 0.624893 0.779070
vt 0.099222 0.166462
vt 0.300306 0.871124
vt 0.097425 0.763198
vt 0.032705 0.770251
vt 0.155946 0.755285
vt 0.794916 0.078450
vt 0.801740 0.067701
vt 0.794737 0.101390
vt 0.793917 0.045510
vt 0.789061 0.014908
vt 0.423317 0.506648
vt 0.416433 0.302770
vt 0.259436 0.431584
vt 0.540037 0.273829
vt 0.646668 0.262910
vt 0.768277 0.252662
vt 0.858397 0.254778
vt 0.860992 0.307595
vt 0.770481 0.319933
vt 0.778785 0.075168
vt 0.775152 0.045076
vt 0.509460 0.158058
vt 0.486109 0.154670
vt 0.485422 0.112638
vt 0.542598 0.135586
vt 0.465855 0.158928
vt 0.540123 0.181052
vt 0.486183 0.186052
vt 0.489808 0.165766
vt 0.649307 0.177018
vt 0.338584 0.514386
vt 0.674897 0.972437
vt 0.724678 0.972266
vt 0.385563 0.955432
vt 0.420885 0.957490
vt 0.310380 0.940889
vt 0.347042 0.945922
vt 0.490154 0.989977
vt 0.530665 0.979482
vt 0.459531 0.968850
vt 0.581836 0.975900
vt 0.630942 0.973132
vt 0.350393 0.590101
vt 0.368729 0.652212
vt 0.953745 0.300873
vt 0.956559 0.211762
vt 0.957736 0.253526
vt 0.669896 0.454633
vt 0.695269 0.528299
vt 0.637940 0.459519
vt 0.693356 0.437231
vt 0.774127 0.512220
vt 0.566961 0.601940
vt 0.624886 0.554542
vt 0.857968 0.739238
vt 0.954342 0.683904
vt 0.490171 0.990080
vt 0.854490 0.509763
vt 0.934259 0.516031
vt 0.517255 0.649028
vt 0.806793 0.743854
vn -0.91030 0.19149 -0.36700
vn -0.91912 0.28527 -0.27172
vn -0.90366 0.21868 -0.36822
vn -0.91086 0.19817 -0.36202
vn -0.92955 0.29323 -0.22352
vn -0.93204 0.30344 -0.19807
vn -0.94196 0.21184 -0.26045
vn -0.00000 0.91085 -0.41275
vn -0.74063 0.53243 -0.40986
vn -0.72167 0.62410 -0.29948
vn -0.00000 0.96451 -0.26404
vn -0.86662 0.49803 0.03041
vn -0.92151 0.26036 -0.28815
vn -0.70927 0.64870 -0.27590
vn -0.70107 0.47396 -0.53279
vn -0.92674 -0.25938 -0.27180
vn -0.99981 0.01273 0.01500
vn -0.84378 0.04192 -0.53505
vn -0.89217 -0.27853 -0.35562
vn -0.88860 -0.42020 -0.18391
vn -0.56002 -0.79150 -0.24478
vn -0.59831 0.72987 -0.33064
vn -0.65192 0.63056 -0.42118
vn -0.00000 0.91757 -0.39757
vn 0.00000 0.95095 -0.30933
vn -0.00000 -0.97485 -0.22286
vn -0.00000 -0.97891 -0.20431
vn -0.72849 -0.61723 -0.29721
vn -0.69322 0.70312 -0.15834
vn -0.97596 0.18718 -0.11167
vn -0.96240 0.14866 -0.22736
vn -0.63225 0.72259 -0.27952
vn -0.92084 0.22692 -0.31713
vn -0.38322 -0.82710 -0.41116
vn -0.81620 -0.30466 -0.49091
vn 0.01455 -0.99482 -0.10064
vn -0.47692 -0.86785 -0.13924
vn -0.96341 -0.26799 0.00431
vn -0.77277 0.63381 0.03340
vn -0.31062 0.01493 -0.95042
vn -0.52527 0.84884 -0.05971
vn -0.51788 0.85162 0.08090
vn -0.41415 0.31599 -0.85360
vn -0.07312 0.06394 -0.99527
vn 0.07745 0.48083 0.87339
vn 0.57239 -0.53618 0.62038
vn -0.63314 0.77269 0.04561
vn -0.78805 -0.38908 0.47707
vn -0.78429 -0.36560 -0.50122
vn -0.53322 -0.20664 -0.82035
vn -0.22263 -0.07897 0.97170
vn 0.51779 -0.84422 -0.13850
vn 0.49114 -0.86769 -0.07687
vn 0.34304 -0.93873 0.03330
vn -0.78805 -0.38908 0.47707
vn -0.31062 0.01493 -0.95042
vn -0.07312 0.06394 -0.99527
vn 0.01455 -0.99482 -0.10064
vn -0.21494 -0.01492 0.97651
vn -0.77277 0.63381 0.03340
vn -0.31062 0.01493 -0.95042
vn -0.53322 -0.20664 -0.82035
vn 0.47762 -0.87792 -0.03365
vn 0.03339 -0.63049 -0.77548
vn -0.78429 -0.36560 -0.50122
vn -0.00000 -0.99652 0.08339
vn -0.00000 -0.99682 -0.07974
vn -0.64172 -0.76600 -0.03783
vn -0.64782 -0.76172 0.01038
vn -0.00000 -0.96951 0.24505
vn -0.73008 -0.63572 0.25069
vn -0.75128 -0.60055 0.27369
vn -0.00000 -0.96800 0.25097
vn -0.71209 0.62344 0.32286
vn 0.00000 0.90846 0.41798
vn 0.00000 0.93174 0.36312
vn -0.70809 0.63771 0.30322
vn -0.97193 -0.23527 0.00067
vn -0.97655 -0.21124 0.04156
vn -0.98011 0.19753 0.01924
vn -0.60757 -0.22476 0.76180
vn 0.17947 -0.01866 0.98359
vn -0.49252 0.86538 0.09248
vn -0.82726 0.50252 0.25123
vn 0.04114 -0.66171 -0.74863
vn -0.96789 0.09200 -0.23392
vn 0.03158 -0.99820 0.05100
vn 0.45304 -0.89127 0.01972
vn -0.96789 0.09200 -0.23392
vn 0.04114 -0.66171 -0.74863
vn -0.73031 0.62737 0.27028
vn 0.00000 0.81428 0.58048
vn -0.70117 -0.54349 -0.46148
vn -0.65593 -0.20859 -0.72543
vn -0.97673 -0.08715 -0.19597
vn -0.71978 -0.64583 -0.25461
vn -0.93073 -0.15917 -0.32926
vn -0.00000 -0.97440 -0.22484
vn -0.00000 -0.61067 -0.79188
vn -0.96240 0.14866 -0.22736
vn 0.00000 0.96991 -0.24347
vn -0.63225 0.72259 -0.27952
vn 0.00000 -0.97232 -0.23365
vn 0.00000 -0.89225 -0.45154
vn 0.00000 -0.89225 -0.45154
vn 0.00000 -0.90524 -0.42489
vn -0.51974 -0.70644 -0.48043
vn -0.38322 -0.82710 -0.41116
vn -0.60498 -0.74610 -0.27809
vn 0.00000 -0.96633 -0.25732
vn -0.00000 0.99568 -0.09290
vn -0.68084 0.71434 -0.16182
vn -0.77856 0.54898 -0.30407
vn 0.00000 0.62216 -0.78289
vn -0.96469 0.18964 -0.18277
vn -0.74924 0.15523 -0.64384
vn -0.91724 0.23437 -0.32210
vn -0.21494 -0.01492 0.97651
vn -0.41415 0.31599 -0.85360
vn 0.03339 -0.63049 -0.77548
vn -0.55500 0.82848 -0.07481
vn -0.21189 0.46182 0.86129
vn -0.12529 -0.50070 0.85651
vn -0.67515 0.68975 0.26156
vn -0.89271 0.11315 -0.43619
vn 0.09820 -0.99343 -0.05877
vn -0.89271 0.11315 -0.43619
vn -0.74456 0.46710 0.47691
vn -0.97649 0.14051 0.16344
vn -0.77377 0.63266 -0.03192
vn -0.95821 0.13910 0.24995
vn -0.96816 0.07074 0.24013
vn -0.97692 -0.00676 0.21349
vn -0.77858 0.56153 0.28018
vn -0.70687 0.65786 0.25991
vn -0.97050 0.09384 0.22210
vn -0.90289 -0.32849 0.27727
vn -0.90289 -0.32849 0.27727
vn 0.00000 0.21937 -0.97564
vn 0.00000 -0.36606 -0.93059
vn -0.60757 -0.22476 0.76180
vn -0.56637 -0.72218 0.39709
vn -0.35954 -0.88368 0.29974
vn 0.03158 -0.99820 0.05100
vn -0.96789 0.09200 -0.23392
vn -0.92455 -0.07590 0.37342
vn -0.82726 0.50252 0.25123
vn -0.96507 0.16893 0.20025
vn -0.00000 -0.94434 0.32897
vn 0.00000 -0.97309 0.23041
vn -0.76154 -0.57427 0.30045
vn -0.00000 -0.94854 0.31665
vn 0.00000 0.95220 -0.30547
vn 0.00000 0.92019 -0.39147
vn -0.81442 0.57833 0.04753
vn 0.00000 0.95313 0.30256
vn 0.00000 0.97862 0.20566
vn 0.50464 -0.86257 0.03612
vn 0.00000 -0.99695 0.07798
vn 0.34220 -0.93463 0.09682
vn 0.41753 0.90362 0.09560
vn 0.00000 0.98862 0.15042
vn 0.00000 0.99942 0.03399
vn 0.26328 0.95615 0.12831
vn 0.47924 0.78274 0.39705
vn -0.00000 0.83083 0.55653
vn 0.45743 0.87397 0.16414
vn -0.04003 -0.98786 -0.15013
vn -0.00000 -0.97215 -0.23435
vn 0.11414 -0.98233 -0.14830
vn 0.27890 0.95548 0.09630
vn 0.33607 -0.93711 0.09425
vn -0.00000 -0.99996 -0.00859
vn 0.37975 -0.91816 0.11299
vn 0.00000 0.60260 0.79804
vn 0.00000 0.69231 -0.72160
vn 0.00000 0.79782 -0.60289
vn -0.97527 0.21935 -0.02706
vn -0.97172 0.22244 0.07921
vn -0.85620 0.51259 0.06458
vn 0.00000 0.96865 -0.24842
vn -0.82140 -0.56330 0.08938
vn 0.00000 -0.98032 -0.19742
vn -0.95862 -0.10761 0.26357
vn 0.00000 -0.98536 0.17050
vn -0.95862 -0.10761 0.26357
vn -0.85620 0.51259 0.06458
vn -0.98024 -0.03972 0.19379
vn -0.82140 -0.56330 0.08938
vn -0.99263 -0.09391 0.07657
vn 0.00000 -0.04927 0.99879
vn -0.00000 0.07390 0.99727
vn -0.00000 -0.04925 0.99879
vn -0.99096 0.11048 0.07616
vn -0.99620 0.01867 0.08507
vn 0.00000 -0.26352 0.96465
vn 0.00000 0.66108 -0.75031
vn 0.00000 0.81767 -0.57569
vn -0.00000 -0.81739 -0.57608
vn 0.00000 -0.98032 -0.19742
vn 0.00000 0.96865 -0.24842
vn -0.92712 -0.20214 -0.31556
vn -0.81620 -0.30466 -0.49091
vn -0.00000 0.07353 0.99729
vn -0.00000 0.27730 0.96078
vn 0.00000 0.96991 -0.24347
vn 0.00000 0.51590 0.85665
vn 0.16396 0.98443 -0.06337
vn 0.00000 0.97522 -0.22125
vn 0.00000 0.81342 0.58167
vn 0.00000 0.94904 -0.31514
vn -0.99764 -0.03105 0.06129
vn 0.00000 -0.69360 -0.72036
vn 0.00000 0.23833 0.97118
vn -0.99879 -0.00797 0.04855
vn -0.00000 -0.79416 -0.60771
vn -0.00000 0.28269 0.95921
vn 0.00000 -0.62203 0.78299
vn -0.99789 0.06035 -0.02410
vn 0.00000 -0.35561 0.93463
vn -0.00000 0.74300 -0.66929
vn -0.00000 0.98398 0.17825
vn -0.96504 0.00018 -0.26212
vn 0.91030 0.19149 -0.36700
vn 0.90366 0.21868 -0.36822
vn 0.91912 0.28527 -0.27172
vn 0.91086 0.19817 -0.36202
vn 0.92955 0.29323 -0.22352
vn 0.93204 0.30344 -0.19807
vn 0.94196 0.21184 -0.26045
vn 0.72167 0.62410 -0.29948
vn 0.74063 0.53243 -0.40986
vn 0.86662 0.49803 0.03041
vn 0.70927 0.64870 -0.27590
vn 0.92151 0.26036 -0.28815
vn 0.70107 0.47396 -0.53279
vn 0.92674 -0.25938 -0.27180
vn 0.99981 0.01273 0.01500
vn 0.84378 0.04192 -0.53505
vn 0.89217 -0.27853 -0.35562
vn 0.56002 -0.79150 -0.24478
vn 0.88860 -0.42020 -0.18391
vn 0.59831 0.72987 -0.33064
vn 0.65192 0.63056 -0.42118
vn 0.72849 -0.61723 -0.29721
vn 0.69322 0.70312 -0.15834
vn 0.63225 0.72259 -0.27952
vn 0.96240 0.14866 -0.22736
vn 0.97596 0.18718 -0.11167
vn 0.92084 0.22692 -0.31713
vn 0.38321 -0.82710 -0.41116
vn -0.01455 -0.99482 -0.10064
vn 0.81620 -0.30466 -0.49091
vn 0.47692 -0.86785 -0.13924
vn 0.96341 -0.26799 0.00431
vn 0.77277 0.63381 0.03340
vn 0.31062 0.01493 -0.95042
vn 0.52527 0.84884 -0.05971
vn 0.07312 0.06394 -0.99527
vn 0.41415 0.31599 -0.85360
vn 0.51788 0.85162 0.08090
vn -0.07745 0.48083 0.87339
vn -0.57239 -0.53618 0.62038
vn 0.63314 0.77269 0.04561
vn 0.53322 -0.20664 -0.82035
vn 0.78429 -0.36560 -0.50122
vn 0.78805 -0.38908 0.47707
vn 0.22263 -0.07897 0.97170
vn -0.51779 -0.84422 -0.13850
vn -0.49114 -0.86769 -0.07687
vn 0.78805 -0.38908 0.47707
vn -0.34304 -0.93873 0.03330
vn 0.31062 0.01493 -0.95042
vn -0.01455 -0.99482 -0.10064
vn 0.07312 0.06394 -0.99527
vn 0.21494 -0.01492 0.97651
vn 0.77277 0.63381 0.03340
vn 0.31062 0.01493 -0.95042
vn 0.53322 -0.20664 -0.82035
vn -0.03339 -0.63049 -0.77548
vn -0.47762 -0.87792 -0.03365
vn 0.78429 -0.36560 -0.50122
vn 0.64782 -0.76172 0.01038
vn 0.64172 -0.76600 -0.03783
vn 0.75128 -0.60055 0.27369
vn 0.73008 -0.63572 0.25069
vn 0.71209 0.62344 0.32286
vn 0.70809 0.63771 0.30322
vn 0.97655 -0.21124 0.04156
vn 0.97193 -0.23527 0.00067
vn 0.98011 0.19753 0.01924
vn 0.60757 -0.22476 0.76180
vn 0.82726 0.50252 0.25123
vn 0.49252 0.86537 0.09248
vn -0.17947 -0.01866 0.98359
vn 0.96789 0.09200 -0.23392
vn -0.04114 -0.66171 -0.74863
vn -0.03158 -0.99820 0.05100
vn -0.45304 -0.89127 0.01972
vn -0.04114 -0.66171 -0.74863
vn 0.96789 0.09200 -0.23392
vn 0.73031 0.62737 0.27028
vn 0.70117 -0.54349 -0.46148
vn 0.71978 -0.64583 -0.25461
vn 0.97673 -0.08715 -0.19597
vn 0.65593 -0.20859 -0.72543
vn 0.93073 -0.15917 -0.32926
vn 0.96240 0.14866 -0.22736
vn 0.63225 0.72259 -0.27952
vn 0.38321 -0.82710 -0.41116
vn 0.51974 -0.70644 -0.48043
vn 0.60498 -0.74610 -0.27809
vn 0.77856 0.54898 -0.30407
vn 0.68084 0.71434 -0.16182
vn 0.74924 0.15523 -0.64384
vn 0.96469 0.18964 -0.18277
vn 0.91724 0.23437 -0.32210
vn 0.21494 -0.01492 0.97651
vn 0.41415 0.31599 -0.85360
vn 0.55500 0.82848 -0.07481
vn -0.03339 -0.63049 -0.77548
vn 0.21189 0.46182 0.86129
vn 0.67515 0.68975 0.26156
vn 0.12529 -0.50070 0.85651
vn 0.89271 0.11315 -0.43619
vn -0.09820 -0.99343 -0.05877
vn 0.89271 0.11315 -0.43619
vn 0.74456 0.46710 0.47691
vn 0.97649 0.14051 0.16344
vn 0.77377 0.63266 -0.03192
vn 0.95821 0.13910 0.24995
vn 0.96816 0.07074 0.24013
vn 0.97692 -0.00676 0.21349
vn 0.97050 0.09384 0.22210
vn 0.70687 0.65786 0.25991
vn 0.77858 0.56153 0.28018
vn 0.90289 -0.32849 0.27727
vn 0.90289 -0.32849 0.27727
vn 0.60757 -0.22476 0.76180
vn -0.03158 -0.99820 0.05100
vn 0.35954 -0.88368 0.29974
vn 0.56637 -0.72218 0.39709
vn 0.96789 0.09200 -0.23392
vn 0.92455 -0.07590 0.37342
vn 0.96507 0.16893 0.20025
vn 0.82726 0.50252 0.25123
vn 0.76154 -0.57427 0.30045
vn 0.81442 0.57833 0.04753
vn -0.50464 -0.86257 0.03612
vn -0.34220 -0.93463 0.09682
vn -0.41753 0.90362 0.09560
vn -0.26328 0.95615 0.12831
vn -0.47924 0.78274 0.39705
vn -0.45743 0.87397 0.16414
vn 0.04003 -0.98786 -0.15013
vn -0.11414 -0.98233 -0.14830
vn -0.27890 0.95548 0.09630
vn -0.33607 -0.93711 0.09425
vn -0.37975 -0.91816 0.11299
vn 0.97172 0.22244 0.07921
vn 0.97527 0.21935 -0.02706
vn 0.85620 0.51259 0.06458
vn 0.82140 -0.56330 0.08938
vn 0.95862 -0.10761 0.26357
vn 0.95862 -0.10761 0.26357
vn 0.98024 -0.03972 0.19379
vn 0.85620 0.51259 0.06458
vn 0.82140 -0.56330 0.08938
vn 0.99263 -0.09391 0.07657
vn 0.99620 0.01867 0.08507
vn 0.99096 0.11048 0.07616
vn 0.92712 -0.20214 -0.31556
vn 0.81620 -0.30466 -0.49091
vn -0.16396 0.98443 -0.06337
vn 0.99764 -0.03105 0.06129
vn 0.99879 -0.00797 0.04855
vn 0.99789 0.06035 -0.02410
vn 0.96504 0.00018 -0.26212
f 167/167/167 162/162/162 161/161/161
f 163/163/163 164/164/164 161/161/161
f 161/161/161 162/162/162 163/163/163
f 162/162/162 167/167/167 165/165/165
f 354/354/354 351/351/351 162/162/162
f 162/162/162 166/166/166 353/353/353
f 353/353/353 354/354/354 162/162/162
f 163/163/163 162/162/162 351/351/351
f 165/165/165 166/166/166 162/162/162
f 175/175/175 166/166/166 165/165/165
f 175/175/175 353/353/353 166/166/166
f 351/351/351 352/352/352 163/163/163
f 352/352/352 357/357/357 163/163/163
f 163/163/163 357/357/357 374/374/374
f 374/374/374 209/209/209 163/163/163
f 163/163/163 209/209/209 208/208/208
f 208/208/208 171/171/171 163/163/163
f 164/164/164 163/163/163 171/171/171
f 258/258/258 277/277/277 278/278/278
f 278/278/278 259/259/259 258/258/258
f 277/277/277 258/258/258 262/262/262
f 262/262/262 258/258/258 261/261/261
f 260/260/260 261/261/261 258/258/258
f 258/258/258 259/259/259 260/260/260
f 262/262/262 276/276/276 277/277/277
f 274/274/274 276/276/276 262/262/262
f 262/262/262 269/269/269 274/274/274
f 269/269/269 262/262/262 263/263/263
f 261/261/261 263/263/263 262/262/262
f 322/322/322 263/263/263 261/261/261
f 261/261/261 320/320/320 322/322/322
f 320/320/320 261/261/261 260/260/260
f 260/260/260 321/321/321 320/320/320
f 322/322/322 320/320/320 264/264/264
f 320/320/320 321/321/321 265/265/265
f 265/265/265 264/264/264 320/320/320
f 263/263/263 322/322/322 281/281/281
f 272/272/272 281/281/281 322/322/322
f 322/322/322 268/268/268 272/272/272
f 264/264/264 268/268/268 322/322/322
f 281/281/281 270/270/270 263/263/263
f 263/263/263 270/270/270 269/269/269
f 270/270/270 281/281/281 280/280/280
f 281/281/281 272/272/272 279/279/279
f 279/279/279 280/280/280 281/281/281
f 282/282/282 279/279/279 272/272/272
f 220/220/220 196/196/196 195/195/195
f 377/377/377 220/220/220 222/222/222
f 219/219/219 222/222/222 220/220/220
f 195/195/195 219/219/219 220/220/220
f 219/219/219 195/195/195 197/197/197
f 221/221/221 222/222/222 219/219/219
f 197/197/197 221/221/221 219/219/219
f 221/221/221 377/377/377 222/222/222
f 377/377/377 221/221/221 197/197/197
f 368/368/368 366/366/366 365/365/365
f 199/199/199 368/368/368 200/200/200
f 369/369/369 368/368/368 199/199/199
f 369/369/369 366/366/366 368/368/368
f 369/369/369 199/199/199 213/213/213
f 213/213/213 199/199/199 190/190/190
f 192/192/192 369/369/369 375/375/375
f 213/213/213 375/375/375 369/369/369
f 191/191/191 366/366/366 369/369/369
f 173/173/173 159/159/159 158/158/158
f 158/158/158 174/174/174 173/173/173
f 158/158/158 159/159/159 160/160/160
f 173/173/173 169/169/169 356/356/356
f 356/356/356 358/358/358 173/173/173
f 173/173/173 359/359/359 349/349/349
f 349/349/349 159/159/159 173/173/173
f 358/358/358 359/359/359 173/173/173
f 173/173/173 172/172/172 170/170/170
f 170/170/170 169/169/169 173/173/173
f 172/172/172 173/173/173 174/174/174
f 350/350/350 185/185/185 159/159/159
f 349/349/349 350/350/350 159/159/159
f 160/160/160 159/159/159 185/185/185
f 168/168/168 169/169/169 170/170/170
f 355/355/355 356/356/356 169/169/169
f 41/41/41 44/44/44 61/61/61
f 61/61/61 60/60/60 41/41/41
f 45/45/45 41/41/41 60/60/60
f 42/42/42 41/41/41 45/45/45
f 43/43/43 44/44/44 41/41/41
f 41/41/41 42/42/42 43/43/43
f 121/121/121 120/120/120 43/43/43
f 43/43/43 42/42/42 121/121/121
f 122/122/122 121/121/121 42/42/42
f 42/42/42 46/46/46 122/122/122
f 45/45/45 46/46/46 42/42/42
f 47/47/47 121/121/121 122/122/122
f 121/121/121 47/47/47 50/50/50
f 50/50/50 120/120/120 121/121/121
f 63/63/63 122/122/122 46/46/46
f 54/54/54 51/51/51 122/122/122
f 122/122/122 63/63/63 54/54/54
f 122/122/122 51/51/51 47/47/47
f 46/46/46 53/53/53 63/63/63
f 46/46/46 45/45/45 52/52/52
f 52/52/52 53/53/53 46/46/46
f 64/64/64 63/63/63 53/53/53
f 63/63/63 64/64/64 62/62/62
f 62/62/62 54/54/54 63/63/63
f 65/65/65 54/54/54 62/62/62
f 55/55/55 54/54/54 65/65/65
f 51/51/51 54/54/54 55/55/55
f 47/47/47 51/51/51 48/48/48
f 256/256/256 253/253/253 257/257/257
f 49/49/49 50/50/50 47/47/47
f 47/47/47 48/48/48 49/49/49
f 53/53/53 119/119/119 64/64/64
f 119/119/119 53/53/53 52/52/52
f 52/52/52 57/57/57 119/119/119
f 58/58/58 52/52/52 45/45/45
f 52/52/52 58/58/58 56/56/56
f 56/56/56 57/57/57 52/52/52
f 45/45/45 59/59/59 58/58/58
f 60/60/60 59/59/59 45/45/45
f 39/39/39 38/38/38 118/118/118
f 38/38/38 39/39/39 31/31/31
f 31/31/31 30/30/30 38/38/38
f 38/38/38 30/30/30 80/80/80
f 38/38/38 78/78/78 68/68/68
f 80/80/80 78/78/78 38/38/38
f 91/91/91 129/129/129 80/80/80
f 80/80/80 130/130/130 91/91/91
f 78/78/78 80/80/80 129/129/129
f 129/129/129 79/79/79 78/78/78
f 68/68/68 78/78/78 79/79/79
f 129/129/129 148/148/148 79/79/79
f 129/129/129 131/131/131 148/148/148
f 74/74/74 131/131/131 129/129/129
f 129/129/129 91/91/91 74/74/74
f 145/145/145 69/69/69 79/79/79
f 145/145/145 79/79/79 148/148/148
f 255/255/255 249/249/249 248/248/248
f 256/256/256 248/248/248 253/253/253
f 248/248/248 256/256/256 255/255/255
f 256/256/256 318/318/318 255/255/255
f 284/284/284 290/290/290 255/255/255
f 255/255/255 254/254/254 284/284/284
f 255/255/255 318/318/318 252/252/252
f 254/254/254 255/255/255 252/252/252
f 290/290/290 289/289/289 329/329/329
f 289/289/289 290/290/290 284/284/284
f 67/67/67 284/284/284 254/254/254
f 284/284/284 283/283/283 289/289/289
f 284/284/284 67/67/67 66/66/66
f 66/66/66 283/283/283 284/284/284
f 254/254/254 103/103/103 67/67/67
f 103/103/103 254/254/254 251/251/251
f 252/252/252 251/251/251 254/254/254
f 252/252/252 257/257/257 253/253/253
f 29/29/29 32/32/32 206/206/206
f 206/206/206 153/153/153 29/29/29
f 154/154/154 130/130/130 29/29/29
f 29/29/29 153/153/153 154/154/154
f 80/80/80 30/30/30 29/29/29
f 29/29/29 130/130/130 80/80/80
f 31/31/31 32/32/32 29/29/29
f 29/29/29 30/30/30 31/31/31
f 348/348/348 154/154/154 330/330/330
f 154/154/154 348/348/348 360/360/360
f 360/360/360 176/176/176 154/154/154
f 154/154/154 153/153/153 246/246/246
f 246/246/246 330/330/330 154/154/154
f 155/155/155 130/130/130 154/154/154
f 154/154/154 176/176/176 179/179/179
f 179/179/179 155/155/155 154/154/154
f 246/246/246 153/153/153 206/206/206
f 206/206/206 247/247/247 246/246/246
f 291/291/291 330/330/330 246/246/246
f 246/246/246 249/249/249 291/291/291
f 248/248/248 249/249/249 246/246/246
f 246/246/246 247/247/247 248/248/248
f 348/348/348 330/330/330 302/302/302
f 302/302/302 330/330/330 291/291/291
f 291/291/291 329/329/329 302/302/302
f 329/329/329 291/291/291 290/290/290
f 255/255/255 290/290/290 291/291/291
f 291/291/291 249/249/249 255/255/255
f 214/214/214 217/217/217 215/215/215
f 217/217/217 376/376/376 218/218/218
f 217/217/217 218/218/218 215/215/215
f 70/70/70 152/152/152 151/151/151
f 344/344/344 342/342/342 347/347/347
f 339/339/339 342/342/342 344/344/344
f 341/341/341 342/342/342 339/339/339
f 66/66/66 150/150/150 341/341/341
f 341/341/341 283/283/283 66/66/66
f 283/283/283 341/341/341 340/340/340
f 339/339/339 340/340/340 341/341/341
f 346/346/346 339/339/339 344/344/344
f 343/343/343 346/346/346 345/345/345
f 344/344/344 345/345/345 346/346/346
f 344/344/344 347/347/347 332/332/332
f 332/332/332 331/331/331 344/344/344
f 331/331/331 345/345/345 344/344/344
f 329/329/329 289/289/289 345/345/345
f 329/329/329 345/345/345 331/331/331
f 345/345/345 289/289/289 343/343/343
f 343/343/343 289/289/289 283/283/283
f 340/340/340 343/343/343 283/283/283
f 287/287/287 302/302/302 329/329/329
f 329/329/329 331/331/331 287/287/287
f 288/288/288 287/287/287 331/331/331
f 331/331/331 332/332/332 288/288/288
f 333/333/333 332/332/332 347/347/347
f 336/336/336 288/288/288 332/332/332
f 332/332/332 333/333/333 336/336/336
f 223/223/223 33/33/33 6/6/6
f 251/251/251 252/252/252 253/253/253
f 251/251/251 104/104/104 103/103/103
f 67/67/67 103/103/103 37/37/37
f 34/34/34 37/37/37 103/103/103
f 103/103/103 104/104/104 34/34/34
f 37/37/37 68/68/68 67/67/67
f 66/66/66 67/67/67 68/68/68
f 68/68/68 37/37/37 38/38/38
f 36/36/36 38/38/38 37/37/37
f 37/37/37 34/34/34 36/36/36
f 34/34/34 35/35/35 36/36/36
f 38/38/38 36/36/36 118/118/118
f 35/35/35 40/40/40 36/36/36
f 39/39/39 35/35/35 31/31/31
f 39/39/39 40/40/40 35/35/35
f 303/303/303 304/304/304 305/305/305
f 305/305/305 304/304/304 245/245/245
f 245/245/245 307/307/307 305/305/305
f 240/240/240 307/307/307 245/245/245
f 79/79/79 69/69/69 68/68/68
f 68/68/68 69/69/69 66/66/66
f 66/66/66 69/69/69 143/143/143
f 69/69/69 145/145/145 144/144/144
f 144/144/144 143/143/143 69/69/69
f 148/148/148 147/147/147 145/145/145
f 131/131/131 146/146/146 148/148/148
f 147/147/147 148/148/148 146/146/146
f 146/146/146 141/141/141 147/147/147
f 146/146/146 131/131/131 132/132/132
f 132/132/132 151/151/151 146/146/146
f 146/146/146 151/151/151 142/142/142
f 141/141/141 146/146/146 142/142/142
f 143/143/143 144/144/144 141/141/141
f 141/141/141 142/142/142 143/143/143
f 152/152/152 149/149/149 142/142/142
f 142/142/142 151/151/151 152/152/152
f 143/143/143 142/142/142 149/149/149
f 143/143/143 150/150/150 66/66/66
f 149/149/149 150/150/150 143/143/143
f 342/342/342 149/149/149 152/152/152
f 149/149/149 342/342/342 341/341/341
f 341/341/341 150/150/150 149/149/149
f 347/347/347 152/152/152 70/70/70
f 152/152/152 347/347/347 342/342/342
f 17/17/17 13/13/13 12/12/12
f 12/12/12 13/13/13 14/14/14
f 16/16/16 13/13/13 17/17/17
f 13/13/13 16/16/16 18/18/18
f 13/13/13 18/18/18 15/15/15
f 14/14/14 13/13/13 15/15/15
f 238/238/238 233/233/233 235/235/235
f 233/233/233 234/234/234 235/235/235
f 237/237/237 238/238/238 235/235/235
f 235/235/235 239/239/239 237/237/237
f 235/235/235 236/236/236 239/239/239
f 234/234/234 236/236/236 235/235/235
f 313/313/313 315/315/315 316/316/316
f 317/317/317 250/250/250 232/232/232
f 229/229/229 250/250/250 378/378/378
f 229/229/229 232/232/232 250/250/250
f 378/378/378 230/230/230 229/229/229
f 228/228/228 232/232/232 229/229/229
f 229/229/229 230/230/230 226/226/226
f 228/228/228 229/229/229 226/226/226
f 230/230/230 378/378/378 372/372/372
f 372/372/372 224/224/224 230/230/230
f 230/230/230 224/224/224 226/226/226
f 225/225/225 227/227/227 226/226/226
f 227/227/227 228/228/228 226/226/226
f 224/224/224 225/225/225 226/226/226
f 228/228/228 227/227/227 244/244/244
f 232/232/232 228/228/228 244/244/244
f 227/227/227 225/225/225 243/243/243
f 243/243/243 244/244/244 227/227/227
f 225/225/225 308/308/308 309/309/309
f 309/309/309 243/243/243 225/225/225
f 224/224/224 308/308/308 225/225/225
f 308/308/308 224/224/224 372/372/372
f 372/372/372 373/373/373 308/308/308
f 312/312/312 311/311/311 372/372/372
f 372/372/372 242/242/242 312/312/312
f 373/373/373 372/372/372 311/311/311
f 311/311/311 310/310/310 373/373/373
f 106/106/106 311/311/311 312/312/312
f 311/311/311 106/106/106 105/105/105
f 105/105/105 310/310/310 311/311/311
f 110/110/110 312/312/312 241/241/241
f 241/241/241 312/312/312 242/242/242
f 312/312/312 110/110/110 106/106/106
f 240/240/240 241/241/241 242/242/242
f 241/241/241 26/26/26 110/110/110
f 245/245/245 241/241/241 240/240/240
f 27/27/27 26/26/26 241/241/241
f 241/241/241 245/245/245 27/27/27
f 110/110/110 26/26/26 21/21/21
f 21/21/21 109/109/109 110/110/110
f 106/106/106 110/110/110 109/109/109
f 109/109/109 107/107/107 106/106/106
f 271/271/271 282/282/282 272/272/272
f 268/268/268 271/271/271 272/272/272
f 264/264/264 267/267/267 268/268/268
f 266/266/266 267/267/267 264/264/264
f 264/264/264 265/265/265 266/266/266
f 280/280/280 319/319/319 270/270/270
f 269/269/269 270/270/270 319/319/319
f 319/319/319 275/275/275 269/269/269
f 269/269/269 275/275/275 273/273/273
f 273/273/273 274/274/274 269/269/269
f 24/24/24 23/23/23 9/9/9
f 5/5/5 23/23/23 4/4/4
f 9/9/9 23/23/23 5/5/5
f 4/4/4 2/2/2 5/5/5
f 5/5/5 6/6/6 9/9/9
f 5/5/5 2/2/2 6/6/6
f 117/117/117 10/10/10 9/9/9
f 9/9/9 33/33/33 117/117/117
f 6/6/6 33/33/33 9/9/9
f 8/8/8 9/9/9 10/10/10
f 231/231/231 232/232/232 8/8/8
f 8/8/8 11/11/11 231/231/231
f 10/10/10 11/11/11 8/8/8
f 10/10/10 117/117/117 115/115/115
f 115/115/115 112/112/112 10/10/10
f 11/11/11 10/10/10 112/112/112
f 314/314/314 231/231/231 11/11/11
f 11/11/11 111/111/111 314/314/314
f 7/7/7 1/1/1 202/202/202
f 7/7/7 2/2/2 1/1/1
f 202/202/202 1/1/1 100/100/100
f 1/1/1 3/3/3 100/100/100
f 1/1/1 2/2/2 3/3/3
f 6/6/6 7/7/7 223/223/223
f 202/202/202 223/223/223 7/7/7
f 6/6/6 2/2/2 7/7/7
f 109/109/109 20/20/20 202/202/202
f 202/202/202 107/107/107 109/109/109
f 107/107/107 202/202/202 203/203/203
f 100/100/100 203/203/203 202/202/202
f 102/102/102 100/100/100 3/3/3
f 3/3/3 22/22/22 102/102/102
f 102/102/102 22/22/22 25/25/25
f 25/25/25 101/101/101 102/102/102
f 3/3/3 2/2/2 4/4/4
f 22/22/22 3/3/3 4/4/4
f 4/4/4 23/23/23 22/22/22
f 24/24/24 25/25/25 22/22/22
f 22/22/22 23/23/23 24/24/24
f 309/309/309 101/101/101 25/25/25
f 25/25/25 243/243/243 309/309/309
f 243/243/243 25/25/25 24/24/24
f 232/232/232 244/244/244 24/24/24
f 24/24/24 8/8/8 232/232/232
f 24/24/24 244/244/244 243/243/243
f 9/9/9 8/8/8 24/24/24
f 155/155/155 128/128/128 91/91/91
f 91/91/91 130/130/130 155/155/155
f 91/91/91 128/128/128 92/92/92
f 128/128/128 155/155/155 179/179/179
f 207/207/207 128/128/128 205/205/205
f 92/92/92 128/128/128 207/207/207
f 179/179/179 205/205/205 128/128/128
f 92/92/92 207/207/207 328/328/328
f 302/302/302 92/92/92 328/328/328
f 207/207/207 205/205/205 328/328/328
f 328/328/328 205/205/205 360/360/360
f 360/360/360 205/205/205 204/204/204
f 204/204/204 205/205/205 179/179/179
f 179/179/179 178/178/178 204/204/204
f 178/178/178 179/179/179 176/176/176
f 361/361/361 204/204/204 210/210/210
f 204/204/204 361/361/361 360/360/360
f 178/178/178 210/210/210 204/204/204
f 360/360/360 348/348/348 328/328/328
f 176/176/176 360/360/360 361/361/361
f 302/302/302 328/328/328 348/348/348
f 211/211/211 361/361/361 210/210/210
f 211/211/211 210/210/210 178/178/178
f 178/178/178 177/177/177 211/211/211
f 176/176/176 177/177/177 178/178/178
f 361/361/361 177/177/177 176/176/176
f 361/361/361 211/211/211 177/177/177
f 298/298/298 292/292/292 295/295/295
f 294/294/294 295/295/295 292/292/292
f 292/292/292 293/293/293 294/294/294
f 300/300/300 301/301/301 298/298/298
f 298/298/298 299/299/299 300/300/300
f 295/295/295 299/299/299 298/298/298
f 299/299/299 295/295/295 324/324/324
f 323/323/323 324/324/324 295/295/295
f 295/295/295 294/294/294 323/323/323
f 300/300/300 299/299/299 326/326/326
f 324/324/324 326/326/326 299/299/299
f 326/326/326 327/327/327 300/300/300
f 338/338/338 326/326/326 324/324/324
f 327/327/327 326/326/326 338/338/338
f 323/323/323 337/337/337 324/324/324
f 323/323/323 325/325/325 337/337/337
f 325/325/325 323/323/323 294/294/294
f 294/294/294 297/297/297 325/325/325
f 296/296/296 297/297/297 294/294/294
f 294/294/294 293/293/293 296/296/296
f 82/82/82 81/81/81 87/87/87
f 83/83/83 84/84/84 81/81/81
f 81/81/81 82/82/82 83/83/83
f 123/123/123 82/82/82 88/88/88
f 124/124/124 83/83/83 82/82/82
f 82/82/82 123/123/123 124/124/124
f 87/87/87 88/88/88 82/82/82
f 90/90/90 88/88/88 87/87/87
f 87/87/87 89/89/89 90/90/90
f 126/126/126 88/88/88 90/90/90
f 88/88/88 126/126/126 123/123/123
f 138/138/138 123/123/123 126/126/126
f 124/124/124 123/123/123 137/137/137
f 124/124/124 137/137/137 125/125/125
f 83/83/83 124/124/124 125/125/125
f 125/125/125 85/85/85 83/83/83
f 83/83/83 85/85/85 86/86/86
f 86/86/86 84/84/84 83/83/83
f 127/127/127 138/138/138 126/126/126
f 90/90/90 127/127/127 126/126/126
f 189/189/189 186/186/186 188/188/188
f 186/186/186 187/187/187 188/188/188
f 199/199/199 200/200/200 189/189/189
f 190/190/190 199/199/199 189/189/189
f 190/190/190 189/189/189 188/188/188
f 194/194/194 188/188/188 187/187/187
f 191/191/191 188/188/188 194/194/194
f 190/190/190 188/188/188 191/191/191
f 201/201/201 198/198/198 187/187/187
f 187/187/187 198/198/198 194/194/194
f 194/194/194 198/198/198 197/197/197
f 197/197/197 195/195/195 194/194/194
f 194/194/194 193/193/193 191/191/191
f 193/193/193 194/194/194 195/195/195
f 201/201/201 367/367/367 198/198/198
f 367/367/367 371/371/371 198/198/198
f 197/197/197 198/198/198 371/371/371
f 371/371/371 367/367/367 366/366/366
f 365/365/365 366/366/366 367/367/367
f 371/371/371 370/370/370 197/197/197
f 371/371/371 366/366/366 191/191/191
f 191/191/191 193/193/193 371/371/371
f 370/370/370 371/371/371 193/193/193
f 193/193/193 196/196/196 370/370/370
f 195/195/195 196/196/196 193/193/193
f 197/197/197 370/370/370 377/377/377
f 220/220/220 377/377/377 370/370/370
f 370/370/370 196/196/196 220/220/220
f 105/105/105 106/106/106 107/107/107
f 107/107/107 108/108/108 105/105/105
f 203/203/203 108/108/108 107/107/107
f 21/21/21 20/20/20 109/109/109
f 19/19/19 21/21/21 28/28/28
f 27/27/27 28/28/28 21/21/21
f 21/21/21 26/26/26 27/27/27
f 19/19/19 20/20/20 21/21/21
f 98/98/98 27/27/27 245/245/245
f 28/28/28 27/27/27 98/98/98
f 28/28/28 97/97/97 19/19/19
f 98/98/98 96/96/96 28/28/28
f 95/95/95 97/97/97 28/28/28
f 28/28/28 96/96/96 95/95/95
f 245/245/245 304/304/304 98/98/98
f 303/303/303 99/99/99 98/98/98
f 98/98/98 304/304/304 303/303/303
f 93/93/93 96/96/96 98/98/98
f 98/98/98 99/99/99 93/93/93
f 95/95/95 96/96/96 93/93/93
f 93/93/93 94/94/94 95/95/95
f 94/94/94 93/93/93 99/99/99
f 99/99/99 303/303/303 306/306/306
f 306/306/306 140/140/140 99/99/99
f 99/99/99 140/140/140 94/94/94
f 305/305/305 306/306/306 303/303/303
f 156/156/156 76/76/76 288/288/288
f 288/288/288 336/336/336 156/156/156
f 287/287/287 288/288/288 76/76/76
f 302/302/302 287/287/287 75/75/75
f 76/76/76 75/75/75 287/287/287
f 77/77/77 76/76/76 156/156/156
f 76/76/76 77/77/77 74/74/74
f 74/74/74 75/75/75 76/76/76
f 75/75/75 92/92/92 302/302/302
f 75/75/75 74/74/74 91/91/91
f 91/91/91 92/92/92 75/75/75
f 131/131/131 74/74/74 77/77/77
f 132/132/132 77/77/77 134/134/134
f 156/156/156 134/134/134 77/77/77
f 77/77/77 132/132/132 131/131/131
f 151/151/151 132/132/132 133/133/133
f 134/134/134 133/133/133 132/132/132
f 135/135/135 134/134/134 156/156/156
f 133/133/133 134/134/134 135/135/135
f 133/133/133 71/71/71 151/151/151
f 72/72/72 71/71/71 133/133/133
f 133/133/133 136/136/136 72/72/72
f 135/135/135 136/136/136 133/133/133
f 151/151/151 71/71/71 70/70/70
f 70/70/70 71/71/71 72/72/72
f 184/184/184 182/182/182 72/72/72
f 72/72/72 136/136/136 184/184/184
f 73/73/73 72/72/72 182/182/182
f 72/72/72 73/73/73 70/70/70
f 136/136/136 135/135/135 180/180/180
f 180/180/180 184/184/184 136/136/136
f 180/180/180 135/135/135 157/157/157
f 156/156/156 157/157/157 135/135/135
f 157/157/157 181/181/181 180/180/180
f 157/157/157 335/335/335 362/362/362
f 362/362/362 181/181/181 157/157/157
f 335/335/335 157/157/157 156/156/156
f 362/362/362 335/335/335 334/334/334
f 156/156/156 336/336/336 335/335/335
f 335/335/335 336/336/336 333/333/333
f 333/333/333 334/334/334 335/335/335
f 334/334/334 364/364/364 362/362/362
f 285/285/285 334/334/334 333/333/333
f 364/364/364 334/334/334 285/285/285
f 347/347/347 286/286/286 333/333/333
f 333/333/333 286/286/286 285/285/285
f 285/285/285 363/363/363 364/364/364
f 363/363/363 285/285/285 73/73/73
f 285/285/285 286/286/286 70/70/70
f 70/70/70 73/73/73 285/285/285
f 70/70/70 286/286/286 347/347/347
f 73/73/73 183/183/183 363/363/363
f 182/182/182 183/183/183 73/73/73
f 112/112/112 111/111/111 11/11/11
f 232/232/232 231/231/231 317/317/317
f 231/231/231 314/314/314 316/316/316
f 316/316/316 317/317/317 231/231/231
f 316/316/316 314/314/314 313/313/313
f 313/313/313 314/314/314 111/111/111
f 111/111/111 114/114/114 313/313/313
f 113/113/113 114/114/114 111/111/111
f 111/111/111 112/112/112 113/113/113
f 113/113/113 112/112/112 115/115/115
f 115/115/115 116/116/116 113/113/113
f 114/114/114 113/113/113 116/116/116
f 315/315/315 313/313/313 114/114/114
f 114/114/114 139/139/139 315/315/315
f 116/116/116 139/139/139 114/114/114
f 369/369/369 192/192/192 191/191/191
f 375/375/375 213/213/213 216/216/216
f 216/216/216 213/213/213 212/212/212
f 190/190/190 212/212/212 213/213/213
f 212/212/212 190/190/190 192/192/192
f 191/191/191 192/192/192 190/190/190
f 375/375/375 214/214/214 192/192/192
f 192/192/192 214/214/214 212/212/212
f 214/214/214 375/375/375 376/376/376
f 216/216/216 376/376/376 375/375/375
f 376/376/376 216/216/216 218/218/218
f 215/215/215 218/218/218 216/216/216
f 212/212/212 215/215/215 216/216/216
f 215/215/215 212/212/212 214/214/214
f 376/376/376 217/217/217 214/214/214
