# psephoderma_ad_b reconstructed from live game memory
v -7.53033 28.85954 1.35316
v -7.04502 28.19740 7.33865
v -14.12771 25.19191 7.25638
v -14.87188 25.02884 1.35316
v -7.50476 28.82814 -2.71363
v -14.50594 24.98507 -2.68872
v -13.65656 25.04060 -7.26899
v -6.99124 28.15880 -6.91031
v -12.73911 25.73821 10.61300
v -21.46487 13.57414 -8.42295
v -21.92320 11.00430 -10.95084
v -19.48419 15.24319 -9.53890
v -17.82010 13.49348 -9.97611
v -19.04297 11.13045 -9.29336
v -17.78548 12.40604 -6.81449
v -14.48463 14.18964 -8.72187
v -15.92581 11.55727 -9.52716
v -20.75167 16.81027 -7.46359
v -23.43294 14.18790 -8.96766
v -18.48452 9.62218 -10.24044
v -15.92581 11.55727 -9.52716
v -18.48452 9.62218 -10.24044
v -19.67382 14.44975 -6.21368
v -18.16096 17.91370 -6.94355
v -16.32775 16.46803 -9.43896
v -14.48463 14.18964 -8.72187
v -17.25688 14.77798 -5.29539
v -6.26157 26.83082 -11.51230
v -9.19725 26.02504 -10.87036
v -9.46240 25.29844 -11.69710
v -6.29802 26.05655 -12.43980
v -12.04018 25.28483 -10.21399
v -13.55954 25.15070 10.77266
v -14.95627 24.59746 7.12004
v -15.66768 24.20987 1.35316
v -14.44988 24.16161 -7.30638
v -12.66021 24.38097 -10.66852
v -0.00000 26.72165 -12.44522
v -0.00000 27.36501 -11.33705
v -0.00000 28.87053 -6.89794
v -9.51737 26.32220 12.51384
v -9.66888 25.74234 13.32061
v -2.22729 25.26497 -21.33614
v -2.43165 23.23516 -21.25503
v -2.56201 23.40549 -22.85782
v -4.07110 22.37462 -21.97673
v -4.71978 22.47188 -20.74796
v -3.46730 24.07202 -19.74548
v -4.29591 19.82891 -21.28632
v -3.49605 20.32808 -22.89783
v -0.57184 22.21191 -29.05159
v -1.88173 22.44154 -25.34150
v -2.32204 21.26955 -25.28253
v -0.86866 21.40299 -29.00544
v -0.86866 21.40299 -29.00544
v -2.32204 21.26955 -25.28253
v 0.00000 21.16206 -23.62400
v 0.00000 21.82697 -29.01436
v -1.16921 23.33719 -25.41754
v 0.00000 23.86136 -25.38973
v 0.00000 25.21951 -22.98111
v -1.29894 24.64255 -22.94397
v 0.00000 21.16206 -23.62400
v -2.32204 21.26955 -25.28253
v -0.70244 21.03215 -28.80817
v -0.00000 20.96998 -28.88544
v 0.00000 26.31239 -21.34092
v -3.79059 24.32299 -17.38343
v -1.71302 25.90717 -19.28090
v -1.67909 25.31234 -17.10933
v -2.22929 24.43183 -21.32025
v -3.02380 23.61012 -21.29171
v -2.48046 23.32916 -22.16328
v 0.00000 26.84322 -19.26356
v -0.70244 21.03215 -28.80817
v -2.26156 20.39509 -25.18747
v -0.71576 20.39692 -28.67559
v -3.14661 22.79412 -21.60160
v -3.29635 22.94968 -20.87409
v -3.00942 23.69206 -20.44008
v 0.00000 18.67174 -21.15737
v 0.00000 18.68849 -22.86275
v -3.55708 19.76711 -16.00528
v -3.27391 20.67000 -14.28835
v 0.00000 19.05608 -14.28832
v 0.00000 18.48192 -16.12498
v -4.58581 19.63195 -19.57878
v -5.21984 22.25732 -19.19185
v -5.44145 22.15717 -17.04617
v -4.51797 19.63893 -17.37605
v -4.37419 22.17403 -16.00627
v -3.27391 20.67000 -14.28835
v -4.12391 22.77016 -14.28665
v -4.41711 22.69485 -12.02494
v -3.71601 20.13100 -11.68142
v -2.56921 24.49149 -14.28795
v 0.00000 25.59020 -14.28802
v -0.00000 25.55143 -11.88072
v -3.10130 24.29071 -11.98253
v -6.08804 25.25558 -11.81923
v -5.81342 24.18096 -10.79526
v -9.46240 25.29844 -11.69710
v -12.66021 24.38097 -10.66852
v -21.46487 13.57414 -8.42295
v -19.04297 11.13045 -9.29336
v -21.92320 11.00430 -10.95084
v -15.68978 15.72322 -4.55301
v -12.40209 16.29511 -8.02039
v -14.13630 18.17665 -8.95670
v -15.52788 19.79001 -6.48121
v -5.84327 26.49533 12.92871
v -5.82668 26.07019 13.81505
v -11.72521 20.00464 -8.69751
v -10.41975 21.38283 -8.69577
v -12.09103 22.77240 -6.56013
v -13.35400 21.34221 -6.14000
v -4.85942 17.31537 -8.19040
v -5.49135 22.60007 -10.18861
v -15.66768 24.20987 1.35316
v -14.95627 24.59746 7.12004
v -12.21082 23.20505 6.17220
v -12.87435 22.82621 1.34829
v -9.67880 20.47095 5.31747
v -6.38046 17.54499 4.88271
v -6.26981 16.79144 1.30582
v -9.72673 20.41081 1.34793
v -4.19233 20.55249 16.59268
v -3.58253 24.41478 16.59867
v -4.88040 24.12079 20.03591
v -3.46707 20.77368 20.03948
v 0.00000 19.61351 -25.15746
v -0.00000 20.31214 -29.14479
v 0.00000 22.45681 -29.41644
v 0.00000 25.97083 -16.97027
v 0.00000 25.59020 -14.28802
v -3.20725 24.42078 -16.43346
v -0.00000 20.96809 -29.37674
v -6.29802 26.05655 -12.43980
v -6.36911 19.02670 9.82596
v 0.00000 16.31607 10.19016
v 0.00000 15.39599 4.84707
v 0.00000 18.23754 -11.12948
v -0.00000 16.71449 -8.27058
v 0.00000 15.21441 -2.86733
v -6.13830 17.28609 -3.00404
v 0.00000 14.97359 1.30035
v -5.73132 20.34540 14.18999
v -4.19233 20.55249 16.59268
v -0.00000 18.13600 16.58897
v 0.00000 17.56488 14.15518
v -0.00000 29.55821 1.35316
v 0.00000 28.70724 7.33897
v 0.00000 26.48038 13.24218
v -0.85332 22.80586 49.94378
v -1.06298 22.83624 44.64519
v -0.00000 23.42023 44.64198
v -0.00000 23.35424 49.94305
v -1.02898 21.94175 49.94559
v -1.26717 21.84357 44.64886
v -0.00000 21.73573 60.24938
v -0.63381 22.40775 60.24152
v -0.50314 22.42803 60.78835
v -0.00000 21.89908 60.78595
v -0.00000 23.08626 60.22250
v -0.00000 22.90515 60.75933
v -0.00000 22.42782 60.94448
v -2.05735 21.41383 31.96774
v -1.59634 21.65511 38.99892
v -0.00000 20.75499 38.99846
v -0.00000 20.16825 31.96812
v -0.00000 21.02855 44.64651
v -0.61159 22.67706 57.79997
v -0.00000 23.22924 57.79904
v -0.00000 23.29172 54.41389
v -0.70727 22.75163 54.41473
v -0.71841 22.12629 57.80096
v -0.85080 22.02863 54.41613
v -1.92747 23.14862 31.96666
v -1.36988 22.89487 38.99805
v -4.88040 24.12079 20.03591
v -2.66302 23.61421 23.91117
v -2.74369 20.95066 23.92723
v -0.00000 19.17306 23.93356
v -2.74369 20.95066 23.92723
v -2.66302 23.61421 23.91117
v -0.00000 23.65041 31.96633
v -0.00000 23.50146 38.99741
v -0.00000 18.58802 20.03779
v -0.00000 18.13600 16.58897
v -0.00000 19.17306 23.93356
v -0.00000 21.23909 49.94585
v -0.00000 21.55467 57.80050
v -0.00000 21.41215 54.41602
v -0.00000 23.98120 24.16822
v -3.58253 24.41478 16.59867
v -5.73132 20.34540 14.18999
v -3.88705 24.84840 14.22409
v 0.00000 18.18265 -17.71202
v 0.00000 18.17737 -19.47865
v 0.00000 21.51618 -29.46777
v 0.00000 21.51618 -29.46777
v -0.00000 20.96809 -29.37674
v 0.00000 19.05608 -14.28832
v -4.12391 22.77016 -14.28665
v -2.56921 24.49149 -14.28795
v -7.49450 25.95590 17.34028
v -6.07448 26.41018 16.34561
v -4.80419 25.62584 20.03116
v -6.96242 25.14617 20.03150
v -8.16655 25.11058 16.75837
v -6.41437 25.61473 15.34707
v -6.05789 24.47648 22.96142
v -6.43778 23.82076 23.31410
v -7.70460 24.29367 20.03150
v -3.66524 24.56960 23.37431
v -2.66302 23.61421 23.91117
v -0.00000 26.11886 15.11181
v -0.00000 26.83950 16.19027
v -3.58253 24.41478 16.59867
v -7.70460 24.29367 20.03150
v -4.88040 24.12079 20.03591
v -6.43778 23.82076 23.31410
v -2.66302 23.61421 23.91117
v -6.41437 25.61473 15.34707
v -8.16655 25.11058 16.75837
v -0.00000 24.86087 23.75179
v -0.00000 23.98120 24.16822
v -0.00000 25.49172 15.39993
v 0.00000 25.57671 14.21374
v -0.00000 26.11886 15.11181
v -6.41437 25.61473 15.34707
v -3.58253 24.41478 16.59867
v -0.00000 25.49172 15.39993
v -6.45136 21.44677 13.30815
v -6.36911 19.02670 9.82596
v -8.82122 22.10545 12.86401
v -5.10099 25.43548 13.32039
v -8.25314 24.69315 12.51672
v 0.00000 26.07797 14.02006
v 0.00000 26.07797 14.02006
v 0.00000 25.66499 13.70111
v -5.10099 25.43548 13.32039
v -5.82668 26.07019 13.81505
v -8.35048 18.71262 -8.10413
v -4.85942 17.31537 -8.19040
v -14.44988 24.16161 -7.30638
v -12.09103 22.77240 -6.56013
v -9.11429 22.76102 -9.02012
v -15.47665 24.11027 -2.73920
v -0.00000 29.53620 -2.70841
v -15.47665 24.11027 -2.73920
v -12.48617 22.69314 -2.75851
v -10.18458 20.21642 -3.70728
v -10.18458 20.21642 -3.70728
v -11.86716 18.83498 -3.55110
v -9.28393 18.65214 -7.78100
v -12.18464 23.10262 9.28345
v -10.83098 23.96189 9.56289
v -8.25314 24.69315 12.51672
v -8.82122 22.10545 12.86401
v -20.10130 14.41210 10.37461
v -20.59920 11.97256 9.17512
v -18.34450 16.06974 8.63005
v -16.70829 14.40283 8.56464
v -17.74355 12.26981 9.97959
v -16.58478 13.82889 11.43317
v -13.49932 15.58444 10.10134
v -14.89893 12.83329 9.38386
v -19.53081 17.49482 10.66903
v -22.01992 15.08105 10.37118
v -17.44474 10.37158 9.08556
v -14.89893 12.83329 9.38386
v -17.44474 10.37158 9.08556
v -18.44379 15.83285 12.25141
v -16.70745 19.13122 10.24827
v -13.49932 15.58444 10.10134
v -15.07085 17.19593 8.25791
v -15.88232 16.55337 12.67847
v -20.10130 14.41210 10.37461
v -17.74355 12.26981 9.97959
v -20.59920 11.97256 9.17512
v -14.90483 20.76432 10.06518
v -13.45715 18.44454 12.78945
v -14.96039 17.30464 13.11768
v -11.25863 16.67795 9.81522
v -13.08012 18.65818 7.66539
v -11.25863 16.67795 9.81522
v -8.96237 18.47660 9.81580
v -6.36911 19.02670 9.82596
v -9.67880 20.47095 5.31747
v -11.04433 19.93919 6.45097
v -12.18464 23.10262 9.28345
v -13.26010 22.25115 9.81439
v -8.82122 22.10545 12.86401
v -11.05071 20.46076 13.05002
v -8.96237 18.47660 9.81580
v -6.36911 19.02670 9.82596
v -9.66888 25.74234 13.32061
v -13.55954 25.15070 10.77266
v -0.00000 26.72165 -12.44522
v -0.00000 26.13209 20.03037
v -12.71158 19.07342 12.79100
v -13.68389 17.55893 -4.20669
v -9.28393 18.65214 -7.78100
v -12.40209 16.29511 -8.02039
v -9.28393 18.65214 -7.78100
v -14.65343 16.62453 -4.08774
v -9.23037 19.65309 -8.30609
v -11.86716 18.83498 -3.55110
v -10.18458 20.21642 -3.70728
v -8.35048 18.71262 -8.10413
v -5.49135 22.60007 -10.18861
v -9.11429 22.76102 -9.02012
v 7.53033 28.85955 1.35316
v 14.87188 25.02884 1.35317
v 14.12771 25.19191 7.25638
v 7.04502 28.19740 7.33865
v 7.50476 28.82815 -2.71363
v 6.99124 28.15881 -6.91031
v 13.65656 25.04061 -7.26899
v 14.50594 24.98508 -2.68872
v 12.73911 25.73821 10.61300
v 21.46488 13.57414 -8.42295
v 19.48420 15.24319 -9.53890
v 21.92320 11.00430 -10.95084
v 17.82011 13.49348 -9.97611
v 19.04298 11.13045 -9.29336
v 17.78548 12.40604 -6.81449
v 15.92581 11.55727 -9.52716
v 14.48463 14.18964 -8.72187
v 20.75168 16.81027 -7.46359
v 23.43294 14.18790 -8.96767
v 18.48452 9.62219 -10.24044
v 15.92581 11.55727 -9.52716
v 18.48452 9.62219 -10.24044
v 19.67383 14.44975 -6.21368
v 18.16096 17.91370 -6.94354
v 16.32776 16.46803 -9.43896
v 14.48463 14.18964 -8.72187
v 17.25688 14.77798 -5.29539
v 6.26157 26.83083 -11.51230
v 6.29802 26.05655 -12.43980
v 9.46239 25.29845 -11.69710
v 9.19725 26.02504 -10.87036
v 12.04018 25.28483 -10.21399
v 14.95627 24.59746 7.12004
v 13.55954 25.15070 10.77266
v 15.66768 24.20987 1.35316
v 14.44988 24.16162 -7.30637
v 12.66021 24.38098 -10.66852
v 9.66888 25.74235 13.32061
v 9.51737 26.32221 12.51384
v 2.22729 25.26497 -21.33614
v 2.56201 23.40549 -22.85782
v 2.43166 23.23516 -21.25503
v 4.07110 22.37462 -21.97673
v 4.71978 22.47188 -20.74796
v 3.46730 24.07202 -19.74548
v 3.49605 20.32808 -22.89783
v 4.29591 19.82891 -21.28632
v 0.57185 22.21191 -29.05159
v 0.86866 21.40299 -29.00544
v 2.32204 21.26955 -25.28253
v 1.88173 22.44154 -25.34150
v 0.86866 21.40299 -29.00544
v 2.32204 21.26955 -25.28253
v 1.16921 23.33719 -25.41754
v 1.29894 24.64255 -22.94397
v 0.70244 21.03215 -28.80817
v 2.32204 21.26955 -25.28253
v 3.79060 24.32299 -17.38343
v 1.67909 25.31234 -17.10933
v 1.71302 25.90717 -19.28090
v 2.22929 24.43183 -21.32025
v 2.48046 23.32916 -22.16328
v 3.02380 23.61012 -21.29171
v 0.70244 21.03215 -28.80817
v 0.71576 20.39692 -28.67559
v 2.26156 20.39509 -25.18747
v 3.14661 22.79412 -21.60160
v 3.29636 22.94968 -20.87409
v 3.00942 23.69206 -20.44008
v 3.55708 19.76711 -16.00528
v 3.27391 20.67001 -14.28834
v 4.58581 19.63195 -19.57878
v 4.51797 19.63893 -17.37605
v 5.44145 22.15717 -17.04617
v 5.21984 22.25732 -19.19185
v 4.37419 22.17403 -16.00627
v 3.27391 20.67001 -14.28834
v 3.71601 20.13100 -11.68142
v 4.41711 22.69485 -12.02494
v 4.12391 22.77016 -14.28665
v 2.56921 24.49149 -14.28795
v 3.10130 24.29071 -11.98253
v 5.81342 24.18096 -10.79526
v 6.08804 25.25559 -11.81923
v 12.66021 24.38098 -10.66852
v 9.46239 25.29845 -11.69710
v 21.46488 13.57414 -8.42295
v 21.92320 11.00430 -10.95084
v 19.04298 11.13045 -9.29336
v 15.68978 15.72322 -4.55300
v 14.13631 18.17665 -8.95670
v 12.40210 16.29511 -8.02039
v 15.52788 19.79001 -6.48121
v 5.82668 26.07019 13.81505
v 5.84328 26.49534 12.92871
v 11.72521 20.00465 -8.69750
v 13.35400 21.34221 -6.14000
v 12.09103 22.77241 -6.56013
v 10.41976 21.38283 -8.69577
v 4.85942 17.31538 -8.19040
v 5.49135 22.60007 -10.18861
v 15.66768 24.20987 1.35316
v 12.87435 22.82622 1.34829
v 12.21082 23.20505 6.17221
v 14.95627 24.59746 7.12004
v 9.67880 20.47095 5.31747
v 9.72673 20.41081 1.34793
v 6.26981 16.79144 1.30582
v 6.38046 17.54499 4.88271
v 4.19233 20.55249 16.59268
v 3.46707 20.77368 20.03948
v 4.88040 24.12079 20.03591
v 3.58252 24.41478 16.59867
v 3.20725 24.42078 -16.43346
v 6.29802 26.05655 -12.43980
v 6.36911 19.02670 9.82596
v 6.13830 17.28609 -3.00404
v 5.73133 20.34540 14.18999
v 4.19233 20.55249 16.59268
v 0.85332 22.80586 49.94378
v 1.06298 22.83624 44.64519
v 1.02898 21.94175 49.94559
v 1.26717 21.84357 44.64886
v 0.50313 22.42803 60.78835
v 0.63381 22.40775 60.24152
v 2.05734 21.41384 31.96774
v 1.59633 21.65511 38.99892
v 0.61159 22.67706 57.79997
v 0.70726 22.75163 54.41473
v 0.71841 22.12629 57.80096
v 0.85080 22.02863 54.41613
v 1.92747 23.14862 31.96666
v 1.36988 22.89487 38.99805
v 2.74369 20.95066 23.92723
v 2.66302 23.61421 23.91117
v 4.88040 24.12079 20.03591
v 2.74369 20.95066 23.92723
v 2.66302 23.61421 23.91117
v 3.58252 24.41478 16.59867
v 3.88705 24.84840 14.22409
v 5.73133 20.34540 14.18999
v 4.12391 22.77016 -14.28665
v 2.56921 24.49149 -14.28795
v 7.49450 25.95590 17.34028
v 6.96242 25.14617 20.03150
v 4.80419 25.62584 20.03116
v 6.07448 26.41018 16.34561
v 6.41437 25.61473 15.34707
v 8.16655 25.11058 16.75837
v 6.05789 24.47648 22.96142
v 7.70460 24.29367 20.03150
v 6.43778 23.82076 23.31410
v 3.66523 24.56960 23.37431
v 2.66302 23.61421 23.91117
v 3.58252 24.41478 16.59867
v 4.88040 24.12079 20.03591
v 7.70460 24.29367 20.03150
v 2.66302 23.61421 23.91117
v 6.43778 23.82076 23.31410
v 8.16655 25.11058 16.75837
v 6.41437 25.61473 15.34707
v 3.58252 24.41478 16.59867
v 6.41437 25.61473 15.34707
v 6.45136 21.44677 13.30815
v 8.82122 22.10545 12.86401
v 6.36911 19.02670 9.82596
v 5.10099 25.43548 13.32039
v 8.25314 24.69315 12.51672
v 5.82668 26.07019 13.81505
v 5.10099 25.43548 13.32039
v 4.85942 17.31538 -8.19040
v 8.35048 18.71262 -8.10413
v 14.44988 24.16162 -7.30637
v 9.11429 22.76102 -9.02012
v 12.09103 22.77241 -6.56013
v 15.47665 24.11027 -2.73920
v 12.48617 22.69315 -2.75851
v 15.47665 24.11027 -2.73920
v 10.18458 20.21643 -3.70728
v 10.18458 20.21643 -3.70728
v 11.86716 18.83498 -3.55109
v 9.28393 18.65214 -7.78100
v 12.18464 23.10262 9.28345
v 8.82122 22.10545 12.86401
v 8.25314 24.69315 12.51672
v 10.83098 23.96190 9.56290
v 20.10130 14.41210 10.37461
v 18.34450 16.06974 8.63005
v 20.59921 11.97256 9.17511
v 16.70829 14.40283 8.56464
v 17.74356 12.26981 9.97959
v 16.58479 13.82889 11.43317
v 14.89894 12.83329 9.38386
v 13.49932 15.58444 10.10134
v 19.53081 17.49482 10.66903
v 22.01992 15.08105 10.37118
v 17.44474 10.37158 9.08556
v 14.89894 12.83329 9.38386
v 17.44474 10.37158 9.08556
v 18.44379 15.83285 12.25141
v 16.70745 19.13122 10.24828
v 15.07086 17.19593 8.25791
v 13.49932 15.58444 10.10134
v 15.88232 16.55337 12.67847
v 20.10130 14.41210 10.37461
v 20.59921 11.97256 9.17511
v 17.74356 12.26981 9.97959
v 14.96039 17.30464 13.11768
v 13.45715 18.44454 12.78945
v 14.90482 20.76432 10.06518
v 13.08012 18.65818 7.66539
v 11.25863 16.67795 9.81522
v 11.25863 16.67795 9.81522
v 8.96237 18.47661 9.81580
v 11.04433 19.93919 6.45097
v 9.67880 20.47095 5.31747
v 6.36911 19.02670 9.82596
v 13.26009 22.25115 9.81439
v 12.18464 23.10262 9.28345
v 11.05071 20.46076 13.05002
v 8.82122 22.10545 12.86401
v 8.96237 18.47661 9.81580
v 6.36911 19.02670 9.82596
v 9.66888 25.74235 13.32061
v 13.55954 25.15070 10.77266
v 12.71158 19.07342 12.79101
v 13.68389 17.55893 -4.20668
v 9.28393 18.65214 -7.78100
v 12.40210 16.29511 -8.02039
v 9.28393 18.65214 -7.78100
v 14.65344 16.62453 -4.08774
v 9.23037 19.65309 -8.30608
v 10.18458 20.21643 -3.70728
v 11.86716 18.83498 -3.55109
v 8.35048 18.71262 -8.10413
v 9.11429 22.76102 -9.02012
v 5.49135 22.60007 -10.18861
vt 0.392257 0.162141
vt 0.237016 0.160928
vt 0.240130 0.298959
vt 0.389559 0.321579
vt 0.497688 0.164331
vt 0.492631 0.317621
vt 0.610714 0.298631
vt 0.608286 0.166947
vt 0.154630 0.274813
vt 0.151745 0.459505
vt 0.085899 0.443924
vt 0.153986 0.533633
vt 0.100572 0.572350
vt 0.062630 0.518360
vt 0.329521 0.485328
vt 0.387575 0.560322
vt 0.386419 0.482749
vt 0.216221 0.542523
vt 0.196668 0.433748
vt 0.024207 0.548333
vt 0.051697 0.597995
vt 0.369954 0.402841
vt 0.253702 0.507920
vt 0.225819 0.596922
vt 0.141799 0.618301
vt 0.059156 0.647594
vt 0.295300 0.544538
vt 0.730231 0.168162
vt 0.709305 0.226643
vt 0.734751 0.241242
vt 0.760626 0.178196
vt 0.677619 0.269077
vt 0.148221 0.299028
vt 0.241956 0.323680
vt 0.389849 0.349607
vt 0.613742 0.327124
vt 0.693218 0.294009
vt 0.786937 0.010017
vt 0.753124 0.010017
vt 0.627756 0.010017
vt 0.106015 0.229787
vt 0.080580 0.238709
vt 0.759931 0.763940
vt 0.758998 0.730031
vt 0.716908 0.722377
vt 0.750787 0.689430
vt 0.788272 0.688302
vt 0.811928 0.731158
vt 0.764990 0.640618
vt 0.716094 0.654317
vt 0.535700 0.710152
vt 0.644790 0.704638
vt 0.643957 0.674221
vt 0.534352 0.693058
vt 0.600162 0.776539
vt 0.473484 0.761067
vt 0.476339 0.854210
vt 0.597915 0.838143
vt 0.640087 0.730452
vt 0.630702 0.754954
vt 0.691208 0.788537
vt 0.704959 0.758433
vt 0.476215 0.854158
vt 0.473288 0.760988
vt 0.600166 0.776341
vt 0.597875 0.838146
vt 0.745278 0.815475
vt 0.881069 0.729510
vt 0.820912 0.786550
vt 0.890795 0.783087
vt 0.084552 0.425760
vt 0.088261 0.360037
vt 0.006832 0.360934
vt 0.815928 0.829571
vt 0.532740 0.666511
vt 0.643445 0.650590
vt 0.537810 0.654630
vt 0.062965 0.305430
vt 0.136812 0.312462
vt 0.165638 0.370432
vt 0.726731 0.547740
vt 0.672245 0.576695
vt 0.917831 0.622702
vt 0.976792 0.628721
vt 0.981675 0.537222
vt 0.917747 0.530537
vt 0.813144 0.634323
vt 0.830632 0.682094
vt 0.885844 0.678198
vt 0.874291 0.630488
vt 0.921584 0.680067
vt 0.959748 0.077216
vt 0.943287 0.069044
vt 0.912420 0.086459
vt 0.944143 0.113157
vt 0.940364 0.054186
vt 0.946291 0.028626
vt 0.889557 0.020717
vt 0.904558 0.070980
vt 0.849697 0.083172
vt 0.868820 0.097101
vt 0.815138 0.109362
vt 0.804946 0.138779
vt 0.254423 0.451727
vt 0.324344 0.437455
vt 0.287507 0.376334
vt 0.301696 0.585211
vt 0.049496 0.702040
vt 0.153410 0.710906
vt 0.235294 0.689559
vt 0.086723 0.147192
vt 0.060424 0.150946
vt 0.157515 0.777952
vt 0.164062 0.824188
vt 0.253685 0.876436
vt 0.238252 0.754979
vt 0.929311 0.165600
vt 0.886337 0.113415
vt 0.777987 0.267188
vt 0.777526 0.324944
vt 0.806817 0.318475
vt 0.806877 0.267087
vt 0.844691 0.309614
vt 0.917117 0.308798
vt 0.924869 0.263449
vt 0.857167 0.266816
vt 0.975299 0.950054
vt 0.974389 0.895319
vt 0.908940 0.892988
vt 0.915129 0.949868
vt 0.617356 0.608116
vt 0.514823 0.648924
vt 0.519229 0.719964
vt 0.893104 0.824574
vt 0.985108 0.825018
vt 0.913647 0.740120
vt 0.508192 0.661836
vt 0.833409 0.067993
vt 0.913743 0.371102
vt 0.984140 0.365318
vt 0.984140 0.307884
vt 0.985371 0.124411
vt 0.984140 0.163567
vt 0.984140 0.221020
vt 0.918810 0.228408
vt 0.984140 0.267335
vt 0.918467 0.414829
vt 0.931915 0.438932
vt 0.984140 0.433187
vt 0.984140 0.407799
vt 0.393759 0.010017
vt 0.227492 0.010017
vt 0.058589 0.010017
vt 0.260731 0.922625
vt 0.375967 0.918283
vt 0.374727 0.889047
vt 0.261328 0.897131
vt 0.261669 0.946937
vt 0.375355 0.946067
vt 0.038971 0.963054
vt 0.043938 0.937314
vt 0.028206 0.934447
vt 0.022941 0.953867
vt 0.040649 0.912283
vt 0.024367 0.920804
vt 0.019844 0.933424
vt 0.684054 0.948541
vt 0.507452 0.949573
vt 0.507379 0.987219
vt 0.684807 0.991737
vt 0.374737 0.984791
vt 0.092422 0.930487
vt 0.091731 0.909898
vt 0.164754 0.904391
vt 0.164814 0.926809
vt 0.092030 0.945559
vt 0.164931 0.946693
vt 0.684262 0.903174
vt 0.507929 0.914699
vt 0.908940 0.892988
vt 0.838514 0.894125
vt 0.840217 0.948360
vt 0.838514 0.992381
vt 0.840217 0.948360
vt 0.838514 0.894125
vt 0.684061 0.870466
vt 0.506999 0.883238
vt 0.915489 0.992865
vt 0.977825 0.993950
vt 0.838514 0.992381
vt 0.261789 0.980718
vt 0.090424 0.968007
vt 0.164146 0.973783
vt 0.838514 0.854473
vt 0.891153 0.470576
vt 0.918467 0.414829
vt 0.870653 0.450986
vt 0.859701 0.521919
vt 0.790593 0.525996
vt 0.511288 0.703734
vt 0.635386 0.807466
vt 0.635586 0.807626
vt 0.984140 0.085053
vt 0.981557 0.690899
vt 0.985555 0.753482
vt 0.638897 0.541815
vt 0.671286 0.509002
vt 0.559272 0.482249
vt 0.553914 0.537884
vt 0.654606 0.575131
vt 0.706624 0.530850
vt 0.462979 0.515798
vt 0.452001 0.539693
vt 0.545036 0.571704
vt 0.440081 0.470083
vt 0.403027 0.452697
vt 0.734058 0.367678
vt 0.692187 0.367678
vt 0.427322 0.690075
vt 0.474904 0.638506
vt 0.425142 0.634943
vt 0.470581 0.565082
vt 0.420588 0.569047
vt 0.454256 0.716187
vt 0.479361 0.692263
vt 0.436810 0.367678
vt 0.407100 0.367678
vt 0.863499 0.492721
vt 0.847365 0.491328
vt 0.884109 0.509654
vt 0.917972 0.495025
vt 0.891153 0.470576
vt 0.863499 0.492721
vt 0.883530 0.402799
vt 0.913743 0.371102
vt 0.861707 0.390404
vt 0.837369 0.440478
vt 0.832474 0.404031
vt 0.035109 0.010017
vt 0.801122 0.487318
vt 0.819253 0.490910
vt 0.837369 0.440478
vt 0.811720 0.437090
vt 0.899578 0.144224
vt 0.929311 0.165600
vt 0.796904 0.170182
vt 0.831033 0.177172
vt 0.857864 0.136183
vt 0.493244 0.349307
vt 0.509759 0.010017
vt 0.780040 0.221516
vt 0.810950 0.221603
vt 0.867419 0.215156
vt 0.339496 0.863509
vt 0.330037 0.765483
vt 0.897456 0.146841
vt 0.837760 0.348098
vt 0.809932 0.359289
vt 0.832474 0.404031
vt 0.861707 0.390404
vt 0.152487 0.458375
vt 0.087027 0.443946
vt 0.154848 0.532777
vt 0.099482 0.572724
vt 0.062249 0.518231
vt 0.329384 0.485301
vt 0.387874 0.559412
vt 0.384594 0.482863
vt 0.215389 0.541577
vt 0.196466 0.432533
vt 0.024667 0.547851
vt 0.051855 0.598454
vt 0.370278 0.405641
vt 0.253385 0.507204
vt 0.224240 0.597708
vt 0.059611 0.646822
vt 0.140946 0.617638
vt 0.301842 0.560540
vt 0.255381 0.451886
vt 0.323761 0.436901
vt 0.288268 0.376086
vt 0.233969 0.687992
vt 0.315234 0.674116
vt 0.306391 0.599119
vt 0.049652 0.702119
vt 0.153915 0.711061
vt 0.400635 0.661191
vt 0.034133 0.760936
vt 0.016772 0.817607
vt 0.167761 0.871065
vt 0.151490 0.777972
vt 0.253805 0.874114
vt 0.234332 0.748812
vt 0.349929 0.867234
vt 0.325531 0.764349
vt 0.412386 0.738455
vt 0.429700 0.790051
vt 0.800630 0.406887
vt 0.783154 0.368930
vt 0.878490 0.011634
vt 0.565351 0.367678
vt 0.319524 0.711073
vt 0.320717 0.711002
vt 0.069952 0.812140
vt 0.400877 0.661002
vt 0.411826 0.748156
vt 0.315652 0.673955
vt 0.087965 0.821700
vt 0.881159 0.209169
vt 0.905108 0.205850
vt 0.050351 0.809099
vt 0.019755 0.836170
vt 0.165842 0.870371
vt 0.392257 0.162141
vt 0.389559 0.321579
vt 0.240130 0.298959
vt 0.237016 0.160928
vt 0.497688 0.164331
vt 0.608286 0.166947
vt 0.610714 0.298631
vt 0.492631 0.317621
vt 0.154630 0.274813
vt 0.151745 0.459505
vt 0.153986 0.533633
vt 0.085899 0.443924
vt 0.100572 0.572350
vt 0.062630 0.518360
vt 0.329521 0.485328
vt 0.386419 0.482749
vt 0.387575 0.560322
vt 0.216221 0.542523
vt 0.196668 0.433748
vt 0.024207 0.548333
vt 0.051697 0.597995
vt 0.369954 0.402841
vt 0.253702 0.507920
vt 0.225819 0.596922
vt 0.141799 0.618301
vt 0.059156 0.647594
vt 0.295300 0.544538
vt 0.730231 0.168162
vt 0.760626 0.178196
vt 0.734751 0.241242
vt 0.709305 0.226643
vt 0.677619 0.269077
vt 0.241956 0.323680
vt 0.148221 0.299028
vt 0.389849 0.349607
vt 0.613742 0.327124
vt 0.693218 0.294009
vt 0.080580 0.238709
vt 0.106015 0.229787
vt 0.759931 0.763940
vt 0.716908 0.722377
vt 0.758998 0.730031
vt 0.750787 0.689430
vt 0.788272 0.688302
vt 0.811928 0.731158
vt 0.716094 0.654317
vt 0.764990 0.640618
vt 0.535700 0.710152
vt 0.534352 0.693058
vt 0.643957 0.674221
vt 0.644790 0.704638
vt 0.600162 0.776539
vt 0.473484 0.761067
vt 0.640087 0.730452
vt 0.704959 0.758433
vt 0.600166 0.776341
vt 0.473288 0.760988
vt 0.881069 0.729510
vt 0.890795 0.783087
vt 0.820912 0.786550
vt 0.084552 0.425760
vt 0.006832 0.360934
vt 0.088261 0.360037
vt 0.532740 0.666511
vt 0.537810 0.654630
vt 0.643445 0.650590
vt 0.062965 0.305430
vt 0.136812 0.312462
vt 0.165638 0.370432
vt 0.917831 0.622702
vt 0.976792 0.628721
vt 0.813144 0.634323
vt 0.874291 0.630488
vt 0.885844 0.678198
vt 0.830632 0.682094
vt 0.921584 0.680067
vt 0.959748 0.077216
vt 0.944143 0.113157
vt 0.912420 0.086459
vt 0.943287 0.069044
vt 0.940364 0.054186
vt 0.904558 0.070980
vt 0.868820 0.097101
vt 0.849697 0.083172
vt 0.804946 0.138779
vt 0.815138 0.109362
vt 0.254423 0.451727
vt 0.287507 0.376334
vt 0.324344 0.437455
vt 0.301696 0.585211
vt 0.153410 0.710906
vt 0.049496 0.702040
vt 0.235294 0.689559
vt 0.060424 0.150946
vt 0.086723 0.147192
vt 0.157515 0.777952
vt 0.238252 0.754979
vt 0.253685 0.876436
vt 0.164062 0.824188
vt 0.929311 0.165600
vt 0.886337 0.113415
vt 0.777987 0.267188
vt 0.806877 0.267087
vt 0.806817 0.318475
vt 0.777526 0.324944
vt 0.844691 0.309614
vt 0.857167 0.266816
vt 0.924869 0.263449
vt 0.917117 0.308798
vt 0.975299 0.950054
vt 0.915129 0.949868
vt 0.908940 0.892988
vt 0.974389 0.895319
vt 0.913647 0.740120
vt 0.833409 0.067993
vt 0.913743 0.371102
vt 0.918810 0.228408
vt 0.918467 0.414829
vt 0.931915 0.438932
vt 0.260731 0.922625
vt 0.375967 0.918283
vt 0.261669 0.946937
vt 0.375355 0.946067
vt 0.028206 0.934447
vt 0.043938 0.937314
vt 0.684054 0.948541
vt 0.507452 0.949573
vt 0.092422 0.930487
vt 0.164814 0.926809
vt 0.092030 0.945559
vt 0.164931 0.946693
vt 0.684262 0.903174
vt 0.507929 0.914699
vt 0.840217 0.948360
vt 0.838514 0.894125
vt 0.908940 0.892988
vt 0.840217 0.948360
vt 0.838514 0.894125
vt 0.891153 0.470576
vt 0.870653 0.450986
vt 0.918467 0.414829
vt 0.981557 0.690899
vt 0.985555 0.753482
vt 0.638897 0.541815
vt 0.553914 0.537884
vt 0.559272 0.482249
vt 0.671286 0.509002
vt 0.706624 0.530850
vt 0.654606 0.575131
vt 0.462979 0.515798
vt 0.545036 0.571704
vt 0.452001 0.539693
vt 0.440081 0.470083
vt 0.403027 0.452697
vt 0.427322 0.690075
vt 0.425142 0.634943
vt 0.474904 0.638506
vt 0.420588 0.569047
vt 0.470581 0.565082
vt 0.479361 0.692263
vt 0.454256 0.716187
vt 0.891153 0.470576
vt 0.917972 0.495025
vt 0.883530 0.402799
vt 0.861707 0.390404
vt 0.913743 0.371102
vt 0.837369 0.440478
vt 0.832474 0.404031
vt 0.811720 0.437090
vt 0.837369 0.440478
vt 0.929311 0.165600
vt 0.899578 0.144224
vt 0.796904 0.170182
vt 0.857864 0.136183
vt 0.831033 0.177172
vt 0.493244 0.349307
vt 0.810950 0.221603
vt 0.780040 0.221516
vt 0.867419 0.215156
vt 0.339496 0.863509
vt 0.330037 0.765483
vt 0.897456 0.146841
vt 0.837760 0.348098
vt 0.861707 0.390404
vt 0.832474 0.404031
vt 0.809932 0.359289
vt 0.152487 0.458375
vt 0.154848 0.532777
vt 0.087027 0.443946
vt 0.099482 0.572724
vt 0.062249 0.518231
vt 0.329384 0.485301
vt 0.384594 0.482863
vt 0.387874 0.559412
vt 0.215389 0.541577
vt 0.196466 0.432533
vt 0.024667 0.547851
vt 0.051855 0.598454
vt 0.370278 0.405641
vt 0.253385 0.507204
vt 0.224240 0.597708
vt 0.140946 0.617638
vt 0.059611 0.646822
vt 0.301842 0.560540
vt 0.255381 0.451886
vt 0.288268 0.376086
vt 0.323761 0.436901
vt 0.306391 0.599119
vt 0.315234 0.674116
vt 0.233969 0.687992
vt 0.153915 0.711061
vt 0.049652 0.702119
vt 0.400635 0.661191
vt 0.034133 0.760936
vt 0.151490 0.777972
vt 0.167761 0.871065
vt 0.016772 0.817607
vt 0.234332 0.748812
vt 0.253805 0.874114
vt 0.325531 0.764349
vt 0.349929 0.867234
vt 0.412386 0.738455
vt 0.429700 0.790051
vt 0.800630 0.406887
vt 0.783154 0.368930
vt 0.319524 0.711073
vt 0.320717 0.711002
vt 0.069952 0.812140
vt 0.400877 0.661002
vt 0.411826 0.748156
vt 0.315652 0.673955
vt 0.087965 0.821700
vt 0.905108 0.205850
vt 0.881159 0.209169
vt 0.050351 0.809099
vt 0.165842 0.870371
vt 0.019755 0.836170
vn -0.30189 0.95286 0.03032
vn -0.20005 0.96386 0.17595
vn -0.50078 0.86248 0.07307
vn -0.60807 0.79385 -0.00723
vn -0.28168 0.95381 -0.10445
vn -0.58641 0.80604 -0.08013
vn -0.55676 0.81110 -0.17929
vn -0.24717 0.93562 -0.25204
vn -0.43103 0.87736 0.21085
vn -0.62830 -0.70321 0.33277
vn -0.36166 -0.14630 -0.92076
vn -0.23707 0.36277 -0.90122
vn 0.05192 0.04910 -0.99744
vn -0.60298 -0.78351 0.15009
vn -0.01665 -0.68984 0.72377
vn 0.70665 -0.69807 0.11550
vn 0.68876 -0.40174 -0.60351
vn -0.52969 0.84356 -0.08846
vn -0.92979 -0.35933 -0.07984
vn -0.43385 -0.81108 -0.39233
vn 0.68876 -0.40174 -0.60351
vn -0.43385 -0.81108 -0.39233
vn -0.45298 -0.18706 0.87167
vn -0.59304 0.69235 0.41104
vn 0.06807 0.31769 -0.94575
vn 0.70665 -0.69807 0.11550
vn -0.06014 -0.33401 0.94065
vn -0.20019 0.84683 -0.49275
vn -0.32306 0.83737 -0.44096
vn -0.34398 0.71928 -0.60358
vn -0.20063 0.75593 -0.62316
vn -0.48950 0.77008 -0.40911
vn -0.51615 0.80094 0.30344
vn -0.63400 0.77049 0.06632
vn -0.71717 0.69688 -0.00439
vn -0.69933 0.67603 -0.23221
vn -0.56027 0.64542 -0.51917
vn -0.00000 0.81993 -0.57246
vn -0.00000 0.92804 -0.37247
vn -0.00000 0.97629 -0.21649
vn -0.24915 0.87136 0.42268
vn -0.28775 0.80247 0.52273
vn -0.73733 0.58528 -0.33732
vn -0.72447 0.62066 -0.29987
vn -0.74829 0.60146 -0.27982
vn -0.80578 0.44419 -0.39167
vn -0.83866 0.37512 -0.39489
vn -0.73648 0.61971 -0.27122
vn -0.77519 -0.49409 -0.39365
vn -0.74430 -0.52103 -0.41778
vn -0.70645 0.48083 -0.51935
vn -0.81995 0.40961 -0.39989
vn -0.90448 0.14876 -0.39974
vn -0.23423 -0.91019 -0.34160
vn -0.23423 -0.91019 -0.34160
vn -0.90448 0.14876 -0.39974
vn -0.00000 0.40894 -0.91256
vn 0.00000 -0.97030 0.24192
vn -0.55682 0.72889 -0.39834
vn 0.00000 0.91839 -0.39569
vn 0.00000 0.86017 -0.51000
vn -0.47863 0.72767 -0.49133
vn -0.00000 0.40894 -0.91256
vn -0.90448 0.14876 -0.39974
vn -0.62659 0.54568 -0.55644
vn 0.00000 0.99980 -0.02017
vn 0.00000 0.91842 -0.39562
vn -0.66294 0.72250 0.19623
vn -0.52695 0.84932 0.03128
vn -0.41261 0.89375 0.17597
vn -0.68692 0.65312 -0.31870
vn -0.83181 0.46292 -0.30627
vn -0.68388 0.45260 -0.57224
vn 0.00000 0.99835 0.05745
vn -0.62659 0.54568 -0.55644
vn -0.69938 -0.62606 -0.34483
vn -0.67759 -0.50164 -0.53780
vn -0.86209 0.28808 -0.41692
vn -0.94300 0.30504 -0.13303
vn -0.83949 0.54204 -0.03798
vn -0.00000 -0.97582 -0.21857
vn -0.00000 -0.98050 -0.19654
vn -0.57151 -0.69461 0.43692
vn -0.78345 -0.62047 0.03498
vn 0.00000 -0.97897 0.20401
vn 0.00000 -0.97018 0.24237
vn -0.72243 -0.67619 -0.14445
vn -0.94689 0.26980 -0.17493
vn -0.95470 0.11680 0.27369
vn -0.64148 -0.72561 0.24898
vn -0.89686 0.11035 0.42833
vn -0.78345 -0.62047 0.03498
vn -0.94649 0.32218 0.01917
vn -0.88736 -0.09826 -0.45049
vn -0.66738 -0.59494 -0.44795
vn -0.52781 0.84734 0.05850
vn -0.00000 0.99458 0.10394
vn -0.00000 0.63036 -0.77631
vn -0.60417 0.47172 -0.64223
vn -0.04629 -0.54323 -0.83831
vn -0.34919 -0.40712 -0.84399
vn -0.03565 -0.65441 -0.75530
vn -0.12666 -0.75050 -0.64862
vn -0.62830 -0.70321 0.33277
vn -0.60298 -0.78351 0.15009
vn -0.36166 -0.14630 -0.92076
vn -0.11053 -0.41830 0.90156
vn 0.63293 -0.65958 -0.40541
vn -0.18650 0.44885 -0.87393
vn -0.58114 0.70741 0.40231
vn -0.05544 0.92880 0.36641
vn -0.06799 0.87863 0.47263
vn -0.15362 0.08787 -0.98422
vn -0.27154 0.14617 -0.95126
vn -0.85861 -0.29899 -0.41642
vn -0.62880 0.77360 0.07853
vn -0.37473 -0.78749 -0.48933
vn -0.42757 -0.46247 -0.77673
vn -0.43351 -0.89928 0.05801
vn -0.34936 -0.90750 0.23322
vn -0.69375 -0.70164 0.16249
vn -0.59801 -0.79961 0.05487
vn -0.60867 -0.78306 -0.12783
vn -0.48293 -0.85019 0.20966
vn -0.51100 -0.85859 0.04126
vn -0.65395 -0.75623 0.02165
vn -0.87653 -0.42595 0.22418
vn -0.86196 0.47725 0.17104
vn -0.97073 -0.21277 0.11144
vn -0.77663 -0.58877 0.22404
vn -0.00000 -0.96781 -0.25169
vn 0.00000 -0.79344 -0.60864
vn 0.00000 0.60664 -0.79498
vn 0.00000 0.96695 0.25498
vn -0.00000 0.99458 0.10394
vn -0.68800 0.70221 0.18316
vn 0.00000 0.70357 -0.71062
vn 0.01327 -0.61023 -0.79211
vn -0.37858 -0.87671 0.29675
vn 0.00000 -0.97184 0.23566
vn 0.00000 -0.98111 0.19345
vn 0.00000 -0.90152 -0.43275
vn 0.00000 -0.92859 -0.37110
vn 0.00000 -0.99010 -0.14036
vn -0.40403 -0.91442 -0.02440
vn 0.00000 -0.99979 -0.02065
vn -0.79854 -0.38548 0.46233
vn -0.87653 -0.42595 0.22418
vn -0.00000 -0.97037 0.24162
vn 0.00000 -0.95603 0.29328
vn -0.00000 0.99643 0.08443
vn -0.00000 0.96358 0.26742
vn -0.00000 0.90955 0.41559
vn -0.81878 0.57325 0.03126
vn -0.85524 0.51647 0.04272
vn -0.00000 0.99972 0.02364
vn -0.00000 0.99980 0.01996
vn -0.92406 -0.37953 0.04545
vn -0.96299 -0.26300 0.05896
vn -0.00000 -0.98053 0.19636
vn -0.96811 0.19433 0.15813
vn -0.74100 -0.15346 0.65374
vn 0.00000 -0.64575 0.76355
vn -0.00000 0.98721 0.15944
vn -0.00000 0.81056 0.58566
vn 0.00000 0.03973 0.99921
vn -0.83852 -0.53646 0.09533
vn -0.89942 -0.43100 0.07264
vn 0.00000 -0.99772 0.06747
vn 0.00000 -0.99467 0.10308
vn 0.00000 -0.99867 0.05156
vn -0.87663 0.47955 0.03929
vn -0.00000 0.99916 0.04109
vn 0.00000 0.99987 0.01622
vn -0.77589 0.63027 0.02748
vn -0.85931 -0.50856 0.05434
vn -0.95847 -0.28203 0.04244
vn -0.74113 0.66613 0.08362
vn -0.72633 0.68546 0.05076
vn -0.97073 -0.21277 0.11144
vn -0.95968 0.18783 0.20911
vn -0.81814 -0.55734 0.14148
vn 0.00000 -0.99179 0.12788
vn -0.81814 -0.55734 0.14148
vn -0.95968 0.18783 0.20911
vn -0.00000 0.99918 0.04043
vn -0.00000 0.99984 0.01779
vn -0.00000 -0.98923 0.14640
vn -0.00000 -0.97037 0.24162
vn 0.00000 -0.99179 0.12788
vn 0.00000 -0.99913 0.04168
vn 0.00000 -0.99832 0.05792
vn 0.00000 -0.99894 0.04600
vn -0.00000 0.99839 0.05677
vn -0.86196 0.47725 0.17104
vn -0.79854 -0.38548 0.46233
vn -0.45331 0.75206 0.47846
vn -0.00000 -0.99226 0.12415
vn -0.00000 -0.98992 -0.14162
vn 0.00000 -0.44885 -0.89361
vn 0.00000 -0.44885 -0.89361
vn 0.00000 0.70357 -0.71062
vn 0.00000 -0.97897 0.20401
vn -0.94649 0.32218 0.01917
vn -0.52781 0.84734 0.05850
vn -0.48335 0.86664 0.12372
vn -0.26262 0.92354 -0.27947
vn -0.12952 0.95286 0.27436
vn -0.56909 0.75652 0.32221
vn -0.71663 0.69344 -0.07471
vn -0.32178 0.79090 -0.52051
vn -0.40643 0.78621 0.46550
vn -0.35806 0.54915 0.75513
vn -0.71484 0.61817 0.32691
vn -0.12838 0.74401 0.65572
vn -0.13106 0.39715 0.90835
vn 0.00000 0.81413 -0.58069
vn -0.00000 0.99863 -0.05229
vn -0.12255 -0.95317 -0.27648
vn -0.09185 -0.98456 -0.14899
vn -0.05275 -0.99232 -0.11193
vn -0.04883 -0.99228 -0.11402
vn -0.03718 -0.99339 -0.10858
vn -0.14748 -0.85915 -0.49001
vn -0.15230 -0.92114 -0.35819
vn 0.00000 0.63414 0.77322
vn 0.00000 0.42787 0.90384
vn -0.00000 0.99022 0.13953
vn -0.00000 0.99268 0.12075
vn -0.00000 -0.56236 -0.82689
vn 0.02765 -0.68957 -0.72369
vn -0.07548 -0.56075 -0.82453
vn -0.00000 -0.41746 -0.90869
vn -0.58722 -0.16467 0.79250
vn -0.37858 -0.87671 0.29675
vn -0.23577 -0.15683 0.95907
vn -0.19920 -0.11709 0.97294
vn -0.42972 -0.19882 0.88080
vn -0.00000 0.88819 0.45948
vn 0.00000 -0.62233 0.78275
vn -0.00000 0.58645 0.80998
vn -0.19920 -0.11709 0.97294
vn -0.03757 -0.64043 0.76710
vn -0.23206 -0.45951 -0.85732
vn -0.23806 -0.89779 -0.37053
vn -0.38653 -0.88492 -0.25982
vn -0.85861 -0.29899 -0.41642
vn -0.30459 -0.50727 -0.80617
vn -0.68124 0.72696 -0.08629
vn -0.00000 0.99837 -0.05703
vn -0.44476 -0.89367 -0.05947
vn -0.56827 -0.82168 -0.04360
vn -0.66087 -0.63387 0.40182
vn -0.66087 -0.63387 0.40182
vn 0.05573 -0.24503 0.96791
vn 0.00980 -0.87900 -0.47672
vn -0.79815 0.58208 0.15536
vn -0.64421 -0.54206 0.53959
vn -0.42972 -0.19882 0.88080
vn -0.23577 -0.15683 0.95907
vn -0.56736 -0.64105 0.51688
vn -0.50619 -0.41461 -0.75622
vn -0.40184 0.23069 -0.88618
vn -0.05714 -0.20264 -0.97759
vn -0.56345 -0.68380 0.46361
vn 0.07936 -0.54398 0.83534
vn 0.62991 -0.69963 0.33724
vn 0.73667 -0.53277 -0.41651
vn -0.60078 0.79607 0.07305
vn -0.98025 -0.19664 0.02087
vn -0.43186 -0.90156 0.02634
vn 0.73667 -0.53277 -0.41651
vn -0.43186 -0.90156 0.02634
vn -0.32613 -0.01318 0.94523
vn -0.56564 0.79155 0.23129
vn 0.62991 -0.69963 0.33724
vn -0.00174 -0.04827 -0.99883
vn -0.02350 -0.16507 0.98600
vn -0.56736 -0.64105 0.51688
vn -0.56345 -0.68380 0.46361
vn -0.50619 -0.41461 -0.75622
vn -0.68901 0.72338 -0.04456
vn 0.04244 0.00134 0.99910
vn -0.04644 -0.09548 0.99435
vn 0.47633 -0.87915 -0.01465
vn -0.35821 -0.03333 -0.93305
vn 0.47633 -0.87915 -0.01465
vn 0.38317 -0.91260 0.14263
vn -0.37858 -0.87671 0.29675
vn -0.60867 -0.78306 -0.12783
vn -0.33754 -0.28613 -0.89677
vn -0.79815 0.58208 0.15536
vn -0.70609 0.70733 -0.03341
vn -0.23577 -0.15683 0.95907
vn 0.01904 0.04065 0.99899
vn 0.38317 -0.91260 0.14263
vn -0.37858 -0.87671 0.29675
vn -0.18432 -0.79099 0.58341
vn -0.23345 -0.90296 0.36077
vn 0.00000 -0.52073 -0.85372
vn 0.00000 0.96015 0.27948
vn -0.15564 0.13649 0.97834
vn 0.06945 -0.23877 0.96859
vn 0.00980 -0.87900 -0.47672
vn 0.63293 -0.65958 -0.40541
vn 0.00980 -0.87900 -0.47672
vn 0.08727 -0.24880 0.96462
vn -0.01659 -0.30143 -0.95334
vn 0.05573 -0.24503 0.96791
vn -0.66087 -0.63387 0.40182
vn -0.23206 -0.45951 -0.85732
vn -0.42757 -0.46247 -0.77673
vn -0.30459 -0.50727 -0.80617
vn 0.30189 0.95286 0.03032
vn 0.60807 0.79385 -0.00723
vn 0.50078 0.86248 0.07307
vn 0.20005 0.96386 0.17595
vn 0.28167 0.95381 -0.10445
vn 0.24717 0.93562 -0.25205
vn 0.55676 0.81110 -0.17929
vn 0.58641 0.80604 -0.08013
vn 0.43103 0.87736 0.21085
vn 0.62830 -0.70321 0.33277
vn 0.23707 0.36277 -0.90122
vn 0.36166 -0.14630 -0.92076
vn -0.05192 0.04910 -0.99744
vn 0.60298 -0.78351 0.15009
vn 0.01665 -0.68984 0.72377
vn -0.68876 -0.40174 -0.60351
vn -0.70665 -0.69807 0.11550
vn 0.52969 0.84356 -0.08846
vn 0.92979 -0.35933 -0.07984
vn 0.43385 -0.81108 -0.39233
vn -0.68876 -0.40174 -0.60351
vn 0.43385 -0.81108 -0.39233
vn 0.45298 -0.18706 0.87167
vn 0.59304 0.69235 0.41104
vn -0.06807 0.31769 -0.94575
vn -0.70665 -0.69807 0.11550
vn 0.06014 -0.33401 0.94065
vn 0.20019 0.84683 -0.49275
vn 0.20063 0.75593 -0.62316
vn 0.34398 0.71928 -0.60358
vn 0.32306 0.83737 -0.44096
vn 0.48950 0.77008 -0.40911
vn 0.63400 0.77049 0.06632
vn 0.51615 0.80094 0.30344
vn 0.71717 0.69688 -0.00439
vn 0.69933 0.67603 -0.23221
vn 0.56027 0.64542 -0.51917
vn 0.28775 0.80247 0.52273
vn 0.24915 0.87136 0.42268
vn 0.73733 0.58528 -0.33732
vn 0.74829 0.60146 -0.27982
vn 0.72447 0.62066 -0.29987
vn 0.80578 0.44419 -0.39167
vn 0.83866 0.37512 -0.39489
vn 0.73648 0.61971 -0.27122
vn 0.74430 -0.52103 -0.41778
vn 0.77519 -0.49409 -0.39365
vn 0.70645 0.48083 -0.51935
vn 0.23423 -0.91019 -0.34160
vn 0.90448 0.14876 -0.39974
vn 0.81995 0.40961 -0.39989
vn 0.23423 -0.91019 -0.34160
vn 0.90448 0.14876 -0.39974
vn 0.55682 0.72889 -0.39834
vn 0.47863 0.72767 -0.49133
vn 0.62659 0.54568 -0.55644
vn 0.90448 0.14876 -0.39974
vn 0.66294 0.72250 0.19623
vn 0.41261 0.89375 0.17597
vn 0.52695 0.84932 0.03128
vn 0.68692 0.65312 -0.31870
vn 0.68388 0.45260 -0.57224
vn 0.83181 0.46292 -0.30627
vn 0.62659 0.54568 -0.55644
vn 0.67759 -0.50164 -0.53780
vn 0.69938 -0.62606 -0.34483
vn 0.86209 0.28808 -0.41692
vn 0.94300 0.30504 -0.13303
vn 0.83949 0.54204 -0.03798
vn 0.57151 -0.69461 0.43692
vn 0.78345 -0.62047 0.03498
vn 0.72243 -0.67619 -0.14445
vn 0.64148 -0.72561 0.24898
vn 0.95470 0.11680 0.27369
vn 0.94689 0.26980 -0.17493
vn 0.89686 0.11035 0.42833
vn 0.78345 -0.62047 0.03498
vn 0.66738 -0.59494 -0.44795
vn 0.88736 -0.09826 -0.45049
vn 0.94649 0.32218 0.01917
vn 0.52781 0.84734 0.05850
vn 0.60417 0.47172 -0.64223
vn 0.34919 -0.40712 -0.84399
vn 0.04629 -0.54323 -0.83831
vn 0.12666 -0.75050 -0.64862
vn 0.03565 -0.65441 -0.75530
vn 0.62830 -0.70321 0.33277
vn 0.36166 -0.14630 -0.92076
vn 0.60298 -0.78351 0.15009
vn 0.11053 -0.41830 0.90156
vn 0.18650 0.44885 -0.87393
vn -0.63293 -0.65958 -0.40541
vn 0.58114 0.70741 0.40231
vn 0.06799 0.87863 0.47264
vn 0.05544 0.92880 0.36641
vn 0.15362 0.08787 -0.98422
vn 0.62880 0.77360 0.07853
vn 0.85861 -0.29898 -0.41642
vn 0.27154 0.14617 -0.95126
vn 0.37406 -0.78659 -0.49129
vn 0.42757 -0.46247 -0.77673
vn 0.43351 -0.89928 0.05801
vn 0.59801 -0.79961 0.05487
vn 0.69375 -0.70164 0.16249
vn 0.34936 -0.90750 0.23322
vn 0.60867 -0.78306 -0.12783
vn 0.65395 -0.75623 0.02165
vn 0.51100 -0.85859 0.04126
vn 0.48293 -0.85019 0.20966
vn 0.87653 -0.42595 0.22418
vn 0.77663 -0.58877 0.22404
vn 0.97073 -0.21277 0.11144
vn 0.86196 0.47725 0.17104
vn 0.68800 0.70221 0.18316
vn -0.01327 -0.61023 -0.79211
vn 0.37858 -0.87671 0.29675
vn 0.40400 -0.91443 -0.02434
vn 0.79853 -0.38548 0.46233
vn 0.87653 -0.42595 0.22418
vn 0.81878 0.57325 0.03126
vn 0.85524 0.51647 0.04272
vn 0.92406 -0.37953 0.04545
vn 0.96299 -0.26300 0.05896
vn 0.74100 -0.15346 0.65374
vn 0.96811 0.19433 0.15813
vn 0.83852 -0.53646 0.09533
vn 0.89942 -0.43100 0.07264
vn 0.87663 0.47955 0.03929
vn 0.77589 0.63027 0.02748
vn 0.85931 -0.50856 0.05434
vn 0.95847 -0.28203 0.04244
vn 0.74113 0.66613 0.08362
vn 0.72633 0.68546 0.05076
vn 0.81814 -0.55734 0.14148
vn 0.95968 0.18783 0.20911
vn 0.97073 -0.21277 0.11144
vn 0.81814 -0.55734 0.14148
vn 0.95968 0.18783 0.20911
vn 0.86196 0.47725 0.17104
vn 0.45331 0.75206 0.47846
vn 0.79853 -0.38548 0.46233
vn 0.94649 0.32218 0.01917
vn 0.52781 0.84734 0.05850
vn 0.48335 0.86664 0.12372
vn 0.56909 0.75652 0.32221
vn 0.12952 0.95286 0.27436
vn 0.26262 0.92354 -0.27947
vn 0.32178 0.79090 -0.52051
vn 0.71663 0.69344 -0.07471
vn 0.40643 0.78621 0.46550
vn 0.71484 0.61817 0.32691
vn 0.35806 0.54915 0.75513
vn 0.12838 0.74401 0.65572
vn 0.13106 0.39715 0.90835
vn 0.12255 -0.95317 -0.27648
vn 0.05275 -0.99232 -0.11193
vn 0.09185 -0.98456 -0.14899
vn 0.03718 -0.99339 -0.10858
vn 0.04883 -0.99228 -0.11402
vn 0.15230 -0.92114 -0.35819
vn 0.14748 -0.85915 -0.49001
vn 0.07548 -0.56075 -0.82453
vn -0.02765 -0.68957 -0.72369
vn 0.58722 -0.16467 0.79250
vn 0.23577 -0.15683 0.95907
vn 0.37858 -0.87671 0.29675
vn 0.19920 -0.11709 0.97294
vn 0.42972 -0.19882 0.88080
vn 0.03757 -0.64043 0.76710
vn 0.19920 -0.11709 0.97294
vn 0.23672 -0.89632 -0.37492
vn 0.23080 -0.45751 -0.85873
vn 0.38653 -0.88492 -0.25982
vn 0.30459 -0.50727 -0.80617
vn 0.85861 -0.29898 -0.41642
vn 0.68124 0.72696 -0.08629
vn 0.56827 -0.82168 -0.04360
vn 0.44476 -0.89367 -0.05947
vn 0.66087 -0.63387 0.40182
vn 0.66087 -0.63387 0.40182
vn -0.05573 -0.24503 0.96791
vn -0.00980 -0.87900 -0.47672
vn 0.79815 0.58208 0.15536
vn 0.23577 -0.15683 0.95907
vn 0.42972 -0.19882 0.88080
vn 0.64421 -0.54206 0.53959
vn 0.56736 -0.64105 0.51688
vn 0.40184 0.23069 -0.88618
vn 0.50619 -0.41461 -0.75622
vn 0.05714 -0.20264 -0.97759
vn 0.56345 -0.68380 0.46361
vn -0.07936 -0.54398 0.83534
vn -0.73667 -0.53277 -0.41651
vn -0.62991 -0.69964 0.33724
vn 0.60078 0.79607 0.07305
vn 0.98025 -0.19664 0.02087
vn 0.43186 -0.90156 0.02634
vn -0.73667 -0.53277 -0.41651
vn 0.43186 -0.90156 0.02634
vn 0.32613 -0.01318 0.94523
vn 0.56564 0.79155 0.23129
vn 0.00174 -0.04827 -0.99883
vn -0.62991 -0.69964 0.33724
vn 0.02350 -0.16507 0.98600
vn 0.56736 -0.64105 0.51688
vn 0.50619 -0.41461 -0.75622
vn 0.56345 -0.68380 0.46361
vn 0.04644 -0.09548 0.99435
vn -0.04244 0.00134 0.99910
vn 0.68901 0.72338 -0.04456
vn 0.35821 -0.03333 -0.93305
vn -0.47633 -0.87915 -0.01465
vn -0.47633 -0.87915 -0.01465
vn -0.38317 -0.91260 0.14263
vn 0.33754 -0.28613 -0.89677
vn 0.60867 -0.78306 -0.12783
vn 0.37858 -0.87671 0.29675
vn 0.70609 0.70733 -0.03341
vn 0.79815 0.58208 0.15536
vn -0.01904 0.04064 0.99899
vn 0.23577 -0.15683 0.95907
vn -0.38317 -0.91260 0.14263
vn 0.37858 -0.87671 0.29675
vn 0.18432 -0.79099 0.58341
vn 0.23345 -0.90296 0.36077
vn 0.15564 0.13649 0.97834
vn -0.06945 -0.23877 0.96859
vn -0.00980 -0.87900 -0.47672
vn -0.63293 -0.65958 -0.40541
vn -0.00980 -0.87900 -0.47672
vn -0.08727 -0.24880 0.96462
vn 0.01659 -0.30143 -0.95334
vn 0.66087 -0.63387 0.40182
vn -0.05573 -0.24503 0.96791
vn 0.23080 -0.45751 -0.85873
vn 0.30459 -0.50727 -0.80617
vn 0.42757 -0.46247 -0.77673
f 475/475/475 476/476/476 230/230/230
f 230/230/230 233/233/233 475/475/475
f 232/232/232 233/233/233 230/230/230
f 230/230/230 231/231/231 232/232/232
f 371/371/371 387/387/387 389/389/389
f 387/387/387 386/386/386 383/383/383
f 383/383/383 389/389/389 387/387/387
f 385/385/385 386/386/386 387/387/387
f 389/389/389 427/427/427 371/371/371
f 371/371/371 427/427/427 372/372/372
f 371/371/371 372/372/372 373/373/373
f 389/389/389 383/383/383 384/384/384
f 384/384/384 455/455/455 389/389/389
f 427/427/427 389/389/389 455/455/455
f 198/198/198 86/86/86 383/383/383
f 383/383/383 386/386/386 198/198/198
f 85/85/85 384/384/384 383/383/383
f 383/383/383 86/86/86 85/85/85
f 198/198/198 386/386/386 385/385/385
f 385/385/385 199/199/199 198/198/198
f 198/198/198 90/90/90 83/83/83
f 83/83/83 86/86/86 198/198/198
f 87/87/87 90/90/90 198/198/198
f 198/198/198 199/199/199 87/87/87
f 85/85/85 86/86/86 83/83/83
f 83/83/83 84/84/84 85/85/85
f 84/84/84 83/83/83 91/91/91
f 89/89/89 91/91/91 83/83/83
f 83/83/83 90/90/90 89/89/89
f 89/89/89 90/90/90 87/87/87
f 91/91/91 89/89/89 68/68/68
f 48/48/48 68/68/68 89/89/89
f 89/89/89 88/88/88 48/48/48
f 87/87/87 88/88/88 89/89/89
f 47/47/47 88/88/88 87/87/87
f 87/87/87 49/49/49 47/47/47
f 87/87/87 199/199/199 81/81/81
f 81/81/81 49/49/49 87/87/87
f 81/81/81 199/199/199 385/385/385
f 88/88/88 47/47/47 48/48/48
f 68/68/68 48/48/48 69/69/69
f 68/68/68 136/136/136 91/91/91
f 68/68/68 70/70/70 136/136/136
f 400/400/400 402/402/402 328/328/328
f 400/400/400 401/401/401 402/402/402
f 335/335/335 328/328/328 402/402/402
f 328/328/328 330/330/330 340/340/340
f 328/328/328 335/335/335 329/329/329
f 328/328/328 329/329/329 330/330/330
f 340/340/340 330/330/330 403/403/403
f 337/337/337 340/340/340 403/403/403
f 544/544/544 403/403/403 330/330/330
f 330/330/330 542/542/542 544/544/544
f 337/337/337 403/403/403 544/544/544
f 544/544/544 406/406/406 337/337/337
f 542/542/542 540/540/540 544/544/544
f 544/544/544 540/540/540 406/406/406
f 494/494/494 540/540/540 542/542/542
f 542/542/542 543/543/543 494/494/494
f 406/406/406 540/540/540 494/494/494
f 404/404/404 406/406/406 410/410/410
f 15/15/15 105/105/105 104/104/104
f 104/104/104 105/105/105 106/106/106
f 22/22/22 105/105/105 15/15/15
f 15/15/15 27/27/27 16/16/16
f 15/15/15 17/17/17 22/22/22
f 15/15/15 16/16/16 17/17/17
f 27/27/27 107/107/107 16/16/16
f 24/24/24 107/107/107 27/27/27
f 307/307/307 305/305/305 16/16/16
f 16/16/16 107/107/107 307/307/307
f 307/307/307 107/107/107 24/24/24
f 24/24/24 110/110/110 307/307/307
f 305/305/305 307/307/307 303/303/303
f 307/307/307 110/110/110 303/303/303
f 255/255/255 306/306/306 305/305/305
f 305/305/305 303/303/303 255/255/255
f 255/255/255 303/303/303 110/110/110
f 116/116/116 110/110/110 109/109/109
f 219/219/219 225/225/225 220/220/220
f 219/219/219 224/224/224 225/225/225
f 219/219/219 220/220/220 221/221/221
f 221/221/221 220/220/220 222/222/222
f 221/221/221 222/222/222 223/223/223
f 468/468/468 470/470/470 473/473/473
f 468/468/468 473/473/473 474/474/474
f 468/468/468 469/469/469 470/470/470
f 469/469/469 472/472/472 470/470/470
f 469/469/469 471/471/471 472/472/472
f 58/58/58 201/201/201 55/55/55
f 57/57/57 58/58/58 55/55/55
f 55/55/55 56/56/56 57/57/57
f 58/58/58 365/365/365 201/201/201
f 365/365/365 58/58/58 57/57/57
f 57/57/57 366/366/366 365/365/365
f 302/302/302 282/282/282 293/293/293
f 293/293/293 282/282/282 286/286/286
f 277/277/277 286/286/286 282/282/282
f 286/286/286 291/291/291 293/293/293
f 295/295/295 293/293/293 292/292/292
f 292/292/292 293/293/293 291/291/291
f 296/296/296 295/295/295 294/294/294
f 292/292/292 294/294/294 295/295/295
f 294/294/294 297/297/297 296/296/296
f 291/291/291 290/290/290 292/292/292
f 285/285/285 288/288/288 291/291/291
f 291/291/291 286/286/286 285/285/285
f 290/290/290 291/291/291 288/288/288
f 285/285/285 286/286/286 277/277/277
f 277/277/277 276/276/276 285/285/285
f 277/277/277 264/264/264 272/272/272
f 272/272/272 276/276/276 277/277/277
f 265/265/265 271/271/271 264/264/264
f 271/271/271 272/272/272 264/264/264
f 264/264/264 262/262/262 265/265/265
f 288/288/288 289/289/289 290/290/290
f 539/539/539 533/533/533 531/531/531
f 524/524/524 523/523/523 531/531/531
f 523/523/523 524/524/524 515/515/515
f 531/531/531 528/528/528 524/524/524
f 532/532/532 531/531/531 533/533/533
f 528/528/528 531/531/531 532/532/532
f 534/534/534 533/533/533 535/535/535
f 533/533/533 534/534/534 532/532/532
f 535/535/535 536/536/536 534/534/534
f 532/532/532 529/529/529 528/528/528
f 525/525/525 524/524/524 528/528/528
f 528/528/528 527/527/527 525/525/525
f 527/527/527 528/528/528 529/529/529
f 515/515/515 524/524/524 525/525/525
f 525/525/525 516/516/516 515/515/515
f 515/515/515 516/516/516 511/511/511
f 511/511/511 503/503/503 515/515/515
f 510/510/510 503/503/503 511/511/511
f 504/504/504 503/503/503 510/510/510
f 503/503/503 504/504/504 502/502/502
f 529/529/529 530/530/530 527/527/527
f 69/69/69 70/70/70 68/68/68
f 134/134/134 70/70/70 69/69/69
f 69/69/69 74/74/74 134/134/134
f 67/67/67 74/74/74 69/69/69
f 70/70/70 135/135/135 205/205/205
f 205/205/205 136/136/136 70/70/70
f 70/70/70 134/134/134 135/135/135
f 136/136/136 205/205/205 204/204/204
f 204/204/204 91/91/91 136/136/136
f 91/91/91 204/204/204 84/84/84
f 456/456/456 135/135/135 372/372/372
f 372/372/372 135/135/135 134/134/134
f 134/134/134 74/74/74 373/373/373
f 369/369/369 370/370/370 63/63/63
f 63/63/63 66/66/66 369/369/369
f 65/65/65 66/66/66 63/63/63
f 63/63/63 64/64/64 65/65/65
f 202/202/202 369/369/369 66/66/66
f 202/202/202 66/66/66 65/65/65
f 177/177/177 158/158/158 154/154/154
f 154/154/154 175/175/175 177/177/177
f 175/175/175 154/154/154 157/157/157
f 155/155/155 154/154/154 158/158/158
f 156/156/156 157/157/157 154/154/154
f 154/154/154 155/155/155 156/156/156
f 177/177/177 193/193/193 191/191/191
f 191/191/191 158/158/158 177/177/177
f 177/177/177 175/175/175 172/172/172
f 172/172/172 176/176/176 177/177/177
f 193/193/193 177/177/177 176/176/176
f 171/171/171 159/159/159 158/158/158
f 158/158/158 191/191/191 171/171/171
f 156/156/156 187/187/187 446/446/446
f 446/446/446 434/434/434 156/156/156
f 436/436/436 434/434/434 446/446/446
f 446/446/446 440/440/440 436/436/436
f 440/440/440 446/446/446 445/445/445
f 194/194/194 451/451/451 445/445/445
f 439/439/439 445/445/445 451/451/451
f 445/445/445 439/439/439 440/440/440
f 171/171/171 436/436/436 440/440/440
f 440/440/440 169/169/169 171/171/171
f 169/169/169 440/440/440 439/439/439
f 435/435/435 436/436/436 171/171/171
f 434/434/434 436/436/436 435/435/435
f 435/435/435 433/433/433 434/434/434
f 156/156/156 434/434/434 433/433/433
f 433/433/433 157/157/157 156/156/156
f 444/444/444 442/442/442 433/433/433
f 433/433/433 435/435/435 444/444/444
f 157/157/157 433/433/433 442/442/442
f 444/444/444 435/435/435 191/191/191
f 171/171/171 191/191/191 435/435/435
f 191/191/191 193/193/193 444/444/444
f 444/444/444 443/443/443 441/441/441
f 441/441/441 442/442/442 444/444/444
f 443/443/443 444/444/444 193/193/193
f 442/442/442 441/441/441 173/173/173
f 173/173/173 174/174/174 442/442/442
f 442/442/442 174/174/174 157/157/157
f 158/158/158 159/159/159 155/155/155
f 156/156/156 155/155/155 179/179/179
f 179/179/179 155/155/155 159/159/159
f 159/159/159 168/168/168 179/179/179
f 168/168/168 159/159/159 171/171/171
f 179/179/179 187/187/187 156/156/156
f 186/186/186 187/187/187 179/179/179
f 179/179/179 178/178/178 186/186/186
f 178/178/178 179/179/179 168/168/168
f 168/168/168 167/167/167 178/178/178
f 171/171/171 169/169/169 168/168/168
f 167/167/167 168/168/168 169/169/169
f 178/178/178 185/185/185 194/194/194
f 194/194/194 186/186/186 178/178/178
f 185/185/185 178/178/178 167/167/167
f 445/445/445 186/186/186 194/194/194
f 186/186/186 445/445/445 446/446/446
f 446/446/446 187/187/187 186/186/186
f 424/424/424 447/447/447 448/448/448
f 423/423/423 424/424/424 425/425/425
f 425/425/425 426/426/426 423/423/423
f 451/451/451 450/450/450 439/439/439
f 183/183/183 170/170/170 439/439/439
f 439/439/439 450/450/450 183/183/183
f 439/439/439 170/170/170 169/169/169
f 169/169/169 170/170/170 167/167/167
f 167/167/167 170/170/170 183/183/183
f 183/183/183 184/184/184 167/167/167
f 167/167/167 184/184/184 185/185/185
f 417/417/417 418/418/418 415/415/415
f 415/415/415 491/491/491 490/490/490
f 491/491/491 486/486/486 488/488/488
f 488/488/488 490/490/490 491/491/491
f 487/487/487 488/488/488 486/486/486
f 189/189/189 127/127/127 130/130/130
f 129/129/129 130/130/130 127/127/127
f 127/127/127 128/128/128 129/129/129
f 189/189/189 188/188/188 424/424/424
f 424/424/424 423/423/423 189/189/189
f 130/130/130 188/188/188 189/189/189
f 188/188/188 130/130/130 182/182/182
f 181/181/181 182/182/182 130/130/130
f 130/130/130 180/180/180 181/181/181
f 188/188/188 190/190/190 447/447/447
f 447/447/447 424/424/424 188/188/188
f 182/182/182 190/190/190 188/188/188
f 448/448/448 449/449/449 424/424/424
f 484/484/484 413/413/413 430/430/430
f 430/430/430 495/495/495 484/484/484
f 430/430/430 421/421/421 420/420/420
f 420/420/420 492/492/492 430/430/430
f 146/146/146 421/421/421 430/430/430
f 421/421/421 146/146/146 141/141/141
f 141/141/141 146/146/146 125/125/125
f 145/145/145 125/125/125 146/146/146
f 141/141/141 422/422/422 421/421/421
f 421/421/421 422/422/422 419/419/419
f 419/419/419 420/420/420 421/421/421
f 416/416/416 420/420/420 419/419/419
f 492/492/492 420/420/420 416/416/416
f 245/245/245 256/256/256 145/145/145
f 244/244/244 256/256/256 245/245/245
f 256/256/256 309/309/309 310/310/310
f 247/247/247 246/246/246 251/251/251
f 246/246/246 247/247/247 248/248/248
f 485/485/485 484/484/484 495/495/495
f 413/413/413 484/484/484 485/485/485
f 495/495/495 546/546/546 547/547/547
f 416/416/416 490/490/490 492/492/492
f 488/488/488 492/492/492 490/490/490
f 419/419/419 417/417/417 416/416/416
f 490/490/490 416/416/416 415/415/415
f 415/415/415 416/416/416 417/417/417
f 496/496/496 417/417/417 419/419/419
f 429/429/429 419/419/419 422/422/422
f 429/429/429 422/422/422 141/141/141
f 429/429/429 140/140/140 150/150/150
f 150/150/150 431/431/431 429/429/429
f 141/141/141 140/140/140 429/429/429
f 150/150/150 140/140/140 139/139/139
f 139/139/139 140/140/140 141/141/141
f 431/431/431 150/150/150 149/149/149
f 139/139/139 147/147/147 150/150/150
f 149/149/149 150/150/150 147/147/147
f 149/149/149 432/432/432 431/431/431
f 147/147/147 148/148/148 149/149/149
f 195/195/195 148/148/148 196/196/196
f 228/228/228 195/195/195 197/197/197
f 196/196/196 197/197/197 195/195/195
f 197/197/197 196/196/196 234/234/234
f 235/235/235 234/234/234 196/196/196
f 234/234/234 237/237/237 197/197/197
f 241/241/241 229/229/229 197/197/197
f 197/197/197 242/242/242 241/241/241
f 197/197/197 229/229/229 228/228/228
f 453/453/453 452/452/452 228/228/228
f 228/228/228 229/229/229 453/453/453
f 453/453/453 229/229/229 241/241/241
f 241/241/241 483/483/483 453/453/453
f 483/483/483 241/241/241 240/240/240
f 240/240/240 241/241/241 242/242/242
f 242/242/242 243/243/243 240/240/240
f 240/240/240 482/482/482 483/483/483
f 481/481/481 480/480/480 482/482/482
f 482/482/482 537/537/537 481/481/481
f 480/480/480 481/481/481 478/478/478
f 453/453/453 480/480/480 477/477/477
f 122/122/122 121/121/121 123/123/123
f 121/121/121 122/122/122 119/119/119
f 119/119/119 120/120/120 121/121/121
f 123/123/123 126/126/126 122/122/122
f 139/139/139 124/124/124 123/123/123
f 125/125/125 126/126/126 123/123/123
f 123/123/123 124/124/124 125/125/125
f 122/122/122 126/126/126 253/253/253
f 253/253/253 252/252/252 122/122/122
f 119/119/119 122/122/122 252/252/252
f 252/252/252 251/251/251 119/119/119
f 247/247/247 252/252/252 253/253/253
f 251/251/251 252/252/252 247/247/247
f 145/145/145 253/253/253 126/126/126
f 126/126/126 125/125/125 145/145/145
f 125/125/125 124/124/124 141/141/141
f 141/141/141 124/124/124 139/139/139
f 256/256/256 310/310/310 145/145/145
f 210/210/210 206/206/206 209/209/209
f 207/207/207 206/206/206 210/210/210
f 208/208/208 209/209/209 206/206/206
f 206/206/206 207/207/207 208/208/208
f 209/209/209 214/214/214 210/210/210
f 210/210/210 211/211/211 207/207/207
f 212/212/212 209/209/209 208/208/208
f 214/214/214 209/209/209 212/212/212
f 218/218/218 301/301/301 208/208/208
f 208/208/208 207/207/207 218/218/218
f 215/215/215 208/208/208 301/301/301
f 208/208/208 215/215/215 212/212/212
f 217/217/217 218/218/218 207/207/207
f 464/464/464 465/465/465 463/463/463
f 463/463/463 458/458/458 464/464/464
f 459/459/459 460/460/460 457/457/457
f 457/457/457 458/458/458 459/459/459
f 462/462/462 464/464/464 458/458/458
f 458/458/458 457/457/457 462/462/462
f 462/462/462 457/457/457 460/460/460
f 217/217/217 461/461/461 460/460/460
f 460/460/460 461/461/461 462/462/462
f 250/250/250 151/151/151 1/1/1
f 1/1/1 5/5/5 250/250/250
f 1/1/1 4/4/4 6/6/6
f 6/6/6 5/5/5 1/1/1
f 2/2/2 1/1/1 151/151/151
f 3/3/3 4/4/4 1/1/1
f 1/1/1 2/2/2 3/3/3
f 250/250/250 318/318/318 314/314/314
f 314/314/314 151/151/151 250/250/250
f 318/318/318 250/250/250 40/40/40
f 40/40/40 250/250/250 5/5/5
f 5/5/5 8/8/8 40/40/40
f 7/7/7 8/8/8 5/5/5
f 316/316/316 322/322/322 317/317/317
f 152/152/152 317/317/317 408/408/408
f 317/317/317 152/152/152 151/151/151
f 317/317/317 352/352/352 408/408/408
f 322/322/322 352/352/352 317/317/317
f 151/151/151 152/152/152 2/2/2
f 408/408/408 153/153/153 152/152/152
f 111/111/111 2/2/2 152/152/152
f 152/152/152 153/153/153 111/111/111
f 153/153/153 408/408/408 407/407/407
f 407/407/407 408/408/408 352/352/352
f 352/352/352 351/351/351 407/407/407
f 352/352/352 322/322/322 347/347/347
f 518/518/518 520/520/520 505/505/505
f 518/518/518 519/519/519 520/520/520
f 512/512/512 505/505/505 520/520/520
f 505/505/505 507/507/507 517/517/517
f 505/505/505 512/512/512 506/506/506
f 505/505/505 506/506/506 507/507/507
f 521/521/521 517/517/517 507/507/507
f 514/514/514 517/517/517 521/521/521
f 522/522/522 521/521/521 507/507/507
f 507/507/507 526/526/526 522/522/522
f 514/514/514 521/521/521 522/522/522
f 515/515/515 514/514/514 523/523/523
f 522/522/522 523/523/523 514/514/514
f 526/526/526 539/539/539 522/522/522
f 522/522/522 539/539/539 523/523/523
f 533/533/533 539/539/539 526/526/526
f 526/526/526 535/535/535 533/533/533
f 531/531/531 523/523/523 539/539/539
f 266/266/266 280/280/280 279/279/279
f 279/279/279 280/280/280 281/281/281
f 273/273/273 280/280/280 266/266/266
f 266/266/266 278/278/278 267/267/267
f 266/266/266 268/268/268 273/273/273
f 266/266/266 267/267/267 268/268/268
f 284/284/284 267/267/267 278/278/278
f 275/275/275 284/284/284 278/278/278
f 283/283/283 287/287/287 267/267/267
f 267/267/267 284/284/284 283/283/283
f 283/283/283 284/284/284 275/275/275
f 282/282/282 275/275/275 277/277/277
f 275/275/275 282/282/282 283/283/283
f 287/287/287 283/283/283 302/302/302
f 283/283/283 282/282/282 302/302/302
f 295/295/295 296/296/296 287/287/287
f 287/287/287 302/302/302 295/295/295
f 293/293/293 295/295/295 302/302/302
f 157/157/157 174/174/174 175/175/175
f 175/175/175 174/174/174 173/173/173
f 164/164/164 173/173/173 441/441/441
f 173/173/173 172/172/172 175/175/175
f 172/172/172 173/173/173 164/164/164
f 443/443/443 438/438/438 441/441/441
f 441/441/441 438/438/438 164/164/164
f 165/165/165 164/164/164 438/438/438
f 164/164/164 161/161/161 172/172/172
f 161/161/161 164/164/164 165/165/165
f 176/176/176 172/172/172 161/161/161
f 176/176/176 161/161/161 160/160/160
f 165/165/165 162/162/162 161/161/161
f 347/347/347 351/351/351 352/352/352
f 407/407/407 239/239/239 153/153/153
f 112/112/112 111/111/111 153/153/153
f 153/153/153 239/239/239 112/112/112
f 2/2/2 111/111/111 41/41/41
f 41/41/41 111/111/111 112/112/112
f 9/9/9 2/2/2 41/41/41
f 3/3/3 2/2/2 9/9/9
f 112/112/112 42/42/42 41/41/41
f 41/41/41 42/42/42 33/33/33
f 33/33/33 9/9/9 41/41/41
f 3/3/3 9/9/9 33/33/33
f 4/4/4 3/3/3 34/34/34
f 33/33/33 34/34/34 3/3/3
f 4/4/4 35/35/35 249/249/249
f 34/34/34 35/35/35 4/4/4
f 397/397/397 396/396/396 398/398/398
f 395/395/395 396/396/396 397/397/397
f 393/393/393 392/392/392 395/395/395
f 395/395/395 394/394/394 393/393/393
f 396/396/396 395/395/395 392/392/392
f 414/414/414 398/398/398 396/396/396
f 392/392/392 414/414/414 396/396/396
f 398/398/398 414/414/414 487/487/487
f 486/486/486 398/398/398 487/487/487
f 485/485/485 414/414/414 413/413/413
f 413/413/413 414/414/414 392/392/392
f 392/392/392 391/391/391 413/413/413
f 392/392/392 393/393/393 390/390/390
f 390/390/390 391/391/391 392/392/392
f 142/142/142 391/391/391 390/390/390
f 413/413/413 391/391/391 142/142/142
f 390/390/390 203/203/203 142/142/142
f 142/142/142 143/143/143 413/413/413
f 117/117/117 143/143/143 142/142/142
f 413/413/413 143/143/143 144/144/144
f 144/144/144 143/143/143 117/117/117
f 145/145/145 117/117/117 245/245/245
f 244/244/244 245/245/245 117/117/117
f 117/117/117 145/145/145 144/144/144
f 430/430/430 144/144/144 146/146/146
f 144/144/144 430/430/430 413/413/413
f 146/146/146 144/144/144 145/145/145
f 495/495/495 430/430/430 546/546/546
f 238/238/238 298/298/298 243/243/243
f 243/243/243 237/237/237 238/238/238
f 236/236/236 238/238/238 237/237/237
f 237/237/237 234/234/234 236/236/236
f 234/234/234 235/235/235 236/236/236
f 258/258/258 299/299/299 298/298/298
f 298/298/298 259/259/259 258/258/258
f 257/257/257 121/121/121 258/258/258
f 258/258/258 121/121/121 120/120/120
f 120/120/120 299/299/299 258/258/258
f 257/257/257 258/258/258 259/259/259
f 259/259/259 260/260/260 257/257/257
f 257/257/257 123/123/123 121/121/121
f 30/30/30 29/29/29 32/32/32
f 32/32/32 37/37/37 30/30/30
f 36/36/36 37/37/37 32/32/32
f 38/38/38 342/342/342 341/341/341
f 319/319/319 341/341/341 344/344/344
f 343/343/343 344/344/344 341/341/341
f 341/341/341 342/342/342 343/343/343
f 319/319/319 344/344/344 345/345/345
f 320/320/320 319/319/319 345/345/345
f 318/318/318 319/319/319 320/320/320
f 345/345/345 344/344/344 343/343/343
f 343/343/343 350/350/350 345/345/345
f 345/345/345 350/350/350 349/349/349
f 349/349/349 320/320/320 345/345/345
f 321/321/321 320/320/320 349/349/349
f 320/320/320 321/321/321 318/318/318
f 314/314/314 318/318/318 321/321/321
f 321/321/321 315/315/315 314/314/314
f 315/315/315 321/321/321 489/489/489
f 349/349/349 489/489/489 321/321/321
f 151/151/151 314/314/314 317/317/317
f 316/316/316 317/317/317 314/314/314
f 314/314/314 315/315/315 316/316/316
f 489/489/489 348/348/348 315/315/315
f 315/315/315 348/348/348 346/346/346
f 346/346/346 316/316/316 315/315/315
f 347/347/347 322/322/322 316/316/316
f 316/316/316 346/346/346 347/347/347
f 5/5/5 6/6/6 7/7/7
f 249/249/249 6/6/6 4/4/4
f 6/6/6 249/249/249 36/36/36
f 36/36/36 7/7/7 6/6/6
f 32/32/32 7/7/7 36/36/36
f 7/7/7 32/32/32 8/8/8
f 8/8/8 29/29/29 28/28/28
f 8/8/8 32/32/32 29/29/29
f 8/8/8 28/28/28 39/39/39
f 39/39/39 40/40/40 8/8/8
f 40/40/40 319/319/319 318/318/318
f 319/319/319 40/40/40 39/39/39
f 39/39/39 341/341/341 319/319/319
f 341/341/341 39/39/39 38/38/38
f 38/38/38 39/39/39 28/28/28
f 28/28/28 31/31/31 38/38/38
f 30/30/30 31/31/31 28/28/28
f 28/28/28 29/29/29 30/30/30
f 72/72/72 71/71/71 80/80/80
f 71/71/71 72/72/72 73/73/73
f 72/72/72 79/79/79 78/78/78
f 79/79/79 72/72/72 80/80/80
f 73/73/73 72/72/72 78/78/78
f 376/376/376 382/382/382 374/374/374
f 374/374/374 375/375/375 376/376/376
f 376/376/376 380/380/380 381/381/381
f 381/381/381 382/382/382 376/376/376
f 375/375/375 380/380/380 376/376/376
f 357/357/357 358/358/358 355/355/355
f 358/358/358 353/353/353 355/355/355
f 353/353/353 354/354/354 355/355/355
f 368/368/368 354/354/354 353/353/353
f 354/354/354 368/368/368 367/367/367
f 367/367/367 364/364/364 354/354/354
f 353/353/353 358/358/358 373/373/373
f 67/67/67 353/353/353 373/373/373
f 368/368/368 353/353/353 67/67/67
f 358/358/358 388/388/388 387/387/387
f 387/387/387 371/371/371 358/358/358
f 373/373/373 358/358/358 371/371/371
f 387/387/387 388/388/388 385/385/385
f 478/478/478 477/477/477 480/480/480
f 477/477/477 478/478/478 479/479/479
f 477/477/477 454/454/454 453/453/453
f 479/479/479 454/454/454 477/477/477
f 454/454/454 432/432/432 452/452/452
f 452/452/452 453/453/453 454/454/454
f 499/499/499 498/498/498 537/537/537
f 537/537/537 538/538/538 499/499/499
f 496/496/496 499/499/499 417/417/417
f 499/499/499 538/538/538 418/418/418
f 418/418/418 417/417/417 499/499/499
f 498/498/498 499/499/499 496/496/496
f 496/496/496 497/497/497 498/498/498
f 92/92/92 95/95/95 142/142/142
f 142/142/142 203/203/203 92/92/92
f 94/94/94 95/95/95 92/92/92
f 92/92/92 93/93/93 94/94/94
f 142/142/142 95/95/95 117/117/117
f 117/117/117 95/95/95 94/94/94
f 99/99/99 94/94/94 93/93/93
f 101/101/101 118/118/118 94/94/94
f 94/94/94 99/99/99 101/101/101
f 94/94/94 118/118/118 117/117/117
f 93/93/93 96/96/96 99/99/99
f 100/100/100 101/101/101 99/99/99
f 99/99/99 98/98/98 100/100/100
f 373/373/373 372/372/372 134/134/134
f 373/373/373 74/74/74 67/67/67
f 67/67/67 61/61/61 368/368/368
f 61/61/61 60/60/60 367/367/367
f 367/367/367 368/368/368 61/61/61
f 60/60/60 133/133/133 361/361/361
f 361/361/361 367/367/367 60/60/60
f 361/361/361 364/364/364 367/367/367
f 361/361/361 133/133/133 200/200/200
f 200/200/200 362/362/362 361/361/361
f 363/363/363 364/364/364 361/361/361
f 361/361/361 362/362/362 363/363/363
f 372/372/372 427/427/427 456/456/456
f 455/455/455 456/456/456 427/427/427
f 207/207/207 211/211/211 217/217/217
f 218/218/218 460/460/460 459/459/459
f 459/459/459 301/301/301 218/218/218
f 460/460/460 218/218/218 217/217/217
f 466/466/466 226/226/226 301/301/301
f 301/301/301 459/459/459 466/466/466
f 301/301/301 226/226/226 215/215/215
f 216/216/216 215/215/215 226/226/226
f 213/213/213 212/212/212 215/215/215
f 215/215/215 216/216/216 213/213/213
f 212/212/212 213/213/213 214/214/214
f 226/226/226 227/227/227 216/216/216
f 467/467/467 227/227/227 226/226/226
f 226/226/226 466/466/466 467/467/467
f 463/463/463 466/466/466 459/459/459
f 465/465/465 467/467/467 466/466/466
f 466/466/466 463/463/463 465/465/465
f 459/459/459 458/458/458 463/463/463
f 62/62/62 43/43/43 45/45/45
f 43/43/43 69/69/69 48/48/48
f 69/69/69 43/43/43 67/67/67
f 67/67/67 43/43/43 62/62/62
f 48/48/48 44/44/44 43/43/43
f 43/43/43 44/44/44 45/45/45
f 59/59/59 62/62/62 45/45/45
f 62/62/62 61/61/61 67/67/67
f 61/61/61 62/62/62 59/59/59
f 52/52/52 45/45/45 46/46/46
f 45/45/45 52/52/52 59/59/59
f 44/44/44 46/46/46 45/45/45
f 47/47/47 44/44/44 48/48/48
f 98/98/98 99/99/99 96/96/96
f 118/118/118 101/101/101 103/103/103
f 103/103/103 101/101/101 100/100/100
f 103/103/103 248/248/248 118/118/118
f 117/117/117 118/118/118 244/244/244
f 248/248/248 103/103/103 246/246/246
f 100/100/100 102/102/102 103/103/103
f 100/100/100 98/98/98 300/300/300
f 300/300/300 138/138/138 100/100/100
f 102/102/102 100/100/100 138/138/138
f 300/300/300 98/98/98 397/397/397
f 397/397/397 98/98/98 395/395/395
f 98/98/98 97/97/97 394/394/394
f 394/394/394 395/395/395 98/98/98
f 96/96/96 97/97/97 98/98/98
f 397/397/397 428/428/428 300/300/300
f 399/399/399 428/428/428 397/397/397
f 398/398/398 399/399/399 397/397/397
f 494/494/494 410/410/410 406/406/406
f 337/337/337 406/406/406 404/404/404
f 410/410/410 494/494/494 493/493/493
f 410/410/410 409/409/409 404/404/404
f 493/493/493 411/411/411 410/410/410
f 409/409/409 410/410/410 411/411/411
f 405/405/405 404/404/404 409/409/409
f 404/404/404 338/338/338 337/337/337
f 338/338/338 404/404/404 405/405/405
f 409/409/409 412/412/412 545/545/545
f 545/545/545 541/541/541 409/409/409
f 409/409/409 541/541/541 405/405/405
f 411/411/411 412/412/412 409/409/409
f 412/412/412 411/411/411 549/549/549
f 545/545/545 412/412/412 549/549/549
f 545/545/545 548/548/548 541/541/541
f 548/548/548 545/545/545 549/549/549
f 549/549/549 550/550/550 548/548/548
f 405/405/405 339/339/339 338/338/338
f 334/334/334 326/326/326 338/338/338
f 338/338/338 339/339/339 334/334/334
f 327/327/327 326/326/326 333/333/333
f 333/333/333 326/326/326 334/334/334
f 326/326/326 327/327/327 325/325/325
f 110/110/110 116/116/116 255/255/255
f 109/109/109 110/110/110 24/24/24
f 254/254/254 255/255/255 116/116/116
f 109/109/109 113/113/113 116/116/116
f 116/116/116 115/115/115 254/254/254
f 115/115/115 116/116/116 113/113/113
f 113/113/113 109/109/109 108/108/108
f 24/24/24 25/25/25 109/109/109
f 108/108/108 109/109/109 25/25/25
f 113/113/113 304/304/304 308/308/308
f 308/308/308 114/114/114 113/113/113
f 108/108/108 304/304/304 113/113/113
f 113/113/113 114/114/114 115/115/115
f 114/114/114 313/313/313 115/115/115
f 308/308/308 313/313/313 114/114/114
f 308/308/308 304/304/304 311/311/311
f 313/313/313 308/308/308 311/311/311
f 311/311/311 312/312/312 313/313/313
f 25/25/25 26/26/26 108/108/108
f 21/21/21 26/26/26 25/25/25
f 25/25/25 13/13/13 21/21/21
f 14/14/14 20/20/20 13/13/13
f 20/20/20 21/21/21 13/13/13
f 13/13/13 11/11/11 14/14/14
f 263/263/263 270/270/270 261/261/261
f 261/261/261 262/262/262 263/263/263
f 263/263/263 277/277/277 275/275/275
f 275/275/275 269/269/269 263/263/263
f 277/277/277 263/263/263 264/264/264
f 269/269/269 270/270/270 263/263/263
f 263/263/263 262/262/262 264/264/264
f 279/279/279 270/270/270 274/274/274
f 269/269/269 274/274/274 270/270/270
f 274/274/274 269/269/269 275/275/275
f 279/279/279 274/274/274 266/266/266
f 274/274/274 275/275/275 278/278/278
f 278/278/278 266/266/266 274/274/274
f 501/501/501 500/500/500 509/509/509
f 500/500/500 501/501/501 502/502/502
f 501/501/501 508/508/508 514/514/514
f 514/514/514 515/515/515 501/501/501
f 515/515/515 503/503/503 501/501/501
f 508/508/508 501/501/501 509/509/509
f 501/501/501 503/503/503 502/502/502
f 518/518/518 513/513/513 509/509/509
f 508/508/508 509/509/509 513/513/513
f 513/513/513 514/514/514 508/508/508
f 505/505/505 513/513/513 518/518/518
f 513/513/513 517/517/517 514/514/514
f 517/517/517 513/513/513 505/505/505
f 46/46/46 44/44/44 47/47/47
f 46/46/46 50/50/50 52/52/52
f 49/49/49 50/50/50 46/46/46
f 46/46/46 47/47/47 49/49/49
f 51/51/51 59/59/59 52/52/52
f 52/52/52 50/50/50 53/53/53
f 51/51/51 52/52/52 53/53/53
f 60/60/60 59/59/59 51/51/51
f 59/59/59 60/60/60 61/61/61
f 51/51/51 54/54/54 200/200/200
f 200/200/200 133/133/133 51/51/51
f 51/51/51 133/133/133 60/60/60
f 53/53/53 54/54/54 51/51/51
f 50/50/50 76/76/76 53/53/53
f 75/75/75 53/53/53 76/76/76
f 131/131/131 76/76/76 50/50/50
f 50/50/50 82/82/82 131/131/131
f 81/81/81 82/82/82 50/50/50
f 324/324/324 323/323/323 332/332/332
f 323/323/323 324/324/324 325/325/325
f 338/338/338 324/324/324 331/331/331
f 338/338/338 326/326/326 324/324/324
f 331/331/331 324/324/324 332/332/332
f 324/324/324 326/326/326 325/325/325
f 400/400/400 336/336/336 332/332/332
f 331/331/331 332/332/332 336/336/336
f 331/331/331 337/337/337 338/338/338
f 336/336/336 337/337/337 331/331/331
f 328/328/328 336/336/336 400/400/400
f 336/336/336 340/340/340 337/337/337
f 340/340/340 336/336/336 328/328/328
f 12/12/12 19/19/19 10/10/10
f 10/10/10 11/11/11 12/12/12
f 18/18/18 12/12/12 25/25/25
f 25/25/25 12/12/12 13/13/13
f 18/18/18 19/19/19 12/12/12
f 12/12/12 11/11/11 13/13/13
f 104/104/104 19/19/19 23/23/23
f 18/18/18 23/23/23 19/19/19
f 25/25/25 24/24/24 18/18/18
f 23/23/23 18/18/18 24/24/24
f 104/104/104 23/23/23 15/15/15
f 23/23/23 24/24/24 27/27/27
f 27/27/27 15/15/15 23/23/23
f 50/50/50 49/49/49 81/81/81
f 132/132/132 77/77/77 76/76/76
f 76/76/76 131/131/131 132/132/132
f 76/76/76 77/77/77 75/75/75
f 132/132/132 137/137/137 75/75/75
f 75/75/75 77/77/77 132/132/132
f 132/132/132 378/378/378 377/377/377
f 377/377/377 137/137/137 132/132/132
f 132/132/132 131/131/131 379/379/379
f 379/379/379 378/378/378 132/132/132
f 131/131/131 82/82/82 359/359/359
f 359/359/359 379/379/379 131/131/131
f 359/359/359 82/82/82 81/81/81
f 364/364/364 359/359/359 356/356/356
f 359/359/359 363/363/363 379/379/379
f 81/81/81 360/360/360 359/359/359
f 364/364/364 363/363/363 359/359/359
f 356/356/356 359/359/359 360/360/360
f 379/379/379 363/363/363 377/377/377
f 377/377/377 378/378/378 379/379/379
f 357/357/357 360/360/360 385/385/385
f 385/385/385 360/360/360 81/81/81
f 360/360/360 357/357/357 356/356/356
f 356/356/356 354/354/354 364/364/364
f 355/355/355 354/354/354 356/356/356
f 356/356/356 357/357/357 355/355/355
f 385/385/385 388/388/388 357/357/357
f 388/388/388 358/358/358 357/357/357
f 160/160/160 161/161/161 162/162/162
f 165/165/165 437/437/437 166/166/166
f 438/438/438 437/437/437 165/165/165
f 165/165/165 166/166/166 162/162/162
f 160/160/160 438/438/438 443/443/443
f 437/437/437 438/438/438 160/160/160
f 443/443/443 192/192/192 160/160/160
f 160/160/160 163/163/163 437/437/437
f 160/160/160 192/192/192 176/176/176
f 162/162/162 163/163/163 160/160/160
f 176/176/176 192/192/192 193/193/193
f 193/193/193 192/192/192 443/443/443
f 437/437/437 163/163/163 166/166/166
f 162/162/162 166/166/166 163/163/163
